<?xml version="1.0" encoding="utf-8" standalone="no"?>
<!DOCTYPE svg PUBLIC "-//W3C//DTD SVG 1.1//EN"
  "http://www.w3.org/Graphics/SVG/1.1/DTD/svg11.dtd">
<svg xmlns:xlink="http://www.w3.org/1999/xlink" width="792pt" height="612pt" viewBox="0 0 792 612" xmlns="http://www.w3.org/2000/svg" version="1.1">
 <metadata>
  <rdf:RDF xmlns:dc="http://purl.org/dc/elements/1.1/" xmlns:cc="http://creativecommons.org/ns#" xmlns:rdf="http://www.w3.org/1999/02/22-rdf-syntax-ns#">
   <cc:Work>
    <dc:type rdf:resource="http://purl.org/dc/dcmitype/StillImage"/>
    <dc:date>2023-01-02T15:38:18.630050</dc:date>
    <dc:format>image/svg+xml</dc:format>
    <dc:creator>
     <cc:Agent>
      <dc:title>Matplotlib v3.6.2, https://matplotlib.org/</dc:title>
     </cc:Agent>
    </dc:creator>
   </cc:Work>
  </rdf:RDF>
 </metadata>
 <defs>
  <style type="text/css">*{stroke-linejoin: round; stroke-linecap: butt}</style>
 </defs>
 <g id="figure_1">
  <g id="patch_1">
   <path d="M 0 612 
L 792 612 
L 792 0 
L 0 0 
z
" style="fill: #ffffff"/>
  </g>
  <g id="axes_1">
   <g id="line2d_1">
    <path d="M 0 306 
L 41.684211 309.003994 
L 83.368421 302.773504 
L 125.052632 303.886044 
L 166.736842 311.757161 
L 208.421053 305.471503 
L 250.105263 300.604323 
L 291.789474 304.219818 
L 333.473684 311.340063 
L 375.157895 307.196067 
L 416.842105 305.332425 
L 458.526316 305.248979 
L 500.210526 302.106019 
L 541.894737 305.638397 
L 583.578947 304.275448 
L 625.263158 305.276794 
L 666.947368 308.892742 
L 708.631579 306.723206 
L 750.315789 305.638397 
" clip-path="url(#p79e7841b30)" style="fill: none; stroke: #000000; stroke-width: 1.5; stroke-linecap: square"/>
   </g>
   <g id="line2d_2">
    <path d="M 0 306 
L 41.684211 306 
L 83.368421 308.002698 
L 125.052632 305.014535 
L 166.736842 304.412668 
L 208.421053 308.203679 
L 250.105263 306.815924 
L 291.789474 303.685431 
L 333.473684 303.953671 
L 375.157895 307.657579 
L 416.842105 307.423279 
L 458.526316 306.382874 
L 500.210526 305.818598 
L 541.894737 303.943309 
L 583.578947 304.791171 
L 625.263158 304.540507 
L 666.947368 304.910722 
L 708.631579 306.89697 
L 750.315789 306.809161 
" clip-path="url(#p79e7841b30)" style="fill: none; stroke: #000000; stroke-width: 1.5; stroke-linecap: square"/>
   </g>
   <g id="line2d_3">
    <path d="M 0 306 
L 41.684211 306 
L 83.368421 307.759736 
L 125.052632 305.500522 
L 166.736842 304.870021 
L 208.421053 307.320615 
L 250.105263 306.701656 
L 291.789474 304.742462 
L 333.473684 304.579177 
L 375.157895 306.651113 
L 416.842105 306.815876 
L 458.526316 306.371566 
L 500.210526 306.037549 
L 541.894737 304.873108 
L 583.578947 305.09902 
L 625.263158 304.856459 
L 666.947368 304.980055 
L 708.631579 306.1294 
L 750.315789 306.300702 
" clip-path="url(#p79e7841b30)" style="fill: none; stroke: #000000; stroke-width: 1.5; stroke-linecap: square"/>
   </g>
   <g id="line2d_4">
    <path d="M 0 306 
L 41.684211 306 
L 83.368421 307.631847 
L 125.052632 305.725084 
L 166.736842 305.13988 
L 208.421053 306.956695 
L 250.105263 306.591161 
L 291.789474 305.235508 
L 333.473684 305.020039 
L 375.157895 306.29334 
L 416.842105 306.46781 
L 458.526316 306.255625 
L 500.210526 306.072584 
L 541.894737 305.367325 
L 583.578947 305.414635 
L 625.263158 305.218831 
L 666.947368 305.228668 
L 708.631579 305.843987 
L 750.315789 305.990342 
" clip-path="url(#p79e7841b30)" style="fill: none; stroke: #000000; stroke-width: 1.5; stroke-linecap: square"/>
   </g>
   <g id="line2d_5">
    <path d="M 0 306 
L 41.684211 306 
L 83.368421 307.567062 
L 125.052632 305.828909 
L 166.736842 305.278359 
L 208.421053 306.807938 
L 250.105263 306.534333 
L 291.789474 305.451943 
L 333.473684 305.247418 
L 375.157895 306.181326 
L 416.842105 306.326645 
L 458.526316 306.192351 
L 500.210526 306.071233 
L 541.894737 305.584227 
L 583.578947 305.590625 
L 625.263158 305.440557 
L 666.947368 305.422435 
L 708.631579 305.796134 
L 750.315789 305.893558 
" clip-path="url(#p79e7841b30)" style="fill: none; stroke: #000000; stroke-width: 1.5; stroke-linecap: square"/>
   </g>
   <g id="line2d_6">
    <path d="M 0 306 
L 41.684211 306 
L 83.368421 307.534563 
L 125.052632 305.878283 
L 166.736842 305.347398 
L 208.421053 306.742903 
L 250.105263 306.50741 
L 291.789474 305.550577 
L 333.473684 305.357945 
L 375.157895 306.143534 
L 416.842105 306.270459 
L 458.526316 306.165546 
L 500.210526 306.06969 
L 541.894737 305.679413 
L 583.578947 305.675589 
L 625.263158 305.551365 
L 666.947368 305.528083 
L 708.631579 305.801787 
L 750.315789 305.87393 
" clip-path="url(#p79e7841b30)" style="fill: none; stroke: #000000; stroke-width: 1.5; stroke-linecap: square"/>
   </g>
   <g id="line2d_7">
    <path d="M 0 306 
L 41.684211 306 
L 83.368421 307.5183 
L 125.052632 305.902289 
L 166.736842 305.381726 
L 208.421053 306.712781 
L 250.105263 306.49454 
L 291.789474 305.597342 
L 333.473684 305.411816 
L 375.157895 306.12907 
L 416.842105 306.246467 
L 458.526316 306.154084 
L 500.210526 306.069353 
L 541.894737 305.723287 
L 583.578947 305.716334 
L 625.263158 305.605034 
L 666.947368 305.58102 
L 708.631579 305.811393 
L 750.315789 305.871907 
" clip-path="url(#p79e7841b30)" style="fill: none; stroke: #000000; stroke-width: 1.5; stroke-linecap: square"/>
   </g>
   <g id="line2d_8">
    <path d="M 0 306 
L 41.684211 306 
L 83.368421 307.510167 
L 125.052632 305.914116 
L 166.736842 305.398824 
L 208.421053 306.698322 
L 250.105263 306.488277 
L 291.789474 305.620074 
L 333.473684 305.438334 
L 375.157895 306.122908 
L 416.842105 306.23553 
L 458.526316 306.148912 
L 500.210526 306.06937 
L 541.894737 305.744277 
L 583.578947 305.736171 
L 625.263158 305.631233 
L 666.947368 305.607236 
L 708.631579 305.817702 
L 750.315789 305.872772 
" clip-path="url(#p79e7841b30)" style="fill: none; stroke: #000000; stroke-width: 1.5; stroke-linecap: square"/>
   </g>
   <g id="line2d_9">
    <path d="M 0 306 
L 41.684211 306 
L 83.368421 307.5061 
L 125.052632 305.919986 
L 166.736842 305.407355 
L 208.421053 306.691243 
L 250.105263 306.485191 
L 291.789474 305.631277 
L 333.473684 305.45148 
L 375.157895 306.12009 
L 416.842105 306.230329 
L 458.526316 306.146473 
L 500.210526 306.069435 
L 541.894737 305.754536 
L 583.578947 305.745945 
L 625.263158 305.644151 
L 666.947368 305.620247 
L 708.631579 305.821204 
L 750.315789 305.873655 
" clip-path="url(#p79e7841b30)" style="fill: none; stroke: #000000; stroke-width: 1.5; stroke-linecap: square"/>
   </g>
  </g>
 </g>
 <defs>
  <clipPath id="p79e7841b30">
   <rect x="0" y="0" width="792" height="612"/>
  </clipPath>
 </defs>
</svg>
