<?xml version="1.0" encoding="utf-8" standalone="no"?>
<!DOCTYPE svg PUBLIC "-//W3C//DTD SVG 1.1//EN"
  "http://www.w3.org/Graphics/SVG/1.1/DTD/svg11.dtd">
<svg xmlns:xlink="http://www.w3.org/1999/xlink" width="792pt" height="612pt" viewBox="0 0 792 612" xmlns="http://www.w3.org/2000/svg" version="1.1">
 <metadata>
  <rdf:RDF xmlns:dc="http://purl.org/dc/elements/1.1/" xmlns:cc="http://creativecommons.org/ns#" xmlns:rdf="http://www.w3.org/1999/02/22-rdf-syntax-ns#">
   <cc:Work>
    <dc:type rdf:resource="http://purl.org/dc/dcmitype/StillImage"/>
    <dc:date>2022-12-19T20:27:25.939467</dc:date>
    <dc:format>image/svg+xml</dc:format>
    <dc:creator>
     <cc:Agent>
      <dc:title>Matplotlib v3.6.2, https://matplotlib.org/</dc:title>
     </cc:Agent>
    </dc:creator>
   </cc:Work>
  </rdf:RDF>
 </metadata>
 <defs>
  <style type="text/css">*{stroke-linejoin: round; stroke-linecap: butt}</style>
 </defs>
 <g id="figure_1">
  <g id="patch_1">
   <path d="M 0 612 
L 792 612 
L 792 0 
L 0 0 
z
" style="fill: #ffffff"/>
  </g>
  <g id="axes_1">
   <g id="line2d_1">
    <path d="M 0 306 
L 41.684211 308.286953 
L 83.368421 304.993726 
L 125.052632 298.743961 
L 166.736842 300.146006 
L 208.421053 301.792193 
L 250.105263 302.066584 
L 291.789474 306.243946 
L 333.473684 303.926489 
L 375.157895 303.103226 
L 416.842105 304.810768 
L 458.526316 302.097073 
L 500.210526 306.975781 
L 541.894737 305.268163 
L 583.578947 306.09148 
L 625.263158 309.293146 
L 666.947368 302.462938 
L 708.631579 303.682556 
L 750.315789 312.311212 
" clip-path="url(#paf40582e4c)" style="fill: none; stroke: #000000; stroke-width: 1.5; stroke-linecap: square"/>
   </g>
   <g id="line2d_2">
    <path d="M 0 306 
L 41.684211 306 
L 83.368421 307.524651 
L 125.052632 306.078411 
L 166.736842 302.16618 
L 208.421053 301.123456 
L 250.105263 301.463127 
L 291.789474 301.767227 
L 333.473684 304.014258 
L 375.157895 303.966308 
L 416.842105 303.524598 
L 458.526316 304.167316 
L 500.210526 303.138738 
L 541.894737 305.070616 
L 583.578947 305.176205 
L 625.263158 305.641734 
L 666.947368 307.473471 
L 708.631579 304.965266 
L 750.315789 304.325039 
" clip-path="url(#paf40582e4c)" style="fill: none; stroke: #000000; stroke-width: 1.5; stroke-linecap: square"/>
   </g>
   <g id="line2d_3">
    <path d="M 0 306 
L 41.684211 306 
L 83.368421 307.339682 
L 125.052632 306.276775 
L 166.736842 303.334564 
L 208.421053 302.20001 
L 250.105263 302.063498 
L 291.789474 302.06449 
L 333.473684 303.370149 
L 375.157895 303.54063 
L 416.842105 303.408383 
L 458.526316 303.828405 
L 500.210526 303.313241 
L 541.894737 304.397926 
L 583.578947 304.654817 
L 625.263158 305.07794 
L 666.947368 306.317422 
L 708.631579 305.184363 
L 750.315789 304.739198 
" clip-path="url(#paf40582e4c)" style="fill: none; stroke: #000000; stroke-width: 1.5; stroke-linecap: square"/>
   </g>
   <g id="line2d_4">
    <path d="M 0 306 
L 41.684211 306 
L 83.368421 307.24232 
L 125.052632 306.35983 
L 166.736842 303.936004 
L 208.421053 302.895429 
L 250.105263 302.623892 
L 291.789474 302.497705 
L 333.473684 303.292376 
L 375.157895 303.420119 
L 416.842105 303.358873 
L 458.526316 303.630202 
L 500.210526 303.351418 
L 541.894737 303.995774 
L 583.578947 304.21784 
L 625.263158 304.539873 
L 666.947368 305.346567 
L 708.631579 304.862299 
L 750.315789 304.665915 
" clip-path="url(#paf40582e4c)" style="fill: none; stroke: #000000; stroke-width: 1.5; stroke-linecap: square"/>
   </g>
   <g id="line2d_5">
    <path d="M 0 306 
L 41.684211 306 
L 83.368421 307.192999 
L 125.052632 306.395557 
L 166.736842 304.22699 
L 208.421053 303.263499 
L 250.105263 302.96227 
L 291.789474 302.798793 
L 333.473684 303.370628 
L 375.157895 303.455824 
L 416.842105 303.405329 
L 458.526316 303.595163 
L 500.210526 303.402818 
L 541.894737 303.841607 
L 583.578947 304.010094 
L 625.263158 304.247582 
L 666.947368 304.805934 
L 708.631579 304.553623 
L 750.315789 304.462083 
" clip-path="url(#paf40582e4c)" style="fill: none; stroke: #000000; stroke-width: 1.5; stroke-linecap: square"/>
   </g>
   <g id="line2d_6">
    <path d="M 0 306 
L 41.684211 306 
L 83.368421 307.168257 
L 125.052632 306.411797 
L 166.736842 304.368184 
L 208.421053 303.448937 
L 250.105263 303.142055 
L 291.789474 302.967742 
L 333.473684 303.441952 
L 375.157895 303.505577 
L 416.842105 303.457057 
L 458.526316 303.608457 
L 500.210526 303.450389 
L 541.894737 303.797478 
L 583.578947 303.934589 
L 625.263158 304.125947 
L 666.947368 304.564091 
L 708.631579 304.393166 
L 750.315789 304.337528 
" clip-path="url(#paf40582e4c)" style="fill: none; stroke: #000000; stroke-width: 1.5; stroke-linecap: square"/>
   </g>
   <g id="line2d_7">
    <path d="M 0 306 
L 41.684211 306 
L 83.368421 307.155876 
L 125.052632 306.419495 
L 166.736842 304.437484 
L 208.421053 303.541502 
L 250.105263 303.233923 
L 291.789474 303.056125 
L 333.473684 303.485436 
L 375.157895 303.538793 
L 416.842105 303.490869 
L 458.526316 303.624269 
L 500.210526 303.481294 
L 541.894737 303.786392 
L 583.578947 303.907769 
L 625.263158 304.07644 
L 666.947368 304.458091 
L 708.631579 304.3193 
L 750.315789 304.277041 
" clip-path="url(#paf40582e4c)" style="fill: none; stroke: #000000; stroke-width: 1.5; stroke-linecap: square"/>
   </g>
   <g id="line2d_8">
    <path d="M 0 306 
L 41.684211 306 
L 83.368421 307.149685 
L 125.052632 306.423236 
L 166.736842 304.471785 
L 208.421053 303.587682 
L 250.105263 303.280258 
L 291.789474 303.101186 
L 333.473684 303.509062 
L 375.157895 303.557477 
L 416.842105 303.509806 
L 458.526316 303.63458 
L 500.210526 303.498679 
L 541.894737 303.78386 
L 583.578947 303.897503 
L 625.263158 304.055111 
L 666.947368 304.409747 
L 708.631579 304.285034 
L 750.315789 304.248393 
" clip-path="url(#paf40582e4c)" style="fill: none; stroke: #000000; stroke-width: 1.5; stroke-linecap: square"/>
   </g>
   <g id="line2d_9">
    <path d="M 0 306 
L 41.684211 306 
L 83.368421 307.146589 
L 125.052632 306.42508 
L 166.736842 304.488844 
L 208.421053 303.610738 
L 250.105263 303.303514 
L 291.789474 303.12392 
L 333.473684 303.521335 
L 375.157895 303.567333 
L 416.842105 303.519783 
L 458.526316 303.640345 
L 500.210526 303.507869 
L 541.894737 303.783373 
L 583.578947 303.8932 
L 625.263158 304.045368 
L 666.947368 304.386841 
L 708.631579 304.268696 
L 750.315789 304.234612 
" clip-path="url(#paf40582e4c)" style="fill: none; stroke: #000000; stroke-width: 1.5; stroke-linecap: square"/>
   </g>
  </g>
 </g>
 <defs>
  <clipPath id="paf40582e4c">
   <rect x="0" y="0" width="792" height="612"/>
  </clipPath>
 </defs>
</svg>
