<?xml version="1.0" encoding="utf-8" standalone="no"?>
<!DOCTYPE svg PUBLIC "-//W3C//DTD SVG 1.1//EN"
  "http://www.w3.org/Graphics/SVG/1.1/DTD/svg11.dtd">
<svg xmlns:xlink="http://www.w3.org/1999/xlink" width="792pt" height="612pt" viewBox="0 0 792 612" xmlns="http://www.w3.org/2000/svg" version="1.1">
 <metadata>
  <rdf:RDF xmlns:dc="http://purl.org/dc/elements/1.1/" xmlns:cc="http://creativecommons.org/ns#" xmlns:rdf="http://www.w3.org/1999/02/22-rdf-syntax-ns#">
   <cc:Work>
    <dc:type rdf:resource="http://purl.org/dc/dcmitype/StillImage"/>
    <dc:date>2022-12-19T20:27:24.935153</dc:date>
    <dc:format>image/svg+xml</dc:format>
    <dc:creator>
     <cc:Agent>
      <dc:title>Matplotlib v3.6.2, https://matplotlib.org/</dc:title>
     </cc:Agent>
    </dc:creator>
   </cc:Work>
  </rdf:RDF>
 </metadata>
 <defs>
  <style type="text/css">*{stroke-linejoin: round; stroke-linecap: butt}</style>
 </defs>
 <g id="figure_1">
  <g id="patch_1">
   <path d="M 0 612 
L 792 612 
L 792 0 
L 0 0 
z
" style="fill: #ffffff"/>
  </g>
  <g id="axes_1">
   <g id="line2d_1">
    <path d="M 0 459 
L 41.684211 460.143498 
L 83.368421 459.640359 
L 125.052632 450.036117 
L 166.736842 441.261753 
L 208.421053 434.962817 
L 250.105263 429.082833 
L 291.789474 429.447216 
L 333.473684 426.351194 
L 375.157895 422.030926 
L 416.842105 420.259205 
L 458.526316 414.452771 
L 500.210526 415.903105 
L 541.894737 414.815271 
L 583.578947 414.951223 
L 625.263158 419.85051 
L 666.947368 414.588702 
L 708.631579 411.1476 
L 750.315789 420.531703 
" clip-path="url(#p1f5e4f9904)" style="fill: none; stroke: #000000; stroke-width: 1.5; stroke-linecap: square"/>
   </g>
   <g id="line2d_2">
    <path d="M 0 459 
L 41.684211 459 
L 83.368421 459.762332 
L 125.052632 459.692633 
L 166.736842 455.188428 
L 208.421053 447.997971 
L 250.105263 441.373396 
L 291.789474 435.17545 
L 333.473684 432.299059 
L 375.157895 429.260019 
L 416.842105 425.564441 
L 458.526316 422.831195 
L 500.210526 418.569092 
L 541.894737 417.186202 
L 583.578947 415.961065 
L 625.263158 415.42845 
L 666.947368 417.619742 
L 708.631579 416.080724 
L 750.315789 413.591524 
" clip-path="url(#p1f5e4f9904)" style="fill: none; stroke: #000000; stroke-width: 1.5; stroke-linecap: square"/>
   </g>
   <g id="line2d_3">
    <path d="M 0 459 
L 41.684211 459 
L 83.368421 459.669845 
L 125.052632 459.656486 
L 166.736842 456.699296 
L 208.421053 451.204392 
L 250.105263 445.763571 
L 291.789474 440.398245 
L 333.473684 436.974062 
L 375.157895 433.715788 
L 416.842105 430.1788 
L 458.526316 427.204503 
L 500.210526 423.404259 
L 541.894737 421.180498 
L 583.578947 419.29985 
L 625.263158 418.018309 
L 666.947368 418.556919 
L 708.631579 417.343247 
L 750.315789 415.468322 
" clip-path="url(#p1f5e4f9904)" style="fill: none; stroke: #000000; stroke-width: 1.5; stroke-linecap: square"/>
   </g>
   <g id="line2d_4">
    <path d="M 0 459 
L 41.684211 459 
L 83.368421 459.621164 
L 125.052632 459.628697 
L 166.736842 457.433195 
L 208.421053 452.991583 
L 250.105263 448.550469 
L 291.789474 444.136829 
L 333.473684 441.017031 
L 375.157895 438.058606 
L 416.842105 434.955734 
L 458.526316 432.20451 
L 500.210526 428.969093 
L 541.894737 426.641875 
L 583.578947 424.574213 
L 625.263158 422.91782 
L 666.947368 422.397029 
L 708.631579 421.084166 
L 750.315789 419.427382 
" clip-path="url(#p1f5e4f9904)" style="fill: none; stroke: #000000; stroke-width: 1.5; stroke-linecap: square"/>
   </g>
   <g id="line2d_5">
    <path d="M 0 459 
L 41.684211 459 
L 83.368421 459.596503 
L 125.052632 459.612405 
L 166.736842 457.776231 
L 208.421053 453.875857 
L 250.105263 450.000308 
L 291.789474 446.177291 
L 333.473684 443.39667 
L 375.157895 440.780113 
L 416.842105 438.089879 
L 458.526316 435.676514 
L 500.210526 432.9441 
L 541.894737 430.846392 
L 583.578947 428.948583 
L 625.263158 427.348094 
L 666.947368 426.517492 
L 708.631579 425.230561 
L 750.315789 423.747132 
" clip-path="url(#p1f5e4f9904)" style="fill: none; stroke: #000000; stroke-width: 1.5; stroke-linecap: square"/>
   </g>
   <g id="line2d_6">
    <path d="M 0 459 
L 41.684211 459 
L 83.368421 459.584132 
L 125.052632 459.603691 
L 166.736842 457.939544 
L 208.421053 454.307147 
L 250.105263 450.720805 
L 291.789474 447.208788 
L 333.473684 444.634323 
L 375.157895 442.229683 
L 416.842105 439.788919 
L 458.526316 437.599863 
L 500.210526 435.171946 
L 541.894737 433.269905 
L 583.578947 431.544884 
L 625.263158 430.069107 
L 666.947368 429.201374 
L 708.631579 428.010035 
L 750.315789 426.686147 
" clip-path="url(#p1f5e4f9904)" style="fill: none; stroke: #000000; stroke-width: 1.5; stroke-linecap: square"/>
   </g>
   <g id="line2d_7">
    <path d="M 0 459 
L 41.684211 459 
L 83.368421 459.577941 
L 125.052632 459.599199 
L 166.736842 458.0189 
L 208.421053 454.519028 
L 250.105263 451.077444 
L 291.789474 447.722674 
L 333.473684 445.257981 
L 375.157895 442.966904 
L 416.842105 440.658553 
L 458.526316 438.592121 
L 500.210526 436.325419 
L 541.894737 434.537529 
L 583.578947 432.917563 
L 625.263158 431.526212 
L 666.947368 430.670626 
L 708.631579 429.549224 
L 750.315789 428.324356 
" clip-path="url(#p1f5e4f9904)" style="fill: none; stroke: #000000; stroke-width: 1.5; stroke-linecap: square"/>
   </g>
   <g id="line2d_8">
    <path d="M 0 459 
L 41.684211 459 
L 83.368421 459.574845 
L 125.052632 459.59692 
L 166.736842 458.057975 
L 208.421053 454.623901 
L 250.105263 451.25455 
L 291.789474 447.978553 
L 333.473684 445.570061 
L 375.157895 443.337247 
L 416.842105 441.096505 
L 458.526316 439.093386 
L 500.210526 436.908751 
L 541.894737 435.181152 
L 583.578947 433.617472 
L 625.263158 432.272954 
L 666.947368 431.430453 
L 708.631579 430.348889 
L 750.315789 429.177558 
" clip-path="url(#p1f5e4f9904)" style="fill: none; stroke: #000000; stroke-width: 1.5; stroke-linecap: square"/>
   </g>
   <g id="line2d_9">
    <path d="M 0 459 
L 41.684211 459 
L 83.368421 459.573297 
L 125.052632 459.595772 
L 166.736842 458.077359 
L 208.421053 454.676055 
L 250.105263 451.342762 
L 291.789474 448.106151 
L 333.473684 445.726041 
L 375.157895 443.522674 
L 416.842105 441.316017 
L 458.526316 439.34497 
L 500.210526 437.201624 
L 541.894737 435.504848 
L 583.578947 433.970112 
L 625.263158 432.650018 
L 666.947368 431.81568 
L 708.631579 430.755114 
L 750.315789 429.611403 
" clip-path="url(#p1f5e4f9904)" style="fill: none; stroke: #000000; stroke-width: 1.5; stroke-linecap: square"/>
   </g>
  </g>
 </g>
 <defs>
  <clipPath id="p1f5e4f9904">
   <rect x="0" y="0" width="792" height="612"/>
  </clipPath>
 </defs>
</svg>
