<?xml version="1.0" encoding="utf-8" standalone="no"?>
<!DOCTYPE svg PUBLIC "-//W3C//DTD SVG 1.1//EN"
  "http://www.w3.org/Graphics/SVG/1.1/DTD/svg11.dtd">
<svg xmlns:xlink="http://www.w3.org/1999/xlink" width="792pt" height="612pt" viewBox="0 0 792 612" xmlns="http://www.w3.org/2000/svg" version="1.1">
 <metadata>
  <rdf:RDF xmlns:dc="http://purl.org/dc/elements/1.1/" xmlns:cc="http://creativecommons.org/ns#" xmlns:rdf="http://www.w3.org/1999/02/22-rdf-syntax-ns#">
   <cc:Work>
    <dc:type rdf:resource="http://purl.org/dc/dcmitype/StillImage"/>
    <dc:date>2023-01-23T15:50:25.262920</dc:date>
    <dc:format>image/svg+xml</dc:format>
    <dc:creator>
     <cc:Agent>
      <dc:title>Matplotlib v3.6.2, https://matplotlib.org/</dc:title>
     </cc:Agent>
    </dc:creator>
   </cc:Work>
  </rdf:RDF>
 </metadata>
 <defs>
  <style type="text/css">*{stroke-linejoin: round; stroke-linecap: butt}</style>
 </defs>
 <g id="figure_1">
  <g id="patch_1">
   <path d="M 0 612 
L 792 612 
L 792 0 
L 0 0 
z
" style="fill: #ffffff"/>
  </g>
  <g id="axes_1">
   <g id="line2d_1">
    <path d="M 0 459 
L 44 457.867601 
L 88 451.996432 
L 132 451.451339 
L 176 448.851983 
L 220 447.762115 
L 264 452.122225 
L 308 453.212478 
L 352 452.667343 
L 396 451.870639 
L 440 447.929779 
L 484 441.393511 
L 528 436.370336 
L 572 455.057663 
L 616 453.254412 
L 660 452.164157 
L 704 449.229272 
L 748 447.217227 
" clip-path="url(#pef5be965cb)" style="fill: none; stroke: #000000; stroke-width: 1.5; stroke-linecap: square"/>
   </g>
   <g id="line2d_2">
    <path d="M 0 459 
L 44 459 
L 88 458.245066 
L 132 454.674235 
L 176 452.955284 
L 220 450.837289 
L 264 449.275187 
L 308 450.709835 
L 352 451.966011 
L 396 452.304258 
L 440 452.07569 
L 484 449.994577 
L 528 445.673155 
L 572 440.995427 
L 616 448.038269 
L 660 450.64829 
L 704 451.404147 
L 748 450.30992 
" clip-path="url(#pef5be965cb)" style="fill: none; stroke: #000000; stroke-width: 1.5; stroke-linecap: square"/>
   </g>
   <g id="line2d_3">
    <path d="M 0 459 
L 44 459 
L 88 458.336655 
L 132 455.463838 
L 176 453.896762 
L 220 452.101684 
L 264 450.648902 
L 308 451.122251 
L 352 451.775248 
L 396 452.048612 
L 440 451.994803 
L 484 450.777137 
L 528 447.984037 
L 572 444.542317 
L 616 447.645358 
L 660 449.297061 
L 704 450.140038 
L 748 449.862054 
" clip-path="url(#pef5be965cb)" style="fill: none; stroke: #000000; stroke-width: 1.5; stroke-linecap: square"/>
   </g>
   <g id="line2d_4">
    <path d="M 0 459 
L 44 459 
L 88 458.384865 
L 132 455.877468 
L 176 454.46894 
L 220 452.926718 
L 264 451.655411 
L 308 451.761105 
L 352 452.068985 
L 396 452.189525 
L 440 452.127894 
L 484 451.343224 
L 528 449.533232 
L 572 447.191217 
L 616 448.563778 
L 660 449.369869 
L 704 449.844045 
L 748 449.740804 
" clip-path="url(#pef5be965cb)" style="fill: none; stroke: #000000; stroke-width: 1.5; stroke-linecap: square"/>
   </g>
   <g id="line2d_5">
    <path d="M 0 459 
L 44 459 
L 88 458.409286 
L 132 456.083861 
L 176 454.771061 
L 220 453.373571 
L 264 452.224557 
L 308 452.205881 
L 352 452.372963 
L 396 452.418083 
L 440 452.339684 
L 484 451.74393 
L 528 450.414426 
L 572 448.688228 
L 616 449.440365 
L 660 449.875505 
L 704 450.12875 
L 748 450.031889 
" clip-path="url(#pef5be965cb)" style="fill: none; stroke: #000000; stroke-width: 1.5; stroke-linecap: square"/>
   </g>
   <g id="line2d_6">
    <path d="M 0 459 
L 44 459 
L 88 458.421537 
L 132 456.186259 
L 176 454.924433 
L 220 453.602309 
L 264 452.520378 
L 308 452.455847 
L 352 452.565368 
L 396 452.578758 
L 440 452.493365 
L 484 451.982876 
L 528 450.874887 
L 572 449.4456 
L 616 449.968727 
L 660 450.260205 
L 704 450.421637 
L 748 450.32464 
" clip-path="url(#pef5be965cb)" style="fill: none; stroke: #000000; stroke-width: 1.5; stroke-linecap: square"/>
   </g>
   <g id="line2d_7">
    <path d="M 0 459 
L 44 459 
L 88 458.427668 
L 132 456.237171 
L 176 455.001463 
L 220 453.717525 
L 264 452.670256 
L 308 452.586787 
L 352 452.671053 
L 396 452.670604 
L 440 452.582586 
L 484 452.112248 
L 528 451.108315 
L 572 449.820422 
L 616 450.24936 
L 660 450.481456 
L 704 450.604554 
L 748 450.508883 
" clip-path="url(#pef5be965cb)" style="fill: none; stroke: #000000; stroke-width: 1.5; stroke-linecap: square"/>
   </g>
   <g id="line2d_8">
    <path d="M 0 459 
L 44 459 
L 88 458.430734 
L 132 456.262545 
L 176 455.040034 
L 220 453.775282 
L 264 452.745573 
L 308 452.653602 
L 352 452.726137 
L 396 452.719318 
L 440 452.630252 
L 484 452.17935 
L 528 451.225551 
L 572 450.006084 
L 616 450.392797 
L 660 450.598352 
L 704 450.704358 
L 748 450.609863 
" clip-path="url(#pef5be965cb)" style="fill: none; stroke: #000000; stroke-width: 1.5; stroke-linecap: square"/>
   </g>
   <g id="line2d_9">
    <path d="M 0 459 
L 44 459 
L 88 458.432267 
L 132 456.27521 
L 176 455.05933 
L 220 453.804189 
L 264 452.783311 
L 308 452.687327 
L 352 452.754221 
L 396 452.744358 
L 440 452.654839 
L 484 452.213491 
L 528 451.284262 
L 572 450.098382 
L 616 450.465162 
L 660 450.658226 
L 704 450.756212 
L 748 450.662443 
" clip-path="url(#pef5be965cb)" style="fill: none; stroke: #000000; stroke-width: 1.5; stroke-linecap: square"/>
   </g>
  </g>
 </g>
 <defs>
  <clipPath id="pef5be965cb">
   <rect x="0" y="0" width="792" height="612"/>
  </clipPath>
 </defs>
</svg>
