<?xml version="1.0" encoding="utf-8" standalone="no"?>
<!DOCTYPE svg PUBLIC "-//W3C//DTD SVG 1.1//EN"
  "http://www.w3.org/Graphics/SVG/1.1/DTD/svg11.dtd">
<svg xmlns:xlink="http://www.w3.org/1999/xlink" width="792pt" height="612pt" viewBox="0 0 792 612" xmlns="http://www.w3.org/2000/svg" version="1.1">
 <metadata>
  <rdf:RDF xmlns:dc="http://purl.org/dc/elements/1.1/" xmlns:cc="http://creativecommons.org/ns#" xmlns:rdf="http://www.w3.org/1999/02/22-rdf-syntax-ns#">
   <cc:Work>
    <dc:type rdf:resource="http://purl.org/dc/dcmitype/StillImage"/>
    <dc:date>2022-12-26T20:27:12.572084</dc:date>
    <dc:format>image/svg+xml</dc:format>
    <dc:creator>
     <cc:Agent>
      <dc:title>Matplotlib v3.6.2, https://matplotlib.org/</dc:title>
     </cc:Agent>
    </dc:creator>
   </cc:Work>
  </rdf:RDF>
 </metadata>
 <defs>
  <style type="text/css">*{stroke-linejoin: round; stroke-linecap: butt}</style>
 </defs>
 <g id="figure_1">
  <g id="patch_1">
   <path d="M 0 612 
L 792 612 
L 792 0 
L 0 0 
z
" style="fill: #ffffff"/>
  </g>
  <g id="axes_1">
   <g id="line2d_1">
    <path d="M 0 306 
L 12.375 307.207234 
L 24.75 302.662467 
L 37.125 306.497099 
L 49.5 307.846346 
L 61.875 300.922954 
L 74.25 303.0175 
L 86.625 306 
L 99 309.373036 
L 111.375 305.431887 
L 123.75 295.777767 
L 136.125 303.976126 
L 148.5 308.236906 
L 160.875 298.651448 
L 173.25 307.100715 
L 185.625 299.11279 
L 198 304.260172 
L 210.375 310.793064 
L 222.75 307.136221 
L 235.125 296.309809 
L 247.5 299.96458 
L 259.875 304.792766 
L 272.25 303.514559 
L 284.625 301.277933 
L 297 302.342945 
L 309.375 304.473208 
L 321.75 311.112543 
L 334.125 307.278247 
L 346.5 308.307916 
L 358.875 304.402196 
L 371.25 302.910989 
L 383.625 300.922954 
L 396 305.680436 
L 408.375 304.934792 
L 420.75 319.944617 
L 433.125 297.515983 
L 445.5 308.662964 
L 457.875 304.828272 
L 470.25 297.551463 
L 482.625 299.183769 
L 495 301.100442 
L 507.375 301.419929 
L 519.75 306.284057 
L 532.125 303.585569 
L 544.5 302.626964 
L 556.875 304.615233 
L 569.25 301.455428 
L 581.625 307.136221 
L 594 305.147832 
L 606.375 306.106521 
L 618.75 309.834564 
L 631.125 301.881428 
L 643.5 303.301532 
L 655.875 313.348552 
L 668.25 305.325367 
L 680.625 299.11279 
L 693 303.727589 
L 705.375 312.816231 
L 717.75 307.526792 
L 730.125 305.147832 
L 742.5 305.041312 
L 754.875 301.029446 
L 767.25 305.538408 
L 779.625 303.798599 
" clip-path="url(#paae0f98638)" style="fill: none; stroke: #000000; stroke-width: 1.5; stroke-linecap: square"/>
   </g>
   <g id="line2d_2">
    <path d="M 0 306 
L 12.375 306 
L 24.75 306.804825 
L 37.125 304.437702 
L 49.5 305.536041 
L 61.875 306.728466 
L 74.25 303.779438 
L 86.625 303.395465 
L 99 304.702816 
L 111.375 307.0446 
L 123.75 306.234764 
L 136.125 300.991304 
L 148.5 302.478689 
L 160.875 305.358506 
L 173.25 302.000042 
L 185.625 304.558284 
L 198 301.821703 
L 210.375 303.030866 
L 222.75 306.922624 
L 235.125 307.051702 
L 247.5 301.664389 
L 259.875 300.798227 
L 272.25 302.807403 
L 284.625 303.153946 
L 297 302.22015 
L 309.375 302.277789 
L 321.75 303.363073 
L 334.125 307.245804 
L 346.5 307.283539 
L 358.875 307.812093 
L 371.25 306.106382 
L 383.625 304.507461 
L 396 302.714399 
L 408.375 304.203919 
L 420.75 304.570259 
L 433.125 312.278719 
L 445.5 304.877564 
L 457.875 306.770989 
L 470.25 305.800464 
L 482.625 301.664667 
L 495 300.420716 
L 507.375 300.751594 
L 519.75 301.078865 
L 532.125 303.65449 
L 544.5 303.631934 
L 556.875 303.117607 
L 569.25 303.86599 
L 581.625 302.668315 
L 594 304.917804 
L 606.375 305.040755 
L 618.75 305.582827 
L 631.125 307.71574 
L 643.5 304.795133 
L 655.875 304.049643 
L 668.25 308.716847 
L 680.625 307.028727 
L 693 303.054535 
L 705.375 303.388274 
L 717.75 308.11591 
L 730.125 307.816827 
L 742.5 306.488744 
L 754.875 305.768438 
L 767.25 303.374629 
L 779.625 304.456917 
" clip-path="url(#paae0f98638)" style="fill: none; stroke: #000000; stroke-width: 1.5; stroke-linecap: square"/>
   </g>
   <g id="line2d_3">
    <path d="M 0 306 
L 12.375 306 
L 24.75 306.707184 
L 37.125 304.874542 
L 49.5 305.508187 
L 61.875 306.340084 
L 74.25 304.526636 
L 86.625 304.041752 
L 99 304.653537 
L 111.375 306.099797 
L 123.75 305.89786 
L 136.125 302.865745 
L 148.5 303.196123 
L 160.875 304.688993 
L 173.25 302.906396 
L 185.625 304.141657 
L 198 302.662734 
L 210.375 303.1286 
L 222.75 305.377644 
L 235.125 305.897859 
L 247.5 303.077019 
L 259.875 302.156263 
L 272.25 302.93288 
L 284.625 303.103819 
L 297 302.563579 
L 309.375 302.490882 
L 321.75 303.070368 
L 334.125 305.443562 
L 346.5 305.984723 
L 358.875 306.665264 
L 371.25 306.00903 
L 383.625 305.096794 
L 396 303.876281 
L 408.375 304.406327 
L 420.75 304.554381 
L 433.125 309.079519 
L 445.5 305.693461 
L 457.875 306.573219 
L 470.25 306.062175 
L 482.625 303.562016 
L 495 302.277068 
L 507.375 301.931002 
L 519.75 301.777803 
L 532.125 303.092006 
L 544.5 303.232324 
L 556.875 303.048491 
L 569.25 303.507612 
L 581.625 302.904838 
L 594 304.151268 
L 606.375 304.44254 
L 618.75 304.931249 
L 631.125 306.355829 
L 643.5 305.050254 
L 655.875 304.531896 
L 668.25 307.124423 
L 680.625 306.606426 
L 693 304.411183 
L 705.375 304.213979 
L 717.75 306.746926 
L 730.125 306.976772 
L 742.5 306.442884 
L 754.875 306.035146 
L 767.25 304.564774 
L 779.625 304.854633 
" clip-path="url(#paae0f98638)" style="fill: none; stroke: #000000; stroke-width: 1.5; stroke-linecap: square"/>
   </g>
   <g id="line2d_4">
    <path d="M 0 306 
L 12.375 306 
L 24.75 306.655789 
L 37.125 305.088504 
L 49.5 305.536728 
L 61.875 306.17079 
L 74.25 304.879082 
L 86.625 304.457574 
L 99 304.784777 
L 111.375 305.709123 
L 123.75 305.655542 
L 136.125 303.808869 
L 148.5 303.839282 
L 160.875 304.62113 
L 173.25 303.579037 
L 185.625 304.184318 
L 198 303.32348 
L 210.375 303.480775 
L 222.75 304.698005 
L 235.125 305.100904 
L 247.5 303.656601 
L 259.875 303.05326 
L 272.25 303.336265 
L 284.625 303.365169 
L 297 303.02779 
L 309.375 302.917376 
L 321.75 303.167671 
L 334.125 304.443605 
L 346.5 304.898152 
L 358.875 305.444249 
L 371.25 305.277532 
L 383.625 304.899236 
L 396 304.264055 
L 408.375 304.489203 
L 420.75 304.55868 
L 433.125 307.018952 
L 445.5 305.501048 
L 457.875 306.00464 
L 470.25 305.819912 
L 482.625 304.50063 
L 495 303.650302 
L 507.375 303.239417 
L 519.75 302.947411 
L 532.125 303.484812 
L 544.5 303.500599 
L 556.875 303.358098 
L 569.25 303.561829 
L 581.625 303.22315 
L 594 303.850713 
L 606.375 304.057639 
L 618.75 304.380692 
L 631.125 305.250127 
L 643.5 304.7176 
L 655.875 304.494376 
L 668.25 305.908661 
L 680.625 305.816986 
L 693 304.748795 
L 705.375 304.587179 
L 717.75 305.901828 
L 730.125 306.15813 
L 742.5 305.996058 
L 754.875 305.842116 
L 767.25 305.074232 
L 779.625 305.149723 
" clip-path="url(#paae0f98638)" style="fill: none; stroke: #000000; stroke-width: 1.5; stroke-linecap: square"/>
   </g>
   <g id="line2d_5">
    <path d="M 0 306 
L 12.375 306 
L 24.75 306.629753 
L 37.125 305.191191 
L 49.5 305.56124 
L 61.875 306.100679 
L 74.25 305.040562 
L 86.625 304.671321 
L 99 304.891869 
L 111.375 305.578719 
L 123.75 305.557691 
L 136.125 304.236182 
L 148.5 304.202793 
L 160.875 304.69823 
L 173.25 303.983898 
L 185.625 304.339529 
L 198 303.761028 
L 210.375 303.814777 
L 222.75 304.54813 
L 235.125 304.814225 
L 247.5 303.956523 
L 259.875 303.561056 
L 272.25 303.681129 
L 284.625 303.665123 
L 297 303.438675 
L 309.375 303.335957 
L 321.75 303.441428 
L 334.125 304.146026 
L 346.5 304.431187 
L 358.875 304.781316 
L 371.25 304.747324 
L 383.625 304.583763 
L 396 304.259643 
L 408.375 304.384731 
L 420.75 304.432915 
L 433.125 305.786341 
L 445.5 305.068011 
L 457.875 305.378984 
L 470.25 305.331513 
L 482.625 304.662842 
L 495 304.193349 
L 507.375 303.929054 
L 519.75 303.715171 
L 532.125 303.933635 
L 544.5 303.904094 
L 556.875 303.795902 
L 569.25 303.865189 
L 581.625 303.661707 
L 594 303.954645 
L 606.375 304.055112 
L 618.75 304.227633 
L 631.125 304.698668 
L 643.5 304.462221 
L 655.875 304.3649 
L 668.25 305.117606 
L 680.625 305.134997 
L 693 304.631152 
L 705.375 304.555618 
L 717.75 305.245835 
L 730.125 305.436293 
L 742.5 305.412219 
L 754.875 305.381278 
L 767.25 305.018374 
L 779.625 305.06172 
" clip-path="url(#paae0f98638)" style="fill: none; stroke: #000000; stroke-width: 1.5; stroke-linecap: square"/>
   </g>
   <g id="line2d_6">
    <path d="M 0 306 
L 12.375 306 
L 24.75 306.616692 
L 37.125 305.241078 
L 49.5 305.575772 
L 61.875 306.070064 
L 74.25 305.116613 
L 86.625 304.776388 
L 99 304.953506 
L 111.375 305.533855 
L 123.75 305.521558 
L 136.125 304.431364 
L 148.5 304.383755 
L 160.875 304.763127 
L 173.25 304.193208 
L 185.625 304.451161 
L 198 303.99842 
L 210.375 304.019712 
L 222.75 304.550049 
L 235.125 304.745515 
L 247.5 304.128186 
L 259.875 303.832648 
L 272.25 303.898895 
L 284.625 303.873063 
L 297 303.70285 
L 309.375 303.615679 
L 321.75 303.669477 
L 334.125 304.127131 
L 346.5 304.317246 
L 358.875 304.553775 
L 371.25 304.544939 
L 383.625 304.451187 
L 396 304.25172 
L 408.375 304.331357 
L 420.75 304.36455 
L 433.125 305.211405 
L 445.5 304.798187 
L 457.875 305.003342 
L 470.25 304.994147 
L 482.625 304.607058 
L 495 304.327703 
L 507.375 304.162981 
L 519.75 304.024174 
L 532.125 304.137588 
L 544.5 304.110098 
L 556.875 304.036779 
L 569.25 304.065174 
L 581.625 303.937908 
L 594 304.092873 
L 606.375 304.14368 
L 618.75 304.23767 
L 631.125 304.504221 
L 643.5 304.379954 
L 655.875 304.329114 
L 668.25 304.752356 
L 680.625 304.77912 
L 693 304.515545 
L 705.375 304.479048 
L 717.75 304.863739 
L 730.125 304.986144 
L 742.5 304.99355 
L 754.875 304.99573 
L 767.25 304.815255 
L 779.625 304.848055 
" clip-path="url(#paae0f98638)" style="fill: none; stroke: #000000; stroke-width: 1.5; stroke-linecap: square"/>
   </g>
   <g id="line2d_7">
    <path d="M 0 306 
L 12.375 306 
L 24.75 306.610157 
L 37.125 305.265613 
L 49.5 305.583558 
L 61.875 306.055935 
L 74.25 305.153371 
L 86.625 304.828056 
L 99 304.985891 
L 111.375 305.516654 
L 123.75 305.507327 
L 136.125 304.523581 
L 148.5 304.472331 
L 160.875 304.801022 
L 173.25 304.297174 
L 185.625 304.513724 
L 198 304.118522 
L 210.375 304.128375 
L 222.75 304.570703 
L 235.125 304.733643 
L 247.5 304.220047 
L 259.875 303.970512 
L 272.25 304.016991 
L 284.625 303.989553 
L 297 303.846214 
L 309.375 303.769174 
L 321.75 303.804208 
L 334.125 304.157876 
L 346.5 304.304907 
L 358.875 304.488804 
L 371.25 304.48492 
L 383.625 304.415956 
L 396 304.266245 
L 408.375 304.325579 
L 420.75 304.350625 
L 433.125 304.97974 
L 445.5 304.684306 
L 457.875 304.838942 
L 470.25 304.838534 
L 482.625 304.564683 
L 495 304.365696 
L 507.375 304.246806 
L 519.75 304.145398 
L 532.125 304.221018 
L 544.5 304.198857 
L 556.875 304.144765 
L 569.25 304.160746 
L 581.625 304.069979 
L 594 304.171613 
L 606.375 304.203597 
L 618.75 304.265243 
L 631.125 304.443711 
L 643.5 304.362461 
L 655.875 304.329163 
L 668.25 304.609486 
L 680.625 304.63152 
L 693 304.463202 
L 705.375 304.440971 
L 717.75 304.691893 
L 730.125 304.776097 
L 742.5 304.787048 
L 754.875 304.794479 
L 767.25 304.685288 
L 779.625 304.709841 
" clip-path="url(#paae0f98638)" style="fill: none; stroke: #000000; stroke-width: 1.5; stroke-linecap: square"/>
   </g>
   <g id="line2d_8">
    <path d="M 0 306 
L 12.375 306 
L 24.75 306.606888 
L 37.125 305.277773 
L 49.5 305.587574 
L 61.875 306.04917 
L 74.25 305.171424 
L 86.625 304.853623 
L 99 305.00241 
L 111.375 305.50935 
L 123.75 305.501221 
L 136.125 304.568275 
L 148.5 304.515937 
L 160.875 304.82113 
L 173.25 304.34865 
L 185.625 304.546351 
L 198 304.178408 
L 210.375 304.183646 
L 222.75 304.585623 
L 235.125 304.733347 
L 247.5 304.267269 
L 259.875 304.0394 
L 272.25 304.077678 
L 284.625 304.050167 
L 297 303.919693 
L 309.375 303.848085 
L 321.75 303.875523 
L 334.125 304.182999 
L 346.5 304.310456 
L 358.875 304.470209 
L 371.25 304.467568 
L 383.625 304.408773 
L 396 304.280559 
L 408.375 304.330738 
L 420.75 304.351861 
L 433.125 304.884559 
L 445.5 304.638653 
L 457.875 304.76995 
L 470.25 304.771812 
L 482.625 304.545993 
L 495 304.381671 
L 507.375 304.283088 
L 519.75 304.198692 
L 532.125 304.259026 
L 544.5 304.239889 
L 556.875 304.194847 
L 569.25 304.206388 
L 581.625 304.132099 
L 594 304.211921 
L 606.375 304.236402 
L 618.75 304.284579 
L 631.125 304.425447 
L 643.5 304.361801 
L 655.875 304.33565 
L 668.25 304.554932 
L 680.625 304.573424 
L 693 304.444048 
L 705.375 304.427293 
L 717.75 304.621054 
L 730.125 304.687343 
L 742.5 304.697723 
L 754.875 304.705378 
L 767.25 304.624403 
L 779.625 304.644311 
" clip-path="url(#paae0f98638)" style="fill: none; stroke: #000000; stroke-width: 1.5; stroke-linecap: square"/>
   </g>
   <g id="line2d_9">
    <path d="M 0 306 
L 12.375 306 
L 24.75 306.605254 
L 37.125 305.283826 
L 49.5 305.589612 
L 61.875 306.045864 
L 74.25 305.180368 
L 86.625 304.866335 
L 99 305.010742 
L 111.375 305.506019 
L 123.75 305.498424 
L 136.125 304.590262 
L 148.5 304.537545 
L 160.875 304.831447 
L 173.25 304.374219 
L 185.625 304.562953 
L 198 304.208243 
L 210.375 304.211432 
L 222.75 304.594165 
L 235.125 304.734576 
L 247.5 304.291156 
L 259.875 304.073751 
L 272.25 304.108324 
L 284.625 304.080941 
L 297 303.956722 
L 309.375 303.887886 
L 321.75 303.911955 
L 334.125 304.197849 
L 346.5 304.316091 
L 358.875 304.464427 
L 371.25 304.462186 
L 383.625 304.407975 
L 396 304.289668 
L 408.375 304.335565 
L 420.75 304.35481 
L 433.125 304.842747 
L 445.5 304.619287 
L 457.875 304.739564 
L 470.25 304.74214 
L 482.625 304.538105 
L 495 304.389601 
L 507.375 304.300376 
L 519.75 304.223901 
L 532.125 304.27746 
L 544.5 304.259835 
L 556.875 304.219057 
L 569.25 304.22876 
L 581.625 304.162101 
L 594 304.232271 
L 606.375 304.253487 
L 618.75 304.295676 
L 631.125 304.419633 
L 643.5 304.363775 
L 655.875 304.340781 
L 668.25 304.532673 
L 680.625 304.549294 
L 693 304.437033 
L 705.375 304.422606 
L 717.75 304.590802 
L 730.125 304.648778 
L 742.5 304.658494 
L 754.875 304.665843 
L 767.25 304.596975 
L 779.625 304.614565 
" clip-path="url(#paae0f98638)" style="fill: none; stroke: #000000; stroke-width: 1.5; stroke-linecap: square"/>
   </g>
  </g>
 </g>
 <defs>
  <clipPath id="paae0f98638">
   <rect x="0" y="0" width="792" height="612"/>
  </clipPath>
 </defs>
</svg>
