<?xml version="1.0" encoding="utf-8" standalone="no"?>
<!DOCTYPE svg PUBLIC "-//W3C//DTD SVG 1.1//EN"
  "http://www.w3.org/Graphics/SVG/1.1/DTD/svg11.dtd">
<svg xmlns:xlink="http://www.w3.org/1999/xlink" width="792pt" height="612pt" viewBox="0 0 792 612" xmlns="http://www.w3.org/2000/svg" version="1.1">
 <metadata>
  <rdf:RDF xmlns:dc="http://purl.org/dc/elements/1.1/" xmlns:cc="http://creativecommons.org/ns#" xmlns:rdf="http://www.w3.org/1999/02/22-rdf-syntax-ns#">
   <cc:Work>
    <dc:type rdf:resource="http://purl.org/dc/dcmitype/StillImage"/>
    <dc:date>2023-01-09T02:29:06.581156</dc:date>
    <dc:format>image/svg+xml</dc:format>
    <dc:creator>
     <cc:Agent>
      <dc:title>Matplotlib v3.6.2, https://matplotlib.org/</dc:title>
     </cc:Agent>
    </dc:creator>
   </cc:Work>
  </rdf:RDF>
 </metadata>
 <defs>
  <style type="text/css">*{stroke-linejoin: round; stroke-linecap: butt}</style>
 </defs>
 <g id="figure_1">
  <g id="patch_1">
   <path d="M 0 612 
L 792 612 
L 792 0 
L 0 0 
z
" style="fill: #ffffff"/>
  </g>
  <g id="axes_1">
   <g id="line2d_1">
    <path d="M 0 459 
L 12.774194 456.10846 
L 25.548387 459.101459 
L 38.322581 448.805059 
L 51.096774 450.377009 
L 63.870968 440.544438 
L 76.645161 438.063279 
L 89.419355 444.901651 
L 102.193548 446.523631 
L 114.967742 432.700257 
L 127.741935 424.114818 
L 140.516129 422.400477 
L 153.290323 418.87424 
L 166.064516 412.18786 
L 178.83871 407.023295 
L 191.612903 404.871076 
L 204.387097 412.087459 
L 217.16129 413.895367 
L 229.935484 417.16319 
L 242.709677 414.900375 
L 255.483871 410.531825 
L 268.258065 403.370949 
L 281.032258 402.921145 
L 293.806452 401.422591 
L 306.580645 421.140586 
L 319.354839 409.127702 
L 332.129032 412.890796 
L 344.903226 411.234232 
L 357.677419 399.326717 
L 370.451613 389.779061 
L 383.225806 382.953843 
L 396 376.604802 
L 408.774194 376.997623 
L 421.548387 373.662663 
L 434.322581 369.019187 
L 447.096774 367.118389 
L 459.870968 360.903232 
L 472.645161 362.453592 
L 485.419355 361.290604 
L 498.193548 361.435906 
L 510.967742 366.680206 
L 523.741935 361.048479 
L 536.516129 357.37529 
L 549.290323 367.410607 
L 562.064516 366.485515 
L 574.83871 357.085877 
L 587.612903 354.004144 
L 600.387097 363.278162 
L 613.16129 365.366713 
L 625.935484 364.200505 
L 638.709677 362.890049 
L 651.483871 356.121781 
L 664.258065 355.495631 
L 677.032258 352.514993 
L 689.806452 351.26785 
L 702.580645 356.266335 
L 715.354839 357.520029 
L 728.129032 356.892982 
L 740.903226 355.977249 
L 753.677419 351.459609 
L 766.451613 344.011056 
L 779.225806 338.324806 
" clip-path="url(#p0d8baf09c7)" style="fill: none; stroke: #000000; stroke-width: 1.5; stroke-linecap: square"/>
   </g>
   <g id="line2d_2">
    <path d="M 0 459 
L 12.774194 459 
L 25.548387 457.072293 
L 38.322581 458.347765 
L 51.096774 453.257727 
L 63.870968 451.770834 
L 76.645161 446.066611 
L 89.419355 442.032146 
L 102.193548 443.472373 
L 114.967742 444.973401 
L 127.741935 438.787351 
L 140.516129 431.375138 
L 153.290323 426.833055 
L 166.064516 422.789329 
L 178.83871 417.427568 
L 191.612903 412.158724 
L 204.387097 408.433657 
L 217.16129 410.192705 
L 229.935484 412.006551 
L 242.709677 414.569858 
L 255.483871 414.720428 
L 268.258065 412.608807 
L 281.032258 407.967357 
L 293.806452 405.434565 
L 306.580645 403.420738 
L 319.354839 412.280785 
L 332.129032 410.694322 
L 344.903226 411.78392 
L 357.677419 411.501875 
L 370.451613 405.382761 
L 383.225806 397.536169 
L 396 390.188166 
L 408.774194 383.330985 
L 421.548387 380.07491 
L 434.322581 376.795805 
L 447.096774 372.816162 
L 459.870968 369.878422 
L 472.645161 365.307038 
L 485.419355 363.826331 
L 498.193548 362.515579 
L 510.967742 361.94605 
L 523.741935 364.290403 
L 536.516129 362.643557 
L 549.290323 359.983242 
L 562.064516 363.690976 
L 574.83871 365.098297 
L 587.612903 361.073733 
L 600.387097 357.518326 
L 613.16129 360.39778 
L 625.935484 362.876733 
L 638.709677 363.544598 
L 651.483871 363.228118 
L 664.258065 359.646614 
L 677.032258 357.547466 
L 689.806452 355.018971 
L 702.580645 353.136176 
L 715.354839 354.686298 
L 728.129032 356.086827 
L 740.903226 356.475551 
L 753.677419 356.212857 
L 766.451613 353.824116 
L 779.225806 348.881738 
" clip-path="url(#p0d8baf09c7)" style="fill: none; stroke: #000000; stroke-width: 1.5; stroke-linecap: square"/>
   </g>
   <g id="line2d_3">
    <path d="M 0 459 
L 12.774194 459 
L 25.548387 457.30616 
L 38.322581 458.211512 
L 51.096774 454.537549 
L 63.870968 453.057158 
L 76.645161 448.866805 
L 89.419355 445.393921 
L 102.193548 445.240123 
L 114.967742 445.633414 
L 127.741935 441.719999 
L 140.516129 436.439327 
L 153.290323 432.256551 
L 166.064516 428.287376 
L 178.83871 423.525091 
L 191.612903 418.653425 
L 204.387097 414.592076 
L 217.16129 413.804658 
L 229.935484 413.783044 
L 242.709677 414.724484 
L 255.483871 414.737266 
L 268.258065 413.45919 
L 281.032258 410.456837 
L 293.806452 408.20658 
L 306.580645 406.167511 
L 319.354839 410.513778 
L 332.129032 410.080752 
L 344.903226 410.89057 
L 357.677419 410.978426 
L 370.451613 407.536099 
L 383.225806 402.290753 
L 396 396.574973 
L 408.774194 390.66477 
L 421.548387 386.607623 
L 434.322581 382.75699 
L 447.096774 378.662715 
L 459.870968 375.215566 
L 472.645161 370.9483 
L 485.419355 368.406994 
L 498.193548 366.270554 
L 510.967742 364.806919 
L 523.741935 365.293999 
L 536.516129 363.994421 
L 549.290323 361.988678 
L 562.064516 363.524532 
L 574.83871 364.353779 
L 587.612903 362.182544 
L 600.387097 359.747215 
L 613.16129 360.764973 
L 625.935484 362.097447 
L 638.709677 362.702176 
L 651.483871 362.75018 
L 664.258065 360.791652 
L 677.032258 359.231353 
L 689.806452 357.247966 
L 702.580645 355.481056 
L 715.354839 355.705074 
L 728.129032 356.225852 
L 740.903226 356.416442 
L 753.677419 356.28618 
L 766.451613 354.851738 
L 779.225806 351.637509 
" clip-path="url(#p0d8baf09c7)" style="fill: none; stroke: #000000; stroke-width: 1.5; stroke-linecap: square"/>
   </g>
   <g id="line2d_4">
    <path d="M 0 459 
L 12.774194 459 
L 25.548387 457.429261 
L 38.322581 458.165174 
L 51.096774 455.186272 
L 63.870968 453.865863 
L 76.645161 450.585522 
L 89.419355 447.748493 
L 102.193548 447.14449 
L 114.967742 447.019412 
L 127.741935 444.249274 
L 140.516129 440.479797 
L 153.290323 437.186441 
L 166.064516 433.9239 
L 178.83871 430.119377 
L 191.612903 426.135869 
L 204.387097 422.514433 
L 217.16129 420.760489 
L 229.935484 419.616439 
L 242.709677 419.210893 
L 255.483871 418.502445 
L 268.258065 417.198252 
L 281.032258 414.942665 
L 293.806452 412.989188 
L 306.580645 411.115286 
L 319.354839 412.728721 
L 332.129032 412.148984 
L 344.903226 412.2681 
L 357.677419 412.10228 
L 370.451613 410.05072 
L 383.225806 406.792347 
L 396 402.95911 
L 408.774194 398.719535 
L 421.548387 395.191651 
L 434.322581 391.693509 
L 447.096774 388.004588 
L 459.870968 384.608459 
L 472.645161 380.750743 
L 485.419355 377.772662 
L 498.193548 375.087362 
L 510.967742 372.853214 
L 523.741935 371.820052 
L 536.516129 370.055303 
L 549.290323 367.986849 
L 562.064516 367.861489 
L 574.83871 367.610352 
L 587.612903 365.894934 
L 600.387097 363.961194 
L 613.16129 363.826956 
L 625.935484 364.043187 
L 638.709677 364.037797 
L 651.483871 363.821903 
L 664.258065 362.556873 
L 677.032258 361.396348 
L 689.806452 359.946697 
L 702.580645 358.528963 
L 715.354839 358.14094 
L 728.129032 358.003391 
L 740.903226 357.794717 
L 753.677419 357.470586 
L 766.451613 356.475164 
L 779.225806 354.44684 
" clip-path="url(#p0d8baf09c7)" style="fill: none; stroke: #000000; stroke-width: 1.5; stroke-linecap: square"/>
   </g>
   <g id="line2d_5">
    <path d="M 0 459 
L 12.774194 459 
L 25.548387 457.491621 
L 38.322581 458.148914 
L 51.096774 455.500776 
L 63.870968 454.291105 
L 76.645161 451.475284 
L 89.419355 449.025818 
L 102.193548 448.34111 
L 114.967742 448.06252 
L 127.741935 445.860221 
L 140.516129 442.917355 
L 153.290323 440.27789 
L 166.064516 437.642944 
L 178.83871 434.626482 
L 191.612903 431.464084 
L 204.387097 428.508796 
L 217.16129 426.735977 
L 229.935484 425.383839 
L 242.709677 424.537528 
L 255.483871 423.564397 
L 268.258065 422.270562 
L 281.032258 420.421499 
L 293.806452 418.734055 
L 306.580645 417.086257 
L 319.354839 417.466044 
L 332.129032 416.691457 
L 344.903226 416.342118 
L 357.677419 415.876619 
L 370.451613 414.37657 
L 383.225806 412.158378 
L 396 409.537962 
L 408.774194 406.596272 
L 421.548387 403.968735 
L 434.322581 401.290287 
L 447.096774 398.448149 
L 459.870968 395.700248 
L 472.645161 392.654508 
L 485.419355 390.023884 
L 498.193548 387.529638 
L 510.967742 385.272823 
L 523.741935 383.673496 
L 536.516129 381.728578 
L 549.290323 379.637777 
L 562.064516 378.595249 
L 574.83871 377.564652 
L 587.612903 375.818515 
L 600.387097 373.959973 
L 613.16129 373.055481 
L 625.935484 372.40607 
L 638.709677 371.713677 
L 651.483871 370.969738 
L 664.258065 369.71578 
L 677.032258 368.516187 
L 689.806452 367.166263 
L 702.580645 365.825974 
L 715.354839 365.022944 
L 728.129032 364.393664 
L 740.903226 363.764933 
L 753.677419 363.112401 
L 766.451613 362.134696 
L 779.225806 360.609788 
" clip-path="url(#p0d8baf09c7)" style="fill: none; stroke: #000000; stroke-width: 1.5; stroke-linecap: square"/>
   </g>
   <g id="line2d_6">
    <path d="M 0 459 
L 12.774194 459 
L 25.548387 457.522904 
L 38.322581 458.142629 
L 51.096774 455.654036 
L 63.870968 454.505142 
L 76.645161 451.917888 
L 89.419355 449.670859 
L 102.193548 448.98036 
L 114.967742 448.657729 
L 127.741935 446.731338 
L 140.516129 444.196823 
L 153.290323 441.912501 
L 166.064516 439.638455 
L 178.83871 437.070249 
L 191.612903 434.392963 
L 204.387097 431.878264 
L 217.16129 430.263591 
L 229.935484 428.978835 
L 242.709677 428.084189 
L 255.483871 427.117728 
L 268.258065 425.937319 
L 281.032258 424.373791 
L 293.806452 422.926067 
L 306.580645 421.509826 
L 319.354839 421.486157 
L 332.129032 420.709027 
L 344.903226 420.227622 
L 357.677419 419.684091 
L 370.451613 418.47232 
L 383.225806 416.788809 
L 396 414.831263 
L 408.774194 412.648527 
L 421.548387 410.642144 
L 434.322581 408.586755 
L 447.096774 406.412083 
L 459.870968 404.277238 
L 472.645161 401.94232 
L 485.419355 399.84128 
L 498.193548 397.81065 
L 510.967742 395.913811 
L 523.741935 394.406947 
L 536.516129 392.69896 
L 549.290323 390.903053 
L 562.064516 389.723355 
L 574.83871 388.564975 
L 587.612903 387.001101 
L 600.387097 385.371203 
L 613.16129 384.291695 
L 625.935484 383.373661 
L 638.709677 382.448741 
L 651.483871 381.510134 
L 664.258065 380.294869 
L 677.032258 379.113817 
L 689.806452 377.851796 
L 702.580645 376.59595 
L 715.354839 375.642331 
L 728.129032 374.796505 
L 740.903226 373.964172 
L 753.677419 373.13098 
L 766.451613 372.128853 
L 779.225806 370.828713 
" clip-path="url(#p0d8baf09c7)" style="fill: none; stroke: #000000; stroke-width: 1.5; stroke-linecap: square"/>
   </g>
   <g id="line2d_7">
    <path d="M 0 459 
L 12.774194 459 
L 25.548387 457.538558 
L 38.322581 458.139957 
L 51.096774 455.72949 
L 63.870968 454.612001 
L 76.645161 452.137286 
L 89.419355 449.992243 
L 102.193548 449.30649 
L 114.967742 448.969782 
L 127.741935 447.177746 
L 140.516129 444.842091 
L 153.290323 442.736672 
L 166.064516 440.6478 
L 178.83871 438.308167 
L 191.612903 435.880967 
L 204.387097 433.601607 
L 217.16129 432.100322 
L 229.935484 430.888844 
L 242.709677 430.015329 
L 255.483871 429.091964 
L 268.258065 428.000456 
L 281.032258 426.602052 
L 293.806452 425.303162 
L 306.580645 424.035142 
L 319.354839 423.886737 
L 332.129032 423.150305 
L 344.903226 422.65292 
L 357.677419 422.113732 
L 370.451613 421.061983 
L 383.225806 419.649338 
L 396 418.027274 
L 408.774194 416.233141 
L 421.548387 414.569985 
L 434.322581 412.869337 
L 447.096774 411.079054 
L 459.870968 409.316781 
L 472.645161 407.40656 
L 485.419355 405.664885 
L 498.193548 403.973721 
L 510.967742 402.378887 
L 523.741935 401.064089 
L 536.516129 399.60919 
L 549.290323 398.093641 
L 562.064516 397.012511 
L 574.83871 395.951035 
L 587.612903 394.612093 
L 600.387097 393.229005 
L 613.16129 392.225455 
L 625.935484 391.336932 
L 638.709677 390.449074 
L 651.483871 389.556904 
L 664.258065 388.483002 
L 677.032258 387.434279 
L 689.806452 386.33391 
L 702.580645 385.239181 
L 715.354839 384.345401 
L 728.129032 383.52599 
L 740.903226 382.719523 
L 753.677419 381.916464 
L 766.451613 381.007682 
L 779.225806 379.908863 
" clip-path="url(#p0d8baf09c7)" style="fill: none; stroke: #000000; stroke-width: 1.5; stroke-linecap: square"/>
   </g>
   <g id="line2d_8">
    <path d="M 0 459 
L 12.774194 459 
L 25.548387 457.546387 
L 38.322581 458.138739 
L 51.096774 455.766902 
L 63.870968 454.665327 
L 76.645161 452.246342 
L 89.419355 450.152303 
L 102.193548 449.470664 
L 114.967742 449.128808 
L 127.741935 447.402816 
L 140.516129 445.164725 
L 153.290323 443.14828 
L 166.064516 441.152106 
L 178.83871 438.926445 
L 191.612903 436.624338 
L 204.387097 434.464237 
L 217.16129 433.026179 
L 229.935484 431.859434 
L 242.709677 431.006435 
L 255.483871 430.113419 
L 268.258065 429.073241 
L 281.032258 427.761383 
L 293.806452 426.542368 
L 306.580645 425.354606 
L 319.354839 425.163106 
L 332.129032 424.457234 
L 344.903226 423.964826 
L 357.677419 423.439379 
L 370.451613 422.471025 
L 383.225806 421.192363 
L 396 419.73493 
L 408.774194 418.131355 
L 421.548387 416.641244 
L 434.322581 415.120981 
L 447.096774 413.526493 
L 459.870968 411.957316 
L 472.645161 410.265547 
L 485.419355 408.716415 
L 498.193548 407.2113 
L 510.967742 405.788169 
L 523.741935 404.598749 
L 536.516129 403.296664 
L 549.290323 401.947172 
L 562.064516 400.954641 
L 574.83871 399.981079 
L 587.612903 398.785613 
L 600.387097 397.55672 
L 613.16129 396.634957 
L 625.935484 395.808102 
L 638.709677 394.984714 
L 651.483871 394.160709 
L 664.258065 393.195559 
L 677.032258 392.252407 
L 689.806452 391.270815 
L 702.580645 390.295561 
L 715.354839 389.478843 
L 728.129032 388.722186 
L 740.903226 387.977934 
L 753.677419 387.238632 
L 766.451613 386.420344 
L 779.225806 385.458454 
" clip-path="url(#p0d8baf09c7)" style="fill: none; stroke: #000000; stroke-width: 1.5; stroke-linecap: square"/>
   </g>
   <g id="line2d_9">
    <path d="M 0 459 
L 12.774194 459 
L 25.548387 457.550301 
L 38.322581 458.13816 
L 51.096774 455.785527 
L 63.870968 454.691956 
L 76.645161 452.300689 
L 89.419355 450.232131 
L 102.193548 449.552963 
L 114.967742 449.208987 
L 127.741935 447.515705 
L 140.516129 445.325864 
L 153.290323 443.353684 
L 166.064516 441.403748 
L 178.83871 439.234811 
L 191.612903 436.995022 
L 204.387097 434.894655 
L 217.16129 433.489537 
L 229.935484 432.346886 
L 242.709677 431.506361 
L 255.483871 430.630466 
L 268.258065 429.617408 
L 281.032258 428.349499 
L 293.806452 427.171422 
L 306.580645 426.024919 
L 319.354839 425.816425 
L 332.129032 425.128114 
L 344.903226 424.641214 
L 357.677419 424.125331 
L 370.451613 423.199205 
L 383.225806 421.986664 
L 396 420.610039 
L 408.774194 419.099817 
L 421.548387 417.695421 
L 434.322581 416.264734 
L 447.096774 414.76744 
L 459.870968 413.294714 
L 472.645161 411.711614 
L 485.419355 410.25976 
L 498.193548 408.8494 
L 510.967742 407.514868 
L 523.741935 406.39315 
L 536.516129 405.171573 
L 549.290323 403.908978 
L 562.064516 402.968305 
L 574.83871 402.04638 
L 587.612903 400.927966 
L 600.387097 399.781308 
L 613.16129 398.909239 
L 625.935484 398.123032 
L 638.709677 397.341576 
L 651.483871 396.561205 
L 664.258065 395.658064 
L 677.032258 394.7757 
L 689.806452 393.861047 
L 702.580645 392.953303 
L 715.354839 392.185324 
L 728.129032 391.471096 
L 740.903226 390.769084 
L 753.677419 390.072766 
L 766.451613 389.309465 
L 779.225806 388.423437 
" clip-path="url(#p0d8baf09c7)" style="fill: none; stroke: #000000; stroke-width: 1.5; stroke-linecap: square"/>
   </g>
  </g>
 </g>
 <defs>
  <clipPath id="p0d8baf09c7">
   <rect x="0" y="0" width="792" height="612"/>
  </clipPath>
 </defs>
</svg>
