<?xml version="1.0" encoding="utf-8" standalone="no"?>
<!DOCTYPE svg PUBLIC "-//W3C//DTD SVG 1.1//EN"
  "http://www.w3.org/Graphics/SVG/1.1/DTD/svg11.dtd">
<svg xmlns:xlink="http://www.w3.org/1999/xlink" width="792pt" height="612pt" viewBox="0 0 792 612" xmlns="http://www.w3.org/2000/svg" version="1.1">
 <metadata>
  <rdf:RDF xmlns:dc="http://purl.org/dc/elements/1.1/" xmlns:cc="http://creativecommons.org/ns#" xmlns:rdf="http://www.w3.org/1999/02/22-rdf-syntax-ns#">
   <cc:Work>
    <dc:type rdf:resource="http://purl.org/dc/dcmitype/StillImage"/>
    <dc:date>2022-12-26T20:25:32.552751</dc:date>
    <dc:format>image/svg+xml</dc:format>
    <dc:creator>
     <cc:Agent>
      <dc:title>Matplotlib v3.6.2, https://matplotlib.org/</dc:title>
     </cc:Agent>
    </dc:creator>
   </cc:Work>
  </rdf:RDF>
 </metadata>
 <defs>
  <style type="text/css">*{stroke-linejoin: round; stroke-linecap: butt}</style>
 </defs>
 <g id="figure_1">
  <g id="patch_1">
   <path d="M 0 612 
L 792 612 
L 792 0 
L 0 0 
z
" style="fill: #ffffff"/>
  </g>
  <g id="axes_1">
   <g id="line2d_1">
    <path d="M 0 459 
L 39.6 457.379414 
L 79.2 454.450484 
L 118.8 457.259371 
L 158.4 459.712261 
L 198 463.329585 
L 237.6 466.782849 
L 277.2 467.979287 
L 316.8 468.715556 
L 356.4 468.291401 
L 396 466.674809 
L 435.6 464.470002 
L 475.2 467.795219 
L 514.8 472.016764 
L 554.4 473.409274 
L 594 474.105529 
L 633.6 474.153546 
L 673.2 471.884716 
L 712.8 473.717387 
L 752.4 473.745397 
" clip-path="url(#pbbc9c90f5a)" style="fill: none; stroke: #000000; stroke-width: 1.5; stroke-linecap: square"/>
   </g>
   <g id="line2d_2">
    <path d="M 0 459 
L 39.6 459 
L 79.2 457.919607 
L 118.8 455.93721 
L 158.4 456.642358 
L 198 458.962051 
L 237.6 461.19293 
L 277.2 464.009897 
L 316.8 466.002375 
L 356.4 467.378015 
L 396 467.853986 
L 435.6 467.28242 
L 475.2 465.888074 
L 514.8 466.857496 
L 554.4 469.454164 
L 594 471.444712 
L 633.6 472.787133 
L 673.2 473.481002 
L 712.8 472.689905 
L 752.4 473.217455 
" clip-path="url(#pbbc9c90f5a)" style="fill: none; stroke: #000000; stroke-width: 1.5; stroke-linecap: square"/>
   </g>
   <g id="line2d_3">
    <path d="M 0 459 
L 39.6 459 
L 79.2 458.05068 
L 118.8 456.419455 
L 158.4 456.747461 
L 198 458.309119 
L 237.6 460.296058 
L 277.2 462.380209 
L 316.8 464.12947 
L 356.4 465.534811 
L 396 466.368242 
L 435.6 466.460063 
L 475.2 465.867935 
L 514.8 466.43873 
L 554.4 468.085363 
L 594 469.653362 
L 633.6 470.962486 
L 673.2 471.914531 
L 712.8 471.921218 
L 752.4 472.46595 
" clip-path="url(#pbbc9c90f5a)" style="fill: none; stroke: #000000; stroke-width: 1.5; stroke-linecap: square"/>
   </g>
   <g id="line2d_4">
    <path d="M 0 459 
L 39.6 459 
L 79.2 458.119673 
L 118.8 456.679608 
L 158.4 456.864092 
L 198 458.037058 
L 237.6 459.823617 
L 277.2 461.399313 
L 316.8 462.795176 
L 356.4 463.987861 
L 396 464.819602 
L 435.6 465.166311 
L 475.2 465.039699 
L 514.8 465.529607 
L 554.4 466.661811 
L 594 467.821555 
L 633.6 468.888011 
L 673.2 469.772249 
L 712.8 470.12389 
L 752.4 470.717696 
" clip-path="url(#pbbc9c90f5a)" style="fill: none; stroke: #000000; stroke-width: 1.5; stroke-linecap: square"/>
   </g>
   <g id="line2d_5">
    <path d="M 0 459 
L 39.6 459 
L 79.2 458.154623 
L 118.8 456.811484 
L 158.4 456.938399 
L 198 457.929484 
L 237.6 459.602602 
L 277.2 460.913073 
L 316.8 462.086007 
L 356.4 463.102125 
L 396 463.845266 
L 435.6 464.227465 
L 475.2 464.258603 
L 514.8 464.692947 
L 554.4 465.557966 
L 594 466.453829 
L 633.6 467.300576 
L 673.2 468.038519 
L 712.8 468.442708 
L 752.4 468.985032 
" clip-path="url(#pbbc9c90f5a)" style="fill: none; stroke: #000000; stroke-width: 1.5; stroke-linecap: square"/>
   </g>
   <g id="line2d_6">
    <path d="M 0 459 
L 39.6 459 
L 79.2 458.172155 
L 118.8 456.877447 
L 158.4 456.979219 
L 198 457.884282 
L 237.6 459.498921 
L 277.2 460.679464 
L 316.8 461.736124 
L 356.4 462.652601 
L 396 463.332579 
L 435.6 463.706386 
L 475.2 463.786246 
L 514.8 464.180963 
L 554.4 464.911507 
L 594 465.665442 
L 633.6 466.381106 
L 673.2 467.013352 
L 712.8 467.394757 
L 752.4 467.872634 
" clip-path="url(#pbbc9c90f5a)" style="fill: none; stroke: #000000; stroke-width: 1.5; stroke-linecap: square"/>
   </g>
   <g id="line2d_7">
    <path d="M 0 459 
L 39.6 459 
L 79.2 458.180929 
L 118.8 456.91038 
L 158.4 457.000483 
L 198 457.863956 
L 237.6 459.449128 
L 277.2 460.566095 
L 316.8 461.564497 
L 356.4 462.42962 
L 396 463.074563 
L 435.6 463.438442 
L 475.2 463.535012 
L 514.8 463.906979 
L 554.4 464.571294 
L 594 465.253966 
L 633.6 465.901542 
L 673.2 466.47556 
L 712.8 466.834547 
L 752.4 467.271693 
" clip-path="url(#pbbc9c90f5a)" style="fill: none; stroke: #000000; stroke-width: 1.5; stroke-linecap: square"/>
   </g>
   <g id="line2d_8">
    <path d="M 0 459 
L 39.6 459 
L 79.2 458.185316 
L 118.8 456.926828 
L 158.4 457.011319 
L 198 457.854373 
L 237.6 459.424781 
L 277.2 460.510393 
L 316.8 461.479775 
L 356.4 462.319018 
L 396 462.945781 
L 435.6 463.303438 
L 475.2 463.406546 
L 514.8 463.766507 
L 554.4 464.398189 
L 594 465.045534 
L 633.6 465.658934 
L 673.2 466.203076 
L 712.8 466.548615 
L 752.4 466.963817 
" clip-path="url(#pbbc9c90f5a)" style="fill: none; stroke: #000000; stroke-width: 1.5; stroke-linecap: square"/>
   </g>
   <g id="line2d_9">
    <path d="M 0 459 
L 39.6 459 
L 79.2 458.18751 
L 118.8 456.935047 
L 158.4 457.016787 
L 198 457.849727 
L 237.6 459.412749 
L 277.2 460.482802 
L 316.8 461.437719 
L 356.4 462.263994 
L 396 462.881528 
L 435.6 463.235784 
L 475.2 463.341727 
L 514.8 463.695544 
L 554.4 464.311064 
L 594 464.940872 
L 633.6 465.53722 
L 673.2 466.066316 
L 712.8 466.404653 
L 752.4 466.808579 
" clip-path="url(#pbbc9c90f5a)" style="fill: none; stroke: #000000; stroke-width: 1.5; stroke-linecap: square"/>
   </g>
  </g>
 </g>
 <defs>
  <clipPath id="pbbc9c90f5a">
   <rect x="0" y="0" width="792" height="612"/>
  </clipPath>
 </defs>
</svg>
