<?xml version="1.0" encoding="utf-8" standalone="no"?>
<!DOCTYPE svg PUBLIC "-//W3C//DTD SVG 1.1//EN"
  "http://www.w3.org/Graphics/SVG/1.1/DTD/svg11.dtd">
<svg xmlns:xlink="http://www.w3.org/1999/xlink" width="792pt" height="612pt" viewBox="0 0 792 612" xmlns="http://www.w3.org/2000/svg" version="1.1">
 <metadata>
  <rdf:RDF xmlns:dc="http://purl.org/dc/elements/1.1/" xmlns:cc="http://creativecommons.org/ns#" xmlns:rdf="http://www.w3.org/1999/02/22-rdf-syntax-ns#">
   <cc:Work>
    <dc:type rdf:resource="http://purl.org/dc/dcmitype/StillImage"/>
    <dc:date>2023-01-30T17:17:23.108119</dc:date>
    <dc:format>image/svg+xml</dc:format>
    <dc:creator>
     <cc:Agent>
      <dc:title>Matplotlib v3.6.2, https://matplotlib.org/</dc:title>
     </cc:Agent>
    </dc:creator>
   </cc:Work>
  </rdf:RDF>
 </metadata>
 <defs>
  <style type="text/css">*{stroke-linejoin: round; stroke-linecap: butt}</style>
 </defs>
 <g id="figure_1">
  <g id="patch_1">
   <path d="M 0 612 
L 792 612 
L 792 0 
L 0 0 
z
" style="fill: #ffffff"/>
  </g>
  <g id="axes_1">
   <g id="line2d_1">
    <path d="M 0 459 
L 3.168 459.819826 
L 6.336 459.316346 
L 9.504 460.051516 
L 12.672 454.161424 
L 15.84 443.914402 
L 19.008 431.404299 
L 22.176 432.736369 
L 25.344 438.308974 
L 28.512 426.692669 
L 31.68 425.961224 
L 34.848 423.369304 
L 38.016 417.489741 
L 41.184 422.744921 
L 44.352 432.736369 
L 47.52 436.495127 
L 50.688 431.564123 
L 53.856 436.748491 
L 57.024 451.421755 
L 60.192 455.457888 
L 63.36 457.823731 
L 66.528 459.980227 
L 69.696 460.425784 
L 72.864 450.005345 
L 76.032 459.935671 
L 79.2 465.768019 
L 82.368 462.123358 
L 85.536 463.442209 
L 88.704 465.113049 
L 91.872 468.579487 
L 95.04 468.811177 
L 98.208 463.366464 
L 101.376 465.010571 
L 104.544 466.302688 
L 107.712 467.202714 
L 110.88 465.340284 
L 114.048 460.171816 
L 117.216 459.053467 
L 120.384 456.340051 
L 123.552 460.955998 
L 126.72 459.169312 
L 129.888 462.466438 
L 133.056 462.190192 
L 136.224 461.628789 
L 139.392 462.60456 
L 142.56 460.66193 
L 145.728 462.475349 
L 148.896 464.92146 
L 152.064 464.867993 
L 155.232 465.763563 
L 158.4 467.657183 
L 161.568 471.087976 
L 164.736 472.028102 
L 167.904 468.802266 
L 171.072 469.082967 
L 174.24 469.519613 
L 177.408 468.543842 
L 180.576 468.690876 
L 183.744 465.019482 
L 186.912 462.314948 
L 190.08 460.038149 
L 193.248 463.050118 
L 196.416 469.524069 
L 199.584 468.788899 
L 202.752 472.487026 
L 205.92 472.438015 
L 209.088 470.130027 
L 212.256 475.88663 
L 215.424 473.690032 
L 218.592 471.800868 
L 221.76 467.590349 
L 224.928 472.509304 
L 228.096 472.558316 
L 234.432 476.07822 
L 237.6 477.642127 
L 240.768 478.59562 
L 243.936 475.218294 
L 247.104 476.800023 
L 250.272 472.55386 
L 253.44 475.334139 
L 256.608 474.679169 
L 259.776 475.30295 
L 262.944 470.932031 
L 266.112 472.117214 
L 269.28 471.693934 
L 272.448 467.804217 
L 275.616 465.598707 
L 278.784 466.369522 
L 281.952 468.597309 
L 285.12 467.527971 
L 288.288 470.009727 
L 291.456 469.194356 
L 294.624 468.748799 
L 297.792 471.791957 
L 300.96 476.452488 
L 304.128 484.116078 
L 307.296 485.764641 
L 310.464 486.112176 
L 313.632 482.757127 
L 319.968 487.337459 
L 323.136 485.10076 
L 326.304 485.221061 
L 329.472 484.494802 
L 332.64 477.107458 
L 335.808 477.985206 
L 338.976 478.559976 
L 342.144 476.871313 
L 345.312 479.660503 
L 348.48 478.67582 
L 351.648 479.580302 
L 354.816 481.11302 
L 357.984 478.956522 
L 361.152 479.905559 
L 364.32 481.371444 
L 367.488 481.661056 
L 370.656 482.721483 
L 373.824 486.535455 
L 376.992 481.064009 
L 380.16 477.771339 
L 383.328 470.290428 
L 386.496 468.775532 
L 389.664 466.507644 
L 392.832 467.67055 
L 396 467.585894 
L 399.168 470.067649 
L 402.336 467.398759 
L 408.672 463.455575 
L 411.84 464.039256 
L 415.008 465.910597 
L 418.176 463.553598 
L 421.344 464.132823 
L 424.512 462.885262 
L 427.68 462.880806 
L 430.848 462.016424 
L 434.016 452.958589 
L 437.184 447.921136 
L 443.52 442.352365 
L 446.688 443.527196 
L 449.856 445.169627 
L 453.024 444.128042 
L 456.192 451.141133 
L 459.36 459.432191 
L 462.528 460.43024 
L 465.696 459.646058 
L 468.864 454.856428 
L 472.032 462.114447 
L 475.2 463.21943 
L 478.368 463.348641 
L 481.536 463.776377 
L 484.704 463.406564 
L 487.872 464.30659 
L 491.04 466.529922 
L 494.208 464.716503 
L 500.544 460.465884 
L 503.712 459.360902 
L 506.88 465.683363 
L 510.048 466.186843 
L 513.216 464.244212 
L 516.384 466.654678 
L 519.552 465.563062 
L 522.72 467.969073 
L 525.888 469.105245 
L 529.056 472.576138 
L 532.224 477.454993 
L 535.392 480.729841 
L 538.56 482.173447 
L 541.728 477.980751 
L 544.896 480.06596 
L 548.064 481.429366 
L 551.232 478.711465 
L 554.4 471.707301 
L 557.568 474.322723 
L 560.736 476.251988 
L 563.904 477.851539 
L 567.072 478.09214 
L 570.24 480.912519 
L 573.408 480.422406 
L 576.576 475.182649 
L 579.744 478.337197 
L 582.912 475.34305 
L 586.08 472.161769 
L 589.248 473.092985 
L 592.416 473.516264 
L 595.584 467.149247 
L 605.088 462.430793 
L 608.256 461.766912 
L 614.592 457.502932 
L 617.76 452.063197 
L 620.928 450.446286 
L 624.096 451.675656 
L 627.264 439.603073 
L 630.432 433.402573 
L 633.6 431.457573 
L 636.768 434.148848 
L 639.936 412.483629 
L 643.104 403.427768 
L 646.272 407.132348 
L 649.44 406.446272 
L 652.608 407.171936 
L 655.776 410.539755 
L 658.944 411.30652 
L 662.112 409.971468 
L 665.28 405.140748 
L 668.448 402.005869 
L 671.616 398.574248 
L 674.784 407.132348 
L 677.952 405.351682 
L 681.12 402.13748 
L 684.288 405.219846 
L 687.456 409.482599 
L 690.624 421.456728 
L 693.792 432.936219 
L 696.96 436.921853 
L 700.128 439.376249 
L 703.296 437.962157 
L 706.464 432.576497 
L 709.632 425.243242 
L 712.8 436.308446 
L 715.968 450.392838 
L 719.136 455.043547 
L 722.304 457.369266 
L 725.472 457.529665 
L 728.64 449.951899 
L 731.808 456.072727 
L 734.976 456.16629 
L 738.144 459.632692 
L 741.312 460.122805 
L 744.48 458.946533 
L 747.648 459.004456 
L 750.816 455.217302 
L 753.984 453.239244 
L 757.152 458.505431 
L 760.32 452.731395 
L 763.488 446.157929 
L 766.656 440.336979 
L 769.824 430.844967 
L 772.992 423.581891 
L 776.16 418.192481 
L 779.328 450.27258 
L 782.496 451.381666 
L 785.664 449.163596 
L 788.832 459.690614 
L 788.832 459.690614 
" clip-path="url(#p7d6b10941c)" style="fill: none; stroke: #000000; stroke-width: 1.5; stroke-linecap: square"/>
   </g>
   <g id="line2d_2">
    <path d="M 0 459 
L 3.168 459 
L 6.336 459.546551 
L 9.504 459.415005 
L 12.672 459.754477 
L 15.84 457.597792 
L 19.008 450.645658 
L 22.176 440.941302 
L 25.344 436.820973 
L 28.512 437.524407 
L 31.68 432.03674 
L 34.848 428.931193 
L 38.016 426.073238 
L 41.184 421.706561 
L 44.352 422.184315 
L 47.52 427.458763 
L 50.688 431.981682 
L 53.856 431.759682 
L 57.024 434.273084 
L 60.192 442.891746 
L 63.36 449.236005 
L 69.696 457.851565 
L 72.864 459.541466 
L 76.032 455.340897 
L 79.2 458.63328 
L 82.368 462.350715 
L 85.536 462.248114 
L 88.704 462.856187 
L 91.872 463.997373 
L 95.04 466.305291 
L 98.208 467.574676 
L 101.376 465.485011 
L 104.544 465.257742 
L 107.712 465.781263 
L 110.88 466.501948 
L 114.048 465.924838 
L 117.216 463.038638 
L 120.384 461.027374 
L 123.552 459.549381 
L 126.72 460.247963 
L 129.888 459.697184 
L 133.056 461.074289 
L 136.224 461.622412 
L 139.392 461.618323 
L 142.56 462.116212 
L 145.728 461.392225 
L 148.896 461.94234 
L 152.064 463.439675 
L 158.4 464.97075 
L 161.568 466.324686 
L 164.736 468.724878 
L 167.904 470.394968 
L 171.072 469.614578 
L 174.24 469.361729 
L 177.408 469.449687 
L 180.576 469.003972 
L 183.744 468.853164 
L 186.912 466.931151 
L 193.248 462.298489 
L 196.416 462.663025 
L 199.584 466.094412 
L 202.752 467.440222 
L 205.92 469.971356 
L 209.088 471.212033 
L 212.256 470.681051 
L 215.424 473.310452 
L 218.592 473.52701 
L 221.76 472.681097 
L 224.928 470.131932 
L 228.096 471.327913 
L 231.264 471.943254 
L 234.432 473.161286 
L 240.768 476.140214 
L 243.936 477.377536 
L 247.104 476.304616 
L 250.272 476.570378 
L 253.44 474.562206 
L 256.608 474.953615 
L 259.776 474.816995 
L 262.944 475.058452 
L 266.112 472.982085 
L 272.448 472.10853 
L 278.784 467.755083 
L 281.952 467.044725 
L 285.12 467.809092 
L 288.288 467.653286 
L 291.456 468.829698 
L 294.624 469.006296 
L 297.792 468.871773 
L 300.96 470.339684 
L 304.128 473.417368 
L 307.296 478.80152 
L 310.464 482.316742 
L 313.632 484.250898 
L 316.8 483.529008 
L 319.968 484.308052 
L 323.136 485.859204 
L 326.304 485.506078 
L 329.472 485.380762 
L 332.64 484.938525 
L 335.808 481.006016 
L 338.976 479.479676 
L 342.144 479.011596 
L 345.312 477.925467 
L 348.48 478.777932 
L 351.648 478.714278 
L 354.816 479.13623 
L 357.984 480.117994 
L 361.152 479.540884 
L 364.32 479.726987 
L 367.488 480.554728 
L 370.656 481.117284 
L 373.824 481.925385 
L 376.992 484.245831 
L 380.16 482.657829 
L 383.328 480.208032 
L 386.496 475.232237 
L 389.664 471.982061 
L 392.832 469.215708 
L 396 468.415696 
L 399.168 467.971117 
L 402.336 468.987093 
L 405.504 468.166132 
L 408.672 466.740016 
L 411.84 465.084394 
L 415.008 464.552538 
L 418.176 465.230397 
L 421.344 464.383925 
L 424.512 464.251603 
L 427.68 463.554349 
L 430.848 463.208719 
L 434.016 462.606011 
L 437.184 459.78336 
L 440.352 454.583298 
L 443.52 449.754097 
L 446.688 445.992994 
L 449.856 444.699507 
L 453.024 444.884629 
L 456.192 444.454378 
L 459.36 447.764026 
L 462.528 454.043758 
L 465.696 458.697283 
L 468.864 459.282955 
L 472.032 457.377129 
L 475.2 460.302967 
L 478.368 461.778514 
L 481.536 462.581828 
L 484.704 463.193605 
L 487.872 463.307877 
L 491.04 463.814834 
L 494.208 465.185876 
L 497.376 464.965107 
L 500.544 463.767902 
L 503.712 462.111494 
L 506.88 460.728379 
L 510.048 463.20961 
L 513.216 464.703678 
L 516.384 464.473823 
L 519.552 465.564495 
L 522.72 465.565439 
L 529.056 467.958485 
L 532.224 470.293223 
L 538.56 477.342031 
L 541.728 479.792894 
L 544.896 478.909031 
L 548.064 479.515932 
L 551.232 480.499042 
L 554.4 479.624089 
L 557.568 475.663991 
L 560.736 474.987216 
L 563.904 475.610822 
L 567.072 476.722706 
L 570.24 477.407641 
L 573.408 479.16174 
L 576.576 479.790099 
L 579.744 477.479455 
L 582.912 477.921326 
L 586.08 476.634189 
L 589.248 474.389959 
L 592.416 473.732141 
L 595.584 473.61523 
L 598.752 470.355252 
L 601.92 467.921075 
L 605.088 465.886747 
L 608.256 464.127581 
L 611.424 462.920627 
L 614.592 461.28564 
L 617.76 459.864696 
L 624.096 453.52289 
L 627.264 452.546393 
L 633.6 439.63002 
L 636.768 435.471771 
L 639.936 434.757516 
L 643.104 423.511548 
L 646.272 413.352685 
L 649.44 410.155854 
L 652.608 408.212176 
L 655.776 407.628787 
L 658.944 409.039165 
L 662.112 410.133206 
L 665.28 410.005152 
L 668.448 407.557098 
L 671.616 404.776682 
L 674.784 401.656037 
L 677.952 404.393565 
L 681.12 404.868997 
L 684.288 403.486289 
L 687.456 404.340958 
L 690.624 406.909166 
L 693.792 414.203589 
L 696.96 423.615864 
L 700.128 430.338351 
L 703.296 434.918414 
L 706.464 436.504278 
L 709.632 434.59997 
L 712.8 429.958043 
L 715.968 433.184777 
L 719.136 441.83957 
L 722.304 448.482752 
L 725.472 452.965559 
L 728.64 455.283135 
L 731.808 452.640833 
L 734.976 454.402839 
L 738.144 455.3453 
L 741.312 458.169901 
L 744.48 459.43088 
L 747.648 459.20908 
L 750.816 459.107842 
L 753.984 457.265846 
L 757.152 455.25892 
L 760.32 456.886919 
L 763.488 454.802336 
L 766.656 450.450478 
L 769.824 445.348894 
L 776.16 430.732902 
L 779.328 424.383812 
L 782.496 437.305103 
L 785.664 444.325978 
L 788.832 446.737454 
L 788.832 446.737454 
" clip-path="url(#p7d6b10941c)" style="fill: none; stroke: #000000; stroke-width: 1.5; stroke-linecap: square"/>
   </g>
   <g id="line2d_3">
    <path d="M 0 459 
L 3.168 459 
L 6.336 459.480243 
L 9.504 459.405984 
L 12.672 459.65808 
L 15.84 458.550256 
L 19.008 453.649545 
L 22.176 446.494558 
L 25.344 442.19265 
L 28.512 441.00227 
L 31.68 436.670905 
L 34.848 433.460139 
L 38.016 430.454653 
L 41.184 426.60918 
L 44.352 425.467947 
L 47.52 427.607054 
L 50.688 430.218367 
L 53.856 430.58105 
L 57.024 432.358178 
L 60.192 437.925403 
L 63.36 443.048777 
L 69.696 451.663178 
L 72.864 455.10119 
L 76.032 453.62836 
L 79.2 456.050705 
L 82.368 460.307305 
L 85.536 460.855474 
L 88.704 461.631883 
L 91.872 462.674451 
L 95.04 464.428909 
L 98.208 465.733781 
L 101.376 465.054048 
L 104.544 465.058735 
L 107.712 465.439994 
L 110.88 465.968606 
L 114.048 465.793213 
L 117.216 464.148541 
L 120.384 462.655164 
L 123.552 461.322238 
L 126.72 461.22066 
L 129.888 460.618954 
L 133.056 461.156277 
L 136.224 461.45918 
L 139.392 461.506775 
L 142.56 461.825428 
L 145.728 461.475553 
L 148.896 461.761109 
L 152.064 462.68854 
L 158.4 464.039838 
L 161.568 465.099856 
L 164.736 466.860337 
L 167.904 468.387559 
L 174.24 468.697645 
L 177.408 468.94823 
L 183.744 468.803865 
L 186.912 467.698695 
L 190.08 466.12262 
L 193.248 464.337572 
L 196.416 463.963228 
L 199.584 465.600057 
L 202.752 466.538489 
L 205.92 468.289527 
L 209.088 469.512257 
L 212.256 469.696038 
L 215.424 471.514732 
L 218.592 472.153772 
L 221.76 472.053853 
L 224.928 470.744808 
L 228.096 471.265051 
L 231.264 471.648451 
L 234.432 472.452607 
L 237.6 473.527227 
L 243.936 475.897712 
L 247.104 475.712692 
L 250.272 476.039521 
L 253.44 475.022919 
L 256.608 475.117343 
L 259.776 474.991579 
L 262.944 475.088719 
L 266.112 473.865563 
L 272.448 472.866012 
L 275.616 471.383692 
L 278.784 469.681372 
L 281.952 468.704245 
L 285.12 468.666292 
L 288.288 468.323064 
L 291.456 468.80831 
L 294.624 468.910582 
L 297.792 468.855766 
L 300.96 469.710004 
L 304.128 471.68931 
L 307.296 475.339113 
L 310.464 478.405412 
L 313.632 480.675086 
L 316.8 481.298484 
L 319.968 482.404786 
L 323.136 483.867501 
L 329.472 484.555952 
L 332.64 484.55886 
L 335.808 482.38617 
L 338.976 481.109169 
L 342.144 480.372348 
L 345.312 479.355736 
L 348.48 479.457533 
L 351.648 479.236482 
L 354.816 479.340777 
L 357.984 479.856406 
L 361.152 479.585016 
L 364.32 479.671772 
L 373.824 481.217087 
L 376.992 482.776449 
L 380.16 482.270112 
L 383.328 480.944729 
L 386.496 477.816327 
L 392.832 472.610357 
L 396 471.152953 
L 399.168 470.094317 
L 402.336 470.076618 
L 405.504 469.2783 
L 408.672 468.113316 
L 411.84 466.731291 
L 415.008 465.924588 
L 418.176 465.902732 
L 421.344 465.193888 
L 424.512 464.861758 
L 427.68 464.255691 
L 430.848 463.832111 
L 434.016 463.282213 
L 440.352 459.615882 
L 443.52 456.181266 
L 446.688 452.080228 
L 449.856 449.526995 
L 456.192 446.958705 
L 459.36 448.152599 
L 465.696 455.078397 
L 468.864 456.77305 
L 472.032 456.191224 
L 475.2 459.247839 
L 478.368 460.411475 
L 481.536 461.272288 
L 484.704 462.00774 
L 487.872 462.424821 
L 491.04 462.986316 
L 494.208 464.038201 
L 497.376 464.249814 
L 500.544 463.767516 
L 506.88 461.804104 
L 510.048 462.950999 
L 513.216 463.906514 
L 516.384 464.009804 
L 519.552 464.79252 
L 522.72 465.027331 
L 529.056 466.842495 
L 532.224 468.532439 
L 535.392 471.161506 
L 538.56 473.983904 
L 541.728 476.403087 
L 544.896 476.878327 
L 548.064 477.829593 
L 551.232 478.905605 
L 554.4 478.8697 
L 557.568 476.786063 
L 560.736 476.074491 
L 563.904 476.138039 
L 570.24 477.089448 
L 573.408 478.22683 
L 576.576 478.884203 
L 579.744 477.807024 
L 582.912 477.968925 
L 586.08 477.197398 
L 589.248 475.712655 
L 592.416 474.934942 
L 595.584 474.514293 
L 598.752 472.342285 
L 605.088 468.430992 
L 608.256 466.66292 
L 611.424 465.214491 
L 617.76 462.070291 
L 620.928 460.469139 
L 624.096 459.175189 
L 627.264 457.143979 
L 630.432 451.92548 
L 633.6 446.399166 
L 636.768 441.930819 
L 639.936 439.576521 
L 643.104 431.516798 
L 646.272 423.145231 
L 649.44 418.357057 
L 652.608 414.779603 
L 655.776 412.472765 
L 658.944 411.839446 
L 662.112 411.619515 
L 665.28 411.078385 
L 668.448 409.277798 
L 671.616 407.088018 
L 674.784 404.53123 
L 677.952 405.242007 
L 681.12 405.235062 
L 684.288 404.29157 
L 687.456 404.533453 
L 690.624 405.953603 
L 693.792 410.493581 
L 696.96 417.081412 
L 700.128 422.913806 
L 703.296 427.765691 
L 706.464 430.784884 
L 709.632 431.334942 
L 712.8 429.565684 
L 715.968 431.56974 
L 719.136 437.1283 
L 722.304 442.432264 
L 725.472 446.872877 
L 728.64 450.051456 
L 731.808 450.073786 
L 734.976 451.892883 
L 738.144 453.203233 
L 741.312 455.516127 
L 744.48 457.570161 
L 750.816 458.324462 
L 753.984 457.432585 
L 757.152 456.221889 
L 760.32 456.920529 
L 763.488 455.725134 
L 766.656 452.933627 
L 769.824 449.230804 
L 772.992 443.812019 
L 779.328 432.027713 
L 782.496 437.365615 
L 785.664 441.462425 
L 788.832 443.70918 
L 788.832 443.70918 
" clip-path="url(#p7d6b10941c)" style="fill: none; stroke: #000000; stroke-width: 1.5; stroke-linecap: square"/>
   </g>
   <g id="line2d_4">
    <path d="M 0 459 
L 3.168 459 
L 6.336 459.445341 
L 9.504 459.394715 
L 12.672 459.603714 
L 15.84 458.985554 
L 19.008 455.274982 
L 22.176 449.863827 
L 25.344 446.226696 
L 28.512 444.630874 
L 31.68 441.158836 
L 38.016 435.592893 
L 41.184 432.367324 
L 44.352 430.685991 
L 47.52 431.038329 
L 50.688 431.963889 
L 53.856 431.896753 
L 57.024 432.703982 
L 66.528 442.088259 
L 69.696 445.315867 
L 72.864 448.22629 
L 76.032 448.513816 
L 79.2 450.656359 
L 82.368 455.264543 
L 85.536 457.369172 
L 88.704 459.255896 
L 91.872 460.193953 
L 95.04 461.535533 
L 98.208 462.698516 
L 101.376 462.805206 
L 104.544 463.159838 
L 110.88 464.231876 
L 114.048 464.411528 
L 120.384 462.996445 
L 123.552 462.224718 
L 126.72 462.029549 
L 129.888 461.578887 
L 136.224 461.811245 
L 139.392 461.791281 
L 142.56 461.931583 
L 145.728 461.738169 
L 148.896 461.863094 
L 158.4 463.252432 
L 161.568 463.960221 
L 167.904 466.212805 
L 177.408 467.431119 
L 183.744 467.786762 
L 186.912 467.348285 
L 190.08 466.54676 
L 193.248 465.50805 
L 196.416 465.113534 
L 199.584 465.815711 
L 202.752 466.292139 
L 205.92 467.282433 
L 209.088 468.106532 
L 212.256 468.430304 
L 215.424 469.623213 
L 218.592 470.278693 
L 221.76 470.52883 
L 224.928 470.06722 
L 231.264 470.804703 
L 234.432 471.379659 
L 237.6 472.135882 
L 243.936 473.918707 
L 247.104 474.134558 
L 250.272 474.567581 
L 253.44 474.251953 
L 256.608 474.430663 
L 262.944 474.612143 
L 266.112 474.026526 
L 272.448 473.401807 
L 275.616 472.510413 
L 278.784 471.408289 
L 281.952 470.605247 
L 285.12 470.285718 
L 288.288 469.848516 
L 291.456 469.878966 
L 297.792 469.615918 
L 300.96 469.963549 
L 304.128 471.000744 
L 310.464 475.118845 
L 313.632 476.877895 
L 316.8 477.817589 
L 319.968 478.971388 
L 323.136 480.312154 
L 329.472 481.750963 
L 332.64 482.194965 
L 335.808 481.387231 
L 338.976 480.847147 
L 342.144 480.483822 
L 345.312 479.907983 
L 348.48 479.87138 
L 351.648 479.682332 
L 354.816 479.670483 
L 357.984 479.903602 
L 361.152 479.755587 
L 364.32 479.78232 
L 370.656 480.305273 
L 373.824 480.696582 
L 376.992 481.637254 
L 380.16 481.555698 
L 383.328 480.960707 
L 392.832 475.829699 
L 396 474.530598 
L 399.168 473.424945 
L 402.336 472.889711 
L 405.504 472.010432 
L 408.672 470.941031 
L 411.84 469.736149 
L 415.008 468.815981 
L 418.176 468.343213 
L 421.344 467.567771 
L 430.848 465.773312 
L 434.016 465.161553 
L 446.688 459.924887 
L 449.856 458.822161 
L 453.024 456.603888 
L 456.192 454.570422 
L 459.36 453.978477 
L 462.528 454.9471 
L 465.696 456.23809 
L 468.864 456.945211 
L 472.032 456.567869 
L 475.2 458.402797 
L 478.368 459.489383 
L 484.704 460.669762 
L 491.04 461.60815 
L 494.208 462.391235 
L 497.376 462.759351 
L 500.544 462.725921 
L 503.712 462.360351 
L 506.88 461.878112 
L 513.216 463.074622 
L 516.384 463.260836 
L 519.552 463.801273 
L 522.72 464.082834 
L 529.056 465.407749 
L 532.224 466.554315 
L 535.392 468.298285 
L 541.728 472.198307 
L 544.896 473.133057 
L 551.232 475.411759 
L 554.4 475.95193 
L 557.568 475.287617 
L 560.736 475.145294 
L 563.904 475.331867 
L 570.24 476.128792 
L 573.408 476.904434 
L 576.576 477.475579 
L 579.744 477.11823 
L 582.912 477.321524 
L 586.08 477.013958 
L 589.248 476.24742 
L 592.416 475.751021 
L 595.584 475.399822 
L 601.92 472.731215 
L 620.928 464.349292 
L 624.096 463.038632 
L 627.264 462.000475 
L 630.432 460.483428 
L 633.6 458.623955 
L 636.768 454.244836 
L 639.936 450.988098 
L 643.104 444.767785 
L 646.272 438.087132 
L 649.44 433.070238 
L 652.608 428.743224 
L 655.776 425.230646 
L 658.944 422.834019 
L 665.28 419.127691 
L 671.616 414.392308 
L 674.784 411.789318 
L 677.952 410.975889 
L 681.12 410.016845 
L 684.288 408.690135 
L 687.456 408.074089 
L 690.624 408.243151 
L 693.792 410.291076 
L 703.296 420.92048 
L 706.464 423.603873 
L 709.632 425.007009 
L 712.8 425.018458 
L 715.968 426.796927 
L 725.472 438.080428 
L 728.64 441.175296 
L 731.808 442.577434 
L 734.976 444.737434 
L 738.144 446.570415 
L 744.48 451.044745 
L 747.648 452.336557 
L 750.816 453.43125 
L 753.984 453.745978 
L 757.152 453.694231 
L 760.32 454.489697 
L 763.488 454.235886 
L 766.656 452.973017 
L 769.824 450.983573 
L 772.992 447.793516 
L 776.16 443.949439 
L 779.328 439.847787 
L 785.664 443.130411 
L 788.832 444.117542 
L 788.832 444.117542 
" clip-path="url(#p7d6b10941c)" style="fill: none; stroke: #000000; stroke-width: 1.5; stroke-linecap: square"/>
   </g>
   <g id="line2d_5">
    <path d="M 0 459 
L 3.168 459 
L 6.336 459.42766 
L 9.504 459.387298 
L 12.672 459.575515 
L 15.84 459.058901 
L 19.008 456.051013 
L 22.176 451.547268 
L 25.344 448.421371 
L 28.512 446.870521 
L 31.68 443.976194 
L 41.184 436.528553 
L 44.352 434.897957 
L 47.52 434.651256 
L 50.688 434.855263 
L 53.856 434.500741 
L 57.024 434.736899 
L 60.192 436.450166 
L 66.528 440.289437 
L 72.864 444.402819 
L 76.032 444.934072 
L 79.2 446.514847 
L 82.368 449.554406 
L 85.536 451.282125 
L 88.704 453.197729 
L 91.872 455.377887 
L 95.04 458.279268 
L 98.208 459.655 
L 101.376 459.983572 
L 107.712 460.940942 
L 110.88 461.486958 
L 114.048 461.821556 
L 120.384 461.452545 
L 123.552 461.165626 
L 126.72 461.147667 
L 129.888 460.978627 
L 136.224 461.197695 
L 148.896 461.392047 
L 158.4 462.277364 
L 161.568 462.729313 
L 167.904 464.151643 
L 177.408 465.306065 
L 183.744 465.836897 
L 186.912 465.768644 
L 190.08 465.480409 
L 193.248 465.026424 
L 196.416 464.861633 
L 205.92 466.125638 
L 209.088 466.653647 
L 212.256 466.945692 
L 215.424 467.692908 
L 218.592 468.195951 
L 221.76 468.500948 
L 224.928 468.431166 
L 234.432 469.54365 
L 240.768 470.731452 
L 243.936 471.39504 
L 250.272 472.151712 
L 253.44 472.191943 
L 259.776 472.652645 
L 262.944 472.878738 
L 266.112 472.721437 
L 272.448 472.598017 
L 275.616 472.202553 
L 281.952 471.22079 
L 291.456 470.660655 
L 297.792 470.391655 
L 300.96 470.508845 
L 304.128 471.006402 
L 313.632 474.315464 
L 316.8 475.021757 
L 319.968 475.860076 
L 323.136 476.821858 
L 329.472 478.164998 
L 332.64 478.698589 
L 338.976 478.527794 
L 342.144 478.535976 
L 345.312 478.402459 
L 361.152 478.84986 
L 364.32 478.941465 
L 373.824 479.641983 
L 376.992 480.219794 
L 380.16 480.293618 
L 383.328 480.087282 
L 389.664 478.404537 
L 392.832 477.418508 
L 399.168 475.864301 
L 402.336 475.383379 
L 405.504 474.720236 
L 415.008 472.316736 
L 418.176 471.781806 
L 424.512 470.51522 
L 434.016 468.688723 
L 443.52 465.645122 
L 446.688 464.624655 
L 449.856 463.722651 
L 456.192 462.195993 
L 459.36 461.70713 
L 465.696 461.418622 
L 468.864 461.267833 
L 472.032 460.960257 
L 478.368 461.23125 
L 491.04 461.961314 
L 494.208 462.339357 
L 497.376 462.535193 
L 500.544 462.535981 
L 506.88 462.105969 
L 513.216 462.705058 
L 516.384 462.825684 
L 519.552 463.138234 
L 522.72 463.333151 
L 529.056 464.154054 
L 532.224 464.848937 
L 535.392 465.892897 
L 541.728 468.375766 
L 548.064 470.077884 
L 551.232 471.020587 
L 554.4 471.658911 
L 557.568 471.660364 
L 560.736 471.879119 
L 567.072 472.706139 
L 570.24 473.152088 
L 576.576 474.345151 
L 579.744 474.410965 
L 582.912 474.735939 
L 586.08 474.785536 
L 592.416 474.447336 
L 595.584 474.372342 
L 601.92 473.089176 
L 611.424 470.692394 
L 617.76 468.840991 
L 624.096 466.857428 
L 627.264 466.00018 
L 639.936 461.540284 
L 643.104 460.034266 
L 646.272 457.19664 
L 649.44 453.01184 
L 652.608 449.116948 
L 655.776 445.607223 
L 658.944 442.674134 
L 671.616 432.050338 
L 674.784 429.237608 
L 684.288 423.548095 
L 687.456 421.99966 
L 690.624 420.93808 
L 693.792 420.963813 
L 696.96 421.93998 
L 706.464 425.607738 
L 709.632 426.176657 
L 712.8 426.081734 
L 715.968 426.915063 
L 719.136 428.851026 
L 725.472 433.187103 
L 728.64 435.194578 
L 731.808 436.40514 
L 734.976 438.021124 
L 738.144 439.506474 
L 744.48 442.9882 
L 750.816 445.493634 
L 753.984 446.277203 
L 757.152 446.833739 
L 760.32 447.789489 
L 763.488 448.182572 
L 766.656 447.993504 
L 769.824 447.333282 
L 772.992 445.935289 
L 776.16 444.043306 
L 779.328 441.857711 
L 785.664 443.249481 
L 788.832 443.721018 
L 788.832 443.721018 
" clip-path="url(#p7d6b10941c)" style="fill: none; stroke: #000000; stroke-width: 1.5; stroke-linecap: square"/>
   </g>
   <g id="line2d_6">
    <path d="M 0 459 
L 3.168 459 
L 6.336 459.418791 
L 9.504 459.383153 
L 12.672 459.561253 
L 15.84 459.087952 
L 19.008 456.419792 
L 22.176 452.360444 
L 25.344 449.516627 
L 28.512 448.044004 
L 31.68 445.464909 
L 41.184 438.853336 
L 44.352 437.348801 
L 47.52 436.939388 
L 50.688 436.901716 
L 53.856 436.467288 
L 57.024 436.489304 
L 60.192 437.616658 
L 66.528 440.260396 
L 72.864 443.19999 
L 76.032 443.646133 
L 79.2 444.80937 
L 82.368 446.97196 
L 85.536 448.287004 
L 88.704 449.736844 
L 91.872 451.372379 
L 98.208 455.496301 
L 101.376 456.434819 
L 104.544 457.582894 
L 107.712 458.865942 
L 110.88 459.40333 
L 114.048 459.722038 
L 120.384 459.709545 
L 123.552 459.62655 
L 148.896 460.280007 
L 161.568 461.275889 
L 167.904 462.225716 
L 180.576 463.400592 
L 183.744 463.644665 
L 186.912 463.707858 
L 196.416 463.459933 
L 205.92 464.347911 
L 209.088 464.711758 
L 212.256 464.954814 
L 215.424 465.443997 
L 221.76 466.078888 
L 224.928 466.14607 
L 234.432 467.038708 
L 240.768 467.886772 
L 243.936 468.357545 
L 253.44 469.170346 
L 262.944 469.914046 
L 275.616 470.022924 
L 281.952 469.681181 
L 297.792 469.512989 
L 300.96 469.611212 
L 304.128 469.905864 
L 316.8 472.285544 
L 329.472 474.437506 
L 332.64 474.868462 
L 345.312 475.311722 
L 361.152 476.15405 
L 367.488 476.530029 
L 373.824 477.003695 
L 376.992 477.410155 
L 380.16 477.565927 
L 383.328 477.574682 
L 389.664 476.902632 
L 396 476.085559 
L 399.168 475.723659 
L 405.504 475.138796 
L 434.016 471.459448 
L 443.52 469.519396 
L 449.856 468.204669 
L 456.192 467.044332 
L 459.36 466.593291 
L 472.032 465.426413 
L 478.368 465.199185 
L 491.04 464.965997 
L 497.376 465.019339 
L 503.712 464.724458 
L 506.88 464.496395 
L 525.888 464.864424 
L 529.056 465.046049 
L 532.224 465.367232 
L 535.392 465.882753 
L 541.728 467.182436 
L 548.064 468.172565 
L 551.232 468.738063 
L 554.4 469.163602 
L 560.736 469.488256 
L 570.24 470.459922 
L 576.576 471.310013 
L 579.744 471.475214 
L 582.912 471.767606 
L 586.08 471.920323 
L 595.584 472.048659 
L 601.92 471.57557 
L 611.424 470.486252 
L 617.76 469.536221 
L 630.432 467.279093 
L 639.936 465.202371 
L 655.776 460.594844 
L 662.112 459.117643 
L 665.28 457.235363 
L 674.784 450.397892 
L 687.456 443.076016 
L 690.624 441.632684 
L 693.792 440.764876 
L 696.96 440.422905 
L 700.128 440.265681 
L 706.464 440.114253 
L 709.632 439.781361 
L 712.8 439.145884 
L 715.968 439.00846 
L 719.136 439.475792 
L 725.472 440.839897 
L 728.64 441.532467 
L 731.808 441.874721 
L 738.144 443.03004 
L 744.48 444.556952 
L 750.816 445.735121 
L 760.32 446.918692 
L 763.488 447.153002 
L 766.656 447.09873 
L 769.824 446.798406 
L 772.992 446.105327 
L 776.16 445.131185 
L 779.328 443.967193 
L 788.832 444.696767 
L 788.832 444.696767 
" clip-path="url(#p7d6b10941c)" style="fill: none; stroke: #000000; stroke-width: 1.5; stroke-linecap: square"/>
   </g>
   <g id="line2d_7">
    <path d="M 0 459 
L 3.168 459 
L 6.336 459.414352 
L 9.504 459.380973 
L 12.672 459.554094 
L 15.84 459.101716 
L 19.008 456.598204 
L 22.176 452.756321 
L 25.344 450.056982 
L 28.512 448.634798 
L 31.68 446.216462 
L 41.184 440.050103 
L 44.352 438.629841 
L 47.52 438.174347 
L 50.688 438.051476 
L 53.856 437.599908 
L 57.024 437.543397 
L 60.192 438.423946 
L 66.528 440.536437 
L 72.864 442.919879 
L 76.032 443.294232 
L 79.2 444.242209 
L 82.368 445.985622 
L 88.704 448.257794 
L 91.872 449.593247 
L 98.208 452.929727 
L 101.376 453.75115 
L 107.712 455.804109 
L 110.88 456.925109 
L 114.048 457.75989 
L 117.216 457.944721 
L 129.888 458.233818 
L 136.224 458.985664 
L 152.064 459.549612 
L 161.568 460.167473 
L 171.072 461.121465 
L 183.744 462.030207 
L 190.08 462.12477 
L 196.416 462.092392 
L 212.256 463.245477 
L 218.592 463.875745 
L 221.76 464.093331 
L 224.928 464.188767 
L 237.6 465.193875 
L 247.104 466.115209 
L 250.272 466.394641 
L 259.776 466.986123 
L 262.944 467.199718 
L 275.616 467.533455 
L 285.12 467.485288 
L 294.624 467.58964 
L 300.96 467.720739 
L 304.128 467.934572 
L 329.472 471.003014 
L 332.64 471.325262 
L 351.648 472.241421 
L 373.824 473.546679 
L 376.992 473.847878 
L 383.328 474.101726 
L 389.664 473.893152 
L 399.168 473.446844 
L 405.504 473.233025 
L 427.68 471.885712 
L 434.016 471.463708 
L 443.52 470.410421 
L 456.192 468.979873 
L 462.528 468.490368 
L 478.368 467.652874 
L 491.04 467.31437 
L 497.376 467.239766 
L 516.384 466.725377 
L 529.056 466.778611 
L 535.392 467.138198 
L 551.232 468.539295 
L 554.4 468.7623 
L 560.736 468.947199 
L 570.24 469.490775 
L 576.576 469.973891 
L 592.416 470.475799 
L 595.584 470.542079 
L 605.088 470.220145 
L 614.592 469.649077 
L 627.264 468.581008 
L 639.936 467.091494 
L 665.28 463.078093 
L 684.288 460.285043 
L 690.624 459.490792 
L 700.128 458.571229 
L 706.464 457.719762 
L 709.632 457.176126 
L 712.8 456.485296 
L 715.968 456.049305 
L 722.304 455.908118 
L 728.64 455.973953 
L 731.808 455.844022 
L 741.312 455.964525 
L 747.648 456.1639 
L 753.984 456.203593 
L 757.152 456.139709 
L 760.32 456.190682 
L 763.488 456.116149 
L 766.656 455.901568 
L 769.824 455.566112 
L 772.992 455.032965 
L 779.328 453.573342 
L 788.832 453.36419 
L 788.832 453.36419 
" clip-path="url(#p7d6b10941c)" style="fill: none; stroke: #000000; stroke-width: 1.5; stroke-linecap: square"/>
   </g>
   <g id="line2d_8">
    <path d="M 0 459 
L 3.168 459 
L 6.336 459.412133 
L 9.504 459.379857 
L 12.672 459.55051 
L 15.84 459.108401 
L 19.008 456.685783 
L 22.176 452.951161 
L 25.344 450.324499 
L 28.512 448.929952 
L 31.68 446.592252 
L 41.184 440.652856 
L 44.352 439.279053 
L 47.52 438.808735 
L 50.688 438.65206 
L 53.856 438.197698 
L 57.024 438.10955 
L 60.192 438.879825 
L 66.528 440.749412 
L 72.864 442.872027 
L 76.032 443.207579 
L 79.2 444.051569 
L 82.368 445.597642 
L 88.704 447.624809 
L 91.872 448.811755 
L 98.208 451.76181 
L 101.376 452.509637 
L 107.712 454.350727 
L 110.88 455.349578 
L 114.048 456.105924 
L 117.216 456.315034 
L 129.888 456.748608 
L 136.224 457.452719 
L 148.896 458.523756 
L 152.064 459.002812 
L 161.568 459.537897 
L 171.072 460.338793 
L 183.744 461.122101 
L 190.08 461.235899 
L 196.416 461.249762 
L 212.256 462.213551 
L 218.592 462.725228 
L 240.768 464.098749 
L 247.104 464.579612 
L 253.44 464.952518 
L 262.944 465.49987 
L 275.616 465.855831 
L 288.288 465.93554 
L 304.128 466.370776 
L 332.64 468.932333 
L 354.816 469.912283 
L 383.328 471.353091 
L 392.832 471.230126 
L 415.008 470.772051 
L 427.68 470.404349 
L 437.184 470.000526 
L 462.528 468.451593 
L 481.536 467.877815 
L 519.552 467.309757 
L 529.056 467.31927 
L 535.392 467.516019 
L 554.4 468.453143 
L 563.904 468.664787 
L 589.248 469.486284 
L 598.752 469.550343 
L 611.424 469.252437 
L 624.096 468.698898 
L 630.432 468.355582 
L 643.104 467.412359 
L 655.776 466.172421 
L 693.792 462.886039 
L 715.968 461.920558 
L 734.976 461.615728 
L 769.824 461.125597 
L 785.664 460.55205 
L 788.832 460.496244 
L 788.832 460.496244 
" clip-path="url(#p7d6b10941c)" style="fill: none; stroke: #000000; stroke-width: 1.5; stroke-linecap: square"/>
   </g>
   <g id="line2d_9">
    <path d="M 0 459 
L 3.168 459 
L 6.336 459.411023 
L 9.504 459.379293 
L 12.672 459.548716 
L 15.84 459.111694 
L 19.008 456.72915 
L 22.176 453.047756 
L 25.344 450.457489 
L 28.512 449.07731 
L 31.68 446.779923 
L 41.184 440.954763 
L 44.352 439.605122 
L 47.52 439.129328 
L 50.688 438.957878 
L 53.856 438.503515 
L 57.024 438.401444 
L 60.192 439.11996 
L 66.528 440.874314 
L 72.864 442.871829 
L 76.032 443.187795 
L 79.2 443.981333 
L 82.368 445.432657 
L 88.704 447.339601 
L 91.872 448.45384 
L 98.208 451.21547 
L 101.376 451.924188 
L 107.712 453.656716 
L 110.88 454.59349 
L 114.048 455.307755 
L 120.384 455.627775 
L 123.552 455.64798 
L 126.72 455.903641 
L 129.888 456.001402 
L 136.224 456.674592 
L 148.896 457.709663 
L 158.4 459.019347 
L 164.736 459.473979 
L 171.072 459.938634 
L 183.744 460.655644 
L 190.08 460.772443 
L 196.416 460.801744 
L 212.256 461.668835 
L 218.592 462.122007 
L 240.768 463.348861 
L 250.272 463.974771 
L 275.616 464.940277 
L 288.288 465.055299 
L 304.128 465.4639 
L 332.64 467.618202 
L 364.32 468.896096 
L 383.328 469.757421 
L 396 469.694104 
L 418.176 469.442807 
L 437.184 468.994285 
L 465.696 467.847429 
L 481.536 467.531037 
L 522.72 467.13889 
L 532.224 467.213151 
L 548.064 467.760929 
L 554.4 467.977402 
L 563.904 468.136952 
L 589.248 468.746639 
L 598.752 468.809407 
L 611.424 468.630669 
L 627.264 468.179017 
L 639.936 467.62142 
L 693.792 464.340572 
L 719.136 463.57042 
L 776.16 462.684467 
L 782.496 462.510016 
L 788.832 462.416597 
L 788.832 462.416597 
" clip-path="url(#p7d6b10941c)" style="fill: none; stroke: #000000; stroke-width: 1.5; stroke-linecap: square"/>
   </g>
  </g>
 </g>
 <defs>
  <clipPath id="p7d6b10941c">
   <rect x="0" y="0" width="792" height="612"/>
  </clipPath>
 </defs>
</svg>
