<?xml version="1.0" encoding="utf-8" standalone="no"?>
<!DOCTYPE svg PUBLIC "-//W3C//DTD SVG 1.1//EN"
  "http://www.w3.org/Graphics/SVG/1.1/DTD/svg11.dtd">
<svg xmlns:xlink="http://www.w3.org/1999/xlink" width="792pt" height="612pt" viewBox="0 0 792 612" xmlns="http://www.w3.org/2000/svg" version="1.1">
 <metadata>
  <rdf:RDF xmlns:dc="http://purl.org/dc/elements/1.1/" xmlns:cc="http://creativecommons.org/ns#" xmlns:rdf="http://www.w3.org/1999/02/22-rdf-syntax-ns#">
   <cc:Work>
    <dc:type rdf:resource="http://purl.org/dc/dcmitype/StillImage"/>
    <dc:date>2022-12-19T20:28:54.446012</dc:date>
    <dc:format>image/svg+xml</dc:format>
    <dc:creator>
     <cc:Agent>
      <dc:title>Matplotlib v3.6.2, https://matplotlib.org/</dc:title>
     </cc:Agent>
    </dc:creator>
   </cc:Work>
  </rdf:RDF>
 </metadata>
 <defs>
  <style type="text/css">*{stroke-linejoin: round; stroke-linecap: butt}</style>
 </defs>
 <g id="figure_1">
  <g id="patch_1">
   <path d="M 0 612 
L 792 612 
L 792 0 
L 0 0 
z
" style="fill: #ffffff"/>
  </g>
  <g id="axes_1">
   <g id="line2d_1">
    <path d="M 0 459 
L 3.155378 454.012104 
L 6.310757 452.711578 
L 9.466135 443.814534 
L 12.621514 460.12968 
L 15.776892 464.183002 
L 18.932271 460.718386 
L 22.087649 459.918859 
L 25.243028 458.522671 
L 28.398406 454.942805 
L 31.553785 455.455899 
L 34.709163 457.138425 
L 37.864542 457.949877 
L 41.01992 459.831349 
L 44.175299 446.246654 
L 47.330677 431.776478 
L 50.486056 442.31276 
L 53.641434 444.339042 
L 56.796813 443.647654 
L 59.952191 441.669251 
L 63.10757 437.047673 
L 66.262948 452.234345 
L 69.418327 451.649755 
L 72.573705 460.471766 
L 75.729084 471.028702 
L 78.884462 473.844946 
L 82.039841 473.534682 
L 85.195219 475.201357 
L 88.350598 475.4082 
L 91.505976 476.140105 
L 94.661355 475.69062 
L 97.816733 476.346948 
L 100.972112 473.968256 
L 104.12749 470.917325 
L 107.282869 467.1862 
L 110.438247 467.583975 
L 113.593625 469.246672 
L 116.749004 465.778078 
L 119.904382 465.559302 
L 123.059761 464.783642 
L 126.215139 463.021501 
L 129.370518 464.596688 
L 132.525896 467.583975 
L 135.681275 468.705699 
L 138.836653 467.233933 
L 141.992032 468.781276 
L 145.14741 473.152818 
L 148.302789 474.354097 
L 151.458167 475.058158 
L 154.613546 476.283304 
L 157.768924 476.681078 
L 160.924303 472.731177 
L 164.079681 476.243526 
L 167.23506 481.450395 
L 170.390438 478.196599 
L 173.545817 479.374012 
L 176.701195 480.865667 
L 179.856574 483.960353 
L 183.011952 484.167195 
L 186.167331 479.30639 
L 189.322709 480.774178 
L 192.478088 481.927725 
L 195.633466 482.731229 
L 198.788845 481.068532 
L 201.944223 476.454347 
L 205.099602 475.455933 
L 208.25498 474.616629 
L 211.410359 477.15443 
L 214.565737 475.559354 
L 217.721116 478.502886 
L 220.876494 478.256266 
L 224.031873 477.75507 
L 227.187251 478.626196 
L 230.342629 476.891899 
L 233.498008 478.510841 
L 236.653386 480.694624 
L 239.808765 480.646891 
L 242.964143 481.446417 
L 246.119522 483.136959 
L 249.2749 486.199823 
L 252.430279 487.039127 
L 255.585657 484.15924 
L 258.741036 484.409838 
L 261.896414 484.799657 
L 265.051793 483.928531 
L 268.207171 484.059796 
L 271.36255 480.782134 
L 274.517928 478.367642 
L 277.673307 476.335015 
L 280.828685 479.02397 
L 283.984064 484.803635 
L 287.139442 484.147307 
L 290.294821 487.448835 
L 293.450199 487.40508 
L 296.605578 485.344608 
L 299.760956 490.483855 
L 302.916335 488.522827 
L 306.071713 486.836262 
L 309.227092 483.077293 
L 312.38247 487.468724 
L 315.537849 487.512479 
L 321.848606 490.654898 
L 325.003984 492.051087 
L 328.159363 492.902324 
L 331.314741 489.887193 
L 334.47012 491.299293 
L 337.625498 487.508501 
L 340.780876 489.990615 
L 343.936255 489.405886 
L 347.091633 489.96277 
L 350.247012 486.060602 
L 353.40239 487.118682 
L 356.557769 486.740797 
L 359.713147 483.268225 
L 362.868526 481.299241 
L 366.023904 481.987391 
L 369.179283 483.976264 
L 372.334661 483.021605 
L 375.49004 485.237209 
L 378.645418 484.509281 
L 381.800797 484.111507 
L 384.956175 486.828307 
L 388.111554 490.989029 
L 391.266932 497.830751 
L 394.422311 499.302517 
L 397.577689 499.612781 
L 400.733068 496.617538 
L 407.043825 500.706661 
L 410.199203 498.709833 
L 413.354582 498.817232 
L 416.50996 498.168859 
L 419.665339 491.573757 
L 422.820717 492.357373 
L 425.976096 492.870502 
L 429.131474 491.362937 
L 432.286853 493.853005 
L 435.442231 492.973924 
L 438.59761 493.781406 
L 441.752988 495.14975 
L 444.908367 493.224522 
L 448.063745 494.071781 
L 451.219124 495.38046 
L 454.374502 495.639013 
L 457.52988 496.585717 
L 460.685259 499.990667 
L 463.840637 495.105995 
L 466.996016 492.166441 
L 470.151394 485.487807 
L 473.306773 484.135373 
L 476.462151 482.110701 
L 479.61753 483.148892 
L 482.772908 483.073315 
L 485.928287 485.28892 
L 489.083665 482.90625 
L 495.394422 479.385945 
L 498.549801 479.90703 
L 501.705179 481.577683 
L 504.860558 479.473456 
L 508.015936 479.990563 
L 511.171315 478.876794 
L 514.326693 478.872816 
L 517.482072 478.101134 
L 520.63745 473.610259 
L 523.792829 472.110649 
L 530.103586 470.451929 
L 533.258964 470.801971 
L 536.414343 471.291233 
L 539.569721 470.980969 
L 542.7251 473.069286 
L 545.880478 475.794041 
L 549.035857 476.685056 
L 552.191235 475.984973 
L 555.346614 474.175099 
L 558.501992 478.188644 
L 561.657371 479.175125 
L 564.812749 479.290479 
L 567.968127 479.672343 
L 571.123506 479.34219 
L 574.278884 480.145695 
L 577.434263 482.13059 
L 580.589641 480.511647 
L 586.900398 476.716878 
L 590.055777 475.730397 
L 593.211155 481.374818 
L 596.366534 481.824303 
L 599.521912 480.090006 
L 602.677291 482.241967 
L 605.832669 481.267419 
L 608.988048 483.415401 
L 612.143426 484.429726 
L 615.298805 487.52839 
L 618.454183 491.884021 
L 621.609562 494.807664 
L 624.76494 496.096454 
L 627.920319 492.353395 
L 631.075697 494.21498 
L 634.231076 495.43217 
L 637.386454 493.005746 
L 640.541833 486.75273 
L 643.697211 489.087666 
L 646.85259 490.81003 
L 650.007968 492.238041 
L 653.163347 492.452839 
L 656.318725 494.970752 
L 659.474104 494.5332 
L 662.629482 489.855371 
L 665.784861 492.671615 
L 668.940239 489.99857 
L 672.095618 487.15846 
L 675.250996 487.989809 
L 678.406375 488.367694 
L 681.561753 482.683496 
L 691.027888 478.471064 
L 694.183267 477.87838 
L 697.338645 476.032706 
L 700.494024 474.962692 
L 703.649402 473.34375 
L 706.804781 472.862443 
L 709.960159 473.228395 
L 713.115538 469.632514 
L 716.270916 467.782862 
L 719.426295 467.202111 
L 722.581673 468.005616 
L 725.737052 461.517913 
L 728.89243 458.367539 
L 732.047809 459.906926 
L 735.203187 459.700083 
L 738.358566 459.918859 
L 741.513944 460.933184 
L 744.669323 461.163894 
L 747.824701 460.762141 
L 750.98008 459.306286 
L 754.135458 457.07876 
L 757.290837 453.964376 
L 760.446215 459.906926 
L 763.601594 459.36993 
L 766.756972 457.198091 
L 769.912351 459.330153 
L 773.067729 460.614965 
L 779.378486 467.643641 
L 782.533865 468.832987 
L 785.689243 469.564892 
L 788.844622 469.143251 
L 788.844622 469.143251 
" clip-path="url(#p2eaf0d3179)" style="fill: none; stroke: #000000; stroke-width: 1.5; stroke-linecap: square"/>
   </g>
   <g id="line2d_2">
    <path d="M 0 459 
L 3.155378 459 
L 6.310757 455.674663 
L 9.466135 453.981422 
L 12.621514 448.557834 
L 15.776892 455.695705 
L 18.932271 461.090652 
L 22.087649 460.903054 
L 25.243028 460.409027 
L 28.398406 459.624646 
L 31.553785 457.910147 
L 34.709163 456.688388 
L 37.864542 456.939542 
L 41.01992 457.436003 
L 44.175299 459.146475 
L 47.330677 452.806652 
L 50.486056 442.224011 
L 53.641434 442.236629 
L 56.796813 443.266976 
L 59.952191 443.434174 
L 63.10757 442.521343 
L 66.262948 439.742878 
L 69.418327 445.968057 
L 72.573705 448.81911 
L 75.729084 456.178504 
L 78.884462 464.578593 
L 82.039841 469.250463 
L 85.195219 471.43111 
L 88.350598 473.359333 
L 91.505976 474.430298 
L 94.661355 475.323232 
L 97.816733 475.544457 
L 100.972112 475.97683 
L 104.12749 474.978307 
L 107.282869 472.942076 
L 110.438247 470.05169 
L 113.593625 468.802896 
L 116.749004 469.012703 
L 119.904382 467.375073 
L 126.215139 465.592809 
L 129.370518 464.285691 
L 132.525896 464.428796 
L 135.681275 466.007165 
L 138.836653 467.358631 
L 141.992032 467.292336 
L 145.14741 468.042694 
L 148.302789 470.612646 
L 151.458167 472.502137 
L 157.768924 475.066441 
L 160.924303 475.891597 
L 164.079681 474.31928 
L 167.23506 475.299069 
L 170.390438 478.399574 
L 173.545817 478.307976 
L 176.701195 478.850837 
L 179.856574 479.869639 
L 183.011952 481.930049 
L 186.167331 483.063301 
L 189.322709 481.197738 
L 192.478088 480.994842 
L 195.633466 481.462219 
L 198.788845 482.105616 
L 201.944223 481.590396 
L 205.099602 479.013722 
L 208.25498 477.218152 
L 211.410359 475.898664 
L 214.565737 476.522327 
L 217.721116 476.030616 
L 220.876494 477.260035 
L 224.031873 477.749376 
L 227.187251 477.745726 
L 230.342629 478.190219 
L 233.498008 477.543875 
L 236.653386 478.034994 
L 239.808765 479.37175 
L 246.119522 480.738628 
L 249.2749 481.947364 
L 252.430279 484.090152 
L 255.585657 485.581136 
L 258.741036 484.884437 
L 261.896414 484.658704 
L 265.051793 484.73723 
L 268.207171 484.339315 
L 271.36255 484.20468 
L 274.517928 482.48879 
L 280.828685 478.352948 
L 283.984064 478.67839 
L 287.139442 481.741785 
L 290.294821 482.943266 
L 293.450199 485.202953 
L 296.605578 486.310576 
L 299.760956 485.836538 
L 302.916335 488.183954 
L 306.071713 488.377288 
L 309.227092 487.622093 
L 312.38247 485.346308 
L 315.537849 486.414029 
L 318.693227 486.963379 
L 321.848606 488.050785 
L 328.159363 490.710243 
L 331.314741 491.814871 
L 334.47012 490.857014 
L 337.625498 491.094275 
L 340.780876 489.301466 
L 343.936255 489.6509 
L 347.091633 489.528931 
L 350.247012 489.744494 
L 353.40239 487.890802 
L 359.713147 487.11093 
L 366.023904 483.22436 
L 369.179283 482.590183 
L 372.334661 483.272577 
L 375.49004 483.133481 
L 378.645418 484.18373 
L 381.800797 484.341389 
L 384.956175 484.221293 
L 388.111554 485.53178 
L 391.266932 488.279404 
L 394.422311 493.086143 
L 397.577689 496.224381 
L 400.733068 497.951113 
L 403.888446 497.30664 
L 407.043825 498.002137 
L 410.199203 499.386938 
L 413.354582 499.071683 
L 416.50996 498.959807 
L 419.665339 498.564996 
L 422.820717 495.054222 
L 425.976096 493.691571 
L 429.131474 493.27369 
L 432.286853 492.30404 
L 435.442231 493.065084 
L 438.59761 493.008257 
L 441.752988 493.384957 
L 444.908367 494.261434 
L 448.063745 493.746215 
L 451.219124 493.91236 
L 454.374502 494.651331 
L 457.52988 495.153557 
L 460.685259 495.874995 
L 463.840637 497.946589 
L 466.996016 496.528889 
L 470.151394 494.341816 
L 473.306773 489.899641 
L 476.462151 486.998024 
L 479.61753 484.528343 
L 482.772908 483.814127 
L 485.928287 483.417226 
L 489.083665 484.324246 
L 492.239044 483.591327 
L 495.394422 482.318152 
L 498.549801 480.840084 
L 501.705179 480.365266 
L 504.860558 480.970429 
L 508.015936 480.214736 
L 511.171315 480.096605 
L 514.326693 479.474126 
L 517.482072 479.165563 
L 520.63745 478.627491 
L 523.792829 476.10755 
L 526.948207 474.093812 
L 530.103586 472.65638 
L 533.258964 471.536465 
L 536.414343 471.151201 
L 539.569721 471.206344 
L 542.7251 471.078182 
L 545.880478 472.063868 
L 549.035857 473.933236 
L 552.191235 475.318116 
L 555.346614 475.66081 
L 558.501992 474.925255 
L 561.657371 476.571433 
L 564.812749 477.888738 
L 567.968127 478.605902 
L 571.123506 479.152069 
L 574.278884 479.254087 
L 577.434263 479.706676 
L 580.589641 480.930683 
L 583.74502 480.73359 
L 586.900398 479.664777 
L 590.055777 478.186008 
L 593.211155 476.951222 
L 596.366534 479.166358 
L 599.521912 480.500198 
L 602.677291 480.294993 
L 605.832669 481.268698 
L 608.988048 481.26954 
L 615.298805 483.405948 
L 618.454183 485.490303 
L 624.76494 491.783174 
L 627.920319 493.971199 
L 631.075697 493.182124 
L 634.231076 493.723939 
L 637.386454 494.601617 
L 640.541833 493.820497 
L 643.697211 490.285093 
L 646.85259 489.680896 
L 650.007968 490.237625 
L 653.163347 491.230267 
L 656.318725 491.841748 
L 659.474104 493.407732 
L 662.629482 493.968703 
L 665.784861 491.90586 
L 668.940239 492.300343 
L 672.095618 491.151243 
L 675.250996 489.147691 
L 678.406375 488.56042 
L 681.561753 488.456047 
L 684.717131 485.545679 
L 687.87251 483.372551 
L 691.027888 481.55639 
L 694.183267 479.985883 
L 697.338645 478.908366 
L 700.494024 477.448721 
L 703.649402 476.180163 
L 706.804781 474.732498 
L 709.960159 473.778213 
L 713.115538 473.487573 
L 719.426295 469.640547 
L 722.581673 468.400395 
L 725.737052 468.187266 
L 728.89243 464.826227 
L 732.047809 461.779165 
L 735.203187 460.817642 
L 738.358566 460.232337 
L 741.513944 460.056552 
L 747.824701 460.810826 
L 750.98008 460.772281 
L 757.290837 459.196423 
L 760.446215 456.76153 
L 763.601594 459.080787 
L 766.756972 459.224282 
L 769.912351 458.42056 
L 773.067729 459.064907 
L 776.223108 459.839647 
L 779.378486 462.034864 
L 782.533865 464.857456 
L 785.689243 466.867793 
L 788.844622 468.23528 
L 788.844622 468.23528 
" clip-path="url(#p2eaf0d3179)" style="fill: none; stroke: #000000; stroke-width: 1.5; stroke-linecap: square"/>
   </g>
   <g id="line2d_3">
    <path d="M 0 459 
L 3.155378 459 
L 6.310757 456.078082 
L 9.466135 454.55272 
L 12.621514 450.357969 
L 15.776892 454.637956 
L 18.932271 459.767599 
L 22.087649 460.073079 
L 25.243028 460.024898 
L 28.398406 459.662075 
L 31.553785 459.053006 
L 34.709163 458.049871 
L 37.864542 457.778676 
L 41.01992 457.82938 
L 44.175299 458.911186 
L 47.330677 455.180346 
L 50.486056 448.291105 
L 53.641434 446.52046 
L 59.952191 445.208874 
L 63.10757 444.169489 
L 66.262948 442.053576 
L 69.418327 445.008566 
L 72.573705 446.938888 
L 75.729084 451.765257 
L 78.884462 460.831738 
L 82.039841 464.661823 
L 85.195219 467.278674 
L 88.350598 469.618496 
L 91.505976 471.33351 
L 94.661355 472.760061 
L 100.972112 474.464944 
L 104.12749 474.343052 
L 107.282869 473.358983 
L 110.438247 471.5663 
L 113.593625 470.416402 
L 116.749004 470.093976 
L 119.904382 468.840255 
L 126.215139 466.984863 
L 129.370518 465.814824 
L 132.525896 465.447418 
L 135.681275 466.066366 
L 138.836653 466.831948 
L 141.992032 466.940297 
L 145.14741 467.471055 
L 148.302789 469.13229 
L 151.458167 470.659433 
L 157.768924 473.224681 
L 160.924303 474.247942 
L 164.079681 473.809604 
L 167.23506 474.53052 
L 170.390438 476.575306 
L 173.545817 477.064687 
L 176.701195 477.757831 
L 179.856574 478.688591 
L 183.011952 480.254895 
L 186.167331 481.419829 
L 189.322709 480.812993 
L 192.478088 480.817177 
L 195.633466 481.157549 
L 198.788845 481.629471 
L 201.944223 481.472888 
L 205.099602 480.004595 
L 208.25498 478.671372 
L 211.410359 477.481394 
L 214.565737 477.390709 
L 217.721116 476.853532 
L 220.876494 477.333231 
L 224.031873 477.60365 
L 227.187251 477.64614 
L 230.342629 477.93062 
L 233.498008 477.618267 
L 236.653386 477.873199 
L 239.808765 478.701169 
L 246.119522 479.90755 
L 249.2749 480.853888 
L 252.430279 482.42557 
L 255.585657 483.789007 
L 261.896414 484.065839 
L 265.051793 484.289551 
L 271.36255 484.160667 
L 274.517928 483.174019 
L 277.673307 481.766968 
L 280.828685 480.173354 
L 283.984064 479.839156 
L 287.139442 481.300446 
L 290.294821 482.138238 
L 293.450199 483.701489 
L 296.605578 484.79309 
L 299.760956 484.957161 
L 302.916335 486.580813 
L 306.071713 487.15132 
L 309.227092 487.062116 
L 312.38247 485.893458 
L 315.537849 486.357909 
L 318.693227 486.700191 
L 321.848606 487.418107 
L 325.003984 488.377481 
L 331.314741 490.493748 
L 334.47012 490.32857 
L 337.625498 490.620349 
L 340.780876 489.712771 
L 343.936255 489.797069 
L 347.091633 489.684792 
L 350.247012 489.771514 
L 353.40239 488.679533 
L 359.713147 487.787177 
L 362.868526 486.463826 
L 366.023904 484.944068 
L 369.179283 484.071731 
L 372.334661 484.037848 
L 375.49004 483.73143 
L 378.645418 484.164636 
L 381.800797 484.25594 
L 384.956175 484.207002 
L 388.111554 484.969629 
L 391.266932 486.736668 
L 394.422311 489.995055 
L 397.577689 492.732515 
L 400.733068 494.758782 
L 403.888446 495.315325 
L 407.043825 496.302983 
L 410.199203 497.608832 
L 416.50996 498.223451 
L 419.665339 498.226048 
L 422.820717 496.286363 
L 425.976096 495.146312 
L 429.131474 494.48851 
L 432.286853 493.580923 
L 435.442231 493.671803 
L 438.59761 493.474458 
L 441.752988 493.567568 
L 444.908367 494.027899 
L 448.063745 493.785614 
L 451.219124 493.863066 
L 460.685259 495.242657 
L 463.840637 496.634788 
L 466.996016 496.182752 
L 470.151394 494.999508 
L 473.306773 492.206605 
L 479.61753 487.55894 
L 482.772908 486.257832 
L 485.928287 485.312727 
L 489.083665 485.296927 
L 492.239044 484.584223 
L 495.394422 483.544175 
L 498.549801 482.310363 
L 501.705179 481.590173 
L 504.860558 481.570661 
L 508.015936 480.937836 
L 511.171315 480.641325 
L 514.326693 480.100254 
L 517.482072 479.722101 
L 520.63745 479.231175 
L 526.948207 475.958033 
L 530.103586 474.569375 
L 533.258964 473.348819 
L 536.414343 472.58877 
L 542.7251 471.824061 
L 545.880478 472.179568 
L 552.191235 474.241159 
L 555.346614 474.745486 
L 558.501992 474.572338 
L 564.812749 476.668304 
L 571.123506 478.093381 
L 574.278884 478.465732 
L 577.434263 478.967011 
L 580.589641 479.906088 
L 583.74502 480.095007 
L 586.900398 479.664432 
L 593.211155 477.911583 
L 596.366534 478.935481 
L 599.521912 479.788524 
L 602.677291 479.880737 
L 605.832669 480.579512 
L 608.988048 480.789141 
L 615.298805 482.409641 
L 618.454183 483.91835 
L 621.609562 486.265467 
L 624.76494 488.785183 
L 627.920319 490.944925 
L 631.075697 491.369199 
L 637.386454 493.179066 
L 640.541833 493.147011 
L 643.697211 491.28683 
L 646.85259 490.651569 
L 650.007968 490.708302 
L 656.318725 491.557679 
L 659.474104 492.573085 
L 662.629482 493.159959 
L 665.784861 492.1983 
L 668.940239 492.342838 
L 672.095618 491.654052 
L 675.250996 490.328538 
L 678.406375 489.634229 
L 681.561753 489.258691 
L 684.717131 487.319616 
L 691.027888 483.827783 
L 694.183267 482.249324 
L 697.338645 480.956229 
L 703.649402 478.149223 
L 706.804781 476.719784 
L 709.960159 475.564601 
L 713.115538 474.855872 
L 719.426295 471.65743 
L 722.581673 470.326313 
L 725.737052 469.624598 
L 732.047809 464.716554 
L 735.203187 463.281685 
L 738.358566 462.207904 
L 741.513944 461.514646 
L 744.669323 461.324196 
L 750.98008 461.095259 
L 754.135458 460.553298 
L 760.446215 459.122341 
L 763.601594 459.33684 
L 766.756972 459.334744 
L 769.912351 459.049999 
L 773.067729 459.123012 
L 776.223108 459.551506 
L 779.378486 460.919288 
L 782.533865 462.898976 
L 785.689243 464.64726 
L 788.844622 466.098932 
L 788.844622 466.098932 
" clip-path="url(#p2eaf0d3179)" style="fill: none; stroke: #000000; stroke-width: 1.5; stroke-linecap: square"/>
   </g>
   <g id="line2d_4">
    <path d="M 0 459 
L 3.155378 459 
L 6.310757 456.290432 
L 9.466135 454.885796 
L 12.621514 451.361707 
L 15.776892 454.38867 
L 18.932271 459.116806 
L 22.087649 459.479433 
L 25.243028 459.572652 
L 28.398406 459.425236 
L 31.553785 459.081667 
L 34.709163 458.536866 
L 37.864542 458.282582 
L 41.01992 458.22343 
L 44.175299 458.79425 
L 47.330677 456.637044 
L 50.486056 452.412951 
L 53.641434 450.716121 
L 63.10757 447.512672 
L 66.262948 445.801613 
L 69.418327 446.847924 
L 72.573705 447.626224 
L 75.729084 450.177331 
L 78.884462 457.416703 
L 82.039841 460.945411 
L 88.350598 464.929019 
L 91.505976 466.60732 
L 94.661355 468.132445 
L 100.972112 470.459698 
L 104.12749 471.027262 
L 107.282869 471.018244 
L 110.438247 470.414967 
L 113.593625 469.973061 
L 116.749004 469.863179 
L 129.370518 467.232277 
L 132.525896 466.817281 
L 135.681275 466.945358 
L 138.836653 467.231877 
L 141.992032 467.23756 
L 145.14741 467.488755 
L 160.924303 472.129768 
L 164.079681 472.237628 
L 167.23506 472.890309 
L 170.390438 474.267664 
L 176.701195 475.628904 
L 179.856574 476.468229 
L 183.011952 477.666564 
L 186.167331 478.707472 
L 189.322709 478.805323 
L 192.478088 479.121923 
L 198.788845 480.078993 
L 201.944223 480.239378 
L 208.25498 478.976053 
L 211.410359 478.287089 
L 214.565737 478.112851 
L 217.721116 477.710519 
L 224.031873 477.917958 
L 227.187251 477.900135 
L 230.342629 478.02539 
L 233.498008 477.852719 
L 236.653386 477.964246 
L 249.2749 479.836471 
L 255.585657 481.847481 
L 265.051793 482.935139 
L 271.36255 483.252642 
L 274.517928 482.861188 
L 277.673307 482.145621 
L 280.828685 481.218306 
L 283.984064 480.866099 
L 287.139442 481.492972 
L 290.294821 481.918307 
L 293.450199 482.802398 
L 296.605578 483.538119 
L 299.760956 483.827169 
L 302.916335 484.892146 
L 306.071713 485.47733 
L 309.227092 485.700642 
L 312.38247 485.288536 
L 321.848606 486.460225 
L 325.003984 487.135349 
L 331.314741 488.726978 
L 334.47012 488.919681 
L 337.625498 489.306265 
L 340.780876 489.024485 
L 343.936255 489.18403 
L 350.247012 489.346047 
L 353.40239 488.823234 
L 359.713147 488.265512 
L 362.868526 487.469714 
L 366.023904 486.485785 
L 369.179283 485.768863 
L 375.49004 485.093287 
L 378.645418 485.120471 
L 384.956175 484.885634 
L 388.111554 485.195983 
L 391.266932 486.121946 
L 397.577689 489.798409 
L 400.733068 491.368813 
L 403.888446 492.207731 
L 407.043825 493.237794 
L 410.199203 494.434772 
L 416.50996 495.719278 
L 419.665339 496.115664 
L 422.820717 495.394554 
L 425.976096 494.91239 
L 429.131474 494.58803 
L 432.286853 494.073945 
L 435.442231 494.041268 
L 438.59761 493.872494 
L 441.752988 493.861916 
L 444.908367 494.070034 
L 448.063745 493.937892 
L 451.219124 493.961758 
L 457.52988 494.428629 
L 460.685259 494.777972 
L 463.840637 495.617764 
L 466.996016 495.544954 
L 470.151394 495.013772 
L 479.61753 490.433029 
L 482.772908 489.273248 
L 485.928287 488.286169 
L 489.083665 487.808335 
L 492.239044 487.023353 
L 495.394422 486.068637 
L 498.549801 484.992971 
L 501.705179 484.171484 
L 504.860558 483.749417 
L 508.015936 483.057136 
L 517.482072 481.455121 
L 520.63745 480.908968 
L 533.258964 476.233899 
L 536.414343 475.355278 
L 542.7251 474.08998 
L 545.880478 473.913807 
L 555.346614 474.79672 
L 558.501992 474.684426 
L 571.123506 476.898891 
L 577.434263 477.736643 
L 580.589641 478.435748 
L 583.74502 478.764386 
L 586.900398 478.734542 
L 593.211155 477.977654 
L 599.521912 479.045847 
L 602.677291 479.212091 
L 605.832669 479.694569 
L 608.988048 479.945935 
L 615.298805 481.128762 
L 618.454183 482.152366 
L 621.609562 483.709307 
L 627.920319 487.191079 
L 631.075697 488.025583 
L 637.386454 490.05991 
L 640.541833 490.542152 
L 643.697211 489.949082 
L 646.85259 489.822022 
L 650.007968 489.988587 
L 656.318725 490.700047 
L 659.474104 491.392506 
L 662.629482 491.9024 
L 665.784861 491.583374 
L 668.940239 491.764866 
L 672.095618 491.490285 
L 675.250996 490.805953 
L 678.406375 490.362788 
L 681.561753 490.049253 
L 687.87251 487.666836 
L 709.960159 479.013716 
L 713.115538 478.086895 
L 722.581673 473.993081 
L 725.737052 473.023731 
L 728.89243 471.171539 
L 732.047809 469.180519 
L 735.203187 467.683651 
L 738.358566 466.391143 
L 741.513944 465.340735 
L 744.669323 464.623368 
L 754.135458 462.822975 
L 760.446215 461.30912 
L 766.756972 460.7758 
L 769.912351 460.376317 
L 773.067729 460.190733 
L 776.223108 460.241668 
L 779.378486 460.858342 
L 788.844622 464.050176 
L 788.844622 464.050176 
" clip-path="url(#p2eaf0d3179)" style="fill: none; stroke: #000000; stroke-width: 1.5; stroke-linecap: square"/>
   </g>
   <g id="line2d_5">
    <path d="M 0 459 
L 3.155378 459 
L 6.310757 456.398003 
L 9.466135 455.061261 
L 12.621514 451.873254 
L 15.776892 454.355389 
L 18.932271 458.48946 
L 22.087649 459.174503 
L 25.243028 459.29806 
L 28.398406 459.227989 
L 31.553785 459.001661 
L 34.709163 458.525585 
L 37.864542 458.34749 
L 41.01992 458.298658 
L 44.175299 458.676066 
L 47.330677 457.257458 
L 50.486056 454.434303 
L 53.641434 453.128422 
L 63.10757 450.350489 
L 66.262948 449.031791 
L 72.573705 449.565518 
L 75.729084 450.87885 
L 82.039841 459.173802 
L 91.505976 463.058103 
L 94.661355 464.231035 
L 100.972112 466.233951 
L 104.12749 466.914894 
L 107.282869 467.265506 
L 113.593625 467.286845 
L 116.749004 467.456373 
L 126.215139 466.957444 
L 129.370518 466.621139 
L 132.525896 466.448584 
L 145.14741 466.941304 
L 151.458167 468.046549 
L 160.924303 469.90176 
L 164.079681 470.139213 
L 167.23506 470.651032 
L 170.390438 471.555741 
L 176.701195 472.719135 
L 179.856574 473.400143 
L 186.167331 475.107764 
L 192.478088 475.901623 
L 198.788845 476.931472 
L 201.944223 477.276178 
L 208.25498 477.073664 
L 211.410359 476.875505 
L 214.565737 476.906211 
L 217.721116 476.79945 
L 224.031873 477.059986 
L 236.653386 477.34377 
L 246.119522 478.189233 
L 249.2749 478.609114 
L 255.585657 479.908249 
L 265.051793 480.981116 
L 271.36255 481.479471 
L 274.517928 481.429482 
L 277.673307 481.181186 
L 280.828685 480.780701 
L 283.984064 480.636585 
L 293.450199 481.769663 
L 296.605578 482.241046 
L 299.760956 482.501771 
L 302.916335 483.168853 
L 306.071713 483.617948 
L 309.227092 483.890237 
L 312.38247 483.827938 
L 321.848606 484.821116 
L 328.159363 485.881535 
L 331.314741 486.473957 
L 337.625498 487.149481 
L 340.780876 487.185398 
L 350.247012 487.798539 
L 356.557769 487.617262 
L 359.713147 487.547923 
L 362.868526 487.194869 
L 369.179283 486.318394 
L 378.645418 485.818329 
L 384.956175 485.578178 
L 388.111554 485.6828 
L 391.266932 486.126998 
L 400.733068 489.081186 
L 403.888446 489.711733 
L 413.354582 491.940055 
L 419.665339 492.99425 
L 425.976096 492.841772 
L 429.131474 492.849077 
L 432.286853 492.729878 
L 448.063745 493.129298 
L 454.374502 493.394117 
L 460.685259 493.836472 
L 463.840637 494.352317 
L 466.996016 494.418223 
L 470.151394 494.234016 
L 476.462151 492.731734 
L 479.61753 491.851449 
L 485.928287 490.46392 
L 489.083665 490.034574 
L 495.394422 488.747119 
L 501.705179 487.296807 
L 504.860558 486.819245 
L 511.171315 485.688492 
L 520.63745 484.057873 
L 530.103586 481.340679 
L 536.414343 479.624379 
L 542.7251 478.261444 
L 545.880478 477.825009 
L 552.191235 477.567441 
L 555.346614 477.432823 
L 558.501992 477.158232 
L 564.812749 477.400164 
L 577.434263 478.051933 
L 580.589641 478.389434 
L 583.74502 478.564268 
L 586.900398 478.564971 
L 593.211155 478.181075 
L 599.521912 478.715916 
L 602.677291 478.823606 
L 615.298805 480.009517 
L 618.454183 480.629878 
L 621.609562 481.561881 
L 627.920319 483.778479 
L 634.231076 485.298057 
L 637.386454 486.139662 
L 640.541833 486.709529 
L 643.697211 486.710827 
L 646.85259 486.906122 
L 653.163347 487.644449 
L 656.318725 488.042573 
L 662.629482 489.107689 
L 665.784861 489.166445 
L 668.940239 489.456567 
L 672.095618 489.500846 
L 678.406375 489.198916 
L 681.561753 489.131964 
L 687.87251 487.986409 
L 697.338645 485.846665 
L 706.804781 483.290621 
L 716.270916 480.656612 
L 722.581673 478.553295 
L 725.737052 477.676056 
L 735.203187 473.626108 
L 741.513944 471.42157 
L 747.824701 469.765105 
L 754.135458 468.201728 
L 760.446215 466.538896 
L 773.067729 464.373488 
L 776.223108 464.05545 
L 779.378486 464.063161 
L 785.689243 464.723414 
L 788.844622 465.122298 
L 788.844622 465.122298 
" clip-path="url(#p2eaf0d3179)" style="fill: none; stroke: #000000; stroke-width: 1.5; stroke-linecap: square"/>
   </g>
   <g id="line2d_6">
    <path d="M 0 459 
L 3.155378 459 
L 6.310757 456.451965 
L 9.466135 455.150719 
L 12.621514 452.128908 
L 15.776892 454.362221 
L 18.932271 458.101166 
L 22.087649 459.027455 
L 25.243028 459.156487 
L 28.398406 459.115046 
L 37.864542 458.302656 
L 41.01992 458.267922 
L 44.175299 458.568698 
L 47.330677 457.475183 
L 50.486056 455.293464 
L 53.641434 454.237051 
L 63.10757 451.910949 
L 66.262948 450.855223 
L 72.573705 450.997383 
L 75.729084 451.811632 
L 78.884462 454.585025 
L 82.039841 457.655842 
L 85.195219 459.473173 
L 91.505976 461.31036 
L 97.816733 462.950231 
L 100.972112 463.707533 
L 104.12749 464.279478 
L 107.282869 464.644608 
L 119.904382 465.194387 
L 126.215139 465.19123 
L 132.525896 465.056015 
L 145.14741 465.614514 
L 154.613546 466.805329 
L 160.924303 467.707898 
L 164.079681 467.945884 
L 167.23506 468.33705 
L 170.390438 468.952317 
L 179.856574 470.358977 
L 186.167331 471.592334 
L 192.478088 472.348627 
L 201.944223 473.58984 
L 208.25498 473.797133 
L 211.410359 473.833895 
L 239.808765 475.262003 
L 249.2749 476.083106 
L 255.585657 476.985336 
L 268.207171 478.182825 
L 271.36255 478.438142 
L 277.673307 478.5324 
L 280.828685 478.437224 
L 283.984064 478.462615 
L 293.450199 479.33647 
L 309.227092 480.995897 
L 312.38247 481.085369 
L 321.848606 481.945972 
L 337.625498 483.795529 
L 343.936255 484.212635 
L 350.247012 484.671003 
L 362.868526 484.843642 
L 369.179283 484.576968 
L 384.956175 484.500446 
L 388.111554 484.599621 
L 391.266932 484.871775 
L 410.199203 488.085753 
L 419.665339 489.38182 
L 432.286853 489.824216 
L 460.685259 491.422021 
L 463.840637 491.79297 
L 466.996016 491.940396 
L 470.151394 491.956711 
L 476.462151 491.371642 
L 482.772908 490.652498 
L 489.083665 490.120814 
L 495.394422 489.447135 
L 501.705179 488.635407 
L 508.015936 487.962181 
L 520.63745 486.531458 
L 530.103586 484.799463 
L 536.414343 483.625731 
L 542.7251 482.589832 
L 545.880478 482.187162 
L 558.501992 481.145424 
L 567.968127 480.873612 
L 577.434263 480.734385 
L 583.74502 480.782006 
L 590.055777 480.518749 
L 593.211155 480.315144 
L 612.143426 480.643705 
L 615.298805 480.805851 
L 618.454183 481.09259 
L 624.76494 482.117498 
L 627.920319 482.713126 
L 634.231076 483.59707 
L 637.386454 484.101922 
L 640.541833 484.481825 
L 646.85259 484.771662 
L 656.318725 485.639124 
L 662.629482 486.398048 
L 665.784861 486.545533 
L 668.940239 486.806567 
L 672.095618 486.942907 
L 684.717131 486.873093 
L 691.027888 486.343645 
L 700.494024 485.252462 
L 709.960159 483.83672 
L 713.115538 483.3847 
L 725.737052 480.945409 
L 741.513944 476.832007 
L 760.446215 472.848037 
L 773.067729 470.667549 
L 776.223108 470.237468 
L 779.378486 469.978831 
L 785.689243 469.830037 
L 788.844622 469.816377 
L 788.844622 469.816377 
" clip-path="url(#p2eaf0d3179)" style="fill: none; stroke: #000000; stroke-width: 1.5; stroke-linecap: square"/>
   </g>
   <g id="line2d_7">
    <path d="M 0 459 
L 3.155378 459 
L 6.310757 456.478968 
L 9.466135 455.19581 
L 12.621514 452.256376 
L 15.776892 454.371411 
L 18.932271 457.91892 
L 22.087649 458.868732 
L 25.243028 459.085888 
L 28.398406 459.056249 
L 34.709163 458.375503 
L 41.01992 458.232643 
L 44.175299 458.499801 
L 47.330677 457.553083 
L 50.486056 455.664992 
L 53.641434 454.735753 
L 63.10757 452.670447 
L 66.262948 451.753719 
L 72.573705 451.773726 
L 75.729084 452.388953 
L 78.884462 454.57672 
L 82.039841 457.012872 
L 85.195219 459.073024 
L 94.661355 461.247676 
L 100.972112 462.50047 
L 104.12749 462.981622 
L 107.282869 463.307881 
L 123.059761 463.981107 
L 135.681275 464.123901 
L 148.302789 464.823674 
L 170.390438 467.140286 
L 179.856574 468.236798 
L 186.167331 469.167012 
L 195.633466 470.147994 
L 201.944223 470.811807 
L 214.565737 471.362295 
L 220.876494 471.671103 
L 249.2749 473.394869 
L 258.741036 474.333229 
L 271.36255 475.311869 
L 277.673307 475.523514 
L 283.984064 475.630811 
L 299.760956 476.833188 
L 306.071713 477.444714 
L 328.159363 479.136476 
L 334.47012 479.713584 
L 340.780876 480.167282 
L 350.247012 480.832561 
L 362.868526 481.279637 
L 372.334661 481.358808 
L 384.956175 481.615064 
L 391.266932 481.947932 
L 416.50996 484.79088 
L 419.665339 485.094575 
L 441.752988 486.220127 
L 466.996016 487.792005 
L 470.151394 487.889611 
L 479.61753 487.628055 
L 498.549801 486.97347 
L 523.792829 485.622129 
L 545.880478 483.577787 
L 561.657371 482.80157 
L 577.434263 482.459659 
L 583.74502 482.410116 
L 602.677291 482.000973 
L 615.298805 482.073524 
L 621.609562 482.402741 
L 637.386454 483.668447 
L 640.541833 483.87102 
L 646.85259 484.045283 
L 656.318725 484.541523 
L 662.629482 484.978941 
L 681.561753 485.510062 
L 691.027888 485.237605 
L 700.494024 484.743169 
L 713.115538 483.810026 
L 725.737052 482.500589 
L 754.135458 478.532513 
L 766.756972 476.882492 
L 776.223108 475.781256 
L 782.533865 475.36232 
L 788.844622 475.100014 
L 788.844622 475.100014 
" clip-path="url(#p2eaf0d3179)" style="fill: none; stroke: #000000; stroke-width: 1.5; stroke-linecap: square"/>
   </g>
   <g id="line2d_8">
    <path d="M 0 459 
L 3.155378 459 
L 6.310757 456.492473 
L 9.466135 455.218437 
L 12.621514 452.319979 
L 15.776892 454.377427 
L 18.932271 457.830911 
L 22.087649 458.76399 
L 25.243028 459.050799 
L 28.398406 459.026452 
L 34.709163 458.339341 
L 41.01992 458.209958 
L 44.175299 458.461404 
L 47.330677 457.583681 
L 50.486056 455.834304 
L 53.641434 454.967736 
L 63.10757 453.036743 
L 66.262948 452.189383 
L 72.573705 452.165193 
L 75.729084 452.694548 
L 78.884462 454.619427 
L 82.039841 456.766335 
L 85.195219 458.713747 
L 88.350598 459.575673 
L 97.816733 461.388454 
L 100.972112 461.938596 
L 104.12749 462.369807 
L 107.282869 462.668704 
L 123.059761 463.34055 
L 135.681275 463.530662 
L 148.302789 464.163869 
L 173.545817 466.428858 
L 183.011952 467.456117 
L 186.167331 467.837354 
L 198.788845 468.982922 
L 205.099602 469.396993 
L 227.187251 470.392611 
L 249.2749 471.616602 
L 261.896414 472.604981 
L 271.36255 473.219828 
L 277.673307 473.441223 
L 283.984064 473.587316 
L 299.760956 474.592336 
L 309.227092 475.277097 
L 315.537849 475.601311 
L 325.003984 476.243757 
L 337.625498 477.188144 
L 362.868526 478.386141 
L 375.49004 478.631638 
L 391.266932 479.183312 
L 419.665339 481.560143 
L 451.219124 483.070428 
L 470.151394 484.070339 
L 482.772908 484.051383 
L 504.860558 483.857096 
L 523.792829 483.424658 
L 549.035857 482.306156 
L 571.123506 481.908611 
L 605.832669 481.650101 
L 615.298805 481.700976 
L 621.609562 481.895839 
L 640.541833 482.774385 
L 650.007968 482.993714 
L 675.250996 483.794727 
L 684.717131 483.884242 
L 697.338645 483.671743 
L 713.115538 483.117656 
L 725.737052 482.425696 
L 776.223108 478.537255 
L 785.689243 478.138754 
L 788.844622 478.039796 
L 788.844622 478.039796 
" clip-path="url(#p2eaf0d3179)" style="fill: none; stroke: #000000; stroke-width: 1.5; stroke-linecap: square"/>
   </g>
   <g id="line2d_9">
    <path d="M 0 459 
L 3.155378 459 
L 6.310757 456.499225 
L 9.466135 455.22977 
L 12.621514 452.351742 
L 15.776892 454.380787 
L 18.932271 457.7877 
L 22.087649 458.712179 
L 25.243028 459.033327 
L 28.398406 459.011479 
L 34.709163 458.320164 
L 41.01992 458.197366 
L 44.175299 458.441221 
L 47.330677 457.596849 
L 50.486056 455.914669 
L 53.641434 455.079027 
L 63.10757 453.215533 
L 66.262948 452.402552 
L 72.573705 452.360119 
L 75.729084 452.84993 
L 78.884462 454.651212 
L 82.039841 456.661261 
L 85.195219 458.485309 
L 88.350598 459.456931 
L 97.816733 461.155557 
L 104.12749 462.077035 
L 107.282869 462.360944 
L 123.059761 463.021025 
L 138.836653 463.365092 
L 145.14741 463.591995 
L 157.768924 464.597165 
L 164.079681 465.040637 
L 170.390438 465.627503 
L 179.856574 466.468253 
L 186.167331 467.161312 
L 208.25498 468.708105 
L 220.876494 469.234945 
L 249.2749 470.648075 
L 261.896414 471.523966 
L 274.517928 472.200426 
L 287.139442 472.610564 
L 299.760956 473.328701 
L 309.227092 473.926591 
L 318.693227 474.389463 
L 353.40239 476.359182 
L 362.868526 476.683988 
L 378.645418 477.043429 
L 391.266932 477.463228 
L 419.665339 479.432293 
L 457.52988 481.064128 
L 470.151394 481.640153 
L 489.083665 481.765812 
L 504.860558 481.729082 
L 523.792829 481.5355 
L 552.191235 480.834887 
L 571.123506 480.677718 
L 612.143426 480.635872 
L 621.609562 480.815836 
L 640.541833 481.462917 
L 653.163347 481.725875 
L 678.406375 482.30837 
L 687.87251 482.34976 
L 703.649402 482.161615 
L 722.581673 481.643883 
L 728.89243 481.388966 
L 750.98008 480.299674 
L 779.378486 478.968715 
L 788.844622 478.745279 
L 788.844622 478.745279 
" clip-path="url(#p2eaf0d3179)" style="fill: none; stroke: #000000; stroke-width: 1.5; stroke-linecap: square"/>
   </g>
  </g>
 </g>
 <defs>
  <clipPath id="p2eaf0d3179">
   <rect x="0" y="0" width="792" height="612"/>
  </clipPath>
 </defs>
</svg>
