<?xml version="1.0" encoding="utf-8" standalone="no"?>
<!DOCTYPE svg PUBLIC "-//W3C//DTD SVG 1.1//EN"
  "http://www.w3.org/Graphics/SVG/1.1/DTD/svg11.dtd">
<svg xmlns:xlink="http://www.w3.org/1999/xlink" width="792pt" height="612pt" viewBox="0 0 792 612" xmlns="http://www.w3.org/2000/svg" version="1.1">
 <metadata>
  <rdf:RDF xmlns:dc="http://purl.org/dc/elements/1.1/" xmlns:cc="http://creativecommons.org/ns#" xmlns:rdf="http://www.w3.org/1999/02/22-rdf-syntax-ns#">
   <cc:Work>
    <dc:type rdf:resource="http://purl.org/dc/dcmitype/StillImage"/>
    <dc:date>2022-12-26T20:27:38.459659</dc:date>
    <dc:format>image/svg+xml</dc:format>
    <dc:creator>
     <cc:Agent>
      <dc:title>Matplotlib v3.6.2, https://matplotlib.org/</dc:title>
     </cc:Agent>
    </dc:creator>
   </cc:Work>
  </rdf:RDF>
 </metadata>
 <defs>
  <style type="text/css">*{stroke-linejoin: round; stroke-linecap: butt}</style>
 </defs>
 <g id="figure_1">
  <g id="patch_1">
   <path d="M 0 612 
L 792 612 
L 792 0 
L 0 0 
z
" style="fill: #ffffff"/>
  </g>
  <g id="axes_1">
   <g id="line2d_1">
    <path d="M 0 459 
L 3.142857 459.169544 
L 6.285714 459.725492 
L 9.428571 459.993609 
L 12.571429 461.164648 
L 15.714286 450.377908 
L 18.857143 436.024269 
L 22 446.47654 
L 25.142857 448.486145 
L 28.285714 447.800466 
L 31.428571 445.838291 
L 34.571429 441.254005 
L 37.714286 456.314921 
L 40.857143 455.73534 
L 44 461.799454 
L 47.142857 472.26389 
L 50.285714 475.055458 
L 53.428571 474.747913 
L 56.571429 476.399985 
L 59.714286 476.605015 
L 62.857143 477.330507 
L 66 476.88496 
L 69.142857 477.535538 
L 72.285714 475.177688 
L 75.428571 472.153489 
L 78.571429 468.455056 
L 81.714286 468.849345 
L 84.857143 470.497474 
L 88 467.059272 
L 91.142857 466.842413 
L 94.285714 466.073549 
L 97.428571 464.326848 
L 100.571429 465.888233 
L 103.714286 468.849345 
L 106.857143 469.961241 
L 110 468.502371 
L 113.142857 470.036156 
L 116.285714 474.369395 
L 119.428571 475.560148 
L 122.571429 476.25804 
L 125.714286 477.472451 
L 128.857143 477.866741 
L 132 473.951448 
L 135.142857 477.433022 
L 138.285714 482.594269 
L 141.428571 479.368983 
L 144.571429 480.536079 
L 147.714286 482.014663 
L 150.857143 485.082234 
L 154 485.287264 
L 157.142857 480.46905 
L 160.285714 481.923977 
L 163.428571 483.067416 
L 166.571429 483.86388 
L 169.714286 482.215751 
L 172.857143 477.641996 
L 176 476.65233 
L 179.142857 475.820379 
L 182.285714 478.335945 
L 185.428571 476.754845 
L 188.571429 479.672585 
L 191.714286 479.428126 
L 194.857143 478.931322 
L 198 479.794815 
L 201.142857 478.075714 
L 204.285714 479.680471 
L 207.428571 481.845119 
L 210.571429 481.797804 
L 213.714286 482.590326 
L 216.857143 484.266055 
L 220 487.302082 
L 223.142857 488.134033 
L 226.285714 485.279378 
L 229.428571 485.527781 
L 232.571429 485.914184 
L 235.714286 485.050691 
L 238.857143 485.180806 
L 242 481.931863 
L 245.142857 479.538527 
L 248.285714 477.523709 
L 251.428571 480.189104 
L 254.571429 485.918127 
L 257.714286 485.26755 
L 260.857143 488.54015 
L 264 488.496779 
L 267.142857 486.45436 
L 270.285714 491.548577 
L 273.428571 489.604731 
L 276.571429 487.932945 
L 279.714286 484.206912 
L 282.857143 488.559865 
L 286 488.603237 
L 292.285714 491.718122 
L 295.428571 493.102077 
L 298.571429 493.945856 
L 301.714286 490.957144 
L 304.857143 492.35687 
L 308 488.599294 
L 311.142857 491.059659 
L 314.285714 490.480054 
L 317.428571 491.032059 
L 320.571429 487.164081 
L 323.714286 488.21289 
L 326.857143 487.838316 
L 330 484.39617 
L 333.142857 482.444439 
L 336.285714 483.126559 
L 339.428571 485.098005 
L 342.571429 484.151711 
L 345.714286 486.347902 
L 348.857143 485.626353 
L 352 485.232064 
L 355.142857 487.925059 
L 358.285714 492.049325 
L 361.428571 498.8311 
L 364.571429 500.28997 
L 367.714286 500.597516 
L 370.857143 497.628518 
L 377.142857 501.681811 
L 380.285714 499.702479 
L 383.428571 499.808937 
L 386.571429 499.166246 
L 389.714286 492.62893 
L 392.857143 493.40568 
L 396 493.914313 
L 399.142857 492.419957 
L 402.285714 494.888207 
L 405.428571 494.016828 
L 408.571429 494.817235 
L 411.714286 496.17359 
L 414.857143 494.26523 
L 418 495.105066 
L 421.142857 496.402278 
L 424.285714 496.658566 
L 427.428571 497.596975 
L 430.571429 500.972091 
L 433.714286 496.130219 
L 436.857143 493.216421 
L 440 486.596305 
L 443.142857 485.255721 
L 446.285714 483.248789 
L 449.428571 484.277884 
L 452.571429 484.202969 
L 455.714286 486.39916 
L 458.857143 484.037367 
L 465.142857 480.547907 
L 468.285714 481.064426 
L 471.428571 482.720441 
L 474.571429 480.634651 
L 477.714286 481.147227 
L 480.857143 480.043217 
L 484 480.039274 
L 487.142857 479.274353 
L 490.285714 474.822828 
L 493.428571 473.336357 
L 499.714286 471.692171 
L 502.857143 472.039145 
L 506 472.524121 
L 509.142857 472.216576 
L 512.285714 474.286594 
L 515.428571 476.987476 
L 518.571429 477.870683 
L 521.714286 477.176734 
L 524.857143 475.382718 
L 528 479.361097 
L 531.142857 480.338934 
L 534.285714 480.453278 
L 537.428571 480.831796 
L 540.571429 480.504536 
L 543.714286 481.301 
L 546.857143 483.268503 
L 550 481.663746 
L 556.285714 477.902227 
L 559.428571 476.924389 
L 562.571429 482.519354 
L 565.714286 482.964901 
L 568.857143 481.245799 
L 572 483.378904 
L 575.142857 482.412896 
L 578.285714 484.542058 
L 581.428571 485.547495 
L 584.571429 488.619008 
L 587.714286 492.936476 
L 590.857143 495.834502 
L 594 497.111999 
L 597.142857 493.401737 
L 600.285714 495.247011 
L 603.428571 496.453536 
L 606.571429 494.048371 
L 609.714286 487.850144 
L 612.857143 490.164622 
L 616 491.871895 
L 619.142857 493.287393 
L 622.285714 493.500309 
L 625.428571 495.99616 
L 628.571429 495.562442 
L 631.714286 490.9256 
L 634.857143 493.717168 
L 638 491.067545 
L 641.142857 488.252319 
L 644.285714 489.076384 
L 647.428571 489.450959 
L 650.571429 483.816565 
L 660 479.641042 
L 663.142857 479.053551 
L 666.285714 477.224049 
L 669.428571 476.163411 
L 672.571429 474.558654 
L 675.714286 474.081564 
L 678.857143 474.44431 
L 682 470.879935 
L 685.142857 469.04649 
L 688.285714 468.470828 
L 691.428571 469.267292 
L 694.571429 462.836434 
L 697.714286 460.13161 
L 700.857143 461.239563 
L 704 461.034533 
L 707.142857 461.251392 
L 710.285714 462.256829 
L 713.428571 462.485517 
L 716.571429 462.087285 
L 719.714286 460.644186 
L 722.857143 459.705778 
L 726 458.03005 
L 729.142857 461.239563 
L 732.285714 460.707272 
L 735.428571 459.745207 
L 738.571429 460.667844 
L 741.714286 461.941398 
L 748 468.908489 
L 751.142857 470.087414 
L 754.285714 470.812906 
L 757.428571 470.394959 
L 760.571429 468.802031 
L 763.714286 466.629497 
L 766.857143 469.906041 
L 770 474.065792 
L 773.142857 475.437919 
L 776.285714 476.123982 
L 779.428571 476.171297 
L 782.571429 473.935677 
L 785.714286 475.741521 
L 788.857143 475.769122 
L 788.857143 475.769122 
" clip-path="url(#p79f86112bf)" style="fill: none; stroke: #000000; stroke-width: 1.5; stroke-linecap: square"/>
   </g>
   <g id="line2d_2">
    <path d="M 0 459 
L 3.142857 459 
L 6.285714 459.11303 
L 12.571429 459.745995 
L 15.714286 460.478203 
L 18.857143 456.802136 
L 22 446.32493 
L 25.142857 446.401032 
L 28.285714 447.422923 
L 31.428571 447.588745 
L 34.571429 446.683413 
L 37.714286 443.927568 
L 40.857143 450.101636 
L 44 452.928764 
L 50.285714 465.870297 
L 53.428571 470.501232 
L 56.571429 472.662772 
L 59.714286 474.574101 
L 62.857143 475.635682 
L 66 476.520792 
L 69.142857 476.740078 
L 72.285714 477.168663 
L 75.428571 476.178889 
L 78.571429 474.160499 
L 81.714286 471.295439 
L 84.857143 470.057587 
L 88 470.265555 
L 91.142857 468.642274 
L 97.428571 466.875626 
L 100.571429 465.579961 
L 103.714286 465.721812 
L 106.857143 467.286352 
L 110 468.625977 
L 113.142857 468.560262 
L 116.285714 469.304046 
L 119.428571 471.851479 
L 122.571429 473.724415 
L 128.857143 476.266251 
L 132 477.084177 
L 135.142857 475.525637 
L 138.285714 476.496841 
L 141.428571 479.570178 
L 144.571429 479.479384 
L 147.714286 480.017488 
L 150.857143 481.027363 
L 154 483.06972 
L 157.142857 484.193042 
L 160.285714 482.343825 
L 163.428571 482.142707 
L 166.571429 482.605989 
L 169.714286 483.243748 
L 172.857143 482.733043 
L 176 480.178945 
L 179.142857 478.399108 
L 182.285714 477.091181 
L 185.428571 477.70938 
L 188.571429 477.221977 
L 191.714286 478.440625 
L 194.857143 478.925678 
L 198 478.92206 
L 201.142857 479.362658 
L 204.285714 478.721977 
L 207.428571 479.208793 
L 210.571429 480.533837 
L 216.857143 481.888738 
L 220 483.086883 
L 223.142857 485.210896 
L 226.285714 486.688816 
L 229.428571 485.998222 
L 232.571429 485.774467 
L 235.714286 485.852304 
L 238.857143 485.457875 
L 242 485.32442 
L 245.142857 483.623565 
L 251.428571 479.523961 
L 254.571429 479.846552 
L 257.714286 482.883105 
L 260.857143 484.074059 
L 264 486.313947 
L 267.142857 487.411865 
L 270.285714 486.94198 
L 273.428571 489.268828 
L 276.571429 489.460468 
L 279.714286 488.711891 
L 282.857143 486.456046 
L 286 487.514411 
L 289.142857 488.058948 
L 292.285714 489.136826 
L 298.571429 491.772982 
L 301.714286 492.867931 
L 304.857143 491.918467 
L 308 492.153649 
L 311.142857 490.376549 
L 314.285714 490.72292 
L 317.428571 490.60202 
L 320.571429 490.815694 
L 323.714286 488.978245 
L 330 488.205206 
L 336.285714 484.35269 
L 339.428571 483.72407 
L 342.571429 484.400484 
L 345.714286 484.262607 
L 348.857143 485.303654 
L 352 485.459932 
L 355.142857 485.340888 
L 358.285714 486.639893 
L 361.428571 489.363442 
L 364.571429 494.128064 
L 367.714286 497.238805 
L 370.857143 498.950407 
L 374 498.311581 
L 377.142857 499.000984 
L 380.285714 500.373652 
L 383.428571 500.061159 
L 386.571429 499.950263 
L 389.714286 499.558911 
L 392.857143 496.078899 
L 396 494.728188 
L 399.142857 494.313968 
L 402.285714 493.352814 
L 405.428571 494.10719 
L 408.571429 494.050861 
L 411.714286 494.42426 
L 414.857143 495.293057 
L 418 494.782352 
L 421.142857 494.947042 
L 424.285714 495.679538 
L 427.428571 496.177363 
L 430.571429 496.89248 
L 433.714286 498.945923 
L 436.857143 497.540645 
L 440 495.372735 
L 443.142857 490.969483 
L 446.285714 488.093289 
L 449.428571 485.645248 
L 452.571429 484.93729 
L 455.714286 484.543867 
L 458.857143 485.442939 
L 462 484.716442 
L 465.142857 483.454422 
L 468.285714 481.989305 
L 471.428571 481.518648 
L 474.571429 482.118508 
L 477.714286 481.369436 
L 480.857143 481.25234 
L 484 480.635316 
L 487.142857 480.329456 
L 490.285714 479.796098 
L 493.428571 477.298237 
L 496.571429 475.302144 
L 499.714286 473.877306 
L 502.857143 472.767204 
L 506 472.385316 
L 509.142857 472.439975 
L 512.285714 472.312937 
L 515.428571 473.289986 
L 518.571429 475.142975 
L 521.714286 476.51572 
L 524.857143 476.855412 
L 528 476.126301 
L 531.142857 477.758056 
L 534.285714 479.063818 
L 537.428571 479.774698 
L 540.571429 480.316081 
L 543.714286 480.417204 
L 546.857143 480.865828 
L 550 482.07911 
L 553.142857 481.883744 
L 556.285714 480.824296 
L 559.428571 479.358484 
L 562.571429 478.134517 
L 565.714286 480.330244 
L 568.857143 481.652397 
L 572 481.44899 
L 575.142857 482.414163 
L 578.285714 482.414998 
L 584.571429 484.532687 
L 587.714286 486.598778 
L 594 492.836512 
L 597.142857 495.005365 
L 600.285714 494.223204 
L 603.428571 494.760272 
L 606.571429 495.63026 
L 609.714286 494.855984 
L 612.857143 491.351557 
L 616 490.752654 
L 619.142857 491.304505 
L 622.285714 492.28845 
L 625.428571 492.894573 
L 628.571429 494.446835 
L 631.714286 495.002891 
L 634.857143 492.958123 
L 638 493.34915 
L 641.142857 492.210118 
L 644.285714 490.224121 
L 647.428571 489.641996 
L 650.571429 489.538537 
L 653.714286 486.65367 
L 656.857143 484.499583 
L 660 482.699335 
L 663.142857 481.142588 
L 666.285714 480.074513 
L 669.428571 478.627657 
L 672.571429 477.370214 
L 675.714286 475.935233 
L 678.857143 474.98931 
L 682 474.701216 
L 688.285714 470.887898 
L 691.428571 469.658613 
L 694.571429 469.447351 
L 697.714286 466.115761 
L 700.857143 463.095397 
L 704 462.1423 
L 707.142857 461.562122 
L 710.285714 461.387878 
L 716.571429 462.135543 
L 719.714286 462.097335 
L 726 460.535285 
L 729.142857 459.600959 
L 732.285714 460.420663 
L 735.428571 460.562901 
L 738.571429 460.149129 
L 741.714286 460.404922 
L 744.857143 461.172874 
L 748 463.348856 
L 751.142857 466.146717 
L 754.285714 468.139439 
L 757.428571 469.494944 
L 760.571429 469.963947 
L 763.714286 469.400747 
L 766.857143 468.026812 
L 770 468.982043 
L 773.142857 471.540702 
L 776.285714 473.502113 
L 779.428571 474.824884 
L 782.571429 475.508597 
L 785.714286 474.729079 
L 788.857143 475.248907 
L 788.857143 475.248907 
" clip-path="url(#p79f86112bf)" style="fill: none; stroke: #000000; stroke-width: 1.5; stroke-linecap: square"/>
   </g>
   <g id="line2d_3">
    <path d="M 0 459 
L 6.285714 459.099317 
L 12.571429 459.621473 
L 15.714286 460.170517 
L 18.857143 458.449655 
L 22 451.239131 
L 25.142857 449.750977 
L 31.428571 448.890815 
L 34.571429 447.976443 
L 37.714286 445.975608 
L 40.857143 449.036849 
L 44 451.013927 
L 47.142857 455.838955 
L 50.285714 462.156272 
L 53.428571 465.952797 
L 56.571429 468.54672 
L 59.714286 470.86604 
L 62.857143 472.566027 
L 66 473.980079 
L 72.285714 475.670024 
L 75.428571 475.5492 
L 78.571429 474.573753 
L 81.714286 472.796777 
L 84.857143 471.656955 
L 88 471.337355 
L 91.142857 470.094618 
L 97.428571 468.255483 
L 100.571429 467.095696 
L 103.714286 466.731509 
L 106.857143 467.345034 
L 110 468.103908 
L 113.142857 468.211308 
L 116.285714 468.737415 
L 119.428571 470.384095 
L 122.571429 471.897857 
L 128.857143 474.440628 
L 132 475.454923 
L 135.142857 475.020426 
L 138.285714 475.735025 
L 141.428571 477.761895 
L 144.571429 478.246988 
L 147.714286 478.934059 
L 150.857143 479.856663 
L 154 481.409244 
L 157.142857 482.56397 
L 160.285714 481.962451 
L 163.428571 481.966599 
L 166.571429 482.303988 
L 169.714286 482.771775 
L 172.857143 482.616564 
L 176 481.161136 
L 179.142857 479.839595 
L 182.285714 478.660044 
L 185.428571 478.570153 
L 188.571429 478.037683 
L 191.714286 478.513179 
L 194.857143 478.781229 
L 198 478.823347 
L 201.142857 479.105333 
L 204.285714 478.795717 
L 207.428571 479.048416 
L 210.571429 479.869132 
L 216.857143 481.064942 
L 220 482.002988 
L 223.142857 483.560899 
L 226.285714 484.91239 
L 232.571429 485.186796 
L 235.714286 485.408548 
L 242 485.280794 
L 245.142857 484.30279 
L 248.285714 482.908067 
L 251.428571 481.328417 
L 254.571429 480.997147 
L 257.714286 482.445633 
L 260.857143 483.276085 
L 264 484.825638 
L 267.142857 485.907674 
L 270.285714 486.070308 
L 273.428571 487.679734 
L 276.571429 488.245242 
L 279.714286 488.15682 
L 282.857143 486.998402 
L 286 487.458782 
L 289.142857 487.798066 
L 292.285714 488.509692 
L 295.428571 489.46066 
L 301.714286 491.558384 
L 304.857143 491.394653 
L 308 491.683876 
L 311.142857 490.784249 
L 314.285714 490.867809 
L 317.428571 490.756516 
L 320.571429 490.842478 
L 323.714286 489.760065 
L 330 488.875528 
L 333.142857 487.563772 
L 336.285714 486.05733 
L 339.428571 485.192636 
L 342.571429 485.15905 
L 345.714286 484.855317 
L 348.857143 485.284727 
L 352 485.375231 
L 355.142857 485.326723 
L 358.285714 486.082667 
L 361.428571 487.834224 
L 364.571429 491.06406 
L 367.714286 493.777534 
L 370.857143 495.786048 
L 374 496.337714 
L 377.142857 497.316719 
L 380.285714 498.611125 
L 386.571429 499.220359 
L 389.714286 499.222933 
L 392.857143 497.300244 
L 396 496.170182 
L 399.142857 495.518144 
L 402.285714 494.618509 
L 405.428571 494.708593 
L 408.571429 494.512977 
L 411.714286 494.605271 
L 414.857143 495.061569 
L 418 494.821407 
L 421.142857 494.89818 
L 430.571429 496.265683 
L 433.714286 497.645616 
L 436.857143 497.197541 
L 440 496.024664 
L 443.142857 493.256232 
L 449.428571 488.64929 
L 452.571429 487.359583 
L 455.714286 486.422759 
L 458.857143 486.407097 
L 462 485.700638 
L 465.142857 484.669703 
L 468.285714 483.446701 
L 471.428571 482.732822 
L 474.571429 482.713481 
L 477.714286 482.086201 
L 480.857143 481.792287 
L 484 481.255958 
L 490.285714 480.394493 
L 496.571429 477.15003 
L 499.714286 475.77354 
L 502.857143 474.563678 
L 506 473.810288 
L 512.285714 473.05228 
L 515.428571 473.404672 
L 521.714286 475.4482 
L 524.857143 475.948108 
L 528 475.776477 
L 534.285714 477.854078 
L 540.571429 479.266668 
L 543.714286 479.635757 
L 546.857143 480.132644 
L 550 481.063493 
L 553.142857 481.250756 
L 556.285714 480.823954 
L 562.571429 479.086464 
L 565.714286 480.10139 
L 568.857143 480.946959 
L 572 481.038364 
L 575.142857 481.731016 
L 578.285714 481.938809 
L 584.571429 483.545109 
L 587.714286 485.040599 
L 590.857143 487.367151 
L 594 489.864789 
L 597.142857 492.005608 
L 600.285714 492.426164 
L 606.571429 494.220173 
L 609.714286 494.188399 
L 612.857143 492.344516 
L 616 491.714821 
L 619.142857 491.771058 
L 625.428571 492.612993 
L 628.571429 493.619501 
L 631.714286 494.201233 
L 634.857143 493.248 
L 638 493.391272 
L 641.142857 492.708521 
L 644.285714 491.394621 
L 647.428571 490.706395 
L 650.571429 490.334149 
L 653.714286 488.412064 
L 660 484.950826 
L 663.142857 483.386197 
L 666.285714 482.104432 
L 672.571429 479.322022 
L 675.714286 477.905107 
L 678.857143 476.760046 
L 682 476.057526 
L 688.285714 472.88711 
L 691.428571 471.567656 
L 694.571429 470.872089 
L 700.857143 466.007049 
L 704 464.584753 
L 707.142857 463.52038 
L 710.285714 462.833196 
L 713.428571 462.644415 
L 719.714286 462.417484 
L 722.857143 461.880272 
L 729.142857 460.461852 
L 732.285714 460.674472 
L 735.428571 460.672394 
L 738.571429 460.390144 
L 741.714286 460.462518 
L 744.857143 460.887257 
L 748 462.243055 
L 751.142857 464.205397 
L 754.285714 465.938362 
L 757.428571 467.377314 
L 760.571429 468.271664 
L 763.714286 468.434523 
L 766.857143 467.910603 
L 770 468.504034 
L 776.285714 471.71577 
L 779.428571 473.026946 
L 782.571429 473.965055 
L 785.714286 473.971645 
L 788.857143 474.508403 
L 788.857143 474.508403 
" clip-path="url(#p79f86112bf)" style="fill: none; stroke: #000000; stroke-width: 1.5; stroke-linecap: square"/>
   </g>
   <g id="line2d_4">
    <path d="M 0 459 
L 6.285714 459.092099 
L 12.571429 459.548449 
L 15.714286 459.992142 
L 18.857143 459.040515 
L 22 453.887765 
L 25.142857 452.315208 
L 34.571429 449.888966 
L 37.714286 448.318189 
L 40.857143 449.739606 
L 44 450.785872 
L 47.142857 453.640719 
L 50.285714 459.767702 
L 53.428571 462.334964 
L 59.714286 466.383955 
L 62.857143 468.06262 
L 66 469.576968 
L 72.285714 471.863424 
L 75.428571 472.399106 
L 78.571429 472.359507 
L 81.714286 471.731355 
L 84.857143 471.268517 
L 88 471.144875 
L 100.571429 468.50073 
L 103.714286 468.08937 
L 106.857143 468.216324 
L 110 468.500333 
L 113.142857 468.505966 
L 116.285714 468.75496 
L 132 473.355309 
L 135.142857 473.462223 
L 138.285714 474.109185 
L 141.428571 475.474472 
L 147.714286 476.823785 
L 150.857143 477.655757 
L 154 478.843592 
L 157.142857 479.875379 
L 160.285714 479.972373 
L 163.428571 480.286199 
L 169.714286 481.234883 
L 172.857143 481.393863 
L 179.142857 480.141607 
L 182.285714 479.45868 
L 185.428571 479.285967 
L 188.571429 478.887161 
L 194.857143 479.092783 
L 198 479.075116 
L 201.142857 479.199274 
L 204.285714 479.028115 
L 207.428571 479.138665 
L 220 480.994486 
L 226.285714 482.987875 
L 235.714286 484.066004 
L 242 484.380724 
L 245.142857 483.992701 
L 248.285714 483.283403 
L 251.428571 482.364213 
L 254.571429 482.015092 
L 257.714286 482.636473 
L 260.857143 483.058081 
L 264 483.934426 
L 267.142857 484.6637 
L 270.285714 484.950217 
L 273.428571 486.005863 
L 276.571429 486.58592 
L 279.714286 486.807275 
L 282.857143 486.39878 
L 292.285714 487.560203 
L 295.428571 488.229411 
L 301.714286 489.807094 
L 304.857143 489.998108 
L 308 490.381305 
L 311.142857 490.101995 
L 314.285714 490.260141 
L 320.571429 490.420739 
L 323.714286 489.902507 
L 330 489.349672 
L 333.142857 488.560846 
L 336.285714 487.585539 
L 339.428571 486.874898 
L 345.714286 486.205241 
L 348.857143 486.232188 
L 355.142857 485.999408 
L 358.285714 486.307038 
L 361.428571 487.224888 
L 367.714286 490.869138 
L 370.857143 492.425782 
L 374 493.257349 
L 377.142857 494.278386 
L 380.285714 495.464876 
L 386.571429 496.738128 
L 389.714286 497.131041 
L 392.857143 496.416249 
L 396 495.93831 
L 399.142857 495.616792 
L 402.285714 495.107212 
L 405.428571 495.07482 
L 408.571429 494.907525 
L 411.714286 494.89704 
L 414.857143 495.103334 
L 418 494.97235 
L 421.142857 494.996007 
L 427.428571 495.458787 
L 430.571429 495.805069 
L 433.714286 496.637503 
L 436.857143 496.565332 
L 440 496.038803 
L 449.428571 491.498197 
L 452.571429 490.348578 
L 455.714286 489.370147 
L 458.857143 488.8965 
L 462 488.118396 
L 465.142857 487.172046 
L 468.285714 486.105804 
L 471.428571 485.291515 
L 474.571429 484.873147 
L 477.714286 484.186931 
L 487.142857 482.598953 
L 490.285714 482.057586 
L 502.857143 477.42348 
L 506 476.552556 
L 512.285714 475.298346 
L 515.428571 475.123716 
L 524.857143 475.998893 
L 528 475.887583 
L 540.571429 478.082645 
L 546.857143 478.913057 
L 550 479.606036 
L 553.142857 479.931794 
L 556.285714 479.902212 
L 562.571429 479.151956 
L 568.857143 480.210789 
L 572 480.375576 
L 575.142857 480.853827 
L 578.285714 481.10299 
L 584.571429 482.275454 
L 587.714286 483.290089 
L 590.857143 484.833388 
L 597.142857 488.284653 
L 600.285714 489.111845 
L 606.571429 491.128347 
L 609.714286 491.606363 
L 612.857143 491.01849 
L 616 490.892543 
L 619.142857 491.057649 
L 625.428571 491.762875 
L 628.571429 492.449267 
L 631.714286 492.954693 
L 634.857143 492.638462 
L 638 492.818364 
L 641.142857 492.546189 
L 644.285714 491.867853 
L 647.428571 491.428572 
L 650.571429 491.117784 
L 656.857143 488.756241 
L 678.857143 480.17894 
L 682 479.260239 
L 691.428571 475.202295 
L 694.571429 474.241439 
L 697.714286 472.405476 
L 700.857143 470.431901 
L 704 468.948149 
L 707.142857 467.666965 
L 710.285714 466.625761 
L 713.428571 465.91468 
L 722.857143 464.130062 
L 729.142857 462.629471 
L 735.428571 462.100824 
L 738.571429 461.704841 
L 741.714286 461.520883 
L 744.857143 461.571372 
L 748 462.182643 
L 757.428571 465.34651 
L 760.571429 466.143158 
L 763.714286 466.559432 
L 766.857143 466.562827 
L 770 467.090179 
L 779.428571 470.42992 
L 782.571429 471.344471 
L 785.714286 471.758647 
L 788.857143 472.396514 
L 788.857143 472.396514 
" clip-path="url(#p79f86112bf)" style="fill: none; stroke: #000000; stroke-width: 1.5; stroke-linecap: square"/>
   </g>
   <g id="line2d_5">
    <path d="M 0 459 
L 6.285714 459.088442 
L 12.571429 459.510472 
L 15.714286 459.900966 
L 18.857143 459.128049 
L 22 455.117309 
L 25.142857 453.682656 
L 34.571429 451.303859 
L 37.714286 450.012963 
L 40.857143 450.786792 
L 44 451.37119 
L 47.142857 453.199635 
L 50.285714 458.244634 
L 53.428571 460.504212 
L 59.714286 463.481502 
L 66 466.045321 
L 72.285714 468.104657 
L 75.428571 468.775551 
L 78.571429 469.092203 
L 84.857143 469.016232 
L 88 469.151089 
L 97.428571 468.531756 
L 100.571429 468.1595 
L 103.714286 467.959533 
L 113.142857 468.231031 
L 116.285714 468.387177 
L 122.571429 469.474864 
L 132 471.301437 
L 135.142857 471.526808 
L 138.285714 472.028076 
L 141.428571 472.923165 
L 147.714286 474.065038 
L 150.857143 474.735298 
L 157.142857 476.420694 
L 163.428571 477.1941 
L 169.714286 478.204052 
L 172.857143 478.539868 
L 179.142857 478.313251 
L 182.285714 478.104985 
L 185.428571 478.12427 
L 188.571429 478.009982 
L 194.857143 478.255358 
L 207.428571 478.523626 
L 216.857143 479.361681 
L 220 479.777883 
L 226.285714 481.065635 
L 235.714286 482.129101 
L 242 482.62309 
L 245.142857 482.573539 
L 248.285714 482.327419 
L 251.428571 481.930442 
L 254.571429 481.787589 
L 264 482.910739 
L 267.142857 483.377992 
L 270.285714 483.636432 
L 273.428571 484.297669 
L 276.571429 484.74283 
L 279.714286 485.012732 
L 282.857143 484.950979 
L 292.285714 485.935455 
L 298.571429 486.986583 
L 301.714286 487.573814 
L 308 488.243419 
L 311.142857 488.279021 
L 320.571429 488.88679 
L 326.857143 488.707102 
L 330 488.63837 
L 333.142857 488.28841 
L 339.428571 487.419614 
L 348.857143 486.923931 
L 355.142857 486.685884 
L 358.285714 486.789589 
L 361.428571 487.229895 
L 370.857143 490.158198 
L 374 490.783221 
L 383.428571 492.992018 
L 389.714286 494.036977 
L 396 493.885835 
L 399.142857 493.893075 
L 402.285714 493.774921 
L 427.428571 494.6208 
L 430.571429 494.871819 
L 433.714286 495.383144 
L 436.857143 495.448473 
L 440 495.265879 
L 446.285714 493.77676 
L 449.428571 492.904189 
L 455.714286 491.528817 
L 458.857143 491.103233 
L 465.142857 489.827059 
L 471.428571 488.389455 
L 474.571429 487.916076 
L 480.857143 486.795231 
L 490.285714 485.1789 
L 499.714286 482.485513 
L 506 480.784252 
L 512.285714 479.433259 
L 515.428571 479.000648 
L 521.714286 478.745337 
L 524.857143 478.611898 
L 528 478.339714 
L 534.285714 478.579525 
L 546.857143 479.225584 
L 550 479.560128 
L 553.142857 479.73343 
L 556.285714 479.734126 
L 562.571429 479.353594 
L 568.857143 479.883749 
L 572 479.990495 
L 584.571429 481.166015 
L 587.714286 481.780941 
L 590.857143 482.704778 
L 597.142857 484.901954 
L 603.428571 486.408217 
L 606.571429 487.242448 
L 609.714286 487.807322 
L 612.857143 487.808609 
L 616 488.002192 
L 622.285714 488.734051 
L 625.428571 489.128686 
L 631.714286 490.184469 
L 634.857143 490.24271 
L 638 490.530291 
L 641.142857 490.574181 
L 647.428571 490.274897 
L 650.571429 490.208532 
L 656.857143 489.073014 
L 666.285714 486.952018 
L 675.714286 484.41837 
L 685.142857 481.80744 
L 691.428571 479.722552 
L 694.571429 478.853 
L 704 474.838538 
L 710.285714 472.653316 
L 716.571429 471.011365 
L 722.857143 469.461686 
L 729.142857 467.813424 
L 741.714286 465.666989 
L 744.857143 465.351738 
L 748 465.359381 
L 754.285714 466.013849 
L 760.571429 466.737594 
L 763.714286 466.90629 
L 766.857143 466.878146 
L 770 467.125198 
L 776.285714 468.338625 
L 782.571429 469.576629 
L 785.714286 469.934633 
L 788.857143 470.41239 
L 788.857143 470.41239 
" clip-path="url(#p79f86112bf)" style="fill: none; stroke: #000000; stroke-width: 1.5; stroke-linecap: square"/>
   </g>
   <g id="line2d_6">
    <path d="M 0 459 
L 6.285714 459.086608 
L 15.714286 459.855596 
L 18.857143 459.164718 
L 22 455.687213 
L 25.142857 454.353614 
L 34.571429 452.097182 
L 37.714286 450.962623 
L 40.857143 451.489528 
L 44 451.885329 
L 47.142857 453.261448 
L 50.285714 457.121849 
L 53.428571 459.730899 
L 62.857143 463.140413 
L 66 464.147504 
L 72.285714 465.867147 
L 75.428571 466.477772 
L 78.571429 466.841574 
L 84.857143 467.060024 
L 88 467.26742 
L 97.428571 467.164618 
L 103.714286 466.941996 
L 116.285714 467.421438 
L 125.714286 468.606038 
L 132 469.504233 
L 135.142857 469.727427 
L 138.285714 470.111162 
L 141.428571 470.728246 
L 147.714286 471.609968 
L 150.857143 472.114111 
L 157.142857 473.339574 
L 163.428571 474.069724 
L 172.857143 475.273661 
L 179.142857 475.442561 
L 182.285714 475.459992 
L 210.571429 476.760188 
L 216.857143 477.235828 
L 220 477.548979 
L 226.285714 478.432778 
L 238.857143 479.590868 
L 242 479.836609 
L 248.285714 479.91148 
L 251.428571 479.806981 
L 254.571429 479.823681 
L 264 480.67352 
L 279.714286 482.295137 
L 282.857143 482.377867 
L 292.285714 483.217874 
L 308 485.033675 
L 314.285714 485.439247 
L 320.571429 485.886405 
L 333.142857 486.042063 
L 339.428571 485.769866 
L 355.142857 485.678834 
L 358.285714 485.774754 
L 361.428571 486.042613 
L 374 488.16701 
L 386.571429 490.090646 
L 389.714286 490.477218 
L 402.285714 490.894718 
L 430.571429 492.478524 
L 433.714286 492.846222 
L 436.857143 492.992356 
L 440 493.008528 
L 446.285714 492.428586 
L 452.571429 491.715742 
L 458.857143 491.188717 
L 465.142857 490.520942 
L 471.428571 489.716326 
L 477.714286 489.048998 
L 490.285714 487.630811 
L 499.714286 485.913992 
L 506 484.750545 
L 512.285714 483.723722 
L 515.428571 483.32458 
L 528 482.291969 
L 537.428571 482.022539 
L 546.857143 481.884532 
L 553.142857 481.931736 
L 559.428571 481.670785 
L 562.571429 481.468964 
L 581.428571 481.794646 
L 584.571429 481.955372 
L 587.714286 482.239598 
L 594 483.255526 
L 597.142857 483.845935 
L 603.428571 484.722135 
L 606.571429 485.222563 
L 609.714286 485.599137 
L 616 485.886435 
L 625.428571 486.746296 
L 631.714286 487.498571 
L 634.857143 487.644763 
L 638 487.90351 
L 641.142857 488.038655 
L 653.714286 487.969453 
L 660 487.444644 
L 669.428571 486.363022 
L 678.857143 484.959685 
L 682 484.511625 
L 694.571429 482.093707 
L 710.285714 478.016347 
L 729.142857 474.067284 
L 741.714286 471.905901 
L 744.857143 471.479589 
L 748 471.223219 
L 754.285714 471.075728 
L 763.714286 470.932619 
L 766.857143 470.744827 
L 770 470.704214 
L 776.285714 471.033471 
L 782.571429 471.449984 
L 788.857143 471.724745 
L 788.857143 471.724745 
" clip-path="url(#p79f86112bf)" style="fill: none; stroke: #000000; stroke-width: 1.5; stroke-linecap: square"/>
   </g>
   <g id="line2d_7">
    <path d="M 0 459 
L 6.285714 459.08569 
L 15.714286 459.83306 
L 18.857143 459.181218 
L 22 455.958636 
L 25.142857 454.681265 
L 34.571429 452.506938 
L 37.714286 451.452956 
L 44 452.193405 
L 47.142857 453.367703 
L 50.285714 456.690657 
L 53.428571 459.400594 
L 62.857143 462.358754 
L 69.142857 464.008065 
L 72.285714 464.74681 
L 75.428571 465.298152 
L 78.571429 465.649461 
L 91.142857 466.193727 
L 97.428571 466.216275 
L 103.714286 466.124936 
L 116.285714 466.609381 
L 125.714286 467.564721 
L 132 468.28203 
L 135.142857 468.482497 
L 138.285714 468.794633 
L 141.428571 469.26949 
L 150.857143 470.377989 
L 157.142857 471.327144 
L 166.571429 472.295832 
L 172.857143 472.94958 
L 185.428571 473.428947 
L 191.714286 473.70653 
L 216.857143 475.064811 
L 223.142857 475.644503 
L 229.428571 476.234151 
L 242 477.173104 
L 248.285714 477.356751 
L 254.571429 477.43437 
L 270.285714 478.591043 
L 276.571429 479.187396 
L 298.571429 480.816909 
L 304.857143 481.378142 
L 311.142857 481.81416 
L 320.571429 482.453258 
L 333.142857 482.861697 
L 342.571429 482.911286 
L 355.142857 483.132506 
L 361.428571 483.450399 
L 386.571429 486.243734 
L 389.714286 486.54089 
L 411.714286 487.618905 
L 436.857143 489.141654 
L 440 489.233389 
L 449.428571 488.955063 
L 471.428571 488.110693 
L 480.857143 487.67839 
L 493.428571 486.890357 
L 515.428571 484.830033 
L 531.142857 484.043638 
L 546.857143 483.691744 
L 556.285714 483.553363 
L 565.714286 483.270516 
L 584.571429 483.285147 
L 590.857143 483.609323 
L 606.571429 484.859984 
L 609.714286 485.059863 
L 616 485.230196 
L 625.428571 485.719207 
L 631.714286 486.151177 
L 650.571429 486.671403 
L 660 486.397448 
L 669.428571 485.903352 
L 682 484.9731 
L 694.571429 483.669866 
L 722.857143 479.725574 
L 735.428571 478.086204 
L 744.857143 476.992215 
L 751.142857 476.57579 
L 773.142857 475.663185 
L 788.857143 475.643808 
L 788.857143 475.643808 
" clip-path="url(#p79f86112bf)" style="fill: none; stroke: #000000; stroke-width: 1.5; stroke-linecap: square"/>
   </g>
   <g id="line2d_8">
    <path d="M 0 459 
L 6.285714 459.085231 
L 15.714286 459.821841 
L 18.857143 459.189007 
L 22 456.090717 
L 25.142857 454.842576 
L 34.571429 452.713809 
L 37.714286 451.700394 
L 44 452.358772 
L 47.142857 453.439039 
L 50.285714 456.509375 
L 53.428571 459.251434 
L 62.857143 461.988299 
L 69.142857 463.516308 
L 72.285714 464.201189 
L 75.428571 464.717753 
L 78.571429 465.055432 
L 91.142857 465.630549 
L 97.428571 465.692562 
L 103.714286 465.651148 
L 116.285714 466.124851 
L 128.857143 467.284041 
L 132 467.595955 
L 138.285714 468.05415 
L 144.571429 468.759652 
L 150.857143 469.421404 
L 157.142857 470.229243 
L 166.571429 471.078378 
L 172.857143 471.649252 
L 185.428571 472.139967 
L 191.714286 472.409503 
L 220 473.868477 
L 232.571429 474.843666 
L 242 475.439093 
L 248.285714 475.636225 
L 254.571429 475.754627 
L 270.285714 476.727966 
L 276.571429 477.210735 
L 298.571429 478.577481 
L 308 479.253833 
L 333.142857 480.385064 
L 345.714286 480.587837 
L 361.428571 481.096905 
L 389.714286 483.435971 
L 421.142857 484.877313 
L 440 485.839764 
L 452.571429 485.785696 
L 474.571429 485.533173 
L 493.428571 485.053042 
L 518.571429 483.873603 
L 540.571429 483.435561 
L 575.142857 483.125089 
L 584.571429 483.16396 
L 590.857143 483.35189 
L 609.714286 484.211352 
L 619.142857 484.420422 
L 644.285714 485.195807 
L 653.714286 485.275584 
L 666.285714 485.050085 
L 682 484.48068 
L 694.571429 483.777476 
L 744.857143 479.856032 
L 754.285714 479.452918 
L 779.428571 478.751459 
L 788.857143 478.632685 
L 788.857143 478.632685 
" clip-path="url(#p79f86112bf)" style="fill: none; stroke: #000000; stroke-width: 1.5; stroke-linecap: square"/>
   </g>
   <g id="line2d_9">
    <path d="M 0 459 
L 6.285714 459.085002 
L 15.714286 459.816245 
L 18.857143 459.192785 
L 22 456.155823 
L 25.142857 454.922536 
L 34.571429 452.817573 
L 37.714286 451.824467 
L 44 452.44406 
L 47.142857 453.479097 
L 50.285714 456.427381 
L 53.428571 459.181016 
L 62.857143 461.809036 
L 69.142857 463.276299 
L 72.285714 463.933894 
L 75.428571 464.432138 
L 78.571429 464.761477 
L 91.142857 465.34418 
L 97.428571 465.421745 
L 103.714286 465.401201 
L 116.285714 465.865894 
L 128.857143 466.948129 
L 132 467.237994 
L 138.285714 467.667784 
L 144.571429 468.317993 
L 154 469.302211 
L 157.142857 469.666158 
L 176 471.11541 
L 198 471.995453 
L 220 473.077013 
L 232.571429 473.951759 
L 242 474.491905 
L 248.285714 474.685026 
L 254.571429 474.811681 
L 273.428571 475.909956 
L 279.714286 476.272096 
L 286 476.552201 
L 298.571429 477.317627 
L 308 477.908491 
L 333.142857 478.944311 
L 348.857143 479.257624 
L 361.428571 479.648961 
L 389.714286 481.599834 
L 424.285714 483.025354 
L 440 483.723028 
L 458.857143 483.79747 
L 474.571429 483.717103 
L 493.428571 483.471145 
L 521.714286 482.690423 
L 540.571429 482.492554 
L 578.285714 482.359956 
L 587.714286 482.45824 
L 641.142857 483.903963 
L 656.857143 484.009479 
L 672.571429 483.798535 
L 688.285714 483.367317 
L 700.857143 482.810683 
L 741.714286 480.745381 
L 751.142857 480.406154 
L 779.428571 479.825768 
L 788.857143 479.727242 
L 788.857143 479.727242 
" clip-path="url(#p79f86112bf)" style="fill: none; stroke: #000000; stroke-width: 1.5; stroke-linecap: square"/>
   </g>
  </g>
 </g>
 <defs>
  <clipPath id="p79f86112bf">
   <rect x="0" y="0" width="792" height="612"/>
  </clipPath>
 </defs>
</svg>
