<?xml version="1.0" encoding="utf-8" standalone="no"?>
<!DOCTYPE svg PUBLIC "-//W3C//DTD SVG 1.1//EN"
  "http://www.w3.org/Graphics/SVG/1.1/DTD/svg11.dtd">
<svg xmlns:xlink="http://www.w3.org/1999/xlink" width="792pt" height="612pt" viewBox="0 0 792 612" xmlns="http://www.w3.org/2000/svg" version="1.1">
 <metadata>
  <rdf:RDF xmlns:dc="http://purl.org/dc/elements/1.1/" xmlns:cc="http://creativecommons.org/ns#" xmlns:rdf="http://www.w3.org/1999/02/22-rdf-syntax-ns#">
   <cc:Work>
    <dc:type rdf:resource="http://purl.org/dc/dcmitype/StillImage"/>
    <dc:date>2023-01-30T16:21:53.831953</dc:date>
    <dc:format>image/svg+xml</dc:format>
    <dc:creator>
     <cc:Agent>
      <dc:title>Matplotlib v3.6.2, https://matplotlib.org/</dc:title>
     </cc:Agent>
    </dc:creator>
   </cc:Work>
  </rdf:RDF>
 </metadata>
 <defs>
  <style type="text/css">*{stroke-linejoin: round; stroke-linecap: butt}</style>
 </defs>
 <g id="figure_1">
  <g id="patch_1">
   <path d="M 0 612 
L 792 612 
L 792 0 
L 0 0 
z
" style="fill: #ffffff"/>
  </g>
  <g id="axes_1">
   <g id="line2d_1">
    <path d="M 0 459 
L 3.168 462.056546 
L 6.336 461.719808 
L 9.504 463.528696 
L 12.672 463.753188 
L 15.84 464.547545 
L 19.008 464.059707 
L 22.176 464.772037 
L 25.344 462.190378 
L 28.512 458.637359 
L 31.68 446.49198 
L 34.848 447.786261 
L 38.016 453.198052 
L 41.184 441.911964 
L 44.352 441.200663 
L 47.52 438.679488 
L 50.688 432.956698 
L 53.856 438.071998 
L 57.024 447.786261 
L 60.192 451.437028 
L 63.36 446.647284 
L 66.528 451.683041 
L 69.696 461.305361 
L 72.864 462.609142 
L 76.032 463.373279 
L 79.2 464.702963 
L 82.368 465.134678 
L 85.536 460.847743 
L 88.704 464.659791 
L 91.872 470.310948 
L 95.04 466.779515 
L 98.208 468.057393 
L 101.376 469.676326 
L 104.544 473.035073 
L 107.712 473.259565 
L 110.88 467.984001 
L 114.048 469.577032 
L 117.216 470.829007 
L 120.384 471.701072 
L 123.552 469.896501 
L 126.72 464.8886 
L 129.888 463.804994 
L 133.056 462.894074 
L 136.224 465.64842 
L 139.392 463.91724 
L 142.56 467.111936 
L 145.728 466.844272 
L 148.896 466.30031 
L 152.064 467.245767 
L 155.232 465.363488 
L 158.4 467.12057 
L 161.568 469.490688 
L 164.736 469.438883 
L 167.904 470.306631 
L 171.072 472.141422 
L 174.24 475.465632 
L 177.408 476.376552 
L 180.576 473.250931 
L 183.744 473.522912 
L 186.912 473.945993 
L 190.08 473.000536 
L 193.248 473.143002 
L 196.416 469.585666 
L 199.584 466.965152 
L 202.752 464.759086 
L 205.92 467.677483 
L 209.088 473.95031 
L 212.256 473.23798 
L 215.424 476.821219 
L 218.592 476.77373 
L 221.76 474.537444 
L 224.928 480.115209 
L 228.096 477.986851 
L 231.264 476.156377 
L 234.432 472.076665 
L 237.6 476.842805 
L 240.768 476.890293 
L 247.104 480.300847 
L 250.272 481.816168 
L 253.44 482.74004 
L 256.608 479.467635 
L 259.776 481.000226 
L 262.944 476.885976 
L 266.112 479.579881 
L 269.28 478.94526 
L 272.448 479.549661 
L 275.616 475.314532 
L 278.784 476.462895 
L 281.952 476.052765 
L 285.12 472.283888 
L 288.288 470.146896 
L 291.456 470.893764 
L 294.624 473.052342 
L 297.792 472.016225 
L 300.96 474.42088 
L 304.128 473.630841 
L 307.296 473.199125 
L 310.464 476.147743 
L 313.632 480.663488 
L 316.8 488.088995 
L 319.968 489.686343 
L 323.136 490.023081 
L 326.304 486.772263 
L 332.64 491.210299 
L 335.808 489.043087 
L 338.976 489.15965 
L 342.144 488.455954 
L 345.312 481.298109 
L 348.48 482.148589 
L 351.648 482.705502 
L 354.816 481.0693 
L 357.984 483.77184 
L 361.152 482.817748 
L 364.32 483.694131 
L 367.488 485.179233 
L 370.656 483.089729 
L 373.824 484.009283 
L 376.992 485.429628 
L 380.16 485.710243 
L 383.328 486.737726 
L 386.496 490.433211 
L 389.664 485.131744 
L 392.832 481.941366 
L 396 474.692861 
L 399.168 473.225028 
L 402.336 471.027596 
L 405.504 472.154374 
L 408.672 472.072348 
L 411.84 474.477003 
L 415.008 471.891027 
L 421.344 468.070344 
L 424.512 468.635892 
L 427.68 470.449097 
L 430.848 468.165322 
L 434.016 468.726552 
L 437.184 467.517748 
L 440.352 467.513431 
L 443.52 466.675903 
L 446.688 461.801834 
L 449.856 460.174266 
L 453.024 459.250395 
L 456.192 457.122048 
L 462.528 459.284932 
L 465.696 458.844582 
L 468.864 461.214701 
L 472.032 464.171953 
L 475.2 465.138995 
L 478.368 464.379176 
L 481.536 462.41487 
L 484.704 466.77088 
L 487.872 467.841535 
L 491.04 467.966733 
L 494.208 468.381179 
L 497.376 468.022856 
L 500.544 468.894921 
L 503.712 471.049182 
L 506.88 469.292099 
L 513.216 465.173533 
L 516.384 464.102878 
L 519.552 470.228922 
L 522.72 470.716761 
L 525.888 468.834481 
L 529.056 471.170062 
L 532.224 470.112359 
L 535.392 472.443623 
L 538.56 473.544498 
L 541.728 476.907562 
L 544.896 481.634848 
L 548.064 484.807957 
L 551.232 486.206716 
L 554.4 482.144272 
L 557.568 484.164701 
L 560.736 485.485751 
L 563.904 482.852286 
L 567.072 476.065717 
L 570.24 478.599887 
L 573.408 480.469216 
L 576.576 482.019074 
L 579.744 482.252201 
L 582.912 484.98496 
L 586.08 484.510073 
L 589.248 479.433098 
L 592.416 482.489644 
L 595.584 479.588516 
L 598.752 476.506067 
L 601.92 477.408352 
L 605.088 477.818482 
L 608.256 471.649266 
L 617.76 467.077398 
L 620.928 466.434142 
L 624.096 464.430982 
L 627.264 463.269667 
L 630.432 461.512585 
L 633.6 460.990209 
L 636.768 461.387387 
L 639.936 454.454184 
L 643.104 448.43347 
L 646.272 446.543748 
L 649.44 449.158393 
L 652.608 428.07994 
L 655.776 419.248171 
L 658.944 422.862642 
L 662.112 422.193418 
L 665.28 422.901256 
L 668.448 426.185254 
L 671.616 426.932687 
L 674.784 425.631236 
L 677.952 420.919757 
L 681.12 417.860274 
L 684.288 414.509369 
L 687.456 422.862642 
L 690.624 421.125561 
L 693.792 417.988752 
L 696.96 420.996932 
L 700.128 425.154601 
L 703.296 436.818477 
L 706.464 447.980419 
L 709.632 451.851368 
L 712.8 454.234031 
L 715.968 452.861371 
L 719.136 447.630938 
L 722.304 440.502377 
L 725.472 451.255758 
L 728.64 460.97294 
L 731.808 462.47531 
L 734.976 463.226495 
L 738.144 463.278301 
L 741.312 460.830474 
L 744.48 462.807731 
L 747.648 462.837951 
L 750.816 464.366225 
L 753.984 464.841112 
L 757.152 463.73592 
L 760.32 463.757506 
L 763.488 462.531433 
L 766.656 461.892494 
L 769.824 463.593454 
L 772.992 461.728442 
L 776.16 459.604402 
L 779.328 455.166455 
L 782.496 445.94844 
L 785.664 438.886309 
L 788.832 433.640973 
L 788.832 433.640973 
" clip-path="url(#pfd4881d93b)" style="fill: none; stroke: #000000; stroke-width: 1.5; stroke-linecap: square"/>
   </g>
   <g id="line2d_2">
    <path d="M 0 459 
L 3.168 459 
L 6.336 461.037698 
L 9.504 461.427475 
L 12.672 462.548126 
L 19.008 463.869752 
L 22.176 463.965477 
L 25.344 464.370339 
L 28.512 463.286614 
L 31.68 461.076637 
L 34.848 455.818917 
L 38.016 451.753418 
L 41.184 452.43639 
L 44.352 447.106512 
L 47.52 444.088359 
L 50.688 441.309597 
L 53.856 437.061605 
L 57.024 437.526511 
L 60.192 442.656878 
L 63.36 447.053015 
L 66.528 446.837306 
L 69.696 449.279067 
L 72.864 457.645331 
L 76.032 460.599159 
L 82.368 463.382269 
L 85.536 464.277833 
L 88.704 462.571354 
L 91.872 463.634746 
L 95.04 466.999808 
L 98.208 466.900395 
L 101.376 467.489577 
L 104.544 468.59531 
L 107.712 470.831529 
L 110.88 472.061479 
L 114.048 470.036733 
L 117.216 469.816524 
L 120.384 470.323781 
L 123.552 471.022077 
L 126.72 470.462895 
L 129.888 467.66636 
L 133.056 465.717579 
L 136.224 464.285502 
L 139.392 464.962381 
L 142.56 464.428713 
L 145.728 465.763036 
L 148.896 466.294131 
L 152.064 466.290169 
L 155.232 466.77259 
L 158.4 466.071095 
L 161.568 466.60412 
L 164.736 468.054938 
L 171.072 469.538448 
L 174.24 470.850322 
L 177.408 473.175948 
L 180.576 474.794153 
L 183.744 474.038008 
L 186.912 473.793014 
L 190.08 473.878239 
L 193.248 473.446371 
L 196.416 473.300248 
L 199.584 471.437946 
L 205.92 466.949204 
L 209.088 467.302415 
L 212.256 470.627201 
L 215.424 471.931202 
L 218.592 474.383702 
L 221.76 475.585835 
L 224.928 475.071349 
L 228.096 477.619063 
L 231.264 477.828894 
L 234.432 477.009261 
L 237.6 474.539289 
L 240.768 475.698115 
L 243.936 476.29434 
L 247.104 477.474532 
L 253.44 480.360914 
L 256.608 481.559797 
L 259.776 480.520209 
L 262.944 480.777714 
L 266.112 478.83193 
L 269.28 479.211179 
L 272.448 479.078804 
L 275.616 479.31276 
L 278.784 477.300897 
L 285.12 476.454481 
L 291.456 472.236281 
L 294.624 471.547991 
L 297.792 472.288612 
L 300.96 472.137647 
L 304.128 473.277511 
L 307.296 473.448623 
L 310.464 473.318279 
L 313.632 474.740587 
L 316.8 477.722658 
L 319.968 482.939543 
L 323.136 486.345559 
L 326.304 488.219628 
L 329.472 487.520164 
L 332.64 488.275006 
L 335.808 489.777968 
L 338.976 489.435813 
L 342.144 489.314391 
L 345.312 488.885892 
L 348.48 485.075553 
L 351.648 483.596631 
L 354.816 483.143093 
L 357.984 482.090705 
L 361.152 482.916687 
L 364.32 482.855011 
L 367.488 483.263854 
L 370.656 484.215119 
L 373.824 483.655937 
L 376.992 483.836258 
L 380.16 484.638284 
L 383.328 485.183363 
L 386.496 485.96636 
L 389.664 488.214718 
L 392.832 486.67605 
L 396 484.302359 
L 399.168 479.481146 
L 402.336 476.331941 
L 405.504 473.651529 
L 408.672 472.876371 
L 411.84 472.445604 
L 415.008 473.430017 
L 418.176 472.63456 
L 421.344 471.252748 
L 424.512 469.648561 
L 427.68 469.133228 
L 430.848 469.790028 
L 434.016 468.969853 
L 437.184 468.841642 
L 440.352 468.16605 
L 443.52 467.831157 
L 446.688 467.247173 
L 449.856 464.512212 
L 453.024 462.326648 
L 456.192 460.766563 
L 459.36 459.551089 
L 462.528 459.132951 
L 465.696 459.192799 
L 468.864 459.053702 
L 472.032 460.123493 
L 475.2 462.15237 
L 478.368 463.655418 
L 481.536 464.027353 
L 484.704 463.229035 
L 487.872 465.015677 
L 491.04 466.445384 
L 494.208 467.223742 
L 497.376 467.816512 
L 500.544 467.927235 
L 503.712 468.418442 
L 506.88 469.746891 
L 510.048 469.53298 
L 513.216 468.372968 
L 516.384 466.768019 
L 519.552 465.427872 
L 522.72 467.83202 
L 525.888 469.279673 
L 529.056 469.056958 
L 532.224 470.113747 
L 535.392 470.114661 
L 541.728 472.433363 
L 544.896 474.69557 
L 551.232 481.525395 
L 554.4 483.900119 
L 557.568 483.043713 
L 560.736 483.631761 
L 563.904 484.584328 
L 567.072 483.736558 
L 570.24 479.899486 
L 573.408 479.243736 
L 576.576 479.847968 
L 579.744 480.92531 
L 582.912 481.588967 
L 586.08 483.288572 
L 589.248 483.89741 
L 592.416 481.65855 
L 595.584 482.086693 
L 598.752 480.839543 
L 601.92 478.665034 
L 605.088 478.027652 
L 608.256 477.914374 
L 611.424 474.755672 
L 614.592 472.397116 
L 617.76 470.425988 
L 620.928 468.721473 
L 624.096 467.552015 
L 627.264 465.967822 
L 630.432 464.591021 
L 633.6 463.019831 
L 636.768 461.98412 
L 639.936 461.668679 
L 643.104 459.555085 
L 646.272 454.480338 
L 649.44 450.443271 
L 652.608 449.749588 
L 655.776 438.817875 
L 658.944 428.926817 
L 662.112 425.810997 
L 665.28 423.915796 
L 668.448 423.346841 
L 671.616 424.722232 
L 674.784 425.788918 
L 677.952 425.664075 
L 681.12 423.276922 
L 684.288 420.564527 
L 687.456 417.518757 
L 690.624 420.190686 
L 693.792 420.654604 
L 696.96 419.305285 
L 700.128 420.139352 
L 703.296 422.644951 
L 706.464 429.755891 
L 709.632 438.919361 
L 712.8 445.456089 
L 715.968 449.905857 
L 719.136 451.445914 
L 722.304 449.59657 
L 725.472 445.086465 
L 728.64 448.221891 
L 731.808 456.624519 
L 734.976 460.355756 
L 738.144 461.804086 
L 741.312 462.552698 
L 744.48 461.699187 
L 747.648 462.268358 
L 750.816 462.572777 
L 753.984 463.485085 
L 757.152 464.170683 
L 760.32 463.955773 
L 763.488 463.857681 
L 769.824 462.544876 
L 772.992 463.070705 
L 776.16 462.397398 
L 779.328 460.991563 
L 782.496 459.342884 
L 785.664 452.933683 
L 788.832 445.839534 
L 788.832 445.839534 
" clip-path="url(#pfd4881d93b)" style="fill: none; stroke: #000000; stroke-width: 1.5; stroke-linecap: square"/>
   </g>
   <g id="line2d_3">
    <path d="M 0 459 
L 3.168 459 
L 6.336 460.790483 
L 9.504 461.211544 
L 12.672 462.116448 
L 19.008 463.317627 
L 22.176 463.556051 
L 25.344 463.935949 
L 28.512 463.401043 
L 31.68 462.033879 
L 34.848 459.876122 
L 38.016 457.509096 
L 41.184 456.232252 
L 44.352 452.003097 
L 47.52 448.820218 
L 50.688 445.836943 
L 53.856 442.031443 
L 57.024 440.836927 
L 60.192 442.849392 
L 63.36 445.339478 
L 66.528 445.691959 
L 69.696 447.418824 
L 72.864 452.825689 
L 76.032 457.797669 
L 79.2 459.99887 
L 82.368 461.383356 
L 85.536 462.493929 
L 88.704 462.018189 
L 91.872 462.800619 
L 95.04 465.01988 
L 98.208 465.551019 
L 101.376 466.303307 
L 104.544 467.313486 
L 107.712 469.013439 
L 110.88 470.277774 
L 114.048 469.619158 
L 117.216 469.623699 
L 120.384 469.993114 
L 123.552 470.505304 
L 126.72 470.33536 
L 129.888 468.741782 
L 133.056 467.294799 
L 136.224 466.003283 
L 139.392 465.90486 
L 142.56 465.321847 
L 145.728 465.842477 
L 148.896 466.135971 
L 152.064 466.182086 
L 155.232 466.49084 
L 158.4 466.151834 
L 161.568 466.428519 
L 164.736 467.327138 
L 171.072 468.636456 
L 174.24 469.663543 
L 177.408 471.369332 
L 180.576 472.849108 
L 186.912 473.149561 
L 190.08 473.392361 
L 196.416 473.252481 
L 199.584 472.181644 
L 202.752 470.654533 
L 205.92 468.92494 
L 209.088 468.562226 
L 212.256 470.148204 
L 215.424 471.057483 
L 218.592 472.754121 
L 221.76 473.938866 
L 224.928 474.116937 
L 228.096 475.879131 
L 231.264 476.498317 
L 234.432 476.401502 
L 237.6 475.133126 
L 240.768 475.637206 
L 243.936 476.008695 
L 247.104 476.787869 
L 250.272 477.829104 
L 256.608 480.125946 
L 259.776 479.946674 
L 262.944 480.263349 
L 266.112 479.27833 
L 269.28 479.369821 
L 272.448 479.247964 
L 275.616 479.342086 
L 278.784 478.156929 
L 285.12 477.188431 
L 288.288 475.752162 
L 291.456 474.102726 
L 294.624 473.155956 
L 297.792 473.119181 
L 300.96 472.786617 
L 304.128 473.256787 
L 307.296 473.355882 
L 310.464 473.302769 
L 313.632 474.130469 
L 316.8 476.048285 
L 319.968 479.584701 
L 323.136 482.555741 
L 326.304 484.754904 
L 329.472 485.358935 
L 332.64 486.430868 
L 335.808 487.848141 
L 342.144 488.515204 
L 345.312 488.518022 
L 348.48 486.41283 
L 351.648 485.175501 
L 354.816 484.461571 
L 357.984 483.476541 
L 361.152 483.575176 
L 364.32 483.360992 
L 367.488 483.462047 
L 370.656 483.961657 
L 373.824 483.698698 
L 376.992 483.782759 
L 386.496 485.280066 
L 389.664 486.790984 
L 392.832 486.300378 
L 396 485.01617 
L 399.168 481.984956 
L 405.504 476.940718 
L 408.672 475.528591 
L 411.84 474.502842 
L 415.008 474.485694 
L 418.176 473.712177 
L 421.344 472.583385 
L 424.512 471.244294 
L 427.68 470.462653 
L 430.848 470.441476 
L 434.016 469.754654 
L 437.184 469.432842 
L 440.352 468.845603 
L 443.52 468.435183 
L 446.688 467.902368 
L 453.024 464.349937 
L 456.192 462.842789 
L 459.36 461.518086 
L 462.528 460.693184 
L 468.864 459.863225 
L 472.032 460.249066 
L 478.368 462.486567 
L 481.536 463.033927 
L 484.704 462.846005 
L 491.04 465.120814 
L 494.208 465.954885 
L 497.376 466.667489 
L 500.544 467.071612 
L 503.712 467.615663 
L 506.88 468.63487 
L 510.048 468.839908 
L 513.216 468.372594 
L 519.552 466.470179 
L 522.72 467.581443 
L 525.888 468.507274 
L 529.056 468.607355 
L 532.224 469.365755 
L 535.392 469.593271 
L 541.728 471.352044 
L 544.896 472.989487 
L 548.064 475.536878 
L 551.232 478.271593 
L 554.4 480.615621 
L 557.568 481.076096 
L 560.736 481.99781 
L 563.904 483.040395 
L 567.072 483.005605 
L 570.24 480.986699 
L 573.408 480.297233 
L 576.576 480.358807 
L 582.912 481.280659 
L 586.08 482.382707 
L 589.248 483.019657 
L 592.416 481.975942 
L 595.584 482.132814 
L 598.752 481.385256 
L 601.92 479.946639 
L 605.088 479.193086 
L 608.256 478.785505 
L 611.424 476.680974 
L 617.76 472.891192 
L 620.928 471.178047 
L 624.096 469.774616 
L 630.432 466.728096 
L 633.6 465.176687 
L 636.768 463.922935 
L 639.936 463.153732 
L 646.272 459.682376 
L 649.44 456.713054 
L 652.608 454.428413 
L 655.776 446.601298 
L 658.944 438.461483 
L 662.112 433.801215 
L 665.28 430.317065 
L 668.448 428.069353 
L 671.616 427.452122 
L 674.784 427.237764 
L 677.952 426.710313 
L 681.12 424.954914 
L 684.288 422.819403 
L 687.456 420.325021 
L 690.624 421.018554 
L 693.792 421.011778 
L 696.96 420.091158 
L 700.128 420.327191 
L 703.296 421.712805 
L 706.464 426.140241 
L 709.632 432.559063 
L 712.8 438.23632 
L 715.968 442.955296 
L 719.136 445.890051 
L 722.304 446.424584 
L 725.472 444.705107 
L 728.64 446.652742 
L 731.808 452.051814 
L 734.976 457.199565 
L 738.144 459.835485 
L 741.312 460.862641 
L 744.48 460.869856 
L 747.648 461.457564 
L 750.816 461.880862 
L 757.152 463.291381 
L 763.488 463.535005 
L 769.824 462.855909 
L 772.992 463.081561 
L 776.16 462.695462 
L 779.328 461.793771 
L 782.496 460.597478 
L 785.664 458.538049 
L 788.832 452.741119 
L 788.832 452.741119 
" clip-path="url(#pfd4881d93b)" style="fill: none; stroke: #000000; stroke-width: 1.5; stroke-linecap: square"/>
   </g>
   <g id="line2d_4">
    <path d="M 0 459 
L 3.168 459 
L 6.336 460.660358 
L 9.504 461.076154 
L 12.672 461.856571 
L 19.008 462.911401 
L 25.344 463.510955 
L 28.512 463.244919 
L 31.68 462.401145 
L 34.848 460.986149 
L 38.016 459.945192 
L 41.184 459.433281 
L 44.352 457.089238 
L 50.688 451.694548 
L 53.856 448.544508 
L 57.024 446.800201 
L 60.192 446.963135 
L 63.36 447.697774 
L 66.528 447.526119 
L 69.696 448.202334 
L 72.864 451.073134 
L 79.2 457.008317 
L 82.368 459.360409 
L 85.536 460.287732 
L 88.704 460.377533 
L 91.872 461.063361 
L 95.04 462.542858 
L 101.376 463.992725 
L 104.544 464.903668 
L 107.712 466.204253 
L 110.88 467.333979 
L 114.048 467.44018 
L 117.216 467.783794 
L 123.552 468.822528 
L 126.72 468.996599 
L 133.056 467.625477 
L 136.224 466.877726 
L 139.392 466.68862 
L 142.56 466.251958 
L 148.896 466.477097 
L 152.064 466.457754 
L 155.232 466.593697 
L 158.4 466.406292 
L 161.568 466.527336 
L 171.072 467.873512 
L 174.24 468.559313 
L 180.576 470.741916 
L 190.08 471.922382 
L 196.416 472.266976 
L 199.584 471.842121 
L 202.752 471.065496 
L 205.92 470.059055 
L 209.088 469.676796 
L 212.256 470.357158 
L 215.424 470.818786 
L 218.592 471.778314 
L 221.76 472.576812 
L 224.928 472.890525 
L 228.096 474.046374 
L 231.264 474.68149 
L 234.432 474.923857 
L 237.6 474.476588 
L 243.936 475.19116 
L 247.104 475.748254 
L 250.272 476.480983 
L 256.608 478.208422 
L 259.776 478.417568 
L 262.944 478.837138 
L 266.112 478.531315 
L 269.28 478.704473 
L 275.616 478.880315 
L 278.784 478.312892 
L 285.12 477.707581 
L 288.288 476.843879 
L 291.456 475.775994 
L 294.624 474.9979 
L 297.792 474.688298 
L 300.96 474.264678 
L 304.128 474.294182 
L 310.464 474.039306 
L 313.632 474.376137 
L 316.8 475.38111 
L 323.136 479.371276 
L 326.304 481.075678 
L 329.472 481.986179 
L 332.64 483.104134 
L 335.808 484.403247 
L 342.144 485.797357 
L 345.312 486.227565 
L 348.48 485.444925 
L 351.648 484.921619 
L 354.816 484.569582 
L 357.984 484.011632 
L 361.152 483.976166 
L 364.32 483.792991 
L 367.488 483.78151 
L 370.656 484.007386 
L 373.824 483.86397 
L 376.992 483.889872 
L 383.328 484.39658 
L 386.496 484.775731 
L 389.664 485.687181 
L 392.832 485.608158 
L 396 485.031651 
L 405.504 480.060046 
L 408.672 478.801304 
L 411.84 477.73 
L 415.008 477.211394 
L 418.176 476.359431 
L 421.344 475.323253 
L 424.512 474.155802 
L 427.68 473.26422 
L 430.848 472.806139 
L 434.016 472.054788 
L 443.52 470.316077 
L 446.688 469.723323 
L 459.36 464.649343 
L 462.528 463.695751 
L 468.864 462.322489 
L 472.032 462.131283 
L 481.536 463.089533 
L 484.704 462.967657 
L 497.376 465.371076 
L 503.712 466.280312 
L 506.88 467.03907 
L 510.048 467.395749 
L 513.216 467.363358 
L 516.384 467.009144 
L 519.552 466.541888 
L 525.888 467.701226 
L 529.056 467.881655 
L 532.224 468.405302 
L 535.392 468.678116 
L 541.728 469.961871 
L 544.896 471.072817 
L 548.064 472.762607 
L 554.4 476.541469 
L 557.568 477.447179 
L 563.904 479.65509 
L 567.072 480.17848 
L 570.24 479.534805 
L 573.408 479.396903 
L 576.576 479.57768 
L 582.912 480.349847 
L 586.08 481.101393 
L 589.248 481.654794 
L 592.416 481.308547 
L 595.584 481.505525 
L 598.752 481.207515 
L 601.92 480.46479 
L 605.088 479.983812 
L 608.256 479.643524 
L 614.592 477.057821 
L 633.6 468.936296 
L 636.768 467.666354 
L 639.936 466.660449 
L 649.44 462.217321 
L 652.608 461.165259 
L 655.776 459.155025 
L 658.944 452.982695 
L 662.112 448.110619 
L 665.28 443.905635 
L 668.448 440.490125 
L 671.616 438.158689 
L 677.952 434.551495 
L 684.288 429.939753 
L 687.456 427.403266 
L 690.624 426.610403 
L 693.792 425.675476 
L 696.96 424.381889 
L 700.128 423.78113 
L 703.296 423.946003 
L 706.464 425.942825 
L 715.968 436.296589 
L 719.136 438.907694 
L 722.304 440.272607 
L 725.472 440.283743 
L 728.64 442.013345 
L 738.144 452.976186 
L 741.312 455.979968 
L 744.48 457.340404 
L 747.648 459.145213 
L 750.816 459.737727 
L 757.152 461.18356 
L 763.488 461.954518 
L 766.656 462.056182 
L 769.824 462.039467 
L 772.992 462.296414 
L 776.16 462.21443 
L 779.328 461.806495 
L 782.496 461.163797 
L 785.664 460.133023 
L 788.832 458.671344 
L 788.832 458.671344 
" clip-path="url(#pfd4881d93b)" style="fill: none; stroke: #000000; stroke-width: 1.5; stroke-linecap: square"/>
   </g>
   <g id="line2d_5">
    <path d="M 0 459 
L 3.168 459 
L 6.336 460.594439 
L 9.504 461.002492 
L 12.672 461.718332 
L 19.008 462.679567 
L 25.344 463.236979 
L 28.512 463.076565 
L 31.68 462.475461 
L 34.848 461.442706 
L 38.016 460.649094 
L 41.184 460.209032 
L 44.352 459.393164 
L 47.52 458.012919 
L 50.688 455.872033 
L 53.856 453.401678 
L 57.024 451.789532 
L 60.192 451.377868 
L 63.36 451.383833 
L 66.528 450.914575 
L 69.696 450.989489 
L 72.864 452.423575 
L 79.2 455.765659 
L 82.368 457.652338 
L 85.536 459.155503 
L 88.704 459.30957 
L 91.872 459.792782 
L 95.04 460.735841 
L 101.376 461.874645 
L 104.544 462.56152 
L 110.88 464.331851 
L 117.216 465.075264 
L 123.552 466.097934 
L 126.72 466.42337 
L 133.056 466.08023 
L 136.224 465.809263 
L 139.392 465.795612 
L 142.56 465.63649 
L 148.896 465.852708 
L 161.568 466.048935 
L 171.072 466.908497 
L 174.24 467.346541 
L 180.576 468.723787 
L 190.08 469.844604 
L 196.416 470.360947 
L 199.584 470.296327 
L 202.752 470.018768 
L 205.92 469.58411 
L 209.088 469.427698 
L 218.592 470.657458 
L 221.76 471.169063 
L 224.928 471.452035 
L 228.096 472.176037 
L 231.264 472.663453 
L 234.432 472.958975 
L 237.6 472.89136 
L 247.104 473.969284 
L 253.44 475.120185 
L 256.608 475.763157 
L 262.944 476.496321 
L 266.112 476.535303 
L 272.448 476.981693 
L 275.616 477.200762 
L 281.952 477.004018 
L 285.12 476.928762 
L 288.288 476.545583 
L 294.624 475.59432 
L 304.128 475.051586 
L 310.464 474.790944 
L 313.632 474.904492 
L 316.8 475.386593 
L 326.304 478.592854 
L 329.472 479.277204 
L 332.64 480.089479 
L 335.808 481.021382 
L 342.144 482.322795 
L 345.312 482.839809 
L 351.648 482.674321 
L 354.816 482.682248 
L 357.984 482.552879 
L 373.824 482.986381 
L 380.16 483.273796 
L 386.496 483.753896 
L 389.664 484.313756 
L 392.832 484.385286 
L 396 484.185361 
L 402.336 482.554893 
L 405.504 481.599496 
L 411.84 480.093573 
L 415.008 479.627592 
L 421.344 478.230282 
L 424.512 477.384215 
L 427.68 476.656219 
L 430.848 476.137907 
L 437.184 474.91067 
L 446.688 473.140915 
L 456.192 470.19187 
L 462.528 468.329123 
L 468.864 466.849893 
L 472.032 466.376217 
L 478.368 466.096672 
L 481.536 465.950567 
L 484.704 465.652547 
L 491.04 465.915121 
L 503.712 466.622504 
L 506.88 466.988803 
L 510.048 467.178555 
L 513.216 467.179318 
L 519.552 466.762665 
L 525.888 467.343143 
L 529.056 467.460022 
L 532.224 467.762862 
L 535.392 467.951723 
L 541.728 468.747123 
L 544.896 469.420419 
L 548.064 470.431947 
L 554.4 472.837681 
L 560.736 474.486921 
L 563.904 475.400337 
L 567.072 476.01883 
L 570.24 476.020238 
L 573.408 476.232197 
L 579.744 477.033524 
L 582.912 477.465619 
L 589.248 478.621618 
L 592.416 478.685387 
L 595.584 479.000265 
L 598.752 479.048322 
L 605.088 478.720629 
L 608.256 478.647965 
L 614.592 477.404662 
L 624.096 475.08234 
L 630.432 473.288453 
L 636.768 471.366513 
L 639.936 470.535897 
L 652.608 466.214554 
L 655.776 464.755323 
L 658.944 463.17074 
L 665.28 460.560689 
L 668.448 459.426391 
L 671.616 457.434219 
L 684.288 447.119724 
L 687.456 444.386213 
L 696.96 438.853431 
L 700.128 437.346826 
L 703.296 436.313718 
L 706.464 436.338763 
L 709.632 437.28875 
L 719.136 440.856883 
L 722.304 441.410171 
L 725.472 441.31786 
L 728.64 442.128219 
L 731.808 444.010429 
L 738.144 448.224151 
L 741.312 450.174071 
L 744.48 451.349649 
L 747.648 452.918615 
L 750.816 454.360427 
L 757.152 457.738903 
L 760.32 459.001593 
L 763.488 459.389672 
L 772.992 460.131722 
L 776.16 460.258752 
L 779.328 460.197653 
L 782.496 459.984286 
L 785.664 459.532437 
L 788.832 458.762392 
L 788.832 458.762392 
" clip-path="url(#pfd4881d93b)" style="fill: none; stroke: #000000; stroke-width: 1.5; stroke-linecap: square"/>
   </g>
   <g id="line2d_6">
    <path d="M 0 459 
L 3.168 459 
L 6.336 460.561372 
L 9.504 460.964361 
L 12.672 461.647686 
L 19.008 462.558264 
L 25.344 463.086832 
L 28.512 462.969118 
L 31.68 462.475909 
L 34.848 461.62072 
L 38.016 460.955651 
L 41.184 460.572674 
L 47.52 459.288714 
L 50.688 458.068528 
L 53.856 456.023577 
L 57.024 454.617011 
L 60.192 454.100624 
L 63.36 453.905757 
L 66.528 453.390486 
L 69.696 453.272667 
L 72.864 454.12236 
L 79.2 456.239818 
L 85.536 458.710963 
L 91.872 459.355169 
L 95.04 459.993754 
L 101.376 460.816912 
L 104.544 461.310746 
L 110.88 462.56972 
L 117.216 463.216909 
L 126.72 464.338824 
L 133.056 464.338451 
L 136.224 464.265962 
L 161.568 464.915377 
L 174.24 465.875435 
L 180.576 466.787173 
L 193.248 467.924722 
L 196.416 468.162141 
L 199.584 468.226708 
L 209.088 468.000637 
L 218.592 468.861889 
L 221.76 469.214309 
L 224.928 469.450912 
L 228.096 469.923949 
L 234.432 470.540518 
L 237.6 470.608275 
L 247.104 471.476112 
L 253.44 472.298473 
L 256.608 472.754817 
L 266.112 473.546507 
L 275.616 474.271501 
L 288.288 474.385797 
L 294.624 474.05985 
L 310.464 473.905767 
L 313.632 474.002142 
L 316.8 474.288321 
L 329.472 476.594335 
L 342.144 478.680827 
L 345.312 479.098981 
L 357.984 479.532617 
L 386.496 481.178737 
L 389.664 481.573009 
L 392.832 481.724592 
L 396 481.733823 
L 402.336 481.084572 
L 408.672 480.298241 
L 411.84 479.951156 
L 418.176 479.390608 
L 446.688 475.825564 
L 456.192 473.945783 
L 462.528 472.6719 
L 468.864 471.54761 
L 472.032 471.110582 
L 484.704 469.979954 
L 491.04 469.759786 
L 503.712 469.533842 
L 510.048 469.585527 
L 516.384 469.299807 
L 519.552 469.078829 
L 538.56 469.435425 
L 541.728 469.611407 
L 544.896 469.922612 
L 548.064 470.422118 
L 554.4 471.681424 
L 560.736 472.640793 
L 563.904 473.188723 
L 567.072 473.601042 
L 573.408 473.91561 
L 582.912 474.85709 
L 589.248 475.680771 
L 592.416 475.84084 
L 595.584 476.124148 
L 598.752 476.272121 
L 608.256 476.39647 
L 614.592 475.938078 
L 624.096 474.882602 
L 630.432 473.962085 
L 643.104 471.775078 
L 652.608 469.762873 
L 668.448 465.298486 
L 687.456 460.974573 
L 696.96 459.157079 
L 703.296 456.423783 
L 706.464 455.581703 
L 709.632 455.249843 
L 715.968 455.052789 
L 719.136 454.950303 
L 722.304 454.627223 
L 725.472 454.010434 
L 728.64 453.877045 
L 731.808 454.330647 
L 741.312 456.326542 
L 744.48 456.658625 
L 750.816 457.779492 
L 753.984 458.505321 
L 757.152 459.086864 
L 766.656 459.594093 
L 779.328 459.908481 
L 782.496 459.811416 
L 788.832 459.272505 
L 788.832 459.272505 
" clip-path="url(#pfd4881d93b)" style="fill: none; stroke: #000000; stroke-width: 1.5; stroke-linecap: square"/>
   </g>
   <g id="line2d_7">
    <path d="M 0 459 
L 3.168 459 
L 6.336 460.544824 
L 9.504 460.944999 
L 12.672 461.612059 
L 19.008 462.496566 
L 25.344 463.009036 
L 28.512 462.909996 
L 31.68 462.466498 
L 34.848 461.694635 
L 38.016 461.092383 
L 41.184 460.740824 
L 47.52 459.585503 
L 50.688 459.046797 
L 53.856 457.317087 
L 57.024 456.038925 
L 60.192 455.514665 
L 63.36 455.266121 
L 66.528 454.760663 
L 69.696 454.58668 
L 72.864 455.205344 
L 79.2 456.805355 
L 85.536 458.716239 
L 91.872 459.25709 
L 95.04 459.752758 
L 101.376 460.403345 
L 104.544 460.79241 
L 110.88 461.778112 
L 117.216 462.31726 
L 126.72 463.23837 
L 133.056 463.316621 
L 139.392 463.383519 
L 145.728 463.527914 
L 171.072 464.520583 
L 177.408 465.081748 
L 183.744 465.65757 
L 196.416 466.526905 
L 202.752 466.624944 
L 209.088 466.603157 
L 224.928 467.711885 
L 231.264 468.316525 
L 234.432 468.526859 
L 237.6 468.621585 
L 250.272 469.592158 
L 259.776 470.48071 
L 262.944 470.750875 
L 272.448 471.326905 
L 275.616 471.534661 
L 288.288 471.869059 
L 297.792 471.834057 
L 307.296 471.943986 
L 313.632 472.075825 
L 316.8 472.283665 
L 342.144 475.250356 
L 345.312 475.562795 
L 364.32 476.460876 
L 386.496 477.735348 
L 389.664 478.027807 
L 396 478.277265 
L 405.504 477.920108 
L 424.512 477.076324 
L 449.856 475.452299 
L 472.032 473.106475 
L 487.872 472.19963 
L 503.712 471.778814 
L 510.048 471.708066 
L 529.056 471.214522 
L 541.728 471.26803 
L 548.064 471.616645 
L 563.904 472.973857 
L 567.072 473.190007 
L 573.408 473.369795 
L 582.912 473.896963 
L 589.248 474.365214 
L 608.256 474.917552 
L 617.76 474.607261 
L 627.264 474.055748 
L 639.936 473.023372 
L 652.608 471.582763 
L 677.952 467.699187 
L 696.96 464.995676 
L 703.296 464.226785 
L 709.632 463.767716 
L 731.808 462.760021 
L 757.152 462.816758 
L 772.992 462.845261 
L 779.328 462.751945 
L 785.664 462.471529 
L 788.832 462.252388 
L 788.832 462.252388 
" clip-path="url(#pfd4881d93b)" style="fill: none; stroke: #000000; stroke-width: 1.5; stroke-linecap: square"/>
   </g>
   <g id="line2d_8">
    <path d="M 0 459 
L 3.168 459 
L 6.336 460.536549 
L 9.504 460.935248 
L 12.672 461.594181 
L 19.008 462.465497 
L 25.344 462.969544 
L 28.512 462.879172 
L 31.68 462.459392 
L 34.848 461.72761 
L 38.016 461.156081 
L 41.184 460.820604 
L 47.52 459.729018 
L 50.688 459.220766 
L 57.024 456.740047 
L 60.192 456.221348 
L 63.36 455.956699 
L 66.528 455.463616 
L 69.696 455.271513 
L 72.864 455.791507 
L 79.2 457.163532 
L 85.536 458.819676 
L 91.872 459.243908 
L 95.04 459.673648 
L 104.544 460.57874 
L 110.88 461.43241 
L 120.384 462.194367 
L 126.72 462.718487 
L 139.392 462.896592 
L 145.728 463.040035 
L 171.072 463.931597 
L 177.408 464.397193 
L 183.744 464.875344 
L 196.416 465.614385 
L 202.752 465.728122 
L 209.088 465.749019 
L 224.928 466.66523 
L 231.264 467.1507 
L 253.44 468.46551 
L 262.944 469.144662 
L 288.288 470.163982 
L 300.96 470.254622 
L 316.8 470.684205 
L 345.312 473.145728 
L 367.488 474.102103 
L 396 475.504723 
L 408.672 475.350219 
L 430.848 474.91505 
L 449.856 474.256697 
L 475.2 472.788233 
L 494.208 472.247338 
L 532.224 471.71733 
L 541.728 471.729789 
L 548.064 471.921026 
L 567.072 472.828424 
L 576.576 473.035153 
L 601.92 473.833824 
L 611.424 473.89842 
L 624.096 473.615205 
L 636.768 473.085338 
L 643.104 472.756103 
L 655.776 471.849936 
L 671.616 470.386243 
L 706.464 467.492766 
L 728.64 466.563068 
L 747.648 466.270169 
L 782.496 465.79893 
L 788.832 465.515494 
L 788.832 465.515494 
" clip-path="url(#pfd4881d93b)" style="fill: none; stroke: #000000; stroke-width: 1.5; stroke-linecap: square"/>
   </g>
   <g id="line2d_9">
    <path d="M 0 459 
L 3.168 459 
L 6.336 460.532411 
L 9.504 460.930355 
L 12.672 461.585227 
L 19.008 462.449913 
L 25.344 462.949661 
L 28.512 462.863457 
L 31.68 462.455244 
L 34.848 461.743084 
L 38.016 461.186707 
L 41.184 460.859322 
L 47.52 459.799335 
L 50.688 459.30628 
L 53.856 458.261476 
L 57.024 457.086633 
L 60.192 456.572807 
L 63.36 456.302567 
L 66.528 455.81734 
L 69.696 455.618523 
L 72.864 456.093397 
L 79.2 457.35958 
L 85.536 458.895783 
L 91.872 459.246449 
L 95.04 459.644954 
L 104.544 460.485051 
L 110.88 461.275076 
L 120.384 461.984976 
L 126.72 462.472337 
L 164.736 463.353962 
L 174.24 463.809402 
L 183.744 464.480043 
L 196.416 465.15037 
L 202.752 465.265171 
L 209.088 465.299478 
L 224.928 466.117087 
L 231.264 466.543674 
L 253.44 467.70922 
L 262.944 468.303755 
L 288.288 469.236484 
L 300.96 469.358821 
L 316.8 469.759374 
L 345.312 471.817342 
L 376.992 473.057344 
L 396 473.89152 
L 411.84 473.824715 
L 421.344 473.770172 
L 453.024 473.082143 
L 475.2 472.208232 
L 497.376 471.814394 
L 535.392 471.492188 
L 544.896 471.567027 
L 563.904 472.213695 
L 573.408 472.392992 
L 611.424 473.119225 
L 627.264 472.88259 
L 643.104 472.40327 
L 655.776 471.807627 
L 674.784 470.654162 
L 709.632 468.755286 
L 734.976 468.081049 
L 785.664 467.38926 
L 788.832 467.279124 
L 788.832 467.279124 
" clip-path="url(#pfd4881d93b)" style="fill: none; stroke: #000000; stroke-width: 1.5; stroke-linecap: square"/>
   </g>
  </g>
 </g>
 <defs>
  <clipPath id="pfd4881d93b">
   <rect x="0" y="0" width="792" height="612"/>
  </clipPath>
 </defs>
</svg>
