<?xml version="1.0" encoding="utf-8" standalone="no"?>
<!DOCTYPE svg PUBLIC "-//W3C//DTD SVG 1.1//EN"
  "http://www.w3.org/Graphics/SVG/1.1/DTD/svg11.dtd">
<svg xmlns:xlink="http://www.w3.org/1999/xlink" width="792pt" height="612pt" viewBox="0 0 792 612" xmlns="http://www.w3.org/2000/svg" version="1.1">
 <metadata>
  <rdf:RDF xmlns:dc="http://purl.org/dc/elements/1.1/" xmlns:cc="http://creativecommons.org/ns#" xmlns:rdf="http://www.w3.org/1999/02/22-rdf-syntax-ns#">
   <cc:Work>
    <dc:type rdf:resource="http://purl.org/dc/dcmitype/StillImage"/>
    <dc:date>2023-01-09T02:28:30.204066</dc:date>
    <dc:format>image/svg+xml</dc:format>
    <dc:creator>
     <cc:Agent>
      <dc:title>Matplotlib v3.6.2, https://matplotlib.org/</dc:title>
     </cc:Agent>
    </dc:creator>
   </cc:Work>
  </rdf:RDF>
 </metadata>
 <defs>
  <style type="text/css">*{stroke-linejoin: round; stroke-linecap: butt}</style>
 </defs>
 <g id="figure_1">
  <g id="patch_1">
   <path d="M 0 612 
L 792 612 
L 792 0 
L 0 0 
z
" style="fill: #ffffff"/>
  </g>
  <g id="axes_1">
   <g id="line2d_1">
    <path d="M 0 459 
L 12.774194 462.2225 
L 25.548387 461.662507 
L 38.322581 449.02862 
L 51.096774 459.279996 
L 63.870968 449.578185 
L 76.645161 438.685569 
L 89.419355 441.872201 
L 102.193548 443.321235 
L 114.967742 421.573991 
L 127.741935 416.118031 
L 140.516129 410.523242 
L 153.290323 405.560569 
L 166.064516 403.317124 
L 178.83871 396.348576 
L 191.612903 392.321839 
L 204.387097 386.249419 
L 217.16129 384.449028 
L 229.935484 385.817709 
L 242.709677 372.430566 
L 255.483871 365.60194 
L 268.258065 363.466605 
L 281.032258 366.422099 
L 293.806452 342.807629 
L 306.580645 333.060076 
L 319.354839 337.038656 
L 332.129032 336.300896 
L 344.903226 337.08124 
L 357.677419 340.709051 
L 370.451613 341.536434 
L 383.225806 340.096176 
L 396 334.898202 
L 408.774194 331.53633 
L 421.548387 327.866543 
L 434.322581 337.038656 
L 447.096774 335.124732 
L 459.870968 331.67729 
L 472.645161 334.983143 
L 485.419355 339.569183 
L 498.193548 352.538394 
L 510.967742 365.089656 
L 523.741935 369.473762 
L 536.516129 372.180195 
L 549.290323 370.620276 
L 562.064516 364.694633 
L 574.83871 356.665852 
L 587.612903 368.798155 
L 600.387097 384.389551 
L 613.16129 389.573478 
L 625.935484 392.172345 
L 638.709677 392.35174 
L 651.483871 383.898963 
L 664.258065 390.723 
L 677.032258 390.827546 
L 689.806452 396.123771 
L 702.580645 397.773042 
L 715.354839 393.937299 
L 728.129032 394.012129 
L 740.903226 389.767491 
L 753.677419 387.560242 
L 766.451613 393.44351 
L 779.225806 386.994057 
" clip-path="url(#p4eab6bd28d)" style="fill: none; stroke: #000000; stroke-width: 1.5; stroke-linecap: square"/>
   </g>
   <g id="line2d_2">
    <path d="M 0 459 
L 12.774194 459 
L 25.548387 461.148333 
L 38.322581 461.442147 
L 51.096774 457.100111 
L 63.870968 458.514236 
L 76.645161 453.974818 
L 89.419355 446.266476 
L 102.193548 444.06038 
L 114.967742 443.660077 
L 127.741935 432.509507 
L 140.516129 424.203226 
L 153.290323 417.278681 
L 166.064516 411.306031 
L 178.83871 407.217526 
L 191.612903 401.692447 
L 204.387097 396.904282 
L 217.16129 391.456905 
L 229.935484 387.876561 
L 242.709677 386.787855 
L 255.483871 379.515083 
L 268.258065 372.460313 
L 281.032258 367.877152 
L 293.806452 367.091375 
L 306.580645 354.776684 
L 319.354839 343.746943 
L 332.129032 340.294996 
L 344.903226 338.200693 
L 357.677419 337.572759 
L 370.451613 339.091354 
L 383.225806 340.270574 
L 396 340.132494 
L 408.774194 337.495618 
L 421.548387 334.507315 
L 434.322581 331.161723 
L 447.096774 334.096103 
L 459.870968 334.60642 
L 472.645161 333.122828 
L 485.419355 334.039649 
L 498.193548 336.798615 
L 510.967742 344.66729 
L 523.741935 354.890413 
L 536.516129 362.239318 
L 549.290323 367.268346 
L 562.064516 369.01381 
L 574.83871 366.918112 
L 587.612903 361.822534 
L 600.387097 365.362672 
L 613.16129 374.901528 
L 625.935484 382.265529 
L 638.709677 387.255093 
L 651.483871 389.841006 
L 664.258065 386.893114 
L 677.032258 388.858279 
L 689.806452 389.910428 
L 702.580645 393.068005 
L 715.354839 395.445138 
L 728.129032 394.699614 
L 740.903226 394.359445 
L 753.677419 392.056686 
L 766.451613 389.813965 
L 779.225806 391.632994 
" clip-path="url(#p4eab6bd28d)" style="fill: none; stroke: #000000; stroke-width: 1.5; stroke-linecap: square"/>
   </g>
   <g id="line2d_3">
    <path d="M 0 459 
L 12.774194 459 
L 25.548387 460.887697 
L 38.322581 461.238749 
L 51.096774 459.066237 
L 63.870968 459.14229 
L 76.645161 456.129764 
L 89.419355 450.521762 
L 102.193548 447.818535 
L 114.967742 446.440132 
L 127.741935 438.907552 
L 140.516129 432.06624 
L 153.290323 425.639465 
L 166.064516 419.675853 
L 178.83871 414.834364 
L 191.612903 409.372093 
L 204.387097 404.342001 
L 217.16129 398.93946 
L 229.935484 394.58573 
L 242.709677 391.92041 
L 255.483871 386.095991 
L 268.258065 379.951963 
L 281.032258 375.002432 
L 293.806452 372.401255 
L 306.580645 363.531578 
L 319.354839 354.377389 
L 332.129032 349.168954 
L 344.903226 345.290679 
L 357.677419 342.795891 
L 370.451613 342.111803 
L 383.225806 341.874326 
L 396 341.290208 
L 408.774194 339.348475 
L 421.548387 336.990973 
L 434.322581 334.243847 
L 447.096774 335.006943 
L 459.870968 334.999484 
L 472.645161 333.986651 
L 485.419355 334.246234 
L 498.193548 335.771376 
L 510.967742 340.659242 
L 523.741935 347.784744 
L 536.516129 354.125192 
L 549.290323 359.422329 
L 562.064516 362.728838 
L 574.83871 363.332081 
L 587.612903 361.392674 
L 600.387097 363.589661 
L 613.16129 369.701214 
L 625.935484 375.557055 
L 638.709677 380.47765 
L 651.483871 384.009717 
L 664.258065 384.034559 
L 677.032258 386.059679 
L 689.806452 387.520088 
L 702.580645 390.101212 
L 715.354839 392.397035 
L 728.129032 392.881473 
L 740.903226 393.240969 
L 753.677419 392.24316 
L 766.451613 390.889674 
L 779.225806 391.670569 
" clip-path="url(#p4eab6bd28d)" style="fill: none; stroke: #000000; stroke-width: 1.5; stroke-linecap: square"/>
   </g>
   <g id="line2d_4">
    <path d="M 0 459 
L 12.774194 459 
L 25.548387 460.750506 
L 38.322581 461.108434 
L 51.096774 459.379694 
L 63.870968 459.352324 
L 76.645161 457.47761 
L 89.419355 453.220047 
L 102.193548 450.811676 
L 114.967742 449.302217 
L 127.741935 443.931367 
L 140.516129 438.718869 
L 153.290323 433.57423 
L 166.064516 428.573616 
L 178.83871 424.147828 
L 191.612903 419.345541 
L 204.387097 414.734431 
L 217.16129 409.920604 
L 229.935484 405.654872 
L 242.709677 402.360828 
L 255.483871 397.404239 
L 268.258065 392.157703 
L 281.032258 387.446712 
L 293.806452 384.014769 
L 306.580645 377.250026 
L 319.354839 369.994088 
L 332.129032 364.617034 
L 344.903226 360.012092 
L 357.677419 356.296378 
L 370.451613 353.782034 
L 383.225806 351.811698 
L 396 349.928595 
L 408.774194 347.510114 
L 421.548387 344.871498 
L 434.322581 342.057673 
L 447.096774 341.179599 
L 459.870968 340.145103 
L 472.645161 338.715376 
L 485.419355 338.052034 
L 498.193548 338.234041 
L 510.967742 340.440824 
L 523.741935 344.27165 
L 536.516129 348.205697 
L 549.290323 351.954873 
L 562.064516 354.877339 
L 574.83871 356.407983 
L 587.612903 356.42048 
L 600.387097 358.363034 
L 613.16129 362.458739 
L 625.935484 366.733364 
L 638.709677 370.750679 
L 651.483871 374.16718 
L 664.258065 375.717659 
L 677.032258 378.109363 
L 689.806452 380.14198 
L 702.580645 382.691235 
L 715.354839 385.115151 
L 728.129032 386.554007 
L 740.903226 387.774358 
L 753.677419 388.125391 
L 766.451613 388.06767 
L 779.225806 388.955217 
" clip-path="url(#p4eab6bd28d)" style="fill: none; stroke: #000000; stroke-width: 1.5; stroke-linecap: square"/>
   </g>
   <g id="line2d_5">
    <path d="M 0 459 
L 12.774194 459 
L 25.548387 460.681008 
L 38.322581 461.036895 
L 51.096774 459.51771 
L 63.870968 459.461594 
L 76.645161 458.1721 
L 89.419355 454.613312 
L 102.193548 452.497394 
L 114.967742 451.090434 
L 127.741935 446.853708 
L 140.516129 442.689589 
L 153.290323 438.544091 
L 166.064516 434.474867 
L 178.83871 430.777293 
L 191.612903 426.825224 
L 204.387097 422.981663 
L 217.16129 418.995192 
L 229.935484 415.336166 
L 242.709677 412.279976 
L 255.483871 408.219398 
L 268.258065 403.945343 
L 281.032258 399.949769 
L 293.806452 396.693807 
L 306.580645 391.480821 
L 319.354839 385.875069 
L 332.129032 381.254266 
L 344.903226 377.045633 
L 357.677419 373.343023 
L 370.451613 370.352802 
L 383.225806 367.735386 
L 396 365.242061 
L 408.774194 362.516383 
L 421.548387 359.746706 
L 434.322581 356.90813 
L 447.096774 355.158149 
L 459.870968 353.400632 
L 472.645161 351.499978 
L 485.419355 350.06384 
L 498.193548 349.157153 
L 510.967742 349.446347 
L 523.741935 350.773083 
L 536.516129 352.35331 
L 549.290323 354.024414 
L 562.064516 355.422432 
L 574.83871 356.204582 
L 587.612903 356.243581 
L 600.387097 357.297689 
L 613.16129 359.556294 
L 625.935484 362.053653 
L 638.709677 364.557257 
L 651.483871 366.867707 
L 664.258065 368.287627 
L 677.032258 370.153133 
L 689.806452 371.872086 
L 702.580645 373.884966 
L 715.354839 375.866928 
L 728.129032 377.368193 
L 740.903226 378.750906 
L 753.677419 379.667329 
L 766.451613 380.324271 
L 779.225806 381.413929 
" clip-path="url(#p4eab6bd28d)" style="fill: none; stroke: #000000; stroke-width: 1.5; stroke-linecap: square"/>
   </g>
   <g id="line2d_6">
    <path d="M 0 459 
L 12.774194 459 
L 25.548387 460.646145 
L 38.322581 460.999711 
L 51.096774 459.581004 
L 63.870968 459.515477 
L 76.645161 458.514606 
L 89.419355 455.298742 
L 102.193548 453.354295 
L 114.967742 452.036328 
L 127.741935 448.354302 
L 140.516129 444.737747 
L 153.290323 441.145488 
L 166.064516 437.625232 
L 178.83871 434.410473 
L 191.612903 431.011945 
L 204.387097 427.707794 
L 217.16129 424.306694 
L 229.935484 421.158852 
L 242.709677 418.466385 
L 255.483871 415.058792 
L 268.258065 411.500203 
L 281.032258 408.138986 
L 293.806452 405.300044 
L 306.580645 401.111246 
L 319.354839 396.635108 
L 332.129032 392.809035 
L 344.903226 389.255023 
L 357.677419 386.038954 
L 370.451613 383.301212 
L 383.225806 380.823525 
L 396 378.445154 
L 408.774194 375.934644 
L 421.548387 373.408077 
L 434.322581 370.847388 
L 447.096774 368.981216 
L 459.870968 367.133757 
L 472.645161 365.218213 
L 485.419355 363.606193 
L 498.193548 362.341471 
L 510.967742 361.834255 
L 523.741935 362.000154 
L 536.516129 362.377059 
L 549.290323 362.866945 
L 562.064516 363.251744 
L 574.83871 363.323025 
L 587.612903 362.995227 
L 600.387097 363.277462 
L 613.16129 364.29151 
L 625.935484 365.496826 
L 638.709677 366.760863 
L 651.483871 367.967532 
L 664.258065 368.717512 
L 677.032258 369.746119 
L 689.806452 370.7273 
L 702.580645 371.902416 
L 715.354839 373.094325 
L 728.129032 374.052363 
L 740.903226 374.966575 
L 753.677419 375.643194 
L 766.451613 376.186607 
L 779.225806 376.96946 
" clip-path="url(#p4eab6bd28d)" style="fill: none; stroke: #000000; stroke-width: 1.5; stroke-linecap: square"/>
   </g>
   <g id="line2d_7">
    <path d="M 0 459 
L 12.774194 459 
L 25.548387 460.6287 
L 38.322581 460.980793 
L 51.096774 459.611117 
L 63.870968 459.541993 
L 76.645161 458.683318 
L 89.419355 455.635585 
L 102.193548 453.781046 
L 114.967742 452.515132 
L 127.741935 449.102815 
L 140.516129 445.758642 
L 153.290323 442.446948 
L 166.064516 439.210787 
L 178.83871 436.25535 
L 191.612903 433.152608 
L 204.387097 430.143429 
L 217.16129 427.063318 
L 229.935484 424.20954 
L 242.709677 421.750673 
L 255.483871 418.707687 
L 268.258065 415.549175 
L 281.032258 412.56132 
L 293.806452 410.007953 
L 306.580645 406.374486 
L 319.354839 402.514953 
L 332.129032 399.1763 
L 344.903226 396.059198 
L 357.677419 393.214848 
L 370.451613 390.751976 
L 383.225806 388.500856 
L 396 386.337102 
L 408.774194 384.083258 
L 421.548387 381.826417 
L 434.322581 379.552265 
L 447.096774 377.805037 
L 459.870968 376.082633 
L 472.645161 374.320162 
L 485.419355 372.789291 
L 498.193548 371.521603 
L 510.967742 370.813718 
L 523.741935 370.604807 
L 536.516129 370.564217 
L 549.290323 370.621319 
L 562.064516 370.621282 
L 574.83871 370.416819 
L 587.612903 369.946822 
L 600.387097 369.908267 
L 613.16129 370.385515 
L 625.935484 371.009505 
L 638.709677 371.689575 
L 651.483871 372.34651 
L 664.258065 372.711157 
L 677.032258 373.272613 
L 689.806452 373.814544 
L 702.580645 374.495601 
L 715.354839 375.199464 
L 728.129032 375.761845 
L 740.903226 376.304935 
L 753.677419 376.702827 
L 766.451613 377.021388 
L 779.225806 377.498477 
" clip-path="url(#p4eab6bd28d)" style="fill: none; stroke: #000000; stroke-width: 1.5; stroke-linecap: square"/>
   </g>
   <g id="line2d_8">
    <path d="M 0 459 
L 12.774194 459 
L 25.548387 460.619975 
L 38.322581 460.971256 
L 51.096774 459.625779 
L 63.870968 459.555116 
L 76.645161 458.766869 
L 89.419355 455.80216 
L 102.193548 453.993321 
L 114.967742 452.75502 
L 127.741935 449.475054 
L 140.516129 446.265735 
L 153.290323 443.093942 
L 166.064516 440.000487 
L 178.83871 437.177151 
L 191.612903 434.224631 
L 204.387097 431.366458 
L 217.16129 428.450673 
L 229.935484 425.749993 
L 242.709677 423.417287 
L 255.483871 420.561821 
L 268.258065 417.608865 
L 281.032258 414.8162 
L 293.806452 412.419501 
L 306.580645 409.067053 
L 319.354839 405.519602 
L 332.129032 402.437853 
L 344.903226 399.557254 
L 357.677419 396.922028 
L 370.451613 394.626188 
L 383.225806 392.521247 
L 396 390.498873 
L 408.774194 388.405778 
L 421.548387 386.316464 
L 434.322581 384.218433 
L 447.096774 382.574033 
L 459.870968 380.957097 
L 472.645161 379.312545 
L 485.419355 377.868147 
L 498.193548 376.649631 
L 510.967742 375.903105 
L 523.741935 375.576787 
L 536.516129 375.396458 
L 549.290323 375.303281 
L 562.064516 375.169951 
L 574.83871 374.876151 
L 587.612903 374.372248 
L 600.387097 374.221384 
L 613.16129 374.490504 
L 625.935484 374.882805 
L 638.709677 375.325358 
L 651.483871 375.754793 
L 664.258065 375.95789 
L 677.032258 376.320073 
L 689.806452 376.671099 
L 702.580645 377.134728 
L 715.354839 377.620028 
L 728.129032 377.99938 
L 740.903226 378.367063 
L 753.677419 378.626063 
L 766.451613 378.826794 
L 779.225806 379.150749 
" clip-path="url(#p4eab6bd28d)" style="fill: none; stroke: #000000; stroke-width: 1.5; stroke-linecap: square"/>
   </g>
   <g id="line2d_9">
    <path d="M 0 459 
L 12.774194 459 
L 25.548387 460.615612 
L 38.322581 460.966469 
L 51.096774 459.633009 
L 63.870968 459.56164 
L 76.645161 458.808423 
L 89.419355 455.884938 
L 102.193548 454.099099 
L 114.967742 452.874961 
L 127.741935 449.660471 
L 140.516129 446.518123 
L 153.290323 443.41601 
L 166.064516 440.393847 
L 178.83871 437.636898 
L 191.612903 434.759741 
L 204.387097 431.977559 
L 217.16129 429.14443 
L 229.935484 426.521289 
L 242.709677 424.25344 
L 255.483871 421.492372 
L 268.258065 418.642785 
L 281.032258 415.948949 
L 293.806452 413.633108 
L 306.580645 410.420816 
L 319.354839 407.028897 
L 332.129032 404.077303 
L 344.903226 401.317755 
L 357.677419 398.791128 
L 370.451613 396.584441 
L 383.225806 394.559079 
L 396 392.614196 
L 408.774194 390.607815 
L 421.548387 388.608617 
L 434.322581 386.604978 
L 447.096774 385.021152 
L 459.870968 383.466065 
L 472.645161 381.889215 
L 485.419355 380.498085 
L 498.193548 379.315622 
L 510.967742 378.564545 
L 523.741935 378.197035 
L 536.516129 377.964641 
L 549.290323 377.813912 
L 562.064516 377.630138 
L 574.83871 377.305387 
L 587.612903 376.795388 
L 600.387097 376.602557 
L 613.16129 376.78574 
L 625.935484 377.080661 
L 638.709677 377.422374 
L 651.483871 377.754667 
L 664.258065 377.889562 
L 677.032258 378.166054 
L 689.806452 378.434501 
L 702.580645 378.803063 
L 715.354839 379.192103 
L 728.129032 379.490378 
L 740.903226 379.779838 
L 753.677419 379.976353 
L 766.451613 380.123586 
L 779.225806 380.378092 
" clip-path="url(#p4eab6bd28d)" style="fill: none; stroke: #000000; stroke-width: 1.5; stroke-linecap: square"/>
   </g>
  </g>
 </g>
 <defs>
  <clipPath id="p4eab6bd28d">
   <rect x="0" y="0" width="792" height="612"/>
  </clipPath>
 </defs>
</svg>
