<?xml version="1.0" encoding="utf-8" standalone="no"?>
<!DOCTYPE svg PUBLIC "-//W3C//DTD SVG 1.1//EN"
  "http://www.w3.org/Graphics/SVG/1.1/DTD/svg11.dtd">
<svg xmlns:xlink="http://www.w3.org/1999/xlink" width="792pt" height="612pt" viewBox="0 0 792 612" xmlns="http://www.w3.org/2000/svg" version="1.1">
 <metadata>
  <rdf:RDF xmlns:dc="http://purl.org/dc/elements/1.1/" xmlns:cc="http://creativecommons.org/ns#" xmlns:rdf="http://www.w3.org/1999/02/22-rdf-syntax-ns#">
   <cc:Work>
    <dc:type rdf:resource="http://purl.org/dc/dcmitype/StillImage"/>
    <dc:date>2023-01-16T16:14:19.970076</dc:date>
    <dc:format>image/svg+xml</dc:format>
    <dc:creator>
     <cc:Agent>
      <dc:title>Matplotlib v3.6.2, https://matplotlib.org/</dc:title>
     </cc:Agent>
    </dc:creator>
   </cc:Work>
  </rdf:RDF>
 </metadata>
 <defs>
  <style type="text/css">*{stroke-linejoin: round; stroke-linecap: butt}</style>
 </defs>
 <g id="figure_1">
  <g id="patch_1">
   <path d="M 0 612 
L 792 612 
L 792 0 
L 0 0 
z
" style="fill: #ffffff"/>
  </g>
  <g id="axes_1">
   <g id="line2d_1">
    <path d="M 0 306 
L 44 305.574318 
L 88 300.441331 
L 132 312.116208 
L 176 304.215207 
L 220 307.838403 
L 264 309.399155 
L 308 301.074658 
L 352 306.459625 
L 396 306.220836 
L 440 302.423281 
L 484 309.04906 
L 528 298.427777 
L 572 306.201735 
L 616 303.683115 
L 660 301.549132 
L 704 303.786793 
L 748 304.638177 
" clip-path="url(#p9c96dc63fc)" style="fill: none; stroke: #000000; stroke-width: 1.5; stroke-linecap: square"/>
   </g>
   <g id="line2d_2">
    <path d="M 0 306 
L 44 306 
L 88 305.716212 
L 132 302.701772 
L 176 307.723161 
L 220 305.912602 
L 264 306.890795 
L 308 308.154887 
L 352 304.600704 
L 396 305.531061 
L 440 305.877216 
L 484 304.154077 
L 528 306.595592 
L 572 302.499713 
L 616 304.347455 
L 660 304.004075 
L 704 302.777482 
L 748 303.27689 
" clip-path="url(#p9c96dc63fc)" style="fill: none; stroke: #000000; stroke-width: 1.5; stroke-linecap: square"/>
   </g>
   <g id="line2d_3">
    <path d="M 0 306 
L 44 306 
L 88 305.750641 
L 132 303.344878 
L 176 306.770572 
L 220 305.861396 
L 264 306.523177 
L 308 307.447239 
L 352 305.456196 
L 396 305.763682 
L 440 305.901899 
L 484 304.859969 
L 528 306.106427 
L 572 303.831855 
L 616 304.531428 
L 660 304.28158 
L 704 303.478078 
L 748 303.565956 
" clip-path="url(#p9c96dc63fc)" style="fill: none; stroke: #000000; stroke-width: 1.5; stroke-linecap: square"/>
   </g>
   <g id="line2d_4">
    <path d="M 0 306 
L 44 306 
L 88 305.768764 
L 132 303.677742 
L 176 306.363151 
L 220 305.773473 
L 264 306.281699 
L 308 306.987576 
L 352 305.733133 
L 396 305.879488 
L 440 305.94546 
L 484 305.287192 
L 528 305.97124 
L 572 304.629809 
L 616 304.904155 
L 660 304.694281 
L 704 304.160478 
L 748 304.097725 
" clip-path="url(#p9c96dc63fc)" style="fill: none; stroke: #000000; stroke-width: 1.5; stroke-linecap: square"/>
   </g>
   <g id="line2d_5">
    <path d="M 0 306 
L 44 306 
L 88 305.777944 
L 132 303.84273 
L 176 306.187357 
L 220 305.721796 
L 264 306.155129 
L 308 306.747222 
L 352 305.805553 
L 396 305.905803 
L 440 305.950918 
L 484 305.474404 
L 528 305.933359 
L 572 305.011388 
L 616 305.15198 
L 660 304.984374 
L 704 304.604197 
L 748 304.516176 
" clip-path="url(#p9c96dc63fc)" style="fill: none; stroke: #000000; stroke-width: 1.5; stroke-linecap: square"/>
   </g>
   <g id="line2d_6">
    <path d="M 0 306 
L 44 306 
L 88 305.782549 
L 132 303.924299 
L 176 306.107411 
L 220 305.695487 
L 264 306.09241 
L 308 306.628373 
L 352 305.824404 
L 396 305.907815 
L 440 305.945562 
L 484 305.551599 
L 528 305.917377 
L 572 305.179813 
L 616 305.275088 
L 660 305.133843 
L 704 304.82986 
L 748 304.745011 
" clip-path="url(#p9c96dc63fc)" style="fill: none; stroke: #000000; stroke-width: 1.5; stroke-linecap: square"/>
   </g>
   <g id="line2d_7">
    <path d="M 0 306 
L 44 306 
L 88 305.784854 
L 132 303.964783 
L 176 306.06951 
L 220 305.682408 
L 264 306.06148 
L 308 306.569847 
L 352 305.829703 
L 396 305.90591 
L 440 305.94056 
L 484 305.58505 
L 528 305.909342 
L 572 305.255977 
L 616 305.333449 
L 660 305.20597 
L 704 304.938417 
L 748 304.858307 
" clip-path="url(#p9c96dc63fc)" style="fill: none; stroke: #000000; stroke-width: 1.5; stroke-linecap: square"/>
   </g>
   <g id="line2d_8">
    <path d="M 0 306 
L 44 306 
L 88 305.786006 
L 132 303.984941 
L 176 306.051086 
L 220 305.67591 
L 264 306.046158 
L 308 306.54088 
L 352 305.831368 
L 396 305.904237 
L 440 305.937462 
L 484 305.600396 
L 528 305.90522 
L 572 305.291792 
L 616 305.361461 
L 660 305.240889 
L 704 304.990922 
L 748 304.913787 
" clip-path="url(#p9c96dc63fc)" style="fill: none; stroke: #000000; stroke-width: 1.5; stroke-linecap: square"/>
   </g>
   <g id="line2d_9">
    <path d="M 0 306 
L 44 306 
L 88 305.786583 
L 132 303.994998 
L 176 306.042006 
L 220 305.672675 
L 264 306.038537 
L 308 306.526479 
L 352 305.831962 
L 396 305.903223 
L 440 305.935764 
L 484 305.607716 
L 528 305.903122 
L 572 305.309105 
L 616 305.375133 
L 660 305.258003 
L 704 305.016647 
L 748 304.941125 
" clip-path="url(#p9c96dc63fc)" style="fill: none; stroke: #000000; stroke-width: 1.5; stroke-linecap: square"/>
   </g>
  </g>
 </g>
 <defs>
  <clipPath id="p9c96dc63fc">
   <rect x="0" y="0" width="792" height="612"/>
  </clipPath>
 </defs>
</svg>
