<?xml version="1.0" encoding="utf-8" standalone="no"?>
<!DOCTYPE svg PUBLIC "-//W3C//DTD SVG 1.1//EN"
  "http://www.w3.org/Graphics/SVG/1.1/DTD/svg11.dtd">
<svg xmlns:xlink="http://www.w3.org/1999/xlink" width="792pt" height="612pt" viewBox="0 0 792 612" xmlns="http://www.w3.org/2000/svg" version="1.1">
 <metadata>
  <rdf:RDF xmlns:dc="http://purl.org/dc/elements/1.1/" xmlns:cc="http://creativecommons.org/ns#" xmlns:rdf="http://www.w3.org/1999/02/22-rdf-syntax-ns#">
   <cc:Work>
    <dc:type rdf:resource="http://purl.org/dc/dcmitype/StillImage"/>
    <dc:date>2023-01-30T16:24:12.710084</dc:date>
    <dc:format>image/svg+xml</dc:format>
    <dc:creator>
     <cc:Agent>
      <dc:title>Matplotlib v3.6.2, https://matplotlib.org/</dc:title>
     </cc:Agent>
    </dc:creator>
   </cc:Work>
  </rdf:RDF>
 </metadata>
 <defs>
  <style type="text/css">*{stroke-linejoin: round; stroke-linecap: butt}</style>
 </defs>
 <g id="figure_1">
  <g id="patch_1">
   <path d="M 0 612 
L 792 612 
L 792 0 
L 0 0 
z
" style="fill: #ffffff"/>
  </g>
  <g id="axes_1">
   <g id="line2d_1">
    <path d="M 0 306 
L 44 305.574318 
L 88 300.441331 
L 132 310.785874 
L 176 305.545945 
L 220 307.385193 
L 264 309.841049 
L 308 301.085922 
L 352 306.459625 
L 396 306.220836 
L 440 302.423281 
L 484 308.526587 
L 528 298.949996 
L 572 306.201735 
L 616 303.683115 
L 660 301.549132 
L 704 303.786793 
L 748 304.638177 
" clip-path="url(#p83c5f5763d)" style="fill: none; stroke: #000000; stroke-width: 1.5; stroke-linecap: square"/>
   </g>
   <g id="line2d_2">
    <path d="M 0 306 
L 44 306 
L 88 305.716212 
L 132 302.701772 
L 176 307.013438 
L 220 306.256024 
L 264 306.829573 
L 308 308.347224 
L 352 304.702153 
L 396 305.581787 
L 440 305.902579 
L 484 304.166758 
L 528 306.342259 
L 572 302.632704 
L 616 304.414845 
L 660 304.036903 
L 704 302.793873 
L 748 303.285085 
" clip-path="url(#p83c5f5763d)" style="fill: none; stroke: #000000; stroke-width: 1.5; stroke-linecap: square"/>
   </g>
   <g id="line2d_3">
    <path d="M 0 306 
L 44 306 
L 88 305.750641 
L 132 303.344878 
L 176 306.25088 
L 220 306.000072 
L 264 306.463724 
L 308 307.548882 
L 352 305.529605 
L 396 305.814596 
L 440 305.937419 
L 484 304.884851 
L 528 305.968435 
L 572 303.88948 
L 616 304.572043 
L 660 304.310233 
L 704 303.498305 
L 748 303.580259 
" clip-path="url(#p83c5f5763d)" style="fill: none; stroke: #000000; stroke-width: 1.5; stroke-linecap: square"/>
   </g>
   <g id="line2d_4">
    <path d="M 0 306 
L 44 306 
L 88 305.768764 
L 132 303.677742 
L 176 305.939694 
L 220 305.831598 
L 264 306.213972 
L 308 307.035249 
L 352 305.773084 
L 396 305.91139 
L 440 305.971197 
L 484 305.308119 
L 528 305.893351 
L 572 304.658667 
L 616 304.927976 
L 660 304.714008 
L 704 304.176857 
L 748 304.111353 
" clip-path="url(#p83c5f5763d)" style="fill: none; stroke: #000000; stroke-width: 1.5; stroke-linecap: square"/>
   </g>
   <g id="line2d_5">
    <path d="M 0 306 
L 44 306 
L 88 305.777944 
L 132 303.84273 
L 176 305.810266 
L 220 305.747869 
L 264 306.083077 
L 308 306.768981 
L 352 305.825571 
L 396 305.922753 
L 440 305.96544 
L 484 305.486965 
L 528 305.877223 
L 572 305.026318 
L 616 305.165146 
L 660 304.996037 
L 704 304.61457 
L 748 304.525432 
" clip-path="url(#p83c5f5763d)" style="fill: none; stroke: #000000; stroke-width: 1.5; stroke-linecap: square"/>
   </g>
   <g id="line2d_6">
    <path d="M 0 306 
L 44 306 
L 88 305.782549 
L 132 303.924299 
L 176 305.752801 
L 220 305.70777 
L 264 306.01847 
L 308 306.638046 
L 352 305.834308 
L 396 305.916419 
L 440 305.953128 
L 484 305.558319 
L 528 305.868749 
L 572 305.187419 
L 616 305.281985 
L 660 305.140128 
L 704 304.835612 
L 748 304.750295 
" clip-path="url(#p83c5f5763d)" style="fill: none; stroke: #000000; stroke-width: 1.5; stroke-linecap: square"/>
   </g>
   <g id="line2d_7">
    <path d="M 0 306 
L 44 306 
L 88 305.784854 
L 132 303.964783 
L 176 305.725934 
L 220 305.68836 
L 264 305.9867 
L 308 306.573769 
L 352 305.834614 
L 396 305.910227 
L 440 305.944402 
L 484 305.588504 
L 528 305.863557 
L 572 305.259812 
L 616 305.33697 
L 660 305.209218 
L 704 304.941428 
L 748 304.861109 
" clip-path="url(#p83c5f5763d)" style="fill: none; stroke: #000000; stroke-width: 1.5; stroke-linecap: square"/>
   </g>
   <g id="line2d_8">
    <path d="M 0 306 
L 44 306 
L 88 305.786006 
L 132 303.984941 
L 176 305.712972 
L 220 305.678839 
L 264 305.970989 
L 308 306.542008 
L 352 305.833812 
L 396 305.906397 
L 440 305.939395 
L 484 305.602144 
L 528 305.86063 
L 572 305.293716 
L 616 305.363238 
L 660 305.242538 
L 704 304.99246 
L 748 304.915227 
" clip-path="url(#p83c5f5763d)" style="fill: none; stroke: #000000; stroke-width: 1.5; stroke-linecap: square"/>
   </g>
   <g id="line2d_9">
    <path d="M 0 306 
L 44 306 
L 88 305.786583 
L 132 303.994998 
L 176 305.706609 
L 220 305.674127 
L 264 305.963181 
L 308 306.526231 
L 352 305.833181 
L 396 305.904303 
L 440 305.936733 
L 484 305.608595 
L 528 305.859073 
L 572 305.310069 
L 616 305.376025 
L 660 305.258834 
L 704 305.017424 
L 748 304.941854 
" clip-path="url(#p83c5f5763d)" style="fill: none; stroke: #000000; stroke-width: 1.5; stroke-linecap: square"/>
   </g>
  </g>
 </g>
 <defs>
  <clipPath id="p83c5f5763d">
   <rect x="0" y="0" width="792" height="612"/>
  </clipPath>
 </defs>
</svg>
