<?xml version="1.0" encoding="utf-8" standalone="no"?>
<!DOCTYPE svg PUBLIC "-//W3C//DTD SVG 1.1//EN"
  "http://www.w3.org/Graphics/SVG/1.1/DTD/svg11.dtd">
<svg xmlns:xlink="http://www.w3.org/1999/xlink" width="792pt" height="612pt" viewBox="0 0 792 612" xmlns="http://www.w3.org/2000/svg" version="1.1">
 <metadata>
  <rdf:RDF xmlns:dc="http://purl.org/dc/elements/1.1/" xmlns:cc="http://creativecommons.org/ns#" xmlns:rdf="http://www.w3.org/1999/02/22-rdf-syntax-ns#">
   <cc:Work>
    <dc:type rdf:resource="http://purl.org/dc/dcmitype/StillImage"/>
    <dc:date>2023-01-23T15:54:12.734091</dc:date>
    <dc:format>image/svg+xml</dc:format>
    <dc:creator>
     <cc:Agent>
      <dc:title>Matplotlib v3.6.2, https://matplotlib.org/</dc:title>
     </cc:Agent>
    </dc:creator>
   </cc:Work>
  </rdf:RDF>
 </metadata>
 <defs>
  <style type="text/css">*{stroke-linejoin: round; stroke-linecap: butt}</style>
 </defs>
 <g id="figure_1">
  <g id="patch_1">
   <path d="M 0 612 
L 792 612 
L 792 0 
L 0 0 
z
" style="fill: #ffffff"/>
  </g>
  <g id="axes_1">
   <g id="line2d_1">
    <path d="M 0 459 
L 44 458.361477 
L 88 450.0237 
L 132 457.20196 
L 176 456.520892 
L 220 458.598672 
L 264 460.786849 
L 308 456.98881 
L 352 457.678238 
L 396 458.009491 
L 440 452.644573 
L 484 456.43416 
L 528 445.860845 
L 572 446.163206 
L 616 442.691332 
L 660 436.026904 
L 704 432.716607 
L 748 430.68109 
" clip-path="url(#p7012fa2f00)" style="fill: none; stroke: #000000; stroke-width: 1.5; stroke-linecap: square"/>
   </g>
   <g id="line2d_2">
    <path d="M 0 459 
L 44 459 
L 88 458.574318 
L 132 453.687834 
L 176 455.561983 
L 220 456.056901 
L 264 457.347947 
L 308 459.627284 
L 352 458.927691 
L 396 458.300372 
L 440 458.154241 
L 484 455.404418 
L 528 455.917779 
L 572 450.867436 
L 616 448.490668 
L 660 445.547999 
L 704 440.744414 
L 748 436.679918 
" clip-path="url(#p7012fa2f00)" style="fill: none; stroke: #000000; stroke-width: 1.5; stroke-linecap: square"/>
   </g>
   <g id="line2d_3">
    <path d="M 0 459 
L 44 459 
L 88 458.625962 
L 132 454.728038 
L 176 455.694143 
L 220 455.988289 
L 264 456.862062 
L 308 459.090418 
L 352 458.558169 
L 396 458.288526 
L 440 458.204162 
L 484 456.538902 
L 528 456.507737 
L 572 453.3537 
L 616 451.230623 
L 660 448.714805 
L 704 444.981528 
L 748 441.356177 
" clip-path="url(#p7012fa2f00)" style="fill: none; stroke: #000000; stroke-width: 1.5; stroke-linecap: square"/>
   </g>
   <g id="line2d_4">
    <path d="M 0 459 
L 44 459 
L 88 458.653146 
L 132 455.26603 
L 176 455.882046 
L 220 456.057427 
L 264 456.682868 
L 308 458.421219 
L 352 458.117348 
L 396 458.028888 
L 440 458.025139 
L 484 457.019532 
L 528 456.913092 
L 572 454.94755 
L 616 453.414023 
L 660 451.570263 
L 704 448.930208 
L 748 446.204608 
" clip-path="url(#p7012fa2f00)" style="fill: none; stroke: #000000; stroke-width: 1.5; stroke-linecap: square"/>
   </g>
   <g id="line2d_5">
    <path d="M 0 459 
L 44 459 
L 88 458.666916 
L 132 455.532583 
L 176 456.00562 
L 220 456.127258 
L 264 456.633216 
L 308 458.04352 
L 352 457.868446 
L 396 457.839292 
L 440 457.863666 
L 484 457.158654 
L 528 457.065637 
L 572 455.689147 
L 616 454.563727 
L 660 453.208444 
L 704 451.305434 
L 748 449.301449 
" clip-path="url(#p7012fa2f00)" style="fill: none; stroke: #000000; stroke-width: 1.5; stroke-linecap: square"/>
   </g>
   <g id="line2d_6">
    <path d="M 0 459 
L 44 459 
L 88 458.673824 
L 132 455.664335 
L 176 456.074064 
L 220 456.171335 
L 264 456.620927 
L 308 457.875311 
L 352 457.746988 
L 396 457.737961 
L 440 457.770704 
L 484 457.19734 
L 528 457.117525 
L 572 456.008891 
L 616 455.090705 
L 660 453.990118 
L 704 452.465586 
L 748 450.857219 
" clip-path="url(#p7012fa2f00)" style="fill: none; stroke: #000000; stroke-width: 1.5; stroke-linecap: square"/>
   </g>
   <g id="line2d_7">
    <path d="M 0 459 
L 44 459 
L 88 458.677281 
L 132 455.729717 
L 176 456.109817 
L 220 456.195631 
L 264 456.618128 
L 308 457.797327 
L 352 457.688436 
L 396 457.687202 
L 440 457.722662 
L 484 457.209382 
L 528 457.136809 
L 572 456.151995 
L 616 455.333531 
L 660 454.356567 
L 704 453.014364 
L 748 451.600753 
" clip-path="url(#p7012fa2f00)" style="fill: none; stroke: #000000; stroke-width: 1.5; stroke-linecap: square"/>
   </g>
   <g id="line2d_8">
    <path d="M 0 459 
L 44 459 
L 88 458.67901 
L 132 455.762272 
L 176 456.128057 
L 220 456.208335 
L 264 456.617581 
L 308 457.759966 
L 352 457.659878 
L 396 457.662008 
L 440 457.698474 
L 484 457.213713 
L 528 457.144811 
L 572 456.219026 
L 616 455.448883 
L 660 454.531979 
L 704 453.277971 
L 748 451.959297 
" clip-path="url(#p7012fa2f00)" style="fill: none; stroke: #000000; stroke-width: 1.5; stroke-linecap: square"/>
   </g>
   <g id="line2d_9">
    <path d="M 0 459 
L 44 459 
L 88 458.679874 
L 132 455.778513 
L 176 456.137266 
L 220 456.214824 
L 264 456.617523 
L 308 457.741705 
L 352 457.6458 
L 396 457.649482 
L 440 457.686367 
L 484 457.215479 
L 528 457.148412 
L 572 456.251385 
L 616 455.504953 
L 660 454.617546 
L 704 453.406749 
L 748 452.134729 
" clip-path="url(#p7012fa2f00)" style="fill: none; stroke: #000000; stroke-width: 1.5; stroke-linecap: square"/>
   </g>
  </g>
 </g>
 <defs>
  <clipPath id="p7012fa2f00">
   <rect x="0" y="0" width="792" height="612"/>
  </clipPath>
 </defs>
</svg>
