<?xml version="1.0" encoding="utf-8" standalone="no"?>
<!DOCTYPE svg PUBLIC "-//W3C//DTD SVG 1.1//EN"
  "http://www.w3.org/Graphics/SVG/1.1/DTD/svg11.dtd">
<svg xmlns:xlink="http://www.w3.org/1999/xlink" width="792pt" height="612pt" viewBox="0 0 792 612" xmlns="http://www.w3.org/2000/svg" version="1.1">
 <metadata>
  <rdf:RDF xmlns:dc="http://purl.org/dc/elements/1.1/" xmlns:cc="http://creativecommons.org/ns#" xmlns:rdf="http://www.w3.org/1999/02/22-rdf-syntax-ns#">
   <cc:Work>
    <dc:type rdf:resource="http://purl.org/dc/dcmitype/StillImage"/>
    <dc:date>2022-12-26T20:30:04.247832</dc:date>
    <dc:format>image/svg+xml</dc:format>
    <dc:creator>
     <cc:Agent>
      <dc:title>Matplotlib v3.6.2, https://matplotlib.org/</dc:title>
     </cc:Agent>
    </dc:creator>
   </cc:Work>
  </rdf:RDF>
 </metadata>
 <defs>
  <style type="text/css">*{stroke-linejoin: round; stroke-linecap: butt}</style>
 </defs>
 <g id="figure_1">
  <g id="patch_1">
   <path d="M 0 612 
L 792 612 
L 792 0 
L 0 0 
z
" style="fill: #ffffff"/>
  </g>
  <g id="axes_1">
   <g id="line2d_1">
    <path d="M 0 306 
L 3.142857 305.509058 
L 6.285714 305.470865 
L 12.571429 307.383909 
L 15.714286 302.44438 
L 18.857143 304.874854 
L 22 309.606883 
L 25.142857 306.904763 
L 28.285714 305.506203 
L 31.428571 306.808725 
L 34.571429 304.561753 
L 37.714286 305.531146 
L 40.857143 308.482495 
L 44 306.770635 
L 47.142857 310.203636 
L 50.285714 309.170529 
L 53.428571 309.056431 
L 56.571429 310.60763 
L 59.714286 306.199714 
L 62.857143 305.941236 
L 66 307.315699 
L 69.142857 307.645151 
L 72.285714 301.702734 
L 75.428571 301.692327 
L 78.571429 303.27814 
L 81.714286 305.275984 
L 84.857143 310.203243 
L 88 304.867443 
L 91.142857 306.227308 
L 94.285714 302.839989 
L 97.428571 302.85727 
L 100.571429 309.871859 
L 103.714286 309.811564 
L 106.857143 307.381427 
L 110 301.729105 
L 116.285714 310.485319 
L 119.428571 308.26613 
L 122.571429 310.071033 
L 125.714286 310.295719 
L 128.857143 304.899056 
L 132 299.197686 
L 135.142857 306.471122 
L 138.285714 310.909176 
L 141.428571 300.939279 
L 144.571429 307.080943 
L 147.714286 308.100385 
L 150.857143 312.78367 
L 154 307.301897 
L 157.142857 300.968191 
L 160.285714 306.826765 
L 163.428571 308.228338 
L 166.571429 307.211812 
L 169.714286 301.443397 
L 172.857143 301.472403 
L 176 302.018455 
L 179.142857 303.787684 
L 182.285714 306.462352 
L 185.428571 302.383197 
L 188.571429 308.013416 
L 191.714286 303.144334 
L 194.857143 304.20303 
L 198 301.559476 
L 201.142857 303.442799 
L 204.285714 307.690016 
L 207.428571 310.6926 
L 210.571429 305.184486 
L 213.714286 304.354402 
L 216.857143 309.832603 
L 220 307.952189 
L 223.142857 305.625728 
L 226.285714 305.998404 
L 229.428571 309.428986 
L 232.571429 306.794673 
L 235.714286 302.524034 
L 238.857143 307.246491 
L 242 306.128693 
L 245.142857 301.579675 
L 248.285714 305.097203 
L 251.428571 308.312267 
L 254.571429 313.599181 
L 257.714286 304.523598 
L 260.857143 314.029764 
L 264 306.119757 
L 267.142857 301.008207 
L 270.285714 314.880686 
L 273.428571 305.215047 
L 276.571429 305.029432 
L 279.714286 298.213926 
L 282.857143 315.054249 
L 286 307.076469 
L 289.142857 312.521417 
L 292.285714 306.899045 
L 295.428571 309.149058 
L 298.571429 306.054128 
L 301.714286 301.607593 
L 304.857143 306.00126 
L 308 301.959066 
L 311.142857 315.879716 
L 314.285714 309.135123 
L 317.428571 306.556968 
L 320.571429 301.23927 
L 323.714286 306.456307 
L 326.857143 303.659549 
L 330 301.6104 
L 333.142857 300.101956 
L 336.285714 307.287829 
L 339.428571 307.835091 
L 342.571429 302.383196 
L 345.714286 309.847855 
L 348.857143 305.849863 
L 352 303.717401 
L 355.142857 307.994728 
L 358.285714 311.974388 
L 364.571429 314.109335 
L 367.714286 307.047707 
L 370.857143 303.283836 
L 374 312.670162 
L 377.142857 305.878752 
L 380.285714 300.4153 
L 383.428571 307.052135 
L 386.571429 304.902783 
L 389.714286 299.196037 
L 392.857143 306.187464 
L 396 310.511402 
L 399.142857 305.87831 
L 402.285714 307.966208 
L 405.428571 303.434258 
L 408.571429 307.020017 
L 411.714286 305.589609 
L 414.857143 302.151111 
L 418 306.381549 
L 421.142857 307.75154 
L 424.285714 307.411511 
L 430.571429 307.110132 
L 433.714286 301.503291 
L 436.857143 307.312423 
L 440 300.590781 
L 443.142857 305.195892 
L 446.285714 304.902605 
L 449.428571 308.275291 
L 452.571429 305.37051 
L 455.714286 308.516064 
L 458.857143 301.987376 
L 462 303.809021 
L 465.142857 302.600742 
L 468.285714 305.967988 
L 471.428571 308.687815 
L 474.571429 302.451033 
L 477.714286 306.8586 
L 480.857143 304.769431 
L 484 305.192997 
L 487.142857 307.040332 
L 490.285714 301.095692 
L 493.428571 305.005736 
L 496.571429 302.626294 
L 499.714286 304.913694 
L 502.857143 303.99515 
L 506 308.625037 
L 509.142857 306.1187 
L 512.285714 309.08471 
L 515.428571 313.928395 
L 518.571429 306.708668 
L 521.714286 305.776788 
L 524.857143 303.218244 
L 528 314.027393 
L 531.142857 307.566951 
L 534.285714 309.03064 
L 537.428571 308.57897 
L 540.571429 305.209562 
L 543.714286 308.618991 
L 546.857143 307.623061 
L 550 302.457404 
L 553.142857 304.383812 
L 556.285714 301.98178 
L 559.428571 303.480685 
L 562.571429 316.458611 
L 565.714286 304.847904 
L 568.857143 307.905114 
L 572 307.539014 
L 575.142857 304.372805 
L 578.285714 308.767824 
L 581.428571 310.554984 
L 584.571429 307.329337 
L 587.714286 310.6261 
L 590.857143 308.844997 
L 594 306.722411 
L 597.142857 301.678689 
L 600.285714 310.297617 
L 603.428571 310.211254 
L 606.571429 300.561825 
L 609.714286 299.197 
L 612.857143 306.944531 
L 616 308.95553 
L 619.142857 311.508748 
L 622.285714 306.58548 
L 625.428571 306.205578 
L 628.571429 306.166087 
L 631.714286 299.300097 
L 634.857143 309.949527 
L 638 301.017729 
L 641.142857 303.270602 
L 644.285714 306.674737 
L 647.428571 306.801907 
L 650.571429 300.239622 
L 653.714286 303.126818 
L 656.857143 302.844857 
L 660 305.745766 
L 663.142857 305.323297 
L 666.285714 300.137008 
L 669.428571 307.250443 
L 672.571429 306.934549 
L 675.714286 310.477442 
L 678.857143 307.496593 
L 682 302.630708 
L 685.142857 303.754098 
L 688.285714 303.759997 
L 691.428571 311.997981 
L 694.571429 295.860318 
L 697.714286 304.194341 
L 700.857143 307.333742 
L 704 305.074301 
L 707.142857 307.371469 
L 710.285714 305.835755 
L 713.428571 304.459266 
L 716.571429 306.623847 
L 719.714286 302.733903 
L 722.857143 304.807097 
L 726 305.617843 
L 729.142857 309.596148 
L 732.285714 305.65179 
L 735.428571 300.336576 
L 738.571429 306.695365 
L 741.714286 305.834874 
L 744.857143 310.279946 
L 748 309.178614 
L 751.142857 306.477391 
L 754.285714 304.571895 
L 757.428571 308.406953 
L 760.571429 302.350101 
L 763.714286 305.067914 
L 766.857143 307.291561 
L 770 311.869046 
L 773.142857 308.498644 
L 776.285714 307.443015 
L 779.428571 305.302912 
L 782.571429 301.668184 
L 785.714286 309.168231 
L 785.714286 309.168231 
" clip-path="url(#p16e0000b48)" style="fill: none; stroke: #000000; stroke-width: 1.5; stroke-linecap: square"/>
   </g>
   <g id="line2d_2">
    <path d="M 0 306 
L 3.142857 306 
L 6.285714 305.672705 
L 9.428571 305.557368 
L 12.571429 306.037847 
L 15.714286 306.732592 
L 18.857143 304.554383 
L 22 304.71588 
L 25.142857 307.171046 
L 28.285714 307.039679 
L 31.428571 306.272937 
L 34.571429 306.543455 
L 37.714286 305.54888 
L 40.857143 305.53638 
L 44 307.021301 
L 47.142857 306.899685 
L 50.285714 308.552905 
L 53.428571 308.866163 
L 56.571429 308.968258 
L 59.714286 309.79542 
L 62.857143 308.000847 
L 66 306.971857 
L 72.285714 307.395036 
L 75.428571 304.532091 
L 78.571429 303.097484 
L 81.714286 303.176482 
L 84.857143 304.215758 
L 88 307.217467 
L 91.142857 306.04035 
L 94.285714 306.131695 
L 97.428571 304.476376 
L 100.571429 303.669071 
L 103.714286 306.786583 
L 106.857143 308.31194 
L 110 307.850816 
L 113.142857 304.773223 
L 116.285714 305.414881 
L 119.428571 307.958583 
L 122.571429 308.122996 
L 125.714286 309.11119 
L 128.857143 309.7043 
L 132 307.292125 
L 135.142857 303.228376 
L 138.285714 304.859015 
L 141.428571 307.893804 
L 144.571429 304.397618 
L 147.714286 305.736952 
L 150.857143 306.914818 
L 154 309.854477 
L 157.142857 308.582943 
L 160.285714 304.77885 
L 163.428571 305.803503 
L 166.571429 307.010679 
L 169.714286 307.123545 
L 172.857143 304.272269 
L 176 302.859275 
L 179.142857 302.41775 
L 182.285714 303.095812 
L 185.428571 304.789819 
L 188.571429 303.577758 
L 191.714286 305.795155 
L 194.857143 304.46174 
L 198 304.337796 
L 201.142857 302.948744 
L 204.285714 303.198562 
L 207.428571 305.451911 
L 210.571429 308.080702 
L 213.714286 306.638101 
L 216.857143 305.48907 
L 220 307.674034 
L 223.142857 307.820463 
L 226.285714 306.731078 
L 229.428571 306.369753 
L 232.571429 307.902827 
L 235.714286 307.341111 
L 238.857143 304.927289 
L 242 306.092562 
L 245.142857 306.103364 
L 248.285714 303.828907 
L 251.428571 304.462012 
L 254.571429 306.391692 
L 257.714286 310.004169 
L 260.857143 307.259532 
L 264 310.667776 
L 267.142857 308.391689 
L 270.285714 304.689718 
L 273.428571 309.812334 
L 276.571429 307.514007 
L 279.714286 306.265287 
L 282.857143 302.208787 
L 286 308.65333 
L 289.142857 307.851275 
L 292.285714 310.199142 
L 295.428571 308.560718 
L 298.571429 308.843649 
L 301.714286 307.450564 
L 304.857143 304.522234 
L 308 305.277015 
L 311.142857 303.59229 
L 314.285714 309.754775 
L 317.428571 309.438312 
L 320.571429 307.997013 
L 323.714286 304.602463 
L 326.857143 305.530169 
L 330 304.59887 
L 336.285714 301.595209 
L 339.428571 304.424531 
L 342.571429 306.127266 
L 345.714286 304.246982 
L 348.857143 307.064387 
L 352 306.455937 
L 355.142857 305.086764 
L 358.285714 306.553277 
L 361.428571 309.287368 
L 364.571429 311.168108 
L 367.714286 312.651175 
L 370.857143 309.858909 
L 374 306.558567 
L 377.142857 309.628099 
L 380.285714 307.757729 
L 383.428571 304.071376 
L 386.571429 305.552093 
L 389.714286 305.211507 
L 392.857143 302.174162 
L 396 304.179048 
L 399.142857 307.359541 
L 402.285714 306.60561 
L 405.428571 307.290008 
L 408.571429 305.368028 
L 411.714286 306.193961 
L 414.857143 305.893131 
L 418 304.027843 
L 424.285714 306.472899 
L 427.428571 306.945213 
L 430.571429 307.083535 
L 433.714286 307.104041 
L 436.857143 304.292707 
L 440 305.805938 
L 443.142857 303.195096 
L 446.285714 304.19315 
L 449.428571 304.542289 
L 452.571429 306.410499 
L 455.714286 305.886868 
L 458.857143 307.204245 
L 462 304.596658 
L 465.142857 304.195967 
L 468.285714 303.402279 
L 471.428571 304.686624 
L 474.571429 306.694671 
L 477.714286 304.561363 
L 480.857143 305.712895 
L 484 305.233815 
L 487.142857 305.219692 
L 490.285714 306.136349 
L 493.428571 303.612907 
L 496.571429 304.307426 
L 499.714286 303.454956 
L 502.857143 304.189144 
L 506 304.086532 
L 509.142857 306.363364 
L 512.285714 306.242848 
L 515.428571 307.667823 
L 518.571429 310.823772 
L 521.714286 308.769684 
L 524.857143 307.279444 
L 528 305.245486 
L 531.142857 309.656861 
L 534.285714 308.609862 
L 537.428571 308.825962 
L 540.571429 308.701475 
L 543.714286 306.93845 
L 546.857143 307.78248 
L 550 307.706391 
L 553.142857 305.080338 
L 556.285714 304.713161 
L 559.428571 303.336467 
L 562.571429 303.397694 
L 565.714286 309.945398 
L 568.857143 307.396039 
L 572 307.649178 
L 575.142857 307.593931 
L 578.285714 305.987124 
L 581.428571 307.386098 
L 584.571429 308.98743 
L 587.714286 308.165946 
L 590.857143 309.384636 
L 594 309.122656 
L 597.142857 307.920244 
L 600.285714 304.78785 
L 603.428571 307.554477 
L 606.571429 308.88575 
L 609.714286 304.703955 
L 612.857143 301.934204 
L 616 304.432044 
L 619.142857 306.694042 
L 622.285714 309.110972 
L 625.428571 307.857879 
L 628.571429 307.023712 
L 631.714286 306.586968 
L 634.857143 302.940624 
L 638 306.46622 
L 641.142857 303.730174 
L 644.285714 303.48924 
L 647.428571 305.072484 
L 650.571429 305.937619 
L 653.714286 303.07667 
L 656.857143 303.095785 
L 660 302.977272 
L 663.142857 304.353243 
L 666.285714 304.84671 
L 669.428571 302.485506 
L 672.571429 304.869035 
L 675.714286 305.902051 
L 678.857143 308.209944 
L 682 307.861839 
L 685.142857 305.245798 
L 688.285714 304.496034 
L 691.428571 304.124947 
L 694.571429 308.085064 
L 697.714286 301.948746 
L 700.857143 303.066132 
L 704 305.193733 
L 707.142857 305.129268 
L 710.285714 306.259667 
L 713.428571 306.051793 
L 716.571429 305.256896 
L 719.714286 305.929832 
L 722.857143 304.345307 
L 726 304.577402 
L 729.142857 305.094256 
L 732.285714 307.354141 
L 735.428571 306.499598 
L 738.571429 303.407042 
L 741.714286 305.05556 
L 744.857143 305.443669 
L 748 307.876721 
L 751.142857 308.53625 
L 754.285714 307.508523 
L 757.428571 306.030358 
L 760.571429 307.224076 
L 763.714286 304.790961 
L 766.857143 304.926246 
L 770 306.111762 
L 773.142857 308.993785 
L 776.285714 308.744883 
L 779.428571 308.095852 
L 782.571429 306.70083 
L 785.714286 304.171171 
L 788.857143 306.683115 
L 788.857143 306.683115 
" clip-path="url(#p16e0000b48)" style="fill: none; stroke: #000000; stroke-width: 1.5; stroke-linecap: square"/>
   </g>
   <g id="line2d_3">
    <path d="M 0 306 
L 3.142857 306 
L 6.285714 305.712412 
L 9.428571 305.602972 
L 12.571429 305.936985 
L 15.714286 306.451787 
L 18.857143 305.110316 
L 22 305.034664 
L 25.142857 306.463164 
L 28.285714 306.598486 
L 31.428571 306.268244 
L 34.571429 306.430124 
L 37.714286 305.874202 
L 40.857143 305.7726 
L 44 306.572575 
L 47.142857 306.630908 
L 50.285714 307.681501 
L 53.428571 308.12128 
L 56.571429 308.399259 
L 59.714286 309.052012 
L 62.857143 308.216329 
L 66 307.548327 
L 69.142857 307.485787 
L 72.285714 307.535646 
L 75.428571 305.818073 
L 78.571429 304.603609 
L 81.714286 304.212821 
L 84.857143 304.52245 
L 88 306.192866 
L 91.142857 305.803895 
L 94.285714 305.925319 
L 97.428571 305.017102 
L 100.571429 304.376044 
L 103.714286 305.986586 
L 106.857143 307.107817 
L 110 307.18425 
L 113.142857 305.581263 
L 116.285714 305.719236 
L 119.428571 307.118919 
L 122.571429 307.455648 
L 125.714286 308.231327 
L 128.857143 308.845885 
L 132 307.691787 
L 135.142857 305.196625 
L 138.285714 305.565629 
L 141.428571 307.137775 
L 144.571429 305.316073 
L 147.714286 305.837863 
L 150.857143 306.506572 
L 154 308.348717 
L 157.142857 308.039232 
L 160.285714 305.960694 
L 163.428571 306.220216 
L 166.571429 306.810891 
L 169.714286 306.924558 
L 172.857143 305.311231 
L 176 304.176911 
L 179.142857 303.535178 
L 182.285714 303.607859 
L 185.428571 304.452245 
L 188.571429 303.841516 
L 191.714286 305.060097 
L 194.857143 304.501502 
L 198 304.410776 
L 201.142857 303.568086 
L 204.285714 303.52066 
L 207.428571 304.742256 
L 210.571429 306.496344 
L 213.714286 306.110223 
L 216.857143 305.591501 
L 220 306.836758 
L 223.142857 307.17094 
L 226.285714 306.723131 
L 229.428571 306.515436 
L 232.571429 307.375308 
L 235.714286 307.205626 
L 238.857143 305.834542 
L 242 306.247213 
L 245.142857 306.215927 
L 248.285714 304.854902 
L 251.428571 304.929934 
L 254.571429 305.926199 
L 257.714286 308.180773 
L 260.857143 307.102543 
L 264 309.142074 
L 267.142857 308.258923 
L 270.285714 306.125 
L 273.428571 308.698103 
L 276.571429 307.6775 
L 279.714286 306.900794 
L 282.857143 304.343111 
L 286 307.490572 
L 289.142857 307.374514 
L 292.285714 308.888277 
L 295.428571 308.306547 
L 298.571429 308.562011 
L 301.714286 307.828589 
L 304.857143 305.998727 
L 308 305.99074 
L 311.142857 304.806881 
L 314.285714 308.053137 
L 317.428571 308.373513 
L 320.571429 307.847845 
L 323.714286 305.89647 
L 326.857143 306.061868 
L 330 305.356659 
L 333.142857 304.263238 
L 336.285714 303.027115 
L 339.428571 304.275246 
L 342.571429 305.312511 
L 345.714286 304.449311 
L 348.857143 306.031361 
L 352 305.977966 
L 355.142857 305.318274 
L 358.285714 306.104487 
L 361.428571 307.835446 
L 367.714286 310.751853 
L 370.857143 309.667593 
L 374 307.800265 
L 377.142857 309.233967 
L 380.285714 308.253841 
L 383.428571 305.956459 
L 386.571429 306.28536 
L 389.714286 305.877672 
L 392.857143 303.910446 
L 396 304.581726 
L 399.142857 306.319339 
L 402.285714 306.190197 
L 405.428571 306.715265 
L 408.571429 305.749026 
L 411.714286 306.1156 
L 414.857143 305.952998 
L 418 304.82566 
L 421.142857 305.280601 
L 424.285714 306.009459 
L 427.428571 306.414072 
L 433.714286 306.794628 
L 436.857143 305.238366 
L 440 305.848612 
L 443.142857 304.310084 
L 446.285714 304.56839 
L 449.428571 304.659836 
L 452.571429 305.721538 
L 455.714286 305.615743 
L 458.857143 306.47108 
L 462 305.151988 
L 465.142857 304.756591 
L 468.285714 304.125652 
L 471.428571 304.664777 
L 474.571429 305.844187 
L 477.714286 304.844616 
L 480.857143 305.434075 
L 484 305.236716 
L 487.142857 305.228149 
L 490.285714 305.758613 
L 493.428571 304.393347 
L 496.571429 304.572492 
L 499.714286 303.99983 
L 502.857143 304.263631 
L 506 304.183414 
L 509.142857 305.484465 
L 512.285714 305.674974 
L 515.428571 306.679751 
L 518.571429 308.816284 
L 524.857143 307.486821 
L 528 306.237451 
L 531.142857 308.527791 
L 534.285714 308.249585 
L 537.428571 308.482762 
L 540.571429 308.512708 
L 543.714286 307.549991 
L 546.857143 307.867249 
L 550 307.801467 
L 553.142857 306.233374 
L 556.285714 305.692092 
L 559.428571 304.597678 
L 562.571429 304.267483 
L 565.714286 307.847814 
L 568.857143 306.95874 
L 572 307.237304 
L 575.142857 307.327697 
L 578.285714 306.463556 
L 581.428571 307.132435 
L 584.571429 308.138376 
L 587.714286 307.899462 
L 590.857143 308.700478 
L 594 308.746982 
L 597.142857 308.151838 
L 600.285714 306.249009 
L 603.428571 307.443897 
L 606.571429 308.261175 
L 609.714286 306.004318 
L 612.857143 304.005279 
L 616 304.85522 
L 619.142857 306.060914 
L 622.285714 307.660845 
L 631.714286 306.762118 
L 634.857143 304.563312 
L 638 306.143964 
L 641.142857 304.631368 
L 644.285714 304.226398 
L 647.428571 304.943435 
L 650.571429 305.493652 
L 653.714286 303.94306 
L 660 303.449217 
L 663.142857 304.129365 
L 666.285714 304.477193 
L 669.428571 303.195712 
L 672.571429 304.378385 
L 675.714286 305.127462 
L 678.857143 306.699432 
L 682 306.934445 
L 685.142857 305.677698 
L 688.285714 305.107163 
L 691.428571 304.715731 
L 694.571429 306.858896 
L 697.714286 303.624023 
L 700.857143 303.788069 
L 704 304.834702 
L 707.142857 304.907116 
L 710.285714 305.634107 
L 713.428571 305.693272 
L 716.571429 305.330845 
L 719.714286 305.717008 
L 722.857143 304.838058 
L 726 304.826546 
L 729.142857 305.052728 
L 732.285714 306.385923 
L 735.428571 306.174371 
L 738.571429 304.460418 
L 741.714286 305.118384 
L 744.857143 305.321158 
L 748 306.7902 
L 751.142857 307.495498 
L 754.285714 307.19632 
L 757.428571 306.427068 
L 760.571429 307.008163 
L 763.714286 305.639797 
L 766.857143 305.472995 
L 770 306.00641 
L 773.142857 307.734222 
L 776.285714 307.962359 
L 779.428571 307.812344 
L 782.571429 307.072427 
L 785.714286 305.484904 
L 788.857143 306.573902 
L 788.857143 306.573902 
" clip-path="url(#p16e0000b48)" style="fill: none; stroke: #000000; stroke-width: 1.5; stroke-linecap: square"/>
   </g>
   <g id="line2d_4">
    <path d="M 0 306 
L 3.142857 306 
L 6.285714 305.733313 
L 9.428571 305.630312 
L 12.571429 305.893773 
L 15.714286 306.302861 
L 18.857143 305.353172 
L 22 305.244872 
L 25.142857 306.170255 
L 28.285714 306.318225 
L 31.428571 306.161286 
L 34.571429 306.282282 
L 37.714286 305.969432 
L 40.857143 305.891508 
L 44 306.343723 
L 47.142857 306.4171 
L 50.285714 307.059756 
L 59.714286 308.170153 
L 66 307.535228 
L 72.285714 307.523121 
L 75.428571 306.582342 
L 78.571429 305.793919 
L 81.714286 305.389167 
L 84.857143 305.37099 
L 88 306.145915 
L 91.142857 305.941159 
L 94.285714 305.986939 
L 100.571429 305.064335 
L 103.714286 305.831676 
L 106.857143 306.467606 
L 110 306.614191 
L 113.142857 305.833962 
L 116.285714 305.867806 
L 119.428571 306.607536 
L 122.571429 306.873545 
L 128.857143 307.848232 
L 132 307.378637 
L 135.142857 306.072099 
L 138.285714 306.136776 
L 141.428571 306.899502 
L 144.571429 305.946431 
L 147.714286 306.127131 
L 150.857143 306.439775 
L 154 307.451533 
L 157.142857 307.42663 
L 160.285714 306.392991 
L 163.428571 306.462397 
L 166.571429 306.744797 
L 169.714286 306.819036 
L 172.857143 305.959831 
L 176 305.24567 
L 179.142857 304.732382 
L 182.285714 304.582393 
L 185.428571 304.882238 
L 188.571429 304.479734 
L 191.714286 305.043915 
L 194.857143 304.739753 
L 198 304.655208 
L 201.142857 304.161822 
L 204.285714 304.04341 
L 207.428571 304.622263 
L 210.571429 305.590193 
L 213.714286 305.527799 
L 216.857143 305.340047 
L 220 306.054452 
L 223.142857 306.356197 
L 229.428571 306.196528 
L 232.571429 306.713672 
L 235.714286 306.7313 
L 238.857143 306.059423 
L 242 306.246005 
L 245.142857 306.230579 
L 248.285714 305.487122 
L 251.428571 305.423211 
L 254.571429 305.880086 
L 257.714286 307.112395 
L 260.857143 306.702728 
L 264 307.873252 
L 267.142857 307.592954 
L 270.285714 306.541368 
L 273.428571 307.876943 
L 279.714286 307.071614 
L 282.857143 305.658582 
L 286 307.159243 
L 289.142857 307.149002 
L 292.285714 308.006719 
L 295.428571 307.832829 
L 298.571429 308.045338 
L 301.714286 307.731341 
L 304.857143 306.755851 
L 308 306.63474 
L 311.142857 305.885337 
L 314.285714 307.482689 
L 317.428571 307.748588 
L 320.571429 307.556956 
L 323.714286 306.54755 
L 326.857143 306.533552 
L 330 306.074821 
L 333.142857 305.35959 
L 336.285714 304.5188 
L 342.571429 305.419765 
L 345.714286 304.934276 
L 348.857143 305.721232 
L 352 305.742167 
L 355.142857 305.417146 
L 358.285714 305.823755 
L 367.714286 308.805788 
L 370.857143 308.529849 
L 374 307.687972 
L 377.142857 308.485436 
L 380.285714 308.071248 
L 383.428571 306.854459 
L 386.571429 306.880915 
L 389.714286 306.564832 
L 392.857143 305.383938 
L 396 305.511337 
L 399.142857 306.307767 
L 402.285714 306.239329 
L 405.428571 306.518053 
L 408.571429 306.025799 
L 411.714286 306.187142 
L 414.857143 306.085649 
L 418 305.455261 
L 421.142857 305.602527 
L 424.285714 305.948509 
L 430.571429 306.350028 
L 433.714286 306.474396 
L 436.857143 305.684299 
L 440 305.943356 
L 443.142857 305.087135 
L 449.428571 305.070716 
L 452.571429 305.582093 
L 455.714286 305.549461 
L 458.857143 306.021792 
L 462 305.373635 
L 465.142857 305.118943 
L 468.285714 304.71109 
L 471.428571 304.910391 
L 474.571429 305.514772 
L 477.714286 305.020921 
L 480.857143 305.313912 
L 487.142857 305.222953 
L 490.285714 305.513438 
L 493.428571 304.811683 
L 496.571429 304.84182 
L 499.714286 304.484388 
L 502.857143 304.55209 
L 506 304.461 
L 509.142857 305.126754 
L 512.285714 305.284013 
L 515.428571 305.890914 
L 518.571429 307.177332 
L 521.714286 307.10297 
L 524.857143 306.890739 
L 528 306.303806 
L 531.142857 307.537182 
L 534.285714 307.542203 
L 537.428571 307.783722 
L 540.571429 307.911041 
L 543.714286 307.484117 
L 546.857143 307.666819 
L 550 307.661555 
L 553.142857 306.829912 
L 556.285714 306.440112 
L 559.428571 305.726662 
L 562.571429 305.370243 
L 565.714286 307.142979 
L 568.857143 306.779229 
L 575.142857 307.051047 
L 578.285714 306.626128 
L 581.428571 306.968081 
L 584.571429 307.542423 
L 587.714286 307.509853 
L 590.857143 308.007934 
L 594 308.145952 
L 597.142857 307.920537 
L 600.285714 306.926818 
L 606.571429 307.907122 
L 612.857143 305.529799 
L 616 305.753552 
L 619.142857 306.259909 
L 622.285714 307.098104 
L 631.714286 306.769753 
L 634.857143 305.575977 
L 638 306.272432 
L 641.142857 305.431603 
L 644.285714 305.086561 
L 650.571429 305.570426 
L 653.714286 304.720791 
L 660 304.208931 
L 663.142857 304.454856 
L 666.285714 304.586077 
L 669.428571 303.875186 
L 672.571429 304.41178 
L 675.714286 304.812778 
L 678.857143 305.717902 
L 682 306.000107 
L 685.142857 305.459057 
L 691.428571 304.954457 
L 694.571429 306.077193 
L 697.714286 304.444295 
L 700.857143 304.406096 
L 704 304.87004 
L 707.142857 304.899333 
L 710.285714 305.296907 
L 713.428571 305.386782 
L 716.571429 305.237659 
L 719.714286 305.456751 
L 722.857143 305.018044 
L 726 304.983372 
L 729.142857 305.083951 
L 732.285714 305.804022 
L 735.428571 305.783765 
L 738.571429 304.911001 
L 741.714286 305.198441 
L 744.857143 305.301299 
L 748 306.095713 
L 751.142857 306.587714 
L 754.285714 306.574054 
L 757.428571 306.256403 
L 760.571429 306.602041 
L 763.714286 305.923397 
L 766.857143 305.787127 
L 770 306.030953 
L 773.142857 306.962808 
L 776.285714 307.208146 
L 779.428571 307.243622 
L 782.571429 306.933482 
L 785.714286 306.09511 
L 788.857143 306.58745 
L 788.857143 306.58745 
" clip-path="url(#p16e0000b48)" style="fill: none; stroke: #000000; stroke-width: 1.5; stroke-linecap: square"/>
   </g>
   <g id="line2d_5">
    <path d="M 0 306 
L 3.142857 306 
L 6.285714 305.743901 
L 9.428571 305.6449 
L 12.571429 305.87538 
L 15.714286 306.231494 
L 18.857143 305.456134 
L 22 305.350044 
L 25.142857 306.056672 
L 28.285714 306.18666 
L 31.428571 306.089214 
L 34.571429 306.186401 
L 37.714286 305.977815 
L 40.857143 305.922958 
L 44 306.225272 
L 47.142857 306.2875 
L 50.285714 306.720893 
L 59.714286 307.552549 
L 66 307.270067 
L 72.285714 307.310132 
L 78.571429 306.301451 
L 81.714286 306.021049 
L 84.857143 305.952615 
L 88 306.33963 
L 91.142857 306.206667 
L 94.285714 306.208517 
L 100.571429 305.638354 
L 106.857143 306.344035 
L 110 306.434495 
L 113.142857 306.025886 
L 116.285714 306.028136 
L 119.428571 306.41237 
L 122.571429 306.571655 
L 128.857143 307.164081 
L 132 306.971021 
L 135.142857 306.309843 
L 138.285714 306.323531 
L 141.428571 306.712027 
L 144.571429 306.223803 
L 150.857143 306.448297 
L 154 306.981841 
L 157.142857 307.008758 
L 160.285714 306.501266 
L 163.428571 306.528583 
L 169.714286 306.716401 
L 176 305.873215 
L 179.142857 305.550958 
L 182.285714 305.403643 
L 185.428571 305.492044 
L 188.571429 305.232576 
L 191.714286 305.464551 
L 204.285714 304.76006 
L 207.428571 305.003943 
L 210.571429 305.477806 
L 216.857143 305.360877 
L 220 305.734433 
L 223.142857 305.919501 
L 229.428571 305.902208 
L 232.571429 306.196205 
L 235.714286 306.245871 
L 238.857143 305.936298 
L 245.142857 306.051728 
L 248.285714 305.678851 
L 251.428571 305.628914 
L 254.571429 305.851346 
L 257.714286 306.495993 
L 260.857143 306.330311 
L 264 306.972034 
L 267.142857 306.901356 
L 270.285714 306.410161 
L 273.428571 307.115739 
L 279.714286 306.800063 
L 282.857143 306.085662 
L 286 306.833419 
L 289.142857 306.852574 
L 292.285714 307.325632 
L 295.428571 307.290446 
L 298.571429 307.446762 
L 301.714286 307.332221 
L 304.857143 306.85439 
L 308 306.782344 
L 311.142857 306.380249 
L 314.285714 307.173552 
L 317.428571 307.337364 
L 320.571429 307.271316 
L 323.714286 306.768367 
L 326.857143 306.741291 
L 330 306.483356 
L 336.285714 305.582086 
L 342.571429 305.898142 
L 345.714286 305.606872 
L 348.857143 305.959773 
L 352 305.949919 
L 355.142857 305.761674 
L 358.285714 305.947236 
L 364.571429 306.998914 
L 367.714286 307.591112 
L 370.857143 307.545958 
L 374 307.192818 
L 377.142857 307.651138 
L 380.285714 307.505296 
L 383.428571 306.915714 
L 386.571429 306.927229 
L 389.714286 306.760029 
L 392.857143 306.129286 
L 396 306.135105 
L 399.142857 306.5004 
L 402.285714 306.450175 
L 405.428571 306.577474 
L 408.571429 306.31521 
L 411.714286 306.372511 
L 414.857143 306.307665 
L 418 305.961954 
L 421.142857 305.995655 
L 430.571429 306.328848 
L 433.714286 306.392937 
L 436.857143 305.985368 
L 440 306.097067 
L 443.142857 305.637854 
L 449.428571 305.543998 
L 452.571429 305.771722 
L 455.714286 305.737465 
L 458.857143 305.966427 
L 462 305.635338 
L 468.285714 305.240273 
L 471.428571 305.302284 
L 474.571429 305.581258 
L 477.714286 305.32055 
L 480.857143 305.448797 
L 487.142857 305.374608 
L 490.285714 305.512845 
L 493.428571 305.142487 
L 496.571429 305.130521 
L 499.714286 304.920548 
L 506 304.843658 
L 509.142857 305.158353 
L 512.285714 305.239412 
L 515.428571 305.556351 
L 518.571429 306.252904 
L 524.857143 306.249598 
L 528 305.996948 
L 531.142857 306.666969 
L 534.285714 306.743603 
L 540.571429 307.073087 
L 543.714286 306.917569 
L 550 307.106754 
L 553.142857 306.719762 
L 556.285714 306.526104 
L 559.428571 306.146968 
L 562.571429 305.922908 
L 565.714286 306.798783 
L 568.857143 306.633853 
L 575.142857 306.807373 
L 578.285714 306.602613 
L 581.428571 306.783262 
L 584.571429 307.099625 
L 587.714286 307.11878 
L 590.857143 307.411761 
L 594 307.533857 
L 597.142857 307.466685 
L 600.285714 306.983413 
L 606.571429 307.505631 
L 612.857143 306.284041 
L 616 306.3393 
L 619.142857 306.558659 
L 622.285714 306.971212 
L 631.714286 306.818176 
L 634.857143 306.191576 
L 638 306.506238 
L 641.142857 306.048629 
L 644.285714 305.81893 
L 650.571429 305.966706 
L 653.714286 305.48871 
L 660 305.086994 
L 666.285714 305.158358 
L 669.428571 304.74075 
L 675.714286 305.113642 
L 678.857143 305.561453 
L 682 305.72227 
L 685.142857 305.464976 
L 691.428571 305.191757 
L 694.571429 305.760257 
L 697.714286 304.93532 
L 700.857143 304.874332 
L 704 305.079239 
L 707.142857 305.079181 
L 710.285714 305.269023 
L 713.428571 305.315967 
L 716.571429 305.243358 
L 719.714286 305.355555 
L 722.857143 305.136666 
L 729.142857 305.15201 
L 732.285714 305.519425 
L 735.428571 305.529787 
L 738.571429 305.095891 
L 744.857143 305.278596 
L 748 305.694251 
L 751.142857 305.983954 
L 754.285714 306.026216 
L 757.428571 305.905574 
L 760.571429 306.115273 
L 763.714286 305.802397 
L 766.857143 305.737729 
L 770 305.867487 
L 773.142857 306.366942 
L 779.428571 306.619781 
L 782.571429 306.509358 
L 785.714286 306.104644 
L 788.857143 306.359517 
L 788.857143 306.359517 
" clip-path="url(#p16e0000b48)" style="fill: none; stroke: #000000; stroke-width: 1.5; stroke-linecap: square"/>
   </g>
   <g id="line2d_6">
    <path d="M 0 306 
L 3.142857 306 
L 6.285714 305.749212 
L 9.428571 305.652383 
L 12.571429 305.867129 
L 15.714286 306.197323 
L 18.857143 305.502159 
L 22 305.400488 
L 25.142857 306.009394 
L 28.285714 306.126966 
L 31.428571 306.052109 
L 34.571429 306.136732 
L 37.714286 305.972018 
L 40.857143 305.92861 
L 44 306.166718 
L 47.142857 306.220299 
L 50.285714 306.558081 
L 59.714286 307.22608 
L 69.142857 307.082429 
L 72.285714 307.12025 
L 78.571429 306.43977 
L 81.714286 306.241416 
L 84.857143 306.182056 
L 88 306.424687 
L 97.428571 306.126229 
L 100.571429 305.941431 
L 106.857143 306.361373 
L 110 306.416785 
L 113.142857 306.165127 
L 116.285714 306.159116 
L 119.428571 306.386352 
L 125.714286 306.668836 
L 128.857143 306.853952 
L 132 306.755036 
L 135.142857 306.375697 
L 138.285714 306.380449 
L 141.428571 306.60434 
L 144.571429 306.326231 
L 150.857143 306.447215 
L 154 306.752441 
L 157.142857 306.778753 
L 160.285714 306.502009 
L 169.714286 306.62685 
L 179.142857 305.964591 
L 182.285714 305.864155 
L 185.428571 305.891651 
L 188.571429 305.730953 
L 191.714286 305.835138 
L 204.285714 305.368548 
L 207.428571 305.472955 
L 210.571429 305.707117 
L 216.857143 305.624384 
L 223.142857 305.906976 
L 229.428571 305.899101 
L 232.571429 306.055084 
L 235.714286 306.087706 
L 238.857143 305.93078 
L 245.142857 305.994769 
L 248.285714 305.801255 
L 251.428571 305.770443 
L 254.571429 305.881534 
L 257.714286 306.218458 
L 260.857143 306.144573 
L 264 306.487982 
L 267.142857 306.471967 
L 270.285714 306.234583 
L 273.428571 306.609915 
L 279.714286 306.483605 
L 282.857143 306.125674 
L 286 306.511821 
L 289.142857 306.536213 
L 292.285714 306.794604 
L 301.714286 306.863948 
L 304.857143 306.637699 
L 308 306.610323 
L 311.142857 306.410372 
L 314.285714 306.817333 
L 317.428571 306.916855 
L 320.571429 306.901411 
L 323.714286 306.658538 
L 326.857143 306.649868 
L 333.142857 306.311363 
L 336.285714 306.045494 
L 342.571429 306.17294 
L 345.714286 306.01088 
L 348.857143 306.174902 
L 358.285714 306.139392 
L 367.714286 306.989237 
L 370.857143 306.991731 
L 374 306.833614 
L 377.142857 307.082482 
L 380.285714 307.031177 
L 383.428571 306.749233 
L 389.714286 306.682939 
L 392.857143 306.364054 
L 396 306.356535 
L 399.142857 306.533423 
L 414.857143 306.422641 
L 418 306.240664 
L 427.428571 306.357816 
L 433.714286 306.425227 
L 436.857143 306.215658 
L 440 306.262615 
L 443.142857 306.021302 
L 449.428571 305.939528 
L 452.571429 306.038238 
L 455.714286 306.009296 
L 458.857143 306.115488 
L 465.142857 305.848322 
L 468.285714 305.710074 
L 471.428571 305.720785 
L 474.571429 305.846753 
L 477.714286 305.702903 
L 484 305.711318 
L 496.571429 305.52507 
L 502.857143 305.381765 
L 506 305.321999 
L 509.142857 305.461842 
L 512.285714 305.48948 
L 515.428571 305.643133 
L 518.571429 305.995786 
L 524.857143 306.014429 
L 528 305.894737 
L 531.142857 306.240234 
L 550 306.589704 
L 559.428571 306.141032 
L 562.571429 306.028658 
L 565.714286 306.472628 
L 568.857143 306.403183 
L 575.142857 306.513441 
L 578.285714 306.423167 
L 597.142857 306.962656 
L 600.285714 306.738203 
L 606.571429 307.032495 
L 612.857143 306.434478 
L 619.142857 306.563119 
L 622.285714 306.7731 
L 631.714286 306.716941 
L 634.857143 306.400763 
L 638 306.551752 
L 644.285714 306.187044 
L 650.571429 306.233867 
L 653.714286 305.978894 
L 660 305.727607 
L 666.285714 305.70995 
L 669.428571 305.472651 
L 675.714286 305.60648 
L 678.857143 305.813881 
L 682 305.885633 
L 691.428571 305.580744 
L 694.571429 305.852759 
L 697.714286 305.42712 
L 700.857143 305.374029 
L 710.285714 305.52371 
L 719.714286 305.537623 
L 726 305.392802 
L 729.142857 305.402203 
L 732.285714 305.581006 
L 735.428571 305.584679 
L 738.571429 305.362189 
L 744.857143 305.435928 
L 751.142857 305.792431 
L 760.571429 305.880657 
L 763.714286 305.729366 
L 770 305.766342 
L 773.142857 306.025909 
L 779.428571 306.186345 
L 782.571429 306.148794 
L 785.714286 305.959027 
L 788.857143 306.095443 
L 788.857143 306.095443 
" clip-path="url(#p16e0000b48)" style="fill: none; stroke: #000000; stroke-width: 1.5; stroke-linecap: square"/>
   </g>
   <g id="line2d_7">
    <path d="M 0 306 
L 3.142857 306 
L 6.285714 305.75187 
L 9.428571 305.656166 
L 15.714286 306.180702 
L 18.857143 305.523752 
L 22 305.424921 
L 25.142857 305.988166 
L 28.285714 306.099054 
L 31.428571 306.033826 
L 34.571429 306.112146 
L 40.857143 305.928949 
L 44 306.138128 
L 47.142857 306.186984 
L 53.428571 306.667963 
L 59.714286 307.066653 
L 69.142857 306.97155 
L 72.285714 307.008336 
L 78.571429 306.46982 
L 84.857143 306.260906 
L 88 306.446683 
L 100.571429 306.069166 
L 106.857143 306.376032 
L 110 306.416569 
L 113.142857 306.231068 
L 116.285714 306.224104 
L 122.571429 306.4575 
L 128.857143 306.725998 
L 132 306.660465 
L 135.142857 306.396547 
L 138.285714 306.399148 
L 141.428571 306.554356 
L 144.571429 306.363598 
L 150.857143 306.444437 
L 154 306.652167 
L 157.142857 306.673216 
L 160.285714 306.490387 
L 169.714286 306.575668 
L 179.142857 306.138488 
L 188.571429 305.970873 
L 191.714286 306.030566 
L 204.285714 305.706655 
L 226.285714 305.992564 
L 254.571429 305.96781 
L 257.714286 306.164698 
L 260.857143 306.12255 
L 264 306.324812 
L 267.142857 306.31959 
L 270.285714 306.184853 
L 273.428571 306.404625 
L 279.714286 306.340951 
L 282.857143 306.13786 
L 286 306.359907 
L 289.142857 306.377685 
L 292.285714 306.52962 
L 304.857143 306.46778 
L 311.142857 306.347264 
L 314.285714 306.578052 
L 320.571429 306.637776 
L 323.714286 306.508168 
L 330 306.438916 
L 339.428571 306.202324 
L 342.571429 306.240955 
L 345.714286 306.149882 
L 352 306.227894 
L 358.285714 306.211745 
L 370.857143 306.687828 
L 374 306.608891 
L 377.142857 306.749224 
L 380.285714 306.729109 
L 383.428571 306.583436 
L 389.714286 306.555336 
L 392.857143 306.386347 
L 402.285714 306.462653 
L 408.571429 306.427163 
L 414.857143 306.421313 
L 421.142857 306.325666 
L 433.714286 306.416829 
L 436.857143 306.306081 
L 440 306.328737 
L 446.285714 306.177137 
L 455.714286 306.177721 
L 458.857143 306.230043 
L 468.285714 306.005539 
L 490.285714 305.982684 
L 496.571429 305.855104 
L 506 305.725282 
L 524.857143 306.055172 
L 528 305.992741 
L 531.142857 306.169491 
L 553.142857 306.282572 
L 562.571429 306.089383 
L 565.714286 306.316258 
L 572 306.319579 
L 609.714286 306.532019 
L 612.857143 306.372485 
L 619.142857 306.440789 
L 625.428571 306.551659 
L 631.714286 306.535938 
L 634.857143 306.37889 
L 638 306.45636 
L 644.285714 306.271869 
L 650.571429 306.2919 
L 656.857143 306.095025 
L 663.142857 306.018596 
L 666.285714 306.003544 
L 669.428571 305.876562 
L 685.142857 305.984593 
L 691.428571 305.889341 
L 694.571429 306.021354 
L 697.714286 305.801752 
L 707.142857 305.785178 
L 716.571429 305.790414 
L 722.857143 305.742061 
L 729.142857 305.719647 
L 735.428571 305.799988 
L 738.571429 305.682179 
L 788.857143 306.027574 
L 788.857143 306.027574 
" clip-path="url(#p16e0000b48)" style="fill: none; stroke: #000000; stroke-width: 1.5; stroke-linecap: square"/>
   </g>
   <g id="line2d_8">
    <path d="M 0 306 
L 3.142857 306 
L 6.285714 305.753199 
L 9.428571 305.658067 
L 15.714286 306.172518 
L 18.857143 305.53419 
L 22 305.436911 
L 25.142857 305.97815 
L 28.285714 306.085623 
L 31.428571 306.024817 
L 34.571429 306.100003 
L 40.857143 305.928535 
L 44 306.124084 
L 47.142857 306.170531 
L 53.428571 306.618293 
L 59.714286 306.989063 
L 69.142857 306.913748 
L 72.285714 306.949479 
L 78.571429 306.47501 
L 84.857143 306.289709 
L 88 306.450877 
L 100.571429 306.122913 
L 110 306.415737 
L 113.142857 306.259367 
L 116.285714 306.252599 
L 125.714286 306.557542 
L 128.857143 306.669853 
L 132 306.61766 
L 135.142857 306.402947 
L 138.285714 306.404884 
L 141.428571 306.530674 
L 144.571429 306.37716 
L 150.857143 306.441449 
L 154 306.607378 
L 157.142857 306.625271 
L 160.285714 306.481675 
L 172.857143 306.42712 
L 182.285714 306.153456 
L 191.714286 306.118531 
L 204.285714 305.864044 
L 226.285714 306.060674 
L 254.571429 306.033333 
L 257.714286 306.171834 
L 260.857143 306.141893 
L 264 306.284161 
L 289.142857 306.32484 
L 295.428571 306.437922 
L 301.714286 306.476219 
L 311.142857 306.316513 
L 314.285714 306.472313 
L 320.571429 306.516111 
L 326.857143 306.431946 
L 345.714286 306.196831 
L 352 306.246881 
L 358.285714 306.23542 
L 370.857143 306.546091 
L 374 306.49758 
L 380.285714 306.578531 
L 386.571429 306.496232 
L 421.142857 306.334088 
L 436.857143 306.323131 
L 443.142857 306.257711 
L 515.428571 306.020717 
L 521.714286 306.130616 
L 534.285714 306.208167 
L 550 306.307309 
L 562.571429 306.147319 
L 565.714286 306.276879 
L 578.285714 306.271323 
L 606.571429 306.488986 
L 616 306.335296 
L 631.714286 306.425995 
L 634.857143 306.339524 
L 641.142857 306.318338 
L 669.428571 306.056156 
L 694.571429 306.122546 
L 700.857143 305.97961 
L 719.714286 305.988576 
L 729.142857 305.933195 
L 735.428571 305.972299 
L 741.714286 305.915629 
L 770 305.982083 
L 779.428571 306.094352 
L 788.857143 306.070372 
L 788.857143 306.070372 
" clip-path="url(#p16e0000b48)" style="fill: none; stroke: #000000; stroke-width: 1.5; stroke-linecap: square"/>
   </g>
   <g id="line2d_9">
    <path d="M 0 306 
L 3.142857 306 
L 6.285714 305.753864 
L 9.428571 305.65902 
L 15.714286 306.168459 
L 18.857143 305.539319 
L 22 305.442846 
L 25.142857 305.97329 
L 28.285714 306.079043 
L 31.428571 306.020353 
L 34.571429 306.09398 
L 40.857143 305.92819 
L 44 306.117135 
L 47.142857 306.162373 
L 53.428571 306.593934 
L 59.714286 306.95094 
L 69.142857 306.884456 
L 72.285714 306.919537 
L 78.571429 306.475248 
L 84.857143 306.301381 
L 88 306.451169 
L 100.571429 306.146848 
L 110 306.414752 
L 113.142857 306.271876 
L 116.285714 306.265333 
L 125.714286 306.541824 
L 128.857143 306.643654 
L 132 306.597339 
L 135.142857 306.404934 
L 150.857143 306.439322 
L 154 306.586362 
L 157.142857 306.602653 
L 160.285714 306.476548 
L 172.857143 306.429904 
L 182.285714 306.190782 
L 194.857143 306.101151 
L 207.428571 305.967879 
L 213.714286 306.036536 
L 220 306.07288 
L 235.714286 306.160015 
L 242 306.119941 
L 260.857143 306.158306 
L 264 306.274649 
L 289.142857 306.308094 
L 295.428571 306.399769 
L 301.714286 306.431593 
L 311.142857 306.305706 
L 317.428571 306.464094 
L 330 306.365842 
L 339.428571 306.243717 
L 352 306.254853 
L 358.285714 306.245662 
L 370.857143 306.485518 
L 377.142857 306.519436 
L 389.714286 306.433785 
L 396 306.352473 
L 405.428571 306.408946 
L 421.142857 306.331674 
L 440 306.334373 
L 449.428571 306.251748 
L 462 306.24296 
L 487.142857 306.153758 
L 496.571429 306.103956 
L 509.142857 306.065348 
L 528 306.139905 
L 537.428571 306.248249 
L 553.142857 306.258625 
L 568.857143 306.25817 
L 609.714286 306.369684 
L 616 306.315513 
L 631.714286 306.378226 
L 641.142857 306.30706 
L 675.714286 306.1469 
L 685.142857 306.163348 
L 716.571429 306.07475 
L 788.857143 306.116931 
L 788.857143 306.116931 
" clip-path="url(#p16e0000b48)" style="fill: none; stroke: #000000; stroke-width: 1.5; stroke-linecap: square"/>
   </g>
  </g>
 </g>
 <defs>
  <clipPath id="p16e0000b48">
   <rect x="0" y="0" width="792" height="612"/>
  </clipPath>
 </defs>
</svg>
