<?xml version="1.0" encoding="utf-8" standalone="no"?>
<!DOCTYPE svg PUBLIC "-//W3C//DTD SVG 1.1//EN"
  "http://www.w3.org/Graphics/SVG/1.1/DTD/svg11.dtd">
<svg xmlns:xlink="http://www.w3.org/1999/xlink" width="792pt" height="612pt" viewBox="0 0 792 612" xmlns="http://www.w3.org/2000/svg" version="1.1">
 <metadata>
  <rdf:RDF xmlns:dc="http://purl.org/dc/elements/1.1/" xmlns:cc="http://creativecommons.org/ns#" xmlns:rdf="http://www.w3.org/1999/02/22-rdf-syntax-ns#">
   <cc:Work>
    <dc:type rdf:resource="http://purl.org/dc/dcmitype/StillImage"/>
    <dc:date>2023-01-30T17:19:46.785535</dc:date>
    <dc:format>image/svg+xml</dc:format>
    <dc:creator>
     <cc:Agent>
      <dc:title>Matplotlib v3.6.2, https://matplotlib.org/</dc:title>
     </cc:Agent>
    </dc:creator>
   </cc:Work>
  </rdf:RDF>
 </metadata>
 <defs>
  <style type="text/css">*{stroke-linejoin: round; stroke-linecap: butt}</style>
 </defs>
 <g id="figure_1">
  <g id="patch_1">
   <path d="M 0 612 
L 792 612 
L 792 0 
L 0 0 
z
" style="fill: #ffffff"/>
  </g>
  <g id="axes_1">
   <g id="line2d_1">
    <path d="M 0 306 
L 3.155378 306.282593 
L 6.310757 307.326657 
L 9.466135 308.170205 
L 12.621514 301.084803 
L 15.776892 301.03533 
L 18.932271 303.045733 
L 22.087649 305.670917 
L 25.243028 310.715777 
L 28.398406 304.424006 
L 31.553785 306.413785 
L 34.709163 302.309502 
L 37.864542 302.03503 
L 41.01992 310.210064 
L 44.175299 310.163919 
L 47.330677 307.611639 
L 50.486056 300.978602 
L 56.796813 311.029089 
L 59.952191 308.628009 
L 63.10757 310.721496 
L 66.262948 310.871864 
L 69.418327 304.081579 
L 72.573705 299.015536 
L 75.729084 306.192752 
L 78.884462 311.329905 
L 82.039841 300.714368 
L 85.195219 307.43057 
L 88.350598 308.671506 
L 91.505976 313.657178 
L 94.661355 307.454335 
L 97.816733 300.410894 
L 100.972112 307.019224 
L 104.12749 308.732959 
L 107.282869 307.570291 
L 110.438247 300.778964 
L 113.593625 300.839066 
L 116.749004 301.834933 
L 119.904382 303.365706 
L 123.059761 306.571055 
L 126.215139 301.479777 
L 129.370518 307.620144 
L 132.525896 303.154098 
L 135.681275 304.212902 
L 138.836653 299.017281 
L 141.992032 303.159051 
L 145.14741 308.787798 
L 148.302789 311.219853 
L 151.458167 305.505028 
L 154.613546 304.07964 
L 157.768924 310.640733 
L 160.924303 308.531445 
L 164.079681 305.781619 
L 167.23506 306.484449 
L 170.390438 309.609822 
L 173.545817 307.186715 
L 176.701195 302.053355 
L 179.856574 307.612381 
L 183.011952 306.257501 
L 186.167331 300.882674 
L 189.322709 305.564379 
L 192.478088 308.568555 
L 195.633466 314.03208 
L 198.788845 304.275796 
L 201.944223 314.988199 
L 205.099602 305.956734 
L 208.25498 300.70656 
L 211.410359 315.540142 
L 214.565737 305.085625 
L 217.721116 305.000893 
L 220.876494 297.793449 
L 224.031873 316.001553 
L 227.187251 307.458401 
L 230.342629 313.195688 
L 233.498008 307.048663 
L 236.653386 309.892708 
L 239.808765 305.936161 
L 242.964143 301.077123 
L 246.119522 306.24083 
L 249.2749 301.36339 
L 252.430279 316.459447 
L 255.585657 309.224209 
L 258.741036 306.810007 
L 261.896414 301.136089 
L 265.051793 306.946415 
L 268.207171 303.143334 
L 274.517928 299.225413 
L 277.673307 307.291906 
L 280.828685 308.214639 
L 283.984064 301.941294 
L 287.139442 310.382566 
L 290.294821 305.954558 
L 293.450199 303.389317 
L 299.760956 312.407672 
L 306.071713 314.744778 
L 309.227092 306.965095 
L 312.38247 302.75593 
L 315.537849 313.261729 
L 318.693227 305.588015 
L 321.848606 300.155169 
L 325.003984 307.003268 
L 328.159363 304.808922 
L 331.314741 298.689317 
L 334.47012 305.920703 
L 337.625498 311.112974 
L 340.780876 305.726955 
L 343.936255 308.163663 
L 347.091633 303.310784 
L 350.247012 307.034023 
L 353.40239 305.611886 
L 356.557769 301.454726 
L 359.713147 306.32033 
L 362.868526 307.878399 
L 366.023904 307.382393 
L 369.179283 307.344281 
L 372.334661 307.124273 
L 375.49004 301.140311 
L 378.645418 307.075553 
L 381.800797 300.306947 
L 384.956175 304.735934 
L 388.111554 304.779451 
L 391.266932 308.738245 
L 394.422311 305.634856 
L 397.577689 309.033997 
L 400.733068 301.477502 
L 403.888446 303.582535 
L 407.043825 302.376664 
L 410.199203 305.764227 
L 413.354582 308.405454 
L 416.50996 301.76669 
L 419.665339 306.683592 
L 422.820717 304.024763 
L 425.976096 304.773239 
L 429.131474 307.587856 
L 432.286853 300.4468 
L 435.442231 304.643995 
L 438.59761 302.634713 
L 441.752988 304.837549 
L 444.908367 303.792448 
L 448.063745 309.589857 
L 451.219124 306.622134 
L 454.374502 309.620727 
L 457.52988 316.141131 
L 460.685259 307.014127 
L 463.840637 305.720557 
L 466.996016 303.125073 
L 470.151394 314.605067 
L 473.306773 307.605757 
L 476.462151 309.152882 
L 479.61753 308.721735 
L 482.772908 305.268595 
L 485.928287 308.696589 
L 489.083665 307.85564 
L 492.239044 302.152951 
L 495.394422 304.228222 
L 498.549801 301.491495 
L 501.705179 303.19021 
L 504.860558 317.194736 
L 508.015936 304.731655 
L 511.171315 308.022018 
L 514.326693 307.835951 
L 517.482072 304.19803 
L 520.63745 309.024267 
L 523.792829 310.817282 
L 526.948207 307.658152 
L 530.103586 310.7664 
L 533.258964 309.169474 
L 536.414343 306.576628 
L 539.569721 301.433453 
L 542.7251 310.760218 
L 545.880478 310.522821 
L 549.035857 300.484509 
L 552.191235 298.619505 
L 555.346614 307.101718 
L 558.501992 309.148168 
L 561.657371 312.044841 
L 564.812749 306.741842 
L 567.968127 306.410857 
L 571.123506 306.224251 
L 574.278884 299.021277 
L 577.434263 310.213241 
L 580.589641 300.552338 
L 583.74502 303.089089 
L 586.900398 306.904353 
L 590.055777 306.805862 
L 593.211155 299.934499 
L 596.366534 303.092764 
L 599.521912 302.509543 
L 602.677291 305.892662 
L 605.832669 305.481626 
L 608.988048 299.939831 
L 612.143426 307.291143 
L 615.298805 307.152873 
L 618.454183 310.919819 
L 621.609562 307.736522 
L 624.76494 302.578152 
L 627.920319 303.793223 
L 631.075697 303.669417 
L 634.231076 312.437247 
L 637.386454 294.912214 
L 640.541833 303.780046 
L 643.697211 307.444238 
L 646.85259 304.822816 
L 650.007968 307.570769 
L 656.318725 304.38448 
L 659.474104 306.821104 
L 662.629482 302.598862 
L 665.784861 304.568879 
L 668.940239 294.082401 
L 672.095618 356.71277 
L 675.250996 270.300271 
L 678.406375 305.711421 
L 681.561753 299.960532 
L 684.717131 306.543296 
L 687.87251 305.867508 
L 691.027888 310.751083 
L 694.183267 309.518417 
L 697.338645 306.720876 
L 700.494024 304.46536 
L 703.649402 308.428275 
L 706.804781 302.210501 
L 709.960159 305.10207 
L 713.115538 307.381331 
L 716.270916 312.209593 
L 719.426295 308.740862 
L 722.581673 307.710179 
L 725.737052 305.331201 
L 728.89243 301.424916 
L 732.047809 309.4093 
L 735.203187 304.755776 
L 738.358566 306.231211 
L 741.513944 309.249646 
L 744.669323 302.595705 
L 747.824701 306.39834 
L 750.98008 306.096061 
L 754.135458 303.513011 
L 757.290837 307.783216 
L 760.446215 299.752917 
L 763.601594 307.189767 
L 766.756972 304.136031 
L 769.912351 303.39527 
L 773.067729 304.39769 
L 776.223108 304.79688 
L 779.378486 307.996493 
L 782.533865 311.363329 
L 785.689243 308.041082 
L 788.844622 302.715366 
L 788.844622 302.715366 
" clip-path="url(#pf22b7d7637)" style="fill: none; stroke: #000000; stroke-width: 1.5; stroke-linecap: square"/>
   </g>
   <g id="line2d_2">
    <path d="M 0 306 
L 3.155378 306 
L 6.310757 306.188395 
L 12.621514 307.548906 
L 15.776892 304.212403 
L 18.932271 302.598561 
L 22.087649 302.823906 
L 25.243028 304.252956 
L 28.398406 307.493779 
L 31.553785 305.955247 
L 34.709163 306.182726 
L 37.864542 304.234552 
L 41.01992 303.136618 
L 44.175299 306.691422 
L 47.330677 308.441705 
L 50.486056 308.030481 
L 53.641434 304.485249 
L 56.796813 305.250011 
L 59.952191 308.148791 
L 63.10757 308.40079 
L 66.262948 309.578225 
L 69.418327 310.226361 
L 72.573705 307.14216 
L 75.729084 303.061477 
L 78.884462 304.637303 
L 82.039841 307.994276 
L 85.195219 304.333863 
L 88.350598 305.879866 
L 91.505976 307.271692 
L 94.661355 310.470384 
L 97.816733 308.969044 
L 100.972112 304.69245 
L 104.12749 305.857455 
L 107.282869 307.290143 
L 110.438247 307.443661 
L 113.593625 304.098046 
L 116.749004 302.453099 
L 119.904382 302.120831 
L 123.059761 302.735239 
L 126.215139 304.665174 
L 129.370518 303.061535 
L 132.525896 305.338621 
L 135.681275 304.237678 
L 138.836653 304.232024 
L 141.992032 301.620762 
L 145.14741 302.39248 
L 148.302789 305.600726 
L 151.458167 308.419608 
L 157.768924 305.517983 
L 160.924303 308.094184 
L 164.079681 308.321283 
L 167.23506 307.064735 
L 170.390438 306.781113 
L 173.545817 308.197127 
L 176.701195 307.684017 
L 179.856574 304.861822 
L 183.011952 306.244033 
L 186.167331 306.242172 
L 189.322709 303.547238 
L 192.478088 304.555367 
L 195.633466 306.566072 
L 198.788845 310.308389 
L 201.944223 307.286511 
L 205.099602 311.163529 
L 208.25498 308.557071 
L 211.410359 304.620705 
L 214.565737 310.110465 
L 217.721116 307.597214 
L 220.876494 306.292063 
L 224.031873 302.01015 
L 227.187251 309.03042 
L 230.342629 308.229656 
L 233.498008 310.727176 
L 236.653386 308.900459 
L 239.808765 309.385515 
L 242.964143 307.662558 
L 246.119522 304.361958 
L 249.2749 305.317955 
L 252.430279 303.311854 
L 255.585657 309.905099 
L 258.741036 309.55687 
L 261.896414 308.183014 
L 265.051793 304.642203 
L 268.207171 305.796287 
L 271.36255 304.473833 
L 274.517928 302.814722 
L 277.673307 301.015704 
L 280.828685 304.135628 
L 283.984064 306.173161 
L 287.139442 304.047588 
L 290.294821 307.233339 
L 293.450199 306.592006 
L 296.605578 304.991116 
L 299.760956 306.49103 
L 302.916335 309.475522 
L 306.071713 311.532158 
L 309.227092 313.151467 
L 312.38247 310.068545 
L 315.537849 306.397341 
L 318.693227 309.844345 
L 321.848606 307.720574 
L 325.003984 303.922244 
L 328.159363 305.452143 
L 331.314741 305.113362 
L 334.47012 301.869405 
L 337.625498 303.892914 
L 340.780876 307.519541 
L 343.936255 306.608476 
L 347.091633 307.391129 
L 350.247012 305.357116 
L 353.40239 306.195631 
L 356.557769 305.905333 
L 359.713147 303.685331 
L 366.023904 306.434664 
L 369.179283 306.911777 
L 372.334661 307.126423 
L 375.49004 307.132825 
L 378.645418 304.124833 
L 381.800797 305.603054 
L 384.956175 302.952521 
L 388.111554 303.841103 
L 391.266932 304.304197 
L 394.422311 306.523907 
L 397.577689 306.07603 
L 400.733068 307.558795 
L 403.888446 304.518663 
L 407.043825 304.043746 
L 410.199203 303.214243 
L 413.354582 304.491225 
L 416.50996 306.455468 
L 419.665339 304.097298 
L 422.820717 305.39249 
L 425.976096 304.698798 
L 429.131474 304.742481 
L 432.286853 306.173026 
L 435.442231 303.305893 
L 438.59761 303.972738 
L 441.752988 303.292398 
L 444.908367 304.070983 
L 448.063745 303.926046 
L 451.219124 306.768929 
L 454.374502 306.699157 
L 457.52988 308.163977 
L 460.685259 312.184369 
L 463.840637 309.604152 
L 466.996016 307.668472 
L 470.151394 305.393381 
L 473.306773 310.021333 
L 476.462151 308.809698 
L 479.61753 308.986253 
L 482.772908 308.852232 
L 485.928287 307.039124 
L 489.083665 307.871169 
L 492.239044 307.867591 
L 495.394422 305.008278 
L 498.549801 304.597897 
L 501.705179 303.032632 
L 504.860558 303.09973 
L 508.015936 310.166055 
L 511.171315 307.447916 
L 514.326693 307.733646 
L 517.482072 307.78476 
L 520.63745 305.995405 
L 523.792829 307.519277 
L 526.948207 309.186657 
L 530.103586 308.43118 
L 533.258964 309.58623 
L 536.414343 309.386555 
L 539.569721 307.978799 
L 542.7251 304.693423 
L 545.880478 307.739858 
L 549.035857 309.134342 
L 552.191235 304.788926 
L 555.346614 301.686057 
L 558.501992 304.386576 
L 561.657371 306.767377 
L 564.812749 309.417084 
L 567.968127 308.089912 
L 571.123506 307.241865 
L 574.278884 306.724631 
L 577.434263 302.869589 
L 580.589641 306.564229 
L 583.74502 303.545205 
L 586.900398 303.305266 
L 590.055777 305.094697 
L 593.211155 305.950405 
L 596.366534 302.929457 
L 599.521912 303.004971 
L 602.677291 302.764096 
L 605.832669 304.319863 
L 608.988048 304.910407 
L 612.143426 302.418707 
L 615.298805 304.855611 
L 618.454183 306.004923 
L 621.609562 308.48407 
L 624.76494 308.119404 
L 627.920319 305.348859 
L 631.075697 304.566916 
L 634.231076 304.114609 
L 637.386454 308.300856 
L 640.541833 301.580154 
L 643.697211 302.673444 
L 646.85259 305.051968 
L 650.007968 304.931679 
L 653.163347 306.261019 
L 656.318725 306.099869 
L 659.474104 305.243571 
L 662.629482 306.021324 
L 665.784861 304.325121 
L 668.940239 304.448546 
L 672.095618 299.237341 
L 675.250996 328.273758 
L 678.406375 299.152838 
L 681.561753 302.43129 
L 684.717131 301.187159 
L 687.87251 303.864519 
L 691.027888 304.872411 
L 694.183267 307.824036 
L 697.338645 308.701524 
L 700.494024 307.612272 
L 703.649402 306.106127 
L 706.804781 307.272547 
L 709.960159 304.745851 
L 713.115538 304.921134 
L 716.270916 306.154204 
L 719.426295 309.18507 
L 722.581673 308.961443 
L 725.737052 308.337761 
L 728.89243 306.836199 
L 732.047809 304.116679 
L 735.203187 306.777162 
L 738.358566 305.765788 
L 741.513944 305.996244 
L 744.669323 307.617186 
L 747.824701 305.094336 
L 750.98008 305.743765 
L 754.135458 305.921413 
L 757.290837 304.721287 
L 760.446215 306.249069 
L 763.601594 302.990845 
L 766.756972 305.092143 
L 769.912351 304.604057 
L 773.067729 304.001224 
L 779.378486 304.493658 
L 782.533865 306.253875 
L 785.689243 308.815818 
L 788.844622 308.444706 
L 788.844622 308.444706 
" clip-path="url(#pf22b7d7637)" style="fill: none; stroke: #000000; stroke-width: 1.5; stroke-linecap: square"/>
   </g>
   <g id="line2d_3">
    <path d="M 0 306 
L 3.155378 306 
L 6.310757 306.165539 
L 12.621514 307.269053 
L 15.776892 305.068626 
L 18.932271 303.718435 
L 22.087649 303.502299 
L 25.243028 304.179801 
L 28.398406 306.182758 
L 31.553785 305.651011 
L 34.709163 305.87947 
L 37.864542 304.817206 
L 41.01992 303.993181 
L 44.175299 305.82846 
L 47.330677 307.105411 
L 50.486056 307.254264 
L 53.641434 305.410271 
L 56.796813 305.585193 
L 59.952191 307.184053 
L 63.10757 307.607512 
L 66.262948 308.530709 
L 69.418327 309.227758 
L 72.573705 307.721726 
L 75.729084 305.163756 
L 78.884462 305.459945 
L 82.039841 307.187301 
L 85.195219 305.284727 
L 88.350598 305.919115 
L 91.505976 306.732913 
L 94.661355 308.765338 
L 97.816733 308.37825 
L 100.972112 306.036246 
L 104.12749 306.331093 
L 107.282869 307.03773 
L 110.438247 307.189741 
L 113.593625 305.302909 
L 116.749004 303.984013 
L 119.904382 303.344152 
L 123.059761 303.349643 
L 126.215139 304.301823 
L 129.370518 303.4698 
L 132.525896 304.681118 
L 135.681275 304.236657 
L 138.836653 304.226004 
L 141.992032 302.689074 
L 145.14741 302.814667 
L 148.302789 304.56564 
L 151.458167 306.52717 
L 154.613546 306.226053 
L 157.768924 305.592031 
L 160.924303 307.074388 
L 164.079681 307.510063 
L 167.23506 307.009496 
L 170.390438 306.861055 
L 173.545817 307.673356 
L 176.701195 307.53153 
L 179.856574 305.927614 
L 183.011952 306.421066 
L 186.167331 306.376723 
L 189.322709 304.763595 
L 192.478088 305.005659 
L 195.633466 306.055436 
L 198.788845 308.398258 
L 201.944223 307.182864 
L 205.099602 309.480501 
L 208.25498 308.450623 
L 211.410359 306.17091 
L 214.565737 308.923965 
L 217.721116 307.798983 
L 220.876494 306.977748 
L 224.031873 304.273598 
L 227.187251 307.719778 
L 230.342629 307.649431 
L 233.498008 309.280581 
L 236.653386 308.627802 
L 239.808765 309.008644 
L 242.964143 308.109197 
L 246.119522 306.040844 
L 249.2749 306.090467 
L 252.430279 304.702497 
L 255.585657 308.148873 
L 258.741036 308.467591 
L 261.896414 307.989117 
L 265.051793 305.965263 
L 268.207171 306.254774 
L 271.36255 305.341297 
L 274.517928 304.125002 
L 277.673307 302.670462 
L 280.828685 304.023797 
L 283.984064 305.245537 
L 287.139442 304.271827 
L 290.294821 306.062259 
L 293.450199 306.030735 
L 296.605578 305.259721 
L 299.760956 306.053859 
L 302.916335 307.927784 
L 306.071713 309.575485 
L 309.227092 311.096221 
L 312.38247 309.886545 
L 315.537849 307.799989 
L 318.693227 309.407224 
L 321.848606 308.291468 
L 325.003984 305.907051 
L 328.159363 306.237061 
L 331.314741 305.815915 
L 334.47012 303.717275 
L 337.625498 304.367201 
L 340.780876 306.34396 
L 343.936255 306.162982 
L 347.091633 306.754461 
L 350.247012 305.740467 
L 353.40239 306.113168 
L 356.557769 305.957211 
L 359.713147 304.623107 
L 362.868526 305.119467 
L 366.023904 305.933429 
L 369.179283 306.351069 
L 372.334661 306.643993 
L 375.49004 306.79267 
L 378.645418 305.130281 
L 381.800797 305.702641 
L 384.956175 304.123969 
L 391.266932 304.434458 
L 394.422311 305.698479 
L 397.577689 305.67694 
L 400.733068 306.666801 
L 403.888446 305.140414 
L 407.043825 304.681783 
L 410.199203 304.007661 
L 413.354582 304.5215 
L 416.50996 305.659696 
L 419.665339 304.512943 
L 422.820717 305.147946 
L 425.976096 304.81541 
L 429.131474 304.807231 
L 432.286853 305.622246 
L 435.442231 304.106399 
L 438.59761 304.263751 
L 441.752988 303.784139 
L 444.908367 304.088191 
L 448.063745 303.999453 
L 451.219124 305.637512 
L 454.374502 305.93181 
L 457.52988 307.01925 
L 460.685259 309.707711 
L 463.840637 308.920255 
L 466.996016 307.980036 
L 470.151394 306.559605 
L 473.306773 308.925743 
L 476.462151 308.54325 
L 479.61753 308.72684 
L 482.772908 308.726647 
L 485.928287 307.719378 
L 489.083665 308.010256 
L 492.239044 307.970967 
L 495.394422 306.263786 
L 498.549801 305.668078 
L 501.705179 304.435401 
L 504.860558 304.066744 
L 508.015936 307.921969 
L 511.171315 306.974451 
L 514.326693 307.282438 
L 517.482072 307.446989 
L 520.63745 306.496624 
L 523.792829 307.230563 
L 526.948207 308.284857 
L 530.103586 308.099584 
L 533.258964 308.883076 
L 536.414343 308.971441 
L 539.569721 308.267606 
L 542.7251 306.258482 
L 545.880478 307.586995 
L 549.035857 308.454163 
L 555.346614 303.916535 
L 558.501992 304.837839 
L 561.657371 306.105407 
L 564.812749 307.849856 
L 574.278884 306.911394 
L 577.434263 304.586539 
L 580.589641 306.237568 
L 583.74502 304.560512 
L 586.900398 304.122548 
L 590.055777 304.937685 
L 593.211155 305.49103 
L 596.366534 303.850926 
L 602.677291 303.297305 
L 605.832669 304.0658 
L 608.988048 304.478619 
L 612.143426 303.138503 
L 615.298805 304.349281 
L 618.454183 305.170899 
L 621.609562 306.860019 
L 624.76494 307.118479 
L 627.920319 305.792697 
L 631.075697 305.199681 
L 634.231076 304.75505 
L 637.386454 307.016122 
L 640.541833 303.455828 
L 643.697211 303.547314 
L 646.85259 304.697297 
L 650.007968 304.736048 
L 653.163347 305.572131 
L 656.318725 305.677091 
L 659.474104 305.297231 
L 662.629482 305.751467 
L 665.784861 304.822666 
L 668.940239 304.745365 
L 672.095618 301.60144 
L 675.250996 317.931977 
L 678.406375 303.900194 
L 681.561753 304.432883 
L 684.717131 303.118547 
L 687.87251 304.114826 
L 691.027888 304.640755 
L 694.183267 306.438541 
L 697.338645 307.343036 
L 700.494024 307.162991 
L 703.649402 306.369306 
L 706.804781 306.975245 
L 709.960159 305.577133 
L 713.115538 305.436015 
L 716.270916 306.011281 
L 719.426295 307.835729 
L 722.581673 308.117683 
L 725.737052 307.941505 
L 728.89243 307.2174 
L 732.047809 305.515802 
L 735.203187 306.667075 
L 738.358566 306.105214 
L 741.513944 306.142536 
L 744.669323 307.050894 
L 747.824701 305.738009 
L 750.98008 305.931045 
L 754.135458 305.98125 
L 757.290837 305.25266 
L 760.446215 306.000248 
L 763.601594 304.16407 
L 766.756972 305.050045 
L 769.912351 304.77306 
L 773.067729 304.363367 
L 776.223108 304.369616 
L 779.378486 304.494144 
L 782.533865 305.527507 
L 785.689243 307.239178 
L 788.844622 307.477826 
L 788.844622 307.477826 
" clip-path="url(#pf22b7d7637)" style="fill: none; stroke: #000000; stroke-width: 1.5; stroke-linecap: square"/>
   </g>
   <g id="line2d_4">
    <path d="M 0 306 
L 3.155378 306 
L 6.310757 306.153508 
L 12.621514 307.109155 
L 15.776892 305.455186 
L 18.932271 304.367278 
L 22.087649 304.068049 
L 25.243028 304.408073 
L 28.398406 305.678849 
L 31.553785 305.436325 
L 34.709163 305.618996 
L 41.01992 304.486959 
L 44.175299 305.485849 
L 47.330677 306.289953 
L 50.486056 306.514259 
L 53.641434 305.584585 
L 56.796813 305.655161 
L 59.952191 306.543248 
L 63.10757 306.885649 
L 69.418327 308.059083 
L 72.573705 307.414278 
L 75.729084 306.05661 
L 78.884462 306.078559 
L 82.039841 306.923485 
L 85.195219 305.926246 
L 88.350598 306.167476 
L 91.505976 306.568521 
L 94.661355 307.702855 
L 97.816733 307.663131 
L 100.972112 306.504663 
L 104.12749 306.587167 
L 107.282869 306.930109 
L 110.438247 307.032117 
L 113.593625 306.032528 
L 116.749004 305.206 
L 119.904382 304.670116 
L 123.059761 304.462775 
L 126.215139 304.798767 
L 129.370518 304.264902 
L 132.525896 304.80072 
L 135.681275 304.536696 
L 138.836653 304.486366 
L 141.992032 303.614177 
L 145.14741 303.537365 
L 148.302789 304.371852 
L 151.458167 305.463713 
L 154.613546 305.473111 
L 157.768924 305.250198 
L 160.924303 306.107664 
L 164.079681 306.493245 
L 167.23506 306.376941 
L 170.390438 306.391308 
L 173.545817 306.906859 
L 176.701195 306.956484 
L 179.856574 306.173764 
L 183.011952 306.400335 
L 186.167331 306.381068 
L 189.322709 305.502093 
L 192.478088 305.510064 
L 195.633466 305.993514 
L 198.788845 307.276871 
L 201.944223 306.801802 
L 205.099602 308.109641 
L 208.25498 307.765382 
L 211.410359 306.637946 
L 214.565737 308.063992 
L 220.876494 307.182386 
L 224.031873 305.684786 
L 227.187251 307.332666 
L 230.342629 307.356401 
L 233.498008 308.289108 
L 236.653386 308.094183 
L 239.808765 308.383891 
L 242.964143 307.998778 
L 246.119522 306.896173 
L 249.2749 306.790317 
L 252.430279 305.920668 
L 255.585657 307.604897 
L 258.741036 307.865753 
L 261.896414 307.695392 
L 265.051793 306.647117 
L 268.207171 306.695464 
L 271.36255 306.12821 
L 274.517928 305.334916 
L 277.673307 304.357743 
L 283.984064 305.367071 
L 287.139442 304.819291 
L 290.294821 305.710399 
L 293.450199 305.749489 
L 296.605578 305.370736 
L 299.760956 305.779598 
L 309.227092 309.002022 
L 312.38247 308.681858 
L 315.537849 307.731063 
L 318.693227 308.616282 
L 321.848606 308.13486 
L 325.003984 306.86665 
L 328.159363 306.88277 
L 331.314741 306.551161 
L 334.47012 305.291041 
L 337.625498 305.390518 
L 340.780876 306.301818 
L 343.936255 306.210225 
L 347.091633 306.525451 
L 350.247012 306.012147 
L 353.40239 306.17827 
L 356.557769 306.081386 
L 359.713147 305.340367 
L 362.868526 305.495977 
L 366.023904 305.879239 
L 372.334661 306.316291 
L 375.49004 306.448557 
L 378.645418 305.605126 
L 381.800797 305.838942 
L 384.956175 304.953747 
L 391.266932 304.894845 
L 394.422311 305.508089 
L 397.577689 305.529659 
L 400.733068 306.087895 
L 403.888446 305.347493 
L 407.043825 305.060447 
L 410.199203 304.625709 
L 413.354582 304.8061 
L 416.50996 305.382299 
L 419.665339 304.799832 
L 422.820717 305.100226 
L 425.976096 304.931529 
L 429.131474 304.904953 
L 432.286853 305.333546 
L 435.442231 304.557057 
L 438.59761 304.570092 
L 441.752988 304.256865 
L 444.908367 304.348698 
L 448.063745 304.257469 
L 451.219124 305.109802 
L 454.374502 305.350161 
L 457.52988 306.032151 
L 460.685259 307.650267 
L 463.840637 307.549488 
L 466.996016 307.257156 
L 470.151394 306.597063 
L 473.306773 307.876035 
L 476.462151 307.833333 
L 482.772908 308.15646 
L 485.928287 307.700099 
L 489.083665 307.861118 
L 492.239044 307.862166 
L 495.394422 306.949685 
L 498.549801 306.515811 
L 501.705179 305.711667 
L 504.860558 305.311551 
L 508.015936 307.211493 
L 511.171315 306.818414 
L 517.482072 307.14217 
L 520.63745 306.675264 
L 523.792829 307.050472 
L 526.948207 307.654074 
L 530.103586 307.656523 
L 533.258964 308.153338 
L 536.414343 308.320455 
L 539.569721 308.044219 
L 542.7251 306.991641 
L 545.880478 307.59498 
L 549.035857 308.065043 
L 555.346614 305.53797 
L 558.501992 305.785197 
L 561.657371 306.31591 
L 564.812749 307.230661 
L 574.278884 306.902808 
L 577.434263 305.643281 
L 580.589641 306.371082 
L 583.74502 305.440111 
L 586.900398 305.064683 
L 593.211155 305.586243 
L 596.366534 304.685527 
L 602.677291 304.126247 
L 605.832669 304.408971 
L 608.988048 304.572321 
L 612.143426 303.832186 
L 618.454183 304.822464 
L 621.609562 305.796832 
L 624.76494 306.104643 
L 627.920319 305.538402 
L 634.231076 305.001088 
L 637.386454 306.186395 
L 640.541833 304.384594 
L 643.697211 304.289872 
L 646.85259 304.789666 
L 650.007968 304.791384 
L 653.163347 305.238015 
L 656.318725 305.352728 
L 659.474104 305.196979 
L 662.629482 305.453931 
L 665.784861 304.993766 
L 668.940239 304.924809 
L 672.095618 303.191162 
L 675.250996 311.812784 
L 678.406375 305.164581 
L 681.561753 305.248776 
L 684.717131 304.406916 
L 687.87251 304.748972 
L 691.027888 304.926287 
L 694.183267 305.855552 
L 697.338645 306.444331 
L 700.494024 306.490595 
L 703.649402 306.169591 
L 706.804781 306.530546 
L 709.960159 305.84114 
L 713.115538 305.726772 
L 716.270916 305.990076 
L 719.426295 306.982911 
L 722.581673 307.261255 
L 725.737052 307.332665 
L 728.89243 307.015946 
L 732.047809 306.124864 
L 735.203187 306.651032 
L 738.358566 306.344697 
L 741.513944 306.333706 
L 744.669323 306.801073 
L 747.824701 306.128938 
L 754.135458 306.159657 
L 757.290837 305.737049 
L 760.446215 306.064725 
L 763.601594 305.055948 
L 766.756972 305.39831 
L 776.223108 304.800866 
L 779.378486 304.821857 
L 782.533865 305.32838 
L 785.689243 306.295764 
L 788.844622 306.574389 
L 788.844622 306.574389 
" clip-path="url(#pf22b7d7637)" style="fill: none; stroke: #000000; stroke-width: 1.5; stroke-linecap: square"/>
   </g>
   <g id="line2d_5">
    <path d="M 0 306 
L 3.155378 306 
L 6.310757 306.147414 
L 12.621514 307.027036 
L 15.776892 305.624183 
L 18.932271 304.684636 
L 22.087649 304.385511 
L 25.243028 304.598875 
L 28.398406 305.536468 
L 31.553785 305.377154 
L 34.709163 305.517176 
L 41.01992 304.728233 
L 47.330677 305.9221 
L 50.486056 306.109068 
L 53.641434 305.55656 
L 56.796813 305.60406 
L 59.952191 306.16189 
L 63.10757 306.410526 
L 69.418327 307.230904 
L 72.573705 306.92827 
L 75.729084 306.177615 
L 78.884462 306.179034 
L 82.039841 306.656798 
L 85.195219 306.110943 
L 91.505976 306.451503 
L 94.661355 307.097702 
L 97.816733 307.129467 
L 100.972112 306.534627 
L 104.12749 306.577292 
L 107.282869 306.766133 
L 110.438247 306.836255 
L 116.749004 305.83693 
L 119.904382 305.491939 
L 123.059761 305.309239 
L 126.215139 305.417343 
L 129.370518 305.080874 
L 132.525896 305.29731 
L 138.836653 305.038469 
L 141.992032 304.528305 
L 145.14741 304.412507 
L 148.302789 304.781933 
L 151.458167 305.324774 
L 154.613546 305.339952 
L 157.768924 305.233957 
L 160.924303 305.688198 
L 164.079681 305.926818 
L 170.390438 305.962378 
L 173.545817 306.267717 
L 176.701195 306.344591 
L 179.856574 305.985848 
L 183.011952 306.121737 
L 186.167331 306.133073 
L 189.322709 305.694851 
L 192.478088 305.683967 
L 195.633466 305.924499 
L 198.788845 306.600427 
L 201.944223 306.406734 
L 205.099602 307.122097 
L 208.25498 307.025271 
L 211.410359 306.498648 
L 214.565737 307.251706 
L 220.876494 306.90253 
L 224.031873 306.144642 
L 227.187251 306.966382 
L 230.342629 307.006157 
L 233.498008 307.52282 
L 236.653386 307.483673 
L 239.808765 307.686093 
L 242.964143 307.542128 
L 246.119522 307.002559 
L 249.2749 306.938062 
L 252.430279 306.473326 
L 255.585657 307.307504 
L 258.741036 307.467636 
L 261.896414 307.411682 
L 265.051793 306.888367 
L 268.207171 306.891956 
L 271.36255 306.578315 
L 274.517928 306.128938 
L 277.673307 305.55595 
L 283.984064 305.908047 
L 287.139442 305.579203 
L 290.294821 305.978848 
L 293.450199 305.975948 
L 296.605578 305.75792 
L 299.760956 305.941209 
L 306.071713 307.071899 
L 309.227092 307.710858 
L 312.38247 307.648766 
L 315.537849 307.243322 
L 318.693227 307.74697 
L 321.848606 307.569011 
L 325.003984 306.952597 
L 328.159363 306.956943 
L 331.314741 306.77975 
L 334.47012 306.105256 
L 337.625498 306.090839 
L 340.780876 306.509941 
L 343.936255 306.447141 
L 347.091633 306.591237 
L 350.247012 306.317185 
L 353.40239 306.375317 
L 356.557769 306.31199 
L 359.713147 305.907975 
L 362.868526 305.940792 
L 369.179283 306.208235 
L 375.49004 306.370172 
L 378.645418 305.934113 
L 381.800797 306.030483 
L 384.956175 305.553021 
L 391.266932 305.427445 
L 394.422311 305.703266 
L 397.577689 305.696634 
L 400.733068 305.972002 
L 403.888446 305.598039 
L 410.199203 305.172696 
L 413.354582 305.223437 
L 416.50996 305.485211 
L 419.665339 305.175488 
L 422.820717 305.301202 
L 429.131474 305.158439 
L 432.286853 305.360113 
L 435.442231 304.948131 
L 438.59761 304.922106 
L 441.752988 304.729891 
L 448.063745 304.660836 
L 451.219124 305.071023 
L 454.374502 305.20147 
L 457.52988 305.566036 
L 460.685259 306.446286 
L 466.996016 306.430824 
L 470.151394 306.15521 
L 473.306773 306.860431 
L 476.462151 306.924384 
L 482.772908 307.246601 
L 485.928287 307.081477 
L 492.239044 307.269849 
L 495.394422 306.843918 
L 498.549801 306.627098 
L 501.705179 306.198731 
L 504.860558 305.946029 
L 508.015936 306.881221 
L 511.171315 306.699557 
L 517.482072 306.896494 
L 520.63745 306.669581 
L 523.792829 306.866136 
L 526.948207 307.197565 
L 530.103586 307.236005 
L 533.258964 307.530978 
L 536.414343 307.670383 
L 539.569721 307.57982 
L 542.7251 307.066526 
L 549.035857 307.636818 
L 555.346614 306.340338 
L 558.501992 306.404014 
L 561.657371 306.634281 
L 564.812749 307.08526 
L 574.278884 306.93754 
L 577.434263 306.277787 
L 580.589641 306.607388 
L 583.74502 306.102673 
L 586.900398 305.853456 
L 593.211155 306.013791 
L 596.366534 305.506303 
L 602.677291 305.070996 
L 608.988048 305.169547 
L 612.143426 304.734648 
L 618.454183 305.129965 
L 621.609562 305.613512 
L 624.76494 305.790057 
L 627.920319 305.523 
L 634.231076 305.235938 
L 637.386454 305.837598 
L 640.541833 304.927267 
L 643.697211 304.832424 
L 646.85259 305.050041 
L 650.007968 305.031518 
L 653.163347 305.241608 
L 656.318725 305.298544 
L 659.474104 305.220976 
L 662.629482 305.350745 
L 665.784861 305.120902 
L 668.940239 305.074712 
L 672.095618 304.158968 
L 675.250996 308.57368 
L 678.406375 305.37145 
L 681.561753 305.398546 
L 684.717131 304.944299 
L 691.027888 305.142076 
L 694.183267 305.608573 
L 697.338645 305.935484 
L 700.494024 306.00148 
L 703.649402 305.874955 
L 706.804781 306.08858 
L 709.960159 305.76182 
L 713.115538 305.707184 
L 716.270916 305.845924 
L 719.426295 306.375577 
L 725.737052 306.667294 
L 728.89243 306.554618 
L 732.047809 306.126817 
L 735.203187 306.39882 
L 738.358566 306.261017 
L 741.513944 306.25843 
L 744.669323 306.509243 
L 747.824701 306.181767 
L 754.135458 306.191732 
L 757.290837 305.970997 
L 760.446215 306.121628 
L 763.601594 305.58992 
L 766.756972 305.721121 
L 779.378486 305.279772 
L 782.533865 305.504529 
L 785.689243 305.99435 
L 788.844622 306.165835 
L 788.844622 306.165835 
" clip-path="url(#pf22b7d7637)" style="fill: none; stroke: #000000; stroke-width: 1.5; stroke-linecap: square"/>
   </g>
   <g id="line2d_6">
    <path d="M 0 306 
L 3.155378 306 
L 6.310757 306.144356 
L 12.621514 306.985891 
L 15.776892 305.701178 
L 18.932271 304.836877 
L 22.087649 304.546568 
L 25.243028 304.709318 
L 28.398406 305.498076 
L 31.553785 305.368553 
L 34.709163 305.485456 
L 41.01992 304.846257 
L 47.330677 305.773798 
L 50.486056 305.929636 
L 53.641434 305.526859 
L 56.796813 305.564575 
L 59.952191 305.977627 
L 63.10757 306.171519 
L 69.418327 306.79653 
L 72.573705 306.614053 
L 75.729084 306.115631 
L 78.884462 306.120574 
L 82.039841 306.447423 
L 85.195219 306.094889 
L 91.505976 306.323423 
L 94.661355 306.75098 
L 97.816733 306.791336 
L 100.972112 306.430623 
L 107.282869 306.588276 
L 110.438247 306.641622 
L 116.749004 306.035541 
L 123.059761 305.687555 
L 126.215139 305.733056 
L 129.370518 305.515968 
L 132.525896 305.622438 
L 138.836653 305.434529 
L 141.992032 305.117244 
L 145.14741 305.021117 
L 154.613546 305.496685 
L 157.768924 305.428828 
L 160.924303 305.677058 
L 164.079681 305.812291 
L 170.390438 305.84245 
L 173.545817 306.018424 
L 176.701195 306.072759 
L 179.856574 305.886582 
L 186.167331 305.979593 
L 189.322709 305.746128 
L 192.478088 305.737832 
L 195.633466 305.866626 
L 198.788845 306.237071 
L 201.944223 306.148375 
L 205.099602 306.547129 
L 208.25498 306.520576 
L 211.410359 306.259744 
L 214.565737 306.675165 
L 220.876494 306.532786 
L 224.031873 306.144253 
L 227.187251 306.581651 
L 230.342629 306.620465 
L 233.498008 306.911064 
L 236.653386 306.917134 
L 239.808765 307.048165 
L 242.964143 306.99928 
L 246.119522 306.739325 
L 249.2749 306.717478 
L 252.430279 306.483145 
L 255.585657 306.919331 
L 261.896414 307.010786 
L 265.051793 306.75498 
L 268.207171 306.763306 
L 274.517928 306.370353 
L 277.673307 306.060539 
L 283.984064 306.204783 
L 287.139442 306.020438 
L 290.294821 306.208892 
L 299.760956 306.158125 
L 306.071713 306.734551 
L 309.227092 307.079194 
L 312.38247 307.07429 
L 315.537849 306.888764 
L 318.693227 307.162455 
L 321.848606 307.094891 
L 325.003984 306.797207 
L 331.314741 306.720465 
L 334.47012 306.376427 
L 337.625498 306.356916 
L 340.780876 306.560468 
L 356.557769 306.442221 
L 359.713147 306.229228 
L 369.179283 306.349373 
L 375.49004 306.423044 
L 378.645418 306.197812 
L 381.800797 306.235223 
L 384.956175 305.982576 
L 391.266932 305.88048 
L 394.422311 306.002184 
L 397.577689 305.986544 
L 400.733068 306.11628 
L 407.043825 305.81937 
L 410.199203 305.672754 
L 413.354582 305.676373 
L 416.50996 305.792118 
L 419.665339 305.621555 
L 422.820717 305.667521 
L 429.131474 305.562917 
L 432.286853 305.648248 
L 435.442231 305.427037 
L 448.063745 305.195255 
L 451.219124 305.381483 
L 454.374502 305.433917 
L 457.52988 305.612868 
L 460.685259 306.061075 
L 466.996016 306.084208 
L 470.151394 305.957484 
L 473.306773 306.32483 
L 492.239044 306.681435 
L 501.705179 306.182233 
L 504.860558 306.05584 
L 508.015936 306.529997 
L 511.171315 306.453088 
L 517.482072 306.576661 
L 520.63745 306.476373 
L 539.569721 307.046918 
L 542.7251 306.808451 
L 549.035857 307.129487 
L 555.346614 306.495413 
L 561.657371 306.633598 
L 564.812749 306.863282 
L 574.278884 306.812884 
L 577.434263 306.480735 
L 580.589641 306.639495 
L 583.74502 306.381146 
L 586.900398 306.240818 
L 593.211155 306.292801 
L 596.366534 306.02226 
L 605.832669 305.757849 
L 608.988048 305.744557 
L 612.143426 305.497422 
L 618.454183 305.640085 
L 621.609562 305.864916 
L 624.76494 305.944722 
L 634.231076 305.628168 
L 637.386454 305.916765 
L 640.541833 305.447984 
L 643.697211 305.376251 
L 646.85259 305.464178 
L 650.007968 305.437609 
L 656.318725 305.546075 
L 668.940239 305.38908 
L 672.095618 304.907322 
L 675.250996 307.132694 
L 678.406375 305.559041 
L 681.561753 305.56658 
L 684.717131 305.327651 
L 691.027888 305.400279 
L 697.338645 305.792786 
L 706.804781 305.886003 
L 709.960159 305.728278 
L 716.270916 305.771472 
L 719.426295 306.046035 
L 725.737052 306.225634 
L 728.89243 306.188574 
L 732.047809 305.985668 
L 735.203187 306.13159 
L 741.513944 306.080974 
L 744.669323 306.21501 
L 747.824701 306.061037 
L 754.135458 306.076398 
L 757.290837 305.967131 
L 760.446215 306.044489 
L 763.601594 305.777428 
L 766.756972 305.837451 
L 779.378486 305.574576 
L 782.533865 305.678399 
L 785.689243 305.920157 
L 788.844622 306.011365 
L 788.844622 306.011365 
" clip-path="url(#pf22b7d7637)" style="fill: none; stroke: #000000; stroke-width: 1.5; stroke-linecap: square"/>
   </g>
   <g id="line2d_7">
    <path d="M 0 306 
L 3.155378 306 
L 6.310757 306.142827 
L 12.621514 306.965357 
L 15.776892 305.737666 
L 18.932271 304.910827 
L 22.087649 304.626754 
L 25.243028 304.76738 
L 28.398406 305.487046 
L 31.553785 305.370084 
L 34.709163 305.475571 
L 41.01992 304.904627 
L 47.330677 305.711933 
L 50.486056 305.850915 
L 53.641434 305.511961 
L 56.796813 305.544919 
L 59.952191 305.893261 
L 66.262948 306.333272 
L 69.418327 306.58985 
L 72.573705 306.45287 
L 75.729084 306.059693 
L 78.884462 306.066512 
L 82.039841 306.328457 
L 85.195219 306.05676 
L 91.505976 306.238646 
L 94.661355 306.571373 
L 97.816733 306.610061 
L 100.972112 306.344364 
L 110.438247 306.514094 
L 119.904382 305.913365 
L 123.059761 305.817647 
L 126.215139 305.845503 
L 129.370518 305.686547 
L 132.525896 305.755905 
L 145.14741 305.310625 
L 154.613546 305.615563 
L 157.768924 305.565805 
L 164.079681 305.817319 
L 170.390438 305.836965 
L 176.701195 305.990713 
L 179.856574 305.87172 
L 186.167331 305.933775 
L 189.322709 305.784958 
L 195.633466 305.859421 
L 198.788845 306.094689 
L 201.944223 306.042721 
L 205.099602 306.296559 
L 208.25498 306.286986 
L 211.410359 306.13081 
L 214.565737 306.392489 
L 220.876494 306.319171 
L 224.031873 306.086444 
L 227.187251 306.355554 
L 230.342629 306.385307 
L 233.498008 306.568057 
L 242.964143 306.649451 
L 246.119522 306.503004 
L 249.2749 306.496148 
L 252.430279 306.362537 
L 255.585657 306.624254 
L 261.896414 306.694369 
L 265.051793 306.552214 
L 271.36255 306.475529 
L 277.673307 306.162475 
L 283.984064 306.241362 
L 287.139442 306.134302 
L 290.294821 306.239708 
L 299.760956 306.206843 
L 312.38247 306.740161 
L 315.537849 306.643731 
L 318.693227 306.80349 
L 321.848606 306.774234 
L 325.003984 306.615316 
L 331.314741 306.581239 
L 334.47012 306.393172 
L 337.625498 306.381941 
L 340.780876 306.494142 
L 372.334661 306.400756 
L 375.49004 306.417533 
L 378.645418 306.295365 
L 381.800797 306.313394 
L 388.111554 306.14167 
L 397.577689 306.158398 
L 400.733068 306.224223 
L 410.199203 305.973997 
L 432.286853 305.914733 
L 438.59761 305.765485 
L 448.063745 305.633408 
L 466.996016 306.07332 
L 470.151394 306.007534 
L 473.306773 306.19925 
L 495.394422 306.316574 
L 504.860558 306.098739 
L 508.015936 306.344114 
L 514.326693 306.346322 
L 549.035857 306.724487 
L 555.346614 306.413045 
L 561.657371 306.487675 
L 564.812749 306.609288 
L 574.278884 306.599405 
L 577.434263 306.433852 
L 580.589641 306.516376 
L 586.900398 306.314268 
L 593.211155 306.337572 
L 599.521912 306.130379 
L 605.832669 306.048071 
L 608.988048 306.035745 
L 612.143426 305.903121 
L 631.075697 305.97879 
L 634.231076 305.928659 
L 637.386454 306.069923 
L 640.541833 305.82775 
L 650.007968 305.797748 
L 659.474104 305.806723 
L 665.784861 305.758756 
L 668.940239 305.732998 
L 672.095618 305.48072 
L 675.250996 306.599486 
L 678.406375 305.810681 
L 681.561753 305.808534 
L 684.717131 305.682057 
L 694.183267 305.813364 
L 700.494024 305.911302 
L 713.115538 305.838425 
L 719.426295 306.008536 
L 728.89243 306.086293 
L 732.047809 305.985742 
L 738.358566 306.031464 
L 760.446215 306.022965 
L 763.601594 305.887878 
L 769.912351 305.877586 
L 779.378486 305.771958 
L 788.844622 305.984429 
L 788.844622 305.984429 
" clip-path="url(#pf22b7d7637)" style="fill: none; stroke: #000000; stroke-width: 1.5; stroke-linecap: square"/>
   </g>
   <g id="line2d_8">
    <path d="M 0 306 
L 3.155378 306 
L 6.310757 306.142061 
L 12.621514 306.955108 
L 15.776892 305.755395 
L 18.932271 304.947194 
L 22.087649 304.666643 
L 25.243028 304.796986 
L 28.398406 305.483516 
L 31.553785 305.372326 
L 34.709163 305.472214 
L 41.01992 304.933653 
L 47.330677 305.68439 
L 50.486056 305.814874 
L 53.641434 305.505047 
L 56.796813 305.535669 
L 59.952191 305.853864 
L 66.262948 306.256953 
L 69.418327 306.491452 
L 72.573705 306.373722 
L 75.729084 306.027382 
L 78.884462 306.034892 
L 82.039841 306.267326 
L 85.195219 306.031385 
L 91.505976 306.192213 
L 94.661355 306.482144 
L 97.816733 306.518865 
L 100.972112 306.294204 
L 110.438247 306.444369 
L 119.904382 305.943109 
L 129.370518 305.751901 
L 132.525896 305.806966 
L 148.302789 305.527014 
L 151.458167 305.678294 
L 160.924303 305.759814 
L 167.23506 305.827977 
L 186.167331 305.920591 
L 192.478088 305.80161 
L 195.633466 305.862557 
L 198.788845 306.040538 
L 201.944223 306.002518 
L 205.099602 306.194098 
L 220.876494 306.220835 
L 224.031873 306.05159 
L 227.187251 306.249595 
L 230.342629 306.273424 
L 233.498008 306.4087 
L 249.2749 306.372745 
L 252.430279 306.279631 
L 255.585657 306.467448 
L 261.896414 306.523211 
L 268.207171 306.435378 
L 287.139442 306.142655 
L 293.450199 306.210644 
L 299.760956 306.193255 
L 312.38247 306.561153 
L 315.537849 306.49918 
L 318.693227 306.608731 
L 331.314741 306.470553 
L 334.47012 306.347761 
L 343.936255 306.404905 
L 353.40239 306.394012 
L 432.286853 306.03833 
L 441.752988 305.896786 
L 454.374502 305.914437 
L 482.772908 306.275665 
L 511.171315 306.256733 
L 549.035857 306.517984 
L 558.501992 306.35209 
L 574.278884 306.458481 
L 577.434263 306.365549 
L 580.589641 306.413541 
L 586.900398 306.30014 
L 596.366534 306.234893 
L 615.298805 306.078223 
L 637.386454 306.145373 
L 643.697211 305.982235 
L 662.629482 305.994481 
L 672.095618 305.795278 
L 675.250996 306.409329 
L 678.406375 305.976423 
L 716.270916 305.988344 
L 725.737052 306.112058 
L 788.844622 306.032055 
L 788.844622 306.032055 
" clip-path="url(#pf22b7d7637)" style="fill: none; stroke: #000000; stroke-width: 1.5; stroke-linecap: square"/>
   </g>
   <g id="line2d_9">
    <path d="M 0 306 
L 3.155378 306 
L 6.310757 306.141679 
L 12.621514 306.949988 
L 15.776892 305.764129 
L 18.932271 304.965218 
L 22.087649 304.686523 
L 25.243028 304.811916 
L 28.398406 305.482236 
L 31.553785 305.373815 
L 34.709163 305.470938 
L 41.01992 304.948126 
L 47.330677 305.671495 
L 50.486056 305.797742 
L 53.641434 305.501789 
L 56.796813 305.531258 
L 59.952191 305.834961 
L 66.262948 306.220061 
L 69.418327 306.443765 
L 72.573705 306.334827 
L 75.729084 306.010435 
L 78.884462 306.018211 
L 82.039841 306.236657 
L 85.195219 306.017385 
L 91.505976 306.168247 
L 94.661355 306.43803 
L 97.816733 306.473547 
L 100.972112 306.267737 
L 110.438247 306.408431 
L 119.904382 305.95304 
L 129.370518 305.778944 
L 132.525896 305.827824 
L 148.302789 305.572148 
L 151.458167 305.705412 
L 160.924303 305.775245 
L 173.545817 305.927428 
L 183.011952 305.908941 
L 189.322709 305.81783 
L 195.633466 305.865147 
L 198.788845 306.017769 
L 201.944223 305.985649 
L 205.099602 306.149556 
L 230.342629 306.221658 
L 236.653386 306.34729 
L 242.964143 306.396635 
L 252.430279 306.236095 
L 255.585657 306.391648 
L 261.896414 306.439917 
L 268.207171 306.3701 
L 287.139442 306.135001 
L 293.450199 306.190207 
L 299.760956 306.176621 
L 312.38247 306.472735 
L 315.537849 306.424728 
L 321.848606 306.500629 
L 328.159363 306.427771 
L 362.868526 306.285827 
L 381.800797 306.287687 
L 391.266932 306.188647 
L 400.733068 306.240959 
L 413.354582 306.117257 
L 422.820717 306.101585 
L 454.374502 305.985465 
L 485.928287 306.236659 
L 495.394422 306.23628 
L 511.171315 306.233992 
L 552.191235 306.370913 
L 558.501992 306.30977 
L 574.278884 306.386142 
L 583.74502 306.306648 
L 615.298805 306.127798 
L 637.386454 306.170787 
L 643.697211 306.061003 
L 665.784861 306.038148 
L 672.095618 305.932234 
L 675.250996 306.335633 
L 678.406375 306.051423 
L 722.581673 306.11922 
L 744.669323 306.129023 
L 763.601594 306.051173 
L 788.844622 306.073041 
L 788.844622 306.073041 
" clip-path="url(#pf22b7d7637)" style="fill: none; stroke: #000000; stroke-width: 1.5; stroke-linecap: square"/>
   </g>
  </g>
 </g>
 <defs>
  <clipPath id="pf22b7d7637">
   <rect x="0" y="0" width="792" height="612"/>
  </clipPath>
 </defs>
</svg>
