<?xml version="1.0" encoding="utf-8" standalone="no"?>
<!DOCTYPE svg PUBLIC "-//W3C//DTD SVG 1.1//EN"
  "http://www.w3.org/Graphics/SVG/1.1/DTD/svg11.dtd">
<svg xmlns:xlink="http://www.w3.org/1999/xlink" width="792pt" height="612pt" viewBox="0 0 792 612" xmlns="http://www.w3.org/2000/svg" version="1.1">
 <metadata>
  <rdf:RDF xmlns:dc="http://purl.org/dc/elements/1.1/" xmlns:cc="http://creativecommons.org/ns#" xmlns:rdf="http://www.w3.org/1999/02/22-rdf-syntax-ns#">
   <cc:Work>
    <dc:type rdf:resource="http://purl.org/dc/dcmitype/StillImage"/>
    <dc:date>2023-01-30T17:19:43.735595</dc:date>
    <dc:format>image/svg+xml</dc:format>
    <dc:creator>
     <cc:Agent>
      <dc:title>Matplotlib v3.6.2, https://matplotlib.org/</dc:title>
     </cc:Agent>
    </dc:creator>
   </cc:Work>
  </rdf:RDF>
 </metadata>
 <defs>
  <style type="text/css">*{stroke-linejoin: round; stroke-linecap: butt}</style>
 </defs>
 <g id="figure_1">
  <g id="patch_1">
   <path d="M 0 612 
L 792 612 
L 792 0 
L 0 0 
z
" style="fill: #ffffff"/>
  </g>
  <g id="axes_1">
   <g id="line2d_1">
    <path d="M 0 459 
L 12.774194 451.814417 
L 25.548387 452.515794 
L 38.322581 452.25203 
L 51.096774 441.343632 
L 63.870968 443.706216 
L 76.645161 446.273435 
L 89.419355 455.57839 
L 102.193548 458.710555 
L 114.967742 452.719215 
L 127.741935 449.8482 
L 140.516129 445.855715 
L 153.290323 457.748407 
L 166.064516 435.945662 
L 178.83871 429.536801 
L 191.612903 432.326254 
L 204.387097 429.140896 
L 217.16129 433.146714 
L 229.935484 433.595884 
L 242.709677 430.849468 
L 255.483871 432.941581 
L 268.258065 426.993873 
L 281.032258 423.813271 
L 293.806452 411.448092 
L 306.580645 460.877816 
L 319.354839 430.294262 
L 332.129032 429.607689 
L 344.903226 419.076582 
L 357.677419 418.925904 
L 370.451613 418.509659 
L 383.225806 427.981446 
L 396 435.106725 
L 408.774194 437.497613 
L 421.548387 434.723481 
L 434.322581 438.34881 
L 447.096774 431.7716 
L 459.870968 430.65251 
L 472.645161 433.190403 
L 485.419355 444.093387 
L 498.193548 449.259083 
L 510.967742 453.06114 
L 523.741935 452.117608 
L 536.516129 443.331728 
L 549.290323 449.954531 
L 562.064516 448.86202 
L 574.83871 449.984315 
L 587.612903 455.785688 
L 600.387097 449.036786 
L 613.16129 449.73962 
L 625.935484 449.458494 
L 638.709677 444.07807 
L 651.483871 447.562715 
L 664.258065 436.62748 
L 677.032258 437.698187 
L 689.806452 434.33263 
L 702.580645 428.513401 
L 715.354839 425.285714 
L 728.129032 423.247026 
L 740.903226 425.363756 
L 753.677419 435.021048 
L 766.451613 439.332971 
L 779.225806 433.257305 
" clip-path="url(#p3ee2bfbd82)" style="fill: none; stroke: #000000; stroke-width: 1.5; stroke-linecap: square"/>
   </g>
   <g id="line2d_2">
    <path d="M 0 459 
L 12.774194 459 
L 25.548387 454.209394 
L 38.322581 453.241603 
L 51.096774 452.713824 
L 63.870968 446.843492 
L 76.645161 445.249795 
L 89.419355 445.765628 
L 102.193548 450.690299 
L 114.967742 454.699531 
L 127.741935 453.711123 
L 140.516129 451.774303 
L 153.290323 448.802043 
L 166.064516 453.30686 
L 178.83871 444.605884 
L 191.612903 437.032604 
L 204.387097 434.633265 
L 217.16129 431.828247 
L 229.935484 432.449123 
L 242.709677 432.990649 
L 255.483871 431.890527 
L 268.258065 432.367487 
L 281.032258 429.662127 
L 293.806452 426.72516 
L 306.580645 419.034583 
L 319.354839 441.860934 
L 332.129032 436.06835 
L 344.903226 432.828897 
L 357.677419 425.92219 
L 370.451613 422.394457 
L 383.225806 420.43474 
L 396 424.213897 
L 408.774194 429.702655 
L 421.548387 433.545222 
L 434.322581 434.142999 
L 447.096774 436.262574 
L 459.870968 434.041441 
L 472.645161 432.369656 
L 485.419355 432.808853 
L 498.193548 438.479619 
L 510.967742 443.895021 
L 523.741935 448.507562 
L 536.516129 450.346588 
L 549.290323 446.848227 
L 562.064516 448.436952 
L 574.83871 448.685238 
L 587.612903 449.367723 
L 600.387097 452.599323 
L 613.16129 450.817495 
L 625.935484 450.272033 
L 638.709677 449.860043 
L 651.483871 446.970043 
L 664.258065 447.261685 
L 677.032258 441.918303 
L 689.806452 439.783763 
L 702.580645 437.015406 
L 715.354839 432.721951 
L 728.129032 428.953996 
L 740.903226 426.047963 
L 753.677419 425.669232 
L 766.451613 430.317621 
L 779.225806 434.828259 
" clip-path="url(#p3ee2bfbd82)" style="fill: none; stroke: #000000; stroke-width: 1.5; stroke-linecap: square"/>
   </g>
   <g id="line2d_3">
    <path d="M 0 459 
L 12.774194 459 
L 25.548387 454.790557 
L 38.322581 453.759871 
L 51.096774 453.171007 
L 63.870968 448.961264 
L 76.645161 447.201853 
L 89.419355 446.903549 
L 102.193548 449.613101 
L 114.967742 452.400435 
L 127.741935 452.496814 
L 140.516129 451.70347 
L 153.290323 449.963182 
L 166.064516 452.268556 
L 178.83871 447.446416 
L 191.612903 442.165556 
L 204.387097 439.270374 
L 217.16129 436.26682 
L 229.935484 435.331315 
L 242.709677 434.801246 
L 255.483871 433.618851 
L 268.258065 433.410829 
L 281.032258 431.511013 
L 293.806452 429.228829 
L 306.580645 423.958656 
L 319.354839 435.850182 
L 332.129032 434.196389 
L 344.903226 432.828616 
L 357.677419 428.764 
L 370.451613 425.834712 
L 383.225806 423.667318 
L 396 424.928497 
L 408.774194 427.909785 
L 421.548387 430.725143 
L 434.322581 431.897621 
L 447.096774 433.791589 
L 459.870968 433.200903 
L 472.645161 432.451694 
L 485.419355 432.675165 
L 498.193548 436.040044 
L 510.967742 439.952391 
L 523.741935 443.776312 
L 536.516129 446.243715 
L 549.290323 445.406485 
L 562.064516 446.773897 
L 574.83871 447.419923 
L 587.612903 448.2072 
L 600.387097 450.458442 
L 613.16129 450.058047 
L 625.935484 449.978854 
L 638.709677 449.843384 
L 651.483871 448.160969 
L 664.258065 448.003902 
L 677.032258 444.676676 
L 689.806452 442.637078 
L 702.580645 440.192193 
L 715.354839 436.744525 
L 728.129032 433.35292 
L 740.903226 430.356831 
L 753.677419 428.873024 
L 766.451613 430.655603 
L 779.225806 433.184397 
" clip-path="url(#p3ee2bfbd82)" style="fill: none; stroke: #000000; stroke-width: 1.5; stroke-linecap: square"/>
   </g>
   <g id="line2d_4">
    <path d="M 0 459 
L 12.774194 459 
L 25.548387 455.096469 
L 38.322581 454.083608 
L 51.096774 453.500767 
L 63.870968 450.161794 
L 76.645161 448.572522 
L 89.419355 448.051917 
L 102.193548 449.648214 
L 114.967742 451.473501 
L 127.741935 451.71425 
L 140.516129 451.365495 
L 153.290323 450.363427 
L 166.064516 451.676197 
L 178.83871 448.928462 
L 191.612903 445.590957 
L 204.387097 443.337606 
L 217.16129 440.950722 
L 229.935484 439.650817 
L 242.709677 438.649751 
L 255.483871 437.367734 
L 268.258065 436.644215 
L 281.032258 435.072539 
L 293.806452 433.244909 
L 306.580645 429.71138 
L 319.354839 435.329175 
L 332.129032 434.518735 
L 344.903226 433.729634 
L 357.677419 431.375654 
L 370.451613 429.378526 
L 383.225806 427.637079 
L 396 427.692122 
L 408.774194 428.875439 
L 421.548387 430.232616 
L 434.322581 430.936144 
L 447.096774 432.105827 
L 459.870968 432.039894 
L 472.645161 431.812458 
L 485.419355 432.02511 
L 498.193548 433.941791 
L 510.967742 436.372037 
L 523.741935 439.02095 
L 536.516129 441.102674 
L 549.290323 441.453208 
L 562.064516 442.8077 
L 574.83871 443.765102 
L 587.612903 444.763047 
L 600.387097 446.53241 
L 613.16129 446.941256 
L 625.935484 447.399301 
L 638.709677 447.737084 
L 651.483871 447.161363 
L 664.258065 447.23566 
L 677.032258 445.549029 
L 689.806452 444.305981 
L 702.580645 442.724594 
L 715.354839 440.471451 
L 728.129032 438.027222 
L 740.903226 435.667514 
L 753.677419 434.023647 
L 766.451613 434.19229 
L 779.225806 435.022561 
" clip-path="url(#p3ee2bfbd82)" style="fill: none; stroke: #000000; stroke-width: 1.5; stroke-linecap: square"/>
   </g>
   <g id="line2d_5">
    <path d="M 0 459 
L 12.774194 459 
L 25.548387 455.251437 
L 38.322581 454.259466 
L 51.096774 453.690606 
L 63.870968 450.774553 
L 76.645161 449.32704 
L 89.419355 448.769653 
L 102.193548 449.899617 
L 114.967742 451.249806 
L 127.741935 451.460227 
L 140.516129 451.242472 
L 153.290323 450.550726 
L 166.064516 451.434544 
L 178.83871 449.603562 
L 191.612903 447.310606 
L 204.387097 445.650607 
L 217.16129 443.87038 
L 229.935484 442.74247 
L 242.709677 441.801329 
L 255.483871 440.696083 
L 268.258065 439.927437 
L 281.032258 438.664906 
L 293.806452 437.235385 
L 306.580645 434.780884 
L 319.354839 437.574473 
L 332.129032 436.898762 
L 344.903226 436.228561 
L 357.677419 434.66362 
L 370.451613 433.239328 
L 383.225806 431.916035 
L 396 431.565425 
L 408.774194 431.878806 
L 421.548387 432.373194 
L 434.322581 432.579025 
L 447.096774 433.081834 
L 459.870968 432.968045 
L 472.645161 432.767693 
L 485.419355 432.804129 
L 498.193548 433.773096 
L 510.967742 435.098079 
L 523.741935 436.630838 
L 536.516129 437.949376 
L 549.290323 438.406915 
L 562.064516 439.386169 
L 574.83871 440.188357 
L 587.612903 441.016236 
L 600.387097 442.262277 
L 613.16129 442.833218 
L 625.935484 443.414515 
L 638.709677 443.92264 
L 651.483871 443.935697 
L 664.258065 444.240022 
L 677.032258 443.601375 
L 689.806452 443.106616 
L 702.580645 442.371618 
L 715.354839 441.210869 
L 728.129032 439.877429 
L 740.903226 438.485508 
L 753.677419 437.388269 
L 766.451613 437.190662 
L 779.225806 437.369336 
" clip-path="url(#p3ee2bfbd82)" style="fill: none; stroke: #000000; stroke-width: 1.5; stroke-linecap: square"/>
   </g>
   <g id="line2d_6">
    <path d="M 0 459 
L 12.774194 459 
L 25.548387 455.329176 
L 38.322581 454.350433 
L 51.096774 453.791244 
L 63.870968 451.080202 
L 76.645161 449.713942 
L 89.419355 449.156241 
L 102.193548 450.085677 
L 114.967742 451.217992 
L 127.741935 451.399014 
L 140.516129 451.225556 
L 153.290323 450.663849 
L 166.064516 451.361261 
L 178.83871 449.922773 
L 191.612903 448.111465 
L 204.387097 446.771456 
L 217.16129 445.335249 
L 229.935484 444.380024 
L 242.709677 443.564223 
L 255.483871 442.633041 
L 268.258065 441.94464 
L 281.032258 440.91151 
L 293.806452 439.760196 
L 306.580645 437.896487 
L 319.354839 439.607888 
L 332.129032 439.023032 
L 344.903226 438.443553 
L 357.677419 437.272282 
L 370.451613 436.182347 
L 383.225806 435.149873 
L 396 434.738231 
L 408.774194 434.75906 
L 421.548387 434.911667 
L 434.322581 434.901315 
L 447.096774 435.088524 
L 459.870968 434.910398 
L 472.645161 434.684266 
L 485.419355 434.605793 
L 498.193548 435.098658 
L 510.967742 435.82705 
L 523.741935 436.705443 
L 536.516129 437.484368 
L 549.290323 437.777681 
L 562.064516 438.383516 
L 574.83871 438.90109 
L 587.612903 439.444702 
L 600.387097 440.240704 
L 613.16129 440.666638 
L 625.935484 441.103337 
L 638.709677 441.503202 
L 651.483871 441.625804 
L 664.258065 441.906959 
L 677.032258 441.657962 
L 689.806452 441.472111 
L 702.580645 441.138424 
L 715.354839 440.550517 
L 728.129032 439.84233 
L 740.903226 439.075245 
L 753.677419 438.444036 
L 766.451613 438.287207 
L 779.225806 438.334937 
" clip-path="url(#p3ee2bfbd82)" style="fill: none; stroke: #000000; stroke-width: 1.5; stroke-linecap: square"/>
   </g>
   <g id="line2d_7">
    <path d="M 0 459 
L 12.774194 459 
L 25.548387 455.368078 
L 38.322581 454.396607 
L 51.096774 453.842896 
L 63.870968 451.23234 
L 76.645161 449.908675 
L 89.419355 449.354922 
L 102.193548 450.192938 
L 114.967742 451.223178 
L 127.741935 451.387772 
L 140.516129 451.232158 
L 153.290323 450.72873 
L 166.064516 451.341526 
L 178.83871 450.079251 
L 191.612903 448.490159 
L 204.387097 447.306242 
L 217.16129 446.040794 
L 229.935484 445.184198 
L 242.709677 444.447514 
L 255.483871 443.617772 
L 268.258065 442.991249 
L 281.032258 442.08555 
L 293.806452 441.085771 
L 306.580645 439.513267 
L 319.354839 440.799008 
L 332.129032 440.275724 
L 344.903226 439.758925 
L 357.677419 438.781934 
L 370.451613 437.867503 
L 383.225806 436.997339 
L 396 436.601897 
L 408.774194 436.53781 
L 421.548387 436.578077 
L 434.322581 436.501814 
L 447.096774 436.57627 
L 459.870968 436.386041 
L 472.645161 436.163055 
L 485.419355 436.049462 
L 498.193548 436.351449 
L 510.967742 436.828174 
L 523.741935 437.418446 
L 536.516129 437.945119 
L 549.290323 438.135496 
L 562.064516 438.547292 
L 574.83871 438.901947 
L 587.612903 439.278101 
L 600.387097 439.831326 
L 613.16129 440.136255 
L 625.935484 440.450677 
L 638.709677 440.742309 
L 651.483871 440.849174 
L 664.258065 441.061942 
L 677.032258 440.92271 
L 689.806452 440.822477 
L 702.580645 440.622604 
L 715.354839 440.252883 
L 728.129032 439.79983 
L 740.903226 439.303022 
L 753.677419 438.888329 
L 766.451613 438.774358 
L 779.225806 438.790682 
" clip-path="url(#p3ee2bfbd82)" style="fill: none; stroke: #000000; stroke-width: 1.5; stroke-linecap: square"/>
   </g>
   <g id="line2d_8">
    <path d="M 0 459 
L 12.774194 459 
L 25.548387 455.387532 
L 38.322581 454.419857 
L 51.096774 453.869042 
L 63.870968 451.308175 
L 76.645161 450.006215 
L 89.419355 449.455393 
L 102.193548 450.249947 
L 114.967742 451.231056 
L 127.741935 451.387221 
L 140.516129 451.239604 
L 153.290323 450.763634 
L 166.064516 451.336428 
L 178.83871 450.15698 
L 191.612903 448.673466 
L 204.387097 447.565395 
L 217.16129 446.38343 
L 229.935484 445.577594 
L 242.709677 444.882977 
L 255.483871 444.105844 
L 268.258065 443.514113 
L 281.032258 442.673403 
L 293.806452 441.750223 
L 306.580645 440.318699 
L 319.354839 441.421648 
L 332.129032 440.932709 
L 344.903226 440.451016 
L 357.677419 439.568595 
L 370.451613 438.741552 
L 383.225806 437.953947 
L 396 437.576856 
L 408.774194 437.485986 
L 421.548387 437.486403 
L 434.322581 437.389759 
L 447.096774 437.422501 
L 459.870968 437.233855 
L 472.645161 437.018976 
L 485.419355 436.896686 
L 498.193548 437.121557 
L 510.967742 437.493067 
L 523.741935 437.96022 
L 536.516129 438.377054 
L 549.290323 438.520345 
L 562.064516 438.844984 
L 574.83871 439.124484 
L 587.612903 439.42238 
L 600.387097 439.863767 
L 613.16129 440.107343 
L 625.935484 440.359131 
L 638.709677 440.593393 
L 651.483871 440.681815 
L 664.258065 440.853859 
L 677.032258 440.749577 
L 689.806452 440.675327 
L 702.580645 440.523002 
L 715.354839 440.238161 
L 728.129032 439.887905 
L 740.903226 439.502853 
L 753.677419 439.179775 
L 766.451613 439.08599 
L 779.225806 439.091493 
" clip-path="url(#p3ee2bfbd82)" style="fill: none; stroke: #000000; stroke-width: 1.5; stroke-linecap: square"/>
   </g>
   <g id="line2d_9">
    <path d="M 0 459 
L 12.774194 459 
L 25.548387 455.39726 
L 38.322581 454.431523 
L 51.096774 453.882192 
L 63.870968 451.346026 
L 76.645161 450.05501 
L 89.419355 449.505882 
L 102.193548 450.279269 
L 114.967742 451.236309 
L 127.741935 451.388232 
L 140.516129 451.2444 
L 153.290323 450.781743 
L 166.064516 451.335128 
L 178.83871 450.195755 
L 191.612903 448.763557 
L 204.387097 447.692719 
L 217.16129 446.551834 
L 229.935484 445.771528 
L 242.709677 445.098351 
L 255.483871 444.347751 
L 268.258065 443.774134 
L 281.032258 442.965951 
L 293.806452 442.080938 
L 306.580645 440.71827 
L 319.354839 441.737209 
L 332.129032 441.266139 
L 344.903226 440.802726 
L 357.677419 439.966603 
L 370.451613 439.182731 
L 383.225806 438.436248 
L 396 438.070463 
L 408.774194 437.969832 
L 421.548387 437.954248 
L 434.322581 437.850456 
L 447.096774 437.866044 
L 459.870968 437.680099 
L 472.645161 437.470906 
L 485.419355 437.346555 
L 498.193548 437.537827 
L 510.967742 437.862552 
L 523.741935 438.274344 
L 536.516129 438.641475 
L 549.290323 438.763362 
L 562.064516 439.048195 
L 574.83871 439.293081 
L 587.612903 439.55473 
L 600.387097 439.944413 
L 613.16129 440.158796 
L 625.935484 440.380654 
L 638.709677 440.587203 
L 651.483871 440.665304 
L 664.258065 440.817008 
L 677.032258 440.726286 
L 689.806452 440.66177 
L 702.580645 440.528988 
L 715.354839 440.280607 
L 728.129032 439.975171 
L 740.903226 439.639355 
L 753.677419 439.356997 
L 766.451613 439.27255 
L 779.225806 439.273709 
" clip-path="url(#p3ee2bfbd82)" style="fill: none; stroke: #000000; stroke-width: 1.5; stroke-linecap: square"/>
   </g>
  </g>
 </g>
 <defs>
  <clipPath id="p3ee2bfbd82">
   <rect x="0" y="0" width="792" height="612"/>
  </clipPath>
 </defs>
</svg>
