<?xml version="1.0" encoding="utf-8" standalone="no"?>
<!DOCTYPE svg PUBLIC "-//W3C//DTD SVG 1.1//EN"
  "http://www.w3.org/Graphics/SVG/1.1/DTD/svg11.dtd">
<svg xmlns:xlink="http://www.w3.org/1999/xlink" width="792pt" height="612pt" viewBox="0 0 792 612" xmlns="http://www.w3.org/2000/svg" version="1.1">
 <metadata>
  <rdf:RDF xmlns:dc="http://purl.org/dc/elements/1.1/" xmlns:cc="http://creativecommons.org/ns#" xmlns:rdf="http://www.w3.org/1999/02/22-rdf-syntax-ns#">
   <cc:Work>
    <dc:type rdf:resource="http://purl.org/dc/dcmitype/StillImage"/>
    <dc:date>2023-01-23T15:50:13.294593</dc:date>
    <dc:format>image/svg+xml</dc:format>
    <dc:creator>
     <cc:Agent>
      <dc:title>Matplotlib v3.6.2, https://matplotlib.org/</dc:title>
     </cc:Agent>
    </dc:creator>
   </cc:Work>
  </rdf:RDF>
 </metadata>
 <defs>
  <style type="text/css">*{stroke-linejoin: round; stroke-linecap: butt}</style>
 </defs>
 <g id="figure_1">
  <g id="patch_1">
   <path d="M 0 612 
L 792 612 
L 792 0 
L 0 0 
z
" style="fill: #ffffff"/>
  </g>
  <g id="axes_1">
   <g id="line2d_1">
    <path d="M 0 459 
L 44 459.990584 
L 88 455.546169 
L 132 455.94063 
L 176 452.241722 
L 220 451.645759 
L 264 454.748498 
L 308 453.495069 
L 352 453.232122 
L 396 460.449351 
L 440 464.581169 
L 484 468.82987 
L 528 468.818182 
L 572 468.800649 
L 616 469.987013 
L 660 467.824675 
L 704 467.161364 
L 748 468.943831 
" clip-path="url(#pedf6bfe194)" style="fill: none; stroke: #000000; stroke-width: 1.5; stroke-linecap: square"/>
   </g>
   <g id="line2d_2">
    <path d="M 0 459 
L 44 459 
L 88 459.66039 
L 132 457.87542 
L 176 456.843522 
L 220 454.468287 
L 264 453.034566 
L 308 453.898262 
L 352 453.695874 
L 396 453.452688 
L 440 458.402934 
L 484 461.704274 
L 528 465.288346 
L 572 467.076933 
L 616 467.962815 
L 660 468.999236 
L 704 468.432857 
L 748 467.816883 
" clip-path="url(#pedf6bfe194)" style="fill: none; stroke: #000000; stroke-width: 1.5; stroke-linecap: square"/>
   </g>
   <g id="line2d_3">
    <path d="M 0 459 
L 44 459 
L 88 459.580271 
L 132 458.387185 
L 176 457.431734 
L 220 455.585074 
L 264 454.266362 
L 308 454.421267 
L 352 454.131901 
L 396 453.856172 
L 440 456.725828 
L 484 460.14061 
L 528 462.726033 
L 572 464.530316 
L 616 465.790916 
L 660 467.026752 
L 704 467.261375 
L 748 467.241456 
" clip-path="url(#pedf6bfe194)" style="fill: none; stroke: #000000; stroke-width: 1.5; stroke-linecap: square"/>
   </g>
   <g id="line2d_4">
    <path d="M 0 459 
L 44 459 
L 88 459.538099 
L 132 458.625213 
L 176 457.770948 
L 220 456.252913 
L 264 455.118912 
L 308 455.035043 
L 352 454.708348 
L 396 454.410948 
L 440 456.138127 
L 484 459.267343 
L 528 461.006123 
L 572 462.395042 
L 616 463.513012 
L 660 464.625754 
L 704 465.168645 
L 748 465.503281 
" clip-path="url(#pedf6bfe194)" style="fill: none; stroke: #000000; stroke-width: 1.5; stroke-linecap: square"/>
   </g>
   <g id="line2d_5">
    <path d="M 0 459 
L 44 459 
L 88 459.516736 
L 132 458.735746 
L 176 457.943694 
L 220 456.597561 
L 264 455.583706 
L 308 455.43127 
L 352 455.109865 
L 396 454.822052 
L 440 456.042978 
L 484 458.703975 
L 528 460.176031 
L 572 461.237401 
L 616 462.130699 
L 660 463.027134 
L 704 463.558036 
L 748 463.94605 
" clip-path="url(#pedf6bfe194)" style="fill: none; stroke: #000000; stroke-width: 1.5; stroke-linecap: square"/>
   </g>
   <g id="line2d_6">
    <path d="M 0 459 
L 44 459 
L 88 459.506019 
L 132 458.788446 
L 176 458.029571 
L 220 456.769508 
L 264 455.820388 
L 308 455.646659 
L 352 455.335202 
L 396 455.059033 
L 440 456.058553 
L 484 458.260156 
L 528 459.807193 
L 572 460.6944 
L 616 461.450159 
L 660 462.207561 
L 704 462.683855 
L 748 463.048077 
" clip-path="url(#pedf6bfe194)" style="fill: none; stroke: #000000; stroke-width: 1.5; stroke-linecap: square"/>
   </g>
   <g id="line2d_7">
    <path d="M 0 459 
L 44 459 
L 88 459.500656 
L 132 458.814105 
L 176 458.072219 
L 220 456.854976 
L 264 455.93901 
L 308 455.757686 
L 352 455.452947 
L 396 455.184264 
L 440 456.082448 
L 484 458.069569 
L 528 459.639112 
L 572 460.440556 
L 616 461.125374 
L 660 461.809873 
L 704 462.249914 
L 748 462.591559 
" clip-path="url(#pedf6bfe194)" style="fill: none; stroke: #000000; stroke-width: 1.5; stroke-linecap: square"/>
   </g>
   <g id="line2d_8">
    <path d="M 0 459 
L 44 459 
L 88 459.497974 
L 132 458.826756 
L 176 458.09345 
L 220 456.897532 
L 264 455.99829 
L 308 455.813892 
L 352 455.512922 
L 396 455.248372 
L 440 456.098346 
L 484 457.982509 
L 528 459.559639 
L 572 460.319028 
L 616 460.968425 
L 660 461.616309 
L 704 462.036642 
L 748 462.364918 
" clip-path="url(#pedf6bfe194)" style="fill: none; stroke: #000000; stroke-width: 1.5; stroke-linecap: square"/>
   </g>
   <g id="line2d_9">
    <path d="M 0 459 
L 44 459 
L 88 459.496633 
L 132 458.833036 
L 176 458.10404 
L 220 456.918758 
L 264 456.027908 
L 308 455.842149 
L 352 455.543162 
L 396 455.280772 
L 440 456.107265 
L 484 457.94107 
L 528 459.521094 
L 572 460.259721 
L 616 460.891493 
L 660 461.521115 
L 704 461.93129 
L 748 462.252449 
" clip-path="url(#pedf6bfe194)" style="fill: none; stroke: #000000; stroke-width: 1.5; stroke-linecap: square"/>
   </g>
  </g>
 </g>
 <defs>
  <clipPath id="pedf6bfe194">
   <rect x="0" y="0" width="792" height="612"/>
  </clipPath>
 </defs>
</svg>
