<?xml version="1.0" encoding="utf-8" standalone="no"?>
<!DOCTYPE svg PUBLIC "-//W3C//DTD SVG 1.1//EN"
  "http://www.w3.org/Graphics/SVG/1.1/DTD/svg11.dtd">
<svg xmlns:xlink="http://www.w3.org/1999/xlink" width="792pt" height="612pt" viewBox="0 0 792 612" xmlns="http://www.w3.org/2000/svg" version="1.1">
 <metadata>
  <rdf:RDF xmlns:dc="http://purl.org/dc/elements/1.1/" xmlns:cc="http://creativecommons.org/ns#" xmlns:rdf="http://www.w3.org/1999/02/22-rdf-syntax-ns#">
   <cc:Work>
    <dc:type rdf:resource="http://purl.org/dc/dcmitype/StillImage"/>
    <dc:date>2023-01-16T16:12:24.718577</dc:date>
    <dc:format>image/svg+xml</dc:format>
    <dc:creator>
     <cc:Agent>
      <dc:title>Matplotlib v3.6.2, https://matplotlib.org/</dc:title>
     </cc:Agent>
    </dc:creator>
   </cc:Work>
  </rdf:RDF>
 </metadata>
 <defs>
  <style type="text/css">*{stroke-linejoin: round; stroke-linecap: butt}</style>
 </defs>
 <g id="figure_1">
  <g id="patch_1">
   <path d="M 0 612 
L 792 612 
L 792 0 
L 0 0 
z
" style="fill: #ffffff"/>
  </g>
  <g id="axes_1">
   <g id="line2d_1">
    <path d="M 0 459 
L 3.168 457.47661 
L 6.336 456.998689 
L 9.504 458.820777 
L 12.672 457.725529 
L 15.84 460.377362 
L 19.008 459.84965 
L 22.176 458.392634 
L 25.344 453.95209 
L 28.512 447.472413 
L 31.68 451.612669 
L 34.848 440.301467 
L 38.016 431.373354 
L 41.184 436.932772 
L 44.352 436.406309 
L 47.52 426.773063 
L 50.688 422.129806 
L 53.856 433.407641 
L 57.024 441.94185 
L 60.192 445.651653 
L 63.36 441.84242 
L 66.528 440.033085 
L 69.696 449.691638 
L 72.864 452.209936 
L 76.032 457.486567 
L 79.2 459.454695 
L 82.368 460.692661 
L 85.536 444.308736 
L 88.704 444.189377 
L 91.872 443.811422 
L 95.04 434.737921 
L 98.208 433.53668 
L 101.376 421.585766 
L 104.544 433.258756 
L 107.712 446.586858 
L 110.88 434.549274 
L 114.048 428.725464 
L 117.216 437.230796 
L 120.384 432.216712 
L 123.552 422.317771 
L 126.72 421.971529 
L 129.888 413.320411 
L 133.056 414.207822 
L 136.224 412.689573 
L 139.392 414.996916 
L 142.56 417.059651 
L 145.728 406.980945 
L 148.896 407.403634 
L 152.064 407.236514 
L 155.232 409.666018 
L 158.4 399.760518 
L 161.568 410.414127 
L 164.736 407.836245 
L 167.904 410.364902 
L 171.072 402.759083 
L 174.24 389.093616 
L 177.408 384.045048 
L 180.576 375.342061 
L 183.744 383.570256 
L 186.912 387.18859 
L 190.08 383.996592 
L 193.248 386.110842 
L 196.416 386.829249 
L 199.584 383.318393 
L 202.752 375.293932 
L 205.92 383.570256 
L 209.088 399.643031 
L 212.256 396.385952 
L 215.424 406.666444 
L 218.592 406.636962 
L 221.76 396.239386 
L 224.928 411.812607 
L 228.096 419.114214 
L 231.264 420.626536 
L 234.432 412.728995 
L 237.6 425.47541 
L 240.768 420.626536 
L 243.936 433.705429 
L 247.104 432.127406 
L 250.272 433.973455 
L 253.44 441.2757 
L 256.608 434.718063 
L 259.776 430.926946 
L 262.944 427.645061 
L 266.112 448.656603 
L 272.448 434.39042 
L 275.616 428.091057 
L 278.784 422.664056 
L 281.952 422.139699 
L 285.12 418.047215 
L 288.288 413.231689 
L 291.456 423.435924 
L 294.624 427.62524 
L 297.792 427.912651 
L 300.96 434.50956 
L 304.128 429.974789 
L 307.296 423.119235 
L 310.464 426.654172 
L 313.632 430.718641 
L 316.8 435.48266 
L 319.968 450.328631 
L 323.136 458.243281 
L 326.304 455.674476 
L 329.472 460.626283 
L 332.64 461.963817 
L 335.808 439.764716 
L 338.976 430.470673 
L 342.144 420.438685 
L 345.312 424.564403 
L 348.48 414.661519 
L 351.648 411.920978 
L 354.816 404.770672 
L 357.984 406.81386 
L 361.152 403.112182 
L 364.32 415.07584 
L 367.488 405.183066 
L 370.656 406.076888 
L 373.824 401.906043 
L 376.992 403.553649 
L 380.16 406.03759 
L 383.328 419.025281 
L 386.496 417.849671 
L 389.664 391.040065 
L 392.832 401.180783 
L 396 387.441153 
L 399.168 401.082797 
L 402.336 398.155541 
L 405.504 399.182946 
L 408.672 391.312769 
L 411.84 389.249238 
L 415.008 386.314677 
L 418.176 379.652399 
L 421.344 378.831622 
L 424.512 385.567425 
L 427.68 385.489811 
L 430.848 380.464033 
L 434.016 387.149738 
L 437.184 385.877923 
L 440.352 384.384286 
L 443.52 383.74465 
L 446.688 383.299021 
L 449.856 388.014442 
L 453.024 377.519482 
L 456.192 376.613363 
L 459.36 375.188054 
L 462.528 376.266514 
L 465.696 376.054598 
L 468.864 373.072445 
L 472.032 376.680817 
L 475.2 385.160001 
L 478.368 384.520005 
L 481.536 379.575127 
L 484.704 391.527071 
L 487.872 391.020588 
L 491.04 397.783871 
L 494.208 401.219978 
L 497.376 396.649805 
L 500.544 404.142433 
L 503.712 402.837544 
L 506.88 398.918698 
L 510.048 393.223056 
L 513.216 396.317553 
L 516.384 389.57999 
L 519.552 406.489558 
L 522.72 410.611042 
L 525.888 397.715414 
L 529.056 399.56471 
L 532.224 397.089653 
L 535.392 397.82299 
L 538.56 408.337796 
L 541.728 403.053327 
L 544.896 406.833516 
L 548.064 411.999796 
L 551.232 411.989943 
L 554.4 406.509211 
L 557.568 411.53678 
L 560.736 415.273161 
L 563.904 404.967039 
L 567.072 397.461171 
L 570.24 393.652218 
L 573.408 401.41597 
L 576.576 415.460631 
L 579.744 421.37807 
L 582.912 420.438685 
L 586.08 420.290391 
L 589.248 410.4732 
L 592.416 407.305327 
L 595.584 398.722984 
L 598.752 398.400106 
L 601.92 400.250136 
L 605.088 399.701774 
L 608.256 387.169163 
L 611.424 379.546151 
L 614.592 380.879709 
L 617.76 378.030669 
L 620.928 379.352996 
L 624.096 370.270303 
L 627.264 366.528888 
L 630.432 374.043238 
L 633.6 377.779872 
L 636.768 377.606272 
L 639.936 382.863221 
L 643.104 376.247247 
L 646.272 368.536787 
L 649.44 380.454368 
L 652.608 377.06634 
L 655.776 398.527293 
L 658.944 406.695926 
L 662.112 417.276882 
L 665.28 408.888659 
L 668.448 405.163426 
L 671.616 390.796621 
L 674.784 403.318187 
L 677.952 397.539395 
L 681.12 391.07902 
L 684.288 383.395885 
L 687.456 388.587958 
L 690.624 392.745263 
L 693.792 373.610609 
L 696.96 384.083814 
L 700.128 384.810875 
L 703.296 385.897331 
L 706.464 381.750154 
L 709.632 378.281515 
L 712.8 373.456823 
L 715.968 381.866257 
L 719.136 375.438325 
L 722.304 382.814808 
L 725.472 382.679259 
L 728.64 393.057274 
L 731.808 396.943024 
L 734.976 397.040775 
L 738.144 400.35787 
L 741.312 393.193799 
L 744.48 393.632708 
L 747.648 389.521617 
L 750.816 388.860214 
L 753.984 392.306603 
L 757.152 390.913469 
L 760.32 390.621365 
L 763.488 401.89624 
L 769.824 430.19297 
L 776.16 430.093795 
L 779.328 434.122366 
L 782.496 426.782971 
L 785.664 424.5347 
L 788.832 430.579777 
L 788.832 430.579777 
" clip-path="url(#p1c52c364f3)" style="fill: none; stroke: #000000; stroke-width: 1.5; stroke-linecap: square"/>
   </g>
   <g id="line2d_2">
    <path d="M 0 459 
L 3.168 459 
L 6.336 457.984405 
L 9.504 457.421137 
L 12.672 458.16761 
L 15.84 457.939439 
L 19.008 459.525658 
L 22.176 459.688929 
L 25.344 459.241489 
L 28.512 456.828294 
L 31.68 452.130026 
L 34.848 451.860785 
L 38.016 446.042772 
L 41.184 438.651235 
L 44.352 437.740634 
L 47.52 437.024203 
L 50.688 431.833355 
L 53.856 426.915738 
L 57.024 430.132725 
L 60.192 436.014548 
L 63.36 440.841582 
L 66.528 441.362527 
L 69.696 440.703849 
L 72.864 445.222479 
L 76.032 448.765566 
L 79.2 453.195008 
L 82.368 456.832316 
L 85.536 459.499521 
L 88.704 452.398958 
L 91.872 448.297916 
L 95.04 446.061772 
L 98.208 440.367697 
L 101.376 436.914385 
L 104.544 429.171484 
L 107.712 431.161562 
L 110.88 438.834279 
L 114.048 436.672163 
L 117.216 432.666538 
L 120.384 434.935182 
L 123.552 433.570779 
L 126.72 427.917588 
L 129.888 424.943879 
L 133.056 419.086662 
L 136.224 416.582816 
L 139.392 414.592666 
L 142.56 414.767935 
L 145.728 415.874124 
L 148.896 411.373695 
L 152.064 409.358552 
L 155.232 408.268447 
L 158.4 408.959958 
L 161.568 404.32638 
L 164.736 407.363501 
L 167.904 407.585844 
L 171.072 408.96181 
L 174.24 405.849705 
L 177.408 397.414889 
L 180.576 390.669816 
L 183.744 382.917257 
L 186.912 383.212154 
L 190.08 385.153801 
L 193.248 384.528673 
L 199.584 386.019534 
L 202.752 384.656991 
L 205.92 379.949825 
L 209.088 381.774967 
L 212.256 390.714031 
L 215.424 393.565496 
L 218.592 400.148361 
L 221.76 403.430258 
L 224.928 399.849676 
L 228.096 405.878135 
L 231.264 412.573088 
L 234.432 416.669728 
L 237.6 414.7243 
L 240.768 420.151758 
L 243.936 420.416586 
L 247.104 427.107496 
L 250.272 429.687362 
L 253.44 431.873393 
L 256.608 436.615719 
L 259.776 435.694481 
L 262.944 433.345829 
L 266.112 430.4986 
L 269.28 439.625021 
L 272.448 440.589899 
L 275.616 437.493618 
L 278.784 432.778039 
L 281.952 427.680777 
L 285.12 424.884351 
L 288.288 421.438457 
L 291.456 417.303485 
L 294.624 420.318731 
L 297.792 423.94258 
L 300.96 425.914312 
L 304.128 430.221984 
L 307.296 430.112735 
L 310.464 426.616019 
L 313.632 426.651997 
L 316.8 428.719088 
L 319.968 432.123048 
L 323.136 441.263379 
L 326.304 449.809706 
L 329.472 452.783373 
L 332.64 458.397475 
L 335.808 460.410798 
L 338.976 451.519372 
L 345.312 430.668112 
L 348.48 427.564457 
L 351.648 421.02031 
L 354.816 416.381053 
L 357.984 410.45293 
L 361.152 408.51384 
L 364.32 405.739726 
L 367.488 410.372662 
L 370.656 407.746361 
L 373.824 406.875335 
L 376.992 404.364103 
L 380.16 403.942457 
L 383.328 404.992222 
L 386.496 412.021587 
L 389.664 414.962794 
L 392.832 402.915661 
L 396 402.040173 
L 399.168 394.687582 
L 402.336 397.880559 
L 405.504 398.007477 
L 408.672 398.581701 
L 411.84 394.889099 
L 418.176 389.150752 
L 421.344 384.351328 
L 424.512 381.571732 
L 427.68 383.537888 
L 430.848 384.488792 
L 434.016 382.438381 
L 437.184 384.783915 
L 440.352 385.324212 
L 449.856 383.810918 
L 453.024 385.915903 
L 456.192 381.695407 
L 459.36 379.144307 
L 462.528 377.141228 
L 465.696 376.685012 
L 468.864 376.353481 
L 472.032 374.690984 
L 475.2 375.672563 
L 478.368 380.402063 
L 481.536 382.473191 
L 484.704 381.029179 
L 487.872 386.300478 
L 491.04 388.687665 
L 494.208 393.271971 
L 497.376 397.296834 
L 500.544 397.012715 
L 503.712 400.611349 
L 506.88 401.760199 
L 510.048 400.377075 
L 513.216 396.799551 
L 516.384 396.56894 
L 519.552 393.054483 
L 522.72 399.769426 
L 525.888 405.210023 
L 529.056 401.446216 
L 532.224 400.498798 
L 535.392 398.789793 
L 538.56 398.315358 
L 541.728 403.343424 
L 544.896 403.224895 
L 548.064 405.029034 
L 551.232 408.514187 
L 554.4 410.279425 
L 557.568 408.407109 
L 560.736 409.999778 
L 563.904 412.669244 
L 567.072 408.807949 
L 570.24 403.114913 
L 573.408 398.35119 
L 576.576 399.862232 
L 579.744 407.653203 
L 582.912 414.534761 
L 586.08 417.502458 
L 589.248 418.905894 
L 592.416 414.696603 
L 595.584 411.017206 
L 598.752 404.870239 
L 601.92 401.626358 
L 608.256 400.262695 
L 611.424 393.63749 
L 614.592 386.495051 
L 620.928 380.768849 
L 624.096 380.022989 
L 627.264 375.082071 
L 630.432 370.732043 
L 633.6 372.336711 
L 636.768 375.036934 
L 639.936 376.317137 
L 643.104 379.589899 
L 646.272 377.913964 
L 649.44 373.194905 
L 652.608 376.83932 
L 655.776 376.973577 
L 658.944 387.758234 
L 662.112 397.25719 
L 665.28 407.320362 
L 668.448 408.15575 
L 671.616 406.716275 
L 674.784 398.782233 
L 677.952 401.093863 
L 681.12 399.356179 
L 684.288 395.197703 
L 687.456 389.239473 
L 690.624 388.857887 
L 693.792 390.768861 
L 696.96 382.100542 
L 700.128 383.078692 
L 703.296 383.908464 
L 706.464 384.879819 
L 709.632 383.295831 
L 712.8 380.776242 
L 715.968 377.081574 
L 719.136 379.450479 
L 722.304 377.446386 
L 725.472 380.125335 
L 728.64 381.397507 
L 731.808 387.229538 
L 734.976 392.108473 
L 738.144 394.609684 
L 741.312 397.534449 
L 744.48 395.385 
L 747.648 394.544536 
L 750.816 392.044231 
L 753.984 390.463538 
L 757.152 391.383321 
L 763.488 390.866385 
L 766.656 396.375108 
L 769.824 406.110908 
L 772.992 418.195499 
L 776.16 424.248642 
L 779.328 427.25139 
L 782.496 430.767847 
L 785.664 428.84575 
L 788.832 426.75655 
L 788.832 426.75655 
" clip-path="url(#p1c52c364f3)" style="fill: none; stroke: #000000; stroke-width: 1.5; stroke-linecap: square"/>
   </g>
   <g id="line2d_3">
    <path d="M 0 459 
L 3.168 459 
L 6.336 458.107617 
L 9.504 457.60518 
L 12.672 458.079899 
L 15.84 457.953818 
L 19.008 459.229055 
L 22.176 459.428447 
L 25.344 459.231341 
L 28.512 457.934427 
L 31.68 454.770713 
L 34.848 453.824786 
L 38.016 449.799024 
L 41.184 444.3362 
L 44.352 442.149744 
L 47.52 440.457556 
L 50.688 436.429217 
L 53.856 432.192917 
L 57.024 432.521079 
L 60.192 435.261142 
L 63.36 438.287305 
L 66.528 439.310116 
L 69.696 439.495363 
L 76.032 445.312133 
L 79.2 448.88077 
L 85.536 455.73423 
L 88.704 452.391336 
L 91.872 450.003114 
L 95.04 448.197079 
L 98.208 444.250102 
L 101.376 441.117811 
L 104.544 435.386473 
L 107.712 434.762999 
L 110.88 438.228822 
L 114.048 437.138063 
L 117.216 434.657226 
L 120.384 435.407639 
L 123.552 434.452739 
L 126.72 430.859864 
L 129.888 428.213333 
L 133.056 423.789233 
L 136.224 420.922274 
L 139.392 418.471964 
L 142.56 417.420239 
L 145.728 417.284019 
L 148.896 414.229641 
L 152.064 412.198216 
L 155.232 410.727312 
L 158.4 410.389431 
L 161.568 407.216827 
L 164.736 408.12522 
L 167.904 408.016687 
L 171.072 408.673512 
L 174.24 406.905686 
L 180.576 396.416974 
L 183.744 390.168587 
L 186.912 388.197867 
L 190.08 387.873107 
L 193.248 386.701266 
L 196.416 386.493083 
L 199.584 386.568541 
L 202.752 385.588315 
L 205.92 382.528318 
L 209.088 382.803706 
L 212.256 387.716059 
L 215.424 390.234327 
L 218.592 395.029191 
L 221.76 398.416834 
L 224.928 397.771301 
L 228.096 401.899184 
L 231.264 406.967131 
L 234.432 411.01175 
L 237.6 411.54832 
L 240.768 415.663699 
L 243.936 417.158669 
L 247.104 422.050704 
L 250.272 425.05123 
L 253.44 427.720805 
L 256.608 431.762927 
L 259.776 432.687562 
L 262.944 432.207959 
L 266.112 430.907089 
L 269.28 436.147828 
L 272.448 437.762201 
L 275.616 436.818519 
L 278.784 434.279136 
L 281.952 430.877287 
L 285.12 428.317442 
L 288.288 425.311829 
L 291.456 421.753937 
L 294.624 422.249705 
L 297.792 423.81621 
L 300.96 425.010642 
L 304.128 427.790763 
L 307.296 428.41735 
L 310.464 426.851341 
L 313.632 426.788686 
L 316.8 427.942807 
L 319.968 430.134526 
L 323.136 436.05124 
L 326.304 442.572042 
L 329.472 446.439548 
L 332.64 451.593252 
L 335.808 456.419099 
L 338.976 451.56353 
L 342.144 445.398247 
L 345.312 438.06932 
L 348.48 434.105482 
L 351.648 428.382772 
L 354.816 423.525145 
L 357.984 417.987902 
L 364.32 411.265838 
L 367.488 412.363203 
L 370.656 410.22297 
L 373.824 408.957254 
L 376.992 406.82516 
L 380.16 405.807014 
L 383.328 405.808731 
L 386.496 409.615936 
L 389.664 411.999436 
L 392.832 405.790753 
L 396 404.4173 
L 399.168 399.384697 
L 402.336 399.866358 
L 405.504 399.349333 
L 408.672 399.294189 
L 418.176 392.180807 
L 421.344 388.470623 
L 424.512 385.609252 
L 430.848 385.53178 
L 434.016 384.016309 
L 437.184 384.897129 
L 440.352 385.147974 
L 443.52 384.916621 
L 449.856 384.181081 
L 453.024 385.287844 
L 456.192 382.98421 
L 459.36 381.08919 
L 462.528 379.339476 
L 465.696 378.423786 
L 468.864 377.717648 
L 472.032 376.347714 
L 475.2 376.442801 
L 478.368 378.989484 
L 481.536 380.605824 
L 484.704 380.302834 
L 487.872 383.585963 
L 491.04 385.765389 
L 497.376 392.795805 
L 500.544 393.93903 
L 503.712 396.93976 
L 506.88 398.694355 
L 510.048 398.785867 
L 513.216 397.175512 
L 516.384 396.947372 
L 519.552 394.801625 
L 522.72 398.255475 
L 525.888 401.905086 
L 529.056 400.691429 
L 532.224 400.378716 
L 535.392 399.434983 
L 538.56 398.969935 
L 541.728 401.728733 
L 544.896 402.122657 
L 548.064 403.507668 
L 551.232 406.008883 
L 554.4 407.767914 
L 557.568 407.40339 
L 560.736 408.627704 
L 563.904 410.597441 
L 567.072 408.956708 
L 573.408 402.071525 
L 576.576 401.868954 
L 579.744 405.860819 
L 582.912 410.419674 
L 586.08 413.37665 
L 589.248 415.425502 
L 592.416 413.976351 
L 595.584 412.025234 
L 598.752 408.110452 
L 601.92 405.245551 
L 605.088 403.767567 
L 608.256 402.567966 
L 611.424 398.014779 
L 614.592 392.540806 
L 617.76 389.08794 
L 620.928 385.817817 
L 624.096 383.904709 
L 630.432 375.884635 
L 633.6 375.291445 
L 636.768 375.971514 
L 639.936 376.401796 
L 643.104 378.259608 
L 646.272 377.634541 
L 649.44 374.928223 
L 652.608 376.523843 
L 655.776 376.656314 
L 658.944 383.02572 
L 662.112 389.943962 
L 665.28 397.950262 
L 668.448 401.179623 
L 671.616 402.37694 
L 674.784 398.990127 
L 677.952 400.295002 
L 681.12 399.523498 
L 684.288 397.065416 
L 687.456 393.055455 
L 690.624 391.758284 
L 693.792 392.058681 
L 696.96 386.62651 
L 700.128 385.899283 
L 703.296 385.585422 
L 706.464 385.686946 
L 709.632 384.513515 
L 712.8 382.652744 
L 715.968 379.902589 
L 719.136 380.4467 
L 722.304 378.94385 
L 725.472 380.067316 
L 728.64 380.808291 
L 734.976 388.055218 
L 738.144 390.697269 
L 741.312 393.534308 
L 744.48 393.435083 
L 747.648 393.516121 
L 750.816 392.35135 
L 753.984 391.33265 
L 757.152 391.625224 
L 763.488 391.205432 
L 766.656 394.362288 
L 769.824 400.656666 
L 772.992 409.331351 
L 776.16 415.467137 
L 782.496 424.034307 
L 785.664 424.87358 
L 788.832 424.806085 
L 788.832 424.806085 
" clip-path="url(#p1c52c364f3)" style="fill: none; stroke: #000000; stroke-width: 1.5; stroke-linecap: square"/>
   </g>
   <g id="line2d_4">
    <path d="M 0 459 
L 3.168 459 
L 6.336 458.172472 
L 9.504 457.711802 
L 12.672 458.064685 
L 15.84 457.971577 
L 19.008 459.08056 
L 22.176 459.254696 
L 25.344 459.157717 
L 28.512 458.360869 
L 31.68 456.256032 
L 34.848 455.38819 
L 38.016 452.643393 
L 41.184 448.857132 
L 44.352 446.774531 
L 47.52 444.991272 
L 50.688 441.894749 
L 53.856 438.569182 
L 57.024 437.709596 
L 60.192 438.408722 
L 63.36 439.597664 
L 66.528 439.96439 
L 69.696 439.975567 
L 72.864 441.549767 
L 76.032 443.271785 
L 82.368 447.942454 
L 85.536 450.532914 
L 88.704 449.534558 
L 95.04 447.899464 
L 98.208 445.793852 
L 101.376 443.834323 
L 104.544 440.263638 
L 107.712 439.133368 
L 110.88 440.312157 
L 114.048 439.379689 
L 117.216 437.664764 
L 120.384 437.57958 
L 123.552 436.707621 
L 126.72 434.391972 
L 129.888 432.393002 
L 133.056 429.329266 
L 136.224 426.894882 
L 139.392 424.612687 
L 142.56 423.07031 
L 145.728 422.100727 
L 148.896 419.670493 
L 152.064 417.702446 
L 155.232 416.024791 
L 158.4 414.99713 
L 161.568 412.539224 
L 164.736 412.179108 
L 167.904 411.466439 
L 171.072 411.272725 
L 174.24 409.886672 
L 177.408 406.523232 
L 180.576 402.881266 
L 183.744 398.413965 
L 186.912 395.993068 
L 190.08 394.553603 
L 193.248 392.831788 
L 196.416 391.724836 
L 199.584 390.915264 
L 202.752 389.672877 
L 205.92 387.346302 
L 209.088 386.714203 
L 212.256 388.735133 
L 215.424 389.926354 
L 218.592 392.564844 
L 221.76 394.777128 
L 224.928 394.987456 
L 228.096 397.647421 
L 231.264 401.045392 
L 234.432 404.152956 
L 237.6 405.51408 
L 240.768 408.686261 
L 243.936 410.585329 
L 247.104 414.26068 
L 250.272 417.111305 
L 253.44 419.804292 
L 256.608 423.232632 
L 259.776 425.07302 
L 262.944 426.023238 
L 266.112 426.292001 
L 269.28 429.868127 
L 272.448 431.74001 
L 275.616 432.181413 
L 278.784 431.554876 
L 281.952 430.16313 
L 285.12 428.914872 
L 288.288 427.204969 
L 291.456 424.993556 
L 294.624 424.770525 
L 300.96 425.699893 
L 304.128 427.132268 
L 307.296 427.618886 
L 310.464 426.927486 
L 313.632 426.900944 
L 316.8 427.529611 
L 319.968 428.811856 
L 323.136 432.256119 
L 326.304 436.422438 
L 329.472 439.509361 
L 335.808 447.332745 
L 338.976 446.14506 
L 342.144 443.651378 
L 345.312 439.949678 
L 348.48 437.492338 
L 354.816 430.327496 
L 357.984 426.222352 
L 364.32 419.897365 
L 367.488 419.121797 
L 370.656 416.871397 
L 373.824 415.128431 
L 376.992 412.998958 
L 380.16 411.478042 
L 383.328 410.601144 
L 386.496 411.937465 
L 389.664 412.876993 
L 392.832 409.371947 
L 396 408.05256 
L 399.168 404.731947 
L 402.336 404.134214 
L 405.504 403.159112 
L 408.672 402.506797 
L 415.008 398.850469 
L 418.176 396.821795 
L 421.344 394.042249 
L 424.512 391.567341 
L 427.68 390.566373 
L 430.848 389.71431 
L 434.016 388.187207 
L 437.184 387.972557 
L 440.352 387.605904 
L 449.856 385.975677 
L 453.024 386.283383 
L 459.36 383.530243 
L 462.528 382.179763 
L 472.032 379.188759 
L 475.2 378.771221 
L 478.368 379.775277 
L 481.536 380.517276 
L 484.704 380.350959 
L 487.872 382.106162 
L 491.04 383.504155 
L 494.208 385.771033 
L 497.376 388.218643 
L 500.544 389.562696 
L 503.712 391.875514 
L 506.88 393.617638 
L 510.048 394.45974 
L 513.216 394.264108 
L 516.384 394.595059 
L 519.552 393.798106 
L 522.72 395.827873 
L 525.888 398.191719 
L 529.056 398.123539 
L 532.224 398.361567 
L 535.392 398.169574 
L 538.56 398.121109 
L 541.728 399.756831 
L 544.896 400.292605 
L 548.064 401.346199 
L 551.232 403.055286 
L 554.4 404.489128 
L 557.568 404.82862 
L 560.736 405.916369 
L 563.904 407.427487 
L 567.072 407.053902 
L 570.24 405.537871 
L 573.408 403.654529 
L 576.576 403.313756 
L 579.744 405.2605 
L 582.912 407.840019 
L 586.08 409.865449 
L 589.248 411.538956 
L 592.416 411.38156 
L 595.584 410.738457 
L 598.752 408.820264 
L 601.92 407.159681 
L 608.256 405.041816 
L 611.424 402.178239 
L 614.592 398.546936 
L 620.928 392.877849 
L 624.096 390.700571 
L 630.432 384.040421 
L 633.6 382.428791 
L 639.936 381.0151 
L 643.104 381.293226 
L 646.272 380.472443 
L 649.44 378.541894 
L 652.608 378.82653 
L 655.776 378.524756 
L 658.944 381.683411 
L 662.112 385.632621 
L 665.28 390.62911 
L 668.448 393.523507 
L 671.616 395.374916 
L 674.784 394.643819 
L 677.952 396.022161 
L 681.12 396.252345 
L 684.288 395.40933 
L 687.456 393.468529 
L 690.624 392.671317 
L 693.792 392.672078 
L 696.96 389.600792 
L 700.128 388.712485 
L 703.296 388.082553 
L 706.464 387.725729 
L 709.632 386.762108 
L 712.8 385.403708 
L 715.968 383.491779 
L 719.136 383.233637 
L 722.304 381.988614 
L 728.64 382.218586 
L 731.808 383.954124 
L 734.976 386.027333 
L 738.144 387.786228 
L 741.312 389.793837 
L 747.648 390.874915 
L 753.984 390.389467 
L 757.152 390.703878 
L 763.488 390.704823 
L 766.656 392.47073 
L 769.824 396.167578 
L 772.992 401.559768 
L 776.16 406.109333 
L 782.496 413.783648 
L 785.664 415.869903 
L 788.832 417.272439 
L 788.832 417.272439 
" clip-path="url(#p1c52c364f3)" style="fill: none; stroke: #000000; stroke-width: 1.5; stroke-linecap: square"/>
   </g>
   <g id="line2d_5">
    <path d="M 0 459 
L 3.168 459 
L 6.336 458.205326 
L 9.504 457.767804 
L 12.672 458.06618 
L 15.84 457.985764 
L 19.008 459.013119 
L 22.176 459.165795 
L 25.344 459.104668 
L 28.512 458.492148 
L 31.68 456.91371 
L 34.848 456.197612 
L 38.016 454.155559 
L 41.184 451.354047 
L 44.352 449.649403 
L 47.52 448.137115 
L 50.688 445.768926 
L 53.856 443.217793 
L 57.024 442.186029 
L 60.192 442.160923 
L 63.36 442.512771 
L 66.528 442.446367 
L 69.696 442.21106 
L 72.864 442.929581 
L 76.032 443.809401 
L 79.2 445.090743 
L 82.368 446.506484 
L 85.536 448.119646 
L 95.04 447.122726 
L 101.376 444.91262 
L 104.544 442.854183 
L 107.712 442.012938 
L 110.88 442.411655 
L 114.048 441.728484 
L 117.216 440.602304 
L 120.384 440.311599 
L 123.552 439.615523 
L 129.888 436.74739 
L 133.056 434.744288 
L 139.392 431.26452 
L 142.56 429.883154 
L 145.728 428.796651 
L 148.896 426.947933 
L 152.064 425.294559 
L 155.232 423.769177 
L 158.4 422.580128 
L 161.568 420.65449 
L 164.736 419.793461 
L 167.904 418.78861 
L 171.072 418.081791 
L 174.24 416.79512 
L 177.408 414.463065 
L 180.576 411.901212 
L 183.744 408.816854 
L 186.912 406.69476 
L 190.08 405.058465 
L 193.248 403.291384 
L 196.416 401.852039 
L 199.584 400.594642 
L 202.752 399.148 
L 205.92 397.12669 
L 209.088 395.973199 
L 212.256 396.259049 
L 215.424 396.249514 
L 221.76 397.86717 
L 224.928 397.711006 
L 228.096 398.862337 
L 234.432 402.1763 
L 237.6 403.037454 
L 240.768 404.886159 
L 243.936 406.184702 
L 247.104 408.455962 
L 253.44 412.360519 
L 256.608 414.755577 
L 259.776 416.407448 
L 262.944 417.606083 
L 266.112 418.432065 
L 269.28 420.93297 
L 272.448 422.637739 
L 275.616 423.606597 
L 278.784 423.970723 
L 285.12 423.696502 
L 288.288 423.212274 
L 291.456 422.372398 
L 294.624 422.453918 
L 300.96 423.292893 
L 304.128 424.222703 
L 307.296 424.702439 
L 310.464 424.567711 
L 313.632 424.734358 
L 316.8 425.229368 
L 319.968 426.081399 
L 323.136 428.092928 
L 326.304 430.597151 
L 329.472 432.684913 
L 335.808 438.001727 
L 338.976 438.156369 
L 342.144 437.523796 
L 345.312 436.104652 
L 348.48 435.148003 
L 354.816 431.654874 
L 357.984 429.413013 
L 361.152 427.529408 
L 364.32 425.495207 
L 367.488 424.630493 
L 370.656 423.009849 
L 373.824 421.598671 
L 376.992 419.95767 
L 380.16 418.596538 
L 383.328 417.558849 
L 386.496 417.694899 
L 389.664 417.718998 
L 392.832 415.492714 
L 396 414.30689 
L 399.168 412.06313 
L 402.336 411.154241 
L 405.504 410.077028 
L 408.672 409.178441 
L 415.008 406.150297 
L 418.176 404.492008 
L 424.512 400.427914 
L 430.848 398.036075 
L 434.016 396.557402 
L 440.352 394.931996 
L 449.856 392.333188 
L 453.024 391.960054 
L 462.528 388.323138 
L 472.032 385.21606 
L 475.2 384.484753 
L 481.536 384.510567 
L 484.704 384.086372 
L 491.04 385.208043 
L 494.208 386.242777 
L 497.376 387.47313 
L 500.544 388.222688 
L 503.712 389.530274 
L 506.88 390.62035 
L 510.048 391.297435 
L 513.216 391.447521 
L 516.384 391.841368 
L 519.552 391.640293 
L 522.72 392.858396 
L 525.888 394.312165 
L 529.056 394.574921 
L 532.224 394.970466 
L 538.56 395.326093 
L 541.728 396.39225 
L 544.896 396.935273 
L 548.064 397.750294 
L 554.4 400.004762 
L 557.568 400.541973 
L 560.736 401.454282 
L 563.904 402.600268 
L 567.072 402.797189 
L 570.24 402.347991 
L 573.408 401.620855 
L 576.576 401.602335 
L 579.744 402.753239 
L 582.912 404.298538 
L 586.08 405.638132 
L 589.248 406.850856 
L 592.416 407.148859 
L 595.584 407.167162 
L 601.92 405.797083 
L 608.256 404.868067 
L 611.424 403.388203 
L 614.592 401.392025 
L 624.096 396.320586 
L 627.264 394.137466 
L 630.432 391.81849 
L 633.6 390.330806 
L 639.936 388.307894 
L 643.104 387.854226 
L 646.272 386.884455 
L 649.44 385.346779 
L 652.608 384.939129 
L 655.776 384.280377 
L 658.944 385.464431 
L 662.112 387.225409 
L 665.28 389.713058 
L 668.448 391.306753 
L 671.616 392.461868 
L 674.784 392.329402 
L 677.952 393.247336 
L 681.12 393.607159 
L 684.288 393.39932 
L 687.456 392.567763 
L 690.624 392.2361 
L 693.792 392.278914 
L 696.96 390.712092 
L 703.296 389.707091 
L 706.464 389.384599 
L 709.632 388.742557 
L 712.8 387.864607 
L 715.968 386.656463 
L 719.136 386.253569 
L 722.304 385.347995 
L 728.64 384.91733 
L 731.808 385.589664 
L 741.312 388.469858 
L 747.648 389.24925 
L 753.984 389.225065 
L 757.152 389.474222 
L 763.488 389.667502 
L 766.656 390.674557 
L 769.824 392.750157 
L 772.992 395.841355 
L 776.16 398.679126 
L 782.496 403.992041 
L 785.664 405.876492 
L 788.832 407.42049 
L 788.832 407.42049 
" clip-path="url(#p1c52c364f3)" style="fill: none; stroke: #000000; stroke-width: 1.5; stroke-linecap: square"/>
   </g>
   <g id="line2d_6">
    <path d="M 0 459 
L 3.168 459 
L 6.336 458.221807 
L 9.504 457.796314 
L 12.672 458.069305 
L 15.84 457.994467 
L 19.008 458.946075 
L 22.176 459.122645 
L 25.344 459.075586 
L 28.512 458.53411 
L 31.68 457.199907 
L 34.848 456.574953 
L 38.016 454.872065 
L 41.184 452.555453 
L 44.352 451.097734 
L 47.52 449.793192 
L 50.688 447.837803 
L 53.856 445.741785 
L 57.024 444.775156 
L 60.192 444.560969 
L 63.36 444.640752 
L 69.696 444.137795 
L 72.864 444.51096 
L 76.032 445.015689 
L 82.368 446.726931 
L 85.536 447.793258 
L 95.04 447.173649 
L 101.376 445.728259 
L 104.544 444.379343 
L 107.712 443.767064 
L 110.88 443.920214 
L 114.048 443.416774 
L 117.216 442.635845 
L 120.384 442.351836 
L 123.552 441.824372 
L 129.888 439.853769 
L 133.056 438.506609 
L 139.392 436.054317 
L 142.56 435.010357 
L 145.728 434.127017 
L 152.064 431.562275 
L 155.232 430.386035 
L 158.4 429.390483 
L 161.568 427.971736 
L 171.072 425.478271 
L 174.24 424.412531 
L 177.408 422.757414 
L 180.576 420.94844 
L 183.744 418.820336 
L 186.912 417.186246 
L 196.416 413.045562 
L 202.752 410.54858 
L 205.92 408.942921 
L 209.088 407.793903 
L 212.256 407.427524 
L 215.424 406.932037 
L 221.76 406.907562 
L 224.928 406.432081 
L 228.096 406.670446 
L 234.432 407.810524 
L 237.6 408.027228 
L 240.768 408.792774 
L 243.936 409.311701 
L 250.272 411.326837 
L 253.44 412.313876 
L 256.608 413.573523 
L 259.776 414.49304 
L 262.944 415.207358 
L 266.112 415.747692 
L 269.28 417.172117 
L 272.448 418.226145 
L 275.616 418.925827 
L 278.784 419.322569 
L 285.12 419.582808 
L 288.288 419.516397 
L 291.456 419.244576 
L 294.624 419.425361 
L 300.96 420.128655 
L 304.128 420.74666 
L 307.296 421.143259 
L 310.464 421.228223 
L 313.632 421.461258 
L 316.8 421.858389 
L 319.968 422.442196 
L 323.136 423.634827 
L 326.304 425.113785 
L 329.472 426.419696 
L 335.808 429.721862 
L 338.976 430.151311 
L 342.144 430.164977 
L 345.312 429.748317 
L 348.48 429.526484 
L 354.816 428.162469 
L 357.984 427.159076 
L 361.152 426.287125 
L 364.32 425.293501 
L 367.488 424.856681 
L 380.16 421.529058 
L 383.328 420.866764 
L 389.664 420.663008 
L 392.832 419.392833 
L 396 418.614264 
L 399.168 417.277164 
L 405.504 415.797649 
L 408.672 415.080687 
L 415.008 412.986803 
L 418.176 411.836233 
L 424.512 409.080747 
L 437.184 405.129508 
L 449.856 401.760487 
L 453.024 401.167384 
L 465.696 397.160614 
L 475.2 394.444279 
L 481.536 393.622958 
L 484.704 393.011814 
L 491.04 392.844252 
L 494.208 393.045732 
L 497.376 393.384419 
L 500.544 393.514981 
L 506.88 394.329572 
L 510.048 394.520138 
L 513.216 394.45853 
L 516.384 394.529046 
L 519.552 394.311491 
L 522.72 394.822391 
L 525.888 395.484551 
L 538.56 395.875311 
L 541.728 396.400926 
L 544.896 396.680851 
L 548.064 397.108758 
L 554.4 398.33968 
L 557.568 398.685139 
L 560.736 399.228917 
L 563.904 399.907346 
L 567.072 400.122438 
L 570.24 400.007377 
L 573.408 399.735096 
L 576.576 399.804844 
L 579.744 400.468132 
L 586.08 402.167138 
L 589.248 402.939775 
L 592.416 403.263066 
L 595.584 403.437628 
L 605.088 402.920581 
L 608.256 402.786741 
L 611.424 402.123649 
L 620.928 399.33769 
L 624.096 398.480587 
L 630.432 395.945532 
L 633.6 395.003929 
L 639.936 393.545524 
L 643.104 393.086117 
L 646.272 392.360017 
L 649.44 391.332869 
L 652.608 390.861201 
L 655.776 390.264503 
L 658.944 390.608119 
L 662.112 391.281346 
L 665.28 392.372877 
L 668.448 393.066228 
L 671.616 393.573645 
L 674.784 393.446302 
L 677.952 393.857383 
L 681.12 394.007257 
L 684.288 393.876894 
L 687.456 393.424545 
L 690.624 393.213637 
L 693.792 393.189599 
L 696.96 392.347399 
L 703.296 391.677484 
L 706.464 391.425038 
L 709.632 391.004845 
L 712.8 390.45456 
L 715.968 389.721415 
L 719.136 389.380116 
L 722.304 388.777033 
L 728.64 388.256079 
L 731.808 388.448664 
L 744.48 389.743595 
L 747.648 389.902225 
L 757.152 389.932971 
L 763.488 389.996282 
L 766.656 390.498188 
L 769.824 391.565778 
L 776.16 394.747389 
L 782.496 397.834971 
L 785.664 399.057776 
L 788.832 400.134516 
L 788.832 400.134516 
" clip-path="url(#p1c52c364f3)" style="fill: none; stroke: #000000; stroke-width: 1.5; stroke-linecap: square"/>
   </g>
   <g id="line2d_7">
    <path d="M 0 459 
L 3.168 459 
L 6.336 458.230054 
L 9.504 457.810675 
L 12.672 458.071463 
L 15.84 457.999247 
L 19.008 458.901704 
L 22.176 459.101631 
L 25.344 459.060677 
L 28.512 458.549298 
L 31.68 457.330302 
L 34.848 456.752364 
L 38.016 455.211416 
L 41.184 453.127388 
L 44.352 451.799705 
L 47.52 450.609652 
L 53.856 446.998772 
L 57.024 446.095858 
L 60.192 445.831957 
L 63.36 445.820968 
L 69.696 445.273538 
L 72.864 445.514755 
L 76.032 445.868522 
L 82.368 447.155006 
L 85.536 447.973547 
L 95.04 447.463393 
L 101.376 446.331799 
L 104.544 445.291039 
L 107.712 444.795872 
L 110.88 444.868075 
L 114.048 444.459403 
L 117.216 443.847001 
L 120.384 443.594127 
L 123.552 443.166245 
L 129.888 441.648541 
L 136.224 439.691456 
L 139.392 438.746448 
L 148.896 436.196959 
L 155.232 434.316967 
L 158.4 433.515349 
L 161.568 432.427393 
L 171.072 430.331596 
L 174.24 429.478792 
L 180.576 426.88901 
L 183.744 425.326172 
L 186.912 424.07422 
L 199.584 419.799718 
L 202.752 418.748176 
L 205.92 417.501513 
L 209.088 416.537475 
L 215.424 415.51335 
L 221.76 415.031054 
L 224.928 414.515938 
L 228.096 414.442551 
L 234.432 414.730801 
L 237.6 414.677361 
L 240.768 414.963413 
L 243.936 415.11281 
L 262.944 417.929912 
L 266.112 418.177939 
L 269.28 418.950833 
L 272.448 419.521479 
L 275.616 419.896264 
L 278.784 420.102237 
L 285.12 420.21573 
L 288.288 420.161721 
L 291.456 419.989559 
L 297.792 420.260567 
L 300.96 420.448306 
L 304.128 420.791893 
L 307.296 421.015751 
L 313.632 421.202415 
L 319.968 421.770755 
L 323.136 422.455639 
L 332.64 425.030127 
L 335.808 426.047395 
L 338.976 426.372857 
L 342.144 426.469974 
L 351.648 426.011158 
L 354.816 425.679136 
L 364.32 424.247384 
L 367.488 424.033175 
L 383.328 421.868626 
L 389.664 421.711879 
L 392.832 421.001705 
L 396 420.544735 
L 399.168 419.779963 
L 408.672 418.412437 
L 415.008 417.136751 
L 418.176 416.430797 
L 424.512 414.74638 
L 440.352 411.50312 
L 449.856 409.662765 
L 453.024 409.174123 
L 475.2 404.259621 
L 487.872 402.613273 
L 491.04 402.35505 
L 500.544 402.106789 
L 506.88 402.166988 
L 510.048 402.095125 
L 519.552 401.505283 
L 525.888 401.812773 
L 538.56 401.491427 
L 541.728 401.641567 
L 548.064 401.78566 
L 554.4 402.227379 
L 560.736 402.522468 
L 563.904 402.800724 
L 567.072 402.848099 
L 576.576 402.506769 
L 579.744 402.78882 
L 589.248 403.931193 
L 595.584 404.144018 
L 608.256 403.733548 
L 611.424 403.371371 
L 627.264 400.661401 
L 630.432 399.911567 
L 636.768 398.873826 
L 639.936 398.409145 
L 643.104 398.070232 
L 646.272 397.593537 
L 649.44 396.957224 
L 655.776 396.171553 
L 658.944 396.22256 
L 662.112 396.448773 
L 665.28 396.897401 
L 671.616 397.329134 
L 674.784 397.187474 
L 677.952 397.3199 
L 681.12 397.324648 
L 684.288 397.189307 
L 687.456 396.889729 
L 693.792 396.623983 
L 696.96 396.122773 
L 712.8 394.749484 
L 715.968 394.286438 
L 719.136 394.017243 
L 722.304 393.613722 
L 728.64 393.148172 
L 734.976 393.228011 
L 747.648 393.459828 
L 760.32 393.205945 
L 763.488 393.150216 
L 766.656 393.338132 
L 769.824 393.819111 
L 782.496 396.907647 
L 788.832 398.123234 
L 788.832 398.123234 
" clip-path="url(#p1c52c364f3)" style="fill: none; stroke: #000000; stroke-width: 1.5; stroke-linecap: square"/>
   </g>
   <g id="line2d_8">
    <path d="M 0 459 
L 3.168 459 
L 6.336 458.234178 
L 9.504 457.817878 
L 12.672 458.07269 
L 15.84 458.001746 
L 19.008 458.880119 
L 22.176 459.091293 
L 25.344 459.053168 
L 28.512 458.555497 
L 31.68 457.39215 
L 34.848 456.83778 
L 38.016 455.375342 
L 41.184 453.404156 
L 44.352 452.141972 
L 47.52 451.010563 
L 53.856 447.617839 
L 57.024 446.752722 
L 60.192 446.474001 
L 63.36 446.428515 
L 69.696 445.872867 
L 76.032 446.348751 
L 82.368 447.447034 
L 85.536 448.153288 
L 95.04 447.686241 
L 101.376 446.693808 
L 104.544 445.791615 
L 107.712 445.352913 
L 110.88 445.39504 
L 114.048 445.03288 
L 117.216 444.500053 
L 120.384 444.267826 
L 123.552 443.890633 
L 129.888 442.588143 
L 136.224 440.923619 
L 142.56 439.414635 
L 145.728 438.799183 
L 152.064 437.121113 
L 161.568 434.729836 
L 174.24 432.177059 
L 180.576 430.035608 
L 183.744 428.756887 
L 186.912 427.715977 
L 199.584 424.112056 
L 202.752 423.224917 
L 205.92 422.191169 
L 209.088 421.36913 
L 215.424 420.403823 
L 221.76 419.847823 
L 224.928 419.371319 
L 228.096 419.220729 
L 243.936 419.26802 
L 262.944 420.87569 
L 266.112 420.997617 
L 269.28 421.490942 
L 272.448 421.846018 
L 275.616 422.067021 
L 281.952 422.181084 
L 288.288 422.109281 
L 291.456 421.957427 
L 297.792 422.077589 
L 304.128 422.380452 
L 307.296 422.506106 
L 313.632 422.583924 
L 319.968 422.92261 
L 323.136 423.362578 
L 332.64 425.046886 
L 335.808 425.720221 
L 338.976 425.940293 
L 342.144 426.01102 
L 351.648 425.729797 
L 357.984 425.199739 
L 383.328 423.003402 
L 389.664 422.870285 
L 392.832 422.402978 
L 396 422.093422 
L 399.168 421.588041 
L 408.672 420.644158 
L 418.176 419.30191 
L 427.68 417.70869 
L 449.856 414.5814 
L 453.024 414.215533 
L 475.2 410.697119 
L 487.872 409.356299 
L 494.208 408.962197 
L 513.216 408.237901 
L 522.72 407.823871 
L 525.888 407.859832 
L 538.56 407.364048 
L 570.24 407.411658 
L 576.576 407.165533 
L 582.912 407.444388 
L 589.248 407.762936 
L 595.584 407.790461 
L 611.424 407.127191 
L 627.264 405.347366 
L 633.6 404.489849 
L 655.776 402.242896 
L 662.112 402.252133 
L 668.448 402.509173 
L 671.616 402.540943 
L 674.784 402.399966 
L 681.12 402.352715 
L 687.456 401.992485 
L 693.792 401.724181 
L 696.96 401.387526 
L 712.8 400.315597 
L 719.136 399.781319 
L 725.472 399.295489 
L 728.64 399.099318 
L 738.144 398.980836 
L 744.48 398.928991 
L 753.984 398.641965 
L 766.656 398.427905 
L 769.824 398.628705 
L 785.664 400.40554 
L 788.832 400.682644 
L 788.832 400.682644 
" clip-path="url(#p1c52c364f3)" style="fill: none; stroke: #000000; stroke-width: 1.5; stroke-linecap: square"/>
   </g>
   <g id="line2d_9">
    <path d="M 0 459 
L 3.168 459 
L 6.336 458.236241 
L 9.504 457.821486 
L 12.672 458.073341 
L 15.84 458.003023 
L 19.008 458.86948 
L 22.176 459.086169 
L 25.344 459.049404 
L 28.512 458.558256 
L 31.68 457.422221 
L 34.848 456.879614 
L 38.016 455.455753 
L 41.184 453.540011 
L 44.352 452.310551 
L 47.52 451.208649 
L 53.856 447.923993 
L 57.024 447.078985 
L 60.192 446.79514 
L 63.36 446.734973 
L 69.696 446.178512 
L 76.032 446.600515 
L 82.368 447.611288 
L 85.536 448.264778 
L 95.04 447.817348 
L 101.376 446.890136 
L 104.544 446.053018 
L 107.712 445.641705 
L 110.88 445.671268 
L 114.048 445.331852 
L 117.216 444.837172 
L 120.384 444.616172 
L 123.552 444.26406 
L 129.888 443.064634 
L 136.224 441.540017 
L 142.56 440.155897 
L 145.728 439.588582 
L 155.232 437.339658 
L 158.4 436.70705 
L 161.568 435.875213 
L 174.24 433.532347 
L 180.576 431.609804 
L 183.744 430.468379 
L 190.08 428.701514 
L 196.416 427.037806 
L 202.752 425.480229 
L 205.92 424.555717 
L 209.088 423.812216 
L 218.592 422.622975 
L 221.76 422.348471 
L 224.928 421.904238 
L 228.096 421.735114 
L 243.936 421.57716 
L 262.944 422.712148 
L 266.112 422.784983 
L 272.448 423.428141 
L 278.784 423.649607 
L 288.288 423.537382 
L 291.456 423.395268 
L 297.792 423.453042 
L 316.8 423.861958 
L 319.968 424.010675 
L 326.304 424.771137 
L 332.64 425.637755 
L 335.808 426.158258 
L 338.976 426.325046 
L 342.144 426.375576 
L 351.648 426.143457 
L 357.984 425.722919 
L 383.328 423.973024 
L 389.664 423.850247 
L 392.832 423.485305 
L 396 423.239261 
L 399.168 422.845145 
L 408.672 422.092234 
L 418.176 421.038629 
L 427.68 419.793774 
L 468.864 415.027058 
L 475.2 414.240884 
L 491.04 412.921158 
L 503.712 412.438449 
L 510.048 412.22371 
L 519.552 411.695705 
L 532.224 411.403512 
L 538.56 411.152982 
L 570.24 410.866939 
L 576.576 410.637137 
L 586.08 410.852267 
L 592.416 410.928508 
L 598.752 410.794904 
L 611.424 410.315728 
L 627.264 408.974403 
L 633.6 408.337008 
L 655.776 406.603904 
L 662.112 406.540471 
L 668.448 406.643553 
L 671.616 406.631841 
L 677.952 406.481233 
L 684.288 406.290269 
L 690.624 405.972948 
L 693.792 405.869717 
L 700.128 405.449277 
L 712.8 404.751536 
L 722.304 404.113666 
L 731.808 403.707001 
L 750.816 403.324897 
L 763.488 402.95174 
L 769.824 403.038557 
L 788.832 404.166034 
L 788.832 404.166034 
" clip-path="url(#p1c52c364f3)" style="fill: none; stroke: #000000; stroke-width: 1.5; stroke-linecap: square"/>
   </g>
  </g>
 </g>
 <defs>
  <clipPath id="p1c52c364f3">
   <rect x="0" y="0" width="792" height="612"/>
  </clipPath>
 </defs>
</svg>
