<?xml version="1.0" encoding="utf-8" standalone="no"?>
<!DOCTYPE svg PUBLIC "-//W3C//DTD SVG 1.1//EN"
  "http://www.w3.org/Graphics/SVG/1.1/DTD/svg11.dtd">
<svg xmlns:xlink="http://www.w3.org/1999/xlink" width="792pt" height="612pt" viewBox="0 0 792 612" xmlns="http://www.w3.org/2000/svg" version="1.1">
 <metadata>
  <rdf:RDF xmlns:dc="http://purl.org/dc/elements/1.1/" xmlns:cc="http://creativecommons.org/ns#" xmlns:rdf="http://www.w3.org/1999/02/22-rdf-syntax-ns#">
   <cc:Work>
    <dc:type rdf:resource="http://purl.org/dc/dcmitype/StillImage"/>
    <dc:date>2023-01-23T15:52:19.715158</dc:date>
    <dc:format>image/svg+xml</dc:format>
    <dc:creator>
     <cc:Agent>
      <dc:title>Matplotlib v3.6.2, https://matplotlib.org/</dc:title>
     </cc:Agent>
    </dc:creator>
   </cc:Work>
  </rdf:RDF>
 </metadata>
 <defs>
  <style type="text/css">*{stroke-linejoin: round; stroke-linecap: butt}</style>
 </defs>
 <g id="figure_1">
  <g id="patch_1">
   <path d="M 0 612 
L 792 612 
L 792 0 
L 0 0 
z
" style="fill: #ffffff"/>
  </g>
  <g id="axes_1">
   <g id="line2d_1">
    <path d="M 0 306 
L 3.168 304.984407 
L 6.336 305.681381 
L 9.504 307.214727 
L 12.672 305.269834 
L 15.84 309.604207 
L 19.008 304.94458 
L 22.176 303.895823 
L 25.344 303.039594 
L 28.512 301.679022 
L 31.68 308.761286 
L 34.848 298.454251 
L 38.016 300.033295 
L 41.184 309.717034 
L 44.352 305.648192 
L 47.52 299.555564 
L 50.688 302.886938 
L 53.856 313.552382 
L 57.024 311.701286 
L 60.192 308.475878 
L 63.36 303.457747 
L 66.528 304.791911 
L 69.696 312.444436 
L 72.864 307.679369 
L 76.032 309.517926 
L 79.2 307.918325 
L 82.368 308.475878 
L 85.536 292.825304 
L 88.704 305.920345 
L 91.872 305.74776 
L 95.04 299.9404 
L 98.208 305.196817 
L 101.376 297.996533 
L 104.544 313.817731 
L 107.712 314.898898 
L 110.88 297.963366 
L 114.048 302.10377 
L 117.216 311.688015 
L 120.384 302.648001 
L 123.552 299.369788 
L 126.72 305.767674 
L 129.888 300.18591 
L 133.056 306.597409 
L 136.224 304.977769 
L 139.392 307.553252 
L 142.56 307.387309 
L 145.728 299.210555 
L 148.896 306.285429 
L 152.064 305.887156 
L 155.232 307.639543 
L 158.4 299.30344 
L 161.568 313.200779 
L 164.736 304.260892 
L 167.904 307.70592 
L 171.072 300.862757 
L 174.24 296.716444 
L 177.408 302.548445 
L 180.576 300.020024 
L 183.744 311.654837 
L 186.912 308.475878 
L 190.08 303.816172 
L 193.248 307.447049 
L 196.416 306.491203 
L 199.584 303.597134 
L 202.752 300.484512 
L 205.92 311.688015 
L 209.088 316.947841 
L 212.256 303.789622 
L 215.424 312.961943 
L 221.76 298.958444 
L 224.928 316.530169 
L 228.096 310.911615 
L 231.264 307.015593 
L 234.432 300.690223 
L 237.6 314.560641 
L 240.768 302.747557 
L 243.936 314.759618 
L 247.104 304.94458 
L 250.272 307.23464 
L 253.44 310.878434 
L 256.608 301.619293 
L 259.776 303.464385 
L 262.944 303.802897 
L 266.112 320.029291 
L 269.28 301.241018 
L 272.448 301.234382 
L 278.784 302.362609 
L 281.952 305.648192 
L 285.12 303.251988 
L 288.288 302.760832 
L 291.456 312.855791 
L 294.624 308.807748 
L 297.792 306.192499 
L 300.96 310.413889 
L 304.128 302.966585 
L 307.296 301.406926 
L 310.464 308.369679 
L 313.632 308.721462 
L 316.8 309.186071 
L 319.968 315.906903 
L 323.136 311.276598 
L 326.304 304.287443 
L 329.472 311.469037 
L 332.64 308.675001 
L 335.808 287.264792 
L 338.976 299.78779 
L 342.144 299.276902 
L 345.312 308.767924 
L 348.48 299.349883 
L 351.648 304.154689 
L 354.816 301.174655 
L 357.984 307.380671 
L 361.152 303.497572 
L 364.32 314.0698 
L 367.488 299.329979 
L 370.656 306.604047 
L 373.824 303.178978 
L 376.992 307.11516 
L 380.16 307.679369 
L 383.328 314.746353 
L 386.496 305.210093 
L 389.664 287.886491 
L 392.832 312.888964 
L 396 296.656759 
L 399.168 315.276924 
L 402.336 304.015299 
L 405.504 306.696977 
L 408.672 300.650407 
L 411.84 304.592778 
L 415.008 303.995386 
L 418.176 301.433472 
L 421.344 305.43578 
L 424.512 310.619619 
L 427.68 305.946897 
L 430.848 302.555082 
L 434.016 310.579801 
L 437.184 305.130439 
L 440.352 304.977769 
L 443.52 305.5619 
L 446.688 305.694657 
L 449.856 309.225894 
L 453.024 298.805855 
L 456.192 305.376039 
L 459.36 305.017596 
L 462.528 306.743442 
L 465.696 305.853966 
L 468.864 303.942286 
L 472.032 308.489153 
L 475.2 311.820726 
L 478.368 305.5619 
L 481.536 302.608178 
L 484.704 314.175932 
L 487.872 305.65483 
L 491.04 310.59971 
L 494.208 308.329854 
L 497.376 302.900212 
L 500.544 311.077518 
L 503.712 305.117163 
L 506.88 303.344911 
L 510.048 302.130318 
L 513.216 308.104177 
L 516.384 301.413563 
L 519.552 317.47153 
L 522.72 308.781198 
L 525.888 297.280177 
L 529.056 307.254554 
L 532.224 304.320631 
L 535.392 306.497841 
L 538.56 313.114534 
L 541.728 302.428978 
L 544.896 308.555527 
L 548.064 309.484741 
L 551.232 305.993362 
L 554.4 302.302876 
L 557.568 309.391822 
L 560.736 308.515703 
L 563.904 299.051326 
L 567.072 300.915846 
L 570.24 303.411285 
L 573.408 311.269962 
L 576.576 315.475873 
L 579.744 309.975871 
L 582.912 305.369402 
L 586.08 305.900432 
L 589.248 299.396327 
L 592.416 303.862635 
L 595.584 300.192545 
L 598.752 305.78095 
L 601.92 307.254554 
L 605.088 305.628278 
L 608.256 297.472522 
L 611.424 300.77649 
L 614.592 306.916026 
L 617.76 304.04185 
L 620.928 306.909388 
L 624.096 299.734709 
L 627.264 303.404648 
L 630.432 311.203603 
L 636.768 305.880518 
L 639.936 309.610843 
L 643.104 301.453381 
L 646.272 300.670315 
L 649.44 314.222363 
L 652.608 303.670146 
L 655.776 320.651882 
L 658.944 311.528759 
L 662.112 313.127802 
L 665.28 300.351799 
L 668.448 303.484297 
L 671.616 296.252242 
L 674.784 314.500947 
L 677.952 302.08386 
L 681.12 301.60602 
L 684.288 300.749946 
L 687.456 309.551111 
L 690.624 308.834297 
L 693.792 292.891561 
L 696.96 313.200779 
L 700.128 306.497841 
L 703.296 306.743442 
L 706.464 303.159066 
L 709.632 303.617046 
L 712.8 302.674549 
L 715.968 311.787548 
L 719.136 301.579474 
L 722.304 311.070882 
L 725.472 305.90707 
L 728.64 313.087996 
L 731.808 308.641814 
L 734.976 306.066379 
L 738.144 308.250203 
L 741.312 301.134838 
L 744.48 306.298705 
L 747.648 303.198889 
L 750.816 305.548624 
L 753.984 308.349766 
L 757.152 305.050785 
L 760.32 305.800863 
L 763.488 313.658523 
L 766.656 315.383031 
L 769.824 315.64829 
L 772.992 305.973448 
L 776.16 305.960173 
L 779.328 308.694913 
L 782.496 301.088385 
L 785.664 304.493212 
L 788.832 310.048875 
L 788.832 310.048875 
" clip-path="url(#p8c7eadeff0)" style="fill: none; stroke: #000000; stroke-width: 1.5; stroke-linecap: square"/>
   </g>
   <g id="line2d_2">
    <path d="M 0 306 
L 3.168 306 
L 6.336 305.322937 
L 9.504 305.527762 
L 12.672 306.42748 
L 15.84 305.829984 
L 19.008 307.747115 
L 22.176 306.334821 
L 25.344 305.110526 
L 28.512 304.069233 
L 31.68 302.867599 
L 34.848 305.820465 
L 38.016 302.119621 
L 41.184 301.066134 
L 44.352 305.391684 
L 47.52 305.521318 
L 50.688 302.529601 
L 53.856 302.707969 
L 57.024 308.154128 
L 60.192 309.933604 
L 63.36 309.22441 
L 66.528 306.347825 
L 69.696 305.560208 
L 72.864 309.016028 
L 76.032 308.36364 
L 79.2 308.953794 
L 82.368 308.425017 
L 85.536 308.444123 
L 88.704 300.600521 
L 91.872 303.265055 
L 95.04 304.508257 
L 98.208 302.199601 
L 101.376 303.693286 
L 104.544 300.821874 
L 107.712 307.331968 
L 110.88 311.128811 
L 114.048 304.555502 
L 117.216 303.32211 
L 120.384 307.516992 
L 123.552 305.087749 
L 126.72 302.217013 
L 129.888 304.007516 
L 133.056 302.069832 
L 136.224 304.317247 
L 139.392 304.661264 
L 142.56 306.117946 
L 145.728 306.744197 
L 148.896 302.970176 
L 152.064 304.641324 
L 155.232 305.264471 
L 158.4 306.46663 
L 161.568 302.870306 
L 164.736 308.052248 
L 167.904 306.15012 
L 171.072 306.928651 
L 174.24 303.898738 
L 177.408 300.288045 
L 180.576 301.411637 
L 183.744 300.700866 
L 186.912 306.20213 
L 190.08 307.329756 
L 193.248 305.572078 
L 196.416 306.50906 
L 199.584 306.511169 
L 202.752 305.067627 
L 205.92 302.771841 
L 209.088 307.25307 
L 212.256 312.112369 
L 215.424 307.942168 
L 218.592 310.470287 
L 221.76 308.22243 
L 224.928 303.575113 
L 228.096 310.079821 
L 231.264 310.516169 
L 234.432 308.75681 
L 237.6 304.691407 
L 240.768 309.648089 
L 243.936 306.177817 
L 247.104 310.486813 
L 250.272 307.727577 
L 253.44 307.462875 
L 256.608 309.170688 
L 259.776 305.384317 
L 262.944 304.429776 
L 266.112 304.095237 
L 269.28 312.10027 
L 272.448 306.644343 
L 275.616 303.931926 
L 278.784 302.847844 
L 281.952 302.588527 
L 285.12 304.126213 
L 291.456 303.222706 
L 294.624 308.025672 
L 297.792 308.43155 
L 300.96 307.321764 
L 304.128 308.884819 
L 307.296 305.926879 
L 310.464 303.658459 
L 313.632 306.024105 
L 316.8 307.384498 
L 319.968 308.278107 
L 323.136 312.107373 
L 326.304 311.701963 
L 329.472 307.982983 
L 332.64 309.742801 
L 335.808 309.223161 
L 338.976 298.192571 
L 342.144 298.972623 
L 345.312 299.105339 
L 348.48 303.922113 
L 351.648 301.61237 
L 354.816 302.883216 
L 357.984 302.008721 
L 361.152 304.692058 
L 364.32 304.126681 
L 367.488 309.127065 
L 370.656 304.228172 
L 373.824 305.411858 
L 376.992 304.302905 
L 380.16 305.714831 
L 383.328 306.709862 
L 386.496 310.743367 
L 389.664 307.98025 
L 392.832 297.87331 
L 396 305.407354 
L 399.168 301.011535 
L 402.336 308.169121 
L 405.504 306.086136 
L 408.672 306.389631 
L 411.84 303.492158 
L 415.008 304.041251 
L 418.176 304.049945 
L 421.344 302.719187 
L 424.512 304.094664 
L 427.68 307.348159 
L 430.848 306.651319 
L 434.016 304.595016 
L 437.184 307.607031 
L 440.352 306.369795 
L 443.52 305.675707 
L 449.856 305.661286 
L 453.024 307.440906 
L 456.192 303.108804 
L 459.36 304.247929 
L 462.528 304.621854 
L 465.696 305.685807 
L 468.864 305.771605 
L 472.032 304.853759 
L 475.2 306.676959 
L 478.368 309.25416 
L 481.536 307.421331 
L 484.704 305.009266 
L 487.872 309.611364 
L 491.04 307.631031 
L 494.208 309.124749 
L 497.376 308.735908 
L 500.544 305.807085 
L 503.712 308.441025 
L 513.216 303.572979 
L 516.384 305.843372 
L 519.552 303.610331 
L 522.72 310.561193 
L 525.888 309.682757 
L 529.056 303.453374 
L 532.224 305.35813 
L 535.392 304.841291 
L 538.56 305.678128 
L 541.728 309.406658 
L 544.896 305.919799 
L 548.064 307.220194 
L 551.232 308.353879 
L 554.4 307.190727 
L 557.568 304.737012 
L 560.736 307.074422 
L 563.904 307.799029 
L 567.072 303.397074 
L 570.24 302.153429 
L 573.408 302.772258 
L 579.744 311.269936 
L 582.912 310.637967 
L 586.08 307.995946 
L 589.248 306.943072 
L 592.416 303.169946 
L 595.584 303.522065 
L 598.752 301.850871 
L 601.92 303.805057 
L 605.088 305.513664 
L 608.256 305.562446 
L 611.424 301.501216 
L 614.592 301.1288 
L 617.76 304.036982 
L 620.928 304.039767 
L 624.096 305.487738 
L 627.264 302.599068 
L 630.432 302.994305 
L 633.6 307.110084 
L 636.768 307.864547 
L 639.936 306.88255 
L 643.104 308.252026 
L 646.272 304.847486 
L 649.44 302.746516 
L 652.608 308.513725 
L 655.776 306.092462 
L 658.944 313.394885 
L 662.112 312.467672 
L 665.28 312.811951 
L 668.448 306.56396 
L 671.616 305.028086 
L 674.784 300.630396 
L 677.952 307.567022 
L 681.12 304.822236 
L 684.288 303.176687 
L 687.456 301.942119 
L 690.624 305.739561 
L 693.792 307.303595 
L 696.96 300.073524 
L 700.128 306.670686 
L 703.296 306.568567 
L 706.464 306.665141 
L 709.632 304.915113 
L 712.8 304.271695 
L 715.968 303.459621 
L 719.136 307.629677 
L 722.304 304.621489 
L 725.472 307.842213 
L 728.64 306.873492 
L 731.808 309.993595 
L 734.976 309.32847 
L 738.144 307.702275 
L 741.312 307.987174 
L 744.48 304.539936 
L 747.648 305.42857 
L 750.816 304.298271 
L 753.984 304.92274 
L 757.152 306.62698 
L 760.32 305.83184 
L 763.488 305.815831 
L 766.656 309.748397 
L 769.824 312.594202 
L 772.992 314.139774 
L 776.16 310.062773 
L 779.328 308.01237 
L 782.496 308.354321 
L 785.664 304.713403 
L 788.832 304.600743 
L 788.832 304.600743 
" clip-path="url(#p8c7eadeff0)" style="fill: none; stroke: #000000; stroke-width: 1.5; stroke-linecap: square"/>
   </g>
   <g id="line2d_3">
    <path d="M 0 306 
L 3.168 306 
L 6.336 305.405078 
L 9.504 305.530266 
L 12.672 306.188091 
L 15.84 305.861385 
L 19.008 307.11429 
L 25.344 305.62945 
L 28.512 304.835803 
L 31.68 303.88132 
L 34.848 305.342926 
L 38.016 303.292869 
L 41.184 302.327398 
L 44.352 304.508756 
L 47.52 304.84434 
L 50.688 303.289006 
L 53.856 303.167666 
L 57.024 306.219514 
L 60.192 307.832175 
L 63.36 308.022162 
L 66.528 306.683197 
L 69.696 306.123723 
L 72.864 307.983884 
L 76.032 307.89904 
L 79.2 308.380656 
L 82.368 308.25241 
L 85.536 308.317535 
L 88.704 303.771176 
L 91.872 304.407402 
L 95.04 304.795421 
L 98.208 303.36669 
L 101.376 303.909189 
L 104.544 302.171435 
L 107.712 305.583218 
L 110.88 308.316083 
L 114.048 305.271257 
L 117.216 304.34192 
L 120.384 306.501643 
L 123.552 305.361646 
L 126.72 303.59687 
L 129.888 304.228361 
L 133.056 303.035346 
L 136.224 304.076452 
L 139.392 304.354407 
L 142.56 305.293196 
L 145.728 305.908433 
L 148.896 303.945536 
L 152.064 304.632112 
L 155.232 305.008768 
L 158.4 305.772208 
L 161.568 303.859355 
L 164.736 306.613264 
L 167.904 305.926743 
L 171.072 306.443282 
L 174.24 304.806598 
L 177.408 302.43332 
L 180.576 302.463342 
L 183.744 301.747459 
L 186.912 304.655076 
L 190.08 305.778191 
L 193.248 305.199227 
L 196.416 305.85767 
L 199.584 306.051591 
L 202.752 305.329596 
L 205.92 303.904155 
L 209.088 306.188814 
L 212.256 309.361567 
L 215.424 307.718837 
L 218.592 309.264743 
L 221.76 308.300752 
L 224.928 305.561932 
L 228.096 308.79836 
L 231.264 309.42696 
L 234.432 308.728753 
L 237.6 306.361622 
L 240.768 308.770629 
L 243.936 307.005299 
L 247.104 309.285466 
L 250.272 308.012332 
L 253.44 307.788732 
L 256.608 308.705689 
L 259.776 306.618527 
L 262.944 305.679192 
L 266.112 305.129644 
L 269.28 309.504505 
L 272.448 307.078733 
L 275.616 305.369469 
L 278.784 304.302661 
L 281.952 303.724592 
L 285.12 304.286419 
L 291.456 303.613861 
L 294.624 306.332673 
L 297.792 307.050786 
L 300.96 306.800834 
L 304.128 307.862793 
L 310.464 304.951099 
L 313.632 305.958023 
L 316.8 306.773085 
L 319.968 307.46739 
L 323.136 309.956918 
L 326.304 310.354994 
L 329.472 308.580865 
L 332.64 309.437321 
L 335.808 309.217523 
L 338.976 302.762659 
L 345.312 301.107437 
L 348.48 303.35089 
L 351.648 302.171008 
L 354.816 302.7448 
L 357.984 302.282836 
L 361.152 303.782731 
L 364.32 303.693614 
L 367.488 306.739389 
L 370.656 304.557604 
L 373.824 305.146299 
L 376.992 304.560768 
L 383.328 306.001161 
L 386.496 308.570182 
L 389.664 307.606701 
L 392.832 301.811155 
L 396 305.071566 
L 399.168 302.5923 
L 402.336 306.326571 
L 405.504 305.649448 
L 408.672 305.962605 
L 411.84 304.398823 
L 415.008 304.456889 
L 418.176 304.310144 
L 421.344 303.469949 
L 424.512 304.044371 
L 427.68 305.978848 
L 430.848 305.968148 
L 434.016 304.962559 
L 437.184 306.60312 
L 443.52 305.841653 
L 449.856 305.745092 
L 453.024 306.757676 
L 456.192 304.422283 
L 459.36 304.700112 
L 462.528 304.798118 
L 465.696 305.370357 
L 468.864 305.514138 
L 472.032 305.056628 
L 475.2 306.065513 
L 478.368 307.752742 
L 481.536 307.110626 
L 484.704 305.791913 
L 487.872 308.252197 
L 491.04 307.492065 
L 494.208 308.408791 
L 497.376 308.38885 
L 500.544 306.778057 
L 503.712 308.039575 
L 506.88 307.190886 
L 513.216 304.907119 
L 516.384 305.845085 
L 519.552 304.541932 
L 522.72 308.345991 
L 525.888 308.473797 
L 529.056 305.177905 
L 532.224 305.788086 
L 535.392 305.360242 
L 538.56 305.684615 
L 541.728 307.86971 
L 544.896 306.26674 
L 551.232 307.69108 
L 554.4 307.187996 
L 557.568 305.753896 
L 560.736 306.826404 
L 563.904 307.328533 
L 567.072 304.893456 
L 570.24 303.727771 
L 573.408 303.618919 
L 576.576 305.862835 
L 579.744 308.700152 
L 582.912 309.076939 
L 586.08 307.992276 
L 589.248 307.378913 
L 592.416 305.024818 
L 595.584 304.686065 
L 598.752 303.360192 
L 601.92 304.064941 
L 605.088 305.000593 
L 608.256 305.188257 
L 611.424 302.914134 
L 614.592 302.279103 
L 617.76 303.646179 
L 620.928 303.765658 
L 624.096 304.690434 
L 627.264 303.225499 
L 630.432 303.264103 
L 633.6 305.591034 
L 636.768 306.468846 
L 639.936 306.296506 
L 643.104 307.279029 
L 646.272 305.569876 
L 649.44 304.135242 
L 652.608 307.099948 
L 655.776 306.091256 
L 658.944 310.376219 
L 662.112 310.729949 
L 665.28 311.446521 
L 668.448 308.189594 
L 671.616 306.810812 
L 674.784 303.705112 
L 677.952 306.88471 
L 681.12 305.476996 
L 687.456 303.273844 
L 690.624 305.116627 
L 693.792 306.204637 
L 696.96 302.293315 
L 700.128 305.502693 
L 706.464 306.069457 
L 709.632 305.196896 
L 712.8 304.725072 
L 715.968 304.11246 
L 719.136 306.373763 
L 722.304 304.967274 
L 725.472 306.772136 
L 728.64 306.508891 
L 731.808 308.448827 
L 734.976 308.513433 
L 738.144 307.802834 
L 741.312 307.932372 
L 744.48 305.932474 
L 747.648 306.055149 
L 750.816 305.207059 
L 753.984 305.306011 
L 757.152 306.199364 
L 760.32 305.865125 
L 763.488 305.848812 
L 766.656 308.149274 
L 769.824 310.272734 
L 772.992 311.863777 
L 776.16 310.132941 
L 779.328 308.910916 
L 782.496 308.842604 
L 785.664 306.562703 
L 788.832 305.954753 
L 788.832 305.954753 
" clip-path="url(#p8c7eadeff0)" style="fill: none; stroke: #000000; stroke-width: 1.5; stroke-linecap: square"/>
   </g>
   <g id="line2d_4">
    <path d="M 0 306 
L 3.168 306 
L 6.336 305.448315 
L 9.504 305.539785 
L 12.672 306.072765 
L 15.84 305.852337 
L 19.008 306.775787 
L 25.344 305.838168 
L 28.512 305.274367 
L 31.68 304.579452 
L 34.848 305.360977 
L 38.016 304.104854 
L 41.184 303.380874 
L 44.352 304.486716 
L 47.52 304.686346 
L 50.688 303.815467 
L 53.856 303.659537 
L 57.024 305.30652 
L 60.192 306.363328 
L 63.36 306.710292 
L 66.528 306.178827 
L 69.696 305.953176 
L 72.864 307.005664 
L 76.032 307.114555 
L 79.2 307.502048 
L 85.536 307.714659 
L 88.704 305.325766 
L 95.04 305.47327 
L 98.208 304.588745 
L 101.376 304.68587 
L 104.544 303.616329 
L 110.88 306.787247 
L 114.048 305.377271 
L 117.216 304.854441 
L 120.384 305.943087 
L 123.552 305.417373 
L 126.72 304.452204 
L 129.888 304.663199 
L 133.056 303.949827 
L 136.224 304.369706 
L 139.392 304.470522 
L 145.728 305.349518 
L 148.896 304.368607 
L 152.064 304.677775 
L 155.232 304.872062 
L 158.4 305.308687 
L 161.568 304.345339 
L 164.736 305.757418 
L 167.904 305.519814 
L 171.072 305.869452 
L 174.24 305.065568 
L 177.408 303.729936 
L 180.576 303.537603 
L 183.744 302.972948 
L 186.912 304.356287 
L 190.08 305.021497 
L 193.248 304.82841 
L 196.416 305.246103 
L 199.584 305.44829 
L 202.752 305.15276 
L 205.92 304.411496 
L 209.088 305.567979 
L 212.256 307.38057 
L 215.424 306.812873 
L 218.592 307.79816 
L 221.76 307.505342 
L 224.928 306.143009 
L 228.096 307.806994 
L 231.264 308.304202 
L 234.432 308.103445 
L 237.6 306.920229 
L 240.768 308.14215 
L 243.936 307.280854 
L 247.104 308.475687 
L 250.272 307.917473 
L 253.44 307.809425 
L 256.608 308.30087 
L 259.776 307.234033 
L 262.944 306.636861 
L 266.112 306.180097 
L 269.28 308.394915 
L 272.448 307.252644 
L 275.616 306.295293 
L 278.784 305.580844 
L 281.952 305.068671 
L 285.12 305.164387 
L 291.456 304.518119 
L 294.624 305.850486 
L 297.792 306.321859 
L 300.96 306.301091 
L 304.128 306.959751 
L 307.296 306.325959 
L 310.464 305.536854 
L 319.968 306.858702 
L 323.136 308.305009 
L 326.304 308.785529 
L 329.472 308.062257 
L 332.64 308.604692 
L 335.808 308.616913 
L 338.976 305.207646 
L 345.312 303.52877 
L 348.48 304.358581 
L 351.648 303.55806 
L 354.816 303.651063 
L 357.984 303.250974 
L 361.152 303.91159 
L 364.32 303.845739 
L 367.488 305.479099 
L 370.656 304.487674 
L 373.824 304.827738 
L 376.992 304.566621 
L 383.328 305.408949 
L 386.496 306.900618 
L 389.664 306.632872 
L 392.832 303.637636 
L 396 305.109725 
L 399.168 303.75682 
L 402.336 305.595799 
L 405.504 305.340339 
L 408.672 305.558513 
L 411.84 304.777063 
L 418.176 304.623108 
L 421.344 304.11075 
L 424.512 304.315029 
L 427.68 305.317744 
L 430.848 305.41888 
L 434.016 304.957657 
L 437.184 305.8534 
L 446.688 305.623073 
L 449.856 305.632545 
L 453.024 306.210441 
L 456.192 305.028799 
L 462.528 305.074204 
L 465.696 305.34181 
L 468.864 305.418168 
L 472.032 305.186225 
L 475.2 305.712916 
L 478.368 306.690193 
L 481.536 306.509709 
L 484.704 305.885776 
L 487.872 307.204716 
L 491.04 306.958403 
L 494.208 307.551978 
L 497.376 307.672897 
L 500.544 306.917437 
L 503.712 307.576762 
L 506.88 307.186124 
L 513.216 305.86694 
L 516.384 306.225089 
L 519.552 305.457892 
L 522.72 307.380161 
L 525.888 307.605164 
L 529.056 305.953734 
L 532.224 306.161516 
L 535.392 305.869723 
L 538.56 305.967112 
L 541.728 307.109474 
L 544.896 306.363178 
L 551.232 307.157106 
L 554.4 306.969934 
L 557.568 306.229545 
L 560.736 306.735201 
L 563.904 307.020675 
L 567.072 305.747736 
L 570.24 304.975813 
L 573.408 304.726554 
L 576.576 305.769446 
L 579.744 307.316529 
L 582.912 307.742418 
L 586.08 307.366592 
L 589.248 307.128158 
L 592.416 305.893932 
L 595.584 305.566536 
L 598.752 304.706334 
L 601.92 304.879105 
L 605.088 305.25466 
L 608.256 305.314423 
L 611.424 304.062757 
L 614.592 303.539006 
L 617.76 304.075541 
L 620.928 304.071821 
L 624.096 304.516685 
L 627.264 303.750102 
L 630.432 303.698961 
L 633.6 304.895489 
L 636.768 305.483643 
L 639.936 305.546402 
L 643.104 306.190909 
L 649.44 304.673176 
L 652.608 306.195751 
L 655.776 305.792462 
L 658.944 308.169852 
L 662.112 308.705656 
L 665.28 309.412236 
L 668.448 307.97149 
L 671.616 307.259171 
L 674.784 305.502942 
L 677.952 306.936918 
L 687.456 304.680025 
L 690.624 305.457329 
L 693.792 306.000518 
L 696.96 303.906741 
L 700.128 305.393759 
L 706.464 305.75627 
L 709.632 305.341493 
L 715.968 304.690849 
L 719.136 305.823102 
L 722.304 305.146342 
L 725.472 306.091627 
L 728.64 306.066115 
L 731.808 307.18956 
L 734.976 307.419025 
L 738.144 307.202251 
L 741.312 307.370465 
L 744.48 306.373008 
L 747.648 306.364209 
L 750.816 305.862161 
L 753.984 305.806863 
L 757.152 306.214375 
L 760.32 306.019502 
L 763.488 305.981142 
L 772.992 309.657448 
L 779.328 308.576151 
L 782.496 308.599172 
L 785.664 307.403831 
L 788.832 306.94308 
L 788.832 306.94308 
" clip-path="url(#p8c7eadeff0)" style="fill: none; stroke: #000000; stroke-width: 1.5; stroke-linecap: square"/>
   </g>
   <g id="line2d_5">
    <path d="M 0 306 
L 3.168 306 
L 6.336 305.470217 
L 9.504 305.546784 
L 12.672 306.019424 
L 15.84 305.842471 
L 19.008 306.612637 
L 25.344 305.907758 
L 31.68 304.925472 
L 34.848 305.443599 
L 38.016 304.546065 
L 41.184 303.991763 
L 44.352 304.667982 
L 47.52 304.779826 
L 50.688 304.201612 
L 53.856 304.060041 
L 57.024 305.057713 
L 60.192 305.740848 
L 63.36 306.016594 
L 66.528 305.763127 
L 69.696 305.668445 
L 72.864 306.319675 
L 76.032 306.448647 
L 79.2 306.736378 
L 85.536 306.995705 
L 88.704 305.704849 
L 95.04 305.726414 
L 98.208 305.211006 
L 101.376 305.20975 
L 104.544 304.574532 
L 110.88 306.214245 
L 114.048 305.497632 
L 117.216 305.204041 
L 120.384 305.76301 
L 123.552 305.495345 
L 126.72 304.970463 
L 129.888 305.03858 
L 133.056 304.624906 
L 136.224 304.792656 
L 139.392 304.808366 
L 145.728 305.239321 
L 148.896 304.730196 
L 158.4 305.174085 
L 161.568 304.680819 
L 164.736 305.395946 
L 167.904 305.300776 
L 171.072 305.502266 
L 174.24 305.113859 
L 177.408 304.411193 
L 180.576 304.25547 
L 183.744 303.901573 
L 186.912 304.548997 
L 190.08 304.876722 
L 193.248 304.788251 
L 199.584 305.133412 
L 202.752 305.005405 
L 205.92 304.62835 
L 209.088 305.216503 
L 212.256 306.194212 
L 215.424 305.993523 
L 218.592 306.574476 
L 221.76 306.523965 
L 224.928 305.894006 
L 228.096 306.781221 
L 231.264 307.126621 
L 234.432 307.119143 
L 237.6 306.582901 
L 240.768 307.250444 
L 243.936 306.8776 
L 247.104 307.533606 
L 250.272 307.318501 
L 253.44 307.314041 
L 256.608 307.612499 
L 259.776 307.111187 
L 266.112 306.555079 
L 269.28 307.679581 
L 275.616 306.649875 
L 281.952 305.919689 
L 285.12 305.896417 
L 291.456 305.436577 
L 294.624 306.054694 
L 297.792 306.284189 
L 300.96 306.278614 
L 304.128 306.623548 
L 310.464 305.909675 
L 319.968 306.571034 
L 323.136 307.347527 
L 326.304 307.676467 
L 329.472 307.396797 
L 332.64 307.736671 
L 335.808 307.817313 
L 338.976 306.103309 
L 345.312 305.051691 
L 348.48 305.360577 
L 351.648 304.861676 
L 354.816 304.802305 
L 357.984 304.499664 
L 361.152 304.738689 
L 364.32 304.637044 
L 367.488 305.420356 
L 370.656 304.91319 
L 373.824 305.053165 
L 376.992 304.898364 
L 383.328 305.302665 
L 386.496 306.091444 
L 389.664 306.016197 
L 392.832 304.503049 
L 396 305.202087 
L 399.168 304.489116 
L 402.336 305.387546 
L 405.504 305.27379 
L 408.672 305.39393 
L 411.84 304.996602 
L 418.176 304.879148 
L 421.344 304.589395 
L 424.512 304.659464 
L 427.68 305.157952 
L 430.848 305.219985 
L 434.016 304.996079 
L 437.184 305.460691 
L 449.856 305.429352 
L 453.024 305.745853 
L 456.192 305.167009 
L 465.696 305.301639 
L 468.864 305.348147 
L 472.032 305.226225 
L 475.2 305.499398 
L 478.368 306.027546 
L 481.536 305.990129 
L 484.704 305.709509 
L 487.872 306.415125 
L 491.04 306.352806 
L 494.208 306.707861 
L 497.376 306.841009 
L 500.544 306.512009 
L 503.712 306.892554 
L 506.88 306.743481 
L 513.216 306.102277 
L 516.384 306.268343 
L 519.552 305.863009 
L 522.72 306.829612 
L 525.888 306.98927 
L 529.056 306.178705 
L 532.224 306.268963 
L 535.392 306.104931 
L 538.56 306.136832 
L 541.728 306.72448 
L 544.896 306.368818 
L 551.232 306.796871 
L 554.4 306.732346 
L 557.568 306.364101 
L 563.904 306.775944 
L 567.072 306.133287 
L 570.24 305.695939 
L 573.408 305.507646 
L 576.576 305.987457 
L 579.744 306.77921 
L 582.912 307.045467 
L 589.248 306.819305 
L 592.416 306.201252 
L 595.584 306.01236 
L 598.752 305.525148 
L 601.92 305.549349 
L 605.088 305.688263 
L 608.256 305.683809 
L 611.424 304.999123 
L 614.592 304.648666 
L 617.76 304.837601 
L 620.928 304.771572 
L 624.096 304.950782 
L 627.264 304.515949 
L 630.432 304.421365 
L 633.6 304.986007 
L 636.768 305.285878 
L 639.936 305.333701 
L 643.104 305.690158 
L 649.44 304.94837 
L 652.608 305.72101 
L 655.776 305.548985 
L 658.944 306.810507 
L 665.28 307.698526 
L 668.448 307.086655 
L 671.616 306.7869 
L 674.784 305.90979 
L 677.952 306.624959 
L 687.456 305.433919 
L 693.792 306.029159 
L 696.96 304.932363 
L 700.128 305.620301 
L 706.464 305.779967 
L 715.968 305.174404 
L 719.136 305.724523 
L 722.304 305.38053 
L 725.472 305.850759 
L 728.64 305.854497 
L 731.808 306.460099 
L 734.976 306.641629 
L 738.144 306.594454 
L 741.312 306.732448 
L 744.48 306.263936 
L 747.648 306.268081 
L 750.816 306.011601 
L 753.984 305.971895 
L 757.152 306.170019 
L 763.488 306.05385 
L 769.824 307.414116 
L 772.992 308.102557 
L 779.328 307.761751 
L 782.496 307.836993 
L 785.664 307.273971 
L 788.832 307.042896 
L 788.832 307.042896 
" clip-path="url(#p8c7eadeff0)" style="fill: none; stroke: #000000; stroke-width: 1.5; stroke-linecap: square"/>
   </g>
   <g id="line2d_6">
    <path d="M 0 306 
L 3.168 306 
L 6.336 305.481204 
L 9.504 305.550841 
L 12.672 305.994222 
L 15.84 305.836528 
L 19.008 306.534422 
L 25.344 305.932101 
L 31.68 305.085167 
L 34.848 305.496324 
L 38.016 304.759704 
L 41.184 304.294287 
L 44.352 304.799866 
L 47.52 304.87513 
L 50.688 304.423994 
L 53.856 304.298959 
L 57.024 305.023565 
L 60.192 305.528328 
L 63.36 305.743957 
L 69.696 305.527202 
L 72.864 305.992185 
L 82.368 306.421914 
L 85.536 306.548207 
L 88.704 305.719756 
L 95.04 305.732584 
L 98.208 305.400209 
L 101.376 305.388711 
L 104.544 304.976564 
L 110.88 305.975697 
L 114.048 305.54548 
L 117.216 305.362774 
L 120.384 305.695019 
L 123.552 305.536582 
L 126.72 305.218935 
L 129.888 305.24694 
L 133.056 304.990824 
L 145.728 305.297579 
L 148.896 305.000713 
L 158.4 305.224136 
L 161.568 304.942119 
L 164.736 305.333446 
L 167.904 305.282883 
L 171.072 305.39657 
L 174.24 305.184784 
L 177.408 304.790815 
L 180.576 304.686951 
L 183.744 304.471606 
L 186.912 304.801802 
L 190.08 304.970078 
L 193.248 304.917407 
L 199.584 305.098661 
L 202.752 305.030756 
L 205.92 304.825716 
L 209.088 305.134369 
L 212.256 305.664514 
L 215.424 305.580613 
L 218.592 305.910195 
L 221.76 305.913309 
L 224.928 305.604124 
L 228.096 306.088955 
L 231.264 306.302474 
L 234.432 306.333985 
L 237.6 306.085024 
L 240.768 306.45833 
L 243.936 306.295195 
L 247.104 306.666823 
L 253.44 306.619496 
L 256.608 306.805649 
L 262.944 306.443476 
L 266.112 306.328501 
L 269.28 306.92479 
L 278.784 306.239711 
L 281.952 306.071774 
L 288.288 305.932318 
L 291.456 305.795306 
L 294.624 306.10012 
L 297.792 306.216908 
L 300.96 306.215856 
L 304.128 306.396677 
L 310.464 306.04075 
L 319.968 306.37773 
L 323.136 306.786809 
L 326.304 306.979404 
L 329.472 306.863999 
L 332.64 307.061348 
L 335.808 307.130464 
L 338.976 306.278973 
L 345.312 305.71346 
L 348.48 305.844075 
L 351.648 305.566433 
L 354.816 305.506108 
L 357.984 305.321068 
L 361.152 305.409019 
L 364.32 305.327418 
L 367.488 305.700596 
L 370.656 305.428748 
L 373.824 305.478879 
L 376.992 305.380802 
L 383.328 305.549561 
L 386.496 305.941561 
L 389.664 305.910398 
L 392.832 305.141776 
L 396 305.471747 
L 399.168 305.0963 
L 402.336 305.529812 
L 405.504 305.465349 
L 408.672 305.517682 
L 411.84 305.310582 
L 418.176 305.22497 
L 421.344 305.063572 
L 424.512 305.078659 
L 427.68 305.314535 
L 430.848 305.341686 
L 434.016 305.223457 
L 437.184 305.452042 
L 449.856 305.437052 
L 453.024 305.598286 
L 456.192 305.31013 
L 472.032 305.319408 
L 475.2 305.454411 
L 478.368 305.724247 
L 481.536 305.717012 
L 484.704 305.584053 
L 487.872 305.949444 
L 491.04 305.936484 
L 497.376 306.230526 
L 500.544 306.088854 
L 503.712 306.302229 
L 510.048 306.129609 
L 513.216 305.9581 
L 516.384 306.047958 
L 519.552 305.852034 
L 522.72 306.347447 
L 525.888 306.450149 
L 529.056 306.06038 
L 532.224 306.11232 
L 538.56 306.056743 
L 541.728 306.357108 
L 544.896 306.190137 
L 554.4 306.409138 
L 557.568 306.234376 
L 563.904 306.459998 
L 570.24 305.922007 
L 573.408 305.815417 
L 576.576 306.047286 
L 579.744 306.449586 
L 582.912 306.601303 
L 589.248 306.523001 
L 592.416 306.218772 
L 595.584 306.118111 
L 598.752 305.866254 
L 608.256 305.909418 
L 611.424 305.551127 
L 614.592 305.346863 
L 617.76 305.411721 
L 620.928 305.353684 
L 624.096 305.418634 
L 627.264 305.17658 
L 630.432 305.102194 
L 633.6 305.360007 
L 636.768 305.495944 
L 639.936 305.51206 
L 643.104 305.687325 
L 649.44 305.300258 
L 652.608 305.678519 
L 655.776 305.593157 
L 658.944 306.234305 
L 665.28 306.743613 
L 668.448 306.472077 
L 671.616 306.34535 
L 674.784 305.91334 
L 677.952 306.279724 
L 687.456 305.692195 
L 693.792 305.983638 
L 696.96 305.426595 
L 700.128 305.756308 
L 706.464 305.827989 
L 715.968 305.499966 
L 719.136 305.767136 
L 722.304 305.588393 
L 725.472 305.821165 
L 728.64 305.823144 
L 731.808 306.131505 
L 734.976 306.238661 
L 741.312 306.31602 
L 744.48 306.098647 
L 747.648 306.108212 
L 753.984 305.966457 
L 757.152 306.069 
L 763.488 306.017205 
L 769.824 306.727682 
L 772.992 307.106281 
L 779.328 307.012649 
L 782.496 307.084891 
L 785.664 306.829641 
L 788.832 306.730054 
L 788.832 306.730054 
" clip-path="url(#p8c7eadeff0)" style="fill: none; stroke: #000000; stroke-width: 1.5; stroke-linecap: square"/>
   </g>
   <g id="line2d_7">
    <path d="M 0 306 
L 3.168 306 
L 6.336 305.486703 
L 9.504 305.553006 
L 12.672 305.982031 
L 15.84 305.833355 
L 19.008 306.496377 
L 25.344 305.941615 
L 31.68 305.16013 
L 34.848 305.524107 
L 38.016 304.862125 
L 41.184 304.440452 
L 44.352 304.872692 
L 47.52 304.932594 
L 50.688 304.53915 
L 53.856 304.424217 
L 57.024 305.030114 
L 60.192 305.453856 
L 63.36 305.638044 
L 69.696 305.469605 
L 72.864 305.850557 
L 85.536 306.328403 
L 88.704 305.691744 
L 95.04 305.704287 
L 98.208 305.451707 
L 101.376 305.440783 
L 104.544 305.128371 
L 110.88 305.865317 
L 114.048 305.552551 
L 117.216 305.418502 
L 120.384 305.658023 
L 123.552 305.544932 
L 126.72 305.316579 
L 129.888 305.333002 
L 133.056 305.148352 
L 145.728 305.34493 
L 148.896 305.139091 
L 158.4 305.279374 
L 161.568 305.087844 
L 164.736 305.34513 
L 174.24 305.246301 
L 177.408 304.986109 
L 183.744 304.76586 
L 190.08 305.073767 
L 196.416 305.106901 
L 202.752 305.102468 
L 205.92 304.97145 
L 209.088 305.160689 
L 212.256 305.490666 
L 215.424 305.443374 
L 218.592 305.65111 
L 221.76 305.660142 
L 224.928 305.477214 
L 228.096 305.777212 
L 234.432 305.945246 
L 237.6 305.805003 
L 240.768 306.037483 
L 243.936 305.950592 
L 247.104 306.182149 
L 253.44 306.178022 
L 256.608 306.29982 
L 262.944 306.10936 
L 266.112 306.050374 
L 269.28 306.406639 
L 281.952 305.946222 
L 288.288 305.871884 
L 291.456 305.794697 
L 297.792 306.039274 
L 319.968 306.157651 
L 323.136 306.392399 
L 326.304 306.509664 
L 329.472 306.456453 
L 335.808 306.626199 
L 338.976 306.165437 
L 345.312 305.854753 
L 348.48 305.923526 
L 351.648 305.768655 
L 364.32 305.614326 
L 367.488 305.811534 
L 370.656 305.660658 
L 383.328 305.70571 
L 386.496 305.914332 
L 389.664 305.898111 
L 392.832 305.483443 
L 396 305.653495 
L 399.168 305.447186 
L 402.336 305.672252 
L 424.512 305.39694 
L 430.848 305.524974 
L 434.016 305.457881 
L 437.184 305.573457 
L 449.856 305.553785 
L 453.024 305.636195 
L 456.192 305.483038 
L 475.2 305.539036 
L 478.368 305.678968 
L 484.704 305.608134 
L 487.872 305.798542 
L 494.208 305.901938 
L 497.376 305.955759 
L 500.544 305.888074 
L 503.712 306.002952 
L 516.384 305.891166 
L 519.552 305.792382 
L 522.72 306.049981 
L 525.888 306.110158 
L 529.056 305.915677 
L 554.4 306.128456 
L 557.568 306.044625 
L 563.904 306.170428 
L 570.24 305.903102 
L 573.408 305.848626 
L 586.08 306.238472 
L 589.248 306.231097 
L 595.584 306.033642 
L 598.752 305.906342 
L 608.256 305.926395 
L 614.592 305.634349 
L 624.096 305.654864 
L 630.432 305.480143 
L 636.768 305.668921 
L 646.272 305.665546 
L 649.44 305.55722 
L 652.608 305.745106 
L 655.776 305.700135 
L 658.944 306.024342 
L 665.28 306.294878 
L 674.784 305.89475 
L 677.952 306.081017 
L 687.456 305.788245 
L 693.792 305.933689 
L 696.96 305.651649 
L 700.128 305.8148 
L 709.632 305.791195 
L 715.968 305.677971 
L 719.136 305.809867 
L 722.304 305.718558 
L 725.472 305.834067 
L 728.64 305.835642 
L 734.976 306.049277 
L 747.648 305.996753 
L 753.984 305.928085 
L 760.32 305.960245 
L 763.488 305.956811 
L 776.16 306.511364 
L 788.832 306.387573 
L 788.832 306.387573 
" clip-path="url(#p8c7eadeff0)" style="fill: none; stroke: #000000; stroke-width: 1.5; stroke-linecap: square"/>
   </g>
   <g id="line2d_8">
    <path d="M 0 306 
L 3.168 306 
L 6.336 305.489452 
L 9.504 305.554123 
L 12.672 305.976044 
L 15.84 305.831726 
L 19.008 306.477647 
L 25.344 305.945717 
L 31.68 305.196223 
L 34.848 305.538159 
L 38.016 304.911908 
L 41.184 304.511708 
L 44.352 304.910262 
L 47.52 304.963274 
L 50.688 304.597091 
L 53.856 304.487539 
L 57.024 305.038918 
L 60.192 305.424826 
L 63.36 305.593584 
L 69.696 305.445498 
L 72.864 305.787463 
L 85.536 306.224149 
L 88.704 305.672058 
L 95.04 305.684535 
L 98.208 305.467544 
L 101.376 305.457588 
L 104.544 305.190077 
L 110.88 305.813102 
L 114.048 305.55115 
L 117.216 305.43867 
L 120.384 305.638221 
L 136.224 305.255121 
L 142.56 305.311633 
L 145.728 305.368617 
L 148.896 305.202303 
L 158.4 305.309849 
L 161.568 305.157372 
L 164.736 305.358617 
L 174.24 305.280649 
L 177.408 305.077715 
L 183.744 304.903108 
L 190.08 305.134216 
L 196.416 305.15644 
L 202.752 305.151292 
L 205.92 305.05181 
L 218.592 305.557976 
L 221.76 305.566531 
L 224.928 305.433829 
L 228.096 305.65465 
L 234.432 305.782856 
L 237.6 305.684208 
L 240.768 305.85471 
L 243.936 305.795538 
L 247.104 305.964886 
L 253.44 305.969727 
L 256.608 306.060264 
L 266.112 305.894882 
L 269.28 306.148095 
L 281.952 305.840552 
L 300.96 305.916168 
L 304.128 305.99112 
L 313.632 305.907329 
L 319.968 306.005524 
L 326.304 306.246995 
L 329.472 306.21576 
L 335.808 306.336562 
L 338.976 306.036785 
L 345.312 305.835557 
L 348.48 305.88093 
L 357.984 305.685505 
L 373.824 305.720478 
L 380.16 305.703898 
L 389.664 305.855899 
L 392.832 305.593636 
L 396 305.699599 
L 399.168 305.568723 
L 402.336 305.708708 
L 427.68 305.600662 
L 491.04 305.752382 
L 497.376 305.849547 
L 503.712 305.879855 
L 522.72 305.913176 
L 525.888 305.950205 
L 529.056 305.838477 
L 563.904 306.002319 
L 573.408 305.821448 
L 586.08 306.050336 
L 595.584 305.939852 
L 601.92 305.86767 
L 608.256 305.881612 
L 614.592 305.716828 
L 624.096 305.725492 
L 630.432 305.625 
L 639.936 305.729753 
L 646.272 305.724462 
L 649.44 305.663381 
L 652.608 305.766697 
L 655.776 305.741427 
L 658.944 305.921043 
L 665.28 306.074204 
L 674.784 305.859014 
L 677.952 305.962302 
L 690.624 305.848292 
L 693.792 305.883768 
L 696.96 305.72949 
L 703.296 305.826122 
L 712.8 305.779498 
L 722.304 305.76426 
L 734.976 305.94479 
L 766.656 305.992914 
L 776.16 306.209918 
L 788.832 306.15686 
L 788.832 306.15686 
" clip-path="url(#p8c7eadeff0)" style="fill: none; stroke: #000000; stroke-width: 1.5; stroke-linecap: square"/>
   </g>
   <g id="line2d_9">
    <path d="M 0 306 
L 3.168 306 
L 6.336 305.490827 
L 9.504 305.554689 
L 12.672 305.973077 
L 15.84 305.830901 
L 19.008 306.468357 
L 25.344 305.947605 
L 31.68 305.213903 
L 34.848 305.545201 
L 38.016 304.936403 
L 41.184 304.546812 
L 44.352 304.929261 
L 47.52 304.979028 
L 50.688 304.626064 
L 53.856 304.519268 
L 57.024 305.044621 
L 60.192 305.412342 
L 63.36 305.573529 
L 69.696 305.434752 
L 72.864 305.758062 
L 85.536 306.174005 
L 88.704 305.661286 
L 95.04 305.67368 
L 98.208 305.473294 
L 101.376 305.463909 
L 104.544 305.217413 
L 110.88 305.78794 
L 114.048 305.549308 
L 117.216 305.446816 
L 120.384 305.628064 
L 136.224 305.280192 
L 142.56 305.329443 
L 145.728 305.379846 
L 148.896 305.231549 
L 158.4 305.324956 
L 161.568 305.190176 
L 164.736 305.366483 
L 174.24 305.297899 
L 177.408 305.120673 
L 183.744 304.9672 
L 190.08 305.165009 
L 196.416 305.182818 
L 202.752 305.177574 
L 205.92 305.092144 
L 218.592 305.521689 
L 221.76 305.529536 
L 224.928 305.418336 
L 231.264 305.692056 
L 275.616 305.891108 
L 291.456 305.705495 
L 297.792 305.843787 
L 319.968 305.924651 
L 326.304 306.117729 
L 332.64 306.161706 
L 335.808 306.192786 
L 338.976 305.960059 
L 351.648 305.762769 
L 364.32 305.683806 
L 367.488 305.780926 
L 373.824 305.716943 
L 383.328 305.726408 
L 389.664 305.820334 
L 392.832 305.622058 
L 396 305.701868 
L 399.168 305.603063 
L 402.336 305.708153 
L 434.016 305.596895 
L 440.352 305.64274 
L 475.2 305.620881 
L 481.536 305.679688 
L 487.872 305.731655 
L 519.552 305.741581 
L 525.888 305.875565 
L 532.224 305.810724 
L 544.896 305.838327 
L 563.904 305.917598 
L 573.408 305.794198 
L 589.248 305.953365 
L 601.92 305.832146 
L 611.424 305.772527 
L 620.928 305.726813 
L 646.272 305.734737 
L 652.608 305.762469 
L 655.776 305.745704 
L 662.112 305.910067 
L 668.448 305.922923 
L 703.296 305.807976 
L 788.832 306.03061 
L 788.832 306.03061 
" clip-path="url(#p8c7eadeff0)" style="fill: none; stroke: #000000; stroke-width: 1.5; stroke-linecap: square"/>
   </g>
  </g>
 </g>
 <defs>
  <clipPath id="p8c7eadeff0">
   <rect x="0" y="0" width="792" height="612"/>
  </clipPath>
 </defs>
</svg>
