<?xml version="1.0" encoding="utf-8" standalone="no"?>
<!DOCTYPE svg PUBLIC "-//W3C//DTD SVG 1.1//EN"
  "http://www.w3.org/Graphics/SVG/1.1/DTD/svg11.dtd">
<svg xmlns:xlink="http://www.w3.org/1999/xlink" width="792pt" height="612pt" viewBox="0 0 792 612" xmlns="http://www.w3.org/2000/svg" version="1.1">
 <metadata>
  <rdf:RDF xmlns:dc="http://purl.org/dc/elements/1.1/" xmlns:cc="http://creativecommons.org/ns#" xmlns:rdf="http://www.w3.org/1999/02/22-rdf-syntax-ns#">
   <cc:Work>
    <dc:type rdf:resource="http://purl.org/dc/dcmitype/StillImage"/>
    <dc:date>2023-01-30T17:16:45.578181</dc:date>
    <dc:format>image/svg+xml</dc:format>
    <dc:creator>
     <cc:Agent>
      <dc:title>Matplotlib v3.6.2, https://matplotlib.org/</dc:title>
     </cc:Agent>
    </dc:creator>
   </cc:Work>
  </rdf:RDF>
 </metadata>
 <defs>
  <style type="text/css">*{stroke-linejoin: round; stroke-linecap: butt}</style>
 </defs>
 <g id="figure_1">
  <g id="patch_1">
   <path d="M 0 612 
L 792 612 
L 792 0 
L 0 0 
z
" style="fill: #ffffff"/>
  </g>
  <g id="axes_1">
   <g id="line2d_1">
    <path d="M 0 306 
L 12.983607 306.779688 
L 25.967213 304.333288 
L 38.95082 306.774038 
L 51.934426 300.66701 
L 64.918033 303.790917 
L 77.901639 310.429233 
L 90.885246 308.192134 
L 103.868852 305.898301 
L 116.852459 309.073456 
L 129.836066 302.130007 
L 142.819672 301.463442 
L 155.803279 312.999038 
L 168.786885 304.016904 
L 181.770492 318.473771 
L 194.754098 310.706017 
L 207.737705 312.067225 
L 220.721311 301.192308 
L 233.704918 303.858713 
L 246.688525 297.702293 
L 259.672131 313.236206 
L 272.655738 302.666675 
L 285.639344 302.259935 
L 298.622951 301.531226 
L 311.606557 309.022612 
L 324.590164 308.412468 
L 337.57377 294.840697 
L 350.557377 312.12935 
L 363.540984 306.423744 
L 376.52459 306.632791 
L 389.508197 303.581882 
L 402.491803 303.971706 
L 415.47541 303.169468 
L 428.459016 310.92631 
L 441.442623 302.237339 
L 454.42623 310.316257 
L 467.409836 305.920901 
L 480.393443 312.033339 
L 493.377049 308.24863 
L 506.360656 306.056499 
L 519.344262 307.9153 
L 532.327869 301.858857 
L 545.311475 306.254247 
L 558.295082 303.615779 
L 571.278689 305.615805 
L 584.262295 308.000045 
L 597.245902 305.192062 
L 610.229508 305.830502 
L 623.213115 312.519028 
L 636.196721 313.987181 
L 649.180328 314.21302 
L 662.163934 305.9774 
L 675.147541 305.9661 
L 688.131148 308.293827 
L 701.114754 301.819315 
L 714.098361 304.717474 
L 727.081967 309.446309 
L 740.065574 308.536759 
L 753.04918 310.994091 
L 766.032787 301.412604 
L 779.016393 304.666626 
" clip-path="url(#p29ec509d80)" style="fill: none; stroke: #000000; stroke-width: 1.5; stroke-linecap: square"/>
   </g>
   <g id="line2d_2">
    <path d="M 0 306 
L 12.983607 306 
L 25.967213 306.519793 
L 38.95082 305.270354 
L 51.934426 306.072319 
L 64.918033 303.282275 
L 77.901639 303.540631 
L 90.885246 307.012178 
L 103.868852 307.604476 
L 116.852459 306.751195 
L 129.836066 307.916851 
L 142.819672 305.019021 
L 155.803279 303.230726 
L 168.786885 308.139603 
L 181.770492 306.0787 
L 194.754098 312.294592 
L 207.737705 311.50527 
L 220.721311 311.798346 
L 233.704918 306.480022 
L 246.688525 305.172742 
L 259.672131 301.429461 
L 272.655738 307.333795 
L 285.639344 304.997529 
L 298.622951 303.596881 
L 311.606557 302.546026 
L 324.590164 305.778324 
L 337.57377 307.109574 
L 350.557377 300.955428 
L 363.540984 306.570863 
L 376.52459 306.483943 
L 389.508197 306.566144 
L 402.491803 305.076583 
L 415.47541 304.528926 
L 428.459016 303.83771 
L 441.442623 307.387125 
L 454.42623 304.82666 
L 467.409836 307.568029 
L 480.393443 306.743485 
L 493.377049 309.399255 
L 506.360656 308.833102 
L 519.344262 307.448918 
L 532.327869 307.691416 
L 545.311475 304.757245 
L 558.295082 305.513619 
L 571.278689 304.551547 
L 584.262295 305.083075 
L 597.245902 306.533663 
L 610.229508 305.856869 
L 623.213115 305.843242 
L 636.196721 309.190542 
L 649.180328 311.612982 
L 662.163934 312.928727 
L 675.147541 309.458139 
L 688.131148 307.712862 
L 701.114754 308.003923 
L 714.098361 304.904894 
L 727.081967 304.809002 
L 740.065574 307.121694 
L 753.04918 307.818546 
L 766.032787 309.400096 
L 779.016393 305.397298 
" clip-path="url(#p29ec509d80)" style="fill: none; stroke: #000000; stroke-width: 1.5; stroke-linecap: square"/>
   </g>
   <g id="line2d_3">
    <path d="M 0 306 
L 12.983607 306 
L 25.967213 306.456731 
L 38.95082 305.494631 
L 51.934426 305.994271 
L 64.918033 304.098726 
L 77.901639 303.995691 
L 90.885246 306.062814 
L 103.868852 306.728066 
L 116.852459 306.473797 
L 129.836066 307.259806 
L 142.819672 305.723315 
L 155.803279 304.455737 
L 168.786885 306.986316 
L 181.770492 306.109741 
L 194.754098 309.753047 
L 207.737705 310.033268 
L 220.721311 310.636014 
L 233.704918 307.86371 
L 246.688525 306.690133 
L 259.672131 304.046665 
L 272.655738 306.753034 
L 285.639344 305.554838 
L 298.622951 304.580355 
L 311.606557 303.679579 
L 324.590164 305.248105 
L 337.57377 306.17418 
L 350.557377 302.844963 
L 363.540984 305.576711 
L 376.52459 305.817247 
L 389.508197 306.059119 
L 402.491803 305.316427 
L 415.47541 304.914827 
L 428.459016 304.39339 
L 441.442623 306.318133 
L 454.42623 305.120981 
L 467.409836 306.657214 
L 480.393443 306.43315 
L 493.377049 308.084364 
L 506.360656 308.139355 
L 519.344262 307.534511 
L 532.327869 307.64477 
L 545.311475 305.942524 
L 558.295082 306.046941 
L 571.278689 305.325078 
L 584.262295 305.409302 
L 597.245902 306.169691 
L 610.229508 305.885199 
L 623.213115 305.871314 
L 636.196721 307.829392 
L 649.180328 309.636859 
L 662.163934 310.9912 
L 675.147541 309.517866 
L 688.131148 308.477685 
L 701.114754 308.419539 
L 714.098361 306.478952 
L 727.081967 305.961487 
L 740.065574 306.983966 
L 753.04918 307.446448 
L 766.032787 308.491056 
L 779.016393 306.415232 
" clip-path="url(#p29ec509d80)" style="fill: none; stroke: #000000; stroke-width: 1.5; stroke-linecap: square"/>
   </g>
   <g id="line2d_4">
    <path d="M 0 306 
L 12.983607 306 
L 25.967213 306.423538 
L 38.95082 305.603184 
L 51.934426 305.975758 
L 64.918033 304.518218 
L 77.901639 304.339213 
L 90.885246 305.718161 
L 103.868852 306.242993 
L 116.852459 306.173553 
L 129.836066 306.734033 
L 142.819672 305.873577 
L 155.803279 305.071613 
L 168.786885 306.481257 
L 181.770492 306.051149 
L 194.754098 308.187482 
L 207.737705 308.614934 
L 220.721311 309.194745 
L 233.704918 307.862666 
L 246.688525 307.201042 
L 259.672131 305.640677 
L 272.655738 306.881984 
L 285.639344 306.196139 
L 298.622951 305.557988 
L 311.606557 304.9071 
L 324.590164 305.570622 
L 337.57377 306.02783 
L 350.557377 304.23045 
L 363.540984 305.497204 
L 376.52459 305.645594 
L 389.508197 305.803534 
L 402.491803 305.448404 
L 415.47541 305.212531 
L 428.459016 304.885697 
L 441.442623 305.849431 
L 454.42623 305.273398 
L 467.409836 306.077989 
L 480.393443 306.056274 
L 493.377049 307.012511 
L 506.360656 307.207824 
L 519.344262 307.023313 
L 532.327869 307.166492 
L 545.311475 306.317491 
L 558.295082 306.310002 
L 571.278689 305.882677 
L 584.262295 305.835609 
L 597.245902 306.182468 
L 610.229508 306.0166 
L 623.213115 305.983949 
L 636.196721 307.024138 
L 649.180328 308.140225 
L 662.163934 309.113126 
L 675.147541 308.619412 
L 688.131148 308.19274 
L 701.114754 308.212334 
L 714.098361 307.194892 
L 727.081967 306.802716 
L 740.065574 307.223604 
L 753.04918 307.432613 
L 766.032787 308.00939 
L 779.016393 306.953097 
" clip-path="url(#p29ec509d80)" style="fill: none; stroke: #000000; stroke-width: 1.5; stroke-linecap: square"/>
   </g>
   <g id="line2d_5">
    <path d="M 0 306 
L 12.983607 306 
L 25.967213 306.406723 
L 38.95082 305.654901 
L 51.934426 305.972027 
L 64.918033 304.719575 
L 77.901639 304.529451 
L 90.885246 305.60627 
L 103.868852 306.035509 
L 116.852459 306.014479 
L 129.836066 306.452561 
L 142.819672 305.868668 
L 155.803279 305.303048 
L 168.786885 306.248366 
L 181.770492 305.984804 
L 194.754098 307.410621 
L 207.737705 307.775324 
L 220.721311 308.237549 
L 233.704918 307.497161 
L 246.688525 307.12307 
L 259.672131 306.173083 
L 272.655738 306.872837 
L 285.639344 306.462778 
L 298.622951 306.058888 
L 311.606557 305.629398 
L 324.590164 305.94749 
L 337.57377 306.176108 
L 350.557377 305.134508 
L 363.540984 305.771413 
L 376.52459 305.830329 
L 389.508197 305.902278 
L 402.491803 305.695604 
L 415.47541 305.542987 
L 428.459016 305.334011 
L 441.442623 305.823932 
L 454.42623 305.511171 
L 467.409836 305.928438 
L 480.393443 305.927786 
L 493.377049 306.454148 
L 506.360656 306.60834 
L 519.344262 306.561062 
L 532.327869 306.676776 
L 545.311475 306.266096 
L 558.295082 306.265088 
L 571.278689 306.040234 
L 584.262295 306.004279 
L 597.245902 306.173058 
L 610.229508 306.090228 
L 623.213115 306.06833 
L 636.196721 306.611577 
L 649.180328 307.232019 
L 662.163934 307.81863 
L 675.147541 307.664111 
L 688.131148 307.521743 
L 701.114754 307.586425 
L 714.098361 307.103652 
L 727.081967 306.90405 
L 740.065574 307.11658 
L 753.04918 307.235231 
L 766.032787 307.549122 
L 779.016393 307.036966 
" clip-path="url(#p29ec509d80)" style="fill: none; stroke: #000000; stroke-width: 1.5; stroke-linecap: square"/>
   </g>
   <g id="line2d_6">
    <path d="M 0 306 
L 12.983607 306 
L 25.967213 306.398288 
L 38.95082 305.679923 
L 51.934426 305.971475 
L 64.918033 304.81662 
L 77.901639 304.626633 
L 90.885246 305.567132 
L 103.868852 305.94711 
L 116.852459 305.940701 
L 129.836066 306.318489 
L 142.819672 305.850011 
L 155.803279 305.391226 
L 168.786885 306.140398 
L 181.770492 305.942418 
L 194.754098 307.054828 
L 207.737705 307.364451 
L 220.721311 307.747051 
L 233.704918 307.233825 
L 246.688525 306.978728 
L 259.672131 306.299971 
L 272.655738 306.792339 
L 285.639344 306.507661 
L 298.622951 306.222152 
L 311.606557 305.914481 
L 324.590164 306.113712 
L 337.57377 306.257931 
L 350.557377 305.555628 
L 363.540984 305.952297 
L 376.52459 305.98024 
L 389.508197 306.018276 
L 402.491803 305.878483 
L 415.47541 305.770693 
L 428.459016 305.625694 
L 441.442623 305.917289 
L 454.42623 305.717376 
L 467.409836 305.964268 
L 480.393443 305.961966 
L 493.377049 306.280886 
L 506.360656 306.383201 
L 519.344262 306.366375 
L 532.327869 306.445428 
L 545.311475 306.213339 
L 558.295082 306.215392 
L 571.278689 306.08593 
L 584.262295 306.06269 
L 597.245902 306.157793 
L 610.229508 306.110702 
L 623.213115 306.097125 
L 636.196721 306.406462 
L 649.180328 306.769555 
L 662.163934 307.124135 
L 675.147541 307.069807 
L 688.131148 307.017777 
L 701.114754 307.077649 
L 714.098361 306.832033 
L 727.081967 306.733691 
L 740.065574 306.859337 
L 753.04918 306.936729 
L 766.032787 307.123241 
L 779.016393 306.861675 
" clip-path="url(#p29ec509d80)" style="fill: none; stroke: #000000; stroke-width: 1.5; stroke-linecap: square"/>
   </g>
   <g id="line2d_7">
    <path d="M 0 306 
L 12.983607 306 
L 25.967213 306.394067 
L 38.95082 305.692203 
L 51.934426 305.971512 
L 64.918033 304.864054 
L 77.901639 304.675372 
L 90.885246 305.551758 
L 103.868852 305.907366 
L 116.852459 305.906269 
L 129.836066 306.254751 
L 142.819672 305.83784 
L 155.803279 305.428301 
L 168.786885 306.089424 
L 181.770492 305.91965 
L 194.754098 306.8899 
L 207.737705 307.169109 
L 220.721311 307.509875 
L 233.704918 307.09058 
L 246.688525 306.885316 
L 259.672131 306.325512 
L 272.655738 306.730767 
L 285.639344 306.501027 
L 298.622951 306.269409 
L 311.606557 306.018947 
L 324.590164 306.172878 
L 337.57377 306.284328 
L 350.557377 305.730318 
L 363.540984 306.031883 
L 376.52459 306.049885 
L 389.508197 306.076023 
L 402.491803 305.96674 
L 415.47541 305.881239 
L 428.459016 305.767459 
L 441.442623 305.979571 
L 454.42623 305.82868 
L 467.409836 306.006272 
L 480.393443 306.002954 
L 493.377049 306.233346 
L 506.360656 306.309062 
L 519.344262 306.299724 
L 532.327869 306.358543 
L 545.311475 306.197131 
L 558.295082 306.19915 
L 571.278689 306.109057 
L 584.262295 306.092084 
L 597.245902 306.156898 
L 610.229508 306.124529 
L 623.213115 306.114783 
L 636.196721 306.324639 
L 649.180328 306.572934 
L 662.163934 306.817819 
L 675.147541 306.791171 
L 688.131148 306.765276 
L 701.114754 306.812778 
L 714.098361 306.659078 
L 727.081967 306.599871 
L 740.065574 306.685894 
L 753.04918 306.74134 
L 766.032787 306.867673 
L 779.016393 306.706961 
" clip-path="url(#p29ec509d80)" style="fill: none; stroke: #000000; stroke-width: 1.5; stroke-linecap: square"/>
   </g>
   <g id="line2d_8">
    <path d="M 0 306 
L 12.983607 306 
L 25.967213 306.391956 
L 38.95082 305.698283 
L 51.934426 305.971607 
L 64.918033 304.887478 
L 77.901639 304.699731 
L 90.885246 305.545103 
L 103.868852 305.888664 
L 116.852459 305.889782 
L 129.836066 306.223899 
L 142.819672 305.831228 
L 155.803279 305.445147 
L 168.786885 306.064819 
L 181.770492 305.908018 
L 194.754098 306.81122 
L 207.737705 307.074937 
L 220.721311 307.394775 
L 233.704918 307.017543 
L 246.688525 306.834589 
L 259.672131 306.329366 
L 272.655738 306.695168 
L 285.639344 306.490479 
L 298.622951 306.283795 
L 311.606557 306.06012 
L 324.590164 306.19466 
L 337.57377 306.292007 
L 350.557377 305.805284 
L 363.540984 306.065739 
L 376.52459 306.080046 
L 389.508197 306.10151 
L 402.491803 306.00634 
L 415.47541 305.931509 
L 428.459016 305.832499 
L 441.442623 306.010639 
L 454.42623 305.881801 
L 467.409836 306.029758 
L 480.393443 306.026206 
L 493.377049 306.218028 
L 506.360656 306.281519 
L 519.344262 306.274625 
L 532.327869 306.323915 
L 545.311475 306.192304 
L 558.295082 306.194097 
L 571.278689 306.120828 
L 584.262295 306.106725 
L 597.245902 306.158704 
L 610.229508 306.132602 
L 623.213115 306.124575 
L 636.196721 306.291868 
L 649.180328 306.49016 
L 662.163934 306.686226 
L 675.147541 306.668494 
L 688.131148 306.65117 
L 701.114754 306.691131 
L 714.098361 306.574195 
L 727.081967 306.530213 
L 740.065574 306.598412 
L 753.04918 306.643178 
L 766.032787 306.742447 
L 779.016393 306.622295 
" clip-path="url(#p29ec509d80)" style="fill: none; stroke: #000000; stroke-width: 1.5; stroke-linecap: square"/>
   </g>
   <g id="line2d_9">
    <path d="M 0 306 
L 12.983607 306 
L 25.967213 306.3909 
L 38.95082 305.701307 
L 51.934426 305.971672 
L 64.918033 304.899114 
L 77.901639 304.711902 
L 90.885246 305.542031 
L 103.868852 305.879611 
L 116.852459 305.881733 
L 129.836066 306.208749 
L 142.819672 305.827814 
L 155.803279 305.453159 
L 168.786885 306.052754 
L 181.770492 305.90216 
L 194.754098 306.772886 
L 207.737705 307.028838 
L 220.721311 307.338271 
L 233.704918 306.980867 
L 246.688525 306.808412 
L 259.672131 306.329198 
L 272.655738 306.676285 
L 285.639344 306.483475 
L 298.622951 306.28869 
L 311.606557 306.077859 
L 324.590164 306.203466 
L 337.57377 306.294305 
L 350.557377 305.839366 
L 363.540984 306.080846 
L 376.52459 306.093588 
L 389.508197 306.113009 
L 402.491803 306.024552 
L 415.47541 305.95487 
L 428.459016 305.862944 
L 441.442623 306.02557 
L 454.42623 305.907069 
L 467.409836 306.041517 
L 480.393443 306.037929 
L 493.377049 306.212043 
L 506.360656 306.269816 
L 519.344262 306.263901 
L 532.327869 306.308695 
L 545.311475 306.190555 
L 558.295082 306.192211 
L 571.278689 306.12658 
L 584.262295 306.113825 
L 597.245902 306.160024 
L 610.229508 306.13676 
L 623.213115 306.129534 
L 636.196721 306.277618 
L 649.180328 306.45319 
L 662.163934 306.626893 
L 675.147541 306.6126 
L 688.131148 306.598606 
L 701.114754 306.634715 
L 714.098361 306.533747 
L 727.081967 306.496249 
L 740.065574 306.556242 
L 753.04918 306.595925 
L 766.032787 306.682785 
L 779.016393 306.58018 
" clip-path="url(#p29ec509d80)" style="fill: none; stroke: #000000; stroke-width: 1.5; stroke-linecap: square"/>
   </g>
  </g>
 </g>
 <defs>
  <clipPath id="p29ec509d80">
   <rect x="0" y="0" width="792" height="612"/>
  </clipPath>
 </defs>
</svg>
