<?xml version="1.0" encoding="utf-8" standalone="no"?>
<!DOCTYPE svg PUBLIC "-//W3C//DTD SVG 1.1//EN"
  "http://www.w3.org/Graphics/SVG/1.1/DTD/svg11.dtd">
<svg xmlns:xlink="http://www.w3.org/1999/xlink" width="792pt" height="612pt" viewBox="0 0 792 612" xmlns="http://www.w3.org/2000/svg" version="1.1">
 <metadata>
  <rdf:RDF xmlns:dc="http://purl.org/dc/elements/1.1/" xmlns:cc="http://creativecommons.org/ns#" xmlns:rdf="http://www.w3.org/1999/02/22-rdf-syntax-ns#">
   <cc:Work>
    <dc:type rdf:resource="http://purl.org/dc/dcmitype/StillImage"/>
    <dc:date>2023-01-02T15:39:08.815681</dc:date>
    <dc:format>image/svg+xml</dc:format>
    <dc:creator>
     <cc:Agent>
      <dc:title>Matplotlib v3.6.2, https://matplotlib.org/</dc:title>
     </cc:Agent>
    </dc:creator>
   </cc:Work>
  </rdf:RDF>
 </metadata>
 <defs>
  <style type="text/css">*{stroke-linejoin: round; stroke-linecap: butt}</style>
 </defs>
 <g id="figure_1">
  <g id="patch_1">
   <path d="M 0 612 
L 792 612 
L 792 0 
L 0 0 
z
" style="fill: #ffffff"/>
  </g>
  <g id="axes_1">
   <g id="line2d_1">
    <path d="M 0 306 
L 12.571429 301.453459 
L 25.142857 303.685055 
L 37.714286 310.712708 
L 50.285714 314.474254 
L 62.857143 309.555426 
L 75.428571 305.436093 
L 88 305.910962 
L 100.571429 300.094543 
L 113.142857 304.088675 
L 125.714286 300.806613 
L 138.285714 305.804116 
L 150.857143 307.121874 
L 163.428571 305.667591 
L 176 298.373987 
L 188.571429 301.328834 
L 201.142857 306.819148 
L 213.714286 304.248938 
L 226.285714 306.813212 
L 238.857143 300.397166 
L 251.428571 303.67912 
L 264 310.653363 
L 276.571429 308.303074 
L 289.142857 305.893154 
L 301.714286 309.228993 
L 314.285714 301.934169 
L 326.857143 301.233882 
L 339.428571 313.353126 
L 352 303.916542 
L 364.571429 319.104316 
L 377.142857 310.944149 
L 389.714286 312.374201 
L 402.285714 300.949034 
L 414.857143 303.750346 
L 427.428571 297.282567 
L 440 313.602284 
L 452.571429 302.49799 
L 465.142857 302.07067 
L 477.714286 301.305096 
L 490.285714 309.175576 
L 502.857143 308.534558 
L 515.428571 294.276463 
L 528 312.439467 
L 540.571429 306.44519 
L 553.142857 306.664816 
L 565.714286 303.459506 
L 578.285714 303.869057 
L 590.857143 303.026223 
L 603.428571 311.175584 
L 616 302.046931 
L 628.571429 310.534672 
L 641.142857 305.916898 
L 653.714286 312.338602 
L 666.285714 308.362429 
L 678.857143 306.059359 
L 691.428571 308.012231 
L 704 301.649301 
L 716.571429 306.267114 
L 729.142857 303.495119 
L 741.714286 305.596361 
L 754.285714 308.101265 
L 766.857143 305.151173 
L 779.428571 305.821924 
" clip-path="url(#p4838c82b88)" style="fill: none; stroke: #000000; stroke-width: 1.5; stroke-linecap: square"/>
   </g>
   <g id="line2d_2">
    <path d="M 0 306 
L 12.571429 306 
L 25.142857 302.968849 
L 37.714286 303.378106 
L 50.285714 307.290055 
L 62.857143 310.998706 
L 75.428571 310.265635 
L 88 307.831965 
L 100.571429 306.867705 
L 113.142857 303.469236 
L 125.714286 303.784121 
L 138.285714 302.289635 
L 150.857143 304.037186 
L 163.428571 305.565099 
L 176 305.608722 
L 188.571429 301.976946 
L 201.142857 301.643902 
L 213.714286 304.244585 
L 226.285714 304.247075 
L 238.857143 305.541914 
L 251.428571 302.958724 
L 264 303.312168 
L 276.571429 306.992683 
L 289.142857 307.667358 
L 301.714286 306.789213 
L 314.285714 308.01386 
L 326.857143 304.969374 
L 339.428571 303.090581 
L 352 308.247885 
L 364.571429 306.082683 
L 377.142857 312.613065 
L 389.714286 311.783827 
L 402.285714 312.091725 
L 414.857143 306.504316 
L 427.428571 305.130875 
L 440 301.198183 
L 452.571429 307.401298 
L 465.142857 304.946795 
L 477.714286 303.475264 
L 490.285714 302.371236 
L 502.857143 305.767104 
L 515.428571 307.165729 
L 528 300.700171 
L 540.571429 306.599755 
L 553.142857 306.508436 
L 565.714286 306.594797 
L 578.285714 305.029849 
L 590.857143 304.454476 
L 603.428571 303.72828 
L 616 307.457326 
L 628.571429 304.767278 
L 641.142857 307.647386 
L 653.714286 306.781112 
L 666.285714 309.571276 
L 678.857143 308.976477 
L 691.428571 307.522247 
L 704 307.777016 
L 716.571429 304.694349 
L 729.142857 305.489004 
L 741.714286 304.478242 
L 754.285714 305.03667 
L 766.857143 306.560671 
L 779.428571 305.849625 
" clip-path="url(#p4838c82b88)" style="fill: none; stroke: #000000; stroke-width: 1.5; stroke-linecap: square"/>
   </g>
   <g id="line2d_3">
    <path d="M 0 306 
L 12.571429 306 
L 25.142857 303.336569 
L 37.714286 303.494461 
L 50.285714 306.313473 
L 62.857143 309.217636 
L 75.428571 309.330707 
L 88 308.079457 
L 100.571429 307.401989 
L 113.142857 305.16251 
L 125.714286 304.837842 
L 138.285714 303.630336 
L 150.857143 304.277113 
L 163.428571 305.119624 
L 176 305.281383 
L 188.571429 303.246624 
L 201.142857 302.682684 
L 213.714286 303.895109 
L 226.285714 304.001954 
L 238.857143 304.828931 
L 251.428571 303.518915 
L 264 303.553436 
L 276.571429 305.634286 
L 289.142857 306.419262 
L 301.714286 306.265148 
L 314.285714 307.143761 
L 326.857143 305.615366 
L 339.428571 304.332453 
L 352 306.983619 
L 364.571429 306.081604 
L 377.142857 309.913446 
L 389.714286 310.22978 
L 402.285714 310.870604 
L 414.857143 307.95803 
L 427.428571 306.725061 
L 440 303.94781 
L 452.571429 306.791144 
L 465.142857 305.532309 
L 477.714286 304.508508 
L 490.285714 303.562147 
L 502.857143 305.210051 
L 515.428571 306.182995 
L 528 302.685299 
L 540.571429 305.555288 
L 553.142857 305.807998 
L 565.714286 306.062111 
L 578.285714 305.281831 
L 590.857143 304.859907 
L 603.428571 304.312081 
L 616 306.334234 
L 628.571429 305.076494 
L 641.142857 306.690476 
L 653.714286 306.455071 
L 666.285714 308.18985 
L 678.857143 308.247624 
L 691.428571 307.612171 
L 704 307.72801 
L 716.571429 305.939616 
L 729.142857 306.049317 
L 741.714286 305.29092 
L 754.285714 305.379406 
L 766.857143 306.178279 
L 779.428571 305.879389 
" clip-path="url(#p4838c82b88)" style="fill: none; stroke: #000000; stroke-width: 1.5; stroke-linecap: square"/>
   </g>
   <g id="line2d_4">
    <path d="M 0 306 
L 12.571429 306 
L 25.142857 303.530129 
L 37.714286 303.590932 
L 50.285714 305.857216 
L 62.857143 308.223396 
L 75.428571 308.551245 
L 88 307.845942 
L 100.571429 307.435466 
L 113.142857 305.956468 
L 125.714286 305.595477 
L 138.285714 304.700429 
L 150.857143 304.901114 
L 163.428571 305.295944 
L 176 305.360808 
L 188.571429 304.159673 
L 201.142857 303.679215 
L 213.714286 304.206485 
L 226.285714 304.213552 
L 238.857143 304.643124 
L 251.428571 303.945705 
L 264 303.902146 
L 276.571429 305.000595 
L 289.142857 305.535984 
L 301.714286 305.593713 
L 314.285714 306.179819 
L 326.857143 305.496736 
L 339.428571 304.812084 
L 352 306.181916 
L 364.571429 305.819099 
L 377.142857 307.945823 
L 389.714286 308.425134 
L 402.285714 309.055997 
L 414.857143 307.762991 
L 427.428571 307.126003 
L 440 305.55551 
L 452.571429 306.837831 
L 465.142857 306.13985 
L 477.714286 305.487725 
L 490.285714 304.819623 
L 502.857143 305.514721 
L 515.428571 306.000464 
L 528 304.128117 
L 540.571429 305.457874 
L 553.142857 305.615359 
L 565.714286 305.782047 
L 578.285714 305.411136 
L 590.857143 305.169211 
L 603.428571 304.829302 
L 616 305.841811 
L 628.571429 305.236624 
L 641.142857 306.081936 
L 653.714286 306.059122 
L 666.285714 307.063754 
L 678.857143 307.268952 
L 691.428571 307.075103 
L 704 307.225527 
L 716.571429 306.333559 
L 729.142857 306.325691 
L 741.714286 305.876739 
L 754.285714 305.827289 
L 766.857143 306.191703 
L 779.428571 306.01744 
" clip-path="url(#p4838c82b88)" style="fill: none; stroke: #000000; stroke-width: 1.5; stroke-linecap: square"/>
   </g>
   <g id="line2d_5">
    <path d="M 0 306 
L 12.571429 306 
L 25.142857 303.628182 
L 37.714286 303.648804 
L 50.285714 305.650546 
L 62.857143 307.734012 
L 75.428571 308.10692 
L 88 307.619478 
L 100.571429 307.335882 
L 113.142857 306.22589 
L 125.714286 305.919822 
L 138.285714 305.229094 
L 150.857143 305.302919 
L 163.428571 305.526311 
L 176 305.542998 
L 188.571429 304.724814 
L 201.142857 304.34898 
L 213.714286 304.614968 
L 226.285714 304.576503 
L 238.857143 304.80647 
L 251.428571 304.361879 
L 264 304.294249 
L 276.571429 304.914207 
L 289.142857 305.239862 
L 301.714286 305.301828 
L 314.285714 305.669975 
L 326.857143 305.323478 
L 339.428571 304.94782 
L 352 305.713191 
L 364.571429 305.550921 
L 377.142857 306.766835 
L 389.714286 307.138928 
L 402.285714 307.602474 
L 414.857143 307.016662 
L 427.428571 306.730531 
L 440 305.906479 
L 452.571429 306.574868 
L 465.142857 306.222199 
L 477.714286 305.864322 
L 490.285714 305.472543 
L 502.857143 305.789803 
L 515.428571 306.024332 
L 528 305.022507 
L 540.571429 305.653363 
L 553.142857 305.720566 
L 565.714286 305.800556 
L 578.285714 305.602575 
L 590.857143 305.456204 
L 603.428571 305.251317 
L 616 305.750195 
L 628.571429 305.438729 
L 641.142857 305.866857 
L 653.714286 305.871056 
L 666.285714 306.413406 
L 678.857143 306.576688 
L 691.428571 306.533383 
L 704 306.65709 
L 716.571429 306.238441 
L 729.142857 306.240836 
L 741.714286 306.011567 
L 754.285714 305.976915 
L 766.857143 306.154128 
L 779.428571 306.070498 
" clip-path="url(#p4838c82b88)" style="fill: none; stroke: #000000; stroke-width: 1.5; stroke-linecap: square"/>
   </g>
   <g id="line2d_6">
    <path d="M 0 306 
L 12.571429 306 
L 25.142857 303.67737 
L 37.714286 303.680043 
L 50.285714 305.554121 
L 62.857143 307.496429 
L 75.428571 307.87782 
L 88 307.482085 
L 100.571429 307.254666 
L 113.142857 306.314372 
L 125.714286 306.045974 
L 138.285714 305.459929 
L 150.857143 305.495925 
L 163.428571 305.656013 
L 176 305.657093 
L 188.571429 305.010788 
L 201.142857 304.698556 
L 213.714286 304.871053 
L 226.285714 304.822344 
L 238.857143 304.972817 
L 251.428571 304.638047 
L 264 304.56999 
L 276.571429 304.98976 
L 289.142857 305.212455 
L 301.714286 305.257098 
L 314.285714 305.511695 
L 326.857143 305.287239 
L 339.428571 305.037993 
L 352 305.539763 
L 364.571429 305.443551 
L 377.142857 306.240269 
L 389.714286 306.510182 
L 402.285714 306.841719 
L 414.857143 306.51323 
L 427.428571 306.361249 
L 440 305.867948 
L 452.571429 306.283226 
L 465.142857 306.082287 
L 477.714286 305.871579 
L 490.285714 305.634125 
L 502.857143 305.816518 
L 515.428571 305.95524 
L 528 305.364015 
L 540.571429 305.71916 
L 553.142857 305.755316 
L 565.714286 305.800276 
L 578.285714 305.685369 
L 590.857143 305.596801 
L 603.428571 305.472244 
L 616 305.74695 
L 628.571429 305.569761 
L 641.142857 305.806227 
L 653.714286 305.81147 
L 666.285714 306.119214 
L 678.857143 306.224466 
L 691.428571 306.216754 
L 704 306.300258 
L 716.571429 306.084826 
L 729.142857 306.093236 
L 741.714286 305.973813 
L 754.285714 305.956525 
L 766.857143 306.054425 
L 779.428571 306.013329 
" clip-path="url(#p4838c82b88)" style="fill: none; stroke: #000000; stroke-width: 1.5; stroke-linecap: square"/>
   </g>
   <g id="line2d_7">
    <path d="M 0 306 
L 12.571429 306 
L 25.142857 303.701984 
L 37.714286 303.696218 
L 50.285714 305.507803 
L 62.857143 307.380054 
L 75.428571 307.762545 
L 88 307.40822 
L 100.571429 307.206573 
L 113.142857 306.346089 
L 125.714286 306.097714 
L 138.285714 305.562889 
L 150.857143 305.585471 
L 163.428571 305.719618 
L 176 305.715356 
L 188.571429 305.148167 
L 201.142857 304.868723 
L 213.714286 305.004396 
L 226.285714 304.954258 
L 238.857143 305.072324 
L 251.428571 304.78735 
L 264 304.722373 
L 276.571429 305.057653 
L 289.142857 305.234889 
L 301.714286 305.269683 
L 314.285714 305.472587 
L 326.857143 305.296496 
L 339.428571 305.099884 
L 352 305.488847 
L 364.571429 305.416614 
L 377.142857 306.030745 
L 389.714286 306.246046 
L 402.285714 306.508713 
L 414.857143 306.275427 
L 427.428571 306.171613 
L 440 305.813119 
L 452.571429 306.12141 
L 465.142857 305.980575 
L 477.714286 305.831207 
L 490.285714 305.661147 
L 502.857143 305.791091 
L 515.428571 305.890976 
L 528 305.474158 
L 540.571429 305.72048 
L 553.142857 305.745753 
L 565.714286 305.777379 
L 578.285714 305.698639 
L 590.857143 305.637257 
L 603.428571 305.550706 
L 616 305.735011 
L 628.571429 305.615525 
L 641.142857 305.773167 
L 653.714286 305.777725 
L 666.285714 305.983669 
L 678.857143 306.057592 
L 691.428571 306.057646 
L 704 306.11725 
L 716.571429 305.982221 
L 729.142857 305.990755 
L 741.714286 305.916625 
L 754.285714 305.90719 
L 766.857143 305.971312 
L 779.428571 305.947529 
" clip-path="url(#p4838c82b88)" style="fill: none; stroke: #000000; stroke-width: 1.5; stroke-linecap: square"/>
   </g>
   <g id="line2d_8">
    <path d="M 0 306 
L 12.571429 306 
L 25.142857 303.714294 
L 37.714286 303.704442 
L 50.285714 305.485137 
L 62.857143 307.322546 
L 75.428571 307.704858 
L 88 307.370129 
L 100.571429 307.180747 
L 113.142857 306.358773 
L 125.714286 306.120538 
L 138.285714 305.610824 
L 150.857143 305.627909 
L 163.428571 305.750445 
L 176 305.744101 
L 188.571429 305.21453 
L 201.142857 304.951429 
L 213.714286 305.07107 
L 226.285714 305.02107 
L 238.857143 305.124867 
L 251.428571 304.863344 
L 264 304.800635 
L 276.571429 305.098021 
L 289.142857 305.254599 
L 301.714286 305.28465 
L 314.285714 305.463779 
L 326.857143 305.308846 
L 339.428571 305.135704 
L 352 305.474149 
L 364.571429 305.4119 
L 377.142857 305.943896 
L 389.714286 306.132775 
L 402.285714 306.362356 
L 414.857143 306.168295 
L 427.428571 306.083741 
L 440 305.783164 
L 452.571429 306.044086 
L 465.142857 305.928386 
L 477.714286 305.805209 
L 490.285714 305.664494 
L 502.857143 305.772073 
L 515.428571 305.855065 
L 528 305.513629 
L 540.571429 305.71404 
L 553.142857 305.734817 
L 565.714286 305.760787 
L 578.285714 305.697608 
L 590.857143 305.648231 
L 603.428571 305.578558 
L 616 305.724979 
L 628.571429 305.63022 
L 641.142857 305.75471 
L 653.714286 305.758767 
L 666.285714 305.921078 
L 678.857143 305.980469 
L 691.428571 305.982363 
L 704 306.030447 
L 716.571429 305.927983 
L 729.142857 305.935815 
L 741.714286 305.880133 
L 754.285714 305.873736 
L 766.857143 305.923366 
L 779.428571 305.906357 
" clip-path="url(#p4838c82b88)" style="fill: none; stroke: #000000; stroke-width: 1.5; stroke-linecap: square"/>
   </g>
   <g id="line2d_9">
    <path d="M 0 306 
L 12.571429 306 
L 25.142857 303.720449 
L 37.714286 303.708587 
L 50.285714 305.473928 
L 62.857143 307.293972 
L 75.428571 307.676018 
L 88 307.350813 
L 100.571429 307.167404 
L 113.142857 306.364322 
L 125.714286 306.13117 
L 138.285714 305.63386 
L 150.857143 305.648475 
L 163.428571 305.765532 
L 176 305.758288 
L 188.571429 305.247014 
L 201.142857 304.992035 
L 213.714286 305.104231 
L 226.285714 305.054495 
L 238.857143 305.151639 
L 251.428571 304.901457 
L 264 304.840044 
L 276.571429 305.119595 
L 289.142857 305.266409 
L 301.714286 305.294182 
L 314.285714 305.462018 
L 326.857143 305.316939 
L 339.428571 305.154815 
L 352 305.469571 
L 364.571429 305.411858 
L 377.142857 305.905302 
L 389.714286 306.081408 
L 402.285714 306.295041 
L 414.857143 306.118598 
L 427.428571 306.042539 
L 440 305.768456 
L 452.571429 306.007362 
L 465.142857 305.902974 
L 477.714286 305.791687 
L 490.285714 305.664405 
L 502.857143 305.761774 
L 515.428571 305.836985 
L 528 305.529928 
L 540.571429 305.709586 
L 553.142857 305.728324 
L 565.714286 305.75171 
L 578.285714 305.695567 
L 590.857143 305.651668 
L 603.428571 305.589721 
L 616 305.719171 
L 628.571429 305.635557 
L 641.142857 305.745203 
L 653.714286 305.748981 
L 666.285714 305.891641 
L 678.857143 305.94427 
L 691.428571 305.946683 
L 704 305.989328 
L 716.571429 305.901066 
L 729.142857 305.9084 
L 741.714286 305.860743 
L 754.285714 305.855596 
L 766.857143 305.898709 
L 779.428571 305.884553 
" clip-path="url(#p4838c82b88)" style="fill: none; stroke: #000000; stroke-width: 1.5; stroke-linecap: square"/>
   </g>
  </g>
 </g>
 <defs>
  <clipPath id="p4838c82b88">
   <rect x="0" y="0" width="792" height="612"/>
  </clipPath>
 </defs>
</svg>
