<?xml version="1.0" encoding="utf-8" standalone="no"?>
<!DOCTYPE svg PUBLIC "-//W3C//DTD SVG 1.1//EN"
  "http://www.w3.org/Graphics/SVG/1.1/DTD/svg11.dtd">
<svg xmlns:xlink="http://www.w3.org/1999/xlink" width="792pt" height="612pt" viewBox="0 0 792 612" xmlns="http://www.w3.org/2000/svg" version="1.1">
 <metadata>
  <rdf:RDF xmlns:dc="http://purl.org/dc/elements/1.1/" xmlns:cc="http://creativecommons.org/ns#" xmlns:rdf="http://www.w3.org/1999/02/22-rdf-syntax-ns#">
   <cc:Work>
    <dc:type rdf:resource="http://purl.org/dc/dcmitype/StillImage"/>
    <dc:date>2022-12-19T20:26:55.348209</dc:date>
    <dc:format>image/svg+xml</dc:format>
    <dc:creator>
     <cc:Agent>
      <dc:title>Matplotlib v3.6.2, https://matplotlib.org/</dc:title>
     </cc:Agent>
    </dc:creator>
   </cc:Work>
  </rdf:RDF>
 </metadata>
 <defs>
  <style type="text/css">*{stroke-linejoin: round; stroke-linecap: butt}</style>
 </defs>
 <g id="figure_1">
  <g id="patch_1">
   <path d="M 0 612 
L 792 612 
L 792 0 
L 0 0 
z
" style="fill: #ffffff"/>
  </g>
  <g id="axes_1">
   <g id="line2d_1">
    <path d="M 0 306 
L 41.684211 305.556285 
L 83.368421 311.790959 
L 125.052632 309.713013 
L 166.736842 306.910781 
L 208.421053 303.968281 
L 250.105263 303.734759 
L 291.789474 307.401196 
L 333.473684 303.571294 
L 375.157895 316.271649 
L 416.842105 302.520489 
L 458.526316 306.373655 
L 500.210526 305.953293 
L 541.894737 303.664702 
L 583.578947 311.510814 
L 625.263158 306.116767 
L 666.947368 301.866694 
L 708.631579 306.817368 
L 750.315789 306.560482 
" clip-path="url(#p5b3399d8ee)" style="fill: none; stroke: #000000; stroke-width: 1.5; stroke-linecap: square"/>
   </g>
   <g id="line2d_2">
    <path d="M 0 306 
L 41.684211 306 
L 83.368421 305.70419 
L 125.052632 309.182624 
L 166.736842 309.465501 
L 208.421053 308.146974 
L 250.105263 306.024465 
L 291.789474 304.870582 
L 333.473684 306.140853 
L 375.157895 304.851291 
L 416.842105 310.584073 
L 458.526316 306.534198 
L 500.210526 306.447378 
L 541.894737 306.198458 
L 583.578947 304.930967 
L 625.263158 308.236395 
L 666.947368 307.174077 
L 708.631579 304.516931 
L 750.315789 305.6486 
" clip-path="url(#p5b3399d8ee)" style="fill: none; stroke: #000000; stroke-width: 1.5; stroke-linecap: square"/>
   </g>
   <g id="line2d_3">
    <path d="M 0 306 
L 41.684211 306 
L 83.368421 305.740078 
L 125.052632 308.481881 
L 166.736842 308.96268 
L 208.421053 308.232659 
L 250.105263 306.805237 
L 291.789474 305.818706 
L 333.473684 306.313109 
L 375.157895 305.472904 
L 416.842105 308.738905 
L 458.526316 306.876421 
L 500.210526 306.726827 
L 541.894737 306.497734 
L 583.578947 305.661412 
L 625.263158 307.384345 
L 666.947368 307.011627 
L 708.631579 305.499893 
L 750.315789 305.887221 
" clip-path="url(#p5b3399d8ee)" style="fill: none; stroke: #000000; stroke-width: 1.5; stroke-linecap: square"/>
   </g>
   <g id="line2d_4">
    <path d="M 0 306 
L 41.684211 306 
L 83.368421 305.758968 
L 125.052632 308.126546 
L 166.736842 308.631387 
L 208.421053 308.159044 
L 250.105263 307.127627 
L 291.789474 306.359415 
L 333.473684 306.580418 
L 375.157895 305.974208 
L 416.842105 307.965103 
L 458.526316 306.947583 
L 500.210526 306.843224 
L 541.894737 306.685002 
L 583.578947 306.157863 
L 625.263158 307.078018 
L 666.947368 306.914885 
L 708.631579 306.067106 
L 750.315789 306.191995 
" clip-path="url(#p5b3399d8ee)" style="fill: none; stroke: #000000; stroke-width: 1.5; stroke-linecap: square"/>
   </g>
   <g id="line2d_5">
    <path d="M 0 306 
L 41.684211 306 
L 83.368421 305.768537 
L 125.052632 307.95246 
L 166.736842 308.451359 
L 208.421053 308.08769 
L 250.105263 307.244345 
L 291.789474 306.603806 
L 333.473684 306.736167 
L 375.157895 306.251077 
L 416.842105 307.68663 
L 458.526316 306.988809 
L 500.210526 306.909831 
L 541.894737 306.792356 
L 583.578947 306.422944 
L 625.263158 307.003553 
L 666.947368 306.905421 
L 708.631579 306.362815 
L 750.315789 306.410583 
" clip-path="url(#p5b3399d8ee)" style="fill: none; stroke: #000000; stroke-width: 1.5; stroke-linecap: square"/>
   </g>
   <g id="line2d_6">
    <path d="M 0 306 
L 41.684211 306 
L 83.368421 305.773338 
L 125.052632 307.866927 
L 166.736842 308.358877 
L 208.421053 308.043643 
L 250.105263 307.288801 
L 291.789474 306.712778 
L 333.473684 306.812428 
L 375.157895 306.386826 
L 416.842105 307.579279 
L 458.526316 307.013477 
L 500.210526 306.946564 
L 541.894737 306.848769 
L 583.578947 306.55191 
L 625.263158 306.991921 
L 666.947368 306.917714 
L 708.631579 306.506822 
L 750.315789 306.531137 
" clip-path="url(#p5b3399d8ee)" style="fill: none; stroke: #000000; stroke-width: 1.5; stroke-linecap: square"/>
   </g>
   <g id="line2d_7">
    <path d="M 0 306 
L 41.684211 306 
L 83.368421 305.77574 
L 125.052632 307.824612 
L 166.736842 308.312179 
L 208.421053 308.019634 
L 250.105263 307.307334 
L 291.789474 306.763209 
L 333.473684 306.849133 
L 375.157895 306.452582 
L 416.842105 307.533339 
L 458.526316 307.026679 
L 500.210526 306.965547 
L 541.894737 306.877165 
L 583.578947 306.614014 
L 625.263158 306.9923 
L 666.947368 306.928247 
L 708.631579 306.576145 
L 750.315789 306.592154 
" clip-path="url(#p5b3399d8ee)" style="fill: none; stroke: #000000; stroke-width: 1.5; stroke-linecap: square"/>
   </g>
   <g id="line2d_8">
    <path d="M 0 306 
L 41.684211 306 
L 83.368421 305.776941 
L 125.052632 307.803576 
L 166.736842 308.288737 
L 208.421053 308.00715 
L 250.105263 307.315659 
L 291.789474 306.787331 
L 333.473684 306.867004 
L 375.157895 306.484747 
L 416.842105 307.512213 
L 458.526316 307.033442 
L 500.210526 306.975126 
L 541.894737 306.891316 
L 583.578947 306.644267 
L 625.263158 306.993914 
L 666.947368 306.934528 
L 708.631579 306.609882 
L 750.315789 306.6225 
" clip-path="url(#p5b3399d8ee)" style="fill: none; stroke: #000000; stroke-width: 1.5; stroke-linecap: square"/>
   </g>
   <g id="line2d_9">
    <path d="M 0 306 
L 41.684211 306 
L 83.368421 305.777542 
L 125.052632 307.79309 
L 166.736842 308.276996 
L 208.421053 308.000791 
L 250.105263 307.319585 
L 291.789474 306.799109 
L 333.473684 306.875805 
L 375.157895 306.500629 
L 416.842105 307.502097 
L 458.526316 307.036855 
L 500.210526 306.979928 
L 541.894737 306.898365 
L 583.578947 306.659169 
L 625.263158 306.995055 
L 666.947368 306.937905 
L 708.631579 306.626487 
L 750.315789 306.637587 
" clip-path="url(#p5b3399d8ee)" style="fill: none; stroke: #000000; stroke-width: 1.5; stroke-linecap: square"/>
   </g>
  </g>
 </g>
 <defs>
  <clipPath id="p5b3399d8ee">
   <rect x="0" y="0" width="792" height="612"/>
  </clipPath>
 </defs>
</svg>
