<?xml version="1.0" encoding="utf-8" standalone="no"?>
<!DOCTYPE svg PUBLIC "-//W3C//DTD SVG 1.1//EN"
  "http://www.w3.org/Graphics/SVG/1.1/DTD/svg11.dtd">
<svg xmlns:xlink="http://www.w3.org/1999/xlink" width="792pt" height="612pt" viewBox="0 0 792 612" xmlns="http://www.w3.org/2000/svg" version="1.1">
 <metadata>
  <rdf:RDF xmlns:dc="http://purl.org/dc/elements/1.1/" xmlns:cc="http://creativecommons.org/ns#" xmlns:rdf="http://www.w3.org/1999/02/22-rdf-syntax-ns#">
   <cc:Work>
    <dc:type rdf:resource="http://purl.org/dc/dcmitype/StillImage"/>
    <dc:date>2023-01-02T15:37:47.762042</dc:date>
    <dc:format>image/svg+xml</dc:format>
    <dc:creator>
     <cc:Agent>
      <dc:title>Matplotlib v3.6.2, https://matplotlib.org/</dc:title>
     </cc:Agent>
    </dc:creator>
   </cc:Work>
  </rdf:RDF>
 </metadata>
 <defs>
  <style type="text/css">*{stroke-linejoin: round; stroke-linecap: butt}</style>
 </defs>
 <g id="figure_1">
  <g id="patch_1">
   <path d="M 0 612 
L 792 612 
L 792 0 
L 0 0 
z
" style="fill: #ffffff"/>
  </g>
  <g id="axes_1">
   <g id="line2d_1">
    <path d="M 0 459 
L 41.684211 459.061382 
L 83.368421 452.665812 
L 125.052632 453.954628 
L 166.736842 454.838435 
L 208.421053 450.824824 
L 250.105263 449.20497 
L 291.789474 453.62321 
L 333.473684 461.762176 
L 375.157895 462.609243 
L 416.842105 462.069084 
L 458.526316 463.689561 
L 500.210526 460.436332 
L 541.894737 462.732007 
L 583.578947 464.512076 
L 625.263158 464.413865 
L 666.947368 466.783198 
L 708.631579 463.984193 
L 750.315789 464.782155 
" clip-path="url(#p073f1e9a9f)" style="fill: none; stroke: #000000; stroke-width: 1.5; stroke-linecap: square"/>
   </g>
   <g id="line2d_2">
    <path d="M 0 459 
L 41.684211 459 
L 83.368421 459.040921 
L 125.052632 455.432919 
L 166.736842 454.644486 
L 208.421053 454.744589 
L 250.105263 452.753483 
L 291.789474 450.965136 
L 333.473684 452.299329 
L 375.157895 459.269646 
L 416.842105 460.946401 
L 458.526316 461.517901 
L 500.210526 462.616224 
L 541.894737 461.531814 
L 583.578947 462.144572 
L 625.263158 463.345535 
L 666.947368 463.89383 
L 708.631579 465.348359 
L 750.315789 464.668972 
" clip-path="url(#p073f1e9a9f)" style="fill: none; stroke: #000000; stroke-width: 1.5; stroke-linecap: square"/>
   </g>
   <g id="line2d_3">
    <path d="M 0 459 
L 41.684211 459 
L 83.368421 459.035957 
L 125.052632 456.188943 
L 166.736842 455.316367 
L 208.421053 455.146324 
L 250.105263 453.699652 
L 291.789474 452.255396 
L 333.473684 452.682716 
L 375.157895 457.157581 
L 416.842105 459.662762 
L 458.526316 460.383483 
L 500.210526 461.367181 
L 541.894737 461.091496 
L 583.578947 461.575774 
L 625.263158 462.440574 
L 666.947368 463.020804 
L 708.631579 464.131724 
L 750.315789 464.094167 
" clip-path="url(#p073f1e9a9f)" style="fill: none; stroke: #000000; stroke-width: 1.5; stroke-linecap: square"/>
   </g>
   <g id="line2d_4">
    <path d="M 0 459 
L 41.684211 459 
L 83.368421 459.033343 
L 125.052632 456.574695 
L 166.736842 455.740945 
L 208.421053 455.493178 
L 250.105263 454.344097 
L 291.789474 453.180357 
L 333.473684 453.274302 
L 375.157895 456.096924 
L 416.842105 458.750633 
L 458.526316 459.505975 
L 500.210526 460.266687 
L 541.894737 460.296849 
L 583.578947 460.721857 
L 625.263158 461.373314 
L 666.947368 461.889328 
L 708.631579 462.711152 
L 750.315789 462.923062 
" clip-path="url(#p073f1e9a9f)" style="fill: none; stroke: #000000; stroke-width: 1.5; stroke-linecap: square"/>
   </g>
   <g id="line2d_5">
    <path d="M 0 459 
L 41.684211 459 
L 83.368421 459.03202 
L 125.052632 456.764357 
L 166.736842 455.96815 
L 208.421053 455.701459 
L 250.105263 454.702979 
L 291.789474 453.699396 
L 333.473684 453.68675 
L 375.157895 455.771054 
L 416.842105 457.784028 
L 458.526316 459.063978 
L 500.210526 459.657847 
L 541.894737 459.753455 
L 583.578947 460.105253 
L 625.263158 460.608088 
L 666.947368 461.02924 
L 708.631579 461.648839 
L 750.315789 461.894257 
" clip-path="url(#p073f1e9a9f)" style="fill: none; stroke: #000000; stroke-width: 1.5; stroke-linecap: square"/>
   </g>
   <g id="line2d_6">
    <path d="M 0 459 
L 41.684211 459 
L 83.368421 459.031356 
L 125.052632 456.857722 
L 166.736842 456.084101 
L 208.421053 455.812925 
L 250.105263 454.888918 
L 291.789474 453.96756 
L 333.473684 453.917714 
L 375.157895 455.673066 
L 416.842105 457.379919 
L 458.526316 458.590883 
L 500.210526 459.368328 
L 541.894737 459.473482 
L 583.578947 459.777279 
L 625.263158 460.197357 
L 666.947368 460.55489 
L 708.631579 461.061529 
L 750.315789 461.29036 
" clip-path="url(#p073f1e9a9f)" style="fill: none; stroke: #000000; stroke-width: 1.5; stroke-linecap: square"/>
   </g>
   <g id="line2d_7">
    <path d="M 0 459 
L 41.684211 459 
L 83.368421 459.031023 
L 125.052632 456.903957 
L 166.736842 456.142472 
L 208.421053 455.870241 
L 250.105263 454.983063 
L 291.789474 454.102899 
L 333.473684 454.038295 
L 375.157895 455.640932 
L 416.842105 457.201793 
L 458.526316 458.314114 
L 500.210526 459.231787 
L 541.894737 459.336958 
L 583.578947 459.615064 
L 625.263158 459.993324 
L 666.947368 460.316729 
L 708.631579 460.766543 
L 750.315789 460.980088 
" clip-path="url(#p073f1e9a9f)" style="fill: none; stroke: #000000; stroke-width: 1.5; stroke-linecap: square"/>
   </g>
   <g id="line2d_8">
    <path d="M 0 459 
L 41.684211 459 
L 83.368421 459.030857 
L 125.052632 456.926954 
L 166.736842 456.171731 
L 208.421053 455.89926 
L 250.105263 455.030369 
L 291.789474 454.170762 
L 333.473684 454.099695 
L 375.157895 455.629066 
L 416.842105 457.119082 
L 458.526316 458.182556 
L 500.210526 459.166095 
L 541.894737 459.27028 
L 583.578947 459.535328 
L 625.263158 459.892851 
L 666.947368 460.198943 
L 708.631579 460.620713 
L 750.315789 460.825268 
" clip-path="url(#p073f1e9a9f)" style="fill: none; stroke: #000000; stroke-width: 1.5; stroke-linecap: square"/>
   </g>
   <g id="line2d_9">
    <path d="M 0 459 
L 41.684211 459 
L 83.368421 459.030774 
L 125.052632 456.93842 
L 166.736842 456.186376 
L 208.421053 455.913855 
L 250.105263 455.054072 
L 291.789474 454.204726 
L 333.473684 454.13065 
L 375.157895 455.624176 
L 416.842105 457.079349 
L 458.526316 458.11858 
L 500.210526 459.133954 
L 541.894737 459.237424 
L 583.578947 459.495918 
L 625.263158 459.843153 
L 666.947368 460.140571 
L 708.631579 460.54847 
L 750.315789 460.748255 
" clip-path="url(#p073f1e9a9f)" style="fill: none; stroke: #000000; stroke-width: 1.5; stroke-linecap: square"/>
   </g>
  </g>
 </g>
 <defs>
  <clipPath id="p073f1e9a9f">
   <rect x="0" y="0" width="792" height="612"/>
  </clipPath>
 </defs>
</svg>
