<?xml version="1.0" encoding="utf-8" standalone="no"?>
<!DOCTYPE svg PUBLIC "-//W3C//DTD SVG 1.1//EN"
  "http://www.w3.org/Graphics/SVG/1.1/DTD/svg11.dtd">
<svg xmlns:xlink="http://www.w3.org/1999/xlink" width="792pt" height="612pt" viewBox="0 0 792 612" xmlns="http://www.w3.org/2000/svg" version="1.1">
 <metadata>
  <rdf:RDF xmlns:dc="http://purl.org/dc/elements/1.1/" xmlns:cc="http://creativecommons.org/ns#" xmlns:rdf="http://www.w3.org/1999/02/22-rdf-syntax-ns#">
   <cc:Work>
    <dc:type rdf:resource="http://purl.org/dc/dcmitype/StillImage"/>
    <dc:date>2023-01-16T16:10:02.362272</dc:date>
    <dc:format>image/svg+xml</dc:format>
    <dc:creator>
     <cc:Agent>
      <dc:title>Matplotlib v3.6.2, https://matplotlib.org/</dc:title>
     </cc:Agent>
    </dc:creator>
   </cc:Work>
  </rdf:RDF>
 </metadata>
 <defs>
  <style type="text/css">*{stroke-linejoin: round; stroke-linecap: butt}</style>
 </defs>
 <g id="figure_1">
  <g id="patch_1">
   <path d="M 0 612 
L 792 612 
L 792 0 
L 0 0 
z
" style="fill: #ffffff"/>
  </g>
  <g id="axes_1">
   <g id="line2d_1">
    <path d="M 0 306 
L 44 309.307167 
L 88 299.361396 
L 132 310.684969 
L 176 309.632843 
L 220 305.799558 
L 264 310.835264 
L 308 300.288062 
L 352 307.628577 
L 396 299.611835 
L 440 299.286266 
L 484 311.486516 
L 528 296.582194 
L 572 305.824613 
L 616 302.642729 
L 660 303.519583 
L 704 305.423729 
L 748 305.599116 
" clip-path="url(#p249d746ebe)" style="fill: none; stroke: #000000; stroke-width: 1.5; stroke-linecap: square"/>
   </g>
   <g id="line2d_2">
    <path d="M 0 306 
L 44 306 
L 88 308.204826 
L 132 303.15094 
L 176 307.16924 
L 220 308.440816 
L 264 307.099245 
L 308 308.982074 
L 352 304.617745 
L 396 306.126357 
L 440 302.849731 
L 484 301.067683 
L 528 306.278752 
L 572 301.403736 
L 616 303.614099 
L 660 303.112343 
L 704 303.322299 
L 748 304.368672 
" clip-path="url(#p249d746ebe)" style="fill: none; stroke: #000000; stroke-width: 1.5; stroke-linecap: square"/>
   </g>
   <g id="line2d_3">
    <path d="M 0 306 
L 44 306 
L 88 307.937343 
L 132 304.051305 
L 176 306.642038 
L 220 307.706175 
L 264 307.067971 
L 308 308.278461 
L 352 305.781927 
L 396 306.347811 
L 440 304.310983 
L 484 302.805804 
L 528 305.388777 
L 572 302.779809 
L 616 303.678594 
L 660 303.373504 
L 704 303.416457 
L 748 304.003697 
" clip-path="url(#p249d746ebe)" style="fill: none; stroke: #000000; stroke-width: 1.5; stroke-linecap: square"/>
   </g>
   <g id="line2d_4">
    <path d="M 0 306 
L 44 306 
L 88 307.796547 
L 132 304.485668 
L 176 306.458438 
L 220 307.329942 
L 264 306.953287 
L 308 307.832308 
L 352 306.231763 
L 396 306.513159 
L 440 305.17917 
L 484 304.077702 
L 528 305.424953 
L 572 303.852291 
L 616 304.196512 
L 660 303.929441 
L 704 303.859883 
L 748 304.122493 
" clip-path="url(#p249d746ebe)" style="fill: none; stroke: #000000; stroke-width: 1.5; stroke-linecap: square"/>
   </g>
   <g id="line2d_5">
    <path d="M 0 306 
L 44 306 
L 88 307.725224 
L 132 304.692186 
L 176 306.390434 
L 220 307.15589 
L 264 306.878213 
L 308 307.600477 
L 352 306.386577 
L 396 306.576942 
L 440 305.579357 
L 484 304.729184 
L 528 305.596814 
L 572 304.489346 
L 616 304.647053 
L 660 304.418343 
L 704 304.318883 
L 748 304.437854 
" clip-path="url(#p249d746ebe)" style="fill: none; stroke: #000000; stroke-width: 1.5; stroke-linecap: square"/>
   </g>
   <g id="line2d_6">
    <path d="M 0 306 
L 44 306 
L 88 307.689444 
L 132 304.791991 
L 176 306.3624 
L 220 307.074385 
L 264 306.838258 
L 308 307.486128 
L 352 306.444112 
L 396 306.599647 
L 440 305.756882 
L 484 305.033067 
L 528 305.708033 
L 572 304.809231 
L 616 304.903896 
L 660 304.703273 
L 704 304.602902 
L 748 304.669672 
" clip-path="url(#p249d746ebe)" style="fill: none; stroke: #000000; stroke-width: 1.5; stroke-linecap: square"/>
   </g>
   <g id="line2d_7">
    <path d="M 0 306 
L 44 306 
L 88 307.67154 
L 132 304.84094 
L 176 306.349845 
L 220 307.035225 
L 264 306.81797 
L 308 307.42988 
L 352 306.467945 
L 396 306.608358 
L 440 305.838462 
L 484 305.176121 
L 528 305.766921 
L 572 304.964728 
L 616 305.035165 
L 660 304.850358 
L 704 304.752997 
L 748 304.799654 
" clip-path="url(#p249d746ebe)" style="fill: none; stroke: #000000; stroke-width: 1.5; stroke-linecap: square"/>
   </g>
   <g id="line2d_8">
    <path d="M 0 306 
L 44 306 
L 88 307.662586 
L 132 304.865166 
L 176 306.343927 
L 220 307.016066 
L 264 306.807787 
L 308 307.402054 
L 352 306.478656 
L 396 306.612031 
L 440 305.877308 
L 484 305.24505 
L 528 305.79676 
L 572 305.040737 
L 616 305.100755 
L 660 304.924166 
L 704 304.829067 
L 748 304.86716 
" clip-path="url(#p249d746ebe)" style="fill: none; stroke: #000000; stroke-width: 1.5; stroke-linecap: square"/>
   </g>
   <g id="line2d_9">
    <path d="M 0 306 
L 44 306 
L 88 307.658109 
L 132 304.877215 
L 176 306.341057 
L 220 307.006595 
L 264 306.80269 
L 308 307.388223 
L 352 306.483714 
L 396 306.613695 
L 440 305.89623 
L 484 305.278823 
L 528 305.811726 
L 572 305.078232 
L 616 305.133442 
L 660 304.961019 
L 704 304.867222 
L 748 304.901395 
" clip-path="url(#p249d746ebe)" style="fill: none; stroke: #000000; stroke-width: 1.5; stroke-linecap: square"/>
   </g>
  </g>
 </g>
 <defs>
  <clipPath id="p249d746ebe">
   <rect x="0" y="0" width="792" height="612"/>
  </clipPath>
 </defs>
</svg>
