<?xml version="1.0" encoding="utf-8" standalone="no"?>
<!DOCTYPE svg PUBLIC "-//W3C//DTD SVG 1.1//EN"
  "http://www.w3.org/Graphics/SVG/1.1/DTD/svg11.dtd">
<svg xmlns:xlink="http://www.w3.org/1999/xlink" width="792pt" height="612pt" viewBox="0 0 792 612" xmlns="http://www.w3.org/2000/svg" version="1.1">
 <metadata>
  <rdf:RDF xmlns:dc="http://purl.org/dc/elements/1.1/" xmlns:cc="http://creativecommons.org/ns#" xmlns:rdf="http://www.w3.org/1999/02/22-rdf-syntax-ns#">
   <cc:Work>
    <dc:type rdf:resource="http://purl.org/dc/dcmitype/StillImage"/>
    <dc:date>2022-12-26T20:27:45.694249</dc:date>
    <dc:format>image/svg+xml</dc:format>
    <dc:creator>
     <cc:Agent>
      <dc:title>Matplotlib v3.6.2, https://matplotlib.org/</dc:title>
     </cc:Agent>
    </dc:creator>
   </cc:Work>
  </rdf:RDF>
 </metadata>
 <defs>
  <style type="text/css">*{stroke-linejoin: round; stroke-linecap: butt}</style>
 </defs>
 <g id="figure_1">
  <g id="patch_1">
   <path d="M 0 612 
L 792 612 
L 792 0 
L 0 0 
z
" style="fill: #ffffff"/>
  </g>
  <g id="axes_1">
   <g id="line2d_1">
    <path d="M 0 306 
L 3.142857 304.372172 
L 6.285714 304.666562 
L 9.428571 307.333438 
L 12.571429 306.017317 
L 15.714286 305.809508 
L 18.857143 301.688231 
L 22 307.281487 
L 25.142857 308.580244 
L 28.285714 302.623227 
L 31.428571 310.398339 
L 34.571429 303.281226 
L 37.714286 305.238032 
L 40.857143 303.229278 
L 44 309.948168 
L 47.142857 306.796603 
L 50.285714 305.65365 
L 53.428571 314.500698 
L 56.571429 307.593194 
L 59.714286 305.740238 
L 62.857143 304.354855 
L 66 313.704653 
L 69.142857 304.510708 
L 72.285714 318.219644 
L 75.428571 300.943754 
L 78.571429 303.558286 
L 81.714286 307.333438 
L 84.857143 309.930853 
L 88 312.337294 
L 91.142857 305.238032 
L 94.285714 303.852667 
L 97.428571 303.869983 
L 100.571429 312.752724 
L 103.714286 306.34635 
L 106.857143 308.649509 
L 110 307.160266 
L 113.142857 308.961198 
L 116.285714 318.098613 
L 119.428571 307.766364 
L 122.571429 307.506609 
L 125.714286 310.103998 
L 128.857143 307.177583 
L 132 294.212627 
L 135.142857 309.220934 
L 138.285714 312.752724 
L 141.428571 301.722859 
L 144.571429 304.129735 
L 147.714286 308.718774 
L 150.857143 311.973774 
L 154 302.328869 
L 157.142857 303.921933 
L 160.285714 310.623417 
L 163.428571 311.142809 
L 166.571429 301.636289 
L 169.714286 304.562659 
L 172.857143 303.921933 
L 176 302.224979 
L 179.142857 304.909003 
L 182.285714 305.549746 
L 185.428571 303.644868 
L 188.571429 309.913539 
L 191.714286 303.748767 
L 194.857143 303.437072 
L 198 307.714413 
L 201.142857 301.480465 
L 204.285714 307.125632 
L 207.428571 310.415653 
L 210.571429 304.597293 
L 213.714286 306.27708 
L 216.857143 307.090997 
L 220 303.575603 
L 223.142857 306.606111 
L 226.285714 306.242445 
L 229.428571 305.463158 
L 232.571429 308.666826 
L 235.714286 305.86146 
L 238.857143 308.2166 
L 242 308.078067 
L 245.142857 299.212658 
L 248.285714 305.151445 
L 251.428571 303.956567 
L 254.571429 310.502222 
L 257.714286 306.987093 
L 260.857143 313.583506 
L 264 306.017317 
L 267.142857 300.926441 
L 270.285714 311.056246 
L 273.428571 303.073434 
L 276.571429 302.242294 
L 279.714286 295.354044 
L 282.857143 314.258435 
L 286 305.878778 
L 289.142857 301.064944 
L 292.285714 311.64486 
L 295.428571 310.692671 
L 298.571429 300.493633 
L 301.714286 306.502207 
L 304.857143 303.921933 
L 308 302.813698 
L 311.142857 311.90453 
L 314.285714 309.411404 
L 317.428571 311.419807 
L 320.571429 305.047541 
L 323.714286 303.627552 
L 326.857143 305.93073 
L 333.142857 301.722859 
L 339.428571 310.969682 
L 342.571429 302.952223 
L 345.714286 309.826965 
L 348.857143 305.584381 
L 352 304.857051 
L 355.142857 308.510979 
L 358.285714 308.147333 
L 361.428571 317.303174 
L 364.571429 308.2166 
L 370.857143 307.593194 
L 374 311.869908 
L 377.142857 307.904899 
L 380.285714 305.705603 
L 383.428571 305.324619 
L 386.571429 306.432937 
L 389.714286 298.76264 
L 392.857143 308.649509 
L 396 310.277141 
L 399.142857 306.969776 
L 402.285714 306.623429 
L 405.428571 307.593194 
L 408.571429 304.753148 
L 411.714286 304.909003 
L 414.857143 305.636333 
L 418 308.303182 
L 421.142857 305.497793 
L 424.285714 303.93925 
L 427.428571 309.168987 
L 430.571429 306.103905 
L 433.714286 302.848329 
L 436.857143 308.1127 
L 440 300.424386 
L 443.142857 304.476074 
L 446.285714 304.372172 
L 449.428571 305.705603 
L 452.571429 306 
L 455.714286 294.523891 
L 458.857143 309.27288 
L 462 303.385123 
L 465.142857 301.030318 
L 468.285714 305.79219 
L 471.428571 308.788038 
L 474.571429 302.986855 
L 477.714286 297.983838 
L 480.857143 307.229535 
L 484 304.147052 
L 487.142857 307.108314 
L 490.285714 303.333174 
L 493.428571 305.515111 
L 496.571429 301.532406 
L 499.714286 307.402707 
L 502.857143 308.026116 
L 506 310.90043 
L 509.142857 307.298804 
L 512.285714 308.562928 
L 515.428571 312.250743 
L 518.571429 305.72292 
L 521.714286 307.229535 
L 524.857143 303.021486 
L 528 329.539817 
L 531.142857 310.675358 
L 537.428571 306.883189 
L 540.571429 303.7834 
L 543.714286 312.891195 
L 546.857143 314.742951 
L 550 299.160732 
L 553.142857 308.2166 
L 556.285714 299.368441 
L 559.428571 304.008517 
L 562.571429 312.545012 
L 565.714286 311.090871 
L 568.857143 307.922216 
L 572 305.670968 
L 578.285714 306.20781 
L 581.428571 308.961198 
L 584.571429 307.160266 
L 587.714286 307.991483 
L 590.857143 305.982683 
L 594 307.021728 
L 597.142857 302.761751 
L 600.285714 309.428719 
L 603.428571 309.11704 
L 606.571429 301.290015 
L 609.714286 301.844059 
L 612.857143 306.779285 
L 616 313.012354 
L 619.142857 312.233433 
L 622.285714 304.372172 
L 625.428571 305.341936 
L 628.571429 305.809508 
L 631.714286 296.807181 
L 634.857143 307.090997 
L 638 305.601698 
L 641.142857 302.380814 
L 644.285714 309.030461 
L 647.428571 307.887582 
L 650.571429 299.593466 
L 653.714286 303.281226 
L 656.857143 305.79219 
L 660 298.728025 
L 663.142857 305.826825 
L 666.285714 299.420369 
L 669.428571 307.402707 
L 672.571429 306.848555 
L 675.714286 310.225198 
L 678.857143 306.017317 
L 682 302.553966 
L 685.142857 306.27708 
L 688.285714 304.839734 
L 691.428571 308.632193 
L 694.571429 296.789879 
L 697.714286 299.368441 
L 700.857143 309.376773 
L 704 305.670968 
L 707.142857 310.294455 
L 710.285714 308.753406 
L 716.571429 304.493391 
L 719.714286 304.320221 
L 722.857143 307.039045 
L 726 304.199002 
L 729.142857 313.61812 
L 732.285714 303.419756 
L 735.428571 306.27708 
L 738.571429 305.965365 
L 741.714286 304.26827 
L 744.857143 310.086684 
L 748 306.086587 
L 751.142857 302.934907 
L 754.285714 306.606111 
L 757.428571 306.415619 
L 760.571429 304.112418 
L 763.714286 305.238032 
L 766.857143 308.078067 
L 770 312.423844 
L 773.142857 307.194901 
L 776.285714 305.238032 
L 779.428571 308.285866 
L 782.571429 301.41121 
L 785.714286 309.238249 
L 788.857143 308.510979 
L 788.857143 308.510979 
" clip-path="url(#paf0cdf08f2)" style="fill: none; stroke: #000000; stroke-width: 1.5; stroke-linecap: square"/>
   </g>
   <g id="line2d_2">
    <path d="M 0 306 
L 3.142857 306 
L 6.285714 304.914775 
L 9.428571 304.772939 
L 12.571429 306.13854 
L 18.857143 305.940626 
L 22 303.797581 
L 25.142857 305.54635 
L 28.285714 307.068383 
L 31.428571 304.842315 
L 34.571429 307.631699 
L 37.714286 305.44849 
L 40.857143 305.341733 
L 44 304.280426 
L 47.142857 307.130589 
L 50.285714 306.962645 
L 53.428571 306.302411 
L 56.571429 310.425634 
L 59.714286 309.003978 
L 66 305.864177 
L 69.142857 309.805576 
L 72.285714 307.147567 
L 75.428571 312.708195 
L 78.571429 306.817044 
L 81.714286 305.166182 
L 84.857143 306.249304 
L 88 308.098371 
L 91.142857 310.233686 
L 94.285714 307.719371 
L 97.428571 305.78472 
L 100.571429 304.799191 
L 103.714286 308.799582 
L 106.857143 307.578458 
L 110 308.116571 
L 113.142857 307.63299 
L 116.285714 308.290484 
L 119.428571 313.221613 
L 122.571429 310.502018 
L 125.714286 309.011516 
L 128.857143 309.552574 
L 132 308.366744 
L 135.142857 301.258851 
L 138.285714 305.243805 
L 141.428571 309.006151 
L 144.571429 305.332293 
L 147.714286 304.723878 
L 150.857143 306.723734 
L 154 309.352667 
L 157.142857 305.831239 
L 160.285714 304.895624 
L 163.428571 307.762425 
L 166.571429 309.449565 
L 169.714286 305.542683 
L 176 304.478315 
L 179.142857 303.332495 
L 185.428571 304.840956 
L 188.571429 304.229222 
L 191.714286 307.069062 
L 194.857143 305.41304 
L 198 304.422832 
L 201.142857 306.076061 
L 204.285714 303.776677 
L 207.428571 305.455484 
L 210.571429 307.945237 
L 213.714286 306.273141 
L 216.857143 306.26798 
L 220 306.686043 
L 223.142857 305.131072 
L 226.285714 305.866418 
L 229.428571 306.063769 
L 232.571429 305.760204 
L 235.714286 307.210113 
L 238.857143 306.538268 
L 242 307.381247 
L 245.142857 307.731594 
L 248.285714 303.46308 
L 251.428571 304.304398 
L 254.571429 304.126 
L 257.714286 307.324134 
L 260.857143 307.152321 
L 264 310.383537 
L 267.142857 308.196227 
L 270.285714 304.547108 
L 273.428571 307.825106 
L 276.571429 305.445162 
L 279.714286 303.840308 
L 282.857143 299.566245 
L 286 306.927128 
L 289.142857 306.387844 
L 292.285714 303.716511 
L 295.428571 307.701986 
L 298.571429 309.196692 
L 301.714286 304.83987 
L 304.857143 305.679389 
L 308 304.817459 
L 311.142857 303.793111 
L 314.285714 307.860962 
L 317.428571 308.652565 
L 320.571429 310.035827 
L 323.714286 307.530717 
L 326.857143 305.585263 
L 330 305.756876 
L 333.142857 304.795932 
L 336.285714 303.257187 
L 339.428571 304.808223 
L 342.571429 307.8922 
L 345.714286 305.40557 
L 348.857143 307.625723 
L 352 306.608896 
L 355.142857 305.730866 
L 358.285714 307.130114 
L 361.428571 307.651325 
L 364.571429 312.500278 
L 367.714286 310.353255 
L 370.857143 309.156221 
L 374 308.370343 
L 377.142857 310.132584 
L 380.285714 309.024757 
L 383.428571 307.359719 
L 386.571429 306.336638 
L 389.714286 306.363463 
L 392.857143 302.543984 
L 396 305.598099 
L 399.142857 307.942996 
L 405.428571 307.032594 
L 408.571429 307.316596 
L 411.714286 306.033752 
L 414.857143 305.468388 
L 418 305.565841 
L 421.142857 306.933851 
L 424.285714 306.206452 
L 427.428571 305.066896 
L 430.571429 307.122983 
L 433.714286 306.610526 
L 436.857143 304.725644 
L 440 306.425467 
L 443.142857 303.414459 
L 446.285714 303.937756 
L 449.428571 304.152756 
L 452.571429 304.932636 
L 455.714286 305.460102 
L 458.857143 299.967369 
L 462 304.632403 
L 465.142857 303.999485 
L 468.285714 302.516008 
L 471.428571 304.156627 
L 474.571429 306.481018 
L 477.714286 304.728564 
L 480.857143 301.339919 
L 484 304.309491 
L 487.142857 304.21822 
L 490.285714 305.67056 
L 493.428571 304.506362 
L 496.571429 305.01019 
L 499.714286 303.256983 
L 502.857143 305.338473 
L 506 306.702002 
L 509.142857 308.808546 
L 512.285714 308.059867 
L 515.428571 308.314251 
L 518.571429 310.300158 
L 521.714286 308.012059 
L 524.857143 307.631971 
L 528 305.3181 
L 531.142857 317.48913 
L 534.285714 314.082805 
L 537.428571 311.412678 
L 540.571429 309.144813 
L 543.714286 306.447538 
L 546.857143 309.683829 
L 550 312.228545 
L 553.142857 305.686927 
L 556.285714 306.909878 
L 559.428571 303.116554 
L 562.571429 303.553261 
L 565.714286 308.060682 
L 568.857143 309.590192 
L 572 308.74648 
L 575.142857 307.190962 
L 578.285714 306.582818 
L 581.428571 306.391375 
L 584.571429 307.695127 
L 587.714286 307.433877 
L 590.857143 307.703751 
L 594 306.833207 
L 597.142857 306.925702 
L 600.285714 304.837968 
L 603.428571 307.140232 
L 606.571429 308.134363 
L 609.714286 304.696986 
L 612.857143 303.260039 
L 616 305.017253 
L 619.142857 309.029103 
L 622.285714 310.641613 
L 625.428571 307.510208 
L 628.571429 306.418064 
L 631.714286 306.107301 
L 634.857143 301.447399 
L 638 304.279339 
L 641.142857 304.938205 
L 644.285714 303.638621 
L 647.428571 306.328285 
L 650.571429 307.114834 
L 653.714286 303.342478 
L 656.857143 303.306895 
L 660 304.567141 
L 663.142857 301.630789 
L 666.285714 303.729142 
L 669.428571 301.568731 
L 672.571429 304.482389 
L 675.714286 305.66343 
L 678.857143 307.96527 
L 682 306.996669 
L 685.142857 304.768903 
L 688.285714 305.537793 
L 691.428571 305.186827 
L 694.571429 306.927603 
L 697.714286 301.836793 
L 700.857143 300.587865 
L 704 304.980445 
L 707.142857 305.325027 
L 710.285714 307.825038 
L 713.428571 308.294083 
L 716.571429 307.488341 
L 719.714286 305.98275 
L 722.857143 305.16625 
L 726 306.117691 
L 729.142857 305.148186 
L 732.285714 309.399385 
L 735.428571 306.396129 
L 738.571429 306.331749 
L 741.714286 306.147165 
L 744.857143 305.207268 
L 748 307.658388 
L 751.142857 306.870626 
L 754.285714 304.900242 
L 757.428571 305.739423 
L 760.571429 306.083396 
L 763.714286 305.093653 
L 766.857143 305.164416 
L 770 306.628726 
L 773.142857 309.531184 
L 776.285714 308.36525 
L 779.428571 306.806178 
L 782.571429 307.549325 
L 785.714286 304.470301 
L 788.857143 306.864378 
L 788.857143 306.864378 
" clip-path="url(#paf0cdf08f2)" style="fill: none; stroke: #000000; stroke-width: 1.5; stroke-linecap: square"/>
   </g>
   <g id="line2d_3">
    <path d="M 0 306 
L 3.142857 306 
L 6.285714 305.046434 
L 9.428571 304.874321 
L 12.571429 305.834666 
L 18.857143 305.869477 
L 22 304.525997 
L 25.142857 305.386861 
L 28.285714 306.365446 
L 31.428571 305.233979 
L 34.571429 306.780852 
L 37.714286 305.739545 
L 40.857143 305.591014 
L 44 304.893813 
L 47.142857 306.382484 
L 50.285714 306.504252 
L 53.428571 306.254719 
L 56.571429 308.682119 
L 59.714286 308.366547 
L 62.857143 307.595508 
L 66 306.644438 
L 69.142857 308.721803 
L 72.285714 307.49168 
L 75.428571 310.647954 
L 78.571429 307.796985 
L 81.714286 306.556572 
L 84.857143 306.780591 
L 88 307.710966 
L 91.142857 309.074316 
L 97.428571 306.74508 
L 100.571429 305.899613 
L 103.714286 307.915294 
L 106.857143 307.446399 
L 110 307.800002 
L 113.142857 307.61426 
L 116.285714 308.014068 
L 119.428571 310.974246 
L 122.571429 310.0385 
L 125.714286 309.284657 
L 128.857143 309.535163 
L 132 308.848832 
L 135.142857 304.545269 
L 138.285714 305.913951 
L 141.428571 307.917755 
L 144.571429 306.09921 
L 147.714286 305.522676 
L 150.857143 306.464381 
L 154 308.077341 
L 157.142857 306.389008 
L 160.285714 305.660979 
L 163.428571 307.11852 
L 166.571429 308.299815 
L 169.714286 306.329141 
L 176 305.251507 
L 179.142857 304.355966 
L 182.285714 304.51534 
L 185.428571 304.831336 
L 188.571429 304.477418 
L 191.714286 306.066412 
L 198 304.817126 
L 201.142857 305.664569 
L 204.285714 304.426937 
L 207.428571 305.22287 
L 210.571429 306.751347 
L 213.714286 306.113515 
L 216.857143 306.155833 
L 220 306.436003 
L 223.142857 305.597063 
L 226.285714 305.895689 
L 229.428571 306.001866 
L 232.571429 305.844719 
L 235.714286 306.674894 
L 238.857143 306.439191 
L 242 306.957841 
L 245.142857 307.290924 
L 248.285714 304.919685 
L 251.428571 304.984622 
L 254.571429 304.686353 
L 257.714286 306.393749 
L 260.857143 306.563598 
L 264 308.630395 
L 267.142857 307.864767 
L 270.285714 305.825377 
L 273.428571 307.366182 
L 276.571429 306.104788 
L 279.714286 304.968843 
L 282.857143 302.14006 
L 286 305.696318 
L 289.142857 305.749779 
L 292.285714 304.369298 
L 295.428571 306.504534 
L 298.571429 307.744488 
L 301.714286 305.615251 
L 304.857143 305.877958 
L 308 305.297485 
L 311.142857 304.565183 
L 314.285714 306.713104 
L 317.428571 307.507347 
L 320.571429 308.665441 
L 326.857143 306.436361 
L 330 306.292502 
L 333.142857 305.582555 
L 336.285714 304.437607 
L 339.428571 305.00738 
L 342.571429 306.765199 
L 345.714286 305.638391 
L 348.857143 306.864257 
L 352 306.495239 
L 355.142857 306.013534 
L 358.285714 306.750305 
L 361.428571 307.165617 
L 364.571429 310.142303 
L 370.857143 309.093368 
L 374 308.656914 
L 377.142857 309.607537 
L 380.285714 309.111132 
L 383.428571 308.115866 
L 386.571429 307.302481 
L 389.714286 307.047859 
L 392.857143 304.606769 
L 396 305.797417 
L 399.142857 307.110091 
L 405.428571 306.941645 
L 408.571429 307.131427 
L 411.714286 306.430948 
L 414.857143 305.970937 
L 418 305.86997 
L 421.142857 306.583071 
L 424.285714 306.262794 
L 427.428571 305.573125 
L 430.571429 306.627813 
L 433.714286 306.474821 
L 436.857143 305.40977 
L 440 306.203379 
L 443.142857 304.512492 
L 449.428571 304.453678 
L 455.714286 305.16412 
L 458.857143 302.031295 
L 462 304.157399 
L 465.142857 303.929452 
L 468.285714 303.074963 
L 471.428571 303.867908 
L 474.571429 305.312759 
L 477.714286 304.630403 
L 480.857143 302.670408 
L 484 304.006975 
L 487.142857 304.049494 
L 490.285714 304.944235 
L 493.428571 304.475698 
L 496.571429 304.781326 
L 499.714286 303.826416 
L 502.857143 304.875819 
L 506 305.800852 
L 509.142857 307.313415 
L 512.285714 307.306868 
L 515.428571 307.680713 
L 518.571429 309.032301 
L 521.714286 308.062965 
L 524.857143 307.817071 
L 528 306.412504 
L 531.142857 313.234939 
L 534.285714 312.4893 
L 537.428571 311.395432 
L 540.571429 310.073723 
L 543.714286 308.231967 
L 546.857143 309.605299 
L 550 311.125595 
L 553.142857 307.61169 
L 556.285714 307.789084 
L 559.428571 305.309199 
L 562.571429 304.924454 
L 565.714286 307.161322 
L 568.857143 308.311026 
L 572 308.199673 
L 575.142857 307.457258 
L 578.285714 307.018586 
L 581.428571 306.754263 
L 584.571429 307.398709 
L 587.714286 307.327061 
L 590.857143 307.52294 
L 594 307.07434 
L 597.142857 307.052187 
L 600.285714 305.78175 
L 603.428571 306.861758 
L 606.571429 307.52337 
L 609.714286 305.69977 
L 612.857143 304.567908 
L 616 305.208976 
L 619.142857 307.497087 
L 622.285714 308.889459 
L 625.428571 307.564927 
L 628.571429 306.913138 
L 631.714286 306.589436 
L 634.857143 303.709549 
L 638 304.699852 
L 641.142857 304.96125 
L 644.285714 304.201289 
L 647.428571 305.618043 
L 650.571429 306.28867 
L 653.714286 304.316135 
L 656.857143 304.006309 
L 660 304.534544 
L 663.142857 302.829978 
L 666.285714 303.706603 
L 669.428571 302.435414 
L 672.571429 303.884673 
L 675.714286 304.755602 
L 678.857143 306.363293 
L 682 306.262198 
L 685.142857 305.182645 
L 688.285714 305.502261 
L 691.428571 305.307336 
L 694.571429 306.288363 
L 697.714286 303.4915 
L 700.857143 302.273938 
L 704 304.365474 
L 707.142857 304.750585 
L 710.285714 306.379596 
L 713.428571 307.086403 
L 716.571429 306.966992 
L 719.714286 306.248318 
L 722.857143 305.680046 
L 726 306.078308 
L 729.142857 305.520944 
L 732.285714 307.90172 
L 735.428571 306.589977 
L 741.714286 306.343522 
L 744.857143 305.730677 
L 748 307.021865 
L 751.142857 306.755648 
L 754.285714 305.629151 
L 757.428571 305.91637 
L 760.571429 306.058141 
L 763.714286 305.482915 
L 766.857143 305.409539 
L 770 306.195259 
L 773.142857 308.029125 
L 776.285714 307.784968 
L 779.428571 307.040191 
L 782.571429 307.39892 
L 785.714286 305.642759 
L 788.857143 306.699289 
L 788.857143 306.699289 
" clip-path="url(#paf0cdf08f2)" style="fill: none; stroke: #000000; stroke-width: 1.5; stroke-linecap: square"/>
   </g>
   <g id="line2d_4">
    <path d="M 0 306 
L 3.142857 306 
L 6.285714 305.115736 
L 9.428571 304.93945 
L 12.571429 305.701234 
L 18.857143 305.7933 
L 22 304.863778 
L 25.142857 305.376665 
L 28.285714 306.022051 
L 31.428571 305.365138 
L 34.571429 306.305819 
L 37.714286 305.755836 
L 40.857143 305.663775 
L 44 305.23887 
L 47.142857 306.048334 
L 50.285714 306.175323 
L 53.428571 306.087719 
L 56.571429 307.488497 
L 59.714286 307.505798 
L 62.857143 307.215833 
L 66 306.748358 
L 69.142857 307.880381 
L 72.285714 307.334113 
L 75.428571 309.094483 
L 78.571429 307.780402 
L 81.714286 307.101147 
L 84.857143 307.138452 
L 88 307.586256 
L 91.142857 308.347273 
L 94.285714 307.84985 
L 100.571429 306.677281 
L 103.714286 307.648279 
L 106.857143 307.442372 
L 110 307.636921 
L 113.142857 307.560976 
L 116.285714 307.785599 
L 119.428571 309.434985 
L 125.714286 308.908278 
L 128.857143 309.099479 
L 132 308.796552 
L 135.142857 306.465231 
L 138.285714 306.907396 
L 141.428571 307.842253 
L 144.571429 306.867667 
L 147.714286 306.42842 
L 150.857143 306.794033 
L 154 307.622199 
L 157.142857 306.772398 
L 160.285714 306.316585 
L 166.571429 307.667569 
L 169.714286 306.700406 
L 176 305.963429 
L 179.142857 305.369398 
L 182.285714 305.29699 
L 185.428571 305.336092 
L 188.571429 305.063084 
L 191.714286 305.833328 
L 198 305.172129 
L 201.142857 305.579015 
L 204.285714 304.919839 
L 207.428571 305.271273 
L 210.571429 306.090912 
L 213.714286 305.851671 
L 216.857143 305.917681 
L 220 306.097488 
L 223.142857 305.693624 
L 229.428571 305.900143 
L 232.571429 305.829547 
L 235.714286 306.290001 
L 238.857143 306.219723 
L 245.142857 306.784147 
L 248.285714 305.576252 
L 251.428571 305.506438 
L 254.571429 305.254841 
L 257.714286 306.094869 
L 260.857143 306.238738 
L 264 307.409402 
L 267.142857 307.18472 
L 270.285714 306.188494 
L 273.428571 306.967092 
L 279.714286 305.693955 
L 282.857143 304.042216 
L 286 305.673385 
L 289.142857 305.707458 
L 292.285714 304.963232 
L 295.428571 306.031328 
L 298.571429 306.777549 
L 301.714286 305.773157 
L 304.857143 305.892285 
L 308 305.576791 
L 311.142857 305.132413 
L 314.285714 306.214556 
L 317.428571 306.725162 
L 320.571429 307.474878 
L 323.714286 307.089603 
L 326.857143 306.536916 
L 330 306.440275 
L 333.142857 306.024801 
L 336.285714 305.335971 
L 339.428571 305.50256 
L 342.571429 306.374185 
L 345.714286 305.826525 
L 348.857143 306.469664 
L 355.142857 306.095438 
L 358.285714 306.478525 
L 361.428571 306.744767 
L 364.571429 308.42774 
L 370.857143 308.327346 
L 374 308.208381 
L 377.142857 308.796501 
L 380.285714 308.658179 
L 386.571429 307.73266 
L 389.714286 307.526218 
L 392.857143 306.130261 
L 396 306.529223 
L 399.142857 307.12531 
L 408.571429 307.12032 
L 414.857143 306.448443 
L 418 306.316878 
L 421.142857 306.630967 
L 424.285714 306.450956 
L 427.428571 306.051525 
L 430.571429 306.549562 
L 433.714286 306.480072 
L 436.857143 305.902934 
L 440 306.255601 
L 443.142857 305.321157 
L 449.428571 305.0545 
L 455.714286 305.292819 
L 458.857143 303.569907 
L 462 304.477962 
L 465.142857 304.295397 
L 468.285714 303.771383 
L 471.428571 304.091552 
L 474.571429 304.839522 
L 477.714286 304.539204 
L 480.857143 303.489786 
L 484 304.085723 
L 487.142857 304.094746 
L 490.285714 304.574627 
L 493.428571 304.379956 
L 496.571429 304.558605 
L 499.714286 304.071636 
L 506 305.147563 
L 509.142857 306.064993 
L 512.285714 306.262886 
L 515.428571 306.63112 
L 518.571429 307.529476 
L 521.714286 307.24044 
L 524.857143 307.239786 
L 528 306.568057 
L 531.142857 310.242828 
L 534.285714 310.314498 
L 537.428571 310.067054 
L 540.571429 309.559764 
L 543.714286 308.642883 
L 546.857143 309.324166 
L 550 310.193012 
L 553.142857 308.433641 
L 556.285714 308.400492 
L 559.428571 306.966359 
L 562.571429 306.492468 
L 565.714286 307.461314 
L 568.857143 308.045121 
L 572 308.026895 
L 578.285714 307.381168 
L 581.428571 307.199617 
L 584.571429 307.480979 
L 587.714286 307.431833 
L 590.857143 307.521427 
L 594 307.278264 
L 597.142857 307.238388 
L 600.285714 306.526892 
L 603.428571 306.989867 
L 606.571429 307.329 
L 609.714286 306.362127 
L 612.857143 305.639842 
L 616 305.820019 
L 619.142857 306.965013 
L 622.285714 307.807419 
L 625.428571 307.259084 
L 631.714286 306.758342 
L 634.857143 305.165985 
L 638 305.471235 
L 641.142857 305.491192 
L 644.285714 304.995421 
L 647.428571 305.635014 
L 650.571429 305.98913 
L 653.714286 304.971682 
L 656.857143 304.699638 
L 660 304.877474 
L 663.142857 303.89559 
L 666.285714 304.198657 
L 669.428571 303.431014 
L 672.571429 304.062577 
L 675.714286 304.506561 
L 678.857143 305.419119 
L 682 305.514175 
L 685.142857 305.039177 
L 688.285714 305.23558 
L 691.428571 305.170633 
L 694.571429 305.723041 
L 697.714286 304.294932 
L 700.857143 303.508867 
L 704 304.442428 
L 707.142857 304.635741 
L 710.285714 305.541719 
L 713.428571 306.057033 
L 716.571429 306.155349 
L 722.857143 305.631609 
L 726 305.857201 
L 729.142857 305.59266 
L 732.285714 306.87466 
L 735.428571 306.329092 
L 741.714286 306.264063 
L 744.857143 305.9477 
L 748 306.606924 
L 751.142857 306.523013 
L 754.285714 305.954202 
L 760.571429 306.116968 
L 763.714286 305.801393 
L 766.857143 305.711393 
L 770 306.093347 
L 773.142857 307.10383 
L 776.285714 307.118536 
L 779.428571 306.816231 
L 782.571429 307.051475 
L 785.714286 306.153324 
L 788.857143 306.646013 
L 788.857143 306.646013 
" clip-path="url(#paf0cdf08f2)" style="fill: none; stroke: #000000; stroke-width: 1.5; stroke-linecap: square"/>
   </g>
   <g id="line2d_5">
    <path d="M 0 306 
L 3.142857 306 
L 6.285714 305.150842 
L 9.428571 304.975244 
L 12.571429 305.643476 
L 18.857143 305.747651 
L 22 305.006715 
L 25.142857 305.384308 
L 28.285714 305.874161 
L 31.428571 305.408585 
L 34.571429 306.082612 
L 37.714286 305.722939 
L 40.857143 305.663386 
L 44 305.375884 
L 47.142857 305.897623 
L 50.285714 305.997105 
L 53.428571 305.960121 
L 56.571429 306.857861 
L 59.714286 306.933466 
L 62.857143 306.813168 
L 66 306.569664 
L 69.142857 307.265389 
L 72.285714 307.00068 
L 75.428571 308.065415 
L 78.571429 307.397799 
L 81.714286 307.041705 
L 84.857143 307.0685 
L 88 307.329113 
L 91.142857 307.781503 
L 97.428571 307.223846 
L 100.571429 306.926932 
L 103.714286 307.439934 
L 106.857143 307.344137 
L 110 307.457966 
L 113.142857 307.432116 
L 116.285714 307.564388 
L 119.428571 308.472934 
L 125.714286 308.334638 
L 128.857143 308.485828 
L 132 308.374322 
L 135.142857 307.169478 
L 138.285714 307.343594 
L 141.428571 307.801895 
L 144.571429 307.287795 
L 147.714286 307.021147 
L 150.857143 307.164283 
L 154 307.569309 
L 157.142857 307.128576 
L 160.285714 306.859192 
L 166.571429 307.507829 
L 169.714286 307.015928 
L 176 306.568933 
L 179.142857 306.205786 
L 188.571429 305.850841 
L 191.714286 306.189764 
L 198 305.773743 
L 201.142857 305.935444 
L 204.285714 305.5642 
L 207.428571 305.694689 
L 210.571429 306.088407 
L 213.714286 305.963759 
L 220 306.081656 
L 223.142857 305.874274 
L 229.428571 305.959567 
L 232.571429 305.919291 
L 235.714286 306.146767 
L 238.857143 306.123928 
L 245.142857 306.447854 
L 248.285714 305.843776 
L 254.571429 305.633407 
L 257.714286 306.036224 
L 260.857143 306.114945 
L 264 306.737486 
L 267.142857 306.678257 
L 270.285714 306.196682 
L 273.428571 306.602174 
L 279.714286 305.967636 
L 282.857143 305.083725 
L 286 305.847608 
L 289.142857 305.848876 
L 292.285714 305.448124 
L 295.428571 305.964567 
L 298.571429 306.359237 
L 301.714286 305.871267 
L 304.857143 305.921598 
L 311.142857 305.50883 
L 314.285714 306.041252 
L 317.428571 306.32112 
L 320.571429 306.74216 
L 333.142857 306.109243 
L 336.285714 305.747614 
L 339.428571 305.799257 
L 342.571429 306.227837 
L 345.714286 305.956366 
L 348.857143 306.279481 
L 355.142857 306.10527 
L 361.428571 306.461073 
L 364.571429 307.363518 
L 374 307.488024 
L 377.142857 307.854338 
L 380.285714 307.860383 
L 389.714286 307.399602 
L 392.857143 306.679035 
L 396 306.844176 
L 399.142857 307.131344 
L 408.571429 307.121227 
L 414.857143 306.755806 
L 418 306.662686 
L 421.142857 306.799238 
L 424.285714 306.691849 
L 427.428571 306.462525 
L 430.571429 306.688111 
L 433.714286 306.639833 
L 436.857143 306.323251 
L 440 306.472504 
L 443.142857 305.967947 
L 449.428571 305.722564 
L 455.714286 305.745129 
L 458.857143 304.808169 
L 462 305.179472 
L 465.142857 305.027225 
L 468.285714 304.693843 
L 471.428571 304.786585 
L 474.571429 305.117954 
L 477.714286 304.941047 
L 480.857143 304.3621 
L 484 304.603948 
L 487.142857 304.562735 
L 490.285714 304.774405 
L 493.428571 304.655524 
L 496.571429 304.724871 
L 499.714286 304.456907 
L 506 304.979889 
L 509.142857 305.473574 
L 515.428571 305.869147 
L 518.571429 306.39979 
L 521.714286 306.341759 
L 524.857143 306.416151 
L 528 306.134203 
L 531.142857 308.088309 
L 534.285714 308.305266 
L 537.428571 308.343306 
L 540.571429 308.222288 
L 543.714286 307.85155 
L 546.857143 308.273131 
L 550 308.811857 
L 553.142857 308.008711 
L 556.285714 308.027058 
L 559.428571 307.305385 
L 562.571429 307.030412 
L 565.714286 307.486626 
L 568.857143 307.786729 
L 572 307.797968 
L 581.428571 307.373914 
L 584.571429 307.506716 
L 597.142857 307.364648 
L 600.285714 306.980175 
L 606.571429 307.345439 
L 612.857143 306.425112 
L 616 306.455115 
L 622.285714 307.437384 
L 628.571429 307.030309 
L 631.714286 306.927895 
L 634.857143 306.084662 
L 638 306.169565 
L 641.142857 306.121617 
L 644.285714 305.811769 
L 647.428571 306.080398 
L 650.571429 306.231533 
L 653.714286 305.678533 
L 656.857143 305.478676 
L 660 305.508365 
L 663.142857 304.942082 
L 666.285714 305.016307 
L 669.428571 304.551266 
L 675.714286 304.958793 
L 678.857143 305.398259 
L 682 305.452253 
L 685.142857 305.210174 
L 688.285714 305.299416 
L 691.428571 305.260526 
L 694.571429 305.54209 
L 697.714286 304.812626 
L 700.857143 304.36 
L 704 304.777018 
L 707.142857 304.850445 
L 710.285714 305.302098 
L 713.428571 305.589021 
L 716.571429 305.678571 
L 722.857143 305.472858 
L 726 305.602783 
L 729.142857 305.486657 
L 732.285714 306.156469 
L 735.428571 305.926966 
L 741.714286 305.955767 
L 744.857143 305.815867 
L 748 306.169435 
L 751.142857 306.159741 
L 754.285714 305.893313 
L 760.571429 305.992725 
L 766.857143 305.784633 
L 770 305.974001 
L 773.142857 306.510855 
L 776.285714 306.568124 
L 779.428571 306.457501 
L 782.571429 306.609927 
L 785.714286 306.17597 
L 788.857143 306.430813 
L 788.857143 306.430813 
" clip-path="url(#paf0cdf08f2)" style="fill: none; stroke: #000000; stroke-width: 1.5; stroke-linecap: square"/>
   </g>
   <g id="line2d_6">
    <path d="M 0 306 
L 3.142857 306 
L 6.285714 305.168453 
L 9.428571 304.993857 
L 12.571429 305.617291 
L 18.857143 305.723847 
L 22 305.069731 
L 28.285714 305.808822 
L 31.428571 305.424659 
L 34.571429 305.980967 
L 37.714286 305.698618 
L 40.857143 305.653269 
L 44 305.42727 
L 47.142857 305.82839 
L 53.428571 305.889596 
L 56.571429 306.563975 
L 59.714286 306.641766 
L 66 306.41819 
L 69.142857 306.921064 
L 72.285714 306.75906 
L 75.428571 307.51111 
L 78.571429 307.090133 
L 81.714286 306.868556 
L 84.857143 306.89714 
L 88 307.080187 
L 91.142857 307.391829 
L 97.428571 307.070433 
L 100.571429 306.889515 
L 103.714286 307.216394 
L 106.857143 307.168536 
L 116.285714 307.33537 
L 119.428571 307.900988 
L 132 307.946855 
L 135.142857 307.257295 
L 138.285714 307.355087 
L 141.428571 307.621958 
L 144.571429 307.332375 
L 147.714286 307.17621 
L 150.857143 307.250954 
L 154 307.478445 
L 160.285714 307.074218 
L 166.571429 307.426273 
L 169.714286 307.154603 
L 176 306.888826 
L 179.142857 306.672803 
L 188.571429 306.410784 
L 191.714286 306.570678 
L 198 306.305976 
L 201.142857 306.369671 
L 204.285714 306.149174 
L 207.428571 306.19309 
L 210.571429 306.382522 
L 216.857143 306.301494 
L 220 306.336662 
L 223.142857 306.213936 
L 242 306.371978 
L 245.142857 306.446863 
L 248.285714 306.129762 
L 254.571429 305.993838 
L 257.714286 306.190632 
L 260.857143 306.225352 
L 264 306.545799 
L 267.142857 306.522815 
L 270.285714 306.279669 
L 273.428571 306.486983 
L 279.714286 306.161537 
L 282.857143 305.693672 
L 286 306.064062 
L 289.142857 306.056058 
L 292.285714 305.840599 
L 298.571429 306.289323 
L 301.714286 306.039679 
L 304.857143 306.059586 
L 311.142857 305.832056 
L 314.285714 306.092968 
L 320.571429 306.457962 
L 333.142857 306.159792 
L 336.285714 305.969826 
L 339.428571 305.987421 
L 342.571429 306.200568 
L 345.714286 306.061661 
L 348.857143 306.222619 
L 358.285714 306.239507 
L 361.428571 306.320952 
L 364.571429 306.78986 
L 383.428571 307.107905 
L 389.714286 307.006418 
L 392.857143 306.655292 
L 402.285714 306.894146 
L 414.857143 306.740352 
L 418 306.693482 
L 421.142857 306.762144 
L 430.571429 306.700574 
L 433.714286 306.675856 
L 436.857143 306.512322 
L 440 306.580977 
L 443.142857 306.319132 
L 452.571429 306.141541 
L 455.714286 306.135597 
L 458.857143 305.639748 
L 462 305.794066 
L 471.428571 305.504703 
L 474.571429 305.64462 
L 477.714286 305.529402 
L 480.857143 305.208926 
L 484 305.295203 
L 487.142857 305.245995 
L 490.285714 305.324482 
L 499.714286 305.092302 
L 506 305.310264 
L 509.142857 305.548043 
L 515.428571 305.746964 
L 518.571429 306.023287 
L 528 305.930593 
L 531.142857 306.936759 
L 537.428571 307.167816 
L 540.571429 307.15536 
L 543.714286 307.010909 
L 550 307.581138 
L 553.142857 307.22251 
L 556.285714 307.264032 
L 559.428571 306.928752 
L 562.571429 306.804958 
L 568.857143 307.220061 
L 575.142857 307.184078 
L 581.428571 307.093491 
L 587.714286 307.173065 
L 594 307.155863 
L 597.142857 307.150721 
L 600.285714 306.964527 
L 606.571429 307.157382 
L 612.857143 306.691527 
L 616 306.695611 
L 622.285714 307.18886 
L 628.571429 306.996119 
L 631.714286 306.945739 
L 634.857143 306.514343 
L 641.142857 306.498768 
L 644.285714 306.323203 
L 650.571429 306.501039 
L 653.714286 306.207217 
L 672.571429 305.57123 
L 675.714286 305.624685 
L 678.857143 305.820932 
L 682 305.829886 
L 685.142857 305.692189 
L 694.571429 305.804844 
L 697.714286 305.420051 
L 700.857143 305.161557 
L 704 305.34175 
L 707.142857 305.35557 
L 713.428571 305.702158 
L 719.714286 305.688772 
L 722.857143 305.629568 
L 726 305.689657 
L 729.142857 305.626552 
L 732.285714 305.966713 
L 735.428571 305.858659 
L 760.571429 305.920051 
L 766.857143 305.815097 
L 770 305.911018 
L 773.142857 306.187926 
L 782.571429 306.276404 
L 785.714286 306.069408 
L 788.857143 306.204412 
L 788.857143 306.204412 
" clip-path="url(#paf0cdf08f2)" style="fill: none; stroke: #000000; stroke-width: 1.5; stroke-linecap: square"/>
   </g>
   <g id="line2d_7">
    <path d="M 0 306 
L 3.142857 306 
L 6.285714 305.177265 
L 9.428571 305.00333 
L 12.571429 305.604918 
L 18.857143 305.711844 
L 22 305.098984 
L 28.285714 305.778524 
L 31.428571 305.431348 
L 34.571429 305.933395 
L 37.714286 305.685106 
L 40.857143 305.646071 
L 44 305.448093 
L 47.142857 305.795708 
L 53.428571 305.853958 
L 56.571429 306.427958 
L 59.714286 306.501966 
L 66 306.332375 
L 69.142857 306.749203 
L 72.285714 306.626957 
L 75.428571 307.240046 
L 78.571429 306.917366 
L 81.714286 306.750209 
L 84.857143 306.778432 
L 91.142857 307.175575 
L 100.571429 306.815042 
L 103.714286 307.064212 
L 110 307.099808 
L 116.285714 307.174455 
L 119.428571 307.591993 
L 132 307.668237 
L 135.142857 307.192259 
L 138.285714 307.263009 
L 141.428571 307.451948 
L 147.714286 307.152399 
L 157.142857 307.197595 
L 160.285714 307.092628 
L 166.571429 307.328207 
L 172.857143 307.071643 
L 188.571429 306.646922 
L 191.714286 306.742393 
L 198 306.562949 
L 201.142857 306.595848 
L 204.285714 306.450726 
L 220 306.533919 
L 226.285714 306.457332 
L 242 306.514468 
L 245.142857 306.555558 
L 248.285714 306.363496 
L 257.714286 306.379566 
L 260.857143 306.395169 
L 264 306.579039 
L 267.142857 306.564733 
L 270.285714 306.421704 
L 273.428571 306.538812 
L 279.714286 306.346033 
L 282.857143 306.071297 
L 286 306.275173 
L 289.142857 306.265339 
L 292.285714 306.136742 
L 298.571429 306.381099 
L 301.714286 306.236906 
L 308 306.186875 
L 311.142857 306.105002 
L 320.571429 306.444519 
L 345.714286 306.206625 
L 352 306.275278 
L 358.285714 306.295127 
L 361.428571 306.338401 
L 364.571429 306.594196 
L 386.571429 306.769436 
L 389.714286 306.761699 
L 392.857143 306.578016 
L 408.571429 306.733026 
L 421.142857 306.662628 
L 455.714286 306.323047 
L 458.857143 306.058922 
L 462 306.130768 
L 471.428571 305.953327 
L 474.571429 306.016469 
L 487.142857 305.767478 
L 493.428571 305.7426 
L 506 305.735149 
L 512.285714 305.881252 
L 524.857143 306.097187 
L 528 306.0295 
L 531.142857 306.547599 
L 537.428571 306.684426 
L 546.857143 306.762497 
L 550 306.937503 
L 553.142857 306.767073 
L 556.285714 306.798821 
L 562.571429 306.578644 
L 568.857143 306.804956 
L 578.285714 306.785379 
L 587.714286 306.827927 
L 597.142857 306.838403 
L 600.285714 306.749629 
L 606.571429 306.8582 
L 612.857143 306.630655 
L 616 306.633886 
L 622.285714 306.891195 
L 647.428571 306.521207 
L 650.571429 306.55082 
L 656.857143 306.332491 
L 660 306.32079 
L 663.142857 306.156361 
L 666.285714 306.149227 
L 669.428571 306.003576 
L 685.142857 306.061549 
L 694.571429 306.095721 
L 700.857143 305.753626 
L 713.428571 305.985887 
L 726 305.956549 
L 729.142857 305.918639 
L 732.285714 306.084725 
L 738.571429 306.032643 
L 770 306.022439 
L 773.142857 306.160297 
L 782.571429 306.207952 
L 785.714286 306.104701 
L 788.857143 306.172143 
L 788.857143 306.172143 
" clip-path="url(#paf0cdf08f2)" style="fill: none; stroke: #000000; stroke-width: 1.5; stroke-linecap: square"/>
   </g>
   <g id="line2d_8">
    <path d="M 0 306 
L 3.142857 306 
L 6.285714 305.181673 
L 9.428571 305.008105 
L 12.571429 305.598916 
L 18.857143 305.705835 
L 22 305.113037 
L 28.285714 305.763986 
L 31.428571 305.434369 
L 34.571429 305.9105 
L 37.714286 305.678102 
L 40.857143 305.642007 
L 44 305.45727 
L 47.142857 305.779906 
L 53.428571 305.836244 
L 56.571429 306.36332 
L 62.857143 306.39615 
L 66 306.288058 
L 69.142857 306.66497 
L 72.285714 306.559727 
L 75.428571 307.108755 
L 78.571429 306.828766 
L 81.714286 306.685215 
L 88 306.845283 
L 91.142857 307.0648 
L 100.571429 306.764694 
L 103.714286 306.979376 
L 113.142857 307.019866 
L 116.285714 307.083206 
L 119.428571 307.435103 
L 132 307.516848 
L 135.142857 307.131756 
L 141.428571 307.346457 
L 147.714286 307.109375 
L 157.142857 307.150774 
L 160.285714 307.068822 
L 166.571429 307.256051 
L 172.857143 307.057973 
L 188.571429 306.726837 
L 191.714286 306.79784 
L 204.285714 306.570812 
L 229.428571 306.555945 
L 238.857143 306.562173 
L 245.142857 306.621715 
L 248.285714 306.482888 
L 257.714286 306.48687 
L 260.857143 306.495957 
L 264 306.623788 
L 276.571429 306.530381 
L 279.714286 306.455707 
L 282.857143 306.26359 
L 286 306.401027 
L 317.428571 306.410122 
L 323.714286 306.467706 
L 339.428571 306.30217 
L 342.571429 306.374741 
L 348.857143 306.375767 
L 361.428571 306.400445 
L 364.571429 306.56471 
L 389.714286 306.680939 
L 392.857143 306.565927 
L 411.714286 306.63952 
L 427.428571 306.572017 
L 433.714286 306.601195 
L 449.428571 306.430113 
L 455.714286 306.414516 
L 458.857143 306.253183 
L 465.142857 306.25479 
L 471.428571 306.179249 
L 477.714286 306.171086 
L 480.857143 306.062087 
L 493.428571 306.029959 
L 512.285714 306.089411 
L 528 306.166999 
L 531.142857 306.467452 
L 540.571429 306.553883 
L 543.714286 306.518624 
L 550 306.702842 
L 553.142857 306.607399 
L 556.285714 306.627722 
L 562.571429 306.504396 
L 572 306.652922 
L 594 306.669878 
L 609.714286 306.624396 
L 616 306.568423 
L 622.285714 306.715344 
L 678.857143 306.292196 
L 694.571429 306.256709 
L 700.857143 306.064407 
L 716.571429 306.184464 
L 729.142857 306.130526 
L 732.285714 306.218231 
L 744.857143 306.161624 
L 751.142857 306.205975 
L 763.714286 306.151872 
L 770 306.163718 
L 776.285714 306.247302 
L 788.857143 306.23836 
L 788.857143 306.23836 
" clip-path="url(#paf0cdf08f2)" style="fill: none; stroke: #000000; stroke-width: 1.5; stroke-linecap: square"/>
   </g>
   <g id="line2d_9">
    <path d="M 0 306 
L 3.142857 306 
L 6.285714 305.183876 
L 9.428571 305.010503 
L 12.571429 305.595962 
L 18.857143 305.702832 
L 22 305.11992 
L 28.285714 305.756871 
L 31.428571 305.435802 
L 34.571429 305.899283 
L 37.714286 305.674549 
L 40.857143 305.639869 
L 44 305.461553 
L 47.142857 305.772146 
L 53.428571 305.827438 
L 56.571429 306.331911 
L 62.857143 306.366784 
L 66 306.265701 
L 69.142857 306.623484 
L 72.285714 306.526049 
L 75.428571 307.04451 
L 78.571429 306.784276 
L 81.714286 306.651618 
L 88 306.803535 
L 91.142857 307.009204 
L 100.571429 306.736607 
L 103.714286 306.935185 
L 113.142857 306.976277 
L 116.285714 307.035319 
L 119.428571 307.356748 
L 132 307.43917 
L 135.142857 307.095161 
L 144.571429 307.152926 
L 147.714286 307.080268 
L 157.142857 307.119819 
L 160.285714 307.048253 
L 166.571429 307.213871 
L 172.857143 307.041967 
L 188.571429 306.754154 
L 191.714286 306.814811 
L 207.428571 306.627391 
L 213.714286 306.657861 
L 279.714286 306.508645 
L 282.857143 306.352422 
L 286 306.462189 
L 317.428571 306.460208 
L 323.714286 306.504683 
L 339.428571 306.371735 
L 345.714286 306.38562 
L 355.142857 306.398352 
L 389.714286 306.659393 
L 396 306.595344 
L 408.571429 306.648976 
L 430.571429 306.605611 
L 455.714286 306.461574 
L 458.857143 306.343538 
L 465.142857 306.343098 
L 471.428571 306.286433 
L 477.714286 306.27862 
L 484 306.208917 
L 506 306.151003 
L 521.714286 306.276711 
L 528 306.255849 
L 531.142857 306.466003 
L 540.571429 306.526954 
L 546.857143 306.559138 
L 550 306.631334 
L 559.428571 306.517156 
L 565.714286 306.547803 
L 575.142857 306.590616 
L 619.142857 306.600583 
L 625.428571 306.628215 
L 660 306.440405 
L 669.428571 306.319982 
L 694.571429 306.336631 
L 700.857143 306.209781 
L 719.714286 306.269342 
L 744.857143 306.261474 
L 757.428571 306.266118 
L 788.857143 306.30156 
L 788.857143 306.30156 
" clip-path="url(#paf0cdf08f2)" style="fill: none; stroke: #000000; stroke-width: 1.5; stroke-linecap: square"/>
   </g>
  </g>
 </g>
 <defs>
  <clipPath id="paf0cdf08f2">
   <rect x="0" y="0" width="792" height="612"/>
  </clipPath>
 </defs>
</svg>
