<?xml version="1.0" encoding="utf-8" standalone="no"?>
<!DOCTYPE svg PUBLIC "-//W3C//DTD SVG 1.1//EN"
  "http://www.w3.org/Graphics/SVG/1.1/DTD/svg11.dtd">
<svg xmlns:xlink="http://www.w3.org/1999/xlink" width="792pt" height="612pt" viewBox="0 0 792 612" xmlns="http://www.w3.org/2000/svg" version="1.1">
 <metadata>
  <rdf:RDF xmlns:dc="http://purl.org/dc/elements/1.1/" xmlns:cc="http://creativecommons.org/ns#" xmlns:rdf="http://www.w3.org/1999/02/22-rdf-syntax-ns#">
   <cc:Work>
    <dc:type rdf:resource="http://purl.org/dc/dcmitype/StillImage"/>
    <dc:date>2023-01-02T15:39:54.430620</dc:date>
    <dc:format>image/svg+xml</dc:format>
    <dc:creator>
     <cc:Agent>
      <dc:title>Matplotlib v3.6.2, https://matplotlib.org/</dc:title>
     </cc:Agent>
    </dc:creator>
   </cc:Work>
  </rdf:RDF>
 </metadata>
 <defs>
  <style type="text/css">*{stroke-linejoin: round; stroke-linecap: butt}</style>
 </defs>
 <g id="figure_1">
  <g id="patch_1">
   <path d="M 0 612 
L 792 612 
L 792 0 
L 0 0 
z
" style="fill: #ffffff"/>
  </g>
  <g id="axes_1">
   <g id="line2d_1">
    <path d="M 0 306 
L 3.155378 301.713457 
L 6.310757 307.273988 
L 9.466135 308.565148 
L 12.621514 302.642984 
L 15.776892 310.372607 
L 18.932271 303.297133 
L 22.087649 305.242491 
L 25.243028 303.245489 
L 28.398406 309.925069 
L 31.553785 306.791942 
L 34.709163 305.655677 
L 37.864542 314.450984 
L 41.01992 307.583872 
L 44.175299 305.741758 
L 47.330677 304.364481 
L 50.486056 313.65959 
L 53.641434 304.519422 
L 56.796813 318.14822 
L 59.952191 300.973334 
L 63.10757 303.572573 
L 66.262948 307.325636 
L 69.418327 309.907855 
L 72.573705 312.300224 
L 75.729084 305.242491 
L 78.884462 303.865231 
L 82.039841 303.882446 
L 85.195219 312.713224 
L 88.350598 306.344323 
L 91.505976 308.634007 
L 94.661355 307.153477 
L 97.816733 308.943872 
L 100.972112 318.027895 
L 104.12749 307.756029 
L 107.282869 307.497794 
L 110.438247 310.079988 
L 113.593625 307.170693 
L 116.749004 294.28153 
L 119.904382 309.202089 
L 123.059761 312.713224 
L 126.215139 301.747883 
L 129.370518 304.140678 
L 132.525896 308.702867 
L 135.681275 311.938829 
L 138.836653 302.350347 
L 141.992032 303.934092 
L 145.14741 310.596369 
L 148.302789 311.112723 
L 151.458167 301.661819 
L 154.613546 304.571069 
L 157.768924 303.934092 
L 160.924303 302.247066 
L 164.079681 304.915387 
L 167.23506 305.55238 
L 170.390438 303.658648 
L 173.545817 309.890642 
L 176.701195 303.761939 
L 179.856574 303.452067 
L 183.011952 307.704382 
L 186.167331 301.506906 
L 189.322709 307.119045 
L 192.478088 310.389819 
L 195.633466 304.605501 
L 198.788845 306.275458 
L 201.944223 307.084613 
L 205.099602 303.589788 
L 208.25498 306.602565 
L 211.410359 306.241026 
L 214.565737 305.4663 
L 217.721116 308.651222 
L 220.876494 305.862271 
L 224.031873 308.20363 
L 227.187251 308.065908 
L 230.342629 299.25236 
L 233.498008 305.15641 
L 236.653386 303.968523 
L 239.808765 310.475882 
L 242.964143 306.981318 
L 246.119522 313.539151 
L 249.2749 306.017216 
L 252.430279 300.956122 
L 255.585657 311.026666 
L 258.741036 303.090557 
L 261.896414 302.264279 
L 265.051793 295.416286 
L 268.207171 314.210137 
L 271.36255 305.879487 
L 274.517928 301.093815 
L 277.673307 311.611838 
L 280.828685 310.665217 
L 283.984064 300.525846 
L 287.139442 306.499268 
L 290.294821 303.934092 
L 293.450199 302.83234 
L 296.605578 311.86999 
L 299.760956 309.391444 
L 302.916335 311.388101 
L 306.071713 305.053114 
L 309.227092 303.641433 
L 312.38247 305.931135 
L 318.693227 301.747883 
L 325.003984 310.940608 
L 328.159363 302.970055 
L 331.314741 309.804575 
L 334.47012 305.586812 
L 337.625498 304.863739 
L 340.780876 308.496288 
L 343.936255 308.134769 
L 347.091633 317.237096 
L 350.247012 308.20363 
L 356.557769 307.583872 
L 359.713147 311.83557 
L 362.868526 307.893753 
L 366.023904 305.707325 
L 369.179283 305.328571 
L 372.334661 306.430404 
L 375.49004 298.804972 
L 378.645418 308.634007 
L 381.800797 310.252117 
L 384.956175 306.964102 
L 388.111554 306.619781 
L 391.266932 307.583872 
L 394.422311 304.760443 
L 397.577689 304.915387 
L 400.733068 305.638461 
L 403.888446 308.289706 
L 407.043825 305.500732 
L 410.199203 303.951308 
L 413.354582 309.150446 
L 416.50996 306.103297 
L 419.665339 302.866769 
L 422.820717 308.100338 
L 425.976096 300.457003 
L 429.131474 304.48499 
L 432.286853 304.381696 
L 435.442231 305.707325 
L 438.59761 306 
L 441.752988 294.590978 
L 444.908367 309.253731 
L 448.063745 303.400423 
L 451.219124 301.059392 
L 454.374502 305.793406 
L 457.52988 308.771726 
L 460.685259 303.004484 
L 463.840637 298.030721 
L 466.996016 307.222341 
L 470.151394 304.157893 
L 473.306773 307.101829 
L 476.462151 303.348778 
L 479.61753 305.517948 
L 482.772908 301.558543 
L 485.928287 307.394499 
L 489.083665 308.014261 
L 492.239044 310.871761 
L 495.394422 307.291204 
L 498.549801 308.547933 
L 501.705179 312.214179 
L 504.860558 305.724542 
L 508.015936 307.222341 
L 511.171315 303.038913 
L 514.326693 329.402619 
L 517.482072 310.648005 
L 523.792829 306.878022 
L 526.948207 303.79637 
L 530.103586 312.850886 
L 533.258964 314.691821 
L 536.414343 299.200737 
L 539.569721 308.20363 
L 542.7251 299.407232 
L 545.880478 304.020169 
L 549.035857 312.506727 
L 552.191235 311.061089 
L 555.346614 307.910969 
L 558.501992 305.672893 
L 564.812749 306.206594 
L 567.968127 308.943872 
L 571.123506 307.153477 
L 574.278884 307.979831 
L 577.434263 305.982784 
L 580.589641 307.01575 
L 583.74502 302.780697 
L 586.900398 309.408658 
L 590.055777 309.098803 
L 593.211155 301.31757 
L 596.366534 301.868373 
L 599.521912 306.774725 
L 602.677291 312.971338 
L 605.832669 312.19697 
L 608.988048 304.381696 
L 612.143426 305.345787 
L 615.298805 305.810622 
L 618.454183 296.860939 
L 621.609562 307.084613 
L 624.76494 305.604029 
L 627.920319 302.401989 
L 631.075697 309.01273 
L 634.231076 307.876538 
L 637.386454 299.630941 
L 640.541833 303.297133 
L 643.697211 305.793406 
L 646.85259 298.770559 
L 650.007968 305.827838 
L 653.163347 299.458856 
L 656.318725 307.394499 
L 659.474104 306.84359 
L 662.629482 310.200479 
L 665.784861 306.017216 
L 668.940239 302.574128 
L 672.095618 306.275458 
L 675.250996 304.846523 
L 678.406375 308.616792 
L 681.561753 296.843738 
L 684.717131 299.407232 
L 687.87251 309.357016 
L 691.027888 305.672893 
L 694.183267 310.26933 
L 697.338645 308.737296 
L 703.649402 304.502206 
L 706.804781 304.330049 
L 709.960159 307.032966 
L 713.115538 304.20954 
L 716.270916 313.573563 
L 719.426295 303.434852 
L 722.581673 306.275458 
L 725.737052 305.965568 
L 728.89243 304.278402 
L 732.047809 310.062775 
L 735.203187 306.086081 
L 738.358566 302.952841 
L 741.513944 306.602565 
L 744.669323 306.413188 
L 747.824701 304.123462 
L 750.98008 305.242491 
L 754.135458 308.065908 
L 757.290837 312.386267 
L 760.446215 307.187909 
L 763.601594 305.242491 
L 766.756972 308.272491 
L 769.912351 301.438056 
L 773.067729 309.219303 
L 776.223108 308.496288 
L 779.378486 305.862271 
L 782.533865 309.322588 
L 785.689243 302.074931 
L 788.844622 307.119045 
L 788.844622 307.119045 
" clip-path="url(#peacedc5de9)" style="fill: none; stroke: #000000; stroke-width: 1.5; stroke-linecap: square"/>
   </g>
   <g id="line2d_2">
    <path d="M 0 306 
L 3.155378 306 
L 6.310757 303.142201 
L 9.466135 305.503191 
L 12.621514 307.136261 
L 15.776892 304.817089 
L 18.932271 307.639072 
L 22.087649 305.450981 
L 25.243028 305.346327 
L 28.398406 304.290487 
L 31.553785 307.123974 
L 34.709163 306.957013 
L 37.864542 306.300641 
L 41.01992 310.399742 
L 44.175299 308.986402 
L 50.486056 305.864971 
L 53.641434 309.783311 
L 56.796813 307.140852 
L 59.952191 312.668956 
L 63.10757 306.812263 
L 66.262948 305.171061 
L 69.418327 306.247845 
L 72.573705 308.086093 
L 75.729084 310.208916 
L 78.884462 307.70931 
L 82.039841 305.78598 
L 85.195219 304.806217 
L 88.350598 308.783202 
L 91.505976 307.569222 
L 94.661355 308.104186 
L 97.816733 307.623435 
L 100.972112 308.277082 
L 104.12749 313.179373 
L 107.282869 310.475679 
L 110.438247 308.993896 
L 113.593625 309.531789 
L 116.749004 308.352896 
L 119.904382 301.286589 
L 123.059761 305.248229 
L 126.215139 308.988563 
L 129.370518 305.3362 
L 132.525896 304.731345 
L 135.681275 306.719499 
L 138.836653 309.333051 
L 141.992032 305.832227 
L 145.14741 304.902086 
L 148.302789 307.752113 
L 151.458167 309.429383 
L 154.613546 305.545359 
L 160.924303 304.487218 
L 164.079681 303.348103 
L 170.390438 304.847738 
L 173.545817 304.239583 
L 176.701195 307.062807 
L 179.856574 305.416474 
L 183.011952 304.432061 
L 186.167331 306.075616 
L 189.322709 303.789686 
L 192.478088 305.458671 
L 195.633466 307.933855 
L 198.788845 306.271543 
L 201.944223 306.266412 
L 205.099602 306.682029 
L 208.25498 305.136156 
L 211.410359 305.867199 
L 214.565737 306.063396 
L 217.721116 305.761607 
L 220.876494 307.203032 
L 224.031873 306.535118 
L 227.187251 307.373165 
L 230.342629 307.721463 
L 233.498008 303.477924 
L 236.653386 304.314319 
L 239.808765 304.136965 
L 242.964143 307.316387 
L 246.119522 307.145578 
L 249.2749 310.357891 
L 252.430279 308.183377 
L 255.585657 304.555609 
L 258.741036 307.814427 
L 261.896414 305.448408 
L 265.051793 303.852944 
L 268.207171 299.60388 
L 271.36255 306.921703 
L 274.517928 306.385574 
L 277.673307 303.729872 
L 280.828685 307.692027 
L 283.984064 309.177989 
L 287.139442 304.846658 
L 290.294821 305.681265 
L 293.450199 304.824378 
L 296.605578 303.806024 
L 299.760956 307.850073 
L 302.916335 308.637045 
L 306.071713 310.012215 
L 309.227092 307.521761 
L 312.38247 305.58769 
L 315.537849 305.758299 
L 318.693227 304.802977 
L 321.848606 303.273235 
L 325.003984 304.815197 
L 328.159363 307.881129 
L 331.314741 305.409048 
L 334.47012 307.616211 
L 337.625498 306.605333 
L 340.780876 305.732441 
L 343.936255 307.123501 
L 347.091633 307.641663 
L 350.247012 312.462255 
L 353.40239 310.327786 
L 356.557769 309.137754 
L 359.713147 308.356474 
L 362.868526 310.108406 
L 366.023904 309.00706 
L 369.179283 307.351763 
L 372.334661 306.334668 
L 375.49004 306.361337 
L 378.645418 302.564204 
L 381.800797 305.60045 
L 384.956175 307.931627 
L 391.266932 307.026552 
L 394.422311 307.308893 
L 397.577689 306.033555 
L 400.733068 305.471498 
L 403.888446 305.568381 
L 407.043825 306.928387 
L 410.199203 306.205244 
L 413.354582 305.072356 
L 416.50996 307.116412 
L 419.665339 306.606953 
L 422.820717 304.733101 
L 425.976096 306.422977 
L 429.131474 303.429587 
L 432.286853 303.949823 
L 435.442231 304.163564 
L 438.59761 304.938881 
L 441.752988 305.463261 
L 444.908367 300.002658 
L 448.063745 304.640405 
L 451.219124 304.01119 
L 454.374502 302.536392 
L 457.52988 304.167412 
L 460.685259 306.478204 
L 463.840637 304.736004 
L 466.996016 301.367182 
L 470.151394 304.319382 
L 473.306773 304.228646 
L 476.462151 305.672488 
L 479.61753 304.515101 
L 482.772908 305.015982 
L 485.928287 303.273033 
L 489.083665 305.342344 
L 492.239044 306.697895 
L 495.394422 308.792113 
L 498.549801 308.047815 
L 501.705179 308.300711 
L 504.860558 310.275 
L 508.015936 308.000287 
L 511.171315 307.622422 
L 514.326693 305.32209 
L 517.482072 317.421967 
L 520.63745 314.035533 
L 523.792829 311.381014 
L 526.948207 309.126413 
L 530.103586 306.444919 
L 533.258964 309.662276 
L 536.414343 312.192111 
L 539.569721 305.688759 
L 542.7251 306.904555 
L 545.880478 303.133425 
L 549.035857 303.567577 
L 552.191235 308.048625 
L 555.346614 309.569187 
L 558.501992 308.73041 
L 561.657371 307.183993 
L 564.812749 306.579407 
L 567.968127 306.389085 
L 571.123506 307.685209 
L 574.278884 307.425488 
L 577.434263 307.693783 
L 580.589641 306.828331 
L 583.74502 306.920285 
L 586.900398 304.844768 
L 590.055777 307.133561 
L 593.211155 308.121874 
L 596.366534 304.70461 
L 599.521912 303.276071 
L 602.677291 305.023003 
L 605.832669 309.01138 
L 608.988048 310.614458 
L 612.143426 307.501372 
L 615.298805 306.415618 
L 618.454183 306.106673 
L 621.609562 301.474033 
L 624.76494 304.289407 
L 627.920319 304.944417 
L 631.075697 303.652437 
L 634.231076 306.326364 
L 637.386454 307.108311 
L 640.541833 303.358027 
L 643.697211 303.322652 
L 646.85259 304.575525 
L 650.007968 301.656351 
L 653.163347 303.742429 
L 656.318725 301.594656 
L 659.474104 304.491269 
L 662.629482 305.665399 
L 665.784861 307.953771 
L 668.940239 306.990837 
L 672.095618 304.776106 
L 675.250996 305.540498 
L 678.406375 305.191585 
L 681.561753 306.922176 
L 684.717131 301.86115 
L 687.87251 300.619526 
L 691.027888 304.986411 
L 694.183267 305.328976 
L 697.338645 307.814359 
L 700.494024 308.28066 
L 703.649402 307.479633 
L 706.804781 305.982851 
L 709.960159 305.171128 
L 713.115538 306.117002 
L 716.270916 305.15317 
L 719.426295 309.379496 
L 722.581673 306.393811 
L 725.737052 306.329807 
L 728.89243 306.146304 
L 732.047809 305.211907 
L 735.203187 307.648684 
L 738.358566 306.865532 
L 741.513944 304.906677 
L 744.669323 305.740948 
L 747.824701 306.082908 
L 750.98008 305.098956 
L 754.135458 305.169306 
L 757.290837 306.625047 
L 760.446215 309.510524 
L 763.601594 308.351411 
L 766.756972 306.801461 
L 769.912351 307.540259 
L 773.067729 304.479252 
L 776.223108 306.85932 
L 779.378486 307.684196 
L 782.533865 306.768919 
L 785.689243 308.039781 
L 788.844622 305.047241 
L 788.844622 305.047241 
" clip-path="url(#peacedc5de9)" style="fill: none; stroke: #000000; stroke-width: 1.5; stroke-linecap: square"/>
   </g>
   <g id="line2d_3">
    <path d="M 0 306 
L 3.155378 306 
L 6.310757 303.488893 
L 9.466135 305.203825 
L 12.621514 306.516525 
L 15.776892 305.138319 
L 18.932271 306.890515 
L 22.087649 305.73597 
L 25.243028 305.581797 
L 28.398406 304.865851 
L 31.553785 306.395523 
L 34.709163 306.514255 
L 37.864542 306.258792 
L 41.01992 308.685604 
L 44.175299 308.360379 
L 47.330677 307.589161 
L 50.486056 306.640975 
L 53.641434 308.705878 
L 56.796813 307.482952 
L 59.952191 310.620762 
L 63.10757 307.786471 
L 66.262948 306.553315 
L 69.418327 306.776024 
L 72.573705 307.700955 
L 75.729084 309.056329 
L 82.039841 306.74072 
L 85.195219 305.9002 
L 88.350598 307.904087 
L 91.505976 307.437936 
L 94.661355 307.78947 
L 97.816733 307.604814 
L 100.972112 308.002284 
L 104.12749 310.945146 
L 107.282869 310.014872 
L 110.438247 309.265439 
L 113.593625 309.51448 
L 116.749004 308.832163 
L 119.904382 304.553781 
L 123.059761 305.914455 
L 126.215139 307.906534 
L 129.370518 306.09863 
L 132.525896 305.525469 
L 135.681275 306.461664 
L 138.836653 308.065186 
L 141.992032 306.386732 
L 145.14741 305.662963 
L 148.302789 307.111975 
L 151.458167 308.286359 
L 154.613546 306.327215 
L 160.924303 305.255886 
L 164.079681 304.365585 
L 167.23506 304.524027 
L 170.390438 304.838174 
L 173.545817 304.486327 
L 176.701195 306.066024 
L 183.011952 304.824047 
L 186.167331 305.666532 
L 189.322709 304.436141 
L 192.478088 305.227417 
L 195.633466 306.74695 
L 198.788845 306.112851 
L 201.944223 306.154921 
L 205.099602 306.433452 
L 208.25498 305.59942 
L 211.410359 305.8963 
L 214.565737 306.001855 
L 217.721116 305.845627 
L 220.876494 306.670945 
L 224.031873 306.436621 
L 227.187251 306.952237 
L 230.342629 307.283371 
L 233.498008 304.926006 
L 236.653386 304.990563 
L 239.808765 304.694039 
L 242.964143 306.391445 
L 246.119522 306.5603 
L 249.2749 308.615005 
L 252.430279 307.853856 
L 255.585657 305.826399 
L 258.741036 307.358188 
L 261.896414 306.104175 
L 265.051793 304.974877 
L 268.207171 302.162644 
L 271.36255 305.698095 
L 274.517928 305.751243 
L 277.673307 304.378839 
L 280.828685 306.501582 
L 283.984064 307.734281 
L 287.139442 305.617502 
L 290.294821 305.878672 
L 293.450199 305.301596 
L 296.605578 304.573578 
L 299.760956 306.708932 
L 302.916335 307.498527 
L 306.071713 308.649845 
L 312.38247 306.433807 
L 315.537849 306.29079 
L 318.693227 305.584998 
L 321.848606 304.446749 
L 325.003984 305.013188 
L 328.159363 306.760722 
L 331.314741 305.640507 
L 334.47012 306.8592 
L 337.625498 306.492341 
L 340.780876 306.013455 
L 343.936255 306.745915 
L 347.091633 307.158797 
L 350.247012 310.118068 
L 356.557769 309.07527 
L 359.713147 308.641368 
L 362.868526 309.58643 
L 366.023904 309.092929 
L 369.179283 308.103485 
L 372.334661 307.29486 
L 375.49004 307.041728 
L 378.645418 304.614921 
L 381.800797 305.798602 
L 384.956175 307.103596 
L 391.266932 306.936136 
L 394.422311 307.124806 
L 397.577689 306.428426 
L 400.733068 305.971107 
L 403.888446 305.870731 
L 407.043825 306.57966 
L 410.199203 306.261257 
L 413.354582 305.575623 
L 416.50996 306.624139 
L 419.665339 306.472043 
L 422.820717 305.413224 
L 425.976096 306.202189 
L 429.131474 304.521195 
L 435.442231 304.462726 
L 441.752988 305.169011 
L 444.908367 302.054515 
L 448.063745 304.168181 
L 451.219124 303.941567 
L 454.374502 303.092077 
L 457.52988 303.880383 
L 460.685259 305.31678 
L 463.840637 304.638417 
L 466.996016 302.689888 
L 470.151394 304.018636 
L 473.306773 304.060907 
L 476.462151 304.950413 
L 479.61753 304.484617 
L 482.772908 304.788456 
L 485.928287 303.839134 
L 489.083665 304.882396 
L 492.239044 305.802017 
L 495.394422 307.30573 
L 498.549801 307.299221 
L 501.705179 307.670879 
L 504.860558 309.014559 
L 508.015936 308.050894 
L 511.171315 307.80644 
L 514.326693 306.410091 
L 517.482072 313.192621 
L 520.63745 312.451341 
L 523.792829 311.363868 
L 526.948207 310.04989 
L 530.103586 308.218908 
L 533.258964 309.584206 
L 536.414343 311.095609 
L 539.569721 307.60226 
L 542.7251 307.778616 
L 545.880478 305.313241 
L 549.035857 304.930747 
L 552.191235 307.154527 
L 555.346614 308.297504 
L 558.501992 308.186802 
L 561.657371 307.448731 
L 564.812749 307.012626 
L 567.968127 306.74985 
L 571.123506 307.390525 
L 574.278884 307.319296 
L 577.434263 307.514029 
L 580.589641 307.068053 
L 583.74502 307.046031 
L 586.900398 305.783028 
L 590.055777 306.856716 
L 593.211155 307.514456 
L 596.366534 305.701527 
L 599.521912 304.576287 
L 602.677291 305.213605 
L 605.832669 307.488328 
L 608.988048 308.872553 
L 612.143426 307.55577 
L 615.298805 306.907795 
L 618.454183 306.585987 
L 621.609562 303.722951 
L 624.76494 304.707459 
L 627.920319 304.967328 
L 631.075697 304.211813 
L 634.231076 305.620278 
L 637.386454 306.286981 
L 640.541833 304.325987 
L 643.697211 304.017974 
L 646.85259 304.543119 
L 650.007968 302.848525 
L 653.163347 303.720022 
L 656.318725 302.456269 
L 659.474104 303.89705 
L 662.629482 304.762883 
L 665.784861 306.361167 
L 668.940239 306.260663 
L 672.095618 305.187427 
L 675.250996 305.505174 
L 678.406375 305.311389 
L 681.561753 306.286675 
L 684.717131 303.506177 
L 687.87251 302.295738 
L 691.027888 304.375038 
L 694.183267 304.757896 
L 697.338645 306.377375 
L 700.494024 307.080046 
L 703.649402 306.961334 
L 706.804781 306.246865 
L 709.960159 305.681918 
L 713.115538 306.077849 
L 716.270916 305.523747 
L 719.426295 307.890593 
L 722.581673 306.586524 
L 728.89243 306.341512 
L 732.047809 305.732253 
L 735.203187 307.015886 
L 738.358566 306.751226 
L 741.513944 305.63132 
L 744.669323 305.916859 
L 747.824701 306.057801 
L 750.98008 305.48594 
L 754.135458 305.412994 
L 757.290837 306.194117 
L 760.446215 308.017252 
L 763.601594 307.774524 
L 766.756972 307.034105 
L 769.912351 307.390735 
L 773.067729 305.644849 
L 776.223108 306.695198 
L 779.378486 307.225642 
L 782.533865 306.828142 
L 785.689243 307.557924 
L 788.844622 305.947332 
L 788.844622 305.947332 
" clip-path="url(#peacedc5de9)" style="fill: none; stroke: #000000; stroke-width: 1.5; stroke-linecap: square"/>
   </g>
   <g id="line2d_4">
    <path d="M 0 306 
L 3.155378 306 
L 6.310757 303.671384 
L 9.466135 305.085256 
L 12.621514 306.192599 
L 15.776892 305.218093 
L 18.932271 306.486794 
L 22.087649 305.764582 
L 25.243028 305.653826 
L 28.398406 305.168644 
L 31.553785 306.087954 
L 34.709163 306.219518 
L 37.864542 306.116993 
L 41.01992 307.599075 
L 44.175299 307.596421 
L 47.330677 307.277649 
L 50.486056 306.783256 
L 53.641434 307.938238 
L 56.796813 307.369152 
L 59.952191 309.151285 
L 63.10757 307.80817 
L 66.262948 307.116089 
L 69.418327 307.150182 
L 72.573705 307.597269 
L 75.729084 308.357513 
L 78.884462 307.855319 
L 85.195219 306.678459 
L 88.350598 307.64633 
L 91.505976 307.437809 
L 94.661355 307.629189 
L 97.816733 307.553149 
L 100.972112 307.775292 
L 104.12749 309.414888 
L 110.438247 308.891262 
L 113.593625 309.081344 
L 116.749004 308.78019 
L 119.904382 306.462509 
L 123.059761 306.902087 
L 126.215139 307.831473 
L 129.370518 306.86259 
L 132.525896 306.425913 
L 135.681275 306.789386 
L 138.836653 307.612707 
L 141.992032 306.767879 
L 145.14741 306.314732 
L 151.458167 307.657812 
L 154.613546 306.696307 
L 160.924303 305.963643 
L 164.079681 305.373088 
L 173.545817 305.068566 
L 176.701195 305.834303 
L 183.011952 305.176973 
L 186.167331 305.581479 
L 189.322709 304.926159 
L 192.478088 305.275537 
L 195.633466 306.09038 
L 198.788845 305.852539 
L 201.944223 305.918162 
L 205.099602 306.096918 
L 208.25498 305.695417 
L 214.565737 305.900727 
L 217.721116 305.830545 
L 220.876494 306.288305 
L 224.031873 306.218437 
L 230.342629 306.779559 
L 233.498008 305.578731 
L 236.653386 305.509326 
L 239.808765 305.259201 
L 242.964143 306.094314 
L 246.119522 306.237341 
L 249.2749 307.401155 
L 252.430279 307.177788 
L 255.585657 306.187391 
L 258.741036 306.961434 
L 265.051793 305.695746 
L 268.207171 304.053671 
L 271.36255 305.675296 
L 274.517928 305.709169 
L 277.673307 304.969298 
L 280.828685 306.031145 
L 283.984064 306.772999 
L 287.139442 305.774484 
L 290.294821 305.892915 
L 293.450199 305.579267 
L 296.605578 305.13749 
L 299.760956 306.2133 
L 302.916335 306.720919 
L 306.071713 307.466249 
L 309.227092 307.083228 
L 312.38247 306.533774 
L 315.537849 306.437699 
L 318.693227 306.024656 
L 321.848606 305.339856 
L 325.003984 305.50547 
L 328.159363 306.371996 
L 331.314741 305.82754 
L 334.47012 306.466916 
L 340.780876 306.09488 
L 343.936255 306.475725 
L 347.091633 306.740409 
L 350.247012 308.413535 
L 356.557769 308.313729 
L 359.713147 308.195459 
L 362.868526 308.780139 
L 366.023904 308.642627 
L 372.334661 307.722522 
L 375.49004 307.517288 
L 378.645418 306.129498 
L 381.800797 306.526126 
L 384.956175 307.118726 
L 394.422311 307.113765 
L 400.733068 306.445819 
L 403.888446 306.315024 
L 407.043825 306.627275 
L 410.199203 306.448318 
L 413.354582 306.051223 
L 416.50996 306.546346 
L 419.665339 306.477263 
L 422.820717 305.903501 
L 425.976096 306.254105 
L 429.131474 305.325129 
L 435.442231 305.060033 
L 441.752988 305.296957 
L 444.908367 303.584126 
L 448.063745 304.486868 
L 451.219124 304.305371 
L 454.374502 303.784422 
L 457.52988 304.102719 
L 460.685259 304.846313 
L 463.840637 304.547752 
L 466.996016 303.504473 
L 470.151394 304.096923 
L 473.306773 304.105894 
L 476.462151 304.582967 
L 479.61753 304.389435 
L 482.772908 304.567039 
L 485.928287 304.082919 
L 492.239044 305.152551 
L 495.394422 306.064613 
L 498.549801 306.261348 
L 501.705179 306.627427 
L 504.860558 307.520527 
L 508.015936 307.233182 
L 511.171315 307.232532 
L 514.326693 306.564733 
L 517.482072 310.218005 
L 520.63745 310.289256 
L 523.792829 310.04326 
L 526.948207 309.538937 
L 530.103586 308.62742 
L 533.258964 309.304717 
L 536.414343 310.168481 
L 539.569721 308.419402 
L 542.7251 308.386447 
L 545.880478 306.960704 
L 549.035857 306.489587 
L 552.191235 307.452763 
L 555.346614 308.033155 
L 558.501992 308.015036 
L 564.812749 307.373087 
L 567.968127 307.192598 
L 571.123506 307.472314 
L 574.278884 307.423455 
L 577.434263 307.512525 
L 580.589641 307.270784 
L 583.74502 307.231142 
L 586.900398 306.523809 
L 590.055777 306.984075 
L 593.211155 307.321224 
L 596.366534 306.360008 
L 599.521912 305.64195 
L 602.677291 305.821072 
L 605.832669 306.959366 
L 608.988048 307.796844 
L 612.143426 307.251717 
L 618.454183 306.753905 
L 621.609562 305.170865 
L 624.76494 305.474329 
L 627.920319 305.494169 
L 631.075697 305.001299 
L 634.231076 305.637149 
L 637.386454 305.989194 
L 640.541833 304.977699 
L 643.697211 304.707247 
L 646.85259 304.884043 
L 650.007968 303.907903 
L 653.163347 304.209197 
L 656.318725 303.446045 
L 659.474104 304.073913 
L 662.629482 304.515299 
L 665.784861 305.422518 
L 668.940239 305.517018 
L 672.095618 305.044799 
L 675.250996 305.240053 
L 678.406375 305.175485 
L 681.561753 305.724662 
L 684.717131 304.304909 
L 687.87251 303.523443 
L 691.027888 304.451542 
L 694.183267 304.643723 
L 697.338645 305.5444 
L 700.494024 306.056699 
L 703.649402 306.15444 
L 709.960159 305.633764 
L 713.115538 305.858037 
L 716.270916 305.595043 
L 719.426295 306.869542 
L 722.581673 306.327167 
L 728.89243 306.262518 
L 732.047809 305.948006 
L 735.203187 306.603373 
L 738.358566 306.519953 
L 741.513944 305.95447 
L 747.824701 306.116283 
L 750.98008 305.802555 
L 754.135458 305.713082 
L 757.290837 306.0928 
L 760.446215 307.097372 
L 763.601594 307.111991 
L 766.756972 306.811455 
L 769.912351 307.045323 
L 773.067729 306.152427 
L 776.223108 306.642233 
L 779.378486 306.939504 
L 782.533865 306.766394 
L 785.689243 307.180898 
L 788.844622 306.370156 
L 788.844622 306.370156 
" clip-path="url(#peacedc5de9)" style="fill: none; stroke: #000000; stroke-width: 1.5; stroke-linecap: square"/>
   </g>
   <g id="line2d_5">
    <path d="M 0 306 
L 3.155378 306 
L 6.310757 303.76383 
L 9.466135 305.036575 
L 12.621514 306.036467 
L 15.776892 305.235353 
L 18.932271 306.287151 
L 22.087649 305.741429 
L 25.243028 305.658609 
L 28.398406 305.288737 
L 31.553785 305.952723 
L 34.709163 306.06608 
L 37.864542 306.013389 
L 41.01992 307.049897 
L 44.175299 307.112966 
L 47.330677 306.956507 
L 50.486056 306.66967 
L 53.641434 307.422523 
L 56.796813 307.117445 
L 59.952191 308.252212 
L 63.10757 307.518346 
L 66.262948 307.127507 
L 69.418327 307.146822 
L 72.573705 307.412159 
L 75.729084 307.875874 
L 82.039841 307.279956 
L 85.195219 306.967898 
L 88.350598 307.49106 
L 91.505976 307.387492 
L 94.661355 307.499257 
L 97.816733 307.46846 
L 100.972112 307.59908 
L 104.12749 308.517755 
L 110.438247 308.36791 
L 113.593625 308.516583 
L 116.749004 308.400165 
L 119.904382 307.182692 
L 123.059761 307.356214 
L 126.215139 307.815245 
L 129.370518 307.296811 
L 132.525896 307.027797 
L 135.681275 307.170257 
L 138.836653 307.575027 
L 141.992032 307.132424 
L 145.14741 306.86195 
L 151.458167 307.509132 
L 154.613546 307.016757 
L 160.924303 306.569382 
L 164.079681 306.206624 
L 173.545817 305.852219 
L 176.701195 306.190049 
L 183.011952 305.775277 
L 186.167331 305.936357 
L 189.322709 305.566661 
L 192.478088 305.696159 
L 195.633466 306.087557 
L 198.788845 305.964025 
L 205.099602 306.081178 
L 208.25498 305.87501 
L 214.565737 305.959803 
L 217.721116 305.919763 
L 220.876494 306.145909 
L 224.031873 306.123203 
L 230.342629 306.445234 
L 233.498008 305.84469 
L 239.808765 305.635552 
L 242.964143 306.036012 
L 246.119522 306.114273 
L 249.2749 306.733171 
L 252.430279 306.674288 
L 255.585657 306.195531 
L 258.741036 306.598651 
L 265.051793 305.967825 
L 268.207171 305.089086 
L 271.36255 305.848499 
L 274.517928 305.84976 
L 277.673307 305.451354 
L 280.828685 305.964774 
L 283.984064 306.357135 
L 287.139442 305.87202 
L 290.294821 305.922057 
L 296.605578 305.511704 
L 299.760956 306.041011 
L 302.916335 306.319241 
L 306.071713 306.737817 
L 318.693227 306.108603 
L 321.848606 305.74909 
L 325.003984 305.800431 
L 328.159363 306.226503 
L 331.314741 305.956621 
L 334.47012 306.277845 
L 340.780876 306.104654 
L 347.091633 306.458375 
L 350.247012 307.355539 
L 359.713147 307.479318 
L 362.868526 307.843488 
L 366.023904 307.849498 
L 375.49004 307.391412 
L 378.645418 306.675061 
L 381.800797 306.839236 
L 384.956175 307.124724 
L 394.422311 307.114667 
L 400.733068 306.751384 
L 403.888446 306.658809 
L 407.043825 306.794561 
L 410.199203 306.687801 
L 413.354582 306.459819 
L 416.50996 306.684085 
L 419.665339 306.636089 
L 422.820717 306.32136 
L 425.976096 306.469739 
L 429.131474 305.968135 
L 435.442231 305.724187 
L 441.752988 305.746621 
L 444.908367 304.815142 
L 448.063745 305.184274 
L 451.219124 305.032917 
L 454.374502 304.701486 
L 457.52988 304.793684 
L 460.685259 305.123115 
L 463.840637 304.947243 
L 466.996016 304.371683 
L 470.151394 304.612116 
L 473.306773 304.571145 
L 476.462151 304.781577 
L 479.61753 304.663391 
L 482.772908 304.732332 
L 485.928287 304.465936 
L 492.239044 304.985858 
L 495.394422 305.476654 
L 501.705179 305.869913 
L 504.860558 306.397451 
L 508.015936 306.339759 
L 511.171315 306.413716 
L 514.326693 306.133418 
L 517.482072 308.07609 
L 520.63745 308.291778 
L 523.792829 308.329595 
L 526.948207 308.209286 
L 530.103586 307.840716 
L 533.258964 308.259831 
L 536.414343 308.795405 
L 539.569721 307.996958 
L 542.7251 308.015198 
L 545.880478 307.297747 
L 549.035857 307.024383 
L 552.191235 307.477928 
L 555.346614 307.776275 
L 558.501992 307.787448 
L 567.968127 307.365875 
L 571.123506 307.497899 
L 583.74502 307.356663 
L 586.900398 306.97444 
L 593.211155 307.337566 
L 599.521912 306.422624 
L 602.677291 306.452452 
L 608.988048 307.428974 
L 615.298805 307.02428 
L 618.454183 306.922465 
L 621.609562 306.084167 
L 624.76494 306.168573 
L 627.920319 306.120906 
L 631.075697 305.81287 
L 634.231076 306.079927 
L 637.386454 306.230178 
L 640.541833 305.680414 
L 643.697211 305.481726 
L 646.85259 305.511242 
L 650.007968 304.948272 
L 653.163347 305.022062 
L 656.318725 304.559743 
L 662.629482 304.964885 
L 665.784861 305.40178 
L 668.940239 305.455458 
L 672.095618 305.214796 
L 675.250996 305.303515 
L 678.406375 305.264853 
L 681.561753 305.544769 
L 684.717131 304.819573 
L 687.87251 304.369596 
L 691.027888 304.784174 
L 694.183267 304.857171 
L 697.338645 305.306182 
L 700.494024 305.591426 
L 703.649402 305.680451 
L 709.960159 305.475942 
L 713.115538 305.605107 
L 716.270916 305.48966 
L 719.426295 306.155553 
L 722.581673 305.927393 
L 728.89243 305.956025 
L 732.047809 305.816945 
L 735.203187 306.168444 
L 738.358566 306.158806 
L 741.513944 305.893937 
L 747.824701 305.992768 
L 754.135458 305.785894 
L 757.290837 305.974153 
L 760.446215 306.507866 
L 763.601594 306.5648 
L 766.756972 306.454824 
L 769.912351 306.606359 
L 773.067729 306.17494 
L 779.378486 306.600099 
L 782.533865 306.538823 
L 785.689243 306.770625 
L 788.844622 306.380655 
L 788.844622 306.380655 
" clip-path="url(#peacedc5de9)" style="fill: none; stroke: #000000; stroke-width: 1.5; stroke-linecap: square"/>
   </g>
   <g id="line2d_6">
    <path d="M 0 306 
L 3.155378 306 
L 6.310757 303.810205 
L 9.466135 305.015145 
L 12.621514 305.961137 
L 15.776892 305.238771 
L 18.932271 306.189733 
L 22.087649 305.720904 
L 25.243028 305.651652 
L 28.398406 305.335688 
L 31.553785 305.889142 
L 34.709163 305.990114 
L 37.864542 305.955139 
L 41.01992 306.791835 
L 44.175299 306.865679 
L 50.486056 306.562333 
L 53.641434 307.139783 
L 56.796813 306.934622 
L 59.952191 307.782633 
L 63.10757 307.284481 
L 66.262948 307.021042 
L 69.418327 307.042059 
L 72.573705 307.234685 
L 75.729084 307.566956 
L 82.039841 307.19508 
L 85.195219 306.9914 
L 88.350598 307.336681 
L 91.505976 307.277864 
L 100.972112 307.435611 
L 104.12749 308.026364 
L 110.438247 307.983589 
L 113.593625 308.096134 
L 116.749004 308.04701 
L 119.904382 307.323743 
L 123.059761 307.421412 
L 126.215139 307.693993 
L 129.370518 307.390519 
L 132.525896 307.226081 
L 135.681275 307.300199 
L 138.836653 307.531232 
L 145.14741 307.111115 
L 151.458167 307.466752 
L 154.613546 307.187167 
L 160.924303 306.912935 
L 164.079681 306.691875 
L 173.545817 306.423141 
L 176.701195 306.584415 
L 183.011952 306.315199 
L 186.167331 306.379052 
L 189.322709 306.155889 
L 192.478088 306.199853 
L 195.633466 306.3905 
L 201.944223 306.307997 
L 205.099602 306.343019 
L 208.25498 306.219192 
L 227.187251 306.376165 
L 230.342629 306.450972 
L 233.498008 306.132835 
L 239.808765 305.996361 
L 242.964143 306.1933 
L 246.119522 306.227888 
L 249.2749 306.548384 
L 252.430279 306.525138 
L 255.585657 306.281727 
L 258.741036 306.488851 
L 265.051793 306.163207 
L 268.207171 305.695628 
L 271.36255 306.065614 
L 274.517928 306.057536 
L 277.673307 305.842317 
L 283.984064 306.290146 
L 287.139442 306.040897 
L 290.294821 306.060699 
L 296.605578 305.833613 
L 299.760956 306.093811 
L 306.071713 306.457626 
L 318.693227 306.160088 
L 321.848606 305.970732 
L 325.003984 305.988232 
L 328.159363 306.200561 
L 331.314741 306.062129 
L 334.47012 306.222429 
L 343.936255 306.239111 
L 347.091633 306.320172 
L 350.247012 306.787036 
L 369.179283 307.103196 
L 375.49004 307.002041 
L 378.645418 306.652527 
L 388.111554 306.890078 
L 400.733068 306.736179 
L 403.888446 306.689457 
L 407.043825 306.757685 
L 416.50996 306.696475 
L 419.665339 306.671901 
L 422.820717 306.509324 
L 425.976096 306.577578 
L 429.131474 306.317265 
L 438.59761 306.140713 
L 441.752988 306.134804 
L 444.908367 305.641856 
L 448.063745 305.795271 
L 457.52988 305.507601 
L 460.685259 305.646699 
L 463.840637 305.532155 
L 466.996016 305.213554 
L 470.151394 305.299327 
L 473.306773 305.250407 
L 476.462151 305.328434 
L 485.928287 305.097614 
L 492.239044 305.3143 
L 495.394422 305.550687 
L 501.705179 305.748445 
L 504.860558 306.023151 
L 514.326693 305.930999 
L 517.482072 306.931277 
L 523.792829 307.160983 
L 526.948207 307.1486 
L 530.103586 307.004994 
L 536.414343 307.571886 
L 539.569721 307.215357 
L 542.7251 307.256636 
L 545.880478 306.923318 
L 549.035857 306.800248 
L 555.346614 307.212923 
L 561.657371 307.17715 
L 567.968127 307.087093 
L 574.278884 307.166201 
L 580.589641 307.1491 
L 583.74502 307.143988 
L 586.900398 306.958884 
L 593.211155 307.15061 
L 599.521912 306.687481 
L 602.677291 306.69154 
L 608.988048 307.181904 
L 615.298805 306.990291 
L 618.454183 306.940205 
L 621.609562 306.511334 
L 627.920319 306.495849 
L 631.075697 306.321312 
L 637.386454 306.498107 
L 640.541833 306.206004 
L 659.474104 305.573739 
L 662.629482 305.626881 
L 665.784861 305.82198 
L 668.940239 305.830881 
L 672.095618 305.69399 
L 681.561753 305.805986 
L 684.717131 305.423445 
L 687.87251 305.166463 
L 691.027888 305.345602 
L 694.183267 305.359341 
L 700.494024 305.703901 
L 706.804781 305.690593 
L 709.960159 305.631736 
L 713.115538 305.691473 
L 716.270916 305.628737 
L 719.426295 305.966908 
L 722.581673 305.859486 
L 747.824701 305.920519 
L 754.135458 305.816179 
L 757.290837 305.911539 
L 760.446215 306.186826 
L 769.912351 306.274787 
L 773.067729 306.069002 
L 779.378486 306.30078 
L 782.533865 306.283363 
L 785.689243 306.412336 
L 788.844622 306.227075 
L 788.844622 306.227075 
" clip-path="url(#peacedc5de9)" style="fill: none; stroke: #000000; stroke-width: 1.5; stroke-linecap: square"/>
   </g>
   <g id="line2d_7">
    <path d="M 0 306 
L 3.155378 306 
L 6.310757 303.833411 
L 9.466135 305.005182 
L 12.621514 305.924309 
L 15.776892 305.239283 
L 18.932271 306.141878 
L 22.087649 305.708597 
L 25.243028 305.645822 
L 28.398406 305.355426 
L 31.553785 305.858224 
L 34.709163 305.952596 
L 37.864542 305.9248 
L 41.01992 306.669425 
L 44.175299 306.744333 
L 50.486056 306.498448 
L 53.641434 306.996692 
L 56.796813 306.832285 
L 59.952191 307.551382 
L 63.10757 307.150446 
L 66.262948 306.940673 
L 69.418327 306.962434 
L 72.573705 307.123295 
L 75.729084 307.396972 
L 85.195219 306.959821 
L 88.350598 307.230973 
L 94.661355 307.254982 
L 100.972112 307.323106 
L 104.12749 307.772493 
L 116.749004 307.826048 
L 119.904382 307.308438 
L 123.059761 307.379585 
L 126.215139 307.576822 
L 132.525896 307.248959 
L 138.836653 307.462152 
L 145.14741 307.172376 
L 151.458167 307.414074 
L 157.768924 307.139609 
L 173.545817 306.687514 
L 176.701195 306.785195 
L 183.011952 306.596719 
L 186.167331 306.629621 
L 189.322709 306.4787 
L 205.099602 306.559996 
L 211.410359 306.479849 
L 227.187251 306.534928 
L 230.342629 306.576231 
L 233.498008 306.379711 
L 239.808765 306.283928 
L 249.2749 306.596545 
L 252.430279 306.581465 
L 255.585657 306.435701 
L 258.741036 306.554133 
L 265.051793 306.357742 
L 268.207171 306.078978 
L 271.36255 306.285279 
L 274.517928 306.275026 
L 277.673307 306.144608 
L 283.984064 306.391246 
L 287.139442 306.245207 
L 293.450199 306.194208 
L 296.605578 306.111353 
L 306.071713 306.453212 
L 331.314741 306.211924 
L 337.625498 306.280635 
L 343.936255 306.300253 
L 347.091633 306.343561 
L 350.247012 306.600283 
L 372.334661 306.774543 
L 375.49004 306.766563 
L 378.645418 306.582235 
L 394.422311 306.736632 
L 407.043825 306.66548 
L 441.752988 306.324632 
L 444.908367 306.060641 
L 448.063745 306.132375 
L 457.52988 305.954998 
L 460.685259 306.018023 
L 473.306773 305.769321 
L 479.61753 305.74447 
L 492.239044 305.737004 
L 498.549801 305.882742 
L 511.171315 306.098025 
L 514.326693 306.030495 
L 517.482072 306.547096 
L 523.792829 306.683398 
L 533.258964 306.76103 
L 536.414343 306.935408 
L 539.569721 306.765462 
L 542.7251 306.79704 
L 549.035857 306.577496 
L 555.346614 306.802909 
L 564.812749 306.783232 
L 574.278884 306.82546 
L 583.74502 306.835743 
L 586.900398 306.747275 
L 593.211155 306.855315 
L 599.521912 306.628624 
L 602.677291 306.631806 
L 608.988048 306.887946 
L 634.231076 306.519315 
L 637.386454 306.548768 
L 643.697211 306.331394 
L 646.85259 306.319729 
L 650.007968 306.156049 
L 653.163347 306.148935 
L 656.318725 306.003958 
L 672.095618 306.061609 
L 681.561753 306.095588 
L 687.87251 305.755162 
L 700.494024 305.986251 
L 713.115538 305.957039 
L 716.270916 305.919317 
L 719.426295 306.084549 
L 725.737052 306.032722 
L 757.290837 306.022519 
L 760.446215 306.159642 
L 769.912351 306.207025 
L 773.067729 306.104319 
L 785.689243 306.280643 
L 788.844622 306.190116 
L 788.844622 306.190116 
" clip-path="url(#peacedc5de9)" style="fill: none; stroke: #000000; stroke-width: 1.5; stroke-linecap: square"/>
   </g>
   <g id="line2d_8">
    <path d="M 0 306 
L 3.155378 306 
L 6.310757 303.845017 
L 9.466135 305.000391 
L 12.621514 305.906123 
L 15.776892 305.239256 
L 18.932271 306.118196 
L 22.087649 305.701965 
L 25.243028 305.64233 
L 28.398406 305.364324 
L 31.553785 305.842967 
L 34.709163 305.933985 
L 37.864542 305.909386 
L 41.01992 306.610147 
L 44.175299 306.684701 
L 50.486056 306.464458 
L 53.641434 306.925459 
L 56.796813 306.779132 
L 59.952191 307.43797 
L 63.10757 307.080388 
L 66.262948 306.894641 
L 69.418327 306.916539 
L 75.729084 307.309204 
L 85.195219 306.932953 
L 88.350598 307.171022 
L 94.661355 307.196077 
L 100.972112 307.25881 
L 104.12749 307.645048 
L 116.749004 307.706967 
L 119.904382 307.278144 
L 126.215139 307.503012 
L 132.525896 307.236107 
L 141.992032 307.269678 
L 145.14741 307.178106 
L 151.458167 307.372523 
L 157.768924 307.154814 
L 173.545817 306.792204 
L 176.701195 306.865604 
L 189.322709 306.620479 
L 211.410359 306.604045 
L 246.119522 306.526646 
L 249.2749 306.658051 
L 261.896414 306.55912 
L 265.051793 306.481672 
L 268.207171 306.283503 
L 271.36255 306.424437 
L 302.916335 306.429649 
L 309.227092 306.487774 
L 325.003984 306.317189 
L 328.159363 306.390892 
L 334.47012 306.391362 
L 347.091633 306.415376 
L 350.247012 306.582113 
L 375.49004 306.697607 
L 378.645418 306.580702 
L 397.577689 306.65366 
L 413.354582 306.584179 
L 419.665339 306.613225 
L 435.442231 306.439495 
L 441.752988 306.423432 
L 444.908367 306.260542 
L 451.219124 306.261922 
L 457.52988 306.18555 
L 463.840637 306.177128 
L 466.996016 306.067232 
L 479.61753 306.034601 
L 498.549801 306.094022 
L 514.326693 306.171668 
L 517.482072 306.473499 
L 526.948207 306.559976 
L 530.103586 306.524446 
L 536.414343 306.709181 
L 539.569721 306.613232 
L 542.7251 306.633512 
L 549.035857 306.509511 
L 558.501992 306.658207 
L 580.589641 306.674434 
L 596.366534 306.628352 
L 602.677291 306.572095 
L 608.988048 306.719072 
L 665.784861 306.294328 
L 681.561753 306.258626 
L 687.87251 306.066319 
L 703.649402 306.186158 
L 716.270916 306.132143 
L 719.426295 306.219732 
L 732.047809 306.163065 
L 738.358566 306.207302 
L 750.98008 306.153166 
L 757.290837 306.164942 
L 763.601594 306.24833 
L 782.533865 306.260745 
L 788.844622 306.24739 
L 788.844622 306.24739 
" clip-path="url(#peacedc5de9)" style="fill: none; stroke: #000000; stroke-width: 1.5; stroke-linecap: square"/>
   </g>
   <g id="line2d_9">
    <path d="M 0 306 
L 3.155378 306 
L 6.310757 303.85082 
L 9.466135 304.998043 
L 12.621514 305.897089 
L 15.776892 305.239174 
L 18.932271 306.10642 
L 22.087649 305.698534 
L 25.243028 305.640442 
L 28.398406 305.368528 
L 31.553785 305.835387 
L 34.709163 305.92472 
L 37.864542 305.901626 
L 41.01992 306.581018 
L 44.175299 306.6552 
L 50.486056 306.447025 
L 53.641434 306.890017 
L 56.796813 306.752168 
L 59.952191 307.381985 
L 63.10757 307.044782 
L 66.262948 306.870331 
L 69.418327 306.892224 
L 75.729084 307.264821 
L 85.195219 306.916859 
L 88.350598 307.139399 
L 94.661355 307.16475 
L 100.972112 307.224761 
L 104.12749 307.581481 
L 116.749004 307.645828 
L 119.904382 307.257604 
L 126.215139 307.462547 
L 132.525896 307.223463 
L 141.992032 307.255449 
L 145.14741 307.1741 
L 151.458167 307.347354 
L 157.768924 307.155391 
L 173.545817 306.834838 
L 176.701195 306.89793 
L 189.322709 306.682159 
L 214.565737 306.654238 
L 227.187251 306.680474 
L 230.342629 306.703388 
L 236.653386 306.558436 
L 242.964143 306.579689 
L 265.051793 306.545607 
L 268.207171 306.382617 
L 271.36255 306.496188 
L 302.916335 306.489369 
L 309.227092 306.534437 
L 325.003984 306.395495 
L 331.314741 306.409137 
L 337.625498 306.440512 
L 347.091633 306.466735 
L 353.40239 306.61464 
L 375.49004 306.685381 
L 378.645418 306.596306 
L 397.577689 306.651916 
L 422.820717 306.581773 
L 429.131474 306.533953 
L 492.239044 306.160294 
L 508.015936 306.287198 
L 514.326693 306.265845 
L 517.482072 306.478565 
L 526.948207 306.539847 
L 533.258964 306.572126 
L 536.414343 306.645024 
L 545.880478 306.529099 
L 552.191235 306.559818 
L 561.657371 306.602685 
L 605.832669 306.610985 
L 612.143426 306.638619 
L 646.85259 306.448243 
L 656.318725 306.326742 
L 681.561753 306.342962 
L 687.87251 306.215232 
L 706.804781 306.27481 
L 725.737052 306.284021 
L 788.844622 306.309602 
L 788.844622 306.309602 
" clip-path="url(#peacedc5de9)" style="fill: none; stroke: #000000; stroke-width: 1.5; stroke-linecap: square"/>
   </g>
  </g>
 </g>
 <defs>
  <clipPath id="peacedc5de9">
   <rect x="0" y="0" width="792" height="612"/>
  </clipPath>
 </defs>
</svg>
