<?xml version="1.0" encoding="utf-8" standalone="no"?>
<!DOCTYPE svg PUBLIC "-//W3C//DTD SVG 1.1//EN"
  "http://www.w3.org/Graphics/SVG/1.1/DTD/svg11.dtd">
<svg xmlns:xlink="http://www.w3.org/1999/xlink" width="792pt" height="612pt" viewBox="0 0 792 612" xmlns="http://www.w3.org/2000/svg" version="1.1">
 <metadata>
  <rdf:RDF xmlns:dc="http://purl.org/dc/elements/1.1/" xmlns:cc="http://creativecommons.org/ns#" xmlns:rdf="http://www.w3.org/1999/02/22-rdf-syntax-ns#">
   <cc:Work>
    <dc:type rdf:resource="http://purl.org/dc/dcmitype/StillImage"/>
    <dc:date>2023-01-23T15:52:00.294459</dc:date>
    <dc:format>image/svg+xml</dc:format>
    <dc:creator>
     <cc:Agent>
      <dc:title>Matplotlib v3.6.2, https://matplotlib.org/</dc:title>
     </cc:Agent>
    </dc:creator>
   </cc:Work>
  </rdf:RDF>
 </metadata>
 <defs>
  <style type="text/css">*{stroke-linejoin: round; stroke-linecap: butt}</style>
 </defs>
 <g id="figure_1">
  <g id="patch_1">
   <path d="M 0 612 
L 792 612 
L 792 0 
L 0 0 
z
" style="fill: #ffffff"/>
  </g>
  <g id="axes_1">
   <g id="line2d_1">
    <path d="M 0 459 
L 3.168 458.48508 
L 6.336 463.042125 
L 9.504 463.831669 
L 12.672 463.702939 
L 15.84 462.887649 
L 19.008 466.706641 
L 22.176 465.968589 
L 25.344 472.027485 
L 28.512 469.521539 
L 31.68 468.311476 
L 34.848 468.972291 
L 38.016 470.920406 
L 41.184 474.06142 
L 44.352 473.683812 
L 50.688 471.564057 
L 53.856 474.911039 
L 57.024 475.082679 
L 60.192 476.395726 
L 63.36 476.97072 
L 66.528 478.438243 
L 69.696 484.437065 
L 72.864 485.31243 
L 76.032 486.059064 
L 79.2 488.093 
L 82.368 488.676576 
L 85.536 482.83223 
L 88.704 484.428483 
L 91.872 487.775466 
L 95.04 485.65571 
L 98.208 484.728853 
L 101.376 486.076228 
L 104.544 489.03702 
L 107.712 487.217635 
L 110.88 486.187794 
L 114.048 488.47919 
L 117.216 491.028046 
L 120.384 488.86538 
L 123.552 488.153074 
L 126.72 487.123233 
L 129.888 485.252356 
L 133.056 484.711689 
L 136.224 484.488557 
L 139.392 483.321405 
L 142.56 485.260938 
L 145.728 484.145277 
L 148.896 482.87514 
L 152.064 483.724759 
L 155.232 481.484855 
L 158.4 482.042686 
L 161.568 484.231097 
L 164.736 483.535955 
L 167.904 483.673267 
L 171.072 484.213933 
L 174.24 483.012452 
L 177.408 483.312823 
L 180.576 483.432971 
L 183.744 483.166928 
L 186.912 484.488557 
L 190.08 484.419901 
L 196.416 486.548239 
L 199.584 483.184092 
L 202.752 482.763574 
L 205.92 481.750897 
L 209.088 483.982219 
L 212.256 484.471393 
L 215.424 488.230312 
L 218.592 488.238894 
L 221.76 485.724366 
L 224.928 488.230312 
L 228.096 486.779953 
L 231.264 484.917658 
L 234.432 479.639724 
L 237.6 483.733341 
L 240.768 483.673267 
L 243.936 481.227395 
L 247.104 484.025129 
L 250.272 486.350853 
L 253.44 483.621775 
L 256.608 483.870653 
L 259.776 482.840812 
L 262.944 481.261723 
L 266.112 484.188187 
L 269.28 485.878842 
L 272.448 488.56501 
L 275.616 488.093 
L 278.784 486.917265 
L 281.952 486.882937 
L 285.12 485.810186 
L 288.288 483.690431 
L 291.456 483.879235 
L 294.624 486.342271 
L 297.792 484.831838 
L 300.96 486.728461 
L 304.128 486.522493 
L 307.296 485.95608 
L 310.464 487.200471 
L 313.632 488.26464 
L 316.8 493.86869 
L 319.968 494.967186 
L 323.136 495.928371 
L 326.304 496.717916 
L 329.472 499.627216 
L 332.64 500.571236 
L 335.808 500.425342 
L 338.976 500.090644 
L 342.144 500.305194 
L 345.312 496.717916 
L 348.48 498.030963 
L 351.648 500.150718 
L 354.816 500.63131 
L 357.984 500.940263 
L 361.152 501.729807 
L 367.488 500.571236 
L 370.656 500.391014 
L 373.824 501.532421 
L 376.992 501.283543 
L 380.16 500.262284 
L 383.328 501.832791 
L 386.496 501.884283 
L 389.664 500.322358 
L 392.832 501.369363 
L 396 498.605957 
L 402.336 497.044032 
L 405.504 496.898138 
L 408.672 496.898138 
L 411.84 491.208268 
L 415.008 492.830267 
L 418.176 491.534384 
L 421.344 489.071348 
L 424.512 488.968364 
L 427.68 490.350067 
L 430.848 488.856798 
L 434.016 484.88333 
L 437.184 485.492652 
L 440.352 484.574377 
L 443.52 485.123626 
L 446.688 483.801997 
L 449.856 483.561701 
L 453.024 481.347543 
L 456.192 482.042686 
L 459.36 483.04678 
L 462.528 485.475488 
L 465.696 486.119138 
L 468.864 487.389275 
L 472.032 490.487379 
L 475.2 490.350067 
L 478.368 490.95939 
L 481.536 489.483285 
L 484.704 501.171977 
L 487.872 503.489118 
L 491.04 504.845075 
L 494.208 505.282757 
L 497.376 504.184261 
L 500.544 507.599899 
L 503.712 511.933812 
L 506.88 508.54392 
L 510.048 509.642416 
L 513.216 506.355508 
L 516.384 505.368578 
L 519.552 508.612576 
L 522.72 511.135685 
L 525.888 512.088288 
L 529.056 511.92523 
L 532.224 511.899484 
L 535.392 512.002468 
L 538.56 513.469991 
L 541.728 514.044985 
L 544.896 515.031916 
L 548.064 515.023334 
L 551.232 515.529672 
L 554.4 513.924837 
L 557.568 515.624074 
L 560.736 517.168836 
L 563.904 514.83453 
L 567.072 512.774849 
L 570.24 513.161039 
L 573.408 516.636751 
L 576.576 519.726273 
L 579.744 518.919565 
L 582.912 518.593449 
L 586.08 518.499046 
L 589.248 513.942001 
L 592.416 514.482668 
L 595.584 514.285282 
L 598.752 512.491642 
L 601.92 513.993493 
L 605.088 514.928932 
L 608.256 511.75359 
L 611.424 510.406215 
L 614.592 510.303231 
L 617.76 506.698788 
L 620.928 506.612968 
L 624.096 503.351806 
L 627.264 504.046949 
L 630.432 504.467467 
L 633.6 506.561476 
L 636.768 506.570058 
L 639.936 504.862239 
L 643.104 504.999551 
L 646.272 504.424557 
L 649.44 505.729022 
L 652.608 501.163395 
L 655.776 497.876486 
L 658.944 499.549978 
L 662.112 499.386919 
L 665.28 501.515257 
L 668.448 502.879796 
L 671.616 503.214494 
L 677.952 501.635405 
L 681.12 502.150325 
L 684.288 501.257797 
L 687.456 505.033879 
L 690.624 503.75516 
L 693.792 503.892473 
L 696.96 503.875309 
L 700.128 503.017108 
L 703.296 505.042461 
L 706.464 505.085371 
L 709.632 503.566356 
L 715.968 504.072695 
L 719.136 503.137256 
L 722.304 502.759648 
L 725.472 503.789488 
L 728.64 506.973413 
L 731.808 507.565571 
L 734.976 507.187963 
L 738.144 508.320788 
L 741.312 506.046556 
L 744.48 507.651391 
L 747.648 508.895782 
L 750.816 508.827126 
L 753.984 510.483453 
L 757.152 508.526756 
L 760.32 509.084586 
L 766.656 504.596197 
L 769.824 506.475656 
L 772.992 503.248822 
L 776.16 503.188748 
L 779.328 502.038759 
L 782.496 501.189141 
L 788.832 500.854442 
L 788.832 500.854442 
" clip-path="url(#p72ccc05ae0)" style="fill: none; stroke: #000000; stroke-width: 1.5; stroke-linecap: square"/>
   </g>
   <g id="line2d_2">
    <path d="M 0 459 
L 3.168 459 
L 6.336 458.65672 
L 9.504 461.260746 
L 12.672 462.631905 
L 15.84 463.184697 
L 19.008 463.033815 
L 22.176 464.884688 
L 25.344 465.428764 
L 28.512 468.753668 
L 31.68 469.158571 
L 34.848 468.745356 
L 38.016 468.868903 
L 41.184 469.908806 
L 44.352 472.007023 
L 47.52 472.859098 
L 50.688 472.752412 
L 53.856 472.157326 
L 57.024 473.54475 
L 60.192 474.326991 
L 63.36 475.375914 
L 66.528 476.185181 
L 69.696 477.320294 
L 72.864 480.899764 
L 76.032 483.130985 
L 79.2 484.623446 
L 82.368 486.38407 
L 85.536 487.556978 
L 88.704 485.207225 
L 91.872 484.832477 
L 95.04 486.32228 
L 98.208 485.991384 
L 101.376 485.358975 
L 104.544 485.717635 
L 107.712 487.379179 
L 110.88 487.295546 
L 114.048 486.74825 
L 117.216 487.621663 
L 120.384 489.331232 
L 123.552 489.1046 
L 126.72 488.635551 
L 129.888 487.881445 
L 133.056 486.559479 
L 136.224 485.630671 
L 139.392 485.056282 
L 142.56 484.17873 
L 145.728 484.708526 
L 148.896 484.417646 
L 152.064 483.636044 
L 155.232 483.673738 
L 158.4 482.571909 
L 161.568 482.302064 
L 164.736 483.266076 
L 171.072 483.534238 
L 174.24 483.87422 
L 177.408 483.443606 
L 186.912 483.290173 
L 190.08 483.88987 
L 193.248 484.156619 
L 196.416 484.841126 
L 199.584 485.69926 
L 202.752 484.442013 
L 209.088 482.673009 
L 215.424 483.900269 
L 218.592 486.072762 
L 221.76 487.161162 
L 224.928 486.441149 
L 228.096 487.345625 
L 231.264 487.070664 
L 234.432 486.00037 
L 237.6 482.811532 
L 240.768 483.270989 
L 243.936 483.463193 
L 247.104 482.331546 
L 250.272 483.175006 
L 253.44 484.759244 
L 256.608 484.184317 
L 259.776 484.025432 
L 262.944 483.439399 
L 266.112 482.345715 
L 269.28 483.267961 
L 272.448 484.582522 
L 275.616 486.582668 
L 278.784 487.34125 
L 285.12 487.015234 
L 288.288 486.418533 
L 291.456 485.059244 
L 294.624 484.468634 
L 297.792 485.406361 
L 300.96 485.111779 
L 304.128 485.917444 
L 307.296 486.219195 
L 310.464 486.08582 
L 313.632 486.645872 
L 316.8 487.464225 
L 319.968 490.686044 
L 323.136 492.843527 
L 326.304 494.407707 
L 329.472 495.582398 
L 332.64 497.630503 
L 335.808 499.129527 
L 338.976 499.803365 
L 345.312 500.150314 
L 348.48 498.437548 
L 351.648 498.238378 
L 354.816 499.201279 
L 357.984 499.918263 
L 361.152 500.429987 
L 364.32 501.082455 
L 367.488 501.099181 
L 373.824 500.620574 
L 376.992 501.083363 
L 380.16 501.185674 
L 383.328 500.723256 
L 386.496 501.279773 
L 389.664 501.582331 
L 392.832 500.950796 
L 396 501.161645 
L 399.168 499.880301 
L 405.504 497.942854 
L 408.672 497.413899 
L 411.84 497.146343 
L 415.008 494.156372 
L 418.176 493.478629 
L 421.344 492.487222 
L 424.512 490.76059 
L 427.68 489.847061 
L 430.848 490.085439 
L 434.016 489.455351 
L 437.184 487.145782 
L 443.52 485.425006 
L 446.688 485.261746 
L 449.856 484.521539 
L 453.024 484.031019 
L 456.192 482.671629 
L 459.36 482.343796 
L 462.528 482.691687 
L 465.696 484.083554 
L 468.864 485.104375 
L 472.032 486.251268 
L 475.2 488.382432 
L 478.368 489.37956 
L 481.536 490.188322 
L 484.704 489.850393 
L 487.872 495.546724 
L 491.04 499.553242 
L 494.208 502.235876 
L 497.376 503.794402 
L 500.544 504.016188 
L 503.712 505.841867 
L 506.88 508.928966 
L 510.048 508.773816 
L 513.216 509.224725 
L 516.384 507.795737 
L 519.552 506.583184 
L 522.72 507.604409 
L 525.888 509.383677 
L 529.056 510.744783 
L 532.224 511.33499 
L 538.56 511.81777 
L 541.728 512.65783 
L 544.896 513.36842 
L 548.064 514.212755 
L 554.4 515.084418 
L 557.568 514.508548 
L 560.736 515.073615 
L 563.904 516.131355 
L 567.072 515.485618 
L 570.24 514.127743 
L 573.408 513.640722 
L 576.576 515.1419 
L 579.744 517.442315 
L 582.912 518.190734 
L 586.08 518.397913 
L 589.248 518.451088 
L 592.416 516.194795 
L 595.584 515.34208 
L 598.752 514.815885 
L 601.92 513.645636 
L 605.088 513.808324 
L 608.256 514.360803 
L 614.592 511.709132 
L 617.76 510.999046 
L 620.928 508.833655 
L 624.096 507.708268 
L 627.264 505.512116 
L 630.432 504.760029 
L 633.6 504.593235 
L 636.768 505.567175 
L 639.936 506.061095 
L 643.104 505.450998 
L 646.272 505.221943 
L 649.44 504.818959 
L 652.608 505.278652 
L 655.776 503.215369 
L 658.944 500.533004 
L 662.112 500.027743 
L 665.28 499.693247 
L 668.448 500.597689 
L 671.616 501.734586 
L 674.784 502.472167 
L 677.952 502.463619 
L 681.12 502.050438 
L 684.288 502.108761 
L 687.456 501.686628 
L 690.624 503.371326 
L 696.96 503.732039 
L 700.128 503.80497 
L 703.296 503.412116 
L 706.464 504.233969 
L 709.632 504.665425 
L 712.8 504.120417 
L 715.968 503.991283 
L 719.136 504.032612 
L 725.472 503.169363 
L 728.64 503.48094 
L 731.808 505.230963 
L 734.976 506.40313 
L 738.144 506.802648 
L 741.312 507.570451 
L 744.48 506.812374 
L 747.648 507.240734 
L 750.816 508.080289 
L 753.984 508.463585 
L 757.152 509.480402 
L 760.32 509.005463 
L 763.488 509.048744 
L 766.656 507.969666 
L 769.824 506.280088 
L 772.992 506.375567 
L 776.16 504.801122 
L 779.328 503.983879 
L 785.664 502.077563 
L 788.832 501.518791 
L 788.832 501.518791 
" clip-path="url(#p72ccc05ae0)" style="fill: none; stroke: #000000; stroke-width: 1.5; stroke-linecap: square"/>
   </g>
   <g id="line2d_3">
    <path d="M 0 459 
L 3.168 459 
L 6.336 458.698367 
L 9.504 460.776424 
L 12.672 461.969571 
L 15.84 462.586283 
L 19.008 462.687161 
L 22.176 463.978586 
L 25.344 464.600302 
L 28.512 466.876257 
L 31.68 467.676036 
L 34.848 467.866357 
L 38.016 468.195419 
L 41.184 469.002466 
L 44.352 470.495867 
L 47.52 471.434781 
L 50.688 471.78318 
L 53.856 471.733431 
L 57.024 472.682604 
L 60.192 473.399399 
L 69.696 476.089542 
L 72.864 478.55484 
L 76.032 480.556311 
L 85.536 485.347974 
L 88.704 484.627049 
L 91.872 484.584406 
L 95.04 485.534798 
L 98.208 485.583963 
L 101.376 485.347416 
L 104.544 485.577549 
L 107.712 486.60703 
L 110.88 486.79981 
L 114.048 486.631802 
L 117.216 487.186108 
L 120.384 488.325846 
L 123.552 488.488958 
L 126.72 488.393843 
L 129.888 488.022912 
L 136.224 486.472415 
L 139.392 485.893259 
L 142.56 485.138709 
L 145.728 485.171621 
L 148.896 484.869277 
L 152.064 484.283078 
L 155.232 484.11685 
L 158.4 483.337282 
L 161.568 482.952159 
L 164.736 483.324504 
L 171.072 483.457985 
L 174.24 483.674054 
L 177.408 483.474371 
L 186.912 483.34665 
L 190.08 483.681107 
L 193.248 483.898757 
L 196.416 484.373434 
L 199.584 485.01318 
L 209.088 483.32361 
L 215.424 483.798041 
L 218.592 485.101615 
L 221.76 486.025747 
L 224.928 485.939209 
L 228.096 486.616251 
L 231.264 486.668181 
L 234.432 486.15717 
L 237.6 484.244203 
L 243.936 483.969705 
L 247.104 483.161573 
L 250.272 483.411604 
L 253.44 484.276128 
L 256.608 484.085458 
L 259.776 484.024978 
L 262.944 483.676833 
L 266.112 482.965777 
L 269.28 483.31917 
L 272.448 484.06617 
L 275.616 485.387112 
L 278.784 486.179491 
L 285.12 486.540692 
L 288.288 486.333819 
L 291.456 485.559539 
L 294.624 485.067626 
L 297.792 485.446836 
L 300.96 485.267634 
L 304.128 485.695934 
L 307.296 485.941359 
L 310.464 485.948066 
L 313.632 486.319895 
L 316.8 486.897541 
L 319.968 488.950462 
L 323.136 490.723159 
L 326.304 492.256188 
L 329.472 493.572904 
L 332.64 495.36077 
L 335.808 496.902602 
L 338.976 497.951176 
L 342.144 498.596649 
L 345.312 499.115937 
L 348.48 498.42549 
L 351.648 498.325096 
L 364.32 500.43313 
L 367.488 500.646694 
L 373.824 500.567853 
L 376.992 500.856805 
L 380.16 500.987038 
L 383.328 500.775492 
L 389.664 501.321923 
L 392.832 501.029424 
L 396 501.130212 
L 405.504 498.881898 
L 408.672 498.29658 
L 411.84 497.882343 
L 415.008 495.915467 
L 421.344 493.976206 
L 424.512 492.526604 
L 427.68 491.469989 
L 430.848 491.129413 
L 434.016 490.450679 
L 437.184 488.800572 
L 443.52 486.846255 
L 446.688 486.323048 
L 449.856 485.567646 
L 453.024 484.963706 
L 456.192 483.886527 
L 459.36 483.329415 
L 462.528 483.230724 
L 468.864 484.529262 
L 472.032 485.36218 
L 475.2 486.864942 
L 478.368 487.887299 
L 481.536 488.787793 
L 484.704 488.992218 
L 487.872 492.578296 
L 491.04 495.794672 
L 494.208 498.468757 
L 497.376 500.487686 
L 500.544 501.593799 
L 503.712 503.380555 
L 506.88 505.920878 
L 513.216 507.606212 
L 516.384 507.263872 
L 519.552 506.730863 
L 522.72 507.306381 
L 529.056 509.541783 
L 532.224 510.26396 
L 535.392 510.768741 
L 538.56 511.142531 
L 548.064 513.248074 
L 554.4 514.301919 
L 557.568 514.193761 
L 560.736 514.620822 
L 563.904 515.375763 
L 567.072 515.226979 
L 570.24 514.517273 
L 573.408 514.125266 
L 576.576 514.867181 
L 579.744 516.299149 
L 582.912 517.074685 
L 586.08 517.527209 
L 589.248 517.819316 
L 592.416 516.684219 
L 595.584 516.039902 
L 598.752 515.525128 
L 601.92 514.633733 
L 605.088 514.444447 
L 608.256 514.587502 
L 611.424 513.753023 
L 614.592 512.764998 
L 617.76 512.038758 
L 620.928 510.467738 
L 624.096 509.331181 
L 627.264 507.564604 
L 630.432 506.516297 
L 633.6 505.899609 
L 639.936 506.209582 
L 643.104 505.804526 
L 649.44 505.214598 
L 652.608 505.357502 
L 655.776 504.11434 
L 658.944 502.267728 
L 662.112 501.4577 
L 665.28 500.838526 
L 668.448 501.026642 
L 674.784 502.044245 
L 677.952 502.167303 
L 681.12 502.008744 
L 684.288 502.047551 
L 687.456 501.810145 
L 690.624 502.752591 
L 696.96 503.291923 
L 700.128 503.462161 
L 703.296 503.328693 
L 706.464 503.8351 
L 709.632 504.209576 
L 712.8 504.025795 
L 719.136 504.013163 
L 725.472 503.464297 
L 728.64 503.561062 
L 731.808 504.566647 
L 734.976 505.451232 
L 738.144 505.96672 
L 741.312 506.659986 
L 744.48 506.482948 
L 747.648 506.829495 
L 750.816 507.440463 
L 753.984 507.85328 
L 757.152 508.62989 
L 760.32 508.603635 
L 763.488 508.750841 
L 766.656 508.211101 
L 769.824 507.152922 
L 772.992 506.95839 
L 776.16 505.872444 
L 782.496 504.187616 
L 785.664 503.302059 
L 788.832 502.61827 
L 788.832 502.61827 
" clip-path="url(#p72ccc05ae0)" style="fill: none; stroke: #000000; stroke-width: 1.5; stroke-linecap: square"/>
   </g>
   <g id="line2d_4">
    <path d="M 0 459 
L 3.168 459 
L 6.336 458.720288 
L 9.504 460.529744 
L 12.672 461.58044 
L 15.84 462.163127 
L 19.008 462.341447 
L 22.176 463.329806 
L 25.344 463.889592 
L 28.512 465.529004 
L 31.68 466.300637 
L 38.016 467.093893 
L 41.184 467.774215 
L 44.352 468.871521 
L 47.52 469.698651 
L 50.688 470.194374 
L 53.856 470.424384 
L 63.36 472.569474 
L 66.528 473.288626 
L 69.696 474.126463 
L 72.864 475.797975 
L 76.032 477.335788 
L 85.536 481.600369 
L 88.704 481.797906 
L 91.872 482.219208 
L 95.04 483.108139 
L 98.208 483.515358 
L 101.376 483.709187 
L 104.544 484.102686 
L 107.712 484.906604 
L 110.88 485.289381 
L 114.048 485.446271 
L 117.216 485.944278 
L 120.384 486.770681 
L 123.552 487.117781 
L 126.72 487.296342 
L 129.888 487.278218 
L 139.392 486.288308 
L 142.56 485.824001 
L 145.728 485.741403 
L 148.896 485.493981 
L 152.064 485.083713 
L 155.232 484.875086 
L 158.4 484.33979 
L 161.568 483.978655 
L 164.736 484.023708 
L 171.072 483.909406 
L 174.24 483.957718 
L 180.576 483.725726 
L 186.912 483.591769 
L 196.416 484.109308 
L 199.584 484.497907 
L 205.92 484.043316 
L 209.088 483.674038 
L 215.424 483.839363 
L 221.76 485.124937 
L 224.928 485.218349 
L 228.096 485.697611 
L 231.264 485.869601 
L 234.432 485.717935 
L 237.6 484.747705 
L 243.936 484.44087 
L 247.104 483.927078 
L 250.272 483.942603 
L 253.44 484.327933 
L 262.944 483.952407 
L 266.112 483.522457 
L 269.28 483.628784 
L 272.448 483.988152 
L 275.616 484.719061 
L 278.784 485.259037 
L 285.12 485.743303 
L 288.288 485.755593 
L 294.624 485.180005 
L 297.792 485.365439 
L 300.96 485.27947 
L 307.296 485.675305 
L 310.464 485.722601 
L 313.632 485.959743 
L 316.8 486.328827 
L 326.304 489.872515 
L 329.472 490.966939 
L 335.808 493.670179 
L 338.976 494.757919 
L 345.312 496.372933 
L 348.48 496.437486 
L 351.648 496.699753 
L 364.32 498.869541 
L 367.488 499.238694 
L 380.16 500.154131 
L 383.328 500.179665 
L 389.664 500.68992 
L 392.832 500.641817 
L 396 500.768484 
L 402.336 500.029494 
L 408.672 499.143746 
L 411.84 498.793289 
L 415.008 497.588986 
L 421.344 495.989949 
L 424.512 494.885496 
L 427.68 493.939716 
L 430.848 493.364617 
L 434.016 492.640687 
L 437.184 491.396675 
L 443.52 489.50381 
L 453.024 487.280269 
L 456.192 486.324619 
L 459.36 485.63175 
L 462.528 485.209307 
L 468.864 485.371794 
L 472.032 485.684558 
L 475.2 486.442525 
L 481.536 487.671654 
L 484.704 487.953166 
L 494.208 494.20981 
L 497.376 495.973997 
L 500.544 497.28376 
L 503.712 498.931178 
L 506.88 501.009234 
L 513.216 503.404929 
L 516.384 503.883827 
L 519.552 504.127879 
L 522.72 504.852066 
L 529.056 506.87006 
L 532.224 507.687817 
L 554.4 512.41145 
L 557.568 512.672561 
L 560.736 513.16311 
L 563.904 513.821726 
L 567.072 514.001185 
L 573.408 513.733509 
L 576.576 514.21174 
L 579.744 515.107451 
L 582.912 515.731417 
L 589.248 516.580751 
L 592.416 516.167439 
L 598.752 515.653249 
L 601.92 515.15541 
L 605.088 514.974534 
L 608.256 514.969147 
L 611.424 514.459543 
L 617.76 513.258829 
L 620.928 512.215933 
L 624.096 511.323234 
L 627.264 510.050095 
L 630.432 509.089955 
L 633.6 508.349848 
L 639.936 507.821221 
L 646.272 506.966242 
L 649.44 506.555233 
L 652.608 506.417981 
L 655.776 505.572993 
L 658.944 504.338438 
L 665.28 502.890459 
L 668.448 502.663349 
L 677.952 502.71191 
L 681.12 502.529347 
L 684.288 502.45858 
L 687.456 502.256715 
L 690.624 502.69017 
L 700.128 503.142855 
L 703.296 503.116936 
L 709.632 503.676899 
L 715.968 503.683936 
L 719.136 503.741901 
L 728.64 503.546713 
L 734.976 504.648053 
L 738.144 505.052552 
L 741.312 505.573633 
L 744.48 505.649615 
L 747.648 505.96976 
L 757.152 507.408791 
L 763.488 507.836525 
L 766.656 507.691597 
L 769.824 507.20103 
L 772.992 507.087864 
L 788.832 504.086235 
L 788.832 504.086235 
" clip-path="url(#p72ccc05ae0)" style="fill: none; stroke: #000000; stroke-width: 1.5; stroke-linecap: square"/>
   </g>
   <g id="line2d_5">
    <path d="M 0 459 
L 3.168 459 
L 6.336 458.731393 
L 9.504 460.408582 
L 12.672 461.378569 
L 15.84 461.927272 
L 19.008 462.123888 
L 22.176 462.960289 
L 25.344 463.459642 
L 28.512 464.772844 
L 31.68 465.452891 
L 38.016 466.241288 
L 41.184 466.815945 
L 44.352 467.671711 
L 47.52 468.357714 
L 50.688 468.829344 
L 53.856 469.123824 
L 69.696 472.17636 
L 76.032 474.488788 
L 85.536 477.83139 
L 91.872 478.841387 
L 95.04 479.642416 
L 98.208 480.177998 
L 104.544 481.064702 
L 107.712 481.763076 
L 110.88 482.238705 
L 114.048 482.581618 
L 117.216 483.091767 
L 120.384 483.775869 
L 126.72 484.550724 
L 129.888 484.770531 
L 136.224 484.803103 
L 148.896 484.657327 
L 161.568 484.011955 
L 174.24 483.983503 
L 186.912 483.763553 
L 196.416 484.010899 
L 199.584 484.222389 
L 205.92 484.029715 
L 209.088 483.848043 
L 215.424 483.922958 
L 221.76 484.624557 
L 224.928 484.722027 
L 228.096 485.020446 
L 231.264 485.171279 
L 234.432 485.155241 
L 237.6 484.701162 
L 243.936 484.550749 
L 247.104 484.277256 
L 250.272 484.259697 
L 253.44 484.437723 
L 262.944 484.213581 
L 266.112 483.970173 
L 269.28 483.990616 
L 272.448 484.149753 
L 278.784 484.815198 
L 285.12 485.146658 
L 288.288 485.200795 
L 294.624 484.976238 
L 297.792 485.089147 
L 300.96 485.067523 
L 307.296 485.315432 
L 313.632 485.519715 
L 316.8 485.748209 
L 326.304 487.866442 
L 329.472 488.603866 
L 338.976 491.278248 
L 345.312 492.708323 
L 351.648 493.46318 
L 364.32 495.667781 
L 370.656 496.49967 
L 389.664 498.454317 
L 399.168 498.832784 
L 405.504 498.617468 
L 411.84 498.353065 
L 415.008 497.762428 
L 421.344 496.873721 
L 427.68 495.625092 
L 434.016 494.66319 
L 437.184 493.85149 
L 449.856 491.173723 
L 453.024 490.541805 
L 456.192 489.77709 
L 459.36 489.134651 
L 462.528 488.629115 
L 468.864 488.183149 
L 472.032 488.118303 
L 481.536 488.692023 
L 484.704 488.75853 
L 491.04 490.935886 
L 497.376 493.198494 
L 500.544 494.116075 
L 503.712 495.242588 
L 506.88 496.636096 
L 513.216 498.636126 
L 516.384 499.283038 
L 519.552 499.79368 
L 522.72 500.530412 
L 532.224 503.110129 
L 551.232 507.449929 
L 554.4 508.12621 
L 560.736 509.198813 
L 563.904 509.865575 
L 567.072 510.282243 
L 573.408 510.718457 
L 576.576 511.214939 
L 579.744 511.927267 
L 586.08 513.02393 
L 589.248 513.483767 
L 608.256 513.731326 
L 614.592 513.313665 
L 617.76 513.070026 
L 624.096 512.058263 
L 627.264 511.34031 
L 633.6 510.223907 
L 643.104 509.262842 
L 652.608 508.322267 
L 655.776 507.733839 
L 658.944 506.921098 
L 665.28 505.745337 
L 668.448 505.399478 
L 687.456 504.114749 
L 690.624 504.19229 
L 706.464 504.104702 
L 709.632 504.183865 
L 728.64 503.903036 
L 741.312 504.96673 
L 744.48 505.053935 
L 750.816 505.566574 
L 753.984 505.835169 
L 757.152 506.219316 
L 763.488 506.628996 
L 766.656 506.647827 
L 769.824 506.474218 
L 772.992 506.472287 
L 782.496 505.616967 
L 788.832 504.885081 
L 788.832 504.885081 
" clip-path="url(#p72ccc05ae0)" style="fill: none; stroke: #000000; stroke-width: 1.5; stroke-linecap: square"/>
   </g>
   <g id="line2d_6">
    <path d="M 0 459 
L 3.168 459 
L 6.336 458.736964 
L 9.504 460.348971 
L 12.672 461.277014 
L 15.84 461.80512 
L 19.008 462.00563 
L 22.176 462.767547 
L 25.344 463.230902 
L 28.512 464.385992 
L 31.68 465.005282 
L 38.016 465.751261 
L 41.184 466.260206 
L 44.352 466.987526 
L 47.52 467.581631 
L 50.688 468.008821 
L 53.856 468.298021 
L 69.696 470.877888 
L 85.536 475.322234 
L 91.872 476.288223 
L 95.04 476.957785 
L 101.376 477.867915 
L 104.544 478.325456 
L 107.712 478.914669 
L 126.72 481.545126 
L 133.056 482.002989 
L 145.728 482.453536 
L 155.232 482.608919 
L 161.568 482.53069 
L 174.24 482.773215 
L 190.08 482.927673 
L 196.416 483.11056 
L 199.584 483.266483 
L 215.424 483.266017 
L 221.76 483.699278 
L 228.096 483.98628 
L 234.432 484.145647 
L 237.6 483.946898 
L 243.936 483.925878 
L 247.104 483.807435 
L 262.944 483.865857 
L 266.112 483.75247 
L 272.448 483.862974 
L 278.784 484.241579 
L 288.288 484.524841 
L 294.624 484.462484 
L 316.8 485.031935 
L 326.304 486.254938 
L 332.64 487.257272 
L 342.144 488.868569 
L 345.312 489.357797 
L 351.648 490.029808 
L 370.656 492.526911 
L 392.832 494.77426 
L 396 495.05512 
L 402.336 495.318882 
L 411.84 495.529651 
L 434.016 494.190339 
L 443.52 493.075369 
L 453.024 491.99174 
L 459.36 491.140918 
L 462.528 490.799106 
L 468.864 490.387827 
L 472.032 490.26243 
L 484.704 490.273604 
L 491.04 491.280909 
L 503.712 493.558654 
L 506.88 494.342224 
L 513.216 495.574483 
L 522.72 496.953351 
L 538.56 499.867567 
L 557.568 503.250343 
L 567.072 504.803617 
L 573.408 505.49104 
L 579.744 506.558227 
L 589.248 508.050605 
L 601.92 508.979719 
L 611.424 509.54784 
L 617.76 509.623654 
L 624.096 509.383858 
L 633.6 508.732152 
L 643.104 508.406566 
L 652.608 508.009543 
L 655.776 507.722138 
L 662.112 506.980423 
L 668.448 506.446002 
L 690.624 505.477646 
L 706.464 505.191102 
L 712.8 505.123682 
L 731.808 504.913218 
L 766.656 506.168245 
L 779.328 505.87895 
L 788.832 505.332231 
L 788.832 505.332231 
" clip-path="url(#p72ccc05ae0)" style="fill: none; stroke: #000000; stroke-width: 1.5; stroke-linecap: square"/>
   </g>
   <g id="line2d_7">
    <path d="M 0 459 
L 3.168 459 
L 6.336 458.739752 
L 9.504 460.319459 
L 12.672 461.226243 
L 15.84 461.74327 
L 19.008 461.944475 
L 22.176 462.66978 
L 25.344 463.114061 
L 28.512 464.192391 
L 31.68 464.778732 
L 38.016 465.494942 
L 41.184 465.968651 
L 44.352 466.631571 
L 47.52 467.176307 
L 50.688 467.574539 
L 53.856 467.852054 
L 69.696 470.166274 
L 85.536 473.967473 
L 91.872 474.846579 
L 95.04 475.426325 
L 110.88 477.579625 
L 117.216 478.330651 
L 123.552 479.193263 
L 129.888 479.801185 
L 139.392 480.314269 
L 158.4 480.890429 
L 167.904 481.110691 
L 205.92 481.98502 
L 212.256 482.034498 
L 218.592 482.271537 
L 228.096 482.679922 
L 234.432 482.847601 
L 237.6 482.761999 
L 275.616 483.141432 
L 285.12 483.445694 
L 297.792 483.587918 
L 310.464 483.817044 
L 316.8 484.004816 
L 329.472 485.061311 
L 345.312 486.777929 
L 354.816 487.574844 
L 376.992 489.617091 
L 392.832 490.883691 
L 399.168 491.295941 
L 411.84 491.81403 
L 430.848 491.661396 
L 437.184 491.446533 
L 453.024 490.698786 
L 462.528 490.137683 
L 472.032 489.888998 
L 484.704 489.925555 
L 491.04 490.471013 
L 503.712 491.759298 
L 510.048 492.566683 
L 516.384 493.239921 
L 522.72 493.84049 
L 570.24 499.513985 
L 576.576 500.179975 
L 586.08 501.390577 
L 592.416 502.029395 
L 608.256 503.281721 
L 617.76 503.762447 
L 627.264 503.875219 
L 636.768 503.94968 
L 646.272 504.046244 
L 655.776 504.027305 
L 665.28 503.704359 
L 681.12 503.563133 
L 693.792 503.522057 
L 731.808 503.657064 
L 772.992 504.657136 
L 785.664 504.468635 
L 788.832 504.393793 
L 788.832 504.393793 
" clip-path="url(#p72ccc05ae0)" style="fill: none; stroke: #000000; stroke-width: 1.5; stroke-linecap: square"/>
   </g>
   <g id="line2d_8">
    <path d="M 0 459 
L 3.168 459 
L 6.336 458.741146 
L 9.504 460.304782 
L 12.672 461.20088 
L 15.84 461.712189 
L 19.008 461.913442 
L 22.176 462.620632 
L 25.344 463.055161 
L 28.512 464.095817 
L 31.68 464.665212 
L 41.184 465.820387 
L 47.52 466.970933 
L 50.688 467.353375 
L 53.856 467.6231 
L 69.696 469.8001 
L 85.536 473.280315 
L 91.872 474.103464 
L 95.04 474.634357 
L 110.88 476.626699 
L 117.216 477.321978 
L 123.552 478.106829 
L 129.888 478.676257 
L 139.392 479.193951 
L 161.568 479.891141 
L 177.408 480.336068 
L 196.416 480.816494 
L 202.752 480.989656 
L 215.424 481.173685 
L 228.096 481.677039 
L 234.432 481.838985 
L 240.768 481.833584 
L 275.616 482.263435 
L 288.288 482.578183 
L 300.96 482.717772 
L 319.968 483.229614 
L 332.64 484.078481 
L 345.312 485.073911 
L 357.984 485.904401 
L 380.16 487.427653 
L 402.336 488.683529 
L 415.008 489.064143 
L 424.512 489.150466 
L 440.352 489.051071 
L 475.2 488.465825 
L 484.704 488.536742 
L 494.208 489.110935 
L 506.88 490.046756 
L 548.064 493.278602 
L 570.24 495.125594 
L 576.576 495.618103 
L 589.248 496.758541 
L 611.424 498.168933 
L 624.096 498.665047 
L 643.104 499.112805 
L 655.776 499.347736 
L 668.448 499.359488 
L 734.976 500.347966 
L 779.328 501.361195 
L 788.832 501.36262 
L 788.832 501.36262 
" clip-path="url(#p72ccc05ae0)" style="fill: none; stroke: #000000; stroke-width: 1.5; stroke-linecap: square"/>
   </g>
   <g id="line2d_9">
    <path d="M 0 459 
L 3.168 459 
L 6.336 458.741843 
L 9.504 460.297465 
L 12.672 461.188206 
L 15.84 461.696614 
L 19.008 461.897817 
L 22.176 462.596003 
L 25.344 463.025609 
L 28.512 464.047619 
L 31.68 464.608446 
L 41.184 465.745762 
L 47.52 466.867789 
L 66.528 469.169531 
L 69.696 469.615223 
L 85.536 472.93656 
L 91.872 473.729347 
L 98.208 474.634348 
L 104.544 475.343289 
L 110.88 476.140738 
L 117.216 476.804968 
L 123.552 477.548372 
L 129.888 478.094178 
L 139.392 478.605101 
L 161.568 479.321966 
L 177.408 479.772253 
L 224.928 480.961215 
L 234.432 481.238216 
L 240.768 481.252707 
L 278.784 481.79019 
L 291.456 482.010147 
L 304.128 482.191978 
L 319.968 482.584411 
L 332.64 483.287792 
L 348.48 484.259492 
L 364.32 485.184201 
L 389.664 486.572927 
L 405.504 487.238323 
L 415.008 487.484228 
L 427.68 487.61262 
L 437.184 487.625098 
L 456.192 487.409444 
L 468.864 487.283964 
L 481.536 487.380218 
L 484.704 487.40038 
L 500.544 488.162436 
L 541.728 490.629133 
L 595.584 494.09227 
L 614.592 495.020234 
L 624.096 495.335813 
L 674.784 496.280588 
L 731.808 497.239779 
L 776.16 498.249338 
L 788.832 498.353468 
L 788.832 498.353468 
" clip-path="url(#p72ccc05ae0)" style="fill: none; stroke: #000000; stroke-width: 1.5; stroke-linecap: square"/>
   </g>
  </g>
 </g>
 <defs>
  <clipPath id="p72ccc05ae0">
   <rect x="0" y="0" width="792" height="612"/>
  </clipPath>
 </defs>
</svg>
