<?xml version="1.0" encoding="utf-8" standalone="no"?>
<!DOCTYPE svg PUBLIC "-//W3C//DTD SVG 1.1//EN"
  "http://www.w3.org/Graphics/SVG/1.1/DTD/svg11.dtd">
<svg xmlns:xlink="http://www.w3.org/1999/xlink" width="792pt" height="612pt" viewBox="0 0 792 612" xmlns="http://www.w3.org/2000/svg" version="1.1">
 <metadata>
  <rdf:RDF xmlns:dc="http://purl.org/dc/elements/1.1/" xmlns:cc="http://creativecommons.org/ns#" xmlns:rdf="http://www.w3.org/1999/02/22-rdf-syntax-ns#">
   <cc:Work>
    <dc:type rdf:resource="http://purl.org/dc/dcmitype/StillImage"/>
    <dc:date>2023-01-09T02:28:36.254265</dc:date>
    <dc:format>image/svg+xml</dc:format>
    <dc:creator>
     <cc:Agent>
      <dc:title>Matplotlib v3.6.2, https://matplotlib.org/</dc:title>
     </cc:Agent>
    </dc:creator>
   </cc:Work>
  </rdf:RDF>
 </metadata>
 <defs>
  <style type="text/css">*{stroke-linejoin: round; stroke-linecap: butt}</style>
 </defs>
 <g id="figure_1">
  <g id="patch_1">
   <path d="M 0 612 
L 792 612 
L 792 0 
L 0 0 
z
" style="fill: #ffffff"/>
  </g>
  <g id="axes_1">
   <g id="line2d_1">
    <path d="M 0 459 
L 12.774194 457.391856 
L 25.548387 456.926346 
L 38.322581 434.477916 
L 51.096774 437.137246 
L 63.870968 436.166199 
L 76.645161 427.3528 
L 89.419355 434.731117 
L 102.193548 439.333365 
L 114.967742 423.732658 
L 127.741935 417.135481 
L 140.516129 416.63192 
L 153.290323 399.080574 
L 166.064516 398.664639 
L 178.83871 382.93986 
L 191.612903 386.277701 
L 204.387097 388.300749 
L 217.16129 398.415126 
L 229.935484 398.456709 
L 242.709677 390.202503 
L 255.483871 390.864553 
L 268.258065 388.094185 
L 281.032258 394.386492 
L 293.806452 372.4873 
L 306.580645 356.96441 
L 319.354839 364.83958 
L 332.129032 364.06962 
L 344.903226 374.161955 
L 357.677419 380.678108 
L 370.451613 382.281498 
L 383.225806 378.707407 
L 396 374.734327 
L 408.774194 377.190402 
L 421.548387 372.936366 
L 434.322581 391.030111 
L 447.096774 384.875649 
L 459.870968 385.535263 
L 472.645161 385.452794 
L 485.419355 381.335673 
L 498.193548 391.071504 
L 510.967742 391.278482 
L 523.741935 383.969193 
L 536.516129 385.411561 
L 549.290323 386.401478 
L 562.064516 381.911313 
L 574.83871 380.103009 
L 587.612903 385.040523 
L 600.387097 400.412237 
L 613.16129 403.28702 
L 625.935484 401.453298 
L 638.709677 406.959827 
L 651.483871 395.922025 
L 664.258065 403.704029 
L 677.032258 409.760729 
L 689.806452 409.426094 
L 702.580645 417.513219 
L 715.354839 407.962695 
L 728.129032 410.681248 
L 740.903226 400.037605 
L 753.677419 388.920617 
L 766.451613 397.999352 
L 779.225806 382.446059 
" clip-path="url(#p7fc9635aaf)" style="fill: none; stroke: #000000; stroke-width: 1.5; stroke-linecap: square"/>
   </g>
   <g id="line2d_2">
    <path d="M 0 459 
L 12.774194 459 
L 25.548387 457.927902 
L 38.322581 457.355582 
L 51.096774 445.145902 
L 63.870968 441.011039 
L 76.645161 438.549598 
L 89.419355 432.903227 
L 102.193548 433.820656 
L 114.967742 436.537706 
L 127.741935 430.06367 
L 140.516129 423.514728 
L 153.290323 420.036189 
L 166.064516 409.457914 
L 178.83871 403.980451 
L 191.612903 393.338422 
L 204.387097 389.709888 
L 217.16129 388.906353 
L 229.935484 393.604399 
L 242.709677 395.992367 
L 255.483871 393.043235 
L 268.258065 391.937429 
L 281.032258 389.993888 
L 293.806452 392.211126 
L 306.580645 382.285693 
L 319.354839 369.493008 
L 332.129032 367.098757 
L 344.903226 365.516552 
L 357.677419 369.799895 
L 370.451613 375.207019 
L 383.225806 378.728 
L 396 378.687136 
L 408.774194 376.713572 
L 421.548387 376.991968 
L 434.322581 374.97843 
L 447.096774 383.033477 
L 459.870968 383.975331 
L 472.645161 384.764612 
L 485.419355 385.114884 
L 498.193548 383.229125 
L 510.967742 387.177074 
L 523.741935 389.254076 
L 536.516129 386.630941 
L 549.290323 386.010119 
L 562.064516 386.208778 
L 574.83871 384.051251 
L 587.612903 382.065181 
L 600.387097 383.559304 
L 613.16129 391.980957 
L 625.935484 397.648062 
L 638.709677 399.584071 
L 651.483871 403.31073 
L 664.258065 399.631231 
L 677.032258 401.709451 
L 689.806452 405.789469 
L 702.580645 407.655063 
L 715.354839 412.612324 
L 728.129032 410.295435 
L 740.903226 410.506467 
L 753.677419 405.251364 
L 766.451613 397.052259 
L 779.225806 397.514575 
" clip-path="url(#p7fc9635aaf)" style="fill: none; stroke: #000000; stroke-width: 1.5; stroke-linecap: square"/>
   </g>
   <g id="line2d_3">
    <path d="M 0 459 
L 12.774194 459 
L 25.548387 458.057969 
L 38.322581 457.545249 
L 51.096774 448.529582 
L 63.870968 444.474114 
L 76.645161 441.691831 
L 89.419355 437.079776 
L 102.193548 436.34588 
L 114.967742 437.26116 
L 127.741935 433.165853 
L 140.516129 428.356132 
L 153.290323 424.862779 
L 166.064516 417.196841 
L 178.83871 411.709024 
L 191.612903 403.186186 
L 204.387097 398.196233 
L 217.16129 395.211237 
L 229.935484 396.082123 
L 242.709677 396.710951 
L 255.483871 394.751482 
L 268.258065 393.559405 
L 281.032258 391.901985 
L 293.806452 392.591769 
L 306.580645 386.601716 
L 319.354839 377.751076 
L 332.129032 373.88786 
L 344.903226 370.943235 
L 357.677419 371.83708 
L 370.451613 374.399044 
L 383.225806 376.684015 
L 396 377.271467 
L 408.774194 376.514596 
L 421.548387 376.699794 
L 434.322581 375.567254 
L 447.096774 380.069238 
L 459.870968 381.469116 
L 472.645161 382.6527 
L 485.419355 383.469207 
L 498.193548 382.82902 
L 510.967742 385.259621 
L 523.741935 387.059737 
L 536.516129 386.176008 
L 549.290323 385.976795 
L 562.064516 386.115288 
L 574.83871 384.884059 
L 587.612903 383.479454 
L 600.387097 383.943782 
L 613.16129 388.778305 
L 625.935484 393.044361 
L 638.709677 395.535816 
L 651.483871 398.8925 
L 664.258065 398.034675 
L 677.032258 399.714247 
L 689.806452 402.679272 
L 702.580645 404.685396 
L 715.354839 408.465045 
L 728.129032 408.337152 
L 740.903226 409.054335 
L 753.677419 406.425964 
L 766.451613 401.283226 
L 779.225806 400.339364 
" clip-path="url(#p7fc9635aaf)" style="fill: none; stroke: #000000; stroke-width: 1.5; stroke-linecap: square"/>
   </g>
   <g id="line2d_4">
    <path d="M 0 459 
L 12.774194 459 
L 25.548387 458.126432 
L 38.322581 457.655439 
L 51.096774 450.273797 
L 63.870968 446.6651 
L 76.645161 444.079485 
L 89.419355 440.287183 
L 102.193548 439.108016 
L 114.967742 439.153412 
L 127.741935 436.168466 
L 140.516129 432.603524 
L 153.290323 429.693438 
L 166.064516 424.223535 
L 178.83871 419.74248 
L 191.612903 413.366853 
L 204.387097 408.741424 
L 217.16129 405.29239 
L 229.935484 404.145815 
L 242.709677 403.204492 
L 255.483871 401.062264 
L 268.258065 399.391725 
L 281.032258 397.548235 
L 293.806452 397.035254 
L 306.580645 393.039073 
L 319.354839 387.153645 
L 332.129032 383.53712 
L 344.903226 380.389834 
L 357.677419 379.389079 
L 370.451613 379.595438 
L 383.225806 380.024802 
L 396 379.814131 
L 408.774194 379.001368 
L 421.548387 378.663048 
L 434.322581 377.698469 
L 447.096774 379.770565 
L 459.870968 380.55106 
L 472.645161 381.311174 
L 485.419355 381.938142 
L 498.193548 381.813942 
L 510.967742 383.255957 
L 523.741935 384.499839 
L 536.516129 384.390873 
L 549.290323 384.533626 
L 562.064516 384.811971 
L 574.83871 384.339384 
L 587.612903 383.652931 
L 600.387097 383.874918 
L 613.16129 386.50266 
L 625.935484 389.17039 
L 638.709677 391.120176 
L 651.483871 393.635596 
L 664.258065 394.002728 
L 677.032258 395.55052 
L 689.806452 397.817387 
L 702.580645 399.668826 
L 715.354839 402.525449 
L 728.129032 403.421787 
L 740.903226 404.603928 
L 753.677419 403.899426 
L 766.451613 401.516723 
L 779.225806 400.967513 
" clip-path="url(#p7fc9635aaf)" style="fill: none; stroke: #000000; stroke-width: 1.5; stroke-linecap: square"/>
   </g>
   <g id="line2d_5">
    <path d="M 0 459 
L 12.774194 459 
L 25.548387 458.161114 
L 38.322581 457.713391 
L 51.096774 451.123398 
L 63.870968 447.819463 
L 76.645161 445.432048 
L 89.419355 442.127589 
L 102.193548 440.899123 
L 114.967742 440.65911 
L 127.741935 438.230967 
L 140.516129 435.374375 
L 153.290323 432.96231 
L 166.064516 428.77819 
L 178.83871 425.202656 
L 191.612903 420.337086 
L 204.387097 416.539734 
L 217.16129 413.479313 
L 229.935484 411.890998 
L 242.709677 410.505556 
L 255.483871 408.44853 
L 268.258065 406.699182 
L 281.032258 404.876709 
L 293.806452 403.865975 
L 306.580645 400.862155 
L 319.354839 396.687326 
L 332.129032 393.702653 
L 344.903226 390.953494 
L 357.677419 389.416277 
L 370.451613 388.624851 
L 383.225806 388.054943 
L 396 387.219817 
L 408.774194 386.109791 
L 421.548387 385.322133 
L 434.322581 384.232443 
L 447.096774 384.823896 
L 459.870968 384.82839 
L 472.645161 384.889522 
L 485.419355 384.938066 
L 498.193548 384.628159 
L 510.967742 385.179042 
L 523.741935 385.699194 
L 536.516129 385.551652 
L 549.290323 385.539737 
L 562.064516 385.612854 
L 574.83871 385.2989 
L 587.612903 384.858726 
L 600.387097 384.874075 
L 613.16129 386.177966 
L 625.935484 387.611316 
L 638.709677 388.770701 
L 651.483871 390.290914 
L 664.258065 390.762707 
L 677.032258 391.843829 
L 689.806452 393.337599 
L 702.580645 394.678629 
L 715.354839 396.577962 
L 728.129032 397.526878 
L 740.903226 398.622242 
L 753.677419 398.740379 
L 766.451613 397.918569 
L 779.225806 397.925308 
" clip-path="url(#p7fc9635aaf)" style="fill: none; stroke: #000000; stroke-width: 1.5; stroke-linecap: square"/>
   </g>
   <g id="line2d_6">
    <path d="M 0 459 
L 12.774194 459 
L 25.548387 458.178511 
L 38.322581 457.742914 
L 51.096774 451.537861 
L 63.870968 448.400717 
L 76.645161 446.132936 
L 89.419355 443.084551 
L 102.193548 441.874594 
L 114.967742 441.540839 
L 127.741935 439.389503 
L 140.516129 436.893987 
L 153.290323 434.769534 
L 166.064516 431.23541 
L 178.83871 428.181708 
L 191.612903 424.12998 
L 204.387097 420.894267 
L 217.16129 418.22384 
L 229.935484 416.666384 
L 242.709677 415.284611 
L 255.483871 413.438889 
L 268.258065 411.828053 
L 281.032258 410.180683 
L 293.806452 409.115018 
L 306.580645 406.6876 
L 319.354839 403.449377 
L 332.129032 400.997382 
L 344.903226 398.6994 
L 357.677419 397.207457 
L 370.451613 396.222729 
L 383.225806 395.406616 
L 396 394.443378 
L 408.774194 393.322008 
L 421.548387 392.418042 
L 434.322581 391.33932 
L 447.096774 391.322522 
L 459.870968 390.975722 
L 472.645161 390.686421 
L 485.419355 390.411077 
L 498.193548 389.937779 
L 510.967742 389.996146 
L 523.741935 390.061565 
L 536.516129 389.752679 
L 549.290323 389.5345 
L 562.064516 389.378318 
L 574.83871 389.008275 
L 587.612903 388.569812 
L 600.387097 388.397516 
L 613.16129 388.977532 
L 625.935484 389.663752 
L 638.709677 390.226304 
L 651.483871 391.01937 
L 664.258065 391.251293 
L 677.032258 391.836205 
L 689.806452 392.672992 
L 702.580645 393.451854 
L 715.354839 394.563836 
L 728.129032 395.182148 
L 740.903226 395.894245 
L 753.677419 396.084467 
L 766.451613 395.755644 
L 779.225806 395.857993 
" clip-path="url(#p7fc9635aaf)" style="fill: none; stroke: #000000; stroke-width: 1.5; stroke-linecap: square"/>
   </g>
   <g id="line2d_7">
    <path d="M 0 459 
L 12.774194 459 
L 25.548387 458.187217 
L 38.322581 457.757789 
L 51.096774 451.741948 
L 63.870968 448.690917 
L 76.645161 446.487169 
L 89.419355 443.568426 
L 102.193548 442.377412 
L 114.967742 442.009065 
L 127.741935 439.994497 
L 140.516129 437.677913 
L 153.290323 435.702491 
L 166.064516 432.48619 
L 178.83871 429.699694 
L 191.612903 426.053093 
L 204.387097 423.118694 
L 217.16129 420.678424 
L 229.935484 419.194052 
L 242.709677 417.871167 
L 255.483871 416.174058 
L 268.258065 414.681314 
L 281.032258 413.168624 
L 293.806452 412.138311 
L 306.580645 410.019172 
L 319.354839 407.254828 
L 332.129032 405.116395 
L 344.903226 403.104135 
L 357.677419 401.72825 
L 370.451613 400.755096 
L 383.225806 399.922122 
L 396 398.986489 
L 408.774194 397.93908 
L 421.548387 397.06277 
L 434.322581 396.062978 
L 447.096774 395.85975 
L 459.870968 395.4236 
L 472.645161 395.038086 
L 485.419355 394.670821 
L 498.193548 394.167659 
L 510.967742 394.053075 
L 523.741935 393.951973 
L 536.516129 393.592742 
L 549.290323 393.302704 
L 562.064516 393.061503 
L 574.83871 392.676412 
L 587.612903 392.247508 
L 600.387097 392.005154 
L 613.16129 392.283124 
L 625.935484 392.642482 
L 638.709677 392.927173 
L 651.483871 393.375041 
L 664.258065 393.455738 
L 677.032258 393.776428 
L 689.806452 394.270942 
L 702.580645 394.735438 
L 715.354839 395.42586 
L 728.129032 395.803406 
L 740.903226 396.247296 
L 753.677419 396.359757 
L 766.451613 396.140104 
L 779.225806 396.19441 
" clip-path="url(#p7fc9635aaf)" style="fill: none; stroke: #000000; stroke-width: 1.5; stroke-linecap: square"/>
   </g>
   <g id="line2d_8">
    <path d="M 0 459 
L 12.774194 459 
L 25.548387 458.191571 
L 38.322581 457.765252 
L 51.096774 451.84314 
L 63.870968 448.835727 
L 76.645161 446.664919 
L 89.419355 443.811197 
L 102.193548 442.631876 
L 114.967742 442.249204 
L 127.741935 440.302393 
L 140.516129 438.074386 
L 153.290323 436.174087 
L 166.064516 433.113656 
L 178.83871 430.460644 
L 191.612903 427.013673 
L 204.387097 424.232156 
L 217.16129 421.912731 
L 229.935484 420.476797 
L 242.709677 419.195541 
L 255.483871 417.581318 
L 268.258065 416.157831 
L 281.032258 414.722273 
L 293.806452 413.724046 
L 306.580645 411.761235 
L 319.354839 409.230287 
L 332.129032 407.255459 
L 344.903226 405.395871 
L 357.677419 404.097573 
L 370.451613 403.155186 
L 383.225806 402.339663 
L 396 401.440646 
L 408.774194 400.450211 
L 421.548387 399.61038 
L 434.322581 398.669573 
L 447.096774 398.408154 
L 459.870968 397.954797 
L 472.645161 397.548053 
L 485.419355 397.160432 
L 498.193548 396.66316 
L 510.967742 396.491549 
L 523.741935 396.334692 
L 536.516129 395.968808 
L 549.290323 395.662342 
L 562.064516 395.398413 
L 574.83871 395.020158 
L 587.612903 394.608635 
L 600.387097 394.349478 
L 613.16129 394.510287 
L 625.935484 394.739288 
L 638.709677 394.911915 
L 651.483871 395.21667 
L 664.258065 395.234311 
L 677.032258 395.442706 
L 689.806452 395.789641 
L 702.580645 396.115705 
L 715.354839 396.619742 
L 728.129032 396.884178 
L 740.903226 397.201629 
L 753.677419 397.266275 
L 766.451613 397.077666 
L 779.225806 397.098196 
" clip-path="url(#p7fc9635aaf)" style="fill: none; stroke: #000000; stroke-width: 1.5; stroke-linecap: square"/>
   </g>
   <g id="line2d_9">
    <path d="M 0 459 
L 12.774194 459 
L 25.548387 458.193748 
L 38.322581 457.768989 
L 51.096774 451.893514 
L 63.870968 448.908037 
L 76.645161 446.753913 
L 89.419355 443.932725 
L 102.193548 442.759777 
L 114.967742 442.370668 
L 127.741935 440.457547 
L 140.516129 438.273543 
L 153.290323 436.410865 
L 166.064516 433.427454 
L 178.83871 430.840936 
L 191.612903 427.492732 
L 204.387097 424.787825 
L 217.16129 422.529835 
L 229.935484 421.120684 
L 242.709677 419.862906 
L 255.483871 418.291868 
L 268.258065 416.905152 
L 281.032258 415.510179 
L 293.806452 414.531202 
L 306.580645 412.646561 
L 319.354839 410.230642 
L 332.129032 408.33844 
L 344.903226 406.556666 
L 357.677419 405.301133 
L 370.451613 404.379569 
L 383.225806 403.578544 
L 396 402.702881 
L 408.774194 401.745272 
L 421.548387 400.928756 
L 434.322581 400.021716 
L 447.096774 399.739724 
L 459.870968 399.284467 
L 472.645161 398.873798 
L 485.419355 398.482489 
L 498.193548 397.993467 
L 510.967742 397.801124 
L 523.741935 397.623855 
L 536.516129 397.259808 
L 549.290323 396.950642 
L 562.064516 396.681039 
L 574.83871 396.310468 
L 587.612903 395.911418 
L 600.387097 395.649249 
L 613.16129 395.761472 
L 625.935484 395.935483 
L 638.709677 396.060912 
L 651.483871 396.304081 
L 664.258065 396.295672 
L 677.032258 396.455698 
L 689.806452 396.738067 
L 702.580645 397.003173 
L 715.354839 397.424365 
L 728.129032 397.638048 
L 740.903226 397.89847 
L 753.677419 397.940686 
L 766.451613 397.764601 
L 779.225806 397.769107 
" clip-path="url(#p7fc9635aaf)" style="fill: none; stroke: #000000; stroke-width: 1.5; stroke-linecap: square"/>
   </g>
  </g>
 </g>
 <defs>
  <clipPath id="p7fc9635aaf">
   <rect x="0" y="0" width="792" height="612"/>
  </clipPath>
 </defs>
</svg>
