<?xml version="1.0" encoding="utf-8" standalone="no"?>
<!DOCTYPE svg PUBLIC "-//W3C//DTD SVG 1.1//EN"
  "http://www.w3.org/Graphics/SVG/1.1/DTD/svg11.dtd">
<svg xmlns:xlink="http://www.w3.org/1999/xlink" width="792pt" height="612pt" viewBox="0 0 792 612" xmlns="http://www.w3.org/2000/svg" version="1.1">
 <metadata>
  <rdf:RDF xmlns:dc="http://purl.org/dc/elements/1.1/" xmlns:cc="http://creativecommons.org/ns#" xmlns:rdf="http://www.w3.org/1999/02/22-rdf-syntax-ns#">
   <cc:Work>
    <dc:type rdf:resource="http://purl.org/dc/dcmitype/StillImage"/>
    <dc:date>2023-01-30T17:16:27.504611</dc:date>
    <dc:format>image/svg+xml</dc:format>
    <dc:creator>
     <cc:Agent>
      <dc:title>Matplotlib v3.6.2, https://matplotlib.org/</dc:title>
     </cc:Agent>
    </dc:creator>
   </cc:Work>
  </rdf:RDF>
 </metadata>
 <defs>
  <style type="text/css">*{stroke-linejoin: round; stroke-linecap: butt}</style>
 </defs>
 <g id="figure_1">
  <g id="patch_1">
   <path d="M 0 612 
L 792 612 
L 792 0 
L 0 0 
z
" style="fill: #ffffff"/>
  </g>
  <g id="axes_1">
   <g id="line2d_1">
    <path d="M 0 306 
L 12.983607 305.689813 
L 25.967213 295.147989 
L 38.95082 305.74151 
L 51.934426 296.180767 
L 64.918033 308.093733 
L 77.901639 307.266592 
L 90.885246 312.306253 
L 103.868852 306.025849 
L 116.852459 300.856541 
L 129.836066 306.413583 
L 142.819672 304.268138 
L 155.803279 309.928826 
L 168.786885 292.257603 
L 181.770492 296.103301 
L 194.754098 311.040092 
L 207.737705 305.50887 
L 220.721311 312.409605 
L 233.704918 310.109738 
L 246.688525 307.008106 
L 259.672131 303.751181 
L 272.655738 303.492707 
L 285.639344 307.550924 
L 298.622951 303.311777 
L 311.606557 317.368308 
L 324.590164 302.148708 
L 337.57377 306.413583 
L 350.557377 305.948302 
L 363.540984 303.415165 
L 376.52459 312.099547 
L 389.508197 306.129245 
L 402.491803 301.425075 
L 415.47541 306.904711 
L 428.459016 306.620374 
L 441.442623 303.182543 
L 454.42623 304.862651 
L 467.409836 309.101769 
L 480.393443 315.586826 
L 493.377049 307.783558 
L 506.360656 304.862651 
L 519.344262 309.411921 
L 532.327869 299.151169 
L 545.311475 310.833354 
L 558.295082 309.747912 
L 571.278689 305.793208 
L 584.262295 310.988407 
L 597.245902 300.107166 
L 610.229508 307.680166 
L 623.213115 299.409534 
L 636.196721 299.073662 
L 649.180328 311.660277 
L 662.163934 296.284058 
L 675.147541 305.819057 
L 688.131148 302.536387 
L 701.114754 303.441013 
L 714.098361 305.405475 
L 727.081967 305.586417 
L 740.065574 313.520533 
L 753.04918 315.948343 
L 766.032787 317.161797 
L 779.016393 300.262203 
" clip-path="url(#pa2f068bbfd)" style="fill: none; stroke: #000000; stroke-width: 1.5; stroke-linecap: square"/>
   </g>
   <g id="line2d_2">
    <path d="M 0 306 
L 12.983607 306 
L 25.967213 305.793208 
L 38.95082 299.708511 
L 51.934426 302.9258 
L 64.918033 299.443706 
L 77.901639 303.836929 
L 90.885246 305.565249 
L 103.868852 308.949326 
L 116.852459 307.487672 
L 129.836066 304.162414 
L 142.819672 305.310087 
L 155.803279 304.78622 
L 168.786885 307.384583 
L 181.770492 299.786257 
L 194.754098 297.922607 
L 207.737705 304.478168 
L 220.721311 304.992502 
L 233.704918 308.724104 
L 246.688525 309.424185 
L 259.672131 308.221552 
L 272.655738 305.974252 
L 285.639344 304.755506 
L 298.622951 306.175672 
L 311.606557 304.728543 
L 324.590164 311.073838 
L 337.57377 306.591282 
L 350.557377 306.495185 
L 363.540984 306.219665 
L 376.52459 304.816732 
L 389.508197 308.475364 
L 402.491803 307.299536 
L 415.47541 304.358455 
L 428.459016 305.611049 
L 441.442623 306.12448 
L 454.42623 304.647145 
L 467.409836 304.752769 
L 480.393443 306.938466 
L 493.377049 311.270538 
L 506.360656 309.530406 
L 519.344262 307.203339 
L 532.327869 308.312576 
L 545.311475 303.716717 
L 558.295082 307.29021 
L 571.278689 308.52868 
L 584.262295 307.15448 
L 597.245902 309.062543 
L 610.229508 304.569499 
L 623.213115 306.13036 
L 636.196721 302.749945 
L 649.180328 300.911468 
L 662.163934 306.287582 
L 675.147541 301.25816 
L 688.131148 303.538522 
L 701.114754 303.020875 
L 714.098361 303.23748 
L 727.081967 304.316996 
L 740.065574 304.963815 
L 753.04918 309.271137 
L 766.032787 312.618937 
L 779.016393 314.931775 
" clip-path="url(#pa2f068bbfd)" style="fill: none; stroke: #000000; stroke-width: 1.5; stroke-linecap: square"/>
   </g>
   <g id="line2d_3">
    <path d="M 0 306 
L 12.983607 306 
L 25.967213 305.818296 
L 38.95082 300.982161 
L 51.934426 302.840641 
L 64.918033 300.470465 
L 77.901639 303.021945 
L 90.885246 304.385668 
L 103.868852 306.860479 
L 116.852459 306.604719 
L 129.836066 304.866667 
L 142.819672 305.329983 
L 155.803279 305.014037 
L 168.786885 306.469689 
L 181.770492 302.271743 
L 194.754098 300.454472 
L 207.737705 303.566843 
L 220.721311 304.135072 
L 233.704918 306.566604 
L 246.688525 307.621612 
L 259.672131 307.443376 
L 272.655738 306.370652 
L 285.639344 305.522421 
L 298.622951 306.116886 
L 311.606557 305.284937 
L 324.590164 308.83856 
L 337.57377 306.880628 
L 350.557377 306.743834 
L 363.540984 306.512758 
L 376.52459 305.597995 
L 389.508197 307.525281 
L 402.491803 307.127915 
L 415.47541 305.446452 
L 428.459016 305.87517 
L 441.442623 306.086785 
L 454.42623 305.228173 
L 467.409836 305.11865 
L 480.393443 306.291454 
L 493.377049 309.02872 
L 506.360656 308.664297 
L 519.344262 307.552635 
L 532.327869 308.088081 
L 545.311475 305.466764 
L 558.295082 307.043792 
L 571.278689 307.840211 
L 584.262295 307.243398 
L 597.245902 308.339098 
L 610.229508 305.920922 
L 623.213115 306.443382 
L 636.196721 304.374322 
L 649.180328 302.812883 
L 662.163934 305.414072 
L 675.147541 302.729262 
L 688.131148 303.630431 
L 701.114754 303.294993 
L 714.098361 303.332774 
L 727.081967 303.94046 
L 740.065574 304.418148 
L 753.04918 307.101111 
L 766.032787 309.699134 
L 779.016393 311.894268 
" clip-path="url(#pa2f068bbfd)" style="fill: none; stroke: #000000; stroke-width: 1.5; stroke-linecap: square"/>
   </g>
   <g id="line2d_4">
    <path d="M 0 306 
L 12.983607 306 
L 25.967213 305.831502 
L 38.95082 301.637115 
L 51.934426 302.943063 
L 64.918033 301.086042 
L 77.901639 302.810581 
L 90.885246 303.819452 
L 103.868852 305.619987 
L 116.852459 305.701749 
L 129.836066 304.765233 
L 142.819672 305.073281 
L 155.803279 304.926879 
L 168.786885 305.816218 
L 181.770492 303.448277 
L 194.754098 302.185389 
L 207.737705 303.688082 
L 220.721311 303.993838 
L 233.704918 305.39486 
L 246.688525 306.174008 
L 259.672131 306.310998 
L 272.655738 305.892724 
L 285.639344 305.502235 
L 298.622951 305.834362 
L 311.606557 305.426629 
L 324.590164 307.352723 
L 337.57377 306.51547 
L 350.557377 306.499107 
L 363.540984 306.410782 
L 376.52459 305.931007 
L 389.508197 306.918023 
L 402.491803 306.79194 
L 415.47541 305.934651 
L 428.459016 306.089556 
L 441.442623 306.174592 
L 454.42623 305.703549 
L 467.409836 305.56921 
L 480.393443 306.139334 
L 493.377049 307.647624 
L 506.360656 307.669574 
L 519.344262 307.218345 
L 532.327869 307.569477 
L 545.311475 306.22886 
L 558.295082 306.96427 
L 571.278689 307.410599 
L 584.262295 307.150689 
L 597.245902 307.773031 
L 610.229508 306.555765 
L 623.213115 306.732566 
L 636.196721 305.563479 
L 649.180328 304.522426 
L 662.163934 305.659145 
L 675.147541 304.160344 
L 688.131148 304.425537 
L 701.114754 304.124358 
L 714.098361 304.013069 
L 727.081967 304.235908 
L 740.065574 304.443422 
L 753.04918 305.894949 
L 766.032787 307.500977 
L 779.016393 309.045745 
" clip-path="url(#pa2f068bbfd)" style="fill: none; stroke: #000000; stroke-width: 1.5; stroke-linecap: square"/>
   </g>
   <g id="line2d_5">
    <path d="M 0 306 
L 12.983607 306 
L 25.967213 305.838192 
L 38.95082 301.960565 
L 51.934426 303.031881 
L 64.918033 301.414046 
L 77.901639 302.781416 
L 90.885246 303.599962 
L 103.868852 305.045246 
L 116.852459 305.195543 
L 129.836066 304.574106 
L 142.819672 304.822569 
L 155.803279 304.751386 
L 168.786885 305.387266 
L 181.770492 303.835459 
L 194.754098 302.952866 
L 207.737705 303.847805 
L 220.721311 304.026668 
L 233.704918 304.907692 
L 246.688525 305.442571 
L 259.672131 305.600405 
L 272.655738 305.417231 
L 285.639344 305.229609 
L 298.622951 305.452676 
L 311.606557 305.249601 
L 324.590164 306.386111 
L 337.57377 305.993096 
L 350.557377 306.031718 
L 363.540984 306.024123 
L 376.52459 305.788486 
L 389.508197 306.354408 
L 402.491803 306.334354 
L 415.47541 305.89971 
L 428.459016 305.988192 
L 441.442623 306.043571 
L 454.42623 305.794087 
L 467.409836 305.713207 
L 480.393443 306.006332 
L 493.377049 306.832433 
L 506.360656 306.914158 
L 519.344262 306.7384 
L 532.327869 306.966848 
L 545.311475 306.300577 
L 558.295082 306.686102 
L 571.278689 306.945976 
L 584.262295 306.848323 
L 597.245902 307.198472 
L 610.229508 306.599663 
L 623.213115 306.690765 
L 636.196721 306.077583 
L 649.180328 305.488447 
L 662.163934 306.006985 
L 675.147541 305.190734 
L 688.131148 305.243416 
L 701.114754 305.016626 
L 714.098361 304.884729 
L 727.081967 304.928289 
L 740.065574 304.983305 
L 753.04918 305.696669 
L 766.032787 306.552966 
L 779.016393 307.43875 
" clip-path="url(#pa2f068bbfd)" style="fill: none; stroke: #000000; stroke-width: 1.5; stroke-linecap: square"/>
   </g>
   <g id="line2d_6">
    <path d="M 0 306 
L 12.983607 306 
L 25.967213 305.841547 
L 38.95082 302.120165 
L 51.934426 303.085089 
L 64.918033 301.581572 
L 77.901639 302.787653 
L 90.885246 303.513534 
L 103.868852 304.786382 
L 116.852459 304.949137 
L 129.836066 304.455565 
L 142.819672 304.674554 
L 155.803279 304.632051 
L 168.786885 305.153577 
L 181.770492 303.950431 
L 194.754098 303.253962 
L 207.737705 303.914178 
L 220.721311 304.043895 
L 233.704918 304.698947 
L 246.688525 305.107919 
L 259.672131 305.246925 
L 272.655738 305.140768 
L 285.639344 305.027049 
L 298.622951 305.196683 
L 311.606557 305.07306 
L 324.590164 305.861493 
L 337.57377 305.628553 
L 350.557377 305.676822 
L 363.540984 305.693201 
L 376.52459 305.558176 
L 389.508197 305.939503 
L 402.491803 305.950389 
L 415.47541 305.694559 
L 428.459016 305.762014 
L 441.442623 305.80923 
L 454.42623 305.666539 
L 467.409836 305.623384 
L 480.393443 305.808033 
L 493.377049 306.321796 
L 506.360656 306.397801 
L 519.344262 306.318739 
L 532.327869 306.476611 
L 545.311475 306.105893 
L 558.295082 306.343172 
L 571.278689 306.512735 
L 584.262295 306.477166 
L 597.245902 306.698635 
L 610.229508 306.377189 
L 623.213115 306.440323 
L 636.196721 306.10166 
L 649.180328 305.765063 
L 662.163934 306.045849 
L 675.147541 305.583214 
L 688.131148 305.594332 
L 701.114754 305.450849 
L 714.098361 305.356971 
L 727.081967 305.359227 
L 740.065574 305.36975 
L 753.04918 305.745865 
L 766.032787 306.214976 
L 779.016393 306.716576 
" clip-path="url(#pa2f068bbfd)" style="fill: none; stroke: #000000; stroke-width: 1.5; stroke-linecap: square"/>
   </g>
   <g id="line2d_7">
    <path d="M 0 306 
L 12.983607 306 
L 25.967213 305.843227 
L 38.95082 302.199297 
L 51.934426 303.113768 
L 64.918033 301.665975 
L 77.901639 302.795991 
L 90.885246 303.476848 
L 103.868852 304.666064 
L 116.852459 304.830567 
L 129.836066 304.39328 
L 142.819672 304.59747 
L 155.803279 304.566639 
L 168.786885 305.034836 
L 181.770492 303.987455 
L 194.754098 303.37823 
L 207.737705 303.938774 
L 220.721311 304.047989 
L 233.704918 304.602968 
L 246.688525 304.952727 
L 259.672131 305.077996 
L 272.655738 305.000203 
L 285.639344 304.914986 
L 298.622951 305.058936 
L 311.606557 304.966584 
L 324.590164 305.60239 
L 337.57377 305.430517 
L 350.557377 305.478088 
L 363.540984 305.500245 
L 376.52459 305.404453 
L 389.508197 305.704705 
L 402.491803 305.723306 
L 415.47541 305.539087 
L 428.459016 305.596385 
L 441.442623 305.638484 
L 454.42623 305.539459 
L 467.409836 305.512677 
L 480.393443 305.652176 
L 493.377049 306.031802 
L 506.360656 306.097616 
L 519.344262 306.051955 
L 532.327869 306.174288 
L 545.311475 305.922327 
L 558.295082 306.095992 
L 571.278689 306.223354 
L 584.262295 306.208552 
L 597.245902 306.370938 
L 610.229508 306.16077 
L 623.213115 306.211135 
L 636.196721 305.988258 
L 649.180328 305.764214 
L 662.163934 305.953172 
L 675.147541 305.64648 
L 688.131148 305.651897 
L 701.114754 305.555075 
L 714.098361 305.490005 
L 727.081967 305.487427 
L 740.065574 305.490419 
L 753.04918 305.731017 
L 766.032787 306.034608 
L 779.016393 306.362554 
" clip-path="url(#pa2f068bbfd)" style="fill: none; stroke: #000000; stroke-width: 1.5; stroke-linecap: square"/>
   </g>
   <g id="line2d_8">
    <path d="M 0 306 
L 12.983607 306 
L 25.967213 305.844066 
L 38.95082 302.238679 
L 51.934426 303.128607 
L 64.918033 301.708304 
L 77.901639 302.801453 
L 90.885246 303.460201 
L 103.868852 304.608399 
L 116.852459 304.7728 
L 129.836066 304.361772 
L 142.819672 304.558561 
L 155.803279 304.532892 
L 168.786885 304.975479 
L 181.770492 304.001049 
L 194.754098 303.433471 
L 207.737705 303.948477 
L 220.721311 304.048429 
L 233.704918 304.556971 
L 246.688525 304.878586 
L 259.672131 304.99637 
L 272.655738 304.930433 
L 285.639344 304.857382 
L 298.622951 304.988969 
L 311.606557 304.910037 
L 324.590164 305.476037 
L 337.57377 305.329984 
L 350.557377 305.376021 
L 363.540984 305.399587 
L 376.52459 305.320279 
L 389.508197 305.583553 
L 402.491803 305.604164 
L 415.47541 305.450454 
L 428.459016 305.502583 
L 441.442623 305.541671 
L 454.42623 305.461121 
L 467.409836 305.441154 
L 480.393443 305.560589 
L 493.377049 305.880808 
L 506.360656 305.940302 
L 519.344262 305.907283 
L 532.327869 306.012574 
L 545.311475 305.810307 
L 558.295082 305.95565 
L 571.278689 306.063419 
L 584.262295 306.055874 
L 597.245902 306.1913 
L 610.229508 306.026992 
L 623.213115 306.07092 
L 636.196721 305.896643 
L 649.180328 305.72084 
L 662.163934 305.871607 
L 675.147541 305.631685 
L 688.131148 305.636306 
L 701.114754 305.560892 
L 714.098361 305.510011 
L 727.081967 305.507535 
L 740.065574 305.50938 
L 753.04918 305.694428 
L 766.032787 305.928435 
L 779.016393 306.181769 
" clip-path="url(#pa2f068bbfd)" style="fill: none; stroke: #000000; stroke-width: 1.5; stroke-linecap: square"/>
   </g>
   <g id="line2d_9">
    <path d="M 0 306 
L 12.983607 306 
L 25.967213 305.844486 
L 38.95082 302.258323 
L 51.934426 303.13615 
L 64.918033 301.729495 
L 77.901639 302.804505 
L 90.885246 303.452308 
L 103.868852 304.580214 
L 116.852459 304.744339 
L 129.836066 304.345977 
L 142.819672 304.539069 
L 155.803279 304.515812 
L 168.786885 304.945871 
L 181.770492 304.006661 
L 194.754098 303.459358 
L 207.737705 303.952644 
L 220.721311 304.048204 
L 233.704918 304.534457 
L 246.688525 304.842421 
L 259.672131 304.956365 
L 272.655738 304.895813 
L 285.639344 304.828343 
L 298.622951 304.953899 
L 311.606557 304.88113 
L 324.590164 305.413966 
L 337.57377 305.279687 
L 350.557377 305.324706 
L 363.540984 305.348643 
L 376.52459 305.276793 
L 389.508197 305.522553 
L 402.491803 305.543755 
L 415.47541 305.40394 
L 428.459016 305.453468 
L 441.442623 305.490944 
L 454.42623 305.418736 
L 467.409836 305.40178 
L 480.393443 305.511837 
L 493.377049 305.80448 
L 506.360656 305.860621 
L 519.344262 305.832947 
L 532.327869 305.930029 
L 545.311475 305.750035 
L 558.295082 305.882201 
L 571.278689 305.980678 
L 584.262295 305.975997 
L 597.245902 306.098775 
L 610.229508 305.954756 
L 623.213115 305.995466 
L 636.196721 305.84283 
L 649.180328 305.688683 
L 662.163934 305.822337 
L 675.147541 305.612369 
L 688.131148 305.616843 
L 701.114754 305.551226 
L 714.098361 305.50698 
L 727.081967 305.504885 
L 740.065574 305.506543 
L 753.04918 305.667143 
L 766.032787 305.870237 
L 779.016393 306.090156 
" clip-path="url(#pa2f068bbfd)" style="fill: none; stroke: #000000; stroke-width: 1.5; stroke-linecap: square"/>
   </g>
  </g>
 </g>
 <defs>
  <clipPath id="pa2f068bbfd">
   <rect x="0" y="0" width="792" height="612"/>
  </clipPath>
 </defs>
</svg>
