<?xml version="1.0" encoding="utf-8" standalone="no"?>
<!DOCTYPE svg PUBLIC "-//W3C//DTD SVG 1.1//EN"
  "http://www.w3.org/Graphics/SVG/1.1/DTD/svg11.dtd">
<svg xmlns:xlink="http://www.w3.org/1999/xlink" width="792pt" height="612pt" viewBox="0 0 792 612" xmlns="http://www.w3.org/2000/svg" version="1.1">
 <metadata>
  <rdf:RDF xmlns:dc="http://purl.org/dc/elements/1.1/" xmlns:cc="http://creativecommons.org/ns#" xmlns:rdf="http://www.w3.org/1999/02/22-rdf-syntax-ns#">
   <cc:Work>
    <dc:type rdf:resource="http://purl.org/dc/dcmitype/StillImage"/>
    <dc:date>2022-12-19T20:27:58.321075</dc:date>
    <dc:format>image/svg+xml</dc:format>
    <dc:creator>
     <cc:Agent>
      <dc:title>Matplotlib v3.6.2, https://matplotlib.org/</dc:title>
     </cc:Agent>
    </dc:creator>
   </cc:Work>
  </rdf:RDF>
 </metadata>
 <defs>
  <style type="text/css">*{stroke-linejoin: round; stroke-linecap: butt}</style>
 </defs>
 <g id="figure_1">
  <g id="patch_1">
   <path d="M 0 612 
L 792 612 
L 792 0 
L 0 0 
z
" style="fill: #ffffff"/>
  </g>
  <g id="axes_1">
   <g id="line2d_1">
    <path d="M 0 306 
L 12.375 315.306425 
L 24.75 313.239212 
L 37.125 308.733609 
L 49.5 305.532073 
L 61.875 305.926117 
L 74.25 306.295533 
L 86.625 310.211082 
L 99 307.650044 
L 111.375 308.832112 
L 123.75 305.975372 
L 136.125 307.453027 
L 148.5 301.394955 
L 160.875 310.875885 
L 173.25 310.432688 
L 185.625 299.302317 
L 198 300.090071 
L 210.375 307.108245 
L 222.75 315.970715 
L 235.125 314.863516 
L 247.5 303.685034 
L 259.875 305.064148 
L 272.25 305.729095 
L 284.625 292.930612 
L 297 307.551536 
L 309.375 305.433562 
L 321.75 300.853282 
L 334.125 310.309574 
L 346.5 308.684358 
L 358.875 296.890419 
L 371.25 302.133646 
L 383.625 305.704467 
L 396 295.660276 
L 408.375 305.753722 
L 420.75 296.644365 
L 433.125 307.994821 
L 445.5 307.206754 
L 457.875 312.008403 
L 470.25 306.024628 
L 482.625 301.099493 
L 495 306.394044 
L 507.375 304.349956 
L 519.75 309.743234 
L 532.125 292.906029 
L 544.5 296.570552 
L 556.875 310.80202 
L 569.25 305.532073 
L 581.625 312.106875 
L 594 309.915601 
L 606.375 306.96048 
L 618.75 303.857419 
L 631.125 303.611155 
L 643.5 307.477655 
L 655.875 303.438772 
L 668.25 316.83169 
L 680.625 302.330639 
L 693 306.394044 
L 705.375 305.950744 
L 717.75 303.537277 
L 730.125 311.811454 
L 742.5 306.123139 
L 754.875 301.64118 
L 767.25 306.86197 
L 779.625 306.591066 
" clip-path="url(#p4eecabfaaf)" style="fill: none; stroke: #000000; stroke-width: 1.5; stroke-linecap: square"/>
   </g>
   <g id="line2d_2">
    <path d="M 0 306 
L 12.375 306 
L 24.75 312.205346 
L 37.125 312.796146 
L 49.5 310.629667 
L 61.875 307.998793 
L 74.25 306.946016 
L 86.625 306.618214 
L 99 308.421776 
L 111.375 308.039149 
L 123.75 308.422935 
L 136.125 307.184928 
L 148.5 307.316467 
L 160.875 304.347445 
L 173.25 307.621554 
L 185.625 309.035297 
L 198 304.146952 
L 210.375 302.103518 
L 222.75 304.602408 
L 235.125 310.307643 
L 247.5 312.600473 
L 259.875 308.147699 
L 272.25 306.594543 
L 284.625 306.152596 
L 297 299.526085 
L 309.375 303.553018 
L 321.75 304.489992 
L 334.125 302.641873 
L 346.5 306.466865 
L 358.875 307.585435 
L 371.25 302.220748 
L 383.625 302.170148 
L 396 303.9623 
L 408.375 299.786834 
L 420.75 302.770599 
L 433.125 299.698597 
L 445.5 303.841774 
L 457.875 305.521353 
L 470.25 308.794836 
L 482.625 307.41739 
L 495 304.249226 
L 507.375 305.342681 
L 519.75 304.843563 
L 532.125 307.319171 
L 544.5 300.079741 
L 556.875 298.304046 
L 569.25 304.550063 
L 581.625 305.0401 
L 594 308.595415 
L 606.375 309.262428 
L 618.75 308.116602 
L 631.125 305.975469 
L 643.5 304.8143 
L 655.875 306.167372 
L 668.25 304.78861 
L 680.625 310.834173 
L 693 306.563347 
L 705.375 306.47179 
L 717.75 306.209288 
L 730.125 304.872633 
L 742.5 308.358424 
L 754.875 307.238142 
L 767.25 304.436006 
L 779.625 305.629425 
" clip-path="url(#p4eecabfaaf)" style="fill: none; stroke: #000000; stroke-width: 1.5; stroke-linecap: square"/>
   </g>
   <g id="line2d_3">
    <path d="M 0 306 
L 12.375 306 
L 24.75 311.452682 
L 37.125 312.26218 
L 49.5 310.884334 
L 61.875 308.980235 
L 74.25 307.95795 
L 86.625 307.423837 
L 99 308.294674 
L 111.375 308.097138 
L 123.75 308.319354 
L 136.125 307.617321 
L 148.5 307.568436 
L 160.875 305.739972 
L 173.25 307.256205 
L 185.625 308.191802 
L 198 305.577634 
L 210.375 303.96339 
L 222.75 304.875062 
L 235.125 308.12904 
L 247.5 310.109069 
L 259.875 308.225514 
L 272.25 307.2986 
L 284.625 306.838255 
L 297 302.742737 
L 309.375 304.151028 
L 321.75 304.522765 
L 334.125 303.442024 
L 346.5 305.456806 
L 358.875 306.410527 
L 371.25 303.605345 
L 383.625 303.164748 
L 396 303.915944 
L 408.375 301.491973 
L 420.75 302.738548 
L 433.125 300.930919 
L 445.5 302.991773 
L 457.875 304.230311 
L 470.25 306.51665 
L 482.625 306.37288 
L 495 304.837615 
L 507.375 305.29215 
L 519.75 305.014941 
L 532.125 306.41009 
L 544.5 302.432661 
L 556.875 300.701312 
L 569.25 303.675509 
L 581.625 304.223176 
L 594 306.539836 
L 606.375 307.545003 
L 618.75 307.375187 
L 631.125 306.353141 
L 643.5 305.544983 
L 655.875 306.111364 
L 668.25 305.318719 
L 680.625 308.704463 
L 693 306.839024 
L 705.375 306.708693 
L 717.75 306.488534 
L 730.125 305.616987 
L 742.5 307.453223 
L 754.875 307.074629 
L 767.25 305.472603 
L 779.625 305.881067 
" clip-path="url(#p4eecabfaaf)" style="fill: none; stroke: #000000; stroke-width: 1.5; stroke-linecap: square"/>
   </g>
   <g id="line2d_4">
    <path d="M 0 306 
L 12.375 306 
L 24.75 311.056476 
L 37.125 311.913195 
L 49.5 310.901534 
L 61.875 309.427624 
L 74.25 308.56588 
L 86.625 308.051848 
L 99 308.509928 
L 111.375 308.336704 
L 123.75 308.432452 
L 136.125 307.973277 
L 148.5 307.87868 
L 160.875 306.725884 
L 173.25 307.450246 
L 185.625 307.962899 
L 198 306.492948 
L 210.375 305.417595 
L 222.75 305.699021 
L 235.125 307.396936 
L 247.5 308.623568 
L 259.875 307.81665 
L 272.25 307.368829 
L 284.625 307.103005 
L 297 304.811059 
L 309.375 305.252882 
L 321.75 305.28195 
L 334.125 304.570657 
L 346.5 305.490966 
L 358.875 306.002417 
L 371.25 304.544192 
L 383.625 304.158856 
L 396 304.405728 
L 408.375 303.007298 
L 420.75 303.438282 
L 433.125 302.346648 
L 445.5 303.244764 
L 457.875 303.876149 
L 470.25 305.173911 
L 482.625 305.309094 
L 495 304.633587 
L 507.375 304.912895 
L 519.75 304.820532 
L 532.125 305.606128 
L 544.5 303.575193 
L 556.875 302.457358 
L 569.25 303.784946 
L 581.625 304.059856 
L 594 305.348264 
L 606.375 306.081108 
L 618.75 306.220927 
L 631.125 305.837319 
L 643.5 305.476099 
L 655.875 305.796921 
L 668.25 305.420708 
L 680.625 307.243879 
L 693 306.468012 
L 705.375 306.455522 
L 717.75 306.375533 
L 730.125 305.925622 
L 742.5 306.863126 
L 754.875 306.743793 
L 767.25 305.934869 
L 779.625 306.085325 
" clip-path="url(#p4eecabfaaf)" style="fill: none; stroke: #000000; stroke-width: 1.5; stroke-linecap: square"/>
   </g>
   <g id="line2d_5">
    <path d="M 0 306 
L 12.375 306 
L 24.75 310.855761 
L 37.125 311.720071 
L 49.5 310.873896 
L 61.875 309.613023 
L 74.25 308.858261 
L 86.625 308.390555 
L 99 308.692763 
L 111.375 308.532948 
L 123.75 308.575791 
L 136.125 308.224555 
L 148.5 308.125501 
L 160.875 307.298881 
L 173.25 307.7214 
L 185.625 308.030789 
L 198 307.064789 
L 210.375 306.313661 
L 222.75 306.397162 
L 235.125 307.381836 
L 247.5 308.13635 
L 259.875 307.695443 
L 272.25 307.43893 
L 284.625 307.274625 
L 297 305.913311 
L 309.375 306.066882 
L 321.75 306.008145 
L 334.125 305.534631 
L 346.5 305.969382 
L 358.875 306.214595 
L 371.25 305.378349 
L 383.625 305.089338 
L 396 305.143795 
L 408.375 304.308517 
L 420.75 304.435114 
L 433.125 303.755547 
L 445.5 304.123647 
L 457.875 304.390335 
L 470.25 305.047063 
L 482.625 305.131059 
L 495 304.78563 
L 507.375 304.923059 
L 519.75 304.87421 
L 532.125 305.28831 
L 544.5 304.236748 
L 556.875 303.587104 
L 569.25 304.197259 
L 581.625 304.309962 
L 594 304.967402 
L 606.375 305.384068 
L 618.75 305.516645 
L 631.125 305.377254 
L 643.5 305.229035 
L 655.875 305.417571 
L 668.25 305.251795 
L 680.625 306.221515 
L 693 305.896031 
L 705.375 305.937662 
L 717.75 305.938755 
L 730.125 305.73823 
L 742.5 306.245141 
L 754.875 306.234964 
L 767.25 305.851894 
L 779.625 305.936085 
" clip-path="url(#p4eecabfaaf)" style="fill: none; stroke: #000000; stroke-width: 1.5; stroke-linecap: square"/>
   </g>
   <g id="line2d_6">
    <path d="M 0 306 
L 12.375 306 
L 24.75 310.755073 
L 37.125 311.619327 
L 49.5 310.85044 
L 61.875 309.692808 
L 74.25 308.995178 
L 86.625 308.557653 
L 99 308.797001 
L 111.375 308.646397 
L 123.75 308.668792 
L 136.125 308.367563 
L 148.5 308.271922 
L 160.875 307.594816 
L 173.25 307.900742 
L 185.625 308.125396 
L 198 307.377188 
L 210.375 306.784367 
L 222.75 306.809725 
L 235.125 307.502387 
L 247.5 308.041048 
L 259.875 307.731902 
L 272.25 307.547831 
L 284.625 307.425593 
L 297 306.474438 
L 309.375 306.543478 
L 321.75 306.473846 
L 334.125 306.128231 
L 346.5 306.380526 
L 358.875 306.51708 
L 371.25 305.95581 
L 383.625 305.736499 
L 396 305.734688 
L 408.375 305.172911 
L 420.75 305.20486 
L 433.125 304.739682 
L 445.5 304.914424 
L 457.875 305.036107 
L 470.25 305.402341 
L 482.625 305.434697 
L 495 305.21141 
L 507.375 305.271767 
L 519.75 305.225124 
L 532.125 305.451884 
L 544.5 304.826714 
L 556.875 304.418444 
L 569.25 304.731815 
L 581.625 304.770837 
L 594 305.126328 
L 606.375 305.356997 
L 618.75 305.43378 
L 631.125 305.358706 
L 643.5 305.275911 
L 655.875 305.379705 
L 668.25 305.288636 
L 680.625 305.827999 
L 693 305.665337 
L 705.375 305.699089 
L 717.75 305.710699 
L 730.125 305.610797 
L 742.5 305.894824 
L 754.875 305.905246 
L 767.25 305.711228 
L 779.625 305.763422 
" clip-path="url(#p4eecabfaaf)" style="fill: none; stroke: #000000; stroke-width: 1.5; stroke-linecap: square"/>
   </g>
   <g id="line2d_7">
    <path d="M 0 306 
L 12.375 306 
L 24.75 310.704687 
L 37.125 311.567983 
L 49.5 310.836275 
L 61.875 309.729121 
L 74.25 309.060525 
L 86.625 308.639422 
L 99 308.851102 
L 111.375 308.705804 
L 123.75 308.719701 
L 136.125 308.442343 
L 148.5 308.34973 
L 160.875 307.742487 
L 173.25 307.999182 
L 185.625 308.187167 
L 198 307.537098 
L 210.375 307.019032 
L 222.75 307.024953 
L 235.125 307.593334 
L 247.5 308.036568 
L 259.875 307.781441 
L 272.25 307.627843 
L 284.625 307.524153 
L 297 306.752375 
L 309.375 306.79333 
L 321.75 306.725665 
L 334.125 306.441471 
L 346.5 306.623751 
L 358.875 306.718419 
L 371.25 306.2776 
L 383.625 306.096023 
L 396 306.079242 
L 408.375 305.64193 
L 420.75 305.646527 
L 433.125 305.283451 
L 445.5 305.390745 
L 457.875 305.461326 
L 470.25 305.711455 
L 482.625 305.723221 
L 495 305.552252 
L 507.375 305.582899 
L 519.75 305.538673 
L 532.125 305.68735 
L 544.5 305.241343 
L 556.875 304.942873 
L 569.25 305.141919 
L 581.625 305.155008 
L 594 305.385469 
L 606.375 305.533898 
L 618.75 305.580114 
L 631.125 305.52491 
L 643.5 305.464227 
L 655.875 305.527419 
L 668.25 305.462511 
L 680.625 305.812581 
L 693 305.706398 
L 705.375 305.727179 
L 717.75 305.733876 
L 730.125 305.668629 
L 742.5 305.849613 
L 754.875 305.857606 
L 767.25 305.735328 
L 779.625 305.767753 
" clip-path="url(#p4eecabfaaf)" style="fill: none; stroke: #000000; stroke-width: 1.5; stroke-linecap: square"/>
   </g>
   <g id="line2d_8">
    <path d="M 0 306 
L 12.375 306 
L 24.75 310.679489 
L 37.125 311.542078 
L 49.5 310.828584 
L 61.875 309.746344 
L 74.25 309.092327 
L 86.625 308.679708 
L 99 308.878473 
L 111.375 308.735998 
L 123.75 308.746084 
L 136.125 308.480354 
L 148.5 308.389554 
L 160.875 307.815849 
L 173.25 308.050162 
L 185.625 308.221331 
L 198 307.617425 
L 210.375 307.135205 
L 222.75 307.133565 
L 235.125 307.64559 
L 247.5 308.044939 
L 259.875 307.814078 
L 272.25 307.674361 
L 284.625 307.57933 
L 297 306.889585 
L 309.375 306.919646 
L 321.75 306.854419 
L 334.125 306.599439 
L 346.5 306.752231 
L 358.875 306.829449 
L 371.25 306.443408 
L 383.625 306.280617 
L 396 306.259427 
L 408.375 305.879353 
L 420.75 305.874959 
L 433.125 305.559703 
L 445.5 305.640946 
L 457.875 305.692032 
L 470.25 305.893727 
L 482.625 305.89782 
L 495 305.750792 
L 507.375 305.770117 
L 519.75 305.728259 
L 532.125 305.844429 
L 544.5 305.476534 
L 556.875 305.22776 
L 569.25 305.380802 
L 581.625 305.384886 
L 594 305.563521 
L 606.375 305.677369 
L 618.75 305.710424 
L 631.125 305.663391 
L 643.5 305.612052 
L 655.875 305.658066 
L 668.25 305.604077 
L 680.625 305.873663 
L 693 305.789732 
L 705.375 305.803864 
L 717.75 305.807256 
L 730.125 305.755469 
L 742.5 305.891999 
L 754.875 305.897148 
L 767.25 305.803399 
L 779.625 305.826456 
" clip-path="url(#p4eecabfaaf)" style="fill: none; stroke: #000000; stroke-width: 1.5; stroke-linecap: square"/>
   </g>
   <g id="line2d_9">
    <path d="M 0 306 
L 12.375 306 
L 24.75 310.666889 
L 37.125 311.529069 
L 49.5 310.824586 
L 61.875 309.754719 
L 74.25 309.107998 
L 86.625 308.699682 
L 99 308.892216 
L 111.375 308.751193 
L 123.75 308.759483 
L 136.125 308.499486 
L 148.5 308.409663 
L 160.875 307.85236 
L 173.25 308.076029 
L 185.625 308.239176 
L 198 307.657603 
L 210.375 307.192873 
L 222.75 307.187952 
L 235.125 307.67326 
L 247.5 308.051683 
L 259.875 307.8323 
L 272.25 307.699195 
L 284.625 307.608341 
L 297 306.957588 
L 309.375 306.982922 
L 321.75 306.919211 
L 334.125 306.678358 
L 346.5 306.817757 
L 358.875 306.887122 
L 371.25 306.52698 
L 383.625 306.373441 
L 396 306.350733 
L 408.375 305.997799 
L 420.75 305.98996 
L 433.125 305.697541 
L 445.5 305.767588 
L 457.875 305.810395 
L 470.25 305.990392 
L 482.625 305.991363 
L 495 305.8557 
L 507.375 305.870302 
L 519.75 305.82994 
L 532.125 305.931682 
L 544.5 305.599673 
L 556.875 305.374123 
L 569.25 305.507076 
L 581.625 305.507677 
L 594 305.663398 
L 606.375 305.761938 
L 618.75 305.789226 
L 631.125 305.745993 
L 643.5 305.699013 
L 655.875 305.737514 
L 668.25 305.68855 
L 680.625 305.922281 
L 693 305.848126 
L 705.375 305.859227 
L 717.75 305.861061 
L 730.125 305.815172 
L 742.5 305.93192 
L 754.875 305.935591 
L 767.25 305.854264 
L 779.625 305.873092 
" clip-path="url(#p4eecabfaaf)" style="fill: none; stroke: #000000; stroke-width: 1.5; stroke-linecap: square"/>
   </g>
  </g>
 </g>
 <defs>
  <clipPath id="p4eecabfaaf">
   <rect x="0" y="0" width="792" height="612"/>
  </clipPath>
 </defs>
</svg>
