<?xml version="1.0" encoding="utf-8" standalone="no"?>
<!DOCTYPE svg PUBLIC "-//W3C//DTD SVG 1.1//EN"
  "http://www.w3.org/Graphics/SVG/1.1/DTD/svg11.dtd">
<svg xmlns:xlink="http://www.w3.org/1999/xlink" width="792pt" height="612pt" viewBox="0 0 792 612" xmlns="http://www.w3.org/2000/svg" version="1.1">
 <metadata>
  <rdf:RDF xmlns:dc="http://purl.org/dc/elements/1.1/" xmlns:cc="http://creativecommons.org/ns#" xmlns:rdf="http://www.w3.org/1999/02/22-rdf-syntax-ns#">
   <cc:Work>
    <dc:type rdf:resource="http://purl.org/dc/dcmitype/StillImage"/>
    <dc:date>2023-01-02T15:38:16.639408</dc:date>
    <dc:format>image/svg+xml</dc:format>
    <dc:creator>
     <cc:Agent>
      <dc:title>Matplotlib v3.6.2, https://matplotlib.org/</dc:title>
     </cc:Agent>
    </dc:creator>
   </cc:Work>
  </rdf:RDF>
 </metadata>
 <defs>
  <style type="text/css">*{stroke-linejoin: round; stroke-linecap: butt}</style>
 </defs>
 <g id="figure_1">
  <g id="patch_1">
   <path d="M 0 612 
L 792 612 
L 792 0 
L 0 0 
z
" style="fill: #ffffff"/>
  </g>
  <g id="axes_1">
   <g id="line2d_1">
    <path d="M 0 306 
L 41.684211 308.705465 
L 83.368421 305.862763 
L 125.052632 307.274339 
L 166.736842 306.431317 
L 208.421053 299.315646 
L 250.105263 305.588288 
L 291.789474 312.684354 
L 333.473684 313.624895 
L 375.157895 313.683674 
L 416.842105 308.52903 
L 458.526316 304.647241 
L 500.210526 303.255327 
L 541.894737 309.5092 
L 583.578947 302.647623 
L 625.263158 307.235129 
L 666.947368 310.665707 
L 708.631579 299.511608 
L 750.315789 305.156973 
" clip-path="url(#pad078feead)" style="fill: none; stroke: #000000; stroke-width: 1.5; stroke-linecap: square"/>
   </g>
   <g id="line2d_2">
    <path d="M 0 306 
L 41.684211 306 
L 83.368421 307.80367 
L 125.052632 306.694588 
L 166.736842 307.003789 
L 208.421053 306.70832 
L 250.105263 302.952872 
L 291.789474 304.280924 
L 333.473684 308.499586 
L 375.157895 311.077545 
L 416.842105 312.390485 
L 458.526316 310.465162 
L 500.210526 307.551191 
L 541.894737 305.397002 
L 583.578947 307.473156 
L 625.263158 305.054565 
L 666.947368 306.134162 
L 708.631579 308.394262 
L 750.315789 303.924711 
" clip-path="url(#pad078feead)" style="fill: none; stroke: #000000; stroke-width: 1.5; stroke-linecap: square"/>
   </g>
   <g id="line2d_3">
    <path d="M 0 306 
L 41.684211 306 
L 83.368421 307.584852 
L 125.052632 306.80461 
L 166.736842 306.988051 
L 208.421053 306.789972 
L 250.105263 304.287716 
L 291.789474 304.705574 
L 333.473684 307.198621 
L 375.157895 309.168237 
L 416.842105 310.533676 
L 458.526316 309.933294 
L 500.210526 308.360573 
L 541.894737 306.848585 
L 583.578947 307.634028 
L 625.263158 306.165402 
L 666.947368 306.479948 
L 708.631579 307.711377 
L 750.315789 305.298888 
" clip-path="url(#pad078feead)" style="fill: none; stroke: #000000; stroke-width: 1.5; stroke-linecap: square"/>
   </g>
   <g id="line2d_4">
    <path d="M 0 306 
L 41.684211 306 
L 83.368421 307.469672 
L 125.052632 306.839023 
L 166.736842 306.977544 
L 208.421053 306.827589 
L 250.105263 304.978492 
L 291.789474 305.11656 
L 333.473684 306.7222 
L 375.157895 308.113062 
L 416.842105 309.189912 
L 458.526316 309.066406 
L 500.210526 308.262899 
L 541.894737 307.372606 
L 583.578947 307.745521 
L 625.263158 306.869292 
L 666.947368 306.931379 
L 708.631579 307.558532 
L 750.315789 306.218889 
" clip-path="url(#pad078feead)" style="fill: none; stroke: #000000; stroke-width: 1.5; stroke-linecap: square"/>
   </g>
   <g id="line2d_5">
    <path d="M 0 306 
L 41.684211 306 
L 83.368421 307.411325 
L 125.052632 306.849829 
L 166.736842 306.970121 
L 208.421053 306.842928 
L 250.105263 305.301669 
L 291.789474 305.35398 
L 333.473684 306.570938 
L 375.157895 307.652332 
L 416.842105 308.516251 
L 458.526316 308.517977 
L 500.210526 308.021041 
L 541.894737 307.435754 
L 583.578947 307.68066 
L 625.263158 307.106367 
L 666.947368 307.120616 
L 708.631579 307.502391 
L 750.315789 306.662563 
" clip-path="url(#pad078feead)" style="fill: none; stroke: #000000; stroke-width: 1.5; stroke-linecap: square"/>
   </g>
   <g id="line2d_6">
    <path d="M 0 306 
L 41.684211 306 
L 83.368421 307.382056 
L 125.052632 306.853538 
L 166.736842 306.96567 
L 208.421053 306.849346 
L 250.105263 305.453731 
L 291.789474 305.475539 
L 333.473684 306.519179 
L 375.157895 307.452435 
L 416.842105 308.204021 
L 458.526316 308.240371 
L 500.210526 307.86461 
L 541.894737 307.410791 
L 583.578947 307.606438 
L 625.263158 307.166481 
L 666.947368 307.172302 
L 708.631579 307.456495 
L 750.315789 306.83438 
" clip-path="url(#pad078feead)" style="fill: none; stroke: #000000; stroke-width: 1.5; stroke-linecap: square"/>
   </g>
   <g id="line2d_7">
    <path d="M 0 306 
L 41.684211 306 
L 83.368421 307.367409 
L 125.052632 306.854962 
L 166.736842 306.963237 
L 208.421053 306.852196 
L 250.105263 305.526931 
L 291.789474 305.536276 
L 333.473684 306.499115 
L 375.157895 307.361362 
L 416.842105 308.05713 
L 458.526316 308.104826 
L 500.210526 307.781154 
L 541.894737 307.385997 
L 583.578947 307.559927 
L 625.263158 307.180483 
L 666.947368 307.184481 
L 708.631579 307.426659 
L 750.315789 306.901306 
" clip-path="url(#pad078feead)" style="fill: none; stroke: #000000; stroke-width: 1.5; stroke-linecap: square"/>
   </g>
   <g id="line2d_8">
    <path d="M 0 306 
L 41.684211 306 
L 83.368421 307.360084 
L 125.052632 306.855566 
L 166.736842 306.961966 
L 208.421053 306.853526 
L 250.105263 305.562772 
L 291.789474 305.566537 
L 333.473684 306.490491 
L 375.157895 307.31815 
L 416.842105 307.986321 
L 458.526316 308.038373 
L 500.210526 307.738652 
L 541.894737 307.37093 
L 583.578947 307.534654 
L 625.263158 307.183573 
L 666.947368 307.187063 
L 708.631579 307.409914 
L 750.315789 306.929513 
" clip-path="url(#pad078feead)" style="fill: none; stroke: #000000; stroke-width: 1.5; stroke-linecap: square"/>
   </g>
   <g id="line2d_9">
    <path d="M 0 306 
L 41.684211 306 
L 83.368421 307.356422 
L 125.052632 306.85584 
L 166.736842 306.961317 
L 208.421053 306.854166 
L 250.105263 305.580498 
L 291.789474 305.581629 
L 333.473684 306.486523 
L 375.157895 307.297136 
L 416.842105 307.95161 
L 458.526316 308.005537 
L 500.210526 307.717276 
L 541.894737 307.362789 
L 583.578947 307.521566 
L 625.263158 307.184172 
L 666.947368 307.187487 
L 708.631579 307.40109 
L 750.315789 306.94227 
" clip-path="url(#pad078feead)" style="fill: none; stroke: #000000; stroke-width: 1.5; stroke-linecap: square"/>
   </g>
  </g>
 </g>
 <defs>
  <clipPath id="pad078feead">
   <rect x="0" y="0" width="792" height="612"/>
  </clipPath>
 </defs>
</svg>
