<?xml version="1.0" encoding="utf-8" standalone="no"?>
<!DOCTYPE svg PUBLIC "-//W3C//DTD SVG 1.1//EN"
  "http://www.w3.org/Graphics/SVG/1.1/DTD/svg11.dtd">
<svg xmlns:xlink="http://www.w3.org/1999/xlink" width="792pt" height="612pt" viewBox="0 0 792 612" xmlns="http://www.w3.org/2000/svg" version="1.1">
 <metadata>
  <rdf:RDF xmlns:dc="http://purl.org/dc/elements/1.1/" xmlns:cc="http://creativecommons.org/ns#" xmlns:rdf="http://www.w3.org/1999/02/22-rdf-syntax-ns#">
   <cc:Work>
    <dc:type rdf:resource="http://purl.org/dc/dcmitype/StillImage"/>
    <dc:date>2023-01-02T15:40:23.400367</dc:date>
    <dc:format>image/svg+xml</dc:format>
    <dc:creator>
     <cc:Agent>
      <dc:title>Matplotlib v3.6.2, https://matplotlib.org/</dc:title>
     </cc:Agent>
    </dc:creator>
   </cc:Work>
  </rdf:RDF>
 </metadata>
 <defs>
  <style type="text/css">*{stroke-linejoin: round; stroke-linecap: butt}</style>
 </defs>
 <g id="figure_1">
  <g id="patch_1">
   <path d="M 0 612 
L 792 612 
L 792 0 
L 0 0 
z
" style="fill: #ffffff"/>
  </g>
  <g id="axes_1">
   <g id="line2d_1">
    <path d="M 0 306 
L 3.155378 296.179938 
L 6.310757 309.3653 
L 9.466135 303.926195 
L 12.621514 303.307721 
L 15.776892 307.164253 
L 18.932271 303.016681 
L 22.087649 307.655415 
L 25.243028 308.146567 
L 28.398406 314.893161 
L 31.553785 310.056477 
L 34.709163 314.693219 
L 37.864542 306.855 
L 41.01992 309.965535 
L 44.175299 305.654361 
L 47.330677 280.265319 
L 50.486056 301.9799 
L 53.641434 312.220652 
L 56.796813 296.616105 
L 59.952191 300.979584 
L 63.10757 299.233848 
L 66.262948 304.872129 
L 69.418327 306.218299 
L 72.573705 302.707457 
L 75.729084 302.325484 
L 78.884462 294.853516 
L 82.039841 301.634325 
L 85.195219 307.619033 
L 88.350598 312.729787 
L 91.505976 305.01766 
L 94.661355 295.761982 
L 97.816733 305.27234 
L 100.972112 310.856735 
L 104.12749 307.509886 
L 107.282869 310.438426 
L 110.438247 312.347939 
L 113.593625 307.091488 
L 116.749004 296.25263 
L 119.904382 304.490114 
L 123.059761 335.884114 
L 126.215139 301.907146 
L 129.370518 306.764043 
L 132.525896 318.617775 
L 135.681275 331.084302 
L 138.836653 304.326394 
L 141.992032 290.368887 
L 145.14741 304.271821 
L 148.302789 309.092458 
L 151.458167 297.106839 
L 154.613546 300.088483 
L 157.768924 297.688508 
L 160.924303 294.435687 
L 164.079681 299.1793 
L 167.23506 308.965129 
L 170.390438 301.925334 
L 173.545817 315.656504 
L 176.701195 300.779533 
L 179.856574 303.471433 
L 183.011952 307.055106 
L 186.167331 303.744289 
L 189.322709 308.146567 
L 192.478088 311.020416 
L 195.633466 305.690744 
L 198.788845 305.108617 
L 201.944223 310.111042 
L 205.099602 309.074268 
L 208.25498 308.401235 
L 211.410359 303.616956 
L 214.565737 317.146484 
L 217.721116 309.692705 
L 220.876494 298.633847 
L 224.031873 303.14401 
L 227.187251 299.961191 
L 230.342629 301.106891 
L 233.498008 303.653337 
L 236.653386 310.947669 
L 239.808765 315.456592 
L 242.964143 299.524776 
L 246.119522 315.910925 
L 249.2749 307.855515 
L 252.430279 298.088441 
L 255.585657 319.217026 
L 258.741036 311.620556 
L 261.896414 305.108617 
L 265.051793 295.616615 
L 268.207171 318.381679 
L 271.36255 313.020705 
L 274.517928 317.146484 
L 277.673307 304.526496 
L 280.828685 310.438426 
L 283.984064 317.128316 
L 287.139442 296.034558 
L 290.294821 310.220171 
L 293.450199 296.143593 
L 296.605578 316.456067 
L 299.760956 309.820026 
L 302.916335 307.382548 
L 306.071713 295.453083 
L 309.227092 312.202468 
L 312.38247 297.125015 
L 315.537849 297.161368 
L 318.693227 298.306598 
L 321.848606 307.41893 
L 325.003984 311.565999 
L 328.159363 299.852085 
L 331.314741 310.201983 
L 334.47012 305.654361 
L 337.625498 302.962112 
L 340.780876 310.965856 
L 343.936255 315.056744 
L 350.247012 320.778221 
L 353.40239 309.074268 
L 356.557769 303.053061 
L 359.713147 321.848834 
L 362.868526 293.854431 
L 366.023904 304.944894 
L 369.179283 306.673086 
L 372.334661 310.984043 
L 375.49004 297.815757 
L 378.645418 309.38349 
L 381.800797 309.820026 
L 384.956175 310.947669 
L 388.111554 307.546268 
L 391.266932 302.762026 
L 394.422311 307.364357 
L 397.577689 308.72866 
L 400.733068 300.761347 
L 403.888446 304.672025 
L 407.043825 308.146567 
L 410.199203 308.546758 
L 413.354582 305.599786 
L 416.50996 311.311398 
L 419.665339 295.089699 
L 422.820717 306.272873 
L 425.976096 296.089075 
L 429.131474 303.908005 
L 432.286853 303.726099 
L 435.442231 300.852278 
L 438.59761 304.58107 
L 441.752988 313.202522 
L 444.908367 302.725647 
L 448.063745 305.072234 
L 451.219124 302.580132 
L 454.374502 307.25521 
L 457.52988 309.147027 
L 460.685259 299.033842 
L 463.840637 303.380481 
L 466.996016 304.835747 
L 470.151394 306.418405 
L 473.306773 303.23496 
L 476.462151 299.379311 
L 479.61753 304.999469 
L 482.772908 300.815905 
L 485.928287 306.800426 
L 489.083665 306.090958 
L 492.239044 308.637709 
L 495.394422 304.635643 
L 498.549801 310.383863 
L 501.705179 314.256957 
L 504.860558 306.673086 
L 508.015936 302.725647 
L 511.171315 300.361259 
L 514.326693 314.947689 
L 517.482072 311.038603 
L 520.63745 305.781701 
L 523.792829 310.838548 
L 526.948207 307.619033 
L 530.103586 308.401235 
L 533.258964 308.164758 
L 536.414343 299.361128 
L 539.569721 303.689718 
L 542.7251 297.052311 
L 545.880478 298.706572 
L 549.035857 318.908333 
L 552.191235 304.271821 
L 555.346614 306.309256 
L 558.501992 311.547814 
L 561.657371 301.852581 
L 564.812749 309.419868 
L 567.968127 314.675042 
L 571.123506 316.328873 
L 574.278884 311.038603 
L 577.434263 311.111349 
L 580.589641 305.927234 
L 583.74502 300.415815 
L 586.900398 311.038603 
L 590.055777 311.238653 
L 593.211155 296.706978 
L 596.366534 296.107248 
L 599.521912 307.982851 
L 602.677291 309.619949 
L 605.832669 312.147915 
L 608.988048 308.71047 
L 612.143426 306.291065 
L 615.298805 307.109679 
L 618.454183 297.25225 
L 621.609562 314.620511 
L 624.76494 297.397666 
L 627.920319 297.90665 
L 631.075697 309.674516 
L 634.231076 308.81961 
L 637.386454 310.329299 
L 640.541833 303.10763 
L 643.697211 296.198111 
L 646.85259 306.254682 
L 650.007968 305.836276 
L 653.163347 299.688429 
L 656.318725 309.619949 
L 659.474104 308.492187 
L 662.629482 312.51159 
L 665.784861 313.620682 
L 668.940239 296.161765 
L 672.095618 301.888958 
L 675.250996 300.143037 
L 678.406375 313.89338 
L 681.561753 289.842756 
L 684.717131 305.745318 
L 687.87251 307.382548 
L 691.027888 306.436597 
L 694.183267 308.401235 
L 697.338645 309.510814 
L 700.494024 302.61651 
L 703.649402 305.436063 
L 706.804781 302.780215 
L 709.960159 307.182445 
L 713.115538 305.599786 
L 716.270916 311.966071 
L 719.426295 299.54296 
L 722.581673 300.233962 
L 725.737052 306.163724 
L 728.89243 307.364357 
L 732.047809 307.218827 
L 735.203187 308.510377 
L 738.358566 305.872659 
L 741.513944 307.182445 
L 744.669323 306.400214 
L 747.824701 299.797532 
L 750.98008 305.617978 
L 754.135458 312.202468 
L 757.290837 313.07525 
L 760.446215 313.129795 
L 763.601594 308.346663 
L 766.756972 304.74479 
L 769.912351 303.453242 
L 773.067729 309.256164 
L 776.223108 302.889353 
L 779.378486 307.146062 
L 782.533865 310.329299 
L 785.689243 299.979375 
L 788.844622 305.217765 
L 788.844622 305.217765 
" clip-path="url(#p8459115756)" style="fill: none; stroke: #000000; stroke-width: 1.5; stroke-linecap: square"/>
   </g>
   <g id="line2d_2">
    <path d="M 0 306 
L 3.155378 306 
L 6.310757 299.452043 
L 9.466135 305.116413 
L 15.776892 303.875731 
L 18.932271 305.546078 
L 22.087649 304.271392 
L 25.243028 305.970037 
L 28.398406 307.062525 
L 31.553785 311.015353 
L 34.709163 310.537281 
L 37.864542 312.636662 
L 41.01992 309.75312 
L 44.175299 309.86482 
L 47.330677 307.764846 
L 50.486056 293.937055 
L 53.641434 297.945004 
L 56.796813 305.077085 
L 59.952191 300.819257 
L 63.10757 300.872533 
L 66.262948 300.038208 
L 69.418327 302.444961 
L 72.573705 304.332672 
L 75.729084 303.564168 
L 78.884462 302.945491 
L 82.039841 298.864215 
L 85.195219 300.258994 
L 88.350598 303.951734 
L 91.505976 308.367707 
L 94.661355 306.69299 
L 97.816733 301.205458 
L 100.972112 303.243806 
L 104.12749 307.067162 
L 107.282869 307.31335 
L 110.438247 308.893226 
L 113.593625 310.630002 
L 116.749004 308.849784 
L 119.904382 302.532554 
L 123.059761 303.528429 
L 126.215139 319.804855 
L 129.370518 310.842613 
L 132.525896 308.801991 
L 135.681275 313.727909 
L 138.836653 322.45609 
L 141.992032 313.392319 
L 145.14741 301.863209 
L 148.302789 303.067042 
L 151.458167 306.027038 
L 154.613546 301.556581 
L 157.768924 300.809415 
L 160.924303 299.20775 
L 164.079681 296.749244 
L 167.23506 297.954058 
L 170.390438 303.495258 
L 173.545817 302.705674 
L 176.701195 309.195389 
L 179.856574 304.994475 
L 183.011952 304.239577 
L 186.167331 305.665704 
L 189.322709 304.723246 
L 192.478088 306.452505 
L 195.633466 308.740644 
L 198.788845 307.223107 
L 201.944223 306.145176 
L 205.099602 308.146496 
L 208.25498 308.621373 
L 211.410359 308.513944 
L 214.565737 306.065204 
L 217.721116 311.625334 
L 220.876494 310.656462 
L 224.031873 304.630792 
L 227.187251 303.883537 
L 230.342629 301.902296 
L 233.498008 301.488966 
L 236.653386 302.5618 
L 242.964143 311.110636 
L 246.119522 305.297522 
L 249.2749 310.639487 
L 252.430279 309.256806 
L 255.585657 303.668174 
L 258.741036 311.481632 
L 261.896414 311.566712 
L 265.051793 308.326476 
L 268.207171 301.930898 
L 271.36255 310.196277 
L 274.517928 311.602941 
L 277.673307 314.393614 
L 280.828685 309.47358 
L 283.984064 309.938787 
L 287.139442 313.545394 
L 290.294821 304.771185 
L 293.450199 307.524439 
L 296.605578 301.788959 
L 299.760956 309.131048 
L 302.916335 309.461169 
L 306.071713 308.427486 
L 309.227092 301.909072 
L 312.38247 307.046402 
L 315.537849 302.086819 
L 318.693227 299.598081 
L 321.848606 298.95655 
L 328.159363 307.371419 
L 331.314741 303.596625 
L 334.47012 306.928337 
L 337.625498 306.278509 
L 340.780876 304.631719 
L 343.936255 307.826053 
L 347.091633 311.475 
L 350.247012 314.722872 
L 353.40239 317.769757 
L 356.557769 313.441586 
L 359.713147 308.233954 
L 362.868526 315.077628 
L 366.023904 304.446313 
L 369.179283 304.683796 
L 372.334661 305.661994 
L 375.49004 308.309569 
L 378.645418 303.016752 
L 381.800797 306.200749 
L 384.956175 308.023727 
L 388.111554 309.464378 
L 391.266932 308.532205 
L 394.422311 305.642804 
L 397.577689 306.50494 
L 400.733068 307.612398 
L 403.888446 304.192423 
L 407.043825 304.422985 
L 410.199203 306.281505 
L 413.354582 307.409443 
L 416.50996 306.500802 
L 419.665339 308.923043 
L 422.820717 301.980256 
L 425.976096 304.121657 
L 429.131474 300.095186 
L 432.286853 301.999943 
L 435.442231 302.854329 
L 438.59761 301.838174 
L 441.752988 303.207568 
L 444.908367 308.209343 
L 448.063745 305.482433 
L 451.219124 305.274979 
L 454.374502 303.940249 
L 460.685259 307.386329 
L 463.840637 303.205999 
L 466.996016 303.290886 
L 470.151394 304.046897 
L 473.306773 305.23988 
L 476.462151 304.233799 
L 479.61753 301.800014 
L 482.772908 303.395248 
L 485.928287 302.089173 
L 489.083665 304.459938 
L 492.239044 305.280758 
L 495.394422 306.966717 
L 498.549801 305.797681 
L 501.705179 308.104907 
L 504.860558 311.210625 
L 508.015936 308.945299 
L 511.171315 305.839201 
L 514.326693 303.087372 
L 517.482072 309.036034 
L 520.63745 310.042069 
L 523.792829 307.914225 
L 526.948207 309.377355 
L 530.103586 308.485196 
L 536.414343 308.316346 
L 539.569721 303.836312 
L 542.7251 303.740936 
L 545.880478 300.368533 
L 549.035857 299.523635 
L 552.191235 309.23505 
L 555.346614 306.746922 
L 558.501992 306.523987 
L 561.657371 309.042739 
L 564.812749 305.452471 
L 567.968127 307.447466 
L 571.123506 311.096515 
L 574.278884 313.7478 
L 577.434263 312.377888 
L 580.589641 311.75805 
L 583.74502 308.842151 
L 586.900398 304.606894 
L 590.055777 307.840962 
L 593.211155 309.543483 
L 596.366534 303.088727 
L 599.521912 299.557506 
L 602.677291 303.763764 
L 605.832669 306.688995 
L 608.988048 309.430925 
L 612.143426 309.086965 
L 615.298805 307.679741 
L 618.454183 307.386614 
L 621.609562 302.319493 
L 624.76494 308.50731 
L 627.920319 302.930725 
L 631.075697 300.395348 
L 634.231076 305.029859 
L 637.386454 306.924984 
L 640.541833 308.635141 
L 643.697211 305.863528 
L 646.85259 301.027511 
L 650.007968 303.624517 
L 653.163347 304.74693 
L 656.318725 302.220916 
L 659.474104 305.920314 
L 662.629482 307.20563 
L 665.784861 309.86318 
L 668.940239 311.762757 
L 672.095618 303.960865 
L 675.250996 302.916316 
L 678.406375 301.518423 
L 681.561753 307.734456 
L 684.717131 298.743647 
L 687.87251 302.238606 
L 691.027888 304.800434 
L 694.183267 305.604423 
L 697.338645 307.026855 
L 700.494024 308.283817 
L 703.649402 305.454968 
L 706.804781 305.428929 
L 709.960159 304.129932 
L 713.115538 305.658998 
L 716.270916 305.625896 
L 719.426295 308.807127 
L 722.581673 304.157254 
L 725.737052 302.177263 
L 728.89243 304.177371 
L 732.047809 305.774639 
L 735.203187 306.505439 
L 738.358566 307.510528 
L 741.513944 306.692134 
L 744.669323 306.927909 
L 747.824701 306.677509 
L 750.98008 303.236316 
L 754.135458 304.426053 
L 757.290837 308.324122 
L 760.446215 310.711452 
L 763.601594 311.929773 
L 766.756972 310.14321 
L 769.912351 307.439333 
L 773.067729 305.440486 
L 776.223108 307.366925 
L 779.378486 305.122742 
L 782.533865 306.124487 
L 785.689243 308.221612 
L 788.844622 304.074361 
L 788.844622 304.074361 
" clip-path="url(#p8459115756)" style="fill: none; stroke: #000000; stroke-width: 1.5; stroke-linecap: square"/>
   </g>
   <g id="line2d_3">
    <path d="M 0 306 
L 3.155378 306 
L 6.310757 300.246243 
L 9.466135 304.377628 
L 12.621514 304.201332 
L 15.776892 303.883391 
L 18.932271 304.981594 
L 22.087649 304.350267 
L 25.243028 305.382854 
L 28.398406 306.229765 
L 31.553785 308.849743 
L 34.709163 309.211185 
L 37.864542 310.842697 
L 41.01992 309.66179 
L 44.175299 309.751456 
L 47.330677 308.544852 
L 50.486056 300.212302 
L 53.641434 300.725368 
L 56.796813 304.110594 
L 59.952191 301.900228 
L 63.10757 301.627185 
L 66.262948 300.921445 
L 72.573705 303.292723 
L 78.884462 302.877503 
L 82.039841 300.503375 
L 85.195219 300.824937 
L 88.350598 302.806525 
L 91.505976 305.719966 
L 94.661355 305.508581 
L 97.816733 302.641517 
L 100.972112 303.440824 
L 104.12749 305.623168 
L 107.282869 306.170367 
L 110.438247 307.436413 
L 113.593625 308.888213 
L 116.749004 308.371006 
L 119.904382 304.810785 
L 123.059761 304.714877 
L 126.215139 313.908572 
L 129.370518 310.393827 
L 132.525896 309.344455 
L 135.681275 312.081453 
L 138.836653 317.68568 
L 141.992032 313.76553 
L 145.14741 306.893159 
L 148.302789 306.135162 
L 151.458167 307.005749 
L 154.613546 304.089923 
L 157.768924 302.909275 
L 160.924303 301.365182 
L 164.079681 299.314198 
L 167.23506 299.265602 
L 170.390438 302.120599 
L 173.545817 302.060462 
L 176.701195 306.020096 
L 179.856574 304.483739 
L 183.011952 304.183455 
L 186.167331 305.011243 
L 189.322709 304.608688 
L 192.478088 305.649301 
L 195.633466 307.246325 
L 201.944223 306.294613 
L 205.099602 307.427421 
L 208.25498 307.920106 
L 211.410359 308.073333 
L 214.565737 306.778649 
L 217.721116 309.837207 
L 220.876494 309.795719 
L 224.031873 306.522421 
L 227.187251 305.518508 
L 230.342629 303.889671 
L 233.498008 303.071841 
L 236.653386 303.238248 
L 239.808765 305.504633 
L 242.964143 308.428725 
L 246.119522 305.807366 
L 249.2749 308.779312 
L 252.430279 308.511898 
L 255.585657 305.44465 
L 258.741036 309.492403 
L 261.896414 310.119466 
L 265.051793 308.653645 
L 268.207171 304.809333 
L 271.36255 308.796468 
L 274.517928 310.050425 
L 277.673307 312.145688 
L 280.828685 309.919689 
L 283.984064 310.082343 
L 287.139442 312.16232 
L 290.294821 307.421021 
L 293.450199 308.234901 
L 296.605578 304.68859 
L 299.760956 308.136983 
L 302.916335 308.632209 
L 306.071713 308.276876 
L 309.227092 304.492382 
L 312.38247 306.751521 
L 315.537849 303.922114 
L 318.693227 301.943208 
L 321.848606 300.854844 
L 325.003984 302.770764 
L 328.159363 305.34051 
L 331.314741 303.727416 
L 334.47012 305.62355 
L 337.625498 305.619389 
L 340.780876 304.849028 
L 343.936255 306.641585 
L 350.247012 311.708736 
L 353.40239 314.37947 
L 356.557769 312.827934 
L 359.713147 309.974225 
L 362.868526 313.466146 
L 366.023904 307.717407 
L 369.179283 306.914308 
L 372.334661 306.853268 
L 375.49004 308.067338 
L 378.645418 305.048377 
L 381.800797 306.329089 
L 388.111554 308.410724 
L 391.266932 308.1628 
L 394.422311 306.571515 
L 397.577689 306.794896 
L 400.733068 307.350723 
L 403.888446 305.397591 
L 407.043825 305.18002 
L 410.199203 306.054761 
L 413.354582 306.769371 
L 416.50996 306.440306 
L 419.665339 307.874462 
L 422.820717 304.115267 
L 425.976096 304.741794 
L 429.131474 302.20466 
L 432.286853 302.69725 
L 435.442231 302.991587 
L 438.59761 302.353363 
L 441.752988 303.002408 
L 444.908367 306.002268 
L 448.063745 305.037206 
L 451.219124 305.043266 
L 454.374502 304.323893 
L 457.52988 305.185415 
L 460.685259 306.346924 
L 463.840637 304.193712 
L 466.996016 303.95297 
L 470.151394 304.204088 
L 473.306773 304.865655 
L 476.462151 304.384535 
L 479.61753 302.922111 
L 482.772908 303.531788 
L 485.928287 302.732922 
L 489.083665 303.931043 
L 492.239044 304.56539 
L 495.394422 305.752912 
L 498.549801 305.427863 
L 501.705179 306.885628 
L 504.860558 309.058542 
L 508.015936 308.359215 
L 511.171315 306.7018 
L 514.326693 304.846044 
L 517.482072 307.818758 
L 520.63745 308.769027 
L 523.792829 307.893358 
L 526.948207 308.764778 
L 530.103586 308.438668 
L 536.414343 308.361893 
L 539.569721 305.716812 
L 542.7251 305.120321 
L 545.880478 302.74332 
L 549.035857 301.553993 
L 552.191235 306.648784 
L 555.346614 305.941112 
L 558.501992 306.048521 
L 561.657371 307.669522 
L 564.812749 305.96743 
L 567.968127 306.972312 
L 571.123506 309.233132 
L 574.278884 311.324243 
L 580.589641 311.206904 
L 583.74502 309.657864 
L 586.900398 306.941968 
L 590.055777 308.155359 
L 593.211155 309.067179 
L 596.366534 305.445799 
L 599.521912 302.706729 
L 605.832669 305.82154 
L 608.988048 307.681425 
L 612.143426 307.979571 
L 615.298805 307.490125 
L 618.454183 307.376042 
L 621.609562 304.390158 
L 624.76494 307.385243 
L 627.920319 304.443634 
L 631.075697 302.513415 
L 634.231076 304.615112 
L 640.541833 307.16564 
L 643.697211 305.967715 
L 646.85259 303.104783 
L 650.007968 304.038992 
L 653.163347 304.562931 
L 656.318725 303.123628 
L 659.474104 305.023445 
L 662.629482 306.039179 
L 665.784861 307.942312 
L 668.940239 309.613261 
L 672.095618 305.671281 
L 675.250996 304.548776 
L 678.406375 303.261376 
L 681.561753 306.394245 
L 684.717131 301.519545 
L 691.027888 304.10595 
L 694.183267 304.792394 
L 700.494024 306.935506 
L 703.649402 305.666765 
L 706.804781 305.605796 
L 709.960159 304.770318 
L 713.115538 305.475307 
L 716.270916 305.503826 
L 719.426295 307.394884 
L 722.581673 305.098724 
L 725.737052 303.67181 
L 728.89243 304.408573 
L 732.047809 305.266795 
L 735.203187 305.858508 
L 738.358566 306.638414 
L 741.513944 306.412396 
L 744.669323 306.638796 
L 747.824701 306.566618 
L 750.98008 304.572603 
L 754.135458 304.882231 
L 757.290837 307.034293 
L 760.446215 308.815768 
L 763.601594 310.086341 
L 766.756972 309.579978 
L 773.067729 306.782787 
L 776.223108 307.517611 
L 779.378486 306.158242 
L 782.533865 306.447318 
L 785.689243 307.587968 
L 788.844622 305.349446 
L 788.844622 305.349446 
" clip-path="url(#p8459115756)" style="fill: none; stroke: #000000; stroke-width: 1.5; stroke-linecap: square"/>
   </g>
   <g id="line2d_4">
    <path d="M 0 306 
L 3.155378 306 
L 6.310757 300.664317 
L 9.466135 304.078891 
L 12.621514 304.030302 
L 15.776892 303.83193 
L 18.932271 304.652065 
L 22.087649 304.281775 
L 28.398406 305.631853 
L 31.553785 307.422251 
L 34.709163 307.914574 
L 37.864542 309.147488 
L 41.01992 308.739921 
L 44.175299 308.953835 
L 47.330677 308.386754 
L 50.486056 303.604 
L 53.641434 303.331254 
L 56.796813 304.811077 
L 59.952191 303.45647 
L 63.10757 303.049644 
L 66.262948 302.426059 
L 69.418327 302.824009 
L 72.573705 303.374246 
L 78.884462 303.11476 
L 82.039841 301.785083 
L 85.195219 301.760872 
L 88.350598 302.700168 
L 91.505976 304.306553 
L 94.661355 304.42032 
L 97.816733 303.035788 
L 100.972112 303.393012 
L 104.12749 304.583569 
L 107.282869 305.056225 
L 110.438247 305.913269 
L 113.593625 306.942445 
L 116.749004 306.968519 
L 119.904382 305.256252 
L 123.059761 305.135275 
L 126.215139 310.060161 
L 129.370518 308.759181 
L 132.525896 308.436685 
L 135.681275 310.062822 
L 138.836653 313.425395 
L 141.992032 311.976597 
L 145.14741 308.524912 
L 148.302789 307.84739 
L 151.458167 308.063514 
L 154.613546 306.316853 
L 157.768924 305.318211 
L 160.924303 304.104665 
L 164.079681 302.561458 
L 167.23506 302.023233 
L 170.390438 303.130178 
L 173.545817 302.935798 
L 176.701195 304.968217 
L 179.856574 304.300751 
L 183.011952 304.174181 
L 186.167331 304.635921 
L 189.322709 304.491639 
L 192.478088 305.070289 
L 195.633466 306.020791 
L 201.944223 305.836613 
L 205.099602 306.516263 
L 208.25498 306.924241 
L 211.410359 307.157969 
L 214.565737 306.58913 
L 217.721116 308.275863 
L 220.876494 308.509683 
L 224.031873 306.934565 
L 227.187251 306.310976 
L 230.342629 305.299365 
L 233.498008 304.628739 
L 236.653386 304.464205 
L 239.808765 305.483207 
L 242.964143 307.077429 
L 246.119522 305.881346 
L 249.2749 307.484892 
L 252.430279 307.543088 
L 255.585657 306.039163 
L 258.741036 308.149023 
L 261.896414 308.71011 
L 265.051793 308.143786 
L 268.207171 306.147839 
L 271.36255 308.101209 
L 274.517928 308.89098 
L 277.673307 310.205983 
L 280.828685 309.304787 
L 283.984064 309.489507 
L 287.139442 310.711693 
L 290.294821 308.3714 
L 293.450199 308.666855 
L 296.605578 306.664588 
L 299.760956 308.229776 
L 302.916335 308.48574 
L 306.071713 308.30852 
L 309.227092 306.254044 
L 312.38247 307.202961 
L 315.537849 305.595081 
L 318.693227 304.240401 
L 321.848606 303.289003 
L 325.003984 303.951544 
L 328.159363 305.16836 
L 331.314741 304.322337 
L 334.47012 305.263514 
L 337.625498 305.326948 
L 340.780876 304.945698 
L 343.936255 305.900789 
L 347.091633 307.36764 
L 350.247012 309.049897 
L 353.40239 310.925476 
L 356.557769 310.637817 
L 359.713147 309.421106 
L 362.868526 311.406608 
L 366.023904 308.606362 
L 369.179283 308.029655 
L 372.334661 307.806514 
L 375.49004 308.310843 
L 378.645418 306.628697 
L 388.111554 308.050791 
L 391.266932 307.977705 
L 394.422311 307.143216 
L 397.577689 307.185404 
L 400.733068 307.426124 
L 403.888446 306.360008 
L 407.043825 306.089752 
L 413.354582 306.760244 
L 416.50996 306.580901 
L 419.665339 307.342447 
L 422.820717 305.390254 
L 425.976096 305.529966 
L 429.131474 304.017703 
L 435.442231 303.954719 
L 438.59761 303.458069 
L 441.752988 303.637748 
L 444.908367 305.161109 
L 448.063745 304.765907 
L 451.219124 304.80662 
L 454.374502 304.441002 
L 457.52988 304.887612 
L 460.685259 305.569116 
L 463.840637 304.514906 
L 466.996016 304.340359 
L 470.151394 304.419108 
L 473.306773 304.73704 
L 476.462151 304.493213 
L 479.61753 303.680418 
L 482.772908 303.887544 
L 485.928287 303.393173 
L 489.083665 303.93267 
L 492.239044 304.275145 
L 495.394422 304.97291 
L 498.549801 304.917547 
L 501.705179 305.788334 
L 504.860558 307.144458 
L 508.015936 307.07071 
L 511.171315 306.375996 
L 514.326693 305.413821 
L 517.482072 306.93693 
L 520.63745 307.589412 
L 523.792829 307.308476 
L 526.948207 307.87302 
L 530.103586 307.839806 
L 536.414343 307.971748 
L 539.569721 306.600693 
L 542.7251 306.136984 
L 545.880478 304.681103 
L 549.035857 303.72784 
L 552.191235 306.152933 
L 555.346614 305.854694 
L 558.501992 305.926426 
L 561.657371 306.822402 
L 564.812749 306.033406 
L 567.968127 306.575995 
L 574.278884 309.223448 
L 580.589641 309.778113 
L 583.74502 309.166052 
L 586.900398 307.773584 
L 593.211155 308.767232 
L 596.366534 306.840563 
L 599.521912 305.126986 
L 602.677291 305.579869 
L 605.832669 306.219792 
L 608.988048 307.16652 
L 612.143426 307.415909 
L 615.298805 307.240644 
L 618.454183 307.214915 
L 621.609562 305.620842 
L 624.76494 307.058597 
L 627.920319 305.512763 
L 631.075697 304.296259 
L 634.231076 305.152769 
L 637.386454 305.736596 
L 640.541833 306.474201 
L 643.697211 305.938191 
L 646.85259 304.387457 
L 650.007968 304.689245 
L 653.163347 304.86358 
L 656.318725 304.037214 
L 659.474104 304.927522 
L 662.629482 305.492771 
L 668.940239 307.733575 
L 672.095618 305.88038 
L 675.250996 305.23628 
L 678.406375 304.419027 
L 681.561753 305.928434 
L 684.717131 303.356773 
L 687.87251 303.74011 
L 691.027888 304.317338 
L 694.183267 304.651517 
L 700.494024 305.94085 
L 703.649402 305.408566 
L 706.804781 305.41033 
L 709.960159 304.986008 
L 713.115538 305.334514 
L 716.270916 305.376289 
L 719.426295 306.427897 
L 722.581673 305.333757 
L 725.737052 304.513286 
L 728.89243 304.781344 
L 738.358566 305.994053 
L 741.513944 305.971958 
L 744.669323 306.167094 
L 747.824701 306.210552 
L 750.98008 305.186055 
L 754.135458 305.254639 
L 760.446215 307.4375 
L 763.601594 308.346227 
L 766.756972 308.343697 
L 773.067729 307.084023 
L 776.223108 307.434228 
L 779.378486 306.712827 
L 782.533865 306.777545 
L 785.689243 307.355472 
L 788.844622 306.178195 
L 788.844622 306.178195 
" clip-path="url(#p8459115756)" style="fill: none; stroke: #000000; stroke-width: 1.5; stroke-linecap: square"/>
   </g>
   <g id="line2d_5">
    <path d="M 0 306 
L 3.155378 306 
L 6.310757 300.876111 
L 9.466135 303.95402 
L 12.621514 303.946135 
L 15.776892 303.795426 
L 18.932271 304.485102 
L 22.087649 304.217093 
L 28.398406 305.302619 
L 31.553785 306.676409 
L 34.709163 307.132997 
L 37.864542 308.10391 
L 41.01992 307.950531 
L 44.175299 308.188536 
L 47.330677 307.899386 
L 50.486056 304.834649 
L 53.641434 304.527225 
L 56.796813 305.335792 
L 59.952191 304.438974 
L 63.10757 304.090172 
L 66.262948 303.609056 
L 69.418327 303.732187 
L 72.573705 303.971082 
L 78.884462 303.70819 
L 82.039841 302.886579 
L 85.195219 302.771555 
L 88.350598 303.212854 
L 91.505976 304.072442 
L 94.661355 304.157189 
L 97.816733 303.409159 
L 100.972112 303.574099 
L 104.12749 304.215286 
L 107.282869 304.503887 
L 110.438247 305.021389 
L 113.593625 305.657655 
L 116.749004 305.781684 
L 119.904382 304.960005 
L 123.059761 304.91963 
L 126.215139 307.580626 
L 129.370518 307.095846 
L 132.525896 307.067564 
L 135.681275 308.050438 
L 138.836653 310.00994 
L 141.992032 309.528525 
L 145.14741 307.907212 
L 148.302789 307.600266 
L 151.458167 307.726081 
L 154.613546 306.831719 
L 157.768924 306.264546 
L 160.924303 305.543918 
L 164.079681 304.611227 
L 167.23506 304.155703 
L 170.390438 304.558607 
L 173.545817 304.338165 
L 176.701195 305.285193 
L 179.856574 304.908504 
L 183.011952 304.788441 
L 186.167331 304.977704 
L 189.322709 304.874765 
L 192.478088 305.147694 
L 195.633466 305.637417 
L 201.944223 305.597431 
L 205.099602 305.973401 
L 211.410359 306.414448 
L 214.565737 306.182163 
L 217.721116 307.097068 
L 220.876494 307.31333 
L 224.031873 306.591429 
L 227.187251 306.303833 
L 230.342629 305.77469 
L 233.498008 305.382759 
L 236.653386 305.237137 
L 239.808765 305.709903 
L 242.964143 306.521889 
L 246.119522 305.937678 
L 249.2749 306.769043 
L 252.430279 306.868217 
L 255.585657 306.138119 
L 258.741036 307.226572 
L 261.896414 307.596183 
L 265.051793 307.391073 
L 268.207171 306.41234 
L 271.36255 307.410697 
L 274.517928 307.878608 
L 277.673307 308.65287 
L 280.828685 308.31113 
L 283.984064 308.492772 
L 287.139442 309.214872 
L 290.294821 308.116969 
L 293.450199 308.29072 
L 296.605578 307.279417 
L 299.760956 308.048094 
L 302.916335 308.196644 
L 306.071713 308.127948 
L 309.227092 307.07174 
L 312.38247 307.498206 
L 318.693227 305.842651 
L 321.848606 305.217725 
L 325.003984 305.401369 
L 328.159363 305.905113 
L 331.314741 305.401999 
L 334.47012 305.801519 
L 337.625498 305.785084 
L 340.780876 305.541609 
L 343.936255 305.993997 
L 347.091633 306.754427 
L 350.247012 307.686688 
L 353.40239 308.777934 
L 356.557769 308.806424 
L 359.713147 308.329903 
L 362.868526 309.46086 
L 366.023904 308.16497 
L 369.179283 307.899602 
L 372.334661 307.797062 
L 375.49004 308.064541 
L 378.645418 307.207985 
L 384.956175 307.594999 
L 388.111554 307.87455 
L 391.266932 307.848541 
L 394.422311 307.424629 
L 397.577689 307.418436 
L 400.733068 307.528171 
L 403.888446 306.965103 
L 407.043825 306.773017 
L 413.354582 307.024543 
L 416.50996 306.906941 
L 419.665339 307.270632 
L 422.820717 306.254532 
L 425.976096 306.258541 
L 429.131474 305.411932 
L 435.442231 305.15958 
L 438.59761 304.801144 
L 441.752988 304.780806 
L 444.908367 305.479145 
L 448.063745 305.251649 
L 451.219124 305.233229 
L 454.374502 305.011306 
L 457.52988 305.200524 
L 460.685259 305.524796 
L 463.840637 304.981879 
L 466.996016 304.848404 
L 470.151394 304.850355 
L 473.306773 304.9766 
L 476.462151 304.828861 
L 479.61753 304.37071 
L 482.772908 304.423048 
L 485.928287 304.120507 
L 495.394422 304.83207 
L 498.549801 304.818532 
L 501.705179 305.278475 
L 504.860558 306.025263 
L 508.015936 306.078799 
L 511.171315 305.802859 
L 514.326693 305.347321 
L 517.482072 306.150126 
L 520.63745 306.560405 
L 523.792829 306.498209 
L 526.948207 306.859585 
L 536.414343 307.139055 
L 539.569721 306.491388 
L 542.7251 306.259094 
L 545.880478 305.490228 
L 549.035857 304.921778 
L 552.191235 306.083558 
L 555.346614 305.927813 
L 558.501992 305.958571 
L 561.657371 306.425271 
L 564.812749 306.039223 
L 567.968127 306.324882 
L 574.278884 307.797215 
L 580.589641 308.32336 
L 583.74502 308.123373 
L 586.900398 307.480584 
L 593.211155 308.064566 
L 599.521912 306.201807 
L 602.677291 306.349386 
L 605.832669 306.623726 
L 608.988048 307.08471 
L 612.143426 307.219829 
L 618.454183 307.139819 
L 621.609562 306.314421 
L 624.76494 307.010338 
L 631.075697 305.520788 
L 640.541833 306.467058 
L 643.697211 306.187753 
L 646.85259 305.352839 
L 653.163347 305.462902 
L 656.318725 304.982631 
L 659.474104 305.368291 
L 662.629482 305.627352 
L 668.940239 306.82227 
L 672.095618 305.934387 
L 675.250996 305.597138 
L 678.406375 305.143406 
L 681.561753 305.874487 
L 684.717131 304.537743 
L 687.87251 304.63957 
L 700.494024 305.632886 
L 703.649402 305.38 
L 706.804781 305.381781 
L 709.960159 305.164586 
L 713.115538 305.333511 
L 716.270916 305.357316 
L 719.426295 305.904906 
L 725.737052 304.944686 
L 732.047809 305.236807 
L 744.669323 305.804875 
L 747.824701 305.857329 
L 750.98008 305.354676 
L 754.135458 305.372201 
L 763.601594 307.083965 
L 766.756972 307.190879 
L 773.067729 306.689454 
L 776.223108 306.900186 
L 779.378486 306.564644 
L 782.533865 306.611608 
L 785.689243 306.921617 
L 788.844622 306.345234 
L 788.844622 306.345234 
" clip-path="url(#p8459115756)" style="fill: none; stroke: #000000; stroke-width: 1.5; stroke-linecap: square"/>
   </g>
   <g id="line2d_6">
    <path d="M 0 306 
L 3.155378 306 
L 6.310757 300.982357 
L 9.466135 303.898349 
L 12.621514 303.905769 
L 15.776892 303.775577 
L 18.932271 304.403224 
L 22.087649 304.178494 
L 28.398406 305.136741 
L 31.553785 306.313558 
L 34.709163 306.732205 
L 37.864542 307.565008 
L 41.01992 307.495102 
L 44.175299 307.725438 
L 47.330677 307.541692 
L 50.486056 305.223682 
L 53.641434 304.959801 
L 56.796813 305.528355 
L 59.952191 304.854532 
L 66.262948 304.192181 
L 75.729084 304.26294 
L 78.884462 304.138747 
L 82.039841 303.555945 
L 85.195219 303.437785 
L 88.350598 303.690046 
L 91.505976 304.225883 
L 94.661355 304.272033 
L 97.816733 303.783565 
L 100.972112 303.867722 
L 104.12749 304.257307 
L 107.282869 304.436219 
L 113.593625 305.16954 
L 116.749004 305.271562 
L 119.904382 304.797704 
L 123.059761 304.781711 
L 126.215139 306.388427 
L 129.370518 306.159707 
L 132.525896 306.190286 
L 135.681275 306.814347 
L 138.836653 308.025759 
L 141.992032 307.842891 
L 145.14741 306.984475 
L 148.302789 306.852202 
L 151.458167 306.960754 
L 154.613546 306.486054 
L 160.924303 305.775186 
L 164.079681 305.237699 
L 167.23506 304.952045 
L 170.390438 305.140338 
L 173.545817 304.990162 
L 176.701195 305.486373 
L 179.856574 305.268343 
L 183.011952 305.185439 
L 186.167331 305.271376 
L 189.322709 305.201433 
L 192.478088 305.335866 
L 195.633466 305.59452 
L 201.944223 305.576713 
L 208.25498 305.92931 
L 211.410359 306.0402 
L 214.565737 305.931761 
L 217.721116 306.432646 
L 220.876494 306.577868 
L 224.031873 306.224709 
L 227.187251 306.088055 
L 233.498008 305.608646 
L 236.653386 305.522398 
L 239.808765 305.761308 
L 242.964143 306.187657 
L 246.119522 305.895164 
L 249.2749 306.334276 
L 252.430279 306.400853 
L 255.585657 306.037485 
L 258.741036 306.613098 
L 261.896414 306.831414 
L 265.051793 306.756402 
L 268.207171 306.271748 
L 271.36255 306.798139 
L 274.517928 307.068238 
L 277.673307 307.505383 
L 280.828685 307.37636 
L 283.984064 307.508877 
L 287.139442 307.924978 
L 290.294821 307.411181 
L 293.450199 307.532439 
L 296.605578 307.04108 
L 299.760956 307.447034 
L 306.071713 307.542069 
L 309.227092 307.021914 
L 312.38247 307.244642 
L 321.848606 306.04822 
L 325.003984 306.107012 
L 328.159363 306.341067 
L 331.314741 306.062978 
L 334.47012 306.240266 
L 337.625498 306.215182 
L 340.780876 306.075965 
L 343.936255 306.28516 
L 350.247012 307.142232 
L 353.40239 307.725384 
L 356.557769 307.783005 
L 359.713147 307.581025 
L 362.868526 308.190694 
L 366.023904 307.578613 
L 372.334661 307.432417 
L 375.49004 307.583882 
L 378.645418 307.16737 
L 391.266932 307.524227 
L 394.422311 307.321422 
L 400.733068 307.383081 
L 403.888446 307.101222 
L 407.043825 306.998012 
L 419.665339 307.230334 
L 422.820717 306.713411 
L 425.976096 306.695275 
L 429.131474 306.243538 
L 435.442231 306.039451 
L 438.59761 305.817981 
L 441.752988 305.763858 
L 444.908367 306.080344 
L 451.219124 305.900151 
L 454.374502 305.763107 
L 460.685259 305.967486 
L 463.840637 305.673874 
L 470.151394 305.546541 
L 473.306773 305.583762 
L 476.462151 305.483682 
L 479.61753 305.224281 
L 482.772908 305.215194 
L 485.928287 305.029651 
L 501.705179 305.485831 
L 504.860558 305.859277 
L 508.015936 305.893084 
L 514.326693 305.527488 
L 517.482072 305.927414 
L 520.63745 306.144787 
L 523.792829 306.130978 
L 526.948207 306.331636 
L 536.414343 306.540377 
L 539.569721 306.232754 
L 542.7251 306.120371 
L 549.035857 305.437962 
L 552.191235 306.011821 
L 558.501992 305.954551 
L 561.657371 306.193618 
L 564.812749 306.010254 
L 567.968127 306.157309 
L 574.278884 306.938314 
L 580.589641 307.282434 
L 583.74502 307.225835 
L 586.900398 306.936581 
L 593.211155 307.28743 
L 599.521912 306.379311 
L 605.832669 306.582929 
L 608.988048 306.819238 
L 615.298805 306.873222 
L 618.454183 306.883827 
L 621.609562 306.472072 
L 624.76494 306.818454 
L 631.075697 306.056908 
L 640.541833 306.494693 
L 643.697211 306.349786 
L 646.85259 305.916043 
L 653.163347 305.925805 
L 656.318725 305.659965 
L 665.784861 306.219642 
L 668.940239 306.534904 
L 672.095618 306.095064 
L 678.406375 305.667144 
L 681.561753 306.015442 
L 684.717131 305.326693 
L 694.183267 305.472953 
L 700.494024 305.764972 
L 703.649402 305.629181 
L 706.804781 305.620264 
L 709.960159 305.499085 
L 716.270916 305.572468 
L 719.426295 305.846036 
L 725.737052 305.352835 
L 735.203187 305.545504 
L 738.358566 305.670926 
L 747.824701 305.771001 
L 750.98008 305.515172 
L 754.135458 305.517483 
L 763.601594 306.4081 
L 766.756972 306.488044 
L 773.067729 306.290088 
L 776.223108 306.416274 
L 779.378486 306.265394 
L 782.533865 306.304283 
L 785.689243 306.4751 
L 788.844622 306.198034 
L 788.844622 306.198034 
" clip-path="url(#p8459115756)" style="fill: none; stroke: #000000; stroke-width: 1.5; stroke-linecap: square"/>
   </g>
   <g id="line2d_7">
    <path d="M 0 306 
L 3.155378 306 
L 6.310757 301.035524 
L 9.466135 303.872265 
L 12.621514 303.886189 
L 15.776892 303.765428 
L 18.932271 304.362995 
L 22.087649 304.157939 
L 28.398406 305.05452 
L 31.553785 306.137291 
L 34.709163 306.533429 
L 37.864542 307.297519 
L 41.01992 307.258882 
L 44.175299 307.480611 
L 47.330677 307.339548 
L 50.486056 305.354361 
L 53.641434 305.119615 
L 56.796813 305.590942 
L 59.952191 305.020744 
L 66.262948 304.449517 
L 75.729084 304.470312 
L 78.884462 304.360392 
L 82.039841 303.887081 
L 85.195219 303.77806 
L 88.350598 303.959043 
L 91.505976 304.362011 
L 94.661355 304.391411 
L 97.816733 304.013156 
L 100.972112 304.067118 
L 104.12749 304.351997 
L 110.438247 304.721998 
L 113.593625 305.023801 
L 116.749004 305.104164 
L 119.904382 304.765911 
L 123.059761 304.755549 
L 126.215139 305.910001 
L 129.370518 305.764259 
L 132.525896 305.800121 
L 135.681275 306.253598 
L 138.836653 307.121495 
L 141.992032 307.025314 
L 145.14741 306.459039 
L 148.302789 306.385659 
L 151.458167 306.475385 
L 157.768924 305.971371 
L 167.23506 305.154703 
L 170.390438 305.273118 
L 173.545817 305.17007 
L 176.701195 305.489938 
L 183.011952 305.291371 
L 214.565737 305.773281 
L 217.721116 306.087606 
L 220.876494 306.18659 
L 224.031873 305.980431 
L 230.342629 305.743141 
L 236.653386 305.566297 
L 239.808765 305.709158 
L 242.964143 305.966668 
L 246.119522 305.797355 
L 249.2749 306.061939 
L 252.430279 306.108625 
L 255.585657 305.900775 
L 258.741036 306.244473 
L 261.896414 306.38256 
L 265.051793 306.349981 
L 268.207171 306.076522 
L 271.36255 306.38882 
L 277.673307 306.82308 
L 280.828685 306.765492 
L 283.984064 306.857265 
L 287.139442 307.113092 
L 290.294821 306.83815 
L 293.450199 306.921781 
L 296.605578 306.656071 
L 299.760956 306.896915 
L 306.071713 306.978612 
L 309.227092 306.697962 
L 312.38247 306.831581 
L 321.848606 306.174726 
L 337.625498 306.259323 
L 340.780876 306.181131 
L 347.091633 306.501261 
L 353.40239 307.100082 
L 356.557769 307.146392 
L 359.713147 307.050568 
L 362.868526 307.396627 
L 366.023904 307.080707 
L 372.334661 307.022684 
L 375.49004 307.114554 
L 378.645418 306.899258 
L 391.266932 307.123098 
L 397.577689 307.030795 
L 400.733068 307.06966 
L 407.043825 306.874032 
L 419.665339 307.009904 
L 422.820717 306.739544 
L 425.976096 306.728976 
L 429.131474 306.488261 
L 441.752988 306.207166 
L 444.908367 306.364511 
L 454.374502 306.173194 
L 460.685259 306.263427 
L 466.996016 306.041016 
L 476.462151 305.96103 
L 479.61753 305.814531 
L 498.549801 305.758198 
L 508.015936 306.06021 
L 514.326693 305.862362 
L 520.63745 306.172548 
L 523.792829 306.163936 
L 530.103586 306.296633 
L 536.414343 306.382968 
L 549.035857 305.813315 
L 552.191235 306.100565 
L 558.501992 306.065941 
L 561.657371 306.185959 
L 564.812749 306.091135 
L 567.968127 306.163941 
L 577.434263 306.665854 
L 580.589641 306.762925 
L 583.74502 306.744686 
L 586.900398 306.606602 
L 593.211155 306.802142 
L 599.521912 306.353842 
L 605.832669 306.459644 
L 612.143426 306.629713 
L 618.454183 306.632943 
L 621.609562 306.429025 
L 624.76494 306.607042 
L 631.075697 306.22236 
L 640.541833 306.438331 
L 643.697211 306.366089 
L 646.85259 306.145538 
L 653.163347 306.14115 
L 656.318725 306.001318 
L 665.784861 306.270111 
L 668.940239 306.429264 
L 672.095618 306.206977 
L 678.406375 305.984361 
L 681.561753 306.155462 
L 684.717131 305.802382 
L 697.338645 305.903492 
L 700.494024 305.981428 
L 709.960159 305.831197 
L 722.581673 305.847589 
L 725.737052 305.726455 
L 757.290837 305.90431 
L 766.756972 306.257178 
L 782.533865 306.180768 
L 785.689243 306.270074 
L 788.844622 306.134659 
L 788.844622 306.134659 
" clip-path="url(#p8459115756)" style="fill: none; stroke: #000000; stroke-width: 1.5; stroke-linecap: square"/>
   </g>
   <g id="line2d_8">
    <path d="M 0 306 
L 3.155378 306 
L 6.310757 301.062113 
L 9.466135 303.859668 
L 12.621514 303.876571 
L 15.776892 303.760322 
L 18.932271 304.343099 
L 22.087649 304.147394 
L 28.398406 305.013725 
L 31.553785 306.050769 
L 34.709163 306.434985 
L 37.864542 307.165101 
L 41.01992 307.139667 
L 44.175299 307.356043 
L 47.330677 307.233798 
L 50.486056 305.403799 
L 53.641434 305.18446 
L 56.796813 305.612428 
L 59.952191 305.091209 
L 66.262948 304.565602 
L 75.729084 304.569207 
L 78.884462 304.467308 
L 82.039841 304.045133 
L 85.195219 303.942702 
L 88.350598 304.094087 
L 91.505976 304.439238 
L 94.661355 304.461699 
L 97.816733 304.13297 
L 100.972112 304.174872 
L 104.12749 304.414396 
L 110.438247 304.724628 
L 113.593625 304.978992 
L 116.749004 305.047913 
L 119.904382 304.766994 
L 123.059761 304.758337 
L 126.215139 305.714914 
L 129.370518 305.600514 
L 132.525896 305.634808 
L 135.681275 306.010649 
L 138.836653 306.724764 
L 141.992032 306.657792 
L 145.14741 306.210236 
L 148.302789 306.157893 
L 151.458167 306.235872 
L 157.768924 305.844774 
L 167.23506 305.204934 
L 170.390438 305.296408 
L 173.545817 305.215493 
L 176.701195 305.462893 
L 183.011952 305.309894 
L 214.565737 305.681779 
L 217.721116 305.916507 
L 220.876494 305.99305 
L 227.187251 305.791525 
L 236.653386 305.549824 
L 242.964143 305.840228 
L 246.119522 305.720931 
L 249.2749 305.911903 
L 252.430279 305.948029 
L 255.585657 305.803045 
L 258.741036 306.048701 
L 261.896414 306.149928 
L 265.051793 306.131151 
L 268.207171 305.942847 
L 274.517928 306.285126 
L 277.673307 306.475625 
L 283.984064 306.510827 
L 287.139442 306.693387 
L 290.294821 306.511308 
L 293.450199 306.574251 
L 296.605578 306.398277 
L 299.760956 306.566946 
L 306.071713 306.633769 
L 309.227092 306.449551 
L 312.38247 306.543781 
L 321.848606 306.112993 
L 337.625498 306.175615 
L 340.780876 306.125411 
L 347.091633 306.33774 
L 356.557769 306.770821 
L 359.713147 306.714341 
L 362.868526 306.943461 
L 366.023904 306.746254 
L 372.334661 306.718554 
L 375.49004 306.781988 
L 378.645418 306.649175 
L 394.422311 306.74931 
L 403.888446 306.700068 
L 413.354582 306.718444 
L 425.976096 306.598681 
L 429.131474 306.451751 
L 454.374502 306.255959 
L 463.840637 306.210174 
L 492.239044 305.958892 
L 511.171315 306.104119 
L 514.326693 306.029477 
L 520.63745 306.208474 
L 530.103586 306.280127 
L 536.414343 306.331121 
L 549.035857 305.999102 
L 552.191235 306.162849 
L 558.501992 306.141073 
L 561.657371 306.209236 
L 567.968127 306.19543 
L 580.589641 306.542638 
L 596.366534 306.452177 
L 599.521912 306.32438 
L 624.76494 306.476724 
L 631.075697 306.263134 
L 643.697211 306.343859 
L 646.85259 306.221216 
L 665.784861 306.283602 
L 668.940239 306.371502 
L 675.250996 306.197216 
L 678.406375 306.124951 
L 681.561753 306.21758 
L 684.717131 306.02242 
L 716.270916 306.029918 
L 719.426295 306.099783 
L 728.89243 305.957145 
L 747.824701 306.033983 
L 754.135458 305.957274 
L 766.756972 306.218422 
L 788.844622 306.154028 
L 788.844622 306.154028 
" clip-path="url(#p8459115756)" style="fill: none; stroke: #000000; stroke-width: 1.5; stroke-linecap: square"/>
   </g>
   <g id="line2d_9">
    <path d="M 0 306 
L 3.155378 306 
L 6.310757 301.075409 
L 9.466135 303.853481 
L 12.621514 303.871808 
L 15.776892 303.757764 
L 18.932271 304.33321 
L 22.087649 304.14206 
L 28.398406 304.993423 
L 31.553785 306.007948 
L 34.709163 306.386064 
L 37.864542 307.099327 
L 41.01992 307.079916 
L 44.175299 307.293378 
L 47.330677 307.179921 
L 50.486056 305.42462 
L 53.641434 305.213079 
L 56.796813 305.620615 
L 59.952191 305.123082 
L 66.262948 304.620073 
L 75.729084 304.616804 
L 78.884462 304.519067 
L 82.039841 304.121417 
L 85.195219 304.022665 
L 88.350598 304.160713 
L 91.505976 304.479175 
L 94.661355 304.498569 
L 97.816733 304.19313 
L 100.972112 304.229762 
L 104.12749 304.448472 
L 110.438247 304.731084 
L 113.593625 304.963352 
L 116.749004 305.026652 
L 119.904382 304.771784 
L 123.059761 304.763793 
L 126.215139 305.629407 
L 129.370518 305.528437 
L 132.525896 305.561239 
L 135.681275 305.900868 
L 138.836653 306.543809 
L 141.992032 306.488435 
L 145.14741 306.093292 
L 148.302789 306.049514 
L 151.458167 306.121313 
L 164.079681 305.352861 
L 167.23506 305.219204 
L 170.390438 305.298994 
L 173.545817 305.228254 
L 176.701195 305.443615 
L 183.011952 305.311144 
L 214.565737 305.633968 
L 217.721116 305.833469 
L 220.876494 305.899533 
L 230.342629 305.637075 
L 236.653386 305.53207 
L 242.964143 305.774638 
L 246.119522 305.676652 
L 249.2749 305.835503 
L 252.430279 305.866532 
L 255.585657 305.748206 
L 258.741036 305.951192 
L 265.051793 306.022074 
L 268.207171 305.869683 
L 277.673307 306.308192 
L 283.984064 306.34121 
L 287.139442 306.491008 
L 290.294821 306.347039 
L 293.450199 306.39991 
L 296.605578 306.261014 
L 302.916335 306.443565 
L 306.071713 306.455976 
L 309.227092 306.311623 
L 312.38247 306.388298 
L 321.848606 306.051991 
L 347.091633 306.234027 
L 356.557769 306.574929 
L 359.713147 306.533636 
L 362.868526 306.712237 
L 366.023904 306.563289 
L 381.800797 306.529763 
L 394.422311 306.583035 
L 419.665339 306.609594 
L 422.820717 306.488972 
L 429.131474 306.378947 
L 457.52988 306.248579 
L 463.840637 306.205945 
L 492.239044 306.02191 
L 511.171315 306.123443 
L 514.326693 306.070363 
L 520.63745 306.19652 
L 567.968127 306.18829 
L 580.589641 306.429175 
L 596.366534 306.371945 
L 602.677291 306.29987 
L 618.454183 306.400524 
L 621.609562 306.325178 
L 624.76494 306.393307 
L 634.231076 306.278806 
L 643.697211 306.306033 
L 650.007968 306.22483 
L 665.784861 306.26519 
L 668.940239 306.323386 
L 678.406375 306.161276 
L 681.561753 306.221849 
L 684.717131 306.093759 
L 760.446215 306.138817 
L 769.912351 306.195671 
L 782.533865 306.18099 
L 788.844622 306.165873 
L 788.844622 306.165873 
" clip-path="url(#p8459115756)" style="fill: none; stroke: #000000; stroke-width: 1.5; stroke-linecap: square"/>
   </g>
  </g>
 </g>
 <defs>
  <clipPath id="p8459115756">
   <rect x="0" y="0" width="792" height="612"/>
  </clipPath>
 </defs>
</svg>
