<?xml version="1.0" encoding="utf-8" standalone="no"?>
<!DOCTYPE svg PUBLIC "-//W3C//DTD SVG 1.1//EN"
  "http://www.w3.org/Graphics/SVG/1.1/DTD/svg11.dtd">
<svg xmlns:xlink="http://www.w3.org/1999/xlink" width="792pt" height="612pt" viewBox="0 0 792 612" xmlns="http://www.w3.org/2000/svg" version="1.1">
 <metadata>
  <rdf:RDF xmlns:dc="http://purl.org/dc/elements/1.1/" xmlns:cc="http://creativecommons.org/ns#" xmlns:rdf="http://www.w3.org/1999/02/22-rdf-syntax-ns#">
   <cc:Work>
    <dc:type rdf:resource="http://purl.org/dc/dcmitype/StillImage"/>
    <dc:date>2022-12-26T20:28:14.463998</dc:date>
    <dc:format>image/svg+xml</dc:format>
    <dc:creator>
     <cc:Agent>
      <dc:title>Matplotlib v3.6.2, https://matplotlib.org/</dc:title>
     </cc:Agent>
    </dc:creator>
   </cc:Work>
  </rdf:RDF>
 </metadata>
 <defs>
  <style type="text/css">*{stroke-linejoin: round; stroke-linecap: butt}</style>
 </defs>
 <g id="figure_1">
  <g id="patch_1">
   <path d="M 0 612 
L 792 612 
L 792 0 
L 0 0 
z
" style="fill: #ffffff"/>
  </g>
  <g id="axes_1">
   <g id="line2d_1">
    <path d="M 0 306 
L 3.142857 305.962771 
L 6.285714 307.079623 
L 9.428571 305.38573 
L 12.571429 307.042395 
L 15.714286 297.42107 
L 18.857143 295.951908 
L 22 309.443495 
L 25.142857 303.878007 
L 28.285714 303.245162 
L 31.428571 307.191307 
L 34.571429 302.947361 
L 37.714286 307.693881 
L 40.857143 308.196446 
L 44 315.099695 
L 47.142857 310.150728 
L 50.285714 314.895115 
L 53.428571 306.874868 
L 56.571429 310.057673 
L 59.714286 305.646329 
L 62.857143 279.670234 
L 66 301.886494 
L 69.142857 312.365162 
L 72.285714 296.398189 
L 75.428571 300.862944 
L 78.571429 299.076673 
L 81.714286 304.845921 
L 84.857143 306.223371 
L 88 302.630953 
L 91.142857 302.240107 
L 94.285714 294.594738 
L 97.428571 301.532892 
L 100.571429 307.656654 
L 103.714286 312.886117 
L 106.857143 304.994833 
L 110 295.524261 
L 113.142857 305.255431 
L 116.285714 310.969573 
L 119.428571 307.544971 
L 122.571429 310.541549 
L 125.714286 312.495405 
L 128.857143 307.116851 
L 132 296.026285 
L 135.142857 304.455029 
L 138.285714 336.573965 
L 141.428571 301.812051 
L 144.571429 306.781798 
L 147.714286 318.910635 
L 150.857143 331.66449 
L 154 304.287505 
L 157.142857 290.006315 
L 160.285714 304.231664 
L 163.428571 309.164313 
L 166.571429 296.900305 
L 169.714286 299.95115 
L 172.857143 297.495469 
L 176 294.167227 
L 179.142857 299.020859 
L 182.285714 309.034027 
L 185.428571 301.830661 
L 188.571429 315.880742 
L 191.714286 300.658247 
L 194.857143 303.412678 
L 198 307.079623 
L 201.142857 303.691874 
L 204.285714 308.196446 
L 207.428571 311.137056 
L 210.571429 305.683558 
L 213.714286 305.087903 
L 216.857143 310.20656 
L 220 309.145701 
L 223.142857 308.457031 
L 226.285714 303.561582 
L 229.428571 317.405262 
L 232.571429 309.778505 
L 235.714286 298.462745 
L 238.857143 303.077648 
L 242 299.820902 
L 245.142857 300.993208 
L 248.285714 303.598808 
L 251.428571 311.06262 
L 254.571429 315.676194 
L 257.714286 299.374355 
L 260.857143 316.141063 
L 264 307.898631 
L 267.142857 297.904682 
L 270.285714 319.52376 
L 273.428571 311.751132 
L 276.571429 305.087903 
L 279.714286 295.375524 
L 282.857143 318.669072 
L 286 313.183788 
L 289.142857 317.405262 
L 292.285714 304.492256 
L 295.428571 310.541549 
L 298.571429 317.386674 
L 301.714286 295.803156 
L 304.857143 310.318224 
L 308 295.914719 
L 311.142857 316.698843 
L 314.285714 309.908784 
L 317.428571 307.414675 
L 320.571429 295.2082 
L 323.714286 312.346556 
L 326.857143 296.918903 
L 330 296.956099 
L 333.142857 298.127901 
L 336.285714 307.451902 
L 339.428571 311.695309 
L 342.571429 299.709263 
L 345.714286 310.299614 
L 348.857143 305.646329 
L 352 302.891524 
L 355.142857 311.081229 
L 358.285714 315.267072 
L 364.571429 321.121076 
L 367.714286 309.145701 
L 370.857143 302.984586 
L 374 322.216438 
L 377.142857 293.572506 
L 380.285714 304.920377 
L 383.428571 306.688727 
L 386.571429 311.099838 
L 389.714286 297.62567 
L 392.857143 309.462107 
L 396 309.908784 
L 399.142857 311.06262 
L 402.285714 307.582199 
L 405.428571 302.686789 
L 408.571429 307.396061 
L 411.714286 308.792063 
L 414.857143 300.639638 
L 418 304.641167 
L 421.142857 308.196446 
L 424.285714 308.605935 
L 427.428571 305.590486 
L 430.571429 311.434796 
L 433.714286 294.836394 
L 436.857143 306.279214 
L 440 295.858937 
L 443.142857 303.859394 
L 446.285714 303.673261 
L 449.428571 300.732682 
L 452.571429 304.548098 
L 455.714286 313.369826 
L 458.857143 302.649565 
L 462 305.050675 
L 465.142857 302.50067 
L 468.285714 307.284377 
L 471.428571 309.22015 
L 474.571429 298.872024 
L 477.714286 303.319614 
L 480.857143 304.808693 
L 484 306.428128 
L 487.142857 303.170711 
L 490.285714 299.225512 
L 493.428571 304.976219 
L 496.571429 300.695464 
L 499.714286 306.819026 
L 502.857143 306.093071 
L 506 308.698999 
L 509.142857 304.603939 
L 512.285714 310.485718 
L 515.428571 314.448731 
L 518.571429 306.688727 
L 521.714286 302.649565 
L 524.857143 300.23026 
L 528 315.155488 
L 531.142857 311.155665 
L 534.285714 305.776629 
L 537.428571 310.950964 
L 540.571429 307.656654 
L 543.714286 308.457031 
L 546.857143 308.21506 
L 550 299.206907 
L 553.142857 303.636035 
L 556.285714 296.844512 
L 559.428571 298.537157 
L 562.571429 319.207921 
L 565.714286 304.231664 
L 568.857143 306.316442 
L 572 311.676701 
L 575.142857 301.756218 
L 578.285714 309.49933 
L 581.428571 314.876516 
L 584.571429 316.5687 
L 587.714286 311.155665 
L 590.857143 311.230101 
L 594 305.925543 
L 597.142857 300.286083 
L 600.285714 311.155665 
L 603.428571 311.360362 
L 606.571429 296.49117 
L 609.714286 295.877531 
L 612.857143 308.028926 
L 616 309.704059 
L 619.142857 312.290737 
L 622.285714 308.77345 
L 625.428571 306.297828 
L 628.571429 307.135465 
L 631.714286 297.04909 
L 634.857143 314.82072 
L 638 297.197879 
L 641.142857 297.718672 
L 644.285714 309.759893 
L 647.428571 308.885126 
L 650.571429 310.429887 
L 653.714286 303.040423 
L 656.857143 295.970502 
L 660 306.2606 
L 663.142857 305.832472 
L 666.285714 299.541807 
L 669.428571 309.704059 
L 672.571429 308.550096 
L 675.714286 312.662856 
L 678.857143 313.797691 
L 682 295.933313 
L 685.142857 301.79344 
L 688.285714 300.006971 
L 691.428571 314.076717 
L 694.571429 289.468026 
L 697.714286 305.7394 
L 700.857143 307.414675 
L 704 306.446742 
L 707.142857 308.457031 
L 710.285714 309.592389 
L 713.428571 302.537893 
L 716.571429 305.422958 
L 719.714286 302.705401 
L 722.857143 307.209921 
L 726 305.590486 
L 729.142857 312.104671 
L 732.285714 299.392961 
L 735.428571 300.100007 
L 738.571429 306.167528 
L 741.714286 307.396061 
L 744.857143 307.247149 
L 748 308.568709 
L 751.142857 305.8697 
L 754.285714 307.209921 
L 757.428571 306.409514 
L 760.571429 299.653444 
L 763.714286 305.609101 
L 766.857143 312.346556 
L 770 313.2396 
L 773.142857 313.295411 
L 776.285714 308.401192 
L 779.428571 304.715623 
L 782.571429 303.394065 
L 785.714286 309.331823 
L 788.857143 302.817074 
L 788.857143 302.817074 
" clip-path="url(#p487f6da63c)" style="fill: none; stroke: #000000; stroke-width: 1.5; stroke-linecap: square"/>
   </g>
   <g id="line2d_2">
    <path d="M 0 306 
L 6.285714 305.975181 
L 9.428571 306.606293 
L 12.571429 305.955326 
L 15.714286 306.516395 
L 18.857143 301.895652 
L 22 298.89971 
L 25.142857 304.191736 
L 28.285714 304.03071 
L 31.428571 303.632604 
L 34.571429 305.412155 
L 37.714286 304.174947 
L 40.857143 305.93569 
L 44 307.087215 
L 47.142857 311.131875 
L 50.285714 310.6427 
L 53.428571 312.790831 
L 56.571429 309.840324 
L 59.714286 309.954619 
L 62.857143 307.805855 
L 66 293.657044 
L 69.142857 297.757916 
L 72.285714 305.055639 
L 75.428571 300.698894 
L 78.571429 300.753407 
L 81.714286 299.899707 
L 84.857143 302.362359 
L 88 304.293928 
L 91.142857 303.507568 
L 94.285714 302.874517 
L 97.428571 298.69846 
L 100.571429 300.12562 
L 103.714286 303.904139 
L 106.857143 308.422724 
L 110 306.709093 
L 113.142857 301.094064 
L 116.285714 303.179762 
L 119.428571 307.09196 
L 122.571429 307.343869 
L 125.714286 308.960453 
L 128.857143 310.737574 
L 132 308.916002 
L 135.142857 302.451987 
L 138.285714 303.470999 
L 141.428571 320.125194 
L 144.571429 310.955124 
L 147.714286 308.867098 
L 150.857143 313.907406 
L 154 322.837723 
L 157.142857 313.564028 
L 160.285714 301.767093 
L 163.428571 302.998892 
L 166.571429 306.027666 
L 169.714286 301.453343 
L 172.857143 300.688823 
L 176 299.04997 
L 179.142857 296.534416 
L 182.285714 297.76718 
L 185.428571 303.437057 
L 188.571429 302.629128 
L 191.714286 309.269636 
L 194.857143 304.971109 
L 198 304.19867 
L 201.142857 305.657936 
L 204.285714 304.693578 
L 207.428571 306.463021 
L 210.571429 308.804326 
L 213.714286 307.251529 
L 216.857143 306.148549 
L 220 308.196373 
L 223.142857 308.682284 
L 226.285714 308.572359 
L 229.428571 306.066719 
L 232.571429 311.756021 
L 235.714286 310.764649 
L 238.857143 304.598976 
L 242 303.834357 
L 245.142857 301.807088 
L 248.285714 301.384157 
L 251.428571 302.481912 
L 257.714286 311.229371 
L 260.857143 305.281198 
L 264 310.74728 
L 267.142857 309.33248 
L 270.285714 303.613991 
L 273.428571 311.608983 
L 276.571429 311.696039 
L 279.714286 308.380535 
L 282.857143 301.836354 
L 286 310.293775 
L 289.142857 311.733108 
L 292.285714 314.588558 
L 295.428571 309.55429 
L 298.571429 310.030304 
L 301.714286 313.720656 
L 304.857143 304.742631 
L 308 307.559862 
L 311.142857 301.691118 
L 314.285714 309.2038 
L 317.428571 309.54159 
L 320.571429 308.483892 
L 323.714286 301.814021 
L 326.857143 307.070718 
L 330 301.995897 
L 333.142857 299.449362 
L 336.285714 298.792938 
L 342.571429 307.403287 
L 345.714286 303.540779 
L 348.857143 306.949909 
L 352 306.284981 
L 355.142857 304.599925 
L 358.285714 307.868485 
L 361.428571 311.602197 
L 364.571429 314.925456 
L 367.714286 318.042976 
L 370.857143 313.614438 
L 374 308.285863 
L 377.142857 315.288441 
L 380.285714 304.41021 
L 383.428571 304.653211 
L 386.571429 305.65414 
L 389.714286 308.363235 
L 392.857143 302.947434 
L 396 306.205414 
L 399.142857 308.070751 
L 402.285714 309.544875 
L 405.428571 308.591045 
L 408.571429 305.634503 
L 411.714286 306.516673 
L 414.857143 307.649865 
L 418 304.150421 
L 421.142857 304.38634 
L 424.285714 306.288047 
L 427.428571 307.442194 
L 430.571429 306.512439 
L 433.714286 308.990963 
L 436.857143 301.886859 
L 440 304.078011 
L 443.142857 299.958009 
L 446.285714 301.907002 
L 449.428571 302.781237 
L 452.571429 301.741476 
L 455.714286 303.142683 
L 458.857143 308.26068 
L 462 305.470406 
L 465.142857 305.258132 
L 468.285714 303.892387 
L 474.571429 307.418543 
L 477.714286 303.141077 
L 480.857143 303.227936 
L 484 304.001513 
L 487.142857 305.222217 
L 490.285714 304.192758 
L 493.428571 301.70243 
L 496.571429 303.334723 
L 499.714286 301.998306 
L 502.857143 304.424152 
L 506 305.264044 
L 509.142857 306.989181 
L 512.285714 305.79298 
L 515.428571 308.153818 
L 518.571429 311.331683 
L 521.714286 309.013736 
L 524.857143 305.835464 
L 528 303.019694 
L 531.142857 309.106579 
L 534.285714 310.135985 
L 537.428571 307.958706 
L 540.571429 309.45583 
L 543.714286 308.542943 
L 550 308.37017 
L 553.142857 303.786035 
L 556.285714 303.688444 
L 559.428571 300.237703 
L 562.571429 299.373188 
L 565.714286 309.310218 
L 568.857143 306.764278 
L 572 306.536163 
L 575.142857 309.11344 
L 578.285714 305.439748 
L 581.428571 307.4811 
L 584.571429 311.214922 
L 587.714286 313.927759 
L 590.857143 312.52605 
L 594 311.89182 
L 597.142857 308.908192 
L 600.285714 304.574522 
L 603.428571 307.88374 
L 606.571429 309.625817 
L 609.714286 303.021081 
L 612.857143 299.407845 
L 616 303.711801 
L 619.142857 306.705005 
L 622.285714 309.510643 
L 625.428571 309.158693 
L 628.571429 307.718773 
L 631.714286 307.418835 
L 634.857143 302.233976 
L 638 308.56557 
L 641.142857 302.859408 
L 644.285714 300.26514 
L 647.428571 305.007315 
L 650.571429 306.946478 
L 653.714286 308.696372 
L 656.857143 305.860356 
L 660 300.911984 
L 663.142857 303.569319 
L 666.285714 304.717813 
L 669.428571 302.133109 
L 672.571429 305.918462 
L 675.714286 307.233645 
L 678.857143 309.95294 
L 682 311.896636 
L 685.142857 303.913482 
L 688.285714 302.844664 
L 691.428571 301.414298 
L 694.571429 307.77476 
L 697.714286 298.575094 
L 700.857143 302.15121 
L 704 304.77256 
L 707.142857 305.595231 
L 710.285714 307.050717 
L 713.428571 308.336885 
L 716.571429 305.442302 
L 719.714286 305.415659 
L 722.857143 304.086478 
L 726 305.651074 
L 729.142857 305.617203 
L 732.285714 308.872353 
L 735.428571 304.114435 
L 738.571429 302.088442 
L 741.714286 304.135019 
L 744.857143 305.769402 
L 748 306.517184 
L 751.142857 307.545628 
L 754.285714 306.708217 
L 757.428571 306.949471 
L 760.571429 306.693253 
L 763.714286 303.172098 
L 766.857143 304.389479 
L 770 308.378126 
L 773.142857 310.820916 
L 776.285714 312.06753 
L 779.428571 310.239476 
L 782.571429 307.472779 
L 785.714286 305.427484 
L 788.857143 307.398688 
L 788.857143 307.398688 
" clip-path="url(#p487f6da63c)" style="fill: none; stroke: #000000; stroke-width: 1.5; stroke-linecap: square"/>
   </g>
   <g id="line2d_3">
    <path d="M 0 306 
L 6.285714 305.978192 
L 9.428571 306.477232 
L 12.571429 306.050974 
L 15.714286 306.403711 
L 18.857143 303.396216 
L 22 301.003662 
L 25.142857 303.640217 
L 28.285714 303.713084 
L 31.428571 303.571611 
L 34.571429 304.655726 
L 37.714286 304.147402 
L 40.857143 305.197737 
L 44 306.082964 
L 47.142857 308.739291 
L 50.285714 309.154327 
L 53.428571 310.846393 
L 56.571429 309.684317 
L 59.714286 309.797092 
L 62.857143 308.581738 
L 66 300.06391 
L 69.142857 300.602825 
L 72.285714 304.06669 
L 75.428571 301.804972 
L 78.571429 301.525586 
L 81.714286 300.803455 
L 88 303.229816 
L 94.285714 302.804949 
L 97.428571 300.375676 
L 100.571429 300.704705 
L 103.714286 302.732322 
L 106.857143 305.713459 
L 110 305.497162 
L 113.142857 302.563481 
L 116.285714 303.381358 
L 119.428571 305.614411 
L 122.571429 306.174325 
L 125.714286 307.469791 
L 128.857143 308.955324 
L 132 308.4261 
L 135.142857 304.783151 
L 138.285714 304.685015 
L 141.428571 314.092262 
L 144.571429 310.495914 
L 147.714286 309.422165 
L 150.857143 312.222732 
L 154 317.956952 
L 157.142857 313.945901 
L 160.285714 306.913914 
L 163.428571 306.138303 
L 166.571429 307.02912 
L 169.714286 304.045539 
L 172.857143 302.83746 
L 176 301.257498 
L 179.142857 299.158888 
L 182.285714 299.109164 
L 185.428571 302.030462 
L 188.571429 301.968927 
L 191.714286 306.020563 
L 194.857143 304.448506 
L 198 304.141244 
L 201.142857 304.988267 
L 204.285714 304.576358 
L 207.428571 305.641151 
L 210.571429 307.275286 
L 216.857143 306.301459 
L 220 307.46059 
L 223.142857 307.964723 
L 226.285714 308.12151 
L 229.428571 306.796742 
L 232.571429 309.926364 
L 235.714286 309.883912 
L 238.857143 306.53456 
L 242 305.507319 
L 245.142857 303.840634 
L 248.285714 303.003802 
L 251.428571 303.174075 
L 254.571429 305.493122 
L 257.714286 308.48516 
L 260.857143 305.80289 
L 264 308.843893 
L 267.142857 308.570265 
L 270.285714 305.431745 
L 273.428571 309.57355 
L 276.571429 310.21518 
L 279.714286 308.715305 
L 282.857143 304.781665 
L 286 308.861447 
L 289.142857 310.144535 
L 292.285714 312.288458 
L 295.428571 310.010763 
L 298.571429 310.177195 
L 301.714286 312.305477 
L 304.857143 307.454041 
L 308 308.286832 
L 311.142857 304.658116 
L 314.285714 308.186639 
L 317.428571 308.693372 
L 320.571429 308.329783 
L 323.714286 304.45735 
L 326.857143 306.768985 
L 330 303.873831 
L 333.142857 301.84895 
L 336.285714 300.735307 
L 339.428571 302.695731 
L 342.571429 305.325186 
L 345.714286 303.67461 
L 348.857143 305.614802 
L 352 305.610545 
L 355.142857 304.822282 
L 358.285714 306.656494 
L 364.571429 311.841361 
L 367.714286 314.574086 
L 370.857143 312.986543 
L 374 310.066565 
L 377.142857 313.639569 
L 380.285714 307.757314 
L 383.428571 306.935555 
L 386.571429 306.873095 
L 389.714286 308.115376 
L 392.857143 305.026263 
L 396 306.336736 
L 402.285714 308.466741 
L 405.428571 308.213056 
L 408.571429 306.584796 
L 411.714286 306.813367 
L 414.857143 307.38211 
L 418 305.383593 
L 421.142857 305.160966 
L 424.285714 306.056034 
L 427.428571 306.787249 
L 430.571429 306.450538 
L 433.714286 307.918019 
L 436.857143 304.071472 
L 440 304.712557 
L 443.142857 302.116475 
L 446.285714 302.620509 
L 449.428571 302.921684 
L 452.571429 302.268633 
L 455.714286 302.932756 
L 458.857143 306.002321 
L 462 305.014833 
L 465.142857 305.021034 
L 468.285714 304.284945 
L 471.428571 305.166486 
L 474.571429 306.354986 
L 477.714286 304.15174 
L 480.857143 303.905404 
L 484 304.162357 
L 487.142857 304.839296 
L 490.285714 304.346997 
L 493.428571 302.850594 
L 496.571429 303.474436 
L 499.714286 302.65701 
L 502.857143 303.882968 
L 506 304.532054 
L 509.142857 305.74717 
L 512.285714 305.414568 
L 515.428571 306.906208 
L 518.571429 309.12961 
L 521.714286 308.414035 
L 524.857143 306.718108 
L 528 304.819229 
L 531.142857 307.86102 
L 534.285714 308.833368 
L 537.428571 307.937353 
L 540.571429 308.829021 
L 543.714286 308.495334 
L 550 308.416775 
L 553.142857 305.710231 
L 556.285714 305.09988 
L 559.428571 302.667649 
L 562.571429 301.450694 
L 565.714286 306.66386 
L 568.857143 305.939743 
L 572 306.049648 
L 575.142857 307.708317 
L 578.285714 305.966673 
L 581.428571 306.994906 
L 584.571429 309.308256 
L 587.714286 311.447938 
L 594 311.327874 
L 597.142857 309.742855 
L 600.285714 306.963857 
L 603.428571 308.205442 
L 606.571429 309.138447 
L 609.714286 305.432921 
L 612.857143 302.630208 
L 619.142857 305.817393 
L 622.285714 307.720496 
L 625.428571 308.025569 
L 628.571429 307.524751 
L 631.714286 307.408017 
L 634.857143 304.35275 
L 638 307.417432 
L 641.142857 304.407469 
L 644.285714 302.432403 
L 647.428571 304.582931 
L 653.714286 307.192727 
L 656.857143 305.966965 
L 660 303.03751 
L 663.142857 303.993425 
L 666.285714 304.529537 
L 669.428571 303.056793 
L 672.571429 305.000753 
L 675.714286 306.04009 
L 678.857143 307.987445 
L 682 309.697216 
L 685.142857 305.663642 
L 688.285714 304.515054 
L 691.428571 303.197741 
L 694.571429 306.403407 
L 697.714286 301.415446 
L 700.857143 302.678178 
L 704 304.061939 
L 707.142857 304.764332 
L 713.428571 306.957245 
L 716.571429 305.659021 
L 719.714286 305.596636 
L 722.857143 304.741744 
L 726 305.463114 
L 729.142857 305.492296 
L 732.285714 307.427297 
L 735.428571 305.07778 
L 738.571429 303.617711 
L 741.714286 304.371593 
L 744.857143 305.249757 
L 748 305.85522 
L 751.142857 306.653249 
L 754.285714 306.421979 
L 757.428571 306.65364 
L 760.571429 306.579785 
L 763.714286 304.539434 
L 766.857143 304.856258 
L 770 307.058327 
L 773.142857 308.881195 
L 776.285714 310.181285 
L 779.428571 309.66316 
L 785.714286 306.800977 
L 788.857143 307.552875 
L 788.857143 307.552875 
" clip-path="url(#p487f6da63c)" style="fill: none; stroke: #000000; stroke-width: 1.5; stroke-linecap: square"/>
   </g>
   <g id="line2d_4">
    <path d="M 0 306 
L 6.285714 305.979777 
L 9.428571 306.411429 
L 12.571429 306.085044 
L 15.714286 306.347865 
L 18.857143 304.15027 
L 22 302.293358 
L 25.142857 303.8101 
L 28.285714 303.82378 
L 31.428571 303.71195 
L 34.571429 304.362168 
L 37.714286 304.104903 
L 44 305.345718 
L 47.142857 307.022674 
L 50.285714 307.553571 
L 53.428571 308.786786 
L 56.571429 308.468539 
L 59.714286 308.731146 
L 62.857143 308.22453 
L 66 303.548254 
L 69.142857 303.277875 
L 72.285714 304.751165 
L 75.428571 303.400628 
L 78.571429 302.991465 
L 81.714286 302.361549 
L 84.857143 302.760504 
L 88 303.315764 
L 94.285714 303.051537 
L 97.428571 301.699112 
L 100.571429 301.672562 
L 103.714286 302.625583 
L 106.857143 304.26248 
L 110 304.377698 
L 113.142857 302.962364 
L 116.285714 303.326068 
L 119.428571 304.550656 
L 122.571429 305.034294 
L 125.714286 305.911253 
L 128.857143 306.964345 
L 132 306.991025 
L 135.142857 305.238969 
L 138.285714 305.115181 
L 141.428571 310.154497 
L 144.571429 308.823293 
L 147.714286 308.493305 
L 150.857143 310.157221 
L 154 313.597872 
L 157.142857 312.115441 
L 160.285714 308.583582 
L 163.428571 307.890318 
L 166.571429 308.111463 
L 169.714286 306.324216 
L 172.857143 305.302368 
L 176 304.060624 
L 179.142857 302.481562 
L 182.285714 301.930834 
L 185.428571 303.063495 
L 188.571429 302.864598 
L 191.714286 304.944241 
L 194.857143 304.261266 
L 198 304.131755 
L 201.142857 304.604223 
L 204.285714 304.45659 
L 207.428571 305.048686 
L 210.571429 306.021274 
L 216.857143 305.832816 
L 220 306.52826 
L 223.142857 306.945718 
L 226.285714 307.184877 
L 229.428571 306.602819 
L 232.571429 308.328746 
L 235.714286 308.567999 
L 238.857143 306.956282 
L 242 306.318202 
L 245.142857 305.283084 
L 248.285714 304.596875 
L 251.428571 304.428518 
L 254.571429 305.471198 
L 257.714286 307.102466 
L 260.857143 305.878588 
L 264 307.519396 
L 267.142857 307.578945 
L 270.285714 306.040073 
L 273.428571 308.198959 
L 276.571429 308.773082 
L 279.714286 308.1936 
L 282.857143 306.151274 
L 286 308.150034 
L 289.142857 308.958155 
L 292.285714 310.303707 
L 295.428571 309.381576 
L 298.571429 309.570587 
L 301.714286 310.821162 
L 304.857143 308.426503 
L 308 308.728823 
L 311.142857 306.680031 
L 314.285714 308.281588 
L 317.428571 308.5435 
L 320.571429 308.362162 
L 323.714286 306.259947 
L 326.857143 307.230914 
L 330 305.585671 
L 333.142857 304.199513 
L 336.285714 303.226009 
L 339.428571 303.903944 
L 342.571429 305.149035 
L 345.714286 304.283353 
L 348.857143 305.2464 
L 352 305.311308 
L 355.142857 304.921199 
L 358.285714 305.898484 
L 361.428571 307.39942 
L 364.571429 309.120764 
L 367.714286 311.039911 
L 370.857143 310.74557 
L 374 309.500597 
L 377.142857 311.532216 
L 380.285714 308.666924 
L 383.428571 308.076817 
L 386.571429 307.848492 
L 389.714286 308.364539 
L 392.857143 306.643307 
L 402.285714 308.098444 
L 405.428571 308.02366 
L 408.571429 307.169781 
L 411.714286 307.212949 
L 414.857143 307.459262 
L 418 306.368374 
L 421.142857 306.091837 
L 427.428571 306.77791 
L 430.571429 306.594399 
L 433.714286 307.373642 
L 436.857143 305.376085 
L 440 305.519044 
L 443.142857 303.971641 
L 449.428571 303.907193 
L 452.571429 303.399003 
L 455.714286 303.582858 
L 458.857143 305.141615 
L 462 304.737231 
L 465.142857 304.77889 
L 468.285714 304.404776 
L 471.428571 304.861763 
L 474.571429 305.559104 
L 477.714286 304.480397 
L 480.857143 304.301794 
L 484 304.382373 
L 487.142857 304.707692 
L 490.285714 304.458199 
L 493.428571 303.626519 
L 496.571429 303.838458 
L 499.714286 303.3326 
L 502.857143 303.884632 
L 506 304.235065 
L 509.142857 304.949043 
L 512.285714 304.892393 
L 515.428571 305.783415 
L 518.571429 307.171052 
L 521.714286 307.09559 
L 524.857143 306.384733 
L 528 305.4002 
L 531.142857 306.958702 
L 534.285714 307.626345 
L 537.428571 307.338882 
L 540.571429 307.916543 
L 543.714286 307.882557 
L 550 308.017565 
L 553.142857 306.614651 
L 556.285714 306.140167 
L 559.428571 304.650455 
L 562.571429 303.675043 
L 565.714286 306.156487 
L 568.857143 305.851318 
L 572 305.924717 
L 575.142857 306.841513 
L 578.285714 306.034183 
L 581.428571 306.58938 
L 587.714286 309.298347 
L 594 309.865897 
L 597.142857 309.239617 
L 600.285714 307.814797 
L 606.571429 308.831532 
L 609.714286 306.860096 
L 612.857143 305.1067 
L 616 305.570106 
L 619.142857 306.2249 
L 622.285714 307.193627 
L 625.428571 307.44881 
L 628.571429 307.269473 
L 631.714286 307.243146 
L 634.857143 305.612031 
L 638 307.083195 
L 641.142857 305.501441 
L 644.285714 304.256669 
L 647.428571 305.133082 
L 650.571429 305.730475 
L 653.714286 306.485221 
L 656.857143 305.936755 
L 660 304.349987 
L 663.142857 304.658787 
L 666.285714 304.837172 
L 669.428571 303.991606 
L 672.571429 304.9026 
L 675.714286 305.480985 
L 682 307.773858 
L 685.142857 305.8776 
L 688.285714 305.218533 
L 691.428571 304.38229 
L 694.571429 305.926771 
L 697.714286 303.295354 
L 700.857143 303.687598 
L 704 304.278238 
L 707.142857 304.620183 
L 713.428571 305.939475 
L 716.571429 305.394822 
L 719.714286 305.396628 
L 722.857143 304.962446 
L 726 305.31905 
L 729.142857 305.361795 
L 732.285714 306.43784 
L 735.428571 305.318276 
L 738.571429 304.478739 
L 741.714286 304.753026 
L 751.142857 305.993915 
L 754.285714 305.971306 
L 757.428571 306.170977 
L 760.571429 306.215444 
L 763.714286 305.167141 
L 766.857143 305.237319 
L 773.142857 307.470903 
L 776.285714 308.400745 
L 779.428571 308.398156 
L 785.714286 307.109213 
L 788.857143 307.467556 
L 788.857143 307.467556 
" clip-path="url(#p487f6da63c)" style="fill: none; stroke: #000000; stroke-width: 1.5; stroke-linecap: square"/>
   </g>
   <g id="line2d_5">
    <path d="M 0 306 
L 6.285714 305.98058 
L 9.428571 306.379089 
L 12.571429 306.097604 
L 15.714286 306.320638 
L 18.857143 304.4982 
L 22 302.937844 
L 25.142857 304.017696 
L 31.428571 303.888718 
L 34.571429 304.334801 
L 37.714286 304.156665 
L 44 305.016905 
L 47.142857 306.167692 
L 50.285714 306.608487 
L 53.428571 307.501068 
L 56.571429 307.435263 
L 59.714286 307.704906 
L 62.857143 307.497368 
L 66 304.734562 
L 69.142857 304.456893 
L 72.285714 305.216916 
L 75.428571 304.380152 
L 78.571429 304.050413 
L 81.714286 303.589042 
L 84.857143 303.704482 
L 88 303.933802 
L 94.285714 303.674818 
L 97.428571 302.865685 
L 100.571429 302.747689 
L 103.714286 303.179853 
L 106.857143 304.030177 
L 110 304.114292 
L 113.142857 303.368077 
L 116.285714 303.53133 
L 119.428571 304.172512 
L 122.571429 304.462282 
L 125.714286 304.983133 
L 128.857143 305.625095 
L 132 305.752247 
L 135.142857 304.924803 
L 138.285714 304.884933 
L 141.428571 307.578042 
L 144.571429 307.090413 
L 147.714286 307.064356 
L 150.857143 308.063774 
L 154 310.055891 
L 157.142857 309.570819 
L 160.285714 307.926139 
L 163.428571 307.616093 
L 166.571429 307.745909 
L 169.714286 306.837117 
L 172.857143 306.260634 
L 176 305.52725 
L 179.142857 304.577127 
L 182.285714 304.112843 
L 185.428571 304.523755 
L 188.571429 304.298983 
L 191.714286 305.265388 
L 194.857143 304.881188 
L 198 304.758783 
L 201.142857 304.952157 
L 204.285714 304.846806 
L 207.428571 305.12554 
L 210.571429 305.62583 
L 216.857143 305.585031 
L 220 305.972783 
L 226.285714 306.424079 
L 229.428571 306.186396 
L 232.571429 307.122561 
L 235.714286 307.343848 
L 238.857143 306.605172 
L 242 306.310893 
L 245.142857 305.769454 
L 248.285714 305.368416 
L 251.428571 305.21941 
L 254.571429 305.703162 
L 257.714286 306.534016 
L 260.857143 305.93623 
L 264 306.786914 
L 267.142857 306.888392 
L 270.285714 306.141329 
L 273.428571 307.255074 
L 276.571429 307.633274 
L 279.714286 307.423397 
L 282.857143 306.421921 
L 286 307.443478 
L 289.142857 307.92226 
L 292.285714 308.714512 
L 295.428571 308.364832 
L 298.571429 308.550695 
L 301.714286 309.289571 
L 304.857143 308.166161 
L 308 308.343948 
L 311.142857 307.309147 
L 314.285714 308.095685 
L 317.428571 308.247687 
L 320.571429 308.177394 
L 323.714286 307.096644 
L 326.857143 307.53302 
L 333.142857 305.838994 
L 336.285714 305.199547 
L 339.428571 305.387459 
L 342.571429 305.902908 
L 345.714286 305.388103 
L 348.857143 305.796907 
L 352 305.78009 
L 355.142857 305.530957 
L 358.285714 305.993857 
L 361.428571 306.771958 
L 364.571429 307.725882 
L 367.714286 308.842482 
L 370.857143 308.871635 
L 374 308.384042 
L 377.142857 309.541275 
L 380.285714 308.215276 
L 383.428571 307.943742 
L 386.571429 307.83882 
L 389.714286 308.112514 
L 392.857143 307.236056 
L 399.142857 307.632062 
L 402.285714 307.918108 
L 405.428571 307.891496 
L 408.571429 307.457733 
L 411.714286 307.451397 
L 414.857143 307.563681 
L 418 306.987529 
L 421.142857 306.79098 
L 427.428571 307.048351 
L 430.571429 306.928015 
L 433.714286 307.300157 
L 436.857143 306.260446 
L 440 306.264548 
L 443.142857 305.398267 
L 449.428571 305.140051 
L 452.571429 304.773286 
L 455.714286 304.752476 
L 458.857143 305.467042 
L 462 305.234259 
L 465.142857 305.215412 
L 468.285714 304.988332 
L 471.428571 305.181947 
L 474.571429 305.513753 
L 477.714286 304.958221 
L 480.857143 304.821644 
L 484 304.823641 
L 487.142857 304.952819 
L 490.285714 304.801647 
L 493.428571 304.332851 
L 496.571429 304.386405 
L 499.714286 304.076834 
L 509.142857 304.80493 
L 512.285714 304.791078 
L 515.428571 305.261709 
L 518.571429 306.02585 
L 521.714286 306.08063 
L 524.857143 305.798278 
L 528 305.332155 
L 531.142857 306.153615 
L 534.285714 306.573427 
L 537.428571 306.509787 
L 540.571429 306.879559 
L 550 307.165524 
L 553.142857 306.502807 
L 556.285714 306.265115 
L 559.428571 305.478382 
L 562.571429 304.896723 
L 565.714286 306.085499 
L 568.857143 305.926136 
L 572 305.957609 
L 575.142857 306.435153 
L 578.285714 306.040134 
L 581.428571 306.332432 
L 587.714286 307.838977 
L 594 308.377347 
L 597.142857 308.172714 
L 600.285714 307.514989 
L 606.571429 308.11254 
L 612.857143 306.206497 
L 616 306.357505 
L 619.142857 306.63822 
L 622.285714 307.109916 
L 625.428571 307.248174 
L 631.714286 307.166306 
L 634.857143 306.321728 
L 638 307.033815 
L 641.142857 306.214318 
L 644.285714 305.509652 
L 653.714286 306.477911 
L 656.857143 306.192116 
L 660 305.337801 
L 666.285714 305.450421 
L 669.428571 304.95899 
L 672.571429 305.353612 
L 675.714286 305.618693 
L 682 306.841377 
L 685.142857 305.932862 
L 688.285714 305.587777 
L 691.428571 305.123501 
L 694.571429 305.87157 
L 697.714286 304.503764 
L 700.857143 304.607957 
L 713.428571 305.624355 
L 716.571429 305.365593 
L 719.714286 305.367416 
L 722.857143 305.145173 
L 726 305.318023 
L 729.142857 305.342381 
L 732.285714 305.902697 
L 738.571429 304.920163 
L 744.857143 305.219073 
L 757.428571 305.800341 
L 760.571429 305.854014 
L 763.714286 305.33968 
L 766.857143 305.357612 
L 776.285714 307.109153 
L 779.428571 307.218552 
L 785.714286 306.705475 
L 788.857143 306.921104 
L 788.857143 306.921104 
" clip-path="url(#p487f6da63c)" style="fill: none; stroke: #000000; stroke-width: 1.5; stroke-linecap: square"/>
   </g>
   <g id="line2d_6">
    <path d="M 0 306 
L 6.285714 305.980983 
L 9.428571 306.363172 
L 12.571429 306.102711 
L 15.714286 306.307274 
L 18.857143 304.66093 
L 22 303.248896 
L 25.142857 304.145553 
L 31.428571 304.006079 
L 34.571429 304.362318 
L 37.714286 304.214336 
L 44 304.896238 
L 47.142857 305.801737 
L 50.285714 306.170525 
L 53.428571 306.880425 
L 56.571429 306.87999 
L 59.714286 307.120181 
L 62.857143 307.012363 
L 66 305.067228 
L 69.142857 304.847743 
L 72.285714 305.35306 
L 75.428571 304.76556 
L 81.714286 304.174116 
L 91.142857 304.23547 
L 94.285714 304.119159 
L 97.428571 303.572414 
L 100.571429 303.457115 
L 103.714286 303.691192 
L 106.857143 304.197022 
L 110 304.24036 
L 113.142857 303.772264 
L 116.285714 303.850993 
L 119.428571 304.224882 
L 122.571429 304.397507 
L 128.857143 305.111123 
L 132 305.212611 
L 135.142857 304.751401 
L 138.285714 304.736641 
L 141.428571 306.315525 
L 144.571429 306.094445 
L 147.714286 306.127962 
L 150.857143 306.747696 
L 154 307.950616 
L 157.142857 307.77521 
L 160.285714 306.928302 
L 163.428571 306.800544 
L 166.571429 306.911981 
L 169.714286 306.442118 
L 176 305.736816 
L 179.142857 305.200675 
L 182.285714 304.915509 
L 185.428571 305.104816 
L 188.571429 304.954847 
L 191.714286 305.453719 
L 194.857143 305.235512 
L 198 305.152831 
L 201.142857 305.239967 
L 204.285714 305.170153 
L 207.428571 305.306259 
L 210.571429 305.567842 
L 216.857143 305.551363 
L 223.142857 305.909282 
L 226.285714 306.022295 
L 229.428571 305.913356 
L 232.571429 306.421388 
L 235.714286 306.569473 
L 238.857143 306.212442 
L 242 306.074629 
L 248.285714 305.58941 
L 251.428571 305.50229 
L 254.571429 305.745322 
L 257.714286 306.178921 
L 260.857143 305.882244 
L 264 306.329084 
L 267.142857 306.397346 
L 270.285714 306.028313 
L 273.428571 306.614372 
L 276.571429 306.837103 
L 279.714286 306.76134 
L 282.857143 306.268451 
L 286 306.804912 
L 289.142857 307.08053 
L 292.285714 307.526414 
L 295.428571 307.395548 
L 298.571429 307.531151 
L 301.714286 307.955838 
L 304.857143 307.43263 
L 308 307.556757 
L 311.142857 307.056158 
L 314.285714 307.470599 
L 317.428571 307.575294 
L 320.571429 307.568401 
L 323.714286 307.038069 
L 326.857143 307.265682 
L 336.285714 306.045329 
L 339.428571 306.105523 
L 342.571429 306.344667 
L 345.714286 306.060892 
L 348.857143 306.24209 
L 352 306.216633 
L 355.142857 306.074592 
L 358.285714 306.288409 
L 364.571429 307.164276 
L 367.714286 307.760257 
L 370.857143 307.819353 
L 374 307.613187 
L 377.142857 308.236379 
L 380.285714 307.611104 
L 386.571429 307.462036 
L 389.714286 307.617002 
L 392.857143 307.191429 
L 405.428571 307.556996 
L 408.571429 307.349969 
L 414.857143 307.413599 
L 418 307.125322 
L 421.142857 307.021203 
L 433.714286 307.258923 
L 436.857143 306.729989 
L 440 306.711432 
L 443.142857 306.249197 
L 449.428571 306.040367 
L 452.571429 305.813751 
L 455.714286 305.75837 
L 458.857143 306.082211 
L 465.142857 305.897831 
L 468.285714 305.757602 
L 474.571429 305.966731 
L 477.714286 305.666296 
L 484 305.536004 
L 487.142857 305.57409 
L 490.285714 305.471684 
L 493.428571 305.206255 
L 496.571429 305.196957 
L 499.714286 305.007103 
L 515.428571 305.473883 
L 518.571429 305.856007 
L 521.714286 305.890599 
L 528 305.516508 
L 531.142857 305.925727 
L 534.285714 306.148152 
L 537.428571 306.134022 
L 540.571429 306.339343 
L 550 306.552934 
L 553.142857 306.238162 
L 556.285714 306.123168 
L 562.571429 305.424902 
L 565.714286 306.012096 
L 572 305.953495 
L 575.142857 306.198117 
L 578.285714 306.010492 
L 581.428571 306.160964 
L 587.714286 306.960118 
L 594 307.312234 
L 597.142857 307.25432 
L 600.285714 306.958345 
L 606.571429 307.317346 
L 612.857143 306.388125 
L 619.142857 306.596474 
L 622.285714 306.838275 
L 628.571429 306.893513 
L 631.714286 306.904365 
L 634.857143 306.483042 
L 638 306.837473 
L 644.285714 306.05823 
L 653.714286 306.506188 
L 656.857143 306.357914 
L 660 305.914092 
L 666.285714 305.924081 
L 669.428571 305.652064 
L 678.857143 306.224746 
L 682 306.547333 
L 685.142857 306.097273 
L 691.428571 305.65941 
L 694.571429 306.015801 
L 697.714286 305.311047 
L 707.142857 305.460706 
L 713.428571 305.759511 
L 716.571429 305.620564 
L 719.714286 305.61144 
L 722.857143 305.487445 
L 729.142857 305.562533 
L 732.285714 305.842458 
L 738.571429 305.337797 
L 748 305.534943 
L 751.142857 305.663279 
L 760.571429 305.765679 
L 763.714286 305.503906 
L 766.857143 305.506271 
L 776.285714 306.417584 
L 779.428571 306.499384 
L 785.714286 306.296829 
L 788.857143 306.425947 
L 788.857143 306.425947 
" clip-path="url(#p487f6da63c)" style="fill: none; stroke: #000000; stroke-width: 1.5; stroke-linecap: square"/>
   </g>
   <g id="line2d_7">
    <path d="M 0 306 
L 6.285714 305.981184 
L 9.428571 306.355291 
L 12.571429 306.104969 
L 15.714286 306.300664 
L 18.857143 304.739061 
L 22 303.400234 
L 25.142857 304.214121 
L 31.428571 304.07132 
L 34.571429 304.386652 
L 37.714286 304.251909 
L 44 304.850928 
L 47.142857 305.642776 
L 50.285714 305.972594 
L 53.428571 306.593428 
L 56.571429 306.612106 
L 59.714286 306.830956 
L 62.857143 306.758756 
L 66 305.166721 
L 69.142857 304.981286 
L 72.285714 305.384572 
L 75.428571 304.909418 
L 81.714286 304.422047 
L 91.142857 304.439386 
L 94.285714 304.340763 
L 97.428571 303.913523 
L 100.571429 303.811492 
L 103.714286 303.972817 
L 106.857143 304.339304 
L 110 304.365734 
L 113.142857 304.015713 
L 116.285714 304.063896 
L 119.428571 304.327703 
L 125.714286 304.673859 
L 128.857143 304.958652 
L 132 305.036066 
L 135.142857 304.717366 
L 138.285714 304.708217 
L 141.428571 305.808259 
L 144.571429 305.6725 
L 147.714286 305.709716 
L 150.857143 306.147544 
L 154 306.98554 
L 157.142857 306.898135 
L 160.285714 306.356378 
L 163.428571 306.289007 
L 166.571429 306.379253 
L 172.857143 305.895797 
L 182.285714 305.104786 
L 185.428571 305.221499 
L 188.571429 305.1216 
L 191.714286 305.436131 
L 198 305.243314 
L 229.428571 305.729559 
L 232.571429 306.042947 
L 235.714286 306.142634 
L 238.857143 305.938729 
L 245.142857 305.704358 
L 251.428571 305.529539 
L 254.571429 305.672914 
L 257.714286 305.931026 
L 260.857143 305.762609 
L 264 306.028118 
L 267.142857 306.075757 
L 270.285714 305.868445 
L 273.428571 306.213683 
L 276.571429 306.353074 
L 279.714286 306.321349 
L 282.857143 306.047767 
L 286 306.362166 
L 292.285714 306.80044 
L 295.428571 306.743555 
L 298.571429 306.836864 
L 301.714286 307.095345 
L 304.857143 306.819564 
L 308 306.904734 
L 311.142857 306.637909 
L 314.285714 306.881509 
L 320.571429 306.965652 
L 323.714286 306.68329 
L 326.857143 306.818917 
L 336.285714 306.157431 
L 352 306.245438 
L 355.142857 306.166763 
L 361.428571 306.491807 
L 367.714286 307.099476 
L 370.857143 307.147014 
L 374 307.050489 
L 377.142857 307.401904 
L 380.285714 307.082171 
L 386.571429 307.024386 
L 389.714286 307.118112 
L 392.857143 306.900127 
L 405.428571 307.129232 
L 411.714286 307.036355 
L 414.857143 307.076265 
L 421.142857 306.878239 
L 433.714286 307.017833 
L 436.857143 306.74318 
L 440 306.732734 
L 443.142857 306.488116 
L 455.714286 306.202974 
L 458.857143 306.363363 
L 468.285714 306.169155 
L 474.571429 306.261423 
L 480.857143 306.035183 
L 490.285714 305.954111 
L 493.428571 305.804933 
L 512.285714 305.748153 
L 521.714286 306.056473 
L 528 305.854875 
L 534.285714 306.171519 
L 537.428571 306.162843 
L 543.714286 306.298461 
L 550 306.386789 
L 562.571429 305.805739 
L 565.714286 306.099039 
L 572 306.063858 
L 575.142857 306.186472 
L 578.285714 306.089737 
L 581.428571 306.164154 
L 590.857143 306.676942 
L 594 306.776172 
L 597.142857 306.757642 
L 600.285714 306.616706 
L 606.571429 306.816607 
L 612.857143 306.358849 
L 619.142857 306.467071 
L 625.428571 306.640961 
L 631.714286 306.644407 
L 634.857143 306.436124 
L 638 306.618081 
L 644.285714 306.225128 
L 653.714286 306.445988 
L 656.857143 306.372215 
L 660 306.146866 
L 666.285714 306.14247 
L 669.428571 305.999594 
L 678.857143 306.27445 
L 682 306.437173 
L 685.142857 306.209998 
L 691.428571 305.98251 
L 694.571429 306.157451 
L 697.714286 305.796541 
L 710.285714 305.900015 
L 713.428571 305.979722 
L 722.857143 305.826202 
L 735.428571 305.843052 
L 738.571429 305.719212 
L 770 305.90127 
L 776.285714 306.215135 
L 782.571429 306.228906 
L 785.714286 306.167888 
L 788.857143 306.235984 
L 788.857143 306.235984 
" clip-path="url(#p487f6da63c)" style="fill: none; stroke: #000000; stroke-width: 1.5; stroke-linecap: square"/>
   </g>
   <g id="line2d_8">
    <path d="M 0 306 
L 6.285714 305.981285 
L 9.428571 306.351371 
L 12.571429 306.106025 
L 15.714286 306.297378 
L 18.857143 304.777272 
L 22 303.474693 
L 25.142857 304.249368 
L 31.428571 304.105428 
L 34.571429 304.401393 
L 37.714286 304.272872 
L 44 304.832385 
L 47.142857 305.570163 
L 50.285714 305.880304 
L 53.428571 306.457928 
L 56.571429 306.483285 
L 59.714286 306.69032 
L 62.857143 306.632577 
L 66 305.201411 
L 69.142857 305.032972 
L 72.285714 305.391215 
L 75.428571 304.967849 
L 81.714286 304.530973 
L 91.142857 304.534259 
L 94.285714 304.445171 
L 97.428571 304.072925 
L 100.571429 303.979501 
L 103.714286 304.111308 
L 106.857143 304.418184 
L 110 304.437872 
L 113.142857 304.140361 
L 116.285714 304.17674 
L 119.428571 304.393631 
L 125.714286 304.677514 
L 128.857143 304.912404 
L 132 304.977378 
L 135.142857 304.718298 
L 138.285714 304.710817 
L 141.428571 305.603417 
L 144.571429 305.499325 
L 147.714286 305.533955 
L 150.857143 305.889597 
L 154 306.565402 
L 157.142857 306.506719 
L 160.285714 306.087546 
L 163.428571 306.041119 
L 166.571429 306.118154 
L 179.142857 305.289122 
L 182.285714 305.144333 
L 185.428571 305.233072 
L 188.571429 305.156369 
L 191.714286 305.395381 
L 198 305.250114 
L 229.428571 305.621282 
L 232.571429 305.851625 
L 235.714286 305.927688 
L 242 305.73276 
L 251.428571 305.498401 
L 257.714286 305.785485 
L 260.857143 305.669006 
L 264 305.857906 
L 267.142857 305.89444 
L 270.285714 305.752385 
L 273.428571 305.99563 
L 276.571429 306.096543 
L 279.714286 306.078979 
L 282.857143 305.89375 
L 289.142857 306.234199 
L 292.285714 306.42386 
L 298.571429 306.46086 
L 301.714286 306.643008 
L 304.857143 306.463375 
L 308 306.526871 
L 311.142857 306.353016 
L 314.285714 306.521576 
L 320.571429 306.589943 
L 323.714286 306.407496 
L 326.857143 306.502178 
L 336.285714 306.075126 
L 352 306.140732 
L 355.142857 306.091147 
L 361.428571 306.304643 
L 370.857143 306.74008 
L 374 306.684234 
L 377.142857 306.914481 
L 380.285714 306.717588 
L 386.571429 306.691149 
L 389.714286 306.755424 
L 392.857143 306.622808 
L 408.571429 306.726315 
L 418 306.678492 
L 427.428571 306.698554 
L 440 306.579913 
L 443.142857 306.432339 
L 468.285714 306.237869 
L 477.714286 306.192595 
L 506 305.941034 
L 524.857143 306.089287 
L 528 306.013954 
L 534.285714 306.195602 
L 543.714286 306.268849 
L 550 306.320963 
L 562.571429 305.985291 
L 565.714286 306.151468 
L 572 306.129764 
L 575.142857 306.199074 
L 581.428571 306.185442 
L 594 306.538493 
L 609.714286 306.447655 
L 612.857143 306.318074 
L 638 306.474168 
L 644.285714 306.257424 
L 656.857143 306.34005 
L 660 306.2155 
L 678.857143 306.279713 
L 682 306.369252 
L 688.285714 306.192195 
L 691.428571 306.118783 
L 694.571429 306.213142 
L 697.714286 306.014663 
L 729.142857 306.023222 
L 732.285714 306.094451 
L 741.714286 305.949447 
L 760.571429 306.028181 
L 766.857143 305.950176 
L 779.428571 306.216584 
L 788.857143 306.203371 
L 788.857143 306.203371 
" clip-path="url(#p487f6da63c)" style="fill: none; stroke: #000000; stroke-width: 1.5; stroke-linecap: square"/>
   </g>
   <g id="line2d_9">
    <path d="M 0 306 
L 6.285714 305.981335 
L 9.428571 306.349417 
L 12.571429 306.106535 
L 15.714286 306.29574 
L 18.857143 304.796158 
L 22 303.511601 
L 25.142857 304.267206 
L 31.428571 304.122831 
L 34.571429 304.409391 
L 37.714286 304.28389 
L 44 304.824171 
L 47.142857 305.535657 
L 50.285714 305.835978 
L 53.428571 306.392419 
L 56.571429 306.420474 
L 59.714286 306.62139 
L 62.857143 306.570089 
L 66 305.215314 
L 69.142857 305.055236 
L 72.285714 305.392388 
L 75.428571 304.993693 
L 81.714286 304.581373 
L 91.142857 304.579303 
L 94.285714 304.495048 
L 97.428571 304.148891 
L 100.571429 304.060088 
L 103.714286 304.178778 
L 106.857143 304.458447 
L 110 304.475225 
L 113.142857 304.202188 
L 116.285714 304.233515 
L 122.571429 304.517507 
L 132 304.955395 
L 135.142857 304.723168 
L 138.285714 304.716337 
L 141.428571 305.514435 
L 144.571429 305.423748 
L 147.714286 305.456387 
L 150.857143 305.774009 
L 154 306.375358 
L 157.142857 306.327822 
L 160.285714 305.962232 
L 169.714286 305.800529 
L 176 305.508895 
L 182.285714 305.152743 
L 185.428571 305.229389 
L 188.571429 305.163218 
L 191.714286 305.369036 
L 198 305.244934 
L 229.428571 305.564665 
L 232.571429 305.758429 
L 235.714286 305.823477 
L 245.142857 305.572393 
L 251.428571 305.472109 
L 257.714286 305.709602 
L 260.857143 305.61508 
L 264 305.770676 
L 267.142857 305.801829 
L 270.285714 305.687249 
L 273.428571 305.886271 
L 279.714286 305.957382 
L 282.857143 305.809178 
L 292.285714 306.241407 
L 298.571429 306.275794 
L 301.714286 306.42388 
L 304.857143 306.283456 
L 308 306.336374 
L 311.142857 306.200698 
L 317.428571 306.382145 
L 320.571429 306.395284 
L 323.714286 306.253907 
L 326.857143 306.330331 
L 336.285714 306.000694 
L 361.428571 306.185846 
L 370.857143 306.525798 
L 374 306.485537 
L 377.142857 306.663491 
L 380.285714 306.516335 
L 396 306.486235 
L 408.571429 306.541649 
L 433.714286 306.572579 
L 436.857143 306.452694 
L 443.142857 306.34377 
L 471.428571 306.217055 
L 477.714286 306.175085 
L 506 305.993402 
L 524.857143 306.096914 
L 528 306.043871 
L 534.285714 306.171117 
L 581.428571 306.166526 
L 594 306.410088 
L 609.714286 306.353586 
L 616 306.281352 
L 631.714286 306.383936 
L 634.857143 306.308115 
L 638 306.377071 
L 647.428571 306.262085 
L 656.857143 306.290132 
L 663.142857 306.208475 
L 678.857143 306.250099 
L 682 306.309083 
L 691.428571 306.145698 
L 694.571429 306.207091 
L 697.714286 306.077724 
L 770 306.073807 
L 782.571429 306.184347 
L 788.857143 306.187053 
L 788.857143 306.187053 
" clip-path="url(#p487f6da63c)" style="fill: none; stroke: #000000; stroke-width: 1.5; stroke-linecap: square"/>
   </g>
  </g>
 </g>
 <defs>
  <clipPath id="p487f6da63c">
   <rect x="0" y="0" width="792" height="612"/>
  </clipPath>
 </defs>
</svg>
