<?xml version="1.0" encoding="utf-8" standalone="no"?>
<!DOCTYPE svg PUBLIC "-//W3C//DTD SVG 1.1//EN"
  "http://www.w3.org/Graphics/SVG/1.1/DTD/svg11.dtd">
<svg xmlns:xlink="http://www.w3.org/1999/xlink" width="792pt" height="612pt" viewBox="0 0 792 612" xmlns="http://www.w3.org/2000/svg" version="1.1">
 <metadata>
  <rdf:RDF xmlns:dc="http://purl.org/dc/elements/1.1/" xmlns:cc="http://creativecommons.org/ns#" xmlns:rdf="http://www.w3.org/1999/02/22-rdf-syntax-ns#">
   <cc:Work>
    <dc:type rdf:resource="http://purl.org/dc/dcmitype/StillImage"/>
    <dc:date>2023-01-16T16:12:35.916085</dc:date>
    <dc:format>image/svg+xml</dc:format>
    <dc:creator>
     <cc:Agent>
      <dc:title>Matplotlib v3.6.2, https://matplotlib.org/</dc:title>
     </cc:Agent>
    </dc:creator>
   </cc:Work>
  </rdf:RDF>
 </metadata>
 <defs>
  <style type="text/css">*{stroke-linejoin: round; stroke-linecap: butt}</style>
 </defs>
 <g id="figure_1">
  <g id="patch_1">
   <path d="M 0 612 
L 792 612 
L 792 0 
L 0 0 
z
" style="fill: #ffffff"/>
  </g>
  <g id="axes_1">
   <g id="line2d_1">
    <path d="M 0 306 
L 3.168 314.799884 
L 6.336 306.865497 
L 9.504 310.014213 
L 12.672 305.650118 
L 15.84 279.950904 
L 19.008 301.930552 
L 22.176 312.296999 
L 25.344 296.500977 
L 28.512 300.917961 
L 31.68 299.15081 
L 34.848 304.858283 
L 38.016 306.220978 
L 41.184 302.667039 
L 44.352 302.280378 
L 47.52 294.716799 
L 50.688 301.580737 
L 53.856 307.638908 
L 57.024 312.812378 
L 60.192 305.0056 
L 63.36 295.63639 
L 66.528 305.263406 
L 69.696 310.916349 
L 72.864 307.528422 
L 76.032 310.492907 
L 79.2 312.425847 
L 82.368 307.104888 
L 85.536 296.133048 
L 88.704 304.471578 
L 91.872 336.248608 
L 95.04 301.856906 
L 98.208 306.773423 
L 101.376 318.772499 
L 104.544 331.390844 
L 107.712 304.305849 
L 110.88 290.177331 
L 114.048 304.250606 
L 117.216 309.13042 
L 120.384 296.997724 
L 123.552 300.015928 
L 126.72 297.586523 
L 129.888 294.293854 
L 133.056 299.095593 
L 136.224 309.001529 
L 139.392 301.875318 
L 142.56 315.774972 
L 145.728 300.715456 
L 148.896 303.440392 
L 152.064 307.068058 
L 155.232 303.716598 
L 158.4 308.172919 
L 161.568 311.082039 
L 164.736 305.686947 
L 167.904 305.097674 
L 171.072 310.161505 
L 174.24 309.112007 
L 177.408 308.430713 
L 180.576 303.587701 
L 183.744 317.283201 
L 186.912 309.738034 
L 190.08 298.543451 
L 193.248 303.10895 
L 196.416 299.887074 
L 199.584 301.046831 
L 202.752 303.624529 
L 205.92 311.008399 
L 209.088 315.572611 
L 212.256 299.445307 
L 215.424 316.032511 
L 218.592 307.878294 
L 221.76 297.991358 
L 224.928 319.37908 
L 228.096 311.689541 
L 231.264 305.097674 
L 234.432 295.489242 
L 237.6 318.533515 
L 240.768 313.106864 
L 243.936 317.283201 
L 247.104 304.508407 
L 250.272 310.492907 
L 253.44 317.264811 
L 256.608 295.912305 
L 259.776 310.271974 
L 262.944 296.022675 
L 266.112 316.58433 
L 269.28 309.866918 
L 272.448 307.399521 
L 275.616 295.323707 
L 278.784 312.278592 
L 281.952 297.016123 
L 285.12 297.052921 
L 288.288 298.212189 
L 291.456 307.43635 
L 294.624 311.634315 
L 297.792 299.77663 
L 300.96 310.253562 
L 304.128 305.650118 
L 307.296 302.924819 
L 310.464 311.026809 
L 313.632 315.167864 
L 319.968 320.95936 
L 323.136 309.112007 
L 326.304 303.016885 
L 329.472 322.043049 
L 332.64 293.705485 
L 335.808 304.931942 
L 338.976 306.681349 
L 342.144 311.045219 
L 345.312 297.715331 
L 348.48 309.425024 
L 351.648 309.866918 
L 354.816 311.008399 
L 357.984 307.565251 
L 361.152 302.722277 
L 364.32 307.381106 
L 367.488 308.762156 
L 370.656 300.697047 
L 373.824 304.655723 
L 376.992 308.172919 
L 380.16 308.578022 
L 383.328 305.594873 
L 386.496 311.37659 
L 389.664 294.955873 
L 392.832 306.276223 
L 396 295.967489 
L 399.168 303.882323 
L 402.336 303.698184 
L 405.504 300.789094 
L 408.672 304.56365 
L 411.84 313.290911 
L 415.008 302.685452 
L 418.176 305.060844 
L 421.344 302.538151 
L 424.512 307.270619 
L 427.68 309.185659 
L 430.848 298.948351 
L 434.016 303.348324 
L 437.184 304.821454 
L 440.352 306.423542 
L 443.52 303.201017 
L 446.688 299.298057 
L 449.856 304.987186 
L 453.024 300.752275 
L 456.192 306.810253 
L 459.36 306.092074 
L 462.528 308.670089 
L 465.696 304.618894 
L 468.864 310.437674 
L 472.032 314.358274 
L 475.2 306.681349 
L 478.368 302.685452 
L 481.536 300.292051 
L 484.704 315.057473 
L 487.872 311.100448 
L 491.04 305.779022 
L 494.208 310.897939 
L 497.376 307.638908 
L 500.544 308.430713 
L 503.712 308.191333 
L 506.88 299.279651 
L 510.048 303.661356 
L 513.216 296.942527 
L 516.384 298.617068 
L 519.552 319.066612 
L 522.72 304.250606 
L 525.888 306.313053 
L 529.056 311.615907 
L 532.224 301.801672 
L 535.392 309.461849 
L 538.56 314.781484 
L 541.728 316.455578 
L 544.896 311.100448 
L 548.064 311.174087 
L 551.232 305.92634 
L 554.4 300.347276 
L 557.568 311.100448 
L 560.736 311.302953 
L 563.904 296.592963 
L 567.072 295.985885 
L 570.24 308.007193 
L 573.408 309.664385 
L 576.576 312.22337 
L 579.744 308.743743 
L 582.912 306.294638 
L 586.08 307.123302 
L 589.248 297.144918 
L 592.416 314.726285 
L 595.584 297.292115 
L 598.752 297.807338 
L 601.92 309.719622 
L 605.088 308.854223 
L 608.256 310.382441 
L 611.424 303.072124 
L 614.592 296.077861 
L 617.76 306.257808 
L 620.928 305.834266 
L 624.096 299.610967 
L 627.264 309.664385 
L 630.432 308.522781 
L 633.6 312.591506 
L 636.768 313.714198 
L 639.936 296.04107 
L 643.104 301.838495 
L 646.272 300.071152 
L 649.44 313.99024 
L 652.608 289.644776 
L 655.776 305.742192 
L 658.944 307.399521 
L 662.112 306.441957 
L 665.28 308.430713 
L 668.448 309.553911 
L 671.616 302.574976 
L 674.784 305.429139 
L 677.952 302.74069 
L 681.12 307.196961 
L 684.288 305.594873 
L 687.456 312.039295 
L 690.624 299.463713 
L 693.792 300.163192 
L 696.96 306.165734 
L 700.128 307.381106 
L 703.296 307.23379 
L 706.464 308.541195 
L 709.632 305.871096 
L 712.8 307.196961 
L 715.968 306.405127 
L 719.136 299.721408 
L 722.304 305.613288 
L 725.472 312.278592 
L 728.64 313.162079 
L 731.808 313.217293 
L 734.976 308.375471 
L 738.144 304.729381 
L 741.312 303.421978 
L 744.48 309.296135 
L 747.648 302.851167 
L 750.816 307.160132 
L 753.984 310.382441 
L 757.152 299.905482 
L 760.32 305.208162 
L 763.488 307.160132 
L 766.656 299.703001 
L 769.824 313.566971 
L 772.992 299.113999 
L 776.16 305.576458 
L 779.328 303.053711 
L 782.496 302.464501 
L 785.664 304.158535 
L 788.832 304.453164 
L 788.832 304.453164 
" clip-path="url(#pe7057f56d6)" style="fill: none; stroke: #000000; stroke-width: 1.5; stroke-linecap: square"/>
   </g>
   <g id="line2d_2">
    <path d="M 0 306 
L 3.168 306 
L 6.336 311.867488 
L 9.504 309.00942 
L 12.672 309.545319 
L 15.84 307.534956 
L 19.008 293.498876 
L 22.176 297.746338 
L 25.344 305.049651 
L 28.512 300.755668 
L 31.68 300.809597 
L 34.848 299.965036 
L 38.016 302.401321 
L 41.184 304.312203 
L 44.352 303.534265 
L 47.52 302.907995 
L 50.688 298.776645 
L 53.856 300.188531 
L 57.024 303.926589 
L 60.192 308.396774 
L 63.36 306.701497 
L 66.528 301.146607 
L 69.696 303.209971 
L 72.864 307.080263 
L 76.032 307.329473 
L 79.2 308.928742 
L 82.368 310.686833 
L 85.536 308.884767 
L 88.704 302.48999 
L 91.872 303.498088 
L 95.04 319.974097 
L 98.208 310.902054 
L 101.376 308.836387 
L 104.544 313.82274 
L 107.712 322.657717 
L 110.88 313.483036 
L 114.048 301.81243 
L 117.216 303.031037 
L 120.384 306.02737 
L 123.552 301.502039 
L 126.72 300.745705 
L 129.888 299.124393 
L 133.056 296.635747 
L 136.224 297.855327 
L 139.392 303.46451 
L 142.56 302.665234 
L 145.728 309.234615 
L 148.896 304.98213 
L 152.064 304.217966 
L 155.232 305.6616 
L 158.4 304.707572 
L 161.568 306.458061 
L 164.736 308.774288 
L 167.904 307.238123 
L 171.072 306.146958 
L 174.24 308.172847 
L 177.408 308.653553 
L 180.576 308.544805 
L 183.744 306.066005 
L 186.912 311.694378 
L 190.08 310.713619 
L 193.248 304.613983 
L 196.416 303.857554 
L 199.584 301.851996 
L 202.752 301.433594 
L 205.92 302.519594 
L 212.256 311.173365 
L 215.424 305.288898 
L 218.592 310.696436 
L 221.76 309.296785 
L 224.928 303.639549 
L 228.096 311.548913 
L 231.264 311.635037 
L 234.432 308.355036 
L 237.6 301.880949 
L 240.768 310.247786 
L 243.936 311.67171 
L 247.104 314.496606 
L 250.272 309.51622 
L 253.44 309.987137 
L 256.608 313.637987 
L 259.776 304.7561 
L 262.944 307.543154 
L 266.112 301.737268 
L 269.28 309.169484 
L 272.448 309.503656 
L 275.616 308.457286 
L 278.784 301.858855 
L 281.952 307.059248 
L 285.12 302.038784 
L 288.288 299.51951 
L 291.456 298.870112 
L 297.792 307.388256 
L 300.96 303.567121 
L 304.128 306.939733 
L 307.296 306.281928 
L 310.464 304.614922 
L 313.632 307.84847 
L 316.8 311.542199 
L 319.968 314.8299 
L 323.136 317.914104 
L 326.304 313.532906 
L 329.472 308.261378 
L 332.64 315.189004 
L 335.808 304.427239 
L 338.976 304.667638 
L 342.144 305.657845 
L 345.312 308.337922 
L 348.48 302.980131 
L 351.648 306.203214 
L 354.816 308.04857 
L 357.984 309.506905 
L 361.152 308.563291 
L 364.32 305.638419 
L 367.488 306.511139 
L 370.656 307.632193 
L 373.824 304.170233 
L 376.992 304.403625 
L 380.16 306.284961 
L 383.328 307.426745 
L 386.496 306.50695 
L 389.664 308.958926 
L 392.832 301.930913 
L 396 304.098598 
L 399.168 300.022714 
L 402.336 301.950841 
L 405.504 302.815713 
L 408.672 301.787087 
L 411.84 303.173289 
L 415.008 308.236465 
L 418.176 305.476079 
L 421.344 305.266078 
L 424.512 303.914963 
L 430.848 307.403348 
L 434.016 303.1717 
L 437.184 303.257629 
L 440.352 304.02292 
L 443.52 305.230549 
L 446.688 304.212116 
L 449.856 301.748459 
L 453.024 303.363272 
L 456.192 302.041167 
L 459.36 304.441032 
L 462.528 305.271928 
L 465.696 306.978585 
L 468.864 305.795198 
L 472.032 308.130747 
L 475.2 311.274581 
L 478.368 308.981455 
L 481.536 305.837227 
L 484.704 303.051617 
L 487.872 309.073303 
L 491.04 310.091686 
L 494.208 307.937725 
L 497.376 309.418814 
L 500.544 308.515704 
L 506.88 308.344782 
L 510.048 303.80975 
L 513.216 303.713204 
L 516.384 300.299414 
L 519.552 299.444152 
L 522.72 309.274762 
L 525.888 306.756092 
L 529.056 306.53042 
L 532.224 309.080091 
L 535.392 305.445749 
L 538.56 307.465235 
L 541.728 311.159071 
L 544.896 313.842875 
L 548.064 312.456164 
L 551.232 311.828723 
L 554.4 308.877041 
L 557.568 304.589792 
L 560.736 307.863562 
L 563.904 309.586981 
L 567.072 303.052989 
L 570.24 299.478438 
L 573.408 303.736311 
L 576.576 306.697453 
L 579.744 309.473041 
L 582.912 309.12486 
L 586.08 307.700362 
L 589.248 307.403637 
L 592.416 302.274313 
L 595.584 308.538089 
L 598.752 302.893048 
L 601.92 300.326557 
L 605.088 305.017949 
L 608.256 306.936339 
L 611.424 308.66749 
L 614.592 305.861852 
L 617.76 300.966477 
L 620.928 303.595356 
L 624.096 304.731547 
L 627.264 302.174527 
L 630.432 305.919336 
L 633.6 307.22043 
L 636.768 309.910601 
L 639.936 311.833487 
L 643.104 303.935832 
L 646.272 302.878462 
L 649.44 301.463412 
L 652.608 307.755749 
L 655.776 298.654598 
L 658.944 302.192433 
L 662.112 304.785708 
L 665.28 305.599567 
L 668.448 307.039462 
L 671.616 308.311853 
L 674.784 305.448276 
L 677.952 305.421918 
L 681.12 304.106975 
L 684.288 305.654811 
L 687.456 305.621304 
L 690.624 308.841586 
L 693.792 304.134632 
L 696.96 302.130338 
L 700.128 304.154996 
L 703.296 305.771872 
L 706.464 306.511644 
L 709.632 307.529072 
L 712.8 306.700631 
L 715.968 306.9393 
L 719.136 306.685827 
L 722.304 303.202389 
L 725.472 304.40673 
L 728.64 308.352653 
L 731.808 310.769283 
L 734.976 312.002552 
L 738.144 310.194068 
L 741.312 307.457003 
L 744.48 305.433617 
L 747.648 307.383706 
L 750.816 305.111972 
L 753.984 306.126016 
L 757.152 308.248885 
L 760.32 304.050721 
L 763.488 304.623226 
L 766.656 305.896443 
L 769.824 302.792102 
L 772.992 308.188589 
L 776.16 303.643448 
L 779.328 304.606834 
L 782.496 303.815888 
L 785.664 303.145199 
L 788.832 303.649802 
L 788.832 303.649802 
" clip-path="url(#pe7057f56d6)" style="fill: none; stroke: #000000; stroke-width: 1.5; stroke-linecap: square"/>
   </g>
   <g id="line2d_3">
    <path d="M 0 306 
L 3.168 306 
L 6.336 311.155786 
L 9.504 309.212084 
L 12.672 309.525341 
L 15.84 308.146647 
L 19.008 298.688802 
L 22.176 299.730205 
L 25.344 303.656036 
L 28.512 301.462834 
L 31.68 301.298093 
L 34.848 300.654899 
L 41.184 303.183464 
L 47.52 302.809932 
L 50.688 300.429242 
L 53.856 300.761417 
L 57.024 302.767323 
L 60.192 305.716528 
L 63.36 305.502548 
L 66.528 302.600289 
L 69.696 303.409407 
L 72.864 305.618542 
L 76.032 306.172458 
L 79.2 307.454047 
L 82.368 308.923669 
L 85.536 308.400112 
L 88.704 304.796186 
L 91.872 304.699101 
L 95.04 314.005618 
L 98.208 310.447761 
L 101.376 309.38551 
L 104.544 312.156093 
L 107.712 317.828998 
L 110.88 313.860823 
L 114.048 306.904124 
L 117.216 306.136822 
L 120.384 307.018096 
L 123.552 304.066474 
L 126.72 302.871334 
L 129.888 301.308291 
L 133.056 299.232146 
L 136.224 299.182954 
L 139.392 302.072979 
L 142.56 302.012103 
L 145.728 306.020343 
L 148.896 304.465125 
L 152.064 304.161155 
L 155.232 304.999104 
L 158.4 304.591608 
L 161.568 305.644995 
L 164.736 307.261626 
L 171.072 306.298229 
L 174.24 307.444944 
L 177.408 307.943677 
L 180.576 308.098785 
L 183.744 306.788208 
L 186.912 309.884309 
L 190.08 309.842312 
L 193.248 306.528834 
L 196.416 305.512597 
L 199.584 303.863764 
L 202.752 303.035895 
L 205.92 303.204345 
L 209.088 305.498552 
L 212.256 308.45854 
L 215.424 305.805001 
L 218.592 308.813431 
L 221.76 308.542734 
L 224.928 305.437833 
L 228.096 309.535274 
L 231.264 310.170033 
L 234.432 308.686221 
L 237.6 304.794715 
L 240.768 308.830797 
L 243.936 310.100145 
L 247.104 312.221115 
L 250.272 309.967804 
L 253.44 310.132455 
L 256.608 312.237952 
L 259.776 307.438466 
L 262.944 308.262337 
L 266.112 304.67249 
L 269.28 308.163217 
L 272.448 308.664522 
L 275.616 308.304827 
L 278.784 304.473874 
L 281.952 306.760747 
L 285.12 303.896605 
L 288.288 301.89341 
L 291.456 300.791691 
L 294.624 302.731123 
L 297.792 305.332414 
L 300.96 303.699518 
L 304.128 305.618928 
L 307.296 305.614717 
L 310.464 304.834898 
L 313.632 306.649461 
L 319.968 311.778804 
L 323.136 314.482288 
L 326.304 312.911729 
L 329.472 310.023009 
L 332.64 313.557768 
L 335.808 307.73849 
L 338.976 306.925533 
L 342.144 306.863743 
L 345.312 308.092717 
L 348.48 305.036694 
L 351.648 306.333129 
L 357.984 308.440318 
L 361.152 308.18935 
L 364.32 306.578532 
L 367.488 306.804655 
L 370.656 307.367305 
L 373.824 305.390196 
L 376.992 305.169954 
L 380.16 306.055434 
L 383.328 306.778816 
L 386.496 306.445712 
L 389.664 307.897474 
L 392.832 304.09213 
L 396 304.726347 
L 399.168 302.158071 
L 402.336 302.656707 
L 405.504 302.954656 
L 408.672 302.308599 
L 411.84 302.96561 
L 415.008 306.002296 
L 418.176 305.025386 
L 421.344 305.03152 
L 424.512 304.303316 
L 427.68 305.175415 
L 430.848 306.351183 
L 434.016 304.171538 
L 437.184 303.927841 
L 440.352 304.182041 
L 443.52 304.851729 
L 446.688 304.364703 
L 449.856 302.884328 
L 453.024 303.501488 
L 456.192 302.692817 
L 459.36 303.905645 
L 462.528 304.547778 
L 465.696 305.749878 
L 468.864 305.420839 
L 472.032 306.896501 
L 475.2 309.096088 
L 478.368 308.388177 
L 481.536 306.710416 
L 484.704 304.831877 
L 487.872 307.841086 
L 491.04 308.803019 
L 494.208 307.916601 
L 497.376 308.798718 
L 500.544 308.468605 
L 506.88 308.390888 
L 510.048 305.713335 
L 513.216 305.109522 
L 516.384 302.703342 
L 519.552 301.499419 
L 522.72 306.656749 
L 525.888 305.940389 
L 529.056 306.049117 
L 532.224 307.690018 
L 535.392 305.96703 
L 538.56 306.984249 
L 541.728 309.272821 
L 544.896 311.389593 
L 551.232 311.270814 
L 554.4 309.702765 
L 557.568 306.953532 
L 560.736 308.181818 
L 563.904 309.104831 
L 567.072 305.438995 
L 570.24 302.666302 
L 576.576 305.819349 
L 579.744 307.702067 
L 582.912 308.003872 
L 586.08 307.508418 
L 589.248 307.392935 
L 592.416 304.370395 
L 595.584 307.402249 
L 598.752 304.424528 
L 601.92 302.470615 
L 605.088 304.59811 
L 611.424 307.17995 
L 614.592 305.967319 
L 617.76 303.069242 
L 620.928 304.014919 
L 624.096 304.545288 
L 627.264 303.088319 
L 630.432 305.011456 
L 633.6 306.03966 
L 636.768 307.966157 
L 639.936 309.657615 
L 643.104 305.667245 
L 646.272 304.53096 
L 649.44 303.227757 
L 652.608 306.399085 
L 655.776 301.464549 
L 658.944 302.713758 
L 662.112 304.082698 
L 665.28 304.777569 
L 671.616 306.946991 
L 674.784 305.662674 
L 677.952 305.600957 
L 681.12 304.755222 
L 684.288 305.468865 
L 687.456 305.497735 
L 690.624 307.412008 
L 693.792 305.087659 
L 696.96 303.643229 
L 700.128 304.389036 
L 703.296 305.257794 
L 706.464 305.856771 
L 709.632 306.646252 
L 712.8 306.417459 
L 715.968 306.646638 
L 719.136 306.573574 
L 722.304 304.55508 
L 725.472 304.868509 
L 728.64 307.046991 
L 731.808 308.850334 
L 734.976 310.136501 
L 738.144 309.623924 
L 744.48 306.792397 
L 747.648 307.536241 
L 750.816 306.160184 
L 753.984 306.45281 
L 757.152 307.607462 
L 760.32 305.34146 
L 763.488 305.301656 
L 766.656 305.84595 
L 769.824 304.038789 
L 772.992 306.845866 
L 776.16 304.573459 
L 779.328 304.85953 
L 785.664 303.763454 
L 788.832 303.874326 
L 788.832 303.874326 
" clip-path="url(#pe7057f56d6)" style="fill: none; stroke: #000000; stroke-width: 1.5; stroke-linecap: square"/>
   </g>
   <g id="line2d_4">
    <path d="M 0 306 
L 3.168 306 
L 6.336 310.781146 
L 9.504 309.24451 
L 12.672 309.48944 
L 15.84 308.435494 
L 19.008 301.409689 
L 22.176 301.52762 
L 25.344 303.81219 
L 28.512 302.338846 
L 31.68 302.064219 
L 34.848 301.519679 
L 38.016 302.12669 
L 41.184 302.854561 
L 47.52 302.728767 
L 50.688 301.368434 
L 53.856 301.404085 
L 57.024 302.44181 
L 60.192 304.155564 
L 63.36 304.295169 
L 66.528 302.879793 
L 69.696 303.267586 
L 72.864 304.507591 
L 76.032 304.995841 
L 79.2 305.882137 
L 82.368 306.935046 
L 85.536 306.962322 
L 88.704 305.225234 
L 91.872 305.104531 
L 95.04 310.102799 
L 98.208 308.784814 
L 101.376 308.463551 
L 104.544 310.112694 
L 107.712 313.516517 
L 110.88 312.04995 
L 114.048 308.555908 
L 117.216 307.87007 
L 120.384 308.088846 
L 123.552 306.320743 
L 126.72 305.309841 
L 129.888 304.081398 
L 133.056 302.519248 
L 136.224 301.974417 
L 139.392 303.094948 
L 142.56 302.898182 
L 145.728 304.95555 
L 148.896 304.279891 
L 152.064 304.151767 
L 155.232 304.619175 
L 158.4 304.473122 
L 161.568 305.058876 
L 164.736 306.021046 
L 171.072 305.834607 
L 174.24 306.522601 
L 177.408 306.935587 
L 180.576 307.172185 
L 183.744 306.596362 
L 186.912 308.303802 
L 190.08 308.540492 
L 193.248 306.946038 
L 196.416 306.314794 
L 199.584 305.290763 
L 202.752 304.611905 
L 205.92 304.445351 
L 209.088 305.476863 
L 212.256 307.090656 
L 215.424 305.879889 
L 218.592 307.503121 
L 221.76 307.562031 
L 224.928 306.039644 
L 228.096 308.175404 
L 231.264 308.743379 
L 234.432 308.170104 
L 237.6 306.149654 
L 240.768 308.127004 
L 243.936 308.926469 
L 247.104 310.257612 
L 250.272 309.345356 
L 253.44 309.532342 
L 256.608 310.769527 
L 259.776 308.400512 
L 262.944 308.699593 
L 266.112 306.672747 
L 269.28 308.257149 
L 272.448 308.516255 
L 275.616 308.336859 
L 278.784 306.257163 
L 281.952 307.217729 
L 285.12 305.59011 
L 288.288 304.218799 
L 291.456 303.255723 
L 294.624 303.926396 
L 297.792 305.15815 
L 300.96 304.301741 
L 304.128 305.254473 
L 307.296 305.318685 
L 310.464 304.932755 
L 313.632 305.899571 
L 316.8 307.384429 
L 319.968 309.087337 
L 323.136 310.985933 
L 326.304 310.694744 
L 329.472 309.463102 
L 332.64 311.472968 
L 335.808 308.638358 
L 338.976 308.054571 
L 342.144 307.828692 
L 345.312 308.339211 
L 348.48 306.636416 
L 357.984 308.075967 
L 361.152 308.001983 
L 364.32 307.157251 
L 367.488 307.199956 
L 370.656 307.443631 
L 373.824 306.364428 
L 376.992 306.090854 
L 383.328 306.769577 
L 386.496 306.588032 
L 389.664 307.358928 
L 392.832 305.382768 
L 396 305.524196 
L 399.168 303.993368 
L 405.504 303.929611 
L 408.672 303.426864 
L 411.84 303.608749 
L 415.008 305.15081 
L 418.176 304.750757 
L 421.344 304.79197 
L 424.512 304.421863 
L 427.68 304.873956 
L 430.848 305.563827 
L 434.016 304.496674 
L 437.184 304.319985 
L 440.352 304.399701 
L 443.52 304.721535 
L 446.688 304.474715 
L 449.856 303.651943 
L 453.024 303.861611 
L 456.192 303.361172 
L 459.36 303.907291 
L 462.528 304.25397 
L 465.696 304.960301 
L 468.864 304.904258 
L 472.032 305.785735 
L 475.2 307.158508 
L 478.368 307.083854 
L 481.536 306.380612 
L 484.704 305.406625 
L 487.872 306.948433 
L 491.04 307.608924 
L 494.208 307.32454 
L 497.376 307.896014 
L 500.544 307.862392 
L 506.88 307.995953 
L 510.048 306.608067 
L 513.216 306.138665 
L 516.384 304.664911 
L 519.552 303.699947 
L 522.72 306.15481 
L 525.888 305.85291 
L 529.056 305.925523 
L 532.224 306.832498 
L 535.392 306.033817 
L 538.56 306.583066 
L 544.896 309.263018 
L 551.232 309.824491 
L 554.4 309.204917 
L 557.568 307.795358 
L 563.904 308.801202 
L 567.072 306.850882 
L 570.24 305.116269 
L 573.408 305.574711 
L 576.576 306.222491 
L 579.744 307.180841 
L 582.912 307.433291 
L 586.08 307.255874 
L 589.248 307.22983 
L 592.416 305.616187 
L 595.584 307.071592 
L 598.752 305.506782 
L 601.92 304.275343 
L 605.088 305.142368 
L 608.256 305.733362 
L 611.424 306.480023 
L 614.592 305.937432 
L 617.76 304.367661 
L 620.928 304.673154 
L 624.096 304.849628 
L 627.264 304.013119 
L 630.432 304.914356 
L 633.6 305.486544 
L 639.936 307.754857 
L 643.104 305.878911 
L 646.272 305.226904 
L 649.44 304.399618 
L 652.608 305.927555 
L 655.776 303.324324 
L 658.944 303.712368 
L 662.112 304.296681 
L 665.28 304.634963 
L 671.616 305.940123 
L 674.784 305.401305 
L 677.952 305.403091 
L 681.12 304.97356 
L 684.288 305.326345 
L 687.456 305.368632 
L 690.624 306.43315 
L 693.792 305.325578 
L 696.96 304.495034 
L 700.128 304.766383 
L 709.632 305.99398 
L 712.8 305.971613 
L 715.968 306.169145 
L 719.136 306.213137 
L 722.304 305.176062 
L 725.472 305.245488 
L 731.808 307.455147 
L 734.976 308.375029 
L 738.144 308.372469 
L 744.48 307.097331 
L 747.648 307.451836 
L 750.816 306.721578 
L 753.984 306.787091 
L 757.152 307.372113 
L 760.32 306.180382 
L 763.488 306.024331 
L 766.656 306.20549 
L 769.824 305.165335 
L 772.992 306.504814 
L 776.16 305.326565 
L 779.328 305.366416 
L 785.664 304.592478 
L 788.832 304.52254 
L 788.832 304.52254 
" clip-path="url(#pe7057f56d6)" style="fill: none; stroke: #000000; stroke-width: 1.5; stroke-linecap: square"/>
   </g>
   <g id="line2d_5">
    <path d="M 0 306 
L 3.168 306 
L 6.336 310.591357 
L 9.504 309.240479 
L 12.672 309.459734 
L 15.84 308.560468 
L 19.008 302.69053 
L 22.176 302.551823 
L 25.344 304.169491 
L 28.512 302.99374 
L 31.68 302.696452 
L 34.848 302.217455 
L 41.184 303.006499 
L 47.52 302.888125 
L 50.688 301.983444 
L 53.856 301.940079 
L 57.024 302.538894 
L 60.192 303.595211 
L 63.36 303.7374 
L 66.528 302.934644 
L 69.696 303.161658 
L 72.864 303.906845 
L 76.032 304.250351 
L 79.2 304.835554 
L 82.368 305.539595 
L 85.536 305.683366 
L 88.704 304.81357 
L 91.872 304.782682 
L 95.04 307.612781 
L 98.208 307.100112 
L 101.376 307.071191 
L 104.544 308.102021 
L 107.712 310.147021 
L 110.88 309.637739 
L 114.048 307.946827 
L 117.216 307.627105 
L 120.384 307.756694 
L 123.552 306.832032 
L 126.72 306.24801 
L 129.888 305.507753 
L 133.056 304.551451 
L 136.224 304.087371 
L 139.392 304.50444 
L 142.56 304.281706 
L 145.728 305.253927 
L 148.896 304.870683 
L 152.064 304.750087 
L 155.232 304.945264 
L 158.4 304.84193 
L 161.568 305.121761 
L 164.736 305.622004 
L 171.072 305.583067 
L 174.24 305.966345 
L 180.576 306.413502 
L 183.744 306.177417 
L 186.912 307.105162 
L 190.08 307.324905 
L 193.248 306.592253 
L 196.416 306.301797 
L 199.584 305.767055 
L 202.752 305.373724 
L 205.92 305.227772 
L 209.088 305.706342 
L 212.256 306.528296 
L 215.424 305.936913 
L 218.592 306.778484 
L 221.76 306.878875 
L 224.928 306.139815 
L 228.096 307.24163 
L 231.264 307.615779 
L 234.432 307.40815 
L 237.6 306.417402 
L 240.768 307.428016 
L 243.936 307.90167 
L 247.104 308.685436 
L 250.272 308.339502 
L 253.44 308.523373 
L 256.608 309.254336 
L 259.776 308.142958 
L 262.944 308.318841 
L 266.112 307.295123 
L 269.28 308.073237 
L 272.448 308.22361 
L 275.616 308.154071 
L 278.784 307.084897 
L 281.952 307.516599 
L 288.288 305.840719 
L 291.456 305.208121 
L 294.624 305.39402 
L 297.792 305.903948 
L 300.96 305.394658 
L 304.128 305.799082 
L 307.296 305.782445 
L 310.464 305.535982 
L 313.632 305.993923 
L 316.8 306.763688 
L 319.968 307.707395 
L 323.136 308.812036 
L 326.304 308.840876 
L 329.472 308.358505 
L 332.64 309.503344 
L 335.808 308.191547 
L 338.976 307.922922 
L 342.144 307.819123 
L 345.312 308.089886 
L 348.48 307.222815 
L 354.816 307.61458 
L 357.984 307.897562 
L 361.152 307.871235 
L 364.32 307.442118 
L 367.488 307.43585 
L 370.656 307.546931 
L 373.824 306.976951 
L 376.992 306.782507 
L 383.328 307.037121 
L 386.496 306.918075 
L 389.664 307.28623 
L 392.832 306.257656 
L 396 306.261715 
L 399.168 305.404712 
L 405.504 305.149263 
L 408.672 304.786426 
L 411.84 304.765839 
L 415.008 305.472751 
L 418.176 305.242462 
L 421.344 305.223816 
L 424.512 304.999168 
L 427.68 305.19071 
L 430.848 305.518962 
L 434.016 304.96938 
L 437.184 304.834266 
L 440.352 304.836242 
L 443.52 304.964036 
L 446.688 304.814484 
L 449.856 304.350709 
L 453.024 304.403689 
L 456.192 304.097434 
L 465.696 304.817732 
L 468.864 304.804028 
L 472.032 305.269618 
L 475.2 306.025573 
L 478.368 306.079766 
L 481.536 305.800439 
L 484.704 305.339309 
L 487.872 306.15197 
L 491.04 306.567285 
L 494.208 306.504326 
L 497.376 306.870137 
L 506.88 307.153039 
L 510.048 306.497421 
L 513.216 306.262275 
L 516.384 305.48397 
L 519.552 304.908541 
L 522.72 306.084583 
L 525.888 305.926927 
L 529.056 305.958063 
L 532.224 306.430492 
L 535.392 306.039704 
L 538.56 306.328871 
L 544.896 307.819278 
L 551.232 308.351882 
L 554.4 308.14944 
L 557.568 307.498761 
L 563.904 308.089911 
L 570.24 306.204285 
L 573.408 306.353675 
L 576.576 306.631384 
L 579.744 307.098027 
L 582.912 307.234804 
L 589.248 307.153812 
L 592.416 306.318281 
L 595.584 307.022741 
L 601.92 305.514905 
L 611.424 306.472792 
L 614.592 306.190058 
L 617.76 305.344895 
L 624.096 305.456308 
L 627.264 304.970141 
L 630.432 305.360536 
L 633.6 305.622778 
L 639.936 306.832364 
L 643.104 305.933581 
L 646.272 305.592192 
L 649.44 305.13289 
L 652.608 305.872946 
L 655.776 304.519791 
L 658.944 304.622869 
L 671.616 305.628379 
L 674.784 305.372388 
L 677.952 305.374192 
L 681.12 305.15433 
L 684.288 305.325328 
L 687.456 305.349426 
L 690.624 305.903739 
L 696.96 304.93173 
L 703.296 305.227438 
L 715.968 305.802479 
L 719.136 305.855577 
L 722.304 305.346754 
L 725.472 305.364494 
L 734.976 307.097272 
L 738.144 307.205499 
L 744.48 306.697918 
L 747.648 306.911237 
L 750.816 306.571576 
L 753.984 306.619117 
L 757.152 306.932931 
L 760.32 306.349473 
L 763.488 306.252831 
L 766.656 306.326785 
L 769.824 305.777977 
L 772.992 306.430283 
L 776.16 305.82007 
L 779.328 305.798521 
L 788.832 305.212003 
L 788.832 305.212003 
" clip-path="url(#pe7057f56d6)" style="fill: none; stroke: #000000; stroke-width: 1.5; stroke-linecap: square"/>
   </g>
   <g id="line2d_6">
    <path d="M 0 306 
L 3.168 306 
L 6.336 310.49615 
L 9.504 309.233233 
L 12.672 309.441347 
L 15.84 308.616074 
L 19.008 303.295019 
L 22.176 303.073864 
L 25.344 304.408993 
L 28.512 303.370234 
L 31.68 303.074493 
L 34.848 302.635582 
L 41.184 303.198128 
L 47.52 303.07158 
L 50.688 302.362804 
L 53.856 302.299186 
L 57.024 302.717221 
L 60.192 303.480259 
L 63.36 303.591841 
L 66.528 303.026997 
L 69.696 303.181301 
L 72.864 303.701185 
L 76.032 303.952182 
L 82.368 304.876792 
L 85.536 305.013788 
L 88.704 304.477779 
L 91.872 304.477411 
L 95.04 306.335038 
L 98.208 306.078087 
L 101.376 306.117394 
L 104.544 306.823217 
L 107.712 308.177796 
L 110.88 307.967471 
L 114.048 307.011725 
L 117.216 306.865157 
L 120.384 306.984137 
L 123.552 306.464759 
L 129.888 305.696332 
L 133.056 305.11909 
L 136.224 304.816731 
L 139.392 305.025134 
L 142.56 304.869417 
L 145.728 305.404909 
L 148.896 305.176219 
L 152.064 305.09211 
L 155.232 305.187274 
L 158.4 305.116849 
L 161.568 305.262393 
L 164.736 305.538129 
L 171.072 305.524149 
L 177.408 305.897555 
L 180.576 306.014886 
L 183.744 305.902902 
L 186.912 306.426225 
L 190.08 306.577917 
L 193.248 306.211113 
L 196.416 306.069968 
L 202.752 305.574995 
L 205.92 305.487036 
L 209.088 305.735375 
L 212.256 306.176801 
L 215.424 305.875532 
L 218.592 306.329135 
L 221.76 306.398141 
L 224.928 306.024395 
L 228.096 306.617147 
L 231.264 306.841731 
L 234.432 306.764666 
L 237.6 306.267143 
L 240.768 306.807577 
L 243.936 307.084554 
L 247.104 307.532415 
L 250.272 307.399883 
L 253.44 307.535258 
L 256.608 307.960692 
L 259.776 307.434666 
L 262.944 307.558361 
L 266.112 307.055942 
L 269.28 307.470519 
L 272.448 307.574633 
L 275.616 307.567033 
L 278.784 307.036048 
L 281.952 307.263155 
L 291.456 306.043581 
L 294.624 306.1037 
L 297.792 306.342272 
L 300.96 306.059256 
L 304.128 306.239916 
L 307.296 306.21453 
L 310.464 306.073025 
L 313.632 306.285991 
L 319.968 307.157696 
L 323.136 307.750476 
L 326.304 307.808876 
L 329.472 307.603443 
L 332.64 308.222787 
L 335.808 307.60074 
L 342.144 307.452031 
L 345.312 307.605753 
L 348.48 307.18275 
L 361.152 307.544736 
L 364.32 307.338866 
L 370.656 307.401319 
L 373.824 307.115339 
L 376.992 307.010454 
L 389.664 307.243469 
L 392.832 306.719884 
L 396 306.700991 
L 399.168 306.243827 
L 405.504 306.039222 
L 408.672 305.815746 
L 411.84 305.760959 
L 415.008 306.081331 
L 421.344 305.898925 
L 424.512 305.760199 
L 430.848 305.967087 
L 434.016 305.66987 
L 440.352 305.540974 
L 443.52 305.578653 
L 446.688 305.477343 
L 449.856 305.214757 
L 453.024 305.205559 
L 456.192 305.017739 
L 472.032 305.479519 
L 475.2 305.857549 
L 478.368 305.891771 
L 484.704 305.521687 
L 487.872 305.926523 
L 491.04 306.146565 
L 494.208 306.132586 
L 497.376 306.335708 
L 506.88 306.547011 
L 510.048 306.235611 
L 513.216 306.121849 
L 519.552 305.431063 
L 522.72 306.011966 
L 529.056 305.953993 
L 532.224 306.195995 
L 535.392 306.01038 
L 538.56 306.15924 
L 544.896 306.949833 
L 551.232 307.298178 
L 554.4 307.240884 
L 557.568 306.948079 
L 563.904 307.303235 
L 570.24 306.383968 
L 576.576 306.590085 
L 579.744 306.829296 
L 586.08 306.883942 
L 589.248 306.894678 
L 592.416 306.477868 
L 595.584 306.828502 
L 601.92 306.057606 
L 611.424 306.500766 
L 614.592 306.35408 
L 617.76 305.915012 
L 624.096 305.924895 
L 627.264 305.655791 
L 636.768 306.222338 
L 639.936 306.54147 
L 643.104 306.096231 
L 649.44 305.663058 
L 652.608 306.015632 
L 655.776 305.318427 
L 665.28 305.466483 
L 671.616 305.762087 
L 674.784 305.624628 
L 677.952 305.615602 
L 681.12 305.492936 
L 687.456 305.56722 
L 690.624 305.844146 
L 696.96 305.34489 
L 706.464 305.539924 
L 709.632 305.666886 
L 719.136 305.76819 
L 722.304 305.50922 
L 725.472 305.511559 
L 734.976 306.41311 
L 738.144 306.494035 
L 744.48 306.293649 
L 747.648 306.421385 
L 750.816 306.268652 
L 753.984 306.308019 
L 757.152 306.480932 
L 760.32 306.200465 
L 766.656 306.199874 
L 769.824 305.923888 
L 772.992 306.249024 
L 776.16 305.944869 
L 782.496 305.807843 
L 788.832 305.600529 
L 788.832 305.600529 
" clip-path="url(#pe7057f56d6)" style="fill: none; stroke: #000000; stroke-width: 1.5; stroke-linecap: square"/>
   </g>
   <g id="line2d_7">
    <path d="M 0 306 
L 3.168 306 
L 6.336 310.448507 
L 9.504 309.228296 
L 12.672 309.431209 
L 15.84 308.641928 
L 19.008 303.58645 
L 22.176 303.334236 
L 25.344 304.541405 
L 28.512 303.568361 
L 31.68 303.276725 
L 34.848 302.859646 
L 41.184 303.323874 
L 47.52 303.193619 
L 50.688 302.573155 
L 53.856 302.504118 
L 57.024 302.844868 
L 60.192 303.477953 
L 63.36 303.571056 
L 66.528 303.105649 
L 69.696 303.227616 
L 72.864 303.647501 
L 76.032 303.852625 
L 82.368 304.602645 
L 85.536 304.72373 
L 88.704 304.31878 
L 91.872 304.325799 
L 95.04 305.761683 
L 98.208 305.590584 
L 101.376 305.641275 
L 104.544 306.192531 
L 107.712 307.230904 
L 110.88 307.112969 
L 114.048 306.442244 
L 117.216 306.357063 
L 120.384 306.46301 
L 123.552 306.1073 
L 129.888 305.579959 
L 133.056 305.174923 
L 136.224 304.959922 
L 139.392 305.100869 
L 142.56 304.989868 
L 145.728 305.356346 
L 152.064 305.142284 
L 155.232 305.205378 
L 158.4 305.157147 
L 180.576 305.771568 
L 183.744 305.706145 
L 186.912 306.050172 
L 190.08 306.15882 
L 193.248 305.93622 
L 199.584 305.682469 
L 205.92 305.495391 
L 209.088 305.650718 
L 212.256 305.928457 
L 215.424 305.748188 
L 218.592 306.032395 
L 221.76 306.083076 
L 224.928 305.862197 
L 228.096 306.229164 
L 231.264 306.37649 
L 234.432 306.342181 
L 237.6 306.052463 
L 240.768 306.383961 
L 247.104 306.843436 
L 250.272 306.782369 
L 253.44 306.87896 
L 256.608 307.148187 
L 259.776 306.858272 
L 262.944 306.94595 
L 266.112 306.666515 
L 269.28 306.919207 
L 275.616 307.004228 
L 278.784 306.71013 
L 281.952 306.849783 
L 291.456 306.163844 
L 307.296 306.253327 
L 310.464 306.172303 
L 316.8 306.505063 
L 323.136 307.125903 
L 326.304 307.173585 
L 329.472 307.074052 
L 332.64 307.431928 
L 335.808 307.104727 
L 342.144 307.044267 
L 345.312 307.138937 
L 348.48 306.91643 
L 361.152 307.146542 
L 364.32 307.043176 
L 370.656 307.090881 
L 376.992 306.88931 
L 389.664 307.02845 
L 392.832 306.75073 
L 396 306.739836 
L 399.168 306.492808 
L 411.84 306.204862 
L 415.008 306.366179 
L 424.512 306.17051 
L 430.848 306.263052 
L 437.184 306.035748 
L 446.688 305.954381 
L 449.856 305.804825 
L 468.864 305.748274 
L 478.368 306.0568 
L 484.704 305.855233 
L 491.04 306.171672 
L 494.208 306.162962 
L 500.544 306.298301 
L 506.88 306.386331 
L 519.552 305.806486 
L 522.72 306.098997 
L 529.056 306.063882 
L 532.224 306.186074 
L 535.392 306.08964 
L 538.56 306.163768 
L 548.064 306.674373 
L 551.232 306.77308 
L 554.4 306.754517 
L 557.568 306.614108 
L 563.904 306.812879 
L 570.24 306.35721 
L 576.576 306.464765 
L 582.912 306.63758 
L 589.248 306.640855 
L 592.416 306.433717 
L 595.584 306.614541 
L 601.92 306.223876 
L 611.424 306.443237 
L 614.592 306.369902 
L 617.76 306.146013 
L 624.096 306.141615 
L 627.264 305.99971 
L 636.768 306.272597 
L 639.936 306.434122 
L 643.104 306.208568 
L 649.44 305.982737 
L 652.608 306.156363 
L 655.776 305.798176 
L 668.448 305.900884 
L 671.616 305.979965 
L 681.12 305.827684 
L 693.792 305.844426 
L 696.96 305.721628 
L 728.64 305.902196 
L 734.976 306.213274 
L 741.312 306.226903 
L 744.48 306.166425 
L 747.648 306.233898 
L 753.984 306.182515 
L 757.152 306.273028 
L 760.32 306.135809 
L 782.496 305.938058 
L 788.832 305.82658 
L 788.832 305.82658 
" clip-path="url(#pe7057f56d6)" style="fill: none; stroke: #000000; stroke-width: 1.5; stroke-linecap: square"/>
   </g>
   <g id="line2d_8">
    <path d="M 0 306 
L 3.168 306 
L 6.336 310.42468 
L 9.504 309.225499 
L 12.672 309.425897 
L 15.84 308.654343 
L 19.008 303.729255 
L 22.176 303.463861 
L 25.344 304.610382 
L 28.512 303.669495 
L 31.68 303.380713 
L 34.848 302.974948 
L 41.184 303.393977 
L 47.52 303.262314 
L 50.688 302.683462 
L 53.856 302.612821 
L 57.024 302.918466 
L 60.192 303.491527 
L 63.36 303.575268 
L 66.528 303.154712 
L 69.696 303.261848 
L 72.864 303.635792 
L 76.032 303.818975 
L 82.368 304.486566 
L 85.536 304.597804 
L 88.704 304.249099 
L 91.872 304.257991 
L 95.04 305.504037 
L 98.208 305.366273 
L 101.376 305.418025 
L 104.544 305.89699 
L 107.712 306.790526 
L 110.88 306.705692 
L 114.048 306.153786 
L 117.216 306.091692 
L 120.384 306.188717 
L 126.72 305.720921 
L 136.224 304.971613 
L 139.392 305.086132 
L 142.56 304.996467 
L 145.728 305.29246 
L 152.064 305.122926 
L 183.744 305.582859 
L 186.912 305.849901 
L 190.08 305.937551 
L 196.416 305.714104 
L 202.752 305.489341 
L 205.92 305.449592 
L 212.256 305.775799 
L 215.424 305.644941 
L 218.592 305.857599 
L 221.76 305.898556 
L 224.928 305.739758 
L 228.096 306.011254 
L 231.264 306.123204 
L 234.432 306.103167 
L 237.6 305.897509 
L 243.936 306.272989 
L 247.104 306.481033 
L 250.272 306.444076 
L 253.44 306.519336 
L 256.608 306.717604 
L 259.776 306.519777 
L 262.944 306.587942 
L 266.112 306.397364 
L 269.28 306.579808 
L 275.616 306.651679 
L 278.784 306.453011 
L 281.952 306.55447 
L 291.456 306.091991 
L 307.296 306.160696 
L 310.464 306.107398 
L 316.8 306.33426 
L 326.304 306.794958 
L 329.472 306.734735 
L 332.64 306.977724 
L 335.808 306.768217 
L 342.144 306.738483 
L 345.312 306.805445 
L 348.48 306.664765 
L 364.32 306.769769 
L 373.824 306.717447 
L 383.328 306.73637 
L 396 306.610284 
L 399.168 306.456249 
L 424.512 306.251944 
L 434.016 306.204497 
L 462.528 305.944333 
L 481.536 306.096042 
L 484.704 306.01878 
L 491.04 306.204533 
L 500.544 306.278961 
L 506.88 306.331839 
L 519.552 305.988885 
L 522.72 306.158196 
L 529.056 306.13588 
L 532.224 306.206339 
L 538.56 306.192232 
L 551.232 306.550444 
L 567.072 306.457223 
L 570.24 306.325659 
L 595.584 306.482508 
L 601.92 306.263048 
L 614.592 306.346092 
L 617.76 306.220214 
L 636.768 306.284459 
L 639.936 306.374623 
L 646.272 306.195999 
L 649.44 306.121977 
L 652.608 306.216955 
L 655.776 306.017029 
L 687.456 306.025343 
L 690.624 306.096882 
L 700.128 305.951148 
L 719.136 306.030053 
L 725.472 305.951775 
L 738.144 306.218724 
L 753.984 306.177784 
L 757.152 306.226759 
L 763.488 306.142202 
L 776.16 306.084266 
L 788.832 305.980725 
L 788.832 305.980725 
" clip-path="url(#pe7057f56d6)" style="fill: none; stroke: #000000; stroke-width: 1.5; stroke-linecap: square"/>
   </g>
   <g id="line2d_9">
    <path d="M 0 306 
L 3.168 306 
L 6.336 310.412766 
L 9.504 309.224019 
L 12.672 309.423179 
L 15.84 308.660419 
L 19.008 303.799906 
L 22.176 303.528484 
L 25.344 304.64551 
L 28.512 303.720524 
L 31.68 303.433363 
L 34.848 303.033345 
L 41.184 303.430778 
L 47.52 303.298557 
L 50.688 302.739864 
L 53.856 302.668683 
L 57.024 302.957677 
L 60.192 303.502033 
L 63.36 303.581139 
L 66.528 303.181813 
L 69.696 303.281904 
L 72.864 303.63398 
L 76.032 303.806547 
L 82.368 304.434481 
L 85.536 304.540502 
L 88.704 304.21765 
L 91.872 304.227086 
L 95.04 305.383944 
L 98.208 305.260677 
L 101.376 305.312025 
L 104.544 305.756489 
L 107.712 306.581625 
L 110.88 306.510439 
L 114.048 306.012001 
L 117.216 305.959609 
L 120.384 306.051684 
L 126.72 305.634508 
L 136.224 304.964062 
L 139.392 305.066911 
L 142.56 304.987205 
L 145.728 305.251505 
L 152.064 305.102315 
L 183.744 305.514968 
L 186.912 305.747458 
L 190.08 305.825149 
L 196.416 305.636539 
L 205.92 305.413286 
L 212.256 305.692426 
L 215.424 305.582886 
L 218.592 305.763952 
L 221.76 305.800145 
L 224.928 305.667995 
L 228.096 305.897478 
L 234.432 305.978636 
L 237.6 305.808852 
L 243.936 306.12504 
L 247.104 306.300032 
L 253.44 306.337071 
L 256.608 306.503352 
L 259.776 306.343779 
L 262.944 306.402382 
L 266.112 306.24895 
L 272.448 306.450605 
L 275.616 306.464246 
L 278.784 306.305467 
L 281.952 306.389831 
L 291.456 306.021738 
L 316.8 306.222658 
L 326.304 306.592641 
L 329.472 306.547793 
L 332.64 306.740936 
L 335.808 306.579663 
L 351.648 306.542996 
L 364.32 306.599901 
L 389.664 306.627436 
L 392.832 306.498495 
L 396 306.496054 
L 402.336 306.353906 
L 424.512 306.232035 
L 437.184 306.168569 
L 472.032 306.059812 
L 478.368 306.145645 
L 487.872 306.142482 
L 500.544 306.243413 
L 510.048 306.216833 
L 529.056 306.142571 
L 554.4 306.430076 
L 560.736 306.417989 
L 563.904 306.460641 
L 573.408 306.299514 
L 589.248 306.404664 
L 592.416 306.326106 
L 595.584 306.397154 
L 605.088 306.277902 
L 614.592 306.306351 
L 620.928 306.221917 
L 636.768 306.264094 
L 639.936 306.324603 
L 649.44 306.156318 
L 652.608 306.219266 
L 655.776 306.08634 
L 728.64 306.080789 
L 741.312 306.193259 
L 753.984 306.178241 
L 760.32 306.16271 
L 788.832 306.051585 
L 788.832 306.051585 
" clip-path="url(#pe7057f56d6)" style="fill: none; stroke: #000000; stroke-width: 1.5; stroke-linecap: square"/>
   </g>
  </g>
 </g>
 <defs>
  <clipPath id="pe7057f56d6">
   <rect x="0" y="0" width="792" height="612"/>
  </clipPath>
 </defs>
</svg>
