<?xml version="1.0" encoding="utf-8" standalone="no"?>
<!DOCTYPE svg PUBLIC "-//W3C//DTD SVG 1.1//EN"
  "http://www.w3.org/Graphics/SVG/1.1/DTD/svg11.dtd">
<svg xmlns:xlink="http://www.w3.org/1999/xlink" width="792pt" height="612pt" viewBox="0 0 792 612" xmlns="http://www.w3.org/2000/svg" version="1.1">
 <metadata>
  <rdf:RDF xmlns:dc="http://purl.org/dc/elements/1.1/" xmlns:cc="http://creativecommons.org/ns#" xmlns:rdf="http://www.w3.org/1999/02/22-rdf-syntax-ns#">
   <cc:Work>
    <dc:type rdf:resource="http://purl.org/dc/dcmitype/StillImage"/>
    <dc:date>2023-01-30T17:17:57.813928</dc:date>
    <dc:format>image/svg+xml</dc:format>
    <dc:creator>
     <cc:Agent>
      <dc:title>Matplotlib v3.6.2, https://matplotlib.org/</dc:title>
     </cc:Agent>
    </dc:creator>
   </cc:Work>
  </rdf:RDF>
 </metadata>
 <defs>
  <style type="text/css">*{stroke-linejoin: round; stroke-linecap: butt}</style>
 </defs>
 <g id="figure_1">
  <g id="patch_1">
   <path d="M 0 612 
L 792 612 
L 792 0 
L 0 0 
z
" style="fill: #ffffff"/>
  </g>
  <g id="axes_1">
   <g id="line2d_1">
    <path d="M 0 459 
L 3.168 418.155577 
L 6.336 411.831729 
L 9.504 421.624746 
L 12.672 406.865351 
L 15.84 399.013408 
L 19.008 388.487429 
L 22.176 386.740144 
L 25.344 387.078162 
L 28.512 381.988415 
L 31.68 376.331122 
L 34.848 359.32812 
L 38.016 352.745694 
L 41.184 355.181461 
L 44.352 365.37244 
L 47.52 363.878817 
L 50.688 348.43714 
L 53.856 347.349605 
L 57.024 354.633555 
L 60.192 356.909399 
L 63.36 363.630084 
L 66.528 373.316927 
L 69.696 374.990553 
L 72.864 360.12648 
L 76.032 357.843206 
L 79.2 404.01662 
L 82.368 397.622991 
L 85.536 398.814707 
L 88.704 418.614049 
L 91.872 458.422388 
L 95.04 455.765422 
L 98.208 430.962967 
L 101.376 428.230573 
L 104.544 433.121539 
L 107.712 419.072602 
L 110.88 409.775253 
L 114.048 396.77228 
L 117.216 378.848604 
L 120.384 368.393626 
L 123.552 372.926752 
L 126.72 366.701845 
L 129.888 381.511351 
L 133.056 373.484184 
L 136.224 369.615522 
L 139.392 371.228215 
L 142.56 367.783177 
L 145.728 371.061279 
L 148.896 378.764607 
L 152.064 378.288728 
L 155.232 376.918081 
L 158.4 383.252055 
L 161.568 388.008124 
L 164.736 391.733874 
L 167.904 388.036314 
L 171.072 405.411975 
L 174.24 411.203154 
L 177.408 399.66644 
L 180.576 395.213778 
L 183.744 385.839155 
L 186.912 378.288728 
L 190.08 374.683547 
L 193.248 382.297195 
L 196.416 396.970741 
L 199.584 386.909143 
L 202.752 402.337867 
L 205.92 405.241061 
L 209.088 392.892985 
L 212.256 413.575523 
L 215.424 422.428157 
L 218.592 421.022339 
L 221.76 404.699932 
L 224.928 424.179218 
L 228.096 435.28126 
L 231.264 452.964294 
L 234.432 450.625544 
L 240.768 464.448814 
L 243.936 459.173284 
L 247.104 461.40672 
L 250.272 450.567802 
L 253.44 461.724407 
L 256.608 463.746052 
L 259.776 464.477695 
L 262.944 458.682313 
L 266.112 462.17687 
L 269.28 454.437009 
L 272.448 440.411041 
L 275.616 428.230573 
L 278.784 430.47386 
L 281.952 439.286658 
L 285.12 429.553365 
L 288.288 436.203068 
L 291.456 435.655722 
L 294.624 430.847877 
L 297.792 438.710142 
L 300.96 453.079797 
L 304.128 463.341723 
L 307.296 471.168376 
L 310.464 472.795319 
L 313.632 471.235764 
L 316.8 479.630403 
L 319.968 473.199648 
L 323.136 472.641289 
L 326.304 472.997483 
L 329.472 475.635248 
L 332.64 471.303152 
L 335.808 473.093752 
L 338.976 475.115397 
L 342.144 477.733908 
L 345.312 478.552193 
L 348.48 476.838608 
L 351.648 477.560624 
L 354.816 479.004656 
L 357.984 476.232115 
L 361.152 475.529353 
L 364.32 476.665324 
L 367.488 478.013088 
L 370.656 477.801296 
L 373.824 480.612345 
L 376.992 474.836217 
L 380.16 474.98062 
L 383.328 469.733971 
L 389.664 467.42352 
L 392.832 464.699113 
L 396 463.948216 
L 399.168 467.760461 
L 402.336 466.027622 
L 405.504 465.536651 
L 408.672 463.726798 
L 411.84 464.391053 
L 415.008 466.056503 
L 418.176 462.369408 
L 421.344 460.983137 
L 424.512 460.367017 
L 427.68 460.588435 
L 430.848 459.125149 
L 434.016 448.864543 
L 437.184 447.27701 
L 440.352 439.056044 
L 443.52 440.324542 
L 446.688 440.468708 
L 449.856 444.650999 
L 453.024 442.487403 
L 456.192 449.44189 
L 459.36 460.184106 
L 462.528 460.540301 
L 465.696 458.422388 
L 468.864 449.470758 
L 472.032 460.559555 
L 475.2 463.2262 
L 478.368 463.110678 
L 481.536 465.671428 
L 484.704 466.52822 
L 487.872 467.798968 
L 491.04 468.944567 
L 494.208 465.430756 
L 497.376 464.208142 
L 500.544 459.471717 
L 503.712 448.835677 
L 506.88 462.446423 
L 510.048 461.531869 
L 513.216 461.695526 
L 516.384 464.631725 
L 519.552 462.436796 
L 522.72 464.246649 
L 525.888 468.838671 
L 529.056 474.306739 
L 535.392 479.678538 
L 538.56 479.64003 
L 541.728 476.684578 
L 548.064 482.123765 
L 551.232 477.20443 
L 554.4 471.967407 
L 557.568 473.016737 
L 560.736 474.932486 
L 563.904 478.186371 
L 567.072 479.620776 
L 570.24 479.774807 
L 573.408 480.362046 
L 576.576 475.731517 
L 579.744 480.294658 
L 582.912 475.741144 
L 586.08 471.457182 
L 589.248 473.401812 
L 592.416 474.893978 
L 595.584 477.185176 
L 598.752 475.654502 
L 601.92 470.465614 
L 605.088 470.60039 
L 608.256 470.513748 
L 611.424 467.173221 
L 614.592 469.08897 
L 617.76 470.407853 
L 620.928 473.854275 
L 624.096 477.887938 
L 627.264 472.679796 
L 630.432 470.504121 
L 633.6 467.404266 
L 636.768 471.582332 
L 639.936 463.024036 
L 643.104 462.889259 
L 646.272 463.620902 
L 649.44 463.851947 
L 652.608 465.122696 
L 655.776 466.980683 
L 658.944 465.190084 
L 662.112 464.89165 
L 665.28 463.187693 
L 668.448 463.81344 
L 671.616 463.601649 
L 674.784 466.759265 
L 677.952 463.341723 
L 681.12 460.290002 
L 684.288 460.376644 
L 690.624 461.743661 
L 693.792 463.07217 
L 696.96 463.004782 
L 700.128 463.630529 
L 703.296 463.842321 
L 706.464 460.559555 
L 709.632 460.35739 
L 712.8 463.640156 
L 719.136 471.158749 
L 722.304 472.400617 
L 725.472 471.736362 
L 728.64 470.388599 
L 731.808 472.11181 
L 734.976 470.465614 
L 738.144 471.072107 
L 741.312 473.363305 
L 744.48 470.176807 
L 747.648 469.762852 
L 750.816 470.369345 
L 753.984 467.076952 
L 757.152 471.0336 
L 760.32 467.433147 
L 763.488 467.211728 
L 766.656 465.671428 
L 769.824 463.823067 
L 772.992 462.860379 
L 776.16 462.051721 
L 779.328 463.986724 
L 782.496 467.192475 
L 785.664 470.629271 
L 788.832 466.056503 
L 788.832 466.056503 
" clip-path="url(#p3307eeb26d)" style="fill: none; stroke: #000000; stroke-width: 1.5; stroke-linecap: square"/>
   </g>
   <g id="line2d_2">
    <path d="M 0 459 
L 3.168 459 
L 6.336 431.730321 
L 9.504 420.342228 
L 12.672 421.026163 
L 19.008 406.229678 
L 22.176 397.265238 
L 25.344 391.973053 
L 28.512 389.384655 
L 31.68 385.611349 
L 34.848 380.89401 
L 38.016 369.939622 
L 41.184 361.202208 
L 44.352 358.102718 
L 47.52 361.686464 
L 50.688 362.737727 
L 53.856 355.48606 
L 57.024 351.341834 
L 60.192 352.944227 
L 63.36 354.920039 
L 66.528 359.287004 
L 69.696 366.315021 
L 72.864 370.663459 
L 76.032 365.37472 
L 79.2 361.620701 
L 82.368 382.763086 
L 85.536 390.25984 
L 88.704 394.614776 
L 91.872 406.687044 
L 95.04 432.63848 
L 98.208 444.352638 
L 101.376 437.794858 
L 104.544 433.150667 
L 107.712 433.193455 
L 110.88 426.167577 
L 114.048 417.979851 
L 117.216 407.305318 
L 120.384 392.857827 
L 123.552 380.399753 
L 126.72 376.545595 
L 129.888 371.494706 
L 133.056 376.393586 
L 136.224 374.8499 
L 139.392 372.152031 
L 142.56 371.640419 
L 145.728 369.688529 
L 148.896 370.379932 
L 152.064 374.576414 
L 155.232 376.453971 
L 158.4 376.677016 
L 161.568 379.979534 
L 167.904 387.914272 
L 171.072 388.01531 
L 174.24 396.758606 
L 177.408 404.031021 
L 180.576 401.889678 
L 183.744 398.584645 
L 186.912 392.203844 
L 190.08 385.209799 
L 193.248 379.902606 
L 196.416 381.088135 
L 199.584 388.991561 
L 202.752 387.902665 
L 205.92 395.109375 
L 209.088 400.187594 
L 212.256 396.550166 
L 218.592 413.849068 
L 221.76 417.509698 
L 224.928 411.11062 
L 228.096 417.709994 
L 231.264 426.548451 
L 234.432 439.834292 
L 237.6 445.342018 
L 240.768 451.592136 
L 243.936 460.524294 
L 247.104 459.874007 
L 250.272 460.68074 
L 253.44 457.356416 
L 256.608 460.10913 
L 259.776 461.940842 
L 262.944 463.225483 
L 266.112 461.060454 
L 269.28 461.614208 
L 272.448 459.543258 
L 275.616 450.465679 
L 278.784 439.292762 
L 281.952 434.809247 
L 285.12 436.980986 
L 288.288 433.17573 
L 291.456 434.645144 
L 294.624 435.086078 
L 297.792 432.920248 
L 300.96 435.810938 
L 304.128 444.488975 
L 307.296 458.336199 
L 310.464 465.010306 
L 313.632 468.949135 
L 316.8 470.131353 
L 319.968 474.936601 
L 323.136 474.11439 
L 326.304 473.417857 
L 329.472 473.238986 
L 332.64 474.461222 
L 335.808 472.882451 
L 338.976 472.988687 
L 342.144 474.059649 
L 345.312 475.89306 
L 348.48 477.233122 
L 351.648 477.044095 
L 354.816 477.311307 
L 357.984 478.164588 
L 361.152 477.208016 
L 364.32 476.37346 
L 367.488 476.522431 
L 370.656 477.268307 
L 373.824 477.533329 
L 376.992 479.080237 
L 380.16 476.952885 
L 383.328 475.958862 
L 386.496 472.833675 
L 389.664 470.716743 
L 392.832 469.05201 
L 396 466.849456 
L 399.168 465.371673 
L 402.336 466.540867 
L 408.672 465.883295 
L 411.84 464.793267 
L 415.008 464.583855 
L 418.176 465.317498 
L 424.512 462.405197 
L 427.68 461.37161 
L 430.848 460.969358 
L 434.016 460.034682 
L 437.184 455.435861 
L 440.352 451.301144 
L 443.52 445.095566 
L 446.688 442.653226 
L 449.856 441.512917 
L 453.024 443.04563 
L 456.192 442.724828 
L 459.36 446.063202 
L 462.528 454.33305 
L 465.696 459.002982 
L 468.864 458.753665 
L 472.032 454.129661 
L 475.2 458.9496 
L 478.368 461.122368 
L 481.536 462.13538 
L 484.704 463.922733 
L 494.208 467.758497 
L 500.544 465.417958 
L 503.712 462.437476 
L 506.88 459.009702 
L 510.048 460.721739 
L 513.216 461.117007 
L 516.384 461.394299 
L 519.552 463.004555 
L 522.72 462.714805 
L 525.888 463.480803 
L 529.056 466.178104 
L 532.224 470.279079 
L 535.392 473.654716 
L 538.56 476.702209 
L 541.728 478.206305 
L 544.896 477.469074 
L 548.064 478.443315 
L 551.232 480.318593 
L 554.4 478.777915 
L 557.568 475.368074 
L 560.736 474.184647 
L 563.904 474.549261 
L 567.072 476.364966 
L 570.24 477.998628 
L 573.408 478.887548 
L 576.576 479.621343 
L 579.744 477.673542 
L 582.912 479.000428 
L 586.08 477.376128 
L 589.248 474.409841 
L 592.416 473.896445 
L 595.584 474.385943 
L 598.752 475.780482 
L 601.92 475.708261 
L 605.088 473.076612 
L 608.256 471.819493 
L 611.424 471.156371 
L 614.592 469.156396 
L 617.76 469.114226 
L 620.928 469.752243 
L 624.096 471.796728 
L 627.264 474.846712 
L 630.432 473.767596 
L 633.6 472.13567 
L 636.768 469.763871 
L 639.936 470.681747 
L 643.104 466.840999 
L 646.272 464.850387 
L 649.44 464.215579 
L 652.608 464.006242 
L 655.776 464.549651 
L 658.944 465.758258 
L 665.28 465.167621 
L 668.448 464.177978 
L 674.784 463.799547 
L 677.952 465.285107 
L 681.12 464.309923 
L 684.288 462.286843 
L 687.456 461.322305 
L 690.624 461.203045 
L 693.792 461.470522 
L 696.96 462.269892 
L 700.128 462.636167 
L 703.296 463.127213 
L 706.464 463.485748 
L 709.632 462.02318 
L 712.8 461.190247 
L 715.968 462.420185 
L 719.136 464.91366 
L 722.304 468.052061 
L 725.472 470.244762 
L 728.64 471.006456 
L 731.808 470.710363 
L 734.976 471.433738 
L 738.144 470.969496 
L 741.312 471.035374 
L 744.48 472.211061 
L 747.648 471.192009 
L 750.816 470.472258 
L 753.984 470.418121 
L 757.152 468.741043 
L 760.32 469.885207 
L 763.488 468.653231 
L 766.656 467.92491 
L 769.824 466.783087 
L 772.992 465.290619 
L 776.16 464.061964 
L 779.328 463.040534 
L 782.496 463.507569 
L 785.664 465.34249 
L 788.832 467.992147 
L 788.832 467.992147 
" clip-path="url(#p3307eeb26d)" style="fill: none; stroke: #000000; stroke-width: 1.5; stroke-linecap: square"/>
   </g>
   <g id="line2d_3">
    <path d="M 0 459 
L 3.168 459 
L 6.336 435.032256 
L 9.504 424.498078 
L 12.672 423.375636 
L 15.84 417.488566 
L 19.008 411.286101 
L 22.176 403.929439 
L 25.344 398.539923 
L 28.512 395.018764 
L 31.68 391.067017 
L 34.848 386.636915 
L 38.016 378.44669 
L 41.184 370.772302 
L 44.352 366.146025 
L 47.52 365.918131 
L 50.688 365.318086 
L 53.856 360.220425 
L 57.024 356.35306 
L 60.192 355.784892 
L 63.36 356.04172 
L 66.528 358.209824 
L 69.696 362.583595 
L 72.864 366.187879 
L 76.032 364.378597 
L 79.2 362.426848 
L 82.368 374.495716 
L 85.536 381.253711 
L 88.704 386.421086 
L 91.872 395.865777 
L 95.04 414.167483 
L 98.208 426.410114 
L 101.376 427.821242 
L 104.544 428.03484 
L 107.712 429.624659 
L 110.88 426.605949 
L 114.048 421.727299 
L 117.216 414.427219 
L 123.552 393.428781 
L 129.888 381.317958 
L 133.056 381.348949 
L 136.224 379.012724 
L 139.392 376.219444 
L 142.56 374.701701 
L 145.728 372.569264 
L 148.896 372.032363 
L 152.064 373.941536 
L 155.232 375.156862 
L 158.4 375.609062 
L 161.568 377.802381 
L 164.736 380.758787 
L 167.904 383.958644 
L 171.072 385.162304 
L 177.408 397.014838 
L 180.576 397.829298 
L 183.744 397.078631 
L 186.912 393.792518 
L 190.08 389.244196 
L 193.248 384.967166 
L 196.416 384.201399 
L 199.584 387.959949 
L 202.752 387.661483 
L 205.92 391.973723 
L 209.088 395.881487 
L 212.256 395.016722 
L 215.424 400.462615 
L 218.592 406.907916 
L 221.76 411.070866 
L 224.928 409.201995 
L 228.096 413.593964 
L 231.264 419.970226 
L 234.432 429.673868 
L 237.6 435.876641 
L 240.768 442.345818 
L 243.936 452.123553 
L 247.104 454.379203 
L 250.272 457.927209 
L 253.44 455.845268 
L 256.608 459.079306 
L 259.776 460.472293 
L 262.944 461.677227 
L 266.112 460.879396 
L 269.28 461.277098 
L 272.448 460.177474 
L 275.616 456.091578 
L 278.784 447.924543 
L 281.952 442.802243 
L 285.12 441.756635 
L 288.288 438.154877 
L 294.624 436.955601 
L 297.792 435.132898 
L 300.96 436.148832 
L 304.128 441.10629 
L 307.296 450.16247 
L 310.464 460.489277 
L 313.632 464.103187 
L 316.8 466.206446 
L 319.968 470.158279 
L 323.136 471.067132 
L 329.472 472.002528 
L 332.64 473.09657 
L 335.808 472.592974 
L 338.976 472.767126 
L 342.144 473.482164 
L 345.312 474.757934 
L 348.48 475.902497 
L 351.648 476.20494 
L 354.816 476.625596 
L 357.984 477.340397 
L 361.152 477.021605 
L 364.32 476.587675 
L 367.488 476.616654 
L 370.656 477.023802 
L 373.824 477.256811 
L 376.992 478.248779 
L 380.16 477.251375 
L 383.328 476.585534 
L 386.496 474.576956 
L 389.664 472.829088 
L 392.832 471.236999 
L 396 469.307125 
L 399.168 467.720763 
L 402.336 467.721963 
L 408.672 466.706154 
L 411.84 465.819157 
L 415.008 465.388082 
L 418.176 465.571672 
L 421.344 464.615783 
L 424.512 463.532488 
L 427.68 462.582089 
L 430.848 461.981796 
L 434.016 461.126892 
L 437.184 459.498033 
L 440.352 456.57554 
L 443.52 451.389251 
L 446.688 448.105904 
L 449.856 445.829891 
L 453.024 445.43795 
L 456.192 444.53048 
L 459.36 445.935229 
L 462.528 450.788435 
L 465.696 454.53323 
L 468.864 455.647319 
L 472.032 453.815466 
L 478.368 459.699634 
L 481.536 460.701603 
L 484.704 462.16475 
L 494.208 465.99206 
L 497.376 465.842199 
L 500.544 465.376675 
L 503.712 463.653191 
L 506.88 461.300219 
L 510.048 461.643553 
L 516.384 461.638067 
L 519.552 462.521579 
L 522.72 462.504343 
L 525.888 463.018888 
L 529.056 464.729909 
L 538.56 473.077176 
L 541.728 475.012992 
L 544.896 475.511478 
L 548.064 476.652103 
L 551.232 478.275294 
L 554.4 477.982013 
L 557.568 476.239162 
L 560.736 475.307477 
L 563.904 475.213036 
L 567.072 476.102847 
L 570.24 477.150441 
L 576.576 478.667214 
L 579.744 477.815286 
L 582.912 478.548355 
L 586.08 477.724726 
L 589.248 475.879562 
L 592.416 475.146681 
L 595.584 475.070609 
L 598.752 475.687464 
L 601.92 475.670379 
L 605.088 474.138198 
L 608.256 473.100428 
L 611.424 472.339932 
L 614.592 470.817725 
L 617.76 470.300935 
L 620.928 470.321669 
L 624.096 471.349545 
L 627.264 473.261754 
L 630.432 473.087797 
L 633.6 472.319811 
L 636.768 470.870505 
L 639.936 471.079138 
L 643.104 468.707933 
L 646.272 466.989895 
L 649.44 465.98756 
L 652.608 465.348497 
L 655.776 465.276224 
L 658.944 465.771291 
L 665.28 465.386334 
L 668.448 464.735589 
L 674.784 464.19535 
L 677.952 464.933521 
L 681.12 464.456568 
L 684.288 463.224477 
L 687.456 462.382294 
L 690.624 461.994285 
L 693.792 461.919408 
L 696.96 462.257254 
L 700.128 462.475492 
L 706.464 463.113393 
L 709.632 462.358015 
L 712.8 461.766495 
L 715.968 462.31384 
L 719.136 463.803973 
L 722.304 465.966574 
L 725.472 467.861168 
L 728.64 469.001903 
L 731.808 469.416151 
L 734.976 470.21927 
L 738.144 470.30301 
L 741.312 470.539729 
L 744.48 471.380082 
L 750.816 470.670732 
L 753.984 470.590198 
L 757.152 469.564908 
L 760.32 470.007108 
L 763.488 469.261339 
L 766.656 468.665125 
L 769.824 467.786323 
L 776.16 465.505814 
L 779.328 464.48301 
L 782.496 464.330298 
L 785.664 465.16296 
L 788.832 466.764193 
L 788.832 466.764193 
" clip-path="url(#p3307eeb26d)" style="fill: none; stroke: #000000; stroke-width: 1.5; stroke-linecap: square"/>
   </g>
   <g id="line2d_4">
    <path d="M 0 459 
L 3.168 459 
L 6.336 436.771313 
L 9.504 426.959462 
L 12.672 425.260903 
L 19.008 414.964512 
L 22.176 408.937075 
L 25.344 404.204727 
L 28.512 400.740414 
L 31.68 397.098723 
L 34.848 393.195178 
L 41.184 380.813114 
L 44.352 376.298233 
L 50.688 372.618413 
L 53.856 368.518599 
L 57.024 364.9641 
L 60.192 363.249839 
L 63.36 362.205811 
L 66.528 362.438401 
L 72.864 365.943074 
L 76.032 365.000773 
L 79.2 363.843481 
L 82.368 370.222136 
L 85.536 374.584064 
L 88.704 378.440767 
L 91.872 384.806644 
L 95.04 396.42482 
L 98.208 405.820678 
L 101.376 409.818963 
L 104.544 412.720164 
L 107.712 415.965194 
L 110.88 416.463855 
L 114.048 415.390986 
L 117.216 412.411002 
L 120.384 407.014804 
L 123.552 400.792065 
L 126.72 396.314899 
L 129.888 391.547865 
L 133.056 389.946037 
L 136.224 387.311724 
L 139.392 384.486579 
L 142.56 382.379673 
L 145.728 380.053777 
L 148.896 378.622238 
L 155.232 378.614955 
L 158.4 378.363544 
L 161.568 379.158109 
L 164.736 380.581815 
L 167.904 382.367753 
L 171.072 383.277285 
L 174.24 386.79664 
L 177.408 390.687686 
L 180.576 392.139223 
L 183.744 392.622524 
L 186.912 391.533848 
L 190.08 389.405372 
L 193.248 387.025139 
L 196.416 386.225084 
L 199.584 387.893581 
L 202.752 387.709739 
L 209.088 392.408461 
L 212.256 392.469329 
L 215.424 395.813002 
L 218.592 400.039437 
L 221.76 403.389907 
L 224.928 403.621183 
L 228.096 406.911352 
L 231.264 411.447054 
L 234.432 418.062665 
L 237.6 423.27285 
L 240.768 428.784327 
L 243.936 436.240055 
L 247.104 439.997119 
L 250.272 444.225325 
L 253.44 445.2794 
L 256.608 448.817005 
L 259.776 452.76213 
L 262.944 456.426816 
L 266.112 456.830121 
L 269.28 458.739918 
L 272.448 458.097075 
L 275.616 455.303608 
L 278.784 451.000285 
L 281.952 447.74958 
L 285.12 446.430167 
L 288.288 443.769156 
L 294.624 441.534233 
L 297.792 439.863095 
L 300.96 439.705865 
L 304.128 441.873703 
L 307.296 446.71082 
L 310.464 454.528314 
L 313.632 459.963889 
L 316.8 461.774398 
L 319.968 464.635847 
L 323.136 466.015154 
L 326.304 467.089254 
L 329.472 468.045264 
L 332.64 469.268174 
L 335.808 469.600878 
L 338.976 470.167142 
L 342.144 470.964759 
L 348.48 473.09665 
L 354.816 474.328951 
L 357.984 475.083654 
L 361.152 475.274169 
L 364.32 475.321665 
L 367.488 475.546534 
L 373.824 476.256263 
L 376.992 476.966684 
L 383.328 476.395269 
L 392.832 473.206929 
L 399.168 470.611603 
L 402.336 470.167665 
L 408.672 468.883051 
L 411.84 468.05803 
L 415.008 467.469357 
L 418.176 467.241335 
L 424.512 465.577142 
L 427.68 464.740534 
L 430.848 464.072178 
L 434.016 463.274786 
L 443.52 459.549778 
L 446.688 457.367228 
L 449.856 454.628969 
L 456.192 451.28047 
L 459.36 450.944531 
L 465.696 454.460636 
L 468.864 455.057511 
L 472.032 454.126987 
L 475.2 455.614327 
L 478.368 458.137616 
L 481.536 459.404982 
L 494.208 463.435655 
L 497.376 463.753539 
L 500.544 463.82603 
L 503.712 463.128072 
L 506.88 461.925633 
L 510.048 462.006565 
L 516.384 461.890735 
L 519.552 462.325947 
L 522.72 462.343625 
L 525.888 462.64844 
L 529.056 463.638613 
L 532.224 465.34451 
L 535.392 467.205842 
L 538.56 469.205303 
L 541.728 470.880822 
L 544.896 471.819405 
L 548.064 473.034328 
L 551.232 474.498774 
L 554.4 474.943597 
L 557.568 474.481601 
L 560.736 474.25927 
L 563.904 474.375583 
L 567.072 474.992903 
L 573.408 476.398747 
L 576.576 477.041678 
L 579.744 476.841029 
L 582.912 477.401235 
L 586.08 477.143392 
L 589.248 476.241771 
L 592.416 475.793419 
L 595.584 475.654027 
L 598.752 475.904972 
L 601.92 475.872263 
L 605.088 475.018905 
L 611.424 473.723865 
L 614.592 472.685154 
L 617.76 472.117601 
L 620.928 471.849178 
L 624.096 472.17532 
L 627.264 473.092729 
L 630.432 473.029427 
L 633.6 472.625269 
L 636.768 471.788618 
L 639.936 471.750746 
L 643.104 470.351928 
L 646.272 469.155983 
L 649.44 468.265517 
L 652.608 467.551902 
L 655.776 467.157868 
L 658.944 467.126566 
L 665.28 466.50153 
L 668.448 465.964929 
L 674.784 465.282691 
L 677.952 465.509132 
L 681.12 465.156559 
L 684.288 464.369791 
L 687.456 463.72488 
L 690.624 463.300576 
L 693.792 463.045591 
L 703.296 463.11603 
L 706.464 463.227453 
L 712.8 462.402273 
L 715.968 462.59702 
L 719.136 463.357744 
L 725.472 465.839678 
L 728.64 466.774023 
L 731.808 467.347686 
L 734.976 468.106678 
L 741.312 468.895377 
L 744.48 469.612692 
L 753.984 469.827137 
L 757.152 469.390792 
L 760.32 469.654697 
L 766.656 468.971416 
L 769.824 468.447926 
L 779.328 466.159077 
L 782.496 465.813851 
L 785.664 466.037501 
L 788.832 466.774465 
L 788.832 466.774465 
" clip-path="url(#p3307eeb26d)" style="fill: none; stroke: #000000; stroke-width: 1.5; stroke-linecap: square"/>
   </g>
   <g id="line2d_5">
    <path d="M 0 459 
L 3.168 459 
L 6.336 437.652522 
L 9.504 428.265685 
L 12.672 426.382434 
L 19.008 417.085735 
L 22.176 411.83489 
L 25.344 407.645353 
L 31.68 401.237668 
L 34.848 397.849708 
L 41.184 387.84822 
L 44.352 383.944106 
L 47.52 381.810942 
L 50.688 379.813468 
L 53.856 376.392015 
L 57.024 373.303062 
L 60.192 371.36873 
L 63.36 369.902214 
L 66.528 369.279353 
L 69.696 369.672343 
L 72.864 370.18234 
L 79.2 368.1525 
L 82.368 371.437804 
L 88.704 376.077552 
L 91.872 379.870911 
L 95.04 386.791897 
L 98.208 392.848103 
L 101.376 396.192987 
L 104.544 398.993427 
L 107.712 401.961832 
L 110.88 403.448182 
L 114.048 403.996771 
L 117.216 403.370694 
L 120.384 401.242037 
L 123.552 398.390676 
L 126.72 396.191771 
L 129.888 393.647526 
L 133.056 392.609189 
L 136.224 390.972492 
L 139.392 389.146738 
L 142.56 387.619501 
L 145.728 385.930241 
L 148.896 384.668207 
L 158.4 383.103819 
L 161.568 383.116271 
L 164.736 383.526147 
L 167.904 384.212504 
L 171.072 384.53244 
L 174.24 386.26943 
L 177.408 388.340478 
L 180.576 389.284104 
L 183.744 389.778616 
L 186.912 389.449267 
L 190.08 388.514418 
L 193.248 387.355265 
L 196.416 386.932806 
L 199.584 387.766924 
L 202.752 387.695433 
L 205.92 388.887383 
L 209.088 390.234207 
L 212.256 390.448578 
L 215.424 392.353636 
L 218.592 394.836276 
L 221.76 397.003023 
L 224.928 397.645829 
L 228.096 399.84685 
L 231.264 402.78222 
L 234.432 406.935353 
L 237.6 410.56054 
L 240.768 414.477508 
L 243.936 419.538808 
L 247.104 422.876932 
L 250.272 426.493369 
L 253.44 428.514998 
L 256.608 431.753697 
L 262.944 438.600848 
L 266.112 440.299245 
L 269.28 442.674327 
L 272.448 443.676682 
L 275.616 443.427159 
L 278.784 442.186774 
L 281.952 441.237744 
L 285.12 441.087331 
L 288.288 440.139476 
L 294.624 439.484319 
L 297.792 438.757949 
L 300.96 438.748436 
L 304.128 439.943959 
L 307.296 442.61775 
L 313.632 451.477356 
L 316.8 455.175763 
L 319.968 459.556774 
L 323.136 460.702485 
L 332.64 463.751327 
L 338.976 465.126892 
L 342.144 465.970966 
L 348.48 467.941232 
L 357.984 470.254487 
L 364.32 471.174294 
L 373.824 472.665677 
L 376.992 473.338093 
L 383.328 473.609609 
L 389.664 472.921827 
L 392.832 472.477079 
L 399.168 471.197452 
L 402.336 470.921818 
L 408.672 470.120021 
L 415.008 469.173728 
L 418.176 468.922252 
L 424.512 467.774043 
L 434.016 466.004309 
L 443.52 463.312935 
L 449.856 461.634182 
L 456.192 460.390885 
L 459.36 460.009057 
L 468.864 459.9598 
L 472.032 459.614405 
L 475.2 459.693851 
L 481.536 460.254066 
L 487.872 461.196521 
L 494.208 462.353346 
L 497.376 462.613386 
L 500.544 462.750498 
L 503.712 462.480728 
L 506.88 461.910136 
L 513.216 461.916153 
L 516.384 461.89423 
L 519.552 462.119281 
L 522.72 462.140038 
L 525.888 462.311964 
L 529.056 462.852416 
L 532.224 463.803505 
L 535.392 464.896987 
L 541.728 467.250219 
L 544.896 468.033744 
L 548.064 468.973575 
L 551.232 470.06615 
L 554.4 470.658718 
L 560.736 470.950407 
L 563.904 471.28048 
L 573.408 473.104387 
L 576.576 473.707577 
L 579.744 473.873967 
L 582.912 474.408635 
L 586.08 474.519475 
L 589.248 474.265878 
L 592.416 474.195718 
L 595.584 474.256103 
L 598.752 474.503268 
L 601.92 474.602626 
L 620.928 472.603774 
L 624.096 472.711298 
L 627.264 473.14644 
L 630.432 473.111718 
L 633.6 472.898526 
L 636.768 472.445219 
L 639.936 472.378798 
L 646.272 470.885034 
L 652.608 469.75529 
L 655.776 469.374353 
L 658.944 469.180078 
L 665.28 468.524817 
L 671.616 467.730016 
L 674.784 467.38991 
L 677.952 467.339587 
L 681.12 467.007818 
L 687.456 465.943615 
L 693.792 465.222706 
L 703.296 464.769154 
L 706.464 464.693653 
L 712.8 464.019921 
L 715.968 463.989088 
L 719.136 464.272788 
L 728.64 465.9986 
L 741.312 467.4623 
L 744.48 467.950017 
L 753.984 468.435723 
L 757.152 468.319654 
L 760.32 468.544597 
L 766.656 468.345205 
L 769.824 468.119219 
L 776.16 467.345566 
L 779.328 466.900239 
L 782.496 466.654606 
L 785.664 466.694983 
L 788.832 467.019849 
L 788.832 467.019849 
" clip-path="url(#p3307eeb26d)" style="fill: none; stroke: #000000; stroke-width: 1.5; stroke-linecap: square"/>
   </g>
   <g id="line2d_6">
    <path d="M 0 459 
L 3.168 459 
L 6.336 438.094634 
L 9.504 428.934008 
L 12.672 426.984638 
L 19.008 418.205867 
L 22.176 413.358945 
L 25.344 409.482154 
L 34.848 400.479 
L 41.184 391.782515 
L 44.352 388.325035 
L 47.52 386.272096 
L 50.688 384.3578 
L 53.856 381.393815 
L 57.024 378.690856 
L 60.192 376.854703 
L 63.36 375.383673 
L 66.528 374.545551 
L 69.696 374.460736 
L 72.864 374.496338 
L 79.2 372.534937 
L 82.368 374.488699 
L 88.704 377.271394 
L 91.872 379.690971 
L 95.04 384.196174 
L 98.208 388.23687 
L 101.376 390.626125 
L 107.712 394.90472 
L 110.88 396.20956 
L 114.048 396.935182 
L 117.216 396.926534 
L 120.384 395.971629 
L 123.552 394.524346 
L 126.72 393.404022 
L 129.888 392.028537 
L 133.056 391.494548 
L 136.224 390.585069 
L 139.392 389.533066 
L 142.56 388.622338 
L 145.728 387.59165 
L 148.896 386.780801 
L 158.4 385.563667 
L 161.568 385.45349 
L 164.736 385.574416 
L 167.904 385.864194 
L 171.072 385.966034 
L 174.24 386.868925 
L 177.408 387.992591 
L 180.576 388.531339 
L 183.744 388.838992 
L 186.912 388.70097 
L 190.08 388.222369 
L 193.248 387.601432 
L 196.416 387.359665 
L 199.584 387.794272 
L 202.752 387.754232 
L 209.088 389.16217 
L 212.256 389.329331 
L 215.424 390.406905 
L 218.592 391.824385 
L 221.76 393.11503 
L 224.928 393.628255 
L 228.096 394.973018 
L 231.264 396.741034 
L 234.432 399.198213 
L 237.6 401.444309 
L 240.768 403.89608 
L 243.936 407.005937 
L 247.104 409.292325 
L 250.272 411.767952 
L 253.44 413.455883 
L 256.608 415.788136 
L 262.944 420.757939 
L 266.112 422.402066 
L 269.28 424.399543 
L 272.448 425.700173 
L 275.616 426.337393 
L 281.952 426.594957 
L 285.12 427.143283 
L 288.288 427.247449 
L 294.624 427.979774 
L 297.792 428.103432 
L 300.96 428.55998 
L 304.128 429.61346 
L 307.296 431.433587 
L 316.8 439.538245 
L 319.968 443.026572 
L 323.136 445.537819 
L 332.64 452.662675 
L 335.808 454.514721 
L 338.976 456.516781 
L 342.144 458.691967 
L 345.312 459.703101 
L 351.648 461.207119 
L 361.152 463.216885 
L 373.824 465.430503 
L 376.992 466.077898 
L 383.328 466.814824 
L 389.664 467.011117 
L 392.832 467.028683 
L 399.168 466.802539 
L 405.504 466.8086 
L 418.176 466.52177 
L 424.512 466.125356 
L 434.016 465.391883 
L 443.52 464.052553 
L 449.856 463.127883 
L 459.36 462.094191 
L 468.864 461.835073 
L 472.032 461.585021 
L 475.2 461.546609 
L 484.704 461.868044 
L 491.04 462.317711 
L 494.208 462.603676 
L 500.544 462.790548 
L 503.712 462.650098 
L 506.88 462.35267 
L 525.888 462.492802 
L 529.056 462.76857 
L 535.392 463.854482 
L 541.728 465.181854 
L 548.064 466.26552 
L 551.232 466.946825 
L 554.4 467.389675 
L 560.736 467.827314 
L 563.904 468.135797 
L 582.912 470.658041 
L 586.08 470.879638 
L 592.416 471.021892 
L 601.92 471.640113 
L 611.424 471.52018 
L 617.76 471.250156 
L 620.928 471.218867 
L 624.096 471.335101 
L 627.264 471.618169 
L 633.6 471.622958 
L 636.768 471.446812 
L 639.936 471.454985 
L 649.44 470.448896 
L 655.776 469.956615 
L 662.112 469.636003 
L 671.616 468.943685 
L 674.784 468.717438 
L 677.952 468.63596 
L 681.12 468.413255 
L 690.624 467.465984 
L 696.96 467.051322 
L 715.968 466.007018 
L 719.136 466.064541 
L 738.144 467.273142 
L 753.984 467.977177 
L 757.152 467.937387 
L 760.32 468.067571 
L 769.824 467.901732 
L 782.496 467.140941 
L 785.664 467.141855 
L 788.832 467.288986 
L 788.832 467.288986 
" clip-path="url(#p3307eeb26d)" style="fill: none; stroke: #000000; stroke-width: 1.5; stroke-linecap: square"/>
   </g>
   <g id="line2d_7">
    <path d="M 0 459 
L 3.168 459 
L 6.336 438.315886 
L 9.504 429.271456 
L 12.672 427.295464 
L 19.008 418.778739 
L 22.176 414.135529 
L 25.344 410.422574 
L 34.848 401.852238 
L 41.184 393.81924 
L 44.352 390.610324 
L 47.52 388.64359 
L 50.688 386.815594 
L 53.856 384.105234 
L 57.024 381.629209 
L 60.192 379.895954 
L 63.36 378.481906 
L 66.528 377.605982 
L 69.696 377.363133 
L 72.864 377.233447 
L 79.2 375.368511 
L 82.368 376.780264 
L 88.704 378.765561 
L 91.872 380.573965 
L 95.04 384.001116 
L 98.208 387.093913 
L 101.376 388.952515 
L 107.712 392.314243 
L 110.88 393.385477 
L 114.048 394.031099 
L 117.216 394.137552 
L 120.384 393.550572 
L 123.552 392.5971 
L 126.72 391.864887 
L 129.888 390.940495 
L 133.056 390.601202 
L 139.392 389.276497 
L 148.896 387.367429 
L 158.4 386.47141 
L 161.568 386.368131 
L 164.736 386.420103 
L 167.904 386.586583 
L 171.072 386.631612 
L 174.24 387.206302 
L 177.408 387.932843 
L 180.576 388.286121 
L 183.744 388.493187 
L 186.912 388.414283 
L 196.416 387.562948 
L 199.584 387.832893 
L 202.752 387.806493 
L 209.088 388.69398 
L 212.256 388.811324 
L 215.424 389.49488 
L 221.76 391.230377 
L 224.928 391.596503 
L 228.096 392.472965 
L 231.264 393.615899 
L 240.768 398.251422 
L 243.936 400.262318 
L 247.104 401.803091 
L 250.272 403.470038 
L 253.44 404.685395 
L 259.776 407.99981 
L 262.944 409.71635 
L 266.112 410.959329 
L 269.28 412.414421 
L 272.448 413.47365 
L 275.616 414.151156 
L 281.952 414.903873 
L 285.12 415.510595 
L 288.288 415.859318 
L 294.624 416.837826 
L 297.792 417.182262 
L 300.96 417.70929 
L 304.128 418.571328 
L 307.296 419.86911 
L 316.8 425.336522 
L 319.968 427.632626 
L 326.304 431.093539 
L 329.472 432.762254 
L 332.64 434.57606 
L 338.976 437.581754 
L 342.144 439.233161 
L 348.48 442.834474 
L 361.152 449.30269 
L 367.488 452.116495 
L 376.992 456.634792 
L 383.328 458.925127 
L 389.664 459.439835 
L 396 459.739956 
L 402.336 460.017807 
L 411.84 460.356601 
L 424.512 460.624929 
L 434.016 460.584664 
L 443.52 460.171201 
L 456.192 459.577551 
L 462.528 459.508707 
L 468.864 459.515591 
L 475.2 459.458312 
L 484.704 459.756179 
L 500.544 460.477199 
L 516.384 460.447496 
L 529.056 460.842407 
L 535.392 461.486966 
L 544.896 462.593206 
L 554.4 463.684331 
L 563.904 464.304124 
L 586.08 466.338127 
L 595.584 466.782185 
L 601.92 467.19721 
L 614.592 467.404806 
L 620.928 467.505919 
L 633.6 468.025994 
L 646.272 467.869646 
L 655.776 467.636727 
L 665.28 467.511819 
L 677.952 467.24843 
L 684.288 467.01524 
L 693.792 466.638719 
L 719.136 466.090019 
L 750.816 467.099352 
L 760.32 467.251122 
L 769.824 467.22002 
L 785.664 466.889758 
L 788.832 466.970254 
L 788.832 466.970254 
" clip-path="url(#p3307eeb26d)" style="fill: none; stroke: #000000; stroke-width: 1.5; stroke-linecap: square"/>
   </g>
   <g id="line2d_8">
    <path d="M 0 459 
L 3.168 459 
L 6.336 438.426538 
L 9.504 429.440934 
L 12.672 427.453215 
L 19.008 419.068081 
L 22.176 414.52687 
L 25.344 410.897275 
L 34.848 402.550721 
L 41.184 394.849346 
L 44.352 391.769078 
L 47.52 389.855274 
L 50.688 388.080127 
L 53.856 385.500891 
L 57.024 383.144643 
L 60.192 381.474437 
L 63.36 380.102273 
L 66.528 379.22435 
L 72.864 378.731099 
L 79.2 376.93279 
L 82.368 378.110733 
L 88.704 379.747275 
L 91.872 381.282188 
L 95.04 384.223458 
L 98.208 386.881197 
L 101.376 388.483656 
L 107.712 391.388806 
L 110.88 392.326955 
L 114.048 392.906213 
L 117.216 393.032199 
L 120.384 392.577194 
L 123.552 391.814558 
L 126.72 391.232038 
L 129.888 390.488541 
L 133.056 390.223143 
L 142.56 388.656049 
L 145.728 388.078593 
L 148.896 387.616215 
L 158.4 386.877345 
L 161.568 386.785214 
L 171.072 386.963631 
L 174.24 387.403884 
L 177.408 387.963632 
L 180.576 388.236297 
L 183.744 388.397075 
L 186.912 388.338669 
L 196.416 387.689024 
L 199.584 387.890585 
L 202.752 387.869434 
L 209.088 388.534462 
L 212.256 388.625323 
L 215.424 389.137233 
L 221.76 390.43944 
L 224.928 390.724533 
L 228.096 391.384087 
L 231.264 392.240048 
L 240.768 395.703032 
L 243.936 397.199101 
L 250.272 399.618341 
L 253.44 400.555826 
L 259.776 403.064239 
L 262.944 404.36478 
L 266.112 405.335236 
L 269.28 406.45578 
L 272.448 407.301725 
L 275.616 407.882495 
L 281.952 408.623176 
L 285.12 409.150563 
L 291.456 409.953471 
L 300.96 411.197835 
L 304.128 411.891133 
L 307.296 412.879755 
L 316.8 416.925034 
L 319.968 418.597226 
L 332.64 423.828841 
L 338.976 426.153499 
L 345.312 428.775879 
L 351.648 431.410408 
L 361.152 435.159021 
L 370.656 438.58203 
L 380.16 441.945238 
L 383.328 442.902796 
L 389.664 444.258864 
L 392.832 444.841642 
L 418.176 448.436215 
L 424.512 448.95598 
L 434.016 449.497887 
L 440.352 449.458463 
L 449.856 449.071297 
L 459.36 448.928883 
L 468.864 449.432578 
L 472.032 449.433092 
L 478.368 449.919099 
L 484.704 450.588093 
L 491.04 451.454919 
L 494.208 451.948604 
L 500.544 452.589207 
L 503.712 452.691836 
L 506.88 452.641371 
L 525.888 453.990457 
L 529.056 454.435209 
L 535.392 455.826141 
L 541.728 457.482007 
L 548.064 458.965314 
L 554.4 459.509487 
L 563.904 460.026014 
L 586.08 461.586259 
L 595.584 462.015612 
L 605.088 462.46919 
L 639.936 463.558427 
L 658.944 463.608627 
L 681.12 463.672305 
L 700.128 463.530055 
L 722.304 463.600946 
L 744.48 464.238727 
L 763.488 464.58222 
L 776.16 464.595413 
L 785.664 464.589699 
L 788.832 464.659461 
L 788.832 464.659461 
" clip-path="url(#p3307eeb26d)" style="fill: none; stroke: #000000; stroke-width: 1.5; stroke-linecap: square"/>
   </g>
   <g id="line2d_9">
    <path d="M 0 459 
L 3.168 459 
L 6.336 438.481868 
L 9.504 429.525854 
L 12.672 427.532662 
L 19.008 419.213438 
L 22.176 414.723225 
L 25.344 411.135616 
L 34.848 402.902548 
L 41.184 395.366573 
L 44.352 392.351448 
L 47.52 390.466297 
L 50.688 388.71974 
L 53.856 386.206833 
L 57.024 383.911689 
L 60.192 382.275547 
L 63.36 380.927334 
L 66.528 380.052362 
L 72.864 379.508803 
L 79.2 377.748281 
L 82.368 378.818962 
L 88.704 380.294977 
L 91.872 381.702369 
L 95.04 384.41596 
L 98.208 386.868404 
L 101.376 388.347737 
L 107.712 391.030883 
L 110.88 391.901343 
L 114.048 392.443558 
L 117.216 392.572142 
L 120.384 392.171802 
L 123.552 391.491554 
L 126.72 390.973389 
L 129.888 390.309207 
L 133.056 390.074944 
L 142.56 388.677354 
L 148.896 387.748065 
L 161.568 386.996889 
L 171.072 387.140519 
L 180.576 388.243118 
L 183.744 388.382467 
L 186.912 388.3322 
L 196.416 387.770605 
L 199.584 387.941985 
L 202.752 387.922934 
L 209.088 388.489042 
L 212.256 388.567091 
L 215.424 389.00232 
L 221.76 390.109544 
L 224.928 390.355311 
L 228.096 390.915909 
L 231.264 391.641555 
L 240.768 394.570368 
L 243.936 395.831738 
L 259.776 400.805144 
L 262.944 401.905471 
L 266.112 402.735988 
L 269.28 403.689069 
L 272.448 404.418509 
L 275.616 404.932178 
L 281.952 405.616545 
L 285.12 406.084786 
L 291.456 406.816554 
L 300.96 407.942643 
L 304.128 408.539381 
L 307.296 409.371174 
L 316.8 412.726424 
L 319.968 414.101361 
L 332.64 418.45644 
L 338.976 420.407522 
L 345.312 422.590863 
L 351.648 424.784837 
L 361.152 427.919869 
L 373.824 431.768507 
L 376.992 432.812049 
L 383.328 434.464016 
L 389.664 435.681187 
L 396 436.653702 
L 399.168 437.059077 
L 405.504 438.040041 
L 411.84 438.845434 
L 421.344 439.972595 
L 430.848 440.712621 
L 437.184 440.986467 
L 443.52 441.030395 
L 456.192 441.06836 
L 459.36 441.151443 
L 468.864 441.746308 
L 472.032 441.821603 
L 478.368 442.319954 
L 484.704 442.947737 
L 500.544 444.747567 
L 516.384 445.555278 
L 529.056 446.691798 
L 535.392 447.809353 
L 544.896 449.674582 
L 554.4 451.542209 
L 563.904 452.854596 
L 586.08 456.658259 
L 592.416 457.379568 
L 605.088 458.983339 
L 633.6 459.888891 
L 652.608 460.149859 
L 684.288 460.467152 
L 712.8 460.568439 
L 722.304 460.72388 
L 750.816 461.417771 
L 769.824 461.710604 
L 788.832 461.857514 
L 788.832 461.857514 
" clip-path="url(#p3307eeb26d)" style="fill: none; stroke: #000000; stroke-width: 1.5; stroke-linecap: square"/>
   </g>
  </g>
 </g>
 <defs>
  <clipPath id="p3307eeb26d">
   <rect x="0" y="0" width="792" height="612"/>
  </clipPath>
 </defs>
</svg>
