<?xml version="1.0" encoding="utf-8" standalone="no"?>
<!DOCTYPE svg PUBLIC "-//W3C//DTD SVG 1.1//EN"
  "http://www.w3.org/Graphics/SVG/1.1/DTD/svg11.dtd">
<svg xmlns:xlink="http://www.w3.org/1999/xlink" width="792pt" height="612pt" viewBox="0 0 792 612" xmlns="http://www.w3.org/2000/svg" version="1.1">
 <metadata>
  <rdf:RDF xmlns:dc="http://purl.org/dc/elements/1.1/" xmlns:cc="http://creativecommons.org/ns#" xmlns:rdf="http://www.w3.org/1999/02/22-rdf-syntax-ns#">
   <cc:Work>
    <dc:type rdf:resource="http://purl.org/dc/dcmitype/StillImage"/>
    <dc:date>2023-01-02T15:39:17.898144</dc:date>
    <dc:format>image/svg+xml</dc:format>
    <dc:creator>
     <cc:Agent>
      <dc:title>Matplotlib v3.6.2, https://matplotlib.org/</dc:title>
     </cc:Agent>
    </dc:creator>
   </cc:Work>
  </rdf:RDF>
 </metadata>
 <defs>
  <style type="text/css">*{stroke-linejoin: round; stroke-linecap: butt}</style>
 </defs>
 <g id="figure_1">
  <g id="patch_1">
   <path d="M 0 612 
L 792 612 
L 792 0 
L 0 0 
z
" style="fill: #ffffff"/>
  </g>
  <g id="axes_1">
   <g id="line2d_1">
    <path d="M 0 459 
L 12.571429 441.176086 
L 25.142857 444.744837 
L 37.714286 451.264409 
L 50.285714 460.114555 
L 62.857143 461.74268 
L 75.428571 461.917512 
L 88 462.584059 
L 100.571429 453.984702 
L 113.142857 462.50757 
L 125.714286 454.017479 
L 138.285714 439.441575 
L 150.857143 446.054926 
L 163.428571 451.133323 
L 176 458.934438 
L 188.571429 453.722487 
L 201.142857 436.072376 
L 213.714286 436.530188 
L 226.285714 436.235875 
L 238.857143 424.905082 
L 251.428571 431.398931 
L 264 435.876185 
L 276.571429 447.594549 
L 289.142857 459.775818 
L 301.714286 443.598699 
L 314.285714 436.203175 
L 326.857143 425.687584 
L 339.428571 439.866971 
L 352 410.890883 
L 364.571429 410.437038 
L 377.142857 412.901899 
L 389.714286 413.680842 
L 402.285714 417.96962 
L 414.857143 424.253148 
L 427.428571 418.197264 
L 440 417.189282 
L 452.571429 411.442108 
L 465.142857 413.551 
L 477.714286 412.836999 
L 490.285714 423.503599 
L 502.857143 411.961035 
L 515.428571 401.704135 
L 528 401.99459 
L 540.571429 404.416834 
L 553.142857 406.58332 
L 565.714286 411.052993 
L 578.285714 410.826042 
L 590.857143 412.93435 
L 603.428571 413.648381 
L 616 402.607926 
L 628.571429 401.930041 
L 641.142857 412.966801 
L 653.714286 425.622368 
L 666.285714 438.427305 
L 678.857143 442.649187 
L 691.428571 440.390581 
L 704 435.810789 
L 716.571429 441.66708 
L 729.142857 436.072376 
L 741.714286 438.132877 
L 754.285714 445.923908 
L 766.857143 435.091505 
L 779.428571 433.685975 
" clip-path="url(#p807ca48a16)" style="fill: none; stroke: #000000; stroke-width: 1.5; stroke-linecap: square"/>
   </g>
   <g id="line2d_2">
    <path d="M 0 459 
L 12.571429 459 
L 25.142857 447.11407 
L 37.714286 445.760137 
L 50.285714 448.695375 
L 62.857143 455.738871 
L 75.428571 459.858204 
L 88 460.895965 
L 100.571429 461.743322 
L 113.142857 459.532467 
L 125.714286 461.038552 
L 138.285714 459.194886 
L 150.857143 449.485351 
L 163.428571 447.738056 
L 176 449.404012 
L 188.571429 454.151416 
L 201.142857 453.905523 
L 213.714286 444.948529 
L 226.285714 440.673196 
L 238.857143 438.419223 
L 251.428571 431.627704 
L 264 431.484623 
L 276.571429 433.649961 
L 289.142857 440.595803 
L 301.714286 450.972423 
L 314.285714 447.299579 
L 326.857143 441.748211 
L 339.428571 433.689435 
L 352 436.806564 
L 364.571429 423.780265 
L 377.142857 417.049944 
L 389.714286 414.907318 
L 402.285714 414.201175 
L 414.857143 416.034652 
L 427.428571 420.117407 
L 440 419.142488 
L 452.571429 418.12138 
L 465.142857 414.780464 
L 477.714286 414.171762 
L 490.285714 413.504156 
L 502.857143 418.518295 
L 515.428571 415.225629 
L 528 408.409651 
L 540.571429 405.16776 
L 553.142857 404.767289 
L 565.714286 405.665582 
L 578.285714 408.352633 
L 590.857143 409.585036 
L 603.428571 411.238386 
L 616 412.446367 
L 628.571429 407.522936 
L 641.142857 404.724318 
L 653.714286 408.858233 
L 666.285714 417.263608 
L 678.857143 427.882556 
L 691.428571 435.322279 
L 704 437.90979 
L 716.571429 436.90378 
L 729.142857 439.361889 
L 741.714286 437.784204 
L 754.285714 438.008055 
L 766.857143 442.004574 
L 779.428571 438.540334 
" clip-path="url(#p807ca48a16)" style="fill: none; stroke: #000000; stroke-width: 1.5; stroke-linecap: square"/>
   </g>
   <g id="line2d_3">
    <path d="M 0 459 
L 12.571429 459 
L 25.142857 448.555543 
L 37.714286 446.828772 
L 50.285714 448.560771 
L 62.857143 453.463672 
L 75.428571 458.070911 
L 88 459.727179 
L 100.571429 460.619724 
L 113.142857 459.611073 
L 125.714286 460.486804 
L 138.285714 459.544028 
L 150.857143 454.323648 
L 163.428571 451.87418 
L 176 451.655475 
L 188.571429 453.799057 
L 201.142857 453.776542 
L 213.714286 448.560803 
L 226.285714 445.029549 
L 238.857143 442.442812 
L 251.428571 437.268532 
L 264 435.513053 
L 276.571429 435.583469 
L 289.142857 439.07573 
L 301.714286 445.578401 
L 314.285714 444.98658 
L 326.857143 442.374385 
L 339.428571 437.447857 
L 352 438.156769 
L 364.571429 430.106357 
L 377.142857 424.284335 
L 389.714286 420.892722 
L 402.285714 418.732479 
L 414.857143 418.488285 
L 427.428571 420.161468 
L 440 419.565346 
L 452.571429 418.860331 
L 465.142857 416.662333 
L 477.714286 415.725062 
L 490.285714 414.839071 
L 502.857143 417.330679 
L 515.428571 415.72049 
L 528 411.566024 
L 540.571429 408.730753 
L 553.142857 407.425783 
L 565.714286 407.174051 
L 578.285714 408.310123 
L 590.857143 409.044325 
L 603.428571 410.182105 
L 616 411.191835 
L 628.571429 408.649073 
L 641.142857 406.660062 
L 653.714286 408.500465 
L 666.285714 413.51908 
L 678.857143 420.821755 
L 691.428571 427.235587 
L 704 431.103537 
L 716.571429 432.509164 
L 729.142857 435.235706 
L 741.714286 435.520101 
L 754.285714 436.324127 
L 766.857143 439.179517 
L 779.428571 438.00954 
" clip-path="url(#p807ca48a16)" style="fill: none; stroke: #000000; stroke-width: 1.5; stroke-linecap: square"/>
   </g>
   <g id="line2d_4">
    <path d="M 0 459 
L 12.571429 459 
L 25.142857 449.314374 
L 37.714286 447.520715 
L 50.285714 448.711844 
L 62.857143 452.453363 
L 75.428571 456.089414 
L 88 458.730125 
L 100.571429 459.689441 
L 113.142857 459.213753 
L 125.714286 459.850346 
L 138.285714 459.381033 
L 150.857143 456.376759 
L 163.428571 454.54113 
L 176 453.946319 
L 188.571429 454.803618 
L 201.142857 454.620135 
L 213.714286 451.502772 
L 226.285714 449.008464 
L 238.857143 446.896264 
L 251.428571 443.277995 
L 264 441.335121 
L 276.571429 440.446577 
L 289.142857 441.604857 
L 301.714286 444.790155 
L 314.285714 444.598053 
L 326.857143 443.246678 
L 339.428571 440.4223 
L 352 440.333246 
L 364.571429 435.60113 
L 377.142857 431.561706 
L 389.714286 428.571259 
L 402.285714 426.187699 
L 414.857143 424.853092 
L 427.428571 424.747095 
L 440 423.687454 
L 452.571429 422.631351 
L 465.142857 420.816192 
L 477.714286 419.625551 
L 490.285714 418.510133 
L 502.857143 419.275313 
L 515.428571 418.084011 
L 528 415.427643 
L 540.571429 413.252416 
L 553.142857 411.8224 
L 565.714286 410.963478 
L 578.285714 410.952878 
L 590.857143 410.902901 
L 603.428571 411.200717 
L 616 411.576047 
L 628.571429 410.125462 
L 641.142857 408.79797 
L 653.714286 409.453285 
L 666.285714 412.015017 
L 678.857143 416.202511 
L 691.428571 420.392678 
L 704 423.553553 
L 716.571429 425.49594 
L 729.142857 428.067687 
L 741.714286 429.346603 
L 754.285714 430.742159 
L 766.857143 433.176244 
L 779.428571 433.496345 
" clip-path="url(#p807ca48a16)" style="fill: none; stroke: #000000; stroke-width: 1.5; stroke-linecap: square"/>
   </g>
   <g id="line2d_5">
    <path d="M 0 459 
L 12.571429 459 
L 25.142857 449.698799 
L 37.714286 447.902208 
L 50.285714 448.854836 
L 62.857143 452.038354 
L 75.428571 455.147772 
L 88 457.448206 
L 100.571429 459.16352 
L 113.142857 458.646642 
L 125.714286 459.401391 
L 138.285714 459.122828 
L 150.857143 456.808604 
L 163.428571 455.487542 
L 176 454.973216 
L 188.571429 455.425187 
L 201.142857 455.236758 
L 213.714286 453.171276 
L 226.285714 451.421017 
L 238.857143 449.858402 
L 251.428571 447.337732 
L 264 445.757059 
L 276.571429 444.793108 
L 289.142857 445.06227 
L 301.714286 446.604199 
L 314.285714 446.322411 
L 326.857143 445.383237 
L 339.428571 443.571005 
L 352 443.233687 
L 364.571429 440.301297 
L 377.142857 437.613383 
L 389.714286 435.405229 
L 402.285714 433.47626 
L 414.857143 432.108155 
L 427.428571 431.419358 
L 440 430.264261 
L 452.571429 429.126747 
L 465.142857 427.592707 
L 477.714286 426.37961 
L 490.285714 425.213386 
L 502.857143 425.066865 
L 515.428571 423.944559 
L 528 422.040894 
L 540.571429 420.329409 
L 553.142857 418.974691 
L 565.714286 417.922444 
L 578.285714 417.34075 
L 590.857143 416.789991 
L 603.428571 416.464669 
L 616 416.227403 
L 628.571429 415.078716 
L 641.142857 413.971006 
L 653.714286 413.886713 
L 666.285714 414.868628 
L 678.857143 416.835004 
L 691.428571 418.987891 
L 704 420.772815 
L 716.571429 422.027205 
L 729.142857 423.663813 
L 741.714286 424.698183 
L 754.285714 425.817466 
L 766.857143 427.490904 
L 779.428571 428.124063 
" clip-path="url(#p807ca48a16)" style="fill: none; stroke: #000000; stroke-width: 1.5; stroke-linecap: square"/>
   </g>
   <g id="line2d_6">
    <path d="M 0 459 
L 12.571429 459 
L 25.142857 449.891648 
L 37.714286 448.100882 
L 50.285714 448.943786 
L 62.857143 451.86016 
L 75.428571 454.706312 
L 88 456.820691 
L 100.571429 458.692529 
L 113.142857 458.074314 
L 125.714286 459.151621 
L 138.285714 458.846705 
L 150.857143 456.816076 
L 163.428571 455.756252 
L 176 455.325207 
L 188.571429 455.645411 
L 201.142857 455.482354 
L 213.714286 453.902049 
L 226.285714 452.54074 
L 238.857143 451.3073 
L 251.428571 449.372006 
L 264 448.094805 
L 276.571429 447.251027 
L 289.142857 447.274116 
L 301.714286 448.195405 
L 314.285714 447.900691 
L 326.857143 447.166246 
L 339.428571 445.843147 
L 352 445.482432 
L 364.571429 443.42395 
L 377.142857 441.493456 
L 389.714286 439.847167 
L 402.285714 438.363062 
L 414.857143 437.2234 
L 427.428571 436.508845 
L 440 435.511742 
L 452.571429 434.525719 
L 465.142857 433.2962 
L 477.714286 432.256122 
L 490.285714 431.243438 
L 502.857143 430.844404 
L 515.428571 429.877795 
L 528 428.445097 
L 540.571429 427.111239 
L 553.142857 425.976413 
L 565.714286 425.014371 
L 578.285714 424.32734 
L 590.857143 423.667397 
L 603.428571 423.146351 
L 616 422.688137 
L 628.571429 421.722757 
L 641.142857 420.776372 
L 653.714286 420.405841 
L 666.285714 420.651543 
L 678.857143 421.483403 
L 691.428571 422.469152 
L 704 423.300578 
L 716.571429 423.878982 
L 729.142857 424.69774 
L 741.714286 425.219748 
L 754.285714 425.810164 
L 766.857143 426.726072 
L 779.428571 427.106255 
" clip-path="url(#p807ca48a16)" style="fill: none; stroke: #000000; stroke-width: 1.5; stroke-linecap: square"/>
   </g>
   <g id="line2d_7">
    <path d="M 0 459 
L 12.571429 459 
L 25.142857 449.988153 
L 37.714286 448.202056 
L 50.285714 448.992615 
L 62.857143 451.779078 
L 75.428571 454.494976 
L 88 456.514079 
L 100.571429 458.296955 
L 113.142857 457.775244 
L 125.714286 459.022586 
L 138.285714 458.557305 
L 150.857143 456.766696 
L 163.428571 455.831164 
L 176 455.446301 
L 188.571429 455.715725 
L 201.142857 455.569896 
L 213.714286 454.212414 
L 226.285714 453.037884 
L 238.857143 451.969796 
L 251.428571 450.316954 
L 264 449.206339 
L 276.571429 448.452166 
L 289.142857 448.405329 
L 301.714286 449.088109 
L 314.285714 448.806715 
L 326.857143 448.179012 
L 339.428571 447.088553 
L 352 446.748106 
L 364.571429 445.094146 
L 377.142857 443.533692 
L 389.714286 442.186644 
L 402.285714 440.960747 
L 414.857143 439.993473 
L 427.428571 439.345205 
L 440 438.490308 
L 452.571429 437.645096 
L 465.142857 436.622948 
L 477.714286 435.738755 
L 490.285714 434.875505 
L 502.857143 434.454433 
L 515.428571 433.632764 
L 528 432.481327 
L 540.571429 431.397701 
L 553.142857 430.452446 
L 565.714286 429.627753 
L 578.285714 428.994833 
L 590.857143 428.383429 
L 603.428571 427.870019 
L 616 427.402966 
L 628.571429 426.595991 
L 641.142857 425.801875 
L 653.714286 425.39399 
L 666.285714 425.401158 
L 678.857143 425.805249 
L 691.428571 426.322583 
L 704 426.750795 
L 716.571429 427.024252 
L 729.142857 427.462101 
L 741.714286 427.717562 
L 754.285714 428.023981 
L 766.857143 428.546027 
L 779.428571 428.735674 
" clip-path="url(#p807ca48a16)" style="fill: none; stroke: #000000; stroke-width: 1.5; stroke-linecap: square"/>
   </g>
   <g id="line2d_8">
    <path d="M 0 459 
L 12.571429 459 
L 25.142857 450.036415 
L 37.714286 448.253082 
L 50.285714 449.01811 
L 62.857143 451.740613 
L 75.428571 454.391895 
L 88 456.363026 
L 100.571429 458.10077 
L 113.142857 457.623348 
L 125.714286 458.872106 
L 138.285714 458.406473 
L 150.857143 456.729207 
L 163.428571 455.853449 
L 176 455.492015 
L 188.571429 455.739306 
L 201.142857 455.602754 
L 213.714286 454.350568 
L 226.285714 453.265848 
L 238.857143 452.278619 
L 251.428571 450.761527 
L 264 449.734892 
L 276.571429 449.030123 
L 289.142857 448.959987 
L 301.714286 449.541823 
L 314.285714 449.271845 
L 326.857143 448.697743 
L 339.428571 447.718272 
L 352 447.394798 
L 364.571429 445.930021 
L 377.142857 444.546106 
L 389.714286 443.346462 
L 402.285714 442.251565 
L 414.857143 441.378718 
L 427.428571 440.778747 
L 440 440.005666 
L 452.571429 439.242291 
L 465.142857 438.331863 
L 477.714286 437.538006 
L 490.285714 436.763041 
L 502.857143 436.356121 
L 515.428571 435.620673 
L 528 434.615489 
L 540.571429 433.66657 
L 553.142857 432.831382 
L 565.714286 432.095278 
L 578.285714 431.51567 
L 590.857143 430.955132 
L 603.428571 430.474918 
L 616 430.033584 
L 628.571429 429.323575 
L 641.142857 428.624811 
L 653.714286 428.232089 
L 666.285714 428.167697 
L 678.857143 428.416954 
L 691.428571 428.757965 
L 704 429.033126 
L 716.571429 429.191489 
L 729.142857 429.479181 
L 741.714286 429.629468 
L 754.285714 429.820951 
L 766.857143 430.179085 
L 779.428571 430.28722 
" clip-path="url(#p807ca48a16)" style="fill: none; stroke: #000000; stroke-width: 1.5; stroke-linecap: square"/>
   </g>
   <g id="line2d_9">
    <path d="M 0 459 
L 12.571429 459 
L 25.142857 450.060548 
L 37.714286 448.278702 
L 50.285714 449.031127 
L 62.857143 451.721908 
L 75.428571 454.341029 
L 88 456.288119 
L 100.571429 458.003171 
L 113.142857 457.546923 
L 125.714286 458.77389 
L 138.285714 458.329669 
L 150.857143 456.707361 
L 163.428571 455.860814 
L 176 455.511087 
L 188.571429 455.748055 
L 201.142857 455.616245 
L 213.714286 454.415052 
L 226.285714 453.374148 
L 238.857143 452.42665 
L 251.428571 450.975715 
L 264 449.990848 
L 276.571429 449.311532 
L 289.142857 449.232343 
L 301.714286 449.768147 
L 314.285714 449.504917 
L 326.857143 448.957465 
L 339.428571 448.031801 
L 352 447.718222 
L 364.571429 446.34413 
L 377.142857 445.045516 
L 389.714286 443.918034 
L 402.285714 442.888017 
L 414.857143 442.06333 
L 427.428571 441.490265 
L 440 440.759664 
L 452.571429 440.038922 
L 465.142857 439.185081 
L 477.714286 438.438198 
L 490.285714 437.709436 
L 502.857143 437.314827 
L 515.428571 436.624656 
L 528 435.692407 
L 540.571429 434.811528 
L 553.142857 434.033474 
L 565.714286 433.34497 
L 578.285714 432.79709 
L 590.857143 432.267216 
L 603.428571 431.8097 
L 616 431.387664 
L 628.571429 430.729099 
L 641.142857 430.08128 
L 653.714286 429.703617 
L 666.285714 429.615222 
L 678.857143 429.802717 
L 691.428571 430.071667 
L 704 430.284445 
L 716.571429 430.396748 
L 729.142857 430.622268 
L 741.714286 430.72982 
L 754.285714 430.873814 
L 766.857143 431.162276 
L 779.428571 431.236646 
" clip-path="url(#p807ca48a16)" style="fill: none; stroke: #000000; stroke-width: 1.5; stroke-linecap: square"/>
   </g>
  </g>
 </g>
 <defs>
  <clipPath id="p807ca48a16">
   <rect x="0" y="0" width="792" height="612"/>
  </clipPath>
 </defs>
</svg>
