<?xml version="1.0" encoding="utf-8" standalone="no"?>
<!DOCTYPE svg PUBLIC "-//W3C//DTD SVG 1.1//EN"
  "http://www.w3.org/Graphics/SVG/1.1/DTD/svg11.dtd">
<svg xmlns:xlink="http://www.w3.org/1999/xlink" width="792pt" height="612pt" viewBox="0 0 792 612" xmlns="http://www.w3.org/2000/svg" version="1.1">
 <metadata>
  <rdf:RDF xmlns:dc="http://purl.org/dc/elements/1.1/" xmlns:cc="http://creativecommons.org/ns#" xmlns:rdf="http://www.w3.org/1999/02/22-rdf-syntax-ns#">
   <cc:Work>
    <dc:type rdf:resource="http://purl.org/dc/dcmitype/StillImage"/>
    <dc:date>2023-01-16T16:11:31.663723</dc:date>
    <dc:format>image/svg+xml</dc:format>
    <dc:creator>
     <cc:Agent>
      <dc:title>Matplotlib v3.6.2, https://matplotlib.org/</dc:title>
     </cc:Agent>
    </dc:creator>
   </cc:Work>
  </rdf:RDF>
 </metadata>
 <defs>
  <style type="text/css">*{stroke-linejoin: round; stroke-linecap: butt}</style>
 </defs>
 <g id="figure_1">
  <g id="patch_1">
   <path d="M 0 612 
L 792 612 
L 792 0 
L 0 0 
z
" style="fill: #ffffff"/>
  </g>
  <g id="axes_1">
   <g id="line2d_1">
    <path d="M 0 459 
L 12.774194 444.57385 
L 25.548387 451.120528 
L 38.322581 456.146285 
L 51.096774 460.62145 
L 63.870968 458.708139 
L 76.645161 441.237785 
L 89.419355 441.691128 
L 102.193548 441.399689 
L 114.967742 430.176173 
L 127.741935 436.60935 
L 140.516129 441.043505 
L 153.290323 452.644323 
L 166.064516 461.410555 
L 178.83871 448.689314 
L 191.612903 441.367308 
L 204.387097 430.951481 
L 217.16129 444.995023 
L 229.935484 416.285249 
L 242.709677 415.835216 
L 255.483871 418.279234 
L 268.258065 419.05152 
L 281.032258 423.30305 
L 293.806452 429.530208 
L 306.580645 423.528688 
L 319.354839 422.529564 
L 332.129032 416.831828 
L 344.903226 418.92279 
L 357.677419 418.214887 
L 370.451613 428.787494 
L 383.225806 417.346366 
L 396 407.17341 
L 408.774194 407.461571 
L 421.548387 409.864489 
L 434.322581 412.013406 
L 447.096774 416.445995 
L 459.870968 416.220953 
L 472.645161 418.311408 
L 485.419355 419.019337 
L 498.193548 408.070045 
L 510.967742 407.397532 
L 523.741935 418.343583 
L 536.516129 430.886866 
L 549.290323 443.569615 
L 562.064516 447.749393 
L 574.83871 445.513421 
L 587.612903 440.978747 
L 600.387097 446.777159 
L 613.16129 441.237785 
L 625.935484 443.27809 
L 638.709677 450.990851 
L 651.483871 440.266453 
L 664.258065 438.874506 
L 677.032258 440.913989 
L 689.806452 429.853176 
L 702.580645 443.148528 
L 715.354839 431.048406 
L 728.129032 430.305379 
L 740.903226 425.140888 
L 753.677419 418.954972 
L 766.451613 415.738791 
L 779.225806 413.040495 
" clip-path="url(#p4c33186ca5)" style="fill: none; stroke: #000000; stroke-width: 1.5; stroke-linecap: square"/>
   </g>
   <g id="line2d_2">
    <path d="M 0 459 
L 12.774194 459 
L 25.548387 449.380807 
L 38.322581 450.374903 
L 51.096774 453.45275 
L 63.870968 458.826348 
L 76.645161 458.766305 
L 89.419355 449.929744 
L 102.193548 445.793218 
L 114.967742 443.561612 
L 127.741935 436.835945 
L 140.516129 436.694227 
L 153.290323 438.838839 
L 166.064516 445.716597 
L 178.83871 455.987072 
L 191.612903 452.352394 
L 204.387097 446.857476 
L 217.16129 438.877933 
L 229.935484 441.964801 
L 242.709677 429.06164 
L 255.483871 422.391445 
L 268.258065 420.267447 
L 281.032258 419.567388 
L 293.806452 421.385012 
L 306.580645 425.431807 
L 319.354839 424.465556 
L 332.129032 423.453473 
L 344.903226 420.141688 
L 357.677419 419.538228 
L 370.451613 418.876347 
L 383.225806 423.846887 
L 396 420.583006 
L 408.774194 413.824719 
L 421.548387 410.609356 
L 434.322581 410.21212 
L 447.096774 411.103142 
L 459.870968 413.768173 
L 472.645161 414.99034 
L 485.419355 416.629825 
L 498.193548 417.82758 
L 510.967742 412.945319 
L 523.741935 410.169496 
L 536.516129 414.269585 
L 549.290323 422.603238 
L 562.064516 433.126101 
L 574.83871 440.494987 
L 587.612903 443.0572 
L 600.387097 442.061066 
L 613.16129 444.494954 
L 625.935484 442.93285 
L 638.709677 443.154498 
L 651.483871 447.111265 
L 664.258065 443.681528 
L 677.032258 441.260134 
L 689.806452 441.078044 
L 702.580645 435.440265 
L 715.354839 439.285896 
L 728.129032 435.145251 
L 740.903226 432.699168 
L 753.677419 428.867393 
L 766.451613 423.865345 
L 779.225806 419.753715 
" clip-path="url(#p4c33186ca5)" style="fill: none; stroke: #000000; stroke-width: 1.5; stroke-linecap: square"/>
   </g>
   <g id="line2d_3">
    <path d="M 0 459 
L 12.774194 459 
L 25.548387 450.547528 
L 38.322581 450.807141 
L 51.096774 452.892022 
L 63.870968 456.795633 
L 76.645161 457.43581 
L 89.419355 452.229156 
L 102.193548 448.935581 
L 114.967742 446.625548 
L 127.741935 441.646921 
L 140.516129 440.137616 
L 153.290323 440.407141 
L 166.064516 444.029398 
L 178.83871 450.580696 
L 191.612903 450.023613 
L 204.387097 447.477358 
L 217.16129 442.599808 
L 229.935484 443.301747 
L 242.709677 435.329027 
L 255.483871 429.561109 
L 268.258065 426.200191 
L 281.032258 424.059178 
L 293.806452 423.817142 
L 306.580645 425.475475 
L 319.354839 424.884661 
L 332.129032 424.185899 
L 344.903226 422.007223 
L 357.677419 421.078111 
L 370.451613 420.199789 
L 383.225806 422.669721 
L 396 421.073579 
L 408.774194 416.954698 
L 421.548387 414.143162 
L 434.322581 412.848965 
L 447.096774 412.5993 
L 459.870968 413.726014 
L 472.645161 414.454131 
L 485.419355 415.582419 
L 498.193548 416.583667 
L 510.967742 414.062159 
L 523.741935 412.08952 
L 536.516129 413.914782 
L 549.290323 418.891143 
L 562.064516 426.129861 
L 574.83871 432.485157 
L 587.612903 436.316763 
L 600.387097 437.708991 
L 613.16129 440.409254 
L 625.935484 440.690886 
L 638.709677 441.48708 
L 651.483871 444.31439 
L 664.258065 443.155968 
L 677.032258 441.927749 
L 689.806452 441.656845 
L 702.580645 438.209039 
L 715.354839 439.695787 
L 728.129032 437.188645 
L 740.903226 435.185207 
L 753.677419 432.233884 
L 766.451613 428.31066 
L 779.225806 424.58609 
" clip-path="url(#p4c33186ca5)" style="fill: none; stroke: #000000; stroke-width: 1.5; stroke-linecap: square"/>
   </g>
   <g id="line2d_4">
    <path d="M 0 459 
L 12.774194 459 
L 25.548387 451.161699 
L 38.322581 451.145541 
L 51.096774 452.736668 
L 63.870968 455.791306 
L 76.645161 456.509182 
L 89.419355 453.049767 
L 102.193548 450.639087 
L 114.967742 448.776986 
L 127.741935 445.177501 
L 140.516129 443.575337 
L 153.290323 443.114893 
L 166.064516 444.80838 
L 178.83871 448.54546 
L 191.612903 448.570185 
L 204.387097 447.347321 
L 217.16129 444.590756 
L 229.935484 444.658049 
L 242.709677 439.956157 
L 255.483871 435.983799 
L 268.258065 433.084808 
L 281.032258 430.797593 
L 293.806452 429.581476 
L 306.580645 429.57319 
L 319.354839 428.597935 
L 332.129032 427.620872 
L 344.903226 425.885532 
L 357.677419 424.767895 
L 370.451613 423.717378 
L 383.225806 424.527984 
L 396 423.378797 
L 408.774194 420.783271 
L 421.548387 418.62676 
L 434.322581 417.208905 
L 447.096774 416.357233 
L 459.870968 416.346722 
L 472.645161 416.297165 
L 485.419355 416.592474 
L 498.193548 416.964636 
L 510.967742 415.526251 
L 523.741935 414.209821 
L 536.516129 414.859687 
L 549.290323 417.399891 
L 562.064516 421.55141 
L 574.83871 425.704621 
L 587.612903 428.836994 
L 600.387097 430.761602 
L 613.16129 433.309505 
L 625.935484 434.576433 
L 638.709677 435.958814 
L 651.483871 438.369676 
L 664.258065 438.686702 
L 677.032258 438.729465 
L 689.806452 439.090644 
L 702.580645 437.623752 
L 715.354839 438.510892 
L 728.129032 437.327458 
L 740.903226 436.214319 
L 753.677419 434.455585 
L 766.451613 431.984716 
L 779.225806 429.392762 
" clip-path="url(#p4c33186ca5)" style="fill: none; stroke: #000000; stroke-width: 1.5; stroke-linecap: square"/>
   </g>
   <g id="line2d_5">
    <path d="M 0 459 
L 12.774194 459 
L 25.548387 451.472833 
L 38.322581 451.345088 
L 51.096774 452.705459 
L 63.870968 455.339464 
L 76.645161 456.029106 
L 89.419355 453.328169 
L 102.193548 451.395606 
L 114.967742 449.862817 
L 127.741935 447.039783 
L 140.516129 445.62994 
L 153.290323 445.040928 
L 166.064516 445.974397 
L 178.83871 448.365809 
L 191.612903 448.402722 
L 204.387097 447.623868 
L 217.16129 445.82632 
L 229.935484 445.738957 
L 242.709677 442.701427 
L 255.483871 439.98465 
L 268.258065 437.829254 
L 281.032258 435.994507 
L 293.806452 434.773077 
L 306.580645 434.275483 
L 319.354839 433.266727 
L 332.129032 432.269542 
L 344.903226 430.848529 
L 357.677419 429.760946 
L 370.451613 428.716399 
L 383.225806 428.722774 
L 396 427.707791 
L 408.774194 425.883584 
L 421.548387 424.256477 
L 434.322581 422.992572 
L 447.096774 422.033369 
L 459.870968 421.547736 
L 472.645161 421.086538 
L 485.419355 420.847211 
L 498.193548 420.690104 
L 510.967742 419.606337 
L 523.741935 418.560714 
L 536.516129 418.542205 
L 549.290323 419.590025 
L 562.064516 421.618668 
L 574.83871 423.82523 
L 587.612903 425.654607 
L 600.387097 426.946092 
L 613.16129 428.614522 
L 625.935484 429.675922 
L 638.709677 430.818222 
L 651.483871 432.509778 
L 664.258065 433.160221 
L 677.032258 433.639054 
L 689.806452 434.248067 
L 702.580645 433.879989 
L 715.354839 434.654616 
L 728.129032 434.353033 
L 740.903226 434.014717 
L 753.677419 433.272951 
L 766.451613 432.075702 
L 779.225806 430.7097 
" clip-path="url(#p4c33186ca5)" style="fill: none; stroke: #000000; stroke-width: 1.5; stroke-linecap: square"/>
   </g>
   <g id="line2d_6">
    <path d="M 0 459 
L 12.774194 459 
L 25.548387 451.628914 
L 38.322581 451.452058 
L 51.096774 452.702826 
L 63.870968 455.132392 
L 76.645161 455.794682 
L 89.419355 453.434163 
L 102.193548 451.733527 
L 114.967742 450.375933 
L 127.741935 447.936734 
L 140.516129 446.668913 
L 153.290323 446.0804 
L 166.064516 446.726482 
L 178.83871 448.544137 
L 191.612903 448.557017 
L 204.387097 447.947129 
L 217.16129 446.562858 
L 229.935484 446.440093 
L 242.709677 444.153844 
L 255.483871 442.07573 
L 268.258065 440.38233 
L 281.032258 438.906852 
L 293.806452 437.856227 
L 306.580645 437.309684 
L 319.354839 436.424906 
L 332.129032 435.551671 
L 344.903226 434.39776 
L 357.677419 433.462141 
L 370.451613 432.556507 
L 383.225806 432.336718 
L 396 431.474781 
L 408.774194 430.095605 
L 421.548387 428.829193 
L 434.322581 427.7827 
L 447.096774 426.92383 
L 459.870968 426.360406 
L 472.645161 425.82128 
L 485.419355 425.426369 
L 498.193548 425.092887 
L 510.967742 424.213491 
L 523.741935 423.352596 
L 536.516129 423.098929 
L 549.290323 423.489328 
L 562.064516 424.486729 
L 574.83871 425.633494 
L 587.612903 426.607044 
L 600.387097 427.306586 
L 613.16129 428.247932 
L 625.935484 428.872581 
L 638.709677 429.561268 
L 651.483871 430.579662 
L 664.258065 431.038084 
L 677.032258 431.407176 
L 689.806452 431.852761 
L 702.580645 431.759341 
L 715.354839 432.288387 
L 728.129032 432.230946 
L 740.903226 432.142086 
L 753.677419 431.819981 
L 766.451613 431.229658 
L 779.225806 430.520912 
" clip-path="url(#p4c33186ca5)" style="fill: none; stroke: #000000; stroke-width: 1.5; stroke-linecap: square"/>
   </g>
   <g id="line2d_7">
    <path d="M 0 459 
L 12.774194 459 
L 25.548387 451.707019 
L 38.322581 451.50727 
L 51.096774 452.704865 
L 63.870968 455.034269 
L 76.645161 455.680188 
L 89.419355 453.479393 
L 102.193548 451.890992 
L 114.967742 450.621159 
L 127.741935 448.36859 
L 140.516129 447.179184 
L 153.290323 446.60458 
L 166.064516 447.131781 
L 178.83871 448.695654 
L 191.612903 448.695164 
L 204.387097 448.158838 
L 217.16129 446.960328 
L 229.935484 446.829883 
L 242.709677 444.883827 
L 255.483871 443.107763 
L 268.258065 441.648053 
L 281.032258 440.367439 
L 293.806452 439.433775 
L 306.580645 438.909766 
L 319.354839 438.120148 
L 332.129032 437.342881 
L 344.903226 436.34766 
L 357.677419 435.524718 
L 370.451613 434.727649 
L 383.225806 434.461095 
L 396 433.709421 
L 408.774194 432.567422 
L 421.548387 431.509793 
L 434.322581 430.616799 
L 447.096774 429.864494 
L 459.870968 429.332397 
L 472.645161 428.821752 
L 485.419355 428.419599 
L 498.193548 428.065913 
L 510.967742 427.324018 
L 523.741935 426.595974 
L 536.516129 426.299563 
L 549.290323 426.461661 
L 562.064516 427.057027 
L 574.83871 427.767391 
L 587.612903 428.368985 
L 600.387097 428.791386 
L 613.16129 429.386381 
L 625.935484 429.774132 
L 638.709677 430.210939 
L 651.483871 430.875446 
L 664.258065 431.172895 
L 677.032258 431.414396 
L 689.806452 431.70929 
L 702.580645 431.652147 
L 715.354839 432.002281 
L 728.129032 431.973451 
L 740.903226 431.923471 
L 753.677419 431.721821 
L 766.451613 431.345014 
L 779.225806 430.887837 
" clip-path="url(#p4c33186ca5)" style="fill: none; stroke: #000000; stroke-width: 1.5; stroke-linecap: square"/>
   </g>
   <g id="line2d_8">
    <path d="M 0 459 
L 12.774194 459 
L 25.548387 451.74608 
L 38.322581 451.535297 
L 51.096774 452.706732 
L 63.870968 454.986641 
L 76.645161 455.623781 
L 89.419355 453.500168 
L 102.193548 451.966737 
L 114.967742 450.74052 
L 127.741935 448.57943 
L 140.516129 447.430488 
L 153.290323 446.86575 
L 166.064516 447.33959 
L 178.83871 448.785436 
L 191.612903 448.77853 
L 204.387097 448.276547 
L 217.16129 447.165306 
L 229.935484 447.0333 
L 242.709677 445.246813 
L 255.483871 443.614843 
L 268.258065 442.26954 
L 281.032258 441.086773 
L 293.806452 440.216293 
L 306.580645 439.712847 
L 319.354839 438.976528 
L 332.129032 438.253237 
L 344.903226 437.340629 
L 357.677419 436.5804 
L 370.451613 435.844659 
L 383.225806 435.570398 
L 396 434.880347 
L 408.774194 433.856957 
L 421.548387 432.906845 
L 434.322581 432.098161 
L 447.096774 431.41026 
L 459.870968 430.909877 
L 472.645161 430.429558 
L 485.419355 430.041937 
L 498.193548 429.696721 
L 510.967742 429.031662 
L 523.741935 428.379287 
L 536.516129 428.083025 
L 549.290323 428.164117 
L 562.064516 428.601096 
L 574.83871 429.134666 
L 587.612903 429.583489 
L 600.387097 429.890779 
L 613.16129 430.338657 
L 625.935484 430.623399 
L 638.709677 430.948947 
L 651.483871 431.456637 
L 664.258065 431.676802 
L 677.032258 431.854183 
L 689.806452 432.074354 
L 702.580645 432.021028 
L 715.354839 432.284299 
L 728.129032 432.255392 
L 740.903226 432.210346 
L 753.677419 432.048913 
L 766.451613 431.753182 
L 779.225806 431.395512 
" clip-path="url(#p4c33186ca5)" style="fill: none; stroke: #000000; stroke-width: 1.5; stroke-linecap: square"/>
   </g>
   <g id="line2d_9">
    <path d="M 0 459 
L 12.774194 459 
L 25.548387 451.765611 
L 38.322581 451.549415 
L 51.096774 452.707879 
L 63.870968 454.963194 
L 76.645161 455.595808 
L 89.419355 453.51011 
L 102.193548 452.003852 
L 114.967742 450.799342 
L 127.741935 448.683471 
L 140.516129 447.554999 
L 153.290323 446.99585 
L 166.064516 447.444494 
L 178.83871 448.833581 
L 191.612903 448.823595 
L 204.387097 448.338205 
L 217.16129 447.269158 
L 229.935484 447.136901 
L 242.709677 445.427396 
L 255.483871 443.865445 
L 268.258065 442.576357 
L 281.032258 441.442173 
L 293.806452 440.604001 
L 306.580645 440.11274 
L 319.354839 439.404059 
L 332.129032 438.708797 
L 344.903226 437.837787 
L 357.677419 437.109964 
L 370.451613 436.40608 
L 383.225806 436.131442 
L 396 435.473298 
L 408.774194 434.508507 
L 421.548387 433.61213 
L 434.322581 432.84665 
L 447.096774 432.192895 
L 459.870968 431.711633 
L 472.645161 431.249793 
L 485.419355 430.873369 
L 498.193548 430.536511 
L 510.967742 429.911155 
L 523.741935 429.298127 
L 536.516129 429.006813 
L 549.290323 429.055678 
L 562.064516 429.424774 
L 574.83871 429.881471 
L 587.612903 430.263678 
L 600.387097 430.520881 
L 613.16129 430.90377 
L 625.935484 431.142953 
L 638.709677 431.418876 
L 651.483871 431.85605 
L 664.258065 432.04095 
L 677.032258 432.188755 
L 689.806452 432.374424 
L 702.580645 432.321544 
L 715.354839 432.544813 
L 728.129032 432.514377 
L 740.903226 432.470105 
L 753.677419 432.325229 
L 766.451613 432.06443 
L 779.225806 431.750234 
" clip-path="url(#p4c33186ca5)" style="fill: none; stroke: #000000; stroke-width: 1.5; stroke-linecap: square"/>
   </g>
  </g>
 </g>
 <defs>
  <clipPath id="p4c33186ca5">
   <rect x="0" y="0" width="792" height="612"/>
  </clipPath>
 </defs>
</svg>
