<?xml version="1.0" encoding="utf-8" standalone="no"?>
<!DOCTYPE svg PUBLIC "-//W3C//DTD SVG 1.1//EN"
  "http://www.w3.org/Graphics/SVG/1.1/DTD/svg11.dtd">
<svg xmlns:xlink="http://www.w3.org/1999/xlink" width="792pt" height="612pt" viewBox="0 0 792 612" xmlns="http://www.w3.org/2000/svg" version="1.1">
 <metadata>
  <rdf:RDF xmlns:dc="http://purl.org/dc/elements/1.1/" xmlns:cc="http://creativecommons.org/ns#" xmlns:rdf="http://www.w3.org/1999/02/22-rdf-syntax-ns#">
   <cc:Work>
    <dc:type rdf:resource="http://purl.org/dc/dcmitype/StillImage"/>
    <dc:date>2023-01-09T02:27:09.538851</dc:date>
    <dc:format>image/svg+xml</dc:format>
    <dc:creator>
     <cc:Agent>
      <dc:title>Matplotlib v3.6.2, https://matplotlib.org/</dc:title>
     </cc:Agent>
    </dc:creator>
   </cc:Work>
  </rdf:RDF>
 </metadata>
 <defs>
  <style type="text/css">*{stroke-linejoin: round; stroke-linecap: butt}</style>
 </defs>
 <g id="figure_1">
  <g id="patch_1">
   <path d="M 0 612 
L 792 612 
L 792 0 
L 0 0 
z
" style="fill: #ffffff"/>
  </g>
  <g id="axes_1">
   <g id="line2d_1">
    <path d="M 0 459 
L 44 465.263318 
L 88 469.046836 
L 132 468.253665 
L 176 475.036646 
L 220 475.364855 
L 264 486.368967 
L 308 486.578656 
L 352 497.719521 
L 396 499.725241 
L 440 512.534501 
L 484 509.243296 
L 528 500.93779 
L 572 499.697891 
L 616 513.446192 
L 660 508.395424 
L 704 511.404004 
L 748 508.924205 
" clip-path="url(#p9c4d9bdafe)" style="fill: none; stroke: #000000; stroke-width: 1.5; stroke-linecap: square"/>
   </g>
   <g id="line2d_2">
    <path d="M 0 459 
L 44 459 
L 88 463.175545 
L 132 466.530568 
L 176 467.449553 
L 220 471.365472 
L 264 473.396905 
L 308 479.934007 
L 352 483.26936 
L 396 490.570361 
L 440 495.215374 
L 484 503.960207 
L 528 506.682124 
L 572 503.860744 
L 616 501.827029 
L 660 507.689703 
L 704 508.085341 
L 748 509.771505 
" clip-path="url(#p9c4d9bdafe)" style="fill: none; stroke: #000000; stroke-width: 1.5; stroke-linecap: square"/>
   </g>
   <g id="line2d_3">
    <path d="M 0 459 
L 44 459 
L 88 462.668967 
L 132 465.558663 
L 176 466.611127 
L 220 469.608828 
L 264 471.535572 
L 308 476.301418 
L 352 479.512227 
L 396 485.091595 
L 440 489.515952 
L 484 496.410274 
L 528 500.228641 
L 572 500.438667 
L 616 500.21999 
L 660 504.115374 
L 704 505.373888 
L 748 507.200259 
" clip-path="url(#p9c4d9bdafe)" style="fill: none; stroke: #000000; stroke-width: 1.5; stroke-linecap: square"/>
   </g>
   <g id="line2d_4">
    <path d="M 0 459 
L 44 459 
L 88 462.40232 
L 132 465.010054 
L 176 466.042194 
L 220 468.511429 
L 264 470.198196 
L 308 473.859551 
L 352 476.557758 
L 396 480.820882 
L 440 484.474509 
L 484 489.718475 
L 528 493.268725 
L 572 494.632221 
L 616 495.516332 
L 660 498.59809 
L 704 500.2608 
L 748 502.132071 
" clip-path="url(#p9c4d9bdafe)" style="fill: none; stroke: #000000; stroke-width: 1.5; stroke-linecap: square"/>
   </g>
   <g id="line2d_5">
    <path d="M 0 459 
L 44 459 
L 88 462.267243 
L 132 464.725487 
L 176 465.725252 
L 220 467.923351 
L 264 469.446835 
L 308 472.535302 
L 352 474.866385 
L 396 478.369109 
L 440 481.42746 
L 484 485.629217 
L 528 488.660981 
L 572 490.168735 
L 616 491.294227 
L 660 493.821848 
L 704 495.434579 
L 748 497.154202 
" clip-path="url(#p9c4d9bdafe)" style="fill: none; stroke: #000000; stroke-width: 1.5; stroke-linecap: square"/>
   </g>
   <g id="line2d_6">
    <path d="M 0 459 
L 44 459 
L 88 462.199483 
L 132 464.581496 
L 176 465.560028 
L 220 467.623019 
L 264 469.056991 
L 308 471.862831 
L 352 473.992968 
L 396 477.108529 
L 440 479.835856 
L 484 483.492994 
L 528 486.185983 
L 572 487.638422 
L 616 488.762746 
L 660 490.952697 
L 704 492.431726 
L 748 493.97502 
" clip-path="url(#p9c4d9bdafe)" style="fill: none; stroke: #000000; stroke-width: 1.5; stroke-linecap: square"/>
   </g>
   <g id="line2d_7">
    <path d="M 0 459 
L 44 459 
L 88 462.165575 
L 132 464.509189 
L 176 465.475939 
L 220 467.471802 
L 264 468.859563 
L 308 471.526344 
L 352 473.553577 
L 396 476.47713 
L 440 479.035008 
L 484 482.420822 
L 528 484.931805 
L 572 486.329321 
L 616 487.424409 
L 660 489.434409 
L 704 490.821588 
L 748 492.253323 
" clip-path="url(#p9c4d9bdafe)" style="fill: none; stroke: #000000; stroke-width: 1.5; stroke-linecap: square"/>
   </g>
   <g id="line2d_8">
    <path d="M 0 459 
L 44 459 
L 88 462.148617 
L 132 464.472972 
L 176 465.433555 
L 220 467.395999 
L 264 468.76036 
L 308 471.358341 
L 352 473.333775 
L 396 476.162157 
L 440 478.634952 
L 484 481.886308 
L 528 484.304292 
L 572 485.668577 
L 616 486.742735 
L 660 488.661077 
L 704 489.997176 
L 748 491.36844 
" clip-path="url(#p9c4d9bdafe)" style="fill: none; stroke: #000000; stroke-width: 1.5; stroke-linecap: square"/>
   </g>
   <g id="line2d_9">
    <path d="M 0 459 
L 44 459 
L 88 462.140138 
L 132 464.454849 
L 176 465.412281 
L 220 467.358058 
L 264 468.710655 
L 308 471.274437 
L 352 473.223918 
L 396 476.004978 
L 440 478.435223 
L 484 481.619771 
L 528 483.990909 
L 572 485.33729 
L 616 486.399543 
L 660 488.271802 
L 704 489.581253 
L 748 490.921307 
" clip-path="url(#p9c4d9bdafe)" style="fill: none; stroke: #000000; stroke-width: 1.5; stroke-linecap: square"/>
   </g>
  </g>
 </g>
 <defs>
  <clipPath id="p9c4d9bdafe">
   <rect x="0" y="0" width="792" height="612"/>
  </clipPath>
 </defs>
</svg>
