<?xml version="1.0" encoding="utf-8" standalone="no"?>
<!DOCTYPE svg PUBLIC "-//W3C//DTD SVG 1.1//EN"
  "http://www.w3.org/Graphics/SVG/1.1/DTD/svg11.dtd">
<svg xmlns:xlink="http://www.w3.org/1999/xlink" width="792pt" height="612pt" viewBox="0 0 792 612" xmlns="http://www.w3.org/2000/svg" version="1.1">
 <metadata>
  <rdf:RDF xmlns:dc="http://purl.org/dc/elements/1.1/" xmlns:cc="http://creativecommons.org/ns#" xmlns:rdf="http://www.w3.org/1999/02/22-rdf-syntax-ns#">
   <cc:Work>
    <dc:type rdf:resource="http://purl.org/dc/dcmitype/StillImage"/>
    <dc:date>2023-01-30T16:19:31.125401</dc:date>
    <dc:format>image/svg+xml</dc:format>
    <dc:creator>
     <cc:Agent>
      <dc:title>Matplotlib v3.6.2, https://matplotlib.org/</dc:title>
     </cc:Agent>
    </dc:creator>
   </cc:Work>
  </rdf:RDF>
 </metadata>
 <defs>
  <style type="text/css">*{stroke-linejoin: round; stroke-linecap: butt}</style>
 </defs>
 <g id="figure_1">
  <g id="patch_1">
   <path d="M 0 612 
L 792 612 
L 792 0 
L 0 0 
z
" style="fill: #ffffff"/>
  </g>
  <g id="axes_1">
   <g id="line2d_1">
    <path d="M 0 459 
L 44 471.322079 
L 88 471.556883 
L 132 484.032094 
L 176 486.278041 
L 220 500.621472 
L 264 496.936078 
L 308 487.635818 
L 352 486.247414 
L 396 501.642357 
L 440 495.986655 
L 484 499.355575 
L 528 496.578768 
L 572 489.728631 
L 616 490.667845 
L 660 486.206579 
L 704 485.859478 
L 748 487.043705 
" clip-path="url(#p92e6eabe39)" style="fill: none; stroke: #000000; stroke-width: 1.5; stroke-linecap: square"/>
   </g>
   <g id="line2d_2">
    <path d="M 0 459 
L 44 459 
L 88 467.214719 
L 132 469.695956 
L 176 477.341896 
L 220 481.9541 
L 264 491.43594 
L 308 494.207663 
L 352 490.908854 
L 396 488.631561 
L 440 495.19641 
L 484 495.639434 
L 528 497.527551 
L 572 497.073357 
L 616 493.379636 
L 660 492.01145 
L 704 489.106212 
L 748 487.482084 
" clip-path="url(#p92e6eabe39)" style="fill: none; stroke: #000000; stroke-width: 1.5; stroke-linecap: square"/>
   </g>
   <g id="line2d_3">
    <path d="M 0 459 
L 44 459 
L 88 466.218107 
L 132 468.637009 
L 176 474.649164 
L 220 478.786582 
L 264 486.095486 
L 308 489.578478 
L 352 488.971553 
L 396 488.136779 
L 440 492.220074 
L 484 493.348209 
L 528 495.135654 
L 572 495.563055 
L 616 493.840736 
L 660 492.906256 
L 704 490.936271 
L 748 489.480163 
" clip-path="url(#p92e6eabe39)" style="fill: none; stroke: #000000; stroke-width: 1.5; stroke-linecap: square"/>
   </g>
   <g id="line2d_4">
    <path d="M 0 459 
L 44 459 
L 88 465.693521 
L 132 467.994681 
L 176 473.097901 
L 220 476.716227 
L 264 482.599791 
L 308 485.845786 
L 352 486.22552 
L 396 486.229931 
L 440 489.208676 
L 484 490.475372 
L 528 492.090083 
L 572 492.888134 
L 616 492.336706 
L 660 492.049864 
L 704 491.058198 
L 748 490.18518 
" clip-path="url(#p92e6eabe39)" style="fill: none; stroke: #000000; stroke-width: 1.5; stroke-linecap: square"/>
   </g>
   <g id="line2d_5">
    <path d="M 0 459 
L 44 459 
L 88 465.427779 
L 132 467.65016 
L 176 472.292242 
L 220 475.593806 
L 264 480.717667 
L 308 483.677698 
L 352 484.334714 
L 396 484.627875 
L 440 487.064471 
L 484 488.269627 
L 528 489.692929 
L 572 490.538601 
L 616 490.442936 
L 660 490.468599 
L 704 489.996958 
L 748 489.551425 
" clip-path="url(#p92e6eabe39)" style="fill: none; stroke: #000000; stroke-width: 1.5; stroke-linecap: square"/>
   </g>
   <g id="line2d_6">
    <path d="M 0 459 
L 44 459 
L 88 465.294472 
L 132 467.472999 
L 176 471.885542 
L 220 475.018685 
L 264 479.76093 
L 308 482.544593 
L 352 483.281555 
L 396 483.671006 
L 440 485.838153 
L 484 486.9732 
L 528 488.268159 
L 572 489.086408 
L 616 489.146284 
L 660 489.281279 
L 704 489.020564 
L 748 488.763427 
" clip-path="url(#p92e6eabe39)" style="fill: none; stroke: #000000; stroke-width: 1.5; stroke-linecap: square"/>
   </g>
   <g id="line2d_7">
    <path d="M 0 459 
L 44 459 
L 88 465.227764 
L 132 467.383329 
L 176 471.681716 
L 220 474.728798 
L 264 479.281262 
L 308 481.97019 
L 352 482.733232 
L 396 483.158372 
L 440 485.192076 
L 484 486.283091 
L 528 487.50687 
L 572 488.298956 
L 616 488.416068 
L 660 488.590002 
L 704 488.415632 
L 748 488.237823 
" clip-path="url(#p92e6eabe39)" style="fill: none; stroke: #000000; stroke-width: 1.5; stroke-linecap: square"/>
   </g>
   <g id="line2d_8">
    <path d="M 0 459 
L 44 459 
L 88 465.194403 
L 132 467.33824 
L 176 471.579747 
L 220 474.583423 
L 264 479.041442 
L 308 481.681623 
L 352 482.454414 
L 396 482.894345 
L 440 484.86183 
L 484 485.928828 
L 528 487.115569 
L 572 487.891744 
L 616 488.032386 
L 660 488.221714 
L 704 488.08528 
L 748 487.942702 
" clip-path="url(#p92e6eabe39)" style="fill: none; stroke: #000000; stroke-width: 1.5; stroke-linecap: square"/>
   </g>
   <g id="line2d_9">
    <path d="M 0 459 
L 44 459 
L 88 465.177721 
L 132 467.315634 
L 176 471.528756 
L 220 474.510647 
L 264 478.921578 
L 308 481.537074 
L 352 482.313944 
L 396 482.760523 
L 440 484.69505 
L 484 485.749578 
L 528 486.917485 
L 572 487.685046 
L 616 487.83621 
L 660 488.032225 
L 704 487.91343 
L 748 487.787304 
" clip-path="url(#p92e6eabe39)" style="fill: none; stroke: #000000; stroke-width: 1.5; stroke-linecap: square"/>
   </g>
  </g>
 </g>
 <defs>
  <clipPath id="p92e6eabe39">
   <rect x="0" y="0" width="792" height="612"/>
  </clipPath>
 </defs>
</svg>
