<?xml version="1.0" encoding="utf-8" standalone="no"?>
<!DOCTYPE svg PUBLIC "-//W3C//DTD SVG 1.1//EN"
  "http://www.w3.org/Graphics/SVG/1.1/DTD/svg11.dtd">
<svg xmlns:xlink="http://www.w3.org/1999/xlink" width="792pt" height="612pt" viewBox="0 0 792 612" xmlns="http://www.w3.org/2000/svg" version="1.1">
 <metadata>
  <rdf:RDF xmlns:dc="http://purl.org/dc/elements/1.1/" xmlns:cc="http://creativecommons.org/ns#" xmlns:rdf="http://www.w3.org/1999/02/22-rdf-syntax-ns#">
   <cc:Work>
    <dc:type rdf:resource="http://purl.org/dc/dcmitype/StillImage"/>
    <dc:date>2023-01-30T17:17:04.655369</dc:date>
    <dc:format>image/svg+xml</dc:format>
    <dc:creator>
     <cc:Agent>
      <dc:title>Matplotlib v3.6.2, https://matplotlib.org/</dc:title>
     </cc:Agent>
    </dc:creator>
   </cc:Work>
  </rdf:RDF>
 </metadata>
 <defs>
  <style type="text/css">*{stroke-linejoin: round; stroke-linecap: butt}</style>
 </defs>
 <g id="figure_1">
  <g id="patch_1">
   <path d="M 0 612 
L 792 612 
L 792 0 
L 0 0 
z
" style="fill: #ffffff"/>
  </g>
  <g id="axes_1">
   <g id="line2d_1">
    <path d="M 0 459 
L 3.168 460.910032 
L 6.336 455.342884 
L 9.504 475.598032 
L 12.672 472.760129 
L 15.84 455.683413 
L 19.008 458.378129 
L 22.176 463.002677 
L 25.344 465.391452 
L 28.512 460.100613 
L 31.68 462.72629 
L 38.016 458.007969 
L 41.184 463.18529 
L 44.352 470.514484 
L 47.52 467.923355 
L 50.688 460.243742 
L 53.856 460.085806 
L 57.024 467.824645 
L 60.192 471.012968 
L 63.36 476.84671 
L 66.528 486.303097 
L 69.696 480.262065 
L 72.864 478.761677 
L 76.032 468.801871 
L 79.2 469.798839 
L 82.368 467.242258 
L 85.536 473.924903 
L 88.704 474.087774 
L 91.872 479.635258 
L 95.04 476.372903 
L 98.208 470.687226 
L 101.376 474.087774 
L 104.544 481.150452 
L 107.712 485.918129 
L 110.88 480.074516 
L 114.048 473.766968 
L 117.216 468.609387 
L 120.384 463.047097 
L 123.552 460.455968 
L 126.72 427.467585 
L 129.888 424.948611 
L 133.056 417.698369 
L 136.224 419.299705 
L 139.392 379.915998 
L 142.56 376.229054 
L 145.728 378.896352 
L 148.896 386.757806 
L 152.064 383.397401 
L 155.232 354.522663 
L 158.4 380.203368 
L 161.568 402.155227 
L 164.736 396.580147 
L 167.904 412.03599 
L 171.072 436.349735 
L 174.24 430.932417 
L 177.408 413.560258 
L 180.576 431.89136 
L 183.744 422.416985 
L 186.912 410.732398 
L 190.08 435.72942 
L 193.248 420.210994 
L 196.416 422.034488 
L 199.584 425.493482 
L 202.752 467.814774 
L 205.92 466.975742 
L 209.088 467.637097 
L 212.256 468.747581 
L 215.424 463.451806 
L 218.592 462.415355 
L 221.76 447.838136 
L 224.928 468.333 
L 228.096 469.586613 
L 231.264 482.50771 
L 234.432 480.380516 
L 237.6 491.243516 
L 240.768 492.230613 
L 243.936 485.390032 
L 247.104 492.827806 
L 250.272 486.702871 
L 253.44 495.226452 
L 256.608 495.290613 
L 259.776 502.777742 
L 262.944 500.966419 
L 266.112 508.655903 
L 269.28 503.616774 
L 272.448 495.567 
L 275.616 487.028613 
L 278.784 487.255645 
L 281.952 490.197194 
L 285.12 484.501645 
L 288.288 496.253032 
L 291.456 494.39729 
L 294.624 494.096226 
L 297.792 492.625452 
L 300.96 493.691516 
L 304.128 497.383258 
L 307.296 505.521871 
L 310.464 502.980097 
L 313.632 497.003226 
L 316.8 506.824839 
L 319.968 505.018452 
L 323.136 495.00929 
L 329.472 495.981581 
L 332.64 490.730226 
L 335.808 491.120129 
L 338.976 497.171032 
L 345.312 501.213194 
L 348.48 499.836194 
L 351.648 496.968677 
L 354.816 497.630032 
L 357.984 491.307677 
L 361.152 488.237806 
L 364.32 496.341871 
L 367.488 496.968677 
L 370.656 495.00929 
L 373.824 494.382484 
L 376.992 493.513839 
L 380.16 493.276935 
L 383.328 490.819065 
L 386.496 489.846774 
L 389.664 477.897968 
L 392.832 477.636387 
L 396 479.516806 
L 399.168 484.240065 
L 402.336 476.363032 
L 405.504 473.362258 
L 408.672 465.342097 
L 411.84 465.277935 
L 415.008 463.64429 
L 418.176 460.283226 
L 421.344 459.676161 
L 424.512 469.774161 
L 427.68 468.663677 
L 430.848 472.162935 
L 434.016 466.719097 
L 437.184 470.534226 
L 440.352 463.920677 
L 443.52 459.335613 
L 449.856 461.96129 
L 453.024 462.519 
L 456.192 465.579 
L 459.36 468.915387 
L 462.528 465.687581 
L 465.696 465.366774 
L 468.864 465.875129 
L 472.032 469.813645 
L 475.2 471.427548 
L 478.368 474.941613 
L 481.536 475.973129 
L 484.704 475.208129 
L 487.872 478.63829 
L 491.04 476.560452 
L 494.208 471.980323 
L 497.376 469.236194 
L 500.544 464.093419 
L 503.712 461.754 
L 506.88 467.81971 
L 510.048 462.647323 
L 513.216 462.084677 
L 516.384 462.282097 
L 519.552 459.459 
L 522.72 459.626806 
L 525.888 463.540645 
L 529.056 469.566871 
L 532.224 476.111323 
L 535.392 475.77571 
L 538.56 472.355419 
L 541.728 469.951839 
L 544.896 479.625387 
L 548.064 481.08629 
L 551.232 492.363871 
L 554.4 488.88929 
L 557.568 493.148613 
L 560.736 494.471323 
L 563.904 501.904161 
L 567.072 501.958452 
L 570.24 505.146774 
L 573.408 504.781548 
L 576.576 502.570452 
L 579.744 510.827516 
L 582.912 503.740161 
L 586.08 503.325581 
L 589.248 502.412516 
L 592.416 509.69729 
L 595.584 506.163484 
L 598.752 507.737903 
L 601.92 502.224968 
L 605.088 501.12929 
L 608.256 500.907194 
L 611.424 499.214323 
L 614.592 499.698 
L 617.76 499.559806 
L 620.928 505.896968 
L 624.096 505.734097 
L 627.264 509.603516 
L 630.432 514.731484 
L 633.6 517.584194 
L 636.768 524.350742 
L 639.936 517.870452 
L 643.104 515.279323 
L 646.272 517.756935 
L 649.44 516.044323 
L 652.608 519.745935 
L 655.776 521.596742 
L 658.944 523.067516 
L 662.112 529.148032 
L 665.28 528.141194 
L 668.448 521.581935 
L 671.616 521.749742 
L 674.784 521.720129 
L 677.952 522.751645 
L 681.12 515.906129 
L 687.456 515.827161 
L 690.624 521.952097 
L 693.792 523.250129 
L 696.96 526.102839 
L 700.128 526.398968 
L 703.296 523.630161 
L 706.464 529.17271 
L 709.632 532.563387 
L 712.8 534.611613 
L 715.968 534.182226 
L 719.136 537.854226 
L 722.304 538.031903 
L 725.472 543.989032 
L 728.64 544.102548 
L 731.808 550.13371 
L 734.976 551.219516 
L 738.144 558.153871 
L 741.312 556.372161 
L 744.48 551.875935 
L 747.648 551.20471 
L 750.816 558.647419 
L 753.984 555.913161 
L 757.152 557.541871 
L 760.32 556.199419 
L 763.488 552.88771 
L 766.656 553.341774 
L 769.824 551.184968 
L 772.992 551.017161 
L 776.16 551.589677 
L 779.328 547.103323 
L 782.496 548.440839 
L 785.664 549.235452 
L 788.832 546.150774 
L 788.832 546.150774 
" clip-path="url(#p929aec5fc6)" style="fill: none; stroke: #000000; stroke-width: 1.5; stroke-linecap: square"/>
   </g>
   <g id="line2d_2">
    <path d="M 0 459 
L 3.168 459 
L 6.336 460.273355 
L 9.504 458.547346 
L 12.672 467.781871 
L 15.84 470.351294 
L 19.008 464.024009 
L 22.176 461.387764 
L 25.344 462.198387 
L 28.512 463.807452 
L 31.68 461.952445 
L 34.848 462.349065 
L 38.016 461.303458 
L 41.184 459.958761 
L 44.352 461.5824 
L 47.52 466.071426 
L 50.688 467.007039 
L 53.856 463.615297 
L 57.024 461.850523 
L 63.36 467.951245 
L 66.528 472.434619 
L 69.696 479.414187 
L 72.864 479.857239 
L 76.032 479.33071 
L 79.2 474.083071 
L 82.368 471.96 
L 85.536 469.599987 
L 88.704 471.768155 
L 91.872 472.922555 
L 95.04 476.265832 
L 98.208 476.311742 
L 101.376 473.483652 
L 104.544 473.796077 
L 107.712 477.495523 
L 110.88 481.743445 
L 114.048 480.921039 
L 117.216 477.343374 
L 120.384 472.954761 
L 123.552 467.9748 
L 126.72 464.195323 
L 133.056 437.686731 
L 136.224 427.43921 
L 139.392 423.165857 
L 142.56 401.171416 
L 145.728 388.431632 
L 148.896 383.47807 
L 152.064 384.969497 
L 155.232 384.097879 
L 158.4 369.077182 
L 161.568 374.555134 
L 164.736 388.256521 
L 167.904 392.445512 
L 171.072 402.285074 
L 174.24 419.375662 
L 177.408 425.235905 
L 180.576 419.451392 
L 183.744 425.8197 
L 186.912 424.20154 
L 190.08 417.474855 
L 193.248 426.666359 
L 196.416 423.452981 
L 199.584 422.715633 
L 202.752 424.093585 
L 205.92 454.876543 
L 209.088 462.333987 
L 212.256 465.026439 
L 215.424 466.937787 
L 218.592 465.218748 
L 221.76 463.849161 
L 224.928 459.580819 
L 228.096 463.997148 
L 231.264 466.795355 
L 234.432 474.681987 
L 237.6 477.556239 
L 240.768 484.443987 
L 243.936 488.393729 
L 247.104 486.936929 
L 250.272 489.955994 
L 253.44 488.365452 
L 256.608 491.846226 
L 259.776 493.593484 
L 262.944 498.229529 
L 266.112 499.617039 
L 269.28 504.168677 
L 272.448 503.928465 
L 275.616 499.753103 
L 278.784 493.391497 
L 281.952 490.307942 
L 285.12 490.242581 
L 288.288 487.336277 
L 291.456 491.785413 
L 294.624 493.063394 
L 297.792 493.561142 
L 300.96 493.087529 
L 304.128 493.402587 
L 307.296 495.412781 
L 310.464 500.497374 
L 313.632 501.774968 
L 316.8 499.390568 
L 319.968 503.132071 
L 323.136 504.096677 
L 326.304 499.557658 
L 329.472 497.521413 
L 332.64 496.748748 
L 335.808 493.710484 
L 338.976 492.392052 
L 342.144 494.781871 
L 348.48 499.094439 
L 351.648 499.474781 
L 354.816 498.224652 
L 357.984 497.930574 
L 364.32 491.423381 
L 367.488 493.881 
L 370.656 495.420406 
L 373.824 495.202684 
L 376.992 494.78189 
L 380.16 494.14109 
L 383.328 493.700477 
L 386.496 492.258813 
L 389.664 491.055948 
L 392.832 484.440794 
L 396 481.000684 
L 399.168 480.228368 
L 402.336 482.214329 
L 408.672 476.269606 
L 411.84 470.755897 
L 415.008 467.968742 
L 418.176 465.778568 
L 421.344 462.996871 
L 424.512 461.297613 
L 427.68 465.507523 
L 430.848 467.070503 
L 434.016 469.614368 
L 437.184 468.169432 
L 440.352 469.362135 
L 443.52 466.641948 
L 446.688 462.986923 
L 449.856 461.844368 
L 453.024 461.88751 
L 456.192 462.191206 
L 459.36 463.872194 
L 462.528 466.398097 
L 468.864 465.70289 
L 472.032 465.801832 
L 475.2 467.825613 
L 478.368 469.645142 
L 481.536 472.317735 
L 484.704 474.165813 
L 487.872 474.69931 
L 491.04 476.694194 
L 494.208 476.649271 
L 497.376 474.326768 
L 500.544 471.780348 
L 503.712 467.922503 
L 506.88 464.812394 
L 510.048 466.300065 
L 513.216 464.449065 
L 516.384 463.234413 
L 519.552 462.730258 
L 522.72 461.070077 
L 525.888 460.3296 
L 529.056 461.934039 
L 532.224 465.765774 
L 535.392 470.954806 
L 538.56 473.391 
L 541.728 472.893348 
L 544.896 471.437632 
L 548.064 475.571052 
L 551.232 478.370748 
L 554.4 485.423826 
L 557.568 487.194445 
L 560.736 490.204935 
L 563.904 492.374787 
L 567.072 497.197413 
L 570.24 499.64069 
L 573.408 502.443774 
L 576.576 503.659123 
L 579.744 503.1348 
L 582.912 507.024174 
L 586.08 505.402935 
L 592.416 503.398065 
L 595.584 506.562852 
L 598.752 506.365161 
L 601.92 507.057329 
L 605.088 504.640471 
L 608.256 502.865865 
L 611.424 501.880974 
L 614.592 500.539587 
L 617.76 500.113471 
L 620.928 499.816761 
L 624.096 502.856342 
L 627.264 504.29129 
L 630.432 506.961871 
L 633.6 510.873348 
L 636.768 514.261471 
L 639.936 519.355394 
L 643.104 518.648555 
L 646.272 516.994761 
L 649.44 517.399103 
L 652.608 516.741929 
L 655.776 518.263819 
L 662.112 521.516381 
L 665.28 525.341613 
L 668.448 526.761542 
L 671.616 524.184097 
L 674.784 522.974748 
L 677.952 522.358568 
L 681.12 522.561 
L 684.288 519.222406 
L 687.456 517.550226 
L 690.624 516.662574 
L 693.792 519.2952 
L 696.96 521.275935 
L 700.128 523.697923 
L 703.296 525.057619 
L 706.464 524.345613 
L 709.632 526.785174 
L 712.8 529.706942 
L 715.968 532.19611 
L 719.136 533.213148 
L 722.304 535.562323 
L 725.472 536.820503 
L 728.64 540.439258 
L 731.808 542.311045 
L 734.976 546.263477 
L 738.144 548.778077 
L 741.312 553.512135 
L 744.48 554.985658 
L 747.648 553.45829 
L 750.816 552.357329 
L 753.984 555.531116 
L 757.152 555.745297 
L 760.32 556.65811 
L 763.488 556.438529 
L 766.656 554.652794 
L 769.824 553.991342 
L 772.992 552.5868 
L 776.16 551.801613 
L 779.328 551.681806 
L 782.496 549.37529 
L 785.664 548.890219 
L 788.832 549.049181 
L 788.832 549.049181 
" clip-path="url(#p929aec5fc6)" style="fill: none; stroke: #000000; stroke-width: 1.5; stroke-linecap: square"/>
   </g>
   <g id="line2d_3">
    <path d="M 0 459 
L 3.168 459 
L 6.336 460.118871 
L 9.504 459.059595 
L 12.672 465.518256 
L 15.84 468.09483 
L 19.008 464.680405 
L 22.176 462.788738 
L 25.344 462.855577 
L 28.512 463.63266 
L 31.68 462.564776 
L 34.848 462.613151 
L 38.016 461.930179 
L 41.184 460.964426 
L 44.352 461.620024 
L 47.52 464.239623 
L 50.688 465.322794 
L 53.856 463.836603 
L 57.024 462.737073 
L 60.192 464.238725 
L 63.36 466.217588 
L 66.528 469.33548 
L 69.696 474.33781 
L 72.864 476.097644 
L 76.032 476.896022 
L 79.2 474.529217 
L 82.368 473.154861 
L 85.536 471.428287 
L 88.704 472.175158 
L 91.872 472.75306 
L 95.04 474.787703 
L 98.208 475.258727 
L 101.376 473.92294 
L 104.544 473.98712 
L 107.712 476.109406 
L 110.88 479.003097 
L 114.048 479.327316 
L 117.216 477.69519 
L 120.384 475.013697 
L 123.552 471.488988 
L 126.72 468.236465 
L 129.888 462.424417 
L 133.056 456.196147 
L 136.224 444.816125 
L 139.392 437.229422 
L 142.56 420.147225 
L 145.728 407.006839 
L 148.896 398.572326 
L 155.232 391.442457 
L 158.4 380.319894 
L 161.568 380.107026 
L 164.736 386.396113 
L 167.904 389.251651 
L 171.072 395.808361 
L 174.24 407.568604 
L 177.408 414.3524 
L 180.576 414.104425 
L 183.744 419.310398 
L 186.912 420.22535 
L 190.08 417.431245 
L 193.248 422.84411 
L 196.416 422.123762 
L 199.584 422.147697 
L 202.752 423.172106 
L 205.92 441.486092 
L 209.088 453.767755 
L 212.256 460.336833 
L 215.424 462.833356 
L 218.592 463.043657 
L 221.76 462.881598 
L 224.928 460.65915 
L 228.096 462.928248 
L 231.264 464.908052 
L 234.432 470.100265 
L 237.6 473.149874 
L 240.768 478.504963 
L 243.936 482.572199 
L 247.104 483.442721 
L 250.272 486.244587 
L 253.44 486.423486 
L 256.608 489.0333 
L 259.776 490.898547 
L 262.944 494.418245 
L 266.112 496.373168 
L 269.28 500.022619 
L 272.448 501.122647 
L 275.616 499.541711 
L 278.784 495.898183 
L 281.952 493.387137 
L 285.12 492.461656 
L 288.288 490.134957 
L 291.456 491.932653 
L 294.624 492.657017 
L 297.792 493.088552 
L 300.96 492.95268 
L 304.128 493.177108 
L 307.296 494.411538 
L 310.464 497.677431 
L 313.632 499.230778 
L 316.8 498.573791 
L 319.968 500.988364 
L 323.136 502.170359 
L 326.304 500.07229 
L 329.472 498.736406 
L 332.64 497.939559 
L 335.808 495.828606 
L 338.976 494.457127 
L 342.144 495.253066 
L 345.312 496.423178 
L 348.48 497.834315 
L 351.648 498.428934 
L 354.816 498.004999 
L 357.984 497.895457 
L 361.152 495.949615 
L 364.32 493.673945 
L 370.656 495.179638 
L 373.824 495.118248 
L 376.992 494.902027 
L 383.328 494.133844 
L 389.664 492.190286 
L 392.832 487.982026 
L 396 484.927057 
L 399.168 483.317511 
L 402.336 483.569807 
L 405.504 481.435324 
L 408.672 479.042904 
L 411.84 475.000206 
L 415.008 472.126247 
L 418.176 469.604383 
L 421.344 466.832142 
L 424.512 464.69562 
L 427.68 466.154825 
L 430.848 466.861108 
L 434.016 468.389726 
L 437.184 467.872729 
L 440.352 468.630081 
L 443.52 467.234674 
L 446.688 464.900072 
L 449.856 463.647642 
L 453.024 463.128131 
L 456.192 462.93382 
L 459.36 463.699635 
L 462.528 465.231398 
L 465.696 465.365481 
L 468.864 465.367838 
L 472.032 465.522843 
L 478.368 468.151078 
L 481.536 470.147191 
L 484.704 471.857945 
L 487.872 472.848942 
L 491.04 474.553911 
L 494.208 475.156131 
L 497.376 474.240482 
L 500.544 472.784567 
L 506.88 467.754646 
L 510.048 467.776277 
L 513.216 466.266841 
L 516.384 465.037775 
L 519.552 464.227113 
L 522.72 462.823195 
L 525.888 461.875294 
L 529.056 462.354005 
L 532.224 464.460431 
L 535.392 467.873057 
L 538.56 470.188342 
L 541.728 470.815848 
L 544.896 470.555195 
L 548.064 473.220574 
L 551.232 475.538 
L 554.4 480.498655 
L 557.568 482.987383 
L 560.736 485.992631 
L 563.904 488.512535 
L 567.072 492.480588 
L 573.408 498.23806 
L 576.576 500.206468 
L 579.744 500.943692 
L 582.912 503.885989 
L 586.08 503.875012 
L 589.248 503.745731 
L 592.416 503.389765 
L 595.584 505.282848 
L 598.752 505.571262 
L 601.92 506.236469 
L 608.256 503.93187 
L 611.424 503.054874 
L 614.592 501.93545 
L 617.76 501.277582 
L 620.928 500.771702 
L 624.096 502.273719 
L 627.264 503.288335 
L 630.432 505.146087 
L 636.768 510.793397 
L 639.936 514.788401 
L 643.104 515.708867 
L 646.272 515.589468 
L 649.44 516.237621 
L 652.608 516.190546 
L 655.776 517.25202 
L 662.112 519.897237 
L 665.28 522.641114 
L 668.448 524.28472 
L 671.616 523.518387 
L 674.784 523.018572 
L 677.952 522.656628 
L 681.12 522.69956 
L 684.288 520.711159 
L 687.456 519.301871 
L 690.624 518.274362 
L 696.96 520.505885 
L 700.128 522.154781 
L 703.296 523.409768 
L 706.464 523.478781 
L 709.632 525.155196 
L 715.968 529.473191 
L 719.136 530.859374 
L 722.304 532.926809 
L 725.472 534.440758 
L 728.64 537.262961 
L 731.808 539.290753 
L 734.976 542.505896 
L 738.144 545.098617 
L 741.312 548.971029 
L 744.48 551.178305 
L 747.648 551.415516 
L 750.816 551.382604 
L 753.984 553.54746 
L 757.152 554.277438 
L 760.32 555.266153 
L 763.488 555.566649 
L 766.656 554.802998 
L 769.824 554.397022 
L 772.992 553.471545 
L 776.16 552.767587 
L 779.328 552.431316 
L 782.496 550.874229 
L 785.664 550.159561 
L 788.832 549.886617 
L 788.832 549.886617 
" clip-path="url(#p929aec5fc6)" style="fill: none; stroke: #000000; stroke-width: 1.5; stroke-linecap: square"/>
   </g>
   <g id="line2d_4">
    <path d="M 0 459 
L 3.168 459 
L 6.336 460.037556 
L 9.504 459.151913 
L 12.672 464.385186 
L 15.84 466.684348 
L 19.008 464.520977 
L 22.176 463.223993 
L 25.344 463.177044 
L 28.512 463.623145 
L 31.68 462.942349 
L 34.848 462.901971 
L 38.016 462.43208 
L 41.184 461.763093 
L 44.352 462.011309 
L 47.52 463.472822 
L 50.688 464.228124 
L 57.024 462.980877 
L 60.192 463.781283 
L 63.36 464.968985 
L 66.528 466.909774 
L 69.696 470.065043 
L 72.864 471.718143 
L 76.032 472.856583 
L 79.2 472.202874 
L 82.368 471.816111 
L 85.536 471.08157 
L 91.872 471.945955 
L 95.04 473.176146 
L 98.208 473.687136 
L 101.376 473.207967 
L 104.544 473.357362 
L 107.712 474.609899 
L 110.88 476.426635 
L 114.048 477.009819 
L 117.216 476.494498 
L 120.384 475.246634 
L 126.72 471.261857 
L 129.888 467.625451 
L 136.224 461.36391 
L 139.392 458.603831 
L 142.56 445.911867 
L 145.728 434.639362 
L 148.896 425.606434 
L 152.064 419.316597 
L 155.232 413.507534 
L 158.4 403.899096 
L 161.568 400.040474 
L 164.736 400.319583 
L 167.904 399.6527 
L 171.072 401.538292 
L 174.24 406.989551 
L 177.408 410.729348 
L 180.576 411.13323 
L 183.744 414.388154 
L 186.912 415.625898 
L 190.08 414.789004 
L 193.248 418.068156 
L 196.416 418.346579 
L 199.584 418.877789 
L 202.752 419.88681 
L 205.92 430.26318 
L 209.088 438.597492 
L 212.256 445.924191 
L 215.424 452.633455 
L 218.592 455.751693 
L 221.76 457.887059 
L 224.928 456.273378 
L 228.096 459.725551 
L 231.264 461.307655 
L 234.432 464.702422 
L 237.6 467.218816 
L 240.768 471.069627 
L 243.936 474.473763 
L 247.104 476.244451 
L 250.272 478.920861 
L 253.44 480.191442 
L 256.608 482.622037 
L 259.776 484.682413 
L 262.944 487.605311 
L 266.112 489.769179 
L 269.28 492.818169 
L 272.448 494.573906 
L 275.616 494.759441 
L 278.784 493.552771 
L 281.952 492.577987 
L 285.12 492.224304 
L 288.288 491.019137 
L 291.456 491.885188 
L 294.624 492.311802 
L 297.792 492.625695 
L 300.96 492.654341 
L 304.128 492.847985 
L 307.296 493.588012 
L 310.464 495.510782 
L 313.632 496.721229 
L 316.8 496.783725 
L 319.968 498.408364 
L 323.136 499.486635 
L 326.304 498.799062 
L 329.472 498.287632 
L 332.64 497.9372 
L 335.808 496.795675 
L 338.976 495.899376 
L 342.144 496.105399 
L 345.312 496.606763 
L 348.48 497.349535 
L 351.648 497.749544 
L 354.816 497.63171 
L 357.984 497.632943 
L 361.152 496.624086 
L 364.32 495.280727 
L 370.656 495.681537 
L 376.992 495.379658 
L 383.328 494.80264 
L 389.664 493.484844 
L 392.832 490.993464 
L 396 488.857847 
L 399.168 487.362558 
L 402.336 486.860526 
L 405.504 485.179525 
L 408.672 483.284368 
L 411.84 480.404619 
L 421.344 473.195899 
L 424.512 471.01657 
L 427.68 470.803153 
L 430.848 470.446024 
L 434.016 470.70433 
L 437.184 470.055283 
L 440.352 470.118641 
L 443.52 469.111776 
L 446.688 467.531463 
L 449.856 466.418925 
L 453.024 465.686067 
L 456.192 465.160681 
L 459.36 465.20724 
L 462.528 465.783248 
L 472.032 465.685783 
L 475.2 466.32682 
L 478.368 467.124042 
L 484.704 469.557333 
L 487.872 470.446654 
L 491.04 471.74298 
L 494.208 472.508622 
L 497.376 472.421039 
L 500.544 471.907904 
L 503.712 470.652021 
L 506.88 469.227199 
L 510.048 468.999804 
L 516.384 467.04628 
L 519.552 466.287432 
L 522.72 465.20049 
L 525.888 464.313666 
L 529.056 464.186786 
L 532.224 465.04334 
L 535.392 466.80676 
L 538.56 468.239402 
L 541.728 468.895412 
L 544.896 469.067256 
L 551.232 472.415463 
L 554.4 475.608295 
L 557.568 477.737802 
L 560.736 480.206919 
L 563.904 482.492382 
L 567.072 485.603463 
L 573.408 490.944703 
L 576.576 493.168012 
L 579.744 494.683405 
L 582.912 497.274382 
L 586.08 498.320435 
L 589.248 499.134315 
L 592.416 499.670722 
L 595.584 501.286661 
L 598.752 502.083909 
L 601.92 503.007502 
L 605.088 502.90679 
L 611.424 502.392139 
L 614.592 501.909353 
L 620.928 501.282669 
L 624.096 502.045794 
L 627.264 502.661385 
L 630.432 503.794643 
L 633.6 505.562913 
L 636.768 507.501418 
L 639.936 510.212514 
L 643.104 511.459318 
L 646.272 512.095376 
L 649.44 513.019942 
L 652.608 513.522943 
L 655.776 514.530128 
L 662.112 516.869725 
L 665.28 518.844884 
L 668.448 520.34033 
L 681.12 521.220689 
L 684.288 520.378293 
L 690.624 519.070045 
L 693.792 519.540782 
L 696.96 520.139408 
L 703.296 521.955276 
L 706.464 522.235112 
L 709.632 523.356406 
L 715.968 526.417643 
L 719.136 527.674532 
L 722.304 529.318051 
L 725.472 530.724506 
L 728.64 532.858808 
L 731.808 534.669253 
L 734.976 537.151792 
L 738.144 539.411004 
L 741.312 542.414152 
L 744.48 544.658944 
L 747.648 545.830027 
L 750.816 546.706028 
L 753.984 548.632527 
L 760.32 551.065512 
L 763.488 551.903008 
L 769.824 552.291842 
L 776.16 551.97474 
L 779.328 551.932112 
L 782.496 551.179028 
L 785.664 550.763672 
L 788.832 550.541322 
L 788.832 550.541322 
" clip-path="url(#p929aec5fc6)" style="fill: none; stroke: #000000; stroke-width: 1.5; stroke-linecap: square"/>
   </g>
   <g id="line2d_5">
    <path d="M 0 459 
L 3.168 459 
L 6.336 459.996363 
L 9.504 459.193061 
L 12.672 463.841671 
L 15.84 465.947011 
L 19.008 464.298427 
L 22.176 463.293576 
L 25.344 463.245289 
L 28.512 463.574234 
L 31.68 463.076786 
L 34.848 463.029443 
L 38.016 462.681298 
L 41.184 462.188574 
L 44.352 462.306297 
L 47.52 463.242881 
L 50.688 463.760828 
L 57.024 463.0357 
L 60.192 463.528083 
L 63.36 464.282696 
L 66.528 465.527198 
L 69.696 467.55259 
L 72.864 468.773907 
L 76.032 469.721272 
L 85.536 469.4291 
L 91.872 470.222198 
L 95.04 471.066173 
L 98.208 471.538825 
L 101.376 471.463433 
L 104.544 471.694485 
L 107.712 472.522827 
L 110.88 473.690876 
L 114.048 474.245189 
L 117.216 474.203822 
L 120.384 473.721586 
L 123.552 472.80439 
L 126.72 471.74646 
L 133.056 467.871639 
L 136.224 465.943136 
L 139.392 464.22791 
L 145.728 458.869396 
L 148.896 452.047485 
L 155.232 441.129018 
L 158.4 433.706066 
L 161.568 429.163836 
L 164.736 426.886529 
L 167.904 424.330862 
L 171.072 423.298695 
L 174.24 424.389258 
L 177.408 424.936085 
L 180.576 423.983314 
L 183.744 424.643256 
L 186.912 424.457301 
L 190.08 423.309135 
L 193.248 424.343464 
L 196.416 423.998659 
L 199.584 423.834893 
L 202.752 423.973055 
L 205.92 429.063517 
L 209.088 433.527085 
L 215.424 441.966923 
L 218.592 444.47763 
L 221.76 446.536342 
L 224.928 446.64095 
L 231.264 453.380832 
L 234.432 459.240652 
L 237.6 461.000921 
L 243.936 465.914705 
L 247.104 467.538305 
L 250.272 469.644494 
L 253.44 471.066383 
L 256.608 473.082957 
L 259.776 474.937561 
L 262.944 477.25956 
L 266.112 479.236882 
L 269.28 481.688895 
L 272.448 483.514455 
L 275.616 484.519749 
L 281.952 484.946235 
L 285.12 485.388682 
L 288.288 485.320679 
L 291.456 486.235288 
L 297.792 487.519673 
L 304.128 488.432838 
L 307.296 489.183268 
L 310.464 490.547239 
L 313.632 491.584669 
L 316.8 492.039897 
L 319.968 493.277747 
L 323.136 494.264028 
L 332.64 494.585659 
L 338.976 494.032417 
L 342.144 494.309651 
L 345.312 494.739708 
L 348.48 495.2998 
L 351.648 495.698374 
L 357.984 495.994804 
L 361.152 495.627843 
L 364.32 495.032651 
L 373.824 495.319277 
L 380.16 495.125234 
L 383.328 494.987935 
L 389.664 494.27017 
L 396 491.662637 
L 399.168 490.665478 
L 402.336 490.144429 
L 405.504 489.009921 
L 408.672 487.713034 
L 411.84 485.855805 
L 418.176 482.443841 
L 424.512 478.865787 
L 430.848 477.331545 
L 434.016 476.90341 
L 437.184 476.053014 
L 440.352 475.591772 
L 443.52 474.614226 
L 446.688 473.335456 
L 449.856 472.278546 
L 453.024 471.412209 
L 456.192 470.666237 
L 459.36 470.234368 
L 462.528 470.116313 
L 472.032 469.05905 
L 475.2 469.110676 
L 478.368 469.29511 
L 487.872 470.676636 
L 491.04 471.335513 
L 494.208 471.762752 
L 497.376 471.773514 
L 500.544 471.554835 
L 503.712 470.926281 
L 506.88 470.154624 
L 510.048 469.951213 
L 525.888 466.769921 
L 529.056 466.491662 
L 532.224 466.738458 
L 538.56 468.191062 
L 541.728 468.53058 
L 544.896 468.639679 
L 551.232 470.496392 
L 554.4 472.308872 
L 557.568 473.68235 
L 563.904 476.888974 
L 567.072 478.969582 
L 576.576 484.71573 
L 579.744 486.200264 
L 582.912 488.249862 
L 586.08 489.538899 
L 589.248 490.687209 
L 592.416 491.664452 
L 595.584 493.171454 
L 601.92 495.386903 
L 605.088 495.960288 
L 611.424 496.780619 
L 620.928 497.434399 
L 627.264 498.795911 
L 630.432 499.705862 
L 633.6 500.967922 
L 636.768 502.361788 
L 639.936 504.20554 
L 643.104 505.355079 
L 646.272 506.195467 
L 649.44 507.174037 
L 652.608 507.928249 
L 658.944 509.998569 
L 662.112 511.10195 
L 665.28 512.619306 
L 668.448 513.927887 
L 674.784 515.194565 
L 681.12 516.350614 
L 690.624 516.27867 
L 696.96 517.317188 
L 703.296 518.774352 
L 706.464 519.196743 
L 709.632 520.046651 
L 719.136 523.264571 
L 725.472 525.648712 
L 731.808 528.627544 
L 738.144 532.187862 
L 741.312 534.369747 
L 744.48 536.223204 
L 747.648 537.548982 
L 750.816 538.705649 
L 753.984 540.38598 
L 760.32 543.032898 
L 763.488 544.146187 
L 769.824 545.608857 
L 779.328 546.948415 
L 785.664 547.109603 
L 788.832 547.300847 
L 788.832 547.300847 
" clip-path="url(#p929aec5fc6)" style="fill: none; stroke: #000000; stroke-width: 1.5; stroke-linecap: square"/>
   </g>
   <g id="line2d_6">
    <path d="M 0 459 
L 3.168 459 
L 6.336 459.975699 
L 9.504 459.212199 
L 12.672 463.578572 
L 15.84 465.57733 
L 19.008 464.154279 
L 22.176 463.285302 
L 25.344 463.244392 
L 28.512 463.526325 
L 31.68 463.113221 
L 34.848 463.069945 
L 38.016 462.782121 
L 41.184 462.377182 
L 44.352 462.452523 
L 47.52 463.167792 
L 50.688 463.571033 
L 57.024 463.04869 
L 60.192 463.409666 
L 63.36 463.96588 
L 66.528 464.880051 
L 69.696 466.358236 
L 72.864 467.292736 
L 76.032 468.044918 
L 85.536 468.141514 
L 91.872 468.822209 
L 95.04 469.452474 
L 98.208 469.849539 
L 101.376 469.896892 
L 104.544 470.130497 
L 107.712 470.736674 
L 110.88 471.561363 
L 114.048 472.018366 
L 117.216 472.111187 
L 120.384 471.927266 
L 126.72 470.898537 
L 139.392 466.376257 
L 145.728 463.046456 
L 148.896 461.533679 
L 155.232 458.850052 
L 158.4 453.765304 
L 161.568 450.225297 
L 164.736 447.935131 
L 167.904 445.497674 
L 171.072 443.921655 
L 174.24 443.567771 
L 177.408 442.979465 
L 180.576 441.612054 
L 183.744 441.163167 
L 186.912 440.299721 
L 190.08 438.940211 
L 193.248 438.793608 
L 196.416 437.946233 
L 199.584 437.223132 
L 202.752 436.691948 
L 205.92 438.886563 
L 215.424 444.867828 
L 218.592 446.094105 
L 221.76 447.124772 
L 224.928 447.156479 
L 231.264 450.774348 
L 234.432 454.253385 
L 237.6 457.291783 
L 240.768 459.875447 
L 243.936 461.297818 
L 247.104 462.355286 
L 250.272 463.690803 
L 253.44 464.697911 
L 259.776 467.309207 
L 262.944 468.855386 
L 266.112 470.253529 
L 269.28 471.923692 
L 272.448 473.300553 
L 275.616 474.266875 
L 288.288 476.368425 
L 291.456 477.227429 
L 297.792 478.664175 
L 304.128 479.887212 
L 307.296 480.640254 
L 310.464 481.710488 
L 313.632 482.624794 
L 316.8 483.242509 
L 319.968 484.255062 
L 323.136 485.146097 
L 332.64 486.421919 
L 338.976 486.799687 
L 345.312 487.756234 
L 351.648 488.823433 
L 357.984 489.532802 
L 361.152 489.608594 
L 364.32 489.550075 
L 373.824 490.351598 
L 383.328 490.762895 
L 389.664 490.726157 
L 396 489.645572 
L 399.168 489.214309 
L 402.336 489.002553 
L 408.672 487.826677 
L 421.344 483.961208 
L 424.512 482.931898 
L 430.848 481.795468 
L 434.016 481.388206 
L 437.184 480.767384 
L 440.352 480.33483 
L 443.52 479.639523 
L 449.856 478.011825 
L 456.192 476.701081 
L 459.36 476.230428 
L 462.528 475.921762 
L 472.032 474.66636 
L 478.368 474.327935 
L 487.872 474.457363 
L 494.208 474.718522 
L 497.376 474.602081 
L 500.544 474.372856 
L 506.88 473.41708 
L 510.048 473.178728 
L 529.056 470.513841 
L 532.224 470.475208 
L 538.56 470.937834 
L 544.896 470.961935 
L 551.232 471.758737 
L 554.4 472.642359 
L 557.568 473.340183 
L 563.904 475.061558 
L 576.576 479.628557 
L 579.744 480.609718 
L 582.912 481.901028 
L 589.248 483.714427 
L 592.416 484.516415 
L 595.584 485.595115 
L 601.92 487.38796 
L 608.256 488.590631 
L 614.592 489.551713 
L 620.928 490.398182 
L 630.432 492.460013 
L 636.768 494.444768 
L 639.936 495.71964 
L 643.104 496.664995 
L 652.608 499.079444 
L 662.112 501.828404 
L 668.448 504.062744 
L 677.952 506.218786 
L 681.12 506.924245 
L 690.624 508.02878 
L 696.96 509.249842 
L 703.296 510.671546 
L 706.464 511.226104 
L 712.8 512.870851 
L 725.472 516.610544 
L 731.808 518.902028 
L 738.144 521.558051 
L 741.312 523.120804 
L 744.48 524.541401 
L 753.984 528.15877 
L 763.488 531.647499 
L 769.824 533.45023 
L 779.328 535.648352 
L 788.832 537.215198 
L 788.832 537.215198 
" clip-path="url(#p929aec5fc6)" style="fill: none; stroke: #000000; stroke-width: 1.5; stroke-linecap: square"/>
   </g>
   <g id="line2d_7">
    <path d="M 0 459 
L 3.168 459 
L 6.336 459.965359 
L 9.504 459.22139 
L 12.672 463.44952 
L 15.84 465.393173 
L 19.008 464.074744 
L 22.176 463.27026 
L 25.344 463.234222 
L 28.512 463.4952 
L 31.68 463.12171 
L 34.848 463.081744 
L 41.184 462.46033 
L 44.352 462.519715 
L 47.52 463.137255 
L 50.688 463.487404 
L 57.024 463.050993 
L 60.192 463.35418 
L 63.36 463.820964 
L 66.528 464.584669 
L 69.696 465.812357 
L 72.864 466.601466 
L 76.032 467.244215 
L 85.536 467.437274 
L 91.872 468.034457 
L 95.04 468.554651 
L 98.208 468.89721 
L 101.376 468.973922 
L 104.544 469.188483 
L 107.712 469.680274 
L 110.88 470.33497 
L 114.048 470.72038 
L 117.216 470.83879 
L 120.384 470.753626 
L 126.72 470.094057 
L 139.392 466.938012 
L 148.896 463.479762 
L 155.232 461.57758 
L 158.4 460.345744 
L 164.736 458.50282 
L 167.904 456.547166 
L 171.072 455.158883 
L 174.24 454.579441 
L 177.408 453.857367 
L 180.576 452.635282 
L 183.744 452.013065 
L 186.912 451.131906 
L 190.08 449.936916 
L 193.248 449.521328 
L 199.584 447.900716 
L 202.752 447.259282 
L 209.088 449.315868 
L 215.424 451.365837 
L 221.76 452.420452 
L 224.928 452.295376 
L 231.264 454.248947 
L 234.432 456.268337 
L 237.6 458.052804 
L 240.768 459.54856 
L 243.936 460.411696 
L 247.104 461.068105 
L 250.272 461.898694 
L 253.44 462.54433 
L 259.776 464.213957 
L 272.448 468.125929 
L 275.616 468.819255 
L 288.288 470.594847 
L 294.624 471.804227 
L 307.296 473.948423 
L 313.632 475.402945 
L 316.8 475.925717 
L 323.136 477.353784 
L 332.64 478.626142 
L 338.976 479.204652 
L 348.48 480.592941 
L 354.816 481.420493 
L 357.984 481.800717 
L 367.488 482.498953 
L 373.824 483.118525 
L 383.328 483.837607 
L 389.664 484.133363 
L 399.168 483.744906 
L 402.336 483.75624 
L 408.672 483.353883 
L 421.344 481.616202 
L 424.512 481.118772 
L 443.52 479.512724 
L 449.856 478.646493 
L 456.192 477.91889 
L 468.864 476.920456 
L 475.2 476.521065 
L 481.536 476.374987 
L 497.376 476.29723 
L 503.712 475.874155 
L 506.88 475.561829 
L 513.216 475.109211 
L 529.056 473.663218 
L 532.224 473.573073 
L 541.728 473.647073 
L 544.896 473.565937 
L 551.232 473.86095 
L 567.072 475.999425 
L 579.744 478.33602 
L 582.912 479.045428 
L 605.088 482.765786 
L 614.592 483.892312 
L 624.096 485.032668 
L 630.432 486.006328 
L 636.768 487.301966 
L 639.936 488.105961 
L 649.44 489.94353 
L 655.776 491.142978 
L 662.112 492.48009 
L 668.448 494.029154 
L 681.12 496.369549 
L 693.792 498.134267 
L 706.464 500.369332 
L 712.8 501.673124 
L 725.472 504.559594 
L 734.976 507.191683 
L 738.144 508.141213 
L 744.48 510.236305 
L 757.152 513.927791 
L 763.488 515.758013 
L 772.992 518.078864 
L 779.328 519.494475 
L 788.832 521.31352 
L 788.832 521.31352 
" clip-path="url(#p929aec5fc6)" style="fill: none; stroke: #000000; stroke-width: 1.5; stroke-linecap: square"/>
   </g>
   <g id="line2d_8">
    <path d="M 0 459 
L 3.168 459 
L 6.336 459.960188 
L 9.504 459.225889 
L 12.672 463.385657 
L 15.84 465.301381 
L 19.008 464.033228 
L 22.176 463.26004 
L 25.344 463.226637 
L 28.512 463.477723 
L 31.68 463.123317 
L 34.848 463.085238 
L 41.184 462.4985 
L 44.352 462.551084 
L 47.52 463.123164 
L 50.688 463.448158 
L 57.024 463.050888 
L 60.192 463.327375 
L 63.36 463.752469 
L 66.528 464.445837 
L 69.696 465.556381 
L 72.864 466.274799 
L 76.032 466.862442 
L 85.536 467.08262 
L 91.872 467.633076 
L 95.04 468.099128 
L 98.208 468.411636 
L 101.376 468.495327 
L 104.544 468.695792 
L 107.712 469.131317 
L 110.88 469.704465 
L 114.048 470.050441 
L 117.216 470.171696 
L 120.384 470.121814 
L 126.72 469.611239 
L 139.392 467.053585 
L 148.896 464.230985 
L 155.232 462.665177 
L 158.4 461.657585 
L 161.568 460.916809 
L 171.072 459.439039 
L 177.408 459.01939 
L 180.576 457.990673 
L 183.744 457.387196 
L 186.912 456.587648 
L 190.08 455.549985 
L 193.248 455.107972 
L 199.584 453.632095 
L 202.752 453.024689 
L 209.088 454.331661 
L 215.424 455.657634 
L 221.76 456.267827 
L 224.928 456.098538 
L 231.264 457.384374 
L 234.432 458.793846 
L 240.768 459.959257 
L 243.936 460.5738 
L 247.104 461.042499 
L 250.272 461.637989 
L 253.44 462.103864 
L 262.944 464.027875 
L 266.112 464.693956 
L 272.448 466.158849 
L 275.616 466.677956 
L 291.456 468.55009 
L 310.464 471.224062 
L 323.136 473.237362 
L 335.808 474.544259 
L 342.144 475.153897 
L 357.984 476.931525 
L 370.656 477.894492 
L 383.328 478.831639 
L 389.664 479.166371 
L 399.168 479.131585 
L 402.336 479.205224 
L 408.672 479.081366 
L 421.344 478.222114 
L 424.512 477.961217 
L 443.52 477.206795 
L 453.024 476.535639 
L 459.36 476.198049 
L 468.864 475.81562 
L 475.2 475.603194 
L 484.704 475.545019 
L 500.544 475.463907 
L 532.224 473.973091 
L 541.728 474.001941 
L 544.896 473.950296 
L 551.232 474.112238 
L 567.072 475.349645 
L 579.744 476.739586 
L 586.08 477.495623 
L 611.424 480.021805 
L 624.096 481.036411 
L 630.432 481.682135 
L 636.768 482.515545 
L 643.104 483.445354 
L 655.776 485.047647 
L 665.28 486.458192 
L 671.616 487.372774 
L 684.288 488.927521 
L 693.792 489.949661 
L 709.632 492.018658 
L 725.472 494.518904 
L 734.976 496.313256 
L 741.312 497.672272 
L 747.648 498.983423 
L 753.984 500.281157 
L 766.656 502.811434 
L 776.16 504.497535 
L 785.664 506.02544 
L 788.832 506.524548 
L 788.832 506.524548 
" clip-path="url(#p929aec5fc6)" style="fill: none; stroke: #000000; stroke-width: 1.5; stroke-linecap: square"/>
   </g>
   <g id="line2d_9">
    <path d="M 0 459 
L 3.168 459 
L 6.336 459.957602 
L 9.504 459.228114 
L 12.672 463.353896 
L 15.84 465.255572 
L 19.008 464.01205 
L 22.176 463.254262 
L 25.344 463.222215 
L 28.512 463.468495 
L 31.68 463.123441 
L 34.848 463.08635 
L 41.184 462.516663 
L 44.352 462.566121 
L 47.52 463.116333 
L 50.688 463.429128 
L 57.024 463.050487 
L 60.192 463.314192 
L 63.36 463.719254 
L 66.528 464.378801 
L 69.696 465.433044 
L 72.864 466.116915 
L 76.032 466.67724 
L 85.536 466.906386 
L 91.872 467.432653 
L 95.04 467.872149 
L 98.208 468.169223 
L 104.544 468.447195 
L 107.712 468.855165 
L 110.88 469.38889 
L 114.048 469.714702 
L 117.216 469.835234 
L 120.384 469.799639 
L 126.72 469.3543 
L 139.392 467.069703 
L 148.896 464.54277 
L 155.232 463.137595 
L 158.4 462.236343 
L 161.568 461.570234 
L 171.072 460.227409 
L 177.408 459.828309 
L 180.576 459.502441 
L 186.912 459.063652 
L 190.08 458.244086 
L 193.248 457.811472 
L 199.584 456.441109 
L 202.752 455.869396 
L 215.424 457.922729 
L 221.76 458.362274 
L 224.928 458.184176 
L 231.264 459.065653 
L 240.768 460.291288 
L 243.936 460.797185 
L 253.44 462.058178 
L 262.944 463.648139 
L 275.616 465.8462 
L 291.456 467.426875 
L 316.8 470.450553 
L 323.136 471.350795 
L 335.808 472.476343 
L 342.144 473.003682 
L 357.984 474.519033 
L 373.824 475.597977 
L 386.496 476.368813 
L 389.664 476.518499 
L 408.672 476.622858 
L 421.344 476.080337 
L 427.68 475.844759 
L 446.688 475.306784 
L 459.36 474.810167 
L 484.704 474.432337 
L 500.544 474.426397 
L 535.392 473.467825 
L 551.232 473.568966 
L 567.072 474.456146 
L 592.416 476.446258 
L 601.92 477.234087 
L 617.76 478.192305 
L 627.264 478.81824 
L 636.768 479.672696 
L 643.104 480.341881 
L 658.944 481.834413 
L 684.288 484.363915 
L 696.96 485.437763 
L 715.968 487.400514 
L 728.64 488.938971 
L 738.144 490.277845 
L 747.648 491.733766 
L 760.32 493.622228 
L 772.992 495.369025 
L 788.832 497.321082 
L 788.832 497.321082 
" clip-path="url(#p929aec5fc6)" style="fill: none; stroke: #000000; stroke-width: 1.5; stroke-linecap: square"/>
   </g>
  </g>
 </g>
 <defs>
  <clipPath id="p929aec5fc6">
   <rect x="0" y="0" width="792" height="612"/>
  </clipPath>
 </defs>
</svg>
