<?xml version="1.0" encoding="utf-8" standalone="no"?>
<!DOCTYPE svg PUBLIC "-//W3C//DTD SVG 1.1//EN"
  "http://www.w3.org/Graphics/SVG/1.1/DTD/svg11.dtd">
<svg xmlns:xlink="http://www.w3.org/1999/xlink" width="792pt" height="612pt" viewBox="0 0 792 612" xmlns="http://www.w3.org/2000/svg" version="1.1">
 <metadata>
  <rdf:RDF xmlns:dc="http://purl.org/dc/elements/1.1/" xmlns:cc="http://creativecommons.org/ns#" xmlns:rdf="http://www.w3.org/1999/02/22-rdf-syntax-ns#">
   <cc:Work>
    <dc:type rdf:resource="http://purl.org/dc/dcmitype/StillImage"/>
    <dc:date>2023-01-02T15:39:28.008277</dc:date>
    <dc:format>image/svg+xml</dc:format>
    <dc:creator>
     <cc:Agent>
      <dc:title>Matplotlib v3.6.2, https://matplotlib.org/</dc:title>
     </cc:Agent>
    </dc:creator>
   </cc:Work>
  </rdf:RDF>
 </metadata>
 <defs>
  <style type="text/css">*{stroke-linejoin: round; stroke-linecap: butt}</style>
 </defs>
 <g id="figure_1">
  <g id="patch_1">
   <path d="M 0 612 
L 792 612 
L 792 0 
L 0 0 
z
" style="fill: #ffffff"/>
  </g>
  <g id="axes_1">
   <g id="line2d_1">
    <path d="M 0 459 
L 3.155378 465.400345 
L 6.310757 473.239142 
L 9.466135 476.22699 
L 12.621514 481.039682 
L 15.776892 477.064811 
L 18.932271 476.265246 
L 22.087649 470.932263 
L 25.243028 480.454355 
L 28.398406 478.151301 
L 31.553785 480.588253 
L 34.709163 485.033681 
L 37.864542 484.953342 
L 41.01992 491.632961 
L 44.175299 493.404246 
L 47.330677 494.88478 
L 50.486056 492.459305 
L 53.641434 506.269972 
L 56.796813 504.070212 
L 59.952191 492.547296 
L 63.10757 493.243568 
L 66.262948 496.506864 
L 69.418327 498.358488 
L 72.573705 494.25737 
L 75.729084 496.292626 
L 78.884462 494.425699 
L 82.039841 493.147926 
L 85.195219 496.648413 
L 88.350598 502.329533 
L 91.505976 500.321056 
L 94.661355 494.368314 
L 97.816733 494.245893 
L 100.972112 500.244543 
L 104.12749 502.715925 
L 107.282869 507.237867 
L 110.438247 514.567849 
L 113.593625 509.88523 
L 116.749004 508.722226 
L 119.904382 501.002025 
L 123.059761 501.774811 
L 126.215139 499.793114 
L 129.370518 504.97307 
L 132.525896 505.099317 
L 135.681275 509.39937 
L 138.836653 506.870602 
L 141.992032 502.463431 
L 145.14741 505.099317 
L 148.302789 510.57385 
L 151.458167 514.269447 
L 154.613546 509.739854 
L 157.768924 504.850649 
L 160.924303 500.852824 
L 164.079681 496.541295 
L 167.23506 494.532818 
L 170.390438 485.244093 
L 173.545817 484.589903 
L 176.701195 482.703848 
L 179.856574 483.120846 
L 183.011952 472.764759 
L 186.167331 471.781562 
L 189.322709 472.493136 
L 192.478088 474.581952 
L 195.633466 473.690571 
L 198.788845 465.928287 
L 201.944223 472.841272 
L 205.099602 478.640987 
L 208.25498 477.175756 
L 211.410359 481.22714 
L 214.565737 487.547146 
L 217.721116 486.143125 
L 220.876494 481.625009 
L 224.031873 486.391794 
L 227.187251 483.931888 
L 230.342629 480.886655 
L 233.498008 487.386468 
L 236.653386 483.358038 
L 239.808765 483.832421 
L 242.964143 484.731453 
L 246.119522 500.236891 
L 249.2749 499.586528 
L 252.430279 500.099167 
L 255.585657 500.959943 
L 258.741036 496.855 
L 261.896414 496.051609 
L 265.051793 490.519691 
L 268.207171 500.638587 
L 271.36255 501.610307 
L 274.517928 511.62591 
L 277.673307 509.977046 
L 280.828685 518.397345 
L 283.984064 519.162478 
L 287.139442 513.860101 
L 290.294821 519.625384 
L 293.450199 514.877729 
L 296.605578 521.48466 
L 299.760956 521.534394 
L 302.916335 527.337934 
L 306.071713 525.933913 
L 309.227092 531.894307 
L 312.38247 527.988298 
L 315.537849 521.748631 
L 318.693227 515.130223 
L 321.848606 515.306204 
L 325.003984 517.586303 
L 328.159363 513.17148 
L 331.314741 522.280399 
L 334.47012 520.841947 
L 337.625498 520.608582 
L 340.780876 519.468532 
L 343.936255 520.294877 
L 347.091633 523.156477 
L 350.247012 529.465006 
L 353.40239 527.494787 
L 356.557769 522.861901 
L 359.713147 530.474983 
L 362.868526 529.074788 
L 366.023904 521.31633 
L 372.334661 522.069987 
L 375.49004 517.999475 
L 378.645418 518.301703 
L 381.800797 522.991974 
L 388.111554 526.125197 
L 391.266932 525.057835 
L 394.422311 522.835121 
L 397.577689 523.347761 
L 400.733068 518.447078 
L 403.888446 516.067512 
L 407.043825 522.349261 
L 410.199203 522.835121 
L 413.354582 521.31633 
L 416.50996 520.83047 
L 419.665339 520.157153 
L 422.820717 519.97352 
L 425.976096 518.068337 
L 429.131474 517.31468 
L 432.286853 508.052734 
L 435.442231 507.849974 
L 438.59761 509.307554 
L 441.752988 512.96872 
L 444.908367 506.862951 
L 448.063745 504.536944 
L 451.219124 498.320231 
L 454.374502 498.270497 
L 457.52988 497.004201 
L 460.685259 494.39892 
L 463.840637 493.928362 
L 466.996016 501.755682 
L 470.151394 500.894907 
L 473.306773 503.607306 
L 476.462151 499.387593 
L 479.61753 502.344835 
L 482.772908 497.218438 
L 485.928287 493.664391 
L 492.239044 495.699647 
L 495.394422 496.131948 
L 498.549801 498.503863 
L 501.705179 501.090016 
L 504.860558 498.588028 
L 508.015936 498.339359 
L 511.171315 498.733403 
L 514.326693 501.786288 
L 517.482072 503.037282 
L 520.63745 505.761158 
L 523.792829 506.560723 
L 526.948207 505.967744 
L 530.103586 508.626585 
L 533.258964 507.015978 
L 536.414343 503.465757 
L 539.569721 501.338684 
L 542.7251 497.352337 
L 545.880478 495.538969 
L 549.035857 500.240717 
L 552.191235 496.231415 
L 555.346614 495.795289 
L 558.501992 495.948316 
L 561.657371 493.760033 
L 564.812749 493.890106 
L 567.968127 496.923862 
L 571.123506 501.595004 
L 574.278884 506.667842 
L 577.434263 506.407696 
L 580.589641 503.756507 
L 583.74502 501.893406 
L 586.900398 509.391719 
L 590.055777 510.524117 
L 593.211155 519.265772 
L 596.366534 516.5725 
L 599.521912 519.874053 
L 602.677291 520.899332 
L 605.832669 526.660791 
L 608.988048 526.702873 
L 612.143426 529.174255 
L 615.298805 528.891156 
L 618.454183 527.177256 
L 621.609562 533.577601 
L 624.76494 528.08394 
L 627.920319 527.762583 
L 631.075697 527.054835 
L 634.231076 532.701523 
L 637.386454 529.962343 
L 640.541833 531.182732 
L 643.697211 526.909459 
L 646.85259 526.060161 
L 650.007968 525.888005 
L 653.163347 524.575801 
L 656.318725 524.950716 
L 659.474104 524.843598 
L 662.629482 529.755757 
L 665.784861 529.62951 
L 668.940239 532.628835 
L 672.095618 536.603706 
L 675.250996 538.814943 
L 678.406375 544.059935 
L 681.561753 539.036831 
L 684.717131 537.028355 
L 687.87251 538.948841 
L 691.027888 537.621334 
L 694.183267 540.490586 
L 697.338645 541.925212 
L 700.494024 543.065261 
L 703.649402 547.778486 
L 706.804781 546.99805 
L 709.960159 541.913735 
L 713.115538 542.043808 
L 716.270916 542.020854 
L 719.426295 542.820419 
L 722.581673 537.514215 
L 728.89243 537.453004 
L 732.047809 542.20066 
L 735.203187 543.206811 
L 738.358566 545.418048 
L 741.513944 545.647588 
L 744.669323 543.501388 
L 747.824701 547.797615 
L 750.98008 550.42585 
L 754.135458 552.013502 
L 757.290837 551.680669 
L 760.446215 554.526967 
L 763.601594 554.664691 
L 766.756972 559.282274 
L 769.912351 559.370265 
L 773.067729 564.045233 
L 776.223108 564.88688 
L 779.378486 570.261946 
L 782.533865 568.880879 
L 785.689243 565.395694 
L 788.844622 564.875403 
L 788.844622 564.875403 
" clip-path="url(#p2d004ade4d)" style="fill: none; stroke: #000000; stroke-width: 1.5; stroke-linecap: square"/>
   </g>
   <g id="line2d_2">
    <path d="M 0 459 
L 3.155378 459 
L 6.310757 463.266897 
L 9.466135 468.965323 
L 12.621514 472.838212 
L 15.776892 477.071229 
L 18.932271 477.067969 
L 22.087649 476.663447 
L 25.243028 473.786618 
L 28.398406 477.162553 
L 31.553785 477.681929 
L 34.709163 479.149501 
L 37.864542 482.108859 
L 41.01992 483.538774 
L 44.175299 487.614433 
L 47.330677 490.542945 
L 50.486056 492.760828 
L 53.641434 492.633606 
L 56.796813 499.506924 
L 59.952191 501.834611 
L 63.10757 497.205686 
L 66.262948 495.240882 
L 69.418327 495.88343 
L 72.573705 497.130673 
L 75.729084 495.692791 
L 78.884462 496.000225 
L 82.039841 495.189738 
L 85.195219 494.147416 
L 88.350598 495.405956 
L 91.505976 498.88556 
L 94.661355 499.610787 
L 97.816733 496.981727 
L 100.972112 495.613787 
L 107.282869 500.342675 
L 110.438247 503.817898 
L 113.593625 509.22801 
L 116.749004 509.571435 
L 119.904382 509.163304 
L 123.059761 505.095672 
L 126.215139 503.450004 
L 129.370518 501.620674 
L 132.525896 503.301298 
L 135.681275 504.196114 
L 138.836653 506.787608 
L 141.992032 506.823194 
L 145.14741 504.63104 
L 148.302789 504.873213 
L 151.458167 507.740785 
L 154.613546 511.033501 
L 157.768924 510.396024 
L 160.924303 507.622849 
L 164.079681 504.221079 
L 167.23506 500.360933 
L 170.390438 497.431325 
L 173.545817 491.298777 
L 176.701195 487.893391 
L 179.856574 485.236726 
L 183.011952 484.126592 
L 186.167331 478.382762 
L 189.322709 475.025159 
L 192.478088 473.711995 
L 195.633466 474.107854 
L 198.788845 473.876558 
L 201.944223 469.865832 
L 205.099602 471.334213 
L 208.25498 474.978816 
L 211.410359 476.085935 
L 214.565737 478.675058 
L 217.721116 483.14062 
L 220.876494 484.664541 
L 224.031873 483.160333 
L 227.187251 484.816188 
L 230.342629 484.395784 
L 233.498008 482.645623 
L 236.653386 485.036066 
L 239.808765 484.20123 
L 242.964143 484.009542 
L 246.119522 484.367729 
L 249.2749 492.338804 
L 252.430279 495.988538 
L 255.585657 498.075553 
L 258.741036 499.557107 
L 261.896414 498.224619 
L 265.051793 497.163004 
L 268.207171 493.85446 
L 271.36255 497.277714 
L 274.517928 499.446703 
L 277.673307 505.559913 
L 280.828685 507.787848 
L 283.984064 513.126787 
L 287.139442 516.188373 
L 290.294821 515.059155 
L 293.450199 517.39934 
L 296.605578 516.166454 
L 299.760956 518.864526 
L 302.916335 520.218888 
L 306.071713 523.812452 
L 309.227092 524.88796 
L 312.38247 528.416098 
L 315.537849 528.2299 
L 318.693227 524.993429 
L 321.848606 520.062321 
L 325.003984 517.672148 
L 328.159363 517.621484 
L 331.314741 515.368705 
L 334.47012 518.817388 
L 337.625498 519.807996 
L 340.780876 520.193819 
L 343.936255 519.826705 
L 347.091633 520.070917 
L 350.247012 521.62909 
L 353.40239 525.57034 
L 356.557769 526.560648 
L 359.713147 524.712415 
L 362.868526 527.612587 
L 366.023904 528.360288 
L 369.179283 524.841932 
L 372.334661 523.263566 
L 375.49004 522.664646 
L 378.645418 520.309579 
L 381.800797 519.287615 
L 384.956175 521.14005 
L 391.266932 524.482875 
L 394.422311 524.777691 
L 397.577689 523.808672 
L 400.733068 523.580722 
L 407.043825 518.536764 
L 410.199203 520.441752 
L 413.354582 521.635001 
L 416.50996 521.466237 
L 419.665339 521.140065 
L 422.820717 520.643358 
L 425.976096 520.301823 
L 429.131474 519.184337 
L 432.286853 518.251954 
L 435.442231 513.124312 
L 438.59761 510.45776 
L 441.752988 509.85911 
L 444.908367 511.3985 
L 451.219124 506.790533 
L 454.374502 502.51666 
L 457.52988 500.356237 
L 460.685259 498.658555 
L 463.840637 496.502363 
L 466.996016 495.185207 
L 470.151394 498.448458 
L 473.306773 499.65998 
L 476.462151 501.631821 
L 479.61753 500.5118 
L 482.772908 501.436306 
L 485.928287 499.327792 
L 489.083665 496.494652 
L 492.239044 495.609017 
L 495.394422 495.642457 
L 498.549801 495.877864 
L 501.705179 497.180857 
L 504.860558 499.138774 
L 511.171315 498.599895 
L 514.326693 498.676588 
L 517.482072 500.245293 
L 520.63745 501.655675 
L 523.792829 503.727297 
L 526.948207 505.159808 
L 530.103586 505.57334 
L 533.258964 507.119646 
L 536.414343 507.084825 
L 539.569721 505.28457 
L 542.7251 503.310749 
L 545.880478 500.320396 
L 549.035857 497.909639 
L 552.191235 499.062786 
L 555.346614 497.62801 
L 558.501992 496.68649 
L 561.657371 496.295702 
L 564.812749 495.008837 
L 567.968127 494.434866 
L 571.123506 495.678524 
L 574.278884 498.648639 
L 577.434263 502.670842 
L 580.589641 504.559223 
L 583.74502 504.173475 
L 586.900398 503.045098 
L 590.055777 506.249059 
L 593.211155 508.419203 
L 596.366534 513.886295 
L 599.521912 515.258765 
L 602.677291 517.592304 
L 605.832669 519.274233 
L 608.988048 523.012422 
L 612.143426 524.906294 
L 615.298805 527.079064 
L 618.454183 528.021124 
L 621.609562 527.614703 
L 624.76494 530.629495 
L 627.920319 529.372815 
L 634.231076 527.818768 
L 637.386454 530.271908 
L 640.541833 530.118671 
L 643.697211 530.655195 
L 646.85259 528.781802 
L 650.007968 527.406241 
L 653.163347 526.642817 
L 656.318725 525.603061 
L 662.629482 525.042772 
L 665.784861 527.39886 
L 668.940239 528.511139 
L 672.095618 530.581202 
L 675.250996 533.613127 
L 678.406375 536.239382 
L 681.561753 540.187863 
L 684.717131 539.639967 
L 687.87251 538.358053 
L 691.027888 538.671473 
L 694.183267 538.162073 
L 697.338645 539.341745 
L 703.649402 541.862921 
L 706.804781 544.827995 
L 709.960159 545.928633 
L 713.115538 543.930763 
L 716.270916 542.993354 
L 719.426295 542.51573 
L 722.581673 542.672643 
L 725.737052 540.08478 
L 728.89243 538.788613 
L 732.047809 538.100563 
L 735.203187 540.141205 
L 738.358566 541.676543 
L 741.513944 543.553912 
L 744.669323 544.607861 
L 747.824701 544.05596 
L 750.98008 545.946951 
L 754.135458 548.211717 
L 757.290837 550.14116 
L 760.446215 550.929503 
L 763.601594 552.750431 
L 766.756972 553.725692 
L 769.912351 556.530718 
L 773.067729 557.981607 
L 776.223108 561.045278 
L 779.378486 562.994434 
L 782.533865 566.663971 
L 785.689243 567.806151 
L 788.844622 566.622234 
L 788.844622 566.622234 
" clip-path="url(#p2d004ade4d)" style="fill: none; stroke: #000000; stroke-width: 1.5; stroke-linecap: square"/>
   </g>
   <g id="line2d_3">
    <path d="M 0 459 
L 3.155378 459 
L 6.310757 462.749235 
L 9.466135 467.502021 
L 12.621514 470.909334 
L 15.776892 474.513593 
L 18.932271 475.367575 
L 22.087649 475.65599 
L 25.243028 474.180206 
L 28.398406 476.10283 
L 31.553785 476.722168 
L 34.709163 477.880105 
L 37.864542 480.008597 
L 41.01992 481.473059 
L 44.175299 484.472257 
L 47.330677 487.102908 
L 50.486056 489.391104 
L 53.641434 490.328191 
L 56.796813 495.044373 
L 59.952191 497.723393 
L 63.10757 496.226095 
L 66.262948 495.36655 
L 69.418327 495.722871 
L 72.573705 496.520202 
L 75.729084 495.884225 
L 78.884462 496.022035 
L 82.039841 495.573172 
L 85.195219 494.87726 
L 88.350598 495.409359 
L 91.505976 497.45619 
L 94.661355 498.305269 
L 97.816733 497.153269 
L 100.972112 496.300984 
L 104.12749 497.464968 
L 107.282869 498.998856 
L 110.438247 501.415644 
L 113.593625 505.293129 
L 116.749004 506.657239 
L 119.904382 507.27609 
L 123.059761 505.441496 
L 126.215139 504.376183 
L 129.370518 503.037854 
L 132.525896 503.61678 
L 135.681275 504.064733 
L 138.836653 505.641858 
L 141.992032 506.006964 
L 145.14741 504.971548 
L 148.302789 505.021297 
L 151.458167 506.666356 
L 154.613546 508.909359 
L 157.768924 509.160673 
L 160.924303 507.895554 
L 164.079681 505.817033 
L 167.23506 503.084906 
L 170.390438 500.563759 
L 173.545817 496.058633 
L 176.701195 492.679781 
L 179.856574 489.738269 
L 183.011952 487.774972 
L 186.167331 483.341443 
L 189.322709 479.912424 
L 192.478088 477.699879 
L 198.788845 475.821115 
L 201.944223 472.872293 
L 205.099602 472.815623 
L 208.25498 474.486112 
L 211.410359 475.242103 
L 214.565737 476.972538 
L 217.721116 480.059438 
L 220.876494 481.831672 
L 224.031873 481.766985 
L 227.187251 483.12363 
L 230.342629 483.361774 
L 233.498008 482.634262 
L 236.653386 484.042945 
L 239.808765 483.855637 
L 242.964143 483.861862 
L 246.119522 484.128217 
L 249.2749 488.876829 
L 252.430279 492.052287 
L 255.585657 494.440472 
L 258.741036 496.375617 
L 261.896414 496.538628 
L 265.051793 496.413011 
L 268.207171 494.690312 
L 271.36255 496.449171 
L 274.517928 497.983788 
L 277.673307 502.008457 
L 280.828685 504.372318 
L 283.984064 508.523238 
L 287.139442 511.675897 
L 290.294821 512.35067 
L 293.450199 514.522497 
L 296.605578 514.661168 
L 299.760956 516.684127 
L 302.916335 518.129947 
L 306.071713 520.85819 
L 309.227092 522.37352 
L 312.38247 525.20234 
L 315.537849 526.055011 
L 318.693227 524.829571 
L 321.848606 522.005343 
L 325.003984 520.058941 
L 328.159363 519.341568 
L 331.314741 517.53806 
L 334.47012 518.931519 
L 337.625498 519.493 
L 340.780876 519.827497 
L 343.936255 519.722179 
L 347.091633 519.89614 
L 350.247012 520.852991 
L 353.40239 523.384501 
L 356.557769 524.588556 
L 359.713147 524.079302 
L 362.868526 525.950923 
L 366.023904 526.86713 
L 369.179283 525.240842 
L 372.334661 524.205351 
L 375.49004 523.587686 
L 378.645418 521.951411 
L 381.800797 520.888329 
L 384.956175 521.50529 
L 388.111554 522.412285 
L 391.266932 523.506108 
L 394.422311 523.967018 
L 397.577689 523.638411 
L 400.733068 523.553501 
L 403.888446 522.045209 
L 407.043825 520.281257 
L 413.354582 521.448373 
L 416.50996 521.400787 
L 419.665339 521.233187 
L 425.976096 520.637741 
L 432.286853 519.13122 
L 435.442231 515.869247 
L 438.59761 513.501232 
L 441.752988 512.253615 
L 444.908367 512.449179 
L 448.063745 510.794665 
L 451.219124 508.940215 
L 454.374502 505.806576 
L 457.52988 503.578868 
L 460.685259 501.624081 
L 463.840637 499.475219 
L 466.996016 497.819124 
L 470.151394 498.950206 
L 473.306773 499.497671 
L 476.462151 500.682557 
L 479.61753 500.281814 
L 482.772908 500.868865 
L 485.928287 499.787235 
L 489.083665 497.977602 
L 492.239044 497.006798 
L 495.394422 496.604108 
L 498.549801 496.45349 
L 501.705179 497.047101 
L 504.860558 498.234424 
L 514.326693 498.460334 
L 520.63745 500.497573 
L 523.792829 502.044831 
L 526.948207 503.370897 
L 530.103586 504.139054 
L 533.258964 505.460637 
L 536.414343 505.927439 
L 539.569721 505.217687 
L 542.7251 504.089155 
L 549.035857 500.190284 
L 552.191235 500.207051 
L 555.346614 499.037033 
L 558.501992 498.084341 
L 561.657371 497.455967 
L 564.812749 496.367741 
L 567.968127 495.632989 
L 571.123506 496.004055 
L 574.278884 497.636821 
L 577.434263 500.282069 
L 580.589641 502.076729 
L 583.74502 502.563131 
L 586.900398 502.361089 
L 590.055777 504.427119 
L 593.211155 506.223439 
L 596.366534 510.06862 
L 599.521912 511.997721 
L 602.677291 514.327196 
L 605.832669 516.280464 
L 608.988048 519.356243 
L 615.298805 523.819065 
L 618.454183 525.344848 
L 621.609562 525.916297 
L 624.76494 528.196976 
L 631.075697 528.088257 
L 634.231076 527.812335 
L 637.386454 529.279731 
L 640.541833 529.503291 
L 643.697211 530.018916 
L 650.007968 528.23254 
L 653.163347 527.552749 
L 656.318725 526.685044 
L 659.474104 526.175107 
L 662.629482 525.782981 
L 665.784861 526.947248 
L 668.940239 527.733713 
L 672.095618 529.173723 
L 678.406375 533.551154 
L 681.561753 536.647824 
L 684.717131 537.361311 
L 687.87251 537.26876 
L 691.027888 537.771166 
L 694.183267 537.734677 
L 697.338645 538.557463 
L 703.649402 540.607865 
L 706.804781 542.734742 
L 709.960159 544.00876 
L 713.115538 543.414748 
L 719.426295 542.746768 
L 722.581673 542.780046 
L 725.737052 541.238765 
L 728.89243 540.146376 
L 732.047809 539.349917 
L 738.358566 541.079649 
L 741.513944 542.357768 
L 744.669323 543.330553 
L 747.824701 543.384047 
L 750.98008 544.683496 
L 757.290837 548.030528 
L 760.446215 549.105008 
L 763.601594 550.707551 
L 766.756972 551.881067 
L 769.912351 554.068657 
L 773.067729 555.640471 
L 776.223108 558.132642 
L 779.378486 560.142353 
L 782.533865 563.143998 
L 785.689243 564.854936 
L 788.844622 565.038807 
L 788.844622 565.038807 
" clip-path="url(#p2d004ade4d)" style="fill: none; stroke: #000000; stroke-width: 1.5; stroke-linecap: square"/>
   </g>
   <g id="line2d_4">
    <path d="M 0 459 
L 3.155378 459 
L 6.310757 462.476755 
L 9.466135 466.700606 
L 15.776892 472.836261 
L 18.932271 473.876993 
L 22.087649 474.417737 
L 25.243028 473.678335 
L 28.398406 475.043392 
L 31.553785 475.644054 
L 34.709163 476.568046 
L 37.864542 478.107375 
L 41.01992 479.324531 
L 47.330677 483.523494 
L 50.486056 485.451623 
L 53.641434 486.628418 
L 56.796813 489.897955 
L 59.952191 492.239842 
L 66.262948 492.446093 
L 69.418327 493.106775 
L 72.573705 493.958161 
L 75.729084 494.006522 
L 78.884462 494.375092 
L 82.039841 494.383234 
L 85.195219 494.184849 
L 88.350598 494.579897 
L 91.505976 495.821046 
L 94.661355 496.540991 
L 100.972112 495.882579 
L 104.12749 496.602317 
L 107.282869 497.598296 
L 110.438247 499.1532 
L 113.593625 501.629648 
L 116.749004 502.961138 
L 119.904382 503.8975 
L 123.059761 503.452254 
L 126.215139 503.204611 
L 129.370518 502.673895 
L 135.681275 503.39676 
L 138.836653 504.367 
L 141.992032 504.779007 
L 145.14741 504.417348 
L 148.302789 504.533149 
L 151.458167 505.504035 
L 154.613546 506.912252 
L 157.768924 507.364298 
L 160.924303 506.964855 
L 164.079681 505.997591 
L 170.390438 502.908848 
L 173.545817 500.09014 
L 179.856574 495.236597 
L 183.011952 493.301884 
L 186.167331 490.021636 
L 189.322709 487.10406 
L 192.478088 484.760793 
L 198.788845 481.611252 
L 201.944223 479.098368 
L 205.099602 478.085743 
L 208.25498 478.159063 
L 211.410359 477.983859 
L 214.565737 478.479074 
L 217.721116 479.907899 
L 220.876494 480.885858 
L 224.031873 480.99137 
L 227.187251 481.840998 
L 230.342629 482.16377 
L 233.498008 481.945548 
L 236.653386 482.800166 
L 242.964143 483.011002 
L 246.119522 483.273668 
L 249.2749 485.969544 
L 252.430279 488.129199 
L 255.585657 490.024823 
L 258.741036 491.759162 
L 261.896414 492.564939 
L 265.051793 493.116685 
L 268.207171 492.699737 
L 274.517928 495.192991 
L 277.673307 497.824396 
L 280.828685 499.774943 
L 283.984064 502.759844 
L 287.139442 505.398511 
L 290.294821 506.771035 
L 293.450199 508.845615 
L 296.605578 509.830488 
L 299.760956 511.714529 
L 302.916335 513.311599 
L 306.071713 515.577242 
L 309.227092 517.254533 
L 312.38247 519.617914 
L 315.537849 520.978848 
L 318.693227 521.122663 
L 321.848606 520.18733 
L 325.003984 519.431741 
L 328.159363 519.157588 
L 331.314741 518.223421 
L 334.47012 518.894727 
L 340.780876 519.46872 
L 343.936255 519.490925 
L 347.091633 519.641026 
L 350.247012 520.214647 
L 353.40239 521.705055 
L 356.557769 522.643315 
L 359.713147 522.691758 
L 362.868526 523.951074 
L 366.023904 524.786879 
L 369.179283 524.253918 
L 372.334661 523.85749 
L 375.49004 523.585857 
L 378.645418 522.701021 
L 381.800797 522.006267 
L 384.956175 522.165964 
L 388.111554 522.554588 
L 391.266932 523.130337 
L 394.422311 523.440399 
L 400.733068 523.350017 
L 403.888446 522.568016 
L 407.043825 521.52673 
L 413.354582 521.837413 
L 419.665339 521.603416 
L 425.976096 521.156148 
L 432.286853 520.134678 
L 435.442231 518.20352 
L 438.59761 516.548128 
L 441.752988 515.389075 
L 444.908367 514.999932 
L 448.063745 513.696929 
L 451.219124 512.227925 
L 454.374502 509.995729 
L 463.840637 504.407993 
L 466.996016 502.718717 
L 470.151394 502.55329 
L 473.306773 502.276467 
L 476.462151 502.476689 
L 479.61753 501.97359 
L 482.772908 502.0227 
L 485.928287 501.242244 
L 489.083665 500.017287 
L 492.239044 499.154919 
L 495.394422 498.586855 
L 498.549801 498.179609 
L 501.705179 498.215698 
L 504.860558 498.662183 
L 514.326693 498.586634 
L 517.482072 499.083525 
L 520.63745 499.70148 
L 526.948207 501.587611 
L 530.103586 502.276956 
L 533.258964 503.281784 
L 536.414343 503.87526 
L 539.569721 503.807371 
L 542.7251 503.409622 
L 545.880478 502.436143 
L 549.035857 501.331712 
L 552.191235 501.155451 
L 558.501992 499.641205 
L 561.657371 499.052994 
L 564.812749 498.210466 
L 567.968127 497.523058 
L 571.123506 497.424709 
L 574.278884 498.088654 
L 577.434263 499.455543 
L 580.589641 500.566036 
L 583.74502 501.074532 
L 586.900398 501.207735 
L 593.211155 503.803049 
L 596.366534 506.277927 
L 599.521912 507.928584 
L 602.677291 509.842485 
L 605.832669 511.614029 
L 608.988048 514.025538 
L 615.298805 518.165724 
L 618.454183 519.88909 
L 621.609562 521.063725 
L 624.76494 523.072083 
L 627.920319 523.882917 
L 631.075697 524.513784 
L 634.231076 524.929573 
L 637.386454 526.182144 
L 643.697211 527.516029 
L 646.85259 527.437964 
L 653.163347 527.03904 
L 656.318725 526.664815 
L 662.629482 526.179049 
L 665.784861 526.770576 
L 668.940239 527.247741 
L 672.095618 528.12617 
L 675.250996 529.49682 
L 678.406375 530.999424 
L 681.561753 533.100891 
L 684.717131 534.067333 
L 687.87251 534.560364 
L 691.027888 535.277028 
L 694.183267 535.666923 
L 700.494024 537.334949 
L 703.649402 538.261132 
L 706.804781 539.792148 
L 709.960159 540.951322 
L 722.581673 541.63372 
L 728.89243 540.435094 
L 732.047809 539.966679 
L 738.358566 540.795581 
L 744.669323 542.203125 
L 747.824701 542.420035 
L 750.98008 543.28919 
L 766.756972 549.000467 
L 769.912351 550.654841 
L 773.067729 552.058181 
L 776.223108 553.982486 
L 779.378486 555.733681 
L 782.533865 558.061529 
L 785.689243 559.801547 
L 788.844622 560.709295 
L 788.844622 560.709295 
" clip-path="url(#p2d004ade4d)" style="fill: none; stroke: #000000; stroke-width: 1.5; stroke-linecap: square"/>
   </g>
   <g id="line2d_5">
    <path d="M 0 459 
L 3.155378 459 
L 6.310757 462.338723 
L 9.466135 466.291157 
L 15.776892 471.923614 
L 18.932271 472.976161 
L 22.087649 473.576453 
L 25.243028 473.137539 
L 28.398406 474.258995 
L 31.553785 474.816401 
L 34.709163 475.596029 
L 37.864542 476.80771 
L 41.01992 477.808101 
L 47.330677 481.034223 
L 50.486056 482.566943 
L 53.641434 483.632175 
L 56.796813 486.011135 
L 59.952191 487.867907 
L 66.262948 488.82542 
L 72.573705 490.418385 
L 75.729084 490.782523 
L 78.884462 491.299046 
L 82.039841 491.589026 
L 85.195219 491.732209 
L 88.350598 492.179796 
L 91.505976 493.096483 
L 94.661355 493.744238 
L 100.972112 493.839312 
L 104.12749 494.403241 
L 107.282869 495.131431 
L 110.438247 496.187093 
L 113.593625 497.783158 
L 116.749004 498.830006 
L 119.904382 499.682709 
L 129.370518 499.950858 
L 135.681275 500.780377 
L 138.836653 501.511882 
L 141.992032 501.965833 
L 145.14741 502.007913 
L 148.302789 502.268935 
L 151.458167 502.96915 
L 154.613546 503.920663 
L 157.768924 504.410062 
L 160.924303 504.447075 
L 164.079681 504.145434 
L 167.23506 503.507862 
L 170.390438 502.755984 
L 179.856574 498.456184 
L 183.011952 497.174996 
L 189.322709 493.187611 
L 192.478088 491.461308 
L 198.788845 488.689956 
L 201.944223 486.793421 
L 205.099602 485.639954 
L 211.410359 484.410018 
L 214.565737 484.147479 
L 217.721116 484.431756 
L 220.876494 484.576747 
L 224.031873 484.33351 
L 227.187251 484.509371 
L 230.342629 484.462574 
L 233.498008 484.166677 
L 236.653386 484.436119 
L 242.964143 484.3031 
L 246.119522 484.336405 
L 249.2749 485.658305 
L 255.585657 487.920772 
L 258.741036 489.001242 
L 261.896414 489.650724 
L 265.051793 490.183112 
L 268.207171 490.21016 
L 274.517928 491.952301 
L 277.673307 493.590784 
L 280.828685 494.955231 
L 287.139442 498.76408 
L 290.294821 500.022591 
L 293.450199 501.655173 
L 296.605578 502.757329 
L 299.760956 504.320448 
L 302.916335 505.758017 
L 306.071713 507.557881 
L 309.227092 509.090574 
L 312.38247 510.991217 
L 315.537849 512.406274 
L 318.693227 513.185513 
L 325.003984 513.516097 
L 328.159363 513.859054 
L 331.314741 513.806343 
L 334.47012 514.515288 
L 340.780876 515.510861 
L 347.091633 516.218687 
L 350.247012 516.800373 
L 353.40239 517.857635 
L 356.557769 518.661784 
L 359.713147 519.014648 
L 362.868526 519.974149 
L 366.023904 520.738651 
L 375.49004 520.987958 
L 381.800797 520.559121 
L 384.956175 520.774015 
L 394.422311 521.850463 
L 400.733068 522.080237 
L 403.888446 521.795793 
L 407.043825 521.334438 
L 416.50996 521.556612 
L 425.976096 521.299777 
L 432.286853 520.743412 
L 438.59761 518.72222 
L 441.752988 517.949287 
L 444.908367 517.545403 
L 448.063745 516.666006 
L 451.219124 515.660742 
L 457.52988 512.896704 
L 463.840637 510.149942 
L 466.996016 508.802925 
L 473.306773 507.61368 
L 476.462151 507.281817 
L 479.61753 506.622645 
L 482.772908 506.26512 
L 485.928287 505.507389 
L 489.083665 504.516169 
L 492.239044 503.69692 
L 498.549801 502.447162 
L 501.705179 502.112405 
L 504.860558 502.020896 
L 514.326693 501.201374 
L 520.63745 501.384353 
L 530.103586 502.455223 
L 533.258964 502.965942 
L 536.414343 503.29711 
L 539.569721 503.305451 
L 542.7251 503.135946 
L 549.035857 502.050593 
L 552.191235 501.892922 
L 567.968127 499.426988 
L 571.123506 499.2113 
L 574.278884 499.402601 
L 580.589641 500.528566 
L 583.74502 500.791738 
L 586.900398 500.876305 
L 593.211155 502.315509 
L 596.366534 503.720427 
L 599.521912 504.785059 
L 605.832669 507.270627 
L 608.988048 508.88338 
L 618.454183 513.337424 
L 621.609562 514.48814 
L 624.76494 516.076856 
L 631.075697 517.966131 
L 634.231076 518.723627 
L 637.386454 519.891758 
L 643.697211 521.609031 
L 650.007968 522.392269 
L 653.163347 522.68935 
L 662.629482 523.196118 
L 672.095618 524.95681 
L 678.406375 527.015514 
L 681.561753 528.444672 
L 684.717131 529.33572 
L 694.183267 531.330276 
L 700.494024 532.935055 
L 703.649402 533.790325 
L 706.804781 534.966481 
L 709.960159 535.980809 
L 719.426295 537.395561 
L 722.581673 537.858751 
L 732.047809 537.802985 
L 738.358566 538.607977 
L 744.669323 539.737477 
L 747.824701 540.064887 
L 750.98008 540.723681 
L 760.446215 543.218005 
L 766.756972 545.066039 
L 776.223108 548.778922 
L 779.378486 550.134766 
L 782.533865 551.826024 
L 785.689243 553.262704 
L 788.844622 554.290362 
L 788.844622 554.290362 
" clip-path="url(#p2d004ade4d)" style="fill: none; stroke: #000000; stroke-width: 1.5; stroke-linecap: square"/>
   </g>
   <g id="line2d_6">
    <path d="M 0 459 
L 3.155378 459 
L 6.310757 462.26948 
L 9.466135 466.085536 
L 15.776892 471.455066 
L 18.932271 472.494125 
L 22.087649 473.105329 
L 25.243028 472.790775 
L 28.398406 473.797088 
L 31.553785 474.322159 
L 34.709163 475.022982 
L 37.864542 476.06991 
L 41.01992 476.944558 
L 50.486056 480.944383 
L 53.641434 481.881061 
L 56.796813 483.790596 
L 59.952191 485.32337 
L 66.262948 486.376433 
L 72.573705 487.833784 
L 82.039841 489.125064 
L 85.195219 489.372413 
L 88.350598 489.811405 
L 91.505976 490.553367 
L 94.661355 491.1227 
L 100.972112 491.474944 
L 107.282869 492.555217 
L 110.438247 493.35281 
L 113.593625 494.491675 
L 119.904382 496.013305 
L 132.525896 497.138799 
L 135.681275 497.538317 
L 138.836653 498.128991 
L 141.992032 498.561119 
L 145.14741 498.752676 
L 148.302789 499.06215 
L 151.458167 499.619931 
L 154.613546 500.325476 
L 157.768924 500.77629 
L 160.924303 500.970328 
L 164.079681 500.964761 
L 170.390438 500.464234 
L 183.011952 497.591204 
L 192.478088 494.27828 
L 198.788845 492.488991 
L 201.944223 491.287832 
L 205.099602 490.455971 
L 211.410359 489.352704 
L 214.565737 488.989097 
L 220.876494 488.800821 
L 224.031873 488.48187 
L 230.342629 488.191836 
L 233.498008 487.869039 
L 236.653386 487.847753 
L 246.119522 487.361491 
L 255.585657 488.945835 
L 258.741036 489.470221 
L 265.051793 490.064688 
L 268.207171 490.084476 
L 274.517928 491.023286 
L 283.984064 493.810837 
L 287.139442 494.906932 
L 290.294821 495.725698 
L 293.450199 496.757323 
L 296.605578 497.538885 
L 302.916335 499.559976 
L 312.38247 503.130549 
L 315.537849 504.198467 
L 318.693227 504.952017 
L 331.314741 506.612487 
L 337.625498 507.864017 
L 343.936255 508.882491 
L 350.247012 509.959784 
L 353.40239 510.793253 
L 356.557769 511.506681 
L 359.713147 511.991579 
L 366.023904 513.476015 
L 375.49004 514.484068 
L 381.800797 514.790266 
L 388.111554 515.542258 
L 394.422311 516.379069 
L 400.733068 516.938913 
L 410.199203 517.210335 
L 416.50996 517.62817 
L 425.976096 517.974974 
L 432.286853 517.964403 
L 441.752988 516.814332 
L 444.908367 516.655949 
L 451.219124 515.74883 
L 466.996016 511.954713 
L 479.61753 510.276921 
L 482.772908 509.941633 
L 485.928287 509.402676 
L 492.239044 508.140989 
L 498.549801 507.124984 
L 501.705179 506.760165 
L 508.015936 506.184303 
L 514.326693 505.5478 
L 520.63745 505.285474 
L 530.103586 505.385799 
L 536.414343 505.588233 
L 542.7251 505.320294 
L 571.123506 502.329035 
L 574.278884 502.299088 
L 580.589641 502.657686 
L 586.900398 502.676368 
L 593.211155 503.293997 
L 596.366534 503.978925 
L 599.521912 504.519832 
L 605.832669 505.854132 
L 618.454183 509.394176 
L 621.609562 510.154709 
L 624.76494 511.155649 
L 631.075697 512.56128 
L 634.231076 513.182928 
L 637.386454 514.019068 
L 643.697211 515.408766 
L 650.007968 516.340999 
L 656.318725 517.085967 
L 662.629482 517.742096 
L 672.095618 519.340295 
L 678.406375 520.878749 
L 681.561753 521.866948 
L 684.717131 522.599726 
L 697.338645 525.153888 
L 703.649402 526.602069 
L 709.960159 528.333985 
L 722.581673 530.552036 
L 732.047809 531.408201 
L 738.358566 532.35469 
L 744.669323 533.456703 
L 747.824701 533.886561 
L 754.135458 535.161463 
L 766.756972 538.060232 
L 776.223108 540.86986 
L 779.378486 541.895222 
L 785.689243 544.207723 
L 788.844622 545.113073 
L 788.844622 545.113073 
" clip-path="url(#p2d004ade4d)" style="fill: none; stroke: #000000; stroke-width: 1.5; stroke-linecap: square"/>
   </g>
   <g id="line2d_7">
    <path d="M 0 459 
L 3.155378 459 
L 6.310757 462.23483 
L 9.466135 465.982669 
L 15.776892 471.218669 
L 18.932271 472.246541 
L 22.087649 472.858613 
L 25.243028 472.599174 
L 28.398406 473.549479 
L 31.553785 474.055796 
L 34.709163 474.716035 
L 37.864542 475.68192 
L 41.01992 476.491427 
L 50.486056 480.108681 
L 53.641434 480.967803 
L 56.796813 482.647023 
L 59.952191 484.007662 
L 66.262948 485.039121 
L 72.573705 486.379343 
L 82.039841 487.637894 
L 85.195219 487.904531 
L 88.350598 488.316548 
L 91.505976 488.960309 
L 94.661355 489.469738 
L 100.972112 489.879859 
L 107.282869 490.824577 
L 110.438247 491.486346 
L 113.593625 492.399718 
L 119.904382 493.676881 
L 132.525896 494.821143 
L 135.681275 495.184572 
L 141.992032 496.06536 
L 148.302789 496.578491 
L 157.768924 497.999877 
L 160.924303 498.219407 
L 164.079681 498.302907 
L 170.390438 498.132178 
L 183.011952 496.479947 
L 192.478088 494.408923 
L 198.788845 493.254229 
L 201.944223 492.473511 
L 205.099602 491.916585 
L 214.565737 490.864935 
L 220.876494 490.646158 
L 224.031873 490.399964 
L 230.342629 490.119655 
L 233.498008 489.871944 
L 239.808765 489.634467 
L 246.119522 489.356414 
L 258.741036 490.442578 
L 265.051793 490.746495 
L 268.207171 490.740719 
L 274.517928 491.260071 
L 283.984064 492.882949 
L 287.139442 493.537202 
L 290.294821 494.04141 
L 293.450199 494.674005 
L 296.605578 495.171925 
L 306.071713 497.202239 
L 309.227092 497.901615 
L 312.38247 498.726649 
L 315.537849 499.434843 
L 318.693227 499.97339 
L 334.47012 501.887954 
L 343.936255 503.166765 
L 350.247012 504.032451 
L 356.557769 505.166587 
L 359.713147 505.580822 
L 366.023904 506.696694 
L 378.645418 507.955838 
L 384.956175 508.536285 
L 397.577689 509.96562 
L 400.733068 510.271936 
L 413.354582 511.127576 
L 425.976096 511.954566 
L 432.286853 512.210799 
L 441.752988 511.959726 
L 444.908367 511.982416 
L 451.219124 511.702903 
L 463.840637 510.426701 
L 466.996016 510.058244 
L 485.928287 508.891668 
L 495.394422 507.968595 
L 501.705179 507.502707 
L 511.171315 506.971958 
L 517.482072 506.679712 
L 523.792829 506.580942 
L 539.569721 506.551861 
L 545.880478 506.23802 
L 552.191235 505.877012 
L 571.123506 504.576454 
L 574.278884 504.511304 
L 583.74502 504.580403 
L 586.900398 504.521783 
L 593.211155 504.756517 
L 608.988048 506.422413 
L 621.609562 508.237825 
L 624.76494 508.788358 
L 646.85259 511.68185 
L 659.474104 512.829165 
L 665.784861 513.450225 
L 672.095618 514.207956 
L 678.406375 515.2144 
L 681.561753 515.838297 
L 691.027888 517.266291 
L 697.338645 518.198533 
L 703.649402 519.237187 
L 709.960159 520.439715 
L 722.581673 522.25907 
L 735.203187 523.633156 
L 750.98008 525.854149 
L 763.601594 528.051895 
L 769.912351 529.285384 
L 776.223108 530.667765 
L 782.533865 532.241028 
L 788.844622 533.726365 
L 788.844622 533.726365 
" clip-path="url(#p2d004ade4d)" style="fill: none; stroke: #000000; stroke-width: 1.5; stroke-linecap: square"/>
   </g>
   <g id="line2d_8">
    <path d="M 0 459 
L 3.155378 459 
L 6.310757 462.217502 
L 9.466135 465.931243 
L 15.776892 471.100063 
L 18.932271 472.121297 
L 22.087649 472.732697 
L 25.243028 472.49902 
L 28.398406 473.42172 
L 31.553785 473.91806 
L 34.709163 474.557808 
L 37.864542 475.483731 
L 41.01992 476.260432 
L 50.486056 479.688069 
L 53.641434 480.50616 
L 56.796813 482.073029 
L 59.952191 483.347066 
L 69.418327 484.970554 
L 72.573705 485.624595 
L 82.039841 486.844893 
L 85.195219 487.112679 
L 88.350598 487.505355 
L 91.505976 488.097791 
L 94.661355 488.572428 
L 100.972112 488.99195 
L 107.282869 489.861114 
L 110.438247 490.454403 
L 113.593625 491.2589 
L 119.904382 492.404772 
L 135.681275 493.841599 
L 141.992032 494.635179 
L 148.302789 495.126847 
L 157.768924 496.380557 
L 164.079681 496.702039 
L 170.390438 496.645401 
L 183.011952 495.487211 
L 192.478088 493.957039 
L 198.788845 493.098146 
L 201.944223 492.512799 
L 205.099602 492.093513 
L 214.565737 491.291859 
L 220.876494 491.112418 
L 227.187251 490.831811 
L 246.119522 490.081384 
L 261.896414 490.921797 
L 274.517928 491.360849 
L 283.984064 492.490153 
L 290.294821 493.305659 
L 309.227092 496.05268 
L 315.537849 497.150196 
L 318.693227 497.548604 
L 334.47012 499.028876 
L 359.713147 501.843929 
L 366.023904 502.680528 
L 378.645418 503.733949 
L 384.956175 504.228593 
L 400.733068 505.649914 
L 432.286853 507.518567 
L 451.219124 507.576817 
L 479.61753 506.551087 
L 485.928287 506.371938 
L 498.549801 505.786891 
L 517.482072 505.311886 
L 526.948207 505.305024 
L 542.7251 505.30169 
L 574.278884 504.279802 
L 593.211155 504.437878 
L 608.988048 505.415804 
L 634.231076 507.581627 
L 643.697211 508.43254 
L 659.474104 509.446317 
L 668.940239 510.109172 
L 678.406375 511.027587 
L 684.717131 511.750193 
L 700.494024 513.342388 
L 722.581673 515.767655 
L 738.358566 517.132855 
L 757.290837 519.197804 
L 766.756972 520.384077 
L 779.378486 522.275612 
L 788.844622 523.847388 
L 788.844622 523.847388 
" clip-path="url(#p2d004ade4d)" style="fill: none; stroke: #000000; stroke-width: 1.5; stroke-linecap: square"/>
   </g>
   <g id="line2d_9">
    <path d="M 0 459 
L 3.155378 459 
L 6.310757 462.208837 
L 9.466135 465.905534 
L 15.776892 471.040673 
L 18.932271 472.058337 
L 22.087649 472.669132 
L 25.243028 472.447886 
L 28.398406 473.356885 
L 31.553785 473.848094 
L 34.709163 474.47756 
L 37.864542 475.383673 
L 41.01992 476.143956 
L 50.486056 479.477514 
L 53.641434 480.274677 
L 56.796813 481.786292 
L 59.952191 483.017165 
L 69.418327 484.608237 
L 72.573705 485.242358 
L 82.039841 486.43865 
L 85.195219 486.705029 
L 88.350598 487.086718 
L 94.661355 488.109404 
L 100.972112 488.529003 
L 107.282869 489.358838 
L 110.438247 489.91809 
L 113.593625 490.669677 
L 119.904382 491.748836 
L 135.681275 493.136613 
L 141.992032 493.883499 
L 148.302789 494.358153 
L 157.768924 495.524474 
L 164.079681 495.845848 
L 170.390438 495.832613 
L 183.011952 494.884719 
L 195.633466 493.233618 
L 198.788845 492.868483 
L 201.944223 492.37174 
L 205.099602 492.016258 
L 214.565737 491.336364 
L 220.876494 491.182957 
L 227.187251 490.943807 
L 246.119522 490.301799 
L 261.896414 490.983574 
L 274.517928 491.33945 
L 283.984064 492.258718 
L 293.450199 493.288791 
L 299.760956 493.955769 
L 309.227092 495.168358 
L 315.537849 496.064036 
L 321.848606 496.631726 
L 337.625498 497.920812 
L 353.40239 499.37181 
L 366.023904 500.663339 
L 400.733068 503.19276 
L 432.286853 504.857146 
L 454.374502 504.991498 
L 511.171315 503.893659 
L 520.63745 503.820006 
L 545.880478 503.865958 
L 571.123506 503.334273 
L 586.900398 503.364878 
L 596.366534 503.609201 
L 605.832669 503.995926 
L 659.474104 507.119203 
L 668.940239 507.614049 
L 678.406375 508.279684 
L 687.87251 509.018082 
L 706.804781 510.503404 
L 716.270916 511.258219 
L 728.89243 512.119725 
L 738.358566 512.766754 
L 760.446215 514.569955 
L 773.067729 515.806767 
L 788.844622 517.639659 
L 788.844622 517.639659 
" clip-path="url(#p2d004ade4d)" style="fill: none; stroke: #000000; stroke-width: 1.5; stroke-linecap: square"/>
   </g>
  </g>
 </g>
 <defs>
  <clipPath id="p2d004ade4d">
   <rect x="0" y="0" width="792" height="612"/>
  </clipPath>
 </defs>
</svg>
