<?xml version="1.0" encoding="utf-8" standalone="no"?>
<!DOCTYPE svg PUBLIC "-//W3C//DTD SVG 1.1//EN"
  "http://www.w3.org/Graphics/SVG/1.1/DTD/svg11.dtd">
<svg xmlns:xlink="http://www.w3.org/1999/xlink" width="792pt" height="612pt" viewBox="0 0 792 612" xmlns="http://www.w3.org/2000/svg" version="1.1">
 <metadata>
  <rdf:RDF xmlns:dc="http://purl.org/dc/elements/1.1/" xmlns:cc="http://creativecommons.org/ns#" xmlns:rdf="http://www.w3.org/1999/02/22-rdf-syntax-ns#">
   <cc:Work>
    <dc:type rdf:resource="http://purl.org/dc/dcmitype/StillImage"/>
    <dc:date>2023-01-30T17:16:02.411183</dc:date>
    <dc:format>image/svg+xml</dc:format>
    <dc:creator>
     <cc:Agent>
      <dc:title>Matplotlib v3.6.2, https://matplotlib.org/</dc:title>
     </cc:Agent>
    </dc:creator>
   </cc:Work>
  </rdf:RDF>
 </metadata>
 <defs>
  <style type="text/css">*{stroke-linejoin: round; stroke-linecap: butt}</style>
 </defs>
 <g id="figure_1">
  <g id="patch_1">
   <path d="M 0 612 
L 792 612 
L 792 0 
L 0 0 
z
" style="fill: #ffffff"/>
  </g>
  <g id="axes_1">
   <g id="line2d_1">
    <path d="M 0 459 
L 12.983607 434.752629 
L 25.967213 429.945361 
L 38.95082 428.97166 
L 51.934426 421.559443 
L 64.918033 423.675386 
L 77.901639 423.070673 
L 90.885246 450.896369 
L 103.868852 450.179595 
L 116.852459 461.737704 
L 129.836066 469.262769 
L 142.819672 473.448994 
L 155.803279 483.378604 
L 168.786885 473.869065 
L 181.770492 470.066698 
L 194.754098 473.702485 
L 207.737705 471.189302 
L 220.721311 476.621254 
L 233.704918 479.337231 
L 246.688525 481.495527 
L 259.672131 490.418414 
L 272.655738 488.940923 
L 285.639344 479.315503 
L 298.622951 479.561751 
L 311.606557 479.518296 
L 324.590164 481.032 
L 337.57377 470.986509 
L 350.557377 470.986509 
L 363.540984 470.870627 
L 376.52459 479.858698 
L 389.508197 481.763503 
L 402.491803 485.949728 
L 415.47541 486.384284 
L 428.459016 482.321183 
L 441.442623 490.454627 
L 454.42623 495.430296 
L 467.409836 498.435976 
L 480.393443 497.80587 
L 493.377049 503.194367 
L 506.360656 503.455101 
L 519.344262 512.196923 
L 532.327869 512.363503 
L 545.311475 521.213964 
L 558.295082 522.807337 
L 571.278689 532.983195 
L 584.262295 530.368615 
L 597.245902 523.770604 
L 610.229508 522.785609 
L 623.213115 533.707456 
L 636.196721 529.695053 
L 649.180328 532.085112 
L 662.163934 530.115124 
L 675.147541 525.255337 
L 688.131148 525.921657 
L 701.114754 522.756639 
L 714.098361 522.510391 
L 727.081967 523.350533 
L 740.065574 516.767006 
L 753.04918 518.729751 
L 766.032787 519.895811 
L 779.016393 515.369183 
" clip-path="url(#p0d70be241b)" style="fill: none; stroke: #000000; stroke-width: 1.5; stroke-linecap: square"/>
   </g>
   <g id="line2d_2">
    <path d="M 0 459 
L 12.983607 459 
L 25.967213 442.826722 
L 38.95082 435.461512 
L 51.934426 431.998917 
L 64.918033 426.60661 
L 77.901639 425.117387 
L 90.885246 424.085798 
L 103.868852 437.525266 
L 116.852459 443.83227 
L 129.836066 455.583684 
L 142.819672 463.601127 
L 155.803279 468.573046 
L 168.786885 476.048151 
L 181.770492 475.010897 
L 194.754098 472.584028 
L 207.737705 473.177382 
L 220.721311 472.213008 
L 233.704918 474.446315 
L 246.688525 476.911527 
L 259.672131 479.219304 
L 272.655738 484.832663 
L 285.639344 486.916346 
L 298.622951 483.134059 
L 311.606557 481.359394 
L 324.590164 480.455176 
L 337.57377 480.752237 
L 350.557377 475.852999 
L 363.540984 473.399148 
L 376.52459 472.096559 
L 389.508197 475.95982 
L 402.491803 478.866462 
L 415.47541 482.42062 
L 428.459016 484.415915 
L 441.442623 483.371077 
L 454.42623 486.951025 
L 467.409836 491.238589 
L 480.393443 494.891333 
L 493.377049 496.383792 
L 506.360656 499.831101 
L 519.344262 501.677425 
L 532.327869 506.987787 
L 545.311475 509.734551 
L 558.295082 515.53457 
L 571.278689 519.224634 
L 584.262295 526.171654 
L 597.245902 528.333983 
L 610.229508 526.092639 
L 623.213115 524.477027 
L 636.196721 529.134419 
L 649.180328 529.44872 
L 662.163934 530.788232 
L 675.147541 530.466007 
L 688.131148 527.84552 
L 701.114754 526.874869 
L 714.098361 524.813766 
L 727.081967 523.661538 
L 740.065574 523.485728 
L 753.04918 520.101018 
L 766.032787 519.389198 
L 779.016393 519.622466 
" clip-path="url(#p0d70be241b)" style="fill: none; stroke: #000000; stroke-width: 1.5; stroke-linecap: square"/>
   </g>
   <g id="line2d_3">
    <path d="M 0 459 
L 12.983607 459 
L 25.967213 444.787529 
L 38.95082 438.057253 
L 51.934426 434.506755 
L 64.918033 429.894691 
L 77.901639 427.811562 
L 90.885246 426.287575 
L 103.868852 433.962257 
L 116.852459 438.927056 
L 129.836066 447.472588 
L 142.819672 459.381646 
L 155.803279 463.567277 
L 168.786885 469.434707 
L 181.770492 470.743727 
L 194.754098 470.544328 
L 207.737705 471.472959 
L 220.721311 471.403878 
L 233.704918 472.961544 
L 246.688525 474.863438 
L 259.672131 476.843283 
L 272.655738 480.869801 
L 285.639344 483.28172 
L 298.622951 482.15716 
L 311.606557 481.423703 
L 324.590164 480.892567 
L 337.57377 480.955567 
L 350.557377 478.037678 
L 363.540984 475.96961 
L 376.52459 474.461786 
L 389.508197 476.049384 
L 402.491803 477.736446 
L 415.47541 480.156128 
L 428.459016 481.997765 
L 441.442623 482.099039 
L 454.42623 484.559104 
L 467.409836 487.759208 
L 480.393443 490.89557 
L 493.377049 492.929732 
L 506.360656 495.963601 
L 519.344262 498.185255 
L 532.327869 502.326712 
L 545.311475 505.302407 
L 558.295082 510.020486 
L 571.278689 513.825189 
L 584.262295 519.507782 
L 597.245902 522.746862 
L 610.229508 523.094958 
L 623.213115 523.046662 
L 636.196721 526.223492 
L 649.180328 527.294702 
L 662.163934 528.745598 
L 675.147541 529.186562 
L 688.131148 528.065937 
L 701.114754 527.470186 
L 714.098361 526.112089 
L 727.081967 525.079063 
L 740.065574 524.585599 
L 753.04918 522.300644 
L 766.032787 521.251901 
L 779.016393 520.851367 
" clip-path="url(#p0d70be241b)" style="fill: none; stroke: #000000; stroke-width: 1.5; stroke-linecap: square"/>
   </g>
   <g id="line2d_4">
    <path d="M 0 459 
L 12.983607 459 
L 25.967213 445.819849 
L 38.95082 439.583806 
L 51.934426 436.204144 
L 64.918033 432.177842 
L 77.901639 430.083273 
L 90.885246 428.494187 
L 103.868852 433.237986 
L 116.852459 436.646778 
L 129.836066 442.54708 
L 142.819672 451.370681 
L 155.803279 459.546421 
L 168.786885 463.783584 
L 181.770492 465.543803 
L 194.754098 466.321191 
L 207.737705 467.573874 
L 220.721311 468.18101 
L 233.704918 469.585975 
L 246.688525 471.197316 
L 259.672131 472.888653 
L 272.655738 475.752969 
L 285.639344 477.898633 
L 298.622951 478.12833 
L 311.606557 478.360013 
L 324.590164 478.546753 
L 337.57377 478.946582 
L 350.557377 477.668229 
L 363.540984 476.596773 
L 376.52459 475.679698 
L 389.508197 476.348285 
L 402.491803 477.213887 
L 415.47541 478.609241 
L 428.459016 479.863364 
L 441.442623 480.274011 
L 454.42623 481.91946 
L 467.409836 484.098067 
L 480.393443 486.411689 
L 493.377049 488.256118 
L 506.360656 490.667909 
L 519.344262 492.73182 
L 532.327869 495.863814 
L 545.311475 498.520561 
L 558.295082 502.163577 
L 571.278689 505.478869 
L 584.262295 509.885856 
L 597.245902 513.179989 
L 610.229508 514.898501 
L 623.213115 516.183993 
L 636.196721 519.011046 
L 649.180328 520.744025 
L 662.163934 522.581344 
L 675.147541 523.810331 
L 688.131148 524.061972 
L 701.114754 524.380928 
L 714.098361 524.149603 
L 727.081967 523.915595 
L 740.065574 523.85304 
L 753.04918 522.747923 
L 766.032787 522.138406 
L 779.016393 521.812118 
" clip-path="url(#p0d70be241b)" style="fill: none; stroke: #000000; stroke-width: 1.5; stroke-linecap: square"/>
   </g>
   <g id="line2d_5">
    <path d="M 0 459 
L 12.983607 459 
L 25.967213 446.342848 
L 38.95082 440.391262 
L 51.934426 437.152373 
L 64.918033 433.465508 
L 77.901639 431.459004 
L 90.885246 429.9265 
L 103.868852 433.401273 
L 116.852459 435.969579 
L 129.836066 440.437422 
L 142.819672 447.097359 
L 155.803279 454.188595 
L 168.786885 460.58713 
L 181.770492 462.155864 
L 194.754098 463.058519 
L 207.737705 464.236394 
L 220.721311 464.985099 
L 233.704918 466.207919 
L 246.688525 467.55783 
L 259.672131 468.963004 
L 272.655738 471.088225 
L 285.639344 472.828641 
L 298.622951 473.451996 
L 311.606557 474.031522 
L 324.590164 474.545858 
L 337.57377 475.147412 
L 350.557377 474.765237 
L 363.540984 474.42121 
L 376.52459 474.100534 
L 389.508197 474.616811 
L 402.491803 475.253341 
L 415.47541 476.200282 
L 428.459016 477.096901 
L 441.442623 477.554547 
L 454.42623 478.679414 
L 467.409836 480.133951 
L 480.393443 481.717104 
L 493.377049 483.103946 
L 506.360656 484.830197 
L 519.344262 486.425853 
L 532.327869 488.627849 
L 545.311475 490.650976 
L 558.295082 493.250215 
L 571.278689 495.758768 
L 584.262295 498.912142 
L 597.245902 501.572332 
L 610.229508 503.446636 
L 623.213115 505.077169 
L 636.196721 507.487909 
L 649.180328 509.355551 
L 662.163934 511.265019 
L 675.147541 512.84698 
L 688.131148 513.887364 
L 701.114754 514.895528 
L 714.098361 515.553575 
L 727.081967 516.135509 
L 740.065574 516.738648 
L 753.04918 516.741017 
L 766.032787 516.907074 
L 779.016393 517.156505 
" clip-path="url(#p0d70be241b)" style="fill: none; stroke: #000000; stroke-width: 1.5; stroke-linecap: square"/>
   </g>
   <g id="line2d_6">
    <path d="M 0 459 
L 12.983607 459 
L 25.967213 446.605219 
L 38.95082 440.803738 
L 51.934426 437.647794 
L 64.918033 434.139614 
L 77.901639 432.199105 
L 90.885246 430.717976 
L 103.868852 433.633896 
L 116.852459 435.803692 
L 129.836066 439.585521 
L 142.819672 445.194259 
L 155.803279 451.168371 
L 168.786885 459.046535 
L 181.770492 460.428464 
L 194.754098 461.283582 
L 207.737705 462.336624 
L 220.721311 463.056742 
L 233.704918 464.118779 
L 246.688525 465.269019 
L 259.672131 466.456059 
L 272.655738 468.156701 
L 285.639344 469.590807 
L 298.622951 470.244421 
L 311.606557 470.855491 
L 324.590164 471.410759 
L 337.57377 472.014362 
L 350.557377 471.951164 
L 363.540984 471.892962 
L 376.52459 471.832367 
L 389.508197 472.300202 
L 402.491803 472.843165 
L 415.47541 473.584066 
L 428.459016 474.297565 
L 441.442623 474.738922 
L 454.42623 475.592633 
L 467.409836 476.657557 
L 480.393443 477.813619 
L 493.377049 478.863645 
L 506.360656 480.128726 
L 519.344262 481.330055 
L 532.327869 482.905383 
L 545.311475 484.395937 
L 558.295082 486.243739 
L 571.278689 488.064586 
L 584.262295 490.285071 
L 597.245902 492.252695 
L 610.229508 493.789565 
L 623.213115 495.194522 
L 636.196721 497.04937 
L 649.180328 498.612629 
L 662.163934 500.206731 
L 675.147541 501.623688 
L 688.131148 502.737726 
L 701.114754 503.825497 
L 714.098361 504.709732 
L 727.081967 505.537595 
L 740.065574 506.362637 
L 753.04918 506.842655 
L 766.032787 507.389037 
L 779.016393 507.961858 
" clip-path="url(#p0d70be241b)" style="fill: none; stroke: #000000; stroke-width: 1.5; stroke-linecap: square"/>
   </g>
   <g id="line2d_7">
    <path d="M 0 459 
L 12.983607 459 
L 25.967213 446.736515 
L 38.95082 441.011843 
L 51.934426 437.900257 
L 64.918033 434.483177 
L 77.901639 432.580625 
L 90.885246 431.13053 
L 103.868852 433.788163 
L 116.852459 435.768578 
L 129.836066 439.222839 
L 142.819672 444.327509 
L 155.803279 449.755712 
L 168.786885 456.947363 
L 181.770492 459.589833 
L 194.754098 460.399097 
L 207.737705 461.372367 
L 220.721311 462.055243 
L 233.704918 463.02194 
L 246.688525 464.058164 
L 259.672131 465.120928 
L 272.655738 466.604131 
L 285.639344 467.866774 
L 298.622951 468.491997 
L 311.606557 469.077108 
L 324.590164 469.612179 
L 337.57377 470.180455 
L 350.557377 470.219461 
L 363.540984 470.255605 
L 376.52459 470.283859 
L 389.508197 470.713206 
L 402.491803 471.197378 
L 415.47541 471.829603 
L 428.459016 472.440272 
L 441.442623 472.846504 
L 454.42623 473.556448 
L 467.409836 474.422031 
L 480.393443 475.355367 
L 493.377049 476.212982 
L 506.360656 477.226676 
L 519.344262 478.196427 
L 532.327869 479.434295 
L 545.311475 480.615466 
L 558.295082 482.051003 
L 571.278689 483.472319 
L 584.262295 485.17603 
L 597.245902 486.711214 
L 610.229508 487.954521 
L 623.213115 489.109077 
L 636.196721 490.570267 
L 649.180328 491.837757 
L 662.163934 493.127467 
L 675.147541 494.300271 
L 688.131148 495.271806 
L 701.114754 496.224278 
L 714.098361 497.040916 
L 727.081967 497.817577 
L 740.065574 498.589179 
L 753.04918 499.133722 
L 766.032787 499.715785 
L 779.016393 500.310276 
" clip-path="url(#p0d70be241b)" style="fill: none; stroke: #000000; stroke-width: 1.5; stroke-linecap: square"/>
   </g>
   <g id="line2d_8">
    <path d="M 0 459 
L 12.983607 459 
L 25.967213 446.802178 
L 38.95082 441.11632 
L 51.934426 438.027598 
L 64.918033 434.65644 
L 77.901639 432.774019 
L 90.885246 431.340692 
L 103.868852 433.874643 
L 116.852459 435.763305 
L 129.836066 439.058528 
L 142.819672 443.918171 
L 155.803279 449.079073 
L 168.786885 455.890045 
L 181.770492 459.181158 
L 194.754098 459.963162 
L 207.737705 460.893372 
L 220.721311 461.552902 
L 233.704918 462.469309 
L 246.688525 463.446268 
L 259.672131 464.444581 
L 272.655738 465.81995 
L 285.639344 466.994703 
L 298.622951 467.596611 
L 311.606557 468.159702 
L 324.590164 468.675529 
L 337.57377 469.217884 
L 350.557377 469.293025 
L 363.540984 469.362762 
L 376.52459 469.423022 
L 389.508197 469.828246 
L 402.491803 470.27905 
L 415.47541 470.855384 
L 428.459016 471.412028 
L 441.442623 471.793509 
L 454.42623 472.43065 
L 467.409836 473.197988 
L 480.393443 474.021401 
L 493.377049 474.780796 
L 506.360656 475.669195 
L 519.344262 476.520521 
L 532.327869 477.592309 
L 545.311475 478.617154 
L 558.295082 479.849602 
L 571.278689 481.070324 
L 584.262295 482.519943 
L 597.245902 483.833542 
L 610.229508 484.911953 
L 623.213115 485.918313 
L 636.196721 487.168391 
L 649.180328 488.263955 
L 662.163934 489.376196 
L 675.147541 490.395317 
L 688.131148 491.255124 
L 701.114754 492.098444 
L 714.098361 492.83428 
L 727.081967 493.537245 
L 740.065574 494.234454 
L 753.04918 494.754834 
L 766.032787 495.301784 
L 779.016393 495.856182 
" clip-path="url(#p0d70be241b)" style="fill: none; stroke: #000000; stroke-width: 1.5; stroke-linecap: square"/>
   </g>
   <g id="line2d_9">
    <path d="M 0 459 
L 12.983607 459 
L 25.967213 446.835011 
L 38.95082 441.16866 
L 51.934426 438.091536 
L 64.918033 434.743422 
L 77.901639 432.871343 
L 90.885246 431.446701 
L 103.868852 433.920191 
L 116.852459 435.763763 
L 129.836066 438.980751 
L 142.819672 443.719821 
L 155.803279 448.748779 
L 168.786885 455.372146 
L 181.770492 458.940019 
L 194.754098 459.747464 
L 207.737705 460.655522 
L 220.721311 461.302362 
L 233.704918 462.193149 
L 246.688525 463.140118 
L 259.672131 464.105867 
L 272.655738 465.427857 
L 285.639344 466.558497 
L 298.622951 467.146813 
L 311.606557 467.696954 
L 324.590164 468.20117 
L 337.57377 468.72879 
L 350.557377 468.818428 
L 363.540984 468.901652 
L 376.52459 468.97482 
L 389.508197 469.366821 
L 402.491803 469.800044 
L 415.47541 470.348225 
L 428.459016 470.877444 
L 441.442623 471.244964 
L 454.42623 471.845837 
L 467.409836 472.564943 
L 480.393443 473.334461 
L 493.377049 474.04505 
L 506.360656 474.871928 
L 519.344262 475.664543 
L 532.327869 476.655464 
L 545.311475 477.603431 
L 558.295082 478.737216 
L 571.278689 479.859826 
L 584.262295 481.186423 
L 597.245902 482.391025 
L 610.229508 483.385534 
L 623.213115 484.315146 
L 636.196721 485.459693 
L 649.180328 486.466841 
L 662.163934 487.487744 
L 675.147541 488.425787 
L 688.131148 489.223007 
L 701.114754 490.004695 
L 714.098361 490.691399 
L 727.081967 491.348316 
L 740.065574 491.999094 
L 753.04918 492.495349 
L 766.032787 493.013404 
L 779.016393 493.536748 
" clip-path="url(#p0d70be241b)" style="fill: none; stroke: #000000; stroke-width: 1.5; stroke-linecap: square"/>
   </g>
  </g>
 </g>
 <defs>
  <clipPath id="p0d70be241b">
   <rect x="0" y="0" width="792" height="612"/>
  </clipPath>
 </defs>
</svg>
