<?xml version="1.0" encoding="utf-8" standalone="no"?>
<!DOCTYPE svg PUBLIC "-//W3C//DTD SVG 1.1//EN"
  "http://www.w3.org/Graphics/SVG/1.1/DTD/svg11.dtd">
<svg xmlns:xlink="http://www.w3.org/1999/xlink" width="792pt" height="612pt" viewBox="0 0 792 612" xmlns="http://www.w3.org/2000/svg" version="1.1">
 <metadata>
  <rdf:RDF xmlns:dc="http://purl.org/dc/elements/1.1/" xmlns:cc="http://creativecommons.org/ns#" xmlns:rdf="http://www.w3.org/1999/02/22-rdf-syntax-ns#">
   <cc:Work>
    <dc:type rdf:resource="http://purl.org/dc/dcmitype/StillImage"/>
    <dc:date>2023-01-30T16:22:39.652533</dc:date>
    <dc:format>image/svg+xml</dc:format>
    <dc:creator>
     <cc:Agent>
      <dc:title>Matplotlib v3.6.2, https://matplotlib.org/</dc:title>
     </cc:Agent>
    </dc:creator>
   </cc:Work>
  </rdf:RDF>
 </metadata>
 <defs>
  <style type="text/css">*{stroke-linejoin: round; stroke-linecap: butt}</style>
 </defs>
 <g id="figure_1">
  <g id="patch_1">
   <path d="M 0 612 
L 792 612 
L 792 0 
L 0 0 
z
" style="fill: #ffffff"/>
  </g>
  <g id="axes_1">
   <g id="line2d_1">
    <path d="M 0 459 
L 0.631076 457.433453 
L 1.893227 465.070392 
L 2.524303 462.785836 
L 3.155378 459.913823 
L 3.786454 461.545648 
L 4.41753 455.475325 
L 5.048606 460.044369 
L 5.679681 462.394198 
L 6.310757 467.028584 
L 6.941833 466.702218 
L 7.572908 461.872014 
L 8.203984 474.796075 
L 8.83506 476.950085 
L 9.466135 474.600256 
L 10.097211 471.140785 
L 10.728287 471.728242 
L 11.359363 466.636945 
L 11.990438 465.984215 
L 12.621514 466.31058 
L 13.25259 466.963311 
L 13.883665 461.349829 
L 14.514741 458.412543 
L 15.145817 451.363759 
L 15.776892 459.261092 
L 16.407968 462.720563 
L 17.039044 468.007679 
L 17.67012 466.180034 
L 18.301195 466.963311 
L 18.932271 469.182594 
L 19.563347 467.420222 
L 20.194422 468.790956 
L 20.825498 469.639505 
L 21.456574 461.676195 
L 22.087649 463.242747 
L 22.718725 469.835324 
L 23.349801 470.292235 
L 23.980876 472.185154 
L 24.611952 475.579352 
L 25.243028 476.884812 
L 25.874104 474.273891 
L 27.136255 480.801195 
L 27.767331 479.62628 
L 29.029482 499.795648 
L 29.660558 496.205631 
L 30.291633 502.145478 
L 30.922709 495.552901 
L 32.184861 478.973549 
L 32.815936 481.78029 
L 33.447012 485.957765 
L 34.078088 479.430461 
L 34.709163 481.062287 
L 35.340239 483.999573 
L 35.971315 481.323379 
L 36.60239 485.305034 
L 37.233466 486.806314 
L 37.864542 484.325939 
L 38.495618 481.388652 
L 39.126693 485.696672 
L 39.757769 488.699232 
L 40.388845 488.633959 
L 41.01992 489.874147 
L 41.650996 487.78541 
L 42.282072 483.999573 
L 42.913147 484.130119 
L 43.544223 481.519198 
L 44.175299 480.931741 
L 44.806375 488.242321 
L 46.068526 480.27901 
L 46.699602 480.605375 
L 47.330677 478.451365 
L 47.961753 479.299915 
L 48.592829 480.997014 
L 49.85498 488.307594 
L 50.486056 487.328498 
L 51.117131 488.177048 
L 52.379283 488.177048 
L 53.010359 492.354522 
L 53.641434 490.59215 
L 54.27251 491.114334 
L 54.903586 490.657423 
L 55.534661 488.503413 
L 56.165737 485.043942 
L 56.796813 488.111775 
L 57.427888 485.043942 
L 58.058964 482.889932 
L 58.69004 485.305034 
L 59.321116 472.96843 
L 59.952191 474.46971 
L 60.583267 473.751706 
L 61.214343 467.485495 
L 61.845418 462.851109 
L 62.476494 461.937287 
L 63.10757 450.972235 
L 63.738645 450.384971 
L 64.369721 433.960038 
L 65.000797 457.825088 
L 65.631873 445.101093 
L 66.262948 460.762372 
L 66.894024 466.832765 
L 67.5251 467.093857 
L 68.156175 463.177474 
L 68.787251 462.067833 
L 69.418327 459.718003 
L 70.680478 466.180034 
L 71.311554 476.754266 
L 71.942629 477.47227 
L 72.573705 477.602816 
L 73.204781 473.425341 
L 73.835857 471.662969 
L 74.466932 473.229522 
L 75.098008 474.208618 
L 75.729084 473.229522 
L 76.360159 477.080631 
L 76.991235 471.597696 
L 77.622311 471.075512 
L 78.253386 472.642065 
L 78.884462 475.514078 
L 79.515538 480.083191 
L 80.146614 482.563567 
L 80.777689 477.668089 
L 81.408765 478.581911 
L 82.039841 482.694113 
L 82.670916 485.761945 
L 83.301992 482.237201 
L 83.933068 481.062287 
L 84.564143 459.913823 
L 85.195219 460.50128 
L 85.826295 463.177474 
L 86.457371 422.653899 
L 87.088446 434.545788 
L 87.719522 457.825088 
L 88.350598 453.908912 
L 88.981673 452.734178 
L 89.612749 460.697099 
L 90.243825 464.613481 
L 90.8749 466.049488 
L 91.505976 479.038823 
L 92.137052 477.798635 
L 92.768127 471.924061 
L 93.399203 472.054608 
L 94.030279 472.707338 
L 94.661355 471.532423 
L 95.29243 473.098976 
L 96.554582 479.299915 
L 97.816733 480.735922 
L 98.447809 486.28413 
L 99.078884 489.808874 
L 99.70996 489.743601 
L 100.341036 497.445819 
L 100.972112 487.78541 
L 101.603187 490.396331 
L 102.234263 485.566126 
L 102.865339 486.023038 
L 103.496414 483.542662 
L 104.12749 483.673208 
L 104.758566 487.981229 
L 105.389641 481.910836 
L 106.020717 482.171928 
L 107.282869 481.584471 
L 107.913944 480.997014 
L 108.54502 477.276451 
L 109.176096 478.190273 
L 109.807171 496.793089 
L 110.438247 476.819539 
L 111.069323 480.997014 
L 111.700398 483.738481 
L 112.331474 489.351962 
L 112.96255 498.033276 
L 113.593625 502.994027 
L 114.224701 497.641638 
L 114.855777 500.187287 
L 115.486853 502.210751 
L 116.117928 499.40401 
L 116.749004 499.012372 
L 117.38008 491.636519 
L 118.011155 493.725256 
L 118.642231 497.184727 
L 119.273307 498.881826 
L 119.904382 498.424915 
L 120.535458 483.999573 
L 121.166534 486.479949 
L 121.79761 474.991894 
L 122.428685 468.007679 
L 123.059761 466.31058 
L 123.690837 468.46459 
L 124.952988 462.198379 
L 125.584064 461.284556 
L 126.215139 463.438567 
L 126.846215 463.569113 
L 127.477291 460.50128 
L 128.108367 459.065273 
L 128.739442 459.456911 
L 129.370518 467.81186 
L 130.001594 464.613481 
L 131.263745 460.370734 
L 131.894821 455.475325 
L 132.525896 456.650191 
L 133.788048 464.8093 
L 134.419124 470.226962 
L 135.050199 461.415102 
L 135.681275 462.328925 
L 136.312351 460.631826 
L 136.943426 463.569113 
L 137.574502 459.456911 
L 138.205578 449.993477 
L 138.836653 448.427638 
L 139.467729 444.12296 
L 140.098805 450.776477 
L 140.72988 441.384935 
L 141.360956 439.234501 
L 141.992032 439.42996 
L 142.623108 426.158604 
L 143.254183 440.602864 
L 143.885259 460.370734 
L 144.516335 465.331485 
L 145.14741 467.093857 
L 145.778486 474.730802 
L 146.409562 472.837884 
L 147.040637 483.477389 
L 147.671713 470.096416 
L 148.302789 474.404437 
L 148.933865 466.702218 
L 149.56494 467.15913 
L 150.196016 477.080631 
L 150.827092 481.323379 
L 152.089243 466.245307 
L 152.720319 466.049488 
L 153.351394 464.678754 
L 153.98247 461.872014 
L 154.613546 460.892918 
L 155.244622 466.506399 
L 155.875697 462.133106 
L 156.506773 461.415102 
L 157.137849 460.892918 
L 157.768924 480.474829 
L 158.4 481.910836 
L 159.031076 486.871587 
L 159.662151 485.174488 
L 160.293227 482.759386 
L 160.924303 483.020478 
L 161.555378 482.563567 
L 162.186454 477.668089 
L 162.81753 478.386092 
L 163.448606 476.166809 
L 164.079681 475.840444 
L 164.710757 472.185154 
L 165.341833 473.947526 
L 165.972908 478.190273 
L 166.603984 478.908276 
L 167.23506 475.840444 
L 167.866135 476.297355 
L 169.128287 479.822099 
L 169.759363 477.994454 
L 170.390438 478.973549 
L 171.021514 480.344283 
L 171.65259 485.239761 
L 172.914741 481.976109 
L 173.545817 482.367747 
L 174.176892 475.057167 
L 174.807968 472.772611 
L 175.439044 483.738481 
L 176.701195 491.636519 
L 177.332271 491.767065 
L 177.963347 491.636519 
L 179.225498 485.43558 
L 179.856574 488.699232 
L 180.487649 486.28413 
L 181.118725 485.827218 
L 181.749801 492.158703 
L 182.380876 494.704352 
L 183.011952 495.618174 
L 183.643028 492.94198 
L 184.274104 492.74616 
L 184.905179 496.858362 
L 185.536255 498.686007 
L 186.798406 492.419795 
L 187.429482 490.787969 
L 188.060558 490.200512 
L 188.691633 486.153584 
L 189.322709 487.58959 
L 189.953785 485.043942 
L 190.584861 495.487628 
L 191.215936 492.354522 
L 191.847012 493.137799 
L 192.478088 493.529437 
L 193.109163 491.897611 
L 193.740239 495.226536 
L 194.371315 495.487628 
L 195.00239 496.075085 
L 195.633466 493.072526 
L 196.264542 493.986348 
L 196.895618 493.072526 
L 197.526693 497.641638 
L 198.157769 497.184727 
L 198.788845 499.469283 
L 200.050996 509.651877 
L 200.682072 506.91041 
L 201.313147 508.150597 
L 201.944223 510.174061 
L 203.206375 501.035836 
L 203.83745 500.90529 
L 204.468526 504.495307 
L 205.099602 505.474403 
L 206.361753 507.758959 
L 206.992829 513.241894 
L 207.623904 510.892065 
L 208.25498 511.087884 
L 208.886056 512.654437 
L 209.517131 520.160836 
L 210.148207 522.641212 
L 210.779283 522.771758 
L 211.410359 528.124147 
L 212.041434 526.949232 
L 212.67251 529.037969 
L 213.303586 529.886519 
L 213.934661 529.364334 
L 214.565737 530.082338 
L 215.196813 531.453072 
L 215.827888 534.129266 
L 216.458964 527.732509 
L 217.09004 526.427048 
L 217.721116 522.380119 
L 218.352191 523.03285 
L 218.983267 519.37756 
L 219.614343 517.549915 
L 220.245418 520.944113 
L 220.876494 518.920648 
L 221.50757 518.463737 
L 222.138645 514.090444 
L 222.769721 514.22099 
L 223.400797 513.437713 
L 224.031873 516.440273 
L 225.294024 514.677901 
L 225.9251 516.375 
L 226.556175 516.570819 
L 227.187251 515.004266 
L 227.818327 514.743174 
L 228.449402 513.176621 
L 229.080478 514.286263 
L 229.711554 509.782423 
L 230.342629 510.5657 
L 230.973705 511.740614 
L 231.604781 511.87116 
L 232.235857 508.020051 
L 232.866932 508.150597 
L 233.498008 505.343857 
L 234.129084 501.688567 
L 234.760159 502.145478 
L 235.391235 501.101109 
L 236.022311 501.688567 
L 236.653386 499.665102 
L 237.284462 500.709471 
L 238.546614 496.727816 
L 239.177689 512.458618 
L 239.808765 512.784983 
L 241.070916 506.584044 
L 241.701992 506.845137 
L 242.333068 510.239334 
L 242.964143 510.043515 
L 243.595219 512.654437 
L 244.857371 510.435154 
L 245.488446 508.281143 
L 246.119522 509.71715 
L 246.750598 512.328072 
L 247.381673 509.71715 
L 248.012749 516.440273 
L 248.643825 518.137372 
L 249.2749 516.309727 
L 249.905976 513.307167 
L 250.537052 513.698805 
L 251.168127 515.918089 
L 251.799203 515.330631 
L 252.430279 520.03029 
L 253.061355 518.463737 
L 253.69243 518.855375 
L 254.323506 518.202645 
L 254.954582 515.526451 
L 255.585657 513.829352 
L 256.216733 514.090444 
L 256.847809 515.983362 
L 257.478884 512.06698 
L 258.10996 513.046075 
L 259.372112 509.521331 
L 260.003187 504.495307 
L 260.634263 505.017491 
L 261.265339 505.278584 
L 261.896414 506.322952 
L 262.52749 505.474403 
L 263.158566 506.06186 
L 263.789641 504.691126 
L 264.420717 507.302048 
L 265.051793 507.040956 
L 265.682869 514.87372 
L 266.313944 512.458618 
L 266.94502 506.453498 
L 267.576096 506.649317 
L 268.207171 507.171502 
L 268.838247 505.539676 
L 269.469323 506.192406 
L 270.100398 510.5657 
L 270.731474 511.283703 
L 271.36255 508.542235 
L 271.993625 507.56314 
L 272.624701 505.604949 
L 273.255777 505.474403 
L 273.886853 504.103669 
L 274.517928 500.187287 
L 275.149004 499.795648 
L 276.411155 498.033276 
L 277.042231 500.187287 
L 277.673307 501.688567 
L 278.304382 500.774744 
L 278.935458 501.166382 
L 279.566534 481.584471 
L 280.19761 469.182594 
L 280.828685 469.378413 
L 281.459761 474.404437 
L 282.090837 474.926621 
L 282.721912 474.991894 
L 283.352988 475.644625 
L 283.984064 473.882253 
L 284.615139 473.947526 
L 285.877291 465.984215 
L 286.508367 465.266212 
L 287.139442 461.806741 
L 287.770518 459.718003 
L 288.401594 461.415102 
L 289.032669 459.979096 
L 289.663745 458.216724 
L 290.294821 459.718003 
L 290.925896 448.623355 
L 291.556972 458.216724 
L 292.188048 454.692106 
L 292.819124 467.093857 
L 293.450199 465.65785 
L 294.081275 468.856229 
L 294.712351 467.81186 
L 295.343426 468.399317 
L 295.974502 466.31058 
L 296.605578 465.723123 
L 297.867729 468.268771 
L 298.498805 465.853669 
L 299.12988 464.221843 
L 299.760956 460.174915 
L 300.392032 457.62927 
L 301.023108 448.427638 
L 301.654183 450.189222 
L 302.285259 420.125349 
L 302.916335 423.237732 
L 303.54741 405.009201 
L 304.178486 390.968166 
L 304.809562 389.054215 
L 305.440637 371.759484 
L 306.702789 357.135259 
L 307.333865 357.880239 
L 307.96494 377.435334 
L 308.596016 372.892503 
L 309.858167 342.358943 
L 310.489243 331.984198 
L 311.120319 311.133092 
L 311.751394 284.703966 
L 312.38247 296.908459 
L 313.013546 300.519162 
L 313.644622 249.515008 
L 314.275697 236.257982 
L 314.906773 256.079281 
L 315.537849 261.470069 
L 316.168924 264.672821 
L 316.8 227.096011 
L 317.431076 206.070413 
L 318.062151 203.626349 
L 319.324303 216.759671 
L 319.955378 208.535248 
L 320.586454 195.892573 
L 321.21753 148.513046 
L 321.848606 141.737744 
L 322.479681 73.811581 
L 323.110757 41.665474 
L 323.741833 93.301566 
L 324.372908 86.723395 
L 325.003984 87.126265 
L 325.63506 77.241187 
L 326.266135 75.983033 
L 326.897211 78.886601 
L 327.528287 65.060027 
L 328.159363 66.413881 
L 328.790438 48.649456 
L 329.421514 35.32283 
L 330.05259 38.969476 
L 330.683665 38.620748 
L 331.314741 55.514501 
L 331.945817 66.466468 
L 332.576892 74.276233 
L 333.207968 123.376476 
L 333.839044 130.276497 
L 334.47012 89.165832 
L 335.101195 88.276839 
L 335.732271 86.455743 
L 336.994422 109.263911 
L 337.625498 173.267124 
L 338.256574 145.354046 
L 338.887649 153.246154 
L 339.518725 214.367141 
L 340.149801 227.679847 
L 340.780876 339.798428 
L 341.411952 358.066571 
L 342.043028 446.47069 
L 342.674104 361.23953 
L 343.305179 361.426483 
L 343.936255 353.04805 
L 344.567331 270.496146 
L 345.198406 234.913149 
L 345.829482 246.118977 
L 347.091633 273.599458 
L 347.722709 250.446279 
L 348.353785 296.737086 
L 348.984861 328.376321 
L 349.615936 298.453135 
L 350.247012 258.449158 
L 350.878088 228.850534 
L 351.509163 225.49565 
L 352.140239 202.951132 
L 352.771315 141.431223 
L 353.40239 105.781298 
L 354.033466 95.615155 
L 354.664542 88.413089 
L 355.295618 84.537314 
L 355.926693 87.869212 
L 356.557769 118.802738 
L 357.188845 94.524413 
L 357.81992 108.119284 
L 358.450996 97.979298 
L 359.082072 66.888545 
L 359.713147 78.151421 
L 360.344223 66.256352 
L 360.975299 73.062177 
L 361.606375 110.501913 
L 362.23745 81.382644 
L 362.868526 78.518231 
L 363.499602 72.832994 
L 364.130677 73.811581 
L 364.761753 59.943763 
L 365.392829 62.577616 
L 366.023904 63.227527 
L 366.65498 69.69274 
L 367.286056 65.26664 
L 367.917131 66.729978 
L 368.548207 61.835416 
L 369.179283 63.68112 
L 369.810359 61.198791 
L 370.441434 57.413327 
L 371.07251 60.761621 
L 371.703586 60.135274 
L 372.334661 59.705172 
L 372.965737 64.443807 
L 373.596813 55.159545 
L 374.227888 39.257035 
L 374.858964 42.939326 
L 375.49004 42.626103 
L 376.121116 47.100834 
L 376.752191 42.006165 
L 377.383267 29.544596 
L 378.014343 31.095248 
L 378.645418 19.485771 
L 379.90757 32.031368 
L 380.538645 23.562954 
L 381.169721 24.726176 
L 382.431873 21.917419 
L 383.062948 22.285489 
L 383.694024 23.11658 
L 384.3251 22.174439 
L 384.956175 27.814556 
L 385.587251 24.218093 
L 386.218327 27.999256 
L 387.480478 14.352835 
L 388.111554 11.484604 
L 389.373705 2.765255 
L 390.004781 2.492622 
L 390.635857 2.856099 
L 391.266932 2.431862 
L 391.898008 1.034978 
L 392.529084 1.357113 
L 393.791235 1.027069 
L 394.422311 1.329645 
L 395.053386 1.327381 
L 395.684462 0.592141 
L 396.315538 0.904575 
L 396.946614 0.789241 
L 397.577689 1.23886 
L 398.208765 2.136752 
L 398.839841 1.065407 
L 399.470916 1.525116 
L 400.101992 1.341022 
L 400.733068 1.431943 
L 401.364143 1.977465 
L 401.995219 1.452832 
L 403.888446 1.414966 
L 405.150598 2.11864 
L 405.781673 2.720919 
L 406.412749 0.977532 
L 407.043825 0.67064 
L 407.6749 0.566458 
L 408.305976 0.197899 
L 410.830279 0.058477 
L 413.985657 0.023092 
L 415.878884 0.020214 
L 417.141036 0.046168 
L 417.772112 0.565493 
L 418.403187 0.202856 
L 424.082869 0.039025 
L 424.713944 0.135849 
L 429.76255 0.037459 
L 433.549004 0.020632 
L 439.859761 0.038529 
L 442.384064 0.076637 
L 444.908367 0.033157 
L 449.956972 0.006616 
L 486.559363 0.000001 
L 781.902789 0.054154 
L 783.16494 0.185318 
L 783.796016 0.614255 
L 785.689243 0.184844 
L 786.320319 0.668927 
L 786.951394 0.417069 
L 787.58247 0.552622 
L 790.106773 0.184214 
L 791.368924 0.197562 
L 791.368924 0.197562 
" clip-path="url(#p98274335ef)" style="fill: none; stroke: #000000; stroke-width: 1.5; stroke-linecap: square"/>
   </g>
   <g id="line2d_2">
    <path d="M 0 459 
L 0.631076 459 
L 1.262151 457.955633 
L 2.524303 462.829352 
L 3.155378 462.806892 
L 3.786454 461.337396 
L 4.41753 461.442342 
L 5.048606 459.626621 
L 5.679681 459.837543 
L 6.310757 461.123549 
L 6.941833 464.086945 
L 7.572908 465.397782 
L 8.203984 463.633106 
L 8.83506 469.243771 
L 9.466135 473.127133 
L 10.097211 473.896587 
L 10.728287 472.540444 
L 11.359363 472.152645 
L 11.990438 469.394027 
L 12.621514 467.687713 
L 13.25259 467.00785 
L 13.883665 466.970222 
L 15.776892 458.748891 
L 16.407968 459.064249 
L 17.039044 460.884727 
L 17.67012 464.450171 
L 18.932271 466.139078 
L 19.563347 467.676195 
L 20.194422 467.565102 
L 21.456574 468.941212 
L 22.087649 465.306655 
L 22.718725 464.265358 
L 23.349801 467.057509 
L 24.611952 470.439164 
L 25.243028 473.025256 
L 25.874104 474.970904 
L 26.505179 474.631485 
L 27.136255 476.08285 
L 27.767331 478.476451 
L 28.398406 479.070563 
L 29.029482 484.838396 
L 29.660558 492.37116 
L 30.291633 494.32884 
L 30.922709 498.286689 
L 31.553785 496.961519 
L 32.184861 492.066041 
L 32.815936 485.516212 
L 33.447012 483.652474 
L 34.078088 484.79616 
L 34.709163 482.073379 
L 35.340239 481.53814 
L 35.971315 482.733276 
L 36.60239 482.000427 
L 37.864542 485.243089 
L 38.495618 484.789505 
L 39.126693 483.080119 
L 39.757769 484.400683 
L 40.388845 486.564932 
L 41.650996 488.758106 
L 42.282072 488.276621 
L 42.913147 486.132594 
L 43.544223 485.130973 
L 44.175299 483.325341 
L 44.806375 482.119198 
L 45.43745 485.179863 
L 46.068526 484.580631 
L 46.699602 482.411007 
L 47.330677 481.494113 
L 47.961753 479.96186 
L 48.592829 479.621416 
L 49.223904 480.308191 
L 49.85498 482.651365 
L 50.486056 485.479608 
L 51.748207 487.3093 
L 52.379283 487.75802 
L 53.010359 487.986604 
L 53.641434 490.19616 
L 54.27251 490.412969 
L 54.903586 490.775683 
L 55.534661 490.72116 
L 56.165737 489.61459 
L 56.796813 487.323123 
L 57.427888 487.717321 
L 58.058964 486.374488 
L 58.69004 484.613652 
L 59.321116 484.948976 
L 59.952191 478.923123 
L 60.583267 476.664676 
L 61.214343 475.179266 
L 62.476494 467.025 
L 63.10757 464.435836 
L 64.369721 456.51197 
L 65.000797 445.09649 
L 65.631873 451.366062 
L 66.262948 448.119104 
L 66.894024 456.162579 
L 67.5251 462.45128 
L 68.156175 464.782679 
L 69.418327 463.042321 
L 70.049402 461.397952 
L 70.680478 462.100085 
L 71.311554 464.163225 
L 71.942629 470.490102 
L 72.573705 474.002048 
L 73.204781 475.823038 
L 73.835857 474.644283 
L 74.466932 473.17244 
L 75.098008 473.227474 
L 75.729084 473.740444 
L 76.360159 473.498805 
L 76.991235 475.290358 
L 77.622311 473.432509 
L 78.253386 472.241212 
L 78.884462 472.440102 
L 79.515538 473.984642 
L 80.777689 479.821843 
L 81.408765 478.753669 
L 82.039841 478.670734 
L 82.670916 480.704181 
L 83.301992 483.26186 
L 83.933068 482.768345 
L 84.564143 481.926195 
L 85.195219 470.880461 
L 85.826295 465.647611 
L 86.457371 464.38413 
L 87.088446 448.680152 
L 87.719522 441.421741 
L 88.350598 449.460759 
L 88.981673 451.538029 
L 89.612749 451.99406 
L 90.243825 458.047015 
L 90.8749 461.655973 
L 91.505976 463.858362 
L 92.137052 471.511689 
L 92.768127 474.70802 
L 93.399203 473.34215 
L 94.030279 472.727304 
L 94.661355 472.748294 
L 95.29243 472.161604 
L 95.923506 472.646928 
L 96.554582 474.492235 
L 97.185657 476.896587 
L 97.816733 478.494369 
L 98.447809 479.632423 
L 99.70996 486.431058 
L 100.341036 488.123038 
L 100.972112 492.832167 
L 101.603187 490.331314 
L 102.234263 490.38558 
L 102.865339 487.986604 
L 103.496414 487.015188 
L 104.12749 485.273549 
L 104.758566 484.461348 
L 105.389641 486.217833 
L 106.020717 484.033874 
L 106.651793 483.091894 
L 107.282869 482.451962 
L 108.54502 481.493857 
L 109.176096 479.372867 
L 109.807171 478.770819 
L 110.438247 487.799232 
L 111.069323 482.299403 
L 111.700398 481.645904 
L 112.331474 482.695904 
L 112.96255 486.039164 
L 114.224701 497.582253 
L 114.855777 497.650085 
L 115.486853 498.925341 
L 116.117928 500.617833 
L 117.38008 499.559642 
L 118.011155 495.60256 
L 118.642231 494.655461 
L 119.904382 497.397696 
L 120.535458 497.90785 
L 121.166534 490.918003 
L 121.79761 488.673635 
L 123.059761 474.850341 
L 123.690837 470.526706 
L 124.321912 469.439334 
L 124.952988 467.254096 
L 125.584064 464.655205 
L 126.215139 462.925341 
L 127.477291 463.330546 
L 128.739442 460.469027 
L 129.370518 459.945307 
L 130.001594 463.883703 
L 130.632669 464.253328 
L 131.263745 463.293174 
L 131.894821 461.825939 
L 132.525896 459.814249 
L 133.156972 459.011007 
L 133.788048 459.890017 
L 134.419124 462.360154 
L 135.050199 466.298294 
L 135.681275 463.850427 
L 136.312351 463.089676 
L 136.943426 461.861263 
L 137.574502 462.726451 
L 138.205578 461.094113 
L 138.836653 457.609305 
L 140.098805 448.446826 
L 140.72988 449.581271 
L 141.360956 445.427934 
L 141.992032 442.282142 
L 142.623108 440.790705 
L 143.254183 433.401164 
L 143.885259 436.982269 
L 144.516335 450.068704 
L 145.14741 460.699147 
L 145.778486 463.917747 
L 146.409562 469.366638 
L 147.040637 471.142321 
L 147.671713 477.370648 
L 148.302789 473.776792 
L 148.933865 474.13285 
L 149.56494 470.429949 
L 150.196016 468.798123 
L 151.458167 477.154096 
L 152.089243 475.454693 
L 152.720319 470.816212 
L 153.351394 468.424915 
L 153.98247 466.532765 
L 154.613546 464.192918 
L 155.244622 462.530631 
L 155.875697 464.497782 
L 156.506773 463.277816 
L 157.137849 462.32227 
L 157.768924 461.597099 
L 158.4 471.064249 
L 159.662151 481.745478 
L 160.293227 483.507594 
L 160.924303 483.165358 
L 161.555378 483.133874 
L 162.186454 482.890188 
L 162.81753 480.312031 
L 163.448606 479.344966 
L 164.079681 477.744625 
L 164.710757 476.770904 
L 165.341833 474.45256 
L 165.972908 474.182765 
L 166.603984 476.177048 
L 167.23506 477.535495 
L 167.866135 476.684386 
L 168.497211 476.486775 
L 169.128287 477.211433 
L 169.759363 478.524573 
L 170.390438 478.270904 
L 171.021514 478.632082 
L 171.65259 479.492406 
L 172.283665 482.378498 
L 172.914741 483.073976 
L 173.545817 482.536177 
L 174.176892 482.460666 
L 174.807968 478.749573 
L 175.439044 475.750853 
L 177.332271 487.739334 
L 177.963347 489.768942 
L 178.594422 490.721672 
L 179.225498 489.559044 
L 179.856574 487.517662 
L 180.487649 488.139676 
L 181.118725 487.216894 
L 181.749801 486.518089 
L 183.011952 492.027645 
L 183.643028 493.830717 
L 184.905179 493.085068 
L 186.167331 496.861177 
L 186.798406 496.193345 
L 188.060558 492.539846 
L 188.691633 491.359556 
L 189.322709 488.743259 
L 189.953785 488.156314 
L 190.584861 486.576962 
L 191.215936 491.026024 
L 193.109163 492.97628 
L 193.740239 492.440273 
L 194.371315 493.851195 
L 195.633466 495.401621 
L 196.264542 494.232338 
L 196.895618 494.112543 
L 197.526693 493.592406 
L 198.157769 495.625085 
L 198.788845 496.415273 
L 199.41992 497.950597 
L 200.050996 501.109556 
L 200.682072 505.407338 
L 201.313147 506.186007 
L 201.944223 507.196075 
L 202.575299 508.718601 
L 203.206375 507.275683 
L 203.83745 504.163311 
L 204.468526 502.537116 
L 206.361753 505.600597 
L 206.992829 506.67901 
L 207.623904 509.966468 
L 208.886056 510.783276 
L 209.517131 511.741894 
L 210.148207 515.982082 
L 210.779283 519.345307 
L 211.410359 521.090017 
L 212.041434 524.647014 
L 212.67251 525.825 
L 213.303586 527.467065 
L 213.934661 528.713652 
L 214.565737 529.071758 
L 215.196813 529.596502 
L 215.827888 530.542065 
L 216.458964 532.357935 
L 217.09004 530.044454 
L 217.721116 528.234727 
L 218.352191 525.294369 
L 218.983267 524.150171 
L 220.245418 519.622526 
L 220.876494 520.262713 
L 222.138645 518.994625 
L 222.769721 516.518345 
L 224.031873 514.376877 
L 224.662948 515.402816 
L 225.294024 515.427901 
L 225.9251 515.040614 
L 226.556175 515.702816 
L 227.187251 516.133106 
L 227.818327 515.570478 
L 228.449402 515.15785 
L 229.080478 514.166724 
L 229.711554 514.22227 
L 230.342629 511.991212 
L 230.973705 511.270392 
L 232.235857 511.674573 
L 232.866932 509.833618 
L 233.498008 508.979181 
L 234.129084 507.14616 
L 234.760159 504.392662 
L 236.022311 502.159044 
L 236.653386 501.904096 
L 237.284462 500.760666 
L 237.915538 500.720734 
L 238.546614 499.750341 
L 239.177689 498.222184 
L 239.808765 505.361519 
L 240.439841 509.094113 
L 241.070916 509.258703 
L 241.701992 507.930973 
L 242.333068 507.402133 
L 242.964143 508.83942 
L 243.595219 509.463481 
L 244.226295 511.090188 
L 244.857371 511.348464 
L 245.488446 510.887201 
L 246.119522 509.581997 
L 246.750598 509.655717 
L 247.381673 511.002645 
L 248.012749 510.358874 
L 248.643825 513.412116 
L 249.2749 515.785495 
L 249.905976 516.056826 
L 250.537052 514.687628 
L 251.168127 514.20384 
L 251.799203 515.073123 
L 252.430279 515.207765 
L 253.061355 517.639249 
L 254.323506 518.456826 
L 254.954582 518.333447 
L 256.216733 515.382082 
L 256.847809 514.732679 
L 257.478884 515.3593 
L 258.10996 513.697526 
L 258.741036 513.361177 
L 259.372112 512.242065 
L 260.003187 510.864676 
L 260.634263 507.658362 
L 261.265339 506.320648 
L 261.896414 505.782338 
L 262.52749 506.033703 
L 263.158566 505.741126 
L 263.789641 505.887799 
L 264.420717 505.276792 
L 265.051793 506.285068 
L 265.682869 506.668003 
L 266.313944 510.790188 
L 266.94502 511.638481 
L 267.576096 509.046246 
L 268.207171 507.850085 
L 268.838247 507.512969 
L 269.469323 506.527986 
L 270.100398 506.35802 
L 270.731474 508.468771 
L 271.36255 509.869198 
L 272.624701 508.382765 
L 273.255777 506.991809 
L 273.886853 506.229778 
L 274.517928 505.163908 
L 275.149004 502.663823 
L 275.78008 501.208618 
L 277.042231 499.022867 
L 277.673307 499.590614 
L 278.304382 500.631911 
L 278.935458 500.694113 
L 279.566534 500.924488 
L 280.828685 480.140273 
L 281.459761 474.701365 
L 282.090837 474.50657 
L 283.352988 474.777133 
L 283.984064 475.161604 
L 284.615139 474.46843 
L 285.246215 474.193003 
L 285.877291 472.048208 
L 286.508367 469.009556 
L 287.139442 467.119966 
L 288.401594 462.047867 
L 289.032669 461.703584 
L 290.294821 459.746672 
L 290.925896 459.712372 
L 291.556972 454.818034 
L 292.188048 456.47895 
L 292.819124 455.560559 
L 293.450199 462.48814 
L 294.081275 464.081314 
L 294.712351 466.486177 
L 295.974502 467.800085 
L 297.236653 466.413481 
L 297.867729 466.772355 
L 298.498805 467.522867 
L 299.12988 466.688652 
L 299.760956 465.44616 
L 300.392032 462.795563 
L 301.023108 460.65 
L 301.654183 456.124184 
L 302.285259 453.099642 
L 302.916335 436.459783 
L 303.54741 429.718403 
L 304.809562 403.869815 
L 305.440637 396.302979 
L 306.071713 383.81022 
L 307.333865 365.267515 
L 307.96494 361.447746 
L 308.596016 369.325395 
L 309.227092 371.045433 
L 309.858167 364.472308 
L 311.120319 342.478194 
L 311.751394 326.534561 
L 312.38247 305.120747 
L 313.013546 300.885193 
L 313.644622 300.559069 
L 314.275697 274.127992 
L 314.906773 254.538793 
L 315.537849 255.152946 
L 316.8 261.32368 
L 318.062151 224.193067 
L 318.693227 213.565499 
L 319.324303 211.939579 
L 319.955378 214.303373 
L 320.586454 211.317877 
L 321.21753 203.381497 
L 321.848606 174.095013 
L 322.479681 157.107117 
L 323.741833 67.648222 
L 324.372908 79.406163 
L 325.003984 82.831546 
L 325.63506 84.79886 
L 326.266135 80.783824 
L 326.897211 78.243336 
L 327.528287 78.470913 
L 328.159363 71.460392 
L 328.790438 68.956552 
L 330.05259 45.216785 
L 330.683665 41.915055 
L 331.314741 40.180105 
L 331.945817 47.232881 
L 333.207968 64.596349 
L 333.839044 89.894708 
L 334.47012 108.672019 
L 335.101195 98.665507 
L 335.732271 93.487115 
L 336.363347 90.047315 
L 336.994422 94.186192 
L 337.625498 101.577227 
L 338.256574 133.693906 
L 338.887649 139.468458 
L 339.518725 146.272111 
L 340.149801 178.149671 
L 340.780876 202.175166 
L 341.411952 266.379709 
L 342.043028 311.246659 
L 342.674104 377.8712 
L 343.305179 369.968904 
L 343.936255 366.223865 
L 344.567331 360.102416 
L 345.829482 272.770547 
L 346.460558 259.064706 
L 347.091633 259.613852 
L 347.722709 266.255088 
L 348.353785 258.077773 
L 348.984861 276.908181 
L 349.615936 302.038224 
L 350.247012 300.299382 
L 350.878088 278.981865 
L 351.509163 253.113203 
L 352.140239 238.978075 
L 352.771315 220.329412 
L 354.033466 137.492119 
L 354.664542 114.620618 
L 355.295618 100.507309 
L 355.926693 91.996061 
L 356.557769 89.72987 
L 357.188845 103.236355 
L 357.81992 98.63958 
L 358.450996 103.22869 
L 359.082072 100.558832 
L 359.713147 82.124477 
L 360.344223 80.096228 
L 360.975299 72.841744 
L 361.606375 72.925262 
L 362.23745 89.966909 
L 364.130677 77.207818 
L 364.761753 75.506804 
L 365.392829 67.2772 
L 366.023904 64.880846 
L 366.65498 64.031013 
L 367.286056 66.74468 
L 367.917131 65.973051 
L 368.548207 66.329205 
L 369.179283 64.025233 
L 369.810359 63.834378 
L 370.441434 62.506242 
L 371.07251 59.899346 
L 371.703586 60.324337 
L 372.334661 60.212226 
L 372.965737 59.9477 
L 373.596813 62.153799 
L 374.227888 58.546324 
L 374.858964 47.94854 
L 375.49004 45.34671 
L 376.121116 43.94059 
L 376.752191 45.471783 
L 377.383267 43.675373 
L 378.014343 35.899844 
L 378.645418 33.366158 
L 379.276494 25.472335 
L 379.90757 25.729479 
L 380.538645 28.696932 
L 381.169721 25.97681 
L 381.800797 25.311653 
L 382.431873 24.333233 
L 383.062948 23.081017 
L 383.694024 22.664982 
L 384.3251 22.897352 
L 384.956175 22.525973 
L 385.587251 25.027919 
L 386.218327 24.621091 
L 386.849402 26.263899 
L 387.480478 23.634271 
L 388.111554 18.414408 
L 389.373705 10.035107 
L 390.004781 5.252757 
L 390.635857 3.602241 
L 391.898008 2.77369 
L 392.529084 1.684634 
L 394.422311 1.170965 
L 395.684462 1.284457 
L 396.315538 0.869487 
L 398.208765 1.017145 
L 398.839841 1.476045 
L 399.470916 1.254142 
L 400.101992 1.38339 
L 401.364143 1.398989 
L 401.995219 1.665862 
L 403.257371 1.496421 
L 404.519522 1.444667 
L 405.781673 1.835966 
L 406.412749 2.237985 
L 407.043825 1.477254 
L 407.6749 0.993919 
L 408.305976 0.748998 
L 408.937052 0.383536 
L 410.199203 0.190774 
L 412.09243 0.07687 
L 417.772112 0.037261 
L 419.034263 0.172879 
L 420.92749 0.088041 
L 422.820717 0.035192 
L 434.811155 0.01805 
L 530.103586 0.000465 
L 782.533865 0.039731 
L 783.796016 0.121519 
L 785.058167 0.355304 
L 786.320319 0.225593 
L 786.951394 0.390424 
L 788.844622 0.456704 
L 790.106773 0.299208 
L 791.368924 0.204933 
L 791.368924 0.204933 
" clip-path="url(#p98274335ef)" style="fill: none; stroke: #000000; stroke-width: 1.5; stroke-linecap: square"/>
   </g>
   <g id="line2d_3">
    <path d="M 0 459 
L 0.631076 459 
L 1.262151 458.082336 
L 2.524303 461.95361 
L 3.155378 462.249706 
L 3.786454 461.467804 
L 4.41753 461.492815 
L 5.048606 460.346945 
L 5.679681 460.254225 
L 6.310757 460.901227 
L 6.941833 462.736441 
L 7.572908 463.916428 
L 8.203984 463.310943 
L 9.466135 469.719808 
L 10.097211 471.154864 
L 10.728287 471.164685 
L 11.359363 471.344967 
L 12.621514 468.805013 
L 13.25259 468.078459 
L 13.883665 467.759937 
L 15.145817 463.810246 
L 15.776892 461.651631 
L 16.407968 460.947859 
L 17.039044 461.462124 
L 17.67012 463.380772 
L 18.932271 465.004322 
L 19.563347 466.219188 
L 20.194422 466.562715 
L 21.456574 467.921062 
L 22.087649 466.086285 
L 22.718725 465.250283 
L 23.980876 467.683316 
L 24.611952 469.014319 
L 25.874104 472.716287 
L 26.505179 473.189742 
L 27.136255 474.461009 
L 27.767331 476.332701 
L 28.398406 477.312812 
L 29.029482 481.210188 
L 29.660558 486.688905 
L 30.291633 489.509353 
L 30.922709 493.248699 
L 31.553785 493.953348 
L 32.184861 491.98486 
L 32.815936 488.192004 
L 33.447012 486.327776 
L 34.078088 486.237396 
L 34.709163 484.252013 
L 35.340239 483.324061 
L 35.971315 483.530086 
L 36.60239 482.891854 
L 37.233466 483.607655 
L 37.864542 484.551418 
L 38.495618 484.490774 
L 39.126693 483.571688 
L 39.757769 484.177887 
L 40.388845 485.493537 
L 41.650996 487.409494 
L 42.282072 487.520347 
L 42.913147 486.494909 
L 43.544223 485.804977 
L 44.806375 483.488145 
L 45.43745 484.888858 
L 46.068526 484.628392 
L 46.699602 483.353288 
L 47.330677 482.543045 
L 47.961753 481.335023 
L 48.592829 480.733181 
L 49.223904 480.810006 
L 49.85498 482.030154 
L 50.486056 483.868324 
L 51.748207 485.843936 
L 52.379283 486.527738 
L 53.010359 487.015608 
L 53.641434 488.588786 
L 54.903586 489.762477 
L 55.534661 490.027375 
L 56.165737 489.58619 
L 56.796813 488.261269 
L 57.427888 488.226105 
L 58.058964 487.301643 
L 58.69004 486.013606 
L 59.321116 485.811019 
L 59.952191 482.035717 
L 60.583267 479.80379 
L 61.214343 478.015582 
L 63.10757 468.561006 
L 63.738645 464.935428 
L 64.369721 462.316203 
L 65.000797 458.553955 
L 65.631873 458.23004 
L 66.262948 454.265951 
L 66.894024 457.117305 
L 67.5251 460.825964 
L 68.156175 462.64117 
L 68.787251 462.775608 
L 69.418327 462.541615 
L 70.049402 461.699379 
L 70.680478 462.004175 
L 71.311554 463.218559 
L 71.942629 467.193722 
L 72.573705 470.221033 
L 73.204781 472.4011 
L 73.835857 472.720736 
L 74.466932 472.428767 
L 75.098008 472.689243 
L 75.729084 473.152176 
L 76.360159 473.196497 
L 76.991235 474.352877 
L 78.253386 472.830786 
L 78.884462 472.786382 
L 79.515538 473.60075 
L 80.777689 477.607713 
L 81.408765 477.638592 
L 82.039841 477.916983 
L 82.670916 479.32217 
L 83.301992 481.217708 
L 83.933068 481.526432 
L 84.564143 481.401283 
L 85.195219 475.092457 
L 85.826295 470.803056 
L 86.457371 468.558029 
L 87.088446 462.167881 
L 87.719522 458.479306 
L 88.350598 458.24473 
L 89.612749 455.631176 
L 90.8749 460.397788 
L 91.505976 462.039787 
L 92.137052 467.019214 
L 92.768127 470.170811 
L 94.661355 471.534833 
L 95.29243 471.547472 
L 95.923506 472.016367 
L 96.554582 473.285309 
L 97.816733 476.581964 
L 98.447809 477.824046 
L 100.341036 485.113018 
L 100.972112 488.762923 
L 101.603187 488.501582 
L 102.234263 489.069586 
L 102.865339 488.052368 
L 103.496414 487.474185 
L 104.12749 486.335864 
L 104.758566 485.568586 
L 105.389641 486.294125 
L 106.020717 485.020411 
L 107.282869 483.508275 
L 108.54502 482.37583 
L 109.176096 480.87191 
L 109.807171 480.073132 
L 110.438247 484.978391 
L 111.069323 482.565027 
L 111.700398 482.097969 
L 112.331474 482.570817 
L 112.96255 484.561317 
L 114.224701 492.782363 
L 114.855777 494.221656 
L 116.117928 497.83036 
L 116.749004 498.311065 
L 117.38008 498.536191 
L 118.011155 496.526869 
L 118.642231 495.720915 
L 119.273307 496.172523 
L 119.904382 496.989825 
L 120.535458 497.412028 
L 121.166534 493.491858 
L 121.79761 491.444415 
L 123.690837 476.760767 
L 124.952988 471.591472 
L 125.584064 468.796664 
L 126.215139 466.549411 
L 126.846215 465.596956 
L 127.477291 464.962304 
L 128.739442 462.246097 
L 129.370518 461.385829 
L 130.001594 463.232283 
L 130.632669 463.597991 
L 131.263745 463.201399 
L 131.894821 462.342327 
L 132.525896 460.99954 
L 133.156972 460.173226 
L 133.788048 460.33941 
L 134.419124 461.644412 
L 135.050199 464.163956 
L 135.681275 463.357936 
L 136.312351 463.057745 
L 136.943426 462.343986 
L 137.574502 462.702817 
L 138.205578 461.750914 
L 139.467729 458.142504 
L 140.098805 453.987489 
L 140.72988 453.018156 
L 141.992032 446.519366 
L 142.623108 444.423734 
L 143.254183 439.031594 
L 143.885259 439.464596 
L 144.516335 446.370364 
L 145.14741 455.613783 
L 146.409562 464.738215 
L 147.040637 467.124573 
L 147.671713 471.937069 
L 148.302789 471.410175 
L 148.933865 472.308316 
L 149.56494 470.679223 
L 150.196016 469.663281 
L 150.827092 471.859689 
L 151.458167 474.663928 
L 152.089243 474.42126 
L 152.720319 472.042398 
L 155.244622 464.981691 
L 155.875697 465.427593 
L 157.137849 463.546699 
L 157.768924 462.743484 
L 158.4 467.948796 
L 159.662151 476.412049 
L 160.293227 478.999201 
L 160.924303 480.107056 
L 161.555378 480.962327 
L 162.186454 481.44144 
L 162.81753 480.349371 
L 163.448606 479.78851 
L 164.710757 477.907444 
L 165.341833 476.244394 
L 165.972908 475.580204 
L 167.23506 477.128671 
L 167.866135 476.768527 
L 168.497211 476.625725 
L 169.128287 477.002925 
L 169.759363 477.820545 
L 170.390438 477.863235 
L 171.021514 478.18409 
L 171.65259 478.813722 
L 172.283665 480.698939 
L 172.914741 481.596173 
L 174.176892 481.910887 
L 175.439044 477.814935 
L 176.07012 479.561147 
L 177.963347 486.885222 
L 178.594422 488.294463 
L 179.225498 488.329423 
L 179.856574 487.488284 
L 180.487649 487.855258 
L 181.749801 486.948103 
L 182.380876 488.482199 
L 183.643028 491.885503 
L 184.274104 492.207084 
L 184.905179 492.385293 
L 186.167331 495.193863 
L 186.798406 495.288677 
L 187.429482 494.4493 
L 188.691633 492.444128 
L 189.322709 490.599121 
L 189.953785 489.720124 
L 190.584861 488.346304 
L 191.215936 490.44852 
L 193.109163 492.190189 
L 193.740239 492.100222 
L 195.00239 493.744855 
L 195.633466 494.426464 
L 196.264542 494.023457 
L 196.895618 494.010864 
L 197.526693 493.736781 
L 198.157769 494.888359 
L 198.788845 495.568972 
L 199.41992 496.726641 
L 200.050996 498.944677 
L 200.682072 502.109008 
L 202.575299 506.464568 
L 203.206375 506.28424 
L 203.83745 504.757514 
L 204.468526 503.635747 
L 205.099602 503.897852 
L 205.730677 504.370409 
L 206.992829 505.875287 
L 207.623904 508.056083 
L 208.25498 508.901942 
L 208.886056 509.558159 
L 209.517131 510.480182 
L 210.779283 516.074849 
L 211.410359 518.054547 
L 212.041434 521.026806 
L 213.934661 526.209886 
L 215.827888 529.076513 
L 216.458964 530.587919 
L 217.721116 528.80922 
L 218.352191 526.939375 
L 218.983267 525.8089 
L 220.245418 522.060387 
L 220.876494 521.731488 
L 222.138645 520.178018 
L 222.769721 518.380239 
L 224.031873 516.040271 
L 224.662948 516.142584 
L 225.294024 515.926211 
L 225.9251 515.541321 
L 227.187251 515.988275 
L 228.449402 515.401749 
L 229.080478 514.738703 
L 229.711554 514.600339 
L 230.342629 513.180282 
L 230.973705 512.402568 
L 232.235857 512.096424 
L 232.866932 510.895509 
L 233.498008 510.084571 
L 234.129084 508.686751 
L 234.760159 506.620086 
L 236.022311 504.050485 
L 236.653386 503.341826 
L 237.284462 502.245521 
L 237.915538 501.779203 
L 238.546614 500.89317 
L 239.177689 499.654273 
L 239.808765 503.402479 
L 240.439841 506.154 
L 241.070916 507.100683 
L 241.701992 506.94344 
L 242.333068 506.908875 
L 242.964143 507.886893 
L 243.595219 508.520727 
L 244.226295 509.73986 
L 244.857371 510.299027 
L 245.488446 510.348419 
L 246.119522 509.751175 
L 246.750598 509.750431 
L 247.381673 510.519949 
L 248.012749 510.295161 
L 249.2749 513.903691 
L 249.905976 514.612826 
L 250.537052 514.231007 
L 251.168127 514.080077 
L 251.799203 514.629139 
L 252.430279 514.844348 
L 253.061355 516.374521 
L 254.323506 517.547799 
L 254.954582 517.747171 
L 255.585657 517.102585 
L 256.216733 516.15025 
L 256.847809 515.55197 
L 257.478884 515.68252 
L 258.10996 514.626252 
L 258.741036 514.15953 
L 259.372112 513.270962 
L 260.003187 512.164923 
L 260.634263 509.908423 
L 261.265339 508.465931 
L 261.896414 507.520158 
L 262.52749 507.159158 
L 263.158566 506.648986 
L 263.789641 506.462776 
L 264.420717 505.927603 
L 265.051793 506.317648 
L 265.682869 506.519753 
L 266.313944 508.967773 
L 266.94502 509.988344 
L 267.576096 508.942065 
L 268.207171 508.264312 
L 268.838247 507.937488 
L 269.469323 507.228737 
L 270.100398 506.921379 
L 271.36255 508.965965 
L 271.993625 508.845606 
L 272.624701 508.471405 
L 273.255777 507.63199 
L 273.886853 506.999372 
L 274.517928 506.150566 
L 275.149004 504.39579 
L 276.411155 501.823007 
L 277.042231 500.696452 
L 277.673307 500.540123 
L 278.304382 500.870797 
L 278.935458 500.835316 
L 279.566534 500.92726 
L 280.19761 495.233624 
L 280.828685 487.555921 
L 281.459761 482.18372 
L 282.090837 479.86601 
L 282.721912 478.38181 
L 283.352988 477.353764 
L 283.984064 476.818906 
L 284.615139 475.924068 
L 285.246215 475.315013 
L 285.877291 473.69483 
L 286.508367 471.398582 
L 287.139442 469.564816 
L 288.401594 464.994622 
L 290.294821 461.517111 
L 290.925896 460.979294 
L 291.556972 459.370422 
L 292.188048 459.167463 
L 292.819124 458.033625 
L 293.450199 461.133787 
L 294.081275 462.447383 
L 294.712351 464.318718 
L 295.974502 466.230644 
L 296.605578 466.254431 
L 297.236653 466.099339 
L 297.867729 466.3967 
L 298.498805 466.954838 
L 299.12988 466.637411 
L 299.760956 465.934781 
L 301.023108 462.576714 
L 301.654183 460.49667 
L 302.285259 459.19492 
L 302.916335 447.962342 
L 303.54741 440.638648 
L 307.333865 378.833116 
L 307.96494 372.515232 
L 308.596016 373.831945 
L 309.227092 373.437299 
L 309.858167 368.782347 
L 311.120319 352.147888 
L 311.751394 339.757587 
L 312.38247 322.970398 
L 313.013546 315.091611 
L 313.644622 310.655048 
L 314.906773 274.652366 
L 315.537849 268.99245 
L 316.168924 266.659638 
L 316.8 265.971629 
L 317.431076 254.045129 
L 318.062151 239.143465 
L 318.693227 228.16178 
L 319.324303 222.716246 
L 319.955378 220.82009 
L 320.586454 217.037202 
L 321.21753 210.547602 
L 321.848606 190.504709 
L 322.479681 174.905506 
L 323.741833 98.011546 
L 324.372908 96.492298 
L 325.003984 93.418828 
L 325.63506 91.411677 
L 326.266135 86.904736 
L 326.897211 83.436955 
L 327.528287 81.972869 
L 328.159363 76.538119 
L 328.790438 73.335144 
L 329.421514 64.994745 
L 330.05259 54.365386 
L 330.683665 49.243349 
L 331.314741 45.783745 
L 331.945817 48.395181 
L 332.576892 53.095358 
L 333.207968 58.63098 
L 334.47012 87.223182 
L 335.101195 87.791016 
L 335.732271 87.934387 
L 336.363347 87.510226 
L 336.994422 90.576551 
L 337.625498 95.769572 
L 338.256574 114.726274 
L 339.518725 131.597143 
L 340.780876 172.879654 
L 342.674104 305.267348 
L 343.305179 321.709361 
L 343.936255 333.491999 
L 344.567331 339.499486 
L 345.198406 318.814226 
L 345.829482 293.026385 
L 346.460558 279.077822 
L 347.091633 273.827348 
L 347.722709 274.013335 
L 348.353785 267.083482 
L 348.984861 275.79382 
L 349.615936 290.935153 
L 350.247012 293.231642 
L 350.878088 282.825368 
L 351.509163 266.17218 
L 352.140239 253.675208 
L 352.771315 237.793699 
L 354.664542 144.530814 
L 355.295618 125.441587 
L 355.926693 111.845486 
L 356.557769 104.160229 
L 357.188845 108.170403 
L 357.81992 103.867299 
L 358.450996 104.986939 
L 359.082072 102.745113 
L 359.713147 90.60097 
L 360.344223 86.633872 
L 360.975299 80.008784 
L 361.606375 77.804391 
L 362.23745 86.268177 
L 362.868526 84.716008 
L 363.499602 82.798886 
L 364.130677 79.724581 
L 364.761753 77.926319 
L 365.392829 72.172456 
L 366.023904 69.206725 
L 366.65498 67.37792 
L 367.286056 68.005583 
L 367.917131 67.163611 
L 368.548207 66.998343 
L 369.179283 65.411218 
L 369.810359 64.896374 
L 370.441434 63.774476 
L 371.07251 61.836485 
L 372.334661 61.058264 
L 372.965737 60.637214 
L 373.596813 61.715805 
L 374.227888 59.704881 
L 374.858964 52.822039 
L 375.49004 49.705792 
L 376.121116 47.50354 
L 376.752191 47.369093 
L 377.383267 45.707719 
L 378.014343 40.221174 
L 378.645418 37.278405 
L 379.276494 30.82918 
L 379.90757 29.311167 
L 380.538645 30.061148 
L 381.169721 27.967667 
L 382.431873 25.845382 
L 383.062948 24.600232 
L 383.694024 23.869391 
L 384.3251 23.622495 
L 384.956175 23.173765 
L 385.587251 24.436491 
L 386.218327 24.356358 
L 386.849402 25.357413 
L 387.480478 24.067973 
L 388.742629 17.399595 
L 389.373705 13.299769 
L 390.004781 8.390836 
L 390.635857 5.8681 
L 391.266932 4.74193 
L 391.898008 3.889788 
L 392.529084 2.631152 
L 393.791235 1.818381 
L 394.422311 1.532789 
L 395.684462 1.418617 
L 396.315538 1.093716 
L 397.577689 0.949417 
L 398.208765 1.023484 
L 398.839841 1.267378 
L 399.470916 1.201957 
L 400.733068 1.302315 
L 401.364143 1.337956 
L 401.995219 1.49984 
L 405.150598 1.532603 
L 406.412749 1.943228 
L 408.937052 0.612545 
L 410.199203 0.303834 
L 411.461355 0.140236 
L 416.50996 0.017271 
L 427.869323 0.052651 
L 439.859761 0.038226 
L 786.320319 0.190616 
L 788.213546 0.372951 
L 789.475697 0.344264 
L 791.368924 0.24217 
L 791.368924 0.24217 
" clip-path="url(#p98274335ef)" style="fill: none; stroke: #000000; stroke-width: 1.5; stroke-linecap: square"/>
   </g>
   <g id="line2d_4">
    <path d="M 0 459 
L 0.631076 459 
L 1.262151 458.149028 
L 2.524303 461.477845 
L 3.155378 461.836926 
L 3.786454 461.363611 
L 4.41753 461.404828 
L 5.048606 460.645428 
L 5.679681 460.524342 
L 6.310757 460.885727 
L 6.941833 462.033729 
L 7.572908 462.882613 
L 8.203984 462.702937 
L 9.466135 466.899562 
L 10.097211 468.20645 
L 11.359363 469.203424 
L 13.25259 467.991892 
L 13.883665 467.824543 
L 14.514741 466.774889 
L 15.776892 464.030396 
L 16.407968 463.263105 
L 17.039044 463.175976 
L 17.67012 463.95077 
L 18.932271 464.732648 
L 19.563347 465.443954 
L 20.194422 465.759619 
L 21.456574 466.794585 
L 22.087649 465.980353 
L 22.718725 465.54365 
L 24.611952 467.733669 
L 25.874104 470.259142 
L 26.505179 470.905315 
L 27.136255 471.956658 
L 27.767331 473.372652 
L 28.398406 474.378704 
L 29.029482 476.957751 
L 29.660558 480.605597 
L 30.291633 483.101099 
L 30.922709 486.150472 
L 31.553785 487.661298 
L 32.184861 487.589981 
L 32.815936 486.22718 
L 33.447012 485.529316 
L 34.078088 485.609335 
L 34.709163 484.637535 
L 35.340239 484.082588 
L 35.971315 484.086566 
L 36.60239 483.660699 
L 37.233466 483.93641 
L 37.864542 484.404751 
L 38.495618 484.403533 
L 39.126693 483.932855 
L 39.757769 484.223789 
L 41.650996 486.248742 
L 42.282072 486.509522 
L 43.544223 485.814955 
L 44.806375 484.474638 
L 45.43745 485.081991 
L 46.068526 484.914213 
L 47.961753 482.790825 
L 48.592829 482.235205 
L 49.223904 482.032258 
L 49.85498 482.491798 
L 50.486056 483.412184 
L 52.379283 485.238623 
L 53.010359 485.711879 
L 53.641434 486.775345 
L 54.903586 487.986064 
L 55.534661 488.417074 
L 56.165737 488.433621 
L 56.796813 487.896632 
L 57.427888 487.932613 
L 58.058964 487.471916 
L 58.69004 486.74201 
L 59.321116 486.515825 
L 59.952191 484.352445 
L 61.214343 481.32687 
L 62.476494 476.508174 
L 63.10757 474.176128 
L 65.000797 465.964665 
L 65.631873 464.775761 
L 66.262948 463.10098 
L 66.894024 462.716722 
L 68.156175 463.949511 
L 68.787251 463.816618 
L 69.418327 463.526569 
L 70.049402 462.904852 
L 70.680478 462.869992 
L 71.311554 463.383436 
L 72.573705 467.401226 
L 73.204781 469.017738 
L 73.835857 469.707193 
L 74.466932 470.006553 
L 76.360159 471.418076 
L 76.991235 472.31404 
L 78.253386 472.003767 
L 78.884462 472.098928 
L 79.515538 472.636182 
L 80.777689 475.22078 
L 82.039841 476.091951 
L 82.670916 477.154759 
L 83.301992 478.539058 
L 83.933068 479.143614 
L 84.564143 479.46444 
L 85.195219 476.359649 
L 85.826295 473.837707 
L 86.457371 472.147124 
L 87.088446 468.115052 
L 87.719522 465.35669 
L 89.612749 462.166227 
L 90.243825 461.933094 
L 90.8749 462.360694 
L 91.505976 462.947513 
L 92.137052 465.509123 
L 92.768127 467.464632 
L 94.030279 468.787704 
L 94.661355 469.411984 
L 95.29243 469.748294 
L 95.923506 470.280708 
L 96.554582 471.239892 
L 98.447809 474.852123 
L 100.341036 480.528153 
L 100.972112 483.2291 
L 101.603187 483.960337 
L 102.234263 484.991698 
L 103.496414 485.23431 
L 104.758566 484.761922 
L 105.389641 485.291638 
L 106.651793 484.366049 
L 108.54502 483.219849 
L 109.176096 482.286695 
L 109.807171 481.648216 
L 110.438247 484.080342 
L 111.069323 482.932738 
L 111.700398 482.634083 
L 112.331474 482.812729 
L 112.96255 483.860353 
L 113.593625 486.131607 
L 114.224701 488.833782 
L 115.486853 491.849526 
L 116.117928 493.516198 
L 116.749004 494.467387 
L 117.38008 495.20281 
L 118.011155 494.642609 
L 118.642231 494.504759 
L 119.273307 494.937953 
L 119.904382 495.571098 
L 120.535458 496.030567 
L 121.166534 494.108003 
L 121.79761 492.893538 
L 122.428685 490.035711 
L 123.690837 483.292324 
L 126.846215 471.879447 
L 127.477291 470.54584 
L 128.739442 467.350637 
L 129.370518 466.083599 
L 130.001594 466.352096 
L 130.632669 466.055398 
L 131.263745 465.453462 
L 131.894821 464.631912 
L 132.525896 463.532753 
L 133.156972 462.667527 
L 133.788048 462.341156 
L 134.419124 462.710021 
L 135.050199 463.888889 
L 135.681275 463.471109 
L 136.312351 463.2645 
L 136.943426 462.821441 
L 137.574502 462.918284 
L 138.205578 462.347489 
L 140.098805 459.325276 
L 140.72988 458.433112 
L 141.992032 452.982542 
L 142.623108 450.782826 
L 143.254183 446.820814 
L 143.885259 445.80601 
L 144.516335 448.543089 
L 145.778486 458.018484 
L 146.409562 461.236098 
L 147.040637 463.087849 
L 147.671713 466.344319 
L 148.302789 466.947278 
L 148.933865 468.143309 
L 150.196016 467.797314 
L 150.827092 469.282102 
L 151.458167 471.209763 
L 152.089243 471.622544 
L 153.98247 469.177457 
L 155.244622 466.8746 
L 155.875697 466.819194 
L 157.768924 464.624746 
L 160.293227 474.370025 
L 161.555378 476.901309 
L 162.186454 477.82101 
L 162.81753 477.8124 
L 163.448606 477.922614 
L 164.710757 477.378303 
L 165.341833 476.55633 
L 165.972908 476.145536 
L 167.23506 476.864265 
L 168.497211 476.636953 
L 169.128287 476.844751 
L 169.759363 477.326643 
L 170.390438 477.439655 
L 171.021514 477.684884 
L 171.65259 478.107393 
L 172.283665 479.249346 
L 172.914741 479.974498 
L 174.176892 480.642461 
L 174.807968 479.762047 
L 175.439044 478.657415 
L 176.07012 479.476582 
L 176.701195 480.824978 
L 177.963347 484.047495 
L 178.594422 485.2619 
L 179.225498 485.760898 
L 179.856574 485.708243 
L 180.487649 486.186319 
L 181.749801 486.145871 
L 182.380876 487.108521 
L 183.643028 489.498371 
L 184.905179 490.495174 
L 186.167331 492.678074 
L 186.798406 493.135877 
L 187.429482 493.030376 
L 188.691633 492.296641 
L 189.322709 491.32439 
L 189.953785 490.735016 
L 190.584861 489.833944 
L 191.215936 490.743769 
L 192.478088 491.351399 
L 193.109163 491.704042 
L 193.740239 491.74103 
L 195.633466 493.354912 
L 196.264542 493.315807 
L 196.895618 493.426321 
L 197.526693 493.370927 
L 198.157769 494.054077 
L 198.788845 494.555637 
L 199.41992 495.344339 
L 200.050996 496.770479 
L 200.682072 498.833029 
L 202.575299 502.824806 
L 203.206375 503.305216 
L 204.468526 502.627571 
L 205.730677 503.341936 
L 206.992829 504.507795 
L 207.623904 505.910413 
L 209.517131 508.272919 
L 213.934661 521.348378 
L 216.458964 526.546809 
L 217.09004 526.756514 
L 217.721116 526.724906 
L 218.352191 526.04907 
L 218.983267 525.585306 
L 220.245418 523.495068 
L 220.876494 523.096247 
L 222.138645 521.813282 
L 223.400797 519.579394 
L 224.031873 518.609969 
L 225.294024 517.833695 
L 225.9251 517.337339 
L 227.187251 517.097198 
L 228.449402 516.44598 
L 229.080478 515.927116 
L 229.711554 515.667069 
L 230.342629 514.724325 
L 230.973705 514.055138 
L 232.235857 513.382072 
L 234.129084 510.765378 
L 234.760159 509.303957 
L 236.022311 507.007529 
L 238.546614 503.479847 
L 239.177689 502.389162 
L 240.439841 505.38376 
L 241.070916 506.014084 
L 242.333068 506.20884 
L 244.857371 508.736565 
L 245.488446 509.003681 
L 246.119522 508.884731 
L 246.750598 509.013018 
L 247.381673 509.537808 
L 248.012749 509.563043 
L 249.2749 511.851337 
L 249.905976 512.561945 
L 251.168127 512.846331 
L 251.799203 513.337665 
L 252.430279 513.656912 
L 253.061355 514.678433 
L 254.323506 515.863275 
L 254.954582 516.245781 
L 255.585657 516.139682 
L 256.847809 515.518958 
L 257.478884 515.603028 
L 258.10996 515.047517 
L 258.741036 514.737958 
L 259.372112 514.176604 
L 260.003187 513.434101 
L 260.634263 512.006734 
L 261.896414 509.998064 
L 264.420717 507.761129 
L 265.682869 507.580749 
L 266.313944 508.7452 
L 266.94502 509.337729 
L 268.207171 508.519116 
L 268.838247 508.298923 
L 269.469323 507.852057 
L 270.100398 507.581688 
L 271.36255 508.566976 
L 271.993625 508.558438 
L 272.624701 508.395236 
L 274.517928 506.985355 
L 275.78008 504.912669 
L 277.042231 503.002175 
L 277.673307 502.54446 
L 278.304382 502.401809 
L 279.566534 501.974894 
L 280.19761 498.713274 
L 281.459761 490.05433 
L 282.090837 487.545112 
L 283.352988 483.824135 
L 285.877291 478.329607 
L 288.401594 470.428589 
L 290.294821 466.082939 
L 290.925896 465.03853 
L 291.556972 463.492583 
L 292.819124 461.856005 
L 293.450199 462.665337 
L 294.081275 463.116614 
L 294.712351 464.007815 
L 295.974502 465.178885 
L 296.605578 465.338579 
L 297.236653 465.379602 
L 297.867729 465.631698 
L 298.498805 466.030414 
L 299.12988 465.980504 
L 299.760956 465.677644 
L 301.023108 463.788431 
L 301.654183 462.457101 
L 302.285259 461.428287 
L 302.916335 458.871739 
L 303.54741 453.138711 
L 305.440637 428.892775 
L 307.333865 401.898127 
L 307.96494 394.732152 
L 309.227092 388.813023 
L 309.858167 383.805823 
L 311.120319 369.651745 
L 311.751394 359.992148 
L 312.38247 347.390563 
L 313.013546 339.027188 
L 313.644622 332.65011 
L 314.906773 304.327123 
L 315.537849 296.211029 
L 316.168924 290.393135 
L 316.8 286.088642 
L 317.431076 276.009476 
L 318.693227 253.435641 
L 319.324303 246.101868 
L 320.586454 235.596583 
L 321.21753 228.802038 
L 322.479681 200.927825 
L 323.110757 173.161611 
L 323.741833 140.216133 
L 325.003984 123.137501 
L 326.897211 103.059335 
L 327.528287 98.716152 
L 328.159363 92.377865 
L 328.790438 87.606455 
L 329.421514 79.817843 
L 330.05259 70.209428 
L 330.683665 63.931854 
L 331.314741 58.978107 
L 331.945817 58.343097 
L 332.576892 59.509818 
L 333.207968 61.600678 
L 334.47012 76.509287 
L 335.101195 78.355313 
L 335.732271 79.804584 
L 336.363347 80.769189 
L 336.994422 83.295463 
L 337.625498 86.97543 
L 338.256574 97.499152 
L 339.518725 110.791869 
L 340.780876 137.104611 
L 342.043028 185.819381 
L 342.674104 218.972775 
L 343.936255 257.004387 
L 344.567331 271.408381 
L 345.198406 271.428579 
L 345.829482 265.542284 
L 346.460558 262.553479 
L 347.091633 262.401276 
L 347.722709 264.341503 
L 348.353785 262.286383 
L 348.984861 267.819887 
L 349.615936 277.289864 
L 350.247012 280.902461 
L 350.878088 277.520745 
L 352.771315 252.479427 
L 353.40239 231.757155 
L 354.664542 184.085319 
L 355.926693 148.943995 
L 356.557769 137.33731 
L 357.188845 134.252055 
L 357.81992 127.104042 
L 358.450996 123.869483 
L 359.082072 119.365593 
L 359.713147 109.084796 
L 360.344223 103.469338 
L 360.975299 96.441612 
L 361.606375 92.224524 
L 362.23745 94.859443 
L 363.499602 90.015252 
L 364.130677 86.958922 
L 364.761753 84.640815 
L 365.392829 80.094153 
L 366.023904 76.968957 
L 366.65498 74.545736 
L 367.286056 73.686948 
L 367.917131 72.212705 
L 368.548207 71.249392 
L 369.179283 69.592499 
L 369.810359 68.539754 
L 370.441434 67.245627 
L 371.07251 65.516323 
L 372.965737 63.145622 
L 373.596813 63.31814 
L 374.227888 61.923495 
L 374.858964 57.607865 
L 376.121116 52.780577 
L 376.752191 51.815225 
L 377.383267 50.088303 
L 378.014343 46.059538 
L 378.645418 43.254304 
L 379.276494 38.120316 
L 379.90757 35.867302 
L 380.538645 35.208791 
L 381.169721 33.01996 
L 383.062948 28.556358 
L 383.694024 27.433062 
L 384.956175 25.886402 
L 385.587251 26.171491 
L 386.218327 25.835206 
L 386.849402 26.154758 
L 387.480478 25.291312 
L 388.742629 20.660081 
L 389.373705 17.370595 
L 390.004781 12.971003 
L 390.635857 9.971516 
L 391.266932 8.163281 
L 391.898008 6.722817 
L 392.529084 4.983562 
L 393.160159 4.043786 
L 394.422311 2.756156 
L 396.946614 1.603799 
L 397.577689 1.429182 
L 398.208765 1.39427 
L 398.839841 1.489781 
L 400.101992 1.425033 
L 401.995219 1.485369 
L 405.150598 1.493629 
L 406.412749 1.717237 
L 408.305976 1.185149 
L 409.568127 0.666824 
L 411.461355 0.286235 
L 415.247809 0.051691 
L 419.034263 0.07321 
L 423.451793 0.046134 
L 436.704382 0.027581 
L 464.471713 0.000103 
L 786.320319 0.084936 
L 790.737849 0.217059 
L 791.368924 0.211158 
L 791.368924 0.211158 
" clip-path="url(#p98274335ef)" style="fill: none; stroke: #000000; stroke-width: 1.5; stroke-linecap: square"/>
   </g>
   <g id="line2d_5">
    <path d="M 0 459 
L 0.631076 459 
L 1.262151 458.182813 
L 2.524303 461.240235 
L 3.155378 461.605098 
L 3.786454 461.258847 
L 4.41753 461.311191 
L 5.048606 460.732526 
L 5.679681 460.627051 
L 6.310757 460.880119 
L 6.941833 461.710618 
L 7.572908 462.351479 
L 8.203984 462.292595 
L 9.466135 465.273352 
L 10.097211 466.305479 
L 11.359363 467.341306 
L 13.883665 467.048114 
L 14.514741 466.500537 
L 16.407968 464.374492 
L 17.039044 464.22258 
L 17.67012 464.567187 
L 18.932271 464.914629 
L 19.563347 465.294762 
L 20.825498 465.774172 
L 21.456574 466.112774 
L 22.087649 465.725912 
L 22.718725 465.51029 
L 23.980876 466.264364 
L 24.611952 466.773102 
L 25.874104 468.327088 
L 26.505179 468.833968 
L 27.136255 469.568615 
L 28.398406 471.293191 
L 29.029482 472.919732 
L 29.660558 475.188991 
L 30.291633 476.960974 
L 30.922709 479.081571 
L 31.553785 480.466825 
L 32.184861 481.026811 
L 32.815936 480.854495 
L 33.447012 480.932119 
L 34.078088 481.353139 
L 34.709163 481.192193 
L 35.340239 481.181326 
L 35.971315 481.416917 
L 36.60239 481.409103 
L 38.495618 482.338567 
L 39.126693 482.25936 
L 39.757769 482.545863 
L 41.650996 484.067629 
L 42.282072 484.384751 
L 43.544223 484.346899 
L 44.806375 483.861003 
L 45.43745 484.234535 
L 46.068526 484.222831 
L 49.223904 482.732629 
L 49.85498 482.921654 
L 51.117131 483.706675 
L 53.010359 484.748073 
L 53.641434 485.387855 
L 55.534661 486.649967 
L 56.165737 486.814227 
L 56.796813 486.675692 
L 57.427888 486.803145 
L 58.058964 486.662683 
L 58.69004 486.354999 
L 59.321116 486.273826 
L 60.583267 484.284914 
L 61.214343 483.412315 
L 61.845418 482.089752 
L 63.738645 477.070377 
L 65.631873 472.049516 
L 66.262948 470.574494 
L 66.894024 469.75573 
L 68.156175 469.304708 
L 69.418327 468.223576 
L 70.049402 467.504603 
L 70.680478 467.102087 
L 71.311554 467.013855 
L 73.204781 469.35998 
L 73.835857 469.694669 
L 74.466932 469.853377 
L 76.360159 470.693427 
L 76.991235 471.222158 
L 78.884462 471.342804 
L 79.515538 471.687091 
L 80.777689 473.225129 
L 82.039841 474.000915 
L 82.670916 474.720758 
L 83.301992 475.637706 
L 84.564143 476.589482 
L 85.826295 473.96978 
L 86.457371 473.067285 
L 87.088446 470.881244 
L 87.719522 469.208286 
L 89.612749 466.521978 
L 90.243825 466.030633 
L 90.8749 465.905304 
L 91.505976 465.910344 
L 92.768127 467.890097 
L 96.554582 469.981131 
L 98.447809 472.287576 
L 99.70996 474.809496 
L 100.341036 476.054426 
L 100.972112 477.837304 
L 102.865339 480.146963 
L 103.496414 480.642492 
L 104.758566 481.131844 
L 105.389641 481.712467 
L 107.913944 481.781288 
L 108.54502 481.720721 
L 109.807171 481.098921 
L 110.438247 482.41354 
L 111.069323 481.953828 
L 111.700398 481.879239 
L 112.331474 482.035822 
L 112.96255 482.646899 
L 113.593625 483.930555 
L 114.224701 485.52237 
L 115.486853 487.678395 
L 116.117928 488.893636 
L 117.38008 490.54832 
L 118.011155 490.645158 
L 118.642231 490.908166 
L 120.535458 492.596591 
L 121.166534 491.88354 
L 121.79761 491.437932 
L 122.428685 490.071809 
L 123.690837 486.40976 
L 124.952988 483.274477 
L 126.215139 479.846287 
L 129.370518 473.225449 
L 130.001594 472.77969 
L 131.263745 471.291234 
L 133.788048 467.766889 
L 134.419124 467.519063 
L 135.050199 467.743001 
L 136.943426 466.288037 
L 137.574502 466.057257 
L 138.205578 465.502742 
L 140.098805 463.097158 
L 140.72988 462.518681 
L 143.254183 459.200775 
L 143.885259 457.992253 
L 144.516335 458.394561 
L 145.14741 459.334454 
L 145.778486 459.971655 
L 146.409562 461.194268 
L 147.040637 462.157603 
L 147.671713 463.92759 
L 148.302789 464.435839 
L 148.933865 465.261046 
L 150.196016 465.521517 
L 150.827092 466.474461 
L 151.458167 467.708327 
L 152.089243 468.207545 
L 153.98247 467.59088 
L 155.244622 466.575493 
L 155.875697 466.558796 
L 157.768924 465.353489 
L 159.031076 467.871355 
L 160.293227 470.745968 
L 161.555378 472.674021 
L 162.186454 473.493539 
L 163.448606 474.221493 
L 164.710757 474.509255 
L 165.341833 474.318637 
L 165.972908 474.29166 
L 167.23506 474.981616 
L 168.497211 475.164984 
L 169.128287 475.400541 
L 169.759363 475.774141 
L 171.021514 476.216374 
L 171.65259 476.564838 
L 172.283665 477.292915 
L 172.914741 477.836305 
L 174.176892 478.541591 
L 174.807968 478.255733 
L 175.439044 477.801485 
L 176.07012 478.301497 
L 176.701195 479.102347 
L 177.963347 481.125845 
L 178.594422 482.008662 
L 179.225498 482.547403 
L 179.856574 482.796861 
L 180.487649 483.298015 
L 181.749801 483.7548 
L 183.011952 485.328779 
L 183.643028 486.198245 
L 184.905179 487.277444 
L 186.798406 489.52061 
L 187.429482 489.767604 
L 188.691633 489.889916 
L 189.322709 489.58364 
L 189.953785 489.42494 
L 190.584861 489.067156 
L 191.215936 489.60602 
L 193.740239 490.541832 
L 195.633466 491.734277 
L 197.526693 492.137225 
L 199.41992 493.534828 
L 200.050996 494.428485 
L 200.682072 495.699932 
L 203.206375 499.256588 
L 204.468526 499.54365 
L 205.730677 500.432124 
L 206.992829 501.537769 
L 207.623904 502.520339 
L 209.517131 504.629034 
L 211.410359 508.628272 
L 212.67251 511.660458 
L 214.565737 515.771738 
L 216.458964 519.536533 
L 217.09004 520.229747 
L 217.721116 520.755421 
L 218.983267 521.087446 
L 219.614343 520.955623 
L 220.245418 520.683416 
L 220.876494 520.715547 
L 222.138645 520.412414 
L 224.031873 518.938738 
L 225.294024 518.474369 
L 225.9251 518.165077 
L 227.818327 517.674961 
L 229.711554 516.869312 
L 230.973705 515.821702 
L 232.235857 515.194424 
L 234.129084 513.352885 
L 235.391235 511.539067 
L 237.284462 509.081198 
L 238.546614 507.594783 
L 239.177689 506.69272 
L 240.439841 507.643842 
L 241.070916 507.788746 
L 242.333068 507.618221 
L 243.595219 508.020398 
L 244.857371 508.677964 
L 245.488446 508.825736 
L 246.119522 508.781451 
L 246.750598 508.860087 
L 247.381673 509.149403 
L 248.012749 509.195377 
L 249.905976 510.976834 
L 251.168127 511.375147 
L 252.430279 512.042979 
L 253.061355 512.703641 
L 254.954582 514.020414 
L 255.585657 514.140671 
L 256.847809 514.101027 
L 257.478884 514.253429 
L 259.372112 513.741053 
L 260.003187 513.387625 
L 261.265339 512.007085 
L 262.52749 511.015211 
L 264.420717 509.719011 
L 265.682869 509.307326 
L 266.313944 509.769378 
L 266.94502 509.991299 
L 268.207171 509.438936 
L 268.838247 509.248284 
L 270.100398 508.707491 
L 271.36255 509.063198 
L 272.624701 508.896693 
L 274.517928 508.006831 
L 277.042231 505.413193 
L 277.673307 504.979633 
L 279.566534 504.115735 
L 280.19761 502.235683 
L 281.459761 496.967033 
L 282.721912 493.400589 
L 283.984064 490.504158 
L 285.877291 486.338955 
L 289.663745 476.413383 
L 291.556972 472.126176 
L 292.819124 469.862833 
L 294.712351 469.219486 
L 296.605578 468.774074 
L 297.236653 468.505115 
L 299.12988 468.126763 
L 299.760956 467.787395 
L 301.023108 466.411103 
L 302.285259 464.689122 
L 304.178486 460.015507 
L 304.809562 456.038524 
L 305.440637 450.364399 
L 307.96494 423.894103 
L 309.227092 415.899966 
L 309.858167 410.9421 
L 311.120319 398.719105 
L 311.751394 391.07703 
L 312.38247 381.661843 
L 313.644622 367.769589 
L 314.906773 345.98932 
L 316.168924 331.11478 
L 316.8 325.220704 
L 318.062151 305.939639 
L 319.324303 288.470372 
L 321.21753 267.892531 
L 322.479681 244.551561 
L 323.110757 223.797511 
L 323.741833 197.851586 
L 325.003984 175.647491 
L 326.897211 147.602847 
L 328.790438 124.83443 
L 330.683665 97.212624 
L 331.314741 90.201717 
L 331.945817 86.640681 
L 332.576892 84.712815 
L 333.207968 83.739017 
L 334.47012 89.498295 
L 335.732271 89.252466 
L 336.363347 88.954891 
L 336.994422 89.639257 
L 337.625498 91.08452 
L 338.256574 96.260478 
L 339.518725 103.331197 
L 340.780876 117.420024 
L 342.043028 142.758715 
L 342.674104 159.918682 
L 344.567331 196.25822 
L 345.198406 201.783498 
L 345.829482 204.361382 
L 346.460558 207.593887 
L 347.722709 216.380051 
L 348.353785 219.052658 
L 348.984861 224.917386 
L 349.615936 232.604313 
L 350.247012 237.673009 
L 350.878088 239.33133 
L 351.509163 238.419063 
L 352.140239 237.302385 
L 352.771315 234.286047 
L 353.40239 225.19692 
L 355.926693 176.26189 
L 356.557769 166.840992 
L 357.188845 162.295604 
L 357.81992 155.421366 
L 359.082072 145.727352 
L 359.713147 136.984074 
L 361.606375 118.751522 
L 362.23745 118.035847 
L 364.761753 104.101993 
L 365.392829 99.546624 
L 366.65498 92.653583 
L 371.07251 77.897443 
L 372.965737 73.470126 
L 373.596813 72.67571 
L 374.227888 71.02806 
L 374.858964 67.650866 
L 376.121116 62.922129 
L 376.752191 61.428426 
L 377.383267 59.52465 
L 378.014343 56.194512 
L 378.645418 53.507382 
L 379.276494 49.253681 
L 379.90757 46.719221 
L 380.538645 45.259925 
L 381.169721 42.867891 
L 383.062948 37.207776 
L 384.3251 34.350714 
L 384.956175 33.099724 
L 385.587251 32.600019 
L 386.218327 31.783834 
L 386.849402 31.427549 
L 387.480478 30.404035 
L 388.742629 26.466325 
L 389.373705 23.686423 
L 390.004781 19.832632 
L 390.635857 16.699951 
L 392.529084 10.111674 
L 393.791235 7.266255 
L 394.422311 6.17151 
L 396.315538 4.048045 
L 397.577689 3.145119 
L 398.208765 2.907139 
L 398.839841 2.830104 
L 400.101992 2.489589 
L 401.364143 2.262956 
L 403.257371 2.07962 
L 405.150598 1.934289 
L 407.043825 1.881752 
L 408.937052 1.319843 
L 410.830279 0.756064 
L 412.723506 0.430269 
L 415.247809 0.160611 
L 417.772112 0.096446 
L 421.558566 0.097728 
L 430.393625 0.052604 
L 791.368924 0.08213 
L 791.368924 0.08213 
" clip-path="url(#p98274335ef)" style="fill: none; stroke: #000000; stroke-width: 1.5; stroke-linecap: square"/>
   </g>
   <g id="line2d_6">
    <path d="M 0 459 
L 0.631076 459 
L 1.262151 458.199761 
L 2.524303 461.122923 
L 3.155378 461.484927 
L 3.786454 461.193921 
L 4.41753 461.250927 
L 5.048606 460.755032 
L 5.679681 460.661714 
L 6.310757 460.870632 
L 7.572908 462.097205 
L 8.203984 462.075033 
L 9.466135 464.475549 
L 10.097211 465.334058 
L 11.359363 466.270056 
L 13.883665 466.324712 
L 14.514741 465.990342 
L 16.407968 464.581864 
L 17.039044 464.46742 
L 17.67012 464.681019 
L 18.932271 464.897717 
L 20.194422 465.272262 
L 21.456574 465.697839 
L 22.718725 465.359308 
L 24.611952 466.173249 
L 28.398406 469.214249 
L 29.029482 470.260445 
L 30.291633 472.887985 
L 30.922709 474.297075 
L 31.553785 475.314924 
L 32.184861 475.877735 
L 32.815936 476.024404 
L 33.447012 476.295747 
L 34.078088 476.749081 
L 35.340239 477.069094 
L 35.971315 477.390094 
L 36.60239 477.57156 
L 38.495618 478.607222 
L 39.126693 478.733771 
L 40.388845 479.485975 
L 42.282072 480.680827 
L 43.544223 480.976695 
L 44.806375 480.997788 
L 45.43745 481.319134 
L 46.068526 481.437798 
L 49.223904 481.133535 
L 49.85498 481.302056 
L 51.748207 482.134415 
L 53.010359 482.649464 
L 54.27251 483.39827 
L 55.534661 484.033333 
L 56.165737 484.226947 
L 56.796813 484.262301 
L 57.427888 484.428736 
L 59.321116 484.427307 
L 60.583267 483.525831 
L 61.214343 483.105145 
L 61.845418 482.433297 
L 63.10757 480.747157 
L 66.262948 475.719055 
L 66.894024 475.078451 
L 68.787251 473.918827 
L 70.680478 472.397656 
L 71.311554 472.132062 
L 73.204781 472.76467 
L 78.253386 472.883345 
L 78.884462 472.87307 
L 79.515538 472.985519 
L 81.408765 473.85456 
L 82.039841 474.058327 
L 84.564143 475.476713 
L 85.826295 474.210147 
L 86.457371 473.742919 
L 87.719522 471.675325 
L 90.243825 469.557797 
L 91.505976 469.205884 
L 92.768127 469.972418 
L 95.923506 470.428278 
L 97.185657 471.049177 
L 98.447809 471.831518 
L 99.70996 473.187463 
L 100.341036 473.892807 
L 100.972112 474.89637 
L 102.865339 476.489291 
L 104.12749 477.1813 
L 104.758566 477.45876 
L 105.389641 477.907505 
L 107.913944 478.541733 
L 108.54502 478.645861 
L 109.807171 478.568523 
L 110.438247 479.340686 
L 111.069323 479.230574 
L 111.700398 479.301949 
L 112.331474 479.48808 
L 112.96255 479.906645 
L 113.593625 480.678323 
L 114.224701 481.627963 
L 115.486853 483.070272 
L 116.749004 484.545786 
L 117.38008 485.162063 
L 118.642231 485.79013 
L 120.535458 487.307177 
L 121.79761 487.136713 
L 122.428685 486.619338 
L 125.584064 482.575513 
L 126.846215 480.892062 
L 128.108367 479.318259 
L 129.370518 477.647561 
L 130.632669 476.690152 
L 131.894821 475.406589 
L 133.156972 473.954186 
L 133.788048 473.390338 
L 134.419124 473.021951 
L 135.050199 472.900066 
L 136.943426 471.490569 
L 137.574502 471.151154 
L 138.836653 470.024518 
L 143.885259 464.993543 
L 144.516335 464.798224 
L 145.778486 464.921402 
L 147.040637 465.660927 
L 147.671713 466.420063 
L 148.302789 466.576471 
L 148.933865 466.909566 
L 150.196016 466.913137 
L 150.827092 467.347092 
L 151.458167 467.942723 
L 152.089243 468.190263 
L 153.98247 467.873287 
L 155.244622 467.330065 
L 155.875697 467.294027 
L 157.768924 466.576901 
L 159.031076 467.79447 
L 160.293227 469.309714 
L 162.186454 470.952471 
L 164.079681 471.73401 
L 164.710757 471.907046 
L 165.972908 472.005766 
L 167.866135 472.699042 
L 169.128287 473.074137 
L 170.390438 473.563795 
L 171.65259 474.076422 
L 172.914741 474.943122 
L 174.176892 475.545837 
L 175.439044 475.40891 
L 176.07012 475.764086 
L 177.332271 476.932631 
L 178.594422 478.1622 
L 179.225498 478.596369 
L 179.856574 478.886188 
L 181.118725 479.597486 
L 181.749801 479.859675 
L 183.011952 480.989784 
L 184.274104 482.09317 
L 184.905179 482.546352 
L 186.798406 484.312671 
L 188.060558 484.919464 
L 188.691633 485.144796 
L 190.584861 485.282564 
L 191.215936 485.715008 
L 194.371315 487.191515 
L 196.264542 488.121476 
L 198.157769 488.951632 
L 199.41992 489.733642 
L 200.050996 490.349591 
L 201.313147 491.838499 
L 203.206375 493.821621 
L 205.099602 494.85875 
L 206.992829 496.320684 
L 208.25498 497.641248 
L 209.517131 498.840645 
L 211.410359 501.678071 
L 213.934661 505.994888 
L 217.09004 510.829313 
L 217.721116 511.501545 
L 218.983267 512.45203 
L 221.50757 513.566868 
L 222.138645 513.785343 
L 224.662948 513.951489 
L 228.449402 514.337055 
L 230.342629 514.116856 
L 231.604781 513.884611 
L 232.235857 513.804326 
L 234.129084 513.009641 
L 237.284462 510.742217 
L 238.546614 509.841847 
L 239.177689 509.288558 
L 240.439841 509.574669 
L 241.070916 509.570899 
L 242.333068 509.341826 
L 244.226295 509.560723 
L 245.488446 509.692392 
L 246.750598 509.64784 
L 247.381673 509.767149 
L 248.012749 509.770152 
L 249.905976 510.665664 
L 251.799203 511.131122 
L 252.430279 511.314984 
L 253.69243 511.983215 
L 254.954582 512.537733 
L 256.216733 512.727102 
L 258.741036 512.90669 
L 260.003187 512.698593 
L 261.896414 511.761897 
L 265.682869 510.496039 
L 266.94502 510.762135 
L 270.100398 509.921924 
L 271.993625 509.953597 
L 273.255777 509.676672 
L 274.517928 509.273717 
L 277.673307 507.357424 
L 279.566534 506.609774 
L 280.19761 505.545809 
L 281.459761 502.523835 
L 283.352988 499.126825 
L 285.877291 494.99119 
L 292.188048 482.747121 
L 292.819124 481.667707 
L 294.712351 479.878589 
L 297.867729 477.328281 
L 299.12988 476.455329 
L 299.760956 475.926891 
L 301.023108 474.53112 
L 302.285259 472.953592 
L 304.178486 469.462592 
L 306.071713 465.058242 
L 308.596016 458.841279 
L 309.858167 450.882626 
L 311.120319 441.101428 
L 311.751394 435.320866 
L 313.013546 422.603922 
L 313.644622 417.131487 
L 315.537849 394.479085 
L 317.431076 375.283724 
L 319.324303 351.91603 
L 321.21753 331.832071 
L 322.479681 312.512107 
L 323.110757 297.085273 
L 323.741833 277.644463 
L 326.266135 235.099031 
L 328.159363 206.595234 
L 329.421514 187.375664 
L 330.683665 165.843722 
L 331.314741 156.667536 
L 331.945817 150.296462 
L 332.576892 145.393329 
L 333.207968 141.432269 
L 333.839044 140.572112 
L 334.47012 140.071543 
L 336.363347 132.403753 
L 336.994422 130.723175 
L 337.625498 129.695714 
L 338.256574 131.299251 
L 338.887649 131.827024 
L 339.518725 132.638495 
L 340.780876 138.6178 
L 342.043028 151.107424 
L 342.674104 159.682694 
L 344.567331 178.292502 
L 345.198406 181.630565 
L 346.460558 185.999336 
L 348.353785 194.116973 
L 348.984861 197.854507 
L 349.615936 202.511961 
L 350.247012 206.057429 
L 350.878088 208.075889 
L 352.140239 209.519316 
L 352.771315 209.186616 
L 353.40239 205.837453 
L 354.664542 194.591227 
L 356.557769 177.328916 
L 357.188845 174.398823 
L 357.81992 170.097901 
L 359.082072 163.308314 
L 359.713147 157.555622 
L 361.606375 143.80171 
L 362.23745 142.19537 
L 364.761753 129.096244 
L 366.023904 121.564739 
L 366.65498 118.314975 
L 371.07251 100.630461 
L 372.965737 94.544812 
L 373.596813 93.012561 
L 374.227888 90.982154 
L 375.49004 85.260398 
L 376.121116 82.815257 
L 377.383267 78.661666 
L 379.90757 66.154584 
L 380.538645 64.158509 
L 381.800797 59.208665 
L 383.694024 52.670072 
L 384.956175 49.110678 
L 386.849402 45.554405 
L 387.480478 44.104476 
L 388.742629 39.831656 
L 389.373705 37.023121 
L 390.635857 29.815106 
L 393.160159 19.038149 
L 394.422311 15.054857 
L 396.315538 10.822158 
L 397.577689 8.751457 
L 398.208765 8.051358 
L 398.839841 7.606565 
L 399.470916 6.994527 
L 401.364143 5.75298 
L 405.150598 4.255713 
L 407.043825 3.814857 
L 408.937052 2.905123 
L 410.830279 1.964961 
L 412.09243 1.477992 
L 415.247809 0.63984 
L 417.141036 0.425971 
L 419.665339 0.368999 
L 440.490837 0.06056 
L 686.610359 0 
L 791.368924 0.011096 
L 791.368924 0.011096 
" clip-path="url(#p98274335ef)" style="fill: none; stroke: #000000; stroke-width: 1.5; stroke-linecap: square"/>
   </g>
   <g id="line2d_7">
    <path d="M 0 459 
L 0.631076 459 
L 1.262151 458.208241 
L 2.524303 461.064817 
L 3.155378 461.424092 
L 3.786454 461.158555 
L 4.41753 461.217512 
L 5.048606 460.760623 
L 5.679681 460.673972 
L 6.310757 460.86324 
L 7.572908 461.974655 
L 8.203984 461.965694 
L 9.466135 464.092953 
L 10.097211 464.861662 
L 11.359363 465.725169 
L 13.883665 465.889861 
L 15.145817 465.280505 
L 15.776892 464.828199 
L 16.407968 464.551167 
L 17.039044 464.462582 
L 18.301195 464.700855 
L 20.194422 465.098198 
L 21.456574 465.43347 
L 22.718725 465.201285 
L 24.611952 465.817559 
L 28.398406 468.104664 
L 29.029482 468.866343 
L 30.922709 471.803593 
L 31.553785 472.572977 
L 32.184861 473.039537 
L 33.447012 473.496119 
L 34.078088 473.883376 
L 35.340239 474.267815 
L 38.495618 475.68325 
L 39.126693 475.848698 
L 40.388845 476.491179 
L 42.282072 477.499107 
L 44.175299 477.95854 
L 44.806375 478.039681 
L 45.43745 478.316495 
L 46.699602 478.518351 
L 49.85498 478.818719 
L 56.165737 481.228741 
L 59.321116 481.704484 
L 61.845418 480.801024 
L 63.10757 479.919365 
L 66.262948 477.092059 
L 66.894024 476.702985 
L 68.787251 475.936877 
L 71.311554 474.736971 
L 73.835857 474.876673 
L 75.729084 474.752659 
L 79.515538 474.591876 
L 83.301992 475.456551 
L 84.564143 475.734084 
L 86.457371 474.771478 
L 87.719522 473.616528 
L 90.243825 472.293546 
L 91.505976 471.98538 
L 92.768127 472.26962 
L 95.923506 472.269815 
L 97.185657 472.513583 
L 98.447809 472.860312 
L 99.70996 473.526713 
L 100.341036 473.88567 
L 100.972112 474.406801 
L 103.496414 475.518298 
L 107.282869 476.514424 
L 108.54502 476.721786 
L 109.807171 476.765901 
L 110.438247 477.204957 
L 111.700398 477.279748 
L 112.331474 477.421137 
L 112.96255 477.682196 
L 117.38008 480.868478 
L 118.642231 481.378455 
L 120.535458 482.452231 
L 121.79761 482.572826 
L 122.428685 482.407915 
L 124.952988 481.109554 
L 129.370518 478.290756 
L 130.632669 477.772095 
L 132.525896 476.65104 
L 133.788048 475.916592 
L 134.419124 475.676202 
L 135.050199 475.558293 
L 139.467729 473.314144 
L 143.885259 470.390114 
L 145.14741 470.069423 
L 145.778486 470.005232 
L 147.040637 470.166053 
L 147.671713 470.453094 
L 150.827092 470.521793 
L 151.458167 470.754535 
L 152.089243 470.819107 
L 153.98247 470.49201 
L 157.768924 469.485595 
L 159.031076 469.984398 
L 160.293227 470.666778 
L 162.186454 471.432846 
L 164.710757 471.899318 
L 165.972908 471.951251 
L 172.283665 473.344488 
L 174.176892 473.935716 
L 175.439044 473.935516 
L 176.701195 474.443527 
L 179.225498 475.812696 
L 181.749801 476.710729 
L 184.905179 478.458381 
L 186.798406 479.630979 
L 188.691633 480.357508 
L 190.584861 480.729134 
L 191.847012 481.287032 
L 198.788845 484.126471 
L 200.050996 484.881772 
L 201.944223 486.356211 
L 203.206375 487.275409 
L 205.099602 488.216722 
L 206.992829 489.383156 
L 208.886056 490.79626 
L 209.517131 491.267509 
L 211.410359 493.203213 
L 216.458964 499.078264 
L 217.721116 500.271372 
L 219.614343 501.620479 
L 222.769721 503.31306 
L 229.711554 505.82221 
L 234.129084 506.332625 
L 238.546614 505.567488 
L 239.177689 505.380184 
L 241.070916 505.776115 
L 242.964143 505.917614 
L 248.012749 506.68276 
L 250.537052 507.477889 
L 252.430279 507.96416 
L 254.323506 508.676326 
L 255.585657 509.030324 
L 259.372112 509.571671 
L 260.634263 509.465737 
L 264.420717 508.986598 
L 265.682869 508.913309 
L 266.94502 509.118882 
L 270.731474 508.888725 
L 271.993625 508.935229 
L 273.886853 508.769408 
L 275.149004 508.48907 
L 278.935458 507.446078 
L 279.566534 507.312318 
L 280.19761 506.760003 
L 282.090837 504.505077 
L 287.139442 499.276285 
L 292.819124 492.170272 
L 295.343426 490.114532 
L 299.760956 486.796756 
L 302.285259 484.367782 
L 304.178486 481.865318 
L 306.071713 478.829439 
L 308.596016 474.510173 
L 309.858167 472.502413 
L 311.120319 470.156072 
L 313.644622 464.561135 
L 315.537849 459.387166 
L 316.8 451.202985 
L 318.062151 440.044946 
L 319.955378 423.703001 
L 321.21753 412.919503 
L 322.479681 398.71877 
L 323.110757 388.200587 
L 323.741833 375.070457 
L 329.421514 296.870042 
L 330.683665 276.466948 
L 331.314741 267.051502 
L 332.576892 253.097468 
L 333.207968 247.345574 
L 334.47012 240.950244 
L 336.363347 227.543777 
L 337.625498 220.650898 
L 338.256574 219.522643 
L 339.518725 216.075826 
L 340.149801 216.016693 
L 340.780876 216.241478 
L 342.043028 221.078728 
L 342.674104 225.029538 
L 344.567331 232.335327 
L 345.198406 233.094863 
L 345.829482 233.111644 
L 346.460558 233.364417 
L 347.091633 233.905384 
L 347.722709 234.694837 
L 348.353785 235.004037 
L 348.984861 236.217595 
L 349.615936 237.991409 
L 350.247012 239.183398 
L 350.878088 239.567108 
L 352.140239 238.988699 
L 352.771315 238.148857 
L 353.40239 235.653766 
L 354.664542 227.995105 
L 356.557769 215.708446 
L 357.188845 213.119938 
L 357.81992 209.707261 
L 359.082072 203.849751 
L 360.344223 195.79116 
L 361.606375 188.024402 
L 362.23745 185.973189 
L 364.761753 173.503663 
L 366.023904 166.492717 
L 367.286056 160.475796 
L 369.810359 149.298246 
L 372.334661 138.844506 
L 374.227888 131.903829 
L 375.49004 125.838831 
L 376.752191 120.661288 
L 377.383267 118.069324 
L 379.90757 104.787185 
L 380.538645 102.253962 
L 382.431873 93.657212 
L 383.694024 88.290931 
L 384.956175 83.491015 
L 387.480478 75.740234 
L 388.742629 70.416588 
L 389.373705 67.132379 
L 390.635857 58.83462 
L 393.791235 41.146315 
L 395.053386 35.499553 
L 397.577689 26.202599 
L 398.208765 24.559884 
L 401.364143 18.405743 
L 404.519522 14.255653 
L 405.781673 13.08982 
L 406.412749 12.652648 
L 408.305976 10.556406 
L 410.199203 8.124044 
L 411.461355 6.625651 
L 413.354582 4.889196 
L 415.247809 3.358892 
L 416.50996 2.656368 
L 417.772112 2.248986 
L 419.665339 1.964153 
L 421.558566 1.558154 
L 424.082869 1.103717 
L 427.238247 0.826935 
L 432.917928 0.473158 
L 439.228685 0.271357 
L 460.054183 0.028983 
L 489.714741 0.00004 
L 791.368924 0.000671 
L 791.368924 0.000671 
" clip-path="url(#p98274335ef)" style="fill: none; stroke: #000000; stroke-width: 1.5; stroke-linecap: square"/>
   </g>
   <g id="line2d_8">
    <path d="M 0 459 
L 0.631076 459 
L 1.262151 458.212483 
L 2.524303 461.035924 
L 3.155378 461.393528 
L 3.786454 461.140185 
L 4.41753 461.200008 
L 5.048606 460.761979 
L 5.679681 460.678747 
L 6.310757 460.858772 
L 7.572908 461.914706 
L 8.203984 461.911204 
L 9.466135 463.90724 
L 10.097211 464.631202 
L 11.359363 465.454447 
L 13.883665 465.658643 
L 15.145817 465.135473 
L 15.776892 464.741238 
L 16.407968 464.500701 
L 17.039044 464.425071 
L 18.301195 464.636841 
L 20.194422 464.988319 
L 21.456574 465.282507 
L 22.718725 465.095433 
L 24.611952 465.622867 
L 28.398406 467.555334 
L 29.029482 468.185977 
L 30.922709 470.608479 
L 31.553785 471.251093 
L 32.184861 471.654189 
L 33.447012 472.08253 
L 34.078088 472.420067 
L 35.340239 472.789056 
L 38.495618 474.051152 
L 39.757769 474.462903 
L 42.282072 475.636507 
L 44.175299 476.091919 
L 44.806375 476.189093 
L 46.068526 476.57811 
L 49.85498 477.039192 
L 56.165737 479.084661 
L 59.321116 479.595031 
L 61.845418 479.112117 
L 63.738645 478.210125 
L 66.894024 476.505399 
L 69.418327 475.790629 
L 70.680478 475.347542 
L 71.311554 475.207647 
L 74.466932 475.218239 
L 79.515538 475.034471 
L 84.564143 475.719462 
L 87.088446 474.727068 
L 88.350598 474.178473 
L 90.243825 473.534516 
L 91.505976 473.312695 
L 92.768127 473.449971 
L 96.554582 473.41168 
L 98.447809 473.671745 
L 100.341036 474.253789 
L 100.972112 474.55726 
L 104.12749 475.321944 
L 108.54502 475.972424 
L 109.807171 476.016978 
L 110.438247 476.280356 
L 111.700398 476.346659 
L 112.96255 476.602306 
L 118.642231 478.915309 
L 120.535458 479.619834 
L 122.428685 479.698925 
L 125.584064 478.882712 
L 129.370518 477.634407 
L 131.263745 477.179421 
L 134.419124 476.19846 
L 135.681275 475.951521 
L 138.836653 475.046479 
L 142.623108 473.592962 
L 143.885259 473.051489 
L 145.14741 472.813491 
L 146.409562 472.769642 
L 147.040637 472.770441 
L 147.671713 472.895713 
L 150.827092 472.793559 
L 152.089243 472.902805 
L 154.613546 472.528316 
L 157.768924 471.953849 
L 159.662151 472.335078 
L 162.186454 472.833721 
L 165.341833 473.012123 
L 167.23506 473.148401 
L 170.390438 473.396016 
L 172.283665 473.670712 
L 174.176892 473.974304 
L 176.07012 474.083408 
L 177.963347 474.631934 
L 179.856574 475.095128 
L 183.643028 476.114796 
L 189.322709 477.732337 
L 191.847012 478.279231 
L 198.788845 480.175788 
L 200.050996 480.656039 
L 203.206375 482.149816 
L 205.730677 483.060489 
L 208.25498 484.221465 
L 210.148207 485.221946 
L 213.303586 487.425012 
L 217.721116 490.598321 
L 220.245418 491.898294 
L 222.138645 492.798473 
L 229.711554 495.542037 
L 234.129084 496.566353 
L 238.546614 496.881485 
L 239.177689 496.879802 
L 241.701992 497.456876 
L 243.595219 497.833389 
L 246.119522 498.388108 
L 248.643825 498.976618 
L 250.537052 499.525108 
L 253.061355 500.24436 
L 256.216733 501.135827 
L 259.372112 501.781865 
L 261.265339 501.928877 
L 265.682869 502.231809 
L 266.94502 502.479217 
L 275.78008 502.97913 
L 280.19761 502.569345 
L 282.090837 501.552305 
L 286.508367 499.42979 
L 289.032669 497.8331 
L 293.450199 495.027329 
L 295.974502 493.8611 
L 301.023108 491.40694 
L 302.916335 490.155632 
L 304.178486 489.160602 
L 306.702789 486.724433 
L 308.596016 484.803325 
L 310.489243 482.870187 
L 311.751394 481.337646 
L 314.906773 476.662163 
L 317.431076 472.743052 
L 321.848606 464.469712 
L 322.479681 463.003685 
L 323.110757 460.944401 
L 323.741833 457.210428 
L 326.897211 429.426888 
L 328.790438 412.104576 
L 330.683665 391.302393 
L 331.945817 378.619544 
L 333.207968 368.429772 
L 335.101195 357.391178 
L 336.994422 345.142772 
L 337.625498 341.662797 
L 338.256574 339.49127 
L 339.518725 334.40826 
L 340.780876 331.694959 
L 341.411952 331.776206 
L 342.043028 332.05008 
L 342.674104 333.221279 
L 344.567331 334.003613 
L 345.198406 333.276826 
L 346.460558 331.105814 
L 348.353785 328.720472 
L 348.984861 328.359084 
L 349.615936 328.352276 
L 350.247012 328.014415 
L 350.878088 327.209587 
L 352.140239 324.835061 
L 352.771315 323.334774 
L 353.40239 320.852041 
L 355.295618 310.701345 
L 356.557769 303.66448 
L 357.188845 301.02078 
L 360.344223 284.847201 
L 361.606375 277.686636 
L 362.23745 275.267421 
L 364.761753 262.688313 
L 366.65498 252.475316 
L 372.965737 222.519704 
L 374.227888 217.005444 
L 376.121116 207.158629 
L 377.383267 201.178111 
L 381.800797 176.367089 
L 384.956175 160.017345 
L 387.480478 148.972003 
L 388.742629 142.068921 
L 389.373705 137.983065 
L 391.266932 123.251941 
L 392.529084 113.273105 
L 394.422311 99.142232 
L 397.577689 78.886707 
L 398.839841 72.931088 
L 400.101992 67.174651 
L 401.364143 62.052659 
L 404.519522 51.429819 
L 405.781673 48.037462 
L 406.412749 46.613163 
L 408.305976 40.950245 
L 410.830279 32.355465 
L 412.09243 28.403858 
L 415.878884 18.031028 
L 416.50996 16.770822 
L 417.772112 14.844897 
L 419.034263 13.692497 
L 420.92749 11.738733 
L 422.189641 10.256857 
L 424.713944 7.998013 
L 430.393625 4.989332 
L 434.811155 3.411258 
L 437.335458 2.781598 
L 441.121912 2.138756 
L 446.801594 1.501365 
L 461.94741 0.279786 
L 470.78247 0.075008 
L 482.772908 0.006976 
L 582.482869 0.000064 
L 791.368924 0.000036 
L 791.368924 0.000036 
" clip-path="url(#p98274335ef)" style="fill: none; stroke: #000000; stroke-width: 1.5; stroke-linecap: square"/>
   </g>
   <g id="line2d_9">
    <path d="M 0 459 
L 0.631076 459 
L 1.262151 458.214604 
L 2.524303 461.02152 
L 3.155378 461.378216 
L 3.786454 461.130834 
L 4.41753 461.19106 
L 5.048606 460.762296 
L 5.679681 460.680787 
L 6.310757 460.856334 
L 7.572908 461.885081 
L 8.203984 461.884043 
L 9.466135 463.815951 
L 10.097211 464.51769 
L 11.359363 465.32003 
L 13.883665 465.54032 
L 15.145817 465.057133 
L 15.776892 464.690198 
L 16.407968 464.466946 
L 17.039044 464.39761 
L 18.301195 464.597273 
L 20.194422 464.927344 
L 21.456574 465.202088 
L 22.718725 465.03542 
L 24.611952 465.521244 
L 28.398406 467.285413 
L 29.029482 467.854658 
L 30.922709 470.034863 
L 31.553785 470.615857 
L 32.184861 470.985491 
L 33.447012 471.391135 
L 34.078088 471.701407 
L 35.971315 472.296305 
L 37.233466 472.730487 
L 38.495618 473.22186 
L 39.757769 473.606697 
L 42.282072 474.672888 
L 44.175299 475.109021 
L 44.806375 475.207538 
L 46.068526 475.567375 
L 49.85498 476.046164 
L 56.165737 477.880289 
L 59.321116 478.37538 
L 61.845418 478.051818 
L 63.738645 477.375048 
L 66.894024 476.074754 
L 69.418327 475.535528 
L 70.680478 475.197278 
L 71.311554 475.090878 
L 74.466932 475.106561 
L 79.515538 474.974917 
L 84.564143 475.498154 
L 87.088446 474.769039 
L 88.350598 474.362977 
L 90.243825 473.883048 
L 91.505976 473.713746 
L 93.399203 473.787613 
L 96.554582 473.757271 
L 99.078884 474.051307 
L 103.496414 475.028781 
L 108.54502 475.582792 
L 109.807171 475.620775 
L 110.438247 475.807502 
L 112.331474 475.930544 
L 113.593625 476.238006 
L 116.117928 477.070965 
L 118.011155 477.566975 
L 121.79761 478.331966 
L 123.059761 478.218957 
L 127.477291 477.442464 
L 131.263745 476.726683 
L 135.050199 476.043716 
L 140.098805 475.015426 
L 142.623108 474.364071 
L 143.885259 474.000863 
L 145.778486 473.78134 
L 152.720319 473.75259 
L 156.506773 473.316897 
L 157.768924 473.140251 
L 160.924303 473.508 
L 163.448606 473.703767 
L 171.65259 474.007136 
L 174.176892 474.264504 
L 176.07012 474.325312 
L 183.011952 475.432699 
L 188.060558 476.438625 
L 196.895618 477.844639 
L 199.41992 478.341796 
L 208.25498 480.840632 
L 210.148207 481.492935 
L 213.303586 482.906464 
L 218.352191 485.210578 
L 221.50757 486.301877 
L 224.662948 487.20916 
L 230.342629 488.71246 
L 234.129084 489.471225 
L 241.701992 490.495276 
L 244.857371 491.097786 
L 251.168127 492.395858 
L 259.372112 494.159427 
L 262.52749 494.516488 
L 267.576096 495.155325 
L 275.78008 495.96964 
L 280.19761 496.030087 
L 283.352988 495.343743 
L 286.508367 494.657337 
L 289.663745 493.694799 
L 294.081275 492.35101 
L 300.392032 490.861622 
L 302.916335 490.008283 
L 304.809562 489.162436 
L 306.702789 488.146549 
L 311.751394 485.143662 
L 314.906773 482.508242 
L 318.062151 479.59316 
L 321.848606 475.487146 
L 322.479681 474.642471 
L 323.110757 473.478468 
L 323.741833 472.05321 
L 326.897211 466.683476 
L 328.790438 463.279286 
L 330.683665 459.182195 
L 332.576892 448.530055 
L 333.207968 445.39724 
L 335.101195 437.940873 
L 336.994422 429.679191 
L 337.625498 427.23203 
L 338.887649 423.523033 
L 339.518725 421.631246 
L 340.780876 419.074659 
L 342.043028 418.259067 
L 342.674104 418.419254 
L 344.567331 417.383674 
L 345.198406 416.488068 
L 346.460558 414.293484 
L 348.353785 411.496293 
L 348.984861 410.810776 
L 349.615936 410.327633 
L 350.247012 409.660511 
L 350.878088 408.731605 
L 352.771315 405.119012 
L 353.40239 403.235686 
L 355.295618 395.985813 
L 356.557769 390.927625 
L 357.81992 386.530238 
L 359.082072 382.113783 
L 361.606375 371.440747 
L 362.23745 369.43888 
L 364.761753 359.580646 
L 367.286056 349.08845 
L 375.49004 315.851879 
L 378.645418 301.60474 
L 379.90757 294.911709 
L 381.169721 288.825096 
L 385.587251 267.445286 
L 388.111554 255.60093 
L 389.373705 248.110301 
L 393.791235 213.549053 
L 396.315538 193.847549 
L 398.208765 180.100668 
L 403.888446 147.175427 
L 405.150598 140.816644 
L 407.043825 132.060367 
L 408.937052 121.356314 
L 413.985657 90.195039 
L 416.50996 75.2443 
L 417.772112 69.827781 
L 419.034263 66.059616 
L 420.92749 59.777226 
L 422.189641 55.007968 
L 424.713944 46.957513 
L 428.500398 38.110448 
L 429.76255 35.332549 
L 431.655777 31.720743 
L 434.811155 26.178317 
L 436.073307 24.256013 
L 437.966534 21.853502 
L 439.859761 19.744836 
L 441.121912 18.507786 
L 443.015139 16.937089 
L 445.539442 14.818784 
L 447.432669 13.504321 
L 451.219124 10.990469 
L 453.112351 9.5798 
L 455.005578 8.163371 
L 456.898805 6.952273 
L 460.054183 5.178523 
L 463.840637 3.611446 
L 466.36494 2.846744 
L 470.151394 1.920821 
L 474.568924 1.071285 
L 478.986454 0.595605 
L 484.03506 0.31624 
L 490.976892 0.151355 
L 506.122709 0.055536 
L 559.764143 0.00442 
L 791.368924 0.000012 
L 791.368924 0.000012 
" clip-path="url(#p98274335ef)" style="fill: none; stroke: #000000; stroke-width: 1.5; stroke-linecap: square"/>
   </g>
  </g>
 </g>
 <defs>
  <clipPath id="p98274335ef">
   <rect x="0" y="0" width="792" height="612"/>
  </clipPath>
 </defs>
</svg>
