<?xml version="1.0" encoding="utf-8" standalone="no"?>
<!DOCTYPE svg PUBLIC "-//W3C//DTD SVG 1.1//EN"
  "http://www.w3.org/Graphics/SVG/1.1/DTD/svg11.dtd">
<svg xmlns:xlink="http://www.w3.org/1999/xlink" width="792pt" height="612pt" viewBox="0 0 792 612" xmlns="http://www.w3.org/2000/svg" version="1.1">
 <metadata>
  <rdf:RDF xmlns:dc="http://purl.org/dc/elements/1.1/" xmlns:cc="http://creativecommons.org/ns#" xmlns:rdf="http://www.w3.org/1999/02/22-rdf-syntax-ns#">
   <cc:Work>
    <dc:type rdf:resource="http://purl.org/dc/dcmitype/StillImage"/>
    <dc:date>2023-01-23T15:49:33.341145</dc:date>
    <dc:format>image/svg+xml</dc:format>
    <dc:creator>
     <cc:Agent>
      <dc:title>Matplotlib v3.6.2, https://matplotlib.org/</dc:title>
     </cc:Agent>
    </dc:creator>
   </cc:Work>
  </rdf:RDF>
 </metadata>
 <defs>
  <style type="text/css">*{stroke-linejoin: round; stroke-linecap: butt}</style>
 </defs>
 <g id="figure_1">
  <g id="patch_1">
   <path d="M 0 612 
L 792 612 
L 792 0 
L 0 0 
z
" style="fill: #ffffff"/>
  </g>
  <g id="axes_1">
   <g id="line2d_1">
    <path d="M 0 459 
L 44 452.365349 
L 88 452.900336 
L 132 454.237872 
L 176 447.070186 
L 220 455.84302 
L 264 461.871648 
L 308 451.509408 
L 352 453.114335 
L 396 441.938501 
L 440 425.882085 
L 484 426.201483 
L 528 415.573963 
L 572 411.070781 
L 616 406.8938 
L 660 402.830955 
L 704 384.589251 
L 748 386.727102 
" clip-path="url(#p387e2fbf2d)" style="fill: none; stroke: #000000; stroke-width: 1.5; stroke-linecap: square"/>
   </g>
   <g id="line2d_2">
    <path d="M 0 459 
L 44 459 
L 88 454.576728 
L 132 453.618772 
L 176 453.948957 
L 220 450.398145 
L 264 453.163589 
L 308 459.482002 
L 352 455.959895 
L 396 454.525532 
L 440 448.209543 
L 484 436.979822 
L 528 431.531974 
L 572 423.480553 
L 616 417.180575 
L 660 411.912978 
L 704 407.272064 
L 748 395.758295 
" clip-path="url(#p387e2fbf2d)" style="fill: none; stroke: #000000; stroke-width: 1.5; stroke-linecap: square"/>
   </g>
   <g id="line2d_3">
    <path d="M 0 459 
L 44 459 
L 88 455.113334 
L 132 454.110636 
L 176 454.160325 
L 220 451.637296 
L 264 453.044997 
L 308 457.725976 
L 352 455.783642 
L 396 454.965639 
L 440 451.025348 
L 484 443.482737 
L 528 438.333998 
L 572 431.577537 
L 616 425.508772 
L 660 420.011958 
L 704 414.946371 
L 748 405.917142 
" clip-path="url(#p387e2fbf2d)" style="fill: none; stroke: #000000; stroke-width: 1.5; stroke-linecap: square"/>
   </g>
   <g id="line2d_4">
    <path d="M 0 459 
L 44 459 
L 88 455.39579 
L 132 454.41638 
L 176 454.359577 
L 220 452.358042 
L 264 453.21571 
L 308 456.475746 
L 352 455.422108 
L 396 454.957179 
L 440 452.439914 
L 484 447.467969 
L 528 443.594648 
L 572 438.598336 
L 616 433.777677 
L 660 429.139315 
L 704 424.655739 
L 748 417.873258 
" clip-path="url(#p387e2fbf2d)" style="fill: none; stroke: #000000; stroke-width: 1.5; stroke-linecap: square"/>
   </g>
   <g id="line2d_5">
    <path d="M 0 459 
L 44 459 
L 88 455.538877 
L 132 454.58212 
L 176 454.484572 
L 220 452.733935 
L 264 453.370414 
L 308 455.970004 
L 352 455.229519 
L 396 454.90531 
L 440 453.047484 
L 484 449.371478 
L 528 446.391482 
L 572 442.594892 
L 616 438.857636 
L 660 435.194616 
L 704 431.595522 
L 748 426.48788 
" clip-path="url(#p387e2fbf2d)" style="fill: none; stroke: #000000; stroke-width: 1.5; stroke-linecap: square"/>
   </g>
   <g id="line2d_6">
    <path d="M 0 459 
L 44 459 
L 88 455.610655 
L 132 454.66777 
L 176 454.553213 
L 220 452.923873 
L 264 453.464539 
L 308 455.757796 
L 352 455.142784 
L 396 454.876416 
L 440 453.31549 
L 484 450.241593 
L 528 447.722919 
L 572 444.547493 
L 616 441.414335 
L 660 438.337734 
L 704 435.311279 
L 748 431.146347 
" clip-path="url(#p387e2fbf2d)" style="fill: none; stroke: #000000; stroke-width: 1.5; stroke-linecap: square"/>
   </g>
   <g id="line2d_7">
    <path d="M 0 459 
L 44 459 
L 88 455.646574 
L 132 454.711226 
L 176 454.589014 
L 220 453.019078 
L 264 453.515558 
L 308 455.662812 
L 352 455.103388 
L 396 454.862747 
L 440 453.440061 
L 484 450.64961 
L 528 448.356733 
L 572 445.485193 
L 616 442.655093 
L 660 439.880051 
L 704 437.155112 
L 748 433.463532 
" clip-path="url(#p387e2fbf2d)" style="fill: none; stroke: #000000; stroke-width: 1.5; stroke-linecap: square"/>
   </g>
   <g id="line2d_8">
    <path d="M 0 459 
L 44 459 
L 88 455.664537 
L 132 454.733103 
L 176 454.607275 
L 220 453.066705 
L 264 453.542017 
L 308 455.618184 
L 352 455.084864 
L 396 454.856304 
L 440 453.5 
L 484 450.846215 
L 528 448.663974 
L 572 445.941156 
L 616 443.26079 
L 660 440.636105 
L 704 438.062777 
L 748 434.604381 
" clip-path="url(#p387e2fbf2d)" style="fill: none; stroke: #000000; stroke-width: 1.5; stroke-linecap: square"/>
   </g>
   <g id="line2d_9">
    <path d="M 0 459 
L 44 459 
L 88 455.673519 
L 132 454.744077 
L 176 454.616495 
L 220 453.09052 
L 264 453.555479 
L 308 455.596594 
L 352 455.075917 
L 396 454.853204 
L 440 453.529388 
L 484 450.942602 
L 528 448.814992 
L 572 446.165545 
L 616 443.559346 
L 660 441.009416 
L 704 438.511722 
L 748 435.168535 
" clip-path="url(#p387e2fbf2d)" style="fill: none; stroke: #000000; stroke-width: 1.5; stroke-linecap: square"/>
   </g>
  </g>
 </g>
 <defs>
  <clipPath id="p387e2fbf2d">
   <rect x="0" y="0" width="792" height="612"/>
  </clipPath>
 </defs>
</svg>
