<?xml version="1.0" encoding="utf-8" standalone="no"?>
<!DOCTYPE svg PUBLIC "-//W3C//DTD SVG 1.1//EN"
  "http://www.w3.org/Graphics/SVG/1.1/DTD/svg11.dtd">
<svg xmlns:xlink="http://www.w3.org/1999/xlink" width="792pt" height="612pt" viewBox="0 0 792 612" xmlns="http://www.w3.org/2000/svg" version="1.1">
 <metadata>
  <rdf:RDF xmlns:dc="http://purl.org/dc/elements/1.1/" xmlns:cc="http://creativecommons.org/ns#" xmlns:rdf="http://www.w3.org/1999/02/22-rdf-syntax-ns#">
   <cc:Work>
    <dc:type rdf:resource="http://purl.org/dc/dcmitype/StillImage"/>
    <dc:date>2022-12-26T20:27:21.797514</dc:date>
    <dc:format>image/svg+xml</dc:format>
    <dc:creator>
     <cc:Agent>
      <dc:title>Matplotlib v3.6.2, https://matplotlib.org/</dc:title>
     </cc:Agent>
    </dc:creator>
   </cc:Work>
  </rdf:RDF>
 </metadata>
 <defs>
  <style type="text/css">*{stroke-linejoin: round; stroke-linecap: butt}</style>
 </defs>
 <g id="figure_1">
  <g id="patch_1">
   <path d="M 0 612 
L 792 612 
L 792 0 
L 0 0 
z
" style="fill: #ffffff"/>
  </g>
  <g id="axes_1">
   <g id="line2d_1">
    <path d="M 0 459 
L 3.142857 451.791169 
L 6.285714 452.782252 
L 9.428571 449.599024 
L 12.571429 452.722185 
L 15.714286 447.107113 
L 18.857143 450.199573 
L 22 451.821201 
L 25.142857 446.686855 
L 28.285714 443.895704 
L 31.428571 447.587431 
L 34.571429 443.715666 
L 37.714286 443.985725 
L 40.857143 451.070423 
L 44 459.861126 
L 47.142857 459.530694 
L 50.285714 461.693521 
L 53.428571 464.18678 
L 56.571429 474.440183 
L 59.714286 474.360079 
L 62.857143 475.311322 
L 66 478.225131 
L 69.142857 476.402749 
L 72.285714 473.188547 
L 75.428571 468.842866 
L 78.571429 467.320877 
L 81.714286 469.193325 
L 84.857143 471.786715 
L 88 469.79411 
L 91.142857 469.303469 
L 94.285714 469.333508 
L 100.571429 459.640838 
L 103.714286 462.334359 
L 106.857143 460.952552 
L 110 453.232764 
L 113.142857 448.337978 
L 116.285714 458.549411 
L 119.428571 460.441885 
L 122.571429 463.716165 
L 125.714286 465.939071 
L 128.857143 462.40445 
L 132 462.27428 
L 135.142857 463.345681 
L 138.285714 466.109293 
L 141.428571 464.467147 
L 144.571429 466.239463 
L 147.714286 471.095812 
L 150.857143 478.325262 
L 154 480.077552 
L 157.142857 478.175065 
L 160.285714 478.185079 
L 163.428571 480.077552 
L 166.571429 482.801113 
L 169.714286 477.624346 
L 172.857143 473.679188 
L 176 472.347448 
L 179.142857 471.516361 
L 182.285714 473.19856 
L 185.428571 471.70661 
L 188.571429 474.179843 
L 191.714286 472.858115 
L 194.857143 472.67788 
L 198 473.098429 
L 201.142857 469.433639 
L 204.285714 470.855497 
L 207.428571 474.660471 
L 210.571429 474.820681 
L 213.714286 473.238613 
L 220 479.256479 
L 223.142857 479.957395 
L 226.285714 479.957395 
L 229.428571 481.178992 
L 232.571429 480.988743 
L 235.714286 479.476767 
L 238.857143 481.359228 
L 242 484.062762 
L 245.142857 479.927356 
L 248.285714 487.26695 
L 251.428571 490.180759 
L 254.571429 493.575196 
L 257.714286 491.892997 
L 260.857143 496.078469 
L 264 496.639202 
L 267.142857 496.559097 
L 270.285714 500.223887 
L 273.428571 498.35144 
L 276.571429 498.301374 
L 279.714286 495.657919 
L 282.857143 499.242605 
L 286 501.565641 
L 289.142857 504.879974 
L 292.285714 504.179058 
L 295.428571 506.652291 
L 298.571429 507.553469 
L 301.714286 504.529516 
L 304.857143 506.68233 
L 308 503.217801 
L 311.142857 507.563482 
L 314.285714 508.725 
L 317.428571 509.445942 
L 320.571429 506.031479 
L 323.714286 510.277029 
L 326.857143 508.604843 
L 330 506.251767 
L 333.142857 502.536911 
L 336.285714 501.415445 
L 339.428571 502.667081 
L 342.571429 500.984882 
L 345.714286 503.187762 
L 348.857143 504.028861 
L 352 504.068914 
L 355.142857 504.519503 
L 361.428571 512.469895 
L 364.571429 516.164725 
L 367.714286 517.656675 
L 370.857143 515.994503 
L 374 517.596597 
L 377.142857 517.536518 
L 380.285714 518.587893 
L 383.428571 518.377618 
L 386.571429 517.576571 
L 389.714286 514.092016 
L 392.857143 515.263547 
L 396 515.95445 
L 399.142857 516.224804 
L 402.285714 517.47644 
L 405.428571 515.734162 
L 408.571429 514.692801 
L 411.714286 515.794241 
L 414.857143 514.442474 
L 418 516.014529 
L 421.142857 518.237435 
L 424.285714 518.277487 
L 427.428571 518.938351 
L 430.571429 520.039791 
L 433.714286 516.675393 
L 436.857143 516.174738 
L 443.142857 508.514725 
L 446.285714 507.683639 
L 449.428571 509.14555 
L 452.571429 509.175589 
L 455.714286 512.089398 
L 458.857143 508.364529 
L 462 506.962696 
L 465.142857 505.761126 
L 468.285714 505.640969 
L 471.428571 507.152945 
L 474.571429 502.837304 
L 477.714286 503.738482 
L 480.857143 505.230432 
L 484 502.747186 
L 487.142857 503.728469 
L 490.285714 499.42284 
L 493.428571 494.155955 
L 496.571429 490.270877 
L 499.714286 487.577356 
L 502.857143 486.87644 
L 506 489.029254 
L 509.142857 489.169437 
L 512.285714 491.702749 
L 515.428571 495.908246 
L 518.571429 496.98966 
L 521.714286 495.437631 
L 524.857143 494.386257 
L 528 497.780694 
L 531.142857 498.321401 
L 534.285714 499.42284 
L 537.428571 499.773298 
L 540.571429 499.322709 
L 543.714286 500.65445 
L 546.857143 501.765903 
L 550 499.1625 
L 553.142857 499.522971 
L 556.285714 496.669241 
L 559.428571 495.457657 
L 562.571429 500.093717 
L 565.714286 499.352749 
L 568.857143 501.085013 
L 572 503.608312 
L 575.142857 502.687107 
L 578.285714 504.289202 
L 581.428571 507.373233 
L 584.571429 509.706283 
L 587.714286 512.369764 
L 590.857143 513.751571 
L 594 516.024542 
L 597.142857 512.469895 
L 600.285714 514.422448 
L 603.428571 517.546531 
L 606.571429 514.742866 
L 609.714286 510.427225 
L 612.857143 511.068063 
L 616 511.829058 
L 619.142857 514.712827 
L 625.428571 518.778141 
L 628.571429 518.467736 
L 631.714286 515.233508 
L 634.857143 517.426374 
L 638 514.542605 
L 641.142857 513.391099 
L 644.285714 512.880432 
L 647.428571 513.280955 
L 650.571429 509.82644 
L 653.714286 510.146859 
L 656.857143 507.503403 
L 660 507.23305 
L 663.142857 507.423298 
L 666.285714 505.911322 
L 669.428571 505.32055 
L 672.571429 505.861257 
L 675.714286 510.046728 
L 678.857143 512.620092 
L 682 512.28966 
L 685.142857 511.438547 
L 688.285714 511.969241 
L 691.428571 525.136453 
L 694.571429 521.421597 
L 697.714286 516.865641 
L 700.857143 517.596597 
L 704 516.364987 
L 707.142857 517.927029 
L 710.285714 520.430301 
L 713.428571 520.079843 
L 716.571429 514.292277 
L 719.714286 515.664071 
L 722.857143 512.990576 
L 726 513.000589 
L 729.142857 516.184751 
L 732.285714 517.18606 
L 735.428571 514.001898 
L 738.571429 513.280955 
L 741.714286 512.439856 
L 748 519.589202 
L 751.142857 519.729385 
L 754.285714 519.328861 
L 757.428571 518.497775 
L 760.571429 517.216099 
L 763.714286 517.176047 
L 766.857143 517.726767 
L 770 521.391558 
L 773.142857 521.802094 
L 776.285714 526.107723 
L 779.428571 524.866099 
L 782.571429 524.96623 
L 785.714286 525.216558 
L 788.857143 523.874804 
L 788.857143 523.874804 
" clip-path="url(#pa0627cb37b)" style="fill: none; stroke: #000000; stroke-width: 1.5; stroke-linecap: square"/>
   </g>
   <g id="line2d_2">
    <path d="M 0 459 
L 3.142857 459 
L 6.285714 454.193893 
L 9.428571 453.387228 
L 12.571429 451.366725 
L 15.714286 452.066302 
L 18.857143 449.547074 
L 22 449.875888 
L 25.142857 450.852322 
L 28.285714 448.745241 
L 31.428571 446.304639 
L 34.571429 446.935829 
L 37.714286 445.314045 
L 40.857143 444.632732 
L 44 447.858799 
L 47.142857 454.742439 
L 50.285714 457.684402 
L 53.428571 460.140825 
L 56.571429 462.183848 
L 59.714286 468.349751 
L 62.857143 471.395026 
L 66 473.394974 
L 69.142857 475.852932 
L 72.285714 476.160275 
L 75.428571 474.701191 
L 78.571429 471.786047 
L 81.714286 469.559607 
L 84.857143 469.366178 
L 88 470.571401 
L 94.285714 469.720209 
L 97.428571 469.512997 
L 100.571429 467.028259 
L 103.714286 463.316505 
L 106.857143 462.815654 
L 110 461.867945 
L 113.142857 459.443874 
L 116.285714 454.249607 
L 119.428571 456.337962 
L 122.571429 459.25983 
L 128.857143 463.725039 
L 132 463.064882 
L 135.142857 462.672173 
L 138.285714 463.021217 
L 141.428571 464.586165 
L 144.571429 464.53767 
L 147.714286 465.399935 
L 150.857143 468.262343 
L 154 473.318089 
L 157.142857 476.732474 
L 160.285714 477.484948 
L 163.428571 477.86411 
L 166.571429 478.99822 
L 169.714286 480.935615 
L 172.857143 479.302304 
L 176 476.495812 
L 179.142857 474.409908 
L 182.285714 472.946348 
L 185.428571 473.062696 
L 188.571429 472.37195 
L 191.714286 473.264332 
L 198 472.850105 
L 201.142857 472.973128 
L 204.285714 471.19767 
L 207.428571 471.025288 
L 210.571429 472.845746 
L 213.714286 473.839319 
L 216.857143 473.53712 
L 220 474.876361 
L 223.142857 477.079319 
L 226.285714 478.531806 
L 229.428571 479.265236 
L 232.571429 480.242356 
L 235.714286 480.627958 
L 238.857143 480.061492 
L 242 480.726283 
L 245.142857 482.409935 
L 248.285714 481.169961 
L 257.714286 490.425314 
L 260.857143 491.180537 
L 264 493.662055 
L 267.142857 495.180589 
L 270.285714 495.894346 
L 273.428571 498.098914 
L 279.714286 498.290065 
L 282.857143 496.978076 
L 286 498.124751 
L 289.142857 499.855955 
L 292.285714 502.384123 
L 295.428571 503.296531 
L 298.571429 504.987016 
L 301.714286 506.288285 
L 304.857143 505.421113 
L 308 506.073338 
L 311.142857 504.653364 
L 314.285714 506.120183 
L 317.428571 507.430131 
L 320.571429 508.448364 
L 323.714286 507.238704 
L 326.857143 508.763207 
L 330 508.692016 
L 333.142857 507.471047 
L 336.285714 505.002644 
L 339.428571 503.19699 
L 342.571429 502.920157 
L 345.714286 501.935929 
L 352 503.280314 
L 358.285714 504.089215 
L 361.428571 506.338822 
L 364.571429 509.426034 
L 367.714286 512.821846 
L 370.857143 515.27195 
L 374 515.658338 
L 377.142857 516.654071 
L 380.285714 517.121702 
L 383.428571 517.882382 
L 386.571429 518.149241 
L 389.714286 517.872919 
L 392.857143 515.978403 
L 396 515.616283 
L 402.285714 516.002356 
L 405.428571 516.73928 
L 408.571429 516.231126 
L 411.714286 515.454738 
L 414.857143 515.620995 
L 418 515.032421 
L 421.142857 515.524948 
L 424.285714 516.885668 
L 430.571429 518.264843 
L 433.714286 519.160759 
L 436.857143 517.921963 
L 440 517.049097 
L 443.142857 514.650079 
L 446.285714 511.567696 
L 449.428571 509.604974 
L 452.571429 509.357356 
L 455.714286 509.24733 
L 458.857143 510.652775 
L 462 509.492356 
L 468.285714 506.972552 
L 471.428571 506.301126 
L 474.571429 506.725995 
L 477.714286 504.76928 
L 480.857143 504.24322 
L 484 504.723377 
L 487.142857 503.724267 
L 490.285714 503.720026 
L 493.428571 501.559005 
L 499.714286 494.019817 
L 502.857143 490.768665 
L 506 488.78949 
L 512.285714 488.996898 
L 515.428571 490.326243 
L 518.571429 493.110353 
L 521.714286 495.055563 
L 524.857143 495.256728 
L 528 494.834843 
L 531.142857 496.329149 
L 537.428571 498.403272 
L 540.571429 499.10411 
L 543.714286 499.220105 
L 546.857143 499.944463 
L 550 500.867592 
L 553.142857 500.024411 
L 556.285714 499.777107 
L 559.428571 498.219935 
L 562.571429 496.831021 
L 565.714286 498.462997 
L 568.857143 498.907932 
L 572 499.997317 
L 575.142857 501.806427 
L 578.285714 502.253678 
L 581.428571 503.280785 
L 584.571429 505.347997 
L 587.714286 507.555079 
L 590.857143 509.986492 
L 594 511.897264 
L 597.142857 513.990196 
L 600.285714 513.247421 
L 603.428571 513.857945 
L 606.571429 515.728233 
L 609.714286 515.25 
L 612.857143 512.840026 
L 616 511.951492 
L 619.142857 511.886505 
L 622.285714 513.297094 
L 625.428571 515.014594 
L 628.571429 516.904908 
L 631.714286 517.688128 
L 634.857143 516.46178 
L 638 516.957801 
L 644.285714 514.57712 
L 647.428571 513.725183 
L 650.571429 513.496335 
L 653.714286 511.643835 
L 656.857143 510.879031 
L 660 509.17606 
L 663.142857 508.184568 
L 666.285714 507.789974 
L 669.428571 506.835982 
L 672.571429 506.063442 
L 675.714286 505.947801 
L 678.857143 507.997696 
L 682 510.313743 
L 685.142857 511.311086 
L 688.285714 511.383063 
L 691.428571 511.685065 
L 694.571429 518.448455 
L 697.714286 519.966597 
L 700.857143 518.437696 
L 704 518.03195 
L 707.142857 517.205812 
L 710.285714 517.577474 
L 713.428571 519.021518 
L 716.571429 519.566584 
L 719.714286 516.908168 
L 722.857143 516.27483 
L 726 514.625105 
L 729.142857 513.803835 
L 735.428571 516.088547 
L 738.571429 515.032618 
L 744.857143 513.288024 
L 748 514.61678 
L 751.142857 517.115929 
L 754.285714 518.435851 
L 757.428571 518.888521 
L 760.571429 518.69572 
L 763.714286 517.962212 
L 766.857143 517.576767 
L 770 517.662134 
L 773.142857 519.537526 
L 776.285714 520.674149 
L 779.428571 523.403442 
L 782.571429 524.145628 
L 788.857143 524.908272 
L 788.857143 524.908272 
" clip-path="url(#pa0627cb37b)" style="fill: none; stroke: #000000; stroke-width: 1.5; stroke-linecap: square"/>
   </g>
   <g id="line2d_3">
    <path d="M 0 459 
L 3.142857 459 
L 6.285714 454.776936 
L 9.428571 453.873157 
L 12.571429 452.203858 
L 15.714286 452.38827 
L 18.857143 450.620217 
L 22 450.485066 
L 25.142857 450.902486 
L 28.285714 449.610487 
L 31.428571 447.882283 
L 34.571429 447.793971 
L 37.714286 446.580288 
L 40.857143 445.811778 
L 44 447.363829 
L 47.142857 451.550668 
L 50.285714 454.208934 
L 53.428571 457.988107 
L 56.571429 460.289385 
L 59.714286 464.454173 
L 62.857143 467.376788 
L 66 469.721898 
L 69.142857 472.239074 
L 72.285714 473.481944 
L 75.428571 473.415056 
L 81.714286 470.709852 
L 84.857143 470.28175 
L 88 470.743085 
L 97.428571 469.92357 
L 100.571429 468.363478 
L 103.714286 465.806318 
L 106.857143 464.787277 
L 110 463.64862 
L 116.285714 459.848158 
L 119.428571 459.533492 
L 122.571429 459.781222 
L 125.714286 460.92286 
L 128.857143 462.388739 
L 135.142857 462.346528 
L 138.285714 462.629478 
L 141.428571 463.64446 
L 144.571429 463.879864 
L 147.714286 464.567421 
L 150.857143 466.487029 
L 154 469.975828 
L 157.142857 472.954935 
L 160.285714 474.503657 
L 163.428571 475.606165 
L 166.571429 476.944097 
L 169.714286 478.687087 
L 172.857143 478.395553 
L 179.142857 475.662765 
L 182.285714 474.458778 
L 185.428571 474.102216 
L 188.571429 473.410163 
L 191.714286 473.644867 
L 198 473.212911 
L 201.142857 473.181681 
L 204.285714 472.073692 
L 207.428571 471.706298 
L 210.571429 472.567519 
L 213.714286 473.22359 
L 216.857143 473.220135 
L 220 474.086066 
L 223.142857 475.60232 
L 226.285714 476.885103 
L 232.571429 478.796326 
L 235.714286 479.447418 
L 238.857143 479.464939 
L 242 480.028009 
L 245.142857 481.222631 
L 248.285714 480.85158 
L 251.428571 482.746873 
L 254.571429 484.948038 
L 257.714286 487.50097 
L 260.857143 488.807158 
L 264 490.961292 
L 267.142857 492.651191 
L 270.285714 493.819172 
L 273.428571 495.719153 
L 276.571429 496.511259 
L 279.714286 497.056642 
L 282.857143 496.663596 
L 286 497.439936 
L 289.142857 498.673699 
L 292.285714 500.518491 
L 295.428571 501.613751 
L 298.571429 503.120202 
L 301.714286 504.441977 
L 304.857143 504.484097 
L 308 505.142999 
L 311.142857 504.59213 
L 320.571429 507.336082 
L 323.714286 506.960643 
L 326.857143 507.945688 
L 330 508.150584 
L 333.142857 507.606602 
L 339.428571 504.74579 
L 342.571429 504.134408 
L 345.714286 503.208265 
L 348.857143 503.19828 
L 358.285714 503.882325 
L 361.428571 505.259929 
L 364.571429 507.377315 
L 367.714286 509.959633 
L 370.857143 512.223475 
L 374 513.339427 
L 377.142857 514.594731 
L 383.428571 516.394988 
L 386.571429 516.993882 
L 389.714286 517.18311 
L 392.857143 516.290872 
L 396 516.006376 
L 402.285714 516.083975 
L 405.428571 516.507218 
L 408.571429 516.293677 
L 411.714286 515.83183 
L 414.857143 515.824639 
L 418 515.417834 
L 421.142857 515.590715 
L 424.285714 516.368498 
L 430.571429 517.518718 
L 433.714286 518.258791 
L 440 517.317461 
L 443.142857 515.833949 
L 446.285714 513.682446 
L 449.428571 511.915936 
L 452.571429 511.096378 
L 455.714286 510.524257 
L 458.857143 510.97849 
L 462 510.20561 
L 468.285714 508.215077 
L 471.428571 507.449223 
L 474.571429 507.349714 
L 477.714286 506.010325 
L 480.857143 505.327459 
L 484 505.28203 
L 487.142857 504.523594 
L 490.285714 504.276411 
L 493.428571 502.840089 
L 496.571429 500.280073 
L 502.857143 494.447645 
L 506 492.204478 
L 509.142857 491.247989 
L 512.285714 490.617148 
L 515.428571 490.917585 
L 521.714286 493.711715 
L 524.857143 494.203768 
L 528 494.247511 
L 531.142857 495.275513 
L 540.571429 497.886673 
L 543.714286 498.307163 
L 546.857143 499.002132 
L 550 499.824825 
L 553.142857 499.644141 
L 556.285714 499.623177 
L 562.571429 497.804772 
L 565.714286 498.484826 
L 568.857143 498.742991 
L 572 499.433658 
L 575.142857 500.66577 
L 578.285714 501.267341 
L 581.428571 502.159899 
L 584.571429 503.697246 
L 587.714286 505.469064 
L 590.857143 507.5047 
L 597.142857 511.323246 
L 600.285714 511.671387 
L 603.428571 512.494681 
L 606.571429 513.995036 
L 609.714286 514.23483 
L 612.857143 513.136802 
L 616 512.543488 
L 619.142857 512.348566 
L 622.285714 513.056695 
L 625.428571 514.143373 
L 628.571429 515.519347 
L 631.714286 516.399196 
L 634.857143 516.066802 
L 638 516.473879 
L 641.142857 515.910717 
L 647.428571 514.497433 
L 650.571429 514.142067 
L 653.714286 512.87277 
L 656.857143 512.06587 
L 660 510.721239 
L 663.142857 509.695903 
L 666.285714 509.026086 
L 672.571429 507.280077 
L 675.714286 506.852047 
L 678.857143 507.777718 
L 682 509.1893 
L 685.142857 510.093993 
L 691.428571 510.913888 
L 694.571429 515.093071 
L 697.714286 516.956464 
L 700.857143 516.93398 
L 704 517.136981 
L 707.142857 516.918011 
L 710.285714 517.225518 
L 713.428571 518.179336 
L 716.571429 518.750519 
L 719.714286 517.454356 
L 722.857143 516.941874 
L 726 515.792755 
L 729.142857 514.978341 
L 732.285714 515.335785 
L 735.428571 515.883342 
L 741.714286 514.735049 
L 744.857143 514.048219 
L 748 514.597318 
L 751.142857 516.062535 
L 754.285714 517.13898 
L 757.428571 517.783786 
L 760.571429 517.993564 
L 766.857143 517.587155 
L 770 517.631991 
L 773.142857 518.739721 
L 776.285714 519.64679 
L 779.428571 521.554209 
L 782.571429 522.53421 
L 785.714286 523.255469 
L 788.857143 523.84274 
L 788.857143 523.84274 
" clip-path="url(#pa0627cb37b)" style="fill: none; stroke: #000000; stroke-width: 1.5; stroke-linecap: square"/>
   </g>
   <g id="line2d_4">
    <path d="M 0 459 
L 3.142857 459 
L 6.285714 455.083838 
L 9.428571 454.180518 
L 12.571429 452.722506 
L 15.714286 452.722418 
L 18.857143 451.340138 
L 22 451.081885 
L 25.142857 451.238719 
L 28.285714 450.321576 
L 31.428571 449.07931 
L 34.571429 448.800485 
L 37.714286 447.875676 
L 40.857143 447.183942 
L 44 447.862143 
L 47.142857 450.219789 
L 50.285714 451.979734 
L 53.428571 454.515292 
L 59.714286 461.231938 
L 62.857143 463.388051 
L 66 465.336281 
L 69.142857 467.433281 
L 72.285714 468.887375 
L 75.428571 469.582569 
L 78.571429 469.463313 
L 81.714286 469.118635 
L 84.857143 469.13063 
L 88 469.55655 
L 94.285714 469.54802 
L 97.428571 469.513731 
L 100.571429 468.725246 
L 103.714286 467.280284 
L 110 465.617327 
L 116.285714 462.856111 
L 119.428571 462.221074 
L 122.571429 461.940728 
L 125.714286 462.227642 
L 128.857143 462.825035 
L 135.142857 462.689984 
L 138.285714 462.800199 
L 141.428571 463.334247 
L 144.571429 463.519556 
L 147.714286 463.956283 
L 150.857143 465.099423 
L 157.142857 469.270618 
L 160.285714 470.689678 
L 166.571429 473.19111 
L 169.714286 474.722951 
L 172.857143 475.185335 
L 176 474.946008 
L 182.285714 474.057135 
L 185.428571 473.923032 
L 188.571429 473.570341 
L 191.714286 473.670051 
L 201.142857 473.363656 
L 204.285714 472.744486 
L 207.428571 472.449258 
L 213.714286 473.14066 
L 216.857143 473.167346 
L 220 473.661075 
L 226.285714 475.431454 
L 235.714286 477.621494 
L 238.857143 477.92674 
L 242 478.482376 
L 245.142857 479.382462 
L 248.285714 479.477697 
L 251.428571 480.727085 
L 254.571429 482.238595 
L 257.714286 484.050711 
L 260.857143 485.307006 
L 264 487.031948 
L 267.142857 488.57083 
L 270.285714 489.850376 
L 273.428571 491.51494 
L 276.571429 492.618045 
L 279.714286 493.538477 
L 282.857143 493.89075 
L 286 494.758499 
L 289.142857 495.86017 
L 292.285714 497.314408 
L 295.428571 498.426141 
L 301.714286 501.018228 
L 304.857143 501.598784 
L 308 502.429948 
L 311.142857 502.573116 
L 320.571429 505.104904 
L 323.714286 505.269031 
L 326.857143 506.084739 
L 330 506.503571 
L 333.142857 506.479152 
L 339.428571 505.171061 
L 342.571429 504.785963 
L 345.714286 504.191756 
L 348.857143 504.04653 
L 358.285714 504.144299 
L 361.428571 504.858017 
L 364.571429 506.079321 
L 370.857143 509.29405 
L 383.428571 513.482181 
L 386.571429 514.273002 
L 389.714286 514.808601 
L 392.857143 514.700337 
L 399.142857 514.986843 
L 402.285714 515.189217 
L 405.428571 515.5612 
L 408.571429 515.594367 
L 411.714286 515.458084 
L 414.857143 515.516703 
L 418 515.349357 
L 421.142857 515.459287 
L 433.714286 517.255486 
L 440 517.022551 
L 443.142857 516.270737 
L 449.428571 513.873581 
L 452.571429 513.124527 
L 455.714286 512.499423 
L 458.857143 512.438909 
L 462 511.790536 
L 471.428571 509.446912 
L 474.571429 509.076417 
L 477.714286 508.074543 
L 480.857143 507.376051 
L 484 507.026341 
L 487.142857 506.33576 
L 490.285714 505.91229 
L 493.428571 504.870643 
L 496.571429 503.152728 
L 506 496.984585 
L 509.142857 495.702201 
L 512.285714 494.64689 
L 515.428571 494.163435 
L 518.571429 494.429477 
L 521.714286 494.824941 
L 524.857143 494.908196 
L 528 494.810247 
L 534.285714 495.741648 
L 540.571429 496.856318 
L 543.714286 497.240658 
L 550 498.409554 
L 556.285714 498.676179 
L 559.428571 498.347247 
L 562.571429 497.87945 
L 565.714286 498.227462 
L 568.857143 498.4025 
L 572 498.826455 
L 575.142857 499.585054 
L 578.285714 500.078508 
L 581.428571 500.748788 
L 584.571429 501.804098 
L 587.714286 503.065706 
L 597.142857 507.628873 
L 600.285714 508.412947 
L 603.428571 509.38583 
L 606.571429 510.703363 
L 609.714286 511.362106 
L 612.857143 511.226627 
L 616 511.213481 
L 619.142857 511.321355 
L 622.285714 511.872009 
L 625.428571 512.655893 
L 628.571429 513.645183 
L 631.714286 514.425376 
L 634.857143 514.564505 
L 638 515.031072 
L 641.142857 514.96257 
L 650.571429 514.259461 
L 653.714286 513.560805 
L 656.857143 513.024263 
L 663.142857 511.377258 
L 666.285714 510.752742 
L 672.571429 509.246812 
L 675.714286 508.709564 
L 678.857143 508.926904 
L 682 509.519701 
L 685.142857 509.963479 
L 691.428571 510.480611 
L 694.571429 512.819511 
L 697.714286 514.191501 
L 704 515.095323 
L 707.142857 515.296594 
L 710.285714 515.717092 
L 713.428571 516.473222 
L 716.571429 517.052671 
L 719.714286 516.615019 
L 722.857143 516.464314 
L 729.142857 515.442913 
L 732.285714 515.559518 
L 735.428571 515.819525 
L 741.714286 515.169866 
L 744.857143 514.734918 
L 748 514.929269 
L 754.285714 516.325924 
L 757.428571 516.809431 
L 760.571429 517.084912 
L 770 517.230879 
L 776.285714 518.533209 
L 779.428571 519.748362 
L 785.714286 521.277579 
L 788.857143 521.912881 
L 788.857143 521.912881 
" clip-path="url(#pa0627cb37b)" style="fill: none; stroke: #000000; stroke-width: 1.5; stroke-linecap: square"/>
   </g>
   <g id="line2d_5">
    <path d="M 0 459 
L 3.142857 459 
L 6.285714 455.239307 
L 9.428571 454.34836 
L 12.571429 453.002415 
L 15.714286 452.936262 
L 18.857143 451.742652 
L 22 451.46101 
L 25.142857 451.520798 
L 28.285714 450.77976 
L 31.428571 449.793615 
L 34.571429 449.495589 
L 37.714286 448.753309 
L 40.857143 448.167647 
L 44 448.510454 
L 47.142857 450.001658 
L 50.285714 451.173341 
L 53.428571 452.88595 
L 56.571429 455.163434 
L 59.714286 459.440112 
L 69.142857 463.913342 
L 72.285714 465.113511 
L 75.428571 465.879449 
L 78.571429 466.157243 
L 81.714286 466.265163 
L 84.857143 466.534113 
L 88 467.012326 
L 94.285714 467.446464 
L 97.428571 467.614536 
L 100.571429 467.345652 
L 103.714286 466.667305 
L 110 465.82252 
L 116.285714 464.231203 
L 119.428571 463.76733 
L 122.571429 463.481594 
L 125.714286 463.501691 
L 128.857143 463.709951 
L 138.285714 463.47413 
L 141.428571 463.697361 
L 144.571429 463.76246 
L 147.714286 463.971605 
L 150.857143 464.57227 
L 157.142857 466.936923 
L 169.714286 470.793767 
L 172.857143 471.365549 
L 176 471.559084 
L 201.142857 472.163194 
L 204.285714 471.940048 
L 207.428571 471.854675 
L 213.714286 472.325846 
L 216.857143 472.406918 
L 220 472.728824 
L 235.714286 475.442258 
L 238.857143 475.785429 
L 242 476.256939 
L 245.142857 476.913808 
L 248.285714 477.170451 
L 251.428571 478.017447 
L 254.571429 479.036225 
L 257.714286 480.252466 
L 260.857143 481.224263 
L 267.142857 483.647583 
L 270.285714 484.725154 
L 273.428571 486.019239 
L 279.714286 487.994279 
L 282.857143 488.639553 
L 286 489.529344 
L 289.142857 490.538 
L 292.285714 491.739746 
L 295.428571 492.783509 
L 301.714286 495.090002 
L 308 496.798369 
L 311.142857 497.344912 
L 320.571429 499.974712 
L 323.714286 500.492237 
L 326.857143 501.31949 
L 330 501.938031 
L 333.142857 502.310325 
L 342.571429 502.321921 
L 345.714286 502.222838 
L 355.142857 502.60917 
L 358.285714 502.775676 
L 361.428571 503.26604 
L 364.571429 504.041081 
L 370.857143 506.115938 
L 386.571429 510.255336 
L 389.714286 510.877899 
L 396 511.512223 
L 408.571429 512.981352 
L 421.142857 513.696657 
L 433.714286 515.276902 
L 440 515.48045 
L 443.142857 515.223192 
L 449.428571 514.103206 
L 455.714286 513.32963 
L 458.857143 513.232722 
L 465.142857 512.350287 
L 471.428571 511.297634 
L 474.571429 510.955897 
L 477.714286 510.283546 
L 480.857143 509.742102 
L 484 509.370767 
L 487.142857 508.822177 
L 490.285714 508.400124 
L 493.428571 507.65327 
L 496.571429 506.529785 
L 502.857143 503.707992 
L 506 502.305296 
L 512.285714 500.194823 
L 515.428571 499.484853 
L 518.571429 499.183838 
L 521.714286 498.997676 
L 528 498.335666 
L 534.285714 498.286433 
L 546.857143 498.735999 
L 550 498.987006 
L 556.285714 499.041913 
L 562.571429 498.557247 
L 572 498.921018 
L 581.428571 499.968163 
L 584.571429 500.579104 
L 587.714286 501.333801 
L 594 503.202682 
L 597.142857 504.267092 
L 603.428571 505.732615 
L 606.571429 506.713145 
L 609.714286 507.379257 
L 619.142857 508.23861 
L 622.285714 508.775521 
L 625.428571 509.434007 
L 631.714286 510.894926 
L 634.857143 511.253446 
L 638 511.766019 
L 641.142857 511.995933 
L 650.571429 512.270706 
L 656.857143 511.908928 
L 675.714286 509.686827 
L 678.857143 509.719044 
L 685.142857 510.158135 
L 691.428571 510.411175 
L 694.571429 511.641682 
L 697.714286 512.46225 
L 713.428571 514.439391 
L 716.571429 514.916762 
L 719.714286 514.870916 
L 722.857143 514.942822 
L 729.142857 514.644341 
L 735.428571 514.984164 
L 741.714286 514.776794 
L 744.857143 514.587107 
L 748 514.704736 
L 757.428571 515.829289 
L 760.571429 516.057867 
L 770 516.379349 
L 776.285714 517.222864 
L 779.428571 517.967894 
L 788.857143 519.599494 
L 788.857143 519.599494 
" clip-path="url(#pa0627cb37b)" style="fill: none; stroke: #000000; stroke-width: 1.5; stroke-linecap: square"/>
   </g>
   <g id="line2d_6">
    <path d="M 0 459 
L 3.142857 459 
L 6.285714 455.317298 
L 9.428571 454.435389 
L 12.571429 453.146488 
L 15.714286 453.054119 
L 18.857143 451.952382 
L 22 451.66828 
L 25.142857 451.690415 
L 28.285714 451.033268 
L 31.428571 450.172283 
L 34.571429 449.883153 
L 37.714286 449.237959 
L 40.857143 448.720697 
L 44 448.939744 
L 47.142857 450.061168 
L 50.285714 450.95391 
L 53.428571 452.265454 
L 56.571429 454.010789 
L 59.714286 457.888702 
L 62.857143 459.780322 
L 72.285714 463.04192 
L 75.428571 463.707379 
L 78.571429 464.036554 
L 84.857143 464.547 
L 88 464.983803 
L 94.285714 465.504078 
L 97.428571 465.723794 
L 100.571429 465.658984 
L 103.714286 465.323525 
L 110 464.930591 
L 119.428571 463.755933 
L 122.571429 463.583618 
L 125.714286 463.590445 
L 128.857143 463.71031 
L 138.285714 463.564036 
L 147.714286 463.850476 
L 150.857143 464.201537 
L 160.285714 466.207849 
L 166.571429 467.402381 
L 169.714286 468.124877 
L 172.857143 468.568578 
L 179.142857 468.970277 
L 188.571429 469.387986 
L 194.857143 469.754644 
L 201.142857 470.032454 
L 207.428571 470.04368 
L 220 470.830003 
L 248.285714 474.144621 
L 254.571429 475.394665 
L 279.714286 481.757831 
L 282.857143 482.359337 
L 289.142857 483.887464 
L 301.714286 487.441024 
L 330 493.952538 
L 333.142857 494.479322 
L 342.571429 495.429776 
L 348.857143 495.988783 
L 358.285714 496.998319 
L 361.428571 497.492087 
L 364.571429 498.131296 
L 377.142857 501.128838 
L 389.714286 503.828622 
L 402.285714 505.680381 
L 408.571429 506.604682 
L 424.285714 508.460741 
L 436.857143 510.091449 
L 440 510.359713 
L 443.142857 510.449951 
L 455.714286 510.194068 
L 458.857143 510.282388 
L 465.142857 510.074602 
L 484 508.945292 
L 493.428571 508.10393 
L 496.571429 507.516714 
L 502.857143 505.97834 
L 506 505.17301 
L 512.285714 503.848029 
L 515.428571 503.338866 
L 528 502.13743 
L 534.285714 501.809804 
L 546.857143 501.514088 
L 550 501.53067 
L 559.428571 501.161394 
L 562.571429 500.922447 
L 572 500.842841 
L 581.428571 501.185238 
L 587.714286 501.809509 
L 594 502.757604 
L 597.142857 503.327256 
L 603.428571 504.182046 
L 606.571429 504.756656 
L 609.714286 505.187335 
L 619.142857 505.929032 
L 625.428571 506.755315 
L 631.714286 507.752584 
L 644.285714 508.943354 
L 650.571429 509.29723 
L 660 509.285181 
L 672.571429 508.838233 
L 675.714286 508.712956 
L 682 508.936999 
L 691.428571 509.303669 
L 694.571429 509.978295 
L 697.714286 510.46632 
L 713.428571 511.92394 
L 716.571429 512.271804 
L 741.714286 512.955604 
L 744.857143 512.935363 
L 748 513.065425 
L 757.428571 513.862694 
L 763.714286 514.196712 
L 770 514.468343 
L 776.285714 515.061907 
L 782.571429 515.928598 
L 788.857143 516.691451 
L 788.857143 516.691451 
" clip-path="url(#pa0627cb37b)" style="fill: none; stroke: #000000; stroke-width: 1.5; stroke-linecap: square"/>
   </g>
   <g id="line2d_7">
    <path d="M 0 459 
L 3.142857 459 
L 6.285714 455.356325 
L 9.428571 454.479616 
L 12.571429 453.2194 
L 15.714286 453.115602 
L 18.857143 452.058981 
L 22 451.775767 
L 25.142857 451.781886 
L 28.285714 451.165378 
L 31.428571 450.365272 
L 34.571429 450.084482 
L 37.714286 449.488083 
L 40.857143 449.007528 
L 44 449.176497 
L 47.142857 450.134559 
L 50.285714 450.899446 
L 53.428571 452.024776 
L 56.571429 453.520144 
L 59.714286 456.809888 
L 62.857143 459.25061 
L 72.285714 462.041208 
L 75.428571 462.63042 
L 81.714286 463.16635 
L 97.428571 464.573886 
L 100.571429 464.574032 
L 103.714286 464.367051 
L 110 464.149181 
L 119.428571 463.362692 
L 122.571429 463.252957 
L 144.571429 463.430282 
L 147.714286 463.524527 
L 150.857143 463.775495 
L 169.714286 466.580902 
L 172.857143 466.920807 
L 179.142857 467.28466 
L 191.714286 467.894023 
L 201.142857 468.312279 
L 207.428571 468.414842 
L 223.142857 469.36488 
L 251.428571 472.010494 
L 260.857143 473.509957 
L 279.714286 476.963929 
L 286 477.974008 
L 295.428571 479.825481 
L 304.857143 481.718259 
L 320.571429 484.653457 
L 326.857143 485.767933 
L 333.142857 486.788441 
L 342.571429 487.859581 
L 352 488.887664 
L 361.428571 490.044405 
L 367.714286 491.163073 
L 377.142857 492.924745 
L 389.714286 495.159828 
L 418 498.980028 
L 430.571429 500.634634 
L 436.857143 501.42414 
L 443.142857 501.992425 
L 468.285714 503.059073 
L 484 503.255214 
L 493.428571 503.169743 
L 499.714286 502.688986 
L 512.285714 501.448637 
L 518.571429 501.116237 
L 537.428571 500.614481 
L 559.428571 500.457172 
L 565.714286 500.342221 
L 572 500.337293 
L 584.571429 500.69112 
L 590.857143 501.138021 
L 612.857143 502.999294 
L 622.285714 503.609378 
L 641.142857 505.239967 
L 650.571429 505.745444 
L 663.142857 505.988964 
L 672.571429 506.002577 
L 678.857143 506.087057 
L 691.428571 506.588038 
L 697.714286 507.300642 
L 722.857143 508.916359 
L 732.285714 509.24345 
L 738.571429 509.513624 
L 748 509.79169 
L 760.571429 510.583061 
L 773.142857 511.236102 
L 779.428571 511.778847 
L 788.857143 512.615499 
L 788.857143 512.615499 
" clip-path="url(#pa0627cb37b)" style="fill: none; stroke: #000000; stroke-width: 1.5; stroke-linecap: square"/>
   </g>
   <g id="line2d_8">
    <path d="M 0 459 
L 3.142857 459 
L 6.285714 455.375843 
L 9.428571 454.501899 
L 12.571429 453.256055 
L 15.714286 453.146954 
L 18.857143 452.112661 
L 22 451.830386 
L 25.142857 451.829194 
L 28.285714 451.232643 
L 31.428571 450.462426 
L 34.571429 450.186649 
L 40.857143 449.152718 
L 44 449.299536 
L 47.142857 450.181736 
L 50.285714 450.886394 
L 53.428571 451.923518 
L 56.571429 453.299981 
L 59.714286 456.312672 
L 62.857143 459.003334 
L 72.285714 461.561899 
L 75.428571 462.10906 
L 81.714286 462.630198 
L 97.428571 463.969694 
L 100.571429 463.99204 
L 106.857143 463.783555 
L 110 463.686897 
L 119.428571 463.06565 
L 125.714286 463.006058 
L 132 463.073842 
L 138.285714 463.059091 
L 150.857143 463.471305 
L 169.714286 465.766826 
L 176 466.232108 
L 201.142857 467.306778 
L 207.428571 467.426004 
L 223.142857 468.234879 
L 251.428571 470.37951 
L 260.857143 471.539124 
L 298.571429 476.932042 
L 308 478.365223 
L 314.285714 479.241121 
L 330 481.520767 
L 336.285714 482.234772 
L 361.428571 484.73933 
L 370.857143 486.10024 
L 392.857143 489.151666 
L 414.857143 491.716849 
L 427.428571 493.094487 
L 440 494.444217 
L 446.285714 494.879035 
L 474.571429 496.388847 
L 493.428571 496.892561 
L 499.714286 496.770206 
L 515.428571 496.270429 
L 537.428571 496.326388 
L 581.428571 496.971476 
L 590.857143 497.444432 
L 616 498.984707 
L 625.428571 499.543436 
L 638 500.398161 
L 650.571429 501.020529 
L 666.285714 501.453633 
L 678.857143 501.7046 
L 694.571429 502.461036 
L 704 503.027507 
L 735.428571 504.516015 
L 754.285714 505.28821 
L 785.714286 507.015492 
L 788.857143 507.225403 
L 788.857143 507.225403 
" clip-path="url(#pa0627cb37b)" style="fill: none; stroke: #000000; stroke-width: 1.5; stroke-linecap: square"/>
   </g>
   <g id="line2d_9">
    <path d="M 0 459 
L 3.142857 459 
L 6.285714 455.385603 
L 9.428571 454.513081 
L 12.571429 453.274429 
L 15.714286 453.162779 
L 18.857143 452.139588 
L 22 451.857904 
L 25.142857 451.853228 
L 28.285714 451.266559 
L 31.428571 450.511135 
L 34.571429 450.238056 
L 40.857143 449.225649 
L 44 449.362097 
L 47.142857 450.207851 
L 50.285714 450.883397 
L 53.428571 451.877782 
L 56.571429 453.196533 
L 59.714286 456.075399 
L 62.857143 458.653696 
L 66 459.709875 
L 69.142857 460.600192 
L 72.285714 461.32896 
L 75.428571 461.854492 
L 81.714286 462.365095 
L 97.428571 463.664063 
L 100.571429 463.695062 
L 106.857143 463.521862 
L 110 463.441495 
L 119.428571 462.894426 
L 125.714286 462.849571 
L 132 462.91933 
L 138.285714 462.913848 
L 150.857143 463.295369 
L 169.714286 465.353338 
L 176 465.777201 
L 201.142857 466.779595 
L 207.428571 466.900284 
L 223.142857 467.632297 
L 251.428571 469.521617 
L 260.857143 470.517088 
L 298.571429 475.116534 
L 308 476.33497 
L 317.428571 477.489273 
L 330 479.025993 
L 336.285714 479.647241 
L 361.428571 481.847504 
L 374 483.369118 
L 389.714286 485.257212 
L 433.714286 489.596528 
L 443.142857 490.364002 
L 468.285714 491.749076 
L 487.142857 492.469496 
L 493.428571 492.640675 
L 502.857143 492.585497 
L 515.428571 492.462399 
L 543.714286 492.856673 
L 562.571429 493.165566 
L 581.428571 493.605213 
L 594 494.180825 
L 609.714286 495.037894 
L 625.428571 495.764042 
L 641.142857 496.607555 
L 656.857143 497.210272 
L 691.428571 498.182076 
L 700.857143 498.709448 
L 726 499.790086 
L 751.142857 500.690921 
L 788.857143 502.428804 
L 788.857143 502.428804 
" clip-path="url(#pa0627cb37b)" style="fill: none; stroke: #000000; stroke-width: 1.5; stroke-linecap: square"/>
   </g>
  </g>
 </g>
 <defs>
  <clipPath id="pa0627cb37b">
   <rect x="0" y="0" width="792" height="612"/>
  </clipPath>
 </defs>
</svg>
