<?xml version="1.0" encoding="utf-8" standalone="no"?>
<!DOCTYPE svg PUBLIC "-//W3C//DTD SVG 1.1//EN"
  "http://www.w3.org/Graphics/SVG/1.1/DTD/svg11.dtd">
<svg xmlns:xlink="http://www.w3.org/1999/xlink" width="792pt" height="612pt" viewBox="0 0 792 612" xmlns="http://www.w3.org/2000/svg" version="1.1">
 <metadata>
  <rdf:RDF xmlns:dc="http://purl.org/dc/elements/1.1/" xmlns:cc="http://creativecommons.org/ns#" xmlns:rdf="http://www.w3.org/1999/02/22-rdf-syntax-ns#">
   <cc:Work>
    <dc:type rdf:resource="http://purl.org/dc/dcmitype/StillImage"/>
    <dc:date>2023-01-02T15:39:30.087838</dc:date>
    <dc:format>image/svg+xml</dc:format>
    <dc:creator>
     <cc:Agent>
      <dc:title>Matplotlib v3.6.2, https://matplotlib.org/</dc:title>
     </cc:Agent>
    </dc:creator>
   </cc:Work>
  </rdf:RDF>
 </metadata>
 <defs>
  <style type="text/css">*{stroke-linejoin: round; stroke-linecap: butt}</style>
 </defs>
 <g id="figure_1">
  <g id="patch_1">
   <path d="M 0 612 
L 792 612 
L 792 0 
L 0 0 
z
" style="fill: #ffffff"/>
  </g>
  <g id="axes_1">
   <g id="line2d_1">
    <path d="M 0 459 
L 3.155378 460.005295 
L 6.310757 460.532342 
L 9.466135 458.590074 
L 12.621514 455.867043 
L 15.776892 459.156162 
L 18.932271 455.691369 
L 22.087649 455.95488 
L 25.243028 460.288339 
L 28.398406 463.704389 
L 31.553785 463.382304 
L 34.709163 465.490495 
L 37.864542 467.920771 
L 41.01992 477.915157 
L 44.175299 477.837076 
L 47.330677 478.764289 
L 50.486056 481.604491 
L 53.641434 479.828145 
L 56.796813 476.695139 
L 59.952191 472.459237 
L 63.10757 470.975695 
L 66.262948 472.800842 
L 69.418327 475.328719 
L 72.573705 473.386451 
L 75.729084 472.908204 
L 78.884462 472.937484 
L 85.195219 463.489666 
L 88.350598 466.115144 
L 91.505976 464.768244 
L 94.661355 460.991069 
L 97.816733 459.400166 
L 100.972112 462.718614 
L 104.12749 464.270477 
L 107.282869 467.462044 
L 110.438247 469.628796 
L 113.593625 466.183465 
L 116.749004 466.056583 
L 119.904382 467.100919 
L 123.059761 469.794718 
L 126.215139 468.194055 
L 129.370518 469.9216 
L 132.525896 474.655269 
L 135.681275 481.702092 
L 138.836653 483.410117 
L 141.992032 481.55569 
L 145.14741 481.56545 
L 148.302789 483.410117 
L 151.458167 486.064876 
L 154.613546 481.018882 
L 157.768924 477.173386 
L 160.924303 475.875287 
L 164.079681 475.065195 
L 167.23506 476.704899 
L 170.390438 475.250638 
L 173.545817 477.661393 
L 176.701195 476.373054 
L 179.856574 476.197372 
L 183.011952 476.607298 
L 186.167331 473.035085 
L 189.322709 474.421026 
L 192.478088 478.12988 
L 195.633466 478.286042 
L 198.788845 476.74394 
L 205.099602 482.609786 
L 208.25498 483.292996 
L 211.410359 483.292996 
L 214.565737 484.483733 
L 217.721116 484.29829 
L 220.876494 482.824509 
L 224.031873 484.659416 
L 227.187251 487.294654 
L 230.342629 483.263715 
L 233.498008 490.4179 
L 236.653386 493.258102 
L 239.808765 496.56679 
L 242.964143 494.927086 
L 246.119522 499.006826 
L 249.2749 499.553394 
L 252.430279 499.475313 
L 255.585657 503.047525 
L 258.741036 501.222378 
L 261.896414 501.173577 
L 265.051793 498.5969 
L 268.207171 502.091031 
L 271.36255 504.355384 
L 274.517928 507.585991 
L 277.673307 506.902781 
L 280.828685 509.313537 
L 283.984064 510.191949 
L 287.139442 507.244386 
L 290.294821 509.342817 
L 293.450199 505.965808 
L 296.605578 510.20171 
L 299.760956 511.333886 
L 302.916335 512.036616 
L 306.071713 508.708408 
L 309.227092 512.846708 
L 312.38247 511.216764 
L 315.537849 508.923131 
L 318.693227 505.302118 
L 321.848606 504.208982 
L 325.003984 505.429 
L 328.159363 503.789296 
L 331.314741 505.936527 
L 334.47012 506.756379 
L 337.625498 506.79542 
L 340.780876 507.234626 
L 347.091633 514.98418 
L 350.247012 518.585672 
L 353.40239 520.039934 
L 356.557769 518.41975 
L 359.713147 519.981373 
L 362.868526 519.922812 
L 366.023904 520.947627 
L 369.179283 520.742664 
L 372.334661 519.961853 
L 375.49004 516.565323 
L 378.645418 517.70726 
L 381.800797 518.380709 
L 384.956175 518.644233 
L 388.111554 519.864251 
L 391.266932 518.165986 
L 394.422311 517.150931 
L 397.577689 518.224547 
L 400.733068 516.906928 
L 403.888446 518.43927 
L 407.043825 520.606022 
L 410.199203 520.645063 
L 413.354582 521.289232 
L 416.50996 522.362848 
L 419.665339 519.08344 
L 422.820717 518.595433 
L 429.131474 511.128923 
L 432.286853 510.318831 
L 435.442231 511.743812 
L 438.59761 511.773093 
L 441.752988 514.613294 
L 444.908367 510.982521 
L 448.063745 509.616101 
L 451.219124 508.444884 
L 454.374502 508.327762 
L 457.52988 509.801544 
L 460.685259 505.594922 
L 463.840637 506.473335 
L 466.996016 507.927596 
L 470.151394 505.507081 
L 473.306773 506.463575 
L 476.462151 502.266713 
L 479.61753 497.132878 
L 482.772908 493.345943 
L 485.928287 490.720464 
L 489.083665 490.037254 
L 492.239044 492.135685 
L 495.394422 492.272327 
L 498.549801 494.741643 
L 501.705179 498.840903 
L 504.860558 499.894999 
L 508.015936 498.382177 
L 511.171315 497.357362 
L 514.326693 500.66605 
L 517.482072 501.193098 
L 520.63745 502.266713 
L 523.792829 502.608318 
L 526.948207 502.169112 
L 530.103586 503.467211 
L 533.258964 504.550587 
L 536.414343 502.01295 
L 539.569721 502.364315 
L 542.7251 499.582674 
L 545.880478 498.401697 
L 549.035857 502.920643 
L 552.191235 502.198392 
L 555.346614 503.886897 
L 558.501992 506.346453 
L 561.657371 505.44852 
L 564.812749 507.010143 
L 567.968127 510.016267 
L 571.123506 512.29038 
L 574.278884 514.886578 
L 577.434263 516.233478 
L 580.589641 518.44903 
L 583.74502 514.98418 
L 586.900398 516.887408 
L 590.055777 519.932572 
L 593.211155 517.199732 
L 596.366534 512.99311 
L 599.521912 513.61776 
L 602.677291 514.35953 
L 605.832669 517.170452 
L 612.143426 521.13307 
L 615.298805 520.830505 
L 618.454183 517.677979 
L 621.609562 519.81545 
L 624.76494 517.004529 
L 627.920319 515.882113 
L 631.075697 515.384345 
L 634.231076 515.774751 
L 637.386454 512.407502 
L 640.541833 512.719826 
L 643.697211 510.143149 
L 646.85259 509.879625 
L 650.007968 510.065068 
L 653.163347 508.591286 
L 656.318725 508.015438 
L 659.474104 508.542485 
L 662.629482 512.622225 
L 665.784861 515.130582 
L 668.940239 514.808497 
L 672.095618 513.978885 
L 675.250996 514.496172 
L 678.406375 527.33076 
L 681.561753 523.709747 
L 684.717131 519.268882 
L 687.87251 519.981373 
L 691.027888 518.780875 
L 694.183267 520.303458 
L 697.338645 522.743493 
L 700.494024 522.401888 
L 703.649402 516.760526 
L 706.804781 518.097665 
L 709.960159 515.491707 
L 713.115538 515.501467 
L 716.270916 518.605193 
L 719.426295 519.581207 
L 722.581673 516.477482 
L 725.737052 515.774751 
L 728.89243 514.954899 
L 735.203187 521.923641 
L 738.358566 522.060283 
L 741.513944 521.669878 
L 744.669323 520.859786 
L 747.824701 519.610487 
L 750.98008 519.571447 
L 754.135458 520.108255 
L 757.290837 523.680467 
L 760.446215 524.080633 
L 763.601594 528.277494 
L 766.756972 527.067237 
L 769.912351 527.164838 
L 773.067729 527.408842 
L 776.223108 526.100982 
L 779.378486 527.701646 
L 782.533865 529.848877 
L 785.689243 526.911074 
L 788.844622 527.203879 
L 788.844622 527.203879 
" clip-path="url(#pa0a2477a4d)" style="fill: none; stroke: #000000; stroke-width: 1.5; stroke-linecap: square"/>
   </g>
   <g id="line2d_2">
    <path d="M 0 459 
L 3.155378 459 
L 6.310757 459.670196 
L 9.466135 460.162851 
L 12.621514 459.469788 
L 15.776892 458.064917 
L 18.932271 458.777841 
L 22.087649 457.222433 
L 25.243028 456.586167 
L 28.398406 459.244386 
L 31.553785 461.481641 
L 34.709163 462.437561 
L 37.864542 463.977022 
L 41.01992 465.968436 
L 44.175299 471.978579 
L 47.330677 474.946925 
L 50.486056 476.896351 
L 53.641434 479.292217 
L 56.796813 479.591796 
L 59.952191 478.169571 
L 63.10757 475.328068 
L 66.262948 473.157872 
L 69.418327 472.969329 
L 72.573705 474.144106 
L 78.884462 473.314417 
L 82.039841 473.112439 
L 85.195219 470.69047 
L 88.350598 467.07248 
L 91.505976 466.584282 
L 94.661355 465.660513 
L 97.816733 463.297678 
L 100.972112 461.321498 
L 104.12749 462.000077 
L 107.282869 463.118283 
L 113.593625 467.470694 
L 116.749004 466.827214 
L 119.904382 466.444425 
L 123.059761 466.784652 
L 126.215139 468.310066 
L 129.370518 468.262797 
L 132.525896 469.103279 
L 135.681275 471.893378 
L 138.836653 476.821409 
L 141.992032 480.149541 
L 145.14741 480.883006 
L 148.302789 481.25259 
L 151.458167 482.358051 
L 154.613546 484.246504 
L 157.768924 482.654453 
L 160.924303 479.918857 
L 164.079681 477.885647 
L 167.23506 476.459058 
L 170.390438 476.572467 
L 173.545817 475.899171 
L 176.701195 476.76901 
L 183.011952 476.365246 
L 186.167331 476.485162 
L 189.322709 474.754555 
L 192.478088 474.586527 
L 195.633466 476.360998 
L 198.788845 477.329472 
L 201.944223 477.034907 
L 205.099602 478.340316 
L 208.25498 480.487624 
L 211.410359 481.903419 
L 214.565737 482.618321 
L 217.721116 483.570758 
L 220.876494 483.946619 
L 224.031873 483.394463 
L 227.187251 484.04246 
L 230.342629 485.68358 
L 233.498008 484.47493 
L 242.964143 493.496479 
L 246.119522 494.232623 
L 249.2749 496.651454 
L 252.430279 498.131628 
L 255.585657 498.827354 
L 258.741036 500.976231 
L 265.051793 501.162554 
L 268.207171 499.883708 
L 271.36255 501.001416 
L 274.517928 502.688887 
L 277.673307 505.15319 
L 280.828685 506.042549 
L 283.984064 507.690329 
L 287.139442 508.958727 
L 290.294821 508.11346 
L 293.450199 508.749209 
L 296.605578 507.365106 
L 299.760956 508.794871 
L 302.916335 510.071727 
L 306.071713 511.064238 
L 309.227092 509.885137 
L 312.38247 511.371128 
L 315.537849 511.301735 
L 318.693227 510.11161 
L 321.848606 507.705563 
L 325.003984 505.945522 
L 328.159363 505.675683 
L 331.314741 504.716318 
L 337.625498 506.026742 
L 343.936255 506.815208 
L 347.091633 509.007987 
L 350.247012 512.017211 
L 353.40239 515.327239 
L 356.557769 517.71545 
L 359.713147 518.092077 
L 362.868526 519.062656 
L 366.023904 519.518474 
L 369.179283 520.259939 
L 372.334661 520.520056 
L 375.49004 520.250714 
L 378.645418 518.404057 
L 381.800797 518.051084 
L 388.111554 518.427405 
L 391.266932 519.145713 
L 394.422311 518.650396 
L 397.577689 517.893621 
L 400.733068 518.055677 
L 403.888446 517.481972 
L 407.043825 517.962057 
L 410.199203 519.288403 
L 416.50996 520.632738 
L 419.665339 521.506022 
L 422.820717 520.29852 
L 425.976096 519.447703 
L 429.131474 517.109288 
L 432.286853 514.104772 
L 435.442231 512.191631 
L 438.59761 511.950268 
L 441.752988 511.843021 
L 444.908367 513.212962 
L 448.063745 512.081858 
L 454.374502 509.625708 
L 457.52988 508.971243 
L 460.685259 509.385379 
L 463.840637 507.478094 
L 466.996016 506.965323 
L 470.151394 507.43335 
L 473.306773 506.459479 
L 476.462151 506.455346 
L 479.61753 504.348916 
L 485.928287 497.000179 
L 489.083665 493.831156 
L 492.239044 491.901978 
L 498.549801 492.104146 
L 501.705179 493.399911 
L 504.860558 496.11369 
L 508.015936 498.00976 
L 511.171315 498.205843 
L 514.326693 497.794616 
L 517.482072 499.251174 
L 523.792829 501.272901 
L 526.948207 501.956035 
L 530.103586 502.069099 
L 533.258964 502.775159 
L 536.414343 503.674968 
L 539.569721 502.853088 
L 542.7251 502.612031 
L 545.880478 501.094195 
L 549.035857 499.740367 
L 552.191235 501.331118 
L 555.346614 501.764812 
L 558.501992 502.826678 
L 561.657371 504.590087 
L 564.812749 505.02604 
L 567.968127 506.027201 
L 571.123506 508.042192 
L 574.278884 510.193519 
L 577.434263 512.563511 
L 580.589641 514.426014 
L 583.74502 516.466076 
L 586.900398 515.742064 
L 590.055777 516.337165 
L 593.211155 518.160207 
L 596.366534 517.694055 
L 599.521912 515.34496 
L 602.677291 514.478872 
L 605.832669 514.415527 
L 608.988048 515.790482 
L 612.143426 517.464596 
L 615.298805 519.307157 
L 618.454183 520.070592 
L 621.609562 518.875223 
L 624.76494 519.358714 
L 631.075697 517.038173 
L 634.231076 516.207757 
L 637.386454 515.98469 
L 640.541833 514.178987 
L 643.697211 513.433503 
L 646.85259 511.773552 
L 650.007968 510.807106 
L 653.163347 510.42248 
L 656.318725 509.492587 
L 659.474104 508.739564 
L 662.629482 508.626844 
L 665.784861 510.624955 
L 668.940239 512.882496 
L 672.095618 513.854644 
L 675.250996 513.924802 
L 678.406375 514.219176 
L 681.561753 520.811712 
L 684.717131 522.291503 
L 687.87251 520.801225 
L 691.027888 520.405729 
L 694.183267 519.600459 
L 697.338645 519.962733 
L 700.494024 521.370299 
L 703.649402 521.901595 
L 706.804781 519.310334 
L 709.960159 518.692996 
L 713.115538 517.084945 
L 716.270916 516.284422 
L 722.581673 518.511419 
L 725.737052 517.482164 
L 732.047809 515.781641 
L 735.203187 517.076831 
L 738.358566 519.512848 
L 741.513944 520.799426 
L 744.669323 521.240661 
L 747.824701 521.05273 
L 750.98008 520.337752 
L 754.135458 519.962044 
L 757.290837 520.045254 
L 760.446215 521.873271 
L 763.601594 522.981181 
L 766.756972 525.641528 
L 769.912351 526.364966 
L 776.223108 527.108344 
L 779.378486 526.617466 
L 782.533865 527.174445 
L 785.689243 528.523756 
L 788.844622 527.722965 
L 788.844622 527.722965 
" clip-path="url(#pa0a2477a4d)" style="fill: none; stroke: #000000; stroke-width: 1.5; stroke-linecap: square"/>
   </g>
   <g id="line2d_3">
    <path d="M 0 459 
L 3.155378 459 
L 6.310757 459.588888 
L 9.466135 460.01635 
L 12.621514 459.566079 
L 15.776892 458.979337 
L 18.932271 459.047691 
L 22.087649 458.034052 
L 25.243028 457.38447 
L 28.398406 459.021301 
L 31.553785 460.437192 
L 34.709163 461.319287 
L 37.864542 462.560398 
L 41.01992 464.147955 
L 44.175299 468.212026 
L 47.330677 471.046798 
L 50.486056 473.316063 
L 53.641434 475.769651 
L 56.796813 476.981125 
L 59.952191 476.915926 
L 66.262948 474.279059 
L 69.418327 473.861772 
L 72.573705 474.311453 
L 82.039841 473.512641 
L 85.195219 471.991958 
L 88.350598 469.499396 
L 91.505976 468.506098 
L 94.661355 467.396205 
L 100.972112 463.691749 
L 104.12749 463.385032 
L 107.282869 463.626503 
L 110.438247 464.739302 
L 113.593625 466.16815 
L 119.904382 466.127006 
L 123.059761 466.402808 
L 126.215139 467.39215 
L 129.370518 467.621608 
L 132.525896 468.291796 
L 135.681275 470.162912 
L 138.836653 473.563579 
L 141.992032 476.467428 
L 145.14741 477.977028 
L 148.302789 479.051684 
L 151.458167 480.355817 
L 154.613546 482.054778 
L 157.768924 481.770608 
L 164.079681 479.106855 
L 167.23506 477.933282 
L 170.390438 477.585727 
L 173.545817 476.911156 
L 176.701195 477.139931 
L 183.011952 476.718888 
L 186.167331 476.688446 
L 189.322709 475.608447 
L 192.478088 475.250334 
L 195.633466 476.089799 
L 198.788845 476.729297 
L 201.944223 476.725929 
L 205.099602 477.569986 
L 208.25498 479.047936 
L 211.410359 480.298314 
L 217.721116 482.161257 
L 220.876494 482.795901 
L 224.031873 482.812979 
L 227.187251 483.361826 
L 230.342629 484.526269 
L 233.498008 484.164592 
L 236.653386 486.012006 
L 239.808765 488.157567 
L 242.964143 490.646008 
L 246.119522 491.9192 
L 249.2749 494.018917 
L 252.430279 495.666127 
L 255.585657 496.804603 
L 258.741036 498.656587 
L 261.896414 499.428684 
L 265.051793 499.960289 
L 268.207171 499.577172 
L 271.36255 500.333901 
L 274.517928 501.536496 
L 277.673307 503.334686 
L 280.828685 504.402279 
L 283.984064 505.870674 
L 287.139442 507.159059 
L 290.294821 507.200115 
L 293.450199 507.842373 
L 296.605578 507.305418 
L 306.071713 509.980054 
L 309.227092 509.6141 
L 312.38247 510.574261 
L 315.537849 510.773981 
L 318.693227 510.24374 
L 325.003984 507.455197 
L 328.159363 506.85926 
L 331.314741 505.956512 
L 334.47012 505.94678 
L 343.936255 506.613544 
L 347.091633 507.956348 
L 350.247012 510.020245 
L 353.40239 512.53733 
L 356.557769 514.743985 
L 359.713147 515.831746 
L 362.868526 517.055338 
L 369.179283 518.810119 
L 372.334661 519.393883 
L 375.49004 519.578331 
L 378.645418 518.708633 
L 381.800797 518.431323 
L 388.111554 518.506962 
L 391.266932 518.919514 
L 394.422311 518.711366 
L 397.577689 518.261186 
L 400.733068 518.254177 
L 403.888446 517.857649 
L 407.043825 518.026163 
L 410.199203 518.784297 
L 416.50996 519.905461 
L 419.665339 520.626839 
L 425.976096 519.709288 
L 429.131474 518.263252 
L 432.286853 516.1661 
L 435.442231 514.444215 
L 438.59761 513.645359 
L 441.752988 513.087691 
L 444.908367 513.53045 
L 448.063745 512.777094 
L 454.374502 510.836845 
L 457.52988 510.090337 
L 460.685259 509.993342 
L 463.840637 508.687788 
L 466.996016 508.022172 
L 470.151394 507.977891 
L 473.306773 507.238614 
L 476.462151 506.997675 
L 479.61753 505.597637 
L 482.772908 503.102291 
L 489.083665 497.417199 
L 492.239044 495.230698 
L 495.394422 494.298372 
L 498.549801 493.683466 
L 501.705179 493.976314 
L 508.015936 496.69986 
L 511.171315 497.179483 
L 514.326693 497.222121 
L 517.482072 498.224154 
L 526.948207 500.769352 
L 530.103586 501.17922 
L 533.258964 501.856633 
L 536.414343 502.658543 
L 539.569721 502.482424 
L 542.7251 502.461989 
L 549.035857 500.68952 
L 552.191235 501.352395 
L 555.346614 501.604039 
L 558.501992 502.277257 
L 561.657371 503.478245 
L 564.812749 504.064619 
L 567.968127 504.93463 
L 571.123506 506.433141 
L 574.278884 508.1602 
L 577.434263 510.144413 
L 583.74502 513.866497 
L 586.900398 514.205843 
L 590.055777 515.00834 
L 593.211155 516.470793 
L 596.366534 516.704529 
L 599.521912 515.634239 
L 602.677291 515.055913 
L 605.832669 514.865916 
L 608.988048 515.556156 
L 612.143426 516.615383 
L 615.298805 517.956598 
L 618.454183 518.81422 
L 621.609562 518.490223 
L 624.76494 518.887016 
L 627.920319 518.338081 
L 634.231076 516.960499 
L 637.386454 516.61411 
L 640.541833 515.376877 
L 643.697211 514.59036 
L 646.85259 513.279697 
L 650.007968 512.280263 
L 653.163347 511.627367 
L 659.474104 509.925464 
L 662.629482 509.508247 
L 665.784861 510.410534 
L 668.940239 511.786457 
L 672.095618 512.668296 
L 678.406375 513.467479 
L 681.561753 517.54109 
L 684.717131 519.357411 
L 687.87251 519.335495 
L 691.027888 519.533367 
L 694.183267 519.319929 
L 697.338645 519.619668 
L 700.494024 520.549391 
L 703.649402 521.106145 
L 706.804781 519.842726 
L 709.960159 519.34319 
L 713.115538 518.223098 
L 716.270916 517.429258 
L 719.426295 517.777672 
L 722.581673 518.311397 
L 728.89243 517.192112 
L 732.047809 516.522633 
L 735.203187 517.05786 
L 738.358566 518.486064 
L 741.513944 519.535316 
L 744.669323 520.163833 
L 747.824701 520.368312 
L 754.135458 519.972169 
L 757.290837 520.015873 
L 760.446215 521.09562 
L 763.601594 521.979775 
L 766.756972 523.839009 
L 769.912351 524.794255 
L 773.067729 525.497293 
L 776.223108 526.069728 
L 779.378486 526.090743 
L 782.533865 526.577207 
L 785.689243 527.54864 
L 788.844622 527.36763 
L 788.844622 527.36763 
" clip-path="url(#pa0a2477a4d)" style="fill: none; stroke: #000000; stroke-width: 1.5; stroke-linecap: square"/>
   </g>
   <g id="line2d_4">
    <path d="M 0 459 
L 3.155378 459 
L 6.310757 459.54609 
L 9.466135 459.933159 
L 15.776892 459.143316 
L 18.932271 459.146478 
L 25.243028 458.031606 
L 31.553785 459.910642 
L 34.709163 460.55944 
L 37.864542 461.456067 
L 41.01992 462.605437 
L 44.175299 465.277443 
L 47.330677 467.436174 
L 50.486056 469.358674 
L 53.641434 471.415105 
L 56.796813 472.815541 
L 59.952191 473.456623 
L 63.10757 473.292817 
L 66.262948 472.914205 
L 69.418327 472.895761 
L 72.573705 473.290182 
L 78.884462 473.24165 
L 82.039841 473.192716 
L 85.195219 472.407194 
L 88.350598 470.977212 
L 94.661355 469.329748 
L 100.972112 466.623716 
L 104.12749 466.004721 
L 107.282869 465.731458 
L 110.438247 466.011124 
L 113.593625 466.593425 
L 119.904382 466.461786 
L 123.059761 466.569217 
L 126.215139 467.089774 
L 129.370518 467.270402 
L 132.525896 467.696096 
L 135.681275 468.810359 
L 141.992032 472.876183 
L 145.14741 474.259395 
L 151.458167 476.697637 
L 154.613546 478.190782 
L 157.768924 478.641485 
L 160.924303 478.408204 
L 167.23506 477.541785 
L 170.390438 477.411069 
L 173.545817 477.067288 
L 176.701195 477.16448 
L 186.167331 476.865825 
L 189.322709 476.262296 
L 192.478088 475.974526 
L 198.788845 476.648462 
L 201.944223 476.674474 
L 205.099602 477.15573 
L 211.410359 478.881387 
L 220.876494 481.016103 
L 224.031873 481.313638 
L 227.187251 481.855238 
L 230.342629 482.732586 
L 233.498008 482.825415 
L 236.653386 484.043241 
L 239.808765 485.516569 
L 242.964143 487.282908 
L 246.119522 488.507467 
L 249.2749 490.188835 
L 252.430279 491.688842 
L 255.585657 492.936065 
L 258.741036 494.558579 
L 261.896414 495.633818 
L 265.051793 496.530998 
L 268.207171 496.874373 
L 271.36255 497.720201 
L 274.517928 498.794042 
L 277.673307 500.211544 
L 280.828685 501.295192 
L 287.139442 503.821799 
L 290.294821 504.387689 
L 293.450199 505.197857 
L 296.605578 505.337408 
L 306.071713 507.805239 
L 309.227092 507.965221 
L 312.38247 508.760322 
L 315.537849 509.168574 
L 318.693227 509.144772 
L 325.003984 507.869725 
L 328.159363 507.494356 
L 331.314741 506.915159 
L 334.47012 506.773602 
L 343.936255 506.868901 
L 347.091633 507.564589 
L 350.247012 508.755042 
L 356.557769 511.888561 
L 369.179283 515.970893 
L 372.334661 516.741737 
L 375.49004 517.263806 
L 378.645418 517.158277 
L 384.956175 517.437545 
L 388.111554 517.634807 
L 391.266932 517.997394 
L 394.422311 518.029722 
L 397.577689 517.896882 
L 400.733068 517.954021 
L 403.888446 517.790902 
L 407.043825 517.898054 
L 419.665339 519.648879 
L 425.976096 519.421829 
L 429.131474 518.689006 
L 435.442231 516.352406 
L 438.59761 515.622274 
L 441.752988 515.012961 
L 444.908367 514.953976 
L 448.063745 514.321982 
L 457.52988 512.037562 
L 460.685259 511.676426 
L 463.840637 510.699861 
L 466.996016 510.019014 
L 470.151394 509.678138 
L 473.306773 509.005002 
L 476.462151 508.59223 
L 479.61753 507.576896 
L 482.772908 505.902378 
L 492.239044 499.890052 
L 495.394422 498.640063 
L 498.549801 497.611411 
L 501.705179 497.140169 
L 504.860558 497.39949 
L 508.015936 497.784964 
L 511.171315 497.866116 
L 514.326693 497.770642 
L 520.63745 498.678513 
L 526.948207 499.765025 
L 530.103586 500.139656 
L 536.414343 501.279025 
L 542.7251 501.538914 
L 545.880478 501.218291 
L 549.035857 500.762311 
L 552.191235 501.101532 
L 555.346614 501.272149 
L 558.501992 501.685394 
L 561.657371 502.424829 
L 564.812749 502.905818 
L 567.968127 503.559166 
L 571.123506 504.587817 
L 574.278884 505.817555 
L 583.74502 510.265449 
L 586.900398 511.029717 
L 590.055777 511.978023 
L 593.211155 513.262273 
L 596.366534 513.904375 
L 599.521912 513.772318 
L 602.677291 513.759505 
L 605.832669 513.864654 
L 608.988048 514.401397 
L 612.143426 515.165479 
L 615.298805 516.129778 
L 618.454183 516.890262 
L 621.609562 517.025876 
L 624.76494 517.480657 
L 627.920319 517.413885 
L 637.386454 516.728538 
L 640.541833 516.047531 
L 643.697211 515.524543 
L 650.007968 513.919144 
L 653.163347 513.310404 
L 659.474104 511.842517 
L 662.629482 511.31884 
L 665.784861 511.530689 
L 668.940239 512.108512 
L 672.095618 512.541079 
L 678.406375 513.045147 
L 681.561753 515.324964 
L 684.717131 516.662295 
L 691.027888 517.543285 
L 694.183267 517.739472 
L 697.338645 518.149347 
L 700.494024 518.886376 
L 703.649402 519.451187 
L 706.804781 519.024592 
L 709.960159 518.877693 
L 716.270916 517.882095 
L 719.426295 517.995754 
L 722.581673 518.249192 
L 728.89243 517.615945 
L 732.047809 517.191984 
L 735.203187 517.381425 
L 741.513944 518.742799 
L 744.669323 519.214092 
L 747.824701 519.482614 
L 757.290837 519.624893 
L 763.601594 520.894325 
L 766.756972 522.078781 
L 773.067729 523.569367 
L 776.223108 524.188621 
L 779.378486 524.500125 
L 782.533865 525.00973 
L 785.689243 525.783486 
L 788.844622 525.967658 
L 788.844622 525.967658 
" clip-path="url(#pa0a2477a4d)" style="fill: none; stroke: #000000; stroke-width: 1.5; stroke-linecap: square"/>
   </g>
   <g id="line2d_5">
    <path d="M 0 459 
L 3.155378 459 
L 6.310757 459.524409 
L 9.466135 459.88988 
L 15.776892 459.211064 
L 18.932271 459.199824 
L 22.087649 458.886193 
L 25.243028 458.399611 
L 37.864542 460.875222 
L 41.01992 461.740509 
L 44.175299 463.650903 
L 47.330677 465.269597 
L 53.641434 468.361109 
L 56.796813 469.566156 
L 59.952191 470.299134 
L 63.10757 470.516912 
L 66.262948 470.562356 
L 69.418327 470.78058 
L 72.573705 471.217634 
L 78.884462 471.562543 
L 82.039841 471.690061 
L 85.195219 471.378817 
L 88.350598 470.660564 
L 94.661355 469.758541 
L 100.972112 468.129768 
L 104.12749 467.65336 
L 107.282869 467.35702 
L 110.438247 467.366178 
L 113.593625 467.562649 
L 123.059761 467.304657 
L 126.215139 467.517989 
L 129.370518 467.575755 
L 132.525896 467.775705 
L 135.681275 468.36078 
L 141.992032 470.672022 
L 154.613546 474.429677 
L 157.768924 474.983835 
L 160.924303 475.167775 
L 186.167331 475.727227 
L 189.322709 475.502549 
L 192.478088 475.41233 
L 198.788845 475.859568 
L 201.944223 475.933255 
L 205.099602 476.247029 
L 220.876494 478.891917 
L 224.031873 479.22642 
L 227.187251 479.686018 
L 230.342629 480.326294 
L 233.498008 480.576454 
L 236.653386 481.402054 
L 239.808765 482.395096 
L 242.964143 483.580612 
L 246.119522 484.527861 
L 252.430279 486.889964 
L 255.585657 487.940313 
L 258.741036 489.201708 
L 265.051793 491.126856 
L 268.207171 491.755829 
L 271.36255 492.623142 
L 274.517928 493.606318 
L 277.673307 494.777706 
L 283.984064 496.928917 
L 287.139442 498.04333 
L 293.450199 499.708541 
L 296.605578 500.241277 
L 306.071713 502.804644 
L 309.227092 503.309096 
L 312.38247 504.115451 
L 315.537849 504.718367 
L 318.693227 505.081256 
L 328.159363 505.092559 
L 331.314741 504.995979 
L 340.780876 505.372552 
L 343.936255 505.534851 
L 347.091633 506.012828 
L 350.247012 506.768291 
L 356.557769 508.790733 
L 372.334661 512.825564 
L 375.49004 513.432399 
L 381.800797 514.050699 
L 394.422311 515.482716 
L 407.043825 516.179952 
L 419.665339 517.720277 
L 425.976096 517.918683 
L 429.131474 517.667923 
L 435.442231 516.57623 
L 441.752988 515.822196 
L 444.908367 515.727736 
L 451.219124 514.867593 
L 457.52988 513.841531 
L 460.685259 513.508427 
L 463.840637 512.853061 
L 466.996016 512.325295 
L 470.151394 511.96334 
L 473.306773 511.428609 
L 476.462151 511.017217 
L 479.61753 510.289229 
L 482.772908 509.194126 
L 489.083665 506.443616 
L 492.239044 505.076354 
L 498.549801 503.019195 
L 501.705179 502.32716 
L 504.860558 502.033748 
L 511.171315 501.560923 
L 514.326693 501.207003 
L 520.63745 501.159013 
L 533.258964 501.597223 
L 536.414343 501.841889 
L 542.7251 501.895409 
L 549.035857 501.422986 
L 558.501992 501.777568 
L 567.968127 502.798261 
L 571.123506 503.393768 
L 574.278884 504.1294 
L 580.589641 505.95107 
L 583.74502 506.988592 
L 590.055777 508.417093 
L 593.211155 509.372853 
L 596.366534 510.022138 
L 605.832669 510.859784 
L 608.988048 511.383131 
L 612.143426 512.024982 
L 618.454183 513.448996 
L 621.609562 513.79846 
L 624.76494 514.298084 
L 631.075697 514.635417 
L 637.386454 514.790023 
L 643.697211 514.437383 
L 662.629482 512.271416 
L 665.784861 512.302819 
L 672.095618 512.730818 
L 678.406375 512.977465 
L 681.561753 514.176889 
L 684.717131 514.976727 
L 700.494024 516.903923 
L 703.649402 517.369235 
L 706.804781 517.324547 
L 709.960159 517.394637 
L 716.270916 517.103696 
L 722.581673 517.434934 
L 728.89243 517.232803 
L 732.047809 517.047907 
L 735.203187 517.162565 
L 744.669323 518.258709 
L 747.824701 518.481513 
L 757.290837 518.794874 
L 763.601594 519.617081 
L 766.756972 520.343291 
L 776.223108 521.933674 
L 782.533865 522.736636 
L 785.689243 523.330634 
L 788.844622 523.631678 
L 788.844622 523.631678 
" clip-path="url(#pa0a2477a4d)" style="fill: none; stroke: #000000; stroke-width: 1.5; stroke-linecap: square"/>
   </g>
   <g id="line2d_6">
    <path d="M 0 459 
L 3.155378 459 
L 6.310757 459.513533 
L 9.466135 459.86795 
L 15.776892 459.242239 
L 18.932271 459.226295 
L 22.087649 459.010867 
L 25.243028 458.587089 
L 34.709163 460.03273 
L 37.864542 460.603508 
L 41.01992 461.323953 
L 44.175299 462.870778 
L 53.641434 466.749093 
L 56.796813 467.773121 
L 59.952191 468.447465 
L 63.10757 468.740943 
L 69.418327 469.168735 
L 72.573705 469.582758 
L 78.884462 470.029385 
L 82.039841 470.211829 
L 85.195219 470.094366 
L 88.350598 469.695876 
L 94.661355 469.208794 
L 104.12749 467.903411 
L 107.282869 467.703573 
L 110.438247 467.690453 
L 113.593625 467.794507 
L 123.059761 467.595097 
L 132.525896 467.843899 
L 135.681275 468.185744 
L 145.14741 470.166125 
L 151.458167 471.33676 
L 154.613546 472.046091 
L 157.768924 472.475759 
L 164.079681 472.849938 
L 173.545817 473.229376 
L 179.856574 473.571557 
L 186.167331 473.826669 
L 192.478088 473.819198 
L 205.099602 474.563094 
L 233.498008 477.764387 
L 239.808765 478.980175 
L 265.051793 485.174695 
L 268.207171 485.758441 
L 274.517928 487.244268 
L 287.139442 490.701859 
L 315.537849 497.02795 
L 318.693227 497.538693 
L 328.159363 498.455985 
L 334.47012 498.995126 
L 343.936255 499.971569 
L 347.091633 500.450756 
L 350.247012 501.071994 
L 362.868526 503.987459 
L 375.49004 506.612759 
L 388.111554 508.411211 
L 394.422311 509.293691 
L 410.199203 511.076303 
L 422.820717 512.665816 
L 425.976096 512.927304 
L 429.131474 513.015262 
L 441.752988 512.765843 
L 444.908367 512.851932 
L 451.219124 512.649395 
L 470.151394 511.548614 
L 479.61753 510.728506 
L 482.772908 510.156123 
L 489.083665 508.656611 
L 492.239044 507.871625 
L 498.549801 506.580115 
L 501.705179 506.083814 
L 514.326693 504.912728 
L 520.63745 504.593379 
L 533.258964 504.305133 
L 539.569721 504.227979 
L 542.7251 504.152401 
L 549.035857 503.728438 
L 558.501992 503.650842 
L 567.968127 503.98459 
L 574.278884 504.593091 
L 580.589641 505.517236 
L 583.74502 506.072498 
L 590.055777 506.905694 
L 593.211155 507.465788 
L 596.366534 507.885588 
L 605.832669 508.608548 
L 612.143426 509.413959 
L 618.454183 510.386035 
L 631.075697 511.546724 
L 637.386454 511.891661 
L 646.85259 511.879916 
L 659.474104 511.444259 
L 662.629482 511.322147 
L 668.940239 511.54053 
L 678.406375 511.897937 
L 681.561753 512.555521 
L 684.717131 513.031218 
L 700.494024 514.452016 
L 703.649402 514.791093 
L 728.89243 515.457618 
L 732.047809 515.437889 
L 735.203187 515.564665 
L 744.669323 516.341794 
L 750.98008 516.667375 
L 757.290837 516.932143 
L 763.601594 517.510713 
L 769.912351 518.35551 
L 785.689243 520.181052 
L 788.844622 520.467801 
L 788.844622 520.467801 
" clip-path="url(#pa0a2477a4d)" style="fill: none; stroke: #000000; stroke-width: 1.5; stroke-linecap: square"/>
   </g>
   <g id="line2d_7">
    <path d="M 0 459 
L 3.155378 459 
L 6.310757 459.508091 
L 9.466135 459.85693 
L 15.776892 459.257057 
L 18.932271 459.239318 
L 22.087649 459.034891 
L 25.243028 458.680456 
L 28.398406 459.062232 
L 31.553785 459.572986 
L 34.709163 459.957996 
L 37.864542 460.475921 
L 41.01992 461.125946 
L 44.175299 462.501237 
L 53.641434 465.958663 
L 56.796813 466.879133 
L 59.952191 467.502572 
L 63.10757 467.804668 
L 69.418327 468.262499 
L 72.573705 468.64839 
L 82.039841 469.295042 
L 85.195219 469.246959 
L 88.350598 468.975672 
L 94.661355 468.661485 
L 104.12749 467.72371 
L 107.282869 467.581738 
L 129.370518 467.630445 
L 132.525896 467.712629 
L 135.681275 467.958116 
L 148.302789 469.789548 
L 157.768924 471.091839 
L 164.079681 471.432214 
L 176.701195 471.993889 
L 186.167331 472.377663 
L 192.478088 472.456181 
L 208.25498 473.356246 
L 236.653386 475.914342 
L 246.119522 477.381536 
L 265.051793 480.760844 
L 271.36255 481.74462 
L 280.828685 483.552517 
L 290.294821 485.399097 
L 306.071713 488.255498 
L 312.38247 489.338123 
L 318.693227 490.32754 
L 328.159363 491.35777 
L 337.625498 492.345842 
L 347.091633 493.460998 
L 353.40239 494.546641 
L 362.868526 496.25702 
L 375.49004 498.424898 
L 403.888446 502.114844 
L 416.50996 503.713087 
L 422.820717 504.47534 
L 429.131474 505.020883 
L 454.374502 506.02399 
L 470.151394 506.19323 
L 479.61753 506.09711 
L 485.928287 505.618892 
L 498.549801 504.391229 
L 504.860558 504.059593 
L 523.792829 503.551269 
L 545.880478 503.379828 
L 552.191235 503.262964 
L 558.501992 503.253813 
L 571.123506 503.59131 
L 577.434263 504.023969 
L 599.521912 505.829097 
L 608.988048 506.419844 
L 627.920319 508.002525 
L 640.541833 508.576649 
L 646.85259 508.69853 
L 668.940239 508.95066 
L 678.406375 509.298426 
L 684.717131 509.99165 
L 709.960159 511.560399 
L 719.426295 511.876929 
L 725.737052 512.138856 
L 735.203187 512.407781 
L 747.824701 513.176779 
L 760.446215 513.811027 
L 766.756972 514.339089 
L 788.844622 516.195259 
L 788.844622 516.195259 
" clip-path="url(#pa0a2477a4d)" style="fill: none; stroke: #000000; stroke-width: 1.5; stroke-linecap: square"/>
   </g>
   <g id="line2d_8">
    <path d="M 0 459 
L 3.155378 459 
L 6.310757 459.505369 
L 9.466135 459.851408 
L 15.776892 459.264264 
L 18.932271 459.245756 
L 22.087649 459.046775 
L 25.243028 458.726883 
L 28.398406 459.068948 
L 31.553785 459.555408 
L 34.709163 459.922451 
L 37.864542 460.41459 
L 41.01992 461.03025 
L 44.175299 462.323046 
L 53.641434 465.572493 
L 56.796813 466.439474 
L 59.952191 467.033464 
L 66.262948 467.526424 
L 82.039841 468.802509 
L 85.195219 468.78122 
L 88.350598 468.563317 
L 94.661355 468.321912 
L 104.12749 467.547549 
L 107.282869 467.432953 
L 129.370518 467.503581 
L 132.525896 467.57485 
L 135.681275 467.779707 
L 154.613546 470.100708 
L 160.924303 470.554355 
L 186.167331 471.55112 
L 192.478088 471.647767 
L 208.25498 472.417235 
L 236.653386 474.503678 
L 246.119522 475.648244 
L 283.984064 480.963044 
L 293.450199 482.371216 
L 299.760956 483.229005 
L 315.537849 485.460477 
L 321.848606 486.153997 
L 347.091633 488.575008 
L 356.557769 489.902554 
L 378.645418 492.873237 
L 400.733068 495.357791 
L 413.354582 496.689533 
L 425.976096 497.993455 
L 432.286853 498.407779 
L 460.685259 499.832883 
L 479.61753 500.289249 
L 485.928287 500.155612 
L 501.705179 499.632417 
L 523.792829 499.649164 
L 567.968127 500.217729 
L 577.434263 500.669997 
L 602.677291 502.151296 
L 612.143426 502.688561 
L 624.76494 503.512907 
L 637.386454 504.109482 
L 653.163347 504.517455 
L 665.784861 504.750741 
L 681.561753 505.477052 
L 691.027888 506.023432 
L 722.581673 507.454093 
L 741.513944 508.194944 
L 773.067729 509.862011 
L 788.844622 510.863846 
L 788.844622 510.863846 
" clip-path="url(#pa0a2477a4d)" style="fill: none; stroke: #000000; stroke-width: 1.5; stroke-linecap: square"/>
   </g>
   <g id="line2d_9">
    <path d="M 0 459 
L 3.155378 459 
L 6.310757 459.504008 
L 9.466135 459.848644 
L 15.776892 459.267815 
L 18.932271 459.248954 
L 25.243028 458.750012 
L 28.398406 459.0724 
L 31.553785 459.546968 
L 34.709163 459.905152 
L 37.864542 460.384584 
L 41.01992 460.983313 
L 44.175299 462.23576 
L 53.641434 465.382294 
L 56.796813 466.222314 
L 59.952191 466.80079 
L 66.262948 467.2933 
L 82.039841 468.549625 
L 85.195219 468.53977 
L 91.505976 468.263019 
L 94.661355 468.137149 
L 104.12749 467.438255 
L 110.438247 467.340447 
L 116.749004 467.373732 
L 123.059761 467.328831 
L 135.681275 467.671673 
L 154.613546 469.768973 
L 160.924303 470.185083 
L 186.167331 471.120793 
L 192.478088 471.220702 
L 208.25498 471.920368 
L 236.653386 473.768782 
L 246.119522 474.758115 
L 290.294821 480.130161 
L 312.38247 482.814396 
L 318.693227 483.511232 
L 353.40239 486.659241 
L 372.334661 488.917549 
L 381.800797 489.894991 
L 400.733068 491.727627 
L 416.50996 493.184919 
L 425.976096 494.018364 
L 435.442231 494.570942 
L 454.374502 495.551723 
L 473.306773 496.224945 
L 479.61753 496.381157 
L 489.083665 496.305703 
L 501.705179 496.15725 
L 526.948207 496.442955 
L 567.968127 497.17268 
L 580.589641 497.722936 
L 596.366534 498.547279 
L 612.143426 499.242464 
L 627.920319 500.054048 
L 643.697211 500.628083 
L 678.406375 501.543268 
L 687.87251 502.052102 
L 713.115538 503.08829 
L 738.358566 503.948203 
L 782.533865 505.930596 
L 788.844622 506.256559 
L 788.844622 506.256559 
" clip-path="url(#pa0a2477a4d)" style="fill: none; stroke: #000000; stroke-width: 1.5; stroke-linecap: square"/>
   </g>
  </g>
 </g>
 <defs>
  <clipPath id="pa0a2477a4d">
   <rect x="0" y="0" width="792" height="612"/>
  </clipPath>
 </defs>
</svg>
