<?xml version="1.0" encoding="utf-8" standalone="no"?>
<!DOCTYPE svg PUBLIC "-//W3C//DTD SVG 1.1//EN"
  "http://www.w3.org/Graphics/SVG/1.1/DTD/svg11.dtd">
<svg xmlns:xlink="http://www.w3.org/1999/xlink" width="792pt" height="612pt" viewBox="0 0 792 612" xmlns="http://www.w3.org/2000/svg" version="1.1">
 <metadata>
  <rdf:RDF xmlns:dc="http://purl.org/dc/elements/1.1/" xmlns:cc="http://creativecommons.org/ns#" xmlns:rdf="http://www.w3.org/1999/02/22-rdf-syntax-ns#">
   <cc:Work>
    <dc:type rdf:resource="http://purl.org/dc/dcmitype/StillImage"/>
    <dc:date>2023-01-30T17:16:05.421363</dc:date>
    <dc:format>image/svg+xml</dc:format>
    <dc:creator>
     <cc:Agent>
      <dc:title>Matplotlib v3.6.2, https://matplotlib.org/</dc:title>
     </cc:Agent>
    </dc:creator>
   </cc:Work>
  </rdf:RDF>
 </metadata>
 <defs>
  <style type="text/css">*{stroke-linejoin: round; stroke-linecap: butt}</style>
 </defs>
 <g id="figure_1">
  <g id="patch_1">
   <path d="M 0 612 
L 792 612 
L 792 0 
L 0 0 
z
" style="fill: #ffffff"/>
  </g>
  <g id="axes_1">
   <g id="line2d_1">
    <path d="M 0 306 
L 12.983607 298.059982 
L 25.967213 305.187772 
L 38.95082 306.571568 
L 51.934426 301.457864 
L 64.918033 304.225148 
L 77.901639 307.624444 
L 90.885246 318.567445 
L 103.868852 313.729578 
L 116.852459 305.007278 
L 129.836066 303.44304 
L 142.819672 307.594362 
L 155.803279 345.339683 
L 168.786885 294.844309 
L 181.770492 292.321548 
L 194.754098 308.195991 
L 207.737705 302.300023 
L 220.721311 310.692515 
L 233.704918 313.519131 
L 246.688525 304.947114 
L 259.672131 288.630959 
L 272.655738 310.121064 
L 285.639344 297.969795 
L 298.622951 306.030083 
L 311.606557 315.563145 
L 324.590164 309.008161 
L 337.57377 296.436855 
L 350.557377 303.83409 
L 363.540984 303.473121 
L 376.52459 316.52475 
L 389.508197 316.945387 
L 402.491803 306.421156 
L 415.47541 304.796703 
L 428.459016 303.503201 
L 441.442623 302.149633 
L 454.42623 305.87967 
L 467.409836 307.654526 
L 480.393443 317.005475 
L 493.377049 307.233379 
L 506.360656 318.927809 
L 519.344262 302.269945 
L 532.327869 306.300826 
L 545.311475 306.752063 
L 558.295082 301.969167 
L 571.278689 310.933116 
L 584.262295 312.617136 
L 597.245902 296.947786 
L 610.229508 306.902475 
L 623.213115 299.713625 
L 636.196721 296.947786 
L 649.180328 306.180495 
L 662.163934 299.984259 
L 675.147541 303.44304 
L 688.131148 303.623524 
L 701.114754 303.683686 
L 714.098361 295.535345 
L 727.081967 307.233379 
L 740.065574 304.465801 
L 753.04918 308.617121 
L 766.032787 305.87967 
L 779.016393 292.771914 
" clip-path="url(#p072a818d7d)" style="fill: none; stroke: #000000; stroke-width: 1.5; stroke-linecap: square"/>
   </g>
   <g id="line2d_2">
    <path d="M 0 306 
L 12.983607 306 
L 25.967213 300.705994 
L 38.95082 303.266855 
L 51.934426 305.029339 
L 64.918033 303.185903 
L 77.901639 303.713766 
L 90.885246 305.684488 
L 103.868852 312.153948 
L 116.852459 312.956961 
L 129.836066 308.996247 
L 142.819672 306.216241 
L 155.803279 306.907312 
L 168.786885 326.289613 
L 181.770492 310.560653 
L 194.754098 301.40703 
L 207.737705 304.781013 
L 220.721311 303.518065 
L 233.704918 307.11659 
L 246.688525 310.338089 
L 259.672131 307.637538 
L 272.655738 298.015065 
L 285.639344 304.097272 
L 298.622951 301.044122 
L 311.606557 303.532692 
L 324.590164 309.575299 
L 337.57377 309.28843 
L 350.557377 302.827758 
L 363.540984 303.328735 
L 376.52459 303.430064 
L 389.508197 309.991791 
L 402.491803 313.506752 
L 415.47541 309.965252 
L 428.459016 307.35996 
L 441.442623 305.420764 
L 454.42623 303.796342 
L 467.409836 304.842003 
L 480.393443 306.256469 
L 493.377049 311.633654 
L 506.360656 309.414644 
L 519.344262 314.197723 
L 532.327869 308.229729 
L 545.311475 307.270775 
L 558.295082 307.020445 
L 571.278689 304.487036 
L 584.262295 307.716695 
L 597.245902 310.158572 
L 610.229508 303.531866 
L 623.213115 305.193553 
L 636.196721 302.448292 
L 649.180328 299.679193 
L 662.163934 302.928377 
L 675.147541 301.452321 
L 688.131148 302.432957 
L 701.114754 303.010595 
L 714.098361 303.360349 
L 727.081967 299.424489 
L 740.065574 303.343244 
L 753.04918 303.919261 
L 766.032787 306.272985 
L 779.016393 306.087888 
" clip-path="url(#p072a818d7d)" style="fill: none; stroke: #000000; stroke-width: 1.5; stroke-linecap: square"/>
   </g>
   <g id="line2d_3">
    <path d="M 0 306 
L 12.983607 306 
L 25.967213 301.348159 
L 38.95082 303.087709 
L 51.934426 304.448201 
L 64.918033 303.38421 
L 77.901639 303.665698 
L 90.885246 304.937588 
L 103.868852 309.197911 
L 116.852459 310.586818 
L 129.836066 308.900044 
L 142.819672 307.265644 
L 155.803279 307.363452 
L 168.786885 318.668293 
L 181.770492 311.638474 
L 194.754098 305.947012 
L 207.737705 306.608316 
L 220.721311 305.342145 
L 233.704918 306.923848 
L 246.688525 308.865495 
L 259.672131 307.716002 
L 272.655738 302.106117 
L 285.639344 304.46035 
L 298.622951 302.547816 
L 311.606557 303.553289 
L 324.590164 307.073873 
L 337.57377 307.645024 
L 350.557377 304.353291 
L 363.540984 304.196901 
L 376.52459 303.936571 
L 389.508197 307.649654 
L 402.491803 310.401686 
L 415.47541 309.233871 
L 428.459016 307.93718 
L 441.442623 306.630241 
L 454.42623 305.304783 
L 467.409836 305.474234 
L 480.393443 306.134703 
L 493.377049 309.327851 
L 506.360656 308.725059 
L 519.344262 311.729835 
L 532.327869 308.944154 
L 545.311475 308.166859 
L 558.295082 307.764333 
L 571.278689 306.064772 
L 584.262295 307.499359 
L 597.245902 308.994044 
L 610.229508 305.442093 
L 623.213115 305.870382 
L 636.196721 304.061037 
L 649.180328 301.969523 
L 662.163934 303.207431 
L 675.147541 302.256518 
L 688.131148 302.599196 
L 701.114754 302.883833 
L 714.098361 303.114024 
L 727.081967 300.866623 
L 740.065574 302.736889 
L 753.04918 303.241152 
L 766.032787 304.81785 
L 779.016393 305.13334 
" clip-path="url(#p072a818d7d)" style="fill: none; stroke: #000000; stroke-width: 1.5; stroke-linecap: square"/>
   </g>
   <g id="line2d_4">
    <path d="M 0 306 
L 12.983607 306 
L 25.967213 301.686191 
L 38.95082 303.060352 
L 51.934426 304.177607 
L 64.918033 303.430912 
L 77.901639 303.626387 
L 90.885246 304.531597 
L 103.868852 307.510615 
L 116.852459 308.763717 
L 129.836066 308.037743 
L 142.819672 307.179074 
L 155.803279 307.254587 
L 168.786885 314.062858 
L 181.770492 310.70895 
L 194.754098 307.547277 
L 207.737705 307.657372 
L 220.721311 306.757698 
L 233.704918 307.412741 
L 246.688525 308.421996 
L 259.672131 307.851314 
L 272.655738 304.707732 
L 285.639344 305.588509 
L 298.622951 304.353111 
L 311.606557 304.624154 
L 324.590164 306.388253 
L 337.57377 306.809761 
L 350.557377 305.143421 
L 363.540984 304.933458 
L 376.52459 304.699572 
L 389.508197 306.592108 
L 402.491803 308.247747 
L 415.47541 307.955997 
L 428.459016 307.452602 
L 441.442623 306.827634 
L 454.42623 306.081421 
L 467.409836 306.04889 
L 480.393443 306.308221 
L 493.377049 308.018896 
L 506.360656 307.893675 
L 519.344262 309.650543 
L 532.327869 308.469175 
L 545.311475 308.125001 
L 558.295082 307.90863 
L 571.278689 306.960111 
L 584.262295 307.570683 
L 597.245902 308.384812 
L 610.229508 306.56765 
L 623.213115 306.620115 
L 636.196721 305.519514 
L 649.180328 304.146746 
L 662.163934 304.465737 
L 675.147541 303.749527 
L 688.131148 303.710016 
L 701.114754 303.692201 
L 714.098361 303.694412 
L 727.081967 302.389206 
L 740.065574 303.154674 
L 753.04918 303.36044 
L 766.032787 304.204374 
L 779.016393 304.472191 
" clip-path="url(#p072a818d7d)" style="fill: none; stroke: #000000; stroke-width: 1.5; stroke-linecap: square"/>
   </g>
   <g id="line2d_5">
    <path d="M 0 306 
L 12.983607 306 
L 25.967213 301.857434 
L 38.95082 303.064925 
L 51.934426 304.05855 
L 64.918033 303.444578 
L 77.901639 303.60438 
L 90.885246 304.338063 
L 103.868852 306.701185 
L 116.852459 307.778667 
L 129.836066 307.381792 
L 142.819672 306.849766 
L 155.803279 306.945364 
L 168.786885 311.686927 
L 181.770492 309.697452 
L 194.754098 307.713898 
L 207.737705 307.767247 
L 220.721311 307.178517 
L 233.704918 307.547826 
L 246.688525 308.161907 
L 259.672131 307.837807 
L 272.655738 305.933481 
L 285.639344 306.341742 
L 298.622951 305.537063 
L 311.606557 305.583827 
L 324.590164 306.519591 
L 337.57377 306.7504 
L 350.557377 305.802825 
L 363.540984 305.623582 
L 376.52459 305.429356 
L 389.508197 306.42454 
L 402.491803 307.362002 
L 415.47541 307.27871 
L 428.459016 307.060192 
L 441.442623 306.748597 
L 454.42623 306.347559 
L 467.409836 306.30693 
L 480.393443 306.4235 
L 493.377049 307.336061 
L 506.360656 307.327238 
L 519.344262 308.321719 
L 532.327869 307.804633 
L 545.311475 307.676457 
L 558.295082 307.597843 
L 571.278689 307.120118 
L 584.262295 307.443156 
L 597.245902 307.880779 
L 610.229508 306.957451 
L 623.213115 306.952816 
L 636.196721 306.343187 
L 649.180328 305.552803 
L 662.163934 305.605534 
L 675.147541 305.133716 
L 688.131148 304.991957 
L 701.114754 304.877315 
L 714.098361 304.777396 
L 727.081967 304.003984 
L 740.065574 304.273938 
L 753.04918 304.289967 
L 766.032787 304.651277 
L 779.016393 304.753794 
" clip-path="url(#p072a818d7d)" style="fill: none; stroke: #000000; stroke-width: 1.5; stroke-linecap: square"/>
   </g>
   <g id="line2d_6">
    <path d="M 0 306 
L 12.983607 306 
L 25.967213 301.943338 
L 38.95082 303.071924 
L 51.934426 304.004446 
L 64.918033 303.450038 
L 77.901639 303.593604 
L 90.885246 304.246883 
L 103.868852 306.320813 
L 116.852459 307.293874 
L 129.836066 307.018139 
L 142.819672 306.618282 
L 155.803279 306.720362 
L 168.786885 310.543977 
L 181.770492 309.080009 
L 194.754098 307.592445 
L 207.737705 307.643622 
L 220.721311 307.208942 
L 233.704918 307.481713 
L 246.688525 307.938132 
L 259.672131 307.719332 
L 272.655738 306.363293 
L 285.639344 306.622595 
L 298.622951 306.040902 
L 311.606557 306.040192 
L 324.590164 306.650793 
L 337.57377 306.798691 
L 350.557377 306.161395 
L 363.540984 306.020976 
L 376.52459 305.869959 
L 389.508197 306.491241 
L 402.491803 307.091319 
L 415.47541 307.053436 
L 428.459016 306.927643 
L 441.442623 306.739273 
L 454.42623 306.489944 
L 467.409836 306.457183 
L 480.393443 306.520742 
L 493.377049 307.071663 
L 506.360656 307.080072 
L 519.344262 307.690624 
L 532.327869 307.41397 
L 545.311475 307.357646 
L 558.295082 307.327254 
L 571.278689 307.060416 
L 584.262295 307.251876 
L 597.245902 307.515291 
L 610.229508 306.99988 
L 623.213115 306.99516 
L 636.196721 306.644429 
L 649.180328 306.179973 
L 662.163934 306.179998 
L 675.147541 305.886429 
L 688.131148 305.77124 
L 701.114754 305.670469 
L 714.098361 305.577668 
L 727.081967 305.110438 
L 740.065574 305.208766 
L 753.04918 305.174488 
L 766.032787 305.332728 
L 779.016393 305.357779 
" clip-path="url(#p072a818d7d)" style="fill: none; stroke: #000000; stroke-width: 1.5; stroke-linecap: square"/>
   </g>
   <g id="line2d_7">
    <path d="M 0 306 
L 12.983607 306 
L 25.967213 301.986325 
L 38.95082 303.076607 
L 51.934426 303.978902 
L 64.918033 303.452584 
L 77.901639 303.588414 
L 90.885246 304.203105 
L 103.868852 306.138617 
L 116.852459 307.057153 
L 129.836066 306.831617 
L 142.819672 306.489127 
L 155.803279 306.592594 
L 168.786885 309.99457 
L 181.770492 308.753263 
L 194.754098 307.483381 
L 207.737705 307.535516 
L 220.721311 307.171323 
L 233.704918 307.405033 
L 246.688525 307.793439 
L 259.672131 307.619966 
L 272.655738 306.50555 
L 285.639344 306.709939 
L 298.622951 306.232535 
L 311.606557 306.221834 
L 324.590164 306.700698 
L 337.57377 306.815527 
L 350.557377 306.313142 
L 363.540984 306.196326 
L 376.52459 306.071218 
L 389.508197 306.540152 
L 402.491803 306.996263 
L 415.47541 306.971616 
L 428.459016 306.880364 
L 441.442623 306.741518 
L 454.42623 306.55637 
L 467.409836 306.529591 
L 480.393443 306.573314 
L 493.377049 306.972004 
L 506.360656 306.981824 
L 519.344262 307.423784 
L 532.327869 307.236143 
L 545.311475 307.202594 
L 558.295082 307.186663 
L 571.278689 307.004705 
L 584.262295 307.139898 
L 597.245902 307.32599 
L 610.229508 306.977727 
L 623.213115 306.975233 
L 636.196721 306.737291 
L 649.180328 306.420065 
L 662.163934 306.412388 
L 675.147541 306.208541 
L 688.131148 306.121743 
L 701.114754 306.044107 
L 714.098361 305.971455 
L 727.081967 305.653094 
L 740.065574 305.70085 
L 753.04918 305.663852 
L 766.032787 305.751575 
L 779.016393 305.755348 
" clip-path="url(#p072a818d7d)" style="fill: none; stroke: #000000; stroke-width: 1.5; stroke-linecap: square"/>
   </g>
   <g id="line2d_8">
    <path d="M 0 306 
L 12.983607 306 
L 25.967213 302.007823 
L 38.95082 303.079244 
L 51.934426 303.966524 
L 64.918033 303.453832 
L 77.901639 303.585889 
L 90.885246 304.181719 
L 103.868852 306.049732 
L 116.852459 306.940667 
L 129.836066 306.737771 
L 142.819672 306.421764 
L 155.803279 306.525407 
L 168.786885 309.726739 
L 181.770492 308.586992 
L 194.754098 307.417895 
L 207.737705 307.470577 
L 220.721311 307.139359 
L 233.704918 307.355468 
L 246.688525 307.712534 
L 259.672131 307.559581 
L 272.655738 306.556293 
L 285.639344 306.737427 
L 298.622951 306.309013 
L 311.606557 306.295886 
L 324.590164 306.71688 
L 337.57377 306.817453 
L 350.557377 306.3763 
L 363.540984 306.271612 
L 376.52459 306.15977 
L 389.508197 306.562409 
L 402.491803 306.954757 
L 415.47541 306.935132 
L 428.459016 306.858479 
L 441.442623 306.741148 
L 454.42623 306.584375 
L 467.409836 306.560864 
L 480.393443 306.596546 
L 493.377049 306.929034 
L 506.360656 306.93855 
L 519.344262 307.306117 
L 532.327869 307.154817 
L 545.311475 307.129647 
L 558.295082 307.118722 
L 571.278689 306.972383 
L 584.262295 307.082994 
L 597.245902 307.234949 
L 610.229508 306.9571 
L 623.213115 306.955648 
L 636.196721 306.766188 
L 649.180328 306.513181 
L 662.163934 306.504737 
L 675.147541 306.341603 
L 688.131148 306.270109 
L 701.114754 306.205726 
L 714.098361 306.145193 
L 727.081967 305.893771 
L 740.065574 305.925099 
L 753.04918 305.891397 
L 766.032787 305.953581 
L 779.016393 305.951915 
" clip-path="url(#p072a818d7d)" style="fill: none; stroke: #000000; stroke-width: 1.5; stroke-linecap: square"/>
   </g>
   <g id="line2d_9">
    <path d="M 0 306 
L 12.983607 306 
L 25.967213 302.018573 
L 38.95082 303.080637 
L 51.934426 303.960436 
L 64.918033 303.454453 
L 77.901639 303.584645 
L 90.885246 304.171158 
L 103.868852 306.005867 
L 116.852459 306.882948 
L 129.836066 306.690778 
L 142.819672 306.387465 
L 155.803279 306.491064 
L 168.786885 309.594702 
L 181.770492 308.503348 
L 194.754098 307.382601 
L 207.737705 307.43553 
L 220.721311 307.120171 
L 233.704918 307.327919 
L 246.688525 307.669971 
L 259.672131 307.526714 
L 272.655738 306.576429 
L 285.639344 306.746886 
L 298.622951 306.342029 
L 311.606557 306.328206 
L 324.590164 306.722236 
L 337.57377 306.816239 
L 350.557377 306.404025 
L 363.540984 306.305373 
L 376.52459 306.200123 
L 389.508197 306.57213 
L 402.491803 306.934802 
L 415.47541 306.917367 
L 428.459016 306.847382 
L 441.442623 306.739981 
L 454.42623 306.59639 
L 467.409836 306.574537 
L 480.393443 306.606661 
L 493.377049 306.908753 
L 506.360656 306.917961 
L 519.344262 307.251205 
L 532.327869 307.116088 
L 545.311475 307.094445 
L 558.295082 307.085544 
L 571.278689 306.955208 
L 584.262295 307.054554 
L 597.245902 307.19082 
L 610.229508 306.94458 
L 623.213115 306.943587 
L 636.196721 306.776031 
L 649.180328 306.552203 
L 662.163934 306.543884 
L 675.147541 306.399519 
L 688.131148 306.335521 
L 701.114754 306.277754 
L 714.098361 306.223364 
L 727.081967 306.002621 
L 740.065574 306.027649 
L 753.04918 305.996355 
L 766.032787 306.048109 
L 779.016393 306.04483 
" clip-path="url(#p072a818d7d)" style="fill: none; stroke: #000000; stroke-width: 1.5; stroke-linecap: square"/>
   </g>
  </g>
 </g>
 <defs>
  <clipPath id="p072a818d7d">
   <rect x="0" y="0" width="792" height="612"/>
  </clipPath>
 </defs>
</svg>
