<?xml version="1.0" encoding="utf-8" standalone="no"?>
<!DOCTYPE svg PUBLIC "-//W3C//DTD SVG 1.1//EN"
  "http://www.w3.org/Graphics/SVG/1.1/DTD/svg11.dtd">
<svg xmlns:xlink="http://www.w3.org/1999/xlink" width="792pt" height="612pt" viewBox="0 0 792 612" xmlns="http://www.w3.org/2000/svg" version="1.1">
 <metadata>
  <rdf:RDF xmlns:dc="http://purl.org/dc/elements/1.1/" xmlns:cc="http://creativecommons.org/ns#" xmlns:rdf="http://www.w3.org/1999/02/22-rdf-syntax-ns#">
   <cc:Work>
    <dc:type rdf:resource="http://purl.org/dc/dcmitype/StillImage"/>
    <dc:date>2023-01-23T15:50:36.321697</dc:date>
    <dc:format>image/svg+xml</dc:format>
    <dc:creator>
     <cc:Agent>
      <dc:title>Matplotlib v3.6.2, https://matplotlib.org/</dc:title>
     </cc:Agent>
    </dc:creator>
   </cc:Work>
  </rdf:RDF>
 </metadata>
 <defs>
  <style type="text/css">*{stroke-linejoin: round; stroke-linecap: butt}</style>
 </defs>
 <g id="figure_1">
  <g id="patch_1">
   <path d="M 0 612 
L 792 612 
L 792 0 
L 0 0 
z
" style="fill: #ffffff"/>
  </g>
  <g id="axes_1">
   <g id="line2d_1">
    <path d="M 0 306 
L 12.774194 302.384633 
L 25.548387 304.396604 
L 38.322581 307.25757 
L 51.096774 295.157936 
L 63.870968 307.006058 
L 76.645161 297.702025 
L 89.419355 305.151137 
L 102.193548 306.597348 
L 114.967742 301.253026 
L 127.741935 304.145096 
L 140.516129 307.697712 
L 153.290323 319.133609 
L 166.064516 314.078057 
L 178.83871 304.962503 
L 191.612903 303.327716 
L 204.387097 307.666273 
L 217.16129 347.09312 
L 229.935484 294.341616 
L 242.709677 291.70547 
L 255.483871 308.295036 
L 268.258065 302.133156 
L 281.032258 310.904132 
L 293.806452 313.85813 
L 306.580645 304.899625 
L 319.354839 287.84934 
L 332.129032 310.306918 
L 344.903226 297.607776 
L 357.677419 306.031439 
L 370.451613 315.994184 
L 383.225806 309.143833 
L 396 296.005816 
L 408.774194 303.736402 
L 421.548387 303.359153 
L 434.322581 316.999061 
L 447.096774 317.438621 
L 459.870968 306.440152 
L 472.645161 304.74243 
L 485.419355 303.39059 
L 498.193548 301.975985 
L 510.967742 305.874242 
L 523.741935 307.72915 
L 536.516129 317.501412 
L 549.290323 307.289009 
L 562.064516 319.510167 
L 574.83871 302.101721 
L 587.612903 306.314394 
L 600.387097 306.785984 
L 613.16129 301.787382 
L 625.935484 311.155579 
L 638.709677 312.915498 
L 651.483871 296.539746 
L 664.258065 306.94318 
L 677.032258 299.430168 
L 689.806452 296.539746 
L 702.580645 306.188637 
L 715.354839 299.712998 
L 728.129032 303.327716 
L 740.903226 303.516339 
L 753.677419 303.579214 
L 766.451613 295.063737 
L 779.225806 307.289009 
" clip-path="url(#pbff2c85aa4)" style="fill: none; stroke: #000000; stroke-width: 1.5; stroke-linecap: square"/>
   </g>
   <g id="line2d_2">
    <path d="M 0 306 
L 12.774194 306 
L 25.548387 303.589693 
L 38.322581 304.050782 
L 51.096774 305.76106 
L 63.870968 300.286801 
L 76.645161 303.699475 
L 89.419355 300.676628 
L 102.193548 302.922492 
L 114.967742 304.761047 
L 127.741935 303.004719 
L 140.516129 303.574406 
L 153.290323 305.636906 
L 166.064516 312.435381 
L 178.83871 313.270634 
L 191.612903 309.131381 
L 204.387097 306.225994 
L 217.16129 306.948235 
L 229.935484 327.201893 
L 242.709677 310.766326 
L 255.483871 301.199901 
L 268.258065 304.726032 
L 281.032258 303.406124 
L 293.806452 307.166952 
L 306.580645 310.533728 
L 319.354839 307.711397 
L 332.129032 297.655085 
L 344.903226 304.011453 
L 357.677419 300.820632 
L 370.451613 303.421411 
L 383.225806 309.736545 
L 396 309.43674 
L 408.774194 302.684687 
L 421.548387 303.208256 
L 434.322581 303.314155 
L 447.096774 310.171816 
L 459.870968 313.845193 
L 472.645161 310.14408 
L 485.419355 307.421299 
L 498.193548 305.394638 
L 510.967742 303.696951 
L 523.741935 304.789773 
L 536.516129 306.268037 
L 549.290323 311.887694 
L 562.064516 309.568645 
L 574.83871 314.567287 
L 587.612903 308.330295 
L 600.387097 307.328092 
L 613.16129 307.066471 
L 625.935484 304.418796 
L 638.709677 307.794123 
L 651.483871 310.346117 
L 664.258065 303.420548 
L 677.032258 305.157179 
L 689.806452 302.28811 
L 702.580645 299.394184 
L 715.354839 302.789843 
L 728.129032 301.247233 
L 740.903226 302.272084 
L 753.677419 302.875769 
L 766.451613 303.241295 
L 779.225806 299.128002 
" clip-path="url(#pbff2c85aa4)" style="fill: none; stroke: #000000; stroke-width: 1.5; stroke-linecap: square"/>
   </g>
   <g id="line2d_3">
    <path d="M 0 306 
L 12.774194 306 
L 25.548387 303.882103 
L 38.322581 304.115212 
L 51.096774 305.342369 
L 63.870968 301.71753 
L 76.645161 303.487658 
L 89.419355 301.628388 
L 102.193548 302.728882 
L 114.967742 303.914265 
L 127.741935 303.109611 
L 140.516129 303.419745 
L 153.290323 304.692591 
L 166.064516 308.971814 
L 178.83871 310.479474 
L 191.612903 308.854756 
L 204.387097 307.229607 
L 217.16129 307.359418 
L 229.935484 319.113904 
L 242.709677 311.85003 
L 255.483871 305.929404 
L 268.258065 306.637388 
L 281.032258 305.312473 
L 293.806452 306.965518 
L 306.580645 308.994733 
L 319.354839 307.793399 
L 332.129032 301.930506 
L 344.903226 304.390907 
L 357.677419 302.392122 
L 370.451613 303.442936 
L 383.225806 307.122309 
L 396 307.71922 
L 408.774194 304.279019 
L 421.548387 304.115575 
L 434.322581 303.843504 
L 447.096774 307.724059 
L 459.870968 310.600192 
L 472.645161 309.379721 
L 485.419355 308.024553 
L 498.193548 306.658667 
L 510.967742 305.273425 
L 523.741935 305.45052 
L 536.516129 306.140779 
L 549.290323 309.477938 
L 562.064516 308.847964 
L 574.83871 311.988211 
L 587.612903 309.076939 
L 600.387097 308.26459 
L 613.16129 307.84391 
L 625.935484 306.067693 
L 638.709677 307.566985 
L 651.483871 309.129079 
L 664.258065 305.41693 
L 677.032258 305.864536 
L 689.806452 303.973584 
L 702.580645 301.787753 
L 715.354839 303.081481 
L 728.129032 302.087689 
L 740.903226 302.445818 
L 753.677419 302.743291 
L 766.451613 302.983862 
L 779.225806 300.635132 
" clip-path="url(#pbff2c85aa4)" style="fill: none; stroke: #000000; stroke-width: 1.5; stroke-linecap: square"/>
   </g>
   <g id="line2d_4">
    <path d="M 0 306 
L 12.774194 306 
L 25.548387 304.036019 
L 38.322581 304.177535 
L 51.096774 305.157614 
L 63.870968 302.411332 
L 76.645161 303.542117 
L 89.419355 302.219505 
L 102.193548 302.841376 
L 114.967742 303.597992 
L 127.741935 303.144752 
L 140.516129 303.331697 
L 153.290323 304.125552 
L 166.064516 306.795273 
L 178.83871 308.066635 
L 191.612903 307.533114 
L 204.387097 306.819411 
L 217.16129 306.961625 
L 229.935484 313.681879 
L 242.709677 310.4861 
L 255.483871 307.400194 
L 268.258065 307.546411 
L 281.032258 306.665657 
L 293.806452 307.352842 
L 306.580645 308.404522 
L 319.354839 307.839475 
L 332.129032 304.620036 
L 344.903226 305.533363 
L 357.677419 304.262125 
L 370.451613 304.545486 
L 383.225806 306.377693 
L 396 306.819866 
L 408.774194 305.092001 
L 421.548387 304.874904 
L 434.322581 304.634345 
L 447.096774 306.610228 
L 459.870968 308.340223 
L 472.645161 308.044965 
L 485.419355 307.518119 
L 498.193548 306.864963 
L 510.967742 306.085093 
L 523.741935 306.051095 
L 536.516129 306.322123 
L 549.290323 308.109954 
L 562.064516 307.979086 
L 574.83871 309.815181 
L 587.612903 308.58054 
L 600.387097 308.220844 
L 613.16129 307.994715 
L 625.935484 307.003416 
L 638.709677 307.641527 
L 651.483871 308.492373 
L 664.258065 306.593254 
L 677.032258 306.648085 
L 689.806452 305.497842 
L 702.580645 304.063158 
L 715.354839 304.396536 
L 728.129032 303.648025 
L 740.903226 303.606732 
L 753.677419 303.588114 
L 766.451613 303.590425 
L 779.225806 302.22636 
" clip-path="url(#pbff2c85aa4)" style="fill: none; stroke: #000000; stroke-width: 1.5; stroke-linecap: square"/>
   </g>
   <g id="line2d_5">
    <path d="M 0 306 
L 12.774194 306 
L 25.548387 304.11399 
L 38.322581 304.216464 
L 51.096774 305.0782 
L 63.870968 302.735418 
L 76.645161 303.609688 
L 89.419355 302.531215 
L 102.193548 302.966076 
L 114.967742 303.522615 
L 127.741935 303.197571 
L 140.516129 303.325554 
L 153.290323 303.886863 
L 166.064516 305.760327 
L 178.83871 306.742958 
L 191.612903 306.539802 
L 204.387097 306.184341 
L 217.16129 306.34392 
L 229.935484 310.652057 
L 242.709677 308.974721 
L 255.483871 307.232693 
L 268.258065 307.337923 
L 281.032258 306.830508 
L 293.806452 307.221999 
L 306.580645 307.8516 
L 319.354839 307.574885 
L 332.129032 305.743483 
L 344.903226 306.162656 
L 357.677419 305.383603 
L 370.451613 305.442113 
L 383.225806 306.388529 
L 396 306.633943 
L 408.774194 305.692732 
L 421.548387 305.52049 
L 434.322581 305.331152 
L 447.096774 306.348987 
L 459.870968 307.312394 
L 472.645161 307.236944 
L 485.419355 307.02192 
L 498.193548 306.709898 
L 510.967742 306.30431 
L 523.741935 306.267563 
L 536.516129 306.392144 
L 549.290323 307.337388 
L 562.064516 307.333282 
L 574.83871 308.365521 
L 587.612903 307.835812 
L 600.387097 307.707354 
L 613.16129 307.629671 
L 625.935484 307.137722 
L 638.709677 307.475662 
L 651.483871 307.932737 
L 664.258065 306.976368 
L 677.032258 306.973585 
L 689.806452 306.341559 
L 702.580645 305.520806 
L 715.354839 305.57667 
L 728.129032 305.086425 
L 740.903226 304.93949 
L 753.677419 304.820656 
L 766.451613 304.717047 
L 779.225806 303.911419 
" clip-path="url(#pbff2c85aa4)" style="fill: none; stroke: #000000; stroke-width: 1.5; stroke-linecap: square"/>
   </g>
   <g id="line2d_6">
    <path d="M 0 306 
L 12.774194 306 
L 25.548387 304.153103 
L 38.322581 304.23781 
L 51.096774 305.042484 
L 63.870968 302.889806 
L 76.645161 303.652193 
L 89.419355 302.68758 
L 102.193548 303.044164 
L 114.967742 303.510712 
L 127.741935 303.238441 
L 140.516129 303.339842 
L 153.290323 303.795572 
L 166.064516 305.306492 
L 178.83871 306.124453 
L 191.612903 306.021362 
L 204.387097 305.792953 
L 217.16129 305.945339 
L 229.935484 309.186453 
L 242.709677 308.064099 
L 255.483871 306.86666 
L 268.258065 306.968036 
L 281.032258 306.634418 
L 293.806452 306.921419 
L 306.580645 307.376465 
L 319.354839 307.217706 
L 332.129032 306.00127 
L 344.903226 306.266024 
L 357.677419 305.743509 
L 370.451613 305.760575 
L 383.225806 306.357273 
L 396 306.51716 
L 408.774194 305.922764 
L 421.548387 305.800891 
L 434.322581 305.666575 
L 447.096774 306.282437 
L 459.870968 306.881607 
L 472.645161 306.858173 
L 485.419355 306.747051 
L 498.193548 306.572529 
L 510.967742 306.335791 
L 523.741935 306.312235 
L 536.516129 306.383931 
L 549.290323 306.942158 
L 562.064516 306.959431 
L 574.83871 307.580281 
L 587.612903 307.311344 
L 600.387097 307.262732 
L 613.16129 307.239632 
L 625.935484 306.977032 
L 638.709677 307.177145 
L 651.483871 307.450481 
L 664.258065 306.933432 
L 677.032258 306.933892 
L 689.806452 306.581778 
L 702.580645 306.112595 
L 715.354839 306.116132 
L 728.129032 305.819517 
L 740.903226 305.704551 
L 753.677419 305.603969 
L 766.451613 305.511232 
L 779.225806 305.034141 
" clip-path="url(#pbff2c85aa4)" style="fill: none; stroke: #000000; stroke-width: 1.5; stroke-linecap: square"/>
   </g>
   <g id="line2d_7">
    <path d="M 0 306 
L 12.774194 306 
L 25.548387 304.172676 
L 38.322581 304.248941 
L 51.096774 305.025701 
L 63.870968 302.964887 
L 76.645161 303.675372 
L 89.419355 302.76537 
L 102.193548 303.086666 
L 114.967742 303.51136 
L 127.741935 303.262869 
L 140.516129 303.352034 
L 153.290323 303.758836 
L 166.064516 305.10191 
L 178.83871 305.837344 
L 191.612903 305.769769 
L 204.387097 305.591105 
L 217.16129 305.735456 
L 229.935484 308.496743 
L 242.709677 307.597395 
L 255.483871 306.6282 
L 268.258065 306.725929 
L 281.032258 306.466301 
L 293.806452 306.708676 
L 306.580645 307.086661 
L 319.354839 306.974584 
L 332.129032 306.021809 
L 344.903226 306.229185 
L 357.677419 305.822839 
L 370.451613 305.832422 
L 383.225806 306.288247 
L 396 306.41337 
L 408.774194 305.967193 
L 421.548387 305.873594 
L 434.322581 305.770216 
L 447.096774 306.223144 
L 459.870968 306.667169 
L 472.645161 306.658345 
L 485.419355 306.585157 
L 498.193548 306.465134 
L 510.967742 306.299147 
L 523.741935 306.283678 
L 536.516129 306.335528 
L 549.290323 306.730536 
L 562.064516 306.750012 
L 574.83871 307.189398 
L 587.612903 307.016565 
L 600.387097 306.993008 
L 613.16129 306.986146 
L 625.935484 306.81581 
L 638.709677 306.956416 
L 651.483871 307.147408 
L 664.258065 306.810968 
L 677.032258 306.815118 
L 689.806452 306.585594 
L 702.580645 306.276301 
L 715.354839 306.273628 
L 728.129032 306.07534 
L 740.903226 305.993029 
L 753.677419 305.919462 
L 766.451613 305.850518 
L 779.225806 305.535142 
" clip-path="url(#pbff2c85aa4)" style="fill: none; stroke: #000000; stroke-width: 1.5; stroke-linecap: square"/>
   </g>
   <g id="line2d_8">
    <path d="M 0 306 
L 12.774194 306 
L 25.548387 304.182465 
L 38.322581 304.254619 
L 51.096774 305.017587 
L 63.870968 303.001879 
L 76.645161 303.687407 
L 89.419355 302.8041 
L 102.193548 303.108705 
L 114.967742 303.513314 
L 127.741935 303.276094 
L 140.516129 303.35944 
L 153.290323 303.742866 
L 166.064516 305.005849 
L 178.83871 305.700605 
L 191.612903 305.64758 
L 204.387097 305.490512 
L 217.16129 305.629886 
L 229.935484 308.166693 
L 242.709677 307.365668 
L 255.483871 306.498927 
L 268.258065 306.594037 
L 281.032258 306.367374 
L 293.806452 306.589028 
L 306.580645 306.931198 
L 319.354839 306.838939 
L 332.129032 306.004505 
L 344.903226 306.187306 
L 357.677419 305.83392 
L 370.451613 305.841813 
L 383.225806 306.236174 
L 396 306.346003 
L 408.774194 305.965582 
L 421.548387 305.885674 
L 434.322581 305.797323 
L 447.096774 306.179942 
L 459.870968 306.555743 
L 472.645161 306.551972 
L 485.419355 306.494196 
L 498.193548 306.397155 
L 510.967742 306.261689 
L 523.741935 306.250049 
L 536.516129 306.293644 
L 549.290323 306.618073 
L 562.064516 306.637139 
L 574.83871 306.99685 
L 587.612903 306.862458 
L 600.387097 306.847659 
L 613.16129 306.84602 
L 625.935484 306.713689 
L 638.709677 306.828132 
L 651.483871 306.982666 
L 664.258065 306.721354 
L 677.032258 306.726825 
L 689.806452 306.549298 
L 702.580645 306.308984 
L 715.354839 306.306133 
L 728.129032 306.151927 
L 740.903226 306.086701 
L 753.677419 306.028061 
L 766.451613 305.972858 
L 779.225806 305.729702 
" clip-path="url(#pbff2c85aa4)" style="fill: none; stroke: #000000; stroke-width: 1.5; stroke-linecap: square"/>
   </g>
   <g id="line2d_9">
    <path d="M 0 306 
L 12.774194 306 
L 25.548387 304.187359 
L 38.322581 304.257485 
L 51.096774 305.013601 
L 63.870968 303.020236 
L 76.645161 303.693531 
L 89.419355 302.823415 
L 102.193548 303.11991 
L 114.967742 303.514694 
L 127.741935 303.282959 
L 140.516129 303.363473 
L 153.290323 303.735497 
L 166.064516 304.95944 
L 178.83871 305.634079 
L 191.612903 305.58759 
L 204.387097 305.440535 
L 217.16129 305.57721 
L 229.935484 308.005835 
L 242.709677 307.250788 
L 255.483871 306.432347 
L 268.258065 306.525933 
L 281.032258 306.314694 
L 293.806452 306.526365 
L 306.580645 306.851331 
L 319.354839 306.768085 
L 332.129032 305.989247 
L 344.903226 306.160683 
L 357.677419 305.832288 
L 370.451613 305.839689 
L 383.225806 306.205547 
L 396 306.308234 
L 408.774194 305.958411 
L 421.548387 305.885079 
L 434.322581 305.803956 
L 447.096774 306.154284 
L 459.870968 306.498513 
L 472.645161 306.496778 
L 485.419355 306.445836 
L 498.193548 306.359166 
L 510.967742 306.237613 
L 523.741935 306.227757 
L 536.516129 306.267616 
L 549.290323 306.559812 
L 562.064516 306.578387 
L 574.83871 306.901537 
L 587.612903 306.783973 
L 600.387097 306.772687 
L 613.16129 306.773001 
L 625.935484 306.657466 
L 638.709677 306.759889 
L 651.483871 306.897672 
L 664.258065 306.669675 
L 677.032258 306.675595 
L 689.806452 306.521245 
L 702.580645 306.311902 
L 715.354839 306.309357 
L 728.129032 306.1752 
L 740.903226 306.118146 
L 753.677419 306.066766 
L 766.451613 306.018338 
L 779.225806 305.807944 
" clip-path="url(#pbff2c85aa4)" style="fill: none; stroke: #000000; stroke-width: 1.5; stroke-linecap: square"/>
   </g>
  </g>
 </g>
 <defs>
  <clipPath id="pbff2c85aa4">
   <rect x="0" y="0" width="792" height="612"/>
  </clipPath>
 </defs>
</svg>
