<?xml version="1.0" encoding="utf-8" standalone="no"?>
<!DOCTYPE svg PUBLIC "-//W3C//DTD SVG 1.1//EN"
  "http://www.w3.org/Graphics/SVG/1.1/DTD/svg11.dtd">
<svg xmlns:xlink="http://www.w3.org/1999/xlink" width="792pt" height="612pt" viewBox="0 0 792 612" xmlns="http://www.w3.org/2000/svg" version="1.1">
 <metadata>
  <rdf:RDF xmlns:dc="http://purl.org/dc/elements/1.1/" xmlns:cc="http://creativecommons.org/ns#" xmlns:rdf="http://www.w3.org/1999/02/22-rdf-syntax-ns#">
   <cc:Work>
    <dc:type rdf:resource="http://purl.org/dc/dcmitype/StillImage"/>
    <dc:date>2023-01-23T15:50:35.264166</dc:date>
    <dc:format>image/svg+xml</dc:format>
    <dc:creator>
     <cc:Agent>
      <dc:title>Matplotlib v3.6.2, https://matplotlib.org/</dc:title>
     </cc:Agent>
    </dc:creator>
   </cc:Work>
  </rdf:RDF>
 </metadata>
 <defs>
  <style type="text/css">*{stroke-linejoin: round; stroke-linecap: butt}</style>
 </defs>
 <g id="figure_1">
  <g id="patch_1">
   <path d="M 0 612 
L 792 612 
L 792 0 
L 0 0 
z
" style="fill: #ffffff"/>
  </g>
  <g id="axes_1">
   <g id="line2d_1">
    <path d="M 0 459 
L 12.774194 453.57695 
L 25.548387 451.17234 
L 38.322581 453.058279 
L 51.096774 436.805363 
L 63.870968 438.311161 
L 76.645161 425.90465 
L 89.419355 424.63823 
L 102.193548 425.529361 
L 114.967742 418.454766 
L 127.741935 415.695598 
L 140.516129 418.220821 
L 153.290323 437.84055 
L 166.064516 449.946618 
L 178.83871 448.391081 
L 191.612903 444.385605 
L 204.387097 446.882915 
L 217.16129 475.63146 
L 229.935484 469.799445 
L 242.709677 462.646974 
L 255.483871 463.794514 
L 268.258065 461.860988 
L 281.032258 464.313264 
L 293.806452 468.243193 
L 306.580645 467.693003 
L 319.354839 457.821024 
L 332.129032 460.760608 
L 344.903226 451.69095 
L 357.677419 451.738097 
L 370.451613 461.578033 
L 383.225806 463.150005 
L 396 456.453432 
L 408.774194 453.058279 
L 421.548387 449.098115 
L 434.322581 461.20076 
L 447.096774 466.922737 
L 459.870968 467.142813 
L 472.645161 466.514024 
L 485.419355 465.209288 
L 498.193548 463.197164 
L 510.967742 463.134285 
L 523.741935 463.99887 
L 536.516129 469.752286 
L 549.290323 470.396794 
L 562.064516 477.156272 
L 574.83871 475.207028 
L 587.612903 475.364225 
L 600.387097 475.757218 
L 613.16129 473.650776 
L 625.935484 476.228809 
L 638.709677 479.687147 
L 651.483871 474.955512 
L 664.258065 475.427104 
L 677.032258 472.141683 
L 689.806452 467.410048 
L 702.580645 467.504367 
L 715.354839 464.360423 
L 728.129032 463.024247 
L 740.903226 461.78239 
L 753.677419 460.571972 
L 766.451613 447.307061 
L 779.225806 449.239528 
" clip-path="url(#p6e03aea291)" style="fill: none; stroke: #000000; stroke-width: 1.5; stroke-linecap: square"/>
   </g>
   <g id="line2d_2">
    <path d="M 0 459 
L 12.774194 459 
L 25.548387 455.38454 
L 38.322581 452.977449 
L 51.096774 453.020558 
L 63.870968 444.647002 
L 76.645161 441.427961 
L 89.419355 433.597917 
L 102.193548 429.097646 
L 114.967742 427.247591 
L 127.741935 422.779196 
L 140.516129 419.165722 
L 153.290323 418.625238 
L 166.064516 428.221372 
L 178.83871 439.09561 
L 191.612903 443.785931 
L 204.387097 444.124558 
L 217.16129 445.545559 
L 229.935484 465.131861 
L 242.709677 467.515216 
L 255.483871 465.11497 
L 268.258065 464.477982 
L 281.032258 463.181013 
L 293.806452 463.764492 
L 306.580645 466.031522 
L 319.354839 466.887229 
L 332.129032 462.713737 
L 344.903226 461.719449 
L 357.677419 459.129518 
L 370.451613 455.520646 
L 383.225806 459.708559 
L 396 461.427001 
L 408.774194 459.76928 
L 421.548387 457.120117 
L 434.322581 453.091562 
L 447.096774 459.116449 
L 459.870968 463.039905 
L 472.645161 465.112072 
L 485.419355 465.822727 
L 498.193548 465.520045 
L 510.967742 464.368499 
L 523.741935 463.763382 
L 536.516129 463.897401 
L 549.290323 466.841611 
L 562.064516 468.626015 
L 574.83871 472.910778 
L 587.612903 474.075948 
L 600.387097 474.739998 
L 613.16129 475.273235 
L 625.935484 474.482626 
L 638.709677 475.379698 
L 651.483871 477.552902 
L 664.258065 476.263146 
L 677.032258 475.841734 
L 689.806452 473.985698 
L 702.580645 470.682277 
L 715.354839 469.07714 
L 728.129032 466.700565 
L 740.903226 464.836515 
L 753.677419 463.274345 
L 766.451613 461.894955 
L 779.225806 457.375143 
" clip-path="url(#p6e03aea291)" style="fill: none; stroke: #000000; stroke-width: 1.5; stroke-linecap: square"/>
   </g>
   <g id="line2d_3">
    <path d="M 0 459 
L 12.774194 459 
L 25.548387 455.823154 
L 38.322581 453.715816 
L 51.096774 453.459029 
L 63.870968 447.529902 
L 76.645161 444.442665 
L 89.419355 438.478446 
L 102.193548 434.149282 
L 114.967742 431.505675 
L 127.741935 427.554157 
L 140.516129 423.997222 
L 153.290323 422.277248 
L 166.064516 426.879342 
L 178.83871 433.677118 
L 191.612903 438.00662 
L 204.387097 439.881576 
L 217.16129 441.917542 
L 229.935484 459.864187 
L 242.709677 462.789558 
L 255.483871 462.75426 
L 268.258065 463.072955 
L 281.032258 462.72919 
L 293.806452 463.211951 
L 306.580645 464.709365 
L 319.354839 465.606075 
L 332.129032 463.571208 
L 344.903226 462.766654 
L 357.677419 460.962631 
L 370.451613 459.68407 
L 383.225806 460.245227 
L 396 461.104846 
L 408.774194 460.244346 
L 421.548387 459.302122 
L 434.322581 456.671589 
L 447.096774 459.085895 
L 459.870968 461.386164 
L 472.645161 463.076093 
L 485.419355 464.088384 
L 498.193548 464.417719 
L 510.967742 464.054431 
L 523.741935 463.77969 
L 536.516129 463.85008 
L 549.290323 465.589124 
L 562.064516 467.013147 
L 574.83871 470.007634 
L 587.612903 471.546156 
L 600.387097 472.678472 
L 613.16129 473.600438 
L 625.935484 473.634284 
L 638.709677 474.417784 
L 651.483871 475.982378 
L 664.258065 475.690842 
L 677.032258 475.62311 
L 689.806452 474.609888 
L 702.580645 472.503631 
L 715.354839 471.044328 
L 728.129032 469.088066 
L 740.903226 467.310895 
L 753.677419 465.682479 
L 766.451613 464.174361 
L 779.225806 461.491653 
" clip-path="url(#p6e03aea291)" style="fill: none; stroke: #000000; stroke-width: 1.5; stroke-linecap: square"/>
   </g>
   <g id="line2d_4">
    <path d="M 0 459 
L 12.774194 459 
L 25.548387 456.054029 
L 38.322581 454.138 
L 51.096774 453.794419 
L 63.870968 449.127042 
L 76.645161 446.463553 
L 89.419355 441.801262 
L 102.193548 438.154667 
L 114.967742 435.608083 
L 127.741935 432.286261 
L 140.516129 429.179079 
L 153.290323 427.183596 
L 166.064516 429.076129 
L 178.83871 432.712165 
L 191.612903 435.40368 
L 204.387097 436.926921 
L 217.16129 438.597626 
L 229.935484 450.289067 
L 242.709677 457.081286 
L 255.483871 459.064431 
L 268.258065 459.837314 
L 281.032258 460.166563 
L 293.806452 460.838809 
L 306.580645 462.035573 
L 319.354839 462.947674 
L 332.129032 462.249343 
L 344.903226 462.010259 
L 357.677419 461.136827 
L 370.451613 460.406891 
L 383.225806 460.594259 
L 396 461.002785 
L 408.774194 460.547298 
L 421.548387 459.984748 
L 434.322581 459.301916 
L 447.096774 459.60703 
L 459.870968 460.777164 
L 472.645161 461.799662 
L 485.419355 462.558728 
L 498.193548 462.991211 
L 510.967742 463.033758 
L 523.741935 463.059305 
L 536.516129 463.220367 
L 549.290323 464.27536 
L 562.064516 465.264917 
L 574.83871 467.172606 
L 587.612903 468.462907 
L 600.387097 469.573348 
L 613.16129 470.57072 
L 625.935484 471.07243 
L 638.709677 471.893201 
L 651.483871 473.139415 
L 664.258065 473.436042 
L 677.032258 473.760085 
L 689.806452 473.509006 
L 702.580645 472.540572 
L 715.354839 471.738833 
L 728.129032 470.562822 
L 740.903226 469.366164 
L 753.677419 468.160196 
L 766.451613 466.955383 
L 779.225806 465.068468 
" clip-path="url(#p6e03aea291)" style="fill: none; stroke: #000000; stroke-width: 1.5; stroke-linecap: square"/>
   </g>
   <g id="line2d_5">
    <path d="M 0 459 
L 12.774194 459 
L 25.548387 456.170985 
L 38.322581 454.358363 
L 51.096774 453.989955 
L 63.870968 449.930206 
L 76.645161 447.550028 
L 89.419355 443.592867 
L 102.193548 440.441153 
L 114.967742 438.152267 
L 127.741935 435.325002 
L 140.516129 432.666888 
L 153.290323 430.808644 
L 166.064516 431.671607 
L 178.83871 433.826683 
L 191.612903 435.48652 
L 204.387097 436.470555 
L 217.16129 437.590856 
L 229.935484 445.074362 
L 242.709677 449.834617 
L 255.483871 451.86118 
L 268.258065 453.992713 
L 281.032258 455.317493 
L 293.806452 457.203036 
L 306.580645 459.334565 
L 319.354839 460.118094 
L 332.129032 459.977949 
L 344.903226 460.049835 
L 357.677419 459.732424 
L 370.451613 459.447633 
L 383.225806 459.638644 
L 396 459.951389 
L 408.774194 459.792014 
L 421.548387 459.547901 
L 434.322581 459.210725 
L 447.096774 459.384253 
L 459.870968 460.038846 
L 472.645161 460.65335 
L 485.419355 461.158536 
L 498.193548 461.506594 
L 510.967742 461.65143 
L 523.741935 461.778132 
L 536.516129 461.967418 
L 549.290323 462.629485 
L 562.064516 463.288707 
L 574.83871 464.463463 
L 587.612903 465.372018 
L 600.387097 466.215706 
L 613.16129 467.020183 
L 625.935484 467.578495 
L 638.709677 468.305995 
L 651.483871 469.262104 
L 664.258065 469.739913 
L 677.032258 470.216758 
L 689.806452 470.378017 
L 702.580645 470.129571 
L 715.354839 469.909974 
L 728.129032 469.44606 
L 740.903226 468.909551 
L 753.677419 468.314441 
L 766.451613 467.668277 
L 779.225806 466.619976 
" clip-path="url(#p6e03aea291)" style="fill: none; stroke: #000000; stroke-width: 1.5; stroke-linecap: square"/>
   </g>
   <g id="line2d_6">
    <path d="M 0 459 
L 12.774194 459 
L 25.548387 456.229655 
L 38.322581 454.47021 
L 51.096774 454.09396 
L 63.870968 450.327472 
L 76.645161 448.100376 
L 89.419355 444.49679 
L 102.193548 441.617098 
L 114.967742 439.501301 
L 127.741935 436.957186 
L 140.516129 434.572792 
L 153.290323 432.859048 
L 166.064516 433.349264 
L 178.83871 434.894492 
L 191.612903 436.090585 
L 204.387097 436.793443 
L 217.16129 437.613497 
L 229.935484 443.186429 
L 242.709677 446.827447 
L 255.483871 448.517474 
L 268.258065 450.281609 
L 281.032258 451.475097 
L 293.806452 453.051904 
L 306.580645 455.2604 
L 319.354839 457.171645 
L 332.129032 457.212385 
L 344.903226 457.647051 
L 357.677419 457.287662 
L 370.451613 456.958704 
L 383.225806 457.528479 
L 396 458.327233 
L 408.774194 458.221307 
L 421.548387 457.933497 
L 434.322581 457.447407 
L 447.096774 457.890394 
L 459.870968 459.075294 
L 472.645161 459.503541 
L 485.419355 459.871743 
L 498.193548 460.14927 
L 510.967742 460.306239 
L 523.741935 460.450572 
L 536.516129 460.630113 
L 549.290323 461.087931 
L 562.064516 461.551507 
L 574.83871 462.322906 
L 587.612903 462.955363 
L 600.387097 463.560441 
L 613.16129 464.151416 
L 625.935484 464.608922 
L 638.709677 465.165347 
L 651.483871 465.856937 
L 664.258065 466.287996 
L 677.032258 466.71883 
L 689.806452 466.973266 
L 702.580645 466.993667 
L 715.354839 467.017418 
L 728.129032 466.894354 
L 740.903226 466.715802 
L 753.677419 466.489042 
L 766.451613 466.218034 
L 779.225806 465.710615 
" clip-path="url(#p6e03aea291)" style="fill: none; stroke: #000000; stroke-width: 1.5; stroke-linecap: square"/>
   </g>
   <g id="line2d_7">
    <path d="M 0 459 
L 12.774194 459 
L 25.548387 456.259014 
L 38.322581 454.526461 
L 51.096774 454.147395 
L 63.870968 450.524332 
L 76.645161 448.375644 
L 89.419355 444.947206 
L 102.193548 442.207032 
L 114.967742 440.186152 
L 127.741935 437.789226 
L 140.516129 435.549999 
L 153.290323 433.924108 
L 166.064516 434.265924 
L 178.83871 435.548734 
L 191.612903 436.539662 
L 204.387097 437.113278 
L 217.16129 437.792324 
L 229.935484 442.504126 
L 242.709677 445.606665 
L 255.483871 447.08888 
L 268.258065 448.629795 
L 281.032258 449.700778 
L 293.806452 451.078681 
L 306.580645 452.962675 
L 319.354839 454.608317 
L 332.129032 454.768181 
L 344.903226 455.228528 
L 357.677419 455.061822 
L 370.451613 454.909117 
L 383.225806 455.439331 
L 396 456.140813 
L 408.774194 456.15421 
L 421.548387 456.024308 
L 434.322581 455.739504 
L 447.096774 456.137147 
L 459.870968 457.190955 
L 472.645161 458.210703 
L 485.419355 459.033989 
L 498.193548 459.265996 
L 510.967742 459.411344 
L 523.741935 459.546886 
L 536.516129 459.706579 
L 549.290323 460.061789 
L 562.064516 460.422207 
L 574.83871 460.99804 
L 587.612903 461.480717 
L 600.387097 461.946495 
L 613.16129 462.404283 
L 625.935484 462.772755 
L 638.709677 463.208679 
L 651.483871 463.736725 
L 664.258065 464.09245 
L 677.032258 464.448192 
L 689.806452 464.687274 
L 702.580645 464.771078 
L 715.354839 464.854426 
L 728.129032 464.839498 
L 740.903226 464.785119 
L 753.677419 464.695929 
L 766.451613 464.57444 
L 779.225806 464.297597 
" clip-path="url(#p6e03aea291)" style="fill: none; stroke: #000000; stroke-width: 1.5; stroke-linecap: square"/>
   </g>
   <g id="line2d_8">
    <path d="M 0 459 
L 12.774194 459 
L 25.548387 456.273697 
L 38.322581 454.554657 
L 51.096774 454.174453 
L 63.870968 450.622234 
L 76.645161 448.513087 
L 89.419355 445.171571 
L 102.193548 442.501672 
L 114.967742 440.529927 
L 127.741935 438.207469 
L 140.516129 436.042232 
L 153.290323 434.463468 
L 166.064516 434.740362 
L 178.83871 435.903172 
L 191.612903 436.799366 
L 204.387097 437.31265 
L 217.16129 437.925218 
L 229.935484 442.234861 
L 242.709677 445.079561 
L 255.483871 446.453747 
L 268.258065 447.878953 
L 281.032258 448.879667 
L 293.806452 450.152319 
L 306.580645 451.873207 
L 319.354839 453.380913 
L 332.129032 453.575784 
L 344.903226 454.030586 
L 357.677419 453.934235 
L 370.451613 453.846463 
L 383.225806 454.34685 
L 396 454.992799 
L 408.774194 455.046516 
L 421.548387 454.975244 
L 434.322581 454.769694 
L 447.096774 455.139523 
L 459.870968 456.061251 
L 472.645161 456.954106 
L 485.419355 457.739146 
L 498.193548 458.360998 
L 510.967742 458.766364 
L 523.741935 459.048663 
L 536.516129 459.194565 
L 549.290323 459.50003 
L 562.064516 459.809681 
L 574.83871 460.294069 
L 587.612903 460.703478 
L 600.387097 461.099358 
L 613.16129 461.488839 
L 625.935484 461.806974 
L 638.709677 462.178507 
L 651.483871 462.6229 
L 664.258065 462.931411 
L 677.032258 463.239612 
L 689.806452 463.456169 
L 702.580645 463.551067 
L 715.354839 463.644713 
L 728.129032 463.66145 
L 740.903226 463.646734 
L 753.677419 463.604202 
L 766.451613 463.53585 
L 779.225806 463.347935 
" clip-path="url(#p6e03aea291)" style="fill: none; stroke: #000000; stroke-width: 1.5; stroke-linecap: square"/>
   </g>
   <g id="line2d_9">
    <path d="M 0 459 
L 12.774194 459 
L 25.548387 456.281039 
L 38.322581 454.568771 
L 51.096774 454.188065 
L 63.870968 450.671042 
L 76.645161 448.581734 
L 89.419355 445.283487 
L 102.193548 442.648807 
L 114.967742 440.701993 
L 127.741935 438.416917 
L 140.516129 436.288936 
L 153.290323 434.734434 
L 166.064516 434.981129 
L 178.83871 436.086764 
L 191.612903 436.937651 
L 204.387097 437.421981 
L 217.16129 438.002494 
L 229.935484 442.118631 
L 242.709677 444.83794 
L 255.483871 446.157798 
L 268.258065 447.524876 
L 281.032258 448.488942 
L 293.806452 449.708294 
L 306.580645 451.348307 
L 319.354839 452.786727 
L 332.129032 452.993722 
L 344.903226 453.441836 
L 357.677419 453.374623 
L 370.451613 453.313806 
L 383.225806 453.797102 
L 396 454.41395 
L 408.774194 454.483175 
L 421.548387 454.43615 
L 434.322581 454.26469 
L 447.096774 454.619297 
L 459.870968 455.477517 
L 472.645161 456.308863 
L 485.419355 457.041554 
L 498.193548 457.625519 
L 510.967742 458.012794 
L 523.741935 458.375991 
L 536.516129 458.790683 
L 549.290323 459.211579 
L 562.064516 459.496503 
L 574.83871 459.937503 
L 587.612903 460.311494 
L 600.387097 460.673268 
L 613.16129 461.029162 
L 625.935484 461.321637 
L 638.709677 461.661042 
L 651.483871 462.064454 
L 664.258065 462.34813 
L 677.032258 462.63124 
L 689.806452 462.833814 
L 702.580645 462.929763 
L 715.354839 463.024208 
L 728.129032 463.05138 
L 740.903226 463.050836 
L 753.677419 463.025788 
L 766.451613 462.978018 
L 779.225806 462.826806 
" clip-path="url(#p6e03aea291)" style="fill: none; stroke: #000000; stroke-width: 1.5; stroke-linecap: square"/>
   </g>
  </g>
 </g>
 <defs>
  <clipPath id="p6e03aea291">
   <rect x="0" y="0" width="792" height="612"/>
  </clipPath>
 </defs>
</svg>
