<?xml version="1.0" encoding="utf-8" standalone="no"?>
<!DOCTYPE svg PUBLIC "-//W3C//DTD SVG 1.1//EN"
  "http://www.w3.org/Graphics/SVG/1.1/DTD/svg11.dtd">
<svg xmlns:xlink="http://www.w3.org/1999/xlink" width="792pt" height="612pt" viewBox="0 0 792 612" xmlns="http://www.w3.org/2000/svg" version="1.1">
 <metadata>
  <rdf:RDF xmlns:dc="http://purl.org/dc/elements/1.1/" xmlns:cc="http://creativecommons.org/ns#" xmlns:rdf="http://www.w3.org/1999/02/22-rdf-syntax-ns#">
   <cc:Work>
    <dc:type rdf:resource="http://purl.org/dc/dcmitype/StillImage"/>
    <dc:date>2022-12-26T20:26:03.580718</dc:date>
    <dc:format>image/svg+xml</dc:format>
    <dc:creator>
     <cc:Agent>
      <dc:title>Matplotlib v3.6.2, https://matplotlib.org/</dc:title>
     </cc:Agent>
    </dc:creator>
   </cc:Work>
  </rdf:RDF>
 </metadata>
 <defs>
  <style type="text/css">*{stroke-linejoin: round; stroke-linecap: butt}</style>
 </defs>
 <g id="figure_1">
  <g id="patch_1">
   <path d="M 0 612 
L 792 612 
L 792 0 
L 0 0 
z
" style="fill: #ffffff"/>
  </g>
  <g id="axes_1">
   <g id="line2d_1">
    <path d="M 0 306 
L 39.6 309.18648 
L 79.2 294.504702 
L 118.8 306 
L 158.4 305.044025 
L 198 311.764158 
L 237.6 312.661827 
L 277.2 307.839512 
L 316.8 304.13152 
L 356.4 306.57938 
L 396 297.470827 
L 435.6 308.245061 
L 475.2 305.594434 
L 514.8 313.834414 
L 554.4 307.47741 
L 594 308.9982 
L 633.6 305.217838 
L 673.2 303.899777 
L 712.8 308.534733 
L 752.4 304.884697 
" clip-path="url(#p710ffda677)" style="fill: none; stroke: #000000; stroke-width: 1.5; stroke-linecap: square"/>
   </g>
   <g id="line2d_2">
    <path d="M 0 306 
L 39.6 306 
L 79.2 308.124362 
L 118.8 300.339267 
L 158.4 303.358089 
L 198 304.228236 
L 237.6 308.056311 
L 277.2 310.377448 
L 316.8 309.103557 
L 356.4 306.613916 
L 396 306.591536 
L 435.6 302.036121 
L 475.2 305.144904 
L 514.8 305.370748 
L 554.4 309.607331 
L 594 308.532234 
L 633.6 308.767491 
L 673.2 306.994828 
L 712.8 305.442034 
L 752.4 307.010107 
" clip-path="url(#p710ffda677)" style="fill: none; stroke: #000000; stroke-width: 1.5; stroke-linecap: square"/>
   </g>
   <g id="line2d_3">
    <path d="M 0 306 
L 39.6 306 
L 79.2 307.866641 
L 118.8 301.810411 
L 158.4 303.446447 
L 198 304.014835 
L 237.6 306.609014 
L 277.2 308.554012 
L 316.8 308.330791 
L 356.4 307.044004 
L 396 306.903529 
L 435.6 304.077691 
L 475.2 305.317655 
L 514.8 305.399627 
L 554.4 307.890053 
L 594 307.768522 
L 633.6 308.130106 
L 673.2 307.27624 
L 712.8 306.28122 
L 752.4 306.957394 
" clip-path="url(#p710ffda677)" style="fill: none; stroke: #000000; stroke-width: 1.5; stroke-linecap: square"/>
   </g>
   <g id="line2d_4">
    <path d="M 0 306 
L 39.6 306 
L 79.2 307.730983 
L 118.8 302.538176 
L 158.4 303.6397 
L 198 304.02522 
L 237.6 305.930076 
L 277.2 307.454494 
L 316.8 307.536171 
L 356.4 306.850294 
L 396 306.797935 
L 435.6 305.054438 
L 475.2 305.634603 
L 514.8 305.627461 
L 554.4 307.060115 
L 594 307.131839 
L 633.6 307.44859 
L 673.2 307.073986 
L 712.8 306.545604 
L 752.4 306.874304 
" clip-path="url(#p710ffda677)" style="fill: none; stroke: #000000; stroke-width: 1.5; stroke-linecap: square"/>
   </g>
   <g id="line2d_5">
    <path d="M 0 306 
L 39.6 306 
L 79.2 307.662262 
L 118.8 302.889556 
L 158.4 303.770913 
L 198 304.071445 
L 237.6 305.646477 
L 277.2 306.927042 
L 316.8 307.078506 
L 356.4 306.626818 
L 396 306.620024 
L 435.6 305.383907 
L 475.2 305.751249 
L 514.8 305.73199 
L 554.4 306.689172 
L 594 306.779113 
L 633.6 307.024688 
L 673.2 306.830124 
L 712.8 306.522178 
L 752.4 306.729107 
" clip-path="url(#p710ffda677)" style="fill: none; stroke: #000000; stroke-width: 1.5; stroke-linecap: square"/>
   </g>
   <g id="line2d_6">
    <path d="M 0 306 
L 39.6 306 
L 79.2 307.627789 
L 118.8 303.060831 
L 158.4 303.844008 
L 198 304.105239 
L 237.6 305.523959 
L 277.2 306.680999 
L 316.8 306.848697 
L 356.4 306.4919 
L 396 306.502449 
L 435.6 305.492073 
L 475.2 305.779987 
L 514.8 305.761717 
L 554.4 306.514507 
L 594 306.599938 
L 633.6 306.803302 
L 673.2 306.674333 
L 712.8 306.457097 
L 752.4 306.614132 
" clip-path="url(#p710ffda677)" style="fill: none; stroke: #000000; stroke-width: 1.5; stroke-linecap: square"/>
   </g>
   <g id="line2d_7">
    <path d="M 0 306 
L 39.6 306 
L 79.2 307.610538 
L 118.8 303.145213 
L 158.4 303.882236 
L 198 304.124763 
L 237.6 305.468027 
L 277.2 306.563843 
L 316.8 306.735651 
L 356.4 306.420606 
L 396 306.438075 
L 435.6 305.531527 
L 475.2 305.785558 
L 514.8 305.76887 
L 554.4 306.4297 
L 594 306.510629 
L 633.6 306.692625 
L 673.2 306.590038 
L 712.8 306.411492 
L 752.4 306.546348 
" clip-path="url(#p710ffda677)" style="fill: none; stroke: #000000; stroke-width: 1.5; stroke-linecap: square"/>
   </g>
   <g id="line2d_8">
    <path d="M 0 306 
L 39.6 306 
L 79.2 307.601911 
L 118.8 303.187073 
L 158.4 303.901744 
L 198 304.135171 
L 237.6 305.441441 
L 277.2 306.506894 
L 316.8 306.679856 
L 356.4 306.384285 
L 396 306.404759 
L 435.6 305.547681 
L 475.2 305.786096 
L 514.8 305.770375 
L 554.4 306.387931 
L 594 306.466198 
L 633.6 306.637632 
L 673.2 306.546684 
L 712.8 306.385706 
L 752.4 306.510177 
" clip-path="url(#p710ffda677)" style="fill: none; stroke: #000000; stroke-width: 1.5; stroke-linecap: square"/>
   </g>
   <g id="line2d_9">
    <path d="M 0 306 
L 39.6 306 
L 79.2 307.597597 
L 118.8 303.207917 
L 158.4 303.911592 
L 198 304.140535 
L 237.6 305.428499 
L 277.2 306.478846 
L 316.8 306.652172 
L 356.4 306.365993 
L 396 306.387856 
L 435.6 305.554884 
L 475.2 305.785806 
L 514.8 305.770602 
L 554.4 306.367208 
L 594 306.44406 
L 633.6 306.610265 
L 673.2 306.524761 
L 712.8 306.372118 
L 752.4 306.491575 
" clip-path="url(#p710ffda677)" style="fill: none; stroke: #000000; stroke-width: 1.5; stroke-linecap: square"/>
   </g>
  </g>
 </g>
 <defs>
  <clipPath id="p710ffda677">
   <rect x="0" y="0" width="792" height="612"/>
  </clipPath>
 </defs>
</svg>
