<?xml version="1.0" encoding="utf-8" standalone="no"?>
<!DOCTYPE svg PUBLIC "-//W3C//DTD SVG 1.1//EN"
  "http://www.w3.org/Graphics/SVG/1.1/DTD/svg11.dtd">
<svg xmlns:xlink="http://www.w3.org/1999/xlink" width="792pt" height="612pt" viewBox="0 0 792 612" xmlns="http://www.w3.org/2000/svg" version="1.1">
 <metadata>
  <rdf:RDF xmlns:dc="http://purl.org/dc/elements/1.1/" xmlns:cc="http://creativecommons.org/ns#" xmlns:rdf="http://www.w3.org/1999/02/22-rdf-syntax-ns#">
   <cc:Work>
    <dc:type rdf:resource="http://purl.org/dc/dcmitype/StillImage"/>
    <dc:date>2022-12-19T20:27:18.841893</dc:date>
    <dc:format>image/svg+xml</dc:format>
    <dc:creator>
     <cc:Agent>
      <dc:title>Matplotlib v3.6.2, https://matplotlib.org/</dc:title>
     </cc:Agent>
    </dc:creator>
   </cc:Work>
  </rdf:RDF>
 </metadata>
 <defs>
  <style type="text/css">*{stroke-linejoin: round; stroke-linecap: butt}</style>
 </defs>
 <g id="figure_1">
  <g id="patch_1">
   <path d="M 0 612 
L 792 612 
L 792 0 
L 0 0 
z
" style="fill: #ffffff"/>
  </g>
  <g id="axes_1">
   <g id="line2d_1">
    <path d="M 0 459 
L 41.684211 452.055398 
L 83.368421 451.722644 
L 125.052632 449.837193 
L 166.736842 450.258623 
L 208.421053 459.399401 
L 250.105263 451.301167 
L 291.789474 448.195992 
L 333.473684 443.628828 
L 375.157895 449.238347 
L 416.842105 454.118622 
L 458.526316 436.518439 
L 500.210526 436.518439 
L 541.894737 435.057716 
L 583.578947 443.872637 
L 625.263158 454.074249 
L 666.947368 456.892067 
L 708.631579 454.029876 
L 750.315789 454.917346 
" clip-path="url(#pcce2966f60)" style="fill: none; stroke: #000000; stroke-width: 1.5; stroke-linecap: square"/>
   </g>
   <g id="line2d_2">
    <path d="M 0 459 
L 41.684211 459 
L 83.368421 454.370069 
L 125.052632 452.857206 
L 166.736842 451.24645 
L 208.421053 450.736594 
L 250.105263 455.542116 
L 291.789474 453.404826 
L 333.473684 450.789931 
L 375.157895 447.178531 
L 416.842105 448.202862 
L 458.526316 451.165114 
L 500.210526 443.811793 
L 541.894737 440.136995 
L 583.578947 437.547469 
L 625.263158 440.694631 
L 666.947368 447.393493 
L 708.631579 452.168058 
L 750.315789 453.108339 
" clip-path="url(#pcce2966f60)" style="fill: none; stroke: #000000; stroke-width: 1.5; stroke-linecap: square"/>
   </g>
   <g id="line2d_3">
    <path d="M 0 459 
L 41.684211 459 
L 83.368421 454.931742 
L 125.052632 453.47769 
L 166.736842 452.05588 
L 208.421053 451.416409 
L 250.105263 454.355683 
L 291.789474 453.374235 
L 333.473684 451.756235 
L 375.157895 449.264987 
L 416.842105 449.256933 
L 458.526316 450.712885 
L 500.210526 446.486548 
L 541.894737 443.532683 
L 583.578947 441.029518 
L 625.263158 441.86674 
L 666.947368 445.454515 
L 708.631579 448.800968 
L 750.315789 450.334533 
" clip-path="url(#pcce2966f60)" style="fill: none; stroke: #000000; stroke-width: 1.5; stroke-linecap: square"/>
   </g>
   <g id="line2d_4">
    <path d="M 0 459 
L 41.684211 459 
L 83.368421 455.227395 
L 125.052632 453.851831 
L 166.736842 452.574229 
L 208.421053 451.938491 
L 250.105263 453.971154 
L 291.789474 453.366585 
L 333.473684 452.269541 
L 375.157895 450.528253 
L 416.842105 450.278943 
L 458.526316 450.996441 
L 500.210526 448.361835 
L 541.894737 446.254688 
L 583.578947 444.299009 
L 625.263158 444.225723 
L 666.947368 445.896412 
L 708.631579 447.742197 
L 750.315789 448.788615 
" clip-path="url(#pcce2966f60)" style="fill: none; stroke: #000000; stroke-width: 1.5; stroke-linecap: square"/>
   </g>
   <g id="line2d_5">
    <path d="M 0 459 
L 41.684211 459 
L 83.368421 455.377166 
L 125.052632 454.051978 
L 166.736842 452.857536 
L 208.421053 452.243981 
L 250.105263 453.872257 
L 291.789474 453.402977 
L 333.473684 452.538524 
L 375.157895 451.172442 
L 416.842105 450.895447 
L 458.526316 451.330775 
L 500.210526 449.427504 
L 541.894737 447.840871 
L 583.578947 446.329759 
L 625.263158 446.049353 
L 666.947368 446.937098 
L 708.631579 448.008692 
L 750.315789 448.641304 
" clip-path="url(#pcce2966f60)" style="fill: none; stroke: #000000; stroke-width: 1.5; stroke-linecap: square"/>
   </g>
   <g id="line2d_6">
    <path d="M 0 459 
L 41.684211 459 
L 83.368421 455.452298 
L 125.052632 454.154771 
L 166.736842 453.004141 
L 208.421053 452.406418 
L 250.105263 453.849488 
L 291.789474 453.436443 
L 333.473684 452.677758 
L 375.157895 451.489101 
L 416.842105 451.217663 
L 458.526316 451.542091 
L 500.210526 449.969599 
L 541.894737 448.644154 
L 583.578947 447.376333 
L 625.263158 447.065419 
L 666.947368 447.659552 
L 708.631579 448.410325 
L 750.315789 448.850217 
" clip-path="url(#pcce2966f60)" style="fill: none; stroke: #000000; stroke-width: 1.5; stroke-linecap: square"/>
   </g>
   <g id="line2d_7">
    <path d="M 0 459 
L 41.684211 459 
L 83.368421 455.489895 
L 125.052632 454.206769 
L 166.736842 453.078515 
L 208.421053 452.489799 
L 250.105263 453.844952 
L 291.789474 453.457494 
L 333.473684 452.748764 
L 375.157895 451.645045 
L 416.842105 451.380225 
L 458.526316 451.656975 
L 500.210526 450.238594 
L 541.894737 449.039679 
L 583.578947 447.893295 
L 625.263158 447.582659 
L 666.947368 448.057458 
L 708.631579 448.671815 
L 750.315789 449.027341 
" clip-path="url(#pcce2966f60)" style="fill: none; stroke: #000000; stroke-width: 1.5; stroke-linecap: square"/>
   </g>
   <g id="line2d_8">
    <path d="M 0 459 
L 41.684211 459 
L 83.368421 455.508697 
L 125.052632 454.232908 
L 166.736842 453.115948 
L 208.421053 452.531993 
L 250.105263 453.8444 
L 291.789474 453.469147 
L 333.473684 452.784636 
L 375.157895 451.722306 
L 416.842105 451.461608 
L 458.526316 451.716427 
L 500.210526 450.372 
L 541.894737 449.23479 
L 583.578947 448.148316 
L 625.263158 447.841085 
L 666.947368 448.262992 
L 708.631579 448.815585 
L 750.315789 449.132639 
" clip-path="url(#pcce2966f60)" style="fill: none; stroke: #000000; stroke-width: 1.5; stroke-linecap: square"/>
   </g>
   <g id="line2d_9">
    <path d="M 0 459 
L 41.684211 459 
L 83.368421 455.518098 
L 125.052632 454.246011 
L 166.736842 453.134723 
L 208.421053 452.553212 
L 250.105263 453.844553 
L 291.789474 453.475259 
L 333.473684 452.802666 
L 375.157895 451.760746 
L 416.842105 451.502292 
L 458.526316 451.746614 
L 500.210526 450.43836 
L 541.894737 449.331547 
L 583.578947 448.274732 
L 625.263158 447.969932 
L 666.947368 448.367047 
L 708.631579 448.890385 
L 750.315789 449.189187 
" clip-path="url(#pcce2966f60)" style="fill: none; stroke: #000000; stroke-width: 1.5; stroke-linecap: square"/>
   </g>
  </g>
 </g>
 <defs>
  <clipPath id="pcce2966f60">
   <rect x="0" y="0" width="792" height="612"/>
  </clipPath>
 </defs>
</svg>
