<?xml version="1.0" encoding="utf-8" standalone="no"?>
<!DOCTYPE svg PUBLIC "-//W3C//DTD SVG 1.1//EN"
  "http://www.w3.org/Graphics/SVG/1.1/DTD/svg11.dtd">
<svg xmlns:xlink="http://www.w3.org/1999/xlink" width="792pt" height="612pt" viewBox="0 0 792 612" xmlns="http://www.w3.org/2000/svg" version="1.1">
 <metadata>
  <rdf:RDF xmlns:dc="http://purl.org/dc/elements/1.1/" xmlns:cc="http://creativecommons.org/ns#" xmlns:rdf="http://www.w3.org/1999/02/22-rdf-syntax-ns#">
   <cc:Work>
    <dc:type rdf:resource="http://purl.org/dc/dcmitype/StillImage"/>
    <dc:date>2023-01-02T15:38:11.665254</dc:date>
    <dc:format>image/svg+xml</dc:format>
    <dc:creator>
     <cc:Agent>
      <dc:title>Matplotlib v3.6.2, https://matplotlib.org/</dc:title>
     </cc:Agent>
    </dc:creator>
   </cc:Work>
  </rdf:RDF>
 </metadata>
 <defs>
  <style type="text/css">*{stroke-linejoin: round; stroke-linecap: butt}</style>
 </defs>
 <g id="figure_1">
  <g id="patch_1">
   <path d="M 0 612 
L 792 612 
L 792 0 
L 0 0 
z
" style="fill: #ffffff"/>
  </g>
  <g id="axes_1">
   <g id="line2d_1">
    <path d="M 0 459 
L 41.684211 462.29371 
L 83.368421 463.203061 
L 125.052632 462.27939 
L 166.736842 462.565799 
L 208.421053 457.045266 
L 250.105263 459.458255 
L 291.789474 459.257769 
L 333.473684 463.131458 
L 375.157895 463.861803 
L 416.842105 465.343972 
L 458.526316 464.957319 
L 500.210526 463.919085 
L 541.894737 465.172127 
L 583.578947 464.620788 
L 625.263158 464.291417 
L 666.947368 465.222248 
L 708.631579 463.024055 
L 750.315789 463.238862 
" clip-path="url(#p6ae2c2c026)" style="fill: none; stroke: #000000; stroke-width: 1.5; stroke-linecap: square"/>
   </g>
   <g id="line2d_2">
    <path d="M 0 459 
L 41.684211 459 
L 83.368421 461.195807 
L 125.052632 462.342809 
L 166.736842 462.308985 
L 208.421053 462.441535 
L 250.105263 460.362491 
L 291.789474 459.906813 
L 333.473684 459.581018 
L 375.157895 461.364339 
L 416.842105 462.616146 
L 458.526316 463.984257 
L 500.210526 464.476039 
L 541.894737 464.200215 
L 583.578947 464.699551 
L 625.263158 464.670292 
L 666.947368 464.490724 
L 708.631579 464.860586 
L 750.315789 463.940678 
" clip-path="url(#p6ae2c2c026)" style="fill: none; stroke: #000000; stroke-width: 1.5; stroke-linecap: square"/>
   </g>
   <g id="line2d_3">
    <path d="M 0 459 
L 41.684211 459 
L 83.368421 460.929411 
L 125.052632 461.95956 
L 166.736842 462.084461 
L 208.421053 462.255716 
L 250.105263 460.947806 
L 291.789474 460.469226 
L 333.473684 460.090743 
L 375.157895 461.022527 
L 416.842105 461.880958 
L 458.526316 462.918171 
L 500.210526 463.524904 
L 541.894737 463.641646 
L 583.578947 464.093443 
L 625.263158 464.248757 
L 666.947368 464.261301 
L 708.631579 464.549903 
L 750.315789 464.103831 
" clip-path="url(#p6ae2c2c026)" style="fill: none; stroke: #000000; stroke-width: 1.5; stroke-linecap: square"/>
   </g>
   <g id="line2d_4">
    <path d="M 0 459 
L 41.684211 459 
L 83.368421 460.789188 
L 125.052632 461.736547 
L 166.736842 461.909283 
L 208.421053 462.089516 
L 250.105263 461.168756 
L 291.789474 460.781468 
L 333.473684 460.458233 
L 375.157895 460.996765 
L 416.842105 461.550488 
L 458.526316 462.25943 
L 500.210526 462.749994 
L 541.894737 462.957849 
L 583.578947 463.344307 
L 625.263158 463.563706 
L 666.947368 463.687207 
L 708.631579 463.944985 
L 750.315789 463.791687 
" clip-path="url(#p6ae2c2c026)" style="fill: none; stroke: #000000; stroke-width: 1.5; stroke-linecap: square"/>
   </g>
   <g id="line2d_5">
    <path d="M 0 459 
L 41.684211 459 
L 83.368421 460.718155 
L 125.052632 461.619169 
L 166.736842 461.806253 
L 208.421053 461.985555 
L 250.105263 461.240932 
L 291.789474 460.915575 
L 333.473684 460.640392 
L 375.157895 461.022201 
L 416.842105 461.428852 
L 458.526316 461.957684 
L 500.210526 462.342801 
L 541.894737 462.536389 
L 583.578947 462.847697 
L 625.263158 463.050013 
L 666.947368 463.187389 
L 708.631579 463.406507 
L 750.315789 463.366316 
" clip-path="url(#p6ae2c2c026)" style="fill: none; stroke: #000000; stroke-width: 1.5; stroke-linecap: square"/>
   </g>
   <g id="line2d_6">
    <path d="M 0 459 
L 41.684211 459 
L 83.368421 460.682522 
L 125.052632 461.559351 
L 166.736842 461.751221 
L 208.421053 461.928549 
L 250.105263 461.265424 
L 291.789474 460.972527 
L 333.473684 460.724313 
L 375.157895 461.040398 
L 416.842105 461.380628 
L 458.526316 461.823904 
L 500.210526 462.151599 
L 541.894737 462.325623 
L 583.578947 462.591007 
L 625.263158 462.771092 
L 666.947368 462.900006 
L 708.631579 463.088908 
L 750.315789 463.08383 
" clip-path="url(#p6ae2c2c026)" style="fill: none; stroke: #000000; stroke-width: 1.5; stroke-linecap: square"/>
   </g>
   <g id="line2d_7">
    <path d="M 0 459 
L 41.684211 459 
L 83.368421 460.664691 
L 125.052632 461.529206 
L 166.736842 461.722889 
L 208.421053 461.898852 
L 250.105263 461.274613 
L 291.789474 460.997972 
L 333.473684 460.763602 
L 375.157895 461.050061 
L 416.842105 461.359424 
L 458.526316 461.762145 
L 500.210526 462.06126 
L 541.894737 462.223471 
L 583.578947 462.465011 
L 625.263158 462.631529 
L 666.947368 462.752966 
L 708.631579 462.924732 
L 750.315789 462.931323 
" clip-path="url(#p6ae2c2c026)" style="fill: none; stroke: #000000; stroke-width: 1.5; stroke-linecap: square"/>
   </g>
   <g id="line2d_8">
    <path d="M 0 459 
L 41.684211 459 
L 83.368421 460.655773 
L 125.052632 461.514081 
L 166.736842 461.708528 
L 208.421053 461.883716 
L 250.105263 461.278432 
L 291.789474 461.009882 
L 333.473684 460.782477 
L 375.157895 461.054923 
L 416.842105 461.349487 
L 458.526316 461.732604 
L 500.210526 462.017625 
L 541.894737 462.173583 
L 583.578947 462.403168 
L 625.263158 462.562479 
L 666.947368 462.679535 
L 708.631579 462.842414 
L 750.315789 462.853461 
" clip-path="url(#p6ae2c2c026)" style="fill: none; stroke: #000000; stroke-width: 1.5; stroke-linecap: square"/>
   </g>
   <g id="line2d_9">
    <path d="M 0 459 
L 41.684211 459 
L 83.368421 460.651314 
L 125.052632 461.506507 
L 166.736842 461.7013 
L 208.421053 461.876077 
L 250.105263 461.280146 
L 291.789474 461.015628 
L 333.473684 460.791709 
L 375.157895 461.057348 
L 416.842105 461.344676 
L 458.526316 461.718173 
L 500.210526 461.996213 
L 541.894737 462.14898 
L 583.578947 462.372602 
L 625.263158 462.528229 
L 666.947368 462.64296 
L 708.631579 462.801345 
L 750.315789 462.814295 
" clip-path="url(#p6ae2c2c026)" style="fill: none; stroke: #000000; stroke-width: 1.5; stroke-linecap: square"/>
   </g>
  </g>
 </g>
 <defs>
  <clipPath id="p6ae2c2c026">
   <rect x="0" y="0" width="792" height="612"/>
  </clipPath>
 </defs>
</svg>
