<?xml version="1.0" encoding="utf-8" standalone="no"?>
<!DOCTYPE svg PUBLIC "-//W3C//DTD SVG 1.1//EN"
  "http://www.w3.org/Graphics/SVG/1.1/DTD/svg11.dtd">
<svg xmlns:xlink="http://www.w3.org/1999/xlink" width="792pt" height="612pt" viewBox="0 0 792 612" xmlns="http://www.w3.org/2000/svg" version="1.1">
 <metadata>
  <rdf:RDF xmlns:dc="http://purl.org/dc/elements/1.1/" xmlns:cc="http://creativecommons.org/ns#" xmlns:rdf="http://www.w3.org/1999/02/22-rdf-syntax-ns#">
   <cc:Work>
    <dc:type rdf:resource="http://purl.org/dc/dcmitype/StillImage"/>
    <dc:date>2023-01-30T17:17:54.759466</dc:date>
    <dc:format>image/svg+xml</dc:format>
    <dc:creator>
     <cc:Agent>
      <dc:title>Matplotlib v3.6.2, https://matplotlib.org/</dc:title>
     </cc:Agent>
    </dc:creator>
   </cc:Work>
  </rdf:RDF>
 </metadata>
 <defs>
  <style type="text/css">*{stroke-linejoin: round; stroke-linecap: butt}</style>
 </defs>
 <g id="figure_1">
  <g id="patch_1">
   <path d="M 0 612 
L 792 612 
L 792 0 
L 0 0 
z
" style="fill: #ffffff"/>
  </g>
  <g id="axes_1">
   <g id="line2d_1">
    <path d="M 0 306 
L 3.168 305.772603 
L 6.336 300.133887 
L 9.504 305.575527 
L 12.672 273.004675 
L 15.84 308.774162 
L 19.008 296.619042 
L 22.176 301.361465 
L 25.344 311.881267 
L 28.512 310.774941 
L 34.848 304.817544 
L 38.016 301.558499 
L 41.184 314.002535 
L 44.352 307.36437 
L 47.52 305.014618 
L 50.688 302.240566 
L 53.856 304.484035 
L 57.024 312.381339 
L 60.192 308.910588 
L 63.36 308.076857 
L 66.528 314.138878 
L 69.696 303.953461 
L 72.864 303.01362 
L 76.032 310.774941 
L 79.2 316.834706 
L 82.368 306.742827 
L 85.536 307.894947 
L 88.704 316.516738 
L 91.872 320.527293 
L 95.04 304.468876 
L 98.208 293.802849 
L 101.376 308.713528 
L 104.544 307.910106 
L 107.712 300.512751 
L 110.88 297.194604 
L 114.048 297.315783 
L 117.216 303.604805 
L 120.384 297.421817 
L 123.552 309.137963 
L 126.72 303.832189 
L 129.888 311.744879 
L 133.056 302.013206 
L 136.224 304.302123 
L 139.392 302.452772 
L 142.56 294.86249 
L 145.728 312.320726 
L 148.896 309.304702 
L 152.064 299.042864 
L 155.232 303.907984 
L 158.4 308.501307 
L 161.568 316.728719 
L 164.736 310.335405 
L 167.904 304.741746 
L 171.072 309.380492 
L 174.24 311.078057 
L 177.408 303.165204 
L 180.576 306.727668 
L 183.744 305.423929 
L 186.912 302.164778 
L 190.08 302.831721 
L 193.248 308.03138 
L 196.416 318.545256 
L 199.584 303.301631 
L 202.752 319.407808 
L 205.92 286.304403 
L 209.088 296.073833 
L 212.256 317.410016 
L 215.424 308.425513 
L 218.592 310.502127 
L 221.76 296.967401 
L 224.928 320.058365 
L 228.096 309.668489 
L 231.264 320.875162 
L 234.432 305.120736 
L 237.6 301.240215 
L 240.768 310.168679 
L 243.936 298.027764 
L 247.104 308.152652 
L 250.272 296.619042 
L 253.44 312.078269 
L 256.608 309.971637 
L 259.776 303.483535 
L 262.944 293.076407 
L 266.112 313.472282 
L 269.28 304.16569 
L 272.448 298.861043 
L 275.616 299.436825 
L 278.784 307.076339 
L 281.952 309.39565 
L 285.12 298.239861 
L 288.288 309.638174 
L 291.456 305.560367 
L 294.624 303.635123 
L 297.792 307.515965 
L 300.96 317.198069 
L 304.128 316.001885 
L 307.296 316.986111 
L 310.464 304.089894 
L 313.632 301.998048 
L 316.8 316.774142 
L 319.968 304.544673 
L 323.136 299.361062 
L 326.304 306.864105 
L 329.472 301.725222 
L 332.64 292.561931 
L 335.808 308.956064 
L 338.976 314.24492 
L 342.144 303.907984 
L 345.312 309.95648 
L 348.48 302.528561 
L 351.648 303.938302 
L 354.816 305.120736 
L 357.984 303.453217 
L 361.152 304.832703 
L 364.32 303.741235 
L 367.488 306.363834 
L 370.656 307.015701 
L 376.992 299.739888 
L 380.16 310.289934 
L 383.328 296.225274 
L 386.496 306.439633 
L 389.664 301.725222 
L 392.832 309.774592 
L 396 305.135895 
L 399.168 308.698369 
L 402.336 309.062172 
L 405.504 304.665949 
L 408.672 304.847863 
L 411.84 307.136978 
L 415.008 313.729839 
L 418.176 302.634666 
L 421.344 298.436814 
L 424.512 302.361826 
L 427.68 309.865536 
L 430.848 310.638535 
L 434.016 303.210679 
L 437.184 307.546284 
L 440.352 305.621006 
L 443.52 298.285311 
L 446.688 304.908501 
L 449.856 309.971637 
L 453.024 304.893341 
L 456.192 309.683647 
L 459.36 312.381339 
L 462.528 308.743845 
L 465.696 306.197077 
L 468.864 301.225059 
L 472.032 316.501596 
L 475.2 306.848945 
L 478.368 307.440168 
L 481.536 310.047423 
L 484.704 303.847348 
L 487.872 309.592701 
L 491.04 304.665949 
L 494.208 303.301631 
L 497.376 305.560367 
L 500.544 299.194385 
L 503.712 303.832189 
L 506.88 316.547022 
L 510.048 306.394154 
L 513.216 312.12373 
L 519.552 306.257716 
L 522.72 307.606921 
L 525.888 313.654088 
L 529.056 307.864629 
L 532.224 308.774162 
L 535.392 311.108369 
L 538.56 310.123208 
L 541.728 304.014098 
L 544.896 304.665949 
L 548.064 309.653331 
L 551.232 299.936885 
L 554.4 299.936885 
L 557.568 302.937828 
L 560.736 309.153121 
L 563.904 308.668052 
L 567.072 308.501307 
L 570.24 310.608222 
L 573.408 307.36437 
L 576.576 296.270707 
L 579.744 309.092488 
L 582.912 302.013206 
L 586.08 303.089412 
L 589.248 307.152137 
L 592.416 304.772065 
L 595.584 301.225059 
L 598.752 306 
L 601.92 299.921731 
L 605.088 292.440889 
L 608.256 304.544673 
L 611.424 298.345912 
L 614.592 309.304702 
L 617.76 306.348675 
L 620.928 315.062892 
L 624.096 315.396104 
L 627.264 302.619508 
L 630.432 301.270528 
L 633.6 303.453217 
L 636.768 317.894425 
L 639.936 288.373559 
L 643.104 306.864105 
L 646.272 303.180362 
L 649.44 301.255372 
L 652.608 305.772603 
L 655.776 304.711427 
L 658.944 306.288036 
L 662.112 312.790463 
L 665.28 299.921731 
L 668.448 303.877666 
L 671.616 302.877195 
L 674.784 309.835222 
L 677.952 309.335018 
L 681.12 293.969345 
L 684.288 306 
L 687.456 304.999459 
L 690.624 312.032807 
L 693.792 312.972288 
L 696.96 307.925266 
L 700.128 304.044416 
L 703.296 306.60639 
L 706.464 297.073428 
L 709.632 308.349718 
L 712.8 305.575527 
L 715.968 314.199473 
L 719.136 307.546284 
L 722.304 309.137963 
L 725.472 305.181374 
L 728.64 303.801871 
L 731.808 308.652894 
L 734.976 304.832703 
L 738.144 305.302652 
L 741.312 307.970743 
L 744.48 301.346309 
L 747.648 306.454793 
L 750.816 306.560911 
L 753.984 298.088363 
L 757.152 308.273924 
L 760.32 295.937541 
L 763.488 304.711427 
L 766.656 302.225408 
L 769.824 304.468876 
L 772.992 303.695758 
L 776.16 306.848945 
L 779.328 306.090959 
L 782.496 311.366009 
L 785.664 304.559832 
L 788.832 300.088424 
L 788.832 300.088424 
" clip-path="url(#p38d7480931)" style="fill: none; stroke: #000000; stroke-width: 1.5; stroke-linecap: square"/>
   </g>
   <g id="line2d_2">
    <path d="M 0 306 
L 3.168 306 
L 6.336 305.848402 
L 9.504 302.582696 
L 12.672 304.178828 
L 15.84 288.043121 
L 19.008 298.564513 
L 22.176 297.584033 
L 25.344 299.479907 
L 28.512 305.691989 
L 31.68 308.243428 
L 34.848 308.069188 
L 38.016 306.441892 
L 41.184 304.056306 
L 44.352 309.040475 
L 47.52 308.223513 
L 50.688 306.626246 
L 53.856 304.414421 
L 57.024 304.436892 
L 60.192 308.418379 
L 63.36 308.672511 
L 66.528 308.387467 
L 69.696 311.263905 
L 72.864 307.602225 
L 76.032 305.30396 
L 79.2 308.056348 
L 82.368 312.471069 
L 85.536 309.596208 
L 88.704 308.743607 
L 95.04 316.601829 
L 98.208 310.538146 
L 101.376 302.149562 
L 104.544 305.427437 
L 107.712 306.651275 
L 114.048 300.36049 
L 117.216 298.800318 
L 120.384 301.169071 
L 123.552 299.281377 
L 126.72 304.239286 
L 129.888 304.026166 
L 133.056 307.893342 
L 136.224 304.95612 
L 139.392 304.643061 
L 142.56 303.557961 
L 145.728 299.191711 
L 148.896 305.785326 
L 152.064 307.545392 
L 155.232 303.284213 
L 158.4 303.580729 
L 161.568 306.053743 
L 164.736 311.417239 
L 167.904 310.89179 
L 171.072 307.836332 
L 174.24 308.602662 
L 177.408 309.8439 
L 180.576 306.512697 
L 183.744 306.625711 
L 186.912 306.018786 
L 190.08 304.063142 
L 193.248 303.432708 
L 196.416 305.738479 
L 199.584 312.162536 
L 202.752 307.717198 
L 205.92 313.597111 
L 209.088 299.898614 
L 212.256 297.967583 
L 215.424 307.720408 
L 218.592 308.083931 
L 221.76 309.297925 
L 224.928 303.089174 
L 228.096 311.610924 
L 231.264 310.620645 
L 234.432 315.818437 
L 237.6 310.488695 
L 240.768 305.832707 
L 243.936 308.004212 
L 247.104 302.990734 
L 250.272 305.593599 
L 253.44 301.059295 
L 256.608 306.573693 
L 259.776 308.251334 
L 262.944 305.864216 
L 266.112 299.451443 
L 269.28 306.468585 
L 272.448 305.329166 
L 275.616 302.07645 
L 278.784 300.762067 
L 281.952 303.909173 
L 285.12 306.651334 
L 288.288 302.434642 
L 291.456 306.068903 
L 294.624 305.799118 
L 297.792 304.716064 
L 300.96 306.13299 
L 304.128 311.702208 
L 307.296 313.869931 
L 310.464 315.443144 
L 313.632 309.779288 
L 316.8 305.873669 
L 319.968 311.347585 
L 323.136 307.948153 
L 326.304 303.638154 
L 329.472 305.230836 
L 332.64 303.449948 
L 335.808 297.955523 
L 342.144 308.879618 
L 345.312 306.36859 
L 348.48 308.173221 
L 351.648 305.357048 
L 354.816 304.641931 
L 357.984 304.887991 
L 361.152 304.191966 
L 364.32 304.504248 
L 367.488 304.10214 
L 370.656 305.237792 
L 373.824 306.120981 
L 376.992 304.728013 
L 380.16 302.225468 
L 383.328 306.267882 
L 386.496 301.231122 
L 389.664 303.838371 
L 392.832 302.777806 
L 396 306.282923 
L 399.168 305.705722 
L 402.336 307.212597 
L 405.504 308.155684 
L 408.672 306.399802 
L 411.84 305.640743 
L 415.008 306.39023 
L 418.176 310.084157 
L 421.344 306.345464 
L 424.512 302.3774 
L 427.68 302.35719 
L 430.848 306.112955 
L 434.016 308.387586 
L 437.184 305.795908 
L 440.352 306.671904 
L 443.52 306.130552 
L 446.688 302.198779 
L 449.856 303.566284 
L 453.024 306.783967 
L 456.192 305.828903 
L 459.36 307.754472 
L 462.528 310.086118 
L 465.696 309.417346 
L 468.864 307.808391 
L 472.032 304.52232 
L 475.2 310.536423 
L 478.368 308.686659 
L 481.536 308.068415 
L 484.704 309.058665 
L 487.872 306.436304 
L 491.04 308.016221 
L 494.208 306.338093 
L 497.376 304.823905 
L 500.544 305.170673 
L 503.712 302.167156 
L 506.88 302.992576 
L 510.048 309.7844 
L 513.216 308.094334 
L 516.384 310.114174 
L 519.552 309.634845 
L 522.72 307.952136 
L 525.888 307.783542 
L 529.056 310.7476 
L 532.224 309.314094 
L 535.392 309.028883 
L 538.56 310.077916 
L 541.728 310.096639 
L 544.896 307.045426 
L 548.064 305.852564 
L 551.232 307.757028 
L 554.4 303.819705 
L 557.568 301.862586 
L 560.736 302.388753 
L 563.904 305.767075 
L 567.072 307.214737 
L 570.24 307.866828 
L 573.408 309.249241 
L 576.576 308.30234 
L 579.744 302.277895 
L 582.912 305.703106 
L 586.08 303.856265 
L 589.248 303.460945 
L 592.416 305.303543 
L 595.584 305.030491 
L 598.752 303.109266 
L 601.92 304.551926 
L 605.088 302.243776 
L 608.256 297.307467 
L 611.424 300.930323 
L 614.592 299.628704 
L 617.76 304.47054 
L 620.928 305.412693 
L 624.096 310.265981 
L 627.264 312.849943 
L 630.432 307.740501 
L 633.6 304.522677 
L 636.768 303.985801 
L 639.936 310.981002 
L 643.104 299.627575 
L 646.272 303.246465 
L 649.44 303.190111 
L 652.608 302.194974 
L 655.776 303.989903 
L 658.944 304.35741 
L 662.112 305.328275 
L 665.28 309.049807 
L 668.448 304.508112 
L 671.616 304.187031 
L 674.784 303.531508 
L 677.952 306.700261 
L 681.12 308.024662 
L 684.288 300.973293 
L 687.456 303.485912 
L 690.624 304.227397 
L 693.792 308.154198 
L 696.96 310.581357 
L 700.128 309.26327 
L 703.296 306.642536 
L 706.464 306.619112 
L 709.632 301.851352 
L 712.8 305.105041 
L 715.968 305.341413 
L 719.136 309.775483 
L 722.304 308.650278 
L 725.472 308.8965 
L 728.64 307.041205 
L 731.808 305.416023 
L 734.976 307.057197 
L 738.144 305.938053 
L 741.312 305.619817 
L 744.48 306.783075 
L 747.648 304.052382 
L 750.816 305.248315 
L 753.984 305.907317 
L 757.152 301.985982 
L 760.32 305.129118 
L 763.488 300.514653 
L 766.656 302.611721 
L 769.824 302.407299 
L 772.992 303.444181 
L 776.16 303.56456 
L 779.328 305.207294 
L 782.496 305.664821 
L 785.664 308.521697 
L 788.832 306.557701 
L 788.832 306.557701 
" clip-path="url(#p38d7480931)" style="fill: none; stroke: #000000; stroke-width: 1.5; stroke-linecap: square"/>
   </g>
   <g id="line2d_3">
    <path d="M 0 306 
L 3.168 306 
L 6.336 305.866794 
L 9.504 303.269065 
L 12.672 304.169772 
L 15.84 293.043515 
L 19.008 298.305606 
L 22.176 297.763671 
L 25.344 298.887494 
L 28.512 302.868695 
L 31.68 305.259123 
L 34.848 306.039508 
L 38.016 305.67592 
L 41.184 304.456403 
L 44.352 307.274938 
L 47.52 307.301278 
L 50.688 306.628908 
L 53.856 305.33922 
L 57.024 305.087261 
L 60.192 307.237978 
L 63.36 307.731717 
L 66.528 307.873237 
L 69.696 309.714961 
L 72.864 308.035975 
L 76.032 306.566852 
L 79.2 307.798195 
L 82.368 310.45292 
L 85.536 309.365058 
L 88.704 308.93802 
L 91.872 311.175745 
L 95.04 313.924033 
L 98.208 311.152118 
L 101.376 306.0562 
L 104.544 306.841967 
L 107.712 307.158756 
L 110.88 305.198386 
L 114.048 302.840071 
L 117.216 301.209311 
L 120.384 301.898788 
L 123.552 300.579743 
L 126.72 303.093141 
L 129.888 303.301626 
L 133.056 305.768895 
L 136.224 304.663389 
L 139.392 304.553449 
L 142.56 303.921994 
L 145.728 301.23795 
L 148.896 304.493043 
L 152.064 305.920188 
L 155.232 303.894439 
L 158.4 303.893809 
L 161.568 305.252485 
L 164.736 308.637463 
L 167.904 309.149756 
L 171.072 307.860039 
L 174.24 308.31912 
L 177.408 309.129482 
L 180.576 307.381863 
L 183.744 307.184491 
L 186.912 306.672755 
L 190.08 305.349887 
L 193.248 304.612744 
L 196.416 305.629173 
L 199.584 309.421281 
L 202.752 307.622046 
L 205.92 311.099473 
L 209.088 303.8093 
L 212.256 301.528627 
L 215.424 306.182287 
L 218.592 306.837131 
L 221.76 307.917272 
L 224.928 304.695125 
L 228.096 309.208017 
L 231.264 309.350357 
L 234.432 312.744596 
L 237.6 310.511716 
L 240.768 307.795192 
L 243.936 308.498833 
L 247.104 305.419947 
L 250.272 306.208403 
L 253.44 303.391267 
L 256.608 305.927393 
L 259.776 307.1392 
L 262.944 306.076982 
L 266.112 302.239174 
L 269.28 305.535375 
L 272.448 305.126921 
L 275.616 303.293554 
L 278.784 302.140106 
L 281.952 303.582824 
L 285.12 305.272169 
L 288.288 303.204138 
L 291.456 305.098268 
L 294.624 305.22832 
L 297.792 304.768117 
L 300.96 305.572211 
L 304.128 309.002361 
L 307.296 311.057636 
L 310.464 312.802696 
L 313.632 310.251983 
L 316.8 307.844822 
L 319.968 310.464959 
L 323.136 308.731531 
L 326.304 305.987305 
L 329.472 306.252646 
L 332.64 304.920371 
L 335.808 301.279161 
L 338.976 303.539799 
L 342.144 306.681096 
L 345.312 305.866964 
L 348.48 307.072076 
L 351.648 305.735542 
L 354.816 305.1939 
L 357.984 305.159968 
L 361.152 304.644513 
L 364.32 304.700486 
L 367.488 304.421527 
L 373.824 305.577982 
L 376.992 304.92468 
L 380.16 303.397709 
L 383.328 305.426272 
L 386.496 302.734725 
L 389.664 303.816926 
L 392.832 303.189869 
L 396 305.125231 
L 399.168 305.122817 
L 402.336 306.177178 
L 405.504 307.028085 
L 408.672 306.335709 
L 411.84 305.901529 
L 415.008 306.266032 
L 418.176 308.464034 
L 421.344 306.752364 
L 424.512 304.306508 
L 427.68 303.735788 
L 430.848 305.542813 
L 434.016 307.035816 
L 437.184 305.923466 
L 440.352 306.400053 
L 443.52 306.176351 
L 446.688 303.851476 
L 449.856 304.160806 
L 453.024 305.864272 
L 456.192 305.575103 
L 459.36 306.784281 
L 462.528 308.432497 
L 465.696 308.525535 
L 468.864 307.83491 
L 472.032 305.897212 
L 475.2 309.02503 
L 478.368 308.392845 
L 481.536 308.11103 
L 484.704 308.677532 
L 487.872 307.263566 
L 491.04 307.948132 
L 497.376 305.912419 
L 500.544 305.810054 
L 503.712 303.859695 
L 506.88 303.85042 
L 510.048 307.578242 
L 513.216 307.224556 
L 516.384 308.663551 
L 519.552 308.805882 
L 522.72 308.065347 
L 525.888 307.920857 
L 529.056 309.608218 
L 532.224 309.098039 
L 535.392 309.001716 
L 538.56 309.627118 
L 541.728 309.773031 
L 544.896 308.085625 
L 548.064 307.085608 
L 551.232 307.84241 
L 554.4 305.527572 
L 557.568 303.885424 
L 560.736 303.592239 
L 563.904 305.224152 
L 567.072 306.228895 
L 570.24 306.893752 
L 573.408 307.986768 
L 576.576 307.804195 
L 579.744 304.405211 
L 582.912 305.779514 
L 586.08 304.668564 
L 589.248 304.196819 
L 592.416 305.058989 
L 595.584 304.975821 
L 598.752 303.873214 
L 601.92 304.491927 
L 605.088 303.153169 
L 608.256 300.005102 
L 611.424 301.336373 
L 614.592 300.447958 
L 617.76 303.042469 
L 620.928 304.008324 
L 624.096 307.252001 
L 627.264 309.64728 
L 630.432 307.596257 
L 633.6 305.734409 
L 636.768 305.067903 
L 639.936 308.843389 
L 643.104 302.820774 
L 646.272 304.007389 
L 649.44 303.767401 
L 652.608 303.026149 
L 655.776 303.837258 
L 658.944 304.107397 
L 662.112 304.748083 
L 665.28 307.120553 
L 668.448 305.001061 
L 671.616 304.669184 
L 674.784 304.130309 
L 677.952 305.794891 
L 681.12 306.83952 
L 684.288 303.059815 
L 687.456 303.923869 
L 690.624 304.22408 
L 693.792 306.538616 
L 696.96 308.430315 
L 700.128 308.287841 
L 703.296 307.048192 
L 706.464 306.91975 
L 709.632 304.02634 
L 712.8 305.294992 
L 715.968 305.36887 
L 719.136 307.972244 
L 722.304 307.851697 
L 725.472 308.235635 
L 728.64 307.335737 
L 731.808 306.29433 
L 734.976 307.002026 
L 738.144 306.365306 
L 741.312 306.05441 
L 744.48 306.611032 
L 747.648 305.055573 
L 753.984 305.787959 
L 757.152 303.522551 
L 760.32 304.927042 
L 763.488 302.278935 
L 766.656 302.990368 
L 769.824 302.752558 
L 772.992 303.251705 
L 776.16 303.375513 
L 779.328 304.394743 
L 782.496 304.894177 
L 785.664 306.793005 
L 788.832 306.138609 
L 788.832 306.138609 
" clip-path="url(#p38d7480931)" style="fill: none; stroke: #000000; stroke-width: 1.5; stroke-linecap: square"/>
   </g>
   <g id="line2d_4">
    <path d="M 0 306 
L 3.168 306 
L 6.336 305.876475 
L 9.504 303.622481 
L 12.672 304.24394 
L 15.84 295.636465 
L 19.008 298.868239 
L 22.176 298.358904 
L 25.344 298.995758 
L 28.512 301.59107 
L 31.68 303.365922 
L 34.848 304.206631 
L 38.016 304.317714 
L 41.184 303.827115 
L 44.352 305.60332 
L 47.52 305.906008 
L 50.688 305.754729 
L 53.856 305.164569 
L 57.024 305.051286 
L 60.192 306.262688 
L 63.36 306.697581 
L 66.528 306.922955 
L 69.696 308.097258 
L 76.032 306.7124 
L 79.2 307.367425 
L 82.368 308.891182 
L 85.536 308.546179 
L 88.704 308.441751 
L 91.872 309.735528 
L 95.04 311.463398 
L 98.208 310.345545 
L 101.376 307.702416 
L 104.544 307.864984 
L 107.712 307.873497 
L 110.88 306.702537 
L 114.048 305.184176 
L 117.216 303.947192 
L 120.384 303.889491 
L 123.552 302.860687 
L 126.72 303.864236 
L 129.888 303.854115 
L 133.056 305.110249 
L 136.224 304.613819 
L 139.392 304.563905 
L 142.56 304.22856 
L 145.728 302.725764 
L 148.896 304.255506 
L 152.064 305.061536 
L 155.232 304.101779 
L 158.4 304.070586 
L 161.568 304.773102 
L 164.736 306.680857 
L 167.904 307.263758 
L 171.072 306.856635 
L 174.24 307.261593 
L 177.408 307.873895 
L 180.576 307.119979 
L 183.744 307.051252 
L 186.912 306.791518 
L 190.08 306.051781 
L 193.248 305.530899 
L 196.416 305.920935 
L 199.584 307.939391 
L 202.752 307.207441 
L 205.92 309.156501 
L 209.088 305.502909 
L 212.256 303.999412 
L 215.424 306.146523 
L 218.592 306.516059 
L 221.76 307.154607 
L 224.928 305.53309 
L 228.096 307.852486 
L 231.264 308.145072 
L 234.432 310.177815 
L 237.6 309.375236 
L 240.768 308.079036 
L 243.936 308.416338 
L 247.104 306.765209 
L 250.272 306.983359 
L 253.44 305.325978 
L 256.608 306.408552 
L 259.776 306.979268 
L 262.944 306.419947 
L 266.112 304.280971 
L 269.28 305.745521 
L 272.448 305.493801 
L 275.616 304.431749 
L 278.784 303.62965 
L 281.952 304.180453 
L 285.12 305.011882 
L 288.288 303.92971 
L 291.456 304.842616 
L 294.624 304.958515 
L 297.792 304.745211 
L 300.96 305.17916 
L 304.128 307.100875 
L 310.464 309.882911 
L 313.632 308.966304 
L 316.8 307.848029 
L 319.968 309.27402 
L 323.136 308.517893 
L 326.304 307.062381 
L 329.472 307.022596 
L 332.64 306.174767 
L 335.808 303.989891 
L 338.976 304.782417 
L 342.144 306.296362 
L 345.312 305.912451 
L 348.48 306.563349 
L 351.648 305.917868 
L 354.816 305.607475 
L 357.984 305.525692 
L 361.152 305.191879 
L 364.32 305.135574 
L 367.488 304.920385 
L 373.824 305.444922 
L 376.992 305.111521 
L 380.16 304.256942 
L 383.328 305.218849 
L 386.496 303.779227 
L 389.664 304.207612 
L 392.832 303.807694 
L 396 304.759684 
L 399.168 304.820477 
L 405.504 306.00973 
L 411.84 305.631561 
L 415.008 305.87298 
L 418.176 307.130612 
L 421.344 306.406448 
L 424.512 305.134397 
L 427.68 304.695122 
L 434.016 306.339703 
L 437.184 305.848502 
L 440.352 306.117747 
L 443.52 306.033332 
L 446.688 304.796831 
L 449.856 304.811448 
L 453.024 305.637128 
L 456.192 305.519384 
L 459.36 306.184808 
L 462.528 307.176411 
L 465.696 307.428242 
L 468.864 307.233894 
L 472.032 306.274604 
L 475.2 307.908308 
L 478.368 307.741956 
L 481.536 307.698746 
L 484.704 308.072298 
L 487.872 307.404862 
L 491.04 307.754938 
L 494.208 307.265311 
L 497.376 306.630631 
L 500.544 306.460613 
L 503.712 305.298422 
L 506.88 305.061872 
L 510.048 306.897276 
L 513.216 306.818193 
L 516.384 307.66555 
L 519.552 307.896957 
L 522.72 307.638413 
L 525.888 307.639125 
L 529.056 308.603379 
L 532.224 308.484594 
L 535.392 308.529502 
L 538.56 308.94477 
L 541.728 309.133879 
L 544.896 308.318344 
L 548.064 307.741234 
L 551.232 308.048429 
L 554.4 306.751489 
L 557.568 305.664044 
L 560.736 305.226069 
L 563.904 305.848879 
L 573.408 307.285234 
L 576.576 307.292122 
L 579.744 305.531458 
L 582.912 306.099078 
L 586.08 305.443953 
L 589.248 305.068852 
L 592.416 305.398787 
L 595.584 305.299139 
L 598.752 304.649588 
L 601.92 304.864716 
L 605.088 304.078617 
L 608.256 302.218657 
L 611.424 302.581222 
L 614.592 301.902218 
L 617.76 303.078123 
L 620.928 303.596714 
L 624.096 305.426901 
L 627.264 307.018364 
L 633.6 305.505361 
L 636.768 305.17553 
L 639.936 307.204336 
L 643.104 304.191627 
L 646.272 304.618598 
L 649.44 304.388837 
L 652.608 303.885012 
L 655.776 304.188969 
L 658.944 304.275073 
L 662.112 304.597427 
L 665.28 305.903408 
L 668.448 304.946121 
L 671.616 304.773239 
L 674.784 304.466737 
L 677.952 305.322446 
L 681.12 305.969034 
L 684.288 304.04944 
L 687.456 304.362262 
L 690.624 304.464834 
L 696.96 306.83888 
L 700.128 307.015911 
L 703.296 306.541914 
L 706.464 306.556343 
L 709.632 305.050072 
L 712.8 305.577437 
L 715.968 305.581645 
L 719.136 306.956137 
L 722.304 307.050779 
L 725.472 307.379171 
L 728.64 307.023122 
L 731.808 306.511344 
L 734.976 306.856687 
L 738.144 306.535525 
L 741.312 306.331511 
L 744.48 306.604562 
L 747.648 305.764455 
L 753.984 305.988563 
L 757.152 304.726544 
L 760.32 305.293169 
L 763.488 303.797655 
L 766.656 303.937996 
L 769.824 303.666943 
L 772.992 303.7949 
L 776.16 303.779637 
L 779.328 304.266098 
L 782.496 304.554411 
L 785.664 305.649098 
L 788.832 305.474892 
L 788.832 305.474892 
" clip-path="url(#p38d7480931)" style="fill: none; stroke: #000000; stroke-width: 1.5; stroke-linecap: square"/>
   </g>
   <g id="line2d_5">
    <path d="M 0 306 
L 3.168 306 
L 6.336 305.881379 
L 9.504 303.797147 
L 12.672 304.301069 
L 15.84 296.885354 
L 19.008 299.318258 
L 22.176 298.825532 
L 25.344 299.246418 
L 28.512 301.182555 
L 31.68 302.556113 
L 34.848 303.273106 
L 38.016 303.471387 
L 41.184 303.236445 
L 44.352 304.508193 
L 47.52 304.83409 
L 50.688 304.854067 
L 53.856 304.572625 
L 57.024 304.563315 
L 60.192 305.367224 
L 63.36 305.724468 
L 66.528 305.957482 
L 69.696 306.755252 
L 76.032 306.156638 
L 79.2 306.589599 
L 82.368 307.540184 
L 85.536 307.466948 
L 88.704 307.505915 
L 91.872 308.32008 
L 95.04 309.415457 
L 98.208 308.974917 
L 101.376 307.631246 
L 107.712 307.742615 
L 110.88 307.112144 
L 117.216 305.477672 
L 120.384 305.316228 
L 123.552 304.637723 
L 126.72 305.023277 
L 129.888 304.921504 
L 133.056 305.503153 
L 136.224 305.206332 
L 139.392 305.12959 
L 142.56 304.902819 
L 145.728 304.053341 
L 148.896 304.751453 
L 152.064 305.13536 
L 155.232 304.622263 
L 158.4 304.562191 
L 161.568 304.893108 
L 164.736 305.886755 
L 167.904 306.259779 
L 171.072 306.132606 
L 174.24 306.404495 
L 177.408 306.795473 
L 180.576 306.491996 
L 186.912 306.420859 
L 193.248 305.795864 
L 196.416 305.982271 
L 199.584 307.029991 
L 202.752 306.719335 
L 205.92 307.777488 
L 209.088 305.986719 
L 212.256 305.16238 
L 215.424 306.183175 
L 218.592 306.380855 
L 221.76 306.723492 
L 224.928 305.913673 
L 228.096 307.094531 
L 231.264 307.30745 
L 234.432 308.437736 
L 237.6 308.161556 
L 240.768 307.585935 
L 243.936 307.803109 
L 247.104 306.98646 
L 250.272 307.083507 
L 253.44 306.212026 
L 256.608 306.702167 
L 259.776 306.975323 
L 262.944 306.682619 
L 266.112 305.547565 
L 269.28 306.207164 
L 272.448 306.034482 
L 278.784 304.938087 
L 281.952 305.114348 
L 285.12 305.467266 
L 288.288 304.864519 
L 291.456 305.261292 
L 294.624 305.282546 
L 297.792 305.140312 
L 300.96 305.338474 
L 304.128 306.330805 
L 310.464 307.956964 
L 313.632 307.637184 
L 316.8 307.170712 
L 319.968 307.974441 
L 323.136 307.690097 
L 326.304 306.999378 
L 329.472 306.987411 
L 332.64 306.549964 
L 335.808 305.382051 
L 338.976 305.680946 
L 342.144 306.395124 
L 345.312 306.189172 
L 348.48 306.506776 
L 351.648 306.173401 
L 354.816 305.986147 
L 357.984 305.9163 
L 361.152 305.711721 
L 370.656 305.54835 
L 373.824 305.670874 
L 376.992 305.474779 
L 380.16 304.995046 
L 383.328 305.43684 
L 386.496 304.66863 
L 389.664 304.815945 
L 392.832 304.559266 
L 396 304.994387 
L 399.168 305.005189 
L 405.504 305.621926 
L 411.84 305.486566 
L 415.008 305.627146 
L 418.176 306.298574 
L 421.344 305.992588 
L 424.512 305.361435 
L 427.68 305.114224 
L 434.016 305.931644 
L 437.184 305.700055 
L 440.352 305.854075 
L 443.52 305.836157 
L 446.688 305.205465 
L 449.856 305.183059 
L 453.024 305.5811 
L 456.192 305.526713 
L 459.36 305.870956 
L 462.528 306.412153 
L 465.696 306.607392 
L 468.864 306.57761 
L 472.032 306.129352 
L 475.2 306.994561 
L 481.536 307.025452 
L 484.704 307.277246 
L 487.872 306.990773 
L 491.04 307.210429 
L 500.544 306.596999 
L 503.712 305.979811 
L 506.88 305.797212 
L 510.048 306.689926 
L 513.216 306.661929 
L 516.384 307.117915 
L 519.552 307.287901 
L 522.72 307.198977 
L 525.888 307.233831 
L 529.056 307.771458 
L 535.392 307.864364 
L 541.728 308.304683 
L 548.064 307.673347 
L 551.232 307.837586 
L 557.568 306.578372 
L 560.736 306.275503 
L 567.072 306.696046 
L 570.24 306.847428 
L 573.408 307.160966 
L 576.576 307.177961 
L 579.744 306.270137 
L 582.912 306.507433 
L 586.08 306.131718 
L 589.248 305.881447 
L 592.416 305.987141 
L 595.584 305.887286 
L 598.752 305.497526 
L 601.92 305.53951 
L 605.088 305.070337 
L 608.256 304.016018 
L 611.424 304.059855 
L 614.592 303.583398 
L 617.76 304.058939 
L 620.928 304.24657 
L 627.264 306.004803 
L 636.768 305.19158 
L 639.936 306.251141 
L 643.104 304.759513 
L 646.272 304.934589 
L 649.44 304.790585 
L 652.608 304.495962 
L 662.112 304.747882 
L 665.28 305.415603 
L 668.448 304.9567 
L 674.784 304.701825 
L 681.12 305.47589 
L 684.288 304.516003 
L 690.624 304.668237 
L 696.96 305.921525 
L 700.128 306.089334 
L 703.296 305.919118 
L 706.464 305.978572 
L 709.632 305.237072 
L 712.8 305.492742 
L 715.968 305.499347 
L 719.136 306.22226 
L 722.304 306.331632 
L 725.472 306.565492 
L 731.808 306.226847 
L 734.976 306.428461 
L 741.312 306.210507 
L 744.48 306.355901 
L 747.648 305.939227 
L 753.984 306.02959 
L 757.152 305.369753 
L 760.32 305.613504 
L 763.488 304.807863 
L 766.656 304.798414 
L 769.824 304.582756 
L 776.16 304.497017 
L 782.496 304.811347 
L 785.664 305.356139 
L 788.832 305.290877 
L 788.832 305.290877 
" clip-path="url(#p38d7480931)" style="fill: none; stroke: #000000; stroke-width: 1.5; stroke-linecap: square"/>
   </g>
   <g id="line2d_6">
    <path d="M 0 306 
L 3.168 306 
L 6.336 305.883839 
L 9.504 303.883366 
L 12.672 304.334272 
L 15.84 297.488195 
L 19.008 299.577792 
L 22.176 299.098156 
L 25.344 299.425733 
L 28.512 301.060928 
L 31.68 302.232191 
L 34.848 302.862088 
L 38.016 303.066582 
L 41.184 302.918091 
L 44.352 303.951618 
L 47.52 304.254394 
L 50.688 304.318855 
L 53.856 304.149789 
L 57.024 304.175959 
L 60.192 304.796194 
L 66.528 305.308656 
L 69.696 305.91807 
L 76.032 305.604191 
L 79.2 305.935651 
L 82.368 306.619703 
L 88.704 306.703758 
L 91.872 307.285623 
L 95.04 308.058059 
L 98.208 307.852133 
L 101.376 307.057593 
L 107.712 307.191717 
L 110.88 306.828873 
L 117.216 305.833912 
L 120.384 305.716833 
L 123.552 305.285416 
L 126.72 305.483831 
L 129.888 305.399536 
L 133.056 305.720638 
L 136.224 305.53456 
L 142.56 305.323868 
L 145.728 304.810102 
L 148.896 305.176374 
L 152.064 305.376411 
L 155.232 305.071321 
L 158.4 305.015613 
L 161.568 305.181617 
L 164.736 305.728886 
L 167.904 305.946059 
L 171.072 305.889554 
L 177.408 306.286357 
L 180.576 306.14179 
L 186.912 306.134582 
L 193.248 305.810286 
L 196.416 305.911342 
L 199.584 306.484698 
L 202.752 306.340747 
L 205.92 306.9304 
L 209.088 306.001536 
L 212.256 305.556036 
L 215.424 306.086721 
L 221.76 306.383176 
L 224.928 305.964547 
L 228.096 306.590145 
L 231.264 306.726431 
L 234.432 307.352139 
L 237.6 307.253716 
L 240.768 306.98891 
L 243.936 307.128706 
L 247.104 306.729167 
L 250.272 306.791555 
L 253.44 306.346234 
L 259.776 306.744098 
L 262.944 306.601958 
L 266.112 306.012709 
L 269.28 306.337199 
L 272.448 306.24286 
L 278.784 305.641221 
L 285.12 305.863164 
L 288.288 305.533494 
L 291.456 305.710821 
L 300.96 305.697005 
L 307.296 306.61492 
L 310.464 307.061216 
L 316.8 306.721449 
L 319.968 307.153268 
L 323.136 307.041324 
L 326.304 306.711863 
L 329.472 306.71839 
L 332.64 306.504421 
L 335.808 305.906885 
L 338.976 306.037431 
L 342.144 306.38875 
L 345.312 306.282628 
L 348.48 306.439735 
L 354.816 306.172799 
L 364.32 305.963228 
L 367.488 305.868398 
L 376.992 305.826457 
L 380.16 305.566936 
L 383.328 305.768253 
L 386.496 305.361461 
L 389.664 305.407394 
L 392.832 305.250543 
L 396 305.443212 
L 399.168 305.430127 
L 405.504 305.717933 
L 411.84 305.637968 
L 415.008 305.702686 
L 418.176 306.044437 
L 421.344 305.904816 
L 424.512 305.586413 
L 427.68 305.450649 
L 434.016 305.85101 
L 437.184 305.737808 
L 443.52 305.806362 
L 446.688 305.486881 
L 449.856 305.460847 
L 453.024 305.652532 
L 456.192 305.620325 
L 465.696 306.187052 
L 468.864 306.187026 
L 472.032 305.975499 
L 475.2 306.422339 
L 481.536 306.484009 
L 484.704 306.634974 
L 487.872 306.514627 
L 491.04 306.645608 
L 500.544 306.381779 
L 503.712 306.076133 
L 506.88 305.982664 
L 510.048 306.432038 
L 513.216 306.43018 
L 516.384 306.673532 
L 519.552 306.780006 
L 525.888 306.79595 
L 529.056 307.089477 
L 535.392 307.192994 
L 541.728 307.477457 
L 548.064 307.217974 
L 551.232 307.32369 
L 557.568 306.707026 
L 560.736 306.547868 
L 576.576 306.995095 
L 579.744 306.5381 
L 582.912 306.646071 
L 589.248 306.306389 
L 595.584 306.276384 
L 598.752 306.061941 
L 601.92 306.058977 
L 605.088 305.795647 
L 608.256 305.227266 
L 611.424 305.195854 
L 614.592 304.90738 
L 617.76 305.096016 
L 620.928 305.147285 
L 627.264 305.986469 
L 636.768 305.553516 
L 639.936 306.076488 
L 643.104 305.322327 
L 646.272 305.388628 
L 655.776 305.150283 
L 662.112 305.181029 
L 665.28 305.504159 
L 668.448 305.266857 
L 674.784 305.109097 
L 681.12 305.482796 
L 684.288 304.993493 
L 690.624 305.033707 
L 696.96 305.657266 
L 700.128 305.753816 
L 703.296 305.68141 
L 706.464 305.720475 
L 709.632 305.350415 
L 712.8 305.476304 
L 715.968 305.478613 
L 719.136 305.850113 
L 728.64 306.020928 
L 731.808 305.927585 
L 734.976 306.043429 
L 741.312 305.965482 
L 744.48 306.050336 
L 747.648 305.848741 
L 753.984 305.90338 
L 757.152 305.571236 
L 760.32 305.686544 
L 763.488 305.271538 
L 772.992 305.091952 
L 776.16 305.032313 
L 782.496 305.151381 
L 785.664 305.416816 
L 788.832 305.37953 
L 788.832 305.37953 
" clip-path="url(#p38d7480931)" style="fill: none; stroke: #000000; stroke-width: 1.5; stroke-linecap: square"/>
   </g>
   <g id="line2d_7">
    <path d="M 0 306 
L 3.168 306 
L 6.336 305.88507 
L 9.504 303.926124 
L 12.672 304.35196 
L 15.84 297.783081 
L 19.008 299.714808 
L 22.176 299.243207 
L 25.344 299.528459 
L 28.512 301.022558 
L 31.68 302.095429 
L 34.848 302.678468 
L 38.016 302.878707 
L 41.184 302.763432 
L 44.352 303.684167 
L 47.52 303.968427 
L 50.688 304.044965 
L 53.856 303.919443 
L 57.024 303.956913 
L 60.192 304.492011 
L 66.528 304.955704 
L 69.696 305.474911 
L 76.032 305.266114 
L 79.2 305.548439 
L 82.368 306.110295 
L 88.704 306.223557 
L 91.872 306.696618 
L 95.04 307.317285 
L 98.208 307.192482 
L 101.376 306.618386 
L 107.712 306.755786 
L 110.88 306.50405 
L 117.216 305.792681 
L 120.384 305.709101 
L 123.552 305.397663 
L 126.72 305.535958 
L 129.888 305.473927 
L 133.056 305.69889 
L 142.56 305.418691 
L 145.728 305.059934 
L 152.064 305.436186 
L 155.232 305.226681 
L 158.4 305.18396 
L 161.568 305.290264 
L 164.736 305.653093 
L 167.904 305.800058 
L 171.072 305.76717 
L 177.408 306.03696 
L 183.744 305.973465 
L 190.08 305.845415 
L 193.248 305.757338 
L 196.416 305.823283 
L 199.584 306.189632 
L 202.752 306.107118 
L 205.92 306.484675 
L 209.088 305.915379 
L 212.256 305.639879 
L 215.424 305.967253 
L 221.76 306.157815 
L 224.928 305.90693 
L 228.096 306.291151 
L 231.264 306.382269 
L 234.432 306.77141 
L 243.936 306.676434 
L 247.104 306.449108 
L 250.272 306.49366 
L 253.44 306.236555 
L 259.776 306.48038 
L 262.944 306.403413 
L 266.112 306.062397 
L 269.28 306.25115 
L 272.448 306.198251 
L 278.784 305.847297 
L 285.12 305.966003 
L 288.288 305.773612 
L 294.624 305.861852 
L 300.96 305.848956 
L 310.464 306.626756 
L 316.8 306.454644 
L 319.968 306.703813 
L 323.136 306.651843 
L 326.304 306.476791 
L 329.472 306.486066 
L 332.64 306.372348 
L 335.808 306.043092 
L 338.976 306.112334 
L 342.144 306.305234 
L 345.312 306.248516 
L 348.48 306.336054 
L 357.984 306.166979 
L 367.488 306.019371 
L 376.992 305.987309 
L 380.16 305.84267 
L 383.328 305.945447 
L 386.496 305.721127 
L 415.008 305.848968 
L 418.176 306.028143 
L 430.848 305.797423 
L 434.016 305.90679 
L 440.352 305.884277 
L 443.52 305.87835 
L 446.688 305.707557 
L 449.856 305.689606 
L 453.024 305.785706 
L 459.36 305.853453 
L 465.696 306.060881 
L 472.032 305.955945 
L 475.2 306.191133 
L 500.544 306.218649 
L 506.88 306.013796 
L 510.048 306.246713 
L 513.216 306.24997 
L 519.552 306.440498 
L 525.888 306.462257 
L 529.056 306.62065 
L 538.56 306.791814 
L 541.728 306.865006 
L 548.064 306.755523 
L 551.232 306.819087 
L 560.736 306.442206 
L 576.576 306.694442 
L 579.744 306.466689 
L 582.912 306.524022 
L 589.248 306.352786 
L 595.584 306.335379 
L 614.592 305.596592 
L 624.096 305.895545 
L 627.264 306.102019 
L 636.768 305.869489 
L 639.936 306.130572 
L 643.104 305.744909 
L 649.44 305.713047 
L 655.776 305.61979 
L 662.112 305.61501 
L 665.28 305.770434 
L 671.616 305.605547 
L 674.784 305.546497 
L 681.12 305.719253 
L 684.288 305.464982 
L 693.792 305.608197 
L 696.96 305.767376 
L 703.296 305.775774 
L 706.464 305.793715 
L 709.632 305.605332 
L 728.64 305.937222 
L 734.976 305.950727 
L 760.32 305.772847 
L 763.488 305.560873 
L 782.496 305.45667 
L 785.664 305.583897 
L 788.832 305.561853 
L 788.832 305.561853 
" clip-path="url(#p38d7480931)" style="fill: none; stroke: #000000; stroke-width: 1.5; stroke-linecap: square"/>
   </g>
   <g id="line2d_8">
    <path d="M 0 306 
L 3.168 306 
L 6.336 305.885686 
L 9.504 303.947406 
L 12.672 304.361065 
L 15.84 297.92876 
L 19.008 299.784935 
L 22.176 299.317738 
L 25.344 299.582962 
L 28.512 301.009077 
L 31.68 302.033809 
L 34.848 302.592993 
L 38.016 302.789602 
L 41.184 302.688622 
L 44.352 303.554947 
L 47.52 303.8286 
L 50.688 303.908896 
L 53.856 303.802023 
L 57.024 303.8435 
L 60.192 304.338032 
L 66.528 304.775527 
L 69.696 305.251362 
L 76.032 305.085625 
L 79.2 305.34401 
L 82.368 305.848562 
L 88.704 305.969261 
L 91.872 306.390947 
L 95.04 306.940292 
L 98.208 306.846945 
L 101.376 306.366975 
L 107.712 306.502112 
L 114.048 305.993815 
L 117.216 305.71061 
L 120.384 305.643374 
L 123.552 305.386243 
L 126.72 305.501194 
L 129.888 305.451053 
L 133.056 305.636577 
L 145.728 305.122043 
L 152.064 305.422427 
L 155.232 305.255518 
L 158.4 305.220803 
L 161.568 305.304068 
L 164.736 305.589975 
L 167.904 305.707026 
L 171.072 305.683543 
L 177.408 305.897972 
L 183.744 305.854699 
L 190.08 305.761911 
L 193.248 305.696625 
L 196.416 305.748051 
L 199.584 306.026942 
L 202.752 305.968227 
L 205.92 306.254866 
L 209.088 305.833495 
L 212.256 305.629675 
L 215.424 305.873257 
L 221.76 306.01826 
L 224.928 305.836483 
L 228.096 306.119595 
L 231.264 306.189558 
L 234.432 306.476721 
L 250.272 306.299891 
L 253.44 306.119901 
L 259.776 306.298291 
L 262.944 306.247159 
L 266.112 306.009524 
L 269.28 306.14315 
L 275.616 305.980055 
L 278.784 305.865326 
L 285.12 305.947122 
L 288.288 305.814633 
L 294.624 305.874507 
L 300.96 305.864888 
L 310.464 306.396098 
L 316.8 306.287315 
L 319.968 306.457236 
L 332.64 306.24908 
L 335.808 306.032992 
L 351.648 306.172334 
L 370.656 306.033181 
L 376.992 306.007465 
L 380.16 305.914633 
L 383.328 305.979172 
L 386.496 305.835824 
L 424.512 305.861425 
L 430.848 305.869003 
L 437.184 305.897613 
L 443.52 305.916305 
L 449.856 305.798893 
L 465.696 306.0204 
L 481.536 306.127514 
L 491.04 306.194338 
L 513.216 306.149749 
L 519.552 306.26514 
L 525.888 306.282368 
L 532.224 306.39648 
L 551.232 306.518243 
L 560.736 306.309448 
L 576.576 306.465379 
L 579.744 306.33797 
L 586.08 306.318048 
L 620.928 305.896255 
L 627.264 306.122871 
L 636.768 305.990457 
L 639.936 306.13496 
L 643.104 305.919519 
L 649.44 305.897709 
L 658.944 305.827251 
L 681.12 305.875847 
L 684.288 305.733836 
L 693.792 305.803144 
L 700.128 305.912385 
L 715.968 305.821649 
L 722.304 305.939496 
L 731.808 305.94234 
L 744.48 305.976633 
L 750.816 305.928764 
L 760.32 305.872978 
L 766.656 305.745267 
L 779.328 305.680655 
L 788.832 305.737316 
L 788.832 305.737316 
" clip-path="url(#p38d7480931)" style="fill: none; stroke: #000000; stroke-width: 1.5; stroke-linecap: square"/>
   </g>
   <g id="line2d_9">
    <path d="M 0 306 
L 3.168 306 
L 6.336 305.885994 
L 9.504 303.958022 
L 12.672 304.365682 
L 15.84 298.001142 
L 19.008 299.820378 
L 22.176 299.355481 
L 25.344 299.610979 
L 28.512 301.003765 
L 31.68 302.004733 
L 34.848 302.551934 
L 38.016 302.746397 
L 41.184 302.652018 
L 44.352 303.491682 
L 47.52 303.759751 
L 50.688 303.841404 
L 53.856 303.743098 
L 57.024 303.786182 
L 60.192 304.260977 
L 66.528 304.685034 
L 69.696 305.139715 
L 76.032 304.993215 
L 79.2 305.239838 
L 82.368 305.716818 
L 88.704 305.839601 
L 91.872 306.236523 
L 95.04 306.75162 
L 98.208 306.671846 
L 101.376 306.234805 
L 107.712 306.367786 
L 114.048 305.910438 
L 117.216 305.654726 
L 120.384 305.5952 
L 123.552 305.363283 
L 126.72 305.467958 
L 129.888 305.423588 
L 133.056 305.591421 
L 145.728 305.134588 
L 152.064 305.401637 
L 155.232 305.25426 
L 161.568 305.296961 
L 164.736 305.54862 
L 167.904 305.652242 
L 174.24 305.711427 
L 177.408 305.822233 
L 183.744 305.787424 
L 190.08 305.709857 
L 196.416 305.699609 
L 199.584 305.939744 
L 202.752 305.891099 
L 205.92 306.137279 
L 209.088 305.780365 
L 212.256 305.608029 
L 215.424 305.815032 
L 221.76 305.939714 
L 224.928 305.787864 
L 228.096 306.026727 
L 231.264 306.086963 
L 234.432 306.329047 
L 250.272 306.192105 
L 253.44 306.04501 
L 259.776 306.194546 
L 262.944 306.154104 
L 266.112 305.960743 
L 269.28 306.07073 
L 275.616 305.939838 
L 281.952 305.864534 
L 285.12 305.913971 
L 288.288 305.807428 
L 294.624 305.856063 
L 300.96 305.84869 
L 310.464 306.274599 
L 316.8 306.191296 
L 319.968 306.327019 
L 332.64 306.168699 
L 335.808 306.000336 
L 351.648 306.112695 
L 380.16 305.918564 
L 383.328 305.96768 
L 386.496 305.85882 
L 443.52 305.917282 
L 449.856 305.830701 
L 468.864 305.99379 
L 472.032 305.947278 
L 478.368 306.057533 
L 500.544 306.075592 
L 506.88 305.990899 
L 513.216 306.091744 
L 522.72 306.175513 
L 538.56 306.336614 
L 551.232 306.363902 
L 563.904 306.247779 
L 582.912 306.272389 
L 617.76 305.947641 
L 624.096 306.026002 
L 630.432 306.074439 
L 636.768 306.014188 
L 639.936 306.110706 
L 643.104 305.96691 
L 665.28 305.960997 
L 674.784 305.873169 
L 681.12 305.931292 
L 687.456 305.838824 
L 693.792 305.880502 
L 703.296 305.936203 
L 753.984 305.961797 
L 766.656 305.838412 
L 782.496 305.796341 
L 788.832 305.827735 
L 788.832 305.827735 
" clip-path="url(#p38d7480931)" style="fill: none; stroke: #000000; stroke-width: 1.5; stroke-linecap: square"/>
   </g>
  </g>
 </g>
 <defs>
  <clipPath id="p38d7480931">
   <rect x="0" y="0" width="792" height="612"/>
  </clipPath>
 </defs>
</svg>
