<?xml version="1.0" encoding="utf-8" standalone="no"?>
<!DOCTYPE svg PUBLIC "-//W3C//DTD SVG 1.1//EN"
  "http://www.w3.org/Graphics/SVG/1.1/DTD/svg11.dtd">
<svg xmlns:xlink="http://www.w3.org/1999/xlink" width="792pt" height="612pt" viewBox="0 0 792 612" xmlns="http://www.w3.org/2000/svg" version="1.1">
 <metadata>
  <rdf:RDF xmlns:dc="http://purl.org/dc/elements/1.1/" xmlns:cc="http://creativecommons.org/ns#" xmlns:rdf="http://www.w3.org/1999/02/22-rdf-syntax-ns#">
   <cc:Work>
    <dc:type rdf:resource="http://purl.org/dc/dcmitype/StillImage"/>
    <dc:date>2022-12-26T20:28:09.346666</dc:date>
    <dc:format>image/svg+xml</dc:format>
    <dc:creator>
     <cc:Agent>
      <dc:title>Matplotlib v3.6.2, https://matplotlib.org/</dc:title>
     </cc:Agent>
    </dc:creator>
   </cc:Work>
  </rdf:RDF>
 </metadata>
 <defs>
  <style type="text/css">*{stroke-linejoin: round; stroke-linecap: butt}</style>
 </defs>
 <g id="figure_1">
  <g id="patch_1">
   <path d="M 0 612 
L 792 612 
L 792 0 
L 0 0 
z
" style="fill: #ffffff"/>
  </g>
  <g id="axes_1">
   <g id="line2d_1">
    <path d="M 0 459 
L 3.142857 458.114186 
L 6.285714 457.861097 
L 9.428571 458.49382 
L 12.571429 459.646786 
L 15.714286 450.986294 
L 18.857143 448.814795 
L 22 454.001668 
L 25.142857 454.528883 
L 28.285714 459.471029 
L 31.428571 462.979139 
L 34.571429 461.284841 
L 37.714286 460.349814 
L 40.857143 460.848964 
L 44 461.080963 
L 47.142857 460.349814 
L 50.285714 461.073933 
L 53.428571 461.305932 
L 56.571429 467.225428 
L 59.714286 470.093783 
L 62.857143 469.988329 
L 66 467.26761 
L 69.142857 467.070762 
L 72.285714 437.145334 
L 75.428571 440.99766 
L 78.571429 427.980542 
L 81.714286 421.562741 
L 84.857143 429.702523 
L 88 436.324727 
L 91.142857 438.913265 
L 94.285714 437.271594 
L 97.428571 431.110125 
L 100.571429 442.219172 
L 103.714286 444.115087 
L 106.857143 442.74576 
L 110 437.524124 
L 113.142857 435.420124 
L 116.285714 444.283638 
L 119.428571 448.329956 
L 122.571429 451.218225 
L 125.714286 460.181087 
L 128.857143 459.231999 
L 132 455.541167 
L 135.142857 460.061572 
L 138.285714 465.088223 
L 141.428571 465.432707 
L 144.571429 466.311492 
L 147.714286 471.190507 
L 150.857143 477.932546 
L 154 477.222488 
L 157.142857 471.563112 
L 160.285714 472.821532 
L 163.428571 473.707347 
L 166.571429 471.162386 
L 172.857143 463.049442 
L 176 461.938657 
L 179.142857 455.878603 
L 182.285714 459.414787 
L 185.428571 457.228378 
L 188.571429 461.073933 
L 194.857143 457.31274 
L 198 452.377935 
L 201.142857 436.892825 
L 204.285714 445.674333 
L 207.428571 450.269444 
L 210.571429 440.597564 
L 213.714286 437.692484 
L 216.857143 441.16613 
L 220 456.089503 
L 223.142857 460.040482 
L 226.285714 459.456968 
L 229.428571 461.024721 
L 232.571429 463.379865 
L 235.714286 462.065202 
L 238.857143 462.402656 
L 242 462.135505 
L 248.285714 458.662547 
L 251.428571 459.829573 
L 254.571429 465.650646 
L 257.714286 464.399256 
L 260.857143 470.621054 
L 267.142857 452.609888 
L 270.285714 462.163626 
L 273.428571 463.288471 
L 276.571429 465.376465 
L 279.714286 461.186417 
L 282.857143 467.710518 
L 286 469.411846 
L 289.142857 476.315581 
L 292.285714 475.907825 
L 295.428571 473.700317 
L 298.571429 475.633644 
L 301.714286 471.935717 
L 304.857143 472.934016 
L 308 468.582273 
L 311.142857 471.401415 
L 314.285714 473.243349 
L 317.428571 472.076322 
L 320.571429 466.079493 
L 323.714286 469.545421 
L 326.857143 468.694757 
L 330 465.383495 
L 333.142857 462.339383 
L 336.285714 462.838533 
L 339.428571 464.413316 
L 342.571429 460.813812 
L 345.714286 462.50108 
L 348.857143 462.297202 
L 352 461.200478 
L 355.142857 461.903506 
L 358.285714 467.098883 
L 361.428571 471.738869 
L 364.571429 476.835822 
L 367.714286 475.950007 
L 370.857143 474.094013 
L 374 479.092542 
L 377.142857 478.417635 
L 380.285714 475.338372 
L 383.428571 475.739098 
L 386.571429 473.756559 
L 389.714286 467.5207 
L 392.857143 468.891605 
L 396 472.716078 
L 399.142857 471.745899 
L 402.285714 473.580802 
L 405.428571 471.970868 
L 408.571429 471.01475 
L 411.714286 470.606994 
L 414.857143 469.425906 
L 418 468.884575 
L 421.142857 467.837063 
L 424.285714 468.00579 
L 427.428571 468.476818 
L 430.571429 467.239489 
L 433.714286 464.335983 
L 436.857143 466.325553 
L 440 461.791021 
L 443.142857 461.9949 
L 446.285714 460.01236 
L 449.428571 461.7629 
L 452.571429 461.362174 
L 455.714286 462.613564 
L 458.857143 464.033681 
L 465.142857 462.880715 
L 468.285714 463.407986 
L 471.428571 466.993429 
L 474.571429 465.432707 
L 477.714286 461.924597 
L 480.857143 460.237329 
L 484 462.030051 
L 487.142857 464.181317 
L 490.285714 462.887745 
L 493.428571 463.604834 
L 496.571429 463.429077 
L 499.714286 459.850664 
L 502.857143 459.344484 
L 506 461.186417 
L 509.142857 460.673207 
L 512.285714 462.381565 
L 515.428571 465.341313 
L 518.571429 466.613794 
L 521.714286 466.705188 
L 524.857143 464.490649 
L 528 469.362634 
L 531.142857 469.75633 
L 534.285714 470.424206 
L 537.428571 472.301291 
L 540.571429 471.302991 
L 543.714286 472.969168 
L 546.857143 472.350503 
L 550 471.099113 
L 553.142857 470.895235 
L 556.285714 467.738639 
L 559.428571 466.733309 
L 562.571429 471.626384 
L 565.714286 471.809172 
L 568.857143 474.649405 
L 572 476.104673 
L 575.142857 476.224188 
L 578.285714 476.969398 
L 581.428571 480.519689 
L 584.571429 481.384414 
L 587.714286 482.670955 
L 590.857143 485.04016 
L 594 486.952396 
L 597.142857 486.031429 
L 600.285714 485.412765 
L 603.428571 487.107062 
L 609.714286 481.482838 
L 612.857143 480.062721 
L 616 481.52502 
L 622.285714 483.922345 
L 625.428571 486.059551 
L 628.571429 486.692276 
L 631.714286 482.178836 
L 634.857143 483.613013 
L 638 481.764049 
L 641.142857 480.414235 
L 644.285714 480.948537 
L 647.428571 480.379084 
L 650.571429 478.164545 
L 653.714286 478.164545 
L 656.857143 475.345403 
L 660 469.053301 
L 663.142857 468.378395 
L 666.285714 464.828103 
L 669.428571 466.360704 
L 672.571429 466.5224 
L 678.857143 475.085282 
L 682 473.51753 
L 685.142857 471.324082 
L 688.285714 470.142995 
L 691.428571 475.661765 
L 694.571429 467.478519 
L 697.714286 467.879245 
L 700.857143 466.571612 
L 704 464.371134 
L 707.142857 464.26568 
L 710.285714 463.668106 
L 713.428571 463.801682 
L 716.571429 466.951248 
L 719.714286 464.132105 
L 722.857143 463.147866 
L 726 461.699628 
L 729.142857 463.478289 
L 732.285714 465.024951 
L 735.428571 459.442908 
L 738.571429 459.442908 
L 741.714286 458.936727 
L 744.857143 461.776961 
L 748 465.01089 
L 751.142857 465.903736 
L 754.285714 464.996829 
L 757.428571 465.278041 
L 760.571429 461.137205 
L 763.714286 462.226899 
L 766.857143 462.030051 
L 770 465.833433 
L 773.142857 466.550522 
L 776.285714 468.00579 
L 779.428571 467.626154 
L 782.571429 466.606764 
L 785.714286 467.837063 
L 788.857143 467.295731 
L 788.857143 467.295731 
" clip-path="url(#pbc1caeadc1)" style="fill: none; stroke: #000000; stroke-width: 1.5; stroke-linecap: square"/>
   </g>
   <g id="line2d_2">
    <path d="M 0 459 
L 3.142857 459 
L 6.285714 458.409457 
L 9.428571 458.096108 
L 12.571429 458.308221 
L 15.714286 459.222248 
L 18.857143 455.257295 
L 22 452.010338 
L 25.142857 453.009879 
L 28.285714 453.760601 
L 31.428571 457.091248 
L 34.571429 460.679989 
L 37.714286 460.987226 
L 40.857143 460.669898 
L 47.142857 460.935367 
L 50.285714 460.648504 
L 56.571429 461.090668 
L 62.857143 467.147351 
L 66 468.586739 
L 69.142857 467.93976 
L 72.285714 467.517006 
L 75.428571 459.596361 
L 78.571429 450.842094 
L 81.714286 439.324797 
L 84.857143 430.311552 
L 88 429.884735 
L 91.142857 432.994667 
L 94.285714 435.865184 
L 97.428571 436.478441 
L 100.571429 433.781585 
L 103.714286 438.000994 
L 106.857143 441.088914 
L 110 441.958909 
L 116.285714 437.58602 
L 119.428571 440.944395 
L 122.571429 444.657935 
L 125.714286 447.976985 
L 128.857143 455.29901 
L 132 457.52803 
L 135.142857 456.559688 
L 138.285714 459.140192 
L 141.428571 462.141571 
L 144.571429 463.809374 
L 147.714286 465.081744 
L 150.857143 468.165115 
L 154 473.083637 
L 157.142857 475.188338 
L 160.285714 473.402619 
L 163.428571 473.137095 
L 166.571429 473.439121 
L 169.714286 472.311988 
L 172.857143 469.696393 
L 176 466.356954 
L 179.142857 464.116445 
L 182.285714 461.000211 
L 188.571429 459.268309 
L 191.714286 460.146349 
L 194.857143 459.662252 
L 198 459.032973 
L 201.142857 455.701449 
L 204.285714 446.231178 
L 207.428571 445.932751 
L 210.571429 448.081305 
L 213.714286 444.305864 
L 216.857143 440.944312 
L 220 441.018966 
L 223.142857 448.54902 
L 226.285714 455.353511 
L 229.428571 457.908241 
L 232.571429 459.843082 
L 235.714286 461.625769 
L 242 462.153701 
L 245.142857 462.162413 
L 248.285714 461.264192 
L 251.428571 460.073593 
L 254.571429 459.952314 
L 257.714286 462.81055 
L 260.857143 463.606902 
L 264 467.130754 
L 267.142857 464.300887 
L 270.285714 460.575031 
L 273.428571 461.372871 
L 276.571429 462.339301 
L 279.714286 463.868759 
L 282.857143 462.518835 
L 286 465.121169 
L 289.142857 467.264136 
L 292.285714 471.818959 
L 295.428571 473.900721 
L 298.571429 473.82314 
L 301.714286 474.752598 
L 304.857143 473.357019 
L 308 473.168552 
L 311.142857 470.877122 
L 314.285714 471.14317 
L 317.428571 472.187235 
L 320.571429 472.124266 
L 323.714286 469.086937 
L 326.857143 469.304241 
L 330 468.993144 
L 333.142857 467.173515 
L 336.285714 464.744208 
L 339.428571 463.774581 
L 342.571429 464.076635 
L 345.714286 462.42314 
L 348.857143 462.455094 
L 352 462.361935 
L 355.142857 461.766512 
L 358.285714 461.828185 
L 361.428571 464.472867 
L 364.571429 468.123319 
L 367.714286 472.503929 
L 370.857143 474.256647 
L 374 474.198061 
L 377.142857 476.678234 
L 380.285714 477.581694 
L 383.428571 476.486376 
L 386.571429 476.129679 
L 389.714286 474.947075 
L 392.857143 471.215623 
L 396 470.039774 
L 399.142857 471.375224 
L 402.285714 471.546156 
L 405.428571 472.553995 
L 408.571429 472.255829 
L 411.714286 471.626026 
L 414.857143 471.110334 
L 418 470.271856 
L 421.142857 469.578202 
L 424.285714 468.698066 
L 427.428571 468.344594 
L 430.571429 468.400698 
L 433.714286 467.810817 
L 436.857143 466.060304 
L 440 466.184533 
L 443.142857 463.972807 
L 446.285714 462.970344 
L 449.428571 461.47601 
L 452.571429 461.607214 
L 455.714286 461.470744 
L 458.857143 462.033084 
L 462 463.03279 
L 465.142857 463.218196 
L 468.285714 463.051592 
L 471.428571 463.23256 
L 474.571429 465.126683 
L 477.714286 465.286891 
L 484 461.917429 
L 487.142857 461.969811 
L 490.285714 463.077067 
L 493.428571 462.98242 
L 496.571429 463.294013 
L 499.714286 463.354556 
L 502.857143 461.591665 
L 506 460.463015 
L 509.142857 460.826577 
L 512.285714 460.747232 
L 515.428571 461.560869 
L 518.571429 463.455902 
L 521.714286 465.040748 
L 524.857143 465.879392 
L 528 465.194118 
L 531.142857 467.29802 
L 534.285714 468.543978 
L 537.428571 469.503212 
L 540.571429 470.921702 
L 543.714286 471.124036 
L 546.857143 472.059064 
L 550 472.215853 
L 553.142857 471.670441 
L 556.285714 471.285843 
L 559.428571 469.508285 
L 562.571429 468.11356 
L 565.714286 469.868649 
L 568.857143 470.839903 
L 572 472.747948 
L 575.142857 474.433672 
L 581.428571 476.166098 
L 584.571429 478.367955 
L 587.714286 479.904912 
L 590.857143 481.30959 
L 597.142857 485.100731 
L 600.285714 485.585544 
L 603.428571 485.517171 
L 606.571429 486.331995 
L 609.714286 485.320875 
L 612.857143 483.402049 
L 616 481.727271 
L 619.142857 481.619253 
L 622.285714 482.182585 
L 625.428571 483.04833 
L 628.571429 484.555208 
L 631.714286 485.622929 
L 634.857143 483.896733 
L 638 483.75905 
L 641.142857 482.764885 
L 644.285714 481.587382 
L 647.428571 481.264403 
L 650.571429 480.814796 
L 653.714286 479.47419 
L 656.857143 478.802647 
L 660 477.060626 
L 663.142857 473.028415 
L 666.285714 470.677158 
L 669.428571 467.72207 
L 672.571429 467.012783 
L 675.714286 466.740422 
L 678.857143 468.718881 
L 682 471.896044 
L 685.142857 472.703203 
L 688.285714 472.018095 
L 691.428571 471.084005 
L 694.571429 473.394128 
L 697.714286 470.438515 
L 704 467.858429 
L 707.142857 466.093774 
L 710.285714 465.161586 
L 713.428571 464.399835 
L 716.571429 464.088324 
L 719.714286 465.502706 
L 722.857143 464.810844 
L 726 463.970078 
L 729.142857 462.8253 
L 732.285714 463.150044 
L 735.428571 464.088986 
L 738.571429 461.757662 
L 741.714286 460.591738 
L 744.857143 459.769692 
L 748 460.768708 
L 751.142857 462.893452 
L 754.285714 464.406837 
L 760.571429 464.991922 
L 763.714286 463.067886 
L 770 462.347434 
L 773.142857 464.098387 
L 779.428571 466.670753 
L 782.571429 467.153609 
L 785.714286 466.882792 
L 788.857143 467.373064 
L 788.857143 467.373064 
" clip-path="url(#pbc1caeadc1)" style="fill: none; stroke: #000000; stroke-width: 1.5; stroke-linecap: square"/>
   </g>
   <g id="line2d_3">
    <path d="M 0 459 
L 3.142857 459 
L 6.285714 458.481102 
L 9.428571 458.200188 
L 12.571429 458.314859 
L 15.714286 459.082993 
L 22 454.018858 
L 25.142857 454.013487 
L 28.285714 454.171422 
L 31.428571 456.058451 
L 34.571429 459.504948 
L 37.714286 460.034542 
L 40.857143 460.127915 
L 47.142857 460.55877 
L 50.285714 460.497328 
L 56.571429 460.858254 
L 59.714286 462.73304 
L 62.857143 464.901888 
L 66 466.40355 
L 69.142857 466.669192 
L 72.285714 466.79998 
L 75.428571 462.373649 
L 78.571429 459.621856 
L 84.857143 442.433118 
L 88 438.659401 
L 91.142857 437.944824 
L 94.285714 438.199057 
L 97.428571 437.895313 
L 100.571429 435.870255 
L 106.857143 439.555039 
L 110 440.442455 
L 113.142857 439.52473 
L 116.285714 438.257327 
L 119.428571 439.976424 
L 122.571429 442.382042 
L 125.714286 444.985283 
L 128.857143 450.150669 
L 132 452.982483 
L 135.142857 453.770991 
L 138.285714 456.272541 
L 141.428571 460.156005 
L 144.571429 461.716599 
L 147.714286 463.079136 
L 150.857143 465.479595 
L 154 469.155153 
L 157.142857 471.544652 
L 160.285714 471.570715 
L 163.428571 471.961174 
L 166.571429 472.498545 
L 169.714286 472.126799 
L 172.857143 470.661344 
L 176 468.4395 
L 179.142857 466.537466 
L 182.285714 464.023582 
L 188.571429 461.424105 
L 191.714286 461.316931 
L 198 460.026243 
L 201.142857 459.062562 
L 204.285714 452.56243 
L 207.428571 450.46644 
L 210.571429 450.35544 
L 216.857143 444.499606 
L 220 443.460747 
L 223.142857 447.126883 
L 226.285714 451.507113 
L 229.428571 454.094422 
L 232.571429 457.320751 
L 235.714286 459.891582 
L 242 461.081726 
L 245.142857 461.393714 
L 248.285714 461.092226 
L 251.428571 460.448888 
L 254.571429 460.276918 
L 257.714286 461.863589 
L 260.857143 462.615813 
L 264 464.980891 
L 267.142857 463.964946 
L 270.285714 461.891218 
L 273.428571 461.975752 
L 276.571429 462.36397 
L 279.714286 463.253108 
L 282.857143 462.647974 
L 289.142857 465.689509 
L 292.285714 468.817794 
L 295.428571 470.910235 
L 298.571429 471.742757 
L 301.714286 472.901606 
L 304.857143 472.632609 
L 308 472.729255 
L 311.142857 471.519437 
L 314.285714 471.485765 
L 317.428571 472.014067 
L 320.571429 472.049767 
L 323.714286 470.305612 
L 326.857143 470.090144 
L 330 469.685256 
L 333.142857 468.43012 
L 336.285714 466.640015 
L 339.428571 465.519037 
L 342.571429 465.181508 
L 345.714286 463.884903 
L 355.142857 462.537579 
L 358.285714 462.339194 
L 361.428571 463.731571 
L 364.571429 466.077242 
L 367.714286 469.232483 
L 370.857143 471.20445 
L 374 472.059989 
L 377.142857 474.130742 
L 380.285714 475.397512 
L 383.428571 475.391624 
L 386.571429 475.508788 
L 389.714286 475.008113 
L 392.857143 472.818669 
L 396 471.677737 
L 399.142857 471.993593 
L 402.285714 471.931898 
L 405.428571 472.429071 
L 408.571429 472.30643 
L 414.857143 471.543041 
L 427.428571 469.106028 
L 430.571429 468.910319 
L 433.714286 468.411642 
L 436.857143 467.204811 
L 440 466.938747 
L 443.142857 465.424432 
L 446.285714 464.412024 
L 449.428571 463.108801 
L 455.714286 462.296338 
L 458.857143 462.378504 
L 462 462.855276 
L 465.142857 463.010959 
L 468.285714 462.965294 
L 471.428571 463.088665 
L 474.571429 464.231375 
L 477.714286 464.580281 
L 480.857143 463.794924 
L 484 462.744886 
L 487.142857 462.532867 
L 490.285714 463.013224 
L 493.428571 462.977732 
L 499.714286 463.245037 
L 502.857143 462.248652 
L 506 461.395723 
L 509.142857 461.33278 
L 512.285714 461.135735 
L 515.428571 461.499443 
L 521.714286 463.79876 
L 524.857143 464.649702 
L 528 464.602034 
L 531.142857 466.004925 
L 534.285714 467.114619 
L 537.428571 468.093617 
L 540.571429 469.335343 
L 543.714286 469.921319 
L 546.857143 470.824769 
L 550 471.281894 
L 556.285714 471.153192 
L 562.571429 469.163743 
L 565.714286 469.895653 
L 568.857143 470.463538 
L 575.142857 473.000032 
L 581.428571 474.848644 
L 584.571429 476.522018 
L 590.857143 479.350847 
L 597.142857 482.782803 
L 600.285714 483.750018 
L 603.428571 484.253466 
L 606.571429 485.107886 
L 609.714286 484.888799 
L 612.857143 483.908157 
L 616 482.791545 
L 619.142857 482.431748 
L 622.285714 482.537897 
L 625.428571 482.952372 
L 631.714286 484.710438 
L 634.857143 483.970855 
L 638 483.868605 
L 641.142857 483.251153 
L 644.285714 482.414926 
L 650.571429 481.503574 
L 653.714286 480.51727 
L 656.857143 479.817901 
L 660 478.497657 
L 663.142857 475.717193 
L 666.285714 473.554288 
L 669.428571 470.979269 
L 672.571429 469.607684 
L 675.714286 468.68404 
L 678.857143 469.264653 
L 682 470.956144 
L 685.142857 471.696408 
L 688.285714 471.573241 
L 691.428571 471.140984 
L 694.571429 472.459632 
L 697.714286 470.985226 
L 704 469.025771 
L 707.142857 467.646616 
L 710.285714 466.643637 
L 713.428571 465.765939 
L 716.571429 465.185364 
L 719.714286 465.705018 
L 722.857143 465.241763 
L 726 464.624599 
L 729.142857 463.757526 
L 732.285714 463.662408 
L 735.428571 464.051733 
L 738.571429 462.688192 
L 741.714286 461.72538 
L 744.857143 460.901796 
L 748 461.151577 
L 754.285714 463.339645 
L 760.571429 464.252273 
L 763.714286 463.336984 
L 770 462.717354 
L 779.428571 465.527499 
L 782.571429 466.146945 
L 785.714286 466.28344 
L 788.857143 466.748127 
L 788.857143 466.748127 
" clip-path="url(#pbc1caeadc1)" style="fill: none; stroke: #000000; stroke-width: 1.5; stroke-linecap: square"/>
   </g>
   <g id="line2d_4">
    <path d="M 0 459 
L 3.142857 459 
L 6.285714 458.518813 
L 9.428571 458.260683 
L 12.571429 458.334869 
L 15.714286 459.016717 
L 22 455.196923 
L 25.142857 454.943359 
L 28.285714 454.85986 
L 31.428571 455.933082 
L 34.571429 458.737116 
L 37.714286 459.343764 
L 56.571429 460.398619 
L 59.714286 461.526712 
L 62.857143 462.933733 
L 66 464.086435 
L 69.142857 464.604008 
L 72.285714 465.003909 
L 75.428571 462.855162 
L 78.571429 461.265672 
L 81.714286 459.235147 
L 84.857143 453.56676 
L 88 449.734627 
L 91.142857 447.585293 
L 97.428571 444.769623 
L 100.571429 442.5855 
L 103.714286 442.516753 
L 106.857143 442.762301 
L 110 442.750246 
L 113.142857 441.905358 
L 116.285714 440.857099 
L 119.428571 441.397969 
L 122.571429 442.500115 
L 125.714286 443.884828 
L 128.857143 446.856689 
L 132 448.89827 
L 135.142857 449.945365 
L 138.285714 451.889981 
L 141.428571 455.935621 
L 144.571429 459.167372 
L 147.714286 460.307291 
L 150.857143 462.045613 
L 154 464.5838 
L 157.142857 466.604591 
L 163.428571 468.261105 
L 166.571429 469.129942 
L 169.714286 469.455742 
L 172.857143 469.077406 
L 179.142857 467.146655 
L 182.285714 465.690761 
L 188.571429 463.705132 
L 191.714286 463.292512 
L 198 461.983684 
L 201.142857 461.162177 
L 204.285714 459.643706 
L 207.428571 458.504087 
L 210.571429 457.198465 
L 216.857143 451.873809 
L 220 450.167411 
L 223.142857 451.114333 
L 226.285714 452.872119 
L 229.428571 454.063731 
L 232.571429 455.818777 
L 235.714286 458.425791 
L 238.857143 459.327985 
L 242 459.8155 
L 245.142857 460.182564 
L 248.285714 460.206577 
L 251.428571 459.989034 
L 254.571429 459.952368 
L 257.714286 460.851764 
L 260.857143 461.411713 
L 264 462.875579 
L 267.142857 462.645055 
L 270.285714 461.717278 
L 273.428571 461.785227 
L 276.571429 462.024548 
L 279.714286 462.559995 
L 282.857143 462.343467 
L 286 463.20256 
L 289.142857 464.197345 
L 292.285714 466.134909 
L 295.428571 467.700224 
L 298.571429 468.664384 
L 301.714286 469.784974 
L 308 470.595867 
L 311.142857 470.283292 
L 314.285714 470.472756 
L 317.428571 470.926889 
L 320.571429 471.121638 
L 323.714286 470.324437 
L 326.857143 470.206423 
L 330 469.971675 
L 333.142857 469.244399 
L 336.285714 468.145137 
L 339.428571 467.30132 
L 342.571429 466.843083 
L 345.714286 465.88298 
L 355.142857 464.281353 
L 358.285714 463.900691 
L 361.428571 464.411219 
L 364.571429 465.577772 
L 367.714286 467.378552 
L 370.857143 468.754206 
L 374 469.611232 
L 377.142857 471.129604 
L 380.285714 472.297292 
L 386.571429 473.264195 
L 389.714286 473.345243 
L 392.857143 472.41305 
L 396 471.848398 
L 399.142857 471.985835 
L 402.285714 471.945234 
L 405.428571 472.206486 
L 408.571429 472.168397 
L 414.857143 471.766407 
L 421.142857 470.990768 
L 427.428571 470.093876 
L 430.571429 469.83646 
L 433.714286 469.424431 
L 436.857143 468.616086 
L 440 468.25383 
L 443.142857 467.223938 
L 446.285714 466.392716 
L 449.428571 465.376026 
L 455.714286 464.253829 
L 458.857143 463.9933 
L 465.142857 463.899894 
L 468.285714 463.729032 
L 471.428571 463.670127 
L 474.571429 464.194446 
L 477.714286 464.382935 
L 480.857143 463.981514 
L 484 463.376379 
L 487.142857 463.153619 
L 490.285714 463.311156 
L 493.428571 463.240899 
L 499.714286 463.310961 
L 506 462.201805 
L 512.285714 461.81064 
L 515.428571 461.896344 
L 518.571429 462.441903 
L 524.857143 463.676465 
L 528 463.803811 
L 534.285714 465.496626 
L 537.428571 466.284421 
L 540.571429 467.245455 
L 543.714286 467.896958 
L 546.857143 468.710812 
L 550 469.297598 
L 556.285714 469.803658 
L 562.571429 469.04325 
L 568.857143 469.838794 
L 581.428571 473.01087 
L 594 477.90919 
L 597.142857 479.362564 
L 600.285714 480.437707 
L 603.428571 481.245205 
L 606.571429 482.19517 
L 609.714286 482.543671 
L 612.857143 482.387872 
L 616 482.028964 
L 619.142857 481.958882 
L 622.285714 482.096793 
L 625.428571 482.397987 
L 631.714286 483.593232 
L 634.857143 483.375947 
L 638 483.421894 
L 641.142857 483.164029 
L 644.285714 482.732212 
L 650.571429 482.128379 
L 656.857143 480.975642 
L 660 480.084597 
L 663.142857 478.330926 
L 666.285714 476.745416 
L 669.428571 474.844973 
L 672.571429 473.489924 
L 675.714286 472.375387 
L 678.857143 472.109614 
L 682 472.581878 
L 685.142857 472.726375 
L 688.285714 472.496988 
L 691.428571 472.114643 
L 694.571429 472.673151 
L 697.714286 471.834516 
L 704 470.446715 
L 707.142857 469.465883 
L 713.428571 467.826079 
L 716.571429 467.175637 
L 719.714286 467.130843 
L 726 466.0732 
L 729.142857 465.36215 
L 732.285714 465.047937 
L 735.428571 465.033577 
L 738.571429 464.129001 
L 744.857143 462.657567 
L 748 462.505497 
L 757.428571 463.616962 
L 760.571429 463.874964 
L 763.714286 463.434438 
L 770 463.044465 
L 776.285714 463.975167 
L 779.428571 464.614756 
L 782.571429 465.089226 
L 785.714286 465.32636 
L 788.857143 465.723646 
L 788.857143 465.723646 
" clip-path="url(#pbc1caeadc1)" style="fill: none; stroke: #000000; stroke-width: 1.5; stroke-linecap: square"/>
   </g>
   <g id="line2d_5">
    <path d="M 0 459 
L 3.142857 459 
L 6.285714 458.537917 
L 9.428571 458.292505 
L 12.571429 458.349551 
L 15.714286 458.961151 
L 22 455.774251 
L 25.142857 455.480008 
L 28.285714 455.334226 
L 31.428571 456.061528 
L 34.571429 458.070843 
L 37.714286 459.023391 
L 56.571429 459.970847 
L 59.714286 460.716738 
L 62.857143 461.662116 
L 66 462.486852 
L 72.285714 463.348621 
L 75.428571 462.24463 
L 78.571429 461.377667 
L 81.714286 460.196726 
L 84.857143 458.814187 
L 88 456.160176 
L 91.142857 454.367167 
L 97.428571 451.580359 
L 100.571429 449.765761 
L 103.714286 449.101085 
L 110 448.147958 
L 116.285714 446.202862 
L 119.428571 446.037407 
L 122.571429 446.234369 
L 125.714286 446.661251 
L 128.857143 448.017658 
L 132 449.012729 
L 135.142857 449.567822 
L 138.285714 450.638345 
L 144.571429 455.041615 
L 150.857143 459.48689 
L 154 461.040059 
L 157.142857 462.401017 
L 166.571429 464.796176 
L 169.714286 465.3295 
L 172.857143 465.475848 
L 179.142857 464.994157 
L 182.285714 464.406449 
L 188.571429 463.523944 
L 191.714286 463.319568 
L 198 462.599686 
L 201.142857 462.115822 
L 204.285714 461.242745 
L 207.428571 460.686494 
L 210.571429 460.304135 
L 216.857143 459.035329 
L 220 457.613111 
L 223.142857 457.489024 
L 226.285714 457.876136 
L 229.428571 458.085092 
L 235.714286 459.261754 
L 245.142857 459.936211 
L 248.285714 459.970886 
L 254.571429 459.875863 
L 257.714286 460.356561 
L 260.857143 460.691169 
L 264 461.515481 
L 267.142857 461.509322 
L 270.285714 461.120878 
L 276.571429 461.382444 
L 279.714286 461.717961 
L 282.857143 461.677928 
L 289.142857 462.791842 
L 292.285714 463.922355 
L 295.428571 464.924785 
L 301.714286 466.496456 
L 308 467.456398 
L 311.142857 467.554724 
L 314.285714 467.880352 
L 317.428571 468.332655 
L 320.571429 468.649218 
L 323.714286 468.439403 
L 330 468.551465 
L 333.142857 468.290539 
L 339.428571 467.387361 
L 342.571429 467.140307 
L 345.714286 466.613731 
L 358.285714 465.232982 
L 361.428571 465.386391 
L 364.571429 465.913269 
L 367.714286 466.820815 
L 370.857143 467.580059 
L 374 468.122975 
L 377.142857 469.038626 
L 380.285714 469.822409 
L 386.571429 470.743778 
L 389.714286 470.998821 
L 392.857143 470.71225 
L 396 470.56429 
L 405.428571 471.07027 
L 411.714286 471.14426 
L 418 470.971756 
L 424.285714 470.560656 
L 433.714286 469.955005 
L 436.857143 469.48896 
L 440 469.227796 
L 449.428571 467.393132 
L 455.714286 466.465441 
L 458.857143 466.144762 
L 471.428571 465.344068 
L 474.571429 465.48253 
L 477.714286 465.479093 
L 480.857143 465.18296 
L 484 464.772184 
L 487.142857 464.542749 
L 493.428571 464.371951 
L 499.714286 464.228298 
L 506 463.480981 
L 515.428571 463.00739 
L 521.714286 463.4802 
L 524.857143 463.748064 
L 528 463.808051 
L 537.428571 465.201653 
L 540.571429 465.793975 
L 553.142857 467.597475 
L 556.285714 467.874331 
L 562.571429 467.770927 
L 568.857143 468.397845 
L 575.142857 469.513538 
L 581.428571 470.641748 
L 590.857143 473.153118 
L 600.285714 476.116324 
L 606.571429 477.744523 
L 609.714286 478.292193 
L 612.857143 478.56041 
L 616 478.688174 
L 622.285714 479.250347 
L 625.428571 479.64334 
L 631.714286 480.728013 
L 641.142857 481.149691 
L 650.571429 481.036479 
L 656.857143 480.589908 
L 660 480.158779 
L 666.285714 478.338957 
L 669.428571 477.218245 
L 675.714286 475.504919 
L 678.857143 475.110053 
L 682 475.112281 
L 685.142857 474.984245 
L 691.428571 474.308589 
L 694.571429 474.425055 
L 710.285714 471.448344 
L 716.571429 470.222923 
L 719.714286 469.951911 
L 726 468.942373 
L 729.142857 468.340346 
L 732.285714 467.934899 
L 735.428571 467.691845 
L 741.714286 466.371947 
L 744.857143 465.754344 
L 748 465.420594 
L 760.571429 465.378184 
L 763.714286 465.024379 
L 770 464.556964 
L 776.285714 464.813829 
L 782.571429 465.28468 
L 788.857143 465.588576 
L 788.857143 465.588576 
" clip-path="url(#pbc1caeadc1)" style="fill: none; stroke: #000000; stroke-width: 1.5; stroke-linecap: square"/>
   </g>
   <g id="line2d_6">
    <path d="M 0 459 
L 3.142857 459 
L 6.285714 458.5475 
L 9.428571 458.308718 
L 12.571429 458.358043 
L 15.714286 458.920194 
L 22 456.050634 
L 25.142857 455.754034 
L 28.285714 455.593155 
L 31.428571 456.174366 
L 34.571429 457.825492 
L 37.714286 458.665173 
L 40.857143 459.03228 
L 50.285714 459.451606 
L 56.571429 459.718426 
L 59.714286 460.28582 
L 66 461.640994 
L 72.285714 462.36808 
L 75.428571 461.669051 
L 78.571429 461.113135 
L 84.857143 459.480063 
L 88 458.58325 
L 91.142857 457.262878 
L 97.428571 455.106126 
L 100.571429 453.747854 
L 103.714286 453.104922 
L 110 452.074142 
L 116.285714 450.449104 
L 119.428571 450.125188 
L 122.571429 450.031837 
L 125.714286 450.092934 
L 128.857143 450.728187 
L 132 451.181855 
L 135.142857 451.400611 
L 138.285714 451.937551 
L 147.714286 455.714459 
L 154 459.482105 
L 157.142857 460.331615 
L 169.714286 462.440884 
L 172.857143 462.657465 
L 179.142857 462.641557 
L 185.428571 462.287159 
L 188.571429 462.109556 
L 194.857143 461.933193 
L 201.142857 461.549334 
L 204.285714 461.1018 
L 220 459.572673 
L 226.285714 459.527889 
L 232.571429 459.591029 
L 238.857143 459.859736 
L 245.142857 460.066508 
L 254.571429 460.018446 
L 260.857143 460.444533 
L 264 460.887628 
L 267.142857 460.913159 
L 270.285714 460.737502 
L 276.571429 460.907306 
L 279.714286 461.10088 
L 282.857143 461.104582 
L 289.142857 461.736724 
L 295.428571 462.950098 
L 304.857143 464.283905 
L 308 464.655972 
L 311.142857 464.82475 
L 320.571429 465.740705 
L 323.714286 465.755236 
L 330 466.036719 
L 333.142857 466.008741 
L 339.428571 465.722704 
L 342.571429 465.666692 
L 348.857143 465.332733 
L 358.285714 464.898452 
L 361.428571 464.992387 
L 364.571429 465.280307 
L 370.857143 466.207398 
L 374 466.543704 
L 380.285714 467.56198 
L 389.714286 468.463111 
L 396 468.442931 
L 408.571429 469.094252 
L 418 469.249785 
L 430.571429 469.105209 
L 433.714286 469.0274 
L 446.285714 468.157138 
L 452.571429 467.555436 
L 458.857143 467.094739 
L 474.571429 466.527674 
L 477.714286 466.483533 
L 490.285714 465.800583 
L 502.857143 465.265178 
L 509.142857 464.854011 
L 515.428571 464.582333 
L 528 464.778988 
L 537.428571 465.403772 
L 550 466.496521 
L 556.285714 466.868689 
L 562.571429 466.895956 
L 572 467.608154 
L 581.428571 468.691145 
L 590.857143 470.270021 
L 606.571429 473.381126 
L 609.714286 473.848781 
L 628.571429 475.914448 
L 631.714286 476.375921 
L 644.285714 477.275594 
L 650.571429 477.562615 
L 656.857143 477.61869 
L 660 477.523922 
L 666.285714 476.792649 
L 672.571429 475.866729 
L 675.714286 475.471285 
L 678.857143 475.271359 
L 685.142857 475.193044 
L 691.428571 474.822558 
L 694.571429 474.858029 
L 707.142857 473.526121 
L 716.571429 472.350214 
L 722.857143 471.780277 
L 732.285714 470.680859 
L 735.428571 470.441007 
L 744.857143 469.079068 
L 748 468.769643 
L 763.714286 467.917918 
L 770 467.433265 
L 776.285714 467.328023 
L 788.857143 467.351177 
L 788.857143 467.351177 
" clip-path="url(#pbc1caeadc1)" style="fill: none; stroke: #000000; stroke-width: 1.5; stroke-linecap: square"/>
   </g>
   <g id="line2d_7">
    <path d="M 0 459 
L 3.142857 459 
L 6.285714 458.552296 
L 9.428571 458.316887 
L 12.571429 458.362568 
L 15.714286 458.900699 
L 22 456.184638 
L 25.142857 455.890628 
L 28.285714 455.725883 
L 31.428571 456.241578 
L 34.571429 457.726868 
L 37.714286 458.487735 
L 40.857143 458.886027 
L 47.142857 459.268314 
L 56.571429 459.589541 
L 59.714286 460.074515 
L 66 461.230613 
L 72.285714 461.872168 
L 88 459.13896 
L 94.285714 457.482804 
L 97.428571 456.596548 
L 100.571429 455.502877 
L 106.857143 454.499831 
L 110 454.025699 
L 116.285714 452.67377 
L 119.428571 452.353151 
L 122.571429 452.201977 
L 125.714286 452.165603 
L 128.857143 452.543365 
L 132 452.799897 
L 135.142857 452.89682 
L 138.285714 453.22068 
L 147.714286 455.74598 
L 150.857143 457.066047 
L 154 458.990277 
L 157.142857 459.587201 
L 169.714286 461.118884 
L 172.857143 461.302293 
L 179.142857 461.373191 
L 188.571429 461.133123 
L 194.857143 461.07611 
L 201.142857 460.879955 
L 207.428571 460.446677 
L 213.714286 460.117286 
L 220 459.70234 
L 229.428571 459.66144 
L 238.857143 459.856494 
L 248.285714 459.991668 
L 254.571429 459.959473 
L 267.142857 460.507873 
L 270.285714 460.415592 
L 282.857143 460.6658 
L 289.142857 461.053821 
L 298.571429 462.080601 
L 304.857143 462.645005 
L 308 462.895457 
L 314.285714 463.236003 
L 320.571429 463.684505 
L 326.857143 463.880962 
L 333.142857 464.028998 
L 358.285714 463.722703 
L 364.571429 463.986662 
L 380.285714 465.416753 
L 389.714286 466.059284 
L 396 466.156996 
L 411.714286 466.814973 
L 421.142857 467.002151 
L 436.857143 467.017575 
L 443.142857 466.884808 
L 465.142857 466.199566 
L 474.571429 466.085612 
L 480.857143 465.978878 
L 487.142857 465.766473 
L 499.714286 465.574015 
L 512.285714 465.120981 
L 518.571429 465.066739 
L 534.285714 465.315032 
L 546.857143 465.863199 
L 556.285714 466.221684 
L 565.714286 466.382612 
L 572 466.679297 
L 584.571429 467.593013 
L 594 468.582527 
L 606.571429 470.082214 
L 612.857143 470.632589 
L 622.285714 471.323892 
L 641.142857 472.887255 
L 653.714286 473.48054 
L 660 473.620195 
L 669.428571 473.224249 
L 678.857143 472.886221 
L 685.142857 472.946396 
L 700.857143 472.688653 
L 710.285714 472.204619 
L 732.285714 471.016353 
L 735.428571 470.887157 
L 748 469.972337 
L 766.857143 469.245848 
L 773.142857 469.020326 
L 788.857143 468.846094 
L 788.857143 468.846094 
" clip-path="url(#pbc1caeadc1)" style="fill: none; stroke: #000000; stroke-width: 1.5; stroke-linecap: square"/>
   </g>
   <g id="line2d_8">
    <path d="M 0 459 
L 3.142857 459 
L 6.285714 458.554694 
L 9.428571 458.320986 
L 12.571429 458.364899 
L 15.714286 458.891208 
L 22 456.250467 
L 25.142857 455.958587 
L 28.285714 455.792759 
L 31.428571 456.277618 
L 34.571429 457.683636 
L 37.714286 458.405828 
L 44 459.07591 
L 53.428571 459.410308 
L 56.571429 459.525593 
L 59.714286 459.971554 
L 66 461.032182 
L 72.285714 461.628523 
L 91.142857 458.791665 
L 97.428571 457.235014 
L 100.571429 456.272955 
L 106.857143 455.361262 
L 110 454.930335 
L 116.285714 453.730967 
L 119.428571 453.429219 
L 125.714286 453.206894 
L 132 453.670319 
L 135.142857 453.724446 
L 138.285714 453.964836 
L 147.714286 455.958616 
L 150.857143 457.011159 
L 154 458.548896 
L 157.142857 459.32295 
L 169.714286 460.566699 
L 176 460.778083 
L 182.285714 460.739503 
L 201.142857 460.50535 
L 207.428571 460.194602 
L 213.714286 459.959136 
L 220 459.657403 
L 229.428571 459.629525 
L 257.714286 459.963761 
L 270.285714 460.197033 
L 282.857143 460.388043 
L 289.142857 460.66584 
L 301.714286 461.631094 
L 320.571429 462.578428 
L 342.571429 462.8942 
L 358.285714 462.808775 
L 364.571429 463.007167 
L 383.428571 464.175763 
L 389.714286 464.482181 
L 399.142857 464.706611 
L 421.142857 465.307101 
L 440 465.445093 
L 471.428571 465.04975 
L 480.857143 465.038512 
L 490.285714 464.925804 
L 512.285714 464.627928 
L 521.714286 464.634297 
L 537.428571 464.855694 
L 556.285714 465.368828 
L 568.857143 465.572684 
L 581.428571 466.0835 
L 594 466.879003 
L 609.714286 468.024408 
L 653.714286 470.23838 
L 660 470.393845 
L 672.571429 470.240792 
L 678.857143 470.202733 
L 688.285714 470.311777 
L 707.142857 470.196093 
L 741.714286 469.336977 
L 751.142857 469.081431 
L 766.857143 468.786485 
L 776.285714 468.65033 
L 788.857143 468.598881 
L 788.857143 468.598881 
" clip-path="url(#pbc1caeadc1)" style="fill: none; stroke: #000000; stroke-width: 1.5; stroke-linecap: square"/>
   </g>
   <g id="line2d_9">
    <path d="M 0 459 
L 3.142857 459 
L 6.285714 458.555893 
L 9.428571 458.323039 
L 12.571429 458.366081 
L 15.714286 458.886528 
L 22 456.283073 
L 25.142857 455.992453 
L 28.285714 455.826286 
L 31.428571 456.29621 
L 34.571429 457.663535 
L 37.714286 458.366627 
L 44 459.056099 
L 53.428571 459.38202 
L 56.571429 459.493894 
L 62.857143 460.456185 
L 66 460.935097 
L 72.285714 461.508516 
L 91.142857 458.981375 
L 97.428571 457.524155 
L 100.571429 456.626412 
L 106.857143 455.764038 
L 110 455.356641 
L 116.285714 454.235106 
L 119.428571 453.946032 
L 125.714286 453.715463 
L 132 454.107289 
L 135.142857 454.144566 
L 138.285714 454.349358 
L 147.714286 456.10547 
L 150.857143 457.036613 
L 154 458.398246 
L 157.142857 459.218871 
L 169.714286 460.325525 
L 176 460.520412 
L 182.285714 460.497365 
L 201.142857 460.321427 
L 207.428571 460.062391 
L 213.714286 459.866889 
L 220 459.614474 
L 232.571429 459.61637 
L 245.142857 459.795318 
L 260.857143 459.946252 
L 264 460.103992 
L 286 460.343104 
L 292.285714 460.684239 
L 304.857143 461.397618 
L 320.571429 462.042963 
L 342.571429 462.339274 
L 358.285714 462.304761 
L 364.571429 462.469204 
L 386.571429 463.5421 
L 392.857143 463.697348 
L 402.285714 463.936668 
L 414.857143 464.266029 
L 433.714286 464.511416 
L 452.571429 464.403856 
L 471.428571 464.32068 
L 480.857143 464.33366 
L 493.428571 464.259096 
L 509.142857 464.131696 
L 518.571429 464.095566 
L 537.428571 464.297351 
L 559.428571 464.713856 
L 568.857143 464.851892 
L 584.571429 465.359208 
L 600.285714 466.149632 
L 616 466.864592 
L 656.857143 468.384052 
L 666.285714 468.443745 
L 678.857143 468.402656 
L 694.571429 468.584153 
L 719.714286 468.406855 
L 741.714286 468.093226 
L 751.142857 467.956476 
L 788.857143 467.736609 
L 788.857143 467.736609 
" clip-path="url(#pbc1caeadc1)" style="fill: none; stroke: #000000; stroke-width: 1.5; stroke-linecap: square"/>
   </g>
  </g>
 </g>
 <defs>
  <clipPath id="pbc1caeadc1">
   <rect x="0" y="0" width="792" height="612"/>
  </clipPath>
 </defs>
</svg>
