<?xml version="1.0" encoding="utf-8" standalone="no"?>
<!DOCTYPE svg PUBLIC "-//W3C//DTD SVG 1.1//EN"
  "http://www.w3.org/Graphics/SVG/1.1/DTD/svg11.dtd">
<svg xmlns:xlink="http://www.w3.org/1999/xlink" width="792pt" height="612pt" viewBox="0 0 792 612" xmlns="http://www.w3.org/2000/svg" version="1.1">
 <metadata>
  <rdf:RDF xmlns:dc="http://purl.org/dc/elements/1.1/" xmlns:cc="http://creativecommons.org/ns#" xmlns:rdf="http://www.w3.org/1999/02/22-rdf-syntax-ns#">
   <cc:Work>
    <dc:type rdf:resource="http://purl.org/dc/dcmitype/StillImage"/>
    <dc:date>2023-01-30T17:16:51.583677</dc:date>
    <dc:format>image/svg+xml</dc:format>
    <dc:creator>
     <cc:Agent>
      <dc:title>Matplotlib v3.6.2, https://matplotlib.org/</dc:title>
     </cc:Agent>
    </dc:creator>
   </cc:Work>
  </rdf:RDF>
 </metadata>
 <defs>
  <style type="text/css">*{stroke-linejoin: round; stroke-linecap: butt}</style>
 </defs>
 <g id="figure_1">
  <g id="patch_1">
   <path d="M 0 612 
L 792 612 
L 792 0 
L 0 0 
z
" style="fill: #ffffff"/>
  </g>
  <g id="axes_1">
   <g id="line2d_1">
    <path d="M 0 306 
L 12.983607 299.555295 
L 25.967213 291.624395 
L 38.95082 304.456913 
L 51.934426 297.884553 
L 64.918033 309.50397 
L 77.901639 306.369701 
L 90.885246 315.609068 
L 103.868852 315.962334 
L 116.852459 302.415671 
L 129.836066 300.985373 
L 142.819672 303.299645 
L 155.803279 318.610913 
L 168.786885 287.313191 
L 181.770492 306.916213 
L 194.754098 303.010338 
L 207.737705 300.969303 
L 220.721311 305.758891 
L 233.704918 304.633722 
L 246.688525 306.305405 
L 259.672131 313.199806 
L 272.655738 299.555295 
L 285.639344 303.749686 
L 298.622951 302.688893 
L 311.606557 310.066473 
L 324.590164 309.536114 
L 337.57377 293.24467 
L 350.557377 306 
L 363.540984 304.939123 
L 376.52459 312.396505 
L 389.508197 313.392583 
L 402.491803 308.041363 
L 415.47541 303.926491 
L 428.459016 306.642958 
L 441.442623 296.535457 
L 454.42623 308.491409 
L 467.409836 305.549929 
L 480.393443 314.693673 
L 493.377049 307.639528 
L 506.360656 309.327179 
L 519.344262 305.132008 
L 532.327869 303.669321 
L 545.311475 308.812864 
L 558.295082 304.762312 
L 571.278689 305.260599 
L 584.262295 308.089582 
L 597.245902 301.065722 
L 610.229508 306.482218 
L 623.213115 306.594736 
L 636.196721 297.611494 
L 649.180328 308.411044 
L 662.163934 295.331216 
L 675.147541 304.633722 
L 688.131148 301.997812 
L 701.114754 304.376545 
L 714.098361 303.55681 
L 727.081967 306.900139 
L 740.065574 306.096444 
L 753.04918 311.689527 
L 766.032787 304.472986 
L 779.016393 299.732032 
" clip-path="url(#p114714dfe8)" style="fill: none; stroke: #000000; stroke-width: 1.5; stroke-linecap: square"/>
   </g>
   <g id="line2d_2">
    <path d="M 0 306 
L 12.983607 306 
L 25.967213 301.703177 
L 38.95082 295.941326 
L 51.934426 300.481872 
L 64.918033 299.141197 
L 77.901639 304.404355 
L 90.885246 305.394759 
L 103.868852 310.523198 
L 116.852459 313.262869 
L 129.836066 307.845457 
L 142.819672 304.43359 
L 155.803279 303.864341 
L 168.786885 311.281316 
L 181.770492 299.243416 
L 194.754098 303.080427 
L 207.737705 303.020675 
L 220.721311 301.965543 
L 233.704918 303.86869 
L 246.688525 304.258358 
L 259.672131 305.287767 
L 272.655738 309.233708 
L 285.639344 304.418147 
L 298.622951 304.077706 
L 311.606557 303.382656 
L 324.590164 306.742489 
L 337.57377 308.146753 
L 350.557377 300.670224 
L 363.540984 303.334311 
L 376.52459 304.120505 
L 389.508197 308.284099 
L 402.491803 310.857584 
L 415.47541 309.460041 
L 428.459016 306.681283 
L 441.442623 306.656447 
L 454.42623 301.601207 
L 467.409836 305.051072 
L 480.393443 305.301698 
L 493.377049 310.003133 
L 506.360656 308.810091 
L 519.344262 309.071158 
L 532.327869 307.103993 
L 545.311475 305.380807 
L 558.295082 307.120949 
L 571.278689 305.934317 
L 584.262295 305.59689 
L 597.245902 306.830297 
L 610.229508 303.934937 
L 623.213115 305.202985 
L 636.196721 305.901728 
L 649.180328 301.743953 
L 662.163934 305.076601 
L 675.147541 300.183944 
L 688.131148 302.407414 
L 701.114754 302.190668 
L 714.098361 303.290064 
L 727.081967 303.417701 
L 740.065574 305.159492 
L 753.04918 305.644608 
L 766.032787 308.673757 
L 779.016393 306.591332 
" clip-path="url(#p114714dfe8)" style="fill: none; stroke: #000000; stroke-width: 1.5; stroke-linecap: square"/>
   </g>
   <g id="line2d_3">
    <path d="M 0 306 
L 12.983607 306 
L 25.967213 302.224412 
L 38.95082 297.419084 
L 51.934426 300.166857 
L 64.918033 299.354753 
L 77.901639 302.75153 
L 90.885246 303.913968 
L 103.868852 307.568696 
L 116.852459 310.141644 
L 129.836066 307.805868 
L 142.819672 305.762931 
L 155.803279 305.029982 
L 168.786885 309.054197 
L 181.770492 302.629598 
L 194.754098 303.892031 
L 207.737705 303.632772 
L 220.721311 302.846827 
L 233.704918 303.706841 
L 246.688525 303.993269 
L 259.672131 304.672589 
L 272.655738 307.188125 
L 285.639344 304.940822 
L 298.622951 304.588932 
L 311.606557 304.017562 
L 324.590164 305.782522 
L 337.57377 306.890146 
L 350.557377 302.882523 
L 363.540984 303.798675 
L 376.52459 304.116988 
L 389.508197 306.571096 
L 402.491803 308.576865 
L 415.47541 308.4258 
L 428.459016 307.111402 
L 441.442623 306.975213 
L 454.42623 303.907325 
L 467.409836 305.252477 
L 480.393443 305.330811 
L 493.377049 308.091173 
L 506.360656 307.963358 
L 519.344262 308.370447 
L 532.327869 307.416285 
L 545.311475 306.31208 
L 558.295082 307.062452 
L 571.278689 306.387336 
L 584.262295 306.057691 
L 597.245902 306.647879 
L 610.229508 304.998621 
L 623.213115 305.431364 
L 636.196721 305.775172 
L 649.180328 303.373159 
L 662.163934 304.86234 
L 675.147541 302.054565 
L 688.131148 302.808889 
L 701.114754 302.556741 
L 714.098361 303.085982 
L 727.081967 303.217256 
L 740.065574 304.297942 
L 753.04918 304.827492 
L 766.032787 306.840826 
L 779.016393 306.146967 
" clip-path="url(#p114714dfe8)" style="fill: none; stroke: #000000; stroke-width: 1.5; stroke-linecap: square"/>
   </g>
   <g id="line2d_4">
    <path d="M 0 306 
L 12.983607 306 
L 25.967213 302.498783 
L 38.95082 298.228398 
L 51.934426 300.209903 
L 64.918033 299.57145 
L 77.901639 302.015594 
L 90.885246 303.001364 
L 103.868852 305.676534 
L 116.852459 307.749341 
L 129.836066 306.71849 
L 142.819672 305.646979 
L 155.803279 305.220146 
L 168.786885 307.602167 
L 181.770492 304.057106 
L 194.754098 304.548515 
L 207.737705 304.287463 
L 220.721311 303.730198 
L 233.704918 304.067885 
L 246.688525 304.161386 
L 259.672131 304.513504 
L 272.655738 305.93303 
L 285.639344 304.89523 
L 298.622951 304.709516 
L 311.606557 304.382913 
L 324.590164 305.299254 
L 337.57377 305.980909 
L 350.557377 303.934368 
L 363.540984 304.265598 
L 376.52459 304.373466 
L 389.508197 305.657187 
L 402.491803 306.893888 
L 415.47541 307.077174 
L 428.459016 306.574593 
L 441.442623 306.589893 
L 454.42623 304.992789 
L 467.409836 305.551955 
L 480.393443 305.556417 
L 493.377049 307.013795 
L 506.360656 307.114144 
L 519.344262 307.462338 
L 532.327869 307.084819 
L 545.311475 306.54218 
L 558.295082 306.908348 
L 571.278689 306.567819 
L 584.262295 306.351502 
L 597.245902 306.641019 
L 610.229508 305.750251 
L 623.213115 305.868876 
L 636.196721 305.987873 
L 649.180328 304.649751 
L 662.163934 305.250545 
L 675.147541 303.66485 
L 688.131148 303.813653 
L 701.114754 303.526257 
L 714.098361 303.66193 
L 727.081967 303.645746 
L 740.065574 304.16154 
L 753.04918 304.467238 
L 766.032787 305.627937 
L 779.016393 305.443226 
" clip-path="url(#p114714dfe8)" style="fill: none; stroke: #000000; stroke-width: 1.5; stroke-linecap: square"/>
   </g>
   <g id="line2d_5">
    <path d="M 0 306 
L 12.983607 306 
L 25.967213 302.637775 
L 38.95082 298.641875 
L 51.934426 300.289301 
L 64.918033 299.721548 
L 77.901639 301.723892 
L 90.885246 302.571717 
L 103.868852 304.736224 
L 116.852459 306.457395 
L 129.836066 305.878568 
L 142.819672 305.217565 
L 155.803279 304.97132 
L 168.786885 306.647316 
L 181.770492 304.361022 
L 194.754098 304.652574 
L 207.737705 304.470836 
L 220.721311 304.093748 
L 233.704918 304.268731 
L 246.688525 304.306258 
L 259.672131 304.507805 
L 272.655738 305.368895 
L 285.639344 304.802053 
L 298.622951 304.700924 
L 311.606557 304.510071 
L 324.590164 305.030949 
L 337.57377 305.44879 
L 350.557377 304.32719 
L 363.540984 304.479485 
L 376.52459 304.520997 
L 389.508197 305.22719 
L 402.491803 305.954579 
L 415.47541 306.139323 
L 428.459016 305.944498 
L 441.442623 306.005683 
L 454.42623 305.179633 
L 467.409836 305.46721 
L 480.393443 305.474365 
L 493.377049 306.269265 
L 506.360656 306.387004 
L 519.344262 306.638909 
L 532.327869 306.510153 
L 545.311475 306.268009 
L 558.295082 306.484443 
L 571.278689 306.338283 
L 584.262295 306.24699 
L 597.245902 306.402816 
L 610.229508 305.952144 
L 623.213115 305.996836 
L 636.196721 306.047181 
L 649.180328 305.337556 
L 662.163934 305.595757 
L 675.147541 304.733968 
L 688.131148 304.725563 
L 701.114754 304.497034 
L 714.098361 304.486948 
L 727.081967 304.409141 
L 740.065574 304.617372 
L 753.04918 304.740939 
L 766.032787 305.321189 
L 779.016393 305.2504 
" clip-path="url(#p114714dfe8)" style="fill: none; stroke: #000000; stroke-width: 1.5; stroke-linecap: square"/>
   </g>
   <g id="line2d_6">
    <path d="M 0 306 
L 12.983607 306 
L 25.967213 302.7075 
L 38.95082 298.849515 
L 51.934426 300.343418 
L 64.918033 299.808068 
L 77.901639 301.603621 
L 90.885246 302.376 
L 103.868852 304.291836 
L 116.852459 305.82475 
L 129.836066 305.413633 
L 142.819672 304.918314 
L 155.803279 304.749027 
L 168.786885 306.114543 
L 181.770492 304.359508 
L 194.754098 304.586338 
L 207.737705 304.4527 
L 220.721311 304.169317 
L 233.704918 304.29377 
L 246.688525 304.319464 
L 259.672131 304.464742 
L 272.655738 305.084767 
L 285.639344 304.703174 
L 298.622951 304.639087 
L 311.606557 304.51118 
L 324.590164 304.867273 
L 337.57377 305.160187 
L 350.557377 304.427108 
L 363.540984 304.522005 
L 376.52459 304.546728 
L 389.508197 305.004319 
L 402.491803 305.485681 
L 415.47541 305.630153 
L 428.459016 305.535187 
L 441.442623 305.596122 
L 454.42623 305.103766 
L 467.409836 305.285623 
L 480.393443 305.299653 
L 493.377049 305.793164 
L 506.360656 305.889167 
L 519.344262 306.066235 
L 532.327869 306.018555 
L 545.311475 305.899684 
L 558.295082 306.045893 
L 571.278689 305.981971 
L 584.262295 305.946311 
L 597.245902 306.051521 
L 610.229508 305.808384 
L 623.213115 305.841034 
L 636.196721 305.877333 
L 649.180328 305.481418 
L 662.163934 305.620941 
L 675.147541 305.133247 
L 688.131148 305.109698 
L 701.114754 304.963682 
L 714.098361 304.936258 
L 727.081967 304.872102 
L 740.065574 304.966034 
L 753.04918 305.018186 
L 766.032787 305.324857 
L 779.016393 305.285841 
" clip-path="url(#p114714dfe8)" style="fill: none; stroke: #000000; stroke-width: 1.5; stroke-linecap: square"/>
   </g>
   <g id="line2d_7">
    <path d="M 0 306 
L 12.983607 306 
L 25.967213 302.742391 
L 38.95082 298.953391 
L 51.934426 300.374 
L 64.918033 299.854238 
L 77.901639 301.550519 
L 90.885246 302.284424 
L 103.868852 304.079269 
L 116.852459 305.517266 
L 129.836066 305.175996 
L 142.819672 304.752407 
L 155.803279 304.616403 
L 168.786885 305.838908 
L 181.770492 304.319481 
L 194.754098 304.520056 
L 207.737705 304.409602 
L 220.721311 304.170269 
L 233.704918 304.275698 
L 246.688525 304.298437 
L 259.672131 304.420754 
L 272.655738 304.935543 
L 285.639344 304.631362 
L 298.622951 304.583213 
L 311.606557 304.483081 
L 324.590164 304.769215 
L 337.57377 305.006432 
L 350.557377 304.436919 
L 363.540984 304.510571 
L 376.52459 304.530259 
L 389.508197 304.883027 
L 402.491803 305.255935 
L 415.47541 305.375308 
L 428.459016 305.314519 
L 441.442623 305.369135 
L 454.42623 305.012849 
L 467.409836 305.150502 
L 480.393443 305.166027 
L 493.377049 305.530073 
L 506.360656 305.609326 
L 519.344262 305.746792 
L 532.327869 305.724409 
L 545.311475 305.650692 
L 558.295082 305.762507 
L 571.278689 305.727626 
L 584.262295 305.711555 
L 597.245902 305.792338 
L 610.229508 305.63375 
L 623.213115 305.661874 
L 636.196721 305.692438 
L 649.180328 305.430579 
L 662.163934 305.526089 
L 675.147541 305.202694 
L 688.131148 305.184837 
L 701.114754 305.085791 
L 714.098361 305.063961 
L 727.081967 305.018001 
L 740.065574 305.074878 
L 753.04918 305.105481 
L 766.032787 305.301066 
L 779.016393 305.276671 
" clip-path="url(#p114714dfe8)" style="fill: none; stroke: #000000; stroke-width: 1.5; stroke-linecap: square"/>
   </g>
   <g id="line2d_8">
    <path d="M 0 306 
L 12.983607 306 
L 25.967213 302.75984 
L 38.95082 299.005322 
L 51.934426 300.390157 
L 64.918033 299.878051 
L 77.901639 301.525789 
L 90.885246 302.240379 
L 103.868852 303.975767 
L 116.852459 305.366413 
L 129.836066 305.056736 
L 142.819672 304.666208 
L 155.803279 304.54542 
L 168.786885 305.699653 
L 181.770492 304.290125 
L 194.754098 304.478776 
L 207.737705 304.379353 
L 220.721311 304.160894 
L 233.704918 304.258076 
L 246.688525 304.279833 
L 259.672131 304.391866 
L 272.655738 304.858327 
L 285.639344 304.588842 
L 298.622951 304.547846 
L 311.606557 304.460358 
L 324.590164 304.714954 
L 337.57377 304.926571 
L 350.557377 304.429957 
L 363.540984 304.494609 
L 376.52459 304.512374 
L 389.508197 304.81855 
L 402.491803 305.14245 
L 415.47541 305.249066 
L 428.459016 305.201657 
L 441.442623 305.252057 
L 454.42623 304.954348 
L 467.409836 305.072356 
L 480.393443 305.087937 
L 493.377049 305.394704 
L 506.360656 305.464892 
L 519.344262 305.583232 
L 532.327869 305.569676 
L 545.311475 305.513664 
L 558.295082 305.609121 
L 571.278689 305.585057 
L 584.262295 305.575997 
L 597.245902 305.645004 
L 610.229508 305.521339 
L 623.213115 305.546871 
L 636.196721 305.574282 
L 649.180328 305.369092 
L 662.163934 305.446302 
L 675.147541 305.193157 
L 688.131148 305.179359 
L 701.114754 305.101958 
L 714.098361 305.084547 
L 727.081967 305.048357 
L 740.065574 305.091662 
L 753.04918 305.114867 
L 766.032787 305.264872 
L 779.016393 305.247021 
" clip-path="url(#p114714dfe8)" style="fill: none; stroke: #000000; stroke-width: 1.5; stroke-linecap: square"/>
   </g>
   <g id="line2d_9">
    <path d="M 0 306 
L 12.983607 306 
L 25.967213 302.768565 
L 38.95082 299.031283 
L 51.934426 300.39845 
L 64.918033 299.890138 
L 77.901639 301.513886 
L 90.885246 302.218812 
L 103.868852 303.924755 
L 116.852459 305.291791 
L 129.836066 304.997105 
L 142.819672 304.622412 
L 155.803279 304.508866 
L 168.786885 305.62979 
L 181.770492 304.273209 
L 194.754098 304.456163 
L 207.737705 304.36208 
L 220.721311 304.153722 
L 233.704918 304.24706 
L 246.688525 304.268417 
L 259.672131 304.375589 
L 272.655738 304.818992 
L 285.639344 304.565843 
L 298.622951 304.528203 
L 311.606557 304.446695 
L 324.590164 304.686402 
L 337.57377 304.885831 
L 350.557377 304.423358 
L 363.540984 304.483878 
L 376.52459 304.500795 
L 389.508197 304.7852 
L 402.491803 305.086047 
L 415.47541 305.186362 
L 428.459016 305.144783 
L 441.442623 305.192897 
L 454.42623 304.922003 
L 467.409836 305.030837 
L 480.393443 305.046277 
L 493.377049 305.326479 
L 506.360656 305.392094 
L 519.344262 305.501217 
L 532.327869 305.491203 
L 545.311475 305.442835 
L 558.295082 305.530451 
L 571.278689 305.510883 
L 584.262295 305.504633 
L 597.245902 305.567946 
L 610.229508 305.459731 
L 623.213115 305.483855 
L 636.196721 305.509597 
L 649.180328 305.329727 
L 662.163934 305.398685 
L 675.147541 305.17705 
L 688.131148 305.165289 
L 701.114754 305.097817 
L 714.098361 305.082694 
L 727.081967 305.051191 
L 740.065574 305.08879 
L 753.04918 305.108979 
L 766.032787 305.238938 
L 779.016393 305.224027 
" clip-path="url(#p114714dfe8)" style="fill: none; stroke: #000000; stroke-width: 1.5; stroke-linecap: square"/>
   </g>
  </g>
 </g>
 <defs>
  <clipPath id="p114714dfe8">
   <rect x="0" y="0" width="792" height="612"/>
  </clipPath>
 </defs>
</svg>
