<?xml version="1.0" encoding="utf-8" standalone="no"?>
<!DOCTYPE svg PUBLIC "-//W3C//DTD SVG 1.1//EN"
  "http://www.w3.org/Graphics/SVG/1.1/DTD/svg11.dtd">
<svg xmlns:xlink="http://www.w3.org/1999/xlink" width="792pt" height="612pt" viewBox="0 0 792 612" xmlns="http://www.w3.org/2000/svg" version="1.1">
 <metadata>
  <rdf:RDF xmlns:dc="http://purl.org/dc/elements/1.1/" xmlns:cc="http://creativecommons.org/ns#" xmlns:rdf="http://www.w3.org/1999/02/22-rdf-syntax-ns#">
   <cc:Work>
    <dc:type rdf:resource="http://purl.org/dc/dcmitype/StillImage"/>
    <dc:date>2023-01-16T16:11:28.652200</dc:date>
    <dc:format>image/svg+xml</dc:format>
    <dc:creator>
     <cc:Agent>
      <dc:title>Matplotlib v3.6.2, https://matplotlib.org/</dc:title>
     </cc:Agent>
    </dc:creator>
   </cc:Work>
  </rdf:RDF>
 </metadata>
 <defs>
  <style type="text/css">*{stroke-linejoin: round; stroke-linecap: butt}</style>
 </defs>
 <g id="figure_1">
  <g id="patch_1">
   <path d="M 0 612 
L 792 612 
L 792 0 
L 0 0 
z
" style="fill: #ffffff"/>
  </g>
  <g id="axes_1">
   <g id="line2d_1">
    <path d="M 0 306 
L 12.774194 302.828616 
L 25.548387 307.255378 
L 38.322581 304.662033 
L 51.096774 300.797263 
L 63.870968 306 
L 76.645161 299.377229 
L 89.419355 291.227686 
L 102.193548 304.414265 
L 114.967742 297.660365 
L 127.741935 309.600805 
L 140.516129 306.379919 
L 153.290323 315.874465 
L 166.064516 316.237473 
L 178.83871 302.316615 
L 191.612903 300.846803 
L 204.387097 303.225015 
L 217.16129 318.959046 
L 229.935484 286.798057 
L 242.709677 306.941535 
L 255.483871 302.927715 
L 268.258065 300.83029 
L 281.032258 305.752227 
L 293.806452 304.595961 
L 306.580645 306.313846 
L 319.354839 313.39872 
L 332.129032 299.377229 
L 344.903226 303.687493 
L 357.677419 302.597387 
L 370.451613 310.17885 
L 383.225806 309.633837 
L 396 292.89256 
L 408.774194 306 
L 421.548387 304.909802 
L 434.322581 312.57324 
L 447.096774 313.596819 
L 459.870968 308.097781 
L 472.645161 303.869184 
L 485.419355 306.660728 
L 498.193548 296.274046 
L 510.967742 308.560264 
L 523.741935 305.53749 
L 536.516129 314.933817 
L 549.290323 307.684841 
L 562.064516 309.419129 
L 574.83871 305.108019 
L 587.612903 303.604907 
L 600.387097 308.890602 
L 613.16129 304.728104 
L 625.935484 305.240164 
L 638.709677 308.147333 
L 651.483871 300.929371 
L 664.258065 306.495546 
L 677.032258 306.611173 
L 689.806452 297.379771 
L 702.580645 308.477679 
L 715.354839 295.036598 
L 728.129032 304.595961 
L 740.903226 301.887211 
L 753.677419 304.331676 
L 766.451613 303.489287 
L 779.225806 306.925017 
" clip-path="url(#p41f4292043)" style="fill: none; stroke: #000000; stroke-width: 1.5; stroke-linecap: square"/>
   </g>
   <g id="line2d_2">
    <path d="M 0 306 
L 12.774194 306 
L 25.548387 303.885702 
L 38.322581 305.81122 
L 51.096774 305.198318 
L 63.870968 302.926649 
L 76.645161 304.487678 
L 89.419355 301.912049 
L 102.193548 296.546038 
L 114.967742 300.476131 
L 127.741935 299.057969 
L 140.516129 304.33349 
L 153.290323 305.360066 
L 166.064516 310.648193 
L 178.83871 313.463524 
L 191.612903 307.896462 
L 204.387097 304.390298 
L 217.16129 303.805317 
L 229.935484 311.427253 
L 242.709677 299.056739 
L 255.483871 302.99974 
L 268.258065 302.938337 
L 281.032258 301.854051 
L 293.806452 303.809786 
L 306.580645 304.210223 
L 319.354839 305.268082 
L 332.129032 309.323076 
L 344.903226 304.374428 
L 357.677419 304.024578 
L 370.451613 303.31032 
L 383.225806 306.763011 
L 396 308.206083 
L 408.774194 300.522949 
L 421.548387 303.26064 
L 434.322581 304.06856 
L 447.096774 308.347225 
L 459.870968 310.991816 
L 472.645161 309.555662 
L 485.419355 306.700112 
L 498.193548 306.67459 
L 510.967742 301.479649 
L 523.741935 305.024845 
L 536.516129 305.282398 
L 549.290323 310.11376 
L 562.064516 308.887752 
L 574.83871 309.156034 
L 587.612903 307.134505 
L 600.387097 305.363693 
L 613.16129 307.15193 
L 625.935484 305.932502 
L 638.709677 305.585749 
L 651.483871 306.853245 
L 664.258065 303.877864 
L 677.032258 305.180957 
L 689.806452 305.899012 
L 702.580645 301.626338 
L 715.354839 305.05108 
L 728.129032 300.023238 
L 740.903226 302.308131 
L 753.677419 302.085396 
L 766.451613 303.21517 
L 779.225806 303.346334 
" clip-path="url(#p41f4292043)" style="fill: none; stroke: #000000; stroke-width: 1.5; stroke-linecap: square"/>
   </g>
   <g id="line2d_3">
    <path d="M 0 306 
L 12.774194 306 
L 25.548387 304.142202 
L 38.322581 305.552717 
L 51.096774 305.204881 
L 63.870968 303.636569 
L 76.645161 304.427675 
L 89.419355 302.804783 
L 102.193548 299.18533 
L 114.967742 300.787382 
L 127.741935 299.84181 
L 140.516129 302.76433 
L 153.290323 303.840072 
L 166.064516 307.405224 
L 178.83871 310.013404 
L 191.612903 307.746635 
L 204.387097 305.717666 
L 217.16129 304.98438 
L 229.935484 309.098164 
L 242.709677 302.535911 
L 255.483871 303.828839 
L 268.258065 303.567349 
L 281.032258 302.759685 
L 293.806452 303.643465 
L 306.580645 303.937808 
L 319.354839 304.635902 
L 332.129032 307.220963 
L 344.903226 304.911548 
L 357.677419 304.549933 
L 370.451613 303.962773 
L 383.225806 305.776511 
L 396 306.914748 
L 408.774194 302.796368 
L 421.548387 303.737836 
L 434.322581 304.064946 
L 447.096774 306.586881 
L 459.870968 308.648082 
L 472.645161 308.492842 
L 485.419355 307.142119 
L 498.193548 307.002167 
L 510.967742 303.849489 
L 523.741935 305.231817 
L 536.516129 305.312316 
L 549.290323 308.148968 
L 562.064516 308.017621 
L 574.83871 308.43596 
L 587.612903 307.455428 
L 600.387097 306.320705 
L 613.16129 307.091816 
L 625.935484 306.398041 
L 638.709677 306.059286 
L 651.483871 306.665785 
L 664.258065 304.970945 
L 677.032258 305.415648 
L 689.806452 305.768958 
L 702.580645 303.300561 
L 715.354839 304.830897 
L 728.129032 301.945533 
L 740.903226 302.720699 
L 753.677419 302.461584 
L 766.451613 303.005449 
L 779.225806 303.14035 
" clip-path="url(#p41f4292043)" style="fill: none; stroke: #000000; stroke-width: 1.5; stroke-linecap: square"/>
   </g>
   <g id="line2d_4">
    <path d="M 0 306 
L 12.774194 306 
L 25.548387 304.277217 
L 38.322581 305.446031 
L 51.096774 305.196556 
L 63.870968 303.988714 
L 76.645161 304.483722 
L 89.419355 303.327344 
L 102.193548 300.758567 
L 114.967742 301.494935 
L 127.741935 300.753684 
L 140.516129 302.406848 
L 153.290323 303.129231 
L 166.064516 305.395769 
L 178.83871 307.28863 
L 191.612903 306.434023 
L 204.387097 305.485731 
L 217.16129 305.10608 
L 229.935484 307.413326 
L 242.709677 304.002628 
L 255.483871 304.485291 
L 268.258065 304.23078 
L 281.032258 303.677472 
L 293.806452 304.013814 
L 306.580645 304.107905 
L 319.354839 304.463543 
L 332.129032 305.901265 
L 344.903226 304.853373 
L 357.677419 304.666414 
L 370.451613 304.335034 
L 383.225806 305.27 
L 396 305.967569 
L 408.774194 303.877882 
L 421.548387 304.21551 
L 434.322581 304.327272 
L 447.096774 305.642701 
L 459.870968 306.914051 
L 472.645161 307.106945 
L 485.419355 306.590474 
L 498.193548 306.606196 
L 510.967742 304.964951 
L 523.741935 305.539572 
L 536.516129 305.544157 
L 549.290323 307.041814 
L 562.064516 307.144937 
L 574.83871 307.502754 
L 587.612903 307.114802 
L 600.387097 306.557164 
L 613.16129 306.933453 
L 625.935484 306.583513 
L 638.709677 306.361217 
L 651.483871 306.658735 
L 664.258065 305.743349 
L 677.032258 305.865252 
L 689.806452 305.987538 
L 702.580645 304.612433 
L 715.354839 305.229831 
L 728.129032 303.600313 
L 740.903226 303.753228 
L 753.677419 303.45789 
L 766.451613 303.597312 
L 779.225806 303.580681 
" clip-path="url(#p41f4292043)" style="fill: none; stroke: #000000; stroke-width: 1.5; stroke-linecap: square"/>
   </g>
   <g id="line2d_5">
    <path d="M 0 306 
L 12.774194 306 
L 25.548387 304.345613 
L 38.322581 305.400671 
L 51.096774 305.191365 
L 63.870968 304.153972 
L 76.645161 304.531899 
L 89.419355 303.590969 
L 102.193548 301.537131 
L 114.967742 301.978074 
L 127.741935 301.359609 
L 140.516129 302.472653 
L 153.290323 302.974261 
L 166.064516 304.558922 
L 178.83871 305.938722 
L 191.612903 305.525406 
L 204.387097 305.007615 
L 217.16129 304.815656 
L 229.935484 306.302766 
L 242.709677 304.294779 
L 255.483871 304.561615 
L 268.258065 304.399768 
L 281.032258 304.051753 
L 293.806452 304.215156 
L 306.580645 304.251277 
L 319.354839 304.44462 
L 332.129032 305.275187 
L 344.903226 304.733376 
L 357.677419 304.638154 
L 370.451613 304.453831 
L 383.225806 304.967152 
L 396 305.382809 
L 408.774194 304.276367 
L 421.548387 304.428116 
L 434.322581 304.470311 
L 447.096774 305.176952 
L 459.870968 305.908212 
L 472.645161 306.097616 
L 485.419355 305.905524 
L 498.193548 305.970414 
L 510.967742 305.139416 
L 523.741935 305.431713 
L 536.516129 305.440729 
L 549.290323 306.248286 
L 562.064516 306.37021 
L 574.83871 306.628503 
L 587.612903 306.49992 
L 600.387097 306.255477 
L 613.16129 306.47766 
L 625.935484 306.330343 
L 638.709677 306.238658 
L 651.483871 306.399005 
L 664.258065 305.939937 
L 677.032258 305.986522 
L 689.806452 306.038852 
L 702.580645 305.313818 
L 715.354839 305.578477 
L 728.129032 304.696845 
L 740.903226 304.688417 
L 753.677419 304.454504 
L 766.451613 304.444254 
L 779.225806 304.36459 
" clip-path="url(#p41f4292043)" style="fill: none; stroke: #000000; stroke-width: 1.5; stroke-linecap: square"/>
   </g>
   <g id="line2d_6">
    <path d="M 0 306 
L 12.774194 306 
L 25.548387 304.379923 
L 38.322581 305.380211 
L 51.096774 305.188835 
L 63.870968 304.232731 
L 76.645161 304.560066 
L 89.419355 303.719923 
L 102.193548 301.910197 
L 114.967742 302.238985 
L 127.741935 301.686724 
L 140.516129 302.571772 
L 153.290323 302.970002 
L 166.064516 304.240822 
L 178.83871 305.359629 
L 191.612903 305.089634 
L 204.387097 304.729834 
L 217.16129 304.607421 
L 229.935484 305.731684 
L 242.709677 304.298751 
L 255.483871 304.492078 
L 268.258065 304.38105 
L 281.032258 304.136023 
L 293.806452 304.244649 
L 306.580645 304.267689 
L 319.354839 304.398841 
L 332.129032 304.963543 
L 344.903226 304.620005 
L 357.677419 304.563742 
L 370.451613 304.447189 
L 383.225806 304.781282 
L 396 305.059708 
L 408.774194 304.37147 
L 421.548387 304.462245 
L 434.322581 304.486864 
L 447.096774 304.926181 
L 459.870968 305.391718 
L 472.645161 305.535365 
L 485.419355 305.447853 
L 498.193548 305.510916 
L 510.967742 305.035044 
L 523.741935 305.214959 
L 536.516129 305.231279 
L 549.290323 305.71835 
L 562.064516 305.816281 
L 574.83871 305.99439 
L 587.612903 305.950879 
L 600.387097 305.836483 
L 613.16129 305.98447 
L 625.935484 305.923961 
L 638.709677 305.891217 
L 651.483871 305.998664 
L 664.258065 305.758476 
L 677.032258 305.793223 
L 689.806452 305.831601 
L 702.580645 305.436727 
L 715.354839 305.578156 
L 728.129032 305.089688 
L 740.903226 305.066909 
L 753.677419 304.920747 
L 766.451613 304.893766 
L 779.225806 304.829657 
" clip-path="url(#p41f4292043)" style="fill: none; stroke: #000000; stroke-width: 1.5; stroke-linecap: square"/>
   </g>
   <g id="line2d_7">
    <path d="M 0 306 
L 12.774194 306 
L 25.548387 304.397092 
L 38.322581 305.370558 
L 51.096774 305.18763 
L 63.870968 304.271023 
L 76.645161 304.575008 
L 89.419355 303.783229 
L 102.193548 302.09089 
L 114.967742 302.37195 
L 127.741935 301.853432 
L 140.516129 302.636388 
L 153.290323 302.986813 
L 166.064516 304.112295 
L 178.83871 305.105825 
L 191.612903 304.890367 
L 204.387097 304.594511 
L 217.16129 304.499245 
L 229.935484 305.459397 
L 242.709677 304.272583 
L 255.483871 304.435245 
L 268.258065 304.346855 
L 281.032258 304.148052 
L 293.806452 304.235656 
L 306.580645 304.2547 
L 319.354839 304.360221 
L 332.129032 304.810061 
L 344.903226 304.547115 
L 357.677419 304.506608 
L 370.451613 304.418894 
L 383.225806 304.677184 
L 396 304.894365 
L 408.774194 304.379684 
L 421.548387 304.447666 
L 434.322581 304.466666 
L 447.096774 304.793551 
L 459.870968 305.141968 
L 472.645161 305.256851 
L 485.419355 305.20384 
L 498.193548 305.258576 
L 510.967742 304.92627 
L 523.741935 305.058575 
L 536.516129 305.075753 
L 549.290323 305.424416 
L 562.064516 305.503245 
L 574.83871 305.637999 
L 587.612903 305.619995 
L 600.387097 305.55239 
L 613.16129 305.663045 
L 625.935484 305.632413 
L 638.709677 305.619706 
L 651.483871 305.700703 
L 664.258065 305.5494 
L 677.032258 305.579095 
L 689.806452 305.611168 
L 702.580645 305.357744 
L 715.354839 305.452884 
L 728.129032 305.137966 
L 740.903226 305.121729 
L 753.677419 305.025647 
L 766.451613 305.005203 
L 779.225806 304.9609 
" clip-path="url(#p41f4292043)" style="fill: none; stroke: #000000; stroke-width: 1.5; stroke-linecap: square"/>
   </g>
   <g id="line2d_8">
    <path d="M 0 306 
L 12.774194 306 
L 25.548387 304.405678 
L 38.322581 305.365878 
L 51.096774 305.187047 
L 63.870968 304.289884 
L 76.645161 304.582672 
L 89.419355 303.814534 
L 102.193548 302.179571 
L 114.967742 302.438746 
L 127.741935 301.937163 
L 140.516129 302.672126 
L 153.290323 302.999821 
L 166.064516 304.056023 
L 178.83871 304.98897 
L 191.612903 304.796982 
L 204.387097 304.52951 
L 217.16129 304.445946 
L 229.935484 305.329045 
L 242.709677 304.254318 
L 255.483871 304.402946 
L 268.258065 304.324827 
L 281.032258 304.147255 
L 293.806452 304.225661 
L 306.580645 304.243088 
L 319.354839 304.337125 
L 332.129032 304.734915 
L 344.903226 304.507253 
L 357.677419 304.473496 
L 370.451613 304.398515 
L 383.225806 304.622975 
L 396 304.812243 
L 408.774194 304.373577 
L 421.548387 304.431876 
L 434.322581 304.448588 
L 447.096774 304.726015 
L 459.870968 305.02202 
L 472.645161 305.12237 
L 485.419355 305.082357 
L 498.193548 305.131707 
L 510.967742 304.860222 
L 523.741935 304.971379 
L 536.516129 304.988064 
L 549.290323 305.275895 
L 562.064516 305.34435 
L 574.83871 305.458138 
L 587.612903 305.448526 
L 600.387097 305.398742 
L 613.16129 305.491528 
L 625.935484 305.471558 
L 638.709677 305.465597 
L 651.483871 305.533664 
L 664.258065 305.418472 
L 677.032258 305.445037 
L 689.806452 305.473405 
L 702.580645 305.279094 
L 715.354839 305.354863 
L 728.129032 305.113453 
L 740.903226 305.101501 
L 753.677419 305.028168 
L 766.451613 305.012467 
L 779.225806 304.97853 
" clip-path="url(#p41f4292043)" style="fill: none; stroke: #000000; stroke-width: 1.5; stroke-linecap: square"/>
   </g>
   <g id="line2d_9">
    <path d="M 0 306 
L 12.774194 306 
L 25.548387 304.409972 
L 38.322581 305.363575 
L 51.096774 305.186761 
L 63.870968 304.299242 
L 76.645161 304.586549 
L 89.419355 303.830094 
L 102.193548 302.223471 
L 114.967742 302.472183 
L 127.741935 301.979071 
L 140.516129 302.690803 
L 153.290323 303.007445 
L 166.064516 304.029905 
L 178.83871 304.93316 
L 191.612903 304.752025 
L 204.387097 304.497884 
L 217.16129 304.41972 
L 229.935484 305.265615 
L 242.709677 304.244165 
L 255.483871 304.386081 
L 268.258065 304.312807 
L 281.032258 304.145331 
L 293.806452 304.219435 
L 306.580645 304.23612 
L 319.354839 304.324739 
L 332.129032 304.697924 
L 344.903226 304.48664 
L 357.677419 304.455963 
L 370.451613 304.386895 
L 383.225806 304.595506 
L 396 304.771582 
L 408.774194 304.3681 
L 421.548387 304.421955 
L 434.322581 304.437622 
L 447.096774 304.692128 
L 459.870968 304.963682 
L 472.645161 305.056904 
L 485.419355 305.022415 
L 498.193548 305.068889 
L 510.967742 304.824919 
L 523.741935 304.926238 
L 536.516129 304.942466 
L 549.290323 305.202284 
L 562.064516 305.265523 
L 574.83871 305.36925 
L 587.612903 305.362852 
L 600.387097 305.320601 
L 613.16129 305.404833 
L 625.935484 305.389152 
L 638.709677 305.38576 
L 651.483871 305.447562 
L 664.258065 305.348127 
L 677.032258 305.372964 
L 689.806452 305.399338 
L 702.580645 305.231146 
L 715.354839 305.298173 
L 728.129032 305.089406 
L 740.903226 305.079519 
L 753.677419 305.016476 
L 766.451613 305.003144 
L 779.225806 304.97408 
" clip-path="url(#p41f4292043)" style="fill: none; stroke: #000000; stroke-width: 1.5; stroke-linecap: square"/>
   </g>
  </g>
 </g>
 <defs>
  <clipPath id="p41f4292043">
   <rect x="0" y="0" width="792" height="612"/>
  </clipPath>
 </defs>
</svg>
