<?xml version="1.0" encoding="utf-8" standalone="no"?>
<!DOCTYPE svg PUBLIC "-//W3C//DTD SVG 1.1//EN"
  "http://www.w3.org/Graphics/SVG/1.1/DTD/svg11.dtd">
<svg xmlns:xlink="http://www.w3.org/1999/xlink" width="792pt" height="612pt" viewBox="0 0 792 612" xmlns="http://www.w3.org/2000/svg" version="1.1">
 <metadata>
  <rdf:RDF xmlns:dc="http://purl.org/dc/elements/1.1/" xmlns:cc="http://creativecommons.org/ns#" xmlns:rdf="http://www.w3.org/1999/02/22-rdf-syntax-ns#">
   <cc:Work>
    <dc:type rdf:resource="http://purl.org/dc/dcmitype/StillImage"/>
    <dc:date>2023-01-30T16:21:21.412348</dc:date>
    <dc:format>image/svg+xml</dc:format>
    <dc:creator>
     <cc:Agent>
      <dc:title>Matplotlib v3.6.2, https://matplotlib.org/</dc:title>
     </cc:Agent>
    </dc:creator>
   </cc:Work>
  </rdf:RDF>
 </metadata>
 <defs>
  <style type="text/css">*{stroke-linejoin: round; stroke-linecap: butt}</style>
 </defs>
 <g id="figure_1">
  <g id="patch_1">
   <path d="M 0 612 
L 792 612 
L 792 0 
L 0 0 
z
" style="fill: #ffffff"/>
  </g>
  <g id="axes_1">
   <g id="line2d_1">
    <path d="M 0 459 
L 12.774194 454.242923 
L 25.548387 456.125868 
L 38.322581 454.11905 
L 51.096774 446.317237 
L 63.870968 446.317237 
L 76.645161 436.396598 
L 89.419355 414.344288 
L 102.193548 411.989387 
L 114.967742 399.645612 
L 127.741935 404.964596 
L 140.516129 405.526659 
L 153.290323 420.192464 
L 166.064516 435.482151 
L 178.83871 429.974975 
L 191.612903 422.284279 
L 204.387097 418.151433 
L 217.16129 437.509005 
L 229.935484 408.853427 
L 242.709677 410.249342 
L 255.483871 405.697754 
L 268.258065 398.062741 
L 281.032258 397.697671 
L 293.806452 395.630446 
L 306.580645 396.092307 
L 319.354839 407.018129 
L 332.129032 397.235362 
L 344.903226 393.832873 
L 357.677419 388.839717 
L 370.451613 394.974342 
L 383.225806 400.327909 
L 396 381.093318 
L 408.774194 381.093318 
L 421.548387 379.506092 
L 434.322581 389.105924 
L 447.096774 400.279165 
L 459.870968 403.377053 
L 472.645161 400.230422 
L 485.419355 401.205535 
L 498.193548 386.905133 
L 510.967742 390.655713 
L 523.741935 389.977482 
L 536.516129 403.132934 
L 549.290323 405.624425 
L 562.064516 410.690348 
L 574.83871 409.367603 
L 587.612903 405.819973 
L 600.387097 410.10236 
L 613.16129 408.217003 
L 625.935484 407.091509 
L 638.709677 410.27384 
L 651.483871 402.766816 
L 664.258065 403.499124 
L 677.032258 404.402698 
L 689.806452 391.697875 
L 702.580645 395.338811 
L 715.354839 379.289803 
L 728.129032 377.248886 
L 740.903226 371.289668 
L 753.677419 368.881071 
L 766.451613 365.266001 
L 779.225806 366.596485 
" clip-path="url(#p80e889b7fb)" style="fill: none; stroke: #000000; stroke-width: 1.5; stroke-linecap: square"/>
   </g>
   <g id="line2d_2">
    <path d="M 0 459 
L 12.774194 459 
L 25.548387 455.828552 
L 38.322581 455.998446 
L 51.096774 454.996085 
L 63.870968 450.51593 
L 76.645161 448.383039 
L 89.419355 442.339789 
L 102.193548 428.258462 
L 114.967742 420.019786 
L 127.741935 409.701718 
L 140.516129 407.232234 
L 153.290323 406.284766 
L 166.064516 413.177115 
L 178.83871 424.287877 
L 191.612903 427.117626 
L 204.387097 424.715601 
L 217.16129 421.443696 
L 229.935484 429.541825 
L 242.709677 419.184914 
L 255.483871 414.722181 
L 268.258065 410.17681 
L 281.032258 404.037098 
L 293.806452 400.801659 
L 306.580645 398.162111 
L 319.354839 397.083864 
L 332.129032 401.984956 
L 344.903226 399.585804 
L 357.677419 396.674752 
L 370.451613 392.71934 
L 383.225806 393.840394 
L 396 397.086153 
L 408.774194 389.039487 
L 421.548387 385.031375 
L 434.322581 382.212322 
L 447.096774 385.639019 
L 459.870968 392.954544 
L 472.645161 398.186358 
L 485.419355 399.218404 
L 498.193548 400.21341 
L 510.967742 393.5567 
L 523.741935 392.124354 
L 536.516129 391.071161 
L 549.290323 397.118684 
L 562.064516 401.377 
L 574.83871 406.042481 
L 587.612903 407.722304 
L 600.387097 406.779975 
L 613.16129 408.486235 
L 625.935484 408.386217 
L 638.709677 407.772488 
L 651.483871 409.036806 
L 664.258065 405.893692 
L 677.032258 404.68195 
L 689.806452 404.532595 
L 702.580645 398.075436 
L 715.354839 396.677709 
L 728.129032 387.901121 
L 740.903226 382.506272 
L 753.677419 376.809593 
L 766.451613 372.772865 
L 779.225806 368.939086 
" clip-path="url(#p80e889b7fb)" style="fill: none; stroke: #000000; stroke-width: 1.5; stroke-linecap: square"/>
   </g>
   <g id="line2d_3">
    <path d="M 0 459 
L 12.774194 459 
L 25.548387 456.213303 
L 38.322581 456.173688 
L 51.096774 455.371284 
L 63.870968 452.149271 
L 76.645161 450.196745 
L 89.419355 445.759935 
L 102.193548 435.917768 
L 114.967742 428.565766 
L 127.741935 419.785596 
L 140.516129 415.336442 
L 153.290323 412.412989 
L 166.064516 414.71439 
L 178.83871 420.829896 
L 191.612903 423.520469 
L 204.387097 423.156923 
L 217.16129 421.643174 
L 229.935484 426.263445 
L 242.709677 421.097913 
L 255.483871 417.865273 
L 268.258065 414.24818 
L 281.032258 409.438876 
L 293.806452 405.948187 
L 306.580645 402.898598 
L 319.354839 400.884116 
L 332.129032 402.687111 
L 344.903226 401.07971 
L 357.677419 398.940523 
L 370.451613 395.939617 
L 383.225806 395.610744 
L 396 396.957253 
L 408.774194 392.24627 
L 421.548387 388.928361 
L 434.322581 386.096161 
L 447.096774 386.954535 
L 459.870968 390.834066 
L 472.645161 394.495289 
L 485.419355 396.175513 
L 498.193548 397.651263 
L 510.967742 394.486095 
L 523.741935 393.356982 
L 536.516129 392.346878 
L 549.290323 395.505578 
L 562.064516 398.476806 
L 574.83871 402.070988 
L 587.612903 404.221816 
L 600.387097 404.696082 
L 613.16129 406.311564 
L 625.935484 406.900846 
L 638.709677 406.988631 
L 651.483871 407.974728 
L 664.258065 406.450791 
L 677.032258 405.58594 
L 689.806452 405.244101 
L 702.580645 401.254603 
L 715.354839 399.529534 
L 728.129032 393.560175 
L 740.903226 388.748558 
L 753.677419 383.574424 
L 766.451613 379.210907 
L 779.225806 375.057796 
" clip-path="url(#p80e889b7fb)" style="fill: none; stroke: #000000; stroke-width: 1.5; stroke-linecap: square"/>
   </g>
   <g id="line2d_4">
    <path d="M 0 459 
L 12.774194 459 
L 25.548387 456.415826 
L 38.322581 456.302027 
L 51.096774 455.607371 
L 63.870968 453.056363 
L 76.645161 451.397378 
L 89.419355 447.998357 
L 102.193548 440.836816 
L 114.967742 435.006372 
L 127.741935 428.136623 
L 140.516129 423.790479 
L 153.290323 420.459426 
L 166.064516 420.41196 
L 178.83871 423.037062 
L 191.612903 424.228454 
L 204.387097 423.898417 
L 217.16129 422.932506 
L 229.935484 425.354643 
L 242.709677 422.620699 
L 255.483871 420.584732 
L 268.258065 418.145815 
L 281.032258 414.865462 
L 293.806452 412.072498 
L 306.580645 409.405571 
L 319.354839 407.252852 
L 332.129032 407.215088 
L 344.903226 405.608784 
L 357.677419 403.715214 
L 370.451613 401.32402 
L 383.225806 400.306577 
L 396 400.309987 
L 408.774194 397.22462 
L 421.548387 394.598432 
L 434.322581 392.140621 
L 447.096774 391.616133 
L 459.870968 392.958248 
L 472.645161 394.585138 
L 485.419355 395.45364 
L 498.193548 396.34575 
L 510.967742 394.822809 
L 523.741935 394.145811 
L 536.516129 393.475838 
L 549.290323 395.007457 
L 562.064516 396.69236 
L 574.83871 398.90643 
L 587.612903 400.550754 
L 600.387097 401.373139 
L 613.16129 402.751777 
L 625.935484 403.614103 
L 638.709677 404.148115 
L 651.483871 405.122358 
L 664.258065 404.742722 
L 677.032258 404.543435 
L 689.806452 404.525005 
L 702.580645 402.474075 
L 715.354839 401.336695 
L 728.129032 397.797461 
L 740.903226 394.49046 
L 753.677419 390.756974 
L 766.451613 387.236719 
L 779.225806 383.70082 
" clip-path="url(#p80e889b7fb)" style="fill: none; stroke: #000000; stroke-width: 1.5; stroke-linecap: square"/>
   </g>
   <g id="line2d_5">
    <path d="M 0 459 
L 12.774194 459 
L 25.548387 456.518419 
L 38.322581 456.376082 
L 51.096774 455.736498 
L 63.870968 453.512393 
L 76.645161 452.039009 
L 89.419355 449.181826 
L 102.193548 443.38034 
L 114.967742 438.552096 
L 127.741935 432.948974 
L 140.516129 429.152941 
L 153.290323 426.108012 
L 166.064516 425.380872 
L 178.83871 426.572426 
L 191.612903 426.960496 
L 204.387097 426.442673 
L 217.16129 425.548729 
L 229.935484 426.80375 
L 242.709677 424.952635 
L 255.483871 423.466572 
L 268.258065 421.700835 
L 281.032258 419.385547 
L 293.806452 417.292102 
L 306.580645 415.227808 
L 319.354839 413.426417 
L 332.129032 412.831289 
L 344.903226 411.393747 
L 357.677419 409.7883 
L 370.451613 407.886388 
L 383.225806 406.725029 
L 396 406.154386 
L 408.774194 403.920505 
L 421.548387 401.897873 
L 434.322581 399.923638 
L 447.096774 398.977506 
L 459.870968 399.090495 
L 472.645161 399.460881 
L 485.419355 399.527201 
L 498.193548 399.671348 
L 510.967742 398.573663 
L 523.741935 397.895616 
L 536.516129 397.219192 
L 549.290323 397.721345 
L 562.064516 398.390724 
L 574.83871 399.429487 
L 587.612903 400.267868 
L 600.387097 400.736007 
L 613.16129 401.523928 
L 625.935484 402.086586 
L 638.709677 402.506993 
L 651.483871 403.158273 
L 664.258065 403.125418 
L 677.032258 403.156748 
L 689.806452 403.261095 
L 702.580645 402.290175 
L 715.354839 401.707637 
L 728.129032 399.82137 
L 740.903226 397.922754 
L 753.677419 395.68015 
L 766.451613 393.42393 
L 779.225806 391.05248 
" clip-path="url(#p80e889b7fb)" style="fill: none; stroke: #000000; stroke-width: 1.5; stroke-linecap: square"/>
   </g>
   <g id="line2d_6">
    <path d="M 0 459 
L 12.774194 459 
L 25.548387 456.569884 
L 38.322581 456.415422 
L 51.096774 455.803485 
L 63.870968 453.737885 
L 76.645161 452.363081 
L 89.419355 449.773202 
L 102.193548 444.627941 
L 114.967742 440.326643 
L 127.741935 435.392438 
L 140.516129 431.973901 
L 153.290323 429.196484 
L 166.064516 428.308826 
L 178.83871 428.977025 
L 191.612903 429.065553 
L 204.387097 428.489994 
L 217.16129 427.6477 
L 229.935484 428.418864 
L 242.709677 426.935253 
L 255.483871 425.711168 
L 268.258065 424.285666 
L 281.032258 422.46693 
L 293.806452 420.793753 
L 306.580645 419.134625 
L 319.354839 417.650289 
L 332.129032 416.981825 
L 344.903226 415.762385 
L 357.677419 414.43258 
L 370.451613 412.906201 
L 383.225806 411.856535 
L 396 411.1933 
L 408.774194 409.47808 
L 421.548387 407.883625 
L 434.322581 406.310226 
L 447.096774 405.371328 
L 459.870968 405.097618 
L 472.645161 405.006247 
L 485.419355 404.755108 
L 498.193548 404.570381 
L 510.967742 403.656126 
L 523.741935 402.99026 
L 536.516129 402.32944 
L 549.290323 402.369757 
L 562.064516 402.531704 
L 574.83871 402.934208 
L 587.612903 403.249511 
L 600.387097 403.374771 
L 613.16129 403.700211 
L 625.935484 403.917505 
L 638.709677 404.069375 
L 651.483871 404.364416 
L 664.258065 404.288696 
L 677.032258 404.251467 
L 689.806452 404.258562 
L 702.580645 403.669869 
L 715.354839 403.281547 
L 728.129032 402.162392 
L 740.903226 401.004258 
L 753.677419 399.62551 
L 766.451613 398.20321 
L 779.225806 396.683011 
" clip-path="url(#p80e889b7fb)" style="fill: none; stroke: #000000; stroke-width: 1.5; stroke-linecap: square"/>
   </g>
   <g id="line2d_7">
    <path d="M 0 459 
L 12.774194 459 
L 25.548387 456.595638 
L 38.322581 456.435643 
L 51.096774 455.837527 
L 63.870968 453.849604 
L 76.645161 452.524943 
L 89.419355 450.066482 
L 102.193548 445.239511 
L 114.967742 441.20226 
L 127.741935 436.603067 
L 140.516129 433.390528 
L 153.290323 430.770764 
L 166.064516 429.845785 
L 178.83871 430.307181 
L 191.612903 430.281519 
L 204.387097 429.695791 
L 217.16129 428.891376 
L 229.935484 429.462706 
L 242.709677 428.149302 
L 255.483871 427.055079 
L 268.258065 425.798123 
L 281.032258 424.221834 
L 293.806452 422.765625 
L 306.580645 421.323226 
L 319.354839 420.023305 
L 332.129032 419.374467 
L 344.903226 418.297982 
L 357.677419 417.138789 
L 370.451613 415.829946 
L 383.225806 414.890226 
L 396 414.250071 
L 408.774194 412.816797 
L 421.548387 411.474551 
L 434.322581 410.148764 
L 447.096774 409.295681 
L 459.870968 408.938097 
L 472.645161 408.72167 
L 485.419355 408.396623 
L 498.193548 408.125974 
L 510.967742 407.336849 
L 523.741935 406.726821 
L 536.516129 406.123296 
L 549.290323 406.01748 
L 562.064516 406.003771 
L 574.83871 406.16486 
L 587.612903 406.273573 
L 600.387097 406.258354 
L 613.16129 406.385655 
L 625.935484 406.445629 
L 638.709677 406.46655 
L 651.483871 406.588443 
L 664.258065 406.467151 
L 677.032258 406.373929 
L 689.806452 406.312641 
L 702.580645 405.861036 
L 715.354839 405.539276 
L 728.129032 404.739885 
L 740.903226 403.90954 
L 753.677419 402.930696 
L 766.451613 401.916626 
L 779.225806 400.832506 
" clip-path="url(#p80e889b7fb)" style="fill: none; stroke: #000000; stroke-width: 1.5; stroke-linecap: square"/>
   </g>
   <g id="line2d_8">
    <path d="M 0 459 
L 12.774194 459 
L 25.548387 456.608518 
L 38.322581 456.445888 
L 51.096774 455.854677 
L 63.870968 453.90516 
L 76.645161 452.605706 
L 89.419355 450.21223 
L 102.193548 445.541488 
L 114.967742 441.635639 
L 127.741935 437.202968 
L 140.516129 434.096441 
L 153.290323 431.560149 
L 166.064516 430.626302 
L 178.83871 430.99788 
L 191.612903 430.924386 
L 204.387097 430.338714 
L 217.16129 429.556626 
L 229.935484 430.039805 
L 242.709677 428.808455 
L 255.483871 427.778777 
L 268.258065 426.604972 
L 281.032258 425.146762 
L 293.806452 423.798473 
L 306.580645 422.465145 
L 319.354839 421.26084 
L 332.129032 420.633948 
L 344.903226 419.634867 
L 357.677419 418.566233 
L 370.451613 417.369926 
L 383.225806 416.495835 
L 396 415.882961 
L 408.774194 414.592005 
L 421.548387 413.38069 
L 434.322581 412.185357 
L 447.096774 411.39271 
L 459.870968 411.020942 
L 472.645161 410.771104 
L 485.419355 410.433701 
L 498.193548 410.144524 
L 510.967742 409.428083 
L 523.741935 408.861343 
L 536.516129 408.301967 
L 549.290323 408.152222 
L 562.064516 408.080346 
L 574.83871 408.153184 
L 587.612903 408.186514 
L 600.387097 408.122574 
L 613.16129 408.175156 
L 625.935484 408.17625 
L 638.709677 408.148298 
L 651.483871 408.20222 
L 664.258065 408.066066 
L 677.032258 407.953298 
L 689.806452 407.866848 
L 702.580645 407.477095 
L 715.354839 407.188648 
L 728.129032 406.530909 
L 740.903226 405.848772 
L 753.677419 405.051916 
L 766.451613 404.227208 
L 779.225806 403.348132 
" clip-path="url(#p80e889b7fb)" style="fill: none; stroke: #000000; stroke-width: 1.5; stroke-linecap: square"/>
   </g>
   <g id="line2d_9">
    <path d="M 0 459 
L 12.774194 459 
L 25.548387 456.614958 
L 38.322581 456.451043 
L 51.096774 455.863284 
L 63.870968 453.932855 
L 76.645161 452.64603 
L 89.419355 450.284845 
L 102.193548 445.691434 
L 114.967742 441.851037 
L 127.741935 437.50124 
L 140.516129 434.448302 
L 153.290323 431.954723 
L 166.064516 431.018734 
L 178.83871 431.348721 
L 191.612903 431.25361 
L 204.387097 430.66925 
L 217.16129 429.899164 
L 229.935484 430.341274 
L 242.709677 429.150194 
L 255.483871 428.152636 
L 268.258065 427.019996 
L 281.032258 425.619801 
L 293.806452 424.325001 
L 306.580645 423.045967 
L 319.354839 421.889837 
L 332.129032 421.276526 
L 344.903226 420.317134 
L 357.677419 419.29453 
L 370.451613 418.15476 
L 383.225806 417.315488 
L 396 416.719602 
L 408.774194 415.499298 
L 421.548387 414.353697 
L 434.322581 413.224173 
L 447.096774 412.465152 
L 459.870968 412.092521 
L 472.645161 411.832758 
L 485.419355 411.494921 
L 498.193548 411.202325 
L 510.967742 410.524236 
L 523.741935 409.982529 
L 536.516129 409.448646 
L 549.290323 409.284199 
L 562.064516 409.190891 
L 574.83871 409.228323 
L 587.612903 409.231734 
L 600.387097 409.14967 
L 613.16129 409.172143 
L 625.935484 409.150004 
L 638.709677 409.103114 
L 651.483871 409.129307 
L 664.258065 408.989078 
L 677.032258 408.870082 
L 689.806452 408.774822 
L 702.580645 408.415152 
L 715.354839 408.144266 
L 728.129032 407.552606 
L 740.903226 406.940016 
L 753.677419 406.228312 
L 766.451613 405.492717 
L 779.225806 404.710422 
" clip-path="url(#p80e889b7fb)" style="fill: none; stroke: #000000; stroke-width: 1.5; stroke-linecap: square"/>
   </g>
  </g>
 </g>
 <defs>
  <clipPath id="p80e889b7fb">
   <rect x="0" y="0" width="792" height="612"/>
  </clipPath>
 </defs>
</svg>
