<?xml version="1.0" encoding="utf-8" standalone="no"?>
<!DOCTYPE svg PUBLIC "-//W3C//DTD SVG 1.1//EN"
  "http://www.w3.org/Graphics/SVG/1.1/DTD/svg11.dtd">
<svg xmlns:xlink="http://www.w3.org/1999/xlink" width="792pt" height="612pt" viewBox="0 0 792 612" xmlns="http://www.w3.org/2000/svg" version="1.1">
 <metadata>
  <rdf:RDF xmlns:dc="http://purl.org/dc/elements/1.1/" xmlns:cc="http://creativecommons.org/ns#" xmlns:rdf="http://www.w3.org/1999/02/22-rdf-syntax-ns#">
   <cc:Work>
    <dc:type rdf:resource="http://purl.org/dc/dcmitype/StillImage"/>
    <dc:date>2022-12-26T20:27:06.466618</dc:date>
    <dc:format>image/svg+xml</dc:format>
    <dc:creator>
     <cc:Agent>
      <dc:title>Matplotlib v3.6.2, https://matplotlib.org/</dc:title>
     </cc:Agent>
    </dc:creator>
   </cc:Work>
  </rdf:RDF>
 </metadata>
 <defs>
  <style type="text/css">*{stroke-linejoin: round; stroke-linecap: butt}</style>
 </defs>
 <g id="figure_1">
  <g id="patch_1">
   <path d="M 0 612 
L 792 612 
L 792 0 
L 0 0 
z
" style="fill: #ffffff"/>
  </g>
  <g id="axes_1">
   <g id="line2d_1">
    <path d="M 0 306 
L 12.375 310.608545 
L 24.75 303.780315 
L 37.125 304.508899 
L 49.5 310.083372 
L 61.875 299.223324 
L 74.25 299.223324 
L 86.625 302.577362 
L 99 309.524292 
L 111.375 308.982131 
L 123.75 308.795758 
L 136.125 311.150629 
L 148.5 307.524989 
L 160.875 295.126237 
L 173.25 309.456523 
L 185.625 301.543922 
L 198 302.746786 
L 210.375 307.287771 
L 222.75 304.627508 
L 235.125 300.663036 
L 247.5 306 
L 259.875 299.206388 
L 272.25 290.847112 
L 284.625 304.373347 
L 297 297.445278 
L 309.375 309.693713 
L 321.75 306.389722 
L 334.125 316.129085 
L 346.5 316.501439 
L 358.875 302.221578 
L 371.25 300.713854 
L 383.625 303.153413 
L 396 319.29303 
L 408.375 286.303917 
L 420.75 306.965831 
L 433.125 302.848442 
L 445.5 300.696915 
L 457.875 305.745833 
L 470.25 304.559732 
L 482.625 306.321945 
L 495 313.589561 
L 507.375 299.206388 
L 519.75 303.627823 
L 532.125 302.509593 
L 544.5 310.286668 
L 556.875 309.727597 
L 569.25 292.554761 
L 581.625 306 
L 594 304.881671 
L 606.375 312.742803 
L 618.75 313.792766 
L 631.125 308.151911 
L 643.5 303.814202 
L 655.875 306.677777 
L 668.25 296.023251 
L 680.625 308.626327 
L 693 305.525556 
L 705.375 315.164211 
L 717.75 307.728317 
L 730.125 309.50735 
L 742.5 305.085002 
L 754.875 303.543106 
L 767.25 308.965188 
L 779.625 304.695284 
" clip-path="url(#p03d282dfa0)" style="fill: none; stroke: #000000; stroke-width: 1.5; stroke-linecap: square"/>
   </g>
   <g id="line2d_2">
    <path d="M 0 306 
L 12.375 306 
L 24.75 309.072492 
L 37.125 306.048413 
L 49.5 305.227334 
L 61.875 307.733782 
L 74.25 303.410518 
L 86.625 301.300217 
L 99 301.941276 
L 111.375 305.739653 
L 123.75 307.357741 
L 136.125 308.086595 
L 148.5 309.631725 
L 160.875 308.573371 
L 173.25 301.83976 
L 185.625 305.668155 
L 198 303.603903 
L 210.375 303.16205 
L 222.75 305.221553 
L 235.125 304.916356 
L 247.5 302.768978 
L 259.875 304.381454 
L 272.25 301.801626 
L 284.625 296.284788 
L 297 300.333623 
L 309.375 298.878898 
L 321.75 304.290488 
L 334.125 305.343553 
L 346.5 310.768117 
L 358.875 313.656035 
L 371.25 307.945397 
L 383.625 304.348762 
L 396 303.748687 
L 408.375 311.567269 
L 420.75 298.877636 
L 433.125 302.922325 
L 445.5 302.859338 
L 457.875 301.747082 
L 470.25 303.753271 
L 482.625 304.16404 
L 495 305.249196 
L 507.375 309.408819 
L 519.75 304.332482 
L 532.125 303.973605 
L 544.5 303.240919 
L 556.875 306.782699 
L 569.25 308.263008 
L 581.625 300.381649 
L 594 303.189957 
L 606.375 304.018722 
L 618.75 308.407791 
L 631.125 311.120603 
L 643.5 309.647405 
L 655.875 306.718178 
L 668.25 306.691997 
L 680.625 301.363022 
L 693 304.999682 
L 705.375 305.263881 
L 717.75 310.2199 
L 730.125 308.962264 
L 742.5 309.237467 
L 754.875 307.16378 
L 767.25 305.347274 
L 779.625 307.181654 
" clip-path="url(#p03d282dfa0)" style="fill: none; stroke: #000000; stroke-width: 1.5; stroke-linecap: square"/>
   </g>
   <g id="line2d_3">
    <path d="M 0 306 
L 12.375 306 
L 24.75 308.699757 
L 37.125 306.470867 
L 49.5 305.704667 
L 61.875 307.262638 
L 74.25 304.571242 
L 86.625 302.852748 
L 99 302.766712 
L 111.375 304.837447 
L 123.75 306.090581 
L 136.125 306.900833 
L 148.5 308.165438 
L 160.875 307.975761 
L 173.25 304.181277 
L 185.625 305.734972 
L 198 304.502547 
L 210.375 303.984545 
L 222.75 304.948209 
L 235.125 304.85525 
L 247.5 303.622847 
L 259.875 304.314392 
L 272.25 302.818048 
L 284.625 299.299565 
L 297 300.787447 
L 309.375 299.794513 
L 321.75 302.694318 
L 334.125 303.773862 
L 346.5 307.399392 
L 358.875 310.076609 
L 371.25 307.784172 
L 383.625 305.703142 
L 396 304.958172 
L 408.375 309.178104 
L 420.75 302.446531 
L 433.125 303.772816 
L 445.5 303.504579 
L 457.875 302.676077 
L 470.25 303.582658 
L 482.625 303.884596 
L 495 304.600703 
L 507.375 307.252468 
L 519.75 304.883462 
L 532.125 304.512516 
L 544.5 303.910205 
L 556.875 305.770744 
L 569.25 306.938352 
L 581.625 302.713707 
L 594 303.679464 
L 606.375 304.015015 
L 618.75 306.602025 
L 631.125 308.71641 
L 643.5 308.557165 
L 655.875 307.17159 
L 668.25 307.028027 
L 680.625 303.793998 
L 693 305.211995 
L 705.375 305.29457 
L 717.75 308.204419 
L 730.125 308.069682 
L 742.5 308.498815 
L 754.875 307.492984 
L 767.25 306.328981 
L 779.625 307.119989 
" clip-path="url(#p03d282dfa0)" style="fill: none; stroke: #000000; stroke-width: 1.5; stroke-linecap: square"/>
   </g>
   <g id="line2d_4">
    <path d="M 0 306 
L 12.375 306 
L 24.75 308.503558 
L 37.125 306.649872 
L 49.5 305.968596 
L 61.875 307.098282 
L 74.25 305.159828 
L 86.625 303.815481 
L 99 303.552821 
L 111.375 304.755795 
L 123.75 305.572628 
L 136.125 306.174994 
L 148.5 307.079811 
L 160.875 307.15896 
L 173.25 305.058097 
L 185.625 305.814115 
L 198 305.089368 
L 210.375 304.695965 
L 222.75 305.127394 
L 235.125 305.04479 
L 247.5 304.325074 
L 259.875 304.598748 
L 272.25 303.72127 
L 284.625 301.632415 
L 297 302.075393 
L 309.375 301.32874 
L 321.75 302.674361 
L 334.125 303.270995 
L 346.5 305.333405 
L 358.875 307.122685 
L 371.25 306.338543 
L 383.625 305.439375 
L 396 305.074233 
L 408.375 307.346114 
L 420.75 303.978742 
L 433.125 304.455975 
L 445.5 304.199167 
L 457.875 303.636034 
L 470.25 303.975771 
L 482.625 304.07201 
L 495 304.432312 
L 507.375 305.892036 
L 519.75 304.822054 
L 532.125 304.62882 
L 544.5 304.286237 
L 556.875 305.242682 
L 569.25 305.965389 
L 581.625 303.819818 
L 594 304.169464 
L 606.375 304.284109 
L 618.75 305.633481 
L 631.125 306.937637 
L 643.5 307.135508 
L 655.875 306.60571 
L 668.25 306.621839 
L 680.625 304.938243 
L 693 305.527691 
L 705.375 305.532394 
L 717.75 307.068697 
L 730.125 307.174481 
L 742.5 307.541531 
L 754.875 307.143568 
L 767.25 306.571542 
L 779.625 306.95754 
" clip-path="url(#p03d282dfa0)" style="fill: none; stroke: #000000; stroke-width: 1.5; stroke-linecap: square"/>
   </g>
   <g id="line2d_5">
    <path d="M 0 306 
L 12.375 306 
L 24.75 308.404167 
L 37.125 306.727599 
L 49.5 306.098893 
L 61.875 307.039544 
L 74.25 305.439123 
L 86.625 304.304489 
L 99 304.017789 
L 111.375 304.861782 
L 123.75 305.451855 
L 136.125 305.90354 
L 148.5 306.577265 
L 160.875 306.693659 
L 173.25 305.326887 
L 185.625 305.79811 
L 198 305.327302 
L 210.375 305.049415 
L 222.75 305.284639 
L 235.125 305.217075 
L 247.5 304.757895 
L 259.875 304.880928 
L 272.25 304.327634 
L 284.625 303.03111 
L 297 303.15842 
L 309.375 302.622718 
L 321.75 303.278478 
L 334.125 303.56423 
L 346.5 304.708471 
L 358.875 305.773934 
L 371.25 305.455413 
L 383.625 305.033055 
L 396 304.866647 
L 408.375 306.137506 
L 420.75 304.397712 
L 433.125 304.621644 
L 445.5 304.467665 
L 457.875 304.141455 
L 470.25 304.279749 
L 482.625 304.303806 
L 495 304.476703 
L 507.375 305.255469 
L 519.75 304.739782 
L 532.125 304.645213 
L 544.5 304.463952 
L 556.875 304.957225 
L 569.25 305.360655 
L 581.625 304.27868 
L 594 304.423808 
L 606.375 304.462361 
L 618.75 305.158836 
L 631.125 305.884296 
L 643.5 306.074604 
L 655.875 305.885077 
L 668.25 305.951485 
L 680.625 305.120107 
L 693 305.413405 
L 705.375 305.42278 
L 717.75 306.236854 
L 730.125 306.361391 
L 742.5 306.623955 
L 754.875 306.495578 
L 767.25 306.249387 
L 779.625 306.47576 
" clip-path="url(#p03d282dfa0)" style="fill: none; stroke: #000000; stroke-width: 1.5; stroke-linecap: square"/>
   </g>
   <g id="line2d_6">
    <path d="M 0 306 
L 12.375 306 
L 24.75 308.354309 
L 37.125 306.763152 
L 49.5 306.162454 
L 61.875 307.016058 
L 74.25 305.572457 
L 86.625 304.543252 
L 99 304.258675 
L 111.375 304.950118 
L 123.75 305.436343 
L 136.125 305.81208 
L 148.5 306.370441 
L 160.875 306.484117 
L 173.25 305.424777 
L 185.625 305.782492 
L 198 305.423063 
L 210.375 305.205354 
L 222.75 305.368397 
L 235.125 305.312399 
L 247.5 304.972241 
L 259.875 305.045182 
L 272.25 304.642235 
L 284.625 303.714242 
L 297 303.757468 
L 309.375 303.352755 
L 321.75 303.750555 
L 334.125 303.912821 
L 346.5 304.650081 
L 358.875 305.35276 
L 371.25 305.170241 
L 383.625 304.914525 
L 396 304.814968 
L 408.375 305.622454 
L 420.75 304.558307 
L 433.125 304.689087 
L 445.5 304.590274 
L 457.875 304.38358 
L 470.25 304.455127 
L 482.625 304.460566 
L 495 304.556427 
L 507.375 305.017517 
L 519.75 304.723427 
L 532.125 304.66844 
L 544.5 304.560926 
L 556.875 304.843979 
L 569.25 305.083713 
L 581.625 304.472366 
L 594 304.546384 
L 606.375 304.562532 
L 618.75 304.954296 
L 631.125 305.375298 
L 643.5 305.506846 
L 655.875 305.42705 
L 668.25 305.485733 
L 680.625 305.043597 
L 693 305.210223 
L 705.375 305.224828 
L 717.75 305.683518 
L 730.125 305.777507 
L 742.5 305.948344 
L 754.875 305.908936 
L 767.25 305.801294 
L 779.625 305.944803 
" clip-path="url(#p03d282dfa0)" style="fill: none; stroke: #000000; stroke-width: 1.5; stroke-linecap: square"/>
   </g>
   <g id="line2d_7">
    <path d="M 0 306 
L 12.375 306 
L 24.75 308.329359 
L 37.125 306.780064 
L 49.5 306.193692 
L 61.875 307.005736 
L 74.25 305.637237 
L 86.625 304.660201 
L 99 304.379674 
L 111.375 305.00207 
L 123.75 305.439985 
L 136.125 305.779162 
L 148.5 306.282057 
L 160.875 306.390581 
L 173.25 305.467486 
L 185.625 305.775622 
L 198 305.46601 
L 210.375 305.27685 
L 222.75 305.410308 
L 235.125 305.36059 
L 247.5 305.074255 
L 259.875 305.128532 
L 272.25 304.793709 
L 284.625 304.031419 
L 297 304.049492 
L 309.375 303.710955 
L 321.75 304.008668 
L 334.125 304.123886 
L 346.5 304.689739 
L 358.875 305.232556 
L 371.25 305.097533 
L 383.625 304.90544 
L 396 304.830353 
L 408.375 305.437507 
L 420.75 304.649758 
L 433.125 304.743139 
L 445.5 304.66816 
L 457.875 304.513795 
L 470.25 304.560859 
L 482.625 304.560816 
L 495 304.62593 
L 507.375 304.952324 
L 519.75 304.74618 
L 532.125 304.706635 
L 544.5 304.630013 
L 556.875 304.82467 
L 569.25 304.991226 
L 581.625 304.57371 
L 594 304.620987 
L 606.375 304.629528 
L 618.75 304.892398 
L 631.125 305.177658 
L 643.5 305.271966 
L 655.875 305.226213 
L 668.25 305.271321 
L 680.625 304.986569 
L 693 305.09756 
L 705.375 305.110494 
L 717.75 305.411748 
L 730.125 305.480558 
L 742.5 305.599189 
L 754.875 305.584162 
L 767.25 305.524973 
L 779.625 305.623987 
" clip-path="url(#p03d282dfa0)" style="fill: none; stroke: #000000; stroke-width: 1.5; stroke-linecap: square"/>
   </g>
   <g id="line2d_8">
    <path d="M 0 306 
L 12.375 306 
L 24.75 308.316881 
L 37.125 306.7883 
L 49.5 306.209157 
L 61.875 307.00092 
L 74.25 305.669118 
L 86.625 304.717947 
L 99 304.440111 
L 111.375 305.029809 
L 123.75 305.444588 
L 136.125 305.76601 
L 148.5 306.24198 
L 160.875 306.347214 
L 173.25 305.487727 
L 185.625 305.77285 
L 198 305.486513 
L 210.375 305.311007 
L 222.75 305.431227 
L 235.125 305.384677 
L 247.5 305.123492 
L 259.875 305.169905 
L 272.25 304.866851 
L 284.625 304.181355 
L 297 304.19039 
L 309.375 303.883987 
L 321.75 304.138989 
L 334.125 304.23461 
L 346.5 304.724558 
L 358.875 305.195371 
L 371.25 305.07989 
L 383.625 304.914963 
L 396 304.850175 
L 408.375 305.368185 
L 420.75 304.700582 
L 433.125 304.777923 
L 445.5 304.713547 
L 457.875 304.582486 
L 470.25 304.619629 
L 482.625 304.617757 
L 495 304.66997 
L 507.375 304.937975 
L 519.75 304.769012 
L 532.125 304.735993 
L 544.5 304.672723 
L 556.875 304.829493 
L 569.25 304.963965 
L 581.625 304.628654 
L 594 304.665092 
L 606.375 304.670757 
L 618.75 304.878733 
L 631.125 305.105024 
L 643.5 305.181245 
L 655.875 305.147526 
L 668.25 305.184752 
L 680.625 304.964781 
L 693 305.051516 
L 705.375 305.062602 
L 717.75 305.295956 
L 730.125 305.351447 
L 742.5 305.445132 
L 754.875 305.437108 
L 767.25 305.39539 
L 779.625 305.473146 
" clip-path="url(#p03d282dfa0)" style="fill: none; stroke: #000000; stroke-width: 1.5; stroke-linecap: square"/>
   </g>
   <g id="line2d_9">
    <path d="M 0 306 
L 12.375 306 
L 24.75 308.310642 
L 37.125 306.792362 
L 49.5 306.21685 
L 61.875 306.998597 
L 74.25 305.684928 
L 86.625 304.746624 
L 99 304.470288 
L 111.375 305.044093 
L 123.75 305.44757 
L 136.125 305.760266 
L 148.5 306.223004 
L 160.875 306.326443 
L 173.25 305.497627 
L 185.625 305.771685 
L 198 305.496562 
L 210.375 305.327702 
L 222.75 305.441679 
L 235.125 305.396707 
L 247.5 305.147624 
L 259.875 305.190448 
L 272.25 304.902651 
L 284.625 304.253893 
L 297 304.259186 
L 309.375 303.968469 
L 321.75 304.203897 
L 334.125 304.290679 
L 346.5 304.745243 
L 358.875 305.182258 
L 371.25 305.075618 
L 383.625 304.923172 
L 396 304.863098 
L 408.375 305.339584 
L 420.75 304.727377 
L 433.125 304.797394 
L 445.5 304.737967 
L 457.875 304.617755 
L 470.25 304.650511 
L 482.625 304.647936 
L 495 304.694356 
L 507.375 304.935673 
L 519.75 304.783546 
L 532.125 304.753499 
L 544.5 304.696336 
L 556.875 304.835943 
L 569.25 304.955756 
L 581.625 304.657509 
L 594 304.689184 
L 606.375 304.693644 
L 618.75 304.876929 
L 631.125 305.076495 
L 643.5 305.144171 
L 655.875 305.115382 
L 668.25 305.148661 
L 680.625 304.957258 
L 693 305.033008 
L 705.375 305.043024 
L 717.75 305.245868 
L 730.125 305.294889 
L 742.5 305.3769 
L 754.875 305.371296 
L 767.25 305.336675 
L 779.625 305.404471 
" clip-path="url(#p03d282dfa0)" style="fill: none; stroke: #000000; stroke-width: 1.5; stroke-linecap: square"/>
   </g>
  </g>
 </g>
 <defs>
  <clipPath id="p03d282dfa0">
   <rect x="0" y="0" width="792" height="612"/>
  </clipPath>
 </defs>
</svg>
