<?xml version="1.0" encoding="utf-8" standalone="no"?>
<!DOCTYPE svg PUBLIC "-//W3C//DTD SVG 1.1//EN"
  "http://www.w3.org/Graphics/SVG/1.1/DTD/svg11.dtd">
<svg xmlns:xlink="http://www.w3.org/1999/xlink" width="792pt" height="612pt" viewBox="0 0 792 612" xmlns="http://www.w3.org/2000/svg" version="1.1">
 <metadata>
  <rdf:RDF xmlns:dc="http://purl.org/dc/elements/1.1/" xmlns:cc="http://creativecommons.org/ns#" xmlns:rdf="http://www.w3.org/1999/02/22-rdf-syntax-ns#">
   <cc:Work>
    <dc:type rdf:resource="http://purl.org/dc/dcmitype/StillImage"/>
    <dc:date>2022-12-19T20:28:21.511269</dc:date>
    <dc:format>image/svg+xml</dc:format>
    <dc:creator>
     <cc:Agent>
      <dc:title>Matplotlib v3.6.2, https://matplotlib.org/</dc:title>
     </cc:Agent>
    </dc:creator>
   </cc:Work>
  </rdf:RDF>
 </metadata>
 <defs>
  <style type="text/css">*{stroke-linejoin: round; stroke-linecap: butt}</style>
 </defs>
 <g id="figure_1">
  <g id="patch_1">
   <path d="M 0 612 
L 792 612 
L 792 0 
L 0 0 
z
" style="fill: #ffffff"/>
  </g>
  <g id="axes_1">
   <g id="line2d_1">
    <path d="M 0 459 
L 12.375 464.15356 
L 24.75 464.346078 
L 37.125 467.337511 
L 49.5 468.870251 
L 61.875 468.996128 
L 74.25 469.78101 
L 86.625 473.520302 
L 99 474.43106 
L 111.375 475.786091 
L 123.75 478.281421 
L 136.125 480.295456 
L 148.5 479.325461 
L 160.875 478.673861 
L 173.25 480.458356 
L 185.625 477.49654 
L 198 474.534724 
L 210.375 473.039007 
L 222.75 474.579151 
L 235.125 475.88235 
L 247.5 477.104099 
L 259.875 479.355079 
L 272.25 480.021488 
L 284.625 475.267773 
L 297 476.778299 
L 309.375 474.830905 
L 321.75 473.409234 
L 334.125 473.971979 
L 346.5 473.372211 
L 358.875 471.039781 
L 371.25 471.039781 
L 383.625 468.070561 
L 396 461.443498 
L 408.375 460.732662 
L 420.75 452.980455 
L 433.125 457.822681 
L 445.5 458.333592 
L 457.875 463.205778 
L 470.25 467.796593 
L 482.625 466.145381 
L 495 463.835164 
L 507.375 462.591202 
L 519.75 468.403765 
L 532.125 459.784881 
L 544.5 460.20694 
L 556.875 458.489087 
L 569.25 451.536882 
L 581.625 451.20377 
L 594 449.316299 
L 606.375 449.738178 
L 618.75 459.229541 
L 631.125 450.781839 
L 643.5 447.673354 
L 655.875 443.101412 
L 668.25 448.716816 
L 680.625 453.60234 
L 693 435.983798 
L 705.375 435.983798 
L 717.75 434.521624 
L 730.125 443.345473 
L 742.5 453.557918 
L 754.875 456.378822 
L 767.25 453.513498 
L 779.625 454.401935 
" clip-path="url(#pd0ea2521fe)" style="fill: none; stroke: #000000; stroke-width: 1.5; stroke-linecap: square"/>
   </g>
   <g id="line2d_2">
    <path d="M 0 459 
L 12.375 459 
L 24.75 462.435706 
L 37.125 463.527347 
L 49.5 465.559435 
L 61.875 467.268243 
L 74.25 468.145899 
L 86.625 468.969892 
L 99 471.254019 
L 111.375 472.872797 
L 123.75 474.352253 
L 136.125 476.344161 
L 148.5 478.345216 
L 160.875 478.855839 
L 173.25 478.783826 
L 185.625 479.642027 
L 198 478.57708 
L 210.375 476.556105 
L 222.75 474.79217 
L 235.125 474.678401 
L 247.5 475.271722 
L 259.875 476.183555 
L 272.25 477.770653 
L 284.625 478.895214 
L 297 477.077123 
L 309.375 476.932111 
L 321.75 475.885022 
L 334.125 474.644834 
L 346.5 474.304661 
L 358.875 473.831118 
L 371.25 472.419145 
L 383.625 471.711852 
L 396 469.877094 
L 408.375 465.630228 
L 420.75 463.153801 
L 433.125 460.041398 
L 445.5 459.294352 
L 457.875 459.007492 
L 470.25 461.091274 
L 482.625 464.437574 
L 495 465.287703 
L 507.375 464.566123 
L 519.75 463.582307 
L 532.125 466.015409 
L 544.5 462.902454 
L 556.875 461.557499 
L 569.25 460.185017 
L 581.625 456.979271 
L 594 454.034013 
L 606.375 451.627542 
L 618.75 450.64355 
L 631.125 455.111752 
L 643.5 452.925932 
L 655.875 450.270055 
L 668.25 446.65482 
L 680.625 447.680232 
L 693 450.64564 
L 705.375 443.284566 
L 717.75 439.605998 
L 730.125 437.013857 
L 742.5 440.164201 
L 754.875 446.870008 
L 767.25 451.649663 
L 779.625 452.59096 
" clip-path="url(#pd0ea2521fe)" style="fill: none; stroke: #000000; stroke-width: 1.5; stroke-linecap: square"/>
   </g>
   <g id="line2d_3">
    <path d="M 0 459 
L 12.375 459 
L 24.75 462.018885 
L 37.125 463.073294 
L 49.5 464.738574 
L 61.875 466.208577 
L 74.25 467.141668 
L 86.625 467.989666 
L 99 469.717544 
L 111.375 471.161935 
L 123.75 472.560009 
L 136.125 474.273638 
L 148.5 476.065383 
L 160.875 477.030906 
L 173.25 477.515905 
L 185.625 478.382516 
L 198 478.122002 
L 210.375 477.089156 
L 222.75 475.913101 
L 235.125 475.53415 
L 247.5 475.64595 
L 259.875 476.082489 
L 272.25 477.052907 
L 284.625 477.934146 
L 297 477.155191 
L 309.375 477.047498 
L 321.75 476.397176 
L 334.125 475.516432 
L 346.5 475.056809 
L 358.875 474.556564 
L 371.25 473.517753 
L 383.625 472.781154 
L 396 471.390627 
L 408.375 468.462143 
L 420.75 466.184096 
L 433.125 463.471995 
L 445.5 462.027393 
L 457.875 461.054579 
L 470.25 461.666101 
L 482.625 463.447639 
L 495 464.227311 
L 507.375 464.097588 
L 519.75 463.642319 
L 532.125 465.031165 
L 544.5 463.478269 
L 556.875 462.504997 
L 569.25 461.414502 
L 581.625 459.961928 
L 594 458.716663 
L 606.375 455.94344 
L 618.75 454.109136 
L 631.125 455.750958 
L 643.5 454.287319 
L 655.875 452.337564 
L 668.25 449.598717 
L 680.625 449.298301 
L 693 450.527971 
L 705.375 446.221925 
L 717.75 443.182685 
L 730.125 440.584026 
L 742.5 441.372044 
L 754.875 444.928996 
L 767.25 448.278971 
L 779.625 449.81417 
" clip-path="url(#pd0ea2521fe)" style="fill: none; stroke: #000000; stroke-width: 1.5; stroke-linecap: square"/>
   </g>
   <g id="line2d_4">
    <path d="M 0 459 
L 12.375 459 
L 24.75 461.799484 
L 37.125 462.798931 
L 49.5 464.24314 
L 61.875 465.513414 
L 74.25 466.370581 
L 86.625 467.142763 
L 99 468.495682 
L 111.375 469.691389 
L 123.75 470.869306 
L 136.125 472.254512 
L 148.5 473.716618 
L 160.875 474.713824 
L 173.25 475.404969 
L 185.625 476.273538 
L 198 476.481094 
L 210.375 476.154241 
L 222.75 475.635679 
L 235.125 475.461094 
L 247.5 475.530279 
L 259.875 475.787437 
L 272.25 476.367888 
L 284.625 476.960195 
L 297 476.68665 
L 309.375 476.701426 
L 321.75 476.400495 
L 334.125 475.920111 
L 346.5 475.607716 
L 358.875 475.249687 
L 371.25 474.576155 
L 383.625 474.010879 
L 396 473.062047 
L 408.375 471.215019 
L 420.75 469.545104 
L 433.125 467.54349 
L 445.5 466.116305 
L 457.875 464.942436 
L 470.25 464.662514 
L 482.625 465.159919 
L 495 465.312108 
L 507.375 465.07051 
L 519.75 464.66781 
L 532.125 465.256051 
L 544.5 464.372771 
L 556.875 463.698044 
L 569.25 462.911091 
L 581.625 461.878043 
L 594 460.993465 
L 606.375 460.150944 
L 618.75 459.465876 
L 631.125 459.418697 
L 643.5 458.711834 
L 655.875 456.914265 
L 668.25 454.667671 
L 680.625 453.67496 
L 693 453.629592 
L 705.375 450.772034 
L 717.75 448.373252 
L 730.125 446.125232 
L 742.5 445.64513 
L 754.875 446.873397 
L 767.25 448.3611 
L 779.625 449.154772 
" clip-path="url(#pd0ea2521fe)" style="fill: none; stroke: #000000; stroke-width: 1.5; stroke-linecap: square"/>
   </g>
   <g id="line2d_5">
    <path d="M 0 459 
L 12.375 459 
L 24.75 461.68834 
L 37.125 462.652022 
L 49.5 463.97973 
L 61.875 465.134213 
L 74.25 465.924855 
L 86.625 466.628644 
L 99 467.772603 
L 111.375 468.793152 
L 123.75 469.794591 
L 136.125 470.940942 
L 148.5 472.141949 
L 160.875 473.024179 
L 173.25 473.691465 
L 185.625 474.463593 
L 198 474.799222 
L 210.375 474.770741 
L 222.75 474.588756 
L 235.125 474.587769 
L 247.5 474.718286 
L 259.875 474.954608 
L 272.25 475.383599 
L 284.625 475.829277 
L 297 475.776017 
L 309.375 475.869972 
L 321.75 475.773604 
L 334.125 475.556439 
L 346.5 475.412185 
L 358.875 475.227942 
L 371.25 474.852431 
L 383.625 474.512852 
L 396 473.942523 
L 408.375 472.842085 
L 420.75 471.781301 
L 433.125 470.491817 
L 445.5 469.459866 
L 457.875 468.535856 
L 470.25 468.076407 
L 482.625 468.052364 
L 495 467.888987 
L 507.375 467.54261 
L 519.75 467.120573 
L 532.125 467.229702 
L 544.5 466.59785 
L 556.875 466.05646 
L 569.25 465.445312 
L 581.625 464.691037 
L 594 463.992077 
L 606.375 463.299894 
L 618.75 462.678591 
L 631.125 462.388843 
L 643.5 461.874518 
L 655.875 461.316876 
L 668.25 460.678639 
L 680.625 460.251142 
L 693 459.995974 
L 705.375 459.270832 
L 717.75 457.82012 
L 730.125 455.872824 
L 742.5 454.826893 
L 754.875 454.721034 
L 767.25 454.859262 
L 779.625 454.747089 
" clip-path="url(#pd0ea2521fe)" style="fill: none; stroke: #000000; stroke-width: 1.5; stroke-linecap: square"/>
   </g>
   <g id="line2d_6">
    <path d="M 0 459 
L 12.375 459 
L 24.75 461.632586 
L 37.125 462.576538 
L 49.5 463.845206 
L 61.875 464.939122 
L 74.25 465.690576 
L 86.625 466.353534 
L 99 467.390934 
L 111.375 468.315381 
L 123.75 469.216266 
L 136.125 470.230147 
L 148.5 471.282786 
L 160.875 472.074654 
L 173.25 472.689909 
L 185.625 473.379137 
L 198 473.728266 
L 210.375 473.793867 
L 222.75 473.734765 
L 235.125 473.798585 
L 247.5 473.951022 
L 259.875 474.1748 
L 272.25 474.532238 
L 284.625 474.90118 
L 297 474.925223 
L 309.375 475.044001 
L 321.75 475.030632 
L 334.125 474.930939 
L 346.5 474.873081 
L 358.875 474.784123 
L 371.25 474.565875 
L 383.625 474.363563 
L 396 474.007826 
L 408.375 473.307475 
L 420.75 472.61577 
L 433.125 471.767128 
L 445.5 471.060697 
L 457.875 470.408688 
L 470.25 470.030379 
L 482.625 469.914233 
L 495 469.720134 
L 507.375 469.419787 
L 519.75 469.074267 
L 532.125 469.040616 
L 544.5 468.579686 
L 556.875 468.165792 
L 569.25 467.707501 
L 581.625 467.161591 
L 594 466.640205 
L 606.375 466.116755 
L 618.75 465.628109 
L 631.125 465.323382 
L 643.5 464.894005 
L 655.875 464.438129 
L 668.25 463.934227 
L 680.625 463.543631 
L 693 463.248637 
L 705.375 462.696207 
L 717.75 462.171421 
L 730.125 461.650249 
L 742.5 461.289776 
L 754.875 461.102452 
L 767.25 460.967042 
L 779.625 460.794868 
" clip-path="url(#pd0ea2521fe)" style="fill: none; stroke: #000000; stroke-width: 1.5; stroke-linecap: square"/>
   </g>
   <g id="line2d_7">
    <path d="M 0 459 
L 12.375 459 
L 24.75 461.604686 
L 37.125 462.538347 
L 49.5 463.777398 
L 61.875 464.840565 
L 74.25 465.571199 
L 86.625 466.212377 
L 99 467.196602 
L 111.375 468.071814 
L 123.75 468.920579 
L 136.125 469.866685 
L 148.5 470.842973 
L 160.875 471.583597 
L 173.25 472.164397 
L 185.625 472.805047 
L 198 473.148274 
L 210.375 473.244717 
L 222.75 473.231065 
L 235.125 473.316685 
L 247.5 473.473056 
L 259.875 473.685946 
L 272.25 474.006408 
L 284.625 474.334895 
L 297 474.384204 
L 309.375 474.506892 
L 321.75 474.523016 
L 334.125 474.469119 
L 346.5 474.445693 
L 358.875 474.396377 
L 371.25 474.245863 
L 383.625 474.105388 
L 396 473.84676 
L 408.375 473.326359 
L 420.75 472.808596 
L 433.125 472.17094 
L 445.5 471.634215 
L 457.875 471.134535 
L 470.25 470.831654 
L 482.625 470.717627 
L 495 470.548576 
L 507.375 470.304158 
L 519.75 470.027494 
L 532.125 469.97008 
L 544.5 469.614887 
L 556.875 469.291151 
L 569.25 468.935778 
L 581.625 468.518974 
L 594 468.117297 
L 606.375 467.712812 
L 618.75 467.330521 
L 631.125 467.070929 
L 643.5 466.728146 
L 655.875 466.367075 
L 668.25 465.973383 
L 680.625 465.65323 
L 693 465.39548 
L 705.375 464.970167 
L 717.75 464.561301 
L 730.125 464.153521 
L 742.5 463.847918 
L 754.875 463.653222 
L 767.25 463.492949 
L 779.625 463.311001 
" clip-path="url(#pd0ea2521fe)" style="fill: none; stroke: #000000; stroke-width: 1.5; stroke-linecap: square"/>
   </g>
   <g id="line2d_8">
    <path d="M 0 459 
L 12.375 459 
L 24.75 461.590733 
L 37.125 462.519146 
L 49.5 463.743377 
L 61.875 464.791082 
L 74.25 465.511035 
L 86.625 466.141029 
L 99 467.098779 
L 111.375 467.949214 
L 123.75 468.771645 
L 136.125 469.683741 
L 148.5 470.621672 
L 160.875 471.33556 
L 173.25 471.897418 
L 185.625 472.512425 
L 198 472.849871 
L 210.375 472.957798 
L 222.75 472.962737 
L 235.125 473.056356 
L 247.5 473.212664 
L 259.875 473.418723 
L 272.25 473.720343 
L 284.625 474.028173 
L 297 474.08651 
L 309.375 474.208752 
L 321.75 474.23606 
L 334.125 474.200932 
L 346.5 474.191504 
L 358.875 474.158761 
L 371.25 474.03765 
L 383.625 473.924418 
L 396 473.709125 
L 408.375 473.269456 
L 420.75 472.831058 
L 433.125 472.290316 
L 445.5 471.833819 
L 457.875 471.407856 
L 470.25 471.145978 
L 482.625 471.041254 
L 495 470.89125 
L 507.375 470.679272 
L 519.75 470.440884 
L 532.125 470.381945 
L 544.5 470.08081 
L 556.875 469.805091 
L 569.25 469.503781 
L 581.625 469.152969 
L 594 468.814131 
L 606.375 468.472962 
L 618.75 468.149377 
L 631.125 467.922979 
L 643.5 467.631227 
L 655.875 467.325201 
L 668.25 466.993705 
L 680.625 466.719563 
L 693 466.49408 
L 705.375 466.139256 
L 717.75 465.797047 
L 730.125 465.455661 
L 742.5 465.192464 
L 754.875 465.014079 
L 767.25 464.862366 
L 779.625 464.694841 
" clip-path="url(#pd0ea2521fe)" style="fill: none; stroke: #000000; stroke-width: 1.5; stroke-linecap: square"/>
   </g>
   <g id="line2d_9">
    <path d="M 0 459 
L 12.375 459 
L 24.75 461.583757 
L 37.125 462.509521 
L 49.5 463.72634 
L 61.875 464.766295 
L 74.25 465.480845 
L 86.625 466.105179 
L 99 467.049732 
L 111.375 467.887757 
L 123.75 468.696976 
L 136.125 469.592072 
L 148.5 470.510825 
L 160.875 471.211122 
L 173.25 471.763141 
L 185.625 472.365052 
L 198 472.69896 
L 210.375 472.811687 
L 222.75 472.824906 
L 235.125 472.921803 
L 247.5 473.077569 
L 259.875 473.279869 
L 272.25 473.571999 
L 284.625 473.869431 
L 297 473.931395 
L 309.375 474.052825 
L 321.75 474.08482 
L 334.125 474.057997 
L 346.5 474.054696 
L 358.875 474.029334 
L 371.25 473.921661 
L 383.625 473.820948 
L 396 473.625759 
L 408.375 473.223722 
L 420.75 472.822567 
L 433.125 472.327434 
L 445.5 471.909106 
L 457.875 471.518525 
L 470.25 471.277144 
L 482.625 471.178411 
L 495 471.038844 
L 507.375 470.843448 
L 519.75 470.62437 
L 532.125 470.566639 
L 544.5 470.291992 
L 556.875 470.040148 
L 569.25 469.765574 
L 581.625 469.447042 
L 594 469.139232 
L 606.375 468.82947 
L 618.75 468.535373 
L 631.125 468.327115 
L 643.5 468.061578 
L 655.875 467.783686 
L 668.25 467.483666 
L 680.625 467.23391 
L 693 467.02677 
L 705.375 466.707396 
L 717.75 466.399121 
L 730.125 466.09173 
L 742.5 465.852043 
L 754.875 465.685672 
L 767.25 465.542523 
L 779.625 465.386114 
" clip-path="url(#pd0ea2521fe)" style="fill: none; stroke: #000000; stroke-width: 1.5; stroke-linecap: square"/>
   </g>
  </g>
 </g>
 <defs>
  <clipPath id="pd0ea2521fe">
   <rect x="0" y="0" width="792" height="612"/>
  </clipPath>
 </defs>
</svg>
