<?xml version="1.0" encoding="utf-8" standalone="no"?>
<!DOCTYPE svg PUBLIC "-//W3C//DTD SVG 1.1//EN"
  "http://www.w3.org/Graphics/SVG/1.1/DTD/svg11.dtd">
<svg xmlns:xlink="http://www.w3.org/1999/xlink" width="792pt" height="612pt" viewBox="0 0 792 612" xmlns="http://www.w3.org/2000/svg" version="1.1">
 <metadata>
  <rdf:RDF xmlns:dc="http://purl.org/dc/elements/1.1/" xmlns:cc="http://creativecommons.org/ns#" xmlns:rdf="http://www.w3.org/1999/02/22-rdf-syntax-ns#">
   <cc:Work>
    <dc:type rdf:resource="http://purl.org/dc/dcmitype/StillImage"/>
    <dc:date>2023-01-09T02:27:16.795885</dc:date>
    <dc:format>image/svg+xml</dc:format>
    <dc:creator>
     <cc:Agent>
      <dc:title>Matplotlib v3.6.2, https://matplotlib.org/</dc:title>
     </cc:Agent>
    </dc:creator>
   </cc:Work>
  </rdf:RDF>
 </metadata>
 <defs>
  <style type="text/css">*{stroke-linejoin: round; stroke-linecap: butt}</style>
 </defs>
 <g id="figure_1">
  <g id="patch_1">
   <path d="M 0 612 
L 792 612 
L 792 0 
L 0 0 
z
" style="fill: #ffffff"/>
  </g>
  <g id="axes_1">
   <g id="line2d_1">
    <path d="M 0 306 
L 44 306.461599 
L 88 304.795835 
L 132 309.471878 
L 176 307.344649 
L 220 306.080278 
L 264 305.879583 
L 308 303.230482 
L 352 305.297568 
L 396 305.137013 
L 440 303.330821 
L 484 309.993608 
L 528 304.735627 
L 572 308.067129 
L 616 305.97993 
L 660 304.67542 
L 704 309.792945 
L 748 298.816431 
" clip-path="url(#p64ec123922)" style="fill: none; stroke: #000000; stroke-width: 1.5; stroke-linecap: square"/>
   </g>
   <g id="line2d_2">
    <path d="M 0 306 
L 44 306 
L 88 306.307733 
L 132 305.443788 
L 176 307.592168 
L 220 307.464417 
L 264 306.761366 
L 308 306.317004 
L 352 304.767659 
L 396 305.031236 
L 440 305.081527 
L 484 304.203287 
L 528 307.099569 
L 572 305.912481 
L 616 306.993713 
L 660 306.48702 
L 704 305.58405 
L 748 307.697392 
" clip-path="url(#p64ec123922)" style="fill: none; stroke: #000000; stroke-width: 1.5; stroke-linecap: square"/>
   </g>
   <g id="line2d_3">
    <path d="M 0 306 
L 44 306 
L 88 306.270398 
L 132 305.602298 
L 176 307.113516 
L 220 307.195751 
L 264 306.822365 
L 308 306.519458 
L 352 305.491895 
L 396 305.432346 
L 440 305.343055 
L 484 304.740354 
L 528 306.303481 
L 572 305.839135 
L 616 306.496847 
L 660 306.344605 
L 704 305.853792 
L 748 307.011953 
" clip-path="url(#p64ec123922)" style="fill: none; stroke: #000000; stroke-width: 1.5; stroke-linecap: square"/>
   </g>
   <g id="line2d_4">
    <path d="M 0 306 
L 44 306 
L 88 306.250747 
L 132 305.679744 
L 176 306.886473 
L 220 307.012256 
L 264 306.782878 
L 308 306.578357 
L 352 305.868129 
L 396 305.753187 
L 440 305.634099 
L 484 305.203642 
L 528 306.074654 
L 572 305.836585 
L 616 306.225888 
L 660 306.183613 
L 704 305.927655 
L 748 306.576783 
" clip-path="url(#p64ec123922)" style="fill: none; stroke: #000000; stroke-width: 1.5; stroke-linecap: square"/>
   </g>
   <g id="line2d_5">
    <path d="M 0 306 
L 44 306 
L 88 306.240792 
L 132 305.716856 
L 176 306.780942 
L 220 306.914014 
L 264 306.743326 
L 308 306.585684 
L 352 306.028736 
L 396 305.916669 
L 440 305.805016 
L 484 305.470808 
L 528 306.051509 
L 572 305.889901 
L 616 306.147058 
L 660 306.127988 
L 704 305.967244 
L 748 306.379225 
" clip-path="url(#p64ec123922)" style="fill: none; stroke: #000000; stroke-width: 1.5; stroke-linecap: square"/>
   </g>
   <g id="line2d_6">
    <path d="M 0 306 
L 44 306 
L 88 306.235798 
L 132 305.734871 
L 176 306.730719 
L 220 306.864367 
L 264 306.719136 
L 308 306.583066 
L 352 306.097764 
L 396 305.992689 
L 440 305.889504 
L 484 305.603324 
L 528 306.062487 
L 572 305.931846 
L 616 306.130925 
L 660 306.117528 
L 704 305.995246 
L 748 306.304185 
" clip-path="url(#p64ec123922)" style="fill: none; stroke: #000000; stroke-width: 1.5; stroke-linecap: square"/>
   </g>
   <g id="line2d_7">
    <path d="M 0 306 
L 44 306 
L 88 306.233299 
L 132 305.743727 
L 176 306.7063 
L 220 306.83956 
L 264 306.706063 
L 308 306.580186 
L 352 306.129041 
L 396 306.028451 
L 440 305.93037 
L 484 305.667625 
L 528 306.072623 
L 572 305.955886 
L 616 306.128832 
L 660 306.11733 
L 704 306.01184 
L 748 306.274871 
" clip-path="url(#p64ec123922)" style="fill: none; stroke: #000000; stroke-width: 1.5; stroke-linecap: square"/>
   </g>
   <g id="line2d_8">
    <path d="M 0 306 
L 44 306 
L 88 306.232049 
L 132 305.748115 
L 176 306.69427 
L 220 306.827179 
L 264 306.699302 
L 308 306.57836 
L 352 306.143832 
L 396 306.045678 
L 440 305.950319 
L 484 305.699073 
L 528 306.078671 
L 572 305.968514 
L 616 306.129197 
L 660 306.118474 
L 704 306.020772 
L 748 306.26242 
" clip-path="url(#p64ec123922)" style="fill: none; stroke: #000000; stroke-width: 1.5; stroke-linecap: square"/>
   </g>
   <g id="line2d_9">
    <path d="M 0 306 
L 44 306 
L 88 306.231424 
L 132 305.750299 
L 176 306.688301 
L 220 306.820997 
L 264 306.695867 
L 308 306.577352 
L 352 306.151012 
L 396 306.054118 
L 440 305.960156 
L 484 305.714595 
L 528 306.081915 
L 572 305.974956 
L 616 306.129716 
L 660 306.119347 
L 704 306.02539 
L 748 306.256753 
" clip-path="url(#p64ec123922)" style="fill: none; stroke: #000000; stroke-width: 1.5; stroke-linecap: square"/>
   </g>
  </g>
 </g>
 <defs>
  <clipPath id="p64ec123922">
   <rect x="0" y="0" width="792" height="612"/>
  </clipPath>
 </defs>
</svg>
