<?xml version="1.0" encoding="utf-8" standalone="no"?>
<!DOCTYPE svg PUBLIC "-//W3C//DTD SVG 1.1//EN"
  "http://www.w3.org/Graphics/SVG/1.1/DTD/svg11.dtd">
<svg xmlns:xlink="http://www.w3.org/1999/xlink" width="792pt" height="612pt" viewBox="0 0 792 612" xmlns="http://www.w3.org/2000/svg" version="1.1">
 <metadata>
  <rdf:RDF xmlns:dc="http://purl.org/dc/elements/1.1/" xmlns:cc="http://creativecommons.org/ns#" xmlns:rdf="http://www.w3.org/1999/02/22-rdf-syntax-ns#">
   <cc:Work>
    <dc:type rdf:resource="http://purl.org/dc/dcmitype/StillImage"/>
    <dc:date>2023-01-02T15:39:35.502674</dc:date>
    <dc:format>image/svg+xml</dc:format>
    <dc:creator>
     <cc:Agent>
      <dc:title>Matplotlib v3.6.2, https://matplotlib.org/</dc:title>
     </cc:Agent>
    </dc:creator>
   </cc:Work>
  </rdf:RDF>
 </metadata>
 <defs>
  <style type="text/css">*{stroke-linejoin: round; stroke-linecap: butt}</style>
 </defs>
 <g id="figure_1">
  <g id="patch_1">
   <path d="M 0 612 
L 792 612 
L 792 0 
L 0 0 
z
" style="fill: #ffffff"/>
  </g>
  <g id="axes_1">
   <g id="line2d_1">
    <path d="M 0 306 
L 3.155378 304.929286 
L 6.310757 304.609954 
L 9.466135 308.592203 
L 12.621514 306.169061 
L 15.776892 310.169908 
L 18.932271 309.493771 
L 22.087649 305.342542 
L 25.243028 307.352477 
L 28.398406 303.144834 
L 31.553785 311.784946 
L 34.709163 296.104005 
L 37.864542 306 
L 41.01992 304.835365 
L 44.175299 308.479504 
L 47.330677 309.305949 
L 50.486056 308.610986 
L 53.641434 304.159138 
L 56.796813 303.42658 
L 59.952191 306.093923 
L 63.10757 307.333693 
L 66.262948 300.628176 
L 69.418327 303.107268 
L 72.573705 310.902343 
L 75.729084 308.272886 
L 78.884462 306.676242 
L 82.039841 306.676242 
L 85.195219 310.564302 
L 88.350598 307.653023 
L 91.505976 305.154698 
L 94.661355 305.849724 
L 97.816733 303.764681 
L 100.972112 302.60014 
L 104.12749 305.849724 
L 107.282869 309.700372 
L 110.438247 309.700372 
L 113.593625 313.887755 
L 116.749004 293.834041 
L 119.904382 310.414058 
L 123.059761 310.846004 
L 126.215139 305.098345 
L 129.370518 304.929286 
L 132.525896 304.534818 
L 135.681275 310.320155 
L 138.836653 317.359419 
L 141.992032 302.280846 
L 145.14741 313.19315 
L 148.302789 309.230819 
L 151.458167 302.562576 
L 154.613546 296.19783 
L 157.768924 306.958008 
L 160.924303 305.11713 
L 164.079681 306.150276 
L 170.390438 303.821031 
L 173.545817 307.991132 
L 176.701195 305.511603 
L 179.856574 302.712834 
L 183.011952 304.027652 
L 186.167331 303.032137 
L 189.322709 308.009916 
L 192.478088 308.986645 
L 195.633466 301.698626 
L 198.788845 307.897213 
L 201.944223 304.985639 
L 205.099602 301.848873 
L 208.25498 302.186938 
L 211.410359 303.670763 
L 214.565737 307.145851 
L 217.721116 306.901655 
L 220.876494 305.154698 
L 224.031873 307.671807 
L 227.187251 308.836383 
L 230.342629 301.585942 
L 233.498008 298.037157 
L 236.653386 307.953565 
L 239.808765 308.554637 
L 242.964143 303.558063 
L 246.119522 311.184034 
L 249.2749 306.807733 
L 252.430279 298.393832 
L 255.585657 311.371824 
L 258.741036 310.076002 
L 261.896414 310.076002 
L 265.051793 303.839815 
L 268.207171 311.446938 
L 271.36255 303.107268 
L 274.517928 306.732595 
L 277.673307 307.540318 
L 280.828685 310.094783 
L 283.984064 307.164635 
L 287.139442 302.938224 
L 290.294821 303.1824 
L 293.450199 306.826517 
L 296.605578 324.087179 
L 299.760956 312.273154 
L 302.916335 305.830939 
L 306.071713 299.87706 
L 309.227092 301.153996 
L 312.38247 310.545522 
L 315.537849 303.614413 
L 318.693227 301.79253 
L 321.848606 307.577887 
L 325.003984 310.20747 
L 328.159363 303.05092 
L 331.314741 308.479504 
L 334.47012 307.070714 
L 337.625498 302.957006 
L 340.780876 309.437424 
L 343.936255 310.921123 
L 347.091633 307.014361 
L 350.247012 313.136827 
L 353.40239 314.094244 
L 356.557769 308.498287 
L 359.713147 304.478466 
L 362.868526 307.803294 
L 366.023904 298.468924 
L 369.179283 301.999123 
L 372.334661 298.863173 
L 375.49004 302.149375 
L 378.645418 308.066267 
L 381.800797 310.376497 
L 384.956175 303.59563 
L 388.111554 303.013355 
L 391.266932 301.642284 
L 394.422311 308.648553 
L 397.577689 303.464146 
L 400.733068 306.093923 
L 403.888446 307.840862 
L 407.043825 304.084003 
L 410.199203 308.423154 
L 413.354582 304.21549 
L 416.50996 306.807733 
L 419.665339 306.37569 
L 422.820717 309.305949 
L 425.976096 304.628738 
L 429.131474 310.676984 
L 432.286853 307.465182 
L 435.442231 301.773749 
L 438.59761 304.177922 
L 441.752988 305.474034 
L 448.063745 301.454478 
L 451.219124 323.169792 
L 454.374502 298.506471 
L 457.52988 307.78451 
L 460.685259 300.496726 
L 463.840637 306.432044 
L 466.996016 305.868508 
L 470.151394 304.966855 
L 473.306773 306.638673 
L 476.462151 303.42658 
L 479.61753 307.953565 
L 482.772908 303.351447 
L 485.928287 302.449883 
L 489.083665 303.42658 
L 492.239044 307.296125 
L 495.394422 305.004423 
L 498.549801 306.075138 
L 501.705179 306.75138 
L 504.860558 311.409381 
L 508.015936 307.18342 
L 511.171315 306.225414 
L 514.326693 312.404589 
L 517.482072 307.127067 
L 520.63745 308.836383 
L 523.792829 310.20747 
L 526.948207 302.806746 
L 530.103586 310.658204 
L 533.258964 308.873949 
L 536.414343 302.149375 
L 539.569721 305.661879 
L 542.7251 302.055467 
L 545.880478 303.858598 
L 549.035857 311.484495 
L 552.191235 305.380111 
L 555.346614 308.009916 
L 558.501992 304.422113 
L 561.657371 306.544751 
L 564.812749 306.920439 
L 567.968127 309.324731 
L 571.123506 305.098345 
L 574.278884 307.18342 
L 577.434263 305.755801 
L 580.589641 313.005406 
L 583.74502 306 
L 586.900398 312.160493 
L 590.055777 310.601863 
L 593.211155 301.754968 
L 596.366534 303.013355 
L 599.521912 307.690591 
L 602.677291 311.108917 
L 605.832669 310.151127 
L 608.988048 306.958008 
L 612.143426 305.11713 
L 615.298805 305.62431 
L 618.454183 302.468665 
L 621.609562 308.310453 
L 624.76494 301.754968 
L 627.920319 304.065219 
L 631.075697 303.764681 
L 634.231076 310.827224 
L 637.386454 303.013355 
L 640.541833 304.516034 
L 643.697211 303.201183 
L 646.85259 304.271842 
L 650.007968 305.812155 
L 653.163347 299.726846 
L 656.318725 307.033145 
L 659.474104 305.605525 
L 662.629482 309.644027 
L 665.784861 307.709374 
L 668.940239 301.473258 
L 672.095618 302.130593 
L 675.250996 305.41768 
L 678.406375 306.619889 
L 681.561753 297.17372 
L 684.717131 306.394475 
L 687.87251 305.981215 
L 691.027888 306.920439 
L 694.183267 303.65198 
L 697.338645 307.634239 
L 700.494024 302.806746 
L 703.649402 302.60014 
L 706.804781 303.670763 
L 709.960159 304.440897 
L 713.115538 305.492818 
L 716.270916 306.225414 
L 719.426295 308.103834 
L 722.581673 299.088469 
L 725.737052 305.830939 
L 728.89243 303.445363 
L 732.047809 308.855166 
L 735.203187 305.643094 
L 738.358566 304.196706 
L 741.513944 303.9713 
L 744.669323 306.75138 
L 747.824701 303.088486 
L 750.98008 306.432044 
L 754.135458 304.872933 
L 757.290837 309.249602 
L 760.446215 307.258556 
L 763.601594 306.075138 
L 766.756972 305.887293 
L 769.912351 303.407797 
L 773.067729 305.342542 
L 776.223108 305.192267 
L 779.378486 303.501713 
L 782.533865 309.737936 
L 785.689243 304.81658 
L 788.844622 307.934781 
L 788.844622 307.934781 
" clip-path="url(#pc6e36c9ea8)" style="fill: none; stroke: #000000; stroke-width: 1.5; stroke-linecap: square"/>
   </g>
   <g id="line2d_2">
    <path d="M 0 306 
L 3.155378 306 
L 6.310757 305.286189 
L 9.466135 304.899768 
L 12.621514 306.869095 
L 15.776892 306.507788 
L 18.932271 308.367996 
L 22.087649 308.935326 
L 25.243028 307.131929 
L 28.398406 307.244855 
L 31.553785 305.191309 
L 34.709163 308.502486 
L 37.864542 302.277237 
L 41.01992 304.138218 
L 44.175299 304.476329 
L 47.330677 306.475948 
L 50.486056 307.89876 
L 53.641434 308.257344 
L 56.796813 306.210239 
L 59.952191 304.801995 
L 63.10757 305.467551 
L 66.262948 306.403241 
L 69.418327 303.507237 
L 72.573705 303.296719 
L 75.729084 307.102831 
L 78.884462 307.687202 
L 82.039841 307.186661 
L 85.195219 306.937824 
L 88.350598 308.759925 
L 91.505976 308.207107 
L 94.661355 306.689796 
L 97.816733 306.275138 
L 104.12749 303.791862 
L 107.282869 304.819159 
L 110.438247 307.265775 
L 113.593625 308.481419 
L 116.749004 311.197217 
L 119.904382 302.490614 
L 123.059761 306.461362 
L 126.215139 308.667704 
L 129.370518 306.887953 
L 132.525896 305.906814 
L 135.681275 305.210683 
L 138.836653 307.766758 
L 141.992032 312.571512 
L 145.14741 307.443157 
L 148.302789 310.323985 
L 151.458167 309.774247 
L 154.613546 306.163462 
L 157.768924 301.162245 
L 160.924303 304.064704 
L 164.079681 304.58071 
L 167.23506 305.3435 
L 170.390438 305.141586 
L 173.545817 304.462923 
L 176.701195 306.224604 
L 179.856574 305.873886 
L 183.011952 304.306095 
L 186.167331 304.161127 
L 189.322709 303.592536 
L 192.478088 305.804862 
L 195.633466 307.403747 
L 198.788845 304.546899 
L 201.944223 306.221878 
L 205.099602 305.602726 
L 208.25498 303.72402 
L 211.410359 302.95185 
L 214.565737 303.312555 
L 217.721116 305.227479 
L 220.876494 306.060479 
L 224.031873 305.614365 
L 230.342629 307.74709 
L 233.498008 304.665865 
L 236.653386 301.342827 
L 239.808765 304.656436 
L 242.964143 306.608323 
L 246.119522 305.076614 
L 249.2749 308.142359 
L 252.430279 307.473359 
L 255.585657 302.912444 
L 258.741036 307.161541 
L 261.896414 308.642439 
L 265.051793 309.3634 
L 268.207171 306.592412 
L 271.36255 309.035333 
L 274.517928 306.05547 
L 277.673307 306.393886 
L 280.828685 306.985043 
L 283.984064 308.537474 
L 287.139442 307.845355 
L 290.294821 305.377754 
L 293.450199 304.278766 
L 296.605578 305.543573 
L 299.760956 314.864628 
L 302.916335 313.579886 
L 306.071713 309.702655 
L 309.227092 304.769509 
L 312.38247 302.949862 
L 315.537849 306.762724 
L 318.693227 305.189394 
L 321.848606 303.481015 
L 325.003984 305.497017 
L 328.159363 307.848302 
L 331.314741 305.444126 
L 334.47012 306.978708 
L 337.625498 307.036313 
L 340.780876 304.981735 
L 343.936255 307.221062 
L 347.091633 309.089103 
L 350.247012 308.050651 
L 353.40239 310.599801 
L 356.557769 312.368878 
L 359.713147 310.433796 
L 362.868526 307.451186 
L 366.023904 307.636743 
L 369.179283 303.030664 
L 372.334661 302.497391 
L 375.49004 300.664114 
L 378.645418 301.385175 
L 381.800797 304.713746 
L 384.956175 307.548937 
L 388.111554 305.570534 
L 394.422311 302.968571 
L 397.577689 305.821584 
L 400.733068 304.651869 
L 403.888446 305.380627 
L 407.043825 306.610312 
L 410.199203 305.334808 
L 413.354582 306.888469 
L 416.50996 305.554328 
L 419.665339 306.19116 
L 422.820717 306.278969 
L 425.976096 307.803957 
L 429.131474 306.213481 
L 432.286853 308.450924 
L 435.442231 307.964688 
L 438.59761 304.856064 
L 441.752988 304.516918 
L 444.908367 304.992858 
L 448.063745 304.203925 
L 451.219124 302.813743 
L 454.374502 313.035887 
L 457.52988 305.747182 
L 460.685259 306.766481 
L 463.840637 303.62885 
L 466.996016 305.034847 
L 470.151394 305.45245 
L 473.306773 305.212672 
L 476.462151 305.935838 
L 479.61753 304.64244 
L 482.772908 306.316538 
L 485.928287 304.825273 
L 489.083665 303.641373 
L 492.239044 303.528083 
L 495.394422 305.414881 
L 498.549801 305.209726 
L 501.705179 305.641326 
L 504.860558 306.202873 
L 508.015936 308.813107 
L 514.326693 307.123015 
L 517.482072 309.781686 
L 520.63745 308.454091 
L 523.792829 308.652751 
L 526.948207 309.438235 
L 530.103586 306.11477 
L 533.258964 308.385145 
L 536.414343 308.632863 
L 539.569721 305.383058 
L 542.7251 305.509245 
L 545.880478 303.772341 
L 549.035857 303.80571 
L 552.191235 307.647866 
L 555.346614 306.519042 
L 558.501992 307.259293 
L 561.657371 305.831971 
L 567.968127 306.561178 
L 571.123506 307.957248 
L 574.278884 306.530239 
L 577.434263 306.848396 
L 580.589641 306.302836 
L 583.74502 309.664355 
L 586.900398 307.835337 
L 590.055777 310.009126 
L 593.211155 310.312716 
L 596.366534 306.019006 
L 599.521912 304.512056 
L 602.677291 306.10232 
L 605.832669 308.61629 
L 608.988048 309.378132 
L 612.143426 308.169982 
L 615.298805 306.62976 
L 618.454183 306.117274 
L 621.609562 304.294309 
L 624.76494 306.312781 
L 627.920319 304.022127 
L 631.075697 304.029861 
L 634.231076 303.884748 
L 637.386454 307.363748 
L 640.541833 305.184385 
L 643.697211 304.848035 
L 646.85259 304.026031 
L 650.007968 304.141017 
L 653.163347 304.984534 
L 656.318725 302.346914 
L 659.474104 304.696361 
L 662.629482 305.140702 
L 665.784861 307.405441 
L 668.940239 307.56367 
L 672.095618 304.514929 
L 675.250996 303.318522 
L 681.561753 305.507109 
L 684.717131 301.320218 
L 687.87251 303.858746 
L 694.183267 305.915064 
L 697.338645 304.787778 
L 700.494024 306.221805 
L 703.649402 304.509109 
L 706.804781 303.546719 
L 709.960159 303.621484 
L 713.115538 304.027357 
L 719.426295 305.490903 
L 722.581673 306.806112 
L 725.737052 302.930048 
L 728.89243 304.386387 
L 732.047809 303.917528 
L 735.203187 306.396538 
L 738.358566 306.022173 
L 741.513944 305.10689 
L 744.669323 304.534671 
L 747.824701 305.640368 
L 750.98008 304.372244 
L 754.135458 305.403316 
L 757.290837 305.140923 
L 760.446215 307.19609 
L 763.601594 307.230491 
L 766.756972 306.6565 
L 769.912351 306.275654 
L 773.067729 304.835144 
L 776.223108 305.093262 
L 779.378486 305.140334 
L 782.533865 304.318323 
L 785.689243 307.029167 
L 788.844622 305.918085 
L 788.844622 305.918085 
" clip-path="url(#pc6e36c9ea8)" style="fill: none; stroke: #000000; stroke-width: 1.5; stroke-linecap: square"/>
   </g>
   <g id="line2d_3">
    <path d="M 0 306 
L 3.155378 306 
L 6.310757 305.372789 
L 9.466135 305.027161 
L 12.621514 306.419418 
L 15.776892 306.330344 
L 18.932271 307.615652 
L 22.087649 308.219096 
L 25.243028 307.320423 
L 28.398406 307.330246 
L 31.553785 306.064803 
L 34.709163 307.778239 
L 37.864542 304.303664 
L 41.01992 304.806054 
L 44.175299 304.814707 
L 50.486056 306.897344 
L 53.641434 307.402268 
L 59.952191 305.56414 
L 63.10757 305.71644 
L 66.262948 306.191462 
L 69.418327 304.550902 
L 72.573705 304.120727 
L 75.729084 306.113509 
L 78.884462 306.747044 
L 85.195219 306.708642 
L 88.350598 307.85463 
L 91.505976 307.797479 
L 94.661355 307.023804 
L 97.816733 306.676905 
L 104.12749 304.868258 
L 107.282869 305.157663 
L 110.438247 306.495449 
L 113.593625 307.438334 
L 116.749004 309.335243 
L 119.904382 304.785456 
L 123.059761 306.442513 
L 126.215139 307.732302 
L 129.370518 306.957196 
L 135.681275 305.823823 
L 138.836653 307.140566 
L 141.992032 310.146033 
L 145.14741 307.839176 
L 148.302789 309.416017 
L 151.458167 309.368052 
L 154.613546 307.374775 
L 157.768924 304.089083 
L 160.924303 304.926209 
L 164.079681 304.976864 
L 167.23506 305.311658 
L 170.390438 305.212415 
L 173.545817 304.797309 
L 176.701195 305.729482 
L 179.856574 305.666142 
L 183.011952 304.798561 
L 186.167331 304.572182 
L 189.322709 304.112731 
L 195.633466 306.347528 
L 198.788845 304.972612 
L 201.944223 305.827681 
L 205.099602 305.583835 
L 208.25498 304.496322 
L 211.410359 303.814409 
L 214.565737 303.770675 
L 217.721116 304.760365 
L 220.876494 305.389797 
L 224.031873 305.32247 
L 227.187251 306.010212 
L 230.342629 306.841819 
L 233.498008 305.301026 
L 236.653386 303.166159 
L 239.808765 304.573971 
L 242.964143 305.740517 
L 246.119522 305.095043 
L 249.2749 306.889504 
L 252.430279 306.864303 
L 255.585657 304.375344 
L 258.741036 306.435655 
L 261.896414 307.511008 
L 265.051793 308.269673 
L 268.207171 306.968416 
L 271.36255 308.285494 
L 274.517928 306.766479 
L 277.673307 306.755476 
L 280.828685 306.983864 
L 283.984064 307.904854 
L 287.139442 307.698536 
L 290.294821 306.298495 
L 293.450199 305.379619 
L 296.605578 305.80716 
L 299.760956 311.181785 
L 302.916335 311.507731 
L 306.071713 309.853798 
L 309.227092 306.918377 
L 312.38247 305.219665 
L 315.537849 306.780207 
L 318.693227 305.852696 
L 321.848606 304.652342 
L 325.003984 305.514347 
L 328.159363 306.892997 
L 331.314741 305.762497 
L 334.47012 306.55645 
L 337.625498 306.706967 
L 340.780876 305.608622 
L 347.091633 307.967499 
L 350.247012 307.668701 
L 353.40239 309.271537 
L 356.557769 310.693842 
L 359.713147 310.06072 
L 362.868526 308.429648 
L 366.023904 308.243045 
L 369.179283 305.373944 
L 372.334661 304.385666 
L 375.49004 302.757886 
L 378.645418 302.570399 
L 381.800797 304.185791 
L 384.956175 306.001259 
L 391.266932 304.625113 
L 394.422311 303.742457 
L 397.577689 305.176801 
L 400.733068 304.671088 
L 403.888446 305.079732 
L 407.043825 305.881268 
L 410.199203 305.349785 
L 413.354582 306.254499 
L 416.50996 305.65316 
L 419.665339 306.000907 
L 422.820717 306.115706 
L 425.976096 307.062136 
L 429.131474 306.352258 
L 432.286853 307.622032 
L 435.442231 307.572748 
L 438.59761 305.872099 
L 441.752988 305.377218 
L 444.908367 305.409976 
L 448.063745 304.823042 
L 451.219124 303.834038 
L 454.374502 309.52209 
L 457.52988 306.284638 
L 460.685259 306.728195 
L 463.840637 304.893767 
L 466.996016 305.346862 
L 470.151394 305.498569 
L 473.306773 305.341215 
L 476.462151 305.718168 
L 479.61753 305.045582 
L 482.772908 305.894187 
L 489.083665 304.356146 
L 492.239044 304.083016 
L 495.394422 305.026194 
L 498.549801 305.02163 
L 504.860558 305.731324 
L 508.015936 307.409366 
L 511.171315 307.342497 
L 514.326693 307.021894 
L 517.482072 308.605524 
L 520.63745 308.173949 
L 523.792829 308.372418 
L 526.948207 308.914015 
L 530.103586 307.124548 
L 533.258964 308.162712 
L 536.414343 308.377374 
L 539.569721 306.552864 
L 542.7251 306.294468 
L 545.880478 305.046813 
L 549.035857 304.697472 
L 552.191235 306.691725 
L 555.346614 306.305987 
L 558.501992 306.801158 
L 561.657371 306.101177 
L 567.968127 306.426961 
L 571.123506 307.278253 
L 574.278884 306.635483 
L 577.434263 306.792497 
L 580.589641 306.492244 
L 583.74502 308.402911 
L 586.900398 307.695831 
L 590.055777 309.015159 
L 593.211155 309.485588 
L 596.366534 307.221017 
L 599.521912 305.987627 
L 602.677291 306.48206 
L 605.832669 307.843933 
L 608.988048 308.522187 
L 612.143426 308.066972 
L 615.298805 307.201359 
L 618.454183 306.737966 
L 621.609562 305.479597 
L 624.76494 306.312438 
L 627.920319 304.971275 
L 634.231076 304.418228 
L 637.386454 306.301032 
L 640.541833 305.327559 
L 643.697211 305.082877 
L 646.85259 304.533389 
L 650.007968 304.458229 
L 653.163347 304.852623 
L 656.318725 303.338049 
L 659.474104 304.416704 
L 662.629482 304.763345 
L 665.784861 306.198109 
L 668.940239 306.643147 
L 672.095618 305.127685 
L 675.250996 304.242716 
L 678.406375 304.591058 
L 681.561753 305.188218 
L 684.717131 302.832647 
L 687.87251 303.870745 
L 694.183267 305.20623 
L 697.338645 304.751511 
L 700.494024 305.599704 
L 703.649402 304.778186 
L 706.804781 304.143529 
L 709.960159 304.001196 
L 713.115538 304.128643 
L 719.426295 305.020219 
L 722.581673 305.931012 
L 725.737052 303.92307 
L 728.89243 304.482336 
L 732.047809 304.174963 
L 735.203187 305.559192 
L 738.358566 305.582903 
L 744.669323 304.818941 
L 747.824701 305.388496 
L 750.98008 304.709599 
L 754.135458 305.218252 
L 757.290837 305.119721 
L 760.446215 306.335777 
L 763.601594 306.60929 
L 769.912351 306.287281 
L 773.067729 305.438488 
L 779.378486 305.350847 
L 782.533865 304.809302 
L 785.689243 306.25393 
L 788.844622 305.831989 
L 788.844622 305.831989 
" clip-path="url(#pc6e36c9ea8)" style="fill: none; stroke: #000000; stroke-width: 1.5; stroke-linecap: square"/>
   </g>
   <g id="line2d_4">
    <path d="M 0 306 
L 3.155378 306 
L 6.310757 305.418372 
L 9.466135 305.101095 
L 12.621514 306.212009 
L 15.776892 306.200218 
L 18.932271 307.177297 
L 22.087649 307.70181 
L 25.243028 307.201327 
L 28.398406 307.231777 
L 31.553785 306.441886 
L 34.709163 307.440537 
L 37.864542 305.378567 
L 41.01992 305.489053 
L 44.175299 305.374964 
L 50.486056 306.485167 
L 53.641434 306.842164 
L 59.952191 305.90493 
L 63.10757 305.935969 
L 66.262948 306.164355 
L 69.418327 305.263537 
L 72.573705 304.913961 
L 75.729084 305.881921 
L 78.884462 306.267404 
L 85.195219 306.388273 
L 88.350598 307.057976 
L 91.505976 307.153277 
L 94.661355 306.833532 
L 97.816733 306.676274 
L 104.12749 305.63453 
L 107.282869 305.669342 
L 113.593625 306.853417 
L 116.749004 307.977675 
L 119.904382 305.716177 
L 126.215139 307.164896 
L 135.681275 306.210264 
L 138.836653 306.873078 
L 141.992032 308.549357 
L 145.14741 307.550428 
L 148.302789 308.451317 
L 151.458167 308.575294 
L 154.613546 307.614888 
L 157.768924 305.792903 
L 160.924303 305.980479 
L 164.079681 305.842507 
L 167.23506 305.890736 
L 170.390438 305.740449 
L 173.545817 305.435503 
L 176.701195 305.8403 
L 179.856574 305.78628 
L 183.011952 305.294792 
L 186.167331 305.09153 
L 189.322709 304.759163 
L 195.633466 305.86928 
L 198.788845 305.203081 
L 201.944223 305.634308 
L 205.099602 305.53259 
L 208.25498 304.943965 
L 211.410359 304.500601 
L 214.565737 304.364807 
L 220.876494 305.145115 
L 224.031873 305.143358 
L 227.187251 305.543664 
L 230.342629 306.069892 
L 233.498008 305.354345 
L 236.653386 304.185834 
L 242.964143 305.378269 
L 246.119522 305.089459 
L 249.2749 306.05795 
L 252.430279 306.175732 
L 255.585657 304.934757 
L 258.741036 305.968471 
L 265.051793 307.176334 
L 268.207171 306.644039 
L 271.36255 307.412346 
L 274.517928 306.726941 
L 277.673307 306.727055 
L 280.828685 306.857715 
L 283.984064 307.377382 
L 287.139442 307.345491 
L 290.294821 306.64421 
L 293.450199 306.0904 
L 296.605578 306.206171 
L 299.760956 309.068342 
L 302.916335 309.581032 
L 306.071713 308.984949 
L 309.227092 307.534558 
L 312.38247 306.518689 
L 315.537849 307.16371 
L 318.693227 306.596797 
L 321.848606 305.829191 
L 325.003984 306.108929 
L 328.159363 306.762645 
L 331.314741 306.168473 
L 334.47012 306.540476 
L 337.625498 306.630476 
L 340.780876 306.042881 
L 343.936255 306.583538 
L 347.091633 307.278319 
L 350.247012 307.23372 
L 356.557769 309.128518 
L 359.713147 309.026454 
L 362.868526 308.299398 
L 366.023904 308.219049 
L 369.179283 306.664207 
L 372.334661 305.916044 
L 375.49004 304.791059 
L 378.645418 304.367875 
L 381.800797 304.956627 
L 384.956175 305.819168 
L 391.266932 305.073422 
L 394.422311 304.526516 
L 397.577689 305.183487 
L 400.733068 304.897047 
L 403.888446 305.083617 
L 407.043825 305.52356 
L 410.199203 305.297144 
L 413.354582 305.799046 
L 416.50996 305.543144 
L 422.820717 305.849329 
L 425.976096 306.400388 
L 429.131474 306.11503 
L 432.286853 306.845668 
L 435.442231 306.943602 
L 438.59761 306.117715 
L 441.752988 305.809845 
L 444.908367 305.753943 
L 448.063745 305.378966 
L 451.219124 304.75105 
L 454.374502 307.690657 
L 457.52988 306.219469 
L 460.685259 306.46803 
L 463.840637 305.515396 
L 470.151394 305.698113 
L 473.306773 305.583619 
L 476.462151 305.756334 
L 479.61753 305.38645 
L 482.772908 305.79482 
L 492.239044 304.692146 
L 495.394422 305.109973 
L 498.549801 305.090906 
L 504.860558 305.488553 
L 508.015936 306.432893 
L 511.171315 306.554239 
L 514.326693 306.500551 
L 517.482072 307.445153 
L 520.63745 307.394744 
L 523.792829 307.625655 
L 526.948207 308.037018 
L 530.103586 307.203727 
L 533.258964 307.753378 
L 536.414343 307.932548 
L 539.569721 307.012644 
L 542.7251 306.79866 
L 545.880478 306.041834 
L 549.035857 305.694738 
L 552.191235 306.62226 
L 555.346614 306.413519 
L 558.501992 306.673446 
L 561.657371 306.313152 
L 567.968127 306.444237 
L 571.123506 306.904709 
L 574.278884 306.617393 
L 577.434263 306.70779 
L 580.589641 306.557779 
L 583.74502 307.586953 
L 586.900398 307.33612 
L 590.055777 308.10986 
L 593.211155 308.510851 
L 596.366534 307.432502 
L 599.521912 306.72815 
L 602.677291 306.882287 
L 605.832669 307.557542 
L 608.988048 307.96943 
L 612.143426 307.808371 
L 615.298805 307.379501 
L 618.454183 307.096016 
L 621.609562 306.35686 
L 624.76494 306.667362 
L 627.920319 305.880466 
L 634.231076 305.297326 
L 637.386454 306.178434 
L 640.541833 305.675383 
L 643.697211 305.49021 
L 646.85259 305.126722 
L 650.007968 304.990964 
L 653.163347 305.118078 
L 656.318725 304.256663 
L 659.474104 304.697794 
L 662.629482 304.842955 
L 665.784861 305.608779 
L 668.940239 305.943487 
L 672.095618 305.227307 
L 675.250996 304.73273 
L 678.406375 304.840606 
L 681.561753 305.124233 
L 684.717131 303.849041 
L 687.87251 304.254264 
L 694.183267 304.903963 
L 697.338645 304.705948 
L 700.494024 305.174731 
L 706.804781 304.440395 
L 709.960159 304.313899 
L 713.115538 304.332534 
L 719.426295 304.789499 
L 722.581673 305.320339 
L 725.737052 304.3229 
L 728.89243 304.565374 
L 732.047809 304.386786 
L 735.203187 305.100901 
L 738.358566 305.183931 
L 744.669323 304.859194 
L 747.824701 305.16246 
L 750.98008 304.831735 
L 754.135458 305.086735 
L 757.290837 305.055929 
L 760.446215 305.724558 
L 763.601594 305.969655 
L 769.912351 305.967654 
L 773.067729 305.561569 
L 779.378486 305.475053 
L 782.533865 305.159135 
L 785.689243 305.895507 
L 788.844622 305.722861 
L 788.844622 305.722861 
" clip-path="url(#pc6e36c9ea8)" style="fill: none; stroke: #000000; stroke-width: 1.5; stroke-linecap: square"/>
   </g>
   <g id="line2d_5">
    <path d="M 0 306 
L 3.155378 306 
L 6.310757 305.441463 
L 9.466135 305.139961 
L 12.621514 306.118225 
L 15.776892 306.130225 
L 18.932271 306.957311 
L 22.087649 307.420261 
L 25.243028 307.075381 
L 28.398406 307.117852 
L 31.553785 306.548879 
L 34.709163 307.256223 
L 37.864542 305.823976 
L 41.01992 305.845594 
L 44.175299 305.726275 
L 53.641434 306.639709 
L 59.952191 306.075462 
L 63.10757 306.077323 
L 66.262948 306.201771 
L 69.418327 305.658361 
L 72.573705 305.413207 
L 75.729084 305.933904 
L 78.884462 306.153167 
L 85.195219 306.245267 
L 88.350598 306.638516 
L 91.505976 306.730143 
L 100.972112 306.278855 
L 104.12749 305.954962 
L 107.282869 305.945743 
L 113.593625 306.570769 
L 116.749004 307.203845 
L 119.904382 306.050829 
L 126.215139 306.804491 
L 135.681275 306.343211 
L 138.836653 306.680763 
L 141.992032 307.585808 
L 145.14741 307.137173 
L 148.302789 307.648608 
L 151.458167 307.782014 
L 154.613546 307.342523 
L 157.768924 306.404969 
L 160.924303 306.451429 
L 173.545817 306.00707 
L 176.701195 306.173038 
L 179.856574 306.117745 
L 183.011952 305.833272 
L 189.322709 305.461303 
L 195.633466 305.950142 
L 198.788845 305.59575 
L 201.944223 305.787513 
L 205.099602 305.720631 
L 211.410359 305.130937 
L 214.565737 305.008144 
L 220.876494 305.32722 
L 224.031873 305.311489 
L 230.342629 305.784864 
L 233.498008 305.435838 
L 236.653386 304.817159 
L 242.964143 305.370431 
L 246.119522 305.219592 
L 249.2749 305.715537 
L 252.430279 305.805372 
L 255.585657 305.18679 
L 258.741036 305.702514 
L 265.051793 306.401671 
L 268.207171 306.187907 
L 271.36255 306.627954 
L 274.517928 306.335745 
L 280.828685 306.464441 
L 283.984064 306.766876 
L 287.139442 306.800048 
L 293.450199 306.202139 
L 296.605578 306.254504 
L 299.760956 307.74222 
L 302.916335 308.121095 
L 306.071713 307.932078 
L 309.227092 307.261549 
L 312.38247 306.751836 
L 315.537849 307.066997 
L 318.693227 306.7771 
L 321.848606 306.365973 
L 325.003984 306.465635 
L 328.159363 306.776004 
L 331.314741 306.466165 
L 334.47012 306.634423 
L 337.625498 306.671459 
L 340.780876 306.36077 
L 347.091633 306.973908 
L 350.247012 306.975254 
L 356.557769 308.040192 
L 359.713147 308.082216 
L 362.868526 307.782321 
L 366.023904 307.784936 
L 369.179283 307.009133 
L 372.334661 306.592352 
L 375.49004 305.949141 
L 378.645418 305.631857 
L 381.800797 305.834737 
L 384.956175 306.214204 
L 391.266932 305.749107 
L 394.422311 305.40616 
L 397.577689 305.675161 
L 400.733068 305.492226 
L 403.888446 305.541577 
L 407.043825 305.733339 
L 410.199203 305.597177 
L 413.354582 305.833755 
L 416.50996 305.699621 
L 422.820717 305.839796 
L 425.976096 306.128835 
L 429.131474 306.003342 
L 432.286853 306.391864 
L 435.442231 306.48286 
L 438.59761 306.093217 
L 441.752988 305.933025 
L 444.908367 305.893928 
L 448.063745 305.6891 
L 451.219124 305.33445 
L 454.374502 306.821538 
L 457.52988 306.131335 
L 460.685259 306.267376 
L 463.840637 305.785268 
L 470.151394 305.840974 
L 473.306773 305.766316 
L 476.462151 305.839867 
L 479.61753 305.638493 
L 482.772908 305.830771 
L 492.239044 305.197774 
L 495.394422 305.373267 
L 501.705179 305.397034 
L 504.860558 305.507642 
L 508.015936 305.999325 
L 514.326693 306.11204 
L 517.482072 306.634978 
L 520.63745 306.676963 
L 526.948207 307.137311 
L 530.103586 306.775476 
L 533.258964 307.10023 
L 536.414343 307.247574 
L 539.569721 306.82283 
L 542.7251 306.727356 
L 545.880478 306.337189 
L 549.035857 306.129174 
L 552.191235 306.575147 
L 555.346614 306.473439 
L 558.501992 306.598982 
L 561.657371 306.416983 
L 567.968127 306.468821 
L 571.123506 306.709394 
L 574.278884 306.576693 
L 577.434263 306.629757 
L 580.589641 306.558396 
L 583.74502 307.095178 
L 586.900398 307.002858 
L 590.055777 307.433771 
L 593.211155 307.699201 
L 596.366534 307.205878 
L 599.521912 306.856077 
L 602.677291 306.926714 
L 608.988048 307.514921 
L 612.143426 307.469635 
L 618.454183 307.136913 
L 621.609562 306.748045 
L 624.76494 306.878351 
L 627.920319 306.450653 
L 634.231076 306.043755 
L 637.386454 306.441891 
L 640.541833 306.157732 
L 653.163347 305.675239 
L 656.318725 305.173839 
L 659.474104 305.330929 
L 662.629482 305.35301 
L 665.784861 305.712138 
L 668.940239 305.878318 
L 675.250996 305.229738 
L 681.561753 305.360093 
L 684.717131 304.676952 
L 694.183267 305.085305 
L 697.338645 304.965156 
L 700.494024 305.187535 
L 709.960159 304.693902 
L 716.270916 304.739896 
L 719.426295 304.861175 
L 722.581673 305.130621 
L 725.737052 304.625883 
L 728.89243 304.724472 
L 732.047809 304.618517 
L 735.203187 304.969557 
L 738.358566 305.024406 
L 744.669323 304.874067 
L 747.824701 305.031404 
L 750.98008 304.869894 
L 754.135458 304.9979 
L 757.290837 304.987363 
L 760.446215 305.341523 
L 763.601594 305.501552 
L 769.912351 305.576745 
L 773.067729 305.394801 
L 779.378486 305.373439 
L 782.533865 305.217356 
L 785.689243 305.591496 
L 788.844622 305.526795 
L 788.844622 305.526795 
" clip-path="url(#pc6e36c9ea8)" style="fill: none; stroke: #000000; stroke-width: 1.5; stroke-linecap: square"/>
   </g>
   <g id="line2d_6">
    <path d="M 0 306 
L 3.155378 306 
L 6.310757 305.453047 
L 9.466135 305.159756 
L 12.621514 306.074423 
L 15.776892 306.095025 
L 18.932271 306.849836 
L 22.087649 307.278371 
L 25.243028 306.99816 
L 28.398406 307.044686 
L 31.553785 306.574399 
L 34.709163 307.157238 
L 37.864542 306.000925 
L 44.175299 305.892175 
L 53.641434 306.572271 
L 59.952191 306.159851 
L 66.262948 306.238681 
L 69.418327 305.851519 
L 72.573705 305.667068 
L 75.729084 306.010447 
L 78.884462 306.155467 
L 85.195219 306.21815 
L 88.350598 306.480392 
L 91.505976 306.549896 
L 100.972112 306.282223 
L 104.12749 306.076972 
L 107.282869 306.064471 
L 113.593625 306.446579 
L 116.749004 306.84167 
L 119.904382 306.158153 
L 126.215139 306.609506 
L 135.681275 306.355085 
L 138.836653 306.552557 
L 141.992032 307.087033 
L 145.14741 306.851099 
L 148.302789 307.16041 
L 151.458167 307.260733 
L 154.613546 307.034457 
L 157.768924 306.515381 
L 164.079681 306.469218 
L 170.390438 306.382635 
L 173.545817 306.262987 
L 176.701195 306.343359 
L 179.856574 306.304835 
L 189.322709 305.904194 
L 195.633466 306.136188 
L 198.788845 305.9349 
L 201.944223 306.023643 
L 205.099602 305.976834 
L 211.410359 305.62948 
L 214.565737 305.541829 
L 230.342629 305.87484 
L 233.498008 305.685311 
L 236.653386 305.347884 
L 242.964143 305.598552 
L 246.119522 305.508988 
L 249.2749 305.757729 
L 252.430279 305.803682 
L 255.585657 305.47977 
L 261.896414 305.926129 
L 265.051793 306.106828 
L 268.207171 306.008232 
L 271.36255 306.244534 
L 274.517928 306.108378 
L 280.828685 306.196292 
L 283.984064 306.365004 
L 287.139442 306.399576 
L 293.450199 306.117626 
L 296.605578 306.148202 
L 299.760956 306.922278 
L 302.916335 307.152774 
L 306.071713 307.095882 
L 312.38247 306.543258 
L 315.537849 306.715213 
L 321.848606 306.376525 
L 337.625498 306.549181 
L 340.780876 306.395453 
L 353.40239 307.000392 
L 356.557769 307.303491 
L 359.713147 307.354513 
L 362.868526 307.231737 
L 366.023904 307.25613 
L 369.179283 306.881162 
L 372.334661 306.672917 
L 375.49004 306.339834 
L 378.645418 306.161177 
L 388.111554 306.298287 
L 394.422311 305.966028 
L 397.577689 306.080247 
L 400.733068 305.968876 
L 422.820717 306.043689 
L 425.976096 306.181973 
L 429.131474 306.116002 
L 432.286853 306.30994 
L 435.442231 306.359638 
L 438.59761 306.163535 
L 451.219124 305.751727 
L 454.374502 306.493269 
L 457.52988 306.152912 
L 460.685259 306.22269 
L 463.840637 305.979415 
L 476.462151 305.9799 
L 479.61753 305.870402 
L 482.772908 305.958669 
L 492.239044 305.605121 
L 498.549801 305.648225 
L 504.860558 305.71286 
L 508.015936 305.955863 
L 514.326693 306.016764 
L 517.482072 306.288076 
L 523.792829 306.4316 
L 526.948207 306.591661 
L 530.103586 306.429852 
L 536.414343 306.7067 
L 539.569721 306.51308 
L 542.7251 306.476217 
L 549.035857 306.183574 
L 552.191235 306.408056 
L 555.346614 306.363835 
L 558.501992 306.43453 
L 564.812749 306.358741 
L 580.589641 306.449016 
L 583.74502 306.728283 
L 586.900398 306.697952 
L 593.211155 307.087839 
L 599.521912 306.696583 
L 602.677291 306.739722 
L 608.988048 307.063138 
L 615.298805 306.977667 
L 618.454183 306.920614 
L 621.609562 306.731083 
L 624.76494 306.798279 
L 631.075697 306.476499 
L 634.231076 306.360682 
L 637.386454 306.551602 
L 646.85259 306.188668 
L 653.163347 306.094103 
L 656.318725 305.822937 
L 668.940239 306.09458 
L 675.250996 305.73695 
L 681.561753 305.761771 
L 684.717131 305.395839 
L 694.183267 305.522977 
L 697.338645 305.443729 
L 700.494024 305.536734 
L 709.960159 305.227105 
L 716.270916 305.207899 
L 722.581673 305.372047 
L 725.737052 305.105146 
L 741.513944 305.197071 
L 744.669323 305.14527 
L 747.824701 305.212917 
L 750.98008 305.121542 
L 769.912351 305.463178 
L 776.223108 305.375957 
L 782.533865 305.290268 
L 785.689243 305.47912 
L 788.844622 305.450106 
L 788.844622 305.450106 
" clip-path="url(#pc6e36c9ea8)" style="fill: none; stroke: #000000; stroke-width: 1.5; stroke-linecap: square"/>
   </g>
   <g id="line2d_7">
    <path d="M 0 306 
L 3.155378 306 
L 6.310757 305.458844 
L 9.466135 305.169728 
L 12.621514 306.053359 
L 15.776892 306.077512 
L 18.932271 306.797083 
L 22.087649 307.207822 
L 25.243028 306.95661 
L 28.398406 307.004502 
L 31.553785 306.579834 
L 34.709163 307.105984 
L 37.864542 306.075716 
L 47.330677 306.162039 
L 53.641434 306.546411 
L 59.952191 306.199885 
L 66.262948 306.260282 
L 69.418327 305.941882 
L 72.573705 305.787077 
L 75.729084 306.057476 
L 82.039841 306.196151 
L 85.195219 306.219383 
L 88.350598 306.424134 
L 91.505976 306.48059 
L 100.972112 306.283326 
L 104.12749 306.128785 
L 107.282869 306.117312 
L 113.593625 306.397863 
L 116.749004 306.689035 
L 119.904382 306.197727 
L 126.215139 306.522166 
L 135.681275 306.348567 
L 138.836653 306.48708 
L 141.992032 306.861384 
L 145.14741 306.705779 
L 148.302789 306.923467 
L 151.458167 306.999952 
L 154.613546 306.854566 
L 157.768924 306.509222 
L 167.23506 306.46869 
L 192.478088 306.151945 
L 195.633466 306.23415 
L 198.788845 306.103606 
L 205.099602 306.121683 
L 214.565737 305.832729 
L 230.342629 306.004307 
L 239.808765 305.736724 
L 242.964143 305.811147 
L 246.119522 305.751937 
L 249.2749 305.894011 
L 252.430279 305.917795 
L 255.585657 305.722808 
L 265.051793 306.081442 
L 268.207171 306.024351 
L 271.36255 306.161912 
L 277.673307 306.101038 
L 290.294821 306.17674 
L 296.605578 306.120538 
L 299.760956 306.562423 
L 302.916335 306.702294 
L 306.071713 306.681021 
L 312.38247 306.385246 
L 315.537849 306.485942 
L 325.003984 306.335878 
L 328.159363 306.428588 
L 331.314741 306.347912 
L 337.625498 306.414674 
L 340.780876 306.332678 
L 353.40239 306.680004 
L 356.557769 306.853961 
L 366.023904 306.858611 
L 375.49004 306.376561 
L 378.645418 306.278703 
L 388.111554 306.348697 
L 397.577689 306.222615 
L 403.888446 306.157975 
L 413.354582 306.20002 
L 422.820717 306.174399 
L 432.286853 306.309696 
L 435.442231 306.335768 
L 441.752988 306.186678 
L 448.063745 306.109006 
L 451.219124 306.004544 
L 454.374502 306.389771 
L 457.52988 306.213179 
L 460.685259 306.248338 
L 463.840637 306.119755 
L 482.772908 306.090063 
L 495.394422 305.924856 
L 504.860558 305.926895 
L 511.171315 306.07317 
L 514.326693 306.07653 
L 517.482072 306.216149 
L 533.258964 306.396915 
L 536.414343 306.451364 
L 545.880478 306.247525 
L 549.035857 306.195125 
L 552.191235 306.311097 
L 567.968127 306.306008 
L 574.278884 306.344173 
L 586.900398 306.483764 
L 593.211155 306.694658 
L 599.521912 306.509162 
L 605.832669 306.634466 
L 612.143426 306.71637 
L 653.163347 306.246595 
L 656.318725 306.105311 
L 672.095618 306.120648 
L 678.406375 306.020968 
L 681.561753 306.033922 
L 684.717131 305.842271 
L 703.649402 305.804551 
L 713.115538 305.663778 
L 788.844622 305.620186 
L 788.844622 305.620186 
" clip-path="url(#pc6e36c9ea8)" style="fill: none; stroke: #000000; stroke-width: 1.5; stroke-linecap: square"/>
   </g>
   <g id="line2d_8">
    <path d="M 0 306 
L 3.155378 306 
L 6.310757 305.461742 
L 9.466135 305.174731 
L 12.621514 306.043043 
L 15.776892 306.068795 
L 18.932271 306.770996 
L 22.087649 307.172733 
L 25.243028 306.935196 
L 28.398406 306.983595 
L 31.553785 306.580735 
L 34.709163 307.079941 
L 37.864542 306.109517 
L 47.330677 306.181531 
L 53.641434 306.535153 
L 63.10757 306.212057 
L 66.262948 306.27145 
L 69.418327 305.984694 
L 72.573705 305.844118 
L 75.729084 306.082183 
L 82.039841 306.203379 
L 85.195219 306.223469 
L 88.350598 306.402235 
L 94.661355 306.401839 
L 100.972112 306.284762 
L 104.12749 306.152679 
L 107.282869 306.142085 
L 113.593625 306.378248 
L 116.749004 306.623309 
L 119.904382 306.214767 
L 126.215139 306.483959 
L 135.681275 306.343837 
L 138.836653 306.456839 
L 141.992032 306.761428 
L 145.14741 306.638418 
L 148.302789 306.815448 
L 151.458167 306.879631 
L 154.613546 306.766701 
L 157.768924 306.494343 
L 167.23506 306.463445 
L 192.478088 306.213354 
L 195.633466 306.274441 
L 198.788845 306.174769 
L 205.099602 306.185741 
L 214.565737 305.964283 
L 230.342629 306.078777 
L 239.808765 305.877546 
L 252.430279 305.998392 
L 255.585657 305.858115 
L 265.051793 306.106723 
L 268.207171 306.06614 
L 271.36255 306.161796 
L 277.673307 306.118829 
L 290.294821 306.172124 
L 296.605578 306.133279 
L 299.760956 306.434598 
L 306.071713 306.520291 
L 312.38247 306.324763 
L 315.537849 306.393506 
L 325.003984 306.295973 
L 328.159363 306.358326 
L 334.47012 306.340171 
L 350.247012 306.427364 
L 359.713147 306.673835 
L 372.334661 306.467582 
L 378.645418 306.292206 
L 391.266932 306.288823 
L 397.577689 306.256458 
L 407.043825 306.237726 
L 419.665339 306.218294 
L 448.063745 306.178615 
L 451.219124 306.113989 
L 454.374502 306.346864 
L 457.52988 306.240212 
L 463.840637 306.183189 
L 485.928287 306.122557 
L 495.394422 306.05551 
L 504.860558 306.051411 
L 511.171315 306.1352 
L 520.63745 306.229431 
L 536.414343 306.35777 
L 549.035857 306.211572 
L 555.346614 306.267058 
L 577.434263 306.311241 
L 586.900398 306.382943 
L 593.211155 306.506035 
L 602.677291 306.42071 
L 612.143426 306.528911 
L 757.290837 305.806377 
L 769.912351 305.865537 
L 782.533865 305.797092 
L 788.844622 305.830771 
L 788.844622 305.830771 
" clip-path="url(#pc6e36c9ea8)" style="fill: none; stroke: #000000; stroke-width: 1.5; stroke-linecap: square"/>
   </g>
   <g id="line2d_9">
    <path d="M 0 306 
L 3.155378 306 
L 6.310757 305.463192 
L 9.466135 305.177236 
L 12.621514 306.037939 
L 15.776892 306.064448 
L 18.932271 306.75803 
L 22.087649 307.155246 
L 25.243028 306.924342 
L 28.398406 306.97295 
L 31.553785 306.580736 
L 34.709163 307.066821 
L 37.864542 306.125506 
L 47.330677 306.191041 
L 53.641434 306.529894 
L 63.10757 306.221165 
L 66.262948 306.277061 
L 69.418327 306.005405 
L 72.573705 305.871747 
L 75.729084 306.094686 
L 82.039841 306.207688 
L 85.195219 306.226291 
L 88.350598 306.392824 
L 94.661355 306.393374 
L 100.972112 306.285791 
L 104.12749 306.164154 
L 107.282869 306.154056 
L 116.749004 306.593412 
L 119.904382 306.222726 
L 126.215139 306.466548 
L 135.681275 306.341389 
L 138.836653 306.442749 
L 141.992032 306.715489 
L 145.14741 306.606869 
L 151.458167 306.82337 
L 154.613546 306.724634 
L 157.768924 306.484885 
L 170.390438 306.425757 
L 176.701195 306.40459 
L 186.167331 306.267697 
L 192.478088 306.239362 
L 195.633466 306.291388 
L 198.788845 306.205573 
L 205.099602 306.213993 
L 214.565737 306.023473 
L 233.498008 306.041262 
L 236.653386 305.911728 
L 252.430279 306.04092 
L 255.585657 305.924588 
L 265.051793 306.126588 
L 268.207171 306.09311 
L 271.36255 306.170779 
L 277.673307 306.135372 
L 296.605578 306.146828 
L 299.760956 306.388026 
L 306.071713 306.458038 
L 312.38247 306.303812 
L 318.693227 306.323422 
L 325.003984 306.282338 
L 331.314741 306.290715 
L 366.023904 306.569932 
L 378.645418 306.292131 
L 391.266932 306.290202 
L 400.733068 306.235048 
L 451.219124 306.158425 
L 454.374502 306.328266 
L 460.685259 306.265757 
L 466.996016 306.211174 
L 523.792829 306.257443 
L 536.414343 306.324461 
L 549.035857 306.222905 
L 558.501992 306.276814 
L 574.278884 306.284901 
L 640.541833 306.342501 
L 735.203187 306.004003 
L 788.844622 305.958432 
L 788.844622 305.958432 
" clip-path="url(#pc6e36c9ea8)" style="fill: none; stroke: #000000; stroke-width: 1.5; stroke-linecap: square"/>
   </g>
  </g>
 </g>
 <defs>
  <clipPath id="pc6e36c9ea8">
   <rect x="0" y="0" width="792" height="612"/>
  </clipPath>
 </defs>
</svg>
