<?xml version="1.0" encoding="utf-8" standalone="no"?>
<!DOCTYPE svg PUBLIC "-//W3C//DTD SVG 1.1//EN"
  "http://www.w3.org/Graphics/SVG/1.1/DTD/svg11.dtd">
<svg xmlns:xlink="http://www.w3.org/1999/xlink" width="792pt" height="612pt" viewBox="0 0 792 612" xmlns="http://www.w3.org/2000/svg" version="1.1">
 <metadata>
  <rdf:RDF xmlns:dc="http://purl.org/dc/elements/1.1/" xmlns:cc="http://creativecommons.org/ns#" xmlns:rdf="http://www.w3.org/1999/02/22-rdf-syntax-ns#">
   <cc:Work>
    <dc:type rdf:resource="http://purl.org/dc/dcmitype/StillImage"/>
    <dc:date>2023-01-09T02:29:21.806274</dc:date>
    <dc:format>image/svg+xml</dc:format>
    <dc:creator>
     <cc:Agent>
      <dc:title>Matplotlib v3.6.2, https://matplotlib.org/</dc:title>
     </cc:Agent>
    </dc:creator>
   </cc:Work>
  </rdf:RDF>
 </metadata>
 <defs>
  <style type="text/css">*{stroke-linejoin: round; stroke-linecap: butt}</style>
 </defs>
 <g id="figure_1">
  <g id="patch_1">
   <path d="M 0 612 
L 792 612 
L 792 0 
L 0 0 
z
" style="fill: #ffffff"/>
  </g>
  <g id="axes_1">
   <g id="line2d_1">
    <path d="M 0 306 
L 3.168 309.545568 
L 6.336 305.332794 
L 9.504 307.37253 
L 12.672 303.102504 
L 15.84 311.870697 
L 19.008 295.957383 
L 22.176 306 
L 25.344 304.818097 
L 28.512 308.516265 
L 31.68 309.354961 
L 34.848 308.649697 
L 38.016 304.131845 
L 41.184 303.388426 
L 44.352 306.095315 
L 47.52 307.353467 
L 50.688 300.548546 
L 53.856 303.064381 
L 57.024 310.975016 
L 60.192 308.306585 
L 63.36 306.686268 
L 66.528 306.686268 
L 69.696 310.631966 
L 72.864 307.677531 
L 76.032 305.142165 
L 79.2 305.847496 
L 82.368 303.731539 
L 85.536 302.549735 
L 88.704 305.847496 
L 91.872 309.755231 
L 95.04 309.755231 
L 98.208 314.004652 
L 101.376 293.653853 
L 104.544 310.479496 
L 107.712 310.917842 
L 110.88 305.084977 
L 114.048 304.913411 
L 117.216 304.513094 
L 120.384 310.3842 
L 123.552 317.527684 
L 126.72 302.225708 
L 129.888 313.299761 
L 133.056 309.278718 
L 136.224 302.511614 
L 139.392 296.052597 
L 142.56 306.972212 
L 145.728 305.104039 
L 148.896 306.152504 
L 155.232 303.788725 
L 158.4 308.020653 
L 161.568 305.504361 
L 164.736 302.664099 
L 167.904 303.998409 
L 171.072 302.988136 
L 174.24 308.039716 
L 177.408 309.030925 
L 180.576 301.634859 
L 183.744 307.925342 
L 186.912 304.970599 
L 190.08 301.787333 
L 193.248 302.130408 
L 196.416 303.636229 
L 199.584 307.16284 
L 202.752 306.915023 
L 205.92 305.142165 
L 209.088 307.696594 
L 212.256 308.878435 
L 215.424 301.520504 
L 218.592 297.919148 
L 221.76 307.982529 
L 224.928 308.592512 
L 228.096 303.521858 
L 231.264 311.260882 
L 234.432 306.819709 
L 237.6 298.281105 
L 240.768 311.451454 
L 243.936 310.136429 
L 247.104 310.136429 
L 250.272 303.807787 
L 253.44 311.527682 
L 256.608 303.064381 
L 259.776 306.743457 
L 262.944 307.563156 
L 266.112 310.155488 
L 269.28 307.181903 
L 272.448 302.89283 
L 275.616 303.140626 
L 278.784 306.838772 
L 281.952 324.354715 
L 285.12 312.366138 
L 288.288 305.828433 
L 291.456 299.786302 
L 294.624 301.082158 
L 297.792 310.612907 
L 300.96 303.579044 
L 304.128 301.730155 
L 307.296 307.601281 
L 310.464 310.269845 
L 313.632 303.007197 
L 316.8 308.516265 
L 319.968 307.086589 
L 323.136 302.911892 
L 326.304 309.488386 
L 329.472 310.994074 
L 332.64 307.029401 
L 335.808 313.242604 
L 338.976 314.214199 
L 342.144 308.535327 
L 345.312 304.455906 
L 348.48 307.830031 
L 351.648 298.357309 
L 354.816 301.93981 
L 357.984 298.757396 
L 361.152 302.092288 
L 364.32 308.096902 
L 367.488 310.441378 
L 370.656 303.559982 
L 373.824 302.969075 
L 376.992 301.577681 
L 380.16 308.68782 
L 383.328 303.42655 
L 386.496 306.095315 
L 389.664 307.868155 
L 392.832 304.055596 
L 396 308.45908 
L 399.168 304.189032 
L 402.336 306.819709 
L 405.504 306.381261 
L 408.672 309.354961 
L 411.84 304.608407 
L 415.008 310.746318 
L 418.176 307.486906 
L 421.344 301.711096 
L 424.512 304.150907 
L 427.68 305.466235 
L 434.016 301.387093 
L 437.184 323.423819 
L 440.352 298.395411 
L 443.52 307.810968 
L 446.688 300.415148 
L 449.856 306.43845 
L 453.024 305.866559 
L 456.192 304.951537 
L 459.36 306.648143 
L 462.528 303.388426 
L 465.696 307.982529 
L 468.864 303.31218 
L 472.032 302.397251 
L 475.2 303.388426 
L 478.368 307.315342 
L 481.536 304.989662 
L 484.704 306.076252 
L 487.872 306.76252 
L 491.04 311.489568 
L 494.208 307.200966 
L 497.376 306.228756 
L 500.544 312.499521 
L 503.712 307.143777 
L 506.88 308.878435 
L 510.048 310.269845 
L 513.216 302.759403 
L 516.384 310.727259 
L 519.552 308.916558 
L 522.72 302.092288 
L 525.888 305.656865 
L 529.056 301.996989 
L 532.224 303.826849 
L 535.392 311.565795 
L 538.56 305.37092 
L 541.728 308.039716 
L 544.896 304.398719 
L 548.064 306.552828 
L 551.232 306.934086 
L 554.4 309.374022 
L 557.568 305.084977 
L 560.736 307.200966 
L 563.904 305.75218 
L 567.072 313.109236 
L 570.24 306 
L 573.408 312.251809 
L 576.576 310.670083 
L 579.744 301.692036 
L 582.912 302.969075 
L 586.08 307.715656 
L 589.248 311.184652 
L 592.416 310.212667 
L 595.584 306.972212 
L 598.752 305.104039 
L 601.92 305.618739 
L 605.088 302.416311 
L 608.256 308.344709 
L 611.424 301.692036 
L 614.592 304.036533 
L 617.76 303.731539 
L 620.928 310.898784 
L 624.096 302.969075 
L 627.264 304.494032 
L 630.432 303.159688 
L 633.6 304.246219 
L 636.768 305.80937 
L 639.936 299.633862 
L 643.104 307.048463 
L 646.272 305.599676 
L 649.44 309.698051 
L 652.608 307.734719 
L 655.776 301.406151 
L 658.944 302.073228 
L 662.112 305.409046 
L 665.28 306.62908 
L 668.448 297.042928 
L 671.616 306.400324 
L 674.784 305.980937 
L 677.952 306.934086 
L 681.12 303.617168 
L 684.288 307.658469 
L 687.456 302.759403 
L 690.624 302.549735 
L 693.792 303.636229 
L 696.96 304.417781 
L 700.128 305.485298 
L 703.296 306.228756 
L 706.464 308.135026 
L 709.632 298.986028 
L 712.8 305.828433 
L 715.968 303.407488 
L 719.136 308.897496 
L 722.304 305.637802 
L 725.472 304.169969 
L 728.64 303.941222 
L 731.808 306.76252 
L 734.976 303.04532 
L 738.144 306.43845 
L 741.312 304.856223 
L 744.48 309.297779 
L 747.648 307.277217 
L 750.816 306.076252 
L 753.984 305.885622 
L 757.152 303.369365 
L 760.32 305.332794 
L 763.488 305.180291 
L 766.656 303.464673 
L 769.824 309.793352 
L 772.992 304.799034 
L 776.16 307.963467 
L 779.328 305.980937 
L 782.496 304.741846 
L 785.664 309.602749 
L 788.832 299.176561 
L 788.832 299.176561 
" clip-path="url(#p6253b71359)" style="fill: none; stroke: #000000; stroke-width: 1.5; stroke-linecap: square"/>
   </g>
   <g id="line2d_2">
    <path d="M 0 306 
L 3.168 306 
L 6.336 308.363771 
L 9.504 306.631803 
L 12.672 307.026859 
L 15.84 305.001346 
L 19.008 308.49085 
L 22.176 302.173181 
L 25.344 304.094019 
L 28.512 304.453739 
L 31.68 306.483005 
L 34.848 307.926912 
L 38.016 308.290812 
L 41.184 306.213357 
L 44.352 304.784233 
L 47.52 305.459657 
L 50.688 306.40922 
L 53.856 303.470279 
L 57.024 303.25664 
L 60.192 307.119183 
L 63.36 307.712217 
L 66.528 307.204255 
L 69.696 306.951729 
L 72.864 308.800844 
L 76.032 308.23983 
L 79.2 306.700024 
L 82.368 306.279217 
L 88.704 303.759123 
L 91.872 304.801651 
L 95.04 307.284543 
L 98.208 308.518209 
L 101.376 311.27426 
L 104.544 302.438586 
L 107.712 306.468203 
L 110.88 308.707256 
L 114.048 306.901119 
L 117.216 305.905432 
L 120.384 305.19898 
L 123.552 307.792952 
L 126.72 312.668916 
L 129.888 307.464554 
L 133.056 310.388087 
L 136.224 309.830201 
L 139.392 306.165886 
L 142.56 301.090528 
L 145.728 304.03601 
L 148.896 304.559667 
L 152.064 305.333766 
L 155.232 305.128859 
L 158.4 304.440133 
L 161.568 306.227934 
L 164.736 305.872016 
L 167.904 304.28098 
L 171.072 304.133863 
L 174.24 303.556842 
L 177.408 305.801969 
L 180.576 307.42456 
L 183.744 304.525354 
L 186.912 306.225168 
L 190.08 305.596836 
L 193.248 303.690276 
L 196.416 302.906659 
L 199.584 303.272711 
L 202.752 305.216025 
L 205.92 306.061376 
L 209.088 305.608647 
L 215.424 307.772993 
L 218.592 304.646084 
L 221.76 301.273787 
L 224.928 304.636515 
L 228.096 306.617343 
L 231.264 305.062923 
L 234.432 308.174122 
L 237.6 307.495204 
L 240.768 302.866668 
L 243.936 307.178763 
L 247.104 308.681616 
L 250.272 309.413265 
L 253.44 306.601195 
L 256.608 309.080335 
L 259.776 306.056292 
L 262.944 306.399726 
L 266.112 306.999648 
L 269.28 308.575095 
L 272.448 307.872715 
L 275.616 305.368528 
L 278.784 304.253246 
L 281.952 305.536806 
L 285.12 314.995987 
L 288.288 313.692224 
L 291.456 309.757548 
L 294.624 304.751265 
L 297.792 302.904641 
L 300.96 306.774033 
L 304.128 305.177376 
L 307.296 303.443668 
L 310.464 305.489559 
L 313.632 307.875705 
L 316.8 305.435884 
L 319.968 306.993219 
L 323.136 307.051678 
L 326.304 304.966637 
L 329.472 307.239166 
L 332.64 309.134902 
L 335.808 308.081054 
L 338.976 310.667991 
L 342.144 312.46328 
L 345.312 310.499526 
L 348.48 307.472702 
L 351.648 307.66101 
L 354.816 302.986641 
L 357.984 302.445463 
L 361.152 300.585016 
L 364.32 301.316762 
L 367.488 304.694675 
L 370.656 307.571902 
L 373.824 305.564167 
L 380.16 302.923627 
L 383.328 305.818938 
L 386.496 304.631881 
L 389.664 305.371444 
L 392.832 306.619361 
L 396 305.324945 
L 399.168 306.901642 
L 402.336 305.54772 
L 405.504 306.193994 
L 408.672 306.283105 
L 411.84 307.830703 
L 415.008 306.216646 
L 418.176 308.487261 
L 421.344 307.993817 
L 424.512 304.839104 
L 427.68 304.494929 
L 430.848 304.977926 
L 434.016 304.177295 
L 437.184 302.766505 
L 440.352 313.140169 
L 443.52 305.743434 
L 446.688 306.777845 
L 449.856 303.593695 
L 453.024 305.020537 
L 456.192 305.444332 
L 459.36 305.200999 
L 462.528 305.934887 
L 465.696 304.622312 
L 468.864 306.321231 
L 472.032 304.807856 
L 475.2 303.606403 
L 478.368 303.491434 
L 481.536 305.406206 
L 484.704 305.198008 
L 487.872 305.636008 
L 491.04 306.205881 
L 494.208 308.854814 
L 500.544 307.139666 
L 503.712 309.83775 
L 506.88 308.490476 
L 510.048 308.692081 
L 513.216 309.489208 
L 516.384 306.116471 
L 519.552 308.420508 
L 522.72 308.671898 
L 525.888 305.373911 
L 529.056 305.501969 
L 532.224 303.739313 
L 535.392 303.773177 
L 538.56 307.672298 
L 541.728 306.526738 
L 544.896 307.277964 
L 548.064 305.829479 
L 554.4 306.569498 
L 557.568 307.986267 
L 560.736 306.538101 
L 563.904 306.860975 
L 567.072 306.307326 
L 570.24 309.718681 
L 573.408 307.862549 
L 576.576 310.068562 
L 579.744 310.376651 
L 582.912 306.019287 
L 586.08 304.489995 
L 589.248 306.103838 
L 592.416 308.655079 
L 595.584 309.428214 
L 598.752 308.202155 
L 601.92 306.639097 
L 605.088 306.119013 
L 608.256 304.269019 
L 611.424 306.317418 
L 614.592 303.992802 
L 617.76 304.000651 
L 620.928 303.853387 
L 624.096 307.383968 
L 627.264 305.172292 
L 630.432 304.830955 
L 633.6 303.996764 
L 636.768 304.113455 
L 639.936 304.969478 
L 643.104 302.292756 
L 646.272 304.677033 
L 649.44 305.127961 
L 652.608 307.426279 
L 655.776 307.586853 
L 658.944 304.49291 
L 662.112 303.278766 
L 668.448 305.499801 
L 671.616 301.250842 
L 674.784 303.826999 
L 681.12 305.913805 
L 684.288 304.769805 
L 687.456 306.225093 
L 690.624 304.487005 
L 693.792 303.510346 
L 696.96 303.58622 
L 700.128 303.99811 
L 706.464 305.483355 
L 709.632 306.818064 
L 712.8 302.884533 
L 715.968 304.362463 
L 719.136 303.886652 
L 722.304 306.402417 
L 725.472 306.022502 
L 728.64 305.093648 
L 731.808 304.512945 
L 734.976 305.635036 
L 738.144 304.34811 
L 741.312 305.394469 
L 744.48 305.128186 
L 747.648 307.213824 
L 750.816 307.248735 
L 753.984 306.666234 
L 757.152 306.279741 
L 760.32 304.817873 
L 763.488 305.079818 
L 766.656 305.127588 
L 769.824 304.293389 
L 772.992 307.044427 
L 776.16 305.91687 
L 779.328 306.943879 
L 782.496 306.462596 
L 785.664 305.604909 
L 788.832 307.61227 
L 788.832 307.61227 
" clip-path="url(#p6253b71359)" style="fill: none; stroke: #000000; stroke-width: 1.5; stroke-linecap: square"/>
   </g>
   <g id="line2d_3">
    <path d="M 0 306 
L 3.168 306 
L 6.336 308.077007 
L 9.504 306.833669 
L 12.672 307.044108 
L 15.84 305.641703 
L 19.008 307.726989 
L 22.176 303.944397 
L 25.344 304.586596 
L 28.512 304.657536 
L 34.848 306.881742 
L 38.016 307.407795 
L 44.352 305.537447 
L 47.52 305.701751 
L 50.688 306.187427 
L 53.856 304.529417 
L 57.024 304.092864 
L 60.192 306.115192 
L 63.36 306.75812 
L 69.696 306.719149 
L 72.864 307.882127 
L 76.032 307.82413 
L 79.2 307.038983 
L 82.368 306.686941 
L 88.704 304.851478 
L 91.872 305.145174 
L 95.04 306.502795 
L 98.208 307.45966 
L 101.376 309.38469 
L 104.544 304.767448 
L 107.712 306.449075 
L 110.88 307.757985 
L 114.048 306.971389 
L 120.384 305.821211 
L 123.552 307.157477 
L 126.72 310.207498 
L 129.888 307.866444 
L 133.056 309.466661 
L 136.224 309.417985 
L 139.392 307.395159 
L 142.56 304.06075 
L 145.728 304.910288 
L 148.896 304.961694 
L 152.064 305.301452 
L 155.232 305.200737 
L 158.4 304.779477 
L 161.568 305.725471 
L 164.736 305.661191 
L 167.904 304.780747 
L 171.072 304.551012 
L 174.24 304.08475 
L 180.576 306.35268 
L 183.744 304.95738 
L 186.912 305.825126 
L 190.08 305.577664 
L 193.248 304.474027 
L 196.416 303.782005 
L 199.584 303.737622 
L 202.752 304.741985 
L 205.92 305.380749 
L 209.088 305.312424 
L 212.256 306.010363 
L 215.424 306.8543 
L 218.592 305.290663 
L 221.76 303.124145 
L 224.928 304.552828 
L 228.096 305.73667 
L 231.264 305.081626 
L 234.432 306.902693 
L 237.6 306.877117 
L 240.768 304.351256 
L 243.936 306.442114 
L 247.104 307.533411 
L 250.272 308.303323 
L 253.44 306.982774 
L 256.608 308.31938 
L 259.776 306.777843 
L 262.944 306.766677 
L 266.112 306.998451 
L 269.28 307.933096 
L 272.448 307.72372 
L 275.616 306.30292 
L 278.784 305.37042 
L 281.952 305.8043 
L 285.12 311.258599 
L 288.288 311.589375 
L 291.456 309.910931 
L 294.624 306.931993 
L 297.792 305.208095 
L 300.96 306.791775 
L 304.128 305.850511 
L 307.296 304.63236 
L 310.464 305.507147 
L 313.632 306.906238 
L 316.8 305.758976 
L 319.968 306.5647 
L 323.136 306.717449 
L 326.304 305.602819 
L 332.64 307.99667 
L 335.808 307.693442 
L 338.976 309.32004 
L 342.144 310.763425 
L 345.312 310.12092 
L 348.48 308.465671 
L 351.648 308.276301 
L 354.816 305.364661 
L 357.984 304.361731 
L 361.152 302.709819 
L 364.32 302.519554 
L 367.488 304.158893 
L 370.656 306.001277 
L 376.992 304.604728 
L 380.16 303.708986 
L 383.328 305.164595 
L 386.496 304.651385 
L 389.664 305.066088 
L 392.832 305.879508 
L 396 305.340144 
L 399.168 306.258272 
L 402.336 305.648018 
L 405.504 306.00092 
L 408.672 306.117421 
L 411.84 307.077884 
L 415.008 306.357481 
L 418.176 307.646081 
L 421.344 307.596066 
L 424.512 305.870202 
L 427.68 305.367984 
L 430.848 305.401228 
L 434.016 304.805592 
L 437.184 303.801925 
L 440.352 309.574307 
L 443.52 306.288858 
L 446.688 306.738992 
L 449.856 304.877365 
L 453.024 305.337178 
L 456.192 305.491135 
L 459.36 305.331447 
L 462.528 305.713989 
L 465.696 305.031431 
L 468.864 305.892618 
L 475.2 304.331774 
L 478.368 304.054594 
L 481.536 305.011756 
L 484.704 305.007124 
L 491.04 305.72734 
L 494.208 307.430262 
L 497.376 307.362402 
L 500.544 307.037046 
L 503.712 308.644154 
L 506.88 308.206181 
L 510.048 308.407592 
L 513.216 308.957218 
L 516.384 307.141222 
L 519.552 308.194777 
L 522.72 308.412622 
L 525.888 306.561061 
L 529.056 306.298834 
L 532.224 305.03268 
L 535.392 304.67816 
L 538.56 306.701981 
L 541.728 306.310524 
L 544.896 306.813036 
L 548.064 306.102678 
L 554.4 306.433291 
L 557.568 307.297206 
L 560.736 306.644905 
L 563.904 306.804247 
L 567.072 306.499542 
L 570.24 308.438537 
L 573.408 307.720975 
L 576.576 309.059861 
L 579.744 309.537264 
L 582.912 307.239121 
L 586.08 305.987444 
L 589.248 306.489207 
L 592.416 307.871272 
L 595.584 308.559581 
L 598.752 308.097618 
L 601.92 307.219171 
L 605.088 306.748908 
L 608.256 305.471881 
L 611.424 306.31707 
L 614.592 304.956022 
L 620.928 304.394776 
L 624.096 306.305495 
L 627.264 305.317589 
L 630.432 305.069279 
L 633.6 304.511644 
L 636.768 304.43537 
L 639.936 304.835611 
L 643.104 303.298582 
L 646.272 304.393229 
L 649.44 304.745009 
L 652.608 306.201046 
L 655.776 306.652683 
L 658.944 305.114751 
L 662.112 304.216661 
L 665.28 304.570168 
L 668.448 305.176182 
L 671.616 302.785689 
L 674.784 303.839176 
L 681.12 305.194461 
L 684.288 304.733 
L 687.456 305.593769 
L 690.624 304.76007 
L 693.792 304.116004 
L 696.96 303.971561 
L 700.128 304.100898 
L 706.464 305.005692 
L 709.632 305.92999 
L 712.8 303.892277 
L 715.968 304.459835 
L 719.136 304.147904 
L 722.304 305.552656 
L 725.472 305.576719 
L 731.808 304.80143 
L 734.976 305.37943 
L 738.144 304.690466 
L 741.312 305.206661 
L 744.48 305.106669 
L 747.648 306.340755 
L 750.816 306.618324 
L 757.152 306.29154 
L 760.32 305.430162 
L 766.656 305.341222 
L 769.824 304.791648 
L 772.992 306.257695 
L 776.16 305.829498 
L 779.328 306.458888 
L 782.496 306.321242 
L 785.664 305.856325 
L 788.832 306.961205 
L 788.832 306.961205 
" clip-path="url(#p6253b71359)" style="fill: none; stroke: #000000; stroke-width: 1.5; stroke-linecap: square"/>
   </g>
   <g id="line2d_4">
    <path d="M 0 306 
L 3.168 306 
L 6.336 307.926061 
L 9.504 306.908309 
L 12.672 307.056028 
L 15.84 305.970652 
L 19.008 307.422939 
L 22.176 304.826127 
L 25.344 305.075148 
L 28.512 305.023364 
L 34.848 306.381812 
L 38.016 306.794198 
L 44.352 305.809044 
L 47.52 305.858248 
L 50.688 306.112004 
L 53.856 305.177642 
L 57.024 304.825857 
L 60.192 305.84204 
L 63.36 306.246814 
L 69.696 306.378436 
L 72.864 307.068054 
L 76.032 307.166564 
L 79.2 306.840189 
L 82.368 306.680484 
L 85.536 306.20689 
L 88.704 305.620419 
L 91.872 305.656787 
L 98.208 306.862849 
L 101.376 308.003856 
L 104.544 305.711969 
L 110.88 307.182167 
L 120.384 306.213382 
L 123.552 306.886023 
L 126.72 308.587154 
L 129.888 307.573415 
L 133.056 308.48766 
L 136.224 308.613475 
L 139.392 307.638831 
L 142.56 305.789832 
L 145.728 305.980189 
L 148.896 305.840172 
L 152.064 305.889116 
L 155.232 305.736601 
L 158.4 305.427133 
L 161.568 305.837932 
L 164.736 305.783111 
L 167.904 305.284336 
L 171.072 305.07806 
L 174.24 304.740766 
L 180.576 305.867342 
L 183.744 305.191265 
L 186.912 305.628886 
L 190.08 305.52566 
L 193.248 304.928307 
L 196.416 304.47837 
L 199.584 304.340563 
L 205.92 305.13244 
L 209.088 305.130657 
L 212.256 305.536898 
L 215.424 306.070928 
L 218.592 305.344772 
L 221.76 304.158936 
L 228.096 305.369051 
L 231.264 305.075958 
L 234.432 306.058809 
L 237.6 306.178337 
L 240.768 304.918963 
L 243.936 305.968004 
L 250.272 307.193775 
L 253.44 306.653588 
L 256.608 307.433287 
L 259.776 306.737719 
L 262.944 306.737835 
L 266.112 306.870432 
L 269.28 307.397804 
L 272.448 307.36544 
L 275.616 306.653762 
L 278.784 306.09174 
L 281.952 306.209228 
L 285.12 309.113832 
L 288.288 309.634123 
L 291.456 309.029204 
L 294.624 307.55731 
L 297.792 306.526379 
L 300.96 307.180964 
L 304.128 306.605646 
L 307.296 305.826659 
L 310.464 306.110544 
L 313.632 306.773952 
L 316.8 306.170971 
L 319.968 306.548489 
L 323.136 306.639824 
L 326.304 306.043517 
L 329.472 306.59219 
L 332.64 307.297272 
L 335.808 307.252012 
L 342.144 309.1749 
L 345.312 309.071324 
L 348.48 308.333489 
L 351.648 308.251949 
L 354.816 306.674055 
L 357.984 305.9148 
L 361.152 304.773134 
L 364.32 304.343677 
L 367.488 304.941157 
L 370.656 305.816486 
L 376.992 305.059684 
L 380.16 304.50467 
L 383.328 305.171381 
L 386.496 304.880694 
L 389.664 305.07003 
L 392.832 305.516496 
L 396 305.286723 
L 399.168 305.796066 
L 402.336 305.53637 
L 408.672 305.847095 
L 411.84 306.406325 
L 415.008 306.116736 
L 418.176 306.858206 
L 421.344 306.957593 
L 424.512 306.11946 
L 427.68 305.807026 
L 430.848 305.750295 
L 434.016 305.369758 
L 437.184 304.732532 
L 440.352 307.715724 
L 443.52 306.222723 
L 446.688 306.474969 
L 449.856 305.50821 
L 456.192 305.693637 
L 459.36 305.577445 
L 462.528 305.752721 
L 465.696 305.377353 
L 468.864 305.791778 
L 478.368 304.672755 
L 481.536 305.096777 
L 484.704 305.077427 
L 491.04 305.480969 
L 494.208 306.439312 
L 497.376 306.562457 
L 500.544 306.507972 
L 503.712 307.46658 
L 506.88 307.415423 
L 510.048 307.649758 
L 513.216 308.06722 
L 516.384 307.221574 
L 519.552 307.779375 
L 522.72 307.961201 
L 525.888 307.027658 
L 529.056 306.810501 
L 532.224 306.042455 
L 535.392 305.690212 
L 538.56 306.631486 
L 541.728 306.419651 
L 544.896 306.683431 
L 548.064 306.317795 
L 554.4 306.450824 
L 557.568 306.918123 
L 560.736 306.626547 
L 563.904 306.718285 
L 567.072 306.566049 
L 570.24 307.610482 
L 573.408 307.35593 
L 576.576 308.141142 
L 579.744 308.548077 
L 582.912 307.453741 
L 586.08 306.738946 
L 589.248 306.895368 
L 592.416 307.580635 
L 595.584 307.99863 
L 598.752 307.835183 
L 601.92 307.399955 
L 605.088 307.112266 
L 608.256 306.362151 
L 611.424 306.677257 
L 614.592 305.878693 
L 620.928 305.286908 
L 624.096 306.18108 
L 627.264 305.67057 
L 630.432 305.482651 
L 633.6 305.113774 
L 636.768 304.976003 
L 639.936 305.105002 
L 643.104 304.230815 
L 646.272 304.678487 
L 649.44 304.8258 
L 652.608 305.602979 
L 655.776 305.942649 
L 658.944 305.215851 
L 662.112 304.713941 
L 665.28 304.823416 
L 668.448 305.111248 
L 671.616 303.817151 
L 674.784 304.228381 
L 681.12 304.887712 
L 684.288 304.686761 
L 687.456 305.162494 
L 693.792 304.417271 
L 696.96 304.2889 
L 700.128 304.307811 
L 706.464 304.771551 
L 709.632 305.310261 
L 712.8 304.298034 
L 715.968 304.544103 
L 719.136 304.362868 
L 722.304 305.08757 
L 725.472 305.171831 
L 731.808 304.842279 
L 734.976 305.150042 
L 738.144 304.814414 
L 741.312 305.073194 
L 744.48 305.041932 
L 747.648 305.720474 
L 750.816 305.969205 
L 757.152 305.967174 
L 760.32 305.555069 
L 766.656 305.46727 
L 769.824 305.146667 
L 772.992 305.893958 
L 776.16 305.718751 
L 779.328 306.077135 
L 782.496 306.061235 
L 785.664 305.852016 
L 788.832 306.45001 
L 788.832 306.45001 
" clip-path="url(#p6253b71359)" style="fill: none; stroke: #000000; stroke-width: 1.5; stroke-linecap: square"/>
   </g>
   <g id="line2d_5">
    <path d="M 0 306 
L 3.168 306 
L 6.336 307.849596 
L 9.504 306.937028 
L 12.672 307.060435 
L 15.84 306.126087 
L 19.008 307.302309 
L 22.176 305.23109 
L 25.344 305.358722 
L 28.512 305.27586 
L 34.848 306.228233 
L 38.016 306.539128 
L 44.352 305.906261 
L 47.52 305.927832 
L 50.688 306.085596 
L 53.856 305.489293 
L 57.024 305.234455 
L 60.192 305.824724 
L 63.36 306.074945 
L 69.696 306.189192 
L 72.864 306.616153 
L 76.032 306.716829 
L 85.536 306.247789 
L 88.704 305.911093 
L 91.872 305.905349 
L 98.208 306.562713 
L 101.376 307.221696 
L 104.544 306.026573 
L 110.88 306.809206 
L 120.384 306.336449 
L 123.552 306.684273 
L 126.72 307.613717 
L 129.888 307.153333 
L 133.056 307.677335 
L 136.224 307.81353 
L 139.392 307.363547 
L 142.56 306.405079 
L 145.728 306.45304 
L 158.4 306.00149 
L 161.568 306.171118 
L 164.736 306.115162 
L 167.904 305.825795 
L 174.24 305.447974 
L 180.576 305.946175 
L 183.744 305.585963 
L 186.912 305.7813 
L 190.08 305.713641 
L 196.416 305.114608 
L 199.584 304.991381 
L 205.92 305.317245 
L 209.088 305.301281 
L 215.424 305.781675 
L 218.592 305.427474 
L 221.76 304.799621 
L 228.096 305.361096 
L 231.264 305.208021 
L 234.432 305.711319 
L 237.6 305.802486 
L 240.768 305.174733 
L 243.936 305.698104 
L 250.272 306.407626 
L 253.44 306.190693 
L 256.608 306.637265 
L 259.776 306.340723 
L 266.112 306.471327 
L 269.28 306.778247 
L 272.448 306.81191 
L 278.784 306.205136 
L 281.952 306.258278 
L 285.12 307.768051 
L 288.288 308.152543 
L 291.456 307.960724 
L 294.624 307.280253 
L 297.792 306.762984 
L 300.96 307.082817 
L 304.128 306.788622 
L 307.296 306.371399 
L 310.464 306.472538 
L 313.632 306.78751 
L 316.8 306.473076 
L 319.968 306.64383 
L 323.136 306.681415 
L 326.304 306.366119 
L 332.64 306.988347 
L 335.808 306.989713 
L 342.144 308.07044 
L 345.312 308.113088 
L 348.48 307.808746 
L 351.648 307.8114 
L 354.816 307.024095 
L 357.984 306.601135 
L 361.152 305.948387 
L 364.32 305.626399 
L 367.488 305.832287 
L 370.656 306.21738 
L 376.992 305.745387 
L 380.16 305.397356 
L 383.328 305.670344 
L 386.496 305.484697 
L 389.664 305.53478 
L 392.832 305.729386 
L 396 305.591204 
L 399.168 305.83129 
L 402.336 305.695168 
L 408.672 305.837421 
L 411.84 306.130745 
L 415.008 306.003391 
L 418.176 306.397674 
L 421.344 306.490019 
L 424.512 306.094599 
L 427.68 305.932032 
L 430.848 305.892355 
L 434.016 305.68449 
L 437.184 305.324582 
L 440.352 306.833718 
L 443.52 306.133282 
L 446.688 306.27134 
L 449.856 305.782084 
L 456.192 305.838616 
L 459.36 305.762851 
L 462.528 305.837493 
L 465.696 305.633133 
L 468.864 305.828262 
L 478.368 305.185879 
L 481.536 305.363975 
L 487.872 305.388094 
L 491.04 305.500342 
L 494.208 305.999314 
L 500.544 306.113701 
L 503.712 306.644393 
L 506.88 306.687 
L 513.216 307.154174 
L 516.384 306.786974 
L 519.552 307.116543 
L 522.72 307.266072 
L 525.888 306.83503 
L 529.056 306.738141 
L 532.224 306.342188 
L 535.392 306.131089 
L 538.56 306.583675 
L 541.728 306.480459 
L 544.896 306.607863 
L 548.064 306.423166 
L 554.4 306.475773 
L 557.568 306.719912 
L 560.736 306.585243 
L 563.904 306.639094 
L 567.072 306.566676 
L 570.24 307.111415 
L 573.408 307.017728 
L 576.576 307.455029 
L 579.744 307.724394 
L 582.912 307.223757 
L 586.08 306.868769 
L 589.248 306.940454 
L 595.584 307.537382 
L 598.752 307.491425 
L 605.088 307.15377 
L 608.256 306.759136 
L 611.424 306.891374 
L 614.592 306.457334 
L 620.928 306.044404 
L 624.096 306.448443 
L 627.264 306.160071 
L 639.936 305.670424 
L 643.104 305.16159 
L 646.272 305.321009 
L 649.44 305.343418 
L 652.608 305.70787 
L 655.776 305.876514 
L 662.112 305.218317 
L 668.448 305.350605 
L 671.616 304.657335 
L 681.12 305.071743 
L 684.288 304.949813 
L 687.456 305.175489 
L 696.96 304.674537 
L 703.296 304.721213 
L 706.464 304.84429 
L 709.632 305.117731 
L 712.8 304.60551 
L 715.968 304.705561 
L 719.136 304.598034 
L 722.304 304.954279 
L 725.472 305.009941 
L 731.808 304.857373 
L 734.976 305.017043 
L 738.144 304.853138 
L 741.312 304.983042 
L 744.48 304.972349 
L 747.648 305.33176 
L 750.816 305.494162 
L 757.152 305.570469 
L 760.32 305.385827 
L 766.656 305.364149 
L 769.824 305.205752 
L 772.992 305.585439 
L 776.16 305.519779 
L 779.328 305.721201 
L 785.664 305.659279 
L 788.832 305.988744 
L 788.832 305.988744 
" clip-path="url(#p6253b71359)" style="fill: none; stroke: #000000; stroke-width: 1.5; stroke-linecap: square"/>
   </g>
   <g id="line2d_6">
    <path d="M 0 306 
L 3.168 306 
L 6.336 307.811238 
L 9.504 306.949063 
L 12.672 307.061906 
L 15.84 306.199957 
L 19.008 307.25044 
L 22.176 305.419538 
L 25.344 305.503561 
L 28.512 305.413551 
L 38.016 306.444289 
L 44.352 305.952926 
L 50.688 306.083245 
L 53.856 305.63298 
L 57.024 305.431865 
L 60.192 305.850859 
L 63.36 306.03051 
L 69.696 306.119086 
L 72.864 306.422428 
L 76.032 306.504744 
L 85.536 306.218704 
L 88.704 305.997331 
L 91.872 305.98845 
L 98.208 306.411552 
L 101.376 306.840883 
L 104.544 306.10545 
L 110.88 306.594442 
L 120.384 306.327879 
L 123.552 306.538803 
L 126.72 307.105017 
L 129.888 306.855988 
L 133.056 307.182104 
L 136.224 307.287332 
L 139.392 307.049499 
L 142.56 306.505714 
L 148.896 306.459148 
L 155.232 306.370561 
L 158.4 306.246926 
L 161.568 306.3314 
L 164.736 306.292218 
L 174.24 305.879885 
L 180.576 306.121634 
L 183.744 305.914618 
L 186.912 306.00704 
L 190.08 305.95957 
L 196.416 305.603552 
L 199.584 305.514318 
L 205.92 305.648674 
L 209.088 305.625894 
L 215.424 305.860177 
L 218.592 305.666424 
L 221.76 305.321251 
L 228.096 305.579399 
L 231.264 305.488309 
L 234.432 305.743407 
L 237.6 305.790881 
L 240.768 305.460131 
L 247.104 305.917245 
L 250.272 306.10217 
L 253.44 306.001756 
L 256.608 306.243291 
L 259.776 306.104535 
L 266.112 306.194686 
L 269.28 306.366956 
L 272.448 306.402361 
L 278.784 306.115237 
L 281.952 306.146576 
L 285.12 306.935459 
L 288.288 307.170295 
L 291.456 307.112328 
L 297.792 306.5496 
L 300.96 306.724743 
L 307.296 306.380106 
L 310.464 306.432633 
L 313.632 306.597593 
L 316.8 306.443342 
L 323.136 306.556134 
L 326.304 306.399822 
L 338.976 307.015142 
L 342.144 307.3233 
L 345.312 307.375149 
L 348.48 307.25032 
L 351.648 307.275101 
L 354.816 306.893975 
L 357.984 306.682343 
L 361.152 306.34387 
L 364.32 306.162362 
L 373.824 306.301817 
L 380.16 305.964341 
L 383.328 306.080425 
L 386.496 305.967334 
L 408.672 306.044337 
L 411.84 306.184671 
L 415.008 306.117722 
L 418.176 306.314536 
L 421.344 306.36497 
L 424.512 306.16596 
L 437.184 305.748046 
L 440.352 306.500583 
L 443.52 306.155179 
L 446.688 306.225992 
L 449.856 305.97911 
L 462.528 305.979602 
L 465.696 305.86848 
L 468.864 305.958056 
L 478.368 305.599267 
L 484.704 305.64301 
L 491.04 305.708603 
L 494.208 305.955208 
L 500.544 306.017012 
L 503.712 306.292347 
L 510.048 306.437999 
L 513.216 306.600433 
L 516.384 306.436225 
L 522.72 306.717178 
L 525.888 306.520687 
L 529.056 306.483278 
L 535.392 306.186296 
L 538.56 306.414107 
L 541.728 306.369229 
L 544.896 306.440973 
L 551.232 306.36406 
L 567.072 306.455674 
L 570.24 306.739081 
L 573.408 306.708301 
L 579.744 307.103968 
L 586.08 306.706911 
L 589.248 306.75069 
L 595.584 307.078901 
L 601.92 306.992162 
L 605.088 306.934264 
L 608.256 306.741922 
L 611.424 306.810114 
L 617.76 306.483564 
L 620.928 306.36603 
L 624.096 306.559781 
L 633.6 306.191465 
L 639.936 306.095498 
L 643.104 305.820312 
L 655.776 306.095983 
L 662.112 305.73305 
L 668.448 305.758239 
L 671.616 305.386881 
L 681.12 305.515904 
L 684.288 305.435481 
L 687.456 305.529865 
L 696.96 305.215646 
L 703.296 305.196155 
L 709.632 305.362736 
L 712.8 305.091878 
L 728.64 305.185166 
L 731.808 305.132597 
L 734.976 305.201247 
L 738.144 305.108518 
L 757.152 305.455219 
L 763.488 305.366704 
L 769.824 305.279745 
L 772.992 305.471397 
L 776.16 305.441952 
L 782.496 305.568378 
L 785.664 305.533862 
L 788.832 305.706528 
L 788.832 305.706528 
" clip-path="url(#p6253b71359)" style="fill: none; stroke: #000000; stroke-width: 1.5; stroke-linecap: square"/>
   </g>
   <g id="line2d_7">
    <path d="M 0 306 
L 3.168 306 
L 6.336 307.792043 
L 9.504 306.954484 
L 12.672 307.062416 
L 15.84 306.235743 
L 19.008 307.226604 
L 22.176 305.509694 
L 25.344 305.575728 
L 28.512 305.484071 
L 38.016 306.406875 
L 44.352 305.977245 
L 50.688 306.086383 
L 53.856 305.701125 
L 57.024 305.526127 
L 60.192 305.872227 
L 66.528 306.059627 
L 69.696 306.095049 
L 72.864 306.342832 
L 76.032 306.413381 
L 85.536 306.197897 
L 88.704 306.025986 
L 91.872 306.017786 
L 98.208 306.341808 
L 101.376 306.670283 
L 104.544 306.123875 
L 110.88 306.489045 
L 120.384 306.303301 
L 123.552 306.456632 
L 126.72 306.866165 
L 129.888 306.697212 
L 133.056 306.934094 
L 136.224 307.017002 
L 139.392 306.859879 
L 142.56 306.487872 
L 152.064 306.447242 
L 177.408 306.118271 
L 180.576 306.206294 
L 183.744 306.069341 
L 190.08 306.090479 
L 199.584 305.789701 
L 215.424 305.974539 
L 224.928 305.697754 
L 228.096 305.776295 
L 231.264 305.715474 
L 234.432 305.864265 
L 237.6 305.889761 
L 240.768 305.687744 
L 250.272 306.062308 
L 253.44 306.003624 
L 256.608 306.146768 
L 262.944 306.084624 
L 275.616 306.164613 
L 281.952 306.107313 
L 285.12 306.563765 
L 288.288 306.708242 
L 291.456 306.686414 
L 297.792 306.381858 
L 300.96 306.485806 
L 310.464 306.331916 
L 313.632 306.4275 
L 316.8 306.344719 
L 323.136 306.413727 
L 326.304 306.329657 
L 338.976 306.686818 
L 342.144 306.865365 
L 348.48 306.847065 
L 351.648 306.870219 
L 361.152 306.376456 
L 364.32 306.27636 
L 373.824 306.348446 
L 383.328 306.219833 
L 389.664 306.154007 
L 399.168 306.197406 
L 405.504 306.166708 
L 415.008 306.206932 
L 421.344 306.336838 
L 427.68 306.184832 
L 434.016 306.105776 
L 437.184 305.999298 
L 440.352 306.392435 
L 443.52 306.212364 
L 446.688 306.248314 
L 449.856 306.11726 
L 468.864 306.087539 
L 481.536 305.919551 
L 491.04 305.921901 
L 497.376 306.071042 
L 500.544 306.074535 
L 503.712 306.216773 
L 519.552 306.401048 
L 522.72 306.456507 
L 532.224 306.249172 
L 535.392 306.195896 
L 538.56 306.313946 
L 554.4 306.308954 
L 560.736 306.347841 
L 573.408 306.489918 
L 579.744 306.704408 
L 586.08 306.515828 
L 592.416 306.643259 
L 598.752 306.726548 
L 639.936 306.249295 
L 643.104 306.105753 
L 658.944 306.121452 
L 665.28 306.020225 
L 668.448 306.033408 
L 671.616 305.838733 
L 690.624 305.800566 
L 700.128 305.657651 
L 785.664 305.651255 
L 788.832 305.736317 
L 788.832 305.736317 
" clip-path="url(#p6253b71359)" style="fill: none; stroke: #000000; stroke-width: 1.5; stroke-linecap: square"/>
   </g>
   <g id="line2d_8">
    <path d="M 0 306 
L 3.168 306 
L 6.336 307.782443 
L 9.504 306.957044 
L 12.672 307.06261 
L 15.84 306.253326 
L 19.008 307.215203 
L 22.176 305.553693 
L 25.344 305.611619 
L 28.512 305.519582 
L 38.016 306.390797 
L 44.352 305.989819 
L 50.688 306.08921 
L 53.856 305.734253 
L 57.024 305.571875 
L 60.192 305.884841 
L 66.528 306.054135 
L 69.696 306.086253 
L 72.864 306.308342 
L 76.032 306.372778 
L 85.536 306.187324 
L 88.704 306.037524 
L 91.872 306.02993 
L 98.208 306.309843 
L 101.376 306.592909 
L 104.544 306.12886 
L 110.88 306.439336 
L 120.384 306.287323 
L 123.552 306.415429 
L 126.72 306.75606 
L 129.888 306.619955 
L 133.056 306.816875 
L 136.224 306.888106 
L 139.392 306.763737 
L 142.56 306.464541 
L 152.064 306.433689 
L 177.408 306.170534 
L 180.576 306.237429 
L 183.744 306.131128 
L 190.08 306.144977 
L 199.584 305.910942 
L 215.424 306.038101 
L 224.928 305.82708 
L 237.6 305.958586 
L 240.768 305.811119 
L 250.272 306.07574 
L 253.44 306.033585 
L 256.608 306.134922 
L 262.944 306.090798 
L 275.616 306.148774 
L 281.952 306.108969 
L 285.12 306.424976 
L 288.288 306.527099 
L 294.624 306.400966 
L 297.792 306.311255 
L 300.96 306.383371 
L 310.464 306.282412 
L 313.632 306.347719 
L 319.968 306.329319 
L 335.808 306.421199 
L 345.312 306.677746 
L 357.984 306.464203 
L 364.32 306.282746 
L 373.824 306.33003 
L 386.496 306.205513 
L 418.176 306.296649 
L 424.512 306.248701 
L 437.184 306.10305 
L 440.352 306.343106 
L 443.52 306.233391 
L 449.856 306.17497 
L 472.032 306.11363 
L 481.536 306.045158 
L 491.04 306.041387 
L 497.376 306.127703 
L 506.88 306.224783 
L 522.72 306.356915 
L 535.392 306.207366 
L 541.728 306.264414 
L 560.736 306.298847 
L 576.576 306.457273 
L 579.744 306.509911 
L 589.248 306.422752 
L 598.752 306.533569 
L 744.48 305.798387 
L 757.152 305.858916 
L 769.824 305.789384 
L 779.328 305.848581 
L 788.832 305.880797 
L 788.832 305.880797 
" clip-path="url(#p6253b71359)" style="fill: none; stroke: #000000; stroke-width: 1.5; stroke-linecap: square"/>
   </g>
   <g id="line2d_9">
    <path d="M 0 306 
L 3.168 306 
L 6.336 307.777643 
L 9.504 306.958286 
L 12.672 307.06269 
L 15.84 306.262038 
L 19.008 307.20963 
L 22.176 305.575417 
L 25.344 305.629501 
L 28.512 305.537379 
L 38.016 306.383423 
L 44.352 305.996228 
L 50.688 306.090957 
L 53.856 305.750583 
L 57.024 305.594377 
L 60.192 305.891605 
L 66.528 306.05221 
L 69.696 306.0827 
L 72.864 306.292515 
L 76.032 306.353889 
L 91.872 306.035488 
L 98.208 306.294784 
L 101.376 306.556548 
L 104.544 306.130515 
L 110.88 306.415584 
L 120.384 306.278735 
L 123.552 306.395203 
L 126.72 306.704059 
L 129.888 306.582581 
L 133.056 306.760943 
L 136.224 306.826403 
L 139.392 306.716488 
L 142.56 306.450102 
L 152.064 306.423679 
L 177.408 306.19143 
L 180.576 306.249174 
L 183.744 306.156715 
L 190.08 306.16787 
L 199.584 305.96457 
L 218.592 305.989763 
L 221.76 305.851581 
L 237.6 305.994388 
L 240.768 305.870893 
L 250.272 306.088579 
L 253.44 306.053543 
L 256.608 306.13681 
L 262.944 306.100273 
L 278.784 306.105141 
L 281.952 306.115502 
L 285.12 306.371157 
L 291.456 306.445767 
L 297.792 306.283469 
L 304.128 306.30481 
L 310.464 306.262139 
L 316.8 306.271584 
L 351.648 306.567126 
L 364.32 306.27701 
L 376.992 306.275873 
L 386.496 306.218925 
L 437.184 306.142388 
L 440.352 306.319036 
L 446.688 306.254406 
L 453.024 306.198053 
L 510.048 306.248504 
L 522.72 306.318237 
L 535.392 306.213731 
L 544.896 306.269722 
L 560.736 306.278549 
L 627.264 306.339544 
L 722.304 305.993961 
L 788.832 305.981078 
L 788.832 305.981078 
" clip-path="url(#p6253b71359)" style="fill: none; stroke: #000000; stroke-width: 1.5; stroke-linecap: square"/>
   </g>
  </g>
 </g>
 <defs>
  <clipPath id="p6253b71359">
   <rect x="0" y="0" width="792" height="612"/>
  </clipPath>
 </defs>
</svg>
