<?xml version="1.0" encoding="utf-8" standalone="no"?>
<!DOCTYPE svg PUBLIC "-//W3C//DTD SVG 1.1//EN"
  "http://www.w3.org/Graphics/SVG/1.1/DTD/svg11.dtd">
<svg xmlns:xlink="http://www.w3.org/1999/xlink" width="792pt" height="612pt" viewBox="0 0 792 612" xmlns="http://www.w3.org/2000/svg" version="1.1">
 <metadata>
  <rdf:RDF xmlns:dc="http://purl.org/dc/elements/1.1/" xmlns:cc="http://creativecommons.org/ns#" xmlns:rdf="http://www.w3.org/1999/02/22-rdf-syntax-ns#">
   <cc:Work>
    <dc:type rdf:resource="http://purl.org/dc/dcmitype/StillImage"/>
    <dc:date>2023-01-16T16:11:47.990182</dc:date>
    <dc:format>image/svg+xml</dc:format>
    <dc:creator>
     <cc:Agent>
      <dc:title>Matplotlib v3.6.2, https://matplotlib.org/</dc:title>
     </cc:Agent>
    </dc:creator>
   </cc:Work>
  </rdf:RDF>
 </metadata>
 <defs>
  <style type="text/css">*{stroke-linejoin: round; stroke-linecap: butt}</style>
 </defs>
 <g id="figure_1">
  <g id="patch_1">
   <path d="M 0 612 
L 792 612 
L 792 0 
L 0 0 
z
" style="fill: #ffffff"/>
  </g>
  <g id="axes_1">
   <g id="line2d_1">
    <path d="M 0 459 
L 3.168 443.572074 
L 6.336 443.572074 
L 9.504 441.758642 
L 12.672 445.620074 
L 15.84 450.771506 
L 19.008 454.841497 
L 22.176 451.971901 
L 25.344 447.961294 
L 28.512 448.107641 
L 31.68 450.185988 
L 34.848 441.817132 
L 38.016 437.315204 
L 41.184 444.947097 
L 44.352 448.488152 
L 50.688 450.595848 
L 53.856 457.711418 
L 57.024 459.429528 
L 60.192 458.970714 
L 63.36 458.736426 
L 66.528 455.251471 
L 69.696 449.951788 
L 72.864 449.717593 
L 76.032 455.485745 
L 82.368 463.85172 
L 85.536 454.577946 
L 88.704 459.820009 
L 91.872 462.338608 
L 98.208 461.313597 
L 101.376 460.55216 
L 104.544 462.797422 
L 107.712 468.703439 
L 110.88 466.770561 
L 114.048 470.509411 
L 117.216 472.188477 
L 120.384 470.402029 
L 123.552 465.306259 
L 126.72 465.804122 
L 129.888 465.345307 
L 133.056 465.423403 
L 136.224 464.866969 
L 139.392 463.734575 
L 142.56 464.769349 
L 145.728 464.515536 
L 148.896 462.807184 
L 152.064 461.782173 
L 155.232 460.239775 
L 158.4 461.284311 
L 161.568 462.83647 
L 164.736 460.60097 
L 167.904 461.586933 
L 171.072 461.059784 
L 174.24 458.70714 
L 177.408 452.762459 
L 180.576 449.132127 
L 183.744 450.91789 
L 186.912 452.323255 
L 190.08 451.005721 
L 193.248 453.611617 
L 196.416 458.033562 
L 199.584 451.152108 
L 202.752 438.747224 
L 205.92 441.787887 
L 209.088 445.766382 
L 212.256 441.963359 
L 215.424 450.039612 
L 218.592 451.298496 
L 221.76 439.448767 
L 224.928 447.81495 
L 228.096 454.167983 
L 231.264 459.507625 
L 234.432 457.15499 
L 237.6 461.215977 
L 240.768 459.712627 
L 243.936 460.093345 
L 247.104 460.89383 
L 250.272 463.021949 
L 253.44 463.627193 
L 256.608 462.035985 
L 259.776 460.571684 
L 262.944 461.001212 
L 266.112 470.411791 
L 269.28 473.672303 
L 272.448 473.584445 
L 275.616 470.402029 
L 278.784 467.88343 
L 281.952 470.245837 
L 285.12 469.006061 
L 288.288 466.819371 
L 291.456 467.63938 
L 294.624 469.82607 
L 297.792 468.293435 
L 300.96 469.58202 
L 304.128 470.138455 
L 307.296 468.557009 
L 310.464 470.343457 
L 313.632 472.901104 
L 316.8 473.428252 
L 319.968 477.137817 
L 323.136 481.345243 
L 326.304 482.643591 
L 329.472 481.852868 
L 332.64 482.790021 
L 335.808 478.875455 
L 338.976 476.796146 
L 342.144 473.086582 
L 345.312 471.08537 
L 348.48 472.159191 
L 351.648 474.43374 
L 354.816 473.184202 
L 357.984 471.632042 
L 361.152 469.367256 
L 364.32 470.743699 
L 367.488 469.425828 
L 370.656 469.474638 
L 373.824 470.431315 
L 376.992 469.43559 
L 380.16 470.694889 
L 383.328 469.767498 
L 386.496 470.187265 
L 389.664 470.382505 
L 392.832 472.100619 
L 396 471.387992 
L 399.168 473.818733 
L 402.336 474.58017 
L 405.504 472.383717 
L 408.672 471.436802 
L 411.84 471.163466 
L 415.008 469.82607 
L 418.176 467.463664 
L 421.344 476.395904 
L 424.512 472.500861 
L 427.68 473.428252 
L 430.848 470.567983 
L 434.016 470.792509 
L 437.184 470.724175 
L 440.352 470.187265 
L 443.52 470.519173 
L 446.688 469.181778 
L 449.856 470.197027 
L 453.024 468.820583 
L 456.192 466.975563 
L 459.36 465.638168 
L 462.528 466.311746 
L 465.696 465.79436 
L 468.864 465.833408 
L 472.032 466.223888 
L 475.2 469.035347 
L 478.368 469.650354 
L 481.536 469.767498 
L 484.704 473.096344 
L 487.872 473.682065 
L 491.04 475.156128 
L 494.208 477.342819 
L 497.376 475.683277 
L 500.544 478.104256 
L 503.712 479.597843 
L 506.88 477.596631 
L 510.048 477.420915 
L 513.216 475.370893 
L 516.384 474.258023 
L 519.552 477.108531 
L 522.72 476.786384 
L 525.888 477.830919 
L 529.056 477.01091 
L 532.224 477.294009 
L 535.392 477.772347 
L 538.56 479.500223 
L 541.728 479.031647 
L 544.896 479.646653 
L 548.064 479.519747 
L 551.232 483.160977 
L 554.4 483.160977 
L 557.568 486.362917 
L 560.736 488.75461 
L 563.904 486.548395 
L 567.072 484.996236 
L 570.24 485.874817 
L 573.408 488.530084 
L 576.576 490.687488 
L 579.744 491.185351 
L 582.912 490.726536 
L 586.08 490.531296 
L 589.248 488.696038 
L 592.416 489.896765 
L 595.584 487.690551 
L 598.752 486.685063 
L 601.92 485.523384 
L 605.088 488.032221 
L 608.256 486.480061 
L 611.424 485.708862 
L 614.592 484.254323 
L 617.76 483.356218 
L 620.928 483.258598 
L 624.096 479.998086 
L 627.264 480.534996 
L 630.432 480.329994 
L 633.6 482.223824 
L 636.768 483.112167 
L 639.936 480.759523 
L 643.104 478.748548 
L 646.272 478.445926 
L 649.44 478.768072 
L 652.608 474.179927 
L 655.776 474.384929 
L 658.944 474.375167 
L 662.112 474.853506 
L 665.28 473.633255 
L 668.448 474.48255 
L 674.784 471.056084 
L 677.952 469.845594 
L 681.12 469.035347 
L 684.288 468.771773 
L 687.456 468.888917 
L 690.624 469.982262 
L 693.792 466.389842 
L 696.96 466.301984 
L 700.128 464.974351 
L 703.296 466.458176 
L 706.464 466.272698 
L 709.632 465.335545 
L 712.8 464.281248 
L 715.968 464.671728 
L 719.136 463.158617 
L 722.304 463.383143 
L 725.472 462.797422 
L 728.64 464.48625 
L 731.808 465.140305 
L 738.144 465.120781 
L 741.312 463.773623 
L 747.648 463.012187 
L 750.816 461.713839 
L 753.984 463.656479 
L 757.152 463.041473 
L 760.32 464.04696 
L 763.488 464.037198 
L 766.656 463.392905 
L 769.824 465.237925 
L 772.992 461.743125 
L 776.16 463.578383 
L 779.328 463.724813 
L 782.496 464.925541 
L 785.664 465.755312 
L 788.832 464.710776 
L 788.832 464.710776 
" clip-path="url(#p8234211908)" style="fill: none; stroke: #000000; stroke-width: 1.5; stroke-linecap: square"/>
   </g>
   <g id="line2d_2">
    <path d="M 0 459 
L 3.168 459 
L 6.336 448.712563 
L 9.504 445.774742 
L 12.672 443.632531 
L 15.84 444.658292 
L 19.008 447.762917 
L 22.176 451.329618 
L 25.344 451.652016 
L 28.512 449.784866 
L 31.68 448.955116 
L 34.848 449.583507 
L 38.016 445.699482 
L 41.184 441.489597 
L 44.352 443.206709 
L 47.52 445.834544 
L 50.688 447.683299 
L 53.856 449.14464 
L 57.024 453.446376 
L 60.192 456.887171 
L 63.36 457.962587 
L 66.528 458.39154 
L 69.696 456.841693 
L 72.864 453.399295 
L 76.032 451.558669 
L 79.2 453.531695 
L 85.536 461.167894 
L 88.704 459.344044 
L 91.872 459.583807 
L 95.04 460.970204 
L 98.208 461.43166 
L 101.376 461.383232 
L 104.544 460.973036 
L 107.712 461.891201 
L 110.88 465.306833 
L 114.048 466.056824 
L 117.216 468.304077 
L 120.384 470.265591 
L 123.552 470.350539 
L 126.72 467.836228 
L 129.888 466.830473 
L 133.056 466.092886 
L 139.392 465.305608 
L 142.56 464.506808 
L 145.728 464.623531 
L 148.896 464.557991 
L 155.232 462.722044 
L 158.4 461.470899 
L 161.568 461.369489 
L 164.736 462.098998 
L 167.904 461.34384 
L 171.072 461.459146 
L 174.24 461.252689 
L 177.408 460.069878 
L 180.576 457.457264 
L 183.744 453.267586 
L 186.912 452.063413 
L 190.08 452.157682 
L 193.248 451.556602 
L 196.416 452.5583 
L 199.584 455.281789 
L 202.752 453.202018 
L 205.92 445.943904 
L 209.088 443.851188 
L 212.256 444.798626 
L 215.424 443.360539 
L 218.592 446.69753 
L 221.76 448.993228 
L 224.928 444.182972 
L 228.096 445.992216 
L 231.264 450.109643 
L 234.432 455.35253 
L 237.6 456.276086 
L 240.768 459.669483 
L 243.936 459.698309 
L 247.104 459.903005 
L 250.272 460.414917 
L 253.44 461.733631 
L 256.608 462.692643 
L 259.776 462.369272 
L 262.944 461.474766 
L 266.112 461.237568 
L 269.28 465.845658 
L 272.448 469.785606 
L 275.616 471.709909 
L 278.784 471.07044 
L 281.952 469.48528 
L 285.12 469.881656 
L 288.288 469.460397 
L 291.456 468.151292 
L 294.624 467.8899 
L 297.792 468.850443 
L 300.96 468.561564 
L 307.296 469.608741 
L 310.464 469.079564 
L 313.632 469.714133 
L 316.8 471.319543 
L 319.968 472.385249 
L 323.136 474.775869 
L 326.304 478.086148 
L 329.472 480.39048 
L 335.808 481.99524 
L 338.976 480.452077 
L 342.144 478.631749 
L 345.312 475.858496 
L 348.48 473.460065 
L 351.648 472.791616 
L 354.816 473.59658 
L 357.984 473.373394 
L 361.152 472.48084 
L 364.32 470.905404 
L 367.488 470.812684 
L 370.656 470.112078 
L 373.824 469.7902 
L 376.992 470.107369 
L 380.16 469.761679 
L 383.328 470.223403 
L 386.496 469.991795 
L 392.832 470.236113 
L 396 471.173611 
L 399.168 471.284553 
L 402.336 472.558285 
L 405.504 473.579315 
L 408.672 472.984827 
L 411.84 472.214088 
L 415.008 471.690691 
L 418.176 470.75729 
L 421.344 469.101385 
L 424.512 472.758464 
L 427.68 472.627078 
L 430.848 473.025407 
L 434.016 471.793135 
L 437.184 471.291559 
L 440.352 471.007006 
L 443.52 470.597843 
L 446.688 470.564499 
L 449.856 469.858993 
L 453.024 470.023493 
L 456.192 469.413003 
L 462.528 466.902597 
L 472.032 466.001429 
L 475.2 466.106859 
L 478.368 467.568825 
L 481.536 468.611217 
L 484.704 469.194832 
L 487.872 471.160212 
L 494.208 473.814216 
L 497.376 475.601085 
L 500.544 475.660729 
L 503.712 476.900274 
L 506.88 478.268564 
L 513.216 477.692911 
L 519.552 475.394857 
L 522.72 476.251235 
L 525.888 476.520972 
L 529.056 477.17541 
L 532.224 477.088088 
L 535.392 477.190455 
L 538.56 477.48209 
L 541.728 478.499253 
L 544.896 478.77481 
L 548.064 479.215709 
L 551.232 479.373087 
L 554.4 481.277484 
L 557.568 482.231289 
L 560.736 484.314885 
L 563.904 486.556282 
L 567.072 486.566158 
L 570.24 485.792892 
L 573.408 485.846066 
L 576.576 487.205742 
L 579.744 488.961373 
L 582.912 490.089096 
L 586.08 490.416372 
L 589.248 490.477318 
L 592.416 489.590889 
L 595.584 489.753436 
L 605.088 486.602412 
L 608.256 487.311134 
L 611.424 486.887271 
L 614.592 486.288611 
L 620.928 484.296663 
L 624.096 483.76894 
L 627.264 481.870401 
L 630.432 481.192918 
L 633.6 480.746354 
L 639.936 482.289364 
L 643.104 481.517591 
L 646.272 480.124035 
L 649.44 479.275544 
L 652.608 479.019396 
L 655.776 476.587201 
L 658.944 475.474408 
L 662.112 474.909398 
L 665.28 474.865259 
L 668.448 474.235284 
L 671.616 474.350552 
L 674.784 473.575754 
L 681.12 471.064697 
L 684.288 470.039533 
L 687.456 469.394666 
L 690.624 469.130096 
L 693.792 469.549021 
L 696.96 467.953563 
L 700.128 467.114988 
L 703.296 466.032744 
L 706.464 466.238818 
L 709.632 466.250341 
L 712.8 465.786206 
L 715.968 465.024692 
L 719.136 464.837797 
L 722.304 463.991871 
L 725.472 463.681784 
L 728.64 463.235335 
L 734.976 464.496395 
L 738.144 464.837568 
L 741.312 464.980821 
L 744.48 464.375461 
L 750.816 463.457487 
L 753.984 462.583539 
L 757.152 463.118382 
L 760.32 463.075812 
L 763.488 463.559165 
L 766.656 463.796057 
L 769.824 463.593734 
L 772.992 464.419371 
L 776.16 463.07876 
L 782.496 463.528654 
L 788.832 464.996401 
L 788.832 464.996401 
" clip-path="url(#p8234211908)" style="fill: none; stroke: #000000; stroke-width: 1.5; stroke-linecap: square"/>
   </g>
   <g id="line2d_3">
    <path d="M 0 459 
L 3.168 459 
L 6.336 449.960294 
L 9.504 447.065325 
L 12.672 444.992478 
L 15.84 445.215764 
L 19.008 447.075096 
L 22.176 449.569845 
L 25.344 450.320245 
L 28.512 449.597323 
L 31.68 449.146908 
L 34.848 449.458114 
L 38.016 447.183854 
L 41.184 444.259549 
L 44.352 444.462506 
L 50.688 446.792764 
L 53.856 447.896863 
L 60.192 453.588838 
L 63.36 455.184843 
L 66.528 456.240118 
L 69.696 455.955693 
L 72.864 454.191374 
L 76.032 452.878311 
L 79.2 453.650621 
L 82.368 455.892879 
L 85.536 459.697617 
L 88.704 459.066435 
L 91.872 459.296402 
L 95.04 460.19666 
L 98.208 460.694101 
L 101.376 460.881826 
L 104.544 460.79027 
L 107.712 461.383006 
L 110.88 463.537764 
L 114.048 464.493564 
L 120.384 468.019277 
L 123.552 468.73373 
L 126.72 467.740645 
L 133.056 466.650902 
L 139.392 465.883885 
L 142.56 465.258863 
L 148.896 464.944779 
L 152.064 464.320407 
L 155.232 463.578389 
L 158.4 462.597594 
L 161.568 462.20442 
L 164.736 462.385025 
L 167.904 461.851106 
L 171.072 461.761555 
L 174.24 461.545281 
L 177.408 460.763837 
L 180.576 459.628003 
L 183.744 457.408322 
L 186.912 455.475721 
L 193.248 453.468274 
L 196.416 453.484193 
L 199.584 454.796486 
L 202.752 453.706866 
L 205.92 449.289853 
L 209.088 447.067826 
L 212.256 446.663562 
L 215.424 445.253825 
L 221.76 447.986108 
L 224.928 445.454983 
L 228.096 446.133629 
L 231.264 448.487854 
L 234.432 452.025151 
L 237.6 453.534687 
L 240.768 457.097707 
L 243.936 458.292678 
L 247.104 459.156835 
L 250.272 459.668134 
L 256.608 461.540779 
L 259.776 461.695902 
L 262.944 461.373499 
L 266.112 461.273283 
L 269.28 463.966429 
L 272.448 466.829015 
L 275.616 468.831876 
L 278.784 469.309143 
L 281.952 468.903615 
L 285.12 469.309077 
L 288.288 469.232525 
L 291.456 468.532164 
L 294.624 468.279779 
L 297.792 468.743856 
L 300.96 468.62043 
L 307.296 469.277008 
L 310.464 469.073615 
L 313.632 469.456767 
L 316.8 470.479258 
L 319.968 471.346463 
L 323.136 473.046692 
L 326.304 475.486195 
L 329.472 477.596609 
L 335.808 480.024978 
L 338.976 479.699626 
L 342.144 478.860676 
L 348.48 475.393358 
L 351.648 474.450533 
L 354.816 474.451187 
L 357.984 474.083594 
L 361.152 473.369083 
L 364.32 472.195854 
L 367.488 471.76805 
L 370.656 471.077432 
L 373.824 470.599182 
L 376.992 470.537479 
L 380.16 470.199573 
L 383.328 470.331831 
L 386.496 470.151584 
L 392.832 470.212186 
L 396 470.764163 
L 399.168 470.947226 
L 405.504 472.607515 
L 408.672 472.541047 
L 415.008 471.910771 
L 418.176 471.299122 
L 421.344 470.173489 
L 424.512 472.003942 
L 427.68 472.151863 
L 430.848 472.530295 
L 434.016 471.955401 
L 443.52 471.01303 
L 446.688 470.866566 
L 449.856 470.370569 
L 453.024 470.31558 
L 456.192 469.87109 
L 459.36 469.016798 
L 462.528 468.02056 
L 468.864 467.006043 
L 472.032 466.660713 
L 475.2 466.521087 
L 481.536 467.951194 
L 484.704 468.482258 
L 487.872 469.836339 
L 494.208 472.199055 
L 497.376 473.713466 
L 500.544 474.297878 
L 506.88 476.657329 
L 510.048 476.944644 
L 513.216 477.097674 
L 516.384 476.602317 
L 519.552 475.925411 
L 522.72 476.284889 
L 525.888 476.443906 
L 529.056 476.860255 
L 535.392 477.033123 
L 538.56 477.255008 
L 541.728 477.919299 
L 551.232 478.917209 
L 554.4 480.165988 
L 557.568 481.047293 
L 560.736 482.614272 
L 563.904 484.425753 
L 567.072 485.060299 
L 570.24 485.053869 
L 573.408 485.304388 
L 576.576 486.262661 
L 579.744 487.57343 
L 582.912 488.647618 
L 586.08 489.271948 
L 589.248 489.655457 
L 592.416 489.385012 
L 595.584 489.547381 
L 598.752 489.012767 
L 601.92 488.339229 
L 605.088 487.5172 
L 608.256 487.673641 
L 611.424 487.324184 
L 614.592 486.847569 
L 620.928 485.28415 
L 624.096 484.687875 
L 627.264 483.304467 
L 630.432 482.481647 
L 633.6 481.838974 
L 636.768 481.941928 
L 639.936 482.276161 
L 643.104 481.822832 
L 646.272 480.909591 
L 649.44 480.177382 
L 652.608 479.755511 
L 655.776 478.109431 
L 658.944 477.002875 
L 662.112 476.219333 
L 665.28 475.806823 
L 668.448 475.158 
L 671.616 474.949973 
L 674.784 474.315013 
L 687.456 470.571582 
L 690.624 470.062404 
L 693.792 470.026552 
L 696.96 468.94719 
L 700.128 468.158478 
L 703.296 467.210025 
L 709.632 466.764186 
L 712.8 466.335364 
L 715.968 465.721584 
L 719.136 465.403795 
L 722.304 464.733191 
L 728.64 463.869461 
L 731.808 464.043958 
L 738.144 464.596279 
L 741.312 464.745574 
L 750.816 463.813731 
L 753.984 463.194942 
L 757.152 463.326905 
L 760.32 463.239592 
L 766.656 463.63909 
L 769.824 463.565515 
L 772.992 464.057741 
L 776.16 463.377922 
L 782.496 463.520801 
L 785.664 463.931993 
L 788.832 464.466692 
L 788.832 464.466692 
" clip-path="url(#p8234211908)" style="fill: none; stroke: #000000; stroke-width: 1.5; stroke-linecap: square"/>
   </g>
   <g id="line2d_4">
    <path d="M 0 459 
L 3.168 459 
L 6.336 450.617115 
L 9.504 447.851534 
L 12.672 445.912203 
L 15.84 445.832004 
L 19.008 447.047477 
L 22.176 448.811741 
L 25.344 449.482061 
L 31.68 448.969251 
L 34.848 449.19663 
L 38.016 447.854307 
L 41.184 445.979363 
L 44.352 445.799192 
L 50.688 446.817984 
L 53.856 447.452296 
L 57.024 449.159507 
L 60.192 450.998078 
L 63.36 452.307269 
L 66.528 453.357663 
L 69.696 453.665772 
L 76.032 452.522749 
L 79.2 453.000419 
L 82.368 454.328303 
L 85.536 457.415923 
L 88.704 456.960822 
L 91.872 457.681387 
L 95.04 459.164917 
L 98.208 459.597319 
L 101.376 459.871456 
L 104.544 459.980727 
L 107.712 460.434452 
L 110.88 461.759342 
L 114.048 462.565081 
L 120.384 465.177386 
L 123.552 466.016625 
L 129.888 465.898855 
L 139.392 465.625341 
L 142.56 465.331981 
L 148.896 465.137921 
L 155.232 464.299317 
L 158.4 463.654471 
L 161.568 463.278527 
L 164.736 463.210594 
L 167.904 462.796447 
L 174.24 462.363497 
L 177.408 461.814691 
L 186.912 459.563651 
L 190.08 459.11938 
L 193.248 458.022591 
L 196.416 457.311145 
L 199.584 457.420108 
L 202.752 456.41352 
L 205.92 453.585333 
L 209.088 451.689587 
L 212.256 450.720556 
L 215.424 449.301518 
L 218.592 449.391825 
L 221.76 449.665683 
L 224.928 448.005724 
L 228.096 447.956598 
L 231.264 448.928896 
L 234.432 450.762138 
L 237.6 451.765942 
L 240.768 453.96748 
L 247.104 456.234171 
L 250.272 457.571367 
L 253.44 459.239595 
L 256.608 459.938829 
L 259.776 460.273615 
L 266.112 460.427738 
L 269.28 462.022358 
L 272.448 463.883446 
L 275.616 465.434724 
L 278.784 466.232215 
L 281.952 466.50177 
L 285.12 467.106533 
L 288.288 467.416679 
L 291.456 467.327913 
L 294.624 467.384522 
L 297.792 467.780856 
L 300.96 467.868409 
L 307.296 468.476934 
L 310.464 468.499218 
L 313.632 468.802474 
L 319.968 470.107947 
L 323.136 471.239343 
L 329.472 474.438088 
L 335.808 476.786293 
L 338.976 477.131471 
L 342.144 477.087841 
L 345.312 476.459571 
L 348.48 475.611374 
L 351.648 475.069148 
L 354.816 474.975173 
L 357.984 474.696186 
L 361.152 474.214657 
L 364.32 473.448906 
L 367.488 473.024577 
L 373.824 471.975157 
L 376.992 471.727559 
L 380.16 471.362295 
L 383.328 471.257863 
L 389.664 470.888618 
L 392.832 470.810316 
L 396 471.018392 
L 399.168 471.078171 
L 405.504 472.008028 
L 408.672 472.069202 
L 415.008 471.84251 
L 418.176 471.519769 
L 421.344 470.870706 
L 424.512 471.749322 
L 427.68 471.863376 
L 430.848 472.106604 
L 437.184 471.678269 
L 446.688 471.178367 
L 449.856 470.859515 
L 453.024 470.752887 
L 456.192 470.441948 
L 459.36 469.88656 
L 462.528 469.206886 
L 472.032 467.881694 
L 475.2 467.615903 
L 484.704 468.389028 
L 494.208 470.70972 
L 497.376 471.768341 
L 500.544 472.393901 
L 506.88 474.30944 
L 513.216 475.250747 
L 516.384 475.272488 
L 519.552 475.113848 
L 529.056 476.002106 
L 538.56 476.579559 
L 541.728 477.049723 
L 551.232 478.028269 
L 554.4 478.85299 
L 557.568 479.547354 
L 560.736 480.643831 
L 563.904 481.948708 
L 567.072 482.693161 
L 573.408 483.53008 
L 576.576 484.339517 
L 582.912 486.302803 
L 586.08 487.019712 
L 589.248 487.589296 
L 592.416 487.77475 
L 595.584 488.121567 
L 598.752 488.059447 
L 601.92 487.847642 
L 605.088 487.482474 
L 608.256 487.575203 
L 614.592 487.141575 
L 624.096 485.705043 
L 627.264 484.799049 
L 633.6 483.52101 
L 636.768 483.317699 
L 639.936 483.28833 
L 643.104 482.886773 
L 649.44 481.625669 
L 652.608 481.170546 
L 655.776 480.05271 
L 658.944 479.14547 
L 662.112 478.379018 
L 674.784 476.081775 
L 681.12 474.395019 
L 687.456 472.757952 
L 690.624 472.128872 
L 693.792 471.775662 
L 696.96 470.904092 
L 703.296 469.320167 
L 712.8 467.923476 
L 715.968 467.330615 
L 719.136 466.895358 
L 722.304 466.288227 
L 728.64 465.322997 
L 731.808 465.179855 
L 741.312 465.13907 
L 750.816 464.393504 
L 753.984 463.956519 
L 769.824 463.753267 
L 772.992 463.983713 
L 776.16 463.620315 
L 782.496 463.623589 
L 788.832 464.132903 
L 788.832 464.132903 
" clip-path="url(#p8234211908)" style="fill: none; stroke: #000000; stroke-width: 1.5; stroke-linecap: square"/>
   </g>
   <g id="line2d_5">
    <path d="M 0 459 
L 3.168 459 
L 6.336 450.949857 
L 9.504 448.274031 
L 12.672 446.427238 
L 15.84 446.236688 
L 19.008 447.164917 
L 22.176 448.565606 
L 25.344 449.130954 
L 31.68 448.830795 
L 34.848 449.013837 
L 38.016 448.089517 
L 41.184 446.765401 
L 44.352 446.550619 
L 50.688 447.078199 
L 53.856 447.456928 
L 57.024 448.534187 
L 60.192 449.742361 
L 63.36 450.672533 
L 66.528 451.471137 
L 69.696 451.839636 
L 76.032 451.474127 
L 79.2 451.850141 
L 82.368 452.722259 
L 85.536 454.635519 
L 88.704 454.630277 
L 91.872 455.247078 
L 95.04 456.481533 
L 98.208 457.472697 
L 101.376 458.222364 
L 107.712 459.241655 
L 110.88 460.066707 
L 114.048 460.648826 
L 123.552 463.108562 
L 136.224 463.816759 
L 142.56 463.891379 
L 148.896 464.012058 
L 155.232 463.731263 
L 158.4 463.437626 
L 161.568 463.25673 
L 164.736 463.22146 
L 171.072 462.883219 
L 174.24 462.730581 
L 177.408 462.410354 
L 190.08 460.6493 
L 196.416 460.032116 
L 199.584 459.919237 
L 202.752 459.624657 
L 205.92 459.009951 
L 209.088 457.597593 
L 212.256 456.616078 
L 215.424 455.399433 
L 218.592 454.955971 
L 221.76 454.652561 
L 224.928 453.384872 
L 228.096 452.921152 
L 231.264 453.026652 
L 234.432 453.652782 
L 237.6 453.945701 
L 240.768 454.924618 
L 247.104 456.020674 
L 250.272 456.744737 
L 256.608 459.062546 
L 259.776 459.310458 
L 266.112 459.547768 
L 269.28 460.453181 
L 275.616 462.559579 
L 278.784 463.215189 
L 281.952 463.605907 
L 285.12 464.16041 
L 288.288 464.564257 
L 294.624 464.99643 
L 297.792 465.399707 
L 304.128 465.971665 
L 307.296 466.320612 
L 310.464 466.508099 
L 313.632 466.826952 
L 319.968 467.839902 
L 323.136 468.613202 
L 332.64 471.681835 
L 335.808 472.609448 
L 338.976 473.133879 
L 342.144 473.441715 
L 345.312 473.415284 
L 351.648 473.138082 
L 354.816 473.249401 
L 357.984 473.247701 
L 361.152 473.117315 
L 364.32 472.808706 
L 370.656 472.376011 
L 376.992 471.999197 
L 380.16 471.789856 
L 396 471.422693 
L 399.168 471.42443 
L 408.672 471.927453 
L 415.008 471.837523 
L 418.176 471.675953 
L 421.344 471.330077 
L 424.512 471.757018 
L 434.016 471.852628 
L 446.688 471.481012 
L 459.36 470.675488 
L 465.696 469.93288 
L 472.032 469.277608 
L 475.2 469.021737 
L 484.704 469.131569 
L 491.04 469.813364 
L 494.208 470.259505 
L 497.376 470.85055 
L 500.544 471.253553 
L 510.048 472.901286 
L 513.216 473.279282 
L 525.888 474.066577 
L 532.224 474.594558 
L 538.56 475.060757 
L 548.064 476.056391 
L 551.232 476.34658 
L 557.568 477.4369 
L 560.736 478.182012 
L 563.904 479.065068 
L 567.072 479.691746 
L 573.408 480.618236 
L 576.576 481.281089 
L 582.912 482.832126 
L 589.248 484.084688 
L 598.752 485.164098 
L 611.424 485.629664 
L 614.592 485.640882 
L 620.928 485.354047 
L 624.096 485.185274 
L 630.432 484.408225 
L 633.6 484.071995 
L 643.104 483.605171 
L 652.608 482.479934 
L 658.944 481.179387 
L 668.448 479.603926 
L 674.784 478.656229 
L 684.288 476.658121 
L 690.624 475.411431 
L 693.792 474.959627 
L 703.296 472.864703 
L 728.64 468.557013 
L 734.976 467.955777 
L 744.48 467.186931 
L 760.32 465.679653 
L 769.824 465.22989 
L 772.992 465.224126 
L 776.16 464.927363 
L 782.496 464.708666 
L 788.832 464.796074 
L 788.832 464.796074 
" clip-path="url(#p8234211908)" style="fill: none; stroke: #000000; stroke-width: 1.5; stroke-linecap: square"/>
   </g>
   <g id="line2d_6">
    <path d="M 0 459 
L 3.168 459 
L 6.336 451.116778 
L 9.504 448.491483 
L 12.672 446.696805 
L 15.84 446.462396 
L 19.008 447.260402 
L 22.176 448.488782 
L 25.344 448.992903 
L 31.68 448.767015 
L 34.848 448.925709 
L 38.016 448.182003 
L 41.184 447.111338 
L 44.352 446.909539 
L 50.688 447.260896 
L 53.856 447.532135 
L 63.36 449.944686 
L 66.528 450.568505 
L 69.696 450.891584 
L 76.032 450.755561 
L 79.2 451.058714 
L 82.368 451.698268 
L 85.536 453.041916 
L 88.704 453.134587 
L 91.872 453.627989 
L 95.04 454.524818 
L 98.208 455.275543 
L 101.376 455.878409 
L 104.544 456.311953 
L 107.712 457.086454 
L 110.88 458.771726 
L 123.552 461.091829 
L 136.224 461.916243 
L 145.728 462.274595 
L 152.064 462.404378 
L 174.24 462.097677 
L 180.576 461.716172 
L 186.912 461.203127 
L 196.416 460.624288 
L 202.752 460.348226 
L 209.088 459.680436 
L 221.76 458.760765 
L 224.928 457.901861 
L 228.096 457.454341 
L 231.264 457.308847 
L 234.432 457.450865 
L 237.6 457.437815 
L 240.768 457.799329 
L 247.104 458.136321 
L 250.272 458.423175 
L 253.44 458.976473 
L 259.776 459.318744 
L 266.112 459.444241 
L 269.28 459.921232 
L 275.616 461.08566 
L 278.784 461.489569 
L 307.296 463.908628 
L 313.632 464.376585 
L 319.968 465.115735 
L 323.136 465.631648 
L 335.808 468.291021 
L 342.144 469.088741 
L 348.48 469.337823 
L 354.816 469.671022 
L 361.152 469.898424 
L 373.824 469.874212 
L 399.168 470.088425 
L 408.672 470.516635 
L 418.176 470.557584 
L 421.344 470.428561 
L 424.512 470.684905 
L 434.016 470.869402 
L 449.856 470.761299 
L 456.192 470.660608 
L 468.864 469.950157 
L 475.2 469.627549 
L 484.704 469.617548 
L 494.208 470.159161 
L 510.048 471.640964 
L 516.384 472.037199 
L 519.552 472.132599 
L 551.232 474.307057 
L 560.736 475.532041 
L 563.904 476.097376 
L 570.24 476.906668 
L 576.576 477.772066 
L 586.08 479.383265 
L 592.416 480.241627 
L 598.752 480.959915 
L 611.424 481.890773 
L 617.76 482.15609 
L 624.096 482.260869 
L 633.6 482.033191 
L 643.104 482.041673 
L 652.608 481.637629 
L 662.112 480.750952 
L 674.784 479.67047 
L 684.288 478.484562 
L 719.136 473.888253 
L 728.64 472.568923 
L 738.144 471.631666 
L 747.648 470.704545 
L 760.32 469.451438 
L 782.496 467.929082 
L 788.832 467.713441 
L 788.832 467.713441 
" clip-path="url(#p8234211908)" style="fill: none; stroke: #000000; stroke-width: 1.5; stroke-linecap: square"/>
   </g>
   <g id="line2d_7">
    <path d="M 0 459 
L 3.168 459 
L 6.336 451.200307 
L 9.504 448.601595 
L 12.672 446.834312 
L 15.84 446.580817 
L 19.008 447.317496 
L 22.176 448.463139 
L 25.344 448.935634 
L 31.68 448.739622 
L 34.848 448.885798 
L 38.016 448.22381 
L 41.184 447.270693 
L 44.352 447.080331 
L 50.688 447.361184 
L 53.856 447.586157 
L 66.528 450.161827 
L 69.696 450.449486 
L 76.032 450.385056 
L 79.2 450.646406 
L 82.368 451.174197 
L 85.536 452.257002 
L 88.704 452.366359 
L 91.872 452.784065 
L 98.208 454.129467 
L 101.376 454.635608 
L 104.544 455.01407 
L 107.712 455.646275 
L 110.88 456.955153 
L 114.048 457.95854 
L 117.216 459.113668 
L 123.552 460.01847 
L 139.392 460.908064 
L 155.232 461.314242 
L 161.568 461.27959 
L 167.904 461.306107 
L 177.408 461.233658 
L 212.256 459.726535 
L 218.592 459.450712 
L 224.928 459.179846 
L 231.264 459.028345 
L 250.272 459.170955 
L 262.944 459.481208 
L 266.112 459.52008 
L 272.448 460.149411 
L 278.784 460.738369 
L 316.8 462.96158 
L 323.136 463.549336 
L 338.976 465.590963 
L 345.312 466.027735 
L 354.816 466.4802 
L 361.152 466.754375 
L 392.832 467.433025 
L 418.176 468.212344 
L 421.344 468.195348 
L 427.68 468.474557 
L 434.016 468.631352 
L 453.024 468.838454 
L 459.36 468.79634 
L 475.2 468.493802 
L 484.704 468.558823 
L 494.208 468.912788 
L 516.384 470.127301 
L 525.888 470.511687 
L 554.4 472.060527 
L 560.736 472.611678 
L 567.072 473.262283 
L 576.576 474.111156 
L 589.248 475.519675 
L 601.92 476.591207 
L 620.928 477.694885 
L 627.264 477.863211 
L 652.608 478.258301 
L 681.12 477.356885 
L 703.296 475.987402 
L 719.136 474.890553 
L 731.808 473.935923 
L 785.664 470.795703 
L 788.832 470.687205 
L 788.832 470.687205 
" clip-path="url(#p8234211908)" style="fill: none; stroke: #000000; stroke-width: 1.5; stroke-linecap: square"/>
   </g>
   <g id="line2d_8">
    <path d="M 0 459 
L 3.168 459 
L 6.336 451.242081 
L 9.504 448.656975 
L 12.672 446.903708 
L 15.84 446.641374 
L 19.008 447.348378 
L 22.176 448.453621 
L 25.344 448.910195 
L 31.68 448.727457 
L 34.848 448.867338 
L 38.016 448.243955 
L 41.184 447.346947 
L 44.352 447.163177 
L 50.688 447.412948 
L 53.856 447.616805 
L 66.528 449.973727 
L 69.696 450.241838 
L 76.032 450.203663 
L 79.2 450.443497 
L 82.368 450.917929 
L 85.536 451.87945 
L 88.704 451.990564 
L 91.872 452.368942 
L 98.208 453.566433 
L 107.712 454.927175 
L 110.88 456.060074 
L 114.048 456.935882 
L 117.216 458.12973 
L 120.384 459.140256 
L 123.552 459.492374 
L 139.392 460.306419 
L 155.232 460.716359 
L 167.904 460.767571 
L 177.408 460.749229 
L 212.256 459.676942 
L 218.592 459.47323 
L 237.6 459.149007 
L 266.112 459.493134 
L 288.288 460.800639 
L 304.128 461.424002 
L 319.968 462.190678 
L 326.304 462.734528 
L 338.976 463.895657 
L 345.312 464.236944 
L 376.992 465.218134 
L 399.168 465.743894 
L 415.008 466.22473 
L 427.68 466.519689 
L 437.184 466.728529 
L 456.192 466.983454 
L 484.704 467.01784 
L 500.544 467.532084 
L 516.384 468.172444 
L 529.056 468.595208 
L 551.232 469.45307 
L 563.904 470.243611 
L 586.08 471.776684 
L 598.752 472.6246 
L 617.76 473.589278 
L 630.432 473.981624 
L 655.776 474.495846 
L 677.952 474.426323 
L 700.128 473.945064 
L 769.824 471.697771 
L 788.832 471.19005 
L 788.832 471.19005 
" clip-path="url(#p8234211908)" style="fill: none; stroke: #000000; stroke-width: 1.5; stroke-linecap: square"/>
   </g>
   <g id="line2d_9">
    <path d="M 0 459 
L 3.168 459 
L 6.336 451.262969 
L 9.504 448.684744 
L 12.672 446.938561 
L 15.84 446.671983 
L 19.008 447.3644 
L 22.176 448.449698 
L 25.344 448.898303 
L 31.68 448.721808 
L 34.848 448.85854 
L 38.016 448.253888 
L 41.184 447.38423 
L 44.352 447.203931 
L 50.688 447.439159 
L 53.856 447.632971 
L 66.528 449.88391 
L 69.696 450.141967 
L 76.032 450.114779 
L 79.2 450.343828 
L 82.368 450.792401 
L 85.536 451.695927 
L 88.704 451.806548 
L 91.872 452.165214 
L 98.208 453.290478 
L 107.712 454.572583 
L 110.88 455.621563 
L 114.048 456.43533 
L 120.384 458.729926 
L 123.552 459.23597 
L 139.392 460.006054 
L 155.232 460.408288 
L 167.904 460.479906 
L 177.408 460.481853 
L 212.256 459.599504 
L 224.928 459.261148 
L 234.432 459.170161 
L 247.104 459.212704 
L 266.112 459.443818 
L 288.288 460.522881 
L 304.128 461.044481 
L 319.968 461.681168 
L 329.472 462.381133 
L 338.976 463.069496 
L 345.312 463.356228 
L 380.16 464.283038 
L 449.856 465.759081 
L 462.528 465.84293 
L 484.704 465.95454 
L 500.544 466.374863 
L 522.72 467.047184 
L 551.232 467.922732 
L 573.408 468.972874 
L 611.424 470.886833 
L 624.096 471.319778 
L 658.944 471.993351 
L 681.12 472.047401 
L 709.632 471.735175 
L 757.152 470.896593 
L 788.832 470.402387 
L 788.832 470.402387 
" clip-path="url(#p8234211908)" style="fill: none; stroke: #000000; stroke-width: 1.5; stroke-linecap: square"/>
   </g>
  </g>
 </g>
 <defs>
  <clipPath id="p8234211908">
   <rect x="0" y="0" width="792" height="612"/>
  </clipPath>
 </defs>
</svg>
