<?xml version="1.0" encoding="utf-8" standalone="no"?>
<!DOCTYPE svg PUBLIC "-//W3C//DTD SVG 1.1//EN"
  "http://www.w3.org/Graphics/SVG/1.1/DTD/svg11.dtd">
<svg xmlns:xlink="http://www.w3.org/1999/xlink" width="792pt" height="612pt" viewBox="0 0 792 612" xmlns="http://www.w3.org/2000/svg" version="1.1">
 <metadata>
  <rdf:RDF xmlns:dc="http://purl.org/dc/elements/1.1/" xmlns:cc="http://creativecommons.org/ns#" xmlns:rdf="http://www.w3.org/1999/02/22-rdf-syntax-ns#">
   <cc:Work>
    <dc:type rdf:resource="http://purl.org/dc/dcmitype/StillImage"/>
    <dc:date>2022-12-19T20:28:42.010106</dc:date>
    <dc:format>image/svg+xml</dc:format>
    <dc:creator>
     <cc:Agent>
      <dc:title>Matplotlib v3.6.2, https://matplotlib.org/</dc:title>
     </cc:Agent>
    </dc:creator>
   </cc:Work>
  </rdf:RDF>
 </metadata>
 <defs>
  <style type="text/css">*{stroke-linejoin: round; stroke-linecap: butt}</style>
 </defs>
 <g id="figure_1">
  <g id="patch_1">
   <path d="M 0 612 
L 792 612 
L 792 0 
L 0 0 
z
" style="fill: #ffffff"/>
  </g>
  <g id="axes_1">
   <g id="line2d_1">
    <path d="M 0 459 
L 6.310757 455.535805 
L 9.466135 448.987255 
L 12.621514 459.20378 
L 15.776892 458.446883 
L 18.932271 458.737997 
L 22.087649 454.196789 
L 25.243028 451.926481 
L 28.398406 446.485185 
L 31.553785 443.95478 
L 34.709163 440.030156 
L 37.864542 444.158344 
L 41.01992 441.803195 
L 44.175299 443.780301 
L 47.330677 442.122979 
L 50.486056 439.972033 
L 53.641434 443.98386 
L 56.796813 444.245587 
L 59.952191 450.704144 
L 63.10757 456.118006 
L 66.262948 455.099162 
L 69.418327 457.1951 
L 72.573705 452.770535 
L 75.729084 459.912158 
L 78.884462 446.397916 
L 82.039841 446.397916 
L 85.195219 444.594572 
L 88.350598 448.434416 
L 91.505976 453.556417 
L 94.661355 457.602655 
L 97.816733 454.749852 
L 100.972112 450.762348 
L 104.12749 450.90786 
L 107.282869 452.974279 
L 110.438247 444.652738 
L 113.593625 440.175466 
L 116.749004 447.76523 
L 119.904382 451.286196 
L 126.215139 453.381774 
L 129.370518 459.485191 
L 132.525896 460.339126 
L 135.681275 459.902454 
L 138.836653 459.824824 
L 141.992032 458.010213 
L 145.14741 452.741429 
L 148.302789 452.508583 
L 151.458167 458.243103 
L 154.613546 460.659352 
L 157.768924 464.734953 
L 160.924303 457.340655 
L 164.079681 460.727278 
L 167.23506 463.230862 
L 173.545817 462.211962 
L 176.701195 461.455064 
L 179.856574 463.686941 
L 183.011952 469.557747 
L 186.167331 467.636392 
L 189.322709 471.352952 
L 192.478088 473.022008 
L 195.633466 471.24621 
L 198.788845 466.180821 
L 201.944223 466.675715 
L 205.099602 466.219636 
L 208.25498 466.297266 
L 211.410359 465.744149 
L 214.565737 464.618507 
L 217.721116 465.647111 
L 220.876494 465.394812 
L 224.031873 463.696645 
L 227.187251 462.677745 
L 230.342629 461.144542 
L 233.498008 462.18285 
L 236.653386 463.725756 
L 239.808765 461.503583 
L 242.964143 462.483668 
L 246.119522 461.959663 
L 249.2749 459.81512 
L 252.430279 455.535805 
L 255.585657 451.926481 
L 258.741036 453.701954 
L 261.896414 455.099162 
L 265.051793 453.789277 
L 268.207171 456.379999 
L 271.36255 459.591933 
L 274.517928 453.934816 
L 277.673307 441.599704 
L 280.828685 444.623655 
L 283.984064 448.579897 
L 287.139442 444.798154 
L 290.294821 452.828748 
L 293.450199 454.080356 
L 296.605578 442.297414 
L 299.760956 450.616839 
L 302.916335 456.933102 
L 306.071713 460.416757 
L 309.227092 459.300818 
L 312.38247 462.114924 
L 315.537849 460.620537 
L 318.693227 460.998985 
L 321.848606 461.794698 
L 325.003984 463.910129 
L 328.159363 464.511765 
L 331.314741 462.930044 
L 334.47012 461.474472 
L 337.625498 461.90144 
L 340.780876 471.255914 
L 343.936255 474.496987 
L 347.091633 474.409653 
L 350.247012 471.24621 
L 353.40239 468.742627 
L 356.557769 471.090949 
L 359.713147 469.858565 
L 362.868526 467.684912 
L 366.023904 468.500032 
L 369.179283 470.673686 
L 372.334661 469.150187 
L 375.49004 470.43109 
L 378.645418 470.984208 
L 381.800797 469.41219 
L 384.956175 471.187988 
L 388.111554 473.730386 
L 391.266932 474.254392 
L 394.422311 477.941841 
L 397.577689 482.124183 
L 400.733068 483.41479 
L 403.888446 482.628782 
L 407.043825 483.560348 
L 410.199203 479.669119 
L 413.354582 477.602207 
L 416.50996 473.914759 
L 419.665339 471.925477 
L 422.820717 472.992897 
L 425.976096 475.253885 
L 429.131474 474.011797 
L 432.286853 472.468891 
L 435.442231 470.217606 
L 438.59761 471.585844 
L 441.752988 470.275829 
L 444.908367 470.324348 
L 448.063745 471.275322 
L 451.219124 470.285533 
L 454.374502 471.537325 
L 457.52988 470.615463 
L 460.685259 471.032727 
L 463.840637 471.226803 
L 466.996016 472.934674 
L 470.151394 472.226295 
L 473.306773 474.642545 
L 476.462151 475.399442 
L 479.61753 473.216084 
L 482.772908 472.274814 
L 485.928287 472.003108 
L 489.083665 470.673686 
L 492.239044 468.325363 
L 495.394422 477.204351 
L 498.549801 473.33253 
L 501.705179 474.254392 
L 504.860558 471.411175 
L 508.015936 471.634363 
L 511.171315 471.566436 
L 514.326693 471.032727 
L 517.482072 471.362656 
L 520.63745 470.033234 
L 523.792829 471.04243 
L 526.948207 469.674193 
L 530.103586 467.840173 
L 533.258964 466.51075 
L 536.414343 467.180313 
L 539.569721 466.666011 
L 542.7251 466.704827 
L 545.880478 467.092979 
L 549.035857 469.887677 
L 552.191235 470.499017 
L 555.346614 470.615463 
L 558.501992 473.924462 
L 561.657371 474.506691 
L 564.812749 475.971967 
L 567.968127 478.145621 
L 571.123506 476.495973 
L 574.278884 478.902518 
L 577.434263 480.387201 
L 580.589641 478.39792 
L 583.74502 478.223251 
L 586.900398 476.185451 
L 590.055777 475.079216 
L 593.211155 477.912729 
L 596.366534 477.592503 
L 599.521912 478.630811 
L 602.677291 477.815691 
L 605.832669 478.097102 
L 608.988048 478.572588 
L 612.143426 480.290163 
L 615.298805 479.82438 
L 618.454183 480.43572 
L 621.609562 480.309571 
L 624.76494 483.929092 
L 627.920319 483.929092 
L 631.075697 487.111943 
L 634.231076 489.489377 
L 637.386454 487.296315 
L 640.541833 485.753409 
L 643.697211 486.626752 
L 646.85259 489.266189 
L 650.007968 491.410731 
L 653.163347 491.905626 
L 656.318725 491.449547 
L 659.474104 491.25547 
L 662.629482 489.431154 
L 665.784861 490.624723 
L 668.940239 488.431661 
L 672.095618 487.432168 
L 675.250996 486.277415 
L 678.406375 488.771294 
L 681.561753 487.228388 
L 684.717131 486.461787 
L 687.87251 485.015919 
L 691.027888 484.123169 
L 694.183267 484.026131 
L 697.338645 480.785057 
L 700.494024 481.318767 
L 703.649402 481.114987 
L 706.804781 482.997526 
L 709.960159 483.880573 
L 713.115538 481.541955 
L 716.270916 479.542969 
L 719.426295 479.242151 
L 722.581673 479.562377 
L 725.737052 475.001586 
L 728.89243 475.205366 
L 732.047809 475.195662 
L 735.203187 475.671149 
L 738.358566 474.458172 
L 741.513944 475.302404 
L 747.824701 471.896366 
L 750.98008 470.693093 
L 754.135458 469.887677 
L 757.290837 469.625674 
L 760.446215 469.74212 
L 763.601594 470.828947 
L 766.756972 467.257944 
L 769.912351 467.17061 
L 773.067729 465.850891 
L 776.223108 467.32587 
L 779.378486 467.141498 
L 782.533865 466.209932 
L 785.689243 465.16192 
L 788.844622 465.550073 
L 788.844622 465.550073 
" clip-path="url(#pe8bde3c1a1)" style="fill: none; stroke: #000000; stroke-width: 1.5; stroke-linecap: square"/>
   </g>
   <g id="line2d_2">
    <path d="M 0 459 
L 3.155378 459 
L 6.310757 457.87436 
L 9.466135 456.538028 
L 12.621514 452.510523 
L 15.776892 456.175287 
L 18.932271 457.329103 
L 22.087649 458.039095 
L 25.243028 456.110357 
L 28.398406 454.004447 
L 31.553785 450.223002 
L 34.709163 447.065632 
L 37.864542 443.529424 
L 41.01992 443.8136 
L 44.175299 442.77571 
L 47.330677 443.248681 
L 50.486056 442.662147 
L 53.641434 441.293512 
L 56.796813 442.633643 
L 59.952191 443.440137 
L 63.10757 447.092328 
L 66.262948 451.627906 
L 69.418327 453.389535 
L 72.573705 455.318567 
L 75.729084 454.065402 
L 78.884462 457.943542 
L 82.039841 452.174385 
L 85.195219 449.289988 
L 88.350598 446.929986 
L 91.505976 447.66711 
L 94.661355 450.608394 
L 97.816733 454.106039 
L 100.972112 454.431825 
L 104.12749 452.575469 
L 107.282869 451.750486 
L 110.438247 452.375268 
L 113.593625 448.513375 
L 116.749004 444.327016 
L 119.904382 446.034591 
L 123.059761 448.647675 
L 126.215139 450.485939 
L 129.370518 451.938922 
L 132.525896 456.215725 
L 135.681275 459.212076 
L 138.836653 459.568415 
L 141.992032 459.710547 
L 145.14741 459.197006 
L 148.302789 456.16892 
L 151.458167 454.33902 
L 154.613546 456.300545 
L 157.768924 459.382064 
L 160.924303 462.067128 
L 164.079681 460.254151 
L 167.23506 460.492484 
L 170.390438 461.870616 
L 173.545817 462.329321 
L 176.701195 462.281182 
L 179.856574 461.873432 
L 183.011952 462.786123 
L 186.167331 466.181392 
L 189.322709 466.926911 
L 192.478088 469.160766 
L 195.633466 471.110585 
L 198.788845 471.195028 
L 201.944223 468.695706 
L 205.099602 467.695947 
L 208.25498 466.962758 
L 214.565737 466.180174 
L 217.721116 465.386136 
L 220.876494 465.502163 
L 224.031873 465.437014 
L 230.342629 463.612012 
L 233.498008 462.368326 
L 236.653386 462.267521 
L 239.808765 462.992681 
L 242.964143 462.242024 
L 246.119522 462.356644 
L 249.2749 462.151418 
L 252.430279 460.975658 
L 255.585657 459.400977 
L 258.741036 456.037981 
L 261.896414 454.840832 
L 265.051793 454.934552 
L 268.207171 454.336965 
L 271.36255 455.332836 
L 274.517928 458.040351 
L 277.673307 455.972797 
L 280.828685 448.756417 
L 283.984064 446.675469 
L 287.139442 447.617594 
L 290.294821 446.187562 
L 293.450199 449.505775 
L 296.605578 451.788378 
L 299.760956 447.005395 
L 302.916335 448.804455 
L 306.071713 452.898374 
L 309.227092 458.110675 
L 312.38247 459.00959 
L 315.537849 460.57765 
L 318.693227 460.606304 
L 321.848606 460.80978 
L 325.003984 461.31864 
L 328.159363 462.629492 
L 331.314741 463.582787 
L 334.47012 463.261343 
L 337.625498 462.37217 
L 340.780876 462.136386 
L 343.936255 466.717004 
L 347.091633 470.633462 
L 350.247012 472.546293 
L 353.40239 471.910636 
L 356.557769 470.334927 
L 359.713147 470.72894 
L 362.868526 470.310192 
L 366.023904 469.008892 
L 369.179283 468.749058 
L 372.334661 469.703875 
L 375.49004 469.416718 
L 381.800797 470.457652 
L 384.956175 469.931629 
L 388.111554 470.562415 
L 391.266932 472.158255 
L 394.422311 473.217606 
L 397.577689 475.593975 
L 400.733068 478.884518 
L 403.888446 481.175113 
L 410.199203 482.770305 
L 413.354582 481.236342 
L 416.50996 479.426866 
L 419.665339 476.670147 
L 422.820717 474.286015 
L 425.976096 473.621551 
L 429.131474 474.421716 
L 432.286853 474.19986 
L 435.442231 473.312628 
L 438.59761 471.746585 
L 441.752988 471.654417 
L 444.908367 470.957988 
L 448.063745 470.638029 
L 451.219124 470.953308 
L 454.374502 470.609678 
L 457.52988 471.06865 
L 460.685259 470.838422 
L 466.996016 471.081284 
L 470.151394 472.013192 
L 473.306773 472.123473 
L 476.462151 473.389611 
L 479.61753 474.404554 
L 482.772908 473.813611 
L 485.928287 473.047466 
L 489.083665 472.52719 
L 492.239044 471.599353 
L 495.394422 469.95332 
L 498.549801 473.588596 
L 501.705179 473.457995 
L 504.860558 473.853948 
L 508.015936 472.629023 
L 511.171315 472.130437 
L 514.326693 471.84758 
L 517.482072 471.440857 
L 520.63745 471.407712 
L 523.792829 470.706412 
L 526.948207 470.869931 
L 530.103586 470.263081 
L 536.414343 467.767641 
L 545.880478 466.871846 
L 549.035857 466.976647 
L 552.191235 468.429898 
L 555.346614 469.466075 
L 558.501992 470.04621 
L 561.657371 471.999873 
L 567.968127 474.638054 
L 571.123506 476.41427 
L 574.278884 476.473559 
L 577.434263 477.705714 
L 580.589641 479.065846 
L 586.900398 478.493626 
L 593.211155 476.209273 
L 596.366534 477.060544 
L 599.521912 477.328674 
L 602.677291 477.97921 
L 605.832669 477.892408 
L 608.988048 477.994165 
L 612.143426 478.284062 
L 615.298805 479.295161 
L 618.454183 479.569075 
L 621.609562 480.007344 
L 624.76494 480.163785 
L 627.920319 482.056828 
L 631.075697 483.004947 
L 634.231076 485.076121 
L 637.386454 487.304154 
L 640.541833 487.313972 
L 643.697211 486.545316 
L 646.85259 486.598173 
L 650.007968 487.949743 
L 653.163347 489.694907 
L 656.318725 490.815907 
L 659.474104 491.141232 
L 662.629482 491.201814 
L 665.784861 490.32067 
L 668.940239 490.482248 
L 678.406375 487.35001 
L 681.561753 488.054506 
L 684.717131 487.633171 
L 687.87251 487.03808 
L 694.183267 485.058007 
L 697.338645 484.533431 
L 700.494024 482.64621 
L 703.649402 481.972766 
L 706.804781 481.528864 
L 713.115538 483.062675 
L 716.270916 482.295503 
L 719.426295 480.910256 
L 722.581673 480.066823 
L 725.737052 479.812203 
L 728.89243 477.394508 
L 732.047809 476.288349 
L 735.203187 475.726708 
L 738.358566 475.682831 
L 741.513944 475.056612 
L 744.669323 475.171193 
L 747.824701 474.401015 
L 754.135458 471.904928 
L 757.290837 470.885876 
L 760.446215 470.244853 
L 763.601594 469.981861 
L 766.756972 470.398288 
L 769.912351 468.812342 
L 773.067729 467.978766 
L 776.223108 466.902975 
L 779.378486 467.10782 
L 782.533865 467.119274 
L 785.689243 466.657906 
L 788.844622 465.900932 
L 788.844622 465.900932 
" clip-path="url(#pe8bde3c1a1)" style="fill: none; stroke: #000000; stroke-width: 1.5; stroke-linecap: square"/>
   </g>
   <g id="line2d_3">
    <path d="M 0 459 
L 3.155378 459 
L 6.310757 458.010923 
L 9.466135 456.889476 
L 12.621514 453.803059 
L 15.776892 455.869483 
L 18.932271 456.732215 
L 22.087649 457.376651 
L 25.243028 456.383169 
L 28.398406 455.017388 
L 34.709163 449.895876 
L 37.864542 446.959114 
L 41.01992 446.12952 
L 44.175299 444.852118 
L 47.330677 444.53643 
L 50.486056 443.826685 
L 53.641434 442.675597 
L 59.952191 443.382571 
L 63.10757 445.528324 
L 66.262948 448.624978 
L 72.573705 452.470999 
L 75.729084 452.557093 
L 78.884462 455.256724 
L 82.039841 452.661355 
L 88.350598 449.008019 
L 91.505976 448.844924 
L 94.661355 450.238215 
L 97.816733 452.410791 
L 100.972112 453.110366 
L 104.12749 452.435013 
L 107.282869 451.99566 
L 110.438247 452.292313 
L 113.593625 450.047207 
L 116.749004 447.136263 
L 119.904382 447.312058 
L 129.370518 450.698285 
L 135.681275 456.357353 
L 138.836653 457.943977 
L 141.992032 458.993014 
L 145.14741 458.710274 
L 148.302789 456.956355 
L 151.458167 455.650981 
L 154.613546 456.418775 
L 157.768924 458.647831 
L 160.924303 460.605616 
L 164.079681 459.978197 
L 167.23506 460.206793 
L 170.390438 461.101684 
L 173.545817 461.59616 
L 176.701195 461.782766 
L 179.856574 461.691755 
L 183.011952 462.280958 
L 186.167331 464.422868 
L 189.322709 465.372971 
L 195.633466 468.877664 
L 198.788845 469.587858 
L 201.944223 468.600693 
L 208.25498 467.517447 
L 214.565737 466.755003 
L 217.721116 466.133707 
L 224.031873 465.821495 
L 227.187251 465.200846 
L 230.342629 464.463251 
L 233.498008 463.488304 
L 236.653386 463.097475 
L 239.808765 463.277002 
L 242.964143 462.746267 
L 246.119522 462.657249 
L 249.2749 462.442264 
L 252.430279 461.66548 
L 261.896414 458.233139 
L 268.207171 456.237495 
L 271.36255 456.253321 
L 274.517928 457.557909 
L 277.673307 456.47469 
L 280.828685 452.083301 
L 283.984064 449.873969 
L 287.139442 449.472 
L 290.294821 448.070231 
L 296.605578 450.78702 
L 299.760956 448.270255 
L 302.916335 448.945068 
L 306.071713 451.285899 
L 309.227092 454.802792 
L 312.38247 456.303519 
L 315.537849 459.281837 
L 325.003984 460.576309 
L 331.314741 462.437789 
L 334.47012 462.591988 
L 337.625498 462.271507 
L 340.780876 462.171889 
L 343.936255 464.848978 
L 347.091633 467.694498 
L 350.247012 469.685419 
L 353.40239 470.15984 
L 356.557769 469.75673 
L 359.713147 470.159774 
L 362.868526 470.083679 
L 366.023904 469.387494 
L 369.179283 469.136613 
L 372.334661 469.597923 
L 375.49004 469.475233 
L 381.800797 470.127896 
L 384.956175 469.925716 
L 388.111554 470.306584 
L 391.266932 471.322979 
L 394.422311 472.185014 
L 397.577689 473.875106 
L 400.733068 476.300066 
L 403.888446 478.397897 
L 410.199203 480.811789 
L 413.354582 480.488377 
L 416.50996 479.654429 
L 422.820717 476.207782 
L 425.976096 475.270578 
L 429.131474 475.271228 
L 432.286853 474.905827 
L 435.442231 474.195576 
L 438.59761 473.029341 
L 441.752988 472.604087 
L 444.908367 471.917586 
L 448.063745 471.442188 
L 451.219124 471.380853 
L 454.374502 471.044961 
L 457.52988 471.176431 
L 460.685259 470.997259 
L 466.996016 471.057499 
L 470.151394 471.606185 
L 473.306773 471.788157 
L 479.61753 473.438548 
L 482.772908 473.372476 
L 489.083665 472.745957 
L 492.239044 472.137955 
L 495.394422 471.019033 
L 498.549801 472.838573 
L 501.705179 472.985612 
L 504.860558 473.361788 
L 508.015936 472.790322 
L 517.482072 471.853569 
L 520.63745 471.707978 
L 523.792829 471.214938 
L 526.948207 471.160277 
L 530.103586 470.718437 
L 533.258964 469.869238 
L 536.414343 468.878939 
L 542.7251 467.87047 
L 545.880478 467.5272 
L 549.035857 467.388406 
L 555.346614 468.809987 
L 558.501992 469.337885 
L 561.657371 470.683893 
L 567.968127 473.032522 
L 571.123506 474.537905 
L 574.278884 475.118833 
L 580.589641 477.464218 
L 583.74502 477.749819 
L 586.900398 477.901937 
L 590.055777 477.409533 
L 593.211155 476.736663 
L 596.366534 477.093998 
L 599.521912 477.252067 
L 602.677291 477.665934 
L 608.988048 477.837772 
L 612.143426 478.058333 
L 615.298805 478.718664 
L 624.76494 479.710625 
L 627.920319 480.951959 
L 631.075697 481.828009 
L 634.231076 483.385647 
L 637.386454 485.186328 
L 640.541833 485.817091 
L 643.697211 485.810699 
L 646.85259 486.059725 
L 650.007968 487.012285 
L 653.163347 488.315239 
L 656.318725 489.383022 
L 659.474104 490.00363 
L 662.629482 490.384853 
L 665.784861 490.11602 
L 668.940239 490.277421 
L 672.095618 489.745995 
L 675.250996 489.076472 
L 678.406375 488.259344 
L 681.561753 488.414853 
L 684.717131 488.067479 
L 687.87251 487.593705 
L 694.183267 486.039607 
L 697.338645 485.446886 
L 700.494024 484.071727 
L 703.649402 483.253812 
L 706.804781 482.614971 
L 709.960159 482.717311 
L 713.115538 483.049552 
L 716.270916 482.598925 
L 719.426295 481.691128 
L 722.581673 480.963284 
L 725.737052 480.543929 
L 728.89243 478.907663 
L 732.047809 477.807703 
L 735.203187 477.028833 
L 738.358566 476.618782 
L 741.513944 475.973828 
L 744.669323 475.767041 
L 747.824701 475.135866 
L 760.446215 471.414753 
L 763.601594 470.90861 
L 766.756972 470.872972 
L 769.912351 469.800044 
L 773.067729 469.016035 
L 776.223108 468.073237 
L 782.533865 467.630056 
L 785.689243 467.20379 
L 788.844622 466.59367 
L 788.844622 466.59367 
" clip-path="url(#pe8bde3c1a1)" style="fill: none; stroke: #000000; stroke-width: 1.5; stroke-linecap: square"/>
   </g>
   <g id="line2d_4">
    <path d="M 0 459 
L 3.155378 459 
L 9.466135 457.083183 
L 12.621514 454.506631 
L 15.776892 455.907963 
L 18.932271 456.532831 
L 22.087649 457.032114 
L 25.243028 456.430614 
L 28.398406 455.52317 
L 34.709163 451.93992 
L 37.864542 449.773157 
L 41.01992 448.77464 
L 44.175299 447.557483 
L 47.330677 446.908142 
L 50.486056 446.095835 
L 53.641434 445.067089 
L 59.952191 444.780809 
L 63.10757 445.753361 
L 66.262948 447.446273 
L 69.418327 448.691063 
L 72.573705 450.069376 
L 75.729084 450.505924 
L 78.884462 452.316194 
L 82.039841 451.363854 
L 85.195219 450.566195 
L 88.350598 449.608362 
L 91.505976 449.420339 
L 94.661355 450.081972 
L 97.816733 451.283908 
L 100.972112 451.837466 
L 107.282869 451.537399 
L 110.438247 451.764404 
L 113.593625 450.629886 
L 116.749004 448.953561 
L 119.904382 448.757821 
L 126.215139 449.659909 
L 129.370518 450.252909 
L 132.525896 451.884588 
L 135.681275 453.667512 
L 138.836653 454.960116 
L 141.992032 456.007335 
L 145.14741 456.336112 
L 151.458167 455.257337 
L 154.613546 455.743774 
L 157.768924 457.066322 
L 160.924303 459.377089 
L 164.079681 459.23047 
L 167.23506 459.470295 
L 170.390438 460.072065 
L 173.545817 460.503258 
L 176.701195 460.778419 
L 179.856574 460.887038 
L 183.011952 461.338059 
L 186.167331 462.65505 
L 189.322709 463.455985 
L 195.633466 466.052716 
L 198.788845 466.886951 
L 205.099602 466.769883 
L 214.565737 466.498 
L 217.721116 466.206389 
L 224.031873 466.013486 
L 230.342629 465.179881 
L 233.498008 464.53888 
L 236.653386 464.165177 
L 239.808765 464.097649 
L 242.964143 463.685972 
L 249.2749 463.255603 
L 252.430279 462.710069 
L 261.896414 460.472449 
L 268.207171 459.588297 
L 271.36255 459.35256 
L 274.517928 459.388665 
L 277.673307 459.055129 
L 280.828685 456.353869 
L 283.984064 454.469178 
L 287.139442 453.505762 
L 290.294821 452.094899 
L 293.450199 452.184688 
L 296.605578 452.456971 
L 299.760956 450.806525 
L 302.916335 450.757679 
L 306.071713 451.724416 
L 309.227092 453.547103 
L 312.38247 454.54509 
L 315.537849 456.733776 
L 321.848606 458.987102 
L 325.003984 459.438785 
L 331.314741 460.84539 
L 334.47012 461.17818 
L 340.780876 461.331384 
L 343.936255 462.916497 
L 347.091633 464.76649 
L 350.247012 466.30852 
L 353.40239 467.101257 
L 356.557769 467.369204 
L 359.713147 467.970362 
L 362.868526 468.278659 
L 366.023904 468.190422 
L 369.179283 468.246693 
L 372.334661 468.640665 
L 375.49004 468.727695 
L 381.800797 469.332592 
L 384.956175 469.354744 
L 388.111554 469.656192 
L 394.422311 470.953881 
L 397.577689 472.078532 
L 403.888446 475.258207 
L 410.199203 477.592413 
L 413.354582 477.935533 
L 416.50996 477.892163 
L 419.665339 477.267638 
L 422.820717 476.424499 
L 425.976096 475.885505 
L 429.131474 475.79209 
L 432.286853 475.514766 
L 435.442231 475.036108 
L 438.59761 474.274923 
L 441.752988 473.853123 
L 448.063745 472.80996 
L 451.219124 472.563838 
L 454.374502 472.200752 
L 457.52988 472.096942 
L 463.840637 471.729898 
L 466.996016 471.652064 
L 470.151394 471.858898 
L 473.306773 471.918321 
L 479.61753 472.842635 
L 482.772908 472.903444 
L 489.083665 472.678104 
L 492.239044 472.357287 
L 495.394422 471.712094 
L 498.549801 472.585471 
L 501.705179 472.698846 
L 504.860558 472.940623 
L 511.171315 472.514842 
L 520.63745 472.017921 
L 523.792829 471.700969 
L 526.948207 471.594976 
L 530.103586 471.285891 
L 533.258964 470.733815 
L 536.414343 470.058192 
L 545.880478 468.740901 
L 549.035857 468.476695 
L 558.501992 469.245211 
L 567.968127 471.552067 
L 571.123506 472.604377 
L 574.278884 473.226208 
L 580.589641 475.130326 
L 586.900398 476.066022 
L 590.055777 476.087633 
L 593.211155 475.929939 
L 602.677291 476.812901 
L 612.143426 477.386911 
L 615.298805 477.854272 
L 624.76494 478.826984 
L 627.920319 479.646788 
L 631.075697 480.337012 
L 634.231076 481.426952 
L 637.386454 482.72405 
L 640.541833 483.464065 
L 646.85259 484.295995 
L 650.007968 485.100605 
L 656.318725 487.052187 
L 659.474104 487.764821 
L 662.629482 488.33101 
L 665.784861 488.515358 
L 668.940239 488.860108 
L 672.095618 488.798359 
L 675.250996 488.587816 
L 678.406375 488.224825 
L 681.561753 488.317001 
L 687.87251 487.885958 
L 697.338645 486.45799 
L 700.494024 485.557398 
L 706.804781 484.286979 
L 709.960159 484.08488 
L 713.115538 484.055686 
L 716.270916 483.656523 
L 722.581673 482.402938 
L 725.737052 481.950528 
L 728.89243 480.839356 
L 732.047809 479.937525 
L 735.203187 479.175643 
L 747.824701 476.892095 
L 754.135458 475.215395 
L 760.446215 473.588088 
L 763.601594 472.962758 
L 766.756972 472.611654 
L 769.912351 471.74528 
L 776.223108 470.170798 
L 785.689243 468.782434 
L 788.844622 468.193107 
L 788.844622 468.193107 
" clip-path="url(#pe8bde3c1a1)" style="fill: none; stroke: #000000; stroke-width: 1.5; stroke-linecap: square"/>
   </g>
   <g id="line2d_5">
    <path d="M 0 459 
L 3.155378 459 
L 9.466135 457.182472 
L 12.621514 454.859882 
L 15.776892 455.981495 
L 22.087649 456.897186 
L 25.243028 456.448927 
L 28.398406 455.755713 
L 34.709163 453.012618 
L 37.864542 451.344852 
L 41.01992 450.461981 
L 44.175299 449.438852 
L 50.486056 448.054633 
L 53.641434 447.183865 
L 59.952191 446.579962 
L 63.10757 446.995676 
L 66.262948 447.898964 
L 69.418327 448.60071 
L 72.573705 449.426367 
L 75.729084 449.743532 
L 78.884462 450.867477 
L 88.350598 449.58079 
L 91.505976 449.477248 
L 94.661355 449.842935 
L 97.816733 450.533918 
L 100.972112 450.907104 
L 107.282869 450.895542 
L 110.438247 451.076792 
L 113.593625 450.51881 
L 116.749004 449.623603 
L 119.904382 449.4634 
L 126.215139 449.8525 
L 129.370518 450.154021 
L 132.525896 451.03188 
L 135.681275 452.050989 
L 141.992032 453.599204 
L 145.14741 453.972204 
L 151.458167 453.753636 
L 154.613546 454.131633 
L 157.768924 454.959664 
L 160.924303 456.744356 
L 164.079681 456.794399 
L 167.23506 457.413792 
L 170.390438 458.609982 
L 173.545817 459.196048 
L 183.011952 459.95618 
L 186.167331 460.757901 
L 189.322709 461.331959 
L 198.788845 463.754197 
L 211.410359 464.51988 
L 217.721116 464.626013 
L 224.031873 464.771683 
L 230.342629 464.51992 
L 236.653386 464.073615 
L 239.808765 464.048341 
L 246.119522 463.730029 
L 249.2749 463.585711 
L 252.430279 463.274864 
L 265.051793 461.545426 
L 271.36255 460.935666 
L 274.517928 460.82453 
L 277.673307 460.533092 
L 280.828685 459.92205 
L 283.984064 459.447475 
L 287.139442 459.122248 
L 290.294821 458.157301 
L 293.450199 457.716455 
L 296.605578 457.414832 
L 299.760956 456.154582 
L 302.916335 455.693572 
L 306.071713 455.798455 
L 309.227092 456.420923 
L 312.38247 456.712125 
L 315.537849 457.685286 
L 325.003984 459.16488 
L 331.314741 459.974332 
L 334.47012 460.220765 
L 340.780876 460.45666 
L 343.936255 461.356675 
L 350.247012 463.450516 
L 353.40239 464.102217 
L 356.557769 464.490605 
L 359.713147 465.041803 
L 362.868526 465.443242 
L 369.179283 465.872838 
L 372.334661 466.273712 
L 378.645418 466.84226 
L 381.800797 467.189126 
L 384.956175 467.375495 
L 388.111554 467.692447 
L 394.422311 468.699358 
L 397.577689 469.468048 
L 407.043825 472.518387 
L 410.199203 473.440469 
L 413.354582 473.961774 
L 416.50996 474.267775 
L 419.665339 474.241501 
L 425.976096 473.965952 
L 429.131474 474.076607 
L 432.286853 474.074917 
L 435.442231 473.945309 
L 438.59761 473.63854 
L 444.908367 473.208424 
L 451.219124 472.833856 
L 454.374502 472.625763 
L 470.151394 472.26079 
L 473.306773 472.262516 
L 482.772908 472.76254 
L 489.083665 472.673146 
L 492.239044 472.51254 
L 495.394422 472.168726 
L 498.549801 472.593121 
L 508.015936 472.688162 
L 520.63745 472.318761 
L 533.258964 471.51804 
L 539.569721 470.779859 
L 545.880478 470.128493 
L 549.035857 469.874148 
L 558.501992 469.983324 
L 564.812749 470.661055 
L 567.968127 471.104536 
L 571.123506 471.692057 
L 574.278884 472.092658 
L 583.74502 473.730568 
L 586.900398 474.10631 
L 599.521912 474.888911 
L 605.832669 475.413744 
L 612.143426 475.877164 
L 621.609562 476.866862 
L 624.76494 477.155322 
L 631.075697 478.23914 
L 634.231076 478.979811 
L 637.386454 479.857602 
L 640.541833 480.480544 
L 646.85259 481.40151 
L 650.007968 482.060411 
L 656.318725 483.602202 
L 662.629482 484.847296 
L 672.095618 485.920271 
L 684.717131 486.383061 
L 687.87251 486.394212 
L 694.183267 486.109088 
L 697.338645 485.941321 
L 703.649402 485.168905 
L 706.804781 484.834679 
L 716.270916 484.370637 
L 725.737052 483.252109 
L 732.047809 481.959316 
L 741.513944 480.393248 
L 747.824701 479.451201 
L 757.290837 477.465005 
L 763.601594 476.225747 
L 766.756972 475.776637 
L 776.223108 473.694203 
L 788.844622 471.537144 
L 788.844622 471.537144 
" clip-path="url(#pe8bde3c1a1)" style="fill: none; stroke: #000000; stroke-width: 1.5; stroke-linecap: square"/>
   </g>
   <g id="line2d_6">
    <path d="M 0 459 
L 3.155378 459 
L 9.466135 457.232415 
L 12.621514 455.034976 
L 15.776892 456.031181 
L 22.087649 456.844802 
L 25.243028 456.461485 
L 28.398406 455.865941 
L 34.709163 453.528342 
L 37.864542 452.115843 
L 47.330677 449.85196 
L 53.641434 448.445586 
L 59.952191 447.805076 
L 63.10757 448.017127 
L 66.262948 448.591892 
L 72.573705 449.588713 
L 75.729084 449.797366 
L 78.884462 450.562435 
L 88.350598 449.731181 
L 91.505976 449.654316 
L 94.661355 449.881728 
L 97.816733 450.324624 
L 100.972112 450.574742 
L 107.282869 450.602948 
L 110.438247 450.731753 
L 113.593625 450.405327 
L 116.749004 449.861991 
L 119.904382 449.751856 
L 126.215139 449.960489 
L 129.370518 450.135077 
L 141.992032 452.274977 
L 145.14741 452.556474 
L 151.458167 452.562735 
L 154.613546 452.83628 
L 157.768924 453.369741 
L 160.924303 454.457125 
L 164.079681 454.593731 
L 167.23506 455.0457 
L 173.545817 456.502487 
L 176.701195 457.066768 
L 179.856574 457.497438 
L 183.011952 458.215469 
L 186.167331 459.235789 
L 189.322709 459.620544 
L 198.788845 461.217911 
L 214.565737 462.244567 
L 230.342629 462.673837 
L 236.653386 462.587585 
L 242.964143 462.587845 
L 249.2749 462.555942 
L 255.585657 462.235355 
L 265.051793 461.606005 
L 271.36255 461.274174 
L 277.673307 461.032534 
L 283.984064 460.412448 
L 293.450199 459.815144 
L 296.605578 459.709252 
L 299.760956 459.438617 
L 306.071713 459.25682 
L 325.003984 459.640165 
L 334.47012 460.148587 
L 340.780876 460.277934 
L 343.936255 460.747542 
L 350.247012 461.894344 
L 353.40239 462.293954 
L 381.800797 464.705373 
L 388.111554 465.173579 
L 394.422311 465.909248 
L 397.577689 466.421573 
L 410.199203 469.064288 
L 416.50996 469.863938 
L 422.820717 470.120323 
L 429.131474 470.459804 
L 435.442231 470.694889 
L 451.219124 470.717421 
L 463.840637 470.75326 
L 473.306773 470.929759 
L 482.772908 471.360133 
L 492.239044 471.400838 
L 495.394422 471.272584 
L 498.549801 471.5274 
L 508.015936 471.710797 
L 523.792829 471.603338 
L 530.103586 471.503247 
L 552.191235 470.453547 
L 558.501992 470.466407 
L 567.968127 471.004791 
L 583.74502 472.477759 
L 590.055777 472.871632 
L 593.211155 472.966464 
L 624.76494 475.127958 
L 634.231076 476.345639 
L 637.386454 476.907603 
L 643.697211 477.71207 
L 650.007968 478.572309 
L 659.474104 480.173902 
L 665.784861 481.027147 
L 672.095618 481.741152 
L 684.717131 482.666461 
L 691.027888 482.930196 
L 697.338645 483.034351 
L 706.804781 482.80803 
L 716.270916 482.816461 
L 725.737052 482.414826 
L 735.203187 481.533435 
L 747.824701 480.459394 
L 757.290837 479.280557 
L 788.844622 475.118247 
L 788.844622 475.118247 
" clip-path="url(#pe8bde3c1a1)" style="fill: none; stroke: #000000; stroke-width: 1.5; stroke-linecap: square"/>
   </g>
   <g id="line2d_7">
    <path d="M 0 459 
L 3.155378 459 
L 9.466135 457.25742 
L 12.621514 455.121901 
L 15.776892 456.059069 
L 22.087649 456.822958 
L 25.243028 456.469255 
L 28.398406 455.919635 
L 34.709163 453.776563 
L 37.864542 452.488915 
L 47.330677 450.391578 
L 53.641434 449.103323 
L 59.952191 448.476461 
L 63.10757 448.612219 
L 69.418327 449.393921 
L 72.573705 449.819847 
L 75.729084 449.975794 
L 78.884462 450.578325 
L 91.505976 449.846817 
L 94.661355 450.013138 
L 97.816733 450.345602 
L 100.972112 450.534323 
L 110.438247 450.656234 
L 113.593625 450.418598 
L 116.749004 450.020258 
L 119.904382 449.934107 
L 129.370518 450.192242 
L 145.14741 451.935059 
L 151.458167 451.980225 
L 154.613546 452.185389 
L 157.768924 452.567362 
L 160.924303 453.324698 
L 164.079681 453.452026 
L 167.23506 453.788746 
L 173.545817 454.835956 
L 183.011952 456.115687 
L 186.167331 457.142128 
L 189.322709 457.960119 
L 192.478088 459.024513 
L 198.788845 459.770486 
L 214.565737 460.629145 
L 230.342629 461.114057 
L 242.964143 461.219627 
L 252.430279 461.233425 
L 280.828685 460.393998 
L 290.294821 459.976734 
L 309.227092 459.585847 
L 318.693227 459.663963 
L 328.159363 459.846175 
L 334.47012 460.028433 
L 340.780876 460.106405 
L 347.091633 460.703688 
L 353.40239 461.266758 
L 391.266932 463.458232 
L 397.577689 464.032445 
L 413.354582 466.019643 
L 419.665339 466.456174 
L 429.131474 466.918271 
L 435.442231 467.200137 
L 470.151394 468.052032 
L 476.462151 468.289812 
L 482.772908 468.554062 
L 492.239044 468.754999 
L 495.394422 468.745475 
L 501.705179 469.030232 
L 508.015936 469.19586 
L 526.948207 469.434202 
L 536.414343 469.340705 
L 552.191235 469.15076 
L 561.657371 469.314902 
L 571.123506 469.759057 
L 577.434263 470.102774 
L 586.900398 470.671875 
L 605.832669 471.484562 
L 618.454183 472.135457 
L 627.920319 472.737978 
L 634.231076 473.287715 
L 640.541833 473.935596 
L 650.007968 474.782483 
L 662.629482 476.185042 
L 675.250996 477.2555 
L 694.183267 478.363747 
L 700.494024 478.535768 
L 725.737052 478.947021 
L 754.135458 478.073796 
L 776.223108 476.729134 
L 788.844622 475.871333 
L 788.844622 475.871333 
" clip-path="url(#pe8bde3c1a1)" style="fill: none; stroke: #000000; stroke-width: 1.5; stroke-linecap: square"/>
   </g>
   <g id="line2d_8">
    <path d="M 0 459 
L 3.155378 459 
L 9.466135 457.269927 
L 12.621514 455.165178 
L 15.776892 456.073745 
L 22.087649 456.81318 
L 25.243028 456.473589 
L 28.398406 455.94615 
L 34.709163 453.897761 
L 37.864542 452.671309 
L 47.330677 450.661058 
L 53.641434 449.434716 
L 59.952191 448.82171 
L 63.10757 448.92582 
L 72.573705 449.971743 
L 75.729084 450.103443 
L 78.884462 450.631597 
L 91.505976 449.975639 
L 94.661355 450.114665 
L 97.816733 450.397432 
L 100.972112 450.557482 
L 110.438247 450.65867 
L 113.593625 450.458236 
L 116.749004 450.12256 
L 119.904382 450.047286 
L 129.370518 450.25182 
L 145.14741 451.684547 
L 151.458167 451.734222 
L 154.613546 451.904457 
L 157.768924 452.215438 
L 160.924303 452.824214 
L 164.079681 452.937185 
L 167.23506 453.214492 
L 173.545817 454.063072 
L 183.011952 455.112124 
L 186.167331 455.923351 
L 189.322709 456.576726 
L 195.633466 458.416916 
L 198.788845 459.076609 
L 217.721116 459.897773 
L 227.187251 460.193438 
L 249.2749 460.453239 
L 258.741036 460.324837 
L 312.38247 459.43841 
L 340.780876 459.818526 
L 362.868526 461.022184 
L 378.645418 461.62216 
L 394.422311 462.355213 
L 400.733068 462.862443 
L 413.354582 463.949881 
L 419.665339 464.281153 
L 454.374502 465.355597 
L 520.63745 467.047421 
L 539.569721 467.169755 
L 555.346614 467.23315 
L 564.812749 467.449604 
L 580.589641 468.093598 
L 599.521912 468.752352 
L 627.920319 469.913816 
L 637.386454 470.524144 
L 659.474104 472.041587 
L 672.095618 472.88367 
L 691.027888 473.852986 
L 703.649402 474.257773 
L 728.89243 474.804811 
L 750.98008 474.777749 
L 773.067729 474.346931 
L 788.844622 473.894287 
L 788.844622 473.894287 
" clip-path="url(#pe8bde3c1a1)" style="fill: none; stroke: #000000; stroke-width: 1.5; stroke-linecap: square"/>
   </g>
   <g id="line2d_9">
    <path d="M 0 459 
L 3.155378 459 
L 9.466135 457.27618 
L 12.621514 455.186767 
L 15.776892 456.081261 
L 22.087649 456.808583 
L 25.243028 456.475876 
L 28.398406 455.959328 
L 34.709163 453.957576 
L 37.864542 452.76135 
L 47.330677 450.795349 
L 53.641434 449.60048 
L 59.952191 448.995974 
L 63.10757 449.085841 
L 72.573705 450.05624 
L 75.729084 450.176507 
L 78.884462 450.669449 
L 91.505976 450.04855 
L 94.661355 450.174875 
L 97.816733 450.434396 
L 100.972112 450.580859 
L 110.438247 450.671507 
L 113.593625 450.487938 
L 116.749004 450.181024 
L 123.059761 450.144207 
L 129.370518 450.291084 
L 145.14741 451.579207 
L 151.458167 451.628407 
L 154.613546 451.781662 
L 157.768924 452.059297 
L 160.924303 452.599554 
L 164.079681 452.703874 
L 167.23506 452.952292 
L 173.545817 453.70662 
L 183.011952 454.642478 
L 186.167331 455.353932 
L 189.322709 455.929281 
L 198.788845 458.253477 
L 205.099602 459.029897 
L 220.876494 459.594837 
L 230.342629 459.808196 
L 258.741036 459.938202 
L 315.537849 459.320605 
L 331.314741 459.508977 
L 343.936255 459.744432 
L 353.40239 460.227566 
L 394.422311 461.642467 
L 403.888446 462.27182 
L 416.50996 463.051397 
L 438.59761 463.748405 
L 492.239044 465.001393 
L 498.549801 465.147065 
L 520.63745 465.583293 
L 542.7251 465.756479 
L 558.501992 465.895806 
L 577.434263 466.426785 
L 590.055777 466.826004 
L 608.988048 467.35372 
L 627.920319 467.99441 
L 643.697211 468.742464 
L 656.318725 469.410615 
L 675.250996 470.358654 
L 700.494024 471.264992 
L 728.89243 471.876576 
L 754.135458 472.000088 
L 782.533865 471.761701 
L 788.844622 471.673444 
L 788.844622 471.673444 
" clip-path="url(#pe8bde3c1a1)" style="fill: none; stroke: #000000; stroke-width: 1.5; stroke-linecap: square"/>
   </g>
  </g>
 </g>
 <defs>
  <clipPath id="pe8bde3c1a1">
   <rect x="0" y="0" width="792" height="612"/>
  </clipPath>
 </defs>
</svg>
