<?xml version="1.0" encoding="utf-8" standalone="no"?>
<!DOCTYPE svg PUBLIC "-//W3C//DTD SVG 1.1//EN"
  "http://www.w3.org/Graphics/SVG/1.1/DTD/svg11.dtd">
<svg xmlns:xlink="http://www.w3.org/1999/xlink" width="792pt" height="612pt" viewBox="0 0 792 612" xmlns="http://www.w3.org/2000/svg" version="1.1">
 <metadata>
  <rdf:RDF xmlns:dc="http://purl.org/dc/elements/1.1/" xmlns:cc="http://creativecommons.org/ns#" xmlns:rdf="http://www.w3.org/1999/02/22-rdf-syntax-ns#">
   <cc:Work>
    <dc:type rdf:resource="http://purl.org/dc/dcmitype/StillImage"/>
    <dc:date>2023-01-30T17:17:10.865001</dc:date>
    <dc:format>image/svg+xml</dc:format>
    <dc:creator>
     <cc:Agent>
      <dc:title>Matplotlib v3.6.2, https://matplotlib.org/</dc:title>
     </cc:Agent>
    </dc:creator>
   </cc:Work>
  </rdf:RDF>
 </metadata>
 <defs>
  <style type="text/css">*{stroke-linejoin: round; stroke-linecap: butt}</style>
 </defs>
 <g id="figure_1">
  <g id="patch_1">
   <path d="M 0 612 
L 792 612 
L 792 0 
L 0 0 
z
" style="fill: #ffffff"/>
  </g>
  <g id="axes_1">
   <g id="line2d_1">
    <path d="M 0 459 
L 3.168 460.669436 
L 6.336 461.987911 
L 9.504 461.058338 
L 12.672 459.758834 
L 15.84 459.806262 
L 19.008 460.479727 
L 22.176 455.300762 
L 25.344 450.919248 
L 28.512 458.345506 
L 31.68 459.929572 
L 38.016 460.612523 
L 41.184 462.917483 
L 44.352 463.752201 
L 47.52 463.325356 
L 50.688 463.249473 
L 53.856 462.120707 
L 57.024 460.403844 
L 60.192 460.32796 
L 66.528 464.06522 
L 69.696 468.049101 
L 72.864 461.902542 
L 76.032 464.131618 
L 79.2 466.578859 
L 85.536 465.582889 
L 88.704 464.843025 
L 91.872 467.024675 
L 95.04 472.76336 
L 98.208 470.885245 
L 101.376 474.518165 
L 104.544 476.149659 
L 107.712 474.413825 
L 110.88 469.46243 
L 114.048 469.946187 
L 117.216 469.500372 
L 120.384 469.576255 
L 123.552 469.035586 
L 126.72 467.935276 
L 129.888 468.940732 
L 133.056 468.69411 
L 136.224 467.03416 
L 139.392 466.03819 
L 142.56 464.539492 
L 145.728 465.554433 
L 148.896 467.062616 
L 152.064 464.890453 
L 155.232 465.848481 
L 158.4 465.336268 
L 161.568 463.239988 
L 164.736 461.314445 
L 167.904 460.138252 
L 171.072 460.716863 
L 174.24 461.172164 
L 177.408 460.745319 
L 180.576 461.589523 
L 183.744 463.021823 
L 186.912 460.792746 
L 190.08 452.313244 
L 193.248 455.272308 
L 196.416 459.047427 
L 199.584 455.443035 
L 202.752 460.4323 
L 205.92 460.840174 
L 209.088 452.996065 
L 212.256 459.711407 
L 218.592 463.828084 
L 221.76 462.73726 
L 224.928 465.488035 
L 228.096 464.027278 
L 231.264 464.39721 
L 234.432 465.175015 
L 237.6 467.242839 
L 240.768 467.830936 
L 247.104 464.861996 
L 250.272 465.279355 
L 253.44 474.423311 
L 256.608 477.591445 
L 259.776 477.506076 
L 262.944 474.413825 
L 266.112 471.966584 
L 269.28 474.262058 
L 272.448 473.057409 
L 275.616 470.932672 
L 278.784 471.729448 
L 281.952 473.854185 
L 285.12 472.364972 
L 288.288 473.617049 
L 291.456 474.157719 
L 294.624 472.621079 
L 297.792 474.356913 
L 300.96 476.842095 
L 304.128 477.354309 
L 307.296 480.958772 
L 310.464 485.046993 
L 313.632 486.308555 
L 316.8 485.540236 
L 319.968 486.450837 
L 323.136 482.647179 
L 326.304 480.626782 
L 329.472 477.022319 
L 332.64 475.077805 
L 335.808 476.121203 
L 338.976 478.331308 
L 342.144 477.117173 
L 345.312 475.608989 
L 348.48 473.408369 
L 351.648 474.745815 
L 354.816 473.465282 
L 357.984 473.512709 
L 361.152 474.442281 
L 364.32 473.474768 
L 367.488 474.698388 
L 370.656 473.797272 
L 373.824 474.205146 
L 376.992 474.394854 
L 380.16 476.06429 
L 383.328 475.371854 
L 386.496 477.733726 
L 389.664 478.47359 
L 392.832 476.339368 
L 396 475.419281 
L 399.168 475.153689 
L 402.336 473.854185 
L 405.504 471.55871 
L 408.672 480.23788 
L 411.84 476.453193 
L 415.008 477.354309 
L 418.176 474.575077 
L 421.344 474.793242 
L 424.512 474.726844 
L 427.68 474.205146 
L 430.848 474.52765 
L 434.016 473.228146 
L 437.184 474.214631 
L 440.352 472.877185 
L 443.52 471.084439 
L 446.688 469.784935 
L 449.856 470.43943 
L 453.024 469.936702 
L 456.192 469.974644 
L 459.36 470.354061 
L 462.528 473.085865 
L 465.696 473.683447 
L 468.864 473.797272 
L 472.032 477.031804 
L 475.2 477.60093 
L 478.368 479.03323 
L 481.536 481.157967 
L 484.704 479.545443 
L 487.872 481.89783 
L 491.04 483.349101 
L 494.208 481.404588 
L 497.376 481.23385 
L 500.544 479.241909 
L 503.712 478.16057 
L 506.88 480.930316 
L 510.048 480.617297 
L 513.216 481.632238 
L 516.384 480.835462 
L 519.552 481.110539 
L 522.72 481.575325 
L 525.888 483.254247 
L 529.056 482.798946 
L 532.224 483.396528 
L 535.392 483.273218 
L 538.56 486.811283 
L 541.728 486.811283 
L 544.896 489.922505 
L 548.064 492.246435 
L 551.232 490.102728 
L 554.4 488.594544 
L 557.568 489.448233 
L 560.736 492.02827 
L 563.904 494.124551 
L 567.072 494.608308 
L 570.24 494.162492 
L 573.408 493.972784 
L 576.576 492.189523 
L 579.744 493.356231 
L 582.912 491.212523 
L 586.08 490.235524 
L 589.248 489.106758 
L 592.416 491.544513 
L 595.584 490.03633 
L 598.752 489.286981 
L 601.92 487.873652 
L 605.088 487.000992 
L 608.256 486.906138 
L 611.424 483.738004 
L 614.592 484.259702 
L 617.76 484.060508 
L 620.928 485.900682 
L 624.096 486.763856 
L 627.264 484.477867 
L 630.432 482.523869 
L 633.6 482.22982 
L 636.768 482.542839 
L 639.936 478.084687 
L 643.104 478.283881 
L 646.272 478.274396 
L 649.44 478.739182 
L 652.608 477.553503 
L 655.776 478.378735 
L 662.112 475.049349 
L 665.28 473.873156 
L 668.448 473.085865 
L 671.616 472.829758 
L 674.784 472.943583 
L 677.952 474.005952 
L 681.12 470.515313 
L 684.288 470.429944 
L 687.456 469.139926 
L 690.624 470.581711 
L 693.792 470.401488 
L 700.128 468.46646 
L 703.296 468.845877 
L 706.464 467.375635 
L 709.632 467.5938 
L 712.8 467.024675 
L 715.968 468.665654 
L 719.136 469.301178 
L 725.472 469.282207 
L 728.64 467.973218 
L 734.976 467.233354 
L 738.144 465.971792 
L 741.312 467.859392 
L 744.48 467.26181 
L 747.648 468.23881 
L 750.816 468.229324 
L 753.984 467.603286 
L 757.152 469.396032 
L 760.32 466.000248 
L 763.488 467.783509 
L 766.656 467.92579 
L 769.824 469.092498 
L 772.992 469.89876 
L 776.16 468.883819 
L 779.328 469.301178 
L 785.664 476.908493 
L 788.832 476.386795 
L 788.832 476.386795 
" clip-path="url(#p4fe85b2628)" style="fill: none; stroke: #000000; stroke-width: 1.5; stroke-linecap: square"/>
   </g>
   <g id="line2d_2">
    <path d="M 0 459 
L 3.168 459 
L 9.504 461.184359 
L 12.672 461.117148 
L 15.84 460.416083 
L 19.008 460.106332 
L 22.176 460.2945 
L 25.344 459.025741 
L 28.512 454.982074 
L 31.68 456.652655 
L 34.848 459.069523 
L 38.016 459.668741 
L 41.184 460.142306 
L 44.352 461.535995 
L 47.52 462.650515 
L 50.688 462.998834 
L 53.856 463.137768 
L 57.024 462.635784 
L 60.192 461.520744 
L 63.36 460.924464 
L 66.528 461.563633 
L 69.696 462.816677 
L 72.864 465.441314 
L 76.032 463.669138 
L 79.2 463.902108 
L 82.368 465.249225 
L 85.536 465.697607 
L 88.704 465.650552 
L 91.872 465.251978 
L 95.04 466.144129 
L 98.208 469.462988 
L 101.376 470.19173 
L 104.544 472.375313 
L 107.712 474.281252 
L 110.88 474.363794 
L 114.048 471.920719 
L 117.216 470.943459 
L 120.384 470.22677 
L 126.72 469.461798 
L 129.888 468.685629 
L 133.056 468.799045 
L 136.224 468.735363 
L 142.56 466.951432 
L 145.728 465.735735 
L 148.896 465.637198 
L 152.064 466.346038 
L 155.232 465.612275 
L 158.4 465.724315 
L 161.568 465.523707 
L 164.736 464.374408 
L 167.904 462.835164 
L 171.072 461.478078 
L 174.24 461.087985 
L 177.408 461.118524 
L 180.576 460.923794 
L 183.744 461.248308 
L 186.912 462.130527 
L 190.08 461.456838 
L 193.248 459.104972 
L 196.416 457.279574 
L 199.584 458.201104 
L 202.752 456.802298 
L 205.92 459.34925 
L 209.088 460.093242 
L 212.256 457.602298 
L 215.424 459.120632 
L 218.592 460.454991 
L 221.76 462.153441 
L 224.928 462.452585 
L 228.096 463.985356 
L 231.264 464.013366 
L 234.432 464.212263 
L 237.6 464.709671 
L 240.768 465.991023 
L 243.936 466.922864 
L 247.104 466.608655 
L 250.272 465.739492 
L 253.44 465.509014 
L 256.608 469.986547 
L 259.776 473.814867 
L 262.944 475.68465 
L 266.112 475.063298 
L 269.28 473.52305 
L 272.448 473.908196 
L 275.616 473.498872 
L 278.784 472.226857 
L 281.952 471.97287 
L 285.12 472.9062 
L 288.288 472.625505 
L 294.624 473.643013 
L 297.792 473.128828 
L 300.96 473.745418 
L 304.128 475.305344 
L 307.296 476.340856 
L 310.464 478.663745 
L 313.632 481.880236 
L 316.8 484.119281 
L 323.136 485.678574 
L 326.304 484.179132 
L 329.472 482.410378 
L 332.64 479.715697 
L 335.808 477.38522 
L 338.976 476.73571 
L 342.144 477.517867 
L 345.312 477.301004 
L 348.48 476.433738 
L 351.648 474.902939 
L 354.816 474.812846 
L 357.984 474.132089 
L 361.152 473.81933 
L 364.32 474.127514 
L 367.488 473.791618 
L 370.656 474.24026 
L 373.824 474.015214 
L 380.16 474.25261 
L 383.328 475.163546 
L 386.496 475.271345 
L 389.664 476.508989 
L 392.832 477.501091 
L 396 476.923447 
L 399.168 476.174544 
L 402.336 475.665976 
L 405.504 474.75902 
L 408.672 473.150031 
L 411.84 476.703497 
L 415.008 476.575834 
L 418.176 476.962877 
L 421.344 475.765518 
L 424.512 475.278153 
L 427.68 475.001662 
L 430.848 474.604092 
L 434.016 474.571692 
L 437.184 473.886175 
L 440.352 474.046014 
L 443.52 473.452821 
L 449.856 471.01354 
L 459.36 470.137905 
L 462.528 470.240347 
L 465.696 471.660893 
L 468.864 472.673751 
L 472.032 473.240831 
L 475.2 475.150527 
L 481.536 477.729337 
L 484.704 479.46558 
L 487.872 479.523534 
L 491.04 480.72796 
L 494.208 482.057483 
L 500.544 481.49814 
L 506.88 479.265195 
L 510.048 480.097309 
L 513.216 480.359405 
L 516.384 480.995301 
L 519.552 480.910453 
L 522.72 481.009919 
L 525.888 481.293292 
L 529.056 482.281637 
L 532.224 482.549386 
L 535.392 482.977793 
L 538.56 483.130713 
L 541.728 484.981153 
L 544.896 485.907936 
L 548.064 487.932498 
L 551.232 490.110391 
L 554.4 490.119988 
L 557.568 489.36863 
L 560.736 489.420298 
L 563.904 490.741451 
L 567.072 492.44734 
L 570.24 493.543112 
L 573.408 493.861116 
L 576.576 493.920335 
L 579.744 493.05902 
L 582.912 493.216962 
L 592.416 490.155214 
L 595.584 490.843856 
L 598.752 490.432002 
L 601.92 489.850304 
L 608.256 487.914792 
L 611.424 487.402021 
L 614.592 485.557272 
L 617.76 484.898983 
L 620.928 484.465071 
L 627.264 485.964365 
L 630.432 485.214458 
L 633.6 483.860384 
L 636.768 483.035933 
L 639.936 482.787043 
L 643.104 480.423757 
L 646.272 479.342492 
L 649.44 478.79349 
L 652.608 478.750601 
L 655.776 478.138475 
L 658.944 478.250477 
L 662.112 477.497632 
L 668.448 475.057719 
L 671.616 474.0616 
L 674.784 473.435003 
L 677.952 473.177929 
L 681.12 473.584985 
L 684.288 472.03473 
L 687.456 471.219913 
L 690.624 470.168332 
L 693.792 470.368568 
L 696.96 470.379764 
L 700.128 469.928779 
L 703.296 469.188841 
L 706.464 469.007241 
L 709.632 468.185282 
L 712.8 467.88398 
L 715.968 467.45018 
L 722.304 468.675511 
L 725.472 469.007018 
L 728.64 469.146212 
L 731.808 468.558004 
L 738.144 467.666038 
L 741.312 466.816851 
L 744.48 467.336541 
L 747.648 467.295177 
L 750.816 467.764836 
L 753.984 467.995015 
L 757.152 467.798425 
L 760.32 468.60067 
L 763.488 467.298041 
L 769.824 467.735189 
L 776.16 469.161352 
L 779.328 469.023869 
L 782.496 469.165852 
L 785.664 471.152139 
L 788.832 474.051705 
L 788.832 474.051705 
" clip-path="url(#p4fe85b2628)" style="fill: none; stroke: #000000; stroke-width: 1.5; stroke-linecap: square"/>
   </g>
   <g id="line2d_3">
    <path d="M 0 459 
L 3.168 459 
L 9.504 460.888617 
L 12.672 460.954898 
L 15.84 460.529352 
L 19.008 460.287308 
L 22.176 460.349131 
L 25.344 459.54239 
L 28.512 457.652062 
L 31.68 457.861718 
L 34.848 459.012633 
L 41.184 459.750003 
L 47.52 461.588382 
L 50.688 462.099125 
L 53.856 462.440935 
L 57.024 462.348809 
L 60.192 461.777323 
L 63.36 461.351975 
L 66.528 461.602157 
L 69.696 462.328464 
L 72.864 464.012694 
L 76.032 463.399395 
L 79.2 463.622846 
L 82.368 464.497598 
L 85.536 464.980945 
L 88.704 465.163352 
L 91.872 465.07439 
L 95.04 465.650332 
L 98.208 467.74404 
L 101.376 468.672761 
L 107.712 472.098582 
L 110.88 472.792793 
L 114.048 471.827844 
L 120.384 470.768976 
L 126.72 470.023691 
L 129.888 469.416377 
L 136.224 469.111191 
L 139.392 468.50451 
L 142.56 467.783514 
L 145.728 466.830508 
L 148.896 466.448474 
L 152.064 466.623961 
L 155.232 466.10517 
L 158.4 466.018156 
L 161.568 465.808009 
L 164.736 465.048706 
L 171.072 462.819312 
L 174.24 462.193343 
L 180.576 461.543089 
L 183.744 461.548245 
L 186.912 461.973331 
L 190.08 461.620377 
L 193.248 460.189361 
L 196.416 459.469268 
L 199.584 459.33824 
L 202.752 458.643816 
L 205.92 459.330437 
L 209.088 459.766876 
L 212.256 458.839447 
L 215.424 459.166471 
L 218.592 459.929475 
L 221.76 461.07559 
L 224.928 461.564602 
L 228.096 462.718706 
L 237.6 463.984046 
L 243.936 465.803635 
L 247.104 465.954362 
L 250.272 465.641094 
L 253.44 465.543718 
L 256.608 468.16056 
L 259.776 470.942043 
L 262.944 472.888159 
L 266.112 473.351903 
L 269.28 472.957865 
L 272.448 473.351839 
L 275.616 473.277456 
L 278.784 472.596938 
L 281.952 472.351703 
L 285.12 472.802632 
L 288.288 472.682703 
L 294.624 473.320678 
L 297.792 473.123048 
L 300.96 473.495345 
L 304.128 474.488866 
L 307.296 475.331501 
L 310.464 476.983559 
L 313.632 479.353945 
L 316.8 481.404566 
L 323.136 483.764134 
L 326.304 483.448 
L 329.472 482.632819 
L 335.808 479.263738 
L 338.976 478.347625 
L 342.144 478.348261 
L 345.312 477.991083 
L 348.48 477.296816 
L 351.648 476.156827 
L 354.816 475.741143 
L 357.984 475.070092 
L 361.152 474.605393 
L 364.32 474.545438 
L 367.488 474.217105 
L 370.656 474.345617 
L 373.824 474.170476 
L 380.16 474.229361 
L 383.328 474.765699 
L 386.496 474.943575 
L 392.832 476.556825 
L 396 476.49224 
L 402.336 475.879821 
L 405.504 475.285502 
L 408.672 474.19176 
L 411.84 475.970352 
L 415.008 476.114082 
L 418.176 476.481792 
L 421.344 475.923187 
L 430.848 475.007515 
L 434.016 474.865201 
L 437.184 474.383256 
L 440.352 474.329825 
L 443.52 473.897929 
L 446.688 473.067841 
L 449.856 472.099828 
L 456.192 471.114055 
L 459.36 470.77851 
L 462.528 470.642839 
L 468.864 472.032428 
L 472.032 472.548446 
L 475.2 473.864162 
L 481.536 476.159937 
L 484.704 477.631441 
L 487.872 478.199296 
L 494.208 480.491899 
L 497.376 480.771073 
L 500.544 480.919767 
L 503.712 480.438445 
L 506.88 479.780717 
L 510.048 480.13001 
L 513.216 480.284522 
L 516.384 480.689075 
L 522.72 480.857046 
L 525.888 481.072644 
L 529.056 481.718114 
L 538.56 482.687751 
L 541.728 483.901149 
L 544.896 484.757484 
L 548.064 486.280067 
L 551.232 488.040225 
L 554.4 488.656793 
L 557.568 488.650545 
L 560.736 488.893966 
L 563.904 489.825089 
L 567.072 491.098721 
L 570.24 492.142475 
L 573.408 492.749116 
L 576.576 493.121759 
L 579.744 492.858977 
L 582.912 493.016745 
L 586.08 492.497278 
L 589.248 491.842823 
L 592.416 491.044084 
L 595.584 491.196093 
L 598.752 490.856537 
L 601.92 490.393425 
L 608.256 488.874302 
L 611.424 488.29492 
L 614.592 486.950708 
L 617.76 486.1512 
L 620.928 485.526735 
L 624.096 485.626772 
L 627.264 485.951536 
L 630.432 485.511051 
L 633.6 484.623683 
L 636.768 483.91222 
L 639.936 483.502302 
L 643.104 481.902859 
L 646.272 480.827654 
L 649.44 480.066312 
L 652.608 479.665489 
L 655.776 479.035049 
L 658.944 478.832916 
L 662.112 478.215945 
L 674.784 474.578575 
L 677.952 474.083823 
L 681.12 474.048987 
L 684.288 473.000205 
L 687.456 472.233839 
L 690.624 471.312258 
L 696.96 470.879051 
L 700.128 470.462378 
L 703.296 469.865988 
L 706.464 469.557203 
L 709.632 468.905599 
L 715.968 468.06634 
L 719.136 468.235893 
L 725.472 468.772565 
L 728.64 468.91763 
L 738.144 468.012189 
L 741.312 467.410932 
L 744.48 467.539156 
L 747.648 467.454317 
L 753.984 467.842496 
L 757.152 467.771006 
L 760.32 468.249286 
L 763.488 467.588727 
L 769.824 467.727558 
L 772.992 468.1271 
L 776.16 468.64665 
L 782.496 468.888678 
L 785.664 470.135416 
L 788.832 472.130317 
L 788.832 472.130317 
" clip-path="url(#p4fe85b2628)" style="fill: none; stroke: #000000; stroke-width: 1.5; stroke-linecap: square"/>
   </g>
   <g id="line2d_4">
    <path d="M 0 459 
L 3.168 459 
L 9.504 460.723598 
L 12.672 460.830115 
L 15.84 460.536018 
L 19.008 460.35641 
L 22.176 460.384331 
L 25.344 459.829073 
L 28.512 459.119363 
L 31.68 459.05413 
L 41.184 459.623192 
L 50.688 461.236061 
L 53.856 461.574172 
L 57.024 461.665148 
L 63.36 461.271341 
L 66.528 461.422524 
L 69.696 461.852487 
L 72.864 462.857057 
L 76.032 462.70278 
L 79.2 462.93314 
L 82.368 463.519667 
L 85.536 463.937841 
L 88.704 464.201635 
L 91.872 464.304357 
L 95.04 464.739574 
L 98.208 466.022145 
L 101.376 466.798916 
L 107.712 469.337209 
L 110.88 470.152669 
L 117.216 470.038236 
L 126.72 469.772472 
L 129.888 469.487423 
L 136.224 469.298861 
L 142.56 468.484017 
L 145.728 467.857441 
L 148.896 467.492148 
L 152.064 467.42614 
L 155.232 467.023727 
L 161.568 466.603044 
L 164.736 466.069786 
L 174.24 463.882524 
L 180.576 463.018269 
L 183.744 462.787837 
L 186.912 462.82313 
L 190.08 462.4971 
L 193.248 461.581008 
L 196.416 460.966878 
L 199.584 460.652928 
L 202.752 460.19314 
L 209.088 460.31114 
L 212.256 459.773233 
L 215.424 459.757312 
L 218.592 460.072396 
L 221.76 460.666401 
L 224.928 460.991615 
L 228.096 461.704798 
L 237.6 462.872122 
L 243.936 464.247072 
L 247.104 464.572372 
L 253.44 464.722128 
L 256.608 466.271569 
L 259.776 468.079929 
L 262.944 469.587256 
L 266.112 470.362152 
L 269.28 470.624069 
L 272.448 471.211699 
L 275.616 471.513057 
L 278.784 471.426806 
L 281.952 471.481811 
L 285.12 471.866916 
L 288.288 471.951988 
L 294.624 472.543272 
L 297.792 472.564926 
L 300.96 472.859589 
L 307.296 474.128075 
L 310.464 475.227416 
L 316.8 478.335534 
L 323.136 480.617209 
L 326.304 480.952607 
L 329.472 480.910212 
L 332.64 480.299743 
L 335.808 479.475578 
L 338.976 478.948714 
L 342.144 478.857401 
L 345.312 478.586319 
L 348.48 478.118433 
L 351.648 477.374377 
L 354.816 476.96207 
L 361.152 475.942383 
L 364.32 475.7018 
L 367.488 475.346885 
L 370.656 475.245411 
L 376.992 474.886628 
L 380.16 474.810545 
L 383.328 475.012725 
L 386.496 475.07081 
L 392.832 475.974322 
L 396 476.033764 
L 402.336 475.813494 
L 405.504 475.499897 
L 408.672 474.869224 
L 411.84 475.722947 
L 415.008 475.833769 
L 418.176 476.070106 
L 424.512 475.653906 
L 434.016 475.168168 
L 437.184 474.85835 
L 440.352 474.754742 
L 443.52 474.452613 
L 446.688 473.912961 
L 449.856 473.252543 
L 459.36 471.964897 
L 462.528 471.706636 
L 472.032 472.457857 
L 481.536 474.712799 
L 484.704 475.741426 
L 487.872 476.349263 
L 494.208 478.21053 
L 500.544 479.125168 
L 503.712 479.146293 
L 506.88 478.992148 
L 516.384 479.855239 
L 525.888 480.416332 
L 529.056 480.873175 
L 538.56 481.823996 
L 541.728 482.625351 
L 544.896 483.300042 
L 548.064 484.365453 
L 551.232 485.63336 
L 554.4 486.356721 
L 560.736 487.169929 
L 563.904 487.956432 
L 570.24 489.864093 
L 573.408 490.560691 
L 576.576 491.114137 
L 579.744 491.294337 
L 582.912 491.631328 
L 586.08 491.570968 
L 589.248 491.365164 
L 592.416 491.010342 
L 595.584 491.100444 
L 601.92 490.679101 
L 611.424 489.283269 
L 614.592 488.402945 
L 620.928 487.161115 
L 624.096 486.963565 
L 627.264 486.935028 
L 630.432 486.544848 
L 636.768 485.319474 
L 639.936 484.877246 
L 643.104 483.79108 
L 646.272 482.909545 
L 649.44 482.164808 
L 662.112 479.932651 
L 668.448 478.293685 
L 674.784 476.703 
L 677.952 476.091742 
L 681.12 475.74854 
L 684.288 474.901664 
L 690.624 473.362615 
L 700.128 472.005495 
L 703.296 471.429431 
L 706.464 471.006506 
L 709.632 470.416577 
L 715.968 469.478694 
L 719.136 469.339607 
L 728.64 469.299977 
L 738.144 468.575535 
L 741.312 468.150931 
L 757.152 467.953438 
L 760.32 468.177355 
L 763.488 467.824252 
L 769.824 467.827434 
L 782.496 468.548115 
L 785.664 469.277752 
L 788.832 470.495872 
L 788.832 470.495872 
" clip-path="url(#p4fe85b2628)" style="fill: none; stroke: #000000; stroke-width: 1.5; stroke-linecap: square"/>
   </g>
   <g id="line2d_5">
    <path d="M 0 459 
L 3.168 459 
L 9.504 460.638489 
L 12.672 460.75746 
L 19.008 460.375245 
L 22.176 460.394314 
L 25.344 459.958184 
L 28.512 459.398431 
L 31.68 459.31013 
L 41.184 459.642272 
L 50.688 460.771683 
L 53.856 461.038497 
L 57.024 461.152224 
L 63.36 460.999935 
L 66.528 461.118467 
L 69.696 461.405739 
L 72.864 462.044133 
L 76.032 462.030702 
L 79.2 462.227645 
L 85.536 462.951966 
L 95.04 463.670963 
L 98.208 464.480791 
L 101.376 465.047771 
L 110.88 467.446612 
L 123.552 468.105585 
L 129.888 468.163901 
L 136.224 468.269576 
L 142.56 467.98458 
L 148.896 467.512649 
L 152.064 467.474705 
L 158.4 467.138638 
L 161.568 466.987224 
L 164.736 466.672744 
L 177.408 464.950503 
L 183.744 464.347547 
L 186.912 464.236851 
L 190.08 463.949416 
L 193.248 463.350597 
L 196.416 462.884218 
L 205.92 462.024991 
L 209.088 461.926711 
L 212.256 461.516072 
L 215.424 461.365854 
L 218.592 461.400029 
L 237.6 462.604381 
L 243.936 463.395616 
L 247.104 463.636504 
L 253.44 463.86709 
L 256.608 464.746851 
L 262.944 466.79357 
L 266.112 467.430605 
L 269.28 467.810253 
L 272.448 468.349045 
L 275.616 468.741451 
L 281.952 469.161379 
L 285.12 469.553231 
L 291.456 470.108984 
L 294.624 470.448044 
L 297.792 470.630219 
L 300.96 470.940038 
L 307.296 471.924289 
L 310.464 472.67568 
L 319.968 475.657372 
L 323.136 476.558703 
L 326.304 477.068276 
L 329.472 477.36739 
L 332.64 477.341708 
L 338.976 477.07236 
L 345.312 477.178872 
L 348.48 477.052181 
L 351.648 476.752316 
L 357.984 476.331879 
L 364.32 475.965741 
L 367.488 475.762332 
L 383.328 475.405572 
L 386.496 475.407259 
L 396 475.89603 
L 402.336 475.808648 
L 405.504 475.651656 
L 408.672 475.31558 
L 411.84 475.730424 
L 421.344 475.823326 
L 434.016 475.462238 
L 446.688 474.679537 
L 453.024 473.957969 
L 462.528 473.07264 
L 472.032 473.17936 
L 478.368 473.841838 
L 481.536 474.275339 
L 484.704 474.849638 
L 487.872 475.241223 
L 497.376 476.842273 
L 500.544 477.209559 
L 513.216 477.974548 
L 519.552 478.48757 
L 525.888 478.94056 
L 535.392 479.907986 
L 538.56 480.189954 
L 544.896 481.249382 
L 548.064 481.973384 
L 551.232 482.83142 
L 554.4 483.440343 
L 560.736 484.340583 
L 563.904 484.984656 
L 570.24 486.491749 
L 576.576 487.708823 
L 586.08 488.757651 
L 598.752 489.210026 
L 601.92 489.220927 
L 608.256 488.942218 
L 611.424 488.778227 
L 617.76 488.023194 
L 620.928 487.69649 
L 630.432 487.242891 
L 639.936 486.149535 
L 646.272 484.885836 
L 655.776 483.355011 
L 662.112 482.434165 
L 671.616 480.492668 
L 677.952 479.281299 
L 681.12 478.842296 
L 690.624 476.806726 
L 715.968 472.621082 
L 722.304 472.036881 
L 731.808 471.289818 
L 747.648 469.825245 
L 757.152 469.388225 
L 760.32 469.382624 
L 763.488 469.094269 
L 769.824 468.881768 
L 782.496 468.973215 
L 785.664 469.311112 
L 788.832 469.937008 
L 788.832 469.937008 
" clip-path="url(#p4fe85b2628)" style="fill: none; stroke: #000000; stroke-width: 1.5; stroke-linecap: square"/>
   </g>
   <g id="line2d_6">
    <path d="M 0 459 
L 3.168 459 
L 9.504 460.595546 
L 12.672 460.718867 
L 19.008 460.379549 
L 22.176 460.395786 
L 28.512 459.528202 
L 31.68 459.438198 
L 41.184 459.676709 
L 53.856 460.787046 
L 57.024 460.891465 
L 63.36 460.816083 
L 66.528 460.914059 
L 69.696 461.131489 
L 72.864 461.596434 
L 76.032 461.616509 
L 79.2 461.777723 
L 85.536 462.327617 
L 95.04 462.915791 
L 98.208 463.480802 
L 101.376 463.899368 
L 110.88 465.636745 
L 123.552 466.414101 
L 133.056 466.737289 
L 139.392 466.84539 
L 161.568 466.481993 
L 167.904 466.092031 
L 174.24 465.574669 
L 183.744 464.991191 
L 190.08 464.712524 
L 196.416 464.050077 
L 205.92 463.410773 
L 209.088 463.295162 
L 212.256 463.012705 
L 218.592 462.816082 
L 237.6 463.172419 
L 247.104 463.668667 
L 253.44 463.789169 
L 256.608 464.25393 
L 262.944 465.388402 
L 266.112 465.781377 
L 294.624 468.129633 
L 300.96 468.583402 
L 307.296 469.301298 
L 310.464 469.802721 
L 323.136 472.387877 
L 329.472 473.162256 
L 335.808 473.402619 
L 342.144 473.724947 
L 348.48 473.944416 
L 364.32 473.940064 
L 376.992 473.957767 
L 386.496 474.121063 
L 396 474.534111 
L 405.504 474.564973 
L 408.672 474.439606 
L 411.84 474.688687 
L 421.344 474.867956 
L 437.184 474.762916 
L 443.52 474.665078 
L 465.696 473.639001 
L 472.032 473.651571 
L 481.536 474.177839 
L 497.376 475.617658 
L 503.712 476.002667 
L 506.88 476.095365 
L 538.56 478.208215 
L 548.064 479.398492 
L 551.232 479.94781 
L 557.568 480.734173 
L 563.904 481.575053 
L 573.408 483.140603 
L 579.744 483.974645 
L 586.08 484.672582 
L 598.752 485.577067 
L 605.088 485.834867 
L 611.424 485.936677 
L 620.928 485.71545 
L 630.432 485.723692 
L 639.936 485.331095 
L 649.44 484.46954 
L 662.112 483.41967 
L 671.616 482.267361 
L 709.632 477.35769 
L 719.136 476.183633 
L 753.984 473.051282 
L 766.656 472.192939 
L 772.992 471.886482 
L 785.664 471.640797 
L 788.832 471.864271 
L 788.832 471.864271 
" clip-path="url(#p4fe85b2628)" style="fill: none; stroke: #000000; stroke-width: 1.5; stroke-linecap: square"/>
   </g>
   <g id="line2d_7">
    <path d="M 0 459 
L 3.168 459 
L 9.504 460.574012 
L 12.672 460.699055 
L 19.008 460.380316 
L 22.176 460.395457 
L 28.512 459.589553 
L 31.68 459.500684 
L 41.184 459.699441 
L 53.856 460.672932 
L 57.024 460.769016 
L 66.528 460.806907 
L 69.696 460.991092 
L 72.864 461.376534 
L 76.032 461.404337 
L 82.368 461.794641 
L 88.704 462.172757 
L 95.04 462.507494 
L 110.88 464.685251 
L 126.72 465.537786 
L 142.56 465.894784 
L 148.896 465.838871 
L 155.232 465.847033 
L 164.736 465.748564 
L 186.912 464.874742 
L 190.08 464.754489 
L 196.416 464.325033 
L 215.424 463.505606 
L 224.928 463.447885 
L 253.44 463.919435 
L 259.776 464.537234 
L 266.112 465.114365 
L 304.128 467.276551 
L 310.464 467.849651 
L 326.304 469.842395 
L 332.64 470.265948 
L 342.144 470.702351 
L 348.48 470.96637 
L 380.16 471.60981 
L 405.504 472.357514 
L 408.672 472.339282 
L 415.008 472.608847 
L 421.344 472.758901 
L 440.352 472.952594 
L 449.856 472.838743 
L 465.696 472.618634 
L 475.2 472.765462 
L 484.704 473.191436 
L 491.04 473.52277 
L 500.544 474.072857 
L 519.552 474.850253 
L 535.392 475.651146 
L 541.728 476.060183 
L 548.064 476.595279 
L 554.4 477.227171 
L 563.904 478.051279 
L 579.744 479.698247 
L 586.08 480.241239 
L 601.92 481.263479 
L 611.424 481.646187 
L 624.096 481.886984 
L 630.432 482.046911 
L 643.104 481.984976 
L 665.28 481.352487 
L 684.288 480.306572 
L 750.816 475.921646 
L 776.16 474.697247 
L 785.664 474.429851 
L 788.832 474.483206 
L 788.832 474.483206 
" clip-path="url(#p4fe85b2628)" style="fill: none; stroke: #000000; stroke-width: 1.5; stroke-linecap: square"/>
   </g>
   <g id="line2d_8">
    <path d="M 0 459 
L 3.168 459 
L 6.336 459.839238 
L 9.504 460.563233 
L 12.672 460.689028 
L 19.008 460.380343 
L 22.176 460.395006 
L 28.512 459.61922 
L 31.68 459.531342 
L 41.184 459.712001 
L 53.856 460.6196 
L 60.192 460.693108 
L 66.528 460.753594 
L 69.696 460.921854 
L 72.864 461.270042 
L 79.2 461.428409 
L 88.704 461.998296 
L 95.04 462.302746 
L 110.88 464.217734 
L 126.72 465.009923 
L 142.56 465.379705 
L 155.232 465.393651 
L 164.736 465.34949 
L 221.76 463.646724 
L 231.264 463.672588 
L 240.768 463.783308 
L 250.272 463.924084 
L 253.44 463.949274 
L 275.616 465.237952 
L 291.456 465.845858 
L 307.296 466.595179 
L 313.632 467.130064 
L 326.304 468.271114 
L 332.64 468.603714 
L 364.32 469.547452 
L 386.496 470.049204 
L 402.336 470.511721 
L 415.008 470.79343 
L 424.512 470.992642 
L 443.52 471.231348 
L 472.032 471.248964 
L 487.872 471.745544 
L 506.88 472.441603 
L 538.56 473.604266 
L 551.232 474.372617 
L 573.408 475.863028 
L 586.08 476.686803 
L 605.088 477.621732 
L 617.76 477.999834 
L 643.104 478.492065 
L 668.448 478.361533 
L 693.792 477.748063 
L 712.8 477.12271 
L 725.472 476.728027 
L 747.648 476.004801 
L 782.496 475.088915 
L 788.832 475.087479 
L 788.832 475.087479 
" clip-path="url(#p4fe85b2628)" style="fill: none; stroke: #000000; stroke-width: 1.5; stroke-linecap: square"/>
   </g>
   <g id="line2d_9">
    <path d="M 0 459 
L 3.168 459 
L 6.336 459.836978 
L 9.504 460.557842 
L 12.672 460.683984 
L 19.008 460.380267 
L 22.176 460.394707 
L 28.512 459.633787 
L 31.68 459.546501 
L 41.184 459.718552 
L 53.856 460.593949 
L 60.192 460.667325 
L 66.528 460.7272 
L 69.696 460.88771 
L 72.864 461.217973 
L 79.2 461.37129 
L 88.704 461.91214 
L 95.04 462.201267 
L 110.88 463.988893 
L 126.72 464.745192 
L 142.56 465.112921 
L 155.232 465.149748 
L 164.736 465.127015 
L 221.76 463.689525 
L 234.432 463.720372 
L 253.44 463.937549 
L 275.616 465.006398 
L 291.456 465.516978 
L 307.296 466.142027 
L 316.8 466.834656 
L 326.304 467.514624 
L 332.64 467.795425 
L 367.488 468.689811 
L 437.184 470.104403 
L 449.856 470.179318 
L 472.032 470.276511 
L 487.872 470.682948 
L 510.048 471.334634 
L 538.56 472.183164 
L 560.736 473.20639 
L 598.752 475.070677 
L 614.592 475.558606 
L 643.104 476.118092 
L 668.448 476.179042 
L 696.96 475.861451 
L 753.984 474.865137 
L 782.496 474.450749 
L 788.832 474.45905 
L 788.832 474.45905 
" clip-path="url(#p4fe85b2628)" style="fill: none; stroke: #000000; stroke-width: 1.5; stroke-linecap: square"/>
   </g>
  </g>
 </g>
 <defs>
  <clipPath id="p4fe85b2628">
   <rect x="0" y="0" width="792" height="612"/>
  </clipPath>
 </defs>
</svg>
