<?xml version="1.0" encoding="utf-8" standalone="no"?>
<!DOCTYPE svg PUBLIC "-//W3C//DTD SVG 1.1//EN"
  "http://www.w3.org/Graphics/SVG/1.1/DTD/svg11.dtd">
<svg xmlns:xlink="http://www.w3.org/1999/xlink" width="792pt" height="612pt" viewBox="0 0 792 612" xmlns="http://www.w3.org/2000/svg" version="1.1">
 <metadata>
  <rdf:RDF xmlns:dc="http://purl.org/dc/elements/1.1/" xmlns:cc="http://creativecommons.org/ns#" xmlns:rdf="http://www.w3.org/1999/02/22-rdf-syntax-ns#">
   <cc:Work>
    <dc:type rdf:resource="http://purl.org/dc/dcmitype/StillImage"/>
    <dc:date>2022-12-26T20:26:23.724234</dc:date>
    <dc:format>image/svg+xml</dc:format>
    <dc:creator>
     <cc:Agent>
      <dc:title>Matplotlib v3.6.2, https://matplotlib.org/</dc:title>
     </cc:Agent>
    </dc:creator>
   </cc:Work>
  </rdf:RDF>
 </metadata>
 <defs>
  <style type="text/css">*{stroke-linejoin: round; stroke-linecap: butt}</style>
 </defs>
 <g id="figure_1">
  <g id="patch_1">
   <path d="M 0 612 
L 792 612 
L 792 0 
L 0 0 
z
" style="fill: #ffffff"/>
  </g>
  <g id="axes_1">
   <g id="line2d_1">
    <path d="M 0 306 
L 12.375 314.408317 
L 24.75 306 
L 37.125 313.394331 
L 49.5 311.52368 
L 61.875 300.904605 
L 74.25 302.415019 
L 86.625 308.029297 
L 99 312.132257 
L 111.375 310.982685 
L 123.75 307.149947 
L 136.125 304.940244 
L 148.5 305.549039 
L 160.875 301.761232 
L 173.25 308.773338 
L 185.625 300.904605 
L 198 303.677592 
L 210.375 303.316847 
L 222.75 311.794164 
L 235.125 302.415019 
L 247.5 304.218722 
L 259.875 302.640471 
L 272.25 303.925608 
L 284.625 305.774519 
L 297 298.470461 
L 309.375 307.240138 
L 321.75 305.526491 
L 334.125 310.37403 
L 346.5 308.051845 
L 358.875 300.566484 
L 371.25 301.355452 
L 383.625 305.301011 
L 396 306.744085 
L 408.375 295.406637 
L 420.75 306.473509 
L 433.125 305.977452 
L 445.5 307.104851 
L 457.875 303.18157 
L 470.25 307.961656 
L 482.625 302.167027 
L 495 301.919039 
L 507.375 303.204116 
L 519.75 304.128533 
L 532.125 305.391203 
L 544.5 306.270577 
L 556.875 308.525328 
L 569.25 297.70434 
L 581.625 305.797067 
L 594 302.933564 
L 606.375 309.427165 
L 618.75 305.571587 
L 631.125 303.83542 
L 643.5 303.564859 
L 655.875 306.901921 
L 668.25 302.505199 
L 680.625 306.518605 
L 693 304.647124 
L 705.375 309.900607 
L 717.75 307.510709 
L 730.125 306.090192 
L 742.5 305.864712 
L 754.875 302.888472 
L 767.25 305.210819 
L 779.625 305.030436 
" clip-path="url(#p2f7c21d2d0)" style="fill: none; stroke: #000000; stroke-width: 1.5; stroke-linecap: square"/>
   </g>
   <g id="line2d_2">
    <path d="M 0 306 
L 12.375 306 
L 24.75 311.606329 
L 37.125 308.402932 
L 49.5 311.065339 
L 61.875 311.301905 
L 74.25 306.020759 
L 86.625 304.203631 
L 99 306.12397 
L 111.375 309.140439 
L 123.75 310.05488 
L 136.125 308.604727 
L 148.5 306.755934 
L 160.875 306.140771 
L 173.25 303.952576 
L 185.625 306.375447 
L 198 303.625867 
L 210.375 303.635151 
L 222.75 303.460968 
L 235.125 307.636975 
L 247.5 305.020975 
L 259.875 304.617237 
L 272.25 303.630554 
L 284.625 303.768575 
L 297 304.781084 
L 309.375 301.615096 
L 321.75 304.435177 
L 334.125 304.96854 
L 346.5 307.687021 
L 358.875 307.876949 
L 371.25 304.217395 
L 383.625 302.781314 
L 396 304.040201 
L 408.375 305.408357 
L 420.75 300.382799 
L 433.125 303.429756 
L 445.5 304.69496 
L 457.875 305.898047 
L 470.25 304.544908 
L 482.625 306.266244 
L 495 304.21041 
L 507.375 303.055223 
L 519.75 303.144965 
L 532.125 303.632145 
L 544.5 304.510512 
L 556.875 305.388904 
L 569.25 306.967619 
L 581.625 302.315026 
L 594 304.063102 
L 606.375 303.500314 
L 618.75 306.475985 
L 631.125 306.026616 
L 643.5 304.927954 
L 655.875 304.241092 
L 668.25 305.568315 
L 680.625 304.046125 
L 693 305.283768 
L 705.375 304.968805 
L 717.75 307.435727 
L 730.125 307.47702 
L 742.5 306.788032 
L 754.875 306.330882 
L 767.25 304.601763 
L 779.625 304.911595 
" clip-path="url(#p2f7c21d2d0)" style="fill: none; stroke: #000000; stroke-width: 1.5; stroke-linecap: square"/>
   </g>
   <g id="line2d_3">
    <path d="M 0 306 
L 12.375 306 
L 24.75 310.926293 
L 37.125 308.694442 
L 49.5 310.530136 
L 61.875 310.883639 
L 74.25 307.543411 
L 86.625 305.895658 
L 99 306.562257 
L 111.375 308.269315 
L 123.75 309.089737 
L 136.125 308.508766 
L 148.5 307.447007 
L 160.875 306.8849 
L 173.25 305.372318 
L 185.625 306.374009 
L 198 304.765644 
L 210.375 304.444289 
L 222.75 304.101321 
L 235.125 306.361344 
L 247.5 305.192834 
L 259.875 304.899129 
L 272.25 304.239554 
L 284.625 304.149336 
L 297 304.622745 
L 309.375 302.804752 
L 321.75 304.099492 
L 334.125 304.51558 
L 346.5 306.237801 
L 358.875 306.772004 
L 371.25 304.952914 
L 383.625 303.890647 
L 396 304.308777 
L 408.375 305.025576 
L 420.75 302.198116 
L 433.125 303.444159 
L 445.5 304.190214 
L 457.875 305.047196 
L 470.25 304.501375 
L 482.625 305.519504 
L 495 304.533394 
L 507.375 303.771591 
L 519.75 303.600744 
L 532.125 303.753723 
L 544.5 304.227597 
L 556.875 304.823918 
L 569.25 305.91719 
L 581.625 303.506966 
L 594 304.178274 
L 606.375 303.809322 
L 618.75 305.470875 
L 631.125 305.499337 
L 643.5 305.009519 
L 655.875 304.582314 
L 668.25 305.26598 
L 680.625 304.451066 
L 693 305.061627 
L 705.375 304.943355 
L 717.75 306.403051 
L 730.125 306.731364 
L 742.5 306.544372 
L 754.875 306.344838 
L 767.25 305.325987 
L 779.625 305.300879 
" clip-path="url(#p2f7c21d2d0)" style="fill: none; stroke: #000000; stroke-width: 1.5; stroke-linecap: square"/>
   </g>
   <g id="line2d_4">
    <path d="M 0 306 
L 12.375 306 
L 24.75 310.568323 
L 37.125 308.77555 
L 49.5 310.245517 
L 61.875 310.596426 
L 74.25 308.211179 
L 86.625 306.898813 
L 99 307.138635 
L 111.375 308.144755 
L 123.75 308.693283 
L 136.125 308.404866 
L 148.5 307.774905 
L 160.875 307.379171 
L 173.25 306.398633 
L 185.625 306.806805 
L 198 305.805061 
L 210.375 305.44779 
L 222.75 305.093064 
L 235.125 306.200496 
L 247.5 305.578758 
L 259.875 305.356529 
L 272.25 304.914612 
L 284.625 304.754276 
L 297 304.919176 
L 309.375 303.879287 
L 321.75 304.419971 
L 334.125 304.597671 
L 346.5 305.523987 
L 358.875 305.928842 
L 371.25 305.070844 
L 383.625 304.476906 
L 396 304.608537 
L 408.375 304.948771 
L 420.75 303.418108 
L 433.125 303.90451 
L 445.5 304.229686 
L 457.875 304.68437 
L 470.25 304.446684 
L 482.625 305.009386 
L 495 304.553474 
L 507.375 304.127929 
L 519.75 303.976091 
L 532.125 303.99846 
L 544.5 304.220327 
L 556.875 304.546974 
L 569.25 305.184167 
L 581.625 303.986896 
L 594 304.277947 
L 606.375 304.063581 
L 618.75 304.920764 
L 631.125 305.020429 
L 643.5 304.832773 
L 655.875 304.630632 
L 668.25 304.994657 
L 680.625 304.597672 
L 693 304.90376 
L 705.375 304.866783 
L 717.75 305.669372 
L 730.125 305.963575 
L 742.5 305.981047 
L 754.875 305.961173 
L 767.25 305.473728 
L 779.625 305.434304 
" clip-path="url(#p2f7c21d2d0)" style="fill: none; stroke: #000000; stroke-width: 1.5; stroke-linecap: square"/>
   </g>
   <g id="line2d_5">
    <path d="M 0 306 
L 12.375 306 
L 24.75 310.38698 
L 37.125 308.796398 
L 49.5 310.099514 
L 61.875 310.435729 
L 74.25 308.484538 
L 86.625 307.376792 
L 99 307.485104 
L 111.375 308.197476 
L 123.75 308.596371 
L 136.125 308.401002 
L 148.5 307.956698 
L 160.875 307.661012 
L 173.25 306.964166 
L 185.625 307.170605 
L 198 306.477154 
L 210.375 306.175687 
L 222.75 305.87525 
L 235.125 306.483883 
L 247.5 306.073651 
L 259.875 305.889913 
L 272.25 305.57312 
L 284.625 305.4148 
L 297 305.44892 
L 309.375 304.794615 
L 321.75 305.021422 
L 334.125 305.067812 
L 346.5 305.550931 
L 358.875 305.776807 
L 371.25 305.3096 
L 383.625 304.957389 
L 396 304.987809 
L 408.375 305.142434 
L 420.75 304.289225 
L 433.125 304.479687 
L 445.5 304.609741 
L 457.875 304.82557 
L 470.25 304.683854 
L 482.625 304.965495 
L 495 304.725728 
L 507.375 304.485897 
L 519.75 304.37664 
L 532.125 304.35554 
L 544.5 304.443437 
L 556.875 304.598216 
L 569.25 304.930321 
L 581.625 304.320039 
L 594 304.444571 
L 606.375 304.317336 
L 618.75 304.747081 
L 631.125 304.816346 
L 643.5 304.734022 
L 655.875 304.635991 
L 668.25 304.825816 
L 680.625 304.63155 
L 693 304.789399 
L 705.375 304.777506 
L 717.75 305.205528 
L 730.125 305.398008 
L 742.5 305.455776 
L 754.875 305.489888 
L 767.25 305.272966 
L 779.625 305.267786 
" clip-path="url(#p2f7c21d2d0)" style="fill: none; stroke: #000000; stroke-width: 1.5; stroke-linecap: square"/>
   </g>
   <g id="line2d_6">
    <path d="M 0 306 
L 12.375 306 
L 24.75 310.296009 
L 37.125 308.801647 
L 49.5 310.025679 
L 61.875 310.351802 
L 74.25 308.602046 
L 86.625 307.599294 
L 99 307.661538 
L 111.375 308.248675 
L 123.75 308.578394 
L 136.125 308.418636 
L 148.5 308.054876 
L 160.875 307.808163 
L 173.25 307.244384 
L 185.625 307.380039 
L 198 306.830931 
L 210.375 306.574421 
L 222.75 306.319364 
L 235.125 306.733211 
L 247.5 306.417306 
L 259.875 306.261268 
L 272.25 306.011425 
L 284.625 305.871231 
L 297 305.864888 
L 309.375 305.390824 
L 321.75 305.506843 
L 334.125 305.508051 
L 346.5 305.801654 
L 358.875 305.935027 
L 371.25 305.622075 
L 383.625 305.377255 
L 396 305.372945 
L 408.375 305.449374 
L 420.75 304.896722 
L 433.125 304.982376 
L 445.5 305.035793 
L 457.875 305.145624 
L 470.25 305.042466 
L 482.625 305.19425 
L 495 305.038336 
L 507.375 304.879129 
L 519.75 304.794372 
L 532.125 304.760955 
L 544.5 304.792341 
L 556.875 304.865415 
L 569.25 305.045074 
L 581.625 304.687032 
L 594 304.740817 
L 606.375 304.653773 
L 618.75 304.882354 
L 631.125 304.915178 
L 643.5 304.864022 
L 655.875 304.802776 
L 668.25 304.901265 
L 680.625 304.789344 
L 693 304.869767 
L 705.375 304.859455 
L 717.75 305.092041 
L 730.125 305.203214 
L 742.5 305.243838 
L 754.875 305.272178 
L 767.25 305.163721 
L 779.625 305.165857 
" clip-path="url(#p2f7c21d2d0)" style="fill: none; stroke: #000000; stroke-width: 1.5; stroke-linecap: square"/>
   </g>
   <g id="line2d_7">
    <path d="M 0 306 
L 12.375 306 
L 24.75 310.250486 
L 37.125 308.802961 
L 49.5 309.988567 
L 61.875 310.309052 
L 74.25 308.655642 
L 86.625 307.705174 
L 99 307.748827 
L 111.375 308.2792 
L 123.75 308.576677 
L 136.125 308.43248 
L 148.5 308.105568 
L 160.875 307.882359 
L 173.25 307.380936 
L 185.625 307.488492 
L 198 307.00679 
L 210.375 306.775206 
L 222.75 306.545683 
L 235.125 306.879069 
L 247.5 306.606988 
L 259.875 306.466962 
L 272.25 306.250653 
L 284.625 306.123679 
L 297 306.105223 
L 309.375 305.713893 
L 321.75 305.789843 
L 334.125 305.777099 
L 346.5 305.993724 
L 358.875 306.088276 
L 371.25 305.840647 
L 383.625 305.644111 
L 396 305.629407 
L 408.375 305.676175 
L 420.75 305.253793 
L 433.125 305.302971 
L 445.5 305.329661 
L 457.875 305.398656 
L 470.25 305.31396 
L 482.625 305.413435 
L 495 305.293398 
L 507.375 305.170538 
L 519.75 305.100001 
L 532.125 305.06565 
L 544.5 305.077003 
L 556.875 305.118075 
L 569.25 305.233819 
L 581.625 304.981147 
L 594 305.008192 
L 606.375 304.940218 
L 618.75 305.085581 
L 631.125 305.101154 
L 643.5 305.06102 
L 655.875 305.014061 
L 668.25 305.072728 
L 680.625 304.993698 
L 693 305.040198 
L 705.375 305.028319 
L 717.75 305.174281 
L 730.125 305.24368 
L 742.5 305.268618 
L 754.875 305.286038 
L 767.25 305.21651 
L 779.625 305.216346 
" clip-path="url(#p2f7c21d2d0)" style="fill: none; stroke: #000000; stroke-width: 1.5; stroke-linecap: square"/>
   </g>
   <g id="line2d_8">
    <path d="M 0 306 
L 12.375 306 
L 24.75 310.22772 
L 37.125 308.80329 
L 49.5 309.969965 
L 61.875 310.287494 
L 74.25 308.681117 
L 86.625 307.756629 
L 99 307.792019 
L 111.375 308.295492 
L 123.75 308.57752 
L 136.125 308.440603 
L 148.5 308.131231 
L 160.875 307.919446 
L 173.25 307.447932 
L 185.625 307.54315 
L 198 307.093668 
L 210.375 306.874843 
L 222.75 306.658454 
L 235.125 306.955943 
L 247.5 306.704775 
L 259.875 306.573133 
L 272.25 306.373312 
L 284.625 306.253733 
L 297 306.23118 
L 309.375 305.878675 
L 321.75 305.938433 
L 334.125 305.920931 
L 346.5 306.104319 
L 358.875 306.182152 
L 371.25 305.96407 
L 383.625 305.789985 
L 396 305.772002 
L 408.375 305.806847 
L 420.75 305.443016 
L 433.125 305.478199 
L 445.5 305.494856 
L 457.875 305.547384 
L 470.25 305.471845 
L 482.625 305.549694 
L 495 305.446047 
L 507.375 305.340082 
L 519.75 305.277125 
L 532.125 305.243892 
L 544.5 305.248078 
L 556.875 305.276631 
L 569.25 305.365819 
L 581.625 305.158884 
L 594 305.175842 
L 606.375 305.117185 
L 618.75 305.228221 
L 631.125 305.236936 
L 643.5 305.201876 
L 655.875 305.161498 
L 668.25 305.203837 
L 680.625 305.139063 
L 693 305.171741 
L 705.375 305.159472 
L 717.75 305.268971 
L 730.125 305.320113 
L 742.5 305.337472 
L 754.875 305.349219 
L 767.25 305.295015 
L 779.625 305.293182 
" clip-path="url(#p2f7c21d2d0)" style="fill: none; stroke: #000000; stroke-width: 1.5; stroke-linecap: square"/>
   </g>
   <g id="line2d_9">
    <path d="M 0 306 
L 12.375 306 
L 24.75 310.216336 
L 37.125 308.803372 
L 49.5 309.960652 
L 61.875 310.276671 
L 74.25 308.69352 
L 86.625 307.78197 
L 99 307.813475 
L 111.375 308.303868 
L 123.75 308.578348 
L 136.125 308.444953 
L 148.5 308.144129 
L 160.875 307.937963 
L 173.25 307.481063 
L 185.625 307.570521 
L 198 307.136744 
L 210.375 306.92433 
L 222.75 306.714554 
L 235.125 306.995167 
L 247.5 306.75418 
L 259.875 306.626794 
L 272.25 306.435103 
L 284.625 306.319371 
L 297 306.295228 
L 309.375 305.961412 
L 321.75 306.013995 
L 334.125 305.99464 
L 346.5 306.16276 
L 358.875 306.23296 
L 371.25 306.028852 
L 383.625 305.86552 
L 396 305.846359 
L 408.375 305.875985 
L 420.75 305.539622 
L 433.125 305.568834 
L 445.5 305.581293 
L 457.875 305.626611 
L 470.25 305.55561 
L 482.625 305.623863 
L 495 305.528 
L 507.375 305.430102 
L 519.75 305.371005 
L 532.125 305.338703 
L 544.5 305.340041 
L 556.875 305.363278 
L 569.25 305.440726 
L 581.625 305.254743 
L 594 305.267539 
L 606.375 305.213453 
L 618.75 305.309393 
L 631.125 305.315261 
L 643.5 305.282695 
L 655.875 305.24551 
L 668.25 305.280791 
L 680.625 305.222593 
L 693 305.24935 
L 705.375 305.237103 
L 717.75 305.330546 
L 730.125 305.373598 
L 742.5 305.387549 
L 754.875 305.396709 
L 767.25 305.34921 
L 779.625 305.346624 
" clip-path="url(#p2f7c21d2d0)" style="fill: none; stroke: #000000; stroke-width: 1.5; stroke-linecap: square"/>
   </g>
  </g>
 </g>
 <defs>
  <clipPath id="p2f7c21d2d0">
   <rect x="0" y="0" width="792" height="612"/>
  </clipPath>
 </defs>
</svg>
