<?xml version="1.0" encoding="utf-8" standalone="no"?>
<!DOCTYPE svg PUBLIC "-//W3C//DTD SVG 1.1//EN"
  "http://www.w3.org/Graphics/SVG/1.1/DTD/svg11.dtd">
<svg xmlns:xlink="http://www.w3.org/1999/xlink" width="792pt" height="612pt" viewBox="0 0 792 612" xmlns="http://www.w3.org/2000/svg" version="1.1">
 <metadata>
  <rdf:RDF xmlns:dc="http://purl.org/dc/elements/1.1/" xmlns:cc="http://creativecommons.org/ns#" xmlns:rdf="http://www.w3.org/1999/02/22-rdf-syntax-ns#">
   <cc:Work>
    <dc:type rdf:resource="http://purl.org/dc/dcmitype/StillImage"/>
    <dc:date>2022-12-19T20:27:08.547799</dc:date>
    <dc:format>image/svg+xml</dc:format>
    <dc:creator>
     <cc:Agent>
      <dc:title>Matplotlib v3.6.2, https://matplotlib.org/</dc:title>
     </cc:Agent>
    </dc:creator>
   </cc:Work>
  </rdf:RDF>
 </metadata>
 <defs>
  <style type="text/css">*{stroke-linejoin: round; stroke-linecap: butt}</style>
 </defs>
 <g id="figure_1">
  <g id="patch_1">
   <path d="M 0 612 
L 792 612 
L 792 0 
L 0 0 
z
" style="fill: #ffffff"/>
  </g>
  <g id="axes_1">
   <g id="line2d_1">
    <path d="M 0 459 
L 41.684211 453.552185 
L 83.368421 457.421304 
L 125.052632 451.447674 
L 166.736842 449.68384 
L 208.421053 459.278595 
L 250.105263 453.118881 
L 291.789474 450.364588 
L 333.473684 459.175411 
L 375.157895 463.189237 
L 416.842105 466.336323 
L 458.526316 459.257958 
L 500.210526 458.907135 
L 541.894737 459.484961 
L 583.578947 460.702522 
L 625.263158 464.540936 
L 666.947368 466.573644 
L 708.631579 464.809212 
L 750.315789 465.31481 
" clip-path="url(#p446c805858)" style="fill: none; stroke: #000000; stroke-width: 1.5; stroke-linecap: square"/>
   </g>
   <g id="line2d_2">
    <path d="M 0 459 
L 41.684211 459 
L 83.368421 455.368028 
L 125.052632 456.541316 
L 166.736842 453.824552 
L 208.421053 451.687262 
L 250.105263 455.82594 
L 291.789474 454.461713 
L 333.473684 452.404986 
L 375.157895 455.966459 
L 416.842105 460.600796 
L 458.526316 463.483976 
L 500.210526 461.376409 
L 541.894737 460.178756 
L 583.578947 459.832263 
L 625.263158 460.274575 
L 666.947368 462.424265 
L 708.631579 464.513461 
L 750.315789 464.664513 
" clip-path="url(#p446c805858)" style="fill: none; stroke: #000000; stroke-width: 1.5; stroke-linecap: square"/>
   </g>
   <g id="line2d_3">
    <path d="M 0 459 
L 41.684211 459 
L 83.368421 455.808645 
L 125.052632 456.539304 
L 166.736842 454.550758 
L 208.421053 452.818994 
L 250.105263 455.1676 
L 291.789474 454.509343 
L 333.473684 453.214331 
L 375.157895 455.148402 
L 416.842105 459.370858 
L 458.526316 461.457096 
L 500.210526 460.802759 
L 541.894737 460.259676 
L 583.578947 460.030981 
L 625.263158 460.228763 
L 666.947368 461.496722 
L 708.631579 462.992418 
L 750.315789 463.533303 
" clip-path="url(#p446c805858)" style="fill: none; stroke: #000000; stroke-width: 1.5; stroke-linecap: square"/>
   </g>
   <g id="line2d_4">
    <path d="M 0 459 
L 41.684211 459 
L 83.368421 456.040575 
L 125.052632 456.582456 
L 166.736842 454.948405 
L 208.421053 453.502966 
L 250.105263 455.061499 
L 291.789474 454.62164 
L 333.473684 453.71847 
L 375.157895 454.888391 
L 416.842105 458.1119 
L 458.526316 460.130332 
L 500.210526 459.971706 
L 541.894737 459.793441 
L 583.578947 459.739602 
L 625.263158 459.905107 
L 666.947368 460.691856 
L 708.631579 461.679581 
L 750.315789 462.20054 
" clip-path="url(#p446c805858)" style="fill: none; stroke: #000000; stroke-width: 1.5; stroke-linecap: square"/>
   </g>
   <g id="line2d_5">
    <path d="M 0 459 
L 41.684211 459 
L 83.368421 456.158065 
L 125.052632 456.616104 
L 166.736842 455.151429 
L 208.421053 453.860564 
L 250.105263 455.083782 
L 291.789474 454.725154 
L 333.473684 454.001261 
L 375.157895 454.848025 
L 416.842105 457.242315 
L 458.526316 459.48419 
L 500.210526 459.455144 
L 541.894737 459.395445 
L 583.578947 459.406018 
L 625.263158 459.553954 
L 666.947368 460.105819 
L 708.631579 460.802289 
L 750.315789 461.223369 
" clip-path="url(#p446c805858)" style="fill: none; stroke: #000000; stroke-width: 1.5; stroke-linecap: square"/>
   </g>
   <g id="line2d_6">
    <path d="M 0 459 
L 41.684211 459 
L 83.368421 456.217003 
L 125.052632 456.635944 
L 166.736842 455.253299 
L 208.421053 454.040717 
L 250.105263 455.114037 
L 291.789474 454.79066 
L 333.473684 454.149912 
L 375.157895 454.855839 
L 416.842105 456.871023 
L 458.526316 459.190229 
L 500.210526 459.197312 
L 541.894737 459.174837 
L 583.578947 459.203751 
L 625.263158 459.336724 
L 666.947368 459.778007 
L 708.631579 460.330796 
L 750.315789 460.681435 
" clip-path="url(#p446c805858)" style="fill: none; stroke: #000000; stroke-width: 1.5; stroke-linecap: square"/>
   </g>
   <g id="line2d_7">
    <path d="M 0 459 
L 41.684211 459 
L 83.368421 456.246496 
L 125.052632 456.646608 
L 166.736842 455.304233 
L 208.421053 454.13079 
L 250.105263 455.133786 
L 291.789474 454.826893 
L 333.473684 454.225849 
L 375.157895 454.867041 
L 416.842105 456.704455 
L 458.526316 459.053637 
L 500.210526 459.072764 
L 541.894737 459.063708 
L 583.578947 459.098215 
L 625.263158 459.222137 
L 666.947368 459.611258 
L 708.631579 460.095569 
L 750.315789 460.408397 
" clip-path="url(#p446c805858)" style="fill: none; stroke: #000000; stroke-width: 1.5; stroke-linecap: square"/>
   </g>
   <g id="line2d_8">
    <path d="M 0 459 
L 41.684211 459 
L 83.368421 456.261246 
L 125.052632 456.652124 
L 166.736842 455.329688 
L 208.421053 454.175782 
L 250.105263 455.144784 
L 291.789474 454.84587 
L 333.473684 454.264185 
L 375.157895 454.874467 
L 416.842105 456.626238 
L 458.526316 458.964803 
L 500.210526 459.012104 
L 541.894737 459.008573 
L 583.578947 459.045047 
L 625.263158 459.164118 
L 666.947368 459.528152 
L 708.631579 459.979467 
L 750.315789 460.273196 
" clip-path="url(#p446c805858)" style="fill: none; stroke: #000000; stroke-width: 1.5; stroke-linecap: square"/>
   </g>
   <g id="line2d_9">
    <path d="M 0 459 
L 41.684211 459 
L 83.368421 456.268621 
L 125.052632 456.654928 
L 166.736842 455.342411 
L 208.421053 454.198262 
L 250.105263 455.150559 
L 291.789474 454.855572 
L 333.473684 454.28344 
L 375.157895 454.878634 
L 416.842105 456.588425 
L 458.526316 458.869052 
L 500.210526 458.94672 
L 541.894737 458.943575 
L 583.578947 459.018455 
L 625.263158 459.135032 
L 666.947368 459.486796 
L 708.631579 459.921973 
L 750.315789 460.206164 
" clip-path="url(#p446c805858)" style="fill: none; stroke: #000000; stroke-width: 1.5; stroke-linecap: square"/>
   </g>
  </g>
 </g>
 <defs>
  <clipPath id="p446c805858">
   <rect x="0" y="0" width="792" height="612"/>
  </clipPath>
 </defs>
</svg>
