<?xml version="1.0" encoding="utf-8" standalone="no"?>
<!DOCTYPE svg PUBLIC "-//W3C//DTD SVG 1.1//EN"
  "http://www.w3.org/Graphics/SVG/1.1/DTD/svg11.dtd">
<svg xmlns:xlink="http://www.w3.org/1999/xlink" width="792pt" height="612pt" viewBox="0 0 792 612" xmlns="http://www.w3.org/2000/svg" version="1.1">
 <metadata>
  <rdf:RDF xmlns:dc="http://purl.org/dc/elements/1.1/" xmlns:cc="http://creativecommons.org/ns#" xmlns:rdf="http://www.w3.org/1999/02/22-rdf-syntax-ns#">
   <cc:Work>
    <dc:type rdf:resource="http://purl.org/dc/dcmitype/StillImage"/>
    <dc:date>2023-01-30T17:15:38.419116</dc:date>
    <dc:format>image/svg+xml</dc:format>
    <dc:creator>
     <cc:Agent>
      <dc:title>Matplotlib v3.6.2, https://matplotlib.org/</dc:title>
     </cc:Agent>
    </dc:creator>
   </cc:Work>
  </rdf:RDF>
 </metadata>
 <defs>
  <style type="text/css">*{stroke-linejoin: round; stroke-linecap: butt}</style>
 </defs>
 <g id="figure_1">
  <g id="patch_1">
   <path d="M 0 612 
L 792 612 
L 792 0 
L 0 0 
z
" style="fill: #ffffff"/>
  </g>
  <g id="axes_1">
   <g id="line2d_1">
    <path d="M 0 459 
L 46.588235 463.69484 
L 93.176471 459.494194 
L 139.764706 459.117665 
L 186.352941 464.836192 
L 232.941176 463.318311 
L 279.529412 464.895024 
L 326.117647 459.482427 
L 372.705882 458.576406 
L 419.294118 456.529056 
L 465.882353 446.789239 
L 512.470588 447.07144 
L 559.058824 442.310675 
L 605.647059 438.152322 
L 652.235294 440.724502 
L 698.823529 440.513044 
L 745.411765 431.358643 
" clip-path="url(#pead995fd38)" style="fill: none; stroke: #000000; stroke-width: 1.5; stroke-linecap: square"/>
   </g>
   <g id="line2d_2">
    <path d="M 0 459 
L 46.588235 459 
L 93.176471 462.129893 
L 139.764706 460.623779 
L 186.352941 459.820518 
L 232.941176 462.409253 
L 279.529412 462.870997 
L 326.117647 463.890979 
L 372.705882 461.678059 
L 419.294118 460.268154 
L 465.882353 459.211428 
L 512.470588 453.183777 
L 559.058824 450.103137 
L 605.647059 446.138967 
L 652.235294 442.078149 
L 698.823529 441.330861 
L 745.411765 440.882893 
" clip-path="url(#pead995fd38)" style="fill: none; stroke: #000000; stroke-width: 1.5; stroke-linecap: square"/>
   </g>
   <g id="line2d_3">
    <path d="M 0 459 
L 46.588235 459 
L 93.176471 461.750173 
L 139.764706 460.72803 
L 186.352941 460.099143 
L 232.941176 461.78453 
L 279.529412 462.29794 
L 326.117647 463.132362 
L 372.705882 461.992051 
L 419.294118 461.031911 
L 465.882353 460.168555 
L 512.470588 457.797553 
L 559.058824 454.605414 
L 605.647059 450.962684 
L 652.235294 447.178871 
L 698.823529 445.277328 
L 745.411765 443.876076 
" clip-path="url(#pead995fd38)" style="fill: none; stroke: #000000; stroke-width: 1.5; stroke-linecap: square"/>
   </g>
   <g id="line2d_4">
    <path d="M 0 459 
L 46.588235 459 
L 93.176471 461.550301 
L 139.764706 460.743352 
L 186.352941 460.226047 
L 232.941176 461.491664 
L 279.529412 461.941239 
L 326.117647 462.610029 
L 372.705882 461.946546 
L 419.294118 461.324507 
L 465.882353 460.716065 
L 512.470588 459.634514 
L 559.058824 458.387927 
L 605.647059 455.528283 
L 652.235294 452.493533 
L 698.823529 450.469649 
L 745.411765 448.779085 
" clip-path="url(#pead995fd38)" style="fill: none; stroke: #000000; stroke-width: 1.5; stroke-linecap: square"/>
   </g>
   <g id="line2d_5">
    <path d="M 0 459 
L 46.588235 459 
L 93.176471 461.44905 
L 139.764706 460.74023 
L 186.352941 460.28045 
L 232.941176 461.355904 
L 279.529412 461.757663 
L 326.117647 462.330265 
L 372.705882 461.857547 
L 419.294118 461.397926 
L 465.882353 460.936572 
L 512.470588 460.125076 
L 559.058824 459.47002 
L 605.647059 458.186313 
L 652.235294 455.818446 
L 698.823529 454.095209 
L 745.411765 452.591333 
" clip-path="url(#pead995fd38)" style="fill: none; stroke: #000000; stroke-width: 1.5; stroke-linecap: square"/>
   </g>
   <g id="line2d_6">
    <path d="M 0 459 
L 46.588235 459 
L 93.176471 461.398259 
L 139.764706 460.735885 
L 186.352941 460.304674 
L 232.941176 461.291153 
L 279.529412 461.666631 
L 326.117647 462.189873 
L 372.705882 461.797966 
L 419.294118 461.412021 
L 465.882353 461.021834 
L 512.470588 460.340365 
L 559.058824 459.784261 
L 605.647059 459.159068 
L 652.235294 457.487719 
L 698.823529 455.999642 
L 745.411765 454.685719 
" clip-path="url(#pead995fd38)" style="fill: none; stroke: #000000; stroke-width: 1.5; stroke-linecap: square"/>
   </g>
   <g id="line2d_7">
    <path d="M 0 459 
L 46.588235 459 
L 93.176471 461.372842 
L 139.764706 460.733014 
L 186.352941 460.315962 
L 232.941176 461.259591 
L 279.529412 461.621556 
L 326.117647 462.120124 
L 372.705882 461.764881 
L 419.294118 461.413309 
L 465.882353 461.057161 
L 512.470588 460.437762 
L 559.058824 459.930852 
L 605.647059 459.363637 
L 652.235294 458.292632 
L 698.823529 456.934885 
L 745.411765 455.73278 
" clip-path="url(#pead995fd38)" style="fill: none; stroke: #000000; stroke-width: 1.5; stroke-linecap: square"/>
   </g>
   <g id="line2d_8">
    <path d="M 0 459 
L 46.588235 459 
L 93.176471 461.360131 
L 139.764706 460.731404 
L 186.352941 460.321392 
L 232.941176 461.244016 
L 279.529412 461.599159 
L 326.117647 462.085432 
L 372.705882 461.74759 
L 419.294118 461.412534 
L 465.882353 461.072916 
L 512.470588 460.483624 
L 559.058824 460.000972 
L 605.647059 459.462383 
L 652.235294 458.683635 
L 698.823529 457.392786 
L 745.411765 456.249305 
" clip-path="url(#pead995fd38)" style="fill: none; stroke: #000000; stroke-width: 1.5; stroke-linecap: square"/>
   </g>
   <g id="line2d_9">
    <path d="M 0 459 
L 46.588235 459 
L 93.176471 461.353776 
L 139.764706 460.730555 
L 186.352941 460.324052 
L 232.941176 461.23628 
L 279.529412 461.588 
L 326.117647 462.068141 
L 372.705882 461.738768 
L 419.294118 461.411797 
L 465.882353 461.08031 
L 512.470588 460.505816 
L 559.058824 460.035177 
L 605.647059 459.510767 
L 652.235294 458.875795 
L 698.823529 457.618637 
L 745.411765 456.50494 
" clip-path="url(#pead995fd38)" style="fill: none; stroke: #000000; stroke-width: 1.5; stroke-linecap: square"/>
   </g>
  </g>
 </g>
 <defs>
  <clipPath id="pead995fd38">
   <rect x="0" y="0" width="792" height="612"/>
  </clipPath>
 </defs>
</svg>
