<?xml version="1.0" encoding="utf-8" standalone="no"?>
<!DOCTYPE svg PUBLIC "-//W3C//DTD SVG 1.1//EN"
  "http://www.w3.org/Graphics/SVG/1.1/DTD/svg11.dtd">
<svg xmlns:xlink="http://www.w3.org/1999/xlink" width="792pt" height="612pt" viewBox="0 0 792 612" xmlns="http://www.w3.org/2000/svg" version="1.1">
 <metadata>
  <rdf:RDF xmlns:dc="http://purl.org/dc/elements/1.1/" xmlns:cc="http://creativecommons.org/ns#" xmlns:rdf="http://www.w3.org/1999/02/22-rdf-syntax-ns#">
   <cc:Work>
    <dc:type rdf:resource="http://purl.org/dc/dcmitype/StillImage"/>
    <dc:date>2023-01-30T17:15:39.410631</dc:date>
    <dc:format>image/svg+xml</dc:format>
    <dc:creator>
     <cc:Agent>
      <dc:title>Matplotlib v3.6.2, https://matplotlib.org/</dc:title>
     </cc:Agent>
    </dc:creator>
   </cc:Work>
  </rdf:RDF>
 </metadata>
 <defs>
  <style type="text/css">*{stroke-linejoin: round; stroke-linecap: butt}</style>
 </defs>
 <g id="figure_1">
  <g id="patch_1">
   <path d="M 0 612 
L 792 612 
L 792 0 
L 0 0 
z
" style="fill: #ffffff"/>
  </g>
  <g id="axes_1">
   <g id="line2d_1">
    <path d="M 0 306 
L 46.588235 315.386733 
L 93.176471 297.600818 
L 139.764706 305.246945 
L 186.352941 317.43173 
L 232.941176 302.964339 
L 279.529412 309.153315 
L 326.117647 295.179319 
L 372.705882 304.752756 
L 419.294118 304.635093 
L 465.882353 299.505859 
L 512.470588 306.188264 
L 559.058824 302.823155 
L 605.647059 303.223179 
L 652.235294 307.717893 
L 698.823529 305.858802 
L 745.411765 299.882227 
" clip-path="url(#pcc444b7b65)" style="fill: none; stroke: #000000; stroke-width: 1.5; stroke-linecap: square"/>
   </g>
   <g id="line2d_2">
    <path d="M 0 306 
L 46.588235 306 
L 93.176471 312.258913 
L 139.764706 303.882061 
L 186.352941 304.609992 
L 232.941176 311.229897 
L 279.529412 307.031714 
L 326.117647 308.100892 
L 372.705882 301.612821 
L 419.294118 303.180269 
L 465.882353 303.886583 
L 512.470588 301.699737 
L 559.058824 303.945736 
L 605.647059 303.355784 
L 652.235294 303.289989 
L 698.823529 305.5011 
L 745.411765 305.7009 
" clip-path="url(#pcc444b7b65)" style="fill: none; stroke: #000000; stroke-width: 1.5; stroke-linecap: square"/>
   </g>
   <g id="line2d_3">
    <path d="M 0 306 
L 46.588235 306 
L 93.176471 311.499754 
L 139.764706 305.201769 
L 186.352941 305.219411 
L 232.941176 309.566142 
L 279.529412 307.356352 
L 326.117647 307.933717 
L 372.705882 303.947634 
L 419.294118 304.19435 
L 465.882353 304.327604 
L 512.470588 302.88324 
L 559.058824 303.866583 
L 605.647059 303.55755 
L 652.235294 303.458843 
L 698.823529 304.713191 
L 745.411765 305.050046 
" clip-path="url(#pcc444b7b65)" style="fill: none; stroke: #000000; stroke-width: 1.5; stroke-linecap: square"/>
   </g>
   <g id="line2d_4">
    <path d="M 0 306 
L 46.588235 306 
L 93.176471 311.100129 
L 139.764706 305.801592 
L 186.352941 305.625099 
L 232.941176 308.867735 
L 279.529412 307.414818 
L 326.117647 307.808457 
L 372.705882 305.128397 
L 419.294118 305.052723 
L 465.882353 304.972007 
L 512.470588 303.950317 
L 559.058824 304.357239 
L 605.647059 304.084484 
L 652.235294 303.934158 
L 698.823529 304.584488 
L 745.411765 304.80075 
" clip-path="url(#pcc444b7b65)" style="fill: none; stroke: #000000; stroke-width: 1.5; stroke-linecap: square"/>
   </g>
   <g id="line2d_5">
    <path d="M 0 306 
L 46.588235 306 
L 93.176471 310.897683 
L 139.764706 306.075812 
L 186.352941 305.840939 
L 232.941176 308.57832 
L 279.529412 307.428999 
L 326.117647 307.743715 
L 372.705882 305.657394 
L 419.294118 305.518738 
L 465.882353 305.392193 
L 512.470588 304.596979 
L 559.058824 304.801278 
L 605.647059 304.55833 
L 652.235294 304.400631 
L 698.823529 304.779138 
L 745.411765 304.898614 
" clip-path="url(#pcc444b7b65)" style="fill: none; stroke: #000000; stroke-width: 1.5; stroke-linecap: square"/>
   </g>
   <g id="line2d_6">
    <path d="M 0 306 
L 46.588235 306 
L 93.176471 310.796125 
L 139.764706 306.205348 
L 186.352941 305.94996 
L 232.941176 308.450564 
L 279.529412 307.434399 
L 326.117647 307.713001 
L 372.705882 305.898094 
L 419.294118 305.747698 
L 465.882353 305.613529 
L 512.470588 304.93032 
L 559.058824 305.061876 
L 605.647059 304.841447 
L 652.235294 304.690569 
L 698.823529 304.959156 
L 745.411765 305.035439 
" clip-path="url(#pcc444b7b65)" style="fill: none; stroke: #000000; stroke-width: 1.5; stroke-linecap: square"/>
   </g>
   <g id="line2d_7">
    <path d="M 0 306 
L 46.588235 306 
L 93.176471 310.745304 
L 139.764706 306.268099 
L 186.352941 306.004456 
L 232.941176 308.39104 
L 279.529412 307.436927 
L 326.117647 307.698351 
L 372.705882 306.011705 
L 419.294118 305.859399 
L 465.882353 305.724694 
L 512.470588 305.096056 
L 559.058824 305.198302 
L 605.647059 304.990915 
L 652.235294 304.846107 
L 698.823529 305.067931 
L 745.411765 305.125791 
" clip-path="url(#pcc444b7b65)" style="fill: none; stroke: #000000; stroke-width: 1.5; stroke-linecap: square"/>
   </g>
   <g id="line2d_8">
    <path d="M 0 306 
L 46.588235 306 
L 93.176471 310.719889 
L 139.764706 306.298956 
L 186.352941 306.031665 
L 232.941176 308.362371 
L 279.529412 307.438176 
L 326.117647 307.691237 
L 372.705882 306.066753 
L 419.294118 305.914348 
L 465.882353 305.780097 
L 512.470588 305.178234 
L 559.058824 305.267507 
L 605.647059 305.067012 
L 652.235294 304.925835 
L 698.823529 305.126412 
L 745.411765 305.175998 
" clip-path="url(#pcc444b7b65)" style="fill: none; stroke: #000000; stroke-width: 1.5; stroke-linecap: square"/>
   </g>
   <g id="line2d_9">
    <path d="M 0 306 
L 46.588235 306 
L 93.176471 310.70718 
L 139.764706 306.314253 
L 186.352941 306.045254 
L 232.941176 308.34831 
L 279.529412 307.438801 
L 326.117647 307.687736 
L 372.705882 306.09383 
L 419.294118 305.941573 
L 465.882353 305.807717 
L 512.470588 305.219094 
L 559.058824 305.302285 
L 605.647059 305.105318 
L 652.235294 304.966092 
L 698.823529 305.156581 
L 745.411765 305.202274 
" clip-path="url(#pcc444b7b65)" style="fill: none; stroke: #000000; stroke-width: 1.5; stroke-linecap: square"/>
   </g>
  </g>
 </g>
 <defs>
  <clipPath id="pcc444b7b65">
   <rect x="0" y="0" width="792" height="612"/>
  </clipPath>
 </defs>
</svg>
