<?xml version="1.0" encoding="utf-8" standalone="no"?>
<!DOCTYPE svg PUBLIC "-//W3C//DTD SVG 1.1//EN"
  "http://www.w3.org/Graphics/SVG/1.1/DTD/svg11.dtd">
<svg xmlns:xlink="http://www.w3.org/1999/xlink" width="792pt" height="612pt" viewBox="0 0 792 612" xmlns="http://www.w3.org/2000/svg" version="1.1">
 <metadata>
  <rdf:RDF xmlns:dc="http://purl.org/dc/elements/1.1/" xmlns:cc="http://creativecommons.org/ns#" xmlns:rdf="http://www.w3.org/1999/02/22-rdf-syntax-ns#">
   <cc:Work>
    <dc:type rdf:resource="http://purl.org/dc/dcmitype/StillImage"/>
    <dc:date>2023-01-30T16:20:08.961587</dc:date>
    <dc:format>image/svg+xml</dc:format>
    <dc:creator>
     <cc:Agent>
      <dc:title>Matplotlib v3.6.2, https://matplotlib.org/</dc:title>
     </cc:Agent>
    </dc:creator>
   </cc:Work>
  </rdf:RDF>
 </metadata>
 <defs>
  <style type="text/css">*{stroke-linejoin: round; stroke-linecap: butt}</style>
 </defs>
 <g id="figure_1">
  <g id="patch_1">
   <path d="M 0 612 
L 792 612 
L 792 0 
L 0 0 
z
" style="fill: #ffffff"/>
  </g>
  <g id="axes_1">
   <g id="line2d_1">
    <path d="M 0 459 
L 44 459.08091 
L 88 448.321864 
L 132 459.161819 
L 176 459.589484 
L 220 461.704691 
L 264 466.316537 
L 308 462.190149 
L 352 461.820276 
L 396 467.437712 
L 440 465.946665 
L 484 467.495505 
L 528 462.17859 
L 572 461.565989 
L 616 460.895596 
L 660 455.116433 
L 704 455.393819 
L 748 450.713449 
" clip-path="url(#p90619d7fd0)" style="fill: none; stroke: #000000; stroke-width: 1.5; stroke-linecap: square"/>
   </g>
   <g id="line2d_2">
    <path d="M 0 459 
L 44 459 
L 88 459.05394 
L 132 452.966805 
L 176 456.443284 
L 220 458.675616 
L 264 460.320606 
L 308 463.342177 
L 352 462.763904 
L 396 462.29762 
L 440 464.884052 
L 484 465.43596 
L 528 466.482073 
L 572 464.335408 
L 616 462.950427 
L 660 461.912382 
L 704 459.800121 
L 748 458.373393 
" clip-path="url(#p90619d7fd0)" style="fill: none; stroke: #000000; stroke-width: 1.5; stroke-linecap: square"/>
   </g>
   <g id="line2d_3">
    <path d="M 0 459 
L 44 459 
L 88 459.047396 
L 132 454.238993 
L 176 456.287792 
L 220 457.88194 
L 264 459.657419 
L 308 461.796938 
L 352 461.919785 
L 396 461.889292 
L 440 463.566809 
L 484 464.279603 
L 528 465.23647 
L 572 464.330832 
L 616 463.514652 
L 660 462.743287 
L 704 461.261951 
L 748 460.245978 
" clip-path="url(#p90619d7fd0)" style="fill: none; stroke: #000000; stroke-width: 1.5; stroke-linecap: square"/>
   </g>
   <g id="line2d_4">
    <path d="M 0 459 
L 44 459 
L 88 459.043951 
L 132 454.888673 
L 176 456.351357 
L 220 457.56396 
L 264 459.304811 
L 308 460.892392 
L 352 461.167696 
L 396 461.299161 
L 440 462.485553 
L 484 463.13238 
L 528 463.925738 
L 572 463.61511 
L 616 463.257477 
L 660 462.85152 
L 704 461.978178 
L 748 461.276189 
" clip-path="url(#p90619d7fd0)" style="fill: none; stroke: #000000; stroke-width: 1.5; stroke-linecap: square"/>
   </g>
   <g id="line2d_5">
    <path d="M 0 459 
L 44 459 
L 88 459.042206 
L 132 455.20826 
L 176 456.420237 
L 220 457.446686 
L 264 459.141955 
L 308 460.451392 
L 352 460.740011 
L 396 460.905585 
L 440 461.841032 
L 484 462.395597 
L 528 463.050364 
L 572 462.943298 
L 616 462.780624 
L 660 462.565535 
L 704 462.027712 
L 748 461.572238 
" clip-path="url(#p90619d7fd0)" style="fill: none; stroke: #000000; stroke-width: 1.5; stroke-linecap: square"/>
   </g>
   <g id="line2d_6">
    <path d="M 0 459 
L 44 459 
L 88 459.041331 
L 132 455.365623 
L 176 456.463415 
L 220 457.400577 
L 264 459.066581 
L 308 460.241618 
L 352 460.523671 
L 396 460.693929 
L 440 461.507156 
L 484 462.003687 
L 528 462.578026 
L 572 462.538698 
L 616 462.448011 
L 660 462.310278 
L 704 461.919819 
L 748 461.584524 
" clip-path="url(#p90619d7fd0)" style="fill: none; stroke: #000000; stroke-width: 1.5; stroke-linecap: square"/>
   </g>
   <g id="line2d_7">
    <path d="M 0 459 
L 44 459 
L 88 459.040893 
L 132 455.443562 
L 176 456.487073 
L 220 457.380826 
L 264 459.030709 
L 308 460.140382 
L 352 460.416442 
L 396 460.586276 
L 440 461.340106 
L 484 461.805694 
L 528 462.338345 
L 572 462.324397 
L 616 462.262271 
L 660 462.156705 
L 704 461.831053 
L 748 461.550504 
" clip-path="url(#p90619d7fd0)" style="fill: none; stroke: #000000; stroke-width: 1.5; stroke-linecap: square"/>
   </g>
   <g id="line2d_8">
    <path d="M 0 459 
L 44 459 
L 88 459.040674 
L 132 455.482329 
L 176 456.499401 
L 220 457.371792 
L 264 459.01326 
L 308 460.090788 
L 352 460.363262 
L 396 460.532254 
L 440 461.256938 
L 484 461.706737 
L 528 462.218385 
L 572 462.215121 
L 616 462.16542 
L 660 462.074197 
L 704 461.778414 
L 748 461.523434 
" clip-path="url(#p90619d7fd0)" style="fill: none; stroke: #000000; stroke-width: 1.5; stroke-linecap: square"/>
   </g>
   <g id="line2d_9">
    <path d="M 0 459 
L 44 459 
L 88 459.040564 
L 132 455.50166 
L 176 456.505688 
L 220 457.367486 
L 264 459.004661 
L 308 460.06626 
L 352 460.336805 
L 396 460.505228 
L 440 461.215492 
L 484 461.657338 
L 528 462.158473 
L 572 462.160071 
L 616 462.116127 
L 660 462.031638 
L 704 461.750131 
L 748 461.50744 
" clip-path="url(#p90619d7fd0)" style="fill: none; stroke: #000000; stroke-width: 1.5; stroke-linecap: square"/>
   </g>
  </g>
 </g>
 <defs>
  <clipPath id="p90619d7fd0">
   <rect x="0" y="0" width="792" height="612"/>
  </clipPath>
 </defs>
</svg>
