<?xml version="1.0" encoding="utf-8" standalone="no"?>
<!DOCTYPE svg PUBLIC "-//W3C//DTD SVG 1.1//EN"
  "http://www.w3.org/Graphics/SVG/1.1/DTD/svg11.dtd">
<svg xmlns:xlink="http://www.w3.org/1999/xlink" width="792pt" height="612pt" viewBox="0 0 792 612" xmlns="http://www.w3.org/2000/svg" version="1.1">
 <metadata>
  <rdf:RDF xmlns:dc="http://purl.org/dc/elements/1.1/" xmlns:cc="http://creativecommons.org/ns#" xmlns:rdf="http://www.w3.org/1999/02/22-rdf-syntax-ns#">
   <cc:Work>
    <dc:type rdf:resource="http://purl.org/dc/dcmitype/StillImage"/>
    <dc:date>2022-12-26T20:25:53.596092</dc:date>
    <dc:format>image/svg+xml</dc:format>
    <dc:creator>
     <cc:Agent>
      <dc:title>Matplotlib v3.6.2, https://matplotlib.org/</dc:title>
     </cc:Agent>
    </dc:creator>
   </cc:Work>
  </rdf:RDF>
 </metadata>
 <defs>
  <style type="text/css">*{stroke-linejoin: round; stroke-linecap: butt}</style>
 </defs>
 <g id="figure_1">
  <g id="patch_1">
   <path d="M 0 612 
L 792 612 
L 792 0 
L 0 0 
z
" style="fill: #ffffff"/>
  </g>
  <g id="axes_1">
   <g id="line2d_1">
    <path d="M 0 306 
L 39.6 312.470399 
L 79.2 291.455705 
L 118.8 305.405908 
L 158.4 307.060875 
L 198 308.503619 
L 237.6 313.891191 
L 277.2 310.179604 
L 316.8 302.371963 
L 356.4 307.039658 
L 396 301.056733 
L 435.6 303.920709 
L 475.2 310.794782 
L 514.8 320.226735 
L 554.4 310.222031 
L 594 310.54023 
L 633.6 306.148523 
L 673.2 299.317524 
L 712.8 312.830927 
L 752.4 306.785049 
" clip-path="url(#p81735ddc0f)" style="fill: none; stroke: #000000; stroke-width: 1.5; stroke-linecap: square"/>
   </g>
   <g id="line2d_2">
    <path d="M 0 306 
L 39.6 306 
L 79.2 310.313956 
L 118.8 299.532631 
L 158.4 302.664728 
L 198 304.93365 
L 237.6 306.746992 
L 277.2 310.347809 
L 316.8 310.263377 
L 356.4 306.310609 
L 396 306.664484 
L 435.6 303.879274 
L 475.2 303.897079 
L 514.8 307.353423 
L 554.4 313.816521 
L 594 312.01229 
L 633.6 311.276997 
L 673.2 308.720355 
L 712.8 304.003329 
L 752.4 308.440719 
" clip-path="url(#p81735ddc0f)" style="fill: none; stroke: #000000; stroke-width: 1.5; stroke-linecap: square"/>
   </g>
   <g id="line2d_3">
    <path d="M 0 306 
L 39.6 306 
L 79.2 309.790643 
L 118.8 301.478881 
L 158.4 303.012375 
L 198 304.452737 
L 237.6 305.80872 
L 277.2 308.406063 
L 316.8 308.960175 
L 356.4 306.941319 
L 396 306.971051 
L 435.6 305.19952 
L 475.2 304.819014 
L 514.8 306.588941 
L 554.4 310.617491 
L 594 310.501021 
L 633.6 310.51255 
L 673.2 309.234638 
L 712.8 306.314646 
L 752.4 308.248078 
" clip-path="url(#p81735ddc0f)" style="fill: none; stroke: #000000; stroke-width: 1.5; stroke-linecap: square"/>
   </g>
   <g id="line2d_4">
    <path d="M 0 306 
L 39.6 306 
L 79.2 309.515178 
L 118.8 302.423434 
L 158.4 303.372432 
L 198 304.384985 
L 237.6 305.398667 
L 277.2 307.321916 
L 316.8 307.928176 
L 356.4 306.808839 
L 396 306.853449 
L 435.6 305.770057 
L 475.2 305.433779 
L 514.8 306.38699 
L 554.4 308.804154 
L 594 309.047867 
L 633.6 309.301148 
L 673.2 308.771761 
L 712.8 307.197887 
L 752.4 308.128875 
" clip-path="url(#p81735ddc0f)" style="fill: none; stroke: #000000; stroke-width: 1.5; stroke-linecap: square"/>
   </g>
   <g id="line2d_5">
    <path d="M 0 306 
L 39.6 306 
L 79.2 309.375632 
L 118.8 302.874181 
L 158.4 303.591558 
L 198 304.410521 
L 237.6 305.248494 
L 277.2 306.826194 
L 316.8 307.382868 
L 356.4 306.614823 
L 396 306.675662 
L 435.6 305.916633 
L 475.2 305.660376 
L 514.8 306.290997 
L 554.4 307.938139 
L 594 308.198755 
L 633.6 308.457883 
L 673.2 308.209215 
L 712.8 307.27472 
L 752.4 307.846091 
" clip-path="url(#p81735ddc0f)" style="fill: none; stroke: #000000; stroke-width: 1.5; stroke-linecap: square"/>
   </g>
   <g id="line2d_6">
    <path d="M 0 306 
L 39.6 306 
L 79.2 309.30563 
L 118.8 303.092468 
L 158.4 303.708915 
L 198 304.438593 
L 237.6 305.191534 
L 277.2 306.601813 
L 316.8 307.119736 
L 356.4 306.496283 
L 396 306.561808 
L 435.6 305.946052 
L 475.2 305.734237 
L 514.8 306.232528 
L 554.4 307.538175 
L 594 307.776306 
L 633.6 308.010686 
L 673.2 307.859213 
L 712.8 307.190371 
L 752.4 307.616772 
" clip-path="url(#p81735ddc0f)" style="fill: none; stroke: #000000; stroke-width: 1.5; stroke-linecap: square"/>
   </g>
   <g id="line2d_7">
    <path d="M 0 306 
L 39.6 306 
L 79.2 309.270599 
L 118.8 303.199643 
L 158.4 303.769239 
L 198 304.456373 
L 237.6 305.167963 
L 277.2 306.496825 
L 316.8 306.99285 
L 356.4 306.433806 
L 396 306.500465 
L 435.6 305.950221 
L 475.2 305.760225 
L 514.8 306.199837 
L 554.4 307.349685 
L 594 307.571568 
L 633.6 307.788771 
L 673.2 307.674676 
L 712.8 307.11998 
L 752.4 307.482761 
" clip-path="url(#p81735ddc0f)" style="fill: none; stroke: #000000; stroke-width: 1.5; stroke-linecap: square"/>
   </g>
   <g id="line2d_8">
    <path d="M 0 306 
L 39.6 306 
L 79.2 309.253081 
L 118.8 303.252716 
L 158.4 303.799773 
L 198 304.466181 
L 237.6 305.157438 
L 277.2 306.446276 
L 316.8 306.930853 
L 356.4 306.402072 
L 396 306.468983 
L 435.6 305.949845 
L 475.2 305.770494 
L 514.8 306.18262 
L 554.4 307.25869 
L 594 307.471587 
L 633.6 307.679363 
L 673.2 307.581304 
L 712.8 307.078672 
L 752.4 307.411892 
" clip-path="url(#p81735ddc0f)" style="fill: none; stroke: #000000; stroke-width: 1.5; stroke-linecap: square"/>
   </g>
   <g id="line2d_9">
    <path d="M 0 306 
L 39.6 306 
L 79.2 309.244321 
L 118.8 303.279121 
L 158.4 303.815127 
L 198 304.47131 
L 237.6 305.152494 
L 277.2 306.421503 
L 316.8 306.900248 
L 356.4 306.386121 
L 396 306.453079 
L 435.6 305.949072 
L 475.2 305.774959 
L 514.8 306.173801 
L 554.4 307.214048 
L 594 307.422285 
L 633.6 307.625187 
L 673.2 307.534512 
L 712.8 307.056644 
L 752.4 307.375649 
" clip-path="url(#p81735ddc0f)" style="fill: none; stroke: #000000; stroke-width: 1.5; stroke-linecap: square"/>
   </g>
  </g>
 </g>
 <defs>
  <clipPath id="p81735ddc0f">
   <rect x="0" y="0" width="792" height="612"/>
  </clipPath>
 </defs>
</svg>
