<?xml version="1.0" encoding="utf-8" standalone="no"?>
<!DOCTYPE svg PUBLIC "-//W3C//DTD SVG 1.1//EN"
  "http://www.w3.org/Graphics/SVG/1.1/DTD/svg11.dtd">
<svg xmlns:xlink="http://www.w3.org/1999/xlink" width="792pt" height="612pt" viewBox="0 0 792 612" xmlns="http://www.w3.org/2000/svg" version="1.1">
 <metadata>
  <rdf:RDF xmlns:dc="http://purl.org/dc/elements/1.1/" xmlns:cc="http://creativecommons.org/ns#" xmlns:rdf="http://www.w3.org/1999/02/22-rdf-syntax-ns#">
   <cc:Work>
    <dc:type rdf:resource="http://purl.org/dc/dcmitype/StillImage"/>
    <dc:date>2023-01-30T17:17:44.576811</dc:date>
    <dc:format>image/svg+xml</dc:format>
    <dc:creator>
     <cc:Agent>
      <dc:title>Matplotlib v3.6.2, https://matplotlib.org/</dc:title>
     </cc:Agent>
    </dc:creator>
   </cc:Work>
  </rdf:RDF>
 </metadata>
 <defs>
  <style type="text/css">*{stroke-linejoin: round; stroke-linecap: butt}</style>
 </defs>
 <g id="figure_1">
  <g id="patch_1">
   <path d="M 0 612 
L 792 612 
L 792 0 
L 0 0 
z
" style="fill: #ffffff"/>
  </g>
  <g id="axes_1">
   <g id="line2d_1">
    <path d="M 0 306 
L 3.168 309.483577 
L 6.336 306.1704 
L 9.504 306.889863 
L 12.672 284.998174 
L 15.84 297.57681 
L 19.008 306.321866 
L 22.176 303.671249 
L 25.344 311.565776 
L 28.512 306.965595 
L 31.68 307.382122 
L 34.848 299.998913 
L 38.016 303.254745 
L 41.184 313.874514 
L 44.352 312.58777 
L 50.688 298.598523 
L 53.856 306.454399 
L 57.024 312.947327 
L 60.192 308.991366 
L 63.36 311.641484 
L 66.528 314.044798 
L 69.696 300.945269 
L 72.864 302.005301 
L 76.032 305.488801 
L 79.2 309.635023 
L 82.368 299.639327 
L 85.536 306.624798 
L 88.704 311.792898 
L 91.872 313.325787 
L 95.04 309.521438 
L 98.208 295.571791 
L 101.376 314.385352 
L 104.544 313.174406 
L 107.712 313.779909 
L 110.88 297.538972 
L 114.048 297.482216 
L 117.216 304.049896 
L 120.384 299.639327 
L 123.552 303.349404 
L 126.72 299.487928 
L 129.888 303.368336 
L 133.056 298.693135 
L 136.224 304.769342 
L 139.392 304.333886 
L 142.56 299.639327 
L 145.728 308.253022 
L 148.896 311.982161 
L 152.064 306.567998 
L 155.232 298.182249 
L 158.4 312.398523 
L 161.568 312.114642 
L 164.736 305.413068 
L 171.072 314.215078 
L 174.24 302.383908 
L 177.408 300.812773 
L 180.576 315.671694 
L 183.744 306.416532 
L 186.912 301.588847 
L 190.08 306.321866 
L 193.248 307.533584 
L 196.416 314.763721 
L 199.584 303.936302 
L 202.752 317.506019 
L 205.92 306.435466 
L 209.088 292.622688 
L 212.256 317.335857 
L 215.424 305.413068 
L 218.592 303.122223 
L 221.76 293.624376 
L 224.928 323.494206 
L 228.096 305.034405 
L 231.264 315.879748 
L 234.432 301.361697 
L 237.6 321.153169 
L 240.768 313.458243 
L 243.936 297.387624 
L 247.104 308.972435 
L 250.272 298.995902 
L 253.44 321.927432 
L 256.608 312.568846 
L 259.776 305.545601 
L 262.944 295.55288 
L 266.112 311.206155 
L 269.28 305.697067 
L 272.448 299.828581 
L 275.616 294.909945 
L 278.784 307.514652 
L 281.952 306.246133 
L 285.12 301.267052 
L 288.288 317.033329 
L 291.456 304.56108 
L 294.624 301.134552 
L 297.792 307.419987 
L 300.96 316.068879 
L 304.128 316.428209 
L 307.296 315.936488 
L 310.464 304.333886 
L 313.632 300.945269 
L 316.8 316.163443 
L 319.968 303.160086 
L 323.136 297.841681 
L 326.304 306.984528 
L 329.472 300.472078 
L 332.64 299.582552 
L 335.808 306 
L 338.976 313.988038 
L 342.144 302.611078 
L 345.312 310.751876 
L 348.48 301.816001 
L 351.648 301.020981 
L 354.816 303.425132 
L 357.984 299.506853 
L 361.152 304.69361 
L 364.32 310.108279 
L 367.488 304.125627 
L 370.656 306.700531 
L 373.824 300.358516 
L 376.992 302.781458 
L 380.16 311.868603 
L 383.328 298.560679 
L 386.496 302.137812 
L 389.664 301.626705 
L 392.832 308.385548 
L 396 308.15836 
L 399.168 308.555936 
L 402.336 296.176993 
L 405.504 304.939739 
L 408.672 296.233735 
L 411.84 307.893306 
L 415.008 308.839914 
L 418.176 294.418355 
L 421.344 306.605865 
L 424.512 306.870929 
L 427.68 306.908796 
L 430.848 305.905334 
L 434.016 297.822762 
L 437.184 307.419987 
L 440.352 299.166215 
L 443.52 303.936302 
L 446.688 306.302933 
L 449.856 303.122223 
L 453.024 306.75733 
L 456.192 310.979019 
L 459.36 313.477165 
L 462.528 306.643731 
L 465.696 305.432002 
L 468.864 301.267052 
L 472.032 318.129886 
L 475.2 310.240788 
L 478.368 310.676161 
L 481.536 309.199611 
L 484.704 304.598946 
L 487.872 310.070419 
L 491.04 308.423412 
L 494.208 303.292609 
L 497.376 308.839914 
L 500.544 300.491005 
L 503.712 294.531794 
L 506.88 324.135756 
L 510.048 303.216882 
L 513.216 311.565776 
L 516.384 309.161749 
L 519.552 298.844517 
L 522.72 301.418484 
L 525.888 312.020013 
L 529.056 307.855441 
L 532.224 310.373295 
L 535.392 305.356269 
L 538.56 304.125627 
L 541.728 309.635023 
L 544.896 319.925284 
L 548.064 314.101559 
L 551.232 297.955202 
L 554.4 299.09052 
L 557.568 305.432002 
L 560.736 307.836508 
L 563.904 316.106705 
L 567.072 305.375202 
L 570.24 308.726323 
L 573.408 307.211725 
L 576.576 297.198444 
L 579.744 314.725885 
L 582.912 298.371461 
L 586.08 303.462996 
L 589.248 305.791734 
L 592.416 306.889863 
L 595.584 298.65529 
L 598.752 301.872791 
L 601.92 300.528859 
L 605.088 311.660411 
L 608.256 314.612376 
L 611.424 285.318546 
L 614.592 310.543658 
L 617.76 311.092588 
L 620.928 316.636228 
L 624.096 317.638363 
L 627.264 306.946662 
L 630.432 304.977606 
L 633.6 304.901873 
L 636.768 314.763721 
L 639.936 283.321698 
L 643.104 300.642424 
L 646.272 308.688459 
L 649.44 302.667871 
L 652.608 308.366615 
L 655.776 302.346047 
L 658.944 304.920806 
L 662.112 312.20927 
L 665.28 301.891721 
L 668.448 304.314953 
L 671.616 311.60363 
L 674.784 313.363632 
L 677.952 311.773971 
L 681.12 293.01955 
L 684.288 305.469868 
L 687.456 306.946662 
L 690.624 308.23409 
L 693.792 313.041944 
L 696.96 309.729675 
L 700.128 302.762526 
L 703.296 306.927729 
L 706.464 301.588847 
L 709.632 304.144559 
L 712.8 310.278647 
L 715.968 318.69695 
L 719.136 309.767536 
L 722.304 310.05149 
L 725.472 306.132533 
L 728.64 300.036765 
L 731.808 312.095716 
L 734.976 306.700531 
L 738.144 309.464646 
L 741.312 313.552852 
L 744.48 299.241911 
L 747.648 305.394135 
L 750.816 315.198811 
L 753.984 303.557656 
L 757.152 308.537004 
L 760.32 297.293033 
L 763.488 304.996539 
L 766.656 304.901873 
L 769.824 300.774917 
L 772.992 306.151466 
L 776.16 303.444064 
L 779.328 303.76591 
L 782.496 307.382122 
L 785.664 305.8864 
L 788.832 301.077767 
L 788.832 301.077767 
" clip-path="url(#p9c94f093e3)" style="fill: none; stroke: #000000; stroke-width: 1.5; stroke-linecap: square"/>
   </g>
   <g id="line2d_2">
    <path d="M 0 306 
L 3.168 306 
L 6.336 308.32244 
L 9.504 307.092717 
L 12.672 306.984528 
L 15.84 295.623645 
L 19.008 296.615633 
L 22.176 301.505826 
L 25.344 302.592741 
L 28.512 307.090405 
L 31.68 307.023063 
L 34.848 307.204968 
L 38.016 303.588096 
L 41.184 303.457279 
L 44.352 308.698631 
L 47.52 310.655673 
L 50.688 308.104459 
L 53.856 303.325424 
L 57.024 304.88888 
L 60.192 308.929523 
L 63.36 308.978077 
L 66.528 310.326305 
L 69.696 312.186114 
L 72.864 306.543051 
L 76.032 304.267139 
L 79.2 304.891479 
L 82.368 307.269563 
L 85.536 303.427953 
L 88.704 305.021709 
L 91.872 308.407895 
L 95.04 310.865745 
L 98.208 310.210426 
L 101.376 302.876708 
L 104.544 308.649408 
L 107.712 310.919116 
L 110.88 312.377371 
L 114.048 304.939739 
L 117.216 301.182207 
L 120.384 302.597789 
L 123.552 301.09907 
L 126.72 302.239442 
L 129.888 300.834373 
L 133.056 302.08206 
L 136.224 300.357848 
L 139.392 302.577596 
L 142.56 303.469158 
L 145.728 301.545421 
L 148.896 304.91598 
L 152.064 308.466325 
L 155.232 307.53106 
L 158.4 302.84575 
L 161.568 307.649409 
L 164.736 309.896634 
L 167.904 307.657056 
L 171.072 308.789206 
L 174.24 311.514265 
L 177.408 306.930476 
L 180.576 303.860126 
L 183.744 309.801611 
L 186.912 308.097406 
L 190.08 304.822355 
L 193.248 305.57389 
L 196.416 306.549139 
L 199.584 310.658346 
L 202.752 307.300524 
L 205.92 312.437783 
L 209.088 309.418841 
L 212.256 300.989954 
L 215.424 309.196048 
L 218.592 307.302826 
L 221.76 305.203838 
L 224.928 299.370299 
L 228.096 311.479083 
L 231.264 308.232531 
L 234.432 312.075603 
L 237.6 306.736021 
L 240.768 313.956503 
L 243.936 313.723146 
L 247.104 305.543819 
L 250.272 307.288274 
L 253.44 303.093492 
L 256.608 312.549773 
L 259.776 312.552816 
L 262.944 309.057812 
L 266.112 302.253324 
L 269.28 306.725478 
L 272.448 306.227571 
L 275.616 303.009822 
L 278.784 298.950635 
L 281.952 303.203815 
L 285.12 304.712543 
L 288.288 302.981313 
L 291.456 310.051564 
L 294.624 307.293397 
L 297.792 304.204847 
L 300.96 305.827299 
L 304.128 310.990969 
L 307.296 313.727672 
L 310.464 314.851187 
L 313.632 309.599611 
L 316.8 305.240739 
L 319.968 310.726341 
L 323.136 306.94733 
L 326.304 302.374925 
L 329.472 304.661833 
L 332.64 302.535503 
L 335.808 301.026846 
L 338.976 303.516525 
L 342.144 308.778664 
L 345.312 305.668259 
L 348.48 308.225106 
L 351.648 305.028242 
L 354.816 303.012791 
L 357.984 303.224751 
L 361.152 301.365482 
L 364.32 303.026897 
L 367.488 306.560054 
L 370.656 305.3458 
L 373.824 306.015221 
L 376.992 303.18377 
L 380.16 302.986065 
L 383.328 307.444192 
L 386.496 302.999948 
L 392.832 302.078646 
L 396 305.240368 
L 399.168 306.702239 
L 402.336 307.645177 
L 405.504 301.896694 
L 408.672 303.404567 
L 411.84 299.813737 
L 415.008 303.864433 
L 418.176 306.366341 
L 421.344 300.362821 
L 424.512 303.481037 
L 427.68 305.172654 
L 430.848 306.061775 
L 434.016 305.985447 
L 437.184 301.906493 
L 440.352 304.662204 
L 443.52 301.894913 
L 446.688 302.934244 
L 449.856 304.617953 
L 453.024 303.862725 
L 456.192 305.309715 
L 459.36 308.1545 
L 462.528 310.846891 
L 465.696 308.743919 
L 468.864 307.10028 
L 472.032 304.178267 
L 475.2 311.179953 
L 478.368 310.724337 
L 481.536 310.707932 
L 484.704 309.950306 
L 487.872 307.257313 
L 491.04 308.670641 
L 494.208 308.552892 
L 497.376 305.926717 
L 500.544 307.365119 
L 503.712 303.908682 
L 506.88 299.186994 
L 510.048 311.70012 
L 513.216 307.456071 
L 516.384 309.514015 
L 519.552 309.33933 
L 522.72 304.082639 
L 525.888 302.735949 
L 529.056 307.400906 
L 532.224 307.654309 
L 535.392 308.986837 
L 538.56 307.175789 
L 541.728 305.63611 
L 544.896 307.636564 
L 548.064 313.825394 
L 551.232 313.988334 
L 554.4 305.944165 
L 557.568 302.49972 
L 560.736 303.956125 
L 563.904 305.901176 
L 567.072 311.028826 
L 570.24 308.193849 
L 573.408 308.438112 
L 576.576 307.811413 
L 579.744 302.502392 
L 582.912 308.645844 
L 586.08 303.494104 
L 589.248 303.469975 
L 595.584 305.753199 
L 598.752 302.183987 
L 601.92 302.017921 
L 605.088 301.279894 
L 608.256 306.464274 
L 611.424 310.570975 
L 614.592 297.895399 
L 617.76 304.228086 
L 620.928 307.668787 
L 624.096 312.189083 
L 627.264 314.945328 
L 630.432 310.959422 
L 633.6 307.955598 
L 636.768 306.409702 
L 639.936 310.645355 
L 643.104 296.912091 
L 646.272 298.756507 
L 649.44 303.706292 
L 652.608 303.157711 
L 655.776 305.76493 
L 658.944 304.050268 
L 662.112 304.485571 
L 665.28 308.342783 
L 668.448 305.153647 
L 671.616 304.741499 
L 674.784 308.178555 
L 677.952 310.792406 
L 681.12 311.289883 
L 684.288 302.132986 
L 690.624 305.364213 
L 693.792 306.811606 
L 696.96 309.944293 
L 700.128 309.83331 
L 703.296 306.277169 
L 706.464 306.592946 
L 709.632 304.107585 
L 712.8 304.123474 
L 715.968 307.207716 
L 719.136 312.975304 
L 722.304 311.365147 
L 725.472 310.708971 
L 728.64 308.427495 
L 731.808 304.218285 
L 734.976 308.177961 
L 738.144 307.444266 
L 741.312 308.452886 
L 744.48 310.993122 
L 747.648 305.09655 
L 750.816 305.23621 
L 753.984 310.236408 
L 757.152 306.904044 
L 760.32 307.713557 
L 763.488 302.483833 
L 766.656 303.731387 
L 769.824 304.299659 
L 772.992 302.54018 
L 776.16 304.34725 
L 779.328 303.8726 
L 782.496 303.819663 
L 785.664 305.598614 
L 788.832 305.759362 
L 788.832 305.759362 
" clip-path="url(#p9c94f093e3)" style="fill: none; stroke: #000000; stroke-width: 1.5; stroke-linecap: square"/>
   </g>
   <g id="line2d_3">
    <path d="M 0 306 
L 3.168 306 
L 6.336 308.04069 
L 9.504 307.193306 
L 12.672 307.074804 
L 15.84 299.209549 
L 19.008 298.662966 
L 22.176 301.123165 
L 25.344 301.91918 
L 28.512 304.875269 
L 34.848 306.068804 
L 38.016 304.262545 
L 41.184 303.964064 
L 44.352 306.890113 
L 47.52 308.56843 
L 50.688 307.679618 
L 53.856 305.010916 
L 57.024 305.430221 
L 60.192 307.64005 
L 63.36 308.038264 
L 66.528 309.124364 
L 69.696 310.584722 
L 72.864 307.755304 
L 76.032 306.069201 
L 79.2 305.892225 
L 82.368 306.991578 
L 85.536 304.828999 
L 88.704 305.362585 
L 95.04 309.033472 
L 98.208 309.172873 
L 101.376 305.176647 
L 104.544 307.892541 
L 107.712 309.44754 
L 110.88 310.717639 
L 114.048 306.84417 
L 117.216 304.085232 
L 120.384 304.063401 
L 123.552 302.765953 
L 126.72 302.938384 
L 129.888 301.920756 
L 133.056 302.337529 
L 136.224 301.26887 
L 139.392 302.291916 
L 142.56 302.881402 
L 145.728 301.915995 
L 148.896 303.77049 
L 152.064 306.194683 
L 155.232 306.295043 
L 158.4 303.901172 
L 161.568 306.38865 
L 164.736 308.082706 
L 167.904 307.309914 
L 171.072 308.069735 
L 174.24 309.886801 
L 177.408 307.688227 
L 180.576 305.675842 
L 183.744 308.618574 
L 186.912 307.982501 
L 190.08 306.10612 
L 193.248 306.171594 
L 196.416 306.579583 
L 199.584 308.98475 
L 202.752 307.496897 
L 205.92 310.442357 
L 209.088 309.278343 
L 212.256 304.374894 
L 215.424 308.178547 
L 218.592 307.368574 
L 221.76 306.117064 
L 224.928 302.432563 
L 228.096 308.631059 
L 231.264 307.582504 
L 234.432 310.013736 
L 237.6 307.473853 
L 240.768 311.505965 
L 243.936 312.086023 
L 247.104 307.769187 
L 250.272 308.114963 
L 253.44 305.438042 
L 256.608 310.276702 
L 259.776 310.955161 
L 262.944 309.385759 
L 266.112 305.308081 
L 269.28 307.042384 
L 272.448 306.651309 
L 275.616 304.659875 
L 278.784 301.770168 
L 281.952 303.455409 
L 285.12 304.261701 
L 288.288 303.38442 
L 291.456 307.378699 
L 294.624 306.543219 
L 297.792 304.963248 
L 300.96 305.681027 
L 304.128 308.744166 
L 307.296 310.989234 
L 310.464 312.442506 
L 313.632 310.066584 
L 316.8 307.401235 
L 319.968 309.974203 
L 323.136 307.975587 
L 326.304 305.004608 
L 329.472 305.598386 
L 332.64 304.088684 
L 335.808 302.761041 
L 338.976 303.715104 
L 342.144 306.720976 
L 345.312 305.514935 
L 348.48 307.059955 
L 351.648 305.517526 
L 354.816 304.183122 
L 357.984 303.94617 
L 361.152 302.626877 
L 364.32 303.232599 
L 367.488 305.256985 
L 370.656 304.911784 
L 373.824 305.43976 
L 376.992 303.954233 
L 380.16 303.6059 
L 383.328 306.039258 
L 386.496 303.847264 
L 392.832 302.825467 
L 396 304.460556 
L 399.168 305.540641 
L 402.336 306.431559 
L 405.504 303.421571 
L 408.672 303.867962 
L 411.84 301.627488 
L 415.008 303.466233 
L 418.176 305.038677 
L 421.344 301.91552 
L 424.512 303.289081 
L 427.68 304.345628 
L 430.848 305.101095 
L 434.016 305.3298 
L 437.184 303.129704 
L 440.352 304.392325 
L 443.52 302.858573 
L 446.688 303.169115 
L 449.856 304.084826 
L 453.024 303.79664 
L 456.192 304.675945 
L 459.36 306.529132 
L 462.528 308.58435 
L 465.696 308.014535 
L 468.864 307.254228 
L 472.032 305.508392 
L 475.2 309.220129 
L 481.536 309.865058 
L 484.704 309.67394 
L 487.872 308.195378 
L 491.04 308.747633 
L 494.208 308.663305 
L 497.376 307.089547 
L 500.544 307.605144 
L 503.712 305.518275 
L 506.88 302.284969 
L 510.048 308.706085 
L 513.216 307.08657 
L 516.384 308.404287 
L 519.552 308.63043 
L 522.72 305.761082 
L 525.888 304.469875 
L 529.056 306.683521 
L 532.224 307.023531 
L 535.392 308.006064 
L 538.56 307.23084 
L 541.728 306.314513 
L 544.896 307.288502 
L 548.064 311.011222 
L 551.232 311.922538 
L 554.4 307.828644 
L 557.568 305.27422 
L 560.736 305.298926 
L 563.904 306.047478 
L 567.072 308.999958 
L 570.24 307.933984 
L 573.408 308.177409 
L 576.576 307.901225 
L 579.744 304.748738 
L 582.912 307.679542 
L 586.08 304.939034 
L 589.248 304.50453 
L 592.416 304.883453 
L 595.584 305.467961 
L 598.752 303.447778 
L 601.92 302.97241 
L 605.088 302.259614 
L 611.424 307.846066 
L 614.592 301.213165 
L 617.76 303.939463 
L 620.928 306.041248 
L 624.096 309.154679 
L 627.264 311.652556 
L 630.432 310.285607 
L 633.6 308.719855 
L 636.768 307.609131 
L 639.936 309.718174 
L 643.104 301.949133 
L 646.272 301.559214 
L 649.44 303.658693 
L 652.608 303.369395 
L 655.776 304.842024 
L 658.944 304.100239 
L 662.112 304.329441 
L 665.28 306.668551 
L 668.448 305.259441 
L 671.616 304.97502 
L 677.952 308.796279 
L 681.12 309.674049 
L 684.288 304.780164 
L 687.456 304.982825 
L 690.624 305.549037 
L 693.792 306.364144 
L 696.96 308.33459 
L 700.128 308.744409 
L 703.296 306.992478 
L 706.464 306.971861 
L 709.632 305.394256 
L 712.8 305.027333 
L 715.968 306.563268 
L 719.136 310.138337 
L 725.472 310.03875 
L 728.64 308.886419 
L 731.808 306.280772 
L 734.976 308.006058 
L 738.144 307.625097 
L 741.312 308.166798 
L 744.48 309.750735 
L 747.648 306.656728 
L 750.816 306.281944 
L 753.984 308.908646 
L 757.152 307.337545 
L 760.32 307.696845 
L 763.488 304.641099 
L 769.824 304.770948 
L 772.992 303.590105 
L 776.16 304.335811 
L 779.328 304.071533 
L 782.496 303.986302 
L 785.664 304.975485 
L 788.832 305.24135 
L 788.832 305.24135 
" clip-path="url(#p9c94f093e3)" style="fill: none; stroke: #000000; stroke-width: 1.5; stroke-linecap: square"/>
   </g>
   <g id="line2d_4">
    <path d="M 0 306 
L 3.168 306 
L 6.336 307.892384 
L 9.504 307.216575 
L 12.672 307.112613 
L 15.84 301.032926 
L 19.008 300.182155 
L 22.176 301.572063 
L 25.344 302.017352 
L 28.512 303.940896 
L 34.848 305.059323 
L 38.016 304.139056 
L 41.184 303.98183 
L 44.352 305.70868 
L 47.52 306.89122 
L 50.688 306.662856 
L 53.856 305.308378 
L 57.024 305.499144 
L 60.192 306.730111 
L 63.36 307.101502 
L 66.528 307.84341 
L 69.696 308.852606 
L 72.864 307.570681 
L 76.032 306.671128 
L 79.2 306.480511 
L 82.368 306.988037 
L 85.536 305.807722 
L 88.704 305.938746 
L 95.04 307.908447 
L 98.208 308.166287 
L 101.376 306.153985 
L 104.544 307.469181 
L 110.88 309.243555 
L 114.048 307.375228 
L 117.216 305.808681 
L 120.384 305.532888 
L 123.552 304.590895 
L 126.72 304.393165 
L 129.888 303.605067 
L 133.056 303.565158 
L 136.224 302.784433 
L 139.392 303.103202 
L 142.56 303.299677 
L 145.728 302.708341 
L 148.896 303.587764 
L 152.064 304.927443 
L 155.232 305.193432 
L 158.4 304.072519 
L 161.568 305.397001 
L 164.736 306.467879 
L 167.904 306.296169 
L 171.072 306.863979 
L 174.24 308.042132 
L 180.576 306.132104 
L 183.744 307.654152 
L 186.912 307.461474 
L 190.08 306.523936 
L 193.248 306.488372 
L 196.416 306.651055 
L 199.584 307.945438 
L 202.752 307.3128 
L 205.92 308.937307 
L 209.088 308.535068 
L 212.256 305.988835 
L 215.424 307.807348 
L 218.592 307.431367 
L 221.76 306.745182 
L 224.928 304.652793 
L 228.096 307.666125 
L 231.264 307.250876 
L 234.432 308.632057 
L 237.6 307.476969 
L 240.768 309.664939 
L 243.936 310.274266 
L 247.104 308.222382 
L 250.272 308.342169 
L 253.44 306.846882 
L 256.608 309.258015 
L 259.776 309.793828 
L 262.944 309.113699 
L 266.112 306.945229 
L 269.28 307.626839 
L 272.448 307.3172 
L 275.616 306.116629 
L 278.784 304.328183 
L 281.952 304.839337 
L 285.12 305.057279 
L 288.288 304.450978 
L 291.456 306.463264 
L 294.624 306.15952 
L 297.792 305.355972 
L 300.96 305.679782 
L 304.128 307.340867 
L 307.296 308.786595 
L 310.464 309.930503 
L 313.632 309.047452 
L 316.8 307.748128 
L 319.968 309.09425 
L 323.136 308.150167 
L 326.304 306.512406 
L 329.472 306.57721 
L 335.808 304.634746 
L 338.976 304.854854 
L 342.144 306.303784 
L 345.312 305.70947 
L 348.48 306.520135 
L 354.816 305.013244 
L 357.984 304.749011 
L 361.152 303.906685 
L 364.32 304.031355 
L 367.488 305.007319 
L 370.656 304.862619 
L 373.824 305.155662 
L 376.992 304.392661 
L 380.16 304.141218 
L 383.328 305.373486 
L 386.496 304.284532 
L 392.832 303.565258 
L 396 304.334551 
L 402.336 305.522172 
L 405.504 304.022395 
L 408.672 304.161175 
L 411.84 302.887154 
L 418.176 304.510777 
L 421.344 302.890679 
L 427.68 304.0284 
L 430.848 304.486623 
L 434.016 304.715733 
L 437.184 303.61767 
L 440.352 304.223499 
L 443.52 303.409482 
L 446.688 303.494127 
L 449.856 303.938226 
L 453.024 303.80921 
L 456.192 304.281832 
L 459.36 305.352148 
L 462.528 306.65382 
L 465.696 306.653432 
L 468.864 306.456181 
L 472.032 305.628728 
L 475.2 307.625839 
L 481.536 308.471172 
L 484.704 308.585406 
L 487.872 307.954938 
L 491.04 308.296486 
L 494.208 308.320921 
L 497.376 307.517734 
L 500.544 307.728528 
L 503.712 306.5719 
L 506.88 304.654402 
L 510.048 307.769304 
L 513.216 307.049357 
L 516.384 307.770309 
L 519.552 307.991899 
L 522.72 306.539097 
L 525.888 305.721099 
L 529.056 306.726614 
L 532.224 306.906807 
L 535.392 307.461164 
L 538.56 307.130973 
L 541.728 306.650756 
L 544.896 307.132119 
L 548.064 309.178961 
L 551.232 309.967206 
L 554.4 308.052689 
L 557.568 306.62183 
L 560.736 306.429063 
L 563.904 306.649475 
L 567.072 308.160611 
L 570.24 307.717419 
L 573.408 307.882596 
L 576.576 307.769043 
L 579.744 306.078714 
L 582.912 307.457403 
L 586.08 306.004798 
L 589.248 305.59967 
L 592.416 305.627559 
L 595.584 305.827439 
L 598.752 304.683214 
L 601.92 304.231691 
L 605.088 303.642518 
L 608.256 304.928953 
L 611.424 306.464024 
L 614.592 303.08358 
L 620.928 305.35665 
L 624.096 307.163051 
L 627.264 308.840651 
L 630.432 308.536156 
L 636.768 307.476936 
L 639.936 308.642486 
L 643.104 304.594289 
L 646.272 303.959856 
L 649.44 304.70517 
L 652.608 304.373881 
L 655.776 305.015635 
L 658.944 304.592905 
L 662.112 304.644756 
L 665.28 305.851155 
L 668.448 305.212285 
L 671.616 305.068854 
L 677.952 307.268518 
L 681.12 307.994535 
L 684.288 305.597195 
L 687.456 305.581367 
L 690.624 305.800764 
L 693.792 306.189445 
L 696.96 307.283732 
L 700.128 307.67982 
L 703.296 306.898008 
L 706.464 306.90673 
L 709.632 306.054305 
L 712.8 305.743921 
L 715.968 306.48105 
L 719.136 308.430844 
L 725.472 308.86274 
L 728.64 308.421191 
L 731.808 307.082805 
L 734.976 307.884927 
L 738.144 307.697611 
L 741.312 307.975455 
L 744.48 308.881911 
L 747.648 307.347166 
L 750.816 307.034379 
L 753.984 308.341589 
L 757.152 307.577464 
L 760.32 307.733995 
L 763.488 306.067682 
L 769.824 305.736982 
L 772.992 304.945214 
L 776.16 305.13373 
L 782.496 304.679835 
L 785.664 305.118742 
L 788.832 305.241138 
L 788.832 305.241138 
" clip-path="url(#p9c94f093e3)" style="fill: none; stroke: #000000; stroke-width: 1.5; stroke-linecap: square"/>
   </g>
   <g id="line2d_5">
    <path d="M 0 306 
L 3.168 306 
L 6.336 307.817256 
L 9.504 307.220122 
L 12.672 307.126538 
L 15.84 301.895238 
L 19.008 301.010946 
L 22.176 301.980115 
L 25.344 302.260815 
L 28.512 303.686977 
L 34.848 304.592176 
L 38.016 304.002377 
L 41.184 303.910556 
L 44.352 305.087583 
L 47.52 305.943496 
L 50.688 305.899464 
L 53.856 305.11313 
L 57.024 305.25408 
L 60.192 306.045195 
L 63.36 306.342232 
L 66.528 306.8672 
L 69.696 307.567096 
L 72.864 306.930736 
L 76.032 306.463527 
L 79.2 306.372155 
L 82.368 306.674783 
L 85.536 306.0285 
L 88.704 306.082789 
L 95.04 307.201849 
L 98.208 307.408456 
L 101.376 306.360219 
L 104.544 307.066947 
L 110.88 308.140887 
L 117.216 306.377595 
L 120.384 306.176947 
L 123.552 305.615129 
L 126.72 305.421012 
L 129.888 304.913983 
L 133.056 304.782235 
L 136.224 304.26428 
L 142.56 304.309411 
L 145.728 303.914413 
L 148.896 304.280734 
L 152.064 304.930119 
L 155.232 305.068032 
L 158.4 304.488797 
L 164.736 305.737628 
L 167.904 305.710415 
L 171.072 306.05983 
L 174.24 306.742663 
L 180.576 305.912773 
L 183.744 306.728348 
L 186.912 306.702312 
L 190.08 306.275533 
L 196.416 306.383977 
L 199.584 307.082633 
L 202.752 306.820475 
L 205.92 307.711513 
L 209.088 307.604616 
L 212.256 306.35607 
L 215.424 307.271173 
L 218.592 307.123615 
L 221.76 306.793317 
L 224.928 305.695654 
L 228.096 307.180899 
L 231.264 307.000624 
L 234.432 307.740728 
L 237.6 307.209316 
L 240.768 308.374476 
L 243.936 308.799818 
L 247.104 307.847145 
L 250.272 307.939365 
L 253.44 307.194878 
L 256.608 308.426369 
L 259.776 308.772222 
L 262.944 308.50203 
L 266.112 307.422632 
L 269.28 307.73654 
L 272.448 307.564557 
L 275.616 306.922079 
L 278.784 305.922409 
L 281.952 306.055219 
L 285.12 306.069961 
L 288.288 305.671838 
L 291.456 306.618581 
L 294.624 306.445463 
L 297.792 306.000676 
L 300.96 306.11779 
L 307.296 307.738246 
L 310.464 308.419823 
L 313.632 308.077645 
L 316.8 307.486775 
L 319.968 308.213268 
L 323.136 307.793593 
L 326.304 306.966894 
L 329.472 306.969541 
L 335.808 305.860884 
L 338.976 305.874809 
L 342.144 306.551325 
L 345.312 306.223729 
L 348.48 306.603195 
L 354.816 305.770007 
L 357.984 305.574364 
L 361.152 305.071138 
L 364.32 305.037297 
L 367.488 305.457533 
L 370.656 305.34657 
L 373.824 305.457907 
L 376.992 305.030117 
L 380.16 304.84361 
L 383.328 305.43031 
L 386.496 304.854471 
L 392.832 304.378526 
L 402.336 305.291293 
L 405.504 304.532047 
L 408.672 304.561792 
L 411.84 303.867025 
L 418.176 304.587968 
L 421.344 303.739923 
L 430.848 304.440724 
L 434.016 304.562563 
L 437.184 303.997165 
L 440.352 304.28321 
L 443.52 303.851284 
L 446.688 303.85524 
L 449.856 304.061285 
L 453.024 303.981441 
L 456.192 304.214349 
L 459.36 304.772246 
L 462.528 305.495132 
L 468.864 305.580854 
L 472.032 305.219561 
L 475.2 306.295641 
L 481.536 306.967751 
L 484.704 307.153542 
L 487.872 306.940986 
L 491.04 307.203598 
L 494.208 307.302036 
L 497.376 306.968855 
L 500.544 307.126658 
L 503.712 306.573625 
L 506.88 305.566744 
L 510.048 307.112172 
L 513.216 306.784734 
L 516.384 307.183942 
L 519.552 307.350772 
L 522.72 306.639048 
L 525.888 306.205167 
L 529.056 306.692455 
L 532.224 306.789263 
L 535.392 307.089967 
L 541.728 306.713105 
L 544.896 306.954208 
L 548.064 308.037165 
L 551.232 308.541702 
L 554.4 307.661691 
L 557.568 306.949605 
L 560.736 306.824304 
L 563.904 306.911025 
L 567.072 307.678236 
L 570.24 307.485557 
L 573.408 307.590035 
L 576.576 307.558803 
L 579.744 306.697716 
L 582.912 307.368098 
L 586.08 306.616896 
L 589.248 306.356727 
L 595.584 306.360779 
L 598.752 305.71797 
L 605.088 304.990095 
L 608.256 305.548795 
L 611.424 306.304373 
L 614.592 304.556463 
L 620.928 305.556186 
L 627.264 307.413242 
L 630.432 307.374543 
L 636.768 306.985997 
L 639.936 307.637218 
L 643.104 305.607829 
L 646.272 305.196157 
L 649.44 305.487555 
L 652.608 305.25234 
L 655.776 305.512522 
L 658.944 305.248268 
L 662.112 305.219118 
L 665.28 305.798929 
L 668.448 305.47308 
L 671.616 305.376595 
L 681.12 306.952127 
L 684.288 305.789386 
L 687.456 305.761653 
L 693.792 306.05715 
L 696.96 306.638465 
L 700.128 306.897132 
L 703.296 306.55199 
L 706.464 306.58527 
L 709.632 306.172861 
L 712.8 305.998005 
L 715.968 306.355602 
L 719.136 307.382804 
L 725.472 307.789641 
L 728.64 307.653644 
L 731.808 307.017522 
L 734.976 307.440432 
L 738.144 307.377828 
L 741.312 307.55237 
L 744.48 308.053563 
L 747.648 307.318778 
L 750.816 307.154309 
L 753.984 307.822542 
L 757.152 307.470401 
L 760.32 307.562002 
L 763.488 306.706885 
L 769.824 306.42241 
L 772.992 305.952152 
L 776.16 305.967856 
L 782.496 305.59403 
L 785.664 305.740044 
L 788.832 305.754637 
L 788.832 305.754637 
" clip-path="url(#p9c94f093e3)" style="fill: none; stroke: #000000; stroke-width: 1.5; stroke-linecap: square"/>
   </g>
   <g id="line2d_6">
    <path d="M 0 306 
L 3.168 306 
L 6.336 307.779568 
L 9.504 307.219787 
L 12.672 307.131872 
L 15.84 302.30651 
L 19.008 301.430256 
L 22.176 302.222972 
L 25.344 302.432603 
L 28.512 303.631878 
L 34.848 304.408345 
L 38.016 303.94714 
L 41.184 303.878967 
L 44.352 304.811006 
L 47.52 305.501057 
L 50.688 305.504834 
L 53.856 304.942929 
L 57.024 305.061269 
L 60.192 305.6574 
L 63.36 305.901301 
L 66.528 306.308735 
L 69.696 306.842648 
L 76.032 306.154975 
L 79.2 306.112274 
L 82.368 306.33329 
L 85.536 305.921649 
L 88.704 305.964073 
L 95.04 306.718631 
L 98.208 306.879452 
L 101.376 306.240015 
L 107.712 307.050691 
L 110.88 307.416322 
L 117.216 306.386684 
L 120.384 306.263951 
L 123.552 305.919454 
L 126.72 305.787091 
L 129.888 305.465556 
L 133.056 305.359436 
L 136.224 305.024804 
L 142.56 304.978556 
L 145.728 304.716423 
L 148.896 304.888873 
L 152.064 305.232601 
L 155.232 305.296916 
L 158.4 304.956147 
L 164.736 305.633014 
L 167.904 305.622646 
L 171.072 305.822459 
L 174.24 306.214553 
L 180.576 305.794427 
L 183.744 306.250275 
L 186.912 306.257916 
L 190.08 306.044055 
L 196.416 306.12393 
L 199.584 306.515913 
L 202.752 306.399254 
L 205.92 306.900364 
L 209.088 306.879455 
L 212.256 306.239535 
L 215.424 306.73631 
L 221.76 306.51888 
L 224.928 305.945445 
L 228.096 306.724702 
L 231.264 306.649872 
L 234.432 307.057865 
L 237.6 306.806603 
L 240.768 307.438864 
L 243.936 307.70354 
L 247.104 307.250659 
L 250.272 307.326122 
L 253.44 306.961506 
L 256.608 307.616203 
L 259.776 307.83241 
L 262.944 307.732724 
L 266.112 307.202237 
L 269.28 307.376391 
L 272.448 307.303436 
L 275.616 306.979009 
L 278.784 306.45555 
L 285.12 306.490376 
L 288.288 306.264526 
L 291.456 306.729938 
L 294.624 306.63632 
L 297.792 306.399002 
L 300.96 306.443007 
L 310.464 307.642754 
L 313.632 307.500519 
L 316.8 307.218883 
L 319.968 307.603088 
L 323.136 307.412422 
L 326.304 307.001841 
L 329.472 307.001099 
L 335.808 306.415509 
L 338.976 306.39772 
L 342.144 306.722619 
L 345.312 306.546733 
L 348.48 306.726565 
L 361.152 305.875632 
L 364.32 305.825171 
L 367.488 306.007972 
L 370.656 305.927661 
L 373.824 305.960627 
L 376.992 305.72171 
L 380.16 305.596356 
L 383.328 305.863723 
L 386.496 305.552459 
L 392.832 305.245945 
L 402.336 305.628144 
L 405.504 305.225733 
L 408.672 305.213432 
L 411.84 304.830382 
L 418.176 305.125325 
L 421.344 304.672727 
L 434.016 304.974173 
L 437.184 304.669379 
L 440.352 304.786001 
L 443.52 304.547558 
L 453.024 304.531952 
L 456.192 304.626501 
L 462.528 305.262861 
L 468.864 305.324498 
L 472.032 305.150736 
L 475.2 305.701957 
L 484.704 306.2321 
L 487.872 306.162022 
L 494.208 306.418547 
L 497.376 306.284602 
L 500.544 306.392196 
L 503.712 306.140478 
L 506.88 305.647907 
L 510.048 306.434257 
L 513.216 306.296192 
L 519.552 306.633232 
L 522.72 306.303189 
L 525.888 306.095641 
L 529.056 306.348907 
L 538.56 306.531543 
L 541.728 306.430443 
L 544.896 306.567123 
L 548.064 307.136462 
L 551.232 307.434239 
L 557.568 306.691751 
L 563.904 306.690565 
L 567.072 307.090548 
L 570.24 307.016703 
L 576.576 307.094466 
L 579.744 306.671978 
L 582.912 307.015587 
L 586.08 306.648634 
L 592.416 306.48092 
L 595.584 306.499139 
L 598.752 306.165251 
L 605.088 305.748713 
L 608.256 306.000661 
L 611.424 306.365384 
L 614.592 305.468213 
L 620.928 305.914576 
L 627.264 306.851529 
L 633.6 306.774984 
L 636.768 306.695548 
L 639.936 307.037526 
L 643.104 306.027284 
L 646.272 305.795548 
L 649.44 305.917407 
L 652.608 305.78051 
L 655.776 305.890054 
L 658.944 305.74035 
L 662.112 305.702774 
L 665.28 305.978604 
L 668.448 305.804715 
L 671.616 305.743011 
L 681.12 306.539323 
L 684.288 305.965484 
L 690.624 305.986752 
L 693.792 306.083192 
L 696.96 306.377609 
L 700.128 306.520592 
L 703.296 306.361528 
L 706.464 306.385452 
L 709.632 306.17967 
L 712.8 306.091344 
L 715.968 306.267943 
L 719.136 306.797589 
L 725.472 307.056524 
L 728.64 307.017845 
L 731.808 306.722205 
L 734.976 306.950907 
L 738.144 306.941327 
L 741.312 307.049956 
L 744.48 307.326974 
L 747.648 306.9817 
L 750.816 306.914855 
L 753.984 307.266921 
L 757.152 307.109949 
L 760.32 307.171703 
L 763.488 306.751764 
L 769.824 306.602983 
L 772.992 306.354319 
L 776.16 306.346056 
L 782.496 306.118892 
L 788.832 306.160059 
L 788.832 306.160059 
" clip-path="url(#p9c94f093e3)" style="fill: none; stroke: #000000; stroke-width: 1.5; stroke-linecap: square"/>
   </g>
   <g id="line2d_7">
    <path d="M 0 306 
L 3.168 306 
L 6.336 307.760709 
L 9.504 307.219089 
L 12.672 307.134089 
L 15.84 302.506319 
L 19.008 301.639406 
L 22.176 302.352494 
L 25.344 302.530096 
L 28.512 303.623208 
L 34.848 304.333681 
L 38.016 303.927827 
L 41.184 303.869058 
L 44.352 304.688776 
L 47.52 305.29899 
L 50.688 305.317032 
L 53.856 304.849589 
L 57.024 304.956094 
L 60.192 305.463709 
L 63.36 305.678717 
L 69.696 306.481608 
L 76.032 305.958607 
L 79.2 305.934531 
L 82.368 306.118685 
L 85.536 305.805097 
L 88.704 305.843722 
L 98.208 306.575375 
L 101.376 306.103634 
L 107.712 306.72766 
L 110.88 307.012066 
L 117.216 306.281215 
L 120.384 306.195977 
L 123.552 305.949608 
L 126.72 305.853468 
L 129.888 305.62168 
L 133.056 305.54085 
L 136.224 305.298671 
L 142.56 305.247647 
L 145.728 305.057104 
L 148.896 305.164325 
L 152.064 305.390341 
L 155.232 305.428925 
L 158.4 305.194107 
L 164.736 305.637139 
L 167.904 305.630107 
L 171.072 305.762217 
L 174.24 306.022448 
L 180.576 305.757393 
L 183.744 306.054486 
L 186.912 306.06524 
L 190.08 305.93336 
L 196.416 305.990789 
L 199.584 306.243349 
L 202.752 306.177434 
L 205.92 306.498956 
L 209.088 306.497168 
L 212.256 306.10867 
L 215.424 306.420946 
L 221.76 306.303298 
L 224.928 305.957097 
L 228.096 306.433426 
L 231.264 306.395683 
L 234.432 306.650222 
L 237.6 306.509089 
L 240.768 306.898147 
L 243.936 307.071437 
L 247.104 306.816897 
L 250.272 306.873271 
L 253.44 306.668198 
L 256.608 307.063936 
L 259.776 307.205957 
L 262.944 307.163315 
L 266.112 306.866295 
L 269.28 306.976834 
L 272.448 306.944372 
L 275.616 306.764565 
L 278.784 306.46607 
L 285.12 306.486212 
L 288.288 306.356267 
L 291.456 306.621282 
L 300.96 306.46053 
L 310.464 307.152849 
L 316.8 306.93584 
L 319.968 307.158637 
L 323.136 307.062391 
L 326.304 306.840989 
L 329.472 306.844426 
L 335.808 306.522793 
L 338.976 306.510367 
L 342.144 306.687732 
L 345.312 306.591278 
L 348.48 306.689505 
L 364.32 306.17708 
L 367.488 306.268753 
L 380.16 306.017211 
L 383.328 306.152446 
L 389.664 305.888835 
L 392.832 305.79082 
L 402.336 305.964022 
L 405.504 305.740248 
L 408.672 305.721978 
L 411.84 305.505646 
L 418.176 305.634549 
L 421.344 305.379803 
L 434.016 305.483684 
L 437.184 305.310784 
L 440.352 305.358321 
L 446.688 305.190049 
L 459.36 305.333067 
L 462.528 305.515323 
L 468.864 305.538122 
L 472.032 305.442815 
L 475.2 305.72579 
L 484.704 306.006915 
L 487.872 305.975631 
L 494.208 306.118831 
L 497.376 306.05618 
L 500.544 306.117844 
L 503.712 305.993282 
L 506.88 305.739644 
L 510.048 306.14674 
L 513.216 306.082021 
L 519.552 306.268356 
L 525.888 306.001404 
L 532.224 306.17183 
L 535.392 306.264242 
L 544.896 306.273215 
L 548.064 306.573026 
L 551.232 306.738198 
L 557.568 306.382226 
L 563.904 306.393707 
L 567.072 306.606317 
L 573.408 306.626328 
L 576.576 306.63912 
L 579.744 306.432858 
L 582.912 306.613976 
L 586.08 306.434051 
L 592.416 306.356639 
L 595.584 306.368263 
L 601.92 306.105886 
L 605.088 305.98443 
L 611.424 306.29311 
L 614.592 305.836155 
L 620.928 306.050589 
L 627.264 306.527614 
L 639.936 306.648184 
L 643.104 306.141212 
L 646.272 306.021935 
L 649.44 306.079756 
L 652.608 306.005791 
L 655.776 306.056957 
L 662.112 305.953678 
L 665.28 306.089174 
L 671.616 305.961845 
L 681.12 306.361209 
L 684.288 306.072475 
L 693.792 306.12522 
L 700.128 306.34939 
L 712.8 306.14056 
L 715.968 306.229905 
L 719.136 306.499175 
L 728.64 306.633804 
L 731.808 306.491472 
L 734.976 306.61237 
L 741.312 306.675739 
L 744.48 306.824046 
L 747.648 306.660569 
L 750.816 306.633271 
L 753.984 306.817937 
L 782.496 306.265105 
L 788.832 306.280483 
L 788.832 306.280483 
" clip-path="url(#p9c94f093e3)" style="fill: none; stroke: #000000; stroke-width: 1.5; stroke-linecap: square"/>
   </g>
   <g id="line2d_8">
    <path d="M 0 306 
L 3.168 306 
L 6.336 307.751277 
L 9.504 307.218607 
L 12.672 307.135081 
L 15.84 302.604669 
L 19.008 301.743635 
L 22.176 302.419038 
L 25.344 302.581556 
L 28.512 303.623585 
L 34.848 304.301136 
L 38.016 303.920826 
L 41.184 303.866193 
L 44.352 304.632593 
L 47.52 305.204149 
L 50.688 305.227267 
L 53.856 304.802559 
L 57.024 304.903018 
L 60.192 305.368995 
L 63.36 305.569355 
L 69.696 306.305305 
L 76.032 305.85338 
L 79.2 305.836823 
L 82.368 306.003543 
L 85.536 305.733118 
L 88.704 305.769837 
L 98.208 306.416563 
L 101.376 306.017567 
L 107.712 306.557412 
L 110.88 306.804063 
L 117.216 306.200763 
L 120.384 306.132089 
L 123.552 305.929053 
L 126.72 305.850014 
L 129.888 305.658855 
L 133.056 305.591343 
L 136.224 305.391718 
L 142.56 305.344987 
L 145.728 305.188324 
L 155.232 305.478683 
L 158.4 305.29067 
L 164.736 305.637314 
L 171.072 305.73516 
L 174.24 305.938736 
L 180.576 305.736609 
L 183.744 305.966129 
L 202.752 306.069287 
L 205.92 306.31317 
L 209.088 306.315749 
L 212.256 306.029707 
L 215.424 306.263487 
L 221.76 306.182764 
L 224.928 305.93048 
L 228.096 306.280254 
L 231.264 306.255695 
L 234.432 306.443801 
L 237.6 306.34536 
L 240.768 306.629961 
L 243.936 306.760019 
L 247.104 306.582962 
L 250.272 306.62773 
L 253.44 306.485857 
L 256.608 306.770905 
L 259.776 306.877038 
L 262.944 306.852852 
L 266.112 306.649017 
L 272.448 306.712237 
L 281.952 306.405508 
L 300.96 306.392361 
L 310.464 306.86921 
L 316.8 306.731883 
L 319.968 306.8847 
L 338.976 306.46902 
L 342.144 306.586511 
L 345.312 306.524704 
L 348.48 306.590116 
L 364.32 306.257896 
L 370.656 306.283041 
L 376.992 306.201074 
L 380.16 306.15043 
L 383.328 306.234783 
L 392.832 305.999024 
L 402.336 306.100339 
L 405.504 305.957765 
L 408.672 305.943196 
L 411.84 305.804684 
L 418.176 305.876934 
L 421.344 305.715122 
L 434.016 305.761992 
L 437.184 305.651709 
L 440.352 305.676189 
L 446.688 305.563618 
L 459.36 305.630576 
L 465.696 305.749273 
L 472.032 305.684758 
L 478.368 305.910516 
L 487.872 305.998222 
L 494.208 306.083481 
L 506.88 305.859802 
L 510.048 306.098671 
L 516.384 306.13268 
L 519.552 306.17196 
L 525.888 306.016984 
L 535.392 306.171583 
L 544.896 306.179767 
L 551.232 306.453236 
L 557.568 306.253673 
L 563.904 306.26338 
L 567.072 306.387281 
L 598.752 306.176412 
L 608.256 306.1233 
L 611.424 306.227675 
L 614.592 305.970664 
L 624.096 306.217636 
L 627.264 306.35705 
L 639.936 306.432158 
L 643.104 306.151637 
L 649.44 306.11643 
L 662.112 306.043552 
L 665.28 306.117595 
L 671.616 306.04593 
L 681.12 306.26563 
L 684.288 306.10763 
L 693.792 306.13534 
L 700.128 306.258957 
L 712.8 306.147233 
L 734.976 306.415704 
L 741.312 306.454675 
L 744.48 306.537664 
L 750.816 306.440101 
L 753.984 306.542236 
L 788.832 306.268467 
L 788.832 306.268467 
" clip-path="url(#p9c94f093e3)" style="fill: none; stroke: #000000; stroke-width: 1.5; stroke-linecap: square"/>
   </g>
   <g id="line2d_9">
    <path d="M 0 306 
L 3.168 306 
L 6.336 307.746561 
L 9.504 307.218332 
L 12.672 307.135547 
L 15.84 302.653443 
L 19.008 301.795636 
L 22.176 302.452725 
L 25.344 302.607937 
L 28.512 303.624942 
L 34.848 304.286108 
L 38.016 303.918055 
L 41.184 303.865356 
L 44.352 304.605839 
L 47.52 305.158438 
L 50.688 305.183631 
L 53.856 304.77918 
L 57.024 304.876592 
L 60.192 305.322449 
L 63.36 305.515489 
L 69.696 306.218727 
L 76.032 305.799568 
L 79.2 305.786313 
L 82.368 305.944583 
L 85.536 305.69421 
L 88.704 305.729931 
L 98.208 306.336124 
L 101.376 305.970605 
L 110.88 306.699527 
L 117.216 306.154232 
L 120.384 306.093127 
L 123.552 305.910026 
L 133.056 305.605703 
L 136.224 305.425955 
L 142.56 305.382375 
L 145.728 305.241691 
L 155.232 305.496821 
L 158.4 305.330245 
L 164.736 305.63428 
L 171.072 305.720056 
L 174.24 305.898211 
L 180.576 305.723704 
L 183.744 305.923088 
L 202.752 306.015882 
L 205.92 306.225118 
L 209.088 306.228898 
L 212.256 305.98726 
L 215.424 306.186312 
L 221.76 306.120696 
L 224.928 305.909153 
L 228.096 306.203611 
L 231.264 306.184273 
L 234.432 306.34292 
L 237.6 306.262319 
L 240.768 306.500879 
L 243.936 306.611102 
L 247.104 306.466483 
L 250.272 306.505367 
L 253.44 306.389997 
L 256.608 306.62653 
L 262.944 306.698586 
L 266.112 306.533827 
L 272.448 306.589106 
L 281.952 306.343612 
L 300.96 306.338118 
L 310.464 306.721992 
L 345.312 306.464806 
L 351.648 306.460206 
L 364.32 306.2617 
L 373.824 306.285944 
L 380.16 306.179703 
L 383.328 306.243627 
L 392.832 306.063597 
L 402.336 306.138237 
L 411.84 305.914288 
L 418.176 305.966041 
L 421.344 305.844499 
L 440.352 305.80823 
L 446.688 305.722474 
L 472.032 305.800409 
L 478.368 305.961975 
L 494.208 306.085059 
L 506.88 305.92529 
L 510.048 306.09452 
L 516.384 306.118557 
L 522.72 306.079721 
L 529.056 306.091559 
L 548.064 306.274558 
L 551.232 306.343842 
L 560.736 306.199945 
L 589.248 306.223874 
L 601.92 306.125991 
L 608.256 306.12572 
L 611.424 306.19643 
L 614.592 306.02277 
L 639.936 306.335161 
L 643.104 306.148458 
L 652.608 306.097031 
L 668.448 306.091014 
L 674.784 306.120577 
L 681.12 306.221541 
L 687.456 306.113015 
L 719.136 306.272331 
L 744.48 306.402837 
L 750.816 306.342086 
L 757.152 306.386928 
L 766.656 306.325472 
L 788.832 306.240078 
L 788.832 306.240078 
" clip-path="url(#p9c94f093e3)" style="fill: none; stroke: #000000; stroke-width: 1.5; stroke-linecap: square"/>
   </g>
  </g>
 </g>
 <defs>
  <clipPath id="p9c94f093e3">
   <rect x="0" y="0" width="792" height="612"/>
  </clipPath>
 </defs>
</svg>
