<?xml version="1.0" encoding="utf-8" standalone="no"?>
<!DOCTYPE svg PUBLIC "-//W3C//DTD SVG 1.1//EN"
  "http://www.w3.org/Graphics/SVG/1.1/DTD/svg11.dtd">
<svg xmlns:xlink="http://www.w3.org/1999/xlink" width="792pt" height="612pt" viewBox="0 0 792 612" xmlns="http://www.w3.org/2000/svg" version="1.1">
 <metadata>
  <rdf:RDF xmlns:dc="http://purl.org/dc/elements/1.1/" xmlns:cc="http://creativecommons.org/ns#" xmlns:rdf="http://www.w3.org/1999/02/22-rdf-syntax-ns#">
   <cc:Work>
    <dc:type rdf:resource="http://purl.org/dc/dcmitype/StillImage"/>
    <dc:date>2022-12-26T20:27:59.095263</dc:date>
    <dc:format>image/svg+xml</dc:format>
    <dc:creator>
     <cc:Agent>
      <dc:title>Matplotlib v3.6.2, https://matplotlib.org/</dc:title>
     </cc:Agent>
    </dc:creator>
   </cc:Work>
  </rdf:RDF>
 </metadata>
 <defs>
  <style type="text/css">*{stroke-linejoin: round; stroke-linecap: butt}</style>
 </defs>
 <g id="figure_1">
  <g id="patch_1">
   <path d="M 0 612 
L 792 612 
L 792 0 
L 0 0 
z
" style="fill: #ffffff"/>
  </g>
  <g id="axes_1">
   <g id="line2d_1">
    <path d="M 0 459 
L 3.142857 459.882382 
L 6.285714 459.806022 
L 9.428571 460.807187 
L 12.571429 461.341707 
L 15.714286 454.723963 
L 18.857143 459.53452 
L 22 463.590085 
L 25.142857 466.067543 
L 28.285714 465.923307 
L 31.428571 465.906338 
L 34.571429 463.454334 
L 37.714286 463.072534 
L 40.857143 465.906338 
L 44 465.159707 
L 47.142857 467.934121 
L 50.285714 470.963068 
L 53.428571 472.422392 
L 56.571429 474.204126 
L 59.714286 474.874397 
L 62.857143 476.435535 
L 66 476.511895 
L 69.142857 476.910664 
L 72.285714 467.484445 
L 75.428571 463.708867 
L 78.571429 463.853103 
L 81.714286 462.809516 
L 84.857143 465.303943 
L 88 465.736649 
L 91.142857 466.356014 
L 94.285714 463.666445 
L 97.428571 462.4362 
L 100.571429 465.965729 
L 103.714286 468.918316 
L 106.857143 468.71469 
L 110 465.397272 
L 113.142857 465.600898 
L 116.285714 468.71469 
L 119.428571 470.055232 
L 122.571429 472.583597 
L 125.714286 476.189486 
L 128.857143 473.924139 
L 132 472.133921 
L 135.142857 471.904841 
L 138.285714 473.533855 
L 141.428571 470.683081 
L 144.571429 470.963068 
L 147.714286 473.559308 
L 150.857143 476.842788 
L 154 478.420895 
L 157.142857 473.745966 
L 160.285714 477.504575 
L 163.428571 480.72018 
L 166.571429 484.207287 
L 172.857143 476.596739 
L 176 475.722841 
L 179.142857 472.872068 
L 182.285714 471.684246 
L 185.428571 468.765596 
L 188.571429 467.586259 
L 191.714286 464.311263 
L 194.857143 463.759774 
L 198 463.013143 
L 201.142857 460.162369 
L 204.285714 461.172018 
L 207.428571 463.853103 
L 210.571429 464.107636 
L 213.714286 460.60356 
L 220 466.211778 
L 223.142857 465.948761 
L 226.285714 467.688072 
L 229.428571 471.370321 
L 232.571429 469.749792 
L 235.714286 467.425054 
L 238.857143 471.760606 
L 242 471.947263 
L 245.142857 469.970388 
L 248.285714 470.114623 
L 251.428571 470.801863 
L 254.571429 474.730161 
L 257.714286 473.805357 
L 260.857143 478.9639 
L 264 479.159042 
L 267.142857 473.160539 
L 270.285714 478.242722 
L 273.428571 477.979704 
L 276.571429 476.690068 
L 279.714286 471.141241 
L 282.857143 478.989353 
L 286 478.556646 
L 289.142857 482.985527 
L 292.285714 480.906837 
L 295.428571 487.702878 
L 298.571429 491.045749 
L 301.714286 487.185327 
L 304.857143 488.517385 
L 308 485.37814 
L 311.142857 492.522043 
L 314.285714 495.466145 
L 317.428571 495.262519 
L 320.571429 490.579105 
L 323.714286 492.912327 
L 326.857143 492.776576 
L 330 490.010647 
L 333.142857 485.038762 
L 336.285714 485.717518 
L 339.428571 485.827816 
L 342.571429 483.706704 
L 345.714286 488.653136 
L 348.857143 488.008318 
L 352 485.827816 
L 355.142857 486.464149 
L 364.571429 500.107137 
L 367.714286 499.360506 
L 370.857143 497.095159 
L 374 501.651306 
L 377.142857 500.378639 
L 380.285714 496.721843 
L 383.428571 497.163034 
L 386.571429 494.685576 
L 389.714286 491.80935 
L 392.857143 491.80935 
L 396 495.389785 
L 399.142857 493.87107 
L 402.285714 496.000665 
L 405.428571 494.125603 
L 408.571429 491.894194 
L 411.714286 490.740309 
L 414.857143 487.830145 
L 418 487.244718 
L 421.142857 489.085843 
L 424.285714 488.245883 
L 427.428571 488.559807 
L 430.571429 486.031442 
L 433.714286 484.589087 
L 436.857143 487.219265 
L 440 483.884878 
L 443.142857 482.154051 
L 446.285714 480.194144 
L 455.714286 483.375811 
L 458.857143 478.972384 
L 462 478.497255 
L 465.142857 474.119281 
L 468.285714 474.967726 
L 471.428571 476.240393 
L 474.571429 471.047912 
L 477.714286 471.319414 
L 484 472.116952 
L 487.142857 472.07453 
L 490.285714 468.40925 
L 493.428571 469.045583 
L 496.571429 465.982698 
L 499.714286 465.057894 
L 502.857143 465.193645 
L 506 463.904009 
L 509.142857 464.243387 
L 512.285714 466.474796 
L 515.428571 469.826152 
L 518.571429 470.114623 
L 521.714286 469.86009 
L 524.857143 467.738979 
L 528 473.177508 
L 531.142857 475.078024 
L 534.285714 477.173682 
L 537.428571 478.607553 
L 540.571429 477.979704 
L 543.714286 479.80386 
L 546.857143 480.889869 
L 550 479.676593 
L 553.142857 480.94926 
L 556.285714 478.480286 
L 559.428571 473.338712 
L 562.571429 481.475295 
L 565.714286 480.228082 
L 568.857143 482.722509 
L 572 484.139411 
L 575.142857 480.932291 
L 578.285714 478.879055 
L 581.428571 481.577109 
L 584.571429 482.408584 
L 587.714286 484.368491 
L 590.857143 484.08002 
L 594 483.24006 
L 597.142857 484.869073 
L 600.285714 491.113625 
L 603.428571 494.744968 
L 606.571429 491.139078 
L 609.714286 488.042256 
L 612.857143 487.787723 
L 616 488.610714 
L 619.142857 493.141407 
L 622.285714 492.861421 
L 625.428571 494.083181 
L 628.571429 494.626185 
L 631.714286 490.680918 
L 634.857143 494.592248 
L 638 491.173016 
L 641.142857 490.0361 
L 644.285714 489.942772 
L 647.428571 490.341541 
L 650.571429 487.049576 
L 653.714286 485.199967 
L 656.857143 482.747962 
L 660 485.284811 
L 663.142857 489.145234 
L 666.285714 479.863251 
L 669.428571 481.899518 
L 672.571429 484.181833 
L 675.714286 488.950091 
L 678.857143 494.168025 
L 682 494.592248 
L 688.285714 493.64199 
L 691.428571 497.570288 
L 694.571429 487.388954 
L 697.714286 484.987856 
L 700.857143 486.192647 
L 704 484.699384 
L 707.142857 485.75994 
L 710.285714 484.122442 
L 713.428571 483.638829 
L 716.571429 486.421727 
L 719.714286 484.580602 
L 722.857143 483.825487 
L 726 486.336882 
L 729.142857 489.637332 
L 732.285714 492.225087 
L 735.428571 486.404758 
L 738.571429 486.167193 
L 741.714286 486.591416 
L 744.857143 487.59258 
L 748 490.748794 
L 751.142857 492.42023 
L 754.285714 490.969389 
L 757.428571 491.385127 
L 760.571429 489.408252 
L 763.714286 488.576776 
L 766.857143 490.494261 
L 770 496.187323 
L 773.142857 497.875728 
L 776.285714 499.691399 
L 779.428571 499.75079 
L 782.571429 497.07819 
L 785.714286 499.810181 
L 788.857143 500.124106 
L 788.857143 500.124106 
" clip-path="url(#p0950e4a446)" style="fill: none; stroke: #000000; stroke-width: 1.5; stroke-linecap: square"/>
   </g>
   <g id="line2d_2">
    <path d="M 0 459 
L 3.142857 459 
L 6.285714 459.588255 
L 9.428571 459.712693 
L 15.714286 460.835924 
L 18.857143 459.179385 
L 22 459.358351 
L 25.142857 461.482515 
L 28.285714 463.788887 
L 31.428571 464.867942 
L 34.571429 465.399102 
L 37.714286 464.431908 
L 40.857143 463.755615 
L 44 464.847313 
L 47.142857 465.01454 
L 50.285714 466.482848 
L 53.428571 468.732557 
L 59.714286 472.413442 
L 62.857143 473.666312 
L 66 475.077125 
L 69.142857 475.815305 
L 72.285714 476.386026 
L 75.428571 471.934354 
L 78.571429 467.807386 
L 81.714286 465.813442 
L 84.857143 464.289137 
L 94.285714 465.77621 
L 100.571429 463.555881 
L 103.714286 464.76523 
L 106.857143 466.851705 
L 110 467.794776 
L 113.142857 466.596207 
L 116.285714 466.098286 
L 122.571429 468.7457 
L 125.714286 470.684545 
L 128.857143 473.457062 
L 132 473.700416 
L 135.142857 472.923873 
L 138.285714 472.427117 
L 141.428571 472.996041 
L 144.571429 471.84342 
L 147.714286 471.405024 
L 150.857143 472.484079 
L 154 474.664715 
L 157.142857 476.551622 
L 160.285714 475.151955 
L 163.428571 476.339245 
L 166.571429 478.543803 
L 169.714286 481.402063 
L 172.857143 480.926934 
L 176 478.767792 
L 179.142857 477.243121 
L 182.285714 475.046714 
L 185.428571 473.361437 
L 188.571429 471.046382 
L 191.714286 469.290567 
L 194.857143 466.761903 
L 198 465.228182 
L 201.142857 464.094028 
L 204.285714 462.097688 
L 207.428571 461.611911 
L 210.571429 462.717152 
L 213.714286 463.403261 
L 216.857143 461.989719 
L 220 462.728864 
L 223.142857 464.475129 
L 226.285714 465.217701 
L 229.428571 466.467643 
L 232.571429 468.938979 
L 235.714286 469.355947 
L 238.857143 468.397005 
L 242 470.100682 
L 245.142857 471.040592 
L 248.285714 470.51286 
L 251.428571 470.32191 
L 254.571429 470.567992 
L 257.714286 472.655665 
L 260.857143 473.238463 
L 264 476.123806 
L 267.142857 477.655931 
L 270.285714 475.410614 
L 273.428571 476.842888 
L 276.571429 477.426718 
L 279.714286 477.069938 
L 282.857143 474.098553 
L 286 476.554117 
L 289.142857 477.554583 
L 292.285714 480.277558 
L 295.428571 480.607386 
L 301.714286 487.635335 
L 304.857143 487.43091 
L 308 488.008218 
L 311.142857 486.705706 
L 317.428571 492.578173 
L 320.571429 493.948494 
L 323.714286 492.269439 
L 326.857143 492.594543 
L 330 492.696523 
L 333.142857 491.356513 
L 336.285714 488.196972 
L 339.428571 486.943903 
L 342.571429 486.366961 
L 345.714286 485.014174 
L 348.857143 486.829879 
L 352 487.409483 
L 355.142857 486.605024 
L 358.285714 486.527633 
L 361.428571 488.764399 
L 364.571429 492.228082 
L 367.714286 496.195608 
L 370.857143 497.808751 
L 374 497.468508 
L 377.142857 499.586658 
L 380.285714 500.01118 
L 383.428571 498.386625 
L 386.571429 497.786957 
L 389.714286 496.23437 
L 392.857143 494.00559 
L 396 492.892663 
L 399.142857 494.137881 
L 402.285714 493.98922 
L 405.428571 494.986358 
L 408.571429 494.55089 
L 414.857143 491.968524 
L 418 489.891532 
L 421.142857 488.559175 
L 424.285714 488.810148 
L 427.428571 488.516986 
L 430.571429 488.523806 
L 436.857143 485.911096 
L 440 486.558276 
L 443.142857 485.213841 
L 446.285714 483.673964 
L 449.428571 481.91662 
L 452.571429 481.57621 
L 455.714286 481.8909 
L 458.857143 482.628148 
L 462 480.789253 
L 465.142857 479.626152 
L 468.285714 476.853568 
L 471.428571 475.896556 
L 474.571429 476.060722 
L 477.714286 473.534287 
L 480.857143 472.405457 
L 484 472.034703 
L 490.285714 472.055864 
L 493.428571 470.221361 
L 496.571429 469.62186 
L 499.714286 467.782166 
L 502.857143 466.408285 
L 506 465.788954 
L 509.142857 464.831176 
L 512.285714 464.521843 
L 515.428571 465.48734 
L 518.571429 467.659524 
L 521.714286 468.88917 
L 524.857143 469.382233 
L 528 468.565863 
L 531.142857 470.88734 
L 537.428571 475.11449 
L 540.571429 476.884811 
L 543.714286 477.448245 
L 550 479.789087 
L 553.142857 479.756247 
L 556.285714 480.367992 
L 559.428571 479.43081 
L 562.571429 476.377242 
L 565.714286 478.931892 
L 568.857143 479.584395 
L 575.142857 482.655665 
L 578.285714 481.79644 
L 581.428571 480.333688 
L 584.571429 480.961471 
L 587.714286 481.702812 
L 590.857143 483.041324 
L 594 483.568225 
L 597.142857 483.405157 
L 600.285714 484.138546 
L 606.571429 491.226618 
L 609.714286 491.201597 
L 612.857143 489.632973 
L 616 488.717052 
L 619.142857 488.672767 
L 622.285714 490.926501 
L 631.714286 493.813974 
L 634.857143 492.246548 
L 638 493.432241 
L 644.285714 491.175478 
L 647.428571 490.552853 
L 650.571429 490.442256 
L 656.857143 486.947563 
L 660 484.832208 
L 663.142857 485.04026 
L 666.285714 487.088771 
L 669.428571 483.456064 
L 672.571429 482.66202 
L 675.714286 483.409849 
L 678.857143 486.183697 
L 682 490.193445 
L 685.142857 492.416071 
L 688.285714 493.292431 
L 691.428571 493.476027 
L 694.571429 495.557877 
L 697.714286 491.484179 
L 700.857143 488.237598 
L 704 487.209716 
L 707.142857 485.935984 
L 710.285714 485.830644 
L 713.428571 484.956912 
L 716.571429 484.278257 
L 719.714286 485.328132 
L 722.857143 484.94886 
L 726 484.384894 
L 729.142857 485.361171 
L 732.285714 487.508934 
L 735.428571 489.879687 
L 738.571429 488.146698 
L 741.714286 487.161903 
L 744.857143 486.876992 
L 748 487.240692 
L 754.285714 490.726202 
L 757.428571 490.850408 
L 760.571429 491.11612 
L 766.857143 489.42715 
L 770 489.968358 
L 773.142857 493.094693 
L 776.285714 495.499185 
L 779.428571 497.609549 
L 782.571429 498.697388 
L 785.714286 497.898952 
L 788.857143 498.874963 
L 788.857143 498.874963 
" clip-path="url(#p0950e4a446)" style="fill: none; stroke: #000000; stroke-width: 1.5; stroke-linecap: square"/>
   </g>
   <g id="line2d_3">
    <path d="M 0 459 
L 3.142857 459 
L 6.285714 459.516888 
L 9.428571 459.647889 
L 15.714286 460.542186 
L 18.857143 459.548835 
L 22 459.544236 
L 25.142857 460.808238 
L 28.285714 462.419878 
L 31.428571 463.479109 
L 34.571429 464.206093 
L 40.857143 463.712938 
L 44 464.360429 
L 47.142857 464.595832 
L 50.285714 465.577429 
L 59.714286 470.34407 
L 66 473.095242 
L 69.142857 474.117708 
L 72.285714 474.955704 
L 75.428571 472.771896 
L 78.571429 470.114687 
L 81.714286 468.278334 
L 84.857143 466.672997 
L 88 466.274135 
L 91.142857 466.119769 
L 94.285714 466.18948 
L 97.428571 465.448785 
L 100.571429 464.560104 
L 103.714286 464.966063 
L 106.857143 466.119626 
L 110 466.873397 
L 113.142857 466.430165 
L 116.285714 466.174834 
L 119.428571 466.909784 
L 122.571429 467.823191 
L 125.714286 469.223338 
L 128.857143 471.278011 
L 132 472.064611 
L 138.285714 472.047325 
L 141.428571 472.491675 
L 144.571429 471.966921 
L 147.714286 471.68128 
L 150.857143 472.244117 
L 157.142857 475.025418 
L 160.285714 474.656454 
L 163.428571 475.504556 
L 166.571429 477.049543 
L 169.714286 479.163792 
L 172.857143 479.542085 
L 179.142857 477.816177 
L 185.428571 474.994846 
L 188.571429 473.166736 
L 191.714286 471.52542 
L 194.857143 469.405124 
L 198 467.743365 
L 201.142857 466.345802 
L 204.285714 464.515557 
L 207.428571 463.516445 
L 213.714286 463.735902 
L 216.857143 462.795355 
L 220 462.969518 
L 223.142857 463.90284 
L 226.285714 464.489846 
L 229.428571 465.417356 
L 232.571429 467.159214 
L 235.714286 467.915755 
L 238.857143 467.770492 
L 242 468.943964 
L 245.142857 469.832381 
L 251.428571 469.956831 
L 254.571429 470.216556 
L 257.714286 471.554133 
L 260.857143 472.224932 
L 264 474.215794 
L 267.142857 475.684951 
L 270.285714 474.956697 
L 273.428571 475.93297 
L 276.571429 476.546263 
L 279.714286 476.598722 
L 282.857143 475 
L 286 476.179067 
L 289.142857 476.88823 
L 292.285714 478.686979 
L 295.428571 479.347452 
L 298.571429 481.815067 
L 301.714286 484.542713 
L 304.857143 485.335535 
L 308 486.283313 
L 311.142857 486.031486 
L 314.285714 487.948099 
L 317.428571 490.168814 
L 320.571429 491.686112 
L 323.714286 491.376047 
L 326.857143 491.843165 
L 330 492.135032 
L 333.142857 491.534487 
L 336.285714 489.638882 
L 339.428571 488.498566 
L 342.571429 487.719586 
L 345.714286 486.547456 
L 348.857143 487.165287 
L 352 487.408716 
L 355.142857 486.944122 
L 358.285714 486.801183 
L 361.428571 488.030939 
L 364.571429 490.266927 
L 367.714286 493.154389 
L 370.857143 494.976825 
L 374 495.604755 
L 377.142857 497.385786 
L 380.285714 498.271104 
L 383.428571 497.825045 
L 386.571429 497.645072 
L 389.714286 496.788557 
L 392.857143 495.337051 
L 396 494.313118 
L 399.142857 494.636204 
L 402.285714 494.418836 
L 405.428571 494.893827 
L 408.571429 494.67762 
L 414.857143 492.943044 
L 418 491.431409 
L 421.142857 490.191239 
L 424.285714 489.858277 
L 427.428571 489.37062 
L 430.571429 489.119563 
L 433.714286 488.202794 
L 436.857143 487.129922 
L 440 487.147514 
L 443.142857 486.182808 
L 446.285714 484.991722 
L 449.428571 483.56909 
L 452.571429 482.879225 
L 455.714286 482.673375 
L 458.857143 482.866766 
L 462 481.711286 
L 465.142857 480.755856 
L 468.285714 478.7963 
L 471.428571 477.660835 
L 474.571429 477.230043 
L 477.714286 475.399585 
L 480.857143 474.184728 
L 484 473.443359 
L 490.285714 472.740206 
L 493.428571 471.453923 
L 496.571429 470.73348 
L 499.714286 469.325685 
L 502.857143 468.057064 
L 506 467.19882 
L 509.142857 466.211427 
L 512.285714 465.618084 
L 515.428571 465.8552 
L 518.571429 467.013334 
L 521.714286 467.916106 
L 524.857143 468.478157 
L 528 468.257856 
L 531.142857 469.700923 
L 534.285714 471.279708 
L 540.571429 474.658277 
L 543.714286 475.642093 
L 550 478.066921 
L 553.142857 478.555174 
L 556.285714 479.274482 
L 559.428571 479.05861 
L 562.571429 477.393738 
L 565.714286 478.606428 
L 568.857143 479.093347 
L 575.142857 481.34957 
L 578.285714 481.242506 
L 581.428571 480.556816 
L 584.571429 480.863118 
L 587.714286 481.321787 
L 590.857143 482.220763 
L 594 482.772334 
L 597.142857 482.913274 
L 600.285714 483.490685 
L 603.428571 485.736529 
L 606.571429 488.390885 
L 609.714286 489.210352 
L 616 488.570945 
L 619.142857 488.592222 
L 622.285714 489.936614 
L 631.714286 492.631045 
L 634.857143 492.070323 
L 638 492.822972 
L 641.142857 492.347527 
L 644.285714 491.677367 
L 647.428571 491.177014 
L 650.571429 490.938595 
L 653.714286 489.79486 
L 656.857143 488.438083 
L 660 486.761847 
L 663.142857 486.326066 
L 666.285714 487.153341 
L 669.428571 485.008075 
L 672.571429 484.084687 
L 675.714286 484.103171 
L 678.857143 485.516906 
L 682 488.050234 
L 685.142857 489.970838 
L 688.285714 491.189699 
L 691.428571 491.910794 
L 694.571429 493.577075 
L 697.714286 491.761683 
L 700.857143 489.771526 
L 704 488.722312 
L 707.142857 487.543449 
L 710.285714 487.024531 
L 716.571429 485.424571 
L 719.714286 485.724164 
L 722.857143 485.392302 
L 726 484.932983 
L 729.142857 485.341174 
L 732.285714 486.594286 
L 735.428571 488.24079 
L 741.714286 487.23833 
L 744.857143 487.036243 
L 748 487.199424 
L 751.142857 488.245627 
L 754.285714 489.475493 
L 760.571429 490.355762 
L 763.714286 490.084314 
L 766.857143 489.648438 
L 770 489.900851 
L 779.428571 495.374136 
L 782.571429 496.667645 
L 785.714286 496.793465 
L 788.857143 497.692438 
L 788.857143 497.692438 
" clip-path="url(#p0950e4a446)" style="fill: none; stroke: #000000; stroke-width: 1.5; stroke-linecap: square"/>
   </g>
   <g id="line2d_4">
    <path d="M 0 459 
L 3.142857 459 
L 6.285714 459.479322 
L 9.428571 459.60754 
L 15.714286 460.360557 
L 18.857143 459.67488 
L 22 459.6431 
L 25.142857 460.480406 
L 28.285714 461.605958 
L 31.428571 462.440368 
L 34.571429 463.088102 
L 40.857143 463.140088 
L 44 463.622881 
L 47.142857 463.887029 
L 50.285714 464.573863 
L 56.571429 466.774664 
L 62.857143 469.13098 
L 66 470.324525 
L 72.285714 472.235722 
L 75.428571 471.467778 
L 78.571429 470.216872 
L 84.857143 468.167892 
L 88 467.708639 
L 91.142857 467.392814 
L 94.285714 467.226939 
L 100.571429 465.983501 
L 103.714286 465.98502 
L 110 466.822064 
L 116.285714 466.442215 
L 119.428571 466.810725 
L 122.571429 467.333502 
L 125.714286 468.174422 
L 128.857143 469.455963 
L 132 470.171858 
L 141.428571 471.173066 
L 147.714286 471.080226 
L 150.857143 471.478167 
L 157.142857 473.307338 
L 160.285714 473.37684 
L 163.428571 474.035218 
L 166.571429 475.101493 
L 169.714286 476.555059 
L 172.857143 477.171334 
L 176 477.085599 
L 179.142857 476.876276 
L 185.428571 475.524753 
L 191.714286 473.360375 
L 194.857143 471.919353 
L 204.285714 467.93596 
L 207.428571 466.854959 
L 210.571429 466.37432 
L 213.714286 466.012878 
L 216.857143 465.149118 
L 220 464.8789 
L 229.428571 465.608458 
L 232.571429 466.523597 
L 235.714286 467.035409 
L 238.857143 467.094608 
L 245.142857 468.490803 
L 254.571429 469.236195 
L 257.714286 470.108002 
L 260.857143 470.696301 
L 264 472.012616 
L 267.142857 473.148664 
L 270.285714 473.143661 
L 273.428571 473.953585 
L 276.571429 474.595018 
L 279.714286 474.928951 
L 282.857143 474.325233 
L 286 475.071869 
L 289.142857 475.632419 
L 292.285714 476.811933 
L 295.428571 477.473801 
L 298.571429 479.116223 
L 301.714286 481.031744 
L 308 483.077262 
L 311.142857 483.45677 
L 314.285714 484.916816 
L 317.428571 486.617004 
L 320.571429 488.012372 
L 323.714286 488.435952 
L 326.857143 489.164983 
L 330 489.755254 
L 333.142857 489.807518 
L 336.285714 489.058332 
L 345.714286 487.421595 
L 348.857143 487.629194 
L 352 487.700679 
L 355.142857 487.412075 
L 358.285714 487.268578 
L 361.428571 487.869454 
L 364.571429 489.118226 
L 367.714286 490.879671 
L 370.857143 492.24535 
L 374 493.028734 
L 377.142857 494.415386 
L 380.285714 495.378941 
L 386.571429 495.867224 
L 389.714286 495.689283 
L 396 494.564309 
L 399.142857 494.700441 
L 402.285714 494.570248 
L 405.428571 494.803333 
L 408.571429 494.699003 
L 411.714286 494.256813 
L 414.857143 493.696213 
L 421.142857 491.875929 
L 430.571429 490.543028 
L 436.857143 488.989763 
L 440 488.709007 
L 443.142857 487.940259 
L 446.285714 487.018683 
L 449.428571 485.927597 
L 452.571429 485.181264 
L 455.714286 484.709528 
L 458.857143 484.495402 
L 465.142857 482.78515 
L 468.285714 481.390164 
L 471.428571 480.353112 
L 474.571429 479.685751 
L 477.714286 478.292346 
L 480.857143 477.164796 
L 484 476.281265 
L 490.285714 475.027568 
L 493.428571 473.959969 
L 496.571429 473.16387 
L 502.857143 470.880007 
L 512.285714 468.204347 
L 515.428571 467.914029 
L 524.857143 468.704264 
L 528 468.537889 
L 531.142857 469.266471 
L 534.285714 470.184276 
L 540.571429 472.450296 
L 543.714286 473.32636 
L 550 475.395565 
L 556.285714 476.850303 
L 559.428571 477.106585 
L 562.571429 476.503588 
L 565.714286 477.296462 
L 568.857143 477.766705 
L 575.142857 479.452658 
L 578.285714 479.69424 
L 581.428571 479.569258 
L 587.714286 480.301233 
L 590.857143 480.956019 
L 594 481.462836 
L 597.142857 481.754455 
L 600.285714 482.261786 
L 603.428571 483.686402 
L 606.571429 485.464298 
L 609.714286 486.384169 
L 619.142857 487.146143 
L 622.285714 488.114379 
L 631.714286 490.520404 
L 634.857143 490.555678 
L 638 491.208779 
L 641.142857 491.210929 
L 647.428571 490.864632 
L 650.571429 490.787304 
L 653.714286 490.197218 
L 656.857143 489.40479 
L 660 488.348327 
L 663.142857 487.868364 
L 666.285714 488.076304 
L 669.428571 486.769351 
L 672.571429 485.994029 
L 675.714286 485.705729 
L 678.857143 486.226921 
L 682 487.499919 
L 685.142857 488.636454 
L 688.285714 489.518463 
L 691.428571 490.180317 
L 694.571429 491.364505 
L 697.714286 490.734569 
L 700.857143 489.820321 
L 704 489.240074 
L 707.142857 488.511366 
L 710.285714 488.070248 
L 716.571429 486.832373 
L 719.714286 486.765672 
L 726 485.995409 
L 729.142857 486.044905 
L 732.285714 486.61336 
L 735.428571 487.50717 
L 744.857143 487.049782 
L 748 487.134677 
L 751.142857 487.70995 
L 754.285714 488.462723 
L 760.571429 489.27147 
L 763.714286 489.295805 
L 766.857143 489.181051 
L 770 489.39662 
L 776.285714 491.670243 
L 779.428571 492.953139 
L 782.571429 494.038153 
L 785.714286 494.523385 
L 788.857143 495.368075 
L 788.857143 495.368075 
" clip-path="url(#p0950e4a446)" style="fill: none; stroke: #000000; stroke-width: 1.5; stroke-linecap: square"/>
   </g>
   <g id="line2d_5">
    <path d="M 0 459 
L 3.142857 459 
L 6.285714 459.460292 
L 9.428571 459.585652 
L 15.714286 460.264625 
L 18.857143 459.713905 
L 22 459.681165 
L 25.142857 460.330014 
L 28.285714 461.209411 
L 31.428571 461.884475 
L 34.571429 462.427725 
L 40.857143 462.622533 
L 44 463.010384 
L 47.142857 463.25563 
L 50.285714 463.773358 
L 56.571429 465.375112 
L 69.142857 468.892 
L 72.285714 469.662554 
L 75.428571 469.455955 
L 84.857143 467.929699 
L 91.142857 467.514165 
L 94.285714 467.410325 
L 100.571429 466.666037 
L 103.714286 466.604381 
L 110 466.973422 
L 116.285714 466.729672 
L 122.571429 467.171823 
L 125.714286 467.635467 
L 128.857143 468.366361 
L 132 468.840083 
L 141.428571 469.710414 
L 147.714286 469.891492 
L 150.857143 470.200738 
L 157.142857 471.404302 
L 160.285714 471.601021 
L 163.428571 472.096466 
L 166.571429 472.819525 
L 169.714286 473.773527 
L 172.857143 474.329457 
L 179.142857 474.619739 
L 185.428571 474.240811 
L 191.714286 473.266871 
L 201.142857 471.058643 
L 204.285714 470.154675 
L 207.428571 469.409571 
L 213.714286 468.548924 
L 216.857143 467.889251 
L 220 467.524498 
L 226.285714 467.296571 
L 229.428571 467.329591 
L 232.571429 467.666728 
L 235.714286 467.840865 
L 238.857143 467.807647 
L 245.142857 468.456628 
L 254.571429 468.885021 
L 257.714286 469.370895 
L 260.857143 469.738808 
L 267.142857 471.224856 
L 270.285714 471.384419 
L 276.571429 472.457584 
L 279.714286 472.813088 
L 282.857143 472.676703 
L 289.142857 473.654298 
L 292.285714 474.434366 
L 295.428571 474.976291 
L 298.571429 476.04037 
L 301.714286 477.295067 
L 308 478.991911 
L 311.142857 479.527365 
L 314.285714 480.614699 
L 317.428571 481.85703 
L 320.571429 482.978272 
L 323.714286 483.61579 
L 330 485.095102 
L 333.142857 485.508308 
L 339.428571 485.498283 
L 342.571429 485.529634 
L 345.714286 485.382577 
L 352 485.8594 
L 358.285714 485.912488 
L 361.428571 486.338503 
L 364.571429 487.117459 
L 367.714286 488.201859 
L 370.857143 489.132914 
L 374 489.799177 
L 377.142857 490.791011 
L 380.285714 491.59477 
L 386.571429 492.462534 
L 389.714286 492.655473 
L 396 492.537032 
L 399.142857 492.784093 
L 402.285714 492.884352 
L 405.428571 493.154657 
L 408.571429 493.245968 
L 414.857143 492.952165 
L 421.142857 492.104509 
L 430.571429 491.325675 
L 443.142857 489.604208 
L 455.714286 487.236266 
L 458.857143 486.918678 
L 465.142857 485.616351 
L 468.285714 484.6605 
L 471.428571 483.856627 
L 474.571429 483.223859 
L 480.857143 481.305339 
L 487.142857 479.810371 
L 490.285714 479.166218 
L 493.428571 478.268689 
L 496.571429 477.499348 
L 506 474.706518 
L 512.285714 473.001742 
L 515.428571 472.451554 
L 528 471.504385 
L 531.142857 471.636869 
L 534.285714 471.917611 
L 543.714286 473.289893 
L 556.285714 475.351782 
L 559.428571 475.608837 
L 562.571429 475.414684 
L 565.714286 475.913076 
L 568.857143 476.264734 
L 575.142857 477.400604 
L 578.285714 477.686976 
L 581.428571 477.778916 
L 587.714286 478.442909 
L 594 479.356154 
L 600.285714 480.103317 
L 603.428571 481.01623 
L 606.571429 482.155251 
L 609.714286 482.899901 
L 619.142857 484.103084 
L 625.428571 485.520865 
L 631.714286 486.931944 
L 634.857143 487.244607 
L 638 487.857687 
L 641.142857 488.134133 
L 650.571429 488.595041 
L 653.714286 488.468657 
L 656.857143 488.198335 
L 660 487.745772 
L 663.142857 487.543577 
L 666.285714 487.679974 
L 669.428571 487.033087 
L 672.571429 486.609277 
L 675.714286 486.410394 
L 678.857143 486.627005 
L 685.142857 487.876284 
L 691.428571 488.844672 
L 694.571429 489.578354 
L 697.714286 489.402613 
L 700.857143 489.042392 
L 710.285714 488.259259 
L 716.571429 487.572458 
L 719.714286 487.482353 
L 726 486.966866 
L 729.142857 486.920633 
L 732.285714 487.151465 
L 735.428571 487.578136 
L 744.857143 487.314553 
L 748 487.340163 
L 751.142857 487.626275 
L 754.285714 488.028301 
L 760.571429 488.537934 
L 770 488.773857 
L 776.285714 490.101986 
L 782.571429 491.645018 
L 785.714286 492.100994 
L 788.857143 492.746489 
L 788.857143 492.746489 
" clip-path="url(#p0950e4a446)" style="fill: none; stroke: #000000; stroke-width: 1.5; stroke-linecap: square"/>
   </g>
   <g id="line2d_6">
    <path d="M 0 459 
L 3.142857 459 
L 6.285714 459.450746 
L 9.428571 459.574337 
L 15.714286 460.216085 
L 18.857143 459.726821 
L 22 459.695654 
L 25.142857 460.259379 
L 28.285714 461.022055 
L 34.571429 462.093265 
L 40.857143 462.318009 
L 44 462.652555 
L 47.142857 462.874993 
L 50.285714 463.303974 
L 56.571429 464.59215 
L 69.142857 467.430137 
L 72.285714 468.06734 
L 75.428571 468.029111 
L 84.857143 467.218712 
L 91.142857 467.02219 
L 94.285714 466.983361 
L 103.714286 466.514375 
L 110 466.758951 
L 116.285714 466.628261 
L 122.571429 466.910332 
L 125.714286 467.20251 
L 128.857143 467.661171 
L 135.142857 468.186643 
L 150.857143 469.065722 
L 157.142857 469.870321 
L 160.285714 470.054896 
L 163.428571 470.407836 
L 166.571429 470.893978 
L 169.714286 471.518628 
L 172.857143 471.934147 
L 179.142857 472.31643 
L 185.428571 472.311828 
L 191.714286 471.941121 
L 201.142857 470.86666 
L 207.428571 469.969642 
L 223.142857 468.686855 
L 229.428571 468.526562 
L 235.714286 468.700632 
L 238.857143 468.644465 
L 248.285714 468.966427 
L 254.571429 469.094697 
L 260.857143 469.5353 
L 267.142857 470.346523 
L 270.285714 470.468774 
L 276.571429 471.117156 
L 279.714286 471.358537 
L 282.857143 471.349134 
L 292.285714 472.451754 
L 295.428571 472.816436 
L 298.571429 473.458041 
L 301.714286 474.215538 
L 314.285714 476.513953 
L 320.571429 478.097353 
L 326.857143 479.244888 
L 330 479.824722 
L 333.142857 480.260992 
L 348.857143 481.355519 
L 355.142857 481.818693 
L 358.285714 482.017066 
L 361.428571 482.3996 
L 364.571429 482.965208 
L 370.857143 484.364695 
L 374 484.907556 
L 380.285714 486.250366 
L 386.571429 487.142489 
L 389.714286 487.463784 
L 396 487.825991 
L 405.428571 488.720329 
L 411.714286 489.085127 
L 414.857143 489.160278 
L 440 488.636729 
L 446.285714 488.174978 
L 452.571429 487.562535 
L 462 486.825315 
L 465.142857 486.472835 
L 471.428571 485.482886 
L 474.571429 485.090923 
L 480.857143 483.938753 
L 496.571429 481.343848 
L 512.285714 478.127996 
L 515.428571 477.634118 
L 528 476.31594 
L 534.285714 476.135751 
L 543.714286 476.357209 
L 559.428571 477.058653 
L 562.571429 476.900872 
L 578.285714 477.880529 
L 581.428571 477.923388 
L 587.714286 478.265053 
L 600.285714 479.211642 
L 603.428571 479.720919 
L 606.571429 480.363639 
L 609.714286 480.825465 
L 619.142857 481.730885 
L 631.714286 483.653993 
L 634.857143 483.955122 
L 638 484.410232 
L 644.285714 484.930133 
L 650.571429 485.369321 
L 656.857143 485.435448 
L 660 485.32284 
L 663.142857 485.323136 
L 666.285714 485.486874 
L 672.571429 485.108032 
L 675.714286 485.069751 
L 678.857143 485.236089 
L 694.571429 487.125992 
L 700.857143 487.046599 
L 710.285714 486.86196 
L 719.714286 486.602822 
L 729.142857 486.396373 
L 738.571429 486.759472 
L 748 486.76578 
L 763.714286 487.583538 
L 770 487.744543 
L 776.285714 488.516467 
L 782.571429 489.446043 
L 788.857143 490.195805 
L 788.857143 490.195805 
" clip-path="url(#p0950e4a446)" style="fill: none; stroke: #000000; stroke-width: 1.5; stroke-linecap: square"/>
   </g>
   <g id="line2d_7">
    <path d="M 0 459 
L 3.142857 459 
L 6.285714 459.445969 
L 9.428571 459.568596 
L 15.714286 460.191769 
L 18.857143 459.731619 
L 22 459.7016 
L 25.142857 460.225298 
L 28.285714 460.932082 
L 34.571429 461.92849 
L 44 462.465733 
L 47.142857 462.673823 
L 50.285714 463.058665 
L 56.571429 464.193451 
L 69.142857 466.675412 
L 72.285714 467.234366 
L 75.428571 467.247585 
L 84.857143 466.708096 
L 103.714286 466.275261 
L 110 466.477899 
L 116.285714 466.402713 
L 122.571429 466.624938 
L 125.714286 466.84525 
L 132 467.427165 
L 144.571429 468.036251 
L 150.857143 468.314263 
L 166.571429 469.691833 
L 169.714286 470.142914 
L 172.857143 470.45907 
L 179.142857 470.799645 
L 185.428571 470.886159 
L 191.714286 470.729076 
L 201.142857 470.13819 
L 207.428571 469.61057 
L 223.142857 468.833658 
L 229.428571 468.726592 
L 235.714286 468.822931 
L 238.857143 468.785824 
L 251.428571 469.001946 
L 257.714286 469.195135 
L 260.857143 469.313537 
L 267.142857 469.80479 
L 270.285714 469.88991 
L 279.714286 470.459509 
L 282.857143 470.476542 
L 295.428571 471.422562 
L 317.428571 474.329251 
L 320.571429 474.833115 
L 333.142857 476.377159 
L 358.285714 478.081911 
L 364.571429 478.785891 
L 370.857143 479.748562 
L 377.142857 480.648519 
L 383.428571 481.464748 
L 389.714286 482.122014 
L 402.285714 483.106831 
L 408.571429 483.645551 
L 414.857143 483.9903 
L 433.714286 484.482023 
L 446.285714 484.477737 
L 455.714286 484.265082 
L 462 484.127318 
L 468.285714 483.78108 
L 477.714286 483.145656 
L 499.714286 481.237471 
L 515.428571 479.51982 
L 531.142857 478.533994 
L 537.428571 478.429813 
L 553.142857 478.533043 
L 559.428571 478.583649 
L 562.571429 478.468884 
L 597.142857 479.281469 
L 600.285714 479.403143 
L 612.857143 480.398879 
L 619.142857 480.734482 
L 638 482.289074 
L 650.571429 482.967118 
L 656.857143 483.102026 
L 663.142857 483.141786 
L 666.285714 483.271745 
L 672.571429 483.16988 
L 678.857143 483.316318 
L 694.571429 484.509842 
L 704 484.615831 
L 729.142857 484.66639 
L 741.714286 484.991877 
L 751.142857 485.203787 
L 760.571429 485.607351 
L 770 485.853545 
L 779.428571 486.617746 
L 788.857143 487.392632 
L 788.857143 487.392632 
" clip-path="url(#p0950e4a446)" style="fill: none; stroke: #000000; stroke-width: 1.5; stroke-linecap: square"/>
   </g>
   <g id="line2d_8">
    <path d="M 0 459 
L 3.142857 459 
L 6.285714 459.44358 
L 9.428571 459.565705 
L 15.714286 460.179611 
L 18.857143 459.733605 
L 22 459.704232 
L 25.142857 460.208574 
L 28.285714 460.888127 
L 34.571429 461.847161 
L 44 462.37118 
L 47.142857 462.571504 
L 50.285714 462.934576 
L 59.714286 464.585917 
L 72.285714 466.817403 
L 75.428571 466.848794 
L 88 466.374751 
L 97.428571 466.248171 
L 100.571429 466.107975 
L 106.857143 466.201329 
L 110 466.287142 
L 116.285714 466.236032 
L 122.571429 466.432111 
L 128.857143 466.908053 
L 135.142857 467.260061 
L 154 468.127444 
L 157.142857 468.392622 
L 163.428571 468.753042 
L 176 469.844757 
L 182.285714 470.048961 
L 188.571429 470.056497 
L 194.857143 469.876126 
L 204.285714 469.396806 
L 210.571429 469.111217 
L 226.285714 468.622311 
L 232.571429 468.657946 
L 254.571429 468.858597 
L 264 469.232665 
L 270.285714 469.47703 
L 279.714286 469.89847 
L 282.857143 469.919969 
L 295.428571 470.613856 
L 317.428571 472.711964 
L 323.714286 473.355706 
L 333.142857 474.223543 
L 361.428571 475.854164 
L 374 477.153711 
L 383.428571 478.13092 
L 389.714286 478.646708 
L 405.428571 479.707817 
L 414.857143 480.234612 
L 440 480.989443 
L 449.428571 481.033081 
L 465.142857 481.020911 
L 490.285714 480.196479 
L 506 479.335252 
L 515.428571 478.779089 
L 531.142857 478.237547 
L 543.714286 478.186751 
L 587.714286 478.549973 
L 603.428571 478.972596 
L 609.714286 479.313412 
L 625.428571 479.957778 
L 641.142857 480.731118 
L 656.857143 481.187371 
L 675.714286 481.372465 
L 682 481.614084 
L 697.714286 482.299439 
L 732.285714 482.68954 
L 738.571429 482.843229 
L 751.142857 483.070223 
L 763.714286 483.43404 
L 773.142857 483.720837 
L 788.857143 484.574319 
L 788.857143 484.574319 
" clip-path="url(#p0950e4a446)" style="fill: none; stroke: #000000; stroke-width: 1.5; stroke-linecap: square"/>
   </g>
   <g id="line2d_9">
    <path d="M 0 459 
L 3.142857 459 
L 6.285714 459.442386 
L 9.428571 459.564255 
L 15.714286 460.173535 
L 18.857143 459.734496 
L 22 459.705462 
L 25.142857 460.200293 
L 28.285714 460.866419 
L 34.571429 461.806814 
L 44 462.32373 
L 47.142857 462.520045 
L 50.285714 462.872341 
L 59.714286 464.465004 
L 72.285714 466.609943 
L 75.428571 466.648695 
L 88 466.233312 
L 97.428571 466.130704 
L 100.571429 466.005298 
L 106.857143 466.097587 
L 113.142857 466.1556 
L 119.428571 466.21389 
L 125.714286 466.496468 
L 132 466.949594 
L 160.285714 468.251307 
L 166.571429 468.720427 
L 172.857143 469.288576 
L 182.285714 469.633448 
L 188.571429 469.656261 
L 194.857143 469.516059 
L 226.285714 468.4924 
L 238.857143 468.528237 
L 264 469.022292 
L 273.428571 469.358141 
L 279.714286 469.582778 
L 286 469.734861 
L 295.428571 470.182667 
L 317.428571 471.906594 
L 326.857143 472.692736 
L 333.142857 473.153893 
L 361.428571 474.544999 
L 374 475.605565 
L 383.428571 476.404455 
L 392.857143 476.998772 
L 421.142857 478.388147 
L 436.857143 478.837748 
L 446.285714 479.005123 
L 471.428571 479.017896 
L 480.857143 478.841749 
L 499.714286 478.344951 
L 518.571429 477.665889 
L 534.285714 477.379205 
L 553.142857 477.465168 
L 603.428571 478.062223 
L 612.857143 478.389245 
L 625.428571 478.786372 
L 644.285714 479.441199 
L 656.857143 479.715726 
L 678.857143 479.978612 
L 697.714286 480.599859 
L 748 481.244309 
L 776.285714 481.939914 
L 788.857143 482.434169 
L 788.857143 482.434169 
" clip-path="url(#p0950e4a446)" style="fill: none; stroke: #000000; stroke-width: 1.5; stroke-linecap: square"/>
   </g>
  </g>
 </g>
 <defs>
  <clipPath id="p0950e4a446">
   <rect x="0" y="0" width="792" height="612"/>
  </clipPath>
 </defs>
</svg>
