<?xml version="1.0" encoding="utf-8" standalone="no"?>
<!DOCTYPE svg PUBLIC "-//W3C//DTD SVG 1.1//EN"
  "http://www.w3.org/Graphics/SVG/1.1/DTD/svg11.dtd">
<svg xmlns:xlink="http://www.w3.org/1999/xlink" width="792pt" height="612pt" viewBox="0 0 792 612" xmlns="http://www.w3.org/2000/svg" version="1.1">
 <metadata>
  <rdf:RDF xmlns:dc="http://purl.org/dc/elements/1.1/" xmlns:cc="http://creativecommons.org/ns#" xmlns:rdf="http://www.w3.org/1999/02/22-rdf-syntax-ns#">
   <cc:Work>
    <dc:type rdf:resource="http://purl.org/dc/dcmitype/StillImage"/>
    <dc:date>2022-12-19T20:29:16.106620</dc:date>
    <dc:format>image/svg+xml</dc:format>
    <dc:creator>
     <cc:Agent>
      <dc:title>Matplotlib v3.6.2, https://matplotlib.org/</dc:title>
     </cc:Agent>
    </dc:creator>
   </cc:Work>
  </rdf:RDF>
 </metadata>
 <defs>
  <style type="text/css">*{stroke-linejoin: round; stroke-linecap: butt}</style>
 </defs>
 <g id="figure_1">
  <g id="patch_1">
   <path d="M 0 612 
L 792 612 
L 792 0 
L 0 0 
z
" style="fill: #ffffff"/>
  </g>
  <g id="axes_1">
   <g id="line2d_1">
    <path d="M 0 306 
L 3.155378 308.455051 
L 6.310757 297.3485 
L 9.466135 318.251556 
L 12.621514 307.950127 
L 15.776892 308.420229 
L 18.932271 300.359123 
L 22.087649 301.386147 
L 25.243028 304.885631 
L 28.398406 298.949353 
L 31.553785 307.810836 
L 34.709163 305.843291 
L 37.864542 308.054595 
L 41.01992 307.096957 
L 44.175299 298.270678 
L 47.330677 310.02196 
L 50.486056 314.320925 
L 53.641434 311.083861 
L 56.796813 305.703995 
L 59.952191 305.965176 
L 63.10757 300.968361 
L 66.262948 305.216458 
L 69.418327 311.814937 
L 72.573705 304.467749 
L 75.729084 311.693095 
L 78.884462 312.21526 
L 82.039841 308.994783 
L 85.195219 309.656364 
L 88.350598 307.375546 
L 91.505976 309.203707 
L 94.661355 306.156709 
L 97.816733 306.818366 
L 100.972112 286.680902 
L 104.12749 298.253277 
L 107.282869 306.296005 
L 110.438247 303.858348 
L 113.593625 311.118676 
L 116.749004 306.888014 
L 119.904382 307.271075 
L 123.059761 300.480967 
L 126.215139 303.475305 
L 129.370518 313.242075 
L 132.525896 312.058614 
L 138.836653 299.192997 
L 141.992032 306.41789 
L 145.14741 312.389307 
L 148.302789 308.751035 
L 151.458167 311.188304 
L 154.613546 313.398694 
L 157.768924 301.351331 
L 160.924303 302.326226 
L 164.079681 305.529874 
L 167.23506 309.342988 
L 170.390438 300.150252 
L 173.545817 306.574598 
L 176.701195 311.32756 
L 179.856574 312.737388 
L 183.011952 309.238527 
L 186.167331 296.409083 
L 189.322709 313.711921 
L 192.478088 312.598158 
L 195.633466 313.155063 
L 198.788845 298.218476 
L 201.944223 298.166273 
L 205.099602 304.206576 
L 208.25498 300.150252 
L 211.410359 303.56236 
L 214.565737 300.011007 
L 217.721116 303.579771 
L 220.876494 299.280015 
L 224.031873 304.86822 
L 227.187251 304.467749 
L 230.342629 300.150252 
L 233.498008 308.072007 
L 236.653386 311.501626 
L 239.808765 306.522362 
L 242.964143 298.810132 
L 246.119522 311.88456 
L 249.2749 311.623471 
L 252.430279 305.460226 
L 258.741036 313.555309 
L 261.896414 302.674423 
L 265.051793 301.229475 
L 268.207171 314.895069 
L 271.36255 306.383066 
L 274.517928 301.943222 
L 277.673307 306.296005 
L 280.828685 307.410369 
L 283.984064 314.059931 
L 287.139442 304.102107 
L 290.294821 316.582327 
L 293.450199 306.400478 
L 296.605578 293.696292 
L 299.760956 316.425802 
L 302.916335 305.460226 
L 306.071713 303.353429 
L 309.227092 294.61775 
L 312.38247 322.091323 
L 315.537849 305.111986 
L 318.693227 315.086437 
L 321.848606 301.734315 
L 325.003984 319.937431 
L 328.159363 312.859213 
L 331.314741 298.079271 
L 334.47012 308.733625 
L 337.625498 299.55848 
L 340.780876 320.649768 
L 343.936255 312.041209 
L 347.091633 305.58211 
L 350.247012 296.391688 
L 353.40239 310.787933 
L 356.557769 305.721407 
L 359.713147 300.324311 
L 362.868526 295.800298 
L 366.023904 307.392957 
L 369.179283 306.226357 
L 372.334661 301.647272 
L 375.49004 316.147524 
L 378.645418 304.67669 
L 381.800797 301.525413 
L 384.956175 307.305899 
L 388.111554 315.260401 
L 391.266932 315.590917 
L 394.422311 315.138627 
L 397.577689 304.467749 
L 400.733068 301.351331 
L 403.888446 315.347381 
L 407.043825 303.388251 
L 410.199203 298.496895 
L 413.354582 306.905426 
L 416.50996 300.916139 
L 419.665339 300.098035 
L 422.820717 306 
L 425.976096 313.346488 
L 429.131474 302.883344 
L 432.286853 310.370136 
L 435.442231 302.152132 
L 438.59761 301.420963 
L 441.752988 303.632004 
L 444.908367 300.028413 
L 448.063745 304.798572 
L 451.219124 309.778231 
L 454.374502 304.276222 
L 457.52988 306.644246 
L 460.685259 300.811696 
L 463.840637 303.040038 
L 466.996016 311.397187 
L 470.151394 299.158191 
L 473.306773 302.448094 
L 476.462151 301.97804 
L 479.61753 308.193885 
L 482.772908 307.98495 
L 485.928287 308.350585 
L 489.083665 296.965754 
L 492.239044 305.024926 
L 495.394422 297.017945 
L 498.549801 307.74119 
L 501.705179 308.611749 
L 504.860558 295.348109 
L 508.015936 306.557186 
L 511.171315 306.800954 
L 514.326693 306.835778 
L 517.482072 305.91294 
L 520.63745 298.479494 
L 523.792829 307.305899 
L 526.948207 299.715121 
L 530.103586 304.102107 
L 533.258964 306.278593 
L 536.414343 303.353429 
L 539.569721 306.696482 
L 542.7251 310.579037 
L 545.880478 312.876616 
L 549.035857 306.59201 
L 552.191235 305.477638 
L 555.346614 301.647272 
L 558.501992 317.1562 
L 561.657371 309.900096 
L 564.812749 310.300502 
L 567.968127 308.942552 
L 571.123506 304.711513 
L 574.278884 309.743412 
L 577.434263 308.228708 
L 580.589641 303.510127 
L 583.74502 308.611749 
L 586.900398 300.933546 
L 590.055777 295.452456 
L 593.211155 322.681636 
L 596.366534 303.440483 
L 599.521912 311.118676 
L 602.677291 308.907731 
L 605.832669 299.419246 
L 608.988048 301.786541 
L 612.143426 311.536439 
L 615.298805 307.706367 
L 618.454183 310.02196 
L 621.609562 305.40799 
L 624.76494 304.276222 
L 627.920319 309.342988 
L 631.075697 318.807808 
L 634.231076 313.4509 
L 637.386454 298.601306 
L 640.541833 299.645502 
L 643.697211 305.477638 
L 646.85259 307.688955 
L 650.007968 315.295193 
L 653.163347 305.425402 
L 656.318725 308.507284 
L 659.474104 307.114369 
L 662.629482 297.905269 
L 665.784861 314.025131 
L 668.940239 298.984159 
L 672.095618 303.666826 
L 675.250996 305.808467 
L 678.406375 306.818366 
L 681.561753 299.245208 
L 684.717131 302.20436 
L 687.87251 300.968361 
L 691.027888 311.205711 
L 694.183267 313.920729 
L 697.338645 286.975746 
L 700.494024 310.178641 
L 703.649402 310.683485 
L 706.804781 315.782258 
L 709.960159 316.704064 
L 713.115538 306.870602 
L 716.270916 305.05975 
L 719.426295 304.990103 
L 722.581673 314.059931 
L 725.737052 285.13791 
L 728.89243 301.072806 
L 732.047809 308.472462 
L 735.203187 302.935575 
L 738.358566 308.176474 
L 741.513944 302.639602 
L 744.669323 305.007515 
L 747.824701 311.710501 
L 750.98008 302.221769 
L 754.135458 304.450338 
L 757.290837 311.15349 
L 760.446215 312.772195 
L 763.601594 311.310153 
L 766.756972 294.061372 
L 769.912351 305.512462 
L 773.067729 306.870602 
L 776.223108 308.054595 
L 779.378486 312.476329 
L 782.533865 309.430037 
L 785.689243 303.022627 
L 788.844622 306.85319 
L 788.844622 306.85319 
" clip-path="url(#p8b91eb637f)" style="fill: none; stroke: #000000; stroke-width: 1.5; stroke-linecap: square"/>
   </g>
   <g id="line2d_2">
    <path d="M 0 306 
L 3.155378 306 
L 6.310757 307.63672 
L 9.466135 301.756698 
L 12.621514 310.556986 
L 15.776892 309.211569 
L 18.932271 308.809624 
L 22.087649 304.550832 
L 25.243028 302.962203 
L 28.398406 303.921712 
L 31.553785 301.416594 
L 34.709163 304.634082 
L 37.864542 305.214341 
L 41.01992 306.634687 
L 44.175299 306.863227 
L 47.330677 302.562179 
L 50.486056 306.309047 
L 53.641434 310.334227 
L 56.796813 310.732842 
L 59.952191 308.214437 
L 63.10757 307.09006 
L 66.262948 304.015118 
L 69.418327 304.612096 
L 72.573705 308.240383 
L 75.729084 306.343189 
L 78.884462 309.013218 
L 82.039841 310.616584 
L 85.195219 309.812162 
L 88.350598 309.7415 
L 91.505976 308.571124 
L 94.661355 308.895236 
L 97.816733 307.514907 
L 100.972112 307.171247 
L 104.12749 296.866831 
L 107.282869 297.53265 
L 110.438247 301.908199 
L 113.593625 302.871874 
L 116.749004 307.002796 
L 119.904382 306.940864 
L 123.059761 307.108155 
L 126.215139 303.781876 
L 129.370518 303.661568 
L 132.525896 308.481817 
L 135.681275 310.28166 
L 138.836653 307.935379 
L 141.992032 303.540306 
L 145.14741 304.978153 
L 148.302789 308.69416 
L 151.458167 308.738814 
L 154.613546 309.978745 
L 157.768924 311.689204 
L 160.924303 306.499419 
L 164.079681 304.406365 
L 167.23506 304.980543 
L 170.390438 307.16756 
L 173.545817 303.634598 
L 176.701195 305.10031 
L 179.856574 308.214437 
L 183.011952 310.47486 
L 186.167331 309.872173 
L 189.322709 303.127636 
L 192.478088 308.436548 
L 195.633466 310.523945 
L 198.788845 311.865106 
L 201.944223 305.024926 
L 205.099602 301.569241 
L 208.25498 302.871123 
L 211.410359 301.492781 
L 214.565737 302.541561 
L 217.721116 301.24934 
L 220.876494 302.396821 
L 224.031873 300.811081 
L 227.187251 302.852552 
L 230.342629 303.672493 
L 233.498008 301.903283 
L 236.653386 305.003076 
L 239.808765 308.268173 
L 242.964143 307.408047 
L 246.119522 303.099165 
L 249.2749 307.516888 
L 252.430279 309.583585 
L 255.585657 307.52392 
L 258.741036 308.565116 
L 261.896414 311.071301 
L 265.051793 306.855716 
L 268.207171 304.032052 
L 271.36255 309.496195 
L 274.517928 307.928892 
L 277.673307 304.916973 
L 280.828685 305.608126 
L 283.984064 306.505018 
L 287.139442 310.284117 
L 290.294821 307.196034 
L 293.450199 311.920668 
L 296.605578 309.144171 
L 299.760956 301.392427 
L 302.916335 308.939275 
L 306.071713 307.19815 
L 309.227092 305.267806 
L 312.38247 299.902821 
L 315.537849 311.038944 
L 318.693227 308.053161 
L 321.848606 311.587566 
L 325.003984 306.676885 
L 328.159363 313.317485 
L 331.314741 313.102855 
L 334.47012 305.580471 
L 337.625498 307.184767 
L 340.780876 303.327006 
L 343.936255 312.023667 
L 347.091633 312.026465 
L 350.247012 308.812143 
L 353.40239 302.554328 
L 356.557769 306.667189 
L 359.713147 306.209286 
L 362.868526 303.250057 
L 366.023904 299.516846 
L 369.179283 303.428466 
L 372.334661 304.815984 
L 375.49004 303.223839 
L 378.645418 309.726071 
L 381.800797 307.189478 
L 384.956175 304.349077 
L 388.111554 305.841174 
L 391.266932 310.590028 
L 394.422311 313.107018 
L 397.577689 314.14038 
L 400.733068 309.310421 
L 403.888446 305.301742 
L 407.043825 310.346652 
L 410.199203 306.871216 
L 413.354582 302.666161 
L 416.50996 304.769348 
L 419.665339 302.81384 
L 422.820717 301.426356 
L 425.976096 303.716055 
L 429.131474 308.55542 
L 432.286853 305.694913 
L 435.442231 308.046333 
L 438.59761 305.106319 
L 441.752988 303.252788 
L 444.908367 303.447721 
L 448.063745 301.737797 
L 451.219124 303.265761 
L 454.374502 306.515056 
L 457.52988 305.398362 
L 460.685259 306.013998 
L 463.840637 303.410031 
L 466.996016 303.228208 
L 470.151394 307.328158 
L 473.306773 303.240976 
L 479.61753 302.39368 
L 482.772908 305.301401 
L 485.928287 306.645817 
L 489.083665 307.512996 
L 492.239044 302.226344 
L 495.394422 303.61309 
L 498.549801 300.310659 
L 501.705179 304.036012 
L 504.860558 306.336907 
L 508.015936 300.815655 
L 511.171315 303.683417 
L 514.326693 305.239128 
L 517.482072 306.056811 
L 520.63745 305.986617 
L 523.792829 302.235356 
L 526.948207 304.769689 
L 530.103586 302.224705 
L 533.258964 303.180551 
L 536.414343 304.728993 
L 539.569721 304.034442 
L 542.7251 305.365177 
L 549.035857 310.45752 
L 552.191235 308.523466 
L 555.346614 307.011877 
L 558.501992 304.324633 
L 561.657371 310.763835 
L 564.812749 310.344809 
L 567.968127 310.329721 
L 571.123506 309.632946 
L 574.278884 307.156294 
L 577.434263 308.456076 
L 580.589641 308.347786 
L 583.74502 305.932605 
L 586.900398 307.255439 
L 590.055777 304.076707 
L 593.211155 299.734232 
L 596.366534 311.242232 
L 599.521912 307.339083 
L 602.677291 309.2317 
L 605.832669 309.071047 
L 608.988048 304.236687 
L 612.143426 302.998184 
L 615.298805 307.28835 
L 618.454183 307.521394 
L 621.609562 308.746871 
L 624.76494 307.08132 
L 627.920319 305.665347 
L 631.075697 307.505075 
L 634.231076 313.196897 
L 637.386454 313.346761 
L 640.541833 305.948651 
L 643.697211 302.780931 
L 646.85259 304.120338 
L 650.007968 305.909116 
L 653.163347 310.624844 
L 656.318725 308.017588 
L 659.474104 308.242227 
L 662.629482 307.665876 
L 665.784861 302.783389 
L 668.940239 308.433271 
L 672.095618 303.695434 
L 675.250996 303.673244 
L 681.561753 305.773028 
L 684.717131 302.49056 
L 687.87251 302.337833 
L 691.027888 301.659083 
L 694.183267 306.426971 
L 697.338645 310.203764 
L 700.494024 298.546302 
L 703.649402 304.370449 
L 706.804781 307.534709 
L 709.960159 311.691935 
L 713.115538 314.226969 
L 716.270916 310.561014 
L 719.426295 307.798477 
L 722.581673 306.376784 
L 725.737052 310.27217 
L 728.89243 297.641888 
L 732.047809 299.338301 
L 735.203187 303.890576 
L 738.358566 303.386066 
L 741.513944 305.783817 
L 744.669323 304.206917 
L 747.824701 304.607248 
L 750.98008 308.154556 
L 754.135458 305.221647 
L 757.290837 304.842614 
L 760.446215 308.003522 
L 763.601594 310.407411 
L 766.756972 310.864937 
L 769.912351 302.443656 
L 776.223108 305.415296 
L 779.378486 306.746397 
L 782.533865 309.627416 
L 785.689243 309.525348 
L 788.844622 306.254899 
L 788.844622 306.254899 
" clip-path="url(#p8b91eb637f)" style="fill: none; stroke: #000000; stroke-width: 1.5; stroke-linecap: square"/>
   </g>
   <g id="line2d_3">
    <path d="M 0 306 
L 3.155378 306 
L 6.310757 307.438156 
L 9.466135 302.865786 
L 12.621514 308.876711 
L 15.776892 308.547048 
L 18.932271 308.504598 
L 22.087649 305.887357 
L 25.243028 304.480995 
L 28.398406 304.60499 
L 31.553785 302.894779 
L 34.709163 304.367142 
L 37.864542 304.806354 
L 41.01992 305.768376 
L 44.175299 306.160573 
L 47.330677 303.836391 
L 50.486056 305.65525 
L 53.641434 308.20349 
L 56.796813 309.050214 
L 59.952191 308.079768 
L 63.10757 307.446311 
L 66.262948 305.540818 
L 69.418327 305.442135 
L 72.573705 307.322042 
L 75.729084 306.48958 
L 78.884462 308.021638 
L 82.039841 309.265308 
L 85.195219 309.187433 
L 88.350598 309.329161 
L 91.505976 308.756201 
L 94.661355 308.889694 
L 97.816733 308.098309 
L 100.972112 307.719748 
L 104.12749 301.518631 
L 107.282869 300.547357 
L 110.438247 302.231559 
L 113.593625 302.705597 
L 116.749004 305.181442 
L 123.059761 306.143064 
L 126.215139 304.479931 
L 129.370518 304.176239 
L 132.525896 306.83312 
L 135.681275 308.367338 
L 138.836653 307.546904 
L 141.992032 305.090385 
L 145.14741 305.476001 
L 148.302789 307.50828 
L 151.458167 307.874502 
L 154.613546 308.873349 
L 157.768924 310.216407 
L 160.924303 307.614275 
L 164.079681 306.063641 
L 167.23506 305.900884 
L 170.390438 306.911909 
L 173.545817 304.923083 
L 176.701195 305.413798 
L 183.011952 308.789759 
L 186.167331 308.917962 
L 189.322709 305.2428 
L 192.478088 307.740486 
L 195.633466 309.170564 
L 198.788845 310.338649 
L 201.944223 306.776345 
L 205.099602 304.239073 
L 208.25498 304.218995 
L 211.410359 303.025779 
L 214.565737 303.184358 
L 217.721116 302.248473 
L 220.876494 302.631769 
L 224.031873 301.648944 
L 227.187251 302.58982 
L 230.342629 303.131954 
L 233.498008 302.244094 
L 236.653386 303.949617 
L 239.808765 306.179041 
L 242.964143 306.271337 
L 246.119522 304.069799 
L 249.2749 306.357424 
L 252.430279 307.915373 
L 255.585657 307.204668 
L 258.741036 307.903445 
L 261.896414 309.574542 
L 265.051793 307.552587 
L 268.207171 305.701887 
L 271.36255 308.408192 
L 274.517928 307.823219 
L 277.673307 306.097594 
L 280.828685 306.157807 
L 283.984064 306.533016 
L 287.139442 308.744951 
L 290.294821 307.376629 
L 293.450199 310.085476 
L 296.605578 309.014959 
L 299.760956 304.505463 
L 302.916335 308.003515 
L 306.071713 307.258616 
L 309.227092 306.107659 
L 312.38247 302.71917 
L 315.537849 308.419674 
L 318.693227 307.455358 
L 321.848606 309.691281 
L 325.003984 307.355436 
L 328.159363 311.063667 
L 331.314741 311.597149 
L 334.47012 307.627042 
L 337.625498 307.945039 
L 340.780876 305.483193 
L 343.936255 309.933126 
L 347.091633 310.557095 
L 350.247012 309.113746 
L 353.40239 305.363674 
L 356.557769 306.958633 
L 359.713147 306.598979 
L 362.868526 304.767548 
L 366.023904 302.109979 
L 369.179283 303.659848 
L 372.334661 304.401364 
L 375.49004 303.594562 
L 378.645418 307.267928 
L 381.800797 306.499574 
L 384.956175 305.046546 
L 388.111554 305.706655 
L 391.266932 308.523693 
L 394.422311 310.588432 
L 397.577689 311.925012 
L 400.733068 309.739884 
L 403.888446 307.288653 
L 407.043825 309.654923 
L 410.199203 307.81686 
L 413.354582 305.084583 
L 416.50996 305.630654 
L 419.665339 304.242247 
L 422.820717 303.021262 
L 425.976096 303.89868 
L 429.131474 306.663048 
L 432.286853 305.553908 
L 435.442231 306.974792 
L 438.59761 305.556291 
L 441.752988 304.329098 
L 444.908367 304.111183 
L 448.063745 302.897875 
L 451.219124 303.454938 
L 454.374502 305.316683 
L 457.52988 304.999217 
L 460.685259 305.484773 
L 463.840637 304.118598 
L 466.996016 303.798249 
L 470.151394 306.036103 
L 473.306773 304.020223 
L 479.61753 303.080512 
L 482.772908 304.584243 
L 485.928287 305.577548 
L 489.083665 306.396885 
L 492.239044 303.628729 
L 495.394422 304.039258 
L 498.549801 301.97876 
L 501.705179 303.669803 
L 504.860558 305.115915 
L 508.015936 302.243657 
L 511.171315 303.506882 
L 514.326693 304.478547 
L 517.482072 305.173318 
L 520.63745 305.383648 
L 523.792829 303.360309 
L 526.948207 304.521493 
L 530.103586 303.110958 
L 533.258964 303.396554 
L 536.414343 304.238699 
L 539.569721 303.973666 
L 542.7251 304.782326 
L 545.880478 306.486618 
L 549.035857 308.376716 
L 552.191235 307.85268 
L 555.346614 307.153456 
L 558.501992 305.54789 
L 561.657371 308.961422 
L 567.968127 309.554545 
L 571.123506 309.378779 
L 574.278884 308.018994 
L 577.434263 308.526882 
L 580.589641 308.449328 
L 583.74502 307.002007 
L 586.900398 307.476179 
L 590.055777 305.556979 
L 593.211155 302.583431 
L 596.366534 308.488672 
L 599.521912 306.99927 
L 602.677291 308.211119 
L 605.832669 308.419095 
L 608.988048 305.780279 
L 612.143426 304.592812 
L 615.298805 306.628603 
L 618.454183 306.941295 
L 621.609562 307.844889 
L 624.76494 307.131948 
L 627.920319 306.289243 
L 631.075697 307.184977 
L 634.231076 310.608654 
L 637.386454 311.446791 
L 640.541833 307.681723 
L 643.697211 305.332534 
L 646.85259 305.355254 
L 650.007968 306.043664 
L 653.163347 308.758937 
L 656.318725 307.7786 
L 659.474104 308.002468 
L 662.629482 307.748472 
L 665.784861 304.849271 
L 668.940239 307.5446 
L 672.095618 305.024278 
L 675.250996 304.624683 
L 678.406375 304.973163 
L 681.561753 305.510708 
L 684.717131 303.652831 
L 687.87251 303.215651 
L 691.027888 302.560113 
L 697.338645 307.697745 
L 700.494024 301.597713 
L 703.649402 304.105014 
L 706.804781 306.037934 
L 709.960159 308.90123 
L 713.115538 311.198487 
L 716.270916 309.941315 
L 719.426295 308.501336 
L 722.581673 307.479846 
L 725.737052 309.41946 
L 728.89243 302.27457 
L 732.047809 301.915969 
L 735.203187 303.846801 
L 738.358566 303.580745 
L 741.513944 304.935062 
L 744.669323 304.252874 
L 747.824701 304.463662 
L 750.98008 306.614835 
L 754.135458 305.318942 
L 757.290837 305.057372 
L 763.601594 308.57162 
L 766.756972 309.378879 
L 769.912351 304.878172 
L 773.067729 305.06455 
L 776.223108 305.58527 
L 779.378486 306.334887 
L 782.533865 308.147021 
L 785.689243 308.523918 
L 788.844622 306.912737 
L 788.844622 306.912737 
" clip-path="url(#p8b91eb637f)" style="fill: none; stroke: #000000; stroke-width: 1.5; stroke-linecap: square"/>
   </g>
   <g id="line2d_4">
    <path d="M 0 306 
L 3.155378 306 
L 6.310757 307.333638 
L 9.466135 303.41399 
L 12.621514 308.137418 
L 15.776892 308.086002 
L 18.932271 308.168262 
L 22.087649 306.400015 
L 25.243028 305.33631 
L 28.398406 305.245518 
L 31.553785 304.028449 
L 34.709163 304.735306 
L 37.864542 304.936772 
L 41.01992 305.491098 
L 44.175299 305.771369 
L 47.330677 304.481891 
L 50.486056 305.422128 
L 53.641434 306.916838 
L 56.796813 307.610547 
L 63.10757 307.077018 
L 66.262948 306.07881 
L 69.418327 305.938506 
L 72.573705 306.89128 
L 75.729084 306.499566 
L 82.039841 308.121909 
L 88.350598 308.48568 
L 91.505976 308.307889 
L 94.661355 308.451212 
L 97.816733 308.084456 
L 100.972112 307.88223 
L 104.12749 304.492892 
L 107.282869 303.493563 
L 110.438247 303.945009 
L 113.593625 303.922237 
L 116.749004 305.069245 
L 123.059761 305.666405 
L 126.215139 304.840729 
L 129.370518 304.622601 
L 132.525896 306.003117 
L 135.681275 306.969342 
L 138.836653 306.748466 
L 141.992032 305.540657 
L 145.14741 305.679804 
L 148.302789 306.756267 
L 151.458167 307.072857 
L 154.613546 307.725749 
L 157.768924 308.62996 
L 160.924303 307.469174 
L 164.079681 306.648623 
L 167.23506 306.473472 
L 170.390438 306.932616 
L 173.545817 305.846128 
L 176.701195 305.963345 
L 183.011952 307.759156 
L 186.167331 307.994688 
L 189.322709 306.142633 
L 192.478088 307.35114 
L 198.788845 308.982966 
L 201.944223 307.264736 
L 205.099602 305.824052 
L 208.25498 305.570419 
L 211.410359 304.70411 
L 214.565737 304.522265 
L 217.721116 303.797483 
L 220.876494 303.76078 
L 224.031873 303.042774 
L 227.187251 303.335936 
L 230.342629 303.516627 
L 233.498008 302.972794 
L 236.653386 303.78157 
L 239.808765 305.013618 
L 242.964143 305.258237 
L 246.119522 304.227381 
L 249.2749 305.445449 
L 252.430279 306.430287 
L 255.585657 306.272373 
L 258.741036 306.794562 
L 261.896414 307.878059 
L 268.207171 306.12149 
L 271.36255 307.52125 
L 274.517928 307.344052 
L 277.673307 306.48184 
L 280.828685 306.449133 
L 283.984064 306.598746 
L 287.139442 307.789133 
L 290.294821 307.207323 
L 293.450199 308.701319 
L 296.605578 308.331393 
L 299.760956 305.989732 
L 302.916335 307.662138 
L 306.071713 307.316364 
L 309.227092 306.685309 
L 312.38247 304.761034 
L 315.537849 307.532261 
L 318.693227 307.150375 
L 321.848606 308.420591 
L 325.003984 307.358302 
L 328.159363 309.370501 
L 331.314741 309.930885 
L 334.47012 308.043828 
L 337.625498 308.153992 
L 340.780876 306.778839 
L 343.936255 308.996264 
L 347.091633 309.489037 
L 350.247012 308.863541 
L 353.40239 306.869284 
L 356.557769 307.496132 
L 359.713147 307.211369 
L 362.868526 306.107259 
L 366.023904 304.462504 
L 369.179283 304.932591 
L 372.334661 305.133022 
L 375.49004 304.575433 
L 378.645418 306.426043 
L 381.800797 306.146703 
L 384.956175 305.407717 
L 388.111554 305.70551 
L 391.266932 307.233135 
L 394.422311 308.562714 
L 397.577689 309.614734 
L 400.733068 308.802616 
L 403.888446 307.607676 
L 407.043825 308.845655 
L 410.199203 307.977415 
L 413.354582 306.471237 
L 416.50996 306.530834 
L 422.820717 304.744437 
L 425.976096 304.946862 
L 429.131474 306.279376 
L 432.286853 305.732813 
L 435.442231 306.478345 
L 441.752988 305.092525 
L 444.908367 304.849522 
L 448.063745 304.07487 
L 451.219124 304.189524 
L 454.374502 305.087077 
L 457.52988 304.954003 
L 460.685259 305.223501 
L 463.840637 304.521802 
L 466.996016 304.290561 
L 470.151394 305.423824 
L 473.306773 304.42236 
L 479.61753 303.760873 
L 482.772908 304.468361 
L 489.083665 305.560563 
L 492.239044 304.181283 
L 495.394422 304.308914 
L 498.549801 303.137244 
L 504.860558 304.630428 
L 508.015936 303.140485 
L 514.326693 304.186806 
L 517.482072 304.608215 
L 520.63745 304.818917 
L 523.792829 303.809074 
L 526.948207 304.366231 
L 530.103586 303.617611 
L 533.258964 303.695455 
L 536.414343 304.103877 
L 539.569721 303.985225 
L 542.7251 304.419878 
L 545.880478 305.4042 
L 549.035857 306.601289 
L 552.191235 306.600931 
L 555.346614 306.419528 
L 558.501992 305.658558 
L 561.657371 307.495211 
L 567.968127 308.272631 
L 571.123506 308.377688 
L 574.278884 307.79787 
L 577.434263 308.111978 
L 580.589641 308.13445 
L 583.74502 307.395792 
L 586.900398 307.58965 
L 590.055777 306.52595 
L 593.211155 304.762514 
L 596.366534 307.627151 
L 599.521912 306.965046 
L 602.677291 307.628074 
L 605.832669 307.831862 
L 608.988048 306.495783 
L 612.143426 305.743507 
L 615.298805 306.668234 
L 618.454183 306.833949 
L 621.609562 307.343767 
L 624.76494 307.040105 
L 627.920319 306.598471 
L 631.075697 307.041159 
L 634.231076 308.92356 
L 637.386454 309.648489 
L 640.541833 307.887768 
L 643.697211 306.571868 
L 646.85259 306.39459 
L 650.007968 306.597292 
L 653.163347 307.98702 
L 656.318725 307.579434 
L 659.474104 307.731341 
L 662.629482 307.626911 
L 665.784861 306.07239 
L 668.940239 307.340309 
L 672.095618 306.004413 
L 675.250996 305.631835 
L 678.406375 305.657483 
L 681.561753 305.841304 
L 684.717131 304.789011 
L 687.87251 304.373765 
L 691.027888 303.831926 
L 694.183267 305.015006 
L 697.338645 306.426742 
L 700.494024 303.31789 
L 706.804781 305.40834 
L 713.115538 308.612428 
L 716.270916 308.332394 
L 722.581673 307.358272 
L 725.737052 308.430182 
L 728.89243 304.707231 
L 732.047809 304.123769 
L 735.203187 304.809204 
L 738.358566 304.504531 
L 741.513944 305.094724 
L 744.669323 304.705958 
L 747.824701 304.753643 
L 750.98008 305.863114 
L 754.135458 305.275575 
L 757.290837 305.143667 
L 763.601594 307.166599 
L 766.756972 307.834286 
L 769.912351 305.629559 
L 773.067729 305.615002 
L 776.223108 305.816772 
L 779.378486 306.174224 
L 782.533865 307.18059 
L 785.689243 307.544856 
L 788.844622 306.825857 
L 788.844622 306.825857 
" clip-path="url(#p8b91eb637f)" style="fill: none; stroke: #000000; stroke-width: 1.5; stroke-linecap: square"/>
   </g>
   <g id="line2d_5">
    <path d="M 0 306 
L 3.155378 306 
L 6.310757 307.280691 
L 9.466135 303.678544 
L 12.621514 307.809843 
L 18.932271 307.961144 
L 22.087649 306.5736 
L 25.243028 305.712467 
L 28.398406 305.585737 
L 31.553785 304.635189 
L 34.709163 305.064135 
L 37.864542 305.164169 
L 41.01992 305.519154 
L 44.175299 305.705509 
L 47.330677 304.856985 
L 50.486056 305.428569 
L 53.641434 306.386338 
L 56.796813 306.880038 
L 63.10757 306.679078 
L 66.262948 306.113371 
L 69.418327 306.025933 
L 72.573705 306.582294 
L 75.729084 306.381723 
L 82.039841 307.374594 
L 88.350598 307.717612 
L 91.505976 307.686718 
L 94.661355 307.822735 
L 100.972112 307.598573 
L 104.12749 305.75469 
L 107.282869 305.097425 
L 110.438247 305.201938 
L 113.593625 305.085268 
L 116.749004 305.607206 
L 123.059761 305.851091 
L 126.215139 305.390965 
L 129.370518 305.227278 
L 132.525896 305.91054 
L 135.681275 306.433472 
L 138.836653 306.361215 
L 141.992032 305.753883 
L 145.14741 305.810036 
L 148.302789 306.365633 
L 151.458167 306.56676 
L 154.613546 306.955944 
L 157.768924 307.497898 
L 160.924303 306.981514 
L 164.079681 306.590815 
L 167.23506 306.50186 
L 170.390438 306.739884 
L 173.545817 306.188213 
L 176.701195 306.220534 
L 183.011952 307.156364 
L 186.167331 307.330229 
L 189.322709 306.418528 
L 192.478088 307.027065 
L 198.788845 307.96382 
L 205.099602 306.403261 
L 208.25498 306.219561 
L 211.410359 305.716686 
L 214.565737 305.533099 
L 217.721116 305.072142 
L 220.876494 304.946703 
L 224.031873 304.475959 
L 230.342629 304.506035 
L 233.498008 304.144866 
L 236.653386 304.470882 
L 239.808765 305.056288 
L 242.964143 305.177467 
L 246.119522 304.646203 
L 252.430279 305.780868 
L 255.585657 305.751371 
L 258.741036 306.067766 
L 261.896414 306.691884 
L 268.207171 305.931828 
L 271.36255 306.679099 
L 274.517928 306.652761 
L 277.673307 306.261048 
L 283.984064 306.355923 
L 287.139442 306.997125 
L 290.294821 306.755042 
L 293.450199 307.574003 
L 296.605578 307.475694 
L 299.760956 306.327461 
L 302.916335 307.16904 
L 306.071713 307.033337 
L 309.227092 306.729577 
L 312.38247 305.720107 
L 315.537849 307.086019 
L 318.693227 306.920229 
L 321.848606 307.60087 
L 325.003984 307.112153 
L 328.159363 308.183703 
L 331.314741 308.574875 
L 334.47012 307.698738 
L 337.625498 307.783548 
L 340.780876 307.098875 
L 343.936255 308.231427 
L 347.091633 308.549496 
L 350.247012 308.30101 
L 353.40239 307.30833 
L 356.557769 307.597018 
L 359.713147 307.438854 
L 362.868526 306.847994 
L 366.023904 305.928643 
L 372.334661 306.06434 
L 375.49004 305.698205 
L 378.645418 306.568881 
L 381.800797 306.409672 
L 384.956175 306.000622 
L 388.111554 306.108326 
L 394.422311 307.598587 
L 397.577689 308.225407 
L 400.733068 307.910719 
L 403.888446 307.36732 
L 407.043825 308.035446 
L 410.199203 307.649488 
L 413.354582 306.889209 
L 416.50996 306.891643 
L 422.820717 305.872062 
L 425.976096 305.884868 
L 429.131474 306.507029 
L 432.286853 306.205753 
L 435.442231 306.554731 
L 441.752988 305.788486 
L 444.908367 305.608562 
L 448.063745 305.145768 
L 451.219124 305.114646 
L 454.374502 305.501118 
L 457.52988 305.39907 
L 460.685259 305.501462 
L 463.840637 305.108043 
L 466.996016 304.93652 
L 470.151394 305.476082 
L 473.306773 304.946509 
L 479.61753 304.508803 
L 489.083665 305.348235 
L 492.239044 304.649989 
L 495.394422 304.677344 
L 498.549801 304.038396 
L 504.860558 304.701418 
L 508.015936 303.921506 
L 517.482072 304.566004 
L 520.63745 304.678053 
L 523.792829 304.158081 
L 526.948207 304.421144 
L 530.103586 304.02392 
L 533.258964 304.027558 
L 536.414343 304.217049 
L 539.569721 304.14362 
L 542.7251 304.357816 
L 545.880478 304.87089 
L 549.035857 305.535696 
L 555.346614 305.614531 
L 558.501992 305.282266 
L 561.657371 306.271887 
L 567.968127 306.889996 
L 571.123506 307.06086 
L 574.278884 306.865382 
L 577.434263 307.106895 
L 580.589641 307.197424 
L 583.74502 306.891012 
L 586.900398 307.036136 
L 590.055777 306.527536 
L 593.211155 305.601554 
L 596.366534 307.022814 
L 599.521912 306.721684 
L 602.677291 307.088817 
L 605.832669 307.242244 
L 608.988048 306.587703 
L 612.143426 306.188683 
L 615.298805 306.636819 
L 618.454183 306.725849 
L 621.609562 307.002394 
L 627.920319 306.65581 
L 631.075697 306.877541 
L 634.231076 307.873491 
L 637.386454 308.337495 
L 640.541833 307.528184 
L 643.697211 306.873308 
L 646.85259 306.758075 
L 650.007968 306.837828 
L 653.163347 307.543399 
L 656.318725 307.3662 
L 659.474104 307.462284 
L 662.629482 307.433562 
L 665.784861 306.641657 
L 668.940239 307.258178 
L 672.095618 306.567331 
L 675.250996 306.328066 
L 681.561753 306.331792 
L 684.717131 305.74063 
L 691.027888 305.071236 
L 694.183267 305.585048 
L 697.338645 306.279918 
L 700.494024 304.672444 
L 706.804781 305.591845 
L 713.115538 307.299696 
L 716.270916 307.264105 
L 722.581673 306.906777 
L 725.737052 307.505677 
L 728.89243 305.639338 
L 732.047809 305.260742 
L 735.203187 305.528728 
L 738.358566 305.312411 
L 741.513944 305.551689 
L 744.669323 305.308667 
L 747.824701 305.281859 
L 750.98008 305.815084 
L 754.135458 305.515415 
L 757.290837 305.426683 
L 766.756972 306.875627 
L 769.912351 305.806308 
L 773.067729 305.780803 
L 779.378486 306.052558 
L 782.533865 306.587167 
L 785.689243 306.825052 
L 788.844622 306.50764 
L 788.844622 306.50764 
" clip-path="url(#p8b91eb637f)" style="fill: none; stroke: #000000; stroke-width: 1.5; stroke-linecap: square"/>
   </g>
   <g id="line2d_6">
    <path d="M 0 306 
L 3.155378 306 
L 6.310757 307.254131 
L 9.466135 303.807463 
L 12.621514 307.658118 
L 18.932271 307.851075 
L 22.087649 306.636731 
L 25.243028 305.876651 
L 28.398406 305.746519 
L 31.553785 304.926709 
L 34.709163 305.24928 
L 37.864542 305.311402 
L 41.01992 305.581495 
L 44.175299 305.722784 
L 47.330677 305.061479 
L 50.486056 305.482113 
L 53.641434 306.20127 
L 56.796813 306.583589 
L 63.10757 306.476732 
L 66.262948 306.085763 
L 69.418327 306.025781 
L 72.573705 306.414927 
L 75.729084 306.287222 
L 82.039841 306.983983 
L 94.661355 307.380994 
L 100.972112 307.282917 
L 104.12749 306.133109 
L 107.282869 305.699571 
L 110.438247 305.73197 
L 113.593625 305.631389 
L 116.749004 305.922695 
L 123.059761 306.040869 
L 126.215139 305.754498 
L 129.370518 305.638174 
L 135.681275 306.325945 
L 138.836653 306.288902 
L 141.992032 305.938071 
L 145.14741 305.961625 
L 148.302789 306.275095 
L 154.613546 306.62594 
L 157.768924 306.950325 
L 164.079681 306.477213 
L 167.23506 306.432554 
L 170.390438 306.569115 
L 173.545817 306.269271 
L 176.701195 306.283471 
L 186.167331 306.91605 
L 189.322709 306.434679 
L 195.633466 307.032278 
L 198.788845 307.310044 
L 205.099602 306.504948 
L 208.25498 306.40158 
L 211.410359 306.121121 
L 214.565737 306.006618 
L 217.721116 305.738919 
L 220.876494 305.642741 
L 224.031873 305.359883 
L 230.342629 305.299544 
L 233.498008 305.07198 
L 236.653386 305.204307 
L 239.808765 305.481623 
L 242.964143 305.527375 
L 246.119522 305.232481 
L 252.430279 305.791017 
L 255.585657 305.77656 
L 258.741036 305.942111 
L 261.896414 306.27406 
L 268.207171 305.904728 
L 271.36255 306.295409 
L 274.517928 306.299214 
L 277.673307 306.110351 
L 283.984064 306.174301 
L 287.139442 306.515321 
L 290.294821 306.411071 
L 293.450199 306.850291 
L 296.605578 306.83089 
L 299.760956 306.264505 
L 302.916335 306.702322 
L 309.227092 306.507112 
L 312.38247 305.995805 
L 315.537849 306.687924 
L 318.693227 306.620258 
L 321.848606 306.983686 
L 325.003984 306.758522 
L 328.159363 307.323914 
L 331.314741 307.561145 
L 334.47012 307.154962 
L 337.625498 307.22255 
L 340.780876 306.894534 
L 343.936255 307.483416 
L 347.091633 307.67834 
L 350.247012 307.588737 
L 353.40239 307.110155 
L 356.557769 307.26727 
L 359.713147 307.201259 
L 362.868526 306.90766 
L 366.023904 306.433471 
L 372.334661 306.463828 
L 375.49004 306.258424 
L 378.645418 306.680176 
L 381.800797 306.594783 
L 384.956175 306.378751 
L 388.111554 306.418251 
L 397.577689 307.509122 
L 400.733068 307.379652 
L 403.888446 307.123057 
L 407.043825 307.473413 
L 410.199203 307.299373 
L 413.354582 306.926309 
L 416.50996 306.923536 
L 422.820717 306.38771 
L 425.976096 306.37221 
L 429.131474 306.669945 
L 432.286853 306.509068 
L 435.442231 306.674676 
L 448.063745 305.893306 
L 451.219124 305.847978 
L 454.374502 306.014575 
L 466.996016 305.63356 
L 470.151394 305.879677 
L 473.306773 305.593652 
L 479.61753 305.310734 
L 489.083665 305.658965 
L 492.239044 305.288181 
L 495.394422 305.276629 
L 498.549801 304.924355 
L 504.860558 305.195602 
L 508.015936 304.779367 
L 520.63745 305.056594 
L 523.792829 304.776288 
L 526.948207 304.88354 
L 530.103586 304.664255 
L 539.569721 304.649902 
L 542.7251 304.736855 
L 552.191235 305.374963 
L 555.346614 305.378772 
L 558.501992 305.218971 
L 561.657371 305.725903 
L 571.123506 306.213452 
L 574.278884 306.149004 
L 580.589641 306.384919 
L 583.74502 306.261735 
L 586.900398 306.360684 
L 590.055777 306.129191 
L 593.211155 305.676196 
L 596.366534 306.399366 
L 599.521912 306.272394 
L 605.832669 306.582355 
L 608.988048 306.278829 
L 612.143426 306.087957 
L 615.298805 306.320873 
L 624.76494 306.488836 
L 627.920319 306.395859 
L 631.075697 306.521557 
L 634.231076 307.045153 
L 637.386454 307.319005 
L 643.697211 306.636172 
L 650.007968 306.635081 
L 653.163347 307.002928 
L 656.318725 306.935016 
L 662.629482 307.006531 
L 665.784861 306.617987 
L 668.940239 306.933989 
L 672.095618 306.596519 
L 678.406375 306.44228 
L 681.561753 306.459035 
L 684.717131 306.151974 
L 691.027888 305.768903 
L 697.338645 306.336027 
L 700.494024 305.51094 
L 706.804781 305.92144 
L 713.115538 306.783113 
L 719.426295 306.712717 
L 722.581673 306.639664 
L 725.737052 306.954165 
L 728.89243 306.025092 
L 732.047809 305.811975 
L 735.203187 305.924043 
L 738.358566 305.798145 
L 741.513944 305.898888 
L 747.824701 305.726654 
L 750.98008 305.980323 
L 757.290837 305.763659 
L 766.756972 306.49599 
L 769.912351 305.968257 
L 776.223108 305.987817 
L 779.378486 306.076508 
L 782.533865 306.347269 
L 785.689243 306.478765 
L 788.844622 306.332481 
L 788.844622 306.332481 
" clip-path="url(#p8b91eb637f)" style="fill: none; stroke: #000000; stroke-width: 1.5; stroke-linecap: square"/>
   </g>
   <g id="line2d_7">
    <path d="M 0 306 
L 3.155378 306 
L 6.310757 307.24084 
L 9.466135 303.870969 
L 12.621514 307.585408 
L 18.932271 307.79494 
L 22.087649 306.662342 
L 25.243028 305.951702 
L 28.398406 305.82273 
L 31.553785 305.066351 
L 34.709163 305.343738 
L 37.864542 305.390504 
L 41.01992 305.623113 
L 44.175299 305.743844 
L 47.330677 305.166469 
L 50.486056 305.52171 
L 53.641434 306.133935 
L 56.796813 306.462476 
L 63.10757 306.38693 
L 66.262948 306.06921 
L 69.418327 306.021006 
L 72.573705 306.337455 
L 75.729084 306.238628 
L 82.039841 306.801722 
L 94.661355 307.149354 
L 100.972112 307.09354 
L 104.12749 306.236015 
L 107.282869 305.907754 
L 119.904382 306.07894 
L 123.059761 306.123729 
L 126.215139 305.915075 
L 129.370518 305.826248 
L 135.681275 306.303295 
L 138.836653 306.278145 
L 141.992032 306.0343 
L 145.14741 306.047331 
L 148.302789 306.260129 
L 154.613546 306.501472 
L 157.768924 306.724961 
L 164.079681 306.418734 
L 167.23506 306.390837 
L 170.390438 306.482582 
L 173.545817 306.287658 
L 176.701195 306.296408 
L 186.167331 306.71417 
L 189.322709 306.410497 
L 198.788845 306.980218 
L 205.099602 306.486865 
L 208.25498 306.422623 
L 217.721116 306.002206 
L 220.876494 305.935696 
L 224.031873 305.754028 
L 230.342629 305.695942 
L 233.498008 305.547138 
L 242.964143 305.790653 
L 246.119522 305.607177 
L 252.430279 305.923706 
L 258.741036 306.006048 
L 261.896414 306.19997 
L 268.207171 305.985504 
L 271.36255 306.211563 
L 274.517928 306.215896 
L 277.673307 306.10835 
L 283.984064 306.145468 
L 287.139442 306.342552 
L 290.294821 306.286966 
L 293.450199 306.541636 
L 296.605578 306.538157 
L 299.760956 306.222522 
L 302.916335 306.472489 
L 309.227092 306.372453 
L 312.38247 306.087028 
L 315.537849 306.474725 
L 318.693227 306.441835 
L 321.848606 306.649974 
L 325.003984 306.53196 
L 328.159363 306.853181 
L 331.314741 306.996659 
L 334.47012 306.784152 
L 337.625498 306.83049 
L 340.780876 306.658023 
L 343.936255 306.989324 
L 347.091633 307.108601 
L 350.247012 307.072644 
L 353.40239 306.82151 
L 356.557769 306.914558 
L 359.713147 306.886627 
L 369.179283 306.499564 
L 375.49004 306.380837 
L 378.645418 306.607006 
L 388.111554 306.46599 
L 397.577689 307.062749 
L 403.888446 306.874158 
L 407.043825 307.067614 
L 419.665339 306.659737 
L 422.820717 306.510953 
L 425.976096 306.499383 
L 429.131474 306.654272 
L 432.286853 306.569086 
L 435.442231 306.654857 
L 451.219124 306.199962 
L 454.374502 306.280187 
L 466.996016 306.054147 
L 470.151394 306.173378 
L 476.462151 305.937467 
L 479.61753 305.849345 
L 489.083665 306.001119 
L 492.239044 305.80062 
L 495.394422 305.783425 
L 498.549801 305.589206 
L 504.860558 305.702644 
L 508.015936 305.473674 
L 520.63745 305.563149 
L 523.792829 305.407045 
L 526.948207 305.448856 
L 533.258964 305.295815 
L 545.880478 305.421234 
L 549.035857 305.584786 
L 555.346614 305.604036 
L 558.501992 305.51737 
L 561.657371 305.772266 
L 571.123506 306.024872 
L 577.434263 306.078026 
L 586.900398 306.123412 
L 590.055777 306.010223 
L 593.211155 305.779979 
L 596.366534 306.148649 
L 599.521912 306.089655 
L 605.832669 306.258137 
L 612.143426 306.015256 
L 618.454183 306.169488 
L 624.76494 306.234854 
L 631.075697 306.260727 
L 634.231076 306.533249 
L 637.386454 306.6834 
L 643.697211 306.359166 
L 650.007968 306.369293 
L 653.163347 306.562802 
L 665.784861 306.404235 
L 668.940239 306.569246 
L 675.250996 306.345809 
L 681.561753 306.344657 
L 691.027888 305.99387 
L 697.338645 306.275408 
L 700.494024 305.857923 
L 706.804781 306.053466 
L 713.115538 306.48911 
L 725.737052 306.599029 
L 728.89243 306.135355 
L 732.047809 306.026148 
L 735.203187 306.078908 
L 738.358566 306.011124 
L 741.513944 306.057811 
L 747.824701 305.963069 
L 750.98008 306.086953 
L 757.290837 305.970186 
L 766.756972 306.335535 
L 769.912351 306.071055 
L 779.378486 306.119091 
L 785.689243 306.324297 
L 788.844622 306.253231 
L 788.844622 306.253231 
" clip-path="url(#p8b91eb637f)" style="fill: none; stroke: #000000; stroke-width: 1.5; stroke-linecap: square"/>
   </g>
   <g id="line2d_8">
    <path d="M 0 306 
L 3.155378 306 
L 6.310757 307.234193 
L 9.466135 303.902469 
L 12.621514 307.549854 
L 18.932271 307.766668 
L 22.087649 306.673678 
L 25.243028 305.987368 
L 28.398406 305.859583 
L 31.553785 305.134269 
L 34.709163 305.390984 
L 37.864542 305.430961 
L 44.175299 305.757236 
L 47.330677 305.219295 
L 50.486056 305.54447 
L 53.641434 306.106797 
L 56.796813 306.409514 
L 63.10757 306.346335 
L 66.262948 306.061536 
L 69.418327 306.018599 
L 72.573705 306.301802 
L 75.729084 306.215489 
L 82.039841 306.716734 
L 94.661355 307.035955 
L 100.972112 306.995965 
L 104.12749 306.266839 
L 107.282869 305.986556 
L 119.904382 306.120516 
L 123.059761 306.156491 
L 129.370518 305.907256 
L 135.681275 306.295226 
L 138.836653 306.274961 
L 141.992032 306.077172 
L 145.14741 306.086526 
L 151.458167 306.323023 
L 157.768924 306.629342 
L 164.079681 306.391072 
L 176.701195 306.297844 
L 186.167331 306.622582 
L 189.322709 306.392279 
L 198.788845 306.829393 
L 205.099602 306.463114 
L 214.565737 306.228441 
L 224.031873 305.914126 
L 239.808765 305.907981 
L 242.964143 305.91968 
L 246.119522 305.785379 
L 252.430279 306.006058 
L 258.741036 306.061394 
L 261.896414 306.197552 
L 268.207171 306.046212 
L 271.36255 306.203548 
L 290.294821 306.255338 
L 293.450199 306.430657 
L 296.605578 306.430148 
L 299.760956 306.216577 
L 302.916335 306.386764 
L 309.227092 306.321707 
L 312.38247 306.129945 
L 315.537849 306.39013 
L 318.693227 306.369428 
L 321.848606 306.509894 
L 325.003984 306.433368 
L 328.159363 306.648774 
L 331.314741 306.747276 
L 334.47012 306.610488 
L 337.625498 306.64382 
L 340.780876 306.533118 
L 343.936255 306.752758 
L 350.247012 306.815308 
L 353.40239 306.655472 
L 359.713147 306.703391 
L 369.179283 306.45833 
L 388.111554 306.440476 
L 397.577689 306.822285 
L 403.888446 306.710249 
L 407.043825 306.833899 
L 432.286853 306.535049 
L 435.442231 306.588313 
L 451.219124 306.308941 
L 457.52988 306.327973 
L 463.840637 306.257594 
L 466.996016 306.214197 
L 470.151394 306.283919 
L 479.61753 306.082752 
L 489.083665 306.165067 
L 498.549801 305.911563 
L 504.860558 305.970579 
L 508.015936 305.831847 
L 526.948207 305.791468 
L 533.258964 305.692668 
L 558.501992 305.788125 
L 564.812749 305.981428 
L 577.434263 306.101178 
L 586.900398 306.126404 
L 593.211155 305.930463 
L 596.366534 306.137866 
L 602.677291 306.166384 
L 605.832669 306.200134 
L 612.143426 306.063622 
L 621.609562 306.197293 
L 631.075697 306.203048 
L 637.386454 306.442378 
L 646.85259 306.256721 
L 672.095618 306.307403 
L 694.183267 306.144894 
L 697.338645 306.237093 
L 700.494024 306.008717 
L 709.960159 306.226886 
L 713.115538 306.350484 
L 725.737052 306.416325 
L 728.89243 306.166277 
L 738.358566 306.096848 
L 750.98008 306.133762 
L 757.290837 306.069137 
L 766.756972 306.264709 
L 769.912351 306.123112 
L 779.378486 306.147099 
L 785.689243 306.257352 
L 788.844622 306.220017 
L 788.844622 306.220017 
" clip-path="url(#p8b91eb637f)" style="fill: none; stroke: #000000; stroke-width: 1.5; stroke-linecap: square"/>
   </g>
   <g id="line2d_9">
    <path d="M 0 306 
L 3.155378 306 
L 6.310757 307.230869 
L 9.466135 303.918155 
L 12.621514 307.532279 
L 18.932271 307.75249 
L 22.087649 306.678982 
L 25.243028 306.004727 
L 28.398406 305.877672 
L 31.553785 305.167709 
L 34.709163 305.414553 
L 37.864542 305.451355 
L 44.175299 305.764604 
L 47.330677 305.245737 
L 50.486056 305.556541 
L 53.641434 306.094855 
L 56.796813 306.384991 
L 63.10757 306.327266 
L 66.262948 306.058002 
L 69.418327 306.017536 
L 72.573705 306.284928 
L 75.729084 306.204403 
L 82.039841 306.67612 
L 94.661355 306.980569 
L 100.972112 306.947249 
L 104.12749 306.277577 
L 107.282869 306.01982 
L 126.215139 306.012463 
L 129.370518 305.943642 
L 135.681275 306.291394 
L 138.836653 306.273326 
L 141.992032 306.096488 
L 145.14741 306.10436 
L 151.458167 306.314317 
L 157.768924 306.586029 
L 164.079681 306.377707 
L 176.701195 306.297224 
L 186.167331 306.580093 
L 189.322709 306.382025 
L 198.788845 306.759629 
L 205.099602 306.448536 
L 214.565737 306.249216 
L 224.031873 305.98194 
L 246.119522 305.866289 
L 255.585657 306.037772 
L 265.051793 306.150204 
L 268.207171 306.078161 
L 271.36255 306.206092 
L 290.294821 306.247239 
L 293.450199 306.388367 
L 296.605578 306.388531 
L 299.760956 306.218002 
L 302.916335 306.354041 
L 309.227092 306.30303 
L 312.38247 306.150888 
L 315.537849 306.356963 
L 318.693227 306.341003 
L 321.848606 306.452323 
L 325.003984 306.392719 
L 331.314741 306.641139 
L 334.47012 306.535244 
L 337.625498 306.562241 
L 340.780876 306.47681 
L 347.091633 306.713534 
L 362.868526 306.543297 
L 366.023904 306.418865 
L 394.422311 306.615754 
L 397.577689 306.708854 
L 432.286853 306.502586 
L 438.59761 306.497443 
L 451.219124 306.337498 
L 460.685259 306.353909 
L 466.996016 306.267445 
L 470.151394 306.31748 
L 479.61753 306.170448 
L 492.239044 306.139645 
L 526.948207 305.947075 
L 536.414343 305.878242 
L 545.880478 305.905037 
L 552.191235 305.972259 
L 564.812749 306.061806 
L 580.589641 306.160055 
L 593.211155 306.023985 
L 596.366534 306.164545 
L 612.143426 306.113339 
L 624.76494 306.196223 
L 631.075697 306.206325 
L 637.386454 306.366997 
L 646.85259 306.24409 
L 681.561753 306.261126 
L 691.027888 306.134616 
L 697.338645 306.233925 
L 700.494024 306.085042 
L 725.737052 306.349511 
L 728.89243 306.18877 
L 738.358566 306.143339 
L 754.135458 306.136156 
L 760.446215 306.160913 
L 766.756972 306.247456 
L 773.067729 306.152911 
L 788.844622 306.218139 
L 788.844622 306.218139 
" clip-path="url(#p8b91eb637f)" style="fill: none; stroke: #000000; stroke-width: 1.5; stroke-linecap: square"/>
   </g>
  </g>
 </g>
 <defs>
  <clipPath id="p8b91eb637f">
   <rect x="0" y="0" width="792" height="612"/>
  </clipPath>
 </defs>
</svg>
