<?xml version="1.0" encoding="utf-8" standalone="no"?>
<!DOCTYPE svg PUBLIC "-//W3C//DTD SVG 1.1//EN"
  "http://www.w3.org/Graphics/SVG/1.1/DTD/svg11.dtd">
<svg xmlns:xlink="http://www.w3.org/1999/xlink" width="792pt" height="612pt" viewBox="0 0 792 612" xmlns="http://www.w3.org/2000/svg" version="1.1">
 <metadata>
  <rdf:RDF xmlns:dc="http://purl.org/dc/elements/1.1/" xmlns:cc="http://creativecommons.org/ns#" xmlns:rdf="http://www.w3.org/1999/02/22-rdf-syntax-ns#">
   <cc:Work>
    <dc:type rdf:resource="http://purl.org/dc/dcmitype/StillImage"/>
    <dc:date>2023-01-30T16:22:14.214447</dc:date>
    <dc:format>image/svg+xml</dc:format>
    <dc:creator>
     <cc:Agent>
      <dc:title>Matplotlib v3.6.2, https://matplotlib.org/</dc:title>
     </cc:Agent>
    </dc:creator>
   </cc:Work>
  </rdf:RDF>
 </metadata>
 <defs>
  <style type="text/css">*{stroke-linejoin: round; stroke-linecap: butt}</style>
 </defs>
 <g id="figure_1">
  <g id="patch_1">
   <path d="M 0 612 
L 792 612 
L 792 0 
L 0 0 
z
" style="fill: #ffffff"/>
  </g>
  <g id="axes_1">
   <g id="line2d_1">
    <path d="M 0 459 
L 3.168 462.216784 
L 6.336 463.766608 
L 9.504 465.658834 
L 12.672 466.370671 
L 15.84 468.028622 
L 19.008 468.109717 
L 22.176 468.533216 
L 25.344 457.567319 
L 28.512 445.542021 
L 31.68 446.00118 
L 34.848 442.679674 
L 38.016 450.621072 
L 41.184 451.999306 
L 44.352 453.972286 
L 47.52 445.406979 
L 50.688 441.491891 
L 53.856 452.729012 
L 57.024 460.04523 
L 60.192 459.828975 
L 63.36 450.918326 
L 66.528 451.566904 
L 69.696 459.828975 
L 72.864 461.25265 
L 76.032 463.937809 
L 79.2 467.767314 
L 82.368 465.361484 
L 85.536 463.460247 
L 88.704 463.216961 
L 91.872 464.946996 
L 95.04 461.919435 
L 98.208 462.216784 
L 101.376 464.974028 
L 104.544 468.461131 
L 107.712 470.137102 
L 110.88 465.172261 
L 114.048 469.163958 
L 117.216 472.578975 
L 120.384 476.282332 
L 126.72 468.199823 
L 129.888 467.271731 
L 133.056 464.24417 
L 136.224 462.982686 
L 139.392 459.883039 
L 142.56 457.891698 
L 145.728 447.459853 
L 148.896 445.704074 
L 152.064 443.32765 
L 155.232 434.262861 
L 158.4 437.471461 
L 161.568 446.00118 
L 164.736 446.811523 
L 167.904 435.664659 
L 171.072 444.785818 
L 174.24 453.512806 
L 177.408 452.674959 
L 180.576 458.216079 
L 183.744 462.649293 
L 186.912 460.928269 
L 190.08 457.378099 
L 193.248 463.063781 
L 196.416 463.262014 
L 199.584 461.162544 
L 202.752 461.315724 
L 205.92 462.045583 
L 209.088 466.217491 
L 212.256 465.235336 
L 215.424 470.713781 
L 218.592 470.921025 
L 221.76 464.55053 
L 224.928 469.94788 
L 228.096 469.668551 
L 231.264 468.29894 
L 234.432 462.406007 
L 237.6 470.740813 
L 240.768 470.281272 
L 243.936 474.984806 
L 247.104 472.777208 
L 250.272 479.9947 
L 253.44 483.544876 
L 256.608 479.445053 
L 259.776 480.859717 
L 262.944 477.525795 
L 266.112 485.112721 
L 269.28 488.239399 
L 272.448 488.023145 
L 275.616 483.049293 
L 278.784 485.527208 
L 281.952 485.383039 
L 285.12 482.445583 
L 288.288 477.165371 
L 291.456 477.886219 
L 294.624 478.003357 
L 297.792 475.750707 
L 300.96 481.003887 
L 304.128 480.319081 
L 307.296 478.003357 
L 310.464 478.679152 
L 319.968 493.168198 
L 323.136 492.375265 
L 326.304 489.969435 
L 329.472 494.808127 
L 332.64 493.456537 
L 335.808 489.572968 
L 338.976 490.041519 
L 342.144 487.410424 
L 345.312 484.35583 
L 348.48 484.35583 
L 351.648 488.158304 
L 354.816 486.545406 
L 357.984 488.807067 
L 361.152 486.815724 
L 364.32 484.445936 
L 367.488 483.220495 
L 370.656 480.129859 
L 373.824 479.508127 
L 376.992 481.463428 
L 380.16 480.571378 
L 383.328 480.90477 
L 386.496 478.219611 
L 389.664 476.687809 
L 392.832 479.481095 
L 396 475.939929 
L 399.168 474.101767 
L 402.336 472.020318 
L 411.84 475.399293 
L 415.008 470.722792 
L 418.176 470.218198 
L 421.344 465.568728 
L 424.512 466.469788 
L 427.68 467.821378 
L 430.848 462.30689 
L 434.016 462.59523 
L 440.352 463.442226 
L 443.52 463.397173 
L 446.688 459.504594 
L 449.856 460.180389 
L 453.024 452.783066 
L 456.192 449.837436 
L 459.36 450.269781 
L 462.528 446.163242 
L 465.696 447.243738 
L 468.864 454.350689 
L 472.032 461.009364 
L 475.2 461.315724 
L 478.368 461.045406 
L 481.536 458.378269 
L 484.704 464.568551 
L 487.872 466.586926 
L 491.04 468.812544 
L 494.208 470.335336 
L 497.376 469.668551 
L 500.544 471.60583 
L 503.712 472.759187 
L 506.88 471.470671 
L 510.048 472.822261 
L 513.216 470.200177 
L 516.384 464.739753 
L 519.552 473.380919 
L 522.72 472.05636 
L 525.888 474.705477 
L 529.056 476.210247 
L 532.224 472.80424 
L 535.392 470.623675 
L 538.56 473.489046 
L 541.728 474.372085 
L 544.896 476.453534 
L 548.064 476.147173 
L 551.232 475.255124 
L 554.4 476.985159 
L 557.568 483.616961 
L 560.736 487.473498 
L 563.904 483.643993 
L 567.072 480.355124 
L 570.24 480.084806 
L 573.408 480.958834 
L 576.576 485.770495 
L 579.744 485.473145 
L 582.912 486.770671 
L 586.08 487.34735 
L 589.248 483.15742 
L 592.416 487.311307 
L 595.584 483.680035 
L 598.752 482.472615 
L 601.92 482.373498 
L 605.088 482.796996 
L 608.256 479.300883 
L 611.424 477.336572 
L 614.592 474.732509 
L 617.76 477.426678 
L 620.928 481.526502 
L 624.096 471.668905 
L 627.264 473.831449 
L 630.432 476.2553 
L 633.6 481.319258 
L 636.768 486.860777 
L 639.936 487.311307 
L 646.272 486.30212 
L 649.44 490.474028 
L 652.608 479.661307 
L 655.776 477.111307 
L 658.944 478.390813 
L 662.112 476.804947 
L 665.28 477.931272 
L 668.448 476.192226 
L 671.616 475.678622 
L 674.784 478.634099 
L 677.952 476.678799 
L 681.12 475.876855 
L 684.288 478.543993 
L 687.456 482.049117 
L 690.624 484.79735 
L 693.792 478.616078 
L 696.96 478.363781 
L 700.128 478.814311 
L 703.296 479.877562 
L 706.464 483.229505 
L 709.632 485.004594 
L 712.8 483.463781 
L 715.968 483.9053 
L 719.136 481.80583 
L 722.304 480.922792 
L 725.472 482.959187 
L 728.64 489.0053 
L 731.808 490.79841 
L 734.976 492.726678 
L 738.144 492.789753 
L 741.312 489.951413 
L 744.48 492.852827 
L 747.648 493.186219 
L 750.816 494.835159 
L 753.984 498.430389 
L 757.152 495.213604 
L 760.32 494.925265 
L 763.488 499.304417 
L 766.656 498.142049 
L 769.824 499.34947 
L 772.992 495.204594 
L 779.328 494.204417 
L 782.496 491.717491 
L 785.664 491.789576 
L 788.832 490.573145 
L 788.832 490.573145 
" clip-path="url(#peda8f46a08)" style="fill: none; stroke: #000000; stroke-width: 1.5; stroke-linecap: square"/>
   </g>
   <g id="line2d_2">
    <path d="M 0 459 
L 3.168 459 
L 6.336 461.144523 
L 12.672 464.251378 
L 15.84 465.345207 
L 19.008 466.708211 
L 22.176 467.414482 
L 25.344 467.976042 
L 31.68 458.596219 
L 34.848 452.243916 
L 38.016 447.389403 
L 47.52 452.12532 
L 50.688 448.682904 
L 53.856 445.055035 
L 57.024 448.905409 
L 60.192 455.551443 
L 63.36 458.556043 
L 66.528 454.737472 
L 69.696 453.151271 
L 72.864 457.333682 
L 76.032 459.861908 
L 79.2 461.920989 
L 82.368 464.865442 
L 85.536 465.123887 
L 88.704 464.299187 
L 91.872 463.771625 
L 95.04 464.37583 
L 98.208 463.151731 
L 101.376 462.686148 
L 104.544 463.83212 
L 107.712 466.147986 
L 110.88 468.151908 
L 114.048 466.665442 
L 117.216 467.92636 
L 120.384 470.267633 
L 123.552 473.303145 
L 126.72 472.798551 
L 129.888 470.505512 
L 133.056 468.88629 
L 136.224 466.553675 
L 139.392 464.763887 
L 142.56 462.305265 
L 145.728 460.440565 
L 148.896 455.265347 
L 152.064 450.379777 
L 155.232 446.768197 
L 158.4 440.415043 
L 161.568 438.870094 
L 164.736 442.385778 
L 167.904 444.569245 
L 171.072 440.071624 
L 174.24 442.423043 
L 177.408 447.981622 
L 180.576 450.346397 
L 183.744 454.3279 
L 186.912 460.067173 
L 190.08 460.51 
L 193.248 459.49159 
L 196.416 461.300919 
L 199.584 462.299117 
L 202.752 461.738657 
L 205.92 461.535866 
L 209.088 461.797208 
L 212.256 464.014346 
L 215.424 464.633286 
L 218.592 467.697562 
L 221.76 469.3247 
L 224.928 466.940141 
L 228.096 468.461237 
L 231.264 469.081272 
L 234.432 468.702367 
L 237.6 465.546714 
L 240.768 468.154558 
L 243.936 469.217067 
L 247.104 472.108905 
L 250.272 472.459187 
L 256.608 479.922968 
L 259.776 479.705866 
L 262.944 480.318975 
L 266.112 478.935689 
L 272.448 485.172332 
L 275.616 486.627633 
L 278.784 484.844452 
L 281.952 485.189717 
L 285.12 485.298021 
L 288.288 483.874912 
L 291.456 480.519435 
L 294.624 479.188657 
L 297.792 478.575936 
L 300.96 477.139258 
L 304.128 479.067562 
L 307.296 479.68311 
L 310.464 478.828763 
L 313.632 478.746572 
L 316.8 481.122049 
L 319.968 484.80053 
L 323.136 489.014099 
L 326.304 490.727279 
L 329.472 490.365936 
L 332.64 492.615442 
L 335.808 493.06629 
L 338.976 491.340989 
L 342.144 490.704134 
L 345.312 489.055265 
L 348.48 486.688269 
L 351.648 485.506325 
L 354.816 486.828763 
L 357.984 486.670883 
L 361.152 487.729859 
L 364.32 487.267385 
L 370.656 484.524876 
L 373.824 482.319081 
L 376.992 480.904099 
L 380.16 481.170636 
L 383.328 480.859293 
L 386.496 480.866537 
L 392.832 478.091802 
L 396 478.779117 
L 399.168 477.351307 
L 402.336 475.715936 
L 405.504 473.849611 
L 408.672 473.488092 
L 411.84 473.822297 
L 415.008 474.605265 
L 418.176 472.652332 
L 421.344 471.417102 
L 424.512 468.47258 
L 427.68 467.456219 
L 430.848 467.630565 
L 434.016 464.947456 
L 437.184 463.748622 
L 440.352 463.354876 
L 446.688 463.37735 
L 449.856 461.429081 
L 453.024 460.792403 
L 456.192 458.515866 
L 459.36 454.138804 
L 462.528 452.165911 
L 465.696 449.115415 
L 468.864 448.130372 
L 472.032 451.205202 
L 475.2 458.125125 
L 478.368 460.014276 
L 481.536 460.537915 
L 484.704 459.670919 
L 487.872 462.13636 
L 494.208 466.625654 
L 497.376 468.50576 
L 500.544 469.104134 
L 506.88 471.590141 
L 510.048 471.555265 
L 513.216 472.204947 
L 516.384 471.209647 
L 519.552 467.966714 
L 522.72 470.679788 
L 525.888 471.372756 
L 532.224 474.634488 
L 535.392 473.721979 
L 538.56 472.168516 
L 541.728 472.83523 
L 544.896 473.622544 
L 548.064 475.044064 
L 551.232 475.60364 
L 554.4 475.430459 
L 557.568 476.209329 
L 563.904 483.736961 
L 567.072 483.710389 
L 570.24 482.044488 
L 573.408 481.071767 
L 576.576 481.024735 
L 579.744 483.418233 
L 589.248 486.48477 
L 592.416 484.820141 
L 595.584 486.079364 
L 601.92 483.68265 
L 605.088 483.021413 
L 608.256 482.903958 
L 614.592 479.192544 
L 617.76 476.946007 
L 620.928 477.166961 
L 624.096 479.342509 
L 627.264 475.484523 
L 630.432 474.641237 
L 633.6 475.435442 
L 636.768 478.381307 
L 639.936 482.639717 
L 643.104 485.000177 
L 646.272 485.930883 
L 649.44 486.125866 
L 652.608 488.33682 
L 655.776 484.010495 
L 658.944 480.56258 
L 662.112 479.470954 
L 665.28 478.118233 
L 668.448 478.00636 
L 671.616 477.078445 
L 674.784 476.357703 
L 677.952 477.472686 
L 681.12 477.069894 
L 684.288 476.470954 
L 687.456 477.507774 
L 690.624 479.788728 
L 693.792 482.306502 
L 696.96 480.466042 
L 700.128 479.420177 
L 703.296 479.117597 
L 706.464 479.503852 
L 712.8 483.205512 
L 715.968 483.33742 
L 719.136 483.619611 
L 725.472 481.825901 
L 728.64 482.400671 
L 731.808 485.720883 
L 734.976 488.274488 
L 738.144 490.515724 
L 741.312 491.671025 
L 744.48 490.823074 
L 747.648 491.859611 
L 750.816 492.546961 
L 753.984 493.714346 
L 757.152 496.090848 
L 763.488 495.297385 
L 766.656 497.313675 
L 769.824 497.743922 
L 772.992 498.559435 
L 776.16 496.885972 
L 779.328 495.80629 
L 782.496 494.997067 
L 785.664 493.350424 
L 788.832 492.563852 
L 788.832 492.563852 
" clip-path="url(#peda8f46a08)" style="fill: none; stroke: #000000; stroke-width: 1.5; stroke-linecap: square"/>
   </g>
   <g id="line2d_3">
    <path d="M 0 459 
L 3.168 459 
L 6.336 460.884349 
L 12.672 463.544815 
L 15.84 464.550222 
L 19.008 465.714564 
L 22.176 466.484107 
L 25.344 467.124288 
L 28.512 464.488373 
L 31.68 461.47232 
L 34.848 459.433719 
L 38.016 455.056069 
L 41.184 453.742463 
L 44.352 453.227866 
L 47.52 453.44711 
L 50.688 451.0824 
L 53.856 448.252206 
L 57.024 449.544978 
L 60.192 453.219249 
L 63.36 455.620552 
L 66.528 454.208507 
L 69.696 453.395115 
L 72.864 455.736476 
L 76.032 458.646572 
L 79.2 460.369167 
L 82.368 462.551258 
L 85.536 463.386639 
L 91.872 463.368281 
L 95.04 463.840188 
L 98.208 463.28289 
L 101.376 462.979536 
L 104.544 463.577277 
L 110.88 466.531058 
L 114.048 466.139213 
L 117.216 467.039909 
L 120.384 468.680707 
L 123.552 470.92607 
L 126.72 471.327822 
L 133.056 469.494883 
L 139.392 466.49859 
L 142.56 464.557111 
L 145.728 462.814011 
L 152.064 458.392245 
L 155.232 453.939753 
L 158.4 448.110355 
L 161.568 444.929508 
L 164.736 445.207208 
L 167.904 445.628083 
L 171.072 442.634613 
L 174.24 443.188823 
L 177.408 446.159521 
L 180.576 448.028486 
L 183.744 450.982297 
L 186.912 456.531139 
L 190.08 458.941486 
L 193.248 458.478673 
L 196.416 460.072468 
L 199.584 461.015979 
L 205.92 461.148147 
L 209.088 461.423978 
L 212.256 462.844504 
L 215.424 463.556903 
L 218.592 465.671226 
L 221.76 467.231491 
L 224.928 466.458075 
L 228.096 467.494891 
L 231.264 468.146217 
L 234.432 468.201929 
L 237.6 466.504064 
L 240.768 467.756249 
L 243.936 468.50939 
L 247.104 470.419688 
L 250.272 471.121119 
L 253.44 473.741761 
L 256.608 476.63856 
L 259.776 477.480547 
L 262.944 478.487101 
L 266.112 478.219658 
L 269.28 480.255128 
L 272.448 482.613559 
L 275.616 484.224951 
L 278.784 483.895657 
L 281.952 484.391743 
L 285.12 484.701709 
L 288.288 484.063923 
L 291.456 482.050763 
L 294.624 480.839731 
L 297.792 480.012444 
L 300.96 478.767625 
L 304.128 479.42377 
L 307.296 479.682296 
L 310.464 479.18889 
L 313.632 479.037087 
L 316.8 480.343105 
L 319.968 482.717756 
L 323.136 485.784281 
L 326.304 487.719734 
L 329.472 488.386605 
L 332.64 490.278085 
L 335.808 491.218305 
L 338.976 490.744584 
L 342.144 490.553451 
L 345.312 489.643819 
L 348.48 488.102299 
L 351.648 487.014868 
L 354.816 487.35799 
L 357.984 487.127141 
L 361.152 487.631589 
L 364.32 487.401974 
L 370.656 485.559829 
L 373.824 483.954452 
L 376.992 482.637374 
L 380.16 482.283763 
L 383.328 481.765865 
L 386.496 481.499239 
L 389.664 480.525618 
L 392.832 479.386212 
L 396 479.404895 
L 399.168 478.380363 
L 402.336 477.115414 
L 405.504 475.604559 
L 408.672 474.871911 
L 411.84 474.653296 
L 415.008 474.858681 
L 418.176 473.631544 
L 421.344 472.616864 
L 424.512 470.535788 
L 427.68 469.329908 
L 430.848 468.872401 
L 434.016 466.928429 
L 437.184 465.638234 
L 440.352 464.850889 
L 446.688 464.10413 
L 449.856 462.738079 
L 453.024 461.972959 
L 456.192 460.477861 
L 459.36 459.130568 
L 462.528 456.65732 
L 465.696 453.511686 
L 468.864 451.621643 
L 472.032 452.37693 
L 475.2 456.066374 
L 478.368 458.942605 
L 481.536 459.577775 
L 484.704 459.343812 
L 487.872 460.876369 
L 491.04 462.553061 
L 497.376 466.141149 
L 500.544 467.185975 
L 506.88 469.761177 
L 510.048 470.279709 
L 513.216 471.043624 
L 516.384 470.814365 
L 519.552 469.046247 
L 522.72 470.334141 
L 525.888 470.851256 
L 532.224 473.247397 
L 535.392 473.133693 
L 538.56 472.405481 
L 541.728 472.730777 
L 544.896 473.217891 
L 548.064 474.172616 
L 551.232 474.758392 
L 554.4 474.908073 
L 557.568 475.521291 
L 560.736 477.906409 
L 563.904 480.725373 
L 567.072 481.595659 
L 573.408 480.916599 
L 576.576 480.939195 
L 579.744 482.366959 
L 582.912 483.287379 
L 586.08 484.323654 
L 589.248 485.228483 
L 592.416 484.632988 
L 595.584 485.432311 
L 598.752 484.927382 
L 601.92 484.215663 
L 605.088 483.684281 
L 608.256 483.431077 
L 611.424 482.216414 
L 614.592 480.775498 
L 617.76 478.995312 
L 620.928 478.532506 
L 624.096 479.411083 
L 627.264 477.132781 
L 630.432 476.15213 
L 633.6 476.17176 
L 636.768 477.673166 
L 639.936 480.363596 
L 643.104 482.403305 
L 646.272 483.697753 
L 649.44 484.463566 
L 652.608 486.23318 
L 655.776 484.305208 
L 658.944 482.191633 
L 662.112 481.077353 
L 665.28 479.825384 
L 668.448 479.274285 
L 674.784 477.575105 
L 677.952 477.893277 
L 681.12 477.540835 
L 684.288 477.053032 
L 687.456 477.486537 
L 690.624 478.817359 
L 693.792 480.56597 
L 700.128 479.501343 
L 703.296 479.286724 
L 706.464 479.460024 
L 709.632 480.571107 
L 712.8 481.877242 
L 719.136 482.812099 
L 722.304 482.523818 
L 725.472 482.060912 
L 728.64 482.328978 
L 738.144 488.141684 
L 741.312 489.515408 
L 744.48 489.649031 
L 747.648 490.603754 
L 750.816 491.377165 
L 753.984 492.40839 
L 757.152 494.193502 
L 760.32 494.506048 
L 763.488 494.640229 
L 766.656 496.024532 
L 769.824 496.661091 
L 772.992 497.46865 
L 782.496 495.636938 
L 785.664 494.490015 
L 788.832 493.697998 
L 788.832 493.697998 
" clip-path="url(#peda8f46a08)" style="fill: none; stroke: #000000; stroke-width: 1.5; stroke-linecap: square"/>
   </g>
   <g id="line2d_4">
    <path d="M 0 459 
L 3.168 459 
L 6.336 460.747401 
L 12.672 463.118131 
L 22.176 465.703983 
L 25.344 466.304171 
L 28.512 464.736509 
L 31.68 462.760567 
L 38.016 459.849472 
L 41.184 459.20182 
L 44.352 458.277865 
L 47.52 457.537798 
L 50.688 455.478461 
L 53.856 453.128542 
L 57.024 453.062036 
L 60.192 454.561269 
L 63.36 455.698652 
L 66.528 454.917483 
L 69.696 454.372309 
L 72.864 455.525637 
L 76.032 457.17943 
L 79.2 459.287062 
L 82.368 460.651374 
L 85.536 461.407797 
L 95.04 462.449606 
L 101.376 462.341209 
L 104.544 462.763827 
L 107.712 463.674185 
L 110.88 464.706433 
L 114.048 464.780244 
L 117.216 465.479452 
L 120.384 466.61185 
L 123.552 468.155558 
L 126.72 468.810051 
L 129.888 468.719 
L 133.056 468.496695 
L 139.392 467.061358 
L 145.728 464.762759 
L 148.896 463.232373 
L 158.4 459.001953 
L 161.568 455.561811 
L 164.736 454.030603 
L 167.904 452.879201 
L 171.072 450.127968 
L 174.24 449.267396 
L 177.408 449.935126 
L 180.576 450.35782 
L 183.744 451.590982 
L 186.912 454.506156 
L 190.08 456.136703 
L 193.248 456.325306 
L 196.416 458.686995 
L 199.584 459.591205 
L 209.088 460.382821 
L 212.256 461.308693 
L 215.424 461.933475 
L 218.592 463.33142 
L 221.76 464.537919 
L 224.928 464.532606 
L 228.096 465.392756 
L 231.264 466.073967 
L 234.432 466.428609 
L 237.6 465.787451 
L 240.768 466.58039 
L 243.936 467.175701 
L 247.104 468.428362 
L 250.272 469.131275 
L 253.44 470.875551 
L 256.608 472.909861 
L 262.944 475.08223 
L 266.112 475.485273 
L 269.28 477.035862 
L 272.448 478.841486 
L 275.616 480.323387 
L 278.784 480.773235 
L 281.952 481.547476 
L 285.12 482.174352 
L 288.288 482.229857 
L 291.456 481.43421 
L 300.96 479.695973 
L 304.128 479.916446 
L 307.296 479.992364 
L 310.464 479.685862 
L 313.632 479.533466 
L 316.8 480.171606 
L 319.968 481.497819 
L 323.136 483.368499 
L 326.304 484.818869 
L 329.472 485.650834 
L 332.64 487.123478 
L 335.808 488.146787 
L 342.144 488.66535 
L 345.312 488.476374 
L 351.648 487.281636 
L 354.816 487.42621 
L 357.984 487.287943 
L 361.152 487.535483 
L 364.32 487.424683 
L 367.488 486.955071 
L 370.656 486.359706 
L 376.992 484.426539 
L 386.496 483.010979 
L 389.664 482.246018 
L 392.832 481.361389 
L 396 481.063223 
L 399.168 480.246801 
L 402.336 479.268075 
L 405.504 478.109326 
L 408.672 477.316709 
L 411.84 476.815719 
L 415.008 476.588314 
L 421.344 474.772003 
L 424.512 473.290508 
L 427.68 472.189144 
L 430.848 471.480398 
L 434.016 470.000581 
L 437.184 468.803108 
L 440.352 467.864785 
L 446.688 466.533341 
L 449.856 465.399536 
L 453.024 464.554067 
L 459.36 462.128573 
L 468.864 459.286984 
L 472.032 458.935986 
L 478.368 459.600801 
L 481.536 459.817904 
L 484.704 459.64121 
L 487.872 460.414975 
L 491.04 461.389697 
L 497.376 463.796242 
L 500.544 464.726634 
L 506.88 466.924159 
L 513.216 468.469111 
L 516.384 468.741286 
L 519.552 468.100895 
L 522.72 468.942939 
L 525.888 469.442343 
L 532.224 471.232849 
L 535.392 471.489413 
L 538.56 471.35668 
L 544.896 472.134048 
L 548.064 472.82944 
L 551.232 473.367687 
L 554.4 473.677391 
L 557.568 474.216183 
L 560.736 475.729146 
L 563.904 477.617296 
L 567.072 478.594212 
L 576.576 479.40344 
L 579.744 480.431719 
L 589.248 482.986952 
L 592.416 483.024413 
L 595.584 483.718016 
L 598.752 483.720299 
L 605.088 483.352527 
L 608.256 483.270403 
L 611.424 482.643724 
L 614.592 481.802154 
L 617.76 480.680176 
L 620.928 480.170448 
L 624.096 480.391284 
L 627.264 479.00328 
L 630.432 478.179878 
L 633.6 477.873699 
L 636.768 478.427212 
L 639.936 479.779154 
L 643.104 480.986171 
L 646.272 481.922877 
L 649.44 482.625775 
L 652.608 483.883399 
L 655.776 483.214398 
L 658.944 482.243454 
L 662.112 481.627224 
L 665.28 480.853326 
L 668.448 480.384852 
L 674.784 479.070211 
L 677.952 478.999373 
L 684.288 478.181343 
L 687.456 478.233909 
L 690.624 478.837617 
L 693.792 479.786855 
L 703.296 479.301103 
L 706.464 479.391262 
L 709.632 480.00221 
L 712.8 480.801666 
L 719.136 481.660567 
L 722.304 481.686411 
L 725.472 481.56454 
L 728.64 481.793478 
L 734.976 484.208097 
L 738.144 485.570551 
L 741.312 486.722851 
L 744.48 487.238174 
L 753.984 489.883328 
L 757.152 491.254906 
L 760.32 491.896044 
L 763.488 492.38832 
L 766.656 493.502734 
L 772.992 495.078716 
L 779.328 495.059888 
L 782.496 494.934715 
L 788.832 494.020456 
L 788.832 494.020456 
" clip-path="url(#peda8f46a08)" style="fill: none; stroke: #000000; stroke-width: 1.5; stroke-linecap: square"/>
   </g>
   <g id="line2d_5">
    <path d="M 0 459 
L 3.168 459 
L 6.336 460.678027 
L 12.672 462.891979 
L 19.008 464.59667 
L 25.344 465.784844 
L 28.512 464.671727 
L 31.68 463.216885 
L 38.016 460.970022 
L 41.184 460.385025 
L 44.352 459.945799 
L 47.52 459.646646 
L 50.688 459.073533 
L 53.856 457.310626 
L 57.024 456.829122 
L 60.192 457.374717 
L 63.36 457.7893 
L 66.528 457.108635 
L 69.696 456.568335 
L 72.864 457.040978 
L 76.032 457.867797 
L 79.2 459.120852 
L 82.368 459.922764 
L 85.536 460.422305 
L 95.04 461.286807 
L 101.376 461.420494 
L 104.544 461.733354 
L 110.88 463.004109 
L 114.048 463.192377 
L 117.216 463.708928 
L 120.384 464.473521 
L 123.552 465.488182 
L 126.72 466.067883 
L 133.056 466.33713 
L 139.392 465.889544 
L 145.728 464.809875 
L 155.232 462.405908 
L 158.4 461.425323 
L 161.568 460.618276 
L 167.904 459.684204 
L 171.072 458.924067 
L 174.24 457.740189 
L 180.576 456.992661 
L 183.744 457.09487 
L 186.912 458.168074 
L 190.08 458.720286 
L 193.248 458.608322 
L 196.416 459.219179 
L 199.584 459.556153 
L 209.088 460.009869 
L 212.256 460.525874 
L 215.424 460.916603 
L 221.76 462.494807 
L 224.928 462.664265 
L 231.264 463.803981 
L 234.432 464.181532 
L 237.6 464.03669 
L 243.936 465.074909 
L 247.104 465.903353 
L 250.272 466.478884 
L 253.44 467.608951 
L 256.608 468.941457 
L 262.944 470.743529 
L 266.112 471.31219 
L 269.28 472.466954 
L 272.448 473.786326 
L 275.616 474.977101 
L 278.784 475.654155 
L 285.12 477.225204 
L 288.288 477.664035 
L 294.624 477.653388 
L 297.792 477.686684 
L 300.96 477.530507 
L 307.296 478.0369 
L 313.632 478.09328 
L 316.8 478.545714 
L 319.968 479.372976 
L 323.136 480.524625 
L 326.304 481.513418 
L 329.472 482.220999 
L 332.64 483.27434 
L 335.808 484.127944 
L 342.144 485.049521 
L 345.312 485.254426 
L 351.648 485.128639 
L 354.816 485.391022 
L 357.984 485.497498 
L 361.152 485.784566 
L 364.32 485.881539 
L 370.656 485.569517 
L 376.992 484.669294 
L 386.496 483.842161 
L 399.168 482.013939 
L 402.336 481.360788 
L 405.504 480.589101 
L 408.672 479.976009 
L 411.84 479.499151 
L 415.008 479.161868 
L 421.344 477.778778 
L 424.512 476.763651 
L 427.68 475.909927 
L 430.848 475.237918 
L 437.184 473.200422 
L 443.52 471.612746 
L 446.688 470.928646 
L 449.856 469.975457 
L 453.024 469.158406 
L 462.528 466.192381 
L 468.864 464.381885 
L 472.032 463.797578 
L 484.704 462.791671 
L 487.872 462.932371 
L 491.04 463.230522 
L 500.544 464.687906 
L 513.216 466.877661 
L 516.384 467.150657 
L 519.552 466.944464 
L 522.72 467.473763 
L 525.888 467.847229 
L 532.224 469.053539 
L 535.392 469.35767 
L 538.56 469.455312 
L 544.896 470.160482 
L 551.232 471.13036 
L 554.4 471.469737 
L 557.568 471.923858 
L 560.736 472.893385 
L 563.904 474.103042 
L 567.072 474.89387 
L 576.576 476.171668 
L 582.912 477.677371 
L 589.248 479.175957 
L 592.416 479.508009 
L 595.584 480.159109 
L 598.752 480.452698 
L 608.256 480.942189 
L 611.424 480.807968 
L 614.592 480.520882 
L 617.76 480.040254 
L 620.928 479.82552 
L 624.096 479.970375 
L 627.264 479.283372 
L 630.432 478.83328 
L 633.6 478.622063 
L 636.768 478.852108 
L 643.104 480.17886 
L 649.44 481.207301 
L 652.608 481.986482 
L 655.776 481.799842 
L 658.944 481.417282 
L 662.112 481.173403 
L 665.28 480.817581 
L 668.448 480.585584 
L 674.784 479.856192 
L 677.952 479.760499 
L 684.288 479.213044 
L 687.456 479.163944 
L 690.624 479.409091 
L 693.792 479.862222 
L 703.296 479.582293 
L 706.464 479.609491 
L 709.632 479.913346 
L 712.8 480.340304 
L 719.136 480.881541 
L 728.64 481.132094 
L 734.976 482.542587 
L 741.312 484.181308 
L 744.48 484.665561 
L 753.984 486.745616 
L 757.152 487.722948 
L 763.488 488.899928 
L 766.656 489.767309 
L 772.992 491.210481 
L 779.328 491.815316 
L 782.496 492.016347 
L 788.832 491.978278 
L 788.832 491.978278 
" clip-path="url(#peda8f46a08)" style="fill: none; stroke: #000000; stroke-width: 1.5; stroke-linecap: square"/>
   </g>
   <g id="line2d_6">
    <path d="M 0 459 
L 3.168 459 
L 6.336 460.643226 
L 12.672 462.776756 
L 19.008 464.386982 
L 25.344 465.50318 
L 28.512 464.586531 
L 31.68 463.37174 
L 38.016 461.473505 
L 41.184 460.954945 
L 44.352 460.555104 
L 47.52 460.268438 
L 53.856 459.23844 
L 57.024 459.056098 
L 63.36 459.181929 
L 66.528 458.933424 
L 69.696 458.425091 
L 72.864 458.630882 
L 85.536 460.212738 
L 98.208 460.892459 
L 101.376 460.967322 
L 104.544 461.19066 
L 110.88 462.054853 
L 114.048 462.222202 
L 117.216 462.59069 
L 120.384 463.115292 
L 123.552 463.799915 
L 126.72 464.235338 
L 133.056 464.581071 
L 139.392 464.485406 
L 145.728 463.98166 
L 155.232 462.665886 
L 161.568 461.605696 
L 174.24 460.227553 
L 183.744 459.882156 
L 190.08 460.051433 
L 193.248 459.978762 
L 202.752 460.302416 
L 209.088 460.424454 
L 215.424 460.887973 
L 221.76 461.754 
L 224.928 461.8783 
L 231.264 462.565273 
L 234.432 462.818629 
L 237.6 462.800429 
L 243.936 463.463565 
L 247.104 463.969261 
L 250.272 464.355286 
L 253.44 465.039735 
L 256.608 465.848495 
L 269.28 468.290578 
L 275.616 469.975972 
L 281.952 471.191787 
L 285.12 471.805893 
L 288.288 472.265907 
L 304.128 473.402584 
L 307.296 473.700275 
L 313.632 474.091432 
L 316.8 474.494467 
L 319.968 475.093144 
L 326.304 476.5768 
L 329.472 477.150948 
L 335.808 478.573532 
L 342.144 479.515053 
L 345.312 479.852796 
L 351.648 480.229604 
L 361.152 481.164627 
L 364.32 481.40587 
L 370.656 481.607497 
L 396 481.000281 
L 402.336 480.500321 
L 408.672 479.845653 
L 418.176 479.062715 
L 421.344 478.688377 
L 427.68 477.637037 
L 430.848 477.220766 
L 437.184 475.997146 
L 453.024 473.24132 
L 468.864 469.82604 
L 472.032 469.301534 
L 484.704 467.90161 
L 491.04 467.710247 
L 500.544 467.945439 
L 516.384 468.690382 
L 519.552 468.522816 
L 535.392 469.563226 
L 538.56 469.608743 
L 544.896 469.971596 
L 557.568 470.976887 
L 560.736 471.517746 
L 563.904 472.200324 
L 567.072 472.69079 
L 576.576 473.652359 
L 589.248 475.694726 
L 592.416 476.01453 
L 595.584 476.497862 
L 601.92 477.050006 
L 608.256 477.516429 
L 614.592 477.586657 
L 617.76 477.467066 
L 620.928 477.46738 
L 624.096 477.641272 
L 630.432 477.238936 
L 633.6 477.198282 
L 636.768 477.374935 
L 652.608 479.382039 
L 658.944 479.297722 
L 668.448 479.101632 
L 677.952 478.826425 
L 687.456 478.607172 
L 690.624 478.752545 
L 693.792 479.009216 
L 706.464 478.999488 
L 722.304 479.867959 
L 728.64 480.038949 
L 734.976 480.858743 
L 741.312 481.845965 
L 747.648 482.642223 
L 753.984 483.589903 
L 757.152 484.221431 
L 766.656 485.726976 
L 772.992 486.812849 
L 782.496 487.780386 
L 788.832 488.113703 
L 788.832 488.113703 
" clip-path="url(#peda8f46a08)" style="fill: none; stroke: #000000; stroke-width: 1.5; stroke-linecap: square"/>
   </g>
   <g id="line2d_7">
    <path d="M 0 459 
L 3.168 459 
L 6.336 460.625811 
L 12.672 462.718756 
L 19.008 464.280663 
L 25.344 465.358037 
L 28.512 464.531078 
L 31.68 463.428806 
L 38.016 461.701954 
L 44.352 460.848956 
L 47.52 460.57668 
L 53.856 459.645003 
L 57.024 459.46346 
L 63.36 459.520435 
L 69.696 459.173126 
L 76.032 459.316966 
L 79.2 459.553766 
L 82.368 459.962492 
L 88.704 460.376261 
L 104.544 460.995741 
L 110.88 461.658861 
L 114.048 461.797892 
L 117.216 462.084184 
L 120.384 462.485088 
L 123.552 463.003452 
L 126.72 463.345497 
L 133.056 463.656725 
L 139.392 463.653266 
L 145.728 463.357317 
L 155.232 462.504074 
L 161.568 461.792961 
L 177.408 460.723123 
L 183.744 460.551355 
L 190.08 460.622938 
L 193.248 460.559709 
L 202.752 460.720994 
L 209.088 460.774707 
L 218.592 461.313848 
L 221.76 461.577615 
L 224.928 461.658748 
L 234.432 462.260146 
L 237.6 462.264038 
L 250.272 463.273049 
L 272.448 466.422712 
L 275.616 466.968468 
L 288.288 468.620014 
L 313.632 470.379372 
L 319.968 471.124451 
L 326.304 472.152465 
L 332.64 473.110024 
L 338.976 473.974591 
L 345.312 474.664469 
L 357.984 475.683614 
L 364.32 476.243728 
L 370.656 476.592912 
L 389.664 477.055101 
L 402.336 477.007819 
L 411.84 476.748659 
L 418.176 476.581672 
L 424.512 476.190801 
L 434.016 475.481871 
L 456.192 473.381223 
L 472.032 471.509128 
L 487.872 470.429636 
L 494.208 470.310343 
L 510.048 470.403594 
L 516.384 470.45135 
L 519.552 470.325352 
L 554.4 471.164081 
L 557.568 471.291634 
L 570.24 472.345752 
L 576.576 472.699454 
L 595.584 474.345338 
L 608.256 475.060155 
L 614.592 475.199949 
L 620.928 475.238413 
L 624.096 475.375069 
L 630.432 475.262771 
L 636.768 475.415323 
L 652.608 476.678741 
L 662.112 476.786867 
L 687.456 476.829354 
L 700.128 477.170857 
L 706.464 477.264061 
L 731.808 478.313591 
L 750.816 479.999845 
L 766.656 481.709279 
L 776.16 482.710504 
L 785.664 483.394267 
L 788.832 483.574983 
L 788.832 483.574983 
" clip-path="url(#peda8f46a08)" style="fill: none; stroke: #000000; stroke-width: 1.5; stroke-linecap: square"/>
   </g>
   <g id="line2d_8">
    <path d="M 0 459 
L 3.168 459 
L 6.336 460.617102 
L 12.672 462.689679 
L 19.008 464.227208 
L 25.344 465.284562 
L 28.512 464.500257 
L 31.68 463.452128 
L 38.016 461.80937 
L 44.352 460.991239 
L 47.52 460.727791 
L 53.856 459.846404 
L 57.024 459.667794 
L 63.36 459.69736 
L 69.696 459.365564 
L 76.032 459.475946 
L 79.2 459.678572 
L 82.368 460.033606 
L 88.704 460.391749 
L 104.544 460.92935 
L 114.048 461.620694 
L 120.384 462.20882 
L 123.552 462.648853 
L 126.72 462.943161 
L 133.056 463.224007 
L 139.392 463.245827 
L 145.728 463.027798 
L 158.4 462.065876 
L 164.736 461.627175 
L 180.576 460.859192 
L 186.912 460.852175 
L 209.088 460.940993 
L 218.592 461.333604 
L 221.76 461.527929 
L 228.096 461.754907 
L 234.432 462.035722 
L 237.6 462.042894 
L 250.272 462.792631 
L 272.448 465.124018 
L 278.784 465.835393 
L 288.288 466.784378 
L 313.632 468.24591 
L 319.968 468.816909 
L 332.64 470.300291 
L 338.976 470.96247 
L 345.312 471.511602 
L 357.984 472.373845 
L 367.488 473.012956 
L 376.992 473.362764 
L 389.664 473.761008 
L 405.504 473.891257 
L 421.344 473.810044 
L 446.688 472.801407 
L 462.528 471.799579 
L 472.032 471.159303 
L 487.872 470.52243 
L 497.376 470.44692 
L 510.048 470.495115 
L 516.384 470.5212 
L 519.552 470.446232 
L 554.4 470.937614 
L 560.736 471.173295 
L 567.072 471.533098 
L 579.744 472.038714 
L 601.92 473.13612 
L 614.592 473.488299 
L 620.928 473.551552 
L 624.096 473.648997 
L 633.6 473.659328 
L 639.936 473.911437 
L 655.776 474.629672 
L 690.624 475.004117 
L 696.96 475.16195 
L 709.632 475.391258 
L 722.304 475.768335 
L 728.64 475.912676 
L 744.48 476.779251 
L 763.488 478.011527 
L 776.16 478.922477 
L 788.832 479.566757 
L 788.832 479.566757 
" clip-path="url(#peda8f46a08)" style="fill: none; stroke: #000000; stroke-width: 1.5; stroke-linecap: square"/>
   </g>
   <g id="line2d_9">
    <path d="M 0 459 
L 3.168 459 
L 6.336 460.612747 
L 12.672 462.675123 
L 19.008 464.200417 
L 25.344 465.247622 
L 28.512 464.484092 
L 31.68 463.462481 
L 38.016 461.861269 
L 44.352 461.060986 
L 47.52 460.802302 
L 53.856 459.946201 
L 57.024 459.76962 
L 63.36 459.787166 
L 69.696 459.463664 
L 76.032 459.55904 
L 79.2 459.745808 
L 82.368 460.075662 
L 88.704 460.407391 
L 104.544 460.904986 
L 120.384 462.083538 
L 123.552 462.486315 
L 126.72 462.757191 
L 133.056 463.020751 
L 139.392 463.050778 
L 145.728 462.865348 
L 158.4 462.023862 
L 164.736 461.638584 
L 180.576 460.961336 
L 186.912 460.951014 
L 209.088 461.015005 
L 218.592 461.344857 
L 221.76 461.508778 
L 228.096 461.700539 
L 234.432 461.9381 
L 237.6 461.945671 
L 250.272 462.577174 
L 272.448 464.530011 
L 278.784 465.126748 
L 288.288 465.926909 
L 316.8 467.40729 
L 329.472 468.58083 
L 338.976 469.46105 
L 345.312 469.926451 
L 376.992 471.555304 
L 389.664 471.939912 
L 408.672 472.148011 
L 421.344 472.167694 
L 446.688 471.543931 
L 465.696 470.709138 
L 475.2 470.336763 
L 491.04 469.967136 
L 510.048 470.012102 
L 557.568 470.441733 
L 605.088 472.08737 
L 614.592 472.278542 
L 636.768 472.525813 
L 655.776 473.175648 
L 703.296 473.749863 
L 715.968 474.02769 
L 738.144 474.651965 
L 769.824 476.117664 
L 782.496 476.691281 
L 788.832 476.910439 
L 788.832 476.910439 
" clip-path="url(#peda8f46a08)" style="fill: none; stroke: #000000; stroke-width: 1.5; stroke-linecap: square"/>
   </g>
  </g>
 </g>
 <defs>
  <clipPath id="peda8f46a08">
   <rect x="0" y="0" width="792" height="612"/>
  </clipPath>
 </defs>
</svg>
