<?xml version="1.0" encoding="utf-8" standalone="no"?>
<!DOCTYPE svg PUBLIC "-//W3C//DTD SVG 1.1//EN"
  "http://www.w3.org/Graphics/SVG/1.1/DTD/svg11.dtd">
<svg xmlns:xlink="http://www.w3.org/1999/xlink" width="792pt" height="612pt" viewBox="0 0 792 612" xmlns="http://www.w3.org/2000/svg" version="1.1">
 <metadata>
  <rdf:RDF xmlns:dc="http://purl.org/dc/elements/1.1/" xmlns:cc="http://creativecommons.org/ns#" xmlns:rdf="http://www.w3.org/1999/02/22-rdf-syntax-ns#">
   <cc:Work>
    <dc:type rdf:resource="http://purl.org/dc/dcmitype/StillImage"/>
    <dc:date>2023-01-02T15:40:07.884403</dc:date>
    <dc:format>image/svg+xml</dc:format>
    <dc:creator>
     <cc:Agent>
      <dc:title>Matplotlib v3.6.2, https://matplotlib.org/</dc:title>
     </cc:Agent>
    </dc:creator>
   </cc:Work>
  </rdf:RDF>
 </metadata>
 <defs>
  <style type="text/css">*{stroke-linejoin: round; stroke-linecap: butt}</style>
 </defs>
 <g id="figure_1">
  <g id="patch_1">
   <path d="M 0 612 
L 792 612 
L 792 0 
L 0 0 
z
" style="fill: #ffffff"/>
  </g>
  <g id="axes_1">
   <g id="line2d_1">
    <path d="M 0 459 
L 3.155378 460.941816 
L 6.310757 464.959947 
L 9.466135 467.414538 
L 12.621514 467.271633 
L 15.776892 467.254821 
L 18.932271 464.825449 
L 22.087649 464.447173 
L 25.243028 467.254821 
L 28.398406 466.515082 
L 31.553785 469.263887 
L 34.709163 472.264876 
L 37.864542 473.71073 
L 41.01992 475.476018 
L 44.175299 476.140102 
L 47.330677 477.68683 
L 50.486056 477.762486 
L 53.641434 478.157574 
L 56.796813 468.818362 
L 59.952191 465.077633 
L 63.10757 465.220537 
L 66.262948 464.186583 
L 69.418327 466.657986 
L 72.573705 467.086699 
L 75.729084 467.700346 
L 78.884462 465.035602 
L 82.039841 463.816713 
L 85.195219 467.313664 
L 88.350598 470.238998 
L 91.505976 470.037251 
L 94.661355 466.750453 
L 97.816733 466.9522 
L 100.972112 470.037251 
L 104.12749 471.365419 
L 107.282869 473.870447 
L 110.438247 477.443053 
L 113.593625 475.198615 
L 116.749004 473.424922 
L 119.904382 473.197956 
L 123.059761 474.811933 
L 126.215139 471.987473 
L 129.370518 472.264876 
L 132.525896 474.837152 
L 135.681275 478.090325 
L 138.836653 479.653865 
L 141.992032 475.022087 
L 145.14741 478.746003 
L 148.302789 481.931927 
L 151.458167 485.386847 
L 157.768924 477.846547 
L 160.924303 476.980715 
L 164.079681 474.156255 
L 167.23506 472.979397 
L 170.390438 470.087687 
L 173.545817 468.919235 
L 176.701195 465.674468 
L 179.856574 465.12807 
L 183.011952 464.38833 
L 186.167331 461.56387 
L 189.322709 462.5642 
L 192.478088 465.220537 
L 195.633466 465.472721 
L 198.788845 462.000989 
L 205.099602 467.557442 
L 208.25498 467.296852 
L 211.410359 469.020109 
L 214.565737 472.66837 
L 217.721116 471.062799 
L 220.876494 468.759519 
L 224.031873 473.055052 
L 227.187251 473.239987 
L 230.342629 471.281358 
L 233.498008 471.424262 
L 236.653386 472.105159 
L 239.808765 475.997198 
L 242.964143 475.08093 
L 246.119522 480.191858 
L 249.2749 480.385199 
L 252.430279 474.442064 
L 255.585657 479.477336 
L 258.741036 479.216746 
L 261.896414 477.939014 
L 265.051793 472.441404 
L 268.207171 480.217076 
L 271.36255 479.788363 
L 274.517928 484.176364 
L 277.673307 482.116862 
L 280.828685 488.850173 
L 283.984064 492.162189 
L 287.139442 488.337399 
L 290.294821 489.657162 
L 293.450199 486.546893 
L 296.605578 493.624856 
L 299.760956 496.541783 
L 302.916335 496.340036 
L 306.071713 491.699852 
L 309.227092 494.011538 
L 312.38247 493.87704 
L 315.537849 491.136641 
L 318.693227 486.210648 
L 321.848606 486.883138 
L 325.003984 486.992418 
L 328.159363 484.890885 
L 331.314741 489.79166 
L 334.47012 489.152794 
L 337.625498 486.992418 
L 340.780876 487.622878 
L 350.247012 501.139937 
L 353.40239 500.400198 
L 356.557769 498.155761 
L 359.713147 502.669853 
L 362.868526 501.408934 
L 366.023904 497.785891 
L 369.179283 498.22301 
L 372.334661 495.768419 
L 375.49004 492.918741 
L 378.645418 492.918741 
L 381.800797 496.466128 
L 384.956175 494.961431 
L 388.111554 497.07137 
L 391.266932 495.213615 
L 394.422311 493.002802 
L 397.577689 491.859568 
L 400.733068 488.976265 
L 403.888446 488.396242 
L 407.043825 490.220373 
L 410.199203 489.388165 
L 413.354582 489.699192 
L 416.50996 487.194165 
L 419.665339 485.765123 
L 422.820717 488.371024 
L 425.976096 485.067414 
L 429.131474 483.352563 
L 432.286853 481.410747 
L 441.752988 484.563046 
L 444.908367 480.200264 
L 448.063745 479.72952 
L 451.219124 475.391956 
L 454.374502 476.23257 
L 457.52988 477.493489 
L 460.685259 472.348937 
L 463.840637 472.617933 
L 470.151394 473.408109 
L 473.306773 473.366079 
L 476.462151 469.73463 
L 479.61753 470.36509 
L 482.772908 467.330476 
L 485.928287 466.414208 
L 489.083665 466.548706 
L 492.239044 465.270974 
L 495.394422 465.607219 
L 498.549801 467.818032 
L 501.705179 471.138454 
L 504.860558 471.424262 
L 508.015936 471.172078 
L 511.171315 469.070546 
L 514.326693 474.458876 
L 517.482072 476.341849 
L 520.63745 478.418164 
L 523.792829 479.8388 
L 526.948207 479.216746 
L 530.103586 481.024065 
L 533.258964 482.100049 
L 536.414343 480.897973 
L 539.569721 482.158892 
L 542.7251 479.712708 
L 545.880478 474.618592 
L 549.035857 482.680073 
L 552.191235 481.444371 
L 555.346614 483.915774 
L 558.501992 485.319598 
L 561.657371 482.14208 
L 564.812749 480.107796 
L 567.968127 482.780946 
L 571.123506 483.604747 
L 574.278884 485.546563 
L 577.434263 485.260755 
L 580.589641 484.428548 
L 583.74502 486.042525 
L 586.900398 492.229438 
L 590.055777 495.827262 
L 593.211155 492.254656 
L 596.366534 489.186418 
L 599.521912 488.934234 
L 602.677291 489.749629 
L 605.832669 494.238503 
L 608.988048 493.961101 
L 612.143426 495.171584 
L 615.298805 495.709576 
L 618.454183 491.800725 
L 621.609562 495.675952 
L 624.76494 492.288281 
L 627.920319 491.161859 
L 631.075697 491.069392 
L 634.231076 491.46448 
L 637.386454 488.202901 
L 640.541833 486.370364 
L 643.697211 483.940992 
L 646.85259 486.454426 
L 650.007968 490.279215 
L 653.163347 481.082908 
L 656.318725 483.100379 
L 659.474104 485.361628 
L 662.629482 490.085874 
L 665.784861 495.255645 
L 668.940239 495.675952 
L 675.250996 494.734465 
L 678.406375 498.626504 
L 681.561753 488.539146 
L 684.717131 486.160211 
L 687.87251 487.353882 
L 691.027888 485.874403 
L 694.183267 486.925169 
L 697.338645 485.302786 
L 700.494024 484.823636 
L 703.649402 487.580847 
L 706.804781 485.756717 
L 709.960159 485.008571 
L 713.115538 487.496786 
L 716.270916 490.766771 
L 719.426295 493.330641 
L 722.581673 487.564035 
L 725.737052 487.328663 
L 728.89243 487.74897 
L 732.047809 488.740893 
L 735.203187 491.867974 
L 738.358566 493.523982 
L 741.513944 492.086534 
L 744.669323 492.498434 
L 747.824701 490.539806 
L 750.98008 489.716005 
L 754.135458 491.61579 
L 757.290837 497.256305 
L 760.446215 498.929125 
L 763.601594 500.728037 
L 766.756972 500.78688 
L 769.912351 498.138948 
L 773.067729 500.845723 
L 776.223108 501.15675 
L 779.378486 502.695072 
L 782.533865 506.049118 
L 785.689243 503.048129 
L 788.844622 502.779133 
L 788.844622 502.779133 
" clip-path="url(#paf478a8348)" style="fill: none; stroke: #000000; stroke-width: 1.5; stroke-linecap: square"/>
   </g>
   <g id="line2d_2">
    <path d="M 0 459 
L 3.155378 459 
L 6.310757 460.294544 
L 9.466135 462.960489 
L 12.621514 465.335982 
L 15.776892 466.335028 
L 18.932271 466.802224 
L 22.087649 465.806054 
L 25.243028 465.123949 
L 28.398406 466.205571 
L 31.553785 466.371254 
L 34.709163 467.82601 
L 37.864542 470.054953 
L 44.175299 473.701863 
L 47.330677 474.943168 
L 50.486056 476.340959 
L 53.641434 477.072326 
L 56.796813 477.637778 
L 59.952191 473.227196 
L 63.10757 469.138322 
L 66.262948 467.162782 
L 69.418327 465.652547 
L 78.884462 467.125894 
L 85.195219 464.926059 
L 88.350598 466.124246 
L 91.505976 468.191462 
L 94.661355 469.125828 
L 97.816733 467.938322 
L 100.972112 467.444998 
L 107.282869 470.067974 
L 110.438247 471.988924 
L 113.593625 474.73585 
L 116.749004 474.976957 
L 119.904382 474.207582 
L 123.059761 473.715411 
L 126.215139 474.279084 
L 129.370518 473.137102 
L 132.525896 472.702753 
L 135.681275 473.771848 
L 138.836653 475.932355 
L 141.992032 477.801846 
L 145.14741 476.415098 
L 148.302789 477.591429 
L 151.458167 479.775639 
L 154.613546 482.607516 
L 157.768924 482.136773 
L 160.924303 479.997561 
L 164.079681 478.486962 
L 167.23506 476.310829 
L 170.390438 474.641108 
L 173.545817 472.34742 
L 176.701195 470.607813 
L 179.856574 468.102489 
L 183.011952 466.582924 
L 186.167331 465.459239 
L 189.322709 463.481325 
L 192.478088 463.000033 
L 195.633466 464.095072 
L 198.788845 464.774848 
L 201.944223 463.374353 
L 205.099602 464.106675 
L 208.25498 465.836822 
L 211.410359 466.57254 
L 214.565737 467.810944 
L 217.721116 470.259469 
L 220.876494 470.672589 
L 224.031873 469.722499 
L 227.187251 471.41045 
L 230.342629 472.341685 
L 233.498008 471.818823 
L 236.653386 471.629636 
L 239.808765 471.873447 
L 242.964143 473.941849 
L 246.119522 474.519268 
L 249.2749 477.377979 
L 252.430279 478.895962 
L 255.585657 476.67137 
L 258.741036 478.090424 
L 261.896414 478.668864 
L 265.051793 478.315378 
L 268.207171 475.371419 
L 271.36255 477.804318 
L 274.517928 478.79555 
L 277.673307 481.49339 
L 280.828685 481.820175 
L 287.139442 488.783254 
L 290.294821 488.580715 
L 293.450199 489.152695 
L 296.605578 487.862205 
L 302.916335 493.680468 
L 306.071713 495.038141 
L 309.227092 493.374584 
L 312.38247 493.696687 
L 315.537849 493.797725 
L 318.693227 492.470084 
L 321.848606 489.339707 
L 325.003984 488.098203 
L 328.159363 487.526586 
L 331.314741 486.186286 
L 334.47012 487.985232 
L 337.625498 488.559486 
L 340.780876 487.762453 
L 343.936255 487.685776 
L 347.091633 489.901896 
L 350.247012 493.333608 
L 353.40239 497.264513 
L 356.557769 498.862766 
L 359.713147 498.525663 
L 362.868526 500.624262 
L 366.023904 501.044866 
L 369.179283 499.435306 
L 372.334661 498.841174 
L 375.49004 497.302917 
L 378.645418 495.094709 
L 381.800797 493.992055 
L 384.956175 495.225779 
L 388.111554 495.07849 
L 391.266932 496.066425 
L 394.422311 495.634976 
L 400.733068 493.076446 
L 403.888446 491.018625 
L 407.043825 489.698566 
L 410.199203 489.947223 
L 413.354582 489.656766 
L 416.50996 489.663524 
L 422.820717 487.07493 
L 425.976096 487.716136 
L 429.131474 486.384111 
L 432.286853 484.858447 
L 435.442231 483.117323 
L 438.59761 482.780056 
L 441.752988 483.091841 
L 444.908367 483.822284 
L 448.063745 482.000363 
L 451.219124 480.847997 
L 454.374502 478.101005 
L 457.52988 477.152827 
L 460.685259 477.315477 
L 463.840637 474.812362 
L 466.996016 473.693951 
L 470.151394 473.326619 
L 476.462151 473.347585 
L 479.61753 471.530015 
L 482.772908 470.936047 
L 485.928287 469.113334 
L 489.083665 467.752134 
L 492.239044 467.13852 
L 495.394422 466.189583 
L 498.549801 465.883105 
L 501.705179 466.83969 
L 504.860558 468.991825 
L 508.015936 470.21012 
L 511.171315 470.698632 
L 514.326693 469.889797 
L 517.482072 472.189847 
L 523.792829 476.377979 
L 526.948207 478.13196 
L 530.103586 478.690193 
L 536.414343 481.009428 
L 539.569721 480.976891 
L 542.7251 481.58299 
L 545.880478 480.654459 
L 549.035857 477.629075 
L 552.191235 480.160145 
L 555.346614 480.806626 
L 561.657371 483.849547 
L 564.812749 482.998253 
L 567.968127 481.549003 
L 574.278884 482.905489 
L 577.434263 484.231647 
L 580.589641 484.753684 
L 583.74502 484.592121 
L 586.900398 485.318741 
L 593.211155 492.341388 
L 596.366534 492.316598 
L 599.521912 490.762453 
L 602.677291 489.854986 
L 605.832669 489.811109 
L 608.988048 492.044042 
L 618.454183 494.904862 
L 621.609562 493.351904 
L 624.76494 494.526652 
L 631.075697 492.29072 
L 634.231076 491.673842 
L 637.386454 491.564266 
L 643.697211 488.10183 
L 646.85259 486.006 
L 650.007968 486.212131 
L 653.163347 488.241734 
L 656.318725 484.642558 
L 659.474104 483.855843 
L 662.629482 484.596769 
L 665.784861 487.345014 
L 668.940239 491.317752 
L 672.095618 493.519862 
L 675.250996 494.388133 
L 678.406375 494.570035 
L 681.561753 496.632669 
L 684.717131 492.596572 
L 687.87251 489.379957 
L 691.027888 488.361563 
L 694.183267 487.099588 
L 697.338645 486.99522 
L 700.494024 486.129553 
L 703.649402 485.457162 
L 706.804781 486.497346 
L 709.960159 486.121576 
L 713.115538 485.562815 
L 716.270916 486.530081 
L 719.426295 488.658019 
L 722.581673 491.00689 
L 725.737052 489.289896 
L 728.89243 488.314192 
L 732.047809 488.03191 
L 735.203187 488.392253 
L 741.513944 491.845591 
L 744.669323 491.96865 
L 747.824701 492.23191 
L 754.135458 490.55853 
L 757.290837 491.094742 
L 760.446215 494.19222 
L 763.601594 496.574518 
L 766.756972 498.665403 
L 769.912351 499.743201 
L 773.067729 498.952134 
L 776.223108 499.919136 
L 779.378486 500.560376 
L 782.533865 501.649448 
L 785.689243 503.866524 
L 788.844622 503.465403 
L 788.844622 503.465403 
" clip-path="url(#paf478a8348)" style="fill: none; stroke: #000000; stroke-width: 1.5; stroke-linecap: square"/>
   </g>
   <g id="line2d_3">
    <path d="M 0 459 
L 3.155378 459 
L 6.310757 460.13749 
L 9.466135 462.322458 
L 12.621514 464.311039 
L 15.776892 465.364384 
L 18.932271 465.997179 
L 25.243028 465.254076 
L 28.398406 465.867176 
L 31.553785 466.063065 
L 34.709163 467.021748 
L 44.175299 471.68757 
L 50.486056 474.377369 
L 53.641434 475.390397 
L 56.796813 476.220659 
L 59.952191 474.057008 
L 63.10757 471.424326 
L 66.262948 469.604922 
L 69.418327 468.014403 
L 72.573705 467.619223 
L 75.729084 467.466282 
L 78.884462 467.535349 
L 82.039841 466.801491 
L 85.195219 465.921013 
L 88.350598 466.323224 
L 91.505976 467.46614 
L 94.661355 468.212954 
L 97.816733 467.773813 
L 100.972112 467.520838 
L 104.12749 468.249005 
L 107.282869 469.15398 
L 110.438247 470.541204 
L 113.593625 472.576912 
L 116.749004 473.356252 
L 123.059761 473.339125 
L 126.215139 473.779374 
L 129.370518 473.259463 
L 132.525896 472.976458 
L 135.681275 473.534101 
L 141.992032 476.28973 
L 145.14741 475.924171 
L 148.302789 476.764445 
L 151.458167 478.295171 
L 154.613546 480.389905 
L 157.768924 480.764706 
L 164.079681 479.054729 
L 170.390438 476.25944 
L 173.545817 474.448203 
L 176.701195 472.822037 
L 179.856574 470.721312 
L 183.011952 469.074892 
L 186.167331 467.690228 
L 189.322709 465.876877 
L 192.478088 464.886987 
L 198.788845 465.104419 
L 201.944223 464.172553 
L 205.099602 464.345108 
L 208.25498 465.269816 
L 211.410359 465.851404 
L 214.565737 466.770352 
L 217.721116 468.496133 
L 220.876494 469.24569 
L 224.031873 469.101768 
L 227.187251 470.264409 
L 230.342629 471.144625 
L 236.653386 471.267926 
L 239.808765 471.525254 
L 242.964143 472.850485 
L 246.119522 473.515093 
L 249.2749 475.487578 
L 252.430279 476.943174 
L 255.585657 476.221642 
L 258.741036 477.188904 
L 261.896414 477.796537 
L 265.051793 477.848512 
L 268.207171 476.264546 
L 271.36255 477.43273 
L 274.517928 478.135347 
L 277.673307 479.917494 
L 280.828685 480.57187 
L 283.984064 483.016708 
L 287.139442 485.719177 
L 290.294821 486.504681 
L 293.450199 487.443711 
L 296.605578 487.194209 
L 299.760956 489.093131 
L 302.916335 491.293348 
L 306.071713 492.796641 
L 309.227092 492.489438 
L 312.38247 492.952244 
L 315.537849 493.241417 
L 318.693227 492.646415 
L 321.848606 490.768307 
L 325.003984 489.638516 
L 328.159363 488.866727 
L 331.314741 487.705416 
L 334.47012 488.317544 
L 337.625498 488.558726 
L 340.780876 488.09842 
L 343.936255 487.956801 
L 347.091633 489.175206 
L 350.247012 491.390556 
L 353.40239 494.251365 
L 356.557769 496.05698 
L 359.713147 496.679114 
L 362.868526 498.443706 
L 366.023904 499.320852 
L 369.179283 498.87891 
L 372.334661 498.700598 
L 375.49004 497.851989 
L 378.645418 496.413881 
L 381.800797 495.399399 
L 384.956175 495.719503 
L 388.111554 495.50414 
L 391.266932 495.974748 
L 394.422311 495.760536 
L 400.733068 494.04197 
L 403.888446 492.544288 
L 407.043825 491.315566 
L 410.199203 490.985677 
L 413.354582 490.502521 
L 416.50996 490.253782 
L 419.665339 489.345475 
L 422.820717 488.282505 
L 425.976096 488.299935 
L 429.131474 487.344133 
L 432.286853 486.164042 
L 435.442231 484.754541 
L 438.59761 484.071043 
L 441.752988 483.867094 
L 444.908367 484.0587 
L 448.063745 482.913885 
L 451.219124 481.967274 
L 454.374502 480.025805 
L 457.52988 478.900821 
L 460.685259 478.474005 
L 463.840637 476.660443 
L 466.996016 475.4568 
L 470.151394 474.722273 
L 476.462151 474.02561 
L 479.61753 472.7512 
L 482.772908 472.037407 
L 485.928287 470.642606 
L 489.083665 469.385695 
L 492.239044 468.535373 
L 495.394422 467.557094 
L 498.549801 466.969227 
L 501.705179 467.204155 
L 504.860558 468.351599 
L 508.015936 469.246038 
L 511.171315 469.802902 
L 514.326693 469.584634 
L 517.482072 471.014381 
L 520.63745 472.578593 
L 526.948207 475.925977 
L 530.103586 476.900712 
L 536.414343 479.303158 
L 539.569721 479.786905 
L 542.7251 480.499574 
L 545.880478 480.285694 
L 549.035857 478.636189 
L 552.191235 479.837685 
L 555.346614 480.32011 
L 561.657371 482.555508 
L 564.812749 482.449432 
L 567.968127 481.770071 
L 571.123506 482.073545 
L 574.278884 482.527981 
L 577.434263 483.418659 
L 580.589641 483.965139 
L 583.74502 484.104779 
L 586.900398 484.67686 
L 590.055777 486.901974 
L 593.211155 489.53183 
L 596.366534 490.343733 
L 602.677291 489.710228 
L 605.832669 489.731308 
L 608.988048 491.063291 
L 618.454183 493.732852 
L 621.609562 493.177305 
L 624.76494 493.923007 
L 627.920319 493.45195 
L 631.075697 492.787976 
L 634.231076 492.292242 
L 637.386454 492.056024 
L 640.541833 490.922845 
L 643.697211 489.578592 
L 646.85259 487.917828 
L 650.007968 487.48607 
L 653.163347 488.305708 
L 656.318725 486.180244 
L 659.474104 485.265379 
L 662.629482 485.283693 
L 665.784861 486.684378 
L 668.940239 489.194322 
L 672.095618 491.097199 
L 675.250996 492.30481 
L 678.406375 493.019249 
L 681.561753 494.67015 
L 684.717131 492.871514 
L 687.87251 490.899727 
L 691.027888 489.860197 
L 694.183267 488.692215 
L 697.338645 488.178087 
L 703.649402 486.592895 
L 706.804781 486.889723 
L 709.960159 486.560924 
L 713.115538 486.105845 
L 716.270916 486.510268 
L 719.426295 487.751813 
L 722.581673 489.38312 
L 728.89243 488.389913 
L 732.047809 488.189691 
L 735.203187 488.351366 
L 738.358566 489.387913 
L 741.513944 490.606426 
L 747.824701 491.47857 
L 750.98008 491.209627 
L 754.135458 490.777775 
L 757.290837 491.027858 
L 766.756972 496.450623 
L 769.912351 497.732193 
L 773.067729 497.856851 
L 776.223108 498.747527 
L 779.378486 499.469055 
L 782.533865 500.4311 
L 785.689243 502.09646 
L 788.844622 502.388039 
L 788.844622 502.388039 
" clip-path="url(#paf478a8348)" style="fill: none; stroke: #000000; stroke-width: 1.5; stroke-linecap: square"/>
   </g>
   <g id="line2d_4">
    <path d="M 0 459 
L 3.155378 459 
L 6.310757 460.054821 
L 9.466135 461.979907 
L 12.621514 463.709246 
L 15.776892 464.687223 
L 18.932271 465.319161 
L 25.243028 465.046108 
L 28.398406 465.491062 
L 31.553785 465.688973 
L 34.709163 466.357068 
L 41.01992 468.54773 
L 47.330677 470.854056 
L 50.486056 472.013649 
L 56.796813 473.841065 
L 59.952191 473.011091 
L 63.10757 471.708132 
L 69.418327 469.596799 
L 72.573705 469.120371 
L 75.729084 468.79167 
L 78.884462 468.615725 
L 85.195219 467.36155 
L 88.350598 467.353871 
L 94.661355 468.171322 
L 100.972112 467.785752 
L 104.12749 468.15086 
L 107.282869 468.668812 
L 110.438247 469.50197 
L 113.593625 470.771682 
L 116.749004 471.480969 
L 126.215139 472.472935 
L 132.525896 472.380953 
L 135.681275 472.77522 
L 141.992032 474.587508 
L 145.14741 474.656368 
L 148.302789 475.308669 
L 151.458167 476.365102 
L 154.613546 477.805251 
L 157.768924 478.415838 
L 160.924303 478.330895 
L 164.079681 478.123503 
L 170.390438 476.784455 
L 176.701195 474.640055 
L 179.856574 473.212334 
L 189.322709 469.265709 
L 192.478088 468.194686 
L 195.633466 467.718483 
L 198.788845 467.360377 
L 201.944223 466.50459 
L 205.099602 466.236866 
L 214.565737 466.95969 
L 217.721116 467.866383 
L 220.876494 468.37347 
L 224.031873 468.432122 
L 230.342629 469.815431 
L 239.808765 470.553942 
L 242.964143 471.417702 
L 246.119522 472.000572 
L 249.2749 473.304737 
L 252.430279 474.430299 
L 255.585657 474.425342 
L 258.741036 475.227789 
L 261.896414 475.863302 
L 265.051793 476.194153 
L 268.207171 475.596007 
L 271.36255 476.335752 
L 274.517928 476.891127 
L 277.673307 478.059754 
L 280.828685 478.715513 
L 283.984064 480.342775 
L 287.139442 482.240615 
L 293.450199 484.267252 
L 296.605578 484.643258 
L 299.760956 486.089827 
L 302.916335 487.774322 
L 306.071713 489.156811 
L 309.227092 489.576481 
L 312.38247 490.298782 
L 315.537849 490.883605 
L 318.693227 490.935387 
L 321.848606 490.193115 
L 331.314741 488.571486 
L 334.47012 488.777169 
L 337.625498 488.847994 
L 340.780876 488.562054 
L 343.936255 488.419881 
L 347.091633 489.015212 
L 350.247012 490.252457 
L 353.40239 491.997644 
L 356.557769 493.350716 
L 359.713147 494.12687 
L 362.868526 495.500723 
L 366.023904 496.455384 
L 372.334661 496.93916 
L 375.49004 496.762861 
L 381.800797 495.648271 
L 384.956175 495.783147 
L 388.111554 495.654155 
L 391.266932 495.885089 
L 394.422311 495.781722 
L 397.577689 495.343614 
L 400.733068 494.788188 
L 407.043825 492.984706 
L 416.50996 491.664107 
L 422.820717 490.125179 
L 425.976096 489.847015 
L 429.131474 489.085362 
L 432.286853 488.172294 
L 435.442231 487.091278 
L 438.59761 486.351834 
L 441.752988 485.884452 
L 444.908367 485.672303 
L 451.219124 483.977837 
L 454.374502 482.595727 
L 457.52988 481.568247 
L 460.685259 480.907047 
L 463.840637 479.526502 
L 466.996016 478.40936 
L 470.151394 477.533984 
L 476.462151 476.291859 
L 479.61753 475.234115 
L 482.772908 474.445364 
L 489.083665 472.182582 
L 498.549801 469.531618 
L 501.705179 469.24398 
L 511.171315 470.026922 
L 514.326693 469.862082 
L 517.482072 470.583939 
L 520.63745 471.493272 
L 526.948207 473.738376 
L 530.103586 474.606354 
L 536.414343 476.656459 
L 542.7251 478.09777 
L 545.880478 478.351686 
L 549.035857 477.754255 
L 552.191235 478.539811 
L 555.346614 479.005713 
L 561.657371 480.676104 
L 564.812749 480.915457 
L 567.968127 480.791628 
L 574.278884 481.516847 
L 577.434263 482.165589 
L 580.589641 482.667728 
L 583.74502 482.956656 
L 586.900398 483.459304 
L 590.055777 484.870771 
L 593.211155 486.632256 
L 596.366534 487.543636 
L 605.832669 488.298577 
L 608.988048 489.257875 
L 618.454183 491.641693 
L 621.609562 491.676641 
L 624.76494 492.323713 
L 627.920319 492.325843 
L 634.231076 491.982743 
L 637.386454 491.906129 
L 640.541833 491.32149 
L 643.697211 490.536375 
L 646.85259 489.489665 
L 650.007968 489.014132 
L 653.163347 489.220153 
L 656.318725 487.925262 
L 659.474104 487.157097 
L 662.629482 486.871458 
L 665.784861 487.38784 
L 668.940239 488.649087 
L 672.095618 489.775132 
L 675.250996 490.649 
L 678.406375 491.304745 
L 681.561753 492.478002 
L 684.717131 491.853881 
L 687.87251 490.948071 
L 691.027888 490.373181 
L 694.183267 489.651199 
L 697.338645 489.214153 
L 703.649402 487.987703 
L 706.804781 487.921618 
L 713.115538 487.158464 
L 716.270916 487.207504 
L 719.426295 487.770712 
L 722.581673 488.656271 
L 732.047809 488.203106 
L 735.203187 488.287217 
L 738.358566 488.85718 
L 741.513944 489.603005 
L 747.824701 490.404287 
L 750.98008 490.428397 
L 754.135458 490.314702 
L 757.290837 490.528281 
L 763.601594 492.780918 
L 766.756972 494.051973 
L 769.912351 495.126972 
L 773.067729 495.607725 
L 782.533865 498.07543 
L 785.689243 499.354997 
L 788.844622 499.953125 
L 788.844622 499.953125 
" clip-path="url(#paf478a8348)" style="fill: none; stroke: #000000; stroke-width: 1.5; stroke-linecap: square"/>
   </g>
   <g id="line2d_5">
    <path d="M 0 459 
L 3.155378 459 
L 6.310757 460.012943 
L 9.466135 461.806701 
L 12.621514 463.39577 
L 15.776892 464.310728 
L 18.932271 464.913466 
L 25.243028 464.822668 
L 28.398406 465.195446 
L 31.553785 465.384428 
L 34.709163 465.908442 
L 41.01992 467.582529 
L 50.486056 470.303605 
L 56.796813 471.847746 
L 59.952191 471.536275 
L 66.262948 470.324032 
L 69.418327 469.725707 
L 75.729084 469.20856 
L 78.884462 469.067178 
L 85.195219 468.245364 
L 88.350598 468.160539 
L 94.661355 468.499693 
L 100.972112 468.220689 
L 107.282869 468.64209 
L 110.438247 469.097995 
L 113.593625 469.822625 
L 116.749004 470.287657 
L 126.215139 471.129923 
L 132.525896 471.293689 
L 135.681275 471.595044 
L 141.992032 472.782291 
L 145.14741 472.971705 
L 148.302789 473.459256 
L 151.458167 474.173615 
L 154.613546 475.117796 
L 157.768924 475.66542 
L 164.079681 475.943659 
L 170.390438 475.558019 
L 176.701195 474.583076 
L 186.167331 472.382357 
L 189.322709 471.479479 
L 192.478088 470.735779 
L 198.788845 469.87555 
L 201.944223 469.219431 
L 205.099602 468.858045 
L 211.410359 468.632221 
L 214.565737 468.664937 
L 217.721116 468.998962 
L 220.876494 469.171492 
L 224.031873 469.13858 
L 230.342629 469.781571 
L 239.808765 470.20601 
L 242.964143 470.687399 
L 246.119522 471.051916 
L 252.430279 472.524247 
L 255.585657 472.682338 
L 261.896414 473.745597 
L 265.051793 474.097819 
L 268.207171 473.962694 
L 274.517928 474.931265 
L 277.673307 475.704133 
L 280.828685 476.241056 
L 283.984064 477.295313 
L 287.139442 478.538429 
L 293.450199 480.21961 
L 296.605578 480.750122 
L 299.760956 481.82742 
L 302.916335 483.058284 
L 306.071713 484.169176 
L 309.227092 484.80081 
L 315.537849 486.266467 
L 318.693227 486.675859 
L 325.003984 486.665927 
L 328.159363 486.696989 
L 331.314741 486.551289 
L 337.625498 487.023711 
L 343.936255 487.076308 
L 347.091633 487.498391 
L 350.247012 488.270157 
L 353.40239 489.344549 
L 356.557769 490.267009 
L 359.713147 490.927123 
L 362.868526 491.909801 
L 366.023904 492.706142 
L 372.334661 493.565896 
L 375.49004 493.757055 
L 381.800797 493.639706 
L 384.956175 493.884487 
L 388.111554 493.98382 
L 391.266932 494.251631 
L 394.422311 494.342098 
L 400.733068 494.051008 
L 407.043825 493.211176 
L 416.50996 492.439531 
L 429.131474 490.733953 
L 441.752988 488.387868 
L 444.908367 488.073211 
L 451.219124 486.782905 
L 454.374502 485.835877 
L 457.52988 485.039424 
L 460.685259 484.412496 
L 466.996016 482.511685 
L 473.306773 481.030516 
L 476.462151 480.392309 
L 479.61753 479.503064 
L 482.772908 478.740824 
L 492.239044 475.973772 
L 498.549801 474.284732 
L 501.705179 473.739623 
L 514.326693 472.801197 
L 517.482072 472.932457 
L 520.63745 473.210608 
L 530.103586 474.570224 
L 542.7251 476.613081 
L 545.880478 476.867763 
L 549.035857 476.675403 
L 552.191235 477.169194 
L 555.346614 477.517606 
L 561.657371 478.642992 
L 564.812749 478.92672 
L 567.968127 479.017812 
L 574.278884 479.675676 
L 580.589641 480.580491 
L 586.900398 481.320758 
L 590.055777 482.225245 
L 593.211155 483.353752 
L 596.366534 484.091528 
L 605.832669 485.283606 
L 612.143426 486.6883 
L 618.454183 488.086355 
L 621.609562 488.396132 
L 624.76494 489.003553 
L 627.920319 489.277447 
L 637.386454 489.734101 
L 640.541833 489.608884 
L 643.697211 489.341057 
L 646.85259 488.892671 
L 650.007968 488.692342 
L 653.163347 488.82748 
L 656.318725 488.186564 
L 659.474104 487.766667 
L 662.629482 487.569619 
L 665.784861 487.784231 
L 672.095618 489.021979 
L 678.406375 489.981428 
L 681.561753 490.708338 
L 684.717131 490.534219 
L 687.87251 490.177323 
L 697.338645 489.401418 
L 703.649402 488.720957 
L 706.804781 488.631684 
L 713.115538 488.120954 
L 716.270916 488.075148 
L 719.426295 488.30385 
L 722.581673 488.726583 
L 732.047809 488.465433 
L 735.203187 488.490806 
L 738.358566 488.774277 
L 741.513944 489.172593 
L 747.824701 489.677522 
L 757.290837 489.911267 
L 763.601594 491.227137 
L 769.912351 492.755926 
L 773.067729 493.207693 
L 782.533865 495.148209 
L 785.689243 496.059977 
L 788.844622 496.645501 
L 788.844622 496.645501 
" clip-path="url(#paf478a8348)" style="fill: none; stroke: #000000; stroke-width: 1.5; stroke-linecap: square"/>
   </g>
   <g id="line2d_6">
    <path d="M 0 459 
L 3.155378 459 
L 6.310757 459.991936 
L 9.466135 461.720176 
L 12.621514 463.237566 
L 15.776892 464.115753 
L 18.932271 464.697183 
L 25.243028 464.678774 
L 28.398406 465.017037 
L 31.553785 465.197685 
L 34.709163 465.652464 
L 41.01992 467.069312 
L 50.486056 469.359814 
L 56.796813 470.678633 
L 59.952191 470.53803 
L 69.418327 469.402936 
L 75.729084 469.078634 
L 78.884462 468.990289 
L 85.195219 468.439338 
L 88.350598 468.371422 
L 94.661355 468.57276 
L 100.972112 468.382505 
L 107.282869 468.633751 
L 110.438247 468.918219 
L 113.593625 469.375849 
L 116.749004 469.684939 
L 129.370518 470.385043 
L 132.525896 470.480161 
L 135.681275 470.698827 
L 141.992032 471.491402 
L 145.14741 471.664717 
L 148.302789 472.010013 
L 151.458167 472.490763 
L 154.613546 473.111861 
L 157.768924 473.519724 
L 164.079681 473.879993 
L 170.390438 473.85015 
L 176.701195 473.453262 
L 186.167331 472.342289 
L 192.478088 471.424836 
L 208.25498 470.109046 
L 214.565737 469.939811 
L 220.876494 470.106219 
L 224.031873 470.046361 
L 233.498008 470.35798 
L 239.808765 470.479875 
L 246.119522 470.913729 
L 252.430279 471.717078 
L 255.585657 471.836172 
L 261.896414 472.476892 
L 265.051793 472.714718 
L 268.207171 472.702831 
L 277.673307 473.79317 
L 280.828685 474.153696 
L 283.984064 474.789665 
L 287.139442 475.540778 
L 299.760956 477.816689 
L 306.071713 479.385719 
L 312.38247 480.521332 
L 315.537849 481.095109 
L 318.693227 481.526262 
L 334.47012 482.603151 
L 340.780876 483.059391 
L 343.936255 483.254605 
L 347.091633 483.632626 
L 350.247012 484.192339 
L 356.557769 485.577925 
L 359.713147 486.115032 
L 366.023904 487.444289 
L 372.334661 488.326447 
L 375.49004 488.643793 
L 381.800797 489.000483 
L 391.266932 489.879002 
L 397.577689 490.229515 
L 400.733068 490.298907 
L 413.354582 490.146905 
L 419.665339 490.010402 
L 422.820717 489.833493 
L 425.976096 489.775404 
L 432.286853 489.317915 
L 438.59761 488.711125 
L 448.063745 487.98071 
L 451.219124 487.631484 
L 457.52988 486.650672 
L 460.685259 486.262327 
L 466.996016 485.120792 
L 482.772908 482.549839 
L 498.549801 479.36367 
L 501.705179 478.87435 
L 514.326693 477.568339 
L 520.63745 477.389813 
L 530.103586 477.609227 
L 545.880478 478.304197 
L 549.035857 478.147872 
L 564.812749 479.118487 
L 567.968127 479.16095 
L 574.278884 479.499461 
L 586.900398 480.437313 
L 590.055777 480.94189 
L 593.211155 481.578677 
L 596.366534 482.03624 
L 605.832669 482.933303 
L 618.454183 484.83866 
L 621.609562 485.13701 
L 624.76494 485.587919 
L 631.075697 486.103021 
L 637.386454 486.538155 
L 643.697211 486.603672 
L 646.85259 486.492104 
L 650.007968 486.492397 
L 653.163347 486.654623 
L 659.474104 486.279278 
L 662.629482 486.241351 
L 665.784861 486.406153 
L 681.561753 488.278612 
L 687.87251 488.199952 
L 697.338645 488.017017 
L 706.804781 487.760271 
L 716.270916 487.555727 
L 725.737052 487.915475 
L 735.203187 487.921725 
L 750.98008 488.731935 
L 757.290837 488.891454 
L 763.601594 489.656252 
L 769.912351 490.577248 
L 776.223108 491.320089 
L 782.533865 492.204195 
L 785.689243 492.793358 
L 788.844622 493.229221 
L 788.844622 493.229221 
" clip-path="url(#paf478a8348)" style="fill: none; stroke: #000000; stroke-width: 1.5; stroke-linecap: square"/>
   </g>
   <g id="line2d_7">
    <path d="M 0 459 
L 3.155378 459 
L 6.310757 459.981423 
L 9.466135 461.677004 
L 12.621514 463.158324 
L 15.776892 464.017005 
L 18.932271 464.58628 
L 25.243028 464.599066 
L 28.398406 464.920354 
L 31.553785 465.095815 
L 34.709163 465.517084 
L 44.175299 467.518986 
L 56.796813 470.072644 
L 59.952191 469.992982 
L 69.418327 469.134695 
L 88.350598 468.362153 
L 94.661355 468.519623 
L 100.972112 468.378255 
L 107.282869 468.56781 
L 110.438247 468.781608 
L 116.749004 469.36044 
L 129.370518 469.922762 
L 135.681275 470.177572 
L 151.458167 471.533773 
L 154.613546 471.987646 
L 157.768924 472.299998 
L 164.079681 472.620515 
L 170.390438 472.678369 
L 176.701195 472.486432 
L 186.167331 471.838252 
L 192.478088 471.27339 
L 208.25498 470.431745 
L 214.565737 470.307213 
L 220.876494 470.391395 
L 224.031873 470.346859 
L 236.653386 470.541662 
L 242.964143 470.726151 
L 246.119522 470.840591 
L 252.430279 471.327222 
L 255.585657 471.407927 
L 265.051793 471.967985 
L 268.207171 471.980042 
L 280.828685 472.914555 
L 302.916335 475.805382 
L 306.071713 476.306722 
L 318.693227 477.836953 
L 343.936255 479.507493 
L 350.247012 480.203252 
L 356.557769 481.157593 
L 362.868526 482.048804 
L 369.179283 482.855999 
L 375.49004 483.504141 
L 388.111554 484.471011 
L 394.422311 485.000749 
L 400.733068 485.336988 
L 419.665339 485.805824 
L 432.286853 485.788711 
L 441.752988 485.568072 
L 448.063745 485.425392 
L 454.374502 485.075498 
L 463.840637 484.435867 
L 485.928287 482.523421 
L 501.705179 480.807488 
L 517.482072 479.820952 
L 523.792829 479.715034 
L 539.569721 479.812069 
L 545.880478 479.860287 
L 549.035857 479.745316 
L 583.74502 480.54245 
L 586.900398 480.66244 
L 599.521912 481.647679 
L 605.832669 481.979258 
L 624.76494 483.517603 
L 637.386454 484.187639 
L 643.697211 484.320203 
L 650.007968 484.358424 
L 653.163347 484.486744 
L 659.474104 484.384558 
L 665.784861 484.528705 
L 681.561753 485.709802 
L 691.027888 485.813435 
L 716.270916 485.860069 
L 728.89243 486.181242 
L 738.358566 486.390253 
L 747.824701 486.789316 
L 757.290837 487.032407 
L 766.756972 487.789042 
L 788.844622 489.782198 
L 788.844622 489.782198 
" clip-path="url(#paf478a8348)" style="fill: none; stroke: #000000; stroke-width: 1.5; stroke-linecap: square"/>
   </g>
   <g id="line2d_8">
    <path d="M 0 459 
L 3.155378 459 
L 6.310757 459.976166 
L 9.466135 461.655451 
L 12.621514 463.118696 
L 15.776892 463.967372 
L 18.932271 464.530221 
L 25.243028 464.557347 
L 28.398406 464.870214 
L 31.553785 465.042832 
L 34.709163 465.44768 
L 44.175299 467.352124 
L 56.796813 469.768003 
L 59.952191 469.713002 
L 69.418327 468.97594 
L 88.350598 468.322771 
L 94.661355 468.462952 
L 100.972112 468.345086 
L 107.282869 468.509239 
L 113.593625 468.984237 
L 119.904382 469.322297 
L 138.836653 470.135337 
L 141.992032 470.401133 
L 148.302789 470.749902 
L 160.924303 471.841471 
L 167.23506 472.023956 
L 173.545817 472.000168 
L 179.856574 471.780962 
L 189.322709 471.239042 
L 195.633466 470.917461 
L 211.410359 470.35933 
L 217.721116 470.379473 
L 239.808765 470.534614 
L 249.2749 470.899944 
L 252.430279 471.076244 
L 258.741036 471.290941 
L 265.051793 471.5522 
L 268.207171 471.568119 
L 280.828685 472.254867 
L 302.916335 474.355591 
L 309.227092 474.999448 
L 318.693227 475.8646 
L 347.091633 477.468062 
L 359.713147 478.762101 
L 366.023904 479.459303 
L 375.49004 480.244515 
L 391.266932 481.289234 
L 400.733068 481.805056 
L 425.976096 482.526545 
L 435.442231 482.556927 
L 451.219124 482.523613 
L 476.462151 481.66609 
L 492.239044 480.786272 
L 501.705179 480.220107 
L 517.482072 479.664389 
L 526.948207 479.608866 
L 539.569721 479.669668 
L 545.880478 479.701553 
L 552.191235 479.675569 
L 574.278884 479.937024 
L 590.055777 480.349672 
L 596.366534 480.686311 
L 612.143426 481.320521 
L 627.920319 482.083432 
L 643.697211 482.530083 
L 662.629482 482.70509 
L 668.940239 482.942868 
L 684.717131 483.618369 
L 719.426295 483.991813 
L 725.737052 484.142269 
L 738.358566 484.363267 
L 750.98008 484.720563 
L 760.446215 485.002457 
L 782.533865 486.215729 
L 788.844622 486.636452 
L 788.844622 486.636452 
" clip-path="url(#paf478a8348)" style="fill: none; stroke: #000000; stroke-width: 1.5; stroke-linecap: square"/>
   </g>
   <g id="line2d_9">
    <path d="M 0 459 
L 3.155378 459 
L 6.310757 459.973537 
L 9.466135 461.644683 
L 12.621514 463.098884 
L 15.776892 463.942497 
L 18.932271 464.502052 
L 25.243028 464.536034 
L 28.398406 464.844706 
L 31.553785 465.015843 
L 34.709163 465.41257 
L 44.175299 467.268866 
L 56.796813 469.615764 
L 59.952191 469.571718 
L 69.418327 468.890899 
L 88.350598 468.294071 
L 94.661355 468.426526 
L 100.972112 468.319897 
L 107.282869 468.47256 
L 113.593625 468.909773 
L 119.904382 469.222508 
L 138.836653 469.974505 
L 141.992032 470.216218 
L 148.302789 470.536101 
L 160.924303 471.52631 
L 167.23506 471.700668 
L 173.545817 471.693515 
L 179.856574 471.515004 
L 211.410359 470.320399 
L 224.031873 470.324135 
L 249.2749 470.780674 
L 255.585657 470.981652 
L 265.051793 471.329679 
L 268.207171 471.345954 
L 280.828685 471.91947 
L 302.916335 473.655153 
L 312.38247 474.445685 
L 318.693227 474.907408 
L 347.091633 476.280871 
L 359.713147 477.342786 
L 369.179283 478.141789 
L 378.645418 478.731426 
L 407.043825 480.098312 
L 422.820717 480.530236 
L 432.286853 480.685838 
L 457.52988 480.66346 
L 466.996016 480.472924 
L 485.928287 479.947892 
L 504.860558 479.24169 
L 520.63745 478.93721 
L 539.569721 479.007174 
L 586.900398 479.460299 
L 637.386454 481.09327 
L 653.163347 481.329512 
L 662.629482 481.373632 
L 672.095618 481.663428 
L 687.87251 482.086228 
L 747.824701 482.962669 
L 763.601594 483.353136 
L 788.844622 484.401824 
L 788.844622 484.401824 
" clip-path="url(#paf478a8348)" style="fill: none; stroke: #000000; stroke-width: 1.5; stroke-linecap: square"/>
   </g>
  </g>
 </g>
 <defs>
  <clipPath id="paf478a8348">
   <rect x="0" y="0" width="792" height="612"/>
  </clipPath>
 </defs>
</svg>
