<?xml version="1.0" encoding="utf-8" standalone="no"?>
<!DOCTYPE svg PUBLIC "-//W3C//DTD SVG 1.1//EN"
  "http://www.w3.org/Graphics/SVG/1.1/DTD/svg11.dtd">
<svg xmlns:xlink="http://www.w3.org/1999/xlink" width="792pt" height="612pt" viewBox="0 0 792 612" xmlns="http://www.w3.org/2000/svg" version="1.1">
 <metadata>
  <rdf:RDF xmlns:dc="http://purl.org/dc/elements/1.1/" xmlns:cc="http://creativecommons.org/ns#" xmlns:rdf="http://www.w3.org/1999/02/22-rdf-syntax-ns#">
   <cc:Work>
    <dc:type rdf:resource="http://purl.org/dc/dcmitype/StillImage"/>
    <dc:date>2022-12-19T20:28:11.356610</dc:date>
    <dc:format>image/svg+xml</dc:format>
    <dc:creator>
     <cc:Agent>
      <dc:title>Matplotlib v3.6.2, https://matplotlib.org/</dc:title>
     </cc:Agent>
    </dc:creator>
   </cc:Work>
  </rdf:RDF>
 </metadata>
 <defs>
  <style type="text/css">*{stroke-linejoin: round; stroke-linecap: butt}</style>
 </defs>
 <g id="figure_1">
  <g id="patch_1">
   <path d="M 0 612 
L 792 612 
L 792 0 
L 0 0 
z
" style="fill: #ffffff"/>
  </g>
  <g id="axes_1">
   <g id="line2d_1">
    <path d="M 0 459 
L 12.375 467.977972 
L 24.75 466.601787 
L 37.125 469.354158 
L 49.5 470.917579 
L 61.875 467.378817 
L 74.25 465.113259 
L 86.625 468.090314 
L 99 469.007771 
L 111.375 471.170348 
L 123.75 470.852047 
L 136.125 469.925228 
L 148.5 471.722695 
L 160.875 478.612984 
L 173.25 482.619837 
L 185.625 478.64107 
L 198 475.22401 
L 210.375 474.943156 
L 222.75 475.851251 
L 235.125 480.850456 
L 247.5 480.541516 
L 259.875 481.889616 
L 272.25 482.488772 
L 284.625 478.135532 
L 297 482.451325 
L 309.375 478.678517 
L 321.75 477.424035 
L 334.125 477.321055 
L 346.5 477.76106 
L 358.875 474.128679 
L 371.25 472.087805 
L 383.625 469.382243 
L 396 472.181423 
L 408.375 476.441045 
L 420.75 466.199229 
L 433.125 468.446063 
L 445.5 470.964388 
L 457.875 476.225724 
L 470.25 481.983234 
L 482.625 482.451325 
L 495 481.945787 
L 507.375 481.402802 
L 519.75 485.737319 
L 532.125 474.503151 
L 544.5 471.85376 
L 556.875 473.183137 
L 569.25 471.535459 
L 581.625 472.705684 
L 594 470.898856 
L 606.375 470.365233 
L 618.75 473.435905 
L 631.125 471.404393 
L 643.5 470.571193 
L 655.875 473.342287 
L 668.25 476.98403 
L 680.625 479.839381 
L 693 473.417182 
L 705.375 473.155051 
L 717.75 473.623141 
L 730.125 474.727835 
L 742.5 478.210426 
L 754.875 480.054702 
L 767.25 478.453833 
L 779.625 478.912562 
" clip-path="url(#p1e4519cea5)" style="fill: none; stroke: #000000; stroke-width: 1.5; stroke-linecap: square"/>
   </g>
   <g id="line2d_2">
    <path d="M 0 459 
L 12.375 459 
L 24.75 464.985315 
L 37.125 465.909013 
L 49.5 467.746424 
L 61.875 469.383149 
L 74.25 468.365075 
L 86.625 466.726365 
L 99 467.411014 
L 111.375 468.229015 
L 123.75 469.705941 
L 136.125 470.287328 
L 148.5 470.107398 
L 160.875 470.916625 
L 173.25 474.786832 
L 185.625 478.737661 
L 198 478.710053 
L 210.375 476.97922 
L 222.75 475.968586 
L 235.125 475.919721 
L 247.5 478.40651 
L 259.875 479.491305 
L 272.25 480.696886 
L 284.625 481.592572 
L 297 479.863061 
L 309.375 481.171364 
L 321.75 479.932265 
L 334.125 478.681234 
L 346.5 477.994224 
L 358.875 477.87219 
L 371.25 475.985217 
L 383.625 474.016117 
L 396 471.682017 
L 408.375 471.911583 
L 420.75 474.171927 
L 433.125 470.163569 
L 445.5 469.287414 
L 457.875 470.112574 
L 470.25 473.173261 
L 482.625 477.59765 
L 495 480.050113 
L 507.375 481.017096 
L 519.75 481.219678 
L 532.125 483.516808 
L 544.5 479.021856 
L 556.875 475.439552 
L 569.25 474.305378 
L 581.625 472.899933 
L 594 472.783699 
L 606.375 471.819617 
L 618.75 471.070783 
L 631.125 472.229224 
L 643.5 471.810732 
L 655.875 471.188448 
L 668.25 472.265679 
L 680.625 474.635538 
L 693 477.251447 
L 705.375 475.339252 
L 717.75 474.252622 
L 730.125 473.938249 
L 742.5 474.339558 
L 754.875 476.289971 
L 767.25 478.185498 
L 779.625 478.322548 
" clip-path="url(#p1e4519cea5)" style="fill: none; stroke: #000000; stroke-width: 1.5; stroke-linecap: square"/>
   </g>
   <g id="line2d_3">
    <path d="M 0 459 
L 12.375 459 
L 24.75 464.259174 
L 37.125 465.320569 
L 49.5 466.895784 
L 61.875 468.326692 
L 74.25 468.009405 
L 86.625 467.078897 
L 99 467.394883 
L 111.375 467.88913 
L 123.75 468.881178 
L 136.125 469.471476 
L 148.5 469.606486 
L 160.875 470.233234 
L 173.25 472.706932 
L 185.625 475.626483 
L 198 476.512898 
L 210.375 476.154026 
L 222.75 475.807371 
L 235.125 475.830847 
L 247.5 477.314261 
L 259.875 478.270556 
L 272.25 479.347222 
L 284.625 480.287318 
L 297 479.668612 
L 309.375 480.499091 
L 321.75 479.974481 
L 334.125 479.235021 
L 346.5 478.682928 
L 358.875 478.419855 
L 371.25 477.157848 
L 383.625 475.66077 
L 396 473.811197 
L 408.375 473.330353 
L 420.75 474.243174 
L 433.125 471.876071 
L 445.5 470.857197 
L 457.875 470.877592 
L 470.25 472.437518 
L 482.625 475.232813 
L 495 477.352023 
L 507.375 478.696925 
L 519.75 479.492587 
L 532.125 481.331175 
L 544.5 479.328057 
L 556.875 477.132101 
L 569.25 475.97439 
L 581.625 474.673623 
L 594 474.101044 
L 606.375 473.161672 
L 618.75 472.335635 
L 631.125 472.666209 
L 643.5 472.30003 
L 655.875 471.793213 
L 668.25 472.243615 
L 680.625 473.626308 
L 693 475.443075 
L 705.375 474.839908 
L 717.75 474.336952 
L 730.125 474.113967 
L 742.5 474.294023 
L 754.875 475.448412 
L 767.25 476.805456 
L 779.625 477.296201 
" clip-path="url(#p1e4519cea5)" style="fill: none; stroke: #000000; stroke-width: 1.5; stroke-linecap: square"/>
   </g>
   <g id="line2d_4">
    <path d="M 0 459 
L 12.375 459 
L 24.75 463.876957 
L 37.125 464.946355 
L 49.5 466.348949 
L 61.875 467.603169 
L 74.25 467.547952 
L 86.625 466.996693 
L 99 467.228692 
L 111.375 467.587095 
L 123.75 468.279627 
L 136.125 468.760371 
L 148.5 468.97218 
L 160.875 469.461199 
L 173.25 471.05846 
L 185.625 473.045612 
L 198 473.99522 
L 210.375 474.20157 
L 222.75 474.325014 
L 235.125 474.577217 
L 247.5 475.607508 
L 259.875 476.413712 
L 272.25 477.304635 
L 284.625 478.145066 
L 297 478.143525 
L 309.375 478.838037 
L 321.75 478.812373 
L 334.125 478.589412 
L 346.5 478.386023 
L 358.875 478.285931 
L 371.25 477.620823 
L 383.625 476.736392 
L 396 475.561732 
L 408.375 475.032137 
L 420.75 475.26158 
L 433.125 473.819476 
L 445.5 472.96398 
L 457.875 472.645867 
L 470.25 473.220955 
L 482.625 474.625591 
L 495 475.879654 
L 507.375 476.85287 
L 519.75 477.583165 
L 532.125 478.889807 
L 544.5 478.194731 
L 556.875 477.185941 
L 569.25 476.545693 
L 581.625 475.741631 
L 594 475.254898 
L 606.375 474.559137 
L 618.75 473.889016 
L 631.125 473.815417 
L 643.5 473.425921 
L 655.875 472.965502 
L 668.25 473.020117 
L 680.625 473.647355 
L 693 474.633592 
L 705.375 474.43442 
L 717.75 474.227421 
L 730.125 474.128907 
L 742.5 474.22258 
L 754.875 474.857341 
L 767.25 475.687958 
L 779.625 476.13199 
" clip-path="url(#p1e4519cea5)" style="fill: none; stroke: #000000; stroke-width: 1.5; stroke-linecap: square"/>
   </g>
   <g id="line2d_5">
    <path d="M 0 459 
L 12.375 459 
L 24.75 463.683335 
L 37.125 464.74155 
L 49.5 466.048606 
L 61.875 467.198002 
L 74.25 467.23502 
L 86.625 466.847777 
L 99 467.054028 
L 111.375 467.35348 
L 123.75 467.900083 
L 136.125 468.298817 
L 148.5 468.507628 
L 160.875 468.902481 
L 173.25 470.049392 
L 185.625 471.483727 
L 198 472.275767 
L 210.375 472.593241 
L 222.75 472.840188 
L 235.125 473.149776 
L 247.5 473.926145 
L 259.875 474.581417 
L 272.25 475.293875 
L 284.625 475.985269 
L 297 476.189227 
L 309.375 476.776243 
L 321.75 476.952668 
L 334.125 476.995963 
L 346.5 477.02556 
L 358.875 477.091988 
L 371.25 476.826298 
L 383.625 476.404257 
L 396 475.782605 
L 408.375 475.46555 
L 420.75 475.551003 
L 433.125 474.735544 
L 445.5 474.189406 
L 457.875 473.910437 
L 470.25 474.110013 
L 482.625 474.786513 
L 495 475.443182 
L 507.375 475.998794 
L 519.75 476.459409 
L 532.125 477.248451 
L 544.5 477.015454 
L 556.875 476.578194 
L 569.25 476.291083 
L 581.625 475.889544 
L 594 475.621102 
L 606.375 475.223477 
L 618.75 474.814894 
L 631.125 474.699048 
L 643.5 474.42255 
L 655.875 474.099631 
L 668.25 474.036185 
L 680.625 474.282947 
L 693 474.747739 
L 705.375 474.636512 
L 717.75 474.512743 
L 730.125 474.438463 
L 742.5 474.462613 
L 754.875 474.77525 
L 767.25 475.215468 
L 779.625 475.485389 
" clip-path="url(#p1e4519cea5)" style="fill: none; stroke: #000000; stroke-width: 1.5; stroke-linecap: square"/>
   </g>
   <g id="line2d_6">
    <path d="M 0 459 
L 12.375 459 
L 24.75 463.586206 
L 37.125 464.635247 
L 49.5 465.892707 
L 61.875 466.986585 
L 74.25 467.059236 
L 86.625 466.743841 
L 99 466.938745 
L 111.375 467.210431 
L 123.75 467.687954 
L 136.125 468.041838 
L 148.5 468.238804 
L 160.875 468.581822 
L 173.25 469.517044 
L 185.625 470.679543 
L 198 471.354628 
L 210.375 471.669382 
L 222.75 471.925703 
L 235.125 472.222404 
L 247.5 472.853583 
L 259.875 473.399206 
L 272.25 473.985043 
L 284.625 474.556593 
L 297 474.791315 
L 309.375 475.282306 
L 321.75 475.495373 
L 334.125 475.613958 
L 346.5 475.716954 
L 358.875 475.838111 
L 371.25 475.738472 
L 383.625 475.529013 
L 396 475.181542 
L 408.375 475.014312 
L 420.75 475.092792 
L 433.125 474.609675 
L 445.5 474.2788 
L 457.875 474.102862 
L 470.25 474.214358 
L 482.625 474.618302 
L 495 475.02171 
L 507.375 475.375088 
L 519.75 475.680085 
L 532.125 476.184832 
L 544.5 476.101085 
L 556.875 475.891125 
L 569.25 475.758195 
L 581.625 475.552287 
L 594 475.414359 
L 606.375 475.196885 
L 618.75 474.965518 
L 631.125 474.892672 
L 643.5 474.727409 
L 655.875 474.531477 
L 668.25 474.475682 
L 680.625 474.592841 
L 693 474.836844 
L 705.375 474.77109 
L 717.75 474.696532 
L 730.125 474.647194 
L 742.5 474.650888 
L 754.875 474.813365 
L 767.25 475.051833 
L 779.625 475.206138 
" clip-path="url(#p1e4519cea5)" style="fill: none; stroke: #000000; stroke-width: 1.5; stroke-linecap: square"/>
   </g>
   <g id="line2d_7">
    <path d="M 0 459 
L 12.375 459 
L 24.75 463.537602 
L 37.125 464.581199 
L 49.5 465.813484 
L 61.875 466.878999 
L 74.25 466.966877 
L 86.625 466.68456 
L 99 466.873886 
L 111.375 467.13204 
L 123.75 467.576355 
L 136.125 467.907432 
L 148.5 468.096327 
L 160.875 468.412953 
L 173.25 469.24849 
L 185.625 470.281333 
L 198 470.892927 
L 210.375 471.194202 
L 222.75 471.443007 
L 235.125 471.722986 
L 247.5 472.279282 
L 259.875 472.763701 
L 272.25 473.279566 
L 284.625 473.782487 
L 297 474.012575 
L 309.375 474.445028 
L 321.75 474.655696 
L 334.125 474.78966 
L 346.5 474.908941 
L 358.875 475.039968 
L 371.25 474.999105 
L 383.625 474.871545 
L 396 474.636296 
L 408.375 474.533298 
L 420.75 474.611731 
L 433.125 474.272546 
L 445.5 474.041982 
L 457.875 473.922367 
L 470.25 474.010356 
L 482.625 474.309898 
L 495 474.610914 
L 507.375 474.877957 
L 519.75 475.112003 
L 532.125 475.487707 
L 544.5 475.453372 
L 556.875 475.329507 
L 569.25 475.256595 
L 581.625 475.131754 
L 594 475.051337 
L 606.375 474.915288 
L 618.75 474.767884 
L 631.125 474.725201 
L 643.5 474.619905 
L 655.875 474.492835 
L 668.25 474.45708 
L 680.625 474.534857 
L 693 474.696612 
L 705.375 474.657948 
L 717.75 474.612927 
L 730.125 474.583527 
L 742.5 474.587778 
L 754.875 474.693649 
L 767.25 474.849111 
L 779.625 474.952858 
" clip-path="url(#p1e4519cea5)" style="fill: none; stroke: #000000; stroke-width: 1.5; stroke-linecap: square"/>
   </g>
   <g id="line2d_8">
    <path d="M 0 459 
L 12.375 459 
L 24.75 463.513295 
L 37.125 464.553962 
L 49.5 465.773576 
L 61.875 466.824781 
L 74.25 466.919639 
L 86.625 466.653125 
L 99 466.839657 
L 111.375 467.091125 
L 123.75 467.519214 
L 136.125 467.838871 
L 148.5 468.023276 
L 160.875 468.326704 
L 173.25 469.114275 
L 185.625 470.084497 
L 198 470.663814 
L 210.375 470.955927 
L 222.75 471.198417 
L 235.125 471.467901 
L 247.5 471.986855 
L 259.875 472.439842 
L 272.25 472.919975 
L 284.625 473.38744 
L 297 473.61089 
L 309.375 474.01236 
L 321.75 474.217169 
L 334.125 474.353413 
L 346.5 474.475619 
L 358.875 474.606919 
L 371.25 474.588349 
L 383.625 474.493901 
L 396 474.305905 
L 408.375 474.229752 
L 420.75 474.307078 
L 433.125 474.030254 
L 445.5 473.843949 
L 457.875 473.75 
L 470.25 473.829046 
L 482.625 474.084 
L 495 474.340365 
L 507.375 474.568846 
L 519.75 474.77027 
L 532.125 475.087578 
L 544.5 475.070971 
L 556.875 474.981133 
L 569.25 474.931772 
L 581.625 474.840063 
L 594 474.783349 
L 606.375 474.681738 
L 618.75 474.570537 
L 631.125 474.541738 
L 643.5 474.463255 
L 655.875 474.367259 
L 668.25 474.342325 
L 680.625 474.405729 
L 693 474.534441 
L 705.375 474.508313 
L 717.75 474.47706 
L 730.125 474.457579 
L 742.5 474.463671 
L 754.875 474.547148 
L 767.25 474.668459 
L 779.625 474.750909 
" clip-path="url(#p1e4519cea5)" style="fill: none; stroke: #000000; stroke-width: 1.5; stroke-linecap: square"/>
   </g>
   <g id="line2d_9">
    <path d="M 0 459 
L 12.375 459 
L 24.75 463.50114 
L 37.125 464.540291 
L 49.5 465.753551 
L 61.875 466.797573 
L 74.25 466.895763 
L 86.625 466.636964 
L 99 466.822094 
L 111.375 467.070241 
L 123.75 467.490315 
L 136.125 467.804269 
L 148.5 467.986327 
L 160.875 468.283171 
L 173.25 469.047266 
L 185.625 469.986805 
L 198 470.549941 
L 210.375 470.836958 
L 222.75 471.075731 
L 235.125 471.339512 
L 247.5 471.839919 
L 259.875 472.277103 
L 272.25 472.739327 
L 284.625 473.188943 
L 297 473.40814 
L 309.375 473.79386 
L 321.75 473.994723 
L 334.125 474.130877 
L 346.5 474.253336 
L 358.875 474.383684 
L 371.25 474.3745 
L 383.625 474.294588 
L 396 474.127844 
L 408.375 474.063609 
L 420.75 474.139961 
L 433.125 473.891577 
L 445.5 473.72554 
L 457.875 473.643411 
L 470.25 473.718395 
L 482.625 473.952843 
L 495 474.188507 
L 507.375 474.398919 
L 519.75 474.584856 
L 532.125 474.874798 
L 544.5 474.865331 
L 556.875 474.790126 
L 569.25 474.750766 
L 581.625 474.67349 
L 594 474.627061 
L 606.375 474.540669 
L 618.75 474.445603 
L 631.125 474.423007 
L 643.5 474.35658 
L 655.875 474.274641 
L 668.25 474.254782 
L 680.625 474.312005 
L 693 474.42612 
L 705.375 474.405603 
L 717.75 474.380547 
L 730.125 474.36559 
L 742.5 474.372642 
L 754.875 474.44632 
L 767.25 474.552523 
L 779.625 474.625414 
" clip-path="url(#p1e4519cea5)" style="fill: none; stroke: #000000; stroke-width: 1.5; stroke-linecap: square"/>
   </g>
  </g>
 </g>
 <defs>
  <clipPath id="p1e4519cea5">
   <rect x="0" y="0" width="792" height="612"/>
  </clipPath>
 </defs>
</svg>
