<?xml version="1.0" encoding="utf-8" standalone="no"?>
<!DOCTYPE svg PUBLIC "-//W3C//DTD SVG 1.1//EN"
  "http://www.w3.org/Graphics/SVG/1.1/DTD/svg11.dtd">
<svg xmlns:xlink="http://www.w3.org/1999/xlink" width="792pt" height="612pt" viewBox="0 0 792 612" xmlns="http://www.w3.org/2000/svg" version="1.1">
 <metadata>
  <rdf:RDF xmlns:dc="http://purl.org/dc/elements/1.1/" xmlns:cc="http://creativecommons.org/ns#" xmlns:rdf="http://www.w3.org/1999/02/22-rdf-syntax-ns#">
   <cc:Work>
    <dc:type rdf:resource="http://purl.org/dc/dcmitype/StillImage"/>
    <dc:date>2023-01-02T15:39:03.809367</dc:date>
    <dc:format>image/svg+xml</dc:format>
    <dc:creator>
     <cc:Agent>
      <dc:title>Matplotlib v3.6.2, https://matplotlib.org/</dc:title>
     </cc:Agent>
    </dc:creator>
   </cc:Work>
  </rdf:RDF>
 </metadata>
 <defs>
  <style type="text/css">*{stroke-linejoin: round; stroke-linecap: butt}</style>
 </defs>
 <g id="figure_1">
  <g id="patch_1">
   <path d="M 0 612 
L 792 612 
L 792 0 
L 0 0 
z
" style="fill: #ffffff"/>
  </g>
  <g id="axes_1">
   <g id="line2d_1">
    <path d="M 0 459 
L 12.571429 447.241604 
L 25.142857 446.275637 
L 37.714286 449.399294 
L 50.285714 461.534784 
L 62.857143 461.180344 
L 75.428571 462.726992 
L 88 463.414391 
L 100.571429 457.260029 
L 113.142857 463.371429 
L 125.714286 459.042962 
L 138.285714 454.811278 
L 150.857143 454.45687 
L 163.428571 455.971192 
L 176 443.475001 
L 188.571429 436.462855 
L 201.142857 427.183712 
L 213.714286 436.784308 
L 226.285714 451.428556 
L 238.857143 416.300999 
L 251.428571 423.978623 
L 264 432.607243 
L 276.571429 450.687676 
L 289.142857 462.834398 
L 301.714286 463.371429 
L 314.285714 462.791436 
L 326.857143 462.16848 
L 339.428571 467.141383 
L 352 444.762519 
L 364.571429 435.659321 
L 377.142857 440.225153 
L 389.714286 434.566747 
L 402.285714 438.584836 
L 414.857143 432.382442 
L 427.428571 430.552409 
L 440 441.093753 
L 452.571429 434.116943 
L 465.142857 431.258633 
L 477.714286 440.772034 
L 490.285714 453.297029 
L 502.857143 460.374798 
L 515.428571 441.029408 
L 528 440.12865 
L 540.571429 441.737244 
L 553.142857 445.535139 
L 565.714286 457.517801 
L 578.285714 460.621832 
L 590.857143 458.355564 
L 603.428571 459.311478 
L 616 452.427196 
L 628.571429 449.270464 
L 641.142857 456.551164 
L 653.714286 465.390663 
L 666.285714 467.528045 
L 678.857143 469.826536 
L 691.428571 469.90172 
L 704 466.518428 
L 716.571429 469.976904 
L 729.142857 470.374307 
L 741.714286 472.339839 
L 754.285714 476.625342 
L 766.857143 472.790944 
L 779.428571 472.447245 
" clip-path="url(#pfe29d56194)" style="fill: none; stroke: #000000; stroke-width: 1.5; stroke-linecap: square"/>
   </g>
   <g id="line2d_2">
    <path d="M 0 459 
L 12.571429 459 
L 25.142857 451.160117 
L 37.714286 448.368697 
L 50.285714 448.918336 
L 62.857143 458.045819 
L 75.428571 459.95097 
L 88 461.34991 
L 100.571429 462.386199 
L 113.142857 460.401966 
L 125.714286 461.902955 
L 138.285714 460.481362 
L 150.857143 459.046079 
L 163.428571 456.773678 
L 176 456.353669 
L 188.571429 449.86019 
L 201.142857 443.088036 
L 213.714286 435.069776 
L 226.285714 435.857828 
L 238.857143 443.623685 
L 251.428571 429.861044 
L 264 426.858908 
L 276.571429 429.686241 
L 289.142857 440.191219 
L 301.714286 455.408792 
L 314.285714 460.616567 
L 326.857143 461.725967 
L 339.428571 461.958385 
L 352 464.593836 
L 364.571429 459.436869 
L 377.142857 447.983008 
L 389.714286 444.082504 
L 402.285714 439.252128 
L 414.857143 438.852827 
L 427.428571 435.542112 
L 440 432.972241 
L 452.571429 436.948446 
L 465.142857 435.511613 
L 477.714286 433.375943 
L 490.285714 437.073633 
L 502.857143 445.217749 
L 515.428571 454.217316 
L 528 447.637997 
L 540.571429 443.901118 
L 553.142857 442.820353 
L 565.714286 444.200022 
L 578.285714 450.908736 
L 590.857143 457.432003 
L 603.428571 457.903702 
L 616 458.912812 
L 628.571429 455.692202 
L 641.142857 452.498954 
L 653.714286 454.554032 
L 666.285714 461.475648 
L 678.857143 464.519537 
L 691.428571 467.191085 
L 704 468.568199 
L 716.571429 467.557445 
L 729.142857 468.792994 
L 741.714286 469.612313 
L 754.285714 471.003833 
L 766.857143 473.836616 
L 779.428571 473.3241 
" clip-path="url(#pfe29d56194)" style="fill: none; stroke: #000000; stroke-width: 1.5; stroke-linecap: square"/>
   </g>
   <g id="line2d_3">
    <path d="M 0 459 
L 12.571429 459 
L 25.142857 452.111101 
L 37.714286 449.466769 
L 50.285714 449.440419 
L 62.857143 455.54632 
L 75.428571 458.891858 
L 88 460.172986 
L 100.571429 461.185664 
L 113.142857 460.338167 
L 125.714286 461.255248 
L 138.285714 460.592643 
L 150.857143 459.703312 
L 163.428571 459.046495 
L 176 458.204193 
L 188.571429 453.864617 
L 201.142857 448.743994 
L 213.714286 442.38362 
L 226.285714 440.731023 
L 238.857143 443.868635 
L 251.428571 435.735913 
L 264 432.239544 
L 276.571429 432.309503 
L 289.142857 437.663761 
L 301.714286 447.271882 
L 314.285714 454.563448 
L 326.857143 459.064082 
L 339.428571 459.976929 
L 352 462.086304 
L 364.571429 459.788166 
L 377.142857 453.806594 
L 389.714286 449.82294 
L 402.285714 445.348712 
L 414.857143 443.379996 
L 427.428571 440.151399 
L 440 437.313866 
L 452.571429 438.449238 
L 465.142857 437.191592 
L 477.714286 435.451473 
L 490.285714 436.997864 
L 502.857143 441.748128 
L 515.428571 447.995126 
L 528 445.920556 
L 540.571429 444.19106 
L 553.142857 443.424424 
L 565.714286 444.043461 
L 578.285714 448.013485 
L 590.857143 452.682512 
L 603.428571 454.371336 
L 616 456.025198 
L 628.571429 454.994365 
L 641.142857 453.339201 
L 653.714286 454.297683 
L 666.285714 459.780273 
L 678.857143 462.069972 
L 691.428571 464.361235 
L 704 465.998711 
L 716.571429 466.157989 
L 729.142857 467.296015 
L 741.714286 468.21792 
L 754.285714 469.447136 
L 766.857143 471.574985 
L 779.428571 471.947539 
" clip-path="url(#pfe29d56194)" style="fill: none; stroke: #000000; stroke-width: 1.5; stroke-linecap: square"/>
   </g>
   <g id="line2d_4">
    <path d="M 0 459 
L 12.571429 459 
L 25.142857 452.611694 
L 37.714286 450.124595 
L 50.285714 449.893794 
L 62.857143 454.480601 
L 75.428571 457.202695 
L 88 459.380402 
L 100.571429 460.236165 
L 113.142857 459.870292 
L 125.714286 460.546954 
L 138.285714 460.265882 
L 150.857143 459.781814 
L 163.428571 459.373562 
L 176 459.132155 
L 188.571429 456.65891 
L 201.142857 453.228637 
L 213.714286 448.847752 
L 226.285714 446.838245 
L 238.857143 447.596625 
L 251.428571 442.44165 
L 264 439.419574 
L 276.571429 438.310547 
L 289.142857 440.315506 
L 301.714286 445.190221 
L 314.285714 449.528817 
L 326.857143 452.881696 
L 339.428571 455.390571 
L 352 459.29529 
L 364.571429 457.463054 
L 377.142857 453.971704 
L 389.714286 451.773124 
L 402.285714 449.02217 
L 414.857143 447.347844 
L 427.428571 444.95503 
L 440 442.651113 
L 452.571429 442.398125 
L 465.142857 441.059441 
L 477.714286 439.477396 
L 490.285714 439.665034 
L 502.857143 441.820467 
L 515.428571 445.211056 
L 528 444.526188 
L 540.571429 443.814477 
L 553.142857 443.475785 
L 565.714286 443.797833 
L 578.285714 445.980509 
L 590.857143 448.837524 
L 603.428571 450.365172 
L 616 451.907849 
L 628.571429 452.000246 
L 641.142857 451.564544 
L 653.714286 452.383031 
L 666.285714 456.519641 
L 678.857143 459.67241 
L 691.428571 461.296452 
L 704 462.669991 
L 716.571429 463.284254 
L 729.142857 464.353562 
L 741.714286 465.316604 
L 754.285714 466.437269 
L 766.857143 468.072187 
L 779.428571 468.836422 
" clip-path="url(#pfe29d56194)" style="fill: none; stroke: #000000; stroke-width: 1.5; stroke-linecap: square"/>
   </g>
   <g id="line2d_5">
    <path d="M 0 459 
L 12.571429 459 
L 25.142857 452.865288 
L 37.714286 450.475481 
L 50.285714 450.170516 
L 62.857143 454.049337 
L 75.428571 456.401883 
L 88 458.91669 
L 100.571429 459.709593 
L 113.142857 459.511937 
L 125.714286 460.064643 
L 138.285714 459.926641 
L 150.857143 459.628406 
L 163.428571 459.365238 
L 176 459.202853 
L 188.571429 457.766987 
L 201.142857 455.407509 
L 213.714286 452.363202 
L 226.285714 450.724704 
L 238.857143 450.79707 
L 251.428571 447.308497 
L 264 444.992921 
L 276.571429 443.784281 
L 289.142857 444.447413 
L 301.714286 446.917246 
L 314.285714 449.278167 
L 326.857143 451.23414 
L 339.428571 452.820195 
L 352 455.606196 
L 364.571429 454.626498 
L 377.142857 452.92433 
L 389.714286 451.792595 
L 402.285714 450.266075 
L 414.857143 449.236962 
L 427.428571 447.758794 
L 440 446.256464 
L 452.571429 445.808021 
L 465.142857 444.79583 
L 477.714286 443.62762 
L 490.285714 443.382206 
L 502.857143 444.231201 
L 515.428571 445.844461 
L 528 445.433918 
L 540.571429 444.982569 
L 553.142857 444.707074 
L 565.714286 444.777218 
L 578.285714 445.854082 
L 590.857143 447.374064 
L 603.428571 448.299612 
L 616 449.278971 
L 628.571429 449.543708 
L 641.142857 449.520753 
L 653.714286 450.110643 
L 666.285714 452.462882 
L 678.857143 455.153502 
L 691.428571 458.194247 
L 704 459.665805 
L 716.571429 460.238649 
L 729.142857 461.05223 
L 741.714286 461.830614 
L 754.285714 462.707682 
L 766.857143 463.868673 
L 779.428571 464.612641 
" clip-path="url(#pfe29d56194)" style="fill: none; stroke: #000000; stroke-width: 1.5; stroke-linecap: square"/>
   </g>
   <g id="line2d_6">
    <path d="M 0 459 
L 12.571429 459 
L 25.142857 452.992502 
L 37.714286 450.655444 
L 50.285714 450.320702 
L 62.857143 453.864939 
L 75.428571 456.027496 
L 88 458.321388 
L 100.571429 459.445529 
L 113.142857 459.310866 
L 125.714286 459.800526 
L 138.285714 459.715797 
L 150.857143 459.494914 
L 163.428571 459.297078 
L 176 459.175253 
L 188.571429 458.101186 
L 201.142857 456.264891 
L 213.714286 453.895315 
L 226.285714 452.554474 
L 238.857143 452.469372 
L 251.428571 449.81526 
L 264 447.977737 
L 276.571429 446.915985 
L 289.142857 447.169442 
L 301.714286 448.699049 
L 314.285714 450.199379 
L 326.857143 451.464749 
L 339.428571 452.512308 
L 352 454.377099 
L 364.571429 453.807037 
L 377.142857 452.748257 
L 389.714286 452.029305 
L 402.285714 451.04115 
L 414.857143 450.346341 
L 427.428571 449.357003 
L 440 448.334092 
L 452.571429 447.94525 
L 465.142857 447.210476 
L 477.714286 446.371611 
L 490.285714 446.080353 
L 502.857143 446.451892 
L 515.428571 447.30236 
L 528 446.984829 
L 540.571429 446.640582 
L 553.142857 446.396322 
L 565.714286 446.353749 
L 578.285714 446.901529 
L 590.857143 447.728323 
L 603.428571 448.243062 
L 616 448.80594 
L 628.571429 448.979321 
L 641.142857 448.993186 
L 653.714286 449.351167 
L 666.285714 450.70938 
L 678.857143 452.298372 
L 691.428571 454.128176 
L 704 455.875659 
L 716.571429 457.065028 
L 729.142857 458.673586 
L 741.714286 459.419008 
L 754.285714 460.010794 
L 766.857143 460.769173 
L 779.428571 461.316136 
" clip-path="url(#pfe29d56194)" style="fill: none; stroke: #000000; stroke-width: 1.5; stroke-linecap: square"/>
   </g>
   <g id="line2d_7">
    <path d="M 0 459 
L 12.571429 459 
L 25.142857 453.056162 
L 37.714286 450.746417 
L 50.285714 450.398602 
L 62.857143 453.78109 
L 75.428571 455.848594 
L 88 458.031456 
L 100.571429 459.315159 
L 113.142857 459.206865 
L 125.714286 459.665072 
L 138.285714 459.602195 
L 150.857143 459.415108 
L 163.428571 459.246636 
L 176 459.14373 
L 188.571429 458.198231 
L 201.142857 456.606774 
L 213.714286 454.556639 
L 226.285714 453.376148 
L 238.857143 453.252445 
L 251.428571 450.993331 
L 264 449.40608 
L 276.571429 448.455374 
L 289.142857 448.577269 
L 301.714286 449.735764 
L 314.285714 450.882229 
L 326.857143 451.851974 
L 339.428571 452.657708 
L 352 454.107244 
L 364.571429 453.677796 
L 377.142857 452.86906 
L 389.714286 452.314728 
L 402.285714 451.553333 
L 414.857143 451.008832 
L 427.428571 450.242108 
L 440 449.447124 
L 452.571429 449.116411 
L 465.142857 448.532833 
L 477.714286 447.872096 
L 490.285714 447.605228 
L 502.857143 447.815621 
L 515.428571 448.372738 
L 528 448.109216 
L 540.571429 447.826888 
L 553.142857 447.614442 
L 565.714286 447.542883 
L 578.285714 447.881605 
L 590.857143 448.417622 
L 603.428571 448.74693 
L 616 449.113349 
L 628.571429 449.220691 
L 641.142857 449.222286 
L 653.714286 449.454613 
L 666.285714 450.355606 
L 678.857143 451.418988 
L 691.428571 452.651748 
L 704 453.842459 
L 716.571429 454.679853 
L 729.142857 455.795685 
L 741.714286 456.904385 
L 754.285714 458.145056 
L 766.857143 459.238441 
L 779.428571 459.631444 
" clip-path="url(#pfe29d56194)" style="fill: none; stroke: #000000; stroke-width: 1.5; stroke-linecap: square"/>
   </g>
   <g id="line2d_8">
    <path d="M 0 459 
L 12.571429 459 
L 25.142857 453.087999 
L 37.714286 450.792134 
L 50.285714 450.438231 
L 62.857143 453.741306 
L 75.428571 455.76142 
L 88 457.888843 
L 100.571429 459.250627 
L 113.142857 459.154287 
L 125.714286 459.596849 
L 138.285714 459.543725 
L 150.857143 459.372255 
L 163.428571 459.217509 
L 176 459.123554 
L 188.571429 458.228313 
L 201.142857 456.753488 
L 213.714286 454.85615 
L 226.285714 453.756147 
L 238.857143 453.621328 
L 251.428571 451.550696 
L 264 450.087586 
L 276.571429 449.198374 
L 289.142857 449.271127 
L 301.714286 450.269991 
L 314.285714 451.261733 
L 326.857143 452.100449 
L 339.428571 452.7973 
L 352 454.058323 
L 364.571429 453.686696 
L 377.142857 452.986015 
L 389.714286 452.503734 
L 402.285714 451.843362 
L 414.857143 451.367762 
L 427.428571 450.703046 
L 440 450.014078 
L 452.571429 449.716322 
L 465.142857 449.206842 
L 477.714286 448.633032 
L 490.285714 448.387128 
L 502.857143 448.537531 
L 515.428571 448.975585 
L 528 448.74127 
L 540.571429 448.491951 
L 553.142857 448.299927 
L 565.714286 448.222712 
L 578.285714 448.477808 
L 590.857143 448.893159 
L 603.428571 449.144513 
L 616 449.426671 
L 628.571429 449.503961 
L 641.142857 449.498035 
L 653.714286 449.674434 
L 666.285714 450.377077 
L 678.857143 451.208977 
L 691.428571 452.175297 
L 704 453.111509 
L 716.571429 453.776601 
L 729.142857 454.657662 
L 741.714286 455.535126 
L 754.285714 456.515311 
L 766.857143 457.748714 
L 779.428571 458.687562 
" clip-path="url(#pfe29d56194)" style="fill: none; stroke: #000000; stroke-width: 1.5; stroke-linecap: square"/>
   </g>
   <g id="line2d_9">
    <path d="M 0 459 
L 12.571429 459 
L 25.142857 453.103918 
L 37.714286 450.815047 
L 50.285714 450.458213 
L 62.857143 453.721955 
L 75.428571 455.718427 
L 88 457.818176 
L 100.571429 459.218553 
L 113.142857 459.127891 
L 125.714286 459.56266 
L 138.285714 459.514126 
L 150.857143 459.350141 
L 163.428571 459.202006 
L 176 459.112383 
L 188.571429 458.238708 
L 201.142857 456.820581 
L 213.714286 454.99764 
L 226.285714 453.937642 
L 238.857143 453.799041 
L 251.428571 451.819984 
L 264 450.418201 
L 276.571429 449.560728 
L 289.142857 449.612698 
L 301.714286 450.538122 
L 314.285714 451.458173 
L 326.857143 452.235866 
L 339.428571 452.881709 
L 352 454.053962 
L 364.571429 453.708568 
L 377.142857 453.057876 
L 389.714286 452.609141 
L 402.285714 451.996074 
L 414.857143 451.553162 
L 427.428571 450.936724 
L 440 450.298205 
L 452.571429 450.017414 
L 465.142857 449.543963 
L 477.714286 449.012297 
L 490.285714 448.778432 
L 502.857143 448.90371 
L 515.428571 449.289303 
L 528 449.069917 
L 540.571429 448.837337 
L 553.142857 448.6564 
L 565.714286 448.578443 
L 578.285714 448.797325 
L 590.857143 449.159338 
L 603.428571 449.376253 
L 616 449.620841 
L 628.571429 449.684729 
L 641.142857 449.675458 
L 653.714286 449.826728 
L 666.285714 450.440093 
L 678.857143 451.167156 
L 691.428571 452.012175 
L 704 452.831497 
L 716.571429 453.415519 
L 729.142857 454.187123 
L 741.714286 454.955927 
L 754.285714 455.8137 
L 766.857143 456.889939 
L 779.428571 457.713344 
" clip-path="url(#pfe29d56194)" style="fill: none; stroke: #000000; stroke-width: 1.5; stroke-linecap: square"/>
   </g>
  </g>
 </g>
 <defs>
  <clipPath id="pfe29d56194">
   <rect x="0" y="0" width="792" height="612"/>
  </clipPath>
 </defs>
</svg>
