<?xml version="1.0" encoding="utf-8" standalone="no"?>
<!DOCTYPE svg PUBLIC "-//W3C//DTD SVG 1.1//EN"
  "http://www.w3.org/Graphics/SVG/1.1/DTD/svg11.dtd">
<svg xmlns:xlink="http://www.w3.org/1999/xlink" width="792pt" height="612pt" viewBox="0 0 792 612" xmlns="http://www.w3.org/2000/svg" version="1.1">
 <metadata>
  <rdf:RDF xmlns:dc="http://purl.org/dc/elements/1.1/" xmlns:cc="http://creativecommons.org/ns#" xmlns:rdf="http://www.w3.org/1999/02/22-rdf-syntax-ns#">
   <cc:Work>
    <dc:type rdf:resource="http://purl.org/dc/dcmitype/StillImage"/>
    <dc:date>2022-12-19T20:27:01.417078</dc:date>
    <dc:format>image/svg+xml</dc:format>
    <dc:creator>
     <cc:Agent>
      <dc:title>Matplotlib v3.6.2, https://matplotlib.org/</dc:title>
     </cc:Agent>
    </dc:creator>
   </cc:Work>
  </rdf:RDF>
 </metadata>
 <defs>
  <style type="text/css">*{stroke-linejoin: round; stroke-linecap: butt}</style>
 </defs>
 <g id="figure_1">
  <g id="patch_1">
   <path d="M 0 612 
L 792 612 
L 792 0 
L 0 0 
z
" style="fill: #ffffff"/>
  </g>
  <g id="axes_1">
   <g id="line2d_1">
    <path d="M 0 306 
L 41.684211 306.503869 
L 83.368421 306.554256 
L 125.052632 305.042651 
L 166.736842 303.833397 
L 208.421053 301.264004 
L 250.105263 304.639561 
L 291.789474 304.589175 
L 333.473684 305.697678 
L 375.157895 305.949613 
L 416.842105 307.108508 
L 458.526316 300.306931 
L 500.210526 305.093037 
L 541.894737 303.17841 
L 583.578947 310.433742 
L 625.263158 306.151161 
L 666.947368 305.496131 
L 708.631579 304.639561 
L 750.315789 309.375789 
" clip-path="url(#pda6e64f3b8)" style="fill: none; stroke: #000000; stroke-width: 1.5; stroke-linecap: square"/>
   </g>
   <g id="line2d_2">
    <path d="M 0 306 
L 41.684211 306 
L 83.368421 306.335913 
L 125.052632 306.46068 
L 166.736842 305.704397 
L 208.421053 304.738708 
L 250.105263 302.973682 
L 291.789474 303.813164 
L 333.473684 304.202688 
L 375.157895 304.949584 
L 416.842105 305.44851 
L 458.526316 306.279598 
L 500.210526 303.28372 
L 541.894737 304.190833 
L 583.578947 303.688369 
L 625.263158 307.072546 
L 666.947368 306.614918 
L 708.631579 306.055129 
L 750.315789 305.344773 
" clip-path="url(#pda6e64f3b8)" style="fill: none; stroke: #000000; stroke-width: 1.5; stroke-linecap: square"/>
   </g>
   <g id="line2d_3">
    <path d="M 0 306 
L 41.684211 306 
L 83.368421 306.29516 
L 125.052632 306.412552 
L 166.736842 305.877571 
L 208.421053 305.150267 
L 250.105263 303.849306 
L 291.789474 304.103206 
L 333.473684 304.255031 
L 375.157895 304.697105 
L 416.842105 305.075787 
L 458.526316 305.68461 
L 500.210526 304.084352 
L 541.894737 304.383087 
L 583.578947 304.02746 
L 625.263158 305.914312 
L 666.947368 305.983955 
L 708.631579 305.840496 
L 750.315789 305.486607 
" clip-path="url(#pda6e64f3b8)" style="fill: none; stroke: #000000; stroke-width: 1.5; stroke-linecap: square"/>
   </g>
   <g id="line2d_4">
    <path d="M 0 306 
L 41.684211 306 
L 83.368421 306.273709 
L 125.052632 306.383814 
L 166.736842 305.957045 
L 208.421053 305.374034 
L 250.105263 304.362394 
L 291.789474 304.42515 
L 333.473684 304.459946 
L 375.157895 304.709289 
L 416.842105 304.949003 
L 458.526316 305.352579 
L 500.210526 304.435009 
L 541.894737 304.552 
L 583.578947 304.312261 
L 625.263158 305.364453 
L 666.947368 305.497965 
L 708.631579 305.497657 
L 750.315789 305.354817 
" clip-path="url(#pda6e64f3b8)" style="fill: none; stroke: #000000; stroke-width: 1.5; stroke-linecap: square"/>
   </g>
   <g id="line2d_5">
    <path d="M 0 306 
L 41.684211 306 
L 83.368421 306.262842 
L 125.052632 306.368507 
L 166.736842 305.992804 
L 208.421053 305.483035 
L 250.105263 304.619213 
L 291.789474 304.622927 
L 333.473684 304.617324 
L 375.157895 304.78291 
L 416.842105 304.949988 
L 458.526316 305.241547 
L 500.210526 304.607926 
L 541.894737 304.667504 
L 583.578947 304.491622 
L 625.263158 305.169666 
L 666.947368 305.278279 
L 708.631579 305.301738 
L 750.315789 305.232151 
" clip-path="url(#pda6e64f3b8)" style="fill: none; stroke: #000000; stroke-width: 1.5; stroke-linecap: square"/>
   </g>
   <g id="line2d_6">
    <path d="M 0 306 
L 41.684211 306 
L 83.368421 306.257391 
L 125.052632 306.360663 
L 166.736842 306.009448 
L 208.421053 305.53573 
L 250.105263 304.744441 
L 291.789474 304.727443 
L 333.473684 304.707428 
L 375.157895 304.837458 
L 416.842105 304.971571 
L 458.526316 305.210573 
L 500.210526 304.697683 
L 541.894737 304.736609 
L 583.578947 304.591331 
L 625.263158 305.1097 
L 666.947368 305.198008 
L 708.631579 305.222259 
L 750.315789 305.176636 
" clip-path="url(#pda6e64f3b8)" style="fill: none; stroke: #000000; stroke-width: 1.5; stroke-linecap: square"/>
   </g>
   <g id="line2d_7">
    <path d="M 0 306 
L 41.684211 306 
L 83.368421 306.254663 
L 125.052632 306.356698 
L 166.736842 306.017436 
L 208.421053 305.561496 
L 250.105263 304.805848 
L 291.789474 304.780521 
L 333.473684 304.754751 
L 375.157895 304.868824 
L 416.842105 304.987737 
L 458.526316 305.202084 
L 500.210526 304.743768 
L 541.894737 304.774264 
L 583.578947 304.643535 
L 625.263158 305.090807 
L 666.947368 305.168381 
L 708.631579 305.19118 
L 750.315789 305.15457 
" clip-path="url(#pda6e64f3b8)" style="fill: none; stroke: #000000; stroke-width: 1.5; stroke-linecap: square"/>
   </g>
   <g id="line2d_8">
    <path d="M 0 306 
L 41.684211 306 
L 83.368421 306.253299 
L 125.052632 306.354707 
L 166.736842 306.021344 
L 208.421053 305.574218 
L 250.105263 304.8362 
L 291.789474 304.807187 
L 333.473684 304.778892 
L 375.157895 304.885456 
L 416.842105 304.997132 
L 458.526316 305.199636 
L 500.210526 304.767135 
L 541.894737 304.793866 
L 583.578947 304.670174 
L 625.263158 305.084239 
L 666.947368 305.156474 
L 708.631579 305.178231 
L 750.315789 305.145471 
" clip-path="url(#pda6e64f3b8)" style="fill: none; stroke: #000000; stroke-width: 1.5; stroke-linecap: square"/>
   </g>
   <g id="line2d_9">
    <path d="M 0 306 
L 41.684211 306 
L 83.368421 306.252617 
L 125.052632 306.353708 
L 166.736842 306.023276 
L 208.421053 305.580537 
L 250.105263 304.851282 
L 291.789474 304.820542 
L 333.473684 304.79107 
L 375.157895 304.893999 
L 416.842105 305.002151 
L 458.526316 305.198864 
L 500.210526 304.7789 
L 541.894737 304.803857 
L 583.578947 304.68362 
L 625.263158 305.081679 
L 666.947368 305.15127 
L 708.631579 305.172447 
L 750.315789 305.141459 
" clip-path="url(#pda6e64f3b8)" style="fill: none; stroke: #000000; stroke-width: 1.5; stroke-linecap: square"/>
   </g>
  </g>
 </g>
 <defs>
  <clipPath id="pda6e64f3b8">
   <rect x="0" y="0" width="792" height="612"/>
  </clipPath>
 </defs>
</svg>
