<?xml version="1.0" encoding="utf-8" standalone="no"?>
<!DOCTYPE svg PUBLIC "-//W3C//DTD SVG 1.1//EN"
  "http://www.w3.org/Graphics/SVG/1.1/DTD/svg11.dtd">
<svg xmlns:xlink="http://www.w3.org/1999/xlink" width="792pt" height="612pt" viewBox="0 0 792 612" xmlns="http://www.w3.org/2000/svg" version="1.1">
 <metadata>
  <rdf:RDF xmlns:dc="http://purl.org/dc/elements/1.1/" xmlns:cc="http://creativecommons.org/ns#" xmlns:rdf="http://www.w3.org/1999/02/22-rdf-syntax-ns#">
   <cc:Work>
    <dc:type rdf:resource="http://purl.org/dc/dcmitype/StillImage"/>
    <dc:date>2022-12-26T20:25:44.572489</dc:date>
    <dc:format>image/svg+xml</dc:format>
    <dc:creator>
     <cc:Agent>
      <dc:title>Matplotlib v3.6.2, https://matplotlib.org/</dc:title>
     </cc:Agent>
    </dc:creator>
   </cc:Work>
  </rdf:RDF>
 </metadata>
 <defs>
  <style type="text/css">*{stroke-linejoin: round; stroke-linecap: butt}</style>
 </defs>
 <g id="figure_1">
  <g id="patch_1">
   <path d="M 0 612 
L 792 612 
L 792 0 
L 0 0 
z
" style="fill: #ffffff"/>
  </g>
  <g id="axes_1">
   <g id="line2d_1">
    <path d="M 0 459 
L 39.6 459.536842 
L 79.2 452.338745 
L 118.8 451.021378 
L 158.4 446.92384 
L 198 453.363441 
L 237.6 453.583027 
L 277.2 452.851086 
L 316.8 450.875011 
L 356.4 455.779 
L 396 449.704142 
L 435.6 449.557792 
L 475.2 449.557792 
L 514.8 455.998607 
L 554.4 458.633971 
L 594 457.975121 
L 633.6 458.341149 
L 673.2 450.948194 
L 712.8 454.314995 
L 752.4 450.801829 
" clip-path="url(#p7c6a71d87b)" style="fill: none; stroke: #000000; stroke-width: 1.5; stroke-linecap: square"/>
   </g>
   <g id="line2d_2">
    <path d="M 0 459 
L 39.6 459 
L 79.2 459.357895 
L 118.8 455.653511 
L 158.4 453.182895 
L 198 449.951998 
L 237.6 451.684693 
L 277.2 452.641306 
L 316.8 452.746607 
L 356.4 451.79485 
L 396 453.777355 
L 435.6 451.735439 
L 475.2 450.643699 
L 514.8 450.105898 
L 554.4 453.057174 
L 594 455.85536 
L 633.6 456.925277 
L 673.2 457.647851 
L 712.8 454.288299 
L 752.4 454.310689 
" clip-path="url(#p7c6a71d87b)" style="fill: none; stroke: #000000; stroke-width: 1.5; stroke-linecap: square"/>
   </g>
   <g id="line2d_3">
    <path d="M 0 459 
L 39.6 459 
L 79.2 459.314475 
L 118.8 456.497695 
L 158.4 454.35889 
L 198 451.713105 
L 237.6 452.265511 
L 277.2 452.688807 
L 316.8 452.739506 
L 356.4 452.168133 
L 396 453.259779 
L 435.6 452.194733 
L 475.2 451.410076 
L 514.8 450.861465 
L 554.4 452.377793 
L 594 454.220212 
L 633.6 455.324269 
L 673.2 456.207114 
L 712.8 454.655577 
L 752.4 454.558092 
" clip-path="url(#p7c6a71d87b)" style="fill: none; stroke: #000000; stroke-width: 1.5; stroke-linecap: square"/>
   </g>
   <g id="line2d_4">
    <path d="M 0 459 
L 39.6 459 
L 79.2 459.29162 
L 118.8 456.917035 
L 158.4 455.040828 
L 198 452.81202 
L 237.6 452.947735 
L 277.2 453.091574 
L 316.8 453.040557 
L 356.4 452.604275 
L 396 453.217813 
L 435.6 452.5611 
L 475.2 452.014952 
L 514.8 451.578056 
L 554.4 452.349499 
L 594 453.429553 
L 633.6 454.200931 
L 673.2 454.896158 
L 712.8 454.238922 
L 752.4 454.251493 
" clip-path="url(#p7c6a71d87b)" style="fill: none; stroke: #000000; stroke-width: 1.5; stroke-linecap: square"/>
   </g>
   <g id="line2d_5">
    <path d="M 0 459 
L 39.6 459 
L 79.2 459.280042 
L 118.8 457.120007 
L 158.4 455.391702 
L 198 453.392296 
L 237.6 453.386389 
L 277.2 453.422277 
L 316.8 453.327463 
L 356.4 452.951549 
L 396 453.356437 
L 435.6 452.863054 
L 475.2 452.438655 
L 514.8 452.084815 
L 554.4 452.547033 
L 594 453.241501 
L 633.6 453.765287 
L 673.2 454.257992 
L 712.8 453.910143 
L 752.4 453.951768 
" clip-path="url(#p7c6a71d87b)" style="fill: none; stroke: #000000; stroke-width: 1.5; stroke-linecap: square"/>
   </g>
   <g id="line2d_6">
    <path d="M 0 459 
L 39.6 459 
L 79.2 459.274234 
L 118.8 457.219078 
L 158.4 455.567405 
L 198 453.685344 
L 237.6 453.62572 
L 277.2 453.6188 
L 316.8 453.50767 
L 356.4 453.161949 
L 396 453.47752 
L 435.6 453.055445 
L 475.2 452.689618 
L 514.8 452.381232 
L 554.4 452.718458 
L 594 453.243236 
L 633.6 453.644435 
L 673.2 454.026459 
L 712.8 453.785426 
L 752.4 453.825451 
" clip-path="url(#p7c6a71d87b)" style="fill: none; stroke: #000000; stroke-width: 1.5; stroke-linecap: square"/>
   </g>
   <g id="line2d_7">
    <path d="M 0 459 
L 39.6 459 
L 79.2 459.271328 
L 118.8 457.267923 
L 158.4 455.655032 
L 198 453.831926 
L 237.6 453.749556 
L 277.2 453.724193 
L 316.8 453.606601 
L 356.4 453.276114 
L 396 453.551481 
L 435.6 453.162584 
L 475.2 452.825084 
L 514.8 452.53978 
L 554.4 452.823089 
L 594 453.271892 
L 633.6 453.615949 
L 673.2 453.944613 
L 712.8 453.745735 
L 752.4 453.78189 
" clip-path="url(#p7c6a71d87b)" style="fill: none; stroke: #000000; stroke-width: 1.5; stroke-linecap: square"/>
   </g>
   <g id="line2d_8">
    <path d="M 0 459 
L 39.6 459 
L 79.2 459.269875 
L 118.8 457.292162 
L 158.4 455.698753 
L 198 453.905146 
L 237.6 453.812399 
L 277.2 453.778557 
L 316.8 453.658179 
L 356.4 453.335349 
L 396 453.591782 
L 435.6 453.21887 
L 475.2 452.895244 
L 514.8 452.621476 
L 554.4 452.880027 
L 594 453.293341 
L 633.6 453.61029 
L 673.2 453.913313 
L 712.8 453.73297 
L 752.4 453.766679 
" clip-path="url(#p7c6a71d87b)" style="fill: none; stroke: #000000; stroke-width: 1.5; stroke-linecap: square"/>
   </g>
   <g id="line2d_9">
    <path d="M 0 459 
L 39.6 459 
L 79.2 459.269148 
L 118.8 457.304235 
L 158.4 455.720586 
L 198 453.941728 
L 237.6 453.844036 
L 277.2 453.80614 
L 316.8 453.684481 
L 356.4 453.365489 
L 396 453.612752 
L 435.6 453.247683 
L 475.2 452.930916 
L 514.8 452.662902 
L 554.4 452.909625 
L 594 453.305843 
L 633.6 453.609649 
L 673.2 453.90017 
L 712.8 453.7285 
L 752.4 453.760895 
" clip-path="url(#p7c6a71d87b)" style="fill: none; stroke: #000000; stroke-width: 1.5; stroke-linecap: square"/>
   </g>
  </g>
 </g>
 <defs>
  <clipPath id="p7c6a71d87b">
   <rect x="0" y="0" width="792" height="612"/>
  </clipPath>
 </defs>
</svg>
