<?xml version="1.0" encoding="utf-8" standalone="no"?>
<!DOCTYPE svg PUBLIC "-//W3C//DTD SVG 1.1//EN"
  "http://www.w3.org/Graphics/SVG/1.1/DTD/svg11.dtd">
<svg xmlns:xlink="http://www.w3.org/1999/xlink" width="792pt" height="612pt" viewBox="0 0 792 612" xmlns="http://www.w3.org/2000/svg" version="1.1">
 <metadata>
  <rdf:RDF xmlns:dc="http://purl.org/dc/elements/1.1/" xmlns:cc="http://creativecommons.org/ns#" xmlns:rdf="http://www.w3.org/1999/02/22-rdf-syntax-ns#">
   <cc:Work>
    <dc:type rdf:resource="http://purl.org/dc/dcmitype/StillImage"/>
    <dc:date>2023-01-09T02:27:40.984847</dc:date>
    <dc:format>image/svg+xml</dc:format>
    <dc:creator>
     <cc:Agent>
      <dc:title>Matplotlib v3.6.2, https://matplotlib.org/</dc:title>
     </cc:Agent>
    </dc:creator>
   </cc:Work>
  </rdf:RDF>
 </metadata>
 <defs>
  <style type="text/css">*{stroke-linejoin: round; stroke-linecap: butt}</style>
 </defs>
 <g id="figure_1">
  <g id="patch_1">
   <path d="M 0 612 
L 792 612 
L 792 0 
L 0 0 
z
" style="fill: #ffffff"/>
  </g>
  <g id="axes_1">
   <g id="line2d_1">
    <path d="M 0 306 
L 44 305.90433 
L 88 306 
L 132 310.209208 
L 176 307.722039 
L 220 305.569486 
L 264 306.239175 
L 308 301.169074 
L 352 308.200369 
L 396 303.703967 
L 440 304.134461 
L 484 309.061333 
L 528 304.182294 
L 572 307.626372 
L 616 309.156993 
L 660 306.143505 
L 704 309.443969 
L 748 300.260483 
" clip-path="url(#pea841d04ca)" style="fill: none; stroke: #000000; stroke-width: 1.5; stroke-linecap: square"/>
   </g>
   <g id="line2d_2">
    <path d="M 0 306 
L 44 306 
L 88 305.93622 
L 132 305.972666 
L 176 308.232257 
L 220 307.96892 
L 264 306.750172 
L 308 306.492662 
L 352 303.820265 
L 396 306.014632 
L 440 304.854969 
L 484 304.491055 
L 528 306.773986 
L 572 305.47119 
L 616 306.552821 
L 660 307.860662 
L 704 307.011846 
L 748 308.230381 
" clip-path="url(#pea841d04ca)" style="fill: none; stroke: #000000; stroke-width: 1.5; stroke-linecap: square"/>
   </g>
   <g id="line2d_3">
    <path d="M 0 306 
L 44 306 
L 88 305.943958 
L 132 305.96935 
L 176 307.625206 
L 220 307.659658 
L 264 306.960012 
L 308 306.728413 
L 352 304.991447 
L 396 305.974785 
L 440 305.288211 
L 484 304.942646 
L 528 306.168157 
L 572 305.580007 
L 616 306.184097 
L 660 307.059704 
L 704 306.790304 
L 748 307.571531 
" clip-path="url(#pea841d04ca)" style="fill: none; stroke: #000000; stroke-width: 1.5; stroke-linecap: square"/>
   </g>
   <g id="line2d_4">
    <path d="M 0 306 
L 44 306 
L 88 305.948031 
L 132 305.968427 
L 176 307.31795 
L 220 307.428885 
L 264 306.971253 
L 308 306.805498 
L 352 305.609714 
L 396 306.13162 
L 440 305.662421 
L 484 305.376866 
L 528 306.046841 
L 572 305.715336 
L 616 306.048872 
L 660 306.58311 
L 704 306.508504 
L 748 307.001476 
" clip-path="url(#pea841d04ca)" style="fill: none; stroke: #000000; stroke-width: 1.5; stroke-linecap: square"/>
   </g>
   <g id="line2d_5">
    <path d="M 0 306 
L 44 306 
L 88 305.950094 
L 132 305.96819 
L 176 307.170019 
L 220 307.300333 
L 264 306.945983 
L 308 306.816984 
L 352 305.879412 
L 396 306.235153 
L 440 305.872663 
L 484 305.637874 
L 528 306.077418 
L 572 305.844669 
L 616 306.055108 
L 660 306.409057 
L 704 306.379671 
L 748 306.709656 
" clip-path="url(#pea841d04ca)" style="fill: none; stroke: #000000; stroke-width: 1.5; stroke-linecap: square"/>
   </g>
   <g id="line2d_6">
    <path d="M 0 306 
L 44 306 
L 88 305.951129 
L 132 305.96813 
L 176 307.098326 
L 220 307.234105 
L 264 306.925781 
L 308 306.814499 
L 352 305.997259 
L 396 306.286557 
L 440 305.97512 
L 484 305.769251 
L 528 306.113551 
L 572 305.9234 
L 616 306.082173 
L 660 306.354985 
L 704 306.337053 
L 748 306.589795 
" clip-path="url(#pea841d04ca)" style="fill: none; stroke: #000000; stroke-width: 1.5; stroke-linecap: square"/>
   </g>
   <g id="line2d_7">
    <path d="M 0 306 
L 44 306 
L 88 305.951647 
L 132 305.968115 
L 176 307.063147 
L 220 307.200696 
L 264 306.913898 
L 308 306.811134 
L 352 306.051214 
L 396 306.311219 
L 440 306.024351 
L 484 305.833337 
L 528 306.135535 
L 572 305.964991 
L 616 306.101085 
L 660 306.337141 
L 704 306.322974 
L 748 306.540084 
" clip-path="url(#pea841d04ca)" style="fill: none; stroke: #000000; stroke-width: 1.5; stroke-linecap: square"/>
   </g>
   <g id="line2d_8">
    <path d="M 0 306 
L 44 306 
L 88 305.951906 
L 132 305.968111 
L 176 307.045735 
L 220 307.183943 
L 264 306.907531 
L 308 306.808922 
L 352 306.07688 
L 396 306.323177 
L 440 306.048303 
L 484 305.864741 
L 528 306.147285 
L 572 305.986114 
L 616 306.111702 
L 660 306.33048 
L 704 306.317821 
L 748 306.518082 
" clip-path="url(#pea841d04ca)" style="fill: none; stroke: #000000; stroke-width: 1.5; stroke-linecap: square"/>
   </g>
   <g id="line2d_9">
    <path d="M 0 306 
L 44 306 
L 88 305.952036 
L 132 305.96811 
L 176 307.037076 
L 220 307.175557 
L 264 306.904244 
L 308 306.807684 
L 352 306.089377 
L 396 306.329049 
L 440 306.060093 
L 484 305.880255 
L 528 306.15332 
L 572 305.996726 
L 616 306.117272 
L 660 306.327699 
L 704 306.315714 
L 748 306.507817 
" clip-path="url(#pea841d04ca)" style="fill: none; stroke: #000000; stroke-width: 1.5; stroke-linecap: square"/>
   </g>
  </g>
 </g>
 <defs>
  <clipPath id="pea841d04ca">
   <rect x="0" y="0" width="792" height="612"/>
  </clipPath>
 </defs>
</svg>
