<?xml version="1.0" encoding="utf-8" standalone="no"?>
<!DOCTYPE svg PUBLIC "-//W3C//DTD SVG 1.1//EN"
  "http://www.w3.org/Graphics/SVG/1.1/DTD/svg11.dtd">
<svg xmlns:xlink="http://www.w3.org/1999/xlink" width="792pt" height="612pt" viewBox="0 0 792 612" xmlns="http://www.w3.org/2000/svg" version="1.1">
 <metadata>
  <rdf:RDF xmlns:dc="http://purl.org/dc/elements/1.1/" xmlns:cc="http://creativecommons.org/ns#" xmlns:rdf="http://www.w3.org/1999/02/22-rdf-syntax-ns#">
   <cc:Work>
    <dc:type rdf:resource="http://purl.org/dc/dcmitype/StillImage"/>
    <dc:date>2022-12-19T20:27:00.411960</dc:date>
    <dc:format>image/svg+xml</dc:format>
    <dc:creator>
     <cc:Agent>
      <dc:title>Matplotlib v3.6.2, https://matplotlib.org/</dc:title>
     </cc:Agent>
    </dc:creator>
   </cc:Work>
  </rdf:RDF>
 </metadata>
 <defs>
  <style type="text/css">*{stroke-linejoin: round; stroke-linecap: butt}</style>
 </defs>
 <g id="figure_1">
  <g id="patch_1">
   <path d="M 0 612 
L 792 612 
L 792 0 
L 0 0 
z
" style="fill: #ffffff"/>
  </g>
  <g id="axes_1">
   <g id="line2d_1">
    <path d="M 0 459 
L 41.684211 459.251935 
L 83.368421 459.529063 
L 125.052632 459.050387 
L 166.736842 455.901249 
L 208.421053 448.798321 
L 250.105263 446.758872 
L 291.789474 444.6444 
L 333.473684 444.191375 
L 375.157895 444.115874 
L 416.842105 445.777083 
L 458.526316 437.249137 
L 500.210526 435.891939 
L 541.894737 431.67224 
L 583.578947 438.305 
L 625.263158 438.531286 
L 666.947368 437.777041 
L 708.631579 435.741163 
L 750.315789 440.79467 
" clip-path="url(#pee87f865bf)" style="fill: none; stroke: #000000; stroke-width: 1.5; stroke-linecap: square"/>
   </g>
   <g id="line2d_2">
    <path d="M 0 459 
L 41.684211 459 
L 83.368421 459.167957 
L 125.052632 459.374303 
L 166.736842 459.201548 
L 208.421053 457.693193 
L 250.105263 453.174621 
L 291.789474 449.941046 
L 333.473684 447.281947 
L 375.157895 445.707489 
L 416.842105 444.880991 
L 458.526316 445.300003 
L 500.210526 441.230292 
L 541.894737 438.521228 
L 583.578947 435.061851 
L 625.263158 436.666588 
L 666.947368 437.58687 
L 708.631579 437.669385 
L 750.315789 436.688765 
" clip-path="url(#pee87f865bf)" style="fill: none; stroke: #000000; stroke-width: 1.5; stroke-linecap: square"/>
   </g>
   <g id="line2d_3">
    <path d="M 0 459 
L 41.684211 459 
L 83.368421 459.14758 
L 125.052632 459.320423 
L 166.736842 459.214967 
L 208.421053 458.312938 
L 250.105263 455.127591 
L 291.789474 452.438243 
L 333.473684 450.002677 
L 375.157895 448.221493 
L 416.842105 446.979982 
L 458.526316 446.619682 
L 500.210526 443.830114 
L 541.894737 441.477939 
L 583.578947 438.581231 
L 625.263158 438.499874 
L 666.947368 438.50911 
L 708.631579 438.270337 
L 750.315789 437.501876 
" clip-path="url(#pee87f865bf)" style="fill: none; stroke: #000000; stroke-width: 1.5; stroke-linecap: square"/>
   </g>
   <g id="line2d_4">
    <path d="M 0 459 
L 41.684211 459 
L 83.368421 459.136854 
L 125.052632 459.290782 
L 166.736842 459.214287 
L 208.421053 458.615668 
L 250.105263 456.199041 
L 291.789474 454.061123 
L 333.473684 452.062862 
L 375.157895 450.476641 
L 416.842105 449.24697 
L 458.526316 448.598407 
L 500.210526 446.533384 
L 541.894737 444.640114 
L 583.578947 442.37459 
L 625.263158 441.674911 
L 666.947368 441.141282 
L 708.631579 440.576183 
L 750.315789 439.771032 
" clip-path="url(#pee87f865bf)" style="fill: none; stroke: #000000; stroke-width: 1.5; stroke-linecap: square"/>
   </g>
   <g id="line2d_5">
    <path d="M 0 459 
L 41.684211 459 
L 83.368421 459.131421 
L 125.052632 459.275604 
L 166.736842 459.211785 
L 208.421053 458.753851 
L 250.105263 456.715351 
L 291.789474 454.897753 
L 333.473684 453.19522 
L 375.157895 451.814728 
L 416.842105 450.711848 
L 458.526316 450.045151 
L 500.210526 448.401098 
L 541.894737 446.863583 
L 583.578947 445.067292 
L 625.263158 444.295328 
L 666.947368 443.65721 
L 708.631579 443.023744 
L 750.315789 442.25799 
" clip-path="url(#pee87f865bf)" style="fill: none; stroke: #000000; stroke-width: 1.5; stroke-linecap: square"/>
   </g>
   <g id="line2d_6">
    <path d="M 0 459 
L 41.684211 459 
L 83.368421 459.128696 
L 125.052632 459.267973 
L 166.736842 459.209992 
L 208.421053 458.818249 
L 250.105263 456.962023 
L 291.789474 455.307944 
L 333.473684 453.763862 
L 375.157895 452.506449 
L 416.842105 451.494296 
L 458.526316 450.854713 
L 500.210526 449.430746 
L 541.894737 448.096614 
L 583.578947 446.56351 
L 625.263158 445.830398 
L 666.947368 445.211171 
L 708.631579 444.606121 
L 750.315789 443.911562 
" clip-path="url(#pee87f865bf)" style="fill: none; stroke: #000000; stroke-width: 1.5; stroke-linecap: square"/>
   </g>
   <g id="line2d_7">
    <path d="M 0 459 
L 41.684211 459 
L 83.368421 459.127332 
L 125.052632 459.264153 
L 166.736842 459.208963 
L 208.421053 458.849126 
L 250.105263 457.081704 
L 291.789474 455.509094 
L 333.473684 454.045349 
L 375.157895 452.852809 
L 416.842105 451.891193 
L 458.526316 451.273086 
L 500.210526 449.959217 
L 541.894737 448.729913 
L 583.578947 447.330922 
L 625.263158 446.633321 
L 666.947368 446.040257 
L 708.631579 445.465125 
L 750.315789 444.819305 
" clip-path="url(#pee87f865bf)" style="fill: none; stroke: #000000; stroke-width: 1.5; stroke-linecap: square"/>
   </g>
   <g id="line2d_8">
    <path d="M 0 459 
L 41.684211 459 
L 83.368421 459.12665 
L 125.052632 459.262243 
L 166.736842 459.208415 
L 208.421053 458.864217 
L 250.105263 457.14054 
L 291.789474 455.60845 
L 333.473684 454.184949 
L 375.157895 453.025429 
L 416.842105 452.0901 
L 458.526316 451.484458 
L 500.210526 450.225266 
L 541.894737 449.048616 
L 583.578947 447.716546 
L 625.263158 447.040021 
L 666.947368 446.463618 
L 708.631579 445.906844 
L 750.315789 445.288132 
" clip-path="url(#pee87f865bf)" style="fill: none; stroke: #000000; stroke-width: 1.5; stroke-linecap: square"/>
   </g>
   <g id="line2d_9">
    <path d="M 0 459 
L 41.684211 459 
L 83.368421 459.126308 
L 125.052632 459.261288 
L 166.736842 459.208133 
L 208.421053 458.871674 
L 250.105263 457.169697 
L 291.789474 455.657796 
L 333.473684 454.254409 
L 375.157895 453.111512 
L 416.842105 452.189544 
L 458.526316 451.59053 
L 500.210526 450.358532 
L 541.894737 449.208195 
L 583.578947 447.909451 
L 625.263158 447.244189 
L 666.947368 446.676911 
L 708.631579 446.130068 
L 750.315789 445.525493 
" clip-path="url(#pee87f865bf)" style="fill: none; stroke: #000000; stroke-width: 1.5; stroke-linecap: square"/>
   </g>
  </g>
 </g>
 <defs>
  <clipPath id="pee87f865bf">
   <rect x="0" y="0" width="792" height="612"/>
  </clipPath>
 </defs>
</svg>
