<?xml version="1.0" encoding="utf-8" standalone="no"?>
<!DOCTYPE svg PUBLIC "-//W3C//DTD SVG 1.1//EN"
  "http://www.w3.org/Graphics/SVG/1.1/DTD/svg11.dtd">
<svg xmlns:xlink="http://www.w3.org/1999/xlink" width="792pt" height="612pt" viewBox="0 0 792 612" xmlns="http://www.w3.org/2000/svg" version="1.1">
 <metadata>
  <rdf:RDF xmlns:dc="http://purl.org/dc/elements/1.1/" xmlns:cc="http://creativecommons.org/ns#" xmlns:rdf="http://www.w3.org/1999/02/22-rdf-syntax-ns#">
   <cc:Work>
    <dc:type rdf:resource="http://purl.org/dc/dcmitype/StillImage"/>
    <dc:date>2023-01-02T15:37:54.701102</dc:date>
    <dc:format>image/svg+xml</dc:format>
    <dc:creator>
     <cc:Agent>
      <dc:title>Matplotlib v3.6.2, https://matplotlib.org/</dc:title>
     </cc:Agent>
    </dc:creator>
   </cc:Work>
  </rdf:RDF>
 </metadata>
 <defs>
  <style type="text/css">*{stroke-linejoin: round; stroke-linecap: butt}</style>
 </defs>
 <g id="figure_1">
  <g id="patch_1">
   <path d="M 0 612 
L 792 612 
L 792 0 
L 0 0 
z
" style="fill: #ffffff"/>
  </g>
  <g id="axes_1">
   <g id="line2d_1">
    <path d="M 0 306 
L 41.684211 306.144635 
L 83.368421 305.517883 
L 125.052632 304.698291 
L 166.736842 309.230068 
L 208.421053 301.998653 
L 250.105263 305.903576 
L 291.789474 306 
L 333.473684 310.242362 
L 375.157895 307.735605 
L 416.842105 305.566095 
L 458.526316 306.241059 
L 500.210526 301.131024 
L 541.894737 308.217702 
L 583.578947 303.68588 
L 625.263158 304.119765 
L 666.947368 309.085448 
L 708.631579 304.167975 
L 750.315789 307.639184 
" clip-path="url(#p593f0958bd)" style="fill: none; stroke: #000000; stroke-width: 1.5; stroke-linecap: square"/>
   </g>
   <g id="line2d_2">
    <path d="M 0 306 
L 41.684211 306 
L 83.368421 306.096424 
L 125.052632 305.765829 
L 166.736842 305.196473 
L 208.421053 307.278382 
L 250.105263 304.596512 
L 291.789474 305.255187 
L 333.473684 305.629053 
L 375.157895 307.944136 
L 416.842105 307.84299 
L 458.526316 306.704647 
L 500.210526 306.475878 
L 541.894737 303.787403 
L 583.578947 306.014747 
L 625.263158 304.845948 
L 666.947368 304.479168 
L 708.631579 306.780083 
L 750.315789 305.467024 
" clip-path="url(#p593f0958bd)" style="fill: none; stroke: #000000; stroke-width: 1.5; stroke-linecap: square"/>
   </g>
   <g id="line2d_3">
    <path d="M 0 306 
L 41.684211 306 
L 83.368421 306.084725 
L 125.052632 305.827899 
L 166.736842 305.386757 
L 208.421053 306.754203 
L 250.105263 305.16228 
L 291.789474 305.400452 
L 333.473684 305.587762 
L 375.157895 307.014178 
L 416.842105 307.232297 
L 458.526316 306.733253 
L 500.210526 306.586805 
L 541.894737 304.970874 
L 583.578947 305.929344 
L 625.263158 305.268587 
L 666.947368 304.930782 
L 708.631579 306.151227 
L 750.315789 305.568069 
" clip-path="url(#p593f0958bd)" style="fill: none; stroke: #000000; stroke-width: 1.5; stroke-linecap: square"/>
   </g>
   <g id="line2d_4">
    <path d="M 0 306 
L 41.684211 306 
L 83.368421 306.078568 
L 125.052632 305.858519 
L 166.736842 305.489324 
L 208.421053 306.516297 
L 250.105263 305.404359 
L 291.789474 305.51739 
L 333.473684 305.61977 
L 375.157895 306.551064 
L 416.842105 306.780002 
L 458.526316 306.553142 
L 500.210526 306.496396 
L 541.894737 305.542405 
L 583.578947 306.009331 
L 625.263158 305.609972 
L 666.947368 305.357065 
L 708.631579 305.983187 
L 750.315789 305.681023 
" clip-path="url(#p593f0958bd)" style="fill: none; stroke: #000000; stroke-width: 1.5; stroke-linecap: square"/>
   </g>
   <g id="line2d_5">
    <path d="M 0 306 
L 41.684211 306 
L 83.368421 306.075449 
L 125.052632 305.873278 
L 166.736842 305.540325 
L 208.421053 306.411374 
L 250.105263 305.50792 
L 291.789474 305.580132 
L 333.473684 305.649826 
L 375.157895 306.353771 
L 416.842105 306.551661 
L 458.526316 306.418537 
L 500.210526 306.395751 
L 541.894737 305.749123 
L 583.578947 306.040692 
L 625.263158 305.771994 
L 666.947368 305.589154 
L 708.631579 305.965654 
L 750.315789 305.776737 
" clip-path="url(#p593f0958bd)" style="fill: none; stroke: #000000; stroke-width: 1.5; stroke-linecap: square"/>
   </g>
   <g id="line2d_6">
    <path d="M 0 306 
L 41.684211 306 
L 83.368421 306.073884 
L 125.052632 305.880466 
L 166.736842 305.565447 
L 208.421053 306.363234 
L 250.105263 305.554768 
L 291.789474 305.611301 
L 333.473684 305.667566 
L 375.157895 306.268323 
L 416.842105 306.445263 
L 458.526316 306.346934 
L 500.210526 306.335861 
L 541.894737 305.823361 
L 583.578947 306.046593 
L 625.263158 305.837143 
L 666.947368 305.691519 
L 708.631579 305.967605 
L 750.315789 305.826701 
" clip-path="url(#p593f0958bd)" style="fill: none; stroke: #000000; stroke-width: 1.5; stroke-linecap: square"/>
   </g>
   <g id="line2d_7">
    <path d="M 0 306 
L 41.684211 306 
L 83.368421 306.073101 
L 125.052632 305.884005 
L 166.736842 305.577875 
L 208.421053 306.34032 
L 250.105263 305.576926 
L 291.789474 305.626676 
L 333.473684 305.676955 
L 375.157895 306.229303 
L 416.842105 306.395036 
L 458.526316 306.311254 
L 500.210526 306.304683 
L 541.894737 305.852924 
L 583.578947 306.046639 
L 625.263158 305.864283 
L 666.947368 305.736653 
L 708.631579 305.969606 
L 750.315789 305.850037 
" clip-path="url(#p593f0958bd)" style="fill: none; stroke: #000000; stroke-width: 1.5; stroke-linecap: square"/>
   </g>
   <g id="line2d_8">
    <path d="M 0 306 
L 41.684211 306 
L 83.368421 306.072709 
L 125.052632 305.88576 
L 166.736842 305.584051 
L 208.421053 306.329159 
L 250.105263 305.587687 
L 291.789474 305.634293 
L 333.473684 305.681758 
L 375.157895 306.210751 
L 416.842105 306.370777 
L 458.526316 306.293599 
L 500.210526 306.288955 
L 541.894737 305.865866 
L 583.578947 306.045938 
L 625.263158 305.876391 
L 666.947368 305.757458 
L 708.631579 305.970647 
L 750.315789 305.861013 
" clip-path="url(#p593f0958bd)" style="fill: none; stroke: #000000; stroke-width: 1.5; stroke-linecap: square"/>
   </g>
   <g id="line2d_9">
    <path d="M 0 306 
L 41.684211 306 
L 83.368421 306.072513 
L 125.052632 305.886634 
L 166.736842 305.587129 
L 208.421053 306.323653 
L 250.105263 305.592988 
L 291.789474 305.638081 
L 333.473684 305.684183 
L 375.157895 306.201718 
L 416.842105 306.358873 
L 458.526316 306.284835 
L 500.210526 306.281078 
L 541.894737 305.871888 
L 583.578947 306.04541 
L 625.263158 305.882073 
L 666.947368 305.767397 
L 708.631579 305.971153 
L 750.315789 305.866298 
" clip-path="url(#p593f0958bd)" style="fill: none; stroke: #000000; stroke-width: 1.5; stroke-linecap: square"/>
   </g>
  </g>
 </g>
 <defs>
  <clipPath id="p593f0958bd">
   <rect x="0" y="0" width="792" height="612"/>
  </clipPath>
 </defs>
</svg>
