<?xml version="1.0" encoding="utf-8" standalone="no"?>
<!DOCTYPE svg PUBLIC "-//W3C//DTD SVG 1.1//EN"
  "http://www.w3.org/Graphics/SVG/1.1/DTD/svg11.dtd">
<svg xmlns:xlink="http://www.w3.org/1999/xlink" width="792pt" height="612pt" viewBox="0 0 792 612" xmlns="http://www.w3.org/2000/svg" version="1.1">
 <metadata>
  <rdf:RDF xmlns:dc="http://purl.org/dc/elements/1.1/" xmlns:cc="http://creativecommons.org/ns#" xmlns:rdf="http://www.w3.org/1999/02/22-rdf-syntax-ns#">
   <cc:Work>
    <dc:type rdf:resource="http://purl.org/dc/dcmitype/StillImage"/>
    <dc:date>2023-01-02T15:39:59.536714</dc:date>
    <dc:format>image/svg+xml</dc:format>
    <dc:creator>
     <cc:Agent>
      <dc:title>Matplotlib v3.6.2, https://matplotlib.org/</dc:title>
     </cc:Agent>
    </dc:creator>
   </cc:Work>
  </rdf:RDF>
 </metadata>
 <defs>
  <style type="text/css">*{stroke-linejoin: round; stroke-linecap: butt}</style>
 </defs>
 <g id="figure_1">
  <g id="patch_1">
   <path d="M 0 612 
L 792 612 
L 792 0 
L 0 0 
z
" style="fill: #ffffff"/>
  </g>
  <g id="axes_1">
   <g id="line2d_1">
    <path d="M 0 459 
L 3.155378 451.337811 
L 6.310757 447.469374 
L 9.466135 449.94502 
L 12.621514 451.028289 
L 15.776892 450.254516 
L 18.932271 450.099767 
L 22.087649 449.403422 
L 25.243028 446.618519 
L 28.398406 442.829461 
L 31.553785 446.618519 
L 34.709163 445.845088 
L 37.864542 447.778796 
L 41.01992 450.099767 
L 44.175299 453.891611 
L 47.330677 454.975145 
L 50.486056 456.677929 
L 53.641434 456.290925 
L 56.796813 447.082612 
L 59.952191 445.767748 
L 63.10757 449.248685 
L 66.262948 444.453103 
L 69.418327 441.128937 
L 72.573705 446.154451 
L 75.729084 441.206224 
L 78.884462 438.11561 
L 82.039841 445.535736 
L 85.195219 442.906768 
L 88.350598 451.337811 
L 91.505976 448.320309 
L 94.661355 446.541172 
L 97.816733 446.618519 
L 100.972112 437.188783 
L 104.12749 433.946342 
L 107.282869 435.953293 
L 110.438247 441.283511 
L 113.593625 449.635532 
L 116.749004 431.554701 
L 119.904382 436.262135 
L 123.059761 438.347344 
L 126.215139 434.795324 
L 129.370518 434.486584 
L 132.525896 433.714831 
L 135.681275 445.226396 
L 138.836653 460.651265 
L 141.992032 459.877234 
L 145.14741 462.663744 
L 148.302789 462.56054 
L 151.458167 460.960877 
L 154.613546 456.523127 
L 157.768924 457.761554 
L 160.924303 452.885522 
L 164.079681 452.808133 
L 167.23506 449.09395 
L 170.390438 447.39202 
L 173.545817 450.486643 
L 176.701195 445.999768 
L 179.856574 441.747255 
L 183.011952 438.73359 
L 186.167331 436.87988 
L 189.322709 436.49378 
L 192.478088 438.11561 
L 195.633466 431.400452 
L 198.788845 433.946342 
L 201.944223 434.486584 
L 205.099602 429.627041 
L 208.25498 427.007105 
L 211.410359 424.004472 
L 214.565737 424.158382 
L 217.721116 418.392447 
L 220.876494 417.087229 
L 224.031873 414.862269 
L 227.187251 419.314177 
L 230.342629 414.478863 
L 233.498008 407.665236 
L 236.653386 405.755276 
L 239.808765 413.099127 
L 242.964143 407.818111 
L 246.119522 414.632218 
L 249.2749 410.724892 
L 252.430279 405.908005 
L 255.585657 418.00849 
L 258.741036 427.007105 
L 261.896414 429.781216 
L 265.051793 414.785583 
L 268.207171 418.776462 
L 271.36255 417.010473 
L 274.517928 418.00849 
L 277.673307 422.619641 
L 280.828685 420.313082 
L 283.984064 418.776462 
L 287.139442 409.500493 
L 290.294821 407.665236 
L 293.450199 409.041526 
L 296.605578 444.298454 
L 299.760956 453.582039 
L 302.916335 445.999768 
L 306.071713 431.477576 
L 309.227092 422.542725 
L 312.38247 422.158178 
L 315.537849 420.389937 
L 318.693227 417.471047 
L 321.848606 427.469299 
L 325.003984 429.858307 
L 328.159363 424.774101 
L 331.314741 430.629299 
L 334.47012 431.400452 
L 337.625498 428.47094 
L 340.780876 431.246208 
L 343.936255 439.660697 
L 347.091633 442.674849 
L 350.247012 443.216007 
L 353.40239 459.180607 
L 356.557769 456.136125 
L 359.713147 459.593423 
L 362.868526 457.993762 
L 366.023904 448.165588 
L 369.179283 444.685082 
L 372.334661 439.042608 
L 375.49004 430.089587 
L 378.645418 431.091971 
L 381.800797 435.953293 
L 384.956175 432.480327 
L 388.111554 431.091971 
L 391.266932 419.775164 
L 394.422311 428.239766 
L 397.577689 427.238194 
L 400.733068 431.091971 
L 403.888446 429.31871 
L 407.043825 430.860628 
L 410.199203 432.943222 
L 413.354582 435.18128 
L 416.50996 436.725436 
L 419.665339 434.255043 
L 422.820717 440.819803 
L 425.976096 434.023515 
L 429.131474 441.979141 
L 432.286853 443.061386 
L 435.442231 441.283511 
L 438.59761 436.648216 
L 441.752988 428.779196 
L 444.908367 430.320882 
L 448.063745 422.235083 
L 451.219124 421.389239 
L 454.374502 418.699654 
L 457.52988 425.466933 
L 460.685259 423.311975 
L 463.840637 425.235972 
L 466.996016 427.469299 
L 470.151394 430.629299 
L 473.306773 430.012492 
L 476.462151 425.389944 
L 479.61753 428.702129 
L 482.772908 425.005028 
L 485.928287 418.853271 
L 489.083665 414.785583 
L 492.239044 415.936133 
L 495.394422 413.329026 
L 498.549801 413.712242 
L 501.705179 421.158598 
L 504.860558 420.620512 
L 508.015936 419.928844 
L 511.171315 417.547817 
L 514.326693 429.549956 
L 517.482072 432.480327 
L 520.63745 436.957104 
L 523.792829 440.356132 
L 526.948207 438.11561 
L 530.103586 444.685082 
L 533.258964 444.453103 
L 536.414343 435.721675 
L 539.569721 437.188783 
L 542.7251 435.644472 
L 545.880478 434.255043 
L 549.035857 449.94502 
L 552.191235 447.469374 
L 555.346614 457.219739 
L 558.501992 457.142337 
L 561.657371 453.659432 
L 564.812749 454.355976 
L 567.968127 458.22597 
L 571.123506 459.103204 
L 574.278884 460.806071 
L 577.434263 462.689545 
L 580.589641 466.533895 
L 583.74502 464.985835 
L 586.900398 466.043676 
L 590.055777 467.462732 
L 593.211155 465.837268 
L 596.366534 465.501855 
L 599.521912 466.89511 
L 602.677291 470.017032 
L 605.832669 471.358685 
L 608.988048 471.668297 
L 612.143426 471.436088 
L 615.298805 469.733221 
L 618.454183 467.849747 
L 621.609562 470.146037 
L 627.920319 466.379089 
L 631.075697 467.617538 
L 634.231076 469.888027 
L 637.386454 467.617538 
L 640.541833 463.463575 
L 643.697211 459.903035 
L 646.85259 458.303373 
L 650.007968 457.219739 
L 653.163347 447.70144 
L 656.318725 454.742955 
L 659.474104 456.368326 
L 662.629482 460.26425 
L 665.784861 460.341653 
L 668.940239 459.103204 
L 672.095618 457.529347 
L 675.250996 456.677929 
L 678.406375 460.367454 
L 681.561753 446.773214 
L 684.717131 443.370632 
L 687.87251 447.933511 
L 694.183267 449.558162 
L 697.338645 448.088228 
L 700.494024 444.76241 
L 703.649402 437.497706 
L 709.960159 433.251848 
L 713.115538 432.788918 
L 716.270916 432.711768 
L 719.426295 434.409402 
L 722.581673 425.697911 
L 725.737052 424.3123 
L 728.89243 420.005687 
L 732.047809 426.776032 
L 735.203187 427.007105 
L 738.358566 426.236926 
L 741.513944 424.158382 
L 744.669323 429.31871 
L 747.824701 422.927325 
L 750.98008 422.773479 
L 754.135458 422.773479 
L 757.290837 429.549956 
L 760.446215 432.326041 
L 763.601594 431.631828 
L 766.756972 432.017487 
L 769.912351 424.23534 
L 773.067729 427.777465 
L 776.223108 424.081426 
L 779.378486 421.081723 
L 782.533865 426.005909 
L 785.689243 423.081179 
L 788.844622 425.697911 
L 788.844622 425.697911 
" clip-path="url(#p1266d54749)" style="fill: none; stroke: #000000; stroke-width: 1.5; stroke-linecap: square"/>
   </g>
   <g id="line2d_2">
    <path d="M 0 459 
L 3.155378 459 
L 6.310757 453.891611 
L 9.466135 450.221355 
L 12.621514 450.073975 
L 15.776892 450.566515 
L 22.087649 450.252688 
L 25.243028 449.826382 
L 28.398406 448.198049 
L 31.553785 445.496613 
L 34.709163 446.055878 
L 37.864542 445.942445 
L 41.01992 446.854202 
L 44.175299 448.476549 
L 47.330677 451.191243 
L 53.641434 454.90564 
L 56.796813 455.624681 
L 59.952191 451.353895 
L 63.10757 448.560283 
L 66.262948 448.907361 
L 69.418327 446.66887 
L 72.573705 443.873338 
L 75.729084 444.996523 
L 78.884462 443.070784 
L 82.039841 440.557051 
L 85.195219 443.042892 
L 88.350598 442.969221 
L 91.505976 447.156626 
L 94.661355 447.746033 
L 97.816733 447.154199 
L 100.972112 446.887265 
L 104.12749 442.028247 
L 107.282869 437.977484 
L 110.438247 436.946505 
L 113.593625 439.111382 
L 116.749004 444.368197 
L 119.904382 437.924476 
L 123.059761 437.073094 
L 126.215139 437.693973 
L 129.370518 436.239728 
L 135.681275 434.535012 
L 138.836653 439.885833 
L 141.992032 451.942917 
L 145.14741 456.846087 
L 148.302789 460.494941 
L 151.458167 461.548229 
L 154.613546 461.274233 
L 157.768924 459.738718 
L 160.924303 459.178685 
L 164.079681 456.225666 
L 167.23506 454.494984 
L 170.390438 451.769637 
L 173.545817 449.536316 
L 176.701195 449.973845 
L 179.856574 447.949589 
L 186.167331 441.738162 
L 189.322709 439.27711 
L 192.478088 437.853294 
L 195.633466 437.962944 
L 198.788845 434.649123 
L 201.944223 434.265333 
L 205.099602 434.353408 
L 211.410359 429.462594 
L 214.565737 426.707167 
L 217.721116 425.408361 
L 220.876494 421.859623 
L 227.187251 417.114922 
L 230.342629 418.184651 
L 233.498008 416.301416 
L 236.653386 411.941276 
L 239.808765 408.810281 
L 242.964143 410.932029 
L 246.119522 409.353793 
L 249.2749 411.986629 
L 252.430279 411.347562 
L 255.585657 408.599754 
L 258.741036 413.306185 
L 261.896414 420.185901 
L 265.051793 425.027065 
L 268.207171 419.904737 
L 271.36255 419.36208 
L 274.517928 418.190674 
L 277.673307 418.113884 
L 280.828685 420.398677 
L 283.984064 420.3604 
L 287.139442 419.552193 
L 290.294821 414.481269 
L 293.450199 411.05662 
L 296.605578 410.029779 
L 299.760956 427.172944 
L 302.916335 440.431893 
L 306.071713 443.261181 
L 309.227092 437.387764 
L 312.38247 429.965026 
L 315.537849 426.084121 
L 321.848606 420.380895 
L 325.003984 423.890101 
L 328.159363 426.826474 
L 331.314741 425.758603 
L 334.47012 428.191417 
L 337.625498 429.812959 
L 340.780876 429.154278 
L 343.936255 430.221408 
L 347.091633 434.982092 
L 350.247012 438.856892 
L 353.40239 441.06226 
L 356.557769 450.366786 
L 359.713147 453.301305 
L 362.868526 457.098325 
L 366.023904 457.604018 
L 369.179283 452.917388 
L 372.334661 448.810275 
L 375.49004 443.917607 
L 378.645418 436.972852 
L 381.800797 433.975698 
L 384.956175 434.92488 
L 391.266932 432.316663 
L 394.422311 425.984167 
L 397.577689 427.079602 
L 400.733068 427.135788 
L 403.888446 429.115287 
L 407.043825 429.213521 
L 410.199203 430.027004 
L 413.354582 431.485742 
L 416.50996 433.341112 
L 419.665339 435.066246 
L 422.820717 434.67243 
L 425.976096 437.771816 
L 429.131474 435.903032 
L 432.286853 438.965049 
L 435.442231 441.036801 
L 438.59761 441.176521 
L 441.752988 438.914757 
L 444.908367 433.828315 
L 448.063745 432.066491 
L 451.219124 427.110715 
L 457.52988 421.414867 
L 460.685259 423.405807 
L 463.840637 423.323741 
L 466.996016 424.257372 
L 470.151394 425.860361 
L 473.306773 428.2446 
L 476.462151 429.143699 
L 479.61753 427.274143 
L 482.772908 428.007701 
L 485.928287 426.505109 
L 492.239044 418.703269 
L 495.394422 417.296741 
L 498.549801 415.278221 
L 501.705179 414.463228 
L 504.860558 417.800424 
L 508.015936 419.194274 
L 511.171315 419.551591 
L 514.326693 418.54695 
L 517.482072 424.072373 
L 523.792829 432.675765 
L 526.948207 436.566758 
L 530.103586 437.374437 
L 533.258964 441.075898 
L 536.414343 442.812483 
L 539.569721 439.301651 
L 542.7251 438.260102 
L 549.035857 435.601178 
L 552.191235 442.787927 
L 555.346614 445.146637 
L 558.501992 451.206415 
L 561.657371 454.199062 
L 564.812749 453.964452 
L 567.968127 454.193902 
L 571.123506 456.254198 
L 574.278884 457.831065 
L 577.434263 459.717673 
L 580.589641 461.218381 
L 583.74502 463.892074 
L 586.900398 464.451906 
L 590.055777 465.265093 
L 593.211155 466.383541 
L 599.521912 465.825632 
L 602.677291 466.37231 
L 605.832669 468.209039 
L 608.988048 469.793322 
L 612.143426 470.743912 
L 615.298805 471.100573 
L 618.454183 470.421349 
L 621.609562 469.139494 
L 624.76494 469.651872 
L 627.920319 468.985801 
L 631.075697 467.675312 
L 634.231076 467.639089 
L 637.386454 468.760067 
L 640.541833 468.181315 
L 643.697211 465.810152 
L 646.85259 462.841012 
L 650.007968 460.782091 
L 653.163347 459.574907 
L 656.318725 454.146555 
L 659.474104 454.38572 
L 662.629482 455.307803 
L 665.784861 459.002327 
L 668.940239 459.665868 
L 672.095618 459.382968 
L 675.250996 458.837605 
L 678.406375 457.756698 
L 681.561753 459.486577 
L 684.717131 453.599642 
L 687.87251 448.458346 
L 691.027888 448.166801 
L 694.183267 448.408895 
L 697.338645 448.964399 
L 700.494024 448.507798 
L 703.649402 446.611542 
L 706.804781 442.002784 
L 709.960159 438.684512 
L 713.115538 435.94754 
L 716.270916 434.338275 
L 719.426295 433.493622 
L 722.581673 433.921829 
L 725.737052 429.763682 
L 728.89243 426.996835 
L 732.047809 423.464944 
L 735.203187 425.103139 
L 738.358566 426.04275 
L 741.513944 426.127002 
L 744.669323 425.125781 
L 747.824701 427.21161 
L 750.98008 425.063291 
L 754.135458 423.915147 
L 757.290837 423.349688 
L 760.446215 426.453766 
L 763.601594 429.399115 
L 766.756972 430.525886 
L 769.912351 431.287037 
L 773.067729 427.749366 
L 776.223108 427.772933 
L 779.378486 425.929208 
L 782.533865 423.501151 
L 785.689243 424.746331 
L 788.844622 423.895533 
L 788.844622 423.895533 
" clip-path="url(#p1266d54749)" style="fill: none; stroke: #000000; stroke-width: 1.5; stroke-linecap: square"/>
   </g>
   <g id="line2d_3">
    <path d="M 0 459 
L 3.155378 459 
L 6.310757 454.51132 
L 9.466135 451.320281 
L 12.621514 450.78319 
L 15.776892 450.870393 
L 25.243028 450.145621 
L 28.398406 449.064659 
L 31.553785 447.179008 
L 34.709163 447.011131 
L 37.864542 446.664167 
L 41.01992 446.994267 
L 44.175299 447.910907 
L 47.330677 449.672045 
L 53.641434 452.823673 
L 56.796813 453.844842 
L 59.952191 451.863423 
L 63.10757 450.072885 
L 66.262948 449.829432 
L 69.418327 448.247751 
L 72.573705 446.151705 
L 75.729084 446.148778 
L 78.884462 444.69456 
L 82.039841 442.761483 
L 85.195219 443.572686 
L 88.350598 443.374262 
L 91.505976 445.710057 
L 94.661355 446.472457 
L 100.972112 446.513906 
L 107.282869 440.857331 
L 110.438247 439.407713 
L 113.593625 439.951909 
L 116.749004 442.787248 
L 119.904382 439.479873 
L 123.059761 438.531616 
L 126.215139 438.468682 
L 129.370518 437.385123 
L 135.681275 435.692978 
L 138.836653 438.486195 
L 141.992032 445.95382 
L 145.14741 450.559523 
L 148.302789 456.277236 
L 151.458167 459.40992 
L 154.613546 459.874794 
L 157.768924 459.385404 
L 160.924303 459.159968 
L 164.079681 457.561689 
L 167.23506 456.172972 
L 173.545817 452.161495 
L 176.701195 451.684875 
L 179.856574 450.032322 
L 183.011952 447.613187 
L 186.167331 445.017006 
L 189.322709 442.622967 
L 192.478088 440.795554 
L 195.633466 439.983499 
L 198.788845 437.423667 
L 201.944223 436.363933 
L 205.099602 435.779138 
L 208.25498 433.945418 
L 211.410359 431.876639 
L 214.565737 429.535953 
L 217.721116 427.927158 
L 220.876494 425.09615 
L 227.187251 420.370578 
L 230.342629 420.030583 
L 233.498008 418.372032 
L 236.653386 415.195341 
L 239.808765 412.390531 
L 242.964143 412.5713 
L 246.119522 411.143386 
L 249.2749 412.145502 
L 252.430279 411.702755 
L 255.585657 409.971153 
L 258.741036 412.309027 
L 261.896414 416.605362 
L 265.051793 420.464798 
L 268.207171 418.789321 
L 271.36255 418.785995 
L 274.517928 418.265741 
L 277.673307 418.194007 
L 280.828685 419.493286 
L 283.984064 419.74008 
L 287.139442 419.470602 
L 290.294821 416.550419 
L 293.450199 413.938127 
L 296.605578 412.504229 
L 302.916335 431.147211 
L 306.071713 435.538962 
L 309.227092 434.364513 
L 312.38247 430.89275 
L 315.537849 428.323288 
L 318.693227 426.003997 
L 321.848606 423.500608 
L 325.003984 424.674509 
L 328.159363 426.205578 
L 331.314741 425.788717 
L 334.47012 427.217626 
L 337.625498 428.456746 
L 340.780876 428.482765 
L 343.936255 429.319118 
L 350.247012 435.39161 
L 353.40239 437.670215 
L 356.557769 444.086199 
L 359.713147 447.642496 
L 362.868526 451.533488 
L 366.023904 453.466712 
L 369.179283 451.945831 
L 372.334661 449.85005 
L 375.49004 446.696362 
L 378.645418 441.827327 
L 381.800797 438.687814 
L 384.956175 437.892854 
L 391.266932 434.782695 
L 394.422311 430.367066 
L 400.733068 428.982811 
L 403.888446 429.586541 
L 407.043825 429.473475 
L 410.199203 429.850753 
L 413.354582 430.724369 
L 419.665339 433.372585 
L 422.820717 433.619066 
L 425.976096 435.729015 
L 429.131474 435.233939 
L 432.286853 437.221135 
L 435.442231 438.939222 
L 438.59761 439.635862 
L 441.752988 438.767008 
L 444.908367 435.849607 
L 448.063745 434.231905 
L 451.219124 430.708103 
L 457.52988 425.235887 
L 460.685259 425.297367 
L 463.840637 424.704673 
L 466.996016 424.848872 
L 470.151394 425.605541 
L 473.306773 427.072029 
L 476.462151 427.920619 
L 479.61753 427.169289 
L 482.772908 427.602955 
L 485.928287 426.821121 
L 489.083665 424.45943 
L 492.239044 421.597355 
L 495.394422 419.923217 
L 498.549801 417.970524 
L 501.705179 416.712746 
L 504.860558 418.013851 
L 508.015936 418.779262 
L 511.171315 419.109562 
L 514.326693 418.645423 
L 520.63745 424.958613 
L 526.948207 431.963981 
L 530.103586 433.779467 
L 533.258964 436.989605 
L 536.414343 439.196944 
L 539.569721 438.198238 
L 542.7251 437.928371 
L 545.880478 437.282028 
L 549.035857 436.41936 
L 552.191235 440.419635 
L 555.346614 442.513973 
L 558.501992 446.861145 
L 561.657371 449.914471 
L 564.812749 451.052836 
L 567.968127 452.048766 
L 571.123506 453.887468 
L 574.278884 455.501189 
L 577.434263 458.140527 
L 580.589641 459.890302 
L 583.74502 461.850301 
L 590.055777 463.753714 
L 593.211155 464.858138 
L 596.366534 465.161722 
L 599.521912 465.278296 
L 602.677291 465.764385 
L 608.988048 468.310616 
L 612.143426 469.30932 
L 615.298805 469.948565 
L 618.454183 469.899598 
L 621.609562 469.309672 
L 624.76494 469.567322 
L 627.920319 469.208904 
L 631.075697 468.384309 
L 634.231076 468.160971 
L 637.386454 468.672445 
L 640.541833 468.365278 
L 643.697211 466.925009 
L 646.85259 464.861504 
L 650.007968 463.068962 
L 653.163347 461.693631 
L 656.318725 459.784391 
L 662.629482 458.443845 
L 665.784861 459.226371 
L 668.940239 459.542242 
L 672.095618 459.403605 
L 675.250996 459.128444 
L 678.406375 458.557585 
L 681.561753 459.289335 
L 684.717131 455.988083 
L 687.87251 452.235729 
L 691.027888 450.933087 
L 694.183267 450.253878 
L 697.338645 450.03615 
L 700.494024 449.45385 
L 703.649402 448.065203 
L 706.804781 444.956628 
L 709.960159 442.1375 
L 713.115538 439.506809 
L 716.270916 437.503768 
L 719.426295 436.064927 
L 722.581673 435.551418 
L 725.737052 432.62623 
L 728.89243 430.151987 
L 732.047809 427.127453 
L 741.513944 426.740636 
L 744.669323 425.955966 
L 747.824701 426.917358 
L 750.98008 425.719342 
L 754.135458 424.831024 
L 757.290837 424.211353 
L 760.446215 425.767358 
L 763.601594 427.685998 
L 766.756972 428.839922 
L 769.912351 429.769526 
L 773.067729 428.135961 
L 776.223108 428.033345 
L 779.378486 426.875085 
L 782.533865 425.178337 
L 785.689243 425.419821 
L 788.844622 424.730152 
L 788.844622 424.730152 
" clip-path="url(#p1266d54749)" style="fill: none; stroke: #000000; stroke-width: 1.5; stroke-linecap: square"/>
   </g>
   <g id="line2d_4">
    <path d="M 0 459 
L 3.155378 459 
L 6.310757 454.837522 
L 9.466135 451.945322 
L 12.621514 451.308779 
L 15.776892 451.231776 
L 25.243028 450.495362 
L 28.398406 449.714241 
L 31.553785 448.383204 
L 37.864542 447.651805 
L 41.01992 447.674383 
L 44.175299 448.097643 
L 56.796813 452.045035 
L 63.10757 450.328429 
L 66.262948 450.151995 
L 69.418327 449.22456 
L 72.573705 447.911584 
L 75.729084 447.627557 
L 78.884462 446.591931 
L 82.039841 445.227528 
L 85.195219 445.277024 
L 88.350598 444.896885 
L 91.505976 445.928129 
L 94.661355 446.310803 
L 100.972112 446.390895 
L 104.12749 444.912329 
L 107.282869 443.155345 
L 110.438247 442.001672 
L 113.593625 441.882003 
L 116.749004 443.114209 
L 119.904382 441.261649 
L 123.059761 440.457265 
L 126.215139 440.11462 
L 132.525896 438.495475 
L 135.681275 437.726484 
L 138.836653 438.918704 
L 141.992032 442.907782 
L 145.14741 445.892038 
L 148.302789 449.734612 
L 151.458167 452.916726 
L 154.613546 454.825479 
L 157.768924 455.095719 
L 160.924303 455.526515 
L 167.23506 454.746597 
L 170.390438 453.850007 
L 173.545817 452.826227 
L 176.701195 452.45667 
L 179.856574 451.432108 
L 183.011952 449.892808 
L 189.322709 446.319965 
L 192.478088 444.746308 
L 195.633466 443.684502 
L 198.788845 441.718686 
L 201.944223 440.473391 
L 205.099602 439.518706 
L 208.25498 437.940755 
L 211.410359 436.193657 
L 214.565737 434.24092 
L 217.721116 432.619009 
L 220.876494 430.343164 
L 227.187251 426.074578 
L 230.342629 424.988282 
L 233.498008 423.301024 
L 239.808765 418.367381 
L 242.964143 417.496858 
L 246.119522 415.920801 
L 249.2749 415.681417 
L 252.430279 414.855547 
L 255.585657 413.392932 
L 258.741036 414.102817 
L 265.051793 418.285372 
L 268.207171 417.704596 
L 271.36255 417.856276 
L 274.517928 417.702813 
L 277.673307 417.731277 
L 280.828685 418.493912 
L 283.984064 418.769942 
L 287.139442 418.758567 
L 293.450199 415.717941 
L 296.605578 414.636303 
L 299.760956 419.345205 
L 302.916335 424.784884 
L 306.071713 428.159956 
L 309.227092 428.688748 
L 318.693227 425.795885 
L 321.848606 424.469183 
L 325.003984 424.952804 
L 328.159363 425.742162 
L 331.314741 425.59153 
L 337.625498 427.212172 
L 340.780876 427.426642 
L 343.936255 428.045414 
L 347.091633 429.911087 
L 350.247012 431.956861 
L 353.40239 433.766719 
L 356.557769 437.894722 
L 359.713147 440.817842 
L 362.868526 444.012366 
L 366.023904 446.25328 
L 369.179283 446.578403 
L 372.334661 446.293353 
L 375.49004 445.153015 
L 378.645418 442.761101 
L 381.800797 440.908005 
L 384.956175 440.129168 
L 391.266932 437.687153 
L 394.422311 434.839118 
L 400.733068 432.744957 
L 403.888446 432.467908 
L 407.043825 431.956288 
L 410.199203 431.781559 
L 413.354582 431.972858 
L 416.50996 432.491295 
L 419.665339 433.174884 
L 422.820717 433.357217 
L 425.976096 434.552066 
L 429.131474 434.470568 
L 435.442231 436.857394 
L 438.59761 437.567519 
L 441.752988 437.426351 
L 444.908367 436.047829 
L 448.063745 435.130297 
L 451.219124 433.062803 
L 454.374502 431.189231 
L 457.52988 429.173402 
L 460.685259 428.564327 
L 463.840637 427.704773 
L 466.996016 427.291473 
L 470.151394 427.306884 
L 473.306773 427.826529 
L 476.462151 428.168606 
L 479.61753 427.723421 
L 482.772908 427.877628 
L 485.928287 427.413592 
L 489.083665 426.041476 
L 492.239044 424.237418 
L 495.394422 422.91258 
L 498.549801 421.376156 
L 501.705179 420.146834 
L 508.015936 420.346917 
L 511.171315 420.273587 
L 514.326693 419.83013 
L 517.482072 421.370951 
L 520.63745 423.133228 
L 523.792829 425.330619 
L 526.948207 427.716936 
L 530.103586 429.372074 
L 533.258964 431.806574 
L 536.414343 433.817279 
L 539.569721 434.116752 
L 542.7251 434.605718 
L 545.880478 434.775257 
L 549.035857 434.694941 
L 552.191235 437.135859 
L 555.346614 438.795037 
L 558.501992 441.747715 
L 561.657371 444.215132 
L 564.812749 445.736087 
L 567.968127 447.125268 
L 574.278884 450.58215 
L 577.434263 452.804591 
L 580.589641 455.579023 
L 583.74502 459.250767 
L 590.055777 461.120699 
L 593.211155 462.144243 
L 596.366534 462.745066 
L 599.521912 463.197268 
L 602.677291 463.799983 
L 612.143426 466.802274 
L 615.298805 467.555935 
L 618.454183 467.915179 
L 621.609562 467.915812 
L 624.76494 468.282191 
L 627.920319 468.296969 
L 631.075697 468.000778 
L 634.231076 467.948158 
L 637.386454 468.266618 
L 640.541833 468.17357 
L 643.697211 467.431517 
L 650.007968 465.055423 
L 653.163347 463.999081 
L 656.318725 462.604423 
L 659.474104 461.804654 
L 662.629482 461.218691 
L 672.095618 460.660478 
L 678.406375 459.983477 
L 681.561753 460.04312 
L 684.717131 459.221316 
L 687.87251 457.049714 
L 691.027888 455.578915 
L 694.183267 454.463145 
L 700.494024 452.757716 
L 703.649402 451.461597 
L 713.115538 444.745838 
L 716.270916 442.802131 
L 719.426295 441.15896 
L 722.581673 440.05262 
L 725.737052 437.723928 
L 728.89243 435.548038 
L 732.047809 433.032572 
L 735.203187 432.000282 
L 741.513944 430.344138 
L 744.669323 429.329194 
L 747.824701 429.307375 
L 750.98008 428.269431 
L 754.135458 427.372934 
L 757.290837 426.625171 
L 760.446215 427.074677 
L 763.601594 427.894711 
L 769.912351 429.014614 
L 773.067729 428.231923 
L 776.223108 428.141103 
L 779.378486 427.474569 
L 782.533865 426.430416 
L 785.689243 426.349946 
L 788.844622 425.817007 
L 788.844622 425.817007 
" clip-path="url(#p1266d54749)" style="fill: none; stroke: #000000; stroke-width: 1.5; stroke-linecap: square"/>
   </g>
   <g id="line2d_5">
    <path d="M 0 459 
L 3.155378 459 
L 6.310757 455.00277 
L 9.466135 452.270739 
L 12.621514 451.611669 
L 15.776892 451.473951 
L 25.243028 450.75085 
L 28.398406 450.117379 
L 31.553785 449.073336 
L 37.864542 448.369775 
L 41.01992 448.297193 
L 44.175299 448.510079 
L 50.486056 449.771384 
L 53.641434 450.514951 
L 56.796813 451.121842 
L 63.10757 450.208455 
L 66.262948 450.113383 
L 69.418327 449.56143 
L 72.573705 448.750742 
L 75.729084 448.504446 
L 78.884462 447.82002 
L 82.039841 446.919435 
L 85.195219 446.792334 
L 88.350598 446.438499 
L 91.505976 446.880886 
L 94.661355 447.009935 
L 100.972112 446.937227 
L 104.12749 446.07839 
L 107.282869 445.014655 
L 110.438247 444.223982 
L 113.593625 443.968599 
L 116.749004 444.458641 
L 119.904382 443.34513 
L 123.059761 442.736189 
L 126.215139 442.360054 
L 135.681275 440.468692 
L 138.836653 440.872345 
L 141.992032 442.825697 
L 145.14741 444.414849 
L 148.302789 446.572923 
L 151.458167 448.520334 
L 154.613546 449.897605 
L 160.924303 451.068429 
L 167.23506 451.353991 
L 170.390438 451.164642 
L 173.545817 450.848791 
L 176.701195 450.818497 
L 179.856574 450.415593 
L 183.011952 449.691078 
L 195.633466 446.111811 
L 198.788845 444.884173 
L 201.944223 443.972032 
L 205.099602 443.1762 
L 208.25498 442.043227 
L 211.410359 440.78679 
L 214.565737 439.382996 
L 217.721116 438.108554 
L 227.187251 433.161905 
L 230.342629 432.001564 
L 233.498008 430.534292 
L 239.808765 426.698736 
L 242.964143 425.556241 
L 246.119522 424.065723 
L 249.2749 423.268793 
L 252.430279 422.211022 
L 255.585657 420.837308 
L 258.741036 420.590006 
L 261.896414 421.115553 
L 265.051793 421.82864 
L 268.207171 421.232192 
L 271.36255 421.01996 
L 277.673307 420.448243 
L 280.828685 420.622367 
L 283.984064 420.590917 
L 287.139442 420.431598 
L 296.605578 417.711838 
L 299.760956 419.909575 
L 302.916335 422.69545 
L 306.071713 424.626984 
L 309.227092 425.194211 
L 315.537849 424.730041 
L 318.693227 424.360091 
L 321.848606 423.783104 
L 325.003984 424.086021 
L 328.159363 424.561944 
L 331.314741 424.576295 
L 337.625498 425.6006 
L 340.780876 425.833291 
L 343.936255 426.271608 
L 347.091633 427.373915 
L 353.40239 429.8326 
L 356.557769 432.290726 
L 359.713147 434.265951 
L 362.868526 436.463658 
L 366.023904 438.249755 
L 369.179283 439.07061 
L 372.334661 439.534951 
L 375.49004 439.491371 
L 378.645418 438.703689 
L 381.800797 438.066611 
L 384.956175 437.889294 
L 391.266932 436.909156 
L 394.422311 435.478636 
L 400.733068 434.23845 
L 403.888446 433.976283 
L 407.043825 433.58783 
L 410.199203 433.361814 
L 413.354582 433.329005 
L 416.50996 433.486347 
L 419.665339 433.75918 
L 422.820717 433.805506 
L 425.976096 434.394998 
L 429.131474 434.37042 
L 435.442231 435.685997 
L 438.59761 436.161309 
L 441.752988 436.211821 
L 444.908367 435.599558 
L 448.063745 435.168556 
L 457.52988 431.854468 
L 460.685259 431.326327 
L 463.840637 430.65925 
L 466.996016 430.207336 
L 470.151394 429.984149 
L 476.462151 430.043383 
L 479.61753 429.659334 
L 482.772908 429.581862 
L 485.928287 429.203297 
L 489.083665 428.343006 
L 492.239044 427.217146 
L 495.394422 426.281914 
L 501.705179 424.24029 
L 511.171315 423.371305 
L 514.326693 422.885886 
L 517.482072 423.440837 
L 520.63745 424.194053 
L 523.792829 425.257891 
L 526.948207 426.512834 
L 530.103586 427.47712 
L 533.258964 428.909069 
L 536.414343 430.201512 
L 545.880478 431.574708 
L 549.035857 431.795338 
L 552.191235 433.301588 
L 555.346614 434.477344 
L 558.501992 436.361067 
L 561.657371 438.083792 
L 567.968127 440.614055 
L 574.278884 443.511482 
L 577.434263 445.253637 
L 580.589641 447.324954 
L 583.74502 450.185009 
L 590.055777 454.734973 
L 593.211155 457.213325 
L 596.366534 459.027825 
L 602.677291 460.184527 
L 615.298805 463.426144 
L 618.454183 463.955686 
L 621.609562 464.284176 
L 624.76494 464.777002 
L 627.920319 465.075577 
L 634.231076 465.395099 
L 637.386454 465.773267 
L 640.541833 465.931062 
L 643.697211 465.73015 
L 653.163347 464.195354 
L 656.318725 463.454383 
L 662.629482 462.571822 
L 672.095618 461.963994 
L 678.406375 461.396438 
L 681.561753 461.315135 
L 691.027888 459.804481 
L 697.338645 459.161121 
L 700.494024 458.548803 
L 703.649402 457.414368 
L 719.426295 449.236267 
L 722.581673 448.005124 
L 728.89243 444.325626 
L 732.047809 442.296221 
L 735.203187 441.000325 
L 744.669323 437.485625 
L 747.824701 436.805151 
L 754.135458 434.568712 
L 757.290837 433.580269 
L 760.446215 433.236621 
L 769.912351 432.929115 
L 773.067729 432.195719 
L 776.223108 431.818578 
L 779.378486 431.162672 
L 782.533865 430.308922 
L 785.689243 429.933545 
L 788.844622 429.346802 
L 788.844622 429.346802 
" clip-path="url(#p1266d54749)" style="fill: none; stroke: #000000; stroke-width: 1.5; stroke-linecap: square"/>
   </g>
   <g id="line2d_6">
    <path d="M 0 459 
L 3.155378 459 
L 6.310757 455.085665 
L 9.466135 452.4357 
L 12.621514 451.771959 
L 18.932271 451.358974 
L 25.243028 450.901338 
L 28.398406 450.33886 
L 31.553785 449.432983 
L 37.864542 448.775809 
L 41.01992 448.67764 
L 44.175299 448.810219 
L 50.486056 449.745398 
L 56.796813 450.777467 
L 63.10757 450.152036 
L 66.262948 450.087922 
L 69.418327 449.699015 
L 72.573705 449.122735 
L 75.729084 448.928034 
L 78.884462 448.432864 
L 82.039841 447.785172 
L 85.195219 447.646847 
L 88.350598 447.360779 
L 91.505976 447.596459 
L 97.816733 447.575677 
L 100.972112 447.521567 
L 104.12749 446.945201 
L 107.282869 446.229476 
L 110.438247 445.670829 
L 113.593625 445.43524 
L 116.749004 445.658153 
L 119.904382 444.916555 
L 123.059761 444.466266 
L 126.215139 444.150991 
L 135.681275 442.731132 
L 138.836653 442.855373 
L 141.992032 443.897462 
L 145.14741 444.767381 
L 151.458167 447.143432 
L 154.613546 447.997378 
L 160.924303 448.850949 
L 167.23506 449.219576 
L 176.701195 449.191744 
L 179.856574 449.043878 
L 183.011952 448.707101 
L 189.322709 447.727307 
L 198.788845 446.100599 
L 208.25498 444.356435 
L 214.565737 442.699323 
L 217.721116 441.87 
L 227.187251 438.655393 
L 230.342629 437.797107 
L 233.498008 436.763515 
L 239.808765 434.159839 
L 242.964143 433.231118 
L 246.119522 432.111185 
L 249.2749 431.343117 
L 252.430279 430.437808 
L 255.585657 429.361271 
L 258.741036 428.864887 
L 261.896414 428.78388 
L 265.051793 428.827299 
L 268.207171 428.215234 
L 277.673307 426.93036 
L 283.984064 426.464975 
L 287.139442 426.132146 
L 296.605578 423.968221 
L 299.760956 424.842185 
L 302.916335 426.076091 
L 306.071713 426.931599 
L 309.227092 427.127011 
L 318.693227 426.452399 
L 321.848606 426.066411 
L 334.47012 426.410309 
L 337.625498 426.623798 
L 340.780876 426.702824 
L 343.936255 426.897054 
L 350.247012 428.091912 
L 353.40239 428.737032 
L 356.557769 430.049292 
L 359.713147 431.160641 
L 362.868526 432.422102 
L 366.023904 433.511181 
L 369.179283 434.135563 
L 372.334661 434.585081 
L 375.49004 434.775073 
L 381.800797 434.426687 
L 384.956175 434.491728 
L 391.266932 434.264801 
L 394.422311 433.646526 
L 403.888446 433.065214 
L 410.199203 432.811433 
L 416.50996 432.912471 
L 419.665339 433.071685 
L 422.820717 433.119193 
L 425.976096 433.443869 
L 429.131474 433.465889 
L 438.59761 434.515472 
L 441.752988 434.604346 
L 448.063745 434.179689 
L 454.374502 433.140225 
L 457.52988 432.520433 
L 470.151394 431.373938 
L 476.462151 431.281929 
L 479.61753 431.028479 
L 482.772908 430.927742 
L 485.928287 430.674255 
L 489.083665 430.16777 
L 501.705179 427.634393 
L 511.171315 426.761459 
L 514.326693 426.367187 
L 517.482072 426.500118 
L 520.63745 426.750606 
L 523.792829 427.183646 
L 526.948207 427.741882 
L 530.103586 428.181081 
L 536.414343 429.541814 
L 549.035857 430.506147 
L 552.191235 431.325386 
L 555.346614 432.005047 
L 561.657371 434.089265 
L 567.968127 435.74009 
L 574.278884 437.651958 
L 577.434263 438.787911 
L 580.589641 440.115508 
L 583.74502 441.87804 
L 590.055777 444.93365 
L 593.211155 446.613084 
L 602.677291 450.736053 
L 608.988048 454.354518 
L 615.298805 457.886913 
L 618.454183 459.103482 
L 631.075697 460.554976 
L 640.541833 461.519628 
L 643.697211 461.605751 
L 653.163347 461.296236 
L 659.474104 460.897251 
L 665.784861 460.761799 
L 672.095618 460.678664 
L 684.717131 460.253579 
L 691.027888 459.784367 
L 703.649402 459.066634 
L 706.804781 458.276455 
L 722.581673 453.488602 
L 728.89243 451.119475 
L 732.047809 449.795203 
L 744.669323 446.000409 
L 747.824701 445.291828 
L 757.290837 442.538577 
L 760.446215 441.982231 
L 769.912351 440.750485 
L 773.067729 440.045048 
L 776.223108 439.521454 
L 788.844622 436.973228 
L 788.844622 436.973228 
" clip-path="url(#p1266d54749)" style="fill: none; stroke: #000000; stroke-width: 1.5; stroke-linecap: square"/>
   </g>
   <g id="line2d_7">
    <path d="M 0 459 
L 3.155378 459 
L 6.310757 455.127147 
L 9.466135 452.518613 
L 12.621514 451.854116 
L 22.087649 451.228044 
L 25.243028 450.98229 
L 28.398406 450.454276 
L 31.553785 449.615047 
L 37.864542 448.987524 
L 41.01992 448.881982 
L 44.175299 448.981732 
L 50.486056 449.771575 
L 56.796813 450.652609 
L 63.10757 450.141876 
L 66.262948 450.089506 
L 69.418327 449.770806 
L 72.573705 449.298643 
L 75.729084 449.132426 
L 78.884462 448.726055 
L 82.039841 448.197701 
L 85.195219 448.068867 
L 88.350598 447.825553 
L 91.505976 447.986882 
L 97.816733 447.937829 
L 100.972112 447.881285 
L 110.438247 446.436538 
L 113.593625 446.232556 
L 116.749004 446.364793 
L 119.904382 445.798363 
L 135.681275 444.049753 
L 138.836653 444.090783 
L 148.302789 446.172334 
L 151.458167 446.95114 
L 154.613546 447.538341 
L 160.924303 448.147474 
L 167.23506 448.439213 
L 179.856574 448.41426 
L 186.167331 447.932676 
L 205.099602 445.87221 
L 211.410359 444.897938 
L 220.876494 443.059517 
L 236.653386 439.409358 
L 239.808765 438.511642 
L 242.964143 437.838179 
L 246.119522 437.045807 
L 252.430279 435.785501 
L 255.585657 435.007764 
L 258.741036 434.568243 
L 265.051793 434.256355 
L 268.207171 433.759062 
L 280.828685 432.336187 
L 287.139442 431.704547 
L 296.605578 430.036214 
L 299.760956 430.386021 
L 302.916335 430.952806 
L 306.071713 431.31958 
L 309.227092 431.323426 
L 318.693227 430.63922 
L 321.848606 430.321623 
L 334.47012 430.125229 
L 343.936255 430.142324 
L 350.247012 430.656287 
L 353.40239 430.951096 
L 362.868526 432.859158 
L 366.023904 433.444044 
L 372.334661 434.039108 
L 375.49004 434.155073 
L 381.800797 433.992283 
L 388.111554 434.001642 
L 391.266932 433.93471 
L 394.422311 433.608976 
L 407.043825 433.200514 
L 413.354582 433.142526 
L 422.820717 433.291459 
L 425.976096 433.461794 
L 429.131474 433.474497 
L 438.59761 434.044991 
L 441.752988 434.10358 
L 451.219124 433.639217 
L 460.685259 432.865498 
L 466.996016 432.485881 
L 473.306773 432.334973 
L 479.61753 432.129674 
L 485.928287 431.896666 
L 492.239044 431.232405 
L 504.860558 429.93105 
L 514.326693 429.24374 
L 520.63745 429.321669 
L 530.103586 429.913067 
L 536.414343 430.5494 
L 549.035857 430.985537 
L 558.501992 432.308477 
L 564.812749 433.305447 
L 571.123506 434.298735 
L 577.434263 435.488964 
L 580.589641 436.242494 
L 583.74502 437.230526 
L 590.055777 439.010885 
L 593.211155 439.998573 
L 602.677291 442.569449 
L 608.988048 444.785295 
L 615.298805 447.015357 
L 618.454183 447.975354 
L 621.609562 448.791543 
L 624.76494 449.73942 
L 627.920319 450.54718 
L 634.231076 451.941283 
L 637.386454 452.803139 
L 640.541833 453.498349 
L 643.697211 453.908062 
L 650.007968 454.16881 
L 653.163347 454.234928 
L 656.318725 454.093335 
L 662.629482 454.156369 
L 672.095618 454.634676 
L 681.561753 454.921006 
L 697.338645 454.133619 
L 703.649402 453.803318 
L 709.960159 453.061007 
L 725.737052 450.851669 
L 738.358566 448.651677 
L 760.446215 445.355599 
L 769.912351 444.509452 
L 782.533865 442.817483 
L 788.844622 442.037112 
L 788.844622 442.037112 
" clip-path="url(#p1266d54749)" style="fill: none; stroke: #000000; stroke-width: 1.5; stroke-linecap: square"/>
   </g>
   <g id="line2d_8">
    <path d="M 0 459 
L 3.155378 459 
L 6.310757 455.147892 
L 9.466135 452.560161 
L 12.621514 451.89567 
L 22.087649 451.26592 
L 25.243028 451.024172 
L 28.398406 450.513092 
L 31.553785 449.706445 
L 37.864542 449.095073 
L 41.01992 448.987105 
L 44.175299 449.072293 
L 50.486056 449.794588 
L 56.796813 450.603634 
L 69.418327 449.809252 
L 72.573705 449.384989 
L 75.729084 449.232933 
L 82.039841 448.39597 
L 88.350598 448.053329 
L 91.505976 448.184571 
L 97.816733 448.127565 
L 100.972112 448.072061 
L 110.438247 446.816529 
L 113.593625 446.631865 
L 116.749004 446.729847 
L 119.904382 446.244739 
L 135.681275 444.722579 
L 138.836653 444.736896 
L 148.302789 446.376874 
L 151.458167 446.995754 
L 154.613546 447.463407 
L 164.079681 448.075473 
L 170.390438 448.214114 
L 183.011952 448.047085 
L 195.633466 447.136693 
L 201.944223 446.516454 
L 208.25498 445.908487 
L 217.721116 444.638954 
L 233.498008 441.970784 
L 239.808765 440.617222 
L 258.741036 437.515836 
L 265.051793 437.188563 
L 271.36255 436.465364 
L 277.673307 435.80272 
L 287.139442 435.023484 
L 296.605578 433.702395 
L 299.760956 433.879828 
L 302.916335 434.207577 
L 306.071713 434.4027 
L 309.227092 434.354505 
L 325.003984 433.385495 
L 343.936255 433.02459 
L 353.40239 433.426329 
L 366.023904 434.916365 
L 372.334661 435.257567 
L 375.49004 435.313829 
L 384.956175 435.186682 
L 391.266932 435.087922 
L 394.422311 434.865076 
L 410.199203 434.481041 
L 422.820717 434.49778 
L 438.59761 434.887528 
L 444.908367 434.827374 
L 451.219124 434.593824 
L 463.840637 433.934805 
L 473.306773 433.690258 
L 482.772908 433.466492 
L 489.083665 433.161586 
L 504.860558 432.047504 
L 517.482072 431.531008 
L 523.792829 431.61314 
L 542.7251 432.241999 
L 549.035857 432.310294 
L 558.501992 433.030905 
L 577.434263 434.842521 
L 580.589641 435.280947 
L 593.211155 437.495463 
L 602.677291 439.05721 
L 624.76494 443.504786 
L 631.075697 444.484534 
L 643.697211 446.3355 
L 653.163347 446.790478 
L 659.474104 446.896882 
L 665.784861 447.19973 
L 672.095618 447.531732 
L 684.717131 447.927758 
L 691.027888 447.874255 
L 703.649402 447.868969 
L 713.115538 447.43123 
L 725.737052 446.68804 
L 744.669323 445.189713 
L 750.98008 444.746334 
L 760.446215 444.065573 
L 773.067729 443.424109 
L 779.378486 443.020545 
L 788.844622 442.346953 
L 788.844622 442.346953 
" clip-path="url(#p1266d54749)" style="fill: none; stroke: #000000; stroke-width: 1.5; stroke-linecap: square"/>
   </g>
   <g id="line2d_9">
    <path d="M 0 459 
L 3.155378 459 
L 6.310757 455.158265 
L 9.466135 452.580956 
L 12.621514 451.916563 
L 22.087649 451.285178 
L 25.243028 451.045461 
L 28.398406 450.542767 
L 31.553785 449.752211 
L 37.864542 449.149207 
L 41.01992 449.040325 
L 44.175299 449.118688 
L 50.486056 449.808548 
L 56.796813 450.582644 
L 69.418327 449.829333 
L 72.573705 449.427903 
L 75.729084 449.282824 
L 82.039841 448.492833 
L 88.350598 448.165423 
L 91.505976 448.283294 
L 97.816733 448.223693 
L 100.972112 448.169203 
L 113.593625 446.82938 
L 116.749004 446.912835 
L 119.904382 446.466324 
L 135.681275 445.056509 
L 138.836653 445.060837 
L 154.613546 447.463936 
L 164.079681 448.005653 
L 170.390438 448.130553 
L 183.011952 447.992273 
L 195.633466 447.207475 
L 201.944223 446.672463 
L 208.25498 446.147682 
L 217.721116 445.055211 
L 233.498008 442.763974 
L 242.964143 441.154059 
L 246.119522 440.629104 
L 252.430279 439.769442 
L 255.585657 439.251906 
L 258.741036 438.931085 
L 265.051793 438.620264 
L 271.36255 437.986742 
L 277.673307 437.403332 
L 287.139442 436.704354 
L 296.605578 435.569883 
L 299.760956 435.686998 
L 306.071713 436.058079 
L 309.227092 435.997977 
L 328.159363 435.05636 
L 334.47012 434.874961 
L 347.091633 434.771627 
L 353.40239 434.965107 
L 366.023904 436.04966 
L 372.334661 436.286032 
L 378.645418 436.246928 
L 403.888446 435.682446 
L 413.354582 435.535346 
L 429.131474 435.569525 
L 441.752988 435.777504 
L 451.219124 435.517744 
L 466.996016 434.902151 
L 489.083665 434.354528 
L 504.860558 433.496787 
L 517.482072 433.07482 
L 523.792829 433.104776 
L 545.880478 433.491503 
L 549.035857 433.49826 
L 561.657371 434.171437 
L 574.278884 434.930111 
L 580.589641 435.480945 
L 596.366534 437.355268 
L 602.677291 438.07675 
L 624.76494 441.173911 
L 640.541833 442.96323 
L 646.85259 443.34962 
L 656.318725 443.612683 
L 665.784861 443.952469 
L 675.250996 444.327781 
L 684.717131 444.588072 
L 694.183267 444.63648 
L 703.649402 444.701383 
L 716.270916 444.399022 
L 728.89243 443.943815 
L 738.358566 443.509211 
L 766.756972 442.426593 
L 776.223108 442.110333 
L 788.844622 441.573466 
L 788.844622 441.573466 
" clip-path="url(#p1266d54749)" style="fill: none; stroke: #000000; stroke-width: 1.5; stroke-linecap: square"/>
   </g>
  </g>
 </g>
 <defs>
  <clipPath id="p1266d54749">
   <rect x="0" y="0" width="792" height="612"/>
  </clipPath>
 </defs>
</svg>
