<?xml version="1.0" encoding="utf-8" standalone="no"?>
<!DOCTYPE svg PUBLIC "-//W3C//DTD SVG 1.1//EN"
  "http://www.w3.org/Graphics/SVG/1.1/DTD/svg11.dtd">
<svg xmlns:xlink="http://www.w3.org/1999/xlink" width="792pt" height="612pt" viewBox="0 0 792 612" xmlns="http://www.w3.org/2000/svg" version="1.1">
 <metadata>
  <rdf:RDF xmlns:dc="http://purl.org/dc/elements/1.1/" xmlns:cc="http://creativecommons.org/ns#" xmlns:rdf="http://www.w3.org/1999/02/22-rdf-syntax-ns#">
   <cc:Work>
    <dc:type rdf:resource="http://purl.org/dc/dcmitype/StillImage"/>
    <dc:date>2023-01-16T16:11:09.497342</dc:date>
    <dc:format>image/svg+xml</dc:format>
    <dc:creator>
     <cc:Agent>
      <dc:title>Matplotlib v3.6.2, https://matplotlib.org/</dc:title>
     </cc:Agent>
    </dc:creator>
   </cc:Work>
  </rdf:RDF>
 </metadata>
 <defs>
  <style type="text/css">*{stroke-linejoin: round; stroke-linecap: butt}</style>
 </defs>
 <g id="figure_1">
  <g id="patch_1">
   <path d="M 0 612 
L 792 612 
L 792 0 
L 0 0 
z
" style="fill: #ffffff"/>
  </g>
  <g id="axes_1">
   <g id="line2d_1">
    <path d="M 0 459 
L 12.774194 452.818833 
L 25.548387 456.774663 
L 38.322581 460.675884 
L 51.096774 456.774663 
L 63.870968 443.510822 
L 76.645161 432.161552 
L 89.419355 428.549191 
L 102.193548 427.400576 
L 114.967742 417.327851 
L 127.741935 424.776686 
L 140.516129 426.498371 
L 153.290323 433.311661 
L 166.064516 433.558156 
L 178.83871 429.616106 
L 191.612903 427.728712 
L 204.387097 426.826417 
L 217.16129 433.640324 
L 229.935484 416.34715 
L 242.709677 412.754674 
L 255.483871 417.573086 
L 268.258065 418.39071 
L 281.032258 419.290395 
L 293.806452 417.73659 
L 306.580645 414.223657 
L 319.354839 406.563196 
L 332.129032 404.368118 
L 344.903226 402.094416 
L 357.677419 401.607559 
L 370.451613 401.526429 
L 383.225806 403.312125 
L 396 394.159483 
L 408.774194 392.706187 
L 421.548387 388.193625 
L 434.322581 395.290743 
L 447.096774 395.533259 
L 459.870968 394.725013 
L 472.645161 392.544793 
L 485.419355 397.960386 
L 498.193548 391.254248 
L 510.967742 391.093007 
L 523.741935 391.093007 
L 536.516129 398.203292 
L 549.290323 401.120833 
L 562.064516 400.390992 
L 574.83871 400.796422 
L 587.612903 392.625488 
L 600.387097 396.341907 
L 613.16129 392.464103 
L 625.935484 389.320488 
L 638.709677 394.482619 
L 651.483871 391.415507 
L 664.258065 394.159483 
L 677.032258 399.499374 
L 689.806452 399.742498 
L 702.580645 405.587299 
L 715.354839 395.85667 
L 728.129032 402.25673 
L 740.903226 406.156513 
L 753.677419 407.132691 
L 766.451613 413.652274 
L 779.225806 411.857431 
" clip-path="url(#p5fb5a623b4)" style="fill: none; stroke: #000000; stroke-width: 1.5; stroke-linecap: square"/>
   </g>
   <g id="line2d_2">
    <path d="M 0 459 
L 12.774194 459 
L 25.548387 454.879084 
L 38.322581 455.962259 
L 51.096774 459.421261 
L 63.870968 458.462937 
L 76.645161 450.866075 
L 89.419355 441.432891 
L 102.193548 434.961034 
L 114.967742 431.117082 
L 127.741935 424.145159 
L 140.516129 424.398397 
L 153.290323 425.374908 
L 166.064516 429.295193 
L 178.83871 431.406594 
L 191.612903 430.50625 
L 204.387097 429.115597 
L 217.16129 427.969687 
L 229.935484 430.835965 
L 242.709677 423.566135 
L 255.483871 418.127759 
L 268.258065 417.819628 
L 281.032258 418.075493 
L 293.806452 418.662667 
L 306.580645 418.180026 
L 319.354839 416.176369 
L 332.129032 411.311586 
L 344.903226 407.813427 
L 357.677419 404.930917 
L 370.451613 403.237288 
L 383.225806 402.348715 
L 396 402.799156 
L 408.774194 398.427813 
L 421.548387 395.52248 
L 434.322581 391.817779 
L 447.096774 393.535573 
L 459.870968 394.521273 
L 472.645161 394.609673 
L 485.419355 393.559321 
L 498.193548 395.747908 
L 510.967742 393.493777 
L 523.741935 392.289762 
L 536.516129 391.69696 
L 549.290323 394.952549 
L 562.064516 398.044843 
L 574.83871 399.228641 
L 587.612903 400.028569 
L 600.387097 396.312408 
L 613.16129 396.337149 
L 625.935484 394.402145 
L 638.709677 391.855735 
L 651.483871 393.161345 
L 664.258065 392.269196 
L 677.032258 393.201867 
L 689.806452 396.345078 
L 702.580645 398.056909 
L 715.354839 401.836333 
L 728.129032 398.850576 
L 740.903226 400.578273 
L 753.677419 403.388238 
L 766.451613 405.290481 
L 779.225806 409.505554 
" clip-path="url(#p5fb5a623b4)" style="fill: none; stroke: #000000; stroke-width: 1.5; stroke-linecap: square"/>
   </g>
   <g id="line2d_3">
    <path d="M 0 459 
L 12.774194 459 
L 25.548387 455.379012 
L 38.322581 456.01135 
L 51.096774 459.047295 
L 63.870968 458.299649 
L 76.645161 453.347626 
L 89.419355 446.533742 
L 102.193548 440.908294 
L 114.967742 436.764617 
L 127.741935 430.87641 
L 140.516129 429.048327 
L 153.290323 428.289406 
L 166.064516 429.776109 
L 178.83871 430.892176 
L 191.612903 430.516302 
L 204.387097 429.696405 
L 217.16129 428.818701 
L 229.935484 430.208306 
L 242.709677 426.09552 
L 255.483871 422.122567 
L 268.258065 420.744416 
L 281.032258 420.026056 
L 293.806452 419.79581 
L 306.580645 419.180108 
L 319.354839 417.712257 
L 332.129032 414.4287 
L 344.903226 411.453684 
L 357.677419 408.67995 
L 370.451613 406.569581 
L 383.225806 405.054493 
L 396 404.513946 
L 408.774194 401.43648 
L 421.548387 398.83577 
L 434.322581 395.659575 
L 447.096774 395.527487 
L 459.870968 395.509492 
L 472.645161 395.253595 
L 485.419355 394.430219 
L 498.193548 395.439066 
L 510.967742 394.181965 
L 523.741935 393.250169 
L 536.516129 392.600336 
L 549.290323 394.232339 
L 562.064516 396.245883 
L 574.83871 397.457515 
L 587.612903 398.433951 
L 600.387097 396.718292 
L 613.16129 396.610552 
L 625.935484 395.394699 
L 638.709677 393.614448 
L 651.483871 393.867753 
L 664.258065 393.144378 
L 677.032258 393.440979 
L 689.806452 395.221112 
L 702.580645 396.546174 
L 715.354839 399.20595 
L 728.129032 398.229769 
L 740.903226 399.421126 
L 753.677419 401.400441 
L 766.451613 403.084474 
L 779.225806 406.189231 
" clip-path="url(#p5fb5a623b4)" style="fill: none; stroke: #000000; stroke-width: 1.5; stroke-linecap: square"/>
   </g>
   <g id="line2d_4">
    <path d="M 0 459 
L 12.774194 459 
L 25.548387 455.642163 
L 38.322581 456.086624 
L 51.096774 458.61349 
L 63.870968 458.108676 
L 76.645161 454.514542 
L 89.419355 449.447751 
L 102.193548 445.008117 
L 114.967742 441.456009 
L 127.741935 436.781025 
L 140.516129 434.53479 
L 153.290323 433.072241 
L 166.064516 433.114807 
L 178.83871 433.192181 
L 191.612903 432.577295 
L 204.387097 431.753992 
L 217.16129 430.926036 
L 229.935484 431.377726 
L 242.709677 428.889023 
L 255.483871 426.232965 
L 268.258065 424.816194 
L 281.032258 423.76979 
L 293.806452 423.043127 
L 306.580645 422.184743 
L 319.354839 420.899605 
L 332.129032 418.587338 
L 344.903226 416.297784 
L 357.677419 414.013889 
L 370.451613 412.021986 
L 383.225806 410.339194 
L 396 409.214305 
L 408.774194 406.80147 
L 421.548387 404.510388 
L 434.322581 401.863797 
L 447.096774 400.778334 
L 459.870968 399.900473 
L 472.645161 399.037665 
L 485.419355 397.971398 
L 498.193548 397.94848 
L 510.967742 396.858434 
L 523.741935 395.917244 
L 536.516129 395.132422 
L 549.290323 395.604181 
L 562.064516 396.464999 
L 574.83871 397.068684 
L 587.612903 397.640984 
L 600.387097 396.819051 
L 613.16129 396.723692 
L 625.935484 396.023931 
L 638.709677 394.928047 
L 651.483871 394.843606 
L 664.258065 394.284428 
L 677.032258 394.250033 
L 689.806452 395.072405 
L 702.580645 395.802449 
L 715.354839 397.34806 
L 728.129032 397.099274 
L 740.903226 397.916138 
L 753.677419 399.225789 
L 766.451613 400.484657 
L 779.225806 402.581213 
" clip-path="url(#p5fb5a623b4)" style="fill: none; stroke: #000000; stroke-width: 1.5; stroke-linecap: square"/>
   </g>
   <g id="line2d_5">
    <path d="M 0 459 
L 12.774194 459 
L 25.548387 455.775469 
L 38.322581 456.137768 
L 51.096774 458.373467 
L 63.870968 457.996041 
L 76.645161 455.029406 
L 89.419355 450.850964 
L 102.193548 447.143539 
L 114.967742 444.112831 
L 127.741935 440.266489 
L 140.516129 438.170931 
L 153.290323 436.670483 
L 166.064516 436.257839 
L 178.83871 435.938892 
L 191.612903 435.21695 
L 204.387097 434.387594 
L 217.16129 433.572672 
L 229.935484 433.579781 
L 242.709677 431.803825 
L 255.483871 429.877944 
L 268.258065 428.656941 
L 281.032258 427.6546 
L 293.806452 426.849843 
L 306.580645 425.984219 
L 319.354839 424.879674 
L 332.129032 423.175399 
L 344.903226 421.441924 
L 357.677419 419.67383 
L 370.451613 418.036235 
L 383.225806 416.550943 
L 396 415.368579 
L 408.774194 413.481973 
L 421.548387 411.643959 
L 434.322581 409.577836 
L 447.096774 408.327743 
L 459.870968 407.213289 
L 472.645161 406.129683 
L 485.419355 404.954613 
L 498.193548 404.352591 
L 510.967742 403.226552 
L 523.741935 402.186458 
L 536.516129 401.238073 
L 549.290323 400.979776 
L 562.064516 400.991747 
L 574.83871 400.940848 
L 587.612903 400.928634 
L 600.387097 400.225985 
L 613.16129 399.898167 
L 625.935484 399.270926 
L 638.709677 398.431744 
L 651.483871 398.099625 
L 664.258065 397.537619 
L 677.032258 397.254112 
L 689.806452 397.442093 
L 702.580645 397.634539 
L 715.354839 398.298417 
L 728.129032 398.094163 
L 740.903226 398.441544 
L 753.677419 399.084468 
L 766.451613 399.754789 
L 779.225806 400.910249 
" clip-path="url(#p5fb5a623b4)" style="fill: none; stroke: #000000; stroke-width: 1.5; stroke-linecap: square"/>
   </g>
   <g id="line2d_6">
    <path d="M 0 459 
L 12.774194 459 
L 25.548387 455.842341 
L 38.322581 456.166669 
L 51.096774 458.261379 
L 63.870968 457.937729 
L 76.645161 455.264514 
L 89.419355 451.515727 
L 102.193548 448.186238 
L 114.967742 445.452472 
L 127.741935 442.051323 
L 140.516129 440.115965 
L 153.290323 438.689848 
L 166.064516 438.160049 
L 178.83871 437.730815 
L 191.612903 437.010252 
L 204.387097 436.222431 
L 217.16129 435.457292 
L 229.935484 435.315005 
L 242.709677 433.877717 
L 255.483871 432.327747 
L 268.258065 431.278398 
L 281.032258 430.387504 
L 293.806452 429.640447 
L 306.580645 428.858348 
L 319.354839 427.918123 
L 332.129032 426.573421 
L 344.903226 425.202608 
L 357.677419 423.802293 
L 370.451613 422.48111 
L 383.225806 421.25463 
L 396 420.22148 
L 408.774194 418.739849 
L 421.548387 417.280198 
L 434.322581 415.669185 
L 447.096774 414.556991 
L 459.870968 413.531228 
L 472.645161 412.528474 
L 485.419355 411.473766 
L 498.193548 410.768867 
L 510.967742 409.758896 
L 523.741935 408.80171 
L 536.516129 407.901557 
L 549.290323 407.413648 
L 562.064516 407.099784 
L 574.83871 406.767592 
L 587.612903 406.474043 
L 600.387097 405.796296 
L 613.16129 405.337074 
L 625.935484 404.714954 
L 638.709677 403.974658 
L 651.483871 403.521455 
L 664.258065 402.946006 
L 677.032258 402.530802 
L 689.806452 402.388456 
L 702.580645 402.264782 
L 715.354839 402.419173 
L 728.129032 402.114676 
L 740.903226 402.12123 
L 753.677419 402.306518 
L 766.451613 402.527292 
L 779.225806 403.033735 
" clip-path="url(#p5fb5a623b4)" style="fill: none; stroke: #000000; stroke-width: 1.5; stroke-linecap: square"/>
   </g>
   <g id="line2d_7">
    <path d="M 0 459 
L 12.774194 459 
L 25.548387 455.875805 
L 38.322581 456.181935 
L 51.096774 458.207521 
L 63.870968 457.9084 
L 76.645161 455.376049 
L 89.419355 451.836199 
L 102.193548 448.695121 
L 114.967742 446.114752 
L 127.741935 442.938354 
L 140.516129 441.099498 
L 153.290323 439.730614 
L 166.064516 439.169824 
L 178.83871 438.709897 
L 191.612903 438.006804 
L 204.387097 437.254022 
L 217.16129 436.527813 
L 229.935484 436.336122 
L 242.709677 435.063196 
L 255.483871 433.699213 
L 268.258065 432.751606 
L 281.032258 431.938176 
L 293.806452 431.24623 
L 306.580645 430.530736 
L 319.354839 429.692947 
L 332.129032 428.537422 
L 344.903226 427.36282 
L 357.677419 426.166588 
L 370.451613 425.033082 
L 383.225806 423.974224 
L 396 423.065282 
L 408.774194 421.818906 
L 421.548387 420.58966 
L 434.322581 419.247842 
L 447.096774 418.276769 
L 459.870968 417.372168 
L 472.645161 416.487385 
L 485.419355 415.567608 
L 498.193548 414.903429 
L 510.967742 414.024014 
L 523.741935 413.184443 
L 536.516129 412.387665 
L 549.290323 411.884411 
L 562.064516 411.508093 
L 574.83871 411.12453 
L 587.612903 410.772819 
L 600.387097 410.161183 
L 613.16129 409.701529 
L 625.935484 409.134262 
L 638.709677 408.488998 
L 651.483871 408.038543 
L 664.258065 407.509135 
L 677.032258 407.088684 
L 689.806452 406.852384 
L 702.580645 406.633152 
L 715.354839 406.601252 
L 728.129032 406.275636 
L 740.903226 406.155122 
L 753.677419 406.155163 
L 766.451613 406.183954 
L 779.225806 406.401831 
" clip-path="url(#p5fb5a623b4)" style="fill: none; stroke: #000000; stroke-width: 1.5; stroke-linecap: square"/>
   </g>
   <g id="line2d_8">
    <path d="M 0 459 
L 12.774194 459 
L 25.548387 455.89254 
L 38.322581 456.189769 
L 51.096774 458.181162 
L 63.870968 457.893734 
L 76.645161 455.430274 
L 89.419355 451.993159 
L 102.193548 448.945704 
L 114.967742 446.442697 
L 127.741935 443.378434 
L 140.516129 441.591108 
L 153.290323 440.255116 
L 166.064516 439.685244 
L 178.83871 439.21585 
L 191.612903 438.525538 
L 204.387097 437.793695 
L 217.16129 437.090298 
L 229.935484 436.880407 
L 242.709677 435.687932 
L 255.483871 434.415359 
L 268.258065 433.521454 
L 281.032258 432.751053 
L 293.806452 432.092215 
L 306.580645 431.415217 
L 319.354839 430.632441 
L 332.129032 429.571702 
L 344.903226 428.496187 
L 357.677419 427.403737 
L 370.451613 426.367844 
L 383.225806 425.398675 
L 396 424.560938 
L 408.774194 423.435748 
L 421.548387 422.326963 
L 434.322581 421.124158 
L 447.096774 420.237175 
L 459.870968 419.408496 
L 472.645161 418.598717 
L 485.419355 417.761866 
L 498.193548 417.139991 
L 510.967742 416.342007 
L 523.741935 415.578874 
L 536.516129 414.852886 
L 549.290323 414.369295 
L 562.064516 413.991669 
L 574.83871 413.610682 
L 587.612903 413.25784 
L 600.387097 412.697857 
L 613.16129 412.261524 
L 625.935484 411.741079 
L 638.709677 411.160132 
L 651.483871 410.735056 
L 664.258065 410.249346 
L 677.032258 409.850865 
L 689.806452 409.598403 
L 702.580645 409.36127 
L 715.354839 409.271792 
L 728.129032 408.956991 
L 740.903226 408.801996 
L 753.677419 408.741605 
L 766.451613 408.705323 
L 779.225806 408.815416 
" clip-path="url(#p5fb5a623b4)" style="fill: none; stroke: #000000; stroke-width: 1.5; stroke-linecap: square"/>
   </g>
   <g id="line2d_9">
    <path d="M 0 459 
L 12.774194 459 
L 25.548387 455.900908 
L 38.322581 456.193736 
L 51.096774 458.168127 
L 63.870968 457.886406 
L 76.645161 455.456997 
L 89.419355 452.070785 
L 102.193548 449.069943 
L 114.967742 446.605711 
L 127.741935 443.597357 
L 140.516129 441.836504 
L 153.290323 440.517917 
L 166.064516 439.94502 
L 178.83871 439.4723 
L 191.612903 438.789335 
L 204.387097 438.068761 
L 217.16129 437.377546 
L 229.935484 437.160144 
L 242.709677 436.007371 
L 255.483871 434.779942 
L 268.258065 433.913398 
L 281.032258 433.165374 
L 293.806452 432.52426 
L 306.580645 431.867578 
L 319.354839 431.112988 
L 332.129032 430.099324 
L 344.903226 429.073139 
L 357.677419 428.032463 
L 370.451613 427.045689 
L 383.225806 426.122145 
L 396 425.321578 
L 408.774194 424.257006 
L 421.548387 423.208789 
L 434.322581 422.075459 
L 447.096774 421.232809 
L 459.870968 420.444831 
L 472.645161 419.675452 
L 485.419355 418.882777 
L 498.193548 418.286525 
L 510.967742 417.532164 
L 523.741935 416.810517 
L 536.516129 416.123567 
L 549.290323 415.655758 
L 562.064516 415.284286 
L 574.83871 414.911102 
L 587.612903 414.564276 
L 600.387097 414.034174 
L 613.16129 413.614967 
L 625.935484 413.122275 
L 638.709677 412.577066 
L 651.483871 412.170308 
L 664.258065 411.711171 
L 677.032258 411.329566 
L 689.806452 411.076854 
L 702.580645 410.838551 
L 715.354839 410.730003 
L 728.129032 410.426414 
L 740.903226 410.2624 
L 753.677419 410.181242 
L 766.451613 410.121851 
L 779.225806 410.189574 
" clip-path="url(#p5fb5a623b4)" style="fill: none; stroke: #000000; stroke-width: 1.5; stroke-linecap: square"/>
   </g>
  </g>
 </g>
 <defs>
  <clipPath id="p5fb5a623b4">
   <rect x="0" y="0" width="792" height="612"/>
  </clipPath>
 </defs>
</svg>
