<?xml version="1.0" encoding="utf-8" standalone="no"?>
<!DOCTYPE svg PUBLIC "-//W3C//DTD SVG 1.1//EN"
  "http://www.w3.org/Graphics/SVG/1.1/DTD/svg11.dtd">
<svg xmlns:xlink="http://www.w3.org/1999/xlink" width="792pt" height="612pt" viewBox="0 0 792 612" xmlns="http://www.w3.org/2000/svg" version="1.1">
 <metadata>
  <rdf:RDF xmlns:dc="http://purl.org/dc/elements/1.1/" xmlns:cc="http://creativecommons.org/ns#" xmlns:rdf="http://www.w3.org/1999/02/22-rdf-syntax-ns#">
   <cc:Work>
    <dc:type rdf:resource="http://purl.org/dc/dcmitype/StillImage"/>
    <dc:date>2023-01-02T15:38:56.747609</dc:date>
    <dc:format>image/svg+xml</dc:format>
    <dc:creator>
     <cc:Agent>
      <dc:title>Matplotlib v3.6.2, https://matplotlib.org/</dc:title>
     </cc:Agent>
    </dc:creator>
   </cc:Work>
  </rdf:RDF>
 </metadata>
 <defs>
  <style type="text/css">*{stroke-linejoin: round; stroke-linecap: butt}</style>
 </defs>
 <g id="figure_1">
  <g id="patch_1">
   <path d="M 0 612 
L 792 612 
L 792 0 
L 0 0 
z
" style="fill: #ffffff"/>
  </g>
  <g id="axes_1">
   <g id="line2d_1">
    <path d="M 0 306 
L 12.571429 305.297795 
L 25.142857 308.91677 
L 37.714286 312.534929 
L 50.285714 308.808747 
L 62.857143 306.64819 
L 75.428571 305.513857 
L 88 302.435113 
L 100.571429 302.057058 
L 113.142857 310.807018 
L 125.714286 302.165073 
L 138.285714 301.949045 
L 150.857143 308.592701 
L 163.428571 310.753016 
L 176 301.246984 
L 188.571429 297.305783 
L 201.142857 298.547282 
L 213.714286 303.623349 
L 226.285714 305.243779 
L 238.857143 299.35709 
L 251.428571 310.915023 
L 264 307.134328 
L 276.571429 310.482998 
L 289.142857 306.162048 
L 301.714286 303.407299 
L 314.285714 304.757641 
L 326.857143 305.405826 
L 339.428571 310.482998 
L 352 294.607915 
L 364.571429 303.623349 
L 377.142857 309.186822 
L 389.714286 306.540158 
L 402.285714 306.594174 
L 414.857143 304.973702 
L 427.428571 303.677361 
L 440 300.922973 
L 452.571429 304.541582 
L 465.142857 304.487567 
L 477.714286 305.675905 
L 490.285714 305.945984 
L 502.857143 307.188344 
L 515.428571 299.897014 
L 528 305.027717 
L 540.571429 302.975209 
L 553.142857 310.753016 
L 565.714286 306.162048 
L 578.285714 305.459842 
L 590.857143 304.541582 
L 603.428571 309.618896 
L 616 301.517002 
L 628.571429 305.891968 
L 641.142857 306 
L 653.714286 310.753016 
L 666.285714 307.944546 
L 678.857143 305.513857 
L 691.428571 306.270079 
L 704 300.544973 
L 716.571429 308.484676 
L 729.142857 303.407299 
L 741.714286 303.893414 
L 754.285714 309.45687 
L 766.857143 303.947427 
L 779.428571 307.836518 
" clip-path="url(#pa80e0dc2a8)" style="fill: none; stroke: #000000; stroke-width: 1.5; stroke-linecap: square"/>
   </g>
   <g id="line2d_2">
    <path d="M 0 306 
L 12.571429 306 
L 25.142857 305.531863 
L 37.714286 307.466134 
L 50.285714 310.169768 
L 62.857143 309.467323 
L 75.428571 308.035426 
L 88 306.764727 
L 100.571429 304.59136 
L 113.142857 303.316432 
L 125.714286 307.072688 
L 138.285714 304.605552 
L 150.857143 303.25649 
L 163.428571 305.924166 
L 176 308.346785 
L 188.571429 304.788356 
L 201.142857 301.03627 
L 213.714286 299.784791 
L 226.285714 301.689817 
L 238.857143 303.472749 
L 251.428571 301.409629 
L 264 306.16692 
L 276.571429 306.64353 
L 289.142857 308.581475 
L 301.714286 307.389152 
L 314.285714 305.407732 
L 326.857143 305.08491 
L 339.428571 305.245686 
L 352 307.886296 
L 364.571429 301.212888 
L 377.142857 302.41118 
L 389.714286 305.796434 
L 402.285714 306.169038 
L 414.857143 306.387855 
L 427.428571 305.6812 
L 440 304.675878 
L 452.571429 302.78056 
L 465.142857 303.680539 
L 477.714286 304.085744 
L 490.285714 304.873933 
L 502.857143 305.408792 
L 515.428571 306.299735 
L 528 303.088102 
L 540.571429 304.060538 
L 553.142857 303.52189 
L 565.714286 307.149792 
L 578.285714 306.659205 
L 590.857143 306.0591 
L 603.428571 305.297583 
L 616 307.463078 
L 628.571429 304.493075 
L 641.142857 305.194212 
L 653.714286 305.603036 
L 666.285714 308.17818 
L 678.857143 308.064858 
L 691.428571 306.789478 
L 704 306.533168 
L 716.571429 303.521043 
L 729.142857 306.016523 
L 741.714286 304.707016 
L 754.285714 304.296081 
L 766.857143 306.873996 
L 779.428571 305.40286 
" clip-path="url(#pa80e0dc2a8)" style="fill: none; stroke: #000000; stroke-width: 1.5; stroke-linecap: square"/>
   </g>
   <g id="line2d_3">
    <path d="M 0 306 
L 12.571429 306 
L 25.142857 305.588657 
L 37.714286 307.0966 
L 50.285714 309.220671 
L 62.857143 309.074115 
L 75.428571 308.2621 
L 88 307.379131 
L 100.571429 305.83448 
L 113.142857 304.676884 
L 125.714286 306.53039 
L 138.285714 305.222869 
L 150.857143 304.248716 
L 163.428571 305.535259 
L 176 307.075646 
L 188.571429 305.358879 
L 201.142857 302.99034 
L 213.714286 301.680223 
L 226.285714 302.247399 
L 238.857143 303.120751 
L 251.428571 302.003123 
L 264 304.615751 
L 276.571429 305.353979 
L 289.142857 306.862033 
L 301.714286 306.661293 
L 314.285714 305.709754 
L 326.857143 305.423937 
L 339.428571 305.422355 
L 352 306.914476 
L 364.571429 303.292429 
L 377.142857 303.381163 
L 389.714286 305.090713 
L 402.285714 305.525854 
L 414.857143 305.848002 
L 427.428571 305.593475 
L 440 305.030449 
L 452.571429 303.829094 
L 465.142857 304.030454 
L 477.714286 304.161299 
L 490.285714 304.599389 
L 502.857143 304.993546 
L 515.428571 305.64073 
L 528 303.952644 
L 540.571429 304.267087 
L 553.142857 303.880073 
L 565.714286 305.91175 
L 578.285714 305.987976 
L 590.857143 305.829008 
L 603.428571 305.449632 
L 616 306.674303 
L 628.571429 305.159703 
L 641.142857 305.376722 
L 653.714286 305.565107 
L 666.285714 307.091853 
L 678.857143 307.345574 
L 691.428571 306.808894 
L 704 306.651452 
L 716.571429 304.855111 
L 729.142857 305.928063 
L 741.714286 305.187871 
L 754.285714 304.809783 
L 766.857143 306.169433 
L 779.428571 305.51607 
" clip-path="url(#pa80e0dc2a8)" style="fill: none; stroke: #000000; stroke-width: 1.5; stroke-linecap: square"/>
   </g>
   <g id="line2d_4">
    <path d="M 0 306 
L 12.571429 306 
L 25.142857 305.618552 
L 37.714286 306.913016 
L 50.285714 308.702197 
L 62.857143 308.731448 
L 75.428571 308.218732 
L 88 307.606315 
L 100.571429 306.509283 
L 113.142857 305.612321 
L 125.714286 306.61637 
L 138.285714 305.784457 
L 150.857143 305.087013 
L 163.428571 305.710304 
L 176 306.590474 
L 188.571429 305.671978 
L 201.142857 304.251769 
L 213.714286 303.293626 
L 226.285714 303.348511 
L 238.857143 303.661683 
L 251.428571 302.954605 
L 264 304.25532 
L 276.571429 304.723724 
L 289.142857 305.65744 
L 301.714286 305.738999 
L 314.285714 305.363069 
L 326.857143 305.265667 
L 339.428571 305.288176 
L 352 306.121249 
L 364.571429 304.276497 
L 377.142857 304.172 
L 389.714286 304.973604 
L 402.285714 305.223825 
L 414.857143 305.442222 
L 427.428571 305.367476 
L 440 305.095299 
L 452.571429 304.424158 
L 465.142857 304.440178 
L 477.714286 304.44637 
L 490.285714 304.642092 
L 502.857143 304.851735 
L 515.428571 305.226697 
L 528 304.371803 
L 540.571429 304.477947 
L 553.142857 304.239489 
L 565.714286 305.277209 
L 578.285714 305.415124 
L 590.857143 305.424868 
L 603.428571 305.288849 
L 616 305.98471 
L 628.571429 305.272517 
L 641.142857 305.371478 
L 653.714286 305.475624 
L 666.285714 306.315235 
L 678.857143 306.574973 
L 691.428571 306.403045 
L 704 306.381958 
L 716.571429 305.451395 
L 729.142857 305.936335 
L 741.714286 305.5327 
L 754.285714 305.267767 
L 766.857143 305.943559 
L 779.428571 305.626165 
" clip-path="url(#pa80e0dc2a8)" style="fill: none; stroke: #000000; stroke-width: 1.5; stroke-linecap: square"/>
   </g>
   <g id="line2d_5">
    <path d="M 0 306 
L 12.571429 306 
L 25.142857 305.633696 
L 37.714286 306.824151 
L 50.285714 308.442622 
L 62.857143 308.529052 
L 75.428571 308.143998 
L 88 307.663982 
L 100.571429 306.796017 
L 113.142857 306.06964 
L 125.714286 306.748122 
L 138.285714 306.129044 
L 150.857143 305.592353 
L 163.428571 305.960842 
L 176 306.526892 
L 188.571429 305.924392 
L 201.142857 304.970391 
L 213.714286 304.278592 
L 226.285714 304.209733 
L 238.857143 304.316049 
L 251.428571 303.816012 
L 264 304.519209 
L 276.571429 304.774148 
L 289.142857 305.322766 
L 301.714286 305.402373 
L 314.285714 305.215348 
L 326.857143 305.172898 
L 339.428571 305.194292 
L 352 305.67582 
L 364.571429 304.67574 
L 377.142857 304.581381 
L 389.714286 304.991576 
L 402.285714 305.12867 
L 414.857143 305.257695 
L 427.428571 305.232817 
L 440 305.097181 
L 452.571429 304.734684 
L 465.142857 304.717981 
L 477.714286 304.698119 
L 490.285714 304.782134 
L 502.857143 304.881844 
L 515.428571 305.07892 
L 528 304.637174 
L 540.571429 304.670387 
L 553.142857 304.526511 
L 565.714286 305.053998 
L 578.285714 305.147703 
L 590.857143 305.174058 
L 603.428571 305.120731 
L 616 305.4995 
L 628.571429 305.164543 
L 641.142857 305.225652 
L 653.714286 305.290638 
L 666.285714 305.748664 
L 678.857143 305.932625 
L 691.428571 305.89757 
L 704 305.92873 
L 716.571429 305.478628 
L 729.142857 305.729772 
L 741.714286 305.535843 
L 754.285714 305.398769 
L 766.857143 305.737301 
L 779.428571 305.588053 
" clip-path="url(#pa80e0dc2a8)" style="fill: none; stroke: #000000; stroke-width: 1.5; stroke-linecap: square"/>
   </g>
   <g id="line2d_6">
    <path d="M 0 306 
L 12.571429 306 
L 25.142857 305.641293 
L 37.714286 306.780774 
L 50.285714 308.314319 
L 62.857143 308.421954 
L 75.428571 308.093419 
L 88 307.675347 
L 100.571429 306.916804 
L 113.142857 306.278639 
L 125.714286 306.824757 
L 138.285714 306.30358 
L 150.857143 305.848154 
L 163.428571 306.118384 
L 176 306.550513 
L 188.571429 306.079943 
L 201.142857 305.335754 
L 213.714286 304.783434 
L 226.285714 304.692603 
L 238.857143 304.734262 
L 251.428571 304.340831 
L 264 304.807432 
L 276.571429 304.967986 
L 289.142857 305.338678 
L 301.714286 305.392678 
L 314.285714 305.265416 
L 326.857143 305.23356 
L 339.428571 305.244152 
L 352 305.560252 
L 364.571429 304.910788 
L 377.142857 304.835745 
L 389.714286 305.085395 
L 402.285714 305.167631 
L 414.857143 305.247148 
L 427.428571 305.232106 
L 440 305.147647 
L 452.571429 304.920836 
L 465.142857 304.900704 
L 477.714286 304.879005 
L 490.285714 304.92044 
L 502.857143 304.973256 
L 515.428571 305.086305 
L 528 304.823694 
L 540.571429 304.833933 
L 553.142857 304.741367 
L 565.714286 305.038559 
L 578.285714 305.093708 
L 590.857143 305.111562 
L 603.428571 305.083944 
L 616 305.302362 
L 628.571429 305.121083 
L 641.142857 305.157796 
L 653.714286 305.197696 
L 666.285714 305.459601 
L 678.857143 305.576194 
L 691.428571 305.573282 
L 704 305.605688 
L 716.571429 305.371265 
L 729.142857 305.514908 
L 741.714286 305.418031 
L 754.285714 305.3482 
L 766.857143 305.535749 
L 779.428571 305.463483 
" clip-path="url(#pa80e0dc2a8)" style="fill: none; stroke: #000000; stroke-width: 1.5; stroke-linecap: square"/>
   </g>
   <g id="line2d_7">
    <path d="M 0 306 
L 12.571429 306 
L 25.142857 305.645094 
L 37.714286 306.759387 
L 50.285714 308.250736 
L 62.857143 308.367226 
L 75.428571 308.064992 
L 88 307.67645 
L 100.571429 306.97054 
L 113.142857 306.376092 
L 125.714286 306.863647 
L 138.285714 306.388741 
L 150.857143 305.973097 
L 163.428571 306.201826 
L 176 306.574668 
L 188.571429 306.163113 
L 201.142857 305.514944 
L 213.714286 305.030166 
L 226.285714 304.936799 
L 238.857143 304.956296 
L 251.428571 304.61498 
L 264 304.984374 
L 276.571429 305.105905 
L 289.142857 305.399567 
L 301.714286 305.43987 
L 314.285714 305.335705 
L 326.857143 305.30694 
L 339.428571 305.311725 
L 352 305.555413 
L 364.571429 305.052242 
L 377.142857 304.988167 
L 389.714286 305.172136 
L 402.285714 305.230764 
L 414.857143 305.287968 
L 427.428571 305.275048 
L 440 305.210629 
L 452.571429 305.040942 
L 465.142857 305.021534 
L 477.714286 305.001136 
L 490.285714 305.026487 
L 502.857143 305.060484 
L 515.428571 305.137953 
L 528 304.949933 
L 540.571429 304.952684 
L 553.142857 304.88372 
L 565.714286 305.085698 
L 578.285714 305.122262 
L 590.857143 305.133587 
L 603.428571 305.113964 
L 616 305.261565 
L 628.571429 305.140246 
L 641.142857 305.164334 
L 653.714286 305.190832 
L 666.285714 305.365414 
L 678.857143 305.445563 
L 691.428571 305.447665 
L 704 305.472744 
L 716.571429 305.32381 
L 729.142857 305.4185 
L 741.714286 305.358759 
L 754.285714 305.315591 
L 766.857143 305.436622 
L 779.428571 305.393437 
" clip-path="url(#pa80e0dc2a8)" style="fill: none; stroke: #000000; stroke-width: 1.5; stroke-linecap: square"/>
   </g>
   <g id="line2d_8">
    <path d="M 0 306 
L 12.571429 306 
L 25.142857 305.646996 
L 37.714286 306.748774 
L 50.285714 308.219111 
L 62.857143 308.339608 
L 75.428571 308.050025 
L 88 307.675847 
L 100.571429 306.995646 
L 113.142857 306.422821 
L 125.714286 306.882954 
L 138.285714 306.430438 
L 150.857143 306.034323 
L 163.428571 306.244167 
L 176 306.589417 
L 188.571429 306.205597 
L 201.142857 305.602883 
L 213.714286 305.150828 
L 226.285714 305.05793 
L 238.857143 305.068694 
L 251.428571 304.752729 
L 264 305.079054 
L 276.571429 305.183479 
L 289.142857 305.442391 
L 301.714286 305.476259 
L 314.285714 305.382299 
L 326.857143 305.354881 
L 339.428571 305.357046 
L 352 305.568142 
L 364.571429 305.129917 
L 377.142857 305.071415 
L 389.714286 305.22686 
L 402.285714 305.27516 
L 414.857143 305.322441 
L 427.428571 305.310246 
L 440 305.254494 
L 452.571429 305.109967 
L 465.142857 305.091423 
L 477.714286 305.072142 
L 490.285714 305.09102 
L 502.857143 305.117215 
L 515.428571 305.179435 
L 528 305.023719 
L 540.571429 305.023835 
L 553.142857 304.965617 
L 565.714286 305.127234 
L 578.285714 305.155643 
L 590.857143 305.163857 
L 603.428571 305.147322 
L 616 305.264294 
L 628.571429 305.16775 
L 641.142857 305.186131 
L 653.714286 305.206491 
L 666.285714 305.343302 
L 678.857143 305.406582 
L 691.428571 305.409157 
L 704 305.42955 
L 716.571429 305.315307 
L 729.142857 305.388503 
L 741.714286 305.343304 
L 754.285714 305.31062 
L 766.857143 305.403 
L 779.428571 305.370939 
" clip-path="url(#pa80e0dc2a8)" style="fill: none; stroke: #000000; stroke-width: 1.5; stroke-linecap: square"/>
   </g>
   <g id="line2d_9">
    <path d="M 0 306 
L 12.571429 306 
L 25.142857 305.647946 
L 37.714286 306.743488 
L 50.285714 308.203343 
L 62.857143 308.325741 
L 75.428571 308.042357 
L 88 307.675257 
L 100.571429 307.007748 
L 113.142857 306.445659 
L 125.714286 306.892538 
L 138.285714 306.451021 
L 150.857143 306.064562 
L 163.428571 306.26542 
L 176 306.597395 
L 188.571429 306.226996 
L 201.142857 305.646337 
L 213.714286 305.210322 
L 226.285714 305.118038 
L 238.857143 305.124984 
L 251.428571 304.821461 
L 264 305.127631 
L 276.571429 305.224123 
L 289.142857 305.466661 
L 301.714286 305.497476 
L 314.285714 305.408321 
L 326.857143 305.381564 
L 339.428571 305.382527 
L 352 305.578327 
L 364.571429 305.170467 
L 377.142857 305.114744 
L 389.714286 305.257053 
L 402.285714 305.300606 
L 414.857143 305.343296 
L 427.428571 305.331426 
L 440 305.279686 
L 452.571429 305.146834 
L 465.142857 305.128831 
L 477.714286 305.11021 
L 490.285714 305.126257 
L 502.857143 305.148988 
L 515.428571 305.204304 
L 528 305.063388 
L 540.571429 305.06246 
L 553.142857 305.009289 
L 565.714286 305.15273 
L 578.285714 305.177451 
L 590.857143 305.184238 
L 603.428571 305.169075 
L 616 305.272192 
L 628.571429 305.186687 
L 641.142857 305.202471 
L 653.714286 305.220021 
L 666.285714 305.339797 
L 678.857143 305.395279 
L 691.428571 305.397765 
L 704 305.415774 
L 716.571429 305.316713 
L 729.142857 305.380188 
L 741.714286 305.341228 
L 754.285714 305.313041 
L 766.857143 305.392596 
L 779.428571 305.365229 
" clip-path="url(#pa80e0dc2a8)" style="fill: none; stroke: #000000; stroke-width: 1.5; stroke-linecap: square"/>
   </g>
  </g>
 </g>
 <defs>
  <clipPath id="pa80e0dc2a8">
   <rect x="0" y="0" width="792" height="612"/>
  </clipPath>
 </defs>
</svg>
