<?xml version="1.0" encoding="utf-8" standalone="no"?>
<!DOCTYPE svg PUBLIC "-//W3C//DTD SVG 1.1//EN"
  "http://www.w3.org/Graphics/SVG/1.1/DTD/svg11.dtd">
<svg xmlns:xlink="http://www.w3.org/1999/xlink" width="792pt" height="612pt" viewBox="0 0 792 612" xmlns="http://www.w3.org/2000/svg" version="1.1">
 <metadata>
  <rdf:RDF xmlns:dc="http://purl.org/dc/elements/1.1/" xmlns:cc="http://creativecommons.org/ns#" xmlns:rdf="http://www.w3.org/1999/02/22-rdf-syntax-ns#">
   <cc:Work>
    <dc:type rdf:resource="http://purl.org/dc/dcmitype/StillImage"/>
    <dc:date>2023-01-16T16:11:10.551435</dc:date>
    <dc:format>image/svg+xml</dc:format>
    <dc:creator>
     <cc:Agent>
      <dc:title>Matplotlib v3.6.2, https://matplotlib.org/</dc:title>
     </cc:Agent>
    </dc:creator>
   </cc:Work>
  </rdf:RDF>
 </metadata>
 <defs>
  <style type="text/css">*{stroke-linejoin: round; stroke-linecap: butt}</style>
 </defs>
 <g id="figure_1">
  <g id="patch_1">
   <path d="M 0 612 
L 792 612 
L 792 0 
L 0 0 
z
" style="fill: #ffffff"/>
  </g>
  <g id="axes_1">
   <g id="line2d_1">
    <path d="M 0 306 
L 12.774194 301.879222 
L 25.548387 308.637392 
L 38.322581 310.834936 
L 51.096774 301.165064 
L 63.870968 297.155992 
L 76.645161 298.418862 
L 89.419355 303.582381 
L 102.193548 305.230743 
L 114.967742 299.242614 
L 127.741935 310.999735 
L 140.516129 307.153882 
L 153.290323 310.560266 
L 166.064516 306.164841 
L 178.83871 303.362608 
L 191.612903 304.736226 
L 204.387097 305.395583 
L 217.16129 310.560266 
L 229.935484 294.411722 
L 242.709677 303.582381 
L 255.483871 309.241753 
L 268.258065 306.54947 
L 281.032258 306.604417 
L 293.806452 304.956011 
L 306.580645 303.637325 
L 319.354839 300.83547 
L 332.129032 304.516442 
L 344.903226 304.461496 
L 357.677419 305.670318 
L 370.451613 305.945053 
L 383.225806 307.208828 
L 396 299.791838 
L 408.774194 305.010957 
L 421.548387 302.92307 
L 434.322581 310.834936 
L 447.096774 306.164841 
L 459.870968 305.45053 
L 472.645161 304.516442 
L 485.419355 309.681273 
L 498.193548 301.439734 
L 510.967742 305.890106 
L 523.741935 306 
L 536.516129 310.834936 
L 549.290323 307.978065 
L 562.064516 305.505477 
L 574.83871 306.274735 
L 587.612903 300.450959 
L 600.387097 308.527506 
L 613.16129 303.362608 
L 625.935484 303.857101 
L 638.709677 309.516455 
L 651.483871 303.912045 
L 664.258065 307.868176 
L 677.032258 309.626334 
L 689.806452 306.164841 
L 702.580645 309.955966 
L 715.354839 299.407377 
L 728.129032 310.340524 
L 740.903226 308.637392 
L 753.677419 306.659363 
L 766.451613 310.39546 
L 779.225806 304.791172 
" clip-path="url(#p8fe480a772)" style="fill: none; stroke: #000000; stroke-width: 1.5; stroke-linecap: square"/>
   </g>
   <g id="line2d_2">
    <path d="M 0 306 
L 12.774194 306 
L 25.548387 303.252722 
L 38.322581 306.329682 
L 51.096774 308.732626 
L 63.870968 304.826621 
L 76.645161 300.929638 
L 89.419355 299.664259 
L 102.193548 301.630823 
L 114.967742 303.429186 
L 127.741935 301.330512 
L 140.516129 306.169797 
L 153.290323 306.654623 
L 166.064516 308.625973 
L 178.83871 307.413098 
L 191.612903 305.397523 
L 204.387097 305.069136 
L 217.16129 305.232683 
L 229.935484 307.918811 
L 242.709677 301.130381 
L 255.483871 302.34932 
L 268.258065 305.792925 
L 281.032258 306.171952 
L 293.806452 306.394541 
L 306.580645 305.675705 
L 319.354839 304.653052 
L 332.129032 302.725067 
L 344.903226 303.640557 
L 357.677419 304.052747 
L 370.451613 304.854521 
L 383.225806 305.3986 
L 396 306.304902 
L 408.774194 303.037909 
L 421.548387 304.027106 
L 434.322581 303.479174 
L 447.096774 307.169612 
L 459.870968 306.670568 
L 472.645161 306.060119 
L 485.419355 305.285474 
L 498.193548 307.488299 
L 510.967742 304.467098 
L 523.741935 305.180322 
L 536.516129 305.596193 
L 549.290323 308.215727 
L 562.064516 308.100452 
L 574.83871 306.803087 
L 587.612903 306.542359 
L 600.387097 303.478312 
L 613.16129 306.016807 
L 625.935484 304.684727 
L 638.709677 304.266709 
L 651.483871 306.889062 
L 664.258065 305.392567 
L 677.032258 306.635014 
L 689.806452 308.137297 
L 702.580645 307.162286 
L 715.354839 308.56198 
L 728.129032 303.976471 
L 740.903226 307.171336 
L 753.677419 307.902651 
L 766.451613 307.286399 
L 779.225806 308.845959 
" clip-path="url(#p8fe480a772)" style="fill: none; stroke: #000000; stroke-width: 1.5; stroke-linecap: square"/>
   </g>
   <g id="line2d_3">
    <path d="M 0 306 
L 12.774194 306 
L 25.548387 303.586008 
L 38.322581 305.874701 
L 51.096774 307.811929 
L 63.870968 305.446923 
L 76.645161 302.670964 
L 89.419355 301.30458 
L 102.193548 302.016165 
L 114.967742 303.001167 
L 127.741935 301.864653 
L 140.516129 304.600682 
L 153.290323 305.360363 
L 166.064516 306.900491 
L 178.83871 306.683328 
L 191.612903 305.705291 
L 204.387097 305.420343 
L 217.16129 305.412397 
L 229.935484 306.93024 
L 242.709677 303.245757 
L 255.483871 303.336021 
L 268.258065 305.075038 
L 281.032258 305.51768 
L 293.806452 305.845382 
L 306.580645 305.586468 
L 319.354839 305.013736 
L 332.129032 303.791673 
L 344.903226 303.996504 
L 357.677419 304.129604 
L 370.451613 304.575245 
L 383.225806 304.976197 
L 396 305.634537 
L 408.774194 303.917352 
L 421.548387 304.237215 
L 434.322581 303.84353 
L 447.096774 305.910229 
L 459.870968 305.987769 
L 472.645161 305.826061 
L 485.419355 305.440144 
L 498.193548 306.685927 
L 510.967742 305.145218 
L 523.741935 305.365977 
L 536.516129 305.55761 
L 549.290323 307.110674 
L 562.064516 307.368769 
L 574.83871 306.822838 
L 587.612903 306.662682 
L 600.387097 304.835375 
L 613.16129 305.926823 
L 625.935484 305.173871 
L 638.709677 304.789266 
L 651.483871 306.172354 
L 664.258065 305.507728 
L 677.032258 306.201871 
L 689.806452 307.210786 
L 702.580645 306.900398 
L 715.354839 307.805181 
L 728.129032 305.337791 
L 740.903226 306.808126 
L 753.677419 307.341393 
L 766.451613 307.140118 
L 779.225806 308.099262 
" clip-path="url(#p8fe480a772)" style="fill: none; stroke: #000000; stroke-width: 1.5; stroke-linecap: square"/>
   </g>
   <g id="line2d_4">
    <path d="M 0 306 
L 12.774194 306 
L 25.548387 303.761442 
L 38.322581 305.675079 
L 51.096774 307.317102 
L 63.870968 305.628087 
L 76.645161 303.54238 
L 89.419355 302.382099 
L 102.193548 302.636716 
L 114.967742 303.159267 
L 127.741935 302.402187 
L 140.516129 304.008908 
L 153.290323 304.580755 
L 166.064516 305.643914 
L 178.83871 305.734831 
L 191.612903 305.327087 
L 204.387097 305.226811 
L 217.16129 305.255153 
L 229.935484 306.138298 
L 242.709677 304.19965 
L 255.483871 304.098271 
L 268.258065 304.938706 
L 281.032258 305.200773 
L 293.806452 305.428326 
L 306.580645 305.351986 
L 319.354839 305.075539 
L 332.129032 304.393326 
L 344.903226 304.413098 
L 357.677419 304.420859 
L 370.451613 304.620964 
L 383.225806 304.8328 
L 396 305.212597 
L 408.774194 304.346631 
L 421.548387 304.451709 
L 434.322581 304.209142 
L 447.096774 305.264749 
L 459.870968 305.405042 
L 472.645161 305.414954 
L 485.419355 305.27659 
L 498.193548 305.984446 
L 510.967742 305.259977 
L 523.741935 305.360644 
L 536.516129 305.466584 
L 549.290323 306.320669 
L 562.064516 306.584885 
L 574.83871 306.409993 
L 587.612903 306.388542 
L 600.387097 305.441938 
L 613.16129 305.935237 
L 625.935484 305.524644 
L 638.709677 305.255145 
L 651.483871 305.942586 
L 664.258065 305.61972 
L 677.032258 305.976604 
L 689.806452 306.559236 
L 702.580645 306.496212 
L 715.354839 307.049822 
L 728.129032 305.831083 
L 740.903226 306.554528 
L 753.677419 306.888499 
L 766.451613 306.853414 
L 779.225806 307.419954 
" clip-path="url(#p8fe480a772)" style="fill: none; stroke: #000000; stroke-width: 1.5; stroke-linecap: square"/>
   </g>
   <g id="line2d_5">
    <path d="M 0 306 
L 12.774194 306 
L 25.548387 303.850313 
L 38.322581 305.586084 
L 51.096774 307.073539 
L 63.870968 305.67866 
L 76.645161 303.933359 
L 89.419355 302.9267 
L 102.193548 303.035536 
L 114.967742 303.371984 
L 127.741935 302.780534 
L 140.516129 303.890727 
L 153.290323 304.309665 
L 166.064516 305.077351 
L 178.83871 305.205794 
L 191.612903 304.995474 
L 204.387097 304.966785 
L 217.16129 305.012959 
L 229.935484 305.595947 
L 242.709677 304.445467 
L 255.483871 304.35845 
L 268.258065 304.842159 
L 281.032258 305.008599 
L 293.806452 305.161948 
L 306.580645 305.142415 
L 319.354839 305.001323 
L 332.129032 304.614924 
L 344.903226 304.605878 
L 357.677419 304.592733 
L 370.451613 304.690056 
L 383.225806 304.802578 
L 396 305.016892 
L 408.774194 304.554255 
L 421.548387 304.594464 
L 434.322581 304.448045 
L 447.096774 305.004998 
L 459.870968 305.105711 
L 472.645161 305.135538 
L 485.419355 305.082172 
L 498.193548 305.477359 
L 510.967742 305.131416 
L 523.741935 305.196241 
L 536.516129 305.26475 
L 549.290323 305.738501 
L 562.064516 305.928578 
L 574.83871 305.892736 
L 587.612903 305.925041 
L 600.387097 305.462788 
L 613.16129 305.721189 
L 625.935484 305.522586 
L 638.709677 305.382514 
L 651.483871 305.729811 
L 664.258065 305.577256 
L 677.032258 305.769341 
L 689.806452 306.092472 
L 702.580645 306.09853 
L 715.354839 306.42122 
L 728.129032 305.834814 
L 740.903226 306.211267 
L 753.677419 306.413851 
L 766.451613 306.434341 
L 779.225806 306.764796 
" clip-path="url(#p8fe480a772)" style="fill: none; stroke: #000000; stroke-width: 1.5; stroke-linecap: square"/>
   </g>
   <g id="line2d_6">
    <path d="M 0 306 
L 12.774194 306 
L 25.548387 303.894894 
L 38.322581 305.544685 
L 51.096774 306.954495 
L 63.870968 305.694093 
L 76.645161 304.112201 
L 89.419355 303.18926 
L 102.193548 303.246165 
L 114.967742 303.506752 
L 127.741935 302.99246 
L 140.516129 303.88802 
L 153.290323 304.229557 
L 166.064516 304.852889 
L 178.83871 304.975204 
L 191.612903 304.832128 
L 204.387097 304.823996 
L 217.16129 304.870492 
L 229.935484 305.315997 
L 242.709677 304.491422 
L 255.483871 304.424921 
L 268.258065 304.766781 
L 281.032258 304.889784 
L 293.806452 305.005027 
L 306.580645 305.001812 
L 319.354839 304.914349 
L 332.129032 304.658428 
L 344.903226 304.649698 
L 357.677419 304.638343 
L 370.451613 304.699509 
L 383.225806 304.772107 
L 396 304.911915 
L 408.774194 304.622439 
L 421.548387 304.644095 
L 434.322581 304.549423 
L 447.096774 304.890882 
L 459.870968 304.95927 
L 472.645161 304.985348 
L 485.419355 304.96072 
L 498.193548 305.206173 
L 510.967742 305.012183 
L 523.741935 305.056988 
L 536.516129 305.104704 
L 549.290323 305.392308 
L 562.064516 305.521078 
L 574.83871 305.520307 
L 587.612903 305.55734 
L 600.387097 305.308315 
L 613.16129 305.464298 
L 625.935484 305.363074 
L 638.709677 305.290959 
L 651.483871 305.492201 
L 664.258065 305.417338 
L 677.032258 305.532875 
L 689.806452 305.724945 
L 702.580645 305.745491 
L 715.354839 305.94132 
L 728.129032 305.63864 
L 740.903226 305.85558 
L 753.677419 305.983447 
L 766.451613 306.014405 
L 779.225806 306.214394 
" clip-path="url(#p8fe480a772)" style="fill: none; stroke: #000000; stroke-width: 1.5; stroke-linecap: square"/>
   </g>
   <g id="line2d_7">
    <path d="M 0 306 
L 12.774194 306 
L 25.548387 303.917203 
L 38.322581 305.524802 
L 51.096774 306.895876 
L 63.870968 305.699448 
L 76.645161 304.196921 
L 89.419355 303.316705 
L 102.193548 303.352485 
L 114.967742 303.579706 
L 127.741935 303.102437 
L 140.516129 303.900622 
L 153.290323 304.205167 
L 166.064516 304.760061 
L 178.83871 304.875133 
L 191.612903 304.758298 
L 204.387097 304.756683 
L 217.16129 304.801126 
L 229.935484 305.183359 
L 242.709677 304.498884 
L 255.483871 304.443024 
L 268.258065 304.724378 
L 281.032258 304.827545 
L 293.806452 304.92458 
L 306.580645 304.926241 
L 319.354839 304.860188 
L 332.129032 304.659888 
L 344.903226 304.652946 
L 357.677419 304.643925 
L 370.451613 304.691077 
L 383.225806 304.747306 
L 396 304.855158 
L 408.774194 304.638132 
L 421.548387 304.653774 
L 434.322581 304.582618 
L 447.096774 304.834718 
L 459.870968 304.887353 
L 472.645161 304.909241 
L 485.419355 304.894236 
L 498.193548 305.074091 
L 510.967742 304.939705 
L 523.741935 304.974307 
L 536.516129 305.011098 
L 549.290323 305.217038 
L 562.064516 305.313325 
L 574.83871 305.319937 
L 587.612903 305.352371 
L 600.387097 305.187914 
L 613.16129 305.298614 
L 625.935484 305.235182 
L 638.709677 305.190537 
L 651.483871 305.329164 
L 664.258065 305.284229 
L 677.032258 305.365327 
L 689.806452 305.497747 
L 702.580645 305.518279 
L 715.354839 305.653608 
L 728.129032 305.464817 
L 740.903226 305.610884 
L 753.677419 305.700783 
L 766.451613 305.729022 
L 779.225806 305.865406 
" clip-path="url(#p8fe480a772)" style="fill: none; stroke: #000000; stroke-width: 1.5; stroke-linecap: square"/>
   </g>
   <g id="line2d_8">
    <path d="M 0 306 
L 12.774194 306 
L 25.548387 303.92836 
L 38.322581 305.515069 
L 51.096774 306.866819 
L 63.870968 305.701554 
L 76.645161 304.238051 
L 89.419355 303.379305 
L 102.193548 303.405662 
L 114.967742 303.617337 
L 127.741935 303.158161 
L 140.516129 303.910259 
L 153.290323 304.196943 
L 166.064516 304.718881 
L 178.83871 304.82959 
L 191.612903 304.724201 
L 204.387097 304.725015 
L 217.16129 304.76797 
L 229.935484 305.120255 
L 242.709677 304.499725 
L 255.483871 304.448985 
L 268.258065 304.702774 
L 281.032258 304.796601 
L 293.806452 304.884918 
L 306.580645 304.888263 
L 319.354839 304.831453 
L 332.129032 304.656042 
L 344.903226 304.650111 
L 357.677419 304.642344 
L 370.451613 304.683425 
L 383.225806 304.732415 
L 396 304.82595 
L 408.774194 304.640778 
L 421.548387 304.654047 
L 434.322581 304.593515 
L 447.096774 304.806624 
L 459.870968 304.851938 
L 472.645161 304.871467 
L 485.419355 304.860132 
L 498.193548 305.010877 
L 510.967742 304.901453 
L 523.741935 304.931154 
L 536.516129 304.962656 
L 549.290323 305.132568 
L 562.064516 305.213429 
L 574.83871 305.221584 
L 587.612903 305.250496 
L 600.387097 305.12088 
L 613.16129 305.2114 
L 625.935484 305.163037 
L 638.709677 305.129394 
L 651.483871 305.240746 
L 664.258065 305.207507 
L 677.032258 305.273132 
L 689.806452 305.379034 
L 702.580645 305.397894 
L 715.354839 305.50587 
L 728.129032 305.363228 
L 740.903226 305.478183 
L 753.677419 305.550257 
L 766.451613 305.575258 
L 779.225806 305.682658 
" clip-path="url(#p8fe480a772)" style="fill: none; stroke: #000000; stroke-width: 1.5; stroke-linecap: square"/>
   </g>
   <g id="line2d_9">
    <path d="M 0 306 
L 12.774194 306 
L 25.548387 303.933939 
L 38.322581 305.510256 
L 51.096774 306.852357 
L 63.870968 305.702466 
L 76.645161 304.258303 
L 89.419355 303.410305 
L 102.193548 303.432224 
L 114.967742 303.636409 
L 127.741935 303.18617 
L 140.516129 303.915884 
L 153.290323 304.193818 
L 166.064516 304.69963 
L 178.83871 304.80801 
L 191.612903 304.707952 
L 204.387097 304.709792 
L 217.16129 304.751904 
L 229.935484 305.089673 
L 242.709677 304.49957 
L 255.483871 304.451312 
L 268.258065 304.691994 
L 281.032258 304.781311 
L 293.806452 304.865386 
L 306.580645 304.869402 
L 319.354839 304.816849 
L 332.129032 304.653113 
L 344.903226 304.647686 
L 357.677419 304.640539 
L 370.451613 304.678806 
L 383.225806 304.724411 
L 396 304.811233 
L 408.774194 304.64083 
L 421.548387 304.653044 
L 434.322581 304.597484 
L 447.096774 304.792599 
L 459.870968 304.834439 
L 472.645161 304.852764 
L 485.419355 304.842998 
L 498.193548 304.980249 
L 510.967742 304.882062 
L 523.741935 304.909404 
L 536.516129 304.938357 
L 549.290323 305.091665 
L 562.064516 305.165191 
L 574.83871 305.173689 
L 587.612903 305.200656 
L 600.387097 305.086489 
L 613.16129 305.167678 
L 625.935484 305.125849 
L 638.709677 305.096961 
L 651.483871 305.195869 
L 664.258065 305.167617 
L 677.032258 305.226074 
L 689.806452 305.319804 
L 702.580645 305.337521 
L 715.354839 305.432875 
L 728.129032 305.310324 
L 740.903226 305.411116 
L 753.677419 305.474827 
L 766.451613 305.497887 
L 779.225806 305.591915 
" clip-path="url(#p8fe480a772)" style="fill: none; stroke: #000000; stroke-width: 1.5; stroke-linecap: square"/>
   </g>
  </g>
 </g>
 <defs>
  <clipPath id="p8fe480a772">
   <rect x="0" y="0" width="792" height="612"/>
  </clipPath>
 </defs>
</svg>
