<?xml version="1.0" encoding="utf-8" standalone="no"?>
<!DOCTYPE svg PUBLIC "-//W3C//DTD SVG 1.1//EN"
  "http://www.w3.org/Graphics/SVG/1.1/DTD/svg11.dtd">
<svg xmlns:xlink="http://www.w3.org/1999/xlink" width="792pt" height="612pt" viewBox="0 0 792 612" xmlns="http://www.w3.org/2000/svg" version="1.1">
 <metadata>
  <rdf:RDF xmlns:dc="http://purl.org/dc/elements/1.1/" xmlns:cc="http://creativecommons.org/ns#" xmlns:rdf="http://www.w3.org/1999/02/22-rdf-syntax-ns#">
   <cc:Work>
    <dc:type rdf:resource="http://purl.org/dc/dcmitype/StillImage"/>
    <dc:date>2022-12-26T20:26:47.137711</dc:date>
    <dc:format>image/svg+xml</dc:format>
    <dc:creator>
     <cc:Agent>
      <dc:title>Matplotlib v3.6.2, https://matplotlib.org/</dc:title>
     </cc:Agent>
    </dc:creator>
   </cc:Work>
  </rdf:RDF>
 </metadata>
 <defs>
  <style type="text/css">*{stroke-linejoin: round; stroke-linecap: butt}</style>
 </defs>
 <g id="figure_1">
  <g id="patch_1">
   <path d="M 0 612 
L 792 612 
L 792 0 
L 0 0 
z
" style="fill: #ffffff"/>
  </g>
  <g id="axes_1">
   <g id="line2d_1">
    <path d="M 0 459 
L 12.375 462.939347 
L 24.75 461.353033 
L 37.125 462.437014 
L 49.5 463.891135 
L 61.875 462.225505 
L 74.25 461.881804 
L 86.625 463.309487 
L 99 466.508554 
L 111.375 467.883359 
L 123.75 468.200622 
L 136.125 467.962675 
L 148.5 466.217729 
L 160.875 464.287714 
L 173.25 466.640747 
L 185.625 464.763608 
L 198 462.780715 
L 210.375 464.049767 
L 222.75 466.376361 
L 235.125 464.049767 
L 247.5 459.793157 
L 259.875 450.434898 
L 272.25 446.946784 
L 284.625 445.837203 
L 297 436.096797 
L 309.375 443.301615 
L 321.75 444.965496 
L 334.125 451.544979 
L 346.5 451.782865 
L 358.875 447.977236 
L 371.25 446.154211 
L 383.625 445.282469 
L 396 451.862162 
L 408.375 435.147478 
L 420.75 431.668453 
L 433.125 436.334158 
L 445.5 437.125448 
L 457.875 437.996017 
L 470.25 436.492405 
L 482.625 433.091333 
L 495 425.666871 
L 507.375 423.537378 
L 519.75 421.330637 
L 532.125 420.857988 
L 544.5 420.779221 
L 556.875 422.512608 
L 569.25 413.621501 
L 581.625 412.208212 
L 594 407.81716 
L 606.375 414.721328 
L 618.75 414.957073 
L 631.125 414.17135 
L 643.5 412.051234 
L 655.875 417.315788 
L 668.25 410.795818 
L 680.625 410.638942 
L 693 410.638942 
L 705.375 417.551784 
L 717.75 420.385421 
L 730.125 419.676725 
L 742.5 420.070422 
L 754.875 412.129722 
L 767.25 415.743057 
L 779.625 411.97275 
" clip-path="url(#pbd863d34b6)" style="fill: none; stroke: #000000; stroke-width: 1.5; stroke-linecap: square"/>
   </g>
   <g id="line2d_2">
    <path d="M 0 459 
L 12.375 459 
L 24.75 461.626231 
L 37.125 461.470118 
L 49.5 461.985796 
L 61.875 462.969197 
L 74.25 462.591449 
L 86.625 462.233833 
L 99 462.773769 
L 111.375 464.655884 
L 123.75 466.279316 
L 136.125 467.253396 
L 148.5 467.61887 
L 160.875 466.922862 
L 173.25 465.609331 
L 185.625 466.13437 
L 198 465.45184 
L 210.375 464.108968 
L 222.75 464.071851 
L 235.125 465.220529 
L 247.5 464.627475 
L 259.875 462.197719 
L 272.25 459.15521 
L 284.625 453.136555 
L 297 449.426583 
L 309.375 442.691161 
L 321.75 442.935957 
L 334.125 443.879812 
L 346.5 447.667311 
L 358.875 449.706092 
L 371.25 448.836809 
L 383.625 447.493857 
L 396 446.387002 
L 408.375 449.155165 
L 420.75 442.131395 
L 433.125 436.870979 
L 445.5 436.572772 
L 457.875 436.820398 
L 470.25 437.388619 
L 482.625 436.921562 
L 495 434.982143 
L 507.375 430.270267 
L 519.75 426.879337 
L 532.125 424.083449 
L 544.5 422.439976 
L 556.875 421.577497 
L 569.25 422.014729 
L 581.625 417.769907 
L 594 414.946595 
L 606.375 411.344051 
L 618.75 413.014818 
L 631.125 413.973266 
L 643.5 414.059213 
L 655.875 413.037912 
L 668.25 415.165719 
L 680.625 412.974173 
L 693 411.803171 
L 705.375 411.226517 
L 717.75 414.392558 
L 730.125 417.397844 
L 742.5 418.547835 
L 754.875 419.324763 
L 767.25 415.714387 
L 779.625 415.738433 
" clip-path="url(#pbd863d34b6)" style="fill: none; stroke: #000000; stroke-width: 1.5; stroke-linecap: square"/>
   </g>
   <g id="line2d_3">
    <path d="M 0 459 
L 12.375 459 
L 24.75 461.307616 
L 37.125 461.328193 
L 49.5 461.761215 
L 61.875 462.519016 
L 74.25 462.420767 
L 86.625 462.247603 
L 99 462.579356 
L 111.375 463.783403 
L 123.75 465.02299 
L 136.125 465.974727 
L 148.5 466.566226 
L 160.875 466.463013 
L 173.25 465.820866 
L 185.625 466.062337 
L 198 465.680457 
L 210.375 464.835485 
L 222.75 464.606629 
L 235.125 465.130741 
L 247.5 464.815983 
L 259.875 463.340125 
L 272.25 461.22563 
L 284.625 459.388793 
L 297 455.938476 
L 309.375 450.0703 
L 321.75 448.038644 
L 334.125 447.090629 
L 346.5 448.355657 
L 358.875 449.326211 
L 371.25 448.900218 
L 383.625 448.054784 
L 396 447.207102 
L 408.375 448.549113 
L 420.75 444.576217 
L 433.125 440.735581 
L 445.5 439.402673 
L 457.875 438.707761 
L 470.25 438.485011 
L 482.625 437.889307 
L 495 436.468855 
L 507.375 433.289908 
L 519.75 430.407961 
L 532.125 427.719514 
L 544.5 425.673064 
L 556.875 424.203344 
L 569.25 423.678877 
L 581.625 420.691892 
L 594 418.166214 
L 606.375 415.079857 
L 618.75 414.951462 
L 631.125 414.93397 
L 643.5 414.685217 
L 655.875 413.884737 
L 668.25 414.865511 
L 680.625 413.643361 
L 693 412.737269 
L 705.375 412.105258 
L 717.75 413.692341 
L 730.125 415.649732 
L 742.5 416.827187 
L 754.875 417.77587 
L 767.25 416.10885 
L 779.625 416.004144 
" clip-path="url(#pbd863d34b6)" style="fill: none; stroke: #000000; stroke-width: 1.5; stroke-linecap: square"/>
   </g>
   <g id="line2d_4">
    <path d="M 0 459 
L 12.375 459 
L 24.75 461.139907 
L 37.125 461.223551 
L 49.5 461.609684 
L 61.875 462.236008 
L 74.25 462.233423 
L 86.625 462.15381 
L 99 462.398973 
L 111.375 463.226865 
L 123.75 464.126821 
L 136.125 464.88815 
L 148.5 465.447199 
L 160.875 465.584193 
L 173.25 465.357918 
L 185.625 465.578409 
L 198 465.440129 
L 210.375 464.993535 
L 222.75 464.836435 
L 235.125 465.0909 
L 247.5 464.919908 
L 259.875 464.082211 
L 272.25 462.790777 
L 284.625 461.524742 
L 297 460.407313 
L 309.375 458.845703 
L 321.75 456.343998 
L 334.125 454.516075 
L 346.5 454.039609 
L 358.875 453.67816 
L 371.25 452.765928 
L 383.625 451.708825 
L 396 450.682102 
L 408.375 450.865394 
L 420.75 448.340127 
L 433.125 445.663119 
L 445.5 444.157344 
L 457.875 443.015206 
L 470.25 442.197221 
L 482.625 441.269751 
L 495 439.943439 
L 507.375 437.633979 
L 519.75 435.349065 
L 532.125 433.074389 
L 544.5 431.087316 
L 556.875 429.407839 
L 569.25 428.277239 
L 581.625 425.897971 
L 594 423.675426 
L 606.375 421.106754 
L 618.75 420.052858 
L 631.125 419.200359 
L 643.5 418.362331 
L 655.875 417.326487 
L 668.25 417.30422 
L 680.625 416.24504 
L 693 415.330312 
L 705.375 414.567421 
L 717.75 415.026012 
L 730.125 415.862688 
L 742.5 416.449355 
L 754.875 417.005456 
L 767.25 416.206768 
L 779.625 416.114097 
" clip-path="url(#pbd863d34b6)" style="fill: none; stroke: #000000; stroke-width: 1.5; stroke-linecap: square"/>
   </g>
   <g id="line2d_5">
    <path d="M 0 459 
L 12.375 459 
L 24.75 461.05495 
L 37.125 461.163033 
L 49.5 461.524036 
L 61.875 462.082826 
L 74.25 462.112037 
L 86.625 462.070017 
L 99 462.275759 
L 111.375 462.924524 
L 123.75 463.634664 
L 136.125 464.251407 
L 148.5 464.727889 
L 160.875 464.910861 
L 173.25 464.837261 
L 185.625 465.043046 
L 198 465.012123 
L 210.375 464.77184 
L 222.75 464.695959 
L 235.125 464.868732 
L 247.5 464.786165 
L 259.875 464.291593 
L 272.25 463.497366 
L 284.625 462.679018 
L 297 461.913765 
L 309.375 460.924374 
L 321.75 460.260396 
L 334.125 459.71481 
L 346.5 459.423469 
L 358.875 459.16793 
L 371.25 458.47013 
L 383.625 457.372902 
L 396 456.302211 
L 408.375 455.911269 
L 420.75 454.090624 
L 433.125 452.132965 
L 445.5 450.759915 
L 457.875 449.579593 
L 470.25 448.580412 
L 482.625 447.540953 
L 495 446.301709 
L 507.375 444.53538 
L 519.75 442.741984 
L 532.125 440.916967 
L 544.5 439.210758 
L 556.875 437.646052 
L 569.25 436.363989 
L 581.625 434.437838 
L 594 432.557636 
L 606.375 430.466429 
L 618.75 429.139126 
L 631.125 427.94513 
L 643.5 426.786676 
L 655.875 425.54818 
L 668.25 424.857611 
L 680.625 423.677662 
L 693 422.584481 
L 705.375 421.583762 
L 717.75 421.24668 
L 730.125 421.174755 
L 742.5 421.049703 
L 754.875 420.967999 
L 767.25 420.229855 
L 779.625 419.855579 
" clip-path="url(#pbd863d34b6)" style="fill: none; stroke: #000000; stroke-width: 1.5; stroke-linecap: square"/>
   </g>
   <g id="line2d_6">
    <path d="M 0 459 
L 12.375 459 
L 24.75 461.012332 
L 37.125 461.130852 
L 49.5 461.478909 
L 61.875 462.004033 
L 74.25 462.045055 
L 86.625 462.018596 
L 99 462.205454 
L 111.375 462.770499 
L 123.75 463.387054 
L 136.125 463.925421 
L 148.5 464.347641 
L 160.875 464.531767 
L 173.25 464.509013 
L 185.625 464.698144 
L 198 464.703695 
L 210.375 464.547271 
L 222.75 464.508318 
L 235.125 464.649509 
L 247.5 464.605635 
L 259.875 464.264087 
L 272.25 463.703846 
L 284.625 463.117591 
L 297 462.559706 
L 309.375 461.84178 
L 321.75 461.335081 
L 334.125 460.903775 
L 346.5 460.638968 
L 358.875 460.399224 
L 371.25 460.103463 
L 383.625 459.794408 
L 396 459.490945 
L 408.375 459.330944 
L 420.75 458.624978 
L 433.125 457.158893 
L 445.5 456.040021 
L 457.875 455.03516 
L 470.25 454.139554 
L 482.625 453.22118 
L 495 452.183267 
L 507.375 450.827358 
L 519.75 449.443488 
L 532.125 448.029093 
L 544.5 446.672576 
L 556.875 445.389364 
L 569.25 444.263872 
L 581.625 442.7644 
L 594 441.278311 
L 606.375 439.659541 
L 618.75 438.461559 
L 631.125 437.338734 
L 643.5 436.237699 
L 655.875 435.093584 
L 668.25 434.257433 
L 680.625 433.157727 
L 693 432.10681 
L 705.375 431.109132 
L 717.75 430.482388 
L 730.125 430.017604 
L 742.5 429.543255 
L 754.875 429.110251 
L 767.25 428.335531 
L 779.625 427.763223 
" clip-path="url(#pbd863d34b6)" style="fill: none; stroke: #000000; stroke-width: 1.5; stroke-linecap: square"/>
   </g>
   <g id="line2d_7">
    <path d="M 0 459 
L 12.375 459 
L 24.75 460.991005 
L 37.125 461.114304 
L 49.5 461.455802 
L 61.875 461.964194 
L 74.25 462.010138 
L 86.625 461.990592 
L 99 462.16822 
L 111.375 462.693306 
L 123.75 463.264342 
L 136.125 463.763255 
L 148.5 464.156383 
L 160.875 464.336364 
L 173.25 464.332379 
L 185.625 464.510684 
L 198 464.529188 
L 210.375 464.407562 
L 222.75 464.383816 
L 235.125 464.510368 
L 247.5 464.482295 
L 259.875 464.207369 
L 272.25 463.751603 
L 284.625 463.272653 
L 297 462.814836 
L 309.375 462.227782 
L 321.75 461.806662 
L 334.125 461.444392 
L 346.5 461.212105 
L 358.875 460.999952 
L 371.25 460.745482 
L 383.625 460.48134 
L 396 460.221839 
L 408.375 460.070739 
L 420.75 459.699542 
L 433.125 459.303574 
L 445.5 458.977029 
L 457.875 458.127093 
L 470.25 457.357526 
L 482.625 456.572958 
L 495 455.70378 
L 507.375 454.608156 
L 519.75 453.491242 
L 532.125 452.351271 
L 544.5 451.250203 
L 556.875 450.198986 
L 569.25 449.256286 
L 581.625 448.056443 
L 594 446.863589 
L 606.375 445.578387 
L 618.75 444.575312 
L 631.125 443.623009 
L 643.5 442.685912 
L 655.875 441.720772 
L 668.25 440.960167 
L 680.625 440.028054 
L 693 439.128318 
L 705.375 438.264 
L 717.75 437.641878 
L 730.125 437.12819 
L 742.5 436.612924 
L 754.875 436.128435 
L 767.25 435.430095 
L 779.625 434.86192 
" clip-path="url(#pbd863d34b6)" style="fill: none; stroke: #000000; stroke-width: 1.5; stroke-linecap: square"/>
   </g>
   <g id="line2d_8">
    <path d="M 0 459 
L 12.375 459 
L 24.75 460.98034 
L 37.125 461.105918 
L 49.5 461.444118 
L 61.875 461.944179 
L 74.25 461.992346 
L 86.625 461.976036 
L 99 462.149104 
L 111.375 462.654735 
L 123.75 463.203446 
L 136.125 463.682732 
L 148.5 464.061021 
L 160.875 464.237915 
L 173.25 464.241728 
L 185.625 464.41407 
L 198 464.437735 
L 210.375 464.331591 
L 222.75 464.314451 
L 235.125 464.433873 
L 247.5 464.412628 
L 259.875 464.168018 
L 272.25 463.760358 
L 284.625 463.331476 
L 297 462.921092 
L 309.375 462.396035 
L 321.75 462.017205 
L 334.125 461.690203 
L 346.5 461.477082 
L 358.875 461.281937 
L 371.25 461.050627 
L 383.625 460.811399 
L 396 460.576562 
L 408.375 460.434756 
L 420.75 460.106301 
L 433.125 459.757103 
L 445.5 459.479572 
L 457.875 459.225852 
L 470.25 458.984835 
L 482.625 458.281007 
L 495 457.508386 
L 507.375 456.550057 
L 519.75 455.574996 
L 532.125 454.581827 
L 544.5 453.621112 
L 556.875 452.701711 
L 569.25 451.870994 
L 581.625 450.83444 
L 594 449.804141 
L 606.375 448.700777 
L 618.75 447.822372 
L 631.125 446.985347 
L 643.5 446.161562 
L 655.875 445.31697 
L 668.25 444.633732 
L 680.625 443.818255 
L 693 443.02908 
L 705.375 442.268513 
L 717.75 441.696036 
L 730.125 441.208681 
L 742.5 440.722083 
L 754.875 440.260847 
L 767.25 439.638915 
L 779.625 439.116838 
" clip-path="url(#pbd863d34b6)" style="fill: none; stroke: #000000; stroke-width: 1.5; stroke-linecap: square"/>
   </g>
   <g id="line2d_9">
    <path d="M 0 459 
L 12.375 459 
L 24.75 460.975006 
L 37.125 461.101698 
L 49.5 461.438244 
L 61.875 461.934149 
L 74.25 461.983369 
L 86.625 461.968623 
L 99 462.139424 
L 111.375 462.635465 
L 123.75 463.173135 
L 136.125 463.642654 
L 148.5 464.013475 
L 160.875 464.188596 
L 173.25 464.195928 
L 185.625 464.365167 
L 198 464.391093 
L 210.375 464.292206 
L 222.75 464.278108 
L 235.125 464.394007 
L 247.5 464.375895 
L 259.875 464.14565 
L 272.25 463.760917 
L 284.625 463.356028 
L 297 462.96852 
L 309.375 462.473349 
L 321.75 462.115258 
L 334.125 461.805778 
L 346.5 461.602676 
L 358.875 461.416554 
L 371.25 461.197158 
L 383.625 460.970697 
L 396 460.748549 
L 408.375 460.612317 
L 420.75 460.304963 
L 433.125 459.978832 
L 445.5 459.718433 
L 457.875 459.480018 
L 470.25 459.262636 
L 482.625 459.042191 
L 495 458.403848 
L 507.375 457.514286 
L 519.75 456.610412 
L 532.125 455.691039 
L 544.5 454.801543 
L 556.875 453.949812 
L 569.25 453.178055 
L 581.625 452.223974 
L 594 451.276236 
L 606.375 450.264567 
L 618.75 449.452522 
L 631.125 448.677891 
L 643.5 447.915851 
L 655.875 447.136486 
L 668.25 446.499352 
L 680.625 445.74768 
L 693 445.019842 
L 705.375 444.317802 
L 717.75 443.779916 
L 730.125 443.31677 
L 742.5 442.855341 
L 754.875 442.416807 
L 767.25 441.841085 
L 779.625 441.351927 
" clip-path="url(#pbd863d34b6)" style="fill: none; stroke: #000000; stroke-width: 1.5; stroke-linecap: square"/>
   </g>
  </g>
 </g>
 <defs>
  <clipPath id="pbd863d34b6">
   <rect x="0" y="0" width="792" height="612"/>
  </clipPath>
 </defs>
</svg>
