<?xml version="1.0" encoding="utf-8" standalone="no"?>
<!DOCTYPE svg PUBLIC "-//W3C//DTD SVG 1.1//EN"
  "http://www.w3.org/Graphics/SVG/1.1/DTD/svg11.dtd">
<svg xmlns:xlink="http://www.w3.org/1999/xlink" width="792pt" height="612pt" viewBox="0 0 792 612" xmlns="http://www.w3.org/2000/svg" version="1.1">
 <metadata>
  <rdf:RDF xmlns:dc="http://purl.org/dc/elements/1.1/" xmlns:cc="http://creativecommons.org/ns#" xmlns:rdf="http://www.w3.org/1999/02/22-rdf-syntax-ns#">
   <cc:Work>
    <dc:type rdf:resource="http://purl.org/dc/dcmitype/StillImage"/>
    <dc:date>2023-01-02T15:38:55.750078</dc:date>
    <dc:format>image/svg+xml</dc:format>
    <dc:creator>
     <cc:Agent>
      <dc:title>Matplotlib v3.6.2, https://matplotlib.org/</dc:title>
     </cc:Agent>
    </dc:creator>
   </cc:Work>
  </rdf:RDF>
 </metadata>
 <defs>
  <style type="text/css">*{stroke-linejoin: round; stroke-linecap: butt}</style>
 </defs>
 <g id="figure_1">
  <g id="patch_1">
   <path d="M 0 612 
L 792 612 
L 792 0 
L 0 0 
z
" style="fill: #ffffff"/>
  </g>
  <g id="axes_1">
   <g id="line2d_1">
    <path d="M 0 459 
L 12.571429 457.946692 
L 25.142857 460.107326 
L 37.714286 463.375287 
L 50.285714 464.7797 
L 62.857143 465.103795 
L 75.428571 464.860724 
L 88 463.078199 
L 100.571429 461.10662 
L 113.142857 463.510327 
L 125.714286 461.592763 
L 138.285714 459.567167 
L 150.857143 460.863548 
L 163.428571 463.240247 
L 176 460.863548 
L 188.571429 451.546463 
L 201.142857 440.374752 
L 213.714286 436.816766 
L 226.285714 435.685219 
L 238.857143 425.75751 
L 251.428571 433.099916 
L 264 434.796346 
L 276.571429 441.507329 
L 289.142857 441.750052 
L 301.714286 437.86773 
L 314.285714 436.00849 
L 326.857143 435.119552 
L 339.428571 441.830962 
L 352 424.790474 
L 364.571429 421.247351 
L 377.142857 425.999316 
L 389.714286 426.805468 
L 402.285714 427.692465 
L 414.857143 426.16053 
L 427.428571 422.696287 
L 440 415.138305 
L 452.571429 412.971641 
L 465.142857 410.726919 
L 477.714286 410.246207 
L 490.285714 410.166098 
L 502.857143 411.929165 
L 515.428571 402.88945 
L 528 401.453379 
L 540.571429 396.993038 
L 553.142857 404.007168 
L 565.714286 404.246766 
L 578.285714 403.448226 
L 590.857143 401.293885 
L 603.428571 406.644384 
L 616 400.018451 
L 628.571429 399.859086 
L 641.142857 399.859086 
L 653.714286 406.884308 
L 666.285714 409.765603 
L 678.857143 409.044902 
L 691.428571 409.445261 
L 704 401.37363 
L 716.571429 405.045642 
L 729.142857 401.214144 
L 741.714286 398.10704 
L 754.285714 403.20873 
L 766.857143 400.17783 
L 779.428571 402.88945 
" clip-path="url(#pb82aec15bd)" style="fill: none; stroke: #000000; stroke-width: 1.5; stroke-linecap: square"/>
   </g>
   <g id="line2d_2">
    <path d="M 0 459 
L 12.571429 459 
L 25.142857 458.297794 
L 37.714286 459.532442 
L 50.285714 461.581959 
L 62.857143 463.232406 
L 75.428571 464.182953 
L 88 464.524507 
L 100.571429 463.798517 
L 113.142857 462.456699 
L 125.714286 462.993045 
L 138.285714 462.295816 
L 150.857143 460.924025 
L 163.428571 460.886108 
L 176 462.059523 
L 188.571429 461.453698 
L 201.142857 458.914846 
L 213.714286 449.592068 
L 226.285714 443.131375 
L 238.857143 439.346111 
L 251.428571 432.477592 
L 264 432.727143 
L 276.571429 433.689391 
L 289.142857 437.551625 
L 301.714286 439.631244 
L 314.285714 438.744497 
L 326.857143 437.374716 
L 339.428571 436.245887 
L 352 439.06924 
L 364.571429 431.906977 
L 377.142857 426.546213 
L 389.714286 426.242405 
L 402.285714 426.49468 
L 414.857143 427.073597 
L 427.428571 426.597746 
L 440 424.622064 
L 452.571429 419.823775 
L 465.142857 416.372161 
L 477.714286 413.527196 
L 490.285714 411.855283 
L 502.857143 410.978 
L 515.428571 411.422727 
L 528 407.106067 
L 540.571429 404.236116 
L 553.142857 400.575403 
L 565.714286 402.272959 
L 578.285714 403.246922 
L 590.857143 403.334266 
L 603.428571 402.296426 
L 616 404.458827 
L 628.571429 402.231658 
L 641.142857 401.041852 
L 653.714286 400.455997 
L 666.285714 403.673035 
L 678.857143 406.727806 
L 691.428571 407.897007 
L 704 408.686999 
L 716.571429 405.016501 
L 729.142857 405.040942 
L 741.714286 403.129218 
L 754.285714 400.612914 
L 766.857143 401.903164 
L 779.428571 401.021528 
" clip-path="url(#pb82aec15bd)" style="fill: none; stroke: #000000; stroke-width: 1.5; stroke-linecap: square"/>
   </g>
   <g id="line2d_3">
    <path d="M 0 459 
L 12.571429 459 
L 25.142857 458.382986 
L 37.714286 459.389224 
L 50.285714 460.945878 
L 62.857143 462.309907 
L 75.428571 463.24512 
L 88 463.7642 
L 100.571429 463.54988 
L 113.142857 462.801177 
L 125.714286 463.015582 
L 138.285714 462.589431 
L 150.857143 461.69018 
L 163.428571 461.44536 
L 176 461.97521 
L 188.571429 461.647803 
L 201.142857 460.138623 
L 213.714286 455.93582 
L 226.285714 450.30763 
L 238.857143 445.991075 
L 251.428571 440.002793 
L 264 437.930363 
L 276.571429 436.963468 
L 289.142857 438.253711 
L 301.714286 439.243721 
L 314.285714 438.809177 
L 326.857143 437.946826 
L 339.428571 437.082256 
L 352 438.451038 
L 364.571429 434.399426 
L 377.142857 430.484251 
L 389.714286 429.125835 
L 402.285714 428.4177 
L 414.857143 428.190722 
L 427.428571 427.583737 
L 440 426.136538 
L 452.571429 422.898517 
L 465.142857 419.96396 
L 477.714286 417.227255 
L 490.285714 415.144607 
L 502.857143 413.649178 
L 515.428571 413.115595 
L 528 410.077282 
L 540.571429 407.508994 
L 553.142857 404.371559 
L 565.714286 404.241063 
L 578.285714 404.223285 
L 590.857143 403.970467 
L 603.428571 403.156956 
L 616 404.153707 
L 628.571429 402.911665 
L 641.142857 401.990937 
L 653.714286 401.348774 
L 666.285714 402.961438 
L 678.857143 404.950782 
L 691.428571 406.147672 
L 704 407.11213 
L 716.571429 405.417459 
L 729.142857 405.311028 
L 741.714286 404.109874 
L 754.285714 402.350898 
L 766.857143 402.601193 
L 779.428571 401.886397 
" clip-path="url(#pb82aec15bd)" style="fill: none; stroke: #000000; stroke-width: 1.5; stroke-linecap: square"/>
   </g>
   <g id="line2d_4">
    <path d="M 0 459 
L 12.571429 459 
L 25.142857 458.427828 
L 37.714286 459.318714 
L 50.285714 460.609545 
L 62.857143 461.754372 
L 75.428571 462.578733 
L 88 463.095417 
L 100.571429 463.091764 
L 113.142857 462.691849 
L 125.714286 462.850035 
L 138.285714 462.615071 
L 150.857143 462.060862 
L 163.428571 461.84799 
L 176 462.090981 
L 188.571429 461.880011 
L 201.142857 460.969558 
L 213.714286 459.595664 
L 226.285714 456.794043 
L 238.857143 453.302885 
L 251.428571 448.770818 
L 264 446.20763 
L 276.571429 444.349576 
L 289.142857 443.888721 
L 301.714286 443.543003 
L 314.285714 442.627659 
L 326.857143 441.562227 
L 339.428571 440.527031 
L 352 440.736105 
L 364.571429 438.17834 
L 377.142857 435.464566 
L 389.714286 433.950023 
L 402.285714 432.807932 
L 414.857143 431.974077 
L 427.428571 431.028696 
L 440 429.676927 
L 452.571429 427.323586 
L 465.142857 424.995815 
L 477.714286 422.679032 
L 490.285714 420.655635 
L 502.857143 418.945793 
L 515.428571 417.794926 
L 528 415.373469 
L 540.571429 413.112083 
L 553.142857 410.499214 
L 565.714286 409.427399 
L 578.285714 408.560498 
L 590.857143 407.708394 
L 603.428571 406.655261 
L 616 406.632624 
L 628.571429 405.555897 
L 641.142857 404.626118 
L 653.714286 403.850749 
L 666.285714 404.316833 
L 678.857143 405.167242 
L 691.428571 405.763586 
L 704 406.328897 
L 716.571429 405.516992 
L 729.142857 405.422793 
L 741.714286 404.731516 
L 754.285714 403.648827 
L 766.857143 403.565398 
L 779.428571 403.012906 
" clip-path="url(#pb82aec15bd)" style="fill: none; stroke: #000000; stroke-width: 1.5; stroke-linecap: square"/>
   </g>
   <g id="line2d_5">
    <path d="M 0 459 
L 12.571429 459 
L 25.142857 458.450544 
L 37.714286 459.284768 
L 50.285714 460.443882 
L 62.857143 461.467419 
L 75.428571 462.211887 
L 88 462.695327 
L 100.571429 462.758881 
L 113.142857 462.505637 
L 125.714286 462.649516 
L 138.285714 462.506776 
L 150.857143 462.129365 
L 163.428571 461.973906 
L 176 462.123474 
L 188.571429 461.979712 
L 201.142857 461.37501 
L 213.714286 460.45036 
L 226.285714 459.520275 
L 238.857143 458.001138 
L 251.428571 454.744633 
L 264 452.598238 
L 276.571429 450.861063 
L 289.142857 449.961798 
L 301.714286 449.182562 
L 314.285714 448.121177 
L 326.857143 446.996894 
L 339.428571 445.905057 
L 352 445.534044 
L 364.571429 443.657023 
L 377.142857 441.643183 
L 389.714286 440.24766 
L 402.285714 439.055995 
L 414.857143 438.054339 
L 427.428571 437.011083 
L 440 435.760741 
L 452.571429 433.965075 
L 465.142857 432.143675 
L 477.714286 430.291581 
L 490.285714 428.563766 
L 502.857143 426.982869 
L 515.428571 425.693438 
L 528 423.741633 
L 540.571429 421.838077 
L 553.142857 419.718796 
L 565.714286 418.383692 
L 578.285714 417.184771 
L 590.857143 416.021652 
L 603.428571 414.776014 
L 616 414.090156 
L 628.571429 412.903041 
L 641.142857 411.80404 
L 653.714286 410.79886 
L 666.285714 410.470362 
L 678.857143 410.411313 
L 691.428571 410.296898 
L 704 410.225646 
L 716.571429 409.484161 
L 729.142857 409.112975 
L 741.714286 408.452218 
L 754.285714 407.586698 
L 766.857143 407.22112 
L 779.428571 406.632835 
" clip-path="url(#pb82aec15bd)" style="fill: none; stroke: #000000; stroke-width: 1.5; stroke-linecap: square"/>
   </g>
   <g id="line2d_6">
    <path d="M 0 459 
L 12.571429 459 
L 25.142857 458.461939 
L 37.714286 459.268248 
L 50.285714 460.362661 
L 62.857143 461.324218 
L 75.428571 462.024286 
L 88 462.484002 
L 100.571429 462.570013 
L 113.142857 462.377853 
L 125.714286 462.514417 
L 138.285714 462.411336 
L 150.857143 462.11389 
L 163.428571 461.990783 
L 176 462.107273 
L 188.571429 461.996928 
L 201.142857 461.532119 
L 213.714286 460.820845 
L 226.285714 460.098883 
L 238.857143 459.427929 
L 251.428571 457.753779 
L 264 456.002145 
L 276.571429 454.5375 
L 289.142857 453.661259 
L 301.714286 452.879676 
L 314.285714 451.916706 
L 326.857143 450.91778 
L 339.428571 449.945475 
L 352 449.455681 
L 364.571429 447.9908 
L 377.142857 446.428167 
L 389.714286 445.253921 
L 402.285714 444.209299 
L 414.857143 443.287222 
L 427.428571 442.343553 
L 440 441.274044 
L 452.571429 439.866567 
L 465.142857 438.43394 
L 477.714286 436.973188 
L 490.285714 435.578224 
L 502.857143 434.264597 
L 515.428571 433.120918 
L 528 431.583554 
L 540.571429 430.063512 
L 553.142857 428.406541 
L 565.714286 427.195142 
L 578.285714 426.063953 
L 590.857143 424.956518 
L 603.428571 423.804736 
L 616 422.975597 
L 628.571429 421.871192 
L 641.142857 420.818146 
L 653.714286 419.82084 
L 666.285714 419.209412 
L 678.857143 418.765492 
L 691.428571 418.310583 
L 704 417.897548 
L 716.571429 417.129491 
L 729.142857 416.570566 
L 741.714286 415.862342 
L 754.285714 415.045861 
L 766.857143 414.504138 
L 779.428571 413.850201 
" clip-path="url(#pb82aec15bd)" style="fill: none; stroke: #000000; stroke-width: 1.5; stroke-linecap: square"/>
   </g>
   <g id="line2d_7">
    <path d="M 0 459 
L 12.571429 459 
L 25.142857 458.467642 
L 37.714286 459.260116 
L 50.285714 460.322573 
L 62.857143 461.253028 
L 75.428571 461.930072 
L 88 462.376427 
L 100.571429 462.470941 
L 113.142857 462.305888 
L 125.714286 462.438407 
L 138.285714 462.352937 
L 150.857143 462.092147 
L 163.428571 461.984876 
L 176 462.08771 
L 188.571429 461.993152 
L 201.142857 461.592392 
L 213.714286 460.979962 
L 226.285714 460.357434 
L 238.857143 459.777202 
L 251.428571 459.0533 
L 264 457.630379 
L 276.571429 456.338384 
L 289.142857 455.528026 
L 301.714286 454.799392 
L 314.285714 453.931038 
L 326.857143 453.038351 
L 339.428571 452.17038 
L 352 451.682942 
L 364.571429 450.444973 
L 377.142857 449.132459 
L 389.714286 448.11696 
L 402.285714 447.202014 
L 414.857143 446.382103 
L 427.428571 445.549229 
L 440 444.625759 
L 452.571429 443.455013 
L 465.142857 442.265904 
L 477.714286 441.056275 
L 490.285714 439.894042 
L 502.857143 438.79048 
L 515.428571 437.808962 
L 528 436.549676 
L 540.571429 435.301727 
L 553.142857 433.957006 
L 565.714286 432.921352 
L 578.285714 431.942629 
L 590.857143 430.982013 
L 603.428571 429.992747 
L 616 429.22471 
L 628.571429 428.273426 
L 641.142857 427.358026 
L 653.714286 426.481505 
L 666.285714 425.864243 
L 678.857143 425.362518 
L 691.428571 424.858785 
L 704 424.387441 
L 716.571429 423.688797 
L 729.142857 423.128292 
L 741.714286 422.474487 
L 754.285714 421.752971 
L 766.857143 421.208979 
L 779.428571 420.596411 
" clip-path="url(#pb82aec15bd)" style="fill: none; stroke: #000000; stroke-width: 1.5; stroke-linecap: square"/>
   </g>
   <g id="line2d_8">
    <path d="M 0 459 
L 12.571429 459 
L 25.142857 458.470493 
L 37.714286 459.256083 
L 50.285714 460.302674 
L 62.857143 461.217579 
L 75.428571 461.882944 
L 88 462.322287 
L 100.571429 462.420396 
L 113.142857 462.268018 
L 125.714286 462.39839 
L 138.285714 462.321121 
L 150.857143 462.077709 
L 163.428571 461.978123 
L 176 462.074758 
L 188.571429 461.987746 
L 201.142857 461.617237 
L 213.714286 461.051671 
L 226.285714 460.476841 
L 238.857143 459.9408 
L 251.428571 459.274803 
L 264 458.407834 
L 276.571429 457.207025 
L 289.142857 456.439651 
L 301.714286 455.747992 
L 314.285714 454.935373 
L 326.857143 454.103864 
L 339.428571 453.296509 
L 352 452.824126 
L 364.571429 451.701502 
L 377.142857 450.516004 
L 389.714286 449.588224 
L 402.285714 448.748809 
L 414.857143 447.992752 
L 427.428571 447.227884 
L 440 446.388395 
L 452.571429 445.342283 
L 465.142857 444.282242 
L 477.714286 443.206512 
L 490.285714 442.171684 
L 502.857143 441.187023 
L 515.428571 440.304739 
L 528 439.195908 
L 540.571429 438.097621 
L 553.142857 436.921718 
L 565.714286 435.997907 
L 578.285714 435.121866 
L 590.857143 434.262202 
L 603.428571 433.381325 
L 616 432.678901 
L 628.571429 431.832689 
L 641.142857 431.016528 
L 653.714286 430.232704 
L 666.285714 429.654516 
L 678.857143 429.169062 
L 691.428571 428.684388 
L 704 428.227141 
L 716.571429 427.59599 
L 729.142857 427.073049 
L 741.714286 426.480201 
L 754.285714 425.837015 
L 766.857143 425.330673 
L 779.428571 424.773883 
" clip-path="url(#pb82aec15bd)" style="fill: none; stroke: #000000; stroke-width: 1.5; stroke-linecap: square"/>
   </g>
   <g id="line2d_9">
    <path d="M 0 459 
L 12.571429 459 
L 25.142857 458.471919 
L 37.714286 459.254076 
L 50.285714 460.292763 
L 62.857143 461.199895 
L 75.428571 461.859386 
L 88 462.295145 
L 100.571429 462.394892 
L 113.142857 462.248631 
L 125.714286 462.377897 
L 138.285714 462.304573 
L 150.857143 462.0696 
L 163.428571 461.973783 
L 176 462.067463 
L 188.571429 461.984124 
L 201.142857 461.628264 
L 213.714286 461.085427 
L 226.285714 460.533843 
L 238.857143 460.019479 
L 251.428571 459.381812 
L 264 458.785238 
L 276.571429 457.630641 
L 289.142857 456.886701 
L 301.714286 456.215614 
L 314.285714 455.432421 
L 326.857143 454.632956 
L 339.428571 453.857447 
L 352 453.39556 
L 364.571429 452.33042 
L 377.142857 451.208131 
L 389.714286 450.325483 
L 402.285714 449.525676 
L 414.857143 448.80391 
L 427.428571 448.075344 
L 440 447.279666 
L 452.571429 446.296336 
L 465.142857 445.301417 
L 477.714286 444.293342 
L 490.285714 443.323497 
L 502.857143 442.400206 
L 515.428571 441.57053 
L 528 440.537952 
L 540.571429 439.515928 
L 553.142857 438.425395 
L 565.714286 437.561433 
L 578.285714 436.741298 
L 590.857143 435.936947 
L 603.428571 435.114946 
L 616 434.452257 
L 628.571429 433.663674 
L 641.142857 432.902727 
L 653.714286 432.171365 
L 666.285714 431.621697 
L 678.857143 431.154498 
L 691.428571 430.689231 
L 704 430.249087 
L 716.571429 429.658816 
L 729.142857 429.163511 
L 741.714286 428.608733 
L 754.285714 428.01145 
L 766.857143 427.533101 
L 779.428571 427.012364 
" clip-path="url(#pb82aec15bd)" style="fill: none; stroke: #000000; stroke-width: 1.5; stroke-linecap: square"/>
   </g>
  </g>
 </g>
 <defs>
  <clipPath id="pb82aec15bd">
   <rect x="0" y="0" width="792" height="612"/>
  </clipPath>
 </defs>
</svg>
