<?xml version="1.0" encoding="utf-8" standalone="no"?>
<!DOCTYPE svg PUBLIC "-//W3C//DTD SVG 1.1//EN"
  "http://www.w3.org/Graphics/SVG/1.1/DTD/svg11.dtd">
<svg xmlns:xlink="http://www.w3.org/1999/xlink" width="792pt" height="612pt" viewBox="0 0 792 612" xmlns="http://www.w3.org/2000/svg" version="1.1">
 <metadata>
  <rdf:RDF xmlns:dc="http://purl.org/dc/elements/1.1/" xmlns:cc="http://creativecommons.org/ns#" xmlns:rdf="http://www.w3.org/1999/02/22-rdf-syntax-ns#">
   <cc:Work>
    <dc:type rdf:resource="http://purl.org/dc/dcmitype/StillImage"/>
    <dc:date>2023-01-30T17:15:47.394049</dc:date>
    <dc:format>image/svg+xml</dc:format>
    <dc:creator>
     <cc:Agent>
      <dc:title>Matplotlib v3.6.2, https://matplotlib.org/</dc:title>
     </cc:Agent>
    </dc:creator>
   </cc:Work>
  </rdf:RDF>
 </metadata>
 <defs>
  <style type="text/css">*{stroke-linejoin: round; stroke-linecap: butt}</style>
 </defs>
 <g id="figure_1">
  <g id="patch_1">
   <path d="M 0 612 
L 792 612 
L 792 0 
L 0 0 
z
" style="fill: #ffffff"/>
  </g>
  <g id="axes_1">
   <g id="line2d_1">
    <path d="M 0 306 
L 46.588235 309.775008 
L 93.176471 303.89556 
L 139.764706 309.132503 
L 186.352941 306.594392 
L 232.941176 305.823289 
L 279.529412 305.485931 
L 326.117647 295.850847 
L 372.705882 313.629141 
L 419.294118 302.626554 
L 465.882353 305.341349 
L 512.470588 305.421672 
L 559.058824 302.899623 
L 605.647059 320.319228 
L 652.235294 308.200823 
L 698.823529 305.341349 
L 745.411765 303.927688 
" clip-path="url(#p27d5eb6dbb)" style="fill: none; stroke: #000000; stroke-width: 1.5; stroke-linecap: square"/>
   </g>
   <g id="line2d_2">
    <path d="M 0 306 
L 46.588235 306 
L 93.176471 308.516743 
L 139.764706 305.876072 
L 186.352941 307.612879 
L 232.941176 307.087211 
L 279.529412 306.445221 
L 326.117647 305.961799 
L 372.705882 300.885105 
L 419.294118 307.27263 
L 465.882353 304.935515 
L 512.470588 305.141266 
L 559.058824 305.274193 
L 605.647059 304.079635 
L 652.235294 312.232233 
L 698.823529 310.222034 
L 745.411765 307.80042 
" clip-path="url(#p27d5eb6dbb)" style="fill: none; stroke: #000000; stroke-width: 1.5; stroke-linecap: square"/>
   </g>
   <g id="line2d_3">
    <path d="M 0 306 
L 46.588235 306 
L 93.176471 308.211422 
L 139.764706 306.255989 
L 186.352941 307.379371 
L 232.941176 307.100087 
L 279.529412 306.672699 
L 326.117647 306.291401 
L 372.705882 303.028499 
L 419.294118 306.277336 
L 465.882353 305.173514 
L 512.470588 305.223783 
L 559.058824 305.282663 
L 605.647059 304.576867 
L 652.235294 309.226966 
L 698.823529 308.924753 
L 745.411765 307.871121 
" clip-path="url(#p27d5eb6dbb)" style="fill: none; stroke: #000000; stroke-width: 1.5; stroke-linecap: square"/>
   </g>
   <g id="line2d_4">
    <path d="M 0 306 
L 46.588235 306 
L 93.176471 308.050709 
L 139.764706 306.419967 
L 186.352941 307.283143 
L 232.941176 307.094062 
L 279.529412 306.781301 
L 326.117647 306.488007 
L 372.705882 304.23069 
L 419.294118 306.124349 
L 465.882353 305.448308 
L 512.470588 305.428319 
L 559.058824 305.42711 
L 605.647059 304.977729 
L 652.235294 307.657088 
L 698.823529 307.750545 
L 745.411765 307.341686 
" clip-path="url(#p27d5eb6dbb)" style="fill: none; stroke: #000000; stroke-width: 1.5; stroke-linecap: square"/>
   </g>
   <g id="line2d_5">
    <path d="M 0 306 
L 46.588235 306 
L 93.176471 307.969295 
L 139.764706 306.492186 
L 186.352941 307.240386 
L 232.941176 307.08789 
L 279.529412 306.828992 
L 326.117647 306.58387 
L 372.705882 304.801664 
L 419.294118 306.154898 
L 465.882353 305.649594 
L 512.470588 305.607958 
L 559.058824 305.584041 
L 605.647059 305.254348 
L 652.235294 307.034897 
L 698.823529 307.167936 
L 745.411765 306.965805 
" clip-path="url(#p27d5eb6dbb)" style="fill: none; stroke: #000000; stroke-width: 1.5; stroke-linecap: square"/>
   </g>
   <g id="line2d_6">
    <path d="M 0 306 
L 46.588235 306 
L 93.176471 307.928455 
L 139.764706 306.525522 
L 186.352941 307.220234 
L 232.941176 307.083993 
L 279.529412 306.850482 
L 326.117647 306.629323 
L 372.705882 305.068588 
L 419.294118 306.192889 
L 465.882353 305.762812 
L 512.470588 305.715674 
L 559.058824 305.684927 
L 605.647059 305.41068 
L 652.235294 306.801602 
L 698.823529 306.925745 
L 745.411765 306.791399 
" clip-path="url(#p27d5eb6dbb)" style="fill: none; stroke: #000000; stroke-width: 1.5; stroke-linecap: square"/>
   </g>
   <g id="line2d_7">
    <path d="M 0 306 
L 46.588235 306 
L 93.176471 307.908018 
L 139.764706 306.541463 
L 186.352941 307.210441 
L 232.941176 307.081838 
L 279.529412 306.86056 
L 326.117647 306.651197 
L 372.705882 305.196116 
L 419.294118 306.216518 
L 465.882353 305.821517 
L 512.470588 305.772986 
L 559.058824 305.740098 
L 605.647059 305.492081 
L 652.235294 306.707505 
L 698.823529 306.822855 
L 745.411765 306.71447 
" clip-path="url(#p27d5eb6dbb)" style="fill: none; stroke: #000000; stroke-width: 1.5; stroke-linecap: square"/>
   </g>
   <g id="line2d_8">
    <path d="M 0 306 
L 46.588235 306 
L 93.176471 307.897797 
L 139.764706 306.549248 
L 186.352941 307.205613 
L 232.941176 307.080707 
L 279.529412 306.865424 
L 326.117647 306.661894 
L 372.705882 305.258255 
L 419.294118 306.229335 
L 465.882353 305.851231 
L 512.470588 305.802328 
L 559.058824 305.768683 
L 605.647059 305.533353 
L 652.235294 306.666237 
L 698.823529 306.776482 
L 745.411765 306.679317 
" clip-path="url(#p27d5eb6dbb)" style="fill: none; stroke: #000000; stroke-width: 1.5; stroke-linecap: square"/>
   </g>
   <g id="line2d_9">
    <path d="M 0 306 
L 46.588235 306 
L 93.176471 307.892686 
L 139.764706 306.553094 
L 186.352941 307.203215 
L 232.941176 307.080129 
L 279.529412 306.867811 
L 326.117647 306.667179 
L 372.705882 305.288901 
L 419.294118 306.235972 
L 465.882353 305.866158 
L 512.470588 305.817145 
L 559.058824 305.783199 
L 605.647059 305.554099 
L 652.235294 306.647047 
L 698.823529 306.754607 
L 745.411765 306.662646 
" clip-path="url(#p27d5eb6dbb)" style="fill: none; stroke: #000000; stroke-width: 1.5; stroke-linecap: square"/>
   </g>
  </g>
 </g>
 <defs>
  <clipPath id="p27d5eb6dbb">
   <rect x="0" y="0" width="792" height="612"/>
  </clipPath>
 </defs>
</svg>
