<?xml version="1.0" encoding="utf-8" standalone="no"?>
<!DOCTYPE svg PUBLIC "-//W3C//DTD SVG 1.1//EN"
  "http://www.w3.org/Graphics/SVG/1.1/DTD/svg11.dtd">
<svg xmlns:xlink="http://www.w3.org/1999/xlink" width="792pt" height="612pt" viewBox="0 0 792 612" xmlns="http://www.w3.org/2000/svg" version="1.1">
 <metadata>
  <rdf:RDF xmlns:dc="http://purl.org/dc/elements/1.1/" xmlns:cc="http://creativecommons.org/ns#" xmlns:rdf="http://www.w3.org/1999/02/22-rdf-syntax-ns#">
   <cc:Work>
    <dc:type rdf:resource="http://purl.org/dc/dcmitype/StillImage"/>
    <dc:date>2023-01-23T15:52:23.787745</dc:date>
    <dc:format>image/svg+xml</dc:format>
    <dc:creator>
     <cc:Agent>
      <dc:title>Matplotlib v3.6.2, https://matplotlib.org/</dc:title>
     </cc:Agent>
    </dc:creator>
   </cc:Work>
  </rdf:RDF>
 </metadata>
 <defs>
  <style type="text/css">*{stroke-linejoin: round; stroke-linecap: butt}</style>
 </defs>
 <g id="figure_1">
  <g id="patch_1">
   <path d="M 0 612 
L 792 612 
L 792 0 
L 0 0 
z
" style="fill: #ffffff"/>
  </g>
  <g id="axes_1">
   <g id="line2d_1">
    <path d="M 0 306 
L 3.168 312.546656 
L 6.336 296.443532 
L 9.504 310.807454 
L 12.672 294.369486 
L 15.84 306.430274 
L 19.008 307.384352 
L 22.176 310.115421 
L 25.344 303.829956 
L 28.512 307.197279 
L 31.68 302.614065 
L 34.848 297.153777 
L 38.016 307.215987 
L 41.184 306.318029 
L 44.352 307.066328 
L 47.52 303.81125 
L 50.688 305.569726 
L 53.856 306.561227 
L 60.192 307.852028 
L 63.36 304.447284 
L 66.528 304.746599 
L 69.696 309.142764 
L 72.864 305.92517 
L 76.032 305.158161 
L 79.2 307.758494 
L 82.368 312.808438 
L 85.536 293.02472 
L 88.704 309.011824 
L 91.872 313.50024 
L 95.04 295.042042 
L 98.208 306.149661 
L 101.376 306.374152 
L 104.544 312.752343 
L 107.712 308.506761 
L 110.88 300.537965 
L 114.048 305.027209 
L 117.216 302.557949 
L 120.384 299.546839 
L 123.552 300.369652 
L 126.72 307.683666 
L 129.888 302.745003 
L 133.056 307.346938 
L 136.224 301.828467 
L 139.392 305.700679 
L 142.56 308.02039 
L 145.728 301.136437 
L 148.896 299.397247 
L 152.064 307.852028 
L 155.232 311.51814 
L 158.4 302.745003 
L 161.568 311.275017 
L 164.736 301.286061 
L 167.904 312.415762 
L 171.072 306.804424 
L 174.24 303.773836 
L 177.408 306.916669 
L 180.576 300.818494 
L 183.744 304.540819 
L 186.912 307.309523 
L 190.08 308.30099 
L 193.248 305.008501 
L 196.416 304.166678 
L 199.584 322.931762 
L 202.752 303.100411 
L 205.92 308.712529 
L 209.088 311.892162 
L 212.256 303.511946 
L 215.424 309.329819 
L 218.592 304.335041 
L 221.76 304.222799 
L 224.928 312.434461 
L 228.096 307.814615 
L 231.264 302.875942 
L 234.432 299.098071 
L 237.6 312.434461 
L 240.768 306.69218 
L 243.936 305.476188 
L 247.104 303.998317 
L 250.272 307.141158 
L 253.44 304.147972 
L 256.608 307.103743 
L 259.776 302.782414 
L 262.944 300.59407 
L 266.112 311.742555 
L 269.28 315.388261 
L 272.448 307.982976 
L 275.616 298.780212 
L 281.952 306.598642 
L 288.288 300.463159 
L 291.456 303.736423 
L 294.624 311.144102 
L 297.792 302.688886 
L 300.96 313.238486 
L 304.128 300.781089 
L 307.296 302.894647 
L 310.464 310.994482 
L 313.632 314.304129 
L 316.8 310.171533 
L 319.968 308.974413 
L 323.136 308.618998 
L 326.304 307.440474 
L 329.472 313.780679 
L 332.64 305.064624 
L 335.808 304.596941 
L 338.976 305.027209 
L 342.144 312.322265 
L 345.312 293.006046 
L 348.48 304.559526 
L 351.648 306.037415 
L 354.816 309.124058 
L 357.984 299.771234 
L 361.152 302.165145 
L 364.32 313.444151 
L 367.488 300.94941 
L 370.656 306.505104 
L 373.824 307.178572 
L 376.992 306.897962 
L 380.16 312.060466 
L 383.328 309.666512 
L 386.496 320.282212 
L 389.664 305.064624 
L 392.832 308.226164 
L 396 299.715135 
L 399.168 306.280614 
L 402.336 308.562879 
L 405.504 306.767009 
L 408.672 299.34115 
L 415.008 309.554282 
L 418.176 312.023065 
L 421.344 300.463159 
L 424.512 310.545609 
L 427.68 305.176868 
L 430.848 303.362296 
L 434.016 306.785717 
L 437.184 303.642891 
L 440.352 304.091851 
L 443.52 300.500562 
L 446.688 302.090327 
L 449.856 298.892396 
L 453.024 300.855898 
L 456.192 304.87755 
L 459.36 303.455827 
L 462.528 305.176868 
L 465.696 305.719386 
L 468.864 308.749941 
L 472.032 312.546656 
L 475.2 307.590131 
L 478.368 305.625848 
L 481.536 305.083331 
L 484.704 310.003195 
L 487.872 308.768647 
L 491.04 309.554282 
L 494.208 309.40464 
L 497.376 302.894647 
L 500.544 307.12245 
L 503.712 307.534009 
L 506.88 301.996805 
L 510.048 305.083331 
L 513.216 306.673472 
L 516.384 303.792543 
L 519.552 311.817359 
L 522.72 304.091851 
L 525.888 304.27892 
L 529.056 309.423346 
L 532.224 302.333488 
L 535.392 312.247466 
L 538.56 313.27588 
L 541.728 306.112246 
L 544.896 308.843471 
L 548.064 315.126595 
L 551.232 304.802721 
L 554.4 302.857236 
L 557.568 302.707592 
L 560.736 308.768647 
L 563.904 298.761514 
L 567.072 297.770647 
L 570.24 307.739787 
L 573.408 308.525467 
L 576.576 310.321165 
L 579.744 304.87755 
L 582.912 302.296079 
L 586.08 306.561227 
L 589.248 294.126646 
L 592.416 310.134125 
L 595.584 303.193941 
L 598.752 302.314784 
L 601.92 292.165823 
L 605.088 312.172666 
L 608.256 295.976321 
L 611.424 299.34115 
L 614.592 312.920627 
L 617.76 305.420065 
L 620.928 303.75513 
L 624.096 297.845423 
L 627.264 301.323467 
L 630.432 309.142764 
L 633.6 306.879254 
L 636.768 306.916669 
L 639.936 303.680304 
L 643.104 303.998317 
L 646.272 304.559526 
L 649.44 311.144102 
L 652.608 303.848663 
L 655.776 308.937001 
L 658.944 304.185385 
L 662.112 311.985664 
L 665.28 302.932059 
L 668.448 302.651476 
L 671.616 302.950764 
L 674.784 304.147972 
L 677.952 303.044293 
L 681.12 304.353748 
L 684.288 304.316334 
L 687.456 310.84486 
L 690.624 304.335041 
L 693.792 301.136437 
L 696.96 307.253401 
L 700.128 305.251698 
L 703.296 310.358573 
L 706.464 303.586771 
L 709.632 306.841839 
L 712.8 306.61735 
L 715.968 309.872264 
L 719.136 303.268765 
L 722.304 306.112246 
L 725.472 306.767009 
L 728.64 311.742555 
L 731.808 307.440474 
L 734.976 304.67177 
L 738.144 301.734946 
L 741.312 299.210261 
L 744.48 310.152829 
L 747.648 301.734946 
L 750.816 304.129265 
L 753.984 310.39598 
L 757.152 303.549359 
L 760.32 309.647807 
L 763.488 306.69218 
L 766.656 305.794217 
L 769.824 305.401358 
L 772.992 294.182685 
L 776.16 314.883607 
L 779.328 302.071623 
L 782.496 305.232991 
L 785.664 305.326528 
L 788.832 302.389603 
L 788.832 302.389603 
" clip-path="url(#p32461c4ef3)" style="fill: none; stroke: #000000; stroke-width: 1.5; stroke-linecap: square"/>
   </g>
   <g id="line2d_2">
    <path d="M 0 306 
L 3.168 306 
L 6.336 310.364808 
L 9.504 302.408308 
L 12.672 306.887984 
L 15.84 300.424549 
L 19.008 303.47483 
L 22.176 305.44496 
L 25.344 307.789452 
L 28.512 305.805441 
L 31.68 306.490872 
L 34.848 304.564515 
L 38.016 300.831622 
L 41.184 304.048788 
L 44.352 305.183177 
L 47.52 306.12413 
L 50.688 304.955314 
L 53.856 305.26593 
L 63.36 307.242984 
L 66.528 305.839702 
L 69.696 305.290067 
L 72.864 307.220535 
L 79.2 305.866773 
L 82.368 306.814989 
L 85.536 309.822972 
L 88.704 301.391313 
L 91.872 305.210395 
L 95.04 309.373098 
L 98.208 302.177835 
L 101.376 304.164111 
L 104.544 305.271506 
L 107.712 309.022167 
L 110.88 308.75603 
L 114.048 304.661499 
L 117.216 304.83654 
L 120.384 303.675755 
L 123.552 301.619936 
L 126.72 300.983441 
L 129.888 304.335922 
L 133.056 303.520822 
L 136.224 305.431583 
L 139.392 303.632474 
L 142.56 304.667881 
L 145.728 306.354857 
L 148.896 303.748601 
L 152.064 301.570793 
L 155.232 304.711605 
L 158.4 308.132337 
L 161.568 305.429603 
L 164.736 308.371047 
L 167.904 304.819741 
L 171.072 308.626774 
L 174.24 307.726729 
L 177.408 305.758856 
L 180.576 306.335929 
L 183.744 303.556034 
L 186.912 304.051943 
L 190.08 305.672947 
L 193.248 307.000742 
L 199.584 305.073207 
L 202.752 314.046882 
L 205.92 308.566988 
L 209.088 308.655237 
L 212.256 310.288232 
L 215.424 306.892753 
L 218.592 308.113337 
L 221.76 306.222877 
L 224.928 305.22294 
L 228.096 308.80848 
L 231.264 308.320797 
L 234.432 305.586893 
L 237.6 302.316984 
L 240.768 307.393596 
L 243.936 307.037717 
L 247.104 306.259192 
L 250.272 305.128302 
L 253.44 306.12435 
L 256.608 305.128962 
L 259.776 306.124644 
L 262.944 304.460709 
L 266.112 302.504034 
L 269.28 307.133454 
L 272.448 311.281251 
L 275.616 309.640031 
L 278.784 304.193162 
L 281.952 303.400588 
L 285.12 304.998597 
L 288.288 304.303643 
L 291.456 302.383002 
L 294.624 303.044 
L 297.792 307.085916 
L 300.96 304.876963 
L 304.128 309.086647 
L 307.296 304.930077 
L 310.464 303.905076 
L 316.8 310.912044 
L 319.968 310.554411 
L 323.136 309.760182 
L 326.304 309.201228 
L 329.472 308.309499 
L 332.64 311.070979 
L 335.808 308.072255 
L 338.976 306.322064 
L 342.144 305.656441 
L 345.312 308.993925 
L 348.48 300.965252 
L 351.648 302.754319 
L 354.816 304.39307 
L 357.984 306.749476 
L 361.152 303.249619 
L 364.32 302.702604 
L 367.488 308.090522 
L 370.656 304.497463 
L 373.824 305.527762 
L 376.992 306.358305 
L 380.16 306.629821 
L 383.328 309.351165 
L 386.496 309.528241 
L 389.664 314.943494 
L 392.832 309.988672 
L 396 309.121711 
L 399.168 304.404734 
L 402.336 305.340907 
L 405.504 306.955184 
L 408.672 306.850716 
L 411.84 303.07525 
L 415.008 303.683238 
L 418.176 306.62762 
L 421.344 309.333047 
L 424.512 304.899338 
L 427.68 307.730984 
L 430.848 306.447294 
L 434.016 304.898091 
L 437.184 305.856502 
L 440.352 304.748286 
L 443.52 304.409356 
L 446.688 302.432221 
L 449.856 302.264464 
L 453.024 300.55542 
L 456.192 300.697187 
L 459.36 302.790189 
L 462.528 303.116476 
L 465.696 304.149659 
L 468.864 304.937707 
L 472.032 306.860033 
L 475.2 309.724167 
L 478.368 308.674236 
L 481.536 307.159425 
L 484.704 306.121783 
L 487.872 308.07541 
L 491.04 308.429074 
L 494.208 308.999207 
L 497.376 309.203209 
L 500.544 306.030006 
L 506.88 307.058405 
L 510.048 304.521452 
L 513.216 304.792743 
L 516.384 305.728997 
L 519.552 304.74946 
L 522.72 308.288445 
L 525.888 306.192505 
L 529.056 305.230129 
L 532.224 307.330505 
L 535.392 304.832579 
L 538.56 308.554443 
L 541.728 310.928399 
L 544.896 308.525027 
L 548.064 308.678418 
L 551.232 311.924796 
L 554.4 308.365105 
L 557.568 305.598264 
L 560.736 304.15362 
L 563.904 306.454337 
L 567.072 302.578928 
L 570.24 300.158074 
L 573.408 303.946451 
L 576.576 306.223024 
L 579.744 308.283017 
L 582.912 306.584263 
L 586.08 304.439287 
L 589.248 305.495923 
L 592.416 299.800054 
L 595.584 304.991041 
L 601.92 303.186972 
L 605.088 297.638104 
L 608.256 304.919073 
L 611.424 300.434116 
L 614.592 299.87346 
L 617.76 306.434089 
L 620.928 305.917833 
L 624.096 304.837567 
L 627.264 301.332122 
L 630.432 301.345765 
L 633.6 305.238199 
L 636.768 306.080112 
L 639.936 306.513248 
L 643.104 305.078636 
L 646.272 304.535684 
L 649.44 304.549182 
L 652.608 307.872936 
L 655.776 305.865746 
L 658.944 307.401005 
L 662.112 305.787907 
L 665.28 308.897022 
L 668.448 305.913065 
L 671.616 304.27958 
L 674.784 303.612007 
L 677.952 303.866269 
L 681.12 303.453699 
L 684.288 303.894733 
L 687.456 304.105789 
L 690.624 307.473266 
L 693.792 305.906902 
L 696.96 303.518548 
L 700.128 305.394389 
L 703.296 305.325207 
L 706.464 307.856357 
L 709.632 305.720047 
L 712.8 306.285896 
L 715.968 306.443333 
L 719.136 308.168723 
L 722.304 305.722908 
L 725.472 305.915339 
L 728.64 306.344146 
L 731.808 309.046302 
L 734.976 308.250959 
L 738.144 306.457125 
L 744.48 301.627124 
L 747.648 305.903454 
L 750.816 303.810516 
L 753.984 303.964718 
L 757.152 307.177839 
L 760.32 305.355946 
L 763.488 307.511707 
L 766.656 307.111666 
L 772.992 305.924289 
L 776.16 300.036483 
L 779.328 307.481996 
L 782.496 304.760391 
L 788.832 305.154786 
L 788.832 305.154786 
" clip-path="url(#p32461c4ef3)" style="fill: none; stroke: #000000; stroke-width: 1.5; stroke-linecap: square"/>
   </g>
   <g id="line2d_3">
    <path d="M 0 306 
L 3.168 306 
L 6.336 309.835327 
L 9.504 303.766489 
L 12.672 306.516287 
L 15.84 302.1928 
L 19.008 303.611149 
L 22.176 304.823424 
L 25.344 306.47682 
L 28.512 305.665715 
L 31.68 306.128772 
L 34.848 305.076038 
L 38.016 302.71822 
L 41.184 304.050243 
L 47.52 305.410813 
L 50.688 304.940467 
L 53.856 305.124278 
L 60.192 306.053044 
L 63.36 306.576565 
L 66.528 305.964492 
L 69.696 305.605843 
L 72.864 306.643835 
L 76.032 306.42853 
L 79.2 306.057972 
L 82.368 306.556693 
L 85.536 308.399778 
L 88.704 303.889567 
L 91.872 305.39191 
L 95.04 307.775456 
L 98.208 304.030777 
L 101.376 304.654059 
L 104.544 305.158782 
L 107.712 307.390307 
L 110.88 307.718754 
L 114.048 305.606991 
L 117.216 305.437842 
L 120.384 304.591794 
L 123.552 303.102937 
L 126.72 302.295928 
L 129.888 303.876772 
L 133.056 303.539519 
L 136.224 304.648385 
L 139.392 303.832525 
L 142.56 304.375881 
L 145.728 305.437036 
L 148.896 304.184325 
L 152.064 302.77427 
L 155.232 304.263149 
L 158.4 306.38683 
L 161.568 305.313511 
L 164.736 307.072077 
L 167.904 305.37299 
L 171.072 307.447358 
L 174.24 307.267385 
L 177.408 306.248053 
L 180.576 306.443005 
L 183.744 304.793272 
L 186.912 304.716107 
L 193.248 306.310658 
L 196.416 305.925805 
L 199.584 305.414044 
L 202.752 310.576646 
L 205.92 308.381618 
L 209.088 308.475317 
L 212.256 309.486696 
L 215.424 307.727887 
L 218.592 308.206335 
L 221.76 307.063194 
L 224.928 306.228294 
L 228.096 308.056234 
L 231.264 307.986497 
L 234.432 306.492001 
L 237.6 304.31979 
L 240.768 306.702675 
L 243.936 306.697753 
L 247.104 306.340503 
L 250.272 305.654291 
L 253.44 306.071628 
L 256.608 305.509399 
L 259.776 305.974525 
L 262.944 305.029081 
L 266.112 303.726619 
L 269.28 306.077372 
L 272.448 308.817951 
L 275.616 308.577715 
L 278.784 305.692058 
L 281.952 304.784527 
L 285.12 305.320142 
L 288.288 304.823097 
L 291.456 303.532221 
L 294.624 303.588636 
L 297.792 305.808198 
L 300.96 304.893035 
L 304.128 307.34475 
L 307.296 305.418289 
L 310.464 304.674273 
L 313.632 306.534976 
L 316.8 308.826776 
L 319.968 309.218855 
L 326.304 308.988057 
L 329.472 308.544741 
L 332.64 310.091428 
L 335.808 308.617457 
L 338.976 307.441046 
L 342.144 306.739297 
L 345.312 308.38459 
L 348.48 303.857255 
L 351.648 304.065092 
L 354.816 304.63449 
L 357.984 305.959063 
L 361.152 304.142872 
L 364.32 303.553445 
L 367.488 306.44977 
L 370.656 304.82803 
L 376.992 305.86016 
L 380.16 306.163503 
L 383.328 307.888915 
L 386.496 308.414865 
L 389.664 311.9111 
L 392.832 309.906163 
L 396 309.409418 
L 399.168 306.577582 
L 402.336 306.492579 
L 405.504 307.10187 
L 408.672 307.001084 
L 411.84 304.756749 
L 415.008 304.641226 
L 418.176 306.075798 
L 421.344 307.830639 
L 424.512 305.665652 
L 427.68 307.098919 
L 430.848 306.533989 
L 434.016 305.595011 
L 437.184 305.940452 
L 440.352 305.248376 
L 443.52 304.908516 
L 446.688 303.608454 
L 449.856 303.166518 
L 453.024 301.905982 
L 456.192 301.589557 
L 459.36 302.550346 
L 462.528 302.820277 
L 468.864 304.153701 
L 472.032 305.496154 
L 475.2 307.575358 
L 478.368 307.57629 
L 484.704 306.444517 
L 487.872 307.490581 
L 491.04 307.870813 
L 494.208 308.370179 
L 497.376 308.6834 
L 500.544 306.988851 
L 506.88 307.190551 
L 510.048 305.665966 
L 513.216 305.497185 
L 516.384 305.843431 
L 519.552 305.240517 
L 522.72 307.170552 
L 525.888 306.259105 
L 529.056 305.675314 
L 532.224 306.777489 
L 535.392 305.472663 
L 538.56 307.459778 
L 541.728 309.16875 
L 544.896 308.269605 
L 548.064 308.437044 
L 551.232 310.410945 
L 557.568 307.029873 
L 560.736 305.764688 
L 563.904 306.648782 
L 567.072 304.329187 
L 570.24 302.400889 
L 573.408 303.95985 
L 576.576 305.302177 
L 579.744 306.779227 
L 582.912 306.217017 
L 586.08 305.068508 
L 589.248 305.499181 
L 592.416 302.144697 
L 595.584 304.489308 
L 598.752 304.103407 
L 601.92 303.564794 
L 605.088 300.209478 
L 608.256 303.723914 
L 611.424 301.446217 
L 614.592 300.818777 
L 617.76 304.379603 
L 620.928 304.693133 
L 624.096 304.413818 
L 627.264 302.477291 
L 630.432 302.128998 
L 633.6 304.188089 
L 636.768 304.981567 
L 639.936 305.548752 
L 643.104 305.012466 
L 646.272 304.708378 
L 649.44 304.666349 
L 652.608 306.573916 
L 655.776 305.789128 
L 658.944 306.707426 
L 662.112 305.978165 
L 665.28 307.752451 
L 668.448 306.3291 
L 671.616 305.248731 
L 674.784 304.574728 
L 677.952 304.456974 
L 681.12 304.045177 
L 687.456 304.181671 
L 690.624 306.137889 
L 693.792 305.610595 
L 696.96 304.296754 
L 700.128 305.165822 
L 703.296 305.184206 
L 706.464 306.707304 
L 709.632 305.787162 
L 712.8 306.099122 
L 715.968 306.24474 
L 719.136 307.315242 
L 722.304 306.13075 
L 725.472 306.128961 
L 728.64 306.31885 
L 731.808 307.917581 
L 734.976 307.781385 
L 738.144 306.871018 
L 741.312 305.356155 
L 744.48 303.549901 
L 747.648 305.494249 
L 750.816 304.38677 
L 753.984 304.310059 
L 757.152 306.092703 
L 760.32 305.347718 
L 763.488 306.610457 
L 766.656 306.634479 
L 772.992 306.09842 
L 776.16 302.593091 
L 779.328 306.202857 
L 782.496 304.981678 
L 788.832 305.13369 
L 788.832 305.13369 
" clip-path="url(#p32461c4ef3)" style="fill: none; stroke: #000000; stroke-width: 1.5; stroke-linecap: square"/>
   </g>
   <g id="line2d_4">
    <path d="M 0 306 
L 3.168 306 
L 6.336 309.556615 
L 9.504 304.409091 
L 12.672 306.445212 
L 15.84 303.128625 
L 22.176 304.720774 
L 25.344 305.865231 
L 28.512 305.45521 
L 31.68 305.791899 
L 34.848 305.197988 
L 38.016 303.734879 
L 41.184 304.353774 
L 47.52 305.103894 
L 50.688 304.884515 
L 53.856 304.999582 
L 60.192 305.589008 
L 63.36 305.960681 
L 69.696 305.556096 
L 72.864 306.13757 
L 76.032 306.10324 
L 79.2 305.950872 
L 82.368 306.241687 
L 85.536 307.296452 
L 88.704 305.00665 
L 91.872 305.648114 
L 95.04 306.904593 
L 98.208 305.007667 
L 104.544 305.378697 
L 107.712 306.552172 
L 110.88 306.87069 
L 114.048 305.856632 
L 117.216 305.731321 
L 120.384 305.223988 
L 123.552 304.315706 
L 126.72 303.681722 
L 129.888 304.320833 
L 133.056 304.067327 
L 136.224 304.592067 
L 139.392 304.155259 
L 142.56 304.400191 
L 145.728 304.977236 
L 148.896 304.362399 
L 152.064 303.569545 
L 155.232 304.252307 
L 158.4 305.411501 
L 161.568 304.984422 
L 164.736 305.987494 
L 167.904 305.237449 
L 171.072 306.384478 
L 174.24 306.449834 
L 177.408 306.022725 
L 180.576 306.166052 
L 183.744 305.310828 
L 186.912 305.183157 
L 193.248 305.970763 
L 199.584 305.556223 
L 202.752 308.333924 
L 205.92 307.499223 
L 209.088 307.689747 
L 212.256 308.360562 
L 215.424 307.591002 
L 218.592 307.870349 
L 224.928 306.820883 
L 228.096 307.721686 
L 231.264 307.736553 
L 234.432 306.963289 
L 237.6 305.706574 
L 240.768 306.783772 
L 243.936 306.769818 
L 247.104 306.56241 
L 250.272 306.156236 
L 253.44 306.317773 
L 256.608 305.970235 
L 259.776 306.147827 
L 262.944 305.612382 
L 266.112 304.807202 
L 269.28 305.917269 
L 272.448 307.426452 
L 275.616 307.515733 
L 278.784 306.122561 
L 281.952 305.56164 
L 285.12 305.730238 
L 288.288 305.39159 
L 291.456 304.6031 
L 294.624 304.462359 
L 297.792 305.529343 
L 300.96 305.076476 
L 304.128 306.369235 
L 307.296 305.478614 
L 310.464 305.063851 
L 313.632 306.006944 
L 316.8 307.334107 
L 319.968 307.786105 
L 326.304 308.082786 
L 329.472 307.977477 
L 332.64 308.904713 
L 338.976 307.710189 
L 342.144 307.278702 
L 345.312 308.084781 
L 348.48 305.676698 
L 351.648 305.499301 
L 354.816 305.584228 
L 357.984 306.15055 
L 361.152 305.130868 
L 364.32 304.6586 
L 367.488 306.064658 
L 370.656 305.243997 
L 380.16 305.908577 
L 383.328 306.893383 
L 386.496 307.336533 
L 389.664 309.408167 
L 392.832 308.720012 
L 396 308.644241 
L 399.168 307.216365 
L 402.336 307.069725 
L 405.504 307.304379 
L 408.672 307.222617 
L 411.84 305.966268 
L 415.008 305.705564 
L 418.176 306.314969 
L 421.344 307.224421 
L 424.512 306.143278 
L 427.68 306.844958 
L 430.848 306.578147 
L 434.016 306.059983 
L 437.184 306.176524 
L 440.352 305.772811 
L 443.52 305.504777 
L 446.688 304.701125 
L 449.856 304.291388 
L 453.024 303.428694 
L 456.192 303.016086 
L 459.36 303.309591 
L 462.528 303.335157 
L 468.864 303.95764 
L 472.032 304.724974 
L 475.2 305.973354 
L 478.368 306.230848 
L 484.704 305.96231 
L 487.872 306.605475 
L 497.376 307.686758 
L 500.544 306.926295 
L 506.88 307.049028 
L 510.048 306.242192 
L 513.216 306.061396 
L 516.384 306.160227 
L 519.552 305.779919 
L 522.72 306.740479 
L 529.056 305.992466 
L 532.224 306.541003 
L 535.392 305.870903 
L 541.728 307.911366 
L 544.896 307.626386 
L 548.064 307.825239 
L 551.232 308.995399 
L 554.4 308.332052 
L 560.736 306.704398 
L 563.904 307.036152 
L 570.24 304.446108 
L 576.576 305.532772 
L 579.744 306.296372 
L 582.912 306.070165 
L 586.08 305.467927 
L 589.248 305.639727 
L 592.416 303.797904 
L 595.584 304.806395 
L 601.92 304.190599 
L 605.088 302.266742 
L 608.256 303.845718 
L 611.424 302.589451 
L 614.592 302.068981 
L 617.76 303.799459 
L 620.928 304.058313 
L 624.096 304.005045 
L 627.264 303.020891 
L 630.432 302.748966 
L 633.6 303.766022 
L 639.936 304.682859 
L 646.272 304.433457 
L 649.44 304.450842 
L 652.608 305.513344 
L 655.776 305.247888 
L 658.944 305.838645 
L 662.112 305.576525 
L 665.28 306.59837 
L 671.616 305.485092 
L 674.784 305.078869 
L 677.952 304.928027 
L 681.12 304.623769 
L 687.456 304.539714 
L 690.624 305.545614 
L 693.792 305.359379 
L 696.96 304.681821 
L 700.128 305.093499 
L 703.296 305.120501 
L 706.464 305.965299 
L 709.632 305.581502 
L 715.968 305.925172 
L 719.136 306.551298 
L 722.304 306.027682 
L 728.64 306.16343 
L 731.808 307.057694 
L 734.976 307.117533 
L 738.144 306.727028 
L 741.312 305.929494 
L 744.48 304.857478 
L 747.648 305.703864 
L 750.816 305.070591 
L 753.984 304.916444 
L 757.152 305.792387 
L 760.32 305.432144 
L 763.488 306.106306 
L 766.656 306.196218 
L 772.992 306.019187 
L 776.16 304.12957 
L 779.328 305.847654 
L 782.496 305.246234 
L 788.832 305.258329 
L 788.832 305.258329 
" clip-path="url(#p32461c4ef3)" style="fill: none; stroke: #000000; stroke-width: 1.5; stroke-linecap: square"/>
   </g>
   <g id="line2d_5">
    <path d="M 0 306 
L 3.168 306 
L 6.336 309.415425 
L 9.504 304.710857 
L 12.672 306.438531 
L 15.84 303.588173 
L 22.176 304.756654 
L 25.344 305.646202 
L 28.512 305.367819 
L 31.68 305.629811 
L 34.848 305.222445 
L 38.016 304.186228 
L 41.184 304.558315 
L 47.52 305.028609 
L 50.688 304.893893 
L 57.024 305.134235 
L 63.36 305.604158 
L 69.696 305.417135 
L 72.864 305.775159 
L 82.368 305.91833 
L 85.536 306.551283 
L 88.704 305.319075 
L 91.872 305.652599 
L 95.04 306.356352 
L 98.208 305.348211 
L 104.544 305.503241 
L 107.712 306.138357 
L 110.88 306.344883 
L 114.048 305.840597 
L 117.216 305.770238 
L 120.384 305.493328 
L 123.552 304.982303 
L 126.72 304.587074 
L 129.888 304.851659 
L 133.056 304.672089 
L 136.224 304.89957 
L 139.392 304.638904 
L 142.56 304.728849 
L 145.728 305.007205 
L 148.896 304.680348 
L 152.064 304.234838 
L 155.232 304.539409 
L 158.4 305.12637 
L 161.568 304.926307 
L 164.736 305.459152 
L 167.904 305.109228 
L 171.072 305.721404 
L 174.24 305.812063 
L 177.408 305.641563 
L 180.576 305.748156 
L 183.744 305.336268 
L 186.912 305.269848 
L 193.248 305.67873 
L 199.584 305.501469 
L 202.752 306.955225 
L 205.92 306.634342 
L 209.088 306.80558 
L 212.256 307.23283 
L 215.424 306.921636 
L 218.592 307.126385 
L 224.928 306.671303 
L 228.096 307.150451 
L 231.264 307.206871 
L 234.432 306.846009 
L 237.6 306.201722 
L 240.768 306.724066 
L 247.104 306.617641 
L 250.272 306.399247 
L 253.44 306.461907 
L 256.608 306.269395 
L 259.776 306.338819 
L 262.944 306.042187 
L 266.112 305.587606 
L 269.28 306.100873 
L 272.448 306.875395 
L 275.616 306.966944 
L 278.784 306.285044 
L 281.952 305.979528 
L 285.12 306.030534 
L 288.288 305.826265 
L 291.456 305.383523 
L 294.624 305.2451 
L 297.792 305.733965 
L 300.96 305.483716 
L 304.128 306.12975 
L 307.296 305.68397 
L 310.464 305.449251 
L 313.632 305.910328 
L 316.8 306.61163 
L 319.968 306.908781 
L 326.304 307.212809 
L 329.472 307.234006 
L 332.64 307.779464 
L 342.144 307.120217 
L 345.312 307.554187 
L 348.48 306.341224 
L 351.648 306.194464 
L 354.816 306.183591 
L 357.984 306.428061 
L 361.152 305.871676 
L 364.32 305.563844 
L 367.488 306.218705 
L 370.656 305.781227 
L 380.16 306.030292 
L 383.328 306.532512 
L 386.496 306.795514 
L 389.664 307.920821 
L 392.832 307.683043 
L 396 307.728096 
L 399.168 307.061269 
L 402.336 306.997166 
L 405.504 307.122435 
L 408.672 307.094129 
L 411.84 306.44753 
L 415.008 306.271299 
L 418.176 306.545753 
L 421.344 307.001286 
L 424.512 306.45734 
L 427.68 306.798734 
L 430.848 306.661764 
L 434.016 306.386468 
L 437.184 306.420876 
L 443.52 306.014787 
L 446.688 305.555064 
L 449.856 305.266386 
L 453.024 304.735608 
L 456.192 304.41153 
L 459.36 304.450445 
L 462.528 304.366707 
L 468.864 304.543014 
L 472.032 304.891198 
L 475.2 305.525724 
L 478.368 305.696934 
L 484.704 305.643445 
L 487.872 306.006413 
L 497.376 306.757251 
L 500.544 306.433977 
L 506.88 306.577141 
L 510.048 306.197369 
L 513.216 306.10562 
L 516.384 306.151343 
L 519.552 305.952147 
L 522.72 306.43953 
L 529.056 306.078659 
L 532.224 306.356911 
L 535.392 306.019243 
L 541.728 307.100674 
L 544.896 307.018992 
L 548.064 307.169289 
L 551.232 307.837124 
L 554.4 307.585365 
L 560.736 306.817636 
L 563.904 306.982496 
L 570.24 305.585887 
L 576.576 305.996479 
L 579.744 306.356457 
L 582.912 306.233056 
L 586.08 305.903109 
L 589.248 305.95672 
L 592.416 304.965862 
L 595.584 305.396475 
L 601.92 304.972404 
L 605.088 303.904159 
L 608.256 304.591636 
L 611.424 303.872814 
L 614.592 303.496641 
L 617.76 304.281647 
L 620.928 304.374785 
L 624.096 304.320664 
L 627.264 303.782256 
L 630.432 303.575169 
L 633.6 304.038538 
L 639.936 304.494693 
L 646.272 304.391494 
L 649.44 304.406762 
L 652.608 304.968912 
L 655.776 304.877547 
L 658.944 305.217101 
L 662.112 305.131246 
L 665.28 305.702973 
L 674.784 305.045483 
L 687.456 304.731229 
L 690.624 305.238938 
L 693.792 305.162475 
L 696.96 304.82556 
L 700.128 305.026359 
L 703.296 305.045828 
L 706.464 305.48784 
L 709.632 305.328771 
L 715.968 305.552819 
L 719.136 305.912373 
L 722.304 305.692788 
L 728.64 305.813036 
L 731.808 306.307647 
L 734.976 306.401023 
L 738.144 306.258262 
L 741.312 305.8794 
L 744.48 305.321219 
L 747.648 305.723558 
L 750.816 305.390184 
L 753.984 305.281951 
L 757.152 305.708239 
L 760.32 305.529282 
L 763.488 305.873376 
L 769.824 305.930793 
L 772.992 305.889336 
L 776.16 304.912834 
L 779.328 305.742641 
L 782.496 305.435259 
L 788.832 305.411933 
L 788.832 305.411933 
" clip-path="url(#p32461c4ef3)" style="fill: none; stroke: #000000; stroke-width: 1.5; stroke-linecap: square"/>
   </g>
   <g id="line2d_6">
    <path d="M 0 306 
L 3.168 306 
L 6.336 309.344597 
L 9.504 304.855668 
L 12.672 306.441756 
L 15.84 303.812528 
L 22.176 304.797697 
L 25.344 305.567476 
L 28.512 305.339317 
L 31.68 305.563367 
L 34.848 305.233492 
L 38.016 304.388264 
L 41.184 304.666672 
L 47.52 305.019869 
L 50.688 304.917384 
L 57.024 305.094998 
L 63.36 305.44789 
L 69.696 305.333385 
L 72.864 305.589427 
L 82.368 305.718914 
L 85.536 306.154889 
L 88.704 305.362222 
L 91.872 305.578543 
L 95.04 306.040366 
L 98.208 305.409061 
L 104.544 305.502388 
L 107.712 305.901247 
L 110.88 306.042787 
L 114.048 305.747246 
L 117.216 305.709024 
L 120.384 305.543517 
L 126.72 304.981242 
L 129.888 305.119163 
L 133.056 304.999028 
L 136.224 305.116863 
L 139.392 304.953091 
L 142.56 304.990047 
L 145.728 305.138801 
L 152.064 304.674835 
L 155.232 304.827853 
L 158.4 305.148247 
L 161.568 305.033789 
L 164.736 305.3295 
L 167.904 305.138869 
L 171.072 305.480337 
L 174.24 305.542182 
L 177.408 305.459939 
L 180.576 305.527411 
L 183.744 305.310137 
L 186.912 305.274776 
L 196.416 305.479404 
L 199.584 305.419861 
L 202.752 306.212587 
L 205.92 306.072238 
L 209.088 306.190986 
L 212.256 306.446766 
L 215.424 306.315435 
L 218.592 306.450013 
L 224.928 306.260996 
L 228.096 306.534874 
L 231.264 306.591529 
L 234.432 306.427342 
L 237.6 306.104008 
L 240.768 306.382799 
L 247.104 306.356009 
L 250.272 306.252678 
L 253.44 306.291562 
L 256.608 306.197876 
L 259.776 306.237415 
L 266.112 305.847613 
L 269.28 306.10402 
L 272.448 306.507489 
L 275.616 306.571523 
L 278.784 306.233675 
L 281.952 306.076892 
L 285.12 306.09947 
L 288.288 305.991639 
L 291.456 305.752786 
L 294.624 305.665748 
L 297.792 305.902059 
L 300.96 305.763566 
L 304.128 306.085567 
L 310.464 305.729802 
L 313.632 305.956131 
L 316.8 306.314859 
L 323.136 306.587492 
L 329.472 306.707461 
L 332.64 307.010618 
L 342.144 306.750462 
L 345.312 306.988846 
L 348.48 306.390595 
L 354.816 306.300578 
L 357.984 306.421191 
L 361.152 306.137184 
L 364.32 305.967611 
L 367.488 306.28675 
L 370.656 306.059013 
L 380.16 306.157924 
L 383.328 306.409537 
L 386.496 306.548332 
L 389.664 307.13388 
L 392.832 307.045742 
L 396 307.096012 
L 399.168 306.781714 
L 405.504 306.837103 
L 408.672 306.834259 
L 411.84 306.514337 
L 415.008 306.42405 
L 421.344 306.79129 
L 424.512 306.521981 
L 427.68 306.693109 
L 443.52 306.285019 
L 456.192 305.372752 
L 468.864 305.285272 
L 472.032 305.43288 
L 475.2 305.73582 
L 481.536 305.806145 
L 484.704 305.775487 
L 494.208 306.224047 
L 497.376 306.358965 
L 500.544 306.210322 
L 506.88 306.305628 
L 510.048 306.122211 
L 519.552 306.00451 
L 522.72 306.252115 
L 529.056 306.081782 
L 532.224 306.224965 
L 535.392 306.059082 
L 541.728 306.618886 
L 544.896 306.598118 
L 548.064 306.693839 
L 551.232 307.052654 
L 557.568 306.784593 
L 560.736 306.610882 
L 563.904 306.701909 
L 570.24 305.997861 
L 576.576 306.176128 
L 579.744 306.352461 
L 589.248 306.139664 
L 592.416 305.628367 
L 595.584 305.819876 
L 601.92 305.563389 
L 605.088 304.992983 
L 608.256 305.29562 
L 611.424 304.899178 
L 614.592 304.661937 
L 617.76 305.012295 
L 624.096 304.974926 
L 627.264 304.671502 
L 630.432 304.529062 
L 636.768 304.815336 
L 639.936 304.905097 
L 649.44 304.805013 
L 652.608 305.07473 
L 655.776 305.022723 
L 658.944 305.188976 
L 662.112 305.146433 
L 665.28 305.437237 
L 681.12 304.990101 
L 687.456 304.936871 
L 690.624 305.188071 
L 693.792 305.152026 
L 696.96 304.981875 
L 706.464 305.30998 
L 709.632 305.235315 
L 725.472 305.480448 
L 728.64 305.534627 
L 731.808 305.79837 
L 734.976 305.86799 
L 738.144 305.81576 
L 744.48 305.368547 
L 747.648 305.572247 
L 750.816 305.407786 
L 753.984 305.355431 
L 757.152 305.570116 
L 760.32 305.484027 
L 763.488 305.660652 
L 772.992 305.695481 
L 776.16 305.206002 
L 779.328 305.617799 
L 782.496 305.466595 
L 788.832 305.449787 
L 788.832 305.449787 
" clip-path="url(#p32461c4ef3)" style="fill: none; stroke: #000000; stroke-width: 1.5; stroke-linecap: square"/>
   </g>
   <g id="line2d_7">
    <path d="M 0 306 
L 3.168 306 
L 6.336 309.309154 
L 9.504 304.926423 
L 12.672 306.444889 
L 15.84 303.922929 
L 22.176 304.823808 
L 25.344 305.536507 
L 28.512 305.330048 
L 31.68 305.53549 
L 34.848 305.240207 
L 38.016 304.482977 
L 44.352 304.852369 
L 47.52 305.023381 
L 50.688 304.9347 
L 57.024 305.083888 
L 63.36 305.381992 
L 69.696 305.29437 
L 72.864 305.504539 
L 82.368 305.619878 
L 85.536 305.967795 
L 88.704 305.357543 
L 91.872 305.525426 
L 95.04 305.883093 
L 98.208 305.407884 
L 104.544 305.478881 
L 107.712 305.777959 
L 110.88 305.887984 
L 114.048 305.676252 
L 120.384 305.532864 
L 126.72 305.125327 
L 129.888 305.218469 
L 133.056 305.129742 
L 136.224 305.208141 
L 139.392 305.090271 
L 148.896 305.073418 
L 152.064 304.885237 
L 155.232 304.982439 
L 158.4 305.194187 
L 161.568 305.115701 
L 164.736 305.311016 
L 167.904 305.18468 
L 171.072 305.409421 
L 180.576 305.44697 
L 183.744 305.308303 
L 190.08 305.345132 
L 196.416 305.41925 
L 199.584 305.3832 
L 202.752 305.885066 
L 205.92 305.806069 
L 218.592 306.077662 
L 224.928 305.980502 
L 228.096 306.155634 
L 231.264 306.200391 
L 237.6 305.924021 
L 240.768 306.096868 
L 253.44 306.069646 
L 266.112 305.826606 
L 275.616 306.260721 
L 281.952 305.985685 
L 288.288 305.941359 
L 294.624 305.754271 
L 297.792 305.887115 
L 300.96 305.808544 
L 304.128 305.99053 
L 310.464 305.791067 
L 326.304 306.340566 
L 329.472 306.366904 
L 332.64 306.544019 
L 342.144 306.429273 
L 345.312 306.568719 
L 348.48 306.248363 
L 354.816 306.204558 
L 357.984 306.273042 
L 364.32 306.028398 
L 367.488 306.201352 
L 370.656 306.079108 
L 380.16 306.132412 
L 386.496 306.347795 
L 389.664 306.668972 
L 418.176 306.418111 
L 421.344 306.545367 
L 424.512 306.407457 
L 427.68 306.501169 
L 443.52 306.296531 
L 456.192 305.800007 
L 472.032 305.782865 
L 475.2 305.933673 
L 506.88 306.219401 
L 513.216 306.103027 
L 538.56 306.227706 
L 541.728 306.382576 
L 548.064 306.430778 
L 551.232 306.621571 
L 563.904 306.468501 
L 570.24 306.113249 
L 582.912 306.259896 
L 595.584 306.010714 
L 601.92 305.870155 
L 605.088 305.571529 
L 608.256 305.715241 
L 614.592 305.369169 
L 617.76 305.533411 
L 624.096 305.492353 
L 630.432 305.23923 
L 639.936 305.39158 
L 649.44 305.30844 
L 652.608 305.434956 
L 658.944 305.477203 
L 662.112 305.449219 
L 665.28 305.590795 
L 687.456 305.295205 
L 690.624 305.415198 
L 703.296 305.340132 
L 706.464 305.448538 
L 712.8 305.439283 
L 741.312 305.613591 
L 744.48 305.475507 
L 747.648 305.576345 
L 753.984 305.464135 
L 757.152 305.57042 
L 760.32 305.526871 
L 766.656 305.638848 
L 772.992 305.637008 
L 776.16 305.390217 
L 779.328 305.594685 
L 785.664 305.512675 
L 788.832 305.508668 
L 788.832 305.508668 
" clip-path="url(#p32461c4ef3)" style="fill: none; stroke: #000000; stroke-width: 1.5; stroke-linecap: square"/>
   </g>
   <g id="line2d_8">
    <path d="M 0 306 
L 3.168 306 
L 6.336 309.291429 
L 9.504 304.961372 
L 12.672 306.446818 
L 15.84 303.977634 
L 22.176 304.838214 
L 25.344 305.523166 
L 28.512 305.326776 
L 31.68 305.523073 
L 34.848 305.244054 
L 38.016 304.528776 
L 44.352 304.869297 
L 47.52 305.027128 
L 50.688 304.944806 
L 57.024 305.080707 
L 63.36 305.352869 
L 69.696 305.276548 
L 72.864 305.465429 
L 82.368 305.572483 
L 85.536 305.879952 
L 88.704 305.350262 
L 91.872 305.496597 
L 95.04 305.807441 
L 98.208 305.400647 
L 104.544 305.462102 
L 107.712 305.717072 
L 110.88 305.812321 
L 114.048 305.636334 
L 120.384 305.518803 
L 126.72 305.17999 
L 129.888 305.255205 
L 133.056 305.181216 
L 136.224 305.243877 
L 139.392 305.146815 
L 148.896 305.129908 
L 152.064 304.977557 
L 164.736 305.30959 
L 167.904 305.210343 
L 171.072 305.385648 
L 180.576 305.416632 
L 186.912 305.292872 
L 199.584 305.368852 
L 202.752 305.747599 
L 205.92 305.691174 
L 218.592 305.905581 
L 224.928 305.840599 
L 231.264 306.008118 
L 237.6 305.814242 
L 240.768 305.941392 
L 253.44 305.933012 
L 269.28 305.87696 
L 272.448 306.046079 
L 275.616 306.08027 
L 281.952 305.894135 
L 288.288 305.866778 
L 294.624 305.739904 
L 297.792 305.831056 
L 300.96 305.778381 
L 304.128 305.902714 
L 310.464 305.769714 
L 326.304 306.147783 
L 345.312 306.319359 
L 348.48 306.113244 
L 364.32 305.979575 
L 367.488 306.092008 
L 373.824 306.022208 
L 386.496 306.192553 
L 389.664 306.398894 
L 418.176 306.26786 
L 421.344 306.349103 
L 424.512 306.266294 
L 430.848 306.310236 
L 468.864 305.84994 
L 497.376 306.161598 
L 503.712 306.131812 
L 513.216 306.082745 
L 544.896 306.247588 
L 557.568 306.328371 
L 576.576 306.16314 
L 582.912 306.19841 
L 617.76 305.771642 
L 624.096 305.742752 
L 630.432 305.593699 
L 639.936 305.667319 
L 655.776 305.65523 
L 668.448 305.718529 
L 687.456 305.570333 
L 693.792 305.617651 
L 700.128 305.584487 
L 715.968 305.639022 
L 722.304 305.660411 
L 772.992 305.708924 
L 776.16 305.575292 
L 779.328 305.683096 
L 788.832 305.63301 
L 788.832 305.63301 
" clip-path="url(#p32461c4ef3)" style="fill: none; stroke: #000000; stroke-width: 1.5; stroke-linecap: square"/>
   </g>
   <g id="line2d_9">
    <path d="M 0 306 
L 3.168 306 
L 6.336 309.282566 
L 9.504 304.978737 
L 12.672 306.447871 
L 15.84 304.004856 
L 22.176 304.845747 
L 25.344 305.517036 
L 28.512 305.325493 
L 31.68 305.517266 
L 34.848 305.246123 
L 38.016 304.551293 
L 44.352 304.878017 
L 47.52 305.029498 
L 50.688 304.950225 
L 57.024 305.079732 
L 63.36 305.339341 
L 69.696 305.268175 
L 72.864 305.446864 
L 82.368 305.54957 
L 85.536 305.837814 
L 88.704 305.345669 
L 91.872 305.481908 
L 95.04 305.770755 
L 98.208 305.395659 
L 104.544 305.4527 
L 107.712 305.687165 
L 110.88 305.775363 
L 114.048 305.615654 
L 120.384 305.509867 
L 126.72 305.202823 
L 129.888 305.270115 
L 133.056 305.203076 
L 136.224 305.258812 
L 142.56 305.18464 
L 145.728 305.254096 
L 152.064 305.019248 
L 164.736 305.309959 
L 167.904 305.22285 
L 171.072 305.376079 
L 180.576 305.403734 
L 186.912 305.296628 
L 199.584 305.362692 
L 202.752 305.686962 
L 209.088 305.695102 
L 212.256 305.805102 
L 218.592 305.826651 
L 224.928 305.774413 
L 231.264 305.917731 
L 240.768 305.8653 
L 259.776 305.855955 
L 269.28 305.821006 
L 275.616 305.98891 
L 281.952 305.839979 
L 288.288 305.819436 
L 294.624 305.718279 
L 297.792 305.79174 
L 300.96 305.750071 
L 304.128 305.849847 
L 310.464 305.744968 
L 332.64 306.162027 
L 380.16 305.992607 
L 396 306.267242 
L 402.336 306.196606 
L 408.672 306.228018 
L 415.008 306.135273 
L 430.848 306.207354 
L 472.032 305.902512 
L 478.368 305.982733 
L 494.208 306.068767 
L 506.88 306.093512 
L 519.552 306.031535 
L 525.888 306.066284 
L 538.56 306.10247 
L 551.232 306.26904 
L 567.072 306.152984 
L 573.408 306.094615 
L 589.248 306.111818 
L 592.416 306.010114 
L 598.752 306.020953 
L 633.6 305.753904 
L 671.616 305.774054 
L 696.96 305.690071 
L 741.312 305.775054 
L 750.816 305.728877 
L 766.656 305.771264 
L 788.832 305.717604 
L 788.832 305.717604 
" clip-path="url(#p32461c4ef3)" style="fill: none; stroke: #000000; stroke-width: 1.5; stroke-linecap: square"/>
   </g>
  </g>
 </g>
 <defs>
  <clipPath id="p32461c4ef3">
   <rect x="0" y="0" width="792" height="612"/>
  </clipPath>
 </defs>
</svg>
