<?xml version="1.0" encoding="utf-8" standalone="no"?>
<!DOCTYPE svg PUBLIC "-//W3C//DTD SVG 1.1//EN"
  "http://www.w3.org/Graphics/SVG/1.1/DTD/svg11.dtd">
<svg xmlns:xlink="http://www.w3.org/1999/xlink" width="792pt" height="612pt" viewBox="0 0 792 612" xmlns="http://www.w3.org/2000/svg" version="1.1">
 <metadata>
  <rdf:RDF xmlns:dc="http://purl.org/dc/elements/1.1/" xmlns:cc="http://creativecommons.org/ns#" xmlns:rdf="http://www.w3.org/1999/02/22-rdf-syntax-ns#">
   <cc:Work>
    <dc:type rdf:resource="http://purl.org/dc/dcmitype/StillImage"/>
    <dc:date>2023-01-30T17:17:51.706553</dc:date>
    <dc:format>image/svg+xml</dc:format>
    <dc:creator>
     <cc:Agent>
      <dc:title>Matplotlib v3.6.2, https://matplotlib.org/</dc:title>
     </cc:Agent>
    </dc:creator>
   </cc:Work>
  </rdf:RDF>
 </metadata>
 <defs>
  <style type="text/css">*{stroke-linejoin: round; stroke-linecap: butt}</style>
 </defs>
 <g id="figure_1">
  <g id="patch_1">
   <path d="M 0 612 
L 792 612 
L 792 0 
L 0 0 
z
" style="fill: #ffffff"/>
  </g>
  <g id="axes_1">
   <g id="line2d_1">
    <path d="M 0 459 
L 3.168 459.208435 
L 6.336 459.87905 
L 9.504 461.872771 
L 12.672 460.821536 
L 15.84 461.401528 
L 19.008 459.761239 
L 22.176 448.426085 
L 25.344 450.192457 
L 28.512 450.654477 
L 31.68 452.203719 
L 34.848 449.023901 
L 38.016 448.398912 
L 41.184 449.214123 
L 44.352 451.034976 
L 47.52 453.725933 
L 50.688 451.469846 
L 53.856 449.648928 
L 57.024 454.215242 
L 60.192 454.106505 
L 63.36 452.883262 
L 66.528 455.43856 
L 69.696 461.111532 
L 72.864 446.469856 
L 76.032 450.844725 
L 79.2 459.915299 
L 82.368 445.817877 
L 85.536 446.035197 
L 88.704 446.578524 
L 91.872 456.390065 
L 95.04 459.34437 
L 98.208 452.094995 
L 101.376 450.681655 
L 104.544 445.682055 
L 107.712 436.317254 
L 110.88 428.161967 
L 114.048 430.598612 
L 117.216 425.889337 
L 120.384 427.83721 
L 123.552 421.808187 
L 126.72 421.376083 
L 129.888 424.294053 
L 133.056 417.274545 
L 136.224 407.77624 
L 139.392 410.435953 
L 142.56 418.380247 
L 145.728 413.69118 
L 148.896 421.29507 
L 152.064 414.498987 
L 155.232 423.753468 
L 158.4 424.915845 
L 161.568 421.700155 
L 164.736 423.023834 
L 167.904 415.549551 
L 171.072 413.448893 
L 174.24 415.334013 
L 177.408 418.650003 
L 180.576 417.220621 
L 183.744 414.579783 
L 186.912 439.084359 
L 190.08 434.880083 
L 193.248 438.813007 
L 196.416 447.366408 
L 199.584 443.753642 
L 202.752 448.589122 
L 205.92 446.171026 
L 209.088 443.590701 
L 212.256 452.937627 
L 215.424 455.574488 
L 218.592 451.034976 
L 221.76 441.011351 
L 224.928 450.355521 
L 228.096 451.361127 
L 231.264 450.600121 
L 234.432 447.69245 
L 237.6 449.349998 
L 240.768 446.660026 
L 243.936 448.26305 
L 247.104 443.590701 
L 250.272 435.747754 
L 253.44 444.079535 
L 256.608 457.722209 
L 259.776 459.53468 
L 262.944 450.110926 
L 266.112 445.193114 
L 269.28 446.062363 
L 272.448 442.585987 
L 275.616 434.554751 
L 278.784 431.275749 
L 281.952 438.731604 
L 285.12 433.931267 
L 288.288 444.432602 
L 291.456 436.8597 
L 294.624 432.359419 
L 297.792 439.599967 
L 300.96 451.660106 
L 304.128 457.722209 
L 307.296 460.014985 
L 310.464 461.283717 
L 313.632 461.98152 
L 316.8 465.751466 
L 319.968 465.298347 
L 323.136 464.61867 
L 326.304 464.147426 
L 329.472 467.210508 
L 332.64 460.91216 
L 335.808 460.214358 
L 338.976 460.232482 
L 342.144 461.745898 
L 345.312 458.184388 
L 348.48 452.611441 
L 351.648 460.477166 
L 354.816 456.091018 
L 357.984 456.825047 
L 361.152 458.537819 
L 364.32 459.280933 
L 367.488 462.217142 
L 370.656 463.993366 
L 373.824 470.917017 
L 376.992 470.463899 
L 380.16 471.542321 
L 383.328 468.497364 
L 386.496 468.6333 
L 389.664 469.874845 
L 392.832 470.246402 
L 396 467.020198 
L 399.168 466.222709 
L 402.336 467.94456 
L 405.504 470.862643 
L 408.672 468.180181 
L 411.84 470.382337 
L 415.008 469.983593 
L 418.176 468.705799 
L 421.344 469.086418 
L 424.512 467.94456 
L 427.68 467.020198 
L 430.848 464.355861 
L 434.016 462.461826 
L 437.184 459.018125 
L 440.352 451.578565 
L 443.52 449.947866 
L 446.688 446.252524 
L 449.856 445.057303 
L 453.024 444.649883 
L 456.192 448.643469 
L 459.36 458.1572 
L 462.528 459.489368 
L 465.696 459.308121 
L 468.864 458.592193 
L 472.032 460.803412 
L 475.2 462.144643 
L 481.536 465.515844 
L 484.704 464.011491 
L 487.872 464.555233 
L 491.04 465.298347 
L 494.208 463.359 
L 497.376 462.914944 
L 500.544 463.241189 
L 503.712 462.17183 
L 506.88 464.990227 
L 513.216 463.232127 
L 516.384 464.890541 
L 519.552 463.114316 
L 522.72 466.141148 
L 525.888 469.66641 
L 529.056 469.720784 
L 532.224 471.098265 
L 535.392 475.520701 
L 538.56 474.94071 
L 544.896 471.823254 
L 548.064 473.164485 
L 551.232 469.657348 
L 554.4 465.669905 
L 557.568 466.512705 
L 560.736 467.736125 
L 563.904 469.829533 
L 567.072 469.28579 
L 570.24 467.491441 
L 573.408 467.763312 
L 576.576 462.008707 
L 579.744 464.011491 
L 582.912 462.652135 
L 586.08 460.866848 
L 589.248 444.486922 
L 592.416 453.454099 
L 595.584 438.894411 
L 598.752 429.244713 
L 601.92 439.274314 
L 605.088 438.433138 
L 608.256 435.178326 
L 611.424 423.375117 
L 614.592 416.627531 
L 617.76 421.160055 
L 624.096 423.753468 
L 627.264 420.404094 
L 630.432 417.517219 
L 633.6 415.44178 
L 636.768 422.861718 
L 639.936 419.756295 
L 643.104 423.996719 
L 646.272 421.376083 
L 649.44 430.029913 
L 652.608 425.591849 
L 655.776 420.75505 
L 658.944 416.357991 
L 662.112 413.69118 
L 665.28 409.441523 
L 671.616 404.664247 
L 674.784 411.619118 
L 677.952 409.226573 
L 681.12 402.25324 
L 684.288 404.047806 
L 687.456 402.976215 
L 690.624 409.226573 
L 693.792 405.763612 
L 696.96 406.970945 
L 700.128 407.856787 
L 703.296 413.421974 
L 706.464 409.495264 
L 709.632 409.656495 
L 712.8 410.75857 
L 715.968 419.027709 
L 719.136 421.106051 
L 722.304 419.189599 
L 725.472 413.045139 
L 728.64 403.297628 
L 731.808 409.25344 
L 734.976 403.136914 
L 738.144 400.460434 
L 741.312 406.756254 
L 744.48 403.244055 
L 747.648 408.474421 
L 750.816 409.468393 
L 753.984 409.172838 
L 757.152 408.313281 
L 760.32 391.418287 
L 763.488 404.101402 
L 766.656 398.482431 
L 769.824 397.387489 
L 772.992 396.426664 
L 776.16 391.285304 
L 779.328 415.172372 
L 782.496 418.865828 
L 785.664 417.759916 
L 788.832 414.283545 
L 788.832 414.283545 
" clip-path="url(#pcc7d5fad32)" style="fill: none; stroke: #000000; stroke-width: 1.5; stroke-linecap: square"/>
   </g>
   <g id="line2d_2">
    <path d="M 0 459 
L 3.168 459 
L 6.336 459.138956 
L 9.504 459.561867 
L 12.672 460.794349 
L 15.84 460.808381 
L 19.008 461.109662 
L 22.176 460.430142 
L 25.344 455.828221 
L 28.512 452.992844 
L 31.68 451.806027 
L 34.848 451.986378 
L 38.016 450.468601 
L 41.184 449.402217 
L 44.352 449.274867 
L 47.52 450.134799 
L 50.688 451.94065 
L 53.856 451.707751 
L 57.024 450.676326 
L 60.192 452.44963 
L 63.36 453.288016 
L 66.528 453.094432 
L 69.696 454.278672 
L 72.864 459.278197 
L 76.032 453.136752 
L 79.2 451.989469 
L 82.368 456.891148 
L 85.536 451.336932 
L 88.704 448.669896 
L 91.872 447.611791 
L 95.04 452.002153 
L 98.208 456.007008 
L 101.376 454.061945 
L 104.544 452.37139 
L 107.712 448.994702 
L 110.88 442.634222 
L 114.048 435.357175 
L 117.216 432.945895 
L 120.384 429.356191 
L 123.552 428.533672 
L 126.72 425.109883 
L 129.888 423.185112 
L 133.056 423.697719 
L 136.224 420.446969 
L 139.392 414.063053 
L 142.56 412.209358 
L 145.728 415.278124 
L 148.896 414.456848 
L 152.064 417.872654 
L 155.232 416.171762 
L 158.4 419.958874 
L 161.568 422.451277 
L 164.736 422.103073 
L 167.904 422.588155 
L 171.072 419.060933 
L 174.24 416.252826 
L 177.408 415.781699 
L 180.576 417.223581 
L 183.744 417.209307 
L 186.912 415.873952 
L 190.08 427.492959 
L 196.416 435.054561 
L 199.584 441.273974 
L 202.752 442.569589 
L 205.92 445.637633 
L 209.088 445.961265 
L 212.256 444.83298 
L 215.424 448.911688 
L 218.592 452.283344 
L 221.76 451.683129 
L 224.928 446.333064 
L 228.096 448.357034 
L 231.264 449.864418 
L 234.432 450.24095 
L 237.6 448.974668 
L 240.768 449.155298 
L 243.936 447.890105 
L 247.104 448.071141 
L 250.272 445.835667 
L 253.44 440.760874 
L 256.608 442.405719 
L 259.776 450.075436 
L 262.944 455.364573 
L 266.112 452.739037 
L 269.28 448.96252 
L 272.448 447.508011 
L 275.616 445.044627 
L 278.784 439.794836 
L 281.952 435.508171 
L 285.12 437.08244 
L 288.288 435.454365 
L 291.456 439.930535 
L 294.624 438.378554 
L 297.792 435.341119 
L 300.96 437.464227 
L 304.128 444.592261 
L 307.296 451.207537 
L 310.464 456.67163 
L 313.632 459.774673 
L 316.8 460.893467 
L 319.968 463.350187 
L 323.136 464.354048 
L 326.304 464.510063 
L 329.472 464.343636 
L 332.64 465.794006 
L 335.808 463.354842 
L 338.976 461.782503 
L 342.144 461.004063 
L 345.312 461.367127 
L 348.48 460.034745 
L 351.648 457.312061 
L 354.816 459.450062 
L 357.984 458.166583 
L 361.152 457.480299 
L 364.32 458.001009 
L 367.488 458.916306 
L 373.824 462.30478 
L 376.992 466.638441 
L 380.16 468.570752 
L 383.328 470.08303 
L 386.496 469.310241 
L 389.664 468.990961 
L 396 469.865782 
L 399.168 468.448925 
L 402.336 467.326613 
L 405.504 467.630646 
L 408.672 469.245312 
L 411.84 468.712125 
L 415.008 469.55066 
L 418.176 469.76734 
L 421.344 469.233549 
L 424.512 469.164035 
L 427.68 468.557673 
L 430.848 467.787123 
L 437.184 464.249067 
L 443.52 459.042256 
L 446.688 454.462033 
L 449.856 450.272283 
L 453.024 447.584514 
L 456.192 446.041802 
L 459.36 447.29076 
L 462.528 452.701088 
L 465.696 456.587193 
L 468.864 458.272132 
L 472.032 458.449115 
L 475.2 459.821762 
L 478.368 460.998484 
L 484.704 464.003175 
L 487.872 464.01771 
L 491.04 464.296405 
L 494.208 464.809122 
L 497.376 464.092874 
L 500.544 463.50805 
L 503.712 463.37677 
L 506.88 462.770977 
L 510.048 463.879571 
L 513.216 463.972825 
L 516.384 463.599882 
L 519.552 464.244412 
L 522.72 463.678884 
L 525.888 464.916342 
L 529.056 467.303974 
L 535.392 469.824699 
L 538.56 472.695161 
L 541.728 473.840893 
L 544.896 473.646283 
L 548.064 472.751845 
L 551.232 472.971936 
L 554.4 471.314624 
L 557.568 468.484322 
L 560.736 467.489522 
L 563.904 467.59756 
L 567.072 468.703524 
L 570.24 468.986555 
L 573.408 468.230504 
L 576.576 467.986318 
L 579.744 464.982515 
L 582.912 464.493751 
L 586.08 463.565373 
L 589.248 462.202642 
L 592.416 456.45286 
L 595.584 454.882063 
L 598.752 446.795225 
L 601.92 437.902538 
L 605.088 438.532093 
L 608.256 438.412921 
L 611.424 436.727273 
L 617.76 423.233857 
L 620.928 422.133686 
L 624.096 422.249362 
L 627.264 422.990563 
L 630.432 421.66012 
L 636.768 417.454936 
L 639.936 420.155964 
L 643.104 419.962261 
L 646.272 421.984331 
L 649.44 421.678125 
L 652.608 425.863564 
L 655.776 425.737885 
L 658.944 423.251766 
L 662.112 419.804451 
L 665.28 416.727955 
L 668.448 413.061604 
L 671.616 410.034752 
L 674.784 407.315024 
L 677.952 409.430037 
L 681.12 409.296324 
L 684.288 405.735424 
L 690.624 403.900584 
L 693.792 406.561369 
L 696.96 406.159873 
L 700.128 406.569892 
L 703.296 407.205868 
L 706.464 410.319886 
L 709.632 409.921763 
L 712.8 409.800139 
L 715.968 410.294586 
L 719.136 414.67632 
L 722.304 417.919294 
L 725.472 418.578383 
L 728.64 415.820375 
L 731.808 409.529828 
L 734.976 409.391155 
L 738.144 406.248771 
L 741.312 403.332188 
L 744.48 405.019488 
L 747.648 404.096673 
L 750.816 406.263395 
L 753.984 407.858261 
L 757.152 408.526978 
L 760.32 408.418284 
L 763.488 399.874661 
L 766.656 401.993942 
L 769.824 400.22111 
L 772.992 398.792242 
L 776.16 397.585479 
L 779.328 394.396757 
L 782.496 404.768111 
L 785.664 411.826396 
L 788.832 414.843208 
L 788.832 414.843208 
" clip-path="url(#pcc7d5fad32)" style="fill: none; stroke: #000000; stroke-width: 1.5; stroke-linecap: square"/>
   </g>
   <g id="line2d_3">
    <path d="M 0 459 
L 3.168 459 
L 6.336 459.122098 
L 9.504 459.465059 
L 12.672 460.405329 
L 15.84 460.553411 
L 19.008 460.837306 
L 22.176 460.491574 
L 25.344 458.772652 
L 28.512 456.143078 
L 31.68 454.483488 
L 34.848 453.800643 
L 38.016 452.379195 
L 41.184 451.200242 
L 44.352 450.613907 
L 47.52 450.737919 
L 50.688 451.616459 
L 53.856 451.564869 
L 57.024 450.992216 
L 60.192 451.927628 
L 63.36 452.550261 
L 66.528 452.634494 
L 69.696 453.443382 
L 72.864 456.930713 
L 76.032 453.863843 
L 79.2 452.980255 
L 82.368 455.560214 
L 85.536 452.698699 
L 88.704 450.74317 
L 91.872 449.521111 
L 95.04 451.54092 
L 98.208 454.03829 
L 101.376 453.467217 
L 104.544 452.650388 
L 107.712 450.604406 
L 110.88 446.396308 
L 114.048 441.019079 
L 117.216 437.939006 
L 120.384 434.372069 
L 123.552 432.413916 
L 126.72 429.275809 
L 129.888 426.926211 
L 133.056 426.11217 
L 136.224 423.488136 
L 139.392 418.832019 
L 142.56 416.328445 
L 145.728 416.885817 
L 148.896 415.896761 
L 152.064 417.441529 
L 155.232 416.537948 
L 158.4 418.624229 
L 161.568 420.452471 
L 164.736 420.810439 
L 167.904 421.449862 
L 174.24 417.856923 
L 177.408 417.110281 
L 180.576 417.55803 
L 183.744 417.451086 
L 186.912 416.606655 
L 190.08 423.209873 
L 196.416 430.233395 
L 199.584 435.284098 
L 202.752 437.789185 
L 205.92 440.989767 
L 209.088 442.532697 
L 212.256 442.86405 
L 218.592 448.734361 
L 221.76 449.449037 
L 224.928 447.008571 
L 231.264 449.042602 
L 234.432 449.537222 
L 237.6 449.035039 
L 240.768 449.139086 
L 243.936 448.426465 
L 247.104 448.389463 
L 250.272 446.979313 
L 253.44 443.678369 
L 256.608 443.790688 
L 259.776 447.882642 
L 262.944 451.627298 
L 266.112 451.179898 
L 269.28 449.414119 
L 272.448 448.426579 
L 275.616 446.71728 
L 281.952 439.635003 
L 285.12 439.356766 
L 288.288 437.751238 
L 291.456 439.701715 
L 294.624 438.857893 
L 297.792 436.935322 
L 300.96 437.711052 
L 304.128 441.811983 
L 310.464 451.046025 
L 313.632 455.387884 
L 316.8 459.028694 
L 319.968 461.010791 
L 323.136 462.278776 
L 326.304 462.976856 
L 329.472 463.334988 
L 332.64 464.49016 
L 338.976 462.514825 
L 342.144 461.853337 
L 345.312 461.833506 
L 348.48 460.933861 
L 351.648 459.74867 
L 354.816 459.966549 
L 357.984 459.398818 
L 361.152 459.067664 
L 364.32 458.999767 
L 367.488 459.079127 
L 370.656 459.99417 
L 373.824 461.164009 
L 376.992 464.027833 
L 380.16 465.920168 
L 383.328 467.571834 
L 389.664 468.090244 
L 396 469.108966 
L 402.336 467.84848 
L 405.504 467.885198 
L 408.672 468.772011 
L 411.84 468.610045 
L 415.008 469.142388 
L 418.176 469.401064 
L 421.344 469.204879 
L 424.512 469.176032 
L 427.68 468.811928 
L 430.848 468.283187 
L 434.016 467.124645 
L 437.184 465.752005 
L 440.352 463.768653 
L 443.52 461.631989 
L 446.688 459.960829 
L 449.856 457.261343 
L 453.024 453.644935 
L 456.192 450.962316 
L 459.36 450.230339 
L 465.696 454.809613 
L 468.864 456.270852 
L 472.032 456.916836 
L 475.2 459.027683 
L 478.368 459.933958 
L 481.536 461.082148 
L 484.704 462.38208 
L 491.04 463.363662 
L 494.208 463.940395 
L 503.712 463.45916 
L 506.88 463.091249 
L 510.048 463.658293 
L 513.216 463.783809 
L 516.384 463.626524 
L 519.552 464.003158 
L 522.72 463.747704 
L 525.888 464.454859 
L 529.056 465.989926 
L 535.392 468.269977 
L 538.56 470.406884 
L 541.728 471.74674 
L 544.896 472.245635 
L 548.064 472.131644 
L 551.232 472.445929 
L 554.4 471.636542 
L 557.568 469.892972 
L 560.736 468.904664 
L 563.904 468.566622 
L 567.072 468.944098 
L 570.24 469.049226 
L 573.408 468.597989 
L 576.576 468.355381 
L 579.744 466.487687 
L 582.912 465.755869 
L 586.08 464.837105 
L 589.248 463.657412 
L 592.416 460.85202 
L 595.584 459.749413 
L 598.752 454.630022 
L 601.92 447.102137 
L 605.088 444.749163 
L 608.256 442.852011 
L 611.424 440.550124 
L 614.592 435.441236 
L 617.76 429.833967 
L 620.928 427.212363 
L 624.096 425.739736 
L 627.264 425.087463 
L 630.432 423.660477 
L 636.768 419.870361 
L 639.936 420.698481 
L 643.104 420.394178 
L 646.272 421.415176 
L 649.44 421.383658 
L 652.608 423.914484 
L 655.776 424.389997 
L 658.944 423.304605 
L 662.112 421.246552 
L 665.28 419.020189 
L 671.616 413.50996 
L 674.784 410.894888 
L 677.952 411.093086 
L 681.12 410.533413 
L 684.288 408.087133 
L 690.624 405.720173 
L 693.792 406.734488 
L 696.96 406.429212 
L 700.128 406.571378 
L 703.296 406.922442 
L 706.464 408.810126 
L 712.8 409.183076 
L 715.968 409.641042 
L 719.136 412.397374 
L 722.304 414.960985 
L 725.472 416.215485 
L 728.64 415.288112 
L 731.808 411.762358 
L 734.976 411.035272 
L 741.312 406.292613 
L 744.48 406.425564 
L 747.648 405.490282 
L 753.984 407.27573 
L 757.152 407.826325 
L 760.32 407.967582 
L 763.488 403.083484 
L 766.656 403.373937 
L 772.992 400.561538 
L 776.16 399.323398 
L 779.328 396.94008 
L 782.496 402.275841 
L 785.664 407.13238 
L 788.832 410.256606 
L 788.832 410.256606 
" clip-path="url(#pcc7d5fad32)" style="fill: none; stroke: #000000; stroke-width: 1.5; stroke-linecap: square"/>
   </g>
   <g id="line2d_4">
    <path d="M 0 459 
L 3.168 459 
L 6.336 459.113224 
L 9.504 459.413784 
L 12.672 460.196251 
L 19.008 460.622304 
L 22.176 460.427344 
L 25.344 459.376707 
L 28.512 458.127921 
L 31.68 456.683377 
L 34.848 455.846141 
L 38.016 454.605443 
L 41.184 453.501791 
L 44.352 452.753374 
L 47.52 452.458005 
L 50.688 452.673179 
L 53.856 452.471097 
L 57.024 452.001279 
L 63.36 452.652765 
L 66.528 452.690427 
L 69.696 453.137519 
L 72.864 455.114685 
L 76.032 453.717082 
L 79.2 453.253961 
L 82.368 454.620034 
L 85.536 453.20606 
L 88.704 452.055885 
L 91.872 451.178481 
L 95.04 452.012168 
L 98.208 453.294125 
L 101.376 453.102585 
L 104.544 452.712191 
L 107.712 451.584689 
L 110.88 449.137809 
L 114.048 445.770816 
L 117.216 443.332938 
L 120.384 440.528104 
L 123.552 438.485681 
L 126.72 435.810833 
L 129.888 433.492411 
L 133.056 432.010919 
L 136.224 429.639997 
L 139.392 426.124077 
L 142.56 423.598243 
L 145.728 422.748206 
L 148.896 421.281878 
L 152.064 421.263826 
L 155.232 420.163345 
L 161.568 421.367409 
L 164.736 421.400213 
L 167.904 421.639922 
L 171.072 420.645184 
L 174.24 419.466637 
L 177.408 418.789314 
L 180.576 418.747152 
L 183.744 418.476578 
L 186.912 417.836757 
L 190.08 421.203527 
L 193.248 423.36837 
L 196.416 425.810241 
L 199.584 429.22468 
L 202.752 431.527855 
L 205.92 434.237195 
L 209.088 436.13439 
L 212.256 437.324545 
L 218.592 442.341528 
L 221.76 443.739755 
L 224.928 443.313813 
L 231.264 445.569323 
L 234.432 446.385998 
L 237.6 446.612882 
L 240.768 447.074367 
L 243.936 447.031141 
L 247.104 447.245829 
L 250.272 446.682904 
L 253.44 444.950873 
L 256.608 444.830756 
L 262.944 449.103599 
L 266.112 449.281632 
L 269.28 448.644882 
L 272.448 448.253053 
L 275.616 447.369396 
L 278.784 445.340857 
L 281.952 443.108556 
L 285.12 442.425421 
L 288.288 441.085185 
L 291.456 441.62099 
L 294.624 440.864411 
L 297.792 439.50622 
L 300.96 439.516292 
L 304.128 441.451959 
L 307.296 444.044414 
L 310.464 446.91661 
L 316.8 452.814923 
L 319.968 457.036011 
L 323.136 459.457169 
L 326.304 460.285631 
L 329.472 460.905066 
L 332.64 461.914996 
L 338.976 461.515832 
L 342.144 461.314423 
L 345.312 461.387352 
L 348.48 460.966324 
L 351.648 460.316516 
L 354.816 460.347838 
L 361.152 459.7099 
L 367.488 459.527724 
L 370.656 459.960499 
L 373.824 460.60795 
L 376.992 462.25901 
L 383.328 464.85764 
L 396 467.189217 
L 399.168 467.172877 
L 402.336 467.030245 
L 405.504 467.182824 
L 408.672 467.775963 
L 411.84 467.84537 
L 415.008 468.254688 
L 418.176 468.534756 
L 427.68 468.539269 
L 430.848 468.299372 
L 434.016 467.670164 
L 437.184 466.842466 
L 440.352 465.596838 
L 443.52 464.151319 
L 449.856 461.55705 
L 453.024 460.40897 
L 459.36 458.405809 
L 462.528 458.367086 
L 465.696 458.702569 
L 468.864 458.897012 
L 472.032 458.842238 
L 478.368 459.69727 
L 481.536 460.356492 
L 484.704 461.173603 
L 494.208 462.594589 
L 500.544 462.741654 
L 503.712 462.819272 
L 506.88 462.712659 
L 510.048 463.071365 
L 513.216 463.227026 
L 516.384 463.223376 
L 519.552 463.48545 
L 522.72 463.422913 
L 525.888 463.853556 
L 529.056 464.779476 
L 535.392 466.451538 
L 538.56 467.902622 
L 541.728 469.032342 
L 544.896 469.740692 
L 548.064 470.081919 
L 551.232 470.583856 
L 554.4 470.445995 
L 557.568 469.693249 
L 560.736 469.194055 
L 563.904 468.967719 
L 570.24 469.145278 
L 576.576 468.713005 
L 579.744 467.646242 
L 582.912 467.068031 
L 586.08 466.363659 
L 589.248 465.487135 
L 592.416 463.678572 
L 595.584 462.634973 
L 598.752 460.982758 
L 601.92 459.078381 
L 605.088 456.037156 
L 611.424 450.317082 
L 614.592 445.989956 
L 617.76 441.270499 
L 620.928 438.029658 
L 624.096 435.51293 
L 627.264 433.604191 
L 633.6 429.188938 
L 636.768 426.947808 
L 639.936 426.244092 
L 643.104 425.156823 
L 646.272 424.923615 
L 649.44 424.311646 
L 652.608 425.176394 
L 655.776 425.201882 
L 658.944 424.45773 
L 662.112 423.126954 
L 665.28 421.579018 
L 671.616 417.54604 
L 674.784 415.442043 
L 677.952 414.787736 
L 681.12 413.86556 
L 684.288 411.969196 
L 690.624 409.402419 
L 693.792 409.352579 
L 696.96 408.751591 
L 700.128 408.448373 
L 703.296 408.34095 
L 706.464 409.132527 
L 712.8 409.233473 
L 715.968 409.468202 
L 722.304 412.594861 
L 725.472 413.640871 
L 728.64 413.539409 
L 731.808 411.895895 
L 734.976 411.470104 
L 738.144 410.134314 
L 741.312 408.578034 
L 744.48 408.27998 
L 747.648 407.464973 
L 750.816 407.617523 
L 757.152 408.091522 
L 760.32 408.119062 
L 763.488 405.43599 
L 766.656 405.217618 
L 776.16 401.994308 
L 779.328 400.273246 
L 782.496 402.639886 
L 785.664 405.223367 
L 788.832 407.221584 
L 788.832 407.221584 
" clip-path="url(#pcc7d5fad32)" style="fill: none; stroke: #000000; stroke-width: 1.5; stroke-linecap: square"/>
   </g>
   <g id="line2d_5">
    <path d="M 0 459 
L 6.336 459.108729 
L 9.504 459.388043 
L 12.672 460.092131 
L 19.008 460.497137 
L 22.176 460.362828 
L 25.344 459.551444 
L 28.512 459.016888 
L 31.68 457.848141 
L 34.848 457.085668 
L 41.184 455.110577 
L 44.352 454.41404 
L 47.52 454.028445 
L 50.688 453.994968 
L 53.856 453.72304 
L 57.024 453.294849 
L 63.36 453.461767 
L 66.528 453.404464 
L 69.696 453.602755 
L 72.864 454.730024 
L 76.032 453.946324 
L 79.2 453.655553 
L 82.368 454.405822 
L 88.704 452.926365 
L 91.872 452.352919 
L 95.04 452.714857 
L 98.208 453.366593 
L 101.376 453.254016 
L 104.544 453.027523 
L 107.712 452.383884 
L 110.88 450.981685 
L 114.048 448.996968 
L 117.216 447.403361 
L 120.384 445.545499 
L 123.552 444.021601 
L 126.72 442.114264 
L 129.888 440.338392 
L 133.056 438.9685 
L 136.224 437.118657 
L 139.392 434.617924 
L 142.56 432.562223 
L 145.728 431.360544 
L 148.896 429.86471 
L 152.064 429.141302 
L 155.232 427.905605 
L 158.4 427.5562 
L 161.568 427.334305 
L 164.736 426.861077 
L 167.904 426.53916 
L 177.408 423.820302 
L 183.744 422.871972 
L 186.912 422.178598 
L 190.08 423.586304 
L 193.248 424.526958 
L 196.416 425.715999 
L 199.584 427.516244 
L 202.752 428.866713 
L 205.92 430.496978 
L 209.088 431.791465 
L 212.256 432.763741 
L 218.592 436.179776 
L 221.76 437.406378 
L 224.928 437.698893 
L 231.264 439.795233 
L 234.432 440.691331 
L 243.936 442.331933 
L 247.104 442.823698 
L 250.272 442.884931 
L 253.44 442.28638 
L 256.608 442.432782 
L 259.776 443.703434 
L 262.944 445.107244 
L 266.112 445.52112 
L 272.448 445.535731 
L 275.616 445.283469 
L 278.784 444.388415 
L 281.952 443.292539 
L 285.12 442.906384 
L 288.288 442.157051 
L 291.456 442.345361 
L 294.624 441.886707 
L 297.792 441.087486 
L 300.96 440.957369 
L 304.128 441.844924 
L 307.296 443.163923 
L 310.464 444.735129 
L 316.8 448.288373 
L 319.968 450.873341 
L 323.136 453.132519 
L 326.304 455.033927 
L 329.472 456.661829 
L 332.64 458.920476 
L 335.808 459.138789 
L 348.48 459.467126 
L 351.648 459.255842 
L 354.816 459.361787 
L 364.32 459.154097 
L 367.488 459.168771 
L 370.656 459.426732 
L 373.824 459.812097 
L 380.16 461.557909 
L 383.328 462.395046 
L 396 464.465959 
L 405.504 465.078551 
L 408.672 465.563598 
L 411.84 465.785144 
L 418.176 466.492643 
L 427.68 466.976646 
L 430.848 466.983809 
L 434.016 466.768272 
L 437.184 466.412893 
L 440.352 465.80039 
L 456.192 462.024974 
L 459.36 461.487843 
L 465.696 461.111281 
L 472.032 460.789968 
L 475.2 460.793074 
L 478.368 460.908054 
L 481.536 461.157831 
L 484.704 461.524661 
L 497.376 462.348687 
L 510.048 462.662903 
L 519.552 462.991661 
L 522.72 463.000983 
L 525.888 463.261878 
L 535.392 464.855128 
L 538.56 465.745082 
L 541.728 466.513075 
L 544.896 467.090466 
L 551.232 467.962493 
L 554.4 468.107321 
L 560.736 467.793779 
L 563.904 467.792073 
L 570.24 468.077646 
L 576.576 468.009744 
L 579.744 467.508783 
L 586.08 466.834711 
L 589.248 466.336919 
L 592.416 465.321631 
L 595.584 464.639384 
L 598.752 463.608911 
L 601.92 462.396201 
L 611.424 459.962971 
L 614.592 458.665882 
L 617.76 455.141974 
L 620.928 452.291794 
L 624.096 449.786288 
L 630.432 445.315634 
L 636.768 440.668303 
L 639.936 439.172442 
L 643.104 437.544512 
L 646.272 436.409368 
L 649.44 435.150066 
L 652.608 434.719593 
L 655.776 433.954859 
L 658.944 432.849662 
L 665.28 429.973528 
L 671.616 426.46686 
L 674.784 424.632782 
L 681.12 422.323522 
L 684.288 420.628148 
L 690.624 417.847546 
L 693.792 417.109332 
L 696.96 416.142169 
L 700.128 415.358505 
L 703.296 414.714593 
L 706.464 414.588437 
L 712.8 413.75147 
L 715.968 413.482418 
L 719.136 413.925157 
L 722.304 414.502402 
L 725.472 414.874227 
L 728.64 414.70059 
L 731.808 413.723531 
L 734.976 413.325731 
L 738.144 412.448449 
L 741.312 411.415903 
L 744.48 410.996494 
L 747.648 410.320003 
L 753.984 410.0528 
L 760.32 409.794388 
L 763.488 408.233178 
L 766.656 407.863775 
L 776.16 405.376313 
L 779.328 404.172205 
L 782.496 405.065918 
L 785.664 406.190103 
L 788.832 407.131168 
L 788.832 407.131168 
" clip-path="url(#pcc7d5fad32)" style="fill: none; stroke: #000000; stroke-width: 1.5; stroke-linecap: square"/>
   </g>
   <g id="line2d_6">
    <path d="M 0 459 
L 6.336 459.106474 
L 9.504 459.375233 
L 12.672 460.040758 
L 19.008 460.431292 
L 22.176 460.322694 
L 25.344 459.620945 
L 28.512 459.153851 
L 38.016 456.79823 
L 41.184 455.971091 
L 44.352 455.341027 
L 47.52 454.958951 
L 50.688 454.854396 
L 57.024 454.193002 
L 69.696 454.188274 
L 72.864 454.93738 
L 76.032 454.381896 
L 79.2 454.155149 
L 82.368 454.63133 
L 88.704 453.603196 
L 91.872 453.186734 
L 95.04 453.373435 
L 98.208 453.755501 
L 104.544 453.495509 
L 107.712 453.065589 
L 110.88 452.154973 
L 114.048 450.864856 
L 117.216 449.787567 
L 120.384 448.530011 
L 123.552 447.452303 
L 129.888 444.862148 
L 133.056 443.819355 
L 136.224 442.483216 
L 139.392 440.747009 
L 142.56 439.242669 
L 145.728 438.21595 
L 148.896 437.016163 
L 152.064 436.252929 
L 155.232 435.202076 
L 167.904 433.097023 
L 177.408 430.641387 
L 183.744 429.490319 
L 186.912 428.803349 
L 190.08 429.273643 
L 193.248 429.529371 
L 196.416 429.951288 
L 199.584 430.739751 
L 202.752 431.327455 
L 205.92 432.104561 
L 209.088 432.736302 
L 212.256 433.222677 
L 221.76 435.770935 
L 224.928 436.003742 
L 234.432 437.878081 
L 247.104 439.541883 
L 250.272 439.719271 
L 253.44 439.545395 
L 256.608 439.743485 
L 262.944 441.401663 
L 266.112 441.780653 
L 275.616 442.129262 
L 278.784 441.80065 
L 281.952 441.344327 
L 285.12 441.23124 
L 288.288 440.915408 
L 291.456 441.067308 
L 294.624 440.88562 
L 297.792 440.51757 
L 300.96 440.478018 
L 304.128 440.959269 
L 307.296 441.680086 
L 310.464 442.555209 
L 316.8 444.602631 
L 323.136 447.453435 
L 329.472 449.775472 
L 332.64 451.225761 
L 335.808 451.804312 
L 342.144 452.714501 
L 345.312 453.335676 
L 348.48 453.542993 
L 351.648 453.503173 
L 354.816 453.927371 
L 361.152 454.139575 
L 367.488 454.56269 
L 370.656 455.163745 
L 373.824 455.96629 
L 376.992 457.62014 
L 380.16 459.048386 
L 383.328 459.580905 
L 399.168 461.392141 
L 405.504 461.867918 
L 408.672 462.251237 
L 415.008 462.839854 
L 421.344 463.381184 
L 427.68 463.808868 
L 430.848 463.946937 
L 437.184 463.902934 
L 443.52 463.392361 
L 453.024 462.369653 
L 459.36 461.748696 
L 472.032 461.328038 
L 478.368 461.342008 
L 491.04 461.847908 
L 497.376 462.055163 
L 516.384 462.38358 
L 525.888 462.677679 
L 535.392 463.603335 
L 541.728 464.577284 
L 548.064 465.253284 
L 551.232 465.593305 
L 554.4 465.769898 
L 560.736 465.804122 
L 567.072 466.060182 
L 573.408 466.258851 
L 576.576 466.326508 
L 582.912 466.059224 
L 589.248 465.70612 
L 592.416 465.218297 
L 595.584 464.877078 
L 598.752 464.343814 
L 601.92 463.695622 
L 611.424 462.250645 
L 624.096 459.702579 
L 627.264 459.172181 
L 630.432 457.850993 
L 636.768 454.394192 
L 646.272 450.451471 
L 649.44 449.211503 
L 652.608 448.394061 
L 655.776 447.42246 
L 658.944 446.286478 
L 665.28 443.669132 
L 674.784 439.157608 
L 681.12 436.750398 
L 684.288 435.274498 
L 690.624 432.614077 
L 703.296 428.575654 
L 706.464 427.92724 
L 712.8 426.384977 
L 715.968 425.712151 
L 722.304 425.229871 
L 725.472 424.963581 
L 728.64 424.446478 
L 731.808 423.534146 
L 734.976 422.916283 
L 741.312 421.130572 
L 744.48 420.510159 
L 747.648 419.765688 
L 753.984 418.851478 
L 760.32 417.99409 
L 763.488 416.849666 
L 766.656 416.298971 
L 776.16 413.955817 
L 779.328 412.975635 
L 782.496 413.055607 
L 788.832 413.465731 
L 788.832 413.465731 
" clip-path="url(#pcc7d5fad32)" style="fill: none; stroke: #000000; stroke-width: 1.5; stroke-linecap: square"/>
   </g>
   <g id="line2d_7">
    <path d="M 0 459 
L 6.336 459.105346 
L 9.504 459.368853 
L 12.672 460.015316 
L 19.008 460.397753 
L 22.176 460.300809 
L 25.344 459.650837 
L 28.512 459.216883 
L 34.848 458.008078 
L 41.184 456.401191 
L 44.352 455.812365 
L 47.52 455.443308 
L 50.688 455.317662 
L 57.024 454.69148 
L 69.696 454.57679 
L 72.864 455.164241 
L 76.032 454.70456 
L 79.2 454.506739 
L 82.368 454.866952 
L 88.704 454.033295 
L 91.872 453.690733 
L 95.04 453.811768 
L 98.208 454.084334 
L 104.544 453.859874 
L 107.712 453.523561 
L 110.88 452.829194 
L 114.048 451.851452 
L 117.216 451.024266 
L 120.384 450.062262 
L 123.552 449.22585 
L 129.888 447.230318 
L 133.056 446.405887 
L 136.224 445.372693 
L 139.392 444.055519 
L 142.56 442.893876 
L 145.728 442.058842 
L 148.896 441.103804 
L 152.064 440.445716 
L 155.232 439.592814 
L 171.072 436.925175 
L 177.408 435.562098 
L 186.912 433.920584 
L 190.08 434.072621 
L 193.248 434.096216 
L 196.416 434.232927 
L 199.584 434.610453 
L 202.752 434.871445 
L 209.088 435.567186 
L 212.256 435.791541 
L 221.76 437.190542 
L 224.928 437.294777 
L 237.6 438.604501 
L 243.936 439.094597 
L 247.104 439.335365 
L 250.272 439.446612 
L 253.44 439.350299 
L 256.608 439.472785 
L 262.944 440.473007 
L 266.112 440.719315 
L 275.616 441.006732 
L 288.288 440.392221 
L 291.456 440.49243 
L 300.96 440.189351 
L 304.128 440.470037 
L 310.464 441.405188 
L 316.8 442.625203 
L 323.136 444.335292 
L 332.64 446.696809 
L 338.976 447.495039 
L 348.48 448.546688 
L 351.648 448.64242 
L 354.816 448.989915 
L 364.32 449.550838 
L 367.488 449.790757 
L 370.656 450.22958 
L 373.824 450.781165 
L 383.328 453.77659 
L 399.168 457.594378 
L 408.672 459.191244 
L 430.848 460.607465 
L 437.184 460.732071 
L 443.52 460.59962 
L 465.696 459.955708 
L 478.368 459.98614 
L 513.216 460.858281 
L 525.888 461.157402 
L 535.392 461.739548 
L 544.896 462.569389 
L 554.4 463.146348 
L 563.904 463.37184 
L 573.408 463.723606 
L 576.576 463.811882 
L 589.248 463.69018 
L 608.256 462.344744 
L 614.592 461.772757 
L 624.096 460.766699 
L 639.936 459.227185 
L 643.104 458.81329 
L 649.44 457.259474 
L 655.776 455.993597 
L 662.112 454.383578 
L 668.448 452.541233 
L 677.952 449.687163 
L 681.12 448.80804 
L 687.456 446.844304 
L 690.624 445.890579 
L 703.296 442.658992 
L 709.632 441.319653 
L 715.968 439.985519 
L 728.64 438.146469 
L 731.808 437.390662 
L 734.976 436.781258 
L 744.48 434.662095 
L 747.648 433.981293 
L 760.32 431.876443 
L 763.488 430.997996 
L 769.824 429.723971 
L 779.328 427.513481 
L 785.664 427.066548 
L 788.832 426.86591 
L 788.832 426.86591 
" clip-path="url(#pcc7d5fad32)" style="fill: none; stroke: #000000; stroke-width: 1.5; stroke-linecap: square"/>
   </g>
   <g id="line2d_8">
    <path d="M 0 459 
L 6.336 459.104782 
L 9.504 459.365671 
L 12.672 460.002665 
L 19.008 460.380857 
L 22.176 460.289438 
L 25.344 459.664542 
L 31.68 458.787085 
L 34.848 458.155618 
L 41.184 456.614189 
L 44.352 456.047509 
L 47.52 455.687377 
L 50.688 455.554575 
L 57.024 454.949598 
L 69.696 454.792541 
L 72.864 455.30752 
L 76.032 454.891498 
L 79.2 454.707704 
L 82.368 455.016608 
L 88.704 454.271827 
L 91.872 453.964291 
L 95.04 454.058481 
L 98.208 454.28413 
L 104.544 454.077354 
L 107.712 453.783692 
L 110.88 453.186803 
L 114.048 452.350512 
L 120.384 450.816081 
L 123.552 450.096383 
L 129.888 448.388763 
L 133.056 447.677102 
L 136.224 446.794773 
L 139.392 445.680847 
L 142.56 444.692572 
L 155.232 441.828974 
L 171.072 439.433401 
L 177.408 438.249833 
L 186.912 436.793725 
L 199.584 437.074791 
L 205.92 437.460719 
L 215.424 438.081531 
L 221.76 438.694151 
L 224.928 438.740666 
L 240.768 439.784704 
L 250.272 440.138999 
L 253.44 440.057346 
L 256.608 440.131501 
L 266.112 440.986207 
L 275.616 441.175692 
L 288.288 440.732668 
L 291.456 440.795833 
L 300.96 440.571181 
L 307.296 441.036603 
L 313.632 441.782542 
L 316.8 442.208156 
L 323.136 443.372177 
L 332.64 445.000676 
L 345.312 446.183226 
L 370.656 447.702267 
L 373.824 448.094452 
L 383.328 450.143803 
L 399.168 452.862588 
L 405.504 453.731076 
L 408.672 454.315723 
L 415.008 455.320504 
L 421.344 456.294829 
L 427.68 457.166214 
L 430.848 457.528109 
L 437.184 457.933731 
L 443.52 457.861309 
L 449.856 457.594589 
L 459.36 457.131701 
L 472.032 457.24577 
L 478.368 457.490279 
L 491.04 458.427133 
L 497.376 458.860814 
L 503.712 459.061236 
L 522.72 459.415368 
L 532.224 459.762836 
L 541.728 460.297662 
L 554.4 460.881659 
L 567.072 461.207222 
L 576.576 461.466016 
L 592.416 461.419436 
L 598.752 461.254335 
L 608.256 460.887736 
L 614.592 460.599116 
L 627.264 459.913005 
L 643.104 459.070375 
L 646.272 458.784201 
L 652.608 457.989124 
L 658.944 457.153389 
L 668.448 455.581405 
L 690.624 451.561195 
L 712.8 448.136313 
L 719.136 447.355091 
L 728.64 446.320054 
L 741.312 444.361588 
L 757.152 442.247914 
L 760.32 441.851233 
L 763.488 441.260051 
L 769.824 440.331391 
L 779.328 438.762762 
L 788.832 438.024131 
L 788.832 438.024131 
" clip-path="url(#pcc7d5fad32)" style="fill: none; stroke: #000000; stroke-width: 1.5; stroke-linecap: square"/>
   </g>
   <g id="line2d_9">
    <path d="M 0 459 
L 6.336 459.104499 
L 9.504 459.364082 
L 12.672 459.996358 
L 19.008 460.372381 
L 22.176 460.28365 
L 25.344 459.671081 
L 31.68 458.849089 
L 34.848 458.228429 
L 41.184 456.719922 
L 44.352 456.164627 
L 47.52 455.809498 
L 50.688 455.673915 
L 57.024 455.08035 
L 69.696 454.905238 
L 72.864 455.386181 
L 76.032 454.990966 
L 79.2 454.814098 
L 82.368 455.099125 
L 88.704 454.396643 
L 91.872 454.106042 
L 95.04 454.188301 
L 98.208 454.392542 
L 104.544 454.194646 
L 107.712 453.921179 
L 110.88 453.370036 
L 114.048 452.600147 
L 123.552 450.523267 
L 129.888 448.954184 
L 133.056 448.29813 
L 136.224 447.489102 
L 142.56 445.56912 
L 155.232 442.931123 
L 171.072 440.696505 
L 177.408 439.609797 
L 186.912 438.262541 
L 199.584 438.395302 
L 205.92 438.677653 
L 215.424 439.14292 
L 221.76 439.625758 
L 224.928 439.649198 
L 240.768 440.457535 
L 250.272 440.721687 
L 253.44 440.645247 
L 256.608 440.697466 
L 266.112 441.377368 
L 275.616 441.515942 
L 288.288 441.13627 
L 294.624 441.122612 
L 300.96 440.98502 
L 307.296 441.346257 
L 316.8 442.268086 
L 326.304 443.600854 
L 335.808 444.730842 
L 348.48 445.587468 
L 351.648 445.671401 
L 357.984 446.002595 
L 367.488 446.430946 
L 373.824 446.998483 
L 383.328 448.604357 
L 399.168 450.761651 
L 405.504 451.461562 
L 411.84 452.294592 
L 421.344 453.511331 
L 427.68 454.218107 
L 434.016 454.728813 
L 440.352 454.921813 
L 449.856 454.751422 
L 459.36 454.495751 
L 475.2 454.775571 
L 481.536 455.087571 
L 494.208 455.893328 
L 525.888 457.455389 
L 535.392 458.397109 
L 538.56 458.847356 
L 541.728 459.092137 
L 554.4 459.544137 
L 589.248 460.111221 
L 611.424 459.680148 
L 630.432 459.036636 
L 639.936 458.126209 
L 649.44 457.249056 
L 658.944 456.489145 
L 668.448 455.460038 
L 696.96 452.086055 
L 709.632 450.780186 
L 719.136 449.920167 
L 728.64 449.190396 
L 747.648 447.19298 
L 766.656 445.341513 
L 782.496 443.680417 
L 788.832 443.310243 
L 788.832 443.310243 
" clip-path="url(#pcc7d5fad32)" style="fill: none; stroke: #000000; stroke-width: 1.5; stroke-linecap: square"/>
   </g>
  </g>
 </g>
 <defs>
  <clipPath id="pcc7d5fad32">
   <rect x="0" y="0" width="792" height="612"/>
  </clipPath>
 </defs>
</svg>
