<?xml version="1.0" encoding="utf-8" standalone="no"?>
<!DOCTYPE svg PUBLIC "-//W3C//DTD SVG 1.1//EN"
  "http://www.w3.org/Graphics/SVG/1.1/DTD/svg11.dtd">
<svg xmlns:xlink="http://www.w3.org/1999/xlink" width="792pt" height="612pt" viewBox="0 0 792 612" xmlns="http://www.w3.org/2000/svg" version="1.1">
 <metadata>
  <rdf:RDF xmlns:dc="http://purl.org/dc/elements/1.1/" xmlns:cc="http://creativecommons.org/ns#" xmlns:rdf="http://www.w3.org/1999/02/22-rdf-syntax-ns#">
   <cc:Work>
    <dc:type rdf:resource="http://purl.org/dc/dcmitype/StillImage"/>
    <dc:date>2023-01-09T02:30:01.746228</dc:date>
    <dc:format>image/svg+xml</dc:format>
    <dc:creator>
     <cc:Agent>
      <dc:title>Matplotlib v3.6.2, https://matplotlib.org/</dc:title>
     </cc:Agent>
    </dc:creator>
   </cc:Work>
  </rdf:RDF>
 </metadata>
 <defs>
  <style type="text/css">*{stroke-linejoin: round; stroke-linecap: butt}</style>
 </defs>
 <g id="figure_1">
  <g id="patch_1">
   <path d="M 0 612 
L 792 612 
L 792 0 
L 0 0 
z
" style="fill: #ffffff"/>
  </g>
  <g id="axes_1">
   <g id="line2d_1">
    <path d="M 0 459 
L 3.168 459.839327 
L 6.336 460.016518 
L 12.672 459.792698 
L 15.84 459.456967 
L 19.008 462.721017 
L 22.176 455.866561 
L 25.344 460.352249 
L 28.512 445.658459 
L 31.68 446.301425 
L 34.848 448.370425 
L 38.016 454.523731 
L 41.184 451.278919 
L 44.352 453.069085 
L 47.52 448.006918 
L 50.688 434.793903 
L 53.856 436.607757 
L 57.024 437.082267 
L 60.192 438.67361 
L 63.36 435.407741 
L 66.528 434.766003 
L 69.696 435.60307 
L 72.864 437.473076 
L 76.032 440.237512 
L 79.2 437.919753 
L 82.368 436.049571 
L 85.536 440.740289 
L 88.704 440.628557 
L 91.872 439.371724 
L 95.04 441.997421 
L 98.208 452.173976 
L 101.376 432.785598 
L 104.544 437.277668 
L 107.712 448.482275 
L 110.88 432.116383 
L 114.048 432.339442 
L 117.216 432.897145 
L 120.384 442.975368 
L 123.552 446.720778 
L 126.72 438.56192 
L 129.888 437.110181 
L 133.056 431.976977 
L 136.224 422.37148 
L 139.392 414.017028 
L 142.56 416.512142 
L 145.728 411.690672 
L 148.896 413.684546 
L 152.064 407.515018 
L 155.232 407.073057 
L 158.4 410.058143 
L 161.568 402.879409 
L 164.736 393.177987 
L 167.904 395.893124 
L 171.072 404.009685 
L 174.24 399.217729 
L 177.408 406.990201 
L 180.576 400.043013 
L 183.744 409.505026 
L 186.912 410.694406 
L 190.08 407.404519 
L 193.248 408.758548 
L 196.416 401.116462 
L 199.584 398.97022 
L 202.752 400.896215 
L 205.92 404.285465 
L 209.088 402.824292 
L 212.256 400.125563 
L 215.424 425.20839 
L 218.592 420.898496 
L 221.76 424.930143 
L 224.928 433.705951 
L 228.096 429.997972 
L 231.264 434.961305 
L 234.432 432.47886 
L 237.6 429.83078 
L 240.768 439.427577 
L 243.936 442.137119 
L 247.104 437.473076 
L 250.272 427.184648 
L 253.44 436.775226 
L 256.608 437.80808 
L 259.776 437.02644 
L 262.944 434.040675 
L 266.112 435.742597 
L 269.28 432.980807 
L 272.448 434.626508 
L 275.616 429.83078 
L 278.784 421.787752 
L 281.952 430.332377 
L 285.12 444.344737 
L 288.288 447.307906 
L 291.456 436.524025 
L 294.624 431.475159 
L 297.792 432.367325 
L 300.96 428.79994 
L 304.128 420.565099 
L 307.296 417.205686 
L 310.464 424.846674 
L 313.632 419.926202 
L 316.8 430.694685 
L 319.968 422.927522 
L 323.136 418.315754 
L 326.304 425.737127 
L 329.472 438.115186 
L 332.64 444.344737 
L 335.808 448.789872 
L 338.976 452.705442 
L 342.144 454.859432 
L 345.312 461.49933 
L 348.48 461.033037 
L 351.648 460.333597 
L 354.816 459.848653 
L 357.984 463.000792 
L 361.152 451.558619 
L 364.32 449.405092 
L 367.488 449.461023 
L 370.656 454.132085 
L 373.824 444.819886 
L 376.992 439.092467 
L 380.16 450.216116 
L 383.328 442.667997 
L 386.496 443.422479 
L 389.664 445.183256 
L 392.832 446.525077 
L 396 455.586799 
L 399.168 459.690113 
L 402.336 466.815068 
L 405.504 466.348775 
L 408.672 467.458552 
L 411.84 464.325064 
L 415.008 464.464952 
L 418.176 465.742594 
L 421.344 466.124954 
L 424.512 462.804949 
L 427.68 461.984274 
L 430.848 463.756187 
L 434.016 466.759113 
L 437.184 463.998659 
L 440.352 466.264842 
L 443.52 465.854504 
L 446.688 464.539559 
L 449.856 464.931245 
L 453.024 463.756187 
L 456.192 462.804949 
L 459.36 460.063148 
L 462.528 456.342161 
L 465.696 445.714367 
L 468.864 438.031428 
L 472.032 436.356565 
L 475.2 432.562514 
L 478.368 431.335777 
L 481.536 430.917661 
L 484.704 435.017107 
L 487.872 444.791935 
L 491.04 447.16811 
L 494.208 446.608948 
L 497.376 445.239161 
L 500.544 451.22298 
L 506.88 459.559551 
L 510.048 461.256857 
L 513.216 459.708765 
L 516.384 460.268316 
L 519.552 461.033037 
L 522.72 459.037303 
L 525.888 457.741013 
L 529.056 458.748202 
L 532.224 455.44692 
L 535.392 460.715958 
L 541.728 458.720224 
L 544.896 460.613373 
L 548.064 458.356516 
L 554.4 465.528099 
L 557.568 465.584055 
L 560.736 467.001585 
L 563.904 471.552603 
L 567.072 470.955748 
L 573.408 467.747653 
L 576.576 469.12788 
L 579.744 465.518774 
L 582.912 461.415397 
L 586.08 462.282701 
L 589.248 463.541692 
L 592.416 465.695965 
L 595.584 465.136414 
L 598.752 463.289894 
L 601.92 463.56967 
L 605.088 454.943358 
L 608.256 459.708765 
L 611.424 456.929674 
L 614.592 451.418768 
L 617.76 430.750428 
L 620.928 439.958211 
L 624.096 425.013614 
L 627.264 415.125645 
L 630.432 425.403177 
L 633.6 424.54064 
L 636.768 421.204146 
L 639.936 409.11793 
L 643.104 402.218104 
L 646.272 406.852114 
L 652.608 409.505026 
L 655.776 406.079004 
L 658.944 403.12746 
L 662.112 401.006335 
L 665.28 408.5927 
L 668.448 405.41658 
L 671.616 409.753911 
L 674.784 407.073057 
L 677.952 415.929717 
L 681.12 411.386209 
L 684.288 406.43791 
L 687.456 401.942631 
L 690.624 399.217729 
L 693.792 394.877838 
L 700.128 390.002601 
L 703.296 397.101309 
L 706.464 394.6584 
L 709.632 387.54357 
L 712.8 389.37379 
L 715.968 388.280845 
L 719.136 394.6584 
L 722.304 391.12418 
L 725.472 392.356136 
L 728.64 393.260195 
L 731.808 398.942721 
L 734.976 394.932702 
L 738.144 395.097305 
L 741.312 396.222541 
L 744.48 404.671624 
L 747.648 406.796882 
L 750.816 404.837145 
L 753.984 398.557784 
L 757.152 388.608643 
L 760.32 394.685828 
L 763.488 388.444734 
L 766.656 385.715675 
L 769.824 392.13705 
L 772.992 388.554005 
L 776.16 393.890606 
L 779.328 394.90527 
L 782.496 394.603546 
L 785.664 393.726127 
L 788.832 376.50475 
L 788.832 376.50475 
" clip-path="url(#p7a5cb4b119)" style="fill: none; stroke: #000000; stroke-width: 1.5; stroke-linecap: square"/>
   </g>
   <g id="line2d_2">
    <path d="M 0 459 
L 3.168 459 
L 6.336 459.559551 
L 9.504 459.820675 
L 12.672 459.885335 
L 15.84 459.837522 
L 19.008 459.644224 
L 22.176 461.194734 
L 25.344 459.568768 
L 28.512 459.96316 
L 31.68 453.741215 
L 34.848 449.989857 
L 38.016 449.153736 
L 41.184 451.825051 
L 44.352 451.534158 
L 47.52 452.268092 
L 50.688 450.121905 
L 53.856 442.397896 
L 57.024 439.484307 
L 60.192 438.265079 
L 63.36 438.450343 
L 66.528 436.891363 
L 69.696 435.79622 
L 72.864 435.665447 
L 76.032 436.548542 
L 79.2 438.403369 
L 82.368 438.164128 
L 85.536 437.104708 
L 88.704 438.926235 
L 91.872 439.78757 
L 95.04 439.588678 
L 98.208 440.805467 
L 101.376 446.516635 
L 104.544 439.632158 
L 107.712 438.453518 
L 110.88 443.490425 
L 114.048 437.783227 
L 117.216 435.044242 
L 120.384 433.957867 
L 123.552 438.466548 
L 126.72 442.581651 
L 129.888 440.582769 
L 133.056 438.845858 
L 136.224 435.377758 
L 139.392 428.849427 
L 142.56 421.387443 
L 145.728 418.916589 
L 148.896 415.239797 
L 152.064 414.397594 
L 155.232 410.892971 
L 158.4 408.923542 
L 161.568 409.447987 
L 164.736 406.122849 
L 167.904 399.597635 
L 171.072 397.704115 
L 174.24 400.839106 
L 177.408 399.999959 
L 180.576 403.490787 
L 183.744 401.752309 
L 186.912 405.623726 
L 190.08 408.17283 
L 193.248 407.816647 
L 196.416 408.312849 
L 199.584 404.705593 
L 202.752 401.835154 
L 205.92 401.353691 
L 209.088 402.827318 
L 212.256 402.812728 
L 215.424 401.447964 
L 218.592 413.332123 
L 224.928 421.077305 
L 228.096 427.454028 
L 231.264 428.783117 
L 234.432 431.931385 
L 237.6 432.263557 
L 240.768 431.105561 
L 243.936 435.292516 
L 247.104 438.755408 
L 250.272 438.138836 
L 253.44 432.645185 
L 256.608 434.723005 
L 259.776 436.270867 
L 262.944 436.657559 
L 266.112 435.357186 
L 269.28 435.542665 
L 272.448 434.243602 
L 275.616 434.429471 
L 278.784 432.134643 
L 281.952 426.927737 
L 285.12 428.615 
L 288.288 436.487577 
L 291.456 441.921383 
L 294.624 439.223552 
L 297.792 435.344712 
L 300.96 433.851323 
L 304.128 431.322768 
L 307.296 425.936969 
L 310.464 421.542198 
L 313.632 423.155857 
L 316.8 421.487052 
L 319.968 426.076134 
L 323.136 424.484673 
L 326.304 421.370987 
L 329.472 423.547252 
L 332.64 430.858527 
L 335.808 437.650319 
L 338.976 443.264781 
L 342.144 448.048367 
L 345.312 451.500923 
L 348.48 459.028234 
L 351.648 460.061282 
L 354.816 460.221833 
L 357.984 460.050567 
L 361.152 461.543106 
L 364.32 459.033025 
L 367.488 454.245081 
L 370.656 451.842272 
L 373.824 452.962898 
L 376.992 448.850844 
L 380.16 443.923102 
L 383.328 447.046846 
L 386.496 444.801581 
L 389.664 444.096049 
L 392.832 444.631357 
L 396 445.572405 
L 399.168 450.581451 
L 402.336 455.857345 
L 405.504 462.412093 
L 408.672 464.400585 
L 411.84 465.956833 
L 415.008 465.161575 
L 418.176 464.833012 
L 424.512 465.733268 
L 427.68 464.275216 
L 430.848 463.120273 
L 434.016 463.433146 
L 437.184 465.094758 
L 440.352 464.546069 
L 443.52 465.408985 
L 446.688 465.631964 
L 449.856 465.082653 
L 453.024 465.011118 
L 456.192 464.387127 
L 459.36 463.594173 
L 465.696 459.953249 
L 468.864 453.716642 
L 472.032 445.788802 
L 475.2 440.993885 
L 478.368 436.689739 
L 481.536 433.929863 
L 484.704 432.346221 
L 487.872 433.62829 
L 491.04 439.184566 
L 494.208 443.177989 
L 497.376 444.910097 
L 500.544 445.092056 
L 503.712 448.193659 
L 506.88 451.825051 
L 510.048 456.310015 
L 513.216 459.700207 
L 516.384 459.715165 
L 519.552 460.001963 
L 522.72 460.529587 
L 525.888 459.792515 
L 529.056 459.190686 
L 532.224 459.055589 
L 535.392 457.296558 
L 538.56 459.57301 
L 541.728 459.668975 
L 544.896 459.285188 
L 548.064 459.948458 
L 551.232 459.366488 
L 554.4 460.639924 
L 557.568 463.096977 
L 563.904 465.690991 
L 567.072 468.64491 
L 570.24 469.823955 
L 573.408 469.623686 
L 576.576 468.703243 
L 579.744 468.929733 
L 582.912 467.224235 
L 586.08 464.311642 
L 589.248 463.287919 
L 592.416 463.399098 
L 595.584 464.537218 
L 598.752 464.828477 
L 601.92 464.050445 
L 605.088 463.799159 
L 608.256 460.708021 
L 611.424 460.205047 
L 614.592 459.249677 
L 617.76 455.542038 
L 620.928 443.039912 
L 624.096 441.425516 
L 627.264 433.119591 
L 630.432 423.996619 
L 633.6 424.642102 
L 636.768 424.519911 
L 639.936 422.791772 
L 646.272 408.973411 
L 649.44 407.847961 
L 652.608 407.966286 
L 655.776 408.72451 
L 658.944 407.363571 
L 665.28 403.063796 
L 668.448 405.825265 
L 671.616 405.627189 
L 674.784 407.695188 
L 677.952 407.381986 
L 681.12 411.664294 
L 684.288 411.535667 
L 687.456 408.991733 
L 690.624 405.465821 
L 693.792 402.320742 
L 696.96 398.574603 
L 700.128 395.483489 
L 703.296 392.707276 
L 706.464 394.866112 
L 709.632 394.729607 
L 712.8 391.09542 
L 719.136 389.223623 
L 722.304 391.93818 
L 725.472 391.528496 
L 728.64 391.946878 
L 731.808 392.595878 
L 734.976 395.774614 
L 738.144 395.36813 
L 741.312 395.243956 
L 744.48 395.748782 
L 747.648 400.224197 
L 750.816 403.538464 
L 753.984 404.212244 
L 757.152 401.393214 
L 760.32 394.967988 
L 763.488 394.826418 
L 766.656 391.619206 
L 769.824 388.643891 
L 772.992 390.364998 
L 776.16 389.423635 
L 779.328 391.634127 
L 782.496 393.2617 
L 785.664 393.944253 
L 788.832 393.833305 
L 788.832 393.833305 
" clip-path="url(#p7a5cb4b119)" style="fill: none; stroke: #000000; stroke-width: 1.5; stroke-linecap: square"/>
   </g>
   <g id="line2d_3">
    <path d="M 0 459 
L 3.168 459 
L 6.336 459.491666 
L 9.504 459.729467 
L 15.84 459.805411 
L 19.008 459.688774 
L 22.176 460.663009 
L 25.344 459.817132 
L 28.512 459.981111 
L 31.68 457.018617 
L 34.848 453.807936 
L 38.016 452.189825 
L 41.184 452.881016 
L 44.352 452.408061 
L 47.52 452.602743 
L 50.688 451.251204 
L 53.856 446.399206 
L 57.024 443.501169 
L 60.192 441.59172 
L 63.36 440.710303 
L 66.528 439.126851 
L 69.696 437.819807 
L 72.864 437.130804 
L 76.032 437.209953 
L 79.2 438.070352 
L 82.368 438.017359 
L 85.536 437.429156 
L 88.704 438.389992 
L 91.872 439.029615 
L 95.04 439.11615 
L 98.208 439.947199 
L 101.376 443.531094 
L 104.544 440.379215 
L 107.712 439.471373 
L 110.88 442.122449 
L 114.048 439.182111 
L 117.216 437.173362 
L 120.384 435.918313 
L 123.552 437.992759 
L 126.72 440.558463 
L 129.888 439.971689 
L 133.056 439.132479 
L 136.224 437.030842 
L 139.392 432.710103 
L 142.56 427.192575 
L 145.728 424.034007 
L 148.896 420.377895 
L 152.064 418.371583 
L 155.232 415.157487 
L 158.4 412.751961 
L 161.568 411.918738 
L 164.736 409.233559 
L 167.904 404.471551 
L 171.072 401.912435 
L 174.24 402.482088 
L 177.408 401.471274 
L 180.576 403.050092 
L 183.744 402.126548 
L 186.912 404.259114 
L 190.08 406.128476 
L 193.248 406.494556 
L 196.416 407.148518 
L 202.752 403.474706 
L 205.92 402.711511 
L 209.088 403.169177 
L 212.256 403.059861 
L 215.424 402.196769 
L 218.592 408.948874 
L 224.928 416.138104 
L 228.096 421.312548 
L 231.264 423.880403 
L 234.432 427.16251 
L 237.6 428.745269 
L 240.768 429.08522 
L 247.104 435.110435 
L 250.272 435.8443 
L 253.44 433.3386 
L 259.776 435.426944 
L 262.944 435.934858 
L 266.112 435.419177 
L 269.28 435.526018 
L 272.448 434.794294 
L 275.616 434.756301 
L 278.784 433.308566 
L 281.952 429.920735 
L 285.12 430.035985 
L 288.288 434.23594 
L 291.456 438.081486 
L 294.624 437.62193 
L 297.792 435.808443 
L 300.96 434.79441 
L 304.128 433.039579 
L 310.464 425.773057 
L 313.632 425.487729 
L 316.8 423.841499 
L 319.968 425.841471 
L 323.136 424.976169 
L 326.304 423.005043 
L 329.472 423.800299 
L 332.64 428.005908 
L 338.976 437.484424 
L 342.144 441.945341 
L 345.312 445.746969 
L 348.48 451.863037 
L 351.648 455.777069 
L 354.816 457.932147 
L 361.152 460.201351 
L 364.32 459.133161 
L 367.488 456.505776 
L 370.656 454.463738 
L 373.824 454.402522 
L 376.992 451.625597 
L 380.16 447.968137 
L 383.328 448.640412 
L 386.496 446.888752 
L 389.664 445.867178 
L 392.832 445.658219 
L 396 445.902538 
L 399.168 448.725643 
L 402.336 452.335948 
L 405.504 459.725582 
L 408.672 461.672937 
L 411.84 463.372624 
L 418.176 463.906107 
L 424.512 464.954448 
L 430.848 463.657313 
L 434.016 463.695099 
L 437.184 464.607696 
L 440.352 464.441021 
L 443.52 464.988842 
L 446.688 465.255039 
L 449.856 465.053149 
L 453.024 465.023464 
L 456.192 464.648774 
L 459.36 464.10466 
L 462.528 462.912434 
L 465.696 461.499884 
L 468.864 459.458867 
L 472.032 453.780463 
L 475.2 448.622762 
L 478.368 443.870965 
L 481.536 440.154288 
L 484.704 437.398446 
L 487.872 436.646661 
L 494.208 441.351064 
L 497.376 442.852835 
L 500.544 443.51683 
L 503.712 445.743852 
L 506.88 448.539848 
L 510.048 452.083282 
L 513.216 456.095978 
L 519.552 459.042101 
L 522.72 459.635602 
L 532.224 459.140376 
L 535.392 458.285303 
L 538.56 459.345298 
L 541.728 459.474464 
L 544.896 459.312606 
L 548.064 459.70019 
L 551.232 459.437309 
L 554.4 460.165024 
L 557.568 461.744723 
L 563.904 464.091065 
L 567.072 466.290103 
L 570.24 467.668914 
L 573.408 468.182314 
L 576.576 468.06501 
L 579.744 468.388432 
L 582.912 467.555513 
L 586.08 465.761249 
L 589.248 464.744206 
L 592.416 464.396336 
L 595.584 464.784786 
L 598.752 464.892971 
L 601.92 464.428614 
L 605.088 464.178953 
L 608.256 462.256956 
L 611.424 461.50386 
L 614.592 460.558384 
L 617.76 459.344392 
L 620.928 451.373002 
L 624.096 447.970429 
L 627.264 441.166511 
L 630.432 433.434652 
L 633.6 431.019545 
L 636.768 429.072868 
L 639.936 426.711581 
L 643.104 421.473596 
L 646.272 415.729053 
L 649.44 413.04488 
L 652.608 411.537562 
L 655.776 410.870028 
L 658.944 409.409884 
L 665.28 405.533216 
L 668.448 406.380058 
L 671.616 406.068863 
L 674.784 407.113042 
L 677.952 407.080805 
L 681.12 409.66977 
L 684.288 410.156317 
L 687.456 409.045791 
L 690.624 406.940578 
L 693.792 404.663936 
L 700.128 399.032601 
L 703.296 396.361737 
L 706.464 396.564125 
L 709.632 395.992636 
L 712.8 393.495299 
L 719.136 391.07986 
L 722.304 392.114839 
L 725.472 391.803326 
L 728.64 391.948394 
L 731.808 392.306639 
L 734.976 394.233282 
L 741.312 394.613997 
L 744.48 395.081529 
L 747.648 397.896145 
L 750.816 400.515053 
L 753.984 401.796992 
L 757.152 400.849311 
L 760.32 397.247594 
L 763.488 396.505088 
L 769.824 391.663941 
L 772.992 391.799603 
L 776.16 390.845308 
L 782.496 392.667175 
L 785.664 393.229105 
L 788.832 393.373278 
L 788.832 393.373278 
" clip-path="url(#p7a5cb4b119)" style="fill: none; stroke: #000000; stroke-width: 1.5; stroke-linecap: square"/>
   </g>
   <g id="line2d_4">
    <path d="M 0 459 
L 3.168 459 
L 6.336 459.455934 
L 9.504 459.675943 
L 15.84 459.769395 
L 19.008 459.6925 
L 22.176 460.378211 
L 25.344 459.864262 
L 28.512 459.962569 
L 31.68 458.75037 
L 34.848 456.423282 
L 38.016 454.958746 
L 41.184 454.881403 
L 44.352 454.252613 
L 47.52 454.049185 
L 50.688 453.02357 
L 53.856 449.959389 
L 57.024 447.735201 
L 60.192 445.973716 
L 63.36 444.774224 
L 66.528 443.242747 
L 69.696 441.862705 
L 72.864 440.847423 
L 76.032 440.301888 
L 79.2 440.291509 
L 82.368 439.909867 
L 85.536 439.289724 
L 91.872 439.699463 
L 95.04 439.647028 
L 98.208 440.022664 
L 101.376 441.962219 
L 104.544 440.484735 
L 107.712 439.959241 
L 110.88 441.306105 
L 114.048 439.824322 
L 117.216 438.614562 
L 120.384 437.687308 
L 123.552 438.511381 
L 126.72 439.811085 
L 129.888 439.597055 
L 133.056 439.195972 
L 136.224 438.037718 
L 139.392 435.524706 
L 142.56 432.06808 
L 145.728 429.566301 
L 148.896 426.688996 
L 152.064 424.594515 
L 155.232 421.852405 
L 158.4 419.476532 
L 161.568 417.958745 
L 164.736 415.530418 
L 167.904 411.930925 
L 171.072 409.34621 
L 174.24 408.476577 
L 177.408 406.976708 
L 180.576 406.958245 
L 183.744 405.832812 
L 190.08 407.064187 
L 193.248 407.097737 
L 196.416 407.342911 
L 199.584 406.325553 
L 202.752 405.120404 
L 205.92 404.427891 
L 209.088 404.384785 
L 212.256 404.108165 
L 215.424 403.454092 
L 218.592 406.896574 
L 221.76 409.111028 
L 224.928 411.60972 
L 228.096 415.105132 
L 231.264 417.463917 
L 234.432 420.239686 
L 237.6 422.184042 
L 240.768 423.404052 
L 247.104 428.549146 
L 250.272 429.983723 
L 253.44 429.546678 
L 259.776 431.861274 
L 262.944 432.69952 
L 266.112 432.932413 
L 269.28 433.406145 
L 272.448 433.36177 
L 275.616 433.582164 
L 278.784 433.004291 
L 281.952 431.226551 
L 285.12 431.10328 
L 288.288 433.229288 
L 291.456 435.489578 
L 294.624 435.672393 
L 297.792 435.018558 
L 300.96 434.616243 
L 304.128 433.709017 
L 307.296 431.62679 
L 310.464 429.33608 
L 313.632 428.635212 
L 316.8 427.260382 
L 319.968 427.809986 
L 323.136 427.033933 
L 326.304 425.64099 
L 329.472 425.651319 
L 332.64 427.636597 
L 335.808 430.296338 
L 338.976 433.244198 
L 345.312 439.301515 
L 348.48 443.639333 
L 351.648 447.068771 
L 354.816 449.625035 
L 357.984 451.536724 
L 361.152 454.654076 
L 364.32 454.17062 
L 367.488 453.421911 
L 370.656 452.800218 
L 373.824 453.025329 
L 376.992 451.725792 
L 380.16 449.720344 
L 383.328 449.817003 
L 386.496 448.686894 
L 389.664 447.848513 
L 392.832 447.423081 
L 396 447.286444 
L 399.168 448.621745 
L 402.336 450.619733 
L 405.504 455.71605 
L 408.672 459.261311 
L 411.84 460.579516 
L 424.512 462.978883 
L 427.68 462.962067 
L 430.848 462.815289 
L 434.016 462.972303 
L 437.184 463.582689 
L 440.352 463.654114 
L 443.52 464.075332 
L 446.688 464.363543 
L 456.192 464.368187 
L 459.36 464.121315 
L 462.528 463.473813 
L 465.696 462.62205 
L 468.864 461.340206 
L 472.032 459.852658 
L 475.2 457.534316 
L 478.368 453.549141 
L 481.536 450.005657 
L 484.704 446.952838 
L 487.872 445.047532 
L 491.04 445.00772 
L 494.208 445.352645 
L 497.376 445.552566 
L 500.544 445.496248 
L 503.712 446.401017 
L 506.88 447.809545 
L 510.048 449.843708 
L 513.216 452.365562 
L 519.552 455.183241 
L 522.72 456.75202 
L 525.888 457.114216 
L 529.056 457.206033 
L 532.224 457.445653 
L 535.392 457.116522 
L 538.56 458.223915 
L 541.728 458.704477 
L 544.896 458.693209 
L 548.064 459.16743 
L 551.232 459.103074 
L 554.4 459.546239 
L 557.568 460.49908 
L 563.904 462.219756 
L 567.072 463.71303 
L 570.24 464.875596 
L 573.408 465.604541 
L 576.576 465.955689 
L 579.744 466.47222 
L 582.912 466.330351 
L 586.08 465.555719 
L 589.248 465.042011 
L 592.416 464.809094 
L 595.584 464.956838 
L 598.752 464.991815 
L 605.088 464.546974 
L 608.256 463.449196 
L 611.424 462.854173 
L 614.592 462.129322 
L 617.76 461.227313 
L 620.928 459.366167 
L 624.096 456.87669 
L 627.264 451.776515 
L 630.432 445.900237 
L 633.6 442.612637 
L 639.936 436.735747 
L 643.104 432.293005 
L 646.272 427.450463 
L 649.44 424.126951 
L 652.608 421.547076 
L 655.776 419.591064 
L 662.112 415.068533 
L 665.28 412.774068 
L 668.448 412.053762 
L 671.616 410.941008 
L 674.784 410.702358 
L 677.952 410.076145 
L 681.12 410.961037 
L 684.288 410.98712 
L 687.456 410.225624 
L 690.624 408.864044 
L 693.792 407.280618 
L 700.128 403.156921 
L 703.296 401.006604 
L 706.464 400.338034 
L 709.632 399.395873 
L 712.8 397.458833 
L 719.136 394.837917 
L 722.304 394.787036 
L 725.472 394.17353 
L 728.64 393.864018 
L 731.808 393.754369 
L 734.976 394.562394 
L 741.312 394.665445 
L 744.48 394.905074 
L 750.816 398.097855 
L 753.984 399.166334 
L 757.152 399.062685 
L 760.32 397.383972 
L 763.488 396.949131 
L 766.656 395.585142 
L 769.824 393.996369 
L 772.992 393.692136 
L 776.16 392.860308 
L 779.328 393.015998 
L 785.664 393.499779 
L 788.832 393.527888 
L 788.832 393.527888 
" clip-path="url(#p7a5cb4b119)" style="fill: none; stroke: #000000; stroke-width: 1.5; stroke-linecap: square"/>
   </g>
   <g id="line2d_5">
    <path d="M 0 459 
L 3.168 459 
L 6.336 459.437833 
L 9.504 459.647661 
L 15.84 459.745596 
L 19.008 459.686506 
L 22.176 460.240336 
L 25.344 459.861072 
L 28.512 459.936356 
L 31.68 459.165215 
L 34.848 457.713013 
L 38.016 456.513315 
L 41.184 456.268961 
L 44.352 455.679529 
L 47.52 455.381653 
L 50.688 454.565394 
L 53.856 452.434261 
L 57.024 450.769697 
L 60.192 449.361313 
L 63.36 448.28313 
L 69.696 445.812351 
L 72.864 444.830562 
L 76.032 444.132313 
L 79.2 443.767111 
L 82.368 443.224563 
L 85.536 442.56517 
L 98.208 441.983318 
L 101.376 442.884957 
L 104.544 441.99502 
L 107.712 441.581622 
L 110.88 442.18308 
L 117.216 440.531728 
L 120.384 439.873168 
L 123.552 440.139657 
L 126.72 440.703218 
L 133.056 440.22948 
L 136.224 439.527095 
L 139.392 438.068276 
L 142.56 436.024484 
L 145.728 434.37015 
L 148.896 432.448973 
L 152.064 430.862548 
L 155.232 428.889264 
L 158.4 427.047825 
L 161.568 425.616501 
L 164.736 423.700395 
L 167.904 421.125255 
L 171.072 419.000393 
L 174.24 417.741774 
L 177.408 416.186179 
L 180.576 415.416008 
L 183.744 414.127395 
L 186.912 413.741067 
L 190.08 413.486644 
L 193.248 412.978634 
L 196.416 412.626438 
L 205.92 409.777537 
L 212.256 408.745043 
L 215.424 408.008269 
L 218.592 409.419331 
L 221.76 410.357142 
L 224.928 411.548704 
L 228.096 413.37348 
L 231.264 414.738593 
L 234.432 416.408051 
L 237.6 417.733942 
L 240.768 418.72997 
L 247.104 422.230563 
L 250.272 423.487945 
L 253.44 423.787834 
L 259.776 425.937376 
L 262.944 426.85641 
L 272.448 428.539303 
L 275.616 429.04382 
L 278.784 429.106643 
L 281.952 428.49257 
L 285.12 428.642764 
L 288.288 429.946454 
L 291.456 431.387031 
L 294.624 431.811801 
L 300.96 431.826796 
L 304.128 431.567891 
L 307.296 430.64934 
L 310.464 429.524851 
L 313.632 429.128653 
L 316.8 428.359895 
L 319.968 428.553079 
L 323.136 428.082562 
L 326.304 427.262741 
L 329.472 427.129279 
L 332.64 428.0397 
L 335.808 429.392887 
L 338.976 431.005143 
L 345.312 434.652507 
L 348.48 437.307059 
L 351.648 439.627809 
L 354.816 441.581581 
L 357.984 443.254707 
L 361.152 445.576692 
L 364.32 446.08658 
L 370.656 446.651539 
L 373.824 447.291273 
L 376.992 447.099489 
L 380.16 446.447671 
L 383.328 446.774511 
L 389.664 446.207546 
L 392.832 446.133803 
L 396 446.179069 
L 399.168 446.974868 
L 402.336 448.163839 
L 405.504 451.035288 
L 411.84 456.136005 
L 415.008 457.723126 
L 418.176 459.07147 
L 424.512 460.176447 
L 434.016 460.806849 
L 437.184 461.305999 
L 440.352 461.533986 
L 446.688 462.262056 
L 456.192 462.760132 
L 459.36 462.767503 
L 462.528 462.545699 
L 465.696 462.179987 
L 468.864 461.549676 
L 478.368 459.17112 
L 481.536 457.172449 
L 484.704 454.993573 
L 487.872 453.335517 
L 491.04 452.626349 
L 500.544 451.181487 
L 503.712 451.191076 
L 506.88 451.545946 
L 510.048 452.31688 
L 513.216 453.449164 
L 519.552 454.834665 
L 522.72 455.697734 
L 525.888 455.992889 
L 532.224 456.377169 
L 535.392 456.305607 
L 538.56 456.962915 
L 541.728 457.326456 
L 544.896 457.44409 
L 548.064 457.977854 
L 551.232 458.006632 
L 554.4 458.812073 
L 557.568 459.486053 
L 563.904 460.57693 
L 567.072 461.49276 
L 570.24 462.283082 
L 573.408 462.877261 
L 579.744 463.774642 
L 582.912 463.92368 
L 589.248 463.601022 
L 592.416 463.599267 
L 598.752 463.893143 
L 605.088 463.823267 
L 608.256 463.30774 
L 614.592 462.61407 
L 617.76 462.101805 
L 620.928 461.056997 
L 624.096 460.354914 
L 627.264 459.29448 
L 630.432 456.139571 
L 636.768 451.13988 
L 639.936 448.629371 
L 643.104 445.314924 
L 646.272 441.692618 
L 649.44 438.764088 
L 652.608 436.190631 
L 658.944 431.600903 
L 665.28 426.832791 
L 668.448 425.298712 
L 671.616 423.62956 
L 674.784 422.4659 
L 677.952 421.175183 
L 681.12 420.734025 
L 684.288 419.950376 
L 687.456 418.817997 
L 693.792 415.871973 
L 700.128 412.281773 
L 703.296 410.404748 
L 709.632 408.042145 
L 712.8 406.308131 
L 719.136 403.465121 
L 722.304 402.710541 
L 725.472 401.722066 
L 728.64 400.921241 
L 731.808 400.263301 
L 734.976 400.134405 
L 741.312 399.279319 
L 744.48 399.004466 
L 747.648 399.456757 
L 750.816 400.046502 
L 753.984 400.426408 
L 757.152 400.248994 
L 760.32 399.250777 
L 763.488 398.844406 
L 766.656 397.948311 
L 769.824 396.893781 
L 772.992 396.46549 
L 776.16 395.774733 
L 782.496 395.501916 
L 788.832 395.238085 
L 788.832 395.238085 
" clip-path="url(#p7a5cb4b119)" style="fill: none; stroke: #000000; stroke-width: 1.5; stroke-linecap: square"/>
   </g>
   <g id="line2d_6">
    <path d="M 0 459 
L 3.168 459 
L 6.336 459.428752 
L 9.504 459.633221 
L 15.84 459.732288 
L 19.008 459.681292 
L 22.176 460.173956 
L 25.344 459.852832 
L 28.512 459.918411 
L 31.68 459.271228 
L 38.016 457.263211 
L 41.184 456.993478 
L 44.352 456.460647 
L 47.52 456.159726 
L 50.688 455.468279 
L 53.856 453.78486 
L 57.024 452.438822 
L 60.192 451.277198 
L 63.36 450.354565 
L 69.696 448.289484 
L 72.864 447.436078 
L 76.032 446.782225 
L 82.368 445.832562 
L 85.536 445.230609 
L 98.208 444.254555 
L 101.376 444.702042 
L 104.544 444.037147 
L 107.712 443.665132 
L 110.88 443.926732 
L 117.216 442.710122 
L 120.384 442.194278 
L 123.552 442.234889 
L 126.72 442.465845 
L 133.056 442.005521 
L 136.224 441.501747 
L 139.392 440.547072 
L 142.56 439.231217 
L 145.728 438.112792 
L 148.896 436.819737 
L 152.064 435.695189 
L 158.4 433.021336 
L 161.568 431.923839 
L 164.736 430.541016 
L 167.904 428.767125 
L 171.072 427.215008 
L 174.24 426.126546 
L 177.408 424.868564 
L 180.576 424.037758 
L 183.744 422.925455 
L 196.416 420.552715 
L 205.92 417.920273 
L 212.256 416.653681 
L 215.424 415.911369 
L 218.592 416.325719 
L 221.76 416.529231 
L 224.928 416.902069 
L 228.096 417.64537 
L 231.264 418.191081 
L 234.432 418.930135 
L 237.6 419.526443 
L 240.768 419.97941 
L 250.272 422.451184 
L 253.44 422.658185 
L 262.944 424.477881 
L 275.616 426.082442 
L 278.784 426.244862 
L 281.952 426.051676 
L 285.12 426.236803 
L 291.456 427.892499 
L 294.624 428.264665 
L 304.128 428.583585 
L 307.296 428.238044 
L 310.464 427.76268 
L 313.632 427.637277 
L 316.8 427.305603 
L 319.968 427.451051 
L 323.136 427.256796 
L 326.304 426.872754 
L 329.472 426.824061 
L 332.64 427.307184 
L 335.808 428.035455 
L 338.976 428.922001 
L 345.312 431.001027 
L 348.48 432.515048 
L 351.648 433.904726 
L 357.984 436.271288 
L 361.152 437.751785 
L 364.32 438.340584 
L 370.656 439.266348 
L 373.824 439.899802 
L 376.992 440.109526 
L 380.16 440.066163 
L 383.328 440.498469 
L 389.664 440.711509 
L 396 441.141287 
L 399.168 441.75583 
L 402.336 442.577295 
L 405.504 444.272535 
L 411.84 447.470862 
L 421.344 451.026027 
L 424.512 452.273361 
L 427.68 453.042416 
L 430.848 453.676496 
L 434.016 454.508748 
L 437.184 455.692054 
L 440.352 456.472656 
L 446.688 458.448385 
L 449.856 459.060132 
L 456.192 459.500251 
L 459.36 459.642335 
L 465.696 459.597052 
L 472.032 459.071634 
L 475.2 458.245269 
L 484.704 454.988782 
L 487.872 454.140722 
L 491.04 453.745683 
L 500.544 452.842246 
L 503.712 452.775126 
L 506.88 452.885366 
L 510.048 453.220377 
L 513.216 453.75714 
L 519.552 454.44698 
L 522.72 454.904013 
L 532.224 455.354103 
L 535.392 455.360847 
L 538.56 455.737868 
L 541.728 455.978307 
L 544.896 456.100609 
L 548.064 456.437036 
L 551.232 456.525392 
L 554.4 457.008532 
L 560.736 458.828575 
L 573.408 460.682134 
L 582.912 461.518298 
L 589.248 461.553516 
L 595.584 461.817021 
L 601.92 462.021467 
L 605.088 462.09109 
L 611.424 461.816036 
L 617.76 461.452665 
L 620.928 460.950658 
L 624.096 460.599519 
L 627.264 460.05075 
L 633.6 458.674 
L 639.936 455.690225 
L 643.104 453.703596 
L 646.272 451.504194 
L 649.44 449.596731 
L 652.608 447.825926 
L 658.944 444.477132 
L 665.28 440.924173 
L 674.784 436.87377 
L 677.952 435.600381 
L 681.12 434.761023 
L 684.288 433.763494 
L 687.456 432.597366 
L 693.792 429.911257 
L 703.296 425.283502 
L 709.632 422.815477 
L 712.8 421.302709 
L 719.136 418.576641 
L 725.472 416.418886 
L 731.808 414.440579 
L 734.976 413.776716 
L 741.312 412.197963 
L 744.48 411.50933 
L 750.816 411.015763 
L 753.984 410.743256 
L 757.152 410.214111 
L 760.32 409.280632 
L 763.488 408.64852 
L 769.824 406.82196 
L 772.992 406.187469 
L 776.16 405.426185 
L 782.496 404.491446 
L 788.832 403.614924 
L 788.832 403.614924 
" clip-path="url(#p7a5cb4b119)" style="fill: none; stroke: #000000; stroke-width: 1.5; stroke-linecap: square"/>
   </g>
   <g id="line2d_7">
    <path d="M 0 459 
L 3.168 459 
L 6.336 459.424208 
L 9.504 459.625937 
L 15.84 459.725298 
L 19.008 459.67812 
L 22.176 460.14157 
L 25.344 459.847153 
L 28.512 459.908258 
L 31.68 459.318887 
L 34.848 458.576191 
L 38.016 457.620606 
L 41.184 457.350202 
L 44.352 456.852821 
L 47.52 456.560537 
L 50.688 455.934629 
L 53.856 454.4626 
L 57.024 453.276612 
L 60.192 452.247219 
L 66.528 450.479704 
L 69.696 449.590568 
L 72.864 448.826013 
L 76.032 448.225499 
L 82.368 447.323166 
L 85.536 446.777188 
L 98.208 445.744017 
L 101.376 446.01949 
L 104.544 445.463649 
L 107.712 445.126895 
L 110.88 445.262155 
L 117.216 444.258858 
L 120.384 443.824416 
L 123.552 443.792515 
L 126.72 443.900762 
L 133.056 443.46958 
L 136.224 443.062791 
L 139.392 442.339627 
L 142.56 441.361657 
L 145.728 440.514989 
L 158.4 436.663113 
L 161.568 435.807259 
L 164.736 434.757673 
L 167.904 433.442932 
L 171.072 432.268186 
L 183.744 428.80373 
L 199.584 425.844421 
L 205.92 424.383425 
L 215.424 422.579944 
L 218.592 422.652525 
L 221.76 422.604353 
L 224.928 422.667801 
L 234.432 423.472428 
L 243.936 424.284567 
L 247.104 424.752607 
L 250.272 425.084689 
L 253.44 425.139332 
L 266.112 426.251928 
L 272.448 426.65773 
L 275.616 426.858848 
L 278.784 426.933618 
L 281.952 426.804478 
L 285.12 426.892576 
L 291.456 427.820746 
L 294.624 428.0357 
L 304.128 428.23878 
L 316.8 427.526612 
L 319.968 427.603039 
L 329.472 427.233131 
L 332.64 427.492677 
L 338.976 428.388925 
L 345.312 429.575219 
L 351.648 431.258433 
L 361.152 433.588677 
L 367.488 434.366359 
L 376.992 435.391128 
L 380.16 435.476775 
L 383.328 435.816951 
L 392.832 436.353945 
L 396 436.587255 
L 399.168 437.022191 
L 402.336 437.571804 
L 411.84 440.582944 
L 421.344 442.978481 
L 424.512 443.825509 
L 434.016 445.597796 
L 437.184 446.424838 
L 440.352 447.045861 
L 446.688 448.519069 
L 456.192 450.275349 
L 459.36 450.726273 
L 462.528 450.982699 
L 465.696 451.102484 
L 468.864 450.982122 
L 475.2 450.373056 
L 487.872 448.831143 
L 497.376 448.66004 
L 500.544 448.584251 
L 506.88 448.791263 
L 516.384 449.681314 
L 525.888 450.498171 
L 538.56 451.227351 
L 554.4 452.362339 
L 563.904 454.147902 
L 570.24 455.948168 
L 573.408 456.696216 
L 582.912 458.468731 
L 601.92 459.41428 
L 605.088 459.504767 
L 617.76 459.379808 
L 624.096 459.02494 
L 627.264 458.333452 
L 630.432 457.392085 
L 639.936 455.239966 
L 643.104 454.235144 
L 646.272 453.10075 
L 652.608 451.136337 
L 658.944 449.268858 
L 665.28 447.234292 
L 677.952 443.906669 
L 684.288 442.606501 
L 690.624 440.953434 
L 696.96 439.062277 
L 706.464 436.133167 
L 709.632 435.230984 
L 715.968 433.2162 
L 719.136 432.237776 
L 731.808 428.922487 
L 738.144 427.548392 
L 744.48 426.17981 
L 757.152 424.292332 
L 760.32 423.517383 
L 763.488 422.892401 
L 772.992 420.719875 
L 776.16 420.022007 
L 788.832 417.863907 
L 788.832 417.863907 
" clip-path="url(#p7a5cb4b119)" style="fill: none; stroke: #000000; stroke-width: 1.5; stroke-linecap: square"/>
   </g>
   <g id="line2d_8">
    <path d="M 0 459 
L 3.168 459 
L 6.336 459.421936 
L 9.504 459.622281 
L 15.84 459.721721 
L 19.008 459.676392 
L 22.176 460.125597 
L 25.344 459.843942 
L 28.512 459.902898 
L 34.848 458.707474 
L 38.016 457.793655 
L 41.184 457.525445 
L 44.352 457.04713 
L 47.52 456.761335 
L 50.688 456.168501 
L 53.856 454.797946 
L 57.024 453.690724 
L 60.192 452.727993 
L 66.528 451.073298 
L 72.864 449.528003 
L 76.032 448.960263 
L 82.368 448.096414 
L 85.536 447.584176 
L 98.208 446.558572 
L 101.376 446.765039 
L 104.544 446.263388 
L 107.712 445.948962 
L 110.88 446.035444 
L 120.384 444.747146 
L 123.552 444.691742 
L 126.72 444.753901 
L 133.056 444.347861 
L 136.224 443.989549 
L 139.392 443.373853 
L 148.896 441.017078 
L 152.064 440.288288 
L 158.4 438.589727 
L 161.568 437.862651 
L 164.736 436.982777 
L 171.072 434.914336 
L 183.744 431.958287 
L 199.584 429.336431 
L 205.92 428.083247 
L 215.424 426.500351 
L 228.096 426.478603 
L 234.432 426.712137 
L 243.936 427.119986 
L 250.272 427.591488 
L 253.44 427.583926 
L 269.28 428.343671 
L 278.784 428.55811 
L 281.952 428.440092 
L 285.12 428.472817 
L 294.624 429.187944 
L 304.128 429.271149 
L 316.8 428.717357 
L 319.968 428.749374 
L 329.472 428.445663 
L 335.808 428.846787 
L 342.144 429.526146 
L 345.312 429.919019 
L 354.816 431.504078 
L 357.984 431.961398 
L 361.152 432.552959 
L 373.824 433.644078 
L 399.168 435.020514 
L 402.336 435.395327 
L 411.84 437.390449 
L 427.68 440.040149 
L 434.016 440.886655 
L 437.184 441.460731 
L 443.52 442.446699 
L 449.856 443.404544 
L 456.192 444.261593 
L 459.36 444.616996 
L 465.696 445.010413 
L 472.032 444.925858 
L 478.368 444.646779 
L 487.872 444.165165 
L 500.544 444.257664 
L 506.88 444.493021 
L 519.552 445.416382 
L 525.888 445.84432 
L 544.896 446.85109 
L 554.4 447.470135 
L 563.904 448.691366 
L 570.24 449.866806 
L 579.744 451.289996 
L 582.912 451.629981 
L 592.416 452.279249 
L 598.752 452.918004 
L 605.088 453.393117 
L 617.76 453.522908 
L 620.928 453.243855 
L 624.096 453.081417 
L 627.264 452.73826 
L 630.432 452.278457 
L 639.936 451.247169 
L 662.112 447.577477 
L 668.448 446.552094 
L 677.952 445.157872 
L 684.288 444.407875 
L 690.624 443.450952 
L 700.128 441.751707 
L 706.464 440.609263 
L 712.8 439.43665 
L 722.304 437.72361 
L 731.808 436.127904 
L 747.648 433.935176 
L 757.152 432.873125 
L 769.824 430.867913 
L 785.664 428.701384 
L 788.832 428.294562 
L 788.832 428.294562 
" clip-path="url(#p7a5cb4b119)" style="fill: none; stroke: #000000; stroke-width: 1.5; stroke-linecap: square"/>
   </g>
   <g id="line2d_9">
    <path d="M 0 459 
L 3.168 459 
L 6.336 459.4208 
L 9.504 459.620449 
L 15.84 459.719913 
L 19.008 459.675493 
L 22.176 460.117668 
L 25.344 459.842247 
L 28.512 459.900149 
L 34.848 458.771595 
L 38.016 457.878622 
L 41.184 457.612077 
L 44.352 457.143566 
L 47.52 456.8615 
L 50.688 456.285209 
L 53.856 454.964203 
L 57.024 453.895862 
L 60.192 452.966375 
L 66.528 451.368661 
L 72.864 449.878659 
L 76.032 449.328516 
L 82.368 448.487047 
L 85.536 447.992826 
L 98.208 446.979274 
L 101.376 447.155559 
L 104.544 446.680798 
L 107.712 446.378609 
L 110.88 446.444404 
L 120.384 445.230796 
L 129.888 445.029483 
L 133.056 444.819115 
L 136.224 444.484876 
L 139.392 443.920298 
L 148.896 441.772231 
L 152.064 441.107198 
L 158.4 439.564575 
L 161.568 438.901555 
L 164.736 438.104531 
L 171.072 436.240242 
L 183.744 433.548826 
L 199.584 431.129456 
L 205.92 429.990657 
L 215.424 428.540516 
L 228.096 428.385297 
L 234.432 428.518999 
L 243.936 428.774225 
L 250.272 429.114947 
L 253.44 429.085288 
L 269.28 429.605246 
L 278.784 429.727116 
L 281.952 429.614863 
L 285.12 429.624907 
L 294.624 430.157037 
L 304.128 430.185599 
L 316.8 429.695663 
L 323.136 429.622093 
L 329.472 429.432057 
L 335.808 429.722828 
L 345.312 430.530927 
L 354.816 431.744209 
L 364.32 432.771076 
L 376.992 433.522182 
L 380.16 433.585096 
L 386.496 433.87094 
L 396 434.236796 
L 402.336 434.757855 
L 411.84 436.280864 
L 430.848 438.63342 
L 440.352 439.785824 
L 449.856 440.951542 
L 456.192 441.628567 
L 462.528 442.114227 
L 468.864 442.287992 
L 478.368 442.096075 
L 487.872 441.820457 
L 503.712 442.060875 
L 510.048 442.35624 
L 522.72 443.129681 
L 554.4 444.627444 
L 563.904 445.551334 
L 573.408 446.797169 
L 582.912 447.756771 
L 592.416 448.300491 
L 601.92 448.997544 
L 605.088 449.196146 
L 617.76 449.422751 
L 630.432 448.714478 
L 639.936 448.107263 
L 662.112 445.808052 
L 671.616 444.840146 
L 693.792 442.822713 
L 734.976 438.020755 
L 747.648 436.816681 
L 757.152 436.070478 
L 776.16 434.035048 
L 788.832 432.876178 
L 788.832 432.876178 
" clip-path="url(#p7a5cb4b119)" style="fill: none; stroke: #000000; stroke-width: 1.5; stroke-linecap: square"/>
   </g>
  </g>
 </g>
 <defs>
  <clipPath id="p7a5cb4b119">
   <rect x="0" y="0" width="792" height="612"/>
  </clipPath>
 </defs>
</svg>
