<?xml version="1.0" encoding="utf-8" standalone="no"?>
<!DOCTYPE svg PUBLIC "-//W3C//DTD SVG 1.1//EN"
  "http://www.w3.org/Graphics/SVG/1.1/DTD/svg11.dtd">
<svg xmlns:xlink="http://www.w3.org/1999/xlink" width="792pt" height="612pt" viewBox="0 0 792 612" xmlns="http://www.w3.org/2000/svg" version="1.1">
 <metadata>
  <rdf:RDF xmlns:dc="http://purl.org/dc/elements/1.1/" xmlns:cc="http://creativecommons.org/ns#" xmlns:rdf="http://www.w3.org/1999/02/22-rdf-syntax-ns#">
   <cc:Work>
    <dc:type rdf:resource="http://purl.org/dc/dcmitype/StillImage"/>
    <dc:date>2023-01-02T15:39:11.831013</dc:date>
    <dc:format>image/svg+xml</dc:format>
    <dc:creator>
     <cc:Agent>
      <dc:title>Matplotlib v3.6.2, https://matplotlib.org/</dc:title>
     </cc:Agent>
    </dc:creator>
   </cc:Work>
  </rdf:RDF>
 </metadata>
 <defs>
  <style type="text/css">*{stroke-linejoin: round; stroke-linecap: butt}</style>
 </defs>
 <g id="figure_1">
  <g id="patch_1">
   <path d="M 0 612 
L 792 612 
L 792 0 
L 0 0 
z
" style="fill: #ffffff"/>
  </g>
  <g id="axes_1">
   <g id="line2d_1">
    <path d="M 0 459 
L 12.571429 446.145401 
L 25.142857 448.861393 
L 37.714286 452.805177 
L 50.285714 459.185077 
L 62.857143 457.801874 
L 75.428571 452.016328 
L 88 452.892829 
L 100.571429 434.359803 
L 113.142857 440.803837 
L 125.714286 436.429119 
L 138.285714 430.69002 
L 150.857143 409.225779 
L 163.428571 418.776203 
L 176 403.285494 
L 188.571429 393.065379 
L 201.142857 403.688626 
L 213.714286 402.796093 
L 226.285714 399.34525 
L 238.857143 386.867613 
L 251.428571 379.760754 
L 264 384.532473 
L 276.571429 385.870431 
L 289.142857 387.266682 
L 301.714286 383.736007 
L 314.285714 380.696699 
L 326.857143 378.513884 
L 339.428571 386.326198 
L 352 383.053692 
L 364.571429 387.523285 
L 377.142857 384.760119 
L 389.714286 393.895568 
L 402.285714 389.206588 
L 414.857143 384.105737 
L 427.428571 379.477268 
L 440 376.674163 
L 452.571429 372.213717 
L 465.142857 369.736709 
L 477.714286 367.208984 
L 490.285714 374.498336 
L 502.857143 371.988315 
L 515.428571 364.687044 
L 528 366.563932 
L 540.571429 365.44301 
L 553.142857 371.988315 
L 565.714286 368.359794 
L 578.285714 369.624245 
L 590.857143 370.552407 
L 603.428571 376.391369 
L 616 372.270074 
L 628.571429 372.439162 
L 641.142857 373.595246 
L 653.714286 382.286501 
L 666.285714 384.475567 
L 678.857143 382.45695 
L 691.428571 375.995568 
L 704 365.779165 
L 716.571429 372.016488 
L 729.142857 365.611074 
L 741.714286 362.813444 
L 754.285714 369.39935 
L 766.857143 365.723132 
L 779.428571 371.199753 
" clip-path="url(#p6b1e2bc657)" style="fill: none; stroke: #000000; stroke-width: 1.5; stroke-linecap: square"/>
   </g>
   <g id="line2d_2">
    <path d="M 0 459 
L 12.571429 459 
L 25.142857 450.429022 
L 37.714286 449.533207 
L 50.285714 451.278159 
L 62.857143 455.549908 
L 75.428571 456.69375 
L 88 454.336503 
L 100.571429 453.611822 
L 113.142857 443.93089 
L 125.714286 442.356698 
L 138.285714 439.367725 
L 150.857143 434.98341 
L 163.428571 421.976908 
L 176 420.299903 
L 188.571429 411.681231 
L 201.142857 402.233245 
L 213.714286 402.901075 
L 226.285714 402.774646 
L 238.857143 400.986953 
L 251.428571 393.826285 
L 264 386.718633 
L 276.571429 385.558628 
L 289.142857 385.680571 
L 301.714286 386.462063 
L 314.285714 385.059464 
L 326.857143 382.83324 
L 339.428571 380.631166 
L 352 383.474635 
L 364.571429 383.270613 
L 377.142857 385.40119 
L 389.714286 385.078441 
L 402.285714 389.493429 
L 414.857143 389.36075 
L 427.428571 386.73752 
L 440 383.104408 
L 452.571429 379.866382 
L 465.142857 376.012861 
L 477.714286 372.835896 
L 490.285714 369.984721 
L 502.857143 372.201672 
L 515.428571 372.061455 
L 528 368.33028 
L 540.571429 367.421554 
L 553.142857 366.409901 
L 565.714286 369.195219 
L 578.285714 368.77473 
L 590.857143 369.204147 
L 603.428571 369.870357 
L 616 373.134999 
L 628.571429 372.717381 
L 641.142857 372.589814 
L 653.714286 373.108458 
L 666.285714 377.709291 
L 678.857143 381.119791 
L 691.428571 381.81348 
L 704 378.911928 
L 716.571429 372.306321 
L 729.142857 372.160898 
L 741.714286 368.867828 
L 754.285714 365.815313 
L 766.857143 367.580789 
L 779.428571 366.61506 
" clip-path="url(#p6b1e2bc657)" style="fill: none; stroke: #000000; stroke-width: 1.5; stroke-linecap: square"/>
   </g>
   <g id="line2d_3">
    <path d="M 0 459 
L 12.571429 459 
L 25.142857 451.468657 
L 37.714286 450.287283 
L 50.285714 451.270527 
L 62.857143 454.21783 
L 75.428571 455.417492 
L 88 454.324666 
L 100.571429 453.877321 
L 113.142857 447.891209 
L 125.714286 445.747689 
L 138.285714 442.955172 
L 150.857143 439.302575 
L 163.428571 430.365389 
L 176 426.939778 
L 188.571429 419.949543 
L 201.142857 412.007865 
L 213.714286 409.504632 
L 226.285714 407.487914 
L 238.857143 405.042871 
L 251.428571 399.623836 
L 264 393.688372 
L 276.571429 390.917771 
L 289.142857 389.362704 
L 301.714286 388.674206 
L 314.285714 387.168594 
L 326.857143 385.201751 
L 339.428571 383.173823 
L 352 384.046138 
L 364.571429 383.725561 
L 377.142857 384.801318 
L 389.714286 384.768102 
L 402.285714 387.436534 
L 414.857143 387.938203 
L 427.428571 386.793246 
L 440 384.623619 
L 452.571429 382.278583 
L 465.142857 379.313618 
L 477.714286 376.483792 
L 490.285714 373.738281 
L 502.857143 373.94626 
L 515.428571 373.359011 
L 528 370.793814 
L 540.571429 369.539571 
L 553.142857 368.314312 
L 565.714286 369.376551 
L 578.285714 369.056803 
L 590.857143 369.205703 
L 603.428571 369.573435 
L 616 371.551679 
L 628.571429 371.748523 
L 641.142857 371.942707 
L 653.714286 372.422956 
L 666.285714 375.315346 
L 678.857143 378.008479 
L 691.428571 379.327401 
L 704 378.352339 
L 716.571429 374.648689 
L 729.142857 373.885591 
L 741.714286 371.454735 
L 754.285714 368.913742 
L 766.857143 369.052982 
L 779.428571 368.073623 
" clip-path="url(#p6b1e2bc657)" style="fill: none; stroke: #000000; stroke-width: 1.5; stroke-linecap: square"/>
   </g>
   <g id="line2d_4">
    <path d="M 0 459 
L 12.571429 459 
L 25.142857 452.015919 
L 37.714286 450.777786 
L 50.285714 451.422885 
L 62.857143 453.655189 
L 75.428571 454.675717 
L 88 454.073552 
L 100.571429 453.823069 
L 113.142857 449.898356 
L 125.714286 448.139888 
L 138.285714 445.949796 
L 150.857143 443.171928 
L 163.428571 437.113101 
L 176 433.906042 
L 188.571429 428.619318 
L 201.142857 422.547502 
L 213.714286 419.370097 
L 226.285714 416.602749 
L 238.857143 413.741336 
L 251.428571 409.301001 
L 264 404.438776 
L 276.571429 401.183738 
L 289.142857 398.691355 
L 301.714286 396.839242 
L 314.285714 394.719126 
L 326.857143 392.454171 
L 339.428571 390.206229 
L 352 389.583348 
L 364.571429 388.535577 
L 377.142857 388.373575 
L 389.714286 387.795363 
L 402.285714 388.768066 
L 414.857143 388.794967 
L 427.428571 388.009669 
L 440 386.605894 
L 452.571429 384.973988 
L 465.142857 382.88171 
L 477.714286 380.727024 
L 490.285714 378.514161 
L 502.857143 377.826387 
L 515.428571 376.85736 
L 528 374.865813 
L 540.571429 373.498141 
L 553.142857 372.17271 
L 565.714286 372.120446 
L 578.285714 371.490311 
L 590.857143 371.172448 
L 603.428571 371.059847 
L 616 371.889703 
L 628.571429 371.931388 
L 641.142857 371.995551 
L 653.714286 372.241694 
L 666.285714 373.835946 
L 678.857143 375.522709 
L 691.428571 376.621311 
L 704 376.514727 
L 716.571429 374.788865 
L 729.142857 374.341932 
L 741.714286 372.940332 
L 754.285714 371.308367 
L 766.857143 370.99594 
L 779.428571 370.141831 
" clip-path="url(#p6b1e2bc657)" style="fill: none; stroke: #000000; stroke-width: 1.5; stroke-linecap: square"/>
   </g>
   <g id="line2d_5">
    <path d="M 0 459 
L 12.571429 459 
L 25.142857 452.293156 
L 37.714286 451.048711 
L 50.285714 451.546412 
L 62.857143 453.436789 
L 75.428571 454.330388 
L 88 453.908026 
L 100.571429 453.739508 
L 113.142857 450.766215 
L 125.714286 449.338835 
L 138.285714 447.593719 
L 150.857143 445.420785 
L 163.428571 440.957253 
L 176 438.331007 
L 188.571429 434.31214 
L 201.142857 429.715526 
L 213.714286 426.900748 
L 226.285714 424.356891 
L 238.857143 421.77312 
L 251.428571 418.227302 
L 264 414.381939 
L 276.571429 411.450903 
L 289.142857 408.977087 
L 301.714286 406.906447 
L 314.285714 404.721029 
L 326.857143 402.478026 
L 339.428571 400.261728 
L 352 398.988018 
L 364.571429 397.542216 
L 377.142857 396.64133 
L 389.714286 395.579402 
L 402.285714 395.430263 
L 414.857143 394.881326 
L 427.428571 393.934315 
L 440 392.667982 
L 452.571429 391.272039 
L 465.142857 389.612977 
L 477.714286 387.887966 
L 490.285714 386.098172 
L 502.857143 385.100397 
L 515.428571 383.974859 
L 528 382.31913 
L 540.571429 380.97139 
L 553.142857 379.645755 
L 565.714286 378.99524 
L 578.285714 378.092214 
L 590.857143 377.374934 
L 603.428571 376.798217 
L 616 376.763954 
L 628.571429 376.385373 
L 641.142857 376.053365 
L 653.714286 375.84688 
L 666.285714 376.385553 
L 678.857143 377.061332 
L 691.428571 377.512122 
L 704 377.385192 
L 716.571429 376.41062 
L 729.142857 376.042901 
L 741.714286 375.16829 
L 754.285714 374.132095 
L 766.857143 373.736565 
L 779.428571 373.066242 
" clip-path="url(#p6b1e2bc657)" style="fill: none; stroke: #000000; stroke-width: 1.5; stroke-linecap: square"/>
   </g>
   <g id="line2d_6">
    <path d="M 0 459 
L 12.571429 459 
L 25.142857 452.432232 
L 37.714286 451.189919 
L 50.285714 451.620324 
L 62.857143 453.347484 
L 75.428571 454.172487 
L 88 453.823011 
L 100.571429 453.688363 
L 113.142857 451.147754 
L 125.714286 449.89976 
L 138.285714 448.391945 
L 150.857143 446.538271 
L 163.428571 442.849108 
L 176 440.598926 
L 188.571429 437.271191 
L 201.142857 433.495313 
L 213.714286 431.059157 
L 226.285714 428.835756 
L 238.857143 426.594913 
L 251.428571 423.664598 
L 264 420.51726 
L 276.571429 418.013669 
L 289.142857 415.836839 
L 301.714286 413.950189 
L 314.285714 411.998723 
L 326.857143 410.018697 
L 339.428571 408.064854 
L 352 406.745661 
L 364.571429 405.332205 
L 377.142857 404.289112 
L 389.714286 403.162457 
L 402.285714 402.637301 
L 414.857143 401.885847 
L 427.428571 400.902757 
L 440 399.731345 
L 452.571429 398.484719 
L 465.142857 397.078351 
L 477.714286 395.629296 
L 490.285714 394.137253 
L 502.857143 393.119225 
L 515.428571 392.033025 
L 528 390.635824 
L 540.571429 389.417297 
L 553.142857 388.212961 
L 565.714286 387.406284 
L 578.285714 386.464819 
L 590.857143 385.638577 
L 603.428571 384.903551 
L 616 384.492337 
L 628.571429 383.904434 
L 641.142857 383.356096 
L 653.714286 382.891994 
L 666.285714 382.863444 
L 678.857143 382.93904 
L 691.428571 382.916519 
L 704 382.593827 
L 716.571429 381.80996 
L 729.142857 381.356457 
L 741.714286 380.628277 
L 754.285714 379.80655 
L 766.857143 379.329586 
L 779.428571 378.707177 
" clip-path="url(#p6b1e2bc657)" style="fill: none; stroke: #000000; stroke-width: 1.5; stroke-linecap: square"/>
   </g>
   <g id="line2d_7">
    <path d="M 0 459 
L 12.571429 459 
L 25.142857 452.501828 
L 37.714286 451.261857 
L 50.285714 451.660297 
L 62.857143 453.308214 
L 75.428571 454.098237 
L 88 453.781136 
L 100.571429 453.661497 
L 113.142857 451.324048 
L 125.714286 450.165964 
L 138.285714 448.776441 
L 150.857143 447.081062 
L 163.428571 443.761838 
L 176 441.709704 
L 188.571429 438.726027 
L 201.142857 435.360618 
L 213.714286 433.146608 
L 226.285714 431.122315 
L 238.857143 429.092783 
L 251.428571 426.497173 
L 264 423.728377 
L 276.571429 421.493284 
L 289.142857 419.532047 
L 301.714286 417.813808 
L 314.285714 416.052926 
L 326.857143 414.277656 
L 339.428571 412.530633 
L 352 411.287561 
L 364.571429 409.980735 
L 377.142857 408.967773 
L 389.714286 407.900149 
L 402.285714 407.297796 
L 414.857143 406.535054 
L 427.428571 405.607124 
L 440 404.545566 
L 452.571429 403.43343 
L 465.142857 402.208229 
L 477.714286 400.954917 
L 490.285714 399.673013 
L 502.857143 398.734728 
L 515.428571 397.752434 
L 528 396.552887 
L 540.571429 395.481541 
L 553.142857 394.422973 
L 565.714286 393.645059 
L 578.285714 392.778501 
L 590.857143 391.995374 
L 603.428571 391.279226 
L 616 390.788951 
L 628.571429 390.185085 
L 641.142857 389.612839 
L 653.714286 389.102065 
L 666.285714 388.887659 
L 678.857143 388.750345 
L 691.428571 388.556224 
L 704 388.171496 
L 716.571429 387.489128 
L 729.142857 387.023003 
L 741.714286 386.381843 
L 754.285714 385.681215 
L 766.857143 385.202468 
L 779.428571 384.633363 
" clip-path="url(#p6b1e2bc657)" style="fill: none; stroke: #000000; stroke-width: 1.5; stroke-linecap: square"/>
   </g>
   <g id="line2d_8">
    <path d="M 0 459 
L 12.571429 459 
L 25.142857 452.536633 
L 37.714286 451.298145 
L 50.285714 451.681031 
L 62.857143 453.289968 
L 75.428571 454.062405 
L 88 453.760511 
L 100.571429 453.647893 
L 113.142857 451.408491 
L 125.714286 450.295023 
L 138.285714 448.964032 
L 150.857143 447.346726 
L 163.428571 444.206741 
L 176 442.254429 
L 188.571429 439.44007 
L 201.142857 436.276757 
L 213.714286 434.178785 
L 226.285714 432.260503 
L 238.857143 430.343223 
L 251.428571 427.917612 
L 264 425.340573 
L 276.571429 423.248533 
L 289.142857 421.407178 
L 301.714286 419.787989 
L 314.285714 418.13664 
L 326.857143 416.477936 
L 339.428571 414.84916 
L 352 413.666199 
L 364.571429 412.433044 
L 377.142857 411.459597 
L 389.714286 410.444008 
L 402.285714 409.832849 
L 414.857143 409.089483 
L 427.428571 408.209851 
L 440 407.22081 
L 452.571429 406.192554 
L 465.142857 405.07249 
L 477.714286 403.931815 
L 490.285714 402.770074 
L 502.857143 401.896225 
L 515.428571 400.989154 
L 528 399.906151 
L 540.571429 398.930664 
L 553.142857 397.968182 
L 565.714286 397.236452 
L 578.285714 396.435877 
L 590.857143 395.705252 
L 603.428571 395.031142 
L 616 394.540519 
L 628.571429 393.962401 
L 641.142857 393.412053 
L 653.714286 392.912927 
L 666.285714 392.649909 
L 678.857143 392.450521 
L 691.428571 392.209865 
L 704 391.823634 
L 716.571429 391.20877 
L 729.142857 390.762507 
L 741.714286 390.183391 
L 754.285714 389.560065 
L 766.857143 389.107574 
L 779.428571 388.587991 
" clip-path="url(#p6b1e2bc657)" style="fill: none; stroke: #000000; stroke-width: 1.5; stroke-linecap: square"/>
   </g>
   <g id="line2d_9">
    <path d="M 0 459 
L 12.571429 459 
L 25.142857 452.554036 
L 37.714286 451.316367 
L 50.285714 451.691584 
L 62.857143 453.281196 
L 75.428571 454.044825 
L 88 453.750297 
L 100.571429 453.641069 
L 113.142857 451.449782 
L 125.714286 450.35849 
L 138.285714 449.056548 
L 150.857143 447.477919 
L 163.428571 444.425957 
L 176 442.523539 
L 188.571429 439.792871 
L 201.142857 436.729424 
L 213.714286 434.690269 
L 226.285714 432.826135 
L 238.857143 430.966125 
L 251.428571 428.625575 
L 264 426.144313 
L 276.571429 424.125222 
L 289.142857 422.34602 
L 301.714286 420.779251 
L 314.285714 419.185384 
L 326.857143 417.587623 
L 339.428571 416.020748 
L 352 414.872497 
L 364.571429 413.680416 
L 377.142857 412.732077 
L 389.714286 411.747401 
L 402.285714 411.138749 
L 414.857143 410.410833 
L 427.428571 409.560024 
L 440 408.611077 
L 452.571429 407.628294 
L 465.142857 406.563689 
L 477.714286 405.482166 
L 490.285714 404.383301 
L 502.857143 403.546971 
L 515.428571 402.682454 
L 528 401.661077 
L 540.571429 400.738022 
L 553.142857 399.828275 
L 565.714286 399.126719 
L 578.285714 398.365358 
L 590.857143 397.667916 
L 603.428571 397.022297 
L 616 396.54098 
L 628.571429 395.983847 
L 641.142857 395.45272 
L 653.714286 394.968163 
L 666.285714 394.69252 
L 678.857143 394.47418 
L 691.428571 394.221227 
L 704 393.842622 
L 716.571429 393.266182 
L 729.142857 392.837252 
L 741.714286 392.294294 
L 754.285714 391.714099 
L 766.857143 391.282261 
L 779.428571 390.793702 
" clip-path="url(#p6b1e2bc657)" style="fill: none; stroke: #000000; stroke-width: 1.5; stroke-linecap: square"/>
   </g>
  </g>
 </g>
 <defs>
  <clipPath id="p6b1e2bc657">
   <rect x="0" y="0" width="792" height="612"/>
  </clipPath>
 </defs>
</svg>
