<?xml version="1.0" encoding="utf-8" standalone="no"?>
<!DOCTYPE svg PUBLIC "-//W3C//DTD SVG 1.1//EN"
  "http://www.w3.org/Graphics/SVG/1.1/DTD/svg11.dtd">
<svg xmlns:xlink="http://www.w3.org/1999/xlink" width="792pt" height="612pt" viewBox="0 0 792 612" xmlns="http://www.w3.org/2000/svg" version="1.1">
 <metadata>
  <rdf:RDF xmlns:dc="http://purl.org/dc/elements/1.1/" xmlns:cc="http://creativecommons.org/ns#" xmlns:rdf="http://www.w3.org/1999/02/22-rdf-syntax-ns#">
   <cc:Work>
    <dc:type rdf:resource="http://purl.org/dc/dcmitype/StillImage"/>
    <dc:date>2023-01-16T16:11:26.642926</dc:date>
    <dc:format>image/svg+xml</dc:format>
    <dc:creator>
     <cc:Agent>
      <dc:title>Matplotlib v3.6.2, https://matplotlib.org/</dc:title>
     </cc:Agent>
    </dc:creator>
   </cc:Work>
  </rdf:RDF>
 </metadata>
 <defs>
  <style type="text/css">*{stroke-linejoin: round; stroke-linecap: butt}</style>
 </defs>
 <g id="figure_1">
  <g id="patch_1">
   <path d="M 0 612 
L 792 612 
L 792 0 
L 0 0 
z
" style="fill: #ffffff"/>
  </g>
  <g id="axes_1">
   <g id="line2d_1">
    <path d="M 0 306 
L 12.774194 302.342286 
L 25.548387 292.268936 
L 38.322581 312.126608 
L 51.096774 296.051081 
L 63.870968 299.390834 
L 76.645161 312.868992 
L 89.419355 305.424394 
L 102.193548 303.771884 
L 114.967742 297.906257 
L 127.741935 301.358366 
L 140.516129 309.119309 
L 153.290323 306.872692 
L 166.064516 306.909827 
L 178.83871 303.697616 
L 191.612903 304.013256 
L 204.387097 304.570277 
L 217.16129 311.105715 
L 229.935484 303.864719 
L 242.709677 308.915082 
L 255.483871 304.198929 
L 268.258065 311.941001 
L 281.032258 302.954955 
L 293.806452 302.676466 
L 306.580645 302.973521 
L 319.354839 304.161794 
L 332.129032 303.066352 
L 344.903226 304.366035 
L 357.677419 304.3289 
L 370.451613 310.808706 
L 383.225806 304.347468 
L 396 301.172731 
L 408.774194 307.244047 
L 421.548387 305.257283 
L 434.322581 310.326047 
L 447.096774 303.604782 
L 459.870968 306.835556 
L 472.645161 306.612742 
L 485.419355 309.843366 
L 498.193548 303.289149 
L 510.967742 306.111408 
L 523.741935 306.761285 
L 536.516129 311.699705 
L 549.290323 307.429723 
L 562.064516 304.681683 
L 574.83871 301.766775 
L 587.612903 299.26092 
L 600.387097 310.121838 
L 613.16129 301.766775 
L 625.935484 304.143227 
L 638.709677 310.363175 
L 651.483871 303.567648 
L 664.258065 309.620583 
L 677.032258 306.687013 
L 689.806452 305.795752 
L 702.580645 305.405826 
L 715.354839 294.270798 
L 728.129032 314.81734 
L 740.903226 302.100939 
L 753.677419 305.238715 
L 766.451613 305.331554 
L 779.225806 302.416547 
" clip-path="url(#p2080dca2a9)" style="fill: none; stroke: #000000; stroke-width: 1.5; stroke-linecap: square"/>
   </g>
   <g id="line2d_2">
    <path d="M 0 306 
L 12.774194 306 
L 25.548387 303.561459 
L 38.322581 297.1058 
L 51.096774 305.116168 
L 63.870968 300.436215 
L 76.645161 299.90521 
L 89.419355 306.438321 
L 102.193548 305.929369 
L 114.967742 304.846243 
L 127.741935 301.366956 
L 140.516129 301.380497 
L 153.290323 305.243885 
L 166.064516 306.079515 
L 178.83871 306.509417 
L 191.612903 305.085512 
L 204.387097 304.546613 
L 217.16129 304.560011 
L 229.935484 307.858958 
L 242.709677 305.866748 
L 255.483871 307.390549 
L 268.258065 305.78949 
L 281.032258 308.875401 
L 293.806452 305.913714 
L 306.580645 304.292421 
L 319.354839 303.629829 
L 332.129032 303.882194 
L 344.903226 303.472703 
L 357.677419 303.910445 
L 370.451613 304.119927 
L 383.225806 307.46227 
L 396 305.907597 
L 408.774194 303.537068 
L 421.548387 305.398909 
L 434.322581 305.330244 
L 447.096774 307.842502 
L 459.870968 305.722136 
L 472.645161 306.283762 
L 485.419355 306.440024 
L 498.193548 308.152537 
L 510.967742 305.724976 
L 523.741935 305.915971 
L 536.516129 306.341578 
L 549.290323 309.023567 
L 562.064516 308.234159 
L 574.83871 306.453713 
L 587.612903 304.100631 
L 600.387097 301.659757 
L 613.16129 305.904175 
L 625.935484 303.826857 
L 638.709677 303.979908 
L 651.483871 307.169048 
L 664.258065 305.360753 
L 677.032258 307.500425 
L 689.806452 307.103369 
L 702.580645 306.462378 
L 715.354839 305.924854 
L 728.129032 300.080981 
L 740.903226 307.470935 
L 753.677419 304.769643 
L 766.451613 305.007455 
L 779.225806 305.161094 
" clip-path="url(#p2080dca2a9)" style="fill: none; stroke: #000000; stroke-width: 1.5; stroke-linecap: square"/>
   </g>
   <g id="line2d_3">
    <path d="M 0 306 
L 12.774194 306 
L 25.548387 303.857294 
L 38.322581 298.60406 
L 51.096774 303.884419 
L 63.870968 301.096559 
L 76.645161 300.525554 
L 89.419355 304.491384 
L 102.193548 304.782872 
L 114.967742 304.473065 
L 127.741935 302.487222 
L 140.516129 302.149105 
L 153.290323 304.222945 
L 166.064516 305.007699 
L 178.83871 305.569205 
L 191.612903 305.017974 
L 204.387097 304.722542 
L 217.16129 304.676302 
L 229.935484 306.569633 
L 242.709677 305.790702 
L 255.483871 306.702146 
L 268.258065 305.978328 
L 281.032258 307.739372 
L 293.806452 306.326643 
L 306.580645 305.254338 
L 319.354839 304.585365 
L 332.129032 304.468491 
L 344.903226 304.059766 
L 357.677419 304.14401 
L 370.451613 304.195242 
L 383.225806 306.13686 
L 396 305.613501 
L 408.774194 304.309466 
L 421.548387 305.172048 
L 434.322581 305.190295 
L 447.096774 306.702025 
L 459.870968 305.788751 
L 472.645161 306.098382 
L 485.419355 306.242914 
L 498.193548 307.305426 
L 510.967742 306.129774 
L 523.741935 306.127999 
L 536.516129 306.31647 
L 549.290323 307.903269 
L 562.064516 307.76809 
L 574.83871 306.864517 
L 587.612903 305.36096 
L 600.387097 303.568187 
L 613.16129 305.498024 
L 625.935484 304.39881 
L 638.709677 304.322672 
L 651.483871 306.092012 
L 664.258065 305.352586 
L 677.032258 306.605901 
L 689.806452 306.629743 
L 702.580645 306.380824 
L 715.354839 306.097685 
L 728.129032 302.618517 
L 740.903226 306.201343 
L 753.677419 304.989278 
L 766.451613 305.05982 
L 779.225806 305.140156 
" clip-path="url(#p2080dca2a9)" style="fill: none; stroke: #000000; stroke-width: 1.5; stroke-linecap: square"/>
   </g>
   <g id="line2d_4">
    <path d="M 0 306 
L 12.774194 306 
L 25.548387 304.013013 
L 38.322581 299.401268 
L 51.096774 303.450185 
L 63.870968 301.418255 
L 76.645161 300.919222 
L 89.419355 303.624813 
L 102.193548 304.006563 
L 114.967742 303.959286 
L 127.741935 302.789151 
L 140.516129 302.521748 
L 153.290323 303.721339 
L 166.064516 304.281607 
L 178.83871 304.740303 
L 191.612903 304.561085 
L 204.387097 304.468112 
L 217.16129 304.485268 
L 229.935484 305.587378 
L 242.709677 305.302713 
L 255.483871 305.896008 
L 268.258065 305.618706 
L 281.032258 306.647456 
L 293.806452 306.048827 
L 306.580645 305.503735 
L 319.354839 305.095796 
L 332.129032 304.945531 
L 344.903226 304.643734 
L 357.677419 304.599203 
L 370.451613 304.555912 
L 383.225806 305.556335 
L 396 305.3631 
L 408.774194 304.693726 
L 421.548387 305.100264 
L 434.322581 305.127066 
L 447.096774 305.965558 
L 459.870968 305.584625 
L 472.645161 305.790384 
L 485.419355 305.925731 
L 498.193548 306.547184 
L 510.967742 306.027476 
L 523.741935 306.042289 
L 536.516129 306.16221 
L 549.290323 307.049799 
L 562.064516 307.109193 
L 574.83871 306.721601 
L 587.612903 305.93002 
L 600.387097 304.866005 
L 613.16129 305.706074 
L 625.935484 305.077528 
L 638.709677 304.924531 
L 651.483871 305.793937 
L 664.258065 305.436382 
L 677.032258 306.105513 
L 689.806452 306.194753 
L 702.580645 306.133043 
L 715.354839 306.019043 
L 728.129032 304.14353 
L 740.903226 305.848791 
L 753.677419 305.25186 
L 766.451613 305.250313 
L 779.225806 305.263864 
" clip-path="url(#p2080dca2a9)" style="fill: none; stroke: #000000; stroke-width: 1.5; stroke-linecap: square"/>
   </g>
   <g id="line2d_5">
    <path d="M 0 306 
L 12.774194 306 
L 25.548387 304.091897 
L 38.322581 299.802441 
L 51.096774 303.294385 
L 63.870968 301.583915 
L 76.645161 301.134886 
L 89.419355 303.276431 
L 102.193548 303.632963 
L 114.967742 303.654255 
L 127.741935 302.830904 
L 140.516129 302.631992 
L 153.290323 303.464839 
L 166.064516 303.883352 
L 178.83871 304.2408 
L 191.612903 304.17882 
L 204.387097 304.160498 
L 217.16129 304.204624 
L 229.935484 304.929881 
L 242.709677 304.820364 
L 255.483871 305.233191 
L 268.258065 305.130743 
L 281.032258 305.794729 
L 293.806452 305.521832 
L 306.580645 305.251931 
L 319.354839 305.038343 
L 332.129032 304.957047 
L 344.903226 304.783382 
L 357.677419 304.745386 
L 370.451613 304.70777 
L 383.225806 305.25481 
L 396 305.173995 
L 408.774194 304.819736 
L 421.548387 305.033175 
L 434.322581 305.052807 
L 447.096774 305.512648 
L 459.870968 305.346978 
L 472.645161 305.475742 
L 485.419355 305.57375 
L 498.193548 305.94063 
L 510.967742 305.713463 
L 523.741935 305.747465 
L 536.516129 305.833879 
L 549.290323 306.332796 
L 562.064516 306.425894 
L 574.83871 306.278137 
L 587.612903 305.896601 
L 600.387097 305.336228 
L 613.16129 305.739739 
L 625.935484 305.405184 
L 638.709677 305.299051 
L 651.483871 305.724502 
L 664.258065 305.543488 
L 677.032258 305.885348 
L 689.806452 305.952507 
L 702.580645 305.939385 
L 715.354839 305.894753 
L 728.129032 304.922574 
L 740.903226 305.749431 
L 753.677419 305.444768 
L 766.451613 305.427572 
L 779.225806 305.419562 
" clip-path="url(#p2080dca2a9)" style="fill: none; stroke: #000000; stroke-width: 1.5; stroke-linecap: square"/>
   </g>
   <g id="line2d_6">
    <path d="M 0 306 
L 12.774194 306 
L 25.548387 304.131469 
L 38.322581 300.00235 
L 51.096774 303.232861 
L 63.870968 301.668906 
L 76.645161 301.246909 
L 89.419355 303.13051 
L 102.193548 303.462539 
L 114.967742 303.503159 
L 127.741935 302.828071 
L 140.516129 302.663685 
L 153.290323 303.33878 
L 166.064516 303.686707 
L 178.83871 303.987193 
L 191.612903 303.961501 
L 204.387097 303.96589 
L 217.16129 304.015053 
L 229.935484 304.57024 
L 242.709677 304.516915 
L 255.483871 304.838661 
L 268.258065 304.793258 
L 281.032258 305.286497 
L 293.806452 305.129785 
L 306.580645 304.968879 
L 319.354839 304.840976 
L 332.129032 304.798366 
L 344.903226 304.691868 
L 357.677419 304.672209 
L 370.451613 304.651861 
L 383.225806 305.010746 
L 396 304.97269 
L 408.774194 304.757862 
L 421.548387 304.896444 
L 434.322581 304.916293 
L 447.096774 305.210175 
L 459.870968 305.123993 
L 472.645161 305.214847 
L 485.419355 305.288266 
L 498.193548 305.525119 
L 510.967742 305.409962 
L 523.741935 305.445761 
L 536.516129 305.512325 
L 549.290323 305.822886 
L 562.064516 305.902906 
L 574.83871 305.842537 
L 587.612903 305.642452 
L 600.387097 305.331225 
L 613.16129 305.563358 
L 625.935484 305.380496 
L 638.709677 305.321247 
L 651.483871 305.561379 
L 664.258065 305.46692 
L 677.032258 305.662739 
L 689.806452 305.710797 
L 702.580645 305.714765 
L 715.354839 305.700397 
L 728.129032 305.170748 
L 740.903226 305.615915 
L 753.677419 305.454343 
L 766.451613 305.444467 
L 779.225806 305.439313 
" clip-path="url(#p2080dca2a9)" style="fill: none; stroke: #000000; stroke-width: 1.5; stroke-linecap: square"/>
   </g>
   <g id="line2d_7">
    <path d="M 0 306 
L 12.774194 306 
L 25.548387 304.151271 
L 38.322581 300.101969 
L 51.096774 303.206243 
L 63.870968 301.712042 
L 76.645161 301.303882 
L 89.419355 303.065267 
L 102.193548 303.382978 
L 114.967742 303.430027 
L 127.741935 302.822126 
L 140.516129 302.674175 
L 153.290323 303.277499 
L 166.064516 303.591387 
L 178.83871 303.863207 
L 191.612903 303.850416 
L 204.387097 303.862329 
L 217.16129 303.911574 
L 229.935484 304.389041 
L 242.709677 304.35574 
L 255.483871 304.63362 
L 268.258065 304.608134 
L 281.032258 305.022679 
L 293.806452 304.909755 
L 306.580645 304.791705 
L 319.354839 304.698527 
L 332.129032 304.671818 
L 344.903226 304.594125 
L 357.677419 304.583377 
L 370.451613 304.571687 
L 383.225806 304.851375 
L 396 304.829296 
L 408.774194 304.672576 
L 421.548387 304.780466 
L 434.322581 304.800069 
L 447.096774 305.022881 
L 459.870968 304.966763 
L 472.645161 305.039396 
L 485.419355 305.099498 
L 498.193548 305.277732 
L 510.967742 305.204205 
L 523.741935 305.237234 
L 536.516129 305.291902 
L 549.290323 305.5185 
L 562.064516 305.585151 
L 574.83871 305.554062 
L 587.612903 305.4254 
L 600.387097 305.218552 
L 613.16129 305.38109 
L 625.935484 305.262664 
L 638.709677 305.226399 
L 651.483871 305.391013 
L 664.258065 305.333197 
L 677.032258 305.467763 
L 689.806452 305.505652 
L 702.580645 305.514581 
L 715.354839 305.511265 
L 728.129032 305.171407 
L 740.903226 305.460437 
L 753.677419 305.360644 
L 766.451613 305.357052 
L 779.225806 305.356307 
" clip-path="url(#p2080dca2a9)" style="fill: none; stroke: #000000; stroke-width: 1.5; stroke-linecap: square"/>
   </g>
   <g id="line2d_8">
    <path d="M 0 306 
L 12.774194 306 
L 25.548387 304.161174 
L 38.322581 300.151674 
L 51.096774 303.193972 
L 63.870968 301.73378 
L 76.645161 301.332597 
L 89.419355 303.034636 
L 102.193548 303.344786 
L 114.967742 303.394323 
L 127.741935 302.818246 
L 140.516129 302.678219 
L 153.290323 303.247488 
L 166.064516 303.544813 
L 178.83871 303.802446 
L 191.612903 303.794915 
L 204.387097 303.809697 
L 217.16129 303.858417 
L 229.935484 304.299187 
L 242.709677 304.274024 
L 255.483871 304.530722 
L 268.258065 304.513153 
L 281.032258 304.890585 
L 293.806452 304.796021 
L 306.580645 304.696268 
L 319.354839 304.618031 
L 332.129032 304.598005 
L 344.903226 304.532931 
L 357.677419 304.526058 
L 370.451613 304.518179 
L 383.225806 304.762455 
L 396 304.74678 
L 408.774194 304.615322 
L 421.548387 304.709549 
L 434.322581 304.728703 
L 447.096774 304.919819 
L 459.870968 304.875944 
L 472.645161 304.939878 
L 485.419355 304.993289 
L 498.193548 305.14494 
L 510.967742 305.088079 
L 523.741935 305.118822 
L 536.516129 305.167231 
L 549.290323 305.356253 
L 562.064516 305.415174 
L 574.83871 305.394692 
L 587.612903 305.295087 
L 600.387097 305.132119 
L 613.16129 305.264709 
L 625.935484 305.173203 
L 638.709677 305.146669 
L 651.483871 305.279078 
L 664.258065 305.236264 
L 677.032258 305.344405 
L 689.806452 305.377066 
L 702.580645 305.387115 
L 715.354839 305.387558 
L 728.129032 305.12745 
L 740.903226 305.351289 
L 753.677419 305.277133 
L 766.451613 305.276267 
L 779.225806 305.277499 
" clip-path="url(#p2080dca2a9)" style="fill: none; stroke: #000000; stroke-width: 1.5; stroke-linecap: square"/>
   </g>
   <g id="line2d_9">
    <path d="M 0 306 
L 12.774194 306 
L 25.548387 304.166126 
L 38.322581 300.176497 
L 51.096774 303.188096 
L 63.870968 301.744693 
L 76.645161 301.34701 
L 89.419355 303.019823 
L 102.193548 303.326108 
L 114.967742 303.376718 
L 127.741935 302.816109 
L 140.516129 302.679962 
L 153.290323 303.232666 
L 166.064516 303.521841 
L 178.83871 303.772439 
L 191.612903 303.76726 
L 204.387097 303.783267 
L 217.16129 303.831593 
L 229.935484 304.254593 
L 242.709677 304.233058 
L 255.483871 304.479396 
L 268.258065 304.465304 
L 281.032258 304.824807 
L 293.806452 304.738572 
L 306.580645 304.64719 
L 319.354839 304.575801 
L 332.129032 304.558776 
L 344.903226 304.499521 
L 357.677419 304.494397 
L 370.451613 304.488247 
L 383.225806 304.715898 
L 396 304.703023 
L 408.774194 304.58318 
L 421.548387 304.670992 
L 434.322581 304.689821 
L 447.096774 304.866127 
L 459.870968 304.827667 
L 472.645161 304.88739 
L 485.419355 304.93749 
L 498.193548 305.076659 
L 510.967742 305.02709 
L 523.741935 305.056501 
L 536.516129 305.101759 
L 549.290323 305.273308 
L 562.064516 305.328239 
L 574.83871 305.312093 
L 587.612903 305.225253 
L 600.387097 305.081882 
L 613.16129 305.200801 
L 625.935484 305.12122 
L 638.709677 305.098953 
L 651.483871 305.216768 
L 664.258065 305.180477 
L 677.032258 305.276592 
L 689.806452 305.306634 
L 702.580645 305.316889 
L 715.354839 305.318725 
L 728.129032 305.093945 
L 740.903226 305.288813 
L 753.677419 305.225857 
L 766.451613 305.226108 
L 779.225806 305.228132 
" clip-path="url(#p2080dca2a9)" style="fill: none; stroke: #000000; stroke-width: 1.5; stroke-linecap: square"/>
   </g>
  </g>
 </g>
 <defs>
  <clipPath id="p2080dca2a9">
   <rect x="0" y="0" width="792" height="612"/>
  </clipPath>
 </defs>
</svg>
