<?xml version="1.0" encoding="utf-8" standalone="no"?>
<!DOCTYPE svg PUBLIC "-//W3C//DTD SVG 1.1//EN"
  "http://www.w3.org/Graphics/SVG/1.1/DTD/svg11.dtd">
<svg xmlns:xlink="http://www.w3.org/1999/xlink" width="792pt" height="612pt" viewBox="0 0 792 612" xmlns="http://www.w3.org/2000/svg" version="1.1">
 <metadata>
  <rdf:RDF xmlns:dc="http://purl.org/dc/elements/1.1/" xmlns:cc="http://creativecommons.org/ns#" xmlns:rdf="http://www.w3.org/1999/02/22-rdf-syntax-ns#">
   <cc:Work>
    <dc:type rdf:resource="http://purl.org/dc/dcmitype/StillImage"/>
    <dc:date>2023-01-30T17:16:49.583516</dc:date>
    <dc:format>image/svg+xml</dc:format>
    <dc:creator>
     <cc:Agent>
      <dc:title>Matplotlib v3.6.2, https://matplotlib.org/</dc:title>
     </cc:Agent>
    </dc:creator>
   </cc:Work>
  </rdf:RDF>
 </metadata>
 <defs>
  <style type="text/css">*{stroke-linejoin: round; stroke-linecap: butt}</style>
 </defs>
 <g id="figure_1">
  <g id="patch_1">
   <path d="M 0 612 
L 792 612 
L 792 0 
L 0 0 
z
" style="fill: #ffffff"/>
  </g>
  <g id="axes_1">
   <g id="line2d_1">
    <path d="M 0 306 
L 12.983607 312.296458 
L 25.967213 305.472385 
L 38.95082 303.957648 
L 51.934426 298.580797 
L 64.918033 301.74531 
L 77.901639 308.859253 
L 90.885246 306.799931 
L 103.868852 306.833971 
L 116.852459 303.889571 
L 129.836066 304.178897 
L 142.819672 304.689479 
L 155.803279 310.680096 
L 168.786885 304.042743 
L 181.770492 308.67205 
L 194.754098 304.34909 
L 207.737705 311.445779 
L 220.721311 303.208821 
L 233.704918 302.953546 
L 246.688525 303.225839 
L 259.672131 304.315051 
L 272.655738 303.310932 
L 285.639344 304.502265 
L 298.622951 304.468226 
L 311.606557 310.407838 
L 324.590164 304.485245 
L 337.57377 301.575146 
L 350.557377 307.140325 
L 363.540984 305.319207 
L 376.52459 309.965405 
L 389.508197 303.804476 
L 402.491803 306.765892 
L 415.47541 306.561655 
L 428.459016 309.522955 
L 441.442623 303.515156 
L 454.42623 306.102119 
L 467.409836 306.697813 
L 480.393443 311.224588 
L 493.377049 307.310521 
L 506.360656 304.791596 
L 519.344262 302.119681 
L 532.327869 299.822631 
L 545.311475 309.778216 
L 558.295082 302.119681 
L 571.278689 304.298032 
L 584.262295 309.999439 
L 597.245902 303.770438 
L 610.229508 309.318742 
L 623.213115 306.629734 
L 636.196721 305.812782 
L 649.180328 305.455365 
L 662.163934 295.247879 
L 675.147541 314.082551 
L 688.131148 302.425993 
L 701.114754 305.302187 
L 714.098361 305.387286 
L 727.081967 302.715294 
L 740.065574 321.169268 
L 753.04918 308.331675 
L 766.032787 305.302187 
L 779.016393 303.804476 
" clip-path="url(#p8784089d87)" style="fill: none; stroke: #000000; stroke-width: 1.5; stroke-linecap: square"/>
   </g>
   <g id="line2d_2">
    <path d="M 0 306 
L 12.983607 306 
L 25.967213 310.197968 
L 38.95082 307.497735 
L 51.934426 305.609678 
L 64.918033 301.981349 
L 77.901639 301.861456 
L 90.885246 305.387822 
L 103.868852 306.096646 
L 116.852459 306.466944 
L 129.836066 305.161757 
L 142.819672 304.667787 
L 155.803279 304.680068 
L 168.786885 307.70397 
L 181.770492 305.877858 
L 194.754098 307.274613 
L 207.737705 305.807042 
L 220.721311 308.635677 
L 233.704918 305.920908 
L 246.688525 304.434788 
L 259.672131 303.827435 
L 272.655738 304.058761 
L 285.639344 303.683408 
L 298.622951 304.084657 
L 311.606557 304.276674 
L 324.590164 307.340355 
L 337.57377 305.915301 
L 350.557377 303.742407 
L 363.540984 305.449024 
L 376.52459 305.386085 
L 389.508197 307.688887 
L 402.491803 305.745303 
L 415.47541 306.260103 
L 428.459016 306.403337 
L 441.442623 307.973075 
L 454.42623 305.747906 
L 467.409836 305.922977 
L 480.393443 306.313099 
L 493.377049 308.771491 
L 506.360656 308.047892 
L 519.344262 306.415885 
L 532.327869 304.258988 
L 545.311475 302.021582 
L 558.295082 305.912164 
L 571.278689 304.008037 
L 584.262295 304.148329 
L 597.245902 307.071579 
L 610.229508 305.41405 
L 623.213115 307.375329 
L 636.196721 307.011376 
L 649.180328 306.423828 
L 662.163934 305.93112 
L 675.147541 300.574371 
L 688.131148 307.348298 
L 701.114754 304.872223 
L 714.098361 305.090208 
L 727.081967 305.231038 
L 740.065574 303.965456 
L 753.04918 312.602679 
L 766.032787 310.473034 
L 779.016393 307.907467 
" clip-path="url(#p8784089d87)" style="fill: none; stroke: #000000; stroke-width: 1.5; stroke-linecap: square"/>
   </g>
   <g id="line2d_3">
    <path d="M 0 306 
L 12.983607 306 
L 25.967213 309.688722 
L 38.95082 307.778454 
L 51.934426 306.286336 
L 64.918033 303.544331 
L 77.901639 302.94211 
L 90.885246 304.843202 
L 103.868852 305.45452 
L 116.852459 305.877233 
L 129.836066 305.276272 
L 142.819672 304.947592 
L 155.803279 304.870792 
L 168.786885 306.591411 
L 181.770492 305.839038 
L 194.754098 306.673436 
L 207.737705 305.989977 
L 220.721311 307.594354 
L 233.704918 306.29941 
L 246.688525 305.316507 
L 259.672131 304.703309 
L 272.655738 304.596178 
L 285.639344 304.22153 
L 298.622951 304.29875 
L 311.606557 304.34571 
L 324.590164 306.12545 
L 337.57377 305.645726 
L 350.557377 304.450412 
L 363.540984 305.241078 
L 376.52459 305.257804 
L 389.508197 306.643494 
L 402.491803 305.806364 
L 415.47541 306.090179 
L 428.459016 306.222661 
L 441.442623 307.196587 
L 454.42623 306.118954 
L 467.409836 306.117327 
L 480.393443 306.290084 
L 493.377049 307.744587 
L 506.360656 307.620678 
L 519.344262 306.792438 
L 532.327869 305.41424 
L 545.311475 303.770932 
L 558.295082 305.539876 
L 571.278689 304.532307 
L 584.262295 304.462517 
L 597.245902 306.08434 
L 610.229508 305.406564 
L 623.213115 306.555384 
L 636.196721 306.577239 
L 649.180328 306.349073 
L 662.163934 306.089541 
L 675.147541 302.900428 
L 688.131148 306.184556 
L 701.114754 305.073547 
L 714.098361 305.138207 
L 727.081967 305.211845 
L 740.065574 304.48128 
L 753.04918 309.397109 
L 766.032787 309.083397 
L 779.016393 307.979608 
" clip-path="url(#p8784089d87)" style="fill: none; stroke: #000000; stroke-width: 1.5; stroke-linecap: square"/>
   </g>
   <g id="line2d_4">
    <path d="M 0 306 
L 12.983607 306 
L 25.967213 309.420662 
L 38.95082 307.871168 
L 51.934426 306.625863 
L 64.918033 304.416877 
L 77.901639 303.759312 
L 90.885246 304.914024 
L 103.868852 305.314094 
L 116.852459 305.620279 
L 129.836066 305.285782 
L 142.819672 305.07892 
L 155.803279 305.008107 
L 168.786885 306.016601 
L 181.770492 305.672099 
L 194.754098 306.187738 
L 207.737705 305.875697 
L 220.721311 306.811172 
L 233.704918 306.211513 
L 246.688525 305.673135 
L 259.672131 305.27119 
L 272.655738 305.114958 
L 285.639344 304.821438 
L 298.622951 304.769694 
L 311.606557 304.720968 
L 324.590164 305.637859 
L 337.57377 305.452424 
L 350.557377 304.829705 
L 363.540984 305.200226 
L 376.52459 305.219281 
L 389.508197 305.978635 
L 402.491803 305.631099 
L 415.47541 305.812356 
L 428.459016 305.931923 
L 441.442623 306.501562 
L 454.42623 306.025185 
L 467.409836 306.038763 
L 480.393443 306.148686 
L 493.377049 306.962273 
L 506.360656 307.016714 
L 519.344262 306.661438 
L 532.327869 305.935854 
L 545.311475 304.960551 
L 558.295082 305.73058 
L 571.278689 305.154438 
L 584.262295 305.014198 
L 597.245902 305.811117 
L 610.229508 305.483374 
L 623.213115 306.096716 
L 636.196721 306.178516 
L 649.180328 306.121951 
L 662.163934 306.017456 
L 675.147541 304.29831 
L 688.131148 305.861398 
L 701.114754 305.314236 
L 714.098361 305.312818 
L 727.081967 305.325239 
L 740.065574 304.905171 
L 753.04918 307.505229 
L 766.032787 307.640937 
L 779.016393 307.267692 
" clip-path="url(#p8784089d87)" style="fill: none; stroke: #000000; stroke-width: 1.5; stroke-linecap: square"/>
   </g>
   <g id="line2d_5">
    <path d="M 0 306 
L 12.983607 306 
L 25.967213 309.284868 
L 38.95082 307.902538 
L 51.934426 306.784697 
L 64.918033 304.847703 
L 77.901639 304.212517 
L 90.885246 305.060596 
L 103.868852 305.349311 
L 116.852459 305.576866 
L 129.836066 305.335229 
L 142.819672 305.179037 
L 155.803279 305.116183 
L 168.786885 305.799548 
L 181.770492 305.592048 
L 194.754098 305.943495 
L 207.737705 305.767055 
L 220.721311 306.378614 
L 233.704918 306.045499 
L 246.688525 305.727585 
L 259.672131 305.475356 
L 272.655738 305.360423 
L 285.639344 305.160618 
L 298.622951 305.097353 
L 311.606557 305.037678 
L 324.590164 305.541109 
L 337.57377 305.443182 
L 350.557377 305.08788 
L 363.540984 305.274741 
L 376.52459 305.278757 
L 389.508197 305.69898 
L 402.491803 305.53024 
L 415.47541 305.639631 
L 428.459016 305.720808 
L 441.442623 306.053889 
L 454.42623 305.832511 
L 467.409836 305.855922 
L 480.393443 305.928747 
L 493.377049 306.385289 
L 506.360656 306.464789 
L 519.344262 306.321441 
L 532.327869 305.962406 
L 545.311475 305.439006 
L 558.295082 305.808052 
L 571.278689 305.494997 
L 584.262295 305.393598 
L 597.245902 305.78312 
L 610.229508 305.613177 
L 623.213115 305.925617 
L 636.196721 305.984905 
L 649.180328 305.970429 
L 662.163934 305.92716 
L 675.147541 305.030552 
L 688.131148 305.789676 
L 701.114754 305.507872 
L 714.098361 305.490655 
L 727.081967 305.482008 
L 740.065574 305.250715 
L 753.04918 306.581665 
L 766.032787 306.727792 
L 779.016393 306.608816 
" clip-path="url(#p8784089d87)" style="fill: none; stroke: #000000; stroke-width: 1.5; stroke-linecap: square"/>
   </g>
   <g id="line2d_6">
    <path d="M 0 306 
L 12.983607 306 
L 25.967213 309.216747 
L 38.95082 307.914235 
L 51.934426 306.859921 
L 64.918033 305.057304 
L 77.901639 304.443804 
L 90.885246 305.159443 
L 103.868852 305.396905 
L 116.852459 305.585608 
L 129.836066 305.381081 
L 142.819672 305.246622 
L 155.803279 305.188356 
L 168.786885 305.729097 
L 181.770492 305.571874 
L 194.754098 305.846932 
L 207.737705 305.719923 
L 220.721311 306.185738 
L 233.704918 305.952653 
L 246.688525 305.725967 
L 259.672131 305.543067 
L 272.655738 305.455912 
L 285.639344 305.307905 
L 298.622951 305.253756 
L 311.606557 305.202237 
L 324.590164 305.535924 
L 337.57377 305.470007 
L 350.557377 305.23051 
L 363.540984 305.345737 
L 376.52459 305.344165 
L 389.508197 305.613537 
L 402.491803 305.509739 
L 415.47541 305.580748 
L 428.459016 305.635425 
L 441.442623 305.849275 
L 454.42623 305.722478 
L 467.409836 305.742858 
L 480.393443 305.79355 
L 493.377049 306.078824 
L 506.360656 306.142866 
L 519.344262 306.073274 
L 532.327869 305.871487 
L 545.311475 305.565379 
L 558.295082 305.776819 
L 571.278689 305.594686 
L 584.262295 305.530587 
L 597.245902 305.749965 
L 610.229508 305.653438 
L 623.213115 305.831041 
L 636.196721 305.869507 
L 649.180328 305.866791 
L 662.163934 305.847197 
L 675.147541 305.344829 
L 688.131148 305.756829 
L 701.114754 305.600541 
L 714.098361 305.586606 
L 727.081967 305.577336 
L 740.065574 305.444769 
L 753.04918 306.170811 
L 766.032787 306.270135 
L 779.016393 306.225802 
" clip-path="url(#p8784089d87)" style="fill: none; stroke: #000000; stroke-width: 1.5; stroke-linecap: square"/>
   </g>
   <g id="line2d_7">
    <path d="M 0 306 
L 12.983607 306 
L 25.967213 309.182659 
L 38.95082 307.919067 
L 51.934426 306.896314 
L 64.918033 305.160094 
L 77.901639 304.559666 
L 90.885246 305.214522 
L 103.868852 305.428043 
L 116.852459 305.59813 
L 129.836066 305.410142 
L 142.819672 305.285698 
L 155.803279 305.229883 
L 168.786885 305.705783 
L 181.770492 305.569553 
L 194.754098 305.809204 
L 207.737705 305.702381 
L 220.721311 306.101938 
L 233.704918 305.909926 
L 246.688525 305.722153 
L 259.672131 305.570005 
L 272.655738 305.496425 
L 285.639344 305.372881 
L 298.622951 305.325336 
L 311.606557 305.280032 
L 324.590164 305.542827 
L 337.57377 305.490198 
L 350.557377 305.30073 
L 363.540984 305.387413 
L 376.52459 305.38428 
L 389.508197 305.589712 
L 402.491803 305.51149 
L 415.47541 305.565248 
L 428.459016 305.607054 
L 441.442623 305.768054 
L 454.42623 305.677217 
L 467.409836 305.694031 
L 480.393443 305.733045 
L 493.377049 305.942842 
L 506.360656 305.994227 
L 519.344262 305.949761 
L 532.327869 305.810311 
L 545.311475 305.595503 
L 558.295082 305.743407 
L 571.278689 305.617028 
L 584.262295 305.57164 
L 597.245902 305.722059 
L 610.229508 305.656583 
L 623.213115 305.777977 
L 636.196721 305.805884 
L 649.180328 305.806107 
L 662.163934 305.794868 
L 675.147541 305.460304 
L 688.131148 305.730975 
L 701.114754 305.628265 
L 714.098361 305.618228 
L 727.081967 305.611186 
L 740.065574 305.523669 
L 753.04918 305.992728 
L 766.032787 306.062203 
L 779.016393 306.039814 
" clip-path="url(#p8784089d87)" style="fill: none; stroke: #000000; stroke-width: 1.5; stroke-linecap: square"/>
   </g>
   <g id="line2d_8">
    <path d="M 0 306 
L 12.983607 306 
L 25.967213 309.165611 
L 38.95082 307.921228 
L 51.934426 306.914186 
L 64.918033 305.210919 
L 77.901639 304.617527 
L 90.885246 305.243359 
L 103.868852 305.445385 
L 116.852459 305.60644 
L 129.836066 305.426263 
L 142.819672 305.306624 
L 155.803279 305.252077 
L 168.786885 305.697314 
L 181.770492 305.570629 
L 194.754098 305.793436 
L 207.737705 305.695647 
L 220.721311 306.064021 
L 233.704918 305.890373 
L 246.688525 305.720271 
L 259.672131 305.582299 
L 272.655738 305.515195 
L 285.639344 305.403196 
L 298.622951 305.359182 
L 311.606557 305.317252 
L 324.590164 305.548444 
L 337.57377 305.501777 
L 350.557377 305.33494 
L 363.540984 305.409285 
L 376.52459 305.405685 
L 389.508197 305.58275 
L 402.491803 305.515582 
L 415.47541 305.561566 
L 428.459016 305.597414 
L 441.442623 305.734691 
L 454.42623 305.658909 
L 467.409836 305.673695 
L 480.393443 305.707108 
L 493.377049 305.883287 
L 506.360656 305.927913 
L 519.344262 305.893097 
L 532.327869 305.77973 
L 545.311475 305.604126 
L 558.295082 305.7249 
L 571.278689 305.622445 
L 584.262295 305.585462 
L 597.245902 305.706646 
L 610.229508 305.654362 
L 623.213115 305.751733 
L 636.196721 305.7747 
L 649.180328 305.775681 
L 662.163934 305.767551 
L 675.147541 305.504282 
L 688.131148 305.715907 
L 701.114754 305.635871 
L 714.098361 305.627862 
L 727.081967 305.622163 
L 740.065574 305.554181 
L 753.04918 305.915091 
L 766.032787 305.970223 
L 779.016393 305.955164 
" clip-path="url(#p8784089d87)" style="fill: none; stroke: #000000; stroke-width: 1.5; stroke-linecap: square"/>
   </g>
   <g id="line2d_9">
    <path d="M 0 306 
L 12.983607 306 
L 25.967213 309.157087 
L 38.95082 307.922245 
L 51.934426 306.923039 
L 64.918033 305.236181 
L 77.901639 304.646426 
L 90.885246 305.258085 
L 103.868852 305.454488 
L 116.852459 305.611105 
L 129.836066 305.434723 
L 142.819672 305.31744 
L 155.803279 305.263537 
L 168.786885 305.693895 
L 181.770492 305.571757 
L 194.754098 305.786374 
L 207.737705 305.692849 
L 220.721311 306.04615 
L 233.704918 305.881156 
L 246.688525 305.719441 
L 259.672131 305.588239 
L 272.655738 305.524271 
L 285.639344 305.417839 
L 298.622951 305.375615 
L 311.606557 305.335405 
L 324.590164 305.551773 
L 337.57377 305.507915 
L 350.557377 305.351761 
L 363.540984 305.420417 
L 376.52459 305.416656 
L 389.508197 305.580494 
L 402.491803 305.518427 
L 415.47541 305.560771 
L 428.459016 305.593802 
L 441.442623 305.719993 
L 454.42623 305.651024 
L 467.409836 305.664779 
L 480.393443 305.695505 
L 493.377049 305.856071 
L 506.360656 305.897329 
L 519.344262 305.866667 
L 532.327869 305.765027 
L 545.311475 305.607247 
L 558.295082 305.715689 
L 571.278689 305.624082 
L 584.262295 305.590967 
L 597.245902 305.698948 
L 610.229508 305.652597 
L 623.213115 305.7391 
L 636.196721 305.759738 
L 649.180328 305.760946 
L 662.163934 305.754107 
L 675.147541 305.522814 
L 688.131148 305.70814 
L 701.114754 305.638226 
L 714.098361 305.631181 
L 727.081967 305.626145 
L 740.065574 305.56695 
L 753.04918 305.87981 
L 766.032787 305.928228 
L 779.016393 305.91604 
" clip-path="url(#p8784089d87)" style="fill: none; stroke: #000000; stroke-width: 1.5; stroke-linecap: square"/>
   </g>
  </g>
 </g>
 <defs>
  <clipPath id="p8784089d87">
   <rect x="0" y="0" width="792" height="612"/>
  </clipPath>
 </defs>
</svg>
