<?xml version="1.0" encoding="utf-8" standalone="no"?>
<!DOCTYPE svg PUBLIC "-//W3C//DTD SVG 1.1//EN"
  "http://www.w3.org/Graphics/SVG/1.1/DTD/svg11.dtd">
<svg xmlns:xlink="http://www.w3.org/1999/xlink" width="792pt" height="612pt" viewBox="0 0 792 612" xmlns="http://www.w3.org/2000/svg" version="1.1">
 <metadata>
  <rdf:RDF xmlns:dc="http://purl.org/dc/elements/1.1/" xmlns:cc="http://creativecommons.org/ns#" xmlns:rdf="http://www.w3.org/1999/02/22-rdf-syntax-ns#">
   <cc:Work>
    <dc:type rdf:resource="http://purl.org/dc/dcmitype/StillImage"/>
    <dc:date>2022-12-19T20:28:19.481621</dc:date>
    <dc:format>image/svg+xml</dc:format>
    <dc:creator>
     <cc:Agent>
      <dc:title>Matplotlib v3.6.2, https://matplotlib.org/</dc:title>
     </cc:Agent>
    </dc:creator>
   </cc:Work>
  </rdf:RDF>
 </metadata>
 <defs>
  <style type="text/css">*{stroke-linejoin: round; stroke-linecap: butt}</style>
 </defs>
 <g id="figure_1">
  <g id="patch_1">
   <path d="M 0 612 
L 792 612 
L 792 0 
L 0 0 
z
" style="fill: #ffffff"/>
  </g>
  <g id="axes_1">
   <g id="line2d_1">
    <path d="M 0 459 
L 12.375 461.878062 
L 24.75 460.934132 
L 37.125 460.082744 
L 49.5 461.776266 
L 61.875 459.962439 
L 74.25 463.053348 
L 86.625 466.653239 
L 99 466.708764 
L 111.375 468.115406 
L 123.75 472.631464 
L 136.125 472.039194 
L 148.5 470.484486 
L 160.875 468.855743 
L 173.25 470.225367 
L 185.625 466.643985 
L 198 462.572128 
L 210.375 463.432771 
L 222.75 464.68209 
L 235.125 466.819815 
L 247.5 466.264562 
L 259.875 464.432226 
L 272.25 464.709853 
L 284.625 458.500272 
L 297 460.878606 
L 309.375 459.490474 
L 321.75 455.002279 
L 334.125 434.481173 
L 346.5 443.625242 
L 358.875 428.782473 
L 371.25 418.957249 
L 383.625 429.169487 
L 396 428.312585 
L 408.375 424.997625 
L 420.75 412.985783 
L 433.125 406.125794 
L 445.5 410.733263 
L 457.875 412.024061 
L 470.25 413.370587 
L 482.625 409.964642 
L 495 407.030011 
L 507.375 404.920819 
L 519.75 412.463655 
L 532.125 409.306045 
L 544.5 413.617995 
L 556.875 410.952919 
L 569.25 419.75636 
L 581.625 415.240545 
L 594 410.321467 
L 606.375 405.85187 
L 618.75 403.142129 
L 631.125 398.825743 
L 643.5 396.426316 
L 655.875 393.975956 
L 668.25 401.037272 
L 680.625 398.607473 
L 693 391.529373 
L 705.375 393.350353 
L 717.75 392.262943 
L 730.125 398.607473 
L 742.5 395.091771 
L 754.875 396.317333 
L 767.25 397.216658 
L 779.625 402.868634 
" clip-path="url(#p319552c769)" style="fill: none; stroke: #000000; stroke-width: 1.5; stroke-linecap: square"/>
   </g>
   <g id="line2d_2">
    <path d="M 0 459 
L 12.375 459 
L 24.75 460.918708 
L 37.125 460.927522 
L 49.5 460.476973 
L 61.875 461.147576 
L 74.25 460.545601 
L 86.625 461.809348 
L 99 464.240791 
L 111.375 465.489893 
L 123.75 466.814879 
L 136.125 469.746108 
L 148.5 470.916095 
L 160.875 470.717365 
L 173.25 469.803992 
L 185.625 470.028743 
L 198 468.336345 
L 210.375 465.446126 
L 222.75 464.430267 
L 235.125 464.540592 
L 247.5 465.669969 
L 259.875 465.958991 
L 272.25 465.186935 
L 284.625 464.937579 
L 297 461.870187 
L 309.375 461.371076 
L 321.75 460.423045 
L 334.125 459.031464 
L 346.5 446.684938 
L 358.875 445.082112 
L 371.25 436.834239 
L 383.625 427.772105 
L 396 428.413386 
L 408.375 428.291992 
L 420.75 426.575058 
L 433.125 419.689677 
L 445.5 412.842119 
L 457.875 411.723292 
L 470.25 411.840923 
L 482.625 412.594687 
L 495 411.241737 
L 507.375 409.093229 
L 519.75 406.966708 
L 532.125 409.712371 
L 544.5 409.515439 
L 556.875 411.571414 
L 569.25 411.260045 
L 581.625 415.516959 
L 594 415.389105 
L 606.375 412.860332 
L 618.75 409.355002 
L 631.125 406.227853 
L 643.5 402.502536 
L 655.875 399.428162 
L 668.25 396.666638 
L 680.625 398.81408 
L 693 398.678301 
L 705.375 395.063159 
L 717.75 394.182091 
L 730.125 393.20095 
L 742.5 395.901553 
L 754.875 395.493995 
L 767.25 395.910205 
L 779.625 396.555823 
" clip-path="url(#p319552c769)" style="fill: none; stroke: #000000; stroke-width: 1.5; stroke-linecap: square"/>
   </g>
   <g id="line2d_3">
    <path d="M 0 459 
L 12.375 459 
L 24.75 460.68593 
L 37.125 460.798386 
L 49.5 460.51891 
L 61.875 460.966262 
L 74.25 460.630247 
L 86.625 461.408769 
L 99 463.047244 
L 111.375 464.169265 
L 123.75 465.362347 
L 136.125 467.539531 
L 148.5 468.878371 
L 160.875 469.354047 
L 173.25 469.206948 
L 185.625 469.506893 
L 198 468.665078 
L 210.375 466.884598 
L 222.75 465.875367 
L 235.125 465.530169 
L 247.5 465.915636 
L 259.875 466.022989 
L 272.25 465.5622 
L 284.625 465.314456 
L 297 463.407224 
L 309.375 462.659912 
L 321.75 461.721699 
L 334.125 460.517032 
L 346.5 454.956855 
L 358.875 451.579551 
L 371.25 444.824954 
L 383.625 437.147144 
L 396 434.748472 
L 408.375 432.814885 
L 420.75 430.469288 
L 433.125 425.265352 
L 445.5 419.556937 
L 457.875 416.889202 
L 470.25 415.390988 
L 482.625 414.727459 
L 495 413.276009 
L 507.375 411.379011 
L 519.75 409.422009 
L 532.125 410.263951 
L 544.5 409.95456 
L 556.875 410.99267 
L 569.25 410.960622 
L 581.625 413.534354 
L 594 414.018008 
L 606.375 412.914071 
L 618.75 410.821212 
L 631.125 408.557727 
L 643.5 405.693731 
L 655.875 402.958021 
L 668.25 400.301695 
L 680.625 400.502992 
L 693 399.93458 
L 705.375 397.450525 
L 717.75 396.235278 
L 730.125 395.047679 
L 742.5 396.077293 
L 754.875 395.7674 
L 767.25 395.911714 
L 779.625 396.268094 
" clip-path="url(#p319552c769)" style="fill: none; stroke: #000000; stroke-width: 1.5; stroke-linecap: square"/>
   </g>
   <g id="line2d_4">
    <path d="M 0 459 
L 12.375 459 
L 24.75 460.563402 
L 37.125 460.7089 
L 49.5 460.509653 
L 61.875 460.857374 
L 74.25 460.637113 
L 86.625 461.184192 
L 99 462.344385 
L 111.375 463.223607 
L 123.75 464.16904 
L 136.125 465.750533 
L 148.5 466.894017 
L 160.875 467.532372 
L 173.25 467.76334 
L 185.625 468.18651 
L 198 467.924727 
L 210.375 467.025869 
L 222.75 466.427761 
L 235.125 466.139299 
L 247.5 466.251064 
L 259.875 466.253269 
L 272.25 465.956988 
L 284.625 465.754808 
L 297 464.636111 
L 309.375 464.030319 
L 321.75 463.299944 
L 334.125 462.395381 
L 346.5 460.539078 
L 358.875 459.471493 
L 371.25 455.346832 
L 383.625 449.515071 
L 396 446.260734 
L 408.375 443.381929 
L 420.75 440.425428 
L 433.125 436.013292 
L 445.5 431.203283 
L 457.875 427.901589 
L 470.25 425.338361 
L 482.625 423.394801 
L 495 421.208565 
L 507.375 418.900488 
L 519.75 416.620032 
L 532.125 415.904081 
L 544.5 414.798014 
L 556.875 414.560791 
L 569.25 413.938314 
L 581.625 414.817922 
L 594 414.843849 
L 606.375 414.086902 
L 618.75 412.733397 
L 631.125 411.159269 
L 643.5 409.140022 
L 655.875 407.059304 
L 668.25 404.921086 
L 680.625 404.256239 
L 693 403.319291 
L 705.375 401.392855 
L 717.75 400.069256 
L 730.125 398.786035 
L 742.5 398.735425 
L 754.875 398.125175 
L 767.25 397.817299 
L 779.625 397.708229 
" clip-path="url(#p319552c769)" style="fill: none; stroke: #000000; stroke-width: 1.5; stroke-linecap: square"/>
   </g>
   <g id="line2d_5">
    <path d="M 0 459 
L 12.375 459 
L 24.75 460.501333 
L 37.125 460.658264 
L 49.5 460.495181 
L 61.875 460.797601 
L 74.25 460.62662 
L 86.625 461.069523 
L 99 461.996375 
L 111.375 462.718648 
L 123.75 463.491502 
L 136.125 464.726075 
L 148.5 465.664991 
L 160.875 466.256889 
L 173.25 466.563841 
L 185.625 466.981634 
L 198 466.94427 
L 210.375 466.473468 
L 222.75 466.153927 
L 235.125 466.002598 
L 247.5 466.084988 
L 259.875 466.102776 
L 272.25 465.939918 
L 284.625 465.821715 
L 297 465.158858 
L 309.375 464.757622 
L 321.75 464.269123 
L 334.125 463.66276 
L 346.5 462.493449 
L 358.875 461.714896 
L 371.25 460.56707 
L 383.625 459.235645 
L 396 456.99977 
L 408.375 454.470195 
L 420.75 451.883372 
L 433.125 448.479364 
L 445.5 444.784049 
L 457.875 441.826976 
L 470.25 439.248633 
L 482.625 437.017766 
L 495 434.691322 
L 507.375 432.317989 
L 519.75 429.972503 
L 532.125 428.479422 
L 544.5 426.84703 
L 556.875 425.723967 
L 569.25 424.471696 
L 581.625 424.07326 
L 594 423.327446 
L 606.375 422.229788 
L 618.75 420.848157 
L 631.125 419.355544 
L 643.5 417.625281 
L 655.875 415.83969 
L 668.25 413.999036 
L 680.625 412.910937 
L 693 411.710588 
L 705.375 410.015316 
L 717.75 408.617397 
L 730.125 407.246249 
L 742.5 406.523773 
L 754.875 405.5674 
L 767.25 404.794307 
L 779.625 404.161496 
" clip-path="url(#p319552c769)" style="fill: none; stroke: #000000; stroke-width: 1.5; stroke-linecap: square"/>
   </g>
   <g id="line2d_6">
    <path d="M 0 459 
L 12.375 459 
L 24.75 460.470197 
L 37.125 460.631588 
L 49.5 460.485336 
L 61.875 460.766362 
L 74.25 460.617456 
L 86.625 461.012253 
L 99 461.828794 
L 111.375 462.469589 
L 123.75 463.150412 
L 136.125 464.210808 
L 148.5 465.029508 
L 160.875 465.566596 
L 173.25 465.873248 
L 185.625 466.259375 
L 198 466.291987 
L 210.375 465.989397 
L 222.75 465.789225 
L 235.125 465.705545 
L 247.5 465.787059 
L 259.875 465.820948 
L 272.25 465.725127 
L 284.625 465.656888 
L 297 465.209377 
L 309.375 464.931783 
L 321.75 464.590414 
L 334.125 464.164746 
L 346.5 463.359558 
L 358.875 462.797289 
L 371.25 461.988004 
L 383.625 461.048786 
L 396 460.370081 
L 408.375 459.722675 
L 420.75 459.05832 
L 433.125 456.657461 
L 445.5 453.932353 
L 457.875 451.630151 
L 470.25 449.542044 
L 482.625 447.654482 
L 495 445.705276 
L 507.375 443.72213 
L 519.75 441.748821 
L 532.125 440.2737 
L 544.5 438.72511 
L 556.875 437.479863 
L 569.25 436.172868 
L 581.625 435.370665 
L 594 434.392555 
L 606.375 433.229054 
L 618.75 431.912294 
L 631.125 430.535449 
L 643.5 429.024532 
L 655.875 427.478298 
L 668.25 425.895952 
L 680.625 424.729332 
L 693 423.508159 
L 705.375 422.016835 
L 717.75 420.686084 
L 730.125 419.371394 
L 742.5 418.416138 
L 754.875 417.345922 
L 767.25 416.384638 
L 779.625 415.511457 
" clip-path="url(#p319552c769)" style="fill: none; stroke: #000000; stroke-width: 1.5; stroke-linecap: square"/>
   </g>
   <g id="line2d_7">
    <path d="M 0 459 
L 12.375 459 
L 24.75 460.454616 
L 37.125 460.617929 
L 49.5 460.479754 
L 61.875 460.75041 
L 74.25 460.611868 
L 86.625 460.98372 
L 99 461.747286 
L 111.375 462.347517 
L 123.75 462.98213 
L 136.125 463.957394 
L 148.5 464.713971 
L 160.875 465.217806 
L 173.25 465.515809 
L 185.625 465.879589 
L 198 465.935512 
L 210.375 465.701551 
L 222.75 465.55098 
L 235.125 465.495795 
L 247.5 465.57649 
L 259.875 465.616832 
L 272.25 465.549869 
L 284.625 465.503996 
L 297 465.151411 
L 309.375 464.932446 
L 321.75 464.661641 
L 334.125 464.323181 
L 346.5 463.686868 
L 358.875 463.236023 
L 371.25 462.593758 
L 383.625 461.849977 
L 396 461.3011 
L 408.375 460.774729 
L 420.75 460.234932 
L 433.125 459.564639 
L 445.5 458.525239 
L 457.875 456.660795 
L 470.25 454.949441 
L 482.625 453.381817 
L 495 451.769924 
L 507.375 450.133442 
L 519.75 448.50338 
L 532.125 447.224185 
L 544.5 445.896094 
L 556.875 444.78137 
L 569.25 443.627578 
L 581.625 442.824642 
L 594 441.907315 
L 606.375 440.86823 
L 618.75 439.728281 
L 631.125 438.549552 
L 643.5 437.282056 
L 655.875 435.991063 
L 668.25 434.67583 
L 680.625 433.634657 
L 693 432.560029 
L 705.375 431.310457 
L 717.75 430.165097 
L 730.125 429.030939 
L 742.5 428.129543 
L 754.875 427.157736 
L 767.25 426.257943 
L 779.625 425.417273 
" clip-path="url(#p319552c769)" style="fill: none; stroke: #000000; stroke-width: 1.5; stroke-linecap: square"/>
   </g>
   <g id="line2d_8">
    <path d="M 0 459 
L 12.375 459 
L 24.75 460.446824 
L 37.125 460.611022 
L 49.5 460.476799 
L 61.875 460.742352 
L 74.25 460.608822 
L 86.625 460.969488 
L 99 461.707178 
L 111.375 462.287287 
L 123.75 462.898911 
L 136.125 463.832375 
L 148.5 464.557745 
L 160.875 465.043859 
L 173.25 465.335717 
L 185.625 465.686983 
L 198 465.751776 
L 210.375 465.548096 
L 222.75 465.419449 
L 235.125 465.376743 
L 247.5 465.45656 
L 259.875 465.499345 
L 272.25 465.445126 
L 284.625 465.409206 
L 297 465.099743 
L 309.375 464.908049 
L 321.75 464.670259 
L 334.125 464.37274 
L 346.5 463.814616 
L 358.875 463.417314 
L 371.25 462.854099 
L 383.625 462.203092 
L 396 461.719072 
L 408.375 461.254387 
L 420.75 460.778485 
L 433.125 460.192314 
L 445.5 459.561899 
L 457.875 459.016703 
L 470.25 457.543387 
L 482.625 456.157553 
L 495 454.736591 
L 507.375 453.296844 
L 519.75 451.863863 
L 532.125 450.7196 
L 544.5 449.537671 
L 556.875 448.531006 
L 569.25 447.495161 
L 581.625 446.744112 
L 594 445.904192 
L 606.375 444.969516 
L 618.75 443.956735 
L 631.125 442.915079 
L 643.5 441.805057 
L 655.875 440.67803 
L 668.25 439.533396 
L 680.625 438.604009 
L 693 437.650527 
L 705.375 436.56327 
L 717.75 435.557751 
L 730.125 434.562363 
L 742.5 433.746847 
L 754.875 432.879606 
L 767.25 432.068933 
L 779.625 431.304983 
" clip-path="url(#p319552c769)" style="fill: none; stroke: #000000; stroke-width: 1.5; stroke-linecap: square"/>
   </g>
   <g id="line2d_9">
    <path d="M 0 459 
L 12.375 459 
L 24.75 460.442927 
L 37.125 460.60755 
L 49.5 460.47528 
L 61.875 460.738303 
L 74.25 460.607236 
L 86.625 460.962383 
L 99 461.687295 
L 111.375 462.257398 
L 123.75 462.857576 
L 136.125 463.770364 
L 148.5 464.480141 
L 160.875 464.957169 
L 173.25 465.245546 
L 185.625 465.590266 
L 198 465.658832 
L 210.375 465.469289 
L 222.75 465.350866 
L 235.125 465.313926 
L 247.5 465.393157 
L 259.875 465.436938 
L 272.25 465.388626 
L 284.625 465.357323 
L 297 465.06823 
L 309.375 464.88953 
L 321.75 464.667514 
L 334.125 464.389588 
L 346.5 463.868674 
L 358.875 463.497236 
L 371.25 462.971958 
L 383.625 462.365509 
L 396 461.913274 
L 408.375 461.479046 
L 420.75 461.034763 
L 433.125 460.489728 
L 445.5 459.904519 
L 457.875 459.397285 
L 470.25 458.788389 
L 482.625 457.495739 
L 495 456.172517 
L 507.375 454.833563 
L 519.75 453.501945 
L 532.125 452.431055 
L 544.5 451.327817 
L 556.875 450.382728 
L 569.25 449.413067 
L 581.625 448.698365 
L 594 447.906282 
L 606.375 447.03169 
L 618.75 446.089413 
L 631.125 445.122958 
L 643.5 444.097595 
L 655.875 443.058495 
L 668.25 442.005144 
L 680.625 441.141067 
L 693 440.257265 
L 705.375 439.258322 
L 717.75 438.331464 
L 730.125 437.414558 
L 742.5 436.654266 
L 754.875 435.850653 
L 767.25 435.096923 
L 779.625 434.384534 
" clip-path="url(#p319552c769)" style="fill: none; stroke: #000000; stroke-width: 1.5; stroke-linecap: square"/>
   </g>
  </g>
 </g>
 <defs>
  <clipPath id="p319552c769">
   <rect x="0" y="0" width="792" height="612"/>
  </clipPath>
 </defs>
</svg>
