<?xml version="1.0" encoding="utf-8" standalone="no"?>
<!DOCTYPE svg PUBLIC "-//W3C//DTD SVG 1.1//EN"
  "http://www.w3.org/Graphics/SVG/1.1/DTD/svg11.dtd">
<svg xmlns:xlink="http://www.w3.org/1999/xlink" width="792pt" height="612pt" viewBox="0 0 792 612" xmlns="http://www.w3.org/2000/svg" version="1.1">
 <metadata>
  <rdf:RDF xmlns:dc="http://purl.org/dc/elements/1.1/" xmlns:cc="http://creativecommons.org/ns#" xmlns:rdf="http://www.w3.org/1999/02/22-rdf-syntax-ns#">
   <cc:Work>
    <dc:type rdf:resource="http://purl.org/dc/dcmitype/StillImage"/>
    <dc:date>2023-01-09T02:28:58.535817</dc:date>
    <dc:format>image/svg+xml</dc:format>
    <dc:creator>
     <cc:Agent>
      <dc:title>Matplotlib v3.6.2, https://matplotlib.org/</dc:title>
     </cc:Agent>
    </dc:creator>
   </cc:Work>
  </rdf:RDF>
 </metadata>
 <defs>
  <style type="text/css">*{stroke-linejoin: round; stroke-linecap: butt}</style>
 </defs>
 <g id="figure_1">
  <g id="patch_1">
   <path d="M 0 612 
L 792 612 
L 792 0 
L 0 0 
z
" style="fill: #ffffff"/>
  </g>
  <g id="axes_1">
   <g id="line2d_1">
    <path d="M 0 459 
L 12.774194 453.229286 
L 25.548387 454.103564 
L 38.322581 435.615577 
L 51.096774 442.044422 
L 63.870968 437.680072 
L 76.645161 431.954213 
L 89.419355 410.535711 
L 102.193548 420.066537 
L 114.967742 404.606985 
L 127.741935 394.405589 
L 140.516129 405.009348 
L 153.290323 404.118514 
L 166.064516 400.674135 
L 178.83871 388.218435 
L 191.612903 381.123039 
L 204.387097 385.887145 
L 217.16129 387.222907 
L 229.935484 388.616838 
L 242.709677 385.091974 
L 255.483871 382.057518 
L 268.258065 379.878101 
L 281.032258 387.67792 
L 293.806452 384.410761 
L 306.580645 388.873011 
L 319.354839 386.11442 
L 332.129032 395.234313 
L 344.903226 390.553472 
L 357.677419 385.461105 
L 370.451613 380.839994 
L 383.225806 378.041187 
L 396 373.58733 
L 408.774194 371.113846 
L 421.548387 368.589617 
L 434.322581 375.868613 
L 447.096774 373.362253 
L 459.870968 366.071064 
L 472.645161 367.945441 
L 485.419355 366.826025 
L 498.193548 373.362253 
L 510.967742 369.738848 
L 523.741935 371.001539 
L 536.516129 371.928394 
L 549.290323 377.758821 
L 562.064516 373.643606 
L 574.83871 373.812449 
L 587.612903 374.966851 
L 600.387097 383.6448 
L 613.16129 385.830332 
L 625.935484 383.814976 
L 638.709677 377.363615 
L 651.483871 367.16173 
L 664.258065 373.390385 
L 677.032258 366.993865 
L 689.806452 364.199913 
L 702.580645 370.776959 
L 715.354839 367.105772 
L 728.129032 372.57482 
L 740.903226 373.615467 
L 753.677419 373.30599 
L 766.451613 372.406152 
L 779.225806 354.78403 
" clip-path="url(#pa55fc4c112)" style="fill: none; stroke: #000000; stroke-width: 1.5; stroke-linecap: square"/>
   </g>
   <g id="line2d_2">
    <path d="M 0 459 
L 12.774194 459 
L 25.548387 455.152744 
L 38.322581 454.553207 
L 51.096774 444.447145 
L 63.870968 443.206922 
L 76.645161 440.398959 
L 89.419355 436.141402 
L 102.193548 423.260401 
L 114.967742 421.586997 
L 127.741935 412.986242 
L 140.516129 403.556732 
L 153.290323 404.223296 
L 166.064516 404.097108 
L 178.83871 402.312784 
L 191.612903 395.165152 
L 204.387097 388.069704 
L 217.16129 386.911619 
L 229.935484 387.033361 
L 242.709677 387.81356 
L 255.483871 386.413275 
L 268.258065 384.190663 
L 281.032258 381.992089 
L 293.806452 384.831026 
L 306.580645 384.627333 
L 319.354839 386.754439 
L 332.129032 386.43222 
L 344.903226 390.839824 
L 357.677419 390.707371 
L 370.451613 388.088559 
L 383.225806 384.461395 
L 396 381.228503 
L 408.774194 377.380882 
L 421.548387 374.208608 
L 434.322581 371.361509 
L 447.096774 373.575302 
L 459.870968 373.435288 
L 472.645161 369.709374 
L 485.419355 368.801897 
L 498.193548 367.791618 
L 510.967742 370.573114 
L 523.741935 370.153209 
L 536.516129 370.582028 
L 549.290323 371.247307 
L 562.064516 374.507276 
L 574.83871 374.090266 
L 587.612903 373.962884 
L 600.387097 374.480774 
L 613.16129 379.074743 
L 625.935484 382.479943 
L 638.709677 383.172533 
L 651.483871 380.275531 
L 664.258065 373.6798 
L 677.032258 373.534587 
L 689.806452 370.246178 
L 702.580645 367.19783 
L 715.354839 368.960914 
L 728.129032 367.9965 
L 740.903226 370.261472 
L 753.677419 371.929936 
L 766.451613 372.629835 
L 779.225806 372.516059 
" clip-path="url(#pa55fc4c112)" style="fill: none; stroke: #000000; stroke-width: 1.5; stroke-linecap: square"/>
   </g>
   <g id="line2d_3">
    <path d="M 0 459 
L 12.774194 459 
L 25.548387 455.619477 
L 38.322581 454.932633 
L 51.096774 447.383356 
L 63.870968 445.48339 
L 76.645161 442.870251 
L 89.419355 439.36043 
L 102.193548 430.327513 
L 114.967742 427.179641 
L 127.741935 420.333547 
L 140.516129 412.533936 
L 153.290323 410.292225 
L 166.064516 408.461823 
L 178.83871 406.159626 
L 191.612903 400.855974 
L 204.387097 395.027483 
L 217.16129 392.261722 
L 229.935484 390.709322 
L 242.709677 390.021993 
L 255.483871 388.518913 
L 268.258065 386.555328 
L 281.032258 384.530698 
L 293.806452 385.401602 
L 306.580645 385.081545 
L 319.354839 386.155551 
L 332.129032 386.12239 
L 344.903226 388.786405 
L 357.677419 389.287232 
L 370.451613 388.144193 
L 383.225806 385.978143 
L 396 383.636895 
L 408.774194 380.676599 
L 421.548387 377.851104 
L 434.322581 375.109676 
L 447.096774 375.317351 
L 459.870968 374.730962 
L 472.645161 372.169459 
L 485.419355 370.916984 
L 498.193548 369.693429 
L 510.967742 370.754192 
L 523.741935 370.43489 
L 536.516129 370.583583 
L 549.290323 370.9508 
L 562.064516 372.926243 
L 574.83871 373.122804 
L 587.612903 373.31671 
L 600.387097 373.796266 
L 613.16129 376.68441 
L 625.935484 379.373473 
L 638.709677 380.69036 
L 651.483871 379.716805 
L 664.258065 376.018744 
L 677.032258 375.256771 
L 689.806452 372.829437 
L 702.580645 370.292028 
L 715.354839 370.431075 
L 728.129032 369.453071 
L 740.903226 370.368338 
L 753.677419 371.320398 
L 766.451613 371.896516 
L 779.225806 372.044342 
" clip-path="url(#pa55fc4c112)" style="fill: none; stroke: #000000; stroke-width: 1.5; stroke-linecap: square"/>
   </g>
   <g id="line2d_4">
    <path d="M 0 459 
L 12.774194 459 
L 25.548387 455.865153 
L 38.322581 455.173778 
L 51.096774 448.945319 
L 63.870968 447.05024 
L 76.645161 444.742825 
L 89.419355 441.844596 
L 102.193548 435.179445 
L 114.967742 432.12965 
L 127.741935 426.788962 
L 140.516129 420.702496 
L 153.290323 417.841148 
L 166.064516 415.395224 
L 178.83871 412.818537 
L 191.612903 408.567072 
L 204.387097 403.878039 
L 217.16129 400.843218 
L 229.935484 398.568059 
L 242.709677 396.919416 
L 255.483871 394.970706 
L 268.258065 392.853066 
L 281.032258 390.734099 
L 293.806452 390.238216 
L 306.580645 389.294739 
L 319.354839 389.226739 
L 332.129032 388.725574 
L 344.903226 389.768974 
L 357.677419 389.894745 
L 370.451613 389.183761 
L 383.225806 387.845531 
L 396 386.273618 
L 408.774194 384.239056 
L 421.548387 382.087796 
L 434.322581 379.878378 
L 447.096774 379.19166 
L 459.870968 378.224108 
L 472.645161 376.235546 
L 485.419355 374.869888 
L 498.193548 373.546382 
L 510.967742 373.494193 
L 523.741935 372.864963 
L 536.516129 372.547554 
L 549.290323 372.435113 
L 562.064516 373.263783 
L 574.83871 373.305408 
L 587.612903 373.369478 
L 600.387097 373.615267 
L 613.16129 375.207199 
L 625.935484 376.891464 
L 638.709677 377.988416 
L 651.483871 377.881993 
L 664.258065 376.158712 
L 677.032258 375.71244 
L 689.806452 374.312892 
L 702.580645 372.683279 
L 715.354839 372.371297 
L 728.129032 371.518398 
L 740.903226 371.678019 
L 753.677419 371.972701 
L 766.451613 372.174052 
L 779.225806 372.202875 
" clip-path="url(#pa55fc4c112)" style="fill: none; stroke: #000000; stroke-width: 1.5; stroke-linecap: square"/>
   </g>
   <g id="line2d_5">
    <path d="M 0 459 
L 12.774194 459 
L 25.548387 455.989607 
L 38.322581 455.305723 
L 51.096774 449.721671 
L 63.870968 447.908709 
L 76.645161 445.813391 
L 89.419355 443.281402 
L 102.193548 437.825697 
L 114.967742 435.098263 
L 127.741935 430.712276 
L 140.516129 425.777043 
L 153.290323 423.101221 
L 166.064516 420.761881 
L 178.83871 418.380071 
L 191.612903 414.915492 
L 204.387097 411.145131 
L 217.16129 408.408321 
L 229.935484 406.170053 
L 242.709677 404.357134 
L 255.483871 402.404782 
L 268.258065 400.377826 
L 281.032258 398.36746 
L 293.806452 397.337141 
L 306.580645 396.106413 
L 319.354839 395.426933 
L 332.129032 394.560875 
L 344.903226 394.622718 
L 357.677419 394.251803 
L 370.451613 393.455763 
L 383.225806 392.320195 
L 396 391.042613 
L 408.774194 389.488377 
L 421.548387 387.860528 
L 434.322581 386.161012 
L 447.096774 385.260372 
L 459.870968 384.222923 
L 472.645161 382.642334 
L 485.419355 381.368636 
L 498.193548 380.112295 
L 510.967742 379.532572 
L 523.741935 378.692692 
L 536.516129 378.035247 
L 549.290323 377.514701 
L 562.064516 377.535418 
L 574.83871 377.205255 
L 587.612903 376.917971 
L 600.387097 376.75311 
L 613.16129 377.332742 
L 625.935484 378.046123 
L 638.709677 378.530302 
L 651.483871 378.432249 
L 664.258065 377.482319 
L 677.032258 377.138704 
L 689.806452 376.285497 
L 702.580645 375.269005 
L 715.354839 374.892598 
L 728.129032 374.239668 
L 740.903226 374.10049 
L 753.677419 374.059983 
L 766.451613 373.997039 
L 779.225806 373.864248 
" clip-path="url(#pa55fc4c112)" style="fill: none; stroke: #000000; stroke-width: 1.5; stroke-linecap: square"/>
   </g>
   <g id="line2d_6">
    <path d="M 0 459 
L 12.774194 459 
L 25.548387 456.052038 
L 38.322581 455.3742 
L 51.096774 450.104731 
L 63.870968 448.34942 
L 76.645161 446.371989 
L 89.419355 444.032781 
L 102.193548 439.165605 
L 114.967742 436.652317 
L 127.741935 432.770094 
L 140.516129 428.450817 
L 153.290323 425.989619 
L 166.064516 423.82787 
L 178.83871 421.659712 
L 191.612903 418.671147 
L 204.387097 415.458727 
L 217.16129 413.036095 
L 229.935484 411.002192 
L 242.709677 409.300774 
L 255.483871 407.518556 
L 268.258065 405.698981 
L 281.032258 403.904332 
L 293.806452 402.808857 
L 306.580645 401.595916 
L 319.354839 400.777489 
L 332.129032 399.853689 
L 344.903226 399.5693 
L 357.677419 399.02394 
L 370.451613 398.216831 
L 383.225806 397.198581 
L 396 396.092779 
L 408.774194 394.811217 
L 421.548387 393.479802 
L 434.322581 392.098934 
L 447.096774 391.212467 
L 459.870968 390.248366 
L 472.645161 388.953811 
L 485.419355 387.842066 
L 498.193548 386.740928 
L 510.967742 386.048618 
L 523.741935 385.211253 
L 536.516129 384.488505 
L 549.290323 383.855234 
L 562.064516 383.550971 
L 574.83871 383.059431 
L 587.612903 382.603964 
L 600.387097 382.230517 
L 613.16129 382.299009 
L 625.935484 382.468873 
L 638.709677 382.533302 
L 651.483871 382.286635 
L 664.258065 381.565902 
L 677.032258 381.179311 
L 689.806452 380.510074 
L 702.580645 379.74334 
L 715.354839 379.324893 
L 728.129032 378.756213 
L 740.903226 378.470346 
L 753.677419 378.246778 
L 766.451613 378.020053 
L 779.225806 377.763244 
" clip-path="url(#pa55fc4c112)" style="fill: none; stroke: #000000; stroke-width: 1.5; stroke-linecap: square"/>
   </g>
   <g id="line2d_7">
    <path d="M 0 459 
L 12.774194 459 
L 25.548387 456.08328 
L 38.322581 455.409014 
L 51.096774 450.294493 
L 63.870968 448.571592 
L 76.645161 446.655438 
L 89.419355 444.41397 
L 102.193548 439.833754 
L 114.967742 437.437088 
L 127.741935 433.807902 
L 140.516129 429.798581 
L 153.290323 427.46838 
L 166.064516 425.421318 
L 178.83871 423.384743 
L 191.612903 420.64786 
L 204.387097 417.729298 
L 217.16129 415.497618 
L 229.935484 413.60829 
L 242.709677 412.011276 
L 255.483871 410.359258 
L 268.258065 408.687337 
L 281.032258 407.045819 
L 293.806452 405.982613 
L 306.580645 404.835547 
L 319.354839 404.013943 
L 332.129032 403.118721 
L 344.903226 402.736374 
L 357.677419 402.160355 
L 370.451613 401.389469 
L 383.225806 400.462309 
L 396 399.473113 
L 408.774194 398.354556 
L 421.548387 397.201393 
L 434.322581 396.013739 
L 447.096774 395.196141 
L 459.870968 394.325816 
L 472.645161 393.216752 
L 485.419355 392.242801 
L 498.193548 391.279224 
L 510.967742 390.612639 
L 523.741935 389.847013 
L 536.516129 389.16647 
L 549.290323 388.553178 
L 562.064516 388.17532 
L 574.83871 387.672666 
L 587.612903 387.199487 
L 600.387097 386.787288 
L 613.16129 386.68301 
L 625.935484 386.655066 
L 638.709677 386.562968 
L 651.483871 386.267208 
L 664.258065 385.657041 
L 677.032258 385.270309 
L 689.806452 384.698394 
L 702.580645 384.062447 
L 715.354839 383.655285 
L 728.129032 383.151961 
L 740.903226 382.83384 
L 753.677419 382.559072 
L 766.451613 382.285526 
L 779.225806 381.995717 
" clip-path="url(#pa55fc4c112)" style="fill: none; stroke: #000000; stroke-width: 1.5; stroke-linecap: square"/>
   </g>
   <g id="line2d_8">
    <path d="M 0 459 
L 12.774194 459 
L 25.548387 456.098904 
L 38.322581 455.426558 
L 51.096774 450.388873 
L 63.870968 448.682995 
L 76.645161 446.797973 
L 89.419355 444.605561 
L 102.193548 440.166598 
L 114.967742 437.830091 
L 127.741935 434.326943 
L 140.516129 430.471933 
L 153.290323 428.211929 
L 166.064516 426.227501 
L 178.83871 424.2617 
L 191.612903 421.652484 
L 204.387097 418.88246 
L 217.16129 416.752509 
L 229.935484 414.943926 
L 242.709677 413.409356 
L 255.483871 411.831834 
L 268.258065 410.242795 
L 281.032258 408.687167 
L 293.806452 407.655076 
L 306.580645 406.55419 
L 319.354839 405.74739 
L 332.129032 404.880939 
L 344.903226 404.470048 
L 357.677419 403.894775 
L 370.451613 403.154199 
L 383.225806 402.28198 
L 396 401.359614 
L 408.774194 400.329239 
L 421.548387 399.272076 
L 434.322581 398.188205 
L 447.096774 397.420661 
L 459.870968 396.611627 
L 472.645161 395.604679 
L 485.419355 394.713116 
L 498.193548 393.832638 
L 510.967742 393.201055 
L 523.741935 392.490398 
L 536.516129 391.852255 
L 549.290323 391.271759 
L 562.064516 390.885983 
L 574.83871 390.401582 
L 587.612903 389.943486 
L 600.387097 389.536937 
L 613.16129 389.380062 
L 625.935484 389.287096 
L 638.709677 389.145863 
L 651.483871 388.845573 
L 664.258065 388.298761 
L 677.032258 387.929068 
L 689.806452 387.415785 
L 702.580645 386.853631 
L 715.354839 386.470531 
L 728.129032 386.014337 
L 740.903226 385.702407 
L 753.677419 385.425427 
L 766.451613 385.150998 
L 779.225806 384.865689 
" clip-path="url(#pa55fc4c112)" style="fill: none; stroke: #000000; stroke-width: 1.5; stroke-linecap: square"/>
   </g>
   <g id="line2d_9">
    <path d="M 0 459 
L 12.774194 459 
L 25.548387 456.106716 
L 38.322581 455.435364 
L 51.096774 450.43593 
L 63.870968 448.738759 
L 76.645161 446.869413 
L 89.419355 444.701558 
L 102.193548 440.332614 
L 114.967742 438.02658 
L 127.741935 434.586232 
L 140.516129 430.808062 
L 153.290323 428.584164 
L 166.064516 426.632202 
L 178.83871 424.702849 
L 191.612903 422.15769 
L 204.387097 419.462036 
L 217.16129 417.38417 
L 229.935484 415.617717 
L 242.709677 414.116574 
L 255.483871 412.578279 
L 268.258065 411.032548 
L 281.032258 409.521768 
L 293.806452 408.508591 
L 306.580645 407.433727 
L 319.354839 406.638104 
L 332.129032 405.789356 
L 344.903226 405.369123 
L 357.677419 404.798101 
L 370.451613 404.075578 
L 383.225806 403.232974 
L 396 402.345887 
L 408.774194 401.360901 
L 421.548387 400.35298 
L 434.322581 399.322203 
L 447.096774 398.583072 
L 459.870968 397.807726 
L 472.645161 396.853458 
L 485.419355 396.005718 
L 498.193548 395.169572 
L 510.967742 394.560382 
L 523.741935 393.881301 
L 536.516129 393.269062 
L 549.290323 392.710125 
L 562.064516 392.327332 
L 574.83871 391.857724 
L 587.612903 391.412957 
L 600.387097 391.015424 
L 613.16129 390.84109 
L 625.935484 390.724785 
L 638.709677 390.567097 
L 651.483871 390.270254 
L 664.258065 389.757411 
L 677.032258 389.401049 
L 689.806452 388.9198 
L 702.580645 388.396656 
L 715.354839 388.030531 
L 728.129032 387.601669 
L 740.903226 387.298926 
L 753.677419 387.027361 
L 766.451613 386.758885 
L 779.225806 386.481878 
" clip-path="url(#pa55fc4c112)" style="fill: none; stroke: #000000; stroke-width: 1.5; stroke-linecap: square"/>
   </g>
  </g>
 </g>
 <defs>
  <clipPath id="pa55fc4c112">
   <rect x="0" y="0" width="792" height="612"/>
  </clipPath>
 </defs>
</svg>
