<?xml version="1.0" encoding="utf-8" standalone="no"?>
<!DOCTYPE svg PUBLIC "-//W3C//DTD SVG 1.1//EN"
  "http://www.w3.org/Graphics/SVG/1.1/DTD/svg11.dtd">
<svg xmlns:xlink="http://www.w3.org/1999/xlink" width="792pt" height="612pt" viewBox="0 0 792 612" xmlns="http://www.w3.org/2000/svg" version="1.1">
 <metadata>
  <rdf:RDF xmlns:dc="http://purl.org/dc/elements/1.1/" xmlns:cc="http://creativecommons.org/ns#" xmlns:rdf="http://www.w3.org/1999/02/22-rdf-syntax-ns#">
   <cc:Work>
    <dc:type rdf:resource="http://purl.org/dc/dcmitype/StillImage"/>
    <dc:date>2023-01-09T02:28:59.534777</dc:date>
    <dc:format>image/svg+xml</dc:format>
    <dc:creator>
     <cc:Agent>
      <dc:title>Matplotlib v3.6.2, https://matplotlib.org/</dc:title>
     </cc:Agent>
    </dc:creator>
   </cc:Work>
  </rdf:RDF>
 </metadata>
 <defs>
  <style type="text/css">*{stroke-linejoin: round; stroke-linecap: butt}</style>
 </defs>
 <g id="figure_1">
  <g id="patch_1">
   <path d="M 0 612 
L 792 612 
L 792 0 
L 0 0 
z
" style="fill: #ffffff"/>
  </g>
  <g id="axes_1">
   <g id="line2d_1">
    <path d="M 0 306 
L 12.774194 302.152857 
L 25.548387 306.58293 
L 38.322581 293.667973 
L 51.096774 310.293978 
L 63.870968 303.085432 
L 76.645161 302.172285 
L 89.419355 291.631605 
L 102.193548 312.411304 
L 114.967742 295.588983 
L 127.741935 299.083728 
L 140.516129 313.188162 
L 153.290323 305.397639 
L 166.064516 303.66832 
L 178.83871 297.530231 
L 191.612903 301.142648 
L 204.387097 309.264291 
L 217.16129 306.913256 
L 229.935484 306.952118 
L 242.709677 303.590601 
L 255.483871 303.920911 
L 268.258065 304.503822 
L 281.032258 311.342993 
L 293.806452 303.76547 
L 306.580645 309.050572 
L 319.354839 304.115213 
L 332.129032 312.217077 
L 344.903226 302.813425 
L 357.677419 302.521994 
L 370.451613 302.832854 
L 383.225806 304.076352 
L 396 302.929999 
L 408.774194 304.290086 
L 421.548387 304.251226 
L 434.322581 311.032185 
L 447.096774 304.270656 
L 459.870968 300.948389 
L 472.645161 307.301872 
L 485.419355 305.22276 
L 498.193548 310.527102 
L 510.967742 303.493452 
L 523.741935 306.874394 
L 536.516129 306.641223 
L 549.290323 310.021993 
L 562.064516 303.16315 
L 574.83871 306.116586 
L 587.612903 306.796671 
L 600.387097 311.964573 
L 613.16129 307.496178 
L 625.935484 304.620406 
L 638.709677 301.570033 
L 651.483871 298.947782 
L 664.258065 310.313405 
L 677.032258 301.570033 
L 689.806452 304.056922 
L 702.580645 310.565955 
L 715.354839 303.454593 
L 728.129032 309.788859 
L 740.903226 306.718947 
L 753.677419 305.786259 
L 766.451613 305.378208 
L 779.225806 293.726172 
" clip-path="url(#p4c22371ca6)" style="fill: none; stroke: #000000; stroke-width: 1.5; stroke-linecap: square"/>
   </g>
   <g id="line2d_2">
    <path d="M 0 306 
L 12.774194 306 
L 25.548387 303.435163 
L 38.322581 305.233863 
L 51.096774 299.063012 
L 63.870968 304.859215 
L 76.645161 303.958229 
L 89.419355 303.058201 
L 102.193548 297.319475 
L 114.967742 304.877272 
L 127.741935 300.218925 
L 140.516129 299.636605 
L 153.290323 306.450876 
L 166.064516 305.914656 
L 178.83871 304.792615 
L 191.612903 301.151638 
L 204.387097 301.165807 
L 217.16129 305.208739 
L 229.935484 306.083211 
L 242.709677 306.533096 
L 255.483871 305.043005 
L 268.258065 304.479057 
L 281.032258 304.493078 
L 293.806452 307.945364 
L 306.580645 305.860554 
L 319.354839 307.455183 
L 332.129032 305.779705 
L 344.903226 309.009047 
L 357.677419 305.909703 
L 370.451613 304.213051 
L 383.225806 303.519663 
L 396 303.783757 
L 408.774194 303.355235 
L 421.548387 303.813321 
L 434.322581 304.032539 
L 447.096774 307.530239 
L 459.870968 305.903302 
L 472.645161 303.422591 
L 485.419355 305.370969 
L 498.193548 305.299112 
L 510.967742 307.928143 
L 523.741935 305.70922 
L 536.516129 306.296952 
L 549.290323 306.460477 
L 562.064516 308.252588 
L 574.83871 305.712192 
L 587.612903 305.912065 
L 600.387097 306.357455 
L 613.16129 309.164099 
L 625.935484 308.338004 
L 638.709677 306.474803 
L 651.483871 304.012347 
L 664.258065 301.458043 
L 677.032258 305.899721 
L 689.806452 303.725848 
L 702.580645 303.886013 
L 715.354839 307.223387 
L 728.129032 305.33104 
L 740.903226 307.570167 
L 753.677419 307.154655 
L 766.451613 306.483871 
L 779.225806 305.921361 
" clip-path="url(#p4c22371ca6)" style="fill: none; stroke: #000000; stroke-width: 1.5; stroke-linecap: square"/>
   </g>
   <g id="line2d_3">
    <path d="M 0 306 
L 12.774194 306 
L 25.548387 303.746318 
L 38.322581 305.031517 
L 51.096774 300.591728 
L 63.870968 304.043439 
L 76.645161 303.722756 
L 89.419355 303.224586 
L 102.193548 299.600291 
L 114.967742 303.525739 
L 127.741935 301.125289 
L 140.516129 300.513764 
L 153.290323 304.284932 
L 166.064516 304.614474 
L 178.83871 304.335166 
L 191.612903 302.330502 
L 204.387097 301.98121 
L 217.16129 304.118021 
L 229.935484 304.942183 
L 242.709677 305.531302 
L 255.483871 304.974277 
L 268.258065 304.658429 
L 281.032258 304.614775 
L 293.806452 306.59611 
L 306.580645 305.780973 
L 319.354839 306.734783 
L 332.129032 305.977321 
L 344.903226 307.82022 
L 357.677419 306.341827 
L 370.451613 305.219678 
L 383.225806 304.519611 
L 396 304.397304 
L 408.774194 303.969583 
L 421.548387 304.057742 
L 434.322581 304.111355 
L 447.096774 306.143222 
L 459.870968 305.595536 
L 472.645161 304.230888 
L 485.419355 305.133563 
L 498.193548 305.152658 
L 510.967742 306.734657 
L 523.741935 305.778931 
L 536.516129 306.102955 
L 549.290323 306.254205 
L 562.064516 307.366104 
L 574.83871 306.135806 
L 587.612903 306.133948 
L 600.387097 306.33118 
L 613.16129 307.991734 
L 625.935484 307.850273 
L 638.709677 306.904701 
L 651.483871 305.331256 
L 664.258065 303.455157 
L 677.032258 305.474691 
L 689.806452 304.324385 
L 702.580645 304.244708 
L 715.354839 306.096288 
L 728.129032 305.322493 
L 740.903226 306.634064 
L 753.677419 306.659015 
L 766.451613 306.398526 
L 779.225806 306.102226 
" clip-path="url(#p4c22371ca6)" style="fill: none; stroke: #000000; stroke-width: 1.5; stroke-linecap: square"/>
   </g>
   <g id="line2d_4">
    <path d="M 0 306 
L 12.774194 306 
L 25.548387 303.910102 
L 38.322581 304.959076 
L 51.096774 301.364391 
L 63.870968 303.815676 
L 76.645161 303.635946 
L 89.419355 303.304535 
L 102.193548 300.826456 
L 114.967742 303.160148 
L 127.741935 301.696317 
L 140.516129 301.208007 
L 153.290323 303.386374 
L 166.064516 303.743949 
L 178.83871 303.730749 
L 191.612903 302.664739 
L 204.387097 302.40641 
L 217.16129 303.557984 
L 229.935484 304.116485 
L 242.709677 304.585048 
L 255.483871 304.421722 
L 268.258065 304.33989 
L 281.032258 304.366561 
L 293.806452 305.497627 
L 306.580645 305.217655 
L 319.354839 305.83562 
L 332.129032 305.558836 
L 344.903226 306.628256 
L 357.677419 306.016506 
L 370.451613 305.456817 
L 383.225806 305.037 
L 396 304.883443 
L 408.774194 304.571414 
L 421.548387 304.525586 
L 434.322581 304.483244 
L 447.096774 305.528042 
L 459.870968 305.334605 
L 472.645161 304.630846 
L 485.419355 305.058443 
L 498.193548 305.08649 
L 510.967742 305.963957 
L 523.741935 305.565318 
L 536.516129 305.780641 
L 549.290323 305.922279 
L 562.064516 306.572618 
L 574.83871 306.028753 
L 587.612903 306.044255 
L 600.387097 306.16975 
L 613.16129 307.098596 
L 625.935484 307.16075 
L 638.709677 306.755143 
L 651.483871 305.926767 
L 664.258065 304.813295 
L 677.032258 305.692412 
L 689.806452 305.034649 
L 702.580645 304.874541 
L 715.354839 305.784359 
L 728.129032 305.410184 
L 740.903226 306.110417 
L 753.677419 306.203806 
L 766.451613 306.139228 
L 779.225806 306.019929 
" clip-path="url(#p4c22371ca6)" style="fill: none; stroke: #000000; stroke-width: 1.5; stroke-linecap: square"/>
   </g>
   <g id="line2d_5">
    <path d="M 0 306 
L 12.774194 306 
L 25.548387 303.993071 
L 38.322581 304.932127 
L 51.096774 301.738628 
L 63.870968 303.758147 
L 76.645161 303.620422 
L 89.419355 303.356112 
L 102.193548 301.408473 
L 114.967742 303.094828 
L 127.741935 302.019511 
L 140.516129 301.622908 
L 153.290323 303.107743 
L 166.064516 303.38896 
L 178.83871 303.421955 
L 191.612903 302.749509 
L 204.387097 302.571681 
L 217.16129 303.292312 
L 229.935484 303.672812 
L 242.709677 304.009967 
L 255.483871 303.967687 
L 268.258065 303.963054 
L 281.032258 304.015771 
L 293.806452 304.719915 
L 306.580645 304.629382 
L 319.354839 305.043834 
L 332.129032 304.957708 
L 344.903226 305.62455 
L 357.677419 305.368607 
L 370.451613 305.111499 
L 383.225806 304.907188 
L 396 304.833188 
L 408.774194 304.664694 
L 421.548387 304.631713 
L 434.322581 304.598382 
L 447.096774 305.159432 
L 459.870968 305.082256 
L 472.645161 304.724635 
L 485.419355 304.94679 
L 498.193548 304.970502 
L 510.967742 305.446579 
L 523.741935 305.279691 
L 536.516129 305.415617 
L 549.290323 305.519849 
L 562.064516 305.901971 
L 574.83871 305.669952 
L 587.612903 305.707723 
L 600.387097 305.799668 
L 613.16129 306.319515 
L 625.935484 306.418594 
L 638.709677 306.267364 
L 651.483871 305.872724 
L 664.258065 305.291457 
L 677.032258 305.712547 
L 689.806452 305.365486 
L 702.580645 305.255946 
L 715.354839 305.700152 
L 728.129032 305.512431 
L 740.903226 305.86972 
L 753.677419 305.94063 
L 766.451613 305.927746 
L 779.225806 305.881904 
" clip-path="url(#p4c22371ca6)" style="fill: none; stroke: #000000; stroke-width: 1.5; stroke-linecap: square"/>
   </g>
   <g id="line2d_6">
    <path d="M 0 306 
L 12.774194 306 
L 25.548387 304.034692 
L 38.322581 304.921144 
L 51.096774 301.920942 
L 63.870968 303.743604 
L 76.645161 303.621694 
L 89.419355 303.386772 
L 102.193548 301.683896 
L 114.967742 303.092486 
L 127.741935 302.187281 
L 140.516129 301.840118 
L 153.290323 303.026909 
L 166.064516 303.260316 
L 178.83871 303.298354 
L 191.612903 302.78646 
L 204.387097 302.647067 
L 217.16129 303.185309 
L 229.935484 303.477174 
L 242.709677 303.739805 
L 255.483871 303.72889 
L 268.258065 303.742518 
L 281.032258 303.795047 
L 293.806452 304.302376 
L 306.580645 304.267163 
L 319.354839 304.57377 
L 332.129032 304.545001 
L 344.903226 305.016771 
L 357.677419 304.883829 
L 370.451613 304.743834 
L 383.225806 304.632444 
L 396 304.600537 
L 408.774194 304.506101 
L 421.548387 304.49406 
L 434.322581 304.480702 
L 447.096774 304.836611 
L 459.870968 304.806229 
L 472.645161 304.601423 
L 485.419355 304.743254 
L 498.193548 304.768186 
L 510.967742 305.064788 
L 523.741935 304.984591 
L 536.516129 305.080213 
L 549.290323 305.158556 
L 562.064516 305.400763 
L 574.83871 305.290146 
L 587.612903 305.330714 
L 600.387097 305.402197 
L 613.16129 305.720202 
L 625.935484 305.805737 
L 638.709677 305.748976 
L 651.483871 305.549942 
L 664.258065 305.237097 
L 677.032258 305.476416 
L 689.806452 305.293118 
L 702.580645 305.235377 
L 715.354839 305.483303 
L 728.129032 305.389337 
L 740.903226 305.592322 
L 753.677419 305.644107 
L 766.451613 305.650617 
L 779.225806 305.638183 
" clip-path="url(#p4c22371ca6)" style="fill: none; stroke: #000000; stroke-width: 1.5; stroke-linecap: square"/>
   </g>
   <g id="line2d_7">
    <path d="M 0 306 
L 12.774194 306 
L 25.548387 304.05552 
L 38.322581 304.916291 
L 51.096774 302.010692 
L 63.870968 303.739805 
L 76.645161 303.624751 
L 89.419355 303.403524 
L 102.193548 301.816874 
L 114.967742 303.098541 
L 127.741935 302.271965 
L 140.516129 301.94968 
L 153.290323 303.001774 
L 166.064516 303.210952 
L 178.83871 303.248417 
L 191.612903 302.806608 
L 204.387097 302.684865 
L 217.16129 303.142508 
L 229.935484 303.392746 
L 242.709677 303.618799 
L 255.483871 303.617081 
L 268.258065 303.634894 
L 281.032258 303.684012 
L 293.806452 304.102286 
L 306.580645 304.084483 
L 319.354839 304.338974 
L 332.129032 304.327839 
L 344.903226 304.709642 
L 357.677419 304.620287 
L 370.451613 304.523887 
L 383.225806 304.448056 
L 396 304.43177 
L 408.774194 304.367408 
L 421.548387 304.364164 
L 434.322581 304.35952 
L 447.096774 304.628569 
L 459.870968 304.614406 
L 472.645161 304.471907 
L 485.419355 304.58001 
L 498.193548 304.604158 
L 510.967742 304.823158 
L 523.741935 304.774746 
L 536.516129 304.850059 
L 549.290323 304.913393 
L 562.064516 305.091554 
L 574.83871 305.025194 
L 587.612903 305.062268 
L 600.387097 305.120455 
L 613.16129 305.347343 
L 625.935484 305.417746 
L 638.709677 305.391915 
L 651.483871 305.269435 
L 664.258065 305.06895 
L 677.032258 305.233557 
L 689.806452 305.119701 
L 702.580645 305.086989 
L 715.354839 305.254073 
L 728.129032 305.199691 
L 740.903226 305.337172 
L 753.677419 305.378215 
L 766.451613 305.390235 
L 779.225806 305.389884 
" clip-path="url(#p4c22371ca6)" style="fill: none; stroke: #000000; stroke-width: 1.5; stroke-linecap: square"/>
   </g>
   <g id="line2d_8">
    <path d="M 0 306 
L 12.774194 306 
L 25.548387 304.065936 
L 38.322581 304.914025 
L 51.096774 302.055191 
L 63.870968 303.738757 
L 76.645161 303.626898 
L 89.419355 303.412276 
L 102.193548 301.882093 
L 114.967742 303.1033 
L 127.741935 302.314399 
L 140.516129 302.004494 
L 153.290323 302.992984 
L 166.064516 303.190205 
L 178.83871 303.226811 
L 191.612903 302.817465 
L 204.387097 302.704066 
L 217.16129 303.124269 
L 229.935484 303.354689 
L 242.709677 303.563036 
L 255.483871 303.56456 
L 268.258065 303.58343 
L 281.032258 303.630193 
L 293.806452 304.006996 
L 306.580645 303.99563 
L 319.354839 304.225186 
L 332.129032 304.220359 
L 344.903226 304.56013 
L 357.677419 304.488199 
L 370.451613 304.409618 
L 383.225806 304.348389 
L 396 304.338114 
L 408.774194 304.286325 
L 421.548387 304.28646 
L 434.322581 304.285228 
L 447.096774 304.515597 
L 459.870968 304.507425 
L 472.645161 304.391297 
L 485.419355 304.484224 
L 498.193548 304.507316 
L 510.967742 304.691761 
L 523.741935 304.655761 
L 536.516129 304.721152 
L 549.290323 304.776704 
L 562.064516 304.925763 
L 574.83871 304.876542 
L 587.612903 304.910585 
L 600.387097 304.961514 
L 613.16129 305.147615 
L 625.935484 305.209049 
L 638.709677 305.193884 
L 651.483871 305.101899 
L 664.258065 304.947918 
L 677.032258 305.080262 
L 689.806452 304.994863 
L 702.580645 304.972351 
L 715.354839 305.104858 
L 728.129032 305.066265 
L 740.903226 305.175334 
L 753.677419 305.210549 
L 766.451613 305.223527 
L 779.225806 305.226973 
" clip-path="url(#p4c22371ca6)" style="fill: none; stroke: #000000; stroke-width: 1.5; stroke-linecap: square"/>
   </g>
   <g id="line2d_9">
    <path d="M 0 306 
L 12.774194 306 
L 25.548387 304.071144 
L 38.322581 304.912932 
L 51.096774 302.077343 
L 63.870968 303.738443 
L 76.645161 303.628127 
L 89.419355 303.416748 
L 102.193548 301.914376 
L 114.967742 303.106101 
L 127.741935 302.335626 
L 140.516129 302.031883 
L 153.290323 302.989519 
L 166.064516 303.180827 
L 178.83871 303.216887 
L 191.612903 302.82313 
L 204.387097 302.713774 
L 217.16129 303.115991 
L 229.935484 303.336787 
L 242.709677 303.536473 
L 255.483871 303.539321 
L 268.258065 303.558493 
L 281.032258 303.603949 
L 293.806452 303.960859 
L 306.580645 303.952201 
L 319.354839 304.169659 
L 332.129032 304.16742 
L 344.903226 304.487041 
L 357.677419 304.422795 
L 370.451613 304.352157 
L 383.225806 304.297435 
L 396 304.289709 
L 408.774194 304.243554 
L 421.548387 304.245089 
L 434.322581 304.245286 
L 447.096774 304.457588 
L 459.870968 304.451888 
L 472.645161 304.347668 
L 485.419355 304.433449 
L 498.193548 304.455839 
L 510.967742 304.624202 
L 523.741935 304.59353 
L 536.516129 304.654081 
L 549.290323 304.705742 
L 562.064516 304.841168 
L 574.83871 304.799263 
L 587.612903 304.831528 
L 600.387097 304.878757 
L 613.16129 305.045957 
L 625.935484 305.102735 
L 638.709677 305.091753 
L 651.483871 305.012933 
L 664.258065 304.87944 
L 677.032258 304.99707 
L 689.806452 304.924068 
L 702.580645 304.905886 
L 715.354839 305.022746 
L 728.129032 304.990857 
L 740.903226 305.086993 
L 753.677419 305.11922 
L 766.451613 305.132205 
L 779.225806 305.136928 
" clip-path="url(#p4c22371ca6)" style="fill: none; stroke: #000000; stroke-width: 1.5; stroke-linecap: square"/>
   </g>
  </g>
 </g>
 <defs>
  <clipPath id="p4c22371ca6">
   <rect x="0" y="0" width="792" height="612"/>
  </clipPath>
 </defs>
</svg>
