<?xml version="1.0" encoding="utf-8" standalone="no"?>
<!DOCTYPE svg PUBLIC "-//W3C//DTD SVG 1.1//EN"
  "http://www.w3.org/Graphics/SVG/1.1/DTD/svg11.dtd">
<svg xmlns:xlink="http://www.w3.org/1999/xlink" width="792pt" height="612pt" viewBox="0 0 792 612" xmlns="http://www.w3.org/2000/svg" version="1.1">
 <metadata>
  <rdf:RDF xmlns:dc="http://purl.org/dc/elements/1.1/" xmlns:cc="http://creativecommons.org/ns#" xmlns:rdf="http://www.w3.org/1999/02/22-rdf-syntax-ns#">
   <cc:Work>
    <dc:type rdf:resource="http://purl.org/dc/dcmitype/StillImage"/>
    <dc:date>2022-12-19T20:26:59.389895</dc:date>
    <dc:format>image/svg+xml</dc:format>
    <dc:creator>
     <cc:Agent>
      <dc:title>Matplotlib v3.6.2, https://matplotlib.org/</dc:title>
     </cc:Agent>
    </dc:creator>
   </cc:Work>
  </rdf:RDF>
 </metadata>
 <defs>
  <style type="text/css">*{stroke-linejoin: round; stroke-linecap: butt}</style>
 </defs>
 <g id="figure_1">
  <g id="patch_1">
   <path d="M 0 612 
L 792 612 
L 792 0 
L 0 0 
z
" style="fill: #ffffff"/>
  </g>
  <g id="axes_1">
   <g id="line2d_1">
    <path d="M 0 306 
L 41.684211 310.871945 
L 83.368421 304.562266 
L 125.052632 303.763548 
L 166.736842 302.884994 
L 208.421053 305.440878 
L 250.105263 301.367621 
L 291.789474 308.236452 
L 333.473684 305.201255 
L 375.157895 312.229366 
L 416.842105 305.201255 
L 458.526316 300.888494 
L 500.210526 311.191358 
L 541.894737 307.198114 
L 583.578947 314.863612 
L 625.263158 307.437734 
L 666.947368 303.763548 
L 708.631579 306.559122 
L 750.315789 303.603808 
" clip-path="url(#p7ff644f58a)" style="fill: none; stroke: #000000; stroke-width: 1.5; stroke-linecap: square"/>
   </g>
   <g id="line2d_2">
    <path d="M 0 306 
L 41.684211 306 
L 83.368421 309.248116 
L 125.052632 306.570533 
L 166.736842 305.073456 
L 208.421053 303.943901 
L 250.105263 304.704263 
L 291.789474 303.022717 
L 333.473684 305.639781 
L 375.157895 305.418951 
L 416.842105 308.827171 
L 458.526316 307.015501 
L 500.210526 303.946155 
L 541.894737 307.585264 
L 583.578947 307.395135 
L 625.263158 311.156599 
L 666.947368 309.295722 
L 708.631579 306.526859 
L 750.315789 306.531871 
" clip-path="url(#p7ff644f58a)" style="fill: none; stroke: #000000; stroke-width: 1.5; stroke-linecap: square"/>
   </g>
   <g id="line2d_3">
    <path d="M 0 306 
L 41.684211 306 
L 83.368421 308.854078 
L 125.052632 306.909574 
L 166.736842 305.68096 
L 208.421053 304.686158 
L 250.105263 304.938788 
L 291.789474 303.791323 
L 333.473684 305.180056 
L 375.157895 305.186552 
L 416.842105 307.316137 
L 458.526316 306.682709 
L 500.210526 304.958549 
L 541.894737 306.804634 
L 583.578947 306.92079 
L 625.263158 309.26072 
L 666.947368 308.724704 
L 708.631579 307.269079 
L 750.315789 307.056184 
" clip-path="url(#p7ff644f58a)" style="fill: none; stroke: #000000; stroke-width: 1.5; stroke-linecap: square"/>
   </g>
   <g id="line2d_4">
    <path d="M 0 306 
L 41.684211 306 
L 83.368421 308.646665 
L 125.052632 307.043716 
L 166.736842 305.999933 
L 208.421053 305.144766 
L 250.105263 305.217645 
L 291.789474 304.345864 
L 333.473684 305.171204 
L 375.157895 305.177258 
L 416.842105 306.540376 
L 458.526316 306.290116 
L 500.210526 305.307839 
L 541.894737 306.353967 
L 583.578947 306.501297 
L 625.263158 307.939 
L 666.947368 307.853931 
L 708.631579 307.167042 
L 750.315789 307.065848 
" clip-path="url(#p7ff644f58a)" style="fill: none; stroke: #000000; stroke-width: 1.5; stroke-linecap: square"/>
   </g>
   <g id="line2d_5">
    <path d="M 0 306 
L 41.684211 306 
L 83.368421 308.541594 
L 125.052632 307.098739 
L 166.736842 306.153652 
L 208.421053 305.38201 
L 250.105263 305.394062 
L 291.789474 304.659137 
L 333.473684 305.252944 
L 375.157895 305.245021 
L 416.842105 306.245351 
L 458.526316 306.104321 
L 500.210526 305.434611 
L 541.894737 306.141676 
L 583.578947 306.266453 
L 625.263158 307.247697 
L 666.947368 307.268727 
L 708.631579 306.891281 
L 750.315789 306.856375 
" clip-path="url(#p7ff644f58a)" style="fill: none; stroke: #000000; stroke-width: 1.5; stroke-linecap: square"/>
   </g>
   <g id="line2d_6">
    <path d="M 0 306 
L 41.684211 306 
L 83.368421 308.488885 
L 125.052632 307.122945 
L 166.736842 306.227751 
L 208.421053 305.500034 
L 250.105263 305.489077 
L 291.789474 304.82104 
L 333.473684 305.315428 
L 375.157895 305.300435 
L 416.842105 306.136091 
L 458.526316 306.031535 
L 500.210526 305.493622 
L 541.894737 306.054661 
L 583.578947 306.161267 
L 625.263158 306.933569 
L 666.947368 306.976319 
L 708.631579 306.714976 
L 750.315789 306.702773 
" clip-path="url(#p7ff644f58a)" style="fill: none; stroke: #000000; stroke-width: 1.5; stroke-linecap: square"/>
   </g>
   <g id="line2d_7">
    <path d="M 0 306 
L 41.684211 306 
L 83.368421 308.462509 
L 125.052632 307.134194 
L 166.736842 306.263952 
L 208.421053 305.55855 
L 250.105263 305.537861 
L 291.789474 304.90266 
L 333.473684 305.351655 
L 375.157895 305.333459 
L 416.842105 306.092277 
L 458.526316 306.00222 
L 500.210526 305.523455 
L 541.894737 306.018375 
L 583.578947 306.115014 
L 625.263158 306.790971 
L 666.947368 306.838289 
L 708.631579 306.624405 
L 750.315789 306.620072 
" clip-path="url(#p7ff644f58a)" style="fill: none; stroke: #000000; stroke-width: 1.5; stroke-linecap: square"/>
   </g>
   <g id="line2d_8">
    <path d="M 0 306 
L 41.684211 306 
L 83.368421 308.449319 
L 125.052632 307.139602 
L 166.736842 306.281822 
L 208.421053 305.58764 
L 250.105263 305.562512 
L 291.789474 304.943548 
L 333.473684 305.370934 
L 375.157895 305.351254 
L 416.842105 306.073158 
L 458.526316 305.989532 
L 500.210526 305.538628 
L 541.894737 306.002308 
L 583.578947 306.093865 
L 625.263158 306.72405 
L 666.947368 306.772369 
L 708.631579 306.579631 
L 750.315789 306.578383 
" clip-path="url(#p7ff644f58a)" style="fill: none; stroke: #000000; stroke-width: 1.5; stroke-linecap: square"/>
   </g>
   <g id="line2d_9">
    <path d="M 0 306 
L 41.684211 306 
L 83.368421 308.442723 
L 125.052632 307.142252 
L 166.736842 306.290696 
L 208.421053 305.602138 
L 250.105263 305.574896 
L 291.789474 304.964001 
L 333.473684 305.380854 
L 375.157895 305.360464 
L 416.842105 306.0643 
L 458.526316 305.9837 
L 500.210526 305.546299 
L 541.894737 305.994822 
L 583.578947 306.08383 
L 625.263158 306.691766 
L 666.947368 306.740307 
L 708.631579 306.557514 
L 750.315789 306.557607 
" clip-path="url(#p7ff644f58a)" style="fill: none; stroke: #000000; stroke-width: 1.5; stroke-linecap: square"/>
   </g>
  </g>
 </g>
 <defs>
  <clipPath id="p7ff644f58a">
   <rect x="0" y="0" width="792" height="612"/>
  </clipPath>
 </defs>
</svg>
