<?xml version="1.0" encoding="utf-8" standalone="no"?>
<!DOCTYPE svg PUBLIC "-//W3C//DTD SVG 1.1//EN"
  "http://www.w3.org/Graphics/SVG/1.1/DTD/svg11.dtd">
<svg xmlns:xlink="http://www.w3.org/1999/xlink" width="792pt" height="612pt" viewBox="0 0 792 612" xmlns="http://www.w3.org/2000/svg" version="1.1">
 <metadata>
  <rdf:RDF xmlns:dc="http://purl.org/dc/elements/1.1/" xmlns:cc="http://creativecommons.org/ns#" xmlns:rdf="http://www.w3.org/1999/02/22-rdf-syntax-ns#">
   <cc:Work>
    <dc:type rdf:resource="http://purl.org/dc/dcmitype/StillImage"/>
    <dc:date>2023-01-30T17:15:29.380744</dc:date>
    <dc:format>image/svg+xml</dc:format>
    <dc:creator>
     <cc:Agent>
      <dc:title>Matplotlib v3.6.2, https://matplotlib.org/</dc:title>
     </cc:Agent>
    </dc:creator>
   </cc:Work>
  </rdf:RDF>
 </metadata>
 <defs>
  <style type="text/css">*{stroke-linejoin: round; stroke-linecap: butt}</style>
 </defs>
 <g id="figure_1">
  <g id="patch_1">
   <path d="M 0 612 
L 792 612 
L 792 0 
L 0 0 
z
" style="fill: #ffffff"/>
  </g>
  <g id="axes_1">
   <g id="line2d_1">
    <path d="M 0 306 
L 46.588235 309.430175 
L 93.176471 302.491873 
L 139.764706 304.90854 
L 186.352941 300.387381 
L 232.941176 298.127597 
L 279.529412 301.556491 
L 326.117647 302.180071 
L 372.705882 312.391936 
L 419.294118 301.478546 
L 465.882353 312.002287 
L 512.470588 301.088829 
L 559.058824 305.610191 
L 605.647059 313.872403 
L 652.235294 312.859488 
L 698.823529 305.298345 
L 745.411765 306.46777 
" clip-path="url(#pee2c35b34d)" style="fill: none; stroke: #000000; stroke-width: 1.5; stroke-linecap: square"/>
   </g>
   <g id="line2d_2">
    <path d="M 0 306 
L 46.588235 306 
L 93.176471 308.286836 
L 139.764706 304.975363 
L 186.352941 304.939724 
L 232.941176 302.589942 
L 279.529412 300.323054 
L 326.117647 300.944608 
L 372.705882 301.564744 
L 419.294118 306.991181 
L 465.882353 304.219128 
L 512.470588 308.129698 
L 559.058824 304.601589 
L 605.647059 305.11613 
L 652.235294 309.525857 
L 698.823529 311.214985 
L 745.411765 308.262991 
" clip-path="url(#pee2c35b34d)" style="fill: none; stroke: #000000; stroke-width: 1.5; stroke-linecap: square"/>
   </g>
   <g id="line2d_3">
    <path d="M 0 306 
L 46.588235 306 
L 93.176471 308.009405 
L 139.764706 305.509458 
L 186.352941 305.274784 
L 232.941176 303.535732 
L 279.529412 301.7251 
L 326.117647 301.670927 
L 372.705882 301.829991 
L 419.294118 305.066659 
L 465.882353 303.981752 
L 512.470588 306.384205 
L 559.058824 304.808487 
L 605.647059 305.045923 
L 652.235294 307.65199 
L 698.823529 309.185938 
L 745.411765 308.042874 
" clip-path="url(#pee2c35b34d)" style="fill: none; stroke: #000000; stroke-width: 1.5; stroke-linecap: square"/>
   </g>
   <g id="line2d_4">
    <path d="M 0 306 
L 46.588235 306 
L 93.176471 307.863373 
L 139.764706 305.755205 
L 186.352941 305.485789 
L 232.941176 304.085982 
L 279.529412 302.619194 
L 326.117647 302.378571 
L 372.705882 302.336461 
L 419.294118 304.362241 
L 465.882353 303.804873 
L 512.470588 305.336954 
L 559.058824 304.564439 
L 605.647059 304.750363 
L 652.235294 306.34273 
L 698.823529 307.463007 
L 745.411765 307.095646 
" clip-path="url(#pee2c35b34d)" style="fill: none; stroke: #000000; stroke-width: 1.5; stroke-linecap: square"/>
   </g>
   <g id="line2d_5">
    <path d="M 0 306 
L 46.588235 306 
L 93.176471 307.789396 
L 139.764706 305.8685 
L 186.352941 305.596479 
L 232.941176 304.366657 
L 279.529412 303.089068 
L 326.117647 302.809343 
L 372.705882 302.704887 
L 419.294118 304.189687 
L 465.882353 303.801405 
L 512.470588 304.909208 
L 559.058824 304.418673 
L 605.647059 304.565006 
L 652.235294 305.664502 
L 698.823529 306.485607 
L 745.411765 306.354223 
" clip-path="url(#pee2c35b34d)" style="fill: none; stroke: #000000; stroke-width: 1.5; stroke-linecap: square"/>
   </g>
   <g id="line2d_6">
    <path d="M 0 306 
L 46.588235 306 
L 93.176471 307.752286 
L 139.764706 305.922286 
L 186.352941 305.65215 
L 232.941176 304.505922 
L 279.529412 303.324242 
L 326.117647 303.037718 
L 372.705882 302.913569 
L 419.294118 304.158238 
L 465.882353 303.835073 
L 512.470588 304.748586 
L 559.058824 304.36581 
L 605.647059 304.488328 
L 652.235294 305.363373 
L 698.823529 306.02854 
L 745.411765 305.966624 
" clip-path="url(#pee2c35b34d)" style="fill: none; stroke: #000000; stroke-width: 1.5; stroke-linecap: square"/>
   </g>
   <g id="line2d_7">
    <path d="M 0 306 
L 46.588235 306 
L 93.176471 307.733716 
L 139.764706 305.948414 
L 186.352941 305.679937 
L 232.941176 304.574959 
L 279.529412 303.441126 
L 326.117647 303.154069 
L 372.705882 303.022888 
L 419.294118 304.156391 
L 465.882353 303.86174 
L 512.470588 304.684564 
L 559.058824 304.347919 
L 605.647059 304.458129 
L 652.235294 305.229433 
L 698.823529 305.818888 
L 745.411765 305.780806 
" clip-path="url(#pee2c35b34d)" style="fill: none; stroke: #000000; stroke-width: 1.5; stroke-linecap: square"/>
   </g>
   <g id="line2d_8">
    <path d="M 0 306 
L 46.588235 306 
L 93.176471 307.724429 
L 139.764706 305.96128 
L 186.352941 305.693803 
L 232.941176 304.609288 
L 279.529412 303.499297 
L 326.117647 303.212638 
L 372.705882 303.078618 
L 419.294118 304.158875 
L 465.882353 303.877571 
L 512.470588 304.656877 
L 559.058824 304.341481 
L 605.647059 304.44554 
L 652.235294 305.167432 
L 698.823529 305.7201 
L 745.411765 305.691546 
" clip-path="url(#pee2c35b34d)" style="fill: none; stroke: #000000; stroke-width: 1.5; stroke-linecap: square"/>
   </g>
   <g id="line2d_9">
    <path d="M 0 306 
L 46.588235 306 
L 93.176471 307.719785 
L 139.764706 305.967663 
L 186.352941 305.700727 
L 232.941176 304.626399 
L 279.529412 303.528302 
L 326.117647 303.242001 
L 372.705882 303.106726 
L 419.294118 304.160956 
L 465.882353 303.886111 
L 512.470588 304.644135 
L 559.058824 304.338928 
L 605.647059 304.439925 
L 652.235294 305.137763 
L 698.823529 305.672364 
L 745.411765 305.648026 
" clip-path="url(#pee2c35b34d)" style="fill: none; stroke: #000000; stroke-width: 1.5; stroke-linecap: square"/>
   </g>
  </g>
 </g>
 <defs>
  <clipPath id="pee2c35b34d">
   <rect x="0" y="0" width="792" height="612"/>
  </clipPath>
 </defs>
</svg>
