<?xml version="1.0" encoding="utf-8" standalone="no"?>
<!DOCTYPE svg PUBLIC "-//W3C//DTD SVG 1.1//EN"
  "http://www.w3.org/Graphics/SVG/1.1/DTD/svg11.dtd">
<svg xmlns:xlink="http://www.w3.org/1999/xlink" width="792pt" height="612pt" viewBox="0 0 792 612" xmlns="http://www.w3.org/2000/svg" version="1.1">
 <metadata>
  <rdf:RDF xmlns:dc="http://purl.org/dc/elements/1.1/" xmlns:cc="http://creativecommons.org/ns#" xmlns:rdf="http://www.w3.org/1999/02/22-rdf-syntax-ns#">
   <cc:Work>
    <dc:type rdf:resource="http://purl.org/dc/dcmitype/StillImage"/>
    <dc:date>2023-01-30T17:15:28.389020</dc:date>
    <dc:format>image/svg+xml</dc:format>
    <dc:creator>
     <cc:Agent>
      <dc:title>Matplotlib v3.6.2, https://matplotlib.org/</dc:title>
     </cc:Agent>
    </dc:creator>
   </cc:Work>
  </rdf:RDF>
 </metadata>
 <defs>
  <style type="text/css">*{stroke-linejoin: round; stroke-linecap: butt}</style>
 </defs>
 <g id="figure_1">
  <g id="patch_1">
   <path d="M 0 612 
L 792 612 
L 792 0 
L 0 0 
z
" style="fill: #ffffff"/>
  </g>
  <g id="axes_1">
   <g id="line2d_1">
    <path d="M 0 459 
L 46.588235 460.715159 
L 93.176471 458.883057 
L 139.764706 457.245868 
L 186.352941 448.827653 
L 232.941176 437.031575 
L 279.529412 430.386198 
L 326.117647 424.68301 
L 372.705882 434.232234 
L 419.294118 427.475188 
L 465.882353 436.448237 
L 512.470588 429.105054 
L 559.058824 428.52287 
L 605.647059 440.299529 
L 652.235294 450.581072 
L 698.823529 449.528988 
L 745.411765 450.230367 
" clip-path="url(#p7cc04c52a2)" style="fill: none; stroke: #000000; stroke-width: 1.5; stroke-linecap: square"/>
   </g>
   <g id="line2d_2">
    <path d="M 0 459 
L 46.588235 459 
L 93.176471 460.143439 
L 139.764706 459.467771 
L 186.352941 458.719338 
L 232.941176 453.61334 
L 279.529412 445.186375 
L 326.117647 437.722486 
L 372.705882 431.171549 
L 419.294118 432.653146 
L 465.882353 429.991529 
L 512.470588 433.174717 
L 559.058824 431.084279 
L 605.647059 429.76361 
L 652.235294 435.034806 
L 698.823529 442.842908 
L 745.411765 446.23407 
" clip-path="url(#p7cc04c52a2)" style="fill: none; stroke: #000000; stroke-width: 1.5; stroke-linecap: square"/>
   </g>
   <g id="line2d_3">
    <path d="M 0 459 
L 46.588235 459 
L 93.176471 460.004717 
L 139.764706 459.531836 
L 186.352941 459.095797 
L 232.941176 455.565409 
L 279.529412 449.357238 
L 326.117647 443.25528 
L 372.705882 437.444517 
L 419.294118 436.459918 
L 465.882353 433.741317 
L 512.470588 434.551895 
L 559.058824 432.930438 
L 605.647059 431.624529 
L 652.235294 434.183624 
L 698.823529 439.008293 
L 745.411765 442.10013 
" clip-path="url(#p7cc04c52a2)" style="fill: none; stroke: #000000; stroke-width: 1.5; stroke-linecap: square"/>
   </g>
   <g id="line2d_4">
    <path d="M 0 459 
L 46.588235 459 
L 93.176471 459.931698 
L 139.764706 459.550741 
L 186.352941 459.189431 
L 232.941176 456.619244 
L 279.529412 451.794764 
L 326.117647 446.941383 
L 372.705882 442.21123 
L 419.294118 440.602855 
L 465.882353 438.06266 
L 512.470588 437.76091 
L 559.058824 436.185684 
L 605.647059 434.822244 
L 652.235294 435.777742 
L 698.823529 438.319531 
L 745.411765 440.220522 
" clip-path="url(#p7cc04c52a2)" style="fill: none; stroke: #000000; stroke-width: 1.5; stroke-linecap: square"/>
   </g>
   <g id="line2d_5">
    <path d="M 0 459 
L 46.588235 459 
L 93.176471 459.894708 
L 139.764706 459.556158 
L 186.352941 459.232874 
L 232.941176 457.131978 
L 279.529412 453.013757 
L 326.117647 448.878572 
L 372.705882 444.854767 
L 419.294118 443.22537 
L 465.882353 440.966675 
L 512.470588 440.356127 
L 559.058824 438.910081 
L 605.647059 437.633067 
L 652.235294 437.947932 
L 698.823529 439.388166 
L 745.411765 440.5096 
" clip-path="url(#p7cc04c52a2)" style="fill: none; stroke: #000000; stroke-width: 1.5; stroke-linecap: square"/>
   </g>
   <g id="line2d_6">
    <path d="M 0 459 
L 46.588235 459 
L 93.176471 459.876153 
L 139.764706 459.557802 
L 186.352941 459.253353 
L 232.941176 457.379797 
L 279.529412 453.607954 
L 326.117647 449.839273 
L 372.705882 446.190867 
L 419.294118 444.619222 
L 465.882353 442.548754 
L 512.470588 441.866121 
L 559.058824 440.529972 
L 605.647059 439.346379 
L 652.235294 439.435236 
L 698.823529 440.42337 
L 745.411765 441.195 
" clip-path="url(#p7cc04c52a2)" style="fill: none; stroke: #000000; stroke-width: 1.5; stroke-linecap: square"/>
   </g>
   <g id="line2d_7">
    <path d="M 0 459 
L 46.588235 459 
L 93.176471 459.866867 
L 139.764706 459.558354 
L 186.352941 459.263236 
L 232.941176 457.500963 
L 279.529412 453.899277 
L 326.117647 450.313302 
L 372.705882 446.854733 
L 419.294118 445.326327 
L 465.882353 443.359239 
L 512.470588 442.660364 
L 559.058824 441.389806 
L 605.647059 440.264968 
L 652.235294 440.267799 
L 698.823529 441.063885 
L 745.411765 441.682844 
" clip-path="url(#p7cc04c52a2)" style="fill: none; stroke: #000000; stroke-width: 1.5; stroke-linecap: square"/>
   </g>
   <g id="line2d_8">
    <path d="M 0 459 
L 46.588235 459 
L 93.176471 459.862224 
L 139.764706 459.558563 
L 186.352941 459.268084 
L 232.941176 457.560788 
L 279.529412 454.043259 
L 326.117647 450.548197 
L 372.705882 447.184625 
L 419.294118 445.68098 
L 465.882353 443.76743 
L 512.470588 443.06504 
L 559.058824 441.829598 
L 605.647059 440.736781 
L 652.235294 440.703301 
L 698.823529 441.412451 
L 745.411765 441.961685 
" clip-path="url(#p7cc04c52a2)" style="fill: none; stroke: #000000; stroke-width: 1.5; stroke-linecap: square"/>
   </g>
   <g id="line2d_9">
    <path d="M 0 459 
L 46.588235 459 
L 93.176471 459.859902 
L 139.764706 459.55865 
L 186.352941 459.270483 
L 232.941176 457.590502 
L 279.529412 454.114802 
L 326.117647 450.665049 
L 372.705882 447.348938 
L 419.294118 445.858398 
L 465.882353 443.972013 
L 512.470588 443.268959 
L 559.058824 442.0516 
L 605.647059 440.97539 
L 652.235294 440.925394 
L 698.823529 441.593375 
L 745.411765 442.109482 
" clip-path="url(#p7cc04c52a2)" style="fill: none; stroke: #000000; stroke-width: 1.5; stroke-linecap: square"/>
   </g>
  </g>
 </g>
 <defs>
  <clipPath id="p7cc04c52a2">
   <rect x="0" y="0" width="792" height="612"/>
  </clipPath>
 </defs>
</svg>
