<?xml version="1.0" encoding="utf-8" standalone="no"?>
<!DOCTYPE svg PUBLIC "-//W3C//DTD SVG 1.1//EN"
  "http://www.w3.org/Graphics/SVG/1.1/DTD/svg11.dtd">
<svg xmlns:xlink="http://www.w3.org/1999/xlink" width="792pt" height="612pt" viewBox="0 0 792 612" xmlns="http://www.w3.org/2000/svg" version="1.1">
 <metadata>
  <rdf:RDF xmlns:dc="http://purl.org/dc/elements/1.1/" xmlns:cc="http://creativecommons.org/ns#" xmlns:rdf="http://www.w3.org/1999/02/22-rdf-syntax-ns#">
   <cc:Work>
    <dc:type rdf:resource="http://purl.org/dc/dcmitype/StillImage"/>
    <dc:date>2022-12-19T20:29:04.757566</dc:date>
    <dc:format>image/svg+xml</dc:format>
    <dc:creator>
     <cc:Agent>
      <dc:title>Matplotlib v3.6.2, https://matplotlib.org/</dc:title>
     </cc:Agent>
    </dc:creator>
   </cc:Work>
  </rdf:RDF>
 </metadata>
 <defs>
  <style type="text/css">*{stroke-linejoin: round; stroke-linecap: butt}</style>
 </defs>
 <g id="figure_1">
  <g id="patch_1">
   <path d="M 0 612 
L 792 612 
L 792 0 
L 0 0 
z
" style="fill: #ffffff"/>
  </g>
  <g id="axes_1">
   <g id="line2d_1">
    <path d="M 0 459 
L 3.155378 455.622376 
L 6.310757 456.535227 
L 9.466135 436.469791 
L 12.621514 432.646557 
L 15.776892 433.374526 
L 18.932271 436.196593 
L 22.087649 436.287657 
L 25.243028 437.107316 
L 28.398406 437.107316 
L 31.553785 436.743006 
L 34.709163 440.022757 
L 37.864542 441.025307 
L 41.01992 443.669189 
L 44.175299 439.293744 
L 47.330677 429.917889 
L 50.486056 424.920824 
L 53.641434 427.282134 
L 56.796813 422.924204 
L 59.952191 426.282905 
L 63.10757 428.826988 
L 66.262948 430.099738 
L 69.418327 429.463306 
L 72.573705 431.645818 
L 75.729084 430.281596 
L 78.884462 429.645132 
L 82.039841 430.5544 
L 85.195219 432.737546 
L 88.350598 434.557749 
L 91.505976 435.103963 
L 94.661355 452.245118 
L 97.816733 450.693628 
L 100.972112 435.103963 
L 104.12749 432.100668 
L 107.282869 432.373603 
L 110.438247 426.918743 
L 113.593625 427.009587 
L 116.749004 431.372934 
L 119.904382 434.193645 
L 123.059761 435.832354 
L 126.215139 429.645132 
L 129.370518 433.829572 
L 132.525896 431.281977 
L 135.681275 431.736784 
L 138.836653 430.918171 
L 141.992032 430.5544 
L 145.14741 428.917883 
L 148.302789 426.646226 
L 151.458167 426.010442 
L 154.613546 430.463463 
L 157.768924 437.927115 
L 160.924303 424.013104 
L 164.079681 428.09991 
L 167.23506 428.645204 
L 173.545817 419.116348 
L 176.701195 415.042646 
L 179.856574 418.935155 
L 183.011952 431.918721 
L 186.167331 433.465531 
L 189.322709 432.100668 
L 192.478088 433.829572 
L 195.633466 438.747049 
L 198.788845 436.378724 
L 201.944223 438.838161 
L 205.099602 440.022757 
L 208.25498 454.253153 
L 211.410359 451.514983 
L 214.565737 452.427657 
L 217.721116 452.701469 
L 220.876494 452.427657 
L 224.031873 449.872325 
L 227.187251 450.876147 
L 230.342629 450.146086 
L 233.498008 446.861423 
L 236.653386 452.975286 
L 239.808765 442.210358 
L 242.964143 439.111506 
L 246.119522 436.196593 
L 249.2749 432.373603 
L 252.430279 437.198398 
L 255.585657 429.372396 
L 258.741036 426.010442 
L 261.896414 428.09991 
L 265.051793 423.831593 
L 268.207171 426.646226 
L 271.36255 430.64534 
L 274.517928 427.372988 
L 277.673307 421.382297 
L 280.828685 415.947333 
L 283.984064 444.125139 
L 287.139442 459 
L 290.294821 461.647375 
L 293.450199 464.538186 
L 296.605578 464.720764 
L 299.760956 471.110979 
L 302.916335 471.323986 
L 306.071713 468.463604 
L 309.227092 464.812053 
L 312.38247 466.424821 
L 315.537849 465.116348 
L 318.693227 464.051313 
L 321.848606 465.542363 
L 325.003984 466.303103 
L 328.159363 465.75537 
L 331.314741 465.390215 
L 334.47012 462.77327 
L 337.625498 463.077566 
L 340.780876 463.229714 
L 343.936255 462.590692 
L 347.091633 461.28222 
L 350.247012 460.856205 
L 353.40239 455.348526 
L 356.557769 450.237342 
L 359.713147 452.518927 
L 362.868526 448.777347 
L 366.023904 449.781073 
L 369.179283 448.777347 
L 372.334661 449.781073 
L 375.49004 454.161874 
L 378.645418 450.237342 
L 381.800797 446.496531 
L 384.956175 447.40879 
L 388.111554 452.975286 
L 391.266932 454.070595 
L 394.422311 461.099642 
L 397.577689 462.408115 
L 400.733068 462.438544 
L 403.888446 463.381862 
L 407.043825 462.803699 
L 410.199203 455.622376 
L 413.354582 454.344432 
L 416.50996 442.483864 
L 419.665339 452.792741 
L 422.820717 452.792741 
L 425.976096 457.356809 
L 429.131474 452.975286 
L 432.286853 454.709552 
L 435.442231 446.587752 
L 438.59761 448.594862 
L 441.752988 447.773719 
L 444.908367 455.074678 
L 448.063745 457.082947 
L 451.219124 456.99166 
L 454.374502 454.435711 
L 457.52988 456.900373 
L 460.685259 457.082947 
L 463.840637 452.245118 
L 466.996016 459 
L 470.151394 457.448097 
L 473.306773 462.681981 
L 476.462151 466.972554 
L 479.61753 476.740453 
L 482.772908 475.797136 
L 485.928287 475.310263 
L 489.083665 475.340692 
L 495.394422 471.445704 
L 498.549801 471.232697 
L 501.705179 474.03222 
L 504.860558 474.062649 
L 508.015936 476.801313 
L 511.171315 475.218974 
L 514.326693 476.466587 
L 520.63745 475.553699 
L 523.792829 475.736277 
L 526.948207 474.610382 
L 530.103586 473.362768 
L 533.258964 472.632458 
L 536.414343 474.03222 
L 539.569721 477.531623 
L 542.7251 476.831742 
L 545.880478 477.592482 
L 549.035857 479.722554 
L 552.191235 479.479117 
L 555.346614 478.900955 
L 558.501992 480.392005 
L 561.657371 480.148568 
L 564.812749 482.582936 
L 567.968127 484.773866 
L 571.123506 484.773866 
L 574.278884 486.325776 
L 577.434263 486.934368 
L 580.589641 486.995227 
L 583.74502 486.264916 
L 586.900398 483.465394 
L 590.055777 481.883055 
L 593.211155 484.956444 
L 596.366534 486.386635 
L 599.521912 487.147375 
L 602.677291 486.477924 
L 605.832669 486.508353 
L 608.988048 488.486277 
L 612.143426 491.863962 
L 615.298805 490.49463 
L 618.454183 491.742243 
L 621.609562 493.537589 
L 624.76494 493.659308 
L 627.920319 492.137828 
L 631.075697 494.420048 
L 634.231076 496.458831 
L 637.386454 492.837709 
L 640.541833 490.859785 
L 643.697211 492.107399 
L 646.85259 496.854415 
L 650.007968 499.866945 
L 653.163347 500.566826 
L 656.318725 502.636038 
L 659.474104 503.427208 
L 662.629482 501.236277 
L 665.784861 501.297136 
L 668.940239 498.862768 
L 672.095618 499.197494 
L 675.250996 500.718974 
L 678.406375 499.410501 
L 681.561753 504.431384 
L 684.717131 502.544749 
L 687.87251 501.144988 
L 691.027888 501.144988 
L 694.183267 501.905728 
L 697.338645 497.371718 
L 700.494024 498.284606 
L 703.649402 498.284606 
L 706.804781 497.25 
L 709.960159 498.954057 
L 713.115538 498.680191 
L 716.270916 498.832339 
L 719.426295 496.763126 
L 722.581673 497.523866 
L 725.737052 494.785203 
L 728.89243 495.454654 
L 732.047809 495.424224 
L 735.203187 497.28043 
L 738.358566 496.732697 
L 741.513944 495.880668 
L 744.669323 494.693914 
L 747.824701 494.480907 
L 750.98008 492.71599 
L 754.135458 493.568019 
L 757.290837 493.263723 
L 760.446215 495.637232 
L 763.601594 495.332936 
L 766.756972 493.385442 
L 769.912351 495.363365 
L 773.067729 495.819809 
L 776.223108 499.197494 
L 779.378486 499.745227 
L 782.533865 498.893198 
L 785.689243 499.106205 
L 788.844622 498.193317 
L 788.844622 498.193317 
" clip-path="url(#pbc2a5aff19)" style="fill: none; stroke: #000000; stroke-width: 1.5; stroke-linecap: square"/>
   </g>
   <g id="line2d_2">
    <path d="M 0 459 
L 3.155378 459 
L 6.310757 456.748228 
L 9.466135 456.626513 
L 12.621514 445.87017 
L 15.776892 439.040964 
L 18.932271 436.161902 
L 25.243028 436.233733 
L 28.398406 436.627647 
L 31.553785 436.831224 
L 34.709163 436.748363 
L 37.864542 438.392264 
L 41.01992 439.725065 
L 44.175299 441.717005 
L 47.330677 440.511322 
L 53.641434 430.032346 
L 56.796813 428.637719 
L 59.952191 425.752603 
L 63.10757 425.990854 
L 69.418327 428.715421 
L 72.573705 429.070094 
L 75.729084 430.361117 
L 78.884462 430.331876 
L 82.039841 429.993123 
L 85.195219 430.288728 
L 88.350598 431.525604 
L 91.505976 433.052633 
L 94.661355 434.087989 
L 97.816733 443.205046 
L 100.972112 446.985919 
L 104.12749 441.0514 
L 107.282869 436.578718 
L 110.438247 434.479214 
L 113.593625 430.685639 
L 116.749004 428.832335 
L 119.904382 430.095102 
L 123.059761 432.108516 
L 126.215139 433.940932 
L 129.370518 431.781732 
L 132.525896 432.808911 
L 135.681275 432.043229 
L 138.836653 431.899457 
L 145.14741 430.983796 
L 148.302789 429.940352 
L 151.458167 428.274894 
L 154.613546 427.135348 
L 157.768924 428.792413 
L 160.924303 433.370243 
L 164.079681 428.673362 
L 167.23506 428.3811 
L 170.390438 428.509407 
L 173.545817 426.15967 
L 176.701195 422.621092 
L 179.856574 418.807617 
L 183.011952 418.848827 
L 186.167331 425.365171 
L 189.322709 429.431576 
L 192.478088 430.773728 
L 195.633466 432.311522 
L 198.788845 435.557408 
L 201.944223 436.001971 
L 205.099602 437.466654 
L 208.25498 438.785995 
L 211.410359 446.559849 
L 214.565737 449.072551 
L 217.721116 450.789897 
L 220.876494 451.782695 
L 224.031873 452.132016 
L 227.187251 451.028606 
L 230.342629 450.975997 
L 233.498008 450.580897 
L 236.653386 448.706499 
L 239.808765 450.843579 
L 242.964143 446.505832 
L 246.119522 442.78098 
L 249.2749 439.455977 
L 252.430279 435.879132 
L 255.585657 436.511933 
L 261.896414 429.412681 
L 265.051793 428.70758 
L 268.207171 426.232685 
L 271.36255 426.415049 
L 274.517928 428.518674 
L 277.673307 427.935983 
L 280.828685 424.626408 
L 283.984064 420.257082 
L 287.139442 432.208412 
L 290.294821 445.653405 
L 293.450199 456.380577 
L 296.605578 461.364558 
L 299.760956 463.072434 
L 302.916335 467.136158 
L 306.071713 469.278878 
L 309.227092 468.918019 
L 312.38247 466.886158 
L 315.537849 466.670048 
L 318.693227 465.9 
L 321.848606 464.974702 
L 325.003984 465.260143 
L 328.159363 465.772196 
L 331.314741 465.752864 
L 334.47012 465.565513 
L 337.625498 464.165394 
L 340.780876 463.614916 
L 343.936255 463.418616 
L 347.091633 463.00179 
L 350.247012 462.133652 
L 353.40239 461.484248 
L 356.557769 459.6179 
L 359.713147 455.490283 
L 362.868526 453.969652 
L 366.023904 451.329235 
L 372.334661 449.60358 
L 375.49004 449.660836 
L 378.645418 451.890783 
L 381.800797 451.054016 
L 384.956175 448.767686 
L 388.111554 448.078196 
L 391.266932 450.534731 
L 394.422311 452.310975 
L 397.577689 458.837112 
L 400.733068 460.689618 
L 407.043825 462.492243 
L 410.199203 462.663604 
L 413.354582 460.274224 
L 416.50996 458.586158 
L 419.665339 450.50968 
L 422.820717 451.626649 
L 425.976096 452.177471 
L 429.131474 454.743559 
L 432.286853 453.821819 
L 435.442231 454.234897 
L 438.59761 450.393014 
L 444.908367 448.638515 
L 448.063745 451.860719 
L 451.219124 454.480098 
L 454.374502 455.735139 
L 457.52988 455.088281 
L 460.685259 455.998611 
L 463.840637 456.561359 
L 466.996016 454.410296 
L 470.151394 456.727107 
L 473.306773 457.092254 
L 476.462151 460.531504 
L 479.61753 463.768974 
L 482.772908 470.292482 
L 485.928287 473.079117 
L 489.083665 474.227924 
L 492.239044 474.820764 
L 495.394422 474.135203 
L 498.549801 472.815871 
L 501.705179 472.04105 
L 504.860558 473.050477 
L 508.015936 473.551313 
L 511.171315 475.178282 
L 514.326693 475.198449 
L 517.482072 475.834726 
L 520.63745 475.94284 
L 523.792829 475.756325 
L 526.948207 475.755131 
L 530.103586 475.18389 
L 536.414343 473.444033 
L 539.569721 473.7358 
L 542.7251 475.6358 
L 549.035857 476.9179 
L 552.191235 478.328043 
L 555.346614 478.913126 
L 558.501992 478.9179 
L 561.657371 479.670167 
L 564.812749 479.92136 
L 567.968127 481.262053 
L 571.123506 483.033532 
L 574.278884 483.91778 
L 577.434263 485.134726 
L 580.589641 486.049165 
L 583.74502 486.538067 
L 586.900398 486.413007 
L 593.211155 483.413007 
L 596.366534 484.185084 
L 599.521912 485.289021 
L 602.677291 486.219809 
L 608.988048 486.427208 
L 612.143426 487.461098 
L 615.298805 489.678998 
L 618.454183 490.103699 
L 621.609562 490.936277 
L 624.76494 492.250955 
L 627.920319 492.9679 
L 631.075697 492.563962 
L 634.231076 493.507518 
L 637.386454 494.998807 
L 640.541833 493.920167 
L 643.697211 492.390692 
L 646.85259 492.249761 
L 650.007968 494.558592 
L 653.163347 497.22494 
L 656.318725 498.912411 
L 659.474104 500.790334 
L 662.629482 502.122434 
L 665.784861 501.695823 
L 668.940239 501.516945 
L 672.095618 500.203103 
L 675.250996 499.704893 
L 678.406375 500.213604 
L 681.561753 499.809785 
L 684.717131 502.124105 
L 687.87251 502.332697 
L 691.027888 501.738663 
L 694.183267 501.441527 
L 697.338645 501.679594 
L 700.494024 499.522076 
L 703.649402 498.898568 
L 706.804781 498.589379 
L 709.960159 497.905609 
L 713.115538 498.422792 
L 719.426295 498.684964 
L 722.581673 497.713962 
L 725.737052 497.619212 
L 728.89243 496.195346 
L 732.047809 495.819451 
L 735.203187 495.618258 
L 738.358566 496.446062 
L 741.513944 496.585561 
L 744.669323 496.227327 
L 747.824701 495.456563 
L 750.98008 494.962768 
L 754.135458 493.835322 
L 760.446215 493.476611 
L 763.601594 494.553699 
L 766.756972 494.940573 
L 769.912351 494.158115 
L 776.223108 495.293556 
L 779.378486 497.258234 
L 782.533865 498.513842 
L 788.844622 498.917184 
L 788.844622 498.917184 
" clip-path="url(#pbc2a5aff19)" style="fill: none; stroke: #000000; stroke-width: 1.5; stroke-linecap: square"/>
   </g>
   <g id="line2d_3">
    <path d="M 0 459 
L 3.155378 459 
L 6.310757 457.02141 
L 9.466135 456.801129 
L 12.621514 448.855813 
L 15.776892 443.083746 
L 18.932271 439.831708 
L 22.087649 438.663491 
L 25.243028 437.921111 
L 34.709163 437.274009 
L 41.01992 438.960382 
L 44.175299 440.350025 
L 47.330677 440.038908 
L 50.486056 437.060543 
L 53.641434 433.461855 
L 56.796813 431.6183 
L 59.952191 429.031007 
L 63.10757 428.214183 
L 66.262948 428.389274 
L 69.418327 428.886412 
L 72.573705 429.047645 
L 75.729084 429.803114 
L 78.884462 429.935419 
L 82.039841 429.84183 
L 85.195219 430.043421 
L 88.350598 430.823956 
L 91.505976 431.909775 
L 94.661355 432.835248 
L 97.816733 438.528525 
L 100.972112 442.113258 
L 104.12749 440.071043 
L 107.282869 437.740719 
L 110.438247 436.178936 
L 113.593625 433.465151 
L 116.749004 431.571105 
L 119.904382 431.514524 
L 123.059761 432.304468 
L 126.215139 433.342261 
L 129.370518 432.258298 
L 132.525896 432.723258 
L 135.681275 432.301897 
L 138.836653 432.135221 
L 145.14741 431.411902 
L 148.302789 430.654504 
L 151.458167 429.452463 
L 154.613546 428.433516 
L 157.768924 429.026074 
L 160.924303 431.63746 
L 164.079681 429.399237 
L 167.23506 429.019875 
L 170.390438 428.907 
L 173.545817 427.407729 
L 176.701195 424.957661 
L 179.856574 422.033117 
L 183.011952 421.108302 
L 186.167331 424.271494 
L 189.322709 426.96378 
L 195.633466 430.041978 
L 198.788845 432.601038 
L 201.944223 433.718334 
L 208.25498 436.645705 
L 211.410359 441.817045 
L 214.565737 444.687937 
L 217.721116 446.982179 
L 220.876494 448.68468 
L 224.031873 449.813764 
L 227.187251 449.866343 
L 230.342629 450.203396 
L 233.498008 450.222562 
L 236.653386 449.255182 
L 239.808765 450.367096 
L 242.964143 447.988879 
L 249.2749 442.695521 
L 252.430279 439.665517 
L 255.585657 438.940909 
L 258.741036 436.123935 
L 261.896414 433.126611 
L 265.051793 431.626773 
L 268.207171 429.308986 
L 271.36255 428.49901 
L 274.517928 429.102567 
L 277.673307 428.570109 
L 280.828685 426.429333 
L 283.984064 423.316004 
L 287.139442 429.396318 
L 296.605578 455.095717 
L 299.760956 459.770611 
L 302.916335 463.116244 
L 306.071713 465.542745 
L 309.227092 466.420474 
L 312.38247 465.968706 
L 315.537849 466.122676 
L 318.693227 465.848446 
L 321.848606 465.340287 
L 325.003984 465.417858 
L 328.159363 465.697657 
L 331.314741 465.736755 
L 334.47012 465.659127 
L 337.625498 464.82391 
L 340.780876 464.317101 
L 347.091633 463.585291 
L 353.40239 462.294407 
L 362.868526 458.165097 
L 366.023904 455.37774 
L 369.179283 453.706666 
L 372.334661 452.233582 
L 375.49004 451.482087 
L 378.645418 452.236218 
L 381.800797 451.617395 
L 384.956175 450.080911 
L 388.111554 449.271887 
L 394.422311 451.409166 
L 397.577689 455.471825 
L 400.733068 459.167892 
L 407.043825 461.087225 
L 410.199203 461.597693 
L 413.354582 460.508268 
L 416.50996 459.614095 
L 419.665339 455.45482 
L 422.820717 454.679696 
L 425.976096 454.130461 
L 429.131474 455.079071 
L 432.286853 454.466011 
L 435.442231 454.546778 
L 438.59761 452.214199 
L 444.908367 450.153053 
L 448.063745 451.582663 
L 451.219124 453.179565 
L 454.374502 454.281888 
L 457.52988 454.306602 
L 460.685259 455.050759 
L 463.840637 455.647638 
L 466.996016 454.648597 
L 470.151394 455.942025 
L 473.306773 456.388485 
L 476.462151 459.469486 
L 479.61753 461.67687 
L 482.772908 466.111575 
L 485.928287 468.969346 
L 489.083665 470.850045 
L 492.239044 472.188078 
L 495.394422 472.561881 
L 501.705179 471.96736 
L 504.860558 472.590178 
L 508.015936 473.040503 
L 511.171315 474.163269 
L 514.326693 474.491841 
L 517.482072 475.092879 
L 520.63745 475.390025 
L 526.948207 475.554197 
L 530.103586 475.286533 
L 536.414343 474.104369 
L 539.569721 474.081769 
L 542.7251 475.094725 
L 549.035857 476.195902 
L 552.191235 477.238586 
L 555.346614 477.901078 
L 558.501992 478.199493 
L 561.657371 478.845789 
L 564.812749 479.233026 
L 567.968127 480.221217 
L 571.123506 481.564688 
L 574.278884 482.515225 
L 577.434263 483.643473 
L 580.589641 484.621509 
L 583.74502 485.332413 
L 586.900398 485.621195 
L 590.055777 485.00061 
L 593.211155 484.092498 
L 596.366534 484.354874 
L 602.677291 485.60924 
L 608.988048 486.066917 
L 612.143426 486.784828 
L 615.298805 488.285928 
L 618.454183 488.941929 
L 621.609562 489.770126 
L 624.76494 490.883657 
L 627.920319 491.705049 
L 631.075697 491.837784 
L 634.231076 492.60264 
L 637.386454 493.743801 
L 640.541833 493.489178 
L 643.697211 492.729357 
L 646.85259 492.555403 
L 650.007968 493.826578 
L 653.163347 495.61037 
L 656.318725 497.078265 
L 659.474104 498.724623 
L 662.629482 500.11914 
L 668.940239 500.715553 
L 672.095618 500.181064 
L 675.250996 499.899484 
L 678.406375 500.147616 
L 681.561753 499.940073 
L 684.717131 501.267047 
L 687.87251 501.648268 
L 694.183267 501.415188 
L 697.338645 501.570118 
L 700.494024 500.34103 
L 703.649402 499.7369 
L 706.804781 499.308911 
L 709.960159 498.699684 
L 716.270916 498.740088 
L 719.426295 498.764277 
L 722.581673 498.175742 
L 725.737052 497.982889 
L 728.89243 497.039493 
L 732.047809 496.570761 
L 735.203187 496.224602 
L 738.358566 496.5278 
L 741.513944 496.582745 
L 744.669323 496.371065 
L 750.98008 495.460924 
L 754.135458 494.650555 
L 760.446215 494.011752 
L 763.601594 494.484034 
L 766.756972 494.728827 
L 769.912351 494.329102 
L 776.223108 494.976829 
L 779.378486 496.218101 
L 782.533865 497.2561 
L 788.844622 498.141952 
L 788.844622 498.141952 
" clip-path="url(#pbc2a5aff19)" style="fill: none; stroke: #000000; stroke-width: 1.5; stroke-linecap: square"/>
   </g>
   <g id="line2d_4">
    <path d="M 0 459 
L 3.155378 459 
L 6.310757 457.165205 
L 9.466135 456.91796 
L 12.621514 450.406435 
L 15.776892 445.526017 
L 18.932271 442.532876 
L 22.087649 441.097589 
L 25.243028 440.076854 
L 28.398406 439.478493 
L 34.709163 438.594496 
L 37.864542 438.854172 
L 41.01992 439.240118 
L 44.175299 440.012882 
L 47.330677 439.889271 
L 50.486056 438.195488 
L 53.641434 435.963236 
L 56.796813 434.516862 
L 59.952191 432.598676 
L 63.10757 431.560646 
L 66.262948 431.113835 
L 72.573705 430.707957 
L 75.729084 430.859526 
L 85.195219 430.580875 
L 88.350598 430.926629 
L 94.661355 432.083049 
L 97.816733 435.300916 
L 100.972112 437.756874 
L 104.12749 437.319797 
L 107.282869 436.474343 
L 110.438247 435.806587 
L 113.593625 434.385195 
L 116.749004 433.207236 
L 119.904382 432.914086 
L 123.059761 433.116393 
L 126.215139 433.548111 
L 129.370518 432.922216 
L 132.525896 433.064522 
L 135.681275 432.777453 
L 141.992032 432.331694 
L 145.14741 432.040691 
L 148.302789 431.537196 
L 154.613546 430.001663 
L 157.768924 430.077119 
L 160.924303 431.334429 
L 164.079681 430.167119 
L 167.23506 429.837684 
L 170.390438 429.647022 
L 173.545817 428.717568 
L 176.701195 427.180154 
L 179.856574 425.236075 
L 183.011952 424.225975 
L 189.322709 426.724142 
L 192.478088 427.577479 
L 195.633466 428.570693 
L 198.788845 430.179644 
L 201.944223 431.156383 
L 208.25498 433.600029 
L 211.410359 436.894929 
L 214.565737 439.234146 
L 217.721116 441.347526 
L 220.876494 443.166205 
L 224.031873 444.650448 
L 230.342629 446.359852 
L 233.498008 446.972343 
L 236.653386 446.964428 
L 239.808765 447.933818 
L 242.964143 447.029976 
L 246.119522 445.77487 
L 249.2749 444.254496 
L 252.430279 442.366049 
L 255.585657 441.550537 
L 258.741036 439.610176 
L 261.896414 437.436058 
L 265.051793 435.951802 
L 268.207171 434.018166 
L 271.36255 432.84305 
L 274.517928 432.497561 
L 277.673307 431.686911 
L 280.828685 430.049259 
L 283.984064 427.799347 
L 287.139442 430.400219 
L 290.294821 434.957324 
L 293.450199 440.060218 
L 296.605578 445.737772 
L 299.760956 450.599608 
L 302.916335 457.75285 
L 306.071713 460.6231 
L 309.227092 461.880406 
L 312.38247 462.351455 
L 315.537849 463.005732 
L 318.693227 463.346722 
L 321.848606 463.463286 
L 331.314741 464.456992 
L 334.47012 464.6113 
L 340.780876 464.129268 
L 347.091633 463.77566 
L 353.40239 462.989459 
L 356.557769 462.164841 
L 359.713147 461.200872 
L 369.179283 459.133567 
L 372.334661 457.724063 
L 375.49004 456.472091 
L 378.645418 456.121261 
L 381.800797 455.20305 
L 384.956175 453.836602 
L 388.111554 452.815763 
L 391.266932 452.837385 
L 394.422311 453.025558 
L 397.577689 454.971678 
L 400.733068 457.234921 
L 403.888446 459.046922 
L 407.043825 459.731671 
L 410.199203 460.21691 
L 416.50996 459.453697 
L 419.665339 457.493873 
L 422.820717 456.732531 
L 425.976096 456.089541 
L 429.131474 456.27647 
L 432.286853 455.734809 
L 435.442231 455.557047 
L 438.59761 454.11484 
L 444.908367 452.34037 
L 448.063745 452.766213 
L 451.219124 453.447499 
L 454.374502 454.006628 
L 457.52988 454.074326 
L 463.840637 454.937417 
L 466.996016 454.511203 
L 470.151394 455.231104 
L 473.306773 455.589237 
L 476.462151 457.901945 
L 479.61753 459.966658 
L 482.772908 462.648321 
L 485.928287 464.753426 
L 489.083665 466.445644 
L 492.239044 467.872327 
L 495.394422 468.760723 
L 501.705179 469.52418 
L 508.015936 470.862142 
L 511.171315 471.815819 
L 520.63745 473.524783 
L 526.948207 474.169591 
L 530.103586 474.249804 
L 539.569721 473.926094 
L 542.7251 474.513474 
L 549.035857 475.337252 
L 552.191235 476.048297 
L 555.346614 476.607348 
L 558.501992 476.985635 
L 561.657371 477.541385 
L 564.812749 477.969791 
L 567.968127 478.719878 
L 571.123506 479.699171 
L 577.434263 481.460975 
L 580.589641 482.344266 
L 583.74502 483.090649 
L 586.900398 483.602218 
L 590.055777 483.585537 
L 593.211155 483.318748 
L 596.366534 483.586526 
L 605.832669 484.860691 
L 608.988048 485.130605 
L 612.143426 485.671795 
L 615.298805 486.667376 
L 621.609562 488.00401 
L 624.76494 488.895643 
L 627.920319 489.664742 
L 631.075697 490.069155 
L 634.231076 490.774536 
L 637.386454 491.693794 
L 640.541833 491.887528 
L 643.697211 491.732326 
L 646.85259 491.801533 
L 650.007968 492.617483 
L 662.629482 497.301482 
L 668.940239 498.48638 
L 675.250996 498.666269 
L 678.406375 499.001842 
L 681.561753 499.074646 
L 684.717131 499.937801 
L 687.87251 500.362733 
L 697.338645 500.829374 
L 700.494024 500.286103 
L 709.960159 499.327904 
L 719.426295 499.133738 
L 722.581673 498.759698 
L 725.737052 498.56556 
L 728.89243 497.964794 
L 735.203187 497.227116 
L 741.513944 497.158447 
L 744.669323 496.95828 
L 750.98008 496.261049 
L 754.135458 495.692555 
L 760.446215 495.012359 
L 766.756972 495.139195 
L 769.912351 494.85523 
L 776.223108 495.072738 
L 782.533865 496.367408 
L 788.844622 497.136034 
L 788.844622 497.136034 
" clip-path="url(#pbc2a5aff19)" style="fill: none; stroke: #000000; stroke-width: 1.5; stroke-linecap: square"/>
   </g>
   <g id="line2d_5">
    <path d="M 0 459 
L 3.155378 459 
L 6.310757 457.238048 
L 9.466135 456.983208 
L 12.621514 451.166021 
L 15.776892 446.789666 
L 18.932271 444.04076 
L 22.087649 442.608329 
L 25.243028 441.558653 
L 28.398406 440.876157 
L 34.709163 439.85077 
L 37.864542 439.87285 
L 41.01992 440.014375 
L 44.175299 440.44593 
L 47.330677 440.314449 
L 50.486056 439.162811 
L 53.641434 437.626871 
L 56.796813 436.538556 
L 59.952191 435.136536 
L 63.10757 434.243009 
L 66.262948 433.706203 
L 72.573705 432.980381 
L 75.729084 432.853775 
L 85.195219 432.173482 
L 88.350598 432.224833 
L 94.661355 432.674664 
L 97.816733 434.414896 
L 100.972112 435.854138 
L 104.12749 435.788086 
L 110.438247 435.195293 
L 116.749004 433.829496 
L 119.904382 433.617683 
L 123.059761 433.667169 
L 126.215139 433.852625 
L 129.370518 433.492942 
L 132.525896 433.521634 
L 148.302789 432.468097 
L 154.613546 431.474108 
L 157.768924 431.389102 
L 160.924303 431.937953 
L 164.079681 431.272185 
L 170.390438 430.808257 
L 173.545817 430.223699 
L 176.701195 429.293094 
L 179.856574 428.099238 
L 183.011952 427.332575 
L 195.633466 428.962882 
L 198.788845 429.77748 
L 201.944223 430.327079 
L 208.25498 431.767137 
L 211.410359 433.62915 
L 217.721116 436.557596 
L 220.876494 437.902192 
L 224.031873 439.111817 
L 230.342629 440.91444 
L 233.498008 441.684417 
L 236.653386 442.117232 
L 239.808765 443.022068 
L 242.964143 442.955081 
L 246.119522 442.634503 
L 249.2749 442.098893 
L 252.430279 441.291835 
L 255.585657 440.955985 
L 258.741036 439.994196 
L 261.896414 438.832903 
L 265.051793 437.941697 
L 268.207171 436.767096 
L 271.36255 435.925017 
L 274.517928 435.486958 
L 277.673307 434.811507 
L 280.828685 433.692132 
L 283.984064 432.211283 
L 287.139442 433.203343 
L 290.294821 435.348929 
L 293.450199 437.977079 
L 296.605578 441.1096 
L 299.760956 444.023619 
L 302.916335 448.29368 
L 306.071713 452.269303 
L 309.227092 455.201896 
L 312.38247 456.978539 
L 315.537849 459.004233 
L 318.693227 459.516981 
L 325.003984 460.371243 
L 331.314741 461.279438 
L 334.47012 461.625429 
L 347.091633 462.01764 
L 353.40239 461.873073 
L 356.557769 461.536787 
L 362.868526 460.735089 
L 369.179283 459.949395 
L 375.49004 459.28871 
L 378.645418 459.134708 
L 381.800797 458.65473 
L 384.956175 457.654398 
L 388.111554 456.808914 
L 391.266932 456.497077 
L 394.422311 456.302842 
L 397.577689 457.059715 
L 403.888446 459.007515 
L 410.199203 459.662117 
L 416.50996 459.342724 
L 419.665339 458.568233 
L 425.976096 457.649422 
L 429.131474 457.627572 
L 432.286853 457.242111 
L 435.442231 457.033398 
L 438.59761 456.166136 
L 444.908367 454.89363 
L 448.063745 454.913856 
L 454.374502 455.265641 
L 457.52988 455.202374 
L 463.840637 455.506037 
L 466.996016 455.24325 
L 470.151394 455.566501 
L 473.306773 455.732704 
L 476.462151 456.933444 
L 479.61753 459.036037 
L 482.772908 460.515296 
L 485.928287 461.793779 
L 492.239044 463.958492 
L 495.394422 464.745358 
L 504.860558 466.482274 
L 508.015936 467.112306 
L 511.171315 467.919168 
L 523.792829 470.246979 
L 526.948207 470.705887 
L 530.103586 471.032648 
L 539.569721 471.573887 
L 545.880478 472.472438 
L 549.035857 472.902264 
L 555.346614 473.978757 
L 561.657371 474.899864 
L 564.812749 475.343072 
L 567.968127 475.952736 
L 583.74502 479.552339 
L 586.900398 480.119687 
L 590.055777 480.406587 
L 593.211155 480.53723 
L 599.521912 481.37551 
L 605.832669 482.253481 
L 608.988048 482.614145 
L 612.143426 483.109867 
L 615.298805 483.847485 
L 621.609562 485.030929 
L 627.920319 486.417351 
L 631.075697 486.903091 
L 634.231076 487.53915 
L 637.386454 488.292105 
L 640.541833 488.681732 
L 646.85259 489.154353 
L 650.007968 489.806174 
L 659.474104 492.430783 
L 662.629482 493.358129 
L 668.940239 494.643918 
L 681.561753 496.132741 
L 684.717131 496.830507 
L 687.87251 497.313472 
L 697.338645 498.277676 
L 703.649402 498.225843 
L 722.581673 498.210666 
L 725.737052 498.160815 
L 732.047809 497.691774 
L 735.203187 497.510757 
L 741.513944 497.443396 
L 747.824701 497.107555 
L 750.98008 496.895051 
L 757.290837 496.309326 
L 760.446215 496.061228 
L 766.756972 495.978005 
L 769.912351 495.766349 
L 776.223108 495.746872 
L 785.689243 496.564351 
L 788.844622 496.779494 
L 788.844622 496.779494 
" clip-path="url(#pbc2a5aff19)" style="fill: none; stroke: #000000; stroke-width: 1.5; stroke-linecap: square"/>
   </g>
   <g id="line2d_6">
    <path d="M 0 459 
L 3.155378 459 
L 6.310757 457.27459 
L 9.466135 457.017384 
L 12.621514 451.537836 
L 15.776892 447.420968 
L 18.932271 444.816807 
L 22.087649 443.418844 
L 25.243028 442.386047 
L 28.398406 441.692609 
L 34.709163 440.647577 
L 41.01992 440.625852 
L 44.175299 440.909523 
L 47.330677 440.76615 
L 50.486056 439.845325 
L 53.641434 438.62935 
L 56.796813 437.739835 
L 59.952191 436.618097 
L 63.10757 435.861133 
L 66.262948 435.361511 
L 72.573705 434.625984 
L 78.884462 434.164404 
L 85.195219 433.676127 
L 88.350598 433.619492 
L 94.661355 433.758369 
L 97.816733 434.817415 
L 100.972112 435.713693 
L 104.12749 435.679704 
L 110.438247 435.3138 
L 116.749004 434.445419 
L 119.904382 434.28399 
L 126.215139 434.359263 
L 129.370518 434.118537 
L 132.525896 434.103915 
L 148.302789 433.325482 
L 154.613546 432.664566 
L 157.768924 432.559136 
L 160.924303 432.814629 
L 164.079681 432.397155 
L 170.390438 432.027861 
L 173.545817 431.644604 
L 176.701195 431.060893 
L 179.856574 430.317158 
L 183.011952 429.791147 
L 192.478088 430.146109 
L 195.633466 430.313621 
L 198.788845 430.695759 
L 205.099602 431.307869 
L 208.25498 431.699432 
L 211.410359 432.709149 
L 224.031873 435.969532 
L 233.498008 437.788149 
L 236.653386 438.188059 
L 239.808765 438.838502 
L 242.964143 438.98669 
L 246.119522 438.992168 
L 249.2749 438.869614 
L 252.430279 438.585132 
L 255.585657 438.524517 
L 258.741036 438.124656 
L 261.896414 437.59583 
L 265.051793 437.181927 
L 268.207171 436.600371 
L 271.36255 436.167419 
L 274.517928 435.927622 
L 277.673307 435.556362 
L 280.828685 434.94131 
L 283.984064 434.117184 
L 287.139442 434.549463 
L 290.294821 435.603841 
L 293.450199 436.954109 
L 299.760956 440.234522 
L 306.071713 444.899289 
L 309.227092 446.725657 
L 312.38247 448.002112 
L 315.537849 449.430904 
L 318.693227 450.629225 
L 321.848606 451.638501 
L 331.314741 455.08345 
L 334.47012 456.072238 
L 347.091633 458.426969 
L 353.40239 458.993011 
L 356.557769 458.837328 
L 359.713147 458.470041 
L 362.868526 458.215973 
L 372.334661 457.099497 
L 375.49004 456.787374 
L 378.645418 456.675438 
L 381.800797 456.400996 
L 388.111554 455.613628 
L 394.422311 455.440316 
L 397.577689 455.860058 
L 410.199203 458.167341 
L 416.50996 457.90476 
L 419.665339 457.252308 
L 425.976096 456.888016 
L 429.131474 456.911397 
L 435.442231 456.663689 
L 441.752988 455.915348 
L 444.908367 455.571217 
L 451.219124 455.619925 
L 457.52988 455.634641 
L 463.840637 455.757845 
L 466.996016 455.613232 
L 473.306773 455.837882 
L 476.462151 456.44699 
L 479.61753 457.577769 
L 482.772908 459.302701 
L 489.083665 460.659555 
L 495.394422 461.803209 
L 508.015936 463.556897 
L 514.326693 464.597481 
L 520.63745 465.573603 
L 530.103586 466.769127 
L 542.7251 468.009078 
L 552.191235 469.251511 
L 567.968127 471.440075 
L 586.900398 474.822685 
L 599.521912 476.34183 
L 605.832669 477.221645 
L 612.143426 478.087666 
L 618.454183 479.184124 
L 634.231076 481.928791 
L 637.386454 482.551536 
L 643.697211 483.333052 
L 646.85259 483.711491 
L 653.163347 484.945164 
L 659.474104 486.345924 
L 662.629482 487.079145 
L 668.940239 488.273936 
L 681.561753 490.102187 
L 687.87251 491.230332 
L 697.338645 492.491508 
L 725.737052 494.304803 
L 735.203187 494.431655 
L 744.669323 494.712986 
L 754.135458 494.633257 
L 763.601594 494.59602 
L 779.378486 494.882339 
L 788.844622 495.433949 
L 788.844622 495.433949 
" clip-path="url(#pbc2a5aff19)" style="fill: none; stroke: #000000; stroke-width: 1.5; stroke-linecap: square"/>
   </g>
   <g id="line2d_7">
    <path d="M 0 459 
L 3.155378 459 
L 6.310757 457.292875 
L 9.466135 457.034835 
L 12.621514 451.721264 
L 15.776892 447.735012 
L 18.932271 445.207742 
L 22.087649 443.834433 
L 25.243028 442.817471 
L 28.398406 442.126365 
L 34.709163 441.085466 
L 41.01992 440.989406 
L 44.175299 441.208878 
L 47.330677 441.060924 
L 50.486056 440.244826 
L 53.641434 439.177118 
L 56.796813 438.386683 
L 59.952191 437.402854 
L 63.10757 436.72426 
L 66.262948 436.260828 
L 72.573705 435.559873 
L 78.884462 435.092862 
L 85.195219 434.615 
L 91.505976 434.527949 
L 94.661355 434.553777 
L 97.816733 435.327789 
L 100.972112 435.985462 
L 104.12749 435.948473 
L 110.438247 435.652404 
L 116.749004 434.983641 
L 119.904382 434.845653 
L 132.525896 434.638515 
L 148.302789 433.998216 
L 154.613546 433.500324 
L 157.768924 433.401905 
L 160.924303 433.546841 
L 164.079681 433.244163 
L 173.545817 432.663795 
L 183.011952 431.344561 
L 195.633466 431.51254 
L 208.25498 432.275939 
L 214.565737 433.406675 
L 224.031873 434.935752 
L 233.498008 436.14456 
L 236.653386 436.430265 
L 239.808765 436.868888 
L 246.119522 437.065103 
L 255.585657 436.927993 
L 265.051793 436.243262 
L 271.36255 435.691 
L 277.673307 435.357088 
L 280.828685 435.006014 
L 283.984064 434.528554 
L 287.139442 434.767244 
L 290.294821 435.367379 
L 293.450199 436.146617 
L 299.760956 438.07495 
L 306.071713 440.852081 
L 309.227092 441.983477 
L 328.159363 446.904452 
L 334.47012 448.403153 
L 347.091633 450.445735 
L 353.40239 451.131777 
L 356.557769 451.230676 
L 394.422311 451.04249 
L 400.733068 451.777841 
L 410.199203 453.03936 
L 416.50996 453.126476 
L 419.665339 452.884764 
L 432.286853 452.981718 
L 435.442231 453.020702 
L 444.908367 452.666705 
L 460.685259 453.034806 
L 473.306773 453.331005 
L 476.462151 453.703264 
L 479.61753 454.353359 
L 485.928287 456.834291 
L 492.239044 459.026351 
L 498.549801 459.612868 
L 508.015936 460.490112 
L 520.63745 461.825536 
L 533.258964 462.930347 
L 539.569721 463.382821 
L 567.968127 466.265252 
L 590.055777 469.04024 
L 596.366534 469.660939 
L 618.454183 472.316967 
L 653.163347 476.995285 
L 672.095618 479.988347 
L 684.717131 481.74645 
L 694.183267 483.006389 
L 700.494024 483.716296 
L 719.426295 485.517692 
L 732.047809 486.402931 
L 754.135458 487.65699 
L 776.223108 488.645809 
L 788.844622 489.528385 
L 788.844622 489.528385 
" clip-path="url(#pbc2a5aff19)" style="fill: none; stroke: #000000; stroke-width: 1.5; stroke-linecap: square"/>
   </g>
   <g id="line2d_8">
    <path d="M 0 459 
L 3.155378 459 
L 6.310757 457.30202 
L 9.466135 457.043648 
L 12.621514 451.8123 
L 15.776892 447.891449 
L 18.932271 445.403595 
L 22.087649 444.044323 
L 25.243028 443.037013 
L 28.398406 442.348945 
L 34.709163 441.313547 
L 41.01992 441.185164 
L 44.175299 441.375319 
L 47.330677 441.225756 
L 50.486056 440.459328 
L 53.641434 439.462314 
L 56.796813 438.720593 
L 59.952191 437.804017 
L 63.10757 437.165944 
L 69.418327 436.387149 
L 72.573705 436.048633 
L 88.350598 435.026397 
L 94.661355 435.011406 
L 100.972112 436.213576 
L 107.282869 436.031299 
L 110.438247 435.906364 
L 116.749004 435.32542 
L 123.059761 435.167724 
L 126.215139 435.188086 
L 129.370518 435.021455 
L 135.681275 434.879097 
L 148.302789 434.415568 
L 157.768924 433.903241 
L 160.924303 434.005327 
L 167.23506 433.615452 
L 170.390438 433.494467 
L 176.701195 432.926483 
L 183.011952 432.193074 
L 195.633466 432.248672 
L 208.25498 432.767697 
L 214.565737 433.592972 
L 224.031873 434.71894 
L 239.808765 436.167307 
L 246.119522 436.335737 
L 255.585657 436.276816 
L 265.051793 435.823947 
L 271.36255 435.449437 
L 277.673307 435.224348 
L 283.984064 434.652679 
L 287.139442 434.815325 
L 290.294821 435.227578 
L 293.450199 435.76472 
L 299.760956 437.100154 
L 306.071713 439.026222 
L 309.227092 439.821563 
L 331.314741 443.95294 
L 334.47012 444.49234 
L 347.091633 446.090363 
L 353.40239 446.672879 
L 359.713147 446.857349 
L 369.179283 447.012716 
L 378.645418 447.184679 
L 394.422311 447.403774 
L 403.888446 448.279613 
L 410.199203 448.931627 
L 416.50996 449.101985 
L 419.665339 449.008537 
L 441.752988 449.308458 
L 448.063745 449.36672 
L 463.840637 449.838599 
L 470.151394 449.993811 
L 473.306773 450.093785 
L 476.462151 450.360648 
L 479.61753 450.794972 
L 485.928287 452.379284 
L 495.394422 454.477085 
L 504.860558 456.195837 
L 511.171315 457.546303 
L 517.482072 458.887409 
L 523.792829 459.394789 
L 536.414343 460.134335 
L 549.035857 460.952989 
L 574.278884 462.924283 
L 590.055777 464.324536 
L 599.521912 465.061232 
L 621.609562 467.043947 
L 643.697211 469.206083 
L 650.007968 469.813154 
L 678.406375 473.007373 
L 709.960159 476.057683 
L 725.737052 477.326825 
L 757.290837 479.295181 
L 776.223108 480.344353 
L 788.844622 481.202444 
L 788.844622 481.202444 
" clip-path="url(#pbc2a5aff19)" style="fill: none; stroke: #000000; stroke-width: 1.5; stroke-linecap: square"/>
   </g>
   <g id="line2d_9">
    <path d="M 0 459 
L 3.155378 459 
L 6.310757 457.306592 
L 9.466135 457.048076 
L 12.621514 451.857642 
L 15.776892 447.969498 
L 18.932271 445.501575 
L 22.087649 444.149728 
L 25.243028 443.147661 
L 28.398406 442.461566 
L 34.709163 441.429757 
L 41.01992 441.286433 
L 44.175299 441.462654 
L 47.330677 441.312489 
L 50.486056 440.570221 
L 53.641434 439.607638 
L 56.796813 438.889974 
L 59.952191 438.006458 
L 63.10757 437.388817 
L 69.418327 436.628199 
L 72.573705 436.297508 
L 88.350598 435.286492 
L 94.661355 435.253811 
L 100.972112 436.350112 
L 107.282869 436.173767 
L 110.438247 436.054848 
L 116.749004 435.514948 
L 123.059761 435.360544 
L 126.215139 435.373627 
L 129.370518 435.218139 
L 135.681275 435.07985 
L 148.302789 434.645351 
L 157.768924 434.174011 
L 160.924303 434.257969 
L 167.23506 433.903712 
L 173.545817 433.582523 
L 183.011952 432.630714 
L 195.633466 432.645799 
L 208.25498 433.063027 
L 217.721116 434.077723 
L 227.187251 434.954037 
L 239.808765 435.922172 
L 246.119522 436.070131 
L 255.585657 436.03325 
L 265.051793 435.670985 
L 271.36255 435.368864 
L 277.673307 435.187867 
L 283.984064 434.725187 
L 287.139442 434.855542 
L 293.450199 435.619847 
L 299.760956 436.696322 
L 306.071713 438.247628 
L 309.227092 438.891025 
L 334.47012 442.70987 
L 350.247012 444.307893 
L 353.40239 444.548327 
L 362.868526 444.831465 
L 391.266932 445.317038 
L 394.422311 445.413118 
L 403.888446 446.139093 
L 410.199203 446.674539 
L 416.50996 446.849689 
L 422.820717 446.866413 
L 470.151394 447.872114 
L 473.306773 447.965069 
L 476.462151 448.178466 
L 479.61753 448.512766 
L 489.083665 450.251896 
L 495.394422 451.283157 
L 508.015936 453.080719 
L 517.482072 454.65222 
L 530.103586 456.58175 
L 542.7251 458.300753 
L 545.880478 458.782032 
L 549.035857 459.092526 
L 577.434263 460.82049 
L 593.211155 461.835682 
L 615.298805 463.295115 
L 650.007968 465.868011 
L 694.183267 469.571369 
L 706.804781 470.467386 
L 738.358566 472.420203 
L 754.135458 473.247112 
L 782.533865 474.694266 
L 788.844622 475.047246 
L 788.844622 475.047246 
" clip-path="url(#pbc2a5aff19)" style="fill: none; stroke: #000000; stroke-width: 1.5; stroke-linecap: square"/>
   </g>
  </g>
 </g>
 <defs>
  <clipPath id="pbc2a5aff19">
   <rect x="0" y="0" width="792" height="612"/>
  </clipPath>
 </defs>
</svg>
