<?xml version="1.0" encoding="utf-8" standalone="no"?>
<!DOCTYPE svg PUBLIC "-//W3C//DTD SVG 1.1//EN"
  "http://www.w3.org/Graphics/SVG/1.1/DTD/svg11.dtd">
<svg xmlns:xlink="http://www.w3.org/1999/xlink" width="792pt" height="612pt" viewBox="0 0 792 612" xmlns="http://www.w3.org/2000/svg" version="1.1">
 <metadata>
  <rdf:RDF xmlns:dc="http://purl.org/dc/elements/1.1/" xmlns:cc="http://creativecommons.org/ns#" xmlns:rdf="http://www.w3.org/1999/02/22-rdf-syntax-ns#">
   <cc:Work>
    <dc:type rdf:resource="http://purl.org/dc/dcmitype/StillImage"/>
    <dc:date>2022-12-26T20:26:46.117236</dc:date>
    <dc:format>image/svg+xml</dc:format>
    <dc:creator>
     <cc:Agent>
      <dc:title>Matplotlib v3.6.2, https://matplotlib.org/</dc:title>
     </cc:Agent>
    </dc:creator>
   </cc:Work>
  </rdf:RDF>
 </metadata>
 <defs>
  <style type="text/css">*{stroke-linejoin: round; stroke-linecap: butt}</style>
 </defs>
 <g id="figure_1">
  <g id="patch_1">
   <path d="M 0 612 
L 792 612 
L 792 0 
L 0 0 
z
" style="fill: #ffffff"/>
  </g>
  <g id="axes_1">
   <g id="line2d_1">
    <path d="M 0 306 
L 12.375 306.31441 
L 24.75 302.070085 
L 37.125 311.894467 
L 49.5 311.265856 
L 61.875 296.6492 
L 74.25 300.891304 
L 86.625 309.222588 
L 99 318.25545 
L 111.375 313.779982 
L 123.75 307.807839 
L 136.125 311.344435 
L 148.5 308.043638 
L 160.875 300.341257 
L 173.25 306.157205 
L 185.625 299.712675 
L 198 306.864627 
L 210.375 309.929915 
L 222.75 302.620225 
L 235.125 318.961672 
L 247.5 301.12705 
L 259.875 302.384448 
L 272.25 306 
L 284.625 307.965038 
L 297 294.293925 
L 309.375 308.358032 
L 321.75 306 
L 334.125 303.327579 
L 346.5 310.401443 
L 358.875 305.292578 
L 371.25 306.393013 
L 383.625 300.655565 
L 396 307.965038 
L 408.375 298.927024 
L 420.75 307.729239 
L 433.125 305.921397 
L 445.5 310.794367 
L 457.875 304.585163 
L 470.25 303.799165 
L 482.625 302.9346 
L 495 305.449782 
L 507.375 301.441385 
L 519.75 308.200835 
L 532.125 305.213976 
L 544.5 312.130184 
L 556.875 305.213976 
L 569.25 300.969885 
L 581.625 311.108696 
L 594 307.179033 
L 606.375 314.722527 
L 618.75 307.414837 
L 631.125 303.799165 
L 643.5 306.550218 
L 655.875 303.641968 
L 668.25 301.677144 
L 680.625 306.707422 
L 693 309.222588 
L 705.375 303.484773 
L 717.75 311.108696 
L 730.125 306.707422 
L 742.5 306.31441 
L 754.875 299.791245 
L 767.25 301.834318 
L 779.625 305.213976 
" clip-path="url(#pbc85fb38e8)" style="fill: none; stroke: #000000; stroke-width: 1.5; stroke-linecap: square"/>
   </g>
   <g id="line2d_2">
    <path d="M 0 306 
L 12.375 306 
L 24.75 306.209607 
L 37.125 303.844078 
L 49.5 308.137956 
L 61.875 309.752453 
L 74.25 303.095533 
L 86.625 301.984689 
L 99 305.617776 
L 111.375 311.96318 
L 123.75 312.886276 
L 136.125 310.358606 
L 148.5 310.850454 
L 160.875 309.4408 
L 173.25 304.898027 
L 185.625 305.53794 
L 198 302.606355 
L 210.375 304.713082 
L 222.75 307.314043 
L 235.125 304.956901 
L 247.5 311.977354 
L 259.875 306.538813 
L 272.25 304.465566 
L 284.625 305.23247 
L 297 306.614949 
L 309.375 300.427536 
L 321.75 304.389432 
L 334.125 305.201338 
L 346.5 304.233773 
L 358.875 307.335928 
L 371.25 306.319959 
L 383.625 306.357256 
L 396 303.491862 
L 408.375 305.755253 
L 420.75 302.322191 
L 433.125 305.02903 
L 445.5 305.480298 
L 457.875 308.138265 
L 470.25 306.360339 
L 482.625 305.07465 
L 495 304.00907 
L 507.375 304.724487 
L 519.75 303.087784 
L 532.125 305.64521 
L 544.5 305.428205 
L 556.875 308.782148 
L 569.25 306.999329 
L 581.625 303.978863 
L 594 307.560017 
L 606.375 307.372917 
L 618.75 311.07449 
L 631.125 309.243238 
L 643.5 306.518469 
L 655.875 306.5234 
L 668.25 305.079582 
L 680.625 303.379668 
L 693 305.034886 
L 705.375 307.132797 
L 717.75 305.286721 
L 730.125 308.205151 
L 742.5 307.461998 
L 754.875 306.887745 
L 767.25 303.331586 
L 779.625 302.58324 
" clip-path="url(#pbc85fb38e8)" style="fill: none; stroke: #000000; stroke-width: 1.5; stroke-linecap: square"/>
   </g>
   <g id="line2d_3">
    <path d="M 0 306 
L 12.375 306 
L 24.75 306.184177 
L 37.125 304.320076 
L 49.5 307.278327 
L 61.875 308.697163 
L 74.25 304.663367 
L 86.625 303.451335 
L 99 305.254385 
L 111.375 309.240266 
L 123.75 310.613052 
L 136.125 309.772918 
L 148.5 310.240535 
L 160.875 309.589926 
L 173.25 306.859647 
L 185.625 306.652764 
L 198 304.611838 
L 210.375 305.272653 
L 222.75 306.640948 
L 235.125 305.463898 
L 247.5 309.427559 
L 259.875 306.984727 
L 272.25 305.64388 
L 284.625 305.754054 
L 297 306.400199 
L 309.375 302.825257 
L 321.75 304.439487 
L 334.125 304.894469 
L 346.5 304.426319 
L 358.875 306.17918 
L 371.25 305.925188 
L 383.625 306.062481 
L 396 304.479769 
L 408.375 305.501844 
L 420.75 303.563167 
L 433.125 304.789225 
L 445.5 305.105842 
L 457.875 306.783188 
L 470.25 306.141928 
L 482.625 305.45321 
L 495 304.709725 
L 507.375 304.939302 
L 519.75 303.906772 
L 532.125 305.166992 
L 544.5 305.18292 
L 556.875 307.219945 
L 569.25 306.632323 
L 581.625 304.967476 
L 594 306.77834 
L 606.375 306.894798 
L 618.75 309.20621 
L 631.125 308.681185 
L 643.5 307.248867 
L 655.875 307.039363 
L 668.25 306.043195 
L 680.625 304.761893 
L 693 305.336056 
L 705.375 306.478762 
L 717.75 305.604174 
L 730.125 307.219884 
L 742.5 307.071503 
L 754.875 306.843076 
L 767.25 304.771172 
L 779.625 303.911933 
" clip-path="url(#pbc85fb38e8)" style="fill: none; stroke: #000000; stroke-width: 1.5; stroke-linecap: square"/>
   </g>
   <g id="line2d_4">
    <path d="M 0 306 
L 12.375 306 
L 24.75 306.170792 
L 37.125 304.561337 
L 49.5 306.895014 
L 61.875 308.095047 
L 74.25 305.277302 
L 86.625 304.284142 
L 99 305.331787 
L 111.375 307.936606 
L 123.75 309.066193 
L 136.125 308.831033 
L 148.5 309.28809 
L 160.875 309.066843 
L 173.25 307.543926 
L 185.625 307.305581 
L 198 306.016842 
L 210.375 306.15921 
L 222.75 306.786916 
L 235.125 306.098372 
L 247.5 308.212225 
L 259.875 307.054487 
L 272.25 306.294653 
L 284.625 306.246885 
L 297 306.524593 
L 309.375 304.551831 
L 321.75 305.164177 
L 334.125 305.298406 
L 346.5 304.982363 
L 358.875 305.850306 
L 371.25 305.761076 
L 383.625 305.862089 
L 396 305.03038 
L 408.375 305.498523 
L 420.75 304.448176 
L 433.125 304.973732 
L 445.5 305.120781 
L 457.875 306.023235 
L 470.25 305.799384 
L 482.625 305.482951 
L 495 305.073562 
L 507.375 305.125426 
L 519.75 304.531538 
L 532.125 305.11558 
L 544.5 305.12741 
L 556.875 306.244255 
L 569.25 306.083374 
L 581.625 305.266492 
L 594 306.203193 
L 606.375 306.35865 
L 618.75 307.692723 
L 631.125 307.651502 
L 643.5 307.02912 
L 655.875 306.956309 
L 668.25 306.429765 
L 680.625 305.670863 
L 693 305.834999 
L 705.375 306.383313 
L 717.75 305.919096 
L 730.125 306.748042 
L 742.5 306.743688 
L 754.875 306.672838 
L 767.25 305.574385 
L 779.625 304.976445 
" clip-path="url(#pbc85fb38e8)" style="fill: none; stroke: #000000; stroke-width: 1.5; stroke-linecap: square"/>
   </g>
   <g id="line2d_5">
    <path d="M 0 306 
L 12.375 306 
L 24.75 306.164011 
L 37.125 304.679505 
L 49.5 306.724179 
L 61.875 307.796415 
L 74.25 305.51369 
L 86.625 304.669978 
L 99 305.425688 
L 111.375 307.393114 
L 123.75 308.307963 
L 136.125 308.24041 
L 148.5 308.638969 
L 160.875 308.565855 
L 173.25 307.594407 
L 185.625 307.43042 
L 198 306.576275 
L 210.375 306.607325 
L 222.75 306.95651 
L 235.125 306.510656 
L 247.5 307.766709 
L 259.875 307.109004 
L 272.25 306.648405 
L 284.625 306.586097 
L 297 306.716895 
L 309.375 305.551818 
L 321.75 305.812083 
L 334.125 305.829343 
L 346.5 305.601569 
L 358.875 306.035103 
L 371.25 305.968528 
L 383.625 306.006335 
L 396 305.532589 
L 408.375 305.746749 
L 420.75 305.149234 
L 433.125 305.374206 
L 445.5 305.421721 
L 457.875 305.886496 
L 470.25 305.774321 
L 482.625 305.604605 
L 495 305.375849 
L 507.375 305.382166 
L 519.75 305.046244 
L 532.125 305.314529 
L 544.5 305.305995 
L 556.875 305.884157 
L 569.25 305.827481 
L 581.625 305.417294 
L 594 305.897195 
L 606.375 306.005129 
L 618.75 306.738468 
L 631.125 306.795289 
L 643.5 306.543843 
L 655.875 306.544377 
L 668.25 306.301226 
L 680.625 305.914125 
L 693 305.980484 
L 705.375 306.251517 
L 717.75 306.020365 
L 730.125 306.445275 
L 742.5 306.467153 
L 754.875 306.454411 
L 767.25 305.898744 
L 779.625 305.559949 
" clip-path="url(#pbc85fb38e8)" style="fill: none; stroke: #000000; stroke-width: 1.5; stroke-linecap: square"/>
   </g>
   <g id="line2d_6">
    <path d="M 0 306 
L 12.375 306 
L 24.75 306.16061 
L 37.125 304.737556 
L 49.5 306.644864 
L 61.875 307.650918 
L 74.25 305.612612 
L 86.625 304.847334 
L 99 305.480672 
L 111.375 307.158998 
L 123.75 307.957596 
L 136.125 307.940847 
L 148.5 308.296834 
L 160.875 308.271905 
L 173.25 307.532483 
L 185.625 307.410468 
L 198 306.757678 
L 210.375 306.766378 
L 222.75 307.014082 
L 235.125 306.681978 
L 247.5 307.580845 
L 259.875 307.122789 
L 272.25 306.795836 
L 284.625 306.742347 
L 297 306.822537 
L 309.375 306.019114 
L 321.75 306.165852 
L 334.125 306.155655 
L 346.5 305.985021 
L 358.875 306.246805 
L 371.25 306.191185 
L 383.625 306.202765 
L 396 305.889157 
L 408.375 306.004871 
L 420.75 305.615469 
L 433.125 305.730295 
L 445.5 305.740554 
L 457.875 306.008845 
L 470.25 305.934071 
L 482.625 305.823064 
L 495 305.6743 
L 507.375 305.662842 
L 519.75 305.449223 
L 532.125 305.587321 
L 544.5 305.568729 
L 556.875 305.893125 
L 569.25 305.859787 
L 581.625 305.621324 
L 594 305.887229 
L 606.375 305.949445 
L 618.75 306.369662 
L 631.125 306.419438 
L 643.5 306.295297 
L 655.875 306.307315 
L 668.25 306.182257 
L 680.625 305.971819 
L 693 306.00603 
L 705.375 306.155017 
L 717.75 306.031819 
L 730.125 306.265196 
L 742.5 306.28545 
L 754.875 306.286772 
L 767.25 305.991202 
L 779.625 305.802647 
" clip-path="url(#pbc85fb38e8)" style="fill: none; stroke: #000000; stroke-width: 1.5; stroke-linecap: square"/>
   </g>
   <g id="line2d_7">
    <path d="M 0 306 
L 12.375 306 
L 24.75 306.158908 
L 37.125 304.766273 
L 49.5 306.606816 
L 61.875 307.579518 
L 74.25 305.657243 
L 86.625 304.931296 
L 99 305.509256 
L 111.375 307.052057 
L 123.75 307.792466 
L 136.125 307.79402 
L 148.5 308.126427 
L 160.875 308.119198 
L 173.25 307.482033 
L 185.625 307.379701 
L 198 306.818727 
L 210.375 306.82192 
L 222.75 307.028199 
L 235.125 306.748231 
L 247.5 307.493073 
L 259.875 307.119812 
L 272.25 306.852127 
L 284.625 306.805592 
L 297 306.866877 
L 309.375 306.222271 
L 321.75 306.328554 
L 334.125 306.312655 
L 346.5 306.171993 
L 358.875 306.366309 
L 371.25 306.318161 
L 383.625 306.321441 
L 396 306.078602 
L 408.375 306.157752 
L 420.75 305.860424 
L 433.125 305.935774 
L 445.5 305.935205 
L 457.875 306.124079 
L 470.25 306.065291 
L 482.625 305.980151 
L 495 305.867543 
L 507.375 305.852334 
L 519.75 305.694101 
L 532.125 305.782739 
L 544.5 305.762904 
L 556.875 305.982036 
L 569.25 305.955945 
L 581.625 305.788652 
L 594 305.965013 
L 606.375 306.004788 
L 618.75 306.287285 
L 631.125 306.323417 
L 643.5 306.243377 
L 655.875 306.253008 
L 668.25 306.171866 
L 680.625 306.033514 
L 693 306.054064 
L 705.375 306.14982 
L 717.75 306.069983 
L 730.125 306.219663 
L 742.5 306.234032 
L 754.875 306.236381 
L 767.25 306.049457 
L 779.625 305.928135 
" clip-path="url(#pbc85fb38e8)" style="fill: none; stroke: #000000; stroke-width: 1.5; stroke-linecap: square"/>
   </g>
   <g id="line2d_8">
    <path d="M 0 306 
L 12.375 306 
L 24.75 306.158057 
L 37.125 304.780549 
L 49.5 306.588204 
L 61.875 307.544201 
L 74.25 305.678362 
L 86.625 304.972012 
L 99 305.523703 
L 111.375 307.001153 
L 123.75 307.712709 
L 136.125 307.721833 
L 148.5 308.042056 
L 160.875 308.042185 
L 173.25 307.45253 
L 185.625 307.359477 
L 198 306.841702 
L 210.375 306.843171 
L 222.75 307.030907 
L 235.125 306.775443 
L 247.5 307.449889 
L 259.875 307.115065 
L 272.25 306.874701 
L 284.625 306.831969 
L 297 306.885293 
L 309.375 306.313225 
L 321.75 306.402979 
L 334.125 306.385858 
L 346.5 306.259917 
L 358.875 306.425442 
L 371.25 306.381452 
L 383.625 306.381889 
L 396 306.171267 
L 408.375 306.235567 
L 420.75 305.979951 
L 433.125 306.039678 
L 445.5 306.035731 
L 457.875 306.190999 
L 470.25 306.139727 
L 482.625 306.066545 
L 495 305.970582 
L 507.375 305.954937 
L 519.75 305.821894 
L 532.125 305.890725 
L 544.5 305.871494 
L 556.875 306.046285 
L 569.25 306.023435 
L 581.625 305.886963 
L 594 306.025725 
L 606.375 306.055894 
L 618.75 306.279223 
L 631.125 306.308047 
L 643.5 306.245284 
L 655.875 306.252805 
L 668.25 306.189291 
L 680.625 306.080987 
L 693 306.095826 
L 705.375 306.16895 
L 717.75 306.106959 
L 730.125 306.221077 
L 742.5 306.23204 
L 754.875 306.233875 
L 767.25 306.091949 
L 779.625 305.999208 
" clip-path="url(#pbc85fb38e8)" style="fill: none; stroke: #000000; stroke-width: 1.5; stroke-linecap: square"/>
   </g>
   <g id="line2d_9">
    <path d="M 0 306 
L 12.375 306 
L 24.75 306.157631 
L 37.125 304.787665 
L 49.5 306.579001 
L 61.875 307.526645 
L 74.25 305.688625 
L 86.625 304.992044 
L 99 305.530951 
L 111.375 306.976343 
L 123.75 307.673564 
L 136.125 307.686104 
L 148.5 308.00016 
L 160.875 308.003614 
L 173.25 307.436799 
L 185.625 307.348222 
L 198 306.851323 
L 210.375 306.85214 
L 222.75 307.031122 
L 235.125 306.787476 
L 247.5 307.428407 
L 259.875 307.1118 
L 272.25 306.884477 
L 284.625 306.843687 
L 297 306.893378 
L 309.375 306.355731 
L 321.75 306.43807 
L 334.125 306.420677 
L 346.5 306.301942 
L 358.875 306.454293 
L 371.25 306.412452 
L 383.625 306.411773 
L 396 306.216367 
L 408.375 306.274077 
L 420.75 306.038083 
L 433.125 306.090983 
L 445.5 306.085812 
L 457.875 306.225877 
L 470.25 306.178234 
L 482.625 306.110746 
L 495 306.022668 
L 507.375 306.007129 
L 519.75 305.88591 
L 532.125 305.946094 
L 544.5 305.927445 
L 556.875 306.08236 
L 569.25 306.061091 
L 581.625 305.938719 
L 594 306.060712 
L 606.375 306.086626 
L 618.75 306.283302 
L 631.125 306.308625 
L 643.5 306.253402 
L 655.875 306.259827 
L 668.25 306.204065 
L 680.625 306.109144 
L 693 306.121495 
L 705.375 306.18456 
L 717.75 306.130465 
L 730.125 306.228781 
L 742.5 306.238099 
L 754.875 306.239564 
L 767.25 306.117439 
L 779.625 306.03741 
" clip-path="url(#pbc85fb38e8)" style="fill: none; stroke: #000000; stroke-width: 1.5; stroke-linecap: square"/>
   </g>
  </g>
 </g>
 <defs>
  <clipPath id="pbc85fb38e8">
   <rect x="0" y="0" width="792" height="612"/>
  </clipPath>
 </defs>
</svg>
