<?xml version="1.0" encoding="utf-8" standalone="no"?>
<!DOCTYPE svg PUBLIC "-//W3C//DTD SVG 1.1//EN"
  "http://www.w3.org/Graphics/SVG/1.1/DTD/svg11.dtd">
<svg xmlns:xlink="http://www.w3.org/1999/xlink" width="792pt" height="612pt" viewBox="0 0 792 612" xmlns="http://www.w3.org/2000/svg" version="1.1">
 <metadata>
  <rdf:RDF xmlns:dc="http://purl.org/dc/elements/1.1/" xmlns:cc="http://creativecommons.org/ns#" xmlns:rdf="http://www.w3.org/1999/02/22-rdf-syntax-ns#">
   <cc:Work>
    <dc:type rdf:resource="http://purl.org/dc/dcmitype/StillImage"/>
    <dc:date>2022-12-19T20:28:01.326613</dc:date>
    <dc:format>image/svg+xml</dc:format>
    <dc:creator>
     <cc:Agent>
      <dc:title>Matplotlib v3.6.2, https://matplotlib.org/</dc:title>
     </cc:Agent>
    </dc:creator>
   </cc:Work>
  </rdf:RDF>
 </metadata>
 <defs>
  <style type="text/css">*{stroke-linejoin: round; stroke-linecap: butt}</style>
 </defs>
 <g id="figure_1">
  <g id="patch_1">
   <path d="M 0 612 
L 792 612 
L 792 0 
L 0 0 
z
" style="fill: #ffffff"/>
  </g>
  <g id="axes_1">
   <g id="line2d_1">
    <path d="M 0 459 
L 12.375 462.613891 
L 24.75 464.295603 
L 37.125 465.190131 
L 49.5 464.402947 
L 61.875 464.438728 
L 74.25 466.7645 
L 86.625 470.736202 
L 99 469.126052 
L 111.375 470.593078 
L 123.75 472.704163 
L 136.125 472.847287 
L 148.5 471.058232 
L 160.875 473.741815 
L 173.25 476.139149 
L 185.625 471.881197 
L 198 469.555426 
L 210.375 471.022451 
L 222.75 476.604303 
L 235.125 480.146632 
L 247.5 480.969598 
L 259.875 483.402713 
L 272.25 484.333022 
L 284.625 481.756782 
L 297 481.828344 
L 309.375 478.965856 
L 321.75 479.359448 
L 334.125 481.148503 
L 346.5 479.609916 
L 358.875 485.513798 
L 371.25 483.29537 
L 383.625 481.649439 
L 396 481.649439 
L 408.375 482.543966 
L 420.75 477.212582 
L 433.125 478.286015 
L 445.5 478.286015 
L 457.875 477.069457 
L 470.25 479.073199 
L 482.625 478.751169 
L 495 478.930075 
L 507.375 476.49696 
L 519.75 477.391487 
L 532.125 474.171188 
L 544.5 474.958372 
L 556.875 474.922591 
L 569.25 477.105239 
L 581.625 476.461179 
L 594 475.459308 
L 606.375 474.063845 
L 618.75 473.813377 
L 631.125 471.738073 
L 643.5 472.739944 
L 655.875 472.382133 
L 668.25 475.173059 
L 680.625 474.815248 
L 693 472.525257 
L 705.375 474.851029 
L 717.75 475.387746 
L 730.125 479.359448 
L 742.5 480.003508 
L 754.875 479.001637 
L 767.25 479.252105 
L 779.625 478.178672 
" clip-path="url(#p1ac21c1f90)" style="fill: none; stroke: #000000; stroke-width: 1.5; stroke-linecap: square"/>
   </g>
   <g id="line2d_2">
    <path d="M 0 459 
L 12.375 459 
L 24.75 461.409261 
L 37.125 463.058599 
L 49.5 464.195416 
L 61.875 464.302529 
L 74.25 464.371709 
L 86.625 465.577525 
L 99 468.166978 
L 111.375 468.66637 
L 123.75 469.64537 
L 136.125 471.191254 
L 148.5 472.034284 
L 160.875 471.559308 
L 173.25 472.668803 
L 185.625 474.422357 
L 198 473.154022 
L 210.375 471.355566 
L 222.75 471.18985 
L 235.125 473.904724 
L 247.5 477.039991 
L 259.875 479.024228 
L 272.25 481.232413 
L 284.625 482.798784 
L 297 482.297147 
L 309.375 482.08681 
L 321.75 480.541908 
L 334.125 479.95608 
L 346.5 480.554256 
L 358.875 480.07942 
L 371.25 482.800748 
L 383.625 483.046024 
L 396 482.347521 
L 408.375 481.998129 
L 420.75 482.278064 
L 433.125 479.741113 
L 445.5 479.007951 
L 457.875 478.644387 
L 470.25 477.840365 
L 482.625 478.448503 
L 495 478.594153 
L 507.375 478.756782 
L 519.75 477.615014 
L 532.125 477.503601 
L 544.5 475.829326 
L 556.875 475.387325 
L 569.25 475.150748 
L 581.625 476.124135 
L 594 476.288167 
L 606.375 475.866932 
L 618.75 474.960617 
L 631.125 474.379981 
L 643.5 473.054256 
L 655.875 472.89275 
L 668.25 472.63246 
L 680.625 473.898971 
L 693 474.353882 
L 705.375 473.433817 
L 717.75 474.143966 
L 730.125 474.768943 
L 742.5 477.079139 
L 754.875 478.555566 
L 767.25 478.791581 
L 779.625 479.029841 
" clip-path="url(#p1ac21c1f90)" style="fill: none; stroke: #000000; stroke-width: 1.5; stroke-linecap: square"/>
   </g>
   <g id="line2d_3">
    <path d="M 0 459 
L 12.375 459 
L 24.75 461.116969 
L 37.125 462.55715 
L 49.5 463.585393 
L 61.875 463.876269 
L 74.25 464.064544 
L 86.625 464.932017 
L 99 466.745357 
L 111.375 467.474888 
L 123.75 468.417646 
L 136.125 469.701507 
L 148.5 470.63751 
L 160.875 470.762113 
L 173.25 471.641719 
L 185.625 472.966303 
L 198 472.647237 
L 210.375 471.75379 
L 222.75 471.549244 
L 235.125 473.043974 
L 247.5 475.141474 
L 259.875 476.86752 
L 272.25 478.803416 
L 284.625 480.443179 
L 297 480.840583 
L 309.375 481.144481 
L 321.75 480.515994 
L 334.125 480.184894 
L 346.5 480.476663 
L 358.875 480.232621 
L 371.25 481.792963 
L 383.625 482.241228 
L 396 482.079116 
L 408.375 481.967158 
L 420.75 482.149335 
L 433.125 480.704092 
L 445.5 479.993717 
L 457.875 479.49046 
L 470.25 478.77409 
L 482.625 478.855656 
L 495 478.8216 
L 507.375 478.850043 
L 519.75 478.158005 
L 532.125 477.931237 
L 544.5 476.82193 
L 556.875 476.270764 
L 569.25 475.863728 
L 581.625 476.220248 
L 594 476.284856 
L 606.375 476.035948 
L 618.75 475.448592 
L 631.125 474.965744 
L 643.5 474.01286 
L 655.875 473.633662 
L 668.25 473.261713 
L 680.625 473.817054 
L 693 474.104897 
L 705.375 473.634875 
L 717.75 473.989188 
L 730.125 474.396514 
L 742.5 475.856083 
L 754.875 477.076631 
L 767.25 477.645137 
L 779.625 478.118273 
" clip-path="url(#p1ac21c1f90)" style="fill: none; stroke: #000000; stroke-width: 1.5; stroke-linecap: square"/>
   </g>
   <g id="line2d_4">
    <path d="M 0 459 
L 12.375 459 
L 24.75 460.963115 
L 37.125 462.270997 
L 49.5 463.199887 
L 61.875 463.530161 
L 74.25 463.753778 
L 86.625 464.43546 
L 99 465.772087 
L 111.375 466.447757 
L 123.75 467.248919 
L 136.125 468.268417 
L 148.5 469.101006 
L 160.875 469.448984 
L 173.25 470.198212 
L 185.625 471.219331 
L 198 471.331657 
L 210.375 471.033376 
L 222.75 471.031557 
L 235.125 471.952423 
L 247.5 473.298207 
L 259.875 474.551692 
L 272.25 475.991742 
L 284.625 477.343996 
L 297 478.05723 
L 309.375 478.665216 
L 321.75 478.713584 
L 334.125 478.817307 
L 346.5 479.191129 
L 358.875 479.2582 
L 371.25 480.259017 
L 383.625 480.744366 
L 396 480.888931 
L 408.375 481.024062 
L 420.75 481.27832 
L 433.125 480.639506 
L 445.5 480.273228 
L 457.875 479.965717 
L 470.25 479.512793 
L 482.625 479.450532 
L 495 479.344261 
L 507.375 479.28448 
L 519.75 478.844659 
L 532.125 478.616379 
L 544.5 477.909959 
L 556.875 477.442784 
L 569.25 477.042549 
L 581.625 477.053126 
L 594 476.961803 
L 606.375 476.726434 
L 618.75 476.304704 
L 631.125 475.906584 
L 643.5 475.238112 
L 655.875 474.83551 
L 668.25 474.438293 
L 680.625 474.549482 
L 693 474.587435 
L 705.375 474.25353 
L 717.75 474.346027 
L 730.125 474.50929 
L 742.5 475.279852 
L 754.875 476.031648 
L 767.25 476.500121 
L 779.625 476.935448 
" clip-path="url(#p1ac21c1f90)" style="fill: none; stroke: #000000; stroke-width: 1.5; stroke-linecap: square"/>
   </g>
   <g id="line2d_5">
    <path d="M 0 459 
L 12.375 459 
L 24.75 460.885177 
L 37.125 462.121779 
L 49.5 462.991246 
L 61.875 463.324499 
L 74.25 463.552613 
L 86.625 464.138816 
L 99 465.233929 
L 111.375 465.830479 
L 123.75 466.512517 
L 136.125 467.348848 
L 148.5 468.054782 
L 160.875 468.423645 
L 173.25 469.051776 
L 185.625 469.860472 
L 198 470.084088 
L 210.375 470.02716 
L 222.75 470.131753 
L 235.125 470.797239 
L 247.5 471.739828 
L 259.875 472.654064 
L 272.25 473.701924 
L 284.625 474.723519 
L 297 475.390642 
L 309.375 475.994119 
L 321.75 476.269731 
L 334.125 476.553519 
L 346.5 476.971861 
L 358.875 477.21012 
L 371.25 477.954628 
L 383.625 478.430308 
L 396 478.715295 
L 408.375 478.973622 
L 420.75 479.286384 
L 433.125 479.105552 
L 445.5 479.034389 
L 457.875 478.969653 
L 470.25 478.805857 
L 482.625 478.828829 
L 495 478.822175 
L 507.375 478.831395 
L 519.75 478.632417 
L 532.125 478.526882 
L 544.5 478.157208 
L 556.875 477.886227 
L 569.25 477.6356 
L 581.625 477.590819 
L 594 477.495575 
L 606.375 477.324117 
L 618.75 477.049925 
L 631.125 476.778028 
L 643.5 476.355059 
L 655.875 476.051948 
L 668.25 475.744512 
L 680.625 475.696676 
L 693 475.622945 
L 705.375 475.363995 
L 717.75 475.321139 
L 730.125 475.326701 
L 742.5 475.663262 
L 754.875 476.025319 
L 767.25 476.273494 
L 779.625 476.521764 
" clip-path="url(#p1ac21c1f90)" style="fill: none; stroke: #000000; stroke-width: 1.5; stroke-linecap: square"/>
   </g>
   <g id="line2d_6">
    <path d="M 0 459 
L 12.375 459 
L 24.75 460.84608 
L 37.125 462.046078 
L 49.5 462.883881 
L 61.875 463.214571 
L 74.25 463.441314 
L 86.625 463.979919 
L 99 464.957901 
L 111.375 465.505226 
L 123.75 466.118765 
L 136.125 466.8553 
L 148.5 467.481948 
L 160.875 467.834063 
L 173.25 468.384852 
L 185.625 469.072825 
L 198 469.310956 
L 210.375 469.330842 
L 222.75 469.463287 
L 235.125 470.003019 
L 247.5 470.745069 
L 259.875 471.470718 
L 272.25 472.294023 
L 284.625 473.103185 
L 297 473.670724 
L 309.375 474.193611 
L 321.75 474.493005 
L 334.125 474.792223 
L 346.5 475.175724 
L 358.875 475.438543 
L 371.25 476.025804 
L 383.625 476.4429 
L 396 476.73722 
L 408.375 477.011033 
L 420.75 477.315384 
L 433.125 477.3098 
L 445.5 477.362205 
L 457.875 477.411244 
L 470.25 477.393292 
L 482.625 477.48064 
L 495 477.546073 
L 507.375 477.616707 
L 519.75 477.560049 
L 532.125 477.551589 
L 544.5 477.383247 
L 556.875 477.263377 
L 569.25 477.148472 
L 581.625 477.146364 
L 594 477.113165 
L 606.375 477.033512 
L 618.75 476.891308 
L 631.125 476.744724 
L 643.5 476.507526 
L 655.875 476.329915 
L 668.25 476.144688 
L 680.625 476.099306 
L 693 476.039587 
L 705.375 475.876814 
L 717.75 475.829488 
L 730.125 475.809184 
L 742.5 475.971789 
L 754.875 476.155819 
L 767.25 476.285297 
L 779.625 476.419863 
" clip-path="url(#p1ac21c1f90)" style="fill: none; stroke: #000000; stroke-width: 1.5; stroke-linecap: square"/>
   </g>
   <g id="line2d_7">
    <path d="M 0 459 
L 12.375 459 
L 24.75 460.826515 
L 37.125 462.008014 
L 49.5 462.829575 
L 61.875 463.158027 
L 74.25 463.3832 
L 86.625 463.898191 
L 99 464.819129 
L 111.375 465.340173 
L 123.75 465.918125 
L 136.125 466.603994 
L 148.5 467.188459 
L 160.875 467.526337 
L 173.25 468.035479 
L 185.625 468.66143 
L 198 468.896987 
L 210.375 468.942789 
L 222.75 469.080809 
L 235.125 469.558644 
L 247.5 470.203956 
L 259.875 470.83515 
L 272.25 471.545563 
L 284.625 472.243895 
L 297 472.746715 
L 309.375 473.212114 
L 321.75 473.498433 
L 334.125 473.782055 
L 346.5 474.129167 
L 358.875 474.380954 
L 371.25 474.880164 
L 383.625 475.248879 
L 396 475.52318 
L 408.375 475.780219 
L 420.75 476.058295 
L 433.125 476.104835 
L 445.5 476.191148 
L 457.875 476.272568 
L 470.25 476.303009 
L 482.625 476.407086 
L 495 476.493754 
L 507.375 476.582454 
L 519.75 476.579387 
L 532.125 476.608103 
L 544.5 476.523119 
L 556.875 476.469275 
L 569.25 476.416734 
L 581.625 476.439833 
L 594 476.44054 
L 606.375 476.408392 
L 618.75 476.332438 
L 631.125 476.251715 
L 643.5 476.108597 
L 655.875 476.002871 
L 668.25 475.890353 
L 680.625 475.868275 
L 693 475.836165 
L 705.375 475.73611 
L 717.75 475.709596 
L 730.125 475.700036 
L 742.5 475.80784 
L 754.875 475.930457 
L 767.25 476.019516 
L 779.625 476.112552 
" clip-path="url(#p1ac21c1f90)" style="fill: none; stroke: #000000; stroke-width: 1.5; stroke-linecap: square"/>
   </g>
   <g id="line2d_8">
    <path d="M 0 459 
L 12.375 459 
L 24.75 460.816731 
L 37.125 461.988937 
L 49.5 462.802283 
L 61.875 463.129387 
L 74.25 463.353562 
L 86.625 463.856813 
L 99 464.749684 
L 111.375 465.257277 
L 123.75 465.817236 
L 136.125 466.477771 
L 148.5 467.040749 
L 160.875 467.370264 
L 173.25 467.858104 
L 185.625 468.453003 
L 198 468.685106 
L 210.375 468.740857 
L 222.75 468.879616 
L 235.125 469.327016 
L 247.5 469.925454 
L 259.875 470.510264 
L 272.25 471.165316 
L 284.625 471.808599 
L 297 472.276769 
L 309.375 472.710534 
L 321.75 472.985096 
L 334.125 473.255912 
L 346.5 473.580924 
L 358.875 473.821868 
L 371.25 474.275872 
L 383.625 474.616546 
L 396 474.875201 
L 408.375 475.118028 
L 420.75 475.377705 
L 433.125 475.440352 
L 445.5 475.535292 
L 457.875 475.625037 
L 470.25 475.671155 
L 482.625 475.777526 
L 495 475.868634 
L 507.375 475.960606 
L 519.75 475.976415 
L 532.125 476.017357 
L 544.5 475.964894 
L 556.875 475.936788 
L 569.25 475.908945 
L 581.625 475.941249 
L 594 475.955064 
L 606.375 475.942096 
L 618.75 475.893709 
L 631.125 475.840907 
L 643.5 475.738271 
L 655.875 475.664318 
L 668.25 475.584474 
L 680.625 475.574599 
L 693 475.556612 
L 705.375 475.485721 
L 717.75 475.471063 
L 730.125 475.469162 
L 742.5 475.556857 
L 754.875 475.655928 
L 767.25 475.729621 
L 779.625 475.806345 
" clip-path="url(#p1ac21c1f90)" style="fill: none; stroke: #000000; stroke-width: 1.5; stroke-linecap: square"/>
   </g>
   <g id="line2d_9">
    <path d="M 0 459 
L 12.375 459 
L 24.75 460.811838 
L 37.125 461.979387 
L 49.5 462.788605 
L 61.875 463.11498 
L 74.25 463.338602 
L 86.625 463.836002 
L 99 464.714963 
L 111.375 465.215768 
L 123.75 465.766697 
L 136.125 466.41459 
L 148.5 466.966757 
L 160.875 467.291813 
L 173.25 467.76892 
L 185.625 468.348335 
L 198 468.578219 
L 210.375 468.638226 
L 222.75 468.776867 
L 235.125 469.209223 
L 247.5 469.784683 
L 259.875 470.346633 
L 272.25 470.974442 
L 284.625 471.590501 
L 297 472.040997 
L 309.375 472.458458 
L 321.75 472.72605 
L 334.125 472.989416 
L 346.5 473.302613 
L 358.875 473.536995 
L 371.25 473.968359 
L 383.625 474.294307 
L 396 474.543968 
L 408.375 474.778461 
L 420.75 475.027854 
L 433.125 475.096191 
L 445.5 475.193451 
L 457.875 475.285438 
L 470.25 475.337241 
L 482.625 475.443219 
L 495 475.534949 
L 507.375 475.62704 
L 519.75 475.650134 
L 532.125 475.695406 
L 544.5 475.656579 
L 556.875 475.639143 
L 569.25 475.621593 
L 581.625 475.657251 
L 594 475.676219 
L 606.375 475.671192 
L 618.75 475.634596 
L 631.125 475.593839 
L 643.5 475.50899 
L 655.875 475.449051 
L 668.25 475.383725 
L 680.625 475.379308 
L 693 475.367663 
L 705.375 475.309861 
L 717.75 475.300668 
L 730.125 475.302387 
L 742.5 475.38137 
L 754.875 475.470105 
L 767.25 475.53698 
L 779.625 475.606392 
" clip-path="url(#p1ac21c1f90)" style="fill: none; stroke: #000000; stroke-width: 1.5; stroke-linecap: square"/>
   </g>
  </g>
 </g>
 <defs>
  <clipPath id="p1ac21c1f90">
   <rect x="0" y="0" width="792" height="612"/>
  </clipPath>
 </defs>
</svg>
