<?xml version="1.0" encoding="utf-8" standalone="no"?>
<!DOCTYPE svg PUBLIC "-//W3C//DTD SVG 1.1//EN"
  "http://www.w3.org/Graphics/SVG/1.1/DTD/svg11.dtd">
<svg xmlns:xlink="http://www.w3.org/1999/xlink" width="792pt" height="612pt" viewBox="0 0 792 612" xmlns="http://www.w3.org/2000/svg" version="1.1">
 <metadata>
  <rdf:RDF xmlns:dc="http://purl.org/dc/elements/1.1/" xmlns:cc="http://creativecommons.org/ns#" xmlns:rdf="http://www.w3.org/1999/02/22-rdf-syntax-ns#">
   <cc:Work>
    <dc:type rdf:resource="http://purl.org/dc/dcmitype/StillImage"/>
    <dc:date>2023-01-16T16:11:08.489934</dc:date>
    <dc:format>image/svg+xml</dc:format>
    <dc:creator>
     <cc:Agent>
      <dc:title>Matplotlib v3.6.2, https://matplotlib.org/</dc:title>
     </cc:Agent>
    </dc:creator>
   </cc:Work>
  </rdf:RDF>
 </metadata>
 <defs>
  <style type="text/css">*{stroke-linejoin: round; stroke-linecap: butt}</style>
 </defs>
 <g id="figure_1">
  <g id="patch_1">
   <path d="M 0 612 
L 792 612 
L 792 0 
L 0 0 
z
" style="fill: #ffffff"/>
  </g>
  <g id="axes_1">
   <g id="line2d_1">
    <path d="M 0 306 
L 12.774194 306.905323 
L 25.548387 310.114868 
L 38.322581 302.461158 
L 51.096774 319.570974 
L 63.870968 300.89773 
L 76.645161 302.214287 
L 89.419355 306 
L 102.193548 308.057527 
L 114.967742 293.743516 
L 127.741935 308.469016 
L 140.516129 306 
L 153.290323 303.201799 
L 166.064516 310.608581 
L 178.83871 305.259281 
L 191.612903 306.411511 
L 204.387097 300.404067 
L 217.16129 308.057527 
L 229.935484 298.594238 
L 242.709677 307.81063 
L 255.483871 305.917698 
L 268.258065 311.019991 
L 281.032258 304.51857 
L 293.806452 303.695579 
L 306.580645 302.790328 
L 319.354839 305.423884 
L 332.129032 301.226853 
L 344.903226 308.304421 
L 357.677419 305.176979 
L 370.451613 312.418639 
L 383.225806 305.176979 
L 396 300.733172 
L 408.774194 311.349105 
L 421.548387 307.234528 
L 434.322581 315.132844 
L 447.096774 307.48143 
L 459.870968 303.695579 
L 472.645161 306.576116 
L 485.419355 303.530984 
L 498.193548 301.473703 
L 510.967742 306.740719 
L 523.741935 309.374258 
L 536.516129 303.366391 
L 549.290323 311.349105 
L 562.064516 306.740719 
L 574.83871 306.329209 
L 587.612903 299.499096 
L 600.387097 301.638273 
L 613.16129 305.176979 
L 625.935484 299.087782 
L 638.709677 309.621133 
L 651.483871 302.296577 
L 664.258065 304.847773 
L 677.032258 300.074974 
L 689.806452 297.689511 
L 702.580645 301.309136 
L 715.354839 301.96742 
L 728.129032 312.747696 
L 740.903226 301.226853 
L 753.677419 312.336372 
L 766.451613 300.81545 
L 779.225806 305.588489 
" clip-path="url(#p0c4c6cf51e)" style="fill: none; stroke: #000000; stroke-width: 1.5; stroke-linecap: square"/>
   </g>
   <g id="line2d_2">
    <path d="M 0 306 
L 12.774194 306 
L 25.548387 306.60355 
L 38.322581 308.610096 
L 51.096774 305.330609 
L 63.870968 312.684008 
L 76.645161 306.697609 
L 89.419355 304.438214 
L 102.193548 305.222164 
L 114.967742 306.643894 
L 127.741935 300.165312 
L 140.516129 304.313627 
L 153.290323 305.163746 
L 166.064516 304.150641 
L 178.83871 307.398807 
L 191.612903 306.335019 
L 204.387097 306.374072 
L 217.16129 303.373814 
L 229.935484 305.743733 
L 242.709677 302.149101 
L 255.483871 304.983328 
L 268.258065 305.455837 
L 281.032258 308.238906 
L 293.806452 306.377299 
L 306.580645 305.031095 
L 319.354839 303.915363 
L 332.129032 304.664452 
L 344.903226 302.95072 
L 357.677419 305.62851 
L 370.451613 305.401292 
L 383.225806 308.913091 
L 396 307.046365 
L 408.774194 303.883735 
L 421.548387 307.633443 
L 434.322581 307.437536 
L 447.096774 311.313291 
L 459.870968 309.39588 
L 472.645161 306.542872 
L 485.419355 306.548036 
L 498.193548 305.036259 
L 510.967742 303.25634 
L 523.741935 304.98946 
L 536.516129 307.186116 
L 549.290323 305.253148 
L 562.064516 308.30894 
L 574.83871 307.53081 
L 587.612903 306.929529 
L 600.387097 303.205995 
L 613.16129 302.422433 
L 625.935484 303.796595 
L 638.709677 301.421751 
L 651.483871 305.533621 
L 664.258065 303.89729 
L 677.032258 304.368816 
L 689.806452 302.209446 
L 702.580645 299.945599 
L 715.354839 300.626695 
L 728.129032 301.290743 
L 740.903226 307.046365 
L 753.677419 304.119981 
L 766.451613 308.248265 
L 779.225806 304.523734 
" clip-path="url(#p0c4c6cf51e)" style="fill: none; stroke: #000000; stroke-width: 1.5; stroke-linecap: square"/>
   </g>
   <g id="line2d_3">
    <path d="M 0 306 
L 12.774194 306 
L 25.548387 306.530327 
L 38.322581 308.154494 
L 51.096774 305.931068 
L 63.870968 310.786766 
L 76.645161 307.476648 
L 89.419355 305.785841 
L 102.193548 305.852749 
L 114.967742 306.528381 
L 127.741935 302.661136 
L 140.516129 304.400601 
L 153.290323 304.876485 
L 166.064516 304.380489 
L 178.83871 306.219111 
L 191.612903 305.936421 
L 204.387097 306.076118 
L 217.16129 304.408216 
L 229.935484 305.478397 
L 242.709677 303.448474 
L 255.483871 304.732236 
L 268.258065 305.063755 
L 281.032258 306.820052 
L 293.806452 306.148608 
L 306.580645 305.427473 
L 319.354839 304.648995 
L 332.129032 304.889377 
L 344.903226 303.80825 
L 357.677419 305.127784 
L 370.451613 305.144461 
L 383.225806 307.277365 
L 396 306.662085 
L 408.774194 304.918877 
L 421.548387 306.814975 
L 434.322581 306.936914 
L 447.096774 309.357109 
L 459.870968 308.807377 
L 472.645161 307.307649 
L 485.419355 307.088284 
L 498.193548 306.045228 
L 510.967742 304.703618 
L 523.741935 305.304805 
L 536.516129 306.501297 
L 549.290323 305.585543 
L 562.064516 307.277301 
L 574.83871 307.121937 
L 587.612903 306.882758 
L 600.387097 304.713333 
L 613.16129 303.813654 
L 625.935484 304.205866 
L 638.709677 302.697225 
L 651.483871 304.718823 
L 664.258065 304.003378 
L 677.032258 304.252016 
L 689.806452 303.020985 
L 702.580645 301.45239 
L 715.354839 301.410242 
L 728.129032 301.567951 
L 740.903226 304.846405 
L 753.677419 303.783727 
L 766.451613 306.290111 
L 779.225806 304.679676 
" clip-path="url(#p0c4c6cf51e)" style="fill: none; stroke: #000000; stroke-width: 1.5; stroke-linecap: square"/>
   </g>
   <g id="line2d_4">
    <path d="M 0 306 
L 12.774194 306 
L 25.548387 306.491785 
L 38.322581 307.913788 
L 51.096774 306.178689 
L 63.870968 309.857496 
L 76.645161 307.652338 
L 89.419355 306.421033 
L 102.193548 306.331716 
L 114.967742 306.679393 
L 127.741935 304.178043 
L 140.516129 304.979954 
L 153.290323 305.16543 
L 166.064516 304.816304 
L 178.83871 305.827286 
L 191.612903 305.729658 
L 204.387097 305.845375 
L 217.16129 304.93152 
L 229.935484 305.451878 
L 242.709677 304.318468 
L 255.483871 304.892 
L 268.258065 305.059596 
L 281.032258 306.029415 
L 293.806452 305.784481 
L 306.580645 305.446848 
L 319.354839 305.018542 
L 332.129032 305.083754 
L 344.903226 304.464301 
L 357.677419 305.080088 
L 370.451613 305.095605 
L 383.225806 306.267347 
L 396 306.093055 
L 408.774194 305.236853 
L 421.548387 306.212757 
L 434.322581 306.375531 
L 447.096774 307.772395 
L 459.870968 307.729234 
L 472.645161 307.077559 
L 485.419355 307.001321 
L 498.193548 306.449993 
L 510.967742 305.655371 
L 523.741935 305.827233 
L 536.516129 306.401355 
L 549.290323 305.915288 
L 562.064516 306.78325 
L 574.83871 306.778692 
L 587.612903 306.704507 
L 600.387097 305.554352 
L 613.16129 304.928268 
L 625.935484 304.970817 
L 638.709677 304.029045 
L 651.483871 304.925655 
L 664.258065 304.503899 
L 677.032258 304.557942 
L 689.806452 303.837766 
L 702.580645 302.855049 
L 715.354839 302.607587 
L 728.129032 302.505219 
L 740.903226 304.139473 
L 753.677419 303.676028 
L 766.451613 305.056546 
L 779.225806 304.378985 
" clip-path="url(#p0c4c6cf51e)" style="fill: none; stroke: #000000; stroke-width: 1.5; stroke-linecap: square"/>
   </g>
   <g id="line2d_5">
    <path d="M 0 306 
L 12.774194 306 
L 25.548387 306.47226 
L 38.322581 307.79312 
L 51.096774 306.282194 
L 63.870968 309.421176 
L 76.645161 307.676189 
L 89.419355 306.679312 
L 102.193548 306.566552 
L 114.967742 306.795078 
L 127.741935 304.925068 
L 140.516129 305.403768 
L 153.290323 305.480317 
L 166.064516 305.200476 
L 178.83871 305.839269 
L 191.612903 305.77309 
L 204.387097 305.843739 
L 217.16129 305.257917 
L 229.935484 305.552125 
L 242.709677 304.836595 
L 255.483871 305.136432 
L 268.258065 305.213818 
L 281.032258 305.77989 
L 293.806452 305.658683 
L 306.580645 305.472474 
L 319.354839 305.221036 
L 332.129032 305.239849 
L 344.903226 304.871227 
L 357.677419 305.183797 
L 370.451613 305.183181 
L 383.225806 305.831995 
L 396 305.773655 
L 408.774194 305.327381 
L 421.548387 305.857592 
L 434.322581 305.978212 
L 447.096774 306.776716 
L 459.870968 306.837909 
L 472.645161 306.56609 
L 485.419355 306.566955 
L 498.193548 306.306087 
L 510.967742 305.892053 
L 523.741935 305.964567 
L 536.516129 306.255206 
L 549.290323 306.009521 
L 562.064516 306.462744 
L 574.83871 306.486292 
L 587.612903 306.473008 
L 600.387097 305.884086 
L 613.16129 305.526083 
L 625.935484 305.496687 
L 638.709677 304.957597 
L 651.483871 305.349383 
L 664.258065 305.093169 
L 677.032258 305.072593 
L 689.806452 304.653865 
L 702.580645 304.070732 
L 715.354839 303.839708 
L 728.129032 303.683186 
L 740.903226 304.440543 
L 753.677419 304.17218 
L 766.451613 304.8536 
L 779.225806 304.516709 
" clip-path="url(#p0c4c6cf51e)" style="fill: none; stroke: #000000; stroke-width: 1.5; stroke-linecap: square"/>
   </g>
   <g id="line2d_6">
    <path d="M 0 306 
L 12.774194 306 
L 25.548387 306.462466 
L 38.322581 307.733108 
L 51.096774 306.32825 
L 63.870968 309.212917 
L 76.645161 307.672738 
L 89.419355 306.78804 
L 102.193548 306.673971 
L 114.967742 306.85565 
L 127.741935 305.273682 
L 140.516129 305.631065 
L 153.290323 305.669649 
L 166.064516 305.426661 
L 178.83871 305.909812 
L 191.612903 305.852096 
L 204.387097 305.899531 
L 217.16129 305.452454 
L 229.935484 305.65642 
L 242.709677 305.12254 
L 255.483871 305.319186 
L 268.258065 305.361663 
L 281.032258 305.752116 
L 293.806452 305.669207 
L 306.580645 305.539765 
L 319.354839 305.363525 
L 332.129032 305.367312 
L 344.903226 305.11271 
L 357.677419 305.30528 
L 370.451613 305.297676 
L 383.225806 305.712792 
L 396 305.68205 
L 408.774194 305.402266 
L 421.548387 305.73378 
L 434.322581 305.816332 
L 447.096774 306.322572 
L 459.870968 306.384782 
L 472.645161 306.242029 
L 485.419355 306.259576 
L 498.193548 306.1177 
L 510.967742 305.878513 
L 523.741935 305.922517 
L 536.516129 306.097179 
L 549.290323 305.960124 
L 562.064516 306.22852 
L 574.83871 306.253839 
L 587.612903 306.257539 
L 600.387097 305.927938 
L 613.16129 305.720075 
L 625.935484 305.693918 
L 638.709677 305.377524 
L 651.483871 305.57963 
L 664.258065 305.424082 
L 677.032258 305.396913 
L 689.806452 305.147179 
L 702.580645 304.798755 
L 715.354839 304.636448 
L 728.129032 304.512819 
L 740.903226 304.892789 
L 753.677419 304.724272 
L 766.451613 305.07295 
L 779.225806 304.878594 
" clip-path="url(#p0c4c6cf51e)" style="fill: none; stroke: #000000; stroke-width: 1.5; stroke-linecap: square"/>
   </g>
   <g id="line2d_7">
    <path d="M 0 306 
L 12.774194 306 
L 25.548387 306.457565 
L 38.322581 307.703233 
L 51.096774 306.349804 
L 63.870968 309.111565 
L 76.645161 307.667393 
L 89.419355 306.836836 
L 102.193548 306.724132 
L 114.967742 306.885447 
L 127.741935 305.438784 
L 140.516129 305.745056 
L 153.290323 305.768923 
L 166.064516 305.544776 
L 178.83871 305.959606 
L 191.612903 305.905511 
L 204.387097 305.94253 
L 217.16129 305.557225 
L 229.935484 305.723164 
L 242.709677 305.270298 
L 255.483871 305.425125 
L 268.258065 305.454005 
L 281.032258 305.768661 
L 293.806452 305.700392 
L 306.580645 305.594422 
L 319.354839 305.450717 
L 332.129032 305.449382 
L 344.903226 305.245031 
L 357.677419 305.389193 
L 370.451613 305.379444 
L 383.225806 305.695131 
L 396 305.672428 
L 408.774194 305.46073 
L 421.548387 305.70781 
L 434.322581 305.770578 
L 447.096774 306.148166 
L 459.870968 306.200926 
L 472.645161 306.10355 
L 485.419355 306.121602 
L 498.193548 306.02427 
L 510.967742 305.856009 
L 523.741935 305.888219 
L 536.516129 306.013268 
L 549.290323 305.919674 
L 562.064516 306.109036 
L 574.83871 306.130773 
L 587.612903 306.137514 
L 600.387097 305.914768 
L 613.16129 305.773004 
L 625.935484 305.753477 
L 638.709677 305.537496 
L 651.483871 305.66836 
L 664.258065 305.561442 
L 677.032258 305.539043 
L 689.806452 305.36922 
L 702.580645 305.132785 
L 715.354839 305.016178 
L 728.129032 304.924039 
L 740.903226 305.158438 
L 753.677419 305.041648 
L 766.451613 305.25657 
L 779.225806 305.126767 
" clip-path="url(#p0c4c6cf51e)" style="fill: none; stroke: #000000; stroke-width: 1.5; stroke-linecap: square"/>
   </g>
   <g id="line2d_8">
    <path d="M 0 306 
L 12.774194 306 
L 25.548387 306.455114 
L 38.322581 307.688334 
L 51.096774 306.360207 
L 63.870968 309.061618 
L 76.645161 307.663852 
L 89.419355 306.859804 
L 102.193548 306.748211 
L 114.967742 306.900075 
L 127.741935 305.518692 
L 140.516129 305.801667 
L 153.290323 305.819197 
L 166.064516 305.604511 
L 178.83871 305.987675 
L 191.612903 305.935348 
L 204.387097 305.967586 
L 217.16129 305.611162 
L 229.935484 305.759944 
L 242.709677 305.344836 
L 255.483871 305.481221 
L 268.258065 305.504334 
L 281.032258 305.784601 
L 293.806452 305.722751 
L 306.580645 305.627348 
L 319.354839 305.498506 
L 332.129032 305.495231 
L 344.903226 305.313872 
L 357.677419 305.437022 
L 370.451613 305.426629 
L 383.225806 305.698169 
L 396 305.678484 
L 408.774194 305.496587 
L 421.548387 305.706393 
L 434.322581 305.759831 
L 447.096774 306.079944 
L 459.870968 306.126702 
L 472.645161 306.047383 
L 485.419355 306.064264 
L 498.193548 305.985055 
L 510.967742 305.846823 
L 523.741935 305.873677 
L 536.516129 305.976857 
L 549.290323 305.901327 
L 562.064516 306.056151 
L 574.83871 306.075267 
L 587.612903 306.082238 
L 600.387097 305.904449 
L 613.16129 305.791083 
L 625.935484 305.775019 
L 638.709677 305.602713 
L 651.483871 305.70471 
L 664.258065 305.619448 
L 677.032258 305.600415 
L 689.806452 305.465982 
L 702.580645 305.279289 
L 715.354839 305.185236 
L 728.129032 305.10998 
L 740.903226 305.286393 
L 753.677419 305.193773 
L 766.451613 305.354801 
L 779.225806 305.253655 
" clip-path="url(#p0c4c6cf51e)" style="fill: none; stroke: #000000; stroke-width: 1.5; stroke-linecap: square"/>
   </g>
   <g id="line2d_9">
    <path d="M 0 306 
L 12.774194 306 
L 25.548387 306.453888 
L 38.322581 307.680895 
L 51.096774 306.365315 
L 63.870968 309.03683 
L 76.645161 307.661869 
L 89.419355 306.870927 
L 102.193548 306.759987 
L 114.967742 306.907303 
L 127.741935 305.557946 
L 140.516129 305.829817 
L 153.290323 305.844425 
L 166.064516 305.63447 
L 178.83871 306.00243 
L 191.612903 305.950987 
L 204.387097 305.980953 
L 217.16129 305.638459 
L 229.935484 305.779129 
L 242.709677 305.382186 
L 255.483871 305.509956 
L 268.258065 305.530442 
L 281.032258 305.794431 
L 293.806452 305.735592 
L 306.580645 305.645191 
L 319.354839 305.523418 
L 332.129032 305.519325 
L 344.903226 305.348886 
L 357.677419 305.462339 
L 370.451613 305.451735 
L 383.225806 305.702693 
L 396 305.684321 
L 408.774194 305.516243 
L 421.548387 305.708755 
L 434.322581 305.757756 
L 447.096774 306.051091 
L 459.870968 306.094704 
L 472.645161 306.023342 
L 485.419355 306.039393 
L 498.193548 305.968236 
L 510.967742 305.843593 
L 523.741935 305.867927 
L 536.516129 305.961015 
L 549.290323 305.893559 
L 562.064516 306.032543 
L 574.83871 306.050228 
L 587.612903 306.057061 
L 600.387097 305.899425 
L 613.16129 305.798879 
L 625.935484 305.784468 
L 638.709677 305.631972 
L 651.483871 305.72125 
L 664.258065 305.645884 
L 677.032258 305.628608 
L 689.806452 305.510299 
L 702.580645 305.34628 
L 715.354839 305.262924 
L 728.129032 305.195904 
L 740.903226 305.347234 
L 753.677419 305.265861 
L 766.451613 305.403526 
L 779.225806 305.315436 
" clip-path="url(#p0c4c6cf51e)" style="fill: none; stroke: #000000; stroke-width: 1.5; stroke-linecap: square"/>
   </g>
  </g>
 </g>
 <defs>
  <clipPath id="p0c4c6cf51e">
   <rect x="0" y="0" width="792" height="612"/>
  </clipPath>
 </defs>
</svg>
