<?xml version="1.0" encoding="utf-8" standalone="no"?>
<!DOCTYPE svg PUBLIC "-//W3C//DTD SVG 1.1//EN"
  "http://www.w3.org/Graphics/SVG/1.1/DTD/svg11.dtd">
<svg xmlns:xlink="http://www.w3.org/1999/xlink" width="792pt" height="612pt" viewBox="0 0 792 612" xmlns="http://www.w3.org/2000/svg" version="1.1">
 <metadata>
  <rdf:RDF xmlns:dc="http://purl.org/dc/elements/1.1/" xmlns:cc="http://creativecommons.org/ns#" xmlns:rdf="http://www.w3.org/1999/02/22-rdf-syntax-ns#">
   <cc:Work>
    <dc:type rdf:resource="http://purl.org/dc/dcmitype/StillImage"/>
    <dc:date>2022-12-19T20:27:27.947913</dc:date>
    <dc:format>image/svg+xml</dc:format>
    <dc:creator>
     <cc:Agent>
      <dc:title>Matplotlib v3.6.2, https://matplotlib.org/</dc:title>
     </cc:Agent>
    </dc:creator>
   </cc:Work>
  </rdf:RDF>
 </metadata>
 <defs>
  <style type="text/css">*{stroke-linejoin: round; stroke-linecap: butt}</style>
 </defs>
 <g id="figure_1">
  <g id="patch_1">
   <path d="M 0 612 
L 792 612 
L 792 0 
L 0 0 
z
" style="fill: #ffffff"/>
  </g>
  <g id="axes_1">
   <g id="line2d_1">
    <path d="M 0 306 
L 41.684211 305.467937 
L 83.368421 306.304036 
L 125.052632 306.063341 
L 166.736842 306.582736 
L 208.421053 304.948545 
L 250.105263 302.225072 
L 291.789474 302.769733 
L 333.473684 306.114014 
L 375.157895 313.257509 
L 416.842105 307.811529 
L 458.526316 287.261893 
L 500.210526 306.570068 
L 541.894737 305.58195 
L 583.578947 312.105255 
L 625.263158 312.434489 
L 666.947368 306.950111 
L 708.631579 302.161741 
L 750.315789 308.508244 
" clip-path="url(#pcd5b0d027e)" style="fill: none; stroke: #000000; stroke-width: 1.5; stroke-linecap: square"/>
   </g>
   <g id="line2d_2">
    <path d="M 0 306 
L 41.684211 306 
L 83.368421 305.645291 
L 125.052632 306.021717 
L 166.736842 306.043916 
L 208.421053 306.322017 
L 250.105263 305.624378 
L 291.789474 303.911278 
L 333.473684 303.338258 
L 375.157895 304.726333 
L 416.842105 309.007777 
L 458.526316 308.412618 
L 500.210526 297.790602 
L 541.894737 302.179524 
L 583.578947 303.881913 
L 625.263158 308.013318 
L 666.947368 310.243073 
L 708.631579 308.598306 
L 750.315789 305.358196 
" clip-path="url(#pcd5b0d027e)" style="fill: none; stroke: #000000; stroke-width: 1.5; stroke-linecap: square"/>
   </g>
   <g id="line2d_3">
    <path d="M 0 306 
L 41.684211 306 
L 83.368421 305.688324 
L 125.052632 305.967292 
L 166.736842 306.004802 
L 208.421053 306.210424 
L 250.105263 305.788027 
L 291.789474 304.643227 
L 333.473684 304.057894 
L 375.157895 304.687953 
L 416.842105 307.279282 
L 458.526316 307.438697 
L 500.210526 301.428607 
L 541.894737 302.951192 
L 583.578947 303.727761 
L 625.263158 306.195311 
L 666.947368 308.03014 
L 708.631579 307.714902 
L 750.315789 306.084575 
" clip-path="url(#pcd5b0d027e)" style="fill: none; stroke: #000000; stroke-width: 1.5; stroke-linecap: square"/>
   </g>
   <g id="line2d_4">
    <path d="M 0 306 
L 41.684211 306 
L 83.368421 305.710976 
L 125.052632 305.943731 
L 166.736842 305.981792 
L 208.421053 306.146768 
L 250.105263 305.85186 
L 291.789474 305.03065 
L 333.473684 304.551006 
L 375.157895 304.865877 
L 416.842105 306.487978 
L 458.526316 306.735331 
L 500.210526 303.190236 
L 541.894737 303.791115 
L 583.578947 304.103662 
L 625.263158 305.479084 
L 666.947368 306.659649 
L 708.631579 306.708426 
L 750.315789 305.951552 
" clip-path="url(#pcd5b0d027e)" style="fill: none; stroke: #000000; stroke-width: 1.5; stroke-linecap: square"/>
   </g>
   <g id="line2d_5">
    <path d="M 0 306 
L 41.684211 306 
L 83.368421 305.72245 
L 125.052632 305.93333 
L 166.736842 305.970171 
L 208.421053 306.114777 
L 250.105263 305.876016 
L 291.789474 305.209647 
L 333.473684 304.804626 
L 375.157895 305.005315 
L 416.842105 306.18728 
L 458.526316 306.406677 
L 500.210526 303.945734 
L 541.894737 304.268029 
L 583.578947 304.423214 
L 625.263158 305.299845 
L 666.947368 306.089477 
L 708.631579 306.182153 
L 750.315789 305.759635 
" clip-path="url(#pcd5b0d027e)" style="fill: none; stroke: #000000; stroke-width: 1.5; stroke-linecap: square"/>
   </g>
   <g id="line2d_6">
    <path d="M 0 306 
L 41.684211 306 
L 83.368421 305.728207 
L 125.052632 305.928523 
L 166.736842 305.964448 
L 208.421053 306.099045 
L 250.105263 305.885944 
L 291.789474 305.292578 
L 333.473684 304.927379 
L 375.157895 305.083196 
L 416.842105 306.06909 
L 458.526316 306.263973 
L 500.210526 304.274282 
L 541.894737 304.500317 
L 583.578947 304.601158 
L 625.263158 305.266997 
L 666.947368 305.874833 
L 708.631579 305.962301 
L 750.315789 305.66472 
" clip-path="url(#pcd5b0d027e)" style="fill: none; stroke: #000000; stroke-width: 1.5; stroke-linecap: square"/>
   </g>
   <g id="line2d_7">
    <path d="M 0 306 
L 41.684211 306 
L 83.368421 305.731087 
L 125.052632 305.926222 
L 166.736842 305.961623 
L 208.421053 306.091285 
L 250.105263 305.890367 
L 291.789474 305.332094 
L 333.473684 304.986984 
L 375.157895 305.123329 
L 416.842105 306.018441 
L 458.526316 306.199672 
L 500.210526 304.42463 
L 541.894737 304.61195 
L 583.578947 304.691407 
L 625.263158 305.264131 
L 666.947368 305.788779 
L 708.631579 305.869563 
L 750.315789 305.623474 
" clip-path="url(#pcd5b0d027e)" style="fill: none; stroke: #000000; stroke-width: 1.5; stroke-linecap: square"/>
   </g>
   <g id="line2d_8">
    <path d="M 0 306 
L 41.684211 306 
L 83.368421 305.732528 
L 125.052632 305.925097 
L 166.736842 305.960222 
L 208.421053 306.087436 
L 250.105263 305.892444 
L 291.789474 305.351331 
L 333.473684 305.016254 
L 375.157895 305.143577 
L 416.842105 305.995223 
L 458.526316 306.16943 
L 500.210526 304.4962 
L 541.894737 304.666297 
L 583.578947 304.736403 
L 625.263158 305.265825 
L 666.947368 305.751237 
L 708.631579 305.828034 
L 750.315789 305.60505 
" clip-path="url(#pcd5b0d027e)" style="fill: none; stroke: #000000; stroke-width: 1.5; stroke-linecap: square"/>
   </g>
   <g id="line2d_9">
    <path d="M 0 306 
L 41.684211 306 
L 83.368421 305.733248 
L 125.052632 305.924542 
L 166.736842 305.959524 
L 208.421053 306.08552 
L 250.105263 305.893449 
L 291.789474 305.360816 
L 333.473684 305.030746 
L 375.157895 305.153732 
L 416.842105 305.984137 
L 458.526316 306.1548 
L 500.210526 304.531074 
L 541.894737 304.693064 
L 583.578947 304.758814 
L 625.263158 305.26741 
L 666.947368 305.733835 
L 708.631579 305.808522 
L 750.315789 305.596452 
" clip-path="url(#pcd5b0d027e)" style="fill: none; stroke: #000000; stroke-width: 1.5; stroke-linecap: square"/>
   </g>
  </g>
 </g>
 <defs>
  <clipPath id="pcd5b0d027e">
   <rect x="0" y="0" width="792" height="612"/>
  </clipPath>
 </defs>
</svg>
