<?xml version="1.0" encoding="utf-8" standalone="no"?>
<!DOCTYPE svg PUBLIC "-//W3C//DTD SVG 1.1//EN"
  "http://www.w3.org/Graphics/SVG/1.1/DTD/svg11.dtd">
<svg xmlns:xlink="http://www.w3.org/1999/xlink" width="792pt" height="612pt" viewBox="0 0 792 612" xmlns="http://www.w3.org/2000/svg" version="1.1">
 <metadata>
  <rdf:RDF xmlns:dc="http://purl.org/dc/elements/1.1/" xmlns:cc="http://creativecommons.org/ns#" xmlns:rdf="http://www.w3.org/1999/02/22-rdf-syntax-ns#">
   <cc:Work>
    <dc:type rdf:resource="http://purl.org/dc/dcmitype/StillImage"/>
    <dc:date>2022-12-19T20:29:33.727739</dc:date>
    <dc:format>image/svg+xml</dc:format>
    <dc:creator>
     <cc:Agent>
      <dc:title>Matplotlib v3.6.2, https://matplotlib.org/</dc:title>
     </cc:Agent>
    </dc:creator>
   </cc:Work>
  </rdf:RDF>
 </metadata>
 <defs>
  <style type="text/css">*{stroke-linejoin: round; stroke-linecap: butt}</style>
 </defs>
 <g id="figure_1">
  <g id="patch_1">
   <path d="M 0 612 
L 792 612 
L 792 0 
L 0 0 
z
" style="fill: #ffffff"/>
  </g>
  <g id="axes_1">
   <g id="line2d_1">
    <path d="M 0 459 
L 3.155378 463.985798 
L 6.310757 461.141279 
L 9.466135 465.536535 
L 12.621514 466.03241 
L 15.776892 467.786005 
L 18.932271 464.459134 
L 22.087649 461.794932 
L 25.243028 461.123247 
L 28.398406 454.875332 
L 31.553785 456.49811 
L 34.709163 455.551479 
L 37.864542 459.036064 
L 41.01992 460.38845 
L 44.175299 461.096199 
L 47.330677 463.683765 
L 50.486056 469.377313 
L 53.641434 470.504302 
L 59.952191 470.328491 
L 63.10757 470.008427 
L 66.262948 468.525309 
L 69.418327 474.597525 
L 72.573705 472.163229 
L 75.729084 475.566735 
L 78.884462 475.260194 
L 82.039841 476.040071 
L 85.195219 478.551002 
L 88.350598 478.397731 
L 91.505976 481.95 
L 94.661355 478.244461 
L 97.816733 476.833471 
L 100.972112 473.037773 
L 104.12749 471.811609 
L 107.282869 472.812375 
L 110.438247 470.693636 
L 113.593625 476.197849 
L 116.749004 474.083618 
L 119.904382 476.333088 
L 123.059761 474.705716 
L 126.215139 471.707926 
L 129.370518 475.68845 
L 132.525896 478.997289 
L 135.681275 479.015321 
L 138.836653 476.54947 
L 141.992032 476.986741 
L 145.14741 480.940218 
L 148.302789 482.202445 
L 151.458167 482.297113 
L 154.613546 485.655539 
L 157.768924 479.200147 
L 160.924303 477.973984 
L 164.079681 477.306806 
L 167.23506 479.037861 
L 170.390438 476.675692 
L 173.545817 478.600589 
L 176.701195 481.33241 
L 179.856574 486.268621 
L 183.011952 487.648055 
L 186.167331 481.945492 
L 189.322709 483.257307 
L 192.478088 485.745698 
L 195.633466 487.382086 
L 198.788845 482.554066 
L 201.944223 479.290306 
L 205.099602 478.916146 
L 208.25498 476.567501 
L 211.410359 477.140012 
L 214.565737 474.931114 
L 217.721116 476.991249 
L 220.876494 474.913082 
L 224.031873 475.102416 
L 227.187251 471.937831 
L 230.342629 469.814585 
L 233.498008 470.513318 
L 236.653386 473.015233 
L 239.808765 472.51485 
L 242.964143 470.012935 
L 246.119522 471.856688 
L 249.2749 476.986741 
L 252.430279 476.143754 
L 255.585657 478.127254 
L 258.741036 483.40607 
L 261.896414 484.848615 
L 265.051793 482.342192 
L 268.207171 485.853889 
L 271.36255 485.54284 
L 274.517928 483.388038 
L 277.673307 482.910194 
L 280.828685 485.41211 
L 283.984064 488.468503 
L 287.139442 485.452681 
L 290.294821 490.186034 
L 293.450199 484.325692 
L 296.605578 481.436093 
L 299.760956 486.895227 
L 302.916335 483.762198 
L 306.071713 484.974838 
L 309.227092 481.278315 
L 312.38247 486.971862 
L 315.537849 488.152946 
L 318.693227 492.728521 
L 321.848606 490.510607 
L 325.003984 494.545227 
L 328.159363 496.889364 
L 331.314741 494.288273 
L 334.47012 494.116971 
L 337.625498 491.718739 
L 340.780876 497.461874 
L 343.936255 497.885622 
L 347.091633 498.147083 
L 350.247012 494.500147 
L 353.40239 494.964467 
L 356.557769 493.65716 
L 359.713147 492.133471 
L 362.868526 488.824632 
L 366.023904 489.442222 
L 369.179283 489.194284 
L 372.334661 488.220566 
L 375.49004 490.276193 
L 378.645418 490.848704 
L 381.800797 489.15822 
L 384.956175 490.100383 
L 388.111554 492.633854 
L 391.266932 497.953241 
L 394.422311 502.790277 
L 397.577689 501.785003 
L 400.733068 498.50772 
L 403.888446 501.568621 
L 407.043825 500.360489 
L 410.199203 497.615144 
L 413.354582 497.89013 
L 416.50996 495.307071 
L 419.665339 491.322039 
L 422.820717 492.588774 
L 425.976096 496.379965 
L 429.131474 494.675958 
L 432.286853 496.222186 
L 435.442231 494.982499 
L 441.752988 491.993724 
L 444.908367 491.006482 
L 448.063745 491.340071 
L 451.219124 492.760077 
L 454.374502 497.6467 
L 457.52988 498.074956 
L 460.685259 497.461874 
L 463.840637 496.271774 
L 466.996016 497.385239 
L 470.151394 495.005038 
L 476.462151 492.611314 
L 479.61753 494.630878 
L 482.772908 495.320595 
L 485.928287 498.444608 
L 489.083665 490.853212 
L 492.239044 487.39561 
L 495.394422 485.443665 
L 498.549801 486.674337 
L 501.705179 488.112375 
L 504.860558 484.663789 
L 508.015936 484.13185 
L 511.171315 484.465439 
L 514.326693 485.632999 
L 517.482072 484.740424 
L 520.63745 481.647967 
L 523.792829 482.612669 
L 526.948207 480.408279 
L 530.103586 479.705038 
L 533.258964 480.047643 
L 539.569721 481.192664 
L 542.7251 483.004862 
L 545.880478 486.791544 
L 549.035857 487.382086 
L 552.191235 487.675103 
L 555.346614 486.295669 
L 558.501992 491.146229 
L 561.657371 492.435504 
L 564.812749 493.454302 
L 567.968127 494.130495 
L 571.123506 494.612846 
L 574.278884 496.569299 
L 577.434263 497.836034 
L 580.589641 495.654184 
L 583.74502 495.460342 
L 586.900398 492.782616 
L 590.055777 491.795374 
L 593.211155 498.404037 
L 596.366534 498.300354 
L 599.521912 501.383795 
L 602.677291 501.672304 
L 605.832669 501.771479 
L 608.988048 502.704626 
L 612.143426 504.28241 
L 615.298805 503.367295 
L 618.454183 504.74673 
L 621.609562 504.958603 
L 624.76494 505.427431 
L 627.920319 503.326724 
L 631.075697 504.936064 
L 634.231076 507.009723 
L 640.541833 499.806011 
L 643.697211 499.661756 
L 646.85259 500.748173 
L 650.007968 506.405657 
L 653.163347 508.655127 
L 656.318725 510.386181 
L 659.474104 510.232911 
L 662.629482 506.405657 
L 665.784861 508.966176 
L 668.940239 504.92254 
L 672.095618 504.485268 
L 675.250996 505.395875 
L 678.406375 505.544638 
L 681.561753 502.853388 
L 684.717131 500.540807 
L 687.87251 499.003595 
L 691.027888 507.72198 
L 694.183267 509.782115 
L 697.338645 505.67086 
L 703.649402 509.141986 
L 706.804781 512.779906 
L 709.960159 515.41706 
L 713.115538 512.198379 
L 716.270916 509.277225 
L 719.426295 508.826429 
L 722.581673 510.791897 
L 725.737052 502.465704 
L 728.89243 500.603919 
L 732.047809 503.110342 
L 735.203187 502.921008 
L 744.669323 503.259104 
L 747.824701 502.884944 
L 750.98008 501.541573 
L 754.135458 500.392045 
L 757.290837 500.432616 
L 760.446215 503.015675 
L 763.601594 503.660312 
L 766.756972 496.984031 
L 769.912351 497.186889 
L 773.067729 497.038126 
L 779.378486 501.501002 
L 782.533865 501.839098 
L 785.689243 500.473188 
L 788.844622 501.365763 
L 788.844622 501.365763 
" clip-path="url(#p9bd490501e)" style="fill: none; stroke: #000000; stroke-width: 1.5; stroke-linecap: square"/>
   </g>
   <g id="line2d_2">
    <path d="M 0 459 
L 3.155378 459 
L 6.310757 462.323866 
L 9.466135 461.648102 
L 12.621514 463.721933 
L 15.776892 464.914437 
L 18.932271 466.373011 
L 22.087649 465.408538 
L 25.243028 463.594649 
L 28.398406 462.363111 
L 31.553785 459.981621 
L 34.709163 459.067991 
L 37.864542 457.332488 
L 41.01992 458.179182 
L 44.175299 459.542917 
L 47.330677 460.312964 
L 50.486056 462.002068 
L 53.641434 465.705875 
L 56.796813 468.130342 
L 59.952191 469.305309 
L 63.10757 469.841367 
L 66.262948 469.946411 
L 69.418327 469.251815 
L 72.573705 471.951143 
L 75.729084 472.073813 
L 78.884462 473.83241 
L 85.195219 475.308845 
L 88.350598 476.946046 
L 91.505976 477.688338 
L 94.661355 479.845492 
L 97.816733 479.052127 
L 100.972112 477.951956 
L 104.12749 475.489906 
L 107.282869 473.643995 
L 110.438247 473.221856 
L 113.593625 471.942339 
L 116.749004 474.065781 
L 119.904382 474.059275 
L 123.059761 475.192434 
L 126.215139 474.944903 
L 129.370518 473.323807 
L 132.525896 474.51373 
L 135.681275 476.767637 
L 138.836653 477.907796 
L 141.992032 477.229322 
L 145.14741 477.113724 
L 148.302789 479.036005 
L 151.458167 480.633925 
L 154.613546 481.486282 
L 157.768924 483.590454 
L 160.924303 481.395698 
L 164.079681 479.682799 
L 167.23506 478.496288 
L 170.390438 478.771096 
L 173.545817 477.715032 
L 176.701195 478.150748 
L 179.856574 479.739688 
L 183.011952 483.005357 
L 186.167331 485.34327 
L 189.322709 483.652169 
L 192.478088 483.466405 
L 195.633466 484.619204 
L 198.788845 486.021638 
L 201.944223 484.295604 
L 205.099602 481.788951 
L 208.25498 480.338132 
L 211.410359 478.43109 
L 214.565737 477.776128 
L 217.721116 476.337295 
L 220.876494 476.647107 
L 224.031873 475.755645 
L 227.187251 475.41442 
L 230.342629 473.661709 
L 233.498008 471.720301 
L 236.653386 471.104938 
L 239.808765 472.051998 
L 242.964143 472.278686 
L 246.119522 471.132127 
L 249.2749 471.488415 
L 252.430279 474.241273 
L 255.585657 475.20076 
L 258.741036 476.680306 
L 261.896414 480.068468 
L 265.051793 482.481744 
L 268.207171 482.431237 
L 271.36255 484.173624 
L 274.517928 484.885068 
L 277.673307 484.149104 
L 280.828685 483.542917 
L 283.984064 484.491797 
L 287.139442 486.490077 
L 290.294821 485.972563 
L 293.450199 488.094679 
L 296.605578 486.207189 
L 299.760956 483.813589 
L 302.916335 485.361285 
L 306.071713 484.563412 
L 309.227092 484.768268 
L 312.38247 483.009193 
L 315.537849 484.993506 
L 318.693227 486.56924 
L 321.848606 489.665357 
L 325.003984 490.105775 
L 331.314741 494.640672 
L 337.625498 494.325027 
L 340.780876 493.03119 
L 343.936255 495.264785 
L 347.091633 496.585315 
L 350.247012 497.381173 
L 353.40239 495.940572 
L 356.557769 495.448745 
L 359.713147 494.551715 
L 362.868526 493.338704 
L 366.023904 491.075993 
L 369.179283 490.243382 
L 372.334661 489.701791 
L 375.49004 488.941715 
L 381.800797 490.216618 
L 384.956175 489.678598 
L 388.111554 489.885504 
L 391.266932 491.267148 
L 394.422311 494.626883 
L 397.577689 498.735239 
L 400.733068 500.286718 
L 403.888446 499.413359 
L 407.043825 500.512009 
L 410.199203 500.458214 
L 413.354582 499.051414 
L 416.50996 498.481078 
L 419.665339 496.888886 
L 422.820717 494.082976 
L 425.976096 493.317843 
L 429.131474 494.844732 
L 432.286853 494.74683 
L 435.442231 495.476394 
L 438.59761 495.224284 
L 441.752988 494.357749 
L 448.063745 492.087242 
L 451.219124 491.711208 
L 454.374502 492.228544 
L 457.52988 494.943447 
L 460.685259 496.512834 
L 463.840637 496.992216 
L 466.996016 496.637413 
L 470.151394 497.021897 
L 473.306773 496.021308 
L 479.61753 493.755539 
L 482.772908 494.187295 
L 485.928287 494.748544 
L 489.083665 496.598503 
L 492.239044 493.715233 
L 495.394422 490.535834 
L 498.549801 487.971002 
L 501.705179 487.308757 
L 504.860558 487.701744 
L 508.015936 486.163223 
L 511.171315 485.125598 
L 514.326693 484.768108 
L 517.482072 485.190318 
L 520.63745 484.960165 
L 523.792829 483.296623 
L 526.948207 482.946682 
L 530.103586 481.662375 
L 533.258964 480.673984 
L 536.414343 480.352805 
L 539.569721 480.506093 
L 542.7251 480.840672 
L 545.880478 481.919364 
L 549.035857 484.365539 
L 552.191235 485.883164 
L 555.346614 486.793382 
L 558.501992 486.557448 
L 561.657371 488.8736 
L 564.812749 490.677613 
L 567.968127 492.09 
L 571.123506 493.132062 
L 574.278884 493.88779 
L 580.589641 496.56122 
L 586.900398 495.801656 
L 590.055777 494.292817 
L 593.211155 493.040843 
L 596.366534 495.730819 
L 599.521912 497.022817 
L 602.677291 499.212746 
L 605.832669 500.450047 
L 608.988048 501.122758 
L 612.143426 501.927896 
L 615.298805 503.127702 
L 618.454183 503.270189 
L 621.609562 504.020896 
L 627.920319 504.973047 
L 631.075697 504.153129 
L 634.231076 504.550801 
L 637.386454 505.788704 
L 640.541833 504.630513 
L 643.697211 502.211279 
L 646.85259 500.926547 
L 650.007968 500.829104 
L 653.163347 503.619299 
L 656.318725 506.147661 
L 659.474104 508.277608 
L 662.629482 509.261579 
L 665.784861 507.839364 
L 668.940239 508.420731 
L 672.095618 506.681951 
L 675.250996 505.590937 
L 678.406375 505.491426 
L 681.561753 505.511933 
L 684.717131 504.16789 
L 687.87251 502.335345 
L 691.027888 500.654956 
L 694.183267 504.186028 
L 697.338645 506.9936 
L 700.494024 506.334555 
L 703.649402 506.84954 
L 706.804781 508.002817 
L 713.115538 512.943111 
L 716.270916 512.596618 
L 719.426295 510.939971 
L 722.581673 509.881326 
L 725.737052 510.346653 
L 728.89243 506.396588 
L 732.047809 503.483512 
L 738.358566 503.074985 
L 744.669323 503.030719 
L 747.824701 503.133995 
L 750.98008 502.993966 
L 754.135458 502.265958 
L 757.290837 501.328586 
L 760.446215 500.875351 
L 763.601594 501.945698 
L 766.756972 502.804243 
L 769.912351 499.882239 
L 773.067729 498.522658 
L 776.223108 497.768928 
L 779.378486 498.485374 
L 782.533865 499.995362 
L 785.689243 500.919988 
L 788.844622 500.691603 
L 788.844622 500.691603 
" clip-path="url(#p9bd490501e)" style="fill: none; stroke: #000000; stroke-width: 1.5; stroke-linecap: square"/>
   </g>
   <g id="line2d_3">
    <path d="M 0 459 
L 3.155378 459 
L 6.310757 461.920613 
L 9.466135 461.567511 
L 12.621514 463.117511 
L 15.776892 464.154598 
L 18.932271 465.370157 
L 22.087649 465.077453 
L 25.243028 464.05193 
L 28.398406 463.154476 
L 31.553785 461.482709 
L 34.709163 460.489325 
L 37.864542 459.704154 
L 41.01992 459.506289 
L 44.175299 459.766702 
L 47.330677 460.158266 
L 50.486056 461.19491 
L 53.641434 463.6034 
L 56.796813 465.632114 
L 59.952191 467.048691 
L 63.10757 468.014826 
L 66.262948 468.603305 
L 69.418327 468.58131 
L 72.573705 470.355064 
L 75.729084 470.896572 
L 78.884462 472.281021 
L 85.195219 474.033881 
L 88.350598 475.380692 
L 91.505976 476.286601 
L 94.661355 477.970138 
L 97.816733 478.070182 
L 100.972112 477.723061 
L 107.282869 475.025756 
L 110.438247 474.380206 
L 113.593625 473.300854 
L 116.749004 474.156473 
L 119.904382 474.141519 
L 123.059761 474.785408 
L 126.215139 474.764987 
L 129.370518 473.865162 
L 132.525896 474.399683 
L 135.681275 475.749687 
L 138.836653 476.706703 
L 141.992032 476.658527 
L 145.14741 476.748958 
L 151.458167 479.222642 
L 154.613546 480.133769 
L 157.768924 481.766959 
L 160.924303 481.022494 
L 167.23506 479.310014 
L 170.390438 479.235993 
L 173.545817 478.486492 
L 176.701195 478.524384 
L 179.856574 479.35789 
L 183.011952 481.394149 
L 186.167331 483.235812 
L 189.322709 482.861252 
L 192.478088 482.984958 
L 195.633466 483.803621 
L 198.788845 484.859128 
L 201.944223 484.184395 
L 205.099602 482.747496 
L 208.25498 481.617579 
L 211.410359 480.135421 
L 214.565737 479.257128 
L 217.721116 477.987339 
L 220.876494 477.693241 
L 224.031873 476.876926 
L 227.187251 476.353166 
L 230.342629 475.049154 
L 233.498008 473.497085 
L 236.653386 472.603479 
L 239.808765 472.713821 
L 242.964143 472.643205 
L 246.119522 471.854746 
L 249.2749 471.837482 
L 252.430279 473.339271 
L 255.585657 474.157071 
L 258.741036 475.319004 
L 261.896414 477.695506 
L 265.051793 479.799457 
L 268.207171 480.552719 
L 271.36255 482.115576 
L 274.517928 483.131608 
L 277.673307 483.216231 
L 280.828685 483.139198 
L 283.984064 483.822834 
L 287.139442 485.204142 
L 290.294821 485.291223 
L 293.450199 486.745177 
L 296.605578 486.052966 
L 299.760956 484.711718 
L 302.916335 485.362634 
L 306.071713 484.902628 
L 309.227092 484.931643 
L 312.38247 483.859164 
L 318.693227 485.769843 
L 321.848606 487.815889 
L 325.003984 488.61086 
L 328.159363 490.361811 
L 331.314741 492.289743 
L 334.47012 492.885294 
L 337.625498 493.252532 
L 340.780876 492.810492 
L 343.936255 494.181207 
L 347.091633 495.28178 
L 350.247012 496.140202 
L 353.40239 495.668576 
L 356.557769 495.475214 
L 359.713147 494.952691 
L 362.868526 494.139429 
L 366.023904 492.584889 
L 369.179283 491.665904 
L 375.49004 490.139398 
L 378.645418 490.174561 
L 381.800797 490.365074 
L 384.956175 490.005703 
L 388.111554 490.02882 
L 391.266932 490.792868 
L 394.422311 492.890657 
L 397.577689 495.795822 
L 400.733068 497.554191 
L 403.888446 497.838076 
L 407.043825 498.938313 
L 410.199203 499.362558 
L 413.354582 498.857049 
L 416.50996 498.584257 
L 419.665339 497.631128 
L 422.820717 495.785683 
L 425.976096 494.854347 
L 429.131474 495.308201 
L 432.286853 495.127417 
L 435.442231 495.456181 
L 438.59761 495.32305 
L 441.752988 494.792555 
L 448.063745 493.085608 
L 451.219124 492.562355 
L 454.374502 492.613665 
L 457.52988 494.083302 
L 460.685259 495.249805 
L 463.840637 495.897529 
L 466.996016 496.005284 
L 470.151394 496.41185 
L 473.306773 496.004035 
L 476.462151 495.351016 
L 479.61753 494.544247 
L 482.772908 494.569569 
L 485.928287 494.788504 
L 489.083665 495.863329 
L 492.239044 494.39285 
L 498.549801 490.312394 
L 501.705179 489.241473 
L 504.860558 488.905429 
L 508.015936 487.64817 
L 511.171315 486.602248 
L 514.326693 485.961464 
L 517.482072 485.853039 
L 520.63745 485.512638 
L 523.792829 484.36536 
L 526.948207 483.839194 
L 533.258964 481.890707 
L 536.414343 481.333344 
L 539.569721 481.119888 
L 542.7251 481.130107 
L 545.880478 481.674167 
L 549.035857 483.17456 
L 552.191235 484.407729 
L 555.346614 485.364218 
L 558.501992 485.638908 
L 564.812749 488.78504 
L 567.968127 490.161619 
L 571.123506 491.334861 
L 574.278884 492.309852 
L 580.589641 494.841947 
L 583.74502 495.098165 
L 586.900398 495.221947 
L 593.211155 493.735138 
L 596.366534 495.120314 
L 599.521912 496.064945 
L 602.677291 497.638882 
L 605.832669 498.836321 
L 612.143426 500.603058 
L 615.298805 501.694323 
L 618.454183 502.195711 
L 621.609562 502.955081 
L 627.920319 504.112736 
L 631.075697 503.888825 
L 634.231076 504.206215 
L 637.386454 505.040609 
L 640.541833 504.594477 
L 643.697211 503.201169 
L 646.85259 502.165943 
L 650.007968 501.7535 
L 653.163347 503.121853 
L 659.474104 506.41107 
L 662.629482 507.539109 
L 665.784861 507.209567 
L 668.940239 507.730497 
L 675.250996 506.198043 
L 678.406375 505.963058 
L 681.561753 505.843053 
L 684.717131 504.965008 
L 691.027888 502.292278 
L 694.183267 503.891693 
L 697.338645 505.628582 
L 700.494024 505.646619 
L 703.649402 506.148623 
L 706.804781 507.025918 
L 709.960159 508.713971 
L 713.115538 510.683215 
L 716.270916 511.13365 
L 722.581673 510.078139 
L 725.737052 510.294438 
L 732.047809 505.826712 
L 735.203187 505.031401 
L 738.358566 504.416015 
L 741.513944 504.014449 
L 744.669323 503.727114 
L 750.98008 503.375022 
L 754.135458 502.831338 
L 757.290837 502.106835 
L 760.446215 501.602286 
L 766.756972 502.477911 
L 769.912351 500.854671 
L 773.067729 499.767033 
L 776.223108 498.951957 
L 779.378486 499.024079 
L 782.533865 499.750583 
L 785.689243 500.360835 
L 788.844622 500.390931 
L 788.844622 500.390931 
" clip-path="url(#p9bd490501e)" style="fill: none; stroke: #000000; stroke-width: 1.5; stroke-linecap: square"/>
   </g>
   <g id="line2d_4">
    <path d="M 0 459 
L 3.155378 459 
L 6.310757 461.708354 
L 9.466135 461.485797 
L 12.621514 462.774771 
L 15.776892 463.669086 
L 18.932271 464.682343 
L 22.087649 464.631805 
L 28.398406 463.444419 
L 31.553785 462.31972 
L 37.864542 460.871955 
L 41.01992 460.545549 
L 44.175299 460.51813 
L 47.330677 460.617488 
L 50.486056 461.137867 
L 56.796813 463.850328 
L 59.952191 464.937942 
L 63.10757 465.823264 
L 66.262948 466.507109 
L 69.418327 466.835467 
L 72.573705 468.09382 
L 75.729084 468.751555 
L 78.884462 469.850311 
L 85.195219 471.574933 
L 88.350598 472.69359 
L 91.505976 473.607141 
L 94.661355 474.941894 
L 97.816733 475.469796 
L 100.972112 475.687612 
L 104.12749 475.274772 
L 107.282869 474.728653 
L 110.438247 474.431048 
L 113.593625 473.83963 
L 116.749004 474.221174 
L 119.904382 474.203218 
L 123.059761 474.549496 
L 126.215139 474.582407 
L 129.370518 474.131671 
L 132.525896 474.39063 
L 135.681275 475.136564 
L 138.836653 475.766893 
L 145.14741 476.085221 
L 154.613546 478.464712 
L 157.768924 479.618251 
L 160.924303 479.5572 
L 167.23506 478.995901 
L 170.390438 479.009137 
L 173.545817 478.639174 
L 176.701195 478.637051 
L 179.856574 479.06949 
L 186.167331 481.410558 
L 189.322709 481.497786 
L 192.478088 481.780764 
L 195.633466 482.413968 
L 198.788845 483.210114 
L 201.944223 483.109304 
L 208.25498 481.938929 
L 211.410359 481.086658 
L 214.565737 480.462755 
L 217.721116 479.58186 
L 220.876494 479.171499 
L 224.031873 478.493084 
L 227.187251 477.953864 
L 230.342629 476.996835 
L 233.498008 475.850448 
L 236.653386 474.995998 
L 242.964143 474.330567 
L 246.119522 473.639265 
L 249.2749 473.349983 
L 252.430279 473.92535 
L 255.585657 474.274467 
L 258.741036 474.882762 
L 265.051793 477.615191 
L 268.207171 478.370416 
L 271.36255 479.565316 
L 274.517928 480.521894 
L 277.673307 480.980895 
L 280.828685 481.288838 
L 283.984064 481.944331 
L 287.139442 482.982862 
L 290.294821 483.378007 
L 293.450199 484.465512 
L 296.605578 484.44238 
L 299.760956 483.960359 
L 302.916335 484.430016 
L 306.071713 484.326554 
L 309.227092 484.433478 
L 312.38247 483.93442 
L 318.693227 485.025389 
L 321.848606 486.260804 
L 325.003984 486.946694 
L 328.159363 488.167779 
L 331.314741 489.570983 
L 334.47012 490.336791 
L 337.625498 490.952958 
L 340.780876 491.086466 
L 347.091633 493.051679 
L 350.247012 493.87878 
L 356.557769 494.155581 
L 359.713147 494.08597 
L 362.868526 493.780766 
L 366.023904 492.994708 
L 375.49004 491.333557 
L 378.645418 491.169624 
L 381.800797 491.123518 
L 384.956175 490.813169 
L 388.111554 490.700781 
L 391.266932 491.01282 
L 394.422311 492.121912 
L 397.577689 493.830808 
L 400.733068 495.109045 
L 403.888446 495.657032 
L 407.043825 496.608697 
L 410.199203 497.21522 
L 416.50996 497.39149 
L 419.665339 497.064315 
L 422.820717 496.149821 
L 425.976096 495.584542 
L 429.131474 495.712242 
L 432.286853 495.545984 
L 435.442231 495.654777 
L 438.59761 495.548355 
L 441.752988 495.224907 
L 451.219124 493.668647 
L 454.374502 493.523004 
L 460.685259 494.803108 
L 463.840637 495.229451 
L 466.996016 495.399935 
L 470.151394 495.72076 
L 473.306773 495.610512 
L 476.462151 495.32112 
L 479.61753 494.891437 
L 482.772908 494.852341 
L 485.928287 494.930687 
L 489.083665 495.49497 
L 492.239044 494.755339 
L 495.394422 493.577792 
L 498.549801 492.2728 
L 501.705179 491.372637 
L 504.860558 490.847431 
L 511.171315 488.932656 
L 514.326693 488.213701 
L 520.63745 487.302795 
L 523.792829 486.397056 
L 526.948207 485.788722 
L 533.258964 484.083218 
L 536.414343 483.431052 
L 539.569721 482.983507 
L 542.7251 482.690893 
L 545.880478 482.735238 
L 555.346614 484.592127 
L 558.501992 484.856084 
L 577.434263 490.901284 
L 580.589641 492.007887 
L 583.74502 492.588665 
L 586.900398 493.045646 
L 590.055777 493.000264 
L 593.211155 492.80915 
L 596.366534 493.706185 
L 599.521912 494.445155 
L 602.677291 495.558296 
L 605.832669 496.539517 
L 612.143426 498.240954 
L 615.298805 499.214536 
L 618.454183 499.88632 
L 624.76494 501.368652 
L 627.920319 502.028653 
L 631.075697 502.24948 
L 634.231076 502.692668 
L 637.386454 503.396349 
L 640.541833 503.423167 
L 646.85259 502.360934 
L 650.007968 502.113046 
L 653.163347 502.807885 
L 656.318725 503.751292 
L 659.474104 504.821958 
L 662.629482 505.694769 
L 665.784861 505.81659 
L 668.940239 506.327379 
L 675.250996 505.858162 
L 681.561753 505.75587 
L 684.717131 505.298567 
L 687.87251 504.54476 
L 691.027888 503.667022 
L 694.183267 504.322118 
L 697.338645 505.197922 
L 700.494024 505.277767 
L 703.649402 505.612281 
L 706.804781 506.17853 
L 709.960159 507.235701 
L 713.115538 508.545317 
L 716.270916 509.131471 
L 722.581673 509.108084 
L 725.737052 509.379625 
L 728.89243 508.277747 
L 732.047809 507.055115 
L 738.358566 505.866085 
L 744.669323 505.040557 
L 750.98008 504.462472 
L 757.290837 503.416359 
L 760.446215 502.935424 
L 766.756972 503.055994 
L 769.912351 502.082447 
L 776.223108 500.616197 
L 779.378486 500.38876 
L 785.689243 500.765566 
L 788.844622 500.719005 
L 788.844622 500.719005 
" clip-path="url(#p9bd490501e)" style="fill: none; stroke: #000000; stroke-width: 1.5; stroke-linecap: square"/>
   </g>
   <g id="line2d_5">
    <path d="M 0 459 
L 3.155378 459 
L 6.310757 461.600828 
L 9.466135 461.434198 
L 12.621514 462.596661 
L 18.932271 464.304079 
L 22.087649 464.332378 
L 28.398406 463.483873 
L 31.553785 462.644851 
L 37.864542 461.502008 
L 41.01992 461.199158 
L 47.330677 461.102583 
L 50.486056 461.38822 
L 59.952191 463.868303 
L 66.262948 465.063292 
L 69.418327 465.400795 
L 72.573705 466.284555 
L 75.729084 466.842162 
L 82.039841 468.364888 
L 85.195219 469.069847 
L 94.661355 471.706436 
L 97.816733 472.288754 
L 100.972112 472.691094 
L 107.282869 472.641899 
L 110.438247 472.656765 
L 113.593625 472.486299 
L 116.749004 472.807354 
L 119.904382 472.917367 
L 123.059761 473.21086 
L 126.215139 473.338929 
L 129.370518 473.199569 
L 132.525896 473.411711 
L 138.836653 474.322008 
L 145.14741 474.720094 
L 154.613546 476.376258 
L 157.768924 477.156655 
L 160.924303 477.328325 
L 176.701195 477.541739 
L 179.856574 477.85862 
L 186.167331 479.319972 
L 192.478088 479.849258 
L 198.788845 480.927811 
L 201.944223 481.063313 
L 208.25498 480.761083 
L 227.187251 478.790086 
L 230.342629 478.224896 
L 233.498008 477.530842 
L 236.653386 476.952435 
L 242.964143 476.293395 
L 246.119522 475.775275 
L 249.2749 475.45355 
L 258.741036 475.843131 
L 265.051793 477.174745 
L 268.207171 477.607637 
L 274.517928 478.902564 
L 283.984064 480.069455 
L 287.139442 480.770587 
L 290.294821 481.161428 
L 293.450199 481.914271 
L 296.605578 482.115182 
L 299.760956 482.059859 
L 302.916335 482.46445 
L 309.227092 482.779056 
L 312.38247 482.657256 
L 318.693227 483.4505 
L 321.848606 484.226607 
L 325.003984 484.752768 
L 328.159363 485.571959 
L 331.314741 486.519454 
L 337.625498 487.751756 
L 340.780876 488.085134 
L 350.247012 490.338101 
L 356.557769 491.046627 
L 359.713147 491.265895 
L 362.868526 491.34211 
L 369.179283 491.000016 
L 378.645418 490.612406 
L 381.800797 490.635115 
L 388.111554 490.479992 
L 391.266932 490.662233 
L 394.422311 491.27214 
L 397.577689 492.233646 
L 400.733068 493.031058 
L 403.888446 493.490791 
L 407.043825 494.16847 
L 410.199203 494.689362 
L 416.50996 495.190722 
L 419.665339 495.207011 
L 422.820717 494.889238 
L 425.976096 494.704062 
L 429.131474 494.85008 
L 432.286853 494.84303 
L 435.442231 494.966089 
L 438.59761 494.975415 
L 441.752988 494.860328 
L 454.374502 493.987258 
L 463.840637 494.858552 
L 473.306773 495.172235 
L 482.772908 494.843345 
L 485.928287 494.886179 
L 489.083665 495.184762 
L 492.239044 494.827018 
L 501.705179 492.918863 
L 504.860558 492.52034 
L 514.326693 490.666104 
L 520.63745 489.789729 
L 523.792829 489.110389 
L 526.948207 488.568534 
L 536.414343 486.603609 
L 542.7251 485.695815 
L 545.880478 485.467771 
L 558.501992 485.912211 
L 564.812749 486.851315 
L 574.278884 488.514751 
L 580.589641 489.906345 
L 586.900398 490.808244 
L 593.211155 491.040964 
L 602.677291 492.964401 
L 615.298805 495.820724 
L 627.920319 498.431636 
L 634.231076 499.349443 
L 637.386454 499.988727 
L 640.541833 500.280878 
L 650.007968 500.246583 
L 653.163347 500.762665 
L 662.629482 502.844012 
L 665.784861 503.142525 
L 668.940239 503.629997 
L 681.561753 504.077878 
L 684.717131 503.978926 
L 691.027888 503.306067 
L 694.183267 503.67806 
L 697.338645 504.191958 
L 700.494024 504.321285 
L 703.649402 504.579955 
L 706.804781 504.965429 
L 709.960159 505.62315 
L 713.115538 506.446188 
L 716.270916 506.932623 
L 725.737052 507.583838 
L 728.89243 507.165515 
L 732.047809 506.627502 
L 744.669323 505.599018 
L 750.98008 505.206958 
L 763.601594 504.106226 
L 766.756972 504.072871 
L 773.067729 502.963895 
L 776.223108 502.47287 
L 779.378486 502.203004 
L 788.844622 501.987228 
L 788.844622 501.987228 
" clip-path="url(#p9bd490501e)" style="fill: none; stroke: #000000; stroke-width: 1.5; stroke-linecap: square"/>
   </g>
   <g id="line2d_6">
    <path d="M 0 459 
L 3.155378 459 
L 6.310757 461.546889 
L 9.466135 461.405788 
L 12.621514 462.506518 
L 18.932271 464.109795 
L 22.087649 464.166414 
L 28.398406 463.468613 
L 31.553785 462.763946 
L 37.864542 461.789623 
L 41.01992 461.518512 
L 47.330677 461.385034 
L 50.486056 461.579951 
L 59.952191 463.435369 
L 66.262948 464.370342 
L 69.418327 464.657034 
L 72.573705 465.325151 
L 75.729084 465.773622 
L 82.039841 466.957114 
L 88.350598 468.181401 
L 91.505976 468.786933 
L 94.661355 469.554174 
L 97.816733 470.052786 
L 100.972112 470.436091 
L 110.438247 470.766328 
L 113.593625 470.762426 
L 116.749004 471.050954 
L 123.059761 471.476598 
L 126.215139 471.642901 
L 129.370518 471.646219 
L 132.525896 471.850752 
L 138.836653 472.548349 
L 145.14741 472.954301 
L 154.613546 474.183483 
L 157.768924 474.73283 
L 164.079681 475.089058 
L 176.701195 475.58201 
L 179.856574 475.848351 
L 186.167331 476.84937 
L 192.478088 477.364617 
L 198.788845 478.183004 
L 201.944223 478.380677 
L 208.25498 478.443935 
L 227.187251 477.834161 
L 233.498008 477.230299 
L 236.653386 476.934023 
L 242.964143 476.57478 
L 249.2749 476.092608 
L 258.741036 476.21934 
L 290.294821 479.317725 
L 293.450199 479.786853 
L 296.605578 479.982621 
L 299.760956 480.045266 
L 302.916335 480.340291 
L 315.537849 480.975455 
L 318.693227 481.283634 
L 321.848606 481.774778 
L 325.003984 482.149471 
L 337.625498 484.204161 
L 340.780876 484.525743 
L 350.247012 486.161923 
L 359.713147 487.168457 
L 362.868526 487.380411 
L 378.645418 487.738037 
L 384.956175 487.925488 
L 391.266932 488.21475 
L 394.422311 488.629475 
L 400.733068 489.766783 
L 403.888446 490.138824 
L 410.199203 491.049055 
L 416.50996 491.616859 
L 419.665339 491.778179 
L 425.976096 491.80245 
L 435.442231 492.301492 
L 441.752988 492.473297 
L 454.374502 492.383696 
L 466.996016 493.18886 
L 473.306773 493.444991 
L 485.928287 493.564627 
L 489.083665 493.775247 
L 492.239044 493.653408 
L 508.015936 492.254021 
L 514.326693 491.597956 
L 520.63745 491.068845 
L 539.569721 488.723821 
L 545.880478 488.177016 
L 558.501992 487.99834 
L 564.812749 488.317338 
L 574.278884 489.027599 
L 583.74502 489.967843 
L 586.900398 490.202235 
L 593.211155 490.376996 
L 602.677291 491.484041 
L 621.609562 494.181219 
L 631.075697 495.458364 
L 640.541833 496.652147 
L 650.007968 497.084125 
L 656.318725 497.963911 
L 662.629482 498.9992 
L 672.095618 499.954031 
L 684.717131 500.696783 
L 691.027888 500.622825 
L 709.960159 502.523918 
L 713.115538 503.075606 
L 716.270916 503.467523 
L 725.737052 504.231184 
L 744.669323 503.8581 
L 754.135458 503.699334 
L 760.446215 503.42841 
L 766.756972 503.424891 
L 776.223108 502.654229 
L 782.533865 502.469158 
L 788.844622 502.362586 
L 788.844622 502.362586 
" clip-path="url(#p9bd490501e)" style="fill: none; stroke: #000000; stroke-width: 1.5; stroke-linecap: square"/>
   </g>
   <g id="line2d_7">
    <path d="M 0 459 
L 3.155378 459 
L 6.310757 461.519897 
L 9.466135 461.390948 
L 12.621514 462.461258 
L 18.932271 464.011885 
L 22.087649 464.080004 
L 28.398406 463.45178 
L 31.553785 462.810696 
L 37.864542 461.920852 
L 41.01992 461.668975 
L 47.330677 461.52794 
L 50.486056 461.685659 
L 59.952191 463.257068 
L 66.262948 464.05862 
L 69.418327 464.311111 
L 72.573705 464.872859 
L 75.729084 465.258204 
L 97.816733 468.863058 
L 100.972112 469.204637 
L 110.438247 469.600953 
L 113.593625 469.644192 
L 119.904382 470.058766 
L 126.215139 470.45759 
L 129.370518 470.503112 
L 135.681275 470.982882 
L 141.992032 471.444913 
L 145.14741 471.633168 
L 154.613546 472.61342 
L 157.768924 473.035934 
L 164.079681 473.383776 
L 176.701195 473.918294 
L 179.856574 474.142348 
L 186.167331 474.89598 
L 192.478088 475.341941 
L 201.944223 476.169258 
L 211.410359 476.339259 
L 220.876494 476.34038 
L 230.342629 476.152054 
L 236.653386 475.836096 
L 255.585657 475.488622 
L 258.741036 475.556684 
L 290.294821 477.644379 
L 293.450199 477.954487 
L 309.227092 478.69375 
L 312.38247 478.756479 
L 318.693227 479.177296 
L 347.091633 482.175144 
L 353.40239 482.832234 
L 359.713147 483.36356 
L 366.023904 483.691015 
L 391.266932 484.772607 
L 397.577689 485.481326 
L 407.043825 486.495779 
L 413.354582 487.057679 
L 419.665339 487.485589 
L 425.976096 487.686157 
L 438.59761 488.373333 
L 448.063745 488.622541 
L 454.374502 488.774917 
L 470.151394 489.692321 
L 489.083665 490.363482 
L 495.394422 490.308316 
L 526.948207 489.192244 
L 542.7251 488.269232 
L 549.035857 488.123825 
L 561.657371 488.126204 
L 574.278884 488.596079 
L 586.900398 489.252546 
L 596.366534 489.579856 
L 602.677291 490.02272 
L 621.609562 491.642873 
L 640.541833 493.272995 
L 650.007968 493.706189 
L 656.318725 494.29936 
L 662.629482 494.985362 
L 678.406375 496.127524 
L 684.717131 496.472244 
L 691.027888 496.613024 
L 709.960159 498.108307 
L 716.270916 498.778075 
L 725.737052 499.466367 
L 757.290837 500.023543 
L 763.601594 500.096622 
L 766.756972 500.173382 
L 779.378486 499.960684 
L 788.844622 500.043027 
L 788.844622 500.043027 
" clip-path="url(#p9bd490501e)" style="fill: none; stroke: #000000; stroke-width: 1.5; stroke-linecap: square"/>
   </g>
   <g id="line2d_8">
    <path d="M 0 459 
L 3.155378 459 
L 6.310757 461.506399 
L 9.466135 461.383372 
L 12.621514 462.438591 
L 18.932271 463.962806 
L 22.087649 464.036035 
L 28.398406 463.44106 
L 31.553785 462.83071 
L 37.864542 461.982672 
L 41.01992 461.74099 
L 47.330677 461.598551 
L 50.486056 461.739729 
L 59.952191 463.178216 
L 66.262948 463.914433 
L 69.418327 464.148707 
L 72.573705 464.659163 
L 75.729084 465.012312 
L 97.816733 468.273828 
L 100.972112 468.588633 
L 110.438247 468.99035 
L 113.593625 469.047176 
L 123.059761 469.649547 
L 135.681275 470.292736 
L 141.992032 470.708396 
L 148.302789 471.15239 
L 160.924303 472.269103 
L 179.856574 473.120803 
L 189.322709 473.933702 
L 195.633466 474.397028 
L 198.788845 474.679858 
L 205.099602 474.944153 
L 214.565737 475.103059 
L 230.342629 475.069771 
L 239.808765 474.845003 
L 255.585657 474.726679 
L 261.896414 474.945451 
L 277.673307 475.756165 
L 283.984064 476.045621 
L 293.450199 476.649797 
L 321.848606 477.903493 
L 328.159363 478.36755 
L 337.625498 479.146594 
L 343.936255 479.624685 
L 353.40239 480.40753 
L 362.868526 480.998578 
L 391.266932 482.114776 
L 397.577689 482.640601 
L 410.199203 483.646036 
L 419.665339 484.202457 
L 429.131474 484.585965 
L 444.908367 485.237297 
L 457.52988 485.664454 
L 473.306773 486.397158 
L 495.394422 487.010147 
L 526.948207 486.735409 
L 545.880478 486.29833 
L 561.657371 486.395569 
L 577.434263 486.876429 
L 586.900398 487.22437 
L 596.366534 487.485862 
L 608.988048 488.129813 
L 665.784861 491.432349 
L 675.250996 491.952796 
L 687.87251 492.496168 
L 694.183267 492.753252 
L 725.737052 494.700463 
L 766.756972 495.780746 
L 782.533865 495.929376 
L 788.844622 496.049294 
L 788.844622 496.049294 
" clip-path="url(#p9bd490501e)" style="fill: none; stroke: #000000; stroke-width: 1.5; stroke-linecap: square"/>
   </g>
   <g id="line2d_9">
    <path d="M 0 459 
L 3.155378 459 
L 6.310757 461.499649 
L 9.466135 461.379545 
L 12.621514 462.427249 
L 18.932271 463.938245 
L 22.087649 464.013872 
L 28.398406 463.435128 
L 31.553785 462.839862 
L 37.864542 462.012561 
L 41.01992 461.776086 
L 47.330677 461.633484 
L 50.486056 461.766897 
L 59.952191 463.141384 
L 66.262948 463.845539 
L 69.418327 464.070569 
L 72.573705 464.556041 
L 75.729084 464.893137 
L 97.816733 467.983946 
L 100.972112 468.284332 
L 110.438247 468.682789 
L 113.593625 468.744101 
L 123.059761 469.319189 
L 141.992032 470.325429 
L 148.302789 470.739774 
L 160.924303 471.769364 
L 179.856574 472.579118 
L 189.322709 473.316872 
L 205.099602 474.245698 
L 214.565737 474.417925 
L 233.498008 474.370684 
L 249.2749 474.156678 
L 261.896414 474.424428 
L 277.673307 475.127074 
L 287.139442 475.561119 
L 309.227092 476.439125 
L 315.537849 476.637328 
L 325.003984 477.158661 
L 356.557769 479.266197 
L 366.023904 479.689881 
L 394.422311 480.773953 
L 407.043825 481.642846 
L 416.50996 482.178441 
L 438.59761 483.045359 
L 495.394422 484.852561 
L 530.103586 484.807103 
L 545.880478 484.636942 
L 564.812749 484.843043 
L 596.366534 485.684793 
L 612.143426 486.321198 
L 643.697211 487.724672 
L 653.163347 488.072751 
L 675.250996 489.136914 
L 687.87251 489.583332 
L 694.183267 489.796721 
L 725.737052 491.302262 
L 766.756972 492.327149 
L 788.844622 492.671555 
L 788.844622 492.671555 
" clip-path="url(#p9bd490501e)" style="fill: none; stroke: #000000; stroke-width: 1.5; stroke-linecap: square"/>
   </g>
  </g>
 </g>
 <defs>
  <clipPath id="p9bd490501e">
   <rect x="0" y="0" width="792" height="612"/>
  </clipPath>
 </defs>
</svg>
