<?xml version="1.0" encoding="utf-8" standalone="no"?>
<!DOCTYPE svg PUBLIC "-//W3C//DTD SVG 1.1//EN"
  "http://www.w3.org/Graphics/SVG/1.1/DTD/svg11.dtd">
<svg xmlns:xlink="http://www.w3.org/1999/xlink" width="792pt" height="612pt" viewBox="0 0 792 612" xmlns="http://www.w3.org/2000/svg" version="1.1">
 <metadata>
  <rdf:RDF xmlns:dc="http://purl.org/dc/elements/1.1/" xmlns:cc="http://creativecommons.org/ns#" xmlns:rdf="http://www.w3.org/1999/02/22-rdf-syntax-ns#">
   <cc:Work>
    <dc:type rdf:resource="http://purl.org/dc/dcmitype/StillImage"/>
    <dc:date>2022-12-19T20:29:34.749738</dc:date>
    <dc:format>image/svg+xml</dc:format>
    <dc:creator>
     <cc:Agent>
      <dc:title>Matplotlib v3.6.2, https://matplotlib.org/</dc:title>
     </cc:Agent>
    </dc:creator>
   </cc:Work>
  </rdf:RDF>
 </metadata>
 <defs>
  <style type="text/css">*{stroke-linejoin: round; stroke-linecap: butt}</style>
 </defs>
 <g id="figure_1">
  <g id="patch_1">
   <path d="M 0 612 
L 792 612 
L 792 0 
L 0 0 
z
" style="fill: #ffffff"/>
  </g>
  <g id="axes_1">
   <g id="line2d_1">
    <path d="M 0 306 
L 3.155378 315.968069 
L 6.310757 300.311616 
L 9.466135 314.788095 
L 12.621514 306.991747 
L 15.776892 309.507036 
L 18.932271 299.347307 
L 22.087649 300.672135 
L 25.243028 304.656638 
L 28.398406 299.004872 
L 31.553785 307.081905 
L 34.709163 305.368887 
L 37.864542 308.371137 
L 41.01992 308.704703 
L 44.175299 307.415488 
L 47.330677 311.174639 
L 50.486056 317.381842 
L 53.641434 308.253937 
L 56.796813 305.855745 
L 59.952191 305.792634 
L 63.10757 305.359871 
L 66.262948 303.033858 
L 69.418327 318.138059 
L 72.573705 301.131819 
L 75.729084 312.80589 
L 78.884462 305.386919 
L 82.039841 307.559739 
L 85.195219 311.021411 
L 88.350598 305.693459 
L 91.505976 313.103261 
L 94.661355 298.59037 
L 97.816733 303.1781 
L 100.972112 298.41016 
L 104.12749 303.547725 
L 107.282869 308.001504 
L 110.438247 301.762793 
L 113.593625 317.00368 
L 116.749004 301.771807 
L 119.904382 310.498615 
L 123.059761 302.745379 
L 126.215139 300.005187 
L 129.370518 313.959253 
L 132.525896 312.616647 
L 135.681275 306.036064 
L 138.836653 301.068724 
L 141.992032 306.874541 
L 145.14741 313.905194 
L 148.302789 308.524398 
L 151.458167 306.189334 
L 154.613546 312.715775 
L 157.768924 293.096872 
L 160.924303 303.547725 
L 164.079681 304.665654 
L 167.23506 309.461962 
L 170.390438 301.276038 
L 173.545817 309.849591 
L 176.701195 311.463061 
L 179.856574 315.868998 
L 183.011952 308.758794 
L 186.167331 294.600152 
L 189.322709 308.623566 
L 192.478088 310.976344 
L 195.633466 309.272651 
L 198.788845 296.347164 
L 201.944223 299.473471 
L 205.099602 305.251681 
L 208.25498 301.30308 
L 211.410359 307.145015 
L 214.565737 301.582511 
L 217.721116 310.120022 
L 220.876494 301.843921 
L 224.031873 306.378668 
L 227.187251 299.671733 
L 230.342629 301.753779 
L 233.498008 307.397456 
L 236.653386 311.003384 
L 239.808765 304.999238 
L 242.964143 300.996616 
L 246.119522 309.687329 
L 249.2749 316.256263 
L 252.430279 304.314042 
L 255.585657 309.966778 
L 258.741036 316.553444 
L 265.051793 300.987602 
L 268.207171 313.022161 
L 271.36255 305.377903 
L 274.517928 301.69068 
L 277.673307 305.044317 
L 280.828685 311.003384 
L 283.984064 312.111974 
L 287.139442 299.969137 
L 290.294821 315.463687 
L 293.450199 294.285045 
L 296.605578 300.221488 
L 299.760956 316.913637 
L 302.916335 299.734818 
L 306.071713 308.425229 
L 309.227092 298.608392 
L 312.38247 317.381842 
L 315.537849 308.362122 
L 318.693227 315.148422 
L 321.848606 301.564483 
L 325.003984 314.06737 
L 328.159363 310.687907 
L 331.314741 300.798321 
L 334.47012 305.657396 
L 337.625498 301.203928 
L 340.780876 317.480878 
L 343.936255 306.847493 
L 347.091633 306.522922 
L 350.247012 298.70751 
L 353.40239 306.928636 
L 356.557769 303.38545 
L 359.713147 302.952723 
L 362.868526 299.383353 
L 366.023904 307.235173 
L 369.179283 305.504125 
L 372.334661 304.05259 
L 375.49004 310.111008 
L 378.645418 307.145015 
L 381.800797 302.619171 
L 384.956175 307.884301 
L 388.111554 311.066479 
L 391.266932 316.63449 
L 394.422311 315.67085 
L 397.577689 303.989481 
L 400.733068 299.446435 
L 403.888446 312.120987 
L 407.043825 303.583786 
L 410.199203 300.5099 
L 413.354582 306.54997 
L 416.50996 300.834374 
L 419.665339 298.031737 
L 422.820717 308.533413 
L 425.976096 313.580829 
L 429.131474 302.592127 
L 432.286853 309.092352 
L 435.442231 303.520679 
L 438.59761 303.051889 
L 441.752988 302.970753 
L 444.908367 304.025543 
L 448.063745 306.667176 
L 451.219124 308.83993 
L 454.374502 315.769925 
L 457.52988 306.856509 
L 460.685259 304.773843 
L 463.840637 303.619848 
L 466.996016 308.226891 
L 470.151394 301.239983 
L 473.306773 303.529694 
L 476.462151 303.682955 
L 479.61753 310.038893 
L 482.772908 307.379425 
L 485.928287 312.247158 
L 489.083665 290.829654 
L 492.239044 299.085974 
L 495.394422 302.096323 
L 498.549801 308.46129 
L 501.705179 308.875991 
L 504.860558 299.103996 
L 508.015936 304.936127 
L 514.326693 308.335075 
L 517.482072 304.21487 
L 520.63745 299.815928 
L 523.792829 307.929379 
L 526.948207 301.591525 
L 530.103586 304.593528 
L 533.258964 306.685208 
L 536.414343 307.253205 
L 539.569721 307.036826 
L 542.7251 309.624227 
L 545.880478 313.571819 
L 549.035857 307.181078 
L 552.191235 306.586033 
L 555.346614 303.241206 
L 558.501992 315.697871 
L 561.657371 308.578489 
L 564.812749 308.037566 
L 567.968127 307.352378 
L 571.123506 306.964699 
L 574.278884 309.912692 
L 577.434263 308.533413 
L 580.589641 301.636595 
L 583.74502 305.612316 
L 586.900398 300.645096 
L 590.055777 304.025543 
L 593.211155 319.209111 
L 596.366534 305.792634 
L 599.521912 312.166048 
L 602.677291 306.577018 
L 605.832669 306.19835 
L 608.988048 307.86627 
L 612.143426 309.155457 
L 615.298805 304.169792 
L 618.454183 308.758794 
L 621.609562 306.423748 
L 624.76494 306.937652 
L 627.920319 301.79885 
L 631.075697 309.218561 
L 634.231076 310.147065 
L 637.386454 298.932783 
L 640.541833 298.662456 
L 643.697211 305.711491 
L 646.85259 308.172798 
L 650.007968 317.309813 
L 653.163347 310.498615 
L 656.318725 309.461962 
L 659.474104 305.693459 
L 662.629482 298.347088 
L 665.784861 311.120559 
L 668.940239 297.914611 
L 672.095618 305.125459 
L 675.250996 307.821192 
L 678.406375 306.297525 
L 681.561753 300.618057 
L 684.717131 301.37519 
L 687.87251 302.925678 
L 691.027888 323.417923 
L 694.183267 310.120022 
L 697.338645 297.779468 
L 700.494024 309.371814 
L 703.649402 309.570139 
L 706.804781 313.274469 
L 709.960159 311.273785 
L 713.115538 299.563589 
L 716.270916 300.1584 
L 722.581673 309.930721 
L 725.737052 289.364033 
L 728.89243 302.276613 
L 732.047809 311.012398 
L 735.203187 305.621332 
L 738.358566 306.216382 
L 741.513944 306.04508 
L 744.669323 306.414732 
L 747.824701 305.251681 
L 750.98008 303.313328 
L 754.135458 303.700986 
L 757.290837 306.081143 
L 760.446215 311.165626 
L 763.601594 307.289268 
L 766.756972 292.655905 
L 769.912351 306.405716 
L 773.067729 305.702475 
L 776.223108 310.345377 
L 779.378486 310.579741 
L 782.533865 306.676192 
L 785.689243 303.268252 
L 788.844622 307.78513 
L 788.844622 307.78513 
" clip-path="url(#pae08c44ed4)" style="fill: none; stroke: #000000; stroke-width: 1.5; stroke-linecap: square"/>
   </g>
   <g id="line2d_2">
    <path d="M 0 306 
L 3.155378 306 
L 6.310757 312.646686 
L 9.466135 305.598148 
L 12.621514 310.500418 
L 15.776892 308.68958 
L 18.932271 309.104801 
L 22.087649 304.187184 
L 25.243028 302.42265 
L 28.398406 303.536977 
L 31.553785 301.237403 
L 34.709163 304.172762 
L 37.864542 304.752346 
L 41.01992 306.564466 
L 44.175299 307.633031 
L 47.330677 307.540081 
L 50.486056 309.378071 
L 53.641434 313.406167 
L 59.952191 308.349889 
L 63.10757 307.072111 
L 66.262948 306.210088 
L 69.418327 304.610817 
L 72.573705 311.398096 
L 75.729084 306.245339 
L 78.884462 309.51704 
L 82.039841 307.446424 
L 85.195219 307.506423 
L 88.350598 309.274277 
L 91.505976 307.484573 
L 94.661355 310.314022 
L 97.816733 304.413285 
L 100.972112 303.799696 
L 104.12749 301.076324 
L 107.282869 302.308358 
L 110.438247 305.155724 
L 113.593625 303.441026 
L 116.749004 310.24661 
L 119.904382 305.986989 
L 123.059761 308.266276 
L 129.370518 302.757929 
L 132.525896 308.379799 
L 135.681275 310.507488 
L 138.836653 308.280276 
L 141.992032 304.643061 
L 145.14741 305.768804 
L 148.302789 309.844359 
L 151.458167 309.195724 
L 154.613546 307.704697 
L 157.768924 310.208079 
L 160.924303 301.61079 
L 167.23506 303.627025 
L 170.390438 306.549616 
L 173.545817 303.887906 
L 176.701195 306.87143 
L 179.856574 309.177764 
L 183.011952 312.530346 
L 186.167331 310.675464 
L 189.322709 302.617934 
L 192.478088 305.628474 
L 195.633466 308.305554 
L 198.788845 308.804789 
L 201.944223 302.548078 
L 205.099602 300.987143 
L 208.25498 303.098449 
L 211.410359 302.186114 
L 214.565737 304.690085 
L 217.721116 303.122418 
L 220.876494 306.619622 
L 224.031873 304.217097 
L 227.187251 305.31755 
L 230.342629 302.494732 
L 233.498008 302.117392 
L 236.653386 304.769282 
L 239.808765 307.894095 
L 242.964143 306.453376 
L 246.119522 303.706926 
L 249.2749 306.712574 
L 252.430279 311.505122 
L 255.585657 307.91895 
L 258.741036 308.959 
L 261.896414 312.775215 
L 265.051793 310.826153 
L 268.207171 305.898986 
L 271.36255 309.484622 
L 274.517928 307.422877 
L 277.673307 304.528084 
L 280.828685 304.787632 
L 283.984064 307.897736 
L 287.139442 309.996331 
L 290.294821 304.964977 
L 293.450199 310.243959 
L 296.605578 302.225212 
L 299.760956 301.21319 
L 302.916335 309.095286 
L 306.071713 304.404269 
L 309.227092 306.409711 
L 312.38247 302.482005 
L 315.537849 309.968404 
L 318.693227 309.151356 
L 321.848606 312.191388 
L 325.003984 306.880834 
L 328.159363 310.469134 
L 331.314741 310.599995 
L 334.47012 305.684125 
L 337.625498 305.684585 
L 340.780876 303.412389 
L 343.936255 310.466872 
L 347.091633 308.640995 
L 350.247012 307.5917 
L 353.40239 303.118883 
L 356.557769 305.01635 
L 359.713147 304.20596 
L 362.868526 303.574028 
L 366.023904 301.474909 
L 369.179283 304.334795 
L 372.334661 304.916822 
L 375.49004 304.479859 
L 378.645418 307.317906 
L 381.800797 307.231885 
L 384.956175 304.923964 
L 388.111554 306.413812 
L 391.266932 308.763213 
L 394.422311 312.71839 
L 397.577689 314.214738 
L 400.733068 309.102852 
L 403.888446 304.253301 
L 407.043825 308.197263 
L 410.199203 305.89241 
L 413.354582 303.186479 
L 416.50996 304.859334 
L 419.665339 302.815731 
L 422.820717 300.388808 
L 425.976096 304.469748 
L 429.131474 309.053676 
L 432.286853 305.804196 
L 435.442231 307.459117 
L 438.59761 305.495781 
L 441.752988 304.266948 
L 444.908367 303.62303 
L 448.063745 303.836041 
L 451.219124 305.247933 
L 454.374502 307.034669 
L 457.52988 311.429236 
L 463.840637 306.958759 
L 466.996016 305.290396 
L 470.151394 306.768967 
L 473.306773 303.99885 
L 476.462151 303.758119 
L 479.61753 303.710426 
L 482.772908 306.86351 
L 485.928287 307.122493 
L 489.083665 309.699737 
L 492.239044 300.234142 
L 495.394422 299.642117 
L 498.549801 300.870816 
L 501.705179 304.675518 
L 504.860558 306.785974 
L 508.015936 302.923062 
L 511.171315 303.924781 
L 514.326693 305.285022 
L 517.482072 306.844417 
L 520.63745 305.539694 
L 523.792829 302.673048 
L 526.948207 305.300119 
L 530.103586 303.431445 
L 533.258964 304.023245 
L 536.414343 305.357644 
L 539.569721 306.306576 
L 542.7251 306.669156 
L 545.880478 308.157348 
L 549.035857 310.891934 
L 552.191235 309.035151 
L 555.346614 307.820415 
L 558.501992 305.528132 
L 561.657371 310.63195 
L 564.812749 309.607859 
L 571.123506 308.084093 
L 574.278884 307.511443 
L 577.434263 308.717465 
L 580.589641 308.629258 
L 583.74502 305.129666 
L 586.900398 305.351209 
L 590.055777 302.98242 
L 593.211155 303.496108 
L 596.366534 311.379399 
L 599.521912 308.583934 
L 602.677291 310.379559 
L 605.832669 308.474548 
L 608.988048 307.345413 
L 612.143426 307.610262 
L 615.298805 308.399562 
L 618.454183 306.284973 
L 621.609562 307.501402 
L 624.76494 306.963815 
L 627.920319 306.94048 
L 631.075697 304.360181 
L 634.231076 306.795343 
L 637.386454 308.47575 
L 640.541833 303.683662 
L 643.697211 301.161935 
L 650.007968 305.805115 
L 653.163347 311.57977 
L 656.318725 311.056263 
L 659.474104 310.259619 
L 662.629482 307.967916 
L 665.784861 303.155651 
L 668.940239 307.162729 
L 672.095618 302.522589 
L 675.250996 303.81801 
L 678.406375 305.800978 
L 681.561753 306.041014 
L 684.717131 303.311984 
L 687.87251 302.335084 
L 691.027888 302.639357 
L 694.183267 313.060891 
L 697.338645 311.614514 
L 700.494024 304.681917 
L 703.649402 307.029967 
L 706.804781 308.306509 
L 709.960159 310.815619 
L 713.115538 311.06411 
L 716.270916 305.307014 
L 719.426295 302.686835 
L 722.581673 303.882744 
L 725.737052 306.930651 
L 728.89243 298.101625 
L 732.047809 300.174552 
L 735.203187 305.58891 
L 738.358566 305.594037 
L 741.513944 305.918256 
L 744.669323 305.993212 
L 747.824701 306.206553 
L 750.98008 305.719941 
L 754.135458 304.543994 
L 757.290837 304.12528 
L 760.446215 305.093532 
L 763.601594 308.14066 
L 766.756972 307.717071 
L 769.912351 300.156703 
L 773.067729 303.280908 
L 776.223108 304.492552 
L 779.378486 307.432883 
L 782.533865 309.019878 
L 785.689243 307.849229 
L 788.844622 305.54323 
L 788.844622 305.54323 
" clip-path="url(#pae08c44ed4)" style="fill: none; stroke: #000000; stroke-width: 1.5; stroke-linecap: square"/>
   </g>
   <g id="line2d_3">
    <path d="M 0 306 
L 3.155378 306 
L 6.310757 311.840517 
L 9.466135 306.617071 
L 12.621514 309.808803 
L 15.776892 308.806576 
L 18.932271 309.041048 
L 22.087649 305.926261 
L 25.243028 304.28462 
L 28.398406 304.398619 
L 31.553785 302.767608 
L 34.709163 304.059733 
L 37.864542 304.449256 
L 41.01992 305.610787 
L 44.175299 306.524129 
L 47.330677 306.786654 
L 50.486056 308.077019 
L 53.641434 310.816581 
L 56.796813 310.057191 
L 59.952191 308.833072 
L 63.10757 307.932245 
L 66.262948 307.176952 
L 69.418327 305.956009 
L 72.573705 309.547348 
L 75.729084 307.083013 
L 78.884462 308.768822 
L 82.039841 307.785651 
L 85.195219 307.720032 
L 88.350598 308.693552 
L 91.505976 307.811797 
L 94.661355 309.366938 
L 97.816733 306.200088 
L 100.972112 305.30576 
L 104.12749 303.263903 
L 107.282869 303.341627 
L 110.438247 304.708907 
L 113.593625 303.841332 
L 116.749004 307.711221 
L 119.904382 305.970091 
L 123.059761 307.287771 
L 126.215139 305.959158 
L 129.370518 304.200371 
L 132.525896 307.069037 
L 135.681275 308.699939 
L 138.836653 307.914006 
L 141.992032 305.903649 
L 145.14741 306.180862 
L 148.302789 308.461323 
L 151.458167 308.485938 
L 154.613546 307.822232 
L 157.768924 309.266256 
L 160.924303 304.511082 
L 164.079681 304.230968 
L 167.23506 304.344107 
L 170.390438 305.851957 
L 173.545817 304.50101 
L 179.856574 307.666997 
L 183.011952 310.072277 
L 186.167331 309.683148 
L 189.322709 305.250881 
L 192.478088 306.247413 
L 195.633466 307.63731 
L 198.788845 308.110981 
L 201.944223 304.650542 
L 205.099602 303.126287 
L 208.25498 303.740207 
L 211.410359 303.035778 
L 214.565737 304.243433 
L 217.721116 303.46048 
L 220.876494 305.411803 
L 224.031873 304.367387 
L 227.187251 304.952484 
L 230.342629 303.392039 
L 233.498008 302.895968 
L 236.653386 304.212808 
L 239.808765 306.220685 
L 242.964143 305.858767 
L 246.119522 304.423096 
L 249.2749 305.965473 
L 252.430279 309.00348 
L 255.585657 307.635584 
L 258.741036 308.323823 
L 261.896414 310.75262 
L 265.051793 310.207638 
L 268.207171 307.506512 
L 271.36255 309.125604 
L 274.517928 308.032034 
L 277.673307 306.169247 
L 280.828685 305.845934 
L 283.984064 307.367262 
L 287.139442 308.762542 
L 290.294821 306.174162 
L 293.450199 308.907821 
L 296.605578 304.615587 
L 299.760956 303.317573 
L 302.916335 307.301824 
L 306.071713 305.07999 
L 309.227092 306.05803 
L 312.38247 303.855077 
L 315.537849 307.828232 
L 318.693227 307.993077 
L 321.848606 310.091848 
L 325.003984 307.589927 
L 328.159363 309.501749 
L 331.314741 309.855661 
L 334.47012 307.191096 
L 337.625498 306.734474 
L 340.780876 305.115922 
L 343.936255 308.741357 
L 350.247012 307.716826 
L 353.40239 305.056751 
L 356.557769 305.613276 
L 362.868526 304.373491 
L 366.023904 302.891027 
L 369.179283 304.162052 
L 372.334661 304.544051 
L 375.49004 304.402962 
L 378.645418 306.070326 
L 381.800797 306.381027 
L 384.956175 305.281258 
L 388.111554 306.046236 
L 391.266932 307.528083 
L 394.422311 310.195315 
L 397.577689 311.809632 
L 400.733068 309.516583 
L 403.888446 306.56777 
L 407.043825 308.200436 
L 410.199203 306.848488 
L 413.354582 304.988985 
L 416.50996 305.454418 
L 419.665339 304.093766 
L 422.820717 302.309288 
L 425.976096 304.137352 
L 429.131474 306.907705 
L 432.286853 305.638433 
L 435.442231 306.657527 
L 438.59761 305.733738 
L 441.752988 304.939014 
L 444.908367 304.346809 
L 448.063745 304.239333 
L 451.219124 304.953498 
L 454.374502 306.102619 
L 457.52988 308.939184 
L 460.685259 308.332961 
L 466.996016 306.21551 
L 470.151394 306.813131 
L 473.306773 305.184371 
L 476.462151 304.693971 
L 479.61753 304.386477 
L 482.772908 306.050643 
L 485.928287 306.437869 
L 489.083665 308.149614 
L 492.239044 303.059132 
L 495.394422 301.890796 
L 498.549801 301.948777 
L 501.705179 303.858192 
L 504.860558 305.327914 
L 508.015936 303.485537 
L 511.171315 303.90819 
L 514.326693 304.718438 
L 517.482072 305.783151 
L 520.63745 305.319199 
L 523.792829 303.705487 
L 526.948207 304.947671 
L 530.103586 303.962214 
L 533.258964 304.140866 
L 539.569721 305.573089 
L 542.7251 306.020439 
L 545.880478 307.088115 
L 549.035857 309.00069 
L 555.346614 307.912954 
L 558.501992 306.549379 
L 561.657371 309.242106 
L 567.968127 308.753083 
L 574.278884 307.949956 
L 577.434263 308.52713 
L 580.589641 308.536943 
L 583.74502 306.512436 
L 586.900398 306.247565 
L 590.055777 304.598898 
L 593.211155 304.427507 
L 596.366534 308.770277 
L 599.521912 307.889238 
L 602.677291 309.147764 
L 608.988048 307.754907 
L 612.143426 307.778526 
L 615.298805 308.182492 
L 618.454183 307.002773 
L 621.609562 307.518727 
L 624.76494 307.197397 
L 627.920319 307.117902 
L 631.075697 305.552178 
L 637.386454 307.668772 
L 640.541833 305.107738 
L 643.697211 303.21346 
L 646.85259 303.929581 
L 650.007968 305.175115 
L 653.163347 308.736634 
L 656.318725 309.257235 
L 659.474104 309.320946 
L 662.629482 308.256036 
L 665.784861 305.340918 
L 668.940239 307.041855 
L 672.095618 304.355557 
L 675.250996 304.579563 
L 678.406375 305.530029 
L 681.561753 305.75999 
L 684.717131 304.24393 
L 687.87251 303.393566 
L 691.027888 303.26111 
L 694.183267 309.198714 
L 697.338645 309.473629 
L 700.494024 306.036074 
L 703.649402 307.004003 
L 706.804781 307.754571 
L 709.960159 309.37597 
L 713.115538 309.93827 
L 716.270916 306.900867 
L 719.426295 304.91325 
L 722.581673 304.975736 
L 725.737052 306.432597 
L 728.89243 301.407648 
L 732.047809 301.657537 
L 735.203187 304.409392 
L 744.669323 305.425329 
L 747.824701 305.710862 
L 750.98008 305.584955 
L 754.135458 304.912636 
L 757.290837 304.551006 
L 760.446215 304.990905 
L 763.601594 306.799454 
L 766.756972 306.951792 
L 769.912351 302.753641 
L 773.067729 303.824761 
L 776.223108 304.369863 
L 779.378486 306.144244 
L 782.533865 307.452998 
L 785.689243 307.220497 
L 788.844622 306.060192 
L 788.844622 306.060192 
" clip-path="url(#pae08c44ed4)" style="fill: none; stroke: #000000; stroke-width: 1.5; stroke-linecap: square"/>
   </g>
   <g id="line2d_4">
    <path d="M 0 306 
L 3.155378 306 
L 6.310757 311.416142 
L 9.466135 307.058095 
L 12.621514 309.518454 
L 15.776892 308.824833 
L 18.932271 308.99274 
L 22.087649 306.808674 
L 25.243028 305.506768 
L 28.398406 305.335505 
L 31.553785 304.111777 
L 34.709163 304.666836 
L 37.864542 304.794491 
L 44.175299 306.00187 
L 47.330677 306.244842 
L 50.486056 307.08156 
L 53.641434 308.812085 
L 56.796813 308.719177 
L 63.10757 307.843106 
L 66.262948 307.43736 
L 69.418327 306.720908 
L 72.573705 308.572783 
L 75.729084 307.370083 
L 78.884462 308.246602 
L 82.039841 307.786547 
L 85.195219 307.750122 
L 88.350598 308.274741 
L 91.505976 307.861346 
L 94.661355 308.70014 
L 97.816733 307.083955 
L 100.972112 306.460073 
L 104.12749 305.174321 
L 107.282869 304.907767 
L 110.438247 305.404791 
L 113.593625 304.81717 
L 116.749004 306.763086 
L 119.904382 305.964087 
L 123.059761 306.692556 
L 126.215139 306.065821 
L 129.370518 305.09853 
L 132.525896 306.517919 
L 135.681275 307.491855 
L 138.836653 307.260652 
L 141.992032 306.270876 
L 145.14741 306.365779 
L 148.302789 307.569644 
L 151.458167 307.719897 
L 154.613546 307.469396 
L 157.768924 308.307036 
L 160.924303 305.877898 
L 164.079681 305.50575 
L 167.23506 305.371654 
L 170.390438 306.02647 
L 173.545817 305.260076 
L 176.701195 305.995755 
L 179.856574 306.864875 
L 183.011952 308.304509 
L 186.167331 308.377536 
L 189.322709 306.174456 
L 192.478088 306.565956 
L 195.633466 307.2664 
L 198.788845 307.592279 
L 201.944223 305.798379 
L 205.099602 304.792576 
L 208.25498 304.866684 
L 211.410359 304.295477 
L 214.565737 304.7522 
L 217.721116 304.238231 
L 220.876494 305.179279 
L 224.031873 304.643178 
L 227.187251 304.921565 
L 230.342629 304.085967 
L 233.498008 303.70727 
L 236.653386 304.291118 
L 239.808765 305.36222 
L 242.964143 305.306921 
L 246.119522 304.617405 
L 249.2749 305.421437 
L 252.430279 307.150729 
L 255.585657 306.698232 
L 258.741036 307.216584 
L 261.896414 308.717355 
L 265.051793 308.747359 
L 268.207171 307.510437 
L 271.36255 308.389752 
L 274.517928 307.913131 
L 277.673307 306.917999 
L 280.828685 306.615885 
L 287.139442 308.07703 
L 290.294821 306.790289 
L 293.450199 308.174973 
L 296.605578 305.953736 
L 299.760956 305.035961 
L 302.916335 306.93931 
L 306.071713 305.793076 
L 309.227092 306.213849 
L 312.38247 305.001886 
L 315.537849 306.978802 
L 318.693227 307.203127 
L 321.848606 308.470776 
L 325.003984 307.371772 
L 328.159363 308.442118 
L 331.314741 308.806328 
L 334.47012 307.531603 
L 337.625498 307.232328 
L 340.780876 306.267016 
L 343.936255 308.0598 
L 350.247012 307.654185 
L 353.40239 306.219578 
L 356.557769 306.334023 
L 362.868526 305.389592 
L 366.023904 304.427898 
L 369.179283 304.878438 
L 372.334661 304.973295 
L 375.49004 304.825979 
L 378.645418 305.672135 
L 381.800797 305.907787 
L 384.956175 305.379304 
L 388.111554 305.775223 
L 391.266932 306.624078 
L 394.422311 308.218145 
L 397.577689 309.417649 
L 400.733068 308.556415 
L 403.888446 307.095969 
L 407.043825 307.903306 
L 410.199203 307.21304 
L 413.354582 306.147645 
L 416.50996 306.204895 
L 419.665339 305.345651 
L 422.820717 304.171033 
L 425.976096 304.869448 
L 429.131474 306.255399 
L 432.286853 305.667485 
L 435.442231 306.217586 
L 444.908367 304.964995 
L 448.063745 304.813762 
L 451.219124 305.108735 
L 454.374502 305.708715 
L 457.52988 307.315529 
L 460.685259 307.244663 
L 463.840637 306.852685 
L 466.996016 306.340967 
L 470.151394 306.641649 
L 473.306773 305.779503 
L 479.61753 305.140637 
L 482.772908 305.921808 
L 485.928287 306.156692 
L 489.083665 307.128562 
L 492.239044 304.520749 
L 495.394422 303.644953 
L 498.549801 303.390079 
L 504.860558 304.949593 
L 508.015936 304.011254 
L 511.171315 304.159246 
L 514.326693 304.562101 
L 517.482072 305.163509 
L 520.63745 305.014685 
L 523.792829 304.188542 
L 526.948207 304.783339 
L 530.103586 304.267992 
L 533.258964 304.321035 
L 542.7251 305.414773 
L 545.880478 306.08869 
L 549.035857 307.285478 
L 555.346614 307.15909 
L 558.501992 306.527914 
L 561.657371 307.992895 
L 567.968127 308.083102 
L 574.278884 307.810513 
L 577.434263 308.148976 
L 580.589641 308.213168 
L 583.74502 307.161549 
L 586.900398 306.91396 
L 590.055777 305.909237 
L 593.211155 305.617771 
L 596.366534 307.79405 
L 599.521912 307.477929 
L 602.677291 308.226241 
L 608.988048 307.686179 
L 612.143426 307.71666 
L 615.298805 307.947137 
L 618.454183 307.343559 
L 621.609562 307.571569 
L 627.920319 307.319994 
L 631.075697 306.441654 
L 637.386454 307.407353 
L 640.541833 306.053635 
L 643.697211 304.872227 
L 646.85259 305.003315 
L 650.007968 305.504225 
L 653.163347 307.389669 
L 656.318725 307.886791 
L 659.474104 308.141296 
L 662.629482 307.745603 
L 665.784861 306.243643 
L 668.940239 307.021574 
L 672.095618 305.566438 
L 675.250996 305.495129 
L 678.406375 305.863912 
L 681.561753 305.931506 
L 684.717131 305.085396 
L 687.87251 304.492399 
L 691.027888 304.244544 
L 694.183267 307.310183 
L 697.338645 307.75159 
L 700.494024 306.15969 
L 706.804781 307.132493 
L 709.960159 308.114308 
L 713.115538 308.619166 
L 716.270916 307.172303 
L 719.426295 306.053755 
L 722.581673 305.899472 
L 725.737052 306.54308 
L 728.89243 303.796283 
L 732.047809 303.554787 
L 735.203187 304.742474 
L 744.669323 305.252221 
L 747.824701 305.437619 
L 750.98008 305.406213 
L 754.135458 305.064482 
L 757.290837 304.8433 
L 760.446215 305.038134 
L 763.601594 306.01653 
L 766.756972 306.224609 
L 769.912351 304.052932 
L 773.067729 304.432559 
L 776.223108 304.634965 
L 782.533865 306.348877 
L 785.689243 306.404735 
L 788.844622 305.906879 
L 788.844622 305.906879 
" clip-path="url(#pae08c44ed4)" style="fill: none; stroke: #000000; stroke-width: 1.5; stroke-linecap: square"/>
   </g>
   <g id="line2d_5">
    <path d="M 0 306 
L 3.155378 306 
L 6.310757 311.201156 
L 9.466135 307.252741 
L 12.621514 309.388555 
L 15.776892 308.822778 
L 18.932271 308.962867 
L 22.087649 307.207804 
L 25.243028 306.122852 
L 28.398406 305.898122 
L 31.553785 304.91079 
L 34.709163 305.20405 
L 37.864542 305.225213 
L 44.175299 305.976917 
L 47.330677 306.141064 
L 50.486056 306.698139 
L 53.641434 307.849128 
L 56.796813 307.891669 
L 66.262948 307.280659 
L 69.418327 306.866644 
L 72.573705 307.950359 
L 75.729084 307.30358 
L 78.884462 307.819463 
L 82.039841 307.593863 
L 85.195219 307.590729 
L 88.350598 307.903098 
L 91.505976 307.703537 
L 94.661355 308.187769 
L 97.816733 307.332859 
L 100.972112 306.96504 
L 104.12749 306.211718 
L 107.282869 305.978348 
L 110.438247 306.154767 
L 113.593625 305.773373 
L 116.749004 306.745221 
L 119.904382 306.316494 
L 123.059761 306.675866 
L 126.215139 306.339118 
L 129.370518 305.797853 
L 132.525896 306.493649 
L 135.681275 307.014466 
L 138.836653 306.931428 
L 141.992032 306.43475 
L 145.14741 306.471942 
L 148.302789 307.09971 
L 151.458167 307.219833 
L 154.613546 307.133063 
L 157.768924 307.602656 
L 160.924303 306.383422 
L 164.079681 306.145437 
L 167.23506 306.021363 
L 170.390438 306.309609 
L 173.545817 305.888222 
L 179.856574 306.657979 
L 183.011952 307.427788 
L 186.167331 307.538928 
L 189.322709 306.458668 
L 192.478088 306.639265 
L 195.633466 307.000939 
L 198.788845 307.190296 
L 201.944223 306.286569 
L 205.099602 305.718903 
L 208.25498 305.676637 
L 211.410359 305.313942 
L 214.565737 305.463425 
L 217.721116 305.139541 
L 220.876494 305.553119 
L 224.031873 305.246063 
L 227.187251 305.341922 
L 230.342629 304.869626 
L 233.498008 304.6119 
L 236.653386 304.843191 
L 239.808765 305.356329 
L 242.964143 305.325594 
L 246.119522 304.963763 
L 249.2749 305.356552 
L 252.430279 306.263157 
L 255.585657 306.097132 
L 258.741036 306.418873 
L 261.896414 307.263825 
L 265.051793 307.399387 
L 268.207171 306.865781 
L 271.36255 307.380082 
L 274.517928 307.209756 
L 277.673307 306.751858 
L 280.828685 306.607612 
L 287.139442 307.402255 
L 290.294821 306.781681 
L 293.450199 307.505673 
L 296.605578 306.401823 
L 299.760956 305.889354 
L 302.916335 306.80918 
L 306.071713 306.222397 
L 309.227092 306.406814 
L 312.38247 305.7564 
L 315.537849 306.726785 
L 318.693227 306.8597 
L 321.848606 307.5522 
L 325.003984 307.052318 
L 328.159363 307.638368 
L 331.314741 307.894965 
L 334.47012 307.301661 
L 337.625498 307.16293 
L 340.780876 306.666755 
L 343.936255 307.570062 
L 350.247012 307.425751 
L 353.40239 306.69887 
L 356.557769 306.71818 
L 362.868526 306.152429 
L 366.023904 305.589182 
L 369.179283 305.72663 
L 372.334661 305.706875 
L 375.49004 305.570477 
L 378.645418 305.947428 
L 381.800797 306.045418 
L 384.956175 305.756728 
L 388.111554 305.933026 
L 391.266932 306.364481 
L 394.422311 307.219808 
L 397.577689 307.922987 
L 400.733068 307.594809 
L 403.888446 306.919464 
L 407.043825 307.355348 
L 410.199203 307.04178 
L 413.354582 306.499357 
L 416.50996 306.503364 
L 419.665339 306.032577 
L 422.820717 305.364456 
L 425.976096 305.629648 
L 429.131474 306.292037 
L 432.286853 305.985898 
L 435.442231 306.246119 
L 448.063745 305.412399 
L 451.219124 305.515557 
L 454.374502 305.789058 
L 457.52988 306.621434 
L 460.685259 306.639932 
L 466.996016 306.242019 
L 470.151394 306.409115 
L 473.306773 305.976231 
L 479.61753 305.599788 
L 482.772908 305.96986 
L 485.928287 306.08567 
L 489.083665 306.597164 
L 492.239044 305.284514 
L 495.394422 304.764637 
L 498.549801 304.545709 
L 504.860558 305.202956 
L 508.015936 304.696471 
L 511.171315 304.715226 
L 514.326693 304.879851 
L 517.482072 305.163676 
L 520.63745 305.083578 
L 523.792829 304.641329 
L 526.948207 304.916294 
L 530.103586 304.63627 
L 533.258964 304.630739 
L 542.7251 305.17739 
L 545.880478 305.543913 
L 549.035857 306.212514 
L 555.346614 306.319991 
L 558.501992 306.063258 
L 561.657371 306.867168 
L 567.968127 307.099051 
L 574.278884 307.107691 
L 577.434263 307.342416 
L 580.589641 307.440752 
L 583.74502 306.95722 
L 586.900398 306.846573 
L 590.055777 306.329476 
L 593.211155 306.135965 
L 596.366534 307.222497 
L 599.521912 307.10061 
L 602.677291 307.523743 
L 612.143426 307.386806 
L 615.298805 307.536416 
L 618.454183 307.256228 
L 621.609562 307.383518 
L 627.920319 307.275453 
L 631.075697 306.817065 
L 637.386454 307.278559 
L 643.697211 305.925275 
L 646.85259 305.908424 
L 650.007968 306.097711 
L 653.163347 307.03216 
L 656.318725 307.320424 
L 659.474104 307.496116 
L 662.629482 307.346127 
L 665.784861 306.597025 
L 668.940239 306.974939 
L 672.095618 306.219458 
L 675.250996 306.129925 
L 678.406375 306.271692 
L 681.561753 306.274687 
L 687.87251 305.432699 
L 691.027888 305.221584 
L 694.183267 306.743985 
L 697.338645 307.027792 
L 700.494024 306.258653 
L 706.804781 306.770948 
L 709.960159 307.315434 
L 713.115538 307.646059 
L 719.426295 306.404576 
L 722.581673 306.296457 
L 725.737052 306.601396 
L 728.89243 305.163357 
L 732.047809 304.923979 
L 735.203187 305.431416 
L 744.669323 305.55442 
L 750.98008 305.591104 
L 757.290837 305.258775 
L 760.446215 305.327952 
L 763.601594 305.811019 
L 766.756972 305.933289 
L 769.912351 304.825613 
L 776.223108 305.017952 
L 782.533865 305.885859 
L 785.689243 305.953094 
L 788.844622 305.729494 
L 788.844622 305.729494 
" clip-path="url(#pae08c44ed4)" style="fill: none; stroke: #000000; stroke-width: 1.5; stroke-linecap: square"/>
   </g>
   <g id="line2d_6">
    <path d="M 0 306 
L 3.155378 306 
L 6.310757 311.093308 
L 9.466135 307.342712 
L 12.621514 309.327221 
L 15.776892 308.818829 
L 18.932271 308.946303 
L 22.087649 307.390442 
L 25.243028 306.417887 
L 28.398406 306.186615 
L 31.553785 305.320429 
L 34.709163 305.517439 
L 37.864542 305.501904 
L 44.175299 306.056678 
L 47.330677 306.177235 
L 50.486056 306.601023 
L 53.641434 307.478402 
L 56.796813 307.539123 
L 66.262948 307.156212 
L 69.418327 306.871767 
L 72.573705 307.629409 
L 75.729084 307.20325 
L 78.884462 307.562432 
L 82.039841 307.425951 
L 85.195219 307.434177 
L 88.350598 307.650631 
L 91.505976 307.534629 
L 94.661355 307.859274 
L 97.816733 307.327395 
L 100.972112 307.092838 
L 104.12749 306.608772 
L 107.282869 306.44039 
L 110.438247 306.525194 
L 113.593625 306.269525 
L 116.749004 306.839575 
L 119.904382 306.573395 
L 123.059761 306.777503 
L 126.215139 306.56984 
L 129.370518 306.234766 
L 135.681275 306.926428 
L 138.836653 306.882088 
L 141.992032 306.594694 
L 145.14741 306.608431 
L 148.302789 306.964318 
L 151.458167 307.039911 
L 154.613546 306.998946 
L 157.768924 307.272747 
L 160.924303 306.597274 
L 167.23506 306.368545 
L 170.390438 306.513692 
L 173.545817 306.269035 
L 179.856574 306.668452 
L 183.011952 307.093084 
L 186.167331 307.169649 
L 189.322709 306.593718 
L 195.633466 306.881576 
L 198.788845 306.990033 
L 201.944223 306.508587 
L 205.099602 306.191289 
L 208.25498 306.149031 
L 211.410359 305.931631 
L 214.565737 305.985928 
L 217.721116 305.789331 
L 220.876494 305.982246 
L 224.031873 305.798294 
L 227.187251 305.824038 
L 233.498008 305.383805 
L 236.653386 305.472624 
L 239.808765 305.71618 
L 242.964143 305.684662 
L 246.119522 305.478873 
L 249.2749 305.663324 
L 252.430279 306.127085 
L 255.585657 306.047846 
L 258.741036 306.218907 
L 261.896414 306.669602 
L 265.051793 306.766066 
L 268.207171 306.514736 
L 271.36255 306.797494 
L 274.517928 306.735886 
L 277.673307 306.517141 
L 280.828685 306.453348 
L 287.139442 306.886438 
L 290.294821 306.587582 
L 293.450199 306.970845 
L 296.605578 306.423441 
L 299.760956 306.156108 
L 302.916335 306.61963 
L 306.071713 306.323266 
L 309.227092 306.41368 
L 312.38247 306.078096 
L 315.537849 306.563943 
L 318.693227 306.641153 
L 321.848606 307.006346 
L 325.003984 306.772925 
L 328.159363 307.085717 
L 331.314741 307.240085 
L 334.47012 306.964162 
L 337.625498 306.908217 
L 340.780876 306.66409 
L 343.936255 307.12703 
L 350.247012 307.089765 
L 353.40239 306.73153 
L 356.557769 306.73995 
L 362.868526 306.441138 
L 366.023904 306.139889 
L 372.334661 306.157509 
L 375.49004 306.067748 
L 378.645418 306.240132 
L 381.800797 306.2787 
L 384.956175 306.122752 
L 388.111554 306.197801 
L 391.266932 306.4052 
L 397.577689 307.217097 
L 400.733068 307.079697 
L 403.888446 306.754763 
L 407.043825 306.983324 
L 410.199203 306.837134 
L 413.354582 306.568889 
L 416.50996 306.566717 
L 422.820717 305.969149 
L 425.976096 306.079395 
L 429.131474 306.399643 
L 432.286853 306.237868 
L 435.442231 306.36057 
L 448.063745 305.887064 
L 454.374502 306.043424 
L 457.52988 306.455668 
L 463.840637 306.400236 
L 466.996016 306.281993 
L 470.151394 306.364929 
L 476.462151 306.033922 
L 479.61753 305.934671 
L 482.772908 306.108226 
L 485.928287 306.162453 
L 489.083665 306.42124 
L 492.239044 305.756321 
L 495.394422 305.472372 
L 498.549801 305.3274 
L 504.860558 305.607607 
L 508.015936 305.331942 
L 514.326693 305.37248 
L 517.482072 305.499179 
L 520.63745 305.442601 
L 523.792829 305.203688 
L 526.948207 305.318822 
L 530.103586 305.160593 
L 536.414343 305.20173 
L 545.880478 305.54426 
L 549.035857 305.885781 
L 555.346614 305.966665 
L 558.501992 305.850621 
L 561.657371 306.268746 
L 571.123506 306.479826 
L 574.278884 306.499968 
L 580.589641 306.7259 
L 583.74502 306.508484 
L 586.900398 306.468784 
L 590.055777 306.220507 
L 593.211155 306.129014 
L 596.366534 306.685676 
L 599.521912 306.646952 
L 602.677291 306.881459 
L 612.143426 306.886708 
L 615.298805 306.984205 
L 618.454183 306.864388 
L 624.76494 306.923148 
L 627.920319 306.92461 
L 631.075697 306.706524 
L 637.386454 306.957307 
L 643.697211 306.276335 
L 650.007968 306.335115 
L 653.163347 306.801891 
L 659.474104 307.064709 
L 662.629482 307.005863 
L 665.784861 306.635666 
L 668.940239 306.826202 
L 672.095618 306.44779 
L 675.250996 306.390414 
L 681.561753 306.44572 
L 687.87251 305.991805 
L 691.027888 305.860279 
L 694.183267 306.609366 
L 697.338645 306.757327 
L 700.494024 306.377194 
L 706.804781 306.634391 
L 713.115538 307.103372 
L 719.426295 306.500041 
L 722.581673 306.440074 
L 725.737052 306.587207 
L 728.89243 305.854274 
L 732.047809 305.700625 
L 735.203187 305.925899 
L 754.135458 305.810114 
L 760.446215 305.736629 
L 763.601594 305.968115 
L 766.756972 306.024849 
L 769.912351 305.456571 
L 776.223108 305.505432 
L 782.533865 305.91817 
L 785.689243 305.95023 
L 788.844622 305.836627 
L 788.844622 305.836627 
" clip-path="url(#pae08c44ed4)" style="fill: none; stroke: #000000; stroke-width: 1.5; stroke-linecap: square"/>
   </g>
   <g id="line2d_7">
    <path d="M 0 306 
L 3.155378 306 
L 6.310757 311.039339 
L 9.466135 307.385768 
L 12.621514 309.297408 
L 15.776892 308.816108 
L 18.932271 308.93759 
L 22.087649 307.47684 
L 25.243028 306.560325 
L 28.398406 306.33002 
L 31.553785 305.523936 
L 34.709163 305.681401 
L 37.864542 305.652145 
L 44.175299 306.120159 
L 47.330677 306.220215 
L 50.486056 306.582714 
L 53.641434 307.33427 
L 56.796813 307.395306 
L 66.262948 307.097581 
L 69.418327 306.867866 
L 72.573705 307.483677 
L 75.729084 307.147923 
L 78.884462 307.437924 
L 82.039841 307.335862 
L 85.195219 307.346696 
L 88.350598 307.519868 
L 91.505976 307.435964 
L 94.661355 307.690142 
L 97.816733 307.291378 
L 100.972112 307.115099 
L 104.12749 306.749805 
L 107.282869 306.618157 
L 110.438247 306.673933 
L 113.593625 306.479582 
L 116.749004 306.888798 
L 119.904382 306.693318 
L 123.059761 306.836295 
L 129.370518 306.441814 
L 135.681275 306.920364 
L 138.836653 306.889526 
L 141.992032 306.689214 
L 145.14741 306.695509 
L 148.302789 306.937445 
L 157.768924 307.150189 
L 160.924303 306.699614 
L 167.23506 306.538973 
L 170.390438 306.629812 
L 173.545817 306.465017 
L 179.856574 306.716169 
L 183.011952 306.990456 
L 186.167331 307.042983 
L 189.322709 306.676272 
L 198.788845 306.925789 
L 205.099602 306.420604 
L 214.565737 306.270388 
L 217.721116 306.140875 
L 220.876494 306.25013 
L 224.031873 306.129875 
L 227.187251 306.136625 
L 233.498008 305.849277 
L 242.964143 305.999197 
L 246.119522 305.867722 
L 249.2749 305.967618 
L 252.430279 306.235524 
L 255.585657 306.185738 
L 258.741036 306.283274 
L 261.896414 306.547143 
L 265.051793 306.606932 
L 268.207171 306.463808 
L 271.36255 306.630195 
L 283.984064 306.55319 
L 287.139442 306.6916 
L 290.294821 306.524798 
L 293.450199 306.745897 
L 296.605578 306.43866 
L 299.760956 306.285912 
L 302.916335 306.546288 
L 306.071713 306.37997 
L 309.227092 306.429756 
L 312.38247 306.23989 
L 315.537849 306.509675 
L 318.693227 306.554385 
L 321.848606 306.761308 
L 325.003984 306.636544 
L 331.314741 306.90704 
L 334.47012 306.761482 
L 340.780876 306.604062 
L 343.936255 306.861529 
L 350.247012 306.85323 
L 353.40239 306.661729 
L 359.713147 306.591146 
L 372.334661 306.340958 
L 375.49004 306.287892 
L 381.800797 306.394159 
L 384.956175 306.307067 
L 391.266932 306.452013 
L 397.577689 306.891937 
L 419.665339 306.437012 
L 422.820717 306.246404 
L 425.976096 306.298193 
L 429.131474 306.462936 
L 432.286853 306.375493 
L 435.442231 306.436797 
L 451.219124 306.18333 
L 454.374502 306.242889 
L 457.52988 306.456336 
L 463.840637 306.42748 
L 479.61753 306.172957 
L 489.083665 306.416235 
L 492.239044 306.070188 
L 498.549801 305.830742 
L 504.860558 305.955042 
L 508.015936 305.803582 
L 514.326693 305.803907 
L 520.63745 305.823482 
L 523.792829 305.691102 
L 526.948207 305.740388 
L 533.258964 305.625865 
L 545.880478 305.799899 
L 549.035857 305.970402 
L 561.657371 306.162694 
L 580.589641 306.420563 
L 590.055777 306.177443 
L 593.211155 306.130533 
L 596.366534 306.41571 
L 599.521912 306.402138 
L 602.677291 306.527668 
L 640.541833 306.471091 
L 643.697211 306.301697 
L 650.007968 306.32974 
L 653.163347 306.567818 
L 659.474104 306.713846 
L 662.629482 306.691747 
L 665.784861 306.511034 
L 668.940239 306.610827 
L 672.095618 306.422579 
L 687.87251 306.190658 
L 691.027888 306.12008 
L 694.183267 306.494329 
L 697.338645 306.572678 
L 700.494024 306.382666 
L 709.960159 306.660676 
L 713.115538 306.760281 
L 719.426295 306.465767 
L 725.737052 306.511661 
L 728.89243 306.141386 
L 732.047809 306.05802 
L 735.203187 306.164879 
L 763.601594 306.138089 
L 766.756972 306.162885 
L 769.912351 305.871803 
L 779.378486 305.975566 
L 785.689243 306.087639 
L 788.844622 306.026954 
L 788.844622 306.026954 
" clip-path="url(#pae08c44ed4)" style="fill: none; stroke: #000000; stroke-width: 1.5; stroke-linecap: square"/>
   </g>
   <g id="line2d_8">
    <path d="M 0 306 
L 3.155378 306 
L 6.310757 311.012349 
L 9.466135 307.406804 
L 12.621514 309.282709 
L 15.776892 308.81456 
L 18.932271 308.933122 
L 22.087649 307.518736 
L 25.243028 306.630061 
L 28.398406 306.401173 
L 31.553785 305.624851 
L 34.709163 305.764599 
L 37.864542 305.729624 
L 44.175299 306.15749 
L 47.330677 306.247863 
L 50.486056 306.58146 
L 53.641434 307.273633 
L 56.796813 307.333253 
L 66.262948 307.0715 
L 69.418327 306.866349 
L 72.573705 307.417309 
L 75.729084 307.121494 
L 78.884462 307.379685 
L 85.195219 307.303585 
L 88.350598 307.456698 
L 91.505976 307.386232 
L 94.661355 307.608272 
L 97.816733 307.267611 
L 100.972112 307.117206 
L 104.12749 306.805044 
L 107.282869 306.691138 
L 110.438247 306.735878 
L 113.593625 306.569952 
L 116.749004 306.910515 
L 119.904382 306.746438 
L 123.059761 306.863766 
L 129.370518 306.535304 
L 135.681275 306.923816 
L 138.836653 306.898589 
L 141.992032 306.735785 
L 145.14741 306.739594 
L 148.302789 306.933131 
L 157.768924 307.10329 
L 160.924303 306.747597 
L 167.23506 306.618172 
L 170.390438 306.687355 
L 173.545817 306.557468 
L 179.856574 306.748367 
L 183.011952 306.959081 
L 186.167331 307.00014 
L 189.322709 306.720503 
L 198.788845 306.908365 
L 205.099602 306.527128 
L 227.187251 306.296277 
L 233.498008 306.079462 
L 258.741036 306.363907 
L 261.896414 306.54908 
L 265.051793 306.591203 
L 268.207171 306.490879 
L 271.36255 306.606997 
L 283.984064 306.552505 
L 287.139442 306.648066 
L 290.294821 306.533998 
L 293.450199 306.685584 
L 299.760956 306.371486 
L 302.916335 306.547231 
L 306.071713 306.434363 
L 309.227092 306.467155 
L 312.38247 306.338428 
L 315.537849 306.518363 
L 328.159363 306.723711 
L 331.314741 306.78658 
L 340.780876 306.59036 
L 343.936255 306.759754 
L 350.247012 306.757444 
L 353.40239 306.634022 
L 359.713147 306.589097 
L 375.49004 306.389299 
L 381.800797 306.454752 
L 388.111554 306.420145 
L 394.422311 306.635301 
L 397.577689 306.766076 
L 425.976096 306.398596 
L 429.131474 306.498996 
L 438.59761 306.44035 
L 451.219124 306.319461 
L 470.151394 306.449729 
L 479.61753 306.306223 
L 489.083665 306.447349 
L 492.239044 306.240864 
L 498.549801 306.093306 
L 504.860558 306.160371 
L 511.171315 306.05349 
L 526.948207 306.010999 
L 536.414343 305.946305 
L 558.501992 306.101631 
L 564.812749 306.252282 
L 586.900398 306.301592 
L 593.211155 306.204062 
L 596.366534 306.365026 
L 608.988048 306.428532 
L 627.920319 306.484231 
L 634.231076 306.461138 
L 637.386454 306.505862 
L 646.85259 306.312919 
L 653.163347 306.467698 
L 662.629482 306.541334 
L 665.784861 306.443048 
L 668.940239 306.499079 
L 675.250996 306.381173 
L 684.717131 306.328338 
L 691.027888 306.229695 
L 694.183267 306.433897 
L 697.338645 306.477597 
L 700.494024 306.374574 
L 716.270916 306.501235 
L 722.581673 306.410969 
L 725.737052 306.45231 
L 728.89243 306.251615 
L 735.203187 306.261322 
L 788.844622 306.160893 
L 788.844622 306.160893 
" clip-path="url(#pae08c44ed4)" style="fill: none; stroke: #000000; stroke-width: 1.5; stroke-linecap: square"/>
   </g>
   <g id="line2d_9">
    <path d="M 0 306 
L 3.155378 306 
L 6.310757 310.998853 
L 9.466135 307.417198 
L 12.621514 309.275409 
L 15.776892 308.813738 
L 18.932271 308.93086 
L 22.087649 307.539351 
L 25.243028 306.664533 
L 28.398406 306.43657 
L 31.553785 305.675036 
L 34.709163 305.806424 
L 37.864542 305.768867 
L 44.175299 306.177489 
L 47.330677 306.263188 
L 50.486056 306.58281 
L 53.641434 307.246254 
L 56.796813 307.304851 
L 66.262948 307.059547 
L 69.418327 306.865967 
L 72.573705 307.386089 
L 75.729084 307.108931 
L 78.884462 307.351967 
L 85.195219 307.282621 
L 88.350598 307.426153 
L 91.505976 307.361766 
L 94.661355 307.568596 
L 97.816733 307.254793 
L 100.972112 307.116414 
L 104.12749 306.829043 
L 107.282869 306.723661 
L 110.438247 306.763632 
L 113.593625 306.611146 
L 116.749004 306.920404 
L 119.904382 306.770895 
L 123.059761 306.876648 
L 129.370518 306.578788 
L 135.681275 306.926671 
L 138.836653 306.903985 
L 141.992032 306.758257 
L 145.14741 306.761105 
L 148.302789 306.932846 
L 157.768924 307.083544 
L 160.924303 306.770364 
L 167.23506 306.655423 
L 170.390438 306.715206 
L 173.545817 306.601156 
L 179.856574 306.765742 
L 183.011952 306.948204 
L 186.167331 306.983959 
L 189.322709 306.742771 
L 198.788845 306.903482 
L 205.099602 306.577069 
L 227.187251 306.373401 
L 233.498008 306.18879 
L 258.741036 306.413275 
L 261.896414 306.564603 
L 265.051793 306.598892 
L 268.207171 306.516739 
L 271.36255 306.611122 
L 283.984064 306.565668 
L 287.139442 306.642665 
L 290.294821 306.550801 
L 293.450199 306.6725 
L 299.760956 306.420338 
L 302.916335 306.560188 
L 306.071713 306.469965 
L 309.227092 306.495608 
L 312.38247 306.392945 
L 315.537849 306.534942 
L 337.625498 306.660548 
L 340.780876 306.593993 
L 343.936255 306.725941 
L 356.557769 306.633255 
L 375.49004 306.439923 
L 381.800797 306.48887 
L 388.111554 306.461622 
L 407.043825 306.673709 
L 432.286853 306.481389 
L 438.59761 306.477674 
L 454.374502 306.411073 
L 460.685259 306.507504 
L 485.928287 306.418851 
L 489.083665 306.474274 
L 495.394422 306.257729 
L 501.705179 306.239622 
L 508.015936 306.197717 
L 545.880478 306.150258 
L 552.191235 306.224462 
L 574.278884 306.333821 
L 583.74502 306.342618 
L 599.521912 306.373228 
L 608.988048 306.421199 
L 637.386454 306.474455 
L 646.85259 306.345612 
L 681.561753 306.403 
L 691.027888 306.292572 
L 697.338645 306.454159 
L 703.649402 306.410158 
L 719.426295 306.422316 
L 788.844622 306.241539 
L 788.844622 306.241539 
" clip-path="url(#pae08c44ed4)" style="fill: none; stroke: #000000; stroke-width: 1.5; stroke-linecap: square"/>
   </g>
  </g>
 </g>
 <defs>
  <clipPath id="pae08c44ed4">
   <rect x="0" y="0" width="792" height="612"/>
  </clipPath>
 </defs>
</svg>
