<?xml version="1.0" encoding="utf-8" standalone="no"?>
<!DOCTYPE svg PUBLIC "-//W3C//DTD SVG 1.1//EN"
  "http://www.w3.org/Graphics/SVG/1.1/DTD/svg11.dtd">
<svg xmlns:xlink="http://www.w3.org/1999/xlink" width="792pt" height="612pt" viewBox="0 0 792 612" xmlns="http://www.w3.org/2000/svg" version="1.1">
 <metadata>
  <rdf:RDF xmlns:dc="http://purl.org/dc/elements/1.1/" xmlns:cc="http://creativecommons.org/ns#" xmlns:rdf="http://www.w3.org/1999/02/22-rdf-syntax-ns#">
   <cc:Work>
    <dc:type rdf:resource="http://purl.org/dc/dcmitype/StillImage"/>
    <dc:date>2023-01-30T17:18:02.908385</dc:date>
    <dc:format>image/svg+xml</dc:format>
    <dc:creator>
     <cc:Agent>
      <dc:title>Matplotlib v3.6.2, https://matplotlib.org/</dc:title>
     </cc:Agent>
    </dc:creator>
   </cc:Work>
  </rdf:RDF>
 </metadata>
 <defs>
  <style type="text/css">*{stroke-linejoin: round; stroke-linecap: butt}</style>
 </defs>
 <g id="figure_1">
  <g id="patch_1">
   <path d="M 0 612 
L 792 612 
L 792 0 
L 0 0 
z
" style="fill: #ffffff"/>
  </g>
  <g id="axes_1">
   <g id="line2d_1">
    <path d="M 0 306 
L 3.168 314.134129 
L 6.336 297.515082 
L 9.504 302.768417 
L 12.672 297.308746 
L 15.84 303.191697 
L 19.008 308.292092 
L 22.176 301.147689 
L 25.344 318.599614 
L 28.512 301.158011 
L 31.68 311.151654 
L 34.848 302.272884 
L 38.016 299.135072 
L 41.184 315.114218 
L 44.352 313.576951 
L 47.52 306.0413 
L 50.688 300.352904 
L 53.856 307.001515 
L 57.024 315.052323 
L 60.192 308.890895 
L 63.36 306.216824 
L 66.528 313.690454 
L 69.696 291.226193 
L 72.864 303.191697 
L 76.032 304.471923 
L 79.2 309.964552 
L 82.368 300.590299 
L 85.536 310.408441 
L 88.704 312.256037 
L 91.872 317.300659 
L 95.04 309.159317 
L 98.208 292.946887 
L 101.376 309.004459 
L 104.544 311.698703 
L 107.712 309.747763 
L 110.88 294.946809 
L 114.048 298.526236 
L 117.216 305.143033 
L 120.384 300.621265 
L 123.552 307.311258 
L 126.72 300.941244 
L 129.888 310.71812 
L 133.056 301.24059 
L 136.224 306.433647 
L 139.392 298.753253 
L 142.56 301.137367 
L 145.728 307.60035 
L 148.896 311.729667 
L 152.064 304.853938 
L 155.232 300.270333 
L 158.4 310.222629 
L 161.568 317.744001 
L 164.736 304.069263 
L 167.904 310.542636 
L 171.072 318.084207 
L 177.408 300.260011 
L 180.576 314.04127 
L 183.744 305.287581 
L 186.912 301.065111 
L 190.08 304.905562 
L 193.248 311.729667 
L 196.416 312.999083 
L 199.584 299.093794 
L 202.752 316.836645 
L 205.92 292.586191 
L 209.088 299.382751 
L 212.256 318.496538 
L 215.424 298.825488 
L 218.592 308.77733 
L 221.76 297.535716 
L 224.928 319.0325 
L 228.096 308.705062 
L 231.264 316.47571 
L 234.432 300.9206 
L 237.6 315.238006 
L 240.768 311.368414 
L 243.936 300.043267 
L 247.104 305.607653 
L 250.272 300.507726 
L 253.44 319.145867 
L 256.608 306.97054 
L 259.776 306.598845 
L 262.944 297.649204 
L 266.112 307.063464 
L 269.28 303.005865 
L 272.448 302.510324 
L 275.616 298.423049 
L 278.784 307.414506 
L 281.952 305.432129 
L 285.12 303.769854 
L 288.288 310.707797 
L 291.456 307.311258 
L 294.624 302.128357 
L 297.792 308.157875 
L 300.96 311.801916 
L 304.128 318.176986 
L 307.296 317.073814 
L 310.464 303.697584 
L 313.632 298.49528 
L 316.8 313.009402 
L 319.968 303.232994 
L 323.136 299.713001 
L 326.304 306.62982 
L 329.472 300.084551 
L 332.64 296.875466 
L 335.808 308.901219 
L 338.976 314.680938 
L 342.144 302.097387 
L 345.312 309.541293 
L 348.48 303.160725 
L 351.648 302.623884 
L 354.816 302.530972 
L 357.984 303.738881 
L 361.152 306.764043 
L 364.32 309.252231 
L 367.488 317.187238 
L 370.656 306.980865 
L 373.824 304.595819 
L 376.992 303.27429 
L 380.16 308.550199 
L 383.328 300.549013 
L 386.496 303.171049 
L 389.664 303.346559 
L 392.832 310.625217 
L 396 307.579701 
L 399.168 313.153874 
L 402.336 288.631503 
L 405.504 298.082545 
L 408.672 301.529623 
L 411.84 308.818627 
L 415.008 309.293526 
L 418.176 298.103181 
L 421.344 304.781665 
L 427.68 308.674089 
L 430.848 303.955694 
L 434.016 298.918362 
L 437.184 308.209497 
L 440.352 300.951567 
L 443.52 304.389326 
L 446.688 306.784693 
L 449.856 307.435155 
L 453.024 307.187361 
L 456.192 310.150368 
L 459.36 314.670621 
L 462.528 307.352557 
L 465.696 306.671119 
L 468.864 302.840683 
L 472.032 317.104748 
L 475.2 308.952839 
L 478.368 308.333389 
L 481.536 307.548727 
L 484.704 307.104763 
L 487.872 310.4807 
L 491.04 308.901219 
L 494.208 301.003177 
L 497.376 305.556028 
L 500.544 299.867812 
L 503.712 303.738881 
L 506.88 321.124017 
L 510.048 305.762527 
L 513.216 313.061 
L 516.384 306.660795 
L 519.552 306.227148 
L 522.72 308.137226 
L 525.888 309.613558 
L 529.056 303.904072 
L 532.224 309.159317 
L 535.392 306.485271 
L 538.56 307.073788 
L 541.728 301.188978 
L 544.896 309.685822 
L 548.064 310.749087 
L 551.232 297.907141 
L 554.4 297.597618 
L 557.568 305.669602 
L 560.736 308.488254 
L 563.904 318.95005 
L 567.072 311.151654 
L 570.24 309.964552 
L 573.408 305.648952 
L 576.576 297.23653 
L 579.744 311.863843 
L 582.912 296.741363 
L 586.08 304.998485 
L 589.248 308.085604 
L 592.416 306.340723 
L 595.584 299.836849 
L 598.752 300.703839 
L 601.92 302.479354 
L 605.088 325.940122 
L 608.256 310.71812 
L 611.424 296.586633 
L 614.592 309.861319 
L 617.76 310.08843 
L 620.928 314.330161 
L 624.096 312.039301 
L 627.264 298.629425 
L 630.432 299.31051 
L 636.768 310.501345 
L 639.936 286.954502 
L 643.104 301.736079 
L 646.272 311.739989 
L 649.44 305.566353 
L 652.608 306.247798 
L 655.776 306.051625 
L 658.944 306.474946 
L 662.112 305.143033 
L 665.28 302.923274 
L 668.448 303.367207 
L 671.616 306.092924 
L 674.784 311.915449 
L 677.952 307.476454 
L 681.12 290.721492 
L 684.288 306.464622 
L 687.456 305.659277 
L 690.624 310.976178 
L 693.792 311.244552 
L 696.96 306.774368 
L 700.128 302.871655 
L 703.296 308.044306 
L 706.464 298.68102 
L 709.632 301.447041 
L 712.8 305.690252 
L 715.968 314.474601 
L 719.136 310.460055 
L 722.304 310.377472 
L 725.472 304.606144 
L 728.64 303.284614 
L 731.808 312.441806 
L 734.976 305.442454 
L 738.144 307.827491 
L 741.312 308.508902 
L 744.48 299.31051 
L 747.648 307.22866 
L 750.816 306.247798 
L 753.984 316.816021 
L 757.152 313.009402 
L 760.32 303.294938 
L 766.656 304.213807 
L 769.824 298.856445 
L 772.992 303.171049 
L 776.16 305.256606 
L 779.328 304.843613 
L 782.496 310.687152 
L 785.664 310.005845 
L 788.832 297.442863 
L 788.832 297.442863 
" clip-path="url(#pd7986ea808)" style="fill: none; stroke: #000000; stroke-width: 1.5; stroke-linecap: square"/>
   </g>
   <g id="line2d_2">
    <path d="M 0 306 
L 3.168 306 
L 6.336 311.423463 
L 9.504 303.474874 
L 12.672 303.098093 
L 15.84 300.109522 
L 19.008 301.674961 
L 22.176 305.00946 
L 25.344 303.070886 
L 28.512 310.863079 
L 31.68 305.9851 
L 34.848 308.595302 
L 41.184 302.287256 
L 44.352 308.725305 
L 47.52 311.161814 
L 50.688 308.611335 
L 53.856 304.44605 
L 57.024 305.735236 
L 60.192 310.40245 
L 63.36 309.65967 
L 66.528 307.952195 
L 69.696 310.818956 
L 72.864 300.973628 
L 79.2 303.282509 
L 82.368 306.629415 
L 85.536 303.581263 
L 88.704 306.997952 
L 91.872 309.639104 
L 95.04 313.478134 
L 98.208 311.354166 
L 101.376 302.12694 
L 104.544 305.574532 
L 107.712 308.640283 
L 110.88 309.211989 
L 114.048 302.046945 
L 117.216 300.259485 
L 120.384 302.677203 
L 123.552 301.632446 
L 126.72 304.499901 
L 129.888 302.704652 
L 133.056 306.709585 
L 136.224 303.958245 
L 139.392 305.218465 
L 142.56 301.985856 
L 145.728 301.55375 
L 148.896 304.590596 
L 152.064 308.16909 
L 155.232 306.519202 
L 158.4 303.374009 
L 161.568 306.816032 
L 164.736 312.304199 
L 167.904 308.197553 
L 171.072 309.388585 
L 174.24 313.758515 
L 177.408 311.52672 
L 180.576 305.88432 
L 183.744 309.990502 
L 186.912 307.629461 
L 190.08 304.314381 
L 193.248 304.61161 
L 196.416 308.17326 
L 199.584 310.576478 
L 202.752 304.814704 
L 205.92 310.860043 
L 209.088 301.677218 
L 212.256 300.518331 
L 215.424 309.544654 
L 218.592 304.17259 
L 221.76 306.469197 
L 224.928 301.971283 
L 228.096 310.544498 
L 231.264 309.608862 
L 234.432 313.090015 
L 237.6 307.008722 
L 240.768 311.117895 
L 243.936 311.267746 
L 247.104 305.638263 
L 250.272 305.63879 
L 253.44 303.036716 
L 256.608 311.115304 
L 259.776 309.024418 
L 262.944 307.822795 
L 266.112 302.700604 
L 269.28 304.873535 
L 272.448 303.945491 
L 275.616 303.221819 
L 278.784 300.818028 
L 281.952 304.09303 
L 285.12 304.759557 
L 288.288 304.259154 
L 291.456 307.50925 
L 294.624 307.41074 
L 297.792 304.767736 
L 300.96 306.473894 
L 304.128 309.164378 
L 307.296 313.693449 
L 310.464 315.406733 
L 313.632 309.553317 
L 316.8 303.999705 
L 319.968 308.516271 
L 323.136 305.876789 
L 326.304 302.778012 
L 329.472 304.693722 
L 332.64 302.353447 
L 335.808 299.574343 
L 338.976 304.247575 
L 342.144 309.497003 
L 345.312 305.775767 
L 348.48 307.670962 
L 351.648 305.422574 
L 354.816 304.015333 
L 357.984 303.277934 
L 361.152 303.521868 
L 364.32 305.138741 
L 367.488 307.184891 
L 370.656 312.217304 
L 376.992 307.097961 
L 380.16 305.187369 
L 383.328 306.880613 
L 386.496 303.708313 
L 389.664 303.432634 
L 392.832 303.378017 
L 396 306.988882 
L 399.168 307.285467 
L 402.336 310.236838 
L 405.504 299.397239 
L 408.672 298.719342 
L 411.84 300.126281 
L 415.008 304.483219 
L 418.176 306.900089 
L 421.344 302.476358 
L 424.512 303.623491 
L 427.68 305.181215 
L 430.848 306.967018 
L 434.016 305.472862 
L 437.184 302.190054 
L 440.352 305.198504 
L 443.52 303.058538 
L 446.688 303.736249 
L 449.856 305.26438 
L 453.024 306.351088 
L 456.192 306.766311 
L 459.36 308.470561 
L 462.528 311.602046 
L 465.696 309.475789 
L 468.864 308.084713 
L 472.032 305.459622 
L 475.2 311.304338 
L 478.368 310.131625 
L 484.704 308.386671 
L 487.872 307.730885 
L 491.04 309.111989 
L 494.208 309.010977 
L 497.376 305.003303 
L 500.544 305.257011 
L 503.712 302.544332 
L 506.88 303.132587 
L 510.048 312.160237 
L 513.216 308.959074 
L 516.384 311.015322 
L 519.552 308.833809 
L 522.72 307.54075 
L 525.888 307.844051 
L 529.056 308.747937 
L 532.224 306.326349 
L 535.392 307.719387 
L 538.56 307.103751 
L 541.728 307.077028 
L 544.896 304.122101 
L 548.064 306.910818 
L 551.232 308.835186 
L 554.4 303.347369 
L 557.568 300.45964 
L 563.904 305.77682 
L 567.072 312.389677 
L 570.24 311.790219 
L 573.408 310.877975 
L 576.576 308.253629 
L 579.744 302.742708 
L 582.912 307.331543 
L 586.08 302.017757 
L 589.248 303.50122 
L 592.416 305.772082 
L 595.584 306.046968 
L 598.752 302.921736 
L 601.92 301.803037 
L 605.088 302.151473 
L 608.256 314.085616 
L 611.424 312.429462 
L 614.592 304.490548 
L 617.76 307.179506 
L 620.928 308.641376 
L 624.096 311.514657 
L 627.264 311.799204 
L 630.432 305.206399 
L 633.6 302.205843 
L 636.768 303.575352 
L 639.936 307.065772 
L 643.104 296.955485 
L 646.272 299.329005 
L 649.44 305.529224 
L 652.608 305.535095 
L 655.776 305.906387 
L 658.944 305.992226 
L 662.112 306.236542 
L 665.28 305.679279 
L 668.448 304.332601 
L 671.616 303.853097 
L 674.784 304.961923 
L 677.952 308.451451 
L 681.12 307.966366 
L 684.288 299.308568 
L 687.456 302.886149 
L 690.624 304.27369 
L 693.792 307.64092 
L 696.96 309.4583 
L 700.128 308.117711 
L 703.296 305.476911 
L 706.464 306.761735 
L 709.632 302.736433 
L 712.8 302.081882 
L 715.968 303.886054 
L 719.136 309.188143 
L 722.304 309.822577 
L 725.472 310.107092 
L 728.64 307.360129 
L 731.808 305.313009 
L 734.976 308.904782 
L 738.144 307.18149 
L 741.312 307.508683 
L 744.48 307.997097 
L 747.648 303.631467 
L 750.816 305.423869 
L 753.984 305.839053 
L 757.152 311.355785 
L 760.32 312.183752 
L 763.488 307.735501 
L 766.656 305.729163 
L 769.824 304.963057 
L 772.992 301.908453 
L 776.16 302.531781 
L 779.328 303.892209 
L 782.496 304.344423 
L 785.664 307.511396 
L 788.832 308.771824 
L 788.832 308.771824 
" clip-path="url(#pd7986ea808)" style="fill: none; stroke: #000000; stroke-width: 1.5; stroke-linecap: square"/>
   </g>
   <g id="line2d_3">
    <path d="M 0 306 
L 3.168 306 
L 6.336 310.7656 
L 9.504 304.761263 
L 12.672 303.982986 
L 15.84 301.60782 
L 19.008 302.137978 
L 22.176 304.115142 
L 25.344 303.187987 
L 28.512 307.912767 
L 31.68 305.87042 
L 34.848 307.452346 
L 38.016 305.911189 
L 41.184 303.90403 
L 44.352 307.214038 
L 47.52 309.0884 
L 50.688 308.192462 
L 53.856 305.88966 
L 57.024 306.207121 
L 60.192 308.818664 
L 63.36 308.846852 
L 66.528 308.086795 
L 69.696 309.74044 
L 72.864 304.29491 
L 76.032 303.974129 
L 79.2 304.103694 
L 82.368 305.830463 
L 85.536 304.283376 
L 91.872 307.909022 
L 95.04 310.663445 
L 98.208 310.217842 
L 101.376 305.142117 
L 104.544 306.283335 
L 107.712 307.875025 
L 110.88 308.417463 
L 114.048 304.454618 
L 117.216 302.709082 
L 120.384 303.412122 
L 123.552 302.605436 
L 126.72 303.988404 
L 129.888 303.091788 
L 133.056 305.326403 
L 136.224 304.130353 
L 139.392 304.800396 
L 142.56 303.013411 
L 145.728 302.445332 
L 148.896 303.953332 
L 152.064 306.252727 
L 155.232 305.838262 
L 158.4 304.19415 
L 161.568 305.96046 
L 164.736 309.439522 
L 167.904 307.873049 
L 171.072 308.661203 
L 174.24 311.442518 
L 177.408 310.81845 
L 180.576 307.725239 
L 183.744 309.579372 
L 186.912 308.327055 
L 190.08 306.19382 
L 193.248 305.823565 
L 196.416 307.565772 
L 199.584 309.163609 
L 202.752 306.199449 
L 205.92 309.329976 
L 209.088 304.414588 
L 212.256 302.928135 
L 215.424 307.490833 
L 218.592 304.946415 
L 221.76 306.066455 
L 224.928 303.543668 
L 228.096 308.093666 
L 231.264 308.282442 
L 234.432 310.685856 
L 237.6 307.820764 
L 240.768 310.010114 
L 243.936 310.415392 
L 247.104 307.36403 
L 250.272 306.841112 
L 253.44 304.987563 
L 256.608 309.139349 
L 262.944 307.966086 
L 266.112 304.919802 
L 269.28 305.557128 
L 275.616 304.137343 
L 278.784 302.439673 
L 281.952 303.895208 
L 285.12 304.332665 
L 288.288 304.171093 
L 291.456 306.080537 
L 294.624 306.436348 
L 297.792 305.176904 
L 300.96 306.052949 
L 304.128 307.749941 
L 307.296 310.80434 
L 310.464 312.652884 
L 313.632 310.027101 
L 316.8 306.650204 
L 319.968 308.519904 
L 323.136 306.971679 
L 326.304 304.842197 
L 329.472 305.375205 
L 332.64 303.817009 
L 335.808 301.773497 
L 338.976 303.866922 
L 342.144 307.039494 
L 345.312 305.585937 
L 348.48 306.752993 
L 351.648 305.69508 
L 354.816 304.784971 
L 357.984 304.106787 
L 361.152 303.983708 
L 364.32 304.801557 
L 367.488 306.117518 
L 370.656 309.365892 
L 373.824 308.671668 
L 380.16 306.2468 
L 383.328 306.931189 
L 386.496 305.065951 
L 389.664 304.504351 
L 392.832 304.152215 
L 396 306.057996 
L 399.168 306.501444 
L 402.336 308.461704 
L 405.504 302.63218 
L 408.672 301.294268 
L 411.84 301.360664 
L 415.008 303.547235 
L 418.176 305.230334 
L 421.344 303.120482 
L 424.512 303.604492 
L 427.68 304.532371 
L 430.848 305.751666 
L 434.016 305.220354 
L 437.184 303.372362 
L 440.352 304.794885 
L 443.52 303.666359 
L 446.688 303.870946 
L 453.024 305.511106 
L 456.192 306.023406 
L 459.36 307.246096 
L 462.528 309.436326 
L 468.864 308.190687 
L 472.032 306.629143 
L 475.2 309.712784 
L 478.368 309.492719 
L 481.536 309.152777 
L 487.872 308.233061 
L 491.04 308.894024 
L 494.208 308.905262 
L 497.376 306.586836 
L 500.544 306.283508 
L 503.712 304.395476 
L 506.88 304.199201 
L 510.048 309.172467 
L 513.216 308.163528 
L 516.384 309.604749 
L 519.552 308.742517 
L 522.72 308.009696 
L 525.888 308.036743 
L 529.056 308.499356 
L 532.224 307.148365 
L 535.392 307.739227 
L 538.56 307.371245 
L 541.728 307.280208 
L 544.896 305.487159 
L 551.232 307.911055 
L 554.4 304.978192 
L 557.568 302.80891 
L 560.736 303.628988 
L 563.904 305.05535 
L 567.072 309.13394 
L 570.24 309.730109 
L 573.408 309.803069 
L 576.576 308.583575 
L 579.744 305.245226 
L 582.912 307.193121 
L 586.08 304.116805 
L 589.248 304.373333 
L 592.416 305.461793 
L 595.584 305.725143 
L 598.752 303.988973 
L 601.92 303.01516 
L 605.088 302.863477 
L 608.256 309.663094 
L 611.424 309.977912 
L 614.592 306.041312 
L 617.76 307.149773 
L 620.928 308.00931 
L 624.096 309.866079 
L 627.264 310.50999 
L 630.432 307.031663 
L 633.6 304.755467 
L 636.768 304.827024 
L 639.936 306.495406 
L 643.104 300.741006 
L 646.272 301.027158 
L 649.44 304.178456 
L 658.944 305.341893 
L 662.112 305.668882 
L 665.28 305.524695 
L 668.448 304.754763 
L 671.616 304.34063 
L 674.784 304.844395 
L 677.952 306.915526 
L 681.12 307.089982 
L 684.288 302.282345 
L 687.456 303.508951 
L 690.624 304.133189 
L 693.792 306.165187 
L 696.96 307.663955 
L 700.128 307.397699 
L 703.296 306.068931 
L 706.464 306.649576 
L 709.632 304.306782 
L 712.8 303.463355 
L 715.968 304.116209 
L 719.136 307.163995 
L 722.304 308.137598 
L 725.472 308.798597 
L 731.808 306.304568 
L 734.976 308.127331 
L 738.144 307.33979 
L 741.312 307.485126 
L 744.48 307.782153 
L 747.648 305.28686 
L 750.816 305.856123 
L 753.984 305.97472 
L 757.152 309.161352 
L 760.32 310.305035 
L 763.488 308.254087 
L 766.656 306.929387 
L 769.824 306.12222 
L 772.992 303.980443 
L 776.16 303.735096 
L 779.328 304.181475 
L 782.496 304.3772 
L 785.664 306.223423 
L 788.832 307.336569 
L 788.832 307.336569 
" clip-path="url(#pd7986ea808)" style="fill: none; stroke: #000000; stroke-width: 1.5; stroke-linecap: square"/>
   </g>
   <g id="line2d_4">
    <path d="M 0 306 
L 3.168 306 
L 6.336 310.419304 
L 9.504 305.354193 
L 12.672 304.531353 
L 15.84 302.548036 
L 19.008 302.706452 
L 22.176 303.971083 
L 25.344 303.372088 
L 28.512 306.441119 
L 31.68 305.419981 
L 34.848 306.491229 
L 38.016 305.724163 
L 41.184 304.552484 
L 44.352 306.396285 
L 47.52 307.630738 
L 50.688 307.360998 
L 53.856 306.184033 
L 57.024 306.320112 
L 60.192 307.763479 
L 63.36 307.948645 
L 66.528 307.665676 
L 69.696 308.646111 
L 72.864 305.820257 
L 76.032 305.395393 
L 79.2 305.246509 
L 82.368 306.005587 
L 85.536 305.135827 
L 88.704 305.981371 
L 91.872 306.986431 
L 95.04 308.637338 
L 98.208 308.720775 
L 101.376 306.200045 
L 104.544 306.648127 
L 107.712 307.450266 
L 110.88 307.823457 
L 114.048 305.769106 
L 117.216 304.617272 
L 120.384 304.70214 
L 123.552 304.048003 
L 126.72 304.571034 
L 129.888 303.982446 
L 133.056 305.060119 
L 136.224 304.446184 
L 139.392 304.764988 
L 142.56 303.808077 
L 145.728 303.374403 
L 148.896 304.043011 
L 152.064 305.269621 
L 155.232 305.206293 
L 158.4 304.41667 
L 161.568 305.337435 
L 164.736 307.317801 
L 167.904 306.799608 
L 171.072 307.393217 
L 174.24 309.111862 
L 177.408 309.146222 
L 180.576 307.729733 
L 183.744 308.736703 
L 186.912 308.19089 
L 190.08 307.051282 
L 193.248 306.705305 
L 199.584 308.378583 
L 202.752 306.905031 
L 205.92 308.490744 
L 209.088 305.947019 
L 212.256 304.895994 
L 215.424 307.075688 
L 218.592 305.763033 
L 221.76 306.244898 
L 224.928 304.856971 
L 228.096 307.120913 
L 231.264 307.377807 
L 234.432 308.829489 
L 237.6 307.570937 
L 240.768 308.796671 
L 243.936 309.213751 
L 247.104 307.753972 
L 250.272 307.411248 
L 253.44 306.305785 
L 256.608 308.358851 
L 262.944 307.89435 
L 266.112 306.251459 
L 269.28 306.38252 
L 275.616 305.300967 
L 278.784 304.199649 
L 281.952 304.715601 
L 285.12 304.824229 
L 288.288 304.655525 
L 291.456 305.624532 
L 294.624 305.894399 
L 297.792 305.289185 
L 300.96 305.742587 
L 304.128 306.714688 
L 307.296 308.540184 
L 310.464 309.913808 
L 313.632 308.92756 
L 316.8 307.255091 
L 319.968 308.179638 
L 323.136 307.389159 
L 326.304 306.169082 
L 329.472 306.234643 
L 332.64 305.250647 
L 335.808 303.905493 
L 338.976 304.705305 
L 342.144 306.29248 
L 345.312 305.619207 
L 348.48 306.249177 
L 357.984 304.814724 
L 361.152 304.641534 
L 364.32 304.979333 
L 367.488 305.666424 
L 370.656 307.506527 
L 373.824 307.425373 
L 376.992 306.976486 
L 380.16 306.390472 
L 383.328 306.734809 
L 386.496 305.747489 
L 392.832 305.015866 
L 396 305.910455 
L 399.168 306.179442 
L 402.336 307.292417 
L 405.504 304.30598 
L 408.672 303.30304 
L 411.84 303.011167 
L 418.176 304.797086 
L 421.344 303.722517 
L 424.512 303.891995 
L 427.68 304.353336 
L 430.848 305.042059 
L 434.016 304.871628 
L 437.184 303.925544 
L 440.352 304.606694 
L 443.52 304.016529 
L 446.688 304.077272 
L 456.192 305.329804 
L 459.36 306.101567 
L 462.528 307.472114 
L 468.864 307.327377 
L 472.032 306.604562 
L 475.2 308.282233 
L 478.368 308.391649 
L 481.536 308.385536 
L 487.872 308.073374 
L 491.04 308.460974 
L 494.208 308.534485 
L 497.376 307.330193 
L 500.544 307.046657 
L 503.712 305.896059 
L 506.88 305.562275 
L 510.048 308.054521 
L 513.216 307.692506 
L 516.384 308.549455 
L 522.72 307.93099 
L 525.888 307.965896 
L 529.056 308.229833 
L 532.224 307.538628 
L 535.392 307.79974 
L 538.56 307.595328 
L 541.728 307.511642 
L 544.896 306.505778 
L 551.232 307.611683 
L 554.4 306.061422 
L 557.568 304.708487 
L 560.736 304.858607 
L 563.904 305.432243 
L 567.072 307.591432 
L 570.24 308.160726 
L 573.408 308.452179 
L 576.576 307.99904 
L 579.744 306.279017 
L 582.912 307.169895 
L 586.08 305.503489 
L 589.248 305.421826 
L 592.416 305.844153 
L 595.584 305.921561 
L 598.752 304.952605 
L 601.92 304.273514 
L 605.088 303.989676 
L 608.256 307.500406 
L 611.424 308.005896 
L 614.592 306.182875 
L 620.928 307.296918 
L 624.096 308.421273 
L 627.264 308.999421 
L 630.432 307.342508 
L 633.6 306.061559 
L 636.768 305.884876 
L 639.936 306.62193 
L 643.104 303.476339 
L 646.272 303.199785 
L 649.44 304.559896 
L 655.776 304.965583 
L 662.112 305.355967 
L 665.28 305.320001 
L 668.448 304.928655 
L 671.616 304.67536 
L 674.784 304.898482 
L 677.952 306.01893 
L 681.12 306.25722 
L 684.288 303.770246 
L 687.456 304.204987 
L 690.624 304.436778 
L 693.792 305.479083 
L 696.96 306.399531 
L 700.128 306.463498 
L 703.296 305.893359 
L 706.464 306.239059 
L 709.632 305.019303 
L 712.8 304.445115 
L 715.968 304.6489 
L 719.136 306.215422 
L 722.304 306.891038 
L 725.472 307.443314 
L 728.64 306.987275 
L 731.808 306.401065 
L 734.976 307.370506 
L 738.144 307.064045 
L 744.48 307.408134 
L 747.648 306.118098 
L 750.816 306.291978 
L 753.984 306.285374 
L 757.152 307.968125 
L 760.32 308.774694 
L 763.488 307.900889 
L 766.656 307.23783 
L 769.824 306.757503 
L 772.992 305.497397 
L 776.16 305.125433 
L 782.496 305.093007 
L 785.664 305.995577 
L 788.832 306.63587 
L 788.832 306.63587 
" clip-path="url(#pd7986ea808)" style="fill: none; stroke: #000000; stroke-width: 1.5; stroke-linecap: square"/>
   </g>
   <g id="line2d_5">
    <path d="M 0 306 
L 3.168 306 
L 6.336 310.243874 
L 9.504 305.627867 
L 12.672 304.817568 
L 15.84 303.044529 
L 19.008 303.074659 
L 22.176 304.026858 
L 25.344 303.548901 
L 28.512 305.856787 
L 31.68 305.183833 
L 34.848 305.989996 
L 38.016 305.51274 
L 41.184 304.729344 
L 44.352 305.956217 
L 47.52 306.825946 
L 50.688 306.739116 
L 53.856 306.051367 
L 57.024 306.151216 
L 60.192 307.066665 
L 63.36 307.250586 
L 66.528 307.14819 
L 69.696 307.786122 
L 72.864 306.193709 
L 76.032 305.908953 
L 79.2 305.774243 
L 82.368 306.162892 
L 85.536 305.651003 
L 88.704 306.084162 
L 91.872 306.641661 
L 95.04 307.597794 
L 98.208 307.736878 
L 101.376 306.426849 
L 104.544 306.653795 
L 107.712 307.095782 
L 110.88 307.327043 
L 114.048 306.251614 
L 117.216 305.583228 
L 120.384 305.545284 
L 123.552 305.122146 
L 126.72 305.309694 
L 129.888 304.936398 
L 133.056 305.429236 
L 136.224 305.072981 
L 139.392 305.188462 
L 142.56 304.643212 
L 145.728 304.346705 
L 148.896 304.621421 
L 152.064 305.220791 
L 155.232 305.189901 
L 158.4 304.776109 
L 161.568 305.233679 
L 164.736 306.284068 
L 167.904 306.098365 
L 171.072 306.470708 
L 174.24 307.44338 
L 177.408 307.599013 
L 180.576 306.985464 
L 183.744 307.575084 
L 186.912 307.384083 
L 190.08 306.856691 
L 193.248 306.693931 
L 199.584 307.604509 
L 202.752 306.895297 
L 205.92 307.724278 
L 209.088 306.460163 
L 212.256 305.87329 
L 215.424 306.926664 
L 218.592 306.254686 
L 221.76 306.46588 
L 224.928 305.721032 
L 228.096 306.832306 
L 231.264 306.984519 
L 234.432 307.777559 
L 237.6 307.205103 
L 240.768 307.876237 
L 243.936 308.170087 
L 247.104 307.490646 
L 250.272 307.331774 
L 253.44 306.763561 
L 256.608 307.798015 
L 262.944 307.632752 
L 266.112 306.800339 
L 269.28 306.822453 
L 275.616 306.174561 
L 278.784 305.529536 
L 281.952 305.686939 
L 285.12 305.664316 
L 288.288 305.508115 
L 291.456 305.939796 
L 294.624 306.052012 
L 297.792 305.721408 
L 300.96 305.923302 
L 304.128 306.4174 
L 307.296 307.39691 
L 310.464 308.202177 
L 313.632 307.826354 
L 316.8 307.05296 
L 319.968 307.552128 
L 323.136 307.193035 
L 326.304 306.571858 
L 329.472 306.576447 
L 332.64 306.037306 
L 335.808 305.272181 
L 338.976 305.575876 
L 342.144 306.334438 
L 345.312 305.983851 
L 348.48 306.281853 
L 361.152 305.327085 
L 364.32 305.445221 
L 367.488 305.758431 
L 370.656 306.71166 
L 373.824 306.732844 
L 380.16 306.277158 
L 383.328 306.468514 
L 386.496 305.97278 
L 392.832 305.541681 
L 396 305.965484 
L 399.168 306.098108 
L 402.336 306.683866 
L 405.504 305.180634 
L 408.672 304.585276 
L 411.84 304.334564 
L 418.176 305.087234 
L 421.344 304.507214 
L 424.512 304.528692 
L 427.68 304.717218 
L 430.848 305.042251 
L 434.016 304.950524 
L 437.184 304.444067 
L 440.352 304.758953 
L 443.52 304.438273 
L 446.688 304.431939 
L 456.192 305.057956 
L 459.36 305.477694 
L 462.528 306.243369 
L 468.864 306.366451 
L 472.032 306.072443 
L 475.2 306.993071 
L 481.536 307.258621 
L 487.872 307.268515 
L 491.04 307.537318 
L 494.208 307.649931 
L 497.376 307.096198 
L 500.544 306.969486 
L 503.712 306.377312 
L 506.88 306.155705 
L 510.048 307.39999 
L 513.216 307.260406 
L 516.384 307.744971 
L 525.888 307.588153 
L 529.056 307.759484 
L 532.224 307.438618 
L 535.392 307.584387 
L 541.728 307.460634 
L 544.896 306.935694 
L 551.232 307.464191 
L 557.568 305.914426 
L 560.736 305.895128 
L 563.904 306.111898 
L 567.072 307.182017 
L 570.24 307.512133 
L 573.408 307.713333 
L 576.576 307.541568 
L 579.744 306.683707 
L 582.912 307.116489 
L 586.08 306.251321 
L 589.248 306.148789 
L 592.416 306.311139 
L 595.584 306.314569 
L 598.752 305.773364 
L 601.92 305.350332 
L 605.088 305.108567 
L 608.256 306.852004 
L 611.424 307.177016 
L 614.592 306.296206 
L 620.928 306.882881 
L 624.096 307.506419 
L 627.264 307.885045 
L 630.432 307.114116 
L 633.6 306.463316 
L 636.768 306.3395 
L 639.936 306.688712 
L 643.104 305.041885 
L 646.272 304.767753 
L 649.44 305.348864 
L 658.944 305.489727 
L 662.112 305.5703 
L 665.28 305.531736 
L 671.616 305.151157 
L 674.784 305.230378 
L 677.952 305.783581 
L 681.12 305.923603 
L 684.288 304.655106 
L 690.624 304.87537 
L 696.96 305.869287 
L 700.128 305.946284 
L 703.296 305.690219 
L 706.464 305.888263 
L 709.632 305.288329 
L 712.8 304.963085 
L 715.968 305.023413 
L 719.136 305.80846 
L 725.472 306.544225 
L 731.808 306.123068 
L 734.976 306.650354 
L 738.144 306.548894 
L 744.48 306.80975 
L 747.648 306.186645 
L 753.984 306.268828 
L 757.152 307.150728 
L 760.32 307.642082 
L 766.656 306.985028 
L 769.824 306.750229 
L 772.992 306.090968 
L 776.16 305.846409 
L 782.496 305.720651 
L 788.832 306.458307 
L 788.832 306.458307 
" clip-path="url(#pd7986ea808)" style="fill: none; stroke: #000000; stroke-width: 1.5; stroke-linecap: square"/>
   </g>
   <g id="line2d_6">
    <path d="M 0 306 
L 3.168 306 
L 6.336 310.155871 
L 9.504 305.757884 
L 12.672 304.961245 
L 15.84 303.29491 
L 19.008 303.275792 
L 22.176 304.088781 
L 25.344 303.663019 
L 28.512 305.625257 
L 31.68 305.08651 
L 34.848 305.76491 
L 38.016 305.399692 
L 41.184 304.782781 
L 44.352 305.746243 
L 47.52 306.441132 
L 50.688 306.407229 
L 53.856 305.91469 
L 57.024 305.999783 
L 60.192 306.684191 
L 63.36 306.845626 
L 66.528 306.800999 
L 69.696 307.276476 
L 72.864 306.196943 
L 79.2 305.901904 
L 82.368 306.156794 
L 85.536 305.814498 
L 91.872 306.457107 
L 95.04 307.089445 
L 98.208 307.20821 
L 101.376 306.40159 
L 104.544 306.546682 
L 107.712 306.830115 
L 110.88 306.988616 
L 114.048 306.341933 
L 117.216 305.926975 
L 120.384 305.885801 
L 123.552 305.612042 
L 126.72 305.699553 
L 129.888 305.456684 
L 133.056 305.722926 
L 136.224 305.49795 
L 139.392 305.544547 
L 142.56 305.208764 
L 145.728 305.008889 
L 148.896 305.135253 
L 152.064 305.454806 
L 155.232 305.425867 
L 158.4 305.17896 
L 161.568 305.419172 
L 164.736 306.003353 
L 167.904 305.912175 
L 171.072 306.129448 
L 174.24 306.688123 
L 177.408 306.809779 
L 180.576 306.506383 
L 183.744 306.854098 
L 186.912 306.782094 
L 190.08 306.520233 
L 193.248 306.44653 
L 199.584 306.973284 
L 202.752 306.616898 
L 205.92 307.077966 
L 209.088 306.425825 
L 212.256 306.109836 
L 215.424 306.664433 
L 218.592 306.314417 
L 221.76 306.424126 
L 224.928 306.028958 
L 228.096 306.606106 
L 231.264 306.69903 
L 234.432 307.131214 
L 237.6 306.857255 
L 240.768 307.226405 
L 243.936 307.408513 
L 247.104 307.085206 
L 250.272 307.02045 
L 253.44 306.735401 
L 256.608 307.278143 
L 262.944 307.23569 
L 266.112 306.8182 
L 269.28 306.828867 
L 275.616 306.482564 
L 278.784 306.133079 
L 285.12 306.155848 
L 288.288 306.052686 
L 291.456 306.2538 
L 294.624 306.299445 
L 297.792 306.119531 
L 300.96 306.207385 
L 304.128 306.448369 
L 310.464 307.38896 
L 313.632 307.230281 
L 316.8 306.854955 
L 319.968 307.119258 
L 323.136 306.952482 
L 326.304 306.641933 
L 329.472 306.641414 
L 332.64 306.360421 
L 335.808 305.954058 
L 338.976 306.080236 
L 342.144 306.448397 
L 345.312 306.262263 
L 348.48 306.402485 
L 361.152 305.860886 
L 367.488 306.042534 
L 370.656 306.518237 
L 376.992 306.455151 
L 380.16 306.319541 
L 383.328 306.414619 
L 386.496 306.164646 
L 392.832 305.922499 
L 396 306.122785 
L 399.168 306.184818 
L 402.336 306.481549 
L 405.504 305.721003 
L 408.672 305.395766 
L 411.84 305.229746 
L 418.176 305.550635 
L 421.344 305.234946 
L 427.68 305.281371 
L 430.848 305.426465 
L 434.016 305.361672 
L 437.184 305.088073 
L 440.352 305.219922 
L 443.52 305.03872 
L 449.856 305.08583 
L 459.36 305.478091 
L 462.528 305.869198 
L 468.864 305.961825 
L 472.032 305.828933 
L 475.2 306.307765 
L 484.704 306.549492 
L 487.872 306.572558 
L 494.208 306.831293 
L 497.376 306.582311 
L 500.544 306.536847 
L 503.712 306.252522 
L 506.88 306.147746 
L 510.048 306.785229 
L 513.216 306.740883 
L 516.384 307.009437 
L 525.888 307.015448 
L 529.056 307.127101 
L 532.224 306.989888 
L 535.392 307.083235 
L 541.728 307.058854 
L 544.896 306.809103 
L 551.232 307.096298 
L 557.568 306.316457 
L 560.736 306.289168 
L 563.904 306.38377 
L 567.072 306.918317 
L 573.408 307.219293 
L 576.576 307.151903 
L 579.744 306.727958 
L 582.912 306.946157 
L 586.08 306.512805 
L 589.248 306.447099 
L 595.584 306.510434 
L 601.92 305.990615 
L 605.088 305.839993 
L 608.256 306.69784 
L 611.424 306.867283 
L 614.592 306.431959 
L 620.928 306.726498 
L 624.096 307.051531 
L 627.264 307.263569 
L 633.6 306.572642 
L 636.768 306.503968 
L 639.936 306.672463 
L 643.104 305.833116 
L 646.272 305.657158 
L 649.44 305.915141 
L 668.448 305.782545 
L 671.616 305.681091 
L 674.784 305.69839 
L 677.952 305.963485 
L 681.12 306.028456 
L 684.288 305.377671 
L 690.624 305.433626 
L 696.96 305.906289 
L 700.128 305.943003 
L 703.296 305.812907 
L 706.464 305.907494 
L 709.632 305.598874 
L 712.8 305.420054 
L 715.968 305.429616 
L 719.136 305.814977 
L 725.472 306.198491 
L 731.808 306.011114 
L 734.976 306.284761 
L 741.312 306.318646 
L 744.48 306.411442 
L 747.648 306.107785 
L 753.984 306.159497 
L 757.152 306.613761 
L 760.32 306.886692 
L 779.328 306.015743 
L 782.496 305.96609 
L 788.832 306.330481 
L 788.832 306.330481 
" clip-path="url(#pd7986ea808)" style="fill: none; stroke: #000000; stroke-width: 1.5; stroke-linecap: square"/>
   </g>
   <g id="line2d_7">
    <path d="M 0 306 
L 3.168 306 
L 6.336 310.111832 
L 9.504 305.821064 
L 12.672 305.032902 
L 15.84 303.420003 
L 19.008 303.379862 
L 22.176 304.127998 
L 25.344 303.726579 
L 28.512 305.526718 
L 31.68 305.046009 
L 34.848 305.663157 
L 38.016 305.34576 
L 41.184 304.803397 
L 44.352 305.648225 
L 47.52 306.260783 
L 50.688 306.244725 
L 53.856 305.83484 
L 57.024 305.912268 
L 60.192 306.492943 
L 63.36 306.639097 
L 66.528 306.614339 
L 69.696 307.014422 
L 72.864 306.151592 
L 79.2 305.917078 
L 82.368 306.118501 
L 85.536 305.850957 
L 91.872 306.350148 
L 95.04 306.84141 
L 98.208 306.942974 
L 101.376 306.342823 
L 107.712 306.670131 
L 110.88 306.794225 
L 114.048 306.325215 
L 117.216 306.022039 
L 120.384 305.988461 
L 123.552 305.786794 
L 126.72 305.843158 
L 129.888 305.664676 
L 133.056 305.845957 
L 136.224 305.6831 
L 139.392 305.709275 
L 145.728 305.322678 
L 148.896 305.399092 
L 152.064 305.608955 
L 155.232 305.584218 
L 158.4 305.412048 
L 161.568 305.566209 
L 164.736 305.952525 
L 167.904 305.893418 
L 171.072 306.037907 
L 174.24 306.408872 
L 177.408 306.497155 
L 180.576 306.308649 
L 183.744 306.540346 
L 186.912 306.503135 
L 190.08 306.342922 
L 193.248 306.300916 
L 199.584 306.646642 
L 202.752 306.43082 
L 205.92 306.726139 
L 209.088 306.327541 
L 212.256 306.133171 
L 215.424 306.477084 
L 218.592 306.26567 
L 221.76 306.33463 
L 224.928 306.094442 
L 228.096 306.445687 
L 231.264 306.506642 
L 234.432 306.774209 
L 237.6 306.617996 
L 243.936 306.966316 
L 247.104 306.784366 
L 250.272 306.753592 
L 253.44 306.591002 
L 256.608 306.916508 
L 262.944 306.909707 
L 266.112 306.672832 
L 272.448 306.589512 
L 281.952 306.311816 
L 291.456 306.338274 
L 294.624 306.362332 
L 297.792 306.257981 
L 304.128 306.439294 
L 310.464 306.978017 
L 313.632 306.898397 
L 316.8 306.694989 
L 319.968 306.847417 
L 332.64 306.436687 
L 335.808 306.208815 
L 338.976 306.272814 
L 342.144 306.472256 
L 345.312 306.368744 
L 348.48 306.443641 
L 364.32 306.147785 
L 367.488 306.220177 
L 370.656 306.475539 
L 376.992 306.443417 
L 380.16 306.370055 
L 383.328 306.420437 
L 389.664 306.213248 
L 392.832 306.147327 
L 402.336 306.43798 
L 405.504 306.03056 
L 411.84 305.750658 
L 418.176 305.899437 
L 421.344 305.722414 
L 427.68 305.725155 
L 434.016 305.750372 
L 437.184 305.596189 
L 440.352 305.655089 
L 446.688 305.523105 
L 459.36 305.730705 
L 462.528 305.930786 
L 468.864 305.978392 
L 472.032 305.908379 
L 475.2 306.158089 
L 494.208 306.461698 
L 503.712 306.180398 
L 506.88 306.126393 
L 510.048 306.458171 
L 513.216 306.442805 
L 516.384 306.588925 
L 548.064 306.629942 
L 551.232 306.7203 
L 557.568 306.33134 
L 563.904 306.364382 
L 567.072 306.639938 
L 573.408 306.809152 
L 576.576 306.7838 
L 579.744 306.57521 
L 582.912 306.690696 
L 586.08 306.473493 
L 601.92 306.206985 
L 605.088 306.12581 
L 608.256 306.557745 
L 611.424 306.648285 
L 614.592 306.429346 
L 624.096 306.750346 
L 627.264 306.86527 
L 633.6 306.526185 
L 636.768 306.492351 
L 639.936 306.579357 
L 643.104 306.15306 
L 646.272 306.057253 
L 649.44 306.18049 
L 677.952 306.151164 
L 681.12 306.179835 
L 684.288 305.845213 
L 693.792 305.965023 
L 700.128 306.094158 
L 703.296 306.024536 
L 706.464 306.068164 
L 712.8 305.812251 
L 715.968 305.809617 
L 722.304 306.093043 
L 725.472 306.185504 
L 731.808 306.089581 
L 734.976 306.226617 
L 741.312 306.244591 
L 744.48 306.293412 
L 747.648 306.142853 
L 753.984 306.168015 
L 760.32 306.540063 
L 782.496 306.090586 
L 788.832 306.271702 
L 788.832 306.271702 
" clip-path="url(#pd7986ea808)" style="fill: none; stroke: #000000; stroke-width: 1.5; stroke-linecap: square"/>
   </g>
   <g id="line2d_8">
    <path d="M 0 306 
L 3.168 306 
L 6.336 310.089809 
L 9.504 305.852184 
L 12.672 305.068645 
L 15.84 303.482444 
L 19.008 303.432664 
L 22.176 304.149604 
L 25.344 303.759955 
L 28.512 305.481925 
L 31.68 305.028119 
L 34.848 305.61548 
L 38.016 305.320025 
L 41.184 304.812643 
L 44.352 305.601587 
L 47.52 306.174638 
L 50.688 306.16561 
L 53.856 305.793223 
L 57.024 305.866707 
L 60.192 306.398874 
L 63.36 306.536714 
L 66.528 306.519775 
L 69.696 306.88419 
L 72.864 306.11869 
L 79.2 305.91241 
L 82.368 306.090278 
L 85.536 305.856586 
L 91.872 306.292333 
L 95.04 306.719991 
L 98.208 306.81213 
L 101.376 306.301907 
L 110.88 306.69216 
L 114.048 306.30014 
L 117.216 306.046461 
L 120.384 306.017616 
L 123.552 305.848873 
L 126.72 305.893679 
L 129.888 305.744884 
L 133.056 305.891476 
L 136.224 305.756902 
L 139.392 305.776132 
L 145.728 305.458012 
L 155.232 305.659355 
L 158.4 305.520507 
L 161.568 305.63986 
L 164.736 305.9428 
L 167.904 305.896589 
L 171.072 306.00962 
L 174.24 306.299576 
L 177.408 306.370744 
L 180.576 306.227824 
L 183.744 306.408315 
L 196.416 306.353721 
L 199.584 306.498491 
L 202.752 306.338939 
L 205.92 306.562787 
L 209.088 306.267812 
L 212.256 306.124054 
L 215.424 306.379908 
L 218.592 306.225279 
L 221.76 306.277007 
L 224.928 306.101456 
L 228.096 306.358849 
L 231.264 306.405102 
L 234.432 306.601945 
L 237.6 306.491896 
L 243.936 306.74958 
L 250.272 306.603885 
L 253.44 306.490567 
L 256.608 306.724112 
L 262.944 306.726265 
L 266.112 306.56255 
L 272.448 306.508135 
L 288.288 306.257689 
L 294.624 306.350278 
L 300.96 306.310566 
L 307.296 306.597248 
L 310.464 306.76988 
L 338.976 306.313233 
L 342.144 306.44399 
L 345.312 306.376412 
L 351.648 306.375105 
L 364.32 306.229721 
L 367.488 306.27524 
L 370.656 306.43894 
L 383.328 306.40504 
L 392.832 306.230269 
L 402.336 306.411334 
L 405.504 306.1557 
L 411.84 305.97581 
L 418.176 306.062628 
L 424.512 305.933819 
L 434.016 305.955344 
L 437.184 305.857601 
L 443.52 305.821993 
L 453.024 305.837909 
L 459.36 305.914718 
L 465.696 306.051336 
L 475.2 306.165208 
L 494.208 306.34991 
L 506.88 306.153931 
L 510.048 306.349525 
L 522.72 306.429566 
L 541.728 306.501024 
L 548.064 306.474678 
L 551.232 306.528974 
L 560.736 306.299939 
L 563.904 306.327525 
L 570.24 306.545046 
L 576.576 306.576169 
L 579.744 306.459454 
L 582.912 306.526867 
L 589.248 306.387511 
L 595.584 306.407743 
L 605.088 306.210433 
L 608.256 306.45367 
L 611.424 306.506092 
L 614.592 306.384312 
L 630.432 306.536997 
L 636.768 306.431062 
L 639.936 306.48045 
L 643.104 306.243567 
L 646.272 306.189022 
L 652.608 306.247785 
L 681.12 306.244166 
L 684.288 306.058968 
L 741.312 306.251159 
L 747.648 306.196174 
L 757.152 306.332279 
L 760.32 306.409995 
L 785.664 306.22224 
L 788.832 306.265947 
L 788.832 306.265947 
" clip-path="url(#pd7986ea808)" style="fill: none; stroke: #000000; stroke-width: 1.5; stroke-linecap: square"/>
   </g>
   <g id="line2d_9">
    <path d="M 0 306 
L 3.168 306 
L 6.336 310.078796 
L 9.504 305.867624 
L 12.672 305.08649 
L 15.84 303.513628 
L 19.008 303.459244 
L 22.176 304.160895 
L 25.344 303.777035 
L 28.512 305.460663 
L 31.68 305.019799 
L 34.848 305.592498 
L 38.016 305.307536 
L 41.184 304.817064 
L 44.352 305.578938 
L 47.52 306.132694 
L 50.688 306.126747 
L 53.856 305.772158 
L 57.024 305.843644 
L 60.192 306.35244 
L 63.36 306.486002 
L 66.528 306.472478 
L 69.696 306.819635 
L 72.864 306.099983 
L 79.2 305.90716 
L 82.368 306.074014 
L 85.536 305.856272 
L 91.872 306.262381 
L 95.04 306.660126 
L 98.208 306.747468 
L 101.376 306.278757 
L 110.88 306.640255 
L 114.048 306.283568 
L 117.216 306.052787 
L 120.384 306.02637 
L 123.552 305.873027 
L 126.72 305.91291 
L 129.888 305.778044 
L 133.056 305.909201 
L 136.224 305.787817 
L 139.392 305.804269 
L 145.728 305.518156 
L 155.232 305.693669 
L 158.4 305.570176 
L 161.568 305.6743 
L 164.736 305.940028 
L 167.904 305.899533 
L 171.072 305.998439 
L 174.24 306.251971 
L 177.408 306.314981 
L 180.576 306.191837 
L 183.744 306.349146 
L 196.416 306.305089 
L 199.584 306.430179 
L 202.752 306.294884 
L 205.92 306.486841 
L 209.088 306.236874 
L 212.256 306.115207 
L 215.424 306.332395 
L 218.592 306.202341 
L 221.76 306.246419 
L 224.928 306.099004 
L 228.096 306.31547 
L 231.264 306.354993 
L 234.432 306.520606 
L 237.6 306.429991 
L 243.936 306.647024 
L 253.44 306.436473 
L 256.608 306.629898 
L 262.944 306.634488 
L 266.112 306.501684 
L 272.448 306.459078 
L 288.288 306.257286 
L 294.624 306.332097 
L 300.96 306.300467 
L 307.296 306.529853 
L 310.464 306.668195 
L 338.976 306.314693 
L 342.144 306.416758 
L 351.648 306.363905 
L 364.32 306.251096 
L 383.328 306.386443 
L 392.832 306.253782 
L 402.336 306.390021 
L 408.672 306.110802 
L 415.008 306.091149 
L 418.176 306.125014 
L 424.512 306.027428 
L 440.352 305.990523 
L 449.856 305.932305 
L 472.032 306.073254 
L 478.368 306.20723 
L 500.544 306.256867 
L 506.88 306.17418 
L 510.048 306.313061 
L 525.888 306.387599 
L 541.728 306.425508 
L 548.064 306.408207 
L 551.232 306.446626 
L 560.736 306.288693 
L 567.072 306.417967 
L 576.576 306.482089 
L 579.744 306.40266 
L 582.912 306.449422 
L 589.248 306.354905 
L 598.752 306.314266 
L 605.088 306.23537 
L 608.256 306.400225 
L 611.424 306.436194 
L 617.76 306.38341 
L 630.432 306.460206 
L 636.768 306.390142 
L 639.936 306.423528 
L 643.104 306.265666 
L 649.44 306.273476 
L 731.808 306.205947 
L 741.312 306.258811 
L 769.824 306.302258 
L 779.328 306.217687 
L 788.832 306.267837 
L 788.832 306.267837 
" clip-path="url(#pd7986ea808)" style="fill: none; stroke: #000000; stroke-width: 1.5; stroke-linecap: square"/>
   </g>
  </g>
 </g>
 <defs>
  <clipPath id="pd7986ea808">
   <rect x="0" y="0" width="792" height="612"/>
  </clipPath>
 </defs>
</svg>
