<?xml version="1.0" encoding="utf-8" standalone="no"?>
<!DOCTYPE svg PUBLIC "-//W3C//DTD SVG 1.1//EN"
  "http://www.w3.org/Graphics/SVG/1.1/DTD/svg11.dtd">
<svg xmlns:xlink="http://www.w3.org/1999/xlink" width="792pt" height="612pt" viewBox="0 0 792 612" xmlns="http://www.w3.org/2000/svg" version="1.1">
 <metadata>
  <rdf:RDF xmlns:dc="http://purl.org/dc/elements/1.1/" xmlns:cc="http://creativecommons.org/ns#" xmlns:rdf="http://www.w3.org/1999/02/22-rdf-syntax-ns#">
   <cc:Work>
    <dc:type rdf:resource="http://purl.org/dc/dcmitype/StillImage"/>
    <dc:date>2023-01-30T17:18:01.894274</dc:date>
    <dc:format>image/svg+xml</dc:format>
    <dc:creator>
     <cc:Agent>
      <dc:title>Matplotlib v3.6.2, https://matplotlib.org/</dc:title>
     </cc:Agent>
    </dc:creator>
   </cc:Work>
  </rdf:RDF>
 </metadata>
 <defs>
  <style type="text/css">*{stroke-linejoin: round; stroke-linecap: butt}</style>
 </defs>
 <g id="figure_1">
  <g id="patch_1">
   <path d="M 0 612 
L 792 612 
L 792 0 
L 0 0 
z
" style="fill: #ffffff"/>
  </g>
  <g id="axes_1">
   <g id="line2d_1">
    <path d="M 0 459 
L 3.168 463.068023 
L 6.336 458.473429 
L 9.504 453.626119 
L 12.672 440.595357 
L 15.84 436.391223 
L 19.008 439.822286 
L 22.176 432.561336 
L 25.344 451.442833 
L 28.512 444.18371 
L 31.68 451.907337 
L 34.848 446.319049 
L 38.016 436.035891 
L 41.184 449.69335 
L 44.352 459.686608 
L 47.52 459.707258 
L 50.688 452.650572 
L 53.856 454.152625 
L 57.024 461.911631 
L 60.192 463.357121 
L 63.36 463.465533 
L 66.528 467.31157 
L 69.696 459.918919 
L 76.032 455.252133 
L 79.2 459.73307 
L 82.368 453.084142 
L 85.536 459.232311 
L 88.704 462.360765 
L 91.872 468.013665 
L 95.04 469.59338 
L 98.208 463.062861 
L 101.376 464.565138 
L 104.544 467.414819 
L 107.712 469.288794 
L 110.88 463.759794 
L 114.048 460.022168 
L 117.216 459.593684 
L 120.384 452.71251 
L 123.552 454.679144 
L 126.72 447.092863 
L 129.888 454.16811 
L 133.056 447.030956 
L 136.224 447.681008 
L 139.392 436.823838 
L 142.56 429.552497 
L 145.728 431.943943 
L 148.896 440.518046 
L 152.064 438.801998 
L 155.232 430.231202 
L 158.4 436.545724 
L 161.568 454.152625 
L 164.736 451.257036 
L 171.072 464.7355 
L 174.24 466.387489 
L 177.408 463.517158 
L 180.576 467.538718 
L 183.744 467.182508 
L 186.912 464.71485 
L 190.08 464.167628 
L 193.248 467.032797 
L 196.416 470.532949 
L 199.584 467.079259 
L 202.752 472.499848 
L 205.92 465.788643 
L 209.088 462.479502 
L 212.256 468.731248 
L 215.424 465.143334 
L 218.592 466.532038 
L 221.76 462.298816 
L 224.928 468.81901 
L 228.096 470.171576 
L 231.264 475.411479 
L 234.432 472.871546 
L 237.6 477.491953 
L 240.768 480.176435 
L 243.936 477.197692 
L 247.104 477.001518 
L 250.272 474.255087 
L 253.44 480.832068 
L 256.608 481.31734 
L 259.776 481.616763 
L 262.944 477.440328 
L 266.112 477.972062 
L 269.28 476.474947 
L 272.448 474.730033 
L 275.616 470.940783 
L 278.784 471.648041 
L 281.952 471.364106 
L 285.12 470.249013 
L 288.288 472.603097 
L 291.456 473.258731 
L 294.624 471.322806 
L 297.792 472.401761 
L 300.96 475.303067 
L 304.128 481.394777 
L 307.296 486.934103 
L 310.464 485.782873 
L 313.632 482.02976 
L 316.8 485.535074 
L 319.968 484.151534 
L 323.136 481.007592 
L 326.304 481.322502 
L 329.472 478.364409 
L 332.64 473.80079 
L 335.808 475.251442 
L 338.976 479.593076 
L 342.144 477.641664 
L 345.312 479.41239 
L 348.48 477.992712 
L 354.816 474.569997 
L 357.984 473.439417 
L 361.152 473.821439 
L 364.32 475.447616 
L 367.488 481.043729 
L 370.656 481.534163 
L 373.824 480.832068 
L 376.992 479.469177 
L 380.16 480.744306 
L 383.328 478.018524 
L 389.664 475.277255 
L 392.832 477.590039 
L 396 478.379897 
L 399.168 481.957486 
L 402.336 473.263893 
L 405.504 469.304282 
L 408.672 467.068934 
L 411.84 468.478287 
L 415.008 470.125114 
L 418.176 466.175828 
L 421.344 465.566657 
L 424.512 465.948679 
L 427.68 467.285758 
L 430.848 466.263589 
L 434.016 462.722138 
L 437.184 463.826906 
L 440.352 461.30246 
L 443.52 460.497115 
L 446.688 460.889462 
L 449.856 461.607045 
L 453.024 462.200729 
L 456.192 464.27604 
L 459.36 468.612511 
L 462.528 469.288794 
L 465.696 469.624355 
L 468.864 468.04464 
L 472.032 473.599453 
L 475.2 475.075919 
L 478.368 476.242636 
L 481.536 477.017006 
L 484.704 477.56939 
L 487.872 479.8099 
L 491.04 481.260553 
L 494.208 478.761919 
L 497.376 478.539933 
L 500.544 475.473428 
L 503.712 474.342848 
L 506.88 481.911023 
L 510.048 481.792287 
L 513.216 485.323413 
L 516.384 485.653811 
L 519.552 485.767385 
L 522.72 486.836016 
L 525.888 488.642879 
L 529.056 487.594898 
L 532.224 489.174613 
L 535.392 489.417249 
L 538.56 489.954145 
L 541.728 487.548436 
L 544.896 489.391436 
L 548.064 491.766171 
L 554.4 483.51655 
L 557.568 483.351351 
L 560.736 484.595506 
L 563.904 491.0744 
L 567.072 493.650471 
L 570.24 495.632858 
L 573.408 495.457334 
L 576.576 491.0744 
L 579.744 494.006681 
L 582.912 489.375949 
L 586.08 488.87519 
L 589.248 489.918008 
L 592.416 490.088369 
L 595.584 487.006377 
L 598.752 484.358032 
L 601.92 482.597631 
L 605.088 492.58184 
L 608.256 494.941087 
L 611.424 490.232918 
L 617.76 494.208017 
L 620.928 498.374127 
L 624.096 501.394169 
L 627.264 497.708169 
L 630.432 494.362891 
L 633.6 493.846644 
L 636.768 496.09748 
L 639.936 486.562405 
L 643.104 484.430307 
L 646.272 487.300638 
L 649.44 487.083814 
L 658.944 487.470999 
L 662.112 487.042514 
L 665.28 485.5041 
L 668.448 484.187671 
L 671.616 484.234133 
L 674.784 487.192226 
L 677.952 487.930459 
L 681.12 480.284847 
L 684.288 480.517158 
L 687.456 480.346796 
L 693.792 485.457637 
L 696.96 485.844822 
L 700.128 484.280595 
L 703.296 485.302763 
L 706.464 481.642575 
L 709.632 479.365928 
L 712.8 479.211054 
L 715.968 483.449438 
L 722.304 487.868509 
L 725.472 487.171576 
L 728.64 485.813848 
L 731.808 489.035226 
L 734.976 488.756453 
L 738.144 489.67021 
L 741.312 490.924689 
L 744.48 487.579411 
L 747.648 488.193744 
L 750.816 488.317643 
L 753.984 493.727908 
L 757.152 497.233222 
L 760.32 495.880656 
L 763.488 494.750076 
L 766.656 493.856969 
L 769.824 490.284543 
L 772.992 488.870027 
L 776.16 488.49833 
L 779.328 487.920134 
L 782.496 490.263893 
L 785.664 492.26693 
L 788.832 487.987246 
L 788.832 487.987246 
" clip-path="url(#pe70cec9812)" style="fill: none; stroke: #000000; stroke-width: 1.5; stroke-linecap: square"/>
   </g>
   <g id="line2d_2">
    <path d="M 0 459 
L 3.168 459 
L 6.336 461.712015 
L 9.504 460.061993 
L 12.672 457.620593 
L 15.84 448.829942 
L 19.008 442.508844 
L 22.176 441.154835 
L 25.344 436.83929 
L 28.512 444.122492 
L 31.68 444.100166 
L 34.848 447.990087 
L 38.016 447.140205 
L 41.184 441.576551 
L 44.352 445.659998 
L 47.52 453.399974 
L 50.688 457.316801 
L 53.856 454.985951 
L 57.024 454.588839 
L 60.192 459.730944 
L 63.36 461.560866 
L 66.528 462.536977 
L 69.696 464.946655 
L 72.864 462.433242 
L 76.032 460.471647 
L 79.2 459.112866 
L 82.368 459.427574 
L 85.536 456.65456 
L 88.704 458.151474 
L 91.872 460.536795 
L 95.04 464.276607 
L 98.208 466.953963 
L 101.376 465.01733 
L 104.544 464.804596 
L 107.712 466.12477 
L 110.88 467.730823 
L 114.048 465.754186 
L 117.216 462.883591 
L 120.384 461.222128 
L 126.72 456.864455 
L 129.888 451.921788 
L 133.056 452.98595 
L 136.224 449.924111 
L 139.392 448.752326 
L 142.56 442.735874 
L 145.728 436.078299 
L 148.896 433.969951 
L 152.064 437.215165 
L 155.232 437.992276 
L 158.4 434.063084 
L 161.568 435.283696 
L 164.736 444.7248 
L 167.904 448.018677 
L 171.072 453.099991 
L 174.24 460.913311 
L 177.408 463.676971 
L 180.576 463.619131 
L 183.744 465.614495 
L 186.912 466.429234 
L 190.08 465.586416 
L 193.248 464.892216 
L 196.416 465.978864 
L 199.584 468.267274 
L 202.752 467.674623 
L 205.92 470.104849 
L 209.088 467.943314 
L 212.256 465.202186 
L 215.424 466.974593 
L 218.592 466.060877 
L 221.76 466.295475 
L 224.928 464.281 
L 228.096 466.553416 
L 231.264 468.357931 
L 234.432 471.903573 
L 237.6 472.407936 
L 243.936 477.601255 
L 250.272 477.239781 
L 253.44 475.758093 
L 256.608 478.315983 
L 259.776 479.828242 
L 262.944 480.73965 
L 266.112 479.089888 
L 269.28 478.526652 
L 272.448 477.499383 
L 275.616 476.110254 
L 278.784 473.51902 
L 281.952 472.565523 
L 285.12 471.945298 
L 288.288 471.074866 
L 294.624 472.534872 
L 297.792 471.918737 
L 300.96 472.155684 
L 304.128 473.737929 
L 307.296 477.585464 
L 310.464 482.290313 
L 313.632 484.067051 
L 316.8 483.066889 
L 319.968 484.325053 
L 323.136 484.263448 
L 326.304 482.652394 
L 329.472 481.999251 
L 332.64 480.175888 
L 335.808 476.962587 
L 338.976 476.086365 
L 342.144 477.834943 
L 345.312 477.722826 
L 348.48 478.558316 
L 351.648 478.269602 
L 354.816 477.277255 
L 357.984 475.916186 
L 361.152 474.677093 
L 364.32 474.246462 
L 367.488 474.838911 
L 370.656 477.947991 
L 373.824 479.745237 
L 376.992 480.29422 
L 380.16 479.887904 
L 383.328 480.328211 
L 386.496 479.182346 
L 392.832 476.58761 
L 396 477.082053 
L 399.168 477.72479 
L 402.336 479.843344 
L 405.504 476.541452 
L 408.672 472.900435 
L 411.84 469.963215 
L 415.008 469.204818 
L 418.176 469.654864 
L 421.344 467.892965 
L 424.512 466.704687 
L 427.68 466.295293 
L 430.848 466.778804 
L 434.016 466.515234 
L 437.184 464.610163 
L 440.352 464.209414 
L 443.52 462.738638 
L 446.688 461.606742 
L 449.856 461.238931 
L 453.024 461.414475 
L 456.192 461.797631 
L 459.36 463.032939 
L 462.528 465.834275 
L 465.696 467.572244 
L 468.864 468.614617 
L 472.032 468.344428 
L 475.2 470.996862 
L 478.368 473.0628 
L 481.536 474.680251 
L 484.704 475.873611 
L 487.872 476.739063 
L 494.208 479.800648 
L 497.376 479.302298 
L 500.544 478.930803 
L 503.712 477.202895 
L 506.88 475.769147 
L 510.048 478.849681 
L 513.216 480.329264 
L 516.384 482.83715 
L 519.552 484.254095 
L 522.72 485.024476 
L 525.888 485.946513 
L 529.056 487.320518 
L 532.224 487.483693 
L 535.392 488.343395 
L 541.728 489.433789 
L 544.896 488.494827 
L 548.064 488.950238 
L 551.232 490.367871 
L 554.4 489.041522 
L 557.568 486.27104 
L 560.736 484.799777 
L 563.904 484.688187 
L 567.072 487.88349 
L 570.24 490.778945 
L 573.408 493.218139 
L 576.576 494.344974 
L 579.744 492.716267 
L 582.912 493.382043 
L 586.08 491.390809 
L 589.248 490.141391 
L 592.416 490.027432 
L 595.584 490.050916 
L 598.752 488.511732 
L 601.92 486.413119 
L 605.088 484.488754 
L 608.256 488.532503 
L 611.424 491.747707 
L 614.592 490.992975 
L 617.76 491.582731 
L 620.928 492.903452 
L 627.264 498.561028 
L 630.432 498.164227 
L 633.6 496.267051 
L 636.768 495.054702 
L 639.936 495.58759 
L 643.104 491.064015 
L 646.272 487.727989 
L 652.608 487.260148 
L 658.944 487.209454 
L 662.112 487.327725 
L 665.28 487.167365 
L 668.448 486.333657 
L 671.616 485.260188 
L 674.784 484.741148 
L 677.952 485.966899 
L 681.12 486.950096 
L 684.288 483.603847 
L 687.456 482.046867 
L 690.624 481.183703 
L 693.792 482.00417 
L 696.96 483.733394 
L 700.128 484.792266 
L 703.296 484.530722 
L 706.464 484.91159 
L 709.632 483.279745 
L 712.8 481.320579 
L 715.968 480.263589 
L 719.136 481.857718 
L 722.304 483.769106 
L 725.472 485.822776 
L 728.64 486.502844 
L 731.808 486.159348 
L 734.976 487.611783 
L 738.144 488.202531 
L 741.312 488.956878 
L 744.48 489.955441 
L 747.648 488.771151 
L 750.816 488.483085 
L 753.984 488.402612 
L 757.152 491.080777 
L 760.32 494.173074 
L 763.488 495.040834 
L 766.656 494.905416 
L 769.824 494.386942 
L 772.992 492.341047 
L 776.16 490.606863 
L 779.328 489.552951 
L 782.496 488.725154 
L 785.664 489.480858 
L 788.832 490.866808 
L 788.832 490.866808 
" clip-path="url(#pe70cec9812)" style="fill: none; stroke: #000000; stroke-width: 1.5; stroke-linecap: square"/>
   </g>
   <g id="line2d_3">
    <path d="M 0 459 
L 3.168 459 
L 6.336 461.382993 
L 12.672 459.046286 
L 15.84 452.538211 
L 19.008 447.129481 
L 22.176 444.780905 
L 25.344 440.960289 
L 28.512 444.171022 
L 31.68 444.174858 
L 34.848 446.490141 
L 38.016 446.439234 
L 41.184 443.356294 
L 44.352 445.226477 
L 47.52 449.887997 
L 50.688 453.190662 
L 53.856 453.025179 
L 57.024 453.335811 
L 60.192 457.563643 
L 63.36 459.94468 
L 66.528 460.988093 
L 69.696 462.858407 
L 72.864 462.005853 
L 79.2 460.044737 
L 82.368 459.959969 
L 85.536 459.101647 
L 88.704 459.145041 
L 91.872 460.099565 
L 95.04 462.431468 
L 98.208 464.540522 
L 101.376 464.111579 
L 104.544 464.253247 
L 107.712 465.190771 
L 110.88 466.399528 
L 114.048 465.62683 
L 117.216 463.981308 
L 120.384 462.687338 
L 123.552 460.989986 
L 126.72 459.984173 
L 129.888 457.590074 
L 133.056 456.579695 
L 136.224 453.775393 
L 139.392 451.976301 
L 142.56 447.498136 
L 145.728 442.171032 
L 148.896 439.105909 
L 152.064 439.4843 
L 155.232 439.242137 
L 158.4 436.539068 
L 161.568 436.4799 
L 164.736 441.629603 
L 167.904 444.435803 
L 171.072 448.424689 
L 174.24 456.587477 
L 177.408 460.605243 
L 180.576 461.467871 
L 183.744 463.257639 
L 186.912 464.421188 
L 190.08 464.518098 
L 193.248 464.429881 
L 196.416 465.212774 
L 199.584 466.794635 
L 202.752 466.894359 
L 205.92 468.559413 
L 209.088 467.7667 
L 212.256 466.230716 
L 215.424 466.976138 
L 218.592 466.449343 
L 221.76 466.482571 
L 224.928 465.254379 
L 231.264 467.44247 
L 234.432 469.785581 
L 237.6 470.695974 
L 240.768 472.701146 
L 243.936 474.908995 
L 247.104 475.591014 
L 250.272 476.011571 
L 253.44 475.505351 
L 256.608 477.075081 
L 259.776 478.335446 
L 262.944 479.318502 
L 266.112 478.778401 
L 269.28 478.556965 
L 272.448 477.958576 
L 275.616 477.027237 
L 278.784 475.246993 
L 281.952 474.19458 
L 288.288 472.44644 
L 291.456 472.486709 
L 294.624 472.704883 
L 297.792 472.293334 
L 300.96 472.319808 
L 304.128 473.194788 
L 307.296 475.597156 
L 310.464 478.924122 
L 313.632 480.937789 
L 316.8 481.262891 
L 319.968 482.522872 
L 323.136 483.008713 
L 326.304 482.429809 
L 329.472 482.117411 
L 332.64 481.025896 
L 335.808 478.91251 
L 338.976 477.845954 
L 342.144 478.365703 
L 345.312 478.158671 
L 348.48 478.535169 
L 351.648 478.382708 
L 354.816 477.775191 
L 361.152 475.820412 
L 364.32 475.221187 
L 367.488 475.279947 
L 370.656 476.962961 
L 373.824 478.298829 
L 376.992 479.040596 
L 380.16 479.163995 
L 383.328 479.629591 
L 386.496 479.162565 
L 389.664 478.414735 
L 392.832 477.490831 
L 396 477.519829 
L 399.168 477.770551 
L 402.336 479.00143 
L 405.504 477.317452 
L 411.84 472.644555 
L 415.008 471.418146 
L 418.176 471.033312 
L 421.344 469.593511 
L 424.512 468.395732 
L 427.68 467.661912 
L 430.848 467.537745 
L 434.016 467.147921 
L 437.184 465.83407 
L 440.352 465.231509 
L 446.688 463.000121 
L 449.856 462.361834 
L 453.024 462.117387 
L 456.192 462.12909 
L 459.36 462.752142 
L 462.528 464.470377 
L 465.696 465.88259 
L 468.864 466.977952 
L 472.032 467.292524 
L 478.368 470.895443 
L 481.536 472.471888 
L 484.704 473.815473 
L 487.872 474.932023 
L 494.208 477.831753 
L 497.376 478.125171 
L 500.544 478.266926 
L 506.88 476.564246 
L 510.048 478.150537 
L 513.216 479.232319 
L 516.384 481.034776 
L 519.552 482.406072 
L 525.888 484.429321 
L 529.056 485.679026 
L 532.224 486.253212 
L 535.392 487.122834 
L 541.728 488.448569 
L 544.896 488.192149 
L 548.064 488.555621 
L 551.232 489.511161 
L 554.4 489.000255 
L 557.568 487.404652 
L 560.736 486.219122 
L 563.904 485.746796 
L 567.072 487.31382 
L 573.408 491.080599 
L 576.576 492.372418 
L 579.744 491.99503 
L 582.912 492.591594 
L 586.08 491.649984 
L 589.248 490.836643 
L 592.416 490.56754 
L 595.584 490.430111 
L 598.752 489.424583 
L 605.088 486.363799 
L 608.256 488.195434 
L 611.424 490.184502 
L 614.592 490.205158 
L 617.76 490.780047 
L 620.928 491.784717 
L 624.096 493.717859 
L 627.264 495.973017 
L 630.432 496.488851 
L 636.768 495.28009 
L 639.936 495.527793 
L 646.272 490.411398 
L 649.44 489.500615 
L 652.608 488.795881 
L 655.776 488.336013 
L 658.944 488.006959 
L 665.28 487.603747 
L 668.448 486.981125 
L 671.616 486.151432 
L 674.784 485.573627 
L 681.12 486.576385 
L 684.288 484.717466 
L 687.456 483.471914 
L 690.624 482.538497 
L 693.792 482.62109 
L 696.96 483.453076 
L 700.128 484.15193 
L 703.296 484.186395 
L 706.464 484.511184 
L 709.632 483.664566 
L 712.8 482.396215 
L 715.968 481.454307 
L 719.136 482.036308 
L 722.304 483.105124 
L 725.472 484.504461 
L 728.64 485.285618 
L 731.808 485.437901 
L 734.976 486.501584 
L 741.312 487.914052 
L 744.48 488.805139 
L 747.648 488.448569 
L 753.984 488.36399 
L 757.152 489.944723 
L 760.32 492.097382 
L 763.488 493.224446 
L 766.656 493.689141 
L 769.824 493.750251 
L 772.992 492.740458 
L 776.16 491.607985 
L 782.496 489.887305 
L 785.664 489.999016 
L 788.832 490.667305 
L 788.832 490.667305 
" clip-path="url(#pe70cec9812)" style="fill: none; stroke: #000000; stroke-width: 1.5; stroke-linecap: square"/>
   </g>
   <g id="line2d_4">
    <path d="M 0 459 
L 3.168 459 
L 6.336 461.209806 
L 12.672 459.298336 
L 15.84 454.594126 
L 19.008 450.110526 
L 22.176 447.779929 
L 25.344 444.548287 
L 28.512 445.936797 
L 31.68 445.597948 
L 34.848 446.776759 
L 38.016 446.693531 
L 41.184 444.79739 
L 44.352 445.65168 
L 47.52 448.298831 
L 50.688 450.474389 
L 53.856 450.83981 
L 57.024 451.391212 
L 60.192 454.091521 
L 63.36 457.044313 
L 66.528 459.184275 
L 69.696 460.506576 
L 72.864 460.411307 
L 79.2 459.725236 
L 82.368 459.726496 
L 85.536 459.293119 
L 88.704 459.283368 
L 91.872 459.776231 
L 98.208 462.452691 
L 101.376 462.550152 
L 104.544 462.874216 
L 107.712 463.599354 
L 110.88 464.511094 
L 114.048 464.395647 
L 120.384 463.055344 
L 123.552 462.079333 
L 126.72 461.364844 
L 129.888 460.356053 
L 133.056 459.886111 
L 136.224 459.109197 
L 139.392 457.475068 
L 142.56 454.187298 
L 145.728 450.24969 
L 148.896 447.315631 
L 155.232 445.031287 
L 158.4 442.658864 
L 161.568 441.666353 
L 164.736 443.640557 
L 167.904 444.838731 
L 171.072 446.926861 
L 177.408 456.311559 
L 180.576 458.906155 
L 183.744 460.337106 
L 186.912 461.43257 
L 190.08 461.958213 
L 193.248 462.310867 
L 196.416 463.061531 
L 199.584 464.250846 
L 202.752 464.703363 
L 205.92 465.948762 
L 209.088 465.922272 
L 212.256 465.370266 
L 215.424 465.908113 
L 218.592 465.789629 
L 221.76 465.912078 
L 224.928 465.340561 
L 228.096 465.90102 
L 231.264 466.589928 
L 234.432 468.004713 
L 237.6 468.790188 
L 240.768 470.188563 
L 243.936 471.795497 
L 247.104 472.672493 
L 250.272 473.378122 
L 253.44 473.531014 
L 259.776 475.781557 
L 262.944 476.728744 
L 269.28 477.045734 
L 272.448 476.966016 
L 275.616 476.616499 
L 278.784 475.716313 
L 288.288 473.81398 
L 291.456 473.626246 
L 294.624 473.573445 
L 297.792 473.218037 
L 300.96 473.089331 
L 304.128 473.446675 
L 307.296 474.716797 
L 310.464 476.673807 
L 313.632 478.137632 
L 316.8 478.765181 
L 319.968 479.855018 
L 323.136 480.549603 
L 329.472 480.751465 
L 332.64 480.376788 
L 335.808 479.329518 
L 338.976 478.682166 
L 342.144 478.828406 
L 345.312 478.63801 
L 348.48 478.762598 
L 351.648 478.640725 
L 354.816 478.270316 
L 364.32 476.488102 
L 367.488 476.321313 
L 373.824 477.787275 
L 376.992 478.27552 
L 380.16 478.470756 
L 383.328 478.838162 
L 386.496 478.711906 
L 389.664 478.380497 
L 392.832 477.888429 
L 396 477.843656 
L 399.168 477.933377 
L 402.336 478.57959 
L 405.504 477.732571 
L 408.672 476.384056 
L 411.84 474.889592 
L 415.008 473.858734 
L 418.176 473.257274 
L 424.512 471.064492 
L 427.68 470.241152 
L 434.016 469.197992 
L 437.184 468.160748 
L 440.352 467.46409 
L 446.688 465.510963 
L 449.856 464.764109 
L 453.024 464.251585 
L 456.192 463.916487 
L 459.36 463.96727 
L 468.864 466.093761 
L 472.032 466.396042 
L 491.04 473.318945 
L 494.208 474.586216 
L 497.376 475.251317 
L 500.544 475.774647 
L 503.712 475.722677 
L 506.88 475.503814 
L 510.048 476.53109 
L 513.216 477.377352 
L 516.384 478.652109 
L 519.552 479.775794 
L 525.888 481.724263 
L 529.056 482.839199 
L 532.224 483.60852 
L 538.56 485.306071 
L 541.728 486.061898 
L 544.896 486.314788 
L 548.064 486.822322 
L 551.232 487.628171 
L 554.4 487.658882 
L 560.736 486.442423 
L 563.904 486.158544 
L 567.072 486.954267 
L 570.24 488.034648 
L 573.408 489.260764 
L 576.576 490.260298 
L 579.744 490.399807 
L 582.912 490.984757 
L 589.248 490.447414 
L 595.584 490.330271 
L 598.752 489.806571 
L 601.92 488.943319 
L 605.088 487.938143 
L 608.256 488.688352 
L 611.424 489.691314 
L 614.592 489.782752 
L 617.76 490.165834 
L 620.928 490.814297 
L 624.096 492.024959 
L 627.264 493.524717 
L 630.432 494.195976 
L 636.768 494.169193 
L 639.936 494.480159 
L 643.104 493.218299 
L 646.272 491.818153 
L 652.608 490.456487 
L 658.944 489.511101 
L 665.28 488.849084 
L 668.448 488.313409 
L 674.784 487.100324 
L 677.952 487.109789 
L 681.12 487.238399 
L 684.288 486.123502 
L 687.456 485.225985 
L 690.624 484.444368 
L 693.792 484.183909 
L 700.128 484.615424 
L 703.296 484.562103 
L 706.464 484.681632 
L 709.632 484.191282 
L 715.968 482.738279 
L 719.136 482.84599 
L 722.304 483.29151 
L 725.472 484.013172 
L 728.64 484.506811 
L 731.808 484.707344 
L 734.976 485.392602 
L 741.312 486.516552 
L 744.48 487.220624 
L 750.816 487.425662 
L 753.984 487.56835 
L 757.152 488.552426 
L 760.32 489.939811 
L 763.488 490.890267 
L 766.656 491.509186 
L 769.824 491.887938 
L 772.992 491.636636 
L 782.496 490.316926 
L 785.664 490.314715 
L 788.832 490.63265 
L 788.832 490.63265 
" clip-path="url(#pe70cec9812)" style="fill: none; stroke: #000000; stroke-width: 1.5; stroke-linecap: square"/>
   </g>
   <g id="line2d_5">
    <path d="M 0 459 
L 3.168 459 
L 6.336 461.122073 
L 12.672 459.41611 
L 19.008 451.669559 
L 22.176 449.506113 
L 25.344 446.690377 
L 28.512 447.418645 
L 31.68 446.955301 
L 34.848 447.624055 
L 38.016 447.456497 
L 41.184 446.052839 
L 44.352 446.482745 
L 47.52 448.145318 
L 50.688 449.580831 
L 53.856 449.911352 
L 57.024 450.356998 
L 60.192 452.143327 
L 63.36 454.152159 
L 66.528 455.959206 
L 69.696 458.68643 
L 72.864 458.981473 
L 76.032 458.845143 
L 79.2 458.508322 
L 82.368 458.757887 
L 85.536 458.236729 
L 88.704 458.369671 
L 95.04 459.910486 
L 98.208 460.772907 
L 101.376 460.975634 
L 104.544 461.291661 
L 107.712 461.828048 
L 110.88 462.478614 
L 114.048 462.589863 
L 120.384 462.12863 
L 129.888 460.788719 
L 133.056 460.498968 
L 139.392 459.624226 
L 142.56 458.833978 
L 145.728 456.354325 
L 148.896 454.29073 
L 155.232 451.921649 
L 158.4 450.09489 
L 161.568 448.955723 
L 164.736 449.391783 
L 167.904 449.548164 
L 171.072 450.26197 
L 174.24 452.433244 
L 177.408 454.836132 
L 180.576 456.316969 
L 183.744 458.681191 
L 186.912 459.585835 
L 196.416 460.916754 
L 199.584 461.718273 
L 202.752 462.164958 
L 205.92 463.027106 
L 209.088 463.257188 
L 212.256 463.193833 
L 215.424 463.657166 
L 221.76 464.01745 
L 224.928 463.877965 
L 231.264 464.786381 
L 234.432 465.67517 
L 237.6 466.277725 
L 240.768 467.215855 
L 243.936 468.300917 
L 250.272 469.712137 
L 253.44 470.093918 
L 259.776 471.857609 
L 262.944 472.673993 
L 269.28 473.485391 
L 272.448 473.736494 
L 275.616 473.823775 
L 281.952 473.432012 
L 291.456 472.988125 
L 294.624 473.014131 
L 300.96 472.836486 
L 304.128 473.045186 
L 307.296 473.743646 
L 310.464 474.844753 
L 313.632 475.757941 
L 316.8 476.284423 
L 319.968 477.060494 
L 323.136 477.657014 
L 329.472 478.231168 
L 332.64 478.249821 
L 335.808 477.885911 
L 338.976 477.673849 
L 342.144 477.841068 
L 345.312 477.832993 
L 348.48 477.97392 
L 351.648 477.9846 
L 354.816 477.852804 
L 367.488 476.852973 
L 376.992 477.850769 
L 386.496 478.209996 
L 396 477.833354 
L 399.168 477.882408 
L 402.336 478.224342 
L 405.504 477.814657 
L 408.672 477.10729 
L 411.84 476.274564 
L 415.008 475.629457 
L 418.176 475.173073 
L 424.512 473.691014 
L 427.68 473.049619 
L 434.016 472.046003 
L 437.184 471.26803 
L 440.352 470.647503 
L 449.856 468.397291 
L 456.192 467.357694 
L 459.36 467.09654 
L 472.032 467.605508 
L 478.368 468.680961 
L 487.872 470.585911 
L 494.208 472.179551 
L 500.544 473.212397 
L 506.88 473.478906 
L 516.384 475.681607 
L 529.056 478.952639 
L 541.728 481.94263 
L 544.896 482.410478 
L 548.064 482.993694 
L 551.232 483.725795 
L 554.4 484.060363 
L 563.904 484.021089 
L 567.072 484.612101 
L 573.408 486.224849 
L 576.576 486.99564 
L 579.744 487.337494 
L 582.912 487.895741 
L 595.584 488.40865 
L 598.752 488.295332 
L 601.92 487.970498 
L 605.088 487.52478 
L 608.256 487.950783 
L 611.424 488.539294 
L 614.592 488.687397 
L 617.76 488.983624 
L 620.928 489.425066 
L 624.096 490.178281 
L 627.264 491.120816 
L 630.432 491.677876 
L 639.936 492.423641 
L 643.104 491.944582 
L 646.272 491.328455 
L 655.776 490.405781 
L 668.448 489.358559 
L 674.784 488.549324 
L 681.12 488.402916 
L 687.456 487.132929 
L 690.624 486.570611 
L 693.792 486.261564 
L 706.464 485.95859 
L 709.632 485.602754 
L 715.968 484.595999 
L 719.136 484.500229 
L 722.304 484.598122 
L 728.64 485.061346 
L 731.808 485.12288 
L 744.48 486.455107 
L 753.984 486.819009 
L 757.152 487.394375 
L 760.32 488.215424 
L 763.488 488.855685 
L 766.656 489.348201 
L 769.824 489.723316 
L 772.992 489.7688 
L 785.664 489.517244 
L 788.832 489.746398 
L 788.832 489.746398 
" clip-path="url(#pe70cec9812)" style="fill: none; stroke: #000000; stroke-width: 1.5; stroke-linecap: square"/>
   </g>
   <g id="line2d_6">
    <path d="M 0 459 
L 3.168 459 
L 6.336 461.078063 
L 12.672 459.471906 
L 15.84 456.098857 
L 19.008 452.445557 
L 22.176 450.398463 
L 25.344 447.813626 
L 28.512 448.290111 
L 31.68 447.79482 
L 34.848 448.254702 
L 38.016 448.052251 
L 41.184 446.868205 
L 44.352 447.131562 
L 47.52 448.366789 
L 50.688 449.447966 
L 57.024 450.056356 
L 60.192 451.392185 
L 63.36 452.904669 
L 66.528 454.287871 
L 69.696 456.333372 
L 72.864 456.697878 
L 76.032 456.753383 
L 79.2 456.657154 
L 82.368 456.942101 
L 85.536 456.704877 
L 88.704 456.885397 
L 91.872 457.60831 
L 95.04 459.088525 
L 98.208 459.691248 
L 104.544 460.142895 
L 110.88 461.017998 
L 114.048 461.165183 
L 120.384 461.025158 
L 139.392 459.710911 
L 142.56 459.310069 
L 145.728 458.437035 
L 148.896 457.143662 
L 155.232 455.492496 
L 158.4 454.281136 
L 161.568 453.435761 
L 164.736 453.469723 
L 167.904 453.365406 
L 171.072 453.586158 
L 174.24 454.642599 
L 177.408 455.875894 
L 180.576 456.648232 
L 183.744 457.938547 
L 186.912 459.038548 
L 196.416 459.86256 
L 199.584 460.346537 
L 202.752 460.651012 
L 205.92 461.185344 
L 209.088 461.392374 
L 212.256 461.441141 
L 215.424 461.767362 
L 228.096 462.428031 
L 231.264 462.770839 
L 234.432 463.329397 
L 237.6 463.750287 
L 250.272 466.084434 
L 253.44 466.442018 
L 262.944 468.299738 
L 272.448 469.421426 
L 275.616 469.65181 
L 291.456 469.994389 
L 297.792 470.186513 
L 300.96 470.28199 
L 304.128 470.498247 
L 307.296 470.967241 
L 313.632 472.261374 
L 316.8 472.681036 
L 323.136 473.701506 
L 329.472 474.328157 
L 332.64 474.50111 
L 338.976 474.504523 
L 345.312 474.847167 
L 351.648 475.168494 
L 357.984 475.1894 
L 367.488 475.076029 
L 376.992 475.818557 
L 386.496 476.255955 
L 399.168 476.375583 
L 402.336 476.613207 
L 405.504 476.47065 
L 421.344 474.868087 
L 427.68 474.116767 
L 434.016 473.510835 
L 453.024 470.825336 
L 459.36 470.199141 
L 472.032 469.994522 
L 478.368 470.359835 
L 487.872 471.17322 
L 497.376 472.249978 
L 500.544 472.518402 
L 506.88 472.718536 
L 516.384 473.986313 
L 535.392 477.075094 
L 541.728 478.133115 
L 548.064 479.004115 
L 551.232 479.552266 
L 554.4 479.904776 
L 563.904 480.399474 
L 570.24 481.406996 
L 576.576 482.592599 
L 586.08 483.686062 
L 598.752 484.536654 
L 605.088 484.451958 
L 624.096 486.629071 
L 627.264 487.260859 
L 630.432 487.709678 
L 639.936 488.584216 
L 658.944 488.156963 
L 668.448 487.975146 
L 674.784 487.664886 
L 681.12 487.660857 
L 690.624 486.778302 
L 693.792 486.613216 
L 706.464 486.398062 
L 712.8 485.907526 
L 715.968 485.622333 
L 722.304 485.53678 
L 728.64 485.70163 
L 731.808 485.707187 
L 750.816 486.471554 
L 753.984 486.551302 
L 757.152 486.858183 
L 763.488 487.6688 
L 769.824 488.225377 
L 776.16 488.339972 
L 785.664 488.414636 
L 788.832 488.579877 
L 788.832 488.579877 
" clip-path="url(#pe70cec9812)" style="fill: none; stroke: #000000; stroke-width: 1.5; stroke-linecap: square"/>
   </g>
   <g id="line2d_7">
    <path d="M 0 459 
L 3.168 459 
L 6.336 461.05604 
L 12.672 459.498912 
L 15.84 456.340156 
L 19.008 452.829851 
L 22.176 450.847566 
L 25.344 448.381999 
L 28.512 448.752248 
L 31.68 448.249478 
L 34.848 448.619126 
L 38.016 448.403781 
L 41.184 447.32304 
L 44.352 447.517183 
L 47.52 448.562845 
L 50.688 449.481347 
L 57.024 449.997119 
L 60.192 451.12338 
L 66.528 453.572081 
L 69.696 455.288246 
L 72.864 455.641479 
L 76.032 455.742048 
L 79.2 455.716942 
L 82.368 455.989742 
L 85.536 455.849129 
L 88.704 456.030434 
L 91.872 456.630023 
L 95.04 457.948827 
L 98.208 459.129113 
L 104.544 459.518702 
L 110.88 460.224167 
L 114.048 460.364077 
L 120.384 460.321867 
L 139.392 459.496715 
L 142.56 459.225057 
L 145.728 458.650535 
L 148.896 457.753503 
L 155.232 456.579271 
L 158.4 455.724507 
L 161.568 455.109395 
L 171.072 455.055784 
L 174.24 455.706743 
L 177.408 456.482956 
L 180.576 456.968532 
L 186.912 458.561623 
L 190.08 459.026535 
L 196.416 459.404594 
L 205.92 460.291434 
L 221.76 461.009715 
L 224.928 461.044895 
L 231.264 461.496347 
L 269.28 465.958396 
L 275.616 466.440038 
L 300.96 467.407863 
L 304.128 467.601209 
L 307.296 467.93797 
L 313.632 468.822256 
L 329.472 470.423602 
L 332.64 470.613266 
L 338.976 470.797653 
L 348.48 471.357954 
L 354.816 471.626839 
L 367.488 471.870793 
L 383.328 472.849618 
L 392.832 473.103746 
L 405.504 473.517006 
L 421.344 472.940603 
L 443.52 471.712889 
L 456.192 470.80995 
L 462.528 470.61772 
L 475.2 470.579091 
L 487.872 471.088511 
L 500.544 471.816693 
L 506.88 471.95172 
L 516.384 472.669986 
L 532.224 474.173023 
L 551.232 476.092755 
L 557.568 476.504718 
L 563.904 476.828504 
L 570.24 477.501317 
L 576.576 478.28141 
L 592.416 479.570127 
L 598.752 479.956467 
L 605.088 480.107773 
L 624.096 481.800599 
L 630.432 482.562549 
L 639.936 483.341121 
L 671.616 483.940152 
L 677.952 484.016745 
L 681.12 484.101412 
L 693.792 483.843116 
L 709.632 483.907972 
L 719.136 483.704971 
L 731.808 483.949577 
L 757.152 484.846887 
L 766.656 485.548328 
L 772.992 485.825442 
L 788.832 486.214786 
L 788.832 486.214786 
" clip-path="url(#pe70cec9812)" style="fill: none; stroke: #000000; stroke-width: 1.5; stroke-linecap: square"/>
   </g>
   <g id="line2d_8">
    <path d="M 0 459 
L 3.168 459 
L 6.336 461.045026 
L 12.672 459.512178 
L 15.84 456.459453 
L 19.008 453.020719 
L 22.176 451.072269 
L 25.344 448.667006 
L 28.512 448.988925 
L 31.68 448.484527 
L 34.848 448.812769 
L 38.016 448.592332 
L 41.184 447.561605 
L 44.352 447.724806 
L 50.688 449.524333 
L 57.024 449.993827 
L 60.192 451.021072 
L 66.528 453.255181 
L 69.696 454.813808 
L 72.864 455.152972 
L 76.032 455.265501 
L 79.2 455.264894 
L 82.368 455.525353 
L 85.536 455.421632 
L 88.704 455.597679 
L 91.872 456.136558 
L 98.208 458.562389 
L 101.376 459.008918 
L 107.712 459.495064 
L 110.88 459.829449 
L 114.048 459.960577 
L 123.552 459.855546 
L 133.056 459.575943 
L 142.56 459.108347 
L 145.728 458.506576 
L 148.896 457.788466 
L 155.232 456.844331 
L 158.4 456.157776 
L 161.568 455.659564 
L 171.072 455.576389 
L 180.576 457.03734 
L 186.912 458.264508 
L 193.248 459.006789 
L 202.752 459.595553 
L 205.92 459.8706 
L 221.76 460.45314 
L 224.928 460.490197 
L 231.264 460.843466 
L 272.448 464.504431 
L 278.784 464.794603 
L 304.128 465.757232 
L 310.464 466.360804 
L 319.968 467.230235 
L 326.304 467.719216 
L 332.64 468.101422 
L 342.144 468.478569 
L 357.984 469.127151 
L 367.488 469.355812 
L 383.328 470.175975 
L 402.336 470.83438 
L 408.672 470.846878 
L 440.352 470.247039 
L 459.36 469.577176 
L 475.2 469.595279 
L 487.872 469.955422 
L 503.712 470.519509 
L 510.048 470.717601 
L 519.552 471.239163 
L 535.392 472.26751 
L 554.4 473.528509 
L 567.072 474.129641 
L 586.08 475.514436 
L 601.92 476.270357 
L 605.088 476.348372 
L 624.096 477.592155 
L 630.432 478.124118 
L 643.104 478.818673 
L 655.776 479.183839 
L 674.784 479.654634 
L 684.288 479.847671 
L 696.96 479.962805 
L 709.632 480.162283 
L 719.136 480.180741 
L 738.144 480.674773 
L 760.32 481.477483 
L 769.824 481.937167 
L 788.832 482.460639 
L 788.832 482.460639 
" clip-path="url(#pe70cec9812)" style="fill: none; stroke: #000000; stroke-width: 1.5; stroke-linecap: square"/>
   </g>
   <g id="line2d_9">
    <path d="M 0 459 
L 3.168 459 
L 6.336 461.039519 
L 12.672 459.51875 
L 15.84 456.518746 
L 19.008 453.11579 
L 22.176 451.184585 
L 25.344 448.809603 
L 28.512 449.108531 
L 31.68 448.603838 
L 34.848 448.912313 
L 38.016 448.689685 
L 41.184 447.68355 
L 44.352 447.832201 
L 50.688 449.552452 
L 57.024 449.999072 
L 60.192 450.978452 
L 66.528 453.10815 
L 69.696 454.590291 
L 72.864 454.920765 
L 82.368 455.299194 
L 85.536 455.211246 
L 88.704 455.383427 
L 91.872 455.892459 
L 98.208 458.159526 
L 104.544 459.0553 
L 114.048 459.761226 
L 123.552 459.682772 
L 133.056 459.443277 
L 142.56 459.033201 
L 148.896 457.738934 
L 155.232 456.902698 
L 158.4 456.294601 
L 161.568 455.852252 
L 171.072 455.766332 
L 183.744 457.585126 
L 186.912 458.097807 
L 196.416 459.072757 
L 205.92 459.668436 
L 234.432 460.76788 
L 240.768 461.228289 
L 247.104 461.774041 
L 275.616 463.822455 
L 304.128 464.797822 
L 310.464 465.304614 
L 323.136 466.267408 
L 332.64 466.786098 
L 342.144 467.129614 
L 361.152 467.782967 
L 370.656 468.092028 
L 386.496 468.75613 
L 408.672 469.294876 
L 440.352 468.998708 
L 459.36 468.575928 
L 475.2 468.636807 
L 491.04 469.03739 
L 500.544 469.331064 
L 513.216 469.663693 
L 538.56 470.907712 
L 554.4 471.708974 
L 567.072 472.190303 
L 589.248 473.383945 
L 601.92 473.865638 
L 608.256 474.094553 
L 639.936 475.779108 
L 681.12 476.829989 
L 700.128 477.092864 
L 747.648 478.032161 
L 760.32 478.440409 
L 772.992 478.885812 
L 788.832 479.27143 
L 788.832 479.27143 
" clip-path="url(#pe70cec9812)" style="fill: none; stroke: #000000; stroke-width: 1.5; stroke-linecap: square"/>
   </g>
  </g>
 </g>
 <defs>
  <clipPath id="pe70cec9812">
   <rect x="0" y="0" width="792" height="612"/>
  </clipPath>
 </defs>
</svg>
