<?xml version="1.0" encoding="utf-8" standalone="no"?>
<!DOCTYPE svg PUBLIC "-//W3C//DTD SVG 1.1//EN"
  "http://www.w3.org/Graphics/SVG/1.1/DTD/svg11.dtd">
<svg xmlns:xlink="http://www.w3.org/1999/xlink" width="792pt" height="612pt" viewBox="0 0 792 612" xmlns="http://www.w3.org/2000/svg" version="1.1">
 <metadata>
  <rdf:RDF xmlns:dc="http://purl.org/dc/elements/1.1/" xmlns:cc="http://creativecommons.org/ns#" xmlns:rdf="http://www.w3.org/1999/02/22-rdf-syntax-ns#">
   <cc:Work>
    <dc:type rdf:resource="http://purl.org/dc/dcmitype/StillImage"/>
    <dc:date>2022-12-19T20:28:30.672174</dc:date>
    <dc:format>image/svg+xml</dc:format>
    <dc:creator>
     <cc:Agent>
      <dc:title>Matplotlib v3.6.2, https://matplotlib.org/</dc:title>
     </cc:Agent>
    </dc:creator>
   </cc:Work>
  </rdf:RDF>
 </metadata>
 <defs>
  <style type="text/css">*{stroke-linejoin: round; stroke-linecap: butt}</style>
 </defs>
 <g id="figure_1">
  <g id="patch_1">
   <path d="M 0 612 
L 792 612 
L 792 0 
L 0 0 
z
" style="fill: #ffffff"/>
  </g>
  <g id="axes_1">
   <g id="line2d_1">
    <path d="M 0 306 
L 12.375 322.806472 
L 24.75 305.736059 
L 37.125 313.847669 
L 49.5 306.734444 
L 61.875 306.252466 
L 74.25 308.375426 
L 86.625 310.01627 
L 99 303.670474 
L 111.375 309.511415 
L 123.75 306.539358 
L 136.125 307.193469 
L 148.5 300.65286 
L 160.875 310.096586 
L 173.25 311.278306 
L 185.625 297.005629 
L 198 296.661667 
L 210.375 305.632777 
L 222.75 308.765573 
L 235.125 320.3914 
L 247.5 311.725715 
L 259.875 310.406371 
L 272.25 305.609826 
L 284.625 296.260407 
L 297 312.517222 
L 309.375 295.710163 
L 321.75 304.88686 
L 334.125 308.318051 
L 346.5 306.378698 
L 358.875 299.150141 
L 371.25 300.113683 
L 383.625 302.086994 
L 396 328.155201 
L 408.375 311.243889 
L 420.75 295.538225 
L 433.125 310.291637 
L 445.5 310.54405 
L 457.875 315.258077 
L 470.25 312.712218 
L 482.625 297.808296 
L 495 298.565199 
L 507.375 304.852434 
L 519.75 311.002967 
L 532.125 284.838183 
L 544.5 301.260908 
L 556.875 312.379574 
L 569.25 305.51802 
L 581.625 306.275417 
L 594 306.057379 
L 606.375 306.527882 
L 618.75 305.047519 
L 631.125 302.580379 
L 643.5 303.073781 
L 655.875 306.103281 
L 668.25 312.574574 
L 680.625 307.641012 
L 693 289.021917 
L 705.375 306.516407 
L 717.75 305.621302 
L 730.125 311.530693 
L 742.5 311.828959 
L 754.875 306.860677 
L 767.25 302.523007 
L 779.625 308.27215 
" clip-path="url(#pc404d98e36)" style="fill: none; stroke: #000000; stroke-width: 1.5; stroke-linecap: square"/>
   </g>
   <g id="line2d_2">
    <path d="M 0 306 
L 12.375 306 
L 24.75 317.210581 
L 37.125 310.655503 
L 49.5 312.358162 
L 61.875 309.455895 
L 74.25 307.828807 
L 86.625 308.10427 
L 99 309.064049 
L 111.375 306.362723 
L 123.75 307.91102 
L 136.125 307.22677 
L 148.5 307.197069 
L 160.875 303.912802 
L 173.25 307.012335 
L 185.625 309.151166 
L 198 303.051732 
L 210.375 299.842286 
L 222.75 302.729635 
L 235.125 305.751945 
L 247.5 313.101609 
L 259.875 312.435398 
L 272.25 311.421551 
L 284.625 308.504801 
L 297 302.379693 
L 309.375 307.479951 
L 321.75 301.573967 
L 334.125 303.222728 
L 346.5 305.746679 
L 358.875 306.052203 
L 371.25 302.578669 
L 383.625 301.335325 
L 396 301.722581 
L 408.375 314.986322 
L 420.75 313.145822 
L 433.125 304.322312 
L 445.5 307.310969 
L 457.875 308.935758 
L 470.25 312.129148 
L 482.625 312.445384 
L 495 305.117947 
L 507.375 301.783008 
L 519.75 303.305121 
L 532.125 307.184558 
L 544.5 295.948099 
L 556.875 298.585753 
L 569.25 305.476753 
L 581.625 305.483278 
L 594 305.895954 
L 606.375 305.991359 
L 618.75 306.262906 
L 631.125 305.643533 
L 643.5 304.146762 
L 655.875 303.613819 
L 668.25 304.846223 
L 680.625 308.724668 
L 693 308.185524 
L 705.375 298.56304 
L 717.75 302.539116 
L 730.125 304.081285 
L 742.5 307.823807 
L 754.875 309.843713 
L 767.25 308.353736 
L 779.625 305.418609 
" clip-path="url(#pc404d98e36)" style="fill: none; stroke: #000000; stroke-width: 1.5; stroke-linecap: square"/>
   </g>
   <g id="line2d_3">
    <path d="M 0 306 
L 12.375 306 
L 24.75 315.851515 
L 37.125 311.269727 
L 49.5 312.276585 
L 61.875 310.30504 
L 74.25 308.948599 
L 86.625 308.764445 
L 99 309.155552 
L 111.375 307.474779 
L 123.75 308.090561 
L 136.125 307.625965 
L 148.5 307.49728 
L 160.875 305.470047 
L 173.25 306.835869 
L 185.625 308.144377 
L 198 304.868387 
L 210.375 302.453271 
L 222.75 303.364734 
L 235.125 304.950063 
L 247.5 309.483211 
L 259.875 310.145807 
L 272.25 310.226896 
L 284.625 308.871516 
L 297 305.161102 
L 309.375 307.326101 
L 321.75 303.906916 
L 334.125 304.192034 
L 346.5 305.401807 
L 358.875 305.694509 
L 371.25 303.764838 
L 383.625 302.682503 
L 396 302.513918 
L 408.375 310.071325 
L 420.75 310.42122 
L 433.125 306.045916 
L 445.5 307.277922 
L 457.875 308.233254 
L 470.25 310.296926 
L 482.625 311.012575 
L 495 307.146649 
L 507.375 304.616757 
L 519.75 304.69629 
L 532.125 306.550623 
L 544.5 300.15499 
L 556.875 300.473015 
L 569.25 303.975438 
L 581.625 304.433451 
L 594 304.977756 
L 606.375 305.268542 
L 618.75 305.631977 
L 631.125 305.471719 
L 643.5 304.615975 
L 655.875 304.155686 
L 668.25 304.715596 
L 680.625 307.017567 
L 693 307.211467 
L 705.375 301.868035 
L 717.75 303.231321 
L 730.125 303.925126 
L 742.5 306.183598 
L 754.875 307.84941 
L 767.25 307.55348 
L 779.625 306.076614 
" clip-path="url(#pc404d98e36)" style="fill: none; stroke: #000000; stroke-width: 1.5; stroke-linecap: square"/>
   </g>
   <g id="line2d_4">
    <path d="M 0 306 
L 12.375 306 
L 24.75 315.135985 
L 37.125 311.447925 
L 49.5 312.211627 
L 61.875 310.708232 
L 74.25 309.61169 
L 86.625 309.331786 
L 99 309.476994 
L 111.375 308.307314 
L 123.75 308.540036 
L 136.125 308.166153 
L 148.5 307.98929 
L 160.875 306.684859 
L 173.25 307.280344 
L 185.625 307.967577 
L 198 306.106802 
L 210.375 304.520212 
L 222.75 304.705408 
L 235.125 305.376335 
L 247.5 307.84407 
L 259.875 308.478394 
L 272.25 308.792091 
L 284.625 308.276218 
L 297 306.333617 
L 309.375 307.3307 
L 321.75 305.460559 
L 334.125 305.368425 
L 346.5 305.841423 
L 358.875 305.92747 
L 371.25 304.843006 
L 383.625 304.086946 
L 396 303.767483 
L 408.375 307.667633 
L 420.75 308.22946 
L 433.125 306.203258 
L 445.5 306.851557 
L 457.875 307.441467 
L 470.25 308.691128 
L 482.625 309.333702 
L 495 307.492138 
L 507.375 306.06842 
L 519.75 305.872045 
L 532.125 306.691248 
L 544.5 303.195074 
L 556.875 302.887702 
L 569.25 304.399389 
L 581.625 304.573771 
L 594 304.850291 
L 606.375 305.048206 
L 618.75 305.284185 
L 631.125 305.24421 
L 643.5 304.809248 
L 655.875 304.527722 
L 668.25 304.775711 
L 680.625 306.02104 
L 693 306.285889 
L 705.375 303.521735 
L 717.75 304.004926 
L 730.125 304.26255 
L 742.5 305.421023 
L 754.875 306.444061 
L 767.25 306.515158 
L 779.625 305.881473 
" clip-path="url(#pc404d98e36)" style="fill: none; stroke: #000000; stroke-width: 1.5; stroke-linecap: square"/>
   </g>
   <g id="line2d_5">
    <path d="M 0 306 
L 12.375 306 
L 24.75 314.773477 
L 37.125 311.497499 
L 49.5 312.163535 
L 61.875 310.882137 
L 74.25 309.934427 
L 86.625 309.649906 
L 99 309.71072 
L 111.375 308.784995 
L 123.75 308.889026 
L 136.125 308.57166 
L 148.5 308.394722 
L 160.875 307.443884 
L 173.25 307.757215 
L 185.625 308.159026 
L 198 306.924519 
L 210.375 305.819082 
L 222.75 305.799504 
L 235.125 306.104473 
L 247.5 307.545914 
L 259.875 307.959987 
L 272.25 308.198495 
L 284.625 307.949744 
L 297 306.840691 
L 309.375 307.3729 
L 321.75 306.290893 
L 334.125 306.161934 
L 346.5 306.358237 
L 358.875 306.360085 
L 371.25 305.71354 
L 383.625 305.214717 
L 396 304.937807 
L 408.375 306.985322 
L 420.75 307.358411 
L 433.125 306.327362 
L 445.5 306.671617 
L 457.875 307.006615 
L 470.25 307.718114 
L 482.625 308.147302 
L 495 307.261383 
L 507.375 306.518223 
L 519.75 306.376238 
L 532.125 306.769756 
L 544.5 304.905528 
L 556.875 304.596757 
L 569.25 305.255 
L 581.625 305.277208 
L 594 305.36137 
L 606.375 305.419975 
L 618.75 305.513151 
L 631.125 305.474034 
L 643.5 305.231178 
L 655.875 305.050285 
L 668.25 305.138498 
L 680.625 305.761048 
L 693 305.918307 
L 705.375 304.504409 
L 717.75 304.672499 
L 730.125 304.751722 
L 742.5 305.31752 
L 754.875 305.860752 
L 767.25 305.944129 
L 779.625 305.658963 
" clip-path="url(#pc404d98e36)" style="fill: none; stroke: #000000; stroke-width: 1.5; stroke-linecap: square"/>
   </g>
   <g id="line2d_6">
    <path d="M 0 306 
L 12.375 306 
L 24.75 314.591618 
L 37.125 311.511879 
L 49.5 312.134377 
L 61.875 310.95906 
L 74.25 310.087397 
L 86.625 309.809944 
L 99 309.83981 
L 111.375 309.029778 
L 123.75 309.087859 
L 136.125 308.80284 
L 148.5 308.634536 
L 160.875 307.848656 
L 173.25 308.058247 
L 185.625 308.343964 
L 198 307.38236 
L 210.375 306.510061 
L 222.75 306.441374 
L 235.125 306.617047 
L 247.5 307.625463 
L 259.875 307.9165 
L 272.25 308.088313 
L 284.625 307.921734 
L 297 307.156737 
L 309.375 307.50039 
L 321.75 306.760478 
L 334.125 306.645277 
L 346.5 306.746205 
L 358.875 306.724422 
L 371.25 306.282871 
L 383.625 305.928868 
L 396 305.711679 
L 408.375 306.96487 
L 420.75 307.200271 
L 433.125 306.566548 
L 445.5 306.766532 
L 457.875 306.96707 
L 470.25 307.402669 
L 482.625 307.678788 
L 495 307.170359 
L 507.375 306.731113 
L 519.75 306.636054 
L 532.125 306.855239 
L 544.5 305.757119 
L 556.875 305.534837 
L 569.25 305.870877 
L 581.625 305.853671 
L 594 305.874106 
L 606.375 305.882933 
L 618.75 305.913817 
L 631.125 305.87256 
L 643.5 305.716581 
L 655.875 305.59199 
L 668.25 305.61598 
L 680.625 305.941048 
L 693 306.02011 
L 705.375 305.231997 
L 717.75 305.291255 
L 730.125 305.306425 
L 742.5 305.591529 
L 754.875 305.876272 
L 767.25 305.92106 
L 779.625 305.766927 
" clip-path="url(#pc404d98e36)" style="fill: none; stroke: #000000; stroke-width: 1.5; stroke-linecap: square"/>
   </g>
   <g id="line2d_7">
    <path d="M 0 306 
L 12.375 306 
L 24.75 314.500612 
L 37.125 311.516433 
L 49.5 312.118385 
L 61.875 310.994653 
L 74.25 310.160988 
L 86.625 309.889052 
L 99 309.906186 
L 111.375 309.15187 
L 123.75 309.19143 
L 136.125 308.923398 
L 148.5 308.761457 
L 160.875 308.053469 
L 173.25 308.220841 
L 185.625 308.457032 
L 198 307.619097 
L 210.375 306.856696 
L 222.75 306.775469 
L 235.125 306.901869 
L 247.5 307.724654 
L 259.875 307.959268 
L 272.25 308.097606 
L 284.625 307.961751 
L 297 307.343099 
L 309.375 307.608297 
L 321.75 307.016035 
L 334.125 306.913002 
L 346.5 306.97921 
L 358.875 306.951623 
L 371.25 306.601746 
L 383.625 306.317439 
L 396 306.13613 
L 408.375 307.061606 
L 420.75 307.23357 
L 433.125 306.761864 
L 445.5 306.901552 
L 457.875 307.043135 
L 470.25 307.357051 
L 482.625 307.55828 
L 495 307.197726 
L 507.375 306.883389 
L 519.75 306.810539 
L 532.125 306.958795 
L 544.5 306.186194 
L 556.875 306.016698 
L 569.25 306.232875 
L 581.625 306.208892 
L 594 306.211098 
L 606.375 306.206061 
L 618.75 306.216487 
L 631.125 306.179028 
L 643.5 306.064917 
L 655.875 305.971037 
L 668.25 305.975146 
L 680.625 306.178301 
L 693 306.222905 
L 705.375 305.702567 
L 717.75 305.726947 
L 730.125 305.723809 
L 742.5 305.894893 
L 754.875 306.068335 
L 767.25 306.091312 
L 779.625 305.988609 
" clip-path="url(#pc404d98e36)" style="fill: none; stroke: #000000; stroke-width: 1.5; stroke-linecap: square"/>
   </g>
   <g id="line2d_8">
    <path d="M 0 306 
L 12.375 306 
L 24.75 314.455099 
L 37.125 311.518048 
L 49.5 312.11002 
L 61.875 311.01169 
L 74.25 310.196964 
L 86.625 309.928229 
L 99 309.939656 
L 111.375 309.212593 
L 123.75 309.243953 
L 136.125 308.984567 
L 148.5 308.826265 
L 160.875 308.155873 
L 173.25 308.304472 
L 185.625 308.518129 
L 198 307.738543 
L 210.375 307.028816 
L 222.75 306.943914 
L 235.125 307.049425 
L 247.5 307.787947 
L 259.875 307.996486 
L 272.25 308.118939 
L 284.625 307.996365 
L 297 307.443921 
L 309.375 307.674353 
L 321.75 307.149056 
L 334.125 307.052946 
L 346.5 307.105044 
L 358.875 307.076016 
L 371.25 306.768208 
L 383.625 306.516834 
L 396 306.353907 
L 408.375 307.136776 
L 420.75 307.280412 
L 433.125 306.879368 
L 445.5 306.993219 
L 457.875 307.109078 
L 470.25 307.369347 
L 482.625 307.53643 
L 495 307.238318 
L 507.375 306.97772 
L 519.75 306.91508 
L 532.125 307.033366 
L 544.5 306.401692 
L 556.875 306.25813 
L 569.25 306.426208 
L 581.625 306.401684 
L 594 306.398329 
L 606.375 306.389411 
L 618.75 306.392978 
L 631.125 306.358828 
L 643.5 306.264304 
L 655.875 306.185609 
L 668.25 306.183606 
L 680.625 306.337021 
L 693 306.367911 
L 705.375 305.961852 
L 717.75 305.974659 
L 730.125 305.966597 
L 742.5 306.092037 
L 754.875 306.21987 
L 767.25 306.233984 
L 779.625 306.153152 
" clip-path="url(#pc404d98e36)" style="fill: none; stroke: #000000; stroke-width: 1.5; stroke-linecap: square"/>
   </g>
   <g id="line2d_9">
    <path d="M 0 306 
L 12.375 306 
L 24.75 314.432341 
L 37.125 311.51869 
L 49.5 312.105744 
L 61.875 311.020014 
L 74.25 310.214735 
L 86.625 309.947704 
L 99 309.956438 
L 111.375 309.242843 
L 123.75 309.270359 
L 136.125 309.015325 
L 148.5 308.858948 
L 160.875 308.206993 
L 173.25 308.346773 
L 185.625 308.549724 
L 198 307.798411 
L 210.375 307.114382 
L 222.75 307.028228 
L 235.125 307.124195 
L 247.5 307.822776 
L 259.875 308.018891 
L 272.25 308.133703 
L 284.625 308.017313 
L 297 307.496201 
L 309.375 307.710399 
L 321.75 307.216786 
L 334.125 307.124282 
L 346.5 307.170107 
L 358.875 307.140698 
L 371.25 306.852867 
L 383.625 306.617331 
L 396 306.463547 
L 408.375 307.180687 
L 420.75 307.311192 
L 433.125 306.942814 
L 445.5 307.044929 
L 457.875 307.149017 
L 470.25 307.384562 
L 482.625 307.535718 
L 495 307.265926 
L 507.375 307.029887 
L 519.75 306.972081 
L 532.125 307.076886 
L 544.5 306.509536 
L 556.875 306.378458 
L 569.25 306.525464 
L 581.625 306.501251 
L 594 306.495923 
L 606.375 306.48576 
L 618.75 306.486719 
L 631.125 306.454511 
L 643.5 306.369255 
L 655.875 306.297919 
L 668.25 306.293773 
L 680.625 306.425483 
L 693 306.450578 
L 705.375 306.095804 
L 717.75 306.104231 
L 730.125 306.094695 
L 742.5 306.200534 
L 754.875 306.308601 
L 767.25 306.319055 
L 779.625 306.248129 
" clip-path="url(#pc404d98e36)" style="fill: none; stroke: #000000; stroke-width: 1.5; stroke-linecap: square"/>
   </g>
  </g>
 </g>
 <defs>
  <clipPath id="pc404d98e36">
   <rect x="0" y="0" width="792" height="612"/>
  </clipPath>
 </defs>
</svg>
