<?xml version="1.0" encoding="utf-8" standalone="no"?>
<!DOCTYPE svg PUBLIC "-//W3C//DTD SVG 1.1//EN"
  "http://www.w3.org/Graphics/SVG/1.1/DTD/svg11.dtd">
<svg xmlns:xlink="http://www.w3.org/1999/xlink" width="792pt" height="612pt" viewBox="0 0 792 612" xmlns="http://www.w3.org/2000/svg" version="1.1">
 <metadata>
  <rdf:RDF xmlns:dc="http://purl.org/dc/elements/1.1/" xmlns:cc="http://creativecommons.org/ns#" xmlns:rdf="http://www.w3.org/1999/02/22-rdf-syntax-ns#">
   <cc:Work>
    <dc:type rdf:resource="http://purl.org/dc/dcmitype/StillImage"/>
    <dc:date>2023-01-09T02:29:09.597293</dc:date>
    <dc:format>image/svg+xml</dc:format>
    <dc:creator>
     <cc:Agent>
      <dc:title>Matplotlib v3.6.2, https://matplotlib.org/</dc:title>
     </cc:Agent>
    </dc:creator>
   </cc:Work>
  </rdf:RDF>
 </metadata>
 <defs>
  <style type="text/css">*{stroke-linejoin: round; stroke-linecap: butt}</style>
 </defs>
 <g id="figure_1">
  <g id="patch_1">
   <path d="M 0 612 
L 792 612 
L 792 0 
L 0 0 
z
" style="fill: #ffffff"/>
  </g>
  <g id="axes_1">
   <g id="line2d_1">
    <path d="M 0 306 
L 12.774194 311.125104 
L 25.548387 305.546173 
L 38.322581 294.672833 
L 51.096774 313.580041 
L 63.870968 294.033064 
L 76.645161 304.705264 
L 89.419355 308.696201 
L 102.193548 306.44048 
L 114.967742 298.03312 
L 127.741935 299.153684 
L 140.516129 301.448711 
L 153.290323 331.75372 
L 166.064516 312.09917 
L 178.83871 293.833157 
L 191.612903 310.991662 
L 204.387097 311.285232 
L 217.16129 316.767287 
L 229.935484 313.806812 
L 242.709677 296.472699 
L 255.483871 297.352881 
L 268.258065 304.665221 
L 281.032258 311.818971 
L 293.806452 281.399682 
L 306.580645 300.487925 
L 319.354839 313.419963 
L 332.129032 305.43939 
L 344.903226 306.320349 
L 357.677419 306.066739 
L 370.451613 306.614001 
L 383.225806 304.892131 
L 396 302.022558 
L 408.774194 302.596433 
L 421.548387 306.120131 
L 434.322581 313.646739 
L 447.096774 307.908721 
L 459.870968 286.259254 
L 472.645161 306.600654 
L 485.419355 305.55952 
L 498.193548 312.432727 
L 510.967742 312.77961 
L 523.741935 307.001087 
L 536.516129 301.95583 
L 549.290323 308.642813 
L 562.064516 296.539374 
L 574.83871 300.114314 
L 587.612903 305.599564 
L 600.387097 316.953922 
L 613.16129 311.765599 
L 625.935484 311.658853 
L 638.709677 304.198058 
L 651.483871 302.489663 
L 664.258065 314.327017 
L 677.032258 305.279216 
L 689.806452 308.362527 
L 702.580645 309.243412 
L 715.354839 297.352881 
L 728.129032 307.588383 
L 740.903226 306.320349 
L 753.677419 319.978835 
L 766.451613 315.060557 
L 779.225806 302.503009 
" clip-path="url(#pd2dc099327)" style="fill: none; stroke: #000000; stroke-width: 1.5; stroke-linecap: square"/>
   </g>
   <g id="line2d_2">
    <path d="M 0 306 
L 12.774194 306 
L 25.548387 309.416914 
L 38.322581 307.205116 
L 51.096774 300.51906 
L 63.870968 307.260721 
L 76.645161 300.539393 
L 89.419355 302.638573 
L 102.193548 305.679232 
L 114.967742 306.06072 
L 127.741935 302.020569 
L 140.516129 300.574475 
L 153.290323 301.024875 
L 166.064516 316.451296 
L 178.83871 314.311063 
L 191.612903 304.04862 
L 204.387097 307.524838 
L 217.16129 309.414663 
L 229.935484 313.128725 
L 242.709677 313.496498 
L 255.483871 304.97405 
L 268.258065 301.095155 
L 281.032258 302.865505 
L 293.806452 307.377805 
L 306.580645 294.30971 
L 319.354839 297.376783 
L 332.129032 305.39139 
L 344.903226 305.39898 
L 357.677419 305.878979 
L 370.451613 305.98995 
L 383.225806 306.305797 
L 396 305.585379 
L 408.774194 303.844433 
L 421.548387 303.224556 
L 434.322581 304.657998 
L 447.096774 309.169143 
L 459.870968 308.542057 
L 472.645161 297.35037 
L 485.419355 301.974566 
L 498.193548 303.768275 
L 510.967742 308.121336 
L 523.741935 310.470696 
L 536.516129 308.737707 
L 549.290323 305.323761 
L 562.064516 306.984756 
L 574.83871 301.781031 
L 587.612903 300.934918 
L 600.387097 303.267161 
L 613.16129 310.121469 
L 625.935484 310.941581 
L 638.709677 311.309356 
L 651.483871 307.758341 
L 664.258065 305.111872 
L 677.032258 309.75517 
L 689.806452 307.527403 
L 702.580645 307.950386 
L 715.354839 308.581784 
L 728.129032 302.938048 
L 740.903226 305.25519 
L 753.677419 305.79193 
L 766.451613 312.923381 
L 779.225806 313.993505 
" clip-path="url(#pd2dc099327)" style="fill: none; stroke: #000000; stroke-width: 1.5; stroke-linecap: square"/>
   </g>
   <g id="line2d_3">
    <path d="M 0 306 
L 12.774194 306 
L 25.548387 309.002401 
L 38.322581 307.436489 
L 51.096774 302.450115 
L 63.870968 306.410461 
L 76.645161 302.265453 
L 89.419355 303.049307 
L 102.193548 304.813471 
L 114.967742 305.312042 
L 127.741935 303.110863 
L 140.516129 301.925481 
L 153.290323 301.783619 
L 166.064516 310.677261 
L 178.83871 311.097031 
L 191.612903 306.010914 
L 204.387097 307.475581 
L 217.16129 308.597573 
L 229.935484 310.997814 
L 242.709677 311.830145 
L 255.483871 307.333711 
L 268.258065 304.391097 
L 281.032258 304.483605 
L 293.806452 306.640451 
L 306.580645 299.201723 
L 319.354839 299.571585 
L 332.129032 303.645162 
L 344.903226 304.177889 
L 357.677419 304.810988 
L 370.451613 305.149212 
L 383.225806 305.571937 
L 396 305.385535 
L 408.774194 304.390188 
L 421.548387 303.854812 
L 434.322581 304.506061 
L 447.096774 307.183572 
L 459.870968 307.409104 
L 472.645161 301.194046 
L 485.419355 302.779667 
L 498.193548 303.586643 
L 510.967742 306.21355 
L 523.741935 308.151114 
L 536.516129 307.80691 
L 549.290323 306.089113 
L 562.064516 306.839759 
L 574.83871 303.811055 
L 587.612903 302.720725 
L 600.387097 303.564692 
L 613.16129 307.504786 
L 625.935484 308.763415 
L 638.709677 309.617905 
L 651.483871 308.019698 
L 664.258065 306.393739 
L 677.032258 308.750143 
L 689.806452 307.732048 
L 702.580645 307.919932 
L 715.354839 308.303916 
L 728.129032 305.078068 
L 740.903226 305.813999 
L 753.677419 305.967319 
L 766.451613 310.086837 
L 779.225806 311.56522 
" clip-path="url(#pd2dc099327)" style="fill: none; stroke: #000000; stroke-width: 1.5; stroke-linecap: square"/>
   </g>
   <g id="line2d_4">
    <path d="M 0 306 
L 12.774194 306 
L 25.548387 308.78421 
L 38.322581 307.51343 
L 51.096774 303.425882 
L 63.870968 306.213871 
L 76.645161 303.214502 
L 89.419355 303.552029 
L 102.193548 304.643286 
L 114.967742 305.005335 
L 127.741935 303.657516 
L 140.516129 302.815686 
L 153.290323 302.567114 
L 166.064516 307.766967 
L 178.83871 308.523167 
L 191.612903 305.997214 
L 204.387097 306.844897 
L 217.16129 307.590635 
L 229.935484 309.118826 
L 242.709677 309.89365 
L 255.483871 307.6891 
L 268.258065 305.999827 
L 281.032258 305.782687 
L 293.806452 306.761377 
L 306.580645 302.653726 
L 319.354839 302.304523 
L 332.129032 304.092895 
L 344.903226 304.309133 
L 357.677419 304.631639 
L 370.451613 304.861476 
L 383.225806 305.141856 
L 396 305.101938 
L 408.774194 304.610048 
L 421.548387 304.287538 
L 434.322581 304.575983 
L 447.096774 306.024472 
L 459.870968 306.332529 
L 472.645161 303.117451 
L 485.419355 303.679459 
L 498.193548 303.979109 
L 510.967742 305.326569 
L 523.741935 306.516505 
L 536.516129 306.599201 
L 549.290323 305.862136 
L 562.064516 306.309051 
L 574.83871 304.732176 
L 587.612903 303.989886 
L 600.387097 304.253332 
L 613.16129 306.278493 
L 625.935484 307.151914 
L 638.709677 307.865879 
L 651.483871 307.276328 
L 664.258065 306.51849 
L 677.032258 307.771755 
L 689.806452 307.375574 
L 702.580645 307.530447 
L 715.354839 307.8204 
L 728.129032 306.152675 
L 740.903226 306.377464 
L 753.677419 306.368926 
L 766.451613 308.54433 
L 779.225806 309.587005 
" clip-path="url(#pd2dc099327)" style="fill: none; stroke: #000000; stroke-width: 1.5; stroke-linecap: square"/>
   </g>
   <g id="line2d_5">
    <path d="M 0 306 
L 12.774194 306 
L 25.548387 308.673679 
L 38.322581 307.539692 
L 51.096774 303.892238 
L 63.870968 306.179535 
L 76.645161 303.691607 
L 89.419355 303.876607 
L 102.193548 304.676612 
L 114.967742 304.946959 
L 127.741935 303.956617 
L 140.516129 303.307753 
L 153.290323 303.069061 
L 166.064516 306.599337 
L 178.83871 307.249013 
L 191.612903 305.717488 
L 204.387097 306.301184 
L 217.16129 306.837932 
L 229.935484 307.881833 
L 242.709677 308.49116 
L 255.483871 307.279211 
L 268.258065 306.295757 
L 281.032258 306.136799 
L 293.806452 306.682894 
L 306.580645 304.27969 
L 319.354839 303.924205 
L 332.129032 304.804997 
L 344.903226 304.863265 
L 357.677419 304.995921 
L 370.451613 305.092633 
L 383.225806 305.229038 
L 396 305.199031 
L 408.774194 304.917804 
L 421.548387 304.713417 
L 434.322581 304.836644 
L 447.096774 305.605004 
L 459.870968 305.805046 
L 472.645161 304.111954 
L 485.419355 304.326473 
L 498.193548 304.43242 
L 510.967742 305.117903 
L 523.741935 305.772647 
L 536.516129 305.877354 
L 549.290323 305.543827 
L 562.064516 305.806848 
L 574.83871 305.021524 
L 587.612903 304.60648 
L 600.387097 304.69033 
L 613.16129 305.724702 
L 625.935484 306.233417 
L 638.709677 306.689755 
L 651.483871 306.480431 
L 664.258065 306.145501 
L 677.032258 306.831654 
L 689.806452 306.7016 
L 702.580645 306.840638 
L 715.354839 307.041636 
L 728.129032 306.231518 
L 740.903226 306.344878 
L 753.677419 306.34283 
L 766.451613 307.481651 
L 779.225806 308.11407 
" clip-path="url(#pd2dc099327)" style="fill: none; stroke: #000000; stroke-width: 1.5; stroke-linecap: square"/>
   </g>
   <g id="line2d_6">
    <path d="M 0 306 
L 12.774194 306 
L 25.548387 308.618231 
L 38.322581 307.549572 
L 51.096774 304.11693 
L 63.870968 306.1773 
L 76.645161 303.926799 
L 89.419355 304.052967 
L 102.193548 304.725077 
L 114.967742 304.950326 
L 127.741935 304.11599 
L 140.516129 303.56089 
L 153.290323 303.339982 
L 166.064516 306.143504 
L 178.83871 306.698834 
L 191.612903 305.556804 
L 204.387097 306.017682 
L 217.16129 306.446212 
L 229.935484 307.254644 
L 242.709677 307.749985 
L 255.483871 306.924793 
L 268.258065 306.2453 
L 281.032258 306.136274 
L 293.806452 306.518265 
L 306.580645 304.867397 
L 319.354839 304.586649 
L 332.129032 305.140904 
L 344.903226 305.159257 
L 357.677419 305.22931 
L 370.451613 305.278945 
L 383.225806 305.356762 
L 396 305.330103 
L 408.774194 305.14312 
L 421.548387 305.001158 
L 434.322581 305.062709 
L 447.096774 305.529096 
L 459.870968 305.65684 
L 472.645161 304.625712 
L 485.419355 304.729437 
L 498.193548 304.772597 
L 510.967742 305.167145 
L 523.741935 305.555712 
L 536.516129 305.628847 
L 549.290323 305.444496 
L 562.064516 305.603773 
L 574.83871 305.155541 
L 587.612903 304.908044 
L 600.387097 304.941763 
L 613.16129 305.524017 
L 625.935484 305.824654 
L 638.709677 306.104059 
L 651.483871 306.013287 
L 664.258065 305.846342 
L 677.032258 306.246233 
L 689.806452 306.200862 
L 702.580645 306.301831 
L 715.354839 306.438642 
L 728.129032 306.01771 
L 740.903226 306.090175 
L 753.677419 306.100755 
L 766.451613 306.736828 
L 779.225806 307.116886 
" clip-path="url(#pd2dc099327)" style="fill: none; stroke: #000000; stroke-width: 1.5; stroke-linecap: square"/>
   </g>
   <g id="line2d_7">
    <path d="M 0 306 
L 12.774194 306 
L 25.548387 308.590485 
L 38.322581 307.553683 
L 51.096774 304.226792 
L 63.870968 306.179654 
L 76.645161 304.042987 
L 89.419355 304.143855 
L 102.193548 304.756957 
L 114.967742 304.960625 
L 127.741935 304.198244 
L 140.516129 303.688297 
L 153.290323 303.478624 
L 166.064516 305.952662 
L 178.83871 306.45622 
L 191.612903 305.480682 
L 204.387097 305.883895 
L 217.16129 306.259654 
L 229.935484 306.957302 
L 242.709677 307.392432 
L 255.483871 306.726722 
L 268.258065 306.176995 
L 281.032258 306.091538 
L 293.806452 306.404355 
L 306.580645 305.07988 
L 319.354839 304.844533 
L 332.129032 305.271334 
L 344.903226 305.279467 
L 357.677419 305.328514 
L 370.451613 305.362428 
L 383.225806 305.41855 
L 396 305.395484 
L 408.774194 305.250926 
L 421.548387 305.139547 
L 434.322581 305.179861 
L 447.096774 305.521301 
L 459.870968 305.615776 
L 472.645161 304.862395 
L 485.419355 304.928797 
L 498.193548 304.952493 
L 510.967742 305.229094 
L 523.741935 305.504028 
L 536.516129 305.557727 
L 549.290323 305.430359 
L 562.064516 305.54239 
L 574.83871 305.232486 
L 587.612903 305.0586 
L 600.387097 305.076748 
L 613.16129 305.470597 
L 625.935484 305.676864 
L 638.709677 305.870678 
L 651.483871 305.817079 
L 664.258065 305.711569 
L 677.032258 305.982032 
L 689.806452 305.960191 
L 702.580645 306.034134 
L 715.354839 306.132001 
L 728.129032 305.866628 
L 740.903226 305.918206 
L 753.677419 305.930151 
L 766.451613 306.344302 
L 779.225806 306.599109 
" clip-path="url(#pd2dc099327)" style="fill: none; stroke: #000000; stroke-width: 1.5; stroke-linecap: square"/>
   </g>
   <g id="line2d_8">
    <path d="M 0 306 
L 12.774194 306 
L 25.548387 308.576609 
L 38.322581 307.55553 
L 51.096774 304.281059 
L 63.870968 306.18166 
L 76.645161 304.100657 
L 89.419355 304.18986 
L 102.193548 304.774732 
L 114.967742 304.967932 
L 127.741935 304.239995 
L 140.516129 303.752072 
L 153.290323 303.548473 
L 166.064516 305.866838 
L 178.83871 306.344079 
L 191.612903 305.44485 
L 204.387097 305.820423 
L 217.16129 306.170517 
L 229.935484 306.815246 
L 242.709677 307.220278 
L 255.483871 306.625659 
L 268.258065 306.134525 
L 281.032258 306.059871 
L 293.806452 306.341254 
L 306.580645 305.16498 
L 319.354839 304.952556 
L 332.129032 305.324272 
L 344.903226 305.329163 
L 357.677419 305.369979 
L 370.451613 305.397825 
L 383.225806 305.44505 
L 396 305.424165 
L 408.774194 305.299054 
L 421.548387 305.202172 
L 434.322581 305.234272 
L 447.096774 305.52155 
L 459.870968 305.601194 
L 472.645161 304.969252 
L 485.419355 305.02134 
L 498.193548 305.038167 
L 510.967742 305.264754 
L 523.741935 305.490548 
L 536.516129 305.535069 
L 549.290323 305.431505 
L 562.064516 305.522762 
L 574.83871 305.271826 
L 587.612903 305.130216 
L 600.387097 305.14289 
L 613.16129 305.45685 
L 625.935484 305.621893 
L 638.709677 305.777432 
L 651.483871 305.737345 
L 664.258065 305.656098 
L 677.032258 305.870013 
L 689.806452 305.855641 
L 702.580645 305.91581 
L 715.354839 305.994637 
L 728.129032 305.792488 
L 740.903226 305.833964 
L 753.677419 305.84506 
L 766.451613 306.163883 
L 779.225806 306.362158 
" clip-path="url(#pd2dc099327)" style="fill: none; stroke: #000000; stroke-width: 1.5; stroke-linecap: square"/>
   </g>
   <g id="line2d_9">
    <path d="M 0 306 
L 12.774194 306 
L 25.548387 308.56967 
L 38.322581 307.556402 
L 51.096774 304.308022 
L 63.870968 306.182864 
L 76.645161 304.129376 
L 89.419355 304.212988 
L 102.193548 304.784066 
L 114.967742 304.972122 
L 127.741935 304.261021 
L 140.516129 303.78396 
L 153.290323 303.583493 
L 166.064516 305.826343 
L 178.83871 306.290403 
L 191.612903 305.427628 
L 204.387097 305.789709 
L 217.16129 306.127201 
L 229.935484 306.746175 
L 242.709677 307.136265 
L 255.483871 306.575056 
L 268.258065 306.111602 
L 281.032258 306.042051 
L 293.806452 306.308498 
L 306.580645 305.202363 
L 319.354839 305.001254 
L 332.129032 305.347499 
L 344.903226 305.351147 
L 357.677419 305.388351 
L 370.451613 305.41356 
L 383.225806 305.456796 
L 396 305.437063 
L 408.774194 305.321154 
L 421.548387 305.23123 
L 434.322581 305.259777 
L 447.096774 305.522168 
L 459.870968 305.594936 
L 472.645161 305.018995 
L 485.419355 305.064922 
L 498.193548 305.078952 
L 510.967742 305.282898 
L 523.741935 305.486271 
L 536.516129 305.526486 
L 549.290323 305.433651 
L 562.064516 305.5154 
L 574.83871 305.291176 
L 587.612903 305.164364 
L 600.387097 305.174824 
L 613.16129 305.452851 
L 625.935484 305.599149 
L 638.709677 305.73713 
L 651.483871 305.702687 
L 664.258065 305.631979 
L 677.032258 305.820238 
L 689.806452 305.808714 
L 702.580645 305.86226 
L 715.354839 305.932068 
L 728.129032 305.75756 
L 740.903226 305.794243 
L 753.677419 305.804632 
L 766.451613 306.080763 
L 779.225806 306.253206 
" clip-path="url(#pd2dc099327)" style="fill: none; stroke: #000000; stroke-width: 1.5; stroke-linecap: square"/>
   </g>
  </g>
 </g>
 <defs>
  <clipPath id="pd2dc099327">
   <rect x="0" y="0" width="792" height="612"/>
  </clipPath>
 </defs>
</svg>
