<?xml version="1.0" encoding="utf-8" standalone="no"?>
<!DOCTYPE svg PUBLIC "-//W3C//DTD SVG 1.1//EN"
  "http://www.w3.org/Graphics/SVG/1.1/DTD/svg11.dtd">
<svg xmlns:xlink="http://www.w3.org/1999/xlink" width="792pt" height="612pt" viewBox="0 0 792 612" xmlns="http://www.w3.org/2000/svg" version="1.1">
 <metadata>
  <rdf:RDF xmlns:dc="http://purl.org/dc/elements/1.1/" xmlns:cc="http://creativecommons.org/ns#" xmlns:rdf="http://www.w3.org/1999/02/22-rdf-syntax-ns#">
   <cc:Work>
    <dc:type rdf:resource="http://purl.org/dc/dcmitype/StillImage"/>
    <dc:date>2022-12-26T20:27:13.590080</dc:date>
    <dc:format>image/svg+xml</dc:format>
    <dc:creator>
     <cc:Agent>
      <dc:title>Matplotlib v3.6.2, https://matplotlib.org/</dc:title>
     </cc:Agent>
    </dc:creator>
   </cc:Work>
  </rdf:RDF>
 </metadata>
 <defs>
  <style type="text/css">*{stroke-linejoin: round; stroke-linecap: butt}</style>
 </defs>
 <g id="figure_1">
  <g id="patch_1">
   <path d="M 0 612 
L 792 612 
L 792 0 
L 0 0 
z
" style="fill: #ffffff"/>
  </g>
  <g id="axes_1">
   <g id="line2d_1">
    <path d="M 0 459 
L 12.375 459.67012 
L 24.75 452.002943 
L 37.125 458.903348 
L 49.5 461.931775 
L 61.875 452.64071 
L 74.25 436.922419 
L 86.625 436.305318 
L 99 440.954726 
L 111.375 461.068351 
L 123.75 464.283639 
L 136.125 466.757928 
L 148.5 466.53885 
L 160.875 461.068351 
L 173.25 464.728238 
L 185.625 458.845357 
L 198 456.970323 
L 210.375 459.625016 
L 222.75 459.83765 
L 235.125 449.973874 
L 247.5 440.066971 
L 259.875 433.490872 
L 272.25 462.949842 
L 284.625 465.894504 
L 297 460.018067 
L 309.375 462.427922 
L 321.75 464.979533 
L 334.125 470.179406 
L 346.5 473.948831 
L 358.875 469.3482 
L 371.25 465.172836 
L 383.625 464.52849 
L 396 467.33784 
L 408.375 448.312229 
L 420.75 440.337143 
L 433.125 451.07533 
L 445.5 450.263721 
L 457.875 450.727491 
L 470.25 450.824112 
L 482.625 451.713057 
L 495 450.109135 
L 507.375 444.352543 
L 519.75 439.430191 
L 532.125 439.603851 
L 544.5 450.669519 
L 556.875 453.433122 
L 569.25 424.867672 
L 581.625 425.732851 
L 594 425.098363 
L 606.375 434.377418 
L 618.75 444.178749 
L 631.125 445.627159 
L 643.5 439.777516 
L 655.875 443.599466 
L 668.25 429.927412 
L 680.625 421.447861 
L 693 420.871891 
L 705.375 436.671712 
L 717.75 445.009136 
L 730.125 453.201193 
L 742.5 450.592223 
L 754.875 445.511276 
L 767.25 457.569556 
L 779.625 456.525735 
" clip-path="url(#p06ce0d4cd1)" style="fill: none; stroke: #000000; stroke-width: 1.5; stroke-linecap: square"/>
   </g>
   <g id="line2d_2">
    <path d="M 0 459 
L 12.375 459 
L 24.75 459.446747 
L 37.125 455.575824 
L 49.5 457.350481 
L 61.875 460.247122 
L 74.25 457.610671 
L 86.625 447.179116 
L 99 441.71847 
L 111.375 441.301237 
L 123.75 453.25728 
L 136.125 460.699583 
L 148.5 463.74403 
L 160.875 465.150474 
L 173.25 463.117625 
L 185.625 463.948604 
L 198 461.463272 
L 210.375 459.903828 
L 222.75 459.761592 
L 235.125 459.790903 
L 247.5 455.609436 
L 259.875 447.753559 
L 272.25 440.555635 
L 284.625 455.687209 
L 297 461.90873 
L 309.375 460.966721 
L 321.75 461.702817 
L 334.125 463.351257 
L 346.5 466.793152 
L 358.875 470.412685 
L 371.25 469.917423 
L 383.625 467.549488 
L 396 466.036311 
L 408.375 466.701428 
L 420.75 461.055389 
L 433.125 452.675119 
L 445.5 451.793921 
L 457.875 450.923765 
L 470.25 450.748558 
L 482.625 450.734008 
L 495 451.176727 
L 507.375 450.576461 
L 519.75 447.456206 
L 532.125 443.440228 
L 544.5 441.499252 
L 556.875 446.083891 
L 569.25 449.763218 
L 581.625 437.248547 
L 594 431.435482 
L 606.375 428.216512 
L 618.75 431.276189 
L 631.125 437.732561 
L 643.5 441.690386 
L 655.875 440.712528 
L 668.25 442.136564 
L 680.625 436.037858 
L 693 428.726766 
L 705.375 424.788518 
L 717.75 430.729852 
L 730.125 437.865996 
L 742.5 445.544677 
L 754.875 448.089333 
L 767.25 446.803958 
L 779.625 452.240085 
" clip-path="url(#p06ce0d4cd1)" style="fill: none; stroke: #000000; stroke-width: 1.5; stroke-linecap: square"/>
   </g>
   <g id="line2d_3">
    <path d="M 0 459 
L 12.375 459 
L 24.75 459.392547 
L 37.125 456.473614 
L 49.5 457.422475 
L 61.875 459.704337 
L 74.25 458.276898 
L 86.625 451.411095 
L 99 446.688449 
L 111.375 444.930939 
L 123.75 451.05836 
L 136.125 458.183951 
L 148.5 461.117232 
L 160.875 462.722928 
L 173.25 462.234498 
L 185.625 462.968954 
L 198 461.786759 
L 210.375 460.771598 
L 222.75 460.43572 
L 235.125 460.264191 
L 247.5 459.009155 
L 259.875 453.439327 
L 272.25 447.569 
L 284.625 454.425176 
L 297 459.957637 
L 309.375 459.983418 
L 321.75 460.700958 
L 334.125 461.954923 
L 346.5 464.367748 
L 358.875 467.182494 
L 371.25 467.826324 
L 383.625 467.049646 
L 396 466.317626 
L 408.375 466.626794 
L 420.75 463.3445 
L 433.125 460.240834 
L 445.5 459.104053 
L 457.875 456.673367 
L 470.25 454.951516 
L 482.625 453.71953 
L 495 453.099701 
L 507.375 452.210003 
L 519.75 449.879358 
L 532.125 446.774338 
L 544.5 444.612622 
L 556.875 446.325187 
L 569.25 448.364546 
L 581.625 441.410706 
L 594 436.755671 
L 606.375 433.270138 
L 618.75 433.578441 
L 631.125 436.685299 
L 643.5 439.296607 
L 655.875 439.425423 
L 668.25 440.639487 
L 680.625 437.4754 
L 693 432.739084 
L 705.375 429.225357 
L 717.75 431.396086 
L 730.125 435.385688 
L 742.5 440.614356 
L 754.875 443.535337 
L 767.25 444.104926 
L 779.625 448.084617 
" clip-path="url(#p06ce0d4cd1)" style="fill: none; stroke: #000000; stroke-width: 1.5; stroke-linecap: square"/>
   </g>
   <g id="line2d_4">
    <path d="M 0 459 
L 12.375 459 
L 24.75 459.364018 
L 37.125 456.91717 
L 49.5 457.549181 
L 61.875 459.454013 
L 74.25 458.461563 
L 86.625 453.581103 
L 99 449.91331 
L 111.375 448.107789 
L 123.75 451.411203 
L 136.125 455.791202 
L 148.5 459.535519 
L 160.875 460.780653 
L 173.25 460.830865 
L 185.625 461.50074 
L 198 461.06759 
L 210.375 460.606766 
L 222.75 460.443344 
L 235.125 460.343256 
L 247.5 459.628443 
L 259.875 457.481915 
L 272.25 453.574569 
L 284.625 456.374932 
L 297 459.38075 
L 309.375 459.4835 
L 321.75 459.957202 
L 334.125 460.763766 
L 346.5 462.273624 
L 358.875 464.143475 
L 371.25 464.976166 
L 383.625 465.007603 
L 396 464.931075 
L 408.375 465.319202 
L 420.75 463.74423 
L 433.125 461.996656 
L 445.5 461.097926 
L 457.875 460.297112 
L 470.25 459.651562 
L 482.625 459.117141 
L 495 458.145659 
L 507.375 456.872574 
L 519.75 454.866886 
L 532.125 452.387219 
L 544.5 450.325518 
L 556.875 450.360947 
L 569.25 450.842353 
L 581.625 446.669832 
L 594 443.312307 
L 606.375 440.389706 
L 618.75 439.41613 
L 631.125 440.162824 
L 643.5 441.029192 
L 655.875 440.829847 
L 668.25 441.27673 
L 680.625 439.443688 
L 693 436.538709 
L 705.375 434.015921 
L 717.75 434.418059 
L 730.125 436.0818 
L 742.5 438.778023 
L 754.875 440.623141 
L 767.25 441.372863 
L 779.625 443.935487 
" clip-path="url(#p06ce0d4cd1)" style="fill: none; stroke: #000000; stroke-width: 1.5; stroke-linecap: square"/>
   </g>
   <g id="line2d_5">
    <path d="M 0 459 
L 12.375 459 
L 24.75 459.349566 
L 37.125 457.131164 
L 49.5 457.633337 
L 61.875 459.344076 
L 74.25 458.518896 
L 86.625 454.574337 
L 99 451.539296 
L 111.375 449.916191 
L 123.75 452.105168 
L 136.125 455.177171 
L 148.5 458.655972 
L 160.875 459.825278 
L 173.25 459.972098 
L 185.625 460.514791 
L 198 460.341458 
L 210.375 460.124153 
L 222.75 460.0717 
L 235.125 460.047636 
L 247.5 459.638643 
L 259.875 458.849714 
L 272.25 456.375005 
L 284.625 457.765911 
L 297 459.281616 
L 309.375 459.350652 
L 321.75 459.636052 
L 334.125 460.126846 
L 346.5 461.042062 
L 358.875 462.207754 
L 371.25 462.847966 
L 383.625 463.055034 
L 396 463.185478 
L 408.375 463.551059 
L 420.75 462.840248 
L 433.125 461.962629 
L 445.5 461.475975 
L 457.875 461.009868 
L 470.25 460.598898 
L 482.625 460.227321 
L 495 459.914056 
L 507.375 459.582698 
L 519.75 459.116728 
L 532.125 457.655076 
L 544.5 456.122097 
L 556.875 455.660142 
L 569.25 455.471801 
L 581.625 452.882721 
L 594 450.589308 
L 606.375 448.438702 
L 618.75 447.255002 
L 631.125 446.996527 
L 643.5 446.881597 
L 655.875 446.285681 
L 668.25 446.06061 
L 680.625 444.708331 
L 693 442.758117 
L 705.375 440.924316 
L 717.75 440.568904 
L 730.125 440.939538 
L 742.5 441.962114 
L 754.875 442.681649 
L 767.25 442.917548 
L 779.625 444.137967 
" clip-path="url(#p06ce0d4cd1)" style="fill: none; stroke: #000000; stroke-width: 1.5; stroke-linecap: square"/>
   </g>
   <g id="line2d_6">
    <path d="M 0 459 
L 12.375 459 
L 24.75 459.342317 
L 37.125 457.23543 
L 49.5 457.679881 
L 61.875 459.293979 
L 74.25 458.540615 
L 86.625 455.034179 
L 99 452.320856 
L 111.375 450.827588 
L 123.75 452.561016 
L 136.125 455.053723 
L 148.5 457.900336 
L 160.875 459.411798 
L 173.25 459.566241 
L 185.625 460.024221 
L 198 459.933003 
L 210.375 459.802073 
L 222.75 459.78821 
L 235.125 459.791947 
L 247.5 459.513884 
L 259.875 459.029258 
L 272.25 457.319785 
L 284.625 458.229136 
L 297 459.212068 
L 309.375 459.263731 
L 321.75 459.462241 
L 334.125 459.801477 
L 346.5 460.427621 
L 358.875 461.229037 
L 371.25 461.702282 
L 383.625 461.901407 
L 396 462.049914 
L 408.375 462.344669 
L 420.75 461.964685 
L 433.125 461.465515 
L 445.5 461.191343 
L 457.875 460.920419 
L 470.25 460.674711 
L 482.625 460.445917 
L 495 460.246346 
L 507.375 460.031466 
L 519.75 459.732142 
L 532.125 459.367813 
L 544.5 459.027331 
L 556.875 458.666091 
L 569.25 458.409202 
L 581.625 456.770595 
L 594 455.263946 
L 606.375 453.808284 
L 618.75 452.876844 
L 631.125 452.462455 
L 643.5 452.138533 
L 655.875 451.555448 
L 668.25 451.182022 
L 680.625 450.187805 
L 693 448.847895 
L 705.375 447.548848 
L 717.75 447.046641 
L 730.125 446.952978 
L 742.5 447.239071 
L 754.875 447.392103 
L 767.25 447.306521 
L 779.625 447.771846 
" clip-path="url(#p06ce0d4cd1)" style="fill: none; stroke: #000000; stroke-width: 1.5; stroke-linecap: square"/>
   </g>
   <g id="line2d_7">
    <path d="M 0 459 
L 12.375 459 
L 24.75 459.338689 
L 37.125 457.286787 
L 49.5 457.704149 
L 61.875 459.270249 
L 74.25 458.550037 
L 86.625 455.253514 
L 99 452.699416 
L 111.375 451.27782 
L 123.75 452.809893 
L 136.125 455.037354 
L 148.5 457.587004 
L 160.875 459.228357 
L 173.25 459.37908 
L 185.625 459.792265 
L 198 459.730532 
L 210.375 459.632653 
L 222.75 459.632146 
L 235.125 459.645198 
L 247.5 459.422478 
L 259.875 459.02748 
L 272.25 457.634331 
L 284.625 458.356018 
L 297 459.161107 
L 309.375 459.205022 
L 321.75 459.365401 
L 334.125 459.637076 
L 346.5 460.133837 
L 358.875 460.768503 
L 371.25 461.153226 
L 383.625 461.329347 
L 396 461.466449 
L 408.375 461.712794 
L 420.75 461.454769 
L 433.125 461.104833 
L 445.5 460.917 
L 457.875 460.729297 
L 470.25 460.557888 
L 482.625 460.396958 
L 495 460.255493 
L 507.375 460.101873 
L 519.75 459.887154 
L 532.125 459.624986 
L 544.5 459.377586 
L 556.875 459.269029 
L 569.25 459.196852 
L 581.625 458.423519 
L 594 457.337983 
L 606.375 456.279705 
L 618.75 455.569423 
L 631.125 455.204273 
L 643.5 454.900507 
L 655.875 454.42556 
L 668.25 454.08899 
L 680.625 453.344227 
L 693 452.369205 
L 705.375 451.414943 
L 717.75 450.972908 
L 730.125 450.795717 
L 742.5 450.866575 
L 754.875 450.858557 
L 767.25 450.703455 
L 779.625 450.901029 
" clip-path="url(#p06ce0d4cd1)" style="fill: none; stroke: #000000; stroke-width: 1.5; stroke-linecap: square"/>
   </g>
   <g id="line2d_8">
    <path d="M 0 459 
L 12.375 459 
L 24.75 459.336874 
L 37.125 457.312261 
L 49.5 457.716516 
L 61.875 459.258724 
L 74.25 458.554428 
L 86.625 455.360394 
L 99 452.885141 
L 111.375 451.500659 
L 123.75 452.938603 
L 136.125 455.040025 
L 148.5 457.447033 
L 160.875 459.14314 
L 173.25 459.290544 
L 185.625 459.681181 
L 198 459.631572 
L 210.375 459.547777 
L 222.75 459.552474 
L 235.125 459.568991 
L 247.5 459.371085 
L 259.875 459.017065 
L 272.25 457.751166 
L 284.625 458.391059 
L 297 459.131033 
L 309.375 459.171316 
L 321.75 459.314257 
L 334.125 459.554948 
L 346.5 459.992456 
L 358.875 460.550211 
L 371.25 460.891843 
L 383.625 461.053539 
L 396 461.18134 
L 408.375 461.402024 
L 420.75 461.193426 
L 433.125 460.906019 
L 445.5 460.754289 
L 457.875 460.602033 
L 470.25 460.462831 
L 482.625 460.331873 
L 495 460.216639 
L 507.375 460.091045 
L 519.75 459.914932 
L 532.125 459.699609 
L 544.5 459.495894 
L 556.875 459.404497 
L 569.25 459.342447 
L 581.625 459.02541 
L 594 458.188694 
L 606.375 457.321499 
L 618.75 456.729819 
L 631.125 456.411135 
L 643.5 456.141279 
L 655.875 455.737415 
L 668.25 455.442017 
L 680.625 454.828744 
L 693 454.036109 
L 705.375 453.258586 
L 717.75 452.875183 
L 730.125 452.695674 
L 742.5 452.70707 
L 754.875 452.659948 
L 767.25 452.502443 
L 779.625 452.612799 
" clip-path="url(#p06ce0d4cd1)" style="fill: none; stroke: #000000; stroke-width: 1.5; stroke-linecap: square"/>
   </g>
   <g id="line2d_9">
    <path d="M 0 459 
L 12.375 459 
L 24.75 459.335967 
L 37.125 457.324945 
L 49.5 457.722755 
L 61.875 459.253048 
L 74.25 458.55655 
L 86.625 455.413123 
L 99 452.977056 
L 111.375 451.6114 
L 123.75 453.003898 
L 136.125 455.04399 
L 148.5 457.381248 
L 160.875 459.102223 
L 173.25 459.247657 
L 185.625 459.627041 
L 198 459.582885 
L 210.375 459.505547 
L 222.75 459.512494 
L 235.125 459.530454 
L 247.5 459.344225 
L 259.875 459.009674 
L 272.25 457.799742 
L 284.625 458.401558 
L 297 459.114874 
L 309.375 459.153398 
L 321.75 459.28805 
L 334.125 459.514019 
L 346.5 459.923423 
L 358.875 460.444614 
L 371.25 460.765291 
L 383.625 460.91932 
L 396 461.041829 
L 408.375 461.249609 
L 420.75 461.062927 
L 433.125 460.803702 
L 445.5 460.668155 
L 457.875 460.531908 
L 470.25 460.407346 
L 482.625 460.290107 
L 495 460.186971 
L 507.375 460.074378 
L 519.75 459.916193 
L 532.125 459.722679 
L 544.5 459.539478 
L 556.875 459.456655 
L 569.25 459.400019 
L 581.625 459.116456 
L 594 458.554836 
L 606.375 457.778133 
L 618.75 457.244814 
L 631.125 456.952295 
L 643.5 456.703001 
L 655.875 456.336396 
L 668.25 456.064985 
L 680.625 455.516174 
L 693 454.811132 
L 705.375 454.119243 
L 717.75 453.769354 
L 730.125 453.596306 
L 742.5 453.588614 
L 754.875 453.531085 
L 767.25 453.379171 
L 779.625 453.457456 
" clip-path="url(#p06ce0d4cd1)" style="fill: none; stroke: #000000; stroke-width: 1.5; stroke-linecap: square"/>
   </g>
  </g>
 </g>
 <defs>
  <clipPath id="p06ce0d4cd1">
   <rect x="0" y="0" width="792" height="612"/>
  </clipPath>
 </defs>
</svg>
