<?xml version="1.0" encoding="utf-8" standalone="no"?>
<!DOCTYPE svg PUBLIC "-//W3C//DTD SVG 1.1//EN"
  "http://www.w3.org/Graphics/SVG/1.1/DTD/svg11.dtd">
<svg xmlns:xlink="http://www.w3.org/1999/xlink" width="792pt" height="612pt" viewBox="0 0 792 612" xmlns="http://www.w3.org/2000/svg" version="1.1">
 <metadata>
  <rdf:RDF xmlns:dc="http://purl.org/dc/elements/1.1/" xmlns:cc="http://creativecommons.org/ns#" xmlns:rdf="http://www.w3.org/1999/02/22-rdf-syntax-ns#">
   <cc:Work>
    <dc:type rdf:resource="http://purl.org/dc/dcmitype/StillImage"/>
    <dc:date>2023-01-30T17:14:59.173912</dc:date>
    <dc:format>image/svg+xml</dc:format>
    <dc:creator>
     <cc:Agent>
      <dc:title>Matplotlib v3.6.2, https://matplotlib.org/</dc:title>
     </cc:Agent>
    </dc:creator>
   </cc:Work>
  </rdf:RDF>
 </metadata>
 <defs>
  <style type="text/css">*{stroke-linejoin: round; stroke-linecap: butt}</style>
 </defs>
 <g id="figure_1">
  <g id="patch_1">
   <path d="M 0 612 
L 792 612 
L 792 0 
L 0 0 
z
" style="fill: #ffffff"/>
  </g>
  <g id="axes_1">
   <g id="line2d_1">
    <path d="M 0 306 
L 46.588235 310.731711 
L 93.176471 304.968006 
L 139.764706 306.80546 
L 186.352941 306.855801 
L 232.941176 302.878943 
L 279.529412 307.359208 
L 326.117647 295.206257 
L 372.705882 308.819037 
L 419.294118 301.10472 
L 465.882353 305.723123 
L 512.470588 300.538542 
L 559.058824 301.733846 
L 605.647059 308.7687 
L 652.235294 310.329069 
L 698.823529 314.89533 
L 745.411765 301.016645 
" clip-path="url(#pace0cb2046)" style="fill: none; stroke: #000000; stroke-width: 1.5; stroke-linecap: square"/>
   </g>
   <g id="line2d_2">
    <path d="M 0 306 
L 46.588235 306 
L 93.176471 309.154614 
L 139.764706 306.762311 
L 186.352941 306.785324 
L 232.941176 306.821699 
L 279.529412 304.818981 
L 326.117647 306.099097 
L 372.705882 300.629621 
L 419.294118 304.729628 
L 465.882353 302.89819 
L 512.470588 304.312101 
L 559.058824 302.412898 
L 605.647059 302.063325 
L 652.235294 305.427491 
L 698.823529 307.884224 
L 745.411765 311.429092 
" clip-path="url(#pace0cb2046)" style="fill: none; stroke: #000000; stroke-width: 1.5; stroke-linecap: square"/>
   </g>
   <g id="line2d_3">
    <path d="M 0 306 
L 46.588235 306 
L 93.176471 308.771917 
L 139.764706 307.04847 
L 186.352941 306.953569 
L 232.941176 306.918784 
L 279.529412 305.566474 
L 326.117647 306.142467 
L 372.705882 302.724508 
L 419.294118 304.592038 
L 465.882353 303.537597 
L 512.470588 304.192171 
L 559.058824 303.104961 
L 605.647059 302.698869 
L 652.235294 304.490624 
L 698.823529 306.210241 
L 745.411765 308.764682 
" clip-path="url(#pace0cb2046)" style="fill: none; stroke: #000000; stroke-width: 1.5; stroke-linecap: square"/>
   </g>
   <g id="line2d_4">
    <path d="M 0 306 
L 46.588235 306 
L 93.176471 308.570474 
L 139.764706 307.156664 
L 186.352941 307.044909 
L 232.941176 306.992993 
L 279.529412 305.980418 
L 326.117647 306.292603 
L 372.705882 303.939847 
L 419.294118 304.922776 
L 465.882353 304.184801 
L 512.470588 304.472284 
L 559.058824 303.756925 
L 605.647059 303.397219 
L 652.235294 304.334682 
L 698.823529 305.365025 
L 745.411765 306.982839 
" clip-path="url(#pace0cb2046)" style="fill: none; stroke: #000000; stroke-width: 1.5; stroke-linecap: square"/>
   </g>
   <g id="line2d_5">
    <path d="M 0 306 
L 46.588235 306 
L 93.176471 308.468428 
L 139.764706 307.19922 
L 186.352941 307.087642 
L 232.941176 307.032913 
L 279.529412 306.18246 
L 326.117647 306.39723 
L 372.705882 304.538887 
L 419.294118 305.194915 
L 465.882353 304.609118 
L 512.470588 304.759589 
L 559.058824 304.217598 
L 605.647059 303.912541 
L 652.235294 304.486096 
L 698.823529 305.152825 
L 745.411765 306.231219 
" clip-path="url(#pace0cb2046)" style="fill: none; stroke: #000000; stroke-width: 1.5; stroke-linecap: square"/>
   </g>
   <g id="line2d_6">
    <path d="M 0 306 
L 46.588235 306 
L 93.176471 308.417236 
L 139.764706 307.217365 
L 186.352941 307.107604 
L 232.941176 307.052789 
L 279.529412 306.279677 
L 326.117647 306.454643 
L 372.705882 304.82578 
L 419.294118 305.350146 
L 465.882353 304.838148 
L 512.470588 304.937126 
L 559.058824 304.477067 
L 605.647059 304.206956 
L 652.235294 304.632252 
L 698.823529 305.137701 
L 745.411765 305.965295 
" clip-path="url(#pace0cb2046)" style="fill: none; stroke: #000000; stroke-width: 1.5; stroke-linecap: square"/>
   </g>
   <g id="line2d_7">
    <path d="M 0 306 
L 46.588235 306 
L 93.176471 308.39162 
L 139.764706 307.225633 
L 186.352941 307.117153 
L 232.941176 307.062594 
L 279.529412 306.327007 
L 326.117647 306.484218 
L 372.705882 304.964712 
L 419.294118 305.431009 
L 465.882353 304.954965 
L 512.470588 305.032603 
L 559.058824 304.611844 
L 605.647059 304.360543 
L 652.235294 304.721637 
L 698.823529 305.154789 
L 745.411765 305.867584 
" clip-path="url(#pace0cb2046)" style="fill: none; stroke: #000000; stroke-width: 1.5; stroke-linecap: square"/>
   </g>
   <g id="line2d_8">
    <path d="M 0 306 
L 46.588235 306 
L 93.176471 308.378809 
L 139.764706 307.229563 
L 186.352941 307.121809 
L 232.941176 307.067449 
L 279.529412 306.350313 
L 326.117647 306.499166 
L 372.705882 305.03289 
L 419.294118 305.472033 
L 465.882353 305.013671 
L 512.470588 305.081715 
L 559.058824 304.680115 
L 605.647059 304.438444 
L 652.235294 304.769991 
L 698.823529 305.169365 
L 745.411765 305.828022 
" clip-path="url(#pace0cb2046)" style="fill: none; stroke: #000000; stroke-width: 1.5; stroke-linecap: square"/>
   </g>
   <g id="line2d_9">
    <path d="M 0 306 
L 46.588235 306 
L 93.176471 308.372403 
L 139.764706 307.231477 
L 186.352941 307.124106 
L 232.941176 307.069863 
L 279.529412 306.361871 
L 326.117647 306.506674 
L 372.705882 305.066637 
L 419.294118 305.492666 
L 465.882353 305.043061 
L 512.470588 305.106572 
L 559.058824 304.714419 
L 605.647059 304.477604 
L 652.235294 304.795017 
L 698.823529 305.178118 
L 745.411765 305.810582 
" clip-path="url(#pace0cb2046)" style="fill: none; stroke: #000000; stroke-width: 1.5; stroke-linecap: square"/>
   </g>
  </g>
 </g>
 <defs>
  <clipPath id="pace0cb2046">
   <rect x="0" y="0" width="792" height="612"/>
  </clipPath>
 </defs>
</svg>
