<?xml version="1.0" encoding="utf-8" standalone="no"?>
<!DOCTYPE svg PUBLIC "-//W3C//DTD SVG 1.1//EN"
  "http://www.w3.org/Graphics/SVG/1.1/DTD/svg11.dtd">
<svg xmlns:xlink="http://www.w3.org/1999/xlink" width="792pt" height="612pt" viewBox="0 0 792 612" xmlns="http://www.w3.org/2000/svg" version="1.1">
 <metadata>
  <rdf:RDF xmlns:dc="http://purl.org/dc/elements/1.1/" xmlns:cc="http://creativecommons.org/ns#" xmlns:rdf="http://www.w3.org/1999/02/22-rdf-syntax-ns#">
   <cc:Work>
    <dc:type rdf:resource="http://purl.org/dc/dcmitype/StillImage"/>
    <dc:date>2023-01-30T17:14:58.046247</dc:date>
    <dc:format>image/svg+xml</dc:format>
    <dc:creator>
     <cc:Agent>
      <dc:title>Matplotlib v3.6.2, https://matplotlib.org/</dc:title>
     </cc:Agent>
    </dc:creator>
   </cc:Work>
  </rdf:RDF>
 </metadata>
 <defs>
  <style type="text/css">*{stroke-linejoin: round; stroke-linecap: butt}</style>
 </defs>
 <g id="figure_1">
  <g id="patch_1">
   <path d="M 0 612 
L 792 612 
L 792 0 
L 0 0 
z
" style="fill: #ffffff"/>
  </g>
  <g id="axes_1">
   <g id="line2d_1">
    <path d="M 0 459 
L 46.588235 461.366044 
L 93.176471 460.850045 
L 139.764706 461.252776 
L 186.352941 461.680678 
L 232.941176 460.120095 
L 279.529412 460.799704 
L 326.117647 448.203768 
L 372.705882 452.4309 
L 419.294118 445.091164 
L 465.882353 444.676241 
L 512.470588 436.496587 
L 559.058824 430.117097 
L 605.647059 434.256059 
L 652.235294 440.735733 
L 698.823529 454.073028 
L 745.411765 446.600163 
" clip-path="url(#pe5b3d7e87a)" style="fill: none; stroke: #000000; stroke-width: 1.5; stroke-linecap: square"/>
   </g>
   <g id="line2d_2">
    <path d="M 0 459 
L 46.588235 459 
L 93.176471 460.577363 
L 139.764706 460.733181 
L 186.352941 461.010299 
L 232.941176 461.356301 
L 279.529412 460.728387 
L 326.117647 460.764326 
L 372.705882 456.21586 
L 419.294118 454.310421 
L 465.882353 449.658673 
L 512.470588 447.128156 
L 559.058824 441.752732 
L 605.647059 435.858906 
L 652.235294 435.002406 
L 698.823529 437.821924 
L 745.411765 445.954884 
" clip-path="url(#pe5b3d7e87a)" style="fill: none; stroke: #000000; stroke-width: 1.5; stroke-linecap: square"/>
   </g>
   <g id="line2d_3">
    <path d="M 0 459 
L 46.588235 459 
L 93.176471 460.385997 
L 139.764706 460.596249 
L 186.352941 460.852639 
L 232.941176 461.147245 
L 279.529412 460.803422 
L 326.117647 460.802227 
L 372.705882 459.114652 
L 419.294118 457.225418 
L 465.882353 453.555692 
L 512.470588 450.895464 
L 559.058824 446.608237 
L 605.647059 441.718866 
L 652.235294 439.514719 
L 698.823529 439.874305 
L 745.411765 444.046738 
" clip-path="url(#pe5b3d7e87a)" style="fill: none; stroke: #000000; stroke-width: 1.5; stroke-linecap: square"/>
   </g>
   <g id="line2d_4">
    <path d="M 0 459 
L 46.588235 459 
L 93.176471 460.285267 
L 139.764706 460.506923 
L 186.352941 460.744258 
L 232.941176 461.001332 
L 279.529412 460.784442 
L 326.117647 460.787898 
L 372.705882 459.645045 
L 419.294118 459.073944 
L 465.882353 456.490013 
L 512.470588 454.281483 
L 559.058824 451.044986 
L 605.647059 447.319256 
L 652.235294 445.037372 
L 698.823529 444.297817 
L 745.411765 445.956076 
" clip-path="url(#pe5b3d7e87a)" style="fill: none; stroke: #000000; stroke-width: 1.5; stroke-linecap: square"/>
   </g>
   <g id="line2d_5">
    <path d="M 0 459 
L 46.588235 459 
L 93.176471 460.234241 
L 139.764706 460.457528 
L 186.352941 460.682874 
L 232.941176 460.918421 
L 279.529412 460.754982 
L 326.117647 460.763144 
L 372.705882 459.873004 
L 419.294118 459.403557 
L 465.882353 458.044841 
L 512.470588 456.238492 
L 559.058824 453.701758 
L 605.647059 450.801222 
L 652.235294 448.845119 
L 698.823529 447.919392 
L 745.411765 448.600205 
" clip-path="url(#pe5b3d7e87a)" style="fill: none; stroke: #000000; stroke-width: 1.5; stroke-linecap: square"/>
   </g>
   <g id="line2d_6">
    <path d="M 0 459 
L 46.588235 459 
L 93.176471 460.208643 
L 139.764706 460.43177 
L 186.352941 460.650546 
L 232.941176 460.874798 
L 279.529412 460.735009 
L 326.117647 460.745495 
L 372.705882 459.971812 
L 419.294118 459.556651 
L 465.882353 458.790808 
L 512.470588 457.211671 
L 559.058824 455.04347 
L 605.647059 452.585828 
L 652.235294 450.875145 
L 698.823529 449.975096 
L 745.411765 450.322527 
" clip-path="url(#pe5b3d7e87a)" style="fill: none; stroke: #000000; stroke-width: 1.5; stroke-linecap: square"/>
   </g>
   <g id="line2d_7">
    <path d="M 0 459 
L 46.588235 459 
L 93.176471 460.195834 
L 139.764706 460.418645 
L 186.352941 460.634001 
L 232.941176 460.852502 
L 279.529412 460.72373 
L 326.117647 460.735301 
L 372.705882 460.016827 
L 419.294118 459.628889 
L 465.882353 459.049432 
L 512.470588 457.685129 
L 559.058824 455.69993 
L 605.647059 453.46312 
L 652.235294 451.888126 
L 698.823529 451.026214 
L 745.411765 451.249097 
" clip-path="url(#pe5b3d7e87a)" style="fill: none; stroke: #000000; stroke-width: 1.5; stroke-linecap: square"/>
   </g>
   <g id="line2d_8">
    <path d="M 0 459 
L 46.588235 459 
L 93.176471 460.189428 
L 139.764706 460.412023 
L 186.352941 460.625638 
L 232.941176 460.841241 
L 279.529412 460.717773 
L 326.117647 460.729861 
L 372.705882 460.038179 
L 419.294118 459.663776 
L 465.882353 459.10742 
L 512.470588 457.917094 
L 559.058824 456.022258 
L 605.647059 453.894546 
L 652.235294 452.389345 
L 698.823529 451.551701 
L 745.411765 451.722393 
" clip-path="url(#pe5b3d7e87a)" style="fill: none; stroke: #000000; stroke-width: 1.5; stroke-linecap: square"/>
   </g>
   <g id="line2d_9">
    <path d="M 0 459 
L 46.588235 459 
L 93.176471 460.186225 
L 139.764706 460.408698 
L 186.352941 460.621435 
L 232.941176 460.835584 
L 279.529412 460.714716 
L 326.117647 460.727055 
L 372.705882 460.04856 
L 419.294118 459.680893 
L 465.882353 459.13598 
L 512.470588 458.031707 
L 559.058824 456.181668 
L 605.647059 454.108029 
L 652.235294 452.63804 
L 698.823529 451.813663 
L 745.411765 451.960671 
" clip-path="url(#pe5b3d7e87a)" style="fill: none; stroke: #000000; stroke-width: 1.5; stroke-linecap: square"/>
   </g>
  </g>
 </g>
 <defs>
  <clipPath id="pe5b3d7e87a">
   <rect x="0" y="0" width="792" height="612"/>
  </clipPath>
 </defs>
</svg>
