<?xml version="1.0" encoding="utf-8" standalone="no"?>
<!DOCTYPE svg PUBLIC "-//W3C//DTD SVG 1.1//EN"
  "http://www.w3.org/Graphics/SVG/1.1/DTD/svg11.dtd">
<svg xmlns:xlink="http://www.w3.org/1999/xlink" width="792pt" height="612pt" viewBox="0 0 792 612" xmlns="http://www.w3.org/2000/svg" version="1.1">
 <metadata>
  <rdf:RDF xmlns:dc="http://purl.org/dc/elements/1.1/" xmlns:cc="http://creativecommons.org/ns#" xmlns:rdf="http://www.w3.org/1999/02/22-rdf-syntax-ns#">
   <cc:Work>
    <dc:type rdf:resource="http://purl.org/dc/dcmitype/StillImage"/>
    <dc:date>2023-01-09T02:29:12.619665</dc:date>
    <dc:format>image/svg+xml</dc:format>
    <dc:creator>
     <cc:Agent>
      <dc:title>Matplotlib v3.6.2, https://matplotlib.org/</dc:title>
     </cc:Agent>
    </dc:creator>
   </cc:Work>
  </rdf:RDF>
 </metadata>
 <defs>
  <style type="text/css">*{stroke-linejoin: round; stroke-linecap: butt}</style>
 </defs>
 <g id="figure_1">
  <g id="patch_1">
   <path d="M 0 612 
L 792 612 
L 792 0 
L 0 0 
z
" style="fill: #ffffff"/>
  </g>
  <g id="axes_1">
   <g id="line2d_1">
    <path d="M 0 459 
L 3.168 460.166622 
L 6.336 457.426103 
L 9.504 447.902001 
L 12.672 443.887706 
L 15.84 441.964109 
L 19.008 458.958581 
L 22.176 462.458446 
L 25.344 464.21183 
L 28.512 464.046156 
L 34.848 464.073768 
L 38.016 465.537223 
L 41.184 473.13752 
L 44.352 472.861397 
L 47.52 470.245127 
L 50.688 470.528154 
L 53.856 473.530996 
L 57.024 475.035869 
L 60.192 474.062534 
L 63.36 472.902815 
L 66.528 471.453167 
L 69.696 471.819031 
L 72.864 473.082296 
L 76.032 474.014212 
L 79.2 471.584326 
L 82.368 471.425555 
L 85.536 477.569302 
L 88.704 479.495263 
L 91.872 480.006091 
L 95.04 483.140092 
L 98.208 484.506903 
L 101.376 482.870872 
L 104.544 482.511911 
L 107.712 485.790877 
L 110.88 479.039659 
L 114.048 477.493368 
L 117.216 476.934218 
L 120.384 476.216297 
L 123.552 467.035192 
L 126.72 467.18706 
L 129.888 465.79954 
L 133.056 463.701002 
L 136.224 463.279913 
L 139.392 462.575799 
L 142.56 462.838116 
L 145.728 458.875744 
L 148.896 459.503925 
L 152.064 454.713308 
L 155.232 456.784127 
L 158.4 457.902411 
L 161.568 457.819575 
L 164.736 455.438079 
L 167.904 458.565106 
L 171.072 459.414185 
L 174.24 456.017909 
L 177.408 456.556331 
L 180.576 460.290877 
L 183.744 459.572956 
L 186.912 462.879534 
L 190.08 462.748376 
L 193.248 462.962371 
L 196.416 462.182323 
L 199.584 462.858825 
L 202.752 462.410125 
L 205.92 461.32634 
L 209.088 446.225687 
L 212.256 441.860707 
L 215.424 437.230206 
L 218.592 431.200822 
L 221.76 436.383112 
L 224.928 462.686248 
L 228.096 462.410125 
L 231.264 466.8281 
L 234.432 464.30157 
L 237.6 465.350839 
L 240.768 466.662426 
L 247.104 464.536275 
L 250.272 457.032633 
L 253.44 462.941662 
L 256.608 463.825257 
L 259.776 469.596237 
L 262.944 471.874256 
L 266.112 470.34177 
L 269.28 471.846643 
L 272.448 470.949242 
L 275.616 468.974959 
L 278.784 464.902139 
L 281.952 468.457228 
L 285.12 469.271792 
L 288.288 475.443151 
L 291.456 471.073498 
L 294.624 470.038035 
L 300.96 464.971169 
L 304.128 462.106389 
L 307.296 462.996887 
L 310.464 461.809556 
L 313.632 460.132106 
L 316.8 456.390662 
L 319.968 454.878968 
L 323.136 447.695032 
L 326.304 442.108876 
L 329.472 454.796138 
L 332.64 463.459394 
L 335.808 469.188955 
L 338.976 469.320114 
L 342.144 469.796427 
L 345.312 477.534786 
L 348.48 479.01895 
L 351.648 476.444099 
L 354.816 482.339334 
L 357.984 488.662561 
L 361.152 483.954656 
L 364.32 482.505008 
L 367.488 482.608554 
L 370.656 485.342177 
L 373.824 488.600433 
L 376.992 488.924878 
L 380.16 492.051976 
L 383.328 493.052924 
L 386.496 487.551164 
L 389.664 488.365728 
L 392.832 491.182187 
L 399.168 491.976042 
L 402.336 494.688955 
L 405.504 492.314293 
L 408.672 492.23836 
L 411.84 488.096508 
L 415.008 487.76516 
L 418.176 487.061045 
L 421.344 488.697076 
L 424.512 486.494992 
L 427.68 486.895371 
L 430.848 484.12033 
L 434.016 482.332431 
L 437.184 475.146318 
L 440.352 477.486465 
L 443.52 485.321467 
L 446.688 485.763265 
L 449.856 485.231727 
L 453.024 484.023687 
L 456.192 483.733757 
L 459.36 483.58189 
L 462.528 480.344342 
L 465.696 478.08013 
L 468.864 476.119653 
L 472.032 476.734028 
L 475.2 475.650244 
L 478.368 476.747834 
L 481.536 475.767596 
L 484.704 476.975636 
L 487.872 479.626421 
L 491.04 475.864239 
L 494.208 477.969681 
L 497.376 474.711424 
L 500.544 479.515972 
L 503.712 479.612615 
L 506.88 482.953709 
L 513.216 486.060097 
L 516.384 487.171494 
L 519.552 487.288847 
L 522.72 487.150785 
L 525.888 485.569978 
L 529.056 481.193422 
L 532.224 479.184624 
L 535.392 484.76922 
L 538.56 484.534515 
L 541.728 486.025582 
L 544.896 488.110314 
L 548.064 486.287899 
L 551.232 489.131971 
L 554.4 493.301435 
L 557.568 494.267867 
L 560.736 498.623714 
L 563.904 499.742014 
L 567.072 499.86627 
L 570.24 496.193828 
L 576.576 498.734164 
L 579.744 493.798457 
L 582.912 487.999865 
L 586.08 488.86275 
L 589.248 488.565918 
L 592.416 489.435707 
L 598.752 487.917028 
L 601.92 488.089605 
L 605.088 485.576881 
L 608.256 488.993909 
L 614.592 485.293855 
L 617.76 484.700189 
L 620.928 487.371684 
L 624.096 480.689496 
L 627.264 479.943963 
L 630.432 477.500271 
L 633.6 476.036816 
L 636.768 465.557932 
L 639.936 460.58771 
L 643.104 462.575799 
L 646.272 461.167569 
L 649.44 463.901191 
L 652.608 460.642934 
L 655.776 446.142915 
L 658.944 444.570403 
L 662.112 442.088195 
L 665.28 450.924223 
L 668.448 436.631026 
L 671.616 428.292687 
L 674.784 428.27207 
L 677.952 432.211987 
L 681.12 436.693007 
L 684.288 440.785423 
L 687.456 438.738811 
L 690.624 437.209543 
L 693.792 426.705586 
L 696.96 427.40629 
L 700.128 429.921777 
L 703.296 436.940937 
L 706.464 431.118289 
L 709.632 428.457623 
L 712.8 429.942404 
L 715.968 429.034963 
L 719.136 436.383112 
L 722.304 445.232474 
L 725.472 443.804959 
L 728.64 439.793031 
L 731.808 447.301803 
L 734.976 435.370934 
L 738.144 430.354952 
L 741.312 432.439019 
L 744.48 440.330555 
L 747.648 436.073237 
L 750.816 436.961599 
L 753.984 431.077024 
L 757.152 417.50867 
L 760.32 426.128649 
L 763.488 421.331927 
L 766.656 414.614228 
L 769.824 422.340028 
L 772.992 420.653208 
L 779.328 423.369069 
L 782.496 418.268765 
L 785.664 420.488695 
L 788.832 402.911107 
L 788.832 402.911107 
" clip-path="url(#pf812f0f97b)" style="fill: none; stroke: #000000; stroke-width: 1.5; stroke-linecap: square"/>
   </g>
   <g id="line2d_2">
    <path d="M 0 459 
L 3.168 459 
L 6.336 459.777748 
L 9.504 459.033529 
L 12.672 453.127175 
L 15.84 448.357349 
L 19.008 445.109317 
L 22.176 452.086892 
L 25.344 459.588251 
L 28.512 461.91026 
L 31.68 462.985815 
L 34.848 463.533839 
L 38.016 463.821007 
L 41.184 464.701814 
L 44.352 468.958527 
L 47.52 470.937168 
L 50.688 470.606416 
L 53.856 470.57967 
L 60.192 473.576421 
L 63.36 473.839063 
L 66.528 473.385382 
L 69.696 472.415972 
L 72.864 472.115457 
L 76.032 472.60444 
L 79.2 473.316161 
L 82.368 472.446427 
L 85.536 471.928912 
L 88.704 474.755983 
L 91.872 477.138549 
L 95.04 478.58909 
L 98.208 480.886789 
L 101.376 482.719247 
L 104.544 482.812426 
L 107.712 482.683595 
L 110.88 484.265403 
L 114.048 481.655414 
L 117.216 479.570466 
L 120.384 478.246318 
L 123.552 477.217731 
L 126.72 472.092204 
L 129.888 469.608879 
L 136.224 465.642907 
L 139.392 464.430509 
L 142.56 463.473904 
L 145.728 463.12837 
L 148.896 461.009637 
L 152.064 460.242014 
L 155.232 458.663048 
L 158.4 457.67924 
L 164.736 457.762808 
L 167.904 456.57241 
L 171.072 457.545322 
L 174.24 458.896616 
L 177.408 457.448436 
L 180.576 457.005995 
L 183.744 459.317082 
L 186.912 459.44686 
L 190.08 461.171576 
L 193.248 461.969653 
L 196.416 462.474066 
L 199.584 462.333622 
L 202.752 462.605739 
L 205.92 462.516215 
L 209.088 461.923308 
L 212.256 456.967745 
L 215.424 449.35521 
L 221.76 437.131593 
L 224.928 436.694384 
L 228.096 453.36704 
L 231.264 459.766188 
L 234.432 463.307932 
L 237.6 463.823498 
L 240.768 464.610828 
L 243.936 465.665891 
L 247.104 465.667217 
L 250.272 465.127396 
L 253.44 461.727287 
L 256.608 462.335517 
L 259.776 463.074499 
L 262.944 466.34575 
L 266.112 469.122794 
L 269.28 469.739496 
L 272.448 470.805306 
L 275.616 470.889848 
L 278.784 469.953249 
L 281.952 467.431538 
L 285.12 467.953465 
L 288.288 468.611992 
L 291.456 472.03457 
L 294.624 471.555468 
L 297.792 470.793205 
L 300.96 469.145615 
L 304.128 467.050541 
L 307.296 464.572983 
L 310.464 463.774228 
L 313.632 462.77726 
L 316.8 461.424662 
L 323.136 457.994506 
L 329.472 447.370546 
L 332.64 451.056316 
L 335.808 459.906524 
L 338.976 464.562209 
L 342.144 466.959177 
L 345.312 468.400677 
L 348.48 473.006768 
L 351.648 476.059502 
L 354.816 476.297049 
L 357.984 479.366703 
L 361.152 484.06405 
L 364.32 484.038305 
L 367.488 483.297509 
L 370.656 482.978154 
L 373.824 484.175474 
L 376.992 486.406741 
L 380.16 487.690282 
L 383.328 489.890173 
L 386.496 491.480157 
L 389.664 489.522713 
L 392.832 488.955712 
L 396 490.085761 
L 399.168 490.829074 
L 402.336 491.409177 
L 405.504 493.060368 
L 408.672 492.687845 
L 411.84 492.461505 
L 415.008 490.280076 
L 418.176 489.02144 
L 421.344 488.033162 
L 424.512 488.359529 
L 427.68 487.416513 
L 430.848 487.140661 
L 434.016 485.614429 
L 437.184 483.954006 
L 440.352 479.52477 
L 443.52 478.485463 
L 446.688 481.900054 
L 449.856 483.825907 
L 453.024 484.52634 
L 462.528 483.793801 
L 465.696 482.079264 
L 472.032 478.082214 
L 475.2 477.390417 
L 478.368 476.501543 
L 481.536 476.610422 
L 484.704 476.173389 
L 487.872 476.561559 
L 491.04 478.092583 
L 494.208 476.974066 
L 497.376 477.475501 
L 500.544 476.089496 
L 503.712 477.810314 
L 506.88 478.717082 
L 510.048 480.849486 
L 513.216 482.686031 
L 516.384 484.385679 
L 519.552 485.800758 
L 522.72 486.563075 
L 525.888 486.881321 
L 529.056 486.23752 
L 532.224 483.718571 
L 535.392 481.444207 
L 538.56 483.107255 
L 541.728 483.817894 
L 544.896 484.919491 
L 548.064 486.516513 
L 551.232 486.400514 
L 554.4 487.773227 
L 557.568 490.561072 
L 560.736 492.444044 
L 563.904 495.561045 
L 567.072 497.681348 
L 570.24 498.800947 
L 573.408 497.513238 
L 576.576 497.517461 
L 579.744 498.14464 
L 582.912 495.972523 
L 586.08 491.973904 
L 589.248 490.399188 
L 592.416 489.460639 
L 595.584 489.427721 
L 598.752 489.030374 
L 601.92 488.454954 
L 605.088 488.251408 
L 608.256 486.898024 
L 611.424 487.947916 
L 614.592 487.566784 
L 617.76 486.423904 
L 620.928 485.552761 
L 624.096 486.459691 
L 627.264 483.560422 
L 630.432 481.736221 
L 633.6 479.602409 
L 636.768 477.794207 
L 639.936 471.633649 
L 643.104 466.062236 
L 646.272 464.275636 
L 649.44 462.670222 
L 652.608 463.252788 
L 655.776 461.910016 
L 658.944 456.800775 
L 662.112 450.555636 
L 665.28 446.24914 
L 668.448 448.561248 
L 671.616 442.528516 
L 674.784 435.332055 
L 677.952 431.711591 
L 681.12 431.899748 
L 684.288 434.277198 
L 687.456 437.522814 
L 690.624 438.124212 
L 693.792 437.639992 
L 696.96 432.149505 
L 700.128 429.775375 
L 703.296 429.851811 
L 706.464 433.404112 
L 709.632 432.250108 
L 712.8 430.329227 
L 715.968 430.118581 
L 719.136 429.560717 
L 722.304 432.989455 
L 725.472 439.142397 
L 728.64 441.500473 
L 731.808 440.652283 
L 734.976 444.008015 
L 738.144 439.701341 
L 741.312 435.026465 
L 744.48 433.73922 
L 747.648 437.041491 
L 750.816 436.539393 
L 753.984 436.737082 
L 757.152 433.889012 
L 760.32 425.629852 
L 763.488 425.861144 
L 766.656 423.577989 
L 769.824 419.057375 
L 772.992 420.663047 
L 776.16 420.627966 
L 779.328 421.269412 
L 782.496 422.303958 
L 785.664 420.2871 
L 788.832 420.376848 
L 788.832 420.376848 
" clip-path="url(#pf812f0f97b)" style="fill: none; stroke: #000000; stroke-width: 1.5; stroke-linecap: square"/>
   </g>
   <g id="line2d_3">
    <path d="M 0 459 
L 3.168 459 
L 6.336 459.683391 
L 9.504 459.136057 
L 12.672 454.913994 
L 15.84 450.98977 
L 19.008 447.967528 
L 22.176 451.498087 
L 25.344 457.08284 
L 28.512 460.153865 
L 31.68 461.330665 
L 34.848 462.148121 
L 38.016 462.721083 
L 41.184 463.555126 
L 44.352 466.383844 
L 47.52 468.291614 
L 53.856 469.366095 
L 60.192 471.919188 
L 63.36 472.56851 
L 66.528 472.688183 
L 69.696 472.347284 
L 72.864 472.207302 
L 76.032 472.475785 
L 79.2 472.937639 
L 85.536 472.229062 
L 91.872 475.490276 
L 95.04 476.820817 
L 98.208 478.683496 
L 101.376 480.405513 
L 104.544 481.141777 
L 107.712 481.553395 
L 110.88 482.806878 
L 114.048 481.709202 
L 117.216 480.479685 
L 123.552 478.50618 
L 126.72 475.13946 
L 129.888 472.802414 
L 136.224 468.672759 
L 139.392 467.076818 
L 142.56 465.739066 
L 145.728 464.869678 
L 148.896 463.110583 
L 152.064 462.025499 
L 155.232 460.691765 
L 158.4 459.952065 
L 161.568 459.53486 
L 164.736 459.239487 
L 167.904 458.39693 
L 171.072 458.383891 
L 174.24 458.870384 
L 177.408 458.00379 
L 180.576 457.548818 
L 183.744 459.029714 
L 186.912 459.184084 
L 190.08 460.265997 
L 193.248 460.993267 
L 196.416 461.570147 
L 199.584 461.753152 
L 202.752 462.08085 
L 205.92 462.18285 
L 209.088 461.935505 
L 212.256 459.823751 
L 215.424 455.706839 
L 221.76 444.647575 
L 224.928 442.198376 
L 228.096 450.370322 
L 231.264 455.908189 
L 234.432 460.571548 
L 243.936 463.900816 
L 247.104 464.403364 
L 250.272 464.444996 
L 253.44 462.652931 
L 256.608 462.738109 
L 259.776 463.059398 
L 266.112 467.028451 
L 269.28 468.020268 
L 272.448 469.1664 
L 275.616 469.710973 
L 278.784 469.502623 
L 281.952 468.158035 
L 285.12 468.247538 
L 288.288 468.553244 
L 291.456 470.582843 
L 294.624 470.731619 
L 297.792 470.533563 
L 300.96 469.65184 
L 304.128 468.288515 
L 307.296 466.476853 
L 313.632 464.379492 
L 316.8 463.121975 
L 319.968 461.645895 
L 323.136 460.452245 
L 326.304 458.714696 
L 329.472 453.795171 
L 332.64 454.063179 
L 335.808 459.136721 
L 338.976 462.080857 
L 342.144 464.194153 
L 345.312 465.833554 
L 348.48 469.269377 
L 351.648 472.138178 
L 354.816 473.412531 
L 357.984 476.05037 
L 361.152 479.773875 
L 364.32 481.023833 
L 370.656 481.841036 
L 373.824 482.89833 
L 376.992 484.606766 
L 380.16 485.912353 
L 383.328 487.75018 
L 386.496 489.337309 
L 389.664 488.83525 
L 392.832 488.719606 
L 396 489.465443 
L 402.336 490.658367 
L 405.504 491.859855 
L 411.84 492.077042 
L 415.008 490.915928 
L 421.344 489.1437 
L 424.512 489.01674 
L 427.68 488.275719 
L 430.848 487.869093 
L 434.016 486.761996 
L 437.184 485.452293 
L 440.352 482.419494 
L 443.52 480.962148 
L 446.688 482.232231 
L 449.856 483.259802 
L 453.024 483.829619 
L 459.36 483.823217 
L 462.528 483.742591 
L 465.696 482.738363 
L 468.864 481.362874 
L 472.032 479.814603 
L 478.368 477.93471 
L 481.536 477.575427 
L 484.704 477.036331 
L 487.872 477.012401 
L 491.04 477.783176 
L 494.208 477.219269 
L 497.376 477.430615 
L 500.544 476.621488 
L 503.712 477.462698 
L 506.88 478.087327 
L 519.552 483.856558 
L 522.72 484.874681 
L 525.888 485.553301 
L 529.056 485.56958 
L 532.224 484.292939 
L 535.392 482.800673 
L 538.56 483.386199 
L 541.728 483.72817 
L 544.896 484.412738 
L 548.064 485.50738 
L 551.232 485.749286 
L 554.4 486.751096 
L 557.568 488.685369 
L 560.736 490.33344 
L 563.904 492.777836 
L 567.072 494.833311 
L 570.24 496.322012 
L 573.408 496.294696 
L 576.576 496.653081 
L 579.744 497.277737 
L 582.912 496.273157 
L 586.08 493.860091 
L 589.248 492.401106 
L 592.416 491.282436 
L 598.752 490.136026 
L 601.92 489.487968 
L 605.088 489.077199 
L 608.256 488.043108 
L 611.424 488.315533 
L 614.592 487.973387 
L 620.928 486.430586 
L 624.096 486.696094 
L 627.264 484.917519 
L 630.432 483.439216 
L 636.768 480.01413 
L 639.936 475.753239 
L 643.104 471.279223 
L 646.272 468.699198 
L 649.44 466.461654 
L 652.608 465.684127 
L 655.776 464.176071 
L 658.944 461.369005 
L 662.112 459.225921 
L 665.28 454.407229 
L 668.448 453.287142 
L 671.616 448.290949 
L 674.784 442.293062 
L 677.952 438.072142 
L 681.12 436.252227 
L 684.288 436.292152 
L 687.456 437.528323 
L 690.624 437.83705 
L 693.792 437.622797 
L 696.96 434.372818 
L 700.128 432.287379 
L 703.296 431.544205 
L 706.464 433.09323 
L 709.632 432.497445 
L 712.8 431.295268 
L 715.968 430.885038 
L 719.136 430.317974 
L 722.304 432.093182 
L 725.472 435.957435 
L 728.64 438.27258 
L 731.808 438.726577 
L 734.976 441.249187 
L 738.144 439.520575 
L 741.312 436.824451 
L 744.48 435.534051 
L 747.648 436.954092 
L 750.816 436.706046 
L 753.984 436.788986 
L 757.152 435.10846 
L 760.32 429.928301 
L 763.488 428.812294 
L 766.656 426.609604 
L 769.824 423.074315 
L 772.992 422.843129 
L 776.16 422.173392 
L 779.328 422.088716 
L 782.496 422.44485 
L 785.664 421.1878 
L 788.832 420.965962 
L 788.832 420.965962 
" clip-path="url(#pf812f0f97b)" style="fill: none; stroke: #000000; stroke-width: 1.5; stroke-linecap: square"/>
   </g>
   <g id="line2d_4">
    <path d="M 0 459 
L 3.168 459 
L 6.336 459.633725 
L 9.504 459.17911 
L 15.84 452.553466 
L 19.008 449.946139 
L 22.176 451.986357 
L 25.344 455.67485 
L 28.512 459.164834 
L 31.68 460.108243 
L 34.848 460.846756 
L 38.016 461.433532 
L 41.184 462.163134 
L 44.352 464.078494 
L 47.52 465.588086 
L 53.856 467.075294 
L 60.192 469.287778 
L 63.36 470.071965 
L 66.528 470.534518 
L 72.864 470.867991 
L 79.2 471.675426 
L 85.536 471.622995 
L 88.704 472.576523 
L 95.04 474.695958 
L 101.376 477.397204 
L 104.544 478.282978 
L 107.712 478.969758 
L 110.88 480.072066 
L 114.048 479.922618 
L 120.384 479.149226 
L 123.552 478.693337 
L 126.72 476.84134 
L 139.392 470.771254 
L 142.56 469.46548 
L 145.728 468.404616 
L 148.896 466.893044 
L 152.064 465.710707 
L 155.232 464.407575 
L 158.4 463.420165 
L 161.568 462.648457 
L 167.904 461.320773 
L 171.072 460.920604 
L 174.24 460.673188 
L 180.576 459.902743 
L 183.744 459.957451 
L 186.912 459.888881 
L 193.248 460.725799 
L 196.416 461.071011 
L 205.92 461.614916 
L 209.088 461.555784 
L 215.424 459.295617 
L 218.592 456.231321 
L 221.76 452.192994 
L 224.928 449.629203 
L 228.096 452.870745 
L 231.264 455.464443 
L 234.432 459.255088 
L 240.768 460.901718 
L 243.936 461.820817 
L 247.104 462.424821 
L 250.272 462.764241 
L 253.44 462.060274 
L 256.608 462.203857 
L 259.776 462.465299 
L 262.944 463.606697 
L 266.112 464.930373 
L 275.616 467.441663 
L 278.784 467.69246 
L 281.952 467.2527 
L 288.288 467.745434 
L 291.456 468.978008 
L 294.624 469.316602 
L 297.792 469.435799 
L 300.96 469.132962 
L 304.128 468.472124 
L 307.296 467.459123 
L 313.632 465.968543 
L 316.8 465.044217 
L 326.304 461.721919 
L 329.472 460.38682 
L 332.64 459.940213 
L 335.808 460.498026 
L 338.976 461.883833 
L 345.312 464.14169 
L 351.648 468.315868 
L 354.816 469.620392 
L 357.984 471.656124 
L 361.152 474.377406 
L 364.32 475.910139 
L 367.488 476.96604 
L 370.656 477.871438 
L 373.824 479.068479 
L 376.992 480.596061 
L 380.16 481.933653 
L 386.496 485.086086 
L 392.832 485.955344 
L 399.168 487.568433 
L 402.336 488.284963 
L 405.504 489.322403 
L 411.84 490.22072 
L 421.344 489.194642 
L 424.512 489.134864 
L 427.68 488.734357 
L 430.848 488.462687 
L 434.016 487.788351 
L 437.184 486.93207 
L 440.352 485.060632 
L 443.52 483.86065 
L 453.024 484.512733 
L 462.528 484.2063 
L 465.696 483.589596 
L 468.864 482.710259 
L 472.032 481.657622 
L 478.368 480.030504 
L 484.704 478.896524 
L 487.872 478.580872 
L 491.04 478.742278 
L 494.208 478.276572 
L 497.376 478.219501 
L 500.544 477.650848 
L 506.88 478.196562 
L 510.048 478.947601 
L 516.384 480.81582 
L 519.552 481.82666 
L 522.72 482.695856 
L 525.888 483.403686 
L 529.056 483.747774 
L 532.224 483.33781 
L 535.392 482.673943 
L 544.896 483.70318 
L 548.064 484.406111 
L 551.232 484.705838 
L 554.4 485.412485 
L 560.736 487.888308 
L 567.072 491.230556 
L 570.24 492.618122 
L 576.576 493.893182 
L 579.744 494.677802 
L 582.912 494.548534 
L 586.08 493.514249 
L 592.416 492.116444 
L 598.752 491.222056 
L 605.088 490.293771 
L 608.256 489.547018 
L 611.424 489.462785 
L 614.592 489.103212 
L 620.928 487.891079 
L 624.096 487.808493 
L 633.6 484.307208 
L 636.768 482.989395 
L 639.936 480.204 
L 643.104 477.068037 
L 646.272 474.747639 
L 649.44 472.57019 
L 652.608 471.176954 
L 655.776 469.483178 
L 658.944 467.109143 
L 662.112 465.028423 
L 665.28 463.143722 
L 668.448 462.029001 
L 671.616 460.329654 
L 674.784 457.372551 
L 677.952 452.644414 
L 681.12 449.298688 
L 684.288 447.212593 
L 687.456 446.124031 
L 693.792 443.590083 
L 696.96 440.822682 
L 700.128 438.610288 
L 703.296 437.154642 
L 706.464 437.052571 
L 709.632 436.040865 
L 712.8 434.758377 
L 719.136 433.075513 
L 722.304 433.539554 
L 725.472 435.336583 
L 728.64 436.633038 
L 731.808 437.084592 
L 734.976 438.667147 
L 738.144 438.096009 
L 741.312 436.833366 
L 744.48 436.114402 
L 747.648 436.766662 
L 750.816 436.637998 
L 753.984 436.666602 
L 757.152 435.756326 
L 760.32 432.828738 
L 763.488 431.750408 
L 766.656 430.077676 
L 769.824 427.589413 
L 772.992 426.744719 
L 776.16 425.769948 
L 779.328 425.161057 
L 782.496 424.870362 
L 785.664 423.807518 
L 788.832 423.266587 
L 788.832 423.266587 
" clip-path="url(#pf812f0f97b)" style="fill: none; stroke: #000000; stroke-width: 1.5; stroke-linecap: square"/>
   </g>
   <g id="line2d_5">
    <path d="M 0 459 
L 3.168 459 
L 6.336 459.608565 
L 9.504 459.197673 
L 15.84 453.353273 
L 19.008 451.020568 
L 22.176 452.469123 
L 25.344 455.275132 
L 28.512 458.242446 
L 31.68 459.50629 
L 38.016 460.628813 
L 41.184 461.231631 
L 44.352 462.63784 
L 47.52 463.804386 
L 57.024 466.043635 
L 60.192 466.968186 
L 63.36 467.683425 
L 66.528 468.200421 
L 76.032 469.237669 
L 79.2 469.685428 
L 85.536 470.005193 
L 91.872 471.488764 
L 95.04 472.252428 
L 101.376 474.221181 
L 110.88 476.527214 
L 114.048 476.745379 
L 120.384 476.820781 
L 123.552 476.768842 
L 129.888 475.187471 
L 136.224 473.478465 
L 142.56 471.762632 
L 145.728 471.00791 
L 148.896 469.990529 
L 158.4 467.30468 
L 167.904 465.228727 
L 177.408 463.730202 
L 180.576 463.266688 
L 186.912 462.73041 
L 205.92 462.700367 
L 209.088 462.586705 
L 215.424 461.215735 
L 221.76 459.538657 
L 224.928 458.595865 
L 228.096 459.182487 
L 231.264 459.449781 
L 234.432 460.063057 
L 240.768 460.824993 
L 243.936 461.309842 
L 247.104 461.663976 
L 250.272 461.899655 
L 253.44 461.600694 
L 259.776 461.881958 
L 262.944 462.520442 
L 266.112 463.296058 
L 275.616 465.072867 
L 278.784 465.395388 
L 281.952 465.351485 
L 288.288 465.911591 
L 291.456 466.70198 
L 294.624 467.062057 
L 297.792 467.305807 
L 300.96 467.317792 
L 304.128 467.116674 
L 310.464 466.380878 
L 316.8 465.501031 
L 323.136 464.27442 
L 329.472 462.670164 
L 332.64 462.24613 
L 335.808 462.346064 
L 345.312 463.978419 
L 351.648 466.269381 
L 354.816 467.119355 
L 357.984 468.390613 
L 361.152 470.082998 
L 364.32 471.242531 
L 373.824 474.086367 
L 386.496 479.028868 
L 392.832 480.469047 
L 399.168 482.221701 
L 402.336 483.040969 
L 405.504 484.018065 
L 411.84 485.350709 
L 418.176 485.781253 
L 421.344 485.898967 
L 424.512 486.143884 
L 430.848 486.251314 
L 434.016 486.081517 
L 437.184 485.775404 
L 440.352 484.896763 
L 443.52 484.285688 
L 453.024 484.566807 
L 462.528 484.403421 
L 465.696 484.070032 
L 468.864 483.574914 
L 475.2 482.443061 
L 478.368 481.880815 
L 487.872 480.658349 
L 491.04 480.576073 
L 494.208 480.185147 
L 497.376 480.003517 
L 500.544 479.565816 
L 506.88 479.574255 
L 513.216 480.25292 
L 525.888 482.247207 
L 529.056 482.532858 
L 532.224 482.430747 
L 535.392 482.168358 
L 544.896 482.865941 
L 548.064 483.307163 
L 551.232 483.557401 
L 554.4 484.023359 
L 560.736 485.588658 
L 570.24 488.773639 
L 576.576 490.068787 
L 579.744 490.791276 
L 582.912 491.042446 
L 589.248 490.627403 
L 595.584 490.372254 
L 605.088 489.873582 
L 608.256 489.514008 
L 611.424 489.469761 
L 614.592 489.27909 
L 620.928 488.593919 
L 624.096 488.49258 
L 630.432 487.184683 
L 636.768 485.516962 
L 639.936 483.854984 
L 643.104 481.919156 
L 649.44 478.712369 
L 652.608 477.475986 
L 655.776 476.070908 
L 662.112 472.61091 
L 665.28 471.003341 
L 668.448 469.775847 
L 677.952 465.132416 
L 681.12 463.873179 
L 684.288 462.84291 
L 693.792 460.398977 
L 696.96 459.378955 
L 700.128 457.387393 
L 703.296 455.079893 
L 706.464 453.545973 
L 712.8 449.691385 
L 719.136 446.401826 
L 722.304 445.53488 
L 725.472 445.477705 
L 728.64 445.306453 
L 731.808 444.816521 
L 734.976 444.997305 
L 738.144 444.170391 
L 741.312 442.98794 
L 744.48 442.078082 
L 747.648 441.900602 
L 750.816 441.380879 
L 753.984 440.98019 
L 757.152 440.119044 
L 760.32 438.190514 
L 763.488 437.143049 
L 766.656 435.777441 
L 769.824 433.96184 
L 779.328 431.001166 
L 782.496 430.316861 
L 785.664 429.268102 
L 788.832 428.497826 
L 788.832 428.497826 
" clip-path="url(#pf812f0f97b)" style="fill: none; stroke: #000000; stroke-width: 1.5; stroke-linecap: square"/>
   </g>
   <g id="line2d_6">
    <path d="M 0 459 
L 3.168 459 
L 6.336 459.595944 
L 9.504 459.206124 
L 15.84 453.750075 
L 19.008 451.566047 
L 22.176 452.764032 
L 25.344 455.168303 
L 28.512 457.724488 
L 31.68 459.23461 
L 41.184 460.747075 
L 44.352 461.902257 
L 47.52 462.874568 
L 57.024 464.811934 
L 60.192 465.584679 
L 63.36 466.204871 
L 66.528 466.680233 
L 76.032 467.709892 
L 79.2 468.113986 
L 85.536 468.521932 
L 91.872 469.685844 
L 95.04 470.287385 
L 104.544 472.404777 
L 107.712 472.960742 
L 110.88 473.657703 
L 117.216 474.134888 
L 123.552 474.382492 
L 136.224 472.778972 
L 148.896 470.777909 
L 164.736 468.107976 
L 171.072 467.211268 
L 183.744 465.78789 
L 186.912 465.502225 
L 209.088 464.654376 
L 215.424 463.720769 
L 224.928 462.091342 
L 231.264 462.130674 
L 234.432 462.338242 
L 240.768 462.553682 
L 247.104 462.860364 
L 250.272 462.933814 
L 253.44 462.732953 
L 259.776 462.789353 
L 269.28 463.767646 
L 275.616 464.415063 
L 278.784 464.612756 
L 281.952 464.62529 
L 288.288 464.984837 
L 291.456 465.43663 
L 297.792 465.867916 
L 300.96 465.938754 
L 304.128 465.897081 
L 316.8 465.223991 
L 326.304 464.2043 
L 329.472 463.739704 
L 332.64 463.47656 
L 335.808 463.475825 
L 345.312 464.209716 
L 357.984 466.564516 
L 361.152 467.508161 
L 367.488 468.820314 
L 373.824 470.088217 
L 383.328 472.516726 
L 386.496 473.391827 
L 396 475.313041 
L 411.84 478.691602 
L 421.344 479.795651 
L 427.68 480.451278 
L 430.848 480.72855 
L 437.184 480.940463 
L 443.52 480.562782 
L 456.192 481.287491 
L 462.528 481.487856 
L 468.864 481.298467 
L 484.704 480.307749 
L 487.872 480.167374 
L 491.04 480.145803 
L 500.544 479.659213 
L 506.88 479.650031 
L 513.216 479.98983 
L 529.056 481.290594 
L 538.56 481.356021 
L 544.896 481.690138 
L 554.4 482.454559 
L 560.736 483.407262 
L 570.24 485.379392 
L 582.912 487.175209 
L 595.584 487.441558 
L 605.088 487.548038 
L 608.256 487.468245 
L 614.592 487.527016 
L 627.264 487.057852 
L 633.6 486.370822 
L 636.768 485.93496 
L 639.936 485.07083 
L 643.104 484.032208 
L 652.608 481.414669 
L 655.776 480.533369 
L 665.28 477.304212 
L 668.448 476.411823 
L 681.12 472.156297 
L 687.456 470.499945 
L 696.96 468.073607 
L 703.296 466.473755 
L 709.632 465.155123 
L 715.968 463.814735 
L 719.136 463.184399 
L 722.304 462.685666 
L 738.144 460.871676 
L 744.48 459.946988 
L 750.816 459.28562 
L 753.984 458.872545 
L 757.152 457.678013 
L 760.32 455.954572 
L 763.488 454.670631 
L 766.656 453.232688 
L 769.824 451.570002 
L 779.328 447.861905 
L 782.496 446.800523 
L 785.664 445.565686 
L 788.832 444.476927 
L 788.832 444.476927 
" clip-path="url(#pf812f0f97b)" style="fill: none; stroke: #000000; stroke-width: 1.5; stroke-linecap: square"/>
   </g>
   <g id="line2d_7">
    <path d="M 0 459 
L 3.168 459 
L 6.336 459.589628 
L 9.504 459.210133 
L 15.84 453.946708 
L 19.008 451.838958 
L 22.176 452.923179 
L 25.344 455.138726 
L 28.512 457.497335 
L 31.68 459.109425 
L 41.184 460.508725 
L 44.352 461.543215 
L 47.52 462.417464 
L 57.024 464.179247 
L 60.192 464.868778 
L 63.36 465.429115 
L 66.528 465.867301 
L 82.368 467.424762 
L 85.536 467.618365 
L 95.04 469.122301 
L 104.544 470.894012 
L 114.048 472.233456 
L 123.552 472.745153 
L 136.224 471.807632 
L 148.896 470.517403 
L 171.072 468.057314 
L 186.912 466.78357 
L 209.088 465.98459 
L 218.592 464.950242 
L 224.928 464.175267 
L 234.432 464.161843 
L 243.936 464.262146 
L 250.272 464.303713 
L 253.44 464.148591 
L 259.776 464.109786 
L 272.448 464.779735 
L 278.784 465.037282 
L 285.12 465.119423 
L 288.288 465.2228 
L 291.456 465.476365 
L 297.792 465.723773 
L 304.128 465.748184 
L 319.968 465.197828 
L 326.304 464.780684 
L 332.64 464.342375 
L 335.808 464.321337 
L 345.312 464.676893 
L 357.984 465.96609 
L 361.152 466.497399 
L 380.16 468.986891 
L 386.496 470.0628 
L 396 471.343398 
L 411.84 473.659857 
L 424.512 474.911068 
L 434.016 475.634607 
L 437.184 475.785734 
L 443.52 475.809936 
L 459.36 476.773728 
L 465.696 477.002471 
L 475.2 477.000233 
L 487.872 476.939408 
L 494.208 476.973888 
L 510.048 477.19027 
L 519.552 477.756205 
L 529.056 478.331689 
L 541.728 478.683211 
L 554.4 479.424171 
L 560.736 480.046691 
L 573.408 481.616572 
L 582.912 482.579904 
L 614.592 483.671525 
L 627.264 483.739835 
L 633.6 483.5237 
L 636.768 483.361182 
L 643.104 482.489144 
L 655.776 480.774536 
L 690.624 474.650158 
L 696.96 473.594175 
L 703.296 472.53766 
L 725.472 469.436994 
L 741.312 467.676211 
L 750.816 466.647941 
L 757.152 465.965995 
L 763.488 465.140204 
L 782.496 462.824071 
L 788.832 462.097473 
L 788.832 462.097473 
" clip-path="url(#pf812f0f97b)" style="fill: none; stroke: #000000; stroke-width: 1.5; stroke-linecap: square"/>
   </g>
   <g id="line2d_8">
    <path d="M 0 459 
L 3.168 459 
L 6.336 459.586469 
L 9.504 459.212083 
L 15.84 454.04446 
L 19.008 451.975211 
L 22.176 453.005413 
L 25.344 455.12985 
L 28.512 457.392138 
L 31.68 459.049851 
L 41.184 460.391698 
L 44.352 461.367585 
L 47.52 462.193285 
L 57.024 463.863439 
L 60.192 464.510526 
L 66.528 465.455265 
L 82.368 466.946 
L 85.536 467.136315 
L 95.04 468.507231 
L 104.544 470.102731 
L 114.048 471.323796 
L 123.552 471.839067 
L 136.224 471.164492 
L 148.896 470.179438 
L 171.072 468.24743 
L 186.912 467.226198 
L 209.088 466.546645 
L 218.592 465.738656 
L 224.928 465.133752 
L 234.432 465.067419 
L 262.944 464.990551 
L 275.616 465.425511 
L 304.128 465.932701 
L 319.968 465.542667 
L 335.808 464.920725 
L 345.312 465.12912 
L 357.984 465.953225 
L 364.32 466.565271 
L 376.992 467.632046 
L 418.176 471.623472 
L 434.016 472.646981 
L 440.352 472.814227 
L 446.688 473.049929 
L 459.36 473.672374 
L 465.696 473.895182 
L 481.536 474.075702 
L 500.544 474.285934 
L 513.216 474.664407 
L 532.224 475.493987 
L 538.56 475.659479 
L 551.232 476.188879 
L 560.736 476.790945 
L 579.744 478.370032 
L 586.08 478.679962 
L 611.424 479.586341 
L 624.096 479.90149 
L 636.768 479.835449 
L 646.272 479.227153 
L 662.112 478.029705 
L 722.304 472.462951 
L 747.648 470.658426 
L 763.488 469.434059 
L 788.832 467.357352 
L 788.832 467.357352 
" clip-path="url(#pf812f0f97b)" style="fill: none; stroke: #000000; stroke-width: 1.5; stroke-linecap: square"/>
   </g>
   <g id="line2d_9">
    <path d="M 0 459 
L 3.168 459 
L 6.336 459.58489 
L 9.504 459.213044 
L 15.84 454.09318 
L 19.008 452.043257 
L 22.176 453.04716 
L 25.344 455.126876 
L 28.512 457.341674 
L 31.68 459.020858 
L 41.184 460.333865 
L 44.352 461.280951 
L 47.52 462.082588 
L 57.024 463.706296 
L 60.192 464.332096 
L 66.528 465.248939 
L 82.368 466.702072 
L 85.536 466.889609 
L 95.04 468.194084 
L 104.544 469.701821 
L 114.048 470.860836 
L 123.552 471.370225 
L 136.224 470.808329 
L 148.896 469.959266 
L 174.24 468.086902 
L 183.744 467.533575 
L 190.08 467.288831 
L 209.088 466.769921 
L 218.592 466.07109 
L 224.928 465.548677 
L 237.6 465.453286 
L 253.44 465.349133 
L 259.776 465.290116 
L 300.96 466.089029 
L 313.632 465.927725 
L 326.304 465.518821 
L 332.64 465.269685 
L 338.976 465.295704 
L 348.48 465.544749 
L 361.152 466.293489 
L 383.328 467.843011 
L 389.664 468.340358 
L 402.336 469.307088 
L 411.84 470.06497 
L 430.848 471.134272 
L 437.184 471.38169 
L 443.52 471.481774 
L 462.528 472.249373 
L 475.2 472.463651 
L 503.712 472.836518 
L 513.216 473.099318 
L 532.224 473.775036 
L 541.728 474.016914 
L 557.568 474.650399 
L 567.072 475.245063 
L 579.744 476.022778 
L 589.248 476.382974 
L 617.76 477.210976 
L 630.432 477.404308 
L 639.936 477.29784 
L 668.448 475.989303 
L 722.304 472.789702 
L 753.984 471.293973 
L 772.992 470.221011 
L 788.832 469.357388 
L 788.832 469.357388 
" clip-path="url(#pf812f0f97b)" style="fill: none; stroke: #000000; stroke-width: 1.5; stroke-linecap: square"/>
   </g>
  </g>
 </g>
 <defs>
  <clipPath id="pf812f0f97b">
   <rect x="0" y="0" width="792" height="612"/>
  </clipPath>
 </defs>
</svg>
