<?xml version="1.0" encoding="utf-8" standalone="no"?>
<!DOCTYPE svg PUBLIC "-//W3C//DTD SVG 1.1//EN"
  "http://www.w3.org/Graphics/SVG/1.1/DTD/svg11.dtd">
<svg xmlns:xlink="http://www.w3.org/1999/xlink" width="792pt" height="612pt" viewBox="0 0 792 612" xmlns="http://www.w3.org/2000/svg" version="1.1">
 <metadata>
  <rdf:RDF xmlns:dc="http://purl.org/dc/elements/1.1/" xmlns:cc="http://creativecommons.org/ns#" xmlns:rdf="http://www.w3.org/1999/02/22-rdf-syntax-ns#">
   <cc:Work>
    <dc:type rdf:resource="http://purl.org/dc/dcmitype/StillImage"/>
    <dc:date>2023-01-09T02:29:13.633751</dc:date>
    <dc:format>image/svg+xml</dc:format>
    <dc:creator>
     <cc:Agent>
      <dc:title>Matplotlib v3.6.2, https://matplotlib.org/</dc:title>
     </cc:Agent>
    </dc:creator>
   </cc:Work>
  </rdf:RDF>
 </metadata>
 <defs>
  <style type="text/css">*{stroke-linejoin: round; stroke-linecap: butt}</style>
 </defs>
 <g id="figure_1">
  <g id="patch_1">
   <path d="M 0 612 
L 792 612 
L 792 0 
L 0 0 
z
" style="fill: #ffffff"/>
  </g>
  <g id="axes_1">
   <g id="line2d_1">
    <path d="M 0 306 
L 3.168 308.333198 
L 6.336 302.617626 
L 9.504 299.650073 
L 12.672 303.321671 
L 15.84 304.716034 
L 19.008 317.329686 
L 22.176 312.943313 
L 25.344 309.506614 
L 28.512 305.668652 
L 31.68 306.027612 
L 34.848 306.027612 
L 38.016 308.926819 
L 41.184 321.188105 
L 44.352 305.447754 
L 47.52 300.767971 
L 50.688 306.566052 
L 53.856 312.004914 
L 57.024 309.009648 
L 60.192 304.053356 
L 63.36 303.680607 
L 66.528 303.100791 
L 69.696 306.731726 
L 72.864 308.526472 
L 76.032 307.86381 
L 79.2 301.140636 
L 82.368 305.682458 
L 85.536 318.280893 
L 88.704 309.851719 
L 91.872 307.021653 
L 95.04 312.267126 
L 98.208 308.733549 
L 101.376 302.728062 
L 104.544 305.28208 
L 107.712 312.556928 
L 110.88 292.50632 
L 114.048 302.907523 
L 117.216 304.881705 
L 120.384 304.564169 
L 123.552 287.659799 
L 126.72 306.303736 
L 129.888 303.225035 
L 133.056 301.803187 
L 136.224 305.157826 
L 139.392 304.59178 
L 142.56 306.524634 
L 145.728 298.242594 
L 148.896 307.090683 
L 152.064 302.134477 
L 155.232 307.380608 
L 158.4 306.745532 
L 161.568 305.944775 
L 164.736 304.412304 
L 167.904 308.0847 
L 171.072 307.118295 
L 174.24 303.18362 
L 177.408 306.35896 
L 180.576 310.210617 
L 183.744 304.564169 
L 186.912 312.612127 
L 190.08 305.737683 
L 193.248 306.427991 
L 196.416 304.439916 
L 199.584 307.352996 
L 202.752 305.102601 
L 205.92 303.832467 
L 209.088 292.83704 
L 212.256 303.086986 
L 215.424 302.907523 
L 218.592 301.968831 
L 221.76 309.465201 
L 224.928 328.422381 
L 228.096 305.447754 
L 231.264 314.833495 
L 234.432 300.9474 
L 237.6 308.098505 
L 240.768 308.623108 
L 243.936 303.887689 
L 247.104 303.860078 
L 250.272 293.62262 
L 253.44 315.192144 
L 256.608 307.76717 
L 259.776 317.536489 
L 262.944 310.5557 
L 266.112 302.935132 
L 269.28 309.009648 
L 272.448 304.205218 
L 275.616 302.051654 
L 278.784 297.856282 
L 281.952 313.108899 
L 285.12 307.629113 
L 288.288 318.336029 
L 291.456 297.263068 
L 294.624 303.929106 
L 297.792 300.9474 
L 300.96 300.919795 
L 304.128 300.271108 
L 307.296 307.780976 
L 310.464 303.625386 
L 313.632 302.645235 
L 316.8 301.996439 
L 319.968 304.992153 
L 323.136 301.20965 
L 326.304 302.272518 
L 329.472 314.461026 
L 332.64 317.715711 
L 335.808 317.453769 
L 338.976 306.262317 
L 342.144 306.952623 
L 345.312 321.463536 
L 348.48 308.968234 
L 351.648 300.850784 
L 354.816 317.78464 
L 357.984 318.639258 
L 361.152 296.587161 
L 364.32 303.100791 
L 367.488 306.207093 
L 370.656 311.466662 
L 373.824 312.515528 
L 376.992 306.648889 
L 380.16 312.253325 
L 383.328 308.001866 
L 386.496 295.001221 
L 389.664 307.629113 
L 392.832 311.632282 
L 396 306.731726 
L 399.168 306.85598 
L 402.336 311.425257 
L 405.504 301.251058 
L 408.672 305.848132 
L 411.84 297.71832 
L 415.008 305.337305 
L 418.176 304.59178 
L 421.344 309.271938 
L 424.512 301.596135 
L 427.68 306.800756 
L 430.848 300.450527 
L 434.016 302.424364 
L 437.184 291.638334 
L 440.352 310.679927 
L 443.52 321.656322 
L 446.688 306.883593 
L 449.856 304.936929 
L 453.024 303.58397 
L 456.192 305.420141 
L 459.36 305.696264 
L 462.528 299.525872 
L 465.696 301.471906 
L 468.864 302.079262 
L 472.032 307.228743 
L 475.2 303.832467 
L 478.368 308.195144 
L 481.536 304.03955 
L 484.704 308.41603 
L 487.872 311.30104 
L 491.04 298.477152 
L 494.208 310.210617 
L 497.376 299.484472 
L 500.544 315.605939 
L 503.712 306.193286 
L 506.88 312.681125 
L 510.048 309.078673 
L 513.216 309.133892 
L 516.384 308.222755 
L 519.552 306.234705 
L 522.72 305.723877 
L 525.888 302.838499 
L 529.056 297.249273 
L 532.224 301.982635 
L 535.392 317.164236 
L 538.56 305.530591 
L 541.728 308.982039 
L 544.896 310.169206 
L 548.064 302.355343 
L 551.232 311.687488 
L 554.4 314.336864 
L 557.568 307.932838 
L 560.736 314.709342 
L 563.904 308.23656 
L 567.072 306.248511 
L 570.24 298.656527 
L 573.408 308.567888 
L 576.576 308.512667 
L 579.744 296.13201 
L 582.912 294.408365 
L 586.08 307.725753 
L 589.248 305.406335 
L 592.416 307.739559 
L 595.584 304.453722 
L 598.752 304.508945 
L 601.92 306.345154 
L 605.088 300.975005 
L 608.256 312.832919 
L 611.424 302.396756 
L 614.592 302.203497 
L 617.76 304.812675 
L 620.928 311.342446 
L 624.096 292.644116 
L 627.264 304.508945 
L 630.432 301.113031 
L 633.6 303.073181 
L 636.768 285.074939 
L 639.936 296.063051 
L 643.104 309.975954 
L 646.272 303.18362 
L 649.44 311.466662 
L 652.608 299.484472 
L 655.776 294.146432 
L 658.944 304.950735 
L 662.112 304.343276 
L 665.28 311.894506 
L 668.448 296.463025 
L 671.616 300.422924 
L 674.784 305.986194 
L 677.952 308.636914 
L 681.12 308.995844 
L 684.288 308.733549 
L 687.456 304.633198 
L 690.624 304.978347 
L 693.792 298.973894 
L 696.96 306.469409 
L 700.128 307.684336 
L 703.296 310.69373 
L 706.464 302.10687 
L 709.632 304.219024 
L 712.8 306.994041 
L 715.968 305.392529 
L 719.136 310.914575 
L 722.304 311.908307 
L 725.472 305.047377 
L 728.64 303.321671 
L 731.808 311.011192 
L 734.976 298.035638 
L 741.312 307.394414 
L 744.48 311.273436 
L 747.648 303.15601 
L 750.816 306.593665 
L 753.984 302.065458 
L 757.152 296.904413 
L 760.32 311.784097 
L 763.488 302.78328 
L 766.656 301.485709 
L 769.824 311.190623 
L 772.992 304.867899 
L 776.16 306.883593 
L 779.328 306.938817 
L 782.496 302.576212 
L 785.664 307.491055 
L 788.832 294.160218 
L 788.832 294.160218 
" clip-path="url(#p51672818a7)" style="fill: none; stroke: #000000; stroke-width: 1.5; stroke-linecap: square"/>
   </g>
   <g id="line2d_2">
    <path d="M 0 306 
L 3.168 306 
L 6.336 307.555482 
L 12.672 302.022206 
L 15.84 302.692882 
L 19.008 303.72049 
L 22.176 310.580915 
L 25.344 311.766832 
L 28.512 310.643661 
L 31.68 308.151074 
L 34.848 307.096043 
L 38.016 306.574336 
L 41.184 307.761594 
L 44.352 314.511231 
L 50.688 305.338496 
L 53.856 305.946508 
L 57.024 308.988427 
L 60.192 309.004884 
L 63.36 306.525284 
L 66.528 305.092639 
L 69.696 304.061206 
L 72.864 305.398972 
L 76.032 306.977961 
L 79.2 307.423433 
L 82.368 304.260549 
L 85.536 304.964974 
L 88.704 311.653498 
L 91.872 310.764748 
L 95.04 308.900996 
L 98.208 310.595053 
L 101.376 309.664741 
L 104.544 306.186356 
L 107.712 305.742339 
L 110.88 309.163504 
L 114.048 300.780528 
L 117.216 301.830361 
L 120.384 303.351772 
L 123.552 303.942857 
L 126.72 295.752777 
L 129.888 301.033787 
L 133.056 302.125329 
L 136.224 301.943172 
L 139.392 303.575254 
L 142.56 304.086814 
L 145.728 305.308935 
L 148.896 301.762805 
L 152.064 304.464767 
L 155.232 303.291408 
L 158.4 305.344127 
L 161.568 306.054521 
L 164.736 306.001191 
L 167.904 305.206391 
L 171.072 306.648618 
L 174.24 306.900864 
L 177.408 305.034546 
L 180.576 305.705035 
L 183.744 307.963481 
L 186.912 306.259556 
L 190.08 309.449285 
L 193.248 307.596141 
L 196.416 307.008821 
L 199.584 305.719112 
L 202.752 306.544233 
L 205.92 305.820953 
L 209.088 304.814191 
L 212.256 298.799867 
L 215.424 300.924505 
L 218.592 301.910422 
L 221.76 301.930884 
L 224.928 305.707851 
L 228.096 317.121737 
L 231.264 311.287346 
L 234.432 313.082222 
L 237.6 307.031128 
L 243.936 308.110091 
L 247.104 306.002653 
L 250.272 304.920362 
L 253.44 299.200903 
L 256.608 307.216453 
L 259.776 307.477953 
L 262.944 312.541505 
L 266.112 311.553478 
L 269.28 307.233399 
L 272.448 308.131584 
L 278.784 304.126824 
L 281.952 300.957035 
L 285.12 307.043851 
L 288.288 307.317047 
L 291.456 312.844013 
L 294.624 305.041801 
L 297.792 304.475486 
L 300.96 302.704946 
L 304.128 301.810116 
L 307.296 301.045317 
L 310.464 304.402505 
L 313.632 304.006092 
L 319.968 302.654925 
L 323.136 303.825592 
L 326.304 302.518071 
L 329.472 302.397947 
L 332.64 308.458258 
L 335.808 313.108088 
L 338.976 315.308497 
L 342.144 310.793544 
L 345.312 308.882914 
L 348.48 315.2094 
L 351.648 312.104658 
L 354.816 306.475094 
L 357.984 312.138483 
L 361.152 315.391743 
L 364.32 305.948511 
L 367.488 304.51842 
L 370.656 305.36129 
L 373.824 308.394591 
L 376.992 310.462218 
L 380.16 308.567022 
L 383.328 310.39948 
L 386.496 309.179853 
L 389.664 302.085325 
L 392.832 304.866004 
L 396 308.260056 
L 399.168 307.486615 
L 402.336 307.1602 
L 405.504 309.302254 
L 408.672 305.254955 
L 411.84 305.54732 
L 415.008 301.637437 
L 418.176 303.482786 
L 421.344 304.023471 
L 424.512 306.652733 
L 427.68 304.113992 
L 430.848 305.448295 
L 434.016 302.947638 
L 437.184 302.679286 
L 440.352 297.144001 
L 443.52 303.921418 
L 446.688 312.828049 
L 449.856 309.851502 
L 453.024 307.400856 
L 456.192 305.486086 
L 459.36 305.462859 
L 462.528 305.585978 
L 465.696 302.571069 
L 468.864 302.003422 
L 472.032 302.002934 
L 475.2 304.616414 
L 478.368 304.222272 
L 481.536 306.217758 
L 484.704 305.125936 
L 487.872 306.776338 
L 491.04 309.061944 
L 494.208 303.763007 
L 497.376 307.002866 
L 500.544 303.228067 
L 503.712 309.44149 
L 506.88 307.813514 
L 510.048 310.264532 
L 513.216 309.672915 
L 516.384 309.399156 
L 519.552 308.830076 
L 522.72 307.524622 
L 525.888 306.636491 
L 529.056 304.712406 
L 532.224 300.962556 
L 535.392 301.451607 
L 538.56 309.325965 
L 541.728 307.421268 
L 544.896 308.203156 
L 548.064 309.193928 
L 551.232 305.768002 
L 557.568 311.575073 
L 560.736 309.765755 
L 563.904 312.233139 
L 570.24 308.239159 
L 573.408 303.424641 
L 576.576 306.008446 
L 579.744 307.254351 
L 582.912 301.656058 
L 586.08 298.004582 
L 589.248 302.85068 
L 592.416 304.122926 
L 595.584 305.934164 
L 598.752 305.205308 
L 601.92 304.849166 
L 605.088 305.592908 
L 608.256 303.293303 
L 611.424 308.09975 
L 614.592 305.237738 
L 617.76 303.714282 
L 620.928 304.257734 
L 624.096 307.813839 
L 627.264 300.202156 
L 630.432 302.35177 
L 633.6 301.732653 
L 636.768 302.383763 
L 639.936 293.685539 
L 643.104 294.862096 
L 646.272 302.426963 
L 649.44 302.789289 
L 652.608 307.165127 
L 655.776 303.314525 
L 658.944 298.715183 
L 662.112 301.836207 
L 665.28 303.127534 
L 668.448 307.54238 
L 671.616 301.974894 
L 674.784 301.193465 
L 677.952 303.578935 
L 681.12 306.12588 
L 684.288 307.590024 
L 687.456 308.169211 
L 690.624 306.401786 
L 693.792 305.676503 
L 696.96 302.329683 
L 700.128 304.41133 
L 703.296 306.051164 
L 706.464 308.376617 
L 709.632 305.228155 
L 712.8 304.714734 
L 715.968 305.859015 
L 719.136 305.626584 
L 722.304 308.294164 
L 725.472 310.112043 
L 728.64 307.574648 
L 731.808 305.433677 
L 734.976 308.240079 
L 738.144 303.124936 
L 741.312 302.876557 
L 744.48 305.139363 
L 747.648 308.207325 
L 750.816 305.664483 
L 753.984 306.132106 
L 757.152 304.096235 
L 760.32 300.471906 
L 763.488 306.155008 
L 766.656 304.469368 
L 769.824 302.965882 
L 772.992 307.078285 
L 776.16 305.976448 
L 779.328 306.43059 
L 782.496 306.69426 
L 785.664 304.6463 
L 788.832 306.06026 
L 788.832 306.06026 
" clip-path="url(#p51672818a7)" style="fill: none; stroke: #000000; stroke-width: 1.5; stroke-linecap: square"/>
   </g>
   <g id="line2d_3">
    <path d="M 0 306 
L 3.168 306 
L 6.336 307.366773 
L 12.672 303.041474 
L 15.84 303.141164 
L 19.008 303.668316 
L 22.176 308.059203 
L 25.344 309.585323 
L 28.512 309.561204 
L 31.68 308.384388 
L 34.848 307.678524 
L 38.016 307.187314 
L 41.184 307.702508 
L 44.352 311.686494 
L 47.52 309.849317 
L 50.688 307.179009 
L 53.856 307.000129 
L 57.024 308.47039 
L 60.192 308.635678 
L 63.36 307.298636 
L 66.528 306.239345 
L 69.696 305.318204 
L 72.864 305.720036 
L 76.032 306.536964 
L 79.2 306.923705 
L 82.368 305.224566 
L 85.536 305.358283 
L 88.704 309.15913 
L 91.872 309.36305 
L 95.04 308.661015 
L 98.208 309.725174 
L 101.376 309.44389 
L 104.544 307.472516 
L 107.712 306.823235 
L 110.88 308.50691 
L 114.048 303.804685 
L 117.216 303.54102 
L 120.384 303.935735 
L 123.552 304.117308 
L 126.72 299.267646 
L 129.888 301.326272 
L 133.056 301.884771 
L 136.224 301.85642 
L 139.392 302.808235 
L 142.56 303.324565 
L 145.728 304.261243 
L 148.896 302.481965 
L 152.064 303.829868 
L 155.232 303.332599 
L 158.4 304.520611 
L 161.568 305.165593 
L 164.736 305.409255 
L 167.904 305.118981 
L 171.072 305.991307 
L 174.24 306.324329 
L 177.408 305.42227 
L 180.576 305.696683 
L 183.744 307.026882 
L 186.912 306.308741 
L 190.08 308.163789 
L 193.248 307.454529 
L 196.416 307.153755 
L 199.584 306.36601 
L 202.752 306.655394 
L 205.92 306.204001 
L 209.088 305.505309 
L 212.256 301.776762 
L 215.424 302.157221 
L 218.592 302.375247 
L 221.76 302.249185 
L 224.928 304.365329 
L 228.096 311.451716 
L 231.264 309.692378 
L 234.432 311.203833 
L 237.6 308.195821 
L 240.768 308.162133 
L 243.936 308.300465 
L 247.104 307.005092 
L 250.272 306.083265 
L 253.44 302.416033 
L 256.608 306.170356 
L 259.776 306.642576 
L 262.944 309.863113 
L 266.112 310.074549 
L 269.28 307.983606 
L 272.448 308.29222 
L 275.616 307.089143 
L 278.784 305.5833 
L 281.952 303.310892 
L 285.12 306.179006 
L 288.288 306.611411 
L 291.456 310.05896 
L 294.624 306.297552 
L 297.792 305.603889 
L 300.96 304.236574 
L 307.296 302.376845 
L 310.464 303.95961 
L 313.632 303.845734 
L 319.968 303.047932 
L 323.136 303.612749 
L 326.304 302.905413 
L 329.472 302.720293 
L 335.808 309.564621 
L 338.976 311.887545 
L 342.144 310.226324 
L 345.312 309.278677 
L 348.48 312.87049 
L 351.648 311.73693 
L 354.816 308.548647 
L 357.984 311.275157 
L 361.152 313.44554 
L 364.32 308.499861 
L 367.488 306.919044 
L 370.656 306.715356 
L 376.992 309.416729 
L 380.16 308.611112 
L 383.328 309.675477 
L 386.496 309.174144 
L 389.664 304.995886 
L 392.832 305.768712 
L 396 307.491662 
L 399.168 307.252148 
L 402.336 307.133687 
L 405.504 308.402927 
L 408.672 306.289118 
L 411.84 306.145256 
L 415.008 303.677816 
L 418.176 304.166428 
L 421.344 304.289155 
L 424.512 305.746081 
L 427.68 304.517969 
L 430.848 305.186751 
L 434.016 303.785844 
L 437.184 303.380658 
L 440.352 299.935198 
L 443.52 303.085394 
L 446.688 308.540109 
L 449.856 308.055112 
L 453.024 307.139628 
L 456.192 306.089182 
L 459.36 305.898013 
L 462.528 305.838748 
L 465.696 303.991572 
L 468.864 303.249096 
L 472.032 302.903564 
L 475.2 304.167982 
L 478.368 304.07228 
L 481.536 305.281435 
L 484.704 304.921814 
L 487.872 305.95214 
L 491.04 307.541536 
L 494.208 304.872192 
L 497.376 306.422692 
L 500.544 304.381761 
L 503.712 307.682402 
L 506.88 307.249252 
L 510.048 308.848786 
L 516.384 308.993686 
L 519.552 308.775643 
L 525.888 307.357231 
L 529.056 306.032557 
L 532.224 303.446778 
L 535.392 303.015563 
L 538.56 307.171046 
L 541.728 306.683942 
L 544.896 307.369126 
L 548.064 308.189248 
L 551.232 306.48381 
L 554.4 308.003592 
L 557.568 309.868339 
L 560.736 309.296015 
L 563.904 310.888375 
L 567.072 310.110704 
L 570.24 308.977307 
L 573.408 305.945368 
L 576.576 306.716769 
L 579.744 307.249304 
L 582.912 303.99087 
L 586.08 301.174268 
L 589.248 303.082118 
L 592.416 303.7627 
L 595.584 304.926049 
L 601.92 304.703891 
L 605.088 305.178465 
L 608.256 303.931848 
L 611.424 306.544851 
L 614.592 305.315709 
L 617.76 304.397191 
L 620.928 304.517233 
L 624.096 306.531015 
L 627.264 302.443011 
L 630.432 303.043485 
L 633.6 302.483761 
L 636.768 302.666353 
L 639.936 297.480422 
L 643.104 297.054516 
L 646.272 300.840439 
L 649.44 301.525232 
L 652.608 304.44496 
L 655.776 302.983985 
L 658.944 300.386499 
L 662.112 301.714112 
L 665.28 302.486363 
L 668.448 305.253183 
L 671.616 302.668237 
L 674.784 301.998011 
L 677.952 303.181375 
L 681.12 304.783976 
L 684.288 306.026682 
L 687.456 306.826026 
L 690.624 306.206262 
L 693.792 305.856857 
L 696.96 303.82792 
L 700.128 304.605352 
L 703.296 305.502819 
L 706.464 307.036182 
L 709.632 305.601511 
L 712.8 305.195745 
L 715.968 305.725498 
L 719.136 305.620505 
L 722.304 307.187823 
L 725.472 308.583772 
L 728.64 307.546937 
L 731.808 306.303269 
L 734.976 307.684618 
L 738.144 304.845698 
L 741.312 304.198891 
L 744.48 305.137603 
L 747.648 306.949025 
L 750.816 305.834249 
L 753.984 306.055424 
L 757.152 304.87682 
L 760.32 302.535137 
L 763.488 305.252884 
L 766.656 304.524693 
L 769.824 303.630051 
L 772.992 305.84492 
L 776.16 305.550669 
L 782.496 306.238953 
L 785.664 305.156432 
L 788.832 305.851092 
L 788.832 305.851092 
" clip-path="url(#p51672818a7)" style="fill: none; stroke: #000000; stroke-width: 1.5; stroke-linecap: square"/>
   </g>
   <g id="line2d_4">
    <path d="M 0 306 
L 3.168 306 
L 6.336 307.267442 
L 12.672 303.599071 
L 15.84 303.522917 
L 19.008 303.816561 
L 22.176 306.877319 
L 25.344 308.164366 
L 28.512 308.434776 
L 31.68 307.900187 
L 38.016 307.273379 
L 41.184 307.567355 
L 44.352 309.946557 
L 47.52 309.173377 
L 50.688 307.74688 
L 53.856 307.548587 
L 57.024 308.290485 
L 60.192 308.409325 
L 66.528 307.038174 
L 69.696 306.397555 
L 72.864 306.45173 
L 76.032 306.787076 
L 79.2 306.960671 
L 82.368 306.024275 
L 85.536 305.96938 
L 88.704 307.944642 
L 91.872 308.250085 
L 95.04 308.053555 
L 98.208 308.727172 
L 101.376 308.728191 
L 104.544 307.771528 
L 107.712 307.373552 
L 110.88 308.204577 
L 114.048 305.701105 
L 117.216 305.256362 
L 123.552 305.088225 
L 126.72 302.296187 
L 129.888 302.931755 
L 133.056 302.976892 
L 136.224 302.787509 
L 139.392 303.164073 
L 142.56 303.388515 
L 145.728 303.878307 
L 148.896 302.976953 
L 152.064 303.635373 
L 155.232 303.393801 
L 158.4 304.025206 
L 161.568 304.456597 
L 164.736 304.694549 
L 167.904 304.650099 
L 171.072 305.199666 
L 174.24 305.505167 
L 177.408 305.132457 
L 180.576 305.326658 
L 183.744 306.109414 
L 186.912 305.862861 
L 190.08 306.933314 
L 193.248 306.740518 
L 196.416 306.690424 
L 199.584 306.327474 
L 202.752 306.489778 
L 205.92 306.270555 
L 209.088 305.881736 
L 212.256 303.792714 
L 218.592 303.563009 
L 221.76 303.307541 
L 224.928 304.290288 
L 228.096 308.161617 
L 231.264 307.72931 
L 234.432 308.867178 
L 237.6 307.606561 
L 243.936 307.838176 
L 250.272 306.678839 
L 253.44 304.592076 
L 256.608 306.287166 
L 259.776 306.522884 
L 262.944 308.282753 
L 266.112 308.647287 
L 269.28 307.737561 
L 272.448 307.940537 
L 275.616 307.344427 
L 278.784 306.501593 
L 281.952 305.120484 
L 285.12 306.39348 
L 288.288 306.591988 
L 291.456 308.465093 
L 294.624 306.677187 
L 297.792 306.238395 
L 300.96 305.394327 
L 307.296 303.974028 
L 310.464 304.582179 
L 313.632 304.436684 
L 319.968 303.807928 
L 323.136 303.998225 
L 326.304 303.549368 
L 329.472 303.32987 
L 332.64 305.10679 
L 335.808 307.11562 
L 338.976 308.771539 
L 342.144 308.371183 
L 345.312 308.144448 
L 348.48 310.276386 
L 351.648 310.07145 
L 354.816 308.608984 
L 361.152 311.44199 
L 364.32 309.065365 
L 367.488 308.111767 
L 370.656 307.810775 
L 376.992 309.055061 
L 380.16 308.675116 
L 383.328 309.25348 
L 386.496 309.051163 
L 389.664 306.807214 
L 392.832 306.931298 
L 396 307.688295 
L 402.336 307.433051 
L 405.504 308.074848 
L 408.672 306.989733 
L 411.84 306.806895 
L 415.008 305.356864 
L 418.176 305.355432 
L 421.344 305.235551 
L 424.512 305.880443 
L 427.68 305.198989 
L 430.848 305.456661 
L 434.016 304.651335 
L 437.184 304.287456 
L 440.352 302.25731 
L 443.52 303.600086 
L 446.688 306.484215 
L 449.856 306.538653 
L 453.024 306.281297 
L 456.192 305.85384 
L 462.528 305.756175 
L 465.696 304.766599 
L 468.864 304.241346 
L 472.032 303.894758 
L 475.2 304.422549 
L 478.368 304.323246 
L 481.536 304.94024 
L 484.704 304.79181 
L 487.872 305.368698 
L 491.04 306.322812 
L 494.208 305.06859 
L 497.376 305.885857 
L 500.544 304.8627 
L 503.712 306.577946 
L 506.88 306.513481 
L 510.048 307.502065 
L 516.384 307.981459 
L 519.552 308.021651 
L 525.888 307.415651 
L 529.056 306.688174 
L 532.224 305.180073 
L 535.392 304.672276 
L 538.56 306.669772 
L 541.728 306.497199 
L 544.896 306.891499 
L 548.064 307.405852 
L 551.232 306.599452 
L 554.4 307.413284 
L 557.568 308.521841 
L 560.736 308.429697 
L 563.904 309.434709 
L 567.072 309.24952 
L 570.24 308.775056 
L 573.408 307.16286 
L 579.744 307.569227 
L 586.08 303.931462 
L 589.248 304.534705 
L 592.416 304.669705 
L 595.584 305.163908 
L 601.92 304.964799 
L 605.088 305.178637 
L 608.256 304.506506 
L 611.424 305.831534 
L 617.76 304.786885 
L 620.928 304.788861 
L 624.096 305.834828 
L 627.264 303.726663 
L 630.432 303.852168 
L 633.6 303.418739 
L 636.768 303.364439 
L 639.936 300.429825 
L 643.104 299.728951 
L 646.272 301.359559 
L 649.44 301.645397 
L 652.608 303.213604 
L 655.776 302.612587 
L 658.944 301.25231 
L 662.112 301.838817 
L 665.28 302.230789 
L 668.448 303.770599 
L 671.616 302.601445 
L 674.784 302.255908 
L 677.952 302.847754 
L 684.288 304.608515 
L 687.456 305.273769 
L 693.792 305.139174 
L 696.96 304.15261 
L 700.128 304.522471 
L 703.296 305.027513 
L 706.464 305.931798 
L 709.632 305.323912 
L 712.8 305.142743 
L 715.968 305.440159 
L 719.136 305.434571 
L 725.472 307.201455 
L 728.64 306.86648 
L 731.808 306.301738 
L 734.976 307.057273 
L 738.144 305.618472 
L 741.312 305.156383 
L 744.48 305.519534 
L 747.648 306.435892 
L 750.816 305.914021 
L 753.984 306.019114 
L 757.152 305.391651 
L 760.32 304.042623 
L 763.488 305.278672 
L 766.656 304.880658 
L 769.824 304.333974 
L 772.992 305.434149 
L 776.16 305.34683 
L 782.496 305.805135 
L 785.664 305.287375 
L 788.832 305.637214 
L 788.832 305.637214 
" clip-path="url(#p51672818a7)" style="fill: none; stroke: #000000; stroke-width: 1.5; stroke-linecap: square"/>
   </g>
   <g id="line2d_5">
    <path d="M 0 306 
L 3.168 306 
L 6.336 307.217124 
L 12.672 303.877453 
L 15.84 303.746251 
L 19.008 303.944789 
L 22.176 306.388594 
L 25.344 307.476811 
L 28.512 307.787934 
L 34.848 307.287666 
L 38.016 307.125891 
L 41.184 307.347076 
L 44.352 308.983234 
L 47.52 308.579845 
L 50.688 307.715353 
L 53.856 307.591595 
L 57.024 308.055445 
L 60.192 308.153555 
L 69.696 306.924994 
L 72.864 306.906422 
L 79.2 307.135434 
L 82.368 306.579415 
L 85.536 306.497031 
L 88.704 307.570458 
L 91.872 307.776504 
L 95.04 307.708825 
L 98.208 308.114877 
L 101.376 308.169648 
L 104.544 307.690566 
L 107.712 307.479587 
L 110.88 307.922395 
L 114.048 306.583026 
L 117.216 306.265081 
L 123.552 306.00993 
L 126.72 304.435943 
L 129.888 304.595533 
L 139.392 304.328108 
L 142.56 304.350444 
L 145.728 304.534306 
L 148.896 304.002945 
L 152.064 304.263276 
L 155.232 304.084017 
L 161.568 304.561551 
L 164.736 304.677634 
L 167.904 304.655388 
L 174.24 305.124793 
L 177.408 304.96241 
L 180.576 305.079154 
L 183.744 305.507881 
L 186.912 305.429081 
L 190.08 306.028642 
L 209.088 305.772678 
L 212.256 304.695219 
L 221.76 304.220546 
L 224.928 304.653272 
L 228.096 306.634396 
L 231.264 306.534588 
L 234.432 307.226546 
L 237.6 306.703715 
L 243.936 306.969696 
L 250.272 306.471359 
L 253.44 305.402078 
L 256.608 306.217651 
L 259.776 306.344877 
L 262.944 307.27696 
L 266.112 307.55122 
L 269.28 307.167858 
L 272.448 307.322648 
L 275.616 307.063093 
L 278.784 306.645041 
L 281.952 305.912193 
L 285.12 306.513492 
L 288.288 306.606719 
L 291.456 307.580764 
L 294.624 306.720153 
L 297.792 306.487499 
L 307.296 305.154819 
L 310.464 305.373593 
L 316.8 305.014723 
L 319.968 304.763906 
L 323.136 304.782885 
L 326.304 304.485203 
L 329.472 304.306313 
L 332.64 305.151934 
L 338.976 307.139432 
L 345.312 307.058271 
L 348.48 308.259773 
L 351.648 308.322065 
L 354.816 307.699931 
L 361.152 309.384631 
L 364.32 308.319021 
L 367.488 307.885013 
L 370.656 307.74634 
L 376.992 308.428165 
L 380.16 308.281625 
L 383.328 308.613226 
L 386.496 308.561768 
L 389.664 307.432834 
L 392.832 307.447502 
L 396 307.796783 
L 402.336 307.63852 
L 405.504 307.954165 
L 408.672 307.396563 
L 411.84 307.268707 
L 415.008 306.477493 
L 421.344 306.235429 
L 424.512 306.489834 
L 427.68 306.08109 
L 430.848 306.133769 
L 434.016 305.660406 
L 437.184 305.387775 
L 440.352 304.242736 
L 443.52 304.777857 
L 446.688 306.184077 
L 449.856 306.243109 
L 462.528 305.865315 
L 465.696 305.333223 
L 472.032 304.766255 
L 475.2 304.97005 
L 478.368 304.875512 
L 481.536 305.153029 
L 484.704 305.062626 
L 487.872 305.33942 
L 491.04 305.835449 
L 494.208 305.218149 
L 497.376 305.63674 
L 500.544 305.1246 
L 503.712 305.999541 
L 506.88 306.017337 
L 510.048 306.574532 
L 516.384 306.979727 
L 519.552 307.084711 
L 525.888 306.908579 
L 529.056 306.571302 
L 532.224 305.795778 
L 535.392 305.475222 
L 538.56 306.445593 
L 541.728 306.36577 
L 548.064 306.882443 
L 551.232 306.500475 
L 554.4 306.931914 
L 557.568 307.551045 
L 560.736 307.579525 
L 563.904 308.170162 
L 567.072 308.179465 
L 570.24 308.020233 
L 573.408 307.240528 
L 579.744 307.444968 
L 586.08 305.492319 
L 589.248 305.677596 
L 592.416 305.658471 
L 595.584 305.83123 
L 601.92 305.613779 
L 605.088 305.674314 
L 608.256 305.280852 
L 611.424 305.911506 
L 617.76 305.33666 
L 620.928 305.293 
L 624.096 305.797321 
L 627.264 304.699547 
L 630.432 304.684676 
L 633.6 304.386365 
L 636.768 304.278227 
L 639.936 302.676174 
L 643.104 302.12855 
L 646.272 302.779572 
L 649.44 302.80709 
L 652.608 303.527287 
L 655.776 303.189923 
L 658.944 302.435872 
L 665.28 302.78498 
L 668.448 303.545065 
L 671.616 302.955448 
L 674.784 302.744699 
L 677.952 303.013308 
L 687.456 304.338901 
L 693.792 304.411184 
L 696.96 303.959987 
L 703.296 304.46162 
L 706.464 304.977283 
L 709.632 304.737707 
L 712.8 304.691903 
L 715.968 304.882291 
L 719.136 304.923421 
L 725.472 305.96185 
L 728.64 305.885732 
L 731.808 305.673077 
L 734.976 306.120636 
L 738.144 305.44818 
L 741.312 305.21081 
L 744.48 305.392647 
L 747.648 305.881517 
L 750.816 305.653022 
L 753.984 305.732471 
L 757.152 305.424974 
L 760.32 304.711911 
L 763.488 305.300179 
L 769.824 304.78625 
L 772.992 305.319432 
L 776.16 305.283979 
L 782.496 305.542051 
L 785.664 305.297986 
L 788.832 305.484262 
L 788.832 305.484262 
" clip-path="url(#p51672818a7)" style="fill: none; stroke: #000000; stroke-width: 1.5; stroke-linecap: square"/>
   </g>
   <g id="line2d_6">
    <path d="M 0 306 
L 3.168 306 
L 6.336 307.191882 
L 12.672 304.014715 
L 15.84 303.863842 
L 19.008 304.021686 
L 22.176 306.179398 
L 25.344 307.158651 
L 28.512 307.466979 
L 34.848 307.113394 
L 38.016 306.999843 
L 41.184 307.189576 
L 44.352 308.495796 
L 47.52 308.22538 
L 50.688 307.593019 
L 53.856 307.509482 
L 57.024 307.861502 
L 60.192 307.948283 
L 69.696 307.085385 
L 72.864 307.061615 
L 79.2 307.20295 
L 82.368 306.8226 
L 85.536 306.752498 
L 88.704 307.448443 
L 91.872 307.590895 
L 95.04 307.557716 
L 98.208 307.827963 
L 101.376 307.879156 
L 104.544 307.592028 
L 107.712 307.464967 
L 110.88 307.74162 
L 114.048 306.923304 
L 117.216 306.71013 
L 123.552 306.507512 
L 126.72 305.535705 
L 129.888 305.574903 
L 139.392 305.266942 
L 145.728 305.296942 
L 148.896 304.952881 
L 152.064 305.056464 
L 155.232 304.915728 
L 161.568 305.115281 
L 180.576 305.29661 
L 183.744 305.523335 
L 186.912 305.479247 
L 190.08 305.805986 
L 209.088 305.717834 
L 212.256 305.139656 
L 221.76 304.819346 
L 224.928 305.02585 
L 228.096 306.065433 
L 231.264 306.038088 
L 234.432 306.426843 
L 237.6 306.185133 
L 243.936 306.372862 
L 250.272 306.158431 
L 253.44 305.609514 
L 256.608 306.02844 
L 259.776 306.104332 
L 262.944 306.602931 
L 266.112 306.775052 
L 269.28 306.608046 
L 272.448 306.712384 
L 278.784 306.406221 
L 281.952 306.035812 
L 285.12 306.341945 
L 288.288 306.397597 
L 291.456 306.913617 
L 294.624 306.496953 
L 297.792 306.386196 
L 307.296 305.682969 
L 310.464 305.773211 
L 326.304 305.201535 
L 329.472 305.07596 
L 332.64 305.478201 
L 338.976 306.493064 
L 345.312 306.503271 
L 348.48 307.143546 
L 351.648 307.221546 
L 354.816 306.949302 
L 361.152 307.892099 
L 364.32 307.409382 
L 367.488 307.225503 
L 370.656 307.182053 
L 376.992 307.584505 
L 380.16 307.544618 
L 383.328 307.745344 
L 386.496 307.756276 
L 389.664 307.212677 
L 392.832 307.230415 
L 396 307.417897 
L 402.336 307.366004 
L 405.504 307.538798 
L 408.672 307.271418 
L 411.84 307.210663 
L 415.008 306.807322 
L 421.344 306.654826 
L 424.512 306.766545 
L 427.68 306.544708 
L 430.848 306.554542 
L 437.184 306.129605 
L 440.352 305.512381 
L 443.52 305.732257 
L 446.688 306.410084 
L 453.024 306.364487 
L 459.36 306.211819 
L 462.528 306.188912 
L 468.864 305.716419 
L 472.032 305.561941 
L 475.2 305.633294 
L 478.368 305.556461 
L 481.536 305.668279 
L 484.704 305.59859 
L 487.872 305.719252 
L 491.04 305.956858 
L 494.208 305.636385 
L 497.376 305.830388 
L 500.544 305.560047 
L 503.712 305.986649 
L 506.88 305.994987 
L 510.048 306.280158 
L 519.552 306.589835 
L 525.888 306.539373 
L 529.056 306.382177 
L 532.224 305.996468 
L 535.392 305.825567 
L 538.56 306.308818 
L 541.728 306.276443 
L 548.064 306.552879 
L 551.232 306.374217 
L 563.904 307.303669 
L 570.24 307.297097 
L 573.408 306.929753 
L 579.744 307.063682 
L 586.08 306.079839 
L 595.584 306.185798 
L 608.256 305.840413 
L 611.424 306.138206 
L 617.76 305.820802 
L 620.928 305.778348 
L 624.096 306.015673 
L 627.264 305.446851 
L 630.432 305.406263 
L 636.768 305.128278 
L 639.936 304.271758 
L 643.104 303.922789 
L 646.272 304.179736 
L 649.44 304.136599 
L 652.608 304.448645 
L 655.776 304.237418 
L 658.944 303.809448 
L 665.28 303.876214 
L 668.448 304.215243 
L 671.616 303.884114 
L 674.784 303.736936 
L 681.12 304.036245 
L 687.456 304.439661 
L 693.792 304.468567 
L 696.96 304.232345 
L 703.296 304.471607 
L 706.464 304.737036 
L 712.8 304.60913 
L 722.304 305.002536 
L 725.472 305.296995 
L 731.808 305.203471 
L 734.976 305.45117 
L 738.144 305.13397 
L 741.312 305.025945 
L 744.48 305.124686 
L 747.648 305.386227 
L 750.816 305.291039 
L 753.984 305.343791 
L 757.152 305.203644 
L 760.32 304.851018 
L 763.488 305.143985 
L 769.824 304.891317 
L 772.992 305.159751 
L 779.328 305.220011 
L 782.496 305.291955 
L 785.664 305.176134 
L 788.832 305.273487 
L 788.832 305.273487 
" clip-path="url(#p51672818a7)" style="fill: none; stroke: #000000; stroke-width: 1.5; stroke-linecap: square"/>
   </g>
   <g id="line2d_7">
    <path d="M 0 306 
L 3.168 306 
L 6.336 307.17925 
L 12.672 304.082635 
L 15.84 303.923776 
L 19.008 304.06307 
L 22.176 306.084418 
L 25.344 307.008325 
L 28.512 307.310577 
L 34.848 307.018515 
L 38.016 306.925753 
L 41.184 307.100476 
L 44.352 308.255453 
L 47.52 308.038585 
L 50.688 307.506649 
L 53.856 307.441221 
L 57.024 307.74414 
L 60.192 307.824518 
L 69.696 307.124139 
L 76.032 307.177967 
L 79.2 307.213114 
L 82.368 306.910916 
L 85.536 306.85147 
L 88.704 307.390336 
L 91.872 307.503419 
L 95.04 307.481816 
L 98.208 307.691518 
L 101.376 307.736176 
L 104.544 307.526052 
L 107.712 307.433797 
L 110.88 307.640392 
L 114.048 307.041177 
L 120.384 306.80416 
L 123.552 306.720003 
L 126.72 306.014472 
L 133.056 305.924566 
L 136.224 305.778827 
L 145.728 305.744501 
L 148.896 305.492764 
L 152.064 305.545731 
L 155.232 305.43396 
L 164.736 305.549961 
L 167.904 305.514255 
L 174.24 305.641047 
L 180.576 305.590068 
L 183.744 305.728491 
L 186.912 305.693907 
L 190.08 305.897743 
L 209.088 305.828062 
L 212.256 305.464299 
L 221.76 305.237124 
L 224.928 305.352515 
L 228.096 305.97953 
L 231.264 305.965184 
L 234.432 306.203177 
L 237.6 306.062915 
L 247.104 306.122818 
L 250.272 306.063641 
L 253.44 305.739634 
L 256.608 305.984621 
L 259.776 306.030601 
L 262.944 306.32624 
L 266.112 306.43441 
L 269.28 306.345289 
L 272.448 306.412874 
L 278.784 306.248724 
L 281.952 306.03823 
L 285.12 306.214919 
L 288.288 306.250127 
L 291.456 306.550142 
L 294.624 306.320449 
L 300.96 306.130957 
L 307.296 305.863364 
L 313.632 305.854591 
L 329.472 305.483143 
L 335.808 305.98411 
L 338.976 306.256861 
L 345.312 306.273449 
L 348.48 306.63235 
L 351.648 306.687375 
L 354.816 306.550172 
L 361.152 307.090823 
L 364.32 306.845359 
L 370.656 306.745219 
L 383.328 307.10031 
L 386.496 307.121109 
L 389.664 306.841856 
L 402.336 306.961615 
L 405.504 307.06365 
L 415.008 306.697125 
L 434.016 306.431273 
L 437.184 306.34086 
L 440.352 306.009257 
L 443.52 306.114416 
L 446.688 306.464238 
L 453.024 306.439172 
L 478.368 305.97098 
L 491.04 306.147656 
L 494.208 305.977461 
L 497.376 306.071304 
L 500.544 305.925378 
L 503.712 306.139725 
L 506.88 306.14091 
L 513.216 306.347198 
L 522.72 306.444015 
L 529.056 306.349105 
L 535.392 306.057166 
L 538.56 306.30142 
L 544.896 306.343718 
L 548.064 306.427676 
L 551.232 306.338349 
L 567.072 306.863975 
L 570.24 306.850514 
L 573.408 306.671352 
L 579.744 306.752111 
L 586.08 306.255704 
L 595.584 306.30062 
L 608.256 306.110609 
L 611.424 306.256915 
L 620.928 306.05892 
L 624.096 306.173757 
L 627.264 305.879627 
L 636.768 305.688953 
L 639.936 305.2409 
L 643.104 305.041712 
L 646.272 305.148736 
L 649.44 305.106124 
L 652.608 305.24402 
L 655.776 305.119175 
L 658.944 304.881299 
L 665.28 304.871118 
L 668.448 305.023203 
L 674.784 304.742273 
L 681.12 304.852861 
L 690.624 305.015992 
L 693.792 305.015178 
L 696.96 304.884588 
L 703.296 304.978579 
L 706.464 305.102035 
L 712.8 305.019676 
L 722.304 305.195591 
L 725.472 305.340461 
L 757.152 305.284487 
L 760.32 305.103865 
L 763.488 305.247801 
L 769.824 305.114812 
L 772.992 305.245677 
L 788.832 305.29826 
L 788.832 305.29826 
" clip-path="url(#p51672818a7)" style="fill: none; stroke: #000000; stroke-width: 1.5; stroke-linecap: square"/>
   </g>
   <g id="line2d_8">
    <path d="M 0 306 
L 3.168 306 
L 6.336 307.172933 
L 12.672 304.116389 
L 15.84 303.953982 
L 19.008 304.084452 
L 22.176 306.039402 
L 25.344 306.935608 
L 28.512 307.23382 
L 34.848 306.969632 
L 38.016 306.886371 
L 41.184 307.053735 
L 44.352 308.136861 
L 47.52 307.943685 
L 50.688 307.457838 
L 53.856 307.400713 
L 57.024 307.680764 
L 60.192 307.757733 
L 69.696 307.132016 
L 76.032 307.179007 
L 79.2 307.210107 
L 82.368 306.943688 
L 85.536 306.890104 
L 88.704 307.359435 
L 91.872 307.459043 
L 95.04 307.442059 
L 98.208 307.624334 
L 101.376 307.665129 
L 107.712 307.411014 
L 110.88 307.586739 
L 114.048 307.083328 
L 120.384 306.881143 
L 123.552 306.808699 
L 126.72 306.221327 
L 133.056 306.135415 
L 139.392 305.985846 
L 145.728 305.962778 
L 148.896 305.754267 
L 152.064 305.789777 
L 155.232 305.694156 
L 164.736 305.767728 
L 171.072 305.791474 
L 177.408 305.760789 
L 186.912 305.847272 
L 190.08 305.999789 
L 209.088 305.934848 
L 212.256 305.661241 
L 221.76 305.48012 
L 224.928 305.560136 
L 228.096 306.015734 
L 231.264 306.004537 
L 234.432 306.177089 
L 237.6 306.075788 
L 247.104 306.11944 
L 250.272 306.07711 
L 253.44 305.845496 
L 256.608 306.017924 
L 259.776 306.04994 
L 262.944 306.258697 
L 266.112 306.336187 
L 272.448 306.323905 
L 278.784 306.21226 
L 281.952 306.06672 
L 291.456 306.420452 
L 294.624 306.265013 
L 304.128 306.050182 
L 307.296 305.954436 
L 313.632 305.945884 
L 329.472 305.686436 
L 342.144 306.194076 
L 345.312 306.205869 
L 348.48 306.442152 
L 351.648 306.481056 
L 354.816 306.39474 
L 361.152 306.752119 
L 367.488 306.54566 
L 373.824 306.614147 
L 383.328 306.783037 
L 386.496 306.800944 
L 389.664 306.628197 
L 411.84 306.693706 
L 418.176 306.548724 
L 437.184 306.354973 
L 440.352 306.151085 
L 443.52 306.213597 
L 446.688 306.426281 
L 462.528 306.351546 
L 472.032 306.139293 
L 491.04 306.221043 
L 494.208 306.118721 
L 497.376 306.172649 
L 500.544 306.084707 
L 503.712 306.209627 
L 510.048 306.293915 
L 525.888 306.380094 
L 538.56 306.304209 
L 551.232 306.326388 
L 570.24 306.6319 
L 573.408 306.531891 
L 579.744 306.581802 
L 586.08 306.301413 
L 601.92 306.280228 
L 624.096 306.245683 
L 627.264 306.079624 
L 636.768 305.964724 
L 639.936 305.710873 
L 643.104 305.593934 
L 652.608 305.687791 
L 665.28 305.455102 
L 668.448 305.532333 
L 674.784 305.363836 
L 722.304 305.527281 
L 728.64 305.59579 
L 744.48 305.532023 
L 750.816 305.570573 
L 757.152 305.541534 
L 760.32 305.440994 
L 766.656 305.483019 
L 769.824 305.436618 
L 776.16 305.495992 
L 788.832 305.517497 
L 788.832 305.517497 
" clip-path="url(#p51672818a7)" style="fill: none; stroke: #000000; stroke-width: 1.5; stroke-linecap: square"/>
   </g>
   <g id="line2d_9">
    <path d="M 0 306 
L 3.168 306 
L 6.336 307.169775 
L 12.672 304.133211 
L 15.84 303.969138 
L 19.008 304.09531 
L 22.176 306.017519 
L 25.344 306.89989 
L 28.512 307.195853 
L 34.848 306.944896 
L 38.016 306.866159 
L 41.184 307.029878 
L 44.352 308.078057 
L 47.52 307.895984 
L 50.688 307.43214 
L 53.856 307.378958 
L 57.024 307.647993 
L 60.192 307.723207 
L 69.696 307.133031 
L 76.032 307.177093 
L 79.2 307.206384 
L 82.368 306.956939 
L 85.536 306.906339 
L 88.704 307.343213 
L 101.376 307.629649 
L 107.712 307.397691 
L 110.88 307.559098 
L 114.048 307.09987 
L 120.384 306.914381 
L 123.552 306.847712 
L 126.72 306.315021 
L 133.056 306.232689 
L 139.392 306.093077 
L 167.904 305.845394 
L 174.24 305.918781 
L 180.576 305.87241 
L 183.744 305.959336 
L 186.912 305.931786 
L 190.08 306.061858 
L 209.088 305.999689 
L 212.256 305.765931 
L 224.928 305.672181 
L 228.096 306.05339 
L 231.264 306.043373 
L 234.432 306.187194 
L 237.6 306.102408 
L 247.104 306.137945 
L 250.272 306.1026 
L 253.44 305.910793 
L 256.608 306.051999 
L 259.776 306.077832 
L 266.112 306.312495 
L 281.952 306.094564 
L 291.456 306.379673 
L 297.792 306.223712 
L 310.464 306.02958 
L 332.64 305.896822 
L 338.976 306.183232 
L 345.312 306.193506 
L 348.48 306.37741 
L 357.984 306.477457 
L 361.152 306.620133 
L 367.488 306.46381 
L 373.824 306.518116 
L 383.328 306.650691 
L 386.496 306.665783 
L 389.664 306.536185 
L 411.84 306.594066 
L 418.176 306.487405 
L 437.184 306.346933 
L 440.352 306.19664 
L 456.192 306.360458 
L 468.864 306.230473 
L 478.368 306.177179 
L 497.376 306.210356 
L 500.544 306.147172 
L 506.88 306.235297 
L 519.552 306.364002 
L 529.056 306.325074 
L 535.392 306.204625 
L 541.728 306.296127 
L 579.744 306.501384 
L 589.248 306.322123 
L 633.6 306.103871 
L 636.768 306.079194 
L 643.104 305.828613 
L 652.608 305.885737 
L 665.28 305.723626 
L 668.448 305.772568 
L 677.952 305.659858 
L 693.792 305.718438 
L 700.128 305.672326 
L 734.976 305.797142 
L 744.48 305.727994 
L 753.984 305.756277 
L 772.992 305.696763 
L 788.832 305.698774 
L 788.832 305.698774 
" clip-path="url(#p51672818a7)" style="fill: none; stroke: #000000; stroke-width: 1.5; stroke-linecap: square"/>
   </g>
  </g>
 </g>
 <defs>
  <clipPath id="p51672818a7">
   <rect x="0" y="0" width="792" height="612"/>
  </clipPath>
 </defs>
</svg>
