<?xml version="1.0" encoding="utf-8" standalone="no"?>
<!DOCTYPE svg PUBLIC "-//W3C//DTD SVG 1.1//EN"
  "http://www.w3.org/Graphics/SVG/1.1/DTD/svg11.dtd">
<svg xmlns:xlink="http://www.w3.org/1999/xlink" width="792pt" height="612pt" viewBox="0 0 792 612" xmlns="http://www.w3.org/2000/svg" version="1.1">
 <metadata>
  <rdf:RDF xmlns:dc="http://purl.org/dc/elements/1.1/" xmlns:cc="http://creativecommons.org/ns#" xmlns:rdf="http://www.w3.org/1999/02/22-rdf-syntax-ns#">
   <cc:Work>
    <dc:type rdf:resource="http://purl.org/dc/dcmitype/StillImage"/>
    <dc:date>2023-01-30T17:17:02.611839</dc:date>
    <dc:format>image/svg+xml</dc:format>
    <dc:creator>
     <cc:Agent>
      <dc:title>Matplotlib v3.6.2, https://matplotlib.org/</dc:title>
     </cc:Agent>
    </dc:creator>
   </cc:Work>
  </rdf:RDF>
 </metadata>
 <defs>
  <style type="text/css">*{stroke-linejoin: round; stroke-linecap: butt}</style>
 </defs>
 <g id="figure_1">
  <g id="patch_1">
   <path d="M 0 612 
L 792 612 
L 792 0 
L 0 0 
z
" style="fill: #ffffff"/>
  </g>
  <g id="axes_1">
   <g id="line2d_1">
    <path d="M 0 459 
L 6.336 459.028554 
L 9.504 460.541921 
L 12.672 468.401437 
L 15.84 468.115896 
L 19.008 465.410395 
L 22.176 465.703075 
L 25.344 468.808333 
L 28.512 470.364531 
L 31.68 469.357999 
L 34.848 468.158727 
L 38.016 466.659637 
L 41.184 467.037979 
L 44.352 468.344329 
L 47.52 469.30803 
L 50.688 466.795269 
L 53.856 466.631083 
L 57.024 472.98437 
L 60.192 474.976018 
L 63.36 475.504269 
L 66.528 478.745159 
L 69.696 480.158587 
L 72.864 478.466757 
L 76.032 478.095554 
L 79.2 481.486353 
L 82.368 474.504876 
L 85.536 472.905846 
L 88.704 472.327626 
L 91.872 471.585219 
L 95.04 462.090981 
L 98.208 462.248029 
L 101.376 460.813185 
L 104.544 457.929223 
L 107.712 456.622893 
L 110.88 454.438633 
L 114.048 455.252358 
L 117.216 443.22294 
L 120.384 444.912978 
L 123.552 438.925006 
L 126.72 441.062888 
L 129.888 442.217674 
L 133.056 442.132127 
L 136.224 439.673171 
L 139.392 442.902093 
L 142.56 444.634843 
L 145.728 440.271776 
L 148.896 440.827681 
L 152.064 447.352429 
L 155.232 445.126935 
L 158.4 455.380843 
L 161.568 454.973975 
L 164.736 455.637815 
L 167.904 453.218101 
L 171.072 455.3166 
L 174.24 453.924716 
L 177.408 450.563214 
L 180.576 430.16981 
L 183.744 425.671877 
L 186.912 420.903872 
L 190.08 414.700999 
L 193.248 420.032022 
L 196.416 454.781251 
L 199.584 453.924716 
L 202.752 461.876825 
L 205.92 459.264125 
L 209.088 460.349181 
L 212.256 461.705501 
L 218.592 459.506835 
L 221.76 441.319488 
L 224.928 455.573572 
L 228.096 458.314702 
L 231.264 464.739374 
L 234.432 467.095087 
L 237.6 465.510335 
L 240.768 467.066533 
L 243.936 466.138525 
L 247.104 464.096907 
L 250.272 459.885177 
L 253.44 463.561517 
L 256.608 464.403863 
L 259.776 470.785704 
L 262.944 466.267018 
L 266.112 465.196239 
L 272.448 459.956562 
L 275.616 452.982568 
L 278.784 455.744887 
L 281.952 452.061882 
L 285.12 446.860201 
L 288.288 440.656628 
L 291.456 439.096006 
L 294.624 431.684626 
L 297.792 425.92752 
L 300.96 439.010506 
L 304.128 457.179686 
L 307.296 464.318201 
L 310.464 464.453833 
L 313.632 464.946391 
L 316.8 472.948677 
L 319.968 474.48346 
L 323.136 471.82079 
L 326.304 477.91709 
L 329.472 484.455979 
L 332.64 479.587505 
L 335.808 478.088415 
L 338.976 478.195493 
L 342.144 481.022349 
L 345.312 484.391732 
L 348.48 484.727243 
L 351.648 487.960995 
L 354.816 488.996081 
L 357.984 483.306677 
L 361.152 484.149023 
L 364.32 487.061541 
L 370.656 487.882471 
L 373.824 490.687911 
L 376.992 488.232259 
L 380.16 488.153735 
L 383.328 483.87062 
L 386.496 483.527971 
L 389.664 482.799841 
L 392.832 484.491672 
L 396 482.214482 
L 399.168 482.628517 
L 402.336 479.75883 
L 405.504 477.909952 
L 408.672 470.478748 
L 411.84 472.898708 
L 415.008 481.000933 
L 418.176 481.457799 
L 421.344 480.908132 
L 424.512 479.65889 
L 427.68 479.359072 
L 430.848 479.202025 
L 434.016 475.854057 
L 437.184 473.512621 
L 440.352 471.48528 
L 443.52 472.120608 
L 446.688 470.99986 
L 449.856 472.134885 
L 453.024 471.121215 
L 456.192 472.370457 
L 459.36 475.11165 
L 462.528 471.221154 
L 465.696 473.398404 
L 468.864 470.029021 
L 472.032 474.997434 
L 475.2 475.097373 
L 478.368 478.552419 
L 484.704 481.764755 
L 487.872 482.914058 
L 491.04 483.035413 
L 494.208 482.892642 
L 497.376 481.25792 
L 500.544 476.732095 
L 503.712 474.654785 
L 506.88 480.429851 
L 510.048 480.187141 
L 513.216 481.729063 
L 516.384 483.884897 
L 519.552 482.000327 
L 522.72 484.941399 
L 525.888 489.253068 
L 529.056 490.252461 
L 532.224 494.75687 
L 535.392 495.913311 
L 538.56 496.041805 
L 541.728 492.24411 
L 548.064 494.871087 
L 551.232 489.767041 
L 554.4 483.770681 
L 557.568 484.662996 
L 560.736 484.35604 
L 563.904 485.255494 
L 570.24 483.685018 
L 573.408 483.863482 
L 576.576 481.265059 
L 579.744 484.798628 
L 586.08 480.972379 
L 589.248 480.358466 
L 592.416 483.121075 
L 595.584 476.210983 
L 598.752 475.440022 
L 601.92 472.912985 
L 605.088 471.399617 
L 608.256 460.563337 
L 611.424 448.272751 
L 614.592 454.438633 
L 617.76 450.070832 
L 620.928 458.550273 
L 624.096 448.443984 
L 627.264 430.084486 
L 630.432 428.463731 
L 633.6 425.906215 
L 636.768 435.015008 
L 639.936 420.287168 
L 643.104 411.711471 
L 646.272 411.690283 
L 649.44 415.740816 
L 652.608 420.350959 
L 655.776 424.564336 
L 658.944 422.456873 
L 662.112 420.882604 
L 665.28 410.080585 
L 668.448 410.800565 
L 671.616 413.385972 
L 674.784 420.606136 
L 677.952 414.616137 
L 681.12 411.880984 
L 684.288 413.407176 
L 687.456 412.47438 
L 690.624 420.032022 
L 693.792 429.146063 
L 696.96 427.674953 
L 700.128 423.542348 
L 703.296 431.279193 
L 706.464 418.990426 
L 709.632 413.831301 
L 712.8 415.974306 
L 715.968 424.095881 
L 719.136 419.713122 
L 722.304 420.627401 
L 725.472 414.573706 
L 728.64 400.638915 
L 731.808 409.487843 
L 734.976 404.562046 
L 738.144 397.670662 
L 741.312 405.596927 
L 744.48 403.8654 
L 750.816 406.653496 
L 753.984 401.418652 
L 757.152 403.696555 
L 760.32 385.685232 
L 763.488 390.367579 
L 766.656 382.24611 
L 769.824 381.78822 
L 772.992 372.788749 
L 776.16 365.806308 
L 779.328 370.332786 
L 782.496 377.446279 
L 785.664 392.190174 
L 788.832 383.912482 
L 788.832 383.912482 
" clip-path="url(#p21f8adf13d)" style="fill: none; stroke: #000000; stroke-width: 1.5; stroke-linecap: square"/>
   </g>
   <g id="line2d_2">
    <path d="M 0 459 
L 9.504 459.020396 
L 12.672 459.831876 
L 15.84 464.254875 
L 19.008 466.216029 
L 22.176 465.81004 
L 25.344 465.756348 
L 31.68 468.855307 
L 34.848 469.126907 
L 38.016 468.657752 
L 41.184 467.655279 
L 44.352 467.344515 
L 47.52 467.850175 
L 50.688 468.586171 
L 53.856 467.686773 
L 57.024 467.151607 
L 60.192 470.075099 
L 63.36 472.538926 
L 66.528 474.03894 
L 69.696 476.415005 
L 72.864 478.309961 
L 76.032 478.406317 
L 79.2 478.273093 
L 82.368 479.908851 
L 85.536 477.209845 
L 88.704 475.053786 
L 91.872 473.684477 
L 95.04 472.620809 
L 98.208 467.320468 
L 101.376 464.752447 
L 107.712 460.651211 
L 110.88 459.397462 
L 114.048 457.2247 
L 117.216 456.152773 
L 120.384 449.581073 
L 123.552 447.200939 
L 126.72 443.003253 
L 129.888 441.987203 
L 136.224 442.073503 
L 139.392 440.844284 
L 142.56 441.848907 
L 145.728 443.244498 
L 148.896 441.748857 
L 152.064 441.291983 
L 155.232 444.333898 
L 158.4 444.736111 
L 161.568 450.083257 
L 164.736 452.55845 
L 167.904 454.123059 
L 171.072 453.687411 
L 174.24 454.531509 
L 177.408 454.253806 
L 180.576 452.414701 
L 183.744 441.252486 
L 186.912 433.396614 
L 193.248 420.802371 
L 196.416 420.352376 
L 199.584 437.53551 
L 202.752 445.725879 
L 205.92 456.709812 
L 209.088 458.309243 
L 212.256 459.583931 
L 215.424 460.674978 
L 218.592 460.67635 
L 221.76 460.118117 
L 224.928 451.80672 
L 228.096 453.693289 
L 231.264 455.985654 
L 234.432 461.378025 
L 237.6 464.249783 
L 240.768 464.887519 
L 243.936 465.989679 
L 247.104 466.077105 
L 250.272 465.108562 
L 253.44 462.500844 
L 256.608 463.040573 
L 259.776 463.72156 
L 262.944 467.260869 
L 266.112 466.765427 
L 269.28 465.977166 
L 272.448 464.273382 
L 275.616 462.106854 
L 278.784 459.544795 
L 281.952 458.156395 
L 285.12 455.063578 
L 288.288 450.86814 
L 291.456 445.682076 
L 294.624 442.312784 
L 300.96 431.350068 
L 304.128 435.151277 
L 307.296 446.160892 
L 310.464 459.533654 
L 313.632 462.012373 
L 316.8 463.503037 
L 319.968 468.266225 
L 323.136 471.423077 
L 326.304 471.668726 
L 329.472 474.843074 
L 332.64 479.70063 
L 335.808 479.674007 
L 338.976 478.907946 
L 342.144 478.577698 
L 345.312 479.815854 
L 348.48 482.123221 
L 351.648 483.450539 
L 354.816 485.725461 
L 357.984 487.369673 
L 361.152 485.345467 
L 364.32 484.759128 
L 367.488 485.927719 
L 370.656 486.696384 
L 373.824 487.296272 
L 376.992 489.003779 
L 380.16 488.618551 
L 383.328 488.384491 
L 386.496 486.128661 
L 389.664 484.827098 
L 392.832 483.805114 
L 396 484.142612 
L 399.168 483.167433 
L 402.336 482.882172 
L 405.504 481.303887 
L 408.672 479.586833 
L 411.84 475.006532 
L 415.008 473.931778 
L 418.176 477.462828 
L 421.344 479.454365 
L 424.512 480.178687 
L 434.016 479.421164 
L 437.184 477.64815 
L 443.52 473.514776 
L 446.688 472.799384 
L 449.856 471.880194 
L 453.024 471.992787 
L 456.192 471.540848 
L 459.36 471.942257 
L 462.528 473.525498 
L 465.696 472.368833 
L 468.864 472.88737 
L 472.032 471.454094 
L 475.2 473.233602 
L 478.368 474.171297 
L 481.536 476.376429 
L 484.704 478.275612 
L 487.872 480.033229 
L 491.04 481.496571 
L 494.208 482.284888 
L 497.376 482.613988 
L 500.544 481.948229 
L 503.712 479.343368 
L 506.88 476.991434 
L 510.048 478.711202 
L 513.216 479.446078 
L 516.384 480.585247 
L 519.552 482.236738 
L 522.72 482.116783 
L 525.888 483.536313 
L 529.056 486.419241 
L 532.224 488.366435 
L 535.392 491.589745 
L 538.56 493.782364 
L 541.728 494.940148 
L 544.896 493.60852 
L 548.064 493.612887 
L 551.232 494.261457 
L 554.4 492.015257 
L 557.568 487.880259 
L 560.736 486.251836 
L 563.904 485.281277 
L 567.072 485.247236 
L 570.24 484.836336 
L 573.408 484.241291 
L 576.576 484.030803 
L 579.744 482.63126 
L 582.912 483.71696 
L 586.08 483.322829 
L 589.248 482.14097 
L 592.416 481.240116 
L 595.584 482.177978 
L 598.752 479.179826 
L 601.92 477.293407 
L 605.088 475.086819 
L 608.256 473.216946 
L 611.424 466.846274 
L 614.592 461.084841 
L 617.76 459.237307 
L 620.928 454.731537 
L 624.096 456.538744 
L 627.264 452.373474 
L 630.432 441.080078 
L 633.6 434.634785 
L 636.768 430.193985 
L 639.936 432.577818 
L 643.104 426.359819 
L 646.272 418.950421 
L 649.44 415.226219 
L 652.608 415.41971 
L 655.776 417.865102 
L 658.944 421.205061 
L 662.112 421.824139 
L 665.28 421.325679 
L 668.448 415.676558 
L 671.616 413.23547 
L 674.784 413.314046 
L 677.952 416.966951 
L 681.12 415.780021 
L 684.288 413.804853 
L 687.456 413.588293 
L 690.624 413.014806 
L 693.792 416.540436 
L 696.96 422.872402 
L 700.128 425.300815 
L 703.296 424.427216 
L 706.464 427.884189 
L 709.632 423.447932 
L 712.8 418.635986 
L 715.968 417.311664 
L 719.136 420.709631 
L 722.304 420.192861 
L 725.472 420.396322 
L 728.64 417.465755 
L 731.808 408.97543 
L 734.976 409.21303 
L 738.144 406.868028 
L 741.312 402.227753 
L 744.48 403.875498 
L 747.648 403.839493 
L 750.816 404.497876 
L 753.984 405.559895 
L 757.152 403.489658 
L 760.32 403.581766 
L 763.488 394.571528 
L 766.656 392.453823 
L 769.824 387.295288 
L 772.992 384.49595 
L 776.16 378.565734 
L 779.328 372.08935 
L 782.496 371.150458 
L 785.664 374.243381 
L 788.832 383.199693 
L 788.832 383.199693 
" clip-path="url(#p21f8adf13d)" style="fill: none; stroke: #000000; stroke-width: 1.5; stroke-linecap: square"/>
   </g>
   <g id="line2d_3">
    <path d="M 0 459 
L 9.504 459.017511 
L 12.672 459.612831 
L 15.84 462.739714 
L 19.008 464.539311 
L 25.344 465.095328 
L 31.68 467.482221 
L 34.848 468.044038 
L 38.016 468.078163 
L 41.184 467.658045 
L 44.352 467.475002 
L 47.52 467.731036 
L 50.688 468.194738 
L 57.024 467.461994 
L 63.36 470.834436 
L 66.528 472.210357 
L 69.696 474.136565 
L 72.864 475.917314 
L 76.032 476.678689 
L 79.2 477.104346 
L 82.368 478.400581 
L 85.536 477.265467 
L 88.704 475.994016 
L 95.04 473.953201 
L 98.208 470.471655 
L 101.376 468.054901 
L 107.712 463.784399 
L 110.88 462.134027 
L 114.048 460.750649 
L 117.216 459.85161 
L 120.384 456.097594 
L 123.552 452.731668 
L 126.72 448.595393 
L 129.888 446.302064 
L 133.056 445.008858 
L 136.224 444.093425 
L 139.392 442.728398 
L 142.56 442.714931 
L 145.728 443.217403 
L 148.896 442.322371 
L 152.064 441.852518 
L 155.232 443.443358 
L 158.4 443.921731 
L 161.568 447.275292 
L 164.736 449.530309 
L 167.904 451.319348 
L 171.072 451.88694 
L 174.24 452.903351 
L 177.408 453.219737 
L 180.576 452.452531 
L 183.744 445.904309 
L 186.912 439.950627 
L 193.248 428.543261 
L 196.416 426.019717 
L 199.584 434.443629 
L 202.752 440.158499 
L 205.92 448.222639 
L 215.424 458.549109 
L 218.592 459.369391 
L 221.76 459.412443 
L 224.928 454.6779 
L 228.096 454.942127 
L 231.264 455.938806 
L 234.432 459.977128 
L 237.6 462.08401 
L 240.768 463.109655 
L 243.936 464.294876 
L 247.104 464.858023 
L 250.272 464.642567 
L 253.44 463.25212 
L 256.608 463.344675 
L 259.776 463.660808 
L 262.944 465.759629 
L 266.112 465.913479 
L 269.28 465.708668 
L 272.448 464.796873 
L 275.616 463.38705 
L 278.784 461.513599 
L 285.12 459.344705 
L 288.288 456.132932 
L 291.456 451.554277 
L 294.624 447.852735 
L 297.792 443.056598 
L 300.96 437.977356 
L 304.128 438.253966 
L 307.296 443.774955 
L 310.464 452.903375 
L 313.632 459.153045 
L 316.8 460.84836 
L 319.968 464.401365 
L 323.136 467.368011 
L 326.304 468.685827 
L 329.472 471.413634 
L 332.64 475.264133 
L 335.808 476.556723 
L 342.144 477.401797 
L 345.312 478.495152 
L 348.48 480.261856 
L 351.648 481.611972 
L 354.816 483.512481 
L 357.984 485.15374 
L 361.152 484.634558 
L 364.32 484.51497 
L 367.488 485.286245 
L 373.824 486.519854 
L 376.992 487.762321 
L 383.328 487.986916 
L 386.496 486.7862 
L 392.832 484.953528 
L 396 484.822238 
L 399.168 484.055943 
L 402.336 483.635449 
L 405.504 482.490593 
L 408.672 481.136221 
L 411.84 477.999985 
L 415.008 476.492933 
L 418.176 477.806335 
L 421.344 478.868953 
L 424.512 479.458204 
L 430.848 479.451583 
L 434.016 479.368207 
L 437.184 478.329729 
L 440.352 476.907327 
L 443.52 475.30625 
L 449.856 473.362241 
L 453.024 472.990704 
L 456.192 472.433222 
L 459.36 472.408476 
L 462.528 473.205539 
L 465.696 472.622399 
L 468.864 472.840953 
L 472.032 472.00423 
L 475.2 472.87413 
L 478.368 473.520064 
L 491.04 479.486061 
L 494.208 480.538909 
L 497.376 481.240674 
L 500.544 481.257508 
L 503.712 479.937325 
L 506.88 478.394164 
L 510.048 478.99966 
L 513.216 479.353295 
L 516.384 480.06121 
L 519.552 481.193187 
L 522.72 481.443343 
L 525.888 482.479322 
L 529.056 484.479565 
L 532.224 486.183846 
L 535.392 488.711611 
L 538.56 490.837191 
L 541.728 492.376666 
L 544.896 492.348418 
L 548.064 492.719026 
L 551.232 493.364986 
L 554.4 492.326145 
L 557.568 489.830778 
L 560.736 488.322032 
L 563.904 487.165208 
L 570.24 485.979699 
L 573.408 485.309537 
L 576.576 484.884759 
L 579.744 483.815398 
L 582.912 484.097116 
L 586.08 483.7433 
L 592.416 482.14788 
L 595.584 482.422444 
L 598.752 480.583208 
L 601.92 479.054485 
L 608.256 475.512582 
L 611.424 471.106369 
L 614.592 466.47976 
L 617.76 463.81174 
L 620.928 461.497882 
L 624.096 460.693836 
L 627.264 459.134346 
L 630.432 450.695531 
L 633.6 444.051382 
L 636.768 438.609073 
L 639.936 437.453057 
L 643.104 432.299088 
L 646.272 426.117259 
L 649.44 421.770536 
L 652.608 419.897323 
L 655.776 419.938411 
L 658.944 421.210731 
L 662.112 421.528527 
L 665.28 421.307978 
L 668.448 417.963476 
L 671.616 415.818352 
L 674.784 415.054092 
L 677.952 416.647176 
L 681.12 416.034395 
L 684.288 414.798114 
L 687.456 414.376305 
L 690.624 413.793284 
L 693.792 415.618635 
L 696.96 419.593951 
L 700.128 421.976879 
L 703.296 422.444277 
L 706.464 425.041988 
L 709.632 423.261796 
L 712.8 420.486243 
L 715.968 419.158272 
L 719.136 420.619676 
L 722.304 420.364379 
L 725.472 420.449742 
L 728.64 418.720353 
L 731.808 413.392678 
L 734.976 412.245511 
L 738.144 409.981969 
L 741.312 406.350837 
L 744.48 406.113463 
L 747.648 405.425852 
L 750.816 405.338922 
L 753.984 405.704544 
L 757.152 404.414105 
L 760.32 404.186405 
L 763.488 398.713644 
L 766.656 396.23537 
L 769.824 392.076662 
L 772.992 389.012358 
L 776.16 384.185491 
L 779.328 378.718277 
L 782.496 376.221639 
L 785.664 376.543829 
L 788.832 381.093784 
L 788.832 381.093784 
" clip-path="url(#p21f8adf13d)" style="fill: none; stroke: #000000; stroke-width: 1.5; stroke-linecap: square"/>
   </g>
   <g id="line2d_4">
    <path d="M 0 459 
L 9.504 459.015918 
L 12.672 459.501503 
L 15.84 461.94479 
L 19.008 463.463624 
L 25.344 464.285974 
L 31.68 466.195741 
L 34.848 466.786717 
L 38.016 467.036193 
L 44.352 466.981241 
L 47.52 467.215526 
L 50.688 467.570646 
L 57.024 467.305712 
L 60.192 468.244079 
L 66.528 470.355345 
L 72.864 473.088329 
L 76.032 473.957639 
L 79.2 474.624761 
L 82.368 475.728662 
L 85.536 475.532127 
L 95.04 474.172454 
L 98.208 472.241278 
L 110.88 465.954466 
L 114.048 464.604157 
L 117.216 463.507111 
L 120.384 461.943985 
L 123.552 460.721322 
L 126.72 459.373746 
L 133.056 454.664021 
L 139.392 450.545948 
L 142.56 449.304985 
L 145.728 448.53779 
L 148.896 447.192881 
L 152.064 446.149173 
L 155.232 446.31876 
L 158.4 446.1062 
L 161.568 447.552904 
L 167.904 449.771397 
L 171.072 450.279168 
L 174.24 451.038642 
L 177.408 451.458196 
L 180.576 451.274801 
L 186.912 444.267376 
L 190.08 440.492113 
L 193.248 436.324007 
L 196.416 433.679201 
L 199.584 437.023354 
L 202.752 439.700387 
L 205.92 444.141774 
L 212.256 449.24642 
L 215.424 452.096811 
L 218.592 453.970303 
L 221.76 455.02319 
L 224.928 452.839531 
L 228.096 453.284897 
L 231.264 454.095865 
L 234.432 457.636661 
L 237.6 459.914374 
L 247.104 462.511315 
L 250.272 462.770666 
L 253.44 462.315908 
L 259.776 462.825447 
L 262.944 464.100059 
L 266.112 464.450201 
L 269.28 464.573464 
L 272.448 464.260298 
L 275.616 463.576921 
L 278.784 462.529371 
L 285.12 460.987952 
L 288.288 460.032102 
L 291.456 458.695993 
L 294.624 455.59094 
L 297.792 451.790068 
L 300.96 447.649886 
L 304.128 446.265326 
L 307.296 447.994679 
L 310.464 452.292263 
L 313.632 455.969987 
L 316.8 459.098793 
L 323.136 463.415336 
L 326.304 464.764352 
L 329.472 466.869516 
L 332.64 469.68361 
L 335.808 471.26862 
L 338.976 472.360533 
L 342.144 473.296811 
L 345.312 474.534679 
L 348.48 476.11436 
L 351.648 477.497573 
L 357.984 480.757524 
L 364.32 481.656429 
L 370.656 483.324534 
L 373.824 484.065503 
L 376.992 485.138326 
L 383.328 486.067281 
L 392.832 485.006207 
L 396 484.94439 
L 399.168 484.530224 
L 402.336 484.249289 
L 405.504 483.551953 
L 408.672 482.666467 
L 411.84 480.731201 
L 415.008 479.490293 
L 424.512 480.164616 
L 434.016 479.847732 
L 437.184 479.209994 
L 440.352 478.300667 
L 443.52 477.212127 
L 449.856 475.529515 
L 456.192 474.356859 
L 459.36 474.030442 
L 462.528 474.197353 
L 465.696 473.715763 
L 468.864 473.656745 
L 472.032 473.068698 
L 478.368 473.633024 
L 481.536 474.409678 
L 484.704 475.317081 
L 494.208 478.285772 
L 497.376 479.017744 
L 500.544 479.373567 
L 503.712 478.949621 
L 506.88 478.263112 
L 516.384 479.327453 
L 519.552 480.054358 
L 522.72 480.364307 
L 525.888 481.095055 
L 532.224 483.655319 
L 538.56 487.111559 
L 541.728 488.54645 
L 544.896 489.147713 
L 551.232 490.676378 
L 554.4 490.542701 
L 557.568 489.47314 
L 563.904 488.027661 
L 570.24 487.102769 
L 576.576 486.142824 
L 579.744 485.370602 
L 582.912 485.283496 
L 586.08 484.911659 
L 592.416 483.658185 
L 595.584 483.572782 
L 605.088 479.952082 
L 608.256 478.589323 
L 611.424 475.708929 
L 614.592 472.466009 
L 617.76 470.066471 
L 620.928 467.814758 
L 624.096 466.374003 
L 627.264 464.622459 
L 630.432 462.167454 
L 633.6 460.015768 
L 636.768 456.200396 
L 639.936 452.742531 
L 643.104 447.472651 
L 646.272 441.670494 
L 649.44 436.789802 
L 652.608 433.33832 
L 655.776 431.187218 
L 658.944 430.065021 
L 665.28 427.453544 
L 668.448 424.60271 
L 671.616 422.324552 
L 674.784 420.826095 
L 677.952 420.721036 
L 681.12 419.679808 
L 684.288 418.360152 
L 690.624 416.628952 
L 693.792 417.106272 
L 696.96 418.95508 
L 700.128 420.289239 
L 703.296 420.753994 
L 706.464 422.38309 
L 709.632 421.795106 
L 712.8 420.495419 
L 715.968 419.755485 
L 719.136 420.426765 
L 722.304 420.294344 
L 725.472 420.323783 
L 728.64 419.386998 
L 731.808 416.375131 
L 734.976 415.266136 
L 738.144 413.546241 
L 741.312 410.98874 
L 744.48 410.120792 
L 747.648 409.119346 
L 750.816 408.493879 
L 753.984 408.195293 
L 757.152 407.103732 
L 760.32 406.548264 
L 763.488 403.188857 
L 766.656 401.123476 
L 769.824 398.087528 
L 772.992 395.464531 
L 776.16 391.807094 
L 779.328 387.60186 
L 782.496 384.811502 
L 785.664 383.615599 
L 788.832 384.963306 
L 788.832 384.963306 
" clip-path="url(#p21f8adf13d)" style="fill: none; stroke: #000000; stroke-width: 1.5; stroke-linecap: square"/>
   </g>
   <g id="line2d_5">
    <path d="M 0 459 
L 9.504 459.015101 
L 12.672 459.44775 
L 15.84 461.561406 
L 19.008 462.903293 
L 25.344 463.749653 
L 31.68 465.361265 
L 34.848 465.90112 
L 38.016 466.19097 
L 44.352 466.341771 
L 50.688 466.873234 
L 57.024 466.840274 
L 60.192 467.471988 
L 66.528 468.949215 
L 72.864 470.889593 
L 82.368 473.076163 
L 85.536 473.207389 
L 91.872 473.102958 
L 95.04 472.966877 
L 101.376 471.135027 
L 107.712 469.211586 
L 114.048 467.316639 
L 117.216 466.489175 
L 120.384 465.39011 
L 129.888 462.511025 
L 136.224 461.02376 
L 139.392 460.304913 
L 145.728 459.271998 
L 148.896 458.164908 
L 152.064 456.702365 
L 155.232 455.914896 
L 158.4 455.007321 
L 167.904 455.083956 
L 171.072 454.927639 
L 174.24 454.960199 
L 177.408 454.873579 
L 180.576 454.513217 
L 183.744 452.476585 
L 186.912 450.234176 
L 190.08 447.780285 
L 193.248 445.011605 
L 196.416 442.923492 
L 199.584 443.911246 
L 202.752 444.745166 
L 205.92 446.646142 
L 209.088 447.736995 
L 212.256 449.008503 
L 215.424 450.51205 
L 218.592 451.610356 
L 221.76 452.341338 
L 224.928 451.414088 
L 228.096 451.751612 
L 231.264 452.286448 
L 234.432 454.266917 
L 237.6 456.672978 
L 240.768 458.484502 
L 243.936 459.512051 
L 247.104 460.061729 
L 250.272 460.39525 
L 253.44 460.349849 
L 259.776 460.929058 
L 262.944 461.746404 
L 266.112 462.118762 
L 269.28 462.370825 
L 272.448 462.38322 
L 275.616 462.175242 
L 278.784 461.738237 
L 285.12 461.013938 
L 288.288 460.504496 
L 294.624 459.23605 
L 297.792 457.358445 
L 300.96 454.731356 
L 304.128 453.41602 
L 307.296 453.726005 
L 313.632 457.148317 
L 316.8 458.78986 
L 323.136 461.299051 
L 326.304 462.178015 
L 329.472 463.492631 
L 332.64 465.242736 
L 335.808 466.441816 
L 345.312 469.382645 
L 357.984 474.493716 
L 364.32 475.983015 
L 370.656 477.795446 
L 373.824 478.642656 
L 376.992 479.653077 
L 383.328 481.031172 
L 389.664 481.4764 
L 392.832 481.598129 
L 396 481.8514 
L 402.336 481.962493 
L 405.504 481.786905 
L 408.672 481.470352 
L 411.84 480.561744 
L 415.008 479.929827 
L 424.512 480.220534 
L 434.016 480.051575 
L 437.184 479.706816 
L 440.352 479.194811 
L 446.688 478.024355 
L 449.856 477.442933 
L 459.36 476.178773 
L 462.528 476.093692 
L 465.696 475.689432 
L 468.864 475.501607 
L 472.032 475.048978 
L 478.368 475.057705 
L 484.704 475.759516 
L 497.376 477.821821 
L 500.544 478.117215 
L 503.712 478.011621 
L 506.88 477.740283 
L 516.384 478.461658 
L 519.552 478.917929 
L 522.72 479.176701 
L 525.888 479.658552 
L 532.224 481.277237 
L 541.728 484.570846 
L 548.064 485.910166 
L 551.232 486.657297 
L 554.4 486.917034 
L 560.736 486.487835 
L 567.072 486.223983 
L 576.576 485.708304 
L 579.744 485.336466 
L 582.912 485.29071 
L 586.08 485.093536 
L 592.416 484.384996 
L 595.584 484.280201 
L 601.92 482.927696 
L 608.256 481.203096 
L 611.424 479.484433 
L 614.592 477.482581 
L 620.928 474.166423 
L 624.096 472.887871 
L 627.264 471.434871 
L 633.6 467.856866 
L 636.768 466.194469 
L 639.936 464.925109 
L 649.44 460.123308 
L 652.608 458.463371 
L 655.776 455.26723 
L 662.112 450.150915 
L 665.28 447.68758 
L 668.448 444.525657 
L 671.616 441.685821 
L 674.784 439.303413 
L 677.952 437.720172 
L 684.288 433.743335 
L 690.624 430.351381 
L 693.792 429.457748 
L 696.96 429.398817 
L 700.128 429.222311 
L 703.296 428.717372 
L 706.464 428.903689 
L 709.632 428.051513 
L 712.8 426.833138 
L 715.968 425.895798 
L 719.136 425.712973 
L 722.304 425.177631 
L 725.472 424.764931 
L 728.64 423.878065 
L 731.808 421.892394 
L 734.976 420.814162 
L 738.144 419.408726 
L 741.312 417.540675 
L 750.816 414.495707 
L 753.984 413.792139 
L 757.152 412.714019 
L 760.32 411.922302 
L 763.488 409.681824 
L 766.656 408.02441 
L 769.824 405.819944 
L 772.992 403.762703 
L 776.16 401.116655 
L 779.328 398.099116 
L 782.496 395.724261 
L 785.664 394.147615 
L 788.832 393.9407 
L 788.832 393.9407 
" clip-path="url(#p21f8adf13d)" style="fill: none; stroke: #000000; stroke-width: 1.5; stroke-linecap: square"/>
   </g>
   <g id="line2d_6">
    <path d="M 0 459 
L 9.504 459.014689 
L 12.672 459.421655 
L 15.84 461.376488 
L 19.008 462.624787 
L 25.344 463.456499 
L 31.68 464.907543 
L 34.848 465.405298 
L 38.016 465.693254 
L 44.352 465.904903 
L 50.688 466.391543 
L 57.024 466.440568 
L 63.36 467.523385 
L 66.528 468.089799 
L 72.864 469.586766 
L 82.368 471.355347 
L 85.536 471.548998 
L 91.872 471.672161 
L 95.04 471.667093 
L 110.88 468.831041 
L 120.384 466.934376 
L 133.056 464.335326 
L 142.56 462.751663 
L 155.232 461.128615 
L 158.4 460.805177 
L 180.576 459.816661 
L 183.744 459.335027 
L 186.912 458.42428 
L 190.08 456.701807 
L 193.248 454.778446 
L 196.416 453.193482 
L 202.752 453.295308 
L 205.92 453.941686 
L 209.088 454.204796 
L 212.256 454.601438 
L 215.424 455.16143 
L 218.592 455.548848 
L 221.76 455.770294 
L 224.928 455.127636 
L 228.096 455.147416 
L 231.264 455.287627 
L 234.432 456.21245 
L 237.6 457.406564 
L 240.768 458.336733 
L 243.936 459.143244 
L 250.272 459.653932 
L 253.44 459.664052 
L 259.776 460.033836 
L 262.944 460.502541 
L 269.28 460.94675 
L 272.448 461.017858 
L 275.616 460.9718 
L 288.288 460.261937 
L 297.792 459.196119 
L 300.96 458.135103 
L 304.128 457.310874 
L 307.296 457.305228 
L 313.632 458.807917 
L 316.8 459.194187 
L 329.472 461.634055 
L 332.64 462.611976 
L 338.976 463.9705 
L 345.312 465.28264 
L 354.816 467.796123 
L 357.984 468.701707 
L 364.32 469.958193 
L 380.16 473.551869 
L 383.328 474.174233 
L 392.832 475.301899 
L 396 475.693256 
L 402.336 476.254334 
L 408.672 476.470509 
L 411.84 476.218384 
L 415.008 476.079946 
L 427.68 476.829373 
L 434.016 477.036571 
L 440.352 476.840723 
L 456.192 475.816215 
L 459.36 475.671053 
L 462.528 475.648746 
L 472.032 475.14556 
L 478.368 475.136065 
L 484.704 475.487454 
L 500.544 476.832582 
L 510.048 476.90024 
L 516.384 477.245753 
L 525.888 478.036246 
L 532.224 479.021441 
L 541.728 481.060833 
L 554.4 482.917899 
L 567.072 483.193333 
L 576.576 483.303444 
L 579.744 483.22093 
L 586.08 483.281704 
L 595.584 483.082547 
L 601.92 482.489546 
L 608.256 481.63535 
L 611.424 480.741747 
L 614.592 479.667702 
L 620.928 477.763029 
L 627.264 476.04953 
L 636.768 472.710239 
L 639.936 471.787414 
L 652.608 467.386748 
L 658.944 465.673904 
L 668.448 463.164812 
L 674.784 461.510395 
L 681.12 460.14679 
L 684.288 459.427631 
L 687.456 458.282058 
L 690.624 456.326587 
L 693.792 454.779444 
L 700.128 452.582392 
L 703.296 451.347137 
L 706.464 450.496078 
L 709.632 449.153261 
L 712.8 447.643148 
L 715.968 446.286328 
L 719.136 445.335053 
L 728.64 441.985935 
L 731.808 440.206386 
L 734.976 438.880954 
L 738.144 437.396861 
L 741.312 435.681229 
L 750.816 431.856687 
L 753.984 430.762393 
L 757.152 429.4895 
L 760.32 428.367399 
L 763.488 426.51445 
L 766.656 424.946926 
L 772.992 421.298905 
L 776.16 419.188396 
L 779.328 416.862317 
L 782.496 414.83418 
L 785.664 413.205288 
L 788.832 412.284256 
L 788.832 412.284256 
" clip-path="url(#p21f8adf13d)" style="fill: none; stroke: #000000; stroke-width: 1.5; stroke-linecap: square"/>
   </g>
   <g id="line2d_7">
    <path d="M 0 459 
L 9.504 459.014483 
L 12.672 459.408838 
L 15.84 461.286104 
L 19.008 462.486922 
L 25.344 463.305365 
L 31.68 464.674542 
L 34.848 465.147902 
L 38.016 465.42976 
L 44.352 465.660084 
L 50.688 466.119137 
L 57.024 466.197024 
L 63.36 467.136889 
L 66.528 467.627473 
L 76.032 469.411294 
L 79.2 469.856328 
L 82.368 470.435065 
L 88.704 470.739153 
L 95.04 470.846794 
L 110.88 468.819689 
L 123.552 466.922367 
L 129.888 465.895334 
L 142.56 464.208697 
L 158.4 462.607481 
L 180.576 461.567095 
L 190.08 460.377801 
L 196.416 459.500833 
L 202.752 459.384868 
L 209.088 459.450166 
L 221.76 459.565397 
L 224.928 459.389049 
L 231.264 459.331968 
L 240.768 459.835087 
L 247.104 460.1867 
L 250.272 460.288961 
L 256.608 460.363515 
L 259.776 460.467734 
L 262.944 460.732724 
L 269.28 460.984327 
L 275.616 460.9979 
L 291.456 460.384599 
L 297.792 459.932315 
L 300.96 459.638123 
L 304.128 459.459218 
L 307.296 459.433192 
L 316.8 459.798745 
L 329.472 461.146061 
L 332.64 461.702811 
L 351.648 464.299983 
L 357.984 465.422394 
L 367.488 466.753627 
L 383.328 469.159402 
L 396 470.450295 
L 405.504 471.19293 
L 408.672 471.346238 
L 415.008 471.362252 
L 430.848 472.347338 
L 437.184 472.577814 
L 446.688 472.56362 
L 459.36 472.485667 
L 465.696 472.514843 
L 481.536 472.72455 
L 491.04 473.304912 
L 500.544 473.895303 
L 513.216 474.250316 
L 525.888 475.010644 
L 532.224 475.652765 
L 544.896 477.274231 
L 554.4 478.267765 
L 586.08 479.380107 
L 598.752 479.443752 
L 605.088 479.216225 
L 608.256 479.046072 
L 614.592 478.138755 
L 627.264 476.355683 
L 662.112 469.997999 
L 668.448 468.902592 
L 674.784 467.806866 
L 696.96 464.591914 
L 712.8 462.766812 
L 722.304 461.701293 
L 728.64 460.994766 
L 734.976 460.139405 
L 741.312 459.262595 
L 744.48 458.614156 
L 750.816 456.29739 
L 760.32 452.965896 
L 763.488 451.503059 
L 766.656 450.175351 
L 772.992 447.241088 
L 785.664 440.854123 
L 788.832 439.79826 
L 788.832 439.79826 
" clip-path="url(#p21f8adf13d)" style="fill: none; stroke: #000000; stroke-width: 1.5; stroke-linecap: square"/>
   </g>
   <g id="line2d_8">
    <path d="M 0 459 
L 9.504 459.01438 
L 12.672 459.402492 
L 15.84 461.241475 
L 19.008 462.418457 
L 25.344 463.228903 
L 31.68 464.55696 
L 34.848 465.017435 
L 38.016 465.295082 
L 47.52 465.733922 
L 50.688 465.975905 
L 57.024 466.065045 
L 63.36 466.936504 
L 66.528 467.390185 
L 76.032 469.028803 
L 79.2 469.440551 
L 82.368 469.96927 
L 88.704 470.274958 
L 95.04 470.404684 
L 110.88 468.729128 
L 123.552 467.138023 
L 129.888 466.272987 
L 142.56 464.840695 
L 158.4 463.459539 
L 180.576 462.494769 
L 190.08 461.51362 
L 196.416 460.79394 
L 205.92 460.676775 
L 234.432 460.48672 
L 247.104 460.930064 
L 275.616 461.409011 
L 291.456 460.945467 
L 307.296 460.237928 
L 316.8 460.447555 
L 329.472 461.317183 
L 335.808 461.966589 
L 345.312 462.757701 
L 386.496 467.047708 
L 402.336 468.181943 
L 408.672 468.485058 
L 415.008 468.575809 
L 434.016 469.525691 
L 443.52 469.692644 
L 478.368 470.102098 
L 491.04 470.663037 
L 500.544 471.120551 
L 513.216 471.474397 
L 525.888 472.067656 
L 535.392 472.805279 
L 548.064 473.888331 
L 554.4 474.352757 
L 589.248 475.552536 
L 601.92 475.708108 
L 608.256 475.621027 
L 617.76 474.973278 
L 633.6 473.703757 
L 693.792 467.842219 
L 719.136 465.947375 
L 734.976 464.664592 
L 772.992 461.197304 
L 788.832 459.487827 
L 788.832 459.487827 
" clip-path="url(#p21f8adf13d)" style="fill: none; stroke: #000000; stroke-width: 1.5; stroke-linecap: square"/>
   </g>
   <g id="line2d_9">
    <path d="M 0 459 
L 9.504 459.014329 
L 12.672 459.399334 
L 15.84 461.219307 
L 19.008 462.384355 
L 25.344 463.190481 
L 31.68 464.497959 
L 34.848 464.951841 
L 38.016 465.227112 
L 47.52 465.66567 
L 50.688 465.902679 
L 57.024 465.996659 
L 63.36 466.834763 
L 66.528 467.270335 
L 76.032 468.837515 
L 85.536 469.925623 
L 95.04 470.177622 
L 110.88 468.663026 
L 123.552 467.21626 
L 133.056 466.083041 
L 145.728 464.854887 
L 155.232 464.077213 
L 161.568 463.720617 
L 183.744 462.676901 
L 196.416 461.429314 
L 205.92 461.293792 
L 234.432 461.042126 
L 250.272 461.420763 
L 256.608 461.430094 
L 262.944 461.613778 
L 272.448 461.746301 
L 281.952 461.600444 
L 291.456 461.322545 
L 307.296 460.726245 
L 316.8 460.87453 
L 329.472 461.542652 
L 335.808 462.047598 
L 348.48 462.925688 
L 389.664 466.237086 
L 405.504 467.098999 
L 411.84 467.250017 
L 418.176 467.454837 
L 434.016 468.100277 
L 443.52 468.267321 
L 481.536 468.812029 
L 529.056 470.508011 
L 538.56 471.127801 
L 551.232 471.93727 
L 560.736 472.306339 
L 589.248 473.144893 
L 601.92 473.332399 
L 608.256 473.312767 
L 624.096 472.67547 
L 633.6 472.152265 
L 703.296 467.888727 
L 715.968 467.223089 
L 731.808 466.375541 
L 763.488 464.468697 
L 776.16 463.550887 
L 785.664 462.805492 
L 788.832 462.614117 
L 788.832 462.614117 
" clip-path="url(#p21f8adf13d)" style="fill: none; stroke: #000000; stroke-width: 1.5; stroke-linecap: square"/>
   </g>
  </g>
 </g>
 <defs>
  <clipPath id="p21f8adf13d">
   <rect x="0" y="0" width="792" height="612"/>
  </clipPath>
 </defs>
</svg>
