<?xml version="1.0" encoding="utf-8" standalone="no"?>
<!DOCTYPE svg PUBLIC "-//W3C//DTD SVG 1.1//EN"
  "http://www.w3.org/Graphics/SVG/1.1/DTD/svg11.dtd">
<svg xmlns:xlink="http://www.w3.org/1999/xlink" width="792pt" height="612pt" viewBox="0 0 792 612" xmlns="http://www.w3.org/2000/svg" version="1.1">
 <metadata>
  <rdf:RDF xmlns:dc="http://purl.org/dc/elements/1.1/" xmlns:cc="http://creativecommons.org/ns#" xmlns:rdf="http://www.w3.org/1999/02/22-rdf-syntax-ns#">
   <cc:Work>
    <dc:type rdf:resource="http://purl.org/dc/dcmitype/StillImage"/>
    <dc:date>2022-12-19T20:28:33.730530</dc:date>
    <dc:format>image/svg+xml</dc:format>
    <dc:creator>
     <cc:Agent>
      <dc:title>Matplotlib v3.6.2, https://matplotlib.org/</dc:title>
     </cc:Agent>
    </dc:creator>
   </cc:Work>
  </rdf:RDF>
 </metadata>
 <defs>
  <style type="text/css">*{stroke-linejoin: round; stroke-linecap: butt}</style>
 </defs>
 <g id="figure_1">
  <g id="patch_1">
   <path d="M 0 612 
L 792 612 
L 792 0 
L 0 0 
z
" style="fill: #ffffff"/>
  </g>
  <g id="axes_1">
   <g id="line2d_1">
    <path d="M 0 459 
L 3.155378 458.11051 
L 6.310757 456.035072 
L 9.466135 447.780968 
L 12.621514 458.726311 
L 15.776892 463.401839 
L 18.932271 461.23513 
L 22.087649 456.947343 
L 25.243028 447.712587 
L 28.398406 447.30231 
L 31.553785 446.755303 
L 34.709163 445.137286 
L 37.864542 447.986115 
L 41.01992 446.481813 
L 44.175299 445.889282 
L 47.330677 420.704288 
L 50.486056 416.924661 
L 56.796813 406.905132 
L 59.952191 412.654076 
L 63.10757 416.472386 
L 66.262948 410.939043 
L 69.418327 400.589213 
L 72.573705 396.241689 
L 75.729084 394.161578 
L 78.884462 412.608926 
L 82.039841 423.990267 
L 85.195219 429.754901 
L 88.350598 429.209786 
L 94.661355 429.300632 
L 97.816733 434.118675 
L 100.972112 459.068422 
L 104.12749 458.29297 
L 107.282869 449.650238 
L 110.438247 450.584993 
L 113.593625 459.501764 
L 116.749004 461.159106 
L 119.904382 460.087155 
L 123.059761 458.429814 
L 126.215139 453.640492 
L 129.370518 454.849157 
L 132.525896 459.007602 
L 135.681275 460.033938 
L 138.836653 454.073779 
L 141.992032 453.549275 
L 145.14741 463.949217 
L 148.302789 466.070311 
L 151.458167 466.632894 
L 154.613546 470.084422 
L 157.768924 471.589714 
L 160.924303 469.787925 
L 164.079681 469.392596 
L 167.23506 473.003776 
L 170.390438 465.568547 
L 173.545817 463.86559 
L 176.701195 463.249789 
L 179.856574 462.45913 
L 183.011952 439.056044 
L 186.167331 439.556884 
L 189.322709 434.982899 
L 192.478088 428.074402 
L 195.633466 426.68975 
L 198.788845 424.375763 
L 201.944223 425.237636 
L 205.099602 412.51863 
L 208.25498 414.302642 
L 211.410359 407.986079 
L 214.565737 410.239877 
L 217.721116 411.457925 
L 220.876494 411.367676 
L 224.031873 408.774631 
L 227.187251 412.180052 
L 230.342629 414.008975 
L 233.498008 409.405689 
L 236.653386 409.991841 
L 239.808765 416.87943 
L 242.964143 414.528565 
L 246.119522 425.373743 
L 249.2749 424.942757 
L 252.430279 425.645976 
L 255.585657 423.083415 
L 258.741036 425.305689 
L 261.896414 423.831548 
L 265.051793 420.273997 
L 268.207171 398.772667 
L 271.36255 394.04982 
L 274.517928 389.051326 
L 277.673307 382.561021 
L 280.828685 388.138222 
L 283.984064 424.738627 
L 287.139442 423.831548 
L 290.294821 438.373157 
L 293.450199 430.050206 
L 296.605578 433.504728 
L 299.760956 437.826913 
L 306.071713 430.822656 
L 309.227092 410.510495 
L 312.38247 425.577915 
L 315.537849 428.483097 
L 318.693227 447.507446 
L 321.848606 455.031602 
L 325.003984 449.969414 
L 328.159363 454.940379 
L 331.314741 451.975853 
L 334.47012 445.456305 
L 337.625498 432.027088 
L 340.780876 443.747432 
L 343.936255 446.436232 
L 347.091633 461.607652 
L 350.247012 452.386296 
L 353.40239 448.966319 
L 359.713147 432.254381 
L 362.868526 422.83408 
L 366.023904 425.759413 
L 369.179283 421.859613 
L 372.334661 416.35933 
L 375.49004 409.811469 
L 378.645418 408.166292 
L 381.800797 400.364846 
L 384.956175 394.318052 
L 388.111554 408.076184 
L 394.422311 446.162752 
L 397.577689 446.595766 
L 400.733068 448.168471 
L 403.888446 463.911205 
L 407.043825 465.545739 
L 410.199203 462.710012 
L 413.354582 469.202534 
L 416.50996 476.16641 
L 419.665339 470.981516 
L 422.820717 469.384994 
L 425.976096 469.499031 
L 429.131474 472.509615 
L 432.286853 476.097988 
L 435.442231 476.455304 
L 438.59761 479.89923 
L 441.752988 481.00159 
L 444.908367 474.94241 
L 448.063745 475.839503 
L 451.219124 478.941317 
L 457.52988 479.815602 
L 460.685259 482.803379 
L 463.840637 480.188124 
L 466.996016 480.104497 
L 470.151394 475.543006 
L 473.306773 475.178087 
L 476.462151 474.402634 
L 479.61753 476.204422 
L 482.772908 473.77923 
L 485.928287 474.220174 
L 489.083665 471.163975 
L 492.239044 469.194932 
L 495.394422 461.280745 
L 498.549801 463.857988 
L 501.705179 472.486807 
L 504.860558 472.973366 
L 508.015936 472.387975 
L 511.171315 471.05754 
L 514.326693 470.738236 
L 517.482072 470.570981 
L 520.63745 467.005416 
L 523.792829 464.511801 
L 526.948207 462.352696 
L 530.103586 463.029317 
L 533.258964 461.835727 
L 536.414343 463.044522 
L 539.569721 461.964969 
L 542.7251 463.295404 
L 545.880478 466.214758 
L 549.035857 462.071404 
L 552.191235 464.390161 
L 555.346614 460.801789 
L 558.501992 466.093118 
L 561.657371 466.199553 
L 564.812749 469.879155 
L 571.123506 473.300273 
L 574.278884 474.524273 
L 577.434263 474.653516 
L 580.589641 474.501466 
L 583.74502 472.760497 
L 586.900398 467.940522 
L 590.055777 465.728199 
L 593.211155 471.878609 
L 596.366534 471.620124 
L 599.521912 473.262261 
L 602.677291 475.558211 
L 605.832669 473.551155 
L 608.988048 476.683379 
L 612.143426 481.27528 
L 615.298805 482.339627 
L 618.454183 487.136795 
L 621.609562 488.368398 
L 624.76494 488.505242 
L 627.920319 484.46072 
L 634.231076 487.258435 
L 637.386454 481.822658 
L 640.541833 475.436571 
L 643.697211 476.386882 
L 646.85259 476.059975 
L 650.007968 477.017888 
L 656.318725 475.345342 
L 659.474104 475.535404 
L 662.629482 472.768099 
L 665.784861 476.531329 
L 672.095618 472.456398 
L 675.250996 471.802584 
L 678.406375 474.744745 
L 681.561753 467.38554 
L 684.717131 466.564472 
L 687.87251 463.873193 
L 691.027888 462.261466 
L 694.183267 434.186897 
L 697.338645 417.852081 
L 700.494024 424.375763 
L 703.649402 419.75321 
L 706.804781 428.732879 
L 709.960159 418.03308 
L 713.115538 398.68301 
L 716.270916 396.980429 
L 719.426295 394.295698 
L 722.581673 403.868146 
L 725.737052 388.405413 
L 728.89243 379.438052 
L 732.047809 379.41593 
L 735.203187 383.648031 
L 738.358566 388.472218 
L 741.513944 392.888007 
L 744.669323 390.678496 
L 747.824701 389.029048 
L 750.98008 377.735781 
L 754.135458 378.487152 
L 757.290837 381.186885 
L 760.446215 388.73947 
L 763.601594 382.472325 
L 766.756972 379.615042 
L 769.912351 381.209038 
L 773.067729 380.234697 
L 776.223108 388.138222 
L 779.378486 397.697097 
L 782.533865 396.152167 
L 785.689243 391.816332 
L 788.844622 399.938628 
L 788.844622 399.938628 
" clip-path="url(#p9841465ffd)" style="fill: none; stroke: #000000; stroke-width: 1.5; stroke-linecap: square"/>
   </g>
   <g id="line2d_2">
    <path d="M 0 459 
L 3.155378 459 
L 6.310757 458.407007 
L 9.466135 457.051604 
L 12.621514 452.106585 
L 15.776892 455.523033 
L 18.932271 460.665547 
L 22.087649 460.952581 
L 25.243028 459.629009 
L 28.398406 454.276698 
L 31.553785 450.767839 
L 34.709163 448.743184 
L 37.864542 446.934864 
L 41.01992 447.439424 
L 47.330677 446.36089 
L 50.486056 433.4416 
L 53.641434 425.111853 
L 56.796813 418.410204 
L 59.952191 412.572542 
L 63.10757 412.549968 
L 66.262948 414.448913 
L 69.418327 412.623976 
L 72.573705 406.509196 
L 75.729084 401.320317 
L 78.884462 397.692704 
L 82.039841 405.137851 
L 85.195219 414.578625 
L 88.350598 422.190175 
L 91.505976 425.723023 
L 94.661355 427.524656 
L 97.816733 428.469117 
L 100.972112 431.367566 
L 104.12749 445.402062 
L 107.282869 451.935971 
L 110.438247 450.843482 
L 113.593625 450.755143 
L 116.749004 455.691277 
L 119.904382 459.551791 
L 123.059761 459.841043 
L 126.215139 459.341396 
L 129.370518 456.821323 
L 132.525896 455.828473 
L 135.681275 457.444001 
L 138.836653 459.265163 
L 141.992032 456.921942 
L 145.14741 455.21217 
L 148.302789 460.850862 
L 151.458167 463.474822 
L 154.613546 465.072328 
L 157.768924 467.602822 
L 160.924303 469.620939 
L 164.079681 469.723558 
L 167.23506 469.581675 
L 170.390438 471.323747 
L 173.545817 468.449322 
L 176.701195 466.153133 
L 179.856574 464.694827 
L 183.011952 463.562027 
L 186.167331 455.751647 
L 189.322709 447.549189 
L 192.478088 441.15461 
L 195.633466 434.466841 
L 198.788845 430.474544 
L 201.944223 427.327571 
L 205.099602 426.191579 
L 208.25498 419.235277 
L 211.410359 416.719353 
L 214.565737 412.286798 
L 217.721116 411.214792 
L 224.031873 411.305831 
L 227.187251 410.009349 
L 230.342629 411.068907 
L 233.498008 412.541381 
L 236.653386 410.96337 
L 239.808765 410.481486 
L 242.964143 413.691255 
L 246.119522 414.115896 
L 249.2749 419.766351 
L 252.430279 422.385153 
L 255.585657 424.041574 
L 258.741036 423.580282 
L 261.896414 424.474123 
L 265.051793 424.180029 
L 268.207171 422.233008 
L 271.36255 410.439831 
L 274.517928 402.165237 
L 280.828685 388.945008 
L 283.984064 388.473703 
L 287.139442 406.522084 
L 290.294821 415.161086 
L 293.450199 426.781864 
L 296.605578 428.477309 
L 299.760956 431.068057 
L 302.916335 434.54256 
L 306.071713 434.54693 
L 309.227092 432.768826 
L 312.38247 421.589595 
L 315.537849 423.586505 
L 318.693227 426.014505 
L 321.848606 436.78297 
L 325.003984 445.944333 
L 328.159363 447.980483 
L 331.314741 451.500414 
L 334.47012 451.779666 
L 337.625498 448.686328 
L 340.780876 440.363236 
L 343.936255 442.08507 
L 347.091633 444.25822 
L 350.247012 455.561237 
L 353.40239 453.978446 
L 356.557769 451.460445 
L 359.713147 446.019671 
L 362.868526 439.106661 
L 366.023904 430.943483 
L 369.179283 428.31525 
L 372.334661 425.037667 
L 375.49004 420.596554 
L 378.645418 415.114824 
L 381.800797 411.558266 
L 388.111554 400.013132 
L 391.266932 404.011573 
L 394.422311 415.620563 
L 397.577689 430.908019 
L 400.733068 438.805374 
L 403.888446 443.560798 
L 407.043825 458.773267 
L 410.199203 462.28645 
L 413.354582 462.548065 
L 416.50996 465.928725 
L 419.665339 471.101993 
L 422.820717 471.07364 
L 425.976096 470.257789 
L 429.131474 469.906077 
L 432.286853 471.224706 
L 435.442231 473.682037 
L 438.59761 475.095622 
L 441.752988 477.5184 
L 444.908367 479.269476 
L 448.063745 477.113709 
L 451.219124 476.489262 
L 454.374502 477.733804 
L 457.52988 478.552427 
L 460.685259 479.191304 
L 463.840637 481.009789 
L 466.996016 480.599523 
L 470.151394 480.350251 
L 473.306773 477.947806 
L 476.462151 476.56165 
L 479.61753 475.473242 
L 482.772908 475.832676 
L 485.928287 474.794117 
L 489.083665 474.490316 
L 492.239044 472.809451 
L 495.394422 470.9808 
L 498.549801 466.102807 
L 501.705179 464.958201 
L 504.860558 468.718748 
L 508.015936 470.839722 
L 511.171315 471.61112 
L 520.63745 470.804363 
L 523.792829 468.916114 
L 530.103586 464.514097 
L 533.258964 463.752209 
L 536.414343 462.773277 
L 539.569721 462.893188 
L 542.7251 462.411876 
L 545.880478 462.839374 
L 549.035857 464.525516 
L 552.191235 463.293675 
L 555.346614 463.845913 
L 558.501992 462.319483 
L 561.657371 464.214648 
L 564.812749 465.213287 
L 567.968127 467.561739 
L 571.123506 469.584358 
L 574.278884 471.456209 
L 577.434263 473.014658 
L 580.589641 473.854211 
L 583.74502 474.204701 
L 586.900398 473.495672 
L 590.055777 470.721511 
L 593.211155 468.216716 
L 596.366534 470.048258 
L 599.521912 470.830897 
L 602.677291 472.044104 
L 605.832669 473.802932 
L 608.988048 473.67518 
L 612.143426 475.186971 
L 615.298805 478.257272 
L 618.454183 480.331021 
L 621.609562 483.763826 
L 624.76494 486.098952 
L 627.920319 487.331985 
L 631.075697 485.913809 
L 634.231076 485.91846 
L 637.386454 486.609183 
L 640.541833 484.216994 
L 643.697211 479.813247 
L 646.85259 478.078986 
L 650.007968 477.045347 
L 653.163347 477.009093 
L 656.318725 476.571488 
L 659.474104 475.937769 
L 662.629482 475.7136 
L 665.784861 474.223096 
L 668.940239 475.379359 
L 672.095618 474.959612 
L 675.250996 473.700939 
L 678.406375 472.741535 
L 681.561753 473.740353 
L 684.717131 470.547339 
L 687.87251 468.538316 
L 691.027888 466.188313 
L 694.183267 464.196909 
L 697.338645 454.236723 
L 700.494024 435.848543 
L 703.649402 429.964863 
L 706.804781 424.685973 
L 709.960159 426.600575 
L 713.115538 422.189375 
L 716.270916 410.258006 
L 719.426295 403.467985 
L 722.581673 398.798071 
L 725.737052 401.304032 
L 728.89243 394.771694 
L 732.047809 387.005829 
L 735.203187 383.110028 
L 738.358566 383.312309 
L 741.513944 385.869975 
L 744.669323 389.366831 
L 747.824701 390.015438 
L 750.98008 389.493191 
L 754.135458 383.580845 
L 757.290837 381.029659 
L 760.446215 381.111745 
L 763.601594 384.93033 
L 766.756972 383.689023 
L 769.912351 381.624525 
L 773.067729 381.398258 
L 776.223108 380.799153 
L 779.378486 384.484215 
L 782.533865 391.114019 
L 785.689243 393.660526 
L 788.844622 392.744199 
L 788.844622 392.744199 
" clip-path="url(#p9841465ffd)" style="fill: none; stroke: #000000; stroke-width: 1.5; stroke-linecap: square"/>
   </g>
   <g id="line2d_3">
    <path d="M 0 459 
L 3.155378 459 
L 6.310757 458.478949 
L 9.466135 457.371661 
L 12.621514 453.625631 
L 15.776892 455.440306 
L 18.932271 459.684054 
L 22.087649 460.182402 
L 25.243028 459.599232 
L 31.553785 453.919002 
L 34.709163 451.772973 
L 37.864542 449.798134 
L 41.01992 449.261444 
L 47.330677 447.689262 
L 50.486056 439.738015 
L 53.641434 432.992863 
L 56.796813 426.735819 
L 59.952191 420.855319 
L 63.10757 418.410241 
L 66.262948 417.794221 
L 69.418327 415.714378 
L 75.729084 406.736454 
L 78.884462 402.983152 
L 82.039841 405.758203 
L 88.350598 416.502374 
L 91.505976 420.196918 
L 94.661355 422.827492 
L 97.816733 424.703058 
L 100.972112 427.473591 
L 104.12749 436.798467 
L 107.282869 443.141635 
L 110.438247 445.096725 
L 113.593625 446.747577 
L 116.749004 450.82664 
L 119.904382 455.180047 
L 123.059761 457.325294 
L 126.215139 457.720682 
L 129.370518 456.594389 
L 132.525896 456.131911 
L 135.681275 457.018937 
L 138.836653 458.544868 
L 141.992032 457.263876 
L 145.14741 456.2038 
L 148.302789 459.807585 
L 151.458167 461.659551 
L 154.613546 463.124898 
L 157.768924 465.176298 
L 160.924303 467.072785 
L 164.079681 467.883644 
L 167.23506 468.336967 
L 170.390438 469.717448 
L 173.545817 468.508559 
L 176.701195 467.154472 
L 183.011952 464.981017 
L 186.167331 461.273192 
L 189.322709 458.098094 
L 195.633466 444.458784 
L 198.788845 439.193315 
L 201.944223 434.783649 
L 205.099602 431.920213 
L 208.25498 426.133112 
L 211.410359 422.568496 
L 214.565737 418.193134 
L 217.721116 415.769687 
L 220.876494 414.403882 
L 224.031873 413.437398 
L 227.187251 411.996773 
L 230.342629 411.982562 
L 233.498008 412.512787 
L 236.653386 411.568381 
L 239.808765 411.072716 
L 242.964143 412.75125 
L 246.119522 413.256161 
L 249.2749 416.79792 
L 252.430279 419.181597 
L 255.585657 421.073907 
L 258.741036 421.674483 
L 261.896414 422.750224 
L 265.051793 423.085147 
L 268.207171 422.273047 
L 271.36255 415.349543 
L 274.517928 409.067114 
L 280.828685 397.063953 
L 283.984064 394.414795 
L 287.139442 403.266824 
L 290.294821 409.286261 
L 293.450199 417.799113 
L 302.916335 428.731645 
L 306.071713 430.385205 
L 309.227092 430.522225 
L 312.38247 424.629165 
L 315.537849 424.909023 
L 318.693227 425.964868 
L 321.848606 432.319865 
L 325.003984 439.033814 
L 328.159363 442.305488 
L 331.314741 446.088289 
L 334.47012 447.886299 
L 337.625498 447.198349 
L 340.780876 442.760076 
L 343.936255 443.055425 
L 347.091633 444.064319 
L 350.247012 450.765623 
L 353.40239 451.257023 
L 356.557769 450.602859 
L 359.713147 447.691042 
L 362.868526 443.190651 
L 366.023904 437.215133 
L 369.179283 433.853235 
L 372.334661 430.306641 
L 375.49004 426.170555 
L 378.645418 421.322476 
L 381.800797 417.408148 
L 384.956175 412.343091 
L 388.111554 406.987548 
L 391.266932 407.278977 
L 394.422311 413.101234 
L 397.577689 422.750249 
L 400.733068 429.696735 
L 403.888446 435.094975 
L 407.043825 446.428257 
L 410.199203 455.903536 
L 413.354582 459.371296 
L 416.50996 462.276393 
L 419.665339 466.377151 
L 422.820717 467.753751 
L 429.131474 468.65375 
L 432.286853 469.818166 
L 435.442231 471.699695 
L 438.59761 473.13756 
L 441.752988 475.16159 
L 444.908367 476.909521 
L 448.063745 476.356596 
L 451.219124 476.229235 
L 454.374502 477.050638 
L 460.685259 478.364424 
L 463.840637 479.687643 
L 470.151394 479.926835 
L 473.306773 478.648081 
L 479.61753 476.696296 
L 482.772908 476.556474 
L 485.928287 475.740374 
L 489.083665 475.292551 
L 492.239044 474.073286 
L 495.394422 472.630888 
L 498.549801 469.290816 
L 501.705179 467.685816 
L 504.860558 469.08458 
L 508.015936 470.216261 
L 511.171315 470.84381 
L 517.482072 470.836759 
L 520.63745 470.747965 
L 523.792829 469.641991 
L 526.948207 468.127142 
L 530.103586 466.422005 
L 536.414343 464.351648 
L 539.569721 463.955963 
L 542.7251 463.362248 
L 545.880478 463.335894 
L 549.035857 464.184761 
L 552.191235 463.563721 
L 555.346614 463.79648 
L 558.501992 462.905375 
L 561.657371 463.831813 
L 564.812749 464.519728 
L 577.434263 470.873478 
L 580.589641 471.994754 
L 583.74502 472.74213 
L 586.900398 472.760058 
L 590.055777 471.354072 
L 593.211155 469.710614 
L 596.366534 470.355464 
L 599.521912 470.732083 
L 602.677291 471.486009 
L 605.832669 472.691557 
L 608.988048 472.957971 
L 612.143426 474.061282 
L 615.298805 476.191529 
L 618.454183 478.006577 
L 621.609562 480.698631 
L 624.76494 482.962361 
L 627.920319 484.601892 
L 631.075697 484.571808 
L 634.231076 484.966504 
L 637.386454 485.654447 
L 640.541833 484.548087 
L 643.697211 481.890537 
L 646.85259 480.283732 
L 650.007968 479.051722 
L 656.318725 477.789162 
L 659.474104 477.075444 
L 662.629482 476.623058 
L 665.784861 475.484196 
L 668.940239 475.784222 
L 672.095618 475.407411 
L 678.406375 473.708299 
L 681.561753 474.000707 
L 684.717131 472.041933 
L 687.87251 470.413853 
L 694.183267 466.641748 
L 697.338645 461.949158 
L 700.494024 453.065875 
L 703.649402 444.54605 
L 706.804781 437.165029 
L 709.960159 434.602642 
L 713.115538 429.637235 
L 716.270916 420.413961 
L 719.426295 413.393017 
L 722.581673 407.653148 
L 725.737052 406.43523 
L 728.89243 401.010919 
L 732.047809 394.51715 
L 735.203187 389.959273 
L 738.358566 387.997175 
L 741.513944 388.040198 
L 744.669323 389.372771 
L 747.824701 389.705708 
L 750.98008 389.474647 
L 754.135458 385.972911 
L 757.290837 383.729102 
L 760.446215 382.930094 
L 763.601594 384.595854 
L 766.756972 383.955008 
L 769.912351 382.662527 
L 773.067729 382.221672 
L 776.223108 381.612437 
L 779.378486 383.520284 
L 782.533865 387.679528 
L 785.689243 390.175485 
L 788.844622 390.665295 
L 788.844622 390.665295 
" clip-path="url(#p9841465ffd)" style="fill: none; stroke: #000000; stroke-width: 1.5; stroke-linecap: square"/>
   </g>
   <g id="line2d_4">
    <path d="M 0 459 
L 3.155378 459 
L 6.310757 458.516817 
L 9.466135 457.54281 
L 12.621514 454.435957 
L 15.776892 455.613735 
L 18.932271 459.23242 
L 22.087649 459.68587 
L 25.243028 459.395221 
L 28.398406 457.672456 
L 31.553785 455.667794 
L 37.864542 452.389469 
L 44.175299 450.711901 
L 47.330677 449.882836 
L 50.486056 444.91921 
L 59.952191 430.732427 
L 63.10757 427.755741 
L 66.262948 425.909107 
L 69.418327 423.467812 
L 78.884462 412.402562 
L 82.039841 412.435761 
L 85.195219 414.287741 
L 88.350598 416.762041 
L 91.505976 418.751895 
L 94.661355 420.429732 
L 97.816733 421.845939 
L 100.972112 423.803109 
L 104.12749 429.418689 
L 107.282869 434.003035 
L 110.438247 436.485636 
L 113.593625 438.728484 
L 116.749004 442.190787 
L 119.904382 445.888803 
L 123.059761 448.490441 
L 126.215139 450.072337 
L 132.525896 451.31742 
L 135.681275 452.550852 
L 138.836653 454.080863 
L 145.14741 454.002942 
L 148.302789 457.177597 
L 151.458167 459.626486 
L 154.613546 460.754769 
L 160.924303 463.759683 
L 164.079681 464.735201 
L 167.23506 465.491564 
L 170.390438 466.705554 
L 173.545817 466.540965 
L 179.856574 465.689214 
L 183.011952 465.187136 
L 186.167331 463.147501 
L 192.478088 459.793135 
L 195.633466 456.072294 
L 198.788845 451.387937 
L 201.944223 447.075711 
L 205.099602 443.573799 
L 208.25498 438.5873 
L 211.410359 434.690212 
L 214.565737 430.399066 
L 217.721116 427.15087 
L 220.876494 424.614466 
L 227.187251 420.255734 
L 230.342629 418.943341 
L 233.498008 418.132242 
L 236.653386 416.710839 
L 239.808765 415.608183 
L 242.964143 415.787324 
L 246.119522 415.562792 
L 249.2749 417.091279 
L 255.585657 419.43654 
L 258.741036 419.973555 
L 261.896414 420.776928 
L 265.051793 421.220815 
L 268.207171 421.026776 
L 274.517928 413.621028 
L 277.673307 409.638001 
L 280.828685 405.246169 
L 283.984064 402.462516 
L 287.139442 405.982636 
L 290.294821 408.80332 
L 293.450199 413.488436 
L 299.760956 418.881418 
L 302.916335 421.896577 
L 306.071713 423.879819 
L 309.227092 424.994887 
L 312.38247 422.682669 
L 315.537849 423.154128 
L 318.693227 424.012777 
L 321.848606 427.764251 
L 325.003984 432.120052 
L 328.159363 434.981658 
L 331.314741 438.179759 
L 334.47012 440.396633 
L 337.625498 441.223952 
L 340.780876 439.773371 
L 343.936255 440.422288 
L 347.091633 441.398718 
L 350.247012 445.466368 
L 353.40239 446.584172 
L 356.557769 446.977715 
L 359.713147 445.977902 
L 362.868526 443.796593 
L 366.023904 440.454227 
L 369.179283 438.116332 
L 372.334661 435.539783 
L 375.49004 432.494916 
L 378.645418 428.887399 
L 381.800797 425.596315 
L 384.956175 421.571974 
L 388.111554 417.193769 
L 391.266932 415.730879 
L 394.422311 417.558168 
L 397.577689 422.103425 
L 400.733068 425.997905 
L 403.888446 429.524111 
L 407.043825 436.566324 
L 410.199203 443.280916 
L 413.354582 447.587201 
L 416.50996 454.31097 
L 419.665339 460.433929 
L 422.820717 462.121954 
L 425.976096 463.284835 
L 429.131474 464.281965 
L 432.286853 465.600287 
L 435.442231 467.282638 
L 438.59761 468.755751 
L 444.908367 472.227578 
L 451.219124 473.184907 
L 457.52988 474.961428 
L 460.685259 475.750555 
L 463.840637 476.893105 
L 470.151394 477.882437 
L 479.61753 476.7524 
L 482.772908 476.686565 
L 485.928287 476.24548 
L 489.083665 475.946286 
L 492.239044 475.203628 
L 495.394422 474.260591 
L 498.549801 472.199545 
L 501.705179 470.877985 
L 511.171315 471.596135 
L 520.63745 471.258655 
L 523.792829 470.579469 
L 526.948207 469.61104 
L 530.103586 468.451753 
L 536.414343 466.659781 
L 542.7251 465.410909 
L 545.880478 465.063277 
L 549.035857 465.241036 
L 552.191235 464.728146 
L 555.346614 464.665293 
L 558.501992 464.039026 
L 564.812749 464.64003 
L 567.968127 465.467162 
L 571.123506 466.43354 
L 580.589641 469.595178 
L 583.74502 470.374723 
L 586.900398 470.753673 
L 590.055777 470.302172 
L 593.211155 469.571045 
L 602.677291 470.704561 
L 605.832669 471.478711 
L 608.988048 471.808804 
L 612.143426 472.587047 
L 618.454183 475.313712 
L 624.76494 478.994586 
L 627.920319 480.522736 
L 631.075697 481.163077 
L 637.386454 482.791096 
L 640.541833 482.648731 
L 643.697211 481.509656 
L 650.007968 479.970229 
L 656.318725 478.985225 
L 659.474104 478.415181 
L 662.629482 477.962889 
L 665.784861 477.140478 
L 668.940239 477.047711 
L 672.095618 476.651706 
L 678.406375 475.316764 
L 681.561753 475.22581 
L 691.027888 471.369787 
L 694.183267 469.918458 
L 697.338645 466.850855 
L 700.494024 463.397166 
L 703.649402 460.841673 
L 706.804781 457.330845 
L 709.960159 452.728043 
L 713.115538 447.134147 
L 716.270916 439.299916 
L 719.426295 432.442906 
L 722.581673 426.242041 
L 725.737052 422.579994 
L 728.89243 417.006471 
L 732.047809 410.880713 
L 735.203187 405.736669 
L 738.358566 402.103917 
L 741.513944 399.841946 
L 744.669323 398.662556 
L 750.98008 395.919715 
L 754.135458 392.928254 
L 757.290837 390.539822 
L 760.446215 388.969857 
L 763.601594 388.859815 
L 766.756972 387.769421 
L 769.912351 386.388022 
L 776.223108 384.576793 
L 779.378486 385.076069 
L 782.533865 387.010706 
L 785.689243 388.407581 
L 788.844622 388.894336 
L 788.844622 388.894336 
" clip-path="url(#p9841465ffd)" style="fill: none; stroke: #000000; stroke-width: 1.5; stroke-linecap: square"/>
   </g>
   <g id="line2d_5">
    <path d="M 0 459 
L 3.155378 459 
L 6.310757 458.536 
L 9.466135 457.629166 
L 12.621514 454.838 
L 15.776892 455.755863 
L 18.932271 459.041174 
L 22.087649 459.441594 
L 25.243028 459.254718 
L 28.398406 457.91665 
L 31.553785 456.396264 
L 37.864542 453.815011 
L 47.330677 451.583638 
L 59.952191 437.75888 
L 63.10757 435.21954 
L 66.262948 433.357988 
L 69.418327 431.165259 
L 78.884462 422.237765 
L 82.039841 421.343238 
L 85.195219 421.586263 
L 88.350598 422.329054 
L 94.661355 423.514677 
L 97.816733 424.029579 
L 100.972112 424.921531 
L 104.12749 427.930226 
L 107.282869 430.582973 
L 113.593625 433.832829 
L 116.749004 436.135897 
L 119.904382 438.661129 
L 123.059761 440.686512 
L 126.215139 442.205245 
L 132.525896 444.175609 
L 135.681275 445.437524 
L 138.836653 446.851069 
L 145.14741 447.977335 
L 148.302789 450.160838 
L 154.613546 455.152702 
L 157.768924 458.272813 
L 160.924303 459.835606 
L 170.390438 462.374037 
L 173.545817 462.641446 
L 179.856574 462.78614 
L 183.011952 462.75882 
L 195.633466 459.296769 
L 198.788845 457.118556 
L 201.944223 454.385034 
L 205.099602 451.950251 
L 208.25498 448.650672 
L 211.410359 445.776554 
L 214.565737 442.613124 
L 217.721116 439.899754 
L 220.876494 437.510769 
L 227.187251 433.088585 
L 230.342629 431.336361 
L 233.498008 429.883714 
L 236.653386 428.166377 
L 239.808765 426.642021 
L 242.964143 425.820412 
L 246.119522 424.871118 
L 255.585657 424.974458 
L 258.741036 424.821126 
L 261.896414 424.867349 
L 265.051793 424.785015 
L 268.207171 424.411593 
L 271.36255 422.269129 
L 274.517928 419.911188 
L 277.673307 417.329992 
L 280.828685 414.416307 
L 283.984064 412.213576 
L 287.139442 413.250935 
L 290.294821 414.125456 
L 293.450199 416.133176 
L 296.605578 417.285828 
L 299.760956 418.62987 
L 302.916335 420.219878 
L 306.071713 421.381813 
L 309.227092 422.155364 
L 312.38247 421.174146 
L 315.537849 421.531282 
L 318.693227 422.097271 
L 321.848606 424.193913 
L 325.003984 426.742829 
L 328.159363 428.663139 
L 331.314741 430.839257 
L 334.47012 432.589259 
L 337.625498 433.651465 
L 340.780876 433.506855 
L 343.936255 434.352601 
L 347.091633 435.352112 
L 350.247012 437.957322 
L 353.40239 439.144637 
L 356.557769 439.948527 
L 359.713147 439.988058 
L 362.868526 439.324753 
L 366.023904 437.931282 
L 369.179283 436.898761 
L 372.334661 435.622591 
L 375.49004 433.999454 
L 381.800797 429.960862 
L 384.956175 427.469336 
L 388.111554 424.685782 
L 391.266932 423.292947 
L 394.422311 423.621145 
L 400.733068 427.24661 
L 403.888446 428.986938 
L 410.199203 436.531249 
L 413.354582 439.333596 
L 416.50996 443.527586 
L 419.665339 449.114805 
L 422.820717 452.944666 
L 425.976096 456.058389 
L 429.131474 458.94329 
L 432.286853 460.113403 
L 444.908367 465.556662 
L 451.219124 467.142755 
L 457.52988 469.072983 
L 460.685259 469.975257 
L 463.840637 471.051349 
L 470.151394 472.519011 
L 476.462151 472.993177 
L 479.61753 473.122818 
L 482.772908 473.392549 
L 489.083665 473.510863 
L 492.239044 473.323863 
L 495.394422 472.986736 
L 498.549801 472.019073 
L 501.705179 471.346086 
L 511.171315 471.655687 
L 520.63745 471.475747 
L 523.792829 471.108581 
L 526.948207 470.563299 
L 533.258964 469.316771 
L 536.414343 468.697559 
L 545.880478 467.351237 
L 549.035857 467.260626 
L 552.191235 466.830092 
L 555.346614 466.63006 
L 558.501992 466.148012 
L 564.812749 466.157306 
L 567.968127 466.473677 
L 574.278884 467.444228 
L 580.589641 468.600755 
L 583.74502 469.101073 
L 586.900398 469.415665 
L 590.055777 469.303209 
L 593.211155 469.014235 
L 602.677291 469.782495 
L 605.832669 470.268421 
L 608.988048 470.544012 
L 612.143426 471.057179 
L 618.454183 472.781069 
L 627.920319 476.288742 
L 634.231076 477.71511 
L 637.386454 478.5108 
L 640.541833 478.787418 
L 646.85259 478.330324 
L 653.163347 478.049323 
L 662.629482 477.500128 
L 665.784861 477.104123 
L 668.940239 477.055393 
L 672.095618 476.845404 
L 678.406375 476.090814 
L 681.561753 475.979207 
L 687.87251 474.538798 
L 694.183267 472.70211 
L 697.338645 470.871745 
L 700.494024 468.739785 
L 706.804781 465.208097 
L 709.960159 463.846447 
L 713.115538 462.299011 
L 716.270916 460.336305 
L 719.426295 457.465379 
L 722.581673 452.154552 
L 725.737052 448.100515 
L 728.89243 443.07517 
L 732.047809 437.706193 
L 735.203187 432.785358 
L 738.358566 428.640733 
L 741.513944 425.25339 
L 747.824701 419.837907 
L 750.98008 417.233604 
L 754.135458 413.893699 
L 757.290837 410.896879 
L 760.446215 408.384888 
L 763.601594 406.716608 
L 769.912351 402.529988 
L 776.223108 398.963468 
L 779.378486 398.02452 
L 782.533865 397.962611 
L 785.689243 397.777191 
L 788.844622 397.246815 
L 788.844622 397.246815 
" clip-path="url(#p9841465ffd)" style="fill: none; stroke: #000000; stroke-width: 1.5; stroke-linecap: square"/>
   </g>
   <g id="line2d_6">
    <path d="M 0 459 
L 3.155378 459 
L 6.310757 458.545623 
L 9.466135 457.672258 
L 12.621514 455.036002 
L 15.776892 455.839328 
L 18.932271 458.870695 
L 22.087649 459.326143 
L 25.243028 459.179891 
L 37.864542 454.492383 
L 47.330677 452.51876 
L 56.796813 444.359102 
L 59.952191 441.515091 
L 63.10757 439.396277 
L 66.262948 437.764739 
L 69.418327 435.906964 
L 78.884462 428.67792 
L 82.039841 427.667191 
L 85.195219 427.440991 
L 94.661355 427.769062 
L 97.816733 427.856919 
L 100.972112 428.210601 
L 104.12749 429.933504 
L 107.282869 431.489686 
L 113.593625 433.445114 
L 116.749004 434.87874 
L 119.904382 436.482843 
L 123.059761 437.821108 
L 126.215139 438.8811 
L 132.525896 440.402765 
L 138.836653 442.369411 
L 145.14741 443.467723 
L 148.302789 444.947852 
L 154.613546 448.351725 
L 160.924303 452.658373 
L 164.079681 454.491863 
L 167.23506 456.17406 
L 170.390438 458.277754 
L 173.545817 459.077299 
L 179.856574 459.482933 
L 183.011952 459.620244 
L 189.322709 458.927578 
L 192.478088 457.833611 
L 205.099602 452.443261 
L 208.25498 450.640986 
L 211.410359 449.005218 
L 214.565737 447.16132 
L 217.721116 445.506152 
L 227.187251 441.024416 
L 230.342629 439.742754 
L 233.498008 438.601873 
L 239.808765 436.101278 
L 246.119522 434.341707 
L 268.207171 431.550817 
L 271.36255 430.118483 
L 274.517928 428.5424 
L 277.673307 426.816486 
L 280.828685 424.880955 
L 283.984064 423.27831 
L 290.294821 423.362604 
L 293.450199 424.009183 
L 296.605578 424.269506 
L 299.760956 424.667015 
L 302.916335 425.232796 
L 306.071713 425.62454 
L 309.227092 425.84796 
L 312.38247 425.186871 
L 315.537849 425.20367 
L 318.693227 425.34441 
L 321.848606 426.293019 
L 325.003984 427.522002 
L 328.159363 428.482004 
L 331.314741 429.612838 
L 334.47012 430.568555 
L 337.625498 431.204926 
L 340.780876 431.240106 
L 347.091633 432.400451 
L 350.247012 433.868454 
L 353.40239 434.658486 
L 356.557769 435.268893 
L 359.713147 435.497577 
L 362.868526 435.359076 
L 366.023904 434.823689 
L 369.179283 434.436524 
L 372.334661 433.89918 
L 375.49004 433.149362 
L 381.800797 431.124573 
L 384.956175 429.806673 
L 388.111554 428.28447 
L 391.266932 427.420694 
L 394.422311 427.414697 
L 403.888446 429.806815 
L 407.043825 431.66621 
L 410.199203 433.655836 
L 413.354582 435.201217 
L 416.50996 437.510091 
L 419.665339 440.607996 
L 422.820717 442.912625 
L 429.131474 446.854316 
L 432.286853 449.094981 
L 438.59761 454.239228 
L 441.752988 457.111823 
L 444.908367 459.334352 
L 451.219124 460.674521 
L 466.996016 464.518561 
L 470.151394 465.185226 
L 476.462151 466.040547 
L 489.083665 467.42855 
L 495.394422 467.661934 
L 498.549801 467.393422 
L 501.705179 467.245987 
L 514.326693 468.044121 
L 520.63745 468.264787 
L 526.948207 468.056209 
L 539.569721 467.186155 
L 545.880478 466.810519 
L 549.035857 466.786762 
L 558.501992 466.250872 
L 564.812749 466.24076 
L 571.123506 466.614986 
L 586.900398 468.047539 
L 596.366534 468.119595 
L 602.677291 468.487563 
L 612.143426 469.329434 
L 618.454183 470.378661 
L 627.920319 472.550601 
L 640.541833 474.528364 
L 650.007968 474.719388 
L 656.318725 474.883456 
L 672.095618 474.915815 
L 681.561753 474.703714 
L 687.87251 474.072171 
L 694.183267 473.162457 
L 697.338645 472.210776 
L 700.494024 471.066925 
L 706.804781 469.038459 
L 709.960159 468.184185 
L 713.115538 467.213594 
L 722.581673 463.657269 
L 725.737052 462.674467 
L 735.203187 459.069158 
L 738.358566 455.9634 
L 741.513944 453.068844 
L 750.98008 445.398487 
L 754.135458 442.481486 
L 757.290837 439.724748 
L 760.446215 437.20492 
L 763.601594 435.123691 
L 773.067729 428.448485 
L 776.223108 426.375755 
L 779.378486 424.736713 
L 785.689243 422.410494 
L 788.844622 421.103309 
L 788.844622 421.103309 
" clip-path="url(#p9841465ffd)" style="fill: none; stroke: #000000; stroke-width: 1.5; stroke-linecap: square"/>
   </g>
   <g id="line2d_7">
    <path d="M 0 459 
L 3.155378 459 
L 6.310757 458.550438 
L 9.466135 457.693746 
L 12.621514 455.133972 
L 15.776892 455.883873 
L 18.932271 458.753513 
L 22.087649 459.270775 
L 25.243028 459.142156 
L 34.709163 455.8122 
L 37.864542 454.812544 
L 47.330677 452.988232 
L 56.796813 445.84399 
L 59.952191 443.359253 
L 63.10757 441.481016 
L 66.262948 440.010407 
L 69.418327 438.360776 
L 78.884462 432.091196 
L 82.039841 431.118817 
L 85.195219 430.773519 
L 97.816733 430.536412 
L 100.972112 430.689865 
L 107.282869 432.966849 
L 113.593625 434.308063 
L 116.749004 435.324353 
L 119.904382 436.474087 
L 123.059761 437.441366 
L 126.215139 438.216313 
L 132.525896 439.35313 
L 138.836653 440.816048 
L 145.14741 441.688624 
L 148.302789 442.766363 
L 154.613546 445.24677 
L 164.079681 449.732526 
L 167.23506 451.001503 
L 170.390438 452.555243 
L 173.545817 453.359998 
L 179.856574 454.514045 
L 183.011952 454.959264 
L 192.478088 453.48876 
L 205.099602 450.470041 
L 217.721116 446.254623 
L 227.187251 443.39591 
L 239.808765 440.090276 
L 246.119522 438.81778 
L 268.207171 436.337726 
L 274.517928 434.327062 
L 277.673307 433.177765 
L 280.828685 431.895463 
L 283.984064 430.79275 
L 290.294821 430.472771 
L 293.450199 430.667932 
L 299.760956 430.722744 
L 306.071713 430.980752 
L 309.227092 430.976903 
L 312.38247 430.478502 
L 318.693227 430.31451 
L 321.848606 430.72759 
L 325.003984 431.309733 
L 331.314741 432.308319 
L 334.47012 432.776067 
L 337.625498 433.077078 
L 340.780876 433.052175 
L 347.091633 433.614528 
L 350.247012 434.395061 
L 356.557769 435.148772 
L 359.713147 435.276942 
L 362.868526 435.206302 
L 375.49004 433.985504 
L 381.800797 432.837782 
L 384.956175 432.084385 
L 388.111554 431.208401 
L 391.266932 430.674416 
L 394.422311 430.596443 
L 403.888446 431.694827 
L 413.354582 434.524606 
L 416.50996 435.773826 
L 419.665339 437.466591 
L 422.820717 438.767406 
L 429.131474 441.071255 
L 432.286853 442.390132 
L 438.59761 445.439335 
L 444.908367 448.904691 
L 451.219124 451.536066 
L 460.685259 456.041223 
L 463.840637 457.703606 
L 466.996016 459.050713 
L 470.151394 459.520482 
L 482.772908 460.882595 
L 492.239044 461.674184 
L 495.394422 461.840898 
L 501.705179 461.873413 
L 514.326693 462.757455 
L 523.792829 463.187893 
L 533.258964 463.194313 
L 545.880478 463.139045 
L 552.191235 463.181623 
L 564.812749 463.284914 
L 574.278884 463.81902 
L 586.900398 464.687343 
L 599.521912 465.079774 
L 612.143426 465.897601 
L 618.454183 466.58218 
L 631.075697 468.307421 
L 640.541833 469.367935 
L 672.095618 470.583607 
L 684.717131 470.665697 
L 691.027888 470.432116 
L 694.183267 470.255532 
L 700.494024 469.302258 
L 713.115538 467.426637 
L 747.824701 460.713331 
L 754.135458 459.554616 
L 757.290837 458.875061 
L 760.446215 457.184983 
L 766.756972 454.105937 
L 773.067729 450.933705 
L 776.223108 449.395028 
L 779.378486 448.064561 
L 788.844622 444.698626 
L 788.844622 444.698626 
" clip-path="url(#p9841465ffd)" style="fill: none; stroke: #000000; stroke-width: 1.5; stroke-linecap: square"/>
   </g>
   <g id="line2d_8">
    <path d="M 0 459 
L 3.155378 459 
L 6.310757 458.552846 
L 9.466135 457.704472 
L 12.621514 455.182666 
L 15.776892 455.906806 
L 18.932271 458.697297 
L 22.087649 459.243758 
L 25.243028 459.123316 
L 34.709163 455.920298 
L 37.864542 454.966916 
L 47.330677 453.22065 
L 59.952191 444.258921 
L 63.10757 442.504392 
L 66.262948 441.121785 
L 69.418327 439.582254 
L 78.884462 433.803285 
L 82.039841 432.870077 
L 85.195219 432.492368 
L 97.816733 432.029278 
L 100.972112 432.106102 
L 107.282869 433.95545 
L 113.593625 435.026761 
L 126.215139 438.232888 
L 132.525896 439.17085 
L 138.836653 440.379101 
L 145.14741 441.111963 
L 148.302789 441.994884 
L 154.613546 444.025525 
L 164.079681 447.692924 
L 167.23506 448.740273 
L 170.390438 450.011333 
L 173.545817 450.699816 
L 179.856574 451.721522 
L 183.011952 452.129194 
L 192.478088 451.184319 
L 205.099602 449.074383 
L 220.876494 445.311967 
L 230.342629 443.283361 
L 236.653386 442.061544 
L 239.808765 441.443112 
L 246.119522 440.472812 
L 268.207171 438.475146 
L 274.517928 436.987528 
L 283.984064 434.375842 
L 290.294821 434.032528 
L 293.450199 434.106153 
L 299.760956 434.028779 
L 306.071713 434.09625 
L 309.227092 434.042311 
L 312.38247 433.655524 
L 318.693227 433.44214 
L 321.848606 433.668409 
L 331.314741 434.591441 
L 337.625498 435.031413 
L 340.780876 434.984462 
L 347.091633 435.295479 
L 350.247012 435.780071 
L 356.557769 436.231407 
L 359.713147 436.298155 
L 362.868526 436.236965 
L 375.49004 435.382817 
L 381.800797 434.605155 
L 391.266932 433.140486 
L 394.422311 433.055309 
L 403.888446 433.648184 
L 413.354582 435.35277 
L 416.50996 436.119476 
L 419.665339 437.167096 
L 425.976096 438.708661 
L 432.286853 440.267224 
L 438.59761 442.207945 
L 444.908367 444.426875 
L 451.219124 446.16022 
L 470.151394 452.165104 
L 482.772908 455.089795 
L 489.083665 456.378297 
L 495.394422 457.325802 
L 501.705179 457.649403 
L 508.015936 458.754256 
L 511.171315 459.093533 
L 523.792829 459.638912 
L 539.569721 459.84577 
L 558.501992 460.087057 
L 571.123506 460.500412 
L 590.055777 461.400401 
L 596.366534 461.582963 
L 608.988048 462.159924 
L 615.298805 462.570246 
L 621.609562 463.109377 
L 634.231076 464.241602 
L 640.541833 464.7305 
L 672.095618 465.965463 
L 684.717131 466.228618 
L 694.183267 466.157788 
L 703.649402 465.512962 
L 716.270916 464.547205 
L 735.203187 462.58814 
L 747.824701 461.342659 
L 769.912351 459.133772 
L 773.067729 458.486453 
L 779.378486 456.761441 
L 788.844622 454.638563 
L 788.844622 454.638563 
" clip-path="url(#p9841465ffd)" style="fill: none; stroke: #000000; stroke-width: 1.5; stroke-linecap: square"/>
   </g>
   <g id="line2d_9">
    <path d="M 0 459 
L 3.155378 459 
L 6.310757 458.554051 
L 9.466135 457.70983 
L 12.621514 455.206936 
L 15.776892 455.918432 
L 18.932271 458.669789 
L 22.087649 459.230426 
L 25.243028 459.113916 
L 31.553785 456.922753 
L 37.864542 455.042556 
L 47.330677 453.335929 
L 59.952191 444.701448 
L 63.10757 443.009064 
L 66.262948 441.671758 
L 69.418327 440.188156 
L 78.884462 434.654662 
L 82.039841 433.745182 
L 85.195219 433.357387 
L 97.816733 432.805538 
L 100.972112 432.850104 
L 107.282869 434.505806 
L 113.593625 435.454085 
L 126.215139 438.333194 
L 132.525896 439.174924 
L 138.836653 440.260515 
L 145.14741 440.921921 
L 148.302789 441.712301 
L 154.613546 443.528877 
L 164.079681 446.804828 
L 167.23506 447.743137 
L 170.390438 448.877191 
L 173.545817 449.502347 
L 179.856574 450.441765 
L 183.011952 450.821057 
L 192.478088 450.077915 
L 205.099602 448.342109 
L 220.876494 445.193018 
L 233.498008 443.00372 
L 239.808765 441.935876 
L 246.119522 441.112986 
L 268.207171 439.389547 
L 274.517928 438.148556 
L 283.984064 435.974429 
L 290.294821 435.653014 
L 293.450199 435.690133 
L 299.760956 435.585401 
L 306.071713 435.598478 
L 309.227092 435.53581 
L 312.38247 435.208899 
L 318.693227 434.999662 
L 325.003984 435.409283 
L 337.625498 436.147233 
L 340.780876 436.09696 
L 347.091633 436.312754 
L 350.247012 436.676812 
L 356.557769 437.00581 
L 362.868526 436.99237 
L 375.49004 436.300565 
L 384.956175 435.289091 
L 388.111554 434.830741 
L 391.266932 434.534049 
L 394.422311 434.454317 
L 403.888446 434.85751 
L 413.354582 436.101538 
L 416.50996 436.666168 
L 419.665339 437.441311 
L 425.976096 438.583788 
L 432.286853 439.742653 
L 441.752988 442.005367 
L 444.908367 442.843778 
L 451.219124 444.148084 
L 473.306773 449.256885 
L 485.928287 451.430961 
L 492.239044 452.349271 
L 495.394422 452.700359 
L 501.705179 453.017873 
L 514.326693 454.686055 
L 520.63745 455.402159 
L 526.948207 455.834028 
L 552.191235 456.880271 
L 564.812749 457.510505 
L 571.123506 458.14289 
L 577.434263 458.924059 
L 583.74502 459.240291 
L 593.211155 459.481406 
L 612.143426 460.184059 
L 624.76494 460.985913 
L 637.386454 461.808686 
L 646.85259 462.194759 
L 675.250996 463.092505 
L 687.87251 463.309487 
L 694.183267 463.305706 
L 709.960159 462.711315 
L 719.426295 462.212192 
L 769.912351 459.072348 
L 773.067729 458.638024 
L 779.378486 457.540845 
L 788.844622 456.177695 
L 788.844622 456.177695 
" clip-path="url(#p9841465ffd)" style="fill: none; stroke: #000000; stroke-width: 1.5; stroke-linecap: square"/>
   </g>
  </g>
 </g>
 <defs>
  <clipPath id="p9841465ffd">
   <rect x="0" y="0" width="792" height="612"/>
  </clipPath>
 </defs>
</svg>
