<?xml version="1.0" encoding="utf-8" standalone="no"?>
<!DOCTYPE svg PUBLIC "-//W3C//DTD SVG 1.1//EN"
  "http://www.w3.org/Graphics/SVG/1.1/DTD/svg11.dtd">
<svg xmlns:xlink="http://www.w3.org/1999/xlink" width="792pt" height="612pt" viewBox="0 0 792 612" xmlns="http://www.w3.org/2000/svg" version="1.1">
 <metadata>
  <rdf:RDF xmlns:dc="http://purl.org/dc/elements/1.1/" xmlns:cc="http://creativecommons.org/ns#" xmlns:rdf="http://www.w3.org/1999/02/22-rdf-syntax-ns#">
   <cc:Work>
    <dc:type rdf:resource="http://purl.org/dc/dcmitype/StillImage"/>
    <dc:date>2023-01-02T15:38:24.602083</dc:date>
    <dc:format>image/svg+xml</dc:format>
    <dc:creator>
     <cc:Agent>
      <dc:title>Matplotlib v3.6.2, https://matplotlib.org/</dc:title>
     </cc:Agent>
    </dc:creator>
   </cc:Work>
  </rdf:RDF>
 </metadata>
 <defs>
  <style type="text/css">*{stroke-linejoin: round; stroke-linecap: butt}</style>
 </defs>
 <g id="figure_1">
  <g id="patch_1">
   <path d="M 0 612 
L 792 612 
L 792 0 
L 0 0 
z
" style="fill: #ffffff"/>
  </g>
  <g id="axes_1">
   <g id="line2d_1">
    <path d="M 0 306 
L 12.571429 291.000642 
L 25.142857 308.233798 
L 37.714286 305.231562 
L 50.285714 308.251668 
L 62.857143 303.99851 
L 75.428571 304.06999 
L 88 306.446767 
L 100.571429 299.496045 
L 113.142857 314.843533 
L 125.714286 301.336108 
L 138.285714 301.08598 
L 150.857143 304.463133 
L 163.428571 312.914784 
L 176 288.719567 
L 188.571429 304.06999 
L 201.142857 299.674673 
L 213.714286 302.211605 
L 226.285714 278.943123 
L 238.857143 293.140674 
L 251.428571 311.146276 
L 264 302.35455 
L 276.571429 313.075536 
L 289.142857 297.567165 
L 301.714286 290.661933 
L 314.285714 304.641836 
L 326.857143 303.855551 
L 339.428571 313.629208 
L 352 293.658045 
L 364.571429 298.781577 
L 377.142857 305.982129 
L 389.714286 309.413162 
L 402.285714 309.877734 
L 414.857143 309.538241 
L 427.428571 304.23082 
L 440 304.677576 
L 452.571429 296.906492 
L 465.142857 306.607603 
L 477.714286 308.180189 
L 490.285714 312.07524 
L 502.857143 300.960918 
L 515.428571 303.694723 
L 528 307.286683 
L 540.571429 305.213691 
L 553.142857 312.361053 
L 565.714286 313.647067 
L 578.285714 304.766928 
L 590.857143 302.533232 
L 603.428571 312.486093 
L 616 295.692507 
L 628.571429 301.657711 
L 641.142857 307.80492 
L 653.714286 312.825475 
L 666.285714 302.318813 
L 678.857143 306.768438 
L 691.428571 300.907321 
L 704 294.22902 
L 716.571429 313.486329 
L 729.142857 301.836384 
L 741.714286 300.156991 
L 754.285714 312.718303 
L 766.857143 304.534614 
L 779.428571 307.143719 
" clip-path="url(#p514a4b6e59)" style="fill: none; stroke: #000000; stroke-width: 1.5; stroke-linecap: square"/>
   </g>
   <g id="line2d_2">
    <path d="M 0 306 
L 12.571429 306 
L 25.142857 295.995974 
L 37.714286 302.987608 
L 50.285714 304.184358 
L 62.857143 306.283625 
L 75.428571 305.12292 
L 88 304.592305 
L 100.571429 305.523168 
L 113.142857 302.496515 
L 125.714286 308.717887 
L 138.285714 305.013331 
L 150.857143 303.041405 
L 163.428571 303.744829 
L 176 308.347814 
L 188.571429 298.495881 
L 201.142857 301.277885 
L 213.714286 300.476591 
L 226.285714 301.319293 
L 238.857143 290.065981 
L 251.428571 291.587405 
L 264 301.375205 
L 276.571429 301.844161 
L 289.142857 307.508135 
L 301.714286 302.523983 
L 314.285714 296.571741 
L 326.857143 300.610614 
L 339.428571 302.281956 
L 352 307.996444 
L 364.571429 300.790108 
L 377.142857 299.77877 
L 389.714286 302.866219 
L 402.285714 306.162939 
L 414.857143 308.058113 
L 427.428571 308.807794 
L 440 306.520072 
L 452.571429 305.581265 
L 465.142857 301.249298 
L 477.714286 303.943639 
L 490.285714 306.066227 
L 502.857143 309.07625 
L 515.428571 305.000926 
L 528 304.336359 
L 540.571429 305.817509 
L 553.142857 305.516651 
L 565.714286 308.969527 
L 578.285714 311.322409 
L 590.857143 308.038211 
L 603.428571 305.266952 
L 616 308.899522 
L 628.571429 302.278593 
L 641.142857 301.957112 
L 653.714286 304.885995 
L 666.285714 308.857127 
L 678.857143 305.565707 
L 691.428571 306.170998 
L 704 303.535789 
L 716.571429 298.844965 
L 729.142857 306.200642 
L 741.714286 304.018763 
L 754.285714 302.072726 
L 766.857143 307.395727 
L 779.428571 305.969515 
" clip-path="url(#p514a4b6e59)" style="fill: none; stroke: #000000; stroke-width: 1.5; stroke-linecap: square"/>
   </g>
   <g id="line2d_3">
    <path d="M 0 306 
L 12.571429 306 
L 25.142857 297.208952 
L 37.714286 302.202999 
L 50.285714 303.38567 
L 62.857143 305.116911 
L 75.428571 304.742539 
L 88 304.526453 
L 100.571429 305.126391 
L 113.142857 303.400812 
L 125.714286 306.861119 
L 138.285714 305.20621 
L 150.857143 303.980169 
L 163.428571 304.123205 
L 176 306.718804 
L 188.571429 301.412589 
L 201.142857 302.193922 
L 213.714286 301.448718 
L 226.285714 301.685045 
L 238.857143 294.974188 
L 251.428571 294.4232 
L 264 299.321895 
L 276.571429 300.208142 
L 289.142857 303.987169 
L 301.714286 302.096157 
L 314.285714 298.734438 
L 326.857143 300.452594 
L 339.428571 301.452086 
L 352 305.033321 
L 364.571429 301.687483 
L 377.142857 300.820027 
L 389.714286 302.351644 
L 402.285714 304.425985 
L 414.857143 306.034537 
L 427.428571 307.069206 
L 440 306.266986 
L 452.571429 305.814716 
L 465.142857 303.188493 
L 477.714286 304.194778 
L 490.285714 305.35645 
L 502.857143 307.34123 
L 515.428571 305.484197 
L 528 304.958975 
L 540.571429 305.644685 
L 553.142857 305.508782 
L 565.714286 307.537512 
L 578.285714 309.34438 
L 590.857143 308.002343 
L 603.428571 306.392552 
L 616 308.180553 
L 628.571429 304.505877 
L 641.142857 303.668664 
L 653.714286 304.883716 
L 666.285714 307.228414 
L 678.857143 305.785452 
L 691.428571 306.071741 
L 704 304.546161 
L 716.571429 301.515214 
L 729.142857 305.032934 
L 741.714286 304.090373 
L 754.285714 302.93238 
L 766.857143 305.799265 
L 779.428571 305.418386 
" clip-path="url(#p514a4b6e59)" style="fill: none; stroke: #000000; stroke-width: 1.5; stroke-linecap: square"/>
   </g>
   <g id="line2d_4">
    <path d="M 0 306 
L 12.571429 306 
L 25.142857 297.847539 
L 37.714286 301.922858 
L 50.285714 302.975645 
L 62.857143 304.424018 
L 75.428571 304.319291 
L 88 304.262845 
L 100.571429 304.726131 
L 113.142857 303.67235 
L 125.714286 305.831834 
L 138.285714 304.991591 
L 150.857143 304.281361 
L 163.428571 304.313679 
L 176 305.815021 
L 188.571429 302.873625 
L 201.142857 303.076655 
L 213.714286 302.505289 
L 226.285714 302.456402 
L 238.857143 298.560589 
L 251.428571 297.670032 
L 264 299.871191 
L 276.571429 300.275184 
L 289.142857 302.350143 
L 301.714286 301.576893 
L 314.285714 299.815672 
L 326.857143 300.591966 
L 339.428571 301.11602 
L 352 303.122579 
L 364.571429 301.605938 
L 377.142857 301.154013 
L 389.714286 301.925669 
L 402.285714 303.121533 
L 414.857143 304.198871 
L 427.428571 305.059968 
L 440 304.925549 
L 452.571429 304.88575 
L 465.142857 303.608759 
L 477.714286 304.087498 
L 490.285714 304.741216 
L 502.857143 305.911719 
L 515.428571 305.124873 
L 528 304.890369 
L 540.571429 305.275343 
L 553.142857 305.26811 
L 565.714286 306.401695 
L 578.285714 307.555157 
L 590.857143 307.121569 
L 603.428571 306.39057 
L 616 307.36853 
L 628.571429 305.50615 
L 641.142857 304.908024 
L 653.714286 305.378085 
L 666.285714 306.564219 
L 678.857143 305.888709 
L 691.428571 306.024742 
L 704 305.212554 
L 716.571429 303.466396 
L 729.142857 305.066314 
L 741.714286 304.551128 
L 754.285714 303.843512 
L 766.857143 305.267563 
L 779.428571 305.154538 
" clip-path="url(#p514a4b6e59)" style="fill: none; stroke: #000000; stroke-width: 1.5; stroke-linecap: square"/>
   </g>
   <g id="line2d_5">
    <path d="M 0 306 
L 12.571429 306 
L 25.142857 298.171059 
L 37.714286 301.81894 
L 50.285714 302.785892 
L 62.857143 304.076117 
L 75.428571 304.060229 
L 88 304.06201 
L 100.571429 304.457852 
L 113.142857 303.697233 
L 125.714286 305.29378 
L 138.285714 304.759157 
L 150.857143 304.287523 
L 163.428571 304.309091 
L 176 305.325637 
L 188.571429 303.428783 
L 201.142857 303.499738 
L 213.714286 303.087788 
L 226.285714 302.995709 
L 238.857143 300.515922 
L 251.428571 299.77193 
L 264 300.898338 
L 276.571429 301.040292 
L 289.142857 302.196743 
L 301.714286 301.757508 
L 314.285714 300.71647 
L 326.857143 301.080472 
L 339.428571 301.335334 
L 352 302.454581 
L 364.571429 301.659652 
L 377.142857 301.401565 
L 389.714286 301.809486 
L 402.285714 302.482561 
L 414.857143 303.133606 
L 427.428571 303.694632 
L 440 303.741387 
L 452.571429 303.822678 
L 465.142857 303.224228 
L 477.714286 303.515858 
L 490.285714 303.916622 
L 502.857143 304.615645 
L 515.428571 304.303339 
L 528 304.251463 
L 540.571429 304.509589 
L 553.142857 304.569346 
L 565.714286 305.229471 
L 578.285714 305.941458 
L 590.857143 305.842286 
L 603.428571 305.563277 
L 616 306.146276 
L 628.571429 305.266777 
L 641.142857 304.963565 
L 653.714286 305.20202 
L 666.285714 305.841305 
L 678.857143 305.546197 
L 691.428571 305.648509 
L 704 305.251874 
L 716.571429 304.329949 
L 729.142857 305.09503 
L 741.714286 304.822918 
L 754.285714 304.433463 
L 766.857143 305.124652 
L 779.428571 305.075452 
" clip-path="url(#p514a4b6e59)" style="fill: none; stroke: #000000; stroke-width: 1.5; stroke-linecap: square"/>
   </g>
   <g id="line2d_6">
    <path d="M 0 306 
L 12.571429 306 
L 25.142857 298.333356 
L 37.714286 301.776694 
L 50.285714 302.697252 
L 62.857143 303.906349 
L 75.428571 303.92342 
L 88 303.947175 
L 100.571429 304.308986 
L 113.142857 303.676894 
L 125.714286 305.023729 
L 138.285714 304.611258 
L 150.857143 304.242548 
L 163.428571 304.264266 
L 176 305.070864 
L 188.571429 303.618565 
L 201.142857 303.656843 
L 213.714286 303.332867 
L 226.285714 303.245074 
L 238.857143 301.403207 
L 251.428571 300.798393 
L 264 301.532684 
L 276.571429 301.58939 
L 289.142857 302.361365 
L 301.714286 302.046861 
L 314.285714 301.316445 
L 326.857143 301.525044 
L 339.428571 301.668325 
L 352 302.389966 
L 364.571429 301.872112 
L 377.142857 301.691944 
L 389.714286 301.938067 
L 402.285714 302.36058 
L 414.857143 302.779564 
L 427.428571 303.151318 
L 440 303.209958 
L 452.571429 303.28874 
L 465.142857 302.949843 
L 477.714286 303.141942 
L 490.285714 303.403892 
L 502.857143 303.850492 
L 515.428571 303.703005 
L 528 303.702586 
L 540.571429 303.882456 
L 553.142857 303.948749 
L 565.714286 304.36463 
L 578.285714 304.820357 
L 590.857143 304.817751 
L 603.428571 304.707054 
L 616 305.081747 
L 628.571429 304.631957 
L 641.142857 304.490301 
L 653.714286 304.647334 
L 666.285714 305.032915 
L 678.857143 304.905565 
L 691.428571 304.992575 
L 704 304.802561 
L 716.571429 304.312568 
L 729.142857 304.73587 
L 741.714286 304.602588 
L 754.285714 304.398949 
L 766.857143 304.778732 
L 779.428571 304.767625 
" clip-path="url(#p514a4b6e59)" style="fill: none; stroke: #000000; stroke-width: 1.5; stroke-linecap: square"/>
   </g>
   <g id="line2d_7">
    <path d="M 0 306 
L 12.571429 306 
L 25.142857 298.414574 
L 37.714286 301.758057 
L 50.285714 302.654779 
L 62.857143 303.823107 
L 75.428571 303.853947 
L 88 303.886851 
L 100.571429 304.231609 
L 113.142857 303.658619 
L 125.714286 304.889476 
L 138.285714 304.530306 
L 150.857143 304.207836 
L 163.428571 304.230127 
L 176 304.941614 
L 188.571429 303.687194 
L 201.142857 303.715199 
L 213.714286 303.434094 
L 226.285714 303.352958 
L 238.857143 301.798332 
L 251.428571 301.270337 
L 264 301.849296 
L 276.571429 301.877856 
L 289.142857 302.489356 
L 301.714286 302.229117 
L 314.285714 301.635799 
L 326.857143 301.785371 
L 339.428571 301.885543 
L 352 302.438911 
L 364.571429 302.035276 
L 377.142857 301.889351 
L 389.714286 302.068657 
L 402.285714 302.38338 
L 414.857143 302.697795 
L 427.428571 302.979007 
L 440 303.029477 
L 452.571429 303.094692 
L 465.142857 302.854102 
L 477.714286 302.997477 
L 490.285714 303.192179 
L 502.857143 303.520623 
L 515.428571 303.427423 
L 528 303.437011 
L 540.571429 303.573126 
L 553.142857 303.630336 
L 565.714286 303.930785 
L 578.285714 304.260888 
L 590.857143 304.277865 
L 603.428571 304.220033 
L 616 304.490881 
L 628.571429 304.20573 
L 641.142857 304.124074 
L 653.714286 304.240784 
L 666.285714 304.510246 
L 678.857143 304.442141 
L 691.428571 304.513741 
L 704 304.403756 
L 716.571429 304.096113 
L 729.142857 304.377446 
L 741.714286 304.301964 
L 754.285714 304.179839 
L 766.857143 304.429397 
L 779.428571 304.432448 
" clip-path="url(#p514a4b6e59)" style="fill: none; stroke: #000000; stroke-width: 1.5; stroke-linecap: square"/>
   </g>
   <g id="line2d_8">
    <path d="M 0 306 
L 12.571429 306 
L 25.142857 298.455191 
L 37.714286 301.749364 
L 50.285714 302.634038 
L 62.857143 303.781971 
L 75.428571 303.819045 
L 88 303.856069 
L 100.571429 304.192304 
L 113.142857 303.647523 
L 125.714286 304.822695 
L 138.285714 304.488264 
L 150.857143 304.187521 
L 163.428571 304.210127 
L 176 304.876677 
L 188.571429 303.714687 
L 201.142857 303.738742 
L 213.714286 303.47837 
L 226.285714 303.401326 
L 238.857143 301.980821 
L 251.428571 301.491557 
L 264 302.002738 
L 276.571429 302.020613 
L 289.142857 302.560673 
L 301.714286 302.325612 
L 314.285714 301.795442 
L 326.857143 301.920366 
L 339.428571 302.002577 
L 352 302.481357 
L 364.571429 302.12853 
L 377.142857 301.998543 
L 389.714286 302.148991 
L 402.285714 302.416125 
L 414.857143 302.68357 
L 427.428571 302.923254 
L 440 302.967896 
L 452.571429 303.024934 
L 465.142857 302.82525 
L 477.714286 302.946005 
L 490.285714 303.109649 
L 502.857143 303.384349 
L 515.428571 303.311538 
L 528 303.322832 
L 540.571429 303.437511 
L 553.142857 303.487983 
L 565.714286 303.735767 
L 578.285714 304.007896 
L 590.857143 304.028391 
L 603.428571 303.988661 
L 616 304.210956 
L 628.571429 303.991414 
L 641.142857 303.932178 
L 653.714286 304.029055 
L 666.285714 304.246035 
L 678.857143 304.19915 
L 691.428571 304.260815 
L 704 304.18137 
L 716.571429 303.948499 
L 729.142857 304.168798 
L 741.714286 304.115584 
L 754.285714 304.026337 
L 766.857143 304.22001 
L 779.428571 304.226939 
" clip-path="url(#p514a4b6e59)" style="fill: none; stroke: #000000; stroke-width: 1.5; stroke-linecap: square"/>
   </g>
   <g id="line2d_9">
    <path d="M 0 306 
L 12.571429 306 
L 25.142857 298.475501 
L 37.714286 301.745175 
L 50.285714 302.623796 
L 62.857143 303.761532 
L 75.428571 303.801565 
L 88 303.840537 
L 100.571429 304.172514 
L 113.142857 303.641497 
L 125.714286 304.789411 
L 138.285714 304.466879 
L 150.857143 304.176644 
L 163.428571 304.199405 
L 176 304.844154 
L 188.571429 303.726719 
L 201.142857 303.749056 
L 213.714286 303.498825 
L 226.285714 303.423971 
L 238.857143 302.067995 
L 251.428571 301.597994 
L 264 302.077668 
L 276.571429 302.090981 
L 289.142857 302.597553 
L 301.714286 302.374583 
L 314.285714 301.874541 
L 326.857143 301.988325 
L 339.428571 302.062455 
L 352 302.506463 
L 364.571429 302.177455 
L 377.142857 302.055126 
L 389.714286 302.192347 
L 402.285714 302.437425 
L 414.857143 302.682949 
L 427.428571 302.903095 
L 440 302.944624 
L 452.571429 302.997461 
L 465.142857 302.81623 
L 477.714286 302.926314 
L 490.285714 303.07534 
L 502.857143 303.324912 
L 515.428571 303.260785 
L 528 303.272305 
L 540.571429 303.376665 
L 553.142857 303.423458 
L 565.714286 303.646657 
L 578.285714 303.891621 
L 590.857143 303.912658 
L 603.428571 303.88011 
L 616 304.079548 
L 628.571429 303.888512 
L 641.142857 303.838585 
L 653.714286 303.925864 
L 666.285714 304.118524 
L 678.857143 304.080188 
L 691.428571 304.13655 
L 704 304.069875 
L 716.571429 303.869648 
L 729.142857 304.062352 
L 741.714286 304.018392 
L 754.285714 303.943209 
L 766.857143 304.111686 
L 779.428571 304.119695 
" clip-path="url(#p514a4b6e59)" style="fill: none; stroke: #000000; stroke-width: 1.5; stroke-linecap: square"/>
   </g>
  </g>
 </g>
 <defs>
  <clipPath id="p514a4b6e59">
   <rect x="0" y="0" width="792" height="612"/>
  </clipPath>
 </defs>
</svg>
