<?xml version="1.0" encoding="utf-8" standalone="no"?>
<!DOCTYPE svg PUBLIC "-//W3C//DTD SVG 1.1//EN"
  "http://www.w3.org/Graphics/SVG/1.1/DTD/svg11.dtd">
<svg xmlns:xlink="http://www.w3.org/1999/xlink" width="792pt" height="612pt" viewBox="0 0 792 612" xmlns="http://www.w3.org/2000/svg" version="1.1">
 <metadata>
  <rdf:RDF xmlns:dc="http://purl.org/dc/elements/1.1/" xmlns:cc="http://creativecommons.org/ns#" xmlns:rdf="http://www.w3.org/1999/02/22-rdf-syntax-ns#">
   <cc:Work>
    <dc:type rdf:resource="http://purl.org/dc/dcmitype/StillImage"/>
    <dc:date>2022-12-26T20:26:15.552438</dc:date>
    <dc:format>image/svg+xml</dc:format>
    <dc:creator>
     <cc:Agent>
      <dc:title>Matplotlib v3.6.2, https://matplotlib.org/</dc:title>
     </cc:Agent>
    </dc:creator>
   </cc:Work>
  </rdf:RDF>
 </metadata>
 <defs>
  <style type="text/css">*{stroke-linejoin: round; stroke-linecap: butt}</style>
 </defs>
 <g id="figure_1">
  <g id="patch_1">
   <path d="M 0 612 
L 792 612 
L 792 0 
L 0 0 
z
" style="fill: #ffffff"/>
  </g>
  <g id="axes_1">
   <g id="line2d_1">
    <path d="M 0 306 
L 12.375 306.338704 
L 24.75 295.992993 
L 37.125 309.499786 
L 49.5 309.424528 
L 61.875 292.554598 
L 74.25 290.207869 
L 86.625 308.352063 
L 99 305.190876 
L 111.375 308.370879 
L 123.75 303.892543 
L 136.125 303.967808 
L 148.5 306.470421 
L 160.875 299.151802 
L 173.25 315.311477 
L 185.625 301.089218 
L 198 300.825853 
L 210.375 304.381764 
L 222.75 313.280756 
L 235.125 287.806749 
L 247.5 303.967808 
L 259.875 299.339879 
L 272.25 302.011049 
L 284.625 277.518662 
L 297 292.460697 
L 309.375 311.418693 
L 321.75 302.161559 
L 334.125 313.450009 
L 346.5 297.120929 
L 358.875 289.851322 
L 371.25 304.569928 
L 383.625 303.742016 
L 396 314.032959 
L 408.375 293.00536 
L 420.75 298.399547 
L 433.125 305.981183 
L 445.5 309.593858 
L 457.875 310.083019 
L 470.25 309.725557 
L 482.625 304.137153 
L 495 304.607561 
L 507.375 296.425338 
L 519.75 306.639773 
L 532.125 308.295616 
L 544.5 312.396805 
L 556.875 300.694173 
L 569.25 303.572674 
L 581.625 307.354806 
L 594 305.17206 
L 606.375 312.697737 
L 618.75 314.051763 
L 631.125 304.701644 
L 643.5 302.3497 
L 655.875 312.829391 
L 668.25 295.147218 
L 680.625 301.42784 
L 693 307.90048 
L 705.375 313.186724 
L 717.75 302.123931 
L 730.125 306.809124 
L 742.5 300.63774 
L 754.875 293.606464 
L 767.25 313.882526 
L 779.625 301.615968 
" clip-path="url(#pd86c9c888e)" style="fill: none; stroke: #000000; stroke-width: 1.5; stroke-linecap: square"/>
   </g>
   <g id="line2d_2">
    <path d="M 0 306 
L 12.375 306 
L 24.75 306.225802 
L 37.125 300.377076 
L 49.5 305.242309 
L 61.875 307.400937 
L 74.25 299.85637 
L 86.625 294.9914 
L 99 301.695869 
L 111.375 303.441703 
L 123.75 305.910269 
L 136.125 304.916891 
L 148.5 304.431498 
L 160.875 305.445161 
L 173.25 302.311038 
L 185.625 308.861779 
L 198 304.961091 
L 210.375 302.884771 
L 222.75 303.625432 
L 235.125 308.472114 
L 247.5 298.098744 
L 259.875 301.027913 
L 272.25 300.18422 
L 284.625 301.071512 
L 297 289.223996 
L 309.375 290.825543 
L 321.75 301.130383 
L 334.125 301.624158 
L 346.5 307.587982 
L 358.875 302.339961 
L 371.25 296.072898 
L 383.625 300.325334 
L 396 302.085123 
L 408.375 308.102144 
L 420.75 300.514325 
L 433.125 299.449482 
L 445.5 302.700312 
L 457.875 306.171566 
L 470.25 308.167077 
L 482.625 308.956445 
L 495 306.547607 
L 507.375 305.559095 
L 519.75 300.997814 
L 532.125 303.834767 
L 544.5 306.069733 
L 556.875 309.239112 
L 569.25 304.94803 
L 581.625 304.248279 
L 594 305.807847 
L 606.375 305.491059 
L 618.75 309.126739 
L 631.125 311.604145 
L 643.5 308.146121 
L 655.875 305.228141 
L 668.25 309.053029 
L 680.625 302.081582 
L 693 301.743086 
L 705.375 304.827013 
L 717.75 309.008389 
L 730.125 305.542713 
L 742.5 306.180052 
L 754.875 303.405326 
L 767.25 298.466287 
L 779.625 306.211265 
" clip-path="url(#pd86c9c888e)" style="fill: none; stroke: #000000; stroke-width: 1.5; stroke-linecap: square"/>
   </g>
   <g id="line2d_3">
    <path d="M 0 306 
L 12.375 306 
L 24.75 306.198408 
L 37.125 301.573211 
L 49.5 304.668611 
L 61.875 306.360756 
L 74.25 301.736726 
L 86.625 298.029705 
L 99 301.253765 
L 111.375 302.460131 
L 123.75 304.247118 
L 136.125 304.140918 
L 148.5 304.08941 
L 160.875 304.794572 
L 173.25 303.128572 
L 185.625 306.71747 
L 198 305.062408 
L 210.375 303.815497 
L 222.75 303.979104 
L 235.125 306.723737 
L 247.5 301.152253 
L 259.875 301.970579 
L 272.25 301.207786 
L 284.625 301.45662 
L 297 294.390967 
L 309.375 293.810892 
L 321.75 298.96844 
L 334.125 299.901568 
L 346.5 303.880602 
L 358.875 301.889491 
L 371.25 298.349916 
L 383.625 300.158953 
L 396 301.211333 
L 408.375 304.98214 
L 420.75 301.459187 
L 433.125 300.545827 
L 445.5 302.158499 
L 457.875 304.34265 
L 470.25 306.036365 
L 482.625 307.125815 
L 495 306.281122 
L 507.375 305.804906 
L 519.75 303.039645 
L 532.125 304.099202 
L 544.5 305.322377 
L 556.875 307.412241 
L 569.25 305.456887 
L 581.625 304.903858 
L 594 305.625873 
L 606.375 305.482774 
L 618.75 307.618915 
L 631.125 309.521434 
L 643.5 308.108355 
L 655.875 306.413335 
L 668.25 308.295999 
L 680.625 304.426771 
L 693 303.545235 
L 705.375 304.824615 
L 717.75 307.293452 
L 730.125 305.774092 
L 742.5 306.075539 
L 754.875 304.469188 
L 767.25 301.277801 
L 779.625 304.981733 
" clip-path="url(#pd86c9c888e)" style="fill: none; stroke: #000000; stroke-width: 1.5; stroke-linecap: square"/>
   </g>
   <g id="line2d_4">
    <path d="M 0 306 
L 12.375 306 
L 24.75 306.183988 
L 37.125 302.183185 
L 49.5 304.511305 
L 61.875 305.860156 
L 74.25 302.583399 
L 86.625 299.778923 
L 99 301.597251 
L 111.375 302.321136 
L 123.75 303.490286 
L 136.125 303.565461 
L 148.5 303.63862 
L 160.875 304.142075 
L 173.25 303.270977 
L 185.625 305.340916 
L 198 304.619295 
L 210.375 303.982203 
L 222.75 304.048714 
L 235.125 305.574464 
L 247.5 302.652971 
L 259.875 302.867805 
L 272.25 302.293734 
L 284.625 302.247906 
L 297 298.239086 
L 309.375 297.307 
L 321.75 299.576377 
L 334.125 299.991493 
L 346.5 302.149443 
L 358.875 301.343887 
L 371.25 299.503493 
L 383.625 300.313176 
L 396 300.860783 
L 408.375 302.961524 
L 420.75 301.368164 
L 433.125 300.897276 
L 445.5 301.703833 
L 457.875 302.959159 
L 470.25 304.103511 
L 482.625 305.010198 
L 495 304.868662 
L 507.375 304.826756 
L 519.75 303.482159 
L 532.125 303.986243 
L 544.5 304.67457 
L 556.875 305.907045 
L 569.25 305.078539 
L 581.625 304.83162 
L 594 305.236976 
L 606.375 305.229359 
L 618.75 306.422963 
L 631.125 307.637494 
L 643.5 307.180951 
L 655.875 306.411249 
L 668.25 307.440986 
L 680.625 305.480003 
L 693 304.850209 
L 705.375 305.345158 
L 717.75 306.594091 
L 730.125 305.882817 
L 742.5 306.026052 
L 754.875 305.170862 
L 767.25 303.33226 
L 779.625 305.01688 
" clip-path="url(#pd86c9c888e)" style="fill: none; stroke: #000000; stroke-width: 1.5; stroke-linecap: square"/>
   </g>
   <g id="line2d_5">
    <path d="M 0 306 
L 12.375 306 
L 24.75 306.176684 
L 37.125 302.482992 
L 49.5 304.471257 
L 61.875 305.640578 
L 74.25 302.959839 
L 86.625 300.630377 
L 99 301.911906 
L 111.375 302.414435 
L 123.75 303.267379 
L 136.125 303.351821 
L 148.5 303.430905 
L 160.875 303.804183 
L 173.25 303.254594 
L 185.625 304.630601 
L 198 304.238671 
L 210.375 303.871135 
L 222.75 303.924796 
L 235.125 304.886861 
L 247.5 303.162785 
L 259.875 303.242523 
L 272.25 302.862004 
L 284.625 302.780229 
L 297 300.376789 
L 309.375 299.634242 
L 321.75 300.726926 
L 334.125 300.858687 
L 346.5 302.004962 
L 358.875 301.563733 
L 371.25 300.512557 
L 383.625 300.873876 
L 396 301.12776 
L 408.375 302.263931 
L 420.75 301.452362 
L 433.125 301.186116 
L 445.5 301.602429 
L 457.875 302.293619 
L 470.25 302.965015 
L 482.625 303.545886 
L 495 303.596541 
L 507.375 303.682925 
L 519.75 303.064102 
L 532.125 303.368179 
L 544.5 303.78636 
L 556.875 304.515827 
L 569.25 304.192606 
L 581.625 304.140261 
L 594 304.411285 
L 606.375 304.475343 
L 618.75 305.166935 
L 631.125 305.913487 
L 643.5 305.811784 
L 655.875 305.52149 
L 668.25 306.133799 
L 680.625 305.213742 
L 693 304.897028 
L 705.375 305.148101 
L 717.75 305.819795 
L 730.125 305.511177 
L 742.5 305.6195 
L 754.875 305.203885 
L 767.25 304.236306 
L 779.625 305.040458 
" clip-path="url(#pd86c9c888e)" style="fill: none; stroke: #000000; stroke-width: 1.5; stroke-linecap: square"/>
   </g>
   <g id="line2d_6">
    <path d="M 0 306 
L 12.375 306 
L 24.75 306.17302 
L 37.125 302.630551 
L 49.5 304.460967 
L 61.875 305.54152 
L 74.25 303.134512 
L 86.625 301.037514 
L 99 302.096152 
L 111.375 302.502492 
L 123.75 303.210104 
L 136.125 303.286429 
L 148.5 303.357687 
L 160.875 303.664148 
L 173.25 303.243382 
L 185.625 304.314285 
L 198 304.040796 
L 210.375 303.779252 
L 222.75 303.826425 
L 235.125 304.541083 
L 247.5 303.315381 
L 259.875 303.361684 
L 272.25 303.084135 
L 284.625 303.012009 
L 297 301.334897 
L 309.375 300.765684 
L 321.75 301.433913 
L 334.125 301.478651 
L 346.5 302.200908 
L 358.875 301.899727 
L 371.25 301.196744 
L 383.625 301.390259 
L 396 301.52319 
L 408.375 302.220493 
L 420.75 301.713263 
L 433.125 301.533222 
L 445.5 301.771966 
L 457.875 302.187126 
L 470.25 302.601797 
L 482.625 302.972174 
L 495 303.03217 
L 507.375 303.112569 
L 519.75 302.774081 
L 532.125 302.968076 
L 544.5 303.233368 
L 556.875 303.686367 
L 569.25 303.539471 
L 581.625 303.54109 
L 594 303.725869 
L 606.375 303.795519 
L 618.75 304.221842 
L 631.125 304.690062 
L 643.5 304.69061 
L 655.875 304.58025 
L 668.25 304.96734 
L 680.625 304.508458 
L 693 304.365175 
L 705.375 304.528917 
L 717.75 304.92841 
L 730.125 304.799497 
L 742.5 304.891538 
L 754.875 304.69735 
L 767.25 304.192445 
L 779.625 304.632026 
" clip-path="url(#pd86c9c888e)" style="fill: none; stroke: #000000; stroke-width: 1.5; stroke-linecap: square"/>
   </g>
   <g id="line2d_7">
    <path d="M 0 306 
L 12.375 306 
L 24.75 306.171186 
L 37.125 302.703618 
L 49.5 304.458214 
L 61.875 305.494986 
L 74.25 303.218353 
L 86.625 301.234964 
L 99 302.193358 
L 111.375 302.555965 
L 123.75 303.195706 
L 136.125 303.266135 
L 148.5 303.331821 
L 160.875 303.605846 
L 173.25 303.240928 
L 185.625 304.173468 
L 198 303.947805 
L 210.375 303.730618 
L 222.75 303.773832 
L 235.125 304.377705 
L 247.5 303.366488 
L 259.875 303.401743 
L 272.25 303.172098 
L 284.625 303.10869 
L 297 301.751906 
L 309.375 301.275431 
L 321.75 301.780122 
L 334.125 301.79858 
L 346.5 302.347594 
L 358.875 302.107409 
L 371.25 301.55727 
L 383.625 301.689257 
L 396 301.777223 
L 408.375 302.291437 
L 420.75 301.909408 
L 433.125 301.767867 
L 445.5 301.934574 
L 457.875 302.23223 
L 470.25 302.532107 
L 482.625 302.802346 
L 495 302.851697 
L 507.375 302.91562 
L 519.75 302.682731 
L 532.125 302.822638 
L 544.5 303.013486 
L 556.875 303.336382 
L 569.25 303.246618 
L 581.625 303.257556 
L 594 303.393361 
L 606.375 303.451635 
L 618.75 303.751191 
L 631.125 304.081314 
L 643.5 304.100983 
L 655.875 304.046016 
L 668.25 304.318994 
L 680.625 304.036567 
L 693 303.957011 
L 705.375 304.076178 
L 717.75 304.349129 
L 730.125 304.28303 
L 742.5 304.357445 
L 754.875 304.248726 
L 767.25 303.939932 
L 779.625 304.226126 
" clip-path="url(#pd86c9c888e)" style="fill: none; stroke: #000000; stroke-width: 1.5; stroke-linecap: square"/>
   </g>
   <g id="line2d_8">
    <path d="M 0 306 
L 12.375 306 
L 24.75 306.170269 
L 37.125 302.739957 
L 49.5 304.457427 
L 61.875 305.4725 
L 74.25 303.259394 
L 86.625 301.331995 
L 99 302.243004 
L 111.375 302.584888 
L 123.75 303.192048 
L 136.125 303.259232 
L 148.5 303.32186 
L 160.875 303.580093 
L 173.25 303.240981 
L 185.625 304.108271 
L 198 303.90385 
L 210.375 303.706663 
L 222.75 303.747719 
L 235.125 304.299914 
L 247.5 303.386528 
L 259.875 303.417307 
L 272.25 303.210103 
L 284.625 303.151523 
L 297 301.941487 
L 309.375 301.510629 
L 321.75 301.945473 
L 334.125 301.954653 
L 346.5 302.428022 
L 358.875 302.215866 
L 371.25 301.73525 
L 383.625 301.842308 
L 396 301.912171 
L 408.375 302.346654 
L 420.75 302.019783 
L 433.125 301.896154 
L 445.5 302.032427 
L 457.875 302.2791 
L 470.25 302.528244 
L 482.625 302.753263 
L 495 302.795662 
L 507.375 302.850093 
L 519.75 302.660662 
L 532.125 302.77578 
L 544.5 302.932624 
L 556.875 303.196907 
L 569.25 303.128192 
L 581.625 303.140195 
L 594 303.252176 
L 606.375 303.302395 
L 618.75 303.544448 
L 631.125 303.811171 
L 643.5 303.833447 
L 655.875 303.796849 
L 668.25 304.016599 
L 680.625 303.803623 
L 693 303.747342 
L 705.375 303.844463 
L 717.75 304.06024 
L 730.125 304.016064 
L 742.5 304.079023 
L 754.875 304.002344 
L 767.25 303.773223 
L 779.625 303.993444 
" clip-path="url(#pd86c9c888e)" style="fill: none; stroke: #000000; stroke-width: 1.5; stroke-linecap: square"/>
   </g>
   <g id="line2d_9">
    <path d="M 0 306 
L 12.375 306 
L 24.75 306.16981 
L 37.125 302.758076 
L 49.5 304.45718 
L 61.875 305.461457 
L 74.25 303.279695 
L 86.625 301.380068 
L 99 302.268059 
L 111.375 302.599871 
L 123.75 303.191094 
L 136.125 303.256602 
L 148.5 303.317649 
L 160.875 303.568116 
L 173.25 303.241384 
L 185.625 304.077071 
L 198 303.882633 
L 210.375 303.694909 
L 222.75 303.734849 
L 235.125 304.262181 
L 247.5 303.395312 
L 259.875 303.424075 
L 272.25 303.227651 
L 284.625 303.171543 
L 297 302.031273 
L 309.375 301.622767 
L 321.75 302.025548 
L 334.125 302.030948 
L 346.5 302.469282 
L 358.875 302.270476 
L 371.25 301.822721 
L 383.625 301.918718 
L 396 301.980603 
L 408.375 302.378359 
L 420.75 302.077142 
L 433.125 301.962085 
L 445.5 302.084616 
L 457.875 302.307951 
L 470.25 302.533701 
L 482.625 302.737697 
L 495 302.776502 
L 507.375 302.826166 
L 519.75 302.656178 
L 532.125 302.759735 
L 544.5 302.900741 
L 556.875 303.13788 
L 569.25 303.078022 
L 581.625 303.08991 
L 594 303.19053 
L 606.375 303.236445 
L 618.75 303.451869 
L 631.125 303.689115 
L 643.5 303.711396 
L 655.875 303.681919 
L 668.25 303.876777 
L 680.625 303.693661 
L 693 303.646878 
L 705.375 303.733374 
L 717.75 303.9228 
L 730.125 303.887276 
L 742.5 303.944156 
L 754.875 303.880673 
L 767.25 303.685998 
L 779.625 303.876529 
" clip-path="url(#pd86c9c888e)" style="fill: none; stroke: #000000; stroke-width: 1.5; stroke-linecap: square"/>
   </g>
  </g>
 </g>
 <defs>
  <clipPath id="pd86c9c888e">
   <rect x="0" y="0" width="792" height="612"/>
  </clipPath>
 </defs>
</svg>
