<?xml version="1.0" encoding="utf-8" standalone="no"?>
<!DOCTYPE svg PUBLIC "-//W3C//DTD SVG 1.1//EN"
  "http://www.w3.org/Graphics/SVG/1.1/DTD/svg11.dtd">
<svg xmlns:xlink="http://www.w3.org/1999/xlink" width="792pt" height="612pt" viewBox="0 0 792 612" xmlns="http://www.w3.org/2000/svg" version="1.1">
 <metadata>
  <rdf:RDF xmlns:dc="http://purl.org/dc/elements/1.1/" xmlns:cc="http://creativecommons.org/ns#" xmlns:rdf="http://www.w3.org/1999/02/22-rdf-syntax-ns#">
   <cc:Work>
    <dc:type rdf:resource="http://purl.org/dc/dcmitype/StillImage"/>
    <dc:date>2023-01-09T02:28:10.029320</dc:date>
    <dc:format>image/svg+xml</dc:format>
    <dc:creator>
     <cc:Agent>
      <dc:title>Matplotlib v3.6.2, https://matplotlib.org/</dc:title>
     </cc:Agent>
    </dc:creator>
   </cc:Work>
  </rdf:RDF>
 </metadata>
 <defs>
  <style type="text/css">*{stroke-linejoin: round; stroke-linecap: butt}</style>
 </defs>
 <g id="figure_1">
  <g id="patch_1">
   <path d="M 0 612 
L 792 612 
L 792 0 
L 0 0 
z
" style="fill: #ffffff"/>
  </g>
  <g id="axes_1">
   <g id="line2d_1">
    <path d="M 0 459 
L 12.774194 456.225533 
L 25.548387 456.86776 
L 38.322581 447.519046 
L 51.096774 459.411037 
L 63.870968 453.528328 
L 76.645161 446.466485 
L 89.419355 444.259115 
L 102.193548 454.196179 
L 114.967742 429.369521 
L 127.741935 426.607694 
L 140.516129 417.572606 
L 153.290323 412.176762 
L 166.064516 374.008036 
L 178.83871 356.287383 
L 191.612903 363.340391 
L 204.387097 358.339412 
L 217.16129 368.069008 
L 229.935484 356.48263 
L 242.709677 335.754463 
L 255.483871 333.944878 
L 268.258065 331.096189 
L 281.032258 341.279836 
L 293.806452 324.86681 
L 306.580645 315.438349 
L 319.354839 315.415172 
L 332.129032 319.856451 
L 344.903226 324.937301 
L 357.677419 329.604875 
L 370.451613 327.267377 
L 383.225806 325.524998 
L 396 313.656156 
L 408.774194 314.442502 
L 421.548387 317.271832 
L 434.322581 325.219336 
L 447.096774 318.621128 
L 459.870968 315.623788 
L 472.645161 317.295073 
L 485.419355 316.273235 
L 498.193548 324.584914 
L 510.967742 334.706301 
L 523.741935 333.065409 
L 536.516129 328.470623 
L 549.290323 337.090492 
L 562.064516 323.43499 
L 574.83871 317.760059 
L 587.612903 320.113118 
L 600.387097 329.084795 
L 613.16129 324.2327 
L 625.935484 325.242844 
L 638.709677 318.574556 
L 651.483871 303.407562 
L 664.258065 313.009288 
L 677.032258 307.651625 
L 689.806452 300.210146 
L 702.580645 308.774575 
L 715.354839 306.896495 
L 728.129032 308.361828 
L 740.903226 309.922523 
L 753.677419 304.249452 
L 766.451613 306.713572 
L 779.225806 287.420232 
" clip-path="url(#p3ef876fc9a)" style="fill: none; stroke: #000000; stroke-width: 1.5; stroke-linecap: square"/>
   </g>
   <g id="line2d_2">
    <path d="M 0 459 
L 12.774194 459 
L 25.548387 457.150343 
L 38.322581 456.988867 
L 51.096774 451.93757 
L 63.870968 456.218904 
L 76.645161 454.852227 
L 89.419355 450.625644 
L 102.193548 447.429339 
L 114.967742 450.802898 
L 127.741935 440.023226 
L 140.516129 433.250704 
L 153.290323 425.343183 
L 166.064516 418.657809 
L 178.83871 396.026583 
L 191.612903 375.821818 
L 204.387097 369.408616 
L 217.16129 363.676579 
L 229.935484 365.753114 
L 242.709677 360.972987 
L 255.483871 348.118417 
L 268.258065 340.852651 
L 281.032258 335.876839 
L 293.806452 338.544777 
L 306.580645 331.600828 
L 319.354839 323.390853 
L 332.129032 319.291024 
L 344.903226 319.503587 
L 357.677419 322.19421 
L 370.451613 325.881629 
L 383.225806 326.566693 
L 396 326.015064 
L 408.774194 319.785827 
L 421.548387 317.10689 
L 434.322581 317.193001 
L 447.096774 321.205086 
L 459.870968 319.899542 
L 472.645161 317.731056 
L 485.419355 317.49361 
L 498.193548 316.86511 
L 510.967742 320.735737 
L 523.741935 327.727811 
L 536.516129 330.423085 
L 549.290323 329.452615 
L 562.064516 333.298625 
L 574.83871 328.365903 
L 587.612903 323.044008 
L 600.387097 321.58459 
L 613.16129 325.333748 
L 625.935484 324.762606 
L 638.709677 324.987433 
L 651.483871 321.754284 
L 664.258065 312.450457 
L 677.032258 312.709537 
L 689.806452 310.155789 
L 702.580645 305.123905 
L 715.354839 306.907436 
L 728.129032 306.868425 
L 740.903226 307.582041 
L 753.677419 308.734368 
L 766.451613 306.489476 
L 779.225806 306.589234 
" clip-path="url(#p3ef876fc9a)" style="fill: none; stroke: #000000; stroke-width: 1.5; stroke-linecap: square"/>
   </g>
   <g id="line2d_3">
    <path d="M 0 459 
L 12.774194 459 
L 25.548387 457.374742 
L 38.322581 457.145037 
L 51.096774 453.385192 
L 63.870968 455.821472 
L 76.645161 455.053853 
L 89.419355 452.294213 
L 102.193548 449.783219 
L 114.967742 451.135365 
L 127.741935 444.546417 
L 140.516129 439.166418 
L 153.290323 432.727776 
L 166.064516 426.626479 
L 178.83871 410.9396 
L 191.612903 394.62515 
L 204.387097 385.348456 
L 217.16129 377.260276 
L 229.935484 374.461655 
L 242.709677 369.052257 
L 255.483871 359.053258 
L 268.258065 351.485324 
L 281.032258 345.326741 
L 293.806452 344.02331 
L 306.580645 338.232457 
L 319.354839 331.330944 
L 332.129032 326.507356 
L 344.903226 324.436128 
L 357.677419 324.48151 
L 370.451613 325.887901 
L 383.225806 326.23951 
L 396 325.995482 
L 408.774194 322.30261 
L 421.548387 319.941675 
L 434.322581 319.101972 
L 447.096774 320.853175 
L 459.870968 320.179183 
L 472.645161 318.820896 
L 485.419355 318.357915 
L 498.193548 317.71837 
L 510.967742 319.72217 
L 523.741935 324.101113 
L 536.516129 326.735789 
L 549.290323 327.253423 
L 562.064516 330.135456 
L 574.83871 328.159487 
L 587.612903 325.086814 
L 600.387097 323.620198 
L 613.16129 325.234303 
L 625.935484 324.952132 
L 638.709677 325.046472 
L 651.483871 323.137059 
L 664.258065 317.279182 
L 677.032258 316.022694 
L 689.806452 313.548503 
L 702.580645 309.593537 
L 715.354839 309.3356 
L 728.129032 308.588844 
L 740.903226 308.494481 
L 753.677419 308.891432 
L 766.451613 307.49121 
L 779.225806 307.244368 
" clip-path="url(#p3ef876fc9a)" style="fill: none; stroke: #000000; stroke-width: 1.5; stroke-linecap: square"/>
   </g>
   <g id="line2d_4">
    <path d="M 0 459 
L 12.774194 459 
L 25.548387 457.492859 
L 38.322581 457.247529 
L 51.096774 454.151269 
L 63.870968 455.820829 
L 76.645161 455.256579 
L 89.419355 453.265871 
L 102.193548 451.354591 
L 114.967742 451.927001 
L 127.741935 447.56128 
L 140.516129 443.639121 
L 153.290323 438.887015 
L 166.064516 434.122902 
L 178.83871 423.508789 
L 191.612903 411.760089 
L 204.387097 403.435848 
L 217.16129 395.760662 
L 229.935484 391.112525 
L 242.709677 385.323683 
L 255.483871 377.025447 
L 268.258065 369.860111 
L 281.032258 363.445379 
L 293.806452 359.817009 
L 306.580645 354.072797 
L 319.354839 347.719238 
L 332.129032 342.431903 
L 344.903226 338.761911 
L 357.677419 336.528395 
L 370.451613 335.415408 
L 383.225806 334.106001 
L 396 332.727816 
L 408.774194 329.64749 
L 421.548387 327.120804 
L 434.322581 325.462513 
L 447.096774 325.346357 
L 459.870968 324.195913 
L 472.645161 322.739849 
L 485.419355 321.790571 
L 498.193548 320.833123 
L 510.967742 321.35845 
L 523.741935 323.395993 
L 536.516129 324.869098 
L 549.290323 325.382795 
L 562.064516 327.185645 
L 574.83871 326.534554 
L 587.612903 325.096956 
L 600.387097 324.27948 
L 613.16129 325.021078 
L 625.935484 324.874739 
L 638.709677 324.90727 
L 651.483871 323.872641 
L 664.258065 320.553894 
L 677.032258 319.334872 
L 689.806452 317.447509 
L 702.580645 314.648135 
L 715.354839 313.700051 
L 728.129032 312.607374 
L 740.903226 311.925597 
L 753.677419 311.600313 
L 766.451613 310.412147 
L 779.225806 309.808123 
" clip-path="url(#p3ef876fc9a)" style="fill: none; stroke: #000000; stroke-width: 1.5; stroke-linecap: square"/>
   </g>
   <g id="line2d_5">
    <path d="M 0 459 
L 12.774194 459 
L 25.548387 457.552694 
L 38.322581 457.30434 
L 51.096774 454.530978 
L 63.870968 455.876995 
L 76.645161 455.39614 
L 89.419355 453.765982 
L 102.193548 452.187388 
L 114.967742 452.495262 
L 127.741935 449.178708 
L 140.516129 446.124744 
L 153.290323 442.448714 
L 166.064516 438.717764 
L 178.83871 430.98095 
L 191.612903 422.303999 
L 204.387097 415.681133 
L 217.16129 409.406455 
L 229.935484 405.011485 
L 242.709677 399.945082 
L 255.483871 393.319204 
L 268.258065 387.300038 
L 281.032258 381.691741 
L 293.806452 377.742987 
L 306.580645 372.605018 
L 319.354839 367.093497 
L 332.129032 362.172769 
L 344.903226 358.20011 
L 357.677419 355.118916 
L 370.451613 352.783726 
L 383.225806 350.46455 
L 396 348.212857 
L 408.774194 345.091959 
L 421.548387 342.344589 
L 434.322581 340.115479 
L 447.096774 338.805254 
L 459.870968 337.031243 
L 472.645161 335.155025 
L 485.419355 333.598485 
L 498.193548 332.093661 
L 510.967742 331.447401 
L 523.741935 331.725318 
L 536.516129 331.839451 
L 549.290323 331.552363 
L 562.064516 332.020862 
L 574.83871 331.289681 
L 587.612903 330.135733 
L 600.387097 329.284129 
L 613.16129 329.26732 
L 625.935484 328.842061 
L 638.709677 328.538684 
L 651.483871 327.69628 
L 664.258065 325.624282 
L 677.032258 324.557728 
L 689.806452 323.125163 
L 702.580645 321.176073 
L 715.354839 320.129838 
L 728.129032 319.013399 
L 740.903226 318.116909 
L 753.677419 317.428782 
L 766.451613 316.318541 
L 779.225806 315.51184 
" clip-path="url(#p3ef876fc9a)" style="fill: none; stroke: #000000; stroke-width: 1.5; stroke-linecap: square"/>
   </g>
   <g id="line2d_6">
    <path d="M 0 459 
L 12.774194 459 
L 25.548387 457.58271 
L 38.322581 457.333997 
L 51.096774 454.718064 
L 63.870968 455.918599 
L 76.645161 455.475847 
L 89.419355 454.015287 
L 102.193548 452.60258 
L 114.967742 452.811829 
L 127.741935 449.980799 
L 140.516129 447.362096 
L 153.290323 444.237721 
L 166.064516 441.069498 
L 178.83871 434.739129 
L 191.612903 427.650188 
L 204.387097 422.111533 
L 217.16129 416.834788 
L 229.935484 412.966661 
L 242.709677 408.624835 
L 255.483871 403.156669 
L 268.258065 398.117275 
L 281.032258 393.369992 
L 293.806452 389.79748 
L 306.580645 385.418434 
L 319.354839 380.785173 
L 332.129032 376.553771 
L 344.903226 372.970654 
L 357.677419 370.004065 
L 370.451613 367.561904 
L 383.225806 365.165346 
L 396 362.844244 
L 408.774194 359.988171 
L 421.548387 357.384595 
L 434.322581 355.128248 
L 447.096774 353.476624 
L 459.870968 351.56806 
L 472.645161 349.619717 
L 485.419355 347.889536 
L 498.193548 346.214475 
L 510.967742 345.086392 
L 523.741935 344.553503 
L 536.516129 343.96838 
L 549.290323 343.183515 
L 562.064516 342.87903 
L 574.83871 341.906589 
L 587.612903 340.703575 
L 600.387097 339.686778 
L 613.16129 339.169802 
L 625.935484 338.443809 
L 638.709677 337.806545 
L 651.483871 336.879504 
L 664.258065 335.258069 
L 677.032258 334.193951 
L 689.806452 332.926421 
L 702.580645 331.363603 
L 715.354839 330.296935 
L 728.129032 329.195661 
L 740.903226 328.220691 
L 753.677419 327.369045 
L 766.451613 326.292888 
L 779.225806 325.386882 
" clip-path="url(#p3ef876fc9a)" style="fill: none; stroke: #000000; stroke-width: 1.5; stroke-linecap: square"/>
   </g>
   <g id="line2d_7">
    <path d="M 0 459 
L 12.774194 459 
L 25.548387 457.59773 
L 38.322581 457.349117 
L 51.096774 454.810677 
L 63.870968 455.9426 
L 76.645161 455.518105 
L 89.419355 454.139143 
L 102.193548 452.808044 
L 114.967742 452.975973 
L 127.741935 450.374836 
L 140.516129 447.968437 
L 153.290323 445.114665 
L 166.064516 442.22812 
L 178.83871 436.569634 
L 191.612903 430.253015 
L 204.387097 425.27961 
L 217.16129 420.541324 
L 229.935484 417.011388 
L 242.709677 413.099122 
L 255.483871 408.260063 
L 268.258065 403.785634 
L 281.032258 399.562447 
L 293.806452 396.309749 
L 306.580645 392.420223 
L 319.354839 388.337752 
L 332.129032 384.585488 
L 344.903226 381.357863 
L 357.677419 378.628705 
L 370.451613 376.324603 
L 383.225806 374.072665 
L 396 371.894427 
L 408.774194 369.321786 
L 421.548387 366.951529 
L 434.322581 364.854469 
L 447.096774 363.22296 
L 459.870968 361.414815 
L 472.645161 359.589302 
L 485.419355 357.935066 
L 498.193548 356.332459 
L 510.967742 355.137765 
L 523.741935 354.385659 
L 536.516129 353.611945 
L 549.290323 352.710401 
L 562.064516 352.161026 
L 574.83871 351.156104 
L 587.612903 349.999093 
L 600.387097 348.978639 
L 613.16129 348.311629 
L 625.935484 347.511491 
L 638.709677 346.780561 
L 651.483871 345.86116 
L 664.258065 344.477941 
L 677.032258 343.470661 
L 689.806452 342.331716 
L 702.580645 340.998645 
L 715.354839 339.995283 
L 728.129032 338.973095 
L 740.903226 338.03747 
L 753.677419 337.186799 
L 766.451613 336.194748 
L 779.225806 335.315951 
" clip-path="url(#p3ef876fc9a)" style="fill: none; stroke: #000000; stroke-width: 1.5; stroke-linecap: square"/>
   </g>
   <g id="line2d_8">
    <path d="M 0 459 
L 12.774194 459 
L 25.548387 457.605242 
L 38.322581 457.356747 
L 51.096774 454.856722 
L 63.870968 455.955372 
L 76.645161 455.539818 
L 89.419355 454.200794 
L 102.193548 452.910017 
L 114.967742 453.059188 
L 127.741935 450.56943 
L 140.516129 448.267151 
L 153.290323 445.546253 
L 166.064516 442.799064 
L 178.83871 437.465725 
L 191.612903 431.525176 
L 204.387097 426.834637 
L 217.16129 422.369196 
L 229.935484 419.020986 
L 242.709677 415.333852 
L 255.483871 410.814051 
L 268.258065 406.63236 
L 281.032258 402.685705 
L 293.806452 399.61798 
L 306.580645 395.992012 
L 319.354839 392.203319 
L 332.129032 388.714885 
L 344.903226 385.697008 
L 357.677419 383.125243 
L 370.451613 380.933922 
L 383.225806 378.797397 
L 396 376.733618 
L 408.774194 374.338466 
L 421.548387 372.1244 
L 434.322581 370.151218 
L 447.096774 368.58175 
L 459.870968 366.870514 
L 472.645161 365.151755 
L 485.419355 363.583661 
L 498.193548 362.065462 
L 510.967742 360.893693 
L 523.741935 360.096125 
L 536.516129 359.287943 
L 549.290323 358.381308 
L 562.064516 357.769452 
L 574.83871 356.792168 
L 587.612903 355.696391 
L 600.387097 354.715786 
L 613.16129 354.024927 
L 625.935484 353.232265 
L 638.709677 352.499585 
L 651.483871 351.621183 
L 664.258065 350.378307 
L 677.032258 349.435458 
L 689.806452 348.392221 
L 702.580645 347.199436 
L 715.354839 346.266977 
L 728.129032 345.322908 
L 740.903226 344.448975 
L 753.677419 343.643792 
L 766.451613 342.732646 
L 779.225806 341.911118 
" clip-path="url(#p3ef876fc9a)" style="fill: none; stroke: #000000; stroke-width: 1.5; stroke-linecap: square"/>
   </g>
   <g id="line2d_9">
    <path d="M 0 459 
L 12.774194 459 
L 25.548387 457.608998 
L 38.322581 457.360579 
L 51.096774 454.879676 
L 63.870968 455.961946 
L 76.645161 455.550817 
L 89.419355 454.231541 
L 102.193548 452.960787 
L 114.967742 453.10104 
L 127.741935 450.666039 
L 140.516129 448.415228 
L 153.290323 445.760025 
L 166.064516 443.08195 
L 178.83871 437.90814 
L 191.612903 432.152546 
L 204.387097 427.602794 
L 217.16129 423.273852 
L 229.935484 420.018792 
L 242.709677 416.445859 
L 255.483871 412.085721 
L 268.258065 408.051668 
L 281.032258 404.245475 
L 293.806452 401.275086 
L 306.580645 397.784027 
L 319.354839 394.14507 
L 332.129032 390.792765 
L 344.903226 387.885909 
L 357.677419 385.400732 
L 370.451613 383.275096 
L 383.225806 381.205483 
L 396 379.20819 
L 408.774194 376.909105 
L 421.548387 374.781417 
L 434.322581 372.87973 
L 447.096774 371.353031 
L 459.870968 369.70069 
L 472.645161 368.045443 
L 485.419355 366.531394 
L 498.193548 365.066467 
L 510.967742 363.919596 
L 523.741935 363.115219 
L 536.516129 362.3049 
L 549.290323 361.409295 
L 562.064516 360.781951 
L 574.83871 359.830034 
L 587.612903 358.774921 
L 600.387097 357.825303 
L 613.16129 357.136427 
L 625.935484 356.35977 
L 638.709677 355.638815 
L 651.483871 354.791387 
L 664.258065 353.624484 
L 677.032258 352.723739 
L 689.806452 351.736852 
L 702.580645 350.620766 
L 715.354839 349.734214 
L 728.129032 348.839449 
L 740.903226 348.007636 
L 753.677419 347.237433 
L 766.451613 346.37718 
L 779.225806 345.596187 
" clip-path="url(#p3ef876fc9a)" style="fill: none; stroke: #000000; stroke-width: 1.5; stroke-linecap: square"/>
   </g>
  </g>
 </g>
 <defs>
  <clipPath id="p3ef876fc9a">
   <rect x="0" y="0" width="792" height="612"/>
  </clipPath>
 </defs>
</svg>
