<?xml version="1.0" encoding="utf-8" standalone="no"?>
<!DOCTYPE svg PUBLIC "-//W3C//DTD SVG 1.1//EN"
  "http://www.w3.org/Graphics/SVG/1.1/DTD/svg11.dtd">
<svg xmlns:xlink="http://www.w3.org/1999/xlink" width="792pt" height="612pt" viewBox="0 0 792 612" xmlns="http://www.w3.org/2000/svg" version="1.1">
 <metadata>
  <rdf:RDF xmlns:dc="http://purl.org/dc/elements/1.1/" xmlns:cc="http://creativecommons.org/ns#" xmlns:rdf="http://www.w3.org/1999/02/22-rdf-syntax-ns#">
   <cc:Work>
    <dc:type rdf:resource="http://purl.org/dc/dcmitype/StillImage"/>
    <dc:date>2022-12-19T20:27:30.973696</dc:date>
    <dc:format>image/svg+xml</dc:format>
    <dc:creator>
     <cc:Agent>
      <dc:title>Matplotlib v3.6.2, https://matplotlib.org/</dc:title>
     </cc:Agent>
    </dc:creator>
   </cc:Work>
  </rdf:RDF>
 </metadata>
 <defs>
  <style type="text/css">*{stroke-linejoin: round; stroke-linecap: butt}</style>
 </defs>
 <g id="figure_1">
  <g id="patch_1">
   <path d="M 0 612 
L 792 612 
L 792 0 
L 0 0 
z
" style="fill: #ffffff"/>
  </g>
  <g id="axes_1">
   <g id="line2d_1">
    <path d="M 0 459 
L 12.375 465.433316 
L 24.75 465.162942 
L 37.125 466.880613 
L 49.5 469.282173 
L 61.875 467.182796 
L 74.25 470.459096 
L 86.625 475.262214 
L 99 476.37552 
L 111.375 481.393347 
L 123.75 482.681601 
L 136.125 482.82474 
L 148.5 478.594179 
L 160.875 480.073285 
L 173.25 481.520582 
L 185.625 475.834771 
L 198 469.154938 
L 210.375 470.14896 
L 222.75 469.807017 
L 235.125 470.808992 
L 247.5 469.918347 
L 259.875 469.059511 
L 272.25 469.258316 
L 284.625 466.363721 
L 297 470.300052 
L 309.375 468.224532 
L 321.75 466.037682 
L 334.125 465.353794 
L 346.5 468.431289 
L 358.875 460.733576 
L 371.25 459.87474 
L 383.625 453.179314 
L 396 448.12345 
L 408.375 412.071721 
L 420.75 395.147208 
L 433.125 401.898485 
L 445.5 397.113559 
L 457.875 406.413508 
L 470.25 395.334378 
L 482.625 375.372743 
L 495 373.621101 
L 507.375 370.860606 
L 519.75 380.712097 
L 532.125 364.81103 
L 544.5 355.619788 
L 556.875 355.597141 
L 569.25 359.932045 
L 581.625 364.879588 
L 594 369.413977 
L 606.375 367.144448 
L 618.75 365.451076 
L 631.125 353.877598 
L 643.5 354.646486 
L 655.875 357.410495 
L 668.25 365.153865 
L 680.625 358.727268 
L 693 355.800975 
L 705.375 357.433183 
L 717.75 356.435399 
L 730.125 364.536842 
L 742.5 374.358324 
L 754.875 372.769255 
L 767.25 368.313023 
L 779.625 376.665044 
" clip-path="url(#p099e59e51e)" style="fill: none; stroke: #000000; stroke-width: 1.5; stroke-linecap: square"/>
   </g>
   <g id="line2d_2">
    <path d="M 0 459 
L 12.375 459 
L 24.75 463.288877 
L 37.125 464.359771 
L 49.5 465.70422 
L 61.875 467.550905 
L 74.25 467.363929 
L 86.625 468.923698 
L 99 472.105385 
L 111.375 474.274522 
L 123.75 477.865229 
L 136.125 480.307765 
L 148.5 481.597516 
L 160.875 480.114106 
L 173.25 480.118971 
L 185.625 480.841466 
L 198 478.339241 
L 210.375 473.732931 
L 222.75 471.918898 
L 235.125 470.837713 
L 247.5 470.799792 
L 259.875 470.342058 
L 272.25 469.679189 
L 284.625 469.444709 
L 297 467.885644 
L 309.375 469.095094 
L 321.75 468.65604 
L 334.125 467.33947 
L 346.5 466.335936 
L 358.875 467.380696 
L 371.25 464.040811 
L 383.625 461.939376 
L 396 459.481279 
L 408.375 454.194999 
L 420.75 432.932477 
L 433.125 413.797002 
L 445.5 407.690986 
L 457.875 402.219783 
L 470.25 404.203343 
L 482.625 399.634631 
L 495 387.301815 
L 507.375 380.299778 
L 519.75 375.491147 
L 532.125 378.070821 
L 544.5 371.349891 
L 556.875 363.375013 
L 569.25 359.380691 
L 581.625 359.587982 
L 594 362.209993 
L 606.375 365.797792 
L 618.75 366.463643 
L 631.125 365.927503 
L 643.5 359.863187 
L 655.875 357.249469 
L 668.25 357.333537 
L 680.625 361.246495 
L 693 359.974058 
L 705.375 357.85875 
L 717.75 357.626988 
L 730.125 357.013403 
L 742.5 360.789142 
L 754.875 367.591695 
L 767.25 370.207797 
L 779.625 369.266221 
" clip-path="url(#p099e59e51e)" style="fill: none; stroke: #000000; stroke-width: 1.5; stroke-linecap: square"/>
   </g>
   <g id="line2d_3">
    <path d="M 0 459 
L 12.375 459 
L 24.75 462.768549 
L 37.125 463.853405 
L 49.5 465.035603 
L 61.875 466.546483 
L 74.25 466.759479 
L 86.625 467.948135 
L 99 470.233196 
L 111.375 472.115424 
L 123.75 474.920524 
L 136.125 477.245056 
L 148.5 478.905248 
L 160.875 478.81312 
L 173.25 479.18512 
L 185.625 479.872961 
L 198 478.685564 
L 210.375 475.905772 
L 222.75 474.225058 
L 235.125 472.936378 
L 247.5 472.317793 
L 259.875 471.615742 
L 272.25 470.869195 
L 284.625 470.396 
L 297 469.204752 
L 309.375 469.51858 
L 321.75 469.124436 
L 334.125 468.20123 
L 346.5 467.347168 
L 358.875 467.653027 
L 371.25 465.604153 
L 383.625 463.901184 
L 396 461.875785 
L 408.375 459.95557 
L 420.75 447.14403 
L 433.125 431.711745 
L 445.5 422.838249 
L 457.875 415.164373 
L 470.25 412.503325 
L 482.625 407.351224 
L 495 397.797191 
L 507.375 390.538779 
L 519.75 384.614189 
L 532.125 383.358182 
L 544.5 377.768998 
L 556.875 371.088233 
L 569.25 366.405979 
L 581.625 364.392109 
L 594 364.436256 
L 606.375 365.80389 
L 618.75 366.145664 
L 631.125 365.908467 
L 643.5 362.315557 
L 655.875 360.015135 
L 668.25 359.19631 
L 680.625 360.903588 
L 693 360.246676 
L 705.375 358.922147 
L 717.75 358.470469 
L 730.125 357.846367 
L 742.5 359.80112 
L 754.875 364.066181 
L 767.25 366.627963 
L 779.625 367.130892 
" clip-path="url(#p099e59e51e)" style="fill: none; stroke: #000000; stroke-width: 1.5; stroke-linecap: square"/>
   </g>
   <g id="line2d_4">
    <path d="M 0 459 
L 12.375 459 
L 24.75 462.494665 
L 37.125 463.541868 
L 49.5 464.604281 
L 61.875 465.888496 
L 74.25 466.20705 
L 86.625 467.16979 
L 99 468.886501 
L 111.375 470.395195 
L 123.75 472.520797 
L 136.125 474.41969 
L 148.5 475.948002 
L 160.875 476.41847 
L 173.25 477.056345 
L 185.625 477.823652 
L 198 477.486118 
L 210.375 476.087069 
L 222.75 475.09861 
L 235.125 474.224203 
L 247.5 473.663303 
L 259.875 473.051387 
L 272.25 472.401914 
L 284.625 471.892287 
L 297 470.99871 
L 309.375 470.886071 
L 321.75 470.45788 
L 334.125 469.748015 
L 346.5 469.043374 
L 358.875 468.945345 
L 371.25 467.631565 
L 383.625 466.391667 
L 396 464.90109 
L 408.375 463.383002 
L 420.75 460.174297 
L 433.125 451.685854 
L 445.5 443.671814 
L 457.875 436.159893 
L 470.25 431.359576 
L 482.625 425.532032 
L 495 417.382652 
L 507.375 410.261653 
L 519.75 403.831826 
L 532.125 400.039003 
L 544.5 394.272883 
L 556.875 387.94457 
L 569.25 382.63795 
L 581.625 378.894589 
L 594 376.565522 
L 606.375 375.351695 
L 618.75 373.965778 
L 631.125 372.530218 
L 643.5 369.45533 
L 655.875 367.002052 
L 668.25 365.390323 
L 680.625 365.277379 
L 693 364.158415 
L 705.375 362.741297 
L 717.75 361.816868 
L 730.125 360.884048 
L 742.5 361.395917 
L 754.875 363.380015 
L 767.25 364.813255 
L 779.625 365.31281 
" clip-path="url(#p099e59e51e)" style="fill: none; stroke: #000000; stroke-width: 1.5; stroke-linecap: square"/>
   </g>
   <g id="line2d_5">
    <path d="M 0 459 
L 12.375 459 
L 24.75 462.355922 
L 37.125 463.373732 
L 49.5 464.367463 
L 61.875 465.527656 
L 74.25 465.86651 
L 86.625 466.704705 
L 99 468.125182 
L 111.375 469.38972 
L 123.75 471.108725 
L 136.125 472.671922 
L 148.5 473.975421 
L 160.875 474.542666 
L 173.25 475.195889 
L 185.625 475.91756 
L 198 475.908399 
L 210.375 475.181171 
L 222.75 474.652346 
L 235.125 474.154166 
L 247.5 473.816911 
L 259.875 473.430747 
L 272.25 473.004606 
L 284.625 472.644606 
L 297 472.048848 
L 309.375 471.884914 
L 321.75 471.545434 
L 334.125 471.039552 
L 346.5 470.521903 
L 358.875 470.333086 
L 371.25 469.472394 
L 383.625 468.617566 
L 396 467.594356 
L 408.375 466.518436 
L 420.75 464.484714 
L 433.125 462.138388 
L 445.5 460.20449 
L 457.875 456.914844 
L 470.25 452.542084 
L 482.625 447.59303 
L 495 441.331377 
L 507.375 435.472628 
L 519.75 429.891173 
L 532.125 425.666007 
L 544.5 420.42345 
L 556.875 414.834582 
L 569.25 409.737421 
L 581.625 405.468793 
L 594 402.004077 
L 606.375 399.232361 
L 618.75 396.506001 
L 631.125 393.870285 
L 643.5 390.465574 
L 655.875 387.422577 
L 668.25 384.880169 
L 680.625 383.216958 
L 693 381.149169 
L 705.375 379.008961 
L 717.75 377.190913 
L 730.125 375.443243 
L 742.5 374.529096 
L 754.875 374.514849 
L 767.25 374.369198 
L 779.625 373.863211 
" clip-path="url(#p099e59e51e)" style="fill: none; stroke: #000000; stroke-width: 1.5; stroke-linecap: square"/>
   </g>
   <g id="line2d_6">
    <path d="M 0 459 
L 12.375 459 
L 24.75 462.286323 
L 37.125 463.287023 
L 49.5 464.244615 
L 61.875 465.341255 
L 74.25 465.682352 
L 86.625 466.456543 
L 99 467.731177 
L 111.375 468.866275 
L 123.75 470.376903 
L 136.125 471.753106 
L 148.5 472.910987 
L 160.875 473.470545 
L 173.25 474.086129 
L 185.625 474.745725 
L 198 474.838069 
L 210.375 474.375776 
L 222.75 474.044837 
L 235.125 473.724534 
L 247.5 473.511249 
L 259.875 473.256256 
L 272.25 472.966682 
L 284.625 472.717436 
L 297 472.300732 
L 309.375 472.172493 
L 321.75 471.924811 
L 334.125 471.562836 
L 346.5 471.188218 
L 358.875 471.024813 
L 371.25 470.424963 
L 383.625 469.819636 
L 396 469.098328 
L 408.375 468.333307 
L 420.75 466.956427 
L 433.125 465.360464 
L 445.5 463.991927 
L 457.875 462.625195 
L 470.25 461.510091 
L 482.625 460.268983 
L 495 458.255384 
L 507.375 453.884855 
L 519.75 449.628944 
L 532.125 446.13354 
L 544.5 442.020718 
L 556.875 437.668482 
L 569.25 433.562643 
L 581.625 429.909328 
L 594 426.709112 
L 606.375 423.911344 
L 618.75 421.153665 
L 631.125 418.461482 
L 643.5 415.343277 
L 655.875 412.42911 
L 668.25 409.803917 
L 680.625 407.690254 
L 693 405.377365 
L 705.375 403.043194 
L 717.75 400.90652 
L 730.125 398.830963 
L 742.5 397.242063 
L 754.875 396.189753 
L 767.25 395.115907 
L 779.625 393.88904 
" clip-path="url(#p099e59e51e)" style="fill: none; stroke: #000000; stroke-width: 1.5; stroke-linecap: square"/>
   </g>
   <g id="line2d_7">
    <path d="M 0 459 
L 12.375 459 
L 24.75 462.251494 
L 37.125 463.243073 
L 49.5 464.182215 
L 61.875 465.246866 
L 74.25 465.587242 
L 86.625 466.329253 
L 99 467.532337 
L 111.375 468.602169 
L 123.75 470.009521 
L 136.125 471.290296 
L 148.5 472.370091 
L 160.875 472.91353 
L 173.25 473.500022 
L 185.625 474.119554 
L 198 474.245038 
L 210.375 473.890966 
L 222.75 473.642621 
L 235.125 473.399013 
L 247.5 473.241157 
L 259.875 473.04634 
L 272.25 472.820974 
L 284.625 472.626415 
L 297 472.295389 
L 309.375 472.193136 
L 321.75 471.995649 
L 334.125 471.707336 
L 346.5 471.407953 
L 358.875 471.271204 
L 371.25 470.798684 
L 383.625 470.320049 
L 396 469.751763 
L 408.375 469.14851 
L 420.75 468.085903 
L 433.125 466.855802 
L 445.5 465.787814 
L 457.875 464.717316 
L 470.25 463.826354 
L 482.625 462.842546 
L 495 461.65818 
L 507.375 460.513059 
L 519.75 459.391684 
L 532.125 457.337978 
L 544.5 454.064115 
L 556.875 450.615258 
L 569.25 447.327827 
L 581.625 444.345229 
L 594 441.669721 
L 606.375 439.268434 
L 618.75 436.896528 
L 631.125 434.571056 
L 643.5 431.961215 
L 655.875 429.486836 
L 668.25 427.205372 
L 680.625 425.265709 
L 693 423.200394 
L 705.375 421.125051 
L 717.75 419.1825 
L 730.125 417.284508 
L 742.5 415.707322 
L 754.875 414.485343 
L 767.25 413.261595 
L 779.625 411.951077 
" clip-path="url(#p099e59e51e)" style="fill: none; stroke: #000000; stroke-width: 1.5; stroke-linecap: square"/>
   </g>
   <g id="line2d_8">
    <path d="M 0 459 
L 12.375 459 
L 24.75 462.234077 
L 37.125 463.220958 
L 49.5 464.150788 
L 61.875 465.199415 
L 74.25 465.538993 
L 86.625 466.264906 
L 99 467.432661 
L 111.375 468.469899 
L 123.75 469.826132 
L 136.125 471.059119 
L 148.5 472.099039 
L 160.875 472.631773 
L 173.25 473.201534 
L 185.625 473.799164 
L 198 473.936983 
L 210.375 473.630658 
L 222.75 473.418913 
L 235.125 473.209718 
L 247.5 473.076933 
L 259.875 472.909679 
L 272.25 472.714056 
L 284.625 472.545233 
L 297 472.254325 
L 309.375 472.165576 
L 321.75 471.992594 
L 334.125 471.739598 
L 346.5 471.476634 
L 358.875 471.354929 
L 371.25 470.942496 
L 383.625 470.524457 
L 396 470.029251 
L 408.375 469.503917 
L 420.75 468.587679 
L 433.125 467.528884 
L 445.5 466.606002 
L 457.875 465.680691 
L 470.25 464.905257 
L 482.625 464.052776 
L 495 463.034243 
L 507.375 462.047993 
L 519.75 461.081332 
L 532.125 460.25863 
L 544.5 459.317831 
L 556.875 456.989728 
L 569.25 454.156804 
L 581.625 451.570208 
L 594 449.231589 
L 606.375 447.114469 
L 618.75 445.023657 
L 631.125 442.972582 
L 643.5 440.699659 
L 655.875 438.53553 
L 668.25 436.525191 
L 680.625 434.784937 
L 693 432.950436 
L 705.375 431.111312 
L 717.75 429.377925 
L 730.125 427.682151 
L 742.5 426.23606 
L 754.875 425.065868 
L 767.25 423.89914 
L 779.625 422.671066 
" clip-path="url(#p099e59e51e)" style="fill: none; stroke: #000000; stroke-width: 1.5; stroke-linecap: square"/>
   </g>
   <g id="line2d_9">
    <path d="M 0 459 
L 12.375 459 
L 24.75 462.225367 
L 37.125 463.209866 
L 49.5 464.135021 
L 61.875 465.17563 
L 74.25 465.514703 
L 86.625 466.232571 
L 99 467.382785 
L 111.375 468.403757 
L 123.75 469.734598 
L 136.125 470.943725 
L 148.5 471.963563 
L 160.875 472.490346 
L 173.25 473.051256 
L 185.625 473.637531 
L 198 473.780506 
L 210.375 473.496467 
L 222.75 473.301811 
L 235.125 473.108773 
L 247.5 472.987772 
L 259.875 472.833559 
L 272.25 472.652082 
L 284.625 472.495571 
L 297 472.223852 
L 309.375 472.141796 
L 321.75 471.980713 
L 334.125 471.744757 
L 346.5 471.499432 
L 358.875 471.385418 
L 371.25 471.001775 
L 383.625 470.612922 
L 396 470.152873 
L 408.375 469.665137 
L 420.75 468.818488 
L 433.125 467.841256 
L 445.5 466.988304 
L 457.875 466.133346 
L 470.25 465.414974 
L 482.625 464.627094 
L 495 463.689328 
L 507.375 462.781088 
L 519.75 461.890937 
L 532.125 461.130641 
L 544.5 460.265081 
L 556.875 459.357941 
L 569.25 457.470721 
L 581.625 455.088544 
L 594 452.928466 
L 606.375 450.966715 
L 618.75 449.030412 
L 631.125 447.131348 
L 643.5 445.039191 
L 655.875 443.044576 
L 668.25 441.186803 
L 680.625 439.567368 
L 693 437.868046 
L 705.375 436.166919 
L 717.75 434.559822 
L 730.125 432.987551 
L 742.5 431.633455 
L 754.875 430.519855 
L 767.25 429.411776 
L 779.625 428.253443 
" clip-path="url(#p099e59e51e)" style="fill: none; stroke: #000000; stroke-width: 1.5; stroke-linecap: square"/>
   </g>
  </g>
 </g>
 <defs>
  <clipPath id="p099e59e51e">
   <rect x="0" y="0" width="792" height="612"/>
  </clipPath>
 </defs>
</svg>
