<?xml version="1.0" encoding="utf-8" standalone="no"?>
<!DOCTYPE svg PUBLIC "-//W3C//DTD SVG 1.1//EN"
  "http://www.w3.org/Graphics/SVG/1.1/DTD/svg11.dtd">
<svg xmlns:xlink="http://www.w3.org/1999/xlink" width="792pt" height="612pt" viewBox="0 0 792 612" xmlns="http://www.w3.org/2000/svg" version="1.1">
 <metadata>
  <rdf:RDF xmlns:dc="http://purl.org/dc/elements/1.1/" xmlns:cc="http://creativecommons.org/ns#" xmlns:rdf="http://www.w3.org/1999/02/22-rdf-syntax-ns#">
   <cc:Work>
    <dc:type rdf:resource="http://purl.org/dc/dcmitype/StillImage"/>
    <dc:date>2023-01-30T17:16:00.359232</dc:date>
    <dc:format>image/svg+xml</dc:format>
    <dc:creator>
     <cc:Agent>
      <dc:title>Matplotlib v3.6.2, https://matplotlib.org/</dc:title>
     </cc:Agent>
    </dc:creator>
   </cc:Work>
  </rdf:RDF>
 </metadata>
 <defs>
  <style type="text/css">*{stroke-linejoin: round; stroke-linecap: butt}</style>
 </defs>
 <g id="figure_1">
  <g id="patch_1">
   <path d="M 0 612 
L 792 612 
L 792 0 
L 0 0 
z
" style="fill: #ffffff"/>
  </g>
  <g id="axes_1">
   <g id="line2d_1">
    <path d="M 0 459 
L 12.983607 450.50719 
L 25.967213 445.423512 
L 38.95082 409.193944 
L 51.934426 392.199299 
L 64.918033 398.97747 
L 77.901639 394.173333 
L 90.885246 403.511287 
L 103.868852 392.387195 
L 116.852459 372.354681 
L 129.836066 370.597465 
L 142.819672 367.828402 
L 155.803279 377.711679 
L 168.786885 361.760992 
L 181.770492 352.545173 
L 194.754098 352.52247 
L 207.737705 356.868578 
L 220.721311 361.829745 
L 233.704918 366.377391 
L 246.688525 364.101135 
L 259.672131 362.402863 
L 272.655738 350.798675 
L 285.639344 351.56945 
L 298.622951 354.340427 
L 311.606557 362.104802 
L 324.590164 355.660618 
L 337.57377 352.726815 
L 350.557377 354.363173 
L 363.540984 353.36284 
L 376.52459 361.486026 
L 389.508197 371.337021 
L 402.491803 369.742947 
L 415.47541 365.273151 
L 428.459016 373.651163 
L 441.442623 360.36401 
L 454.42623 354.818217 
L 467.409836 357.119473 
L 480.393443 365.871141 
L 493.377049 361.142421 
L 506.360656 362.127727 
L 519.344262 355.615064 
L 532.327869 340.726788 
L 545.311475 350.164403 
L 558.295082 344.903636 
L 571.278689 337.574345 
L 584.262295 346.007383 
L 597.245902 344.161087 
L 610.229508 345.601763 
L 623.213115 347.135091 
L 636.196721 341.556023 
L 649.180328 343.981172 
L 662.163934 324.914329 
L 675.147541 329.846917 
L 688.131148 321.302402 
L 701.114754 320.822212 
L 714.098361 311.418482 
L 727.081967 304.167566 
L 740.065574 308.863549 
L 753.04918 316.277112 
L 766.032787 331.771548 
L 779.016393 323.051336 
" clip-path="url(#pbdbd2a9c68)" style="fill: none; stroke: #000000; stroke-width: 1.5; stroke-linecap: square"/>
   </g>
   <g id="line2d_2">
    <path d="M 0 459 
L 12.983607 459 
L 25.967213 453.337768 
L 38.95082 448.814621 
L 51.934426 427.62681 
L 64.918033 409.267374 
L 77.901639 404.033759 
L 90.885246 399.057693 
L 103.868852 401.291842 
L 116.852459 396.704436 
L 129.836066 384.324509 
L 142.819672 377.297963 
L 155.803279 372.473466 
L 168.786885 375.061553 
L 181.770492 368.319187 
L 194.754098 360.320932 
L 207.737705 356.31576 
L 220.721311 356.5236 
L 233.704918 359.152688 
L 246.688525 362.750574 
L 259.672131 363.418347 
L 272.655738 362.880658 
L 285.639344 356.799537 
L 298.622951 354.178986 
L 311.606557 354.263271 
L 324.590164 358.186561 
L 337.57377 356.910702 
L 350.557377 354.789838 
L 363.540984 354.557477 
L 376.52459 353.942316 
L 389.508197 357.727971 
L 402.491803 364.549693 
L 415.47541 367.173607 
L 428.459016 366.229191 
L 441.442623 369.969578 
L 454.42623 365.171173 
L 467.409836 359.982384 
L 480.393443 358.557294 
L 493.377049 362.216374 
L 506.360656 361.659354 
L 519.344262 361.878638 
L 532.327869 358.723044 
L 545.311475 349.616299 
L 558.295082 349.870424 
L 571.278689 347.36417 
L 584.262295 342.416975 
L 597.245902 344.171848 
L 610.229508 344.13348 
L 623.213115 344.835223 
L 636.196721 345.967873 
L 649.180328 343.760739 
L 662.163934 343.858868 
L 675.147541 334.290104 
L 688.131148 332.050171 
L 701.114754 326.608493 
L 714.098361 323.664232 
L 727.081967 317.447505 
L 740.065574 310.6904 
L 753.04918 309.713627 
L 766.032787 312.934041 
L 779.016393 322.302962 
" clip-path="url(#pbdbd2a9c68)" style="fill: none; stroke: #000000; stroke-width: 1.5; stroke-linecap: square"/>
   </g>
   <g id="line2d_3">
    <path d="M 0 459 
L 12.983607 459 
L 25.967213 454.024654 
L 38.95082 450.126837 
L 51.934426 434.088494 
L 64.918033 419.100019 
L 77.901639 412.343115 
L 90.885246 406.48634 
L 103.868852 405.556383 
L 116.852459 401.51033 
L 129.836066 392.634019 
L 142.819672 385.995969 
L 155.803279 380.562958 
L 168.786885 379.717847 
L 181.770492 374.388173 
L 194.754098 367.908623 
L 207.737705 363.360516 
L 220.721311 361.340883 
L 233.704918 361.385155 
L 246.688525 362.756689 
L 259.672131 363.099448 
L 272.655738 362.861567 
L 285.639344 359.258543 
L 298.622951 356.951889 
L 311.606557 356.130893 
L 324.590164 357.842726 
L 337.57377 357.184048 
L 350.557377 355.856008 
L 363.540984 355.403147 
L 376.52459 354.777423 
L 389.508197 356.737305 
L 402.491803 361.014037 
L 415.47541 363.583144 
L 428.459016 364.087539 
L 441.442623 366.893742 
L 454.42623 364.97015 
L 467.409836 361.975563 
L 480.393443 360.544762 
L 493.377049 362.119398 
L 506.360656 361.844209 
L 519.344262 361.936219 
L 532.327869 360.073214 
L 545.311475 354.34762 
L 558.295082 353.117499 
L 571.278689 350.693131 
L 584.262295 346.811968 
L 597.245902 346.558593 
L 610.229508 345.824868 
L 623.213115 345.732134 
L 636.196721 346.122208 
L 649.180328 344.745916 
L 662.163934 344.503198 
L 675.147541 338.681281 
L 688.131148 336.052407 
L 701.114754 331.651606 
L 714.098361 328.417503 
L 727.081967 323.338081 
L 740.065574 317.607066 
L 753.04918 314.997901 
L 766.032787 315.334332 
L 779.016393 320.094273 
" clip-path="url(#pbdbd2a9c68)" style="fill: none; stroke: #000000; stroke-width: 1.5; stroke-linecap: square"/>
   </g>
   <g id="line2d_4">
    <path d="M 0 459 
L 12.983607 459 
L 25.967213 454.386219 
L 38.95082 450.867879 
L 51.934426 437.559323 
L 64.918033 425.026468 
L 77.901639 418.588184 
L 90.885246 413.03487 
L 103.868852 411.010924 
L 116.852459 407.24416 
L 129.836066 400.440378 
L 142.819672 394.816676 
L 155.803279 389.869595 
L 168.786885 387.700222 
L 181.770492 383.134144 
L 194.754098 377.818532 
L 207.737705 373.484728 
L 220.721311 370.676776 
L 233.704918 369.199162 
L 246.688525 368.732386 
L 259.672131 367.970426 
L 272.655738 367.058744 
L 285.639344 364.39558 
L 298.622951 362.305143 
L 311.606557 361.013533 
L 324.590164 361.189391 
L 337.57377 360.297858 
L 350.557377 359.078055 
L 363.540984 358.320472 
L 376.52459 357.524782 
L 389.508197 358.157482 
L 402.491803 360.253126 
L 415.47541 361.763223 
L 428.459016 362.264201 
L 441.442623 364.021501 
L 454.42623 363.387024 
L 467.409836 361.985454 
L 480.393443 361.188061 
L 493.377049 361.911452 
L 506.360656 361.768725 
L 519.344262 361.800454 
L 532.327869 360.791108 
L 545.311475 357.550271 
L 558.295082 356.358636 
L 571.278689 354.512361 
L 584.262295 351.770964 
L 597.245902 350.841708 
L 610.229508 349.770219 
L 623.213115 349.101384 
L 636.196721 348.782199 
L 649.180328 347.615896 
L 662.163934 347.022736 
L 675.147541 343.440315 
L 688.131148 341.242055 
L 701.114754 338.016672 
L 714.098361 335.235687 
L 727.081967 331.366808 
L 740.065574 326.931311 
L 753.04918 323.995812 
L 766.032787 322.739583 
L 779.016393 324.155354 
" clip-path="url(#pbdbd2a9c68)" style="fill: none; stroke: #000000; stroke-width: 1.5; stroke-linecap: square"/>
   </g>
   <g id="line2d_5">
    <path d="M 0 459 
L 12.983607 459 
L 25.967213 454.56938 
L 38.95082 451.252349 
L 51.934426 439.290244 
L 64.918033 428.098476 
L 77.901639 422.108341 
L 90.885246 416.983045 
L 103.868852 414.741138 
L 116.852459 411.298385 
L 129.836066 405.664662 
L 142.819672 400.881269 
L 155.803279 396.595456 
L 168.786885 394.263267 
L 181.770492 390.382804 
L 194.754098 386.006129 
L 207.737705 382.254055 
L 220.721311 379.494087 
L 233.704918 377.625307 
L 246.688525 376.463915 
L 259.672131 375.211563 
L 272.655738 373.936417 
L 285.639344 371.658818 
L 298.622951 369.711784 
L 311.606557 368.244186 
L 324.590164 367.667197 
L 337.57377 366.547873 
L 350.557377 365.27067 
L 363.540984 364.272821 
L 376.52459 363.282654 
L 389.508197 363.121442 
L 402.491803 363.850662 
L 415.47541 364.371012 
L 428.459016 364.450408 
L 441.442623 365.253349 
L 454.42623 364.826104 
L 467.409836 363.953211 
L 480.393443 363.36029 
L 493.377049 363.576491 
L 506.360656 363.367123 
L 519.344262 363.260882 
L 532.327869 362.605346 
L 545.311475 360.720889 
L 558.295082 359.818675 
L 571.278689 358.543728 
L 584.262295 356.748722 
L 597.245902 355.835586 
L 610.229508 354.844152 
L 623.213115 354.061325 
L 636.196721 353.476119 
L 649.180328 352.467552 
L 662.163934 351.751561 
L 675.147541 349.466102 
L 688.131148 347.803504 
L 701.114754 345.54986 
L 714.098361 343.450324 
L 727.081967 340.718806 
L 740.065574 337.592627 
L 753.04918 335.14886 
L 766.032787 333.554555 
L 779.016393 333.405593 
" clip-path="url(#pbdbd2a9c68)" style="fill: none; stroke: #000000; stroke-width: 1.5; stroke-linecap: square"/>
   </g>
   <g id="line2d_6">
    <path d="M 0 459 
L 12.983607 459 
L 25.967213 454.661263 
L 38.95082 451.446913 
L 51.934426 440.145316 
L 64.918033 429.635675 
L 77.901639 423.928787 
L 90.885246 419.079189 
L 103.868852 416.819103 
L 116.852459 413.594039 
L 129.836066 408.567602 
L 142.819672 404.275795 
L 155.803279 400.422622 
L 168.786885 398.171621 
L 181.770492 394.736171 
L 194.754098 390.936247 
L 207.737705 387.632519 
L 220.721311 385.1012 
L 233.704918 383.263295 
L 246.688525 381.979004 
L 259.672131 380.662247 
L 272.655738 379.357141 
L 285.639344 377.363195 
L 298.622951 375.6107 
L 311.606557 374.203171 
L 324.590164 373.423819 
L 337.57377 372.300946 
L 350.557377 371.087102 
L 363.540984 370.070672 
L 376.52459 369.073027 
L 389.508197 368.629349 
L 402.491803 368.784529 
L 415.47541 368.838686 
L 428.459016 368.639636 
L 441.442623 368.914736 
L 454.42623 368.448507 
L 467.409836 367.712325 
L 480.393443 367.14736 
L 493.377049 367.080294 
L 506.360656 366.770742 
L 519.344262 366.531133 
L 532.327869 365.97125 
L 545.311475 364.6782 
L 558.295082 363.944797 
L 571.278689 362.987792 
L 584.262295 361.71543 
L 597.245902 360.938406 
L 610.229508 360.113487 
L 623.213115 359.405271 
L 636.196721 358.810717 
L 649.180328 357.977191 
L 662.163934 357.305902 
L 675.147541 355.743921 
L 688.131148 354.505843 
L 701.114754 352.918557 
L 714.098361 351.391729 
L 727.081967 349.48795 
L 740.065574 347.329323 
L 753.04918 345.512184 
L 766.032787 344.144394 
L 779.016393 343.57363 
" clip-path="url(#pbdbd2a9c68)" style="fill: none; stroke: #000000; stroke-width: 1.5; stroke-linecap: square"/>
   </g>
   <g id="line2d_7">
    <path d="M 0 459 
L 12.983607 459 
L 25.967213 454.707242 
L 38.95082 451.544621 
L 51.934426 440.569103 
L 64.918033 430.401102 
L 77.901639 424.848063 
L 90.885246 420.149259 
L 103.868852 417.901476 
L 116.852459 414.797896 
L 129.836066 410.076607 
L 142.819672 406.042611 
L 155.803279 402.424657 
L 168.786885 400.251384 
L 181.770492 397.058669 
L 194.754098 393.565877 
L 207.737705 390.517851 
L 220.721311 388.148029 
L 233.704918 386.384405 
L 246.688525 385.104376 
L 259.672131 383.814164 
L 272.655738 382.548481 
L 285.639344 380.730317 
L 298.622951 379.118498 
L 311.606557 377.79529 
L 324.590164 376.986083 
L 337.57377 375.915325 
L 350.557377 374.78197 
L 363.540984 373.81132 
L 376.52459 372.86349 
L 389.508197 372.350837 
L 402.491803 372.306398 
L 415.47541 372.196422 
L 428.459016 371.905094 
L 441.442623 371.976829 
L 454.42623 371.506255 
L 467.409836 370.84097 
L 480.393443 370.304417 
L 493.377049 370.134742 
L 506.360656 369.795566 
L 519.344262 369.511108 
L 532.327869 369.002012 
L 545.311475 367.973903 
L 558.295082 367.338917 
L 571.278689 366.54807 
L 584.262295 365.536639 
L 597.245902 364.866942 
L 610.229508 364.165208 
L 623.213115 363.544267 
L 636.196721 363.002321 
L 649.180328 362.300036 
L 662.163934 361.707623 
L 675.147541 360.517635 
L 688.131148 359.539155 
L 701.114754 358.325486 
L 714.098361 357.146712 
L 727.081967 355.714623 
L 740.065574 354.107674 
L 753.04918 352.715059 
L 766.032787 351.609249 
L 779.016393 351.018292 
" clip-path="url(#pbdbd2a9c68)" style="fill: none; stroke: #000000; stroke-width: 1.5; stroke-linecap: square"/>
   </g>
   <g id="line2d_8">
    <path d="M 0 459 
L 12.983607 459 
L 25.967213 454.730236 
L 38.95082 451.593562 
L 51.934426 440.779918 
L 64.918033 430.782587 
L 77.901639 425.309166 
L 90.885246 420.688604 
L 103.868852 418.452005 
L 116.852459 415.411995 
L 129.836066 410.84299 
L 142.819672 406.93991 
L 155.803279 403.443058 
L 168.786885 401.316823 
L 181.770492 398.249154 
L 194.754098 394.912748 
L 207.737705 391.998298 
L 220.721311 389.718941 
L 233.704918 388.005487 
L 246.688525 386.742961 
L 259.672131 385.480047 
L 272.655738 384.247312 
L 285.639344 382.524632 
L 298.622951 380.993059 
L 311.606557 379.724957 
L 324.590164 378.919095 
L 337.57377 377.888291 
L 350.557377 376.807788 
L 363.540984 375.874639 
L 376.52459 374.966179 
L 389.508197 374.439759 
L 402.491803 374.322418 
L 415.47541 374.153679 
L 428.459016 373.834167 
L 441.442623 373.827767 
L 454.42623 373.365418 
L 467.409836 372.74155 
L 480.393443 372.228359 
L 493.377049 372.024836 
L 506.360656 371.682966 
L 519.344262 371.388989 
L 532.327869 370.911754 
L 545.311475 370.009184 
L 558.295082 369.429723 
L 571.278689 368.724611 
L 584.262295 367.841358 
L 597.245902 367.235652 
L 610.229508 366.605575 
L 623.213115 366.041772 
L 636.196721 365.542669 
L 649.180328 364.91734 
L 662.163934 364.380435 
L 675.147541 363.372193 
L 688.131148 362.530585 
L 701.114754 361.504789 
L 714.098361 360.506209 
L 727.081967 359.310183 
L 740.065574 357.977701 
L 753.04918 356.810142 
L 766.032787 355.863523 
L 779.016393 355.313192 
" clip-path="url(#pbdbd2a9c68)" style="fill: none; stroke: #000000; stroke-width: 1.5; stroke-linecap: square"/>
   </g>
   <g id="line2d_9">
    <path d="M 0 459 
L 12.983607 459 
L 25.967213 454.741734 
L 38.95082 451.618052 
L 51.934426 440.885039 
L 64.918033 430.972969 
L 77.901639 425.539983 
L 90.885246 420.959199 
L 103.868852 418.729403 
L 116.852459 415.721833 
L 129.836066 411.228808 
L 142.819672 407.391553 
L 155.803279 403.955951 
L 168.786885 401.855104 
L 181.770492 398.850667 
L 194.754098 395.592883 
L 207.737705 392.746323 
L 220.721311 390.514279 
L 233.704918 388.828835 
L 246.688525 387.578614 
L 259.672131 386.332596 
L 272.655738 385.119404 
L 285.639344 383.446065 
L 298.622951 381.956759 
L 311.606557 380.719114 
L 324.590164 379.919233 
L 337.57377 378.911617 
L 350.557377 377.860414 
L 363.540984 376.949404 
L 376.52459 376.063987 
L 389.508197 375.535726 
L 402.491803 375.388747 
L 415.47541 375.196667 
L 428.459016 374.867819 
L 441.442623 374.828727 
L 454.42623 374.373475 
L 467.409836 373.772088 
L 480.393443 373.273152 
L 493.377049 373.057543 
L 506.360656 372.717802 
L 519.344262 372.422791 
L 532.327869 371.963468 
L 545.311475 371.12182 
L 558.295082 370.571693 
L 571.278689 369.909874 
L 584.262295 369.089538 
L 597.245902 368.517957 
L 610.229508 367.925669 
L 623.213115 367.393273 
L 636.196721 366.919254 
L 649.180328 366.334532 
L 662.163934 365.828773 
L 675.147541 364.908737 
L 688.131148 364.135753 
L 701.114754 363.201957 
L 714.098361 362.292561 
L 727.081967 361.211382 
L 740.065574 360.011774 
L 753.04918 358.955932 
L 766.032787 358.092324 
L 779.016393 357.572525 
" clip-path="url(#pbdbd2a9c68)" style="fill: none; stroke: #000000; stroke-width: 1.5; stroke-linecap: square"/>
   </g>
  </g>
 </g>
 <defs>
  <clipPath id="pbdbd2a9c68">
   <rect x="0" y="0" width="792" height="612"/>
  </clipPath>
 </defs>
</svg>
