<?xml version="1.0" encoding="utf-8" standalone="no"?>
<!DOCTYPE svg PUBLIC "-//W3C//DTD SVG 1.1//EN"
  "http://www.w3.org/Graphics/SVG/1.1/DTD/svg11.dtd">
<svg xmlns:xlink="http://www.w3.org/1999/xlink" width="792pt" height="612pt" viewBox="0 0 792 612" xmlns="http://www.w3.org/2000/svg" version="1.1">
 <metadata>
  <rdf:RDF xmlns:dc="http://purl.org/dc/elements/1.1/" xmlns:cc="http://creativecommons.org/ns#" xmlns:rdf="http://www.w3.org/1999/02/22-rdf-syntax-ns#">
   <cc:Work>
    <dc:type rdf:resource="http://purl.org/dc/dcmitype/StillImage"/>
    <dc:date>2022-12-26T20:26:05.577055</dc:date>
    <dc:format>image/svg+xml</dc:format>
    <dc:creator>
     <cc:Agent>
      <dc:title>Matplotlib v3.6.2, https://matplotlib.org/</dc:title>
     </cc:Agent>
    </dc:creator>
   </cc:Work>
  </rdf:RDF>
 </metadata>
 <defs>
  <style type="text/css">*{stroke-linejoin: round; stroke-linecap: butt}</style>
 </defs>
 <g id="figure_1">
  <g id="patch_1">
   <path d="M 0 612 
L 792 612 
L 792 0 
L 0 0 
z
" style="fill: #ffffff"/>
  </g>
  <g id="axes_1">
   <g id="line2d_1">
    <path d="M 0 306 
L 39.6 305.351075 
L 79.2 300.955581 
L 118.8 305.45574 
L 158.4 307.025718 
L 198 308.637505 
L 237.6 305.811602 
L 277.2 306.481461 
L 316.8 304.932416 
L 356.4 307.528103 
L 396 301.47878 
L 435.6 303.153181 
L 475.2 307.486238 
L 514.8 321.686061 
L 554.4 310.604933 
L 594 308.700299 
L 633.6 300.955581 
L 673.2 304.199774 
L 712.8 308.637505 
L 752.4 304.388167 
" clip-path="url(#p24092830cf)" style="fill: none; stroke: #000000; stroke-width: 1.5; stroke-linecap: square"/>
   </g>
   <g id="line2d_2">
    <path d="M 0 306 
L 39.6 306 
L 79.2 305.567383 
L 118.8 302.931909 
L 158.4 304.277922 
L 198 305.696133 
L 237.6 307.19019 
L 277.2 306.495471 
L 316.8 306.488438 
L 356.4 305.708332 
L 396 306.622492 
L 435.6 304.051524 
L 475.2 303.597833 
L 514.8 305.54292 
L 554.4 313.645392 
L 594 312.134709 
L 633.6 310.421993 
L 673.2 305.680914 
L 712.8 304.933812 
L 752.4 306.799725 
" clip-path="url(#p24092830cf)" style="fill: none; stroke: #000000; stroke-width: 1.5; stroke-linecap: square"/>
   </g>
   <g id="line2d_3">
    <path d="M 0 306 
L 39.6 306 
L 79.2 305.619868 
L 118.8 303.506412 
L 158.4 304.267657 
L 198 305.248934 
L 237.6 306.383228 
L 277.2 306.199569 
L 316.8 306.287638 
L 356.4 305.872348 
L 396 306.372955 
L 435.6 304.906999 
L 475.2 304.385152 
L 514.8 305.30358 
L 554.4 310.143488 
L 594 310.279395 
L 633.6 309.815095 
L 673.2 307.214408 
L 712.8 306.330118 
L 752.4 307.014776 
" clip-path="url(#p24092830cf)" style="fill: none; stroke: #000000; stroke-width: 1.5; stroke-linecap: square"/>
   </g>
   <g id="line2d_4">
    <path d="M 0 306 
L 39.6 306 
L 79.2 305.647495 
L 118.8 303.805945 
L 158.4 304.330912 
L 198 305.070705 
L 237.6 305.948581 
L 277.2 305.917566 
L 316.8 306.03719 
L 356.4 305.814628 
L 396 306.145792 
L 435.6 305.273542 
L 475.2 304.88798 
L 514.8 305.349927 
L 554.4 308.203436 
L 594 308.616229 
L 633.6 308.630497 
L 673.2 307.341622 
L 712.8 306.818632 
L 752.4 307.119198 
" clip-path="url(#p24092830cf)" style="fill: none; stroke: #000000; stroke-width: 1.5; stroke-linecap: square"/>
   </g>
   <g id="line2d_5">
    <path d="M 0 306 
L 39.6 306 
L 79.2 305.66149 
L 118.8 303.955017 
L 158.4 304.380264 
L 198 305.004757 
L 237.6 305.748492 
L 277.2 305.760011 
L 316.8 305.879766 
L 356.4 305.734564 
L 396 305.991413 
L 435.6 305.381829 
L 475.2 305.095689 
L 514.8 305.38928 
L 554.4 307.315716 
L 594 307.691057 
L 633.6 307.802743 
L 673.2 307.065391 
L 712.8 306.764249 
L 752.4 306.956856 
" clip-path="url(#p24092830cf)" style="fill: none; stroke: #000000; stroke-width: 1.5; stroke-linecap: square"/>
   </g>
   <g id="line2d_6">
    <path d="M 0 306 
L 39.6 306 
L 79.2 305.66851 
L 118.8 304.028875 
L 158.4 304.409089 
L 198 304.978704 
L 237.6 305.65641 
L 277.2 305.681563 
L 316.8 305.797349 
L 356.4 305.683773 
L 396 305.906181 
L 435.6 305.410968 
L 475.2 305.174839 
L 514.8 305.402416 
L 554.4 306.921846 
L 594 307.248641 
L 633.6 307.371735 
L 673.2 306.849784 
L 712.8 306.642301 
L 752.4 306.793106 
" clip-path="url(#p24092830cf)" style="fill: none; stroke: #000000; stroke-width: 1.5; stroke-linecap: square"/>
   </g>
   <g id="line2d_7">
    <path d="M 0 306 
L 39.6 306 
L 79.2 305.672023 
L 118.8 304.065571 
L 158.4 304.424481 
L 198 304.9675 
L 237.6 305.612771 
L 277.2 305.643054 
L 316.8 305.75597 
L 356.4 305.656337 
L 396 305.86228 
L 435.6 305.419205 
L 475.2 305.207064 
L 514.8 305.406064 
L 554.4 306.740768 
L 594 307.039272 
L 633.6 307.160795 
L 673.2 306.729126 
L 712.8 306.561261 
L 752.4 306.693131 
" clip-path="url(#p24092830cf)" style="fill: none; stroke: #000000; stroke-width: 1.5; stroke-linecap: square"/>
   </g>
   <g id="line2d_8">
    <path d="M 0 306 
L 39.6 306 
L 79.2 305.67378 
L 118.8 304.083854 
L 158.4 304.432412 
L 198 304.962362 
L 237.6 305.591598 
L 277.2 305.624057 
L 316.8 305.735339 
L 356.4 305.642212 
L 396 305.840125 
L 435.6 305.421791 
L 475.2 305.221271 
L 514.8 305.407045 
L 554.4 306.654503 
L 594 306.93832 
L 633.6 307.057616 
L 673.2 306.66671 
L 712.8 306.516678 
L 752.4 306.639516 
" clip-path="url(#p24092830cf)" style="fill: none; stroke: #000000; stroke-width: 1.5; stroke-linecap: square"/>
   </g>
   <g id="line2d_9">
    <path d="M 0 306 
L 39.6 306 
L 79.2 305.674659 
L 118.8 304.092978 
L 158.4 304.436436 
L 198 304.95991 
L 237.6 305.581178 
L 277.2 305.614633 
L 316.8 305.725051 
L 356.4 305.635061 
L 396 305.829012 
L 435.6 305.422712 
L 475.2 305.227895 
L 514.8 305.407314 
L 554.4 306.612468 
L 594 306.888862 
L 633.6 307.006736 
L 673.2 306.635132 
L 712.8 306.493516 
L 752.4 306.611944 
" clip-path="url(#p24092830cf)" style="fill: none; stroke: #000000; stroke-width: 1.5; stroke-linecap: square"/>
   </g>
  </g>
 </g>
 <defs>
  <clipPath id="p24092830cf">
   <rect x="0" y="0" width="792" height="612"/>
  </clipPath>
 </defs>
</svg>
