<?xml version="1.0" encoding="utf-8" standalone="no"?>
<!DOCTYPE svg PUBLIC "-//W3C//DTD SVG 1.1//EN"
  "http://www.w3.org/Graphics/SVG/1.1/DTD/svg11.dtd">
<svg xmlns:xlink="http://www.w3.org/1999/xlink" width="792pt" height="612pt" viewBox="0 0 792 612" xmlns="http://www.w3.org/2000/svg" version="1.1">
 <metadata>
  <rdf:RDF xmlns:dc="http://purl.org/dc/elements/1.1/" xmlns:cc="http://creativecommons.org/ns#" xmlns:rdf="http://www.w3.org/1999/02/22-rdf-syntax-ns#">
   <cc:Work>
    <dc:type rdf:resource="http://purl.org/dc/dcmitype/StillImage"/>
    <dc:date>2022-12-26T20:28:11.389339</dc:date>
    <dc:format>image/svg+xml</dc:format>
    <dc:creator>
     <cc:Agent>
      <dc:title>Matplotlib v3.6.2, https://matplotlib.org/</dc:title>
     </cc:Agent>
    </dc:creator>
   </cc:Work>
  </rdf:RDF>
 </metadata>
 <defs>
  <style type="text/css">*{stroke-linejoin: round; stroke-linecap: butt}</style>
 </defs>
 <g id="figure_1">
  <g id="patch_1">
   <path d="M 0 612 
L 792 612 
L 792 0 
L 0 0 
z
" style="fill: #ffffff"/>
  </g>
  <g id="axes_1">
   <g id="line2d_1">
    <path d="M 0 459 
L 3.142857 455.477884 
L 6.285714 452.967298 
L 9.428571 451.014861 
L 12.571429 451.886453 
L 15.714286 443.591873 
L 18.857143 436.698777 
L 22 436.003013 
L 25.142857 446.030653 
L 28.285714 447.807948 
L 31.428571 447.110926 
L 34.571429 454.640991 
L 37.714286 452.130508 
L 40.857143 448.051917 
L 44 449.969028 
L 47.142857 454.396903 
L 50.285714 459.046497 
L 53.428571 459.92995 
L 56.571429 461.638733 
L 59.714286 462.254824 
L 62.857143 443.382873 
L 66 449.794731 
L 69.142857 455.861468 
L 72.285714 448.958144 
L 75.428571 452.200239 
L 78.571429 445.36862 
L 81.714286 439.378399 
L 84.857143 437.533829 
L 88 439.726504 
L 91.142857 439.413209 
L 94.285714 440.179074 
L 97.428571 437.499032 
L 100.571429 452.374567 
L 103.714286 455.268658 
L 106.857143 460.708783 
L 110 460.952895 
L 113.142857 461.836347 
L 116.285714 466.730208 
L 119.428571 467.450919 
L 122.571429 467.950767 
L 125.714286 470.101276 
L 128.857143 470.21752 
L 132 467.648534 
L 135.142857 469.589804 
L 138.285714 470.938231 
L 141.428571 468.020514 
L 144.571429 465.614268 
L 147.714286 464.812187 
L 150.857143 465.451527 
L 154 465.904878 
L 157.142857 465.277162 
L 160.285714 467.450919 
L 163.428571 467.90427 
L 166.571429 467.927519 
L 169.714286 465.951375 
L 172.857143 464.323963 
L 176 463.254521 
L 179.142857 462.324571 
L 182.285714 463.091779 
L 185.428571 461.97584 
L 188.571429 462.859292 
L 191.714286 461.754976 
L 194.857143 459.313858 
L 198 459.174366 
L 201.142857 457.884062 
L 204.285714 457.22148 
L 207.428571 460.8599 
L 213.714286 460.56929 
L 216.857143 462.173454 
L 220 461.592235 
L 226.285714 463.521881 
L 229.428571 465.102796 
L 232.571429 465.556146 
L 235.714286 465.370157 
L 238.857143 464.881933 
L 242 465.335283 
L 245.142857 461.87122 
L 248.285714 435.65517 
L 251.428571 430.336769 
L 254.571429 435.898657 
L 257.714286 432.942952 
L 260.857143 443.069386 
L 264 447.006378 
L 267.142857 444.636966 
L 270.285714 456.9425 
L 273.428571 454.048209 
L 276.571429 455.861468 
L 279.714286 438.856284 
L 282.857143 444.009891 
L 286 437.916609 
L 289.142857 449.167285 
L 292.285714 461.894469 
L 295.428571 460.01132 
L 298.571429 454.536381 
L 301.714286 452.095643 
L 304.857143 447.110926 
L 308 435.481259 
L 311.142857 454.396903 
L 314.285714 461.278377 
L 317.428571 462.650053 
L 320.571429 459.523097 
L 323.714286 451.398355 
L 326.857143 449.341572 
L 330 440.631681 
L 333.142857 432.352064 
L 336.285714 433.846832 
L 339.428571 431.796014 
L 342.571429 429.294805 
L 345.714286 425.719801 
L 348.857143 419.828382 
L 352 420.174596 
L 355.142857 426.934175 
L 358.285714 436.907526 
L 361.428571 443.069386 
L 364.571429 446.832133 
L 367.714286 444.706644 
L 370.857143 440.039818 
L 374 444.880842 
L 377.142857 447.145776 
L 380.285714 437.290257 
L 383.428571 439.970191 
L 386.571429 435.237795 
L 389.714286 422.668625 
L 392.857143 420.10535 
L 396 423.3618 
L 399.142857 427.350637 
L 402.285714 425.685112 
L 405.428571 425.927947 
L 408.571429 438.09061 
L 411.714286 436.490037 
L 414.857143 426.934175 
L 418 428.183716 
L 421.142857 426.344279 
L 424.285714 432.664876 
L 427.428571 439.62207 
L 430.571429 433.081998 
L 433.714286 430.093617 
L 436.857143 436.316094 
L 440 459.860204 
L 443.142857 461.836347 
L 446.285714 464.196095 
L 449.428571 462.917414 
L 452.571429 462.580307 
L 455.714286 463.115028 
L 458.857143 461.906093 
L 462 461.78985 
L 465.142857 459.964823 
L 468.285714 457.535334 
L 471.428571 458.337411 
L 474.571429 456.48916 
L 477.714286 458.930254 
L 480.857143 456.000954 
L 484 455.547626 
L 487.142857 461.49924 
L 490.285714 459.139492 
L 493.428571 455.791725 
L 496.571429 450.66624 
L 499.714286 447.45943 
L 502.857143 441.780764 
L 509.142857 433.047236 
L 512.285714 435.481259 
L 515.428571 445.298935 
L 518.571429 448.121624 
L 521.714286 453.385708 
L 524.857143 450.770826 
L 528 460.441422 
L 531.142857 460.522793 
L 534.285714 461.371372 
L 537.428571 462.684926 
L 540.571429 461.278377 
L 543.714286 463.452135 
L 546.857143 464.695943 
L 550 463.54513 
L 556.285714 461.824723 
L 559.428571 460.11594 
L 562.571429 464.079851 
L 565.714286 463.568379 
L 568.857143 466.125741 
L 572 464.056602 
L 575.142857 463.521881 
L 581.428571 466.776706 
L 584.571429 466.334979 
L 587.714286 469.357317 
L 590.857143 470.171023 
L 594 470.484881 
L 597.142857 469.299195 
L 600.285714 470.612749 
L 603.428571 473.890822 
L 606.571429 470.752241 
L 609.714286 466.114116 
L 612.857143 465.835131 
L 619.142857 473.879198 
L 622.285714 475.123006 
L 625.428571 475.064884 
L 628.571429 475.332244 
L 631.714286 470.426759 
L 634.857143 472.461024 
L 641.142857 469.089956 
L 644.285714 469.589804 
L 647.428571 462.859292 
L 650.571429 460.999392 
L 653.714286 455.268658 
L 656.857143 454.431772 
L 660 447.180626 
L 663.142857 448.017064 
L 666.285714 434.994344 
L 669.428571 435.75952 
L 672.571429 436.072585 
L 675.714286 440.840588 
L 678.857143 449.062714 
L 682 440.387965 
L 685.142857 435.585605 
L 688.285714 429.676823 
L 691.428571 438.89109 
L 694.571429 425.546357 
L 697.714286 418.824618 
L 700.857143 415.262717 
L 704 414.778976 
L 707.142857 414.157168 
L 713.428571 403.407513 
L 716.571429 406.709081 
L 719.714286 398.397662 
L 726 400.900829 
L 729.142857 408.430843 
L 732.285714 407.363178 
L 735.428571 399.083103 
L 738.571429 398.192083 
L 741.714286 399.871696 
L 744.857143 404.197995 
L 748 403.888637 
L 751.142857 404.67932 
L 754.285714 402.926513 
L 757.428571 405.435933 
L 760.571429 398.020786 
L 763.714286 393.368302 
L 766.857143 395.795519 
L 770 421.629175 
L 773.142857 429.260078 
L 776.285714 433.742528 
L 779.428571 425.372923 
L 782.571429 422.391401 
L 785.714286 426.760665 
L 788.857143 424.08981 
L 788.857143 424.08981 
" clip-path="url(#pe02f5c13ce)" style="fill: none; stroke: #000000; stroke-width: 1.5; stroke-linecap: square"/>
   </g>
   <g id="line2d_2">
    <path d="M 0 459 
L 3.142857 459 
L 6.285714 456.651897 
L 9.428571 454.546344 
L 12.571429 452.662794 
L 15.714286 452.262097 
L 18.857143 447.857184 
L 22 442.231573 
L 25.142857 439.104163 
L 28.285714 442.541067 
L 31.428571 445.159022 
L 34.571429 446.123437 
L 37.714286 450.388581 
L 40.857143 451.259995 
L 44 449.664591 
L 47.142857 449.84285 
L 50.285714 452.155803 
L 53.428571 455.673163 
L 56.571429 458.758897 
L 59.714286 460.292129 
L 62.857143 461.282708 
L 66 454.595455 
L 69.142857 452.198325 
L 72.285714 454.041372 
L 75.428571 451.488864 
L 78.571429 451.830943 
L 81.714286 448.567076 
L 84.857143 443.917269 
L 88 440.663494 
L 94.285714 439.780156 
L 97.428571 439.948894 
L 100.571429 438.701366 
L 103.714286 445.535318 
L 106.857143 450.420434 
L 110 457.321448 
L 113.142857 459.714557 
L 116.285714 460.793618 
L 119.428571 463.78988 
L 122.571429 465.649278 
L 125.714286 466.831637 
L 128.857143 468.492554 
L 132 469.379471 
L 135.142857 468.52761 
L 138.285714 469.075642 
L 141.428571 470.024783 
L 144.571429 469.025179 
L 147.714286 467.316122 
L 150.857143 466.058 
L 154 465.745647 
L 157.142857 465.816806 
L 160.285714 465.542334 
L 163.428571 466.492433 
L 166.571429 467.192402 
L 169.714286 467.559778 
L 172.857143 466.756238 
L 179.142857 464.392524 
L 182.285714 463.351527 
L 185.428571 463.217368 
L 188.571429 462.585868 
L 191.714286 462.712688 
L 194.857143 462.221729 
L 198 460.754779 
L 201.142857 459.954475 
L 207.428571 458.510956 
L 210.571429 459.844066 
L 213.714286 460.27394 
L 216.857143 460.417125 
L 220 461.29611 
L 223.142857 461.44864 
L 226.285714 462.015317 
L 229.428571 462.778195 
L 232.571429 463.953624 
L 235.714286 464.764094 
L 238.857143 465.076265 
L 242 464.987555 
L 245.142857 465.167619 
L 248.285714 463.519967 
L 251.428571 454.030843 
L 254.571429 442.089818 
L 260.857143 435.837136 
L 264 439.38345 
L 267.142857 443.13577 
L 270.285714 443.82096 
L 273.428571 450.359052 
L 279.714286 454.100581 
L 282.857143 446.480784 
L 286 445.266963 
L 289.142857 441.580563 
L 292.285714 445.377228 
L 295.428571 456.573537 
L 298.571429 459.104574 
L 301.714286 456.925952 
L 304.857143 454.503289 
L 308 450.822777 
L 311.142857 443.130853 
L 314.285714 448.794662 
L 317.428571 457.346748 
L 320.571429 460.550965 
L 323.714286 460.036074 
L 326.857143 456.746804 
L 330 453.038399 
L 333.142857 446.820107 
L 336.285714 439.57511 
L 339.428571 436.669853 
L 345.714286 431.649928 
L 348.857143 428.615446 
L 352 424.156978 
L 355.142857 422.10809 
L 358.285714 424.493385 
L 364.571429 436.900841 
L 367.714286 441.893977 
L 370.857143 443.330419 
L 374 441.713028 
L 377.142857 443.345991 
L 380.285714 445.298662 
L 383.428571 441.313457 
L 386.571429 440.647792 
L 389.714286 437.926708 
L 392.857143 430.242367 
L 396 425.121562 
L 399.142857 424.208919 
L 402.285714 425.745105 
L 405.428571 425.673141 
L 408.571429 425.778299 
L 411.714286 431.925888 
L 414.857143 434.209802 
L 418 430.578574 
L 421.142857 429.396809 
L 424.285714 427.876052 
L 427.428571 430.2801 
L 430.571429 434.975932 
L 433.714286 434.042903 
L 436.857143 432.052087 
L 440 434.183212 
L 443.142857 447.939977 
L 446.285714 457.800641 
L 449.428571 461.429722 
L 452.571429 462.19848 
L 455.714286 462.409087 
L 458.857143 462.787084 
L 462 462.371205 
L 465.142857 462.100836 
L 468.285714 461.033034 
L 471.428571 459.765887 
L 474.571429 459.26189 
L 477.714286 458.109437 
L 480.857143 458.498648 
L 484 457.219702 
L 487.142857 456.359792 
L 490.285714 459.809011 
L 493.428571 459.472633 
L 496.571429 458.101369 
L 499.714286 454.36846 
L 502.857143 450.895782 
L 509.142857 441.863386 
L 512.285714 437.409244 
L 515.428571 436.384442 
L 518.571429 440.812324 
L 521.714286 444.451023 
L 524.857143 448.922741 
L 528 449.85324 
L 531.142857 456.630427 
L 534.285714 459.383513 
L 537.428571 460.399073 
L 540.571429 461.56461 
L 543.714286 461.434919 
L 550 463.592494 
L 553.142857 463.583103 
L 556.285714 463.126744 
L 559.428571 462.478286 
L 562.571429 461.294651 
L 565.714286 462.689986 
L 568.857143 463.133673 
L 572 464.634949 
L 575.142857 464.344522 
L 578.285714 463.933156 
L 581.428571 464.563607 
L 584.571429 465.679866 
L 587.714286 466.019617 
L 590.857143 467.698815 
L 594 468.947865 
L 597.142857 469.72492 
L 600.285714 469.522337 
L 603.428571 470.081447 
L 606.571429 472.003206 
L 609.714286 471.385519 
L 612.857143 468.749385 
L 616 467.285352 
L 619.142857 468.599818 
L 622.285714 471.246163 
L 625.428571 473.196004 
L 628.571429 474.139173 
L 631.714286 474.738535 
L 634.857143 472.582009 
L 638 472.533961 
L 641.142857 471.646908 
L 644.285714 470.366814 
L 647.428571 469.969898 
L 650.571429 466.390549 
L 653.714286 463.667391 
L 656.857143 460.677329 
L 660 459.051877 
L 663.142857 453.064789 
L 666.285714 450.4501 
L 669.428571 442.61127 
L 672.571429 439.07659 
L 675.714286 437.50681 
L 678.857143 439.126139 
L 682 444.08052 
L 685.142857 442.206451 
L 688.285714 438.872254 
L 691.428571 434.236119 
L 694.571429 436.570667 
L 697.714286 431.034438 
L 700.857143 424.88967 
L 704 420.021849 
L 707.142857 417.33211 
L 710.285714 415.692882 
L 713.428571 412.161745 
L 716.571429 407.728592 
L 719.714286 407.156058 
L 722.857143 402.718658 
L 726 401.119781 
L 729.142857 400.982243 
L 732.285714 404.690512 
L 735.428571 406.013099 
L 738.571429 402.52591 
L 741.714286 400.347444 
L 744.857143 400.096171 
L 748 402.157309 
L 754.285714 403.862488 
L 757.428571 403.383662 
L 760.571429 404.405746 
L 763.714286 401.208339 
L 766.857143 397.274269 
L 770 396.526743 
L 773.142857 409.074277 
L 776.285714 419.197574 
L 779.428571 426.518992 
L 782.571429 425.990121 
L 785.714286 424.223604 
L 788.857143 425.548534 
L 788.857143 425.548534 
" clip-path="url(#pe02f5c13ce)" style="fill: none; stroke: #000000; stroke-width: 1.5; stroke-linecap: square"/>
   </g>
   <g id="line2d_3">
    <path d="M 0 459 
L 3.142857 459 
L 6.285714 456.936766 
L 9.428571 455.138198 
L 12.571429 453.527824 
L 15.714286 452.943825 
L 18.857143 449.812453 
L 22 445.596471 
L 25.142857 442.597634 
L 28.285714 443.649457 
L 31.428571 444.906506 
L 34.571429 445.566692 
L 37.714286 448.265903 
L 40.857143 449.410331 
L 44 449.00931 
L 47.142857 449.291957 
L 50.285714 450.792832 
L 56.571429 455.749414 
L 59.714286 459.012024 
L 62.857143 459.968615 
L 66 456.469077 
L 69.142857 454.521099 
L 72.285714 454.935706 
L 75.428571 453.199583 
L 78.571429 452.913965 
L 81.714286 450.700658 
L 84.857143 447.373896 
L 88 444.470647 
L 91.142857 443.06651 
L 94.285714 441.986333 
L 97.428571 441.445703 
L 100.571429 440.27006 
L 103.714286 443.805678 
L 106.857143 447.154297 
L 110 452.120746 
L 113.142857 455.846801 
L 116.285714 459.096758 
L 119.428571 461.344948 
L 122.571429 463.144254 
L 125.714286 464.566175 
L 128.857143 466.202723 
L 132 467.396735 
L 135.142857 467.487936 
L 138.285714 468.123947 
L 141.428571 468.969328 
L 144.571429 468.709291 
L 150.857143 466.95224 
L 154 466.522638 
L 157.142857 466.35106 
L 160.285714 466.04177 
L 169.714286 467.19623 
L 172.857143 466.829898 
L 179.142857 465.252888 
L 182.285714 464.386138 
L 185.428571 464.001795 
L 188.571429 463.399661 
L 191.714286 463.232111 
L 194.857143 462.792272 
L 198 461.766231 
L 204.285714 460.297861 
L 207.428571 459.735475 
L 210.571429 460.059738 
L 216.857143 460.329503 
L 220 460.862975 
L 223.142857 461.071563 
L 226.285714 461.508043 
L 229.428571 462.09819 
L 232.571429 462.98141 
L 235.714286 463.738363 
L 238.857143 464.220203 
L 245.142857 464.689606 
L 248.285714 463.867058 
L 251.428571 460.151234 
L 254.571429 453.00459 
L 257.714286 447.966027 
L 260.857143 443.525649 
L 264 443.367844 
L 267.142857 444.414196 
L 270.285714 444.452032 
L 273.428571 448.09771 
L 279.714286 451.571716 
L 282.857143 447.801243 
L 286 446.650814 
L 289.142857 444.04528 
L 292.285714 445.513615 
L 295.428571 451.992939 
L 298.571429 454.927199 
L 301.714286 454.834439 
L 304.857143 454.057257 
L 308 452.035242 
L 311.142857 447.18581 
L 314.285714 449.310457 
L 317.428571 454.171212 
L 320.571429 458.821713 
L 323.714286 459.112577 
L 326.857143 457.009107 
L 330 454.755542 
L 333.142857 450.618773 
L 336.285714 445.249829 
L 339.428571 441.902898 
L 348.857143 432.983351 
L 352 429.085124 
L 355.142857 426.436055 
L 358.285714 426.558827 
L 361.428571 429.58857 
L 367.714286 437.393668 
L 370.857143 439.50567 
L 374 439.638562 
L 377.142857 441.166049 
L 380.285714 442.914413 
L 383.428571 441.26272 
L 386.571429 440.892875 
L 389.714286 439.237493 
L 392.857143 434.366787 
L 396 430.172949 
L 399.142857 428.173842 
L 402.285714 427.941362 
L 405.428571 427.286699 
L 408.571429 426.887515 
L 411.714286 430.166805 
L 414.857143 432.010263 
L 418 430.499946 
L 421.142857 429.802432 
L 424.285714 428.773487 
L 427.428571 429.898819 
L 430.571429 432.735748 
L 433.714286 432.832328 
L 436.857143 432.01864 
L 440 433.278115 
L 443.142857 441.60177 
L 449.428571 456.722215 
L 452.571429 459.627137 
L 458.857143 461.289692 
L 465.142857 461.5837 
L 468.285714 461.122947 
L 471.428571 460.369408 
L 477.714286 459.411633 
L 480.857143 459.291656 
L 484 458.766639 
L 487.142857 457.853076 
L 490.285714 459.47324 
L 493.428571 459.37466 
L 496.571429 458.841618 
L 499.714286 456.419386 
L 502.857143 453.767814 
L 506 450.223305 
L 509.142857 446.455314 
L 512.285714 442.485131 
L 515.428571 440.39621 
L 518.571429 441.812755 
L 521.714286 443.649211 
L 524.857143 446.494241 
L 528 447.740067 
L 531.142857 452.308497 
L 534.285714 455.614858 
L 537.428571 458.702113 
L 540.571429 460.010439 
L 543.714286 460.384266 
L 550 462.296721 
L 553.142857 462.672012 
L 556.285714 462.679787 
L 559.428571 462.440827 
L 562.571429 461.771112 
L 565.714286 462.462173 
L 568.857143 462.796668 
L 572 463.784081 
L 575.142857 463.871858 
L 578.285714 463.777697 
L 581.428571 464.19509 
L 584.571429 464.958411 
L 587.714286 465.3673 
L 594 467.61627 
L 597.142857 468.464545 
L 600.285714 468.714295 
L 603.428571 469.278457 
L 606.571429 470.642286 
L 609.714286 470.684745 
L 612.857143 469.352928 
L 616 468.324606 
L 619.142857 468.797795 
L 625.428571 471.721808 
L 628.571429 472.71423 
L 631.714286 473.492685 
L 634.857143 472.598888 
L 638 472.565545 
L 641.142857 472.032625 
L 644.285714 471.169495 
L 647.428571 470.705786 
L 656.857143 463.723547 
L 660 461.878789 
L 663.142857 459.86872 
L 666.285714 457.589227 
L 669.428571 450.900545 
L 672.571429 446.384611 
L 675.714286 443.280685 
L 678.857143 442.489772 
L 682 444.346736 
L 685.142857 443.126295 
L 688.285714 440.84342 
L 691.428571 437.495955 
L 694.571429 437.846784 
L 697.714286 434.165357 
L 700.857143 429.605524 
L 704 425.340397 
L 707.142857 422.196442 
L 710.285714 419.793128 
L 713.428571 416.506675 
L 716.571429 412.610776 
L 719.714286 410.848149 
L 722.857143 407.150461 
L 726 404.893401 
L 729.142857 403.677562 
L 732.285714 405.02231 
L 735.428571 405.669988 
L 738.571429 403.696615 
L 741.714286 402.046661 
L 744.857143 401.364884 
L 748 402.169856 
L 754.285714 403.236294 
L 757.428571 403.131981 
L 760.571429 403.796515 
L 763.714286 402.090615 
L 766.857143 399.519748 
L 770 398.415583 
L 779.428571 418.577165 
L 782.571429 420.585373 
L 785.714286 421.13153 
L 788.857143 422.81108 
L 788.857143 422.81108 
" clip-path="url(#pe02f5c13ce)" style="fill: none; stroke: #000000; stroke-width: 1.5; stroke-linecap: square"/>
   </g>
   <g id="line2d_4">
    <path d="M 0 459 
L 3.142857 459 
L 6.285714 457.086712 
L 9.428571 455.469916 
L 12.571429 454.052174 
L 15.714286 453.457595 
L 18.857143 451.028614 
L 22 447.781716 
L 25.142857 445.281242 
L 28.285714 445.432208 
L 31.428571 445.891312 
L 34.571429 446.119225 
L 37.714286 447.668272 
L 40.857143 448.461488 
L 44 448.390004 
L 47.142857 448.661388 
L 50.285714 449.634586 
L 53.428571 451.230399 
L 56.571429 452.987852 
L 62.857143 457.502286 
L 66 455.194309 
L 69.142857 454.315693 
L 72.285714 454.566282 
L 75.428571 453.65971 
L 78.571429 453.424403 
L 81.714286 452.128018 
L 88 448.06613 
L 91.142857 446.729861 
L 94.285714 445.558773 
L 97.428571 444.698562 
L 100.571429 443.548034 
L 103.714286 444.947641 
L 106.857143 446.58894 
L 110 449.38503 
L 116.285714 454.355015 
L 119.428571 458.807714 
L 122.571429 460.300589 
L 125.714286 461.528131 
L 128.857143 462.901774 
L 132 464.075062 
L 135.142857 464.651484 
L 141.428571 466.32762 
L 144.571429 466.604871 
L 160.285714 465.935781 
L 169.714286 466.703677 
L 172.857143 466.588973 
L 176 466.234012 
L 188.571429 464.432225 
L 191.714286 464.188384 
L 194.857143 463.807015 
L 201.142857 462.476848 
L 207.428571 461.315782 
L 216.857143 461.063662 
L 220 461.237391 
L 223.142857 461.290192 
L 226.285714 461.490247 
L 229.428571 461.809382 
L 235.714286 462.842141 
L 238.857143 463.241725 
L 245.142857 463.789407 
L 248.285714 463.481881 
L 254.571429 459.587919 
L 257.714286 456.77719 
L 260.857143 452.952925 
L 264 451.354051 
L 267.142857 450.638065 
L 270.285714 449.657359 
L 273.428571 450.80194 
L 276.571429 451.305335 
L 279.714286 452.020235 
L 282.857143 449.905681 
L 286 448.950382 
L 289.142857 447.175039 
L 292.285714 447.478633 
L 295.428571 450.692418 
L 298.571429 452.497876 
L 301.714286 452.819083 
L 304.857143 452.700368 
L 308 451.804591 
L 311.142857 449.187042 
L 314.285714 450.009747 
L 317.428571 452.528411 
L 320.571429 455.300886 
L 323.714286 456.135204 
L 326.857143 455.370065 
L 330 454.396283 
L 333.142857 452.182206 
L 336.285714 448.994632 
L 348.857143 439.19064 
L 352 436.093608 
L 355.142857 433.549779 
L 358.285714 432.490836 
L 361.428571 433.195712 
L 364.571429 434.765285 
L 367.714286 436.683243 
L 370.857143 437.959051 
L 374 438.279522 
L 377.142857 439.3236 
L 380.285714 440.562057 
L 383.428571 440.040391 
L 386.571429 440.026702 
L 389.714286 439.262793 
L 396 433.942223 
L 399.142857 432.232666 
L 402.285714 431.43855 
L 405.428571 430.506077 
L 408.571429 429.764078 
L 411.714286 431.089336 
L 414.857143 431.936982 
L 418 431.11634 
L 421.142857 430.623601 
L 424.285714 429.921092 
L 427.428571 430.345843 
L 430.571429 431.814301 
L 433.714286 432.011264 
L 436.857143 431.704685 
L 440 432.439571 
L 443.142857 437.086312 
L 446.285714 441.944383 
L 449.428571 447.164689 
L 452.571429 450.948006 
L 455.714286 453.968517 
L 458.857143 456.760782 
L 462 458.523379 
L 465.142857 459.315334 
L 468.285714 459.421803 
L 477.714286 459.040672 
L 480.857143 459.032953 
L 487.142857 458.138914 
L 490.285714 459.162782 
L 493.428571 459.166736 
L 496.571429 458.932491 
L 499.714286 457.634239 
L 502.857143 456.027618 
L 506 453.769872 
L 509.142857 451.186428 
L 512.285714 448.294161 
L 515.428571 446.253317 
L 518.571429 446.112943 
L 521.714286 446.444959 
L 524.857143 447.56585 
L 528 448.087015 
L 531.142857 450.525346 
L 537.428571 454.788543 
L 540.571429 457.238427 
L 543.714286 458.608841 
L 546.857143 459.599717 
L 550 460.410857 
L 553.142857 460.909923 
L 556.285714 461.188684 
L 559.428571 461.289075 
L 562.571429 461.101308 
L 565.714286 461.576634 
L 568.857143 461.895776 
L 572 462.573529 
L 575.142857 462.812784 
L 578.285714 462.928948 
L 581.428571 463.291634 
L 584.571429 463.851597 
L 587.714286 464.252007 
L 597.142857 466.627034 
L 600.285714 467.060344 
L 603.428571 467.635191 
L 606.571429 468.643358 
L 609.714286 468.990696 
L 616 468.121215 
L 619.142857 468.416319 
L 628.571429 471.015347 
L 631.714286 471.711472 
L 634.857143 471.513249 
L 638 471.670962 
L 641.142857 471.527967 
L 644.285714 471.144945 
L 647.428571 470.901346 
L 653.714286 468.247414 
L 656.857143 466.575162 
L 660 465.124932 
L 663.142857 463.520305 
L 666.285714 462.213068 
L 669.428571 460.419719 
L 672.571429 458.85285 
L 675.714286 455.201694 
L 678.857143 452.895768 
L 682 452.268072 
L 685.142857 450.350722 
L 688.285714 447.971213 
L 691.428571 445.018981 
L 694.571429 444.010192 
L 697.714286 441.02538 
L 704 433.853498 
L 707.142857 430.755769 
L 710.285714 428.058925 
L 713.428571 424.931621 
L 716.571429 421.447117 
L 719.714286 419.043417 
L 722.857143 415.680151 
L 726 413.046297 
L 729.142857 411.043308 
L 735.428571 410.002861 
L 738.571429 408.199371 
L 741.714286 406.544288 
L 744.857143 405.425852 
L 751.142857 404.930768 
L 754.285714 404.853491 
L 757.428571 404.514399 
L 760.571429 404.630697 
L 763.714286 403.546984 
L 766.857143 401.889693 
L 770 400.89436 
L 773.142857 404.170797 
L 779.428571 412.19206 
L 782.571429 414.26987 
L 785.714286 415.549109 
L 788.857143 417.324284 
L 788.857143 417.324284 
" clip-path="url(#pe02f5c13ce)" style="fill: none; stroke: #000000; stroke-width: 1.5; stroke-linecap: square"/>
   </g>
   <g id="line2d_5">
    <path d="M 0 459 
L 3.142857 459 
L 6.285714 457.162671 
L 9.428571 455.641379 
L 12.571429 454.330271 
L 15.714286 453.753341 
L 18.857143 451.67226 
L 22 448.937338 
L 25.142857 446.788683 
L 28.285714 446.672495 
L 31.428571 446.835091 
L 34.571429 446.872348 
L 37.714286 447.869453 
L 40.857143 448.392679 
L 44 448.352431 
L 47.142857 448.536878 
L 50.285714 449.185222 
L 53.428571 450.256843 
L 56.571429 451.468553 
L 62.857143 454.64003 
L 66 453.52452 
L 69.142857 453.160872 
L 72.285714 453.420371 
L 75.428571 452.997059 
L 78.571429 452.922363 
L 81.714286 452.221593 
L 88 449.810531 
L 94.285714 448.048276 
L 97.428571 447.347064 
L 100.571429 446.474661 
L 103.714286 446.993962 
L 106.857143 447.71859 
L 116.285714 451.982383 
L 122.571429 457.143523 
L 125.714286 459.201029 
L 132 460.992009 
L 135.142857 461.558115 
L 141.428571 462.976643 
L 144.571429 463.40319 
L 150.857143 463.692938 
L 160.285714 464.120655 
L 169.714286 464.964837 
L 172.857143 465.047419 
L 179.142857 464.842084 
L 188.571429 464.292249 
L 194.857143 463.971115 
L 207.428571 462.467447 
L 216.857143 462.067514 
L 229.428571 462.211039 
L 242 463.102014 
L 245.142857 463.290616 
L 248.285714 463.174727 
L 257.714286 460.30045 
L 260.857143 459.467176 
L 264 458.954135 
L 267.142857 457.963475 
L 270.285714 456.855373 
L 273.428571 456.862956 
L 276.571429 456.630992 
L 279.714286 456.568315 
L 282.857143 455.095165 
L 286 454.17629 
L 289.142857 452.825904 
L 292.285714 452.525293 
L 295.428571 453.79239 
L 298.571429 454.483464 
L 301.714286 454.493406 
L 304.857143 454.294299 
L 308 453.695317 
L 311.142857 452.17287 
L 314.285714 452.35404 
L 317.428571 453.472213 
L 320.571429 454.835701 
L 323.714286 455.3038 
L 326.857143 454.968422 
L 330 454.487365 
L 333.142857 453.319807 
L 336.285714 451.560337 
L 342.571429 448.531026 
L 345.714286 446.913687 
L 348.857143 445.134173 
L 352 443.010114 
L 355.142857 441.091334 
L 358.285714 439.897508 
L 361.428571 439.635985 
L 364.571429 439.907451 
L 367.714286 440.469249 
L 370.857143 440.807475 
L 374 440.730817 
L 377.142857 441.065368 
L 380.285714 441.561805 
L 383.428571 441.196856 
L 386.571429 441.084861 
L 389.714286 440.588701 
L 396 437.489011 
L 399.142857 436.302682 
L 408.571429 433.977923 
L 411.714286 434.310514 
L 414.857143 434.482389 
L 418 433.843405 
L 421.142857 433.360255 
L 424.285714 432.76432 
L 427.428571 432.74404 
L 430.571429 433.303789 
L 433.714286 433.271023 
L 436.857143 432.991441 
L 440 433.253708 
L 443.142857 435.595331 
L 446.285714 438.236175 
L 449.428571 441.251373 
L 452.571429 443.708797 
L 458.857143 448.004399 
L 462 449.651263 
L 465.142857 451.129306 
L 468.285714 452.027447 
L 474.571429 452.97454 
L 477.714286 453.267013 
L 480.857143 453.737995 
L 487.142857 454.06928 
L 490.285714 455.110017 
L 493.428571 455.470923 
L 496.571429 455.493678 
L 499.714286 455.089276 
L 502.857143 454.453585 
L 506 453.397904 
L 509.142857 452.074193 
L 512.285714 450.49243 
L 515.428571 449.239268 
L 518.571429 448.905491 
L 521.714286 448.833329 
L 524.857143 449.208757 
L 528 449.33819 
L 537.428571 452.810601 
L 540.571429 454.253417 
L 543.714286 455.225671 
L 546.857143 456.661424 
L 550 458.290132 
L 553.142857 459.165983 
L 559.428571 459.662065 
L 562.571429 459.702497 
L 575.142857 461.114898 
L 578.285714 461.317672 
L 584.571429 462.072933 
L 587.714286 462.431119 
L 597.142857 464.191929 
L 603.428571 465.127378 
L 606.571429 465.863176 
L 609.714286 466.276368 
L 616 466.236272 
L 619.142857 466.548653 
L 631.714286 469.021913 
L 634.857143 469.145044 
L 638 469.427778 
L 641.142857 469.543023 
L 647.428571 469.517702 
L 653.714286 468.302938 
L 666.285714 464.781575 
L 672.571429 462.603596 
L 675.714286 461.667272 
L 678.857143 460.941552 
L 682 460.50438 
L 688.285714 459.140544 
L 691.428571 456.937631 
L 694.571429 455.432146 
L 697.714286 452.937237 
L 707.142857 444.470803 
L 710.285714 441.938757 
L 713.428571 439.163863 
L 716.571429 436.170463 
L 719.714286 433.702106 
L 722.857143 430.738408 
L 726 428.122287 
L 729.142857 425.835744 
L 735.428571 422.935048 
L 741.714286 419.00558 
L 744.857143 417.389859 
L 751.142857 415.216343 
L 757.428571 413.348433 
L 760.571429 412.670552 
L 763.714286 411.429789 
L 766.857143 409.898109 
L 770 408.698832 
L 773.142857 409.750291 
L 776.285714 411.349209 
L 779.428571 413.188038 
L 782.571429 414.180256 
L 785.714286 414.841368 
L 788.857143 415.811047 
L 788.857143 415.811047 
" clip-path="url(#pe02f5c13ce)" style="fill: none; stroke: #000000; stroke-width: 1.5; stroke-linecap: square"/>
   </g>
   <g id="line2d_6">
    <path d="M 0 459 
L 3.142857 459 
L 6.285714 457.200776 
L 9.428571 455.727989 
L 12.571429 454.471962 
L 15.714286 453.909085 
L 18.857143 451.997393 
L 22 449.515915 
L 25.142857 447.558329 
L 28.285714 447.357713 
L 34.571429 447.378331 
L 37.714286 448.137657 
L 40.857143 448.530723 
L 44 448.486082 
L 47.142857 448.617643 
L 50.285714 449.107584 
L 56.571429 450.852254 
L 62.857143 453.287497 
L 66 452.584267 
L 69.142857 452.391772 
L 72.285714 452.624957 
L 75.428571 452.384442 
L 78.571429 452.372635 
L 81.714286 451.933103 
L 91.142857 449.708554 
L 100.571429 447.96781 
L 103.714286 448.213402 
L 106.857143 448.60139 
L 116.285714 451.186419 
L 125.714286 456.071037 
L 128.857143 457.920186 
L 132 459.22587 
L 138.285714 460.143649 
L 141.428571 460.677263 
L 144.571429 461.03773 
L 157.142857 461.831376 
L 163.428571 462.253939 
L 169.714286 462.774008 
L 176 462.987598 
L 188.571429 462.928716 
L 194.857143 462.872289 
L 210.571429 462.135721 
L 220 462.0123 
L 226.285714 462.019137 
L 232.571429 462.218983 
L 245.142857 462.723152 
L 248.285714 462.685814 
L 260.857143 460.701501 
L 267.142857 460.161482 
L 270.285714 459.902961 
L 279.714286 459.649516 
L 286 459.10025 
L 289.142857 458.376327 
L 292.285714 457.978757 
L 295.428571 458.397333 
L 298.571429 458.554072 
L 304.857143 458.110476 
L 308 457.637241 
L 311.142857 456.683962 
L 314.285714 456.585704 
L 317.428571 456.982838 
L 320.571429 457.539307 
L 323.714286 457.669267 
L 330 457.055026 
L 333.142857 456.351202 
L 339.428571 454.402477 
L 345.714286 452.400384 
L 348.857143 451.257709 
L 355.142857 448.637537 
L 358.285714 447.709105 
L 361.428571 447.247649 
L 364.571429 447.069288 
L 370.857143 446.958812 
L 374 446.663633 
L 380.285714 446.61141 
L 383.428571 446.213948 
L 386.571429 445.94783 
L 389.714286 445.491267 
L 399.142857 442.617098 
L 408.571429 440.612967 
L 414.857143 440.330897 
L 424.285714 438.71382 
L 427.428571 438.456651 
L 430.571429 438.504991 
L 433.714286 438.272499 
L 436.857143 437.922607 
L 440 437.851442 
L 443.142857 438.857647 
L 446.285714 440.073949 
L 449.428571 441.539485 
L 455.714286 443.923211 
L 458.857143 445.086465 
L 465.142857 446.948786 
L 468.285714 447.585213 
L 480.857143 449.219489 
L 487.142857 449.76737 
L 490.285714 450.481286 
L 493.428571 450.863385 
L 496.571429 451.075025 
L 499.714286 451.059438 
L 502.857143 450.908444 
L 506 450.519518 
L 509.142857 449.96411 
L 512.285714 449.240897 
L 515.428571 448.652116 
L 518.571429 448.506236 
L 521.714286 448.484268 
L 524.857143 448.686886 
L 528 448.7694 
L 537.428571 450.6587 
L 540.571429 451.477381 
L 543.714286 452.081163 
L 546.857143 452.938339 
L 550 453.919213 
L 553.142857 454.712012 
L 556.285714 455.358103 
L 559.428571 455.869725 
L 562.571429 456.141791 
L 572 458.540813 
L 575.142857 459.067495 
L 581.428571 459.50786 
L 590.857143 460.487641 
L 609.714286 462.885566 
L 616 463.143383 
L 619.142857 463.432044 
L 631.714286 465.260048 
L 647.428571 466.268418 
L 653.714286 465.908405 
L 663.142857 464.792243 
L 666.285714 464.391702 
L 675.714286 462.781902 
L 678.857143 462.364062 
L 685.142857 461.686905 
L 697.714286 459.83842 
L 700.857143 459.231249 
L 704 457.797825 
L 713.428571 452.238989 
L 716.571429 450.149173 
L 719.714286 448.288815 
L 722.857143 446.148048 
L 726 444.15202 
L 729.142857 442.298994 
L 735.428571 439.418151 
L 741.714286 436.000567 
L 744.857143 434.454435 
L 751.142857 431.910498 
L 763.714286 427.221947 
L 766.857143 425.768612 
L 770 424.481685 
L 773.142857 424.356864 
L 776.285714 424.562803 
L 779.428571 424.949639 
L 782.571429 424.963974 
L 785.714286 424.852387 
L 788.857143 424.931077 
L 788.857143 424.931077 
" clip-path="url(#pe02f5c13ce)" style="fill: none; stroke: #000000; stroke-width: 1.5; stroke-linecap: square"/>
   </g>
   <g id="line2d_7">
    <path d="M 0 459 
L 3.142857 459 
L 6.285714 457.219844 
L 9.428571 455.771444 
L 12.571429 454.54328 
L 15.714286 453.988619 
L 18.857143 452.159981 
L 22 449.803277 
L 25.142857 447.943148 
L 28.285714 447.711756 
L 34.571429 447.660542 
L 37.714286 448.313843 
L 40.857143 448.647033 
L 44 448.598282 
L 47.142857 448.704156 
L 50.285714 449.120549 
L 56.571429 450.611652 
L 62.857143 452.690025 
L 66 452.144124 
L 69.142857 452.011308 
L 72.285714 452.221548 
L 75.428571 452.049035 
L 78.571429 452.056783 
L 81.714286 451.723872 
L 91.142857 449.990551 
L 100.571429 448.608822 
L 106.857143 449.034043 
L 116.285714 450.915131 
L 125.714286 454.523409 
L 132 457.217125 
L 138.285714 459.111157 
L 141.428571 459.518137 
L 147.714286 460.001791 
L 163.428571 460.882711 
L 172.857143 461.457858 
L 182.285714 461.618708 
L 194.857143 461.707811 
L 213.714286 461.364549 
L 223.142857 461.371582 
L 232.571429 461.558895 
L 245.142857 461.937937 
L 248.285714 461.936192 
L 264 460.622396 
L 273.428571 460.269548 
L 282.857143 459.943477 
L 292.285714 459.505405 
L 298.571429 459.575265 
L 308 459.348154 
L 311.142857 459.149264 
L 317.428571 459.160885 
L 323.714286 459.251548 
L 330 459.103524 
L 333.142857 458.865291 
L 348.857143 455.663159 
L 355.142857 454.003919 
L 358.285714 453.369099 
L 361.428571 452.984177 
L 367.714286 452.615054 
L 380.285714 451.863936 
L 389.714286 450.892274 
L 399.142857 448.949261 
L 408.571429 447.431513 
L 414.857143 446.974709 
L 424.285714 445.654384 
L 427.428571 445.36029 
L 430.571429 445.230611 
L 440 444.433716 
L 443.142857 444.819056 
L 446.285714 445.328412 
L 452.571429 446.539491 
L 462 448.051395 
L 465.142857 448.482638 
L 471.428571 448.976868 
L 484 449.703888 
L 487.142857 449.8336 
L 490.285714 450.203161 
L 496.571429 450.526636 
L 502.857143 450.461805 
L 509.142857 449.987519 
L 515.428571 449.301095 
L 521.714286 449.188801 
L 528 449.313978 
L 537.428571 450.283946 
L 556.285714 452.888996 
L 559.428571 453.208237 
L 562.571429 453.408196 
L 584.571429 456.695427 
L 587.714286 457.22555 
L 594 458.69493 
L 597.142857 459.150705 
L 603.428571 459.61639 
L 609.714286 460.162497 
L 619.142857 460.618952 
L 634.857143 462.003268 
L 641.142857 462.414736 
L 647.428571 462.711882 
L 653.714286 462.677903 
L 666.285714 462.149988 
L 678.857143 461.270298 
L 685.142857 460.968883 
L 697.714286 460.060353 
L 707.142857 459.087228 
L 710.285714 458.284805 
L 719.714286 454.974427 
L 726 452.571008 
L 729.142857 451.450013 
L 735.428571 449.583159 
L 744.857143 446.365402 
L 757.428571 442.804558 
L 760.571429 441.99549 
L 770 439.048586 
L 773.142857 438.672715 
L 782.571429 438.087877 
L 788.857143 437.512583 
L 788.857143 437.512583 
" clip-path="url(#pe02f5c13ce)" style="fill: none; stroke: #000000; stroke-width: 1.5; stroke-linecap: square"/>
   </g>
   <g id="line2d_8">
    <path d="M 0 459 
L 3.142857 459 
L 6.285714 457.22938 
L 9.428571 455.793201 
L 12.571429 454.579033 
L 15.714286 454.028759 
L 18.857143 452.241177 
L 22 449.946211 
L 25.142857 448.13504 
L 28.285714 447.890937 
L 34.571429 447.808249 
L 37.714286 448.412014 
L 40.857143 448.71696 
L 44 448.66604 
L 47.142857 448.759639 
L 50.285714 449.141228 
L 56.571429 450.511621 
L 62.857143 452.418356 
L 66 451.939719 
L 69.142857 451.830726 
L 72.285714 452.027619 
L 75.428571 451.883151 
L 78.571429 451.897551 
L 81.714286 451.6109 
L 91.142857 450.100058 
L 100.571429 448.890309 
L 106.857143 449.233815 
L 116.285714 450.809356 
L 125.714286 453.839995 
L 132 456.105259 
L 135.142857 456.93967 
L 141.428571 458.93177 
L 144.571429 459.225523 
L 172.857143 460.684399 
L 182.285714 460.863248 
L 194.857143 460.997879 
L 216.857143 460.815077 
L 232.571429 461.024812 
L 245.142857 461.341444 
L 248.285714 461.35137 
L 264 460.455516 
L 276.571429 460.16423 
L 282.857143 459.990038 
L 292.285714 459.683482 
L 301.714286 459.688756 
L 308 459.563403 
L 314.285714 459.393753 
L 326.857143 459.428996 
L 333.142857 459.268621 
L 339.428571 458.975205 
L 348.857143 457.599279 
L 355.142857 456.45517 
L 358.285714 456.005917 
L 364.571429 455.526265 
L 370.857143 455.236193 
L 377.142857 454.860017 
L 380.285714 454.746205 
L 389.714286 453.9991 
L 402.285714 452.265269 
L 408.571429 451.513255 
L 414.857143 451.112111 
L 424.285714 450.113291 
L 430.571429 449.726295 
L 440 449.047555 
L 446.285714 449.470777 
L 452.571429 450.099719 
L 465.142857 451.104257 
L 471.428571 451.33367 
L 496.571429 452.048269 
L 502.857143 451.970322 
L 509.142857 451.650323 
L 515.428571 451.201544 
L 521.714286 451.086369 
L 531.142857 451.268197 
L 540.571429 451.848378 
L 546.857143 452.284512 
L 553.142857 452.839847 
L 559.428571 453.238063 
L 562.571429 453.352673 
L 584.571429 455.287275 
L 590.857143 456.033381 
L 609.714286 458.801176 
L 612.857143 459.02172 
L 619.142857 459.237182 
L 641.142857 460.387195 
L 650.571429 460.629355 
L 660 460.561729 
L 672.571429 460.212569 
L 704 459.089577 
L 707.142857 458.741945 
L 713.428571 457.629339 
L 732.285714 453.867589 
L 738.571429 452.683097 
L 744.857143 451.430251 
L 770 446.897195 
L 776.285714 446.402962 
L 782.571429 446.014772 
L 788.857143 445.522192 
L 788.857143 445.522192 
" clip-path="url(#pe02f5c13ce)" style="fill: none; stroke: #000000; stroke-width: 1.5; stroke-linecap: square"/>
   </g>
   <g id="line2d_9">
    <path d="M 0 459 
L 3.142857 459 
L 6.285714 457.234148 
L 9.428571 455.804085 
L 12.571429 454.596929 
L 15.714286 454.048916 
L 18.857143 452.281738 
L 22 450.017458 
L 25.142857 448.230792 
L 28.285714 447.980977 
L 34.571429 447.883647 
L 37.714286 448.463534 
L 40.857143 448.754821 
L 44 448.702826 
L 47.142857 448.790472 
L 50.285714 449.15521 
L 56.571429 450.467003 
L 62.857143 452.290084 
L 66 451.842393 
L 69.142857 451.743923 
L 72.285714 451.933791 
L 75.428571 451.801917 
L 78.571429 451.818907 
L 81.714286 451.55359 
L 91.142857 450.147436 
L 100.571429 449.020425 
L 106.857143 449.32817 
L 116.285714 450.7634 
L 125.714286 453.524369 
L 132 455.586897 
L 138.285714 457.226883 
L 141.428571 458.165518 
L 144.571429 458.848765 
L 147.714286 459.109766 
L 166.571429 460.010966 
L 172.857143 460.300606 
L 185.428571 460.531348 
L 201.142857 460.574615 
L 213.714286 460.510774 
L 226.285714 460.591662 
L 242 460.928403 
L 248.285714 461.011041 
L 267.142857 460.215916 
L 276.571429 460.063496 
L 282.857143 459.925168 
L 292.285714 459.679775 
L 301.714286 459.684476 
L 339.428571 459.128945 
L 342.571429 459.017405 
L 348.857143 458.298776 
L 355.142857 457.395229 
L 358.285714 457.037478 
L 364.571429 456.643669 
L 380.285714 455.980891 
L 389.714286 455.3713 
L 402.285714 453.99743 
L 408.571429 453.395413 
L 414.857143 453.055395 
L 427.428571 452.045922 
L 433.714286 451.724249 
L 440 451.348592 
L 446.285714 451.613651 
L 455.714286 452.208112 
L 465.142857 452.693097 
L 474.571429 452.882222 
L 490.285714 453.155199 
L 496.571429 453.238467 
L 502.857143 453.160762 
L 509.142857 452.911123 
L 515.428571 452.569532 
L 524.857143 452.47151 
L 528 452.456134 
L 543.714286 453.041825 
L 559.428571 453.847022 
L 565.714286 454.097181 
L 581.428571 454.999604 
L 590.857143 455.743419 
L 612.857143 457.842822 
L 619.142857 458.299382 
L 625.428571 459.023453 
L 641.142857 459.573503 
L 650.571429 459.755078 
L 663.142857 459.693902 
L 675.714286 459.461193 
L 697.714286 459.047745 
L 700.857143 458.831859 
L 713.428571 457.44577 
L 744.857143 453.394589 
L 773.142857 450.141838 
L 788.857143 449.326029 
L 788.857143 449.326029 
" clip-path="url(#pe02f5c13ce)" style="fill: none; stroke: #000000; stroke-width: 1.5; stroke-linecap: square"/>
   </g>
  </g>
 </g>
 <defs>
  <clipPath id="pe02f5c13ce">
   <rect x="0" y="0" width="792" height="612"/>
  </clipPath>
 </defs>
</svg>
