<?xml version="1.0" encoding="utf-8" standalone="no"?>
<!DOCTYPE svg PUBLIC "-//W3C//DTD SVG 1.1//EN"
  "http://www.w3.org/Graphics/SVG/1.1/DTD/svg11.dtd">
<svg xmlns:xlink="http://www.w3.org/1999/xlink" width="792pt" height="612pt" viewBox="0 0 792 612" xmlns="http://www.w3.org/2000/svg" version="1.1">
 <metadata>
  <rdf:RDF xmlns:dc="http://purl.org/dc/elements/1.1/" xmlns:cc="http://creativecommons.org/ns#" xmlns:rdf="http://www.w3.org/1999/02/22-rdf-syntax-ns#">
   <cc:Work>
    <dc:type rdf:resource="http://purl.org/dc/dcmitype/StillImage"/>
    <dc:date>2022-12-19T20:29:28.564927</dc:date>
    <dc:format>image/svg+xml</dc:format>
    <dc:creator>
     <cc:Agent>
      <dc:title>Matplotlib v3.6.2, https://matplotlib.org/</dc:title>
     </cc:Agent>
    </dc:creator>
   </cc:Work>
  </rdf:RDF>
 </metadata>
 <defs>
  <style type="text/css">*{stroke-linejoin: round; stroke-linecap: butt}</style>
 </defs>
 <g id="figure_1">
  <g id="patch_1">
   <path d="M 0 612 
L 792 612 
L 792 0 
L 0 0 
z
" style="fill: #ffffff"/>
  </g>
  <g id="axes_1">
   <g id="line2d_1">
    <path d="M 0 306 
L 3.155378 303.054423 
L 6.310757 307.622599 
L 9.466135 298.961594 
L 12.621514 302.330572 
L 15.776892 306.84875 
L 18.932271 301.232398 
L 22.087649 304.05289 
L 28.398406 303.528688 
L 31.553785 303.478765 
L 34.709163 304.202664 
L 37.864542 304.602066 
L 41.01992 306.624081 
L 44.175299 300.059484 
L 47.330677 301.057699 
L 50.486056 305.500735 
L 53.641434 313.188105 
L 56.796813 307.27312 
L 59.952191 305.500735 
L 63.10757 311.391512 
L 66.262948 304.202664 
L 69.418327 303.079384 
L 72.573705 307.372972 
L 75.729084 309.170224 
L 78.884462 309.394868 
L 82.039841 307.897186 
L 85.195219 309.669428 
L 88.350598 307.323046 
L 91.505976 287.848062 
L 94.661355 310.5929 
L 97.816733 310.343321 
L 100.972112 301.057699 
L 104.12749 308.321541 
L 107.282869 301.107612 
L 110.438247 301.706596 
L 116.749004 307.572673 
L 119.904382 305.77533 
L 123.059761 306.549192 
L 126.215139 304.077852 
L 129.370518 316.655015 
L 132.525896 308.071921 
L 135.681275 312.339768 
L 138.836653 306.524229 
L 141.992032 307.897186 
L 145.14741 316.505414 
L 148.302789 307.547711 
L 151.458167 307.073417 
L 154.613546 310.617858 
L 157.768924 306.249633 
L 160.924303 300.483711 
L 164.079681 310.168611 
L 167.23506 308.895655 
L 170.390438 299.73509 
L 173.545817 300.83309 
L 176.701195 304.277551 
L 179.856574 307.372972 
L 183.011952 306.973565 
L 186.167331 304.651991 
L 189.322709 310.667773 
L 192.478088 306.973565 
L 195.633466 306.049927 
L 198.788845 301.756513 
L 201.944223 302.505291 
L 205.099602 303.703421 
L 208.25498 304.002965 
L 211.410359 307.647561 
L 214.565737 303.603573 
L 217.721116 307.897186 
L 220.876494 303.628535 
L 224.031873 300.758222 
L 227.187251 305.700441 
L 230.342629 304.826731 
L 233.498008 305.525698 
L 236.653386 311.266734 
L 239.808765 305.675477 
L 242.964143 305.700441 
L 246.119522 309.444788 
L 249.2749 304.751842 
L 252.430279 308.096883 
L 255.585657 308.046959 
L 258.741036 309.394868 
L 261.896414 306.973565 
L 265.051793 305.600588 
L 268.207171 304.951546 
L 271.36255 306.973565 
L 274.517928 298.562405 
L 277.673307 283.15127 
L 280.828685 302.180815 
L 283.984064 309.993899 
L 287.139442 303.878154 
L 290.294821 313.262953 
L 296.605578 304.302514 
L 299.760956 314.809606 
L 302.916335 303.928079 
L 306.071713 307.298083 
L 309.227092 293.824347 
L 312.38247 309.694387 
L 315.537849 301.631721 
L 318.693227 314.061277 
L 321.848606 319.247221 
L 325.003984 301.956183 
L 328.159363 300.633443 
L 331.314741 304.252589 
L 334.47012 302.430412 
L 337.625498 297.664324 
L 340.780876 319.546207 
L 347.091633 308.945577 
L 350.247012 299.285953 
L 353.40239 299.435662 
L 356.557769 304.527177 
L 359.713147 299.760043 
L 362.868526 300.059484 
L 366.023904 307.073417 
L 369.179283 304.527177 
L 372.334661 304.202664 
L 375.49004 303.428842 
L 378.645418 301.756513 
L 384.956175 310.867431 
L 388.111554 313.163155 
L 391.266932 310.418195 
L 394.422311 308.695965 
L 397.577689 304.477252 
L 400.733068 302.655052 
L 403.888446 309.469748 
L 407.043825 307.622599 
L 410.199203 298.936644 
L 413.354582 307.922148 
L 416.50996 302.605132 
L 419.665339 296.965915 
L 422.820717 304.152739 
L 425.976096 308.346503 
L 429.131474 308.870694 
L 432.286853 304.801768 
L 435.442231 306.174743 
L 438.59761 314.734778 
L 441.752988 304.851694 
L 444.908367 299.136247 
L 448.063745 306.898676 
L 451.219124 304.676954 
L 454.374502 310.542985 
L 457.52988 310.992215 
L 460.685259 301.30727 
L 463.840637 303.853192 
L 466.996016 310.468111 
L 470.151394 324.077311 
L 473.306773 310.243487 
L 476.462151 311.067085 
L 479.61753 303.254112 
L 482.772908 305.276066 
L 485.928287 307.148306 
L 489.083665 303.40388 
L 492.239044 305.750367 
L 495.394422 302.080978 
L 498.549801 302.879697 
L 501.705179 306.574155 
L 504.860558 304.676954 
L 508.015936 307.747411 
L 511.171315 303.903117 
L 514.326693 305.675477 
L 517.482072 313.836759 
L 520.63745 300.932915 
L 523.792829 303.40388 
L 526.948207 302.330572 
L 530.103586 303.703421 
L 533.258964 301.931224 
L 536.414343 302.929618 
L 539.569721 302.804815 
L 542.7251 307.747411 
L 545.880478 313.038406 
L 549.035857 308.021997 
L 552.191235 309.769266 
L 555.346614 304.127777 
L 558.501992 314.984201 
L 561.657371 306.174743 
L 564.812749 307.822299 
L 567.968127 308.820772 
L 571.123506 302.97954 
L 574.278884 310.667773 
L 577.434263 308.671004 
L 580.589641 303.528688 
L 583.74502 304.102814 
L 586.900398 304.202664 
L 590.055777 302.330572 
L 593.211155 314.510286 
L 596.366534 304.90162 
L 599.521912 311.491334 
L 602.677291 301.556847 
L 605.832669 304.851694 
L 608.988048 309.569588 
L 612.143426 309.419828 
L 615.298805 305.051398 
L 618.454183 312.489482 
L 621.609562 307.747411 
L 624.76494 306.674008 
L 627.920319 303.453803 
L 631.075697 308.820772 
L 634.231076 313.038406 
L 637.386454 299.261002 
L 640.541833 296.043164 
L 646.85259 314.759721 
L 650.007968 314.510286 
L 653.163347 308.671004 
L 656.318725 305.875184 
L 659.474104 306.574155 
L 662.629482 295.469652 
L 665.784861 310.368279 
L 668.940239 302.305613 
L 672.095618 302.455371 
L 675.250996 307.073417 
L 678.406375 291.556995 
L 681.561753 302.006101 
L 684.717131 299.036445 
L 687.87251 305.400882 
L 691.027888 300.808134 
L 694.183267 306.599118 
L 697.338645 296.666626 
L 700.494024 306.549192 
L 703.649402 306.22467 
L 706.804781 309.419828 
L 709.960159 311.890608 
L 713.115538 299.784996 
L 716.270916 302.555212 
L 719.426295 301.756513 
L 722.581673 312.614241 
L 725.737052 296.417231 
L 728.89243 301.157526 
L 735.203187 305.650514 
L 738.358566 305.550661 
L 741.513944 302.080978 
L 744.669323 302.130896 
L 747.824701 308.396427 
L 750.98008 299.959669 
L 754.135458 306.873713 
L 757.290837 306.948602 
L 760.446215 311.466379 
L 763.601594 305.22614 
L 766.756972 299.984622 
L 769.912351 305.350955 
L 776.223108 309.145264 
L 779.378486 305.77533 
L 782.533865 306.574155 
L 785.689243 304.72688 
L 788.844622 307.822299 
L 788.844622 307.822299 
" clip-path="url(#pe6467c36dc)" style="fill: none; stroke: #000000; stroke-width: 1.5; stroke-linecap: square"/>
   </g>
   <g id="line2d_2">
    <path d="M 0 306 
L 3.155378 306 
L 6.310757 304.036248 
L 9.466135 306.085588 
L 12.621514 302.285645 
L 15.776892 302.308833 
L 18.932271 304.614745 
L 22.087649 302.910161 
L 25.243028 303.483757 
L 28.398406 303.639205 
L 34.709163 303.523696 
L 41.01992 304.242212 
L 44.175299 305.432698 
L 47.330677 302.743539 
L 50.486056 301.894715 
L 53.641434 303.700973 
L 56.796813 308.464068 
L 59.952191 307.876041 
L 63.10757 306.690944 
L 66.262948 309.05472 
L 69.418327 306.623983 
L 72.573705 304.857568 
L 75.729084 306.127655 
L 78.884462 307.656176 
L 82.039841 308.518103 
L 85.195219 308.20887 
L 88.350598 308.947339 
L 91.505976 308.12723 
L 94.661355 297.946745 
L 97.816733 304.283816 
L 100.972112 307.319522 
L 104.12749 304.172513 
L 107.282869 306.244934 
L 110.438247 303.662796 
L 113.593625 302.66905 
L 116.749004 303.667789 
L 119.904382 305.658933 
L 123.059761 305.707685 
L 126.215139 306.120999 
L 129.370518 305.105338 
L 132.525896 310.89826 
L 135.681275 309.49882 
L 138.836653 310.940246 
L 141.992032 308.736001 
L 145.14741 308.317234 
L 148.302789 312.433511 
L 151.458167 309.992823 
L 154.613546 308.539051 
L 157.768924 309.566652 
L 160.924303 307.904625 
L 164.079681 304.170653 
L 167.23506 307.176891 
L 170.390438 308.038247 
L 173.545817 303.853388 
L 176.701195 302.329985 
L 179.856574 303.298259 
L 183.011952 305.329223 
L 186.167331 306.152814 
L 189.322709 305.410573 
L 192.478088 308.040303 
L 195.633466 307.50317 
L 198.788845 306.788936 
L 201.944223 304.274419 
L 205.099602 303.386358 
L 211.410359 303.764504 
L 214.565737 305.711894 
L 217.721116 304.643866 
L 220.876494 306.272345 
L 224.031873 304.945672 
L 227.187251 302.849842 
L 230.342629 304.281369 
L 233.498008 304.556252 
L 236.653386 305.043958 
L 239.808765 308.162666 
L 242.964143 306.923149 
L 246.119522 306.307489 
L 249.2749 307.887592 
L 252.430279 306.327557 
L 255.585657 307.216929 
L 258.741036 307.638261 
L 261.896414 308.524172 
L 265.051793 307.740461 
L 268.207171 306.670386 
L 271.36255 305.809496 
L 274.517928 306.386686 
L 277.673307 302.461832 
L 280.828685 292.744473 
L 283.984064 297.449119 
L 287.139442 303.721726 
L 290.294821 303.793871 
L 293.450199 308.544043 
L 296.605578 308.689994 
L 299.760956 306.491042 
L 302.916335 310.683041 
L 306.071713 307.346541 
L 309.227092 307.332346 
L 312.38247 300.543995 
L 315.537849 305.130399 
L 318.693227 303.358166 
L 325.003984 314.015689 
L 328.159363 307.9615 
L 331.314741 304.290767 
L 334.47012 304.265706 
L 337.625498 303.364921 
L 340.780876 300.490561 
L 343.936255 310.057422 
L 347.091633 312.122237 
L 350.247012 310.513818 
L 353.40239 304.894278 
L 356.557769 302.162316 
L 359.713147 303.345245 
L 362.868526 301.547255 
L 366.023904 300.808036 
L 369.179283 303.916038 
L 372.334661 304.202664 
L 375.49004 304.193364 
L 378.645418 303.819224 
L 381.800797 302.792384 
L 384.956175 304.524338 
L 388.111554 307.717848 
L 391.266932 310.466545 
L 394.422311 310.448928 
L 397.577689 309.580649 
L 400.733068 307.02956 
L 403.888446 304.84073 
L 407.043825 307.17043 
L 410.199203 307.399207 
L 413.354582 303.143989 
L 416.50996 305.522761 
L 419.665339 304.048582 
L 422.820717 300.483515 
L 425.976096 302.317358 
L 429.131474 305.343026 
L 432.286853 307.105722 
L 435.442231 305.948213 
L 438.59761 306.075673 
L 441.752988 310.419468 
L 444.908367 307.640121 
L 448.063745 303.391938 
L 451.219124 305.150663 
L 454.374502 304.906613 
L 457.52988 307.728224 
L 460.685259 309.372453 
L 463.840637 305.330202 
L 466.996016 304.570348 
L 470.151394 307.530384 
L 473.306773 315.859924 
L 476.462151 313.058855 
L 479.61753 312.07556 
L 482.772908 307.65089 
L 485.928287 306.452276 
L 489.083665 306.811746 
L 492.239044 305.106904 
L 495.394422 305.419384 
L 498.549801 303.706945 
L 501.705179 303.278877 
L 504.860558 304.917675 
L 508.015936 304.800104 
L 511.171315 306.27861 
L 514.326693 305.084486 
L 517.482072 305.384435 
L 520.63745 309.627143 
L 523.792829 305.277632 
L 530.103586 303.327821 
L 533.258964 303.513711 
L 536.414343 302.711042 
L 539.569721 302.818421 
L 542.7251 302.80599 
L 545.880478 305.26471 
L 549.035857 309.175804 
L 552.191235 308.607964 
L 555.346614 309.203211 
L 558.501992 306.666372 
L 561.657371 310.851772 
L 564.812749 308.519767 
L 567.968127 308.180873 
L 571.123506 308.50293 
L 574.278884 305.721488 
L 577.434263 308.199962 
L 580.589641 308.433331 
L 583.74502 305.979834 
L 586.900398 305.019974 
L 590.055777 304.60745 
L 593.211155 303.458208 
L 596.366534 308.99638 
L 599.521912 306.952811 
L 602.677291 309.223865 
L 605.832669 305.37631 
L 608.988048 305.116596 
L 612.143426 307.353883 
L 615.298805 308.397112 
L 618.454183 306.729612 
L 621.609562 309.605903 
L 627.920319 307.668706 
L 631.075697 305.564954 
L 634.231076 307.200679 
L 637.386454 310.12672 
L 640.541833 304.673528 
L 643.697211 300.339559 
L 646.85259 302.856107 
L 650.007968 308.82273 
L 653.163347 311.682362 
L 656.318725 310.187012 
L 659.474104 308.025423 
L 662.629482 307.287119 
L 665.784861 301.369223 
L 668.940239 305.896818 
L 672.095618 304.095081 
L 675.250996 303.251077 
L 678.406375 305.147628 
L 681.561753 298.314979 
L 684.717131 300.152743 
L 687.87251 299.579797 
L 691.027888 302.5095 
L 694.183267 301.640041 
L 697.338645 304.127875 
L 700.494024 300.385065 
L 703.649402 303.465844 
L 706.804781 304.874014 
L 713.115538 309.55148 
L 716.270916 304.656886 
L 722.581673 302.673455 
L 725.737052 307.675558 
L 728.89243 302.025187 
L 732.047809 301.581413 
L 735.203187 302.49335 
L 738.358566 304.059644 
L 741.513944 304.816452 
L 744.669323 303.447734 
L 747.824701 302.790035 
L 750.98008 305.584924 
L 754.135458 302.778974 
L 757.290837 304.837499 
L 760.446215 305.899951 
L 763.601594 308.694791 
L 766.756972 306.95986 
L 769.912351 303.467801 
L 773.067729 304.415677 
L 776.223108 305.817132 
L 779.378486 307.499254 
L 782.533865 306.635143 
L 785.689243 306.603915 
L 788.844622 305.652178 
L 788.844622 305.652178 
" clip-path="url(#pe6467c36dc)" style="fill: none; stroke: #000000; stroke-width: 1.5; stroke-linecap: square"/>
   </g>
   <g id="line2d_3">
    <path d="M 0 306 
L 3.155378 306 
L 6.310757 304.274486 
L 9.466135 305.791452 
L 12.621514 303.123826 
L 15.776892 302.841591 
L 18.932271 304.182875 
L 22.087649 303.234848 
L 25.243028 303.490416 
L 28.398406 303.586285 
L 34.709163 303.541883 
L 41.01992 303.994249 
L 44.175299 304.770561 
L 47.330677 303.382892 
L 50.486056 302.699145 
L 53.641434 303.519102 
L 56.796813 306.363077 
L 59.952191 306.629223 
L 63.10757 306.306209 
L 66.262948 307.806211 
L 72.573705 305.675389 
L 75.729084 306.176416 
L 78.884462 307.059476 
L 82.039841 307.750259 
L 85.195219 307.798368 
L 88.350598 308.352688 
L 91.505976 308.054242 
L 94.661355 302.108381 
L 97.816733 304.605501 
L 100.972112 306.296814 
L 104.12749 304.75709 
L 107.282869 305.795511 
L 110.438247 304.415267 
L 113.593625 303.617513 
L 116.749004 303.920099 
L 119.904382 304.993769 
L 123.059761 305.225779 
L 126.215139 305.61245 
L 129.370518 305.157122 
L 132.525896 308.534324 
L 135.681275 308.399091 
L 138.836653 309.556497 
L 141.992032 308.667494 
L 145.14741 308.464931 
L 148.302789 310.827576 
L 151.458167 309.863796 
L 154.613546 309.053468 
L 157.768924 309.514325 
L 160.924303 308.564075 
L 164.079681 306.195853 
L 167.23506 307.365822 
L 170.390438 307.81543 
L 173.545817 305.441573 
L 176.701195 304.085095 
L 179.856574 304.141693 
L 183.011952 305.077436 
L 186.167331 305.631537 
L 189.322709 305.335802 
L 192.478088 306.902362 
L 195.633466 306.922156 
L 198.788845 306.654673 
L 201.944223 305.213306 
L 205.099602 304.414868 
L 208.25498 304.198546 
L 211.410359 304.138681 
L 214.565737 305.174628 
L 217.721116 304.706927 
L 220.876494 305.640187 
L 224.031873 305.05545 
L 227.187251 303.796621 
L 230.342629 304.35586 
L 233.498008 304.49085 
L 236.653386 304.792284 
L 239.808765 306.696352 
L 246.119522 306.187709 
L 249.2749 307.145622 
L 252.430279 306.447943 
L 255.585657 306.937336 
L 258.741036 307.26733 
L 261.896414 307.896686 
L 265.051793 307.625539 
L 271.36255 306.421208 
L 274.517928 306.586832 
L 277.673307 304.2336 
L 280.828685 298.022095 
L 283.984064 299.236881 
L 287.139442 302.392126 
L 290.294821 302.818873 
L 293.450199 305.886908 
L 296.605578 306.749823 
L 299.760956 306.027112 
L 302.916335 308.61165 
L 306.071713 307.235104 
L 309.227092 307.25269 
L 312.38247 303.299919 
L 315.537849 305.175946 
L 318.693227 304.133242 
L 321.848606 307.052088 
L 325.003984 310.640141 
L 328.159363 308.100717 
L 331.314741 305.933594 
L 334.47012 305.443614 
L 337.625498 304.552342 
L 340.780876 302.527286 
L 343.936255 307.521715 
L 347.091633 309.480236 
L 350.247012 309.328973 
L 353.40239 306.369383 
L 356.557769 304.333104 
L 359.713147 304.386764 
L 362.868526 303.038281 
L 366.023904 302.154662 
L 369.179283 303.60149 
L 372.334661 303.861661 
L 375.49004 303.944249 
L 378.645418 303.79498 
L 381.800797 303.199189 
L 384.956175 304.094906 
L 391.266932 308.178649 
L 394.422311 308.824138 
L 397.577689 308.78029 
L 400.733068 307.514865 
L 403.888446 306.095299 
L 407.043825 307.095218 
L 410.199203 307.25324 
L 413.354582 304.816063 
L 416.50996 305.734849 
L 419.665339 304.813009 
L 422.820717 302.505339 
L 425.976096 302.987777 
L 429.131474 304.562916 
L 432.286853 305.832824 
L 435.442231 305.52917 
L 438.59761 305.712863 
L 441.752988 308.357776 
L 444.908367 307.324497 
L 448.063745 304.914906 
L 451.219124 305.498718 
L 454.374502 305.26035 
L 457.52988 306.808926 
L 460.685259 308.038154 
L 463.840637 306.069361 
L 466.996016 305.415577 
L 470.151394 306.904552 
L 473.306773 311.97092 
L 476.462151 311.471995 
L 479.61753 311.356526 
L 482.772908 308.977204 
L 485.928287 307.893752 
L 489.083665 307.676536 
L 492.239044 306.41208 
L 495.394422 306.219301 
L 498.549801 305.010539 
L 501.705179 304.381794 
L 504.860558 305.026094 
L 508.015936 304.917095 
L 511.171315 305.74235 
L 514.326693 305.206625 
L 517.482072 305.346042 
L 520.63745 307.837265 
L 523.792829 305.7883 
L 530.103586 304.266089 
L 533.258964 304.101802 
L 536.414343 303.462183 
L 542.7251 303.155229 
L 545.880478 304.502502 
L 549.035857 307.015549 
L 552.191235 307.316241 
L 555.346614 308.038417 
L 558.501992 306.892398 
L 561.657371 309.271381 
L 564.812749 308.367047 
L 567.968127 308.209961 
L 571.123506 308.383102 
L 574.278884 306.80279 
L 577.434263 307.943243 
L 580.589641 308.163684 
L 583.74502 306.805932 
L 586.900398 306.016696 
L 590.055777 305.486835 
L 593.211155 304.561801 
L 596.366534 307.484039 
L 599.521912 306.718324 
L 602.677291 308.120432 
L 605.832669 306.188501 
L 608.988048 305.79779 
L 612.143426 306.896347 
L 615.298805 307.639213 
L 618.454183 306.878084 
L 621.609562 308.526069 
L 624.76494 308.303485 
L 627.920319 307.821644 
L 631.075697 306.536338 
L 634.231076 307.211529 
L 637.386454 308.928725 
L 643.697211 303.140013 
L 646.85259 303.79172 
L 650.007968 307.016169 
L 653.163347 309.215142 
L 656.318725 309.063941 
L 659.474104 308.131189 
L 662.629482 307.671711 
L 665.784861 304.080601 
L 668.940239 305.928396 
L 672.095618 304.855561 
L 675.250996 304.146456 
L 678.406375 305.00419 
L 681.561753 301.049205 
L 684.717131 301.321638 
L 687.87251 300.636175 
L 691.027888 302.038611 
L 694.183267 301.683673 
L 697.338645 303.124632 
L 700.494024 301.211821 
L 703.649402 302.765798 
L 706.804781 303.776022 
L 709.960159 305.433141 
L 713.115538 307.330801 
L 716.270916 305.125404 
L 722.581673 303.599336 
L 725.737052 306.251677 
L 728.89243 303.358139 
L 732.047809 302.724594 
L 735.203187 302.932494 
L 738.358566 303.736151 
L 741.513944 304.26777 
L 744.669323 303.628707 
L 747.824701 303.184862 
L 750.98008 304.724735 
L 754.135458 303.321343 
L 757.290837 304.362522 
L 760.446215 305.117121 
L 763.601594 306.976453 
L 766.756972 306.47005 
L 769.912351 304.567343 
L 773.067729 304.800985 
L 776.223108 305.504239 
L 779.378486 306.585325 
L 782.533865 306.353388 
L 785.689243 306.421662 
L 788.844622 305.924209 
L 788.844622 305.924209 
" clip-path="url(#pe6467c36dc)" style="fill: none; stroke: #000000; stroke-width: 1.5; stroke-linecap: square"/>
   </g>
   <g id="line2d_4">
    <path d="M 0 306 
L 3.155378 306 
L 6.310757 304.399888 
L 9.466135 305.664683 
L 12.621514 303.531371 
L 15.776892 303.201708 
L 18.932271 304.099285 
L 22.087649 303.450123 
L 28.398406 303.623374 
L 34.709163 303.581469 
L 41.01992 303.85579 
L 44.175299 304.338927 
L 47.330677 303.60329 
L 50.486056 303.171243 
L 53.641434 303.562418 
L 56.796813 305.16489 
L 59.952191 305.513264 
L 63.10757 305.511206 
L 66.262948 306.472123 
L 69.418327 306.102882 
L 72.573705 305.61271 
L 75.729084 305.897221 
L 82.039841 306.902747 
L 85.195219 307.062452 
L 88.350598 307.480517 
L 91.505976 307.455297 
L 94.661355 304.314999 
L 97.816733 305.318539 
L 100.972112 306.121181 
L 104.12749 305.312412 
L 107.282869 305.794467 
L 110.438247 305.044644 
L 113.593625 304.515226 
L 116.749004 304.542421 
L 119.904382 305.024993 
L 126.215139 305.371826 
L 129.370518 305.166119 
L 132.525896 307.002916 
L 135.681275 307.175867 
L 138.836653 308.00266 
L 141.992032 307.76864 
L 145.14741 307.789887 
L 148.302789 309.187382 
L 154.613546 308.636077 
L 157.768924 308.9498 
L 160.924303 308.519575 
L 164.079681 307.237856 
L 167.23506 307.703415 
L 170.390438 307.896037 
L 173.545817 306.595395 
L 176.701195 305.674433 
L 179.856574 305.449129 
L 186.167331 305.947427 
L 189.322709 305.738186 
L 192.478088 306.524645 
L 195.633466 306.608017 
L 198.788845 306.516388 
L 201.944223 305.753674 
L 205.099602 305.237725 
L 211.410359 304.835374 
L 214.565737 305.28651 
L 217.721116 305.018073 
L 220.876494 305.476354 
L 224.031873 305.181014 
L 227.187251 304.473648 
L 230.342629 304.669845 
L 233.498008 304.687424 
L 236.653386 304.819206 
L 239.808765 305.844439 
L 246.119522 305.797107 
L 249.2749 306.373081 
L 252.430279 306.113391 
L 261.896414 307.118416 
L 265.051793 307.09942 
L 271.36255 306.552301 
L 274.517928 306.623843 
L 277.673307 305.339591 
L 280.828685 301.789627 
L 283.984064 301.848627 
L 287.139442 303.146358 
L 290.294821 303.262305 
L 293.450199 304.855225 
L 296.605578 305.487319 
L 299.760956 305.29772 
L 302.916335 306.819625 
L 306.071713 306.360454 
L 309.227092 306.511878 
L 312.38247 304.485881 
L 315.537849 305.315869 
L 318.693227 304.728437 
L 321.848606 306.217463 
L 325.003984 308.301569 
L 331.314741 306.229974 
L 334.47012 305.915004 
L 337.625498 305.358637 
L 340.780876 304.12565 
L 343.936255 306.589165 
L 347.091633 307.803436 
L 350.247012 307.984847 
L 353.40239 306.597262 
L 356.557769 305.452262 
L 359.713147 305.302881 
L 362.868526 304.414859 
L 366.023904 303.7175 
L 369.179283 304.252342 
L 375.49004 304.279256 
L 378.645418 304.146987 
L 381.800797 303.778266 
L 384.956175 304.173997 
L 388.111554 305.23954 
L 391.266932 306.506216 
L 394.422311 307.126894 
L 397.577689 307.376468 
L 400.733068 306.915304 
L 403.888446 306.229879 
L 407.043825 306.748833 
L 410.199203 306.888056 
L 413.354582 305.625954 
L 416.50996 305.990184 
L 419.665339 305.452196 
L 422.820717 304.090936 
L 425.976096 304.091346 
L 432.286853 305.429549 
L 435.442231 305.330009 
L 438.59761 305.466745 
L 441.752988 306.95235 
L 444.908367 306.608955 
L 448.063745 305.410447 
L 451.219124 305.645952 
L 454.374502 305.495144 
L 460.685259 307.05507 
L 463.840637 306.141485 
L 466.996016 305.779771 
L 470.151394 306.527871 
L 473.306773 309.335482 
L 479.61753 309.740421 
L 482.772908 308.709435 
L 485.928287 308.162589 
L 489.083665 307.998895 
L 492.239044 307.261729 
L 495.394422 307.018355 
L 498.549801 306.228642 
L 501.705179 305.694799 
L 504.860558 305.837153 
L 508.015936 305.64957 
L 511.171315 305.983425 
L 514.326693 305.655535 
L 517.482072 305.657306 
L 520.63745 306.965964 
L 523.792829 306.00849 
L 536.414343 304.383716 
L 542.7251 303.928805 
L 545.880478 304.538153 
L 549.035857 305.899438 
L 552.191235 306.23785 
L 555.346614 306.802917 
L 558.501992 306.373287 
L 561.657371 307.746199 
L 564.812749 307.499216 
L 567.968127 307.553096 
L 571.123506 307.753765 
L 574.278884 306.980989 
L 577.434263 307.567881 
L 580.589641 307.7419 
L 583.74502 307.071737 
L 593.211155 305.596772 
L 596.366534 307.020756 
L 599.521912 306.685355 
L 602.677291 307.455461 
L 605.832669 306.513799 
L 608.988048 306.24946 
L 615.298805 307.202512 
L 618.454183 306.859876 
L 621.609562 307.754863 
L 624.76494 307.757929 
L 627.920319 307.587516 
L 631.075697 306.930528 
L 634.231076 307.234474 
L 637.386454 308.164998 
L 640.541833 306.745907 
L 643.697211 305.038286 
L 646.85259 305.094512 
L 650.007968 306.633734 
L 653.163347 307.891297 
L 656.318725 308.014668 
L 659.474104 307.675366 
L 662.629482 307.494913 
L 665.784861 305.574317 
L 668.940239 306.338689 
L 672.095618 305.692919 
L 675.250996 305.177463 
L 678.406375 305.476873 
L 681.561753 303.24985 
L 684.717131 303.051008 
L 687.87251 302.409012 
L 691.027888 302.885745 
L 694.183267 302.554216 
L 697.338645 303.192793 
L 700.494024 302.148993 
L 703.649402 302.845937 
L 706.804781 303.386388 
L 709.960159 304.349166 
L 713.115538 305.550587 
L 716.270916 304.627122 
L 722.581673 303.885155 
L 725.737052 305.277158 
L 728.89243 303.860645 
L 732.047809 303.429103 
L 735.203187 303.425698 
L 741.513944 304.061475 
L 747.824701 303.490449 
L 750.98008 304.267015 
L 754.135458 303.572531 
L 760.446215 304.551042 
L 763.601594 305.654433 
L 766.756972 305.59238 
L 769.912351 304.693571 
L 773.067729 304.800063 
L 776.223108 305.188564 
L 779.378486 305.819398 
L 782.533865 305.821265 
L 785.689243 305.943903 
L 788.844622 305.75382 
L 788.844622 305.75382 
" clip-path="url(#pe6467c36dc)" style="fill: none; stroke: #000000; stroke-width: 1.5; stroke-linecap: square"/>
   </g>
   <g id="line2d_5">
    <path d="M 0 306 
L 3.155378 306 
L 6.310757 304.463413 
L 9.466135 305.608914 
L 12.621514 303.72498 
L 15.776892 303.395798 
L 18.932271 304.102688 
L 22.087649 303.57879 
L 28.398406 303.67983 
L 37.864542 303.706965 
L 41.01992 303.816894 
L 44.175299 304.148442 
L 47.330677 303.681816 
L 50.486056 303.391404 
L 53.641434 303.618533 
L 56.796813 304.624285 
L 59.952191 304.896626 
L 63.10757 304.957531 
L 66.262948 305.594888 
L 72.573705 305.230469 
L 75.729084 305.433691 
L 82.039841 306.118872 
L 85.195219 306.282211 
L 88.350598 306.590609 
L 91.505976 306.65676 
L 94.661355 304.968465 
L 100.972112 305.900946 
L 104.12749 305.4745 
L 107.282869 305.723904 
L 113.593625 305.007433 
L 116.749004 304.978846 
L 119.904382 305.202432 
L 129.370518 305.253026 
L 132.525896 306.225249 
L 135.681275 306.382303 
L 138.836653 306.887996 
L 141.992032 306.85718 
L 145.14741 306.945132 
L 148.302789 307.752683 
L 154.613546 307.679661 
L 157.768924 307.926786 
L 160.924303 307.785894 
L 164.079681 307.173035 
L 167.23506 307.424217 
L 170.390438 307.547489 
L 173.545817 306.893456 
L 176.701195 306.386471 
L 179.856574 306.210174 
L 186.167331 306.362952 
L 189.322709 306.220159 
L 192.478088 306.591202 
L 198.788845 306.575312 
L 205.099602 305.868161 
L 211.410359 305.547614 
L 214.565737 305.72473 
L 217.721116 305.549093 
L 220.876494 305.744318 
L 224.031873 305.569493 
L 227.187251 305.169064 
L 236.653386 305.211267 
L 239.808765 305.716187 
L 246.119522 305.711802 
L 249.2749 306.024691 
L 252.430279 305.920252 
L 265.051793 306.560215 
L 274.517928 306.405022 
L 277.673307 305.751127 
L 280.828685 303.863447 
L 283.984064 303.721441 
L 287.139442 304.242712 
L 290.294821 304.21057 
L 293.450199 304.963913 
L 296.605578 305.290854 
L 299.760956 305.206777 
L 302.916335 306.005428 
L 306.071713 305.833948 
L 309.227092 305.955133 
L 312.38247 304.945425 
L 315.537849 305.342182 
L 318.693227 305.033215 
L 321.848606 305.784772 
L 325.003984 306.907173 
L 331.314741 306.007117 
L 334.47012 305.857459 
L 337.625498 305.571178 
L 340.780876 304.909997 
L 343.936255 306.129716 
L 347.091633 306.800563 
L 350.247012 306.976134 
L 356.557769 305.759909 
L 359.713147 305.655614 
L 366.023904 304.740264 
L 369.179283 304.932897 
L 378.645418 304.725154 
L 381.800797 304.477931 
L 384.956175 304.624608 
L 388.111554 305.144032 
L 391.266932 305.812464 
L 394.422311 306.194665 
L 397.577689 306.402829 
L 400.733068 306.242501 
L 403.888446 305.945039 
L 407.043825 306.239855 
L 410.199203 306.355894 
L 413.354582 305.738373 
L 416.50996 305.919709 
L 419.665339 305.644276 
L 422.820717 304.920235 
L 425.976096 304.856706 
L 432.286853 305.458754 
L 435.442231 305.404218 
L 438.59761 305.46838 
L 441.752988 306.238779 
L 444.908367 306.123388 
L 448.063745 305.541252 
L 451.219124 305.653084 
L 454.374502 305.572044 
L 460.685259 306.401973 
L 463.840637 305.976471 
L 466.996016 305.799229 
L 470.151394 306.188338 
L 473.306773 307.681014 
L 479.61753 308.162152 
L 482.772908 307.761369 
L 485.928287 307.556111 
L 489.083665 307.521338 
L 492.239044 307.179452 
L 495.394422 307.058399 
L 501.705179 306.330268 
L 504.860558 306.347828 
L 508.015936 306.209395 
L 511.171315 306.337192 
L 514.326693 306.138454 
L 517.482072 306.09872 
L 520.63745 306.74506 
L 523.792829 306.258365 
L 542.7251 304.867408 
L 545.880478 305.102593 
L 549.035857 305.76096 
L 552.191235 305.948319 
L 555.346614 306.26887 
L 558.501992 306.092694 
L 561.657371 306.83427 
L 564.812749 306.78162 
L 571.123506 307.032957 
L 574.278884 306.69603 
L 577.434263 307.0278 
L 580.589641 307.165889 
L 586.900398 306.634676 
L 590.055777 306.430658 
L 593.211155 306.086827 
L 596.366534 306.787453 
L 599.521912 306.629702 
L 602.677291 307.035526 
L 605.832669 306.580438 
L 608.988048 306.435456 
L 615.298805 306.925693 
L 618.454183 306.769201 
L 621.609562 307.247254 
L 627.920319 307.241782 
L 631.075697 306.925801 
L 634.231076 307.083065 
L 637.386454 307.580108 
L 640.541833 306.887325 
L 643.697211 305.980929 
L 646.85259 305.932966 
L 653.163347 307.32413 
L 656.318725 307.437218 
L 662.629482 307.243875 
L 665.784861 306.264422 
L 668.940239 306.60717 
L 675.250996 305.9257 
L 678.406375 306.019924 
L 681.561753 304.81232 
L 684.717131 304.578995 
L 687.87251 304.116869 
L 691.027888 304.222866 
L 694.183267 303.938584 
L 697.338645 304.159667 
L 700.494024 303.535805 
L 706.804781 303.989277 
L 709.960159 304.441533 
L 713.115538 305.061176 
L 716.270916 304.62187 
L 722.581673 304.221883 
L 725.737052 304.922289 
L 728.89243 304.213884 
L 732.047809 303.959815 
L 735.203187 303.915657 
L 741.513944 304.185349 
L 747.824701 303.852619 
L 750.98008 304.228217 
L 754.135458 303.871271 
L 760.446215 304.355227 
L 763.601594 304.944316 
L 766.756972 304.967398 
L 769.912351 304.551239 
L 773.067729 304.616482 
L 776.223108 304.834208 
L 779.378486 305.191518 
L 788.844622 305.299248 
L 788.844622 305.299248 
" clip-path="url(#pe6467c36dc)" style="fill: none; stroke: #000000; stroke-width: 1.5; stroke-linecap: square"/>
   </g>
   <g id="line2d_6">
    <path d="M 0 306 
L 3.155378 306 
L 6.310757 304.49528 
L 9.466135 305.583189 
L 12.621514 303.818423 
L 15.776892 303.494517 
L 18.932271 304.115779 
L 22.087649 303.648419 
L 28.398406 303.719612 
L 37.864542 303.727699 
L 41.01992 303.813786 
L 44.175299 304.075786 
L 47.330677 303.719407 
L 50.486056 303.493693 
L 53.641434 303.656949 
L 56.796813 304.403269 
L 59.952191 304.620175 
L 63.10757 304.684591 
L 66.262948 305.160625 
L 72.573705 304.959079 
L 78.884462 305.377176 
L 82.039841 305.62924 
L 91.505976 306.082226 
L 94.661355 305.018163 
L 100.972112 305.620994 
L 104.12749 305.366607 
L 107.282869 305.529152 
L 113.593625 305.096621 
L 116.749004 305.074344 
L 123.059761 305.235186 
L 126.215139 305.302858 
L 129.370518 305.240337 
L 132.525896 305.818126 
L 135.681275 305.93124 
L 138.836653 306.250426 
L 145.14741 306.344134 
L 148.302789 306.839816 
L 154.613546 306.883715 
L 157.768924 307.062541 
L 160.924303 307.023828 
L 164.079681 306.713953 
L 170.390438 306.971548 
L 176.701195 306.363725 
L 179.856574 306.267098 
L 186.167331 306.348247 
L 189.322709 306.270556 
L 192.478088 306.471286 
L 198.788845 306.47399 
L 205.099602 306.091282 
L 211.410359 305.895025 
L 214.565737 305.973449 
L 217.721116 305.867647 
L 220.876494 305.958051 
L 224.031873 305.854506 
L 227.187251 305.628428 
L 236.653386 305.592947 
L 239.808765 305.842804 
L 246.119522 305.829522 
L 249.2749 305.987975 
L 252.430279 305.933876 
L 265.051793 306.29053 
L 274.517928 306.237069 
L 277.673307 305.904273 
L 280.828685 304.916926 
L 283.984064 304.798518 
L 287.139442 305.023151 
L 290.294821 304.973687 
L 293.450199 305.331547 
L 296.605578 305.482046 
L 299.760956 305.431208 
L 302.916335 305.835237 
L 306.071713 305.75315 
L 309.227092 305.819602 
L 312.38247 305.303693 
L 315.537849 305.492329 
L 318.693227 305.326554 
L 321.848606 305.701473 
L 325.003984 306.282827 
L 340.780876 305.308343 
L 343.936255 305.917778 
L 347.091633 306.27142 
L 350.247012 306.385732 
L 356.557769 305.798345 
L 359.713147 305.744063 
L 366.023904 305.256842 
L 369.179283 305.334346 
L 378.645418 305.175352 
L 381.800797 305.029623 
L 384.956175 305.08161 
L 397.577689 305.985034 
L 403.888446 305.781839 
L 410.199203 306.010926 
L 413.354582 305.709503 
L 416.50996 305.804803 
L 419.665339 305.669187 
L 422.820717 305.298443 
L 425.976096 305.250354 
L 432.286853 305.531076 
L 438.59761 305.529407 
L 441.752988 305.921536 
L 444.908367 305.87622 
L 448.063745 305.589173 
L 457.52988 305.815545 
L 460.685259 306.034673 
L 463.840637 305.833239 
L 466.996016 305.749016 
L 470.151394 305.94895 
L 473.306773 306.721733 
L 479.61753 307.050725 
L 485.928287 306.819717 
L 489.083665 306.833524 
L 501.705179 306.302968 
L 511.171315 306.308643 
L 517.482072 306.18524 
L 520.63745 306.511234 
L 523.792829 306.273609 
L 542.7251 305.482084 
L 545.880478 305.57833 
L 549.035857 305.89552 
L 558.501992 306.059096 
L 561.657371 306.438327 
L 567.968127 306.48751 
L 571.123506 306.586212 
L 574.278884 306.432313 
L 580.589641 306.702244 
L 593.211155 306.194762 
L 596.366534 306.548044 
L 599.521912 306.477897 
L 602.677291 306.691379 
L 605.832669 306.473646 
L 608.988048 306.405271 
L 615.298805 306.663393 
L 618.454183 306.594619 
L 621.609562 306.846059 
L 627.920319 306.875842 
L 631.075697 306.731205 
L 634.231076 306.820317 
L 637.386454 307.085359 
L 640.541833 306.752547 
L 643.697211 306.295825 
L 646.85259 306.257837 
L 653.163347 306.955356 
L 656.318725 307.028747 
L 662.629482 306.962042 
L 665.784861 306.472313 
L 668.940239 306.638066 
L 675.250996 306.283886 
L 678.406375 306.317376 
L 681.561753 305.689963 
L 684.717131 305.536912 
L 687.87251 305.260741 
L 691.027888 305.265918 
L 694.183267 305.076393 
L 697.338645 305.139843 
L 700.494024 304.778466 
L 709.960159 305.102693 
L 713.115538 305.391271 
L 716.270916 305.154541 
L 722.581673 304.903814 
L 725.737052 305.230511 
L 728.89243 304.85293 
L 735.203187 304.642846 
L 741.513944 304.722985 
L 747.824701 304.50362 
L 750.98008 304.667698 
L 754.135458 304.466571 
L 760.446215 304.671983 
L 763.601594 304.961218 
L 766.756972 304.973358 
L 769.912351 304.76181 
L 776.223108 304.890256 
L 779.378486 305.071479 
L 788.844622 305.146112 
L 788.844622 305.146112 
" clip-path="url(#pe6467c36dc)" style="fill: none; stroke: #000000; stroke-width: 1.5; stroke-linecap: square"/>
   </g>
   <g id="line2d_7">
    <path d="M 0 306 
L 3.155378 306 
L 6.310757 304.511227 
L 9.466135 305.570893 
L 12.621514 303.864215 
L 15.776892 303.544045 
L 18.932271 304.12506 
L 22.087649 303.684457 
L 28.398406 303.742447 
L 37.864542 303.742212 
L 41.01992 303.817286 
L 44.175299 304.047198 
L 47.330677 303.739134 
L 50.486056 303.542944 
L 53.641434 303.679126 
L 56.796813 304.310268 
L 59.952191 304.498442 
L 63.10757 304.559529 
L 66.262948 304.960118 
L 72.573705 304.816927 
L 78.884462 305.168201 
L 88.350598 305.696871 
L 91.505976 305.771578 
L 94.661355 304.966914 
L 100.972112 305.433289 
L 104.12749 305.249686 
L 107.282869 305.37598 
L 113.593625 305.065465 
L 116.749004 305.050364 
L 123.059761 305.170334 
L 129.370518 305.179684 
L 132.525896 305.591457 
L 135.681275 305.679166 
L 138.836653 305.911476 
L 145.14741 305.9993 
L 148.302789 306.351908 
L 160.924303 306.540462 
L 164.079681 306.348396 
L 170.390438 306.543737 
L 176.701195 306.166385 
L 183.011952 306.147159 
L 198.788845 306.273722 
L 208.25498 305.975541 
L 217.721116 305.90303 
L 220.876494 305.957781 
L 236.653386 305.72311 
L 239.808765 305.87028 
L 252.430279 305.923235 
L 268.207171 306.127314 
L 277.673307 305.929377 
L 280.828685 305.357136 
L 283.984064 305.277773 
L 287.139442 305.39519 
L 290.294821 305.357552 
L 293.450199 305.553056 
L 296.605578 305.633591 
L 299.760956 305.600891 
L 302.916335 305.826463 
L 309.227092 305.817065 
L 312.38247 305.525835 
L 315.537849 305.626727 
L 318.693227 305.5303 
L 321.848606 305.735685 
L 325.003984 306.060249 
L 340.780876 305.525962 
L 343.936255 305.857885 
L 347.091633 306.054532 
L 350.247012 306.122634 
L 356.557769 305.8088 
L 362.868526 305.638161 
L 366.023904 305.508061 
L 372.334661 305.52086 
L 384.956175 305.377969 
L 397.577689 305.855969 
L 407.043825 305.836824 
L 410.199203 305.877526 
L 413.354582 305.719516 
L 416.50996 305.769584 
L 419.665339 305.697744 
L 422.820717 305.499715 
L 429.131474 305.534289 
L 435.442231 305.59143 
L 438.59761 305.604577 
L 441.752988 305.810178 
L 444.908367 305.788623 
L 448.063745 305.639153 
L 457.52988 305.754914 
L 460.685259 305.872108 
L 466.996016 305.727248 
L 470.151394 305.833037 
L 473.306773 306.240228 
L 479.61753 306.434849 
L 485.928287 306.339944 
L 492.239044 306.292358 
L 498.549801 306.187319 
L 504.860558 306.124279 
L 517.482072 306.070798 
L 520.63745 306.242046 
L 530.103586 305.982955 
L 545.880478 305.760053 
L 549.035857 305.919724 
L 580.589641 306.370891 
L 593.211155 306.131149 
L 596.366534 306.313789 
L 599.521912 306.283027 
L 602.677291 306.396454 
L 608.988048 306.259776 
L 624.76494 306.529706 
L 634.231076 306.517101 
L 637.386454 306.658646 
L 646.85259 306.25242 
L 653.163347 306.611912 
L 662.629482 306.638186 
L 665.784861 306.396274 
L 668.940239 306.482263 
L 675.250996 306.306686 
L 678.406375 306.323273 
L 681.561753 306.003662 
L 703.649402 305.502326 
L 709.960159 305.602183 
L 713.115538 305.737962 
L 722.581673 305.461796 
L 725.737052 305.616138 
L 732.047809 305.325728 
L 747.824701 305.162122 
L 750.98008 305.231829 
L 754.135458 305.1182 
L 769.912351 305.212444 
L 776.223108 305.258659 
L 782.533865 305.351661 
L 788.844622 305.363962 
L 788.844622 305.363962 
" clip-path="url(#pe6467c36dc)" style="fill: none; stroke: #000000; stroke-width: 1.5; stroke-linecap: square"/>
   </g>
   <g id="line2d_8">
    <path d="M 0 306 
L 3.155378 306 
L 6.310757 304.519202 
L 9.466135 305.564889 
L 12.621514 303.886868 
L 15.776892 303.568819 
L 18.932271 304.130363 
L 22.087649 303.702763 
L 31.553785 303.730884 
L 37.864542 303.750539 
L 41.01992 303.82038 
L 44.175299 304.035039 
L 50.486056 303.567147 
L 53.641434 303.691003 
L 56.796813 304.268643 
L 59.952191 304.442653 
L 63.10757 304.501176 
L 66.262948 304.866057 
L 75.729084 304.870303 
L 88.350598 305.544978 
L 91.505976 305.616038 
L 94.661355 304.925272 
L 100.972112 305.330754 
L 104.12749 305.177569 
L 107.282869 305.287511 
L 113.593625 305.030068 
L 119.904382 305.100096 
L 129.370518 305.1323 
L 132.525896 305.472046 
L 135.681275 305.547268 
L 138.836653 305.740315 
L 145.14741 305.820818 
L 148.302789 306.109443 
L 160.924303 306.285488 
L 164.079681 306.140337 
L 170.390438 306.304311 
L 176.701195 306.020742 
L 183.011952 306.012147 
L 198.788845 306.124299 
L 208.25498 305.907567 
L 217.721116 305.857497 
L 224.031873 305.853255 
L 230.342629 305.750875 
L 236.653386 305.728807 
L 242.964143 305.832124 
L 255.585657 305.917035 
L 271.36255 306.008788 
L 274.517928 306.025818 
L 277.673307 305.89495 
L 280.828685 305.498162 
L 283.984064 305.440773 
L 296.605578 305.676854 
L 299.760956 305.653815 
L 302.916335 305.806422 
L 318.693227 305.605341 
L 325.003984 305.958129 
L 340.780876 305.607535 
L 347.091633 305.953781 
L 350.247012 305.999857 
L 362.868526 305.687946 
L 369.179283 305.625221 
L 388.111554 305.589303 
L 397.577689 305.81062 
L 438.59761 305.650732 
L 441.752988 305.776142 
L 457.52988 305.741656 
L 460.685259 305.81287 
L 466.996016 305.726321 
L 470.151394 305.790105 
L 473.306773 306.035704 
L 482.772908 306.119743 
L 539.569721 305.808952 
L 545.880478 305.795801 
L 555.346614 305.963635 
L 558.501992 305.940449 
L 561.657371 306.054484 
L 599.521912 306.123974 
L 602.677291 306.190161 
L 608.988048 306.117366 
L 627.920319 306.285584 
L 634.231076 306.282352 
L 637.386454 306.364337 
L 646.85259 306.145263 
L 656.318725 306.376801 
L 662.629482 306.373212 
L 665.784861 306.242405 
L 672.095618 306.244136 
L 684.717131 305.986532 
L 694.183267 305.837471 
L 697.338645 305.8465 
L 700.494024 305.737761 
L 725.737052 305.792379 
L 732.047809 305.629295 
L 757.290837 305.506685 
L 788.844622 305.586275 
L 788.844622 305.586275 
" clip-path="url(#pe6467c36dc)" style="fill: none; stroke: #000000; stroke-width: 1.5; stroke-linecap: square"/>
   </g>
   <g id="line2d_9">
    <path d="M 0 306 
L 3.155378 306 
L 6.310757 304.52319 
L 9.466135 305.561923 
L 12.621514 303.898134 
L 15.776892 303.581205 
L 18.932271 304.133177 
L 22.087649 303.711984 
L 31.553785 303.737057 
L 37.864542 303.754972 
L 41.01992 303.82227 
L 44.175299 304.029513 
L 50.486056 303.57915 
L 53.641434 303.697144 
L 56.796813 304.249094 
L 66.262948 304.820801 
L 75.729084 304.830044 
L 88.350598 305.470181 
L 91.505976 305.539034 
L 94.661355 304.901101 
L 100.972112 305.278007 
L 104.12749 305.138716 
L 107.282869 305.240935 
L 113.593625 305.007804 
L 119.904382 305.072726 
L 129.370518 305.104424 
L 132.525896 305.411179 
L 145.14741 305.731195 
L 148.302789 305.990239 
L 160.924303 306.157329 
L 164.079681 306.032464 
L 170.390438 306.181083 
L 176.701195 305.938282 
L 183.011952 305.933932 
L 201.944223 305.959404 
L 211.410359 305.824209 
L 220.876494 305.852761 
L 236.653386 305.712194 
L 242.964143 305.799126 
L 255.585657 305.871607 
L 274.517928 305.966023 
L 277.673307 305.860523 
L 280.828685 305.539223 
L 287.139442 305.554692 
L 290.294821 305.531616 
L 296.605578 305.680265 
L 299.760956 305.661763 
L 302.916335 305.783661 
L 321.848606 305.731761 
L 325.003984 305.9026 
L 340.780876 305.629733 
L 347.091633 305.899375 
L 350.247012 305.93579 
L 366.023904 305.63106 
L 378.645418 305.593812 
L 384.956175 305.558503 
L 400.733068 305.770557 
L 407.043825 305.777009 
L 416.50996 305.747043 
L 432.286853 305.668837 
L 438.59761 305.665197 
L 444.908367 305.748225 
L 451.219124 305.69385 
L 457.52988 305.731954 
L 463.840637 305.739897 
L 470.151394 305.767711 
L 473.306773 305.945712 
L 485.928287 306.002506 
L 498.549801 305.949757 
L 514.326693 305.913763 
L 539.569721 305.80179 
L 545.880478 305.792597 
L 555.346614 305.91005 
L 561.657371 305.973817 
L 618.454183 306.077594 
L 627.920319 306.148017 
L 634.231076 306.147961 
L 637.386454 306.203922 
L 646.85259 306.060695 
L 656.318725 306.217522 
L 678.406375 306.114058 
L 684.717131 305.968753 
L 694.183267 305.871129 
L 719.426295 305.816829 
L 738.358566 305.713823 
L 788.844622 305.687839 
L 788.844622 305.687839 
" clip-path="url(#pe6467c36dc)" style="fill: none; stroke: #000000; stroke-width: 1.5; stroke-linecap: square"/>
   </g>
  </g>
 </g>
 <defs>
  <clipPath id="pe6467c36dc">
   <rect x="0" y="0" width="792" height="612"/>
  </clipPath>
 </defs>
</svg>
