<?xml version="1.0" encoding="utf-8" standalone="no"?>
<!DOCTYPE svg PUBLIC "-//W3C//DTD SVG 1.1//EN"
  "http://www.w3.org/Graphics/SVG/1.1/DTD/svg11.dtd">
<svg xmlns:xlink="http://www.w3.org/1999/xlink" width="792pt" height="612pt" viewBox="0 0 792 612" xmlns="http://www.w3.org/2000/svg" version="1.1">
 <metadata>
  <rdf:RDF xmlns:dc="http://purl.org/dc/elements/1.1/" xmlns:cc="http://creativecommons.org/ns#" xmlns:rdf="http://www.w3.org/1999/02/22-rdf-syntax-ns#">
   <cc:Work>
    <dc:type rdf:resource="http://purl.org/dc/dcmitype/StillImage"/>
    <dc:date>2022-12-19T20:28:23.548870</dc:date>
    <dc:format>image/svg+xml</dc:format>
    <dc:creator>
     <cc:Agent>
      <dc:title>Matplotlib v3.6.2, https://matplotlib.org/</dc:title>
     </cc:Agent>
    </dc:creator>
   </cc:Work>
  </rdf:RDF>
 </metadata>
 <defs>
  <style type="text/css">*{stroke-linejoin: round; stroke-linecap: butt}</style>
 </defs>
 <g id="figure_1">
  <g id="patch_1">
   <path d="M 0 612 
L 792 612 
L 792 0 
L 0 0 
z
" style="fill: #ffffff"/>
  </g>
  <g id="axes_1">
   <g id="line2d_1">
    <path d="M 0 459 
L 12.375 462.993035 
L 24.75 462.477805 
L 37.125 465.053957 
L 49.5 462.969616 
L 61.875 462.430966 
L 74.25 464.105465 
L 86.625 465.709705 
L 99 465.264733 
L 111.375 468.309276 
L 123.75 469.128961 
L 136.125 469.445125 
L 148.5 468.250727 
L 160.875 469.573932 
L 173.25 472.876091 
L 185.625 469.71445 
L 198 465.042247 
L 210.375 464.761212 
L 222.75 468.871345 
L 235.125 472.864381 
L 247.5 474.117327 
L 259.875 474.058779 
L 272.25 474.328103 
L 284.625 469.386576 
L 297 471.435788 
L 309.375 469.70274 
L 321.75 468.039951 
L 334.125 468.543472 
L 346.5 461.763508 
L 358.875 459.889943 
L 371.25 451.869317 
L 383.625 451.026441 
L 396 443.724379 
L 408.375 444.5666 
L 420.75 431.456597 
L 433.125 432.226737 
L 445.5 432.541838 
L 457.875 437.341292 
L 470.25 445.619512 
L 482.625 436.885649 
L 495 432.051692 
L 507.375 426.105167 
L 519.75 435.378838 
L 532.125 421.949073 
L 544.5 415.186988 
L 556.875 411.604404 
L 569.25 411.117891 
L 581.625 410.492534 
L 594 405.046003 
L 606.375 399.683919 
L 618.75 403.003108 
L 631.125 394.648169 
L 643.5 395.853978 
L 655.875 397.164149 
L 668.25 404.734232 
L 680.625 403.660747 
L 693 395.337093 
L 705.375 394.441549 
L 717.75 396.129717 
L 730.125 400.47858 
L 742.5 400.167583 
L 754.875 400.962462 
L 767.25 399.200388 
L 779.625 401.723113 
" clip-path="url(#p64134d1143)" style="fill: none; stroke: #000000; stroke-width: 1.5; stroke-linecap: square"/>
   </g>
   <g id="line2d_2">
    <path d="M 0 459 
L 12.375 459 
L 24.75 461.662024 
L 37.125 462.128184 
L 49.5 463.688596 
L 61.875 463.31751 
L 74.25 462.867202 
L 86.625 463.491208 
L 99 464.604806 
L 111.375 464.947053 
L 123.75 466.638589 
L 136.125 467.896816 
L 148.5 468.679581 
L 160.875 468.475509 
L 173.25 469.038726 
L 185.625 470.974606 
L 198 470.35238 
L 210.375 467.696877 
L 222.75 466.222088 
L 235.125 467.546212 
L 247.5 470.212001 
L 259.875 472.176167 
L 272.25 473.126267 
L 284.625 473.730032 
L 297 471.557661 
L 309.375 471.509261 
L 321.75 470.61569 
L 334.125 469.32619 
L 346.5 468.926358 
L 358.875 465.32071 
L 371.25 462.577545 
L 383.625 459.565514 
L 396 455.784409 
L 408.375 449.649725 
L 420.75 447.016592 
L 433.125 439.123857 
L 445.5 435.565564 
L 457.875 433.98544 
L 470.25 435.615442 
L 482.625 440.603049 
L 495 438.716311 
L 507.375 435.359877 
L 519.75 430.693475 
L 532.125 433.043168 
L 544.5 427.471341 
L 556.875 421.288369 
L 569.25 416.391281 
L 581.625 413.685754 
L 594 412.037041 
L 606.375 408.485822 
L 618.75 404.028149 
L 631.125 403.452504 
L 643.5 398.991442 
L 655.875 397.384234 
L 668.25 397.245984 
L 680.625 400.973714 
L 693 402.303375 
L 705.375 398.797685 
L 717.75 396.607909 
L 730.125 396.355344 
L 742.5 398.427156 
L 754.875 399.305616 
L 767.25 400.141296 
L 779.625 399.659942 
" clip-path="url(#p64134d1143)" style="fill: none; stroke: #000000; stroke-width: 1.5; stroke-linecap: square"/>
   </g>
   <g id="line2d_3">
    <path d="M 0 459 
L 12.375 459 
L 24.75 461.339066 
L 37.125 461.855008 
L 49.5 463.104275 
L 61.875 463.056365 
L 74.25 462.847022 
L 86.625 463.251349 
L 99 464.019387 
L 111.375 464.401006 
L 123.75 465.582638 
L 136.125 466.644802 
L 148.5 467.478017 
L 160.875 467.706867 
L 173.25 468.258024 
L 185.625 469.618138 
L 198 469.646457 
L 210.375 468.304856 
L 222.75 467.268977 
L 235.125 467.745644 
L 247.5 469.253858 
L 259.875 470.69114 
L 272.25 471.690854 
L 284.625 472.475028 
L 297 471.574665 
L 309.375 471.541077 
L 321.75 471.004241 
L 334.125 470.13477 
L 346.5 469.667654 
L 358.875 467.345132 
L 371.25 465.150435 
L 383.625 462.634113 
L 396 460.775801 
L 408.375 458.252892 
L 420.75 454.206614 
L 433.125 447.470198 
L 445.5 442.922884 
L 457.875 439.797792 
L 470.25 439.001539 
L 482.625 440.871075 
L 495 439.642358 
L 507.375 437.344142 
L 519.75 433.974513 
L 532.125 434.327646 
L 544.5 430.622257 
L 556.875 426.03342 
L 569.25 421.741852 
L 581.625 418.578838 
L 594 416.161207 
L 606.375 412.85553 
L 618.75 408.93738 
L 631.125 407.164879 
L 643.5 403.446877 
L 655.875 401.177683 
L 668.25 399.955393 
L 680.625 401.30728 
L 693 401.958422 
L 705.375 399.974547 
L 717.75 398.315931 
L 730.125 397.630607 
L 742.5 398.439769 
L 754.875 398.928484 
L 767.25 399.511798 
L 779.625 399.406936 
" clip-path="url(#p64134d1143)" style="fill: none; stroke: #000000; stroke-width: 1.5; stroke-linecap: square"/>
   </g>
   <g id="line2d_4">
    <path d="M 0 459 
L 12.375 459 
L 24.75 461.169071 
L 37.125 461.682702 
L 49.5 462.75546 
L 61.875 462.814252 
L 74.25 462.719917 
L 86.625 463.03363 
L 99 463.601328 
L 111.375 463.936427 
L 123.75 464.781564 
L 136.125 465.594023 
L 148.5 466.294279 
L 160.875 466.642119 
L 173.25 467.153808 
L 185.625 468.137346 
L 198 468.404997 
L 210.375 467.840293 
L 222.75 467.327749 
L 235.125 467.58282 
L 247.5 468.450242 
L 259.875 469.376229 
L 272.25 470.138074 
L 284.625 470.817344 
L 297 470.58609 
L 309.375 470.72308 
L 321.75 470.558927 
L 334.125 470.15439 
L 346.5 469.896069 
L 358.875 468.593593 
L 371.25 467.201119 
L 383.625 465.510234 
L 396 464.045795 
L 408.375 462.429378 
L 420.75 461.112537 
L 433.125 459.306011 
L 445.5 455.479421 
L 457.875 451.801873 
L 470.25 449.479505 
L 482.625 448.847363 
L 495 446.916517 
L 507.375 444.520432 
L 519.75 441.5479 
L 532.125 440.532244 
L 544.5 437.527319 
L 556.875 433.918688 
L 569.25 430.30839 
L 581.625 427.19091 
L 594 424.477155 
L 606.375 421.330577 
L 618.75 417.825026 
L 631.125 415.407074 
L 643.5 412.024237 
L 655.875 409.375359 
L 668.25 407.361126 
L 680.625 406.881043 
L 693 406.3149 
L 705.375 404.501494 
L 717.75 402.837425 
L 730.125 401.712978 
L 742.5 401.462804 
L 754.875 401.21525 
L 767.25 401.13756 
L 779.625 400.796664 
" clip-path="url(#p64134d1143)" style="fill: none; stroke: #000000; stroke-width: 1.5; stroke-linecap: square"/>
   </g>
   <g id="line2d_5">
    <path d="M 0 459 
L 12.375 459 
L 24.75 461.082956 
L 37.125 461.588721 
L 49.5 462.570651 
L 61.875 462.664833 
L 74.25 462.616954 
L 86.625 462.888622 
L 99 463.356899 
L 111.375 463.649315 
L 123.75 464.316655 
L 136.125 464.966673 
L 148.5 465.541652 
L 160.875 465.874362 
L 173.25 466.31132 
L 185.625 467.060385 
L 198 467.354087 
L 210.375 467.105143 
L 222.75 466.858824 
L 235.125 467.065744 
L 247.5 467.650353 
L 259.875 468.290926 
L 272.25 468.85322 
L 284.625 469.379329 
L 297 469.380016 
L 309.375 469.572726 
L 321.75 469.584784 
L 334.125 469.442893 
L 346.5 469.361007 
L 358.875 468.674829 
L 371.25 467.887176 
L 383.625 466.883908 
L 396 465.950633 
L 408.375 464.890222 
L 420.75 463.952646 
L 433.125 462.71924 
L 445.5 461.620466 
L 457.875 460.630055 
L 470.25 459.86676 
L 482.625 459.40894 
L 495 458.22564 
L 507.375 455.986612 
L 519.75 453.435062 
L 532.125 451.898006 
L 544.5 449.350246 
L 556.875 446.446686 
L 569.25 443.488872 
L 581.625 440.745102 
L 594 438.184544 
L 606.375 435.380895 
L 618.75 432.361537 
L 631.125 429.883341 
L 643.5 426.907072 
L 655.875 424.287975 
L 668.25 422.003603 
L 680.625 420.553252 
L 693 419.135523 
L 705.375 417.135967 
L 717.75 415.230449 
L 730.125 413.628739 
L 742.5 412.528076 
L 754.875 411.494117 
L 767.25 410.613859 
L 779.625 409.660016 
" clip-path="url(#p64134d1143)" style="fill: none; stroke: #000000; stroke-width: 1.5; stroke-linecap: square"/>
   </g>
   <g id="line2d_6">
    <path d="M 0 459 
L 12.375 459 
L 24.75 461.039757 
L 37.125 461.540016 
L 49.5 462.476384 
L 61.875 462.583757 
L 74.25 462.555457 
L 86.625 462.806674 
L 99 463.226892 
L 111.375 463.494483 
L 123.75 464.075095 
L 136.125 464.640338 
L 148.5 465.142827 
L 160.875 465.448825 
L 173.25 465.833416 
L 185.625 466.458252 
L 198 466.734356 
L 210.375 466.596712 
L 222.75 466.453001 
L 235.125 466.635785 
L 247.5 467.091433 
L 259.875 467.590071 
L 272.25 468.03641 
L 284.625 468.459286 
L 297 468.520101 
L 309.375 468.706991 
L 321.75 468.769461 
L 334.125 468.724606 
L 346.5 468.713678 
L 358.875 468.301734 
L 371.25 467.811432 
L 383.625 467.169483 
L 396 466.55741 
L 408.375 465.852219 
L 420.75 465.210564 
L 433.125 464.373854 
L 445.5 463.60575 
L 457.875 462.892585 
L 470.25 462.308674 
L 482.625 461.904666 
L 495 461.375143 
L 507.375 460.79495 
L 519.75 460.148359 
L 532.125 459.695214 
L 544.5 459.044213 
L 556.875 456.953652 
L 569.25 454.719333 
L 581.625 452.585022 
L 594 450.537251 
L 606.375 448.335254 
L 618.75 445.991239 
L 631.125 443.932709 
L 643.5 441.580773 
L 655.875 439.410066 
L 668.25 437.414761 
L 680.625 435.880803 
L 693 434.374748 
L 705.375 432.55426 
L 717.75 430.783664 
L 730.125 429.180613 
L 742.5 427.859148 
L 754.875 426.588606 
L 767.25 425.417012 
L 779.625 424.221792 
" clip-path="url(#p64134d1143)" style="fill: none; stroke: #000000; stroke-width: 1.5; stroke-linecap: square"/>
   </g>
   <g id="line2d_7">
    <path d="M 0 459 
L 12.375 459 
L 24.75 461.01814 
L 37.125 461.515271 
L 49.5 462.428891 
L 61.875 462.541771 
L 74.25 462.522289 
L 86.625 462.763416 
L 99 463.160219 
L 111.375 463.41482 
L 123.75 463.953333 
L 136.125 464.476437 
L 148.5 464.94158 
L 160.875 465.230509 
L 173.25 465.586301 
L 185.625 466.149386 
L 198 466.410204 
L 210.375 466.315048 
L 222.75 466.211925 
L 235.125 466.380831 
L 247.5 466.775988 
L 259.875 467.206414 
L 272.25 467.593761 
L 284.625 467.961528 
L 297 468.036851 
L 309.375 468.211033 
L 321.75 468.285264 
L 334.125 468.273393 
L 346.5 468.28612 
L 358.875 467.986469 
L 371.25 467.623411 
L 383.625 467.141421 
L 396 466.678597 
L 408.375 466.14271 
L 420.75 465.651188 
L 433.125 465.012397 
L 445.5 464.420922 
L 457.875 463.867072 
L 470.25 463.405154 
L 482.625 463.072036 
L 495 462.648721 
L 507.375 462.188466 
L 519.75 461.680107 
L 532.125 461.306685 
L 544.5 460.794604 
L 556.875 460.228768 
L 569.25 459.648434 
L 581.625 459.089259 
L 594 457.644987 
L 606.375 455.913504 
L 618.75 454.081223 
L 631.125 452.435728 
L 643.5 450.59038 
L 655.875 448.86055 
L 668.25 447.243258 
L 680.625 445.92807 
L 693 444.632198 
L 705.375 443.1318 
L 717.75 441.662422 
L 730.125 440.300495 
L 742.5 439.120327 
L 754.875 437.97508 
L 767.25 436.895527 
L 779.625 435.803956 
" clip-path="url(#p64134d1143)" style="fill: none; stroke: #000000; stroke-width: 1.5; stroke-linecap: square"/>
   </g>
   <g id="line2d_8">
    <path d="M 0 459 
L 12.375 459 
L 24.75 461.007329 
L 37.125 461.502806 
L 49.5 462.405068 
L 61.875 462.520436 
L 74.25 462.505118 
L 86.625 462.741234 
L 99 463.126509 
L 111.375 463.374511 
L 123.75 463.892384 
L 136.125 464.394631 
L 148.5 464.841026 
L 160.875 465.120691 
L 173.25 465.461654 
L 185.625 465.994298 
L 198 466.246168 
L 210.375 466.169048 
L 222.75 466.083428 
L 235.125 466.244899 
L 247.5 466.611026 
L 259.875 467.0085 
L 272.25 467.366718 
L 284.625 467.706802 
L 297 467.785854 
L 309.375 467.951608 
L 321.75 468.02847 
L 334.125 468.028957 
L 346.5 468.050145 
L 358.875 467.798905 
L 371.25 467.491795 
L 383.625 467.081268 
L 396 466.686296 
L 408.375 466.228187 
L 420.75 465.80713 
L 433.125 465.26087 
L 445.5 464.753905 
L 457.875 464.278118 
L 470.25 463.878918 
L 482.625 463.586876 
L 495 463.220313 
L 507.375 462.823356 
L 519.75 462.386931 
L 532.125 462.060927 
L 544.5 461.622223 
L 556.875 461.139942 
L 569.25 460.645922 
L 581.625 460.168921 
L 594 459.706612 
L 606.375 459.215497 
L 618.75 458.093154 
L 631.125 456.687798 
L 643.5 455.12522 
L 655.875 453.653533 
L 668.25 452.270383 
L 680.625 451.123637 
L 693 449.993334 
L 705.375 448.706089 
L 717.75 447.44368 
L 730.125 446.264843 
L 742.5 445.226452 
L 754.875 444.216372 
L 767.25 443.257944 
L 779.625 442.292217 
" clip-path="url(#p64134d1143)" style="fill: none; stroke: #000000; stroke-width: 1.5; stroke-linecap: square"/>
   </g>
   <g id="line2d_9">
    <path d="M 0 459 
L 12.375 459 
L 24.75 461.001923 
L 37.125 461.49655 
L 49.5 462.393139 
L 61.875 462.509686 
L 74.25 462.496388 
L 86.625 462.730007 
L 99 463.109567 
L 111.375 463.354249 
L 123.75 463.861914 
L 136.125 464.353806 
L 148.5 464.790833 
L 160.875 465.065711 
L 173.25 465.399184 
L 185.625 465.91676 
L 198 466.163877 
L 210.375 466.095002 
L 222.75 466.017443 
L 235.125 466.175081 
L 247.5 466.527031 
L 259.875 466.908381 
L 272.25 467.252212 
L 284.625 467.578532 
L 297 467.658651 
L 309.375 467.819758 
L 321.75 467.897188 
L 334.125 467.902856 
L 346.5 467.927447 
L 358.875 467.698392 
L 371.25 467.417158 
L 383.625 467.039935 
L 396 466.676803 
L 408.375 466.255351 
L 420.75 465.867781 
L 433.125 465.365429 
L 445.5 464.898922 
L 457.875 464.460844 
L 470.25 464.092481 
L 482.625 463.821465 
L 495 463.483196 
L 507.375 463.117658 
L 519.75 462.71675 
L 532.125 462.41524 
L 544.5 462.012954 
L 556.875 461.571901 
L 569.25 461.120576 
L 581.625 460.684614 
L 594 460.261939 
L 606.375 459.81401 
L 618.75 459.342777 
L 631.125 458.745876 
L 643.5 457.325983 
L 655.875 455.98666 
L 668.25 454.725756 
L 680.625 453.672365 
L 693 452.634443 
L 705.375 451.461156 
L 717.75 450.310442 
L 730.125 449.23313 
L 742.5 448.278253 
L 754.875 447.348976 
L 767.25 446.465323 
L 779.625 445.576625 
" clip-path="url(#p64134d1143)" style="fill: none; stroke: #000000; stroke-width: 1.5; stroke-linecap: square"/>
   </g>
  </g>
 </g>
 <defs>
  <clipPath id="p64134d1143">
   <rect x="0" y="0" width="792" height="612"/>
  </clipPath>
 </defs>
</svg>
