<?xml version="1.0" encoding="utf-8" standalone="no"?>
<!DOCTYPE svg PUBLIC "-//W3C//DTD SVG 1.1//EN"
  "http://www.w3.org/Graphics/SVG/1.1/DTD/svg11.dtd">
<svg xmlns:xlink="http://www.w3.org/1999/xlink" width="792pt" height="612pt" viewBox="0 0 792 612" xmlns="http://www.w3.org/2000/svg" version="1.1">
 <metadata>
  <rdf:RDF xmlns:dc="http://purl.org/dc/elements/1.1/" xmlns:cc="http://creativecommons.org/ns#" xmlns:rdf="http://www.w3.org/1999/02/22-rdf-syntax-ns#">
   <cc:Work>
    <dc:type rdf:resource="http://purl.org/dc/dcmitype/StillImage"/>
    <dc:date>2022-12-19T20:28:24.563107</dc:date>
    <dc:format>image/svg+xml</dc:format>
    <dc:creator>
     <cc:Agent>
      <dc:title>Matplotlib v3.6.2, https://matplotlib.org/</dc:title>
     </cc:Agent>
    </dc:creator>
   </cc:Work>
  </rdf:RDF>
 </metadata>
 <defs>
  <style type="text/css">*{stroke-linejoin: round; stroke-linecap: butt}</style>
 </defs>
 <g id="figure_1">
  <g id="patch_1">
   <path d="M 0 612 
L 792 612 
L 792 0 
L 0 0 
z
" style="fill: #ffffff"/>
  </g>
  <g id="axes_1">
   <g id="line2d_1">
    <path d="M 0 306 
L 12.375 313.984258 
L 24.75 304.969543 
L 37.125 311.151817 
L 49.5 301.831576 
L 61.875 304.922705 
L 74.25 309.348864 
L 86.625 309.208362 
L 99 305.110059 
L 111.375 312.088283 
L 123.75 307.639354 
L 136.125 306.632327 
L 148.5 303.611253 
L 160.875 308.646345 
L 173.25 312.603291 
L 185.625 299.677618 
L 198 296.658498 
L 210.375 305.437931 
L 222.75 314.21829 
L 235.125 313.984258 
L 247.5 308.505837 
L 259.875 305.882902 
L 272.25 306.538649 
L 284.625 296.12038 
L 297 310.098178 
L 309.375 302.534053 
L 321.75 302.674553 
L 334.125 307.007038 
L 346.5 292.448942 
L 358.875 302.253057 
L 371.25 299.466935 
L 383.625 305.437931 
L 396 301.129143 
L 408.375 306.562069 
L 420.75 297.243475 
L 433.125 306.51523 
L 445.5 306.210776 
L 457.875 309.208362 
L 470.25 311.526416 
L 482.625 300.169235 
L 495 302.768221 
L 507.375 302.018899 
L 519.75 312.205333 
L 532.125 297.009476 
L 544.5 301.456939 
L 556.875 303.587835 
L 569.25 305.672126 
L 581.625 305.578448 
L 594 302.323306 
L 606.375 302.370138 
L 618.75 308.248238 
L 631.125 300.333114 
L 643.5 306.819683 
L 655.875 306.889941 
L 668.25 311.128404 
L 680.625 305.273995 
L 693 300.356525 
L 705.375 305.391092 
L 717.75 307.147553 
L 730.125 308.950773 
L 742.5 305.789224 
L 754.875 306.538649 
L 767.25 304.805608 
L 779.625 307.70961 
" clip-path="url(#pb74ec36d8c)" style="fill: none; stroke: #000000; stroke-width: 1.5; stroke-linecap: square"/>
   </g>
   <g id="line2d_2">
    <path d="M 0 306 
L 12.375 306 
L 24.75 311.32351 
L 37.125 307.692883 
L 49.5 309.537758 
L 61.875 305.560317 
L 74.25 305.23645 
L 86.625 307.308906 
L 99 308.26238 
L 111.375 306.684493 
L 123.75 309.382933 
L 136.125 308.516398 
L 148.5 307.565515 
L 160.875 305.591857 
L 173.25 307.12643 
L 185.625 309.871552 
L 198 304.755556 
L 210.375 300.689528 
L 222.75 303.050512 
L 235.125 308.648181 
L 247.5 311.331039 
L 259.875 309.928117 
L 272.25 307.900175 
L 284.625 307.207525 
L 297 301.65555 
L 309.375 305.903199 
L 321.75 304.212878 
L 334.125 303.421062 
L 346.5 305.200339 
L 358.875 298.790038 
L 371.25 300.514257 
L 383.625 299.976716 
L 396 302.725335 
L 408.375 301.909627 
L 420.75 304.243644 
L 433.125 300.732221 
L 445.5 303.622549 
L 457.875 304.943644 
L 470.25 307.089694 
L 482.625 309.331875 
L 495 304.739943 
L 507.375 303.757273 
L 519.75 302.879153 
L 532.125 307.571944 
L 544.5 302.270964 
L 556.875 301.854624 
L 569.25 302.710183 
L 581.625 304.179633 
L 594 304.889642 
L 606.375 303.605559 
L 618.75 302.988525 
L 631.125 305.610593 
L 643.5 302.978148 
L 655.875 304.909388 
L 668.25 305.906138 
L 680.625 308.528153 
L 693 306.900503 
L 705.375 303.624386 
L 717.75 304.51365 
L 730.125 305.82844 
L 742.5 307.406541 
L 754.875 306.595866 
L 767.25 306.566569 
L 779.625 305.673688 
" clip-path="url(#pb74ec36d8c)" style="fill: none; stroke: #000000; stroke-width: 1.5; stroke-linecap: square"/>
   </g>
   <g id="line2d_3">
    <path d="M 0 306 
L 12.375 306 
L 24.75 310.677767 
L 37.125 308.09164 
L 49.5 309.286797 
L 61.875 306.634305 
L 74.25 306.061371 
L 86.625 307.117653 
L 99 307.770852 
L 111.375 306.955499 
L 123.75 308.507541 
L 136.125 308.247513 
L 148.5 307.766936 
L 160.875 306.536165 
L 173.25 307.159103 
L 185.625 308.762758 
L 198 306.091135 
L 210.375 303.316865 
L 222.75 303.928275 
L 235.125 306.95333 
L 247.5 309.016331 
L 259.875 308.874478 
L 272.25 307.9994 
L 284.625 307.568335 
L 297 304.199294 
L 309.375 305.932824 
L 321.75 304.926333 
L 334.125 304.261076 
L 346.5 305.065771 
L 358.875 301.355313 
L 371.25 301.610907 
L 383.625 300.967811 
L 396 302.283558 
L 408.375 301.950562 
L 420.75 303.302435 
L 433.125 301.507878 
L 445.5 302.965787 
L 457.875 303.913548 
L 470.25 305.468195 
L 482.625 307.248505 
L 495 305.179489 
L 507.375 304.464801 
L 519.75 303.747787 
L 532.125 306.236114 
L 544.5 303.521504 
L 556.875 302.927131 
L 569.25 303.122177 
L 581.625 303.876142 
L 594 304.374889 
L 606.375 303.775342 
L 618.75 303.35894 
L 631.125 304.803597 
L 643.5 303.486984 
L 655.875 304.463781 
L 668.25 305.171718 
L 680.625 306.91607 
L 693 306.440983 
L 705.375 304.655937 
L 717.75 304.875131 
L 730.125 305.534896 
L 742.5 306.549128 
L 754.875 306.331534 
L 767.25 306.395586 
L 779.625 305.928896 
" clip-path="url(#pb74ec36d8c)" style="fill: none; stroke: #000000; stroke-width: 1.5; stroke-linecap: square"/>
   </g>
   <g id="line2d_4">
    <path d="M 0 306 
L 12.375 306 
L 24.75 310.337852 
L 37.125 308.231118 
L 49.5 309.160575 
L 61.875 307.14856 
L 74.25 306.600734 
L 86.625 307.222985 
L 99 307.644173 
L 111.375 307.133673 
L 123.75 308.091372 
L 136.125 308.006898 
L 148.5 307.75696 
L 160.875 307.019892 
L 173.25 307.303763 
L 185.625 308.214783 
L 198 306.765814 
L 210.375 305.068016 
L 222.75 305.129592 
L 235.125 306.631773 
L 247.5 307.839592 
L 259.875 307.948456 
L 272.25 307.6124 
L 284.625 307.43833 
L 297 305.608475 
L 309.375 306.332352 
L 321.75 305.721254 
L 334.125 305.231948 
L 346.5 305.516594 
L 358.875 303.422375 
L 371.25 303.235293 
L 383.625 302.63285 
L 396 303.080873 
L 408.375 302.767286 
L 420.75 303.366382 
L 433.125 302.387116 
L 445.5 303.040972 
L 457.875 303.548006 
L 470.25 304.451251 
L 482.625 305.578379 
L 495 304.712019 
L 507.375 304.401282 
L 519.75 304.015933 
L 532.125 305.321858 
L 544.5 303.992939 
L 556.875 303.58808 
L 569.25 303.584885 
L 581.625 303.912638 
L 594 304.181351 
L 606.375 303.889253 
L 618.75 303.645633 
L 631.125 304.37418 
L 643.5 303.722639 
L 655.875 304.214323 
L 668.25 304.640644 
L 680.625 305.675803 
L 693 305.617587 
L 705.375 304.774359 
L 717.75 304.874266 
L 730.125 305.238743 
L 742.5 305.830566 
L 754.875 305.832318 
L 767.25 305.947372 
L 779.625 305.769044 
" clip-path="url(#pb74ec36d8c)" style="fill: none; stroke: #000000; stroke-width: 1.5; stroke-linecap: square"/>
   </g>
   <g id="line2d_5">
    <path d="M 0 306 
L 12.375 306 
L 24.75 310.165655 
L 37.125 308.281693 
L 49.5 309.095051 
L 61.875 307.380405 
L 74.25 306.87725 
L 86.625 307.328363 
L 99 307.640439 
L 111.375 307.252611 
L 123.75 307.945208 
L 136.125 307.903896 
L 148.5 307.740644 
L 160.875 307.233504 
L 173.25 307.400379 
L 185.625 307.994148 
L 198 307.073751 
L 210.375 305.951905 
L 222.75 305.897893 
L 235.125 306.753569 
L 247.5 307.482727 
L 259.875 307.584071 
L 272.25 307.418231 
L 284.625 307.333708 
L 297 306.269777 
L 309.375 306.628678 
L 321.75 306.248911 
L 334.125 305.920597 
L 346.5 306.019511 
L 358.875 304.793072 
L 371.25 304.565322 
L 383.625 304.111153 
L 396 304.228609 
L 408.375 303.955703 
L 420.75 304.184014 
L 433.125 303.578632 
L 445.5 303.833617 
L 457.875 304.039239 
L 470.25 304.484812 
L 482.625 305.089899 
L 495 304.668275 
L 507.375 304.50592 
L 519.75 304.293924 
L 532.125 304.966812 
L 544.5 304.291257 
L 556.875 304.051137 
L 569.25 304.011956 
L 581.625 304.152129 
L 594 304.272384 
L 606.375 304.10826 
L 618.75 303.962076 
L 631.125 304.322141 
L 643.5 303.987328 
L 655.875 304.224802 
L 668.25 304.448067 
L 680.625 305.007304 
L 693 305.029612 
L 705.375 304.638919 
L 717.75 304.701758 
L 730.125 304.905978 
L 742.5 305.243549 
L 754.875 305.289068 
L 767.25 305.393262 
L 779.625 305.34428 
" clip-path="url(#pb74ec36d8c)" style="fill: none; stroke: #000000; stroke-width: 1.5; stroke-linecap: square"/>
   </g>
   <g id="line2d_6">
    <path d="M 0 306 
L 12.375 306 
L 24.75 310.079273 
L 37.125 308.301846 
L 49.5 309.061344 
L 61.875 307.487488 
L 74.25 307.012434 
L 86.625 307.391126 
L 99 307.654183 
L 111.375 307.320116 
L 123.75 307.895185 
L 136.125 307.866572 
L 148.5 307.737496 
L 160.875 307.331236 
L 173.25 307.453849 
L 185.625 307.910791 
L 198 307.212612 
L 210.375 306.35386 
L 222.75 306.282148 
L 235.125 306.882124 
L 247.5 307.401801 
L 259.875 307.480157 
L 272.25 307.369949 
L 284.625 307.314076 
L 297 306.579727 
L 309.375 306.805268 
L 321.75 306.537298 
L 334.125 306.299786 
L 346.5 306.342458 
L 358.875 305.51845 
L 371.25 305.328108 
L 383.625 304.991765 
L 396 305.016986 
L 408.375 304.800253 
L 420.75 304.897165 
L 433.125 304.481278 
L 445.5 304.590463 
L 457.875 304.676472 
L 470.25 304.914498 
L 482.625 305.258314 
L 495 304.996188 
L 507.375 304.882476 
L 519.75 304.737573 
L 532.125 305.112399 
L 544.5 304.708754 
L 556.875 304.547993 
L 569.25 304.50086 
L 581.625 304.557972 
L 594 304.607417 
L 606.375 304.497405 
L 618.75 304.395534 
L 631.125 304.579014 
L 643.5 304.377833 
L 655.875 304.492944 
L 668.25 304.605407 
L 680.625 304.910101 
L 693 304.927025 
L 705.375 304.715306 
L 717.75 304.746484 
L 730.125 304.856847 
L 742.5 305.044354 
L 754.875 305.078354 
L 767.25 305.144794 
L 779.625 305.129409 
" clip-path="url(#pb74ec36d8c)" style="fill: none; stroke: #000000; stroke-width: 1.5; stroke-linecap: square"/>
   </g>
   <g id="line2d_7">
    <path d="M 0 306 
L 12.375 306 
L 24.75 310.036046 
L 37.125 308.31061 
L 49.5 309.044212 
L 61.875 307.538538 
L 74.25 307.078626 
L 86.625 307.42441 
L 99 307.66468 
L 111.375 307.355631 
L 123.75 307.876415 
L 136.125 307.852455 
L 148.5 307.738235 
L 160.875 307.377903 
L 173.25 307.48181 
L 185.625 307.877475 
L 198 307.277525 
L 210.375 306.538659 
L 222.75 306.465608 
L 235.125 306.958122 
L 247.5 307.386452 
L 259.875 307.452083 
L 272.25 307.363382 
L 284.625 307.318344 
L 297 306.72628 
L 309.375 306.899088 
L 321.75 306.681868 
L 334.125 306.487944 
L 346.5 306.512404 
L 358.875 305.865917 
L 371.25 305.703904 
L 383.625 305.430586 
L 396 305.430901 
L 408.375 305.250396 
L 420.75 305.304323 
L 433.125 304.979222 
L 445.5 305.040004 
L 457.875 305.085508 
L 470.25 305.243005 
L 482.625 305.479095 
L 495 305.282747 
L 507.375 305.191196 
L 519.75 305.077399 
L 532.125 305.329466 
L 544.5 305.039231 
L 556.875 304.915951 
L 569.25 304.870834 
L 581.625 304.897717 
L 594 304.920281 
L 606.375 304.835191 
L 618.75 304.755329 
L 631.125 304.867258 
L 643.5 304.723471 
L 655.875 304.78926 
L 668.25 304.85454 
L 680.625 305.047656 
L 693 305.054558 
L 705.375 304.912566 
L 717.75 304.926901 
L 730.125 304.992861 
L 742.5 305.10946 
L 754.875 305.129326 
L 767.25 305.170194 
L 779.625 305.159701 
" clip-path="url(#pb74ec36d8c)" style="fill: none; stroke: #000000; stroke-width: 1.5; stroke-linecap: square"/>
   </g>
   <g id="line2d_8">
    <path d="M 0 306 
L 12.375 306 
L 24.75 310.014428 
L 37.125 308.314662 
L 49.5 309.035572 
L 61.875 307.563409 
L 74.25 307.111295 
L 86.625 307.44144 
L 99 307.670775 
L 111.375 307.373776 
L 123.75 307.868603 
L 136.125 307.846615 
L 148.5 307.73929 
L 160.875 307.400711 
L 173.25 307.496085 
L 185.625 307.863042 
L 198 307.308807 
L 210.375 306.626397 
L 222.75 306.554119 
L 235.125 306.998125 
L 247.5 307.384626 
L 259.875 307.443997 
L 272.25 307.364681 
L 284.625 307.324327 
L 297 306.796904 
L 309.375 306.946834 
L 321.75 306.753141 
L 334.125 306.579856 
L 346.5 306.597447 
L 358.875 306.03166 
L 371.25 305.884928 
L 383.625 305.642477 
L 396 305.634955 
L 408.375 305.473426 
L 420.75 305.511495 
L 433.125 305.229122 
L 445.5 305.27203 
L 457.875 305.302657 
L 470.25 305.427363 
L 482.625 305.618078 
L 495 305.451111 
L 507.375 305.370509 
L 519.75 305.271717 
L 532.125 305.472351 
L 544.5 305.23179 
L 556.875 305.126373 
L 569.25 305.084134 
L 581.625 305.100011 
L 594 305.112724 
L 606.375 305.039754 
L 618.75 304.970976 
L 631.125 305.054158 
L 643.5 304.936042 
L 655.875 304.982501 
L 668.25 305.028902 
L 680.625 305.175308 
L 693 305.177646 
L 705.375 305.064886 
L 717.75 305.072419 
L 730.125 305.11976 
L 742.5 305.20612 
L 754.875 305.219111 
L 767.25 305.248176 
L 779.625 305.238536 
" clip-path="url(#pb74ec36d8c)" style="fill: none; stroke: #000000; stroke-width: 1.5; stroke-linecap: square"/>
   </g>
   <g id="line2d_9">
    <path d="M 0 306 
L 12.375 306 
L 24.75 310.003618 
L 37.125 308.316605 
L 49.5 309.031232 
L 61.875 307.575677 
L 74.25 307.127513 
L 86.625 307.45004 
L 99 307.674026 
L 111.375 307.382937 
L 123.75 307.865088 
L 136.125 307.844006 
L 148.5 307.74 
L 160.875 307.411987 
L 173.25 307.503294 
L 185.625 307.856392 
L 198 307.324151 
L 210.375 306.669042 
L 222.75 306.597453 
L 235.125 307.018503 
L 247.5 307.385088 
L 259.875 307.441398 
L 272.25 307.366458 
L 284.625 307.328282 
L 297 306.831482 
L 309.375 306.970826 
L 321.75 306.788375 
L 334.125 306.62504 
L 346.5 306.639703 
L 358.875 306.112039 
L 371.25 305.973045 
L 383.625 305.745643 
L 396 305.735198 
L 408.375 305.583177 
L 420.75 305.614614 
L 433.125 305.352693 
L 445.5 305.38814 
L 457.875 305.412608 
L 470.25 305.522831 
L 482.625 305.693151 
L 495 305.539953 
L 507.375 305.464768 
L 519.75 305.373282 
L 532.125 305.550923 
L 544.5 305.33328 
L 556.875 305.236472 
L 569.25 305.196091 
L 581.625 305.207532 
L 594 305.216284 
L 606.375 305.149242 
L 618.75 305.085965 
L 631.125 305.156734 
L 643.5 305.050574 
L 655.875 305.088868 
L 668.25 305.127231 
L 680.625 305.253066 
L 693 305.253498 
L 705.375 305.153904 
L 717.75 305.158656 
L 730.125 305.197931 
L 742.5 305.270992 
L 754.875 305.280941 
L 767.25 305.304758 
L 779.625 305.295432 
" clip-path="url(#pb74ec36d8c)" style="fill: none; stroke: #000000; stroke-width: 1.5; stroke-linecap: square"/>
   </g>
  </g>
 </g>
 <defs>
  <clipPath id="pb74ec36d8c">
   <rect x="0" y="0" width="792" height="612"/>
  </clipPath>
 </defs>
</svg>
