<?xml version="1.0" encoding="utf-8" standalone="no"?>
<!DOCTYPE svg PUBLIC "-//W3C//DTD SVG 1.1//EN"
  "http://www.w3.org/Graphics/SVG/1.1/DTD/svg11.dtd">
<svg xmlns:xlink="http://www.w3.org/1999/xlink" width="792pt" height="612pt" viewBox="0 0 792 612" xmlns="http://www.w3.org/2000/svg" version="1.1">
 <metadata>
  <rdf:RDF xmlns:dc="http://purl.org/dc/elements/1.1/" xmlns:cc="http://creativecommons.org/ns#" xmlns:rdf="http://www.w3.org/1999/02/22-rdf-syntax-ns#">
   <cc:Work>
    <dc:type rdf:resource="http://purl.org/dc/dcmitype/StillImage"/>
    <dc:date>2023-01-23T15:51:24.656583</dc:date>
    <dc:format>image/svg+xml</dc:format>
    <dc:creator>
     <cc:Agent>
      <dc:title>Matplotlib v3.6.2, https://matplotlib.org/</dc:title>
     </cc:Agent>
    </dc:creator>
   </cc:Work>
  </rdf:RDF>
 </metadata>
 <defs>
  <style type="text/css">*{stroke-linejoin: round; stroke-linecap: butt}</style>
 </defs>
 <g id="figure_1">
  <g id="patch_1">
   <path d="M 0 612 
L 792 612 
L 792 0 
L 0 0 
z
" style="fill: #ffffff"/>
  </g>
  <g id="axes_1">
   <g id="line2d_1">
    <path d="M 0 306 
L 12.774194 302.424455 
L 25.548387 307.08278 
L 38.322581 291.431201 
L 51.096774 301.971266 
L 63.870968 298.975724 
L 76.645161 305.395656 
L 89.419355 300.762855 
L 102.193548 306.604344 
L 114.967742 296.585263 
L 127.741935 306.553982 
L 140.516129 306.226629 
L 153.290323 309.449656 
L 166.064516 311.941978 
L 178.83871 299.730798 
L 191.612903 302.525166 
L 204.387097 301.719502 
L 217.16129 312.671918 
L 229.935484 296.333698 
L 242.709677 301.115293 
L 255.483871 303.406415 
L 268.258065 305.647466 
L 281.032258 305.546742 
L 293.806452 302.046797 
L 306.580645 302.09715 
L 319.354839 308.41733 
L 332.129032 299.906994 
L 344.903226 306.881334 
L 357.677419 306.956876 
L 370.451613 311.514051 
L 383.225806 305.219389 
L 396 299.932165 
L 408.774194 305.345294 
L 421.548387 307.233864 
L 434.322581 309.172697 
L 447.096774 305.773371 
L 459.870968 306.579163 
L 472.645161 304.715774 
L 485.419355 307.838194 
L 498.193548 300.561468 
L 510.967742 302.575522 
L 523.741935 307.787834 
L 536.516129 324.861837 
L 549.290323 311.539224 
L 562.064516 309.248232 
L 574.83871 299.932165 
L 587.612903 303.834467 
L 600.387097 309.172697 
L 613.16129 304.061086 
L 625.935484 304.061086 
L 638.709677 312.042664 
L 651.483871 303.381236 
L 664.258065 306.428077 
L 677.032258 304.338068 
L 689.806452 303.356057 
L 702.580645 309.751787 
L 715.354839 299.479098 
L 728.129032 306.377715 
L 740.903226 302.852481 
L 753.677419 304.841678 
L 766.451613 305.269751 
L 779.225806 305.143847 
" clip-path="url(#p5fdb1d5396)" style="fill: none; stroke: #000000; stroke-width: 1.5; stroke-linecap: square"/>
   </g>
   <g id="line2d_2">
    <path d="M 0 306 
L 12.774194 306 
L 25.548387 303.616243 
L 38.322581 305.597104 
L 51.096774 298.037874 
L 63.870968 300.067765 
L 76.645161 299.513057 
L 89.419355 302.477189 
L 102.193548 301.616626 
L 114.967742 304.111545 
L 127.741935 300.336098 
L 140.516129 303.44374 
L 153.290323 304.864192 
L 166.064516 307.171653 
L 178.83871 309.582456 
L 191.612903 304.64517 
L 204.387097 303.588595 
L 217.16129 302.64444 
L 229.935484 307.690174 
L 242.709677 301.990519 
L 255.483871 301.542876 
L 268.258065 302.462765 
L 281.032258 304.042719 
L 293.806452 304.806129 
L 306.580645 303.425472 
L 319.354839 302.762037 
L 332.129032 305.581304 
L 344.903226 302.750879 
L 357.677419 304.827359 
L 370.451613 305.899078 
L 383.225806 308.718296 
L 396 306.968232 
L 408.774194 303.445714 
L 421.548387 304.401858 
L 434.322581 305.815537 
L 447.096774 307.512331 
L 459.870968 306.640684 
L 472.645161 306.609183 
L 485.419355 305.649144 
L 498.193548 306.748814 
L 510.967742 303.656135 
L 523.741935 303.110389 
L 536.516129 305.450165 
L 549.290323 315.196012 
L 562.064516 313.379181 
L 574.83871 311.319181 
L 587.612903 305.616162 
L 600.387097 304.717453 
L 613.16129 306.962011 
L 625.935484 305.514451 
L 638.709677 304.780454 
L 651.483871 308.386719 
L 664.258065 305.867972 
L 677.032258 306.142495 
L 689.806452 305.248915 
L 702.580645 304.301532 
L 715.354839 307.027876 
L 728.129032 303.244084 
L 740.903226 304.815411 
L 753.677419 303.815903 
L 766.451613 304.331649 
L 779.225806 304.798426 
" clip-path="url(#p5fdb1d5396)" style="fill: none; stroke: #000000; stroke-width: 1.5; stroke-linecap: square"/>
   </g>
   <g id="line2d_3">
    <path d="M 0 306 
L 12.774194 306 
L 25.548387 303.905432 
L 38.322581 305.345016 
L 51.096774 299.907833 
L 63.870968 300.641924 
L 76.645161 300.084148 
L 89.419355 301.790456 
L 102.193548 301.469402 
L 114.967742 303.042796 
L 127.741935 301.089875 
L 140.516129 302.726268 
L 153.290323 303.767726 
L 166.064516 305.450533 
L 178.83871 307.367015 
L 191.612903 305.117745 
L 204.387097 304.355389 
L 217.16129 303.578396 
L 229.935484 306.253873 
L 242.709677 303.335096 
L 255.483871 302.696025 
L 268.258065 302.905739 
L 281.032258 303.716404 
L 293.806452 304.25266 
L 306.580645 303.608024 
L 319.354839 303.160307 
L 332.129032 304.713612 
L 344.903226 303.297979 
L 357.677419 304.348239 
L 370.451613 305.10942 
L 383.225806 306.984971 
L 396 306.474151 
L 408.774194 304.554846 
L 421.548387 304.790526 
L 434.322581 305.499914 
L 447.096774 306.59043 
L 459.870968 306.35647 
L 472.645161 306.42534 
L 485.419355 305.923548 
L 498.193548 306.486973 
L 510.967742 304.749565 
L 523.741935 304.113329 
L 536.516129 305.188835 
L 549.290323 310.986185 
L 562.064516 311.153519 
L 574.83871 310.59814 
L 587.612903 307.460844 
L 600.387097 306.397109 
L 613.16129 307.220702 
L 625.935484 306.293793 
L 638.709677 305.636197 
L 651.483871 307.516122 
L 664.258065 306.302284 
L 677.032258 306.338955 
L 689.806452 305.75247 
L 702.580645 305.045412 
L 715.354839 306.434487 
L 728.129032 304.393469 
L 740.903226 304.973015 
L 753.677419 304.326599 
L 766.451613 304.469768 
L 779.225806 304.699506 
" clip-path="url(#p5fdb1d5396)" style="fill: none; stroke: #000000; stroke-width: 1.5; stroke-linecap: square"/>
   </g>
   <g id="line2d_4">
    <path d="M 0 306 
L 12.774194 306 
L 25.548387 304.057653 
L 38.322581 305.244895 
L 51.096774 300.846257 
L 63.870968 301.155092 
L 76.645161 300.618651 
L 89.419355 301.700105 
L 102.193548 301.501271 
L 114.967742 302.529196 
L 127.741935 301.380075 
L 140.516129 302.346884 
L 153.290323 303.052297 
L 166.064516 304.189666 
L 178.83871 305.542791 
L 191.612903 304.543694 
L 204.387097 304.201115 
L 217.16129 303.784354 
L 229.935484 305.263924 
L 242.709677 303.787759 
L 255.483871 303.34881 
L 268.258065 303.358223 
L 281.032258 303.730666 
L 293.806452 304.025073 
L 306.580645 303.705311 
L 319.354839 303.446029 
L 332.129032 304.245795 
L 344.903226 303.54891 
L 357.677419 304.083266 
L 370.451613 304.543482 
L 383.225806 305.658772 
L 396 305.588538 
L 408.774194 304.68494 
L 421.548387 304.789596 
L 434.322581 305.181486 
L 447.096774 305.817823 
L 459.870968 305.819706 
L 472.645161 305.943413 
L 485.419355 305.751673 
L 498.193548 306.085173 
L 510.967742 305.206117 
L 523.741935 304.785048 
L 536.516129 305.269793 
L 549.290323 308.402154 
L 562.064516 308.904639 
L 574.83871 308.95918 
L 587.612903 307.515394 
L 600.387097 306.932308 
L 613.16129 307.292923 
L 625.935484 306.780188 
L 638.709677 306.342193 
L 651.483871 307.25908 
L 664.258065 306.64351 
L 677.032258 306.611119 
L 689.806452 306.24865 
L 702.580645 305.78705 
L 715.354839 306.422692 
L 728.129032 305.316151 
L 740.903226 305.483777 
L 753.677419 305.066951 
L 766.451613 305.029837 
L 779.225806 305.066955 
" clip-path="url(#p5fdb1d5396)" style="fill: none; stroke: #000000; stroke-width: 1.5; stroke-linecap: square"/>
   </g>
   <g id="line2d_5">
    <path d="M 0 306 
L 12.774194 306 
L 25.548387 304.134765 
L 38.322581 305.203688 
L 51.096774 301.29828 
L 63.870968 301.457145 
L 76.645161 300.949069 
L 89.419355 301.760514 
L 102.193548 301.594904 
L 114.967742 302.36262 
L 127.741935 301.535006 
L 140.516129 302.212859 
L 153.290323 302.728135 
L 166.064516 303.553587 
L 178.83871 304.544397 
L 191.612903 303.995066 
L 204.387097 303.832399 
L 217.16129 303.604864 
L 229.935484 304.557781 
L 242.709677 303.711911 
L 255.483871 303.450104 
L 268.258065 303.445776 
L 281.032258 303.660405 
L 293.806452 303.841667 
L 306.580645 303.671411 
L 319.354839 303.523832 
L 332.129032 303.977662 
L 344.903226 303.603723 
L 357.677419 303.902115 
L 370.451613 304.178002 
L 383.225806 304.835791 
L 396 304.869957 
L 408.774194 304.432758 
L 421.548387 304.513098 
L 434.322581 304.751434 
L 447.096774 305.136967 
L 459.870968 305.192228 
L 472.645161 305.312199 
L 485.419355 305.260788 
L 498.193548 305.48225 
L 510.967742 305.060624 
L 523.741935 304.848276 
L 536.516129 305.098831 
L 549.290323 306.781614 
L 562.064516 307.185446 
L 574.83871 307.360196 
L 587.612903 306.731967 
L 600.387097 306.487315 
L 613.16129 306.713738 
L 625.935484 306.490377 
L 638.709677 306.286069 
L 651.483871 306.769734 
L 664.258065 306.485356 
L 677.032258 306.480554 
L 689.806452 306.301067 
L 702.580645 306.054538 
L 715.354839 306.363826 
L 728.129032 305.788216 
L 740.903226 305.837466 
L 753.677419 305.588214 
L 766.451613 305.52591 
L 779.225806 305.504541 
" clip-path="url(#p5fdb1d5396)" style="fill: none; stroke: #000000; stroke-width: 1.5; stroke-linecap: square"/>
   </g>
   <g id="line2d_6">
    <path d="M 0 306 
L 12.774194 306 
L 25.548387 304.173447 
L 38.322581 305.185517 
L 51.096774 301.517753 
L 63.870968 301.616478 
L 76.645161 301.127286 
L 89.419355 301.818998 
L 102.193548 301.666113 
L 114.967742 302.314484 
L 127.741935 301.623386 
L 140.516129 302.174777 
L 153.290323 302.598485 
L 166.064516 303.273 
L 178.83871 304.081252 
L 191.612903 303.695216 
L 204.387097 303.596001 
L 217.16129 303.443349 
L 229.935484 304.165952 
L 242.709677 303.573762 
L 255.483871 303.3939 
L 268.258065 303.394788 
L 281.032258 303.550216 
L 293.806452 303.684401 
L 306.580645 303.576995 
L 319.354839 303.482136 
L 332.129032 303.791741 
L 344.903226 303.552851 
L 357.677419 303.753663 
L 370.451613 303.943514 
L 383.225806 304.384802 
L 396 304.432687 
L 408.774194 304.17824 
L 421.548387 304.243292 
L 434.322581 304.407792 
L 447.096774 304.666633 
L 459.870968 304.726044 
L 472.645161 304.824412 
L 485.419355 304.818706 
L 498.193548 304.975704 
L 510.967742 304.748341 
L 523.741935 304.637444 
L 536.516129 304.796849 
L 549.290323 305.805055 
L 562.064516 306.090644 
L 574.83871 306.24674 
L 587.612903 305.936731 
L 600.387097 305.834219 
L 613.16129 305.995985 
L 625.935484 305.902796 
L 638.709677 305.814603 
L 651.483871 306.111247 
L 664.258065 305.981905 
L 677.032258 306.002939 
L 689.806452 305.924824 
L 702.580645 305.804839 
L 715.354839 305.98841 
L 728.129032 305.686872 
L 740.903226 305.718745 
L 753.677419 305.586994 
L 766.451613 305.552858 
L 779.225806 305.539935 
" clip-path="url(#p5fdb1d5396)" style="fill: none; stroke: #000000; stroke-width: 1.5; stroke-linecap: square"/>
   </g>
   <g id="line2d_7">
    <path d="M 0 306 
L 12.774194 306 
L 25.548387 304.192805 
L 38.322581 305.17706 
L 51.096774 301.625598 
L 63.870968 301.697757 
L 76.645161 301.219106 
L 89.419355 301.855142 
L 102.193548 301.708027 
L 114.967742 302.300308 
L 127.741935 301.67131 
L 140.516129 302.164746 
L 153.290323 302.544964 
L 166.064516 303.147788 
L 178.83871 303.868186 
L 191.612903 303.548554 
L 204.387097 303.473682 
L 217.16129 303.351652 
L 229.935484 303.970245 
L 242.709677 303.485054 
L 255.483871 303.340611 
L 268.258065 303.344469 
L 281.032258 303.474646 
L 293.806452 303.587801 
L 306.580645 303.506344 
L 319.354839 303.434126 
L 332.129032 303.682091 
L 344.903226 303.499384 
L 357.677419 303.658737 
L 370.451613 303.810248 
L 383.225806 304.155709 
L 396 304.202314 
L 408.774194 304.019287 
L 421.548387 304.07492 
L 434.322581 304.20479 
L 447.096774 304.405091 
L 459.870968 304.459235 
L 472.645161 304.541628 
L 485.419355 304.54828 
L 498.193548 304.671881 
L 510.967742 304.519888 
L 523.741935 304.449096 
L 536.516129 304.568855 
L 549.290323 305.287239 
L 562.064516 305.505288 
L 574.83871 305.63409 
L 587.612903 305.44037 
L 600.387097 305.386493 
L 613.16129 305.511999 
L 625.935484 305.464461 
L 638.709677 305.418997 
L 651.483871 305.631274 
L 664.258065 305.559928 
L 677.032258 305.587175 
L 689.806452 305.548358 
L 702.580645 305.480879 
L 715.354839 305.611121 
L 728.129032 305.425783 
L 740.903226 305.454299 
L 753.677419 305.377014 
L 766.451613 305.361243 
L 779.225806 305.358569 
" clip-path="url(#p5fdb1d5396)" style="fill: none; stroke: #000000; stroke-width: 1.5; stroke-linecap: square"/>
   </g>
   <g id="line2d_8">
    <path d="M 0 306 
L 12.774194 306 
L 25.548387 304.202485 
L 38.322581 305.17299 
L 51.096774 301.679017 
L 63.870968 301.738739 
L 76.645161 301.265617 
L 89.419355 301.874892 
L 102.193548 301.730555 
L 114.967742 302.295778 
L 127.741935 301.696305 
L 140.516129 302.162157 
L 153.290323 302.521367 
L 166.064516 303.08959 
L 178.83871 303.767391 
L 191.612903 303.477365 
L 204.387097 303.412895 
L 217.16129 303.304415 
L 229.935484 303.874148 
L 242.709677 303.437261 
L 255.483871 303.308821 
L 268.258065 303.313989 
L 281.032258 303.432545 
L 293.806452 303.535826 
L 306.580645 303.465748 
L 319.354839 303.403593 
L 332.129032 303.623649 
L 344.903226 303.465724 
L 357.677419 303.60637 
L 370.451613 303.740264 
L 383.225806 304.042136 
L 396 304.086601 
L 408.774194 303.933787 
L 421.548387 303.984383 
L 434.322581 304.09801 
L 447.096774 304.271272 
L 459.870968 304.321386 
L 472.645161 304.395046 
L 485.419355 304.405287 
L 498.193548 304.512621 
L 510.967742 304.391548 
L 523.741935 304.336989 
L 536.516129 304.438697 
L 549.290323 305.03028 
L 562.064516 305.215259 
L 574.83871 305.327879 
L 587.612903 305.179729 
L 600.387097 305.143402 
L 613.16129 305.250469 
L 625.935484 305.219356 
L 638.709677 305.189517 
L 651.483871 305.363478 
L 664.258065 305.313889 
L 677.032258 305.34137 
L 689.806452 305.316963 
L 702.580645 305.269897 
L 715.354839 305.376068 
L 728.129032 305.23814 
L 740.903226 305.264458 
L 753.677419 305.20943 
L 766.451613 305.20114 
L 779.225806 305.202669 
" clip-path="url(#p5fdb1d5396)" style="fill: none; stroke: #000000; stroke-width: 1.5; stroke-linecap: square"/>
   </g>
   <g id="line2d_9">
    <path d="M 0 306 
L 12.774194 306 
L 25.548387 304.207326 
L 38.322581 305.170996 
L 51.096774 301.705598 
L 63.870968 301.759308 
L 76.645161 301.289012 
L 89.419355 301.885179 
L 102.193548 301.742208 
L 114.967742 302.294159 
L 127.741935 301.709072 
L 140.516129 302.161487 
L 153.290323 302.510396 
L 166.064516 303.061663 
L 178.83871 303.718553 
L 191.612903 303.442467 
L 204.387097 303.382776 
L 217.16129 303.280635 
L 229.935484 303.826765 
L 242.709677 303.412728 
L 255.483871 303.291841 
L 268.258065 303.297598 
L 281.032258 303.410588 
L 293.806452 303.509097 
L 306.580645 303.444295 
L 319.354839 303.386833 
L 332.129032 303.593684 
L 344.903226 303.447291 
L 357.677419 303.579105 
L 370.451613 303.704619 
L 383.225806 303.985897 
L 396 304.029003 
L 408.774194 303.889921 
L 421.548387 303.937949 
L 434.322581 304.043796 
L 447.096774 304.204225 
L 459.870968 304.252068 
L 472.645161 304.321284 
L 485.419355 304.332739 
L 498.193548 304.432177 
L 510.967742 304.324829 
L 523.741935 304.277378 
L 536.516129 304.370571 
L 549.290323 304.903914 
L 562.064516 305.072951 
L 574.83871 305.177218 
L 587.612903 305.048735 
L 600.387097 305.019551 
L 613.16129 305.117543 
L 625.935484 305.093061 
L 638.709677 305.069565 
L 651.483871 305.225634 
L 664.258065 305.185046 
L 677.032258 305.211953 
L 689.806452 305.193339 
L 702.580645 305.154816 
L 715.354839 305.249726 
L 728.129032 305.132358 
L 740.903226 305.15731 
L 753.677419 305.111795 
L 766.451613 305.106536 
L 779.225806 305.109669 
" clip-path="url(#p5fdb1d5396)" style="fill: none; stroke: #000000; stroke-width: 1.5; stroke-linecap: square"/>
   </g>
  </g>
 </g>
 <defs>
  <clipPath id="p5fdb1d5396">
   <rect x="0" y="0" width="792" height="612"/>
  </clipPath>
 </defs>
</svg>
