<?xml version="1.0" encoding="utf-8" standalone="no"?>
<!DOCTYPE svg PUBLIC "-//W3C//DTD SVG 1.1//EN"
  "http://www.w3.org/Graphics/SVG/1.1/DTD/svg11.dtd">
<svg xmlns:xlink="http://www.w3.org/1999/xlink" width="792pt" height="612pt" viewBox="0 0 792 612" xmlns="http://www.w3.org/2000/svg" version="1.1">
 <metadata>
  <rdf:RDF xmlns:dc="http://purl.org/dc/elements/1.1/" xmlns:cc="http://creativecommons.org/ns#" xmlns:rdf="http://www.w3.org/1999/02/22-rdf-syntax-ns#">
   <cc:Work>
    <dc:type rdf:resource="http://purl.org/dc/dcmitype/StillImage"/>
    <dc:date>2023-01-30T16:21:23.419757</dc:date>
    <dc:format>image/svg+xml</dc:format>
    <dc:creator>
     <cc:Agent>
      <dc:title>Matplotlib v3.6.2, https://matplotlib.org/</dc:title>
     </cc:Agent>
    </dc:creator>
   </cc:Work>
  </rdf:RDF>
 </metadata>
 <defs>
  <style type="text/css">*{stroke-linejoin: round; stroke-linecap: butt}</style>
 </defs>
 <g id="figure_1">
  <g id="patch_1">
   <path d="M 0 612 
L 792 612 
L 792 0 
L 0 0 
z
" style="fill: #ffffff"/>
  </g>
  <g id="axes_1">
   <g id="line2d_1">
    <path d="M 0 459 
L 12.774194 453.636683 
L 25.548387 455.260698 
L 38.322581 433.417422 
L 51.096774 427.397511 
L 63.870968 416.927592 
L 76.645161 416.028855 
L 89.419355 408.254446 
L 102.193548 409.150077 
L 114.967742 395.241022 
L 127.741935 396.056166 
L 140.516129 396.389751 
L 153.290323 401.475777 
L 166.064516 410.270157 
L 178.83871 400.992524 
L 191.612903 395.87087 
L 204.387097 389.583676 
L 217.16129 399.395009 
L 229.935484 385.198299 
L 242.709677 378.078937 
L 255.483871 374.315101 
L 268.258065 373.804408 
L 281.032258 373.148125 
L 293.806452 367.439564 
L 306.580645 361.832506 
L 319.354839 365.301805 
L 332.129032 356.578609 
L 344.903226 357.835593 
L 357.677419 359.202126 
L 370.451613 367.113195 
L 383.225806 365.989778 
L 396 357.296689 
L 408.774194 356.363287 
L 421.548387 358.123128 
L 434.322581 362.662651 
L 447.096774 362.337733 
L 459.870968 363.16828 
L 472.645161 361.327525 
L 485.419355 363.963331 
L 498.193548 356.183889 
L 510.967742 351.317112 
L 523.741935 353.85474 
L 536.516129 381.046784 
L 549.290323 389.14085 
L 562.064516 393.908036 
L 574.83871 385.014336 
L 587.612903 381.854038 
L 600.387097 386.486719 
L 613.16129 383.653771 
L 625.935484 380.82671 
L 638.709677 389.657493 
L 651.483871 385.823956 
L 664.258065 386.449891 
L 677.032258 384.021358 
L 689.806452 380.16671 
L 702.580645 385.63991 
L 715.354839 376.140768 
L 728.129032 376.689 
L 740.903226 372.127962 
L 753.677419 370.453916 
L 766.451613 369.399792 
L 779.225806 368.165173 
" clip-path="url(#p8cad8526a0)" style="fill: none; stroke: #000000; stroke-width: 1.5; stroke-linecap: square"/>
   </g>
   <g id="line2d_2">
    <path d="M 0 459 
L 12.774194 459 
L 25.548387 455.424365 
L 38.322581 455.330841 
L 51.096774 443.635236 
L 63.870968 435.247086 
L 76.645161 425.92875 
L 89.419355 420.935372 
L 102.193548 414.561488 
L 114.967742 411.757033 
L 127.741935 403.367166 
L 140.516129 399.592926 
L 153.290323 397.918558 
L 166.064516 399.645795 
L 178.83871 404.937634 
L 191.612903 402.934627 
L 204.387097 399.374913 
L 217.16129 394.433547 
L 229.935484 396.920574 
L 242.709677 391.026811 
L 255.483871 384.501821 
L 268.258065 379.345415 
L 281.032258 376.501069 
L 293.806452 374.769328 
L 306.580645 371.043337 
L 319.354839 366.374211 
L 332.129032 365.771908 
L 344.903226 361.109343 
L 357.677419 359.431757 
L 370.451613 359.287508 
L 383.225806 363.180039 
L 396 364.570012 
L 408.774194 360.907038 
L 421.548387 358.621861 
L 434.322581 358.358434 
L 447.096774 360.520213 
L 459.870968 361.437412 
L 472.645161 362.310271 
L 485.419355 361.807463 
L 498.193548 362.880877 
L 510.967742 359.52464 
L 523.741935 355.402241 
L 536.516129 354.61982 
L 549.290323 367.7905 
L 562.064516 378.473391 
L 574.83871 386.230241 
L 587.612903 385.669067 
L 600.387097 383.795605 
L 613.16129 385.200608 
L 625.935484 384.491293 
L 638.709677 382.711329 
L 651.483871 386.197029 
L 664.258065 386.003983 
L 677.032258 386.212335 
L 689.806452 385.114467 
L 702.580645 382.634994 
L 715.354839 384.13497 
L 728.129032 380.116972 
L 740.903226 378.393715 
L 753.677419 375.22258 
L 766.451613 372.805829 
L 779.225806 371.068307 
" clip-path="url(#p8cad8526a0)" style="fill: none; stroke: #000000; stroke-width: 1.5; stroke-linecap: square"/>
   </g>
   <g id="line2d_3">
    <path d="M 0 459 
L 12.774194 459 
L 25.548387 455.858147 
L 38.322581 455.587453 
L 51.096774 446.921903 
L 63.870968 439.96666 
L 76.645161 432.238156 
L 89.419355 427.020964 
L 102.193548 421.143377 
L 114.967742 417.461888 
L 127.741935 410.717926 
L 140.516129 406.314681 
L 153.290323 403.355934 
L 166.064516 402.798896 
L 178.83871 405.00145 
L 191.612903 403.819843 
L 204.387097 401.478801 
L 217.16129 397.906984 
L 229.935484 398.281088 
L 242.709677 394.358202 
L 255.483871 389.507909 
L 268.258065 384.979838 
L 281.032258 381.647536 
L 293.806452 379.103411 
L 306.580645 375.628887 
L 319.354839 371.516808 
L 332.129032 369.65881 
L 344.903226 365.766022 
L 357.677419 363.393208 
L 370.451613 362.11607 
L 383.225806 363.52866 
L 396 364.209335 
L 408.774194 362.136078 
L 421.548387 360.404107 
L 434.322581 359.688842 
L 447.096774 360.53338 
L 459.870968 361.043605 
L 472.645161 361.652737 
L 485.419355 361.543223 
L 498.193548 362.240987 
L 510.967742 360.450229 
L 523.741935 357.75425 
L 536.516129 356.59738 
L 549.290323 363.73032 
L 562.064516 371.15352 
L 574.83871 377.817257 
L 587.612903 379.941769 
L 600.387097 380.51989 
L 613.16129 382.298627 
L 625.935484 382.72708 
L 638.709677 382.196548 
L 651.483871 384.408892 
L 664.258065 384.850415 
L 677.032258 385.345668 
L 689.806452 384.98398 
L 702.580645 383.590034 
L 715.354839 384.224321 
L 728.129032 381.880484 
L 740.903226 380.384337 
L 753.677419 377.95015 
L 766.451613 375.728334 
L 779.225806 373.843251 
" clip-path="url(#p8cad8526a0)" style="fill: none; stroke: #000000; stroke-width: 1.5; stroke-linecap: square"/>
   </g>
   <g id="line2d_4">
    <path d="M 0 459 
L 12.774194 459 
L 25.548387 456.086479 
L 38.322581 455.762387 
L 51.096774 448.645335 
L 63.870968 442.803902 
L 76.645161 436.419244 
L 89.419355 431.791739 
L 102.193548 426.782304 
L 114.967742 423.22081 
L 127.741935 417.785623 
L 140.516129 413.70752 
L 153.290323 410.547379 
L 166.064516 408.931512 
L 178.83871 409.165084 
L 191.612903 407.757969 
L 204.387097 405.735235 
L 217.16129 403.012411 
L 229.935484 402.409755 
L 242.709677 399.553112 
L 255.483871 396.005384 
L 268.258065 392.438823 
L 281.032258 389.389963 
L 293.806452 386.74359 
L 306.580645 383.603718 
L 319.354839 380.067218 
L 332.129032 377.679463 
L 344.903226 374.264131 
L 357.677419 371.613294 
L 370.451613 369.616101 
L 383.225806 369.215292 
L 396 368.699077 
L 408.774194 366.869588 
L 421.548387 365.128512 
L 434.322581 363.952736 
L 447.096774 363.69122 
L 459.870968 363.432471 
L 472.645161 363.351274 
L 485.419355 362.995018 
L 498.193548 363.117196 
L 510.967742 361.978952 
L 523.741935 360.239409 
L 536.516129 359.195342 
L 549.290323 362.634083 
L 562.064516 366.807312 
L 574.83871 371.0753 
L 587.612903 373.267061 
L 600.387097 374.617503 
L 613.16129 376.492798 
L 625.935484 377.625785 
L 638.709677 378.12304 
L 651.483871 379.954351 
L 664.258065 380.891329 
L 677.032258 381.781765 
L 689.806452 382.144233 
L 702.580645 381.8338 
L 715.354839 382.450061 
L 728.129032 381.45319 
L 740.903226 380.701171 
L 753.677419 379.343032 
L 766.451613 377.932391 
L 779.225806 376.577212 
" clip-path="url(#p8cad8526a0)" style="fill: none; stroke: #000000; stroke-width: 1.5; stroke-linecap: square"/>
   </g>
   <g id="line2d_5">
    <path d="M 0 459 
L 12.774194 459 
L 25.548387 456.202147 
L 38.322581 455.86078 
L 51.096774 449.4949 
L 63.870968 444.270668 
L 76.645161 438.657844 
L 89.419355 434.51714 
L 102.193548 430.141889 
L 114.967742 426.91434 
L 127.741935 422.352341 
L 140.516129 418.782287 
L 153.290323 415.894212 
L 166.064516 414.118213 
L 178.83871 413.663375 
L 191.612903 412.213676 
L 204.387097 410.398463 
L 217.16129 408.14575 
L 229.935484 407.224275 
L 242.709677 404.946651 
L 255.483871 402.217542 
L 268.258065 399.431015 
L 281.032258 396.91329 
L 293.806452 394.61261 
L 306.580645 392.012075 
L 319.354839 389.153298 
L 332.129032 386.922716 
L 344.903226 384.104059 
L 357.677419 381.688644 
L 370.451613 379.640181 
L 383.225806 378.511718 
L 396 377.3911 
L 408.774194 375.597801 
L 421.548387 373.891033 
L 434.322581 372.500813 
L 447.096774 371.639507 
L 459.870968 370.82872 
L 472.645161 370.163992 
L 485.419355 369.399488 
L 498.193548 368.931339 
L 510.967742 367.833228 
L 523.741935 366.411679 
L 536.516129 365.335423 
L 549.290323 366.663302 
L 562.064516 368.554846 
L 574.83871 370.682824 
L 587.612903 371.888334 
L 600.387097 372.726644 
L 613.16129 373.880995 
L 625.935484 374.700947 
L 638.709677 375.214968 
L 651.483871 376.422108 
L 664.258065 377.208514 
L 677.032258 377.98085 
L 689.806452 378.48581 
L 702.580645 378.626432 
L 715.354839 379.211674 
L 728.129032 378.954675 
L 740.903226 378.765234 
L 753.677419 378.20966 
L 766.451613 377.560497 
L 779.225806 376.877628 
" clip-path="url(#p8cad8526a0)" style="fill: none; stroke: #000000; stroke-width: 1.5; stroke-linecap: square"/>
   </g>
   <g id="line2d_6">
    <path d="M 0 459 
L 12.774194 459 
L 25.548387 456.260171 
L 38.322581 455.912478 
L 51.096774 449.912247 
L 63.870968 445.003461 
L 76.645161 439.788901 
L 89.419355 435.927588 
L 102.193548 431.906598 
L 114.967742 428.908325 
L 127.741935 424.823743 
L 140.516129 421.588532 
L 153.290323 418.939856 
L 166.064516 417.214326 
L 178.83871 416.566044 
L 191.612903 415.179803 
L 204.387097 413.535447 
L 217.16129 411.575888 
L 229.935484 410.619511 
L 242.709677 408.685548 
L 255.483871 406.42762 
L 268.258065 404.127326 
L 281.032258 402.016128 
L 293.806452 400.058706 
L 306.580645 397.896873 
L 319.354839 395.556868 
L 332.129032 393.63917 
L 344.903226 391.329752 
L 357.677419 389.28394 
L 370.451613 387.480952 
L 383.225806 386.284958 
L 396 385.111754 
L 408.774194 383.522313 
L 421.548387 381.992084 
L 434.322581 380.666602 
L 447.096774 379.681629 
L 459.870968 378.744127 
L 472.645161 377.912153 
L 485.419355 377.035218 
L 498.193548 376.351942 
L 510.967742 375.304421 
L 523.741935 374.067414 
L 536.516129 373.035687 
L 549.290323 373.436497 
L 562.064516 374.214006 
L 574.83871 375.180641 
L 587.612903 375.661586 
L 600.387097 375.962834 
L 613.16129 376.470774 
L 625.935484 376.815794 
L 638.709677 377.00757 
L 651.483871 377.607269 
L 664.258065 377.99538 
L 677.032258 378.392718 
L 689.806452 378.656265 
L 702.580645 378.726775 
L 715.354839 379.047482 
L 728.129032 378.912703 
L 740.903226 378.810024 
L 753.677419 378.502094 
L 766.451613 378.13232 
L 779.225806 377.732348 
" clip-path="url(#p8cad8526a0)" style="fill: none; stroke: #000000; stroke-width: 1.5; stroke-linecap: square"/>
   </g>
   <g id="line2d_7">
    <path d="M 0 459 
L 12.774194 459 
L 25.548387 456.289207 
L 38.322581 455.938915 
L 51.096774 450.118527 
L 63.870968 445.36804 
L 76.645161 440.353766 
L 89.419355 436.638734 
L 102.193548 432.801088 
L 114.967742 429.929854 
L 127.741935 426.089456 
L 140.516129 423.036649 
L 153.290323 420.528857 
L 166.064516 418.858984 
L 178.83871 418.154278 
L 191.612903 416.823908 
L 204.387097 415.283868 
L 217.16129 413.485212 
L 229.935484 412.5471 
L 242.709677 410.798012 
L 255.483871 408.786062 
L 268.258065 406.745081 
L 281.032258 404.86501 
L 293.806452 403.116386 
L 306.580645 401.209283 
L 319.354839 399.164854 
L 332.129032 397.460679 
L 344.903226 395.45355 
L 357.677419 393.656934 
L 370.451613 392.054222 
L 383.225806 390.925943 
L 396 389.823531 
L 408.774194 388.412304 
L 421.548387 387.050939 
L 434.322581 385.848265 
L 447.096774 384.905114 
L 459.870968 384.004265 
L 472.645161 383.187869 
L 485.419355 382.345569 
L 498.193548 381.649944 
L 510.967742 380.69852 
L 523.741935 379.615497 
L 536.516129 378.681394 
L 549.290323 378.764959 
L 562.064516 379.125449 
L 574.83871 379.631492 
L 587.612903 379.813986 
L 600.387097 379.882376 
L 613.16129 380.100768 
L 625.935484 380.217025 
L 638.709677 380.236772 
L 651.483871 380.537643 
L 664.258065 380.70494 
L 677.032258 380.884874 
L 689.806452 380.982232 
L 702.580645 380.957123 
L 715.354839 381.099678 
L 728.129032 380.949539 
L 740.903226 380.821703 
L 753.677419 380.562604 
L 766.451613 380.263632 
L 779.225806 379.944782 
" clip-path="url(#p8cad8526a0)" style="fill: none; stroke: #000000; stroke-width: 1.5; stroke-linecap: square"/>
   </g>
   <g id="line2d_8">
    <path d="M 0 459 
L 12.774194 459 
L 25.548387 456.303728 
L 38.322581 455.952276 
L 51.096774 450.221005 
L 63.870968 445.549666 
L 76.645161 440.635572 
L 89.419355 436.994988 
L 102.193548 433.250115 
L 114.967742 430.444974 
L 127.741935 426.727293 
L 140.516129 423.768516 
L 153.290323 421.33548 
L 166.064516 419.700182 
L 178.83871 418.976884 
L 191.612903 417.680094 
L 204.387097 416.196417 
L 217.16129 414.480959 
L 229.935484 413.560361 
L 242.709677 411.905898 
L 255.483871 410.017768 
L 268.258065 408.108082 
L 281.032258 406.347746 
L 293.806452 404.70979 
L 306.580645 402.935299 
L 319.354839 401.043377 
L 332.129032 399.456083 
L 344.903226 397.606959 
L 357.677419 395.946043 
L 370.451613 394.458254 
L 383.225806 393.386292 
L 396 392.341443 
L 408.774194 391.035646 
L 421.548387 389.776374 
L 434.322581 388.65611 
L 447.096774 387.759917 
L 459.870968 386.903537 
L 472.645161 386.122118 
L 485.419355 385.322839 
L 498.193548 384.64948 
L 510.967742 383.767302 
L 523.741935 382.779263 
L 536.516129 381.916511 
L 549.290323 381.891339 
L 562.064516 382.09682 
L 574.83871 382.425297 
L 587.612903 382.496309 
L 600.387097 382.478962 
L 613.16129 382.585301 
L 625.935484 382.61324 
L 638.709677 382.567186 
L 651.483871 382.746699 
L 664.258065 382.823595 
L 677.032258 382.912921 
L 689.806452 382.939874 
L 702.580645 382.873247 
L 715.354839 382.938719 
L 728.129032 382.779338 
L 740.903226 382.638363 
L 753.677419 382.397618 
L 766.451613 382.127138 
L 779.225806 381.842167 
" clip-path="url(#p8cad8526a0)" style="fill: none; stroke: #000000; stroke-width: 1.5; stroke-linecap: square"/>
   </g>
   <g id="line2d_9">
    <path d="M 0 459 
L 12.774194 459 
L 25.548387 456.310989 
L 38.322581 455.958991 
L 51.096774 450.272071 
L 63.870968 445.640288 
L 76.645161 440.776262 
L 89.419355 437.173184 
L 102.193548 433.474912 
L 114.967742 430.703391 
L 127.741935 427.047125 
L 140.516129 424.135944 
L 153.290323 421.741221 
L 166.064516 420.124759 
L 178.83871 419.394463 
L 191.612903 418.115776 
L 204.387097 416.661217 
L 217.16129 414.987887 
L 229.935484 414.077994 
L 242.709677 412.471189 
L 255.483871 410.644889 
L 268.258065 408.800879 
L 281.032258 407.100996 
L 293.806452 405.519424 
L 306.580645 403.811942 
L 319.354839 401.996727 
L 332.129032 400.46963 
L 344.903226 398.700317 
L 357.677419 397.109052 
L 370.451613 395.681414 
L 383.225806 394.64231 
L 396 393.630905 
L 408.774194 392.380936 
L 421.548387 391.176122 
L 434.322581 390.101333 
L 447.096774 389.234256 
L 459.870968 388.405837 
L 472.645161 387.647985 
L 485.419355 386.87596 
L 498.193548 386.220297 
L 510.967742 385.377381 
L 523.741935 384.440544 
L 536.516129 383.618364 
L 549.290323 383.551445 
L 562.064516 383.693548 
L 574.83871 383.947739 
L 587.612903 383.973853 
L 600.387097 383.922867 
L 613.16129 383.983304 
L 625.935484 383.975667 
L 638.709677 383.90389 
L 651.483871 384.032393 
L 664.258065 384.071793 
L 677.032258 384.123226 
L 689.806452 384.121057 
L 702.580645 384.038027 
L 715.354839 384.07108 
L 728.129032 383.909337 
L 740.903226 383.764281 
L 753.677419 383.533478 
L 766.451613 383.277565 
L 779.225806 383.009708 
" clip-path="url(#p8cad8526a0)" style="fill: none; stroke: #000000; stroke-width: 1.5; stroke-linecap: square"/>
   </g>
  </g>
 </g>
 <defs>
  <clipPath id="p8cad8526a0">
   <rect x="0" y="0" width="792" height="612"/>
  </clipPath>
 </defs>
</svg>
