<?xml version="1.0" encoding="utf-8" standalone="no"?>
<!DOCTYPE svg PUBLIC "-//W3C//DTD SVG 1.1//EN"
  "http://www.w3.org/Graphics/SVG/1.1/DTD/svg11.dtd">
<svg xmlns:xlink="http://www.w3.org/1999/xlink" width="792pt" height="612pt" viewBox="0 0 792 612" xmlns="http://www.w3.org/2000/svg" version="1.1">
 <metadata>
  <rdf:RDF xmlns:dc="http://purl.org/dc/elements/1.1/" xmlns:cc="http://creativecommons.org/ns#" xmlns:rdf="http://www.w3.org/1999/02/22-rdf-syntax-ns#">
   <cc:Work>
    <dc:type rdf:resource="http://purl.org/dc/dcmitype/StillImage"/>
    <dc:date>2023-01-30T17:16:53.582210</dc:date>
    <dc:format>image/svg+xml</dc:format>
    <dc:creator>
     <cc:Agent>
      <dc:title>Matplotlib v3.6.2, https://matplotlib.org/</dc:title>
     </cc:Agent>
    </dc:creator>
   </cc:Work>
  </rdf:RDF>
 </metadata>
 <defs>
  <style type="text/css">*{stroke-linejoin: round; stroke-linecap: butt}</style>
 </defs>
 <g id="figure_1">
  <g id="patch_1">
   <path d="M 0 612 
L 792 612 
L 792 0 
L 0 0 
z
" style="fill: #ffffff"/>
  </g>
  <g id="axes_1">
   <g id="line2d_1">
    <path d="M 0 306 
L 12.983607 305.44653 
L 25.967213 301.203649 
L 38.95082 306.55347 
L 51.934426 297.377368 
L 64.918033 306.507347 
L 77.901639 306.207551 
L 90.885246 309.159282 
L 103.868852 311.441886 
L 116.852459 300.258418 
L 129.836066 302.817659 
L 142.819672 302.079798 
L 155.803279 312.110424 
L 168.786885 297.146943 
L 181.770492 301.526432 
L 194.754098 303.624737 
L 207.737705 305.677142 
L 220.721311 305.584897 
L 233.704918 302.379549 
L 246.688525 302.425666 
L 259.672131 308.213843 
L 272.655738 300.419791 
L 285.639344 306.807143 
L 298.622951 306.876326 
L 311.606557 311.04996 
L 324.590164 305.285102 
L 337.57377 300.442845 
L 350.557377 305.400408 
L 363.540984 307.129997 
L 376.52459 308.905633 
L 389.508197 305.792449 
L 402.491803 306.530409 
L 415.47541 304.823881 
L 428.459016 307.683456 
L 441.442623 301.019205 
L 454.42623 302.863777 
L 467.409836 307.637335 
L 480.393443 323.277557 
L 493.377049 311.073015 
L 506.360656 308.97481 
L 519.344262 300.442845 
L 532.327869 304.016758 
L 545.311475 308.905633 
L 558.295082 304.224302 
L 571.278689 304.224302 
L 584.262295 311.534101 
L 597.245902 303.601677 
L 610.229508 306.392041 
L 623.213115 304.477969 
L 636.196721 303.578617 
L 649.180328 309.435985 
L 662.163934 300.027889 
L 675.147541 306.345919 
L 688.131148 303.117426 
L 701.114754 304.939186 
L 714.098361 305.331224 
L 727.081967 305.215919 
L 740.065574 307.614274 
L 753.04918 317.018521 
L 766.032787 305.515714 
L 779.016393 304.662455 
" clip-path="url(#p53b49544ba)" style="fill: none; stroke: #000000; stroke-width: 1.5; stroke-linecap: square"/>
   </g>
   <g id="line2d_2">
    <path d="M 0 306 
L 12.983607 306 
L 25.967213 305.63102 
L 38.95082 303.100956 
L 51.934426 304.942261 
L 64.918033 301.037055 
L 77.901639 303.815439 
L 90.885246 305.020898 
L 103.868852 307.098254 
L 116.852459 309.280905 
L 129.836066 304.75922 
L 142.819672 303.791583 
L 155.803279 302.926895 
L 168.786885 307.547895 
L 181.770492 302.328008 
L 194.754098 301.918036 
L 207.737705 302.76051 
L 220.721311 304.207482 
L 233.704918 304.906629 
L 246.688525 303.64219 
L 259.672131 303.034594 
L 272.655738 305.61655 
L 285.639344 303.024376 
L 298.622951 304.926073 
L 311.606557 305.907574 
L 324.590164 308.489477 
L 337.57377 306.886726 
L 350.557377 303.660728 
L 363.540984 304.536389 
L 376.52459 305.831065 
L 389.508197 307.385023 
L 402.491803 306.58675 
L 415.47541 306.557901 
L 428.459016 305.67868 
L 441.442623 306.685778 
L 454.42623 303.853438 
L 467.409836 303.353627 
L 480.393443 305.496451 
L 493.377049 314.42229 
L 506.360656 312.758204 
L 519.344262 310.871485 
L 532.327869 305.648474 
L 545.311475 304.825418 
L 558.295082 306.881029 
L 571.278689 305.555325 
L 584.262295 304.883116 
L 597.245902 308.18581 
L 610.229508 305.879087 
L 623.213115 306.1305 
L 636.196721 305.312142 
L 649.180328 304.444508 
L 662.163934 306.941349 
L 675.147541 303.476069 
L 688.131148 304.91513 
L 701.114754 303.999757 
L 714.098361 304.47209 
L 727.081967 304.899575 
L 740.065574 305.059194 
L 753.04918 306.344653 
L 766.032787 311.698188 
L 779.016393 308.617978 
" clip-path="url(#p53b49544ba)" style="fill: none; stroke: #000000; stroke-width: 1.5; stroke-linecap: square"/>
   </g>
   <g id="line2d_3">
    <path d="M 0 306 
L 12.983607 306 
L 25.967213 305.675785 
L 38.95082 303.649409 
L 51.934426 304.783494 
L 64.918033 302.147868 
L 77.901639 303.607052 
L 90.885246 304.442551 
L 103.868852 305.916175 
L 116.852459 307.609613 
L 129.836066 305.386849 
L 142.819672 304.617322 
L 155.803279 303.862266 
L 168.786885 306.305301 
L 181.770492 303.601078 
L 194.754098 302.990022 
L 207.737705 303.176652 
L 220.721311 303.908634 
L 233.704918 304.39975 
L 246.688525 303.809376 
L 259.672131 303.399344 
L 272.655738 304.8219 
L 285.639344 303.525428 
L 298.622951 304.487283 
L 311.606557 305.184389 
L 324.590164 306.902055 
L 337.57377 306.434236 
L 350.557377 304.676499 
L 363.540984 304.89234 
L 376.52459 305.542012 
L 389.508197 306.540727 
L 402.491803 306.326462 
L 415.47541 306.389534 
L 428.459016 305.929983 
L 441.442623 306.445979 
L 454.42623 304.854828 
L 467.409836 304.272148 
L 480.393443 305.257119 
L 493.377049 310.566508 
L 506.360656 310.719762 
L 519.344262 310.211114 
L 532.327869 307.33787 
L 545.311475 306.36368 
L 558.295082 307.117943 
L 571.278689 306.269062 
L 584.262295 305.666822 
L 597.245902 307.388495 
L 610.229508 306.276838 
L 623.213115 306.310421 
L 636.196721 305.773307 
L 649.180328 305.12577 
L 662.163934 306.397911 
L 675.147541 304.528706 
L 688.131148 305.059467 
L 701.114754 304.467465 
L 714.098361 304.598583 
L 727.081967 304.808982 
L 740.065574 304.933654 
L 753.04918 305.722923 
L 766.032787 309.041946 
L 779.016393 308.010662 
" clip-path="url(#p53b49544ba)" style="fill: none; stroke: #000000; stroke-width: 1.5; stroke-linecap: square"/>
   </g>
   <g id="line2d_4">
    <path d="M 0 306 
L 12.983607 306 
L 25.967213 305.699347 
L 38.95082 303.934824 
L 51.934426 304.768081 
L 64.918033 302.73861 
L 77.901639 303.666125 
L 90.885246 304.241534 
L 103.868852 305.284786 
L 116.852459 306.525273 
L 129.836066 305.313955 
L 142.819672 304.84742 
L 155.803279 304.344149 
L 168.786885 305.725059 
L 181.770492 304.227509 
L 194.754098 303.76322 
L 207.737705 303.739718 
L 220.721311 304.06506 
L 233.704918 304.318048 
L 246.688525 303.997708 
L 259.672131 303.739513 
L 272.655738 304.470591 
L 285.639344 303.811457 
L 298.622951 304.297092 
L 311.606557 304.713964 
L 324.590164 305.735533 
L 337.57377 305.663067 
L 350.557377 304.82463 
L 363.540984 304.916959 
L 376.52459 305.271388 
L 389.508197 305.852834 
L 402.491803 305.843182 
L 415.47541 305.952951 
L 428.459016 305.772577 
L 441.442623 306.078003 
L 454.42623 305.272947 
L 467.409836 304.887323 
L 480.393443 305.331262 
L 493.377049 308.199945 
L 506.360656 308.660136 
L 519.344262 308.710087 
L 532.327869 307.387828 
L 545.311475 306.853826 
L 558.295082 307.184084 
L 571.278689 306.714511 
L 584.262295 306.313387 
L 597.245902 307.15309 
L 610.229508 306.589339 
L 623.213115 306.559675 
L 636.196721 306.227718 
L 649.180328 305.804977 
L 662.163934 306.387109 
L 675.147541 305.373718 
L 688.131148 305.527233 
L 701.114754 305.145496 
L 714.098361 305.111506 
L 727.081967 305.1455 
L 740.065574 305.153063 
L 753.04918 305.546105 
L 766.032787 307.382502 
L 779.016393 307.085564 
" clip-path="url(#p53b49544ba)" style="fill: none; stroke: #000000; stroke-width: 1.5; stroke-linecap: square"/>
   </g>
   <g id="line2d_5">
    <path d="M 0 306 
L 12.983607 306 
L 25.967213 305.711284 
L 38.95082 304.076722 
L 51.934426 304.778536 
L 64.918033 303.030925 
L 77.901639 303.742613 
L 90.885246 304.192478 
L 103.868852 305.016931 
L 116.852459 306.001776 
L 129.836066 305.179191 
L 142.819672 304.860198 
L 155.803279 304.503208 
L 168.786885 305.437564 
L 181.770492 304.458076 
L 194.754098 304.123541 
L 207.737705 304.068342 
L 220.721311 304.241577 
L 233.704918 304.382742 
L 246.688525 304.176771 
L 259.672131 304.000221 
L 272.655738 304.417584 
L 285.639344 304.027804 
L 298.622951 304.294877 
L 311.606557 304.53973 
L 324.590164 305.150041 
L 337.57377 305.162567 
L 350.557377 304.729014 
L 363.540984 304.790139 
L 376.52459 305.001465 
L 389.508197 305.351518 
L 402.491803 305.39079 
L 415.47541 305.491679 
L 428.459016 305.432885 
L 441.442623 305.630035 
L 454.42623 305.227942 
L 467.409836 305.022645 
L 480.393443 305.24882 
L 493.377049 306.804468 
L 506.360656 307.171275 
L 519.344262 307.325794 
L 532.327869 306.737638 
L 545.311475 306.50572 
L 558.295082 306.709828 
L 571.278689 306.498877 
L 584.262295 306.306191 
L 597.245902 306.748351 
L 610.229508 306.48266 
L 623.213115 306.475019 
L 636.196721 306.306862 
L 649.180328 306.07741 
L 662.163934 306.359569 
L 675.147541 305.828131 
L 688.131148 305.871545 
L 701.114754 305.640814 
L 714.098361 305.582081 
L 727.081967 305.561097 
L 740.065574 305.532242 
L 753.04918 305.706186 
L 766.032787 306.651151 
L 779.016393 306.556391 
" clip-path="url(#p53b49544ba)" style="fill: none; stroke: #000000; stroke-width: 1.5; stroke-linecap: square"/>
   </g>
   <g id="line2d_6">
    <path d="M 0 306 
L 12.983607 306 
L 25.967213 305.717271 
L 38.95082 304.146987 
L 51.934426 304.788238 
L 64.918033 303.174524 
L 77.901639 303.791815 
L 90.885246 304.183335 
L 103.868852 304.903613 
L 116.852459 305.762232 
L 129.836066 305.098454 
L 142.819672 304.843352 
L 155.803279 304.55432 
L 168.786885 305.298353 
L 181.770492 304.538164 
L 194.754098 304.270938 
L 207.737705 304.216144 
L 220.721311 304.334986 
L 233.704918 304.432847 
L 246.688525 304.277648 
L 259.672131 304.142161 
L 272.655738 304.431129 
L 285.639344 304.154315 
L 298.622951 304.332612 
L 311.606557 304.499436 
L 324.590164 304.919334 
L 337.57377 304.942281 
L 350.557377 304.665596 
L 363.540984 304.70993 
L 376.52459 304.853368 
L 389.508197 305.089567 
L 402.491803 305.129895 
L 415.47541 305.209064 
L 428.459016 305.187594 
L 441.442623 305.324884 
L 454.42623 305.090968 
L 467.409836 304.971404 
L 480.393443 305.112919 
L 493.377049 306.067919 
L 506.360656 306.328184 
L 519.344262 306.464493 
L 532.327869 306.157139 
L 545.311475 306.048837 
L 558.295082 306.192216 
L 571.278689 306.094214 
L 584.262295 306.001777 
L 597.245902 306.273378 
L 610.229508 306.143099 
L 623.213115 306.155161 
L 636.196721 306.074384 
L 649.180328 305.95487 
L 662.163934 306.120662 
L 675.147541 305.831972 
L 688.131148 305.8562 
L 701.114754 305.727695 
L 714.098361 305.690865 
L 727.081967 305.674139 
L 740.065574 305.652916 
L 753.04918 305.743406 
L 766.032787 306.261878 
L 779.016393 306.227703 
" clip-path="url(#p53b49544ba)" style="fill: none; stroke: #000000; stroke-width: 1.5; stroke-linecap: square"/>
   </g>
   <g id="line2d_7">
    <path d="M 0 306 
L 12.983607 306 
L 25.967213 305.720268 
L 38.95082 304.181889 
L 51.934426 304.794176 
L 64.918033 303.245459 
L 77.901639 303.818942 
L 90.885246 304.182731 
L 103.868852 304.852971 
L 116.852459 305.650151 
L 129.836066 305.056853 
L 142.819672 304.830528 
L 155.803279 304.573004 
L 168.786885 305.231175 
L 181.770492 304.56876 
L 194.754098 304.333744 
L 207.737705 304.281872 
L 220.721311 304.378927 
L 233.704918 304.458962 
L 246.688525 304.326887 
L 259.672131 304.211008 
L 272.655738 304.445692 
L 285.639344 304.218091 
L 298.622951 304.359477 
L 311.606557 304.492507 
L 324.590164 304.828569 
L 337.57377 304.851287 
L 350.557377 304.637931 
L 363.540984 304.67386 
L 376.52459 304.786694 
L 389.508197 304.971394 
L 402.491803 305.007368 
L 415.47541 305.072639 
L 428.459016 305.062202 
L 441.442623 305.169969 
L 454.42623 305.002598 
L 467.409836 304.917958 
L 480.393443 305.02365 
L 493.377049 305.721653 
L 506.360656 305.922722 
L 519.344262 306.035571 
L 532.327869 305.831933 
L 545.311475 305.766822 
L 558.295082 305.877811 
L 571.278689 305.820147 
L 584.262295 305.765232 
L 597.245902 305.961219 
L 610.229508 305.882057 
L 623.213115 305.898962 
L 636.196721 305.852405 
L 649.180328 305.778742 
L 662.163934 305.895941 
L 675.147541 305.709853 
L 688.131148 305.729816 
L 701.114754 305.648631 
L 714.098361 305.626795 
L 727.081967 305.617782 
L 740.065574 305.605638 
L 753.04918 305.66581 
L 766.032787 306.003162 
L 779.016393 305.988803 
" clip-path="url(#p53b49544ba)" style="fill: none; stroke: #000000; stroke-width: 1.5; stroke-linecap: square"/>
   </g>
   <g id="line2d_8">
    <path d="M 0 306 
L 12.983607 306 
L 25.967213 305.721766 
L 38.95082 304.199275 
L 51.934426 304.79741 
L 64.918033 303.280684 
L 77.901639 303.833104 
L 90.885246 304.183421 
L 103.868852 304.829236 
L 116.852459 305.596267 
L 129.836066 305.036026 
L 142.819672 304.823251 
L 155.803279 304.580753 
L 168.786885 305.198399 
L 181.770492 304.581756 
L 194.754098 304.362249 
L 207.737705 304.312316 
L 220.721311 304.399741 
L 233.704918 304.471818 
L 246.688525 304.350632 
L 259.672131 304.244156 
L 272.655738 304.454356 
L 285.639344 304.249339 
L 298.622951 304.374293 
L 311.606557 304.492039 
L 324.590164 304.789868 
L 337.57377 304.811605 
L 350.557377 304.625975 
L 363.540984 304.657865 
L 376.52459 304.756661 
L 389.508197 304.917769 
L 402.491803 304.950806 
L 415.47541 305.0089 
L 428.459016 305.002268 
L 441.442623 305.096026 
L 454.42623 304.956819 
L 467.409836 304.886986 
L 480.393443 304.976718 
L 493.377049 305.561615 
L 506.360656 305.733952 
L 519.344262 305.833251 
L 532.327869 305.671295 
L 545.311475 305.622528 
L 558.295082 305.71752 
L 571.278689 305.675087 
L 584.262295 305.634575 
L 597.245902 305.796552 
L 610.229508 305.737283 
L 623.213115 305.754681 
L 636.196721 305.721284 
L 649.180328 305.666084 
L 662.163934 305.761773 
L 675.147541 305.618316 
L 688.131148 305.636262 
L 701.114754 305.574985 
L 714.098361 305.559725 
L 727.081967 305.554312 
L 740.065574 305.546399 
L 753.04918 305.594156 
L 766.032787 305.854893 
L 779.016393 305.847247 
" clip-path="url(#p53b49544ba)" style="fill: none; stroke: #000000; stroke-width: 1.5; stroke-linecap: square"/>
   </g>
   <g id="line2d_9">
    <path d="M 0 306 
L 12.983607 306 
L 25.967213 305.722516 
L 38.95082 304.207951 
L 51.934426 304.799093 
L 64.918033 303.298233 
L 77.901639 303.84033 
L 90.885246 304.184013 
L 103.868852 304.817774 
L 116.852459 305.56989 
L 129.836066 305.02564 
L 142.819672 304.819428 
L 155.803279 304.584251 
L 168.786885 305.182241 
L 181.770492 304.587696 
L 194.754098 304.375769 
L 207.737705 304.326899 
L 220.721311 304.409811 
L 233.704918 304.478141 
L 246.688525 304.362217 
L 259.672131 304.260323 
L 272.655738 304.458952 
L 285.639344 304.264703 
L 298.622951 304.381951 
L 311.606557 304.492481 
L 324.590164 304.772193 
L 337.57377 304.793284 
L 350.557377 304.620537 
L 363.540984 304.650474 
L 376.52459 304.742613 
L 389.508197 304.892552 
L 402.491803 304.924 
L 415.47541 304.978527 
L 428.459016 304.973423 
L 441.442623 305.060457 
L 454.42623 304.934035 
L 467.409836 304.870909 
L 480.393443 304.953194 
L 493.377049 305.485819 
L 506.360656 305.644324 
L 519.344262 305.736681 
L 532.327869 305.593072 
L 545.311475 305.551224 
L 558.295082 305.638434 
L 571.278689 305.602411 
L 584.262295 305.567996 
L 597.245902 305.714137 
L 610.229508 305.663365 
L 623.213115 305.680558 
L 636.196721 305.65269 
L 649.180328 305.605467 
L 662.163934 305.691194 
L 675.147541 305.566553 
L 688.131148 305.583423 
L 701.114754 305.530895 
L 714.098361 305.518489 
L 727.081967 305.514623 
L 740.065574 305.508549 
L 753.04918 305.550739 
L 766.032787 305.77729 
L 779.016393 305.772197 
" clip-path="url(#p53b49544ba)" style="fill: none; stroke: #000000; stroke-width: 1.5; stroke-linecap: square"/>
   </g>
  </g>
 </g>
 <defs>
  <clipPath id="p53b49544ba">
   <rect x="0" y="0" width="792" height="612"/>
  </clipPath>
 </defs>
</svg>
