<?xml version="1.0" encoding="utf-8" standalone="no"?>
<!DOCTYPE svg PUBLIC "-//W3C//DTD SVG 1.1//EN"
  "http://www.w3.org/Graphics/SVG/1.1/DTD/svg11.dtd">
<svg xmlns:xlink="http://www.w3.org/1999/xlink" width="792pt" height="612pt" viewBox="0 0 792 612" xmlns="http://www.w3.org/2000/svg" version="1.1">
 <metadata>
  <rdf:RDF xmlns:dc="http://purl.org/dc/elements/1.1/" xmlns:cc="http://creativecommons.org/ns#" xmlns:rdf="http://www.w3.org/1999/02/22-rdf-syntax-ns#">
   <cc:Work>
    <dc:type rdf:resource="http://purl.org/dc/dcmitype/StillImage"/>
    <dc:date>2022-12-26T20:27:08.512499</dc:date>
    <dc:format>image/svg+xml</dc:format>
    <dc:creator>
     <cc:Agent>
      <dc:title>Matplotlib v3.6.2, https://matplotlib.org/</dc:title>
     </cc:Agent>
    </dc:creator>
   </cc:Work>
  </rdf:RDF>
 </metadata>
 <defs>
  <style type="text/css">*{stroke-linejoin: round; stroke-linecap: butt}</style>
 </defs>
 <g id="figure_1">
  <g id="patch_1">
   <path d="M 0 612 
L 792 612 
L 792 0 
L 0 0 
z
" style="fill: #ffffff"/>
  </g>
  <g id="axes_1">
   <g id="line2d_1">
    <path d="M 0 306 
L 12.375 306.677157 
L 24.75 303.441909 
L 37.125 308.833949 
L 49.5 313.071276 
L 61.875 299.229529 
L 74.25 295.996681 
L 86.625 305.398083 
L 99 314.800621 
L 111.375 314.550024 
L 123.75 308.683482 
L 136.125 305.8746 
L 148.5 306.576837 
L 160.875 295.420496 
L 173.25 310.388684 
L 185.625 302.288355 
L 198 302.438813 
L 210.375 307.078432 
L 222.75 291.489622 
L 235.125 301.987444 
L 247.5 299.003924 
L 259.875 305.398083 
L 272.25 300.783884 
L 284.625 306.601917 
L 297 296.62305 
L 309.375 306.551757 
L 321.75 306.225719 
L 334.125 309.435803 
L 346.5 311.918121 
L 358.875 299.755969 
L 371.25 302.53912 
L 383.625 301.736691 
L 396 312.645132 
L 408.375 296.372493 
L 420.75 301.134907 
L 433.125 303.41683 
L 445.5 305.648881 
L 457.875 305.548562 
L 470.25 302.062671 
L 482.625 302.112823 
L 495 308.407622 
L 507.375 299.931457 
L 519.75 306.877794 
L 532.125 306.953034 
L 544.5 311.491911 
L 556.875 305.222524 
L 569.25 299.956527 
L 581.625 305.347923 
L 594 307.228909 
L 606.375 309.159957 
L 618.75 305.774281 
L 631.125 306.576837 
L 643.5 304.720932 
L 655.875 307.830812 
L 668.25 300.583305 
L 680.625 302.589273 
L 693 307.780654 
L 705.375 324.786278 
L 717.75 311.516983 
L 730.125 309.235188 
L 742.5 299.956527 
L 754.875 303.843163 
L 767.25 309.159957 
L 779.625 304.068872 
" clip-path="url(#p2c463d510c)" style="fill: none; stroke: #000000; stroke-width: 1.5; stroke-linecap: square"/>
   </g>
   <g id="line2d_2">
    <path d="M 0 306 
L 12.375 306 
L 24.75 306.451438 
L 37.125 304.73168 
L 49.5 306.919594 
L 61.875 310.095062 
L 74.25 304.575631 
L 86.625 300.251255 
L 99 302.834536 
L 111.375 308.835916 
L 123.75 311.708902 
L 136.125 310.20657 
L 148.5 308.034885 
L 160.875 307.293132 
L 173.25 301.347592 
L 185.625 305.896336 
L 198 304.086182 
L 210.375 303.238236 
L 222.75 305.143646 
L 235.125 298.279092 
L 247.5 300.125433 
L 259.875 299.549812 
L 272.25 302.493195 
L 284.625 301.619675 
L 297 304.119129 
L 309.375 300.358839 
L 321.75 303.454005 
L 334.125 304.868754 
L 346.5 307.166948 
L 358.875 309.56807 
L 371.25 304.650611 
L 383.625 303.598279 
L 396 302.657915 
L 408.375 307.683386 
L 420.75 302.00662 
L 433.125 301.560774 
L 445.5 302.476969 
L 457.875 304.05058 
L 470.25 304.810923 
L 482.625 303.435811 
L 495 302.775039 
L 507.375 305.582985 
L 519.75 302.763927 
L 532.125 304.832069 
L 544.5 305.899484 
L 556.875 308.70738 
L 569.25 306.964344 
L 581.625 303.455972 
L 594 304.408276 
L 606.375 305.816277 
L 618.75 307.506258 
L 631.125 306.638111 
L 643.5 306.606736 
L 655.875 305.650553 
L 668.25 306.745806 
L 680.625 303.665548 
L 693 303.121993 
L 705.375 305.452373 
L 717.75 315.159102 
L 730.125 313.349557 
L 742.5 311.297823 
L 754.875 305.617704 
L 767.25 304.722604 
L 779.625 306.958148 
" clip-path="url(#p2c463d510c)" style="fill: none; stroke: #000000; stroke-width: 1.5; stroke-linecap: square"/>
   </g>
   <g id="line2d_3">
    <path d="M 0 306 
L 12.375 306 
L 24.75 306.39667 
L 37.125 305.057897 
L 49.5 306.532566 
L 61.875 308.859328 
L 74.25 305.635582 
L 86.625 302.537685 
L 99 303.431288 
L 111.375 306.915959 
L 123.75 309.224608 
L 136.125 309.062537 
L 148.5 308.114029 
L 160.875 307.658774 
L 173.25 304.044833 
L 185.625 305.913295 
L 198 304.847363 
L 210.375 304.137797 
L 222.75 304.999538 
L 235.125 301.02608 
L 247.5 301.299786 
L 259.875 300.611121 
L 272.25 302.020107 
L 284.625 301.663511 
L 297 303.1112 
L 309.375 301.189456 
L 321.75 302.75069 
L 334.125 303.765633 
L 346.5 305.430493 
L 358.875 307.337018 
L 371.25 305.121318 
L 383.625 304.355964 
L 396 303.588121 
L 408.375 306.252853 
L 420.75 303.345798 
L 433.125 302.709293 
L 445.5 302.918165 
L 457.875 303.725575 
L 470.25 304.259677 
L 482.625 303.61763 
L 495 303.171711 
L 507.375 304.718778 
L 519.75 303.30883 
L 532.125 304.354872 
L 544.5 305.112996 
L 556.875 306.981015 
L 569.25 306.472246 
L 581.625 304.56065 
L 594 304.795384 
L 606.375 305.501922 
L 618.75 306.588059 
L 631.125 306.355039 
L 643.5 306.423632 
L 655.875 305.923855 
L 668.25 306.485017 
L 680.625 304.754587 
L 693 304.120906 
L 705.375 305.192092 
L 717.75 310.966164 
L 730.125 311.132826 
L 742.5 310.579676 
L 754.875 307.454977 
L 767.25 306.395514 
L 779.625 307.215799 
" clip-path="url(#p2c463d510c)" style="fill: none; stroke: #000000; stroke-width: 1.5; stroke-linecap: square"/>
   </g>
   <g id="line2d_4">
    <path d="M 0 306 
L 12.375 306 
L 24.75 306.367841 
L 37.125 305.219496 
L 49.5 306.369665 
L 61.875 308.209757 
L 74.25 305.999298 
L 86.625 303.733759 
L 99 304.086818 
L 111.375 306.245626 
L 123.75 307.851017 
L 136.125 308.006594 
L 148.5 307.618936 
L 160.875 307.433662 
L 173.25 305.336277 
L 185.625 306.204728 
L 198 305.540048 
L 210.375 305.019236 
L 222.75 305.362009 
L 235.125 303.067962 
L 247.5 302.890497 
L 259.875 302.255339 
L 272.25 302.766623 
L 284.625 302.445167 
L 297 303.11697 
L 309.375 302.069679 
L 321.75 302.790697 
L 334.125 303.342315 
L 346.5 304.319428 
L 358.875 305.536507 
L 371.25 304.611564 
L 383.625 304.280278 
L 396 303.873972 
L 408.375 305.273781 
L 420.75 303.850651 
L 433.125 303.417093 
L 445.5 303.413672 
L 457.875 303.764658 
L 470.25 304.052419 
L 482.625 303.739615 
L 495 303.478725 
L 507.375 304.258919 
L 519.75 303.561191 
L 532.125 304.087729 
L 544.5 304.544273 
L 556.875 305.652819 
L 569.25 305.590476 
L 581.625 304.687467 
L 594 304.794457 
L 606.375 305.184773 
L 618.75 305.818554 
L 631.125 305.82043 
L 643.5 305.943641 
L 655.875 305.75267 
L 668.25 306.084831 
L 680.625 305.209305 
L 693 304.789927 
L 705.375 305.272725 
L 717.75 308.392507 
L 730.125 308.892974 
L 742.5 308.947297 
L 754.875 307.509308 
L 767.25 306.928564 
L 779.625 307.28773 
" clip-path="url(#p2c463d510c)" style="fill: none; stroke: #000000; stroke-width: 1.5; stroke-linecap: square"/>
   </g>
   <g id="line2d_5">
    <path d="M 0 306 
L 12.375 306 
L 24.75 306.353237 
L 37.125 305.297585 
L 49.5 306.299692 
L 61.875 307.898502 
L 74.25 306.123515 
L 86.625 304.274628 
L 99 304.46111 
L 111.375 306.046219 
L 123.75 307.264336 
L 136.125 307.456031 
L 148.5 307.252997 
L 160.875 307.169956 
L 173.25 305.781729 
L 185.625 306.307434 
L 198 305.862658 
L 210.375 305.493954 
L 222.75 305.660463 
L 235.125 304.202367 
L 247.5 303.97905 
L 259.875 303.486159 
L 272.25 303.672541 
L 284.625 303.394929 
L 297 303.699107 
L 309.375 303.035568 
L 321.75 303.361656 
L 334.125 303.624706 
L 346.5 304.153759 
L 358.875 304.855059 
L 371.25 304.397807 
L 383.625 304.232253 
L 396 304.011309 
L 408.375 304.77152 
L 420.75 304.035509 
L 433.125 303.78256 
L 445.5 303.750802 
L 457.875 303.914984 
L 470.25 304.055794 
L 482.625 303.884528 
L 495 303.732733 
L 507.375 304.132166 
L 519.75 303.774065 
L 532.125 304.038014 
L 544.5 304.285409 
L 556.875 304.895928 
L 569.25 304.923548 
L 581.625 304.504101 
L 594 304.575245 
L 606.375 304.798688 
L 618.75 305.16548 
L 631.125 305.216624 
L 643.5 305.330777 
L 655.875 305.279644 
L 668.25 305.493368 
L 680.625 305.082305 
L 693 304.873755 
L 705.375 305.116757 
L 717.75 306.762015 
L 730.125 307.159096 
L 742.5 307.332367 
L 754.875 306.717026 
L 767.25 306.477392 
L 779.625 306.700995 
" clip-path="url(#p2c463d510c)" style="fill: none; stroke: #000000; stroke-width: 1.5; stroke-linecap: square"/>
   </g>
   <g id="line2d_6">
    <path d="M 0 306 
L 12.375 306 
L 24.75 306.345911 
L 37.125 305.335666 
L 49.5 306.267883 
L 61.875 307.749187 
L 74.25 306.170955 
L 86.625 304.521392 
L 99 304.648293 
L 111.375 305.981718 
L 123.75 307.015227 
L 136.125 307.201815 
L 148.5 307.063015 
L 160.875 307.015147 
L 173.25 305.933769 
L 185.625 306.329042 
L 198 305.986403 
L 210.375 305.697813 
L 222.75 305.805909 
L 235.125 304.72304 
L 247.5 304.522907 
L 259.875 304.131143 
L 272.25 304.21856 
L 284.625 303.987686 
L 297 304.159133 
L 309.375 303.675921 
L 321.75 303.856334 
L 334.125 304.002014 
L 346.5 304.329856 
L 358.875 304.779654 
L 371.25 304.486792 
L 383.625 304.375038 
L 396 304.225885 
L 408.375 304.695232 
L 420.75 304.237258 
L 433.125 304.068717 
L 445.5 304.033722 
L 457.875 304.119457 
L 470.25 304.194515 
L 482.625 304.083663 
L 495 303.982158 
L 507.375 304.208012 
L 519.75 303.991591 
L 532.125 304.136438 
L 544.5 304.2767 
L 556.875 304.633394 
L 569.25 304.662313 
L 581.625 304.432818 
L 594 304.477157 
L 606.375 304.609684 
L 618.75 304.827579 
L 631.125 304.872664 
L 643.5 304.953401 
L 655.875 304.942442 
L 668.25 305.077962 
L 680.625 304.868002 
L 693 304.762019 
L 705.375 304.901833 
L 717.75 305.820312 
L 730.125 306.082183 
L 742.5 306.226599 
L 754.875 305.940362 
L 767.25 305.844943 
L 779.625 305.995307 
" clip-path="url(#p2c463d510c)" style="fill: none; stroke: #000000; stroke-width: 1.5; stroke-linecap: square"/>
   </g>
   <g id="line2d_7">
    <path d="M 0 306 
L 12.375 306 
L 24.75 306.342245 
L 37.125 305.354432 
L 49.5 306.252796 
L 61.875 307.676446 
L 74.25 306.191124 
L 86.625 304.637918 
L 99 304.740296 
L 111.375 305.957664 
L 123.75 306.903282 
L 136.125 307.083213 
L 148.5 306.97007 
L 160.875 306.935736 
L 173.25 305.99212 
L 185.625 306.331747 
L 198 306.035921 
L 210.375 305.785691 
L 222.75 305.871486 
L 235.125 304.957371 
L 247.5 304.77635 
L 259.875 304.437846 
L 272.25 304.492125 
L 284.625 304.289594 
L 297 304.411814 
L 309.375 304.012533 
L 321.75 304.138887 
L 334.125 304.239869 
L 346.5 304.484706 
L 358.875 304.826227 
L 371.25 304.598836 
L 383.625 304.508585 
L 396 304.389785 
L 408.375 304.73619 
L 420.75 304.392212 
L 433.125 304.260868 
L 445.5 304.227468 
L 457.875 304.282712 
L 470.25 304.331067 
L 482.625 304.245838 
L 495 304.166969 
L 507.375 304.321358 
L 519.75 304.163869 
L 532.125 304.259829 
L 544.5 304.353749 
L 556.875 304.599394 
L 569.25 304.620561 
L 581.625 304.464065 
L 594 304.493362 
L 606.375 304.582986 
L 618.75 304.731263 
L 631.125 304.764686 
L 643.5 304.822145 
L 655.875 304.818968 
L 668.25 304.912563 
L 680.625 304.779298 
L 693 304.712513 
L 705.375 304.805231 
L 717.75 305.404496 
L 730.125 305.586073 
L 742.5 305.693577 
L 754.875 305.525891 
L 767.25 305.477094 
L 779.625 305.583092 
" clip-path="url(#p2c463d510c)" style="fill: none; stroke: #000000; stroke-width: 1.5; stroke-linecap: square"/>
   </g>
   <g id="line2d_8">
    <path d="M 0 306 
L 12.375 306 
L 24.75 306.340412 
L 37.125 305.363743 
L 49.5 306.245458 
L 61.875 307.640593 
L 74.25 306.200344 
L 86.625 304.694374 
L 99 304.785707 
L 111.375 305.947564 
L 123.75 306.850568 
L 136.125 307.026371 
L 148.5 306.924571 
L 160.875 306.896049 
L 173.25 306.017101 
L 185.625 306.331171 
L 198 306.057443 
L 210.375 305.825633 
L 222.75 305.901824 
L 235.125 305.066468 
L 247.5 304.896155 
L 259.875 304.58409 
L 272.25 304.625448 
L 284.625 304.437756 
L 297 304.539601 
L 309.375 304.179965 
L 321.75 304.284066 
L 334.125 304.366556 
L 346.5 304.575306 
L 358.875 304.868781 
L 371.25 304.670217 
L 383.625 304.58972 
L 396 304.484784 
L 408.375 304.777329 
L 420.75 304.483316 
L 433.125 304.368982 
L 445.5 304.337215 
L 457.875 304.380009 
L 470.25 304.417318 
L 482.625 304.343691 
L 495 304.275337 
L 507.375 304.399477 
L 519.75 304.267767 
L 532.125 304.343281 
L 544.5 304.417441 
L 556.875 304.615001 
L 569.25 304.631679 
L 581.625 304.505419 
L 594 304.527805 
L 606.375 304.59846 
L 618.75 304.715974 
L 631.125 304.742835 
L 643.5 304.788713 
L 655.875 304.787041 
L 668.25 304.861086 
L 680.625 304.758402 
L 693 304.707017 
L 705.375 304.778896 
L 717.75 305.241499 
L 730.125 305.384677 
L 742.5 305.471478 
L 754.875 305.348589 
L 767.25 305.31543 
L 779.625 305.39917 
" clip-path="url(#p2c463d510c)" style="fill: none; stroke: #000000; stroke-width: 1.5; stroke-linecap: square"/>
   </g>
   <g id="line2d_9">
    <path d="M 0 306 
L 12.375 306 
L 24.75 306.339495 
L 37.125 305.368379 
L 49.5 306.241841 
L 61.875 307.622801 
L 74.25 306.204742 
L 86.625 304.72214 
L 99 304.808242 
L 111.375 305.942978 
L 123.75 306.825033 
L 136.125 306.998599 
L 148.5 306.902119 
L 160.875 306.876276 
L 173.25 306.028583 
L 185.625 306.330424 
L 198 306.067394 
L 210.375 305.844566 
L 222.75 305.916315 
L 235.125 305.118845 
L 247.5 304.954079 
L 259.875 304.655076 
L 272.25 304.690804 
L 284.625 304.510609 
L 297 304.603279 
L 309.375 304.262782 
L 321.75 304.356905 
L 334.125 304.431101 
L 346.5 304.623215 
L 358.875 304.89432 
L 371.25 304.709226 
L 383.625 304.633385 
L 396 304.535053 
L 408.375 304.80273 
L 420.75 304.531893 
L 433.125 304.425626 
L 445.5 304.394867 
L 457.875 304.432166 
L 470.25 304.464583 
L 482.625 304.396444 
L 495 304.333115 
L 507.375 304.443633 
L 519.75 304.323827 
L 532.125 304.390224 
L 544.5 304.455506 
L 556.875 304.63123 
L 569.25 304.645712 
L 581.625 304.532997 
L 594 304.552224 
L 606.375 304.614249 
L 618.75 304.717746 
L 631.125 304.74139 
L 643.5 304.78178 
L 655.875 304.780463 
L 668.25 304.845436 
L 680.625 304.756062 
L 693 304.711326 
L 705.375 304.773741 
L 717.75 305.175186 
L 730.125 305.300429 
L 742.5 305.377033 
L 754.875 305.272956 
L 767.25 305.245881 
L 779.625 305.319011 
" clip-path="url(#p2c463d510c)" style="fill: none; stroke: #000000; stroke-width: 1.5; stroke-linecap: square"/>
   </g>
  </g>
 </g>
 <defs>
  <clipPath id="p2c463d510c">
   <rect x="0" y="0" width="792" height="612"/>
  </clipPath>
 </defs>
</svg>
