<?xml version="1.0" encoding="utf-8" standalone="no"?>
<!DOCTYPE svg PUBLIC "-//W3C//DTD SVG 1.1//EN"
  "http://www.w3.org/Graphics/SVG/1.1/DTD/svg11.dtd">
<svg xmlns:xlink="http://www.w3.org/1999/xlink" width="792pt" height="612pt" viewBox="0 0 792 612" xmlns="http://www.w3.org/2000/svg" version="1.1">
 <metadata>
  <rdf:RDF xmlns:dc="http://purl.org/dc/elements/1.1/" xmlns:cc="http://creativecommons.org/ns#" xmlns:rdf="http://www.w3.org/1999/02/22-rdf-syntax-ns#">
   <cc:Work>
    <dc:type rdf:resource="http://purl.org/dc/dcmitype/StillImage"/>
    <dc:date>2023-01-09T02:27:22.880755</dc:date>
    <dc:format>image/svg+xml</dc:format>
    <dc:creator>
     <cc:Agent>
      <dc:title>Matplotlib v3.6.2, https://matplotlib.org/</dc:title>
     </cc:Agent>
    </dc:creator>
   </cc:Work>
  </rdf:RDF>
 </metadata>
 <defs>
  <style type="text/css">*{stroke-linejoin: round; stroke-linecap: butt}</style>
 </defs>
 <g id="figure_1">
  <g id="patch_1">
   <path d="M 0 612 
L 792 612 
L 792 0 
L 0 0 
z
" style="fill: #ffffff"/>
  </g>
  <g id="axes_1">
   <g id="line2d_1">
    <path d="M 0 306 
L 44 308.588471 
L 88 305.723447 
L 132 309.097284 
L 176 312.204991 
L 220 306.320801 
L 264 304.429195 
L 308 304.993352 
L 352 308.643778 
L 396 304.008849 
L 440 306.807532 
L 484 307.91372 
L 528 305.09291 
L 572 308.654839 
L 616 305.115034 
L 660 305.933627 
L 704 308.466796 
L 748 297.915482 
" clip-path="url(#p1610f3590e)" style="fill: none; stroke: #000000; stroke-width: 1.5; stroke-linecap: square"/>
   </g>
   <g id="line2d_2">
    <path d="M 0 306 
L 44 306 
L 88 307.72567 
L 132 306.58155 
L 176 307.923306 
L 220 310.133408 
L 264 308.196932 
L 308 306.298241 
L 352 305.643236 
L 396 307.148718 
L 440 305.569793 
L 484 306.190789 
L 528 307.049942 
L 572 306.05748 
L 616 307.36076 
L 660 306.239245 
L 704 306.08828 
L 748 307.27721 
" clip-path="url(#p1610f3590e)" style="fill: none; stroke: #000000; stroke-width: 1.5; stroke-linecap: square"/>
   </g>
   <g id="line2d_3">
    <path d="M 0 306 
L 44 306 
L 88 307.516315 
L 132 306.704005 
L 176 307.638665 
L 220 309.263499 
L 264 308.278515 
L 308 307.041781 
L 352 306.401813 
L 396 307.088847 
L 440 306.157631 
L 484 306.352284 
L 528 306.816883 
L 572 306.306302 
L 616 306.999605 
L 660 306.444562 
L 704 306.294326 
L 748 306.933474 
" clip-path="url(#p1610f3590e)" style="fill: none; stroke: #000000; stroke-width: 1.5; stroke-linecap: square"/>
   </g>
   <g id="line2d_4">
    <path d="M 0 306 
L 44 306 
L 88 307.406116 
L 132 306.745734 
L 176 307.494037 
L 220 308.787494 
L 264 308.180412 
L 308 307.331086 
L 352 306.835167 
L 396 307.199528 
L 440 306.582867 
L 484 306.624853 
L 528 306.859214 
L 572 306.545181 
L 616 306.913389 
L 660 306.604291 
L 704 306.490473 
L 748 306.822363 
" clip-path="url(#p1610f3590e)" style="fill: none; stroke: #000000; stroke-width: 1.5; stroke-linecap: square"/>
   </g>
   <g id="line2d_5">
    <path d="M 0 306 
L 44 306 
L 88 307.350293 
L 132 306.760411 
L 176 307.422622 
L 220 308.551724 
L 264 308.095006 
L 308 307.425971 
L 352 307.02218 
L 396 307.27073 
L 440 306.803606 
L 484 306.804136 
L 528 306.946595 
L 572 306.718939 
L 616 306.947595 
L 660 306.738494 
L 704 306.649427 
L 748 306.845129 
" clip-path="url(#p1610f3590e)" style="fill: none; stroke: #000000; stroke-width: 1.5; stroke-linecap: square"/>
   </g>
   <g id="line2d_6">
    <path d="M 0 306 
L 44 306 
L 88 307.322289 
L 132 306.766098 
L 176 307.387315 
L 220 308.436229 
L 264 308.044413 
L 308 307.458488 
L 352 307.101661 
L 396 307.304163 
L 440 306.906785 
L 484 306.895684 
L 528 307.002152 
L 572 306.814173 
L 616 306.985785 
L 660 306.819811 
L 704 306.744668 
L 748 306.884758 
" clip-path="url(#p1610f3590e)" style="fill: none; stroke: #000000; stroke-width: 1.5; stroke-linecap: square"/>
   </g>
   <g id="line2d_7">
    <path d="M 0 306 
L 44 306 
L 88 307.308275 
L 132 306.76852 
L 176 307.369781 
L 220 308.379301 
L 264 308.017384 
L 308 307.470894 
L 352 307.137225 
L 396 307.319489 
L 440 306.955237 
L 484 306.940308 
L 528 307.031435 
L 572 306.862179 
L 616 307.009029 
L 660 306.862732 
L 704 306.79476 
L 748 306.911071 
" clip-path="url(#p1610f3590e)" style="fill: none; stroke: #000000; stroke-width: 1.5; stroke-linecap: square"/>
   </g>
   <g id="line2d_8">
    <path d="M 0 306 
L 44 306 
L 88 307.301267 
L 132 306.769625 
L 176 307.361046 
L 220 308.351067 
L 264 308.003472 
L 308 307.476133 
L 352 307.153898 
L 396 307.326706 
L 440 306.978519 
L 484 306.96212 
L 528 307.046229 
L 572 306.886018 
L 616 307.021452 
L 660 306.884498 
L 704 306.820121 
L 748 306.925605 
" clip-path="url(#p1610f3590e)" style="fill: none; stroke: #000000; stroke-width: 1.5; stroke-linecap: square"/>
   </g>
   <g id="line2d_9">
    <path d="M 0 306 
L 44 306 
L 88 307.297763 
L 132 306.77015 
L 176 307.356687 
L 220 308.337012 
L 264 307.99642 
L 308 307.478511 
L 352 307.161951 
L 396 307.330191 
L 440 306.989906 
L 484 306.972874 
L 528 307.053635 
L 572 306.897862 
L 616 307.027829 
L 660 306.89542 
L 704 306.832836 
L 748 306.933174 
" clip-path="url(#p1610f3590e)" style="fill: none; stroke: #000000; stroke-width: 1.5; stroke-linecap: square"/>
   </g>
  </g>
 </g>
 <defs>
  <clipPath id="p1610f3590e">
   <rect x="0" y="0" width="792" height="612"/>
  </clipPath>
 </defs>
</svg>
