<?xml version="1.0" encoding="utf-8" standalone="no"?>
<!DOCTYPE svg PUBLIC "-//W3C//DTD SVG 1.1//EN"
  "http://www.w3.org/Graphics/SVG/1.1/DTD/svg11.dtd">
<svg xmlns:xlink="http://www.w3.org/1999/xlink" width="792pt" height="612pt" viewBox="0 0 792 612" xmlns="http://www.w3.org/2000/svg" version="1.1">
 <metadata>
  <rdf:RDF xmlns:dc="http://purl.org/dc/elements/1.1/" xmlns:cc="http://creativecommons.org/ns#" xmlns:rdf="http://www.w3.org/1999/02/22-rdf-syntax-ns#">
   <cc:Work>
    <dc:type rdf:resource="http://purl.org/dc/dcmitype/StillImage"/>
    <dc:date>2023-01-02T15:37:36.826440</dc:date>
    <dc:format>image/svg+xml</dc:format>
    <dc:creator>
     <cc:Agent>
      <dc:title>Matplotlib v3.6.2, https://matplotlib.org/</dc:title>
     </cc:Agent>
    </dc:creator>
   </cc:Work>
  </rdf:RDF>
 </metadata>
 <defs>
  <style type="text/css">*{stroke-linejoin: round; stroke-linecap: butt}</style>
 </defs>
 <g id="figure_1">
  <g id="patch_1">
   <path d="M 0 612 
L 792 612 
L 792 0 
L 0 0 
z
" style="fill: #ffffff"/>
  </g>
  <g id="axes_1">
   <g id="line2d_1">
    <path d="M 0 306 
L 41.684211 305.797194 
L 83.368421 307.611164 
L 125.052632 302.563715 
L 166.736842 307.52103 
L 208.421053 300.840211 
L 250.105263 308.636409 
L 291.789474 305.718325 
L 333.473684 309.154644 
L 375.157895 312.319879 
L 416.842105 306.326742 
L 458.526316 304.400103 
L 500.210526 304.974708 
L 541.894737 308.69274 
L 583.578947 303.971973 
L 625.263158 306.822488 
L 666.947368 307.949162 
L 708.631579 305.07611 
L 750.315789 308.704006 
" clip-path="url(#pa9eced2837)" style="fill: none; stroke: #000000; stroke-width: 1.5; stroke-linecap: square"/>
   </g>
   <g id="line2d_2">
    <path d="M 0 306 
L 41.684211 306 
L 83.368421 305.864796 
L 125.052632 306.862727 
L 166.736842 304.569855 
L 208.421053 306.093043 
L 250.105263 303.42475 
L 291.789474 306.051101 
L 333.473684 305.884061 
L 375.157895 307.525581 
L 416.842105 309.93576 
L 458.526316 308.128807 
L 500.210526 306.268066 
L 541.894737 305.616393 
L 583.578947 307.169993 
L 625.263158 305.561825 
L 666.947368 306.194322 
L 708.631579 307.069387 
L 750.315789 306.058544 
" clip-path="url(#pa9eced2837)" style="fill: none; stroke: #000000; stroke-width: 1.5; stroke-linecap: square"/>
   </g>
   <g id="line2d_3">
    <path d="M 0 306 
L 41.684211 306 
L 83.368421 305.881199 
L 125.052632 306.66502 
L 166.736842 305.063308 
L 208.421053 305.937739 
L 250.105263 304.231274 
L 291.789474 305.646615 
L 333.473684 305.669018 
L 375.157895 306.737172 
L 416.842105 308.425277 
L 458.526316 307.796757 
L 500.210526 306.786117 
L 541.894737 306.24964 
L 583.578947 306.970859 
L 625.263158 306.08762 
L 666.947368 306.303702 
L 708.631579 306.787891 
L 750.315789 306.285694 
" clip-path="url(#pa9eced2837)" style="fill: none; stroke: #000000; stroke-width: 1.5; stroke-linecap: square"/>
   </g>
   <g id="line2d_4">
    <path d="M 0 306 
L 41.684211 306 
L 83.368421 305.889833 
L 125.052632 306.565399 
L 166.736842 305.29199 
L 208.421053 305.903928 
L 250.105263 304.657533 
L 291.789474 305.558431 
L 333.473684 305.592351 
L 375.157895 306.310011 
L 416.842105 307.471695 
L 458.526316 307.257724 
L 500.210526 306.738117 
L 541.894737 306.424598 
L 583.578947 306.820467 
L 625.263158 306.330868 
L 666.947368 306.414301 
L 708.631579 306.672053 
L 750.315789 306.406392 
" clip-path="url(#pa9eced2837)" style="fill: none; stroke: #000000; stroke-width: 1.5; stroke-linecap: square"/>
   </g>
   <g id="line2d_5">
    <path d="M 0 306 
L 41.684211 306 
L 83.368421 305.894207 
L 125.052632 306.516771 
L 166.736842 305.39657 
L 208.421053 305.898084 
L 250.105263 304.862501 
L 291.789474 305.551287 
L 333.473684 305.579014 
L 375.157895 306.127072 
L 416.842105 307.014051 
L 458.526316 306.921214 
L 500.210526 306.597533 
L 541.894737 306.398229 
L 583.578947 306.669242 
L 625.263158 306.361471 
L 666.947368 306.412488 
L 708.631579 306.577962 
L 750.315789 306.420136 
" clip-path="url(#pa9eced2837)" style="fill: none; stroke: #000000; stroke-width: 1.5; stroke-linecap: square"/>
   </g>
   <g id="line2d_6">
    <path d="M 0 306 
L 41.684211 306 
L 83.368421 305.896401 
L 125.052632 306.492926 
L 166.736842 305.445862 
L 208.421053 305.897614 
L 250.105263 304.960776 
L 291.789474 305.556512 
L 333.473684 305.579935 
L 375.157895 306.049348 
L 416.842105 306.805612 
L 458.526316 306.752053 
L 500.210526 306.506084 
L 541.894737 306.355307 
L 583.578947 306.573236 
L 625.263158 306.342445 
L 666.947368 306.38315 
L 708.631579 306.510539 
L 750.315789 306.39823 
" clip-path="url(#pa9eced2837)" style="fill: none; stroke: #000000; stroke-width: 1.5; stroke-linecap: square"/>
   </g>
   <g id="line2d_7">
    <path d="M 0 306 
L 41.684211 306 
L 83.368421 305.897499 
L 125.052632 306.481142 
L 166.736842 305.469702 
L 208.421053 305.897933 
L 250.105263 305.008599 
L 291.789474 305.561142 
L 333.473684 305.582312 
L 375.157895 306.014499 
L 416.842105 306.708348 
L 458.526316 306.669779 
L 500.210526 306.457302 
L 541.894737 306.327854 
L 583.578947 306.521579 
L 625.263158 306.324638 
L 666.947368 306.361061 
L 708.631579 306.471532 
L 750.315789 306.378923 
" clip-path="url(#pa9eced2837)" style="fill: none; stroke: #000000; stroke-width: 1.5; stroke-linecap: square"/>
   </g>
   <g id="line2d_8">
    <path d="M 0 306 
L 41.684211 306 
L 83.368421 305.898048 
L 125.052632 306.475287 
L 166.736842 305.481414 
L 208.421053 305.898223 
L 250.105263 305.032152 
L 291.789474 305.563932 
L 333.473684 305.583971 
L 375.157895 305.998128 
L 416.842105 306.661649 
L 458.526316 306.629528 
L 500.210526 306.432476 
L 541.894737 306.31291 
L 583.578947 306.495127 
L 625.263158 306.313865 
L 666.947368 306.348301 
L 708.631579 306.450849 
L 750.315789 306.367242 
" clip-path="url(#pa9eced2837)" style="fill: none; stroke: #000000; stroke-width: 1.5; stroke-linecap: square"/>
   </g>
   <g id="line2d_9">
    <path d="M 0 306 
L 41.684211 306 
L 83.368421 305.898323 
L 125.052632 306.472369 
L 166.736842 305.487218 
L 208.421053 305.8984 
L 250.105263 305.043835 
L 291.789474 305.565442 
L 333.473684 305.584917 
L 375.157895 305.990211 
L 416.842105 306.638804 
L 458.526316 306.609661 
L 500.210526 306.419997 
L 541.894737 306.305173 
L 583.578947 306.481786 
L 625.263158 306.308046 
L 666.947368 306.341521 
L 708.631579 306.440242 
L 750.315789 306.360918 
" clip-path="url(#pa9eced2837)" style="fill: none; stroke: #000000; stroke-width: 1.5; stroke-linecap: square"/>
   </g>
  </g>
 </g>
 <defs>
  <clipPath id="pa9eced2837">
   <rect x="0" y="0" width="792" height="612"/>
  </clipPath>
 </defs>
</svg>
