<?xml version="1.0" encoding="utf-8" standalone="no"?>
<!DOCTYPE svg PUBLIC "-//W3C//DTD SVG 1.1//EN"
  "http://www.w3.org/Graphics/SVG/1.1/DTD/svg11.dtd">
<svg xmlns:xlink="http://www.w3.org/1999/xlink" width="792pt" height="612pt" viewBox="0 0 792 612" xmlns="http://www.w3.org/2000/svg" version="1.1">
 <metadata>
  <rdf:RDF xmlns:dc="http://purl.org/dc/elements/1.1/" xmlns:cc="http://creativecommons.org/ns#" xmlns:rdf="http://www.w3.org/1999/02/22-rdf-syntax-ns#">
   <cc:Work>
    <dc:type rdf:resource="http://purl.org/dc/dcmitype/StillImage"/>
    <dc:date>2022-12-19T20:26:43.237131</dc:date>
    <dc:format>image/svg+xml</dc:format>
    <dc:creator>
     <cc:Agent>
      <dc:title>Matplotlib v3.6.2, https://matplotlib.org/</dc:title>
     </cc:Agent>
    </dc:creator>
   </cc:Work>
  </rdf:RDF>
 </metadata>
 <defs>
  <style type="text/css">*{stroke-linejoin: round; stroke-linecap: butt}</style>
 </defs>
 <g id="figure_1">
  <g id="patch_1">
   <path d="M 0 612 
L 792 612 
L 792 0 
L 0 0 
z
" style="fill: #ffffff"/>
  </g>
  <g id="axes_1">
   <g id="line2d_1">
    <path d="M 0 306 
L 41.684211 310.978368 
L 83.368421 300.751975 
L 125.052632 305.044701 
L 166.736842 305.988761 
L 208.421053 304.707541 
L 250.105263 305.730268 
L 291.789474 307.674571 
L 333.473684 304.055706 
L 375.157895 308.382587 
L 416.842105 307.652094 
L 458.526316 304.449053 
L 500.210526 305.314432 
L 541.894737 306 
L 583.578947 308.034201 
L 625.263158 305.797701 
L 666.947368 307.60714 
L 708.631579 302.572296 
L 750.315789 307.517231 
" clip-path="url(#p708343bba2)" style="fill: none; stroke: #000000; stroke-width: 1.5; stroke-linecap: square"/>
   </g>
   <g id="line2d_2">
    <path d="M 0 306 
L 41.684211 306 
L 83.368421 309.319075 
L 125.052632 304.423365 
L 166.736842 304.754743 
L 208.421053 305.391653 
L 250.105263 305.044166 
L 291.789474 305.389917 
L 333.473684 306.536731 
L 375.157895 305.292395 
L 416.842105 306.832422 
L 458.526316 307.255791 
L 500.210526 305.851251 
L 541.894737 305.581519 
L 583.578947 305.793293 
L 625.263158 306.918277 
L 666.947368 306.35431 
L 708.631579 306.987693 
L 750.315789 304.768538 
" clip-path="url(#p708343bba2)" style="fill: none; stroke: #000000; stroke-width: 1.5; stroke-linecap: square"/>
   </g>
   <g id="line2d_3">
    <path d="M 0 306 
L 41.684211 306 
L 83.368421 308.91643 
L 125.052632 305.21708 
L 166.736842 305.149762 
L 208.421053 305.448267 
L 250.105263 305.200319 
L 291.789474 305.370587 
L 333.473684 306.090401 
L 375.157895 305.46689 
L 416.842105 306.34844 
L 458.526316 306.738903 
L 500.210526 306.057573 
L 541.894737 305.83748 
L 583.578947 305.885456 
L 625.263158 306.518313 
L 666.947368 306.306423 
L 708.631579 306.689243 
L 750.315789 305.473721 
" clip-path="url(#p708343bba2)" style="fill: none; stroke: #000000; stroke-width: 1.5; stroke-linecap: square"/>
   </g>
   <g id="line2d_4">
    <path d="M 0 306 
L 41.684211 306 
L 83.368421 308.704486 
L 125.052632 305.583251 
L 166.736842 305.41188 
L 208.421053 305.57025 
L 250.105263 305.357919 
L 291.789474 305.442225 
L 333.473684 305.915794 
L 375.157895 305.541067 
L 416.842105 306.090254 
L 458.526316 306.38214 
L 500.210526 306.030639 
L 541.894737 305.903303 
L 583.578947 305.92018 
L 625.263158 306.28354 
L 666.947368 306.201088 
L 708.631579 306.437207 
L 750.315789 305.79383 
" clip-path="url(#p708343bba2)" style="fill: none; stroke: #000000; stroke-width: 1.5; stroke-linecap: square"/>
   </g>
   <g id="line2d_5">
    <path d="M 0 306 
L 41.684211 306 
L 83.368421 308.597119 
L 125.052632 305.752365 
L 166.736842 305.551837 
L 208.421053 305.654979 
L 250.105263 305.461011 
L 291.789474 305.510153 
L 333.473684 305.869431 
L 375.157895 305.591436 
L 416.842105 305.991156 
L 458.526316 306.215508 
L 500.210526 305.988714 
L 541.894737 305.905903 
L 583.578947 305.917017 
L 625.263158 306.158599 
L 666.947368 306.118662 
L 708.631579 306.278946 
L 750.315789 305.889406 
" clip-path="url(#p708343bba2)" style="fill: none; stroke: #000000; stroke-width: 1.5; stroke-linecap: square"/>
   </g>
   <g id="line2d_6">
    <path d="M 0 306 
L 41.684211 306 
L 83.368421 308.54326 
L 125.052632 305.832736 
L 166.736842 305.622746 
L 208.421053 305.702425 
L 250.105263 305.518148 
L 291.789474 305.552527 
L 333.473684 305.859698 
L 375.157895 305.622811 
L 416.842105 305.955615 
L 458.526316 306.145357 
L 500.210526 305.967955 
L 541.894737 305.90361 
L 583.578947 305.912597 
L 625.263158 306.100831 
L 666.947368 306.075128 
L 708.631579 306.19975 
L 750.315789 305.915726 
" clip-path="url(#p708343bba2)" style="fill: none; stroke: #000000; stroke-width: 1.5; stroke-linecap: square"/>
   </g>
   <g id="line2d_7">
    <path d="M 0 306 
L 41.684211 306 
L 83.368421 308.516307 
L 125.052632 305.8718 
L 166.736842 305.658259 
L 208.421053 305.727253 
L 250.105263 305.547966 
L 291.789474 305.575731 
L 333.473684 305.858403 
L 375.157895 305.640313 
L 416.842105 305.942038 
L 458.526316 306.114876 
L 500.210526 305.958929 
L 541.894737 305.902656 
L 583.578947 305.91063 
L 625.263158 306.074663 
L 666.947368 306.054401 
L 708.631579 306.162412 
L 750.315789 305.924139 
" clip-path="url(#p708343bba2)" style="fill: none; stroke: #000000; stroke-width: 1.5; stroke-linecap: square"/>
   </g>
   <g id="line2d_8">
    <path d="M 0 306 
L 41.684211 306 
L 83.368421 308.502829 
L 125.052632 305.891043 
L 166.736842 305.676007 
L 208.421053 305.73992 
L 250.105263 305.563163 
L 291.789474 305.587818 
L 333.473684 305.858658 
L 375.157895 305.64954 
L 416.842105 305.936361 
L 458.526316 306.100921 
L 500.210526 305.954917 
L 541.894737 305.902384 
L 583.578947 305.909858 
L 625.263158 306.06247 
L 666.947368 306.044544 
L 708.631579 306.144641 
L 750.315789 305.927374 
" clip-path="url(#p708343bba2)" style="fill: none; stroke: #000000; stroke-width: 1.5; stroke-linecap: square"/>
   </g>
   <g id="line2d_9">
    <path d="M 0 306 
L 41.684211 306 
L 83.368421 308.496089 
L 125.052632 305.900591 
L 166.736842 305.684876 
L 208.421053 305.746313 
L 250.105263 305.570831 
L 291.789474 305.59398 
L 333.473684 305.859011 
L 375.157895 305.654274 
L 416.842105 305.933806 
L 458.526316 306.094279 
L 500.210526 305.953056 
L 541.894737 305.902319 
L 583.578947 305.909544 
L 625.263158 306.056622 
L 666.947368 306.039774 
L 708.631579 306.136021 
L 750.315789 305.928784 
" clip-path="url(#p708343bba2)" style="fill: none; stroke: #000000; stroke-width: 1.5; stroke-linecap: square"/>
   </g>
  </g>
 </g>
 <defs>
  <clipPath id="p708343bba2">
   <rect x="0" y="0" width="792" height="612"/>
  </clipPath>
 </defs>
</svg>
