<?xml version="1.0" encoding="utf-8" standalone="no"?>
<!DOCTYPE svg PUBLIC "-//W3C//DTD SVG 1.1//EN"
  "http://www.w3.org/Graphics/SVG/1.1/DTD/svg11.dtd">
<svg xmlns:xlink="http://www.w3.org/1999/xlink" width="792pt" height="612pt" viewBox="0 0 792 612" xmlns="http://www.w3.org/2000/svg" version="1.1">
 <metadata>
  <rdf:RDF xmlns:dc="http://purl.org/dc/elements/1.1/" xmlns:cc="http://creativecommons.org/ns#" xmlns:rdf="http://www.w3.org/1999/02/22-rdf-syntax-ns#">
   <cc:Work>
    <dc:type rdf:resource="http://purl.org/dc/dcmitype/StillImage"/>
    <dc:date>2023-01-02T15:37:35.828008</dc:date>
    <dc:format>image/svg+xml</dc:format>
    <dc:creator>
     <cc:Agent>
      <dc:title>Matplotlib v3.6.2, https://matplotlib.org/</dc:title>
     </cc:Agent>
    </dc:creator>
   </cc:Work>
  </rdf:RDF>
 </metadata>
 <defs>
  <style type="text/css">*{stroke-linejoin: round; stroke-linecap: butt}</style>
 </defs>
 <g id="figure_1">
  <g id="patch_1">
   <path d="M 0 612 
L 792 612 
L 792 0 
L 0 0 
z
" style="fill: #ffffff"/>
  </g>
  <g id="axes_1">
   <g id="line2d_1">
    <path d="M 0 459 
L 41.684211 458.695791 
L 83.368421 459.704186 
L 125.052632 455.957959 
L 166.736842 458.239479 
L 208.421053 450.500033 
L 250.105263 454.453921 
L 291.789474 454.031454 
L 333.473684 458.763393 
L 375.157895 462.08152 
L 416.842105 462.244891 
L 458.526316 461.444935 
L 500.210526 460.932288 
L 541.894737 462.278692 
L 583.578947 461.264664 
L 625.263158 461.675909 
L 666.947368 462.650503 
L 708.631579 462.188556 
L 750.315789 463.540594 
" clip-path="url(#pdf6c8b2467)" style="fill: none; stroke: #000000; stroke-width: 1.5; stroke-linecap: square"/>
   </g>
   <g id="line2d_2">
    <path d="M 0 459 
L 41.684211 459 
L 83.368421 458.797194 
L 125.052632 459.37342 
L 166.736842 457.900345 
L 208.421053 458.075382 
L 250.105263 454.227263 
L 291.789474 454.341484 
L 333.473684 454.185861 
L 375.157895 456.4741 
L 416.842105 460.126013 
L 458.526316 461.190434 
L 500.210526 461.324467 
L 541.894737 461.132663 
L 583.578947 461.717663 
L 625.263158 461.498575 
L 666.947368 461.595736 
L 708.631579 462.130432 
L 750.315789 462.159704 
" clip-path="url(#pdf6c8b2467)" style="fill: none; stroke: #000000; stroke-width: 1.5; stroke-linecap: square"/>
   </g>
   <g id="line2d_3">
    <path d="M 0 459 
L 41.684211 459 
L 83.368421 458.821799 
L 125.052632 459.286567 
L 166.736842 458.335959 
L 208.421053 458.301633 
L 250.105263 455.689895 
L 291.789474 455.292781 
L 333.473684 454.898711 
L 375.157895 456.082952 
L 416.842105 459.253294 
L 458.526316 460.149312 
L 500.210526 460.534815 
L 541.894737 460.652532 
L 583.578947 461.132574 
L 625.263158 461.171477 
L 666.947368 461.319801 
L 708.631579 461.713747 
L 750.315789 461.856595 
" clip-path="url(#pdf6c8b2467)" style="fill: none; stroke: #000000; stroke-width: 1.5; stroke-linecap: square"/>
   </g>
   <g id="line2d_4">
    <path d="M 0 459 
L 41.684211 459 
L 83.368421 458.83475 
L 125.052632 459.242903 
L 166.736842 458.528815 
L 208.421053 458.449384 
L 250.105263 456.492673 
L 291.789474 456.031051 
L 333.473684 455.606849 
L 375.157895 456.242731 
L 416.842105 458.562287 
L 458.526316 459.487781 
L 500.210526 459.843656 
L 541.894737 460.037205 
L 583.578947 460.428412 
L 625.263158 460.572146 
L 666.947368 460.759466 
L 708.631579 461.077026 
L 750.315789 461.262052 
" clip-path="url(#pdf6c8b2467)" style="fill: none; stroke: #000000; stroke-width: 1.5; stroke-linecap: square"/>
   </g>
   <g id="line2d_5">
    <path d="M 0 459 
L 41.684211 459 
L 83.368421 458.84131 
L 125.052632 459.221618 
L 166.736842 458.614433 
L 208.421053 458.525919 
L 250.105263 456.882613 
L 291.789474 456.439338 
L 333.473684 456.039635 
L 375.157895 456.4571 
L 416.842105 458.145127 
L 458.526316 459.191833 
L 500.210526 459.481105 
L 541.894737 459.659329 
L 583.578947 459.968703 
L 625.263158 460.116577 
L 666.947368 460.289135 
L 708.631579 460.543412 
L 750.315789 460.716297 
" clip-path="url(#pdf6c8b2467)" style="fill: none; stroke: #000000; stroke-width: 1.5; stroke-linecap: square"/>
   </g>
   <g id="line2d_6">
    <path d="M 0 459 
L 41.684211 459 
L 83.368421 458.844602 
L 125.052632 459.211188 
L 166.736842 458.654105 
L 208.421053 458.563844 
L 250.105263 457.070066 
L 291.789474 456.646041 
L 333.473684 456.267562 
L 375.157895 456.595287 
L 416.842105 458.000043 
L 458.526316 459.066881 
L 500.210526 459.31558 
L 541.894737 459.474758 
L 583.578947 459.736174 
L 625.263158 459.871784 
L 666.947368 460.024761 
L 708.631579 460.238352 
L 750.315789 460.391043 
" clip-path="url(#pdf6c8b2467)" style="fill: none; stroke: #000000; stroke-width: 1.5; stroke-linecap: square"/>
   </g>
   <g id="line2d_7">
    <path d="M 0 459 
L 41.684211 459 
L 83.368421 458.846248 
L 125.052632 459.206036 
L 166.736842 458.673116 
L 208.421053 458.582592 
L 250.105263 457.161351 
L 291.789474 456.748981 
L 333.473684 456.382973 
L 375.157895 456.670947 
L 416.842105 457.94432 
L 458.526316 459.011635 
L 500.210526 459.239429 
L 541.894737 459.387236 
L 583.578947 459.62409 
L 625.263158 459.750813 
L 666.947368 459.891652 
L 708.631579 460.08356 
L 750.315789 460.223262 
" clip-path="url(#pdf6c8b2467)" style="fill: none; stroke: #000000; stroke-width: 1.5; stroke-linecap: square"/>
   </g>
   <g id="line2d_8">
    <path d="M 0 459 
L 41.684211 459 
L 83.368421 458.847072 
L 125.052632 459.203476 
L 166.736842 458.682412 
L 208.421053 458.591896 
L 250.105263 457.206317 
L 291.789474 456.800215 
L 333.473684 456.440846 
L 375.157895 456.710222 
L 416.842105 457.920663 
L 458.526316 458.957849 
L 500.210526 459.20329 
L 541.894737 459.345103 
L 583.578947 459.569714 
L 625.263158 459.691477 
L 666.947368 459.825831 
L 708.631579 460.006772 
L 750.315789 460.139461 
" clip-path="url(#pdf6c8b2467)" style="fill: none; stroke: #000000; stroke-width: 1.5; stroke-linecap: square"/>
   </g>
   <g id="line2d_9">
    <path d="M 0 459 
L 41.684211 459 
L 83.368421 458.847484 
L 125.052632 459.2022 
L 166.736842 458.687007 
L 208.421053 458.596529 
L 250.105263 457.228624 
L 291.789474 456.825756 
L 333.473684 456.469799 
L 375.157895 456.730194 
L 416.842105 457.909877 
L 458.526316 458.920808 
L 500.210526 459.185736 
L 541.894737 459.324494 
L 583.578947 459.543016 
L 625.263158 459.662194 
L 666.947368 459.793228 
L 708.631579 459.968682 
L 750.315789 460.097767 
" clip-path="url(#pdf6c8b2467)" style="fill: none; stroke: #000000; stroke-width: 1.5; stroke-linecap: square"/>
   </g>
  </g>
 </g>
 <defs>
  <clipPath id="pdf6c8b2467">
   <rect x="0" y="0" width="792" height="612"/>
  </clipPath>
 </defs>
</svg>
