<?xml version="1.0" encoding="utf-8" standalone="no"?>
<!DOCTYPE svg PUBLIC "-//W3C//DTD SVG 1.1//EN"
  "http://www.w3.org/Graphics/SVG/1.1/DTD/svg11.dtd">
<svg xmlns:xlink="http://www.w3.org/1999/xlink" width="792pt" height="612pt" viewBox="0 0 792 612" xmlns="http://www.w3.org/2000/svg" version="1.1">
 <metadata>
  <rdf:RDF xmlns:dc="http://purl.org/dc/elements/1.1/" xmlns:cc="http://creativecommons.org/ns#" xmlns:rdf="http://www.w3.org/1999/02/22-rdf-syntax-ns#">
   <cc:Work>
    <dc:type rdf:resource="http://purl.org/dc/dcmitype/StillImage"/>
    <dc:date>2023-01-02T15:39:41.797463</dc:date>
    <dc:format>image/svg+xml</dc:format>
    <dc:creator>
     <cc:Agent>
      <dc:title>Matplotlib v3.6.2, https://matplotlib.org/</dc:title>
     </cc:Agent>
    </dc:creator>
   </cc:Work>
  </rdf:RDF>
 </metadata>
 <defs>
  <style type="text/css">*{stroke-linejoin: round; stroke-linecap: butt}</style>
 </defs>
 <g id="figure_1">
  <g id="patch_1">
   <path d="M 0 612 
L 792 612 
L 792 0 
L 0 0 
z
" style="fill: #ffffff"/>
  </g>
  <g id="axes_1">
   <g id="line2d_1">
    <path d="M 0 306 
L 3.155378 306.079753 
L 6.310757 307.503897 
L 9.466135 303.151769 
L 12.621514 308.99633 
L 15.776892 309.019114 
L 18.932271 308.608992 
L 22.087649 307.367181 
L 25.243028 305.441731 
L 28.398406 310.215237 
L 31.553785 307.40136 
L 34.709163 307.435539 
L 37.864542 308.381142 
L 41.01992 304.336601 
L 44.175299 307.116534 
L 47.330677 309.338091 
L 50.486056 306.945637 
L 53.641434 307.264644 
L 56.796813 297.628049 
L 63.10757 306.524089 
L 66.262948 302.251807 
L 69.418327 307.86847 
L 72.573705 306.660808 
L 78.884462 305.737955 
L 82.039841 306.250652 
L 85.195219 309.406442 
L 88.350598 307.94822 
L 91.505976 308.016577 
L 94.661355 305.521484 
L 97.816733 306.820312 
L 100.972112 308.46089 
L 104.12749 306.375977 
L 107.282869 303.607466 
L 110.438247 311.593464 
L 113.593625 309.144427 
L 116.749004 300.964637 
L 119.904382 311.331503 
L 123.059761 311.855417 
L 126.215139 304.507496 
L 129.370518 310.88729 
L 132.525896 306.95703 
L 135.681275 319.071495 
L 138.836653 307.754542 
L 141.992032 306.364584 
L 145.14741 306.535482 
L 148.302789 300.452094 
L 151.458167 306.786133 
L 154.613546 298.721084 
L 157.768924 299.654867 
L 160.924303 306.763346 
L 164.079681 304.347994 
L 167.23506 310.101326 
L 170.390438 302.810005 
L 173.545817 308.278609 
L 176.701195 301.283567 
L 179.856574 304.496103 
L 183.011952 304.450531 
L 186.167331 300.042082 
L 189.322709 305.020184 
L 192.478088 307.993791 
L 195.633466 303.755569 
L 198.788845 308.757093 
L 201.944223 304.085958 
L 205.099602 302.639125 
L 208.25498 302.696085 
L 211.410359 309.303915 
L 214.565737 307.150713 
L 217.721116 307.458325 
L 220.876494 303.53911 
L 224.031873 306.934244 
L 227.187251 305.373372 
L 230.342629 301.055758 
L 233.498008 305.487304 
L 236.653386 306.683594 
L 239.808765 311.787083 
L 242.964143 302.912533 
L 246.119522 310.89868 
L 249.2749 307.640613 
L 252.430279 297.969601 
L 255.585657 311.730137 
L 258.741036 308.871016 
L 261.896414 306.877278 
L 265.051793 296.375876 
L 268.207171 312.151528 
L 271.36255 303.880889 
L 274.517928 309.748193 
L 277.673307 308.062148 
L 280.828685 307.424146 
L 287.139442 305.031577 
L 290.294821 307.13932 
L 293.450199 308.7457 
L 296.605578 318.047831 
L 299.760956 308.335572 
L 302.916335 300.406536 
L 306.071713 301.34052 
L 309.227092 298.573058 
L 312.38247 306.581055 
L 315.537849 301.35191 
L 318.693227 301.693635 
L 321.848606 305.61263 
L 325.003984 309.338091 
L 328.159363 304.746749 
L 331.314741 308.301394 
L 334.47012 306.330404 
L 337.625498 305.00879 
L 340.780876 309.793759 
L 343.936255 309.930456 
L 347.091633 311.4454 
L 350.247012 304.758142 
L 353.40239 305.669596 
L 356.557769 305.840494 
L 359.713147 310.226628 
L 362.868526 306.922851 
L 366.023904 300.064859 
L 369.179283 302.046761 
L 372.334661 305.407552 
L 375.49004 301.078539 
L 378.645418 306.99121 
L 381.800797 310.784776 
L 384.956175 300.406536 
L 388.111554 306.979816 
L 391.266932 299.074085 
L 394.422311 306.763346 
L 397.577689 306.945637 
L 400.733068 304.313816 
L 403.888446 305.658203 
L 407.043825 305.954427 
L 410.199203 308.050755 
L 413.354582 304.644212 
L 416.50996 306.079753 
L 419.665339 303.2543 
L 422.820717 308.950761 
L 425.976096 301.35191 
L 429.131474 308.187467 
L 432.286853 307.264644 
L 435.442231 305.407552 
L 438.59761 310.112717 
L 441.752988 298.356717 
L 444.908367 303.949245 
L 448.063745 300.793786 
L 451.219124 306.102539 
L 454.374502 305.020184 
L 457.52988 309.622885 
L 460.685259 304.815108 
L 463.840637 307.652006 
L 466.996016 307.606434 
L 470.151394 308.768485 
L 473.306773 302.285982 
L 476.462151 304.518889 
L 479.61753 308.369749 
L 482.772908 302.696085 
L 485.928287 302.285982 
L 489.083665 305.031577 
L 492.239044 305.396158 
L 495.394422 306.273438 
L 498.549801 306.045573 
L 501.705179 310.089934 
L 504.860558 308.7457 
L 508.015936 305.635416 
L 511.171315 304.063173 
L 514.326693 312.390686 
L 517.482072 307.469718 
L 520.63745 308.472282 
L 523.792829 307.378574 
L 526.948207 301.226614 
L 530.103586 308.233038 
L 533.258964 306.136719 
L 536.414343 301.408863 
L 539.569721 304.108744 
L 542.7251 306.638021 
L 545.880478 305.031577 
L 549.035857 312.880365 
L 552.191235 304.416352 
L 555.346614 308.563422 
L 558.501992 304.359387 
L 561.657371 303.607466 
L 564.812749 307.834292 
L 567.968127 310.921461 
L 574.278884 308.267216 
L 577.434263 308.495067 
L 580.589641 314.041785 
L 583.74502 305.726562 
L 586.900398 308.8938 
L 590.055777 310.169673 
L 593.211155 300.759616 
L 596.366534 302.399898 
L 599.521912 305.327799 
L 602.677291 310.944242 
L 605.832669 307.777328 
L 608.988048 303.994816 
L 612.143426 303.607466 
L 615.298805 305.988607 
L 618.454183 294.964725 
L 621.609562 310.089934 
L 624.76494 302.217633 
L 627.920319 302.912533 
L 631.075697 304.222672 
L 634.231076 307.116534 
L 637.386454 300.5546 
L 640.541833 305.122722 
L 643.697211 305.532877 
L 646.85259 304.997397 
L 650.007968 296.318967 
L 653.163347 295.283333 
L 656.318725 308.119111 
L 659.474104 305.669596 
L 662.629482 308.939369 
L 665.784861 303.060631 
L 668.940239 304.097351 
L 675.250996 303.732784 
L 678.406375 306.694987 
L 681.561753 308.176075 
L 684.717131 311.115094 
L 687.87251 304.997397 
L 691.027888 311.046754 
L 694.183267 300.679887 
L 697.338645 305.031577 
L 700.494024 305.988607 
L 703.649402 304.689784 
L 706.804781 305.726562 
L 709.960159 307.697577 
L 713.115538 304.028994 
L 716.270916 308.41532 
L 719.426295 307.674792 
L 722.581673 304.427745 
L 725.737052 305.305013 
L 728.89243 306 
L 732.047809 308.062148 
L 735.203187 305.794921 
L 738.358566 307.62922 
L 741.513944 302.525207 
L 744.669323 307.538076 
L 747.824701 300.782396 
L 750.98008 308.665954 
L 754.135458 305.715169 
L 757.290837 309.189995 
L 760.446215 312.390686 
L 763.601594 306.330404 
L 766.756972 304.382173 
L 769.912351 304.963218 
L 773.067729 308.722916 
L 776.223108 303.949245 
L 779.378486 306.831705 
L 782.533865 307.971006 
L 785.689243 305.065756 
L 788.844622 308.734308 
L 788.844622 308.734308 
" clip-path="url(#p262e55c546)" style="fill: none; stroke: #000000; stroke-width: 1.5; stroke-linecap: square"/>
   </g>
   <g id="line2d_2">
    <path d="M 0 306 
L 6.310757 306.053169 
L 9.466135 306.882161 
L 12.621514 304.892581 
L 15.776892 307.010688 
L 18.932271 308.030863 
L 22.087649 308.322205 
L 25.243028 307.842825 
L 28.398406 306.641193 
L 31.553785 308.436407 
L 34.709163 307.918688 
L 37.864542 307.685514 
L 41.01992 308.032124 
L 44.175299 306.175188 
L 47.330677 306.642936 
L 50.486056 307.994417 
L 53.641434 307.47298 
L 56.796813 307.363026 
L 59.952191 302.475485 
L 63.10757 302.313456 
L 66.262948 304.415056 
L 69.418327 303.32931 
L 72.573705 305.600343 
L 75.729084 306.125326 
L 78.884462 306.180907 
L 82.039841 305.956438 
L 85.195219 306.120456 
L 88.350598 307.777685 
L 94.661355 307.952464 
L 97.816733 306.732384 
L 100.972112 306.776661 
L 104.12749 307.623144 
L 107.282869 307.000816 
L 110.438247 305.298936 
L 113.593625 308.450748 
L 116.749004 308.799937 
L 119.904382 304.868275 
L 123.059761 308.111516 
L 126.215139 309.993488 
L 129.370518 307.242841 
L 132.525896 309.07402 
L 135.681275 308.022117 
L 138.836653 313.563937 
L 141.992032 310.656934 
L 145.14741 308.521471 
L 148.302789 307.519088 
L 151.458167 303.962961 
L 154.613546 305.379002 
L 157.768924 302.025721 
L 160.924303 300.825901 
L 164.079681 303.770268 
L 167.23506 304.05245 
L 170.390438 307.08432 
L 173.545817 304.939806 
L 176.701195 306.624573 
L 179.856574 303.943124 
L 183.011952 304.230938 
L 186.167331 304.350139 
L 189.322709 302.182743 
L 192.478088 303.60273 
L 195.633466 305.794117 
L 198.788845 304.776684 
L 201.944223 306.767859 
L 208.25498 304.032077 
L 211.410359 303.360628 
L 214.565737 306.350465 
L 220.876494 307.105498 
L 224.031873 305.321857 
L 227.187251 306.124477 
L 230.342629 305.751448 
L 233.498008 303.400346 
L 239.808765 305.561293 
L 242.964143 308.683556 
L 246.119522 305.789113 
L 249.2749 308.358491 
L 252.430279 308.00094 
L 255.585657 302.96994 
L 258.741036 307.371247 
L 261.896414 308.127779 
L 265.051793 307.502914 
L 268.207171 301.907832 
L 271.36255 307.048086 
L 274.517928 305.450712 
L 277.673307 307.603664 
L 280.828685 307.852699 
L 283.984064 307.629979 
L 287.139442 306.94662 
L 290.294821 305.985479 
L 293.450199 306.583513 
L 296.605578 307.657948 
L 299.760956 312.882643 
L 302.916335 310.606592 
L 306.071713 305.491415 
L 309.227092 303.40392 
L 312.38247 300.973079 
L 315.537849 303.779918 
L 318.693227 302.554513 
L 321.848606 302.11024 
L 325.003984 303.836971 
L 328.159363 306.589544 
L 331.314741 305.676655 
L 334.47012 307.002692 
L 337.625498 306.681762 
L 340.780876 305.842192 
L 343.936255 307.834605 
L 347.091633 308.898714 
L 350.247012 310.183565 
L 353.40239 307.461989 
L 356.557769 306.567607 
L 359.713147 306.199226 
L 362.868526 308.220662 
L 366.023904 307.575517 
L 369.179283 303.800783 
L 372.334661 302.908289 
L 375.49004 304.14605 
L 378.645418 302.604994 
L 381.800797 304.800632 
L 384.956175 307.802571 
L 388.111554 304.08502 
L 391.266932 305.53252 
L 394.422311 302.300947 
L 397.577689 304.541317 
L 400.733068 305.746489 
L 403.888446 305.036491 
L 410.199203 305.640107 
L 413.354582 306.860434 
L 416.50996 305.74774 
L 419.665339 305.927485 
L 422.820717 304.583985 
L 425.976096 306.771344 
L 429.131474 304.055667 
L 432.286853 306.126532 
L 435.442231 306.698159 
L 438.59761 306.047673 
L 441.752988 308.091009 
L 444.908367 303.208016 
L 448.063745 303.579989 
L 451.219124 302.170816 
L 454.374502 304.145916 
L 457.52988 304.576837 
L 460.685259 307.10456 
L 463.840637 305.958672 
L 466.996016 306.800519 
L 470.151394 307.221618 
L 473.306773 308.004514 
L 476.462151 305.1481 
L 479.61753 304.830388 
L 482.772908 306.606656 
L 485.928287 304.637733 
L 489.083665 303.456861 
L 492.239044 304.239069 
L 495.394422 304.813276 
L 498.549801 305.538462 
L 501.705179 305.799389 
L 504.860558 307.955681 
L 508.015936 308.351432 
L 514.326693 305.534664 
L 517.482072 308.977477 
L 520.63745 308.227677 
L 523.792829 308.354291 
L 526.948207 307.869051 
L 530.103586 304.530282 
L 533.258964 306.380669 
L 536.414343 306.259677 
L 539.569721 303.828929 
L 542.7251 303.952596 
L 545.880478 305.293664 
L 549.035857 305.155874 
L 552.191235 309.029389 
L 555.346614 306.729167 
L 558.501992 307.646957 
L 561.657371 305.999687 
L 564.812749 304.80787 
L 567.968127 306.328394 
L 571.123506 308.633474 
L 574.278884 309.114316 
L 577.434263 308.681724 
L 580.589641 308.596393 
L 583.74502 311.330252 
L 586.900398 308.5313 
L 590.055777 308.722916 
L 593.211155 309.450892 
L 596.366534 305.085147 
L 599.521912 303.728406 
L 602.677291 304.522329 
L 605.832669 307.738279 
L 608.988048 307.745517 
L 612.143426 305.866766 
L 615.298805 304.726733 
L 618.454183 305.349469 
L 621.609562 300.144047 
L 624.76494 305.131836 
L 627.920319 303.668583 
L 631.075697 303.274806 
L 634.231076 303.741764 
L 637.386454 305.435253 
L 640.541833 302.988749 
L 643.697211 304.054014 
L 646.85259 304.814169 
L 650.007968 304.895797 
L 653.163347 300.594754 
L 656.318725 297.923479 
L 659.474104 303.028107 
L 662.629482 304.345984 
L 665.784861 306.659155 
L 668.940239 304.85581 
L 672.095618 304.473763 
L 678.406375 303.988517 
L 684.717131 306.770227 
L 687.87251 308.953486 
L 691.027888 306.967753 
L 694.183267 309.023046 
L 697.338645 304.844551 
L 700.494024 304.940164 
L 703.649402 305.468807 
L 706.804781 305.075362 
L 709.960159 305.396158 
L 713.115538 306.540174 
L 716.270916 305.282673 
L 719.426295 306.843858 
L 722.581673 307.273044 
L 725.737052 305.849207 
L 728.89243 305.575769 
L 732.047809 305.790454 
L 735.203187 306.930893 
L 738.358566 306.359178 
L 741.513944 307.001262 
L 744.669323 304.751619 
L 747.824701 306.144583 
L 750.98008 303.456146 
L 754.135458 306.067645 
L 757.290837 305.890848 
L 760.446215 307.542678 
L 763.601594 309.979863 
L 769.912351 306.27107 
L 773.067729 305.612093 
L 776.223108 307.183105 
L 779.378486 305.556914 
L 782.533865 306.1965 
L 785.689243 307.081372 
L 788.844622 306.0592 
L 788.844622 306.0592 
" clip-path="url(#p262e55c546)" style="fill: none; stroke: #000000; stroke-width: 1.5; stroke-linecap: square"/>
   </g>
   <g id="line2d_3">
    <path d="M 0 306 
L 6.310757 306.046718 
L 9.466135 306.706944 
L 12.621514 305.318531 
L 15.776892 306.627082 
L 18.932271 307.427802 
L 22.087649 307.807315 
L 25.243028 307.669809 
L 28.398406 306.987054 
L 31.553785 307.963123 
L 37.864542 307.687954 
L 41.01992 307.893255 
L 44.175299 306.843343 
L 47.330677 306.923803 
L 50.486056 307.63373 
L 53.641434 307.43328 
L 56.796813 307.385249 
L 59.952191 304.515491 
L 63.10757 303.827962 
L 66.262948 304.614784 
L 69.418327 303.914881 
L 72.573705 305.071997 
L 75.729084 305.536536 
L 78.884462 305.743275 
L 82.039841 305.736574 
L 85.195219 305.885822 
L 88.350598 306.91929 
L 94.661355 307.457656 
L 97.816733 306.888737 
L 100.972112 306.865804 
L 104.12749 307.334743 
L 107.282869 307.052908 
L 110.438247 306.05062 
L 113.593625 307.68507 
L 116.749004 308.115526 
L 119.904382 306.019491 
L 123.059761 307.579466 
L 126.215139 308.837968 
L 129.370518 307.567653 
L 132.525896 308.54594 
L 135.681275 308.081381 
L 138.836653 311.313241 
L 145.14741 309.12489 
L 148.302789 308.367664 
L 151.458167 306.041787 
L 154.613546 306.257878 
L 157.768924 304.041233 
L 160.924303 302.751792 
L 164.079681 303.921147 
L 167.23506 304.040657 
L 170.390438 305.826334 
L 173.545817 304.933054 
L 176.701195 305.908844 
L 179.856574 304.55033 
L 186.167331 304.501799 
L 189.322709 303.173562 
L 192.478088 303.711269 
L 195.633466 304.967444 
L 198.788845 304.609296 
L 201.944223 305.833713 
L 205.099602 305.3187 
L 208.25498 304.538343 
L 211.410359 304.002235 
L 214.565737 305.557997 
L 220.876494 306.443697 
L 224.031873 305.593786 
L 227.187251 305.984853 
L 230.342629 305.810452 
L 233.498008 304.413771 
L 236.653386 304.729389 
L 239.808765 305.309388 
L 242.964143 307.214629 
L 246.119522 305.948712 
L 249.2749 307.406842 
L 252.430279 307.47403 
L 255.585657 304.682695 
L 258.741036 306.757475 
L 261.896414 307.383626 
L 265.051793 307.232533 
L 268.207171 304.039414 
L 271.36255 306.421012 
L 274.517928 305.67741 
L 277.673307 306.873 
L 280.828685 307.224386 
L 283.984064 307.290209 
L 287.139442 306.993309 
L 290.294821 306.416835 
L 293.450199 306.623107 
L 296.605578 307.251516 
L 299.760956 310.423423 
L 302.916335 309.812738 
L 306.071713 307.060478 
L 309.227092 305.373105 
L 312.38247 303.369224 
L 315.537849 304.309579 
L 318.693227 303.448959 
L 321.848606 302.922802 
L 325.003984 303.712592 
L 328.159363 305.359801 
L 331.314741 305.176434 
L 334.47012 306.092732 
L 337.625498 306.16241 
L 340.780876 305.824496 
L 343.936255 306.990169 
L 347.091633 307.852763 
L 350.247012 308.89753 
L 353.40239 307.681064 
L 356.557769 307.097972 
L 359.713147 306.734836 
L 362.868526 307.771006 
L 366.023904 307.522982 
L 369.179283 305.336861 
L 372.334661 304.373569 
L 375.49004 304.676177 
L 378.645418 303.612884 
L 381.800797 304.604927 
L 384.956175 306.417923 
L 388.111554 304.65025 
L 391.266932 305.334824 
L 394.422311 303.488491 
L 397.577689 304.44401 
L 400.733068 305.171544 
L 403.888446 304.919809 
L 410.199203 305.375888 
L 413.354582 306.156847 
L 416.50996 305.711187 
L 419.665339 305.826047 
L 422.820717 305.074168 
L 425.976096 306.21369 
L 429.131474 304.789924 
L 432.286853 305.786422 
L 435.442231 306.215341 
L 438.59761 305.98449 
L 441.752988 307.197285 
L 444.908367 304.606666 
L 448.063745 304.410878 
L 451.219124 303.344299 
L 454.374502 304.154199 
L 457.52988 304.407105 
L 460.685259 305.939025 
L 463.840637 305.606119 
L 466.996016 306.208805 
L 470.151394 306.619918 
L 473.306773 307.255568 
L 476.462151 305.792306 
L 479.61753 305.422966 
L 482.772908 306.286282 
L 485.928287 305.229454 
L 489.083665 304.363706 
L 495.394422 304.808383 
L 498.549801 305.240154 
L 501.705179 305.482088 
L 504.860558 306.836344 
L 508.015936 307.399874 
L 511.171315 306.878501 
L 514.326693 306.053041 
L 517.482072 307.914985 
L 520.63745 307.784413 
L 523.792829 307.985547 
L 526.948207 307.81362 
L 530.103586 305.88045 
L 533.258964 306.569361 
L 536.414343 306.446595 
L 539.569721 304.969973 
L 542.7251 304.716663 
L 545.880478 305.280838 
L 549.035857 305.206405 
L 552.191235 307.462235 
L 555.346614 306.563603 
L 558.501992 307.149139 
L 564.812749 305.532456 
L 567.968127 306.20142 
L 571.123506 307.587963 
L 574.278884 308.171923 
L 580.589641 308.295376 
L 583.74502 309.985482 
L 586.900398 308.737688 
L 590.055777 308.79201 
L 593.211155 309.202493 
L 596.366534 306.72281 
L 599.521912 305.453589 
L 602.677291 305.408069 
L 605.832669 307.037197 
L 608.988048 307.253075 
L 612.143426 306.298331 
L 615.298805 305.510181 
L 618.454183 305.648188 
L 621.609562 302.499491 
L 624.76494 304.72324 
L 627.920319 303.982383 
L 631.075697 303.662613 
L 634.231076 303.815369 
L 637.386454 304.783836 
L 640.541833 303.535423 
L 646.85259 304.450574 
L 650.007968 304.613717 
L 653.163347 302.173136 
L 656.318725 300.136458 
L 659.474104 302.474574 
L 662.629482 303.412249 
L 665.784861 305.037216 
L 668.940239 304.454909 
L 678.406375 304.090681 
L 681.561753 304.857798 
L 684.717131 305.834246 
L 687.87251 307.385694 
L 691.027888 306.691286 
L 694.183267 307.973886 
L 697.338645 305.83181 
L 700.494024 305.597466 
L 703.649402 305.723139 
L 706.804781 305.431284 
L 709.960159 305.51502 
L 713.115538 306.156611 
L 716.270916 305.527799 
L 719.426295 306.379699 
L 722.581673 306.763135 
L 725.737052 306.079649 
L 728.89243 305.854569 
L 732.047809 305.896366 
L 735.203187 306.530587 
L 738.358566 306.309004 
L 741.513944 306.698713 
L 744.669323 305.46649 
L 747.824701 306.081125 
L 750.98008 304.524145 
L 754.135458 305.74034 
L 757.290837 305.734145 
L 760.446215 306.750351 
L 763.601594 308.407982 
L 766.756972 307.802131 
L 769.912351 306.795825 
L 773.067729 306.255952 
L 776.223108 306.98346 
L 779.378486 306.093195 
L 782.533865 306.310456 
L 785.689243 306.796721 
L 788.844622 306.288896 
L 788.844622 306.288896 
" clip-path="url(#p262e55c546)" style="fill: none; stroke: #000000; stroke-width: 1.5; stroke-linecap: square"/>
   </g>
   <g id="line2d_4">
    <path d="M 0 306 
L 6.310757 306.043323 
L 9.466135 306.61655 
L 12.621514 305.514007 
L 15.776892 306.47003 
L 18.932271 307.097431 
L 22.087649 307.439683 
L 25.243028 307.424302 
L 28.398406 307.02491 
L 31.553785 307.64154 
L 37.864542 307.567359 
L 41.01992 307.712044 
L 44.175299 307.122935 
L 47.330677 307.121835 
L 50.486056 307.497971 
L 56.796813 307.381819 
L 59.952191 305.769724 
L 63.10757 305.178829 
L 66.262948 305.39864 
L 69.418327 304.886628 
L 72.573705 305.370033 
L 78.884462 305.685162 
L 85.195219 305.783106 
L 88.350598 306.364154 
L 94.661355 306.841636 
L 97.816733 306.630615 
L 100.972112 306.660915 
L 104.12749 306.948839 
L 107.282869 306.85788 
L 110.438247 306.33829 
L 113.593625 307.179768 
L 116.749004 307.492456 
L 119.904382 306.448768 
L 126.215139 307.966633 
L 129.370518 307.4157 
L 132.525896 307.968509 
L 135.681275 307.807304 
L 138.836653 309.607859 
L 141.992032 309.312613 
L 148.302789 308.477085 
L 151.458167 307.194678 
L 154.613546 307.129578 
L 157.768924 305.786211 
L 160.924303 304.811819 
L 164.079681 305.125176 
L 167.23506 305.000165 
L 170.390438 305.816712 
L 173.545817 305.33516 
L 176.701195 305.804489 
L 179.856574 305.082045 
L 186.167331 304.9014 
L 189.322709 304.122322 
L 192.478088 304.263346 
L 195.633466 304.856853 
L 198.788845 304.68053 
L 201.944223 305.330341 
L 205.099602 305.129623 
L 211.410359 304.40668 
L 214.565737 305.184429 
L 220.876494 305.81229 
L 224.031873 305.445749 
L 227.187251 305.679503 
L 230.342629 305.631336 
L 233.498008 304.897147 
L 236.653386 304.990126 
L 239.808765 305.251827 
L 242.964143 306.294234 
L 246.119522 305.754023 
L 249.2749 306.575345 
L 252.430279 306.74932 
L 255.585657 305.346642 
L 258.741036 306.370502 
L 261.896414 306.774106 
L 265.051793 306.790592 
L 268.207171 305.128096 
L 271.36255 306.246959 
L 274.517928 305.871171 
L 277.673307 306.488966 
L 280.828685 306.743498 
L 283.984064 306.853619 
L 287.139442 306.762448 
L 290.294821 306.490174 
L 293.450199 306.594778 
L 296.605578 306.937476 
L 299.760956 308.715018 
L 302.916335 308.654384 
L 306.071713 307.339774 
L 309.227092 306.38441 
L 312.38247 305.138793 
L 315.537849 305.366562 
L 318.693227 304.724148 
L 321.848606 304.238354 
L 325.003984 304.458296 
L 328.159363 305.236201 
L 331.314741 305.157936 
L 334.47012 305.662598 
L 337.625498 305.769374 
L 340.780876 305.647317 
L 350.247012 307.612612 
L 353.40239 307.156663 
L 359.713147 306.74867 
L 362.868526 307.302907 
L 366.023904 307.242468 
L 369.179283 306.102675 
L 372.334661 305.451025 
L 375.49004 305.445061 
L 378.645418 304.744861 
L 381.800797 305.101592 
L 384.956175 306.007964 
L 388.111554 305.112999 
L 391.266932 305.411231 
L 394.422311 304.397761 
L 400.733068 305.11165 
L 403.888446 304.982201 
L 410.199203 305.232961 
L 413.354582 305.687201 
L 416.50996 305.520048 
L 419.665339 305.612049 
L 422.820717 305.237886 
L 425.976096 305.830714 
L 429.131474 305.113082 
L 432.286853 305.604379 
L 435.442231 305.867887 
L 438.59761 305.79407 
L 441.752988 306.484406 
L 444.908367 305.183874 
L 448.063745 304.983705 
L 451.219124 304.310361 
L 454.374502 304.596338 
L 457.52988 304.663367 
L 460.685259 305.454825 
L 463.840637 305.349667 
L 473.306773 306.463053 
L 476.462151 305.79649 
L 479.61753 305.595364 
L 482.772908 306.037646 
L 489.083665 304.990563 
L 495.394422 305.063505 
L 501.705179 305.380812 
L 504.860558 306.133692 
L 508.015936 306.55121 
L 511.171315 306.405305 
L 514.326693 306.030171 
L 517.482072 307.04713 
L 520.63745 307.115233 
L 523.792829 307.334404 
L 526.948207 307.340451 
L 530.103586 306.367585 
L 533.258964 306.664419 
L 536.414343 306.579756 
L 539.569721 305.754499 
L 542.7251 305.488904 
L 545.880478 305.676901 
L 549.035857 305.574902 
L 552.191235 306.744953 
L 555.346614 306.373411 
L 558.501992 306.724069 
L 564.812749 305.908312 
L 567.968127 306.214859 
L 571.123506 306.96583 
L 574.278884 307.381851 
L 580.589641 307.683043 
L 583.74502 308.698521 
L 586.900398 308.227582 
L 590.055777 308.337704 
L 593.211155 308.632397 
L 596.366534 307.37688 
L 599.521912 306.582588 
L 602.677291 306.382499 
L 605.832669 307.108886 
L 608.988048 307.214634 
L 615.298805 306.20879 
L 618.454183 306.169763 
L 621.609562 304.378449 
L 624.76494 305.288204 
L 627.920319 304.796419 
L 631.075697 304.497728 
L 634.231076 304.451464 
L 637.386454 304.876092 
L 640.541833 304.187919 
L 650.007968 304.601662 
L 656.318725 301.995643 
L 659.474104 302.969544 
L 662.629482 303.399928 
L 665.784861 304.28458 
L 668.940239 304.086862 
L 678.406375 304.006032 
L 681.561753 304.432722 
L 684.717131 305.024639 
L 687.87251 305.997088 
L 691.027888 305.835602 
L 694.183267 306.665334 
L 697.338645 305.712894 
L 700.494024 305.606135 
L 703.649402 305.6674 
L 706.804781 305.507954 
L 709.960159 305.541456 
L 713.115538 305.886815 
L 716.270916 305.591488 
L 719.426295 306.042292 
L 722.581673 306.309964 
L 725.737052 306.006961 
L 728.89243 305.897205 
L 732.047809 305.915487 
L 735.203187 306.259429 
L 738.358566 306.184699 
L 741.513944 306.418944 
L 744.669323 305.797792 
L 747.824701 306.075931 
L 750.98008 305.231002 
L 754.135458 305.78523 
L 757.290837 305.780594 
L 760.446215 306.323729 
L 763.601594 307.293338 
L 766.756972 307.138505 
L 769.912351 306.700788 
L 773.067729 306.424875 
L 776.223108 306.793483 
L 779.378486 306.341086 
L 782.533865 306.419231 
L 785.689243 306.665999 
L 788.844622 306.40762 
L 788.844622 306.40762 
" clip-path="url(#p262e55c546)" style="fill: none; stroke: #000000; stroke-width: 1.5; stroke-linecap: square"/>
   </g>
   <g id="line2d_5">
    <path d="M 0 306 
L 6.310757 306.041603 
L 9.466135 306.571827 
L 12.621514 305.602676 
L 15.776892 306.403823 
L 18.932271 306.939263 
L 22.087649 307.244013 
L 25.243028 307.264458 
L 28.398406 306.98509 
L 31.553785 307.4477 
L 37.864542 307.440683 
L 41.01992 307.556186 
L 44.175299 307.175924 
L 47.330677 307.169147 
L 50.486056 307.409175 
L 56.796813 307.349317 
L 59.952191 306.349603 
L 63.10757 305.928411 
L 66.262948 305.987414 
L 69.418327 305.623221 
L 72.573705 305.83898 
L 78.884462 305.947148 
L 85.195219 305.957405 
L 88.350598 306.271429 
L 94.661355 306.565766 
L 97.816733 306.472756 
L 100.972112 306.503525 
L 104.12749 306.675859 
L 107.282869 306.649589 
L 110.438247 306.384317 
L 113.593625 306.836698 
L 116.749004 307.036328 
L 119.904382 306.512916 
L 126.215139 307.349282 
L 129.370518 307.106469 
L 132.525896 307.42876 
L 135.681275 307.388642 
L 138.836653 308.380818 
L 141.992032 308.327765 
L 148.302789 308.024439 
L 151.458167 307.385956 
L 154.613546 307.335449 
L 157.768924 306.610865 
L 160.924303 306.026429 
L 164.079681 306.088273 
L 167.23506 305.942357 
L 170.390438 306.290792 
L 173.545817 305.999409 
L 176.701195 306.190066 
L 179.856574 305.779877 
L 186.167331 305.570579 
L 189.322709 305.109127 
L 192.478088 305.101707 
L 195.633466 305.34286 
L 198.788845 305.210555 
L 201.944223 305.506063 
L 208.25498 305.158335 
L 211.410359 304.952405 
L 214.565737 305.315573 
L 220.876494 305.632023 
L 224.031873 305.456665 
L 227.187251 305.579157 
L 230.342629 305.562056 
L 233.498008 305.185036 
L 239.808765 305.331599 
L 242.964143 305.868543 
L 246.119522 305.622734 
L 249.2749 306.061882 
L 252.430279 306.192359 
L 255.585657 305.506828 
L 258.741036 306.024847 
L 261.896414 306.264734 
L 265.051793 306.317104 
L 268.207171 305.488456 
L 271.36255 306.044755 
L 274.517928 305.863862 
L 277.673307 306.187266 
L 283.984064 306.433711 
L 293.450199 306.372812 
L 296.605578 306.569995 
L 299.760956 307.527193 
L 302.916335 307.59478 
L 306.071713 306.995521 
L 309.227092 306.524512 
L 312.38247 305.862814 
L 315.537849 305.920794 
L 321.848606 305.220092 
L 325.003984 305.250809 
L 328.159363 305.589228 
L 331.314741 305.519383 
L 334.47012 305.74944 
L 337.625498 305.797454 
L 340.780876 305.727418 
L 350.247012 306.808961 
L 356.557769 306.559238 
L 359.713147 306.501903 
L 362.868526 306.814502 
L 366.023904 306.823546 
L 369.179283 306.261148 
L 372.334661 305.908731 
L 375.49004 305.867981 
L 378.645418 305.468098 
L 381.800797 305.596368 
L 384.956175 306.029064 
L 388.111554 305.561049 
L 391.266932 305.68106 
L 394.422311 305.130676 
L 400.733068 305.406239 
L 403.888446 305.314125 
L 410.199203 305.395003 
L 413.354582 305.617164 
L 416.50996 305.534896 
L 419.665339 305.579768 
L 422.820717 305.38539 
L 425.976096 305.68307 
L 429.131474 305.321755 
L 435.442231 305.703973 
L 438.59761 305.679345 
L 441.752988 306.048434 
L 444.908367 305.405549 
L 448.063745 305.285017 
L 451.219124 304.908936 
L 457.52988 305.010847 
L 460.685259 305.392953 
L 463.840637 305.343674 
L 473.306773 305.963705 
L 476.462151 305.657935 
L 479.61753 305.561695 
L 482.772908 305.794856 
L 489.083665 305.265061 
L 495.394422 305.257604 
L 501.705179 305.395669 
L 504.860558 305.785864 
L 508.015936 306.034239 
L 511.171315 306.002536 
L 514.326693 305.843362 
L 517.482072 306.388732 
L 526.948207 306.709179 
L 530.103586 306.251477 
L 533.258964 306.417076 
L 536.414343 306.393103 
L 539.569721 305.977801 
L 542.7251 305.822382 
L 545.880478 305.88905 
L 549.035857 305.816288 
L 552.191235 306.403141 
L 555.346614 306.238133 
L 558.501992 306.43207 
L 564.812749 306.03729 
L 567.968127 306.186733 
L 571.123506 306.583265 
L 574.278884 306.834222 
L 580.589641 307.0844 
L 583.74502 307.664272 
L 586.900398 307.501806 
L 593.211155 307.832757 
L 596.366534 307.246235 
L 599.521912 306.842579 
L 602.677291 306.716332 
L 605.832669 307.069422 
L 608.988048 307.128866 
L 615.298805 306.596045 
L 618.454183 306.546068 
L 621.609562 305.580847 
L 624.76494 305.957328 
L 631.075697 305.418479 
L 634.231076 305.31794 
L 637.386454 305.467168 
L 640.541833 305.05782 
L 650.007968 305.094607 
L 656.318725 303.606996 
L 659.474104 303.982479 
L 662.629482 304.121213 
L 665.784861 304.52244 
L 672.095618 304.373389 
L 678.406375 304.287843 
L 684.717131 304.794333 
L 687.87251 305.321706 
L 691.027888 305.295672 
L 694.183267 305.774984 
L 697.338645 305.350532 
L 709.960159 305.35265 
L 713.115538 305.547942 
L 716.270916 305.421862 
L 722.581673 305.835556 
L 728.89243 305.682495 
L 732.047809 305.7104 
L 735.203187 305.905532 
L 738.358566 305.896241 
L 741.513944 306.042097 
L 744.669323 305.749682 
L 747.824701 305.898405 
L 750.98008 305.472372 
L 754.135458 305.73606 
L 757.290837 305.734749 
L 760.446215 306.021734 
L 763.601594 306.553022 
L 766.756972 306.535432 
L 773.067729 306.238094 
L 776.223108 306.444052 
L 779.378486 306.235585 
L 788.844622 306.309696 
L 788.844622 306.309696 
" clip-path="url(#p262e55c546)" style="fill: none; stroke: #000000; stroke-width: 1.5; stroke-linecap: square"/>
   </g>
   <g id="line2d_6">
    <path d="M 0 306 
L 6.310757 306.04074 
L 9.466135 306.549737 
L 12.621514 305.644251 
L 15.776892 306.373995 
L 18.932271 306.86395 
L 22.087649 307.146785 
L 25.243028 307.178687 
L 28.398406 306.950608 
L 31.553785 307.344312 
L 41.01992 307.460151 
L 44.175299 307.16894 
L 47.330677 307.16429 
L 50.486056 307.348622 
L 56.796813 307.311833 
L 59.952191 306.579762 
L 63.10757 306.257306 
L 66.262948 306.27624 
L 69.418327 305.998542 
L 75.729084 306.159416 
L 85.195219 306.144713 
L 91.505976 306.436747 
L 94.661355 306.528833 
L 100.972112 306.49078 
L 104.12749 306.600599 
L 107.282869 306.588243 
L 110.438247 306.426318 
L 113.593625 306.703733 
L 116.749004 306.833298 
L 119.904382 306.525043 
L 126.215139 307.036664 
L 129.370518 306.907586 
L 132.525896 307.108974 
L 135.681275 307.101348 
L 138.836653 307.697838 
L 145.14741 307.635058 
L 148.302789 307.581441 
L 151.458167 307.235978 
L 154.613546 307.214312 
L 160.924303 306.466864 
L 164.079681 306.480911 
L 167.23506 306.380361 
L 170.390438 306.554956 
L 173.545817 306.380032 
L 176.701195 306.468332 
L 179.856574 306.228172 
L 186.167331 306.070225 
L 189.322709 305.794096 
L 192.478088 305.75877 
L 195.633466 305.86046 
L 198.788845 305.764987 
L 201.944223 305.900302 
L 208.25498 305.675487 
L 211.410359 305.541829 
L 217.721116 305.774493 
L 220.876494 305.849497 
L 224.031873 305.746803 
L 230.342629 305.780611 
L 233.498008 305.571812 
L 239.808765 305.617204 
L 242.964143 305.888469 
L 246.119522 305.757844 
L 249.2749 305.983169 
L 252.430279 306.055707 
L 255.585657 305.702226 
L 258.741036 305.965359 
L 265.051793 306.126219 
L 268.207171 305.702028 
L 271.36255 305.982253 
L 274.517928 305.891056 
L 280.828685 306.145084 
L 287.139442 306.203591 
L 293.450199 306.195537 
L 296.605578 306.305532 
L 299.760956 306.811892 
L 302.916335 306.877518 
L 312.38247 306.037434 
L 315.537849 306.060789 
L 321.848606 305.679843 
L 325.003984 305.67696 
L 328.159363 305.833919 
L 331.314741 305.787334 
L 337.625498 305.913654 
L 340.780876 305.874931 
L 350.247012 306.432699 
L 359.713147 306.310632 
L 362.868526 306.477816 
L 366.023904 306.496808 
L 372.334661 306.044243 
L 375.49004 306.017093 
L 378.645418 305.806533 
L 381.800797 305.857027 
L 384.956175 306.067028 
L 388.111554 305.825845 
L 391.266932 305.874998 
L 394.422311 305.585323 
L 403.888446 305.632626 
L 410.199203 305.647233 
L 413.354582 305.749226 
L 422.820717 305.612709 
L 425.976096 305.754292 
L 429.131474 305.566631 
L 435.442231 305.744973 
L 438.59761 305.730336 
L 441.752988 305.91659 
L 444.908367 305.594342 
L 448.063745 305.52453 
L 451.219124 305.32289 
L 466.996016 305.58641 
L 473.306773 305.804591 
L 479.61753 305.605976 
L 482.772908 305.723507 
L 492.239044 305.435076 
L 501.705179 305.492903 
L 508.015936 305.818028 
L 514.326693 305.73617 
L 517.482072 306.018472 
L 526.948207 306.232466 
L 530.103586 306.01845 
L 536.414343 306.11318 
L 539.569721 305.912795 
L 542.7251 305.833819 
L 549.035857 305.832058 
L 552.191235 306.131987 
L 555.346614 306.059908 
L 558.501992 306.166347 
L 564.812749 305.98605 
L 567.968127 306.064589 
L 574.278884 306.411685 
L 580.589641 306.576256 
L 583.74502 306.894968 
L 586.900398 306.845636 
L 593.211155 307.072122 
L 599.521912 306.616119 
L 602.677291 306.56176 
L 605.832669 306.747944 
L 608.988048 306.7922 
L 618.454183 306.519875 
L 621.609562 306.027745 
L 624.76494 306.200416 
L 631.075697 305.898432 
L 634.231076 305.827193 
L 637.386454 305.882864 
L 640.541833 305.656119 
L 650.007968 305.601563 
L 656.318725 304.78255 
L 659.474104 304.925696 
L 662.629482 304.956227 
L 665.784861 305.125113 
L 675.250996 304.953036 
L 678.406375 304.901276 
L 684.717131 305.112473 
L 687.87251 305.367597 
L 691.027888 305.351689 
L 694.183267 305.59416 
L 697.338645 305.384715 
L 709.960159 305.379247 
L 713.115538 305.478594 
L 716.270916 305.418042 
L 722.581673 305.636754 
L 732.047809 305.591495 
L 738.358566 305.700538 
L 741.513944 305.782524 
L 744.669323 305.644006 
L 747.824701 305.723933 
L 750.98008 305.512886 
L 754.135458 305.646106 
L 757.290837 305.649194 
L 760.446215 305.799902 
L 763.601594 306.080458 
L 769.912351 306.017561 
L 773.067729 305.973674 
L 776.223108 306.091346 
L 779.378486 306.000284 
L 788.844622 306.073081 
L 788.844622 306.073081 
" clip-path="url(#p262e55c546)" style="fill: none; stroke: #000000; stroke-width: 1.5; stroke-linecap: square"/>
   </g>
   <g id="line2d_7">
    <path d="M 0 306 
L 6.310757 306.040308 
L 9.466135 306.53878 
L 12.621514 305.664299 
L 15.776892 306.359903 
L 18.932271 306.827462 
L 22.087649 307.098806 
L 25.243028 307.13495 
L 28.398406 306.930109 
L 31.553785 307.29158 
L 41.01992 307.408193 
L 44.175299 307.156585 
L 47.330677 307.153491 
L 50.486056 307.313322 
L 56.796813 307.286213 
L 59.952191 306.672672 
L 63.10757 306.39836 
L 66.262948 306.405732 
L 69.418327 306.17091 
L 75.729084 306.284611 
L 85.195219 306.254979 
L 91.505976 306.474452 
L 94.661355 306.543603 
L 100.972112 306.512597 
L 107.282869 306.585365 
L 110.438247 306.465297 
L 116.749004 306.764495 
L 119.904382 306.542922 
L 126.215139 306.912642 
L 129.370518 306.825078 
L 132.525896 306.970803 
L 135.681275 306.970316 
L 138.836653 307.392598 
L 148.302789 307.341721 
L 151.458167 307.113332 
L 154.613546 307.102612 
L 160.924303 306.601056 
L 176.701195 306.581456 
L 183.011952 306.363671 
L 186.167331 306.306844 
L 189.322709 306.122266 
L 198.788845 306.076486 
L 201.944223 306.153075 
L 214.565737 305.999214 
L 227.187251 306.026452 
L 230.342629 306.008833 
L 233.498008 305.875936 
L 239.808765 305.887281 
L 242.964143 306.043113 
L 246.119522 305.960841 
L 252.430279 306.13035 
L 255.585657 305.918857 
L 261.896414 306.140743 
L 265.051793 306.159579 
L 268.207171 305.910327 
L 271.36255 306.068659 
L 274.517928 306.013382 
L 283.984064 306.188081 
L 296.605578 306.248734 
L 299.760956 306.538742 
L 302.916335 306.582746 
L 312.38247 306.120231 
L 315.537849 306.131384 
L 321.848606 305.911975 
L 331.314741 305.957379 
L 337.625498 306.020768 
L 340.780876 305.99677 
L 353.40239 306.265185 
L 359.713147 306.241599 
L 366.023904 306.348422 
L 372.334661 306.105623 
L 391.266932 305.999177 
L 394.422311 305.840155 
L 413.354582 305.898425 
L 432.286853 305.838011 
L 441.752988 305.955526 
L 444.908367 305.784604 
L 457.52988 305.628883 
L 463.840637 305.698063 
L 476.462151 305.770474 
L 498.549801 305.650367 
L 504.860558 305.757126 
L 511.171315 305.819039 
L 514.326693 305.780279 
L 517.482072 305.926126 
L 526.948207 306.04552 
L 530.103586 305.939466 
L 536.414343 305.993137 
L 542.7251 305.853253 
L 571.123506 306.088879 
L 593.211155 306.55011 
L 599.521912 306.336257 
L 602.677291 306.314297 
L 608.988048 306.444735 
L 618.454183 306.323456 
L 621.609562 306.076497 
L 624.76494 306.163698 
L 634.231076 305.970471 
L 637.386454 305.995342 
L 643.697211 305.860926 
L 650.007968 305.835247 
L 656.318725 305.404679 
L 665.784861 305.543109 
L 678.406375 305.390166 
L 684.717131 305.478022 
L 687.87251 305.599907 
L 691.027888 305.586883 
L 694.183267 305.704892 
L 700.494024 305.584099 
L 760.446215 305.764698 
L 763.601594 305.907454 
L 788.844622 305.928683 
L 788.844622 305.928683 
" clip-path="url(#p262e55c546)" style="fill: none; stroke: #000000; stroke-width: 1.5; stroke-linecap: square"/>
   </g>
   <g id="line2d_8">
    <path d="M 0 306 
L 6.310757 306.040092 
L 9.466135 306.533325 
L 12.621514 305.674132 
L 15.776892 306.353061 
L 18.932271 306.809535 
L 22.087649 307.075034 
L 25.243028 307.112952 
L 28.398406 306.919117 
L 31.553785 307.265047 
L 41.01992 307.381365 
L 44.175299 307.148244 
L 47.330677 307.145966 
L 50.486056 307.294389 
L 56.796813 307.271598 
L 59.952191 306.712946 
L 63.10757 306.461778 
L 66.262948 306.465077 
L 69.418327 306.250996 
L 75.729084 306.345583 
L 85.195219 306.311592 
L 91.505976 306.499356 
L 97.816733 306.519111 
L 113.593625 306.659995 
L 116.749004 306.741055 
L 119.904382 306.55661 
L 126.215139 306.863717 
L 129.370518 306.792931 
L 132.525896 306.91362 
L 135.681275 306.914876 
L 138.836653 307.26055 
L 148.302789 307.230092 
L 151.458167 307.049976 
L 154.613546 307.043075 
L 160.924303 306.646549 
L 176.701195 306.625337 
L 183.011952 306.454118 
L 211.410359 306.081023 
L 220.876494 306.194314 
L 236.653386 306.031223 
L 249.2749 306.181989 
L 252.430279 306.2091 
L 255.585657 306.057108 
L 261.896414 306.21018 
L 265.051793 306.22221 
L 268.207171 306.045882 
L 271.36255 306.154427 
L 277.673307 306.178005 
L 290.294821 306.212011 
L 296.605578 306.270215 
L 299.760956 306.46775 
L 302.916335 306.498874 
L 315.537849 306.194233 
L 325.003984 306.037636 
L 334.47012 306.104165 
L 347.091633 306.206652 
L 353.40239 306.263897 
L 375.49004 306.150582 
L 381.800797 306.088969 
L 384.956175 306.157963 
L 394.422311 305.985133 
L 419.665339 305.991978 
L 429.131474 305.930588 
L 441.752988 306.029344 
L 448.063745 305.896656 
L 454.374502 305.830607 
L 466.996016 305.881096 
L 482.772908 305.908652 
L 495.394422 305.802757 
L 514.326693 305.87818 
L 520.63745 305.98214 
L 530.103586 305.970085 
L 536.414343 306.000879 
L 545.880478 305.927976 
L 555.346614 305.984785 
L 561.657371 305.996452 
L 567.968127 305.989852 
L 583.74502 306.250781 
L 627.920319 306.07597 
L 646.85259 305.947227 
L 653.163347 305.819817 
L 656.318725 305.692934 
L 668.940239 305.727729 
L 684.717131 305.70607 
L 694.183267 305.823957 
L 700.494024 305.75431 
L 788.844622 305.913129 
L 788.844622 305.913129 
" clip-path="url(#p262e55c546)" style="fill: none; stroke: #000000; stroke-width: 1.5; stroke-linecap: square"/>
   </g>
   <g id="line2d_9">
    <path d="M 0 306 
L 6.310757 306.039984 
L 9.466135 306.530604 
L 12.621514 305.679001 
L 15.776892 306.349691 
L 18.932271 306.800654 
L 22.087649 307.06321 
L 25.243028 307.101931 
L 28.398406 306.913445 
L 31.553785 307.251751 
L 41.01992 307.36776 
L 44.175299 307.143547 
L 47.330677 307.141677 
L 50.486056 307.284605 
L 56.796813 307.26384 
L 59.952191 306.731488 
L 63.10757 306.49159 
L 66.262948 306.493222 
L 69.418327 306.289263 
L 75.729084 306.375329 
L 88.350598 306.457585 
L 97.816733 306.530592 
L 113.593625 306.658223 
L 116.749004 306.732177 
L 119.904382 306.564689 
L 126.215139 306.842905 
L 129.370518 306.779559 
L 141.992032 307.214716 
L 148.302789 307.17807 
L 151.458167 307.019364 
L 154.613546 307.013959 
L 160.924303 306.664633 
L 176.701195 306.643932 
L 183.011952 306.494069 
L 211.410359 306.163872 
L 220.876494 306.256004 
L 236.653386 306.113527 
L 296.605578 306.294545 
L 299.760956 306.45246 
L 306.071713 306.397298 
L 325.003984 306.108596 
L 337.625498 306.160581 
L 343.936255 306.190718 
L 356.557769 306.272517 
L 391.266932 306.140333 
L 397.577689 306.070376 
L 419.665339 306.061647 
L 432.286853 306.036252 
L 444.908367 306.005509 
L 466.996016 305.967336 
L 482.772908 305.983443 
L 498.549801 305.907448 
L 520.63745 306.025386 
L 536.414343 306.036924 
L 549.035857 305.976137 
L 555.346614 306.022793 
L 596.366534 306.209955 
L 605.832669 306.210691 
L 618.454183 306.182105 
L 621.609562 306.089702 
L 627.920319 306.090575 
L 672.095618 305.837278 
L 687.87251 305.872711 
L 732.047809 305.869288 
L 747.824701 305.885398 
L 757.290837 305.867183 
L 779.378486 305.930065 
L 788.844622 305.945046 
L 788.844622 305.945046 
" clip-path="url(#p262e55c546)" style="fill: none; stroke: #000000; stroke-width: 1.5; stroke-linecap: square"/>
   </g>
  </g>
 </g>
 <defs>
  <clipPath id="p262e55c546">
   <rect x="0" y="0" width="792" height="612"/>
  </clipPath>
 </defs>
</svg>
