<?xml version="1.0" encoding="utf-8" standalone="no"?>
<!DOCTYPE svg PUBLIC "-//W3C//DTD SVG 1.1//EN"
  "http://www.w3.org/Graphics/SVG/1.1/DTD/svg11.dtd">
<svg xmlns:xlink="http://www.w3.org/1999/xlink" width="792pt" height="612pt" viewBox="0 0 792 612" xmlns="http://www.w3.org/2000/svg" version="1.1">
 <metadata>
  <rdf:RDF xmlns:dc="http://purl.org/dc/elements/1.1/" xmlns:cc="http://creativecommons.org/ns#" xmlns:rdf="http://www.w3.org/1999/02/22-rdf-syntax-ns#">
   <cc:Work>
    <dc:type rdf:resource="http://purl.org/dc/dcmitype/StillImage"/>
    <dc:date>2023-01-23T15:51:48.060001</dc:date>
    <dc:format>image/svg+xml</dc:format>
    <dc:creator>
     <cc:Agent>
      <dc:title>Matplotlib v3.6.2, https://matplotlib.org/</dc:title>
     </cc:Agent>
    </dc:creator>
   </cc:Work>
  </rdf:RDF>
 </metadata>
 <defs>
  <style type="text/css">*{stroke-linejoin: round; stroke-linecap: butt}</style>
 </defs>
 <g id="figure_1">
  <g id="patch_1">
   <path d="M 0 612 
L 792 612 
L 792 0 
L 0 0 
z
" style="fill: #ffffff"/>
  </g>
  <g id="axes_1">
   <g id="line2d_1">
    <path d="M 0 459 
L 3.168 459.751638 
L 6.336 460.998401 
L 9.504 460.127456 
L 12.672 460.712063 
L 15.84 462.459919 
L 19.008 462.955045 
L 22.176 463.617202 
L 25.344 459.23265 
L 28.512 453.685086 
L 31.68 454.508214 
L 34.848 448.622012 
L 38.016 451.555862 
L 41.184 452.593601 
L 44.352 452.96935 
L 47.52 452.557815 
L 50.688 452.951457 
L 53.856 458.302051 
L 57.024 459.78743 
L 60.192 460.843302 
L 63.36 460.592756 
L 66.528 461.022263 
L 69.696 462.310784 
L 72.864 462.507642 
L 76.032 461.254913 
L 79.2 464.183913 
L 82.368 465.830357 
L 85.536 463.19366 
L 88.704 465.985457 
L 91.872 469.051661 
L 95.04 468.270197 
L 98.208 470.829343 
L 101.376 471.330435 
L 104.544 478.178688 
L 107.712 479.097357 
L 114.048 479.568621 
L 117.216 476.663483 
L 120.384 477.075094 
L 123.552 473.263217 
L 126.72 469.940502 
L 129.888 470.340182 
L 133.056 469.475203 
L 136.224 471.622739 
L 139.392 469.952433 
L 142.56 471.145508 
L 145.728 468.675842 
L 152.064 467.077121 
L 155.232 463.957229 
L 158.4 463.444206 
L 161.568 464.488147 
L 164.736 463.312968 
L 167.904 464.756589 
L 171.072 463.754406 
L 177.408 460.26466 
L 180.576 461.994619 
L 183.744 462.597123 
L 186.912 463.360691 
L 190.08 462.072169 
L 193.248 462.56133 
L 196.416 462.233235 
L 199.584 459.644261 
L 202.752 459.375819 
L 205.92 459.733741 
L 209.088 462.764153 
L 212.256 461.147536 
L 215.424 463.712648 
L 218.592 464.571663 
L 221.76 460.366071 
L 224.928 463.366656 
L 228.096 464.869931 
L 231.264 465.329265 
L 234.432 460.288522 
L 237.6 463.509825 
L 240.768 462.400265 
L 243.936 464.362874 
L 247.104 465.442608 
L 250.272 466.18828 
L 253.44 466.331449 
L 256.608 465.824392 
L 259.776 466.42093 
L 262.944 467.858585 
L 266.112 474.169955 
L 269.28 475.392857 
L 272.448 472.463857 
L 275.616 470.024017 
L 278.784 466.134591 
L 281.952 466.438826 
L 285.12 464.004952 
L 288.288 461.750039 
L 291.456 461.547216 
L 294.624 463.295072 
L 297.792 462.63888 
L 300.96 463.843886 
L 304.128 464.016882 
L 307.296 463.497895 
L 313.632 467.54242 
L 316.8 470.393871 
L 319.968 469.743645 
L 326.304 469.487133 
L 329.472 471.700289 
L 332.64 472.183484 
L 335.808 469.075522 
L 338.976 467.005536 
L 342.144 466.695337 
L 345.312 464.118294 
L 348.48 464.637282 
L 351.648 467.14274 
L 354.816 464.21374 
L 357.984 464.726762 
L 361.152 461.099813 
L 367.488 461.994619 
L 370.656 461.111744 
L 373.824 460.932782 
L 376.992 460.908921 
L 380.16 461.982689 
L 383.328 461.272809 
L 386.496 461.314566 
L 389.664 459.87691 
L 392.832 461.421943 
L 396 458.964208 
L 399.168 460.133422 
L 402.336 460.795579 
L 405.504 460.485379 
L 408.672 462.63888 
L 411.84 457.908338 
L 415.008 454.687159 
L 418.176 446.511583 
L 421.344 446.67253 
L 424.512 445.134717 
L 427.68 450.822333 
L 430.848 448.961871 
L 437.184 454.078752 
L 440.352 458.427324 
L 443.52 452.593601 
L 446.688 450.267741 
L 449.856 453.989282 
L 453.024 448.800884 
L 456.192 442.971585 
L 459.36 441.452451 
L 462.528 440.505418 
L 465.696 440.934244 
L 468.864 441.005718 
L 472.032 447.423658 
L 475.2 451.734777 
L 478.368 451.162256 
L 481.536 448.121189 
L 484.704 458.158883 
L 491.04 460.783648 
L 494.208 461.505459 
L 497.376 459.005965 
L 500.544 460.175179 
L 503.712 460.246764 
L 506.88 455.528217 
L 510.048 452.557815 
L 513.216 453.559831 
L 516.384 452.038938 
L 519.552 460.282556 
L 522.72 459.453369 
L 525.888 460.795579 
L 529.056 459.936564 
L 532.224 458.051506 
L 535.392 459.644261 
L 538.56 462.221304 
L 541.728 464.094432 
L 544.896 465.281542 
L 548.064 466.58796 
L 551.232 470.799517 
L 554.4 470.656347 
L 557.568 472.171553 
L 560.736 474.354881 
L 563.904 471.610808 
L 567.072 469.725749 
L 570.24 469.373791 
L 573.408 471.962765 
L 576.576 472.893364 
L 579.744 471.843458 
L 582.912 470.590728 
L 586.08 470.584763 
L 589.248 464.804312 
L 592.416 466.945883 
L 595.584 464.965377 
L 598.752 463.34876 
L 601.92 462.418161 
L 605.088 463.002768 
L 608.256 460.151318 
L 611.424 459.691984 
L 614.592 459.447403 
L 617.76 458.76735 
L 620.928 443.561464 
L 624.096 426.768513 
L 627.264 430.082409 
L 630.432 429.565518 
L 633.6 434.166546 
L 636.768 429.565518 
L 639.936 426.590439 
L 643.104 423.404624 
L 646.272 419.866911 
L 649.44 420.950857 
L 652.608 424.347564 
L 655.776 432.346884 
L 658.944 430.777654 
L 662.112 438.683278 
L 665.28 430.349795 
L 668.448 428.83487 
L 671.616 428.817051 
L 674.784 426.768513 
L 677.952 426.341152 
L 681.12 428.995243 
L 684.288 425.913847 
L 687.456 429.690278 
L 690.624 432.311213 
L 693.792 429.85069 
L 696.96 428.763595 
L 700.128 428.763595 
L 703.296 431.990185 
L 706.464 431.669183 
L 709.632 434.220077 
L 712.8 428.781413 
L 715.968 431.187731 
L 719.136 423.031089 
L 722.304 427.19593 
L 725.472 426.750705 
L 728.64 431.740515 
L 731.808 441.756248 
L 734.976 442.274525 
L 738.144 439.737186 
L 741.312 438.111755 
L 744.48 442.38176 
L 747.648 439.165549 
L 750.816 440.469684 
L 753.984 443.561464 
L 757.152 442.095804 
L 760.32 446.386403 
L 763.488 444.955921 
L 766.656 444.848646 
L 769.824 448.836658 
L 772.992 435.772781 
L 776.16 439.737186 
L 779.328 436.772507 
L 782.496 436.951052 
L 785.664 440.737695 
L 788.832 436.808216 
L 788.832 436.808216 
" clip-path="url(#p55658873d5)" style="fill: none; stroke: #000000; stroke-width: 1.5; stroke-linecap: square"/>
   </g>
   <g id="line2d_2">
    <path d="M 0 459 
L 3.168 459 
L 6.336 459.501092 
L 9.504 460.356697 
L 12.672 460.234435 
L 15.84 460.480953 
L 19.008 461.486142 
L 25.344 462.924517 
L 31.68 459.148713 
L 34.848 456.956556 
L 38.016 452.761792 
L 41.184 452.134152 
L 47.52 452.615072 
L 50.688 452.546659 
L 53.856 452.73583 
L 60.192 458.458484 
L 63.36 459.841797 
L 69.696 460.631917 
L 72.864 461.481784 
L 76.032 462.005802 
L 79.2 461.638732 
L 82.368 462.921943 
L 85.536 464.387999 
L 88.704 463.795438 
L 91.872 464.901022 
L 95.04 466.992085 
L 98.208 467.642826 
L 101.376 469.252402 
L 104.544 470.311174 
L 107.712 474.272372 
L 110.88 476.710878 
L 114.048 478.031121 
L 117.216 478.826505 
L 120.384 477.759919 
L 123.552 477.434771 
L 126.72 475.353766 
L 129.888 472.644409 
L 133.056 471.476926 
L 136.224 470.457197 
L 139.392 471.024938 
L 142.56 470.46983 
L 145.728 470.79685 
L 148.896 469.719877 
L 155.232 467.929749 
L 158.4 465.930973 
L 161.568 464.675764 
L 164.736 464.567966 
L 167.904 463.927449 
L 171.072 464.329492 
L 174.24 464.032299 
L 177.408 463.001903 
L 180.576 461.619924 
L 183.744 461.803423 
L 186.912 462.198612 
L 190.08 462.777441 
L 193.248 462.422372 
L 196.416 462.487547 
L 199.584 462.357408 
L 202.752 460.996226 
L 205.92 460.184279 
L 209.088 459.954577 
L 212.256 461.359693 
L 215.424 461.249275 
L 218.592 462.484178 
L 221.76 463.531862 
L 224.928 461.945306 
L 228.096 462.66328 
L 231.264 463.777378 
L 234.432 464.564294 
L 237.6 462.421553 
L 240.768 462.970321 
L 243.936 462.68272 
L 247.104 463.522388 
L 250.272 464.492452 
L 253.44 465.345898 
L 256.608 465.841539 
L 259.776 465.833936 
L 262.944 466.139457 
L 266.112 467.007548 
L 269.28 470.611829 
L 272.448 473.023971 
L 275.616 472.757681 
L 278.784 471.39837 
L 281.952 468.766095 
L 285.12 467.603665 
L 288.288 465.799571 
L 291.456 463.762828 
L 294.624 462.630271 
L 297.792 462.93895 
L 300.96 462.769651 
L 304.128 463.294651 
L 307.296 463.651614 
L 310.464 463.568988 
L 313.632 464.529577 
L 316.8 466.047357 
L 319.968 468.23796 
L 323.136 469.003447 
L 326.304 469.300639 
L 329.472 469.404952 
L 332.64 470.567686 
L 335.808 471.392615 
L 338.976 470.24111 
L 342.144 468.622271 
L 345.312 467.651552 
L 348.48 465.873893 
L 351.648 465.245914 
L 354.816 466.18973 
L 357.984 465.187056 
L 361.152 464.942288 
L 364.32 463.005412 
L 367.488 462.241656 
L 370.656 462.108921 
L 373.824 461.604437 
L 376.992 461.261346 
L 380.16 461.07291 
L 383.328 461.523425 
L 389.664 461.353376 
L 392.832 460.611962 
L 396 461.01583 
L 399.168 459.997785 
L 402.336 460.064036 
L 405.504 460.429585 
L 408.672 460.454546 
L 411.84 461.549392 
L 415.008 460.0875 
L 418.176 458.461151 
L 421.344 452.446531 
L 424.512 449.53506 
L 427.68 447.30078 
L 430.848 449.034824 
L 434.016 448.969938 
L 437.184 450.226841 
L 440.352 452.145168 
L 443.52 455.293406 
L 446.688 453.955389 
L 449.856 452.118505 
L 453.024 453.071236 
L 456.192 450.931921 
L 459.36 446.939099 
L 462.528 444.17544 
L 465.696 442.313564 
L 468.864 441.589595 
L 472.032 441.274945 
L 475.2 444.34307 
L 478.368 448.033793 
L 481.536 449.602545 
L 484.704 448.871942 
L 487.872 453.547621 
L 491.04 457.046596 
L 494.208 459.581566 
L 497.376 460.560192 
L 500.544 459.790658 
L 506.88 460.125936 
L 510.048 458.967506 
L 513.216 455.75152 
L 516.384 454.642107 
L 519.552 453.316339 
L 522.72 458.074666 
L 525.888 459.073339 
L 529.056 459.935675 
L 532.224 459.935512 
L 535.392 459.311323 
L 538.56 459.483266 
L 541.728 460.862157 
L 544.896 462.492834 
L 551.232 465.256464 
L 554.4 468.047606 
L 560.736 470.798721 
L 563.904 472.605646 
L 567.072 472.126638 
L 570.24 470.937235 
L 573.408 470.163537 
L 579.744 471.987633 
L 582.912 471.917873 
L 586.08 471.251201 
L 589.248 470.91059 
L 592.416 467.844105 
L 595.584 467.389543 
L 598.752 466.168816 
L 601.92 464.741898 
L 605.088 463.55949 
L 608.256 463.263794 
L 611.424 461.687087 
L 614.592 460.668177 
L 620.928 459.469136 
L 624.096 451.916712 
L 627.264 439.239102 
L 630.432 434.58166 
L 633.6 431.991724 
L 636.768 433.023653 
L 639.936 431.232552 
L 643.104 428.844722 
L 646.272 426.054391 
L 649.44 422.912656 
L 652.608 421.920187 
L 655.776 423.122393 
L 658.944 427.736915 
L 662.112 429.250318 
L 665.28 433.982024 
L 668.448 432.172867 
L 671.616 430.514151 
L 674.784 429.683079 
L 677.952 428.236907 
L 681.12 427.292805 
L 684.288 428.13735 
L 687.456 427.015877 
L 690.624 428.33521 
L 693.792 430.326516 
L 696.96 430.090588 
L 700.128 429.426924 
L 703.296 429.099157 
L 706.464 430.555469 
L 709.632 431.117529 
L 712.8 432.6848 
L 715.968 430.730811 
L 719.136 430.957062 
L 722.304 426.978303 
L 725.472 427.084042 
L 728.64 426.913423 
L 731.808 429.325656 
L 734.976 435.556413 
L 738.144 438.930187 
L 741.312 439.355177 
L 744.48 438.747018 
L 747.648 440.602111 
L 750.816 439.907288 
L 753.984 440.215418 
L 757.152 441.911411 
L 760.32 442.004272 
L 763.488 444.203063 
L 766.656 444.589719 
L 769.824 444.732397 
L 772.992 446.796942 
L 776.16 441.275645 
L 779.328 440.504927 
L 782.496 438.625072 
L 785.664 437.777907 
L 788.832 439.246527 
L 788.832 439.246527 
" clip-path="url(#p55658873d5)" style="fill: none; stroke: #000000; stroke-width: 1.5; stroke-linecap: square"/>
   </g>
   <g id="line2d_3">
    <path d="M 0 459 
L 3.168 459 
L 6.336 459.440299 
L 9.504 460.146247 
L 12.672 460.138909 
L 15.84 460.34283 
L 22.176 461.663089 
L 25.344 462.273592 
L 28.512 461.341738 
L 31.68 460.09807 
L 34.848 459.320724 
L 38.016 456.587491 
L 41.184 455.097181 
L 44.352 454.358095 
L 50.688 453.539973 
L 53.856 453.360652 
L 57.024 454.804479 
L 60.192 456.720981 
L 63.36 459.003538 
L 69.696 459.922199 
L 72.864 460.621059 
L 76.032 461.172352 
L 79.2 461.198856 
L 82.368 462.081148 
L 85.536 463.188831 
L 88.704 463.199037 
L 91.872 464.026034 
L 95.04 465.512004 
L 98.208 466.332817 
L 101.376 467.665873 
L 104.544 468.755677 
L 107.712 471.537909 
L 110.88 473.774199 
L 114.048 475.410413 
L 117.216 476.65012 
L 120.384 476.671999 
L 123.552 476.807021 
L 126.72 475.781419 
L 129.888 474.08063 
L 136.224 471.966246 
L 139.392 471.875317 
L 142.56 471.316674 
L 145.728 471.268945 
L 155.232 468.954265 
L 158.4 467.474332 
L 161.568 466.275956 
L 164.736 465.73532 
L 167.904 465.007158 
L 171.072 464.920092 
L 174.24 464.56337 
L 177.408 463.798057 
L 180.576 462.752036 
L 183.744 462.520608 
L 186.912 462.535118 
L 190.08 462.767433 
L 193.248 462.554744 
L 199.584 462.447568 
L 202.752 461.617029 
L 205.92 460.951748 
L 209.088 460.590151 
L 212.256 461.22612 
L 215.424 461.199267 
L 221.76 462.707669 
L 224.928 462.017939 
L 228.096 462.414545 
L 234.432 463.784345 
L 237.6 462.75779 
L 240.768 462.978227 
L 243.936 462.809323 
L 247.104 463.266417 
L 256.608 465.103125 
L 262.944 465.647627 
L 266.112 466.30291 
L 269.28 468.619125 
L 272.448 470.615535 
L 275.616 471.170791 
L 278.784 470.842556 
L 281.952 469.465077 
L 285.12 468.579983 
L 288.288 467.244256 
L 291.456 465.633016 
L 294.624 464.435333 
L 300.96 463.668921 
L 310.464 463.710618 
L 313.632 464.229061 
L 316.8 465.199158 
L 319.968 466.716317 
L 323.136 467.596512 
L 326.304 468.1714 
L 329.472 468.556153 
L 332.64 469.483442 
L 335.808 470.280864 
L 338.976 469.933652 
L 342.144 469.082063 
L 345.312 468.38892 
L 348.48 467.139028 
L 351.648 466.408579 
L 354.816 466.627399 
L 357.984 465.920681 
L 361.152 465.572402 
L 364.32 464.257375 
L 367.488 463.442669 
L 370.656 463.008898 
L 373.824 462.443319 
L 376.992 461.990972 
L 380.16 461.664194 
L 383.328 461.746317 
L 389.664 461.504018 
L 392.832 461.019261 
L 396 461.131147 
L 399.168 460.497561 
L 402.336 460.385734 
L 405.504 460.498485 
L 408.672 460.490364 
L 411.84 461.117251 
L 418.176 459.555659 
L 421.344 456.495414 
L 424.512 453.596282 
L 427.68 451.094726 
L 430.848 450.998976 
L 434.016 450.380484 
L 437.184 450.708356 
L 440.352 451.681821 
L 443.52 453.653657 
L 446.688 453.327465 
L 449.856 452.42124 
L 453.024 452.870836 
L 456.192 451.660747 
L 459.36 449.091402 
L 462.528 446.820566 
L 465.696 444.950335 
L 468.864 443.758009 
L 472.032 442.945436 
L 475.2 444.25766 
L 478.368 446.454603 
L 481.536 447.833604 
L 484.704 447.916869 
L 487.872 450.92358 
L 491.04 453.725906 
L 494.208 456.844563 
L 497.376 459.231117 
L 500.544 459.168522 
L 506.88 459.700466 
L 510.048 459.161154 
L 513.216 457.467634 
L 519.552 455.091531 
L 522.72 457.388289 
L 525.888 458.273572 
L 529.056 459.359536 
L 532.224 459.532621 
L 535.392 459.28782 
L 538.56 459.393281 
L 541.728 460.224728 
L 551.232 463.716158 
L 554.4 465.803029 
L 560.736 468.698394 
L 563.904 470.375244 
L 567.072 470.7537 
L 573.408 470.157677 
L 576.576 470.700743 
L 579.744 471.356842 
L 582.912 471.513045 
L 589.248 471.072376 
L 592.416 469.23947 
L 595.584 468.570969 
L 598.752 467.514552 
L 605.088 465.146833 
L 608.256 464.51006 
L 611.424 463.219607 
L 614.592 462.169548 
L 620.928 460.632433 
L 624.096 457.885881 
L 627.264 448.676243 
L 630.432 443.142951 
L 633.6 439.084303 
L 636.768 437.575058 
L 639.936 435.153969 
L 643.104 432.586677 
L 646.272 429.826715 
L 649.44 426.840981 
L 652.608 425.056146 
L 655.776 424.79722 
L 658.944 426.962499 
L 662.112 428.043237 
L 665.28 431.131048 
L 668.448 430.867845 
L 671.616 430.237986 
L 674.784 429.804835 
L 677.952 428.915239 
L 681.12 428.156805 
L 684.288 428.401702 
L 687.456 427.66336 
L 690.624 428.25705 
L 693.792 429.450587 
L 696.96 429.575181 
L 703.296 429.185587 
L 706.464 430.015596 
L 709.632 430.499066 
L 712.8 431.592511 
L 715.968 430.757571 
L 719.136 430.884519 
L 722.304 428.575712 
L 728.64 427.753976 
L 731.808 428.927345 
L 734.976 432.695511 
L 738.144 435.517935 
L 741.312 436.76489 
L 744.48 437.166005 
L 747.648 438.707541 
L 750.816 438.853645 
L 753.984 439.340382 
L 757.152 440.589694 
L 760.32 441.042769 
L 763.488 442.621424 
L 766.656 443.323702 
L 769.824 443.786021 
L 772.992 445.294688 
L 776.16 442.51407 
L 779.328 441.715549 
L 782.496 440.273085 
L 785.664 439.294346 
L 788.832 439.715289 
L 788.832 439.715289 
" clip-path="url(#p55658873d5)" style="fill: none; stroke: #000000; stroke-width: 1.5; stroke-linecap: square"/>
   </g>
   <g id="line2d_4">
    <path d="M 0 459 
L 3.168 459 
L 6.336 459.4083 
L 9.504 460.032358 
L 12.672 460.062619 
L 15.84 460.24091 
L 25.344 461.774175 
L 28.512 461.262175 
L 31.68 460.482548 
L 34.848 459.92566 
L 38.016 459.128219 
L 41.184 457.992647 
L 44.352 457.05029 
L 50.688 455.70541 
L 53.856 455.242919 
L 57.024 455.752127 
L 60.192 456.67915 
L 63.36 457.968511 
L 66.528 458.917809 
L 72.864 459.79319 
L 76.032 460.231925 
L 79.2 460.396853 
L 82.368 461.006119 
L 85.536 461.780871 
L 88.704 462.00742 
L 91.872 462.644526 
L 95.04 463.669587 
L 98.208 464.404976 
L 104.544 466.377419 
L 107.712 468.266541 
L 110.88 470.001055 
L 114.048 471.490636 
L 117.216 472.787638 
L 123.552 474.004597 
L 126.72 473.89266 
L 129.888 473.270538 
L 136.224 472.288985 
L 139.392 472.193017 
L 142.56 471.844914 
L 145.728 471.742547 
L 152.064 470.732064 
L 155.232 470.156847 
L 161.568 468.264402 
L 167.904 466.974997 
L 174.24 466.168649 
L 177.408 465.504226 
L 180.576 464.669974 
L 183.744 464.24295 
L 186.912 463.979076 
L 190.08 463.880793 
L 193.248 463.590592 
L 199.584 463.229755 
L 205.92 462.123551 
L 209.088 461.731815 
L 212.256 461.885873 
L 215.424 461.757082 
L 221.76 462.450663 
L 224.928 462.108572 
L 228.096 462.302563 
L 234.432 463.121822 
L 237.6 462.665302 
L 240.768 462.794607 
L 243.936 462.727154 
L 247.104 462.983171 
L 259.776 464.475265 
L 262.944 464.786684 
L 266.112 465.277538 
L 272.448 468.088967 
L 275.616 468.790462 
L 278.784 468.991735 
L 281.952 468.540816 
L 285.12 468.209154 
L 288.288 467.541129 
L 294.624 465.811516 
L 300.96 464.970702 
L 310.464 464.488628 
L 313.632 464.64875 
L 316.8 465.113134 
L 319.968 465.957487 
L 323.136 466.563105 
L 332.64 468.121546 
L 335.808 468.772092 
L 338.976 468.825851 
L 345.312 468.247853 
L 348.48 467.590673 
L 351.648 467.120275 
L 354.816 467.124445 
L 357.984 466.66002 
L 361.152 466.351747 
L 364.32 465.512825 
L 367.488 464.870322 
L 380.16 462.995788 
L 386.496 462.580712 
L 389.664 462.377585 
L 392.832 461.97855 
L 396 461.889914 
L 399.168 461.425533 
L 402.336 461.21839 
L 408.672 461.041395 
L 411.84 461.295024 
L 418.176 460.335587 
L 421.344 459.450902 
L 424.512 458.147867 
L 427.68 456.048357 
L 430.848 455.192061 
L 434.016 454.170629 
L 437.184 453.725266 
L 440.352 453.759579 
L 443.52 454.486846 
L 446.688 454.167212 
L 449.856 453.531704 
L 453.024 453.590829 
L 456.192 452.807023 
L 465.696 448.174787 
L 468.864 447.006391 
L 472.032 446.03451 
L 475.2 446.244345 
L 478.368 447.109543 
L 481.536 447.745777 
L 484.704 447.793141 
L 491.04 451.188247 
L 497.376 455.389164 
L 500.544 455.966523 
L 503.712 457.010139 
L 506.88 457.920791 
L 510.048 457.53517 
L 513.216 456.732371 
L 516.384 456.224873 
L 519.552 455.557175 
L 522.72 456.727277 
L 525.888 457.313807 
L 529.056 458.451144 
L 532.224 458.992357 
L 535.392 458.848336 
L 538.56 459.061943 
L 541.728 459.567642 
L 548.064 461.090407 
L 551.232 461.971638 
L 554.4 463.384589 
L 560.736 465.774965 
L 563.904 467.153293 
L 567.072 467.874216 
L 573.408 468.379525 
L 579.744 469.596099 
L 582.912 469.963306 
L 589.248 470.161512 
L 592.416 469.312478 
L 595.584 468.939789 
L 598.752 468.309605 
L 605.088 466.712224 
L 608.256 466.123755 
L 614.592 464.30437 
L 620.928 462.800861 
L 624.096 461.373034 
L 627.264 459.276279 
L 633.6 450.985156 
L 636.768 448.291733 
L 646.272 439.242077 
L 649.44 436.116747 
L 652.608 433.661697 
L 655.776 432.134585 
L 658.944 432.130026 
L 662.112 431.872689 
L 665.28 432.914262 
L 668.448 432.464767 
L 677.952 430.55764 
L 681.12 429.84021 
L 684.288 429.663146 
L 687.456 429.024148 
L 690.624 429.090296 
L 693.792 429.575144 
L 696.96 429.586033 
L 703.296 429.293036 
L 706.464 429.698854 
L 709.632 429.987803 
L 712.8 430.643296 
L 715.968 430.326901 
L 719.136 430.445708 
L 722.304 429.242663 
L 728.64 428.563607 
L 731.808 429.069911 
L 734.976 431.093386 
L 738.144 432.875522 
L 741.312 433.972879 
L 744.48 434.638327 
L 747.648 435.88137 
L 750.816 436.415808 
L 753.984 437.072774 
L 757.152 438.116628 
L 760.32 438.755619 
L 763.488 439.978806 
L 766.656 440.774327 
L 769.824 441.431444 
L 772.992 442.621617 
L 776.16 441.535723 
L 779.328 441.257638 
L 782.496 440.55031 
L 785.664 439.982463 
L 788.832 440.111879 
L 788.832 440.111879 
" clip-path="url(#p55658873d5)" style="fill: none; stroke: #000000; stroke-width: 1.5; stroke-linecap: square"/>
   </g>
   <g id="line2d_5">
    <path d="M 0 459 
L 3.168 459 
L 6.336 459.39209 
L 9.504 459.97453 
L 12.672 460.017864 
L 15.84 460.18174 
L 25.344 461.492131 
L 28.512 461.145818 
L 31.68 460.584799 
L 34.848 460.168486 
L 38.016 459.574254 
L 44.352 458.769659 
L 50.688 457.493575 
L 53.856 457.00444 
L 57.024 457.140802 
L 60.192 457.574836 
L 63.36 458.276031 
L 66.528 458.821043 
L 76.032 459.737932 
L 79.2 459.880135 
L 91.872 461.457602 
L 95.04 462.138485 
L 98.208 462.684615 
L 104.544 464.103372 
L 110.88 466.536304 
L 117.216 468.675132 
L 123.552 470.026316 
L 126.72 470.303632 
L 136.224 470.210059 
L 139.392 470.329955 
L 148.896 470.226632 
L 155.232 469.780892 
L 161.568 468.799929 
L 177.408 466.95027 
L 180.576 466.391388 
L 186.912 465.737915 
L 193.248 465.250277 
L 199.584 464.793279 
L 209.088 463.60039 
L 212.256 463.53156 
L 215.424 463.334028 
L 221.76 463.467145 
L 224.928 463.208926 
L 228.096 463.221935 
L 234.432 463.52658 
L 237.6 463.258741 
L 247.104 463.308943 
L 262.944 464.290218 
L 266.112 464.588662 
L 272.448 466.223305 
L 275.616 466.74455 
L 278.784 467.019179 
L 285.12 466.905879 
L 288.288 466.664519 
L 294.624 465.863899 
L 304.128 465.265987 
L 313.632 465.051556 
L 316.8 465.254464 
L 323.136 466.013206 
L 332.64 466.995272 
L 335.808 467.426473 
L 338.976 467.563207 
L 345.312 467.446296 
L 351.648 466.956461 
L 354.816 466.971679 
L 361.152 466.574856 
L 367.488 465.735256 
L 386.496 463.960614 
L 396 463.252841 
L 399.168 462.897719 
L 405.504 462.512614 
L 408.672 462.344723 
L 411.84 462.370082 
L 418.176 461.684477 
L 427.68 460.07563 
L 437.184 459.17094 
L 440.352 459.019646 
L 443.52 459.000642 
L 446.688 458.464621 
L 449.856 457.77615 
L 453.024 457.45392 
L 456.192 456.725288 
L 468.864 452.185397 
L 472.032 451.236373 
L 475.2 450.900116 
L 481.536 450.957864 
L 484.704 450.711901 
L 487.872 451.322323 
L 491.04 452.076793 
L 497.376 454.208203 
L 500.544 454.603175 
L 506.88 455.875692 
L 510.048 455.840824 
L 519.552 455.099027 
L 522.72 455.732229 
L 525.888 456.106264 
L 529.056 456.784924 
L 532.224 457.192627 
L 535.392 457.251201 
L 538.56 457.544511 
L 541.728 458.460679 
L 544.896 459.257017 
L 551.232 460.32435 
L 563.904 463.789983 
L 567.072 464.442501 
L 576.576 465.81867 
L 579.744 466.409734 
L 582.912 466.86427 
L 589.248 467.462268 
L 592.416 467.242804 
L 595.584 467.220462 
L 598.752 467.034452 
L 608.256 466.093869 
L 620.928 464.165509 
L 624.096 463.309199 
L 627.264 462.056224 
L 633.6 460.016133 
L 636.768 459.242494 
L 639.936 457.213643 
L 646.272 452.047798 
L 649.44 449.359258 
L 652.608 446.986086 
L 655.776 445.093769 
L 662.112 442.924312 
L 665.28 442.571307 
L 681.12 437.436759 
L 684.288 436.7283 
L 687.456 435.822407 
L 690.624 435.303864 
L 693.792 435.046257 
L 703.296 433.652763 
L 709.632 433.342357 
L 712.8 433.408275 
L 715.968 433.016325 
L 719.136 432.857258 
L 722.304 432.031252 
L 728.64 431.202975 
L 731.808 431.236989 
L 738.144 432.940817 
L 741.312 433.497613 
L 744.48 433.870465 
L 747.648 434.565934 
L 753.984 435.380658 
L 757.152 436.042625 
L 760.32 436.527893 
L 763.488 437.328515 
L 769.824 438.497683 
L 772.992 439.341372 
L 776.16 439.027435 
L 779.328 439.067443 
L 785.664 438.678339 
L 788.832 438.831996 
L 788.832 438.831996 
" clip-path="url(#p55658873d5)" style="fill: none; stroke: #000000; stroke-width: 1.5; stroke-linecap: square"/>
   </g>
   <g id="line2d_6">
    <path d="M 0 459 
L 3.168 459 
L 6.336 459.383958 
L 9.504 459.94558 
L 15.84 460.150353 
L 25.344 461.347522 
L 28.512 461.069815 
L 31.68 460.606569 
L 34.848 460.259419 
L 38.016 459.765867 
L 44.352 459.205428 
L 47.52 459.008842 
L 53.856 458.028406 
L 57.024 458.049831 
L 60.192 458.300192 
L 63.36 458.755922 
L 66.528 459.037455 
L 72.864 459.385208 
L 82.368 459.97822 
L 85.536 460.338044 
L 88.704 460.510335 
L 91.872 460.834851 
L 104.544 462.735625 
L 114.048 465.225503 
L 117.216 465.986878 
L 123.552 467.095008 
L 126.72 467.412676 
L 148.896 468.236976 
L 155.232 468.16504 
L 171.072 467.268398 
L 177.408 466.86663 
L 183.744 466.350178 
L 202.752 465.291263 
L 209.088 464.786554 
L 228.096 464.277263 
L 234.432 464.348827 
L 237.6 464.169733 
L 250.272 464.137114 
L 266.112 464.620741 
L 275.616 465.788811 
L 278.784 465.972427 
L 288.288 465.913102 
L 297.792 465.4552 
L 304.128 465.269646 
L 313.632 465.156561 
L 316.8 465.259061 
L 326.304 465.830149 
L 332.64 466.231743 
L 335.808 466.48666 
L 342.144 466.614956 
L 348.48 466.511488 
L 364.32 466.073942 
L 383.328 464.998881 
L 418.176 463.175271 
L 427.68 462.13813 
L 440.352 461.235183 
L 446.688 460.951957 
L 459.36 460.102604 
L 472.032 458.898185 
L 475.2 458.408665 
L 481.536 457.824641 
L 484.704 457.41023 
L 491.04 457.564468 
L 497.376 458.216136 
L 500.544 458.245117 
L 506.88 458.600334 
L 510.048 458.463357 
L 519.552 457.730764 
L 522.72 457.938084 
L 525.888 458.032185 
L 529.056 458.293476 
L 532.224 458.435905 
L 535.392 458.413993 
L 538.56 458.515446 
L 541.728 458.94209 
L 551.232 459.755192 
L 570.24 462.459964 
L 576.576 463.145711 
L 582.912 463.913307 
L 589.248 464.470325 
L 605.088 464.462533 
L 608.256 464.401202 
L 620.928 463.625702 
L 624.096 463.209685 
L 630.432 462.009743 
L 636.768 461.005152 
L 646.272 459.428297 
L 649.44 458.559045 
L 652.608 456.951869 
L 655.776 455.557818 
L 662.112 453.546305 
L 665.28 452.908926 
L 684.288 447.206154 
L 687.456 446.292685 
L 690.624 445.579231 
L 696.96 444.359422 
L 703.296 443.050046 
L 709.632 442.104609 
L 712.8 441.763478 
L 715.968 441.205108 
L 719.136 440.77214 
L 722.304 440.008256 
L 728.64 438.903344 
L 731.808 438.589649 
L 741.312 438.885046 
L 744.48 438.843774 
L 747.648 438.986983 
L 753.984 439.044638 
L 769.824 440.067148 
L 772.992 440.435779 
L 776.16 440.232649 
L 779.328 440.207391 
L 785.664 439.920728 
L 788.832 439.950845 
L 788.832 439.950845 
" clip-path="url(#p55658873d5)" style="fill: none; stroke: #000000; stroke-width: 1.5; stroke-linecap: square"/>
   </g>
   <g id="line2d_7">
    <path d="M 0 459 
L 3.168 459 
L 6.336 459.379889 
L 9.504 459.93112 
L 15.84 460.134256 
L 25.344 461.275036 
L 28.512 461.027952 
L 38.016 459.850635 
L 44.352 459.338906 
L 50.688 458.966437 
L 53.856 458.548004 
L 57.024 458.531681 
L 60.192 458.71146 
L 63.36 459.022027 
L 72.864 459.390663 
L 88.704 460.300091 
L 91.872 460.561278 
L 104.544 462.078248 
L 117.216 464.632417 
L 123.552 465.542213 
L 126.72 465.827684 
L 148.896 466.781753 
L 155.232 466.826911 
L 199.584 465.432986 
L 209.088 464.949267 
L 231.264 464.603006 
L 234.432 464.622491 
L 240.768 464.480374 
L 247.104 464.423794 
L 262.944 464.623659 
L 266.112 464.706388 
L 275.616 465.395576 
L 281.952 465.527681 
L 288.288 465.511969 
L 300.96 465.208226 
L 313.632 465.115587 
L 319.968 465.300296 
L 342.144 466.001306 
L 354.816 465.969664 
L 364.32 465.788189 
L 421.344 463.884008 
L 434.016 463.133802 
L 449.856 462.486849 
L 456.192 462.219309 
L 475.2 461.110122 
L 491.04 460.709707 
L 506.88 460.669804 
L 525.888 460.345527 
L 544.896 460.419844 
L 551.232 460.659487 
L 582.912 462.820053 
L 589.248 463.155343 
L 608.256 463.285147 
L 620.928 462.970019 
L 624.096 462.771858 
L 633.6 461.889209 
L 643.104 461.089671 
L 658.944 459.669199 
L 668.448 459.08072 
L 671.616 458.582984 
L 690.624 454.78723 
L 700.128 453.230342 
L 706.464 452.252973 
L 722.304 449.916604 
L 728.64 448.935314 
L 731.808 448.563902 
L 760.32 447.230662 
L 772.992 447.151078 
L 779.328 446.751413 
L 788.832 446.209489 
L 788.832 446.209489 
" clip-path="url(#p55658873d5)" style="fill: none; stroke: #000000; stroke-width: 1.5; stroke-linecap: square"/>
   </g>
   <g id="line2d_8">
    <path d="M 0 459 
L 3.168 459 
L 6.336 459.377854 
L 9.504 459.923897 
L 15.84 460.126114 
L 25.344 461.238842 
L 28.512 461.006154 
L 38.016 459.889948 
L 44.352 459.402933 
L 57.024 458.774618 
L 66.528 459.158377 
L 79.2 459.626079 
L 91.872 460.440228 
L 104.544 461.772459 
L 117.216 463.989675 
L 123.552 464.790812 
L 126.72 465.050397 
L 148.896 465.9859 
L 155.232 466.063675 
L 183.744 465.469763 
L 205.92 464.920221 
L 215.424 464.693272 
L 256.608 464.523269 
L 266.112 464.640222 
L 278.784 465.21648 
L 291.456 465.172421 
L 304.128 465.019431 
L 316.8 465.027956 
L 342.144 465.612367 
L 357.984 465.59332 
L 367.488 465.451959 
L 399.168 464.833264 
L 421.344 464.300142 
L 437.184 463.70566 
L 462.528 462.907537 
L 478.368 462.33259 
L 491.04 462.081188 
L 510.048 461.915708 
L 525.888 461.675201 
L 548.064 461.665428 
L 557.568 461.954465 
L 582.912 462.894445 
L 592.416 463.106011 
L 601.92 463.178127 
L 617.76 463.042849 
L 624.096 462.880742 
L 655.776 461.186295 
L 712.8 458.703963 
L 731.808 456.604733 
L 763.488 454.944668 
L 779.328 454.255479 
L 788.832 453.703567 
L 788.832 453.703567 
" clip-path="url(#p55658873d5)" style="fill: none; stroke: #000000; stroke-width: 1.5; stroke-linecap: square"/>
   </g>
   <g id="line2d_9">
    <path d="M 0 459 
L 3.168 459 
L 6.336 459.376836 
L 9.504 459.920288 
L 15.84 460.12202 
L 25.344 461.220769 
L 28.512 460.995051 
L 38.016 459.908805 
L 44.352 459.434177 
L 53.856 458.932602 
L 57.024 458.895936 
L 82.368 459.808211 
L 85.536 460.047308 
L 91.872 460.384261 
L 104.544 461.627227 
L 117.216 463.681782 
L 123.552 464.427973 
L 129.888 464.815854 
L 145.728 465.505623 
L 155.232 465.669626 
L 183.744 465.215128 
L 205.92 464.771819 
L 215.424 464.585896 
L 259.776 464.478994 
L 266.112 464.557475 
L 278.784 465.034837 
L 291.456 465.009536 
L 307.296 464.883022 
L 316.8 464.907397 
L 342.144 465.384383 
L 361.152 465.37523 
L 424.512 464.320536 
L 440.352 463.902485 
L 456.192 463.558618 
L 484.704 462.781747 
L 529.056 462.343524 
L 548.064 462.307814 
L 557.568 462.49264 
L 589.248 463.240936 
L 611.424 463.26403 
L 624.096 463.09095 
L 662.112 461.729871 
L 677.952 461.255371 
L 706.464 460.427332 
L 744.48 459.547266 
L 785.664 458.894941 
L 788.832 458.762419 
L 788.832 458.762419 
" clip-path="url(#p55658873d5)" style="fill: none; stroke: #000000; stroke-width: 1.5; stroke-linecap: square"/>
   </g>
  </g>
 </g>
 <defs>
  <clipPath id="p55658873d5">
   <rect x="0" y="0" width="792" height="612"/>
  </clipPath>
 </defs>
</svg>
