<?xml version="1.0" encoding="utf-8" standalone="no"?>
<!DOCTYPE svg PUBLIC "-//W3C//DTD SVG 1.1//EN"
  "http://www.w3.org/Graphics/SVG/1.1/DTD/svg11.dtd">
<svg xmlns:xlink="http://www.w3.org/1999/xlink" width="792pt" height="612pt" viewBox="0 0 792 612" xmlns="http://www.w3.org/2000/svg" version="1.1">
 <metadata>
  <rdf:RDF xmlns:dc="http://purl.org/dc/elements/1.1/" xmlns:cc="http://creativecommons.org/ns#" xmlns:rdf="http://www.w3.org/1999/02/22-rdf-syntax-ns#">
   <cc:Work>
    <dc:type rdf:resource="http://purl.org/dc/dcmitype/StillImage"/>
    <dc:date>2022-12-19T20:28:48.204186</dc:date>
    <dc:format>image/svg+xml</dc:format>
    <dc:creator>
     <cc:Agent>
      <dc:title>Matplotlib v3.6.2, https://matplotlib.org/</dc:title>
     </cc:Agent>
    </dc:creator>
   </cc:Work>
  </rdf:RDF>
 </metadata>
 <defs>
  <style type="text/css">*{stroke-linejoin: round; stroke-linecap: butt}</style>
 </defs>
 <g id="figure_1">
  <g id="patch_1">
   <path d="M 0 612 
L 792 612 
L 792 0 
L 0 0 
z
" style="fill: #ffffff"/>
  </g>
  <g id="axes_1">
   <g id="line2d_1">
    <path d="M 0 459 
L 3.155378 459.331484 
L 6.310757 456.505175 
L 9.466135 454.708286 
L 12.621514 459.808355 
L 15.776892 459.790908 
L 18.932271 456.731973 
L 22.087649 455.77245 
L 25.243028 454.010497 
L 28.398406 450.016199 
L 31.553785 450.644049 
L 34.709163 449.580212 
L 37.864542 451.812629 
L 41.01992 450.31268 
L 44.175299 449.423261 
L 47.330677 449.545334 
L 50.486056 451.847514 
L 53.641434 447.487724 
L 59.952191 456.697081 
L 63.10757 459.564104 
L 66.262948 460.261964 
L 69.418327 459.977004 
L 72.573705 462.128739 
L 78.884462 463.576799 
L 82.039841 464.792238 
L 85.195219 463.943175 
L 88.350598 464.513094 
L 91.505976 466.217036 
L 94.661355 466.699723 
L 97.816733 467.345243 
L 100.972112 463.07085 
L 104.12749 461.116842 
L 107.282869 461.384355 
L 110.438247 459.471056 
L 113.593625 460.424798 
L 116.749004 460.762097 
L 119.904382 460.884222 
L 123.059761 460.750466 
L 126.215139 460.878407 
L 129.370518 462.617241 
L 135.681275 464.641035 
L 138.836653 464.396784 
L 141.992032 464.8155 
L 145.14741 466.071648 
L 148.302789 466.26356 
L 151.458167 465.042305 
L 154.613546 467.897716 
L 157.768924 469.502794 
L 160.924303 466.932343 
L 164.079681 469.653997 
L 167.23506 472.643164 
L 170.390438 471.881333 
L 173.545817 474.376183 
L 176.701195 474.864685 
L 179.856574 481.54088 
L 183.011952 482.436467 
L 189.322709 482.895891 
L 192.478088 480.063742 
L 195.633466 480.465012 
L 198.788845 476.748907 
L 201.944223 473.509673 
L 205.099602 473.899312 
L 208.25498 473.056064 
L 211.410359 475.149645 
L 214.565737 473.521304 
L 217.721116 474.684405 
L 220.876494 472.276787 
L 227.187251 470.718233 
L 230.342629 467.676727 
L 233.498008 467.176594 
L 236.653386 468.194306 
L 239.808765 467.048653 
L 242.964143 468.456004 
L 246.119522 467.479 
L 252.430279 464.076932 
L 255.585657 465.763427 
L 258.741036 466.350793 
L 261.896414 467.095177 
L 265.051793 465.839028 
L 268.207171 466.3159 
L 271.36255 465.996047 
L 274.517928 463.47212 
L 277.673307 463.210422 
L 280.828685 463.559352 
L 283.984064 466.513627 
L 287.139442 464.937626 
L 290.294821 467.438291 
L 293.450199 468.275723 
L 296.605578 464.175795 
L 299.760956 467.100992 
L 302.916335 468.566498 
L 306.071713 469.014292 
L 309.227092 464.100194 
L 312.38247 467.240564 
L 315.537849 466.158881 
L 318.693227 468.072181 
L 321.848606 469.124786 
L 325.003984 469.851724 
L 328.159363 469.991296 
L 331.314741 469.496978 
L 334.47012 470.078528 
L 337.625498 471.480064 
L 340.780876 477.632863 
L 343.936255 478.825041 
L 347.091633 475.96963 
L 350.247012 473.591091 
L 353.40239 469.799384 
L 356.557769 470.095975 
L 359.713147 467.723251 
L 362.868526 465.524991 
L 366.023904 465.327264 
L 369.179283 467.031206 
L 372.334661 466.391501 
L 375.49004 467.566232 
L 378.645418 467.734882 
L 381.800797 467.228933 
L 388.111554 471.171842 
L 391.266932 473.951652 
L 394.422311 473.317762 
L 400.733068 473.067695 
L 403.888446 475.225246 
L 407.043825 475.696302 
L 410.199203 472.666426 
L 413.354582 470.648447 
L 416.50996 470.346041 
L 419.665339 467.833745 
L 422.820717 468.339694 
L 425.976096 470.782204 
L 429.131474 467.926793 
L 432.286853 468.426926 
L 435.442231 464.891102 
L 441.752988 465.763427 
L 444.908367 464.902733 
L 448.063745 464.728268 
L 451.219124 464.705006 
L 454.374502 465.751796 
L 457.52988 465.059751 
L 460.685259 465.10046 
L 463.840637 463.698924 
L 466.996016 465.205139 
L 470.151394 462.832415 
L 473.306773 463.948991 
L 476.462151 464.594511 
L 479.61753 464.292105 
L 482.772908 466.391501 
L 485.928287 462.4893 
L 489.083665 461.44251 
L 492.239044 458.35448 
L 495.394422 458.511498 
L 498.549801 457.011111 
L 501.705179 460.186362 
L 504.860558 459.58155 
L 511.171315 461.244783 
L 514.326693 462.65795 
L 517.482072 460.762097 
L 520.63745 460.006082 
L 523.792829 461.215706 
L 526.948207 459.529211 
L 530.103586 454.900181 
L 533.258964 453.417395 
L 536.414343 452.492891 
L 539.569721 452.911528 
L 542.7251 452.981302 
L 545.880478 459.081417 
L 549.035857 460.482953 
L 552.191235 460.296857 
L 555.346614 459.308222 
L 558.501992 462.570717 
L 561.657371 463.320917 
L 564.812749 464.58288 
L 567.968127 465.286556 
L 571.123506 462.849861 
L 574.278884 463.989699 
L 577.434263 464.059485 
L 580.589641 461.715839 
L 583.74502 460.750466 
L 586.900398 461.076134 
L 590.055777 460.581816 
L 593.211155 464.094378 
L 596.366534 463.286024 
L 599.521912 464.594511 
L 602.677291 463.757079 
L 605.832669 462.535824 
L 608.988048 463.47212 
L 612.143426 465.984416 
L 615.298805 467.810483 
L 621.609562 470.241362 
L 624.76494 474.347106 
L 627.920319 474.207534 
L 631.075697 475.684671 
L 634.231076 477.813144 
L 637.386454 475.138014 
L 640.541833 473.300315 
L 643.697211 472.957201 
L 646.85259 475.481128 
L 650.007968 476.388346 
L 653.163347 475.364818 
L 656.318725 474.143563 
L 659.474104 474.137748 
L 662.629482 468.502528 
L 665.784861 470.590292 
L 668.940239 468.659546 
L 672.095618 467.083546 
L 675.250996 466.176327 
L 678.406375 466.746247 
L 681.561753 463.966437 
L 684.717131 463.518644 
L 687.87251 463.280208 
L 691.027888 462.768444 
L 694.183267 455.475876 
L 697.338645 439.071186 
L 700.494024 442.311058 
L 703.649402 441.805799 
L 706.804781 446.302188 
L 709.960159 441.805799 
L 713.115538 438.897053 
L 716.270916 435.781096 
L 719.426295 432.319517 
L 722.581673 433.380299 
L 725.737052 436.703487 
L 728.89243 444.524206 
L 732.047809 442.990609 
L 735.203187 450.713812 
L 738.358566 442.572415 
L 741.513944 441.091539 
L 744.669323 441.074119 
L 747.824701 439.071186 
L 750.98008 438.653276 
L 754.135458 441.24832 
L 757.290837 438.2354 
L 760.446215 441.927755 
L 763.601594 444.489348 
L 766.756972 442.084558 
L 769.912351 441.021859 
L 773.067729 441.021859 
L 776.223108 444.175632 
L 779.378486 443.861929 
L 782.533865 446.354487 
L 785.689243 441.039279 
L 788.844622 443.391402 
L 788.844622 443.391402 
" clip-path="url(#pc205ac7a09)" style="fill: none; stroke: #000000; stroke-width: 1.5; stroke-linecap: square"/>
   </g>
   <g id="line2d_2">
    <path d="M 0 459 
L 3.155378 459 
L 6.310757 459.220989 
L 9.466135 457.858503 
L 12.621514 456.178355 
L 15.776892 458.886316 
L 18.932271 459.383085 
L 22.087649 458.427151 
L 25.243028 457.094579 
L 28.398406 455.542716 
L 31.553785 452.759668 
L 37.864542 450.625172 
L 41.01992 451.200044 
L 44.175299 450.734673 
L 47.330677 450.064621 
L 50.486056 449.792767 
L 53.641434 450.815859 
L 56.796813 449.146704 
L 59.952191 450.613203 
L 63.10757 453.668863 
L 66.262948 457.197888 
L 69.418327 459.338781 
L 72.573705 459.666069 
L 75.729084 460.909719 
L 78.884462 461.889095 
L 82.039841 462.749447 
L 85.195219 463.786727 
L 88.350598 463.876149 
L 91.505976 464.204326 
L 94.661355 465.222357 
L 100.972112 466.669961 
L 107.282869 462.989023 
L 110.438247 462.180007 
L 113.593625 460.816762 
L 116.749004 460.612764 
L 129.370518 460.808324 
L 135.681275 462.668076 
L 138.836653 463.664693 
L 145.14741 464.434961 
L 148.302789 465.263476 
L 151.458167 465.774328 
L 154.613546 465.416481 
L 157.768924 466.667452 
L 160.924303 468.096674 
L 164.079681 467.519001 
L 167.23506 468.596807 
L 170.390438 470.635334 
L 173.545817 471.269725 
L 176.701195 472.838861 
L 179.856574 473.871033 
L 183.011952 477.732707 
L 186.167331 480.109947 
L 189.322709 481.39702 
L 192.478088 482.17242 
L 195.633466 481.132631 
L 198.788845 480.815652 
L 201.944223 478.786932 
L 205.099602 476.145646 
L 208.25498 475.007496 
L 211.410359 474.013387 
L 214.565737 474.566863 
L 217.721116 474.025702 
L 220.876494 474.344506 
L 224.031873 473.294591 
L 230.342629 471.549439 
L 233.498008 469.600882 
L 236.653386 468.377209 
L 239.808765 468.27212 
L 242.964143 467.647695 
L 246.119522 468.039637 
L 249.2749 467.749911 
L 252.430279 466.745403 
L 255.585657 465.398145 
L 258.741036 465.577034 
L 261.896414 465.962294 
L 265.051793 466.52658 
L 268.207171 466.180433 
L 271.36255 466.24397 
L 274.517928 466.117101 
L 277.673307 464.790117 
L 280.828685 463.998571 
L 283.984064 463.77464 
L 287.139442 465.144452 
L 290.294821 465.036809 
L 293.450199 466.240686 
L 296.605578 467.262047 
L 299.760956 465.715352 
L 302.916335 466.415288 
L 306.071713 467.501395 
L 309.227092 468.268539 
L 312.38247 466.179634 
L 315.537849 466.714615 
L 318.693227 466.434239 
L 321.848606 467.252811 
L 328.159363 469.030507 
L 331.314741 469.513695 
L 334.47012 469.506283 
L 337.625498 469.804128 
L 340.780876 470.650409 
L 343.936255 474.164134 
L 347.091633 476.515671 
L 350.247012 476.256072 
L 353.40239 474.930913 
L 356.557769 472.364773 
L 359.713147 471.231548 
L 362.868526 469.472781 
L 366.023904 467.48721 
L 369.179283 466.383108 
L 372.334661 466.684032 
L 375.49004 466.518986 
L 378.645418 467.030796 
L 381.800797 467.378791 
L 384.956175 467.29824 
L 388.111554 468.234695 
L 391.266932 469.714341 
L 394.422311 471.849907 
L 397.577689 472.596161 
L 400.733068 472.885887 
L 403.888446 472.987578 
L 407.043825 474.121099 
L 410.199203 474.925303 
L 413.354582 473.802729 
L 416.50996 472.224562 
L 419.665339 471.278232 
L 422.820717 469.545235 
L 425.976096 468.933034 
L 429.131474 469.853138 
L 432.286853 468.875655 
L 435.442231 468.637037 
L 438.59761 466.748824 
L 441.752988 466.004257 
L 444.908367 465.874857 
L 448.063745 465.383048 
L 451.219124 465.048577 
L 454.374502 464.864875 
L 457.52988 465.304071 
L 463.840637 465.138295 
L 466.996016 464.415508 
L 470.151394 464.809229 
L 473.306773 463.816762 
L 476.462151 463.881349 
L 479.61753 464.237713 
L 482.772908 464.262047 
L 485.928287 465.329385 
L 489.083665 463.904223 
L 492.239044 462.668942 
L 495.394422 460.714295 
L 498.549801 459.767897 
L 501.705179 459.041461 
L 504.860558 459.605268 
L 508.015936 459.584173 
L 511.171315 459.992786 
L 514.326693 460.616344 
L 517.482072 461.63953 
L 520.63745 461.20469 
L 523.792829 460.607678 
L 526.948207 460.917336 
L 530.103586 460.221985 
L 533.258964 458.771553 
L 536.414343 456.075048 
L 539.569721 454.257936 
L 542.7251 453.551269 
L 545.880478 453.244119 
L 552.191235 459.279805 
L 555.346614 459.789836 
L 558.501992 459.552313 
L 561.657371 461.072165 
L 567.968127 463.411 
L 571.123506 464.365039 
L 574.278884 463.614839 
L 580.589641 463.941693 
L 586.900398 461.788407 
L 593.211155 460.996997 
L 596.366534 462.54335 
L 599.521912 462.915542 
L 602.677291 463.756213 
L 605.832669 463.756053 
L 608.988048 463.147546 
L 612.143426 463.31517 
L 615.298805 464.659417 
L 618.454183 466.249124 
L 624.76494 468.94332 
L 627.920319 471.664335 
L 634.231076 474.34633 
L 637.386454 476.107857 
L 640.541833 475.640883 
L 643.697211 474.481364 
L 646.85259 473.727105 
L 653.163347 475.505371 
L 656.318725 475.437364 
L 659.474104 474.787442 
L 662.629482 474.455388 
L 665.784861 471.465947 
L 668.940239 471.022806 
L 672.095618 469.832749 
L 675.250996 468.441682 
L 678.406375 467.288981 
L 681.561753 467.000715 
L 684.717131 465.463621 
L 687.87251 464.470311 
L 694.183267 463.301395 
L 697.338645 460.542088 
L 700.494024 451.256541 
L 703.649402 446.707741 
L 706.804781 444.177135 
L 709.960159 445.185518 
L 713.115538 443.435207 
L 716.270916 441.101171 
L 719.426295 438.372844 
L 722.581673 435.299807 
L 725.737052 434.328791 
L 728.89243 435.504995 
L 732.047809 440.018092 
L 735.203187 441.497676 
L 738.358566 446.121911 
L 741.513944 444.354154 
L 744.669323 442.733061 
L 747.824701 441.920717 
L 750.98008 440.506941 
L 754.135458 439.583854 
L 757.290837 440.409605 
L 760.446215 439.31307 
L 763.601594 440.603049 
L 766.756972 442.549662 
L 769.912351 442.319053 
L 773.067729 441.670319 
L 776.223108 441.349906 
L 779.378486 442.773445 
L 782.533865 443.322791 
L 785.689243 444.854411 
L 788.844622 442.944825 
L 788.844622 442.944825 
" clip-path="url(#pc205ac7a09)" style="fill: none; stroke: #000000; stroke-width: 1.5; stroke-linecap: square"/>
   </g>
   <g id="line2d_3">
    <path d="M 0 459 
L 3.155378 459 
L 6.310757 459.194179 
L 9.466135 458.188229 
L 12.621514 456.829194 
L 15.776892 458.46434 
L 18.932271 459.145959 
L 22.087649 458.568488 
L 25.243028 457.694938 
L 28.398406 456.565853 
L 31.553785 454.585395 
L 37.864542 452.266733 
L 41.01992 452.132242 
L 50.486056 450.540764 
L 53.641434 450.915275 
L 56.796813 449.896896 
L 59.952191 450.529506 
L 63.10757 452.338014 
L 69.418327 457.129162 
L 72.573705 458.541556 
L 75.729084 459.81316 
L 85.195219 462.514001 
L 91.505976 463.411163 
L 97.816733 464.9762 
L 100.972112 465.683282 
L 104.12749 464.925533 
L 107.282869 463.816833 
L 110.438247 463.109768 
L 113.593625 462.045436 
L 116.749004 461.571751 
L 123.059761 461.204142 
L 129.370518 461.0114 
L 132.525896 461.480638 
L 135.681275 462.103453 
L 138.836653 462.847495 
L 145.14741 463.743075 
L 148.302789 464.424377 
L 151.458167 464.961819 
L 154.613546 464.987657 
L 157.768924 465.847782 
L 160.924303 466.927635 
L 164.079681 466.937584 
L 167.23506 467.743803 
L 170.390438 469.192439 
L 173.545817 469.99263 
L 176.701195 471.292193 
L 179.856574 472.354616 
L 183.011952 475.066946 
L 186.167331 477.247051 
L 189.322709 478.842156 
L 192.478088 480.050715 
L 198.788845 480.203675 
L 201.944223 479.20384 
L 205.099602 477.545783 
L 211.410359 475.484522 
L 214.565737 475.395877 
L 217.721116 474.851269 
L 220.876494 474.80474 
L 230.342629 472.548215 
L 233.498008 471.105465 
L 236.653386 469.937198 
L 239.808765 469.410144 
L 242.964143 468.700277 
L 246.119522 468.615398 
L 249.2749 468.267639 
L 252.430279 467.521554 
L 255.585657 466.501813 
L 258.741036 466.2762 
L 261.896414 466.290346 
L 265.051793 466.516824 
L 268.207171 466.309478 
L 274.517928 466.204996 
L 277.673307 465.395323 
L 280.828685 464.746757 
L 283.984064 464.394245 
L 287.139442 465.014236 
L 290.294821 464.988057 
L 296.605578 466.458562 
L 299.760956 465.786161 
L 302.916335 466.172802 
L 309.227092 467.508186 
L 312.38247 466.507423 
L 315.537849 466.722322 
L 318.693227 466.557662 
L 321.848606 467.003271 
L 331.314741 468.793833 
L 337.625498 469.324655 
L 340.780876 469.963474 
L 343.936255 472.221496 
L 347.091633 474.167746 
L 350.247012 474.709052 
L 353.40239 474.389063 
L 356.557769 473.046194 
L 359.713147 472.183337 
L 362.868526 470.881169 
L 366.023904 469.310411 
L 369.179283 468.142819 
L 375.49004 467.395662 
L 384.956175 467.436312 
L 388.111554 467.941729 
L 391.266932 468.887453 
L 394.422311 470.366494 
L 397.577689 471.224575 
L 400.733068 471.785019 
L 403.888446 472.160105 
L 407.043825 473.064096 
L 410.199203 473.841484 
L 413.354582 473.502995 
L 416.50996 472.672802 
L 419.665339 471.997074 
L 422.820717 470.778585 
L 425.976096 470.066488 
L 429.131474 470.27981 
L 432.286853 469.590848 
L 435.442231 469.251319 
L 438.59761 467.969332 
L 441.752988 467.175095 
L 444.908367 466.752222 
L 451.219124 465.759871 
L 454.374502 465.441303 
L 457.52988 465.521363 
L 463.840637 465.285151 
L 466.996016 464.812574 
L 470.151394 464.921649 
L 473.306773 464.303982 
L 476.462151 464.194964 
L 479.61753 464.304882 
L 482.772908 464.296965 
L 485.928287 464.908102 
L 492.239044 463.385744 
L 495.394422 462.030151 
L 498.549801 461.08798 
L 501.705179 460.274906 
L 504.860558 460.243782 
L 508.015936 460.042731 
L 511.171315 460.149312 
L 514.326693 460.46574 
L 517.482072 461.106627 
L 520.63745 461.000613 
L 523.792829 460.706075 
L 526.948207 460.852203 
L 530.103586 460.45889 
L 533.258964 459.623662 
L 536.414343 458.655917 
L 539.569721 456.831199 
L 542.7251 455.667687 
L 545.880478 454.874659 
L 549.035857 456.155283 
L 552.191235 458.298891 
L 555.346614 459.214714 
L 558.501992 459.241788 
L 571.123506 463.069356 
L 574.278884 463.008334 
L 580.589641 463.526913 
L 583.74502 463.001151 
L 586.900398 462.346088 
L 593.211155 461.573925 
L 596.366534 462.320304 
L 599.521912 462.607987 
L 602.677291 463.194549 
L 605.832669 463.363285 
L 608.988048 463.124634 
L 612.143426 463.227446 
L 615.298805 464.038003 
L 624.76494 467.441713 
L 627.920319 469.476152 
L 634.231076 472.298773 
L 637.386454 473.933493 
L 640.541833 474.30244 
L 646.85259 473.721392 
L 653.163347 474.890429 
L 656.318725 475.042707 
L 662.629482 474.61311 
L 665.784861 472.826254 
L 668.940239 472.174549 
L 672.095618 471.144674 
L 678.406375 468.836442 
L 681.561753 468.215668 
L 684.717131 466.957638 
L 687.87251 465.933961 
L 694.183267 464.435465 
L 697.338645 462.482003 
L 700.494024 459.488687 
L 703.649402 455.06743 
L 706.804781 451.105393 
L 709.960159 449.631598 
L 713.115538 447.266833 
L 716.270916 444.758528 
L 719.426295 442.061122 
L 722.581673 439.14205 
L 725.737052 437.396556 
L 728.89243 437.143306 
L 732.047809 439.260876 
L 735.203187 440.31759 
L 738.358566 443.336003 
L 741.513944 443.078759 
L 744.669323 442.463129 
L 747.824701 442.039735 
L 750.98008 441.170109 
L 754.135458 440.428626 
L 757.290837 440.668057 
L 760.446215 439.946173 
L 763.601594 440.526634 
L 766.756972 441.693451 
L 769.912351 441.815245 
L 776.223108 441.434398 
L 779.378486 442.245751 
L 782.533865 442.718317 
L 785.689243 443.786998 
L 788.844622 442.97098 
L 788.844622 442.97098 
" clip-path="url(#pc205ac7a09)" style="fill: none; stroke: #000000; stroke-width: 1.5; stroke-linecap: square"/>
   </g>
   <g id="line2d_4">
    <path d="M 0 459 
L 3.155378 459 
L 6.310757 459.180066 
L 9.466135 458.349052 
L 12.621514 457.190503 
L 15.776892 458.353005 
L 18.932271 459.032073 
L 22.087649 458.560907 
L 25.243028 457.969359 
L 28.398406 457.171799 
L 31.553785 455.788666 
L 37.864542 453.872938 
L 41.01992 453.506615 
L 50.486056 451.868205 
L 53.641434 451.86473 
L 56.796813 451.136022 
L 59.952191 451.291057 
L 63.10757 452.178814 
L 69.418327 455.069071 
L 72.573705 456.181456 
L 75.729084 458.154071 
L 78.884462 459.383229 
L 88.350598 461.319318 
L 91.505976 461.830819 
L 100.972112 463.860987 
L 104.12749 463.737813 
L 116.749004 462.130591 
L 123.059761 461.751356 
L 129.370518 461.48225 
L 132.525896 461.666957 
L 135.681275 461.980987 
L 141.992032 462.730705 
L 145.14741 463.067839 
L 151.458167 463.990052 
L 154.613546 464.162727 
L 157.768924 464.764924 
L 160.924303 465.526729 
L 164.079681 465.755796 
L 167.23506 466.382309 
L 170.390438 467.386158 
L 173.545817 468.108784 
L 179.856574 470.036111 
L 183.011952 471.87777 
L 186.167331 473.568705 
L 189.322709 475.020861 
L 192.478088 476.285276 
L 198.788845 477.47166 
L 201.944223 477.362535 
L 205.099602 476.756044 
L 211.410359 475.799152 
L 214.565737 475.705595 
L 217.721116 475.366238 
L 220.876494 475.266443 
L 227.187251 474.281348 
L 230.342629 473.720583 
L 236.653386 471.875684 
L 242.964143 470.618675 
L 249.2749 469.832586 
L 252.430279 469.184856 
L 255.585657 468.371565 
L 258.741036 467.955269 
L 261.896414 467.698025 
L 265.051793 467.602211 
L 268.207171 467.319302 
L 274.517928 466.967531 
L 280.828685 465.889119 
L 283.984064 465.507226 
L 287.139442 465.657413 
L 290.294821 465.531858 
L 296.605578 466.208013 
L 299.760956 465.874516 
L 302.916335 466.063633 
L 309.227092 466.862309 
L 312.38247 466.417259 
L 315.537849 466.543315 
L 318.693227 466.477557 
L 321.848606 466.727141 
L 334.47012 468.181747 
L 337.625498 468.485343 
L 340.780876 468.963864 
L 347.091633 471.704657 
L 350.247012 472.388527 
L 353.40239 472.584743 
L 356.557769 472.145153 
L 359.713147 471.821825 
L 362.868526 471.170583 
L 369.179283 469.484426 
L 375.49004 468.664737 
L 384.956175 468.194775 
L 388.111554 468.350874 
L 391.266932 468.80359 
L 394.422311 469.626729 
L 397.577689 470.217132 
L 407.043825 471.736418 
L 410.199203 472.370619 
L 413.354582 472.423027 
L 419.665339 471.859552 
L 422.820717 471.218883 
L 425.976096 470.760303 
L 429.131474 470.764368 
L 432.286853 470.311612 
L 435.442231 470.011084 
L 438.59761 469.19324 
L 441.752988 468.566879 
L 454.374502 466.739442 
L 460.685259 466.334794 
L 463.840637 466.136771 
L 466.996016 465.747761 
L 470.151394 465.661352 
L 473.306773 465.208638 
L 476.462151 465.0067 
L 482.772908 464.834152 
L 485.928287 465.081409 
L 492.239044 464.146077 
L 495.394422 463.283619 
L 501.705179 461.884871 
L 511.171315 461.129901 
L 514.326693 461.141053 
L 517.482072 461.377411 
L 526.948207 461.086208 
L 530.103586 460.831463 
L 542.7251 458.8372 
L 545.880478 457.889037 
L 549.035857 458.09376 
L 552.191235 458.937828 
L 555.346614 459.186157 
L 558.501992 459.201558 
L 564.812749 460.305305 
L 571.123506 461.67065 
L 574.278884 461.858277 
L 580.589641 462.493347 
L 583.74502 462.368035 
L 590.055777 461.942234 
L 593.211155 461.725249 
L 596.366534 462.105499 
L 599.521912 462.296101 
L 602.677291 462.66569 
L 605.832669 462.841562 
L 608.988048 462.794761 
L 612.143426 462.904433 
L 615.298805 463.397426 
L 621.609562 464.881932 
L 624.76494 465.741023 
L 627.920319 467.118475 
L 634.231076 469.448794 
L 637.386454 470.792491 
L 640.541833 471.495302 
L 646.85259 471.987915 
L 653.163347 473.173924 
L 656.318725 473.531904 
L 662.629482 473.72513 
L 665.784861 472.897429 
L 668.940239 472.534103 
L 672.095618 471.919752 
L 678.406375 470.362504 
L 681.561753 469.788821 
L 687.87251 468.015146 
L 694.183267 466.549412 
L 697.338645 465.157458 
L 700.494024 463.113383 
L 703.649402 461.566485 
L 706.804781 460.239289 
L 709.960159 459.363672 
L 713.115538 457.161397 
L 719.426295 451.259446 
L 722.581673 448.207294 
L 725.737052 445.808941 
L 728.89243 444.316744 
L 732.047809 444.312289 
L 735.203187 444.060808 
L 738.358566 445.078629 
L 741.513944 444.6394 
L 750.98008 442.775567 
L 754.135458 442.074314 
L 757.290837 441.901232 
L 760.446215 441.276578 
L 763.601594 441.341244 
L 766.756972 441.815209 
L 769.912351 441.825854 
L 776.223108 441.539436 
L 779.378486 441.936138 
L 782.533865 442.218583 
L 785.689243 442.859289 
L 788.844622 442.550038 
L 788.844622 442.550038 
" clip-path="url(#pc205ac7a09)" style="fill: none; stroke: #000000; stroke-width: 1.5; stroke-linecap: square"/>
   </g>
   <g id="line2d_5">
    <path d="M 0 459 
L 3.155378 459 
L 6.310757 459.172917 
L 9.466135 458.426037 
L 12.621514 457.372524 
L 15.776892 458.329184 
L 18.932271 458.952281 
L 25.243028 458.08648 
L 28.398406 457.461724 
L 31.553785 456.395331 
L 37.864542 454.843054 
L 41.01992 454.470853 
L 50.486056 453.026487 
L 53.641434 452.899529 
L 56.796813 452.330707 
L 59.952191 452.30434 
L 63.10757 452.747167 
L 66.262948 453.534066 
L 69.418327 454.435922 
L 72.573705 455.156116 
L 78.884462 457.734682 
L 82.039841 459.041817 
L 85.195219 459.569988 
L 91.505976 460.37862 
L 100.972112 461.943158 
L 104.12749 462.042443 
L 113.593625 461.699173 
L 123.059761 461.463237 
L 129.370518 461.357418 
L 135.681275 461.647383 
L 157.768924 463.536273 
L 160.924303 464.037509 
L 164.079681 464.280453 
L 167.23506 464.731 
L 170.390438 465.393836 
L 173.545817 465.936899 
L 179.856574 467.330144 
L 186.167331 469.679607 
L 192.478088 471.772163 
L 198.788845 473.130473 
L 201.944223 473.431966 
L 211.410359 473.454924 
L 214.565737 473.601301 
L 224.031873 473.580987 
L 230.342629 473.194117 
L 236.653386 472.281822 
L 252.430279 470.549035 
L 255.585657 470.014305 
L 261.896414 469.393032 
L 268.207171 468.927867 
L 274.517928 468.489513 
L 283.984064 467.328853 
L 287.139442 467.261753 
L 290.294821 467.069183 
L 296.605578 467.198956 
L 299.760956 466.947225 
L 302.916335 466.959907 
L 309.227092 467.256897 
L 312.38247 466.995788 
L 321.848606 467.044729 
L 337.625498 468.00135 
L 340.780876 468.292295 
L 347.091633 469.885869 
L 350.247012 470.394018 
L 353.40239 470.661747 
L 359.713147 470.551293 
L 362.868526 470.315998 
L 369.179283 469.535493 
L 378.645418 468.952603 
L 388.111554 468.743559 
L 391.266932 468.94137 
L 397.577689 469.681048 
L 407.043825 470.638441 
L 410.199203 471.058808 
L 413.354582 471.192107 
L 419.665339 471.078133 
L 425.976096 470.600605 
L 429.131474 470.615441 
L 435.442231 470.228587 
L 441.752988 469.410082 
L 460.685259 467.680027 
L 470.151394 466.990036 
L 473.306773 466.643837 
L 479.61753 466.268407 
L 482.772908 466.104734 
L 485.928287 466.129456 
L 492.239044 465.461076 
L 501.705179 463.892652 
L 511.171315 463.010691 
L 514.326693 462.863198 
L 517.482072 462.844672 
L 530.103586 462.104853 
L 545.880478 460.320948 
L 549.035857 460.211646 
L 555.346614 460.230418 
L 558.501992 460.150465 
L 564.812749 460.59412 
L 571.123506 461.286854 
L 577.434263 461.628106 
L 580.589641 461.82876 
L 586.900398 461.726766 
L 593.211155 461.576361 
L 602.677291 462.124232 
L 605.832669 462.256722 
L 612.143426 462.371071 
L 615.298805 462.668789 
L 621.609562 463.581605 
L 624.76494 464.135122 
L 637.386454 467.513683 
L 640.541833 468.149807 
L 650.007968 469.4914 
L 653.163347 470.067614 
L 656.318725 470.51073 
L 662.629482 471.093703 
L 665.784861 470.879754 
L 668.940239 470.857972 
L 672.095618 470.676636 
L 681.561753 469.759685 
L 694.183267 467.879774 
L 697.338645 467.044978 
L 700.494024 465.823483 
L 706.804781 463.834649 
L 713.115538 462.263551 
L 722.581673 459.710744 
L 725.737052 458.817391 
L 728.89243 456.971156 
L 735.203187 454.854042 
L 738.358566 454.509505 
L 754.135458 449.496535 
L 757.290837 448.804616 
L 760.446215 447.919788 
L 763.601594 447.413261 
L 766.756972 447.161612 
L 776.223108 445.800213 
L 782.533865 445.496925 
L 785.689243 445.561333 
L 788.844622 445.178358 
L 788.844622 445.178358 
" clip-path="url(#pc205ac7a09)" style="fill: none; stroke: #000000; stroke-width: 1.5; stroke-linecap: square"/>
   </g>
   <g id="line2d_6">
    <path d="M 0 459 
L 3.155378 459 
L 6.310757 459.169331 
L 9.466135 458.463384 
L 12.621514 457.462726 
L 15.776892 458.325294 
L 18.932271 458.88975 
L 25.243028 458.139408 
L 28.398406 457.597214 
L 31.553785 456.682904 
L 37.864542 455.335157 
L 44.175299 454.552342 
L 50.486056 453.711199 
L 53.641434 453.55959 
L 56.796813 453.084096 
L 59.952191 453.007769 
L 63.10757 453.277637 
L 72.573705 454.928077 
L 78.884462 456.754257 
L 82.039841 457.75653 
L 85.195219 458.901406 
L 100.972112 460.746974 
L 104.12749 460.87651 
L 113.593625 460.838999 
L 129.370518 460.817578 
L 135.681275 461.044298 
L 154.613546 462.134343 
L 167.23506 463.262546 
L 179.856574 465.040445 
L 192.478088 468.013511 
L 198.788845 469.101665 
L 201.944223 469.447497 
L 220.876494 470.541049 
L 227.187251 470.657719 
L 230.342629 470.660398 
L 255.585657 469.522401 
L 265.051793 469.134392 
L 277.673307 468.521102 
L 283.984064 468.08632 
L 302.916335 467.696989 
L 309.227092 467.789465 
L 312.38247 467.630876 
L 325.003984 467.640481 
L 340.780876 468.145472 
L 350.247012 469.288952 
L 353.40239 469.472785 
L 362.868526 469.436359 
L 372.334661 469.012946 
L 378.645418 468.844249 
L 388.111554 468.748695 
L 391.266932 468.851908 
L 400.733068 469.415974 
L 407.043825 469.813804 
L 410.199203 470.065924 
L 416.50996 470.200682 
L 422.820717 470.109248 
L 438.59761 469.705156 
L 457.52988 468.6788 
L 492.239044 466.914415 
L 501.705179 465.903332 
L 514.326693 465.023071 
L 520.63745 464.746961 
L 536.414343 463.630591 
L 545.880478 462.81096 
L 552.191235 462.559002 
L 561.657371 462.336863 
L 567.968127 462.470664 
L 574.278884 462.59874 
L 583.74502 462.669659 
L 593.211155 462.431596 
L 605.832669 462.660738 
L 612.143426 462.686586 
L 618.454183 463.035366 
L 624.76494 463.580263 
L 643.697211 466.21708 
L 650.007968 466.885598 
L 656.318725 467.633908 
L 662.629482 468.176932 
L 678.406375 468.169335 
L 681.561753 468.109545 
L 694.183267 467.35353 
L 697.338645 466.947965 
L 703.649402 465.778171 
L 709.960159 464.798819 
L 719.426295 463.261582 
L 725.737052 462.178484 
L 728.89243 461.725458 
L 738.358566 460.864583 
L 757.290837 459.010691 
L 760.446215 458.140922 
L 763.601594 457.444833 
L 769.912351 456.254586 
L 776.223108 454.976758 
L 782.533865 454.053981 
L 785.689243 453.721001 
L 788.844622 453.175946 
L 788.844622 453.175946 
" clip-path="url(#pc205ac7a09)" style="fill: none; stroke: #000000; stroke-width: 1.5; stroke-linecap: square"/>
   </g>
   <g id="line2d_7">
    <path d="M 0 459 
L 3.155378 459 
L 6.310757 459.167537 
L 9.466135 458.481738 
L 12.621514 457.507479 
L 15.776892 458.325298 
L 18.932271 458.861098 
L 25.243028 458.164508 
L 28.398406 457.661943 
L 31.553785 456.820605 
L 37.864542 455.576811 
L 44.175299 454.84379 
L 50.486056 454.067987 
L 53.641434 453.91352 
L 56.796813 453.486972 
L 59.952191 453.397244 
L 63.10757 453.598348 
L 72.573705 454.915267 
L 78.884462 456.391044 
L 88.350598 458.87157 
L 100.972112 460.162429 
L 107.282869 460.318679 
L 113.593625 460.326404 
L 129.370518 460.399206 
L 138.836653 460.730835 
L 154.613546 461.45259 
L 167.23506 462.309795 
L 179.856574 463.615645 
L 192.478088 465.740282 
L 198.788845 466.567475 
L 205.099602 467.047048 
L 220.876494 467.970819 
L 230.342629 468.24959 
L 252.430279 468.101625 
L 261.896414 467.898914 
L 274.517928 467.742829 
L 287.139442 467.402619 
L 293.450199 467.343857 
L 299.760956 467.288433 
L 325.003984 467.313954 
L 340.780876 467.641154 
L 350.247012 468.320515 
L 356.557769 468.476187 
L 362.868526 468.495628 
L 375.49004 468.278694 
L 388.111554 468.248088 
L 397.577689 468.556436 
L 419.665339 469.207043 
L 444.908367 468.895531 
L 495.394422 467.376496 
L 508.015936 466.680461 
L 523.792829 466.08232 
L 533.258964 465.652964 
L 549.035857 464.788012 
L 564.812749 464.415145 
L 583.74502 464.328458 
L 596.366534 464.102531 
L 615.298805 464.084252 
L 624.76494 464.399371 
L 659.474104 466.667447 
L 662.629482 466.829232 
L 681.561753 466.963055 
L 694.183267 466.662539 
L 697.338645 466.471583 
L 706.804781 465.618872 
L 716.270916 464.84599 
L 732.047809 463.47109 
L 763.601594 461.461981 
L 788.844622 460.216793 
L 788.844622 460.216793 
" clip-path="url(#pc205ac7a09)" style="fill: none; stroke: #000000; stroke-width: 1.5; stroke-linecap: square"/>
   </g>
   <g id="line2d_8">
    <path d="M 0 459 
L 3.155378 459 
L 6.310757 459.166639 
L 9.466135 458.490831 
L 12.621514 457.529751 
L 15.776892 458.325776 
L 18.932271 458.847448 
L 25.243028 458.17673 
L 28.398406 457.693489 
L 31.553785 456.887698 
L 37.864542 455.695755 
L 44.175299 454.989418 
L 50.486056 454.247936 
L 53.641434 454.094162 
L 56.796813 453.692295 
L 59.952191 453.598577 
L 63.10757 453.769947 
L 72.573705 454.935196 
L 78.884462 456.247705 
L 91.505976 459.046194 
L 100.972112 459.887941 
L 107.282869 460.041018 
L 116.749004 460.078033 
L 132.525896 460.237913 
L 148.302789 460.829945 
L 167.23506 461.801002 
L 179.856574 462.873554 
L 195.633466 464.924996 
L 201.944223 465.510918 
L 224.031873 466.628801 
L 233.498008 466.821627 
L 268.207171 466.787168 
L 280.828685 466.646354 
L 290.294821 466.563346 
L 337.625498 466.868975 
L 343.936255 467.107233 
L 350.247012 467.422233 
L 356.557769 467.55163 
L 366.023904 467.561162 
L 378.645418 467.504396 
L 391.266932 467.581137 
L 416.50996 468.221967 
L 432.286853 468.277844 
L 441.752988 468.192252 
L 473.306773 467.753392 
L 495.394422 467.337567 
L 514.326693 466.764256 
L 530.103586 466.390407 
L 555.346614 465.592653 
L 564.812749 465.449074 
L 586.900398 465.267361 
L 602.677291 465.115332 
L 618.454183 465.092684 
L 627.920319 465.313694 
L 665.784861 466.544574 
L 675.250996 466.62332 
L 691.027888 466.512554 
L 697.338645 466.365665 
L 728.89243 464.786803 
L 788.844622 462.531685 
L 788.844622 462.531685 
" clip-path="url(#pc205ac7a09)" style="fill: none; stroke: #000000; stroke-width: 1.5; stroke-linecap: square"/>
   </g>
   <g id="line2d_9">
    <path d="M 0 459 
L 3.155378 459 
L 6.310757 459.166191 
L 9.466135 458.495357 
L 12.621514 457.540858 
L 15.776892 458.326132 
L 18.932271 458.840796 
L 25.243028 458.18276 
L 28.398406 457.709051 
L 31.553785 456.920778 
L 37.864542 455.754661 
L 44.175299 455.062032 
L 50.486056 454.338022 
L 53.641434 454.18508 
L 56.796813 453.795548 
L 59.952191 453.700467 
L 63.10757 453.858122 
L 72.573705 454.951616 
L 78.884462 456.186045 
L 91.505976 458.904393 
L 97.816733 459.490282 
L 100.972112 459.756909 
L 107.282869 459.906437 
L 116.749004 459.952461 
L 132.525896 460.113982 
L 148.302789 460.660687 
L 167.23506 461.544703 
L 179.856574 462.505085 
L 195.633466 464.322581 
L 201.944223 464.847745 
L 224.031873 465.882461 
L 233.498008 466.081527 
L 268.207171 466.17028 
L 280.828685 466.090173 
L 290.294821 466.045648 
L 340.780876 466.443367 
L 353.40239 466.916983 
L 366.023904 466.979398 
L 384.956175 466.973207 
L 394.422311 467.119508 
L 419.665339 467.605412 
L 451.219124 467.532863 
L 495.394422 467.063566 
L 517.482072 466.629469 
L 539.569721 466.159524 
L 555.346614 465.838531 
L 564.812749 465.732133 
L 590.055777 465.551665 
L 602.677291 465.471712 
L 621.609562 465.470231 
L 634.231076 465.733883 
L 646.85259 466.023343 
L 665.784861 466.397025 
L 681.561753 466.452934 
L 697.338645 466.29234 
L 735.203187 465.085585 
L 750.98008 464.662909 
L 782.533865 463.847195 
L 788.844622 463.702657 
L 788.844622 463.702657 
" clip-path="url(#pc205ac7a09)" style="fill: none; stroke: #000000; stroke-width: 1.5; stroke-linecap: square"/>
   </g>
  </g>
 </g>
 <defs>
  <clipPath id="pc205ac7a09">
   <rect x="0" y="0" width="792" height="612"/>
  </clipPath>
 </defs>
</svg>
