<?xml version="1.0" encoding="utf-8" standalone="no"?>
<!DOCTYPE svg PUBLIC "-//W3C//DTD SVG 1.1//EN"
  "http://www.w3.org/Graphics/SVG/1.1/DTD/svg11.dtd">
<svg xmlns:xlink="http://www.w3.org/1999/xlink" width="792pt" height="612pt" viewBox="0 0 792 612" xmlns="http://www.w3.org/2000/svg" version="1.1">
 <metadata>
  <rdf:RDF xmlns:dc="http://purl.org/dc/elements/1.1/" xmlns:cc="http://creativecommons.org/ns#" xmlns:rdf="http://www.w3.org/1999/02/22-rdf-syntax-ns#">
   <cc:Work>
    <dc:type rdf:resource="http://purl.org/dc/dcmitype/StillImage"/>
    <dc:date>2022-12-19T20:28:49.227089</dc:date>
    <dc:format>image/svg+xml</dc:format>
    <dc:creator>
     <cc:Agent>
      <dc:title>Matplotlib v3.6.2, https://matplotlib.org/</dc:title>
     </cc:Agent>
    </dc:creator>
   </cc:Work>
  </rdf:RDF>
 </metadata>
 <defs>
  <style type="text/css">*{stroke-linejoin: round; stroke-linecap: butt}</style>
 </defs>
 <g id="figure_1">
  <g id="patch_1">
   <path d="M 0 612 
L 792 612 
L 792 0 
L 0 0 
z
" style="fill: #ffffff"/>
  </g>
  <g id="axes_1">
   <g id="line2d_1">
    <path d="M 0 306 
L 3.155378 306.662966 
L 6.310757 303.673845 
L 9.466135 304.802013 
L 12.621514 310.477616 
L 15.776892 305.965107 
L 18.932271 302.906259 
L 22.087649 305.360296 
L 25.243028 304.825275 
L 28.398406 303.336568 
L 31.553785 306.418716 
L 34.709163 305.29051 
L 37.864542 307.488756 
L 41.01992 304.999737 
L 44.175299 305.40682 
L 47.330677 306.081417 
L 50.486056 307.535279 
L 53.641434 303.092337 
L 56.796813 309.058851 
L 59.952191 309.082111 
L 63.10757 308.663432 
L 66.262948 307.39571 
L 69.418327 305.430082 
L 72.573705 310.303187 
L 75.729084 307.430603 
L 78.884462 307.465495 
L 82.039841 308.430828 
L 85.195219 304.301891 
L 88.350598 307.139833 
L 91.505976 309.407742 
L 94.661355 306.96537 
L 97.816733 307.291033 
L 100.972112 297.453438 
L 107.282869 306.535025 
L 110.438247 302.1736 
L 113.593625 307.907459 
L 116.749004 306.674597 
L 123.059761 305.732487 
L 126.215139 306.255882 
L 129.370518 309.47752 
L 132.525896 307.988873 
L 135.681275 308.058656 
L 138.836653 305.511498 
L 141.992032 306.83743 
L 145.14741 308.51224 
L 148.302789 306.383823 
L 151.458167 303.557542 
L 154.613546 311.710158 
L 157.768924 309.210038 
L 160.924303 300.859581 
L 164.079681 311.442734 
L 167.23506 311.977574 
L 170.390438 304.476351 
L 173.545817 310.989257 
L 176.701195 306.977001 
L 179.856574 319.343921 
L 183.011952 307.791154 
L 186.167331 306.372192 
L 189.322709 306.546656 
L 192.478088 300.336349 
L 195.633466 306.802537 
L 198.788845 298.569252 
L 201.944223 299.5225 
L 205.099602 306.779275 
L 208.25498 304.313522 
L 211.410359 310.186899 
L 214.565737 302.743443 
L 217.721116 308.326155 
L 220.876494 301.185163 
L 224.031873 304.464721 
L 227.187251 304.418198 
L 230.342629 299.917788 
L 233.498008 304.999737 
L 236.653386 308.035395 
L 239.808765 303.708736 
L 242.964143 308.814623 
L 246.119522 304.046018 
L 249.2749 302.568999 
L 252.430279 302.627146 
L 255.585657 309.372854 
L 258.741036 307.174725 
L 261.896414 307.488756 
L 265.051793 303.48776 
L 268.207171 306.953739 
L 271.36255 305.360296 
L 274.517928 300.952603 
L 277.673307 305.476605 
L 280.828685 306.697859 
L 283.984064 311.907814 
L 287.139442 302.84811 
L 290.294821 311.000885 
L 293.450199 307.674847 
L 296.605578 297.802107 
L 299.760956 311.849681 
L 302.916335 308.930923 
L 306.071713 306.895585 
L 309.227092 296.175182 
L 312.38247 312.279859 
L 315.537849 303.83667 
L 318.693227 309.8264 
L 321.848606 308.105178 
L 325.003984 307.453864 
L 331.314741 305.011368 
L 334.47012 307.163094 
L 337.625498 308.802993 
L 340.780876 318.29897 
L 343.936255 308.384307 
L 347.091633 300.289842 
L 350.247012 301.243304 
L 353.40239 298.41814 
L 356.557769 306.59318 
L 359.713147 301.254932 
L 362.868526 301.603784 
L 366.023904 305.604546 
L 369.179283 309.407742 
L 372.334661 304.720597 
L 375.49004 308.349416 
L 378.645418 306.337299 
L 381.800797 304.988107 
L 384.956175 309.872916 
L 388.111554 310.012465 
L 391.266932 311.559007 
L 394.422311 304.732228 
L 397.577689 305.662701 
L 400.733068 305.837166 
L 403.888446 310.314815 
L 407.043825 306.942108 
L 410.199203 299.941041 
L 413.354582 301.964277 
L 416.50996 305.395189 
L 419.665339 300.975859 
L 422.820717 307.011893 
L 425.976096 310.884605 
L 429.131474 300.289842 
L 432.286853 307.000263 
L 435.442231 298.92961 
L 438.59761 306.779275 
L 441.752988 306.96537 
L 444.908367 304.27863 
L 448.063745 305.65107 
L 451.219124 305.953476 
L 454.374502 308.093547 
L 457.52988 304.61592 
L 460.685259 306.081417 
L 463.840637 303.197007 
L 466.996016 309.012332 
L 470.151394 301.254932 
L 473.306773 308.233113 
L 476.462151 307.291033 
L 479.61753 305.395189 
L 482.772908 310.198528 
L 485.928287 298.19729 
L 489.083665 303.906453 
L 492.239044 300.685167 
L 495.394422 306.104679 
L 498.549801 304.999737 
L 501.705179 309.698478 
L 504.860558 304.790382 
L 508.015936 307.686478 
L 511.171315 307.639955 
L 514.326693 308.826253 
L 517.482072 302.208488 
L 520.63745 304.487982 
L 523.792829 308.419198 
L 526.948207 302.627146 
L 530.103586 302.208488 
L 533.258964 305.011368 
L 536.414343 305.383558 
L 539.569721 306.279144 
L 542.7251 306.046524 
L 545.880478 310.17527 
L 549.035857 308.802993 
L 552.191235 305.627808 
L 555.346614 304.022757 
L 558.501992 312.524003 
L 561.657371 307.500387 
L 564.812749 308.52387 
L 567.968127 307.407341 
L 571.123506 301.127023 
L 574.278884 308.279634 
L 577.434263 306.139572 
L 580.589641 301.313073 
L 583.74502 304.069279 
L 586.900398 306.651335 
L 590.055777 305.011368 
L 593.211155 313.023891 
L 596.366534 304.383306 
L 599.521912 308.616911 
L 602.677291 304.325153 
L 605.832669 303.557542 
L 608.988048 307.872568 
L 612.143426 311.024141 
L 618.454183 308.314525 
L 621.609562 308.54713 
L 624.76494 314.209516 
L 627.920319 305.720856 
L 631.075697 308.954182 
L 634.231076 310.256672 
L 637.386454 300.650285 
L 640.541833 302.32478 
L 643.697211 305.313772 
L 646.85259 311.047397 
L 650.007968 307.814415 
L 653.163347 303.952974 
L 656.318725 303.557542 
L 659.474104 305.988369 
L 662.629482 294.734654 
L 665.784861 310.17527 
L 668.940239 302.138713 
L 672.095618 302.84811 
L 675.250996 304.185585 
L 678.406375 307.139833 
L 681.561753 300.440993 
L 684.717131 305.104415 
L 687.87251 305.523129 
L 691.027888 304.976476 
L 694.183267 296.117088 
L 697.338645 295.059893 
L 700.494024 308.16333 
L 703.649402 305.662701 
L 706.804781 309.000702 
L 709.960159 302.999298 
L 713.115538 304.057649 
L 719.426295 303.685475 
L 722.581673 306.70949 
L 725.737052 308.221482 
L 728.89243 311.221812 
L 732.047809 304.976476 
L 735.203187 311.152046 
L 738.358566 300.568893 
L 741.513944 305.011368 
L 744.669323 305.988369 
L 747.824701 304.662443 
L 750.98008 305.720856 
L 754.135458 307.733001 
L 757.290837 303.987866 
L 760.446215 308.465719 
L 763.601594 307.709739 
L 766.756972 304.394937 
L 769.912351 305.29051 
L 773.067729 306 
L 776.223108 308.105178 
L 779.378486 305.790642 
L 782.533865 307.663217 
L 785.689243 302.452704 
L 788.844622 307.570171 
L 788.844622 307.570171 
" clip-path="url(#p6846876b9f)" style="fill: none; stroke: #000000; stroke-width: 1.5; stroke-linecap: square"/>
   </g>
   <g id="line2d_2">
    <path d="M 0 306 
L 3.155378 306 
L 6.310757 306.441978 
L 9.466135 304.860167 
L 12.621514 304.829152 
L 15.776892 307.744631 
L 18.932271 306.840753 
L 22.087649 304.857969 
L 25.243028 305.110117 
L 28.398406 304.965392 
L 31.553785 304.144445 
L 34.709163 305.286953 
L 37.864542 305.289689 
L 41.01992 306.383367 
L 44.175299 305.689658 
L 47.330677 305.553142 
L 50.486056 305.818693 
L 53.641434 306.682305 
L 56.796813 304.886804 
L 59.952191 306.97805 
L 63.10757 308.037539 
L 66.262948 308.352791 
L 69.418327 307.878953 
L 72.573705 306.654573 
L 75.729084 308.487246 
L 78.884462 307.958725 
L 82.039841 307.720686 
L 85.195219 308.074528 
L 88.350598 306.178844 
L 91.505976 306.656352 
L 94.661355 308.036034 
L 97.816733 307.503717 
L 100.972112 307.391469 
L 104.12749 302.401945 
L 107.282869 302.236535 
L 110.438247 304.381983 
L 113.593625 303.273583 
L 116.749004 305.592003 
L 119.904382 306.127941 
L 123.059761 306.184682 
L 126.215139 305.955529 
L 129.370518 306.122969 
L 132.525896 307.81478 
L 138.836653 307.993206 
L 141.992032 306.747667 
L 145.14741 306.792868 
L 148.302789 307.657014 
L 151.458167 307.0217 
L 154.613546 305.284307 
L 157.768924 308.501887 
L 160.924303 308.858361 
L 164.079681 304.844659 
L 167.23506 308.155576 
L 170.390438 310.076812 
L 173.545817 307.268775 
L 176.701195 309.138162 
L 179.856574 308.064312 
L 183.011952 313.72171 
L 186.167331 310.754097 
L 189.322709 308.574085 
L 192.478088 307.550787 
L 195.633466 303.920455 
L 198.788845 305.366043 
L 201.944223 301.942797 
L 205.099602 300.717952 
L 208.25498 303.723741 
L 211.410359 304.011811 
L 214.565737 307.106947 
L 217.721116 304.917683 
L 220.876494 306.637606 
L 224.031873 303.900204 
L 227.187251 304.194023 
L 230.342629 304.315711 
L 233.498008 302.103096 
L 236.653386 303.552707 
L 239.808765 305.789821 
L 242.964143 304.751157 
L 246.119522 306.783882 
L 252.430279 303.991013 
L 255.585657 303.305554 
L 258.741036 306.357779 
L 265.051793 307.128567 
L 268.207171 305.307706 
L 271.36255 306.127074 
L 274.517928 305.746262 
L 277.673307 303.3461 
L 283.984064 305.552138 
L 287.139442 308.739552 
L 290.294821 305.784712 
L 293.450199 308.407704 
L 296.605578 308.042693 
L 299.760956 302.906715 
L 302.916335 307.399861 
L 306.071713 308.172178 
L 309.227092 307.534276 
L 312.38247 301.82245 
L 315.537849 307.069956 
L 318.693227 305.43925 
L 321.848606 307.637128 
L 325.003984 307.891359 
L 328.159363 307.663992 
L 331.314741 306.966373 
L 334.47012 305.985176 
L 337.625498 306.595689 
L 340.780876 307.692544 
L 343.936255 313.026215 
L 347.091633 310.702705 
L 350.247012 305.480802 
L 353.40239 303.349749 
L 356.557769 300.868199 
L 359.713147 303.733593 
L 362.868526 302.482621 
L 366.023904 302.02908 
L 369.179283 303.791836 
L 372.334661 306.601847 
L 375.49004 305.669908 
L 378.645418 307.023615 
L 381.800797 306.695989 
L 384.956175 305.838899 
L 388.111554 307.872887 
L 391.266932 308.959199 
L 394.422311 310.270854 
L 397.577689 307.492496 
L 400.733068 306.579451 
L 403.888446 306.203383 
L 407.043825 308.267 
L 410.199203 307.608393 
L 413.354582 303.754892 
L 416.50996 302.843778 
L 419.665339 304.107364 
L 422.820717 302.534156 
L 425.976096 304.775604 
L 429.131474 307.840185 
L 432.286853 304.045061 
L 435.442231 305.522764 
L 438.59761 302.223765 
L 441.752988 304.510879 
L 444.908367 305.741199 
L 448.063745 305.016386 
L 454.374502 305.632597 
L 457.52988 306.878389 
L 460.685259 305.742476 
L 463.840637 305.925972 
L 466.996016 304.554437 
L 470.151394 306.78744 
L 473.306773 304.015095 
L 476.462151 306.129173 
L 479.61753 306.712728 
L 482.772908 306.048668 
L 485.928287 308.134642 
L 489.083665 303.149757 
L 492.239044 303.529492 
L 495.394422 302.090919 
L 498.549801 304.107227 
L 501.705179 304.547139 
L 504.860558 307.127609 
L 508.015936 305.957809 
L 511.171315 306.817224 
L 514.326693 307.24711 
L 517.482072 308.046341 
L 520.63745 305.130323 
L 523.792829 304.805981 
L 526.948207 306.619316 
L 530.103586 304.609307 
L 533.258964 303.403795 
L 536.414343 304.202324 
L 539.569721 304.788512 
L 542.7251 305.528831 
L 545.880478 305.795203 
L 549.035857 307.99649 
L 552.191235 308.400498 
L 558.501992 305.524954 
L 561.657371 309.039605 
L 564.812749 308.274161 
L 567.968127 308.403417 
L 571.123506 307.908052 
L 574.278884 304.499613 
L 577.434263 306.388612 
L 580.589641 306.265096 
L 583.74502 303.783626 
L 586.900398 303.909873 
L 590.055777 305.278925 
L 593.211155 305.138259 
L 596.366534 309.092601 
L 599.521912 306.744383 
L 602.677291 307.681324 
L 605.832669 305.999681 
L 608.988048 304.782993 
L 612.143426 306.335246 
L 615.298805 308.688425 
L 618.454183 309.179299 
L 621.609562 308.737682 
L 624.76494 308.65057 
L 627.920319 311.441458 
L 631.075697 308.584119 
L 634.231076 308.779733 
L 637.386454 309.522897 
L 640.541833 305.066056 
L 643.697211 303.681005 
L 646.85259 304.491494 
L 650.007968 307.774552 
L 653.163347 307.78194 
L 656.318725 305.863986 
L 659.474104 304.700164 
L 662.629482 305.335894 
L 665.784861 300.021879 
L 668.940239 305.11372 
L 672.095618 303.619935 
L 675.250996 303.217941 
L 678.406375 303.694642 
L 681.561753 305.423468 
L 684.717131 302.925916 
L 687.87251 304.013407 
L 691.027888 304.789424 
L 694.183267 304.872756 
L 697.338645 300.481985 
L 700.494024 297.755024 
L 703.649402 302.966096 
L 706.804781 304.311469 
L 709.960159 306.672909 
L 713.115538 304.831934 
L 716.270916 304.441915 
L 722.581673 303.946543 
L 728.89243 306.7863 
L 732.047809 309.015114 
L 735.203187 306.987947 
L 738.358566 309.086124 
L 741.513944 304.82044 
L 744.669323 304.918048 
L 747.824701 305.457722 
L 750.98008 305.056067 
L 754.135458 305.383558 
L 757.290837 306.551446 
L 760.446215 305.267704 
L 763.601594 306.861467 
L 766.756972 307.299608 
L 769.912351 305.84606 
L 773.067729 305.566917 
L 776.223108 305.786081 
L 779.378486 306.950318 
L 782.533865 306.366673 
L 785.689243 307.022156 
L 788.844622 304.725569 
L 788.844622 304.725569 
" clip-path="url(#p6846876b9f)" style="fill: none; stroke: #000000; stroke-width: 1.5; stroke-linecap: square"/>
   </g>
   <g id="line2d_3">
    <path d="M 0 306 
L 3.155378 306 
L 6.310757 306.388357 
L 9.466135 305.158443 
L 12.621514 305.019248 
L 15.776892 306.96138 
L 18.932271 306.627893 
L 22.087649 305.432131 
L 25.243028 305.409688 
L 28.398406 305.230602 
L 31.553785 304.657944 
L 34.709163 305.185312 
L 37.864542 305.216613 
L 41.01992 305.889545 
L 44.175299 305.626874 
L 47.330677 305.562063 
L 50.486056 305.714775 
L 53.641434 306.249755 
L 56.796813 305.320843 
L 59.952191 306.421895 
L 63.10757 307.205995 
L 66.262948 307.630793 
L 69.418327 307.563582 
L 72.573705 306.9416 
L 75.729084 307.931923 
L 82.039841 307.698342 
L 85.195219 307.915196 
L 88.350598 306.855758 
L 91.505976 306.938561 
L 94.661355 307.666858 
L 97.816733 307.463188 
L 100.972112 307.414155 
L 104.12749 304.484514 
L 107.282869 303.782639 
L 110.438247 304.585878 
L 113.593625 303.871372 
L 116.749004 305.052632 
L 119.904382 305.526865 
L 123.059761 305.737917 
L 126.215139 305.731077 
L 129.370518 305.883439 
L 132.525896 306.938473 
L 138.836653 307.488073 
L 141.992032 306.907283 
L 145.14741 306.883871 
L 148.302789 307.362595 
L 151.458167 307.074879 
L 154.613546 306.051677 
L 157.768924 307.720232 
L 160.924303 308.15967 
L 164.079681 306.019898 
L 167.23506 307.612424 
L 170.390438 308.897186 
L 173.545817 307.600366 
L 176.701195 308.599065 
L 179.856574 308.124812 
L 183.011952 311.424092 
L 189.322709 309.190093 
L 192.478088 308.417069 
L 195.633466 306.042659 
L 198.788845 306.263259 
L 201.944223 304.00036 
L 205.099602 302.684015 
L 208.25498 303.877768 
L 211.410359 303.999772 
L 214.565737 305.82271 
L 217.721116 304.91079 
L 220.876494 305.906942 
L 224.031873 304.520079 
L 230.342629 304.470536 
L 233.498008 303.114585 
L 236.653386 303.663511 
L 239.808765 304.945897 
L 242.964143 304.580276 
L 246.119522 305.830243 
L 249.2749 305.304483 
L 252.430279 304.507842 
L 255.585657 303.960548 
L 258.741036 305.548774 
L 265.051793 306.452956 
L 268.207171 305.585309 
L 271.36255 305.984537 
L 274.517928 305.806497 
L 277.673307 304.380671 
L 280.828685 304.702875 
L 283.984064 305.294977 
L 287.139442 307.239975 
L 290.294821 305.947642 
L 293.450199 307.436199 
L 296.605578 307.504788 
L 299.760956 304.655207 
L 302.916335 306.773281 
L 306.071713 307.412498 
L 309.227092 307.258253 
L 312.38247 303.998503 
L 315.537849 306.429798 
L 318.693227 305.670679 
L 321.848606 306.891217 
L 325.003984 307.249935 
L 328.159363 307.317132 
L 331.314741 307.014037 
L 334.47012 306.425533 
L 337.625498 306.63611 
L 340.780876 307.277631 
L 343.936255 310.515715 
L 347.091633 309.892291 
L 350.247012 307.082608 
L 353.40239 305.360023 
L 356.557769 303.314329 
L 359.713147 304.274305 
L 362.868526 303.395728 
L 366.023904 302.858593 
L 369.179283 303.664862 
L 372.334661 305.346442 
L 375.49004 305.159248 
L 378.645418 306.094667 
L 381.800797 306.165799 
L 384.956175 305.820833 
L 388.111554 307.010831 
L 391.266932 307.891424 
L 394.422311 308.95799 
L 397.577689 307.716143 
L 400.733068 307.120884 
L 403.888446 306.75017 
L 407.043825 307.807961 
L 410.199203 307.554762 
L 413.354582 305.323023 
L 416.50996 304.33963 
L 419.665339 304.648553 
L 422.820717 303.563073 
L 425.976096 304.575816 
L 429.131474 306.426644 
L 432.286853 304.622085 
L 435.442231 305.320944 
L 438.59761 303.436085 
L 441.752988 304.411541 
L 444.908367 305.154256 
L 448.063745 304.897268 
L 454.374502 305.362864 
L 457.52988 306.16012 
L 460.685259 305.70516 
L 463.840637 305.822417 
L 466.996016 305.054848 
L 470.151394 306.21815 
L 473.306773 304.764673 
L 476.462151 305.781965 
L 479.61753 306.219835 
L 482.772908 305.984166 
L 485.928287 307.222269 
L 489.083665 304.577591 
L 492.239044 304.377718 
L 495.394422 303.288884 
L 498.549801 304.115683 
L 501.705179 304.373866 
L 504.860558 305.937752 
L 508.015936 305.5979 
L 511.171315 306.213162 
L 514.326693 306.632854 
L 517.482072 307.281768 
L 520.63745 305.787972 
L 523.792829 305.410925 
L 526.948207 306.292255 
L 530.103586 305.213375 
L 533.258964 304.329562 
L 539.569721 304.783517 
L 542.7251 305.224298 
L 545.880478 305.471281 
L 549.035857 306.853796 
L 552.191235 307.429085 
L 555.346614 306.896833 
L 558.501992 306.054147 
L 561.657371 307.954945 
L 564.812749 307.821648 
L 567.968127 308.026979 
L 571.123506 307.851464 
L 574.278884 305.877955 
L 577.434263 306.581242 
L 580.589641 306.455915 
L 583.74502 304.94848 
L 586.900398 304.689883 
L 590.055777 305.265831 
L 593.211155 305.189845 
L 596.366534 307.492747 
L 599.521912 306.575363 
L 602.677291 307.173119 
L 608.988048 305.5227 
L 612.143426 306.205623 
L 615.298805 307.621099 
L 618.454183 308.217243 
L 624.76494 308.343273 
L 627.920319 310.068639 
L 631.075697 308.794814 
L 634.231076 308.850268 
L 637.386454 309.269316 
L 640.541833 306.737893 
L 643.697211 305.442186 
L 646.85259 305.395717 
L 650.007968 307.05884 
L 653.163347 307.279223 
L 656.318725 306.304556 
L 659.474104 305.499959 
L 662.629482 305.640847 
L 665.784861 302.426451 
L 668.940239 304.696598 
L 672.095618 303.940282 
L 675.250996 303.61384 
L 678.406375 303.769784 
L 681.561753 304.758458 
L 684.717131 303.483996 
L 691.027888 304.418242 
L 694.183267 304.58479 
L 697.338645 302.093288 
L 700.494024 300.014133 
L 703.649402 302.401015 
L 706.804781 303.358252 
L 709.960159 305.017125 
L 713.115538 304.422667 
L 722.581673 304.05084 
L 725.737052 304.833963 
L 728.89243 305.830788 
L 732.047809 307.41461 
L 735.203187 306.705712 
L 738.358566 308.015074 
L 741.513944 305.828301 
L 744.669323 305.589066 
L 747.824701 305.717361 
L 750.98008 305.419416 
L 754.135458 305.5049 
L 757.290837 306.159879 
L 760.446215 305.517945 
L 763.601594 306.387622 
L 766.756972 306.77906 
L 769.912351 306.081311 
L 773.067729 305.851534 
L 776.223108 305.894204 
L 779.378486 306.541659 
L 782.533865 306.315452 
L 785.689243 306.713293 
L 788.844622 305.455357 
L 788.844622 305.455357 
" clip-path="url(#p6846876b9f)" style="fill: none; stroke: #000000; stroke-width: 1.5; stroke-linecap: square"/>
   </g>
   <g id="line2d_4">
    <path d="M 0 306 
L 3.155378 306 
L 6.310757 306.360133 
L 9.466135 305.305844 
L 12.621514 305.145521 
L 15.776892 306.609419 
L 18.932271 306.450841 
L 22.087649 305.64826 
L 28.398406 305.433684 
L 31.553785 305.028366 
L 34.709163 305.288199 
L 37.864542 305.288619 
L 41.01992 305.679786 
L 47.330677 305.53458 
L 50.486056 305.627384 
L 53.641434 305.947777 
L 56.796813 305.472446 
L 63.10757 306.560615 
L 66.262948 306.904219 
L 69.418327 306.984184 
L 72.573705 306.732241 
L 75.729084 307.309448 
L 82.039841 307.350944 
L 85.195219 307.524371 
L 88.350598 307.00763 
L 91.505976 307.028803 
L 94.661355 307.409419 
L 100.972112 307.330868 
L 104.12749 305.753653 
L 107.282869 305.168218 
L 110.438247 305.387467 
L 113.593625 304.874461 
L 116.749004 305.355419 
L 123.059761 305.675782 
L 129.370518 305.776753 
L 132.525896 306.369413 
L 138.836653 306.857402 
L 141.992032 306.642031 
L 145.14741 306.674267 
L 148.302789 306.968639 
L 151.458167 306.875782 
L 154.613546 306.34535 
L 157.768924 307.204387 
L 160.924303 307.523599 
L 164.079681 306.458132 
L 170.390438 308.00767 
L 173.545817 307.445241 
L 176.701195 308.009586 
L 179.856574 307.845017 
L 183.011952 309.683139 
L 186.167331 309.381733 
L 192.478088 308.528773 
L 195.633466 307.219608 
L 198.788845 307.153149 
L 201.944223 305.781749 
L 205.099602 304.787025 
L 208.25498 305.106921 
L 211.410359 304.979301 
L 214.565737 305.812887 
L 217.721116 305.321287 
L 220.876494 305.800409 
L 224.031873 305.06289 
L 230.342629 304.878475 
L 233.498008 304.08314 
L 236.653386 304.227107 
L 239.808765 304.832999 
L 242.964143 304.652997 
L 246.119522 305.316367 
L 249.2749 305.11146 
L 255.585657 304.373432 
L 258.741036 305.167411 
L 265.051793 305.808373 
L 268.207171 305.434183 
L 271.36255 305.672815 
L 274.517928 305.623643 
L 277.673307 304.874133 
L 280.828685 304.969052 
L 283.984064 305.236214 
L 287.139442 306.300374 
L 290.294821 305.74889 
L 293.450199 306.587351 
L 296.605578 306.764956 
L 299.760956 305.333008 
L 302.916335 306.378234 
L 306.071713 306.790259 
L 309.227092 306.80709 
L 312.38247 305.109902 
L 315.537849 306.252112 
L 318.693227 305.868483 
L 321.848606 306.499169 
L 325.003984 306.759013 
L 328.159363 306.871432 
L 331.314741 306.778358 
L 334.47012 306.500403 
L 337.625498 306.60719 
L 340.780876 306.957039 
L 343.936255 308.77167 
L 347.091633 308.709771 
L 350.247012 307.367731 
L 353.40239 306.392432 
L 356.557769 305.120822 
L 359.713147 305.353344 
L 362.868526 304.697525 
L 366.023904 304.201594 
L 369.179283 304.426126 
L 372.334661 305.220262 
L 375.49004 305.140364 
L 378.645418 305.655557 
L 381.800797 305.764562 
L 384.956175 305.639958 
L 394.422311 307.646262 
L 397.577689 307.180799 
L 403.888446 306.764292 
L 407.043825 307.330095 
L 410.199203 307.268394 
L 413.354582 306.104818 
L 416.50996 305.439569 
L 419.665339 305.43348 
L 422.820717 304.718669 
L 425.976096 305.082844 
L 429.131474 306.00813 
L 432.286853 305.09449 
L 435.442231 305.398945 
L 438.59761 304.364327 
L 444.908367 305.093113 
L 448.063745 304.960963 
L 454.374502 305.216955 
L 457.52988 305.680673 
L 460.685259 305.510032 
L 463.840637 305.603953 
L 466.996016 305.221983 
L 470.151394 305.827181 
L 473.306773 305.094575 
L 476.462151 305.596123 
L 479.61753 305.86513 
L 482.772908 305.789773 
L 485.928287 306.494514 
L 489.083665 305.166843 
L 492.239044 304.962498 
L 495.394422 304.275104 
L 498.549801 304.567047 
L 501.705179 304.635476 
L 504.860558 305.443449 
L 508.015936 305.336096 
L 517.482072 306.472716 
L 520.63745 305.792243 
L 523.792829 305.58692 
L 526.948207 306.038432 
L 533.258964 304.969499 
L 539.569721 305.043963 
L 545.880478 305.367891 
L 549.035857 306.136482 
L 552.191235 306.562712 
L 555.346614 306.413763 
L 558.501992 306.030801 
L 561.657371 307.06898 
L 564.812749 307.138504 
L 567.968127 307.362249 
L 571.123506 307.368422 
L 574.278884 306.375255 
L 577.434263 306.678283 
L 580.589641 306.591854 
L 583.74502 305.749376 
L 586.900398 305.478239 
L 590.055777 305.670158 
L 593.211155 305.566032 
L 596.366534 306.760498 
L 599.521912 306.381203 
L 602.677291 306.739178 
L 608.988048 305.906399 
L 612.143426 306.219343 
L 615.298805 306.985984 
L 618.454183 307.410686 
L 624.76494 307.718163 
L 627.920319 308.754829 
L 631.075697 308.274064 
L 634.231076 308.386484 
L 637.386454 308.687326 
L 640.541833 307.405612 
L 643.697211 306.594745 
L 646.85259 306.390481 
L 650.007968 307.132025 
L 653.163347 307.23998 
L 659.474104 306.213147 
L 662.629482 306.173305 
L 665.784861 304.344613 
L 668.940239 305.273351 
L 672.095618 304.771304 
L 675.250996 304.46638 
L 678.406375 304.41915 
L 681.561753 304.852639 
L 684.717131 304.150107 
L 694.183267 304.572483 
L 700.494024 301.912092 
L 703.649402 302.90631 
L 706.804781 303.345674 
L 709.960159 304.248784 
L 713.115538 304.046941 
L 722.581673 303.964425 
L 725.737052 304.400017 
L 728.89243 305.004286 
L 732.047809 305.997027 
L 735.203187 305.832171 
L 738.358566 306.679218 
L 741.513944 305.706903 
L 744.669323 305.597917 
L 747.824701 305.66046 
L 750.98008 305.497687 
L 754.135458 305.531887 
L 757.290837 305.884454 
L 760.446215 305.582964 
L 763.601594 306.043175 
L 766.756972 306.316432 
L 769.912351 306.007107 
L 773.067729 305.89506 
L 776.223108 305.913723 
L 779.378486 306.264842 
L 782.533865 306.188553 
L 785.689243 306.427687 
L 788.844622 305.793573 
L 788.844622 305.793573 
" clip-path="url(#p6846876b9f)" style="fill: none; stroke: #000000; stroke-width: 1.5; stroke-linecap: square"/>
   </g>
   <g id="line2d_5">
    <path d="M 0 306 
L 3.155378 306 
L 6.310757 306.345835 
L 9.466135 305.37697 
L 12.621514 305.214046 
L 15.776892 306.456667 
L 18.932271 306.356031 
L 22.087649 305.726392 
L 28.398406 305.536822 
L 31.553785 305.221721 
L 34.709163 305.383404 
L 37.864542 305.371477 
L 41.01992 305.631508 
L 47.330677 305.539766 
L 50.486056 305.599705 
L 53.641434 305.808133 
L 56.796813 305.522727 
L 63.10757 306.208515 
L 66.262948 306.451688 
L 69.418327 306.543719 
L 72.573705 306.436704 
L 75.729084 306.803475 
L 85.195219 307.057146 
L 88.350598 306.806299 
L 91.505976 306.836423 
L 94.661355 307.066977 
L 100.972112 307.078564 
L 104.12749 306.230958 
L 107.282869 305.868385 
L 110.438247 305.926515 
L 113.593625 305.600619 
L 116.749004 305.800166 
L 123.059761 305.907223 
L 129.370518 305.923323 
L 132.525896 306.22628 
L 138.836653 306.518979 
L 141.992032 306.433633 
L 145.14741 306.467781 
L 148.302789 306.640408 
L 151.458167 306.618775 
L 154.613546 306.361008 
L 157.768924 306.81093 
L 160.924303 307.012483 
L 164.079681 306.496074 
L 170.390438 307.335392 
L 173.545817 307.096066 
L 176.701195 307.42176 
L 179.856574 307.384581 
L 183.011952 308.38439 
L 186.167331 308.334856 
L 192.478088 308.03556 
L 195.633466 307.393539 
L 198.788845 307.344279 
L 201.944223 306.613016 
L 205.099602 306.022344 
L 208.25498 306.085204 
L 211.410359 305.938368 
L 214.565737 306.292754 
L 217.721116 305.995648 
L 220.876494 306.189843 
L 224.031873 305.773881 
L 230.342629 305.561326 
L 233.498008 305.091758 
L 236.653386 305.083659 
L 239.808765 305.329536 
L 242.964143 305.193783 
L 246.119522 305.495545 
L 249.2749 305.374795 
L 255.585657 304.930545 
L 258.741036 305.301291 
L 265.051793 305.624344 
L 268.207171 305.445327 
L 271.36255 305.570376 
L 274.517928 305.552917 
L 277.673307 305.16803 
L 283.984064 305.317651 
L 287.139442 305.8658 
L 290.294821 305.614861 
L 293.450199 306.063173 
L 296.605578 306.196373 
L 299.760956 305.496537 
L 302.916335 306.025365 
L 306.071713 306.270258 
L 309.227092 306.323722 
L 312.38247 305.477781 
L 315.537849 306.045688 
L 318.693227 305.861021 
L 321.848606 306.191174 
L 328.159363 306.442761 
L 337.625498 306.380592 
L 340.780876 306.58189 
L 343.936255 307.559061 
L 347.091633 307.628058 
L 350.247012 307.016294 
L 353.40239 306.535457 
L 356.557769 305.859951 
L 359.713147 305.919141 
L 366.023904 305.203817 
L 369.179283 305.235176 
L 372.334661 305.580656 
L 375.49004 305.509353 
L 378.645418 305.744211 
L 381.800797 305.793227 
L 384.956175 305.72173 
L 394.422311 306.825842 
L 400.733068 306.570908 
L 403.888446 306.512376 
L 407.043825 306.831498 
L 410.199203 306.840732 
L 413.354582 306.266598 
L 416.50996 305.906827 
L 419.665339 305.865226 
L 422.820717 305.456999 
L 425.976096 305.587945 
L 429.131474 306.029671 
L 432.286853 305.55189 
L 435.442231 305.674404 
L 438.59761 305.112535 
L 444.908367 305.393849 
L 448.063745 305.299813 
L 454.374502 305.382378 
L 457.52988 305.609176 
L 460.685259 305.52519 
L 463.840637 305.570999 
L 466.996016 305.372565 
L 470.151394 305.676456 
L 473.306773 305.307602 
L 479.61753 305.697796 
L 482.772908 305.672654 
L 485.928287 306.049445 
L 489.083665 305.393145 
L 492.239044 305.270098 
L 495.394422 304.886168 
L 501.705179 304.990206 
L 504.860558 305.380286 
L 508.015936 305.329978 
L 517.482072 305.962947 
L 520.63745 305.650797 
L 523.792829 305.552549 
L 526.948207 305.790576 
L 533.258964 305.249725 
L 539.569721 305.242113 
L 545.880478 305.383058 
L 549.035857 305.781396 
L 552.191235 306.034954 
L 555.346614 306.002589 
L 558.501992 305.840094 
L 561.657371 306.396844 
L 571.123506 306.723978 
L 574.278884 306.256725 
L 577.434263 306.42578 
L 580.589641 306.401306 
L 583.74502 305.977338 
L 586.900398 305.818676 
L 590.055777 305.886734 
L 593.211155 305.812455 
L 596.366534 306.411554 
L 599.521912 306.243103 
L 602.677291 306.441086 
L 608.988048 306.038069 
L 612.143426 306.190629 
L 615.298805 306.595436 
L 618.454183 306.85163 
L 624.76494 307.107028 
L 627.920319 307.699 
L 631.075697 307.533144 
L 637.386454 307.871001 
L 640.541833 307.27224 
L 643.697211 306.860161 
L 646.85259 306.73128 
L 650.007968 307.091738 
L 653.163347 307.152422 
L 659.474104 306.608483 
L 662.629482 306.557463 
L 665.784861 305.572101 
L 668.940239 305.956438 
L 675.250996 305.406344 
L 678.406375 305.303707 
L 681.561753 305.456049 
L 684.717131 305.038159 
L 694.183267 305.075714 
L 700.494024 303.557062 
L 703.649402 303.94038 
L 706.804781 304.082008 
L 709.960159 304.491608 
L 716.270916 304.339446 
L 722.581673 304.252115 
L 728.89243 304.769174 
L 732.047809 305.307552 
L 735.203187 305.280975 
L 738.358566 305.770288 
L 741.513944 305.33698 
L 750.98008 305.305688 
L 754.135458 305.339142 
L 757.290837 305.538508 
L 760.446215 305.409798 
L 766.756972 305.832124 
L 773.067729 305.675869 
L 776.223108 305.704357 
L 779.378486 305.903561 
L 782.533865 305.894076 
L 785.689243 306.042976 
L 788.844622 305.744458 
L 788.844622 305.744458 
" clip-path="url(#p6846876b9f)" style="fill: none; stroke: #000000; stroke-width: 1.5; stroke-linecap: square"/>
   </g>
   <g id="line2d_6">
    <path d="M 0 306 
L 3.155378 306 
L 6.310757 306.338662 
L 9.466135 305.411628 
L 12.621514 305.249182 
L 15.776892 306.387442 
L 18.932271 306.309216 
L 22.087649 305.757664 
L 28.398406 305.585264 
L 31.553785 305.314089 
L 34.709163 305.437634 
L 37.864542 305.422248 
L 41.01992 305.625713 
L 47.330677 305.55311 
L 50.486056 305.597907 
L 53.641434 305.755502 
L 56.796813 305.546983 
L 66.262948 306.236992 
L 69.418327 306.316944 
L 72.573705 306.257336 
L 75.729084 306.522698 
L 85.195219 306.746726 
L 88.350598 306.599219 
L 91.505976 306.631261 
L 94.661355 306.793103 
L 100.972112 306.830576 
L 104.12749 306.30776 
L 107.282869 306.075863 
L 110.438247 306.100805 
L 113.593625 305.889975 
L 119.904382 306.032655 
L 129.370518 306.03928 
L 135.681275 306.302374 
L 138.836653 306.389838 
L 145.14741 306.370521 
L 151.458167 306.470542 
L 154.613546 306.330245 
L 157.768924 306.587896 
L 160.924303 306.712779 
L 164.079681 306.435453 
L 170.390438 306.92052 
L 173.545817 306.806358 
L 176.701195 307.000913 
L 179.856574 306.999805 
L 183.011952 307.569696 
L 189.322709 307.524563 
L 192.478088 307.479926 
L 195.633466 307.154886 
L 198.788845 307.138905 
L 205.099602 306.425265 
L 208.25498 306.441187 
L 211.410359 306.345742 
L 214.565737 306.517639 
L 217.721116 306.349141 
L 220.876494 306.437206 
L 224.031873 306.203745 
L 230.342629 306.050974 
L 233.498008 305.779929 
L 236.653386 305.745516 
L 239.808765 305.846348 
L 242.964143 305.752374 
L 246.119522 305.886787 
L 252.430279 305.664434 
L 255.585657 305.531685 
L 261.896414 305.763665 
L 265.051793 305.838777 
L 268.207171 305.736526 
L 274.517928 305.770784 
L 277.673307 305.561873 
L 283.984064 305.607498 
L 287.139442 305.879928 
L 290.294821 305.74895 
L 293.450199 305.975668 
L 296.605578 306.048957 
L 299.760956 305.693434 
L 302.916335 305.958612 
L 309.227092 306.121345 
L 312.38247 305.693649 
L 315.537849 305.976639 
L 318.693227 305.884753 
L 325.003984 306.141896 
L 331.314741 306.201612 
L 337.625498 306.193979 
L 340.780876 306.305633 
L 343.936255 306.818957 
L 347.091633 306.885895 
L 356.557769 306.034892 
L 359.713147 306.058733 
L 366.023904 305.67226 
L 369.179283 305.669371 
L 372.334661 305.828832 
L 375.49004 305.781573 
L 381.800797 305.910068 
L 384.956175 305.870781 
L 394.422311 306.438255 
L 403.888446 306.314473 
L 407.043825 306.484804 
L 410.199203 306.504238 
L 416.50996 306.04419 
L 419.665339 306.01583 
L 422.820717 305.801303 
L 425.976096 305.85331 
L 429.131474 306.067557 
L 432.286853 305.821819 
L 435.442231 305.87239 
L 438.59761 305.57674 
L 448.063745 305.624857 
L 454.374502 305.639872 
L 457.52988 305.743993 
L 466.996016 305.604628 
L 470.151394 305.749165 
L 473.306773 305.557588 
L 479.61753 305.739651 
L 482.772908 305.724709 
L 485.928287 305.91485 
L 489.083665 305.585877 
L 492.239044 305.514608 
L 495.394422 305.308761 
L 511.171315 305.57778 
L 517.482072 305.800513 
L 523.792829 305.597753 
L 526.948207 305.717737 
L 536.414343 305.423287 
L 545.880478 305.482321 
L 552.191235 305.81423 
L 558.501992 305.730665 
L 561.657371 306.018857 
L 571.123506 306.237317 
L 574.278884 306.018835 
L 580.589641 306.115542 
L 583.74502 305.910976 
L 586.900398 305.830352 
L 593.211155 305.828553 
L 596.366534 306.134741 
L 599.521912 306.061158 
L 602.677291 306.169818 
L 608.988048 305.985759 
L 612.143426 306.065936 
L 618.454183 306.420276 
L 624.76494 306.588281 
L 627.920319 306.913643 
L 631.075697 306.863282 
L 637.386454 307.094494 
L 643.697211 306.628975 
L 646.85259 306.573482 
L 650.007968 306.763551 
L 653.163347 306.808731 
L 662.629482 306.530723 
L 665.784861 306.028324 
L 668.940239 306.204598 
L 675.250996 305.896312 
L 678.406375 305.823587 
L 681.561753 305.88042 
L 684.717131 305.648943 
L 694.183267 305.593249 
L 700.494024 304.757145 
L 703.649402 304.903279 
L 706.804781 304.934447 
L 709.960159 305.106857 
L 719.426295 304.931189 
L 722.581673 304.878349 
L 728.89243 305.093952 
L 732.047809 305.3544 
L 735.203187 305.338161 
L 738.358566 305.585691 
L 741.513944 305.371875 
L 754.135458 305.366294 
L 757.290837 305.467714 
L 760.446215 305.405899 
L 766.756972 305.629174 
L 776.223108 305.58297 
L 782.533865 305.694289 
L 785.689243 305.777986 
L 788.844622 305.636577 
L 788.844622 305.636577 
" clip-path="url(#p6846876b9f)" style="fill: none; stroke: #000000; stroke-width: 1.5; stroke-linecap: square"/>
   </g>
   <g id="line2d_7">
    <path d="M 0 306 
L 3.155378 306 
L 6.310757 306.335073 
L 9.466135 305.4287 
L 12.621514 305.266901 
L 15.776892 306.354738 
L 18.932271 306.286233 
L 22.087649 305.771428 
L 28.398406 305.608291 
L 31.553785 305.358338 
L 34.709163 305.465511 
L 37.864542 305.449128 
L 41.01992 305.627213 
L 47.330677 305.562759 
L 53.641434 305.735276 
L 56.796813 305.559867 
L 66.262948 306.140381 
L 69.418327 306.211342 
L 72.573705 306.168677 
L 75.729084 306.387229 
L 85.195219 306.585534 
L 88.350598 306.477927 
L 100.972112 306.680039 
L 104.12749 306.292828 
L 107.282869 306.120119 
L 110.438247 306.136848 
L 113.593625 305.980008 
L 119.904382 306.078594 
L 132.525896 306.200422 
L 141.992032 306.298223 
L 157.768924 306.472572 
L 160.924303 306.560297 
L 164.079681 306.379524 
L 170.390438 306.7075 
L 173.545817 306.638828 
L 176.701195 306.771502 
L 179.856574 306.777712 
L 183.011952 307.154401 
L 192.478088 307.13209 
L 195.633466 306.935007 
L 198.788845 306.931194 
L 205.099602 306.488831 
L 220.876494 306.487225 
L 227.187251 306.291569 
L 230.342629 306.24103 
L 233.498008 306.071363 
L 242.964143 306.032622 
L 246.119522 306.105733 
L 258.741036 305.96505 
L 271.36255 305.994401 
L 290.294821 305.935766 
L 296.605578 306.100792 
L 299.760956 305.896879 
L 306.071713 306.113192 
L 309.227092 306.132236 
L 312.38247 305.890487 
L 315.537849 306.045145 
L 318.693227 305.991842 
L 328.159363 306.1643 
L 340.780876 306.226423 
L 343.936255 306.512211 
L 347.091633 306.556406 
L 356.557769 306.102729 
L 359.713147 306.114211 
L 366.023904 305.898141 
L 375.49004 305.943959 
L 381.800797 306.007445 
L 384.956175 305.983929 
L 397.577689 306.252301 
L 407.043825 306.322872 
L 410.199203 306.336985 
L 416.50996 306.095299 
L 435.442231 305.99028 
L 438.59761 305.831119 
L 457.52988 305.890378 
L 476.462151 305.830317 
L 485.928287 305.948997 
L 489.083665 305.776863 
L 501.705179 305.620029 
L 508.015936 305.689912 
L 520.63745 305.763236 
L 542.7251 305.642049 
L 549.035857 305.750168 
L 555.346614 305.812949 
L 558.501992 305.77374 
L 561.657371 305.921533 
L 571.123506 306.042741 
L 574.278884 305.935314 
L 580.589641 305.989863 
L 586.900398 305.848112 
L 615.298805 306.087762 
L 637.386454 306.556915 
L 643.697211 306.339743 
L 646.85259 306.317496 
L 653.163347 306.450261 
L 662.629482 306.32716 
L 665.784861 306.076048 
L 668.940239 306.16479 
L 678.406375 305.968348 
L 681.561753 305.993686 
L 687.87251 305.856969 
L 694.183267 305.830879 
L 700.494024 305.392646 
L 709.960159 305.533555 
L 722.581673 305.377812 
L 728.89243 305.467271 
L 732.047809 305.591405 
L 735.203187 305.578143 
L 738.358566 305.698347 
L 744.669323 305.575315 
L 788.844622 305.683213 
L 788.844622 305.683213 
" clip-path="url(#p6846876b9f)" style="fill: none; stroke: #000000; stroke-width: 1.5; stroke-linecap: square"/>
   </g>
   <g id="line2d_8">
    <path d="M 0 306 
L 3.155378 306 
L 6.310757 306.333278 
L 9.466135 305.437168 
L 12.621514 305.27579 
L 15.776892 306.338875 
L 18.932271 306.274882 
L 22.087649 305.777859 
L 28.398406 305.619463 
L 31.553785 305.379881 
L 34.709163 305.479517 
L 37.864542 305.462812 
L 41.01992 305.628981 
L 47.330677 305.568304 
L 59.952191 305.768864 
L 66.262948 306.0957 
L 85.195219 306.506272 
L 88.350598 306.415497 
L 100.972112 306.601186 
L 104.12749 306.2732 
L 107.282869 306.126987 
L 110.438247 306.140919 
L 113.593625 306.008551 
L 123.059761 306.094622 
L 129.370518 306.088705 
L 138.836653 306.292341 
L 145.14741 306.2861 
L 151.458167 306.347212 
L 154.613546 306.274238 
L 160.924303 306.485257 
L 164.079681 306.344514 
L 170.390438 306.604265 
L 173.545817 306.553193 
L 186.167331 306.977718 
L 192.478088 306.954769 
L 195.633466 306.808977 
L 198.788845 306.808836 
L 205.099602 306.479753 
L 220.876494 306.479105 
L 227.187251 306.334848 
L 255.585657 306.018845 
L 265.051793 306.125156 
L 280.828685 305.981706 
L 340.780876 306.221232 
L 343.936255 306.409103 
L 347.091633 306.439666 
L 359.713147 306.153721 
L 369.179283 306.006101 
L 378.645418 306.071271 
L 391.266932 306.171856 
L 397.577689 306.228139 
L 419.665339 306.122284 
L 425.976096 306.063369 
L 429.131474 306.130756 
L 438.59761 305.963812 
L 463.840637 305.972697 
L 473.306773 305.913304 
L 485.928287 306.011111 
L 492.239044 305.88117 
L 498.549801 305.816525 
L 511.171315 305.866844 
L 526.948207 305.894814 
L 539.569721 305.790604 
L 558.501992 305.86602 
L 564.812749 305.969469 
L 577.434263 305.986953 
L 621.609562 306.11252 
L 640.541833 306.247021 
L 646.85259 306.188855 
L 653.163347 306.26638 
L 697.338645 305.811432 
L 700.494024 305.684061 
L 713.115538 305.719146 
L 728.89243 305.697525 
L 738.358566 305.816258 
L 744.669323 305.746231 
L 788.844622 305.78331 
L 788.844622 305.78331 
" clip-path="url(#p6846876b9f)" style="fill: none; stroke: #000000; stroke-width: 1.5; stroke-linecap: square"/>
   </g>
   <g id="line2d_9">
    <path d="M 0 306 
L 3.155378 306 
L 6.310757 306.332381 
L 9.466135 305.441385 
L 12.621514 305.28024 
L 15.776892 306.331067 
L 18.932271 306.269245 
L 22.087649 305.780963 
L 28.398406 305.624959 
L 31.553785 305.390497 
L 34.709163 305.486523 
L 37.864542 305.469697 
L 41.01992 305.630106 
L 47.330677 305.571249 
L 59.952191 305.762748 
L 66.262948 306.074362 
L 85.195219 306.467355 
L 88.350598 306.384231 
L 100.972112 306.561394 
L 104.12749 306.260742 
L 107.282869 306.126861 
L 110.438247 306.139628 
L 113.593625 306.018695 
L 123.059761 306.096601 
L 129.370518 306.091099 
L 138.836653 306.274639 
L 148.302789 306.323728 
L 157.768924 306.385093 
L 160.924303 306.448316 
L 164.079681 306.325322 
L 170.390438 306.554157 
L 173.545817 306.510591 
L 189.322709 306.874264 
L 192.478088 306.867975 
L 195.633466 306.744277 
L 198.788845 306.745366 
L 205.099602 306.465843 
L 220.876494 306.466326 
L 227.187251 306.34498 
L 258.741036 306.127103 
L 274.517928 306.124361 
L 280.828685 306.042567 
L 340.780876 306.225239 
L 343.936255 306.37158 
L 350.247012 306.322802 
L 369.179283 306.059964 
L 381.800797 306.110786 
L 391.266932 306.182934 
L 397.577689 306.225488 
L 435.442231 306.100461 
L 441.752988 306.034871 
L 470.151394 306.030666 
L 476.462151 306.006031 
L 492.239044 305.958083 
L 501.705179 305.901677 
L 517.482072 305.98464 
L 536.414343 305.887748 
L 558.501992 305.931785 
L 567.968127 306.024362 
L 583.74502 305.974592 
L 599.521912 306.002071 
L 640.541833 306.187782 
L 650.007968 306.189142 
L 662.629482 306.161862 
L 665.784861 306.071202 
L 672.095618 306.072381 
L 716.270916 305.824292 
L 732.047809 305.859688 
L 776.223108 305.857321 
L 788.844622 305.861232 
L 788.844622 305.861232 
" clip-path="url(#p6846876b9f)" style="fill: none; stroke: #000000; stroke-width: 1.5; stroke-linecap: square"/>
   </g>
  </g>
 </g>
 <defs>
  <clipPath id="p6846876b9f">
   <rect x="0" y="0" width="792" height="612"/>
  </clipPath>
 </defs>
</svg>
