<?xml version="1.0" encoding="utf-8" standalone="no"?>
<!DOCTYPE svg PUBLIC "-//W3C//DTD SVG 1.1//EN"
  "http://www.w3.org/Graphics/SVG/1.1/DTD/svg11.dtd">
<svg xmlns:xlink="http://www.w3.org/1999/xlink" width="792pt" height="612pt" viewBox="0 0 792 612" xmlns="http://www.w3.org/2000/svg" version="1.1">
 <metadata>
  <rdf:RDF xmlns:dc="http://purl.org/dc/elements/1.1/" xmlns:cc="http://creativecommons.org/ns#" xmlns:rdf="http://www.w3.org/1999/02/22-rdf-syntax-ns#">
   <cc:Work>
    <dc:type rdf:resource="http://purl.org/dc/dcmitype/StillImage"/>
    <dc:date>2023-01-02T15:39:40.766361</dc:date>
    <dc:format>image/svg+xml</dc:format>
    <dc:creator>
     <cc:Agent>
      <dc:title>Matplotlib v3.6.2, https://matplotlib.org/</dc:title>
     </cc:Agent>
    </dc:creator>
   </cc:Work>
  </rdf:RDF>
 </metadata>
 <defs>
  <style type="text/css">*{stroke-linejoin: round; stroke-linecap: butt}</style>
 </defs>
 <g id="figure_1">
  <g id="patch_1">
   <path d="M 0 612 
L 792 612 
L 792 0 
L 0 0 
z
" style="fill: #ffffff"/>
  </g>
  <g id="axes_1">
   <g id="line2d_1">
    <path d="M 0 459 
L 3.155378 459.039876 
L 6.310757 459.791831 
L 9.466135 457.103034 
L 12.621514 459.865887 
L 15.776892 461.375493 
L 18.932271 462.680021 
L 22.087649 463.363616 
L 25.243028 463.084481 
L 28.398406 465.192233 
L 34.709163 466.610693 
L 37.864542 467.801288 
L 41.01992 466.969581 
L 44.175299 467.52785 
L 47.330677 469.196962 
L 50.486056 469.669782 
L 53.641434 470.302107 
L 56.796813 466.115087 
L 59.952191 464.20102 
L 63.10757 464.463065 
L 66.262948 462.588875 
L 69.418327 463.523122 
L 72.573705 463.853526 
L 75.729084 463.973155 
L 78.884462 463.842133 
L 82.039841 463.967458 
L 85.195219 465.67075 
L 91.505976 467.653176 
L 94.661355 467.413918 
L 97.816733 467.824075 
L 100.972112 469.054546 
L 104.12749 469.242535 
L 107.282869 468.046243 
L 110.438247 470.843287 
L 113.593625 472.415556 
L 116.749004 469.897647 
L 119.904382 472.563668 
L 123.059761 475.491734 
L 126.215139 474.745476 
L 129.370518 477.189329 
L 132.525896 477.667846 
L 135.681275 484.207573 
L 138.836653 485.084854 
L 145.14741 485.534887 
L 148.302789 482.76063 
L 151.458167 483.153697 
L 154.613546 479.513553 
L 157.768924 476.340532 
L 160.924303 476.722206 
L 164.079681 475.896195 
L 167.23506 477.94698 
L 170.390438 476.351925 
L 173.545817 477.49125 
L 176.701195 475.132847 
L 183.011952 473.606151 
L 186.167331 470.626815 
L 189.322709 470.136905 
L 192.478088 471.133815 
L 195.633466 470.011579 
L 198.788845 471.390163 
L 201.944223 470.43313 
L 208.25498 467.100603 
L 211.410359 468.752625 
L 214.565737 469.327984 
L 217.721116 470.057152 
L 220.876494 468.826681 
L 224.031873 469.293804 
L 227.187251 468.98049 
L 230.342629 466.508154 
L 233.498008 466.251806 
L 236.653386 466.593603 
L 239.808765 469.48749 
L 242.964143 467.943704 
L 246.119522 470.393253 
L 249.2749 471.213568 
L 252.430279 467.197446 
L 255.585657 470.062849 
L 258.741036 471.498399 
L 261.896414 471.937039 
L 265.051793 467.12339 
L 268.207171 470.199568 
L 271.36255 469.139996 
L 274.517928 471.014186 
L 277.673307 472.045275 
L 280.828685 472.757353 
L 283.984064 472.894073 
L 287.139442 472.409859 
L 290.294821 472.979522 
L 293.450199 474.352409 
L 296.605578 480.37944 
L 299.760956 481.547248 
L 302.916335 478.750205 
L 306.071713 476.420284 
L 309.227092 472.706084 
L 312.38247 472.996612 
L 315.537849 470.672388 
L 318.693227 468.519063 
L 321.848606 468.325378 
L 325.003984 469.99449 
L 328.159363 469.367861 
L 331.314741 470.518579 
L 334.47012 470.683781 
L 337.625498 470.188175 
L 343.936255 474.050488 
L 347.091633 476.773475 
L 350.247012 476.152543 
L 356.557769 475.907588 
L 359.713147 478.021037 
L 362.868526 478.482463 
L 366.023904 475.514521 
L 369.179283 473.537791 
L 372.334661 473.241567 
L 375.49004 470.780624 
L 378.645418 471.276231 
L 381.800797 473.668814 
L 384.956175 470.87177 
L 388.111554 471.36168 
L 391.266932 467.898131 
L 397.577689 468.752625 
L 400.733068 467.909524 
L 403.888446 467.738625 
L 407.043825 467.715839 
L 410.199203 468.741232 
L 413.354582 468.063333 
L 416.50996 468.103209 
L 419.665339 466.730322 
L 422.820717 468.205749 
L 425.976096 465.881525 
L 429.131474 466.975277 
L 432.286853 467.607603 
L 435.442231 467.311378 
L 438.59761 469.367861 
L 441.752988 465.545424 
L 444.908367 464.520031 
L 448.063745 461.916673 
L 451.219124 461.967943 
L 454.374502 461.478033 
L 457.52988 463.28956 
L 460.685259 462.697111 
L 466.996016 464.326346 
L 470.151394 465.710626 
L 473.306773 463.853526 
L 476.462151 463.112964 
L 479.61753 464.297863 
L 482.772908 462.645841 
L 485.928287 460.788741 
L 489.083665 460.304528 
L 492.239044 460.002606 
L 495.394422 460.139325 
L 498.549801 460.162112 
L 501.705179 462.207201 
L 504.860558 463.580088 
L 508.015936 463.397796 
L 511.171315 462.429369 
L 514.326693 465.625177 
L 517.482072 466.360042 
L 520.63745 467.59621 
L 523.792829 468.285502 
L 526.948207 465.898615 
L 530.103586 467.015154 
L 533.258964 467.083513 
L 536.414343 464.787773 
L 539.569721 463.842133 
L 542.7251 464.161144 
L 545.880478 463.676931 
L 549.035857 467.117693 
L 552.191235 466.325862 
L 555.346614 467.607603 
L 558.501992 466.787289 
L 561.657371 465.590997 
L 564.812749 466.508154 
L 567.968127 468.969097 
L 571.123506 470.757838 
L 577.434263 473.139027 
L 580.589641 477.160846 
L 583.74502 477.024127 
L 586.900398 478.47107 
L 590.055777 480.556035 
L 593.211155 477.935587 
L 596.366534 476.135453 
L 599.521912 475.799352 
L 602.677291 478.271688 
L 605.832669 479.160362 
L 608.988048 478.157756 
L 612.143426 476.961464 
L 615.298805 476.955767 
L 618.454183 471.435736 
L 621.609562 473.480825 
L 624.76494 471.589545 
L 627.920319 470.045759 
L 631.075697 469.157085 
L 634.231076 469.715355 
L 637.386454 466.992367 
L 640.541833 466.553727 
L 643.697211 466.320165 
L 646.85259 465.818862 
L 650.007968 460.976729 
L 653.163347 448.850266 
L 656.318725 452.027865 
L 659.474104 451.532381 
L 662.629482 455.940957 
L 665.784861 451.532381 
L 668.940239 448.679452 
L 672.095618 445.622414 
L 675.250996 442.225212 
L 678.406375 443.266387 
L 681.561753 446.527459 
L 684.717131 454.197919 
L 687.87251 452.694231 
L 691.027888 459.42155 
L 694.183267 452.284156 
L 697.338645 450.8319 
L 700.494024 450.814815 
L 703.649402 448.850266 
L 706.804781 448.440318 
L 709.960159 450.985661 
L 713.115538 448.030386 
L 716.270916 451.651979 
L 719.426295 454.163743 
L 722.581673 451.80575 
L 725.737052 450.763562 
L 728.89243 450.763562 
L 732.047809 453.856161 
L 735.203187 453.548585 
L 738.358566 455.992224 
L 741.513944 450.780646 
L 744.669323 453.087229 
L 747.824701 445.263839 
L 750.98008 449.260231 
L 754.135458 448.833185 
L 757.290837 453.616935 
L 760.446215 460.40137 
L 763.601594 460.566572 
L 766.756972 459.757651 
L 769.912351 459.239258 
L 773.067729 460.600752 
L 776.223108 459.575359 
L 779.378486 459.991213 
L 782.533865 460.976729 
L 785.689243 460.509606 
L 788.844622 461.876796 
L 788.844622 461.876796 
" clip-path="url(#p766e42a046)" style="fill: none; stroke: #000000; stroke-width: 1.5; stroke-linecap: square"/>
   </g>
   <g id="line2d_2">
    <path d="M 0 459 
L 6.310757 459.026584 
L 9.466135 459.463868 
L 12.621514 458.637695 
L 15.776892 459.388473 
L 18.932271 460.397753 
L 22.087649 461.547872 
L 25.243028 462.459304 
L 28.398406 462.779902 
L 31.553785 463.998131 
L 34.709163 464.957488 
L 37.864542 465.800253 
L 41.01992 466.81633 
L 44.175299 466.903924 
L 47.330677 467.225393 
L 50.486056 468.222615 
L 56.796813 469.640628 
L 63.10757 466.034932 
L 66.262948 465.242453 
L 69.418327 463.907074 
L 72.573705 463.707246 
L 85.195219 463.898809 
L 91.505976 465.720545 
L 94.661355 466.696791 
L 100.972112 467.451314 
L 104.12749 468.262894 
L 107.282869 468.763303 
L 110.438247 468.412771 
L 113.593625 469.638171 
L 116.749004 471.038179 
L 119.904382 470.472314 
L 123.059761 471.528088 
L 126.215139 473.524946 
L 129.370518 474.14637 
L 132.525896 475.683431 
L 135.681275 476.694504 
L 138.836653 480.477243 
L 141.992032 482.80589 
L 145.14741 484.066654 
L 148.302789 484.826204 
L 151.458167 483.80767 
L 154.613546 483.49717 
L 157.768924 481.509919 
L 160.924303 478.922623 
L 164.079681 477.807737 
L 167.23506 476.833949 
L 170.390438 477.376111 
L 173.545817 476.846012 
L 176.701195 477.158299 
L 179.856574 476.129846 
L 186.167331 474.420366 
L 189.322709 472.511639 
L 192.478088 471.312979 
L 195.633466 471.210038 
L 198.788845 470.598377 
L 201.944223 470.982307 
L 205.099602 470.698503 
L 208.25498 469.714528 
L 211.410359 468.39481 
L 214.565737 468.570042 
L 217.721116 468.947427 
L 220.876494 469.500179 
L 224.031873 469.161107 
L 227.187251 469.223345 
L 230.342629 469.099069 
L 233.498008 467.799211 
L 236.653386 467.023844 
L 239.808765 466.80449 
L 242.964143 468.146303 
L 246.119522 468.040859 
L 249.2749 469.220128 
L 252.430279 470.220612 
L 255.585657 468.705533 
L 258.741036 469.391161 
L 261.896414 470.455067 
L 265.051793 471.206531 
L 268.207171 469.160325 
L 271.36255 469.68437 
L 274.517928 469.409725 
L 277.673307 470.211565 
L 283.984064 471.952923 
L 287.139442 472.426234 
L 290.294821 472.418974 
L 293.450199 472.710731 
L 296.605578 473.539713 
L 299.760956 476.981614 
L 302.916335 479.285085 
L 306.071713 479.030792 
L 309.227092 477.73272 
L 312.38247 475.219033 
L 315.537849 474.108973 
L 318.693227 472.386157 
L 321.848606 470.441172 
L 325.003984 469.35964 
L 328.159363 469.654412 
L 331.314741 469.49274 
L 334.47012 469.994087 
L 337.625498 470.334969 
L 340.780876 470.256065 
L 343.936255 471.173379 
L 347.091633 472.622779 
L 350.247012 474.714692 
L 353.40239 475.445692 
L 356.557769 475.729496 
L 359.713147 475.829109 
L 362.868526 476.939459 
L 366.023904 477.727225 
L 369.179283 476.627597 
L 372.334661 475.081689 
L 375.49004 474.154703 
L 378.645418 472.45713 
L 381.800797 471.857443 
L 384.956175 472.758739 
L 388.111554 471.801236 
L 391.266932 471.567496 
L 394.422311 469.717879 
L 397.577689 468.988532 
L 400.733068 468.861777 
L 403.888446 468.380021 
L 407.043825 468.052387 
L 410.199203 467.87244 
L 413.354582 468.302658 
L 419.665339 468.140271 
L 422.820717 467.432259 
L 425.976096 467.817931 
L 429.131474 466.845752 
L 432.286853 466.909018 
L 435.442231 467.258098 
L 438.59761 467.281935 
L 441.752988 468.327456 
L 444.908367 466.931425 
L 448.063745 465.721394 
L 451.219124 463.806702 
L 454.374502 462.879649 
L 457.52988 462.168062 
L 460.685259 462.720344 
L 463.840637 462.69968 
L 466.996016 463.09994 
L 470.151394 463.710753 
L 473.306773 464.713024 
L 476.462151 464.287073 
L 479.61753 463.702264 
L 482.772908 464.005592 
L 485.928287 463.324455 
L 489.083665 462.052856 
L 492.239044 461.172381 
L 495.394422 460.579016 
L 498.549801 460.348246 
L 501.705179 460.247941 
L 504.860558 461.225795 
L 508.015936 462.401534 
L 511.171315 462.901139 
L 514.326693 462.668471 
L 517.482072 464.157257 
L 526.948207 467.382821 
L 530.103586 466.647956 
L 536.414343 466.968129 
L 542.7251 464.858858 
L 549.035857 464.083625 
L 552.191235 465.598369 
L 555.346614 465.962953 
L 558.501992 466.78644 
L 561.657371 466.786283 
L 564.812749 466.190215 
L 567.968127 466.354412 
L 571.123506 467.671182 
L 574.278884 469.228394 
L 580.589641 471.867518 
L 583.74502 474.532914 
L 590.055777 477.160086 
L 593.211155 478.885606 
L 596.366534 478.428178 
L 599.521912 477.29236 
L 602.677291 476.553519 
L 608.988048 478.295435 
L 612.143426 478.228818 
L 615.298805 477.592181 
L 618.454183 477.266915 
L 621.609562 474.338581 
L 624.76494 473.904498 
L 627.920319 472.738767 
L 631.075697 471.376134 
L 634.231076 470.246995 
L 637.386454 469.964621 
L 640.541833 468.458947 
L 643.697211 467.485941 
L 650.007968 466.340919 
L 653.163347 463.638015 
L 656.318725 459.598816 
L 659.474104 456.338499 
L 662.629482 453.857636 
L 665.784861 454.846267 
L 668.940239 453.130181 
L 672.095618 450.841346 
L 675.250996 448.16522 
L 678.406375 445.150143 
L 681.561753 444.197257 
L 684.717131 445.351489 
L 687.87251 449.779072 
L 691.027888 451.230208 
L 694.183267 455.764236 
L 697.338645 454.031194 
L 700.494024 452.441685 
L 703.649402 451.645078 
L 706.804781 450.258545 
L 709.960159 449.353145 
L 713.115538 450.163077 
L 716.270916 449.087534 
L 719.426295 450.352807 
L 722.581673 452.261844 
L 725.737052 452.035705 
L 728.89243 451.399518 
L 732.047809 451.085288 
L 735.203187 452.481286 
L 738.358566 453.019953 
L 741.513944 454.521655 
L 744.669323 452.649337 
L 747.824701 452.866171 
L 750.98008 449.051495 
L 754.135458 449.152915 
L 757.290837 448.989264 
L 760.446215 451.302434 
L 763.601594 457.271853 
L 766.756972 459.500298 
L 769.912351 459.635833 
L 773.067729 459.44188 
L 776.223108 460.033435 
L 779.378486 459.811892 
L 782.533865 459.910142 
L 785.689243 460.45083 
L 788.844622 460.48043 
L 788.844622 460.48043 
" clip-path="url(#p766e42a046)" style="fill: none; stroke: #000000; stroke-width: 1.5; stroke-linecap: square"/>
   </g>
   <g id="line2d_3">
    <path d="M 0 459 
L 6.310757 459.023359 
L 9.466135 459.37154 
L 12.621514 458.938518 
L 15.776892 459.29487 
L 18.932271 459.991328 
L 25.243028 461.638866 
L 28.398406 462.081854 
L 34.709163 463.882049 
L 41.01992 465.614226 
L 47.330677 466.46009 
L 53.641434 467.98149 
L 56.796813 468.674119 
L 59.952191 467.931858 
L 63.10757 466.845821 
L 66.262948 466.153209 
L 69.418327 465.110633 
L 72.573705 464.64663 
L 78.884462 464.286535 
L 85.195219 464.097733 
L 88.350598 464.557379 
L 91.505976 465.167464 
L 94.661355 465.896297 
L 100.972112 466.77357 
L 104.12749 467.440946 
L 107.282869 467.967402 
L 110.438247 467.992712 
L 113.593625 468.835256 
L 116.749004 469.893035 
L 119.904382 469.902781 
L 123.059761 470.692521 
L 126.215139 472.111546 
L 129.370518 472.895379 
L 132.525896 474.168379 
L 135.681275 475.209085 
L 138.836653 477.865973 
L 141.992032 480.001514 
L 145.14741 481.564013 
L 148.302789 482.747869 
L 154.613546 482.897702 
L 157.768924 481.918305 
L 160.924303 480.29414 
L 167.23506 478.275012 
L 170.390438 478.188179 
L 173.545817 477.654704 
L 176.701195 477.609126 
L 186.167331 475.398726 
L 189.322709 473.985467 
L 192.478088 472.84108 
L 195.633466 472.3248 
L 198.788845 471.629443 
L 201.944223 471.5463 
L 205.099602 471.205649 
L 208.25498 470.474815 
L 211.410359 469.475918 
L 214.565737 469.254917 
L 217.721116 469.268773 
L 220.876494 469.490622 
L 224.031873 469.287515 
L 230.342629 469.185167 
L 233.498008 468.392046 
L 236.653386 467.756737 
L 239.808765 467.41143 
L 242.964143 468.018748 
L 246.119522 467.993104 
L 252.430279 469.43355 
L 255.585657 468.774894 
L 258.741036 469.153632 
L 265.051793 470.46172 
L 268.207171 469.481413 
L 271.36255 469.69192 
L 274.517928 469.530625 
L 277.673307 469.967126 
L 287.139442 471.721087 
L 293.450199 472.241058 
L 296.605578 472.866819 
L 299.760956 475.078685 
L 302.916335 476.985153 
L 306.071713 477.515394 
L 309.227092 477.201946 
L 312.38247 475.886526 
L 315.537849 475.041307 
L 318.693227 473.765756 
L 321.848606 472.227105 
L 325.003984 471.08338 
L 331.314741 470.351496 
L 340.780876 470.391315 
L 343.936255 470.886401 
L 347.091633 471.812794 
L 350.247012 473.261602 
L 353.40239 474.102143 
L 356.557769 474.651131 
L 359.713147 475.01855 
L 362.868526 475.904063 
L 366.023904 476.66556 
L 369.179283 476.33399 
L 372.334661 475.520767 
L 375.49004 474.858851 
L 378.645418 473.665269 
L 381.800797 472.967728 
L 384.956175 473.17669 
L 388.111554 472.50181 
L 391.266932 472.169222 
L 394.422311 470.913439 
L 397.577689 470.135437 
L 400.733068 469.721208 
L 407.043825 468.749142 
L 410.199203 468.437085 
L 413.354582 468.515509 
L 419.665339 468.284126 
L 422.820717 467.821208 
L 425.976096 467.928053 
L 429.131474 467.323012 
L 432.286853 467.216223 
L 435.442231 467.323893 
L 438.59761 467.316138 
L 441.752988 467.914784 
L 448.063745 466.423544 
L 451.219124 465.09566 
L 454.374502 464.172748 
L 457.52988 463.376294 
L 460.685259 463.345806 
L 463.840637 463.148865 
L 466.996016 463.253267 
L 470.151394 463.563227 
L 473.306773 464.191014 
L 476.462151 464.087167 
L 479.61753 463.79865 
L 482.772908 463.941791 
L 485.928287 463.556517 
L 492.239044 462.015098 
L 495.394422 461.419287 
L 498.549801 461.039363 
L 501.705179 460.780407 
L 504.860558 461.19858 
L 508.015936 461.898522 
L 511.171315 462.337773 
L 514.326693 462.364294 
L 526.948207 466.113623 
L 530.103586 466.053848 
L 536.414343 466.561827 
L 539.569721 466.046812 
L 542.7251 465.40514 
L 549.035857 464.64876 
L 552.191235 465.379883 
L 555.346614 465.661684 
L 558.501992 466.236257 
L 561.657371 466.401543 
L 564.812749 466.167771 
L 567.968127 466.268481 
L 571.123506 467.06247 
L 580.589641 470.396605 
L 583.74502 472.389459 
L 590.055777 475.154383 
L 593.211155 476.755688 
L 596.366534 477.117094 
L 602.677291 476.547922 
L 608.988048 477.693063 
L 612.143426 477.842229 
L 618.454183 477.421413 
L 621.609562 475.671082 
L 624.76494 475.032698 
L 627.920319 474.023875 
L 634.231076 471.762825 
L 637.386454 471.15474 
L 640.541833 469.922425 
L 643.697211 468.919673 
L 650.007968 467.451807 
L 653.163347 465.538276 
L 656.318725 462.606146 
L 659.474104 460.843355 
L 662.629482 459.549449 
L 665.784861 459.068055 
L 668.940239 456.886524 
L 672.095618 454.427652 
L 675.250996 451.782767 
L 678.406375 448.919778 
L 681.561753 447.207441 
L 684.717131 446.958979 
L 687.87251 449.036336 
L 691.027888 450.072828 
L 694.183267 453.032908 
L 697.338645 452.780668 
L 700.494024 452.176989 
L 703.649402 451.761794 
L 706.804781 450.908956 
L 709.960159 450.181733 
L 713.115538 450.416565 
L 716.270916 449.708531 
L 719.426295 450.27786 
L 722.581673 451.422203 
L 725.737052 451.541644 
L 732.047809 451.16815 
L 735.203187 451.963822 
L 738.358566 452.427227 
L 741.513944 453.475115 
L 744.669323 452.674984 
L 747.824701 452.796649 
L 750.98008 450.583416 
L 757.290837 449.795434 
L 760.446215 450.920563 
L 763.601594 454.531917 
L 766.756972 457.235012 
L 769.912351 458.428744 
L 773.067729 458.812672 
L 776.223108 459.429289 
L 782.533865 459.631115 
L 785.689243 460.029476 
L 788.844622 460.173924 
L 788.844622 460.173924 
" clip-path="url(#p766e42a046)" style="fill: none; stroke: #000000; stroke-width: 1.5; stroke-linecap: square"/>
   </g>
   <g id="line2d_4">
    <path d="M 0 459 
L 6.310757 459.021661 
L 9.466135 459.323925 
L 12.621514 459.01964 
L 15.776892 459.251959 
L 18.932271 459.774604 
L 25.243028 461.054256 
L 28.398406 461.463253 
L 41.01992 464.310766 
L 47.330677 465.247997 
L 56.796813 467.173061 
L 59.952191 466.998237 
L 63.10757 466.538833 
L 66.262948 466.199658 
L 69.418327 465.612188 
L 75.729084 465.044005 
L 85.195219 464.587207 
L 88.350598 464.76096 
L 91.505976 465.062679 
L 97.816733 465.786715 
L 100.972112 466.112137 
L 107.282869 467.0155 
L 110.438247 467.184645 
L 113.593625 467.774532 
L 116.749004 468.520766 
L 119.904382 468.74515 
L 123.059761 469.358856 
L 126.215139 470.342186 
L 129.370518 471.050041 
L 135.681275 472.937972 
L 138.836653 474.741985 
L 141.992032 476.398357 
L 145.14741 477.820829 
L 148.302789 479.059399 
L 154.613546 480.221532 
L 157.768924 480.114637 
L 160.924303 479.520544 
L 167.23506 478.583211 
L 170.390438 478.491567 
L 173.545817 478.159147 
L 176.701195 478.061391 
L 183.011952 477.096432 
L 186.167331 476.54713 
L 192.478088 474.739942 
L 198.788845 473.508627 
L 205.099602 472.738607 
L 208.25498 472.104118 
L 211.410359 471.30745 
L 214.565737 470.899664 
L 217.721116 470.647678 
L 220.876494 470.553823 
L 224.031873 470.276697 
L 230.342629 469.932116 
L 236.653386 468.875748 
L 239.808765 468.50166 
L 242.964143 468.648778 
L 246.119522 468.525789 
L 252.430279 469.188123 
L 255.585657 468.861443 
L 258.741036 469.046695 
L 265.051793 469.829045 
L 268.207171 469.393092 
L 271.36255 469.516571 
L 274.517928 469.452157 
L 277.673307 469.69664 
L 290.294821 471.121513 
L 293.450199 471.418902 
L 296.605578 471.887642 
L 302.916335 474.572412 
L 306.071713 475.242303 
L 309.227092 475.434508 
L 312.38247 475.003903 
L 315.537849 474.687184 
L 318.693227 474.049254 
L 325.003984 472.397563 
L 331.314741 471.59463 
L 340.780876 471.134274 
L 343.936255 471.287183 
L 347.091633 471.730645 
L 350.247012 472.536958 
L 353.40239 473.115292 
L 362.868526 474.603523 
L 366.023904 475.22476 
L 369.179283 475.276098 
L 375.49004 474.72414 
L 378.645418 474.096566 
L 381.800797 473.647361 
L 384.956175 473.651343 
L 388.111554 473.207841 
L 391.266932 472.913456 
L 394.422311 472.11233 
L 397.577689 471.498772 
L 410.199203 469.708689 
L 416.50996 469.312313 
L 419.665339 469.118337 
L 422.820717 468.73728 
L 425.976096 468.652637 
L 429.131474 468.209177 
L 432.286853 468.011366 
L 438.59761 467.842345 
L 441.752988 468.084548 
L 448.063745 467.168335 
L 451.219124 466.323507 
L 457.52988 464.95335 
L 466.996016 464.213812 
L 470.151394 464.224736 
L 473.306773 464.456263 
L 482.772908 464.171013 
L 485.928287 463.921475 
L 495.394422 462.44644 
L 501.705179 461.764696 
L 504.860558 461.831542 
L 511.171315 462.3098 
L 514.326693 462.324886 
L 520.63745 463.406071 
L 526.948207 464.743507 
L 530.103586 464.9273 
L 536.414343 465.549388 
L 539.569721 465.426638 
L 545.880478 465.00954 
L 549.035857 464.796991 
L 552.191235 465.169468 
L 555.346614 465.356174 
L 558.501992 465.718209 
L 561.657371 465.890485 
L 564.812749 465.844641 
L 567.968127 465.952071 
L 571.123506 466.434987 
L 577.434263 467.889149 
L 580.589641 468.730679 
L 583.74502 470.079974 
L 590.055777 472.36266 
L 593.211155 473.678891 
L 596.366534 474.367335 
L 602.677291 474.84988 
L 608.988048 476.011645 
L 612.143426 476.362308 
L 618.454183 476.551584 
L 621.609562 475.740802 
L 624.76494 475.384903 
L 627.920319 474.783109 
L 634.231076 473.257693 
L 637.386454 472.695736 
L 643.697211 470.958317 
L 650.007968 469.522544 
L 653.163347 468.159043 
L 656.318725 466.15675 
L 659.474104 464.641472 
L 662.629482 463.341405 
L 668.940239 461.527105 
L 675.250996 459.599765 
L 678.406375 457.808303 
L 681.561753 455.457433 
L 684.717131 453.994515 
L 687.87251 453.990148 
L 691.027888 453.743581 
L 694.183267 454.741476 
L 697.338645 454.310858 
L 706.804781 452.483367 
L 709.960159 451.795704 
L 713.115538 451.62597 
L 716.270916 451.013374 
L 719.426295 451.076793 
L 722.581673 451.541609 
L 725.737052 451.552048 
L 732.047809 451.271162 
L 735.203187 451.6602 
L 738.358566 451.937181 
L 741.513944 452.565462 
L 744.669323 452.262213 
L 747.824701 452.376086 
L 750.98008 451.22287 
L 757.290837 450.57181 
L 760.446215 451.057249 
L 763.601594 452.996816 
L 766.756972 454.704365 
L 769.912351 455.755477 
L 773.067729 456.392764 
L 776.223108 457.582967 
L 779.378486 458.094593 
L 785.689243 459.240813 
L 788.844622 459.444623 
L 788.844622 459.444623 
" clip-path="url(#p766e42a046)" style="fill: none; stroke: #000000; stroke-width: 1.5; stroke-linecap: square"/>
   </g>
   <g id="line2d_5">
    <path d="M 0 459 
L 6.310757 459.020801 
L 9.466135 459.300373 
L 12.621514 459.036078 
L 15.776892 459.231967 
L 22.087649 460.22002 
L 25.243028 460.741832 
L 28.398406 461.100892 
L 41.01992 463.42665 
L 47.330677 464.265321 
L 56.796813 465.856322 
L 59.952191 465.882927 
L 78.884462 464.908983 
L 85.195219 464.732648 
L 91.505976 464.983047 
L 113.593625 466.768634 
L 116.749004 467.257102 
L 119.904382 467.484715 
L 123.059761 467.92112 
L 126.215139 468.569719 
L 129.370518 469.097403 
L 135.681275 470.457343 
L 141.992032 472.764617 
L 148.302789 474.810903 
L 154.613546 476.127216 
L 157.768924 476.41201 
L 167.23506 476.387572 
L 170.390438 476.51821 
L 179.856574 476.465302 
L 186.167331 476.066965 
L 192.478088 475.156143 
L 208.25498 473.440411 
L 211.410359 472.916611 
L 217.721116 472.308038 
L 224.031873 471.852381 
L 230.342629 471.422988 
L 239.808765 470.286052 
L 242.964143 470.220324 
L 246.119522 470.031691 
L 252.430279 470.158811 
L 255.585657 469.912225 
L 258.741036 469.924648 
L 265.051793 470.215568 
L 268.207171 469.959795 
L 277.673307 470.007736 
L 293.450199 470.944803 
L 296.605578 471.229801 
L 302.916335 472.790801 
L 306.071713 473.288563 
L 309.227092 473.550819 
L 315.537849 473.442623 
L 318.693227 473.212138 
L 325.003984 472.447587 
L 334.47012 471.876611 
L 343.936255 471.671841 
L 347.091633 471.865608 
L 353.40239 472.590167 
L 362.868526 473.52799 
L 366.023904 473.939764 
L 369.179283 474.070338 
L 375.49004 473.958694 
L 381.800797 473.490927 
L 384.956175 473.505459 
L 391.266932 473.126513 
L 397.577689 472.324739 
L 416.50996 470.630048 
L 425.976096 469.954161 
L 429.131474 469.615038 
L 435.442231 469.247283 
L 438.59761 469.086955 
L 441.752988 469.111172 
L 448.063745 468.456455 
L 457.52988 466.92009 
L 466.996016 466.056157 
L 470.151394 465.911679 
L 473.306773 465.893531 
L 485.928287 465.168835 
L 501.705179 463.421395 
L 504.860558 463.314327 
L 511.171315 463.332715 
L 514.326693 463.254396 
L 520.63745 463.688983 
L 526.948207 464.367557 
L 533.258964 464.701834 
L 536.414343 464.898385 
L 542.7251 464.798477 
L 549.035857 464.651146 
L 558.501992 465.187818 
L 564.812749 465.336245 
L 567.968127 465.429611 
L 571.123506 465.721244 
L 577.434263 466.615401 
L 580.589641 467.157604 
L 593.211155 470.467105 
L 596.366534 471.090225 
L 605.832669 472.404396 
L 608.988048 472.968831 
L 612.143426 473.402889 
L 618.454183 473.973946 
L 621.609562 473.76437 
L 624.76494 473.743034 
L 627.920319 473.565404 
L 637.386454 472.667196 
L 650.007968 470.825712 
L 653.163347 470.00798 
L 656.318725 468.811454 
L 662.629482 466.863273 
L 668.940239 465.324289 
L 681.561753 462.067823 
L 684.717131 461.464986 
L 691.027888 460.773674 
L 694.183267 460.661166 
L 709.960159 459.023936 
L 713.115538 458.39372 
L 716.270916 457.526517 
L 719.426295 457.030049 
L 722.581673 456.783387 
L 732.047809 455.448876 
L 738.358566 455.151556 
L 741.513944 455.214697 
L 744.669323 454.839248 
L 747.824701 454.686868 
L 750.98008 453.89551 
L 757.290837 453.101837 
L 760.446215 453.134432 
L 766.756972 454.766915 
L 769.912351 455.300269 
L 773.067729 455.657389 
L 776.223108 456.323439 
L 782.533865 457.103577 
L 785.689243 457.737345 
L 788.844622 458.201886 
L 788.844622 458.201886 
" clip-path="url(#p766e42a046)" style="fill: none; stroke: #000000; stroke-width: 1.5; stroke-linecap: square"/>
   </g>
   <g id="line2d_6">
    <path d="M 0 459 
L 6.310757 459.02037 
L 9.466135 459.288741 
L 12.621514 459.043302 
L 15.776892 459.222373 
L 22.087649 460.116944 
L 25.243028 460.586904 
L 28.398406 460.914864 
L 41.01992 462.949184 
L 50.486056 464.163345 
L 56.796813 465.05683 
L 59.952191 465.136815 
L 85.195219 464.569773 
L 91.505976 464.755255 
L 113.593625 466.048223 
L 116.749004 466.38622 
L 119.904382 466.570645 
L 123.059761 466.882254 
L 135.681275 468.660219 
L 148.302789 471.658656 
L 154.613546 472.724297 
L 157.768924 473.049405 
L 179.856574 474.04778 
L 186.167331 474.042143 
L 233.498008 471.660965 
L 239.808765 471.209749 
L 258.741036 470.78044 
L 265.051793 470.860734 
L 268.207171 470.698193 
L 280.828685 470.688792 
L 296.605578 471.168045 
L 306.071713 472.285736 
L 309.227092 472.463575 
L 318.693227 472.418132 
L 328.159363 471.992929 
L 334.47012 471.822115 
L 343.936255 471.721781 
L 347.091633 471.821359 
L 356.557769 472.370462 
L 362.868526 472.756279 
L 366.023904 473.000656 
L 372.334661 473.126247 
L 378.645418 473.030955 
L 394.422311 472.62099 
L 413.354582 471.608405 
L 448.063745 469.880086 
L 457.52988 468.88967 
L 470.151394 468.027402 
L 476.462151 467.756936 
L 492.239044 466.663386 
L 501.705179 465.860509 
L 508.015936 465.613701 
L 517.482072 465.396103 
L 523.792829 465.527169 
L 530.103586 465.652627 
L 539.569721 465.722096 
L 549.035857 465.488899 
L 561.657371 465.713358 
L 567.968127 465.738677 
L 574.278884 466.080327 
L 580.589641 466.614087 
L 599.521912 469.197005 
L 605.832669 469.851858 
L 612.143426 470.584872 
L 618.454183 471.116796 
L 634.231076 471.109354 
L 637.386454 471.050786 
L 650.007968 470.310225 
L 653.163347 469.91295 
L 659.474104 468.767067 
L 665.784861 467.807734 
L 675.250996 466.301919 
L 681.561753 465.240961 
L 684.717131 464.797196 
L 694.183267 463.953918 
L 716.270916 461.846942 
L 732.047809 460.813746 
L 760.446215 459.391688 
L 776.223108 459.518412 
L 785.689243 459.596135 
L 788.844622 459.632675 
L 788.844622 459.632675 
" clip-path="url(#p766e42a046)" style="fill: none; stroke: #000000; stroke-width: 1.5; stroke-linecap: square"/>
   </g>
   <g id="line2d_7">
    <path d="M 0 459 
L 6.310757 459.020154 
L 9.466135 459.282971 
L 12.621514 459.046659 
L 15.776892 459.217679 
L 22.087649 460.066618 
L 25.243028 460.510655 
L 28.398406 460.822032 
L 41.01992 462.707538 
L 50.486056 463.825986 
L 56.796813 464.635307 
L 59.952191 464.729292 
L 88.350598 464.455985 
L 100.972112 464.94349 
L 119.904382 466.030464 
L 126.215139 466.616656 
L 132.525896 467.281231 
L 135.681275 467.648495 
L 148.302789 469.907751 
L 154.613546 470.753811 
L 157.768924 471.037593 
L 179.856574 472.131171 
L 186.167331 472.240374 
L 211.410359 471.754841 
L 249.2749 470.850404 
L 255.585657 470.764964 
L 280.828685 470.694537 
L 296.605578 470.977689 
L 306.071713 471.639775 
L 312.38247 471.779197 
L 318.693227 471.781237 
L 331.314741 471.529776 
L 343.936255 471.470268 
L 353.40239 471.760389 
L 375.49004 472.37001 
L 400.733068 472.017923 
L 438.59761 470.94384 
L 444.908367 470.787755 
L 454.374502 470.260853 
L 463.840637 469.751276 
L 479.61753 469.148747 
L 489.083665 468.718739 
L 504.860558 467.856443 
L 520.63745 467.482179 
L 539.569721 467.390421 
L 552.191235 467.164087 
L 571.123506 467.141311 
L 580.589641 467.449368 
L 615.298805 469.672636 
L 618.454183 469.830967 
L 637.386454 469.958255 
L 650.007968 469.66042 
L 653.163347 469.472222 
L 662.629482 468.632957 
L 672.095618 467.872496 
L 687.87251 466.520616 
L 719.426295 464.546218 
L 760.446215 462.568702 
L 788.844622 462.144816 
L 788.844622 462.144816 
" clip-path="url(#p766e42a046)" style="fill: none; stroke: #000000; stroke-width: 1.5; stroke-linecap: square"/>
   </g>
   <g id="line2d_8">
    <path d="M 0 459 
L 6.310757 459.020046 
L 9.466135 459.280099 
L 12.621514 459.048274 
L 15.776892 459.215358 
L 22.087649 460.041809 
L 25.243028 460.472944 
L 28.398406 460.775844 
L 41.01992 462.586859 
L 50.486056 463.655684 
L 56.796813 464.421715 
L 59.952191 464.519792 
L 91.505976 464.433767 
L 113.593625 465.376217 
L 132.525896 466.818552 
L 135.681275 467.132454 
L 148.302789 469.034494 
L 154.613546 469.759011 
L 160.924303 470.170975 
L 179.856574 471.047187 
L 189.322709 471.168312 
L 230.342629 470.774873 
L 246.119522 470.460207 
L 290.294821 470.523879 
L 296.605578 470.629418 
L 309.227092 471.188527 
L 321.848606 471.189467 
L 334.47012 471.088257 
L 347.091633 471.129663 
L 372.334661 471.722876 
L 388.111554 471.740129 
L 397.577689 471.629718 
L 429.131474 471.115529 
L 451.219124 470.654392 
L 470.151394 470.044885 
L 485.928287 469.646436 
L 511.171315 468.813927 
L 520.63745 468.660526 
L 542.7251 468.459272 
L 558.501992 468.294838 
L 574.278884 468.261304 
L 583.74502 468.47642 
L 621.609562 469.682206 
L 631.075697 469.754811 
L 646.85259 469.634996 
L 653.163347 469.485142 
L 684.717131 467.89944 
L 741.513944 465.754281 
L 763.601594 465.04061 
L 788.844622 464.606316 
L 788.844622 464.606316 
" clip-path="url(#p766e42a046)" style="fill: none; stroke: #000000; stroke-width: 1.5; stroke-linecap: square"/>
   </g>
   <g id="line2d_9">
    <path d="M 0 459 
L 6.310757 459.019992 
L 9.466135 459.278666 
L 12.621514 459.049065 
L 15.776892 459.214204 
L 22.087649 460.029499 
L 25.243028 460.454206 
L 28.398406 460.752829 
L 41.01992 462.526667 
L 53.641434 463.944907 
L 56.796813 464.314575 
L 63.10757 464.402821 
L 69.418327 464.318478 
L 85.195219 464.223104 
L 94.661355 464.484974 
L 110.438247 465.078193 
L 126.215139 466.062247 
L 135.681275 466.875003 
L 148.302789 468.605909 
L 157.768924 469.50249 
L 179.856574 470.49004 
L 189.322709 470.62797 
L 230.342629 470.401982 
L 246.119522 470.166394 
L 293.450199 470.307462 
L 299.760956 470.49674 
L 306.071713 470.751092 
L 315.537849 470.877642 
L 350.247012 470.899539 
L 375.49004 471.340859 
L 407.043825 471.182462 
L 451.219124 470.5997 
L 470.151394 470.154495 
L 485.928287 469.859986 
L 514.326693 469.17857 
L 564.812749 468.767576 
L 577.434263 468.794028 
L 590.055777 469.051989 
L 602.677291 469.336035 
L 621.609562 469.700073 
L 634.231076 469.743959 
L 650.007968 469.637745 
L 662.629482 469.252857 
L 678.406375 468.722143 
L 691.027888 468.321343 
L 706.804781 467.885672 
L 735.203187 467.123002 
L 773.067729 466.310861 
L 788.844622 466.095543 
L 788.844622 466.095543 
" clip-path="url(#p766e42a046)" style="fill: none; stroke: #000000; stroke-width: 1.5; stroke-linecap: square"/>
   </g>
  </g>
 </g>
 <defs>
  <clipPath id="p766e42a046">
   <rect x="0" y="0" width="792" height="612"/>
  </clipPath>
 </defs>
</svg>
