<?xml version="1.0" encoding="utf-8" standalone="no"?>
<!DOCTYPE svg PUBLIC "-//W3C//DTD SVG 1.1//EN"
  "http://www.w3.org/Graphics/SVG/1.1/DTD/svg11.dtd">
<svg xmlns:xlink="http://www.w3.org/1999/xlink" width="792pt" height="612pt" viewBox="0 0 792 612" xmlns="http://www.w3.org/2000/svg" version="1.1">
 <metadata>
  <rdf:RDF xmlns:dc="http://purl.org/dc/elements/1.1/" xmlns:cc="http://creativecommons.org/ns#" xmlns:rdf="http://www.w3.org/1999/02/22-rdf-syntax-ns#">
   <cc:Work>
    <dc:type rdf:resource="http://purl.org/dc/dcmitype/StillImage"/>
    <dc:date>2023-01-30T17:16:14.472744</dc:date>
    <dc:format>image/svg+xml</dc:format>
    <dc:creator>
     <cc:Agent>
      <dc:title>Matplotlib v3.6.2, https://matplotlib.org/</dc:title>
     </cc:Agent>
    </dc:creator>
   </cc:Work>
  </rdf:RDF>
 </metadata>
 <defs>
  <style type="text/css">*{stroke-linejoin: round; stroke-linecap: butt}</style>
 </defs>
 <g id="figure_1">
  <g id="patch_1">
   <path d="M 0 612 
L 792 612 
L 792 0 
L 0 0 
z
" style="fill: #ffffff"/>
  </g>
  <g id="axes_1">
   <g id="line2d_1">
    <path d="M 0 459 
L 12.983607 458.262926 
L 25.967213 456.68093 
L 38.95082 441.408707 
L 51.934426 424.548232 
L 64.918033 427.874958 
L 77.901639 427.35605 
L 90.885246 431.975245 
L 103.868852 427.35605 
L 116.852459 424.369476 
L 129.836066 421.171576 
L 142.819672 417.620717 
L 155.803279 418.708661 
L 168.786885 422.118069 
L 181.770492 430.148343 
L 194.754098 428.572926 
L 207.737705 436.510268 
L 220.721311 428.14339 
L 233.704918 426.62256 
L 246.688525 426.604672 
L 259.672131 424.548232 
L 272.655738 424.119235 
L 285.639344 426.783556 
L 298.622951 423.690299 
L 311.606557 427.481296 
L 324.590164 430.11253 
L 337.57377 427.642334 
L 350.557377 426.551009 
L 363.540984 426.551009 
L 376.52459 429.790232 
L 389.508197 429.467963 
L 402.491803 432.028991 
L 415.47541 426.568896 
L 428.459016 428.984615 
L 441.442623 420.796639 
L 454.42623 424.97729 
L 467.409836 424.530356 
L 480.393443 429.539576 
L 493.377049 439.595936 
L 506.360656 440.116375 
L 519.344262 437.568509 
L 532.327869 435.936407 
L 545.311475 440.224058 
L 558.295082 436.994519 
L 571.278689 438.304031 
L 584.262295 441.408707 
L 597.245902 439.936908 
L 610.229508 444.245607 
L 623.213115 442.809047 
L 636.196721 442.701317 
L 649.180328 446.706372 
L 662.163934 433.587934 
L 675.147541 437.568509 
L 688.131148 434.591705 
L 701.114754 434.770975 
L 714.098361 438.573152 
L 727.081967 434.627559 
L 740.065574 425.281242 
L 753.04918 439.739501 
L 766.032787 444.155813 
L 779.016393 435.183324 
" clip-path="url(#p4218253566)" style="fill: none; stroke: #000000; stroke-width: 1.5; stroke-linecap: square"/>
   </g>
   <g id="line2d_2">
    <path d="M 0 459 
L 12.983607 459 
L 25.967213 458.508617 
L 38.95082 457.464219 
L 51.934426 448.89831 
L 64.918033 436.314731 
L 77.901639 432.025579 
L 90.885246 429.671669 
L 103.868852 430.827796 
L 116.852459 429.029612 
L 129.836066 426.632451 
L 142.819672 423.831378 
L 155.803279 420.677763 
L 168.786885 419.681587 
L 181.770492 420.888286 
L 194.754098 425.520358 
L 207.737705 427.039622 
L 220.721311 431.789986 
L 233.704918 429.973636 
L 246.688525 428.30839 
L 259.672131 427.474069 
L 272.655738 426.022281 
L 285.639344 425.074538 
L 298.622951 425.922339 
L 311.606557 424.796546 
L 324.590164 426.120964 
L 337.57377 428.12002 
L 350.557377 427.883169 
L 363.540984 427.216916 
L 376.52459 426.887874 
L 389.508197 428.34987 
L 402.491803 428.914136 
L 415.47541 430.487597 
L 428.459016 428.525899 
L 441.442623 428.753038 
L 454.42623 424.758828 
L 467.409836 424.864972 
L 480.393443 424.693699 
L 493.377049 427.115253 
L 506.360656 433.370693 
L 519.344262 436.75819 
L 532.327869 437.184927 
L 545.311475 436.574269 
L 558.295082 438.437007 
L 571.278689 437.739312 
L 584.262295 438.048714 
L 597.245902 439.751746 
L 610.229508 439.844995 
L 623.213115 442.053007 
L 636.196721 442.441295 
L 649.180328 442.584577 
L 662.163934 444.657898 
L 675.147541 439.113335 
L 688.131148 438.339421 
L 701.114754 436.451824 
L 714.098361 435.601195 
L 727.081967 437.07583 
L 740.065574 435.835496 
L 753.04918 430.520464 
L 766.032787 435.113928 
L 779.016393 439.653714 
" clip-path="url(#p4218253566)" style="fill: none; stroke: #000000; stroke-width: 1.5; stroke-linecap: square"/>
   </g>
   <g id="line2d_3">
    <path d="M 0 459 
L 12.983607 459 
L 25.967213 458.568232 
L 38.95082 457.713124 
L 51.934426 451.343195 
L 64.918033 441.794372 
L 77.901639 437.130248 
L 90.885246 433.987282 
L 103.868852 433.358576 
L 116.852459 431.518155 
L 129.836066 429.355241 
L 142.819672 426.901913 
L 155.803279 424.137257 
L 168.786885 422.528402 
L 181.770492 422.407266 
L 194.754098 424.685195 
L 207.737705 425.827862 
L 220.721311 428.927708 
L 233.704918 428.663471 
L 246.688525 428.031144 
L 259.672131 427.5963 
L 272.655738 426.703241 
L 285.639344 425.941869 
L 298.622951 426.187713 
L 311.606557 425.446519 
L 324.590164 426.042502 
L 337.57377 427.240671 
L 350.557377 427.36575 
L 363.540984 427.137372 
L 376.52459 426.97464 
L 389.508197 427.807884 
L 402.491803 428.293246 
L 415.47541 429.390988 
L 428.459016 428.552764 
L 441.442623 428.680211 
L 454.42623 426.362397 
L 467.409836 425.954776 
L 480.393443 425.537485 
L 493.377049 426.715394 
L 506.360656 430.498351 
L 519.344262 433.33206 
L 532.327869 434.584058 
L 545.311475 434.986801 
L 558.295082 436.534631 
L 571.278689 436.681334 
L 584.262295 437.17007 
L 597.245902 438.424538 
L 610.229508 438.879492 
L 623.213115 440.464725 
L 636.196721 441.169945 
L 649.180328 441.634208 
L 662.163934 443.149249 
L 675.147541 440.356921 
L 688.131148 439.555068 
L 701.114754 438.10662 
L 714.098361 437.123845 
L 727.081967 437.546521 
L 740.065574 436.688008 
L 753.04918 433.331299 
L 766.032787 435.206735 
L 779.016393 437.834508 
" clip-path="url(#p4218253566)" style="fill: none; stroke: #000000; stroke-width: 1.5; stroke-linecap: square"/>
   </g>
   <g id="line2d_4">
    <path d="M 0 459 
L 12.983607 459 
L 25.967213 458.599611 
L 38.95082 457.846592 
L 51.934426 452.613606 
L 64.918033 444.895178 
L 77.901639 440.700739 
L 90.885246 437.675731 
L 103.868852 436.46583 
L 116.852459 434.628962 
L 129.836066 432.643894 
L 142.819672 430.496952 
L 155.803279 428.151676 
L 168.786885 426.470635 
L 181.770492 425.710535 
L 194.754098 426.472878 
L 207.737705 426.829184 
L 220.721311 428.45315 
L 233.704918 428.401585 
L 246.688525 428.107546 
L 259.672131 427.860673 
L 272.655738 427.319197 
L 285.639344 426.798348 
L 298.622951 426.79595 
L 311.606557 426.293778 
L 324.590164 426.485203 
L 337.57377 427.068508 
L 350.557377 427.160655 
L 363.540984 427.062887 
L 376.52459 426.980901 
L 389.508197 427.430202 
L 402.491803 427.755849 
L 415.47541 428.438041 
L 428.459016 428.120407 
L 441.442623 428.239679 
L 454.42623 427.031938 
L 467.409836 426.694713 
L 480.393443 426.350246 
L 493.377049 426.858514 
L 506.360656 428.889899 
L 519.344262 430.679076 
L 532.327869 431.780805 
L 545.311475 432.448916 
L 558.295082 433.696962 
L 571.278689 434.233561 
L 584.262295 434.893191 
L 597.245902 435.9413 
L 610.229508 436.582907 
L 623.213115 437.811126 
L 636.196721 438.609936 
L 649.180328 439.26978 
L 662.163934 440.464918 
L 675.147541 439.374494 
L 688.131148 439.095252 
L 701.114754 438.384991 
L 714.098361 437.814797 
L 727.081967 437.944748 
L 740.065574 437.42128 
L 753.04918 435.484267 
L 766.032787 436.168591 
L 779.016393 437.449576 
" clip-path="url(#p4218253566)" style="fill: none; stroke: #000000; stroke-width: 1.5; stroke-linecap: square"/>
   </g>
   <g id="line2d_5">
    <path d="M 0 459 
L 12.983607 459 
L 25.967213 458.615507 
L 38.95082 457.914034 
L 51.934426 453.234846 
L 64.918033 446.450499 
L 77.901639 442.642216 
L 90.885246 439.848613 
L 103.868852 438.540791 
L 116.852459 436.824579 
L 129.836066 435.038476 
L 142.819672 433.162285 
L 155.803279 431.162845 
L 168.786885 429.630713 
L 181.770492 428.742489 
L 194.754098 428.902874 
L 207.737705 428.86636 
L 220.721311 429.688743 
L 233.704918 429.526313 
L 246.688525 429.227646 
L 259.672131 428.963111 
L 272.655738 428.525541 
L 285.639344 428.09572 
L 298.622951 427.969605 
L 311.606557 427.563457 
L 324.590164 427.555755 
L 337.57377 427.792802 
L 350.557377 427.778982 
L 363.540984 427.667164 
L 376.52459 427.566342 
L 389.508197 427.765677 
L 402.491803 427.917259 
L 415.47541 428.281074 
L 428.459016 428.130296 
L 441.442623 428.205125 
L 454.42623 427.558419 
L 467.409836 427.334209 
L 480.393443 427.091574 
L 493.377049 427.302521 
L 506.360656 428.357282 
L 519.344262 429.363362 
L 532.327869 430.063778 
L 545.311475 430.563993 
L 558.295082 431.384674 
L 571.278689 431.860492 
L 584.262295 432.40596 
L 597.245902 433.166602 
L 610.229508 433.737856 
L 623.213115 434.62293 
L 636.196721 435.311694 
L 649.180328 435.932748 
L 662.163934 436.837006 
L 675.147541 436.564244 
L 688.131148 436.648439 
L 701.114754 436.476102 
L 714.098361 436.333342 
L 727.081967 436.520661 
L 740.065574 436.362378 
L 753.04918 435.435412 
L 766.032787 435.794651 
L 779.016393 436.491935 
" clip-path="url(#p4218253566)" style="fill: none; stroke: #000000; stroke-width: 1.5; stroke-linecap: square"/>
   </g>
   <g id="line2d_6">
    <path d="M 0 459 
L 12.983607 459 
L 25.967213 458.623481 
L 38.95082 457.947714 
L 51.934426 453.538484 
L 64.918033 447.215772 
L 77.901639 443.628173 
L 90.885246 440.987156 
L 103.868852 439.681642 
L 116.852459 438.061176 
L 129.836066 436.407638 
L 142.819672 434.700474 
L 155.803279 432.910267 
L 168.786885 431.509326 
L 181.770492 430.632664 
L 194.754098 430.589691 
L 207.737705 430.418639 
L 220.721311 430.913813 
L 233.704918 430.696825 
L 246.688525 430.388719 
L 259.672131 430.111761 
L 272.655738 429.716609 
L 285.639344 429.330091 
L 298.622951 429.158875 
L 311.606557 428.799944 
L 324.590164 428.715406 
L 337.57377 428.803041 
L 350.557377 428.731662 
L 363.540984 428.600055 
L 376.52459 428.478571 
L 389.508197 428.555011 
L 402.491803 428.607385 
L 415.47541 428.800718 
L 428.459016 428.676275 
L 441.442623 428.693235 
L 454.42623 428.263769 
L 467.409836 428.087261 
L 480.393443 427.898353 
L 493.377049 427.984533 
L 506.360656 428.587418 
L 519.344262 429.180355 
L 532.327869 429.608018 
L 545.311475 429.92798 
L 558.295082 430.444101 
L 571.278689 430.770055 
L 584.262295 431.142161 
L 597.245902 431.645558 
L 610.229508 432.049488 
L 623.213115 432.639692 
L 636.196721 433.128951 
L 649.180328 433.586882 
L 662.163934 434.210915 
L 675.147541 434.181398 
L 688.131148 434.341014 
L 701.114754 434.352776 
L 714.098361 434.372309 
L 727.081967 434.567593 
L 740.065574 434.57037 
L 753.04918 434.141304 
L 766.032787 434.398472 
L 779.016393 434.844947 
" clip-path="url(#p4218253566)" style="fill: none; stroke: #000000; stroke-width: 1.5; stroke-linecap: square"/>
   </g>
   <g id="line2d_7">
    <path d="M 0 459 
L 12.983607 459 
L 25.967213 458.627471 
L 38.95082 457.964515 
L 51.934426 453.688138 
L 64.918033 447.593594 
L 77.901639 444.12152 
L 90.885246 441.56436 
L 103.868852 440.271832 
L 116.852459 438.707313 
L 129.836066 437.127334 
L 142.819672 435.511616 
L 155.803279 433.832869 
L 168.786885 432.509676 
L 181.770492 431.657274 
L 194.754098 431.540698 
L 207.737705 431.323496 
L 220.721311 431.684079 
L 233.704918 431.44899 
L 246.688525 431.142258 
L 259.672131 430.865538 
L 272.655738 430.494832 
L 285.639344 430.134118 
L 298.622951 429.951058 
L 311.606557 429.619842 
L 324.590164 429.510218 
L 337.57377 429.540188 
L 350.557377 429.448325 
L 363.540984 429.311746 
L 376.52459 429.184868 
L 389.508197 429.212011 
L 402.491803 429.223226 
L 415.47541 429.343425 
L 428.459016 429.226969 
L 441.442623 429.217005 
L 454.42623 428.877075 
L 467.409836 428.722667 
L 480.393443 428.559628 
L 493.377049 428.597057 
L 506.360656 429.009732 
L 519.344262 429.419835 
L 532.327869 429.71621 
L 545.311475 429.939155 
L 558.295082 430.302385 
L 571.278689 430.535574 
L 584.262295 430.802647 
L 597.245902 431.162502 
L 610.229508 431.45658 
L 623.213115 431.879925 
L 636.196721 432.237578 
L 649.180328 432.576184 
L 662.163934 433.028346 
L 675.147541 433.046088 
L 688.131148 433.187954 
L 701.114754 433.231569 
L 714.098361 433.278942 
L 727.081967 433.440288 
L 740.065574 433.476163 
L 753.04918 433.230408 
L 766.032787 433.423612 
L 779.016393 433.739433 
" clip-path="url(#p4218253566)" style="fill: none; stroke: #000000; stroke-width: 1.5; stroke-linecap: square"/>
   </g>
   <g id="line2d_8">
    <path d="M 0 459 
L 12.983607 459 
L 25.967213 458.629467 
L 38.95082 457.972903 
L 51.934426 453.762375 
L 64.918033 447.781093 
L 77.901639 444.367846 
L 90.885246 441.854255 
L 103.868852 440.570971 
L 116.852459 439.036246 
L 129.836066 437.494619 
L 142.819672 435.926025 
L 155.803279 434.304255 
L 168.786885 433.022447 
L 181.770492 432.186352 
L 194.754098 432.039908 
L 207.737705 431.805077 
L 220.721311 432.106317 
L 233.704918 431.865184 
L 246.688525 431.561334 
L 259.672131 431.287 
L 272.655738 430.929841 
L 285.639344 430.583476 
L 298.622951 430.397744 
L 311.606557 430.081787 
L 324.590164 429.96365 
L 337.57377 429.970184 
L 350.557377 429.871253 
L 363.540984 429.734465 
L 376.52459 429.607184 
L 389.508197 429.614292 
L 402.491803 429.608765 
L 415.47541 429.697748 
L 428.459016 429.585543 
L 441.442623 429.564527 
L 454.42623 429.264775 
L 467.409836 429.121643 
L 480.393443 428.971748 
L 493.377049 428.989877 
L 506.360656 429.321066 
L 519.344262 429.651393 
L 532.327869 429.889007 
L 545.311475 430.067113 
L 558.295082 430.360632 
L 571.278689 430.548993 
L 584.262295 430.765345 
L 597.245902 431.057186 
L 610.229508 431.296717 
L 623.213115 431.640309 
L 636.196721 431.932107 
L 649.180328 432.209218 
L 662.163934 432.576636 
L 675.147541 432.601931 
L 688.131148 432.72436 
L 701.114754 432.769776 
L 714.098361 432.817796 
L 727.081967 432.95404 
L 740.065574 432.993169 
L 753.04918 432.814882 
L 766.032787 432.972735 
L 779.016393 433.224533 
" clip-path="url(#p4218253566)" style="fill: none; stroke: #000000; stroke-width: 1.5; stroke-linecap: square"/>
   </g>
   <g id="line2d_9">
    <path d="M 0 459 
L 12.983607 459 
L 25.967213 458.630465 
L 38.95082 457.977093 
L 51.934426 453.799339 
L 64.918033 447.874464 
L 77.901639 444.490867 
L 90.885246 441.999438 
L 103.868852 440.721433 
L 116.852459 439.202031 
L 129.836066 437.679935 
L 142.819672 436.135203 
L 155.803279 434.542165 
L 168.786885 433.281599 
L 181.770492 432.454623 
L 194.754098 432.29493 
L 207.737705 432.052625 
L 220.721311 432.326214 
L 233.704918 432.082856 
L 246.688525 431.781038 
L 259.672131 431.508504 
L 272.655738 431.158478 
L 285.639344 430.819664 
L 298.622951 430.633429 
L 311.606557 430.32546 
L 324.590164 430.204101 
L 337.57377 430.200335 
L 350.557377 430.098739 
L 363.540984 429.962489 
L 376.52459 429.835656 
L 389.508197 429.83402 
L 402.491803 429.821227 
L 415.47541 429.896145 
L 428.459016 429.786289 
L 441.442623 429.76054 
L 454.42623 429.479776 
L 467.409836 429.342403 
L 480.393443 429.199172 
L 493.377049 429.209056 
L 506.360656 429.50333 
L 519.344262 429.797257 
L 532.327869 430.007847 
L 545.311475 430.16512 
L 558.295082 430.426322 
L 571.278689 430.593501 
L 584.262295 430.785871 
L 597.245902 431.045737 
L 610.229508 431.259206 
L 623.213115 431.565179 
L 636.196721 431.825407 
L 649.180328 432.072735 
L 662.163934 432.399737 
L 675.147541 432.42588 
L 688.131148 432.537132 
L 701.114754 432.580884 
L 714.098361 432.626791 
L 727.081967 432.749474 
L 740.065574 432.787657 
L 753.04918 432.637105 
L 766.032787 432.777246 
L 779.016393 432.9985 
" clip-path="url(#p4218253566)" style="fill: none; stroke: #000000; stroke-width: 1.5; stroke-linecap: square"/>
   </g>
  </g>
 </g>
 <defs>
  <clipPath id="p4218253566">
   <rect x="0" y="0" width="792" height="612"/>
  </clipPath>
 </defs>
</svg>
