<?xml version="1.0" encoding="utf-8" standalone="no"?>
<!DOCTYPE svg PUBLIC "-//W3C//DTD SVG 1.1//EN"
  "http://www.w3.org/Graphics/SVG/1.1/DTD/svg11.dtd">
<svg xmlns:xlink="http://www.w3.org/1999/xlink" width="792pt" height="612pt" viewBox="0 0 792 612" xmlns="http://www.w3.org/2000/svg" version="1.1">
 <metadata>
  <rdf:RDF xmlns:dc="http://purl.org/dc/elements/1.1/" xmlns:cc="http://creativecommons.org/ns#" xmlns:rdf="http://www.w3.org/1999/02/22-rdf-syntax-ns#">
   <cc:Work>
    <dc:type rdf:resource="http://purl.org/dc/dcmitype/StillImage"/>
    <dc:date>2023-01-02T15:37:45.781763</dc:date>
    <dc:format>image/svg+xml</dc:format>
    <dc:creator>
     <cc:Agent>
      <dc:title>Matplotlib v3.6.2, https://matplotlib.org/</dc:title>
     </cc:Agent>
    </dc:creator>
   </cc:Work>
  </rdf:RDF>
 </metadata>
 <defs>
  <style type="text/css">*{stroke-linejoin: round; stroke-linecap: butt}</style>
 </defs>
 <g id="figure_1">
  <g id="patch_1">
   <path d="M 0 612 
L 792 612 
L 792 0 
L 0 0 
z
" style="fill: #ffffff"/>
  </g>
  <g id="axes_1">
   <g id="line2d_1">
    <path d="M 0 459 
L 44 461.358785 
L 88 460.800493 
L 132 451.714898 
L 176 459.279146 
L 220 448.743087 
L 264 445.479282 
L 308 451.33815 
L 352 460.549261 
L 396 464.122332 
L 440 468.169951 
L 484 467.946634 
L 528 433.234012 
L 572 431.272717 
L 616 425.811714 
L 660 436.574519 
L 704 426.686547 
L 748 428.103442 
" clip-path="url(#p4befe51796)" style="fill: none; stroke: #000000; stroke-width: 1.5; stroke-linecap: square"/>
   </g>
   <g id="line2d_2">
    <path d="M 0 459 
L 44 459 
L 88 460.572523 
L 132 460.702791 
L 176 457.498199 
L 220 458.705546 
L 264 453.644625 
L 308 449.529059 
L 352 450.437118 
L 396 457.051079 
L 440 461.241762 
L 484 464.720307 
L 528 466.355774 
L 572 457.084904 
L 616 444.132789 
L 660 434.924087 
L 704 435.72032 
L 748 431.128421 
" clip-path="url(#p4befe51796)" style="fill: none; stroke: #000000; stroke-width: 1.5; stroke-linecap: square"/>
   </g>
   <g id="line2d_3">
    <path d="M 0 459 
L 44 459 
L 88 460.381744 
L 132 460.571472 
L 176 459.009358 
L 220 459.105345 
L 264 455.77638 
L 308 452.467156 
L 352 452.114424 
L 396 455.64836 
L 440 459.769246 
L 484 462.285354 
L 528 463.969824 
L 572 459.951592 
L 616 452.817365 
L 660 444.850787 
L 704 442.416021 
L 748 437.766166 
" clip-path="url(#p4befe51796)" style="fill: none; stroke: #000000; stroke-width: 1.5; stroke-linecap: square"/>
   </g>
   <g id="line2d_4">
    <path d="M 0 459 
L 44 459 
L 88 460.281324 
L 132 460.485079 
L 176 459.239727 
L 220 459.250549 
L 264 457.041809 
L 308 454.423101 
L 352 453.768621 
L 396 455.758692 
L 440 459.118352 
L 484 460.809952 
L 528 462.107634 
L 572 460.026523 
L 616 456.69697 
L 660 451.379169 
L 704 448.864699 
L 748 445.134195 
" clip-path="url(#p4befe51796)" style="fill: none; stroke: #000000; stroke-width: 1.5; stroke-linecap: square"/>
   </g>
   <g id="line2d_5">
    <path d="M 0 459 
L 44 459 
L 88 460.230454 
L 132 460.437147 
L 176 459.341734 
L 220 459.326959 
L 264 457.679842 
L 308 455.452465 
L 352 454.769465 
L 396 456.13019 
L 440 458.741799 
L 484 460.164182 
L 528 461.163355 
L 572 459.841755 
L 616 457.948135 
L 660 454.274795 
L 704 452.314407 
L 748 449.549891 
" clip-path="url(#p4befe51796)" style="fill: none; stroke: #000000; stroke-width: 1.5; stroke-linecap: square"/>
   </g>
   <g id="line2d_6">
    <path d="M 0 459 
L 44 459 
L 88 460.204935 
L 132 460.412114 
L 176 459.388677 
L 220 459.364833 
L 264 457.991633 
L 308 455.963102 
L 352 455.293573 
L 396 456.390532 
L 440 458.558272 
L 484 459.894827 
L 528 460.736892 
L 572 459.719365 
L 616 458.368682 
L 660 455.475101 
L 704 453.871091 
L 748 451.655848 
" clip-path="url(#p4befe51796)" style="fill: none; stroke: #000000; stroke-width: 1.5; stroke-linecap: square"/>
   </g>
   <g id="line2d_7">
    <path d="M 0 459 
L 44 459 
L 88 460.192165 
L 132 460.399349 
L 176 459.411054 
L 220 459.383518 
L 264 458.144587 
L 308 456.215027 
L 352 455.558152 
L 396 456.536788 
L 440 458.498539 
L 484 459.776553 
L 528 460.541394 
L 572 459.656129 
L 616 458.533092 
L 660 456.001157 
L 704 454.578703 
L 748 452.635051 
" clip-path="url(#p4befe51796)" style="fill: none; stroke: #000000; stroke-width: 1.5; stroke-linecap: square"/>
   </g>
   <g id="line2d_8">
    <path d="M 0 459 
L 44 459 
L 88 460.185779 
L 132 460.392907 
L 176 459.421961 
L 220 459.392776 
L 264 458.220189 
L 308 456.339843 
L 352 455.690616 
L 396 456.613499 
L 440 458.476596 
L 484 459.721769 
L 528 460.448735 
L 572 459.624722 
L 616 458.605138 
L 660 456.245165 
L 704 454.912247 
L 748 453.100978 
" clip-path="url(#p4befe51796)" style="fill: none; stroke: #000000; stroke-width: 1.5; stroke-linecap: square"/>
   </g>
   <g id="line2d_9">
    <path d="M 0 459 
L 44 459 
L 88 460.182586 
L 132 460.389671 
L 176 459.427343 
L 220 459.397382 
L 264 458.257755 
L 308 456.401928 
L 352 455.756833 
L 396 456.652689 
L 440 458.46758 
L 484 459.695487 
L 528 460.403746 
L 572 459.609159 
L 616 458.638815 
L 660 456.362426 
L 704 455.073726 
L 748 453.327487 
" clip-path="url(#p4befe51796)" style="fill: none; stroke: #000000; stroke-width: 1.5; stroke-linecap: square"/>
   </g>
  </g>
 </g>
 <defs>
  <clipPath id="p4befe51796">
   <rect x="0" y="0" width="792" height="612"/>
  </clipPath>
 </defs>
</svg>
