<?xml version="1.0" encoding="utf-8" standalone="no"?>
<!DOCTYPE svg PUBLIC "-//W3C//DTD SVG 1.1//EN"
  "http://www.w3.org/Graphics/SVG/1.1/DTD/svg11.dtd">
<svg xmlns:xlink="http://www.w3.org/1999/xlink" width="792pt" height="612pt" viewBox="0 0 792 612" xmlns="http://www.w3.org/2000/svg" version="1.1">
 <metadata>
  <rdf:RDF xmlns:dc="http://purl.org/dc/elements/1.1/" xmlns:cc="http://creativecommons.org/ns#" xmlns:rdf="http://www.w3.org/1999/02/22-rdf-syntax-ns#">
   <cc:Work>
    <dc:type rdf:resource="http://purl.org/dc/dcmitype/StillImage"/>
    <dc:date>2023-01-30T17:15:23.402841</dc:date>
    <dc:format>image/svg+xml</dc:format>
    <dc:creator>
     <cc:Agent>
      <dc:title>Matplotlib v3.6.2, https://matplotlib.org/</dc:title>
     </cc:Agent>
    </dc:creator>
   </cc:Work>
  </rdf:RDF>
 </metadata>
 <defs>
  <style type="text/css">*{stroke-linejoin: round; stroke-linecap: butt}</style>
 </defs>
 <g id="figure_1">
  <g id="patch_1">
   <path d="M 0 612 
L 792 612 
L 792 0 
L 0 0 
z
" style="fill: #ffffff"/>
  </g>
  <g id="axes_1">
   <g id="line2d_1">
    <path d="M 0 306 
L 46.588235 312.714472 
L 93.176471 299.831901 
L 139.764706 306.884992 
L 186.352941 301.471239 
L 232.941176 299.597736 
L 279.529412 307.535714 
L 326.117647 295.82631 
L 372.705882 305.167066 
L 419.294118 303.423164 
L 465.882353 300.534436 
L 512.470588 306.130146 
L 559.058824 303.501246 
L 605.647059 307.848055 
L 652.235294 310.45069 
L 698.823529 310.945129 
L 745.411765 300.560457 
" clip-path="url(#pc2e80a8001)" style="fill: none; stroke: #000000; stroke-width: 1.5; stroke-linecap: square"/>
   </g>
   <g id="line2d_2">
    <path d="M 0 306 
L 46.588235 306 
L 93.176471 310.476714 
L 139.764706 304.393637 
L 186.352941 305.722355 
L 232.941176 303.528114 
L 279.529412 301.531548 
L 326.117647 304.557129 
L 372.705882 300.173416 
L 419.294118 302.668386 
L 465.882353 303.027552 
L 512.470588 301.782302 
L 559.058824 303.954641 
L 605.647059 303.731923 
L 652.235294 305.806159 
L 698.823529 308.134263 
L 745.411765 309.56942 
" clip-path="url(#pc2e80a8001)" style="fill: none; stroke: #000000; stroke-width: 1.5; stroke-linecap: square"/>
   </g>
   <g id="line2d_3">
    <path d="M 0 306 
L 46.588235 306 
L 93.176471 309.933661 
L 139.764706 305.356478 
L 186.352941 305.9534 
L 232.941176 304.358598 
L 279.529412 302.764768 
L 326.117647 304.297573 
L 372.705882 301.650095 
L 419.294118 302.727742 
L 465.882353 302.937993 
L 512.470588 302.218047 
L 559.058824 303.381991 
L 605.647059 303.41731 
L 652.235294 304.725234 
L 698.823529 306.411584 
L 745.411765 307.744744 
" clip-path="url(#pc2e80a8001)" style="fill: none; stroke: #000000; stroke-width: 1.5; stroke-linecap: square"/>
   </g>
   <g id="line2d_4">
    <path d="M 0 306 
L 46.588235 306 
L 93.176471 309.647805 
L 139.764706 305.795191 
L 186.352941 306.141975 
L 232.941176 304.859638 
L 279.529412 303.564395 
L 326.117647 304.46355 
L 372.705882 302.630592 
L 419.294118 303.141549 
L 465.882353 303.195976 
L 512.470588 302.698532 
L 559.058824 303.322475 
L 605.647059 303.354259 
L 652.235294 304.138534 
L 698.823529 305.223495 
L 745.411765 306.194588 
" clip-path="url(#pc2e80a8001)" style="fill: none; stroke: #000000; stroke-width: 1.5; stroke-linecap: square"/>
   </g>
   <g id="line2d_5">
    <path d="M 0 306 
L 46.588235 306 
L 93.176471 309.502995 
L 139.764706 305.996102 
L 186.352941 306.247984 
L 232.941176 305.120284 
L 279.529412 303.9895 
L 326.117647 304.636709 
L 372.705882 303.173704 
L 419.294118 303.479218 
L 465.882353 303.47119 
L 512.470588 303.074471 
L 559.058824 303.466763 
L 605.647059 303.470998 
L 652.235294 303.987955 
L 698.823529 304.725395 
L 745.411765 305.41372 
" clip-path="url(#pc2e80a8001)" style="fill: none; stroke: #000000; stroke-width: 1.5; stroke-linecap: square"/>
   </g>
   <g id="line2d_6">
    <path d="M 0 306 
L 46.588235 306 
L 93.176471 309.430352 
L 139.764706 306.091107 
L 186.352941 306.302656 
L 232.941176 305.250821 
L 279.529412 304.203582 
L 326.117647 304.743629 
L 372.705882 303.452344 
L 419.294118 303.677499 
L 465.882353 303.646829 
L 512.470588 303.298691 
L 559.058824 303.594794 
L 605.647059 303.585584 
L 652.235294 303.982967 
L 698.823529 304.556805 
L 745.411765 305.098522 
" clip-path="url(#pc2e80a8001)" style="fill: none; stroke: #000000; stroke-width: 1.5; stroke-linecap: square"/>
   </g>
   <g id="line2d_7">
    <path d="M 0 306 
L 46.588235 306 
L 93.176471 309.394 
L 139.764706 306.137156 
L 186.352941 306.330233 
L 232.941176 305.315817 
L 279.529412 304.310313 
L 326.117647 304.801554 
L 372.705882 303.592314 
L 419.294118 303.78282 
L 465.882353 303.743248 
L 512.470588 303.418897 
L 559.058824 303.6727 
L 605.647059 303.65773 
L 652.235294 304.00097 
L 698.823529 304.499175 
L 745.411765 304.970782 
" clip-path="url(#pc2e80a8001)" style="fill: none; stroke: #000000; stroke-width: 1.5; stroke-linecap: square"/>
   </g>
   <g id="line2d_8">
    <path d="M 0 306 
L 46.588235 306 
L 93.176471 309.375821 
L 139.764706 306.159807 
L 186.352941 306.34406 
L 232.941176 305.348206 
L 279.529412 304.363513 
L 326.117647 304.831535 
L 372.705882 303.662307 
L 419.294118 303.836832 
L 465.882353 303.79342 
L 512.470588 303.480812 
L 559.058824 303.714968 
L 605.647059 303.697438 
L 652.235294 304.01522 
L 698.823529 304.477546 
L 745.411765 304.91545 
" clip-path="url(#pc2e80a8001)" style="fill: none; stroke: #000000; stroke-width: 1.5; stroke-linecap: square"/>
   </g>
   <g id="line2d_9">
    <path d="M 0 306 
L 46.588235 306 
L 93.176471 309.36673 
L 139.764706 306.171038 
L 186.352941 306.350979 
L 232.941176 305.364367 
L 279.529412 304.39006 
L 326.117647 304.846767 
L 372.705882 303.697284 
L 419.294118 303.864149 
L 465.882353 303.818968 
L 512.470588 303.512191 
L 559.058824 303.736901 
L 605.647059 303.718179 
L 652.235294 304.023655 
L 698.823529 304.468565 
L 745.411765 304.890018 
" clip-path="url(#pc2e80a8001)" style="fill: none; stroke: #000000; stroke-width: 1.5; stroke-linecap: square"/>
   </g>
  </g>
 </g>
 <defs>
  <clipPath id="pc2e80a8001">
   <rect x="0" y="0" width="792" height="612"/>
  </clipPath>
 </defs>
</svg>
