<?xml version="1.0" encoding="utf-8" standalone="no"?>
<!DOCTYPE svg PUBLIC "-//W3C//DTD SVG 1.1//EN"
  "http://www.w3.org/Graphics/SVG/1.1/DTD/svg11.dtd">
<svg xmlns:xlink="http://www.w3.org/1999/xlink" width="792pt" height="612pt" viewBox="0 0 792 612" xmlns="http://www.w3.org/2000/svg" version="1.1">
 <metadata>
  <rdf:RDF xmlns:dc="http://purl.org/dc/elements/1.1/" xmlns:cc="http://creativecommons.org/ns#" xmlns:rdf="http://www.w3.org/1999/02/22-rdf-syntax-ns#">
   <cc:Work>
    <dc:type rdf:resource="http://purl.org/dc/dcmitype/StillImage"/>
    <dc:date>2023-01-16T16:09:59.377194</dc:date>
    <dc:format>image/svg+xml</dc:format>
    <dc:creator>
     <cc:Agent>
      <dc:title>Matplotlib v3.6.2, https://matplotlib.org/</dc:title>
     </cc:Agent>
    </dc:creator>
   </cc:Work>
  </rdf:RDF>
 </metadata>
 <defs>
  <style type="text/css">*{stroke-linejoin: round; stroke-linecap: butt}</style>
 </defs>
 <g id="figure_1">
  <g id="patch_1">
   <path d="M 0 612 
L 792 612 
L 792 0 
L 0 0 
z
" style="fill: #ffffff"/>
  </g>
  <g id="axes_1">
   <g id="line2d_1">
    <path d="M 0 459 
L 46.588235 458.287337 
L 93.176471 402.585365 
L 139.764706 400.524709 
L 186.352941 394.794065 
L 232.941176 406.098136 
L 279.529412 395.711394 
L 326.117647 397.197684 
L 372.705882 389.605953 
L 419.294118 378.939718 
L 465.882353 381.490234 
L 512.470588 364.686865 
L 559.058824 363.32259 
L 605.647059 359.113141 
L 652.235294 350.242965 
L 698.823529 350.453193 
L 745.411765 346.425337 
" clip-path="url(#p9b7a37ce53)" style="fill: none; stroke: #000000; stroke-width: 1.5; stroke-linecap: square"/>
   </g>
   <g id="line2d_2">
    <path d="M 0 459 
L 46.588235 459 
L 93.176471 458.524891 
L 139.764706 426.450361 
L 186.352941 412.586593 
L 232.941176 403.382248 
L 279.529412 404.761265 
L 326.117647 400.194893 
L 372.705882 398.689757 
L 419.294118 394.007001 
L 465.882353 386.300046 
L 512.470588 383.851883 
L 559.058824 374.161278 
L 605.647059 368.66764 
L 652.235294 363.788854 
L 698.823529 356.904628 
L 745.411765 353.583406 
" clip-path="url(#p9b7a37ce53)" style="fill: none; stroke: #000000; stroke-width: 1.5; stroke-linecap: square"/>
   </g>
   <g id="line2d_3">
    <path d="M 0 459 
L 46.588235 459 
L 93.176471 458.582531 
L 139.764706 433.108858 
L 186.352941 420.334279 
L 232.941176 411.211237 
L 279.529412 409.498302 
L 326.117647 405.057575 
L 372.705882 402.598318 
L 419.294118 398.606213 
L 465.882353 392.632849 
L 512.470588 389.286477 
L 559.058824 381.917119 
L 605.647059 376.37983 
L 652.235294 371.255062 
L 698.823529 365.02231 
L 745.411765 360.716311 
" clip-path="url(#p9b7a37ce53)" style="fill: none; stroke: #000000; stroke-width: 1.5; stroke-linecap: square"/>
   </g>
   <g id="line2d_4">
    <path d="M 0 459 
L 46.588235 459 
L 93.176471 458.612871 
L 139.764706 436.529549 
L 186.352941 425.020913 
L 232.941176 416.681783 
L 279.529412 414.072272 
L 326.117647 409.900116 
L 372.705882 407.198396 
L 419.294118 403.640154 
L 465.882353 398.836168 
L 512.470588 395.579586 
L 559.058824 389.909603 
L 605.647059 385.142227 
L 652.235294 380.558857 
L 698.823529 375.289477 
L 745.411765 371.034069 
" clip-path="url(#p9b7a37ce53)" style="fill: none; stroke: #000000; stroke-width: 1.5; stroke-linecap: square"/>
   </g>
   <g id="line2d_5">
    <path d="M 0 459 
L 46.588235 459 
L 93.176471 458.628241 
L 139.764706 438.217665 
L 186.352941 427.485709 
L 232.941176 419.726632 
L 279.529412 416.930006 
L 326.117647 413.041064 
L 372.705882 410.402465 
L 419.294118 407.199604 
L 465.882353 403.122784 
L 512.470588 400.183766 
L 559.058824 395.576483 
L 605.647059 391.573702 
L 652.235294 387.696731 
L 698.823529 383.363131 
L 745.411765 379.674751 
" clip-path="url(#p9b7a37ce53)" style="fill: none; stroke: #000000; stroke-width: 1.5; stroke-linecap: square"/>
   </g>
   <g id="line2d_6">
    <path d="M 0 459 
L 46.588235 459 
L 93.176471 458.635951 
L 139.764706 439.050281 
L 186.352941 428.733904 
L 232.941176 421.303886 
L 279.529412 418.480104 
L 326.117647 414.773132 
L 372.705882 412.219677 
L 419.294118 409.234649 
L 465.882353 405.552524 
L 512.470588 402.843885 
L 559.058824 398.806465 
L 605.647059 395.272612 
L 652.235294 391.859518 
L 698.823529 388.110115 
L 745.411765 384.870887 
" clip-path="url(#p9b7a37ce53)" style="fill: none; stroke: #000000; stroke-width: 1.5; stroke-linecap: square"/>
   </g>
   <g id="line2d_7">
    <path d="M 0 459 
L 46.588235 459 
L 93.176471 458.639809 
L 139.764706 439.463012 
L 186.352941 429.359961 
L 232.941176 422.102738 
L 279.529412 419.281114 
L 326.117647 415.674464 
L 372.705882 413.176385 
L 419.294118 410.309277 
L 465.882353 406.829606 
L 512.470588 404.251125 
L 559.058824 400.502292 
L 605.647059 397.217132 
L 652.235294 394.055217 
L 698.823529 390.616306 
L 745.411765 387.633082 
" clip-path="url(#p9b7a37ce53)" style="fill: none; stroke: #000000; stroke-width: 1.5; stroke-linecap: square"/>
   </g>
   <g id="line2d_8">
    <path d="M 0 459 
L 46.588235 459 
L 93.176471 458.641739 
L 139.764706 439.668395 
L 186.352941 429.673226 
L 232.941176 422.504255 
L 279.529412 419.687475 
L 326.117647 416.133154 
L 372.705882 413.665781 
L 419.294118 410.859629 
L 465.882353 407.481989 
L 512.470588 404.971726 
L 559.058824 401.367107 
L 605.647059 398.208513 
L 652.235294 395.175348 
L 698.823529 391.894166 
L 745.411765 389.044424 
" clip-path="url(#p9b7a37ce53)" style="fill: none; stroke: #000000; stroke-width: 1.5; stroke-linecap: square"/>
   </g>
   <g id="line2d_9">
    <path d="M 0 459 
L 46.588235 459 
L 93.176471 458.642703 
L 139.764706 439.770831 
L 186.352941 429.829886 
L 232.941176 422.705476 
L 279.529412 419.892036 
L 326.117647 416.364395 
L 372.705882 413.913101 
L 419.294118 411.137888 
L 465.882353 407.811397 
L 512.470588 405.33594 
L 559.058824 401.803274 
L 605.647059 398.708331 
L 652.235294 395.740099 
L 698.823529 392.538104 
L 745.411765 389.756124 
" clip-path="url(#p9b7a37ce53)" style="fill: none; stroke: #000000; stroke-width: 1.5; stroke-linecap: square"/>
   </g>
  </g>
 </g>
 <defs>
  <clipPath id="p9b7a37ce53">
   <rect x="0" y="0" width="792" height="612"/>
  </clipPath>
 </defs>
</svg>
