<?xml version="1.0" encoding="utf-8" standalone="no"?>
<!DOCTYPE svg PUBLIC "-//W3C//DTD SVG 1.1//EN"
  "http://www.w3.org/Graphics/SVG/1.1/DTD/svg11.dtd">
<svg xmlns:xlink="http://www.w3.org/1999/xlink" width="792pt" height="612pt" viewBox="0 0 792 612" xmlns="http://www.w3.org/2000/svg" version="1.1">
 <metadata>
  <rdf:RDF xmlns:dc="http://purl.org/dc/elements/1.1/" xmlns:cc="http://creativecommons.org/ns#" xmlns:rdf="http://www.w3.org/1999/02/22-rdf-syntax-ns#">
   <cc:Work>
    <dc:type rdf:resource="http://purl.org/dc/dcmitype/StillImage"/>
    <dc:date>2023-01-09T02:29:37.182297</dc:date>
    <dc:format>image/svg+xml</dc:format>
    <dc:creator>
     <cc:Agent>
      <dc:title>Matplotlib v3.6.2, https://matplotlib.org/</dc:title>
     </cc:Agent>
    </dc:creator>
   </cc:Work>
  </rdf:RDF>
 </metadata>
 <defs>
  <style type="text/css">*{stroke-linejoin: round; stroke-linecap: butt}</style>
 </defs>
 <g id="figure_1">
  <g id="patch_1">
   <path d="M 0 612 
L 792 612 
L 792 0 
L 0 0 
z
" style="fill: #ffffff"/>
  </g>
  <g id="axes_1">
   <g id="line2d_1">
    <path d="M 0 459 
L 3.180723 459.142382 
L 6.361446 453.59989 
L 9.542169 459.864464 
L 12.722892 461.298458 
L 15.903614 462.549388 
L 19.084337 464.420699 
L 22.26506 466.841199 
L 25.445783 466.617455 
L 28.626506 463.515554 
L 31.807229 464.044403 
L 34.987952 465.559758 
L 38.168675 464.898697 
L 41.349398 463.607086 
L 44.53012 461.41033 
L 47.710843 461.257777 
L 50.891566 460.759439 
L 54.072289 464.217296 
L 57.253012 464.135935 
L 60.433735 464.390189 
L 63.614458 466.027586 
L 66.795181 463.25113 
L 69.975904 464.715634 
L 73.156627 469.434592 
L 76.337349 468.000598 
L 79.518072 463.942701 
L 82.698795 463.017216 
L 85.879518 466.770008 
L 89.060241 466.617455 
L 92.240964 471.458455 
L 95.421687 472.841598 
L 98.60241 472.495812 
L 101.783133 470.838075 
L 104.963855 473.126363 
L 108.144578 477.530045 
L 111.325301 474.011167 
L 114.506024 475.750266 
L 117.686747 478.587743 
L 120.86747 485.442436 
L 124.048193 488.7274 
L 127.228916 482.889723 
L 130.409639 483.825379 
L 133.590361 487.283236 
L 136.771084 492.429341 
L 139.951807 490.5682 
L 143.13253 484.679673 
L 146.313253 482.421896 
L 149.493976 478.526722 
L 152.674699 479.594589 
L 155.855422 476.645241 
L 159.036145 476.736772 
L 162.216867 477.672428 
L 165.39759 476.02486 
L 168.578313 474.895972 
L 171.759036 470.492289 
L 174.939759 471.102499 
L 178.120482 475.150226 
L 181.301205 476.207923 
L 184.481928 475.37397 
L 187.662651 477.448684 
L 190.843373 481.45573 
L 194.024096 480.418373 
L 197.204819 481.669303 
L 200.385542 484.893246 
L 203.566265 484.832225 
L 206.746988 482.340534 
L 209.927711 476.268944 
L 213.108434 478.130085 
L 216.289157 472.617854 
L 219.46988 473.817934 
L 222.650602 474.234911 
L 225.831325 480.733648 
L 229.012048 481.882877 
L 232.192771 489.429141 
L 235.373494 488.696889 
L 238.554217 482.788022 
L 241.73494 485.178011 
L 244.915663 483.774528 
L 248.096386 487.049322 
L 251.277108 483.794868 
L 254.457831 491.351303 
L 257.638554 495.561752 
L 260.819277 498.897567 
L 264 500.646836 
L 267.180723 502.243552 
L 270.361446 502.263893 
L 273.542169 497.066937 
L 276.722892 497.483914 
L 279.903614 494.127759 
L 283.084337 500.768878 
L 286.26506 503.748737 
L 289.445783 502.162191 
L 292.626506 501.52147 
L 295.807229 502.884273 
L 298.987952 501.958788 
L 302.168675 497.138128 
L 305.349398 494.036227 
L 308.53012 491.127559 
L 311.710843 491.300452 
L 314.891566 486.489963 
L 318.072289 488.991824 
L 321.253012 489.724076 
L 324.433735 488.259572 
L 327.614458 487.51715 
L 333.975904 495.317668 
L 337.156627 499.68067 
L 340.337349 499.395905 
L 343.518072 496.62962 
L 346.698795 503.057166 
L 349.879518 502.833422 
L 353.060241 501.47062 
L 356.240964 505.294602 
L 359.421687 502.162191 
L 362.60241 497.168639 
L 365.783133 499.619649 
L 368.963855 507.471018 
L 372.144578 506.99302 
L 378.506024 509.098245 
L 381.686747 505.904813 
L 384.86747 505.996344 
L 388.048193 502.029979 
L 391.228916 502.233382 
L 394.409639 505.101369 
L 397.590361 506.474342 
L 400.771084 505.101369 
L 403.951807 507.023531 
L 407.13253 505.518346 
L 410.313253 506.291279 
L 413.493976 500.951941 
L 416.674699 498.999269 
L 419.855422 498.48059 
L 423.036145 501.023132 
L 426.216867 500.860409 
L 429.39759 505.009838 
L 432.578313 502.304573 
L 435.759036 497.86021 
L 438.939759 495.124435 
L 442.120482 495.754985 
L 445.301205 498.328038 
L 448.481928 495.775326 
L 451.662651 495.571922 
L 454.843373 496.192303 
L 458.024096 496.06009 
L 461.204819 500.016286 
L 464.385542 496.934725 
L 467.566265 495.958389 
L 470.746988 493.954866 
L 473.927711 493.700612 
L 477.108434 491.931002 
L 483.46988 494.015887 
L 489.831325 499.782372 
L 493.012048 499.436586 
L 496.192771 498.694164 
L 499.373494 496.853363 
L 502.554217 501.877426 
L 505.73494 502.284233 
L 508.915663 502.304573 
L 512.096386 503.738567 
L 515.277108 503.697886 
L 518.457831 504.460649 
L 521.638554 505.060689 
L 524.819277 501.674023 
L 528 501.419769 
L 531.180723 499.141651 
L 534.361446 497.707658 
L 537.542169 504.480989 
L 540.722892 503.179208 
L 547.084337 506.108216 
L 550.26506 502.965634 
L 553.445783 507.837144 
L 556.626506 510.511898 
L 559.807229 511.772999 
L 562.987952 513.329035 
L 566.168675 514.305371 
L 569.349398 514.071457 
L 572.53012 511.620447 
L 575.710843 515.047793 
L 578.891566 527.465568 
L 582.072289 525.146769 
L 585.253012 521.851635 
L 588.433735 519.349774 
L 591.614458 520.2956 
L 594.795181 523.35682 
L 597.975904 523.834818 
L 601.156627 522.512696 
L 604.337349 521.983847 
L 607.518072 520.91598 
L 610.698795 522.960183 
L 613.879518 520.499003 
L 617.060241 520.793938 
L 620.240964 521.922826 
L 623.421687 523.692436 
L 626.60241 521.994018 
L 629.783133 522.492356 
L 632.963855 518.719224 
L 636.144578 518.037822 
L 639.325301 519.919303 
L 642.506024 516.573318 
L 645.686747 517.742888 
L 648.86747 516.634339 
L 652.048193 520.163387 
L 655.228916 520.061686 
L 658.409639 514.579965 
L 661.590361 516.969955 
L 664.771084 516.65468 
L 667.951807 518.332757 
L 671.13253 510.817003 
L 674.313253 504.104693 
L 677.493976 505.833621 
L 680.674699 503.474143 
L 683.855422 504.979327 
L 690.216867 504.786094 
L 693.39759 506.403151 
L 696.578313 504.226735 
L 699.759036 503.535164 
L 702.939759 504.236905 
L 706.120482 505.253922 
L 709.301205 503.94197 
L 712.481928 500.443433 
L 715.662651 498.999269 
L 718.843373 497.890721 
L 722.024096 500.514624 
L 725.204819 502.233382 
L 728.385542 501.826575 
L 731.566265 498.745015 
L 734.746988 500.718027 
L 737.927711 498.022933 
L 741.108434 497.22966 
L 744.289157 498.653483 
L 747.46988 501.643512 
L 750.650602 504.247075 
L 753.831325 507.196424 
L 757.012048 507.033701 
L 760.192771 494.249801 
L 763.373494 493.771803 
L 766.554217 492.439511 
L 769.73494 495.063414 
L 772.915663 492.653084 
L 776.096386 492.99887 
L 779.277108 491.229261 
L 782.457831 488.7274 
L 785.638554 489.32744 
L 788.819277 485.350904 
L 788.819277 485.350904 
" clip-path="url(#p29f6237289)" style="fill: none; stroke: #000000; stroke-width: 1.5; stroke-linecap: square"/>
   </g>
   <g id="line2d_2">
    <path d="M 0 459 
L 6.361446 459.094922 
L 9.542169 456.036164 
L 12.722892 459 
L 19.084337 461.386599 
L 22.26506 462.915595 
L 25.445783 464.886094 
L 28.626506 465.766711 
L 31.807229 464.649708 
L 34.987952 464.360476 
L 38.168675 464.971284 
L 41.349398 464.94205 
L 44.53012 464.276642 
L 47.710843 462.837583 
L 50.891566 462.036732 
L 54.072289 461.386599 
L 57.253012 462.803324 
L 60.433735 463.469809 
L 63.614458 463.927705 
L 66.795181 464.979859 
L 69.975904 464.114797 
L 73.156627 464.421696 
L 76.337349 466.944177 
L 79.518072 467.486586 
L 82.698795 465.714105 
L 85.879518 464.363467 
L 89.060241 465.571404 
L 92.240964 466.095586 
L 95.421687 468.793114 
L 98.60241 470.833289 
L 101.783133 471.670553 
L 104.963855 471.259878 
L 108.144578 472.211127 
L 111.325301 474.899043 
L 114.506024 474.469303 
L 117.686747 475.127692 
L 120.86747 476.871696 
L 124.048193 481.181773 
L 127.228916 484.986413 
L 130.409639 483.961699 
L 133.590361 483.914517 
L 136.771084 485.618001 
L 139.951807 489.059785 
L 143.13253 489.843047 
L 149.493976 484.841678 
L 152.674699 481.664198 
L 155.855422 480.622933 
L 159.036145 478.620008 
L 162.216867 477.657711 
L 165.39759 477.636134 
L 168.578313 476.801981 
L 171.759036 475.829793 
L 174.939759 473.13765 
L 178.120482 472.105517 
L 181.301205 473.619157 
L 184.481928 474.912683 
L 187.662651 475.140654 
L 190.843373 476.29423 
L 194.024096 478.885629 
L 197.204819 479.662829 
L 200.385542 480.687982 
L 203.566265 482.817655 
L 206.746988 483.843924 
L 209.927711 483.104254 
L 213.108434 479.688354 
L 216.289157 478.910556 
L 219.46988 475.746876 
L 222.650602 474.769463 
L 225.831325 474.48761 
L 229.012048 477.602473 
L 232.192771 479.736892 
L 235.373494 484.596916 
L 238.554217 486.671271 
L 241.73494 484.73878 
L 244.915663 484.983023 
L 248.096386 484.398298 
L 251.277108 485.748936 
L 254.457831 484.777905 
L 257.638554 488.083169 
L 260.819277 491.834486 
L 264 495.386028 
L 267.180723 498.051449 
L 270.361446 500.180963 
L 273.542169 501.258681 
L 276.722892 499.182451 
L 279.903614 498.360024 
L 283.084337 496.249335 
L 286.26506 498.519317 
L 289.445783 501.143539 
L 292.626506 501.655836 
L 295.807229 501.587237 
L 298.987952 502.236972 
L 302.168675 502.107471 
L 305.349398 499.622122 
L 311.710843 493.959373 
L 314.891566 492.605504 
L 318.072289 489.517003 
L 321.253012 489.229846 
L 324.433735 489.451157 
L 330.795181 488.153962 
L 333.975904 489.762683 
L 337.156627 492.548391 
L 340.337349 496.130963 
L 343.518072 497.78874 
L 346.698795 497.224156 
L 349.879518 500.166804 
L 353.060241 501.528689 
L 356.240964 501.527014 
L 359.421687 503.438088 
L 362.60241 502.81356 
L 365.783133 499.986174 
L 368.963855 499.80335 
L 372.144578 503.658442 
L 375.325301 505.333449 
L 378.506024 506.707418 
L 381.686747 507.917788 
L 384.86747 506.912497 
L 388.048193 506.461938 
L 391.228916 504.255491 
L 394.409639 503.249561 
L 397.590361 504.170819 
L 400.771084 505.321563 
L 403.951807 505.205663 
L 407.13253 506.110529 
L 410.313253 505.81368 
L 413.493976 506.053058 
L 416.674699 503.500386 
L 419.855422 501.243486 
L 423.036145 499.849056 
L 426.216867 500.425405 
L 429.39759 500.634592 
L 432.578313 502.818266 
L 435.759036 502.555118 
L 438.939759 500.191133 
L 442.120482 497.646357 
L 445.301205 496.69431 
L 448.481928 497.510875 
L 451.662651 496.63281 
L 454.843373 496.091997 
L 461.204819 496.080231 
L 464.385542 498.052486 
L 467.566265 497.497155 
L 470.746988 496.728171 
L 473.927711 495.332943 
L 477.108434 494.512709 
L 480.289157 493.214717 
L 483.46988 493.085217 
L 486.650602 493.546543 
L 489.831325 495.224382 
L 493.012048 497.50896 
L 496.192771 498.479593 
L 499.373494 498.596171 
L 502.554217 497.730949 
L 505.73494 499.823691 
L 508.915663 501.072228 
L 512.096386 501.704653 
L 515.277108 502.734991 
L 518.457831 503.224116 
L 524.819277 504.468944 
L 528 503.080936 
L 531.180723 502.249455 
L 537.542169 499.189511 
L 540.722892 501.836706 
L 543.903614 502.50694 
L 547.084337 503.606315 
L 550.26506 504.859319 
L 553.445783 503.915009 
L 556.626506 505.88866 
L 559.807229 508.222574 
L 562.987952 510.025366 
L 566.168675 511.694549 
L 569.349398 513.021776 
L 572.53012 513.564983 
L 575.710843 512.603523 
L 578.891566 513.849349 
L 582.072289 520.695945 
L 585.253012 522.950053 
L 588.433735 522.420606 
L 591.614458 520.896995 
L 594.795181 520.608043 
L 597.975904 522.000638 
L 601.156627 522.941678 
L 604.337349 522.741824 
L 607.518072 522.352087 
L 610.698795 521.625738 
L 613.879518 522.295134 
L 617.060241 521.399322 
L 620.240964 521.097607 
L 623.421687 521.507405 
L 626.60241 522.599641 
L 629.783133 522.295812 
L 632.963855 522.395081 
L 636.144578 520.552845 
L 639.325301 519.285682 
L 642.506024 519.601356 
L 645.686747 518.079061 
L 648.86747 517.902779 
L 652.048193 517.254719 
L 655.228916 518.705464 
L 658.409639 519.378809 
L 661.590361 516.971271 
L 664.771084 516.968519 
L 667.951807 516.805198 
L 671.13253 517.572428 
L 674.313253 514.181135 
L 677.493976 509.118346 
L 680.674699 507.447886 
L 683.855422 505.42849 
L 690.216867 504.992329 
L 693.39759 504.86594 
L 696.578313 505.611154 
L 702.939759 504.219476 
L 706.120482 504.22506 
L 709.301205 504.742981 
L 712.481928 504.340441 
L 715.662651 502.383302 
L 718.843373 500.679939 
L 722.024096 499.268639 
L 725.204819 499.884353 
L 728.385542 501.056315 
L 731.566265 501.436719 
L 734.746988 500.078104 
L 737.927711 500.391744 
L 741.108434 499.202592 
L 744.289157 498.212656 
L 747.46988 498.434565 
L 750.650602 500.041252 
L 753.831325 502.148112 
L 757.012048 504.682797 
L 760.192771 505.874501 
L 763.373494 500.049468 
L 766.554217 496.9023 
L 769.73494 494.661513 
L 772.915663 494.855424 
L 776.096386 493.736626 
L 779.277108 493.345693 
L 782.457831 492.256169 
L 785.638554 490.455889 
L 788.819277 489.882013 
L 788.819277 489.882013 
" clip-path="url(#p29f6237289)" style="fill: none; stroke: #000000; stroke-width: 1.5; stroke-linecap: square"/>
   </g>
   <g id="line2d_3">
    <path d="M 0 459 
L 6.361446 459.083406 
L 9.542169 456.690063 
L 12.722892 458.604921 
L 15.903614 459.732926 
L 19.084337 460.675695 
L 22.26506 461.878934 
L 25.445783 463.429242 
L 28.626506 464.406225 
L 31.807229 464.136938 
L 34.987952 464.109223 
L 38.168675 464.540819 
L 41.349398 464.64681 
L 44.53012 464.339884 
L 47.710843 463.477071 
L 54.072289 462.221683 
L 57.253012 462.812013 
L 63.614458 463.559275 
L 66.795181 464.287658 
L 69.975904 463.984872 
L 73.156627 464.199246 
L 76.337349 465.735622 
L 79.518072 466.400607 
L 85.879518 464.899753 
L 89.060241 465.448928 
L 92.240964 465.793156 
L 98.60241 469.050425 
L 101.783133 470.072464 
L 104.963855 470.308283 
L 108.144578 471.143912 
L 111.325301 473.029752 
L 114.506024 473.328252 
L 117.686747 474.048811 
L 120.86747 475.395849 
L 127.228916 481.42028 
L 130.409639 481.867771 
L 133.590361 482.463979 
L 136.771084 483.903378 
L 139.951807 486.430047 
L 143.13253 487.669594 
L 146.313253 486.809052 
L 149.493976 485.535088 
L 152.674699 483.489312 
L 155.855422 482.358632 
L 159.036145 480.68926 
L 162.216867 479.530692 
L 165.39759 478.990624 
L 171.759036 477.173081 
L 174.939759 475.199151 
L 178.120482 473.979025 
L 181.301205 474.313173 
L 184.481928 474.859383 
L 187.662651 474.996423 
L 190.843373 475.697467 
L 194.024096 477.373556 
L 200.385542 479.258028 
L 203.566265 480.915858 
L 206.746988 482.068951 
L 209.927711 482.155038 
L 213.108434 480.430504 
L 216.289157 479.757252 
L 219.46988 477.662258 
L 222.650602 476.535043 
L 225.831325 475.865649 
L 232.192771 478.651805 
L 235.373494 481.8236 
L 238.554217 483.852042 
L 241.73494 483.546531 
L 244.915663 484.028656 
L 248.096386 483.958078 
L 251.277108 484.869662 
L 254.457831 484.553601 
L 257.638554 486.552089 
L 260.819277 489.206144 
L 264 492.070688 
L 267.180723 494.608446 
L 270.361446 496.878745 
L 273.542169 498.488691 
L 276.722892 498.098494 
L 279.903614 497.937727 
L 283.084337 496.835878 
L 286.26506 498.000852 
L 289.445783 499.701657 
L 292.626506 500.444584 
L 295.807229 500.778769 
L 298.987952 501.417406 
L 302.168675 501.593098 
L 305.349398 500.303594 
L 308.53012 498.471008 
L 311.710843 496.315069 
L 314.891566 494.837595 
L 318.072289 492.37637 
L 321.253012 491.369838 
L 324.433735 490.873403 
L 330.795181 489.330436 
L 333.975904 489.928116 
L 337.156627 491.500418 
L 340.337349 493.891686 
L 343.518072 495.500657 
L 346.698795 495.825704 
L 349.879518 497.943949 
L 353.060241 499.377047 
L 356.240964 499.995216 
L 359.421687 501.560302 
L 362.60241 501.749266 
L 365.783133 500.414371 
L 368.963855 500.196683 
L 372.144578 502.348512 
L 378.506024 505.020307 
L 381.686747 506.239495 
L 388.048193 506.123024 
L 391.228916 504.926897 
L 394.409639 504.141244 
L 397.590361 504.432189 
L 400.771084 505.034247 
L 403.951807 505.056511 
L 407.13253 505.639016 
L 410.313253 505.60393 
L 413.493976 505.809992 
L 416.674699 504.391448 
L 419.855422 502.811402 
L 423.036145 501.53261 
L 429.39759 501.217092 
L 432.578313 502.323265 
L 435.759036 502.313655 
L 438.939759 500.999926 
L 442.120482 499.271103 
L 445.301205 498.233815 
L 448.481928 498.253632 
L 451.662651 497.515464 
L 454.843373 496.935268 
L 461.204819 496.505401 
L 464.385542 497.526508 
L 467.566265 497.348564 
L 470.746988 496.937899 
L 473.927711 496.05899 
L 477.108434 495.359826 
L 480.289157 494.345291 
L 483.46988 493.928166 
L 486.650602 493.944338 
L 489.831325 494.813158 
L 493.012048 496.273957 
L 496.192771 497.204499 
L 499.373494 497.641232 
L 502.554217 497.411709 
L 505.73494 498.72693 
L 508.915663 499.775837 
L 512.096386 500.523659 
L 515.277108 501.469559 
L 524.819277 503.490728 
L 531.180723 502.525281 
L 534.361446 501.541329 
L 537.542169 500.422713 
L 540.722892 501.620046 
L 543.903614 502.080615 
L 547.084337 502.855253 
L 550.26506 503.816539 
L 553.445783 503.574335 
L 556.626506 504.829729 
L 562.987952 508.057739 
L 566.168675 509.612682 
L 569.349398 510.999322 
L 572.53012 511.910169 
L 575.710843 511.832846 
L 578.891566 512.789843 
L 582.072289 517.11818 
L 585.253012 519.499569 
L 588.433735 520.216205 
L 591.614458 519.979511 
L 594.795181 520.091751 
L 597.975904 521.069492 
L 601.156627 521.899798 
L 604.337349 522.101763 
L 607.518072 522.083475 
L 610.698795 521.753474 
L 613.879518 522.119761 
L 617.060241 521.653287 
L 620.240964 521.409042 
L 623.421687 521.568544 
L 626.60241 522.204484 
L 629.783133 522.150818 
L 632.963855 522.24514 
L 639.325301 520.273003 
L 642.506024 520.170061 
L 645.686747 519.112324 
L 648.86747 518.704777 
L 652.048193 518.090089 
L 655.228916 518.694646 
L 658.409639 519.092835 
L 661.590361 517.763768 
L 667.951807 517.265239 
L 671.13253 517.575081 
L 674.313253 515.58293 
L 677.493976 512.198533 
L 680.674699 510.315732 
L 683.855422 508.290033 
L 687.036145 507.304568 
L 690.216867 506.569646 
L 693.39759 506.029874 
L 696.578313 506.127522 
L 702.939759 504.948549 
L 706.120482 504.72182 
L 709.301205 504.860661 
L 712.481928 504.579364 
L 722.024096 500.811627 
L 725.204819 500.712803 
L 728.385542 501.156021 
L 731.566265 501.347819 
L 734.746988 500.580044 
L 737.927711 500.615564 
L 744.289157 499.072682 
L 747.46988 498.941 
L 750.650602 499.729581 
L 753.831325 501.053542 
L 757.012048 502.85615 
L 760.192771 504.08177 
L 763.373494 501.190921 
L 766.554217 499.010248 
L 769.73494 497.078189 
L 772.915663 496.484828 
L 776.096386 495.353506 
L 779.277108 494.653243 
L 782.457831 493.638209 
L 785.638554 492.18836 
L 788.819277 491.337333 
L 788.819277 491.337333 
" clip-path="url(#p29f6237289)" style="fill: none; stroke: #000000; stroke-width: 1.5; stroke-linecap: square"/>
   </g>
   <g id="line2d_4">
    <path d="M 0 459 
L 6.361446 459.077344 
L 9.542169 457.021533 
L 12.722892 458.476323 
L 15.903614 459.504355 
L 19.084337 460.253799 
L 22.26506 461.197261 
L 25.445783 462.394555 
L 28.626506 463.245276 
L 34.987952 463.437094 
L 38.168675 463.823064 
L 41.349398 464.014302 
L 44.53012 463.943231 
L 54.072289 462.728596 
L 66.795181 463.803186 
L 69.975904 463.713367 
L 73.156627 463.87585 
L 76.337349 464.774304 
L 79.518072 465.294454 
L 82.698795 465.076982 
L 85.879518 464.746193 
L 92.240964 465.318442 
L 101.783133 468.168813 
L 104.963855 468.600889 
L 108.144578 469.329633 
L 111.325301 470.647033 
L 114.506024 471.191105 
L 117.686747 471.925501 
L 120.86747 472.995494 
L 124.048193 474.988964 
L 127.228916 477.188454 
L 133.590361 479.028392 
L 136.771084 480.356267 
L 139.951807 482.293901 
L 143.13253 483.626388 
L 146.313253 483.807117 
L 149.493976 483.599834 
L 152.674699 482.803458 
L 155.855422 482.304667 
L 159.036145 481.411987 
L 162.216867 480.676005 
L 165.39759 480.206413 
L 171.759036 478.814565 
L 174.939759 477.494065 
L 178.120482 476.478185 
L 181.301205 476.271363 
L 184.481928 476.268922 
L 187.662651 476.134242 
L 190.843373 476.350037 
L 194.024096 477.171629 
L 197.204819 477.693788 
L 200.385542 478.331815 
L 203.566265 479.383497 
L 206.746988 480.259141 
L 209.927711 480.596047 
L 213.108434 479.906803 
L 216.289157 479.626691 
L 219.46988 478.509605 
L 222.650602 477.760167 
L 225.831325 477.192294 
L 232.192771 478.407557 
L 235.373494 480.164627 
L 238.554217 481.523022 
L 241.73494 481.718273 
L 244.915663 482.265366 
L 248.096386 482.504915 
L 251.277108 483.230833 
L 254.457831 483.32386 
L 257.638554 484.608391 
L 260.819277 486.362912 
L 267.180723 490.338504 
L 270.361446 492.248999 
L 273.542169 493.85948 
L 279.903614 494.895668 
L 283.084337 494.785332 
L 286.26506 495.75266 
L 289.445783 497.042568 
L 292.626506 497.872538 
L 295.807229 498.465616 
L 298.987952 499.182658 
L 302.168675 499.637009 
L 305.349398 499.247068 
L 308.53012 498.423747 
L 311.710843 497.26838 
L 314.891566 496.32824 
L 318.072289 494.768151 
L 321.253012 493.859333 
L 324.433735 493.211323 
L 330.795181 491.654457 
L 333.975904 491.617006 
L 337.156627 492.209468 
L 340.337349 493.405016 
L 343.518072 494.368551 
L 346.698795 494.73544 
L 349.879518 496.071487 
L 353.060241 497.157184 
L 356.240964 497.854495 
L 359.421687 499.046943 
L 362.60241 499.546708 
L 365.783133 499.16727 
L 368.963855 499.238604 
L 372.144578 500.551672 
L 381.686747 503.655892 
L 388.048193 504.338589 
L 394.409639 503.693917 
L 397.590361 503.920082 
L 400.771084 504.328714 
L 403.951807 504.453607 
L 407.13253 504.868659 
L 413.493976 505.19741 
L 416.674699 504.527962 
L 423.036145 502.838605 
L 429.39759 502.294766 
L 432.578313 502.737658 
L 435.759036 502.675568 
L 438.939759 501.911014 
L 442.120482 500.828402 
L 445.301205 500.018931 
L 448.481928 499.750964 
L 454.843373 498.545813 
L 461.204819 497.826919 
L 464.385542 498.173916 
L 467.566265 497.976611 
L 470.746988 497.65322 
L 483.46988 495.318304 
L 486.650602 495.103667 
L 489.831325 495.386092 
L 493.012048 496.084153 
L 496.192771 496.615792 
L 499.373494 496.942471 
L 502.554217 496.922291 
L 508.915663 498.433692 
L 512.096386 499.047558 
L 515.277108 499.792322 
L 524.819277 501.702683 
L 531.180723 501.654526 
L 534.361446 501.251057 
L 537.542169 500.684422 
L 540.722892 501.2926 
L 543.903614 501.597792 
L 547.084337 502.097701 
L 550.26506 502.740643 
L 553.445783 502.780926 
L 556.626506 503.593041 
L 566.168675 507.037728 
L 569.349398 508.204874 
L 572.53012 509.14957 
L 575.710843 509.553717 
L 578.891566 510.441164 
L 582.072289 513.171979 
L 585.253012 515.097288 
L 588.433735 516.189297 
L 594.795181 517.290033 
L 601.156627 519.171241 
L 604.337349 519.718889 
L 607.518072 520.091797 
L 610.698795 520.234552 
L 613.879518 520.681098 
L 620.240964 520.694149 
L 623.421687 520.900531 
L 626.60241 521.356358 
L 632.963855 521.646221 
L 639.325301 520.703466 
L 642.506024 520.588336 
L 645.686747 519.957889 
L 648.86747 519.613609 
L 652.048193 519.146164 
L 658.409639 519.444571 
L 661.590361 518.673133 
L 667.951807 518.128924 
L 671.13253 518.163868 
L 674.313253 516.992925 
L 677.493976 514.937671 
L 680.674699 513.483435 
L 683.855422 511.875952 
L 687.036145 510.766091 
L 690.216867 509.813751 
L 693.39759 509.004746 
L 696.578313 508.582155 
L 702.939759 507.173748 
L 706.120482 506.695083 
L 709.301205 506.45535 
L 712.481928 506.044872 
L 718.843373 504.149249 
L 722.024096 503.139204 
L 725.204819 502.708267 
L 731.566265 502.48061 
L 734.746988 501.871446 
L 737.927711 501.676702 
L 744.289157 500.455667 
L 747.46988 500.157752 
L 750.650602 500.384097 
L 753.831325 500.990982 
L 757.012048 501.970199 
L 760.192771 502.767692 
L 763.373494 501.39978 
L 769.73494 498.926345 
L 772.915663 498.29722 
L 776.096386 497.387885 
L 779.277108 496.682648 
L 782.457831 495.805882 
L 785.638554 494.670469 
L 788.819277 493.810608 
L 788.819277 493.810608 
" clip-path="url(#p29f6237289)" style="fill: none; stroke: #000000; stroke-width: 1.5; stroke-linecap: square"/>
   </g>
   <g id="line2d_5">
    <path d="M 0 459 
L 6.361446 459.074273 
L 9.542169 457.183895 
L 12.722892 458.43339 
L 15.903614 459.398302 
L 19.084337 460.043417 
L 22.26506 460.842317 
L 25.445783 461.838083 
L 28.626506 462.570623 
L 34.987952 462.886735 
L 38.168675 463.229919 
L 41.349398 463.434867 
L 44.53012 463.455208 
L 54.072289 462.762773 
L 69.975904 463.439146 
L 73.156627 463.561811 
L 76.337349 464.118859 
L 79.518072 464.482737 
L 85.879518 464.302645 
L 92.240964 464.716058 
L 101.783133 466.566365 
L 104.963855 466.942454 
L 108.144578 467.484164 
L 111.325301 468.360149 
L 117.686747 469.447657 
L 120.86747 470.235526 
L 124.048193 471.542166 
L 127.228916 473.014481 
L 133.590361 474.707821 
L 136.771084 475.777301 
L 139.951807 477.190582 
L 143.13253 478.323833 
L 146.313253 478.86133 
L 149.493976 479.161965 
L 159.036145 478.938746 
L 171.759036 478.144766 
L 178.120482 476.968686 
L 184.481928 476.765814 
L 187.662651 476.649597 
L 190.843373 476.716286 
L 194.024096 477.111644 
L 200.385542 477.744273 
L 206.746988 478.887177 
L 209.927711 479.181342 
L 213.108434 478.945832 
L 216.289157 478.884073 
L 219.46988 478.367686 
L 225.831325 477.684969 
L 232.192771 478.274521 
L 235.373494 479.208744 
L 238.554217 480.004245 
L 241.73494 480.240895 
L 244.915663 480.657256 
L 248.096386 480.922541 
L 251.277108 481.439384 
L 254.457831 481.642215 
L 257.638554 482.457987 
L 260.819277 483.555748 
L 273.542169 488.747547 
L 279.903614 490.124584 
L 283.084337 490.465335 
L 286.26506 491.332473 
L 289.445783 492.37623 
L 292.626506 493.199944 
L 302.168675 495.273121 
L 305.349398 495.43593 
L 308.53012 495.32731 
L 314.891566 494.683319 
L 318.072289 494.007365 
L 330.795181 492.418148 
L 333.975904 492.3349 
L 337.156627 492.586198 
L 343.518072 493.697287 
L 346.698795 493.942632 
L 353.060241 495.386346 
L 356.240964 495.898783 
L 359.421687 496.686963 
L 362.60241 497.14969 
L 365.783133 497.157913 
L 368.963855 497.36937 
L 375.325301 498.956739 
L 381.686747 500.514917 
L 388.048193 501.39894 
L 394.409639 501.532245 
L 403.951807 502.475567 
L 407.13253 502.860232 
L 413.493976 503.361267 
L 416.674699 503.169337 
L 423.036145 502.477462 
L 429.39759 502.249353 
L 432.578313 502.486364 
L 435.759036 502.477922 
L 438.939759 502.097415 
L 445.301205 501.046461 
L 448.481928 500.825123 
L 454.843373 500.011156 
L 461.204819 499.397822 
L 464.385542 499.450602 
L 470.746988 498.967173 
L 486.650602 496.970563 
L 489.831325 496.964646 
L 496.192771 497.382186 
L 499.373494 497.490155 
L 502.554217 497.435341 
L 518.457831 499.357009 
L 524.819277 500.229411 
L 531.180723 500.446002 
L 534.361446 500.341529 
L 537.542169 500.124987 
L 540.722892 500.4895 
L 547.084337 501.046827 
L 550.26506 501.469987 
L 553.445783 501.59409 
L 556.626506 502.113867 
L 562.987952 503.559497 
L 572.53012 505.94449 
L 575.710843 506.416922 
L 578.891566 507.135871 
L 582.072289 508.82947 
L 585.253012 510.188963 
L 588.433735 511.162108 
L 594.795181 512.553225 
L 601.156627 514.324189 
L 607.518072 515.5934 
L 610.698795 516.039674 
L 613.879518 516.619725 
L 623.421687 517.665561 
L 626.60241 518.173973 
L 632.963855 518.836415 
L 642.506024 518.87296 
L 645.686747 518.68908 
L 652.048193 518.459053 
L 658.409639 518.737028 
L 661.590361 518.397993 
L 667.951807 518.156277 
L 671.13253 518.177888 
L 674.313253 517.571801 
L 677.493976 516.457389 
L 680.674699 515.579608 
L 683.855422 514.57866 
L 690.216867 513.047509 
L 693.39759 512.364407 
L 696.578313 511.871802 
L 706.120482 510.075257 
L 712.481928 509.200826 
L 718.843373 507.685535 
L 722.024096 506.870715 
L 725.204819 506.341901 
L 731.566265 505.653663 
L 734.746988 505.079403 
L 737.927711 504.717939 
L 744.289157 503.584635 
L 747.46988 503.173897 
L 750.650602 503.045885 
L 753.831325 503.144973 
L 760.192771 503.777069 
L 769.73494 501.39308 
L 772.915663 500.861481 
L 785.638554 498.017061 
L 788.819277 497.284199 
L 788.819277 497.284199 
" clip-path="url(#p29f6237289)" style="fill: none; stroke: #000000; stroke-width: 1.5; stroke-linecap: square"/>
   </g>
   <g id="line2d_6">
    <path d="M 0 459 
L 6.361446 459.072733 
L 9.542169 457.263659 
L 12.722892 458.417408 
L 15.903614 459.348436 
L 19.084337 459.941328 
L 22.26506 460.667323 
L 25.445783 461.561 
L 28.626506 462.224969 
L 34.987952 462.566685 
L 38.168675 462.879704 
L 41.349398 463.07849 
L 44.53012 463.127772 
L 54.072289 462.661346 
L 73.156627 463.31444 
L 76.337349 463.715825 
L 79.518072 463.990471 
L 85.879518 463.927817 
L 92.240964 464.248552 
L 117.686747 467.696693 
L 120.86747 468.268709 
L 127.228916 470.169313 
L 133.590361 471.47665 
L 136.771084 472.269942 
L 139.951807 473.273869 
L 143.13253 474.128788 
L 146.313253 474.646711 
L 149.493976 475.025843 
L 159.036145 475.466619 
L 171.759036 475.612163 
L 178.120482 475.174413 
L 187.662651 475.228057 
L 190.843373 475.329763 
L 203.566265 476.49109 
L 206.746988 476.867239 
L 209.927711 477.113397 
L 219.46988 476.921594 
L 225.831325 476.670073 
L 232.192771 477.073114 
L 238.554217 478.10772 
L 244.915663 478.615567 
L 248.096386 478.842006 
L 251.277108 479.201708 
L 254.457831 479.402725 
L 257.638554 479.924932 
L 260.819277 480.60744 
L 270.361446 483.112443 
L 273.542169 483.944451 
L 279.903614 485.076252 
L 283.084337 485.468302 
L 302.168675 489.357682 
L 305.349398 489.692784 
L 308.53012 489.879729 
L 314.891566 489.992166 
L 318.072289 489.841708 
L 333.975904 489.715099 
L 337.156627 489.955061 
L 343.518072 490.757631 
L 346.698795 491.008818 
L 353.060241 492.007444 
L 356.240964 492.41181 
L 359.421687 492.962115 
L 362.60241 493.354983 
L 368.963855 493.778196 
L 381.686747 496.043642 
L 388.048193 496.870147 
L 397.590361 497.640899 
L 407.13253 498.689102 
L 413.493976 499.303917 
L 419.855422 499.371382 
L 426.216867 499.417562 
L 429.39759 499.484792 
L 432.578313 499.725382 
L 435.759036 499.840665 
L 438.939759 499.76241 
L 445.301205 499.414179 
L 451.662651 499.226478 
L 461.204819 498.843606 
L 464.385542 498.899276 
L 470.746988 498.705303 
L 486.650602 497.67509 
L 489.831325 497.648321 
L 499.373494 497.86437 
L 502.554217 497.825729 
L 515.277108 498.601313 
L 528 499.428342 
L 534.361446 499.501313 
L 537.542169 499.427731 
L 550.26506 500.269162 
L 553.445783 500.386524 
L 559.807229 501.127661 
L 566.168675 502.088374 
L 572.53012 503.104451 
L 575.710843 503.47142 
L 578.891566 503.968896 
L 582.072289 504.97455 
L 585.253012 505.838771 
L 588.433735 506.525429 
L 594.795181 507.644235 
L 604.337349 509.563553 
L 613.879518 511.093523 
L 636.144578 513.842965 
L 648.86747 514.531745 
L 652.048193 514.626118 
L 658.409639 515.09266 
L 664.771084 515.160597 
L 671.13253 515.362334 
L 674.313253 515.171318 
L 683.855422 513.867962 
L 693.39759 512.774627 
L 699.759036 512.154313 
L 706.120482 511.469255 
L 712.481928 510.899441 
L 728.385542 508.796336 
L 731.566265 508.502853 
L 744.289157 506.938409 
L 747.46988 506.586985 
L 750.650602 506.377771 
L 753.831325 506.288703 
L 760.192771 506.358499 
L 776.096386 503.871764 
L 782.457831 502.889407 
L 788.819277 501.733092 
L 788.819277 501.733092 
" clip-path="url(#p29f6237289)" style="fill: none; stroke: #000000; stroke-width: 1.5; stroke-linecap: square"/>
   </g>
   <g id="line2d_7">
    <path d="M 0 459 
L 6.361446 459.071962 
L 9.542169 457.303118 
L 12.722892 458.410778 
L 15.903614 459.324413 
L 19.084337 459.89143 
L 22.26506 460.581263 
L 25.445783 461.424346 
L 28.626506 462.052599 
L 34.987952 462.398605 
L 41.349398 462.886986 
L 44.53012 462.945973 
L 54.072289 462.576667 
L 73.156627 463.161279 
L 79.518072 463.72387 
L 89.060241 463.844696 
L 92.240964 463.972078 
L 117.686747 466.74443 
L 120.86747 467.196847 
L 130.409639 469.171366 
L 136.771084 470.318844 
L 143.13253 471.760179 
L 149.493976 472.542018 
L 159.036145 473.084188 
L 171.759036 473.472821 
L 178.120482 473.3116 
L 190.843373 473.625394 
L 209.927711 475.06967 
L 219.46988 475.116397 
L 225.831325 475.057664 
L 232.192771 475.391637 
L 238.554217 476.113246 
L 248.096386 476.715659 
L 257.638554 477.530757 
L 264 478.532662 
L 276.722892 480.684957 
L 289.445783 482.460837 
L 302.168675 484.332713 
L 308.53012 484.875554 
L 314.891566 485.179983 
L 321.253012 485.302922 
L 337.156627 485.896398 
L 365.783133 488.791236 
L 368.963855 489.043732 
L 384.86747 491.086879 
L 391.228916 491.67496 
L 397.590361 492.220439 
L 410.313253 493.440961 
L 413.493976 493.733846 
L 423.036145 494.115484 
L 438.939759 494.901726 
L 454.843373 495.032109 
L 477.108434 495.183613 
L 486.650602 495.040182 
L 493.012048 495.186182 
L 512.096386 495.828634 
L 528 496.660875 
L 534.361446 496.817949 
L 537.542169 496.837517 
L 559.807229 498.121808 
L 578.891566 500.017885 
L 585.253012 501.152981 
L 591.614458 501.991853 
L 597.975904 502.848057 
L 607.518072 504.12141 
L 632.963855 506.993672 
L 648.86747 508.156279 
L 655.228916 508.596419 
L 658.409639 508.844902 
L 667.951807 509.305172 
L 671.13253 509.500638 
L 674.313253 509.529134 
L 693.39759 508.932152 
L 702.939759 508.663707 
L 715.662651 508.226355 
L 728.385542 507.534019 
L 737.927711 507.083599 
L 750.650602 506.40202 
L 757.012048 506.373692 
L 760.192771 506.387915 
L 782.457831 504.51899 
L 788.819277 503.859271 
L 788.819277 503.859271 
" clip-path="url(#p29f6237289)" style="fill: none; stroke: #000000; stroke-width: 1.5; stroke-linecap: square"/>
   </g>
   <g id="line2d_8">
    <path d="M 0 459 
L 6.361446 459.071577 
L 9.542169 457.322734 
L 12.722892 458.4078 
L 15.903614 459.312642 
L 19.084337 459.866811 
L 22.26506 460.538693 
L 25.445783 461.356691 
L 28.626506 461.966861 
L 34.987952 462.313059 
L 41.349398 462.788561 
L 44.53012 462.851231 
L 54.072289 462.525941 
L 73.156627 463.077114 
L 79.518072 463.586306 
L 89.060241 463.708588 
L 92.240964 463.824838 
L 117.686747 466.26765 
L 120.86747 466.661008 
L 130.409639 468.356467 
L 136.771084 469.346811 
L 143.13253 470.577015 
L 149.493976 471.273568 
L 159.036145 471.806858 
L 171.759036 472.239236 
L 178.120482 472.171373 
L 190.843373 472.515794 
L 213.108434 473.812965 
L 216.289157 473.90219 
L 225.831325 473.881963 
L 232.192771 474.173299 
L 238.554217 474.746903 
L 248.096386 475.260911 
L 257.638554 475.926104 
L 264 476.696239 
L 276.722892 478.35282 
L 292.626506 480.136638 
L 305.349398 481.495536 
L 314.891566 482.013135 
L 327.614458 482.414319 
L 333.975904 482.636573 
L 340.337349 483.101086 
L 359.421687 484.739752 
L 365.783133 485.188411 
L 368.963855 485.405736 
L 388.048193 487.27976 
L 400.771084 488.230846 
L 416.674699 489.394051 
L 432.578313 490.181354 
L 438.939759 490.454542 
L 461.204819 490.976477 
L 470.746988 491.24247 
L 493.012048 491.561173 
L 515.277108 492.375112 
L 531.180723 493.060483 
L 543.903614 493.467437 
L 559.807229 494.271546 
L 578.891566 495.667455 
L 585.253012 496.427441 
L 607.518072 498.556147 
L 636.144578 500.968052 
L 661.590361 502.543463 
L 674.313253 503.162308 
L 718.843373 503.273247 
L 728.385542 503.167017 
L 741.108434 503.012532 
L 750.650602 502.880098 
L 763.373494 502.892033 
L 785.638554 502.067861 
L 788.819277 501.920583 
L 788.819277 501.920583 
" clip-path="url(#p29f6237289)" style="fill: none; stroke: #000000; stroke-width: 1.5; stroke-linecap: square"/>
   </g>
   <g id="line2d_9">
    <path d="M 0 459 
L 6.361446 459.071384 
L 9.542169 457.332512 
L 12.722892 458.406395 
L 15.903614 459.306819 
L 19.084337 459.85459 
L 22.26506 460.517536 
L 25.445783 461.323056 
L 28.626506 461.924145 
L 34.987952 462.269977 
L 41.349398 462.738774 
L 44.53012 462.803003 
L 54.072289 462.498543 
L 73.156627 463.033176 
L 79.518072 463.516618 
L 89.060241 463.638616 
L 92.240964 463.749311 
L 117.686747 466.031876 
L 120.86747 466.396467 
L 130.409639 467.957327 
L 136.771084 468.87007 
L 143.13253 469.997061 
L 149.493976 470.64665 
L 162.216867 471.288061 
L 171.759036 471.599783 
L 181.301205 471.639647 
L 194.024096 472.096219 
L 203.566265 472.659539 
L 209.927711 473.051098 
L 222.650602 473.197046 
L 229.012048 473.340374 
L 232.192771 473.481662 
L 238.554217 473.984477 
L 254.457831 474.785044 
L 260.819277 475.346143 
L 279.903614 477.405013 
L 286.26506 477.964955 
L 298.987952 479.286982 
L 305.349398 479.825186 
L 314.891566 480.303775 
L 330.795181 480.793491 
L 337.156627 481.103317 
L 378.506024 484.142511 
L 388.048193 484.904146 
L 403.951807 485.94063 
L 416.674699 486.741718 
L 451.662651 488.065364 
L 512.096386 489.597197 
L 534.361446 490.41466 
L 543.903614 490.718459 
L 559.807229 491.401946 
L 578.891566 492.522079 
L 588.433735 493.344344 
L 642.506024 497.048446 
L 674.313253 498.576173 
L 718.843373 499.127655 
L 744.289157 499.157844 
L 753.831325 499.210605 
L 763.373494 499.290197 
L 788.819277 498.872245 
L 788.819277 498.872245 
" clip-path="url(#p29f6237289)" style="fill: none; stroke: #000000; stroke-width: 1.5; stroke-linecap: square"/>
   </g>
  </g>
 </g>
 <defs>
  <clipPath id="p29f6237289">
   <rect x="0" y="0" width="792" height="612"/>
  </clipPath>
 </defs>
</svg>
