<?xml version="1.0" encoding="utf-8" standalone="no"?>
<!DOCTYPE svg PUBLIC "-//W3C//DTD SVG 1.1//EN"
  "http://www.w3.org/Graphics/SVG/1.1/DTD/svg11.dtd">
<svg xmlns:xlink="http://www.w3.org/1999/xlink" width="792pt" height="612pt" viewBox="0 0 792 612" xmlns="http://www.w3.org/2000/svg" version="1.1">
 <metadata>
  <rdf:RDF xmlns:dc="http://purl.org/dc/elements/1.1/" xmlns:cc="http://creativecommons.org/ns#" xmlns:rdf="http://www.w3.org/1999/02/22-rdf-syntax-ns#">
   <cc:Work>
    <dc:type rdf:resource="http://purl.org/dc/dcmitype/StillImage"/>
    <dc:date>2023-01-16T16:12:05.297515</dc:date>
    <dc:format>image/svg+xml</dc:format>
    <dc:creator>
     <cc:Agent>
      <dc:title>Matplotlib v3.6.2, https://matplotlib.org/</dc:title>
     </cc:Agent>
    </dc:creator>
   </cc:Work>
  </rdf:RDF>
 </metadata>
 <defs>
  <style type="text/css">*{stroke-linejoin: round; stroke-linecap: butt}</style>
 </defs>
 <g id="figure_1">
  <g id="patch_1">
   <path d="M 0 612 
L 792 612 
L 792 0 
L 0 0 
z
" style="fill: #ffffff"/>
  </g>
  <g id="axes_1">
   <g id="line2d_1">
    <path d="M 0 306 
L 3.180723 309.831307 
L 6.361446 310.955538 
L 9.542169 305.541885 
L 12.722892 299.649772 
L 15.903614 307.082813 
L 19.084337 309.102582 
L 22.26506 304.646487 
L 25.445783 303.355493 
L 28.626506 301.502467 
L 31.807229 305.687649 
L 34.987952 304.979657 
L 38.168675 313.078696 
L 41.349398 305.833413 
L 44.53012 306.520585 
L 47.710843 309.352435 
L 50.891566 300.315863 
L 54.072289 308.998475 
L 57.253012 315.658852 
L 60.433735 303.063989 
L 63.614458 297.693501 
L 66.795181 304.105094 
L 69.975904 313.682223 
L 73.156627 305.687649 
L 76.337349 315.908478 
L 79.518072 308.831903 
L 82.698795 305.292005 
L 85.879518 302.605923 
L 89.060241 310.684901 
L 92.240964 315.013928 
L 95.421687 298.796432 
L 98.60241 309.560642 
L 101.783133 311.809033 
L 104.963855 320.025144 
L 108.144578 312.724878 
L 111.325301 294.053438 
L 114.506024 307.915729 
L 117.686747 313.078696 
L 120.86747 316.532483 
L 124.048193 302.189513 
L 127.228916 293.949481 
L 130.409639 301.377555 
L 133.590361 298.02644 
L 136.771084 308.186421 
L 139.951807 299.961995 
L 143.13253 306.187411 
L 146.313253 307.915729 
L 149.493976 302.626744 
L 152.674699 303.688646 
L 155.855422 296.986072 
L 159.036145 307.249398 
L 162.216867 314.285691 
L 165.39759 308.165598 
L 168.578313 304.292498 
L 171.759036 310.247703 
L 174.939759 314.202458 
L 178.120482 303.876046 
L 181.301205 308.56122 
L 184.481928 312.599997 
L 187.662651 305.87506 
L 190.843373 300.898737 
L 194.024096 293.575259 
L 197.204819 309.810487 
L 200.385542 294.718827 
L 203.566265 308.457109 
L 206.746988 306.853758 
L 209.927711 319.297778 
L 213.108434 308.352999 
L 216.289157 321.437852 
L 219.46988 304.500727 
L 222.650602 293.907899 
L 225.831325 310.893084 
L 229.012048 303.126454 
L 232.192771 312.704065 
L 235.373494 299.337562 
L 238.554217 321.458622 
L 241.73494 314.618611 
L 244.915663 312.828944 
L 248.096386 309.581463 
L 251.277108 309.269151 
L 254.457831 306.041647 
L 257.638554 295.363525 
L 260.819277 306.853758 
L 264 299.12943 
L 267.180723 319.588743 
L 270.361446 312.100451 
L 273.542169 302.75167 
L 276.722892 304.688133 
L 279.903614 308.79026 
L 283.084337 304.105094 
L 286.26506 296.133126 
L 289.445783 299.649772 
L 292.626506 300.045257 
L 295.807229 306.353998 
L 298.987952 296.153928 
L 302.168675 311.12208 
L 305.349398 307.499273 
L 308.53012 303.001525 
L 311.710843 304.479904 
L 314.891566 313.911132 
L 318.072289 314.056797 
L 321.253012 314.930706 
L 324.433735 305.416945 
L 327.614458 300.336679 
L 330.795181 319.152287 
L 333.975904 305.541885 
L 337.156627 303.20974 
L 340.337349 313.827894 
L 343.518072 299.587329 
L 346.698795 295.779509 
L 349.879518 311.017992 
L 353.060241 322.060899 
L 356.240964 305.021303 
L 359.421687 308.186421 
L 362.60241 308.123954 
L 365.783133 299.462444 
L 368.963855 306.187411 
L 372.144578 297.880777 
L 375.325301 306.416468 
L 378.506024 311.871481 
L 381.686747 308.811081 
L 384.86747 303.188919 
L 388.048193 309.935407 
L 391.228916 302.91824 
L 394.409639 307.582565 
L 397.590361 295.072359 
L 400.771084 302.002133 
L 403.951807 304.93801 
L 407.13253 311.20535 
L 410.313253 305.666826 
L 413.493976 314.493769 
L 416.674699 300.461578 
L 419.855422 296.902852 
L 423.036145 300.399128 
L 426.216867 307.291044 
L 429.39759 311.267802 
L 432.578313 300.773832 
L 435.759036 305.583532 
L 438.939759 307.270221 
L 442.120482 305.729296 
L 445.301205 314.098415 
L 448.481928 299.691401 
L 451.662651 304.000981 
L 454.843373 301.898034 
L 458.024096 305.479415 
L 461.204819 302.376896 
L 464.385542 308.123954 
L 467.566265 308.144776 
L 470.746988 311.933928 
L 473.927711 311.871481 
L 477.108434 305.292005 
L 480.289157 304.479904 
L 483.46988 302.231154 
L 486.650602 316.282891 
L 489.831325 306.832934 
L 493.012048 306.041647 
L 496.192771 308.936011 
L 499.373494 305.916706 
L 502.554217 307.561742 
L 505.73494 307.228575 
L 508.915663 299.066991 
L 512.096386 305.479415 
L 515.277108 301.335918 
L 518.457831 303.063989 
L 521.638554 319.858903 
L 524.819277 303.334671 
L 528 309.123403 
L 531.180723 308.873546 
L 534.361446 299.566515 
L 537.542169 315.970882 
L 540.722892 311.475972 
L 543.903614 308.582041 
L 547.084337 309.185867 
L 550.26506 307.999019 
L 553.445783 305.521062 
L 556.626506 300.982008 
L 559.807229 313.016259 
L 562.987952 331.367033 
L 566.168675 301.252644 
L 569.349398 299.254308 
L 572.53012 300.87792 
L 575.710843 307.936551 
L 578.891566 312.26697 
L 582.072289 306.978697 
L 585.253012 303.293027 
L 588.433735 304.917187 
L 591.614458 303.813579 
L 594.795181 310.185244 
L 597.975904 300.96119 
L 601.156627 306.603878 
L 604.337349 308.311354 
L 607.518072 309.623104 
L 610.698795 302.52264 
L 613.879518 307.020343 
L 617.060241 298.276156 
L 620.240964 304.604841 
L 623.421687 309.852127 
L 626.60241 299.150243 
L 629.783133 308.394643 
L 632.963855 303.73029 
L 636.144578 313.22438 
L 639.325301 305.791766 
L 642.506024 294.781213 
L 645.686747 310.893084 
L 648.86747 305.354475 
L 652.048193 309.435718 
L 655.228916 290.62446 
L 658.409639 292.265783 
L 661.590361 309.539822 
L 664.771084 301.16937 
L 667.951807 309.08176 
L 671.13253 305.729296 
L 674.313253 305.87506 
L 677.493976 309.310793 
L 680.674699 301.544105 
L 683.855422 304.584018 
L 687.036145 307.436805 
L 690.216867 308.082309 
L 693.39759 303.313849 
L 696.578313 298.838055 
L 699.759036 303.043168 
L 702.939759 303.73029 
L 706.120482 311.371888 
L 709.301205 309.519001 
L 712.481928 305.167066 
L 715.662651 299.691401 
L 718.843373 310.039507 
L 722.024096 300.482395 
L 725.204819 304.375789 
L 728.385542 308.915189 
L 731.566265 312.121266 
L 734.746988 311.330254 
L 737.927711 312.038005 
L 741.108434 305.666826 
L 744.289157 279.888629 
L 747.46988 305.021303 
L 750.650602 303.272206 
L 753.831325 311.371888 
L 757.012048 301.06528 
L 760.192771 306.707995 
L 763.373494 302.376896 
L 766.554217 300.87792 
L 769.73494 307.228575 
L 772.915663 297.859968 
L 776.096386 305.333652 
L 779.277108 303.938514 
L 782.457831 301.627382 
L 785.638554 306.104117 
L 788.819277 304.000981 
L 788.819277 304.000981 
" clip-path="url(#pce07e95cc7)" style="fill: none; stroke: #000000; stroke-width: 1.5; stroke-linecap: square"/>
   </g>
   <g id="line2d_2">
    <path d="M 0 306 
L 3.180723 306 
L 6.361446 308.554279 
L 9.542169 309.926485 
L 12.722892 307.588118 
L 15.903614 303.4905 
L 22.26506 307.22382 
L 28.626506 304.637586 
L 31.807229 303.053619 
L 34.987952 304.360274 
L 38.168675 304.668862 
L 41.349398 308.900655 
L 44.53012 307.364618 
L 47.710843 306.93754 
L 50.891566 308.154248 
L 54.072289 304.228805 
L 57.253012 306.628376 
L 60.433735 311.164287 
L 63.614458 307.110577 
L 66.795181 302.371017 
L 69.975904 303.234645 
L 73.156627 308.473196 
L 76.337349 307.073259 
L 79.518072 311.522585 
L 82.698795 310.176998 
L 89.060241 305.159145 
L 92.240964 307.947657 
L 95.421687 311.502911 
L 98.60241 305.120111 
L 104.963855 309.570685 
L 108.144578 314.822433 
L 111.325301 313.788314 
L 114.506024 303.901931 
L 117.686747 305.903396 
L 124.048193 313.045804 
L 127.228916 307.603714 
L 130.409639 300.738974 
L 133.590361 301.021685 
L 136.771084 299.495094 
L 139.951807 303.868044 
L 143.13253 301.899259 
L 146.313253 304.029724 
L 149.493976 305.955822 
L 152.674699 304.29209 
L 155.855422 304.009473 
L 159.036145 300.488436 
L 162.216867 303.886743 
L 165.39759 309.099071 
L 168.578313 308.648427 
L 171.759036 306.466771 
L 174.939759 308.361899 
L 178.120482 311.305355 
L 181.301205 307.591302 
L 184.481928 308.098967 
L 187.662651 310.360208 
L 190.843373 308.101253 
L 194.024096 304.485538 
L 197.204819 299.007165 
L 200.385542 304.407473 
L 203.566265 299.523336 
L 206.746988 303.998776 
L 209.927711 305.422906 
L 213.108434 312.376756 
L 216.289157 310.369924 
L 219.46988 315.947389 
L 222.650602 310.246968 
L 225.831325 302.043446 
L 229.012048 306.500088 
L 232.192771 304.802783 
L 235.373494 308.765355 
L 238.554217 304.011842 
L 241.73494 312.766423 
L 244.915663 313.679204 
L 248.096386 313.270411 
L 251.277108 311.45687 
L 254.457831 310.359882 
L 257.638554 308.20659 
L 260.819277 301.749195 
L 264 304.316097 
L 267.180723 301.678654 
L 270.361446 310.647428 
L 273.542169 311.372541 
L 276.722892 307.048924 
L 279.903614 305.859544 
L 283.084337 307.330322 
L 286.26506 305.734849 
L 289.445783 300.911718 
L 292.626506 300.281741 
L 295.807229 300.125172 
L 298.987952 303.228031 
L 302.168675 299.677198 
L 305.349398 305.412046 
L 308.53012 306.453133 
L 311.710843 304.725125 
L 314.891566 304.618887 
L 318.072289 309.293728 
L 321.253012 311.703075 
L 324.433735 313.333907 
L 327.614458 309.394158 
L 330.795181 304.84402 
L 333.975904 312.024291 
L 337.156627 308.788381 
L 340.337349 305.99657 
L 343.518072 309.91271 
L 346.698795 304.721287 
L 349.879518 300.211619 
L 353.060241 305.625669 
L 356.240964 313.891547 
L 359.421687 309.429431 
L 362.60241 308.813123 
L 365.783133 308.478177 
L 368.963855 303.941698 
L 372.144578 305.077485 
L 375.325301 301.482628 
L 378.506024 303.940392 
L 381.686747 307.88625 
L 384.86747 308.356102 
L 388.048193 305.762695 
L 391.228916 307.852689 
L 394.409639 305.392202 
L 397.590361 306.490125 
L 400.771084 300.773914 
L 403.951807 301.379351 
L 407.13253 303.144989 
L 410.313253 307.180069 
L 413.493976 306.428309 
L 416.674699 310.470754 
L 419.855422 305.461205 
L 423.036145 301.160145 
L 426.216867 300.790078 
L 429.39759 304.05071 
L 432.578313 307.671899 
L 435.759036 304.202185 
L 438.939759 304.892689 
L 442.120482 306.067288 
L 445.301205 305.908622 
L 448.481928 310.037955 
L 451.662651 304.862965 
L 454.843373 304.425519 
L 458.024096 303.143356 
L 461.204819 304.320588 
L 464.385542 303.342428 
L 467.566265 305.734849 
L 470.746988 306.944563 
L 473.927711 309.435228 
L 477.108434 310.677308 
L 480.289157 307.987342 
L 483.46988 306.238693 
L 486.650602 304.228478 
L 489.831325 310.284606 
L 493.012048 308.55632 
L 496.192771 307.294882 
L 499.373494 308.109582 
L 502.554217 307.00148 
L 505.73494 307.286063 
L 508.915663 307.262708 
L 512.096386 303.158135 
L 515.277108 304.297561 
L 518.457831 302.805887 
L 521.638554 302.929099 
L 524.819277 311.419563 
L 528 307.372294 
L 531.180723 308.250929 
L 534.361446 308.565466 
L 537.542169 304.066552 
L 540.722892 310.040813 
L 543.903614 310.778298 
L 547.084337 309.691036 
L 550.26506 309.41751 
L 553.445783 308.717424 
L 556.626506 307.11221 
L 559.807229 304.031439 
L 562.987952 308.550768 
L 566.168675 320.008602 
L 569.349398 310.614934 
L 572.53012 304.915962 
L 575.710843 302.880516 
L 578.891566 305.408371 
L 582.072289 308.851255 
L 585.253012 307.926752 
L 588.433735 305.5908 
L 591.614458 305.202016 
L 594.795181 304.512812 
L 597.975904 307.370579 
L 601.156627 304.165847 
L 604.337349 305.38224 
L 610.698795 308.236313 
L 613.879518 305.377912 
L 617.060241 306.203253 
L 620.240964 302.228214 
L 623.421687 303.405547 
L 626.60241 306.646341 
L 629.783133 302.883211 
L 632.963855 305.639061 
L 636.144578 304.673108 
L 639.325301 308.970305 
L 642.506024 307.378664 
L 645.686747 301.070995 
L 648.86747 305.994365 
L 652.048193 305.665601 
L 655.228916 307.570888 
L 658.409639 299.057524 
L 661.590361 295.637907 
L 664.771084 302.579877 
L 667.951807 301.865539 
L 671.13253 305.501627 
L 677.493976 305.741218 
L 680.674699 307.525812 
L 683.855422 304.556254 
L 687.036145 304.594307 
L 690.216867 306.011432 
L 693.39759 307.060438 
L 696.578313 305.175803 
L 699.759036 301.992988 
L 706.120482 303.11045 
L 709.301205 307.260667 
L 712.481928 308.399543 
L 715.662651 306.778875 
L 718.843373 303.218314 
L 722.024096 306.642177 
L 725.204819 303.565264 
L 728.385542 303.973136 
L 731.566265 306.454358 
L 734.746988 309.289564 
L 737.927711 310.313508 
L 741.108434 311.189268 
L 744.289157 308.439962 
L 747.46988 294.079285 
L 750.650602 299.557128 
L 753.831325 301.412334 
L 757.012048 306.397033 
L 760.192771 303.709304 
L 763.373494 305.199566 
L 769.73494 302.314108 
L 772.915663 304.824994 
L 776.096386 301.327835 
L 779.277108 303.334671 
L 782.457831 303.622015 
L 785.638554 302.625765 
L 788.819277 304.363704 
L 788.819277 304.363704 
" clip-path="url(#pce07e95cc7)" style="fill: none; stroke: #000000; stroke-width: 1.5; stroke-linecap: square"/>
   </g>
   <g id="line2d_3">
    <path d="M 0 306 
L 3.180723 306 
L 6.361446 308.244405 
L 9.542169 309.472839 
L 12.722892 307.937771 
L 15.903614 304.988694 
L 19.084337 305.689668 
L 22.26506 306.786241 
L 25.445783 306.117739 
L 28.626506 305.271269 
L 31.807229 304.131728 
L 34.987952 304.597738 
L 38.168675 304.711375 
L 41.349398 307.189849 
L 44.53012 306.789432 
L 47.710843 306.710251 
L 50.891566 307.487192 
L 54.072289 305.380047 
L 57.253012 306.43893 
L 60.433735 309.145618 
L 63.614458 307.361547 
L 66.795181 304.527013 
L 69.975904 304.400015 
L 73.156627 307.124431 
L 76.337349 306.704805 
L 79.518072 309.415795 
L 82.698795 309.253197 
L 85.879518 308.09259 
L 89.060241 306.482838 
L 92.240964 307.710933 
L 95.421687 309.86105 
L 98.60241 306.611179 
L 101.783133 307.475332 
L 104.963855 308.757984 
L 108.144578 312.072871 
L 111.325301 312.260474 
L 114.506024 306.916236 
L 117.686747 307.220727 
L 120.86747 308.947079 
L 124.048193 311.172859 
L 127.228916 308.537913 
L 130.409639 304.238061 
L 133.590361 303.391622 
L 136.771084 301.811537 
L 139.951807 303.684978 
L 143.13253 302.582105 
L 146.313253 303.62788 
L 149.493976 304.894217 
L 152.674699 304.222101 
L 155.855422 304.056527 
L 159.036145 301.958614 
L 162.216867 303.50185 
L 165.39759 306.684165 
L 168.578313 307.11836 
L 171.759036 306.280589 
L 174.939759 307.435376 
L 178.120482 309.431648 
L 181.301205 307.815929 
L 184.481928 308.042474 
L 187.662651 309.394266 
L 190.843373 308.360911 
L 194.024096 306.176262 
L 197.204819 302.469174 
L 200.385542 304.621528 
L 203.566265 301.710781 
L 206.746988 303.692073 
L 209.927711 304.629425 
L 213.108434 308.941892 
L 216.289157 308.762595 
L 219.46988 312.493272 
L 222.650602 310.152979 
L 225.831325 305.374466 
L 229.012048 306.987147 
L 232.192771 305.855493 
L 235.373494 307.866444 
L 238.554217 305.352866 
L 241.73494 310.09166 
L 244.915663 311.433604 
L 248.096386 311.864432 
L 251.277108 311.195559 
L 254.457831 310.648078 
L 257.638554 309.296236 
L 260.819277 305.201073 
L 264 305.67083 
L 267.180723 303.744005 
L 270.361446 308.385235 
L 273.542169 309.482247 
L 276.722892 307.52113 
L 279.903614 306.684242 
L 283.084337 307.307601 
L 286.26506 306.359729 
L 289.445783 303.359806 
L 292.626506 302.247971 
L 295.807229 301.586022 
L 298.987952 302.974973 
L 302.168675 300.961098 
L 305.349398 303.939159 
L 308.53012 304.983552 
L 311.710843 304.411791 
L 314.891566 304.429014 
L 318.072289 307.223744 
L 321.253012 309.219168 
L 324.433735 310.895701 
L 327.614458 309.29424 
L 330.795181 306.665532 
L 333.975904 310.336814 
L 337.156627 308.934177 
L 340.337349 307.265694 
L 343.518072 309.204394 
L 346.698795 306.386903 
L 349.879518 303.266878 
L 353.060241 305.554284 
L 356.240964 310.405563 
L 359.421687 308.825837 
L 365.783133 308.496232 
L 368.963855 305.833446 
L 372.144578 305.928079 
L 375.325301 303.550984 
L 378.506024 304.391391 
L 381.686747 306.595709 
L 384.86747 307.232706 
L 388.048193 306.045587 
L 391.228916 307.192672 
L 394.409639 305.928161 
L 397.590361 306.421913 
L 400.771084 303.095618 
L 403.951807 302.764979 
L 407.13253 303.381739 
L 410.313253 305.680427 
L 413.493976 305.673549 
L 416.674699 308.264848 
L 419.855422 305.980323 
L 423.036145 303.31021 
L 426.216867 302.460394 
L 429.39759 303.876188 
L 432.578313 306.040576 
L 435.759036 304.488614 
L 438.939759 304.812056 
L 442.120482 305.528972 
L 445.301205 305.590875 
L 448.481928 308.090683 
L 451.662651 305.635661 
L 454.843373 305.159164 
L 458.024096 304.200457 
L 461.204819 304.568473 
L 464.385542 303.922771 
L 467.566265 305.14594 
L 470.746988 306.033113 
L 473.927711 307.778888 
L 477.108434 308.990889 
L 483.46988 306.894209 
L 486.650602 305.530052 
L 489.831325 308.692844 
L 496.192771 307.531152 
L 499.373494 307.936704 
L 502.554217 307.352221 
L 505.73494 307.417678 
L 508.915663 307.368414 
L 512.096386 304.92928 
L 515.277108 305.093974 
L 518.457831 303.985389 
L 521.638554 303.709677 
L 524.819277 308.451485 
L 528 306.943013 
L 531.180723 307.586055 
L 534.361446 307.968207 
L 537.542169 305.504088 
L 540.722892 308.570356 
L 543.903614 309.426796 
L 547.084337 309.182295 
L 550.26506 309.183628 
L 553.445783 308.839064 
L 556.626506 307.864934 
L 559.807229 305.841681 
L 562.987952 307.959425 
L 566.168675 314.859788 
L 569.349398 310.875479 
L 572.53012 307.467301 
L 575.710843 305.515371 
L 578.891566 306.229811 
L 582.072289 308.001894 
L 585.253012 307.700034 
L 588.433735 306.413524 
L 591.614458 305.962556 
L 594.795181 305.324323 
L 597.975904 306.74997 
L 601.156627 305.044899 
L 604.337349 305.499909 
L 607.518072 306.32658 
L 610.698795 307.302077 
L 613.879518 305.89012 
L 617.060241 306.193124 
L 620.240964 303.870431 
L 623.421687 304.091679 
L 626.60241 305.789226 
L 629.783133 303.834321 
L 632.963855 305.16555 
L 636.144578 304.741435 
L 639.325301 307.237822 
L 642.506024 306.815289 
L 645.686747 303.278809 
L 648.86747 305.509864 
L 652.048193 305.469398 
L 655.228916 306.6344 
L 658.409639 301.921314 
L 661.590361 299.071636 
L 664.771084 302.14517 
L 667.951807 301.852636 
L 671.13253 303.982291 
L 674.313253 304.49526 
L 677.493976 304.894822 
L 680.674699 306.199936 
L 683.855422 304.828319 
L 687.036145 304.757746 
L 693.39759 306.284276 
L 696.578313 305.424045 
L 699.759036 303.480878 
L 702.939759 303.35002 
L 706.120482 303.454845 
L 709.301205 305.797659 
L 712.481928 306.907486 
L 715.662651 306.392707 
L 718.843373 304.427994 
L 722.024096 306.072727 
L 725.204819 304.429168 
L 728.385542 304.411812 
L 731.566265 305.730382 
L 734.746988 307.614603 
L 741.108434 309.690659 
L 744.289157 308.509401 
L 747.46988 300.081726 
L 750.650602 301.535392 
L 753.831325 302.044331 
L 757.012048 304.785099 
L 760.192771 303.683665 
L 763.373494 304.566221 
L 766.554217 303.921753 
L 769.73494 303.031528 
L 772.915663 304.257541 
L 776.096386 302.380314 
L 779.277108 303.246382 
L 782.457831 303.443384 
L 785.638554 302.899411 
L 788.819277 303.832006 
L 788.819277 303.832006 
" clip-path="url(#pce07e95cc7)" style="fill: none; stroke: #000000; stroke-width: 1.5; stroke-linecap: square"/>
   </g>
   <g id="line2d_4">
    <path d="M 0 306 
L 3.180723 306 
L 6.361446 308.081295 
L 9.542169 309.209404 
L 12.722892 308.042423 
L 15.903614 305.738172 
L 19.084337 306.069116 
L 22.26506 306.75597 
L 25.445783 306.308468 
L 28.626506 305.713566 
L 31.807229 304.899633 
L 34.987952 305.0469 
L 38.168675 305.034673 
L 41.349398 306.465054 
L 44.53012 306.354814 
L 47.710843 306.383306 
L 50.891566 306.887219 
L 54.072289 305.783588 
L 57.253012 306.318755 
L 60.433735 307.862662 
L 63.614458 307.074548 
L 66.795181 305.54138 
L 69.975904 305.307695 
L 73.156627 306.665599 
L 76.337349 306.507534 
L 79.518072 308.023702 
L 82.698795 308.153728 
L 85.879518 307.69416 
L 89.060241 306.878219 
L 92.240964 307.48793 
L 95.421687 308.692352 
L 98.60241 307.110368 
L 101.783133 307.501762 
L 104.963855 308.190773 
L 108.144578 310.081384 
L 111.325301 310.503129 
L 114.506024 307.878035 
L 117.686747 307.88919 
L 120.86747 308.718751 
L 124.048193 309.967082 
L 127.228916 308.728193 
L 130.409639 306.370043 
L 133.590361 305.575587 
L 136.771084 304.369437 
L 139.951807 304.97873 
L 143.13253 304.172258 
L 146.313253 304.493091 
L 149.493976 305.038512 
L 152.674699 304.650579 
L 155.855422 304.499635 
L 159.036145 303.296349 
L 162.216867 303.920018 
L 165.39759 305.576532 
L 168.578313 305.995003 
L 171.759036 305.724242 
L 174.939759 306.44184 
L 178.120482 307.682192 
L 181.301205 307.069116 
L 184.481928 307.306351 
L 187.662651 308.153283 
L 190.843373 307.792859 
L 194.024096 306.689814 
L 197.204819 304.588783 
L 200.385542 305.426471 
L 203.566265 303.712811 
L 206.746988 304.46554 
L 209.927711 304.837285 
L 213.108434 307.14343 
L 216.289157 307.344806 
L 219.46988 309.597434 
L 222.650602 308.781237 
L 225.831325 306.399775 
L 229.012048 307.120169 
L 232.192771 306.490475 
L 235.373494 307.486306 
L 238.554217 306.190473 
L 241.73494 308.63001 
L 244.915663 309.592217 
L 248.096386 310.111408 
L 254.457831 309.911523 
L 257.638554 309.297331 
L 260.819277 307.07882 
L 264 307.042765 
L 267.180723 305.774086 
L 270.361446 307.980576 
L 273.542169 308.641021 
L 276.722892 307.699345 
L 279.903614 307.21432 
L 283.084337 307.46813 
L 286.26506 306.930282 
L 289.445783 305.201598 
L 292.626506 304.314268 
L 295.807229 303.634434 
L 298.987952 304.075089 
L 302.168675 302.805835 
L 305.349398 304.139219 
L 308.53012 304.673209 
L 311.710843 304.404827 
L 314.891566 304.407521 
L 318.072289 305.923317 
L 324.433735 308.447832 
L 327.614458 307.972808 
L 330.795181 306.751204 
L 333.975904 308.735483 
L 337.156627 308.222923 
L 340.337349 307.427735 
L 343.518072 308.441483 
L 346.698795 307.023265 
L 349.879518 305.223102 
L 353.060241 306.146057 
L 356.240964 308.688437 
L 359.421687 308.104371 
L 365.783133 308.125986 
L 368.963855 306.747662 
L 372.144578 306.650157 
L 375.325301 305.245743 
L 378.506024 305.434295 
L 381.686747 306.463071 
L 384.86747 306.836671 
L 388.048193 306.255718 
L 391.228916 306.849816 
L 394.409639 306.226314 
L 397.590361 306.446803 
L 400.771084 304.629316 
L 403.951807 304.214949 
L 407.13253 304.326131 
L 410.313253 305.423019 
L 413.493976 305.463472 
L 416.674699 306.906818 
L 419.855422 305.87287 
L 423.036145 304.434589 
L 426.216867 303.783392 
L 429.39759 304.342626 
L 432.578313 305.451337 
L 435.759036 304.695584 
L 438.939759 304.836884 
L 442.120482 305.226569 
L 445.301205 305.3015 
L 448.481928 306.710475 
L 451.662651 305.596017 
L 454.843373 305.337859 
L 458.024096 304.777947 
L 461.204819 304.889838 
L 464.385542 304.486377 
L 470.746988 305.560531 
L 473.927711 306.578264 
L 477.108434 307.42927 
L 483.46988 306.668873 
L 486.650602 305.958681 
L 489.831325 307.610073 
L 496.192771 307.256883 
L 499.373494 307.52489 
L 502.554217 307.275795 
L 508.915663 307.310885 
L 512.096386 305.991495 
L 515.277108 305.909904 
L 518.457831 305.1739 
L 521.638554 304.839819 
L 524.819277 307.245238 
L 528 306.624879 
L 534.361446 307.316414 
L 537.542169 306.08248 
L 540.722892 307.662789 
L 543.903614 308.272169 
L 553.445783 308.389682 
L 556.626506 307.934238 
L 559.807229 306.82749 
L 562.987952 307.817024 
L 566.168675 311.590719 
L 572.53012 308.235847 
L 575.710843 307.058228 
L 578.891566 307.195519 
L 582.072289 308.006873 
L 585.253012 307.844848 
L 588.433735 307.121302 
L 591.614458 306.763528 
L 594.795181 306.292292 
L 597.975904 306.914299 
L 601.156627 305.962092 
L 604.337349 306.064631 
L 607.518072 306.422567 
L 610.698795 306.933302 
L 613.879518 306.233686 
L 617.060241 306.359808 
L 620.240964 305.071502 
L 623.421687 304.998215 
L 626.60241 305.76427 
L 629.783133 304.709169 
L 632.963855 305.295089 
L 636.144578 305.04291 
L 639.325301 306.353345 
L 642.506024 306.257643 
L 645.686747 304.420495 
L 648.86747 305.451805 
L 652.048193 305.433929 
L 655.228916 306.071547 
L 658.409639 303.602544 
L 661.590361 301.792136 
L 664.771084 303.022547 
L 667.951807 302.708806 
L 671.13253 303.727603 
L 677.493976 304.343579 
L 680.674699 305.134747 
L 683.855422 304.556731 
L 687.036145 304.559578 
L 693.39759 305.509149 
L 696.578313 305.159548 
L 699.759036 304.146508 
L 702.939759 303.972257 
L 706.120482 303.931967 
L 709.301205 305.117658 
L 712.481928 305.817885 
L 715.662651 305.715987 
L 718.843373 304.752745 
L 722.024096 305.601261 
L 725.204819 304.784169 
L 728.385542 304.715777 
L 731.566265 305.390021 
L 734.746988 306.46344 
L 741.108434 308.004918 
L 744.289157 307.63285 
L 747.46988 303.19928 
L 750.650602 303.485497 
L 753.831325 303.450262 
L 757.012048 304.711875 
L 760.192771 304.13816 
L 763.373494 304.556038 
L 766.554217 304.204844 
L 769.73494 303.675288 
L 772.915663 304.239455 
L 776.096386 303.219299 
L 779.277108 303.55535 
L 782.457831 303.61296 
L 785.638554 303.297082 
L 788.819277 303.744621 
L 788.819277 303.744621 
" clip-path="url(#pce07e95cc7)" style="fill: none; stroke: #000000; stroke-width: 1.5; stroke-linecap: square"/>
   </g>
   <g id="line2d_5">
    <path d="M 0 306 
L 3.180723 306 
L 6.361446 307.998667 
L 9.542169 309.070885 
L 12.722892 308.070929 
L 15.903614 306.082793 
L 19.084337 306.287526 
L 22.26506 306.801321 
L 25.445783 306.443636 
L 28.626506 305.970303 
L 31.807229 305.330432 
L 38.168675 305.327452 
L 41.349398 306.279562 
L 47.710843 306.260381 
L 50.891566 306.602566 
L 54.072289 305.92553 
L 57.253012 306.24847 
L 60.433735 307.216336 
L 63.614458 306.797699 
L 66.795181 305.895701 
L 69.975904 305.721137 
L 73.156627 306.486312 
L 76.337349 306.410557 
L 79.518072 307.301219 
L 82.698795 307.443186 
L 85.879518 307.245604 
L 89.060241 306.823185 
L 92.240964 307.17199 
L 95.421687 307.875314 
L 98.60241 307.066589 
L 101.783133 307.287395 
L 104.963855 307.68554 
L 108.144578 308.767289 
L 111.325301 309.112441 
L 114.506024 307.804364 
L 117.686747 307.813998 
L 120.86747 308.267898 
L 124.048193 308.978327 
L 127.228916 308.396727 
L 130.409639 307.161796 
L 133.590361 306.668746 
L 136.771084 305.933606 
L 139.951807 306.124808 
L 143.13253 305.602675 
L 146.313253 305.652124 
L 149.493976 305.843253 
L 152.674699 305.572047 
L 155.855422 305.413457 
L 159.036145 304.704493 
L 162.216867 304.918284 
L 165.39759 305.704593 
L 168.578313 305.91094 
L 171.759036 305.775355 
L 174.939759 306.149754 
L 178.120482 306.823521 
L 181.301205 306.577125 
L 184.481928 306.74289 
L 187.662651 307.232033 
L 190.843373 307.118785 
L 194.024096 306.599882 
L 197.204819 305.513277 
L 200.385542 305.87147 
L 203.566265 304.941794 
L 206.746988 305.234353 
L 209.927711 305.367787 
L 213.108434 306.527332 
L 216.289157 306.679773 
L 219.46988 307.912795 
L 222.650602 307.628773 
L 225.831325 306.484539 
L 229.012048 306.852497 
L 232.192771 306.54317 
L 235.373494 307.058231 
L 238.554217 306.415296 
L 241.73494 307.670276 
L 244.915663 308.247625 
L 248.096386 308.6302 
L 254.457831 308.756518 
L 257.638554 308.533069 
L 260.819277 307.435297 
L 264 307.384165 
L 267.180723 306.697686 
L 270.361446 307.775445 
L 273.542169 308.137056 
L 276.722892 307.686538 
L 279.903614 307.437361 
L 283.084337 307.547331 
L 286.26506 307.260104 
L 289.445783 306.33335 
L 295.807229 305.298316 
L 298.987952 305.383114 
L 302.168675 304.615994 
L 305.349398 305.156515 
L 308.53012 305.349551 
L 311.710843 305.149124 
L 314.891566 305.090897 
L 324.433735 307.213848 
L 327.614458 307.061095 
L 330.795181 306.502342 
L 333.975904 307.561104 
L 337.156627 307.394875 
L 340.337349 307.049212 
L 343.518072 307.613782 
L 346.698795 306.94743 
L 349.879518 306.016836 
L 353.060241 306.432959 
L 356.240964 307.737552 
L 359.421687 307.512553 
L 365.783133 307.618212 
L 368.963855 306.936419 
L 372.144578 306.873611 
L 375.325301 306.124999 
L 378.506024 306.147942 
L 381.686747 306.622273 
L 384.86747 306.805547 
L 388.048193 306.503627 
L 391.228916 306.787601 
L 394.409639 306.465489 
L 397.590361 306.560379 
L 400.771084 305.607022 
L 403.951807 305.305272 
L 407.13253 305.278118 
L 410.313253 305.77099 
L 413.493976 305.761958 
L 416.674699 306.485278 
L 419.855422 305.982717 
L 423.036145 305.220913 
L 426.216867 304.819342 
L 429.39759 305.028839 
L 432.578313 305.546811 
L 435.759036 305.149867 
L 438.939759 305.183541 
L 442.120482 305.359309 
L 445.301205 305.384893 
L 448.481928 306.108067 
L 451.662651 305.571159 
L 454.843373 305.439022 
L 458.024096 305.142716 
L 461.204819 305.170478 
L 464.385542 304.940894 
L 470.746988 305.452375 
L 477.108434 306.476184 
L 483.46988 306.221066 
L 486.650602 305.887768 
L 489.831325 306.754806 
L 508.915663 306.906981 
L 512.096386 306.253452 
L 515.277108 306.190017 
L 518.457831 305.786093 
L 521.638554 305.556631 
L 524.819277 306.746338 
L 528 306.459404 
L 534.361446 306.866417 
L 537.542169 306.254101 
L 540.722892 307.064238 
L 543.903614 307.433127 
L 553.445783 307.699088 
L 556.626506 307.516535 
L 559.807229 306.967301 
L 562.987952 307.472036 
L 566.168675 309.467493 
L 575.710843 307.400253 
L 578.891566 307.448038 
L 582.072289 307.849954 
L 585.253012 307.776051 
L 588.433735 307.402185 
L 594.795181 306.913743 
L 597.975904 307.187648 
L 601.156627 306.668689 
L 604.337349 306.667065 
L 610.698795 307.040969 
L 613.879518 306.66313 
L 617.060241 306.693218 
L 620.240964 305.989221 
L 623.421687 305.875671 
L 626.60241 306.209933 
L 629.783133 305.623506 
L 632.963855 305.853862 
L 636.144578 305.675158 
L 639.325301 306.305877 
L 642.506024 306.263276 
L 645.686747 305.305828 
L 648.86747 305.771262 
L 652.048193 305.733824 
L 655.228916 306.04425 
L 658.409639 304.759043 
L 661.590361 303.718285 
L 664.771084 304.202765 
L 667.951807 303.950591 
L 671.13253 304.376765 
L 677.493976 304.601359 
L 680.674699 304.991395 
L 683.855422 304.704042 
L 687.036145 304.694114 
L 693.39759 305.182943 
L 696.578313 305.026666 
L 699.759036 304.510591 
L 706.120482 304.331673 
L 709.301205 304.917258 
L 712.481928 305.299939 
L 715.662651 305.290897 
L 718.843373 304.824208 
L 722.024096 305.259905 
L 725.204819 304.862505 
L 728.385542 304.817067 
L 731.566265 305.159015 
L 734.746988 305.737895 
L 741.108434 306.691298 
L 744.289157 306.602916 
L 747.46988 304.37017 
L 750.650602 304.423052 
L 753.831325 304.325609 
L 757.012048 304.911555 
L 760.192771 304.59085 
L 763.373494 304.768426 
L 766.554217 304.566465 
L 769.73494 304.250358 
L 772.915663 304.499478 
L 776.096386 303.947832 
L 779.277108 304.064297 
L 782.457831 304.052557 
L 785.638554 303.8478 
L 788.819277 304.034775 
L 788.819277 304.034775 
" clip-path="url(#pce07e95cc7)" style="fill: none; stroke: #000000; stroke-width: 1.5; stroke-linecap: square"/>
   </g>
   <g id="line2d_6">
    <path d="M 0 306 
L 3.180723 306 
L 6.361446 307.957217 
L 9.542169 309.000326 
L 12.722892 308.078785 
L 15.903614 306.243677 
L 19.084337 306.399105 
L 22.26506 306.837287 
L 28.626506 306.1046 
L 31.807229 305.549595 
L 38.168675 305.503816 
L 41.349398 306.24975 
L 47.710843 306.238407 
L 50.891566 306.502467 
L 54.072289 305.999167 
L 57.253012 306.234006 
L 60.433735 306.946594 
L 63.614458 306.66256 
L 66.795181 306.025869 
L 69.975904 305.893334 
L 73.156627 306.416947 
L 76.337349 306.369117 
L 79.518072 306.980789 
L 82.698795 307.096925 
L 85.879518 306.985949 
L 89.060241 306.721677 
L 92.240964 306.956602 
L 95.421687 307.426387 
L 98.60241 306.931168 
L 101.783133 307.079817 
L 104.963855 307.343463 
L 108.144578 308.041566 
L 111.325301 308.296017 
L 114.506024 307.53115 
L 117.686747 307.551564 
L 120.86747 307.841915 
L 124.048193 308.293978 
L 127.228916 307.979595 
L 130.409639 307.263252 
L 133.590361 306.965427 
L 136.771084 306.516714 
L 139.951807 306.599866 
L 143.13253 306.271695 
L 152.674699 306.167616 
L 155.855422 306.048222 
L 159.036145 305.614151 
L 162.216867 305.692029 
L 165.39759 306.099263 
L 168.578313 306.196675 
L 171.759036 306.107332 
L 174.939759 306.300733 
L 178.120482 306.668312 
L 181.301205 306.538982 
L 184.481928 306.632282 
L 187.662651 306.906629 
L 190.843373 306.859383 
L 194.024096 306.587286 
L 197.204819 305.994958 
L 200.385542 306.168028 
L 203.566265 305.650028 
L 209.927711 305.825061 
L 213.108434 306.429806 
L 216.289157 306.515867 
L 219.46988 307.182618 
L 222.650602 307.063158 
L 225.831325 306.478156 
L 229.012048 306.674007 
L 232.192771 306.516953 
L 235.373494 306.790392 
L 238.554217 306.461614 
L 241.73494 307.122554 
L 248.096386 307.688226 
L 254.457831 307.836764 
L 257.638554 307.75831 
L 260.819277 307.217134 
L 264 307.201293 
L 267.180723 306.849791 
L 270.361446 307.404203 
L 273.542169 307.608255 
L 279.903614 307.280025 
L 283.084337 307.34544 
L 286.26506 307.20522 
L 289.445783 306.726367 
L 295.807229 306.145401 
L 298.987952 306.154398 
L 302.168675 305.723231 
L 305.349398 305.955779 
L 308.53012 306.022212 
L 314.891566 305.831566 
L 324.433735 306.878255 
L 327.614458 306.815577 
L 330.795181 306.537798 
L 333.975904 307.078673 
L 340.337349 306.850031 
L 343.518072 307.148714 
L 346.698795 306.825221 
L 349.879518 306.352734 
L 353.060241 306.552172 
L 356.240964 307.215494 
L 359.421687 307.121767 
L 365.783133 307.208074 
L 368.963855 306.877474 
L 372.144578 306.848033 
L 375.325301 306.465467 
L 378.506024 306.463377 
L 381.686747 306.693966 
L 384.86747 306.784205 
L 388.048193 306.630998 
L 391.228916 306.771786 
L 394.409639 306.607642 
L 397.590361 306.649161 
L 400.771084 306.156045 
L 403.951807 305.979202 
L 407.13253 305.934886 
L 410.313253 306.159223 
L 413.493976 306.137654 
L 416.674699 306.492607 
L 419.855422 306.236041 
L 423.036145 305.839774 
L 426.216867 305.607971 
L 429.39759 305.679026 
L 432.578313 305.917095 
L 435.759036 305.698587 
L 445.301205 305.760222 
L 448.481928 306.113984 
L 451.662651 305.840628 
L 464.385542 305.455542 
L 470.746988 305.67754 
L 477.108434 306.197767 
L 483.46988 306.086624 
L 486.650602 305.920882 
L 489.831325 306.361601 
L 508.915663 306.530371 
L 512.096386 306.211779 
L 515.277108 306.178309 
L 521.638554 305.849342 
L 524.819277 306.445691 
L 528 306.312171 
L 534.361446 306.534837 
L 537.542169 306.240298 
L 540.722892 306.655419 
L 543.903614 306.862054 
L 553.445783 307.073309 
L 556.626506 307.007101 
L 559.807229 306.751366 
L 562.987952 307.018578 
L 566.168675 308.059045 
L 575.710843 307.127927 
L 578.891566 307.162817 
L 582.072289 307.379585 
L 585.253012 307.361387 
L 594.795181 306.95144 
L 597.975904 307.089269 
L 601.156627 306.829452 
L 607.518072 306.884949 
L 610.698795 307.003522 
L 613.879518 306.812556 
L 617.060241 306.821393 
L 620.240964 306.455539 
L 623.421687 306.376452 
L 626.60241 306.521889 
L 629.783133 306.208417 
L 632.963855 306.303518 
L 636.144578 306.193229 
L 639.325301 306.493062 
L 642.506024 306.46218 
L 645.686747 305.965974 
L 648.86747 306.173126 
L 652.048193 306.136878 
L 655.228916 306.276179 
L 661.590361 305.039973 
L 664.771084 305.231339 
L 667.951807 305.060075 
L 671.13253 305.230955 
L 677.493976 305.277265 
L 680.674699 305.447814 
L 683.855422 305.282096 
L 687.036145 305.252482 
L 693.39759 305.461586 
L 696.578313 305.371721 
L 699.759036 305.094526 
L 706.120482 304.953441 
L 712.481928 305.409773 
L 715.662651 305.399095 
L 718.843373 305.156521 
L 722.024096 305.364476 
L 725.204819 305.155235 
L 728.385542 305.120579 
L 731.566265 305.28046 
L 741.108434 306.080206 
L 744.289157 306.062701 
L 747.46988 304.946423 
L 753.831325 304.87769 
L 757.012048 305.155637 
L 760.192771 304.980548 
L 763.373494 305.05123 
L 769.73494 304.76406 
L 772.915663 304.868398 
L 776.096386 304.570921 
L 782.457831 304.575946 
L 785.638554 304.450131 
L 788.819277 304.519294 
L 788.819277 304.519294 
" clip-path="url(#pce07e95cc7)" style="fill: none; stroke: #000000; stroke-width: 1.5; stroke-linecap: square"/>
   </g>
   <g id="line2d_7">
    <path d="M 0 306 
L 3.180723 306 
L 6.361446 307.936475 
L 9.542169 308.964777 
L 12.722892 308.08109 
L 15.903614 306.32083 
L 19.084337 306.454803 
L 22.26506 306.858089 
L 28.626506 306.172521 
L 31.807229 305.658662 
L 38.168675 305.597752 
L 41.349398 306.251039 
L 47.710843 306.240292 
L 50.891566 306.467985 
L 54.072289 306.039991 
L 57.253012 306.236342 
L 60.433735 306.834991 
L 63.614458 306.605153 
L 66.795181 306.08254 
L 69.975904 305.970759 
L 73.156627 306.391975 
L 76.337349 306.354747 
L 79.518072 306.844514 
L 82.698795 306.943414 
L 85.879518 306.863501 
L 89.060241 306.662876 
L 92.240964 306.847665 
L 95.421687 307.213962 
L 98.60241 306.845091 
L 104.963855 307.164889 
L 108.144578 307.694003 
L 111.325301 307.896879 
L 114.506024 307.348847 
L 117.686747 307.370879 
L 120.86747 307.588962 
L 124.048193 307.925116 
L 127.228916 307.713051 
L 130.409639 307.21174 
L 136.771084 306.68501 
L 139.951807 306.737371 
L 143.13253 306.504198 
L 152.674699 306.411398 
L 155.855422 306.32219 
L 159.036145 306.019652 
L 162.216867 306.059059 
L 165.39759 306.319973 
L 168.578313 306.3779 
L 171.759036 306.313094 
L 174.939759 306.434205 
L 178.120482 306.671148 
L 181.301205 306.586679 
L 184.481928 306.645831 
L 187.662651 306.822718 
L 190.843373 306.794801 
L 194.024096 306.622477 
L 197.204819 306.24393 
L 200.385542 306.346583 
L 203.566265 306.014225 
L 209.927711 306.105226 
L 213.108434 306.474637 
L 216.289157 306.526859 
L 219.46988 306.939141 
L 222.650602 306.872194 
L 225.831325 306.518218 
L 229.012048 306.636927 
L 232.192771 306.54222 
L 235.373494 306.707563 
L 238.554217 306.510869 
L 241.73494 306.908008 
L 248.096386 307.261975 
L 257.638554 307.338804 
L 260.819277 307.029802 
L 264 307.02528 
L 267.180723 306.823328 
L 270.361446 307.148661 
L 273.542169 307.274284 
L 279.903614 307.097799 
L 283.084337 307.14024 
L 286.26506 307.064409 
L 292.626506 306.614958 
L 295.807229 306.452496 
L 298.987952 306.450068 
L 302.168675 306.197051 
L 308.53012 306.34652 
L 314.891566 306.221767 
L 324.433735 306.793319 
L 327.614458 306.760277 
L 330.795181 306.60645 
L 333.975904 306.906296 
L 340.337349 306.786695 
L 343.518072 306.953706 
L 349.879518 306.519638 
L 353.060241 306.62561 
L 356.240964 306.988769 
L 362.60241 306.971736 
L 365.783133 306.998656 
L 368.963855 306.822906 
L 372.144578 306.808115 
L 375.325301 306.600681 
L 378.506024 306.596409 
L 384.86747 306.766892 
L 388.048193 306.684347 
L 391.228916 306.759231 
L 407.13253 306.29243 
L 410.313253 306.404573 
L 413.493976 306.387758 
L 416.674699 306.572308 
L 429.39759 306.11237 
L 432.578313 306.22898 
L 435.759036 306.105738 
L 445.301205 306.111659 
L 448.481928 306.291312 
L 454.843373 306.094956 
L 464.385542 305.908354 
L 473.927711 306.138992 
L 477.108434 306.266803 
L 486.650602 306.117419 
L 489.831325 306.343367 
L 508.915663 306.437621 
L 512.096386 306.274675 
L 518.457831 306.148469 
L 521.638554 306.080423 
L 524.819277 306.384394 
L 528 306.3172 
L 534.361446 306.43389 
L 537.542169 306.282832 
L 543.903614 306.605283 
L 556.626506 306.706203 
L 559.807229 306.580764 
L 562.987952 306.721738 
L 566.168675 307.262523 
L 575.710843 306.825776 
L 591.614458 306.845388 
L 594.795181 306.779271 
L 597.975904 306.853524 
L 601.156627 306.725114 
L 617.060241 306.732363 
L 620.240964 306.548437 
L 623.421687 306.506184 
L 626.60241 306.578904 
L 629.783133 306.417485 
L 642.506024 306.53285 
L 645.686747 306.277788 
L 648.86747 306.3779 
L 655.228916 306.42248 
L 661.590361 305.780301 
L 664.771084 305.861744 
L 667.951807 305.760112 
L 674.313253 305.829811 
L 696.578313 305.814527 
L 702.939759 305.607095 
L 706.120482 305.566548 
L 712.481928 305.774612 
L 715.662651 305.761493 
L 718.843373 305.630424 
L 722.024096 305.725603 
L 728.385542 305.585743 
L 734.746988 305.797037 
L 741.108434 306.048437 
L 744.289157 306.040209 
L 747.46988 305.474991 
L 772.915663 305.353656 
L 776.096386 305.192224 
L 788.819277 305.113757 
L 788.819277 305.113757 
" clip-path="url(#pce07e95cc7)" style="fill: none; stroke: #000000; stroke-width: 1.5; stroke-linecap: square"/>
   </g>
   <g id="line2d_8">
    <path d="M 0 306 
L 3.180723 306 
L 6.361446 307.926102 
L 9.542169 308.946942 
L 12.722892 308.081835 
L 15.903614 306.358536 
L 19.084337 306.482541 
L 22.26506 306.869117 
L 28.626506 306.206567 
L 31.807229 305.712868 
L 38.168675 305.645857 
L 41.349398 306.255604 
L 47.710843 306.244637 
L 50.891566 306.455057 
L 54.072289 306.061755 
L 57.253012 306.240363 
L 60.433735 306.786048 
L 63.614458 306.580176 
L 66.795181 306.1095 
L 69.975904 306.007657 
L 73.156627 306.382662 
L 76.337349 306.349954 
L 79.518072 306.78419 
L 82.698795 306.874072 
L 89.060241 306.633861 
L 92.240964 306.795771 
L 95.421687 307.114985 
L 98.60241 306.800739 
L 104.963855 307.078158 
L 108.144578 307.531235 
L 111.325301 307.708591 
L 114.506024 307.252822 
L 117.686747 307.27445 
L 124.048193 307.7436 
L 127.228916 307.573428 
L 130.409639 307.163959 
L 136.771084 306.733912 
L 139.951807 306.775188 
L 143.13253 306.584915 
L 155.855422 306.430727 
L 159.036145 306.187349 
L 162.216867 306.214305 
L 165.39759 306.416269 
L 190.843373 306.775498 
L 194.024096 306.644556 
L 197.204819 306.356538 
L 200.385542 306.431773 
L 203.566265 306.17932 
L 209.927711 306.241072 
L 213.108434 306.513825 
L 216.289157 306.551838 
L 219.46988 306.85675 
L 222.650602 306.808996 
L 225.831325 306.549842 
L 229.012048 306.63625 
L 232.192771 306.567059 
L 235.373494 306.686987 
L 238.554217 306.544619 
L 241.73494 306.831273 
L 248.096386 307.090104 
L 257.638554 307.155489 
L 260.819277 306.939594 
L 264 306.938034 
L 267.180723 306.797209 
L 270.361446 307.026363 
L 273.542169 307.11657 
L 279.903614 306.998298 
L 286.26506 306.978915 
L 292.626506 306.670468 
L 302.168675 306.380181 
L 308.53012 306.476434 
L 314.891566 306.38744 
L 324.433735 306.765979 
L 330.795181 306.642215 
L 333.975904 306.840726 
L 346.698795 306.76064 
L 349.879518 306.590673 
L 353.060241 306.658863 
L 356.240964 306.895192 
L 381.686747 306.725086 
L 391.228916 306.75075 
L 410.313253 306.519928 
L 413.493976 306.507762 
L 416.674699 306.621283 
L 429.39759 306.327365 
L 432.578313 306.39642 
L 438.939759 306.307881 
L 454.843373 306.296034 
L 464.385542 306.173554 
L 508.915663 306.467602 
L 515.277108 306.35936 
L 521.638554 306.252185 
L 524.819277 306.428361 
L 531.180723 306.423655 
L 534.361446 306.455151 
L 537.542169 306.366763 
L 543.903614 306.553485 
L 556.626506 306.616076 
L 559.807229 306.544784 
L 562.987952 306.626528 
L 566.168675 306.939132 
L 578.891566 306.713541 
L 585.253012 306.785376 
L 594.795181 306.683153 
L 597.975904 306.726544 
L 604.337349 306.654592 
L 617.060241 306.664252 
L 623.421687 306.537495 
L 626.60241 306.577998 
L 629.783133 306.487357 
L 642.506024 306.549459 
L 645.686747 306.40681 
L 655.228916 306.483788 
L 661.590361 306.123531 
L 671.13253 306.140325 
L 702.939759 305.981177 
L 709.301205 306.01861 
L 715.662651 306.049434 
L 718.843373 305.97445 
L 722.024096 306.022339 
L 728.385542 305.938546 
L 744.289157 306.171094 
L 747.46988 305.863131 
L 782.457831 305.646069 
L 788.819277 305.605406 
L 788.819277 305.605406 
" clip-path="url(#pce07e95cc7)" style="fill: none; stroke: #000000; stroke-width: 1.5; stroke-linecap: square"/>
   </g>
   <g id="line2d_9">
    <path d="M 0 306 
L 3.180723 306 
L 6.361446 307.920916 
L 9.542169 308.938011 
L 12.722892 308.082106 
L 15.903614 306.377166 
L 19.084337 306.496372 
L 22.26506 306.874777 
L 28.626506 306.223597 
L 31.807229 305.739863 
L 38.168675 305.670151 
L 41.349398 306.258839 
L 47.710843 306.247668 
L 50.891566 306.449704 
L 54.072289 306.073008 
L 57.253012 306.243128 
L 60.433735 306.76339 
L 63.614458 306.568746 
L 66.795181 306.122736 
L 69.975904 306.025716 
L 73.156627 306.378886 
L 76.337349 306.348255 
L 79.518072 306.756174 
L 82.698795 306.841534 
L 89.060241 306.619781 
L 92.240964 306.770855 
L 95.421687 307.067834 
L 98.60241 306.778732 
L 104.963855 307.036079 
L 108.144578 307.453537 
L 111.325301 307.618452 
L 114.506024 307.204669 
L 117.686747 307.225819 
L 124.048193 307.655097 
L 127.228916 307.503534 
L 130.409639 307.135725 
L 143.13253 306.616108 
L 155.855422 306.47634 
L 159.036145 306.260208 
L 162.216867 306.282345 
L 165.39759 306.458508 
L 190.843373 306.76766 
L 194.024096 306.654981 
L 197.204819 306.407167 
L 200.385542 306.470757 
L 203.566265 306.253973 
L 209.927711 306.304132 
L 213.108434 306.534895 
L 216.289157 306.56677 
L 219.46988 306.824588 
L 222.650602 306.784809 
L 225.831325 306.566834 
L 229.012048 306.639205 
L 232.192771 306.581105 
L 235.373494 306.681276 
L 238.554217 306.562439 
L 241.73494 306.801097 
L 248.096386 307.017522 
L 257.638554 307.07532 
L 260.819277 306.898858 
L 264 306.898185 
L 267.180723 306.783371 
L 270.361446 306.970966 
L 273.542169 307.045383 
L 279.903614 306.950957 
L 286.26506 306.936728 
L 295.807229 306.597791 
L 298.987952 306.594491 
L 302.168675 306.454243 
L 308.53012 306.529423 
L 314.891566 306.457084 
L 327.614458 306.738101 
L 330.795181 306.657808 
L 333.975904 306.8135 
L 346.698795 306.752143 
L 349.879518 306.620063 
L 353.060241 306.67264 
L 356.240964 306.855566 
L 388.048193 306.709967 
L 397.590361 306.713175 
L 403.951807 306.536223 
L 413.493976 306.559668 
L 416.674699 306.64403 
L 429.39759 306.422351 
L 435.759036 306.413801 
L 473.927711 306.390212 
L 480.289157 306.432312 
L 489.831325 306.468061 
L 515.277108 306.424405 
L 521.638554 306.347127 
L 524.819277 306.47073 
L 537.542169 306.425902 
L 547.084337 306.574062 
L 556.626506 306.600062 
L 562.987952 306.607326 
L 566.168675 306.823994 
L 578.891566 306.670854 
L 585.253012 306.72115 
L 604.337349 306.633895 
L 617.060241 306.64141 
L 623.421687 306.555877 
L 632.963855 306.537316 
L 652.048193 306.493778 
L 655.228916 306.517413 
L 661.590361 306.277023 
L 674.313253 306.280181 
L 744.289157 306.274901 
L 747.46988 306.076475 
L 788.819277 305.889797 
L 788.819277 305.889797 
" clip-path="url(#pce07e95cc7)" style="fill: none; stroke: #000000; stroke-width: 1.5; stroke-linecap: square"/>
   </g>
  </g>
 </g>
 <defs>
  <clipPath id="pce07e95cc7">
   <rect x="0" y="0" width="792" height="612"/>
  </clipPath>
 </defs>
</svg>
