<?xml version="1.0" encoding="utf-8" standalone="no"?>
<!DOCTYPE svg PUBLIC "-//W3C//DTD SVG 1.1//EN"
  "http://www.w3.org/Graphics/SVG/1.1/DTD/svg11.dtd">
<svg xmlns:xlink="http://www.w3.org/1999/xlink" width="792pt" height="612pt" viewBox="0 0 792 612" xmlns="http://www.w3.org/2000/svg" version="1.1">
 <metadata>
  <rdf:RDF xmlns:dc="http://purl.org/dc/elements/1.1/" xmlns:cc="http://creativecommons.org/ns#" xmlns:rdf="http://www.w3.org/1999/02/22-rdf-syntax-ns#">
   <cc:Work>
    <dc:type rdf:resource="http://purl.org/dc/dcmitype/StillImage"/>
    <dc:date>2023-01-02T15:38:47.755363</dc:date>
    <dc:format>image/svg+xml</dc:format>
    <dc:creator>
     <cc:Agent>
      <dc:title>Matplotlib v3.6.2, https://matplotlib.org/</dc:title>
     </cc:Agent>
    </dc:creator>
   </cc:Work>
  </rdf:RDF>
 </metadata>
 <defs>
  <style type="text/css">*{stroke-linejoin: round; stroke-linecap: butt}</style>
 </defs>
 <g id="figure_1">
  <g id="patch_1">
   <path d="M 0 612 
L 792 612 
L 792 0 
L 0 0 
z
" style="fill: #ffffff"/>
  </g>
  <g id="axes_1">
   <g id="line2d_1">
    <path d="M 0 459 
L 12.774194 441.594299 
L 25.548387 428.40958 
L 38.322581 433.389274 
L 51.096774 449.541854 
L 63.870968 452.067155 
L 76.645161 445.083775 
L 89.419355 442.292046 
L 102.193548 436.658886 
L 114.967742 447.44682 
L 127.741935 434.461007 
L 140.516129 436.015493 
L 153.290323 441.969999 
L 166.064516 451.314887 
L 178.83871 442.345722 
L 191.612903 444.97638 
L 204.387097 425.093726 
L 217.16129 421.51447 
L 229.935484 431.407315 
L 242.709677 413.83781 
L 255.483871 419.966635 
L 268.258065 414.157193 
L 281.032258 432.692797 
L 293.806452 432.157128 
L 306.580645 403.430697 
L 319.354839 415.914572 
L 332.129032 414.263663 
L 344.903226 423.063163 
L 357.677419 383.950123 
L 370.451613 349.923112 
L 383.225806 358.583948 
L 396 346.784449 
L 408.774194 354.294642 
L 421.548387 353.63252 
L 434.322581 353.32708 
L 447.096774 361.453806 
L 459.870968 350.531857 
L 472.645161 347.087709 
L 485.419355 350.582604 
L 498.193548 355.671287 
L 510.967742 349.112085 
L 523.741935 331.85852 
L 536.516129 324.844974 
L 549.290323 319.507205 
L 562.064516 332.205962 
L 574.83871 340.641098 
L 587.612903 338.636604 
L 600.387097 323.617135 
L 613.16129 333.199517 
L 625.935484 320.141678 
L 638.709677 316.343685 
L 651.483871 323.175631 
L 664.258065 337.736181 
L 677.032258 350.633354 
L 689.806452 365.46441 
L 702.580645 364.640484 
L 715.354839 302.272532 
L 728.129032 300.04515 
L 740.903226 293.881907 
L 753.677419 306.083061 
L 766.451613 294.865401 
L 779.225806 296.461392 
" clip-path="url(#pcccb66e73c)" style="fill: none; stroke: #000000; stroke-width: 1.5; stroke-linecap: square"/>
   </g>
   <g id="line2d_2">
    <path d="M 0 459 
L 12.774194 459 
L 25.548387 447.393107 
L 38.322581 436.536328 
L 51.096774 434.857617 
L 63.870968 442.432297 
L 76.645161 447.324901 
L 89.419355 446.195438 
L 102.193548 444.235821 
L 114.967742 440.402318 
L 127.741935 443.935155 
L 140.516129 439.207854 
L 153.290323 437.616567 
L 166.064516 439.778017 
L 178.83871 445.542851 
L 191.612903 443.938735 
L 204.387097 444.462803 
L 217.16129 434.744746 
L 229.935484 428.07239 
L 242.709677 429.733482 
L 255.483871 421.730964 
L 268.258065 420.805643 
L 281.032258 417.406684 
L 293.806452 425.021407 
L 306.580645 428.562345 
L 319.354839 415.921466 
L 332.129032 415.907051 
L 344.903226 415.051696 
L 357.677419 419.072457 
L 370.451613 401.35503 
L 383.225806 375.242052 
L 396 366.738895 
L 408.774194 356.547482 
L 421.548387 355.325991 
L 434.322581 354.359781 
L 447.096774 353.726766 
L 459.870968 357.465156 
L 472.645161 353.927472 
L 485.419355 350.495639 
L 498.193548 350.523499 
L 510.967742 353.111336 
L 523.741935 351.099388 
L 536.516129 341.38104 
L 549.290323 333.013371 
L 562.064516 326.148102 
L 574.83871 329.135499 
L 587.612903 334.854758 
L 600.387097 336.720243 
L 613.16129 330.078062 
L 625.935484 331.606359 
L 638.709677 325.828373 
L 651.483871 321.053163 
L 664.258065 322.120795 
L 677.032258 329.898693 
L 689.806452 340.220537 
L 702.580645 352.810255 
L 715.354839 358.789671 
L 728.129032 329.938679 
L 740.903226 314.78261 
L 753.677419 304.197762 
L 766.451613 305.10666 
L 779.225806 299.881566 
" clip-path="url(#pcccb66e73c)" style="fill: none; stroke: #000000; stroke-width: 1.5; stroke-linecap: square"/>
   </g>
   <g id="line2d_3">
    <path d="M 0 459 
L 12.774194 459 
L 25.548387 448.800764 
L 38.322581 439.552046 
L 51.096774 437.144374 
L 63.870968 441.552532 
L 76.645161 445.070652 
L 89.419355 445.074868 
L 102.193548 444.205341 
L 114.967742 441.891795 
L 127.741935 443.570855 
L 140.516129 440.840745 
L 153.290323 439.40456 
L 166.064516 440.164234 
L 178.83871 443.454177 
L 191.612903 443.127695 
L 204.387097 443.671235 
L 217.16129 438.183128 
L 229.935484 433.27023 
L 242.709677 432.727949 
L 255.483871 427.160514 
L 268.258065 425.017797 
L 281.032258 421.788861 
L 293.806452 424.96455 
L 306.580645 427.058016 
L 319.354839 420.076191 
L 332.129032 418.820499 
L 344.903226 417.46182 
L 357.677419 419.086374 
L 370.451613 408.660531 
L 383.225806 391.073937 
L 396 381.374297 
L 408.774194 371.017842 
L 421.548387 366.012332 
L 434.322581 362.294297 
L 447.096774 359.571944 
L 459.870968 360.063902 
L 472.645161 357.184313 
L 485.419355 354.140461 
L 498.193548 353.005465 
L 510.967742 353.700335 
L 523.741935 352.293032 
L 536.516129 346.162823 
L 549.290323 339.760114 
L 562.064516 333.657147 
L 574.83871 333.173984 
L 587.612903 335.343288 
L 600.387097 336.283891 
L 613.16129 332.525375 
L 625.935484 332.698857 
L 638.709677 328.960539 
L 651.483871 325.199891 
L 664.258065 324.563398 
L 677.032258 328.383418 
L 689.806452 334.841176 
L 702.580645 343.719084 
L 715.354839 349.80882 
L 728.129032 335.514358 
L 740.903226 324.898043 
L 753.677419 315.620914 
L 766.451613 312.79718 
L 779.225806 307.447491 
" clip-path="url(#pcccb66e73c)" style="fill: none; stroke: #000000; stroke-width: 1.5; stroke-linecap: square"/>
   </g>
   <g id="line2d_4">
    <path d="M 0 459 
L 12.774194 459 
L 25.548387 449.541789 
L 38.322581 441.238391 
L 51.096774 438.739397 
L 63.870968 441.703251 
L 76.645161 444.252787 
L 89.419355 444.44093 
L 102.193548 443.985013 
L 114.967742 442.508398 
L 127.741935 443.462579 
L 140.516129 441.77921 
L 153.290323 440.73072 
L 166.064516 440.951034 
L 178.83871 442.758809 
L 191.612903 442.687806 
L 204.387097 443.076147 
L 217.16129 440.051437 
L 229.935484 436.959824 
L 242.709677 436.041812 
L 255.483871 432.384905 
L 268.258065 430.35263 
L 281.032258 427.711686 
L 293.806452 428.518732 
L 306.580645 429.106554 
L 319.354839 424.95001 
L 332.129032 423.4944 
L 344.903226 422.009836 
L 357.677419 422.178718 
L 370.451613 416.007128 
L 383.225806 405.236165 
L 396 397.675843 
L 408.774194 389.407423 
L 421.548387 383.68828 
L 434.322581 378.79986 
L 447.096774 374.66183 
L 459.870968 372.505874 
L 472.645161 368.918488 
L 485.419355 365.349555 
L 498.193548 362.92797 
L 510.967742 361.717244 
L 523.741935 359.647491 
L 536.516129 355.097979 
L 549.290323 350.145308 
L 562.064516 345.121747 
L 574.83871 342.987167 
L 587.612903 342.547256 
L 600.387097 341.861658 
L 613.16129 338.85746 
L 625.935484 337.899353 
L 638.709677 334.984919 
L 651.483871 331.918217 
L 664.258065 330.465876 
L 677.032258 331.569059 
L 689.806452 334.534811 
L 702.580645 339.343737 
L 715.354839 343.281205 
L 728.129032 336.538905 
L 740.903226 330.533652 
L 753.677419 324.492596 
L 766.451613 321.459818 
L 779.225806 317.099525 
" clip-path="url(#pcccb66e73c)" style="fill: none; stroke: #000000; stroke-width: 1.5; stroke-linecap: square"/>
   </g>
   <g id="line2d_5">
    <path d="M 0 459 
L 12.774194 459 
L 25.548387 449.917193 
L 38.322581 442.109056 
L 51.096774 439.636652 
L 63.870968 441.973644 
L 76.645161 444.039045 
L 89.419355 444.229708 
L 102.193548 443.908033 
L 114.967742 442.796369 
L 127.741935 443.462165 
L 140.516129 442.245488 
L 153.290323 441.445237 
L 166.064516 441.509682 
L 178.83871 442.667121 
L 191.612903 442.630447 
L 204.387097 442.890011 
L 217.16129 440.970379 
L 229.935484 438.921519 
L 242.709677 438.148368 
L 255.483871 435.689797 
L 268.258065 434.129311 
L 281.032258 432.17688 
L 293.806452 432.226454 
L 306.580645 432.219878 
L 319.354839 429.508562 
L 332.129032 428.245234 
L 344.903226 426.958243 
L 357.677419 426.603422 
L 370.451613 422.716517 
L 383.225806 416.056168 
L 396 410.853408 
L 408.774194 405.064407 
L 421.548387 400.520707 
L 434.322581 396.347811 
L 447.096774 392.539483 
L 459.870968 389.810879 
L 472.645161 386.362724 
L 485.419355 382.924705 
L 498.193548 380.109886 
L 510.967742 377.995797 
L 523.741935 375.498129 
L 536.516129 371.703994 
L 549.290323 367.628241 
L 562.064516 363.444008 
L 574.83871 360.756753 
L 587.612903 359.038955 
L 600.387097 357.298831 
L 613.16129 354.407946 
L 625.935484 352.602345 
L 638.709677 349.823036 
L 651.483871 346.956423 
L 664.258065 344.933682 
L 677.032258 344.327843 
L 689.806452 344.854354 
L 702.580645 346.562258 
L 715.354839 348.061255 
L 728.129032 344.12616 
L 740.903226 340.340933 
L 753.677419 336.342832 
L 766.451613 333.76829 
L 779.225806 330.437283 
" clip-path="url(#pcccb66e73c)" style="fill: none; stroke: #000000; stroke-width: 1.5; stroke-linecap: square"/>
   </g>
   <g id="line2d_6">
    <path d="M 0 459 
L 12.774194 459 
L 25.548387 450.105516 
L 38.322581 442.548599 
L 51.096774 440.106306 
L 63.870968 442.159272 
L 76.645161 443.993538 
L 89.419355 444.170227 
L 102.193548 443.898325 
L 114.967742 442.947199 
L 127.741935 443.489657 
L 140.516129 442.479133 
L 153.290323 441.802808 
L 166.064516 441.819269 
L 178.83871 442.704065 
L 191.612903 442.672271 
L 204.387097 442.867614 
L 217.16129 441.419267 
L 229.935484 439.857444 
L 242.709677 439.21824 
L 255.483871 437.355528 
L 268.258065 436.118764 
L 281.032258 434.598874 
L 293.806452 434.470736 
L 306.580645 434.31896 
L 319.354839 432.329304 
L 332.129032 431.297041 
L 344.903226 430.247028 
L 357.677419 429.813159 
L 370.451613 427.069084 
L 383.225806 422.47726 
L 396 418.74742 
L 408.774194 414.589867 
L 421.548387 411.167115 
L 434.322581 407.944579 
L 447.096774 404.924537 
L 459.870968 402.558251 
L 472.645161 399.746252 
L 485.419355 396.927313 
L 498.193548 394.47653 
L 510.967742 392.449633 
L 523.741935 390.200937 
L 536.516129 387.175454 
L 549.290323 383.959411 
L 562.064516 380.652018 
L 574.83871 378.204146 
L 587.612903 376.32922 
L 600.387097 374.459516 
L 613.16129 371.933958 
L 625.935484 370.033469 
L 638.709677 367.58262 
L 651.483871 365.075549 
L 664.258065 363.046528 
L 677.032258 361.838119 
L 689.806452 361.30956 
L 702.580645 361.503258 
L 715.354839 361.648953 
L 728.129032 358.802859 
L 740.903226 355.995973 
L 753.677419 353.029625 
L 766.451613 350.817956 
L 779.225806 348.171959 
" clip-path="url(#pcccb66e73c)" style="fill: none; stroke: #000000; stroke-width: 1.5; stroke-linecap: square"/>
   </g>
   <g id="line2d_7">
    <path d="M 0 459 
L 12.774194 459 
L 25.548387 450.199756 
L 38.322581 442.76907 
L 51.096774 440.345773 
L 63.870968 442.264525 
L 76.645161 443.987176 
L 89.419355 444.154184 
L 102.193548 443.903363 
L 114.967742 443.026466 
L 127.741935 443.512686 
L 140.516129 442.597161 
L 153.290323 441.98069 
L 166.064516 441.979757 
L 178.83871 442.744021 
L 191.612903 442.713254 
L 204.387097 442.878798 
L 217.16129 441.639458 
L 229.935484 440.300897 
L 242.709677 439.735555 
L 255.483871 438.151938 
L 268.258065 437.083351 
L 281.032258 435.783375 
L 293.806452 435.61454 
L 306.580645 435.431722 
L 319.354839 433.783489 
L 332.129032 432.89202 
L 344.903226 431.98808 
L 357.677419 431.567018 
L 370.451613 429.358333 
L 383.225806 425.720087 
L 396 422.726078 
L 408.774194 419.398284 
L 421.548387 416.614602 
L 434.322581 413.975766 
L 447.096774 411.48414 
L 459.870968 409.4741 
L 472.645161 407.138382 
L 485.419355 404.796744 
L 498.193548 402.721568 
L 510.967742 400.953766 
L 523.741935 399.030865 
L 536.516129 396.556241 
L 549.290323 393.943303 
L 562.064516 391.261507 
L 574.83871 389.17801 
L 587.612903 387.495765 
L 600.387097 385.822332 
L 613.16129 383.700882 
L 625.935484 382.008562 
L 638.709677 379.944241 
L 651.483871 377.8414 
L 664.258065 376.061395 
L 677.032258 374.836955 
L 689.806452 374.076674 
L 702.580645 373.810637 
L 715.354839 373.529919 
L 728.129032 371.291503 
L 740.903226 369.070953 
L 753.677419 366.738554 
L 766.451613 364.889946 
L 779.225806 362.757139 
" clip-path="url(#pcccb66e73c)" style="fill: none; stroke: #000000; stroke-width: 1.5; stroke-linecap: square"/>
   </g>
   <g id="line2d_8">
    <path d="M 0 459 
L 12.774194 459 
L 25.548387 450.246886 
L 38.322581 442.879435 
L 51.096774 440.466582 
L 63.870968 442.320216 
L 76.645161 443.988182 
L 89.419355 444.149816 
L 102.193548 443.908668 
L 114.967742 443.067346 
L 127.741935 443.526821 
L 140.516129 442.656669 
L 153.290323 442.069363 
L 166.064516 442.061213 
L 178.83871 442.769331 
L 191.612903 442.738898 
L 204.387097 442.890362 
L 217.16129 441.748329 
L 229.935484 440.515051 
L 242.709677 439.98708 
L 255.483871 438.535935 
L 268.258065 437.550425 
L 281.032258 436.358101 
L 293.806452 436.178968 
L 306.580645 435.989613 
L 319.354839 434.503448 
L 332.129032 433.685391 
L 344.903226 432.857901 
L 357.677419 432.454026 
L 370.451613 430.496694 
L 383.225806 427.300669 
L 396 424.658536 
L 408.774194 421.729497 
L 421.548387 419.265451 
L 434.322581 416.925714 
L 447.096774 414.712246 
L 459.870968 412.907298 
L 472.645161 410.831276 
L 485.419355 408.752474 
L 498.193548 406.898118 
L 510.967742 405.301824 
L 523.741935 403.580533 
L 536.516129 401.407541 
L 549.290323 399.122674 
L 562.064516 396.78287 
L 574.83871 394.931669 
L 587.612903 393.408741 
L 600.387097 391.89649 
L 613.16129 390.026952 
L 625.935484 388.503881 
L 638.709677 386.686756 
L 651.483871 384.841139 
L 664.258065 383.253677 
L 677.032258 382.108166 
L 689.806452 381.332239 
L 702.580645 380.948975 
L 715.354839 380.560125 
L 728.129032 378.65298 
L 740.903226 376.759876 
L 753.677419 374.780511 
L 766.451613 373.174002 
L 779.225806 371.350557 
" clip-path="url(#pcccb66e73c)" style="fill: none; stroke: #000000; stroke-width: 1.5; stroke-linecap: square"/>
   </g>
   <g id="line2d_9">
    <path d="M 0 459 
L 12.774194 459 
L 25.548387 450.270452 
L 38.322581 442.934645 
L 51.096774 440.527245 
L 63.870968 442.348821 
L 76.645161 443.98974 
L 89.419355 444.14857 
L 102.193548 443.912054 
L 114.967742 443.088133 
L 127.741935 443.53458 
L 140.516129 442.686573 
L 153.290323 442.113632 
L 166.064516 442.10222 
L 178.83871 442.783305 
L 191.612903 442.753013 
L 204.387097 442.897666 
L 217.16129 441.802443 
L 229.935484 440.620088 
L 242.709677 440.110757 
L 255.483871 438.723814 
L 268.258065 437.779269 
L 281.032258 436.63979 
L 293.806452 436.457689 
L 306.580645 436.267029 
L 319.354839 434.85925 
L 332.129032 434.078145 
L 344.903226 433.289176 
L 357.677419 432.896099 
L 370.451613 431.059421 
L 383.225806 428.074184 
L 396 425.601925 
L 408.774194 422.865636 
L 421.548387 420.558592 
L 434.322581 418.367127 
L 447.096774 416.292937 
L 459.870968 414.594042 
L 472.645161 412.649737 
L 485.419355 410.704689 
L 498.193548 408.965297 
L 510.967742 407.46169 
L 523.741935 405.847196 
L 536.516129 403.827318 
L 549.290323 401.70846 
L 562.064516 399.541912 
L 574.83871 397.814705 
L 587.612903 396.382923 
L 600.387097 394.962873 
L 613.16129 393.227081 
L 625.935484 391.80075 
L 638.709677 390.116033 
L 651.483871 388.40796 
L 664.258065 386.929367 
L 677.032258 385.841694 
L 689.806452 385.080815 
L 702.580645 384.666387 
L 715.354839 384.249702 
L 728.129032 382.511493 
L 740.903226 380.78668 
L 753.677419 378.988145 
L 766.451613 377.513885 
L 779.225806 375.853486 
" clip-path="url(#pcccb66e73c)" style="fill: none; stroke: #000000; stroke-width: 1.5; stroke-linecap: square"/>
   </g>
  </g>
 </g>
 <defs>
  <clipPath id="pcccb66e73c">
   <rect x="0" y="0" width="792" height="612"/>
  </clipPath>
 </defs>
</svg>
