<?xml version="1.0" encoding="utf-8" standalone="no"?>
<!DOCTYPE svg PUBLIC "-//W3C//DTD SVG 1.1//EN"
  "http://www.w3.org/Graphics/SVG/1.1/DTD/svg11.dtd">
<svg xmlns:xlink="http://www.w3.org/1999/xlink" width="792pt" height="612pt" viewBox="0 0 792 612" xmlns="http://www.w3.org/2000/svg" version="1.1">
 <metadata>
  <rdf:RDF xmlns:dc="http://purl.org/dc/elements/1.1/" xmlns:cc="http://creativecommons.org/ns#" xmlns:rdf="http://www.w3.org/1999/02/22-rdf-syntax-ns#">
   <cc:Work>
    <dc:type rdf:resource="http://purl.org/dc/dcmitype/StillImage"/>
    <dc:date>2023-01-16T16:11:02.463905</dc:date>
    <dc:format>image/svg+xml</dc:format>
    <dc:creator>
     <cc:Agent>
      <dc:title>Matplotlib v3.6.2, https://matplotlib.org/</dc:title>
     </cc:Agent>
    </dc:creator>
   </cc:Work>
  </rdf:RDF>
 </metadata>
 <defs>
  <style type="text/css">*{stroke-linejoin: round; stroke-linecap: butt}</style>
 </defs>
 <g id="figure_1">
  <g id="patch_1">
   <path d="M 0 612 
L 792 612 
L 792 0 
L 0 0 
z
" style="fill: #ffffff"/>
  </g>
  <g id="axes_1">
   <g id="line2d_1">
    <path d="M 0 306 
L 12.983607 306.986325 
L 25.967213 309.775067 
L 38.95082 311.917235 
L 51.934426 300.320759 
L 64.918033 307.666539 
L 77.901639 293.388941 
L 90.885246 303.721283 
L 103.868852 312.291211 
L 116.852459 294.815255 
L 129.836066 309.911091 
L 142.819672 302.292946 
L 155.803279 317.796086 
L 168.786885 305.659887 
L 181.770492 287.68979 
L 194.754098 313.990847 
L 207.737705 304.945653 
L 220.721311 311.611242 
L 233.704918 280.921995 
L 246.688525 283.592697 
L 259.672131 311.781239 
L 272.655738 298.111118 
L 285.639344 311.033224 
L 298.622951 305.557853 
L 311.606557 305.795932 
L 324.590164 311.40724 
L 337.57377 298.722946 
L 350.557377 303.687273 
L 363.540984 308.346736 
L 376.52459 309.400994 
L 389.508197 301.612838 
L 402.491803 294.305798 
L 415.47541 301.170791 
L 428.459016 302.292946 
L 441.442623 314.77252 
L 454.42623 311.74724 
L 467.409836 304.639555 
L 480.393443 295.698459 
L 493.377049 312.597177 
L 506.360656 296.989601 
L 519.344262 303.347182 
L 532.327869 310.761203 
L 545.311475 315.995775 
L 558.295082 314.704553 
L 571.278689 315.859873 
L 584.262295 305.455819 
L 597.245902 263.523766 
L 610.229508 304.401482 
L 623.213115 301.54483 
L 636.196721 314.77252 
L 649.180328 297.941177 
L 662.163934 307.15638 
L 675.147541 300.082765 
L 688.131148 297.635295 
L 701.114754 308.00664 
L 714.098361 292.709933 
L 727.081967 304.911642 
L 740.065574 302.633014 
L 753.04918 298.858916 
L 766.032787 306.170057 
L 779.016393 302.735036 
" clip-path="url(#p904089d31f)" style="fill: none; stroke: #000000; stroke-width: 1.5; stroke-linecap: square"/>
   </g>
   <g id="line2d_2">
    <path d="M 0 306 
L 12.983607 306 
L 25.967213 306.657552 
L 38.95082 308.439047 
L 51.934426 310.294216 
L 64.918033 305.146427 
L 77.901639 306.426491 
L 90.885246 299.853612 
L 103.868852 301.794863 
L 116.852459 307.055681 
L 129.836066 300.909573 
L 142.819672 305.410471 
L 155.803279 303.83278 
L 168.786885 310.851211 
L 181.770492 308.251777 
L 194.754098 297.950507 
L 207.737705 305.990797 
L 220.721311 305.453819 
L 233.704918 308.565728 
L 246.688525 294.663943 
L 259.672131 289.086146 
L 272.655738 300.414225 
L 285.639344 299.247778 
L 298.622951 305.185997 
L 311.606557 305.355386 
L 324.590164 305.577326 
L 337.57377 308.492109 
L 350.557377 303.641927 
L 363.540984 303.704078 
L 376.52459 306.018673 
L 389.508197 307.732026 
L 402.491803 304.653827 
L 415.47541 299.455883 
L 428.459016 300.304226 
L 441.442623 301.280668 
L 454.42623 308.059055 
L 467.409836 309.919092 
L 480.393443 307.27215 
L 493.377049 301.456819 
L 506.360656 307.048879 
L 519.344262 302.023432 
L 532.327869 302.689559 
L 545.311475 306.742113 
L 558.295082 311.372572 
L 571.278689 313.04457 
L 584.262295 314.474391 
L 597.245902 309.985103 
L 610.229508 286.546047 
L 623.213115 295.479307 
L 636.196721 298.5078 
L 649.180328 306.648482 
L 662.163934 302.258673 
L 675.147541 304.692639 
L 688.131148 302.356558 
L 701.114754 299.980237 
L 714.098361 304.080852 
L 727.081967 298.369838 
L 740.065574 301.646843 
L 753.04918 302.116114 
L 766.032787 300.489159 
L 779.016393 303.327444 
" clip-path="url(#p904089d31f)" style="fill: none; stroke: #000000; stroke-width: 1.5; stroke-linecap: square"/>
   </g>
   <g id="line2d_3">
    <path d="M 0 306 
L 12.983607 306 
L 25.967213 306.577777 
L 38.95082 308.026469 
L 51.934426 309.546055 
L 64.918033 306.263673 
L 77.901639 306.733265 
L 90.885246 302.44371 
L 103.868852 302.842837 
L 116.852459 305.738352 
L 129.836066 302.434502 
L 142.819672 304.673786 
L 155.803279 303.965355 
L 168.786885 308.063219 
L 181.770492 307.35377 
L 194.754098 301.556198 
L 207.737705 305.212821 
L 220.721311 305.133358 
L 233.704918 307.036178 
L 246.688525 299.338849 
L 259.672131 294.686973 
L 272.655738 299.704375 
L 285.639344 299.22671 
L 298.622951 302.704511 
L 311.606557 303.542307 
L 324.590164 304.194901 
L 337.57377 306.32656 
L 350.557377 304.086284 
L 363.540984 303.971017 
L 376.52459 305.241769 
L 389.508197 306.464315 
L 402.491803 305.059282 
L 415.47541 301.885618 
L 428.459016 301.671909 
L 441.442623 301.843101 
L 454.42623 305.669512 
L 467.409836 307.482209 
L 480.393443 306.641416 
L 493.377049 303.432445 
L 506.360656 306.118787 
L 519.344262 303.434363 
L 532.327869 303.406015 
L 545.311475 305.559627 
L 558.295082 308.637126 
L 571.278689 310.427316 
L 584.262295 312.027548 
L 597.245902 310.098508 
L 610.229508 296.335561 
L 623.213115 298.708719 
L 636.196721 299.539718 
L 649.180328 304.015693 
L 662.163934 302.216798 
L 675.147541 303.658205 
L 688.131148 302.605639 
L 701.114754 301.151783 
L 714.098361 303.154054 
L 727.081967 300.088347 
L 740.065574 301.502656 
L 753.04918 301.824384 
L 766.032787 300.936029 
L 779.016393 302.459066 
" clip-path="url(#p904089d31f)" style="fill: none; stroke: #000000; stroke-width: 1.5; stroke-linecap: square"/>
   </g>
   <g id="line2d_4">
    <path d="M 0 306 
L 12.983607 306 
L 25.967213 306.535787 
L 38.95082 307.807143 
L 51.934426 309.115145 
L 64.918033 306.700732 
L 77.901639 306.938438 
L 90.885246 303.869006 
L 103.868852 303.837668 
L 116.852459 305.540819 
L 129.836066 303.466993 
L 142.819672 304.671294 
L 155.803279 304.238812 
L 168.786885 306.650205 
L 181.770492 306.477365 
L 194.754098 303.244495 
L 207.737705 305.068513 
L 220.721311 305.047881 
L 233.704918 306.140521 
L 246.688525 301.964216 
L 259.672131 298.94141 
L 272.655738 301.038904 
L 285.639344 300.562481 
L 298.622951 302.259735 
L 311.606557 302.792768 
L 324.590164 303.276917 
L 337.57377 304.584972 
L 350.557377 303.643374 
L 363.540984 303.650414 
L 376.52459 304.40254 
L 389.508197 305.202242 
L 402.491803 304.628449 
L 415.47541 302.978818 
L 428.459016 302.688124 
L 441.442623 302.622321 
L 454.42623 304.558858 
L 467.409836 305.702548 
L 480.393443 305.536116 
L 493.377049 303.96285 
L 506.360656 305.348731 
L 519.344262 304.014174 
L 532.327869 303.902471 
L 545.311475 305.003709 
L 558.295082 306.756947 
L 571.278689 308.02953 
L 584.262295 309.2746 
L 597.245902 308.666928 
L 610.229508 301.425735 
L 623.213115 301.89316 
L 636.196721 301.835617 
L 649.180328 303.896098 
L 662.163934 302.959077 
L 675.147541 303.641574 
L 688.131148 303.067988 
L 701.114754 302.203118 
L 714.098361 303.124516 
L 727.081967 301.458428 
L 740.065574 302.00724 
L 753.04918 302.101327 
L 766.032787 301.585455 
L 779.016393 302.316351 
" clip-path="url(#p904089d31f)" style="fill: none; stroke: #000000; stroke-width: 1.5; stroke-linecap: square"/>
   </g>
   <g id="line2d_5">
    <path d="M 0 306 
L 12.983607 306 
L 25.967213 306.514515 
L 38.95082 307.696826 
L 51.934426 308.892882 
L 64.918033 306.869209 
L 77.901639 307.032446 
L 90.885246 304.541072 
L 103.868852 304.404992 
L 116.852459 305.613845 
L 129.836066 304.066721 
L 142.819672 304.856157 
L 155.803279 304.527055 
L 168.786885 306.157375 
L 181.770492 306.098617 
L 194.754098 303.995631 
L 207.737705 305.101893 
L 220.721311 305.085068 
L 233.704918 305.770955 
L 246.688525 303.210351 
L 259.672131 301.228799 
L 272.655738 302.273953 
L 285.639344 301.868043 
L 298.622951 302.74871 
L 311.606557 303.015148 
L 324.590164 303.275808 
L 337.57377 304.029968 
L 350.557377 303.542425 
L 363.540984 303.555612 
L 376.52459 303.988315 
L 389.508197 304.473614 
L 402.491803 304.218797 
L 415.47541 303.340753 
L 428.459016 303.149692 
L 441.442623 303.074639 
L 454.42623 304.094828 
L 467.409836 304.759357 
L 480.393443 304.748994 
L 493.377049 303.968531 
L 506.360656 304.710008 
L 519.344262 304.048372 
L 532.327869 303.988458 
L 545.311475 304.565755 
L 558.295082 305.538118 
L 571.278689 306.316285 
L 584.262295 307.12503 
L 597.245902 306.983871 
L 610.229508 303.2911 
L 623.213115 303.384718 
L 636.196721 303.229786 
L 649.180328 304.200695 
L 662.163934 303.674713 
L 675.147541 303.966895 
L 688.131148 303.641186 
L 701.114754 303.137913 
L 714.098361 303.545448 
L 727.081967 302.638451 
L 740.065574 302.828467 
L 753.04918 302.812138 
L 766.032787 302.481989 
L 779.016393 302.78976 
" clip-path="url(#p904089d31f)" style="fill: none; stroke: #000000; stroke-width: 1.5; stroke-linecap: square"/>
   </g>
   <g id="line2d_6">
    <path d="M 0 306 
L 12.983607 306 
L 25.967213 306.503845 
L 38.95082 307.641868 
L 51.934426 308.781267 
L 64.918033 306.93939 
L 77.901639 307.074077 
L 90.885246 304.854908 
L 103.868852 304.690811 
L 116.852459 305.688938 
L 129.836066 304.377105 
L 142.819672 304.996061 
L 155.803279 304.713352 
L 168.786885 306.002025 
L 181.770492 305.970127 
L 194.754098 304.346341 
L 207.737705 305.164274 
L 220.721311 305.14649 
L 233.704918 305.652697 
L 246.688525 303.77928 
L 259.672131 302.299749 
L 272.655738 302.972644 
L 285.639344 302.637122 
L 298.622951 303.201421 
L 311.606557 303.355959 
L 324.590164 303.512349 
L 337.57377 304.007659 
L 350.557377 303.682657 
L 363.540984 303.682936 
L 376.52459 303.959355 
L 389.508197 304.276533 
L 402.491803 304.12369 
L 415.47541 303.568402 
L 428.459016 303.434746 
L 441.442623 303.371936 
L 454.42623 303.991339 
L 467.409836 304.407714 
L 480.393443 304.420021 
L 493.377049 303.961762 
L 506.360656 304.410801 
L 519.344262 304.028483 
L 532.327869 303.993711 
L 545.311475 304.336149 
L 558.295082 304.921483 
L 571.278689 305.408788 
L 584.262295 305.92559 
L 597.245902 305.902529 
L 610.229508 303.822642 
L 623.213115 303.850689 
L 636.196721 303.739627 
L 649.180328 304.268038 
L 662.163934 303.96665 
L 675.147541 304.117764 
L 688.131148 303.927521 
L 701.114754 303.632214 
L 714.098361 303.836527 
L 727.081967 303.318703 
L 740.065574 303.392481 
L 753.04918 303.357441 
L 766.032787 303.15063 
L 779.016393 303.288914 
" clip-path="url(#p904089d31f)" style="fill: none; stroke: #000000; stroke-width: 1.5; stroke-linecap: square"/>
   </g>
   <g id="line2d_7">
    <path d="M 0 306 
L 12.983607 306 
L 25.967213 306.498505 
L 38.95082 307.614484 
L 51.934426 308.7255 
L 64.918033 306.970871 
L 77.901639 307.093184 
L 90.885246 305.004869 
L 103.868852 304.831994 
L 116.852459 305.734499 
L 129.836066 304.53257 
L 142.819672 305.076195 
L 155.803279 304.815627 
L 168.786885 305.949484 
L 181.770492 305.925761 
L 194.754098 304.515481 
L 207.737705 305.208818 
L 220.721311 305.190512 
L 233.704918 305.616674 
L 246.688525 304.044701 
L 259.672131 302.795845 
L 272.655738 303.322662 
L 285.639344 303.027996 
L 298.622951 303.465162 
L 311.606557 303.57577 
L 324.590164 303.689541 
L 337.57377 304.073603 
L 350.557377 303.814625 
L 363.540984 303.808624 
L 376.52459 304.017101 
L 389.508197 304.258519 
L 402.491803 304.14259 
L 415.47541 303.720801 
L 428.459016 303.613802 
L 441.442623 303.559496 
L 454.42623 304.011671 
L 467.409836 304.317796 
L 480.393443 304.330302 
L 493.377049 304.000427 
L 506.360656 304.323436 
L 519.344262 304.052194 
L 532.327869 304.026526 
L 545.311475 304.268105 
L 558.295082 304.682903 
L 571.278689 305.032471 
L 584.262295 305.405166 
L 597.245902 305.406887 
L 610.229508 303.992516 
L 623.213115 304.006072 
L 636.196721 303.925428 
L 649.180328 304.276896 
L 662.163934 304.073819 
L 675.147541 304.171558 
L 688.131148 304.043212 
L 701.114754 303.844025 
L 714.098361 303.972142 
L 727.081967 303.628478 
L 740.065574 303.667254 
L 753.04918 303.636271 
L 766.032787 303.494341 
L 779.016393 303.573162 
" clip-path="url(#p904089d31f)" style="fill: none; stroke: #000000; stroke-width: 1.5; stroke-linecap: square"/>
   </g>
   <g id="line2d_8">
    <path d="M 0 306 
L 12.983607 306 
L 25.967213 306.495835 
L 38.95082 307.600822 
L 51.934426 308.697647 
L 64.918033 306.985703 
L 77.901639 307.102271 
L 90.885246 305.077954 
L 103.868852 304.901869 
L 116.852459 305.759021 
L 129.836066 304.610029 
L 142.819672 305.118476 
L 155.803279 304.868725 
L 168.786885 305.929506 
L 181.770492 305.908863 
L 194.754098 304.598465 
L 207.737705 305.234484 
L 220.721311 305.215982 
L 233.704918 305.604958 
L 246.688525 304.172122 
L 259.672131 303.031714 
L 272.655738 303.495024 
L 285.639344 303.221408 
L 298.622951 303.603037 
L 311.606557 303.695029 
L 324.590164 303.790434 
L 337.57377 304.124766 
L 350.557377 303.89522 
L 363.540984 303.886657 
L 376.52459 304.064896 
L 389.508197 304.272099 
L 402.491803 304.171649 
L 415.47541 303.808611 
L 428.459016 303.714049 
L 441.442623 303.664352 
L 454.42623 304.04368 
L 467.409836 304.300709 
L 480.393443 304.311764 
L 493.377049 304.036642 
L 506.360656 304.304325 
L 519.344262 304.08014 
L 532.327869 304.05812 
L 545.311475 304.255691 
L 558.295082 304.59546 
L 571.278689 304.88279 
L 584.262295 305.189408 
L 597.245902 305.196722 
L 610.229508 304.064007 
L 623.213115 304.072975 
L 636.196721 304.006838 
L 649.180328 304.284234 
L 662.163934 304.123197 
L 675.147541 304.199073 
L 688.131148 304.097532 
L 701.114754 303.940284 
L 714.098361 304.037879 
L 727.081967 303.769359 
L 740.065574 303.796072 
L 753.04918 303.769211 
L 766.032787 303.657167 
L 779.016393 303.713811 
" clip-path="url(#p904089d31f)" style="fill: none; stroke: #000000; stroke-width: 1.5; stroke-linecap: square"/>
   </g>
   <g id="line2d_9">
    <path d="M 0 306 
L 12.983607 306 
L 25.967213 306.494499 
L 38.95082 307.593999 
L 51.934426 308.683731 
L 64.918033 306.992892 
L 77.901639 307.106693 
L 90.885246 305.114004 
L 103.868852 304.936593 
L 116.852459 305.771682 
L 129.836066 304.648646 
L 142.819672 305.140122 
L 155.803279 304.895715 
L 168.786885 305.921072 
L 181.770492 305.901753 
L 194.754098 304.639553 
L 207.737705 305.248156 
L 220.721311 305.229581 
L 233.704918 305.600707 
L 246.688525 304.234461 
L 259.672131 303.146368 
L 272.655738 303.580206 
L 285.639344 303.317158 
L 298.622951 303.673001 
L 311.606557 303.756521 
L 324.590164 303.843505 
L 337.57377 304.154547 
L 350.557377 303.938851 
L 363.540984 303.929194 
L 376.52459 304.093348 
L 389.508197 304.284511 
L 402.491803 304.191138 
L 415.47541 303.855413 
L 428.459016 303.766808 
L 441.442623 303.719473 
L 454.42623 304.065269 
L 467.409836 304.299511 
L 480.393443 304.309625 
L 493.377049 304.059475 
L 506.360656 304.301685 
L 519.344262 304.098855 
L 532.327869 304.078466 
L 545.311475 304.255882 
L 558.295082 304.56118 
L 571.278689 304.81962 
L 584.262295 305.0954 
L 597.245902 305.104227 
L 610.229508 304.098279 
L 623.213115 304.105433 
L 636.196721 304.046093 
L 649.180328 304.290358 
L 662.163934 304.148231 
L 675.147541 304.214426 
L 688.131148 304.124979 
L 701.114754 303.986709 
L 714.098361 304.070992 
L 727.081967 303.836276 
L 740.065574 303.858144 
L 753.04918 303.833596 
L 766.032787 303.73534 
L 779.016393 303.782737 
" clip-path="url(#p904089d31f)" style="fill: none; stroke: #000000; stroke-width: 1.5; stroke-linecap: square"/>
   </g>
  </g>
 </g>
 <defs>
  <clipPath id="p904089d31f">
   <rect x="0" y="0" width="792" height="612"/>
  </clipPath>
 </defs>
</svg>
