<?xml version="1.0" encoding="utf-8" standalone="no"?>
<!DOCTYPE svg PUBLIC "-//W3C//DTD SVG 1.1//EN"
  "http://www.w3.org/Graphics/SVG/1.1/DTD/svg11.dtd">
<svg xmlns:xlink="http://www.w3.org/1999/xlink" width="792pt" height="612pt" viewBox="0 0 792 612" xmlns="http://www.w3.org/2000/svg" version="1.1">
 <metadata>
  <rdf:RDF xmlns:dc="http://purl.org/dc/elements/1.1/" xmlns:cc="http://creativecommons.org/ns#" xmlns:rdf="http://www.w3.org/1999/02/22-rdf-syntax-ns#">
   <cc:Work>
    <dc:type rdf:resource="http://purl.org/dc/dcmitype/StillImage"/>
    <dc:date>2023-01-09T02:28:35.239249</dc:date>
    <dc:format>image/svg+xml</dc:format>
    <dc:creator>
     <cc:Agent>
      <dc:title>Matplotlib v3.6.2, https://matplotlib.org/</dc:title>
     </cc:Agent>
    </dc:creator>
   </cc:Work>
  </rdf:RDF>
 </metadata>
 <defs>
  <style type="text/css">*{stroke-linejoin: round; stroke-linecap: butt}</style>
 </defs>
 <g id="figure_1">
  <g id="patch_1">
   <path d="M 0 612 
L 792 612 
L 792 0 
L 0 0 
z
" style="fill: #ffffff"/>
  </g>
  <g id="axes_1">
   <g id="line2d_1">
    <path d="M 0 306 
L 12.983607 301.411579 
L 25.967213 304.164516 
L 38.95082 302.293871 
L 51.934426 313.093665 
L 64.918033 297.460056 
L 77.901639 307.023644 
L 90.885246 309.917885 
L 103.868852 312.14106 
L 116.852459 300.105932 
L 129.836066 307.729593 
L 142.819672 292.912361 
L 155.803279 303.635068 
L 168.786885 312.529174 
L 181.770492 294.392468 
L 194.754098 310.059054 
L 207.737705 302.1527 
L 220.721311 318.241934 
L 233.704918 305.647018 
L 246.688525 286.998755 
L 259.672131 314.293043 
L 272.655738 304.905761 
L 285.639344 311.823498 
L 298.622951 279.977642 
L 311.606557 282.748103 
L 324.590164 311.999923 
L 337.57377 297.812775 
L 350.557377 311.223624 
L 363.540984 305.541124 
L 376.52459 305.788211 
L 389.508197 311.611783 
L 402.491803 298.447722 
L 415.47541 303.599772 
L 428.459016 308.435524 
L 441.442623 309.529662 
L 454.42623 301.44687 
L 467.409836 293.863792 
L 480.393443 300.988105 
L 493.377049 302.1527 
L 506.360656 315.104245 
L 519.344262 311.964638 
L 532.327869 304.588082 
L 545.311475 295.309002 
L 558.295082 312.846706 
L 571.278689 296.648892 
L 584.262295 303.246816 
L 597.245902 310.941317 
L 610.229508 316.373691 
L 623.213115 315.033711 
L 636.196721 316.232658 
L 649.180328 305.43523 
L 662.163934 261.938539 
L 675.147541 304.341001 
L 688.131148 301.376289 
L 701.114754 315.104245 
L 714.098361 297.636413 
L 727.081967 307.200132 
L 740.065574 299.85894 
L 753.04918 297.318976 
L 766.032787 308.082561 
L 779.016393 292.207759 
" clip-path="url(#pe04883f5d4)" style="fill: none; stroke: #000000; stroke-width: 1.5; stroke-linecap: square"/>
   </g>
   <g id="line2d_2">
    <path d="M 0 306 
L 12.983607 306 
L 25.967213 302.940926 
L 38.95082 303.640111 
L 51.934426 302.922102 
L 64.918033 308.17251 
L 77.901639 302.73028 
L 90.885246 304.89381 
L 103.868852 307.415793 
L 116.852459 309.790693 
L 129.836066 304.945488 
L 142.819672 306.344538 
L 155.803279 299.606975 
L 168.786885 301.602287 
L 181.770492 307.095623 
L 194.754098 300.717009 
L 207.737705 305.388166 
L 220.721311 303.750785 
L 233.704918 311.034728 
L 246.688525 308.336972 
L 259.672131 297.646095 
L 272.655738 305.990449 
L 285.639344 305.433153 
L 298.622951 308.6628 
L 311.606557 294.235447 
L 324.590164 288.447574 
L 337.57377 300.202932 
L 350.557377 298.992389 
L 363.540984 305.155199 
L 376.52459 305.330997 
L 389.508197 305.561334 
L 402.491803 308.586396 
L 415.47541 303.552711 
L 428.459016 303.617213 
L 441.442623 306.019379 
L 454.42623 307.797557 
L 467.409836 304.602894 
L 480.393443 299.20836 
L 493.377049 300.088773 
L 506.360656 301.102137 
L 519.344262 308.136959 
L 532.327869 310.067358 
L 545.311475 307.320282 
L 558.295082 301.28495 
L 571.278689 307.088564 
L 584.262295 301.872992 
L 597.245902 302.564316 
L 610.229508 306.770191 
L 623.213115 311.575805 
L 636.196721 313.311009 
L 649.180328 314.794855 
L 662.163934 310.135865 
L 675.147541 285.812086 
L 688.131148 295.081578 
L 701.114754 298.224445 
L 714.098361 306.673018 
L 727.081967 302.117131 
L 740.065574 304.643174 
L 753.04918 302.218718 
L 766.032787 299.752535 
L 779.016393 304.008241 
" clip-path="url(#pe04883f5d4)" style="fill: none; stroke: #000000; stroke-width: 1.5; stroke-linecap: square"/>
   </g>
   <g id="line2d_3">
    <path d="M 0 306 
L 12.983607 306 
L 25.967213 303.312033 
L 38.95082 303.698273 
L 51.934426 303.149805 
L 64.918033 306.688112 
L 77.901639 303.598466 
L 90.885246 304.698922 
L 103.868852 306.329489 
L 116.852459 308.110582 
L 129.836066 305.690248 
L 142.819672 306.301061 
L 155.803279 302.315157 
L 168.786885 302.706057 
L 181.770492 305.606039 
L 194.754098 302.301954 
L 207.737705 304.582819 
L 220.721311 303.866602 
L 233.704918 308.098236 
L 246.688525 307.382008 
L 259.672131 301.387482 
L 272.655738 305.169162 
L 285.639344 305.100568 
L 298.622951 307.075382 
L 311.606557 299.086902 
L 324.590164 294.259347 
L 337.57377 299.466245 
L 350.557377 298.970524 
L 363.540984 302.579833 
L 376.52459 303.449323 
L 389.508197 304.126605 
L 402.491803 306.338916 
L 415.47541 304.013878 
L 428.459016 303.894251 
L 441.442623 305.213081 
L 454.42623 306.481882 
L 467.409836 305.023689 
L 480.393443 301.729966 
L 493.377049 301.508175 
L 506.360656 301.685841 
L 519.344262 305.657008 
L 532.327869 307.538289 
L 545.311475 306.665685 
L 558.295082 303.335304 
L 571.278689 306.123281 
L 584.262295 303.337294 
L 597.245902 303.307875 
L 610.229508 305.542965 
L 623.213115 308.736899 
L 636.196721 310.594804 
L 649.180328 312.255543 
L 662.163934 310.253559 
L 675.147541 295.970155 
L 688.131148 298.432957 
L 701.114754 299.295364 
L 714.098361 303.940617 
L 727.081967 302.073673 
L 740.065574 303.569605 
L 753.04918 302.477221 
L 766.032787 300.968378 
L 779.016393 303.046381 
" clip-path="url(#pe04883f5d4)" style="fill: none; stroke: #000000; stroke-width: 1.5; stroke-linecap: square"/>
   </g>
   <g id="line2d_4">
    <path d="M 0 306 
L 12.983607 306 
L 25.967213 303.507376 
L 38.95082 303.765277 
L 51.934426 303.297051 
L 64.918033 305.9868 
L 77.901639 303.887684 
L 90.885246 304.597707 
L 103.868852 305.726357 
L 116.852459 307.018787 
L 129.836066 305.682609 
L 142.819672 306.065161 
L 155.803279 303.672144 
L 168.786885 303.665552 
L 181.770492 305.212658 
L 194.754098 303.352006 
L 207.737705 304.49026 
L 220.721311 304.097696 
L 233.704918 306.453215 
L 246.688525 306.319996 
L 259.672131 303.142816 
L 272.655738 304.965 
L 285.639344 304.955362 
L 298.622951 306.068907 
L 311.606557 301.841873 
L 324.590164 298.757438 
L 337.57377 300.887368 
L 350.557377 300.393516 
L 363.540984 302.129953 
L 376.52459 302.676229 
L 389.508197 303.174078 
L 402.491803 304.522857 
L 415.47541 303.552288 
L 428.459016 303.558345 
L 441.442623 304.338686 
L 454.42623 305.167949 
L 467.409836 304.575339 
L 480.393443 302.858179 
L 493.377049 302.562826 
L 506.360656 302.494534 
L 519.344262 304.504332 
L 532.327869 305.691294 
L 545.311475 305.518565 
L 558.295082 303.885775 
L 571.278689 305.324089 
L 584.262295 303.939041 
L 597.245902 303.823111 
L 610.229508 304.966014 
L 623.213115 306.785586 
L 636.196721 308.106317 
L 649.180328 309.398487 
L 662.163934 308.767828 
L 675.147541 301.25269 
L 688.131148 301.737794 
L 701.114754 301.678074 
L 714.098361 303.816497 
L 727.081967 302.844029 
L 740.065574 303.552344 
L 753.04918 302.957059 
L 766.032787 302.059474 
L 779.016393 303.015726 
" clip-path="url(#pe04883f5d4)" style="fill: none; stroke: #000000; stroke-width: 1.5; stroke-linecap: square"/>
   </g>
   <g id="line2d_5">
    <path d="M 0 306 
L 12.983607 306 
L 25.967213 303.606332 
L 38.95082 303.808725 
L 51.934426 303.379453 
L 64.918033 305.672894 
L 77.901639 303.991072 
L 90.885246 304.544536 
L 103.868852 305.436496 
L 116.852459 306.464237 
L 129.836066 305.553578 
L 142.819672 305.847504 
L 155.803279 304.185783 
L 168.786885 304.118147 
L 181.770492 305.111675 
L 194.754098 303.88797 
L 207.737705 304.570877 
L 220.721311 304.310468 
L 233.704918 305.775169 
L 246.688525 305.761993 
L 259.672131 303.867883 
L 272.655738 304.9007 
L 285.639344 304.901193 
L 298.622951 305.566456 
L 311.606557 303.1334 
L 324.590164 301.218564 
L 337.57377 302.218387 
L 350.557377 301.813642 
L 363.540984 302.670296 
L 376.52459 302.929562 
L 389.508197 303.185854 
L 402.491803 303.936336 
L 415.47541 303.450329 
L 428.459016 303.463487 
L 441.442623 303.899021 
L 454.42623 304.390002 
L 467.409836 304.13442 
L 480.393443 303.245497 
L 493.377049 303.050896 
L 506.360656 302.973717 
L 519.344262 304.013147 
L 532.327869 304.692605 
L 545.311475 304.683696 
L 558.295082 303.886078 
L 571.278689 304.646654 
L 584.262295 303.968919 
L 597.245902 303.907851 
L 610.229508 304.501738 
L 623.213115 305.503027 
L 636.196721 306.305754 
L 649.180328 307.140932 
L 662.163934 306.997641 
L 675.147541 303.190341 
L 688.131148 303.286816 
L 701.114754 303.126753 
L 714.098361 304.129549 
L 727.081967 303.586256 
L 740.065574 303.888345 
L 753.04918 303.551662 
L 766.032787 303.03109 
L 779.016393 303.452647 
" clip-path="url(#pe04883f5d4)" style="fill: none; stroke: #000000; stroke-width: 1.5; stroke-linecap: square"/>
   </g>
   <g id="line2d_6">
    <path d="M 0 306 
L 12.983607 306 
L 25.967213 303.655973 
L 38.95082 303.83288 
L 51.934426 303.422763 
L 64.918033 305.528278 
L 77.901639 304.033467 
L 90.885246 304.51809 
L 103.868852 305.29974 
L 116.852459 306.198189 
L 129.836066 305.463442 
L 142.819672 305.716899 
L 155.803279 304.376968 
L 168.786885 304.303921 
L 181.770492 305.070854 
L 194.754098 304.122979 
L 207.737705 304.626327 
L 220.721311 304.425099 
L 233.704918 305.507391 
L 246.688525 305.517945 
L 259.672131 304.161417 
L 272.655738 304.880601 
L 285.639344 304.882337 
L 298.622951 305.348908 
L 311.606557 303.680864 
L 324.590164 302.336371 
L 337.57377 302.942615 
L 350.557377 302.627123 
L 363.540984 303.145771 
L 376.52459 303.287739 
L 389.508197 303.433478 
L 402.491803 303.902727 
L 415.47541 303.594293 
L 428.459016 303.594598 
L 441.442623 303.860875 
L 454.42623 304.168813 
L 467.409836 304.022682 
L 480.393443 303.483111 
L 493.377049 303.352058 
L 506.360656 303.289695 
L 519.344262 303.898259 
L 532.327869 304.309961 
L 545.311475 304.324034 
L 558.295082 303.871392 
L 571.278689 304.318399 
L 584.262295 303.93914 
L 597.245902 303.905154 
L 610.229508 304.248259 
L 623.213115 304.835958 
L 636.196721 305.327221 
L 649.180328 305.849616 
L 662.163934 305.829882 
L 675.147541 303.735893 
L 688.131148 303.764418 
L 701.114754 303.652361 
L 714.098361 304.187357 
L 727.081967 303.882606 
L 740.065574 304.036259 
L 753.04918 303.843506 
L 766.032787 303.543522 
L 779.016393 303.751406 
" clip-path="url(#pe04883f5d4)" style="fill: none; stroke: #000000; stroke-width: 1.5; stroke-linecap: square"/>
   </g>
   <g id="line2d_7">
    <path d="M 0 306 
L 12.983607 306 
L 25.967213 303.680814 
L 38.95082 303.845552 
L 51.934426 303.444924 
L 64.918033 305.459383 
L 77.901639 304.052573 
L 90.885246 304.505074 
L 103.868852 305.234087 
L 116.852459 306.069779 
L 129.836066 305.413526 
L 142.819672 305.647614 
L 155.803279 304.45467 
L 168.786885 304.383108 
L 181.770492 305.050464 
L 194.754098 304.226796 
L 207.737705 304.653489 
L 220.721311 304.479522 
L 233.704918 305.39331 
L 246.688525 305.409423 
L 259.672131 304.285864 
L 272.655738 304.872697 
L 285.639344 304.874566 
L 298.622951 305.254087 
L 311.606557 303.914757 
L 324.590164 302.827829 
L 337.57377 303.284256 
L 350.557377 303.019416 
L 363.540984 303.406 
L 376.52459 303.504084 
L 389.508197 303.606503 
L 402.491803 303.957268 
L 415.47541 303.721099 
L 428.459016 303.716008 
L 441.442623 303.910035 
L 454.42623 304.136612 
L 467.409836 304.030166 
L 480.393443 303.634809 
L 493.377049 303.533695 
L 506.360656 303.481809 
L 519.344262 303.911606 
L 532.327869 304.204812 
L 545.311475 304.21856 
L 558.295082 303.903383 
L 571.278689 304.215297 
L 584.262295 303.954841 
L 597.245902 303.930789 
L 610.229508 304.165992 
L 623.213115 304.570764 
L 636.196721 304.913646 
L 649.180328 305.280458 
L 662.163934 305.285417 
L 675.147541 303.90123 
L 688.131148 303.915032 
L 701.114754 303.836132 
L 714.098361 304.183022 
L 727.081967 303.983336 
L 740.065574 304.080544 
L 753.04918 303.954061 
L 766.032787 303.756919 
L 779.016393 303.884346 
" clip-path="url(#pe04883f5d4)" style="fill: none; stroke: #000000; stroke-width: 1.5; stroke-linecap: square"/>
   </g>
   <g id="line2d_8">
    <path d="M 0 306 
L 12.983607 306 
L 25.967213 303.693237 
L 38.95082 303.852033 
L 51.934426 303.456128 
L 64.918033 305.425825 
L 77.901639 304.061638 
L 90.885246 304.498644 
L 103.868852 305.202022 
L 116.852459 306.006941 
L 129.836066 305.387592 
L 142.819672 305.612218 
L 155.803279 304.489031 
L 168.786885 304.418987 
L 181.770492 305.040011 
L 194.754098 304.274721 
L 207.737705 304.666352 
L 220.721311 304.505325 
L 233.704918 305.341128 
L 246.688525 305.358844 
L 259.672131 304.342 
L 272.655738 304.869026 
L 285.639344 304.870892 
L 298.622951 305.210579 
L 311.606557 304.020155 
L 324.590164 303.052155 
L 337.57377 303.4449 
L 350.557377 303.205555 
L 363.540984 303.535734 
L 376.52459 303.615875 
L 389.508197 303.700225 
L 402.491803 303.999062 
L 415.47541 303.79485 
L 428.459016 303.787857 
L 441.442623 303.950376 
L 454.42623 304.140866 
L 467.409836 304.05098 
L 480.393443 303.718422 
L 493.377049 303.63124 
L 506.360656 303.585009 
L 519.344262 303.938009 
L 532.327869 304.179158 
L 545.311475 304.191211 
L 558.295082 303.934108 
L 571.278689 304.187399 
L 584.262295 303.97682 
L 597.245902 303.956779 
L 610.229508 304.145386 
L 623.213115 304.470406 
L 636.196721 304.746787 
L 649.180328 305.042778 
L 662.163934 305.052739 
L 675.147541 303.966512 
L 688.131148 303.975748 
L 701.114754 303.912507 
L 714.098361 304.181178 
L 727.081967 304.026103 
L 740.065574 304.100328 
L 753.04918 304.002361 
L 766.032787 303.849844 
L 779.016393 303.945255 
" clip-path="url(#pe04883f5d4)" style="fill: none; stroke: #000000; stroke-width: 1.5; stroke-linecap: square"/>
   </g>
   <g id="line2d_9">
    <path d="M 0 306 
L 12.983607 306 
L 25.967213 303.699449 
L 38.95082 303.85531 
L 51.934426 303.46176 
L 64.918033 305.409272 
L 77.901639 304.066053 
L 90.885246 304.495451 
L 103.868852 305.18619 
L 116.852459 305.975889 
L 129.836066 305.374413 
L 142.819672 305.594365 
L 155.803279 304.505098 
L 168.786885 304.435975 
L 181.770492 305.034693 
L 194.754098 304.297631 
L 207.737705 304.672537 
L 220.721311 304.517794 
L 233.704918 305.316217 
L 246.688525 305.334489 
L 259.672131 304.368502 
L 272.655738 304.867221 
L 285.639344 304.869074 
L 298.622951 305.189821 
L 311.606557 304.069831 
L 324.590164 303.158535 
L 337.57377 303.522111 
L 350.557377 303.295374 
L 363.540984 303.599711 
L 376.52459 303.671852 
L 389.508197 303.748074 
L 402.491803 304.022894 
L 415.47541 303.83361 
L 428.459016 303.825892 
L 441.442623 303.973928 
L 454.42623 304.147709 
L 467.409836 304.065352 
L 480.393443 303.761739 
L 493.377049 303.681192 
L 506.360656 303.637831 
L 519.344262 303.955856 
L 532.327869 304.173102 
L 545.311475 304.184119 
L 558.295082 303.953281 
L 571.278689 304.179846 
L 584.262295 303.991718 
L 597.245902 303.973473 
L 610.229508 304.140941 
L 623.213115 304.429648 
L 636.196721 304.675427 
L 649.180328 304.938644 
L 662.163934 304.949758 
L 675.147541 303.996507 
L 688.131148 304.003964 
L 701.114754 303.94799 
L 714.098361 304.181948 
L 727.081967 304.046775 
L 740.065574 304.110898 
L 753.04918 304.025693 
L 766.032787 303.893214 
L 779.016393 303.97477 
" clip-path="url(#pe04883f5d4)" style="fill: none; stroke: #000000; stroke-width: 1.5; stroke-linecap: square"/>
   </g>
  </g>
 </g>
 <defs>
  <clipPath id="pe04883f5d4">
   <rect x="0" y="0" width="792" height="612"/>
  </clipPath>
 </defs>
</svg>
