<?xml version="1.0" encoding="utf-8" standalone="no"?>
<!DOCTYPE svg PUBLIC "-//W3C//DTD SVG 1.1//EN"
  "http://www.w3.org/Graphics/SVG/1.1/DTD/svg11.dtd">
<svg xmlns:xlink="http://www.w3.org/1999/xlink" width="792pt" height="612pt" viewBox="0 0 792 612" xmlns="http://www.w3.org/2000/svg" version="1.1">
 <metadata>
  <rdf:RDF xmlns:dc="http://purl.org/dc/elements/1.1/" xmlns:cc="http://creativecommons.org/ns#" xmlns:rdf="http://www.w3.org/1999/02/22-rdf-syntax-ns#">
   <cc:Work>
    <dc:type rdf:resource="http://purl.org/dc/dcmitype/StillImage"/>
    <dc:date>2023-01-30T16:20:56.019010</dc:date>
    <dc:format>image/svg+xml</dc:format>
    <dc:creator>
     <cc:Agent>
      <dc:title>Matplotlib v3.6.2, https://matplotlib.org/</dc:title>
     </cc:Agent>
    </dc:creator>
   </cc:Work>
  </rdf:RDF>
 </metadata>
 <defs>
  <style type="text/css">*{stroke-linejoin: round; stroke-linecap: butt}</style>
 </defs>
 <g id="figure_1">
  <g id="patch_1">
   <path d="M 0 612 
L 792 612 
L 792 0 
L 0 0 
z
" style="fill: #ffffff"/>
  </g>
  <g id="axes_1">
   <g id="line2d_1">
    <path d="M 0 306 
L 12.774194 306.986325 
L 25.548387 309.775067 
L 38.322581 311.917235 
L 51.096774 300.320759 
L 63.870968 307.666539 
L 76.645161 293.388941 
L 89.419355 303.721283 
L 102.193548 312.291211 
L 114.967742 294.815255 
L 127.741935 309.911091 
L 140.516129 302.292946 
L 153.290323 317.796086 
L 166.064516 305.659887 
L 178.83871 287.68979 
L 191.612903 313.990847 
L 204.387097 304.945653 
L 217.16129 311.611242 
L 229.935484 280.921995 
L 242.709677 283.592697 
L 255.483871 311.781239 
L 268.258065 298.111118 
L 281.032258 311.033224 
L 293.806452 305.557853 
L 306.580645 305.795932 
L 319.354839 311.40724 
L 332.129032 298.722946 
L 344.903226 303.687273 
L 357.677419 308.346736 
L 370.451613 309.400994 
L 383.225806 301.612838 
L 396 294.305798 
L 408.774194 301.170791 
L 421.548387 302.292946 
L 434.322581 314.77252 
L 447.096774 311.74724 
L 459.870968 304.639555 
L 472.645161 295.698459 
L 485.419355 312.597177 
L 498.193548 296.989601 
L 510.967742 303.347182 
L 523.741935 310.761203 
L 536.516129 315.995775 
L 549.290323 314.704553 
L 562.064516 315.859873 
L 574.83871 305.455819 
L 587.612903 263.523766 
L 600.387097 302.837058 
L 613.16129 307.564508 
L 625.935484 301.54483 
L 638.709677 314.77252 
L 651.483871 297.941177 
L 664.258065 307.15638 
L 677.032258 300.082765 
L 689.806452 297.635295 
L 702.580645 308.00664 
L 715.354839 292.709933 
L 728.129032 304.911642 
L 740.903226 302.633014 
L 753.677419 298.858916 
L 766.451613 306.170057 
L 779.225806 302.735036 
" clip-path="url(#p7f4d0c078e)" style="fill: none; stroke: #000000; stroke-width: 1.5; stroke-linecap: square"/>
   </g>
   <g id="line2d_2">
    <path d="M 0 306 
L 12.774194 306 
L 25.548387 306.657552 
L 38.322581 308.439047 
L 51.096774 310.294216 
L 63.870968 305.146427 
L 76.645161 306.426491 
L 89.419355 299.853612 
L 102.193548 301.794863 
L 114.967742 307.055681 
L 127.741935 300.909573 
L 140.516129 305.410471 
L 153.290323 303.83278 
L 166.064516 310.851211 
L 178.83871 308.251777 
L 191.612903 297.950507 
L 204.387097 305.990797 
L 217.16129 305.453819 
L 229.935484 308.565728 
L 242.709677 294.663943 
L 255.483871 289.086146 
L 268.258065 300.414225 
L 281.032258 299.247778 
L 293.806452 305.185997 
L 306.580645 305.355386 
L 319.354839 305.577326 
L 332.129032 308.492109 
L 344.903226 303.641927 
L 357.677419 303.704078 
L 370.451613 306.018673 
L 383.225806 307.732026 
L 396 304.653827 
L 408.774194 299.455883 
L 421.548387 300.304226 
L 434.322581 301.280668 
L 447.096774 308.059055 
L 459.870968 309.919092 
L 472.645161 307.27215 
L 485.419355 301.456819 
L 498.193548 307.048879 
L 510.967742 302.023432 
L 523.741935 302.689559 
L 536.516129 306.742113 
L 549.290323 311.372572 
L 562.064516 313.04457 
L 574.83871 314.474391 
L 587.612903 309.985103 
L 600.387097 286.546047 
L 613.16129 294.694978 
L 625.935484 301.135855 
L 638.709677 301.322272 
L 651.483871 308.045985 
L 664.258065 302.959887 
L 677.032258 305.041017 
L 689.806452 302.55113 
L 702.580645 300.160229 
L 715.354839 304.093256 
L 728.129032 298.369838 
L 740.903226 301.646843 
L 753.677419 302.116114 
L 766.451613 300.489159 
L 779.225806 303.327444 
" clip-path="url(#p7f4d0c078e)" style="fill: none; stroke: #000000; stroke-width: 1.5; stroke-linecap: square"/>
   </g>
   <g id="line2d_3">
    <path d="M 0 306 
L 12.774194 306 
L 25.548387 306.577777 
L 38.322581 308.026469 
L 51.096774 309.546055 
L 63.870968 306.263673 
L 76.645161 306.733265 
L 89.419355 302.44371 
L 102.193548 302.842837 
L 114.967742 305.738352 
L 127.741935 302.434502 
L 140.516129 304.673786 
L 153.290323 303.965355 
L 166.064516 308.063219 
L 178.83871 307.35377 
L 191.612903 301.556198 
L 204.387097 305.212821 
L 217.16129 305.133358 
L 229.935484 307.036178 
L 242.709677 299.338849 
L 255.483871 294.686973 
L 268.258065 299.704375 
L 281.032258 299.22671 
L 293.806452 302.704511 
L 306.580645 303.542307 
L 319.354839 304.194901 
L 332.129032 306.32656 
L 344.903226 304.086284 
L 357.677419 303.971017 
L 370.451613 305.241769 
L 383.225806 306.464315 
L 396 305.059282 
L 408.774194 301.885618 
L 421.548387 301.671909 
L 434.322581 301.843101 
L 447.096774 305.669512 
L 459.870968 307.482209 
L 472.645161 306.641416 
L 485.419355 303.432445 
L 498.193548 306.118787 
L 510.967742 303.434363 
L 523.741935 303.406015 
L 536.516129 305.559627 
L 549.290323 308.637126 
L 562.064516 310.427316 
L 574.83871 312.027548 
L 587.612903 310.098508 
L 600.387097 296.335561 
L 613.16129 298.248963 
L 625.935484 300.984048 
L 638.709677 301.147434 
L 651.483871 305.138549 
L 664.258065 303.014174 
L 677.032258 304.230243 
L 689.806452 303.020379 
L 702.580645 301.425599 
L 715.354839 303.365631 
L 728.129032 300.230609 
L 740.903226 301.594752 
L 753.677419 301.883493 
L 766.451613 300.979305 
L 779.225806 302.488343 
" clip-path="url(#p7f4d0c078e)" style="fill: none; stroke: #000000; stroke-width: 1.5; stroke-linecap: square"/>
   </g>
   <g id="line2d_4">
    <path d="M 0 306 
L 12.774194 306 
L 25.548387 306.535787 
L 38.322581 307.807143 
L 51.096774 309.115145 
L 63.870968 306.700732 
L 76.645161 306.938438 
L 89.419355 303.869006 
L 102.193548 303.837668 
L 114.967742 305.540819 
L 127.741935 303.466993 
L 140.516129 304.671294 
L 153.290323 304.238812 
L 166.064516 306.650205 
L 178.83871 306.477365 
L 191.612903 303.244495 
L 204.387097 305.068513 
L 217.16129 305.047881 
L 229.935484 306.140521 
L 242.709677 301.964216 
L 255.483871 298.94141 
L 268.258065 301.038904 
L 281.032258 300.562481 
L 293.806452 302.259735 
L 306.580645 302.792768 
L 319.354839 303.276917 
L 332.129032 304.584972 
L 344.903226 303.643374 
L 357.677419 303.650414 
L 370.451613 304.40254 
L 383.225806 305.202242 
L 396 304.628449 
L 408.774194 302.978818 
L 421.548387 302.688124 
L 434.322581 302.622321 
L 447.096774 304.558858 
L 459.870968 305.702548 
L 472.645161 305.536116 
L 485.419355 303.96285 
L 498.193548 305.348731 
L 510.967742 304.014174 
L 523.741935 303.902471 
L 536.516129 305.003709 
L 549.290323 306.756947 
L 562.064516 308.02953 
L 574.83871 309.2746 
L 587.612903 308.666928 
L 600.387097 301.425735 
L 613.16129 301.643311 
L 625.935484 302.586925 
L 638.709677 302.414837 
L 651.483871 304.402405 
L 664.258065 303.383132 
L 677.032258 303.98056 
L 689.806452 303.361561 
L 702.580645 302.441904 
L 715.354839 303.328739 
L 728.129032 301.629988 
L 740.903226 302.148011 
L 753.677419 302.227615 
L 766.451613 301.688548 
L 779.225806 302.40014 
" clip-path="url(#p7f4d0c078e)" style="fill: none; stroke: #000000; stroke-width: 1.5; stroke-linecap: square"/>
   </g>
   <g id="line2d_5">
    <path d="M 0 306 
L 12.774194 306 
L 25.548387 306.514515 
L 38.322581 307.696826 
L 51.096774 308.892882 
L 63.870968 306.869209 
L 76.645161 307.032446 
L 89.419355 304.541072 
L 102.193548 304.404992 
L 114.967742 305.613845 
L 127.741935 304.066721 
L 140.516129 304.856157 
L 153.290323 304.527055 
L 166.064516 306.157375 
L 178.83871 306.098617 
L 191.612903 303.995631 
L 204.387097 305.101893 
L 217.16129 305.085068 
L 229.935484 305.770955 
L 242.709677 303.210351 
L 255.483871 301.228799 
L 268.258065 302.273953 
L 281.032258 301.868043 
L 293.806452 302.74871 
L 306.580645 303.015148 
L 319.354839 303.275808 
L 332.129032 304.029968 
L 344.903226 303.542425 
L 357.677419 303.555612 
L 370.451613 303.988315 
L 383.225806 304.473614 
L 396 304.218797 
L 408.774194 303.340753 
L 421.548387 303.149692 
L 434.322581 303.074639 
L 447.096774 304.094828 
L 459.870968 304.759357 
L 472.645161 304.748994 
L 485.419355 303.968531 
L 498.193548 304.710008 
L 510.967742 304.048372 
L 523.741935 303.988458 
L 536.516129 304.565755 
L 549.290323 305.538118 
L 562.064516 306.316285 
L 574.83871 307.12503 
L 587.612903 306.983871 
L 600.387097 303.2911 
L 613.16129 303.252818 
L 625.935484 303.615855 
L 638.709677 303.441668 
L 651.483871 304.393714 
L 664.258065 303.852062 
L 677.032258 304.129106 
L 689.806452 303.790082 
L 702.580645 303.274732 
L 715.354839 303.670535 
L 728.129032 302.753667 
L 740.903226 302.933945 
L 753.677419 302.908817 
L 766.451613 302.570764 
L 779.225806 302.870989 
" clip-path="url(#p7f4d0c078e)" style="fill: none; stroke: #000000; stroke-width: 1.5; stroke-linecap: square"/>
   </g>
   <g id="line2d_6">
    <path d="M 0 306 
L 12.774194 306 
L 25.548387 306.503845 
L 38.322581 307.641868 
L 51.096774 308.781267 
L 63.870968 306.93939 
L 76.645161 307.074077 
L 89.419355 304.854908 
L 102.193548 304.690811 
L 114.967742 305.688938 
L 127.741935 304.377105 
L 140.516129 304.996061 
L 153.290323 304.713352 
L 166.064516 306.002025 
L 178.83871 305.970127 
L 191.612903 304.346341 
L 204.387097 305.164274 
L 217.16129 305.14649 
L 229.935484 305.652697 
L 242.709677 303.77928 
L 255.483871 302.299749 
L 268.258065 302.972644 
L 281.032258 302.637122 
L 293.806452 303.201421 
L 306.580645 303.355959 
L 319.354839 303.512349 
L 332.129032 304.007659 
L 344.903226 303.682657 
L 357.677419 303.682936 
L 370.451613 303.959355 
L 383.225806 304.276533 
L 396 304.12369 
L 408.774194 303.568402 
L 421.548387 303.434746 
L 434.322581 303.371936 
L 447.096774 303.991339 
L 459.870968 304.407714 
L 472.645161 304.420021 
L 485.419355 303.961762 
L 498.193548 304.410801 
L 510.967742 304.028483 
L 523.741935 303.993711 
L 536.516129 304.336149 
L 549.290323 304.921483 
L 562.064516 305.408788 
L 574.83871 305.92559 
L 587.612903 305.902529 
L 600.387097 303.822642 
L 613.16129 303.774886 
L 625.935484 303.957394 
L 638.709677 303.841859 
L 651.483871 304.362519 
L 664.258065 304.058221 
L 677.032258 304.20427 
L 689.806452 304.010866 
L 702.580645 303.712995 
L 715.354839 303.912674 
L 728.129032 303.393441 
L 740.903226 303.463483 
L 753.677419 303.42531 
L 766.451613 303.216125 
L 779.225806 303.350951 
" clip-path="url(#p7f4d0c078e)" style="fill: none; stroke: #000000; stroke-width: 1.5; stroke-linecap: square"/>
   </g>
   <g id="line2d_7">
    <path d="M 0 306 
L 12.774194 306 
L 25.548387 306.498505 
L 38.322581 307.614484 
L 51.096774 308.7255 
L 63.870968 306.970871 
L 76.645161 307.093184 
L 89.419355 305.004869 
L 102.193548 304.831994 
L 114.967742 305.734499 
L 127.741935 304.53257 
L 140.516129 305.076195 
L 153.290323 304.815627 
L 166.064516 305.949484 
L 178.83871 305.925761 
L 191.612903 304.515481 
L 204.387097 305.208818 
L 217.16129 305.190512 
L 229.935484 305.616674 
L 242.709677 304.044701 
L 255.483871 302.795845 
L 268.258065 303.322662 
L 281.032258 303.027996 
L 293.806452 303.465162 
L 306.580645 303.57577 
L 319.354839 303.689541 
L 332.129032 304.073603 
L 344.903226 303.814625 
L 357.677419 303.808624 
L 370.451613 304.017101 
L 383.225806 304.258519 
L 396 304.14259 
L 408.774194 303.720801 
L 421.548387 303.613802 
L 434.322581 303.559496 
L 447.096774 304.011671 
L 459.870968 304.317796 
L 472.645161 304.330302 
L 485.419355 304.000427 
L 498.193548 304.323436 
L 510.967742 304.052194 
L 523.741935 304.026526 
L 536.516129 304.268105 
L 549.290323 304.682903 
L 562.064516 305.032471 
L 574.83871 305.405166 
L 587.612903 305.406887 
L 600.387097 303.992516 
L 613.16129 303.954215 
L 625.935484 304.072496 
L 638.709677 303.990604 
L 651.483871 304.336172 
L 664.258065 304.133347 
L 677.032258 304.228224 
L 689.806452 304.099382 
L 702.580645 303.90037 
L 715.354839 304.025582 
L 728.129032 303.68339 
L 740.903226 303.720183 
L 753.677419 303.68789 
L 766.451613 303.545603 
L 779.225806 303.622298 
" clip-path="url(#p7f4d0c078e)" style="fill: none; stroke: #000000; stroke-width: 1.5; stroke-linecap: square"/>
   </g>
   <g id="line2d_8">
    <path d="M 0 306 
L 12.774194 306 
L 25.548387 306.495835 
L 38.322581 307.600822 
L 51.096774 308.697647 
L 63.870968 306.985703 
L 76.645161 307.102271 
L 89.419355 305.077954 
L 102.193548 304.901869 
L 114.967742 305.759021 
L 127.741935 304.610029 
L 140.516129 305.118476 
L 153.290323 304.868725 
L 166.064516 305.929506 
L 178.83871 305.908863 
L 191.612903 304.598465 
L 204.387097 305.234484 
L 217.16129 305.215982 
L 229.935484 305.604958 
L 242.709677 304.172122 
L 255.483871 303.031714 
L 268.258065 303.495024 
L 281.032258 303.221408 
L 293.806452 303.603037 
L 306.580645 303.695029 
L 319.354839 303.790434 
L 332.129032 304.124766 
L 344.903226 303.89522 
L 357.677419 303.886657 
L 370.451613 304.064896 
L 383.225806 304.272099 
L 396 304.171649 
L 408.774194 303.808611 
L 421.548387 303.714049 
L 434.322581 303.664352 
L 447.096774 304.04368 
L 459.870968 304.300709 
L 472.645161 304.311764 
L 485.419355 304.036642 
L 498.193548 304.304325 
L 510.967742 304.08014 
L 523.741935 304.05812 
L 536.516129 304.255691 
L 549.290323 304.59546 
L 562.064516 304.88279 
L 574.83871 305.189408 
L 587.612903 305.196722 
L 600.387097 304.064007 
L 613.16129 304.031405 
L 625.935484 304.123822 
L 638.709677 304.057377 
L 651.483871 304.329394 
L 664.258065 304.169546 
L 677.032258 304.243213 
L 689.806452 304.14199 
L 702.580645 303.985778 
L 715.354839 304.081021 
L 728.129032 303.814915 
L 740.903226 303.840243 
L 753.677419 303.812701 
L 766.451613 303.701011 
L 779.225806 303.756018 
" clip-path="url(#p7f4d0c078e)" style="fill: none; stroke: #000000; stroke-width: 1.5; stroke-linecap: square"/>
   </g>
   <g id="line2d_9">
    <path d="M 0 306 
L 12.774194 306 
L 25.548387 306.494499 
L 38.322581 307.593999 
L 51.096774 308.683731 
L 63.870968 306.992892 
L 76.645161 307.106693 
L 89.419355 305.114004 
L 102.193548 304.936593 
L 114.967742 305.771682 
L 127.741935 304.648646 
L 140.516129 305.140122 
L 153.290323 304.895715 
L 166.064516 305.921072 
L 178.83871 305.901753 
L 191.612903 304.639553 
L 204.387097 305.248156 
L 217.16129 305.229581 
L 229.935484 305.600707 
L 242.709677 304.234461 
L 255.483871 303.146368 
L 268.258065 303.580206 
L 281.032258 303.317158 
L 293.806452 303.673001 
L 306.580645 303.756521 
L 319.354839 303.843505 
L 332.129032 304.154547 
L 344.903226 303.938851 
L 357.677419 303.929194 
L 370.451613 304.093348 
L 383.225806 304.284511 
L 396 304.191138 
L 408.774194 303.855413 
L 421.548387 303.766808 
L 434.322581 303.719473 
L 447.096774 304.065269 
L 459.870968 304.299511 
L 472.645161 304.309625 
L 485.419355 304.059475 
L 498.193548 304.301685 
L 510.967742 304.098855 
L 523.741935 304.078466 
L 536.516129 304.255882 
L 549.290323 304.56118 
L 562.064516 304.81962 
L 574.83871 305.0954 
L 587.612903 305.104227 
L 600.387097 304.098279 
L 613.16129 304.068521 
L 625.935484 304.149529 
L 638.709677 304.090221 
L 651.483871 304.32933 
L 664.258065 304.188718 
L 677.032258 304.252955 
L 689.806452 304.164117 
L 702.580645 304.027191 
L 715.354839 304.109346 
L 728.129032 303.877374 
L 740.903226 303.898097 
L 753.677419 303.873114 
L 766.451613 303.775479 
L 779.225806 303.821448 
" clip-path="url(#p7f4d0c078e)" style="fill: none; stroke: #000000; stroke-width: 1.5; stroke-linecap: square"/>
   </g>
  </g>
 </g>
 <defs>
  <clipPath id="p7f4d0c078e">
   <rect x="0" y="0" width="792" height="612"/>
  </clipPath>
 </defs>
</svg>
