<?xml version="1.0" encoding="utf-8" standalone="no"?>
<!DOCTYPE svg PUBLIC "-//W3C//DTD SVG 1.1//EN"
  "http://www.w3.org/Graphics/SVG/1.1/DTD/svg11.dtd">
<svg xmlns:xlink="http://www.w3.org/1999/xlink" width="792pt" height="612pt" viewBox="0 0 792 612" xmlns="http://www.w3.org/2000/svg" version="1.1">
 <metadata>
  <rdf:RDF xmlns:dc="http://purl.org/dc/elements/1.1/" xmlns:cc="http://creativecommons.org/ns#" xmlns:rdf="http://www.w3.org/1999/02/22-rdf-syntax-ns#">
   <cc:Work>
    <dc:type rdf:resource="http://purl.org/dc/dcmitype/StillImage"/>
    <dc:date>2023-01-30T17:16:24.499892</dc:date>
    <dc:format>image/svg+xml</dc:format>
    <dc:creator>
     <cc:Agent>
      <dc:title>Matplotlib v3.6.2, https://matplotlib.org/</dc:title>
     </cc:Agent>
    </dc:creator>
   </cc:Work>
  </rdf:RDF>
 </metadata>
 <defs>
  <style type="text/css">*{stroke-linejoin: round; stroke-linecap: butt}</style>
 </defs>
 <g id="figure_1">
  <g id="patch_1">
   <path d="M 0 612 
L 792 612 
L 792 0 
L 0 0 
z
" style="fill: #ffffff"/>
  </g>
  <g id="axes_1">
   <g id="line2d_1">
    <path d="M 0 459 
L 12.983607 439.662629 
L 25.967213 436.175754 
L 38.95082 445.808883 
L 51.934426 428.691026 
L 64.918033 434.667305 
L 77.901639 429.002595 
L 90.885246 447.05962 
L 103.868852 446.538457 
L 116.852459 418.530199 
L 129.836066 430.71671 
L 142.819672 429.106457 
L 155.803279 437.684698 
L 168.786885 399.465436 
L 181.770492 366.011513 
L 194.754098 374.546003 
L 207.737705 362.915197 
L 220.721311 370.320996 
L 233.704918 369.668499 
L 246.688525 369.367473 
L 259.672131 377.370975 
L 272.655738 366.61183 
L 285.639344 363.214446 
L 298.622951 366.661871 
L 311.606557 371.677371 
L 324.590164 365.211605 
L 337.57377 348.164795 
L 350.557377 341.218528 
L 363.540984 335.92524 
L 376.52459 348.508647 
L 389.508197 356.849322 
L 402.491803 354.868536 
L 415.47541 340.001441 
L 428.459016 349.491804 
L 441.442623 336.554734 
L 454.42623 332.785288 
L 467.409836 339.563727 
L 480.393443 353.978509 
L 493.377049 366.711915 
L 506.360656 381.316378 
L 519.344262 380.50608 
L 532.327869 318.793098 
L 545.311475 314.409727 
L 558.295082 316.574254 
L 571.278689 310.428841 
L 584.262295 322.58648 
L 597.245902 311.410066 
L 610.229508 313.001907 
L 623.213115 304.897397 
L 636.196721 293.622601 
L 649.180328 296.306633 
L 662.163934 278.76448 
L 675.147541 277.354925 
L 688.131148 273.01985 
L 701.114754 263.95512 
L 714.098361 264.168851 
L 727.081967 260.083302 
L 740.065574 263.101227 
L 753.04918 270.454992 
L 766.032787 278.76448 
L 779.016393 269.632014 
" clip-path="url(#p3a45d68e82)" style="fill: none; stroke: #000000; stroke-width: 1.5; stroke-linecap: square"/>
   </g>
   <g id="line2d_2">
    <path d="M 0 459 
L 12.983607 459 
L 25.967213 446.104179 
L 38.95082 440.428716 
L 51.934426 443.297597 
L 64.918033 435.752867 
L 77.901639 435.201437 
L 90.885246 432.07638 
L 103.868852 439.592194 
L 116.852459 443.040001 
L 129.836066 430.723434 
L 142.819672 430.709375 
L 155.803279 429.875133 
L 168.786885 433.795723 
L 181.770492 416.501686 
L 194.754098 390.923227 
L 207.737705 382.569546 
L 220.721311 372.540484 
L 233.704918 371.337192 
L 246.688525 370.385184 
L 259.672131 369.761381 
L 272.655738 373.444306 
L 285.639344 369.959173 
L 298.622951 366.576116 
L 311.606557 366.603588 
L 324.590164 369.154835 
L 337.57377 367.171442 
L 350.557377 357.580315 
L 363.540984 349.307621 
L 376.52459 342.509908 
L 389.508197 345.469073 
L 402.491803 351.129287 
L 415.47541 352.97411 
L 428.459016 346.402355 
L 441.442623 347.915225 
L 454.42623 342.193094 
L 467.409836 337.45892 
L 480.393443 338.517784 
L 493.377049 346.224766 
L 506.360656 356.433799 
L 519.344262 368.858075 
L 532.327869 374.748558 
L 545.311475 346.264355 
L 558.295082 330.124959 
L 571.278689 323.285483 
L 584.262295 316.769833 
L 597.245902 319.611931 
L 610.229508 315.393128 
L 623.213115 314.067891 
L 636.196721 309.323918 
L 649.180328 301.372023 
L 662.163934 298.798661 
L 675.147541 288.614503 
L 688.131148 282.890085 
L 701.114754 277.836414 
L 714.098361 270.75397 
L 727.081967 267.357601 
L 740.065574 263.6209 
L 753.04918 263.302999 
L 766.032787 266.815855 
L 779.016393 272.752397 
" clip-path="url(#p3a45d68e82)" style="fill: none; stroke: #000000; stroke-width: 1.5; stroke-linecap: square"/>
   </g>
   <g id="line2d_3">
    <path d="M 0 459 
L 12.983607 459 
L 25.967213 447.668025 
L 38.95082 442.458456 
L 51.934426 443.766689 
L 64.918033 438.397478 
L 77.901639 437.14853 
L 90.885246 434.529556 
L 103.868852 438.441146 
L 116.852459 440.921325 
L 129.836066 434.137536 
L 142.819672 433.112651 
L 155.803279 431.920197 
L 168.786885 433.626633 
L 181.770492 423.495521 
L 194.754098 406.363572 
L 207.737705 396.939995 
L 220.721311 386.77484 
L 233.704918 381.855171 
L 246.688525 378.198039 
L 259.672131 375.518714 
L 272.655738 376.002995 
L 285.639344 373.167719 
L 298.622951 370.169064 
L 311.606557 369.050485 
L 324.590164 369.735333 
L 337.57377 368.348236 
L 350.557377 362.301738 
L 363.540984 355.978854 
L 376.52459 349.944579 
L 389.508197 349.46654 
L 402.491803 351.612472 
L 415.47541 352.542652 
L 428.459016 348.824739 
L 441.442623 348.996408 
L 454.42623 345.295817 
L 467.409836 341.57028 
L 480.393443 340.939445 
L 493.377049 344.72427 
L 506.360656 351.115852 
L 519.344262 359.889392 
L 532.327869 365.898795 
L 545.311475 351.781659 
L 558.295082 340.612373 
L 571.278689 333.463491 
L 584.262295 326.609556 
L 597.245902 325.399501 
L 610.229508 321.22105 
L 623.213115 318.756189 
L 636.196721 314.626329 
L 649.180328 308.336147 
L 662.163934 304.742215 
L 675.147541 296.945156 
L 688.131148 291.062736 
L 701.114754 285.622844 
L 714.098361 279.064111 
L 727.081967 274.527711 
L 740.065574 270.121944 
L 753.04918 267.993107 
L 766.032787 268.664596 
L 779.016393 271.559202 
" clip-path="url(#p3a45d68e82)" style="fill: none; stroke: #000000; stroke-width: 1.5; stroke-linecap: square"/>
   </g>
   <g id="line2d_4">
    <path d="M 0 459 
L 12.983607 459 
L 25.967213 448.491292 
L 38.95082 443.655095 
L 51.934426 444.340377 
L 64.918033 440.039234 
L 77.901639 438.716554 
L 90.885246 436.515229 
L 103.868852 438.750486 
L 116.852459 440.31861 
L 129.836066 436.097926 
L 142.819672 435.091738 
L 155.803279 434.002751 
L 168.786885 434.657149 
L 181.770492 428.482491 
L 194.754098 417.596378 
L 207.737705 410.216412 
L 220.721311 402.17027 
L 233.704918 396.821036 
L 246.688525 392.298031 
L 259.672131 388.50527 
L 272.655738 386.679761 
L 285.639344 383.393134 
L 298.622951 380.099103 
L 311.606557 377.917122 
L 324.590164 376.908977 
L 337.57377 375.019197 
L 350.557377 370.660729 
L 363.540984 365.881049 
L 376.52459 361.01965 
L 389.508197 359.007205 
L 402.491803 358.661962 
L 415.47541 358.055065 
L 428.459016 355.086819 
L 441.442623 354.139809 
L 454.42623 351.258028 
L 467.409836 348.223877 
L 480.393443 346.786299 
L 493.377049 347.878307 
L 506.360656 350.812814 
L 519.344262 355.567394 
L 532.327869 359.457018 
L 545.311475 352.794811 
L 558.295082 346.49315 
L 571.278689 341.58768 
L 584.262295 336.465598 
L 597.245902 334.193664 
L 610.229508 330.48644 
L 623.213115 327.637953 
L 636.196721 323.932882 
L 649.180328 318.966702 
L 662.163934 315.261918 
L 675.147541 309.245582 
L 688.131148 303.989748 
L 701.114754 298.886617 
L 714.098361 293.108931 
L 727.081967 288.330712 
L 740.065574 283.659375 
L 753.04918 280.268931 
L 766.032787 278.64811 
L 779.016393 278.629696 
" clip-path="url(#p3a45d68e82)" style="fill: none; stroke: #000000; stroke-width: 1.5; stroke-linecap: square"/>
   </g>
   <g id="line2d_5">
    <path d="M 0 459 
L 12.983607 459 
L 25.967213 448.908365 
L 38.95082 444.28876 
L 51.934426 444.71948 
L 64.918033 440.931109 
L 77.901639 439.648108 
L 90.885246 437.703294 
L 103.868852 439.255351 
L 116.852459 440.371086 
L 129.836066 437.235787 
L 142.819672 436.354655 
L 155.803279 435.423363 
L 168.786885 435.701026 
L 181.770492 431.397064 
L 194.754098 423.827038 
L 207.737705 418.311514 
L 220.721311 412.258114 
L 233.704918 407.800853 
L 246.688525 403.837492 
L 259.672131 400.326576 
L 272.655738 398.037385 
L 285.639344 394.942916 
L 298.622951 391.86145 
L 311.606557 389.450771 
L 324.590164 387.774677 
L 337.57377 385.665334 
L 350.557377 382.170177 
L 363.540984 378.378101 
L 376.52459 374.472366 
L 389.508197 372.118657 
L 402.491803 370.749986 
L 415.47541 369.334496 
L 428.459016 366.717101 
L 441.442623 365.196483 
L 454.42623 362.664607 
L 467.409836 360.031615 
L 480.393443 358.243331 
L 493.377049 357.874973 
L 506.360656 358.6313 
L 519.344262 360.556523 
L 532.327869 362.247145 
L 545.311475 358.458322 
L 558.295082 354.621451 
L 571.278689 351.323821 
L 584.262295 347.777005 
L 597.245902 345.616296 
L 610.229508 342.668922 
L 623.213115 340.122683 
L 636.196721 337.090516 
L 649.180328 333.328247 
L 662.163934 330.140179 
L 675.147541 325.666023 
L 688.131148 321.467856 
L 701.114754 317.25556 
L 714.098361 312.59808 
L 727.081967 308.382183 
L 740.065574 304.175237 
L 753.04918 300.620295 
L 766.032787 298.035651 
L 779.016393 296.400921 
" clip-path="url(#p3a45d68e82)" style="fill: none; stroke: #000000; stroke-width: 1.5; stroke-linecap: square"/>
   </g>
   <g id="line2d_6">
    <path d="M 0 459 
L 12.983607 459 
L 25.967213 449.117592 
L 38.95082 444.612633 
L 51.934426 444.931382 
L 64.918033 441.391556 
L 77.901639 440.145407 
L 90.885246 438.337575 
L 103.868852 439.599327 
L 116.852459 440.510074 
L 129.836066 437.853015 
L 142.819672 437.054291 
L 155.803279 436.222398 
L 168.786885 436.366354 
L 181.770492 432.906084 
L 194.754098 426.882275 
L 207.737705 422.391812 
L 220.721311 417.478673 
L 233.704918 413.740713 
L 246.688525 410.369217 
L 259.672131 407.33453 
L 272.655738 405.190011 
L 285.639344 402.496505 
L 298.622951 399.822825 
L 311.606557 397.624551 
L 324.590164 395.947448 
L 337.57377 393.999021 
L 350.557377 391.131973 
L 363.540984 388.060174 
L 376.52459 384.902137 
L 389.508197 382.749398 
L 402.491803 381.248023 
L 415.47541 379.740792 
L 428.459016 377.486804 
L 441.442623 375.928328 
L 454.42623 373.750617 
L 467.409836 371.508598 
L 480.393443 369.787405 
L 493.377049 368.951225 
L 506.360656 368.834681 
L 519.344262 369.474297 
L 532.327869 370.034841 
L 545.311475 367.373012 
L 558.295082 364.63912 
L 571.278689 362.183038 
L 584.262295 359.54979 
L 597.245902 357.698619 
L 610.229508 355.381029 
L 623.213115 353.276854 
L 636.196721 350.878101 
L 649.180328 348.035068 
L 662.163934 345.488827 
L 675.147541 342.179301 
L 688.131148 338.98083 
L 701.114754 335.734232 
L 714.098361 332.193472 
L 727.081967 328.858775 
L 740.065574 325.493637 
L 753.04918 322.467047 
L 766.032787 319.975074 
L 779.016393 318.025337 
" clip-path="url(#p3a45d68e82)" style="fill: none; stroke: #000000; stroke-width: 1.5; stroke-linecap: square"/>
   </g>
   <g id="line2d_7">
    <path d="M 0 459 
L 12.983607 459 
L 25.967213 449.222293 
L 38.95082 444.776078 
L 51.934426 445.042715 
L 64.918033 441.624869 
L 77.901639 440.400916 
L 90.885246 438.663051 
L 103.868852 439.793224 
L 116.852459 440.608867 
L 129.836066 438.173607 
L 142.819672 437.419367 
L 155.803279 436.640468 
L 168.786885 436.731633 
L 181.770492 433.661063 
L 194.754098 428.356706 
L 207.737705 424.372373 
L 220.721311 420.029779 
L 233.704918 416.688522 
L 246.688525 413.66434 
L 259.672131 410.931123 
L 272.655738 408.945365 
L 285.639344 406.521979 
L 298.622951 404.124774 
L 311.606557 402.121201 
L 324.590164 400.5462 
L 337.57377 398.767359 
L 350.557377 396.27307 
L 363.540984 393.623242 
L 376.52459 390.910068 
L 389.508197 388.977035 
L 402.491803 387.551987 
L 415.47541 386.133339 
L 428.459016 384.159724 
L 441.442623 382.713951 
L 454.42623 380.81462 
L 467.409836 378.872103 
L 480.393443 377.317172 
L 493.377049 376.416701 
L 506.360656 376.050648 
L 519.344262 376.244947 
L 532.327869 376.39983 
L 545.311475 374.27337 
L 558.295082 372.09049 
L 571.278689 370.098027 
L 584.262295 367.977914 
L 597.245902 366.399139 
L 610.229508 364.497839 
L 623.213115 362.741676 
L 636.196721 360.782402 
L 649.180328 358.516272 
L 662.163934 356.445828 
L 675.147541 353.854039 
L 688.131148 351.327089 
L 701.114754 348.758843 
L 714.098361 345.984336 
L 727.081967 343.335832 
L 740.065574 340.657624 
L 753.04918 338.194332 
L 766.032787 336.077931 
L 779.016393 334.316877 
" clip-path="url(#p3a45d68e82)" style="fill: none; stroke: #000000; stroke-width: 1.5; stroke-linecap: square"/>
   </g>
   <g id="line2d_8">
    <path d="M 0 459 
L 12.983607 459 
L 25.967213 449.274655 
L 38.95082 444.858145 
L 51.934426 445.099694 
L 64.918033 441.742223 
L 77.901639 440.530238 
L 90.885246 438.827624 
L 103.868852 439.895428 
L 116.852459 440.665563 
L 129.836066 438.33678 
L 142.819672 437.605366 
L 155.803279 436.8535 
L 168.786885 436.92167 
L 181.770492 434.036912 
L 194.754098 429.075965 
L 207.737705 425.3391 
L 220.721311 421.276666 
L 233.704918 418.13744 
L 246.688525 415.293985 
L 259.672131 412.721577 
L 272.655738 410.83181 
L 285.639344 408.555679 
L 298.622951 406.309574 
L 311.606557 404.420759 
L 324.590164 402.918807 
L 337.57377 401.243501 
L 350.557377 398.94514 
L 363.540984 396.515468 
L 376.52459 394.035144 
L 389.508197 392.236314 
L 402.491803 390.881954 
L 415.47541 389.539141 
L 428.459016 387.726708 
L 441.442623 386.368966 
L 454.42623 384.631287 
L 467.409836 382.86128 
L 480.393443 381.421652 
L 493.377049 380.535386 
L 506.360656 380.100799 
L 519.344262 380.138026 
L 532.327869 380.149081 
L 545.311475 378.285763 
L 558.295082 376.377322 
L 571.278689 374.625766 
L 584.262295 372.771799 
L 597.245902 371.358588 
L 610.229508 369.687165 
L 623.213115 368.134423 
L 636.196721 366.420732 
L 649.180328 364.463138 
L 662.163934 362.662168 
L 675.147541 360.448379 
L 688.131148 358.285621 
L 701.114754 356.090237 
L 714.098361 353.732504 
L 727.081967 351.472771 
L 740.065574 349.189513 
L 753.04918 347.073301 
L 766.032787 345.226845 
L 779.016393 343.656935 
" clip-path="url(#p3a45d68e82)" style="fill: none; stroke: #000000; stroke-width: 1.5; stroke-linecap: square"/>
   </g>
   <g id="line2d_9">
    <path d="M 0 459 
L 12.983607 459 
L 25.967213 449.300838 
L 38.95082 444.899261 
L 51.934426 445.128507 
L 64.918033 441.801065 
L 77.901639 440.595272 
L 90.885246 438.910337 
L 103.868852 439.947811 
L 116.852459 440.695722 
L 129.836066 438.419064 
L 142.819672 437.699178 
L 155.803279 436.960926 
L 168.786885 437.018423 
L 181.770492 434.224205 
L 194.754098 429.430571 
L 207.737705 425.815566 
L 220.721311 421.891297 
L 233.704918 418.853272 
L 246.688525 416.101148 
L 259.672131 413.610816 
L 272.655738 411.77237 
L 285.639344 409.572037 
L 298.622951 407.403766 
L 311.606557 405.575748 
L 324.590164 404.114938 
L 337.57377 402.495182 
L 350.557377 400.296083 
L 363.540984 397.977503 
L 376.52459 395.614732 
L 389.508197 393.887672 
L 402.491803 392.575508 
L 415.47541 391.277276 
L 428.459016 389.549266 
L 441.442623 388.242181 
L 454.42623 386.589459 
L 467.409836 384.909777 
L 480.393443 383.534331 
L 493.377049 382.665643 
L 506.360656 382.210259 
L 519.344262 382.185463 
L 532.327869 382.139883 
L 545.311475 380.406043 
L 558.295082 378.633097 
L 571.278689 377.002558 
L 584.262295 375.28187 
L 597.245902 373.956834 
L 610.229508 372.403315 
L 623.213115 370.957091 
L 636.196721 369.369642 
L 649.180328 367.567598 
L 662.163934 365.90543 
L 675.147541 363.880434 
L 688.131148 361.901481 
L 701.114754 359.895024 
L 714.098361 357.747305 
L 727.081967 355.686359 
L 740.065574 353.605968 
L 753.04918 351.672331 
L 766.032787 349.974745 
L 779.016393 348.518929 
" clip-path="url(#p3a45d68e82)" style="fill: none; stroke: #000000; stroke-width: 1.5; stroke-linecap: square"/>
   </g>
  </g>
 </g>
 <defs>
  <clipPath id="p3a45d68e82">
   <rect x="0" y="0" width="792" height="612"/>
  </clipPath>
 </defs>
</svg>
