<?xml version="1.0" encoding="utf-8" standalone="no"?>
<!DOCTYPE svg PUBLIC "-//W3C//DTD SVG 1.1//EN"
  "http://www.w3.org/Graphics/SVG/1.1/DTD/svg11.dtd">
<svg xmlns:xlink="http://www.w3.org/1999/xlink" width="792pt" height="612pt" viewBox="0 0 792 612" xmlns="http://www.w3.org/2000/svg" version="1.1">
 <metadata>
  <rdf:RDF xmlns:dc="http://purl.org/dc/elements/1.1/" xmlns:cc="http://creativecommons.org/ns#" xmlns:rdf="http://www.w3.org/1999/02/22-rdf-syntax-ns#">
   <cc:Work>
    <dc:type rdf:resource="http://purl.org/dc/dcmitype/StillImage"/>
    <dc:date>2023-01-16T16:11:01.462129</dc:date>
    <dc:format>image/svg+xml</dc:format>
    <dc:creator>
     <cc:Agent>
      <dc:title>Matplotlib v3.6.2, https://matplotlib.org/</dc:title>
     </cc:Agent>
    </dc:creator>
   </cc:Work>
  </rdf:RDF>
 </metadata>
 <defs>
  <style type="text/css">*{stroke-linejoin: round; stroke-linecap: butt}</style>
 </defs>
 <g id="figure_1">
  <g id="patch_1">
   <path d="M 0 612 
L 792 612 
L 792 0 
L 0 0 
z
" style="fill: #ffffff"/>
  </g>
  <g id="axes_1">
   <g id="line2d_1">
    <path d="M 0 459 
L 12.983607 459.493164 
L 25.967213 461.380794 
L 38.95082 464.33978 
L 51.934426 461.499833 
L 64.918033 462.333111 
L 77.901639 450.07315 
L 90.885246 446.656861 
L 103.868852 456.09207 
L 116.852459 439.31951 
L 129.836066 445.178571 
L 142.819672 439.625057 
L 155.803279 457.316446 
L 168.786885 456.806285 
L 181.770492 429.349449 
L 194.754098 441.305872 
L 207.737705 439.726911 
L 220.721311 448.135408 
L 233.704918 410.612265 
L 246.688525 377.629453 
L 259.672131 386.057004 
L 272.655738 374.569592 
L 285.639344 381.886113 
L 298.622951 381.241768 
L 311.606557 380.944484 
L 324.590164 388.844526 
L 337.57377 378.222557 
L 350.557377 374.865373 
L 363.540984 378.271995 
L 376.52459 383.225364 
L 389.508197 376.839085 
L 402.491803 359.975183 
L 415.47541 353.09196 
L 428.459016 347.842095 
L 441.442623 360.315737 
L 454.42623 368.571441 
L 467.409836 366.611697 
L 480.393443 351.885215 
L 493.377049 361.289376 
L 506.360656 348.466637 
L 519.344262 344.72598 
L 532.327869 351.451168 
L 545.311475 365.730951 
L 558.295082 378.321435 
L 571.278689 392.735949 
L 584.262295 391.936896 
L 597.245902 330.822157 
L 610.229508 328.614586 
L 623.213115 322.496381 
L 636.196721 334.594507 
L 649.180328 323.473661 
L 662.163934 325.058778 
L 675.147541 316.9843 
L 688.131148 305.733527 
L 701.114754 308.41375 
L 714.098361 290.87424 
L 727.081967 289.462573 
L 740.065574 285.118778 
L 753.04918 276.024766 
L 766.032787 276.239363 
L 779.016393 272.135793 
" clip-path="url(#pc29e9eaba9)" style="fill: none; stroke: #000000; stroke-width: 1.5; stroke-linecap: square"/>
   </g>
   <g id="line2d_2">
    <path d="M 0 459 
L 12.983607 459 
L 25.967213 459.328776 
L 38.95082 460.501358 
L 51.934426 462.548516 
L 64.918033 462.00726 
L 77.901639 462.172772 
L 90.885246 459.074182 
L 103.868852 452.913928 
L 116.852459 454.497243 
L 129.836066 446.863583 
L 142.819672 445.979953 
L 155.803279 442.732392 
L 168.786885 450.004153 
L 181.770492 453.381008 
L 194.754098 441.312464 
L 207.737705 441.29868 
L 220.721311 440.480682 
L 233.704918 444.32431 
L 246.688525 427.357705 
L 259.672131 402.203345 
L 272.655738 393.971567 
L 285.639344 384.077457 
L 298.622951 382.889501 
L 311.606557 381.949495 
L 324.590164 381.333493 
L 337.57377 384.969638 
L 350.557377 381.528817 
L 363.540984 378.187273 
L 376.52459 378.214415 
L 389.508197 380.734483 
L 402.491803 378.775402 
L 415.47541 369.294534 
L 428.459016 361.106987 
L 441.442623 354.372137 
L 454.42623 357.304735 
L 467.409836 362.91071 
L 480.393443 364.736896 
L 493.377049 358.229382 
L 506.360656 359.727995 
L 519.344262 354.058093 
L 532.327869 349.36361 
L 545.311475 350.413877 
L 558.295082 358.053446 
L 571.278689 368.160376 
L 584.262295 380.441393 
L 597.245902 386.256908 
L 610.229508 358.092667 
L 623.213115 343.186994 
L 636.196721 332.72877 
L 649.180328 333.628401 
L 662.163934 328.452383 
L 675.147541 326.652164 
L 688.131148 321.658517 
L 701.114754 313.485423 
L 714.098361 310.901166 
L 727.081967 300.729285 
L 740.065574 295.004008 
L 753.04918 289.944823 
L 766.032787 282.84699 
L 779.016393 279.440012 
" clip-path="url(#pc29e9eaba9)" style="fill: none; stroke: #000000; stroke-width: 1.5; stroke-linecap: square"/>
   </g>
   <g id="line2d_3">
    <path d="M 0 459 
L 12.983607 459 
L 25.967213 459.288889 
L 38.95082 460.236693 
L 51.934426 461.839048 
L 64.918033 461.718359 
L 77.901639 461.924138 
L 90.885246 460.028476 
L 103.868852 457.264322 
L 116.852459 456.905098 
L 129.836066 451.585232 
L 142.819672 449.665946 
L 155.803279 446.676987 
L 168.786885 449.827161 
L 181.770492 451.887099 
L 194.754098 445.240849 
L 207.737705 444.083565 
L 220.721311 442.785094 
L 233.704918 444.337607 
L 246.688525 434.363012 
L 259.672131 417.475873 
L 272.655738 408.127123 
L 285.639344 398.116554 
L 298.622951 393.26722 
L 311.606557 389.660436 
L 324.590164 387.016935 
L 337.57377 387.494807 
L 350.557377 384.696624 
L 363.540984 381.736083 
L 376.52459 380.631425 
L 389.508197 381.307769 
L 402.491803 379.937833 
L 415.47541 373.963205 
L 428.459016 367.710285 
L 441.442623 361.737723 
L 454.42623 361.264359 
L 467.409836 363.389059 
L 480.393443 364.309839 
L 493.377049 360.628784 
L 506.360656 360.798794 
L 519.344262 357.133068 
L 532.327869 353.440684 
L 545.311475 352.815268 
L 558.295082 356.566735 
L 571.278689 362.897409 
L 584.262295 371.578184 
L 597.245902 377.518085 
L 610.229508 363.556545 
L 623.213115 353.144106 
L 636.196721 344.013543 
L 649.180328 341.228404 
L 662.163934 335.943964 
L 675.147541 332.690424 
L 688.131148 327.998768 
L 701.114754 321.34889 
L 714.098361 317.474707 
L 727.081967 309.497773 
L 740.065574 303.496165 
L 753.04918 297.977156 
L 766.032787 291.354477 
L 779.016393 286.770993 
" clip-path="url(#pc29e9eaba9)" style="fill: none; stroke: #000000; stroke-width: 1.5; stroke-linecap: square"/>
   </g>
   <g id="line2d_4">
    <path d="M 0 459 
L 12.983607 459 
L 25.967213 459.267894 
L 38.95082 460.097131 
L 51.934426 461.447172 
L 64.918033 461.461629 
L 77.901639 461.676119 
L 90.885246 460.396379 
L 103.868852 459.227126 
L 116.852459 458.95829 
L 129.836066 455.160478 
L 142.819672 453.294458 
L 155.803279 450.80745 
L 168.786885 451.964529 
L 181.770492 452.809478 
L 194.754098 448.771479 
L 207.737705 447.503997 
L 220.721311 446.197413 
L 233.704918 446.519982 
L 246.688525 440.563965 
L 259.672131 430.115083 
L 272.655738 422.85723 
L 285.639344 414.916261 
L 298.622951 409.520695 
L 311.606557 404.918221 
L 324.590164 401.029206 
L 337.57377 399.062833 
L 350.557377 395.696585 
L 363.540984 392.33581 
L 376.52459 390.074051 
L 389.508197 388.97615 
L 402.491803 387.028865 
L 415.47541 382.667699 
L 428.459016 377.845954 
L 441.442623 372.947376 
L 454.42623 370.863484 
L 467.409836 370.433838 
L 480.393443 369.764115 
L 493.377049 366.827687 
L 506.360656 365.890577 
L 519.344262 363.038166 
L 532.327869 360.033699 
L 545.311475 358.609738 
L 558.295082 359.691429 
L 571.278689 362.597387 
L 584.262295 367.303192 
L 597.245902 371.150627 
L 610.229508 364.559428 
L 623.213115 358.676205 
L 636.196721 352.745689 
L 649.180328 349.763698 
L 662.163934 345.470815 
L 675.147541 342.155917 
L 688.131148 338.052907 
L 701.114754 332.770298 
L 714.098361 328.793561 
L 727.081967 322.555663 
L 740.065574 317.116856 
L 753.04918 311.84838 
L 766.032787 305.934499 
L 779.016393 301.043129 
" clip-path="url(#pc29e9eaba9)" style="fill: none; stroke: #000000; stroke-width: 1.5; stroke-linecap: square"/>
   </g>
   <g id="line2d_5">
    <path d="M 0 459 
L 12.983607 459 
L 25.967213 459.257258 
L 38.95082 460.027241 
L 51.934426 461.249267 
L 64.918033 461.308417 
L 77.901639 461.518201 
L 90.885246 460.515453 
L 103.868852 459.580781 
L 116.852459 459.343195 
L 129.836066 457.062037 
L 142.819672 455.456384 
L 155.803279 453.422566 
L 168.786885 453.900754 
L 181.770492 454.243911 
L 194.754098 451.399187 
L 207.737705 450.281708 
L 220.721311 449.144502 
L 233.704918 449.038454 
L 246.688525 445.071925 
L 259.672131 438.195313 
L 272.655738 432.98416 
L 285.639344 427.220437 
L 298.622951 422.822274 
L 311.606557 418.841339 
L 324.590164 415.256926 
L 337.57377 412.792181 
L 350.557377 409.588519 
L 363.540984 406.397074 
L 376.52459 403.83706 
L 389.508197 401.978467 
L 402.491803 399.722866 
L 415.47541 396.157818 
L 428.459016 392.308438 
L 441.442623 388.348183 
L 454.42623 385.878864 
L 467.409836 384.366736 
L 480.393443 382.820962 
L 493.377049 380.121601 
L 506.360656 378.491663 
L 519.344262 375.887154 
L 532.327869 373.188777 
L 545.311475 371.318756 
L 558.295082 370.842462 
L 571.278689 371.47539 
L 584.262295 373.262786 
L 597.245902 374.831613 
L 610.229508 371.039912 
L 623.213115 367.390077 
L 636.196721 363.524352 
L 649.180328 361.056756 
L 662.163934 357.837487 
L 675.147541 355.038867 
L 688.131148 351.78066 
L 701.114754 347.817908 
L 714.098361 344.44155 
L 727.081967 339.804023 
L 740.065574 335.453344 
L 753.04918 331.100316 
L 766.032787 326.314615 
L 779.016393 321.977534 
" clip-path="url(#pc29e9eaba9)" style="fill: none; stroke: #000000; stroke-width: 1.5; stroke-linecap: square"/>
   </g>
   <g id="line2d_6">
    <path d="M 0 459 
L 12.983607 459 
L 25.967213 459.251923 
L 38.95082 459.992501 
L 51.934426 461.150931 
L 64.918033 461.226884 
L 77.901639 461.431784 
L 90.885246 460.555318 
L 103.868852 459.734478 
L 116.852459 459.51075 
L 129.836066 457.972771 
L 142.819672 456.541374 
L 155.803279 454.771145 
L 168.786885 455.021742 
L 181.770492 455.188114 
L 194.754098 452.892282 
L 207.737705 451.90932 
L 220.721311 450.917741 
L 233.704918 450.699873 
L 246.688525 447.657807 
L 259.672131 442.476372 
L 272.655738 438.435097 
L 285.639344 433.973339 
L 298.622951 430.436642 
L 311.606557 427.177192 
L 324.590164 424.183831 
L 337.57377 421.949987 
L 350.557377 419.23325 
L 363.540984 416.526265 
L 376.52459 414.236715 
L 389.508197 412.414891 
L 402.491803 410.354024 
L 415.47541 407.462039 
L 428.459016 404.377133 
L 441.442623 401.205973 
L 454.42623 398.954241 
L 467.409836 397.306991 
L 480.393443 395.660761 
L 493.377049 393.324439 
L 506.360656 391.639609 
L 519.344262 389.37885 
L 532.327869 387.058899 
L 545.311475 385.231658 
L 558.295082 384.245776 
L 571.278689 383.950123 
L 584.262295 384.383169 
L 597.245902 384.753036 
L 610.229508 382.059921 
L 623.213115 379.406634 
L 636.196721 376.590602 
L 649.180328 374.54024 
L 662.163934 372.046635 
L 675.147541 369.768104 
L 688.131148 367.210673 
L 701.114754 364.226893 
L 714.098361 361.537865 
L 727.081967 358.108619 
L 740.065574 354.791436 
L 753.04918 351.430591 
L 766.032787 347.784358 
L 779.016393 344.342804 
" clip-path="url(#pc29e9eaba9)" style="fill: none; stroke: #000000; stroke-width: 1.5; stroke-linecap: square"/>
   </g>
   <g id="line2d_7">
    <path d="M 0 459 
L 12.983607 459 
L 25.967213 459.249253 
L 38.95082 459.975211 
L 51.934426 461.102058 
L 64.918033 461.185096 
L 77.901639 461.386941 
L 90.885246 460.570136 
L 103.868852 459.804416 
L 116.852459 459.589832 
L 129.836066 458.40813 
L 142.819672 457.070599 
L 155.803279 455.43642 
L 168.786885 455.600565 
L 181.770492 455.69933 
L 194.754098 453.660982 
L 207.737705 452.756608 
L 220.721311 451.84968 
L 233.704918 451.603142 
L 246.688525 448.989237 
L 259.672131 444.590327 
L 272.655738 441.126517 
L 285.639344 437.316893 
L 298.622951 434.25821 
L 311.606557 431.426429 
L 324.590164 428.812283 
L 337.57377 426.807298 
L 350.557377 424.43031 
L 363.540984 422.066981 
L 376.52459 420.033733 
L 389.508197 418.368651 
L 402.491803 416.529685 
L 415.47541 414.066015 
L 428.459016 411.459051 
L 441.442623 408.788624 
L 454.42623 406.804316 
L 467.409836 405.273602 
L 480.393443 403.752602 
L 493.377049 401.735496 
L 506.360656 400.195213 
L 519.344262 398.246413 
L 532.327869 396.258275 
L 545.311475 394.624147 
L 558.295082 393.592106 
L 571.278689 393.056857 
L 584.262295 393.045813 
L 597.245902 393.008131 
L 610.229508 390.866689 
L 623.213115 388.747081 
L 636.196721 386.510814 
L 649.180328 384.790554 
L 662.163934 382.769266 
L 675.147541 380.889554 
L 688.131148 378.820359 
L 701.114754 376.461564 
L 714.098361 374.291624 
L 727.081967 371.625252 
L 740.065574 369.021721 
L 753.04918 366.379385 
L 766.032787 363.539395 
L 779.016393 360.82074 
" clip-path="url(#pc29e9eaba9)" style="fill: none; stroke: #000000; stroke-width: 1.5; stroke-linecap: square"/>
   </g>
   <g id="line2d_8">
    <path d="M 0 459 
L 12.983607 459 
L 25.967213 459.247917 
L 38.95082 459.96659 
L 51.934426 461.077712 
L 64.918033 461.163975 
L 77.901639 461.364145 
L 90.885246 460.576259 
L 103.868852 459.837546 
L 116.852459 459.627976 
L 129.836066 458.619614 
L 142.819672 457.33007 
L 155.803279 455.764218 
L 168.786885 455.89153 
L 181.770492 455.961568 
L 194.754098 454.046968 
L 207.737705 453.18388 
L 220.721311 452.321316 
L 233.704918 452.066705 
L 246.688525 449.656082 
L 259.672131 445.626762 
L 272.655738 442.443003 
L 285.639344 438.95098 
L 298.622951 436.133934 
L 311.606557 433.523195 
L 324.590164 431.110046 
L 337.57377 429.239507 
L 350.557377 427.047664 
L 363.540984 424.87269 
L 376.52459 422.990014 
L 389.508197 421.431708 
L 402.491803 419.728811 
L 415.47541 417.494047 
L 428.459016 415.140512 
L 441.442623 412.736476 
L 454.42623 410.918081 
L 467.409836 409.487562 
L 480.393443 408.070452 
L 493.377049 406.242708 
L 506.360656 404.816662 
L 519.344262 403.055815 
L 532.327869 401.266057 
L 545.311475 399.771537 
L 558.295082 398.775322 
L 571.278689 398.190303 
L 584.262295 398.03775 
L 597.245902 397.869959 
L 610.229508 396.009564 
L 623.213115 394.167846 
L 636.196721 392.233813 
L 649.180328 390.712729 
L 662.163934 388.954386 
L 675.147541 387.30966 
L 688.131148 385.517024 
L 701.114754 383.497652 
L 714.098361 381.626776 
L 727.081967 379.368763 
L 740.065574 377.159137 
L 753.04918 374.919036 
L 766.032787 372.525465 
L 779.016393 370.224481 
" clip-path="url(#pc29e9eaba9)" style="fill: none; stroke: #000000; stroke-width: 1.5; stroke-linecap: square"/>
   </g>
   <g id="line2d_9">
    <path d="M 0 459 
L 12.983607 459 
L 25.967213 459.24725 
L 38.95082 459.962286 
L 51.934426 461.065565 
L 64.918033 461.153362 
L 77.901639 461.352658 
L 90.885246 460.579 
L 103.868852 459.85364 
L 116.852459 459.646673 
L 129.836066 458.723667 
L 142.819672 457.458299 
L 155.803279 455.926588 
L 168.786885 456.037006 
L 181.770492 456.093909 
L 194.754098 454.239841 
L 207.737705 453.397771 
L 220.721311 452.55776 
L 233.704918 452.300562 
L 246.688525 449.988611 
L 259.672131 446.138071 
L 272.655738 443.091339 
L 285.639344 439.75491 
L 298.622951 437.058101 
L 311.606557 434.558326 
L 324.590164 432.247071 
L 337.57377 430.447327 
L 350.557377 428.350335 
L 363.540984 426.27204 
L 376.52459 424.468619 
L 389.508197 422.969237 
L 402.491803 421.339043 
L 415.47541 419.220534 
L 428.459016 416.995196 
L 441.442623 414.725978 
L 454.42623 412.996326 
L 467.409836 411.624325 
L 480.393443 410.267486 
L 493.377049 408.539596 
L 506.360656 407.179115 
L 519.344262 405.517914 
L 532.327869 403.832991 
L 545.311475 402.416747 
L 558.295082 401.451442 
L 571.278689 400.858011 
L 584.262295 400.654713 
L 597.245902 400.440652 
L 610.229508 398.72044 
L 623.213115 397.018353 
L 636.196721 395.235864 
L 649.180328 393.820536 
L 662.163934 392.197353 
L 675.147541 390.67592 
L 688.131148 389.026019 
L 701.114754 387.178583 
L 714.098361 385.462538 
L 727.081967 383.4095 
L 740.065574 381.399731 
L 753.04918 379.36455 
L 766.032787 377.197114 
L 779.016393 375.110901 
" clip-path="url(#pc29e9eaba9)" style="fill: none; stroke: #000000; stroke-width: 1.5; stroke-linecap: square"/>
   </g>
  </g>
 </g>
 <defs>
  <clipPath id="pc29e9eaba9">
   <rect x="0" y="0" width="792" height="612"/>
  </clipPath>
 </defs>
</svg>
