<?xml version="1.0" encoding="utf-8" standalone="no"?>
<!DOCTYPE svg PUBLIC "-//W3C//DTD SVG 1.1//EN"
  "http://www.w3.org/Graphics/SVG/1.1/DTD/svg11.dtd">
<svg xmlns:xlink="http://www.w3.org/1999/xlink" width="792pt" height="612pt" viewBox="0 0 792 612" xmlns="http://www.w3.org/2000/svg" version="1.1">
 <metadata>
  <rdf:RDF xmlns:dc="http://purl.org/dc/elements/1.1/" xmlns:cc="http://creativecommons.org/ns#" xmlns:rdf="http://www.w3.org/1999/02/22-rdf-syntax-ns#">
   <cc:Work>
    <dc:type rdf:resource="http://purl.org/dc/dcmitype/StillImage"/>
    <dc:date>2023-01-02T15:37:55.698852</dc:date>
    <dc:format>image/svg+xml</dc:format>
    <dc:creator>
     <cc:Agent>
      <dc:title>Matplotlib v3.6.2, https://matplotlib.org/</dc:title>
     </cc:Agent>
    </dc:creator>
   </cc:Work>
  </rdf:RDF>
 </metadata>
 <defs>
  <style type="text/css">*{stroke-linejoin: round; stroke-linecap: butt}</style>
 </defs>
 <g id="figure_1">
  <g id="patch_1">
   <path d="M 0 612 
L 792 612 
L 792 0 
L 0 0 
z
" style="fill: #ffffff"/>
  </g>
  <g id="axes_1">
   <g id="line2d_1">
    <path d="M 0 459 
L 41.684211 462.942852 
L 83.368421 462.500906 
L 125.052632 461.617014 
L 166.736842 466.417762 
L 208.421053 464.90128 
L 250.105263 461.62568 
L 291.789474 462.665553 
L 333.473684 463.783416 
L 375.157895 465.793838 
L 416.842105 464.788627 
L 458.526316 462.370922 
L 500.210526 460.611803 
L 541.894737 462.882193 
L 583.578947 456.816283 
L 625.263158 451.019778 
L 666.947368 457.908135 
L 708.631579 454.42471 
L 750.315789 451.383628 
" clip-path="url(#p0a5a7d9d9a)" style="fill: none; stroke: #000000; stroke-width: 1.5; stroke-linecap: square"/>
   </g>
   <g id="line2d_2">
    <path d="M 0 459 
L 41.684211 459 
L 83.368421 461.628568 
L 125.052632 462.127047 
L 166.736842 461.855029 
L 208.421053 464.209988 
L 250.105263 464.56112 
L 291.789474 463.081843 
L 333.473684 462.872882 
L 375.157895 463.337528 
L 416.842105 464.571273 
L 458.526316 464.684436 
L 500.210526 463.529157 
L 541.894737 462.059096 
L 583.578947 462.466686 
L 625.263158 460.362812 
L 666.947368 457.016505 
L 708.631579 457.432041 
L 750.315789 455.879409 
" clip-path="url(#p0a5a7d9d9a)" style="fill: none; stroke: #000000; stroke-width: 1.5; stroke-linecap: square"/>
   </g>
   <g id="line2d_3">
    <path d="M 0 459 
L 41.684211 459 
L 83.368421 461.309669 
L 125.052632 461.849397 
L 166.736842 461.758646 
L 208.421053 463.416305 
L 250.105263 463.913378 
L 291.789474 463.17836 
L 333.473684 463.018149 
L 375.157895 463.252654 
L 416.842105 464.020959 
L 458.526316 464.250885 
L 500.210526 463.691516 
L 541.894737 462.779412 
L 583.578947 462.809753 
L 625.263158 461.473319 
L 666.947368 459.963808 
L 708.631579 459.574497 
L 750.315789 458.859735 
" clip-path="url(#p0a5a7d9d9a)" style="fill: none; stroke: #000000; stroke-width: 1.5; stroke-linecap: square"/>
   </g>
   <g id="line2d_4">
    <path d="M 0 459 
L 41.684211 459 
L 83.368421 461.141811 
L 125.052632 461.675207 
L 166.736842 461.65669 
L 208.421053 462.96374 
L 250.105263 463.440608 
L 291.789474 463.029676 
L 333.473684 462.952431 
L 375.157895 463.119837 
L 416.842105 463.636638 
L 458.526316 463.851927 
L 500.210526 463.582632 
L 541.894737 463.054443 
L 583.578947 463.02438 
L 625.263158 462.207563 
L 666.947368 461.211718 
L 708.631579 460.779187 
L 750.315789 460.229147 
" clip-path="url(#p0a5a7d9d9a)" style="fill: none; stroke: #000000; stroke-width: 1.5; stroke-linecap: square"/>
   </g>
   <g id="line2d_5">
    <path d="M 0 459 
L 41.684211 459 
L 83.368421 461.056778 
L 125.052632 461.580411 
L 166.736842 461.590783 
L 208.421053 462.730266 
L 250.105263 463.174733 
L 291.789474 462.892015 
L 333.473684 462.854424 
L 375.157895 462.996812 
L 416.842105 463.397366 
L 458.526316 463.585289 
L 500.210526 463.429379 
L 541.894737 463.083344 
L 583.578947 463.059586 
L 625.263158 462.513314 
L 666.947368 461.83013 
L 708.631579 461.486184 
L 750.315789 461.064641 
" clip-path="url(#p0a5a7d9d9a)" style="fill: none; stroke: #000000; stroke-width: 1.5; stroke-linecap: square"/>
   </g>
   <g id="line2d_6">
    <path d="M 0 459 
L 41.684211 459 
L 83.368421 461.014122 
L 125.052632 461.531335 
L 166.736842 461.554166 
L 208.421053 462.612936 
L 250.105263 463.036792 
L 291.789474 462.808085 
L 333.473684 462.787454 
L 375.157895 462.918235 
L 416.842105 463.265001 
L 458.526316 463.435409 
L 500.210526 463.324084 
L 541.894737 463.057037 
L 583.578947 463.040736 
L 625.263158 462.617655 
L 666.947368 462.085322 
L 708.631579 461.804741 
L 750.315789 461.465732 
" clip-path="url(#p0a5a7d9d9a)" style="fill: none; stroke: #000000; stroke-width: 1.5; stroke-linecap: square"/>
   </g>
   <g id="line2d_7">
    <path d="M 0 459 
L 41.684211 459 
L 83.368421 460.992777 
L 125.052632 461.506414 
L 166.736842 461.534969 
L 208.421053 462.554285 
L 250.105263 462.966935 
L 291.789474 462.762654 
L 333.473684 462.749577 
L 375.157895 462.874649 
L 416.842105 463.195833 
L 458.526316 463.356818 
L 500.210526 463.264523 
L 541.894737 463.032909 
L 583.578947 463.020563 
L 625.263158 462.653777 
L 666.947368 462.191839 
L 708.631579 461.944494 
L 750.315789 461.647859 
" clip-path="url(#p0a5a7d9d9a)" style="fill: none; stroke: #000000; stroke-width: 1.5; stroke-linecap: square"/>
   </g>
   <g id="line2d_8">
    <path d="M 0 459 
L 41.684211 459 
L 83.368421 460.982102 
L 125.052632 461.493863 
L 166.736842 461.525153 
L 208.421053 462.524984 
L 250.105263 462.931834 
L 291.789474 462.739123 
L 333.473684 462.729575 
L 375.157895 462.851804 
L 416.842105 463.160552 
L 458.526316 463.316703 
L 500.210526 463.233109 
L 541.894737 463.018109 
L 583.578947 463.007702 
L 625.263158 462.667502 
L 666.947368 462.23908 
L 708.631579 462.008279 
L 750.315789 461.732571 
" clip-path="url(#p0a5a7d9d9a)" style="fill: none; stroke: #000000; stroke-width: 1.5; stroke-linecap: square"/>
   </g>
   <g id="line2d_9">
    <path d="M 0 459 
L 41.684211 459 
L 83.368421 460.976764 
L 125.052632 461.487565 
L 166.736842 461.520191 
L 208.421053 462.510342 
L 250.105263 462.914246 
L 291.789474 462.727161 
L 333.473684 462.719313 
L 375.157895 462.840124 
L 416.842105 463.142745 
L 458.526316 463.296455 
L 500.210526 463.217009 
L 541.894737 463.010033 
L 583.578947 463.000577 
L 625.263158 462.673255 
L 666.947368 462.261126 
L 708.631579 462.038523 
L 750.315789 461.773148 
" clip-path="url(#p0a5a7d9d9a)" style="fill: none; stroke: #000000; stroke-width: 1.5; stroke-linecap: square"/>
   </g>
  </g>
 </g>
 <defs>
  <clipPath id="p0a5a7d9d9a">
   <rect x="0" y="0" width="792" height="612"/>
  </clipPath>
 </defs>
</svg>
