<?xml version="1.0" encoding="utf-8" standalone="no"?>
<!DOCTYPE svg PUBLIC "-//W3C//DTD SVG 1.1//EN"
  "http://www.w3.org/Graphics/SVG/1.1/DTD/svg11.dtd">
<svg xmlns:xlink="http://www.w3.org/1999/xlink" width="792pt" height="612pt" viewBox="0 0 792 612" xmlns="http://www.w3.org/2000/svg" version="1.1">
 <metadata>
  <rdf:RDF xmlns:dc="http://purl.org/dc/elements/1.1/" xmlns:cc="http://creativecommons.org/ns#" xmlns:rdf="http://www.w3.org/1999/02/22-rdf-syntax-ns#">
   <cc:Work>
    <dc:type rdf:resource="http://purl.org/dc/dcmitype/StillImage"/>
    <dc:date>2022-12-19T20:27:03.499008</dc:date>
    <dc:format>image/svg+xml</dc:format>
    <dc:creator>
     <cc:Agent>
      <dc:title>Matplotlib v3.6.2, https://matplotlib.org/</dc:title>
     </cc:Agent>
    </dc:creator>
   </cc:Work>
  </rdf:RDF>
 </metadata>
 <defs>
  <style type="text/css">*{stroke-linejoin: round; stroke-linecap: butt}</style>
 </defs>
 <g id="figure_1">
  <g id="patch_1">
   <path d="M 0 612 
L 792 612 
L 792 0 
L 0 0 
z
" style="fill: #ffffff"/>
  </g>
  <g id="axes_1">
   <g id="line2d_1">
    <path d="M 0 306 
L 41.684211 303.539587 
L 83.368421 311.018901 
L 125.052632 307.476268 
L 166.736842 307.804321 
L 208.421053 308.87046 
L 250.105263 298.374134 
L 291.789474 308.706442 
L 333.473684 306.885765 
L 375.157895 314.756869 
L 416.842105 301.620669 
L 458.526316 302.260277 
L 500.210526 307.345046 
L 541.894737 308.394805 
L 583.578947 313.330787 
L 625.263158 313.461935 
L 666.947368 305.163444 
L 708.631579 304.3269 
L 750.315789 315.084652 
" clip-path="url(#p57429f62bf)" style="fill: none; stroke: #000000; stroke-width: 1.5; stroke-linecap: square"/>
   </g>
   <g id="line2d_2">
    <path d="M 0 306 
L 41.684211 306 
L 83.368421 304.359705 
L 125.052632 308.165174 
L 166.736842 307.79776 
L 208.421053 307.801146 
L 250.105263 308.344297 
L 291.789474 303.319258 
L 333.473684 306.023415 
L 375.157895 306.456328 
L 416.842105 310.62944 
L 458.526316 306.106652 
L 500.210526 304.173166 
L 541.894737 305.758199 
L 583.578947 307.075589 
L 625.263158 310.232954 
L 666.947368 311.856931 
L 708.631579 308.507111 
L 750.315789 306.396569 
" clip-path="url(#p57429f62bf)" style="fill: none; stroke: #000000; stroke-width: 1.5; stroke-linecap: square"/>
   </g>
   <g id="line2d_3">
    <path d="M 0 306 
L 41.684211 306 
L 83.368421 304.558703 
L 125.052632 307.485888 
L 166.736842 307.482131 
L 208.421053 307.596763 
L 250.105263 308.023122 
L 291.789474 304.9225 
L 333.473684 306.104696 
L 375.157895 306.344044 
L 416.842105 308.888227 
L 458.526316 306.711478 
L 500.210526 305.387004 
L 541.894737 305.96691 
L 583.578947 306.683637 
L 625.263158 308.641705 
L 666.947368 310.059298 
L 708.631579 308.624478 
L 750.315789 307.366682 
" clip-path="url(#p57429f62bf)" style="fill: none; stroke: #000000; stroke-width: 1.5; stroke-linecap: square"/>
   </g>
   <g id="line2d_4">
    <path d="M 0 306 
L 41.684211 306 
L 83.368421 304.66345 
L 125.052632 307.157903 
L 166.736842 307.259209 
L 208.421053 307.408859 
L 250.105263 307.768597 
L 291.789474 305.641178 
L 333.473684 306.291453 
L 375.157895 306.41118 
L 416.842105 308.024576 
L 458.526316 306.827754 
L 500.210526 305.997205 
L 541.894737 306.236842 
L 583.578947 306.613479 
L 625.263158 307.768262 
L 666.947368 308.734733 
L 708.631579 308.135034 
L 750.315789 307.501146 
" clip-path="url(#p57429f62bf)" style="fill: none; stroke: #000000; stroke-width: 1.5; stroke-linecap: square"/>
   </g>
   <g id="line2d_5">
    <path d="M 0 306 
L 41.684211 306 
L 83.368421 304.716512 
L 125.052632 307.001879 
L 166.736842 307.136306 
L 208.421053 307.294002 
L 250.105263 307.616755 
L 291.789474 305.929604 
L 333.473684 306.390548 
L 375.157895 306.466451 
L 416.842105 307.654024 
L 458.526316 306.839045 
L 500.210526 306.251165 
L 541.894737 306.385509 
L 583.578947 306.622833 
L 625.263158 307.388386 
L 666.947368 308.060634 
L 708.631579 307.748667 
L 750.315789 307.389086 
" clip-path="url(#p57429f62bf)" style="fill: none; stroke: #000000; stroke-width: 1.5; stroke-linecap: square"/>
   </g>
   <g id="line2d_6">
    <path d="M 0 306 
L 41.684211 306 
L 83.368421 304.74313 
L 125.052632 306.926454 
L 166.736842 307.072965 
L 208.421053 307.232178 
L 250.105263 307.535635 
L 291.789474 306.050538 
L 333.473684 306.434994 
L 375.157895 306.494186 
L 416.842105 307.490852 
L 458.526316 306.834284 
L 500.210526 306.355912 
L 541.894737 306.453301 
L 583.578947 306.634315 
L 625.263158 307.228554 
L 666.947368 307.757216 
L 708.631579 307.546231 
L 750.315789 307.294176 
" clip-path="url(#p57429f62bf)" style="fill: none; stroke: #000000; stroke-width: 1.5; stroke-linecap: square"/>
   </g>
   <g id="line2d_7">
    <path d="M 0 306 
L 41.684211 306 
L 83.368421 304.75645 
L 125.052632 306.889457 
L 166.736842 307.040961 
L 208.421053 307.200319 
L 250.105263 307.493972 
L 291.789474 306.104738 
L 333.473684 306.455143 
L 375.157895 306.507239 
L 416.842105 307.415159 
L 458.526316 306.829484 
L 500.210526 306.401722 
L 541.894737 306.484086 
L 583.578947 306.640607 
L 625.263158 307.15748 
L 666.947368 307.618809 
L 708.631579 307.448014 
L 750.315789 307.240879 
" clip-path="url(#p57429f62bf)" style="fill: none; stroke: #000000; stroke-width: 1.5; stroke-linecap: square"/>
   </g>
   <g id="line2d_8">
    <path d="M 0 306 
L 41.684211 306 
L 83.368421 304.763112 
L 125.052632 306.871144 
L 166.736842 307.024893 
L 208.421053 307.184174 
L 250.105263 307.472894 
L 291.789474 306.130236 
L 333.473684 306.464609 
L 375.157895 306.513457 
L 416.842105 307.378793 
L 458.526316 306.8265 
L 500.210526 306.422894 
L 541.894737 306.49853 
L 583.578947 306.643721 
L 625.263158 307.124208 
L 666.947368 307.553391 
L 708.631579 307.4003 
L 750.315789 307.213388 
" clip-path="url(#p57429f62bf)" style="fill: none; stroke: #000000; stroke-width: 1.5; stroke-linecap: square"/>
   </g>
   <g id="line2d_9">
    <path d="M 0 306 
L 41.684211 306 
L 83.368421 304.766443 
L 125.052632 306.862036 
L 166.736842 307.016844 
L 208.421053 307.176051 
L 250.105263 307.462298 
L 291.789474 306.142582 
L 333.473684 306.46918 
L 375.157895 306.516476 
L 416.842105 307.360977 
L 458.526316 306.824865 
L 500.210526 306.433037 
L 541.894737 306.505494 
L 583.578947 306.64525 
L 625.263158 307.108138 
L 666.947368 307.52167 
L 708.631579 307.376863 
L 750.315789 307.19951 
" clip-path="url(#p57429f62bf)" style="fill: none; stroke: #000000; stroke-width: 1.5; stroke-linecap: square"/>
   </g>
  </g>
 </g>
 <defs>
  <clipPath id="p57429f62bf">
   <rect x="0" y="0" width="792" height="612"/>
  </clipPath>
 </defs>
</svg>
