<?xml version="1.0" encoding="utf-8" standalone="no"?>
<!DOCTYPE svg PUBLIC "-//W3C//DTD SVG 1.1//EN"
  "http://www.w3.org/Graphics/SVG/1.1/DTD/svg11.dtd">
<svg xmlns:xlink="http://www.w3.org/1999/xlink" width="792pt" height="612pt" viewBox="0 0 792 612" xmlns="http://www.w3.org/2000/svg" version="1.1">
 <metadata>
  <rdf:RDF xmlns:dc="http://purl.org/dc/elements/1.1/" xmlns:cc="http://creativecommons.org/ns#" xmlns:rdf="http://www.w3.org/1999/02/22-rdf-syntax-ns#">
   <cc:Work>
    <dc:type rdf:resource="http://purl.org/dc/dcmitype/StillImage"/>
    <dc:date>2023-01-09T02:27:41.987175</dc:date>
    <dc:format>image/svg+xml</dc:format>
    <dc:creator>
     <cc:Agent>
      <dc:title>Matplotlib v3.6.2, https://matplotlib.org/</dc:title>
     </cc:Agent>
    </dc:creator>
   </cc:Work>
  </rdf:RDF>
 </metadata>
 <defs>
  <style type="text/css">*{stroke-linejoin: round; stroke-linecap: butt}</style>
 </defs>
 <g id="figure_1">
  <g id="patch_1">
   <path d="M 0 612 
L 792 612 
L 792 0 
L 0 0 
z
" style="fill: #ffffff"/>
  </g>
  <g id="axes_1">
   <g id="line2d_1">
    <path d="M 0 459 
L 44 448.780658 
L 88 452.024278 
L 132 455.511938 
L 176 459.928365 
L 220 458.648483 
L 264 451.105167 
L 308 445.619109 
L 352 452.700131 
L 396 438.328573 
L 440 432.314839 
L 484 439.462063 
L 528 435.84659 
L 572 432.692134 
L 616 447.537524 
L 660 452.537923 
L 704 444.160343 
L 748 440.595793 
" clip-path="url(#pf157cb1179)" style="fill: none; stroke: #000000; stroke-width: 1.5; stroke-linecap: square"/>
   </g>
   <g id="line2d_2">
    <path d="M 0 459 
L 44 459 
L 88 452.18648 
L 132 452.093793 
L 176 453.916732 
L 220 457.977724 
L 264 458.318427 
L 308 454.683133 
L 352 450.132485 
L 396 451.403898 
L 440 444.842866 
L 484 438.536414 
L 528 438.967785 
L 572 437.356152 
L 616 434.97271 
L 660 441.244799 
L 704 446.903091 
L 748 445.514857 
" clip-path="url(#pf157cb1179)" style="fill: none; stroke: #000000; stroke-width: 1.5; stroke-linecap: square"/>
   </g>
   <g id="line2d_3">
    <path d="M 0 459 
L 44 459 
L 88 453.012998 
L 132 452.56502 
L 176 453.715813 
L 220 456.586641 
L 264 457.276805 
L 308 455.293734 
L 352 452.270436 
L 396 452.402108 
L 440 448.144573 
L 484 443.398955 
L 528 442.227297 
L 572 440.336764 
L 616 438.078803 
L 660 440.8631 
L 704 444.294225 
L 748 444.237979 
" clip-path="url(#pf157cb1179)" style="fill: none; stroke: #000000; stroke-width: 1.5; stroke-linecap: square"/>
   </g>
   <g id="line2d_4">
    <path d="M 0 459 
L 44 459 
L 88 453.448068 
L 132 452.889267 
L 176 453.723784 
L 220 455.936722 
L 264 456.604129 
L 308 455.358948 
L 352 453.292186 
L 396 453.172913 
L 440 450.302046 
L 484 446.936825 
L 528 445.577076 
L 572 443.845942 
L 616 441.897604 
L 660 442.866664 
L 704 444.507205 
L 748 444.448955 
" clip-path="url(#pf157cb1179)" style="fill: none; stroke: #000000; stroke-width: 1.5; stroke-linecap: square"/>
   </g>
   <g id="line2d_5">
    <path d="M 0 459 
L 44 459 
L 88 453.668467 
L 132 453.072274 
L 176 453.763564 
L 220 455.657056 
L 264 456.26947 
L 308 455.32684 
L 352 453.714974 
L 396 453.559424 
L 440 451.376737 
L 484 448.798971 
L 528 447.599589 
L 572 446.155047 
L 616 444.563333 
L 660 444.902643 
L 704 445.747265 
L 748 445.576366 
" clip-path="url(#pf157cb1179)" style="fill: none; stroke: #000000; stroke-width: 1.5; stroke-linecap: square"/>
   </g>
   <g id="line2d_6">
    <path d="M 0 459 
L 44 459 
L 88 453.779029 
L 132 453.168577 
L 176 453.792994 
L 220 455.532708 
L 264 456.109808 
L 308 455.298602 
L 352 453.897074 
L 396 453.739898 
L 440 451.880142 
L 484 449.689287 
L 528 448.619106 
L 572 447.360509 
L 616 445.991483 
L 660 446.128638 
L 704 446.671944 
L 748 446.467609 
" clip-path="url(#pf157cb1179)" style="fill: none; stroke: #000000; stroke-width: 1.5; stroke-linecap: square"/>
   </g>
   <g id="line2d_7">
    <path d="M 0 459 
L 44 459 
L 88 453.834356 
L 132 453.21786 
L 176 453.810123 
L 220 455.474847 
L 264 456.032822 
L 308 455.28224 
L 352 453.980436 
L 396 453.825543 
L 440 452.119266 
L 484 450.115223 
L 528 449.117344 
L 572 447.957666 
L 616 446.705808 
L 660 446.77005 
L 704 447.191916 
L 748 446.981 
" clip-path="url(#pf157cb1179)" style="fill: none; stroke: #000000; stroke-width: 1.5; stroke-linecap: square"/>
   </g>
   <g id="line2d_8">
    <path d="M 0 459 
L 44 459 
L 88 453.862025 
L 132 453.242775 
L 176 453.819292 
L 220 455.447044 
L 264 455.995152 
L 308 455.273612 
L 352 454.020193 
L 396 453.867081 
L 440 452.235243 
L 484 450.322349 
L 528 449.361879 
L 572 448.252401 
L 616 447.059696 
L 660 447.094022 
L 704 447.462508 
L 748 447.250941 
" clip-path="url(#pf157cb1179)" style="fill: none; stroke: #000000; stroke-width: 1.5; stroke-linecap: square"/>
   </g>
   <g id="line2d_9">
    <path d="M 0 459 
L 44 459 
L 88 453.87586 
L 132 453.255299 
L 176 453.824028 
L 220 455.433429 
L 264 455.976536 
L 308 455.269201 
L 352 454.039592 
L 396 453.887514 
L 440 452.292287 
L 484 450.424335 
L 528 449.482797 
L 572 448.398507 
L 616 447.235404 
L 660 447.256317 
L 704 447.599913 
L 748 447.388661 
" clip-path="url(#pf157cb1179)" style="fill: none; stroke: #000000; stroke-width: 1.5; stroke-linecap: square"/>
   </g>
  </g>
 </g>
 <defs>
  <clipPath id="pf157cb1179">
   <rect x="0" y="0" width="792" height="612"/>
  </clipPath>
 </defs>
</svg>
