<?xml version="1.0" encoding="utf-8" standalone="no"?>
<!DOCTYPE svg PUBLIC "-//W3C//DTD SVG 1.1//EN"
  "http://www.w3.org/Graphics/SVG/1.1/DTD/svg11.dtd">
<svg xmlns:xlink="http://www.w3.org/1999/xlink" width="792pt" height="612pt" viewBox="0 0 792 612" xmlns="http://www.w3.org/2000/svg" version="1.1">
 <metadata>
  <rdf:RDF xmlns:dc="http://purl.org/dc/elements/1.1/" xmlns:cc="http://creativecommons.org/ns#" xmlns:rdf="http://www.w3.org/1999/02/22-rdf-syntax-ns#">
   <cc:Work>
    <dc:type rdf:resource="http://purl.org/dc/dcmitype/StillImage"/>
    <dc:date>2022-12-19T20:27:02.428855</dc:date>
    <dc:format>image/svg+xml</dc:format>
    <dc:creator>
     <cc:Agent>
      <dc:title>Matplotlib v3.6.2, https://matplotlib.org/</dc:title>
     </cc:Agent>
    </dc:creator>
   </cc:Work>
  </rdf:RDF>
 </metadata>
 <defs>
  <style type="text/css">*{stroke-linejoin: round; stroke-linecap: butt}</style>
 </defs>
 <g id="figure_1">
  <g id="patch_1">
   <path d="M 0 612 
L 792 612 
L 792 0 
L 0 0 
z
" style="fill: #ffffff"/>
  </g>
  <g id="axes_1">
   <g id="line2d_1">
    <path d="M 0 459 
L 41.684211 455.30938 
L 83.368421 460.279443 
L 125.052632 461.017582 
L 166.736842 461.919753 
L 208.421053 463.355025 
L 250.105263 459.541303 
L 291.789474 460.894559 
L 333.473684 461.337443 
L 375.157895 465.717073 
L 416.842105 463.527258 
L 458.526316 461.657304 
L 500.210526 462.329831 
L 541.894737 463.527258 
L 583.578947 467.193353 
L 625.263158 470.92506 
L 666.947368 470.506781 
L 708.631579 469.670222 
L 750.315789 474.213884 
" clip-path="url(#pd07577bc9d)" style="fill: none; stroke: #000000; stroke-width: 1.5; stroke-linecap: square"/>
   </g>
   <g id="line2d_2">
    <path d="M 0 459 
L 41.684211 459 
L 83.368421 456.539557 
L 125.052632 459.379615 
L 166.736842 460.253198 
L 208.421053 461.113355 
L 250.105263 462.251981 
L 291.789474 460.88597 
L 333.473684 460.890281 
L 375.157895 461.118445 
L 416.842105 463.433342 
L 458.526316 463.486668 
L 500.210526 462.57324 
L 541.894737 462.45234 
L 583.578947 462.990137 
L 625.263158 465.106749 
L 666.947368 468.035572 
L 708.631579 469.289156 
L 750.315789 469.48744 
" clip-path="url(#pd07577bc9d)" style="fill: none; stroke: #000000; stroke-width: 1.5; stroke-linecap: square"/>
   </g>
   <g id="line2d_3">
    <path d="M 0 459 
L 41.684211 459 
L 83.368421 456.838054 
L 125.052632 459.185553 
L 166.736842 459.901005 
L 208.421053 460.619252 
L 250.105263 461.535012 
L 291.789474 460.89445 
L 333.473684 460.894484 
L 375.157895 461.030222 
L 416.842105 462.447251 
L 458.526316 462.770726 
L 500.210526 462.439436 
L 541.894737 462.406975 
L 583.578947 462.737682 
L 625.263158 464.049967 
L 666.947368 466.071532 
L 708.631579 467.383803 
L 750.315789 468.067149 
" clip-path="url(#pd07577bc9d)" style="fill: none; stroke: #000000; stroke-width: 1.5; stroke-linecap: square"/>
   </g>
   <g id="line2d_4">
    <path d="M 0 459 
L 41.684211 459 
L 83.368421 456.995175 
L 125.052632 459.096132 
L 166.736842 459.707551 
L 208.421053 460.314864 
L 250.105263 461.063109 
L 291.789474 460.718545 
L 333.473684 460.755884 
L 375.157895 460.873042 
L 416.842105 461.809243 
L 458.526316 462.130313 
L 500.210526 462.044304 
L 541.894737 462.095068 
L 583.578947 462.345028 
L 625.263158 463.178351 
L 666.947368 464.493049 
L 708.631579 465.502931 
L 750.315789 466.196619 
" clip-path="url(#pd07577bc9d)" style="fill: none; stroke: #000000; stroke-width: 1.5; stroke-linecap: square"/>
   </g>
   <g id="line2d_5">
    <path d="M 0 459 
L 41.684211 459 
L 83.368421 457.074768 
L 125.052632 459.054866 
L 166.736842 459.611033 
L 208.421053 460.156042 
L 250.105263 460.810963 
L 291.789474 460.579237 
L 333.473684 460.631578 
L 375.157895 460.739766 
L 416.842105 461.452552 
L 458.526316 461.732791 
L 500.210526 461.7231 
L 541.894737 461.797614 
L 583.578947 462.001903 
L 625.263158 462.594267 
L 666.947368 463.516163 
L 708.631579 464.268928 
L 750.315789 464.836539 
" clip-path="url(#pd07577bc9d)" style="fill: none; stroke: #000000; stroke-width: 1.5; stroke-linecap: square"/>
   </g>
   <g id="line2d_6">
    <path d="M 0 459 
L 41.684211 459 
L 83.368421 457.114695 
L 125.052632 459.035263 
L 166.736842 459.563496 
L 208.421053 460.076437 
L 250.105263 460.683709 
L 291.789474 460.498554 
L 333.473684 460.555876 
L 375.157895 460.658504 
L 416.842105 461.268512 
L 458.526316 461.521139 
L 500.210526 461.535379 
L 541.894737 461.6136 
L 583.578947 461.792013 
L 625.263158 462.271228 
L 666.947368 463.005016 
L 708.631579 463.615245 
L 750.315789 464.089321 
" clip-path="url(#pd07577bc9d)" style="fill: none; stroke: #000000; stroke-width: 1.5; stroke-linecap: square"/>
   </g>
   <g id="line2d_7">
    <path d="M 0 459 
L 41.684211 459 
L 83.368421 457.134675 
L 125.052632 459.025738 
L 166.736842 459.539993 
L 208.421053 460.036784 
L 250.105263 460.620199 
L 291.789474 460.455877 
L 333.473684 460.514959 
L 375.157895 460.614461 
L 416.842105 461.175877 
L 458.526316 461.413533 
L 500.210526 461.436353 
L 541.894737 461.514365 
L 583.578947 461.679251 
L 625.263158 462.105177 
L 666.947368 462.750435 
L 708.631579 463.289975 
L 750.315789 463.71341 
" clip-path="url(#pd07577bc9d)" style="fill: none; stroke: #000000; stroke-width: 1.5; stroke-linecap: square"/>
   </g>
   <g id="line2d_8">
    <path d="M 0 459 
L 41.684211 459 
L 83.368421 457.144667 
L 125.052632 459.021046 
L 166.736842 459.528318 
L 208.421053 460.017021 
L 250.105263 460.588526 
L 291.789474 460.434019 
L 333.473684 460.493792 
L 375.157895 460.591643 
L 416.842105 461.129524 
L 458.526316 461.359494 
L 500.210526 461.385817 
L 541.894737 461.463245 
L 583.578947 461.621277 
L 625.263158 462.021567 
L 666.947368 462.624372 
L 708.631579 463.129298 
L 750.315789 463.527095 
" clip-path="url(#pd07577bc9d)" style="fill: none; stroke: #000000; stroke-width: 1.5; stroke-linecap: square"/>
   </g>
   <g id="line2d_9">
    <path d="M 0 459 
L 41.684211 459 
L 83.368421 457.149664 
L 125.052632 459.018719 
L 166.736842 459.522501 
L 208.421053 460.007158 
L 250.105263 460.572717 
L 291.789474 460.422968 
L 333.473684 460.48304 
L 375.157895 460.580043 
L 416.842105 461.106354 
L 458.526316 461.332444 
L 500.210526 461.360329 
L 541.894737 461.437353 
L 583.578947 461.591943 
L 625.263158 461.979691 
L 666.947368 462.56177 
L 708.631579 463.049643 
L 750.315789 463.434627 
" clip-path="url(#pd07577bc9d)" style="fill: none; stroke: #000000; stroke-width: 1.5; stroke-linecap: square"/>
   </g>
  </g>
 </g>
 <defs>
  <clipPath id="pd07577bc9d">
   <rect x="0" y="0" width="792" height="612"/>
  </clipPath>
 </defs>
</svg>
