<?xml version="1.0" encoding="utf-8" standalone="no"?>
<!DOCTYPE svg PUBLIC "-//W3C//DTD SVG 1.1//EN"
  "http://www.w3.org/Graphics/SVG/1.1/DTD/svg11.dtd">
<svg xmlns:xlink="http://www.w3.org/1999/xlink" width="792pt" height="612pt" viewBox="0 0 792 612" xmlns="http://www.w3.org/2000/svg" version="1.1">
 <metadata>
  <rdf:RDF xmlns:dc="http://purl.org/dc/elements/1.1/" xmlns:cc="http://creativecommons.org/ns#" xmlns:rdf="http://www.w3.org/1999/02/22-rdf-syntax-ns#">
   <cc:Work>
    <dc:type rdf:resource="http://purl.org/dc/dcmitype/StillImage"/>
    <dc:date>2022-12-26T20:25:46.568909</dc:date>
    <dc:format>image/svg+xml</dc:format>
    <dc:creator>
     <cc:Agent>
      <dc:title>Matplotlib v3.6.2, https://matplotlib.org/</dc:title>
     </cc:Agent>
    </dc:creator>
   </cc:Work>
  </rdf:RDF>
 </metadata>
 <defs>
  <style type="text/css">*{stroke-linejoin: round; stroke-linecap: butt}</style>
 </defs>
 <g id="figure_1">
  <g id="patch_1">
   <path d="M 0 612 
L 792 612 
L 792 0 
L 0 0 
z
" style="fill: #ffffff"/>
  </g>
  <g id="axes_1">
   <g id="line2d_1">
    <path d="M 0 459 
L 39.6 452.12941 
L 79.2 446.264707 
L 118.8 448.373563 
L 158.4 452.12941 
L 198 460.544068 
L 237.6 464.447129 
L 277.2 464.009643 
L 316.8 463.134671 
L 356.4 467.88697 
L 396 466.385793 
L 435.6 463.14325 
L 475.2 464.172628 
L 514.8 465.279211 
L 554.4 467.269343 
L 594 466.274277 
L 633.6 463.880971 
L 673.2 462.139605 
L 712.8 464.387082 
L 752.4 459.823503 
" clip-path="url(#p693428ba83)" style="fill: none; stroke: #000000; stroke-width: 1.5; stroke-linecap: square"/>
   </g>
   <g id="line2d_2">
    <path d="M 0 459 
L 39.6 459 
L 79.2 454.419416 
L 118.8 449.758898 
L 158.4 449.02003 
L 198 450.624775 
L 237.6 457.231275 
L 277.2 461.452542 
L 316.8 462.736107 
L 356.4 462.943496 
L 396 465.43715 
L 435.6 465.934279 
L 475.2 464.553835 
L 514.8 464.377865 
L 554.4 464.837822 
L 594 466.059116 
L 633.6 466.171137 
L 673.2 465.027517 
L 712.8 463.572292 
L 752.4 463.975768 
" clip-path="url(#p693428ba83)" style="fill: none; stroke: #000000; stroke-width: 1.5; stroke-linecap: square"/>
   </g>
   <g id="line2d_3">
    <path d="M 0 459 
L 39.6 459 
L 79.2 454.975104 
L 118.8 451.027845 
L 158.4 449.99121 
L 198 450.751917 
L 237.6 455.062907 
L 277.2 459.859383 
L 316.8 461.156005 
L 356.4 461.762339 
L 396 463.614069 
L 435.6 464.444232 
L 475.2 464.057135 
L 514.8 464.09134 
L 554.4 464.441999 
L 594 465.274709 
L 633.6 465.568624 
L 673.2 465.079928 
L 712.8 464.224964 
L 752.4 464.283512 
" clip-path="url(#p693428ba83)" style="fill: none; stroke: #000000; stroke-width: 1.5; stroke-linecap: square"/>
   </g>
   <g id="line2d_4">
    <path d="M 0 459 
L 39.6 459 
L 79.2 455.267605 
L 118.8 451.733564 
L 158.4 450.664286 
L 198 451.066489 
L 237.6 454.158749 
L 277.2 458.954743 
L 316.8 460.050851 
L 356.4 460.672099 
L 396 462.06651 
L 435.6 462.873715 
L 475.2 462.922726 
L 514.8 463.144948 
L 554.4 463.517441 
L 594 464.162312 
L 633.6 464.520735 
L 673.2 464.4133 
L 712.8 464.03482 
L 752.4 464.09303 
" clip-path="url(#p693428ba83)" style="fill: none; stroke: #000000; stroke-width: 1.5; stroke-linecap: square"/>
   </g>
   <g id="line2d_5">
    <path d="M 0 459 
L 39.6 459 
L 79.2 455.41578 
L 118.8 452.096938 
L 158.4 451.041747 
L 198 451.298499 
L 237.6 453.823197 
L 277.2 457.750317 
L 316.8 459.484144 
L 356.4 460.043664 
L 396 461.166882 
L 435.6 461.871822 
L 475.2 462.035058 
L 514.8 462.29758 
L 554.4 462.649741 
L 594 463.176855 
L 633.6 463.51962 
L 673.2 463.558531 
L 712.8 463.409419 
L 752.4 463.509939 
" clip-path="url(#p693428ba83)" style="fill: none; stroke: #000000; stroke-width: 1.5; stroke-linecap: square"/>
   </g>
   <g id="line2d_6">
    <path d="M 0 459 
L 39.6 459 
L 79.2 455.490111 
L 118.8 452.280135 
L 158.4 451.239023 
L 198 451.432849 
L 237.6 453.692137 
L 277.2 457.200752 
L 316.8 459.212216 
L 356.4 459.727278 
L 396 460.711247 
L 435.6 461.34591 
L 475.2 461.533877 
L 514.8 461.793684 
L 554.4 462.118645 
L 594 462.575623 
L 633.6 462.889244 
L 673.2 462.969916 
L 712.8 462.904907 
L 752.4 463.016932 
" clip-path="url(#p693428ba83)" style="fill: none; stroke: #000000; stroke-width: 1.5; stroke-linecap: square"/>
   </g>
   <g id="line2d_7">
    <path d="M 0 459 
L 39.6 459 
L 79.2 455.527308 
L 118.8 452.371963 
L 158.4 451.339533 
L 198 451.504422 
L 237.6 453.63643 
L 277.2 456.942025 
L 316.8 459.081088 
L 356.4 459.571483 
L 396 460.486396 
L 435.6 461.082652 
L 475.2 461.275554 
L 514.8 461.528504 
L 554.4 461.835744 
L 594 462.255451 
L 633.6 462.549467 
L 673.2 462.642087 
L 712.8 462.608739 
L 752.4 462.721686 
" clip-path="url(#p693428ba83)" style="fill: none; stroke: #000000; stroke-width: 1.5; stroke-linecap: square"/>
   </g>
   <g id="line2d_8">
    <path d="M 0 459 
L 39.6 459 
L 79.2 455.545909 
L 118.8 452.417915 
L 158.4 451.390221 
L 198 451.541275 
L 237.6 453.611087 
L 277.2 456.816989 
L 316.8 459.016967 
L 356.4 459.494559 
L 396 460.375289 
L 435.6 460.951765 
L 475.2 461.145463 
L 514.8 461.393752 
L 554.4 461.691243 
L 594 462.091966 
L 633.6 462.375127 
L 673.2 462.471587 
L 712.8 462.451397 
L 752.4 462.563508 
" clip-path="url(#p693428ba83)" style="fill: none; stroke: #000000; stroke-width: 1.5; stroke-linecap: square"/>
   </g>
   <g id="line2d_9">
    <path d="M 0 459 
L 39.6 459 
L 79.2 455.555211 
L 118.8 452.440899 
L 158.4 451.415668 
L 198 451.559964 
L 237.6 453.599049 
L 277.2 456.755589 
L 316.8 458.955885 
L 356.4 459.456386 
L 396 460.320137 
L 435.6 460.886611 
L 475.2 461.080316 
L 514.8 461.325991 
L 554.4 461.61841 
L 594 462.009587 
L 633.6 462.287092 
L 673.2 462.384966 
L 712.8 462.370698 
L 752.4 462.482075 
" clip-path="url(#p693428ba83)" style="fill: none; stroke: #000000; stroke-width: 1.5; stroke-linecap: square"/>
   </g>
  </g>
 </g>
 <defs>
  <clipPath id="p693428ba83">
   <rect x="0" y="0" width="792" height="612"/>
  </clipPath>
 </defs>
</svg>
