<?xml version="1.0" encoding="utf-8" standalone="no"?>
<!DOCTYPE svg PUBLIC "-//W3C//DTD SVG 1.1//EN"
  "http://www.w3.org/Graphics/SVG/1.1/DTD/svg11.dtd">
<svg xmlns:xlink="http://www.w3.org/1999/xlink" width="792pt" height="612pt" viewBox="0 0 792 612" xmlns="http://www.w3.org/2000/svg" version="1.1">
 <metadata>
  <rdf:RDF xmlns:dc="http://purl.org/dc/elements/1.1/" xmlns:cc="http://creativecommons.org/ns#" xmlns:rdf="http://www.w3.org/1999/02/22-rdf-syntax-ns#">
   <cc:Work>
    <dc:type rdf:resource="http://purl.org/dc/dcmitype/StillImage"/>
    <dc:date>2023-01-23T15:52:08.432861</dc:date>
    <dc:format>image/svg+xml</dc:format>
    <dc:creator>
     <cc:Agent>
      <dc:title>Matplotlib v3.6.2, https://matplotlib.org/</dc:title>
     </cc:Agent>
    </dc:creator>
   </cc:Work>
  </rdf:RDF>
 </metadata>
 <defs>
  <style type="text/css">*{stroke-linejoin: round; stroke-linecap: butt}</style>
 </defs>
 <g id="figure_1">
  <g id="patch_1">
   <path d="M 0 612 
L 792 612 
L 792 0 
L 0 0 
z
" style="fill: #ffffff"/>
  </g>
  <g id="axes_1">
   <g id="line2d_1">
    <path d="M 0 459 
L 6.336 460.099784 
L 9.504 461.920931 
L 12.672 461.601639 
L 15.84 447.614255 
L 19.008 447.259711 
L 22.176 437.764513 
L 25.344 454.636474 
L 28.512 452.08253 
L 31.68 439.818181 
L 34.848 437.622912 
L 38.016 441.908046 
L 41.184 435.959403 
L 44.352 426.522058 
L 47.52 433.978146 
L 50.688 429.205887 
L 53.856 435.393239 
L 57.024 425.604409 
L 60.192 433.164682 
L 63.36 441.695483 
L 66.528 441.553779 
L 69.696 443.99862 
L 72.864 444.671993 
L 76.032 448.287925 
L 79.2 437.127338 
L 82.368 439.605696 
L 85.536 420.069181 
L 88.704 407.352431 
L 91.872 387.428675 
L 95.04 372.216104 
L 98.208 365.122875 
L 101.376 356.895181 
L 104.544 345.532475 
L 107.712 317.743901 
L 110.88 331.560724 
L 114.048 316.813153 
L 117.216 316.556623 
L 120.384 330.088758 
L 123.552 358.143661 
L 126.72 360.070062 
L 129.888 350.877963 
L 133.056 346.56566 
L 136.224 336.916133 
L 139.392 338.731365 
L 142.56 332.904327 
L 145.728 331.462504 
L 148.896 321.673453 
L 152.064 331.298832 
L 155.232 337.971773 
L 158.4 334.151709 
L 161.568 342.905073 
L 164.736 338.301943 
L 167.904 337.806738 
L 171.072 341.146917 
L 174.24 336.355888 
L 177.408 328.848 
L 180.576 319.673657 
L 183.744 333.888936 
L 186.912 322.643161 
L 190.08 314.092567 
L 193.248 314.348144 
L 196.416 307.040563 
L 199.584 313.581711 
L 202.752 311.351435 
L 205.92 337.11396 
L 212.256 360.814568 
L 215.424 364.069614 
L 218.592 365.054891 
L 221.76 346.365593 
L 224.928 363.594289 
L 228.096 353.192924 
L 231.264 344.034869 
L 234.432 327.251126 
L 237.6 331.593467 
L 240.768 317.230226 
L 243.936 354.874 
L 247.104 349.739387 
L 250.272 341.809941 
L 253.44 336.685396 
L 256.608 326.340182 
L 259.776 309.826577 
L 262.944 306.598483 
L 266.112 325.722689 
L 269.28 329.631397 
L 272.448 326.502767 
L 275.616 313.932881 
L 278.784 311.001666 
L 281.952 302.257941 
L 285.12 298.571424 
L 288.288 293.332483 
L 291.456 304.613064 
L 294.624 299.412896 
L 297.792 300.411778 
L 300.96 295.434609 
L 304.128 297.824479 
L 307.296 287.440265 
L 310.464 284.609497 
L 313.632 295.682438 
L 316.8 302.289281 
L 319.968 328.098017 
L 323.136 327.381354 
L 326.304 338.169859 
L 329.472 367.641266 
L 332.64 392.074329 
L 335.808 370.677732 
L 338.976 393.846194 
L 342.144 412.85903 
L 345.312 404.657134 
L 348.48 394.889397 
L 351.648 386.667363 
L 354.816 396.942993 
L 357.984 404.622155 
L 361.152 398.580725 
L 364.32 412.051453 
L 367.488 418.660687 
L 370.656 409.034456 
L 373.824 411.665323 
L 376.992 416.092179 
L 380.16 425.216253 
L 383.328 428.49941 
L 386.496 435.747083 
L 389.664 429.700505 
L 392.832 422.888357 
L 396 405.21689 
L 399.168 398.545863 
L 402.336 402.454706 
L 405.504 406.687015 
L 408.672 391.727142 
L 411.84 395.75925 
L 415.008 389.02181 
L 418.176 385.111408 
L 421.344 339.756283 
L 424.512 350.643435 
L 427.68 355.244234 
L 430.848 368.050198 
L 434.016 382.522037 
L 437.184 373.927779 
L 440.352 374.715976 
L 443.52 367.879791 
L 446.688 366.483446 
L 449.856 353.629718 
L 453.024 352.857067 
L 456.192 363.119178 
L 459.36 364.477205 
L 465.696 355.648288 
L 468.864 360.137722 
L 472.032 362.813863 
L 475.2 345.699035 
L 478.368 341.710454 
L 481.536 336.98207 
L 484.704 340.981243 
L 487.872 336.949101 
L 491.04 350.275011 
L 497.376 367.436856 
L 500.544 359.596569 
L 503.712 362.067912 
L 506.88 368.902623 
L 510.048 366.041073 
L 513.216 352.454197 
L 516.384 344.001619 
L 519.552 354.335732 
L 522.72 341.445213 
L 525.888 350.275011 
L 529.056 364.341324 
L 532.224 362.813863 
L 535.392 364.918937 
L 538.56 369.243774 
L 541.728 369.653292 
L 544.896 404.657134 
L 548.064 418.027114 
L 551.232 417.815957 
L 554.4 401.127528 
L 557.568 404.657134 
L 560.736 408.508675 
L 563.904 380.488569 
L 567.072 360.340729 
L 570.24 357.29992 
L 573.408 347.600058 
L 576.576 352.252826 
L 579.744 362.000125 
L 582.912 361.898453 
L 586.08 360.306891 
L 589.248 334.809028 
L 592.416 351.883761 
L 595.584 347.967393 
L 598.752 343.270431 
L 601.92 325.91763 
L 605.088 322.80491 
L 608.256 309.255701 
L 611.424 309.445935 
L 614.592 303.764154 
L 617.76 297.016385 
L 620.928 294.506224 
L 624.096 288.112146 
L 627.264 285.308151 
L 630.432 281.311355 
L 633.6 292.654084 
L 636.768 284.609497 
L 639.936 277.70518 
L 643.104 271.191999 
L 646.272 271.990189 
L 649.44 294.41347 
L 652.608 284.093707 
L 655.776 268.688086 
L 658.944 268.42376 
L 662.112 264.0409 
L 665.28 273.026902 
L 668.448 275.703163 
L 671.616 278.994383 
L 674.784 284.275692 
L 677.952 270.365684 
L 681.12 275.25608 
L 684.288 276.867514 
L 687.456 293.085696 
L 690.624 284.913144 
L 693.792 278.034655 
L 696.96 280.497687 
L 700.128 284.913144 
L 703.296 298.66486 
L 706.464 313.007476 
L 709.632 311.383242 
L 712.8 308.147147 
L 715.968 325.91763 
L 719.136 320.253647 
L 722.304 308.178793 
L 725.472 311.98787 
L 728.64 316.107931 
L 731.808 323.581818 
L 734.976 319.834716 
L 738.144 310.906307 
L 741.312 304.487224 
L 744.48 312.7843 
L 747.648 296.054386 
L 750.816 289.182801 
L 753.984 297.358131 
L 757.152 293.209076 
L 760.32 289.611665 
L 763.488 306.724759 
L 766.656 312.593067 
L 769.824 302.790957 
L 772.992 298.66486 
L 776.16 302.979194 
L 779.328 300.286824 
L 782.496 302.916442 
L 785.664 297.047444 
L 788.832 295.55851 
L 788.832 295.55851 
" clip-path="url(#pb266829028)" style="fill: none; stroke: #000000; stroke-width: 1.5; stroke-linecap: square"/>
   </g>
   <g id="line2d_2">
    <path d="M 0 459 
L 3.168 459 
L 9.504 459.787249 
L 12.672 460.925213 
L 15.84 461.274336 
L 22.176 451.878935 
L 25.344 444.790691 
L 28.512 449.703961 
L 31.68 450.876362 
L 34.848 445.301225 
L 38.016 441.401798 
L 41.184 441.606154 
L 44.352 438.75917 
L 47.52 432.595285 
L 50.688 433.279237 
L 53.856 431.192251 
L 57.024 433.259544 
L 60.192 429.402063 
L 63.36 431.274173 
L 66.528 436.481503 
L 72.864 441.547111 
L 76.032 443.13035 
L 79.2 445.74618 
L 82.368 441.438612 
L 85.536 440.549582 
L 88.704 430.269331 
L 91.872 418.718393 
L 98.208 387.33773 
L 101.376 376.026743 
L 104.544 366.243888 
L 107.712 355.657929 
L 110.88 336.245437 
L 114.048 333.73286 
L 117.216 325.052647 
L 120.384 320.657654 
L 123.552 325.277707 
L 126.72 341.536217 
L 129.888 350.762597 
L 133.056 350.83079 
L 136.224 348.753379 
L 139.392 342.824728 
L 142.56 340.81924 
L 145.728 336.884589 
L 148.896 334.171549 
L 152.064 327.825578 
L 155.232 329.504872 
L 158.4 333.701828 
L 161.568 333.902588 
L 164.736 338.403093 
L 167.904 338.351674 
L 171.072 338.088806 
L 174.24 339.635509 
L 177.408 338.023167 
L 180.576 333.417197 
L 183.744 326.477261 
L 186.912 330.17347 
L 190.08 326.35918 
L 193.248 320.151513 
L 196.416 317.198134 
L 199.584 312.033568 
L 202.752 312.763299 
L 205.92 312.02308 
L 212.256 336.766308 
L 215.424 348.78563 
L 218.592 356.497746 
L 221.76 360.869266 
L 224.928 353.669388 
L 228.096 358.719934 
L 231.264 356.036919 
L 234.432 350.029872 
L 237.6 338.517856 
L 240.768 334.991499 
L 243.936 325.96631 
L 247.104 340.274479 
L 250.272 345.00061 
L 253.44 343.361503 
L 256.608 339.984519 
L 259.776 333.097675 
L 262.944 321.330637 
L 266.112 313.874402 
L 269.28 319.789615 
L 272.448 324.645221 
L 275.616 325.528565 
L 278.784 319.652185 
L 281.952 315.263025 
L 285.12 308.679877 
L 291.456 298.408649 
L 294.624 301.462198 
L 297.792 300.3787 
L 300.96 300.345133 
L 304.128 297.848751 
L 307.296 297.811062 
L 310.464 292.572273 
L 313.632 288.548786 
L 316.8 292.108586 
L 319.968 297.171699 
L 323.136 312.505844 
L 326.304 319.956767 
L 329.472 329.093043 
L 332.64 348.299499 
L 335.808 370.189636 
L 338.976 370.611417 
L 342.144 382.378666 
L 345.312 397.77512 
L 348.48 401.36728 
L 351.648 398.2618 
L 354.816 392.551261 
L 357.984 394.803597 
L 361.152 399.730603 
L 364.32 399.21082 
L 370.656 412.160352 
L 373.824 410.605435 
L 376.992 411.168342 
L 380.16 413.687011 
L 383.328 419.500998 
L 386.496 424.04378 
L 389.664 429.963914 
L 392.832 429.866917 
L 396 426.384048 
L 399.168 415.769768 
L 402.336 407.11357 
L 405.504 404.75604 
L 408.672 405.685124 
L 411.84 398.620236 
L 415.008 397.111407 
L 421.344 388.968134 
L 424.512 363.949631 
L 427.68 357.181523 
L 430.848 356.121615 
L 434.016 361.994543 
L 437.184 372.195445 
L 443.52 373.839248 
L 446.688 370.822031 
L 449.856 368.703866 
L 453.024 361.145059 
L 456.192 356.987621 
L 459.36 360.039152 
L 462.528 362.220782 
L 465.696 361.134833 
L 468.864 358.350636 
L 472.032 359.228671 
L 475.2 361.012531 
L 478.368 353.309119 
L 481.536 347.469007 
L 484.704 342.158433 
L 487.872 341.524126 
L 491.04 339.188498 
L 494.208 344.703545 
L 497.376 351.765638 
L 500.544 359.579862 
L 503.712 359.615664 
L 506.88 360.881348 
L 510.048 364.947859 
L 513.216 365.544069 
L 516.384 359.00866 
L 519.552 351.462376 
L 522.72 352.889067 
L 525.888 347.098083 
L 529.056 348.666989 
L 532.224 356.477125 
L 535.392 359.628659 
L 538.56 362.268243 
L 541.728 365.783472 
L 544.896 367.767538 
L 548.064 386.190834 
L 551.232 402.192207 
L 554.4 410.124515 
L 557.568 405.694045 
L 560.736 405.258741 
L 563.904 406.969636 
L 567.072 393.695974 
L 570.24 376.887944 
L 576.576 357.096339 
L 579.744 354.546122 
L 582.912 358.190932 
L 586.08 359.960754 
L 589.248 360.041142 
L 592.416 347.246748 
L 595.584 349.545826 
L 598.752 348.738041 
L 601.92 345.991474 
L 605.088 335.839674 
L 608.256 329.218219 
L 611.424 319.062985 
L 614.592 314.139791 
L 617.76 308.870558 
L 620.928 302.809778 
L 624.096 298.541747 
L 627.264 293.197946 
L 633.6 285.142366 
L 636.768 288.853159 
L 639.936 286.679234 
L 643.104 282.122073 
L 646.272 276.576428 
L 649.44 274.234437 
L 652.608 284.237387 
L 655.776 284.163163 
L 658.944 276.339142 
L 665.28 268.120924 
L 671.616 273.132618 
L 674.784 276.068383 
L 677.952 280.135655 
L 681.12 275.199071 
L 684.288 275.240542 
L 687.456 276.070021 
L 690.624 284.565454 
L 693.792 284.762847 
L 696.96 281.392143 
L 700.128 280.947671 
L 703.296 282.927801 
L 706.464 290.795393 
L 709.632 301.872279 
L 712.8 306.678579 
L 715.968 307.4423 
L 719.136 316.69808 
L 722.304 318.559028 
L 725.472 313.404257 
L 728.64 312.750049 
L 731.808 314.461432 
L 734.976 319.027147 
L 738.144 319.447479 
L 741.312 315.168544 
L 744.48 309.763618 
L 747.648 311.257646 
L 750.816 303.584046 
L 753.984 296.293243 
L 757.152 296.789277 
L 760.32 294.938065 
L 763.488 292.210373 
L 766.656 299.414119 
L 769.824 305.983939 
L 772.992 304.365851 
L 776.16 301.513626 
L 779.328 302.273304 
L 782.496 301.284993 
L 785.664 302.119324 
L 788.832 299.592593 
L 788.832 299.592593 
" clip-path="url(#pb266829028)" style="fill: none; stroke: #000000; stroke-width: 1.5; stroke-linecap: square"/>
   </g>
   <g id="line2d_3">
    <path d="M 0 459 
L 3.168 459 
L 9.504 459.676359 
L 12.672 460.552919 
L 15.84 460.926041 
L 19.008 459.010664 
L 22.176 455.248917 
L 25.344 449.782892 
L 28.512 451.270035 
L 31.68 451.515681 
L 34.848 448.010432 
L 38.016 444.918046 
L 41.184 444.02645 
L 44.352 441.643874 
L 47.52 437.184789 
L 50.688 436.241666 
L 53.856 434.145505 
L 57.024 434.48195 
L 60.192 431.837505 
L 63.36 432.186545 
L 66.528 434.940854 
L 69.696 436.869869 
L 72.864 438.953137 
L 76.032 440.635518 
L 79.2 442.868703 
L 82.368 441.169322 
L 85.536 440.711058 
L 88.704 434.633556 
L 91.872 426.576712 
L 95.04 414.979173 
L 98.208 402.27655 
L 101.376 391.213858 
L 107.712 370.374898 
L 110.88 354.511174 
L 114.048 347.6122 
L 117.216 338.326323 
L 120.384 331.746246 
L 123.552 331.135944 
L 126.72 338.863212 
L 129.888 344.925804 
L 133.056 346.569684 
L 136.224 346.46555 
L 139.392 343.564784 
L 142.56 342.069663 
L 145.728 339.313155 
L 148.896 336.959658 
L 152.064 332.400983 
L 155.232 332.04903 
L 158.4 333.770536 
L 161.568 333.901209 
L 164.736 336.54103 
L 167.904 337.081387 
L 171.072 337.318508 
L 174.24 338.450715 
L 177.408 337.811836 
L 180.576 335.140224 
L 183.744 330.541027 
L 186.912 331.505689 
L 190.08 328.882476 
L 193.248 324.490076 
L 196.416 321.482828 
L 199.584 317.192023 
L 202.752 316.123276 
L 205.92 314.699335 
L 209.088 321.190968 
L 212.256 329.298788 
L 215.424 338.429135 
L 218.592 345.893664 
L 221.76 351.497335 
L 224.928 349.997304 
L 228.096 353.991493 
L 231.264 353.785904 
L 234.432 350.947668 
L 237.6 343.929106 
L 240.768 340.307154 
L 243.936 333.478325 
L 247.104 339.736095 
L 250.272 342.703935 
L 253.44 342.475044 
L 256.608 340.804839 
L 259.776 336.528086 
L 262.944 328.558938 
L 266.112 321.991978 
L 269.28 323.039788 
L 272.448 324.924641 
L 275.616 325.364018 
L 281.952 318.670438 
L 285.12 313.772258 
L 288.288 309.248412 
L 291.456 304.498994 
L 294.624 304.518057 
L 297.792 302.956719 
L 300.96 302.155408 
L 304.128 300.127054 
L 307.296 299.408278 
L 310.464 295.832319 
L 313.632 292.492404 
L 316.8 293.412476 
L 319.968 295.972017 
L 323.136 305.211503 
L 326.304 311.628869 
L 329.472 319.327381 
L 332.64 333.251999 
L 335.808 350.227315 
L 338.976 356.259212 
L 342.144 367.262856 
L 345.312 380.594399 
L 348.48 387.728132 
L 351.648 389.935327 
L 354.816 389.087497 
L 357.984 391.503199 
L 361.152 395.476566 
L 364.32 396.523606 
L 367.488 401.19799 
L 370.656 406.436671 
L 373.824 407.292988 
L 376.992 408.672428 
L 380.16 410.934731 
L 383.328 415.176086 
L 386.496 419.113727 
L 389.664 424.052139 
L 392.832 425.746909 
L 396 424.920929 
L 399.168 419.133982 
L 402.336 413.08752 
L 405.504 409.985844 
L 408.672 409.030327 
L 411.84 403.930282 
L 415.008 401.529881 
L 421.344 394.055643 
L 424.512 377.803071 
L 427.68 369.70809 
L 430.848 365.382291 
L 434.016 366.098781 
L 437.184 370.833889 
L 443.52 372.499183 
L 449.856 369.689308 
L 453.024 364.908841 
L 456.192 361.307843 
L 459.36 361.788924 
L 462.528 362.544703 
L 465.696 361.788807 
L 468.864 359.948482 
L 472.032 359.975543 
L 475.2 360.832809 
L 484.704 347.564276 
L 487.872 345.584008 
L 491.04 343.00378 
L 494.208 345.099667 
L 497.376 349.106314 
L 500.544 354.440924 
L 503.712 355.955014 
L 506.88 357.752153 
L 510.048 361.012346 
L 513.216 362.484529 
L 516.384 359.527402 
L 519.552 354.939906 
L 522.72 354.756261 
L 525.888 350.812661 
L 529.056 350.660426 
L 532.224 354.67371 
L 538.56 359.398075 
L 541.728 362.309787 
L 544.896 364.477841 
L 548.064 376.172661 
L 551.232 388.375885 
L 554.4 397.015911 
L 557.568 398.264558 
L 560.736 400.175976 
L 563.904 402.662029 
L 567.072 396.167919 
L 570.24 385.59144 
L 573.408 377.238436 
L 576.576 368.479126 
L 579.744 363.702355 
L 582.912 363.200808 
L 586.08 362.818137 
L 589.248 362.076684 
L 592.416 353.965934 
L 595.584 353.335343 
L 598.752 351.696149 
L 601.92 349.136486 
L 605.088 342.164522 
L 608.256 336.356483 
L 611.424 328.205705 
L 617.76 316.905328 
L 620.928 310.942949 
L 624.096 306.011866 
L 627.264 300.644564 
L 633.6 291.591521 
L 636.768 291.827132 
L 639.936 289.620313 
L 643.104 286.038457 
L 646.272 281.555673 
L 649.44 278.651782 
L 652.608 283.166118 
L 655.776 283.391364 
L 658.944 278.978446 
L 662.112 275.817089 
L 665.28 272.286213 
L 668.448 272.468811 
L 671.616 273.389999 
L 674.784 275.007358 
L 677.952 277.699739 
L 681.12 275.522901 
L 684.288 275.437821 
L 687.456 275.838316 
L 690.624 280.839581 
L 693.792 282.037619 
L 696.96 280.869817 
L 700.128 280.770656 
L 703.296 281.969721 
L 706.464 286.822503 
L 709.632 294.420225 
L 712.8 299.388607 
L 715.968 301.992873 
L 719.136 308.970564 
L 722.304 312.307624 
L 725.472 311.130082 
L 728.64 311.413756 
L 731.808 312.83952 
L 734.976 316.025263 
L 738.144 317.189738 
L 741.312 315.364044 
L 744.48 312.182142 
L 747.648 312.399543 
L 750.816 307.58501 
L 753.984 302.139556 
L 757.152 300.733538 
L 760.32 298.496826 
L 763.488 295.854946 
L 766.656 299.016184 
L 769.824 302.94645 
L 772.992 302.88112 
L 776.16 301.632176 
L 779.328 302.016137 
L 782.496 301.491132 
L 785.664 301.884929 
L 788.832 300.438056 
L 788.832 300.438056 
" clip-path="url(#pb266829028)" style="fill: none; stroke: #000000; stroke-width: 1.5; stroke-linecap: square"/>
   </g>
   <g id="line2d_4">
    <path d="M 0 459 
L 3.168 459 
L 9.504 459.615053 
L 12.672 460.3488 
L 15.84 460.69274 
L 19.008 459.341843 
L 22.176 457.134548 
L 25.344 453.022537 
L 28.512 453.347661 
L 31.68 453.103143 
L 38.016 448.254253 
L 41.184 447.12558 
L 44.352 445.17536 
L 47.52 441.964278 
L 50.688 440.608086 
L 53.856 438.691348 
L 57.024 438.142189 
L 60.192 436.067731 
L 63.36 435.590814 
L 66.528 436.587791 
L 69.696 437.395424 
L 76.032 439.468091 
L 79.2 440.889236 
L 82.368 440.28384 
L 85.536 440.174927 
L 88.704 436.943936 
L 91.872 432.185799 
L 95.04 424.967936 
L 101.376 408.132881 
L 104.544 399.795029 
L 107.712 390.933229 
L 110.88 378.847395 
L 114.048 371.091508 
L 117.216 362.143666 
L 120.384 354.646689 
L 123.552 350.62151 
L 129.888 353.025935 
L 133.056 352.622877 
L 136.224 351.600095 
L 139.392 349.186273 
L 142.56 347.452158 
L 145.728 345.058355 
L 148.896 342.822651 
L 152.064 339.351544 
L 155.232 338.006044 
L 158.4 337.942344 
L 161.568 337.28315 
L 164.736 338.121157 
L 171.072 337.981475 
L 174.24 338.422981 
L 177.408 338.029086 
L 180.576 336.489786 
L 183.744 333.718553 
L 186.912 333.682746 
L 190.08 331.85686 
L 193.248 328.944629 
L 196.416 326.557677 
L 199.584 323.374935 
L 205.92 320.078653 
L 209.088 322.757435 
L 212.256 326.919338 
L 215.424 332.237806 
L 218.592 337.253784 
L 221.76 341.649852 
L 224.928 342.408613 
L 228.096 345.750105 
L 231.264 346.925925 
L 234.432 346.461042 
L 237.6 343.362178 
L 240.768 341.474995 
L 243.936 337.552281 
L 247.104 340.298656 
L 250.272 341.8052 
L 253.44 341.81868 
L 256.608 341.003205 
L 259.776 338.64466 
L 262.944 333.967858 
L 266.112 329.519097 
L 269.28 328.905952 
L 272.448 329.016256 
L 275.616 328.606703 
L 281.952 323.779639 
L 288.288 316.768981 
L 291.456 312.961947 
L 294.624 311.620262 
L 297.792 309.65242 
L 300.96 308.168674 
L 304.128 306.113065 
L 307.296 304.778152 
L 313.632 299.118915 
L 316.8 298.531859 
L 319.968 299.09136 
L 323.136 303.596731 
L 326.304 307.311573 
L 329.472 312.113831 
L 332.64 320.694848 
L 335.808 331.704486 
L 338.976 337.817824 
L 342.144 346.564019 
L 345.312 356.921881 
L 348.48 364.423022 
L 351.648 369.248231 
L 354.816 372.031398 
L 357.984 376.001624 
L 361.152 380.566643 
L 364.32 383.47476 
L 367.488 388.055184 
L 370.656 392.948107 
L 376.992 398.157388 
L 380.16 401.065535 
L 386.496 408.773993 
L 389.664 413.136087 
L 392.832 415.853765 
L 396 417.048715 
L 399.168 415.231596 
L 402.336 412.632419 
L 405.504 411.080253 
L 408.672 410.452098 
L 411.84 407.529578 
L 415.008 405.725696 
L 418.176 403.118881 
L 421.344 400.295057 
L 424.512 390.470284 
L 427.68 384.060575 
L 430.848 379.439431 
L 434.016 377.620448 
L 437.184 378.393138 
L 440.352 377.683643 
L 443.52 377.199126 
L 449.856 374.19144 
L 453.024 370.868218 
L 456.192 367.960951 
L 459.36 367.168276 
L 462.528 366.714968 
L 465.696 365.636623 
L 468.864 364.006317 
L 472.032 363.354043 
L 475.2 363.239752 
L 478.368 360.387198 
L 481.536 357.345143 
L 484.704 354.020638 
L 487.872 351.880171 
L 491.04 349.427613 
L 494.208 349.514432 
L 497.376 350.960736 
L 500.544 353.540861 
L 503.712 354.478041 
L 506.88 355.657088 
L 510.048 357.730067 
L 513.216 359.032128 
L 516.384 357.955942 
L 519.552 355.693976 
L 522.72 355.458796 
L 525.888 353.215801 
L 529.056 352.747059 
L 532.224 354.58828 
L 538.56 357.309641 
L 541.728 359.196346 
L 544.896 360.85002 
L 548.064 367.740902 
L 551.232 375.655786 
L 554.4 382.326627 
L 560.736 388.417021 
L 563.904 391.624895 
L 567.072 389.860183 
L 570.24 385.120248 
L 573.408 380.648801 
L 576.576 375.314623 
L 579.744 371.61681 
L 582.912 370.094069 
L 589.248 367.458077 
L 592.416 362.187105 
L 595.584 360.541663 
L 598.752 358.52324 
L 601.92 356.064696 
L 605.088 351.175786 
L 608.256 346.571586 
L 611.424 340.47411 
L 617.76 330.252417 
L 620.928 324.823722 
L 624.096 319.867065 
L 627.264 314.671182 
L 633.6 305.173043 
L 636.768 303.120906 
L 639.936 300.086335 
L 643.104 296.408292 
L 646.272 292.255278 
L 649.44 288.899813 
L 652.608 289.702614 
L 655.776 288.729329 
L 658.944 285.409556 
L 662.112 282.588886 
L 665.28 279.506423 
L 668.448 278.407503 
L 671.616 277.926774 
L 674.784 278.050749 
L 677.952 278.998871 
L 681.12 277.566632 
L 684.288 277.147707 
L 687.456 277.053616 
L 690.624 279.532133 
L 693.792 280.354863 
L 696.96 279.9415 
L 700.128 279.990197 
L 703.296 280.735842 
L 706.464 283.531888 
L 709.632 288.113053 
L 712.8 291.753663 
L 715.968 294.330015 
L 719.136 299.261718 
L 722.304 302.568676 
L 725.472 303.466359 
L 728.64 304.829321 
L 731.808 306.629716 
L 734.976 309.324125 
L 738.144 311.002176 
L 741.312 311.003701 
L 744.48 309.979614 
L 747.648 310.451838 
L 750.816 308.153834 
L 753.984 305.090787 
L 757.152 303.862197 
L 760.32 302.170057 
L 763.488 300.167144 
L 766.656 301.233112 
L 769.824 303.05159 
L 772.992 303.027442 
L 776.16 302.34375 
L 779.328 302.45666 
L 782.496 302.130154 
L 785.664 302.272863 
L 788.832 301.451274 
L 788.832 301.451274 
" clip-path="url(#pb266829028)" style="fill: none; stroke: #000000; stroke-width: 1.5; stroke-linecap: square"/>
   </g>
   <g id="line2d_5">
    <path d="M 0 459 
L 3.168 459 
L 9.504 459.583581 
L 12.672 460.245906 
L 15.84 460.565948 
L 19.008 459.468202 
L 22.176 458.005059 
L 25.344 454.642903 
L 28.512 454.641918 
L 31.68 454.275375 
L 38.016 450.432887 
L 41.184 449.385487 
L 44.352 447.798422 
L 47.52 445.366547 
L 50.688 444.105209 
L 53.856 442.498745 
L 57.024 441.75161 
L 60.192 440.088754 
L 63.36 439.390237 
L 69.696 439.807169 
L 76.032 440.632928 
L 79.2 441.350147 
L 82.368 440.958368 
L 85.536 440.834112 
L 88.704 438.939231 
L 91.872 436.074051 
L 95.04 431.674696 
L 101.376 420.812925 
L 104.544 415.086681 
L 107.712 408.861443 
L 110.88 400.637837 
L 114.048 394.481364 
L 117.216 387.538303 
L 120.384 381.223143 
L 123.552 376.729617 
L 126.72 375.125363 
L 129.888 373.831134 
L 133.056 371.855564 
L 136.224 369.680805 
L 139.392 366.857494 
L 142.56 364.443232 
L 148.896 359.139776 
L 152.064 355.917876 
L 155.232 353.818253 
L 158.4 352.474678 
L 161.568 350.920535 
L 164.736 350.245081 
L 171.072 348.274022 
L 174.24 347.675182 
L 177.408 346.722564 
L 180.576 345.213464 
L 183.744 343.04802 
L 186.912 342.279336 
L 190.08 340.621728 
L 193.248 338.372886 
L 196.416 336.339928 
L 199.584 333.851931 
L 205.92 330.346753 
L 209.088 330.868171 
L 212.256 332.33681 
L 221.76 339.274605 
L 224.928 339.829521 
L 228.096 341.755116 
L 231.264 342.667249 
L 234.432 342.747 
L 237.6 341.414081 
L 240.768 340.561207 
L 243.936 338.558337 
L 247.104 339.875613 
L 250.272 340.66598 
L 253.44 340.73206 
L 256.608 340.366434 
L 259.776 339.158534 
L 266.112 334.061235 
L 269.28 333.329571 
L 272.448 332.987193 
L 275.616 332.410394 
L 281.952 329.109354 
L 288.288 324.365362 
L 291.456 321.692641 
L 294.624 320.226054 
L 297.792 318.445085 
L 300.96 316.906158 
L 304.128 315.073627 
L 307.296 313.604911 
L 313.632 309.092015 
L 316.8 307.956076 
L 319.968 307.47904 
L 323.136 309.169666 
L 326.304 310.661424 
L 329.472 312.897103 
L 332.64 317.297321 
L 335.808 323.273334 
L 338.976 327.113433 
L 342.144 332.489029 
L 345.312 338.94783 
L 348.48 344.269038 
L 351.648 348.398255 
L 354.816 351.542441 
L 357.984 355.261768 
L 361.152 359.302297 
L 364.32 362.534173 
L 367.488 366.595096 
L 370.656 370.868954 
L 380.16 380.352054 
L 386.496 387.742921 
L 389.664 391.71522 
L 392.832 394.875149 
L 396 397.221037 
L 399.168 397.913881 
L 402.336 397.997369 
L 405.504 398.396863 
L 408.672 399.115627 
L 411.84 398.519421 
L 415.008 398.305629 
L 418.176 397.542405 
L 421.344 396.513873 
L 424.512 391.693175 
L 427.68 388.235424 
L 430.848 385.460617 
L 434.016 384.011505 
L 437.184 383.900578 
L 440.352 383.085623 
L 443.52 382.403338 
L 449.856 379.983575 
L 456.192 375.688836 
L 459.36 374.649198 
L 462.528 373.814316 
L 465.696 372.68707 
L 468.864 371.279463 
L 472.032 370.361973 
L 475.2 369.744614 
L 478.368 367.733807 
L 481.536 365.557334 
L 484.704 363.162004 
L 487.872 361.314729 
L 491.04 359.281309 
L 494.208 358.550052 
L 497.376 358.596243 
L 500.544 359.349974 
L 503.712 359.390408 
L 506.88 359.634902 
L 510.048 360.4249 
L 513.216 360.916592 
L 516.384 360.234792 
L 519.552 358.893464 
L 522.72 358.531965 
L 525.888 357.106337 
L 529.056 356.545109 
L 532.224 357.198447 
L 535.392 357.661753 
L 538.56 358.253421 
L 544.896 360.019836 
L 548.064 363.660791 
L 551.232 368.094752 
L 554.4 372.162331 
L 560.736 377.024132 
L 563.904 379.612693 
L 567.072 379.679517 
L 573.408 376.289584 
L 576.576 373.859409 
L 579.744 372.030492 
L 589.248 369.522135 
L 592.416 366.561336 
L 595.584 365.310268 
L 598.752 363.835407 
L 601.92 362.092014 
L 608.256 355.921716 
L 611.424 351.913778 
L 614.592 348.274952 
L 617.76 344.45072 
L 633.6 324.156589 
L 636.768 321.458467 
L 639.936 318.284275 
L 643.104 314.778749 
L 646.272 310.999921 
L 649.44 307.62746 
L 652.608 306.496831 
L 655.776 304.581696 
L 658.944 301.483865 
L 665.28 295.639325 
L 668.448 293.697863 
L 671.616 292.155647 
L 674.784 291.025441 
L 677.952 290.437659 
L 681.12 288.717631 
L 684.288 287.56594 
L 687.456 286.650552 
L 690.624 287.166861 
L 693.792 286.963166 
L 696.96 286.193711 
L 700.128 285.694371 
L 703.296 285.604254 
L 706.464 286.657733 
L 709.632 288.783659 
L 712.8 290.608126 
L 715.968 292.025763 
L 719.136 294.759128 
L 722.304 296.827095 
L 725.472 297.746642 
L 728.64 298.906566 
L 731.808 300.305222 
L 734.976 302.191936 
L 738.144 303.624133 
L 741.312 304.208471 
L 744.48 304.211451 
L 747.648 304.900847 
L 750.816 304.128177 
L 753.984 302.833448 
L 757.152 302.340384 
L 760.32 301.543861 
L 763.488 300.508668 
L 766.656 300.991256 
L 769.824 301.92497 
L 772.992 301.97884 
L 776.16 301.684706 
L 779.328 301.778012 
L 782.496 301.637792 
L 785.664 301.725404 
L 788.832 301.315444 
L 788.832 301.315444 
" clip-path="url(#pb266829028)" style="fill: none; stroke: #000000; stroke-width: 1.5; stroke-linecap: square"/>
   </g>
   <g id="line2d_6">
    <path d="M 0 459 
L 3.168 459 
L 9.504 459.567738 
L 12.672 460.194799 
L 15.84 460.501058 
L 19.008 459.519912 
L 22.176 458.403718 
L 25.344 455.41404 
L 28.512 455.311936 
L 31.68 454.922479 
L 38.016 451.598443 
L 41.184 450.643909 
L 44.352 449.273661 
L 47.52 447.251521 
L 50.688 446.12495 
L 53.856 444.746742 
L 57.024 444.013878 
L 60.192 442.620019 
L 63.36 441.92775 
L 69.696 441.886599 
L 76.032 442.201866 
L 79.2 442.591816 
L 82.368 442.24884 
L 85.536 442.08629 
L 88.704 440.754669 
L 91.872 438.76594 
L 95.04 435.746876 
L 101.376 428.21097 
L 104.544 424.162378 
L 107.712 419.737898 
L 110.88 413.994462 
L 114.048 409.441519 
L 117.216 404.345066 
L 120.384 399.567864 
L 123.552 395.855074 
L 126.72 393.886743 
L 129.888 392.139862 
L 136.224 387.80054 
L 139.392 385.211836 
L 142.56 382.868327 
L 148.896 377.922778 
L 152.064 375.122459 
L 155.232 372.967679 
L 161.568 369.465025 
L 164.736 368.19091 
L 171.072 365.383525 
L 174.24 364.238041 
L 177.408 362.923104 
L 180.576 361.316669 
L 183.744 359.351469 
L 186.912 358.165446 
L 190.08 356.506494 
L 199.584 350.525962 
L 205.92 347.089835 
L 209.088 346.638668 
L 212.256 346.752095 
L 215.424 347.376833 
L 221.76 348.863923 
L 224.928 348.752728 
L 228.096 349.406163 
L 231.264 349.573475 
L 234.432 349.328009 
L 237.6 348.341877 
L 240.768 347.59737 
L 243.936 346.237942 
L 247.104 346.615275 
L 250.272 346.751966 
L 253.44 346.535092 
L 256.608 346.102224 
L 259.776 345.229637 
L 266.112 342.000221 
L 269.28 341.285336 
L 272.448 340.775522 
L 275.616 340.150752 
L 281.952 337.760599 
L 288.288 334.51901 
L 291.456 332.687871 
L 294.624 331.452669 
L 304.128 327.267 
L 307.296 325.972775 
L 313.632 322.510321 
L 316.8 321.33467 
L 319.968 320.505485 
L 326.304 321.109412 
L 329.472 321.8327 
L 332.64 323.743131 
L 335.808 326.564046 
L 338.976 328.405873 
L 342.144 331.112862 
L 345.312 334.476483 
L 348.48 337.378443 
L 351.648 339.769072 
L 354.816 341.727336 
L 357.984 344.025907 
L 361.152 346.544596 
L 364.32 348.714846 
L 367.488 351.347434 
L 370.656 354.143679 
L 380.16 361.131259 
L 386.496 366.498565 
L 389.664 369.384388 
L 392.832 371.904488 
L 396 374.040252 
L 399.168 375.353462 
L 402.336 376.332724 
L 405.504 377.434633 
L 408.672 378.654368 
L 411.84 379.194857 
L 415.008 379.882326 
L 418.176 380.255761 
L 421.344 380.447975 
L 424.512 378.673695 
L 427.68 377.455108 
L 430.848 376.490994 
L 434.016 376.117791 
L 437.184 376.377347 
L 443.52 376.186752 
L 449.856 375.412506 
L 456.192 373.529986 
L 465.696 372.150771 
L 468.864 371.433326 
L 472.032 370.938768 
L 475.2 370.580257 
L 478.368 369.497051 
L 481.536 368.286495 
L 484.704 366.920655 
L 487.872 365.791255 
L 491.04 364.534013 
L 494.208 363.913946 
L 497.376 363.692379 
L 500.544 363.847583 
L 503.712 363.664907 
L 506.88 363.596643 
L 510.048 363.823068 
L 513.216 363.920449 
L 516.384 363.437634 
L 519.552 362.607848 
L 522.72 362.262191 
L 525.888 361.374699 
L 529.056 360.905 
L 538.56 361.289448 
L 544.896 361.973728 
L 548.064 363.764707 
L 554.4 368.205376 
L 560.736 371.077521 
L 563.904 372.655588 
L 567.072 372.994486 
L 573.408 371.81438 
L 576.576 370.778069 
L 579.744 369.987974 
L 589.248 368.951236 
L 592.416 367.479504 
L 595.584 366.818537 
L 598.752 366.018038 
L 601.92 365.047975 
L 608.256 361.603035 
L 617.76 354.792905 
L 624.096 349.693331 
L 633.6 341.427663 
L 636.768 339.2804 
L 639.936 336.861835 
L 643.104 334.235109 
L 646.272 331.42206 
L 649.44 328.777862 
L 652.608 327.274401 
L 655.776 325.372499 
L 665.28 317.90896 
L 668.448 315.929051 
L 671.616 314.161492 
L 674.784 312.619358 
L 677.952 311.382285 
L 681.12 309.572357 
L 684.288 308.068243 
L 687.456 306.704338 
L 690.624 306.119003 
L 693.792 305.201615 
L 696.96 304.020193 
L 700.128 302.998646 
L 703.296 302.217615 
L 706.464 302.066261 
L 712.8 302.904131 
L 715.968 303.128974 
L 719.136 304.085644 
L 722.304 304.766832 
L 725.472 304.912081 
L 728.64 305.207816 
L 731.808 305.664291 
L 734.976 306.411534 
L 738.144 306.967375 
L 741.312 307.12111 
L 744.48 306.998651 
L 747.648 307.230144 
L 750.816 306.733713 
L 753.984 305.960562 
L 757.152 305.577911 
L 760.32 305.033349 
L 763.488 304.354148 
L 766.656 304.43919 
L 769.824 304.769303 
L 772.992 304.668251 
L 776.16 304.393784 
L 779.328 304.317188 
L 782.496 304.12837 
L 785.664 304.059331 
L 788.832 303.74042 
L 788.832 303.74042 
" clip-path="url(#pb266829028)" style="fill: none; stroke: #000000; stroke-width: 1.5; stroke-linecap: square"/>
   </g>
   <g id="line2d_7">
    <path d="M 0 459 
L 3.168 459 
L 9.504 459.559803 
L 12.672 460.1694 
L 15.84 460.468389 
L 22.176 458.591875 
L 25.344 455.784872 
L 28.512 455.645939 
L 31.68 455.253847 
L 38.016 452.187244 
L 41.184 451.289324 
L 44.352 450.032459 
L 47.52 448.21318 
L 50.688 447.170713 
L 53.856 445.919248 
L 57.024 445.220123 
L 60.192 443.972021 
L 63.36 443.312741 
L 69.696 443.123829 
L 76.032 443.250896 
L 79.2 443.508943 
L 82.368 443.191217 
L 85.536 443.017661 
L 88.704 441.933608 
L 91.872 440.337631 
L 95.04 437.943692 
L 101.376 431.982298 
L 104.544 428.772896 
L 107.712 425.270876 
L 110.88 420.775003 
L 114.048 417.140131 
L 117.216 413.094956 
L 120.384 409.26952 
L 123.552 406.207014 
L 126.72 404.401865 
L 129.888 402.764164 
L 136.224 398.910347 
L 139.392 396.695685 
L 145.728 392.503703 
L 148.896 390.402633 
L 152.064 388.05356 
L 155.232 386.147557 
L 161.568 382.902707 
L 167.904 380.226665 
L 171.072 378.883017 
L 177.408 376.416631 
L 180.576 374.945883 
L 183.744 373.243395 
L 186.912 372.052066 
L 190.08 370.559522 
L 199.584 365.440193 
L 205.92 362.380059 
L 209.088 361.658948 
L 212.256 361.307318 
L 218.592 361.370204 
L 221.76 361.471195 
L 224.928 361.055827 
L 228.096 361.124618 
L 231.264 360.909808 
L 234.432 360.453186 
L 237.6 359.551143 
L 240.768 358.797805 
L 243.936 357.673819 
L 247.104 357.600139 
L 250.272 357.393741 
L 253.44 356.984782 
L 256.608 356.45308 
L 259.776 355.663186 
L 266.112 353.19371 
L 269.28 352.483027 
L 275.616 351.24485 
L 281.952 349.275406 
L 288.288 346.792887 
L 291.456 345.418685 
L 297.792 343.241254 
L 307.296 339.893201 
L 313.632 337.207306 
L 316.8 336.172892 
L 319.968 335.335922 
L 326.304 334.973221 
L 329.472 335.049614 
L 332.64 335.814089 
L 335.808 337.116819 
L 338.976 337.900145 
L 342.144 339.190452 
L 345.312 340.87551 
L 348.48 342.336989 
L 351.648 343.544087 
L 354.816 344.536527 
L 357.984 345.736023 
L 361.152 347.078426 
L 364.32 348.253721 
L 373.824 352.570838 
L 380.16 355.311898 
L 386.496 358.493481 
L 389.664 360.224808 
L 392.832 361.783143 
L 396 363.155166 
L 399.168 364.103703 
L 405.504 365.727666 
L 408.672 366.648118 
L 418.176 368.333485 
L 421.344 368.711766 
L 424.512 368.04591 
L 427.68 367.648603 
L 430.848 367.366439 
L 434.016 367.38188 
L 437.184 367.721353 
L 443.52 368.014737 
L 449.856 367.977347 
L 456.192 367.319188 
L 465.696 367.005073 
L 472.032 366.602108 
L 475.2 366.517511 
L 481.536 365.500866 
L 487.872 364.320607 
L 491.04 363.704381 
L 494.208 363.404509 
L 497.376 363.304149 
L 500.544 363.395519 
L 506.88 363.283762 
L 513.216 363.465743 
L 516.384 363.221372 
L 519.552 362.793281 
L 522.72 362.606062 
L 525.888 362.134797 
L 529.056 361.872124 
L 541.728 362.169536 
L 544.896 362.333296 
L 548.064 363.24674 
L 554.4 365.572222 
L 560.736 367.167635 
L 563.904 368.058847 
L 567.072 368.329415 
L 573.408 367.915589 
L 576.576 367.467326 
L 579.744 367.132613 
L 589.248 366.763795 
L 592.416 366.055575 
L 598.752 365.353808 
L 601.92 364.867472 
L 608.256 363.08469 
L 617.76 359.420897 
L 624.096 356.576092 
L 636.768 350.460462 
L 639.936 348.966927 
L 646.272 345.598858 
L 649.44 343.916067 
L 652.608 342.806567 
L 655.776 341.48063 
L 665.28 336.484493 
L 671.616 333.700195 
L 674.784 332.466701 
L 677.952 331.386015 
L 681.12 330.001652 
L 687.456 327.598089 
L 690.624 326.832605 
L 693.792 325.897029 
L 700.128 323.831577 
L 703.296 322.965031 
L 706.464 322.430532 
L 712.8 321.98969 
L 715.968 321.687807 
L 719.136 321.778845 
L 722.304 321.745892 
L 728.64 321.244652 
L 731.808 321.133431 
L 738.144 321.156978 
L 741.312 320.934286 
L 744.48 320.575326 
L 747.648 320.406418 
L 750.816 319.871668 
L 753.984 319.194208 
L 760.32 318.155143 
L 763.488 317.526218 
L 766.656 317.291641 
L 769.824 317.190085 
L 785.664 315.557673 
L 788.832 315.153428 
L 788.832 315.153428 
" clip-path="url(#pb266829028)" style="fill: none; stroke: #000000; stroke-width: 1.5; stroke-linecap: square"/>
   </g>
   <g id="line2d_8">
    <path d="M 0 459 
L 3.168 459 
L 9.504 459.555833 
L 12.672 460.156747 
L 15.84 460.452019 
L 22.176 458.682944 
L 25.344 455.966031 
L 28.512 455.811819 
L 31.68 455.420426 
L 38.016 452.481232 
L 41.184 451.613602 
L 44.352 450.413964 
L 47.52 448.694497 
L 50.688 447.697127 
L 53.856 446.510885 
L 57.024 445.834196 
L 60.192 444.660364 
L 63.36 444.023928 
L 69.696 443.781352 
L 76.032 443.833378 
L 79.2 444.035616 
L 82.368 443.73223 
L 85.536 443.556858 
L 88.704 442.587198 
L 91.872 441.172544 
L 95.04 439.066699 
L 101.376 433.840842 
L 104.544 431.030801 
L 107.712 427.971012 
L 110.88 424.067917 
L 114.048 420.88952 
L 117.216 417.366044 
L 120.384 414.025992 
L 123.552 411.322614 
L 126.72 409.666051 
L 129.888 408.152731 
L 136.224 404.66333 
L 139.392 402.689086 
L 145.728 398.943853 
L 148.896 397.071699 
L 152.064 395.002904 
L 155.232 393.291924 
L 161.568 390.334277 
L 180.576 382.968992 
L 183.744 381.46225 
L 186.912 380.353109 
L 190.08 379.01551 
L 199.584 374.524351 
L 205.92 371.807568 
L 209.088 371.063409 
L 212.256 370.601693 
L 218.592 370.26865 
L 221.76 370.162732 
L 224.928 369.679523 
L 228.096 369.558143 
L 231.264 369.233082 
L 234.432 368.734746 
L 243.936 366.225709 
L 250.272 365.702934 
L 256.608 364.718932 
L 259.776 364.002038 
L 266.112 361.936691 
L 272.448 360.70337 
L 275.616 360.08829 
L 281.952 358.393153 
L 288.288 356.340426 
L 291.456 355.22078 
L 300.96 352.458465 
L 310.464 349.468899 
L 313.632 348.35899 
L 316.8 347.470909 
L 319.968 346.717457 
L 326.304 346.105715 
L 329.472 345.978638 
L 332.64 346.318309 
L 335.808 347.024714 
L 338.976 347.39158 
L 342.144 348.101691 
L 345.312 349.080673 
L 348.48 349.919682 
L 351.648 350.598136 
L 354.816 351.141769 
L 364.32 353.291678 
L 383.328 358.527965 
L 396 362.467812 
L 402.336 363.579915 
L 408.672 364.728769 
L 418.176 365.869084 
L 421.344 366.138496 
L 424.512 365.762409 
L 430.848 365.404141 
L 434.016 365.440961 
L 437.184 365.676453 
L 446.688 365.940023 
L 449.856 365.947477 
L 456.192 365.600663 
L 465.696 365.47822 
L 472.032 365.274811 
L 475.2 365.24176 
L 481.536 364.663607 
L 491.04 363.613786 
L 494.208 363.436411 
L 497.376 363.376323 
L 503.712 363.379242 
L 510.048 363.434221 
L 513.216 363.468134 
L 522.72 362.957706 
L 525.888 362.676895 
L 529.056 362.516135 
L 541.728 362.658447 
L 544.896 362.747355 
L 548.064 363.271903 
L 554.4 364.622648 
L 560.736 365.570101 
L 563.904 366.102588 
L 567.072 366.28249 
L 573.408 366.095507 
L 579.744 365.690788 
L 589.248 365.532024 
L 592.416 365.144688 
L 598.752 364.767147 
L 601.92 364.498797 
L 608.256 363.49434 
L 617.76 361.390902 
L 624.096 359.731029 
L 643.104 354.18767 
L 649.44 352.086716 
L 652.608 351.364201 
L 655.776 350.515824 
L 668.448 346.420907 
L 674.784 344.695728 
L 677.952 343.942615 
L 684.288 342.167136 
L 687.456 341.351811 
L 693.792 340.067797 
L 700.128 338.569834 
L 703.296 337.909353 
L 706.464 337.432327 
L 719.136 336.359511 
L 722.304 336.167973 
L 728.64 335.548028 
L 734.976 335.17835 
L 741.312 334.710337 
L 750.816 333.637955 
L 757.152 332.675476 
L 763.488 331.691857 
L 779.328 330.133642 
L 788.832 329.080831 
L 788.832 329.080831 
" clip-path="url(#pb266829028)" style="fill: none; stroke: #000000; stroke-width: 1.5; stroke-linecap: square"/>
   </g>
   <g id="line2d_9">
    <path d="M 0 459 
L 3.168 459 
L 9.504 459.553848 
L 12.672 460.150434 
L 15.84 460.443827 
L 22.176 458.727702 
L 25.344 456.055478 
L 28.512 455.894371 
L 31.68 455.503803 
L 38.016 452.627875 
L 41.184 451.775806 
L 44.352 450.604819 
L 47.52 448.934709 
L 50.688 447.960485 
L 53.856 446.807129 
L 57.024 446.142866 
L 60.192 445.0063 
L 63.36 444.382663 
L 69.696 444.118069 
L 76.032 444.137349 
L 79.2 444.314339 
L 82.368 444.018635 
L 85.536 443.843369 
L 88.704 442.92844 
L 91.872 441.600269 
L 95.04 439.631457 
L 101.376 434.756971 
L 104.544 432.13899 
L 107.712 429.292359 
L 110.88 425.67362 
L 114.048 422.718213 
L 117.216 419.449216 
L 120.384 416.348379 
L 123.552 413.827277 
L 126.72 412.256776 
L 129.888 410.818446 
L 136.224 407.532359 
L 139.392 405.686819 
L 148.896 400.437328 
L 152.064 398.517153 
L 155.232 396.916673 
L 161.568 394.134061 
L 180.576 387.17249 
L 183.744 385.776916 
L 186.912 384.728449 
L 190.08 383.48413 
L 199.584 379.348367 
L 205.92 376.837526 
L 209.088 376.110236 
L 212.256 375.626296 
L 218.592 375.168374 
L 221.76 374.994514 
L 224.928 374.503743 
L 228.096 374.32041 
L 231.264 373.967656 
L 234.432 373.471167 
L 243.936 371.140868 
L 250.272 370.552642 
L 256.608 369.588217 
L 259.776 368.922138 
L 266.112 367.072066 
L 272.448 365.908947 
L 275.616 365.330565 
L 281.952 363.797231 
L 288.288 361.976101 
L 291.456 360.990767 
L 300.96 358.52125 
L 310.464 355.875176 
L 313.632 354.90342 
L 319.968 353.423185 
L 326.304 352.766542 
L 329.472 352.581986 
L 332.64 352.768114 
L 335.808 353.245566 
L 338.976 353.457811 
L 342.144 353.941555 
L 348.48 355.227306 
L 364.32 357.557483 
L 383.328 361.327743 
L 396 364.215897 
L 402.336 365.019552 
L 411.84 366.127895 
L 418.176 366.675729 
L 421.344 366.868183 
L 424.512 366.58053 
L 430.848 366.296939 
L 434.016 366.315002 
L 440.352 366.555947 
L 446.688 366.651118 
L 449.856 366.649431 
L 459.36 366.348596 
L 465.696 366.268646 
L 472.032 366.105148 
L 475.2 366.07314 
L 481.536 365.638675 
L 491.04 364.852457 
L 497.376 364.658335 
L 503.712 364.636687 
L 516.384 364.55215 
L 525.888 364.059235 
L 529.056 363.93331 
L 544.896 364.033532 
L 551.232 364.853907 
L 554.4 365.311952 
L 567.072 366.447075 
L 573.408 366.315016 
L 579.744 366.032093 
L 589.248 365.914214 
L 592.416 365.64613 
L 601.92 365.191779 
L 608.256 364.496287 
L 617.76 363.040912 
L 627.264 361.2558 
L 646.272 357.277655 
L 649.44 356.549612 
L 655.776 355.426096 
L 668.448 352.525062 
L 674.784 351.279665 
L 677.952 350.727856 
L 684.288 349.442386 
L 687.456 348.845784 
L 693.792 347.879149 
L 703.296 346.269732 
L 706.464 345.891258 
L 719.136 344.925161 
L 725.472 344.44987 
L 731.808 343.982168 
L 738.144 343.642696 
L 747.648 342.860481 
L 766.656 340.714229 
L 772.992 340.217878 
L 788.832 338.741485 
L 788.832 338.741485 
" clip-path="url(#pb266829028)" style="fill: none; stroke: #000000; stroke-width: 1.5; stroke-linecap: square"/>
   </g>
  </g>
 </g>
 <defs>
  <clipPath id="pb266829028">
   <rect x="0" y="0" width="792" height="612"/>
  </clipPath>
 </defs>
</svg>
