<?xml version="1.0" encoding="utf-8" standalone="no"?>
<!DOCTYPE svg PUBLIC "-//W3C//DTD SVG 1.1//EN"
  "http://www.w3.org/Graphics/SVG/1.1/DTD/svg11.dtd">
<svg xmlns:xlink="http://www.w3.org/1999/xlink" width="792pt" height="612pt" viewBox="0 0 792 612" xmlns="http://www.w3.org/2000/svg" version="1.1">
 <metadata>
  <rdf:RDF xmlns:dc="http://purl.org/dc/elements/1.1/" xmlns:cc="http://creativecommons.org/ns#" xmlns:rdf="http://www.w3.org/1999/02/22-rdf-syntax-ns#">
   <cc:Work>
    <dc:type rdf:resource="http://purl.org/dc/dcmitype/StillImage"/>
    <dc:date>2022-12-19T20:28:05.331182</dc:date>
    <dc:format>image/svg+xml</dc:format>
    <dc:creator>
     <cc:Agent>
      <dc:title>Matplotlib v3.6.2, https://matplotlib.org/</dc:title>
     </cc:Agent>
    </dc:creator>
   </cc:Work>
  </rdf:RDF>
 </metadata>
 <defs>
  <style type="text/css">*{stroke-linejoin: round; stroke-linecap: butt}</style>
 </defs>
 <g id="figure_1">
  <g id="patch_1">
   <path d="M 0 612 
L 792 612 
L 792 0 
L 0 0 
z
" style="fill: #ffffff"/>
  </g>
  <g id="axes_1">
   <g id="line2d_1">
    <path d="M 0 459 
L 12.375 461.909354 
L 24.75 456.825062 
L 37.125 460.770092 
L 49.5 464.696308 
L 61.875 464.272615 
L 74.25 464.856369 
L 86.625 466.052123 
L 99 466.165108 
L 111.375 475.693477 
L 123.75 479.280738 
L 136.125 479.224246 
L 148.5 474.742523 
L 160.875 475.693477 
L 173.25 476.729169 
L 185.625 469.140369 
L 198 463.585292 
L 210.375 462.737908 
L 222.75 460.016862 
L 235.125 461.3256 
L 247.5 464.046646 
L 259.875 464.0184 
L 272.25 463.575877 
L 284.625 451.148335 
L 297 461.222031 
L 309.375 460.120431 
L 321.75 458.378585 
L 334.125 443.470545 
L 346.5 440.762591 
L 358.875 428.848344 
L 371.25 429.017094 
L 383.625 423.958348 
L 396 417.899244 
L 408.375 415.630682 
L 420.75 409.815285 
L 433.125 407.248062 
L 445.5 403.570417 
L 457.875 413.951636 
L 470.25 406.606762 
L 482.625 400.233346 
L 495 394.159687 
L 507.375 394.907288 
L 519.75 415.546701 
L 532.125 406.132891 
L 544.5 391.808434 
L 556.875 391.559687 
L 569.25 387.419963 
L 581.625 395.876918 
L 594 398.372869 
L 606.375 401.428423 
L 618.75 406.300127 
L 631.125 393.384766 
L 643.5 397.956619 
L 655.875 399.455591 
L 668.25 414.343306 
L 680.625 406.885563 
L 693 400.538987 
L 705.375 402.819044 
L 717.75 406.885563 
L 730.125 419.384715 
L 742.5 432.168533 
L 754.875 430.73317 
L 767.25 427.864135 
L 779.625 443.470545 
" clip-path="url(#pd2c701c592)" style="fill: none; stroke: #000000; stroke-width: 1.5; stroke-linecap: square"/>
   </g>
   <g id="line2d_2">
    <path d="M 0 459 
L 12.375 459 
L 24.75 460.939569 
L 37.125 459.416967 
L 49.5 460.138634 
L 61.875 462.490982 
L 74.25 463.395938 
L 86.625 464.131904 
L 99 465.095778 
L 111.375 465.644492 
L 123.75 470.696012 
L 136.125 475.029563 
L 148.5 477.163089 
L 160.875 475.972505 
L 173.25 475.855385 
L 185.625 476.315557 
L 198 472.734018 
L 210.375 468.154597 
L 222.75 465.420849 
L 235.125 462.681083 
L 247.5 461.968246 
L 259.875 462.986474 
L 272.25 463.479545 
L 284.625 463.50192 
L 297 459.917206 
L 309.375 460.564985 
L 321.75 460.337575 
L 334.125 459.562818 
L 346.5 452.032929 
L 358.875 446.330444 
L 371.25 437.493077 
L 383.625 433.167364 
L 396 428.506568 
L 408.375 423.104792 
L 420.75 419.273894 
L 433.125 414.445129 
L 445.5 410.772944 
L 457.875 407.095947 
L 470.25 410.491976 
L 482.625 408.504683 
L 495 404.31816 
L 507.375 399.185091 
L 519.75 397.004365 
L 532.125 406.264929 
L 544.5 406.196723 
L 556.875 398.964498 
L 569.25 395.214139 
L 581.625 391.274571 
L 594 393.565547 
L 606.375 395.975706 
L 618.75 398.712691 
L 631.125 402.484435 
L 643.5 397.903521 
L 655.875 397.942147 
L 668.25 398.714215 
L 680.625 406.566312 
L 693 406.747579 
L 705.375 403.644971 
L 717.75 403.23469 
L 730.125 405.060408 
L 742.5 412.262187 
L 754.875 422.265244 
L 767.25 426.558037 
L 779.625 427.237589 
" clip-path="url(#pd2c701c592)" style="fill: none; stroke: #000000; stroke-width: 1.5; stroke-linecap: square"/>
   </g>
   <g id="line2d_3">
    <path d="M 0 459 
L 12.375 459 
L 24.75 460.70426 
L 37.125 459.603613 
L 49.5 460.059152 
L 61.875 461.708998 
L 74.25 462.56713 
L 86.625 463.302644 
L 99 464.161635 
L 111.375 464.775571 
L 123.75 468.076506 
L 136.125 471.432303 
L 148.5 473.750736 
L 160.875 474.044469 
L 173.25 474.531255 
L 185.625 475.178585 
L 198 473.403097 
L 210.375 470.532795 
L 222.75 468.250677 
L 235.125 465.841049 
L 247.5 464.519143 
L 259.875 464.380006 
L 272.25 464.273802 
L 284.625 464.067914 
L 297 461.805808 
L 309.375 461.629146 
L 321.75 461.169366 
L 334.125 460.449772 
L 346.5 457.437695 
L 358.875 452.476087 
L 371.25 445.454365 
L 383.625 440.53908 
L 396 435.600674 
L 408.375 430.343544 
L 420.75 425.96423 
L 433.125 421.164163 
L 445.5 417.012657 
L 457.875 412.986375 
L 470.25 413.200537 
L 482.625 411.191777 
L 495 407.917713 
L 507.375 403.795852 
L 519.75 401.111063 
L 532.125 405.27978 
L 544.5 405.487048 
L 556.875 401.413664 
L 569.25 398.478892 
L 581.625 395.184316 
L 594 395.355133 
L 606.375 396.216153 
L 618.75 397.724927 
L 631.125 400.228298 
L 643.5 398.205073 
L 655.875 398.12586 
L 668.25 398.498645 
L 680.625 403.134874 
L 693 404.240308 
L 705.375 403.162797 
L 717.75 403.071217 
L 730.125 404.177712 
L 742.5 408.635845 
L 754.875 415.552817 
L 767.25 420.035819 
L 779.625 422.373299 
" clip-path="url(#pd2c701c592)" style="fill: none; stroke: #000000; stroke-width: 1.5; stroke-linecap: square"/>
   </g>
   <g id="line2d_4">
    <path d="M 0 459 
L 12.375 459 
L 24.75 460.580401 
L 37.125 459.675619 
L 49.5 460.023889 
L 61.875 461.306602 
L 74.25 462.036598 
L 86.625 462.675045 
L 99 463.391452 
L 111.375 463.950216 
L 123.75 466.219825 
L 136.125 468.660702 
L 148.5 470.581499 
L 160.875 471.321294 
L 173.25 472.084371 
L 185.625 472.882712 
L 198 472.247598 
L 210.375 470.792943 
L 222.75 469.4521 
L 235.125 467.892979 
L 247.5 466.814379 
L 259.875 466.362139 
L 272.25 465.980816 
L 284.625 465.590937 
L 297 464.10259 
L 309.375 463.638181 
L 321.75 463.072241 
L 334.125 462.384991 
L 346.5 461.011787 
L 358.875 459.715467 
L 371.25 455.972205 
L 383.625 451.65729 
L 396 447.224153 
L 408.375 442.520093 
L 420.75 438.196962 
L 433.125 433.635599 
L 445.5 429.385791 
L 457.875 425.216371 
L 470.25 423.383175 
L 482.625 420.662896 
L 495 417.350414 
L 507.375 413.589521 
L 519.75 410.534557 
L 532.125 411.266806 
L 544.5 410.378946 
L 556.875 407.341088 
L 569.25 404.748303 
L 581.625 401.902435 
L 594 400.884681 
L 606.375 400.438928 
L 618.75 400.553914 
L 631.125 401.432579 
L 643.5 400.104775 
L 655.875 399.715854 
L 668.25 399.628468 
L 680.625 401.926226 
L 693 402.687061 
L 705.375 402.304913 
L 717.75 402.349944 
L 730.125 403.039061 
L 742.5 405.61632 
L 754.875 409.816113 
L 767.25 413.133764 
L 779.625 415.47113 
" clip-path="url(#pd2c701c592)" style="fill: none; stroke: #000000; stroke-width: 1.5; stroke-linecap: square"/>
   </g>
   <g id="line2d_5">
    <path d="M 0 459 
L 12.375 459 
L 24.75 460.517657 
L 37.125 459.704487 
L 49.5 460.006443 
L 61.875 461.113558 
L 74.25 461.760305 
L 86.625 462.32537 
L 99 462.943981 
L 111.375 463.437686 
L 123.75 465.192803 
L 136.125 467.095719 
L 148.5 468.652876 
L 160.875 469.400765 
L 173.25 470.144 
L 185.625 470.895392 
L 198 470.701179 
L 210.375 469.934924 
L 222.75 469.178604 
L 235.125 468.236626 
L 247.5 467.539868 
L 259.875 467.193854 
L 272.25 466.884287 
L 284.625 466.566365 
L 297 465.600402 
L 309.375 465.189969 
L 321.75 464.719797 
L 334.125 464.175413 
L 346.5 463.232764 
L 358.875 462.301142 
L 371.25 461.10273 
L 383.625 460.024021 
L 396 458.691845 
L 408.375 455.090764 
L 420.75 451.623249 
L 433.125 447.96268 
L 445.5 444.411071 
L 457.875 440.859741 
L 470.25 438.532682 
L 482.625 435.7772 
L 495 432.714903 
L 507.375 429.398085 
L 519.75 426.439454 
L 532.125 425.511465 
L 544.5 423.861115 
L 556.875 421.127906 
L 569.25 418.611547 
L 581.625 415.959114 
L 594 414.258369 
L 606.375 412.91604 
L 618.75 411.947463 
L 631.125 411.472462 
L 643.5 409.94792 
L 655.875 408.939662 
L 668.25 408.143361 
L 680.625 408.661665 
L 693 408.513036 
L 705.375 407.845195 
L 717.75 407.424793 
L 730.125 407.379762 
L 742.5 408.379162 
L 754.875 410.354949 
L 767.25 412.047893 
L 779.625 413.362426 
" clip-path="url(#pd2c701c592)" style="fill: none; stroke: #000000; stroke-width: 1.5; stroke-linecap: square"/>
   </g>
   <g id="line2d_6">
    <path d="M 0 459 
L 12.375 459 
L 24.75 460.486182 
L 37.125 459.716975 
L 49.5 459.997602 
L 61.875 461.020476 
L 74.25 461.62285 
L 86.625 462.146923 
L 99 462.712206 
L 111.375 463.16561 
L 123.75 464.676334 
L 136.125 466.309745 
L 148.5 467.660355 
L 160.875 468.357653 
L 173.25 469.041584 
L 185.625 469.723638 
L 198 469.67418 
L 210.375 469.178882 
L 222.75 468.674584 
L 235.125 468.020216 
L 247.5 467.530476 
L 259.875 467.283224 
L 272.25 467.057952 
L 284.625 466.823916 
L 297 466.139125 
L 309.375 465.823949 
L 321.75 465.46613 
L 334.125 465.055818 
L 346.5 464.378007 
L 358.875 463.698741 
L 371.25 462.838197 
L 383.625 462.04373 
L 396 461.210095 
L 408.375 460.321182 
L 420.75 459.45092 
L 433.125 457.597164 
L 445.5 454.882569 
L 457.875 452.144746 
L 470.25 450.13176 
L 482.625 447.857887 
L 495 445.390394 
L 507.375 442.756491 
L 519.75 440.317922 
L 532.125 439.070897 
L 544.5 437.422868 
L 556.875 435.150321 
L 569.25 432.993843 
L 581.625 430.752085 
L 594 429.051358 
L 606.375 427.565397 
L 618.75 426.307744 
L 631.125 425.351442 
L 643.5 423.827014 
L 655.875 422.601044 
L 668.25 421.509955 
L 680.625 421.174778 
L 693 420.508364 
L 705.375 419.579591 
L 717.75 418.803635 
L 730.125 418.254503 
L 742.5 418.306257 
L 754.875 418.937576 
L 767.25 419.473212 
L 779.625 419.853267 
" clip-path="url(#pd2c701c592)" style="fill: none; stroke: #000000; stroke-width: 1.5; stroke-linecap: square"/>
   </g>
   <g id="line2d_7">
    <path d="M 0 459 
L 12.375 459 
L 24.75 460.470431 
L 37.125 459.722718 
L 49.5 459.99313 
L 61.875 460.97495 
L 74.25 461.554747 
L 86.625 462.057603 
L 99 462.595582 
L 111.375 463.027417 
L 123.75 464.421002 
L 136.125 465.922885 
L 148.5 467.16809 
L 160.875 467.82943 
L 173.25 468.473615 
L 185.625 469.111298 
L 198 469.113425 
L 210.375 468.728882 
L 222.75 468.331281 
L 235.125 467.803212 
L 247.5 467.408418 
L 259.875 467.211316 
L 272.25 467.030828 
L 284.625 466.842151 
L 297 466.289289 
L 309.375 466.029612 
L 321.75 465.735557 
L 334.125 465.399592 
L 346.5 464.854026 
L 358.875 464.305666 
L 371.25 463.616425 
L 383.625 462.975627 
L 396 462.303692 
L 408.375 461.588717 
L 420.75 460.886164 
L 433.125 460.146539 
L 445.5 459.415618 
L 457.875 458.033481 
L 470.25 456.344014 
L 482.625 454.466882 
L 495 452.450002 
L 507.375 450.312523 
L 519.75 448.310949 
L 532.125 447.148582 
L 544.5 445.711174 
L 556.875 443.841532 
L 569.25 442.051207 
L 581.625 440.201694 
L 594 438.722142 
L 606.375 437.391702 
L 618.75 436.220023 
L 631.125 435.256852 
L 643.5 433.919292 
L 655.875 432.783518 
L 668.25 431.741772 
L 680.625 431.20483 
L 693 430.460215 
L 705.375 429.551109 
L 717.75 428.746462 
L 730.125 428.094632 
L 742.5 427.837692 
L 754.875 427.964184 
L 767.25 428.04445 
L 779.625 428.03926 
" clip-path="url(#pd2c701c592)" style="fill: none; stroke: #000000; stroke-width: 1.5; stroke-linecap: square"/>
   </g>
   <g id="line2d_8">
    <path d="M 0 459 
L 12.375 459 
L 24.75 460.462554 
L 37.125 459.725463 
L 49.5 459.990878 
L 61.875 460.952459 
L 74.25 461.520908 
L 86.625 462.013023 
L 99 462.537255 
L 111.375 462.958032 
L 123.75 464.294536 
L 136.125 465.731885 
L 148.5 466.924425 
L 160.875 467.565668 
L 173.25 468.187975 
L 185.625 468.801564 
L 198 468.824502 
L 210.375 468.488893 
L 222.75 468.139137 
L 235.125 467.66871 
L 247.5 467.317869 
L 259.875 467.144651 
L 272.25 466.985809 
L 284.625 466.819224 
L 297 466.328063 
L 309.375 466.096183 
L 321.75 465.833893 
L 334.125 465.534753 
L 346.5 465.05241 
L 358.875 464.567454 
L 371.25 463.960435 
L 383.625 463.395044 
L 396 462.80298 
L 408.375 462.174246 
L 420.75 461.556209 
L 433.125 460.907009 
L 445.5 460.265394 
L 457.875 459.618339 
L 470.25 459.117611 
L 482.625 457.696469 
L 495 455.925976 
L 507.375 454.057428 
L 519.75 452.301905 
L 532.125 451.234975 
L 544.5 449.947075 
L 556.875 448.310822 
L 569.25 446.740359 
L 581.625 445.124035 
L 594 443.806206 
L 606.375 442.609995 
L 618.75 441.542863 
L 631.125 440.644014 
L 643.5 439.452742 
L 655.875 438.42255 
L 668.25 437.468754 
L 680.625 436.911952 
L 693 436.19746 
L 705.375 435.358683 
L 717.75 434.603214 
L 730.125 433.968103 
L 742.5 433.638693 
L 754.875 433.605932 
L 767.25 433.542634 
L 779.625 433.41886 
" clip-path="url(#pd2c701c592)" style="fill: none; stroke: #000000; stroke-width: 1.5; stroke-linecap: square"/>
   </g>
   <g id="line2d_9">
    <path d="M 0 459 
L 12.375 459 
L 24.75 460.458616 
L 37.125 459.726804 
L 49.5 459.989748 
L 61.875 460.941283 
L 74.25 461.504048 
L 86.625 461.990766 
L 99 462.50811 
L 111.375 462.9233 
L 123.75 464.231661 
L 136.125 465.637101 
L 148.5 466.80339 
L 160.875 467.434131 
L 173.25 468.045074 
L 185.625 468.646216 
L 198 468.678371 
L 210.375 468.365624 
L 222.75 468.038375 
L 235.125 467.595299 
L 247.5 467.265426 
L 259.875 467.103709 
L 272.25 466.95535 
L 284.625 466.799498 
L 297 466.337893 
L 309.375 466.119686 
L 321.75 465.872989 
L 334.125 465.591887 
L 346.5 465.140067 
L 358.875 464.685876 
L 371.25 464.118581 
L 383.625 463.589938 
L 396 463.036883 
L 408.375 462.450312 
L 420.75 461.873841 
L 433.125 461.269143 
L 445.5 460.671725 
L 457.875 460.069733 
L 470.25 459.601232 
L 482.625 459.086595 
L 495 457.613986 
L 507.375 455.881026 
L 519.75 454.251244 
L 532.125 453.241749 
L 544.5 452.03597 
L 556.875 450.520269 
L 569.25 449.064736 
L 581.625 447.569873 
L 594 446.341627 
L 606.375 445.222814 
L 618.75 444.219833 
L 631.125 443.367045 
L 643.5 442.258709 
L 655.875 441.293385 
L 668.25 440.396638 
L 680.625 439.848554 
L 693 439.164825 
L 705.375 438.37465 
L 717.75 437.658357 
L 730.125 437.04789 
L 742.5 436.70323 
L 754.875 436.61613 
L 767.25 436.504653 
L 779.625 436.34305 
" clip-path="url(#pd2c701c592)" style="fill: none; stroke: #000000; stroke-width: 1.5; stroke-linecap: square"/>
   </g>
  </g>
 </g>
 <defs>
  <clipPath id="pd2c701c592">
   <rect x="0" y="0" width="792" height="612"/>
  </clipPath>
 </defs>
</svg>
