<?xml version="1.0" encoding="utf-8" standalone="no"?>
<!DOCTYPE svg PUBLIC "-//W3C//DTD SVG 1.1//EN"
  "http://www.w3.org/Graphics/SVG/1.1/DTD/svg11.dtd">
<svg xmlns:xlink="http://www.w3.org/1999/xlink" width="792pt" height="612pt" viewBox="0 0 792 612" xmlns="http://www.w3.org/2000/svg" version="1.1">
 <metadata>
  <rdf:RDF xmlns:dc="http://purl.org/dc/elements/1.1/" xmlns:cc="http://creativecommons.org/ns#" xmlns:rdf="http://www.w3.org/1999/02/22-rdf-syntax-ns#">
   <cc:Work>
    <dc:type rdf:resource="http://purl.org/dc/dcmitype/StillImage"/>
    <dc:date>2023-01-02T15:37:33.822892</dc:date>
    <dc:format>image/svg+xml</dc:format>
    <dc:creator>
     <cc:Agent>
      <dc:title>Matplotlib v3.6.2, https://matplotlib.org/</dc:title>
     </cc:Agent>
    </dc:creator>
   </cc:Work>
  </rdf:RDF>
 </metadata>
 <defs>
  <style type="text/css">*{stroke-linejoin: round; stroke-linecap: butt}</style>
 </defs>
 <g id="figure_1">
  <g id="patch_1">
   <path d="M 0 612 
L 792 612 
L 792 0 
L 0 0 
z
" style="fill: #ffffff"/>
  </g>
  <g id="axes_1">
   <g id="line2d_1">
    <path d="M 0 459 
L 41.684211 461.989715 
L 83.368421 463.405896 
L 125.052632 462.828934 
L 166.736842 463.877957 
L 208.421053 461.517655 
L 250.105263 461.307851 
L 291.789474 463.773055 
L 333.473684 469.595132 
L 375.157895 470.801508 
L 416.842105 471.483373 
L 458.526316 473.319164 
L 500.210526 471.273569 
L 541.894737 475.784368 
L 583.578947 475.154954 
L 625.263158 475.941721 
L 666.947368 478.039767 
L 708.631579 474.52554 
L 750.315789 473.371615 
" clip-path="url(#pf96b82bd7b)" style="fill: none; stroke: #000000; stroke-width: 1.5; stroke-linecap: square"/>
   </g>
   <g id="line2d_2">
    <path d="M 0 459 
L 41.684211 459 
L 83.368421 460.993144 
L 125.052632 462.37186 
L 166.736842 462.615632 
L 208.421053 463.267155 
L 250.105263 462.37852 
L 291.789474 461.83897 
L 333.473684 462.809805 
L 375.157895 466.223243 
L 416.842105 468.529654 
L 458.526316 470.022352 
L 500.210526 471.691327 
L 541.894737 471.496949 
L 583.578947 473.668632 
L 625.263158 474.438944 
L 666.947368 475.214193 
L 708.631579 476.643538 
L 750.315789 475.591841 
" clip-path="url(#pf96b82bd7b)" style="fill: none; stroke: #000000; stroke-width: 1.5; stroke-linecap: square"/>
   </g>
   <g id="line2d_3">
    <path d="M 0 459 
L 41.684211 459 
L 83.368421 460.751335 
L 125.052632 461.954068 
L 166.736842 462.295725 
L 208.421053 462.858664 
L 250.105263 462.409781 
L 291.789474 462.05574 
L 333.473684 462.592263 
L 375.157895 464.738193 
L 416.842105 466.571384 
L 458.526316 468.042582 
L 500.210526 469.612588 
L 541.894737 470.104513 
L 583.578947 471.781203 
L 625.263158 472.774841 
L 666.947368 473.706036 
L 708.631579 474.997226 
L 750.315789 474.873471 
" clip-path="url(#pf96b82bd7b)" style="fill: none; stroke: #000000; stroke-width: 1.5; stroke-linecap: square"/>
   </g>
   <g id="line2d_4">
    <path d="M 0 459 
L 41.684211 459 
L 83.368421 460.624054 
L 125.052632 461.715828 
L 166.736842 462.070026 
L 208.421053 462.566355 
L 250.105263 462.308249 
L 291.789474 462.08174 
L 333.473684 462.440533 
L 375.157895 463.881856 
L 416.842105 465.219211 
L 458.526316 466.389883 
L 500.210526 467.649852 
L 541.894737 468.294119 
L 583.578947 469.601392 
L 625.263158 470.55593 
L 666.947368 471.469955 
L 708.631579 472.573219 
L 750.315789 472.898203 
" clip-path="url(#pf96b82bd7b)" style="fill: none; stroke: #000000; stroke-width: 1.5; stroke-linecap: square"/>
   </g>
   <g id="line2d_5">
    <path d="M 0 459 
L 41.684211 459 
L 83.368421 460.559577 
L 125.052632 461.591637 
L 166.736842 461.942245 
L 208.421053 462.3992 
L 250.105263 462.218723 
L 291.789474 462.052479 
L 333.473684 462.338081 
L 375.157895 463.450377 
L 416.842105 464.503111 
L 458.526316 465.445964 
L 500.210526 466.456788 
L 541.894737 467.048352 
L 583.578947 468.080167 
L 625.263158 468.887426 
L 666.947368 469.668063 
L 708.631579 470.569547 
L 750.315789 470.985274 
" clip-path="url(#pf96b82bd7b)" style="fill: none; stroke: #000000; stroke-width: 1.5; stroke-linecap: square"/>
   </g>
   <g id="line2d_6">
    <path d="M 0 459 
L 41.684211 459 
L 83.368421 460.527233 
L 125.052632 461.528644 
L 166.736842 461.875135 
L 208.421053 462.311135 
L 250.105263 462.164164 
L 291.789474 462.025377 
L 333.473684 462.278356 
L 375.157895 463.23913 
L 416.842105 464.15107 
L 458.526316 464.971142 
L 500.210526 465.844185 
L 541.894737 466.378753 
L 583.578947 467.255654 
L 625.263158 467.956492 
L 666.947368 468.633587 
L 708.631579 469.398729 
L 750.315789 469.800134 
" clip-path="url(#pf96b82bd7b)" style="fill: none; stroke: #000000; stroke-width: 1.5; stroke-linecap: square"/>
   </g>
   <g id="line2d_7">
    <path d="M 0 459 
L 41.684211 459 
L 83.368421 460.511047 
L 125.052632 461.496972 
L 166.736842 461.840859 
L 208.421053 462.266117 
L 250.105263 462.134522 
L 291.789474 462.008615 
L 333.473684 462.246248 
L 375.157895 463.135303 
L 416.842105 463.978779 
L 458.526316 464.737273 
L 500.210526 465.540666 
L 541.894737 466.041217 
L 583.578947 466.839329 
L 625.263158 467.481653 
L 666.947368 468.100587 
L 708.631579 468.791967 
L 750.315789 469.172485 
" clip-path="url(#pf96b82bd7b)" style="fill: none; stroke: #000000; stroke-width: 1.5; stroke-linecap: square"/>
   </g>
   <g id="line2d_8">
    <path d="M 0 459 
L 41.684211 459 
L 83.368421 460.502953 
L 125.052632 461.481099 
L 166.736842 461.823552 
L 208.421053 462.243381 
L 250.105263 462.119128 
L 291.789474 461.999432 
L 333.473684 462.229629 
L 375.157895 463.083917 
L 416.842105 463.893829 
L 458.526316 464.621754 
L 500.210526 465.390486 
L 541.894737 465.873018 
L 583.578947 466.631883 
L 625.263158 467.244169 
L 666.947368 467.83303 
L 708.631579 468.486847 
L 750.315789 468.8541 
" clip-path="url(#pf96b82bd7b)" style="fill: none; stroke: #000000; stroke-width: 1.5; stroke-linecap: square"/>
   </g>
   <g id="line2d_9">
    <path d="M 0 459 
L 41.684211 459 
L 83.368421 460.498905 
L 125.052632 461.473154 
L 166.736842 461.814857 
L 208.421053 462.231958 
L 250.105263 462.11129 
L 291.789474 461.99464 
L 333.473684 462.221178 
L 375.157895 463.058365 
L 416.842105 463.851684 
L 458.526316 464.564411 
L 500.210526 465.315899 
L 541.894737 465.789218 
L 583.578947 466.528559 
L 625.263158 467.125707 
L 666.947368 467.699368 
L 708.631579 468.334333 
L 750.315789 468.694349 
" clip-path="url(#pf96b82bd7b)" style="fill: none; stroke: #000000; stroke-width: 1.5; stroke-linecap: square"/>
   </g>
  </g>
 </g>
 <defs>
  <clipPath id="pf96b82bd7b">
   <rect x="0" y="0" width="792" height="612"/>
  </clipPath>
 </defs>
</svg>
