<?xml version="1.0" encoding="utf-8" standalone="no"?>
<!DOCTYPE svg PUBLIC "-//W3C//DTD SVG 1.1//EN"
  "http://www.w3.org/Graphics/SVG/1.1/DTD/svg11.dtd">
<svg xmlns:xlink="http://www.w3.org/1999/xlink" width="792pt" height="612pt" viewBox="0 0 792 612" xmlns="http://www.w3.org/2000/svg" version="1.1">
 <metadata>
  <rdf:RDF xmlns:dc="http://purl.org/dc/elements/1.1/" xmlns:cc="http://creativecommons.org/ns#" xmlns:rdf="http://www.w3.org/1999/02/22-rdf-syntax-ns#">
   <cc:Work>
    <dc:type rdf:resource="http://purl.org/dc/dcmitype/StillImage"/>
    <dc:date>2023-01-30T17:15:11.392766</dc:date>
    <dc:format>image/svg+xml</dc:format>
    <dc:creator>
     <cc:Agent>
      <dc:title>Matplotlib v3.6.2, https://matplotlib.org/</dc:title>
     </cc:Agent>
    </dc:creator>
   </cc:Work>
  </rdf:RDF>
 </metadata>
 <defs>
  <style type="text/css">*{stroke-linejoin: round; stroke-linecap: butt}</style>
 </defs>
 <g id="figure_1">
  <g id="patch_1">
   <path d="M 0 612 
L 792 612 
L 792 0 
L 0 0 
z
" style="fill: #ffffff"/>
  </g>
  <g id="axes_1">
   <g id="line2d_1">
    <path d="M 0 306 
L 46.588235 310.718207 
L 93.176471 298.098133 
L 139.764706 303.404842 
L 186.352941 302.461222 
L 232.941176 294.798377 
L 279.529412 307.415564 
L 326.117647 292.207501 
L 372.705882 299.159197 
L 419.294118 304.466474 
L 465.882353 301.163857 
L 512.470588 300.810058 
L 559.058824 308.123328 
L 605.647059 312.015416 
L 652.235294 315.316318 
L 698.823529 310.60027 
L 745.411765 296.565828 
" clip-path="url(#p351f122339)" style="fill: none; stroke: #000000; stroke-width: 1.5; stroke-linecap: square"/>
   </g>
   <g id="line2d_2">
    <path d="M 0 306 
L 46.588235 306 
L 93.176471 309.14561 
L 139.764706 302.831923 
L 186.352941 303.137477 
L 232.941176 302.788438 
L 279.529412 298.728762 
L 326.117647 303.105775 
L 372.705882 297.632618 
L 419.294118 298.382453 
L 465.882353 301.411755 
L 512.470588 301.293818 
L 559.058824 301.046847 
L 605.647059 304.596001 
L 652.235294 308.339816 
L 698.823529 311.844316 
L 745.411765 311.258387 
" clip-path="url(#p351f122339)" style="fill: none; stroke: #000000; stroke-width: 1.5; stroke-linecap: square"/>
   </g>
   <g id="line2d_3">
    <path d="M 0 306 
L 46.588235 306 
L 93.176471 308.764006 
L 139.764706 303.930769 
L 186.352941 303.72538 
L 232.941176 303.275596 
L 279.529412 300.436862 
L 326.117647 302.678779 
L 372.705882 299.405358 
L 419.294118 299.329925 
L 465.882353 300.882652 
L 512.470588 300.966875 
L 559.058824 300.920215 
L 605.647059 303.053301 
L 652.235294 305.699077 
L 698.823529 308.532339 
L 745.411765 309.14043 
" clip-path="url(#p351f122339)" style="fill: none; stroke: #000000; stroke-width: 1.5; stroke-linecap: square"/>
   </g>
   <g id="line2d_4">
    <path d="M 0 306 
L 46.588235 306 
L 93.176471 308.563138 
L 139.764706 304.455358 
L 186.352941 304.121071 
L 232.941176 303.66538 
L 279.529412 301.482093 
L 326.117647 302.8254 
L 372.705882 300.571435 
L 419.294118 300.286914 
L 465.882353 301.094575 
L 512.470588 301.107523 
L 559.058824 301.053433 
L 605.647059 302.310232 
L 652.235294 304.004094 
L 698.823529 305.948894 
L 745.411765 306.738339 
" clip-path="url(#p351f122339)" style="fill: none; stroke: #000000; stroke-width: 1.5; stroke-linecap: square"/>
   </g>
   <g id="line2d_5">
    <path d="M 0 306 
L 46.588235 306 
L 93.176471 308.461382 
L 139.764706 304.703128 
L 186.352941 304.335231 
L 232.941176 303.892826 
L 279.529412 302.03011 
L 326.117647 303.012926 
L 372.705882 301.218071 
L 419.294118 300.902473 
L 465.882353 301.412801 
L 512.470588 301.379175 
L 559.058824 301.306105 
L 605.647059 302.143235 
L 652.235294 303.309223 
L 698.823529 304.679553 
L 745.411765 305.334779 
" clip-path="url(#p351f122339)" style="fill: none; stroke: #000000; stroke-width: 1.5; stroke-linecap: square"/>
   </g>
   <g id="line2d_6">
    <path d="M 0 306 
L 46.588235 306 
L 93.176471 308.410337 
L 139.764706 304.822421 
L 186.352941 304.444668 
L 232.941176 304.012869 
L 279.529412 302.305355 
L 326.117647 303.133528 
L 372.705882 301.550858 
L 419.294118 301.236769 
L 465.882353 301.626194 
L 512.470588 301.574483 
L 559.058824 301.494536 
L 605.647059 302.147109 
L 652.235294 303.067125 
L 698.823529 304.154088 
L 745.411765 304.700698 
" clip-path="url(#p351f122339)" style="fill: none; stroke: #000000; stroke-width: 1.5; stroke-linecap: square"/>
   </g>
   <g id="line2d_7">
    <path d="M 0 306 
L 46.588235 306 
L 93.176471 308.384794 
L 139.764706 304.88081 
L 186.352941 304.499736 
L 232.941176 304.074166 
L 279.529412 302.44255 
L 326.117647 303.199912 
L 372.705882 301.718416 
L 419.294118 301.408767 
L 465.882353 301.745158 
L 512.470588 301.686404 
L 559.058824 301.604362 
L 605.647059 302.173473 
L 652.235294 302.979656 
L 698.823529 303.93274 
L 745.411765 304.420543 
" clip-path="url(#p351f122339)" style="fill: none; stroke: #000000; stroke-width: 1.5; stroke-linecap: square"/>
   </g>
   <g id="line2d_8">
    <path d="M 0 306 
L 46.588235 306 
L 93.176471 308.372019 
L 139.764706 304.909678 
L 186.352941 304.527328 
L 232.941176 304.105091 
L 279.529412 302.510946 
L 326.117647 303.234523 
L 372.705882 301.802318 
L 419.294118 301.495716 
L 465.882353 301.807448 
L 512.470588 301.745718 
L 559.058824 301.663015 
L 605.647059 302.192825 
L 652.235294 302.944873 
L 698.823529 303.833771 
L 745.411765 304.291899 
" clip-path="url(#p351f122339)" style="fill: none; stroke: #000000; stroke-width: 1.5; stroke-linecap: square"/>
   </g>
   <g id="line2d_9">
    <path d="M 0 306 
L 46.588235 306 
L 93.176471 308.365632 
L 139.764706 304.924029 
L 186.352941 304.541134 
L 232.941176 304.120617 
L 279.529412 302.545082 
L 326.117647 303.252169 
L 372.705882 301.844278 
L 419.294118 301.539392 
L 465.882353 301.839256 
L 512.470588 301.776178 
L 559.058824 301.693245 
L 605.647059 302.204033 
L 652.235294 302.92976 
L 698.823529 303.787341 
L 745.411765 304.230667 
" clip-path="url(#p351f122339)" style="fill: none; stroke: #000000; stroke-width: 1.5; stroke-linecap: square"/>
   </g>
  </g>
 </g>
 <defs>
  <clipPath id="p351f122339">
   <rect x="0" y="0" width="792" height="612"/>
  </clipPath>
 </defs>
</svg>
