<?xml version="1.0" encoding="utf-8" standalone="no"?>
<!DOCTYPE svg PUBLIC "-//W3C//DTD SVG 1.1//EN"
  "http://www.w3.org/Graphics/SVG/1.1/DTD/svg11.dtd">
<svg xmlns:xlink="http://www.w3.org/1999/xlink" width="792pt" height="612pt" viewBox="0 0 792 612" xmlns="http://www.w3.org/2000/svg" version="1.1">
 <metadata>
  <rdf:RDF xmlns:dc="http://purl.org/dc/elements/1.1/" xmlns:cc="http://creativecommons.org/ns#" xmlns:rdf="http://www.w3.org/1999/02/22-rdf-syntax-ns#">
   <cc:Work>
    <dc:type rdf:resource="http://purl.org/dc/dcmitype/StillImage"/>
    <dc:date>2023-01-16T16:09:47.409897</dc:date>
    <dc:format>image/svg+xml</dc:format>
    <dc:creator>
     <cc:Agent>
      <dc:title>Matplotlib v3.6.2, https://matplotlib.org/</dc:title>
     </cc:Agent>
    </dc:creator>
   </cc:Work>
  </rdf:RDF>
 </metadata>
 <defs>
  <style type="text/css">*{stroke-linejoin: round; stroke-linecap: butt}</style>
 </defs>
 <g id="figure_1">
  <g id="patch_1">
   <path d="M 0 612 
L 792 612 
L 792 0 
L 0 0 
z
" style="fill: #ffffff"/>
  </g>
  <g id="axes_1">
   <g id="line2d_1">
    <path d="M 0 459 
L 44 460.99888 
L 88 458.31467 
L 132 463.683091 
L 176 462.99776 
L 220 463.854423 
L 264 466.138858 
L 308 462.31243 
L 352 461.055991 
L 396 459.342665 
L 440 443.757007 
L 484 445.811022 
L 528 425.819457 
L 572 415.951082 
L 616 413.744372 
L 660 406.799046 
L 704 399.372456 
L 748 402.407001 
" clip-path="url(#pe5b5cb39e5)" style="fill: none; stroke: #000000; stroke-width: 1.5; stroke-linecap: square"/>
   </g>
   <g id="line2d_2">
    <path d="M 0 459 
L 44 459 
L 88 460.332587 
L 132 459.44057 
L 176 461.703247 
L 220 462.371383 
L 264 463.124673 
L 308 464.643632 
L 352 463.47346 
L 396 462.268757 
L 440 460.802464 
L 484 454.051032 
L 528 449.876902 
L 572 437.745111 
L 616 426.71722 
L 660 420.092915 
L 704 413.315254 
L 748 406.20358 
" clip-path="url(#pe5b5cb39e5)" style="fill: none; stroke: #000000; stroke-width: 1.5; stroke-linecap: square"/>
   </g>
   <g id="line2d_3">
    <path d="M 0 459 
L 44 459 
L 88 460.170917 
L 132 459.536892 
L 176 461.156083 
L 220 461.811331 
L 264 462.495225 
L 308 463.665894 
L 352 463.243046 
L 396 462.572854 
L 440 461.596234 
L 484 459.296255 
L 528 455.699016 
L 572 446.835362 
L 616 437.694194 
L 660 430.622473 
L 704 423.595578 
L 748 416.405737 
" clip-path="url(#pe5b5cb39e5)" style="fill: none; stroke: #000000; stroke-width: 1.5; stroke-linecap: square"/>
   </g>
   <g id="line2d_4">
    <path d="M 0 459 
L 44 459 
L 88 460.085819 
L 132 459.570018 
L 176 460.878827 
L 220 461.460535 
L 264 462.049719 
L 308 462.975574 
L 352 462.834896 
L 396 462.476528 
L 440 461.87085 
L 484 460.384427 
L 528 459.333077 
L 572 453.912254 
L 616 447.267128 
L 660 441.486322 
L 704 435.574342 
L 748 429.462007 
" clip-path="url(#pe5b5cb39e5)" style="fill: none; stroke: #000000; stroke-width: 1.5; stroke-linecap: square"/>
   </g>
   <g id="line2d_5">
    <path d="M 0 459 
L 44 459 
L 88 460.04271 
L 132 459.581797 
L 176 460.743964 
L 220 461.276007 
L 264 461.803881 
L 308 462.59506 
L 352 462.548146 
L 396 462.319442 
L 440 461.893146 
L 484 460.815793 
L 528 460.018076 
L 572 457.597003 
L 616 452.663599 
L 660 448.207573 
L 704 443.604161 
L 748 438.81258 
" clip-path="url(#pe5b5cb39e5)" style="fill: none; stroke: #000000; stroke-width: 1.5; stroke-linecap: square"/>
   </g>
   <g id="line2d_6">
    <path d="M 0 459 
L 44 459 
L 88 460.021085 
L 132 459.586407 
L 176 460.678061 
L 220 461.183042 
L 264 461.677846 
L 308 462.400864 
L 352 462.388063 
L 396 462.213148 
L 440 461.866999 
L 484 460.977856 
L 528 460.311112 
L 572 459.091152 
L 616 455.222697 
L 660 451.530173 
L 704 447.719703 
L 748 443.76286 
" clip-path="url(#pe5b5cb39e5)" style="fill: none; stroke: #000000; stroke-width: 1.5; stroke-linecap: square"/>
   </g>
   <g id="line2d_7">
    <path d="M 0 459 
L 44 459 
L 88 460.010264 
L 132 459.588386 
L 176 460.645559 
L 220 461.136597 
L 264 461.614447 
L 308 462.30354 
L 352 462.304737 
L 396 462.153666 
L 440 461.844385 
L 484 461.043173 
L 528 460.440227 
L 572 459.347103 
L 616 456.419283 
L 660 453.11185 
L 704 449.708003 
L 748 446.185187 
" clip-path="url(#pe5b5cb39e5)" style="fill: none; stroke: #000000; stroke-width: 1.5; stroke-linecap: square"/>
   </g>
   <g id="line2d_8">
    <path d="M 0 459 
L 44 459 
L 88 460.004852 
L 132 459.589293 
L 176 460.629429 
L 220 461.11341 
L 264 461.582704 
L 308 462.25492 
L 352 462.262385 
L 396 462.122461 
L 440 461.830739 
L 484 461.071733 
L 528 460.499938 
L 572 459.468168 
L 616 456.991215 
L 660 453.874022 
L 704 450.672205 
L 748 447.366012 
" clip-path="url(#pe5b5cb39e5)" style="fill: none; stroke: #000000; stroke-width: 1.5; stroke-linecap: square"/>
   </g>
   <g id="line2d_9">
    <path d="M 0 459 
L 44 459 
L 88 460.002146 
L 132 459.589726 
L 176 460.621395 
L 220 461.101829 
L 264 461.566828 
L 308 462.230634 
L 352 462.241053 
L 396 462.106509 
L 440 461.823341 
L 484 461.084977 
L 528 460.528533 
L 572 459.52686 
L 616 457.269962 
L 660 454.246928 
L 704 451.145326 
L 748 447.946757 
" clip-path="url(#pe5b5cb39e5)" style="fill: none; stroke: #000000; stroke-width: 1.5; stroke-linecap: square"/>
   </g>
  </g>
 </g>
 <defs>
  <clipPath id="pe5b5cb39e5">
   <rect x="0" y="0" width="792" height="612"/>
  </clipPath>
 </defs>
</svg>
