<?xml version="1.0" encoding="utf-8" standalone="no"?>
<!DOCTYPE svg PUBLIC "-//W3C//DTD SVG 1.1//EN"
  "http://www.w3.org/Graphics/SVG/1.1/DTD/svg11.dtd">
<svg xmlns:xlink="http://www.w3.org/1999/xlink" width="792pt" height="612pt" viewBox="0 0 792 612" xmlns="http://www.w3.org/2000/svg" version="1.1">
 <metadata>
  <rdf:RDF xmlns:dc="http://purl.org/dc/elements/1.1/" xmlns:cc="http://creativecommons.org/ns#" xmlns:rdf="http://www.w3.org/1999/02/22-rdf-syntax-ns#">
   <cc:Work>
    <dc:type rdf:resource="http://purl.org/dc/dcmitype/StillImage"/>
    <dc:date>2023-01-09T02:27:20.869343</dc:date>
    <dc:format>image/svg+xml</dc:format>
    <dc:creator>
     <cc:Agent>
      <dc:title>Matplotlib v3.6.2, https://matplotlib.org/</dc:title>
     </cc:Agent>
    </dc:creator>
   </cc:Work>
  </rdf:RDF>
 </metadata>
 <defs>
  <style type="text/css">*{stroke-linejoin: round; stroke-linecap: butt}</style>
 </defs>
 <g id="figure_1">
  <g id="patch_1">
   <path d="M 0 612 
L 792 612 
L 792 0 
L 0 0 
z
" style="fill: #ffffff"/>
  </g>
  <g id="axes_1">
   <g id="line2d_1">
    <path d="M 0 306 
L 44 305.573371 
L 88 311.012448 
L 132 317.833065 
L 176 308.453067 
L 220 307.386536 
L 264 309.732823 
L 308 301.840619 
L 352 315.169788 
L 396 304.720119 
L 440 307.599846 
L 484 310.266018 
L 528 298.855255 
L 572 303.653584 
L 616 302.800395 
L 660 295.871251 
L 704 307.279881 
L 748 293.528001 
" clip-path="url(#p4d0e95fd3b)" style="fill: none; stroke: #000000; stroke-width: 1.5; stroke-linecap: square"/>
   </g>
   <g id="line2d_2">
    <path d="M 0 306 
L 44 306 
L 88 305.71558 
L 132 308.742545 
L 176 313.592446 
L 220 310.940215 
L 264 309.135278 
L 308 309.436406 
L 352 305.623562 
L 396 310.415727 
L 440 307.566386 
L 484 307.576424 
L 528 308.906431 
L 572 303.86145 
L 616 303.750197 
L 660 303.261697 
L 704 299.553829 
L 748 303.400969 
" clip-path="url(#p4d0e95fd3b)" style="fill: none; stroke: #000000; stroke-width: 1.5; stroke-linecap: square"/>
   </g>
   <g id="line2d_3">
    <path d="M 0 306 
L 44 306 
L 88 305.750086 
L 132 308.134535 
L 176 311.923633 
L 220 310.688975 
L 264 309.583616 
L 308 309.631555 
L 352 307.197546 
L 396 309.641201 
L 440 308.153437 
L 484 307.987631 
L 528 308.665582 
L 572 305.759765 
L 616 305.13801 
L 660 304.449513 
L 704 301.926288 
L 748 303.495677 
" clip-path="url(#p4d0e95fd3b)" style="fill: none; stroke: #000000; stroke-width: 1.5; stroke-linecap: square"/>
   </g>
   <g id="line2d_4">
    <path d="M 0 306 
L 44 306 
L 88 305.768249 
L 132 307.826564 
L 176 311.012149 
L 220 310.309662 
L 264 309.590274 
L 308 309.62255 
L 352 307.971758 
L 396 309.422262 
L 440 308.513541 
L 484 308.342789 
L 528 308.692513 
L 572 306.943354 
L 616 306.369185 
L 660 305.755767 
L 704 304.077658 
L 748 304.615394 
" clip-path="url(#p4d0e95fd3b)" style="fill: none; stroke: #000000; stroke-width: 1.5; stroke-linecap: square"/>
   </g>
   <g id="line2d_5">
    <path d="M 0 306 
L 44 306 
L 88 305.77745 
L 132 307.675778 
L 176 310.555355 
L 220 310.059109 
L 264 309.511996 
L 308 309.552299 
L 352 308.272272 
L 396 309.329786 
L 440 308.669692 
L 484 308.525187 
L 528 308.7487 
L 572 307.533547 
L 616 307.075285 
L 660 306.587494 
L 704 305.401213 
L 748 305.603512 
" clip-path="url(#p4d0e95fd3b)" style="fill: none; stroke: #000000; stroke-width: 1.5; stroke-linecap: square"/>
   </g>
   <g id="line2d_6">
    <path d="M 0 306 
L 44 306 
L 88 305.782065 
L 132 307.601719 
L 176 310.329385 
L 220 309.920947 
L 264 309.451544 
L 308 309.497133 
L 352 308.388886 
L 396 309.279571 
L 440 308.729788 
L 484 308.603415 
L 528 308.7773 
L 572 307.800312 
L 616 307.41371 
L 660 307.004405 
L 704 306.060076 
L 748 306.159302 
" clip-path="url(#p4d0e95fd3b)" style="fill: none; stroke: #000000; stroke-width: 1.5; stroke-linecap: square"/>
   </g>
   <g id="line2d_7">
    <path d="M 0 306 
L 44 306 
L 88 305.784375 
L 132 307.565087 
L 176 310.217346 
L 220 309.84906 
L 264 309.416125 
L 308 309.46436 
L 352 308.437643 
L 396 309.252341 
L 440 308.753716 
L 484 308.637097 
L 528 308.789596 
L 572 307.92214 
L 616 307.572486 
L 660 307.203873 
L 704 306.374518 
L 748 306.437497 
" clip-path="url(#p4d0e95fd3b)" style="fill: none; stroke: #000000; stroke-width: 1.5; stroke-linecap: square"/>
   </g>
   <g id="line2d_8">
    <path d="M 0 306 
L 44 306 
L 88 305.78553 
L 132 307.546878 
L 176 310.161604 
L 220 309.812472 
L 264 309.397149 
L 308 309.446675 
L 352 308.459531 
L 396 309.238065 
L 440 308.763968 
L 484 308.652318 
L 528 308.794954 
L 572 307.979634 
L 616 307.648415 
L 660 307.300138 
L 704 306.52611 
L 748 306.574395 
" clip-path="url(#p4d0e95fd3b)" style="fill: none; stroke: #000000; stroke-width: 1.5; stroke-linecap: square"/>
   </g>
   <g id="line2d_9">
    <path d="M 0 306 
L 44 306 
L 88 305.786108 
L 132 307.537801 
L 176 310.133807 
L 220 309.794026 
L 264 309.38735 
L 308 309.43751 
L 352 308.469843 
L 396 309.230747 
L 440 308.768645 
L 484 308.659493 
L 528 308.7974 
L 572 308.007465 
L 616 307.685415 
L 660 307.347257 
L 704 306.600276 
L 748 306.642008 
" clip-path="url(#p4d0e95fd3b)" style="fill: none; stroke: #000000; stroke-width: 1.5; stroke-linecap: square"/>
   </g>
  </g>
 </g>
 <defs>
  <clipPath id="p4d0e95fd3b">
   <rect x="0" y="0" width="792" height="612"/>
  </clipPath>
 </defs>
</svg>
