<?xml version="1.0" encoding="utf-8" standalone="no"?>
<!DOCTYPE svg PUBLIC "-//W3C//DTD SVG 1.1//EN"
  "http://www.w3.org/Graphics/SVG/1.1/DTD/svg11.dtd">
<svg xmlns:xlink="http://www.w3.org/1999/xlink" width="792pt" height="612pt" viewBox="0 0 792 612" xmlns="http://www.w3.org/2000/svg" version="1.1">
 <metadata>
  <rdf:RDF xmlns:dc="http://purl.org/dc/elements/1.1/" xmlns:cc="http://creativecommons.org/ns#" xmlns:rdf="http://www.w3.org/1999/02/22-rdf-syntax-ns#">
   <cc:Work>
    <dc:type rdf:resource="http://purl.org/dc/dcmitype/StillImage"/>
    <dc:date>2022-12-26T20:27:31.154385</dc:date>
    <dc:format>image/svg+xml</dc:format>
    <dc:creator>
     <cc:Agent>
      <dc:title>Matplotlib v3.6.2, https://matplotlib.org/</dc:title>
     </cc:Agent>
    </dc:creator>
   </cc:Work>
  </rdf:RDF>
 </metadata>
 <defs>
  <style type="text/css">*{stroke-linejoin: round; stroke-linecap: butt}</style>
 </defs>
 <g id="figure_1">
  <g id="patch_1">
   <path d="M 0 612 
L 792 612 
L 792 0 
L 0 0 
z
" style="fill: #ffffff"/>
  </g>
  <g id="axes_1">
   <g id="line2d_1">
    <path d="M 0 306 
L 3.142857 307.06045 
L 6.285714 305.587601 
L 12.571429 307.413929 
L 15.714286 295.929322 
L 18.857143 306.412399 
L 22 301.699552 
L 25.142857 305.175204 
L 28.285714 309.357971 
L 31.428571 295.576233 
L 34.571429 301.87626 
L 37.714286 307.001537 
L 40.857143 310.712758 
L 44 301.522846 
L 47.142857 311.537324 
L 50.285714 312.715133 
L 53.428571 315.305563 
L 56.571429 306 
L 59.714286 306.589141 
L 62.857143 311.537324 
L 66 301.935164 
L 69.142857 327.409705 
L 72.285714 307.885228 
L 75.428571 299.579302 
L 78.571429 305.234118 
L 81.714286 302.700936 
L 84.857143 313.245084 
L 88 307.590667 
L 94.285714 302.288592 
L 97.428571 299.520414 
L 100.571429 312.185141 
L 103.714286 313.245084 
L 106.857143 306.294571 
L 110 300.933848 
L 113.142857 307.23719 
L 116.285714 309.888123 
L 119.428571 320.893498 
L 122.571429 308.061963 
L 125.714286 306.235656 
L 128.857143 293.811227 
L 132 300.168207 
L 135.142857 306.058914 
L 138.285714 311.183948 
L 141.428571 293.92887 
L 144.571429 311.537324 
L 147.714286 305.175204 
L 150.857143 308.297608 
L 154 307.06045 
L 157.142857 305.234118 
L 160.285714 311.714006 
L 163.428571 310.889457 
L 166.571429 314.422593 
L 169.714286 303.584571 
L 172.857143 295.282014 
L 176 302.995476 
L 179.142857 304.173684 
L 182.285714 306.353485 
L 185.428571 300.109315 
L 188.571429 306.706968 
L 191.714286 286.291088 
L 194.857143 304.76281 
L 198 307.885228 
L 201.142857 301.640649 
L 204.285714 310.830557 
L 207.428571 317.012185 
L 210.571429 314.540331 
L 213.714286 299.579302 
L 216.857143 312.30292 
L 220 309.475784 
L 223.142857 305.882172 
L 226.285714 309.181248 
L 229.428571 308.65107 
L 232.571429 306.412399 
L 235.714286 302.995476 
L 238.857143 313.892743 
L 242 300.285994 
L 245.142857 298.401639 
L 248.285714 304.93955 
L 251.428571 309.593597 
L 254.571429 311.655113 
L 257.714286 302.936568 
L 260.857143 315.070119 
L 264 307.767404 
L 267.142857 296.459004 
L 270.285714 325.122143 
L 273.428571 297.930635 
L 276.571429 305.410859 
L 279.714286 297.283068 
L 282.857143 317.42403 
L 286 307.767404 
L 289.142857 313.245084 
L 292.285714 300.462676 
L 295.428571 312.950672 
L 298.571429 305.941086 
L 301.714286 301.522846 
L 304.857143 309.063432 
L 308 298.225008 
L 311.142857 318.07113 
L 314.285714 308.003052 
L 317.428571 308.120875 
L 320.571429 303.938037 
L 323.714286 307.94414 
L 326.857143 302.877659 
L 330 298.460517 
L 333.142857 299.69708 
L 336.285714 306.765882 
L 339.428571 307.826316 
L 342.571429 301.699552 
L 345.714286 314.540331 
L 348.857143 306.294571 
L 352 304.880636 
L 355.142857 319.5414 
L 358.285714 313.186203 
L 361.428571 310.889457 
L 364.571429 314.304853 
L 367.714286 305.057377 
L 370.857143 301.758454 
L 374 313.716115 
L 377.142857 308.179786 
L 380.285714 301.522846 
L 383.428571 308.061963 
L 386.571429 305.823258 
L 389.714286 298.931562 
L 392.857143 305.882172 
L 396 311.007254 
L 399.142857 308.886707 
L 402.285714 305.293032 
L 405.428571 312.30292 
L 408.571429 303.938037 
L 411.714286 304.232596 
L 414.857143 299.225982 
L 418 306.88371 
L 421.142857 310.653858 
L 424.285714 305.941086 
L 427.428571 306 
L 430.571429 303.054384 
L 433.714286 300.639363 
L 436.857143 305.469773 
L 440 297.106472 
L 443.142857 303.996948 
L 446.285714 305.705429 
L 449.428571 314.304853 
L 452.571429 306.235656 
L 455.714286 307.178277 
L 458.857143 298.813797 
L 462 308.768889 
L 465.142857 326.002243 
L 468.285714 302.170781 
L 471.428571 311.596218 
L 474.571429 302.995476 
L 477.714286 311.066152 
L 480.857143 307.590667 
L 484 306.058914 
L 487.142857 311.066152 
L 490.285714 300.992746 
L 493.428571 304.703897 
L 496.571429 302.936568 
L 499.714286 304.644984 
L 502.857143 306.88371 
L 506 308.415429 
L 509.142857 303.52566 
L 512.285714 310.830557 
L 515.428571 315.070119 
L 518.571429 305.351946 
L 521.714286 306.530227 
L 524.857143 299.93264 
L 528 315.011256 
L 531.142857 308.47434 
L 534.285714 310.005932 
L 537.428571 308.003052 
L 540.571429 306.942623 
L 543.714286 309.181248 
L 546.857143 311.066152 
L 550 304.291508 
L 553.142857 305.410859 
L 556.285714 301.817357 
L 559.428571 305.410859 
L 562.571429 319.365 
L 565.714286 306.648054 
L 568.857143 308.003052 
L 572 303.643481 
L 575.142857 304.821723 
L 578.285714 308.827798 
L 581.428571 308.886707 
L 584.571429 308.356519 
L 587.714286 309.240156 
L 590.857143 309.240156 
L 594 306.471313 
L 597.142857 304.586071 
L 600.285714 310.418253 
L 603.428571 309.593597 
L 606.571429 298.931562 
L 609.714286 301.699552 
L 612.857143 306.353485 
L 616 308.709979 
L 619.142857 314.599199 
L 622.285714 309.063432 
L 625.428571 306.942623 
L 628.571429 304.291508 
L 631.714286 299.579302 
L 634.857143 309.004524 
L 638 302.995476 
L 641.142857 309.240156 
L 644.285714 305.234118 
L 647.428571 305.528687 
L 650.571429 300.757155 
L 653.714286 304.76281 
L 656.857143 304.644984 
L 660 307.178277 
L 663.142857 311.537324 
L 666.285714 289.520004 
L 669.428571 309.770314 
L 672.571429 306.765882 
L 675.714286 311.183948 
L 682 301.228342 
L 685.142857 304.76281 
L 688.285714 305.587601 
L 691.428571 311.655113 
L 694.571429 292.81141 
L 697.714286 302.052972 
L 700.857143 306.471313 
L 704 303.879125 
L 707.142857 312.950672 
L 710.285714 303.879125 
L 713.428571 306.117828 
L 716.571429 311.478429 
L 719.714286 300.816052 
L 722.857143 306.88371 
L 726 307.94414 
L 729.142857 309.593597 
L 732.285714 304.998463 
L 735.428571 299.108212 
L 738.571429 307.413929 
L 741.714286 308.47434 
L 744.857143 307.413929 
L 748 309.357971 
L 751.142857 307.590667 
L 754.285714 305.351946 
L 757.428571 307.178277 
L 760.571429 303.34893 
L 763.714286 305.764344 
L 766.857143 308.768889 
L 770 312.538473 
L 773.142857 307.355016 
L 776.285714 306.765882 
L 779.428571 308.061963 
L 782.571429 303.702392 
L 785.714286 311.066152 
L 788.857143 305.293032 
L 788.857143 305.293032 
" clip-path="url(#p6a77ad697b)" style="fill: none; stroke: #000000; stroke-width: 1.5; stroke-linecap: square"/>
   </g>
   <g id="line2d_2">
    <path d="M 0 306 
L 3.142857 306 
L 6.285714 306.706968 
L 9.428571 306.06733 
L 12.571429 306.314209 
L 15.714286 306.881809 
L 18.857143 301.31716 
L 22 303.884692 
L 25.142857 302.787796 
L 28.285714 303.979852 
L 31.428571 306.673468 
L 34.571429 301.103614 
L 37.714286 301.480806 
L 40.857143 304.24022 
L 44 307.505648 
L 47.142857 304.504517 
L 50.285714 308.040478 
L 56.571429 312.861306 
L 59.714286 309.451529 
L 62.857143 308.02962 
L 66 309.79249 
L 69.142857 305.846592 
L 72.285714 316.692141 
L 75.428571 312.282829 
L 78.571429 305.905275 
L 81.714286 305.549943 
L 84.857143 304.11893 
L 88 308.695656 
L 91.142857 308.135429 
L 94.285714 306.572968 
L 97.428571 304.381378 
L 100.571429 301.93424 
L 103.714286 307.084709 
L 106.857143 310.181026 
L 110 308.244935 
L 113.142857 304.565047 
L 116.285714 305.900424 
L 119.428571 307.903942 
L 122.571429 314.438984 
L 125.714286 311.267789 
L 128.857143 308.740242 
L 132 301.23481 
L 135.142857 300.689482 
L 138.285714 303.384045 
L 141.428571 307.291945 
L 144.571429 300.57654 
L 147.714286 306.038583 
L 150.857143 305.601232 
L 154 306.953482 
L 157.142857 307.032957 
L 160.285714 306.143473 
L 163.428571 308.940071 
L 166.571429 309.914226 
L 169.714286 312.208928 
L 172.857143 307.881532 
L 176 301.560496 
L 179.142857 302.267571 
L 182.285714 303.21494 
L 185.428571 304.786375 
L 188.571429 302.424884 
L 191.714286 304.557654 
L 194.857143 295.359779 
L 198 300.062201 
L 201.142857 303.998103 
L 204.285714 302.816672 
L 207.428571 306.83681 
L 210.571429 311.947037 
L 213.714286 313.2721 
L 216.857143 306.411937 
L 220 309.408792 
L 223.142857 309.451529 
L 226.285714 307.662979 
L 229.428571 308.436914 
L 232.571429 308.539718 
L 235.714286 307.455284 
L 238.857143 305.202697 
L 242 309.576503 
L 245.142857 304.907436 
L 248.285714 301.632334 
L 251.428571 303.284014 
L 254.571429 306.439661 
L 257.714286 309.053499 
L 260.857143 305.988217 
L 264 310.553842 
L 267.142857 309.148676 
L 270.285714 302.794957 
L 273.428571 314.021573 
L 276.571429 305.962341 
L 279.714286 305.678398 
L 282.857143 301.451702 
L 286 309.468623 
L 289.142857 308.603711 
L 292.285714 310.935421 
L 295.428571 305.706816 
L 298.571429 309.305301 
L 301.714286 307.638952 
L 304.857143 304.573133 
L 308 306.84143 
L 311.142857 302.494878 
L 314.285714 310.305992 
L 317.428571 309.144287 
L 320.571429 308.647604 
L 323.714286 306.275164 
L 326.857143 307.113588 
L 330 304.998232 
L 333.142857 301.708098 
L 336.285714 300.705419 
L 339.428571 303.71325 
L 342.571429 305.769426 
L 345.714286 303.721798 
L 348.857143 309.152834 
L 355.142857 306.304505 
L 358.285714 312.967529 
L 361.428571 313.103306 
L 364.571429 312.004543 
L 367.714286 313.167499 
L 370.857143 309.119568 
L 374 305.413863 
L 377.142857 309.580199 
L 380.285714 308.886476 
L 383.428571 305.169197 
L 386.571429 306.605544 
L 389.714286 306.204467 
L 392.857143 302.537383 
L 396 304.211341 
L 399.142857 307.627632 
L 402.285714 308.247707 
L 405.428571 306.764727 
L 408.571429 309.55525 
L 411.714286 306.73862 
L 414.857143 305.48248 
L 418 302.354427 
L 421.142857 304.620957 
L 424.285714 307.636873 
L 427.428571 306.78321 
L 430.571429 306.392992 
L 433.714286 304.705514 
L 436.857143 302.665823 
L 440 304.070183 
L 443.142857 300.583469 
L 449.428571 303.985166 
L 452.571429 309.162306 
L 455.714286 307.699482 
L 458.857143 307.446966 
L 462 303.12623 
L 465.142857 305.954024 
L 468.285714 316.045523 
L 471.428571 309.10617 
L 474.571429 310.362816 
L 477.714286 306.657065 
L 480.857143 308.871229 
L 484 308.231766 
L 487.142857 307.159563 
L 490.285714 309.117489 
L 493.428571 305.005856 
L 496.571429 304.859844 
L 499.714286 303.881204 
L 502.857143 304.266326 
L 506 305.566808 
L 509.142857 306.992757 
L 512.285714 305.254218 
L 515.428571 308.042095 
L 518.571429 311.58444 
L 521.714286 308.469719 
L 524.857143 307.507034 
L 528 303.710247 
L 531.142857 309.377837 
L 534.285714 308.92621 
L 537.428571 309.478787 
L 540.571429 308.735391 
L 543.714286 307.823082 
L 546.857143 308.509686 
L 550 309.796879 
L 553.142857 307.052826 
L 556.285714 306.213015 
L 559.428571 304.002031 
L 562.571429 304.697428 
L 565.714286 312.056968 
L 568.857143 309.352196 
L 572 308.675327 
L 575.142857 306.144859 
L 578.285714 305.484329 
L 581.428571 307.162798 
L 584.571429 308.03863 
L 587.714286 308.20335 
L 590.857143 308.701894 
L 594 308.976109 
L 597.142857 307.720737 
L 600.285714 306.155256 
L 603.428571 308.297839 
L 606.571429 308.947233 
L 609.714286 303.919324 
L 612.857143 302.796343 
L 616 304.569206 
L 619.142857 306.638582 
L 622.285714 310.63561 
L 625.428571 309.858325 
L 628.571429 308.393713 
L 631.714286 306.332229 
L 634.857143 302.956666 
L 638 305.994917 
L 641.142857 304.488576 
L 644.285714 306.865458 
L 647.428571 306.031421 
L 650.571429 305.773123 
L 653.714286 303.252827 
L 656.857143 304.00873 
L 660 304.33679 
L 663.142857 305.753947 
L 666.285714 308.662621 
L 669.428571 299.045864 
L 672.571429 304.416495 
L 675.714286 305.593608 
L 678.857143 308.409423 
L 682 307.295872 
L 685.142857 304.255236 
L 688.285714 304.504286 
L 691.428571 305.034274 
L 694.571429 308.3884 
L 697.714286 300.563144 
L 700.857143 301.298791 
L 704 303.87566 
L 707.142857 303.872888 
L 710.285714 308.435297 
L 713.428571 306.155487 
L 716.571429 306.137697 
L 719.714286 308.80793 
L 722.857143 304.827499 
L 729.142857 306.907506 
L 732.285714 308.261799 
L 735.428571 306.614554 
L 738.571429 302.851555 
L 741.714286 305.135235 
L 744.857143 306.79892 
L 748 307.119364 
L 751.142857 308.243549 
L 754.285714 307.916417 
L 757.428571 306.625875 
L 760.571429 306.906351 
L 763.714286 305.135928 
L 766.857143 305.446901 
L 770 307.108505 
L 773.142857 309.833839 
L 776.285714 308.590543 
L 779.428571 307.67661 
L 782.571429 307.874601 
L 785.714286 305.781671 
L 788.857143 308.439224 
L 788.857143 308.439224 
" clip-path="url(#p6a77ad697b)" style="fill: none; stroke: #000000; stroke-width: 1.5; stroke-linecap: square"/>
   </g>
   <g id="line2d_3">
    <path d="M 0 306 
L 3.142857 306 
L 6.285714 306.621199 
L 9.428571 306.152895 
L 12.571429 306.300252 
L 15.714286 306.696488 
L 18.857143 303.09121 
L 22 304.158243 
L 25.142857 303.39006 
L 28.285714 303.937079 
L 31.428571 305.576058 
L 34.571429 302.579929 
L 37.714286 302.370554 
L 40.857143 303.742013 
L 44 305.799854 
L 47.142857 304.540106 
L 50.285714 306.59775 
L 53.428571 308.397471 
L 56.571429 310.430844 
L 59.714286 309.133663 
L 62.857143 308.388486 
L 66 309.315578 
L 69.142857 307.160823 
L 72.285714 313.12472 
L 75.428571 311.597507 
L 78.571429 308.071161 
L 81.714286 307.235489 
L 84.857143 305.915505 
L 88 308.075714 
L 91.142857 307.934324 
L 94.285714 307.06788 
L 97.428571 305.668888 
L 100.571429 303.853989 
L 103.714286 306.29374 
L 106.857143 308.327725 
L 110 307.732579 
L 113.142857 305.734658 
L 116.285714 306.169802 
L 119.428571 307.268062 
L 122.571429 311.254287 
L 125.714286 310.319567 
L 128.857143 309.131158 
L 132 304.629123 
L 135.142857 303.319496 
L 138.285714 304.113573 
L 141.428571 306.188694 
L 144.571429 302.583459 
L 147.714286 305.216688 
L 150.857143 305.211034 
L 154 306.110616 
L 157.142857 306.381712 
L 160.285714 306.044371 
L 163.428571 307.717529 
L 166.571429 308.650829 
L 169.714286 310.346927 
L 172.857143 308.34653 
L 176 304.504098 
L 179.142857 304.0585 
L 182.285714 304.104146 
L 185.428571 304.770057 
L 188.571429 303.397967 
L 191.714286 304.36198 
L 194.857143 299.053521 
L 198 300.71763 
L 201.142857 302.819834 
L 204.285714 302.466802 
L 207.428571 304.920831 
L 210.571429 308.477177 
L 213.714286 310.256695 
L 216.857143 307.11628 
L 220 308.633175 
L 223.142857 308.886741 
L 226.285714 308.018934 
L 229.428571 308.366481 
L 232.571429 308.454978 
L 235.714286 307.856802 
L 238.857143 306.436256 
L 242 308.628914 
L 248.285714 303.909089 
L 251.428571 304.207517 
L 254.571429 305.794232 
L 257.714286 307.511968 
L 260.857143 306.15567 
L 264 308.767964 
L 267.142857 308.484317 
L 270.285714 304.943118 
L 273.428571 310.878309 
L 276.571429 307.076628 
L 279.714286 306.584407 
L 282.857143 303.846393 
L 286 307.837353 
L 289.142857 307.822347 
L 292.285714 309.410156 
L 295.428571 306.789624 
L 298.571429 308.611155 
L 301.714286 307.830283 
L 304.857143 305.973529 
L 308 306.875591 
L 311.142857 304.336008 
L 314.285714 308.36416 
L 320.571429 308.231705 
L 323.714286 306.949774 
L 326.857143 307.252524 
L 330 305.968219 
L 333.142857 303.77021 
L 336.285714 302.556706 
L 342.571429 304.964787 
L 345.714286 304.009785 
L 348.857143 307.096563 
L 352 306.862072 
L 355.142857 306.28558 
L 358.285714 310.182497 
L 361.428571 311.079554 
L 364.571429 311.015623 
L 367.714286 311.986408 
L 370.857143 309.953742 
L 374 307.550957 
L 377.142857 309.363675 
L 380.285714 309.02302 
L 383.428571 306.829763 
L 386.571429 307.200279 
L 389.714286 306.795879 
L 392.857143 304.481901 
L 396 304.896831 
L 399.142857 306.682599 
L 402.285714 307.331162 
L 405.428571 306.734685 
L 408.571429 308.357476 
L 411.714286 307.052448 
L 414.857143 306.218883 
L 418 304.153085 
L 421.142857 304.954953 
L 424.285714 306.634443 
L 430.571429 306.2962 
L 433.714286 305.348428 
L 436.857143 303.960517 
L 440 304.402155 
L 443.142857 302.262643 
L 446.285714 302.768424 
L 449.428571 303.622526 
L 452.571429 306.758094 
L 455.714286 306.606159 
L 458.857143 306.767842 
L 462 304.431897 
L 465.142857 305.707395 
L 468.285714 311.690117 
L 471.428571 308.896874 
L 474.571429 309.688641 
L 477.714286 307.724955 
L 480.857143 308.709466 
L 484 308.386994 
L 487.142857 307.711357 
L 490.285714 308.700461 
L 493.428571 306.447308 
L 496.571429 305.937484 
L 499.714286 305.055329 
L 502.857143 304.924044 
L 506 305.498759 
L 509.142857 306.354467 
L 512.285714 305.531327 
L 515.428571 307.085917 
L 518.571429 309.412489 
L 521.714286 308.226898 
L 524.857143 307.724145 
L 528 305.438328 
L 531.142857 308.24743 
L 534.285714 308.314905 
L 537.428571 308.814748 
L 540.571429 308.573493 
L 543.714286 308.102667 
L 546.857143 308.423726 
L 550 309.207067 
L 553.142857 307.766985 
L 556.285714 307.075209 
L 559.428571 305.527568 
L 562.571429 305.495551 
L 565.714286 309.56996 
L 568.857143 308.704521 
L 572 308.502113 
L 575.142857 307.075758 
L 578.285714 306.421184 
L 581.428571 307.118979 
L 584.571429 307.637221 
L 587.714286 307.846006 
L 590.857143 308.255775 
L 594 308.546738 
L 597.142857 307.935763 
L 600.285714 306.94723 
L 603.428571 307.970971 
L 606.571429 308.451047 
L 609.714286 305.659207 
L 612.857143 304.495117 
L 616 305.02446 
L 619.142857 306.106311 
L 622.285714 308.601999 
L 625.428571 308.743376 
L 628.571429 308.218398 
L 631.714286 307.063046 
L 634.857143 304.860149 
L 638 306.074777 
L 641.142857 305.165672 
L 644.285714 306.359094 
L 647.428571 306.028175 
L 650.571429 305.882961 
L 653.714286 304.370415 
L 660 304.534742 
L 663.142857 305.315303 
L 666.285714 307.143817 
L 669.428571 301.955426 
L 672.571429 304.238713 
L 675.714286 304.976255 
L 678.857143 306.799459 
L 682 306.619236 
L 685.142857 305.042065 
L 688.285714 304.955401 
L 691.428571 305.143545 
L 694.571429 307.053696 
L 697.714286 302.865667 
L 700.857143 302.623637 
L 704 303.757102 
L 707.142857 303.791827 
L 710.285714 306.484255 
L 713.428571 305.717431 
L 716.571429 305.828479 
L 719.714286 307.508711 
L 722.857143 305.538054 
L 726 305.932324 
L 729.142857 306.517856 
L 732.285714 307.422683 
L 735.428571 306.716981 
L 738.571429 304.4816 
L 744.857143 306.256192 
L 748 306.61207 
L 751.142857 307.424746 
L 754.285714 307.474629 
L 757.428571 306.854607 
L 760.571429 306.942776 
L 763.714286 305.889537 
L 766.857143 305.852463 
L 770 306.703572 
L 773.142857 308.426283 
L 779.428571 307.717135 
L 782.571429 307.816374 
L 785.714286 306.60993 
L 788.857143 307.928974 
L 788.857143 307.928974 
" clip-path="url(#p6a77ad697b)" style="fill: none; stroke: #000000; stroke-width: 1.5; stroke-linecap: square"/>
   </g>
   <g id="line2d_4">
    <path d="M 0 306 
L 3.142857 306 
L 6.285714 306.576053 
L 9.428571 306.188121 
L 12.571429 306.296982 
L 15.714286 306.603618 
L 18.857143 303.975592 
L 22 304.527318 
L 25.142857 303.927404 
L 28.285714 304.178774 
L 31.428571 305.179763 
L 34.571429 303.384324 
L 37.714286 303.110098 
L 40.857143 303.801931 
L 44 305.008115 
L 47.142857 304.409028 
L 53.428571 306.810716 
L 56.571429 308.225209 
L 59.714286 307.857516 
L 62.857143 307.649206 
L 66 308.284584 
L 69.142857 307.251531 
L 72.285714 310.524848 
L 75.428571 310.098244 
L 78.571429 308.402365 
L 81.714286 307.892671 
L 84.857143 307.058897 
L 88 308.051081 
L 91.142857 307.977344 
L 94.285714 307.500771 
L 97.428571 306.667604 
L 100.571429 305.525848 
L 106.857143 307.652367 
L 110 307.436781 
L 113.142857 306.398584 
L 116.285714 306.5319 
L 119.428571 307.074628 
L 122.571429 309.284054 
L 125.714286 309.09359 
L 128.857143 308.639568 
L 132 306.26965 
L 135.142857 305.301644 
L 138.285714 305.424738 
L 141.428571 306.343737 
L 144.571429 304.35703 
L 147.714286 305.505773 
L 150.857143 305.449208 
L 154 305.899648 
L 157.142857 306.07919 
L 160.285714 305.944258 
L 163.428571 306.865547 
L 166.571429 307.505417 
L 169.714286 308.614043 
L 172.857143 307.798973 
L 176 305.798933 
L 179.142857 305.355011 
L 182.285714 305.166394 
L 185.428571 305.357542 
L 188.571429 304.514228 
L 191.714286 304.862545 
L 194.857143 301.891966 
L 198 302.350236 
L 201.142857 303.236026 
L 204.285714 302.975605 
L 207.428571 304.22385 
L 210.571429 306.26595 
L 213.714286 307.591263 
L 216.857143 306.311615 
L 220 307.266495 
L 223.142857 307.610885 
L 226.285714 307.334484 
L 229.428571 307.630159 
L 232.571429 307.801855 
L 235.714286 307.584688 
L 238.857143 306.85261 
L 242 307.974665 
L 248.285714 305.417721 
L 251.428571 305.341495 
L 254.571429 306.018854 
L 257.714286 306.91857 
L 260.857143 306.283571 
L 264 307.684044 
L 267.142857 307.695358 
L 270.285714 305.895925 
L 273.428571 308.972215 
L 276.571429 307.216889 
L 279.714286 306.931053 
L 282.857143 305.391351 
L 286 307.31354 
L 289.142857 307.39053 
L 292.285714 308.32627 
L 295.428571 307.08394 
L 298.571429 308.022632 
L 301.714286 307.690245 
L 304.857143 306.708878 
L 308 307.082407 
L 311.142857 305.661174 
L 314.285714 307.63883 
L 320.571429 307.766065 
L 323.714286 307.153563 
L 326.857143 307.280634 
L 330 306.57616 
L 333.142857 305.278332 
L 336.285714 304.386016 
L 342.571429 305.249969 
L 345.714286 304.685928 
L 348.857143 306.264217 
L 352 306.269892 
L 355.142857 306.045915 
L 358.285714 308.199391 
L 361.428571 308.999353 
L 364.571429 309.297484 
L 367.714286 310.098442 
L 370.857143 309.301834 
L 374 308.087095 
L 377.142857 308.992735 
L 380.285714 308.865122 
L 383.428571 307.699588 
L 386.571429 307.751399 
L 389.714286 307.443418 
L 392.857143 306.080027 
L 396 306.05193 
L 399.142857 306.839195 
L 402.285714 307.16681 
L 405.428571 306.87104 
L 408.571429 307.737418 
L 411.714286 307.136494 
L 414.857143 306.665835 
L 418 305.476476 
L 421.142857 305.6996 
L 424.285714 306.492087 
L 430.571429 306.340974 
L 433.714286 305.820918 
L 436.857143 304.997019 
L 440 305.071427 
L 443.142857 303.797121 
L 446.285714 303.830347 
L 449.428571 304.123159 
L 452.571429 305.748407 
L 455.714286 305.826775 
L 458.857143 306.034086 
L 462 304.876138 
L 465.142857 305.494173 
L 468.285714 308.768864 
L 471.428571 307.717298 
L 474.571429 308.340656 
L 477.714286 307.48354 
L 480.857143 308.0554 
L 484 307.985246 
L 487.142857 307.677516 
L 490.285714 308.219981 
L 493.428571 307.071346 
L 496.571429 306.693942 
L 499.714286 306.091079 
L 502.857143 305.858352 
L 506 306.022483 
L 509.142857 306.400791 
L 512.285714 305.943082 
L 515.428571 306.724876 
L 518.571429 308.062915 
L 521.714286 307.630645 
L 524.857143 307.452993 
L 528 306.252611 
L 531.142857 307.652166 
L 534.285714 307.78636 
L 537.428571 308.145365 
L 540.571429 308.124303 
L 543.714286 307.942435 
L 546.857143 308.142775 
L 550 308.611279 
L 553.142857 307.917765 
L 556.285714 307.518401 
L 559.428571 306.607968 
L 562.571429 306.421621 
L 565.714286 308.488874 
L 568.857143 308.183909 
L 572 308.158773 
L 575.142857 307.435424 
L 578.285714 307.020718 
L 584.571429 307.55902 
L 587.714286 307.68734 
L 594 308.14635 
L 597.142857 307.880954 
L 600.285714 307.357765 
L 603.428571 307.848336 
L 606.571429 308.127715 
L 609.714286 306.658484 
L 612.857143 305.868316 
L 616 305.942714 
L 619.142857 306.379037 
L 622.285714 307.693009 
L 625.428571 307.912635 
L 628.571429 307.762678 
L 631.714286 307.20372 
L 634.857143 305.984953 
L 638 306.464767 
L 641.142857 305.909651 
L 644.285714 306.440999 
L 650.571429 306.128852 
L 653.714286 305.27191 
L 660 305.105475 
L 663.142857 305.436368 
L 666.285714 306.402258 
L 669.428571 303.703038 
L 672.571429 304.669469 
L 675.714286 305.004961 
L 678.857143 305.992105 
L 682 306.019828 
L 685.142857 305.252646 
L 688.285714 305.172469 
L 691.428571 305.236239 
L 694.571429 306.259113 
L 697.714286 304.109731 
L 700.857143 303.780896 
L 704 304.206476 
L 707.142857 304.150828 
L 710.285714 305.559835 
L 713.428571 305.293783 
L 716.571429 305.424744 
L 719.714286 306.389727 
L 722.857143 305.494256 
L 726 305.713963 
L 729.142857 306.069421 
L 732.285714 306.633464 
L 735.428571 306.376711 
L 738.571429 305.213908 
L 748 306.250577 
L 751.142857 306.747384 
L 754.285714 306.885818 
L 757.428571 306.642142 
L 760.571429 306.729024 
L 763.714286 306.18884 
L 766.857143 306.117699 
L 770 306.551544 
L 773.142857 307.505961 
L 782.571429 307.477546 
L 785.714286 306.87845 
L 788.857143 307.548724 
L 788.857143 307.548724 
" clip-path="url(#p6a77ad697b)" style="fill: none; stroke: #000000; stroke-width: 1.5; stroke-linecap: square"/>
   </g>
   <g id="line2d_5">
    <path d="M 0 306 
L 3.142857 306 
L 6.285714 306.553183 
L 9.428571 306.203068 
L 12.571429 306.295774 
L 15.714286 306.559734 
L 18.857143 304.382663 
L 22 304.753105 
L 25.142857 304.246207 
L 28.285714 304.388593 
L 31.428571 305.100253 
L 34.571429 303.813294 
L 37.714286 303.564589 
L 40.857143 303.986676 
L 44 304.781121 
L 47.142857 304.409312 
L 53.428571 306.007721 
L 56.571429 306.985111 
L 62.857143 306.854116 
L 66 307.318055 
L 69.142857 306.793273 
L 72.285714 308.777701 
L 75.428571 308.693049 
L 78.571429 307.83867 
L 81.714286 307.597117 
L 84.857143 307.147403 
L 88 307.702666 
L 91.142857 307.69255 
L 94.285714 307.451003 
L 97.428571 306.991196 
L 100.571429 306.329732 
L 106.857143 307.406054 
L 110 307.309136 
L 113.142857 306.755513 
L 116.285714 306.797179 
L 119.428571 307.063631 
L 122.571429 308.252926 
L 125.714286 308.236565 
L 128.857143 308.065604 
L 132 306.850097 
L 135.142857 306.281776 
L 138.285714 306.262861 
L 141.428571 306.67978 
L 144.571429 305.600941 
L 147.714286 306.102228 
L 150.857143 306.024067 
L 154 306.215508 
L 157.142857 306.286569 
L 160.285714 306.198155 
L 169.714286 307.636352 
L 172.857143 307.297183 
L 176 306.29176 
L 179.142857 306.0162 
L 182.285714 305.862266 
L 185.428571 305.903282 
L 188.571429 305.419675 
L 191.714286 305.527059 
L 194.857143 303.920853 
L 198 303.99103 
L 201.142857 304.315493 
L 204.285714 304.092058 
L 207.428571 304.652572 
L 210.571429 305.682477 
L 213.714286 306.420435 
L 216.857143 305.85002 
L 220 306.390989 
L 223.142857 306.648023 
L 226.285714 306.585822 
L 232.571429 306.955739 
L 235.714286 306.914172 
L 238.857143 306.589294 
L 242 307.197834 
L 248.285714 305.937438 
L 251.428571 305.852469 
L 254.571429 306.161965 
L 257.714286 306.616738 
L 260.857143 306.310294 
L 264 307.040302 
L 267.142857 307.099422 
L 270.285714 306.214274 
L 273.428571 307.784854 
L 276.571429 306.963613 
L 279.714286 306.83664 
L 282.857143 306.040949 
L 286 306.99093 
L 289.142857 307.053592 
L 292.285714 307.569404 
L 295.428571 306.978057 
L 298.571429 307.477321 
L 301.714286 307.351912 
L 304.857143 306.864631 
L 308 307.045768 
L 311.142857 306.310918 
L 314.285714 307.293061 
L 320.571429 307.415457 
L 323.714286 307.121324 
L 326.857143 307.189577 
L 330 306.830607 
L 333.142857 306.137313 
L 336.285714 305.602573 
L 342.571429 305.874791 
L 345.714286 305.530771 
L 348.857143 306.279689 
L 352 306.281289 
L 355.142857 306.163928 
L 358.285714 307.278996 
L 361.428571 307.771956 
L 364.571429 308.03045 
L 367.714286 308.55245 
L 370.857143 308.259337 
L 374 307.719193 
L 377.142857 308.223028 
L 380.285714 308.221126 
L 383.428571 307.664326 
L 386.571429 307.697885 
L 389.714286 307.544161 
L 392.857143 306.826725 
L 396 306.754716 
L 399.142857 307.109726 
L 402.285714 307.257539 
L 405.428571 307.095683 
L 408.571429 307.528408 
L 414.857143 306.974358 
L 418 306.33107 
L 421.142857 306.375173 
L 424.285714 306.730699 
L 430.571429 306.608941 
L 433.714286 306.312098 
L 436.857143 305.83936 
L 440 305.809491 
L 443.142857 305.081505 
L 446.285714 304.992698 
L 449.428571 305.054229 
L 452.571429 305.825209 
L 458.857143 305.966287 
L 462 305.371208 
L 465.142857 305.651156 
L 468.285714 307.34852 
L 471.428571 306.920637 
L 474.571429 307.304328 
L 477.714286 306.948356 
L 480.857143 307.29199 
L 484 307.320135 
L 487.142857 307.211759 
L 490.285714 307.532764 
L 493.428571 306.985951 
L 496.571429 306.797931 
L 499.714286 306.474187 
L 502.857143 306.321948 
L 506 306.370317 
L 509.142857 306.539846 
L 512.285714 306.291402 
L 515.428571 306.665808 
L 518.571429 307.365845 
L 521.714286 307.1978 
L 524.857143 307.143238 
L 528 306.542118 
L 531.142857 307.249183 
L 534.285714 307.354127 
L 537.428571 307.577585 
L 546.857143 307.694566 
L 550 307.97329 
L 553.142857 307.667072 
L 556.285714 307.479992 
L 559.428571 307.00423 
L 562.571429 306.869456 
L 565.714286 307.90998 
L 568.857143 307.802755 
L 572 307.820337 
L 575.142857 307.474293 
L 578.285714 307.251248 
L 594 307.848487 
L 597.142857 307.734381 
L 600.285714 307.470999 
L 606.571429 307.873354 
L 609.714286 307.126781 
L 612.857143 306.675594 
L 616 306.649551 
L 619.142857 306.82365 
L 622.285714 307.47168 
L 625.428571 307.603275 
L 628.571429 307.54877 
L 631.714286 307.277878 
L 634.857143 306.637723 
L 638 306.836888 
L 641.142857 306.517254 
L 644.285714 306.747203 
L 650.571429 306.531226 
L 653.714286 306.047549 
L 660 305.832098 
L 663.142857 305.946549 
L 666.285714 306.411512 
L 669.428571 304.996376 
L 672.571429 305.39508 
L 675.714286 305.507279 
L 678.857143 305.981125 
L 682 305.995769 
L 685.142857 305.597989 
L 691.428571 305.531393 
L 694.571429 306.043161 
L 697.714286 304.940431 
L 700.857143 304.700482 
L 704 304.848047 
L 707.142857 304.766651 
L 710.285714 305.447462 
L 713.428571 305.317409 
L 716.571429 305.382306 
L 719.714286 305.887138 
L 722.857143 305.464741 
L 729.142857 305.781231 
L 732.285714 306.095891 
L 735.428571 306.003678 
L 738.571429 305.427739 
L 748 305.962798 
L 751.142857 306.244039 
L 754.285714 306.356878 
L 757.428571 306.273454 
L 760.571429 306.350296 
L 763.714286 306.100518 
L 766.857143 306.068187 
L 770 306.293031 
L 773.142857 306.812935 
L 782.571429 306.952199 
L 785.714286 306.680789 
L 788.857143 307.045674 
L 788.857143 307.045674 
" clip-path="url(#p6a77ad697b)" style="fill: none; stroke: #000000; stroke-width: 1.5; stroke-linecap: square"/>
   </g>
   <g id="line2d_6">
    <path d="M 0 306 
L 3.142857 306 
L 6.285714 306.54171 
L 9.428571 306.209801 
L 12.571429 306.295186 
L 15.714286 306.53873 
L 18.857143 304.572952 
L 22 304.871077 
L 25.142857 304.411963 
L 28.285714 304.512184 
L 31.428571 305.096541 
L 34.571429 304.031328 
L 37.714286 303.805937 
L 40.857143 304.12056 
L 44 304.735182 
L 47.142857 304.450157 
L 53.428571 305.674654 
L 56.571429 306.428933 
L 62.857143 306.410605 
L 66 306.774497 
L 69.142857 306.440569 
L 72.285714 307.852273 
L 75.428571 307.854435 
L 78.571429 307.323968 
L 81.714286 307.19286 
L 84.857143 306.916665 
L 88 307.298561 
L 91.142857 307.315875 
L 94.285714 307.1808 
L 97.428571 306.900099 
L 100.571429 306.48288 
L 106.857143 307.155331 
L 110 307.108573 
L 113.142857 306.777079 
L 116.285714 306.801503 
L 119.428571 306.963627 
L 122.571429 307.688512 
L 128.857143 307.632617 
L 132 306.932952 
L 135.142857 306.593414 
L 138.285714 306.566796 
L 141.428571 306.795061 
L 144.571429 306.163179 
L 147.714286 306.425261 
L 150.857143 306.364692 
L 157.142857 306.486645 
L 160.285714 306.426994 
L 169.714286 307.230254 
L 172.857143 307.059972 
L 176 306.512009 
L 182.285714 306.248761 
L 185.428571 306.253575 
L 188.571429 305.972129 
L 191.714286 306.005671 
L 194.857143 305.107463 
L 198 305.09183 
L 201.142857 305.218157 
L 204.285714 305.056815 
L 207.428571 305.316501 
L 210.571429 305.841367 
L 213.714286 306.230732 
L 216.857143 305.933746 
L 220 306.217491 
L 223.142857 306.362322 
L 226.285714 306.341024 
L 232.571429 306.563288 
L 235.714286 306.556632 
L 238.857143 306.39982 
L 242 306.729293 
L 248.285714 306.093805 
L 251.428571 306.043289 
L 257.714286 306.436658 
L 260.857143 306.284075 
L 264 306.666741 
L 267.142857 306.714611 
L 270.285714 306.268938 
L 273.428571 307.08821 
L 276.571429 306.691108 
L 279.714286 306.635656 
L 282.857143 306.230835 
L 286 306.715009 
L 289.142857 306.760472 
L 292.285714 307.040435 
L 295.428571 306.756702 
L 298.571429 307.023711 
L 301.714286 306.977083 
L 304.857143 306.742316 
L 308 306.842158 
L 311.142857 306.471667 
L 314.285714 306.97026 
L 320.571429 307.06208 
L 323.714286 306.928085 
L 326.857143 306.971644 
L 330 306.796213 
L 336.285714 306.150447 
L 342.571429 306.247348 
L 345.714286 306.052867 
L 348.857143 306.415762 
L 355.142857 306.34523 
L 358.285714 306.909117 
L 367.714286 307.633006 
L 370.857143 307.523148 
L 374 307.277319 
L 377.142857 307.551883 
L 380.285714 307.578646 
L 383.428571 307.320584 
L 389.714286 307.287047 
L 392.857143 306.93117 
L 396 306.886506 
L 402.285714 307.139615 
L 405.428571 307.061209 
L 408.571429 307.284346 
L 414.857143 307.018461 
L 418 306.686679 
L 421.142857 306.696855 
L 424.285714 306.865338 
L 430.571429 306.791939 
L 440 306.341204 
L 443.142857 305.94793 
L 449.428571 305.858065 
L 452.571429 306.216728 
L 458.857143 306.25588 
L 462 305.939109 
L 465.142857 306.059448 
L 468.285714 306.908575 
L 471.428571 306.70774 
L 474.571429 306.912386 
L 477.714286 306.745506 
L 480.857143 306.930615 
L 490.285714 307.096769 
L 493.428571 306.836865 
L 506 306.518804 
L 509.142857 306.598413 
L 512.285714 306.467676 
L 515.428571 306.65431 
L 518.571429 307.012525 
L 524.857143 306.921548 
L 528 306.623857 
L 531.142857 306.981023 
L 550 307.444282 
L 562.571429 306.93181 
L 565.714286 307.460563 
L 575.142857 307.287509 
L 578.285714 307.184556 
L 594 307.526374 
L 603.428571 307.492073 
L 606.571429 307.582498 
L 609.714286 307.213701 
L 612.857143 306.977364 
L 619.142857 307.025708 
L 622.285714 307.347273 
L 628.571429 307.399905 
L 631.714286 307.267307 
L 634.857143 306.939817 
L 638 307.027788 
L 641.142857 306.856828 
L 644.285714 306.957104 
L 650.571429 306.828566 
L 653.714286 306.570442 
L 663.142857 306.446615 
L 666.285714 306.661882 
L 669.428571 305.93141 
L 672.571429 306.096389 
L 675.714286 306.121717 
L 678.857143 306.338564 
L 682 306.331831 
L 685.142857 306.116099 
L 691.428571 306.036371 
L 694.571429 306.27435 
L 697.714286 305.701946 
L 700.857143 305.54542 
L 704 305.584763 
L 707.142857 305.51284 
L 710.285714 305.828876 
L 716.571429 305.760879 
L 719.714286 306.003887 
L 722.857143 305.782705 
L 729.142857 305.919512 
L 732.285714 306.076405 
L 735.428571 306.031791 
L 738.571429 305.738107 
L 760.571429 306.196659 
L 766.857143 306.060294 
L 770 306.174212 
L 773.142857 306.445321 
L 782.571429 306.561972 
L 785.714286 306.441096 
L 788.857143 306.637701 
L 788.857143 306.637701 
" clip-path="url(#p6a77ad697b)" style="fill: none; stroke: #000000; stroke-width: 1.5; stroke-linecap: square"/>
   </g>
   <g id="line2d_7">
    <path d="M 0 306 
L 3.142857 306 
L 6.285714 306.535969 
L 9.428571 306.212975 
L 12.571429 306.294883 
L 15.714286 306.528493 
L 18.857143 304.664311 
L 22 304.930551 
L 25.142857 304.495373 
L 28.285714 304.577617 
L 31.428571 305.103585 
L 34.571429 304.140263 
L 37.714286 303.928306 
L 40.857143 304.196628 
L 44 304.730417 
L 47.142857 304.482636 
L 53.428571 305.535619 
L 56.571429 306.184207 
L 62.857143 306.1979 
L 66 306.510988 
L 69.142857 306.252315 
L 72.285714 307.409638 
L 75.428571 307.434776 
L 78.571429 307.032171 
L 81.714286 306.942697 
L 84.857143 306.737428 
L 88 307.044134 
L 91.142857 307.069242 
L 94.285714 306.976387 
L 100.571429 306.460214 
L 106.857143 306.96957 
L 110 306.942355 
L 113.142857 306.704572 
L 119.428571 306.846102 
L 122.571429 307.374299 
L 128.857143 307.357345 
L 132 306.87122 
L 135.142857 306.634182 
L 138.285714 306.614121 
L 141.428571 306.771389 
L 144.571429 306.334919 
L 147.714286 306.509475 
L 154 306.525283 
L 163.428571 306.666014 
L 169.714286 307.035567 
L 172.857143 306.929349 
L 176 306.574046 
L 182.285714 306.397232 
L 185.428571 306.395933 
L 188.571429 306.210712 
L 191.714286 306.225215 
L 194.857143 305.646362 
L 204.285714 305.57087 
L 207.428571 305.719059 
L 213.714286 306.271732 
L 216.857143 306.086825 
L 223.142857 306.345346 
L 229.428571 306.409628 
L 235.714286 306.468234 
L 238.857143 306.376047 
L 242 306.574609 
L 251.428571 306.167067 
L 257.714286 306.39514 
L 260.857143 306.306314 
L 264 306.530503 
L 267.142857 306.562004 
L 270.285714 306.305659 
L 273.428571 306.781705 
L 276.571429 306.558883 
L 279.714286 306.530096 
L 282.857143 306.299005 
L 286 306.576104 
L 289.142857 306.605661 
L 292.285714 306.769861 
L 295.428571 306.614407 
L 298.571429 306.770092 
L 308 306.681597 
L 311.142857 306.476308 
L 314.285714 306.757078 
L 326.857143 306.778677 
L 333.142857 306.489494 
L 336.285714 306.328023 
L 355.142857 306.417522 
L 358.285714 306.724949 
L 367.714286 307.140297 
L 374 306.968225 
L 377.142857 307.124464 
L 380.285714 307.148852 
L 383.428571 307.019054 
L 389.714286 307.015025 
L 392.857143 306.829408 
L 396 306.807693 
L 402.285714 306.949153 
L 405.428571 306.911354 
L 408.571429 307.034258 
L 421.142857 306.730975 
L 427.428571 306.799939 
L 433.714286 306.697762 
L 436.857143 306.561206 
L 440 306.536635 
L 443.142857 306.324509 
L 449.428571 306.259501 
L 452.571429 306.439912 
L 458.857143 306.451961 
L 462 306.281191 
L 465.142857 306.33675 
L 468.285714 306.776178 
L 471.428571 306.673506 
L 474.571429 306.783167 
L 477.714286 306.69887 
L 484 306.81365 
L 487.142857 306.796894 
L 490.285714 306.891613 
L 496.571429 306.715279 
L 502.857143 306.587693 
L 515.428571 306.659928 
L 518.571429 306.845398 
L 528 306.654999 
L 531.142857 306.838839 
L 553.142857 307.042101 
L 562.571429 306.860351 
L 565.714286 307.134024 
L 587.714286 307.124105 
L 597.142857 307.199137 
L 600.285714 307.142236 
L 606.571429 307.265348 
L 612.857143 306.966937 
L 619.142857 306.991773 
L 622.285714 307.157099 
L 628.571429 307.192949 
L 644.285714 306.973479 
L 666.285714 306.798976 
L 669.428571 306.424672 
L 678.857143 306.60414 
L 685.142857 306.478863 
L 691.428571 306.423309 
L 694.571429 306.536372 
L 697.714286 306.239679 
L 704 306.156195 
L 707.142857 306.107026 
L 710.285714 306.254802 
L 716.571429 306.201671 
L 719.714286 306.315551 
L 722.857143 306.196884 
L 735.428571 306.29268 
L 738.571429 306.137753 
L 763.714286 306.268823 
L 770 306.312032 
L 773.142857 306.446123 
L 788.857143 306.545467 
L 788.857143 306.545467 
" clip-path="url(#p6a77ad697b)" style="fill: none; stroke: #000000; stroke-width: 1.5; stroke-linecap: square"/>
   </g>
   <g id="line2d_8">
    <path d="M 0 306 
L 3.142857 306 
L 6.285714 306.533098 
L 9.428571 306.214513 
L 12.571429 306.294728 
L 15.714286 306.523445 
L 18.857143 304.708992 
L 22 304.960311 
L 25.142857 304.53707 
L 28.285714 304.611084 
L 31.428571 305.109247 
L 34.571429 304.194553 
L 37.714286 303.989636 
L 40.857143 304.236666 
L 44 304.732527 
L 47.142857 304.50193 
L 53.428571 305.473957 
L 56.571429 306.072057 
L 62.857143 306.096714 
L 66 306.384838 
L 69.142857 306.158743 
L 72.285714 307.198622 
L 75.428571 307.230935 
L 78.571429 306.883413 
L 84.857143 306.636399 
L 88 306.908594 
L 94.285714 306.860624 
L 100.571429 306.424288 
L 106.857143 306.862158 
L 110 306.842779 
L 113.142857 306.645625 
L 119.428571 306.767843 
L 122.571429 307.209869 
L 128.857143 307.205925 
L 132 306.810944 
L 135.142857 306.618731 
L 138.285714 306.602823 
L 141.428571 306.73076 
L 144.571429 306.379136 
L 147.714286 306.518437 
L 154 306.53022 
L 163.428571 306.64082 
L 172.857143 306.852072 
L 176 306.577899 
L 182.285714 306.440529 
L 185.428571 306.438543 
L 188.571429 306.295854 
L 191.714286 306.305013 
L 194.857143 305.863579 
L 204.285714 305.793231 
L 207.428571 305.899486 
L 213.714286 306.305416 
L 216.857143 306.167746 
L 223.142857 306.356041 
L 229.428571 306.402496 
L 235.714286 306.445772 
L 238.857143 306.379512 
L 242 306.522619 
L 251.428571 306.230403 
L 267.142857 306.508485 
L 270.285714 306.329797 
L 273.428571 306.661955 
L 276.571429 306.508852 
L 279.714286 306.489733 
L 282.857143 306.33043 
L 286 306.52118 
L 308 306.603389 
L 311.142857 306.466149 
L 314.285714 306.655246 
L 326.857143 306.676605 
L 333.142857 306.487656 
L 336.285714 306.381037 
L 355.142857 306.436235 
L 361.428571 306.734557 
L 370.857143 306.882082 
L 374 306.80589 
L 380.285714 306.927005 
L 386.571429 306.865377 
L 405.428571 306.793009 
L 408.571429 306.871597 
L 424.285714 306.744674 
L 436.857143 306.588744 
L 440 306.5733 
L 446.285714 306.409442 
L 449.428571 306.399812 
L 452.571429 306.507658 
L 465.142857 306.440789 
L 468.285714 306.704285 
L 471.428571 306.643467 
L 474.571429 306.70974 
L 480.857143 306.718824 
L 496.571429 306.676372 
L 506 306.605067 
L 524.857143 306.73169 
L 528 306.644272 
L 534.285714 306.773703 
L 550 306.914738 
L 562.571429 306.781897 
L 565.714286 306.940044 
L 600.285714 306.968961 
L 606.571429 307.043169 
L 612.857143 306.879331 
L 619.142857 306.895344 
L 625.428571 307.014637 
L 631.714286 306.980687 
L 634.857143 306.890876 
L 644.285714 306.897695 
L 666.285714 306.8008 
L 669.428571 306.593877 
L 682 306.681602 
L 691.428571 306.58276 
L 694.571429 306.642897 
L 697.714286 306.479015 
L 707.142857 306.397107 
L 713.428571 306.443827 
L 770 306.461296 
L 776.285714 306.541197 
L 788.857143 306.580672 
L 788.857143 306.580672 
" clip-path="url(#p6a77ad697b)" style="fill: none; stroke: #000000; stroke-width: 1.5; stroke-linecap: square"/>
   </g>
   <g id="line2d_9">
    <path d="M 0 306 
L 3.142857 306 
L 6.285714 306.531662 
L 9.428571 306.21527 
L 12.571429 306.29465 
L 15.714286 306.520938 
L 18.857143 304.731078 
L 22 304.975184 
L 25.142857 304.557899 
L 28.285714 304.627983 
L 31.428571 305.112599 
L 34.571429 304.221634 
L 37.714286 304.0203 
L 40.857143 304.257145 
L 44 304.734683 
L 47.142857 304.512332 
L 53.428571 305.445178 
L 56.571429 306.018721 
L 62.857143 306.047753 
L 66 306.32359 
L 69.142857 306.112558 
L 72.285714 307.096332 
L 75.428571 307.13129 
L 78.571429 306.809137 
L 84.857143 306.58383 
L 88 306.839581 
L 94.285714 306.800176 
L 100.571429 306.400723 
L 106.857143 306.805367 
L 110 306.789389 
L 113.142857 306.610836 
L 119.428571 306.724096 
L 122.571429 307.126369 
L 128.857143 307.12745 
L 132 306.773767 
L 135.142857 306.602018 
L 138.285714 306.588184 
L 141.428571 306.702961 
L 144.571429 306.389937 
L 147.714286 306.513663 
L 154 306.524154 
L 163.428571 306.621814 
L 172.857143 306.809373 
L 176 306.571296 
L 188.571429 306.326596 
L 191.714286 306.333898 
L 194.857143 305.95384 
L 204.285714 305.888848 
L 210.571429 306.173592 
L 213.714286 306.320315 
L 216.857143 306.203533 
L 223.142857 306.361555 
L 238.857143 306.381637 
L 242 306.500635 
L 251.428571 306.258452 
L 267.142857 306.486298 
L 270.285714 306.340802 
L 273.428571 306.611136 
L 282.857143 306.343557 
L 286 306.497433 
L 308 306.567073 
L 311.142857 306.458487 
L 314.285714 306.608554 
L 326.857143 306.627964 
L 345.714286 306.362458 
L 352 306.458274 
L 355.142857 306.439658 
L 361.428571 306.670202 
L 370.857143 306.786371 
L 374 306.729206 
L 380.285714 306.823597 
L 386.571429 306.778795 
L 440 306.571267 
L 446.285714 306.450568 
L 465.142857 306.472047 
L 468.285714 306.662799 
L 477.714286 306.631954 
L 490.285714 306.718843 
L 502.857143 306.593385 
L 534.285714 306.717351 
L 553.142857 306.796614 
L 568.857143 306.837538 
L 606.571429 306.920185 
L 616 306.807362 
L 638 306.84208 
L 660 306.726479 
L 685.142857 306.646294 
L 729.142857 306.533546 
L 735.428571 306.544887 
L 741.714286 306.496012 
L 782.571429 306.59179 
L 788.857143 306.603424 
L 788.857143 306.603424 
" clip-path="url(#p6a77ad697b)" style="fill: none; stroke: #000000; stroke-width: 1.5; stroke-linecap: square"/>
   </g>
  </g>
 </g>
 <defs>
  <clipPath id="p6a77ad697b">
   <rect x="0" y="0" width="792" height="612"/>
  </clipPath>
 </defs>
</svg>
