<?xml version="1.0" encoding="utf-8" standalone="no"?>
<!DOCTYPE svg PUBLIC "-//W3C//DTD SVG 1.1//EN"
  "http://www.w3.org/Graphics/SVG/1.1/DTD/svg11.dtd">
<svg xmlns:xlink="http://www.w3.org/1999/xlink" width="792pt" height="612pt" viewBox="0 0 792 612" xmlns="http://www.w3.org/2000/svg" version="1.1">
 <metadata>
  <rdf:RDF xmlns:dc="http://purl.org/dc/elements/1.1/" xmlns:cc="http://creativecommons.org/ns#" xmlns:rdf="http://www.w3.org/1999/02/22-rdf-syntax-ns#">
   <cc:Work>
    <dc:type rdf:resource="http://purl.org/dc/dcmitype/StillImage"/>
    <dc:date>2023-01-30T17:17:15.962971</dc:date>
    <dc:format>image/svg+xml</dc:format>
    <dc:creator>
     <cc:Agent>
      <dc:title>Matplotlib v3.6.2, https://matplotlib.org/</dc:title>
     </cc:Agent>
    </dc:creator>
   </cc:Work>
  </rdf:RDF>
 </metadata>
 <defs>
  <style type="text/css">*{stroke-linejoin: round; stroke-linecap: butt}</style>
 </defs>
 <g id="figure_1">
  <g id="patch_1">
   <path d="M 0 612 
L 792 612 
L 792 0 
L 0 0 
z
" style="fill: #ffffff"/>
  </g>
  <g id="axes_1">
   <g id="line2d_1">
    <path d="M 0 306 
L 3.168 311.537324 
L 6.336 301.935164 
L 9.504 327.409705 
L 12.672 307.885228 
L 15.84 299.579302 
L 19.008 305.234118 
L 22.176 302.700936 
L 25.344 313.245084 
L 28.512 307.590667 
L 34.848 302.288592 
L 38.016 299.520414 
L 41.184 312.185141 
L 44.352 313.245084 
L 47.52 306.294571 
L 50.688 300.933848 
L 53.856 307.23719 
L 57.024 309.888123 
L 60.192 320.893498 
L 63.36 308.061963 
L 66.528 306.235656 
L 69.696 293.811227 
L 72.864 300.168207 
L 76.032 306.058914 
L 79.2 311.183948 
L 82.368 293.92887 
L 85.536 311.537324 
L 88.704 305.175204 
L 91.872 308.297608 
L 95.04 307.06045 
L 98.208 305.234118 
L 101.376 311.714006 
L 104.544 310.889457 
L 107.712 314.422593 
L 110.88 303.584571 
L 114.048 295.282014 
L 117.216 302.995476 
L 120.384 304.173684 
L 123.552 306.353485 
L 126.72 300.109315 
L 129.888 306.706968 
L 133.056 286.291088 
L 136.224 304.76281 
L 139.392 307.885228 
L 142.56 301.640649 
L 145.728 310.830557 
L 148.896 317.012185 
L 152.064 314.540331 
L 155.232 299.579302 
L 158.4 312.30292 
L 161.568 309.475784 
L 164.736 305.882172 
L 167.904 309.181248 
L 171.072 308.65107 
L 174.24 306.412399 
L 177.408 302.995476 
L 180.576 313.892743 
L 183.744 300.285994 
L 186.912 298.401639 
L 190.08 304.93955 
L 193.248 309.593597 
L 196.416 311.655113 
L 199.584 302.936568 
L 202.752 315.070119 
L 205.92 307.767404 
L 209.088 296.459004 
L 212.256 325.122143 
L 215.424 297.930635 
L 218.592 305.410859 
L 221.76 297.283068 
L 224.928 317.42403 
L 228.096 307.767404 
L 231.264 313.245084 
L 234.432 300.462676 
L 237.6 312.950672 
L 240.768 305.941086 
L 243.936 301.522846 
L 247.104 309.063432 
L 250.272 298.225008 
L 253.44 318.07113 
L 256.608 308.003052 
L 259.776 308.120875 
L 262.944 303.938037 
L 266.112 307.94414 
L 269.28 302.877659 
L 272.448 298.460517 
L 275.616 299.69708 
L 278.784 306.765882 
L 281.952 307.826316 
L 285.12 301.699552 
L 288.288 314.540331 
L 291.456 306.294571 
L 294.624 304.880636 
L 297.792 319.5414 
L 300.96 313.186203 
L 304.128 310.889457 
L 307.296 314.304853 
L 310.464 305.057377 
L 313.632 301.758454 
L 316.8 313.716115 
L 319.968 308.179786 
L 323.136 301.522846 
L 326.304 308.061963 
L 329.472 305.823258 
L 332.64 298.931562 
L 335.808 305.882172 
L 338.976 311.007254 
L 342.144 308.886707 
L 345.312 305.293032 
L 348.48 312.30292 
L 351.648 303.938037 
L 354.816 304.232596 
L 357.984 299.225982 
L 361.152 306.88371 
L 364.32 310.653858 
L 367.488 305.941086 
L 370.656 306 
L 373.824 303.054384 
L 376.992 300.639363 
L 380.16 305.469773 
L 383.328 297.106472 
L 386.496 303.996948 
L 389.664 305.705429 
L 392.832 314.304853 
L 396 306.235656 
L 399.168 307.178277 
L 402.336 298.813797 
L 405.504 308.768889 
L 408.672 326.002243 
L 411.84 302.170781 
L 415.008 311.596218 
L 418.176 302.995476 
L 421.344 311.066152 
L 424.512 307.590667 
L 427.68 306.058914 
L 430.848 311.066152 
L 434.016 300.992746 
L 437.184 304.703897 
L 440.352 302.936568 
L 443.52 304.644984 
L 446.688 306.88371 
L 449.856 308.415429 
L 453.024 303.52566 
L 456.192 310.830557 
L 459.36 315.070119 
L 462.528 305.351946 
L 465.696 306.530227 
L 468.864 299.93264 
L 472.032 315.011256 
L 475.2 308.47434 
L 478.368 310.005932 
L 481.536 308.003052 
L 484.704 306.942623 
L 487.872 309.181248 
L 491.04 311.066152 
L 494.208 304.291508 
L 497.376 305.410859 
L 500.544 301.817357 
L 503.712 305.410859 
L 506.88 319.365 
L 510.048 306.648054 
L 513.216 308.003052 
L 516.384 303.643481 
L 519.552 304.821723 
L 522.72 308.827798 
L 525.888 308.886707 
L 529.056 308.356519 
L 532.224 309.240156 
L 535.392 309.240156 
L 538.56 306.471313 
L 541.728 304.586071 
L 544.896 310.418253 
L 548.064 309.593597 
L 551.232 298.931562 
L 554.4 301.699552 
L 557.568 306.353485 
L 560.736 308.709979 
L 563.904 314.599199 
L 567.072 309.063432 
L 570.24 306.942623 
L 573.408 304.291508 
L 576.576 299.579302 
L 579.744 309.004524 
L 582.912 302.995476 
L 586.08 309.240156 
L 589.248 305.234118 
L 592.416 305.528687 
L 595.584 300.757155 
L 598.752 304.76281 
L 601.92 304.644984 
L 605.088 307.178277 
L 608.256 311.537324 
L 611.424 289.520004 
L 614.592 309.770314 
L 617.76 306.765882 
L 620.928 311.183948 
L 627.264 301.228342 
L 630.432 304.76281 
L 633.6 305.587601 
L 636.768 311.655113 
L 639.936 292.81141 
L 643.104 302.052972 
L 646.272 306.471313 
L 649.44 303.879125 
L 652.608 312.950672 
L 655.776 303.879125 
L 658.944 306.117828 
L 662.112 311.478429 
L 665.28 300.816052 
L 668.448 306.88371 
L 671.616 307.94414 
L 674.784 309.593597 
L 677.952 304.998463 
L 681.12 299.108212 
L 684.288 307.413929 
L 687.456 308.47434 
L 690.624 307.413929 
L 693.792 309.357971 
L 696.96 307.590667 
L 700.128 305.351946 
L 703.296 307.178277 
L 706.464 303.34893 
L 709.632 305.764344 
L 712.8 308.768889 
L 715.968 312.538473 
L 719.136 307.355016 
L 722.304 306.765882 
L 725.472 308.061963 
L 728.64 303.702392 
L 731.808 311.066152 
L 734.976 305.293032 
L 741.312 308.356519 
L 744.48 302.052972 
L 747.648 304.703897 
L 750.816 304.232596 
L 753.984 300.403782 
L 757.152 306.706968 
L 760.32 299.108212 
L 763.488 302.583122 
L 766.656 305.234118 
L 769.824 303.584571 
L 772.992 303.40784 
L 776.16 307.06045 
L 779.328 309.004524 
L 782.496 310.653858 
L 785.664 308.297608 
L 788.832 301.287242 
L 788.832 301.287242 
" clip-path="url(#p72658d9462)" style="fill: none; stroke: #000000; stroke-width: 1.5; stroke-linecap: square"/>
   </g>
   <g id="line2d_2">
    <path d="M 0 306 
L 3.168 306 
L 6.336 309.691773 
L 9.504 305.259367 
L 12.672 317.086712 
L 15.84 312.339014 
L 19.008 305.857858 
L 22.176 305.543532 
L 25.344 304.11662 
L 28.512 308.695656 
L 31.68 308.135429 
L 34.848 306.572968 
L 38.016 304.381378 
L 41.184 301.93424 
L 44.352 307.084709 
L 47.52 310.181026 
L 50.688 308.244935 
L 53.856 304.565047 
L 57.024 305.900424 
L 60.192 307.903942 
L 63.36 314.438984 
L 66.528 311.267789 
L 69.696 308.740242 
L 72.864 301.23481 
L 76.032 300.689482 
L 79.2 303.384045 
L 82.368 307.291945 
L 85.536 300.57654 
L 88.704 306.038583 
L 91.872 305.601232 
L 95.04 306.953482 
L 98.208 307.032957 
L 101.376 306.143473 
L 104.544 308.940071 
L 107.712 309.914226 
L 110.88 312.208928 
L 114.048 307.881532 
L 117.216 301.560496 
L 120.384 302.267571 
L 123.552 303.21494 
L 126.72 304.786375 
L 129.888 302.424884 
L 133.056 304.557654 
L 136.224 295.359779 
L 139.392 300.062201 
L 142.56 303.998103 
L 145.728 302.816672 
L 148.896 306.83681 
L 152.064 311.947037 
L 155.232 313.2721 
L 158.4 306.411937 
L 161.568 309.408792 
L 164.736 309.451529 
L 167.904 307.662979 
L 171.072 308.436914 
L 174.24 308.539718 
L 177.408 307.455284 
L 180.576 305.202697 
L 183.744 309.576503 
L 186.912 304.907436 
L 190.08 301.632334 
L 193.248 303.284014 
L 196.416 306.439661 
L 199.584 309.053499 
L 202.752 305.988217 
L 205.92 310.553842 
L 209.088 309.148676 
L 212.256 302.794957 
L 215.424 314.021573 
L 218.592 305.962341 
L 221.76 305.678398 
L 224.928 301.451702 
L 228.096 309.468623 
L 231.264 308.603711 
L 234.432 310.935421 
L 237.6 305.706816 
L 240.768 309.305301 
L 243.936 307.638952 
L 247.104 304.573133 
L 250.272 306.84143 
L 253.44 302.494878 
L 256.608 310.305992 
L 259.776 309.144287 
L 262.944 308.647604 
L 266.112 306.275164 
L 269.28 307.113588 
L 272.448 304.998232 
L 275.616 301.708098 
L 278.784 300.705419 
L 281.952 303.71325 
L 285.12 305.769426 
L 288.288 303.721798 
L 291.456 309.152834 
L 297.792 306.304505 
L 300.96 312.967529 
L 304.128 313.103306 
L 307.296 312.004543 
L 310.464 313.167499 
L 313.632 309.119568 
L 316.8 305.413863 
L 319.968 309.580199 
L 323.136 308.886476 
L 326.304 305.169197 
L 329.472 306.605544 
L 332.64 306.204467 
L 335.808 302.537383 
L 338.976 304.211341 
L 342.144 307.627632 
L 345.312 308.247707 
L 348.48 306.764727 
L 351.648 309.55525 
L 354.816 306.73862 
L 357.984 305.48248 
L 361.152 302.354427 
L 364.32 304.620957 
L 367.488 307.636873 
L 370.656 306.78321 
L 373.824 306.392992 
L 376.992 304.705514 
L 380.16 302.665823 
L 383.328 304.070183 
L 386.496 300.583469 
L 392.832 303.985166 
L 396 309.162306 
L 399.168 307.699482 
L 402.336 307.446966 
L 405.504 303.12623 
L 408.672 305.954024 
L 411.84 316.045523 
L 415.008 309.10617 
L 418.176 310.362816 
L 421.344 306.657065 
L 424.512 308.871229 
L 427.68 308.231766 
L 430.848 307.159563 
L 434.016 309.117489 
L 437.184 305.005856 
L 440.352 304.859844 
L 443.52 303.881204 
L 446.688 304.266326 
L 449.856 305.566808 
L 453.024 306.992757 
L 456.192 305.254218 
L 459.36 308.042095 
L 462.528 311.58444 
L 465.696 308.469719 
L 468.864 307.507034 
L 472.032 303.710247 
L 475.2 309.377837 
L 478.368 308.92621 
L 481.536 309.478787 
L 484.704 308.735391 
L 487.872 307.823082 
L 491.04 308.509686 
L 494.208 309.796879 
L 497.376 307.052826 
L 500.544 306.213015 
L 503.712 304.002031 
L 506.88 304.697428 
L 510.048 312.056968 
L 513.216 309.352196 
L 516.384 308.675327 
L 519.552 306.144859 
L 522.72 305.484329 
L 525.888 307.162798 
L 529.056 308.03863 
L 532.224 308.20335 
L 535.392 308.701894 
L 538.56 308.976109 
L 541.728 307.720737 
L 544.896 306.155256 
L 548.064 308.297839 
L 551.232 308.947233 
L 554.4 303.919324 
L 557.568 302.796343 
L 560.736 304.569206 
L 563.904 306.638582 
L 567.072 310.63561 
L 570.24 309.858325 
L 573.408 308.393713 
L 576.576 306.332229 
L 579.744 302.956666 
L 582.912 305.994917 
L 586.08 304.488576 
L 589.248 306.865458 
L 592.416 306.031421 
L 595.584 305.773123 
L 598.752 303.252827 
L 601.92 304.00873 
L 605.088 304.33679 
L 608.256 305.753947 
L 611.424 308.662621 
L 614.592 299.045864 
L 617.76 304.416495 
L 620.928 305.593608 
L 624.096 308.409423 
L 627.264 307.295872 
L 630.432 304.255236 
L 633.6 304.504286 
L 636.768 305.034274 
L 639.936 308.3884 
L 643.104 300.563144 
L 646.272 301.298791 
L 649.44 303.87566 
L 652.608 303.872888 
L 655.776 308.435297 
L 658.944 306.155487 
L 662.112 306.137697 
L 665.28 308.80793 
L 668.448 304.827499 
L 674.784 306.907506 
L 677.952 308.261799 
L 681.12 306.614554 
L 684.288 302.851555 
L 687.456 305.135235 
L 690.624 306.79892 
L 693.792 307.119364 
L 696.96 308.243549 
L 700.128 307.916417 
L 703.296 306.625875 
L 706.464 306.906351 
L 709.632 305.135928 
L 712.8 305.446901 
L 715.968 307.108505 
L 719.136 309.833839 
L 722.304 308.590543 
L 725.472 307.67661 
L 728.64 307.874601 
L 731.808 305.781671 
L 734.976 308.439224 
L 738.144 306.865227 
L 741.312 306.870772 
L 744.48 307.605453 
L 747.648 304.81872 
L 750.816 304.757265 
L 753.984 304.487421 
L 757.152 302.438975 
L 760.32 304.564354 
L 763.488 301.823825 
L 766.656 302.195036 
L 769.824 303.708399 
L 776.16 303.526122 
L 785.664 308.919049 
L 788.832 308.626351 
L 788.832 308.626351 
" clip-path="url(#p72658d9462)" style="fill: none; stroke: #000000; stroke-width: 1.5; stroke-linecap: square"/>
   </g>
   <g id="line2d_3">
    <path d="M 0 306 
L 3.168 306 
L 6.336 309.243922 
L 9.504 305.932415 
L 12.672 314.331442 
L 15.84 312.038506 
L 19.008 307.868156 
L 22.176 307.021873 
L 25.344 305.671891 
L 28.512 307.992976 
L 31.68 307.871342 
L 34.848 307.010893 
L 38.016 305.605757 
L 41.184 303.80324 
L 44.352 306.277795 
L 47.52 308.330156 
L 50.688 307.731622 
L 53.856 305.734658 
L 57.024 306.169802 
L 60.192 307.268062 
L 63.36 311.254287 
L 66.528 310.319567 
L 69.696 309.131158 
L 72.864 304.629123 
L 76.032 303.319496 
L 79.2 304.113573 
L 82.368 306.188694 
L 85.536 302.583459 
L 88.704 305.216688 
L 91.872 305.211034 
L 95.04 306.110616 
L 98.208 306.381712 
L 101.376 306.044371 
L 104.544 307.717529 
L 107.712 308.650829 
L 110.88 310.346927 
L 114.048 308.34653 
L 117.216 304.504098 
L 120.384 304.0585 
L 123.552 304.104146 
L 126.72 304.770057 
L 129.888 303.397967 
L 133.056 304.36198 
L 136.224 299.053521 
L 139.392 300.71763 
L 142.56 302.819834 
L 145.728 302.466802 
L 148.896 304.920831 
L 152.064 308.477177 
L 155.232 310.256695 
L 158.4 307.11628 
L 161.568 308.633175 
L 164.736 308.886741 
L 167.904 308.018934 
L 171.072 308.366481 
L 174.24 308.454978 
L 177.408 307.856802 
L 180.576 306.436256 
L 183.744 308.628914 
L 190.08 303.909089 
L 193.248 304.207517 
L 196.416 305.794232 
L 199.584 307.511968 
L 202.752 306.15567 
L 205.92 308.767964 
L 209.088 308.484317 
L 212.256 304.943118 
L 215.424 310.878309 
L 218.592 307.076628 
L 221.76 306.584407 
L 224.928 303.846393 
L 228.096 307.837353 
L 231.264 307.822347 
L 234.432 309.410156 
L 237.6 306.789624 
L 240.768 308.611155 
L 243.936 307.830283 
L 247.104 305.973529 
L 250.272 306.875591 
L 253.44 304.336008 
L 256.608 308.36416 
L 262.944 308.231705 
L 266.112 306.949774 
L 269.28 307.252524 
L 272.448 305.968219 
L 275.616 303.77021 
L 278.784 302.556706 
L 285.12 304.964787 
L 288.288 304.009785 
L 291.456 307.096563 
L 294.624 306.862072 
L 297.792 306.28558 
L 300.96 310.182497 
L 304.128 311.079554 
L 307.296 311.015623 
L 310.464 311.986408 
L 313.632 309.953742 
L 316.8 307.550957 
L 319.968 309.363675 
L 323.136 309.02302 
L 326.304 306.829763 
L 329.472 307.200279 
L 332.64 306.795879 
L 335.808 304.481901 
L 338.976 304.896831 
L 342.144 306.682599 
L 345.312 307.331162 
L 348.48 306.734685 
L 351.648 308.357476 
L 354.816 307.052448 
L 357.984 306.218883 
L 361.152 304.153085 
L 364.32 304.954953 
L 367.488 306.634443 
L 373.824 306.2962 
L 376.992 305.348428 
L 380.16 303.960517 
L 383.328 304.402155 
L 386.496 302.262643 
L 389.664 302.768424 
L 392.832 303.622526 
L 396 306.758094 
L 399.168 306.606159 
L 402.336 306.767842 
L 405.504 304.431897 
L 408.672 305.707395 
L 411.84 311.690117 
L 415.008 308.896874 
L 418.176 309.688641 
L 421.344 307.724955 
L 424.512 308.709466 
L 427.68 308.386994 
L 430.848 307.711357 
L 434.016 308.700461 
L 437.184 306.447308 
L 440.352 305.937484 
L 443.52 305.055329 
L 446.688 304.924044 
L 449.856 305.498759 
L 453.024 306.354467 
L 456.192 305.531327 
L 459.36 307.085917 
L 462.528 309.412489 
L 465.696 308.226898 
L 468.864 307.724145 
L 472.032 305.438328 
L 475.2 308.24743 
L 478.368 308.314905 
L 481.536 308.814748 
L 484.704 308.573493 
L 487.872 308.102667 
L 491.04 308.423726 
L 494.208 309.207067 
L 497.376 307.766985 
L 500.544 307.075209 
L 503.712 305.527568 
L 506.88 305.495551 
L 510.048 309.56996 
L 513.216 308.704521 
L 516.384 308.502113 
L 519.552 307.075758 
L 522.72 306.421184 
L 525.888 307.118979 
L 529.056 307.637221 
L 532.224 307.846006 
L 535.392 308.255775 
L 538.56 308.546738 
L 541.728 307.935763 
L 544.896 306.94723 
L 548.064 307.970971 
L 551.232 308.451047 
L 554.4 305.659207 
L 557.568 304.495117 
L 560.736 305.02446 
L 563.904 306.106311 
L 567.072 308.601999 
L 570.24 308.743376 
L 573.408 308.218398 
L 576.576 307.063046 
L 579.744 304.860149 
L 582.912 306.074777 
L 586.08 305.165672 
L 589.248 306.359094 
L 592.416 306.028175 
L 595.584 305.882961 
L 598.752 304.370415 
L 605.088 304.534742 
L 608.256 305.315303 
L 611.424 307.143817 
L 614.592 301.955426 
L 617.76 304.238713 
L 620.928 304.976255 
L 624.096 306.799459 
L 627.264 306.619236 
L 630.432 305.042065 
L 633.6 304.955401 
L 636.768 305.143545 
L 639.936 307.053696 
L 643.104 302.865667 
L 646.272 302.623637 
L 649.44 303.757102 
L 652.608 303.791827 
L 655.776 306.484255 
L 658.944 305.717431 
L 662.112 305.828479 
L 665.28 307.508711 
L 668.448 305.538054 
L 671.616 305.932324 
L 674.784 306.517856 
L 677.952 307.422683 
L 681.12 306.716981 
L 684.288 304.4816 
L 690.624 306.256192 
L 693.792 306.61207 
L 696.96 307.424746 
L 700.128 307.474629 
L 703.296 306.854607 
L 706.464 306.942776 
L 709.632 305.889537 
L 712.8 305.852463 
L 715.968 306.703572 
L 719.136 308.426283 
L 725.472 307.717135 
L 728.64 307.816374 
L 731.808 306.60993 
L 734.976 307.928974 
L 738.144 307.154501 
L 741.312 307.073361 
L 744.48 307.450278 
L 747.648 305.860996 
L 753.984 305.14077 
L 757.152 303.745413 
L 760.32 304.61667 
L 763.488 302.995382 
L 766.656 302.867528 
L 769.824 303.55227 
L 776.16 303.509738 
L 779.328 304.54854 
L 785.664 307.263556 
L 788.832 307.569878 
L 788.832 307.569878 
" clip-path="url(#p72658d9462)" style="fill: none; stroke: #000000; stroke-width: 1.5; stroke-linecap: square"/>
   </g>
   <g id="line2d_4">
    <path d="M 0 306 
L 3.168 306 
L 6.336 309.008181 
L 9.504 306.23224 
L 12.672 312.981 
L 15.84 311.58233 
L 19.008 308.628313 
L 22.176 307.859832 
L 25.344 306.765423 
L 28.512 308.07102 
L 31.68 307.978183 
L 34.848 307.421333 
L 38.016 306.488007 
L 41.184 305.249057 
L 47.52 307.626227 
L 50.688 307.400234 
L 53.856 306.314269 
L 57.024 306.467899 
L 60.192 307.033103 
L 63.36 309.311287 
L 66.528 309.107157 
L 69.696 308.639992 
L 72.864 306.235022 
L 76.032 305.254336 
L 79.2 305.384051 
L 82.368 306.317224 
L 85.536 304.326718 
L 88.704 305.483068 
L 91.872 305.433762 
L 95.04 305.891948 
L 98.208 306.078729 
L 101.376 305.943821 
L 104.544 306.865547 
L 107.712 307.505417 
L 110.88 308.614043 
L 114.048 307.798973 
L 117.216 305.798933 
L 120.384 305.355011 
L 123.552 305.166394 
L 126.72 305.357542 
L 129.888 304.514228 
L 133.056 304.862545 
L 136.224 301.891966 
L 139.392 302.350236 
L 142.56 303.236026 
L 145.728 302.975605 
L 148.896 304.22385 
L 152.064 306.26595 
L 155.232 307.591263 
L 158.4 306.311615 
L 161.568 307.266495 
L 164.736 307.610885 
L 167.904 307.334484 
L 171.072 307.630159 
L 174.24 307.801855 
L 177.408 307.584688 
L 180.576 306.85261 
L 183.744 307.974665 
L 190.08 305.417721 
L 193.248 305.341495 
L 196.416 306.018854 
L 199.584 306.91857 
L 202.752 306.283571 
L 205.92 307.684044 
L 209.088 307.695358 
L 212.256 305.895925 
L 215.424 308.972215 
L 218.592 307.216889 
L 221.76 306.931053 
L 224.928 305.391351 
L 228.096 307.31354 
L 231.264 307.39053 
L 234.432 308.32627 
L 237.6 307.08394 
L 240.768 308.022632 
L 243.936 307.690245 
L 247.104 306.708878 
L 250.272 307.082407 
L 253.44 305.661174 
L 256.608 307.63883 
L 262.944 307.766065 
L 266.112 307.153563 
L 269.28 307.280634 
L 272.448 306.57616 
L 275.616 305.278332 
L 278.784 304.386016 
L 285.12 305.249969 
L 288.288 304.685928 
L 291.456 306.264217 
L 294.624 306.269892 
L 297.792 306.045915 
L 300.96 308.199391 
L 304.128 308.999353 
L 307.296 309.297484 
L 310.464 310.098442 
L 313.632 309.301834 
L 316.8 308.087095 
L 319.968 308.992735 
L 323.136 308.865122 
L 326.304 307.699588 
L 329.472 307.751399 
L 332.64 307.443418 
L 335.808 306.080027 
L 338.976 306.05193 
L 342.144 306.839195 
L 345.312 307.16681 
L 348.48 306.87104 
L 351.648 307.737418 
L 354.816 307.136494 
L 357.984 306.665835 
L 361.152 305.476476 
L 364.32 305.6996 
L 367.488 306.492087 
L 373.824 306.340974 
L 376.992 305.820918 
L 380.16 304.997019 
L 383.328 305.071427 
L 386.496 303.797121 
L 389.664 303.830347 
L 392.832 304.123159 
L 396 305.748407 
L 399.168 305.826775 
L 402.336 306.034086 
L 405.504 304.876138 
L 408.672 305.494173 
L 411.84 308.768864 
L 415.008 307.717298 
L 418.176 308.340656 
L 421.344 307.48354 
L 424.512 308.0554 
L 427.68 307.985246 
L 430.848 307.677516 
L 434.016 308.219981 
L 437.184 307.071346 
L 440.352 306.693942 
L 443.52 306.091079 
L 446.688 305.858352 
L 449.856 306.022483 
L 453.024 306.400791 
L 456.192 305.943082 
L 459.36 306.724876 
L 462.528 308.062915 
L 465.696 307.630645 
L 468.864 307.452993 
L 472.032 306.252611 
L 475.2 307.652166 
L 478.368 307.78636 
L 481.536 308.145365 
L 484.704 308.124303 
L 487.872 307.942435 
L 491.04 308.142775 
L 494.208 308.611279 
L 497.376 307.917765 
L 500.544 307.518401 
L 503.712 306.607968 
L 506.88 306.421621 
L 510.048 308.488874 
L 513.216 308.183909 
L 516.384 308.158773 
L 519.552 307.435424 
L 522.72 307.020718 
L 529.056 307.55902 
L 532.224 307.68734 
L 538.56 308.14635 
L 541.728 307.880954 
L 544.896 307.357765 
L 548.064 307.848336 
L 551.232 308.127715 
L 554.4 306.658484 
L 557.568 305.868316 
L 560.736 305.942714 
L 563.904 306.379037 
L 567.072 307.693009 
L 570.24 307.912635 
L 573.408 307.762678 
L 576.576 307.20372 
L 579.744 305.984953 
L 582.912 306.464767 
L 586.08 305.909651 
L 589.248 306.440999 
L 595.584 306.128852 
L 598.752 305.27191 
L 605.088 305.105475 
L 608.256 305.436368 
L 611.424 306.402258 
L 614.592 303.703038 
L 617.76 304.669469 
L 620.928 305.004961 
L 624.096 305.992105 
L 627.264 306.019828 
L 630.432 305.252646 
L 633.6 305.172469 
L 636.768 305.236239 
L 639.936 306.259113 
L 643.104 304.109731 
L 646.272 303.780896 
L 649.44 304.206476 
L 652.608 304.150828 
L 655.776 305.559835 
L 658.944 305.293783 
L 662.112 305.424744 
L 665.28 306.389727 
L 668.448 305.494256 
L 671.616 305.713963 
L 674.784 306.069421 
L 677.952 306.633464 
L 681.12 306.376711 
L 684.288 305.213908 
L 693.792 306.250577 
L 696.96 306.747384 
L 700.128 306.885818 
L 703.296 306.642142 
L 706.464 306.729024 
L 709.632 306.18884 
L 712.8 306.117699 
L 715.968 306.551544 
L 719.136 307.505961 
L 728.64 307.477546 
L 731.808 306.87845 
L 734.976 307.548724 
L 738.144 307.189656 
L 741.312 307.138002 
L 744.48 307.34158 
L 747.648 306.500115 
L 753.984 305.898319 
L 757.152 305.016193 
L 760.32 305.286964 
L 763.488 304.299359 
L 766.656 304.02074 
L 769.824 304.216546 
L 776.16 303.998763 
L 779.328 304.484297 
L 782.496 305.205987 
L 785.664 306.080023 
L 788.832 306.433407 
L 788.832 306.433407 
" clip-path="url(#p72658d9462)" style="fill: none; stroke: #000000; stroke-width: 1.5; stroke-linecap: square"/>
   </g>
   <g id="line2d_5">
    <path d="M 0 306 
L 3.168 306 
L 6.336 308.88876 
L 9.504 306.367391 
L 12.672 312.339087 
L 15.84 311.287857 
L 19.008 308.890929 
L 22.176 308.223553 
L 25.344 307.306847 
L 28.512 308.217182 
L 31.68 308.127462 
L 34.848 307.704827 
L 38.016 307.009436 
L 41.184 306.089569 
L 47.52 307.544071 
L 50.688 307.405801 
L 53.856 306.708845 
L 57.024 306.764368 
L 60.192 307.08556 
L 63.36 308.47879 
L 66.528 308.437502 
L 69.696 308.222857 
L 72.864 306.837385 
L 76.032 306.204731 
L 79.2 306.191062 
L 82.368 306.65417 
L 85.536 305.484788 
L 88.704 306.035884 
L 91.872 305.958151 
L 95.04 306.16791 
L 98.208 306.247406 
L 101.376 306.1577 
L 104.544 306.646946 
L 107.712 307.018623 
L 110.88 307.664409 
L 114.048 307.310145 
L 117.216 306.269321 
L 120.384 305.98711 
L 123.552 305.831291 
L 126.72 305.876029 
L 129.888 305.383234 
L 133.056 305.496063 
L 136.224 303.860481 
L 139.392 303.937062 
L 142.56 304.271513 
L 145.728 304.049012 
L 148.896 304.621629 
L 152.064 305.666711 
L 155.232 306.414077 
L 158.4 305.839187 
L 161.568 306.382268 
L 164.736 306.641898 
L 167.904 306.578198 
L 174.24 306.951543 
L 177.408 306.906444 
L 180.576 306.579501 
L 183.744 307.190625 
L 190.08 305.928532 
L 193.248 305.846032 
L 196.416 306.15853 
L 199.584 306.616729 
L 202.752 306.310085 
L 205.92 307.040302 
L 209.088 307.099422 
L 212.256 306.214274 
L 215.424 307.784854 
L 218.592 306.963613 
L 221.76 306.83664 
L 224.928 306.040949 
L 228.096 306.99093 
L 231.264 307.053592 
L 234.432 307.569404 
L 237.6 306.978057 
L 240.768 307.477321 
L 243.936 307.351912 
L 247.104 306.864631 
L 250.272 307.045768 
L 253.44 306.310918 
L 256.608 307.293061 
L 262.944 307.415457 
L 266.112 307.121324 
L 269.28 307.189577 
L 272.448 306.830607 
L 275.616 306.137313 
L 278.784 305.602573 
L 285.12 305.874791 
L 288.288 305.530771 
L 291.456 306.279689 
L 294.624 306.281289 
L 297.792 306.163928 
L 300.96 307.278996 
L 304.128 307.771956 
L 307.296 308.03045 
L 310.464 308.55245 
L 313.632 308.259337 
L 316.8 307.719193 
L 319.968 308.223028 
L 323.136 308.221126 
L 326.304 307.664326 
L 329.472 307.697885 
L 332.64 307.544161 
L 335.808 306.826725 
L 338.976 306.754716 
L 342.144 307.109726 
L 345.312 307.257539 
L 348.48 307.095683 
L 351.648 307.528408 
L 357.984 306.974358 
L 361.152 306.33107 
L 364.32 306.375173 
L 367.488 306.730699 
L 373.824 306.608941 
L 376.992 306.312098 
L 380.16 305.83936 
L 383.328 305.809491 
L 386.496 305.081505 
L 389.664 304.992698 
L 392.832 305.054229 
L 396 305.825209 
L 402.336 305.966287 
L 405.504 305.371208 
L 408.672 305.651156 
L 411.84 307.34852 
L 415.008 306.920637 
L 418.176 307.304328 
L 421.344 306.948356 
L 424.512 307.29199 
L 427.68 307.320135 
L 430.848 307.211759 
L 434.016 307.532764 
L 437.184 306.985951 
L 440.352 306.797931 
L 443.52 306.474187 
L 446.688 306.321948 
L 449.856 306.370317 
L 453.024 306.539846 
L 456.192 306.291402 
L 459.36 306.665808 
L 462.528 307.365845 
L 465.696 307.1978 
L 468.864 307.143238 
L 472.032 306.542118 
L 475.2 307.249183 
L 478.368 307.354127 
L 481.536 307.577585 
L 491.04 307.694566 
L 494.208 307.97329 
L 497.376 307.667072 
L 500.544 307.479992 
L 503.712 307.00423 
L 506.88 306.869456 
L 510.048 307.90998 
L 513.216 307.802755 
L 516.384 307.820337 
L 519.552 307.474293 
L 522.72 307.251248 
L 538.56 307.848487 
L 541.728 307.734381 
L 544.896 307.470999 
L 551.232 307.873354 
L 554.4 307.126781 
L 557.568 306.675594 
L 560.736 306.649551 
L 563.904 306.82365 
L 567.072 307.47168 
L 570.24 307.603275 
L 573.408 307.54877 
L 576.576 307.277878 
L 579.744 306.637723 
L 582.912 306.836888 
L 586.08 306.517254 
L 589.248 306.747203 
L 595.584 306.531226 
L 598.752 306.047549 
L 605.088 305.832098 
L 608.256 305.946549 
L 611.424 306.411512 
L 614.592 304.996376 
L 617.76 305.39508 
L 620.928 305.507279 
L 624.096 305.981125 
L 627.264 305.995769 
L 630.432 305.597989 
L 636.768 305.531393 
L 639.936 306.043161 
L 643.104 304.940431 
L 646.272 304.700482 
L 649.44 304.848047 
L 652.608 304.766651 
L 655.776 305.447462 
L 658.944 305.317409 
L 662.112 305.382306 
L 665.28 305.887138 
L 668.448 305.464741 
L 674.784 305.781231 
L 677.952 306.095891 
L 681.12 306.003678 
L 684.288 305.427739 
L 693.792 305.962798 
L 696.96 306.244039 
L 700.128 306.356878 
L 703.296 306.273454 
L 706.464 306.350296 
L 709.632 306.100518 
L 712.8 306.068187 
L 715.968 306.293031 
L 719.136 306.812935 
L 728.64 306.952199 
L 731.808 306.680789 
L 734.976 307.045674 
L 738.144 306.898928 
L 741.312 306.896898 
L 744.48 307.018657 
L 747.648 306.605685 
L 753.984 306.260535 
L 757.152 305.774876 
L 760.32 305.853866 
L 763.488 305.29155 
L 766.656 305.064757 
L 769.824 305.075765 
L 776.16 304.821051 
L 779.328 305.007812 
L 788.832 305.994326 
L 788.832 305.994326 
" clip-path="url(#p72658d9462)" style="fill: none; stroke: #000000; stroke-width: 1.5; stroke-linecap: square"/>
   </g>
   <g id="line2d_6">
    <path d="M 0 306 
L 3.168 306 
L 6.336 308.828852 
L 9.504 306.430689 
L 12.672 312.029575 
L 15.84 311.127517 
L 19.008 308.988634 
L 22.176 308.380152 
L 25.344 307.558086 
L 28.512 308.304999 
L 31.68 308.218859 
L 34.848 307.858689 
L 38.016 307.276158 
L 41.184 306.512451 
L 47.52 307.591909 
L 50.688 307.481905 
L 53.856 306.949225 
L 57.024 306.971772 
L 60.192 307.192208 
L 63.36 308.195346 
L 66.528 308.18588 
L 69.696 308.051319 
L 72.864 307.093808 
L 76.032 306.639555 
L 79.2 306.602337 
L 82.368 306.889801 
L 85.536 306.092503 
L 88.704 306.421048 
L 91.872 306.347206 
L 98.208 306.495292 
L 101.376 306.423999 
L 110.88 307.354465 
L 114.048 307.15209 
L 117.216 306.521764 
L 123.552 306.224093 
L 126.72 306.230756 
L 129.888 305.918304 
L 133.056 305.95821 
L 136.224 304.9698 
L 139.392 304.959492 
L 142.56 305.104122 
L 145.728 304.934094 
L 148.896 305.221633 
L 152.064 305.793154 
L 155.232 306.21454 
L 158.4 305.896762 
L 161.568 306.201893 
L 164.736 306.357006 
L 167.904 306.334621 
L 174.24 306.570148 
L 177.408 306.562812 
L 180.576 306.397579 
L 183.744 306.743457 
L 190.08 306.078077 
L 193.248 306.026108 
L 199.584 306.436409 
L 202.752 306.278131 
L 205.92 306.674731 
L 209.088 306.723874 
L 212.256 306.263267 
L 215.424 307.108286 
L 218.592 306.698483 
L 221.76 306.641128 
L 224.928 306.225077 
L 228.096 306.722063 
L 231.264 306.768341 
L 234.432 307.05459 
L 237.6 306.763806 
L 240.768 307.036283 
L 243.936 306.988137 
L 247.104 306.74824 
L 250.272 306.849711 
L 253.44 306.472185 
L 256.608 306.979383 
L 262.944 307.071878 
L 266.112 306.935428 
L 269.28 306.979299 
L 272.448 306.801105 
L 278.784 306.146739 
L 285.12 306.245078 
L 288.288 306.048537 
L 291.456 306.415473 
L 297.792 306.344279 
L 300.96 306.913453 
L 310.464 307.642709 
L 313.632 307.531577 
L 316.8 307.28355 
L 319.968 307.559809 
L 323.136 307.586415 
L 326.304 307.32633 
L 332.64 307.29211 
L 335.808 306.933973 
L 338.976 306.888943 
L 345.312 307.143122 
L 348.48 307.064011 
L 351.648 307.287985 
L 357.984 307.020441 
L 361.152 306.687552 
L 364.32 306.695926 
L 367.488 306.864853 
L 373.824 306.790233 
L 383.328 306.336864 
L 386.496 305.943427 
L 392.832 305.853894 
L 396 306.213874 
L 402.336 306.255818 
L 405.504 305.939007 
L 408.672 306.059448 
L 411.84 306.908575 
L 415.008 306.70774 
L 418.176 306.912386 
L 421.344 306.745506 
L 424.512 306.930615 
L 434.016 307.096769 
L 437.184 306.836865 
L 449.856 306.518804 
L 453.024 306.598413 
L 456.192 306.467676 
L 459.36 306.65431 
L 462.528 307.012525 
L 468.864 306.921548 
L 472.032 306.623857 
L 475.2 306.981023 
L 494.208 307.444282 
L 506.88 306.93181 
L 510.048 307.460563 
L 519.552 307.287509 
L 522.72 307.184556 
L 538.56 307.526374 
L 548.064 307.492073 
L 551.232 307.582498 
L 554.4 307.213701 
L 557.568 306.977364 
L 563.904 307.025708 
L 567.072 307.347273 
L 573.408 307.399905 
L 576.576 307.267307 
L 579.744 306.939817 
L 582.912 307.027788 
L 586.08 306.856828 
L 589.248 306.957104 
L 595.584 306.828566 
L 598.752 306.570442 
L 608.256 306.446615 
L 611.424 306.661882 
L 614.592 305.93141 
L 617.76 306.096389 
L 620.928 306.121717 
L 624.096 306.338564 
L 627.264 306.331831 
L 630.432 306.116099 
L 636.768 306.036371 
L 639.936 306.27435 
L 643.104 305.701946 
L 646.272 305.54542 
L 649.44 305.584763 
L 652.608 305.51284 
L 655.776 305.828876 
L 662.112 305.760879 
L 665.28 306.003887 
L 668.448 305.782705 
L 674.784 305.919512 
L 677.952 306.076405 
L 681.12 306.031791 
L 684.288 305.738107 
L 706.464 306.196659 
L 712.8 306.060294 
L 715.968 306.174212 
L 719.136 306.445321 
L 728.64 306.561972 
L 731.808 306.441096 
L 734.976 306.637701 
L 741.312 306.594777 
L 744.48 306.669882 
L 747.648 306.472643 
L 753.984 306.305019 
L 757.152 306.052821 
L 760.32 306.081015 
L 763.488 305.78449 
L 766.656 305.649315 
L 772.992 305.543479 
L 776.16 305.452512 
L 782.496 305.669549 
L 788.832 305.98541 
L 788.832 305.98541 
" clip-path="url(#p72658d9462)" style="fill: none; stroke: #000000; stroke-width: 1.5; stroke-linecap: square"/>
   </g>
   <g id="line2d_7">
    <path d="M 0 306 
L 3.168 306 
L 6.336 308.798874 
L 9.504 306.461207 
L 12.672 311.878025 
L 15.84 311.044621 
L 19.008 309.028895 
L 22.176 308.45096 
L 25.344 307.676563 
L 28.512 308.350365 
L 31.68 308.26678 
L 34.848 307.936461 
L 38.016 307.407733 
L 41.184 306.718998 
L 47.52 307.636419 
L 50.688 307.538252 
L 53.856 307.078818 
L 57.024 307.089329 
L 60.192 307.267097 
L 63.36 308.098284 
L 69.696 307.990988 
L 72.864 307.21629 
L 76.032 306.843717 
L 79.2 306.803499 
L 82.368 307.021503 
L 85.536 306.387635 
L 88.704 306.63032 
L 91.872 306.563472 
L 98.208 306.659602 
L 101.376 306.598512 
L 110.88 307.280901 
L 114.048 307.134632 
L 117.216 306.673796 
L 123.552 306.444629 
L 126.72 306.441259 
L 129.888 306.210704 
L 133.056 306.228505 
L 136.224 305.522565 
L 145.728 305.444513 
L 148.896 305.625223 
L 155.232 306.282616 
L 158.4 306.065425 
L 164.736 306.367133 
L 171.072 306.43984 
L 177.408 306.504989 
L 180.576 306.398929 
L 183.744 306.623469 
L 193.248 306.161705 
L 199.584 306.416488 
L 202.752 306.317061 
L 205.92 306.565443 
L 209.088 306.599305 
L 212.256 306.315456 
L 215.424 306.839001 
L 218.592 306.592854 
L 221.76 306.560402 
L 224.928 306.307153 
L 228.096 306.608915 
L 231.264 306.640169 
L 234.432 306.817407 
L 237.6 306.647817 
L 240.768 306.815159 
L 243.936 306.792075 
L 247.104 306.653596 
L 250.272 306.716621 
L 253.44 306.495548 
L 256.608 306.795633 
L 269.28 306.814803 
L 275.616 306.506339 
L 278.784 306.334932 
L 297.792 306.427996 
L 300.96 306.750355 
L 310.464 307.18294 
L 316.8 307.001311 
L 319.968 307.163411 
L 323.136 307.187876 
L 326.304 307.051872 
L 332.64 307.046136 
L 335.808 306.852769 
L 338.976 306.829698 
L 345.312 306.975099 
L 348.48 306.935391 
L 351.648 307.061845 
L 364.32 306.746825 
L 367.488 306.837937 
L 376.992 306.711268 
L 380.16 306.5707 
L 383.328 306.545259 
L 386.496 306.32745 
L 392.832 306.260704 
L 396 306.445438 
L 402.336 306.457513 
L 405.504 306.282775 
L 408.672 306.33952 
L 411.84 306.788323 
L 415.008 306.683219 
L 418.176 306.794908 
L 421.344 306.708655 
L 427.68 306.825194 
L 430.848 306.807864 
L 434.016 306.904067 
L 440.352 306.724097 
L 446.688 306.593988 
L 459.36 306.666779 
L 462.528 306.85486 
L 472.032 306.661189 
L 475.2 306.847394 
L 497.376 307.051777 
L 506.88 306.867421 
L 510.048 307.143851 
L 532.224 307.132422 
L 541.728 307.207555 
L 544.896 307.149996 
L 551.232 307.273752 
L 557.568 306.972702 
L 563.904 306.997469 
L 567.072 307.16385 
L 573.408 307.199653 
L 589.248 306.978141 
L 611.424 306.802058 
L 614.592 306.425768 
L 624.096 306.606028 
L 630.432 306.480095 
L 636.768 306.424243 
L 639.936 306.537771 
L 643.104 306.2398 
L 649.44 306.155976 
L 652.608 306.106617 
L 655.776 306.254972 
L 662.112 306.201637 
L 665.28 306.31593 
L 668.448 306.196835 
L 681.12 306.292945 
L 684.288 306.137522 
L 709.632 306.268978 
L 715.968 306.31229 
L 719.136 306.446709 
L 744.48 306.566492 
L 757.152 306.254872 
L 760.32 306.264614 
L 766.656 306.034421 
L 782.496 306.000604 
L 788.832 306.148076 
L 788.832 306.148076 
" clip-path="url(#p72658d9462)" style="fill: none; stroke: #000000; stroke-width: 1.5; stroke-linecap: square"/>
   </g>
   <g id="line2d_8">
    <path d="M 0 306 
L 3.168 306 
L 6.336 308.783882 
L 9.504 306.476177 
L 12.672 311.80309 
L 15.84 311.002566 
L 19.008 309.046877 
L 22.176 308.484372 
L 25.344 307.733757 
L 28.512 308.373114 
L 31.68 308.291003 
L 34.848 307.975221 
L 38.016 307.472599 
L 41.184 306.820287 
L 47.52 307.663231 
L 50.688 307.570568 
L 53.856 307.145416 
L 57.024 307.150997 
L 60.192 307.309536 
L 63.36 308.061499 
L 69.696 307.968756 
L 72.864 307.276821 
L 76.032 306.942254 
L 79.2 306.902139 
L 82.368 307.090098 
L 85.536 306.530676 
L 88.704 306.736871 
L 91.872 306.674461 
L 98.208 306.749688 
L 101.376 306.693949 
L 110.88 307.267357 
L 114.048 307.144488 
L 117.216 306.757325 
L 123.552 306.560186 
L 126.72 306.553853 
L 129.888 306.360225 
L 133.056 306.370445 
L 136.224 305.788701 
L 145.728 305.704192 
L 148.896 305.842629 
L 155.232 306.359354 
L 158.4 306.184664 
L 164.736 306.418425 
L 171.072 306.472733 
L 177.408 306.522349 
L 180.576 306.439868 
L 183.744 306.612029 
L 193.248 306.255841 
L 209.088 306.580847 
L 212.256 306.369473 
L 215.424 306.757563 
L 218.592 306.57688 
L 221.76 306.553247 
L 224.928 306.367072 
L 228.096 306.587133 
L 250.272 306.67227 
L 253.44 306.515232 
L 256.608 306.728468 
L 269.28 306.747296 
L 275.616 306.533422 
L 278.784 306.413557 
L 297.792 306.471359 
L 304.128 306.798862 
L 313.632 306.957538 
L 316.8 306.872863 
L 323.136 307.002993 
L 329.472 306.933457 
L 348.48 306.849063 
L 351.648 306.933067 
L 367.488 306.792219 
L 376.992 306.712597 
L 389.664 306.429917 
L 392.832 306.419356 
L 396 306.533903 
L 408.672 306.461469 
L 411.84 306.740542 
L 415.008 306.675598 
L 418.176 306.745294 
L 421.344 306.692366 
L 427.68 306.765634 
L 459.36 306.669752 
L 462.528 306.783712 
L 475.2 306.781271 
L 500.544 306.894162 
L 506.88 306.809035 
L 510.048 306.973062 
L 544.896 306.998577 
L 551.232 307.074509 
L 557.568 306.904562 
L 563.904 306.920449 
L 570.24 307.042798 
L 576.576 307.007124 
L 579.744 306.914313 
L 589.248 306.920463 
L 611.424 306.819128 
L 614.592 306.606617 
L 627.264 306.695895 
L 636.768 306.594187 
L 639.936 306.655598 
L 643.104 306.487757 
L 652.608 306.403703 
L 658.944 306.451286 
L 715.968 306.467617 
L 722.304 306.548744 
L 753.984 306.49652 
L 766.656 306.300009 
L 785.664 306.315776 
L 788.832 306.338668 
L 788.832 306.338668 
" clip-path="url(#p72658d9462)" style="fill: none; stroke: #000000; stroke-width: 1.5; stroke-linecap: square"/>
   </g>
   <g id="line2d_9">
    <path d="M 0 306 
L 3.168 306 
L 6.336 308.776385 
L 9.504 306.483588 
L 12.672 311.765837 
L 15.84 310.981396 
L 19.008 309.055333 
L 22.176 308.500568 
L 25.344 307.761812 
L 28.512 308.384467 
L 31.68 308.30314 
L 34.848 307.994526 
L 38.016 307.50474 
L 41.184 306.87034 
L 47.52 307.677679 
L 50.688 307.587681 
L 53.856 307.179073 
L 57.024 307.182453 
L 60.192 307.331912 
L 63.36 308.046037 
L 69.696 307.959747 
L 72.864 307.306979 
L 76.032 306.990613 
L 79.2 306.950873 
L 82.368 307.124961 
L 85.536 306.600792 
L 88.704 306.790309 
L 91.872 306.730291 
L 98.208 306.796307 
L 101.376 306.74328 
L 110.88 307.266381 
L 114.048 307.15412 
L 117.216 306.800864 
L 123.552 306.618972 
L 126.72 306.61161 
L 129.888 306.43522 
L 133.056 306.442434 
L 136.224 305.91783 
L 145.728 305.833006 
L 148.896 305.953126 
L 155.232 306.407157 
L 158.4 306.251679 
L 164.736 306.455093 
L 171.072 306.501025 
L 177.408 306.543346 
L 180.576 306.471196 
L 183.744 306.619931 
L 193.248 306.31042 
L 209.088 306.5855 
L 212.256 306.405718 
L 215.424 306.734286 
L 218.592 306.581761 
L 221.76 306.561718 
L 224.928 306.40469 
L 228.096 306.589095 
L 250.272 306.661693 
L 253.44 306.532073 
L 256.608 306.70767 
L 269.28 306.724569 
L 288.288 306.410365 
L 291.456 306.522294 
L 297.792 306.497003 
L 304.128 306.759084 
L 313.632 306.887814 
L 316.8 306.821561 
L 323.136 306.926124 
L 329.472 306.872966 
L 383.328 306.626286 
L 389.664 306.491901 
L 399.168 306.565486 
L 408.672 306.512829 
L 411.84 306.721399 
L 421.344 306.685854 
L 434.016 306.778263 
L 446.688 306.639716 
L 478.368 306.768888 
L 497.376 306.851057 
L 513.216 306.892341 
L 551.232 306.974498 
L 560.736 306.853395 
L 582.912 306.887385 
L 605.088 306.762935 
L 627.264 306.721339 
L 636.768 306.652 
L 639.936 306.692631 
L 646.272 306.543588 
L 769.824 306.427135 
L 782.496 306.40827 
L 788.832 306.452858 
L 788.832 306.452858 
" clip-path="url(#p72658d9462)" style="fill: none; stroke: #000000; stroke-width: 1.5; stroke-linecap: square"/>
   </g>
  </g>
 </g>
 <defs>
  <clipPath id="p72658d9462">
   <rect x="0" y="0" width="792" height="612"/>
  </clipPath>
 </defs>
</svg>
