<?xml version="1.0" encoding="utf-8" standalone="no"?>
<!DOCTYPE svg PUBLIC "-//W3C//DTD SVG 1.1//EN"
  "http://www.w3.org/Graphics/SVG/1.1/DTD/svg11.dtd">
<svg xmlns:xlink="http://www.w3.org/1999/xlink" width="792pt" height="612pt" viewBox="0 0 792 612" xmlns="http://www.w3.org/2000/svg" version="1.1">
 <metadata>
  <rdf:RDF xmlns:dc="http://purl.org/dc/elements/1.1/" xmlns:cc="http://creativecommons.org/ns#" xmlns:rdf="http://www.w3.org/1999/02/22-rdf-syntax-ns#">
   <cc:Work>
    <dc:type rdf:resource="http://purl.org/dc/dcmitype/StillImage"/>
    <dc:date>2023-01-23T15:51:46.013582</dc:date>
    <dc:format>image/svg+xml</dc:format>
    <dc:creator>
     <cc:Agent>
      <dc:title>Matplotlib v3.6.2, https://matplotlib.org/</dc:title>
     </cc:Agent>
    </dc:creator>
   </cc:Work>
  </rdf:RDF>
 </metadata>
 <defs>
  <style type="text/css">*{stroke-linejoin: round; stroke-linecap: butt}</style>
 </defs>
 <g id="figure_1">
  <g id="patch_1">
   <path d="M 0 612 
L 792 612 
L 792 0 
L 0 0 
z
" style="fill: #ffffff"/>
  </g>
  <g id="axes_1">
   <g id="line2d_1">
    <path d="M 0 459 
L 3.168 462.185172 
L 6.336 466.599708 
L 9.504 466.599708 
L 12.672 466.879109 
L 15.84 469.505478 
L 19.008 467.577611 
L 22.176 477.747809 
L 25.344 478.641892 
L 28.512 475.596421 
L 31.68 475.233199 
L 34.848 473.668554 
L 38.016 477.105186 
L 41.184 477.859569 
L 44.352 477.384587 
L 47.52 475.624361 
L 50.688 472.55095 
L 53.856 475.48466 
L 57.024 478.921293 
L 60.192 479.060993 
L 63.36 476.658145 
L 66.528 477.244887 
L 69.696 479.088934 
L 72.864 486.157779 
L 76.032 487.135683 
L 79.2 487.247443 
L 82.368 481.463842 
L 85.536 478.697772 
L 88.704 478.725712 
L 91.872 481.184441 
L 95.04 475.45672 
L 98.208 478.08309 
L 101.376 477.691928 
L 104.544 478.781592 
L 107.712 479.284514 
L 110.88 478.921293 
L 114.048 481.631483 
L 117.216 483.950511 
L 120.384 487.945946 
L 123.552 486.800402 
L 126.72 481.715303 
L 129.888 480.290358 
L 133.056 479.424215 
L 136.224 479.591855 
L 139.392 476.797845 
L 142.56 477.133126 
L 145.728 467.773192 
L 148.896 467.18645 
L 152.064 468.080533 
L 155.232 466.012966 
L 158.4 468.304054 
L 161.568 473.528853 
L 164.736 477.580168 
L 167.904 474.534697 
L 171.072 477.524288 
L 174.24 479.172754 
L 177.408 479.116874 
L 180.576 480.625639 
L 183.744 481.882944 
L 186.912 482.078524 
L 190.08 480.653579 
L 193.248 484.397553 
L 196.416 481.687363 
L 199.584 478.08309 
L 202.752 477.580168 
L 205.92 479.284514 
L 209.088 481.966764 
L 212.256 480.513879 
L 215.424 484.816654 
L 218.592 485.654858 
L 221.76 481.128561 
L 224.928 490.209094 
L 228.096 486.3813 
L 231.264 486.101899 
L 234.432 481.966764 
L 237.6 487.387144 
L 240.768 488.225347 
L 243.936 491.66198 
L 247.104 489.03561 
L 250.272 492.332542 
L 253.44 492.304602 
L 256.608 490.181154 
L 259.776 491.634039 
L 262.944 487.945946 
L 266.112 493.673667 
L 272.448 495.629474 
L 275.616 494.65157 
L 278.784 495.573594 
L 281.952 494.092768 
L 285.12 490.516435 
L 288.288 487.526844 
L 291.456 487.890066 
L 294.624 488.756209 
L 297.792 486.716581 
L 300.96 490.767896 
L 304.128 490.907597 
L 307.296 490.376735 
L 310.464 496.802958 
L 313.632 500.211651 
L 316.8 502.530679 
L 319.968 506.470234 
L 323.136 506.023192 
L 326.304 504.011505 
L 329.472 507.671658 
L 332.64 508.705442 
L 335.808 506.581994 
L 338.976 507.559898 
L 342.144 507.476077 
L 345.312 504.123265 
L 348.48 504.067385 
L 351.648 506.442294 
L 354.816 507.811359 
L 357.984 507.476077 
L 361.152 510.465668 
L 364.32 509.487765 
L 367.488 508.649562 
L 370.656 505.43645 
L 373.824 505.855551 
L 376.992 508.06282 
L 383.328 508.034879 
L 386.496 506.637874 
L 389.664 504.095325 
L 392.832 503.843864 
L 396 499.624909 
L 399.168 498.674945 
L 402.336 498.535245 
L 405.504 502.474799 
L 408.672 502.58656 
L 411.84 503.145362 
L 415.008 499.736669 
L 418.176 501.049854 
L 421.344 510.549489 
L 424.512 508.733382 
L 427.68 511.387692 
L 430.848 509.962747 
L 434.016 512.365595 
L 437.184 513.119978 
L 440.352 513.147918 
L 443.52 515.550767 
L 446.688 513.175858 
L 449.856 512.561176 
L 453.024 511.108291 
L 456.192 510.465668 
L 459.36 510.88477 
L 462.528 512.030314 
L 465.696 510.85683 
L 468.864 513.147918 
L 472.032 517.450694 
L 475.2 517.143353 
L 478.368 517.394814 
L 481.536 514.516983 
L 484.704 518.791819 
L 487.872 519.965303 
L 491.04 521.86523 
L 494.208 522.815194 
L 497.376 523.262235 
L 500.544 524.771001 
L 503.712 527.17385 
L 506.88 526.363587 
L 510.048 526.084186 
L 513.216 524.100438 
L 516.384 523.821037 
L 519.552 530.16344 
L 522.72 530.470782 
L 525.888 531.420745 
L 529.056 530.303141 
L 532.224 529.744339 
L 538.56 532.454529 
L 541.728 533.572133 
L 548.064 536.645544 
L 551.232 536.869065 
L 554.4 536.198503 
L 557.568 538.29401 
L 560.736 539.998356 
L 563.904 536.645544 
L 567.072 534.605917 
L 570.24 534.773557 
L 573.408 536.058802 
L 576.576 540.138057 
L 579.744 541.590942 
L 582.912 542.037984 
L 586.08 541.227721 
L 589.248 538.18225 
L 592.416 539.607195 
L 595.584 538.18225 
L 598.752 539.718955 
L 601.92 539.355734 
L 605.088 539.132213 
L 608.256 536.645544 
L 614.592 535.41618 
L 617.76 535.974982 
L 620.928 538.601351 
L 624.096 530.778123 
L 627.264 532.566289 
L 630.432 532.929511 
L 633.6 535.38824 
L 636.768 535.47206 
L 639.936 533.208912 
L 643.104 532.622169 
L 646.272 532.426589 
L 649.44 535.108839 
L 652.608 528.850256 
L 655.776 526.978269 
L 658.944 527.20179 
L 662.112 526.195946 
L 665.28 529.492878 
L 668.448 528.487034 
L 671.616 528.542915 
L 674.784 531.141344 
L 677.952 528.682615 
L 681.12 529.101717 
L 684.288 530.02374 
L 687.456 531.728086 
L 690.624 531.253104 
L 693.792 527.984112 
L 696.96 528.654675 
L 700.128 529.828159 
L 703.296 530.498722 
L 706.464 532.091308 
L 709.632 532.84569 
L 712.8 532.538349 
L 715.968 533.097151 
L 719.136 531.839847 
L 722.304 531.728086 
L 725.472 533.041271 
L 728.64 536.142622 
L 731.808 536.785245 
L 734.976 537.148466 
L 738.144 538.12637 
L 741.312 537.036706 
L 744.48 539.439554 
L 747.648 539.104273 
L 750.816 539.523375 
L 753.984 540.640979 
L 757.152 538.768992 
L 760.32 538.15431 
L 763.488 537.316107 
L 766.656 534.661797 
L 769.824 534.997078 
L 772.992 531.728086 
L 776.16 530.10756 
L 779.328 529.744339 
L 785.664 527.36943 
L 788.832 527.872352 
L 788.832 527.872352 
" clip-path="url(#p2e4b1a46b8)" style="fill: none; stroke: #000000; stroke-width: 1.5; stroke-linecap: square"/>
   </g>
   <g id="line2d_2">
    <path d="M 0 459 
L 3.168 459 
L 6.336 461.123448 
L 9.504 464.252739 
L 12.672 465.504456 
L 15.84 466.213954 
L 19.008 467.88584 
L 22.176 467.730512 
L 25.344 472.758802 
L 28.512 475.73886 
L 31.68 475.693937 
L 34.848 475.480497 
L 38.016 474.588386 
L 41.184 475.866837 
L 44.352 476.879584 
L 47.52 477.151315 
L 50.688 476.383674 
L 53.856 474.455369 
L 57.024 474.969795 
L 60.192 476.952776 
L 63.36 478.017458 
L 66.528 477.336925 
L 69.696 477.289701 
L 72.864 478.192659 
L 76.032 482.195873 
L 79.2 484.694375 
L 82.368 485.993974 
L 85.536 483.733893 
L 88.704 481.215121 
L 91.872 479.97447 
L 95.04 480.58718 
L 98.208 478.014828 
L 101.376 478.033126 
L 104.544 477.84401 
L 110.88 478.786085 
L 114.048 478.854127 
L 117.216 480.248503 
L 120.384 482.104931 
L 123.552 485.049927 
L 126.72 485.942257 
L 129.888 483.836669 
L 133.056 482.066472 
L 136.224 480.745617 
L 139.392 480.170051 
L 142.56 478.47447 
L 145.728 477.790431 
L 148.896 472.742257 
L 152.064 469.925895 
L 155.232 468.976479 
L 158.4 467.466728 
L 161.568 467.863587 
L 164.736 470.684332 
L 167.904 474.133784 
L 171.072 474.329145 
L 177.408 477.582798 
L 180.576 478.371476 
L 186.912 480.731702 
L 190.08 481.421877 
L 193.248 481.043755 
L 196.416 482.739993 
L 199.584 482.221841 
L 202.752 480.150329 
L 205.92 478.862235 
L 209.088 479.070745 
L 212.256 480.518919 
L 215.424 480.513331 
L 218.592 482.673156 
L 221.76 484.166472 
L 224.928 482.646421 
L 228.096 486.451534 
L 231.264 486.433674 
L 234.432 486.281154 
L 237.6 484.123959 
L 240.768 485.769028 
L 243.936 487.003871 
L 247.104 489.344704 
L 250.272 489.205661 
L 253.44 490.773265 
L 256.608 491.550548 
L 259.776 490.87385 
L 262.944 491.2729 
L 266.112 489.610519 
L 269.28 491.652776 
L 272.448 493.14401 
L 275.616 494.399671 
L 278.784 494.530168 
L 281.952 495.058291 
L 285.12 494.583199 
L 288.288 492.547626 
L 291.456 490.036413 
L 294.624 488.951899 
L 297.792 488.842549 
L 300.96 487.762089 
L 304.128 489.257378 
L 307.296 490.073338 
L 310.464 490.21775 
L 316.8 496.892038 
L 319.968 499.740066 
L 323.136 503.139883 
L 326.304 504.619394 
L 329.472 504.341417 
L 332.64 506.039408 
L 335.808 507.408364 
L 338.976 507.014354 
L 342.144 507.301534 
L 345.312 507.398503 
L 348.48 505.756282 
L 351.648 504.907999 
L 354.816 505.679912 
L 357.984 506.745909 
L 361.152 507.108583 
L 364.32 508.794741 
L 367.488 509.145033 
L 370.656 508.899598 
L 373.824 507.170599 
L 376.992 506.516581 
L 380.16 507.292878 
L 383.328 507.664317 
L 386.496 507.850694 
L 389.664 507.236779 
L 392.832 505.655478 
L 396 504.740248 
L 399.168 502.171183 
L 402.336 500.408985 
L 405.504 499.453433 
L 408.672 500.953214 
L 411.84 501.759204 
L 415.008 502.445435 
L 418.176 501.082505 
L 421.344 501.060701 
L 424.512 505.826516 
L 427.68 507.299671 
L 430.848 509.368882 
L 434.016 509.680497 
L 437.184 511.042221 
L 440.352 512.100657 
L 443.52 512.650584 
L 446.688 514.129109 
L 453.024 513.11691 
L 456.192 512.112053 
L 459.36 511.289847 
L 462.528 511.084405 
L 465.696 511.555223 
L 468.864 511.201534 
L 472.032 512.170015 
L 475.2 514.818736 
L 478.368 515.990029 
L 481.536 516.704748 
L 484.704 515.618809 
L 487.872 517.220818 
L 491.04 518.608619 
L 494.208 520.25851 
L 497.376 521.555807 
L 500.544 522.420416 
L 503.712 523.610665 
L 506.88 525.411432 
L 510.048 525.910738 
L 513.216 526.01176 
L 516.384 525.064207 
L 519.552 524.446457 
L 522.72 527.319357 
L 525.888 528.909204 
L 529.056 530.178013 
L 532.224 530.246713 
L 535.392 530.002155 
L 538.56 530.553616 
L 544.896 532.565413 
L 548.064 533.846822 
L 551.232 535.258291 
L 554.4 536.074361 
L 557.568 536.147991 
L 560.736 537.237765 
L 563.904 538.635537 
L 567.072 537.648758 
L 570.24 536.129364 
L 573.408 535.450804 
L 576.576 535.753652 
L 579.744 537.952264 
L 582.912 539.782177 
L 586.08 540.917421 
L 589.248 541.074982 
L 592.416 539.631629 
L 595.584 539.629218 
L 598.752 538.912418 
L 601.92 539.322863 
L 605.088 539.337765 
L 608.256 539.230168 
L 611.424 537.927283 
L 614.592 536.982907 
L 617.76 536.19412 
L 620.928 536.077429 
L 624.096 537.340212 
L 627.264 534.041636 
L 630.432 533.29065 
L 633.6 533.097918 
L 636.768 534.240614 
L 639.936 534.855186 
L 643.104 534.027721 
L 646.272 533.318371 
L 649.44 532.860373 
L 652.608 533.993097 
L 655.776 531.41439 
L 658.944 529.18466 
L 665.28 527.168371 
L 668.448 528.323338 
L 674.784 528.462381 
L 677.952 529.794083 
L 681.12 529.23802 
L 684.288 529.174032 
L 687.456 529.604419 
L 690.624 530.6771 
L 693.792 530.968554 
L 696.96 529.475347 
L 700.128 529.06523 
L 703.296 529.44412 
L 706.464 529.974982 
L 709.632 531.039007 
L 712.8 531.947882 
L 715.968 532.244704 
L 719.136 532.674543 
L 722.304 532.264755 
L 725.472 532.002447 
L 728.64 532.528159 
L 731.808 534.346457 
L 734.976 535.575055 
L 741.312 537.25924 
L 744.48 537.155698 
L 747.648 538.312527 
L 753.984 539.135829 
L 757.152 539.897224 
L 763.488 538.747626 
L 766.656 538.030278 
L 769.824 536.341381 
L 772.992 535.660519 
L 776.16 533.679839 
L 779.328 531.875237 
L 788.832 528.500402 
L 788.832 528.500402 
" clip-path="url(#p2e4b1a46b8)" style="fill: none; stroke: #000000; stroke-width: 1.5; stroke-linecap: square"/>
   </g>
   <g id="line2d_3">
    <path d="M 0 459 
L 3.168 459 
L 6.336 460.86583 
L 9.504 463.463746 
L 12.672 464.688415 
L 15.84 465.467838 
L 19.008 466.819378 
L 22.176 467.062992 
L 25.344 470.401137 
L 28.512 472.9264 
L 31.68 473.733658 
L 34.848 474.182788 
L 38.016 474.029781 
L 44.352 475.802285 
L 47.52 476.268305 
L 50.688 476.078959 
L 53.856 475.061193 
L 57.024 475.2005 
L 60.192 476.304447 
L 63.36 477.126134 
L 66.528 477.000295 
L 69.696 477.080824 
L 72.864 477.682208 
L 76.032 480.174305 
L 79.2 482.223001 
L 82.368 483.708009 
L 85.536 483.057864 
L 88.704 481.786599 
L 91.872 480.891948 
L 95.04 480.981436 
L 98.208 479.36107 
L 104.544 478.615413 
L 107.712 478.667873 
L 110.88 478.8489 
L 114.048 478.869943 
L 117.216 479.684492 
L 120.384 480.941682 
L 123.552 483.003357 
L 126.72 484.116223 
L 129.888 483.406784 
L 136.224 481.586891 
L 139.392 481.003585 
L 142.56 479.769538 
L 145.728 478.992698 
L 148.896 475.697755 
L 152.064 473.192336 
L 155.232 471.684084 
L 158.4 470.008386 
L 161.568 469.496586 
L 164.736 470.671416 
L 167.904 472.690289 
L 171.072 473.219689 
L 174.24 474.468506 
L 177.408 475.837587 
L 180.576 476.795084 
L 186.912 479.081714 
L 190.08 479.962315 
L 193.248 480.169211 
L 196.416 481.416007 
L 199.584 481.511467 
L 202.752 480.519835 
L 205.92 479.669738 
L 209.088 479.572152 
L 212.256 480.289211 
L 215.424 480.363037 
L 218.592 481.675783 
L 221.76 482.854 
L 224.928 482.35277 
L 228.096 484.666511 
L 231.264 485.177105 
L 234.432 485.454261 
L 237.6 484.432893 
L 243.936 486.168531 
L 247.104 487.785869 
L 250.272 488.16035 
L 253.44 489.398723 
L 256.608 490.266748 
L 259.776 490.254194 
L 262.944 490.669445 
L 266.112 489.880287 
L 275.616 493.131118 
L 278.784 493.581551 
L 281.952 494.175565 
L 285.12 494.160493 
L 288.288 493.102993 
L 291.456 491.469937 
L 294.624 490.421032 
L 297.792 489.930079 
L 300.96 488.986204 
L 307.296 489.915092 
L 310.464 490.050529 
L 313.632 492.034207 
L 319.968 496.822292 
L 323.136 499.661715 
L 326.304 501.536887 
L 329.472 502.272437 
L 332.64 503.867728 
L 335.808 505.301446 
L 338.976 505.694963 
L 342.144 506.264199 
L 345.312 506.641647 
L 348.48 505.92168 
L 351.648 505.398499 
L 354.816 505.722223 
L 357.984 506.353532 
L 361.152 506.701959 
L 364.32 507.820017 
L 367.488 508.319143 
L 370.656 508.422949 
L 373.824 507.547036 
L 376.992 507.051419 
L 383.328 507.552644 
L 386.496 507.693117 
L 389.664 507.384108 
L 392.832 506.416866 
L 396 505.659079 
L 399.168 503.886545 
L 402.336 502.353909 
L 405.504 501.226366 
L 415.008 502.237517 
L 418.176 501.493835 
L 421.344 501.355067 
L 424.512 504.053924 
L 427.68 505.427811 
L 430.848 507.177238 
L 434.016 507.995309 
L 437.184 509.280311 
L 440.352 510.412369 
L 443.52 511.22399 
L 446.688 512.50472 
L 449.856 512.716857 
L 453.024 512.687209 
L 459.36 511.72892 
L 462.528 511.491205 
L 465.696 511.659312 
L 468.864 511.437043 
L 472.032 511.952043 
L 475.2 513.570487 
L 478.368 514.626615 
L 481.536 515.444301 
L 484.704 515.177927 
L 491.04 517.34166 
L 497.376 519.897107 
L 500.544 520.894316 
L 503.712 522.043795 
L 506.88 523.564806 
L 510.048 524.40281 
L 513.216 524.912732 
L 519.552 524.449444 
L 522.72 526.142579 
L 529.056 528.611892 
L 532.224 529.122074 
L 535.392 529.321821 
L 538.56 529.852501 
L 544.896 531.504444 
L 548.064 532.574267 
L 551.232 533.782088 
L 554.4 534.700139 
L 557.568 535.149365 
L 560.736 536.084114 
L 563.904 537.246551 
L 567.072 537.084929 
L 570.24 536.371231 
L 573.408 535.908578 
L 576.576 535.958996 
L 586.08 539.546209 
L 589.248 540.050362 
L 592.416 539.509783 
L 595.584 539.545246 
L 598.752 539.149564 
L 601.92 539.319865 
L 608.256 539.277721 
L 614.592 537.783916 
L 617.76 537.08901 
L 620.928 536.764291 
L 624.096 537.30675 
L 627.264 535.388494 
L 630.432 534.553193 
L 633.6 534.067679 
L 639.936 534.740498 
L 649.44 533.384613 
L 652.608 533.884332 
L 658.944 530.796509 
L 665.28 528.685546 
L 668.448 528.915205 
L 674.784 528.699852 
L 677.952 529.415365 
L 681.12 529.196287 
L 684.288 529.164191 
L 687.456 529.409786 
L 690.624 530.0845 
L 693.792 530.42453 
L 696.96 529.704421 
L 700.128 529.392625 
L 703.296 529.514125 
L 706.464 529.8044 
L 712.8 531.179443 
L 719.136 532.031856 
L 725.472 531.909499 
L 728.64 532.24317 
L 731.808 533.393862 
L 734.976 534.396 
L 741.312 536.07179 
L 744.48 536.36105 
L 747.648 537.275881 
L 757.152 539.020253 
L 760.32 538.954331 
L 763.488 538.726107 
L 766.656 538.318615 
L 769.824 537.249355 
L 772.992 536.593305 
L 779.328 533.682685 
L 788.832 530.182354 
L 788.832 530.182354 
" clip-path="url(#p2e4b1a46b8)" style="fill: none; stroke: #000000; stroke-width: 1.5; stroke-linecap: square"/>
   </g>
   <g id="line2d_4">
    <path d="M 0 459 
L 3.168 459 
L 6.336 460.730229 
L 9.504 463.033789 
L 12.672 464.16849 
L 15.84 464.912633 
L 19.008 466.043025 
L 22.176 466.390483 
L 25.344 468.799805 
L 28.512 470.782533 
L 31.68 471.712909 
L 34.848 472.370795 
L 38.016 472.60677 
L 44.352 474.183736 
L 47.52 474.733894 
L 50.688 474.885015 
L 53.856 474.493057 
L 57.024 474.65812 
L 63.36 475.969997 
L 69.696 476.271568 
L 72.864 476.728307 
L 79.2 479.684566 
L 82.368 480.90129 
L 85.536 480.991633 
L 91.872 480.319809 
L 95.04 480.458139 
L 98.208 479.658682 
L 104.544 479.145802 
L 114.048 479.109331 
L 117.216 479.519819 
L 120.384 480.233771 
L 123.552 481.473514 
L 126.72 482.326689 
L 129.888 482.231333 
L 139.392 481.225419 
L 142.56 480.520784 
L 145.728 479.981343 
L 148.896 478.032985 
L 152.064 476.301998 
L 155.232 474.991144 
L 158.4 473.556774 
L 161.568 472.714423 
L 164.736 472.84055 
L 167.904 473.595215 
L 171.072 473.742999 
L 174.24 474.34364 
L 177.408 475.107611 
L 180.576 475.740496 
L 190.08 478.119697 
L 193.248 478.524049 
L 196.416 479.46055 
L 199.584 479.818731 
L 205.92 479.230287 
L 209.088 479.239229 
L 212.256 479.674863 
L 215.424 479.809347 
L 221.76 481.412049 
L 224.928 481.362692 
L 228.096 482.772313 
L 231.264 483.349427 
L 234.432 483.790981 
L 237.6 483.502328 
L 243.936 484.784745 
L 247.104 485.888003 
L 250.272 486.402065 
L 253.44 487.361315 
L 256.608 488.162924 
L 259.776 488.499111 
L 262.944 489.012446 
L 266.112 488.851757 
L 275.616 491.27375 
L 281.952 492.428177 
L 285.12 492.701422 
L 288.288 492.35917 
L 291.456 491.593729 
L 294.624 491.008978 
L 297.792 490.653274 
L 300.96 490.03007 
L 310.464 490.305147 
L 313.632 491.348229 
L 316.8 492.770721 
L 319.968 494.334618 
L 323.136 496.278425 
L 326.304 497.844385 
L 329.472 498.834208 
L 335.808 501.612389 
L 345.312 503.93359 
L 351.648 503.996171 
L 354.816 504.394161 
L 357.984 504.947525 
L 361.152 505.360617 
L 364.32 506.184599 
L 367.488 506.723585 
L 370.656 507.039359 
L 376.992 506.648612 
L 383.328 507.07319 
L 386.496 507.234897 
L 389.664 507.149967 
L 396 506.233922 
L 402.336 504.160208 
L 405.504 503.270102 
L 411.84 503.068632 
L 415.008 503.084797 
L 418.176 502.551802 
L 421.344 502.311912 
L 424.512 503.625086 
L 427.68 504.439525 
L 430.848 505.549605 
L 434.016 506.253181 
L 440.352 508.169491 
L 443.52 508.965063 
L 446.688 510.01791 
L 449.856 510.525999 
L 453.024 510.855103 
L 459.36 510.83112 
L 462.528 510.841783 
L 465.696 511.031859 
L 468.864 511.004865 
L 472.032 511.348639 
L 475.2 512.326994 
L 481.536 513.789426 
L 484.704 513.909228 
L 491.04 515.53997 
L 510.048 521.650291 
L 513.216 522.3704 
L 519.552 522.858685 
L 522.72 524.039062 
L 529.056 526.098619 
L 532.224 526.779376 
L 535.392 527.263455 
L 538.56 527.88323 
L 544.896 529.422835 
L 554.4 532.249683 
L 557.568 532.893609 
L 560.736 533.770195 
L 563.904 534.779283 
L 567.072 535.09157 
L 573.408 535.001951 
L 576.576 535.18171 
L 582.912 536.891711 
L 586.08 537.727673 
L 589.248 538.298542 
L 592.416 538.291405 
L 595.584 538.511822 
L 598.752 538.468974 
L 605.088 538.79503 
L 608.256 538.856138 
L 614.592 538.126935 
L 617.76 537.702705 
L 620.928 537.435401 
L 624.096 537.626173 
L 627.264 536.536815 
L 630.432 535.905805 
L 633.6 535.433905 
L 639.936 535.439564 
L 649.44 534.330456 
L 652.608 534.45334 
L 655.776 533.556866 
L 658.944 532.504435 
L 665.28 530.776861 
L 668.448 530.568112 
L 674.784 529.960371 
L 677.952 530.1452 
L 684.288 529.769697 
L 687.456 529.80262 
L 690.624 530.103041 
L 693.792 530.281697 
L 696.96 529.908891 
L 700.128 529.703396 
L 706.464 529.835912 
L 719.136 531.26074 
L 725.472 531.406117 
L 728.64 531.667688 
L 741.312 534.433253 
L 744.48 534.84986 
L 747.648 535.58435 
L 757.152 537.3245 
L 760.32 537.561681 
L 763.488 537.662804 
L 766.656 537.614581 
L 769.824 537.148008 
L 772.992 536.809849 
L 776.16 536.00331 
L 782.496 534.218815 
L 788.832 532.375233 
L 788.832 532.375233 
" clip-path="url(#p2e4b1a46b8)" style="fill: none; stroke: #000000; stroke-width: 1.5; stroke-linecap: square"/>
   </g>
   <g id="line2d_5">
    <path d="M 0 459 
L 3.168 459 
L 6.336 460.661536 
L 9.504 462.814686 
L 12.672 463.887232 
L 15.84 464.593511 
L 19.008 465.599128 
L 22.176 465.960222 
L 25.344 467.916866 
L 28.512 469.560702 
L 31.68 470.42506 
L 34.848 471.074515 
L 38.016 471.407559 
L 44.352 472.786705 
L 47.52 473.31134 
L 50.688 473.567302 
L 53.856 473.457859 
L 57.024 473.670851 
L 63.36 474.699684 
L 69.696 475.122889 
L 72.864 475.504006 
L 79.2 477.51018 
L 82.368 478.413258 
L 85.536 478.693452 
L 91.872 478.696723 
L 95.04 478.919772 
L 98.208 478.61133 
L 107.712 478.513479 
L 114.048 478.610286 
L 117.216 478.871624 
L 120.384 479.309421 
L 123.552 480.051506 
L 126.72 480.629706 
L 129.888 480.722464 
L 136.224 480.578356 
L 139.392 480.49463 
L 145.728 479.923676 
L 152.064 477.910335 
L 161.568 475.492408 
L 164.736 475.32762 
L 167.904 475.516486 
L 171.072 475.434237 
L 174.24 475.609194 
L 183.744 476.547367 
L 190.08 477.417315 
L 193.248 477.687279 
L 196.416 478.246804 
L 199.584 478.533578 
L 209.088 478.502889 
L 212.256 478.795378 
L 215.424 478.942535 
L 221.76 479.957306 
L 224.928 480.058926 
L 228.096 480.905405 
L 234.432 481.759179 
L 237.6 481.7786 
L 243.936 482.74822 
L 247.104 483.492519 
L 250.272 483.956365 
L 256.608 485.298142 
L 262.944 486.204154 
L 266.112 486.351608 
L 281.952 489.373391 
L 285.12 489.767308 
L 288.288 489.832429 
L 294.624 489.501366 
L 297.792 489.441986 
L 300.96 489.219453 
L 310.464 489.563241 
L 313.632 490.16981 
L 316.8 491.010171 
L 319.968 491.973129 
L 323.136 493.18366 
L 326.304 494.255173 
L 329.472 495.070511 
L 335.808 497.178194 
L 345.312 499.505069 
L 354.816 500.781362 
L 370.656 503.665848 
L 376.992 504.000785 
L 386.496 504.951576 
L 389.664 505.099589 
L 396 504.933056 
L 405.504 503.571207 
L 415.008 503.405066 
L 418.176 503.106861 
L 421.344 502.941421 
L 424.512 503.580962 
L 427.68 504.017577 
L 430.848 504.63616 
L 434.016 505.08592 
L 449.856 508.093924 
L 453.024 508.472345 
L 459.36 508.849913 
L 468.864 509.419757 
L 472.032 509.735518 
L 478.368 510.951337 
L 481.536 511.493522 
L 484.704 511.750623 
L 491.04 512.985253 
L 503.712 516.040788 
L 506.88 516.976637 
L 513.216 518.469149 
L 519.552 519.35775 
L 529.056 521.981848 
L 535.392 523.274449 
L 541.728 524.645936 
L 548.064 526.210424 
L 554.4 527.909623 
L 557.568 528.607251 
L 563.904 530.309586 
L 567.072 530.843966 
L 576.576 531.863037 
L 589.248 534.661902 
L 608.256 536.507843 
L 614.592 536.502147 
L 620.928 536.397171 
L 624.096 536.592331 
L 627.264 536.116359 
L 633.6 535.595801 
L 639.936 535.584843 
L 649.44 534.948223 
L 652.608 534.968692 
L 655.776 534.466188 
L 665.28 532.718648 
L 674.784 531.839943 
L 677.952 531.786418 
L 684.288 531.33463 
L 687.456 531.230878 
L 693.792 531.278099 
L 700.128 530.813395 
L 706.464 530.716118 
L 715.968 531.13079 
L 719.136 531.296918 
L 728.64 531.515897 
L 744.48 533.487405 
L 750.816 534.409638 
L 760.32 535.605342 
L 766.656 535.94041 
L 772.992 535.76434 
L 779.328 534.984814 
L 785.664 534.04863 
L 788.832 533.489509 
L 788.832 533.489509 
" clip-path="url(#p2e4b1a46b8)" style="fill: none; stroke: #000000; stroke-width: 1.5; stroke-linecap: square"/>
   </g>
   <g id="line2d_6">
    <path d="M 0 459 
L 3.168 459 
L 6.336 460.627077 
L 9.504 462.704798 
L 12.672 463.742684 
L 15.84 464.425461 
L 19.008 465.366401 
L 22.176 465.724783 
L 25.344 467.465133 
L 28.512 468.932766 
L 31.68 469.73633 
L 34.848 470.35112 
L 38.016 470.69806 
L 44.352 471.937761 
L 47.52 472.421011 
L 50.688 472.692634 
L 53.856 472.681109 
L 57.024 472.900614 
L 63.36 473.773038 
L 69.696 474.203226 
L 72.864 474.531603 
L 82.368 476.755412 
L 85.536 477.044914 
L 91.872 477.23835 
L 95.04 477.468357 
L 98.208 477.352938 
L 114.048 477.655692 
L 120.384 478.186269 
L 126.72 479.111226 
L 133.056 479.297067 
L 139.392 479.31781 
L 145.728 479.092113 
L 158.4 476.962119 
L 161.568 476.549785 
L 164.736 476.406664 
L 167.904 476.461985 
L 171.072 476.371558 
L 177.408 476.553172 
L 183.744 476.854325 
L 199.584 477.959061 
L 209.088 478.00747 
L 218.592 478.580693 
L 221.76 478.895801 
L 224.928 478.995043 
L 228.096 479.492465 
L 234.432 480.076014 
L 237.6 480.159412 
L 243.936 480.818268 
L 247.104 481.294226 
L 250.272 481.633507 
L 256.608 482.547655 
L 269.28 483.91027 
L 281.952 485.733907 
L 285.12 486.095625 
L 288.288 486.286762 
L 300.96 486.517508 
L 310.464 487.031979 
L 313.632 487.451999 
L 319.968 488.624065 
L 326.304 490.103339 
L 329.472 490.699587 
L 338.976 492.784036 
L 345.312 494.017796 
L 354.816 495.355893 
L 370.656 497.992552 
L 380.16 499.033886 
L 389.664 500.076703 
L 396 500.401014 
L 408.672 500.323741 
L 415.008 500.547746 
L 421.344 500.547062 
L 430.848 501.746304 
L 437.184 502.541209 
L 453.024 504.703991 
L 465.696 505.750072 
L 472.032 506.282176 
L 481.536 507.645862 
L 484.704 507.941728 
L 491.04 508.903417 
L 503.712 511.210456 
L 510.048 512.516908 
L 516.384 513.573816 
L 519.552 514.015729 
L 532.224 516.682138 
L 541.728 518.467658 
L 551.232 520.5286 
L 563.904 523.336969 
L 570.24 524.376089 
L 576.576 525.312862 
L 589.248 527.890174 
L 608.256 530.496183 
L 617.76 531.196619 
L 624.096 531.722326 
L 630.432 531.735509 
L 636.768 531.953798 
L 643.104 532.16623 
L 655.776 532.199088 
L 665.28 531.555539 
L 687.456 531.021004 
L 693.792 531.072316 
L 700.128 530.857656 
L 706.464 530.81446 
L 728.64 531.279353 
L 744.48 532.43121 
L 760.32 533.832913 
L 766.656 534.165826 
L 772.992 534.229298 
L 779.328 533.960779 
L 785.664 533.569482 
L 788.832 533.309835 
L 788.832 533.309835 
" clip-path="url(#p2e4b1a46b8)" style="fill: none; stroke: #000000; stroke-width: 1.5; stroke-linecap: square"/>
   </g>
   <g id="line2d_7">
    <path d="M 0 459 
L 3.168 459 
L 6.336 460.609834 
L 9.504 462.64986 
L 12.672 463.669633 
L 15.84 464.339633 
L 19.008 465.247895 
L 22.176 465.602724 
L 25.344 467.238414 
L 28.512 468.617986 
L 31.68 469.38579 
L 34.848 469.976791 
L 38.016 470.322395 
L 44.352 471.483512 
L 47.52 471.939328 
L 50.688 472.208924 
L 53.856 472.232715 
L 57.024 472.448536 
L 63.36 473.237594 
L 72.864 473.95017 
L 82.368 475.835679 
L 85.536 476.108033 
L 98.208 476.513316 
L 114.048 476.902537 
L 120.384 477.348547 
L 126.72 478.081438 
L 133.056 478.288226 
L 142.56 478.318271 
L 145.728 478.278012 
L 161.568 476.619126 
L 164.736 476.52114 
L 183.744 476.798315 
L 199.584 477.535902 
L 209.088 477.601147 
L 218.592 477.994708 
L 221.76 478.205019 
L 224.928 478.284805 
L 228.096 478.608331 
L 234.432 479.013447 
L 237.6 479.092255 
L 243.936 479.547835 
L 256.608 480.732057 
L 272.448 482.059809 
L 281.952 483.033495 
L 288.288 483.48922 
L 304.128 484.059988 
L 310.464 484.376859 
L 316.8 485.054388 
L 323.136 485.981508 
L 342.144 488.787818 
L 348.48 489.581559 
L 354.816 490.311081 
L 373.824 492.675197 
L 396 494.731774 
L 411.84 495.352999 
L 418.176 495.625973 
L 421.344 495.749101 
L 456.192 499.362001 
L 472.032 500.659392 
L 481.536 501.748676 
L 487.872 502.404967 
L 497.376 503.652299 
L 506.88 505.045059 
L 516.384 506.37081 
L 519.552 506.755763 
L 535.392 509.248475 
L 548.064 511.275093 
L 567.072 514.534119 
L 579.744 516.38764 
L 589.248 518.003681 
L 608.256 520.608111 
L 624.096 522.2684 
L 633.6 522.895636 
L 643.104 523.64592 
L 655.776 524.366351 
L 674.784 524.794365 
L 684.288 525.101283 
L 722.304 526.484746 
L 728.64 526.736915 
L 747.648 528.054085 
L 766.656 529.381814 
L 776.16 529.659554 
L 788.832 529.598698 
L 788.832 529.598698 
" clip-path="url(#p2e4b1a46b8)" style="fill: none; stroke: #000000; stroke-width: 1.5; stroke-linecap: square"/>
   </g>
   <g id="line2d_8">
    <path d="M 0 459 
L 3.168 459 
L 6.336 460.60121 
L 9.504 462.622403 
L 12.672 463.632941 
L 15.84 464.296313 
L 19.008 465.188183 
L 22.176 465.54072 
L 25.344 467.12507 
L 28.512 468.460849 
L 31.68 469.209682 
L 34.848 469.787406 
L 38.016 470.130447 
L 44.352 471.250498 
L 47.52 471.691163 
L 50.688 471.957458 
L 53.856 471.995475 
L 57.024 472.207676 
L 63.36 472.95407 
L 72.864 473.638216 
L 82.368 475.359352 
L 85.536 475.618704 
L 98.208 476.047964 
L 114.048 476.458006 
L 120.384 476.860628 
L 126.72 477.501153 
L 133.056 477.706232 
L 142.56 477.779898 
L 145.728 477.762142 
L 161.568 476.48399 
L 167.904 476.438925 
L 174.24 476.419763 
L 186.912 476.760323 
L 199.584 477.227311 
L 212.256 477.393243 
L 218.592 477.608341 
L 234.432 478.401911 
L 240.768 478.64218 
L 250.272 479.253884 
L 262.944 480.137113 
L 269.28 480.517735 
L 285.12 481.736182 
L 294.624 482.083628 
L 310.464 482.683062 
L 316.8 483.196005 
L 329.472 484.54912 
L 345.312 486.302427 
L 361.152 487.767238 
L 370.656 488.735632 
L 396 490.693515 
L 421.344 491.786958 
L 459.36 494.876868 
L 475.2 496.060306 
L 497.376 498.107206 
L 522.72 500.861973 
L 560.736 505.541848 
L 567.072 506.362096 
L 579.744 507.84004 
L 592.416 509.44716 
L 608.256 511.239525 
L 624.096 512.752755 
L 636.768 513.717838 
L 646.272 514.437478 
L 658.944 515.213167 
L 687.456 516.60685 
L 700.128 517.226511 
L 719.136 518.231791 
L 734.976 519.132744 
L 772.992 521.592925 
L 785.664 521.97686 
L 788.832 522.039149 
L 788.832 522.039149 
" clip-path="url(#p2e4b1a46b8)" style="fill: none; stroke: #000000; stroke-width: 1.5; stroke-linecap: square"/>
   </g>
   <g id="line2d_9">
    <path d="M 0 459 
L 3.168 459 
L 6.336 460.596898 
L 9.504 462.60868 
L 12.672 463.614556 
L 15.84 464.274557 
L 19.008 465.158222 
L 22.176 465.50949 
L 25.344 467.06843 
L 28.512 468.382401 
L 31.68 469.121509 
L 34.848 469.692282 
L 38.016 470.033596 
L 44.352 471.132743 
L 47.52 471.565516 
L 50.688 471.829627 
L 53.856 471.87392 
L 57.024 472.083883 
L 63.36 472.808776 
L 72.864 473.477484 
L 82.368 475.118142 
L 85.536 475.370085 
L 98.208 475.805631 
L 114.048 476.220432 
L 120.384 476.601169 
L 126.72 477.196889 
L 133.056 477.398319 
L 142.56 477.487851 
L 145.728 477.479163 
L 161.568 476.371353 
L 167.904 476.336322 
L 174.24 476.323659 
L 186.912 476.627852 
L 202.752 477.060575 
L 212.256 477.196031 
L 218.592 477.385193 
L 253.44 479.018805 
L 262.944 479.568664 
L 269.28 479.897134 
L 288.288 481.069908 
L 310.464 481.786625 
L 319.968 482.477903 
L 342.144 484.514706 
L 351.648 485.253088 
L 386.496 487.949205 
L 396 488.503097 
L 421.344 489.513577 
L 462.528 492.283398 
L 478.368 493.328883 
L 500.544 495.043364 
L 538.56 498.48909 
L 557.568 500.396783 
L 573.408 501.955443 
L 582.912 502.908755 
L 595.584 504.161747 
L 617.76 506.078861 
L 633.6 507.212823 
L 652.608 508.48824 
L 693.792 510.503336 
L 712.8 511.403427 
L 744.48 513.11519 
L 769.824 514.582142 
L 782.496 515.077528 
L 788.832 515.265295 
L 788.832 515.265295 
" clip-path="url(#p2e4b1a46b8)" style="fill: none; stroke: #000000; stroke-width: 1.5; stroke-linecap: square"/>
   </g>
  </g>
 </g>
 <defs>
  <clipPath id="p2e4b1a46b8">
   <rect x="0" y="0" width="792" height="612"/>
  </clipPath>
 </defs>
</svg>
