<?xml version="1.0" encoding="utf-8" standalone="no"?>
<!DOCTYPE svg PUBLIC "-//W3C//DTD SVG 1.1//EN"
  "http://www.w3.org/Graphics/SVG/1.1/DTD/svg11.dtd">
<svg xmlns:xlink="http://www.w3.org/1999/xlink" width="792pt" height="612pt" viewBox="0 0 792 612" xmlns="http://www.w3.org/2000/svg" version="1.1">
 <metadata>
  <rdf:RDF xmlns:dc="http://purl.org/dc/elements/1.1/" xmlns:cc="http://creativecommons.org/ns#" xmlns:rdf="http://www.w3.org/1999/02/22-rdf-syntax-ns#">
   <cc:Work>
    <dc:type rdf:resource="http://purl.org/dc/dcmitype/StillImage"/>
    <dc:date>2023-01-02T15:38:35.749006</dc:date>
    <dc:format>image/svg+xml</dc:format>
    <dc:creator>
     <cc:Agent>
      <dc:title>Matplotlib v3.6.2, https://matplotlib.org/</dc:title>
     </cc:Agent>
    </dc:creator>
   </cc:Work>
  </rdf:RDF>
 </metadata>
 <defs>
  <style type="text/css">*{stroke-linejoin: round; stroke-linecap: butt}</style>
 </defs>
 <g id="figure_1">
  <g id="patch_1">
   <path d="M 0 612 
L 792 612 
L 792 0 
L 0 0 
z
" style="fill: #ffffff"/>
  </g>
  <g id="axes_1">
   <g id="line2d_1">
    <path d="M 0 459 
L 12.571429 446.579229 
L 25.142857 447.599675 
L 37.714286 455.426101 
L 50.285714 466.091212 
L 62.857143 469.041157 
L 75.428571 469.948832 
L 88 468.303671 
L 100.571429 462.120133 
L 113.142857 465.013348 
L 125.714286 462.120133 
L 138.285714 465.240267 
L 150.857143 464.502781 
L 163.428571 464.048943 
L 176 459 
L 188.571429 455.426101 
L 201.142857 451.512344 
L 213.714286 454.915569 
L 226.285714 462.971079 
L 238.857143 423.332343 
L 251.428571 434.176635 
L 264 436.383181 
L 276.571429 451.342201 
L 289.142857 451.852636 
L 301.714286 438.081242 
L 314.285714 434.516031 
L 326.857143 433.328265 
L 339.428571 449.640897 
L 352 411.685899 
L 364.571429 400.435514 
L 377.142857 401.775365 
L 389.714286 395.754166 
L 402.285714 415.561969 
L 414.857143 409.498054 
L 427.428571 409.8345 
L 440 425.532248 
L 452.571429 410.675848 
L 465.142857 413.201841 
L 477.714286 418.768687 
L 490.285714 429.089166 
L 502.857143 426.209458 
L 515.428571 406.472503 
L 528 410.507552 
L 540.571429 417.586787 
L 553.142857 421.641223 
L 565.714286 431.292904 
L 578.285714 435.873881 
L 590.857143 434.006947 
L 603.428571 437.401946 
L 616 429.767096 
L 628.571429 429.089166 
L 641.142857 437.062333 
L 653.714286 455.936642 
L 666.285714 459.283648 
L 678.857143 460.021135 
L 691.428571 462.006674 
L 704 459.794216 
L 716.571429 464.67297 
L 729.142857 463.992214 
L 741.714286 464.843159 
L 754.285714 467.112347 
L 766.857143 463.311457 
L 779.428571 462.063404 
" clip-path="url(#p63d13482e7)" style="fill: none; stroke: #000000; stroke-width: 1.5; stroke-linecap: square"/>
   </g>
   <g id="line2d_2">
    <path d="M 0 459 
L 12.571429 459 
L 25.142857 450.718363 
L 37.714286 448.936144 
L 50.285714 452.397118 
L 62.857143 461.594926 
L 75.428571 465.377139 
L 88 467.680984 
L 100.571429 467.993548 
L 113.142857 465.062959 
L 125.714286 465.058065 
L 138.285714 463.60267 
L 150.857143 464.43604 
L 163.428571 464.466296 
L 176 464.247831 
L 188.571429 461.602447 
L 201.142857 459.684983 
L 213.714286 456.250311 
L 226.285714 455.539554 
L 238.857143 460.410456 
L 251.428571 443.145353 
L 264 438.578119 
L 276.571429 437.406607 
L 289.142857 444.356028 
L 301.714286 448.096601 
L 314.285714 443.060694 
L 326.857143 438.746642 
L 339.428571 435.963088 
L 352 442.850051 
L 364.571429 427.187017 
L 377.142857 413.702094 
L 389.714286 407.633413 
L 402.285714 401.574981 
L 414.857143 408.512776 
L 427.428571 408.956555 
L 440 409.349639 
L 452.571429 417.380921 
L 465.142857 414.023979 
L 477.714286 413.637987 
L 490.285714 416.2354 
L 502.857143 422.720772 
L 515.428571 424.485518 
L 528 415.456143 
L 540.571429 412.981818 
L 553.142857 415.267651 
L 565.714286 418.473989 
L 578.285714 424.912265 
L 590.857143 430.422551 
L 603.428571 432.223984 
L 616 434.834157 
L 628.571429 432.345706 
L 641.142857 430.753647 
L 653.714286 433.945063 
L 666.285714 445.000117 
L 678.857143 452.47986 
L 691.428571 457.322811 
L 704 460.246051 
L 716.571429 460.035818 
L 729.142857 462.38465 
L 741.714286 463.217798 
L 754.285714 464.056285 
L 766.857143 465.602225 
L 779.428571 464.464739 
" clip-path="url(#p63d13482e7)" style="fill: none; stroke: #000000; stroke-width: 1.5; stroke-linecap: square"/>
   </g>
   <g id="line2d_3">
    <path d="M 0 459 
L 12.571429 459 
L 25.142857 451.722914 
L 37.714286 449.854564 
L 50.285714 452.030154 
L 62.857143 460.02617 
L 75.428571 463.043803 
L 88 465.262331 
L 100.571429 466.212505 
L 113.142857 464.958455 
L 125.714286 464.975052 
L 138.285714 464.119971 
L 150.857143 464.453306 
L 163.428571 464.467959 
L 176 464.344266 
L 188.571429 462.770271 
L 201.142857 461.311355 
L 213.714286 459.900415 
L 226.285714 459.241104 
L 238.857143 460.342516 
L 251.428571 451.343751 
L 264 446.258316 
L 276.571429 443.303796 
L 289.142857 445.610928 
L 301.714286 447.398429 
L 314.285714 444.633392 
L 326.857143 441.619397 
L 339.428571 439.149368 
L 352 442.188394 
L 364.571429 433.153572 
L 377.142857 423.443665 
L 389.714286 417.010687 
L 402.285714 410.693504 
L 414.857143 412.077348 
L 427.428571 411.26975 
L 440 410.779679 
L 452.571429 415.094098 
L 465.142857 413.772226 
L 477.714286 413.578631 
L 490.285714 415.060422 
L 502.857143 419.135971 
L 515.428571 421.192334 
L 528 416.839317 
L 540.571429 414.956852 
L 553.142857 415.690231 
L 565.714286 417.443246 
L 578.285714 421.528503 
L 590.857143 425.763089 
L 603.428571 428.219842 
L 616 430.93211 
L 628.571429 430.614215 
L 641.142857 430.189669 
L 653.714286 432.214669 
L 666.285714 439.205595 
L 678.857143 445.301617 
L 691.428571 450.259058 
L 704 455.505209 
L 716.571429 457.267095 
L 729.142857 460.279838 
L 741.714286 461.391538 
L 754.285714 462.425105 
L 766.857143 463.821619 
L 779.428571 463.687769 
" clip-path="url(#p63d13482e7)" style="fill: none; stroke: #000000; stroke-width: 1.5; stroke-linecap: square"/>
   </g>
   <g id="line2d_4">
    <path d="M 0 459 
L 12.571429 459 
L 25.142857 452.251707 
L 37.714286 450.425733 
L 50.285714 452.016722 
L 62.857143 459.257888 
L 75.428571 461.665748 
L 88 463.541188 
L 100.571429 464.551492 
L 113.142857 464.061685 
L 125.714286 464.245612 
L 138.285714 463.848394 
L 150.857143 464.101482 
L 163.428571 464.17283 
L 176 464.151208 
L 188.571429 463.265826 
L 201.142857 462.33969 
L 213.714286 461.359689 
L 226.285714 460.740257 
L 238.857143 461.108888 
L 251.428571 458.417854 
L 264 454.45309 
L 276.571429 451.510696 
L 289.142857 451.48338 
L 301.714286 451.543062 
L 314.285714 449.371247 
L 326.857143 446.979145 
L 339.428571 444.784806 
L 352 445.563325 
L 364.571429 440.118086 
L 377.142857 433.734636 
L 389.714286 428.601316 
L 402.285714 423.324706 
L 414.857143 422.061127 
L 427.428571 420.03498 
L 440 418.38569 
L 452.571429 419.502947 
L 465.142857 418.053189 
L 477.714286 417.233603 
L 490.285714 417.432492 
L 502.857143 419.248061 
L 515.428571 420.328349 
L 528 418.074586 
L 540.571429 416.833129 
L 553.142857 416.915749 
L 565.714286 417.633626 
L 578.285714 419.776003 
L 590.857143 422.317429 
L 603.428571 424.161168 
L 616 426.255733 
L 628.571429 426.798519 
L 641.142857 427.136868 
L 653.714286 428.722849 
L 666.285714 433.056902 
L 678.857143 437.327436 
L 691.428571 441.264979 
L 704 445.528332 
L 716.571429 448.064174 
L 729.142857 452.536469 
L 741.714286 455.97274 
L 754.285714 459.08671 
L 766.857143 460.378555 
L 779.428571 460.860127 
" clip-path="url(#p63d13482e7)" style="fill: none; stroke: #000000; stroke-width: 1.5; stroke-linecap: square"/>
   </g>
   <g id="line2d_5">
    <path d="M 0 459 
L 12.571429 459 
L 25.142857 452.519587 
L 37.714286 450.735422 
L 50.285714 452.064468 
L 62.857143 458.723276 
L 75.428571 460.982348 
L 88 462.618826 
L 100.571429 463.562464 
L 113.142857 463.341396 
L 125.714286 463.580832 
L 138.285714 463.383529 
L 150.857143 463.621912 
L 163.428571 463.730094 
L 176 463.767754 
L 188.571429 463.223735 
L 201.142857 462.624498 
L 213.714286 461.965418 
L 226.285714 461.510709 
L 238.857143 461.66086 
L 251.428571 460.191524 
L 264 459.253091 
L 276.571429 457.478613 
L 289.142857 456.888876 
L 301.714286 456.411135 
L 314.285714 454.691613 
L 326.857143 452.81854 
L 339.428571 451.026375 
L 352 450.90023 
L 364.571429 447.345045 
L 377.142857 443.114428 
L 389.714286 439.411971 
L 402.285714 435.520805 
L 414.857143 433.758897 
L 427.428571 431.625987 
L 440 429.719422 
L 452.571429 429.355631 
L 465.142857 427.734995 
L 477.714286 426.479339 
L 490.285714 425.81602 
L 502.857143 426.096313 
L 515.428571 426.105981 
L 528 424.426742 
L 540.571429 423.24012 
L 553.142857 422.759865 
L 565.714286 422.665085 
L 578.285714 423.393804 
L 590.857143 424.445771 
L 603.428571 425.25086 
L 616 426.272419 
L 628.571429 426.566184 
L 641.142857 426.778061 
L 653.714286 427.640046 
L 666.285714 430.006408 
L 678.857143 432.500696 
L 691.428571 434.970323 
L 704 437.730008 
L 716.571429 439.704654 
L 729.142857 442.734907 
L 741.714286 445.341349 
L 754.285714 447.942659 
L 766.857143 450.894089 
L 779.428571 452.64813 
" clip-path="url(#p63d13482e7)" style="fill: none; stroke: #000000; stroke-width: 1.5; stroke-linecap: square"/>
   </g>
   <g id="line2d_6">
    <path d="M 0 459 
L 12.571429 459 
L 25.142857 452.653968 
L 37.714286 450.895476 
L 50.285714 452.102645 
L 62.857143 458.234861 
L 75.428571 460.652055 
L 88 462.158831 
L 100.571429 463.048305 
L 113.142857 462.926426 
L 125.714286 463.178086 
L 138.285714 463.059761 
L 150.857143 463.2878 
L 163.428571 463.407425 
L 176 463.467235 
L 188.571429 463.070895 
L 201.142857 462.624693 
L 213.714286 462.126799 
L 226.285714 461.775385 
L 238.857143 461.865758 
L 251.428571 460.784611 
L 264 460.070131 
L 276.571429 459.475686 
L 289.142857 459.272133 
L 301.714286 459.098022 
L 314.285714 457.933438 
L 326.857143 456.462876 
L 339.428571 455.038849 
L 352 454.713122 
L 364.571429 452.153249 
L 377.142857 449.121095 
L 389.714286 446.389165 
L 402.285714 443.506826 
L 414.857143 441.944175 
L 427.428571 440.151955 
L 440 438.498382 
L 452.571429 437.801315 
L 465.142857 436.355982 
L 477.714286 435.135964 
L 490.285714 434.283078 
L 502.857143 434.01542 
L 515.428571 433.616643 
L 528 432.237258 
L 540.571429 431.142998 
L 553.142857 430.466551 
L 565.714286 430.029732 
L 578.285714 430.091729 
L 590.857143 430.373478 
L 603.428571 430.549453 
L 616 430.879214 
L 628.571429 430.825951 
L 641.142857 430.74322 
L 653.714286 431.042374 
L 666.285714 432.213386 
L 678.857143 433.507336 
L 691.428571 434.838451 
L 704 436.378669 
L 716.571429 437.534955 
L 729.142857 439.307607 
L 741.714286 440.898997 
L 754.285714 442.529018 
L 766.857143 444.389906 
L 779.428571 445.642176 
" clip-path="url(#p63d13482e7)" style="fill: none; stroke: #000000; stroke-width: 1.5; stroke-linecap: square"/>
   </g>
   <g id="line2d_7">
    <path d="M 0 459 
L 12.571429 459 
L 25.142857 452.721215 
L 37.714286 450.976686 
L 50.285714 452.125327 
L 62.857143 458.001073 
L 75.428571 460.491009 
L 88 461.931489 
L 100.571429 462.789689 
L 113.142857 462.708688 
L 125.714286 462.962258 
L 138.285714 462.877144 
L 150.857143 463.098368 
L 163.428571 463.22099 
L 176 463.288812 
L 188.571429 462.957531 
L 201.142857 462.580843 
L 213.714286 462.158124 
L 226.285714 461.858171 
L 238.857143 461.928855 
L 251.428571 461.024266 
L 264 460.419974 
L 276.571429 459.913204 
L 289.142857 459.723921 
L 301.714286 459.559718 
L 314.285714 459.173451 
L 326.857143 458.274924 
L 339.428571 457.066439 
L 352 456.716489 
L 364.571429 454.640134 
L 377.142857 452.195518 
L 389.714286 449.973917 
L 402.285714 447.63414 
L 414.857143 446.284052 
L 427.428571 444.765175 
L 440 443.350851 
L 452.571429 442.644486 
L 465.142857 441.396973 
L 477.714286 440.316093 
L 490.285714 439.504461 
L 502.857143 439.118948 
L 515.428571 438.64827 
L 528 437.48873 
L 540.571429 436.531032 
L 553.142857 435.868706 
L 565.714286 435.378227 
L 578.285714 435.239384 
L 590.857143 435.260669 
L 603.428571 435.219106 
L 616 435.290607 
L 628.571429 435.11155 
L 641.142857 434.918426 
L 653.714286 434.986389 
L 666.285714 435.642854 
L 678.857143 436.393882 
L 691.428571 437.182675 
L 704 438.121489 
L 716.571429 438.823466 
L 729.142857 439.936062 
L 741.714286 440.945846 
L 754.285714 441.992861 
L 766.857143 443.199813 
L 779.428571 444.032318 
" clip-path="url(#p63d13482e7)" style="fill: none; stroke: #000000; stroke-width: 1.5; stroke-linecap: square"/>
   </g>
   <g id="line2d_8">
    <path d="M 0 459 
L 12.571429 459 
L 25.142857 452.754845 
L 37.714286 451.01757 
L 50.285714 452.137564 
L 62.857143 457.88692 
L 75.428571 460.41166 
L 88 461.818778 
L 100.571429 462.660448 
L 113.142857 462.597779 
L 125.714286 462.851278 
L 138.285714 462.781153 
L 150.857143 462.998505 
L 163.428571 463.121886 
L 176 463.192866 
L 188.571429 462.891656 
L 201.142857 462.547517 
L 213.714286 462.160379 
L 226.285714 461.885372 
L 238.857143 461.948254 
L 251.428571 461.126258 
L 264 460.575091 
L 276.571429 460.111706 
L 289.142857 459.932682 
L 301.714286 459.776659 
L 314.285714 459.424509 
L 326.857143 459.047315 
L 339.428571 458.044106 
L 352 457.698015 
L 364.571429 455.852485 
L 377.142857 453.688337 
L 389.714286 451.71662 
L 402.285714 449.644257 
L 414.857143 448.418507 
L 427.428571 447.051635 
L 440 445.775529 
L 452.571429 445.098881 
L 465.142857 443.971193 
L 477.714286 442.985202 
L 490.285714 442.225969 
L 502.857143 441.822954 
L 515.428571 441.353131 
L 528 440.320125 
L 540.571429 439.45411 
L 553.142857 438.831006 
L 565.714286 438.35 
L 578.285714 438.156114 
L 590.857143 438.094474 
L 603.428571 437.985816 
L 616 437.970542 
L 628.571429 437.759015 
L 641.142857 437.538748 
L 653.714286 437.526829 
L 666.285714 437.980312 
L 678.857143 438.51162 
L 691.428571 439.076123 
L 704 439.760792 
L 716.571429 440.265836 
L 729.142857 441.090462 
L 741.714286 441.83982 
L 754.285714 442.62093 
L 766.857143 443.527138 
L 779.428571 444.15229 
" clip-path="url(#p63d13482e7)" style="fill: none; stroke: #000000; stroke-width: 1.5; stroke-linecap: square"/>
   </g>
   <g id="line2d_9">
    <path d="M 0 459 
L 12.571429 459 
L 25.142857 452.771661 
L 37.714286 451.03808 
L 50.285714 452.143907 
L 62.857143 457.830544 
L 75.428571 460.372297 
L 88 461.762699 
L 100.571429 462.5959 
L 113.142857 462.541885 
L 125.714286 462.795097 
L 138.285714 462.732062 
L 150.857143 462.947361 
L 163.428571 463.070934 
L 176 463.143278 
L 188.571429 462.856466 
L 201.142857 462.528005 
L 213.714286 462.158086 
L 226.285714 461.895274 
L 238.857143 461.954697 
L 251.428571 461.172437 
L 264 460.64716 
L 276.571429 460.205148 
L 289.142857 460.03184 
L 301.714286 459.880535 
L 314.285714 459.545355 
L 326.857143 459.187006 
L 339.428571 458.518436 
L 352 458.177611 
L 364.571429 456.443714 
L 377.142857 454.415056 
L 389.714286 452.565289 
L 402.285714 450.623685 
L 414.857143 449.462756 
L 427.428571 448.173747 
L 440 446.969393 
L 452.571429 446.314505 
L 465.142857 445.250089 
L 477.714286 444.316065 
L 490.285714 443.589351 
L 502.857143 443.186709 
L 515.428571 442.725427 
L 528 441.75833 
L 540.571429 440.942571 
L 553.142857 440.34594 
L 565.714286 439.877828 
L 578.285714 439.667376 
L 590.857143 439.57617 
L 603.428571 439.444697 
L 616 439.397352 
L 628.571429 439.177866 
L 641.142857 438.951841 
L 653.714286 438.910254 
L 666.285714 439.278394 
L 678.857143 439.71606 
L 691.428571 440.184043 
L 704 440.75801 
L 716.571429 441.176969 
L 729.142857 441.874236 
L 741.714286 442.507474 
L 754.285714 443.169127 
L 766.857143 443.939511 
L 779.428571 444.469188 
" clip-path="url(#p63d13482e7)" style="fill: none; stroke: #000000; stroke-width: 1.5; stroke-linecap: square"/>
   </g>
  </g>
 </g>
 <defs>
  <clipPath id="p63d13482e7">
   <rect x="0" y="0" width="792" height="612"/>
  </clipPath>
 </defs>
</svg>
