<?xml version="1.0" encoding="utf-8" standalone="no"?>
<!DOCTYPE svg PUBLIC "-//W3C//DTD SVG 1.1//EN"
  "http://www.w3.org/Graphics/SVG/1.1/DTD/svg11.dtd">
<svg xmlns:xlink="http://www.w3.org/1999/xlink" width="792pt" height="612pt" viewBox="0 0 792 612" xmlns="http://www.w3.org/2000/svg" version="1.1">
 <metadata>
  <rdf:RDF xmlns:dc="http://purl.org/dc/elements/1.1/" xmlns:cc="http://creativecommons.org/ns#" xmlns:rdf="http://www.w3.org/1999/02/22-rdf-syntax-ns#">
   <cc:Work>
    <dc:type rdf:resource="http://purl.org/dc/dcmitype/StillImage"/>
    <dc:date>2023-01-23T15:50:43.364892</dc:date>
    <dc:format>image/svg+xml</dc:format>
    <dc:creator>
     <cc:Agent>
      <dc:title>Matplotlib v3.6.2, https://matplotlib.org/</dc:title>
     </cc:Agent>
    </dc:creator>
   </cc:Work>
  </rdf:RDF>
 </metadata>
 <defs>
  <style type="text/css">*{stroke-linejoin: round; stroke-linecap: butt}</style>
 </defs>
 <g id="figure_1">
  <g id="patch_1">
   <path d="M 0 612 
L 792 612 
L 792 0 
L 0 0 
z
" style="fill: #ffffff"/>
  </g>
  <g id="axes_1">
   <g id="line2d_1">
    <path d="M 0 459 
L 12.774194 462.185087 
L 25.548387 461.432248 
L 38.322581 460.968963 
L 51.096774 449.446119 
L 63.870968 445.800007 
L 76.645161 441.808575 
L 89.419355 445.279259 
L 102.193548 459.86866 
L 114.967742 413.11479 
L 127.741935 424.14708 
L 140.516129 426.393396 
L 153.290323 441.63509 
L 166.064516 442.155562 
L 178.83871 428.122405 
L 191.612903 424.492561 
L 204.387097 423.283554 
L 217.16129 439.900513 
L 229.935484 401.280665 
L 242.709677 389.863541 
L 255.483871 391.222481 
L 268.258065 385.117163 
L 281.032258 405.217525 
L 293.806452 399.059256 
L 306.580645 399.400828 
L 319.354839 415.351818 
L 332.129032 400.255051 
L 344.903226 402.820182 
L 357.677419 408.475803 
L 370.451613 418.969857 
L 383.225806 416.04056 
L 396 395.988189 
L 408.774194 400.084173 
L 421.548387 407.274767 
L 434.322581 411.39549 
L 447.096774 421.212139 
L 459.870968 425.874872 
L 472.645161 423.974355 
L 485.419355 427.430693 
L 498.193548 419.65959 
L 510.967742 418.969857 
L 523.741935 427.084891 
L 536.516129 446.320789 
L 549.290323 450.314436 
L 562.064516 452.572335 
L 574.83871 458.652536 
L 587.612903 451.877559 
L 600.387097 461.60598 
L 613.16129 460.911052 
L 625.935484 461.779712 
L 638.709677 464.096139 
L 651.483871 460.216124 
L 664.258065 458.826268 
L 677.032258 453.614554 
L 689.806452 437.126346 
L 702.580645 439.206832 
L 715.354839 418.969857 
L 728.129032 408.990748 
L 740.903226 406.760256 
L 753.677419 399.742467 
L 766.451613 392.242484 
L 779.225806 395.3065 
" clip-path="url(#p972c1fb247)" style="fill: none; stroke: #000000; stroke-width: 1.5; stroke-linecap: square"/>
   </g>
   <g id="line2d_2">
    <path d="M 0 459 
L 12.774194 459 
L 25.548387 461.123391 
L 38.322581 461.299881 
L 51.096774 461.123391 
L 63.870968 457.150605 
L 76.645161 451.384067 
L 89.419355 446.55727 
L 102.193548 445.915734 
L 114.967742 453.764421 
L 127.741935 433.280564 
L 140.516129 428.628394 
L 153.290323 427.43544 
L 166.064516 434.514107 
L 178.83871 438.326261 
L 191.612903 433.194311 
L 204.387097 428.800013 
L 217.16129 425.965692 
L 229.935484 432.979706 
L 242.709677 417.034854 
L 255.483871 403.328271 
L 268.258065 397.16644 
L 281.032258 391.019228 
L 293.806452 398.05904 
L 306.580645 398.509533 
L 319.354839 398.908583 
L 332.129032 407.065584 
L 344.903226 403.655212 
L 357.677419 403.263158 
L 370.451613 405.901689 
L 383.225806 412.492992 
L 396 414.287359 
L 408.774194 405.110017 
L 421.548387 402.59672 
L 434.322581 404.918532 
L 447.096774 408.176319 
L 459.870968 414.721319 
L 472.645161 420.326502 
L 485.419355 422.159658 
L 498.193548 424.8164 
L 510.967742 422.283536 
L 523.741935 420.663403 
L 536.516129 423.911364 
L 549.290323 435.170422 
L 562.064516 442.795156 
L 574.83871 447.734889 
L 587.612903 453.261011 
L 600.387097 452.617293 
L 613.16129 459.270023 
L 625.935484 460.120515 
L 638.709677 460.976457 
L 651.483871 462.55458 
L 664.258065 461.393414 
L 677.032258 460.17184 
L 689.806452 458.055035 
L 702.580645 447.555817 
L 715.354839 443.32593 
L 728.129032 431.038602 
L 740.903226 419.878043 
L 753.677419 413.178193 
L 766.451613 406.326556 
L 779.225806 399.140959 
" clip-path="url(#p972c1fb247)" style="fill: none; stroke: #000000; stroke-width: 1.5; stroke-linecap: square"/>
   </g>
   <g id="line2d_3">
    <path d="M 0 459 
L 12.774194 459 
L 25.548387 460.865781 
L 38.322581 461.122437 
L 51.096774 461.062502 
L 63.870968 459.195471 
L 76.645161 454.970504 
L 89.419355 450.739923 
L 102.193548 449.033581 
L 114.967742 452.885491 
L 127.741935 440.823926 
L 140.516129 435.821956 
L 153.290323 433.014147 
L 166.064516 435.565731 
L 178.83871 437.510161 
L 191.612903 434.74305 
L 204.387097 431.725995 
L 217.16129 429.21015 
L 229.935484 432.305634 
L 242.709677 423.10575 
L 255.483871 413.227978 
L 268.258065 406.689395 
L 281.032258 400.272978 
L 293.806452 401.678177 
L 306.580645 400.85809 
L 319.354839 400.360477 
L 332.129032 404.742227 
L 344.903226 403.399504 
L 357.677419 403.202871 
L 370.451613 404.708017 
L 383.225806 408.849065 
L 396 410.939174 
L 408.774194 406.515275 
L 421.548387 404.602807 
L 434.322581 405.347828 
L 447.096774 407.128912 
L 459.870968 411.280902 
L 472.645161 415.586584 
L 485.419355 418.08547 
L 498.193548 420.845 
L 510.967742 420.521525 
L 523.741935 420.089544 
L 536.516129 422.150178 
L 549.290323 429.267413 
L 562.064516 435.47766 
L 574.83871 440.53073 
L 587.612903 445.8807 
L 600.387097 447.678048 
L 613.16129 453.364467 
L 625.935484 456.768728 
L 638.709677 459.31132 
L 651.483871 460.736906 
L 664.258065 460.60027 
L 677.032258 460.127238 
L 689.806452 459.282641 
L 702.580645 453.199555 
L 715.354839 449.12144 
L 728.129032 440.269712 
L 740.903226 431.05623 
L 753.677419 423.872183 
L 766.451613 416.720406 
L 779.225806 409.450348 
" clip-path="url(#p972c1fb247)" style="fill: none; stroke: #000000; stroke-width: 1.5; stroke-linecap: square"/>
   </g>
   <g id="line2d_4">
    <path d="M 0 459 
L 12.774194 459 
L 25.548387 460.730183 
L 38.322581 461.005718 
L 51.096774 460.994022 
L 63.870968 459.572208 
L 76.645161 457.04446 
L 89.419355 453.593199 
L 102.193548 451.829015 
L 114.967742 453.798381 
L 127.741935 445.909154 
L 140.516129 441.834728 
L 153.290323 439.023062 
L 166.064516 439.487368 
L 178.83871 439.952958 
L 191.612903 437.917294 
L 204.387097 435.635791 
L 217.16129 433.558624 
L 229.935484 434.613686 
L 242.709677 429.078138 
L 255.483871 422.591765 
L 268.258065 417.434603 
L 281.032258 412.139365 
L 293.806452 411.015675 
L 306.580645 409.078261 
L 319.354839 407.514772 
L 332.129032 408.773677 
L 344.903226 407.403101 
L 357.677419 406.667474 
L 370.451613 406.956979 
L 383.225806 408.874483 
L 396 410.018387 
L 408.774194 407.770445 
L 421.548387 406.508987 
L 434.322581 406.592933 
L 447.096774 407.322361 
L 459.870968 409.499551 
L 472.645161 412.082927 
L 485.419355 413.957539 
L 498.193548 416.087625 
L 510.967742 416.639692 
L 523.741935 416.983843 
L 536.516129 418.597183 
L 549.290323 423.007359 
L 562.064516 427.354824 
L 574.83871 431.364965 
L 587.612903 435.708695 
L 600.387097 438.293207 
L 613.16129 442.852882 
L 625.935484 446.357613 
L 638.709677 449.711554 
L 651.483871 453.666738 
L 664.258065 455.141381 
L 677.032258 455.770129 
L 689.806452 455.470297 
L 702.580645 452.569486 
L 715.354839 450.467372 
L 728.129032 445.455247 
L 740.903226 439.626104 
L 753.677419 434.378951 
L 766.451613 428.836941 
L 779.225806 422.966172 
" clip-path="url(#p972c1fb247)" style="fill: none; stroke: #000000; stroke-width: 1.5; stroke-linecap: square"/>
   </g>
   <g id="line2d_5">
    <path d="M 0 459 
L 12.774194 459 
L 25.548387 460.661492 
L 38.322581 460.940964 
L 51.096774 460.948898 
L 63.870968 459.736941 
L 76.645161 458.055056 
L 89.419355 455.088528 
L 102.193548 453.45978 
L 114.967742 454.708254 
L 127.741935 448.731357 
L 140.516129 445.404073 
L 153.290323 442.959335 
L 166.064516 442.796686 
L 178.83871 442.720959 
L 191.612903 441.052984 
L 204.387097 439.217289 
L 217.16129 437.498524 
L 229.935484 437.750891 
L 242.709677 433.980753 
L 255.483871 429.497897 
L 268.258065 425.679186 
L 281.032258 421.6912 
L 293.806452 420.10326 
L 306.580645 418.098664 
L 319.354839 416.33909 
L 332.129032 416.247509 
L 344.903226 414.77363 
L 357.677419 413.682589 
L 370.451613 413.211827 
L 383.225806 413.727525 
L 396 413.933447 
L 408.774194 412.33831 
L 421.548387 411.256466 
L 434.322581 410.90737 
L 447.096774 410.949929 
L 459.870968 411.839261 
L 472.645161 413.050231 
L 485.419355 413.989996 
L 498.193548 415.142155 
L 510.967742 415.528856 
L 523.741935 415.822683 
L 536.516129 416.780779 
L 549.290323 419.282822 
L 562.064516 421.906376 
L 574.83871 424.495147 
L 587.612903 427.374233 
L 600.387097 429.438139 
L 613.16129 432.581465 
L 625.935484 435.283087 
L 638.709677 437.974393 
L 651.483871 441.020782 
L 664.258065 442.834097 
L 677.032258 444.173998 
L 689.806452 444.964503 
L 702.580645 444.308 
L 715.354839 443.881133 
L 728.129032 441.793209 
L 740.903226 439.041284 
L 753.677419 436.333779 
L 766.451613 433.262339 
L 779.225806 429.815404 
" clip-path="url(#p972c1fb247)" style="fill: none; stroke: #000000; stroke-width: 1.5; stroke-linecap: square"/>
   </g>
   <g id="line2d_6">
    <path d="M 0 459 
L 12.774194 459 
L 25.548387 460.627034 
L 38.322581 460.907147 
L 51.096774 460.923619 
L 63.870968 459.811491 
L 76.645161 458.537923 
L 89.419355 455.82526 
L 102.193548 454.29824 
L 114.967742 455.257768 
L 127.741935 450.158264 
L 140.516129 447.24316 
L 153.290323 445.058905 
L 166.064516 444.721727 
L 178.83871 444.482439 
L 191.612903 443.028845 
L 204.387097 441.454209 
L 217.16129 439.973288 
L 229.935484 439.96759 
L 242.709677 437.027055 
L 255.483871 433.548617 
L 268.258065 430.521594 
L 281.032258 427.36013 
L 293.806452 425.866061 
L 306.580645 424.098927 
L 319.354839 422.508148 
L 332.129032 422.058622 
L 344.903226 420.71212 
L 357.677419 419.628735 
L 370.451613 418.966249 
L 383.225806 418.966459 
L 396 418.798492 
L 408.774194 417.502602 
L 421.548387 416.528018 
L 434.322581 416.018046 
L 447.096774 415.766704 
L 459.870968 416.058728 
L 472.645161 416.578884 
L 485.419355 416.966788 
L 498.193548 417.509872 
L 510.967742 417.620541 
L 523.741935 417.689387 
L 536.516129 418.164021 
L 549.290323 419.571564 
L 562.064516 421.096442 
L 574.83871 422.646451 
L 587.612903 424.407085 
L 600.387097 425.742436 
L 613.16129 427.72566 
L 625.935484 429.502518 
L 638.709677 431.309256 
L 651.483871 433.35079 
L 664.258065 434.735968 
L 677.032258 435.869665 
L 689.806452 436.701107 
L 702.580645 436.720969 
L 715.354839 436.836552 
L 728.129032 436.007108 
L 740.903226 434.755693 
L 753.677419 433.463305 
L 766.451613 431.909962 
L 779.225806 430.085813 
" clip-path="url(#p972c1fb247)" style="fill: none; stroke: #000000; stroke-width: 1.5; stroke-linecap: square"/>
   </g>
   <g id="line2d_7">
    <path d="M 0 459 
L 12.774194 459 
L 25.548387 460.609791 
L 38.322581 460.889903 
L 51.096774 460.910314 
L 63.870968 459.846615 
L 76.645161 458.771818 
L 89.419355 456.187029 
L 102.193548 454.717523 
L 114.967742 455.550832 
L 127.741935 450.865673 
L 140.516129 448.159666 
L 153.290323 446.118425 
L 166.064516 445.726865 
L 178.83871 445.434255 
L 191.612903 444.095024 
L 204.387097 442.658196 
L 217.16129 441.307783 
L 229.935484 441.214376 
L 242.709677 438.663559 
L 255.483871 435.664638 
L 268.258065 433.03849 
L 281.032258 430.30428 
L 293.806452 428.928431 
L 306.580645 427.340939 
L 319.354839 425.901556 
L 332.129032 425.37565 
L 344.903226 424.154113 
L 357.677419 423.144694 
L 370.451613 422.468948 
L 383.225806 422.31195 
L 396 422.036861 
L 408.774194 420.914354 
L 421.548387 420.036585 
L 434.322581 419.510574 
L 447.096774 419.182864 
L 459.870968 419.263136 
L 472.645161 419.519819 
L 485.419355 419.689851 
L 498.193548 419.980297 
L 510.967742 419.968438 
L 523.741935 419.932076 
L 536.516129 420.188339 
L 549.290323 421.109063 
L 562.064516 422.123758 
L 574.83871 423.167655 
L 587.612903 424.368435 
L 600.387097 425.288405 
L 613.16129 426.659873 
L 625.935484 427.903072 
L 638.709677 429.176558 
L 651.483871 430.61768 
L 664.258065 431.630708 
L 677.032258 432.482325 
L 689.806452 433.137798 
L 702.580645 433.260506 
L 715.354839 433.441714 
L 728.129032 433.003482 
L 740.903226 432.281399 
L 753.677419 431.52015 
L 766.451613 430.578677 
L 779.225806 429.449966 
" clip-path="url(#p972c1fb247)" style="fill: none; stroke: #000000; stroke-width: 1.5; stroke-linecap: square"/>
   </g>
   <g id="line2d_8">
    <path d="M 0 459 
L 12.774194 459 
L 25.548387 460.601167 
L 38.322581 460.8812 
L 51.096774 460.903498 
L 63.870968 459.863618 
L 76.645161 458.886654 
L 89.419355 456.365789 
L 102.193548 454.926428 
L 114.967742 455.701118 
L 127.741935 451.216512 
L 140.516129 448.614894 
L 153.290323 446.647323 
L 166.064516 446.23609 
L 178.83871 445.923584 
L 191.612903 444.642815 
L 204.387097 443.275928 
L 217.16129 441.992665 
L 229.935484 441.865406 
L 242.709677 439.501259 
L 255.483871 436.732853 
L 268.258065 434.303858 
L 281.032258 431.781112 
L 293.806452 430.477662 
L 306.580645 428.990685 
L 319.354839 427.639569 
L 332.129032 427.09915 
L 344.903226 425.952863 
L 357.677419 424.996107 
L 370.451613 424.333893 
L 383.225806 424.125417 
L 396 423.819617 
L 408.774194 422.790118 
L 421.548387 421.972435 
L 434.322581 421.457002 
L 447.096774 421.112819 
L 459.870968 421.116133 
L 472.645161 421.271267 
L 485.419355 421.357532 
L 498.193548 421.54723 
L 510.967742 421.489376 
L 523.741935 421.413651 
L 536.516129 421.580648 
L 549.290323 422.294084 
L 562.064516 423.087539 
L 574.83871 423.907979 
L 587.612903 424.858275 
L 600.387097 425.585601 
L 613.16129 426.677152 
L 625.935484 427.669237 
L 638.709677 428.687849 
L 651.483871 429.841512 
L 664.258065 430.659965 
L 677.032258 431.352978 
L 689.806452 431.893406 
L 702.580645 432.018926 
L 715.354839 432.189053 
L 728.129032 431.879314 
L 740.903226 431.348736 
L 753.677419 430.785461 
L 766.451613 430.081733 
L 779.225806 429.232401 
" clip-path="url(#p972c1fb247)" style="fill: none; stroke: #000000; stroke-width: 1.5; stroke-linecap: square"/>
   </g>
   <g id="line2d_9">
    <path d="M 0 459 
L 12.774194 459 
L 25.548387 460.596855 
L 38.322581 460.876829 
L 51.096774 460.90005 
L 63.870968 459.871978 
L 76.645161 458.943517 
L 89.419355 456.45458 
L 102.193548 455.030601 
L 114.967742 455.777089 
L 127.741935 451.391044 
L 140.516129 448.841467 
L 153.290323 446.911135 
L 166.064516 446.491833 
L 178.83871 446.170993 
L 191.612903 444.919685 
L 204.387097 443.587904 
L 217.16129 442.338531 
L 229.935484 442.196734 
L 242.709677 439.923629 
L 255.483871 437.267728 
L 268.258065 434.935893 
L 281.032258 432.517583 
L 293.806452 431.252926 
L 306.580645 429.81812 
L 319.354839 428.513513 
L 332.129032 427.971143 
L 344.903226 426.865013 
L 357.677419 425.937877 
L 370.451613 425.286933 
L 383.225806 425.059176 
L 396 424.743519 
L 408.774194 423.76169 
L 421.548387 422.976558 
L 434.322581 422.470766 
L 447.096774 422.123616 
L 459.870968 422.09582 
L 472.645161 422.208156 
L 485.419355 422.259427 
L 498.193548 422.405997 
L 510.967742 422.329802 
L 523.741935 422.238612 
L 536.516129 422.367168 
L 549.290323 422.987947 
L 562.064516 423.68169 
L 574.83871 424.400689 
L 587.612903 425.236557 
L 600.387097 425.874889 
L 613.16129 426.837373 
L 625.935484 427.712538 
L 638.709677 428.611783 
L 651.483871 429.630653 
L 664.258065 430.355208 
L 677.032258 430.969953 
L 689.806452 431.451255 
L 702.580645 431.570163 
L 715.354839 431.727686 
L 728.129032 431.46776 
L 740.903226 431.015736 
L 753.677419 430.534781 
L 766.451613 429.931936 
L 779.225806 429.202985 
" clip-path="url(#p972c1fb247)" style="fill: none; stroke: #000000; stroke-width: 1.5; stroke-linecap: square"/>
   </g>
  </g>
 </g>
 <defs>
  <clipPath id="p972c1fb247">
   <rect x="0" y="0" width="792" height="612"/>
  </clipPath>
 </defs>
</svg>
