<?xml version="1.0" encoding="utf-8" standalone="no"?>
<!DOCTYPE svg PUBLIC "-//W3C//DTD SVG 1.1//EN"
  "http://www.w3.org/Graphics/SVG/1.1/DTD/svg11.dtd">
<svg xmlns:xlink="http://www.w3.org/1999/xlink" width="792pt" height="612pt" viewBox="0 0 792 612" xmlns="http://www.w3.org/2000/svg" version="1.1">
 <metadata>
  <rdf:RDF xmlns:dc="http://purl.org/dc/elements/1.1/" xmlns:cc="http://creativecommons.org/ns#" xmlns:rdf="http://www.w3.org/1999/02/22-rdf-syntax-ns#">
   <cc:Work>
    <dc:type rdf:resource="http://purl.org/dc/dcmitype/StillImage"/>
    <dc:date>2023-01-30T17:16:13.466149</dc:date>
    <dc:format>image/svg+xml</dc:format>
    <dc:creator>
     <cc:Agent>
      <dc:title>Matplotlib v3.6.2, https://matplotlib.org/</dc:title>
     </cc:Agent>
    </dc:creator>
   </cc:Work>
  </rdf:RDF>
 </metadata>
 <defs>
  <style type="text/css">*{stroke-linejoin: round; stroke-linecap: butt}</style>
 </defs>
 <g id="figure_1">
  <g id="patch_1">
   <path d="M 0 612 
L 792 612 
L 792 0 
L 0 0 
z
" style="fill: #ffffff"/>
  </g>
  <g id="axes_1">
   <g id="line2d_1">
    <path d="M 0 306 
L 12.983607 303.410658 
L 25.967213 308.251615 
L 38.95082 316.578564 
L 51.934426 274.587863 
L 64.918033 313.203967 
L 77.901639 307.463565 
L 90.885246 315.903824 
L 103.868852 306.337748 
L 116.852459 296.883493 
L 129.836066 303.635809 
L 142.819672 305.211922 
L 155.803279 316.803455 
L 168.786885 280.838397 
L 181.770492 298.458481 
L 194.754098 306.90066 
L 207.737705 301.947257 
L 220.721311 319.276428 
L 233.704918 301.947257 
L 246.688525 306.225166 
L 259.672131 316.466115 
L 272.655738 296.096176 
L 285.639344 307.688725 
L 298.622951 309.715049 
L 311.606557 312.866397 
L 324.590164 304.086118 
L 337.57377 292.835945 
L 350.557377 308.701917 
L 363.540984 310.728101 
L 376.52459 308.701917 
L 389.508197 312.416278 
L 402.491803 309.039635 
L 415.47541 304.761596 
L 428.459016 308.251615 
L 441.442623 300.934238 
L 454.42623 305.549669 
L 467.409836 311.290863 
L 480.393443 318.489746 
L 493.377049 308.589342 
L 506.360656 307.463565 
L 519.344262 309.94018 
L 532.327869 301.609573 
L 545.311475 315.678889 
L 558.295082 304.649015 
L 571.278689 307.688725 
L 584.262295 310.502986 
L 597.245902 298.458481 
L 610.229508 303.523233 
L 623.213115 302.622654 
L 636.196721 295.308989 
L 649.180328 307.350985 
L 662.163934 292.835945 
L 675.147541 299.47119 
L 688.131148 304.536435 
L 701.114754 301.384456 
L 714.098361 301.04679 
L 727.081967 308.02646 
L 740.065574 311.741048 
L 753.04918 314.891536 
L 766.032787 310.390427 
L 779.016393 296.995977 
" clip-path="url(#paffa977015)" style="fill: none; stroke: #000000; stroke-width: 1.5; stroke-linecap: square"/>
   </g>
   <g id="line2d_2">
    <path d="M 0 306 
L 12.983607 306 
L 25.967213 304.273749 
L 38.95082 306.54683 
L 51.934426 311.898607 
L 64.918033 292.593079 
L 77.901639 303.058642 
L 90.885246 305.278408 
L 103.868852 310.613337 
L 116.852459 308.476326 
L 129.836066 302.665916 
L 142.819672 303.141805 
L 155.803279 304.154548 
L 168.786885 310.5639 
L 181.770492 295.613263 
L 194.754098 297.018033 
L 207.737705 301.940636 
L 220.721311 301.935338 
L 233.704918 310.653504 
L 246.688525 306.29713 
L 259.672131 306.263135 
L 272.655738 311.365454 
L 285.639344 303.759422 
L 298.622951 305.742163 
L 311.606557 307.734198 
L 324.590164 310.322008 
L 337.57377 307.174387 
L 350.557377 299.983998 
L 363.540984 304.347477 
L 376.52459 307.526698 
L 389.508197 308.139038 
L 402.491803 310.287137 
L 415.47541 309.662077 
L 428.459016 307.19602 
L 441.442623 307.73199 
L 454.42623 304.348802 
L 467.409836 304.943051 
L 480.393443 308.118288 
L 493.377049 313.325311 
L 506.360656 310.95012 
L 519.344262 309.203856 
L 532.327869 309.582176 
L 545.311475 305.582782 
L 558.295082 310.661008 
L 571.278689 307.653406 
L 584.262295 307.664001 
L 597.245902 309.067888 
L 610.229508 303.742646 
L 623.213115 303.625213 
L 636.196721 303.109578 
L 649.180328 299.195824 
L 662.163934 303.256586 
L 675.147541 298.020794 
L 688.131148 298.729845 
L 701.114754 301.62105 
L 714.098361 301.50849 
L 727.081967 301.272782 
L 740.065574 304.660053 
L 753.04918 308.233073 
L 766.032787 311.577749 
L 779.016393 311.018535 
" clip-path="url(#paffa977015)" style="fill: none; stroke: #000000; stroke-width: 1.5; stroke-linecap: square"/>
   </g>
   <g id="line2d_3">
    <path d="M 0 306 
L 12.983607 306 
L 25.967213 304.483175 
L 38.95082 306.190598 
L 51.934426 310.248725 
L 64.918033 297.523845 
L 77.901639 302.771655 
L 90.885246 304.279067 
L 103.868852 307.911911 
L 116.852459 307.429538 
L 129.836066 304.240243 
L 142.819672 304.059206 
L 155.803279 304.402184 
L 168.786885 308.0763 
L 181.770492 300.019661 
L 194.754098 299.559826 
L 207.737705 301.717947 
L 220.721311 301.780455 
L 233.704918 306.925391 
L 246.688525 305.460021 
L 259.672131 305.67223 
L 272.655738 308.88303 
L 285.639344 305.117241 
L 298.622951 305.870673 
L 311.606557 306.989602 
L 324.590164 308.718644 
L 337.57377 307.370119 
L 350.557377 303.098456 
L 363.540984 304.743646 
L 376.52459 306.489574 
L 389.508197 307.169639 
L 402.491803 308.722586 
L 415.47541 308.817905 
L 428.459016 307.633111 
L 441.442623 307.801596 
L 454.42623 305.788909 
L 467.409836 305.718061 
L 480.393443 307.344495 
L 493.377049 310.636281 
L 506.360656 310.037816 
L 519.344262 309.281292 
L 532.327869 309.470918 
L 545.311475 307.165549 
L 558.295082 309.686071 
L 571.278689 308.206182 
L 584.262295 308.051132 
L 597.245902 308.771374 
L 610.229508 305.734369 
L 623.213115 305.080393 
L 636.196721 304.358054 
L 649.180328 301.691772 
L 662.163934 303.356555 
L 675.147541 300.258773 
L 688.131148 300.014514 
L 701.114754 301.322741 
L 714.098361 301.332542 
L 727.081967 301.241478 
L 740.065574 303.226368 
L 753.04918 305.732042 
L 766.032787 308.414574 
L 779.016393 308.99991 
" clip-path="url(#paffa977015)" style="fill: none; stroke: #000000; stroke-width: 1.5; stroke-linecap: square"/>
   </g>
   <g id="line2d_4">
    <path d="M 0 306 
L 12.983607 306 
L 25.967213 304.59341 
L 38.95082 306.029135 
L 51.934426 309.387242 
L 64.918033 299.804278 
L 77.901639 303.101988 
L 90.885246 304.089488 
L 103.868852 306.596473 
L 116.852459 306.544352 
L 129.836066 304.676694 
L 142.819672 304.482166 
L 155.803279 304.614859 
L 168.786885 306.782678 
L 181.770492 302.244875 
L 194.754098 301.593961 
L 207.737705 302.494464 
L 220.721311 302.402571 
L 233.704918 305.212647 
L 246.688525 304.673027 
L 259.672131 304.927942 
L 272.655738 306.81391 
L 285.639344 305.06959 
L 298.622951 305.494194 
L 311.606557 306.176436 
L 324.590164 307.255183 
L 337.57377 306.74534 
L 350.557377 304.51026 
L 363.540984 305.182422 
L 376.52459 306.070653 
L 389.508197 306.491633 
L 402.491803 307.438804 
L 415.47541 307.694509 
L 428.459016 307.227106 
L 441.442623 307.393132 
L 454.42623 306.360867 
L 467.409836 306.224919 
L 480.393443 307.053978 
L 493.377049 308.877775 
L 506.360656 308.832587 
L 519.344262 308.609509 
L 532.327869 308.823479 
L 545.311475 307.678673 
L 558.295082 308.959488 
L 571.278689 308.27336 
L 584.262295 308.174654 
L 597.245902 308.563667 
L 610.229508 306.9557 
L 623.213115 306.407468 
L 636.196721 305.805691 
L 649.180328 304.119997 
L 662.163934 304.637421 
L 675.147541 302.750226 
L 688.131148 302.217845 
L 701.114754 302.591986 
L 714.098361 302.395923 
L 727.081967 302.175852 
L 740.065574 303.103608 
L 753.04918 304.482679 
L 766.032787 306.152921 
L 779.016393 306.828223 
" clip-path="url(#paffa977015)" style="fill: none; stroke: #000000; stroke-width: 1.5; stroke-linecap: square"/>
   </g>
   <g id="line2d_5">
    <path d="M 0 306 
L 12.983607 306 
L 25.967213 304.649253 
L 38.95082 305.955459 
L 51.934426 308.966787 
L 64.918033 300.825461 
L 77.901639 303.359632 
L 90.885246 304.108616 
L 103.868852 306.067079 
L 116.852459 306.108565 
L 129.836066 304.787089 
L 142.819672 304.631578 
L 155.803279 304.706087 
L 168.786885 306.192348 
L 181.770492 303.191137 
L 194.754098 302.651013 
L 207.737705 303.121251 
L 220.721311 302.994828 
L 233.704918 304.706626 
L 246.688525 304.4229 
L 259.672131 304.604598 
L 272.655738 305.779912 
L 285.639344 304.835536 
L 298.622951 305.109712 
L 311.606557 305.546556 
L 324.590164 306.232833 
L 337.57377 306.033735 
L 350.557377 304.820788 
L 363.540984 305.174141 
L 376.52459 305.675787 
L 389.508197 305.947116 
L 402.491803 306.523384 
L 415.47541 306.746153 
L 428.459016 306.571429 
L 441.442623 306.718616 
L 454.42623 306.214188 
L 467.409836 306.156486 
L 480.393443 306.600662 
L 493.377049 307.626078 
L 506.360656 307.708847 
L 519.344262 307.687833 
L 532.327869 307.880294 
L 545.311475 307.345791 
L 558.295082 308.054734 
L 571.278689 307.765694 
L 584.262295 307.759174 
L 597.245902 307.991228 
L 610.229508 307.186224 
L 623.213115 306.877384 
L 636.196721 306.519115 
L 649.180328 305.575968 
L 662.163934 305.725084 
L 675.147541 304.642713 
L 688.131148 304.209033 
L 701.114754 304.236461 
L 714.098361 303.997704 
L 727.081967 303.750839 
L 740.065574 304.108249 
L 753.04918 304.745971 
L 766.032787 305.593318 
L 779.016393 305.993695 
" clip-path="url(#paffa977015)" style="fill: none; stroke: #000000; stroke-width: 1.5; stroke-linecap: square"/>
   </g>
   <g id="line2d_6">
    <path d="M 0 306 
L 12.983607 306 
L 25.967213 304.677266 
L 38.95082 305.920697 
L 51.934426 308.761773 
L 64.918033 301.298616 
L 77.901639 303.50377 
L 90.885246 304.145532 
L 103.868852 305.848044 
L 116.852459 305.912347 
L 129.836066 304.823247 
L 142.819672 304.690437 
L 155.803279 304.744974 
L 168.786885 305.932668 
L 181.770492 303.58783 
L 194.754098 303.132649 
L 207.737705 303.452134 
L 220.721311 303.329715 
L 233.704918 304.578867 
L 246.688525 304.379953 
L 259.672131 304.514936 
L 272.655738 305.363408 
L 285.639344 304.723739 
L 298.622951 304.923019 
L 311.606557 305.23731 
L 324.590164 305.726392 
L 337.57377 305.623485 
L 350.557377 304.836737 
L 363.540984 305.069942 
L 376.52459 305.405327 
L 389.508197 305.59748 
L 402.491803 305.988767 
L 415.47541 306.161235 
L 428.459016 306.083217 
L 441.442623 306.202497 
L 454.42623 305.916289 
L 467.409836 305.896608 
L 480.393443 306.182979 
L 493.377049 306.829713 
L 506.360656 306.921208 
L 519.344262 306.94914 
L 532.327869 307.1018 
L 545.311475 306.823886 
L 558.295082 307.268452 
L 571.278689 307.138007 
L 584.262295 307.165231 
L 597.245902 307.329088 
L 610.229508 306.896472 
L 623.213115 306.733026 
L 636.196721 306.535058 
L 649.180328 305.997282 
L 662.163934 306.061752 
L 675.147541 305.434774 
L 688.131148 305.153594 
L 701.114754 305.124638 
L 714.098361 304.949927 
L 727.081967 304.768385 
L 740.065574 304.919289 
L 753.04918 305.234047 
L 766.032787 305.67806 
L 779.016393 305.893904 
" clip-path="url(#paffa977015)" style="fill: none; stroke: #000000; stroke-width: 1.5; stroke-linecap: square"/>
   </g>
   <g id="line2d_7">
    <path d="M 0 306 
L 12.983607 306 
L 25.967213 304.691284 
L 38.95082 305.903867 
L 51.934426 308.660888 
L 64.918033 301.525104 
L 77.901639 303.578509 
L 90.885246 304.170206 
L 103.868852 305.750927 
L 116.852459 305.82192 
L 129.836066 304.838176 
L 142.819672 304.71665 
L 155.803279 304.763015 
L 168.786885 305.814677 
L 181.770492 303.764116 
L 194.754098 303.354204 
L 207.737705 303.613649 
L 220.721311 303.497727 
L 233.704918 304.545418 
L 246.688525 304.380393 
L 259.672131 304.492825 
L 272.655738 305.195054 
L 285.639344 304.680528 
L 298.622951 304.844807 
L 311.606557 305.102239 
L 324.590164 305.500179 
L 337.57377 305.429811 
L 350.557377 304.819991 
L 363.540984 305.002911 
L 376.52459 305.265943 
L 389.508197 305.420019 
L 402.491803 305.726603 
L 415.47541 305.86859 
L 428.459016 305.822144 
L 441.442623 305.922028 
L 454.42623 305.720906 
L 467.409836 305.71413 
L 480.393443 305.930898 
L 493.377049 306.410914 
L 506.360656 306.49276 
L 519.344262 306.528654 
L 532.327869 306.652866 
L 545.311475 306.471953 
L 558.295082 306.797617 
L 571.278689 306.722688 
L 584.262295 306.75593 
L 597.245902 306.883227 
L 610.229508 306.600535 
L 623.213115 306.49853 
L 636.196721 306.371539 
L 649.180328 306.013015 
L 662.163934 306.05589 
L 675.147541 305.636454 
L 688.131148 305.442925 
L 701.114754 305.414755 
L 714.098361 305.290696 
L 727.081967 305.161271 
L 740.065574 305.247857 
L 753.04918 305.442389 
L 766.032787 305.723132 
L 779.016393 305.860637 
" clip-path="url(#paffa977015)" style="fill: none; stroke: #000000; stroke-width: 1.5; stroke-linecap: square"/>
   </g>
   <g id="line2d_8">
    <path d="M 0 306 
L 12.983607 306 
L 25.967213 304.698295 
L 38.95082 305.895594 
L 51.934426 308.610888 
L 64.918033 301.635752 
L 77.901639 303.616396 
L 90.885246 304.183991 
L 103.868852 305.70553 
L 116.852459 305.778858 
L 129.836066 304.845069 
L 142.819672 304.729085 
L 155.803279 304.771761 
L 168.786885 305.758967 
L 181.770492 303.846594 
L 194.754098 303.459435 
L 207.737705 303.69241 
L 220.721311 303.580614 
L 233.704918 304.535652 
L 246.688525 304.385728 
L 259.672131 304.487466 
L 272.655738 305.121968 
L 285.639344 304.663207 
L 298.622951 304.811011 
L 311.606557 305.041806 
L 324.590164 305.397194 
L 337.57377 305.339647 
L 350.557377 304.808082 
L 363.540984 304.968429 
L 376.52459 305.198623 
L 389.508197 305.33466 
L 402.491803 305.602173 
L 415.47541 305.728599 
L 428.459016 305.693936 
L 441.442623 305.783377 
L 454.42623 305.617798 
L 467.409836 305.615525 
L 480.393443 305.800705 
L 493.377049 306.206065 
L 506.360656 306.280584 
L 519.344262 306.31683 
L 532.327869 306.425689 
L 545.311475 306.28373 
L 558.295082 306.555652 
L 571.278689 306.501471 
L 584.262295 306.534624 
L 597.245902 306.643577 
L 610.229508 306.422516 
L 623.213115 306.345477 
L 636.196721 306.248091 
L 649.180328 305.966168 
L 662.163934 306.001316 
L 675.147541 305.671769 
L 688.131148 305.518811 
L 701.114754 305.494913 
L 714.098361 305.396248 
L 727.081967 305.293209 
L 740.065574 305.357129 
L 753.04918 305.504578 
L 766.032787 305.718783 
L 779.016393 305.824098 
" clip-path="url(#paffa977015)" style="fill: none; stroke: #000000; stroke-width: 1.5; stroke-linecap: square"/>
   </g>
   <g id="line2d_9">
    <path d="M 0 306 
L 12.983607 306 
L 25.967213 304.7018 
L 38.95082 305.891494 
L 51.934426 308.586004 
L 64.918033 301.690419 
L 77.901639 303.63545 
L 90.885246 304.191231 
L 103.868852 305.683626 
L 116.852459 305.757891 
L 129.836066 304.848399 
L 142.819672 304.735152 
L 155.803279 304.776077 
L 168.786885 305.731969 
L 181.770492 303.886415 
L 194.754098 303.510593 
L 207.737705 303.731176 
L 220.721311 303.621627 
L 233.704918 304.532397 
L 246.688525 304.389596 
L 259.672131 304.486171 
L 272.655738 305.088261 
L 285.639344 304.655711 
L 298.622951 304.795583 
L 311.606557 305.013584 
L 324.590164 305.348578 
L 337.57377 305.296663 
L 350.557377 304.801617 
L 363.540984 304.951336 
L 376.52459 305.166016 
L 389.508197 305.293369 
L 402.491803 305.542323 
L 415.47541 305.661038 
L 428.459016 305.631355 
L 441.442623 305.715506 
L 454.42623 305.565935 
L 467.409836 305.565439 
L 480.393443 305.735754 
L 493.377049 306.1063 
L 506.360656 306.176738 
L 519.344262 306.212422 
L 532.327869 306.313541 
L 545.311475 306.188654 
L 558.295082 306.435464 
L 571.278689 306.389957 
L 584.262295 306.42239 
L 597.245902 306.522343 
L 610.229508 306.328501 
L 623.213115 306.262312 
L 636.196721 306.177969 
L 649.180328 305.930405 
L 662.163934 305.962197 
L 675.147541 305.673166 
L 688.131148 305.538896 
L 701.114754 305.517543 
L 714.098361 305.430878 
L 727.081967 305.340358 
L 740.065574 305.394982 
L 753.04918 305.522146 
L 766.032787 305.707214 
L 779.016393 305.798392 
" clip-path="url(#paffa977015)" style="fill: none; stroke: #000000; stroke-width: 1.5; stroke-linecap: square"/>
   </g>
  </g>
 </g>
 <defs>
  <clipPath id="paffa977015">
   <rect x="0" y="0" width="792" height="612"/>
  </clipPath>
 </defs>
</svg>
