<?xml version="1.0" encoding="utf-8" standalone="no"?>
<!DOCTYPE svg PUBLIC "-//W3C//DTD SVG 1.1//EN"
  "http://www.w3.org/Graphics/SVG/1.1/DTD/svg11.dtd">
<svg xmlns:xlink="http://www.w3.org/1999/xlink" width="792pt" height="612pt" viewBox="0 0 792 612" xmlns="http://www.w3.org/2000/svg" version="1.1">
 <metadata>
  <rdf:RDF xmlns:dc="http://purl.org/dc/elements/1.1/" xmlns:cc="http://creativecommons.org/ns#" xmlns:rdf="http://www.w3.org/1999/02/22-rdf-syntax-ns#">
   <cc:Work>
    <dc:type rdf:resource="http://purl.org/dc/dcmitype/StillImage"/>
    <dc:date>2022-12-19T20:27:05.520178</dc:date>
    <dc:format>image/svg+xml</dc:format>
    <dc:creator>
     <cc:Agent>
      <dc:title>Matplotlib v3.6.2, https://matplotlib.org/</dc:title>
     </cc:Agent>
    </dc:creator>
   </cc:Work>
  </rdf:RDF>
 </metadata>
 <defs>
  <style type="text/css">*{stroke-linejoin: round; stroke-linecap: butt}</style>
 </defs>
 <g id="figure_1">
  <g id="patch_1">
   <path d="M 0 612 
L 792 612 
L 792 0 
L 0 0 
z
" style="fill: #ffffff"/>
  </g>
  <g id="axes_1">
   <g id="line2d_1">
    <path d="M 0 306 
L 41.684211 307.524512 
L 83.368421 305.817487 
L 125.052632 302.210354 
L 166.736842 306.010736 
L 208.421053 305.065963 
L 250.105263 307.1917 
L 291.789474 306 
L 333.473684 309.553486 
L 375.157895 307.202436 
L 416.842105 306.676372 
L 458.526316 301.265763 
L 500.210526 306 
L 541.894737 306.955509 
L 583.578947 306.644164 
L 625.263158 306 
L 666.947368 305.087435 
L 708.631579 306.203986 
L 750.315789 313.427914 
" clip-path="url(#pcbe7d7bcf2)" style="fill: none; stroke: #000000; stroke-width: 1.5; stroke-linecap: square"/>
   </g>
   <g id="line2d_2">
    <path d="M 0 306 
L 41.684211 306 
L 83.368421 307.016346 
L 125.052632 306.331285 
L 166.736842 304.133375 
L 208.421053 305.102327 
L 250.105263 305.083857 
L 291.789474 306.146078 
L 333.473684 306.072753 
L 375.157895 307.820146 
L 416.842105 307.510661 
L 458.526316 307.095203 
L 500.210526 304.178465 
L 541.894737 305.089203 
L 583.578947 306.026061 
L 625.263158 306.33404 
L 666.947368 306.16702 
L 708.631579 305.618469 
L 750.315789 305.90927 
" clip-path="url(#pcbe7d7bcf2)" style="fill: none; stroke: #000000; stroke-width: 1.5; stroke-linecap: square"/>
   </g>
   <g id="line2d_3">
    <path d="M 0 306 
L 41.684211 306 
L 83.368421 306.893043 
L 125.052632 306.405729 
L 166.736842 304.767265 
L 208.421053 305.209675 
L 250.105263 305.161569 
L 291.789474 305.813834 
L 333.473684 305.871996 
L 375.157895 307.000182 
L 416.842105 307.061332 
L 458.526316 306.946032 
L 500.210526 305.255803 
L 541.894737 305.476208 
L 583.578947 305.912897 
L 625.263158 306.12827 
L 666.947368 306.090554 
L 708.631579 305.795698 
L 750.315789 305.913766 
" clip-path="url(#pcbe7d7bcf2)" style="fill: none; stroke: #000000; stroke-width: 1.5; stroke-linecap: square"/>
   </g>
   <g id="line2d_4">
    <path d="M 0 306 
L 41.684211 306 
L 83.368421 306.82814 
L 125.052632 306.431496 
L 166.736842 305.08824 
L 208.421053 305.34149 
L 250.105263 305.273678 
L 291.789474 305.707953 
L 333.473684 305.769907 
L 375.157895 306.532156 
L 416.842105 306.661701 
L 458.526316 306.664443 
L 500.210526 305.682719 
L 541.894737 305.739129 
L 583.578947 305.951424 
L 625.263158 306.070491 
L 666.947368 306.058528 
L 708.631579 305.895453 
L 750.315789 305.946811 
" clip-path="url(#pcbe7d7bcf2)" style="fill: none; stroke: #000000; stroke-width: 1.5; stroke-linecap: square"/>
   </g>
   <g id="line2d_5">
    <path d="M 0 306 
L 41.684211 306 
L 83.368421 306.795262 
L 125.052632 306.440727 
L 166.736842 305.24193 
L 208.421053 305.423418 
L 250.105263 305.350237 
L 291.789474 305.686324 
L 333.473684 305.738392 
L 375.157895 306.323159 
L 416.842105 306.449079 
L 458.526316 306.47978 
L 500.210526 305.810315 
L 541.894737 305.833611 
L 583.578947 305.966119 
L 625.263158 306.043487 
L 666.947368 306.038674 
L 708.631579 305.936242 
L 750.315789 305.964379 
" clip-path="url(#pcbe7d7bcf2)" style="fill: none; stroke: #000000; stroke-width: 1.5; stroke-linecap: square"/>
   </g>
   <g id="line2d_6">
    <path d="M 0 306 
L 41.684211 306 
L 83.368421 306.778769 
L 125.052632 306.444365 
L 166.736842 305.316068 
L 208.421053 305.467292 
L 250.105263 305.392956 
L 291.789474 305.684488 
L 333.473684 305.730159 
L 375.157895 306.232225 
L 416.842105 306.349222 
L 458.526316 306.385812 
L 500.210526 305.850313 
L 541.894737 305.865051 
L 583.578947 305.966717 
L 625.263158 306.026821 
L 666.947368 306.024547 
L 708.631579 305.948317 
L 750.315789 305.968335 
" clip-path="url(#pcbe7d7bcf2)" style="fill: none; stroke: #000000; stroke-width: 1.5; stroke-linecap: square"/>
   </g>
   <g id="line2d_7">
    <path d="M 0 306 
L 41.684211 306 
L 83.368421 306.770516 
L 125.052632 306.445935 
L 166.736842 305.352342 
L 208.421053 305.489786 
L 250.105263 305.415269 
L 291.789474 305.68583 
L 333.473684 305.728142 
L 375.157895 306.190944 
L 416.842105 306.302235 
L 458.526316 306.340049 
L 500.210526 305.864985 
L 541.894737 305.876774 
L 583.578947 305.965139 
L 625.263158 306.017589 
L 666.947368 306.016302 
L 708.631579 305.951689 
L 750.315789 305.968433 
" clip-path="url(#pcbe7d7bcf2)" style="fill: none; stroke: #000000; stroke-width: 1.5; stroke-linecap: square"/>
   </g>
   <g id="line2d_8">
    <path d="M 0 306 
L 41.684211 306 
L 83.368421 306.766388 
L 125.052632 306.446657 
L 166.736842 305.370266 
L 208.421053 305.501149 
L 250.105263 305.42664 
L 291.789474 305.687058 
L 333.473684 305.727675 
L 375.157895 306.17143 
L 416.842105 306.279628 
L 458.526316 306.317681 
L 500.210526 305.871127 
L 541.894737 305.881697 
L 583.578947 305.963914 
L 625.263158 306.012782 
L 666.947368 306.011917 
L 708.631579 305.952697 
L 750.315789 305.967979 
" clip-path="url(#pcbe7d7bcf2)" style="fill: none; stroke: #000000; stroke-width: 1.5; stroke-linecap: square"/>
   </g>
   <g id="line2d_9">
    <path d="M 0 306 
L 41.684211 306 
L 83.368421 306.764325 
L 125.052632 306.447002 
L 166.736842 305.379174 
L 208.421053 305.506857 
L 250.105263 305.432377 
L 291.789474 305.68781 
L 333.473684 305.727578 
L 375.157895 306.161963 
L 416.842105 306.268564 
L 458.526316 306.30665 
L 500.210526 305.87392 
L 541.894737 305.883936 
L 583.578947 305.963201 
L 625.263158 306.010339 
L 666.947368 306.009666 
L 708.631579 305.953036 
L 750.315789 305.967628 
" clip-path="url(#pcbe7d7bcf2)" style="fill: none; stroke: #000000; stroke-width: 1.5; stroke-linecap: square"/>
   </g>
  </g>
 </g>
 <defs>
  <clipPath id="pcbe7d7bcf2">
   <rect x="0" y="0" width="792" height="612"/>
  </clipPath>
 </defs>
</svg>
