<?xml version="1.0" encoding="utf-8" standalone="no"?>
<!DOCTYPE svg PUBLIC "-//W3C//DTD SVG 1.1//EN"
  "http://www.w3.org/Graphics/SVG/1.1/DTD/svg11.dtd">
<svg xmlns:xlink="http://www.w3.org/1999/xlink" width="792pt" height="612pt" viewBox="0 0 792 612" xmlns="http://www.w3.org/2000/svg" version="1.1">
 <metadata>
  <rdf:RDF xmlns:dc="http://purl.org/dc/elements/1.1/" xmlns:cc="http://creativecommons.org/ns#" xmlns:rdf="http://www.w3.org/1999/02/22-rdf-syntax-ns#">
   <cc:Work>
    <dc:type rdf:resource="http://purl.org/dc/dcmitype/StillImage"/>
    <dc:date>2023-01-30T17:15:34.431676</dc:date>
    <dc:format>image/svg+xml</dc:format>
    <dc:creator>
     <cc:Agent>
      <dc:title>Matplotlib v3.6.2, https://matplotlib.org/</dc:title>
     </cc:Agent>
    </dc:creator>
   </cc:Work>
  </rdf:RDF>
 </metadata>
 <defs>
  <style type="text/css">*{stroke-linejoin: round; stroke-linecap: butt}</style>
 </defs>
 <g id="figure_1">
  <g id="patch_1">
   <path d="M 0 612 
L 792 612 
L 792 0 
L 0 0 
z
" style="fill: #ffffff"/>
  </g>
  <g id="axes_1">
   <g id="line2d_1">
    <path d="M 0 459 
L 46.588235 460.144349 
L 93.176471 459.133604 
L 139.764706 459.435666 
L 186.352941 460.010745 
L 232.941176 457.257345 
L 279.529412 452.953309 
L 326.117647 438.432932 
L 372.705882 447.27443 
L 419.294118 440.729125 
L 465.882353 442.417069 
L 512.470588 445.881322 
L 559.058824 444.471046 
L 605.647059 448.493578 
L 652.235294 457.257345 
L 698.823529 459.790007 
L 745.411765 459.087133 
" clip-path="url(#pf9d78ce856)" style="fill: none; stroke: #000000; stroke-width: 1.5; stroke-linecap: square"/>
   </g>
   <g id="line2d_2">
    <path d="M 0 459 
L 46.588235 459 
L 93.176471 459.762899 
L 139.764706 459.403302 
L 186.352941 459.420563 
L 232.941176 459.725173 
L 279.529412 459.061777 
L 326.117647 456.044649 
L 372.705882 447.19992 
L 419.294118 447.214194 
L 465.882353 443.928379 
L 512.470588 443.139405 
L 559.058824 444.48197 
L 605.647059 444.442099 
L 652.235294 446.45042 
L 698.823529 451.86133 
L 745.411765 456.66041 
" clip-path="url(#pf9d78ce856)" style="fill: none; stroke: #000000; stroke-width: 1.5; stroke-linecap: square"/>
   </g>
   <g id="line2d_3">
    <path d="M 0 459 
L 46.588235 459 
L 93.176471 459.670344 
L 139.764706 459.427157 
L 186.352941 459.43048 
L 232.941176 459.636931 
L 279.529412 459.229284 
L 326.117647 457.523993 
L 372.705882 451.555918 
L 419.294118 450.243744 
L 465.882353 447.365912 
L 512.470588 445.88334 
L 559.058824 445.882739 
L 605.647059 445.464618 
L 652.235294 446.358654 
L 698.823529 449.567609 
L 745.411765 453.03741 
" clip-path="url(#pf9d78ce856)" style="fill: none; stroke: #000000; stroke-width: 1.5; stroke-linecap: square"/>
   </g>
   <g id="line2d_4">
    <path d="M 0 459 
L 46.588235 459 
L 93.176471 459.621626 
L 139.764706 459.430095 
L 186.352941 459.431867 
L 232.941176 459.590786 
L 279.529412 459.302413 
L 326.117647 458.332666 
L 372.705882 454.108435 
L 419.294118 452.731424 
L 465.882353 450.410573 
L 512.470588 448.916172 
L 559.058824 448.364264 
L 605.647059 447.671954 
L 652.235294 447.815347 
L 698.823529 449.437772 
L 745.411765 451.462329 
" clip-path="url(#pf9d78ce856)" style="fill: none; stroke: #000000; stroke-width: 1.5; stroke-linecap: square"/>
   </g>
   <g id="line2d_5">
    <path d="M 0 459 
L 46.588235 459 
L 93.176471 459.596946 
L 139.764706 459.428941 
L 186.352941 459.430847 
L 232.941176 459.56774 
L 279.529412 459.332584 
L 326.117647 458.712004 
L 372.705882 455.343632 
L 419.294118 454.106585 
L 465.882353 452.189795 
L 512.470588 450.869195 
L 559.058824 450.22868 
L 605.647059 449.521381 
L 652.235294 449.399982 
L 698.823529 450.296338 
L 745.411765 451.5215 
" clip-path="url(#pf9d78ce856)" style="fill: none; stroke: #000000; stroke-width: 1.5; stroke-linecap: square"/>
   </g>
   <g id="line2d_6">
    <path d="M 0 459 
L 46.588235 459 
L 93.176471 459.584566 
L 139.764706 459.427688 
L 186.352941 459.429814 
L 232.941176 459.556278 
L 279.529412 459.345648 
L 326.117647 458.888807 
L 372.705882 455.925841 
L 419.294118 454.789557 
L 465.882353 453.093081 
L 512.470588 451.898505 
L 559.058824 451.269073 
L 605.647059 450.599551 
L 652.235294 450.403192 
L 698.823529 451.011192 
L 745.411765 451.889383 
" clip-path="url(#pf9d78ce856)" style="fill: none; stroke: #000000; stroke-width: 1.5; stroke-linecap: square"/>
   </g>
   <g id="line2d_7">
    <path d="M 0 459 
L 46.588235 459 
L 93.176471 459.578371 
L 139.764706 459.426893 
L 186.352941 459.429158 
L 232.941176 459.550568 
L 279.529412 459.351635 
L 326.117647 458.973238 
L 372.705882 456.205065 
L 419.294118 455.124406 
L 465.882353 453.539675 
L 512.470588 452.414997 
L 559.058824 451.803193 
L 605.647059 451.162808 
L 652.235294 450.944135 
L 698.823529 451.431708 
L 745.411765 452.158662 
" clip-path="url(#pf9d78ce856)" style="fill: none; stroke: #000000; stroke-width: 1.5; stroke-linecap: square"/>
   </g>
   <g id="line2d_8">
    <path d="M 0 459 
L 46.588235 459 
L 93.176471 459.575273 
L 139.764706 459.426453 
L 186.352941 459.428793 
L 232.941176 459.547718 
L 279.529412 459.354488 
L 326.117647 459.004792 
L 372.705882 456.341367 
L 419.294118 455.289496 
L 465.882353 453.760619 
L 512.470588 452.672145 
L 559.058824 452.071774 
L 605.647059 451.44816 
L 652.235294 451.221917 
L 698.823529 451.655429 
L 745.411765 452.313037 
" clip-path="url(#pf9d78ce856)" style="fill: none; stroke: #000000; stroke-width: 1.5; stroke-linecap: square"/>
   </g>
   <g id="line2d_9">
    <path d="M 0 459 
L 46.588235 459 
L 93.176471 459.573724 
L 139.764706 459.426222 
L 186.352941 459.428602 
L 232.941176 459.546295 
L 279.529412 459.355879 
L 326.117647 459.011556 
L 372.705882 456.408651 
L 419.294118 455.371376 
L 465.882353 453.87037 
L 512.470588 452.800249 
L 559.058824 452.20619 
L 605.647059 451.591456 
L 652.235294 451.362279 
L 698.823529 451.770296 
L 745.411765 452.394851 
" clip-path="url(#pf9d78ce856)" style="fill: none; stroke: #000000; stroke-width: 1.5; stroke-linecap: square"/>
   </g>
  </g>
 </g>
 <defs>
  <clipPath id="pf9d78ce856">
   <rect x="0" y="0" width="792" height="612"/>
  </clipPath>
 </defs>
</svg>
