<?xml version="1.0" encoding="utf-8" standalone="no"?>
<!DOCTYPE svg PUBLIC "-//W3C//DTD SVG 1.1//EN"
  "http://www.w3.org/Graphics/SVG/1.1/DTD/svg11.dtd">
<svg xmlns:xlink="http://www.w3.org/1999/xlink" width="792pt" height="612pt" viewBox="0 0 792 612" xmlns="http://www.w3.org/2000/svg" version="1.1">
 <metadata>
  <rdf:RDF xmlns:dc="http://purl.org/dc/elements/1.1/" xmlns:cc="http://creativecommons.org/ns#" xmlns:rdf="http://www.w3.org/1999/02/22-rdf-syntax-ns#">
   <cc:Work>
    <dc:type rdf:resource="http://purl.org/dc/dcmitype/StillImage"/>
    <dc:date>2023-01-16T16:10:11.383265</dc:date>
    <dc:format>image/svg+xml</dc:format>
    <dc:creator>
     <cc:Agent>
      <dc:title>Matplotlib v3.6.2, https://matplotlib.org/</dc:title>
     </cc:Agent>
    </dc:creator>
   </cc:Work>
  </rdf:RDF>
 </metadata>
 <defs>
  <style type="text/css">*{stroke-linejoin: round; stroke-linecap: butt}</style>
 </defs>
 <g id="figure_1">
  <g id="patch_1">
   <path d="M 0 612 
L 792 612 
L 792 0 
L 0 0 
z
" style="fill: #ffffff"/>
  </g>
  <g id="axes_1">
   <g id="line2d_1">
    <path d="M 0 459 
L 44 459.547046 
L 88 458.032595 
L 132 459.253368 
L 176 460.024991 
L 220 460.330184 
L 264 461.464584 
L 308 460.462627 
L 352 460.762062 
L 396 461.332142 
L 440 459.754347 
L 484 456.996099 
L 528 442.595624 
L 572 451.3651 
L 616 444.873413 
L 660 446.547693 
L 704 449.983546 
L 748 448.584889 
" clip-path="url(#p5ecabd52e3)" style="fill: none; stroke: #000000; stroke-width: 1.5; stroke-linecap: square"/>
   </g>
   <g id="line2d_2">
    <path d="M 0 459 
L 44 459 
L 88 459.364697 
L 132 458.916092 
L 176 459.122078 
L 220 459.588097 
L 264 459.96503 
L 308 460.720711 
L 352 460.591163 
L 396 460.680068 
L 440 461.009605 
L 484 460.384087 
L 528 459.356251 
L 572 451.29121 
L 616 451.305365 
L 660 448.046672 
L 704 447.264147 
L 748 448.595723 
" clip-path="url(#p5ecabd52e3)" style="fill: none; stroke: #000000; stroke-width: 1.5; stroke-linecap: square"/>
   </g>
   <g id="line2d_3">
    <path d="M 0 459 
L 44 459 
L 88 459.320452 
L 132 459.029156 
L 176 459.116716 
L 220 459.43987 
L 264 459.737889 
L 308 460.292662 
L 352 460.345762 
L 396 460.473332 
L 440 460.732985 
L 484 460.439872 
L 528 459.812699 
L 572 455.855588 
L 616 454.529897 
L 660 451.685072 
L 704 450.17422 
L 748 450.108019 
" clip-path="url(#p5ecabd52e3)" style="fill: none; stroke: #000000; stroke-width: 1.5; stroke-linecap: square"/>
   </g>
   <g id="line2d_4">
    <path d="M 0 459 
L 44 459 
L 88 459.297163 
L 132 459.053979 
L 176 459.117426 
L 220 459.366579 
L 264 459.603742 
L 308 460.02507 
L 352 460.117893 
L 396 460.247663 
L 440 460.457259 
L 484 460.325896 
L 528 459.963346 
L 572 458.45841 
L 616 457.2203 
L 660 455.097455 
L 704 453.646117 
L 748 453.031004 
" clip-path="url(#p5ecabd52e3)" style="fill: none; stroke: #000000; stroke-width: 1.5; stroke-linecap: square"/>
   </g>
   <g id="line2d_5">
    <path d="M 0 459 
L 44 459 
L 88 459.285365 
L 132 459.064968 
L 176 459.118354 
L 220 459.33238 
L 264 459.536658 
L 308 459.888525 
L 352 459.983821 
L 396 460.103103 
L 440 460.27911 
L 484 460.208228 
L 528 459.967347 
L 572 459.1767 
L 616 458.565645 
L 660 457.002814 
L 704 455.845537 
L 748 455.214221 
" clip-path="url(#p5ecabd52e3)" style="fill: none; stroke: #000000; stroke-width: 1.5; stroke-linecap: square"/>
   </g>
   <g id="line2d_6">
    <path d="M 0 459 
L 44 459 
L 88 459.279447 
L 132 459.070056 
L 176 459.118904 
L 220 459.316152 
L 264 459.503975 
L 308 459.821741 
L 352 459.91451 
L 396 460.025803 
L 440 460.183333 
L 484 460.135354 
L 528 459.946761 
L 572 459.314932 
L 616 459.048277 
L 660 457.878257 
L 704 456.917252 
L 748 456.353154 
" clip-path="url(#p5ecabd52e3)" style="fill: none; stroke: #000000; stroke-width: 1.5; stroke-linecap: square"/>
   </g>
   <g id="line2d_7">
    <path d="M 0 459 
L 44 459 
L 88 459.276485 
L 132 459.072494 
L 176 459.119192 
L 220 459.308284 
L 264 459.487955 
L 308 459.789007 
L 352 459.879729 
L 396 459.986472 
L 440 460.13453 
L 484 460.096105 
L 528 459.930961 
L 572 459.37204 
L 616 459.133074 
L 660 458.27686 
L 704 457.418542 
L 748 456.901284 
" clip-path="url(#p5ecabd52e3)" style="fill: none; stroke: #000000; stroke-width: 1.5; stroke-linecap: square"/>
   </g>
   <g id="line2d_8">
    <path d="M 0 459 
L 44 459 
L 88 459.275004 
L 132 459.073685 
L 176 459.119339 
L 220 459.304414 
L 264 459.480038 
L 308 459.772838 
L 352 459.862365 
L 396 459.966717 
L 440 460.110009 
L 484 460.075897 
L 528 459.921763 
L 572 459.397471 
L 616 459.172165 
L 660 458.464234 
L 704 457.65723 
L 748 457.165607 
" clip-path="url(#p5ecabd52e3)" style="fill: none; stroke: #000000; stroke-width: 1.5; stroke-linecap: square"/>
   </g>
   <g id="line2d_9">
    <path d="M 0 459 
L 44 459 
L 88 459.274263 
L 132 459.074274 
L 176 459.119412 
L 220 459.302495 
L 264 459.476104 
L 308 459.764808 
L 352 459.853697 
L 396 459.956827 
L 440 460.097734 
L 484 460.065665 
L 528 459.916854 
L 572 459.4094 
L 616 459.190848 
L 660 458.554714 
L 704 457.773217 
L 748 457.294816 
" clip-path="url(#p5ecabd52e3)" style="fill: none; stroke: #000000; stroke-width: 1.5; stroke-linecap: square"/>
   </g>
  </g>
 </g>
 <defs>
  <clipPath id="p5ecabd52e3">
   <rect x="0" y="0" width="792" height="612"/>
  </clipPath>
 </defs>
</svg>
