<?xml version="1.0" encoding="utf-8" standalone="no"?>
<!DOCTYPE svg PUBLIC "-//W3C//DTD SVG 1.1//EN"
  "http://www.w3.org/Graphics/SVG/1.1/DTD/svg11.dtd">
<svg xmlns:xlink="http://www.w3.org/1999/xlink" width="792pt" height="612pt" viewBox="0 0 792 612" xmlns="http://www.w3.org/2000/svg" version="1.1">
 <metadata>
  <rdf:RDF xmlns:dc="http://purl.org/dc/elements/1.1/" xmlns:cc="http://creativecommons.org/ns#" xmlns:rdf="http://www.w3.org/1999/02/22-rdf-syntax-ns#">
   <cc:Work>
    <dc:type rdf:resource="http://purl.org/dc/dcmitype/StillImage"/>
    <dc:date>2023-01-30T17:15:35.425793</dc:date>
    <dc:format>image/svg+xml</dc:format>
    <dc:creator>
     <cc:Agent>
      <dc:title>Matplotlib v3.6.2, https://matplotlib.org/</dc:title>
     </cc:Agent>
    </dc:creator>
   </cc:Work>
  </rdf:RDF>
 </metadata>
 <defs>
  <style type="text/css">*{stroke-linejoin: round; stroke-linecap: butt}</style>
 </defs>
 <g id="figure_1">
  <g id="patch_1">
   <path d="M 0 612 
L 792 612 
L 792 0 
L 0 0 
z
" style="fill: #ffffff"/>
  </g>
  <g id="axes_1">
   <g id="line2d_1">
    <path d="M 0 306 
L 46.588235 308.288655 
L 93.176471 303.97854 
L 139.764706 306.604122 
L 186.352941 307.150152 
L 232.941176 302.81685 
L 279.529412 303.130499 
L 326.117647 296.314031 
L 372.705882 311.901087 
L 419.294118 301.632022 
L 465.882353 307.126917 
L 512.470588 308.311889 
L 559.058824 305.058965 
L 605.647059 308.683632 
L 652.235294 311.84302 
L 698.823529 308.741716 
L 745.411765 304.594262 
" clip-path="url(#pef0fb8c166)" style="fill: none; stroke: #000000; stroke-width: 1.5; stroke-linecap: square"/>
   </g>
   <g id="line2d_2">
    <path d="M 0 306 
L 46.588235 306 
L 93.176471 307.525786 
L 139.764706 305.498777 
L 186.352941 306.088295 
L 232.941176 306.636352 
L 279.529412 304.696238 
L 326.117647 303.90719 
L 372.705882 300.094814 
L 419.294118 306.009522 
L 465.882353 303.807608 
L 512.470588 305.47342 
L 559.058824 306.896022 
L 605.647059 305.973393 
L 652.235294 307.340042 
L 698.823529 309.608808 
L 745.411765 309.19964 
" clip-path="url(#pef0fb8c166)" style="fill: none; stroke: #000000; stroke-width: 1.5; stroke-linecap: square"/>
   </g>
   <g id="line2d_3">
    <path d="M 0 306 
L 46.588235 306 
L 93.176471 307.340679 
L 139.764706 305.817347 
L 186.352941 306.124602 
L 232.941176 306.489482 
L 279.529412 305.260087 
L 326.117647 304.57585 
L 372.705882 301.993908 
L 419.294118 305.029892 
L 465.882353 304.002511 
L 512.470588 304.938293 
L 559.058824 305.942091 
L 605.647059 305.680539 
L 652.235294 306.56707 
L 698.823529 308.121119 
L 745.411765 308.303603 
" clip-path="url(#pef0fb8c166)" style="fill: none; stroke: #000000; stroke-width: 1.5; stroke-linecap: square"/>
   </g>
   <g id="line2d_4">
    <path d="M 0 306 
L 46.588235 306 
L 93.176471 307.243245 
L 139.764706 305.961958 
L 186.352941 306.166299 
L 232.941176 306.436396 
L 279.529412 305.545525 
L 326.117647 304.998704 
L 372.705882 303.155746 
L 419.294118 304.917617 
L 465.882353 304.28257 
L 512.470588 304.814126 
L 559.058824 305.450137 
L 605.647059 305.38059 
L 652.235294 305.957081 
L 698.823529 306.968866 
L 745.411765 307.269745 
" clip-path="url(#pef0fb8c166)" style="fill: none; stroke: #000000; stroke-width: 1.5; stroke-linecap: square"/>
   </g>
   <g id="line2d_5">
    <path d="M 0 306 
L 46.588235 306 
L 93.176471 307.193887 
L 139.764706 306.028013 
L 186.352941 306.191263 
L 232.941176 306.417624 
L 279.529412 305.680422 
L 326.117647 305.215021 
L 372.705882 303.737031 
L 419.294118 304.988425 
L 465.882353 304.50773 
L 512.470588 304.861511 
L 559.058824 305.3045 
L 605.647059 305.274345 
L 652.235294 305.677024 
L 698.823529 306.380668 
L 745.411765 306.641952 
" clip-path="url(#pef0fb8c166)" style="fill: none; stroke: #000000; stroke-width: 1.5; stroke-linecap: square"/>
   </g>
   <g id="line2d_6">
    <path d="M 0 306 
L 46.588235 306 
L 93.176471 307.169127 
L 139.764706 306.059199 
L 186.352941 306.204407 
L 232.941176 306.410289 
L 279.529412 305.744678 
L 326.117647 305.320972 
L 372.705882 304.016763 
L 419.294118 305.052137 
L 465.882353 304.639679 
L 512.470588 304.917858 
L 559.058824 305.272811 
L 605.647059 305.251756 
L 652.235294 305.571721 
L 698.823529 306.128182 
L 745.411765 306.349799 
" clip-path="url(#pef0fb8c166)" style="fill: none; stroke: #000000; stroke-width: 1.5; stroke-linecap: square"/>
   </g>
   <g id="line2d_7">
    <path d="M 0 306 
L 46.588235 306 
L 93.176471 307.156736 
L 139.764706 306.074303 
L 186.352941 306.211092 
L 232.941176 306.407128 
L 279.529412 305.775864 
L 326.117647 305.372948 
L 372.705882 304.152486 
L 419.294118 305.08997 
L 465.882353 304.709481 
L 512.470588 304.95381 
L 559.058824 305.268178 
L 605.647059 305.249911 
L 652.235294 305.53119 
L 698.823529 306.018789 
L 745.411765 306.218002 
" clip-path="url(#pef0fb8c166)" style="fill: none; stroke: #000000; stroke-width: 1.5; stroke-linecap: square"/>
   </g>
   <g id="line2d_8">
    <path d="M 0 306 
L 46.588235 306 
L 93.176471 307.15054 
L 139.764706 306.081729 
L 186.352941 306.214457 
L 232.941176 306.405672 
L 279.529412 305.791204 
L 326.117647 305.398631 
L 372.705882 304.219147 
L 419.294118 305.110207 
L 465.882353 304.745167 
L 512.470588 304.973602 
L 559.058824 305.268663 
L 605.647059 305.251463 
L 652.235294 305.514252 
L 698.823529 305.968953 
L 745.411765 306.156686 
" clip-path="url(#pef0fb8c166)" style="fill: none; stroke: #000000; stroke-width: 1.5; stroke-linecap: square"/>
   </g>
   <g id="line2d_9">
    <path d="M 0 306 
L 46.588235 306 
L 93.176471 307.147442 
L 139.764706 306.08541 
L 186.352941 306.216143 
L 232.941176 306.404975 
L 279.529412 305.79881 
L 326.117647 305.41139 
L 372.705882 304.252157 
L 419.294118 305.120632 
L 465.882353 304.763183 
L 512.470588 304.983931 
L 559.058824 305.269597 
L 605.647059 305.252863 
L 652.235294 305.506641 
L 698.823529 305.945315 
L 745.411765 306.127282 
" clip-path="url(#pef0fb8c166)" style="fill: none; stroke: #000000; stroke-width: 1.5; stroke-linecap: square"/>
   </g>
  </g>
 </g>
 <defs>
  <clipPath id="pef0fb8c166">
   <rect x="0" y="0" width="792" height="612"/>
  </clipPath>
 </defs>
</svg>
