<?xml version="1.0" encoding="utf-8" standalone="no"?>
<!DOCTYPE svg PUBLIC "-//W3C//DTD SVG 1.1//EN"
  "http://www.w3.org/Graphics/SVG/1.1/DTD/svg11.dtd">
<svg xmlns:xlink="http://www.w3.org/1999/xlink" width="792pt" height="612pt" viewBox="0 0 792 612" xmlns="http://www.w3.org/2000/svg" version="1.1">
 <metadata>
  <rdf:RDF xmlns:dc="http://purl.org/dc/elements/1.1/" xmlns:cc="http://creativecommons.org/ns#" xmlns:rdf="http://www.w3.org/1999/02/22-rdf-syntax-ns#">
   <cc:Work>
    <dc:type rdf:resource="http://purl.org/dc/dcmitype/StillImage"/>
    <dc:date>2023-01-23T15:50:06.303862</dc:date>
    <dc:format>image/svg+xml</dc:format>
    <dc:creator>
     <cc:Agent>
      <dc:title>Matplotlib v3.6.2, https://matplotlib.org/</dc:title>
     </cc:Agent>
    </dc:creator>
   </cc:Work>
  </rdf:RDF>
 </metadata>
 <defs>
  <style type="text/css">*{stroke-linejoin: round; stroke-linecap: butt}</style>
 </defs>
 <g id="figure_1">
  <g id="patch_1">
   <path d="M 0 612 
L 792 612 
L 792 0 
L 0 0 
z
" style="fill: #ffffff"/>
  </g>
  <g id="axes_1">
   <g id="line2d_1">
    <path d="M 0 306 
L 44 307.094086 
L 88 304.26099 
L 132 307.151669 
L 176 307.543231 
L 220 306.610387 
L 264 308.268758 
L 308 303.996114 
L 352 306.59887 
L 396 307.140153 
L 440 302.844523 
L 484 303.155445 
L 528 296.398185 
L 572 311.849795 
L 616 301.669992 
L 660 307.11712 
L 704 308.29179 
L 748 305.067146 
" clip-path="url(#p0a6736c277)" style="fill: none; stroke: #000000; stroke-width: 1.5; stroke-linecap: square"/>
   </g>
   <g id="line2d_2">
    <path d="M 0 306 
L 44 306 
L 88 306.729393 
L 132 305.318868 
L 176 306.296364 
L 220 306.939912 
L 264 306.772535 
L 308 307.526546 
L 352 305.7544 
L 396 306.17781 
L 440 306.659073 
L 484 304.748972 
L 528 303.944359 
L 572 300.148534 
L 616 306.009439 
L 660 303.826668 
L 704 305.477998 
L 748 306.888232 
" clip-path="url(#p0a6736c277)" style="fill: none; stroke: #000000; stroke-width: 1.5; stroke-linecap: square"/>
   </g>
   <g id="line2d_3">
    <path d="M 0 306 
L 44 306 
L 88 306.640903 
L 132 305.5626 
L 176 306.183172 
L 220 306.667069 
L 264 306.648095 
L 308 307.168809 
L 352 306.177592 
L 396 306.306687 
L 440 306.558679 
L 484 305.446214 
L 528 304.764595 
L 572 302.285998 
L 616 305.10931 
L 660 304.096299 
L 704 304.984534 
L 748 305.955849 
" clip-path="url(#p0a6736c277)" style="fill: none; stroke: #000000; stroke-width: 1.5; stroke-linecap: square"/>
   </g>
   <g id="line2d_4">
    <path d="M 0 306 
L 44 306 
L 88 306.594324 
L 132 305.678567 
L 176 306.147321 
L 220 306.530541 
L 264 306.550193 
L 308 306.939314 
L 352 306.314945 
L 396 306.372143 
L 440 306.520576 
L 484 305.83356 
L 528 305.346577 
L 572 303.755107 
L 616 305.167966 
L 660 304.566699 
L 704 304.999527 
L 748 305.552399 
" clip-path="url(#p0a6736c277)" style="fill: none; stroke: #000000; stroke-width: 1.5; stroke-linecap: square"/>
   </g>
   <g id="line2d_5">
    <path d="M 0 306 
L 44 306 
L 88 306.570729 
L 132 305.733224 
L 176 306.135164 
L 220 306.467563 
L 264 306.496803 
L 308 306.820209 
L 352 306.351429 
L 396 306.389355 
L 440 306.496875 
L 484 306.003522 
L 528 305.637853 
L 572 304.502724 
L 616 305.370564 
L 660 304.948285 
L 704 305.18829 
L 748 305.522485 
" clip-path="url(#p0a6736c277)" style="fill: none; stroke: #000000; stroke-width: 1.5; stroke-linecap: square"/>
   </g>
   <g id="line2d_6">
    <path d="M 0 306 
L 44 306 
L 88 306.558893 
L 132 305.759507 
L 176 306.130481 
L 220 306.438029 
L 264 306.469954 
L 308 306.761501 
L 352 306.361204 
L 396 306.392412 
L 440 306.482582 
L 484 306.075676 
L 528 305.770267 
L 572 304.847202 
L 616 305.500127 
L 660 305.160288 
L 704 305.326214 
L 748 305.567451 
" clip-path="url(#p0a6736c277)" style="fill: none; stroke: #000000; stroke-width: 1.5; stroke-linecap: square"/>
   </g>
   <g id="line2d_7">
    <path d="M 0 306 
L 44 306 
L 88 306.552969 
L 132 305.772363 
L 176 306.128474 
L 220 306.423817 
L 264 306.45662 
L 308 306.732624 
L 352 306.36407 
L 396 306.392476 
L 440 306.47474 
L 484 306.10782 
L 528 305.831427 
L 572 305.007519 
L 616 305.568061 
L 660 305.266941 
L 704 305.402299 
L 748 305.603298 
" clip-path="url(#p0a6736c277)" style="fill: none; stroke: #000000; stroke-width: 1.5; stroke-linecap: square"/>
   </g>
   <g id="line2d_8">
    <path d="M 0 306 
L 44 306 
L 88 306.550007 
L 132 305.778717 
L 176 306.127553 
L 220 306.416857 
L 264 306.449991 
L 308 306.718338 
L 352 306.36502 
L 396 306.392143 
L 440 306.470642 
L 484 306.122845 
L 528 305.86056 
L 572 305.084197 
L 616 305.602259 
L 660 305.31975 
L 704 305.441439 
L 748 305.624028 
" clip-path="url(#p0a6736c277)" style="fill: none; stroke: #000000; stroke-width: 1.5; stroke-linecap: square"/>
   </g>
   <g id="line2d_9">
    <path d="M 0 306 
L 44 306 
L 88 306.548526 
L 132 305.781875 
L 176 306.127112 
L 220 306.413414 
L 264 306.446689 
L 308 306.711237 
L 352 306.365377 
L 396 306.391886 
L 440 306.46855 
L 484 306.13009 
L 528 305.874746 
L 572 305.121613 
L 616 305.619346 
L 660 305.34594 
L 704 305.461191 
L 748 305.63501 
" clip-path="url(#p0a6736c277)" style="fill: none; stroke: #000000; stroke-width: 1.5; stroke-linecap: square"/>
   </g>
  </g>
 </g>
 <defs>
  <clipPath id="p0a6736c277">
   <rect x="0" y="0" width="792" height="612"/>
  </clipPath>
 </defs>
</svg>
