<?xml version="1.0" encoding="utf-8" standalone="no"?>
<!DOCTYPE svg PUBLIC "-//W3C//DTD SVG 1.1//EN"
  "http://www.w3.org/Graphics/SVG/1.1/DTD/svg11.dtd">
<svg xmlns:xlink="http://www.w3.org/1999/xlink" width="792pt" height="612pt" viewBox="0 0 792 612" xmlns="http://www.w3.org/2000/svg" version="1.1">
 <metadata>
  <rdf:RDF xmlns:dc="http://purl.org/dc/elements/1.1/" xmlns:cc="http://creativecommons.org/ns#" xmlns:rdf="http://www.w3.org/1999/02/22-rdf-syntax-ns#">
   <cc:Work>
    <dc:type rdf:resource="http://purl.org/dc/dcmitype/StillImage"/>
    <dc:date>2023-01-30T17:17:40.452338</dc:date>
    <dc:format>image/svg+xml</dc:format>
    <dc:creator>
     <cc:Agent>
      <dc:title>Matplotlib v3.6.2, https://matplotlib.org/</dc:title>
     </cc:Agent>
    </dc:creator>
   </cc:Work>
  </rdf:RDF>
 </metadata>
 <defs>
  <style type="text/css">*{stroke-linejoin: round; stroke-linecap: butt}</style>
 </defs>
 <g id="figure_1">
  <g id="patch_1">
   <path d="M 0 612 
L 792 612 
L 792 0 
L 0 0 
z
" style="fill: #ffffff"/>
  </g>
  <g id="axes_1">
   <g id="line2d_1">
    <path d="M 0 306 
L 3.168 307.407633 
L 6.336 309.38362 
L 9.504 304.023913 
L 12.672 299.044192 
L 15.84 308.706936 
L 19.008 303.915637 
L 22.176 305.661624 
L 25.344 312.617599 
L 28.512 308.612198 
L 31.68 304.078051 
L 34.848 282.387797 
L 38.016 311.16989 
L 41.184 317.323649 
L 44.352 306.83917 
L 47.52 311.318732 
L 50.688 306.446656 
L 53.856 307.732466 
L 57.024 307.326425 
L 60.192 307.231681 
L 63.36 305.13376 
L 66.528 306.554936 
L 69.696 308.341515 
L 72.864 295.500938 
L 76.032 306.744425 
L 79.2 307.718931 
L 82.368 301.4255 
L 85.536 300.518898 
L 88.704 305.634554 
L 91.872 304.037447 
L 95.04 310.412115 
L 98.208 305.512739 
L 101.376 312.10349 
L 104.544 303.428404 
L 107.712 305.512739 
L 110.88 302.819382 
L 114.048 305.851115 
L 117.216 300.329471 
L 120.384 305.472134 
L 123.552 305.905255 
L 126.72 305.796975 
L 129.888 309.099416 
L 133.056 302.359248 
L 136.224 303.401336 
L 139.392 303.726157 
L 142.56 304.551762 
L 145.728 304.605901 
L 148.896 307.015124 
L 152.064 304.240465 
L 155.232 303.631417 
L 158.4 306.419586 
L 161.568 298.733054 
L 164.736 303.685554 
L 167.904 305.485669 
L 171.072 307.556515 
L 174.24 307.123403 
L 177.408 301.303713 
L 180.576 305.309715 
L 183.744 308.828741 
L 186.912 304.050982 
L 190.08 303.27953 
L 193.248 305.89172 
L 196.416 312.915224 
L 199.584 303.536677 
L 202.752 309.11295 
L 205.92 307.461772 
L 209.088 320.417661 
L 212.256 312.685242 
L 215.424 309.072349 
L 218.592 304.281069 
L 221.76 300.70833 
L 224.928 308.368583 
L 228.096 303.090056 
L 231.264 302.291583 
L 234.432 304.010378 
L 237.6 306.094745 
L 240.768 300.478306 
L 243.936 307.786604 
L 247.104 305.363854 
L 250.272 303.996844 
L 253.44 307.881346 
L 256.608 304.903667 
L 259.776 302.305116 
L 262.944 303.915637 
L 266.112 302.14272 
L 269.28 304.484089 
L 272.448 305.94586 
L 275.616 303.008853 
L 278.784 303.996844 
L 281.952 310.493308 
L 285.12 312.955808 
L 288.288 305.769905 
L 291.456 310.073804 
L 294.624 304.68711 
L 297.792 307.258751 
L 300.96 311.048109 
L 304.128 308.355049 
L 307.296 310.38505 
L 310.464 307.448238 
L 313.632 306.16242 
L 316.8 312.590541 
L 319.968 300.573021 
L 323.136 301.006017 
L 326.304 303.658485 
L 329.472 302.007392 
L 332.64 302.914117 
L 335.808 306.70382 
L 338.976 307.813673 
L 342.144 303.401336 
L 345.312 308.882876 
L 348.48 302.954718 
L 351.648 304.402881 
L 354.816 308.003156 
L 357.984 303.062988 
L 361.152 304.565297 
L 364.32 306.947449 
L 367.488 307.096333 
L 370.656 305.83758 
L 373.824 308.030225 
L 376.992 301.804403 
L 380.16 312.563484 
L 383.328 301.290181 
L 386.496 306.933914 
L 389.664 307.150472 
L 392.832 305.769905 
L 396 302.250984 
L 399.168 302.724647 
L 402.336 305.21497 
L 405.504 308.666334 
L 408.672 309.085883 
L 411.84 308.476857 
L 415.008 308.341515 
L 418.176 301.628482 
L 421.344 306.21656 
L 424.512 306.988054 
L 427.68 304.592367 
L 430.848 304.551762 
L 434.016 300.951891 
L 437.184 311.06164 
L 440.352 305.94586 
L 443.52 302.359248 
L 446.688 303.198327 
L 449.856 309.478353 
L 453.024 307.191077 
L 456.192 304.42995 
L 459.36 311.359325 
L 462.528 309.288886 
L 465.696 305.97293 
L 468.864 304.389346 
L 472.032 312.806998 
L 475.2 307.718931 
L 478.368 306.351911 
L 481.536 304.402881 
L 484.704 298.963024 
L 487.872 310.236194 
L 491.04 306.203025 
L 494.208 302.521647 
L 497.376 305.10669 
L 500.544 302.968252 
L 503.712 319.620771 
L 506.88 320.552708 
L 510.048 304.294604 
L 513.216 306.622611 
L 516.384 301.290181 
L 519.552 306.514331 
L 522.72 310.127934 
L 525.888 310.398582 
L 529.056 301.547289 
L 532.224 307.055728 
L 535.392 306.13535 
L 538.56 307.191077 
L 541.728 299.247116 
L 544.896 309.478353 
L 548.064 310.073804 
L 551.232 299.179474 
L 554.4 302.508113 
L 557.568 304.917202 
L 560.736 309.897878 
L 563.904 308.58513 
L 567.072 301.777338 
L 570.24 288.032634 
L 573.408 304.646506 
L 576.576 298.935969 
L 579.744 306.433121 
L 582.912 303.847965 
L 586.08 307.096333 
L 589.248 311.318732 
L 592.416 307.001589 
L 595.584 299.92357 
L 598.752 293.31142 
L 601.92 307.800138 
L 605.088 296.974752 
L 608.256 305.228505 
L 611.424 297.096463 
L 614.592 310.682755 
L 617.76 303.685554 
L 620.928 310.127934 
L 624.096 310.236194 
L 627.264 301.723208 
L 630.432 295.203528 
L 633.6 285.228647 
L 636.768 309.708417 
L 639.936 304.159258 
L 643.104 314.105587 
L 646.272 306 
L 649.44 307.921949 
L 652.608 305.769905 
L 655.776 301.222522 
L 658.944 306.013535 
L 662.112 304.822458 
L 665.28 307.502376 
L 668.448 306 
L 671.616 310.479775 
L 674.784 307.515911 
L 677.952 306.852705 
L 681.12 300.031808 
L 684.288 306 
L 687.456 307.204612 
L 690.624 306.8121 
L 693.792 306 
L 696.96 304.849528 
L 700.128 306.257166 
L 703.296 315.363318 
L 706.464 308.530993 
L 709.632 312.117019 
L 712.8 307.529446 
L 715.968 312.752884 
L 719.136 304.281069 
L 722.304 308.314446 
L 725.472 307.28582 
L 728.64 303.956241 
L 731.808 307.353494 
L 734.976 307.813673 
L 738.144 306.717355 
L 741.312 308.666334 
L 744.48 303.644951 
L 747.648 306.70382 
L 750.816 307.33996 
L 753.984 302.291583 
L 757.152 302.65698 
L 760.32 294.716901 
L 763.488 312.874639 
L 766.656 300.911297 
L 769.824 307.31289 
L 772.992 308.693402 
L 776.16 304.903667 
L 779.328 309.126484 
L 782.496 312.806998 
L 785.664 309.194151 
L 788.832 304.362277 
L 788.832 304.362277 
" clip-path="url(#p4fe77f849b)" style="fill: none; stroke: #000000; stroke-width: 1.5; stroke-linecap: square"/>
   </g>
   <g id="line2d_2">
    <path d="M 0 306 
L 3.168 306 
L 6.336 306.938426 
L 9.504 308.335714 
L 12.672 306.036093 
L 15.84 302.426914 
L 19.008 305.616722 
L 22.176 304.759473 
L 25.344 305.212316 
L 28.512 308.928361 
L 31.68 308.772642 
L 34.848 306.414968 
L 38.016 294.340997 
L 41.184 302.776765 
L 44.352 310.069399 
L 47.52 308.460085 
L 50.688 309.900585 
L 53.856 308.161588 
L 63.36 307.485763 
L 66.528 306.29793 
L 69.696 306.405308 
L 72.864 307.376371 
L 76.032 301.405918 
L 79.2 304.075609 
L 82.368 305.89724 
L 85.536 303.649675 
L 88.704 302.071023 
L 91.872 303.853698 
L 95.04 303.940636 
L 98.208 307.180567 
L 101.376 306.366295 
L 104.544 309.245685 
L 107.712 306.328662 
L 110.88 305.928716 
L 114.048 304.378518 
L 117.216 305.115236 
L 120.384 302.714882 
L 123.552 304.083783 
L 126.72 304.99528 
L 129.888 305.383759 
L 133.056 307.252753 
L 136.224 304.799741 
L 139.392 304.10167 
L 142.56 303.909746 
L 145.728 304.239032 
L 148.896 304.420768 
L 152.064 305.720117 
L 158.4 304.293595 
L 161.568 305.364544 
L 164.736 302.039181 
L 167.904 302.862265 
L 171.072 304.175765 
L 174.24 305.871921 
L 177.408 306.497876 
L 180.576 303.894885 
L 183.744 304.605583 
L 186.912 306.72192 
L 190.08 305.396869 
L 193.248 304.337384 
L 196.416 305.115342 
L 199.584 309.026281 
L 202.752 306.274469 
L 205.92 307.709059 
L 209.088 307.589635 
L 212.256 314.029897 
L 215.424 313.374527 
L 218.592 311.235052 
L 224.928 304.207558 
L 228.096 306.297558 
L 231.264 304.681961 
L 234.432 303.476596 
L 237.6 303.711295 
L 240.768 304.890079 
L 243.936 302.66717 
L 247.104 305.233706 
L 250.272 305.30791 
L 253.44 304.643799 
L 256.608 306.271974 
L 259.776 305.592941 
L 262.944 303.945625 
L 266.112 303.926359 
L 269.28 303.037778 
L 272.448 303.754446 
L 275.616 304.851279 
L 278.784 303.92811 
L 281.952 303.954861 
L 285.12 307.235184 
L 288.288 310.116737 
L 291.456 307.947054 
L 294.624 309.026016 
L 297.792 306.857004 
L 300.96 307.060452 
L 304.128 309.070173 
L 307.296 308.72116 
L 310.464 309.552919 
L 316.8 307.326903 
L 319.968 309.96395 
L 323.136 305.260246 
L 326.304 303.120733 
L 329.472 303.375117 
L 332.64 302.678793 
L 335.808 302.781807 
L 338.976 304.741302 
L 342.144 306.280732 
L 345.312 304.822989 
L 348.48 306.869265 
L 351.648 304.915769 
L 354.816 304.660783 
L 357.984 306.343737 
L 361.152 304.703617 
L 364.32 304.630264 
L 367.488 305.787155 
L 370.656 306.448991 
L 373.824 306.137314 
L 376.992 307.093732 
L 380.16 304.443856 
L 383.328 308.513054 
L 386.496 304.897988 
L 389.664 305.920594 
L 392.832 306.535934 
L 396 306.150318 
L 399.168 304.193545 
L 402.336 303.448679 
L 405.504 304.338498 
L 408.672 306.494798 
L 411.84 307.805658 
L 415.008 308.144285 
L 418.176 308.245236 
L 421.344 304.928614 
L 427.68 306.292569 
L 430.848 305.441243 
L 434.016 304.988433 
L 437.184 302.954081 
L 440.352 307.013107 
L 443.52 306.474787 
L 446.688 304.418379 
L 449.856 303.802426 
L 453.024 306.645328 
L 456.192 306.923299 
L 459.36 305.67638 
L 462.528 308.538477 
L 465.696 308.910209 
L 472.032 305.91948 
L 475.2 309.382506 
L 478.368 308.547287 
L 481.536 307.447972 
L 484.704 305.925372 
L 487.872 302.419431 
L 491.04 306.329724 
L 494.208 306.266826 
L 497.376 304.390514 
L 500.544 304.7335 
L 503.712 303.841543 
L 506.88 311.760996 
L 510.048 316.190604 
L 513.216 310.254662 
L 516.384 308.431637 
L 519.552 304.85112 
L 522.72 305.690552 
L 525.888 307.919189 
L 529.056 309.173506 
L 532.224 305.324842 
L 535.392 306.1638 
L 538.56 306.153185 
L 541.728 306.673247 
L 544.896 302.955727 
L 548.064 306.222877 
L 551.232 308.148319 
L 554.4 303.641395 
L 557.568 303.076628 
L 560.736 303.992704 
L 563.904 306.952757 
L 567.072 307.771689 
L 570.24 304.779359 
L 573.408 296.35675 
L 576.576 300.48998 
L 579.744 299.712456 
L 582.912 303.080131 
L 586.08 303.461948 
L 589.248 305.273621 
L 592.416 308.301761 
L 595.584 307.661926 
L 598.752 303.815748 
L 601.92 298.539165 
L 605.088 303.186385 
L 608.256 300.061415 
L 611.424 302.647427 
L 614.592 299.851836 
L 617.76 305.265819 
L 620.928 304.469174 
L 624.096 307.318675 
L 627.264 308.810696 
L 630.432 305.254938 
L 633.6 300.2242 
L 636.768 292.679231 
L 639.936 301.214827 
L 643.104 302.674176 
L 646.272 308.41115 
L 649.44 307.197499 
L 652.608 307.555188 
L 655.776 306.670487 
L 658.944 303.958151 
L 662.112 305.026649 
L 665.28 304.914973 
L 668.448 306.215234 
L 671.616 306.09172 
L 674.784 308.294649 
L 677.952 307.904487 
L 681.12 307.380723 
L 684.288 303.703599 
L 690.624 306.032856 
L 693.792 306.421125 
L 696.96 306.210563 
L 700.128 305.519003 
L 703.296 305.885616 
L 706.464 310.642266 
L 709.632 309.603337 
L 712.8 310.872253 
L 715.968 309.201582 
L 719.136 310.989048 
L 722.304 307.631885 
L 725.472 307.979962 
L 728.64 307.63491 
L 731.808 305.773195 
L 734.976 306.56104 
L 738.144 307.178922 
L 741.312 306.946547 
L 744.48 307.79844 
L 747.648 305.720435 
L 753.984 306.774574 
L 757.152 304.529735 
L 760.32 303.584127 
L 763.488 299.123398 
L 766.656 306.011093 
L 769.824 303.445813 
L 772.992 305.386519 
L 776.16 307.043892 
L 779.328 305.969002 
L 782.496 307.561186 
L 785.664 310.2043 
L 788.832 309.727629 
L 788.832 309.727629 
" clip-path="url(#p4fe77f849b)" style="fill: none; stroke: #000000; stroke-width: 1.5; stroke-linecap: square"/>
   </g>
   <g id="line2d_3">
    <path d="M 0 306 
L 3.168 306 
L 6.336 306.824576 
L 9.504 307.984068 
L 12.672 306.437537 
L 15.84 303.806683 
L 19.008 305.446969 
L 22.176 304.954958 
L 25.344 305.175734 
L 28.512 307.456492 
L 31.68 307.805916 
L 34.848 306.689383 
L 38.016 299.445642 
L 41.184 302.917503 
L 44.352 307.171637 
L 47.52 307.073719 
L 50.688 308.322047 
L 53.856 307.773282 
L 57.024 307.7617 
L 63.36 307.518327 
L 66.528 306.826906 
L 69.696 306.744776 
L 72.864 307.217542 
L 76.032 303.772989 
L 82.368 305.538322 
L 88.704 303.234931 
L 91.872 303.931384 
L 95.04 303.947183 
L 98.208 305.84489 
L 101.376 305.740936 
L 104.544 307.611205 
L 107.712 306.38114 
L 110.88 306.124708 
L 114.048 305.151501 
L 117.216 305.357237 
L 120.384 303.87733 
L 126.72 304.811204 
L 129.888 305.098839 
L 133.056 306.272196 
L 136.224 305.127145 
L 139.392 304.624968 
L 142.56 304.359517 
L 148.896 304.465245 
L 152.064 305.213807 
L 158.4 304.542588 
L 161.568 305.093385 
L 164.736 303.225466 
L 167.904 303.357734 
L 171.072 303.986898 
L 174.24 305.034795 
L 177.408 305.647933 
L 180.576 304.370286 
L 183.744 304.641083 
L 186.912 305.875068 
L 193.248 304.737067 
L 196.416 305.076794 
L 199.584 307.382496 
L 202.752 306.252077 
L 205.92 307.095631 
L 209.088 307.207271 
L 212.256 311.095258 
L 215.424 311.577009 
L 218.592 310.849659 
L 221.76 308.924573 
L 224.928 306.510133 
L 228.096 307.0559 
L 234.432 304.837031 
L 237.6 304.589374 
L 240.768 305.03263 
L 243.936 303.695347 
L 247.104 304.895805 
L 250.272 305.024218 
L 253.44 304.723833 
L 256.608 305.647234 
L 259.776 305.426509 
L 262.944 304.491417 
L 266.112 304.3127 
L 269.28 303.669141 
L 272.448 303.908064 
L 275.616 304.510926 
L 278.784 304.064812 
L 281.952 304.045946 
L 285.12 305.943832 
L 288.288 308.00819 
L 291.456 307.35225 
L 294.624 308.160438 
L 297.792 307.139581 
L 300.96 307.176662 
L 304.128 308.318776 
L 307.296 308.329944 
L 310.464 308.938196 
L 313.632 308.507716 
L 316.8 307.823394 
L 319.968 309.231854 
L 323.136 306.691165 
L 326.304 305.020224 
L 329.472 304.622119 
L 332.64 303.85396 
L 335.808 303.569976 
L 342.144 305.459217 
L 345.312 304.8488 
L 348.48 306.035194 
L 351.648 305.127973 
L 354.816 304.907964 
L 357.984 305.814126 
L 361.152 304.999903 
L 364.32 304.869298 
L 367.488 305.478874 
L 370.656 305.946306 
L 373.824 305.920508 
L 376.992 306.546507 
L 380.16 305.155372 
L 383.328 307.337569 
L 386.496 305.564362 
L 392.832 306.311993 
L 396 306.15594 
L 399.168 305.004536 
L 402.336 304.336485 
L 405.504 304.594718 
L 408.672 305.788041 
L 411.84 306.760904 
L 415.008 307.267997 
L 418.176 307.584029 
L 421.344 305.833332 
L 424.512 305.946012 
L 427.68 306.250023 
L 430.848 305.767706 
L 434.016 305.402359 
L 437.184 304.098348 
L 440.352 306.142709 
L 443.52 306.083669 
L 446.688 304.988847 
L 449.856 304.465492 
L 453.024 305.941517 
L 456.192 306.309776 
L 459.36 305.754318 
L 462.528 307.398749 
L 465.696 307.953307 
L 468.864 307.370557 
L 472.032 306.500554 
L 475.2 308.355522 
L 478.368 308.16991 
L 481.536 307.639462 
L 484.704 306.691324 
L 487.872 304.425123 
L 491.04 306.126268 
L 494.208 306.149045 
L 497.376 305.08675 
L 500.544 305.094782 
L 503.712 304.46444 
L 506.88 308.920454 
L 510.048 312.348363 
L 513.216 309.981771 
L 516.384 308.994896 
L 519.552 306.732816 
L 522.72 306.671264 
L 525.888 307.680678 
L 529.056 308.479858 
L 532.224 306.443783 
L 535.392 306.626065 
L 538.56 306.490578 
L 541.728 306.692252 
L 544.896 304.503323 
L 548.064 305.968502 
L 551.232 307.176687 
L 554.4 304.829684 
L 557.568 304.13002 
L 560.736 304.342607 
L 563.904 305.976195 
L 567.072 306.742605 
L 570.24 305.288795 
L 573.408 300.207962 
L 576.576 301.501517 
L 579.744 300.73684 
L 582.912 302.410652 
L 586.08 302.827934 
L 589.248 304.079169 
L 592.416 306.204468 
L 595.584 306.446848 
L 598.752 304.525026 
L 601.92 301.219624 
L 605.088 303.156728 
L 608.256 301.339246 
L 611.424 302.478641 
L 614.592 300.887161 
L 617.76 303.758444 
L 620.928 303.739287 
L 624.096 305.635926 
L 627.264 306.989809 
L 630.432 305.450382 
L 633.6 302.435092 
L 636.768 297.366826 
L 639.936 300.983477 
L 643.104 301.905338 
L 646.272 305.487253 
L 649.44 305.644413 
L 652.608 306.328285 
L 655.776 306.162407 
L 658.944 304.720324 
L 662.112 305.099996 
L 665.28 305.027583 
L 668.448 305.748781 
L 671.616 305.82502 
L 674.784 307.188858 
L 677.952 307.281525 
L 681.12 307.161819 
L 684.288 305.078822 
L 687.456 305.372523 
L 690.624 305.906254 
L 693.792 306.174618 
L 696.96 306.114161 
L 700.128 305.742436 
L 703.296 305.891284 
L 706.464 308.677389 
L 709.632 308.642905 
L 712.8 309.667571 
L 715.968 309.044465 
L 719.136 310.136808 
L 722.304 308.41985 
L 725.472 308.386491 
L 728.64 308.063853 
L 731.808 306.857445 
L 738.144 307.248286 
L 741.312 307.092221 
L 744.48 307.555407 
L 747.648 306.407352 
L 750.816 306.496315 
L 753.984 306.744658 
L 757.152 305.425313 
L 760.32 304.60771 
L 763.488 301.689546 
L 766.656 304.971866 
L 769.824 303.768849 
L 776.16 305.948112 
L 779.328 305.639464 
L 782.496 306.666758 
L 785.664 308.471734 
L 788.832 308.684914 
L 788.832 308.684914 
" clip-path="url(#p4fe77f849b)" style="fill: none; stroke: #000000; stroke-width: 1.5; stroke-linecap: square"/>
   </g>
   <g id="line2d_4">
    <path d="M 0 306 
L 3.168 306 
L 6.336 306.764649 
L 9.504 307.792536 
L 12.672 306.593338 
L 15.84 304.520564 
L 19.008 305.550924 
L 22.176 305.18066 
L 25.344 305.28269 
L 28.512 306.760543 
L 31.68 307.118419 
L 34.848 306.550221 
L 38.016 302.148355 
L 41.184 303.752269 
L 44.352 306.121752 
L 47.52 306.245061 
L 50.688 307.106202 
L 53.856 306.995445 
L 60.192 307.15255 
L 63.36 307.165547 
L 66.528 306.83356 
L 69.696 306.788229 
L 72.864 307.040046 
L 76.032 305.17433 
L 79.2 305.427463 
L 82.368 305.796119 
L 88.704 304.360411 
L 91.872 304.56447 
L 95.04 304.480152 
L 98.208 305.428392 
L 101.376 305.441865 
L 104.544 306.50569 
L 107.712 306.013591 
L 110.88 305.931488 
L 114.048 305.435572 
L 117.216 305.505934 
L 120.384 304.677017 
L 129.888 305.105541 
L 133.056 305.7413 
L 136.224 305.202105 
L 142.56 304.732748 
L 148.896 304.680255 
L 152.064 305.049052 
L 158.4 304.7116 
L 161.568 304.982778 
L 164.736 303.98293 
L 167.904 303.934712 
L 171.072 304.180803 
L 174.24 304.717393 
L 177.408 305.107449 
L 180.576 304.498817 
L 183.744 304.62633 
L 186.912 305.299574 
L 193.248 304.811503 
L 196.416 304.984525 
L 199.584 306.248074 
L 202.752 305.81544 
L 205.92 306.338236 
L 209.088 306.519513 
L 212.256 308.741691 
L 215.424 309.375375 
L 218.592 309.329172 
L 221.76 308.528517 
L 224.928 307.281282 
L 228.096 307.455815 
L 234.432 306.044373 
L 237.6 305.721783 
L 240.768 305.782803 
L 243.936 304.936721 
L 247.104 305.392166 
L 250.272 305.388135 
L 253.44 305.164889 
L 256.608 305.599361 
L 259.776 305.489467 
L 262.944 304.980233 
L 266.112 304.814084 
L 269.28 304.388075 
L 272.448 304.402726 
L 275.616 304.647236 
L 278.784 304.383989 
L 281.952 304.324073 
L 285.12 305.308893 
L 288.288 306.528309 
L 291.456 306.408717 
L 294.624 306.99612 
L 297.792 306.627997 
L 300.96 306.724823 
L 304.128 307.417424 
L 307.296 307.566133 
L 310.464 308.016487 
L 313.632 307.917979 
L 316.8 307.634598 
L 319.968 308.425427 
L 323.136 307.173713 
L 326.304 306.192531 
L 329.472 305.786409 
L 332.64 305.184444 
L 335.808 304.823603 
L 338.976 305.124431 
L 342.144 305.553373 
L 345.312 305.212792 
L 348.48 305.797412 
L 351.648 305.343611 
L 354.816 305.194189 
L 357.984 305.641185 
L 361.152 305.229823 
L 364.32 305.125505 
L 370.656 305.687509 
L 373.824 305.71223 
L 376.992 306.082337 
L 380.16 305.400909 
L 383.328 306.546005 
L 386.496 305.703984 
L 392.832 306.09638 
L 396 306.041751 
L 399.168 305.437077 
L 402.336 305.002674 
L 405.504 305.032811 
L 411.84 306.163173 
L 418.176 306.821214 
L 421.344 305.988145 
L 424.512 306.028009 
L 427.68 306.184488 
L 434.016 305.713781 
L 437.184 304.954854 
L 440.352 305.929255 
L 443.52 305.930731 
L 446.688 305.361819 
L 449.856 305.014043 
L 453.024 305.728422 
L 456.192 305.962876 
L 459.36 305.716751 
L 462.528 306.619767 
L 465.696 307.047398 
L 468.864 306.875839 
L 472.032 306.478539 
L 475.2 307.489936 
L 478.368 307.526176 
L 481.536 307.342186 
L 484.704 306.869442 
L 487.872 305.609855 
L 491.04 306.348025 
L 494.208 306.324364 
L 497.376 305.717288 
L 500.544 305.621921 
L 503.712 305.199851 
L 506.88 307.504684 
L 510.048 309.589688 
L 513.216 308.744294 
L 516.384 308.405582 
L 519.552 307.269071 
L 522.72 307.152039 
L 529.056 308.070954 
L 532.224 307.031088 
L 535.392 307.036571 
L 538.56 306.896418 
L 541.728 306.940885 
L 544.896 305.712426 
L 551.232 306.91826 
L 554.4 305.680387 
L 557.568 305.172723 
L 560.736 305.132373 
L 563.904 305.889701 
L 567.072 306.318124 
L 570.24 305.593008 
L 573.408 302.785697 
L 576.576 303.076655 
L 579.744 302.412266 
L 582.912 303.052002 
L 586.08 303.178294 
L 589.248 303.806714 
L 592.416 305.002636 
L 595.584 305.321174 
L 598.752 304.460659 
L 601.92 302.678372 
L 605.088 303.496228 
L 608.256 302.444197 
L 611.424 302.877596 
L 614.592 301.953049 
L 617.76 303.344437 
L 620.928 303.400204 
L 624.096 304.472865 
L 627.264 305.389932 
L 630.432 304.801091 
L 633.6 303.269477 
L 636.768 300.380959 
L 639.936 301.866969 
L 643.104 302.229765 
L 646.272 304.128688 
L 649.44 304.424245 
L 652.608 304.979395 
L 655.776 305.10928 
L 658.944 304.490029 
L 662.112 304.733105 
L 665.28 304.744155 
L 668.448 305.18232 
L 671.616 305.31505 
L 674.784 306.150845 
L 677.952 306.369824 
L 681.12 306.451593 
L 684.288 305.426068 
L 687.456 305.518725 
L 693.792 305.947305 
L 696.96 305.955064 
L 700.128 305.782243 
L 703.296 305.865886 
L 706.464 307.382138 
L 709.632 307.572141 
L 712.8 308.299644 
L 715.968 308.183615 
L 719.136 308.912012 
L 722.304 308.175618 
L 725.472 308.196575 
L 728.64 308.049832 
L 731.808 307.399931 
L 741.312 307.356824 
L 744.48 307.567989 
L 747.648 306.937293 
L 753.984 306.970129 
L 757.152 306.223559 
L 760.32 305.656977 
L 763.488 303.908539 
L 766.656 305.34026 
L 769.824 304.631417 
L 772.992 305.058865 
L 776.16 305.636027 
L 779.328 305.517875 
L 782.496 306.093453 
L 785.664 307.169748 
L 788.832 307.493842 
L 788.832 307.493842 
" clip-path="url(#p4fe77f849b)" style="fill: none; stroke: #000000; stroke-width: 1.5; stroke-linecap: square"/>
   </g>
   <g id="line2d_5">
    <path d="M 0 306 
L 3.168 306 
L 6.336 306.734292 
L 9.504 307.694958 
L 12.672 306.654712 
L 15.84 304.857854 
L 19.008 305.645879 
L 22.176 305.330087 
L 25.344 305.385119 
L 28.512 306.493806 
L 31.68 306.797182 
L 34.848 306.429896 
L 38.016 303.337209 
L 41.184 304.299185 
L 44.352 305.838105 
L 47.52 305.95233 
L 50.688 306.546242 
L 53.856 306.535518 
L 60.192 306.72969 
L 63.36 306.7803 
L 66.528 306.617206 
L 69.696 306.611135 
L 72.864 306.77742 
L 76.032 305.707428 
L 82.368 305.982179 
L 88.704 305.104283 
L 91.872 305.152175 
L 95.04 305.052227 
L 98.208 305.529638 
L 101.376 305.528142 
L 104.544 306.107119 
L 107.712 305.872458 
L 110.88 305.841091 
L 114.048 305.578696 
L 117.216 305.602261 
L 120.384 305.147696 
L 129.888 305.28584 
L 133.056 305.610902 
L 136.224 305.33435 
L 142.56 305.04795 
L 148.896 304.972207 
L 152.064 305.144451 
L 158.4 304.947484 
L 161.568 305.071152 
L 164.736 304.539132 
L 167.904 304.467563 
L 171.072 304.552853 
L 177.408 304.998275 
L 180.576 304.689403 
L 183.744 304.741226 
L 186.912 305.082533 
L 193.248 304.853215 
L 196.416 304.939809 
L 199.584 305.604662 
L 202.752 305.432351 
L 205.92 305.738847 
L 209.088 305.881861 
L 212.256 307.092751 
L 215.424 307.559803 
L 218.592 307.688607 
L 221.76 307.404359 
L 224.928 306.847534 
L 228.096 306.974659 
L 237.6 306.096571 
L 240.768 306.104151 
L 243.936 305.633699 
L 247.104 305.809277 
L 250.272 305.771829 
L 253.44 305.622127 
L 256.608 305.810101 
L 259.776 305.73395 
L 262.944 305.447722 
L 266.112 305.319484 
L 269.28 305.054837 
L 272.448 305.006793 
L 275.616 305.083951 
L 281.952 304.837136 
L 285.12 305.307502 
L 288.288 305.946132 
L 291.456 305.933215 
L 294.624 306.278332 
L 297.792 306.146478 
L 300.96 306.237766 
L 304.128 306.638844 
L 307.296 306.780065 
L 310.464 307.08155 
L 316.8 307.03484 
L 319.968 307.498211 
L 326.304 306.430874 
L 329.472 306.200042 
L 335.808 305.605061 
L 342.144 305.874725 
L 345.312 305.669333 
L 348.48 305.937461 
L 351.648 305.68936 
L 354.816 305.581736 
L 357.984 305.783931 
L 361.152 305.557911 
L 364.32 305.474924 
L 370.656 305.725128 
L 373.824 305.734575 
L 376.992 305.925261 
L 380.16 305.581494 
L 383.328 306.164719 
L 386.496 305.758813 
L 396 305.948879 
L 402.336 305.395415 
L 405.504 305.380985 
L 415.008 306.145678 
L 418.176 306.326513 
L 421.344 305.934148 
L 430.848 305.92388 
L 434.016 305.810475 
L 437.184 305.406758 
L 440.352 305.878424 
L 443.52 305.883972 
L 449.856 305.391865 
L 453.024 305.732378 
L 456.192 305.854484 
L 459.36 305.735129 
L 462.528 306.204062 
L 465.696 306.462373 
L 468.864 306.422421 
L 472.032 306.254414 
L 475.2 306.801053 
L 478.368 306.877811 
L 481.536 306.835251 
L 484.704 306.633506 
L 487.872 305.993032 
L 491.04 306.344334 
L 494.208 306.332747 
L 497.376 306.013971 
L 500.544 305.938806 
L 503.712 305.690858 
L 510.048 307.992608 
L 513.216 307.683713 
L 516.384 307.595379 
L 519.552 307.070465 
L 522.72 307.02233 
L 529.056 307.544849 
L 532.224 307.046371 
L 541.728 306.9922 
L 544.896 306.346513 
L 551.232 306.89645 
L 554.4 306.254652 
L 557.568 305.943075 
L 560.736 305.856927 
L 563.904 306.194552 
L 567.072 306.394273 
L 570.24 306.009382 
L 573.408 304.509467 
L 576.576 304.520453 
L 579.744 304.053915 
L 582.912 304.252881 
L 586.08 304.216437 
L 589.248 304.457342 
L 592.416 305.028272 
L 595.584 305.192 
L 598.752 304.752778 
L 601.92 303.799707 
L 605.088 304.133369 
L 608.256 303.536364 
L 611.424 303.675682 
L 614.592 303.125565 
L 617.76 303.753493 
L 620.928 303.746339 
L 627.264 304.774518 
L 630.432 304.51954 
L 633.6 303.74295 
L 636.768 302.197541 
L 639.936 302.823713 
L 643.104 302.932308 
L 646.272 303.862399 
L 649.44 304.040991 
L 652.608 304.364626 
L 655.776 304.480049 
L 658.944 304.207722 
L 662.112 304.358109 
L 665.28 304.39452 
L 668.448 304.651875 
L 671.616 304.763771 
L 674.784 305.240181 
L 681.12 305.545353 
L 684.288 305.085633 
L 690.624 305.334249 
L 696.96 305.500891 
L 700.128 305.447588 
L 703.296 305.515154 
L 706.464 306.336789 
L 709.632 306.515291 
L 712.8 306.977528 
L 715.968 307.024388 
L 719.136 307.501908 
L 722.304 307.235568 
L 728.64 307.321463 
L 731.808 307.040067 
L 744.48 307.226852 
L 747.648 306.931 
L 753.984 306.945934 
L 760.32 306.236692 
L 763.488 305.276851 
L 766.656 305.9085 
L 769.824 305.491217 
L 776.16 305.904018 
L 779.328 305.821076 
L 782.496 306.098738 
L 785.664 306.657663 
L 788.832 306.86993 
L 788.832 306.86993 
" clip-path="url(#p4fe77f849b)" style="fill: none; stroke: #000000; stroke-width: 1.5; stroke-linecap: square"/>
   </g>
   <g id="line2d_6">
    <path d="M 0 306 
L 3.168 306 
L 6.336 306.719063 
L 9.504 307.646025 
L 12.672 306.680835 
L 15.84 305.018137 
L 19.008 305.7014 
L 22.176 305.411968 
L 25.344 305.448106 
L 28.512 306.389675 
L 31.68 306.657694 
L 34.848 306.369175 
L 38.016 303.856298 
L 41.184 304.576409 
L 44.352 305.765328 
L 47.52 305.860601 
L 50.688 306.32346 
L 57.024 306.443016 
L 63.36 306.562596 
L 69.696 306.467658 
L 72.864 306.593606 
L 76.032 305.865832 
L 82.368 306.034873 
L 88.704 305.435705 
L 95.04 305.365302 
L 98.208 305.654883 
L 101.376 305.646848 
L 104.544 306.006794 
L 107.712 305.864961 
L 110.88 305.845827 
L 114.048 305.683356 
L 117.216 305.692261 
L 120.384 305.410565 
L 129.888 305.457344 
L 133.056 305.641634 
L 139.392 305.373527 
L 148.896 305.224061 
L 152.064 305.310844 
L 161.568 305.240309 
L 164.736 304.931955 
L 171.072 304.901933 
L 177.408 305.123471 
L 180.576 304.946535 
L 183.744 304.963291 
L 186.912 305.140966 
L 196.416 305.048544 
L 199.584 305.405405 
L 202.752 305.320893 
L 209.088 305.580497 
L 212.256 306.246551 
L 215.424 306.53472 
L 218.592 306.648013 
L 221.76 306.542581 
L 224.928 306.283237 
L 228.096 306.375739 
L 237.6 305.965987 
L 240.768 305.971657 
L 243.936 305.730137 
L 250.272 305.800392 
L 253.44 305.72146 
L 256.608 305.815857 
L 259.776 305.776042 
L 269.28 305.402102 
L 281.952 305.228647 
L 288.288 305.780771 
L 291.456 305.780301 
L 294.624 305.96564 
L 297.792 305.910494 
L 300.96 305.968604 
L 304.128 306.187397 
L 319.968 306.747533 
L 326.304 306.247623 
L 338.976 305.866672 
L 342.144 305.949993 
L 345.312 305.840966 
L 348.48 305.971045 
L 354.816 305.780607 
L 357.984 305.875547 
L 364.32 305.704632 
L 376.992 305.910191 
L 380.16 305.735141 
L 383.328 306.026223 
L 386.496 305.824392 
L 396 305.919479 
L 402.336 305.633913 
L 405.504 305.616081 
L 418.176 306.097464 
L 421.344 305.908411 
L 434.016 305.849502 
L 437.184 305.640567 
L 440.352 305.871583 
L 443.52 305.878657 
L 449.856 305.618372 
L 456.192 305.841502 
L 459.36 305.781321 
L 465.696 306.157424 
L 472.032 306.074648 
L 475.2 306.361165 
L 481.536 306.417603 
L 484.704 306.331796 
L 487.872 306.017876 
L 491.04 306.198195 
L 494.208 306.199345 
L 497.376 306.042899 
L 503.712 305.873463 
L 510.048 307.058426 
L 522.72 306.681481 
L 529.056 306.981397 
L 532.224 306.750273 
L 541.728 306.756395 
L 544.896 306.43729 
L 551.232 306.71678 
L 554.4 306.396274 
L 560.736 306.175099 
L 567.072 306.429787 
L 570.24 306.233033 
L 573.408 305.457914 
L 576.576 305.423373 
L 579.744 305.146843 
L 582.912 305.201262 
L 586.08 305.144309 
L 589.248 305.227365 
L 592.416 305.486055 
L 595.584 305.550799 
L 598.752 305.311632 
L 601.92 304.800466 
L 605.088 304.926791 
L 608.256 304.588454 
L 611.424 304.614944 
L 614.592 304.294363 
L 617.76 304.563599 
L 620.928 304.524876 
L 627.264 304.99567 
L 630.432 304.857087 
L 633.6 304.445436 
L 636.768 303.626411 
L 639.936 303.885497 
L 643.104 303.897128 
L 646.272 304.331331 
L 655.776 304.6039 
L 658.944 304.460066 
L 671.616 304.72168 
L 674.784 304.967201 
L 681.12 305.151248 
L 684.288 304.933676 
L 703.296 305.213501 
L 706.464 305.64529 
L 709.632 305.767218 
L 712.8 306.037089 
L 715.968 306.099886 
L 719.136 306.382879 
L 722.304 306.293456 
L 728.64 306.418017 
L 731.808 306.314135 
L 744.48 306.529585 
L 747.648 306.406591 
L 753.984 306.4585 
L 760.32 306.127746 
L 763.488 305.641537 
L 766.656 305.949877 
L 769.824 305.73563 
L 782.496 306.019665 
L 785.664 306.309303 
L 788.832 306.431055 
L 788.832 306.431055 
" clip-path="url(#p4fe77f849b)" style="fill: none; stroke: #000000; stroke-width: 1.5; stroke-linecap: square"/>
   </g>
   <g id="line2d_7">
    <path d="M 0 306 
L 3.168 306 
L 6.336 306.711443 
L 9.504 307.621563 
L 12.672 306.692723 
L 15.84 305.095794 
L 19.008 305.730717 
L 22.176 305.454266 
L 25.344 305.482192 
L 28.512 306.345546 
L 31.68 306.594941 
L 34.848 306.340555 
L 38.016 304.093842 
L 41.184 304.711695 
L 44.352 305.745222 
L 47.52 305.829722 
L 50.688 306.231335 
L 57.024 306.344945 
L 63.36 306.457527 
L 69.696 306.389807 
L 72.864 306.496394 
L 76.032 305.914992 
L 82.368 306.045151 
L 88.704 305.571691 
L 95.04 305.505651 
L 98.208 305.720642 
L 101.376 305.711733 
L 104.544 305.979944 
L 114.048 305.740089 
L 117.216 305.744405 
L 120.384 305.537528 
L 129.888 305.557795 
L 133.056 305.684837 
L 142.56 305.43095 
L 158.4 305.33289 
L 161.568 305.367712 
L 164.736 305.157299 
L 171.072 305.122746 
L 177.408 305.256378 
L 180.576 305.136919 
L 196.416 305.18086 
L 199.584 305.403493 
L 202.752 305.350156 
L 209.088 305.513384 
L 212.256 305.930759 
L 218.592 306.200175 
L 253.44 305.698506 
L 259.776 305.733103 
L 272.448 305.486663 
L 278.784 305.435606 
L 281.952 305.399527 
L 294.624 305.82105 
L 300.96 305.829109 
L 310.464 306.121848 
L 323.136 306.171516 
L 332.64 305.895158 
L 338.976 305.845039 
L 348.48 305.904804 
L 354.816 305.801641 
L 357.984 305.853282 
L 364.32 305.759396 
L 376.992 305.869334 
L 380.16 305.775231 
L 383.328 305.932122 
L 386.496 305.825024 
L 396 305.877918 
L 405.504 305.712846 
L 418.176 305.970417 
L 424.512 305.879659 
L 434.016 305.845182 
L 437.184 305.734762 
L 440.352 305.854829 
L 446.688 305.778218 
L 449.856 305.72026 
L 456.192 305.835683 
L 459.36 305.804199 
L 465.696 306.003626 
L 472.032 305.966937 
L 475.2 306.119448 
L 484.704 306.120395 
L 487.872 305.96134 
L 494.208 306.059509 
L 503.712 305.895451 
L 510.048 306.516752 
L 522.72 306.360261 
L 529.056 306.530377 
L 532.224 306.420711 
L 541.728 306.44486 
L 544.896 306.286795 
L 551.232 306.438372 
L 557.568 306.196575 
L 563.904 306.250198 
L 567.072 306.30129 
L 570.24 306.20234 
L 573.408 305.804672 
L 576.576 305.779364 
L 579.744 305.629859 
L 598.752 305.663514 
L 601.92 305.394286 
L 605.088 305.446675 
L 608.256 305.262201 
L 611.424 305.261468 
L 614.592 305.083798 
L 617.76 305.205562 
L 620.928 305.172517 
L 627.264 305.387895 
L 630.432 305.308294 
L 633.6 305.088791 
L 636.768 304.656998 
L 639.936 304.766621 
L 643.104 304.753444 
L 646.272 304.956324 
L 703.296 305.283113 
L 706.464 305.500912 
L 715.968 305.747147 
L 719.136 305.898396 
L 725.472 305.91638 
L 744.48 306.048521 
L 750.816 306.011947 
L 757.152 305.959776 
L 760.32 305.888607 
L 763.488 305.64781 
L 766.656 305.803514 
L 769.824 305.698128 
L 782.496 305.84954 
L 788.832 306.068117 
L 788.832 306.068117 
" clip-path="url(#p4fe77f849b)" style="fill: none; stroke: #000000; stroke-width: 1.5; stroke-linecap: square"/>
   </g>
   <g id="line2d_8">
    <path d="M 0 306 
L 3.168 306 
L 6.336 306.707632 
L 9.504 307.609338 
L 12.672 306.698371 
L 15.84 305.133956 
L 19.008 305.745702 
L 22.176 305.475689 
L 25.344 305.499822 
L 28.512 306.325497 
L 31.68 306.565478 
L 34.848 306.326903 
L 38.016 304.206877 
L 41.184 304.778014 
L 44.352 305.738963 
L 47.52 305.818001 
L 50.688 306.19046 
L 57.024 306.299654 
L 63.36 306.407385 
L 69.696 306.350867 
L 72.864 306.448118 
L 76.032 305.93274 
L 82.368 306.046385 
L 88.704 305.630493 
L 95.04 305.568789 
L 98.208 305.751737 
L 101.376 305.742947 
L 104.544 305.970974 
L 114.048 305.767688 
L 117.216 305.77041 
L 120.384 305.59667 
L 129.888 305.608197 
L 133.056 305.7111 
L 142.56 305.50027 
L 174.24 305.293064 
L 177.408 305.33642 
L 183.744 305.243665 
L 190.08 305.296725 
L 196.416 305.265877 
L 199.584 305.432513 
L 202.752 305.391668 
L 209.088 305.512977 
L 212.256 305.824358 
L 218.592 306.02975 
L 253.44 305.682585 
L 259.776 305.708138 
L 272.448 305.533942 
L 285.12 305.557586 
L 288.288 305.684755 
L 300.96 305.767981 
L 310.464 305.971292 
L 323.136 306.015864 
L 335.808 305.791436 
L 357.984 305.814885 
L 367.488 305.77277 
L 392.832 305.836035 
L 472.032 305.897123 
L 478.368 306.012966 
L 484.704 305.995998 
L 487.872 305.902608 
L 494.208 305.963213 
L 503.712 305.868644 
L 510.048 306.238203 
L 525.888 306.210208 
L 529.056 306.264171 
L 535.392 306.21446 
L 554.4 306.139547 
L 560.736 306.078741 
L 567.072 306.157818 
L 570.24 306.102796 
L 573.408 305.875983 
L 605.088 305.657197 
L 614.592 305.442583 
L 627.264 305.598546 
L 633.6 305.425375 
L 636.768 305.179604 
L 652.608 305.368348 
L 703.296 305.451826 
L 709.632 305.604102 
L 719.136 305.78585 
L 731.808 305.793734 
L 757.152 305.83802 
L 772.992 305.718229 
L 788.832 305.901718 
L 788.832 305.901718 
" clip-path="url(#p4fe77f849b)" style="fill: none; stroke: #000000; stroke-width: 1.5; stroke-linecap: square"/>
   </g>
   <g id="line2d_9">
    <path d="M 0 306 
L 3.168 306 
L 6.336 306.705726 
L 9.504 307.603228 
L 12.672 306.70112 
L 15.84 305.152865 
L 19.008 305.753269 
L 22.176 305.486462 
L 25.344 305.508774 
L 28.512 306.315977 
L 31.68 306.551241 
L 34.848 306.320267 
L 38.016 304.261942 
L 41.184 304.810786 
L 44.352 305.736739 
L 47.52 305.813053 
L 50.688 306.171344 
L 57.024 306.278047 
L 63.36 306.383083 
L 69.696 306.331597 
L 72.864 306.42429 
L 76.032 305.940063 
L 82.368 306.046111 
L 88.704 305.657497 
L 95.04 305.598325 
L 98.208 305.766562 
L 101.376 305.757946 
L 104.544 305.967387 
L 114.048 305.781028 
L 117.216 305.783113 
L 120.384 305.624734 
L 129.888 305.632879 
L 133.056 305.72491 
L 142.56 305.534138 
L 183.744 305.295788 
L 190.08 305.339962 
L 196.416 305.311603 
L 199.584 305.453688 
L 205.92 305.485589 
L 209.088 305.521103 
L 212.256 305.78568 
L 218.592 305.961497 
L 272.448 305.555379 
L 291.456 305.676717 
L 297.792 305.722529 
L 316.8 305.930036 
L 319.968 306.015433 
L 335.808 305.772137 
L 361.152 305.760331 
L 373.824 305.776396 
L 389.664 305.795359 
L 399.168 305.771014 
L 408.672 305.763802 
L 421.344 305.809888 
L 506.88 305.972934 
L 510.048 306.108368 
L 525.888 306.093687 
L 535.392 306.099981 
L 570.24 306.031464 
L 573.408 305.875696 
L 611.424 305.647491 
L 614.592 305.576451 
L 627.264 305.677779 
L 633.6 305.560104 
L 636.768 305.394297 
L 655.776 305.514899 
L 665.28 305.479575 
L 700.128 305.546127 
L 709.632 305.649538 
L 722.304 305.755569 
L 747.648 305.811853 
L 760.32 305.78017 
L 763.488 305.698156 
L 769.824 305.715511 
L 788.832 305.843733 
L 788.832 305.843733 
" clip-path="url(#p4fe77f849b)" style="fill: none; stroke: #000000; stroke-width: 1.5; stroke-linecap: square"/>
   </g>
  </g>
 </g>
 <defs>
  <clipPath id="p4fe77f849b">
   <rect x="0" y="0" width="792" height="612"/>
  </clipPath>
 </defs>
</svg>
