<?xml version="1.0" encoding="utf-8" standalone="no"?>
<!DOCTYPE svg PUBLIC "-//W3C//DTD SVG 1.1//EN"
  "http://www.w3.org/Graphics/SVG/1.1/DTD/svg11.dtd">
<svg xmlns:xlink="http://www.w3.org/1999/xlink" width="792pt" height="612pt" viewBox="0 0 792 612" xmlns="http://www.w3.org/2000/svg" version="1.1">
 <metadata>
  <rdf:RDF xmlns:dc="http://purl.org/dc/elements/1.1/" xmlns:cc="http://creativecommons.org/ns#" xmlns:rdf="http://www.w3.org/1999/02/22-rdf-syntax-ns#">
   <cc:Work>
    <dc:type rdf:resource="http://purl.org/dc/dcmitype/StillImage"/>
    <dc:date>2022-12-19T20:29:11.978423</dc:date>
    <dc:format>image/svg+xml</dc:format>
    <dc:creator>
     <cc:Agent>
      <dc:title>Matplotlib v3.6.2, https://matplotlib.org/</dc:title>
     </cc:Agent>
    </dc:creator>
   </cc:Work>
  </rdf:RDF>
 </metadata>
 <defs>
  <style type="text/css">*{stroke-linejoin: round; stroke-linecap: butt}</style>
 </defs>
 <g id="figure_1">
  <g id="patch_1">
   <path d="M 0 612 
L 792 612 
L 792 0 
L 0 0 
z
" style="fill: #ffffff"/>
  </g>
  <g id="axes_1">
   <g id="line2d_1">
    <path d="M 0 306 
L 3.155378 302.598371 
L 6.310757 298.025743 
L 9.466135 301.180019 
L 12.621514 306.115805 
L 15.776892 309.633208 
L 18.932271 304.653777 
L 22.087649 305.11699 
L 25.243028 302.728636 
L 28.398406 304.002394 
L 31.553785 305.131466 
L 34.709163 303.351029 
L 37.864542 307.635729 
L 41.01992 308.171306 
L 44.175299 303.510249 
L 47.330677 304.335321 
L 50.486056 309.908203 
L 53.641434 305.956573 
L 56.796813 302.931273 
L 59.952191 301.541826 
L 63.10757 303.090489 
L 66.262948 306.897485 
L 69.418327 307.317273 
L 72.573705 299.472489 
L 75.729084 308.21473 
L 78.884462 309.662155 
L 82.039841 309.473998 
L 85.195219 307.708105 
L 88.350598 308.373953 
L 91.505976 307.505452 
L 94.661355 309.618735 
L 97.816733 303.886594 
L 100.972112 298.561001 
L 104.12749 308.895036 
L 107.282869 303.770795 
L 110.438247 305.63811 
L 113.593625 313.077313 
L 116.749004 308.793716 
L 119.904382 303.944494 
L 123.059761 280.754143 
L 126.215139 311.529083 
L 129.370518 318.109761 
L 132.525896 306.897485 
L 135.681275 311.688261 
L 138.836653 306.477695 
L 141.992032 307.852856 
L 145.14741 307.4186 
L 148.302789 307.317273 
L 151.458167 305.073564 
L 154.613546 306.593499 
L 157.768924 308.504225 
L 160.924303 294.771967 
L 164.079681 306.796157 
L 167.23506 307.838381 
L 170.390438 301.107659 
L 173.545817 300.138094 
L 176.701195 305.609159 
L 179.856574 303.901069 
L 183.011952 310.718676 
L 186.167331 305.478878 
L 189.322709 312.527511 
L 192.478088 303.249707 
L 195.633466 305.478878 
L 198.788845 302.598371 
L 201.944223 305.840768 
L 205.099602 299.935512 
L 208.25498 305.435452 
L 211.410359 305.898671 
L 214.565737 305.782866 
L 217.721116 309.314786 
L 220.876494 302.10627 
L 224.031873 303.220759 
L 227.187251 303.568148 
L 230.342629 304.451123 
L 233.498008 304.509024 
L 236.653386 307.085666 
L 239.808765 304.118194 
L 242.964143 303.466825 
L 246.119522 306.448744 
L 249.2749 298.228267 
L 252.430279 303.524724 
L 255.585657 305.449927 
L 258.741036 307.664679 
L 261.896414 307.20147 
L 265.051793 300.977413 
L 268.207171 305.261745 
L 271.36255 309.025305 
L 274.517928 303.915544 
L 277.673307 303.090489 
L 280.828685 305.884195 
L 283.984064 313.395598 
L 287.139442 303.365503 
L 290.294821 309.32926 
L 293.450199 307.563353 
L 296.605578 321.417937 
L 299.760956 313.149652 
L 302.916335 309.285838 
L 306.071713 304.161619 
L 309.227092 300.34068 
L 312.38247 308.533175 
L 315.537849 302.88785 
L 318.693227 302.033904 
L 321.848606 303.872119 
L 325.003984 306.101329 
L 328.159363 300.094683 
L 331.314741 307.910756 
L 334.47012 305.319647 
L 337.625498 303.857644 
L 340.780876 308.012081 
L 343.936255 304.827481 
L 347.091633 302.048377 
L 350.247012 303.770795 
L 353.40239 301.8747 
L 356.557769 304.378746 
L 359.713147 305.942098 
L 362.868526 302.801006 
L 366.023904 303.857644 
L 369.179283 310.805509 
L 372.334661 313.438999 
L 375.49004 305.753915 
L 378.645418 310.356865 
L 381.800797 304.595875 
L 384.956175 307.346223 
L 388.111554 311.398844 
L 391.266932 308.5187 
L 394.422311 310.689732 
L 397.577689 307.548877 
L 400.733068 306.173707 
L 403.888446 313.048377 
L 407.043825 300.195975 
L 410.199203 300.659041 
L 413.354582 303.495775 
L 416.50996 301.729971 
L 419.665339 302.699688 
L 422.820717 306.75273 
L 425.976096 307.939706 
L 429.131474 303.220759 
L 432.286853 309.083201 
L 435.442231 302.74311 
L 438.59761 304.291895 
L 441.752988 308.142356 
L 444.908367 302.858902 
L 448.063745 304.465598 
L 451.219124 307.013289 
L 454.374502 307.172519 
L 457.52988 305.826293 
L 460.685259 308.171306 
L 463.840637 301.512881 
L 466.996016 313.019441 
L 470.151394 300.962941 
L 473.306773 306.998814 
L 476.462151 307.230421 
L 479.61753 305.753915 
L 482.772908 301.990484 
L 485.928287 302.497054 
L 489.083665 305.160417 
L 492.239044 308.851613 
L 495.394422 309.300312 
L 498.549801 308.648971 
L 501.705179 308.504225 
L 504.860558 301.324741 
L 508.015936 306.23161 
L 511.171315 307.056716 
L 514.326693 304.494548 
L 517.482072 304.451123 
L 520.63745 300.601156 
L 523.792829 311.413315 
L 526.948207 305.942098 
L 530.103586 302.10627 
L 533.258964 303.003644 
L 536.414343 309.720049 
L 539.569721 307.273847 
L 542.7251 304.320846 
L 545.880478 311.731673 
L 549.035857 309.517419 
L 552.191235 305.971049 
L 555.346614 304.27742 
L 558.501992 313.27986 
L 561.657371 307.838381 
L 564.812749 306.376366 
L 567.968127 304.291895 
L 571.123506 298.474199 
L 574.278884 310.530536 
L 577.434263 306.217134 
L 580.589641 302.279951 
L 583.74502 305.044613 
L 586.900398 302.757584 
L 590.055777 320.565927 
L 593.211155 321.562322 
L 596.366534 304.176094 
L 599.521912 306.665877 
L 602.677291 300.962941 
L 605.832669 306.550073 
L 608.988048 310.414756 
L 612.143426 310.704204 
L 615.298805 301.237908 
L 618.454183 307.129093 
L 621.609562 306.144756 
L 624.76494 307.273847 
L 627.920319 298.77801 
L 631.075697 309.720049 
L 634.231076 310.356865 
L 637.386454 298.705673 
L 640.541833 302.265477 
L 643.697211 304.841956 
L 646.85259 310.168719 
L 650.007968 308.764767 
L 653.163347 301.483936 
L 656.318725 286.787216 
L 659.474104 304.552449 
L 662.629482 298.445265 
L 665.784861 306.463219 
L 668.940239 303.698421 
L 672.095618 307.172519 
L 675.250996 311.688261 
L 678.406375 307.071191 
L 681.561753 299.501427 
L 684.717131 292.430779 
L 687.87251 307.925231 
L 691.027888 296.347969 
L 694.183267 305.174892 
L 697.338645 296.478121 
L 700.494024 311.008115 
L 703.649402 303.524724 
L 706.804781 310.414756 
L 709.960159 310.530536 
L 713.115538 301.426047 
L 716.270916 294.453944 
L 719.426295 283.790106 
L 722.581673 309.966096 
L 725.737052 304.031344 
L 728.89243 314.668573 
L 732.047809 306 
L 735.203187 308.055506 
L 738.358566 305.753915 
L 741.513944 300.890583 
L 744.669323 306.014476 
L 747.824701 304.740629 
L 750.98008 307.606778 
L 754.135458 306 
L 757.290837 310.791037 
L 760.446215 307.621254 
L 763.601594 306.911961 
L 766.756972 299.61718 
L 769.912351 306 
L 773.067729 307.288322 
L 776.223108 306.868534 
L 779.378486 306 
L 782.533865 304.769579 
L 785.689243 306.275037 
L 788.844622 316.013548 
L 788.844622 316.013548 
" clip-path="url(#p2c6b8cedb5)" style="fill: none; stroke: #000000; stroke-width: 1.5; stroke-linecap: square"/>
   </g>
   <g id="line2d_2">
    <path d="M 0 306 
L 3.155378 306 
L 6.310757 303.732195 
L 9.466135 300.470917 
L 12.621514 300.849098 
L 15.776892 303.567214 
L 18.932271 306.648415 
L 22.087649 305.643239 
L 25.243028 305.379082 
L 28.398406 304.047408 
L 31.553785 304.027654 
L 34.709163 304.593491 
L 37.864542 303.976509 
L 41.01992 305.809092 
L 44.175299 306.987347 
L 47.330677 305.246532 
L 50.486056 304.789391 
L 53.641434 307.362969 
L 56.796813 306.663607 
L 59.952191 304.793081 
L 63.10757 303.163826 
L 66.262948 303.118246 
L 69.418327 305.00533 
L 72.573705 306.168769 
L 75.729084 302.810712 
L 78.884462 305.509362 
L 82.039841 307.593098 
L 85.195219 308.5464 
L 88.350598 308.139347 
L 91.505976 308.26701 
L 94.661355 307.887426 
L 97.816733 308.757615 
L 100.972112 306.330782 
L 104.12749 302.426389 
L 107.282869 305.65917 
L 110.438247 304.703787 
L 113.593625 305.166888 
L 116.749004 309.131846 
L 119.904382 308.965308 
L 123.059761 306.443805 
L 126.215139 293.531653 
L 129.370518 302.552793 
L 132.525896 310.352155 
L 135.681275 308.631034 
L 138.836653 310.171613 
L 141.992032 308.311797 
L 151.458167 307.589011 
L 154.613546 306.318634 
L 157.768924 306.433473 
L 160.924303 307.472017 
L 164.079681 301.086718 
L 167.23506 303.941883 
L 170.390438 305.890099 
L 173.545817 303.486352 
L 176.701195 301.798022 
L 179.856574 303.704551 
L 183.011952 303.797531 
L 186.167331 307.262607 
L 189.322709 306.39175 
L 192.478088 309.471217 
L 195.633466 306.351502 
L 198.788845 305.923762 
L 201.944223 304.26584 
L 205.099602 305.053752 
L 208.25498 302.486611 
L 211.410359 303.950624 
L 214.565737 304.92546 
L 217.721116 305.340935 
L 220.876494 307.339809 
L 224.031873 304.716333 
L 227.187251 303.969754 
L 230.342629 303.764494 
L 233.498008 304.116661 
L 236.653386 304.311025 
L 239.808765 305.700667 
L 246.119522 304.175016 
L 249.2749 305.320385 
L 252.430279 301.763968 
L 255.585657 302.644233 
L 258.741036 304.048998 
L 261.896414 305.863021 
L 265.051793 306.532475 
L 268.207171 303.7486 
L 271.36255 304.508683 
L 274.517928 306.772088 
L 277.673307 305.354956 
L 280.828685 304.221847 
L 283.984064 305.053866 
L 287.139442 309.23657 
L 290.294821 306.293543 
L 293.450199 307.827823 
L 296.605578 307.700101 
L 299.760956 314.58763 
L 302.916335 313.886781 
L 306.071713 311.59877 
L 312.38247 304.083 
L 315.537849 306.318236 
L 318.693227 304.590369 
L 321.848606 303.301248 
L 325.003984 303.552254 
L 328.159363 304.812949 
L 331.314741 302.435584 
L 334.47012 305.180455 
L 337.625498 305.259815 
L 340.780876 304.549554 
L 343.936255 306.290875 
L 347.091633 305.564653 
L 350.247012 303.802867 
L 353.40239 303.782261 
L 356.557769 302.831941 
L 359.713147 303.598403 
L 362.868526 304.771453 
L 366.023904 303.784134 
L 369.179283 303.812744 
L 372.334661 307.321019 
L 375.49004 310.40278 
L 378.645418 308.082356 
L 381.800797 309.236286 
L 384.956175 306.916559 
L 388.111554 307.134145 
L 391.266932 309.283511 
L 394.422311 308.910249 
L 397.577689 309.799795 
L 403.888446 307.419111 
L 407.043825 310.239381 
L 410.199203 305.208839 
L 413.354582 302.920658 
L 416.50996 303.192718 
L 419.665339 302.448014 
L 422.820717 302.558185 
L 425.976096 304.653833 
L 429.131474 306.300241 
L 432.286853 304.741196 
L 435.442231 306.929672 
L 438.59761 304.840424 
L 441.752988 304.567719 
L 444.908367 306.367624 
L 448.063745 304.61353 
L 451.219124 304.535079 
L 454.374502 305.772364 
L 457.52988 306.480193 
L 460.685259 306.146857 
L 463.840637 307.169737 
L 466.996016 304.335718 
L 470.151394 308.687683 
L 473.306773 304.821407 
L 476.462151 305.915076 
L 479.61753 306.573177 
L 482.772908 306.160764 
L 485.928287 304.068014 
L 489.083665 303.271391 
L 492.239044 304.223039 
L 495.394422 306.529182 
L 498.549801 307.931135 
L 501.705179 308.293292 
L 504.860558 308.401256 
L 508.015936 304.854161 
L 514.326693 306.3129 
L 517.482072 305.402413 
L 520.63745 304.918137 
L 523.792829 302.742429 
L 526.948207 307.083509 
L 530.103586 306.507781 
L 533.258964 304.308471 
L 536.414343 303.649717 
L 539.569721 306.690173 
L 542.7251 306.987461 
L 545.880478 305.653891 
L 549.035857 308.714873 
L 552.191235 309.112433 
L 558.501992 305.913884 
L 561.657371 309.617543 
L 564.812749 308.724295 
L 567.968127 307.548594 
L 571.123506 305.920185 
L 574.278884 302.170634 
L 577.434263 306.352637 
L 580.589641 306.285368 
L 583.74502 304.278669 
L 586.900398 304.645489 
L 590.055777 303.691552 
L 593.211155 312.161237 
L 596.366534 316.898194 
L 599.521912 310.550287 
L 602.677291 308.600609 
L 605.832669 304.771282 
L 608.988048 305.669048 
L 612.143426 308.052554 
L 615.298805 309.394023 
L 618.454183 305.277924 
L 621.609562 306.175183 
L 624.76494 306.16383 
L 627.920319 306.720033 
L 631.075697 302.744188 
L 634.231076 306.238365 
L 637.386454 308.297606 
L 640.541833 303.477497 
L 643.697211 302.87349 
L 646.85259 303.853217 
L 650.007968 307.018966 
L 653.163347 307.894805 
L 656.318725 304.694535 
L 659.474104 295.687109 
L 662.629482 300.107167 
L 665.784861 299.275656 
L 668.940239 302.877236 
L 672.095618 303.285581 
L 675.250996 305.223144 
L 678.406375 308.46171 
L 681.561753 307.777415 
L 684.717131 303.663965 
L 687.87251 298.020921 
L 691.027888 302.990872 
L 694.183267 299.648843 
L 697.338645 302.414469 
L 700.494024 299.424713 
L 703.649402 305.214799 
L 706.804781 304.362795 
L 709.960159 307.410312 
L 713.115538 309.006006 
L 716.270916 305.203162 
L 719.426295 299.822931 
L 722.581673 291.754833 
L 725.737052 300.882354 
L 728.89243 302.443076 
L 732.047809 308.578699 
L 735.203187 307.280715 
L 738.358566 307.66326 
L 741.513944 306.717081 
L 744.669323 303.816263 
L 747.824701 304.959009 
L 750.98008 304.839572 
L 754.135458 306.230191 
L 757.290837 306.098094 
L 760.446215 308.454103 
L 763.601594 308.036831 
L 766.756972 307.476671 
L 769.912351 303.544024 
L 776.223108 306.035139 
L 779.378486 306.45039 
L 782.533865 306.225195 
L 785.689243 305.485577 
L 788.844622 305.877667 
L 788.844622 305.877667 
" clip-path="url(#p2c6b8cedb5)" style="fill: none; stroke: #000000; stroke-width: 1.5; stroke-linecap: square"/>
   </g>
   <g id="line2d_3">
    <path d="M 0 306 
L 3.155378 306 
L 6.310757 304.007318 
L 9.466135 301.296712 
L 12.621514 301.25114 
L 15.776892 302.981783 
L 18.932271 305.208243 
L 22.087649 305.030097 
L 25.243028 305.057244 
L 28.398406 304.343651 
L 31.553785 304.240474 
L 34.709163 304.507334 
L 37.864542 304.163278 
L 41.01992 305.191689 
L 44.175299 306.07128 
L 47.330677 305.316989 
L 50.486056 305.028335 
L 53.641434 306.462164 
L 56.796813 306.317938 
L 59.952191 305.331614 
L 63.10757 304.221953 
L 66.262948 303.887074 
L 69.418327 304.765644 
L 72.573705 305.516056 
L 75.729084 303.739203 
L 82.039841 306.411903 
L 85.195219 307.313794 
L 88.350598 307.43429 
L 91.505976 307.710362 
L 94.661355 307.649581 
L 97.816733 308.23337 
L 100.972112 306.959728 
L 104.12749 304.486348 
L 107.282869 305.781015 
L 110.438247 305.19319 
L 113.593625 305.328209 
L 116.749004 307.609695 
L 119.904382 307.958671 
L 123.059761 306.77908 
L 126.215139 299.119303 
L 129.370518 302.757328 
L 132.525896 307.265422 
L 135.681275 307.154697 
L 138.836653 308.48726 
L 141.992032 307.896509 
L 145.14741 307.884122 
L 151.458167 307.623838 
L 154.613546 306.884369 
L 157.768924 306.796532 
L 160.924303 307.30215 
L 164.079681 303.618235 
L 170.390438 305.506239 
L 176.701195 303.042791 
L 179.856574 303.787636 
L 183.011952 303.804533 
L 186.167331 305.834111 
L 189.322709 305.722933 
L 192.478088 307.723169 
L 195.633466 306.407626 
L 198.788845 306.133374 
L 201.944223 305.092537 
L 205.099602 305.31257 
L 208.25498 303.729826 
L 214.565737 304.728592 
L 217.721116 305.036216 
L 220.876494 306.291112 
L 224.031873 305.066489 
L 227.187251 304.529415 
L 230.342629 304.245518 
L 236.653386 304.358593 
L 239.808765 305.159172 
L 246.119522 304.441311 
L 249.2749 305.030382 
L 252.430279 303.032669 
L 255.585657 303.174127 
L 258.741036 303.847007 
L 261.896414 304.967721 
L 265.051793 305.623467 
L 268.207171 304.257036 
L 271.36255 304.54665 
L 274.517928 305.866386 
L 280.828685 304.649304 
L 283.984064 305.012639 
L 287.139442 307.478567 
L 290.294821 306.269595 
L 293.450199 307.171768 
L 296.605578 307.291166 
L 299.760956 311.449267 
L 302.916335 311.964473 
L 306.071713 311.186611 
L 309.227092 309.127795 
L 312.38247 306.545583 
L 315.537849 307.129277 
L 321.848606 304.756215 
L 325.003984 304.491347 
L 328.159363 304.965406 
L 331.314741 303.535198 
L 334.47012 304.819073 
L 337.625498 304.956409 
L 340.780876 304.63515 
L 343.936255 305.622719 
L 347.091633 305.386656 
L 350.247012 304.386584 
L 353.40239 304.195448 
L 356.557769 303.507171 
L 359.713147 303.762695 
L 362.868526 304.407448 
L 366.023904 303.930335 
L 369.179283 303.910158 
L 372.334661 305.939928 
L 375.49004 308.14774 
L 378.645418 307.44622 
L 381.800797 308.310566 
L 384.956175 307.218773 
L 388.111554 307.25843 
L 391.266932 308.479906 
L 394.422311 308.491851 
L 397.577689 309.142365 
L 400.733068 308.681975 
L 403.888446 307.950102 
L 407.043825 309.456425 
L 410.199203 306.739196 
L 413.354582 304.952137 
L 416.50996 304.526369 
L 419.665339 303.704832 
L 422.820717 303.401116 
L 429.131474 305.421637 
L 432.286853 304.768801 
L 435.442231 306.03764 
L 438.59761 305.067374 
L 441.752988 304.832076 
L 444.908367 305.801209 
L 448.063745 304.930404 
L 451.219124 304.790723 
L 454.374502 305.442659 
L 457.52988 305.942574 
L 460.685259 305.914984 
L 463.840637 306.584485 
L 466.996016 305.096677 
L 470.151394 307.430518 
L 473.306773 305.534088 
L 479.61753 306.333675 
L 482.772908 306.166777 
L 485.928287 304.935359 
L 489.083665 304.220886 
L 492.239044 304.497063 
L 495.394422 305.773311 
L 498.549801 306.81378 
L 501.705179 307.356112 
L 504.860558 307.694105 
L 508.015936 305.82175 
L 511.171315 305.94226 
L 514.326693 306.267398 
L 517.482072 305.751564 
L 520.63745 305.360827 
L 523.792829 303.966202 
L 526.948207 306.152626 
L 530.103586 306.089484 
L 533.258964 304.918581 
L 536.414343 304.358857 
L 539.569721 305.937453 
L 542.7251 306.331303 
L 545.880478 305.737245 
L 549.035857 307.49595 
L 552.191235 308.089043 
L 555.346614 307.465799 
L 558.501992 306.535339 
L 561.657371 308.519206 
L 564.812749 308.320697 
L 567.968127 307.753389 
L 571.123506 306.739365 
L 574.278884 304.315683 
L 577.434263 306.135042 
L 580.589641 306.159402 
L 583.74502 305.023286 
L 586.900398 305.031877 
L 590.055777 304.357732 
L 593.211155 309.12339 
L 596.366534 312.789386 
L 599.521912 310.258439 
L 602.677291 309.203004 
L 605.832669 306.783741 
L 608.988048 306.717911 
L 612.143426 307.79747 
L 615.298805 308.652181 
L 618.454183 306.474622 
L 621.609562 306.669572 
L 624.76494 306.524669 
L 627.920319 306.740358 
L 631.075697 304.399317 
L 634.231076 305.966313 
L 637.386454 307.258457 
L 640.541833 304.748356 
L 643.697211 304.000074 
L 646.85259 304.227433 
L 650.007968 305.974541 
L 653.163347 306.79421 
L 656.318725 305.239372 
L 659.474104 299.805565 
L 662.629482 301.188956 
L 665.784861 300.37117 
L 668.940239 302.161245 
L 672.095618 302.607516 
L 675.250996 303.945689 
L 678.406375 306.218677 
L 681.561753 306.477901 
L 684.717131 304.422528 
L 687.87251 300.887484 
L 691.027888 302.959155 
L 694.183267 301.015415 
L 697.338645 302.233958 
L 700.494024 300.53193 
L 703.649402 303.602679 
L 706.804781 303.582191 
L 709.960159 305.610625 
L 713.115538 307.058593 
L 716.270916 305.412188 
L 719.426295 302.187383 
L 722.581673 296.767238 
L 725.737052 300.634936 
L 728.89243 301.620827 
L 732.047809 305.451621 
L 735.203187 305.619703 
L 738.358566 306.351099 
L 741.513944 306.173694 
L 744.669323 304.631397 
L 747.824701 305.037453 
L 750.98008 304.960008 
L 754.135458 305.731324 
L 757.290837 305.81286 
L 760.446215 307.271474 
L 763.601594 307.370581 
L 766.756972 307.242556 
L 769.912351 305.014808 
L 773.067729 305.328918 
L 776.223108 305.89974 
L 779.378486 306.186753 
L 782.533865 306.122095 
L 785.689243 305.724537 
L 788.844622 305.883729 
L 788.844622 305.883729 
" clip-path="url(#p2c6b8cedb5)" style="fill: none; stroke: #000000; stroke-width: 1.5; stroke-linecap: square"/>
   </g>
   <g id="line2d_4">
    <path d="M 0 306 
L 3.155378 306 
L 6.310757 304.152135 
L 9.466135 301.747297 
L 12.621514 301.566782 
L 15.776892 302.815509 
L 18.932271 304.49345 
L 25.243028 304.654326 
L 28.398406 304.266374 
L 31.553785 304.215355 
L 34.709163 304.386559 
L 37.864542 304.198263 
L 44.175299 305.396161 
L 47.330677 305.072006 
L 50.486056 304.946982 
L 53.641434 305.780149 
L 56.796813 305.809516 
L 59.952191 305.333886 
L 63.10757 304.711049 
L 66.262948 304.446246 
L 72.573705 305.245839 
L 75.729084 304.312553 
L 78.884462 304.941666 
L 82.039841 305.701128 
L 85.195219 306.307058 
L 94.661355 306.935357 
L 97.816733 307.364305 
L 100.972112 306.808819 
L 104.12749 305.491688 
L 107.282869 306.037115 
L 110.438247 305.680115 
L 113.593625 305.676213 
L 116.749004 306.858298 
L 119.904382 307.165714 
L 123.059761 306.652763 
L 126.215139 302.507964 
L 129.370518 303.948747 
L 132.525896 306.211602 
L 135.681275 306.321831 
L 138.836653 307.18095 
L 141.992032 307.068338 
L 148.302789 307.231299 
L 151.458167 307.246838 
L 154.613546 306.898048 
L 157.768924 306.849991 
L 160.924303 307.116669 
L 164.079681 305.147559 
L 167.23506 305.412169 
L 170.390438 305.798778 
L 176.701195 304.267525 
L 179.856574 304.479355 
L 183.011952 304.383752 
L 186.167331 305.392486 
L 189.322709 305.40484 
L 192.478088 306.540831 
L 195.633466 306.014535 
L 198.788845 305.926727 
L 201.944223 305.396348 
L 205.099602 305.4716 
L 208.25498 304.585081 
L 217.721116 305.043383 
L 220.876494 305.723322 
L 224.031873 305.146658 
L 230.342629 304.644685 
L 236.653386 304.588544 
L 239.808765 304.982969 
L 246.119522 304.622067 
L 249.2749 304.91209 
L 252.430279 303.842763 
L 255.585657 303.791195 
L 258.741036 304.054386 
L 261.896414 304.628262 
L 265.051793 305.045424 
L 268.207171 304.394498 
L 271.36255 304.530871 
L 274.517928 305.2509 
L 280.828685 304.728913 
L 283.984064 304.913958 
L 287.139442 306.265314 
L 290.294821 305.802614 
L 293.450199 306.361741 
L 296.605578 306.555615 
L 299.760956 308.932207 
L 302.916335 309.609917 
L 306.071713 309.560504 
L 309.227092 308.704221 
L 312.38247 307.37032 
L 315.537849 307.556981 
L 321.848606 306.047456 
L 325.003984 305.702449 
L 328.159363 305.76771 
L 331.314741 304.862832 
L 334.47012 305.349926 
L 337.625498 305.345615 
L 340.780876 305.106855 
L 343.936255 305.571519 
L 347.091633 305.453989 
L 350.247012 304.909367 
L 353.40239 304.731673 
L 356.557769 304.276061 
L 359.713147 304.29173 
L 362.868526 304.55323 
L 366.023904 304.27169 
L 369.179283 304.207611 
L 372.334661 305.260866 
L 375.49004 306.565023 
L 378.645418 306.43712 
L 381.800797 307.065342 
L 384.956175 306.671638 
L 388.111554 306.775193 
L 391.266932 307.515923 
L 394.422311 307.674965 
L 397.577689 308.156613 
L 400.733068 308.05126 
L 403.888446 307.748188 
L 407.043825 308.593968 
L 410.199203 307.255277 
L 413.354582 306.20591 
L 416.50996 305.771566 
L 419.665339 305.127769 
L 422.820717 304.741853 
L 425.976096 305.063586 
L 429.131474 305.522336 
L 432.286853 305.158087 
L 435.442231 305.783333 
L 438.59761 305.297997 
L 441.752988 305.138192 
L 444.908367 305.61625 
L 448.063745 305.176302 
L 451.219124 305.064734 
L 457.52988 305.665793 
L 460.685259 305.692232 
L 463.840637 306.088058 
L 466.996016 305.359277 
L 470.151394 306.583948 
L 473.306773 305.683413 
L 479.61753 306.103077 
L 482.772908 306.044652 
L 485.928287 305.397958 
L 489.083665 304.933367 
L 492.239044 304.965599 
L 498.549801 306.174512 
L 504.860558 306.878281 
L 508.015936 305.987322 
L 511.171315 306.029955 
L 514.326693 306.197309 
L 520.63745 305.693891 
L 523.792829 304.882225 
L 526.948207 305.924339 
L 530.103586 305.925918 
L 533.258964 305.31747 
L 536.414343 304.945527 
L 539.569721 305.70955 
L 542.7251 305.960297 
L 545.880478 305.697067 
L 549.035857 306.662836 
L 552.191235 307.120183 
L 555.346614 306.936703 
L 558.501992 306.511794 
L 561.657371 307.593474 
L 564.812749 307.632232 
L 567.968127 307.435456 
L 571.123506 306.929861 
L 574.278884 305.582743 
L 577.434263 306.372211 
L 580.589641 306.346905 
L 583.74502 305.697641 
L 586.900398 305.595648 
L 590.055777 305.144247 
L 593.211155 307.609246 
L 596.366534 309.839119 
L 599.521912 308.93499 
L 602.677291 308.572744 
L 605.832669 307.357261 
L 608.988048 307.232096 
L 615.298805 308.214865 
L 618.454183 307.10274 
L 621.609562 307.108604 
L 624.76494 306.958712 
L 627.920319 307.006268 
L 631.075697 305.692442 
L 637.386454 306.982072 
L 640.541833 305.658177 
L 643.697211 305.115234 
L 646.85259 305.072079 
L 650.007968 305.882036 
L 653.163347 306.340231 
L 656.318725 305.564726 
L 659.474104 302.562346 
L 662.629482 302.873518 
L 665.784861 302.162971 
L 668.940239 302.847152 
L 672.095618 302.982219 
L 675.250996 303.654303 
L 678.406375 304.933327 
L 681.561753 305.274 
L 684.717131 304.353688 
L 687.87251 302.447564 
L 691.027888 303.322243 
L 694.183267 302.197121 
L 697.338645 302.660629 
L 700.494024 301.671853 
L 703.649402 303.159905 
L 706.804781 303.219547 
L 709.960159 304.366742 
L 713.115538 305.347537 
L 716.270916 304.717777 
L 719.426295 303.079738 
L 722.581673 299.990575 
L 725.737052 301.579794 
L 728.89243 301.967792 
L 732.047809 303.99865 
L 735.203187 304.314744 
L 738.358566 304.908472 
L 741.513944 305.047382 
L 744.669323 304.385099 
L 747.824701 304.645067 
L 750.98008 304.656884 
L 754.135458 305.125498 
L 757.290837 305.267452 
L 760.446215 306.161328 
L 763.601594 306.395524 
L 766.756972 306.482975 
L 769.912351 305.386184 
L 773.067729 305.48528 
L 776.223108 305.772224 
L 779.378486 305.943644 
L 782.533865 305.951942 
L 785.689243 305.76711 
L 788.844622 305.856567 
L 788.844622 305.856567 
" clip-path="url(#p2c6b8cedb5)" style="fill: none; stroke: #000000; stroke-width: 1.5; stroke-linecap: square"/>
   </g>
   <g id="line2d_5">
    <path d="M 0 306 
L 3.155378 306 
L 6.310757 304.225496 
L 9.466135 301.977063 
L 12.621514 301.751202 
L 15.776892 302.781444 
L 18.932271 304.184153 
L 25.243028 304.410478 
L 28.398406 304.152692 
L 31.553785 304.131168 
L 34.709163 304.266281 
L 37.864542 304.148771 
L 44.175299 305.001531 
L 47.330677 304.831366 
L 50.486056 304.776473 
L 53.641434 305.329087 
L 56.796813 305.395028 
L 66.262948 304.611512 
L 72.573705 305.072957 
L 75.729084 304.541653 
L 82.039841 305.328948 
L 85.195219 305.70968 
L 97.816733 306.541327 
L 100.972112 306.306304 
L 104.12749 305.624264 
L 107.282869 305.910791 
L 110.438247 305.724183 
L 113.593625 305.716709 
L 116.749004 306.353521 
L 119.904382 306.563871 
L 123.059761 306.338801 
L 126.215139 304.141976 
L 129.370518 304.7732 
L 132.525896 305.910486 
L 135.681275 305.994426 
L 138.836653 306.477725 
L 141.992032 306.477722 
L 151.458167 306.718749 
L 154.613546 306.580221 
L 157.768924 306.581338 
L 160.924303 306.74288 
L 164.079681 305.737821 
L 170.390438 305.995098 
L 176.701195 305.130173 
L 179.856574 305.170214 
L 183.011952 305.064182 
L 186.167331 305.536355 
L 189.322709 305.531558 
L 192.478088 306.115233 
L 195.633466 305.87629 
L 198.788845 305.843165 
L 201.944223 305.572793 
L 205.099602 305.594982 
L 208.25498 305.124338 
L 217.721116 305.262967 
L 220.876494 305.599157 
L 224.031873 305.308416 
L 230.342629 305.004794 
L 236.653386 304.921439 
L 239.808765 305.102276 
L 246.119522 304.889059 
L 249.2749 305.019462 
L 252.430279 304.453703 
L 255.585657 304.374523 
L 258.741036 304.463611 
L 265.051793 304.937718 
L 268.207171 304.608309 
L 271.36255 304.662009 
L 274.517928 305.024704 
L 280.828685 304.779409 
L 283.984064 304.869871 
L 287.139442 305.578864 
L 290.294821 305.393746 
L 293.450199 305.720699 
L 296.605578 305.873652 
L 299.760956 307.168688 
L 302.916335 307.668196 
L 306.071713 307.805949 
L 309.227092 307.501949 
L 312.38247 306.906431 
L 315.537849 307.04239 
L 325.003984 306.103282 
L 328.159363 306.111389 
L 331.314741 305.608244 
L 334.47012 305.796023 
L 337.625498 305.755972 
L 340.780876 305.595867 
L 343.936255 305.796905 
L 347.091633 305.715462 
L 350.247012 305.409343 
L 353.40239 305.272193 
L 356.557769 304.989155 
L 359.713147 304.937773 
L 362.868526 305.020293 
L 369.179283 304.756327 
L 372.334661 305.259378 
L 375.49004 305.942388 
L 378.645418 305.928574 
L 381.800797 306.297674 
L 384.956175 306.156657 
L 388.111554 306.254289 
L 391.266932 306.683239 
L 394.422311 306.834273 
L 397.577689 307.156709 
L 400.733068 307.189931 
L 403.888446 307.106753 
L 407.043825 307.602324 
L 413.354582 306.460817 
L 416.50996 306.213944 
L 422.820717 305.577616 
L 429.131474 305.86602 
L 432.286853 305.646355 
L 435.442231 305.933115 
L 438.59761 305.667773 
L 441.752988 305.55267 
L 444.908367 305.768916 
L 448.063745 305.52719 
L 451.219124 305.438436 
L 457.52988 305.706026 
L 460.685259 305.71613 
L 463.840637 305.920068 
L 466.996016 305.552411 
L 470.151394 306.176166 
L 473.306773 305.742053 
L 482.772908 305.945326 
L 489.083665 305.353401 
L 492.239044 305.337968 
L 501.705179 306.155801 
L 504.860558 306.349203 
L 508.015936 305.929572 
L 517.482072 305.91859 
L 520.63745 305.797304 
L 523.792829 305.365533 
L 526.948207 305.869975 
L 530.103586 305.875909 
L 536.414343 305.349605 
L 539.569721 305.713781 
L 542.7251 305.844372 
L 545.880478 305.716723 
L 549.035857 306.218242 
L 552.191235 306.494504 
L 555.346614 306.451776 
L 558.501992 306.272094 
L 561.657371 306.85672 
L 564.812749 306.938812 
L 567.968127 306.893295 
L 571.123506 306.67753 
L 574.278884 305.992548 
L 577.434263 306.368263 
L 580.589641 306.35587 
L 583.74502 306.014942 
L 586.900398 305.934554 
L 590.055777 305.669375 
L 596.366534 308.131074 
L 599.521912 307.800716 
L 602.677291 307.706243 
L 605.832669 307.144853 
L 608.988048 307.093374 
L 615.298805 307.652202 
L 618.454183 307.119085 
L 627.920319 307.06115 
L 631.075697 306.370593 
L 637.386454 306.958747 
L 640.541833 306.272348 
L 643.697211 305.939119 
L 646.85259 305.846985 
L 650.007968 306.208072 
L 653.163347 306.421672 
L 656.318725 306.010034 
L 659.474104 304.405888 
L 662.629482 304.417638 
L 665.784861 303.918681 
L 668.940239 304.131472 
L 672.095618 304.092496 
L 675.250996 304.350141 
L 678.406375 304.960745 
L 681.561753 305.135851 
L 684.717131 304.666106 
L 687.87251 303.646809 
L 691.027888 304.003655 
L 694.183267 303.365168 
L 697.338645 303.514166 
L 700.494024 302.925827 
L 703.649402 303.597384 
L 706.804781 303.589732 
L 713.115538 304.689357 
L 716.270916 304.416661 
L 719.426295 303.586108 
L 722.581673 301.933329 
L 725.737052 302.603003 
L 728.89243 302.719142 
L 732.047809 303.713857 
L 735.203187 303.904859 
L 738.358566 304.250982 
L 741.513944 304.374426 
L 744.669323 304.083175 
L 747.824701 304.244013 
L 750.98008 304.282954 
L 754.135458 304.558191 
L 757.290837 304.677864 
L 760.446215 305.187379 
L 766.756972 305.513758 
L 769.912351 305.022092 
L 776.223108 305.287984 
L 782.533865 305.466207 
L 785.689243 305.409199 
L 788.844622 305.481461 
L 788.844622 305.481461 
" clip-path="url(#p2c6b8cedb5)" style="fill: none; stroke: #000000; stroke-width: 1.5; stroke-linecap: square"/>
   </g>
   <g id="line2d_6">
    <path d="M 0 306 
L 3.155378 306 
L 6.310757 304.262297 
L 9.466135 302.092337 
L 12.621514 301.849222 
L 15.776892 302.777946 
L 18.932271 304.047665 
L 25.243028 304.286464 
L 28.398406 304.081897 
L 31.553785 304.07231 
L 34.709163 304.190768 
L 37.864542 304.102946 
L 44.175299 304.79764 
L 50.486056 304.653902 
L 53.641434 305.081323 
L 56.796813 305.149851 
L 66.262948 304.614071 
L 72.573705 304.94272 
L 75.729084 304.5839 
L 91.505976 305.696939 
L 94.661355 305.802353 
L 97.816733 306.02133 
L 100.972112 305.900654 
L 104.12749 305.491452 
L 107.282869 305.678678 
L 113.593625 305.578421 
L 116.749004 305.976551 
L 119.904382 306.124517 
L 123.059761 306.011165 
L 126.215139 304.707452 
L 129.370518 305.055628 
L 132.525896 305.716473 
L 135.681275 305.775745 
L 138.836653 306.070218 
L 148.302789 306.237428 
L 154.613546 306.231177 
L 160.924303 306.355956 
L 164.079681 305.806907 
L 170.390438 305.94667 
L 176.701195 305.460968 
L 183.011952 305.395546 
L 186.167331 305.640237 
L 189.322709 305.632847 
L 192.478088 305.947602 
L 201.944223 305.66395 
L 205.099602 305.671924 
L 208.25498 305.413898 
L 217.721116 305.451976 
L 220.876494 305.624045 
L 227.187251 305.368008 
L 236.653386 305.218589 
L 239.808765 305.300802 
L 249.2749 305.226612 
L 252.430279 304.920264 
L 258.741036 304.885051 
L 265.051793 305.101806 
L 268.207171 304.922413 
L 271.36255 304.937155 
L 274.517928 305.114576 
L 283.984064 305.01642 
L 287.139442 305.37876 
L 290.294821 305.291786 
L 296.605578 305.556527 
L 299.760956 306.240716 
L 302.916335 306.538338 
L 306.071713 306.656597 
L 309.227092 306.54928 
L 312.38247 306.282366 
L 315.537849 306.379066 
L 325.003984 305.95574 
L 328.159363 305.961981 
L 331.314741 305.710535 
L 334.47012 305.804773 
L 350.247012 305.600188 
L 369.179283 305.182568 
L 375.49004 305.764333 
L 378.645418 305.763889 
L 381.800797 305.959664 
L 384.956175 305.901549 
L 388.111554 305.963098 
L 391.266932 306.194655 
L 407.043825 306.789658 
L 413.354582 306.262048 
L 425.976096 305.857933 
L 429.131474 305.946664 
L 432.286853 305.831173 
L 435.442231 305.969897 
L 441.752988 305.767521 
L 444.908367 305.868292 
L 451.219124 305.685951 
L 463.840637 305.905057 
L 466.996016 305.718825 
L 470.151394 306.03005 
L 473.306773 305.814216 
L 482.772908 305.915989 
L 489.083665 305.609267 
L 492.239044 305.589814 
L 504.860558 306.104237 
L 508.015936 305.902046 
L 517.482072 305.901991 
L 520.63745 305.839044 
L 523.792829 305.615589 
L 526.948207 305.862659 
L 530.103586 305.870224 
L 536.414343 305.591852 
L 539.569721 305.767351 
L 542.7251 305.830487 
L 545.880478 305.766124 
L 552.191235 306.168364 
L 558.501992 306.079836 
L 561.657371 306.386263 
L 567.968127 306.446623 
L 571.123506 306.354853 
L 574.278884 306.019118 
L 577.434263 306.211968 
L 580.589641 306.213198 
L 583.74502 306.04588 
L 590.055777 305.864669 
L 596.366534 307.131978 
L 608.988048 306.728839 
L 615.298805 307.049596 
L 618.454183 306.802411 
L 627.920319 306.808959 
L 631.075697 306.467678 
L 637.386454 306.766591 
L 640.541833 306.423812 
L 643.697211 306.246703 
L 646.85259 306.187267 
L 653.163347 306.459654 
L 656.318725 306.249227 
L 659.474104 305.420243 
L 662.629482 305.383302 
L 665.784861 305.087555 
L 668.940239 305.145756 
L 672.095618 305.084845 
L 675.250996 305.173673 
L 678.406375 305.450339 
L 681.561753 305.519583 
L 684.717131 305.263795 
L 687.87251 304.717108 
L 691.027888 304.852211 
L 694.183267 304.490363 
L 697.338645 304.518694 
L 700.494024 304.175837 
L 703.649402 304.463781 
L 706.804781 304.422367 
L 713.115538 304.925877 
L 716.270916 304.777664 
L 719.426295 304.337408 
L 722.581673 303.461472 
L 725.737052 303.73856 
L 728.89243 303.751 
L 732.047809 304.215374 
L 741.513944 304.506883 
L 744.669323 304.353055 
L 757.290837 304.632847 
L 760.446215 304.89543 
L 766.756972 305.092267 
L 769.912351 304.859575 
L 788.844622 305.158845 
L 788.844622 305.158845 
" clip-path="url(#p2c6b8cedb5)" style="fill: none; stroke: #000000; stroke-width: 1.5; stroke-linecap: square"/>
   </g>
   <g id="line2d_7">
    <path d="M 0 306 
L 3.155378 306 
L 6.310757 304.280713 
L 9.466135 302.149977 
L 12.621514 301.899545 
L 15.776892 302.779642 
L 18.932271 303.984601 
L 25.243028 304.2253 
L 28.398406 304.04423 
L 31.553785 304.039627 
L 34.709163 304.149978 
L 37.864542 304.075183 
L 44.175299 304.696122 
L 50.486056 304.584825 
L 53.641434 304.955134 
L 56.796813 305.021596 
L 66.262948 304.591343 
L 72.573705 304.863446 
L 75.729084 304.578451 
L 91.505976 305.480933 
L 100.972112 305.669226 
L 104.12749 305.370926 
L 107.282869 305.515816 
L 113.593625 305.45308 
L 116.749004 305.749455 
L 119.904382 305.86575 
L 123.059761 305.793567 
L 126.215139 304.865655 
L 129.370518 305.108272 
L 132.525896 305.574861 
L 135.681275 305.621628 
L 138.836653 305.833216 
L 160.924303 306.086701 
L 164.079681 305.727774 
L 170.390438 305.825853 
L 176.701195 305.511585 
L 189.322709 305.618002 
L 192.478088 305.819959 
L 201.944223 305.648054 
L 205.099602 305.653521 
L 208.25498 305.492409 
L 217.721116 305.509909 
L 220.876494 305.614376 
L 230.342629 305.405345 
L 261.896414 305.1939 
L 265.051793 305.24524 
L 268.207171 305.136537 
L 283.984064 305.169894 
L 287.139442 305.374715 
L 290.294821 305.324865 
L 296.605578 305.476609 
L 299.760956 305.868543 
L 306.071713 306.125962 
L 340.780876 305.657839 
L 347.091633 305.692623 
L 359.713147 305.451371 
L 366.023904 305.400765 
L 369.179283 305.36485 
L 381.800797 305.785543 
L 388.111554 305.794676 
L 397.577689 306.091044 
L 410.199203 306.14481 
L 419.665339 305.866468 
L 425.976096 305.816362 
L 435.442231 305.878642 
L 441.752988 305.77384 
L 444.908367 305.827105 
L 451.219124 305.731365 
L 463.840637 305.845686 
L 466.996016 305.748914 
L 470.151394 305.911168 
L 473.306773 305.800846 
L 482.772908 305.85642 
L 492.239044 305.685919 
L 504.860558 305.954575 
L 511.171315 305.86061 
L 517.482072 305.856295 
L 536.414343 305.695548 
L 542.7251 305.816679 
L 545.880478 305.783852 
L 552.191235 305.993321 
L 558.501992 305.955262 
L 561.657371 306.115636 
L 567.968127 306.15821 
L 571.123506 306.117409 
L 574.278884 305.950357 
L 580.589641 306.054048 
L 590.055777 305.881797 
L 596.366534 306.537152 
L 608.988048 306.373261 
L 615.298805 306.553462 
L 618.454183 306.437897 
L 627.920319 306.464199 
L 631.075697 306.297278 
L 637.386454 306.458071 
L 643.697211 306.202563 
L 646.85259 306.17306 
L 653.163347 306.313977 
L 656.318725 306.209316 
L 659.474104 305.788043 
L 662.629482 305.761284 
L 665.784861 305.602843 
L 684.717131 305.638721 
L 687.87251 305.35297 
L 691.027888 305.408573 
L 694.183267 305.212686 
L 697.338645 305.211869 
L 700.494024 305.023119 
L 703.649402 305.152406 
L 706.804781 305.117252 
L 713.115538 305.346054 
L 716.270916 305.26143 
L 719.426295 305.02806 
L 722.581673 304.568925 
L 725.737052 304.685377 
L 728.89243 304.671267 
L 732.047809 304.886952 
L 788.844622 305.234125 
L 788.844622 305.234125 
" clip-path="url(#p2c6b8cedb5)" style="fill: none; stroke: #000000; stroke-width: 1.5; stroke-linecap: square"/>
   </g>
   <g id="line2d_8">
    <path d="M 0 306 
L 3.155378 306 
L 6.310757 304.289923 
L 9.466135 302.178786 
L 12.621514 301.925015 
L 15.776892 302.781353 
L 18.932271 303.954432 
L 25.243028 304.195106 
L 28.398406 304.025012 
L 37.864542 304.060224 
L 44.175299 304.645791 
L 50.486056 304.548716 
L 53.641434 304.892039 
L 56.796813 304.95678 
L 66.262948 304.574099 
L 72.573705 304.82039 
L 75.729084 304.568671 
L 94.661355 305.456082 
L 97.816733 305.613315 
L 100.972112 305.549809 
L 104.12749 305.299239 
L 107.282869 305.424982 
L 113.593625 305.377497 
L 116.749004 305.628752 
L 119.904382 305.729806 
L 123.059761 305.673984 
L 126.215139 304.908713 
L 129.370518 305.107618 
L 132.525896 305.491027 
L 135.681275 305.53172 
L 138.836653 305.706687 
L 160.924303 305.935356 
L 164.079681 305.655968 
L 170.390438 305.736497 
L 179.856574 305.49805 
L 183.011952 305.461168 
L 186.167331 305.581118 
L 189.322709 305.578813 
L 192.478088 305.733651 
L 211.410359 305.492275 
L 227.187251 305.468202 
L 239.808765 305.426606 
L 271.36255 305.227058 
L 277.673307 305.269937 
L 283.984064 305.243266 
L 287.139442 305.383399 
L 293.450199 305.416487 
L 296.605578 305.452694 
L 299.760956 305.720542 
L 306.071713 305.90137 
L 369.179283 305.421871 
L 381.800797 305.692124 
L 388.111554 305.700461 
L 397.577689 305.893675 
L 410.199203 305.94012 
L 422.820717 305.730366 
L 444.908367 305.757323 
L 454.374502 305.718338 
L 479.61753 305.784249 
L 558.501992 305.856825 
L 564.812749 305.97417 
L 571.123506 305.958067 
L 574.278884 305.864384 
L 580.589641 305.926358 
L 590.055777 305.831927 
L 596.366534 306.207085 
L 612.143426 306.181486 
L 615.298805 306.236916 
L 621.609562 306.187389 
L 640.541833 306.113783 
L 646.85259 306.052409 
L 653.163347 306.134182 
L 656.318725 306.078202 
L 659.474104 305.845981 
L 691.027888 305.622942 
L 700.494024 305.401855 
L 713.115538 305.563153 
L 719.426295 305.38419 
L 722.581673 305.129864 
L 738.358566 305.325147 
L 788.844622 305.412048 
L 788.844622 305.412048 
" clip-path="url(#p2c6b8cedb5)" style="fill: none; stroke: #000000; stroke-width: 1.5; stroke-linecap: square"/>
   </g>
   <g id="line2d_9">
    <path d="M 0 306 
L 3.155378 306 
L 6.310757 304.294528 
L 9.466135 302.193186 
L 12.621514 301.937825 
L 15.776892 302.782423 
L 18.932271 303.939695 
L 25.243028 304.180128 
L 28.398406 304.015331 
L 37.864542 304.052496 
L 44.175299 304.620775 
L 50.486056 304.530327 
L 53.641434 304.86057 
L 56.796813 304.924301 
L 66.262948 304.56407 
L 72.573705 304.798066 
L 75.729084 304.562036 
L 97.816733 305.546041 
L 100.972112 305.489712 
L 104.12749 305.261005 
L 107.282869 305.377715 
L 113.593625 305.336923 
L 116.749004 305.567193 
L 119.904382 305.660885 
L 123.059761 305.612195 
L 126.215139 304.921288 
L 129.370518 305.100535 
L 132.525896 305.446066 
L 135.681275 305.4838 
L 138.836653 305.641865 
L 160.924303 305.856591 
L 164.079681 305.612556 
L 173.545817 305.58906 
L 176.701195 305.476508 
L 189.322709 305.550264 
L 192.478088 305.684231 
L 211.410359 305.481561 
L 230.342629 305.431465 
L 280.828685 305.26284 
L 290.294821 305.356537 
L 296.605578 305.439906 
L 299.760956 305.654645 
L 306.071713 305.801184 
L 369.179283 305.436134 
L 381.800797 305.643294 
L 391.266932 305.71412 
L 410.199203 305.838462 
L 422.820717 305.685237 
L 448.063745 305.680013 
L 466.996016 305.680467 
L 470.151394 305.752054 
L 476.462151 305.718049 
L 489.083665 305.666656 
L 501.705179 305.753186 
L 514.326693 305.754154 
L 545.880478 305.718433 
L 555.346614 305.806154 
L 564.812749 305.87537 
L 586.900398 305.809105 
L 590.055777 305.783222 
L 596.366534 306.040383 
L 612.143426 306.029167 
L 621.609562 306.037065 
L 656.318725 305.975521 
L 659.474104 305.822372 
L 697.338645 305.59964 
L 700.494024 305.529189 
L 713.115538 305.630707 
L 719.426295 305.513684 
L 722.581673 305.348297 
L 741.513944 305.469237 
L 750.98008 305.434077 
L 785.689243 305.501896 
L 788.844622 305.507525 
L 788.844622 305.507525 
" clip-path="url(#p2c6b8cedb5)" style="fill: none; stroke: #000000; stroke-width: 1.5; stroke-linecap: square"/>
   </g>
  </g>
 </g>
 <defs>
  <clipPath id="p2c6b8cedb5">
   <rect x="0" y="0" width="792" height="612"/>
  </clipPath>
 </defs>
</svg>
