<?xml version="1.0" encoding="utf-8" standalone="no"?>
<!DOCTYPE svg PUBLIC "-//W3C//DTD SVG 1.1//EN"
  "http://www.w3.org/Graphics/SVG/1.1/DTD/svg11.dtd">
<svg xmlns:xlink="http://www.w3.org/1999/xlink" width="792pt" height="612pt" viewBox="0 0 792 612" xmlns="http://www.w3.org/2000/svg" version="1.1">
 <metadata>
  <rdf:RDF xmlns:dc="http://purl.org/dc/elements/1.1/" xmlns:cc="http://creativecommons.org/ns#" xmlns:rdf="http://www.w3.org/1999/02/22-rdf-syntax-ns#">
   <cc:Work>
    <dc:type rdf:resource="http://purl.org/dc/dcmitype/StillImage"/>
    <dc:date>2023-01-30T16:22:11.160300</dc:date>
    <dc:format>image/svg+xml</dc:format>
    <dc:creator>
     <cc:Agent>
      <dc:title>Matplotlib v3.6.2, https://matplotlib.org/</dc:title>
     </cc:Agent>
    </dc:creator>
   </cc:Work>
  </rdf:RDF>
 </metadata>
 <defs>
  <style type="text/css">*{stroke-linejoin: round; stroke-linecap: butt}</style>
 </defs>
 <g id="figure_1">
  <g id="patch_1">
   <path d="M 0 612 
L 792 612 
L 792 0 
L 0 0 
z
" style="fill: #ffffff"/>
  </g>
  <g id="axes_1">
   <g id="line2d_1">
    <path d="M 0 306 
L 3.168 309.310738 
L 6.336 309.140633 
L 9.504 307.544186 
L 12.672 308.146139 
L 15.84 307.36098 
L 19.008 309.271483 
L 22.176 304.089406 
L 25.344 299.274658 
L 28.512 308.617222 
L 31.68 303.984719 
L 34.848 305.672839 
L 38.016 312.398332 
L 41.184 308.525624 
L 44.352 304.14175 
L 47.52 283.167436 
L 50.688 310.998572 
L 53.856 316.948666 
L 57.024 306.811357 
L 60.192 311.142483 
L 63.36 306.431852 
L 66.528 307.675046 
L 69.696 307.282463 
L 72.864 307.190859 
L 76.032 305.162471 
L 79.2 306.536543 
L 82.368 308.263911 
L 85.536 295.848657 
L 88.704 306.719752 
L 91.872 307.66196 
L 95.04 301.577095 
L 98.208 300.700526 
L 101.376 305.646667 
L 104.544 304.102492 
L 107.712 310.2659 
L 110.88 305.528889 
L 114.048 311.901248 
L 117.216 303.513633 
L 120.384 305.528889 
L 123.552 302.924792 
L 126.72 305.856049 
L 129.888 300.517372 
L 133.056 305.48963 
L 136.224 305.908395 
L 139.392 305.803704 
L 142.56 308.996697 
L 145.728 302.479906 
L 148.896 303.487462 
L 152.064 303.801518 
L 155.232 304.599762 
L 158.4 304.652106 
L 161.568 306.981479 
L 164.736 304.298782 
L 167.904 303.709917 
L 171.072 306.405679 
L 174.24 298.973822 
L 177.408 303.76226 
L 180.576 305.502716 
L 183.744 307.504927 
L 186.912 307.086169 
L 190.08 301.459342 
L 193.248 305.332593 
L 196.416 308.734991 
L 199.584 304.115578 
L 202.752 303.369692 
L 205.92 305.895309 
L 209.088 312.686102 
L 212.256 303.618318 
L 215.424 309.009782 
L 218.592 307.413324 
L 221.76 319.940478 
L 224.928 312.463735 
L 228.096 308.970526 
L 231.264 304.33804 
L 234.432 300.883683 
L 237.6 308.290083 
L 240.768 303.186497 
L 243.936 302.414482 
L 247.104 304.07632 
L 250.272 306.091605 
L 253.44 300.661278 
L 256.608 307.72739 
L 259.776 305.384939 
L 262.944 304.063234 
L 266.112 307.818992 
L 269.28 304.940003 
L 272.448 302.427567 
L 275.616 303.984719 
L 278.784 302.270552 
L 281.952 304.534331 
L 285.12 305.947654 
L 288.288 303.107985 
L 291.456 304.063234 
L 294.624 310.344403 
L 297.792 312.725342 
L 300.96 305.777531 
L 304.128 309.938798 
L 307.296 304.730624 
L 310.464 307.217032 
L 313.632 310.880825 
L 316.8 308.276997 
L 319.968 310.239732 
L 323.136 307.400238 
L 326.304 306.157037 
L 329.472 312.37217 
L 332.64 300.752856 
L 335.808 301.171508 
L 338.976 303.736089 
L 342.144 302.139708 
L 345.312 303.016388 
L 348.48 306.680493 
L 351.648 307.753562 
L 354.816 303.487462 
L 357.984 308.787333 
L 361.152 303.055644 
L 364.32 304.455814 
L 367.488 307.936766 
L 370.656 303.160326 
L 373.824 304.612848 
L 376.992 306.916047 
L 380.16 307.059997 
L 383.328 305.842963 
L 386.496 307.962938 
L 389.664 301.943444 
L 392.832 312.346009 
L 396 301.446258 
L 399.168 306.902961 
L 402.336 307.112342 
L 405.504 305.777531 
L 408.672 302.375228 
L 411.84 302.833197 
L 415.008 305.240989 
L 418.176 308.577966 
L 421.344 308.983612 
L 424.512 308.394768 
L 427.68 308.263911 
L 430.848 301.773352 
L 434.016 306.209383 
L 437.184 306.955306 
L 440.352 304.63902 
L 443.52 304.599762 
L 446.688 301.119175 
L 449.856 310.893908 
L 453.024 305.947654 
L 456.192 302.479906 
L 459.36 303.29118 
L 462.528 309.363077 
L 465.696 307.1516 
L 468.864 304.481987 
L 472.032 311.181731 
L 475.2 309.179888 
L 478.368 305.973827 
L 481.536 304.442728 
L 484.704 312.581459 
L 487.872 307.66196 
L 491.04 306.340247 
L 494.208 304.455814 
L 497.376 299.196178 
L 500.544 310.095808 
L 503.712 306.196296 
L 506.88 302.636923 
L 510.048 305.136298 
L 513.216 303.068729 
L 516.384 319.169895 
L 519.552 320.071069 
L 522.72 304.351126 
L 525.888 306.601975 
L 529.056 301.446258 
L 532.224 306.497284 
L 535.392 309.991135 
L 538.56 310.252816 
L 541.728 301.694849 
L 544.896 307.020738 
L 548.064 306.130864 
L 551.232 307.1516 
L 554.4 299.470862 
L 557.568 309.363077 
L 560.736 309.938798 
L 563.904 299.40546 
L 567.072 302.623838 
L 570.24 304.95309 
L 573.408 309.768701 
L 576.576 308.499453 
L 579.744 301.917276 
L 582.912 288.626837 
L 586.08 304.691365 
L 589.248 299.170018 
L 592.416 306.418766 
L 595.584 303.91929 
L 598.752 307.059997 
L 601.92 311.142483 
L 605.088 306.968393 
L 608.256 300.124915 
L 611.424 293.731508 
L 614.592 307.740476 
L 617.76 297.273718 
L 620.928 305.254075 
L 624.096 297.391401 
L 627.264 310.527574 
L 630.432 303.76226 
L 633.6 309.991135 
L 636.768 310.095808 
L 639.936 301.86494 
L 643.104 295.561081 
L 646.272 285.915075 
L 649.44 309.585518 
L 652.608 304.220266 
L 655.776 313.837058 
L 658.944 306 
L 662.112 307.85825 
L 665.28 305.777531 
L 668.448 301.380841 
L 671.616 306.013086 
L 674.784 304.861486 
L 677.952 307.452583 
L 681.12 306 
L 684.288 310.331319 
L 687.456 307.465669 
L 690.624 306.824443 
L 693.792 300.229568 
L 696.96 306 
L 700.128 307.164687 
L 703.296 306.785184 
L 706.464 306 
L 709.632 304.887658 
L 712.8 306.248642 
L 715.968 315.053167 
L 719.136 308.44711 
L 722.304 311.91433 
L 725.472 307.478755 
L 728.64 312.529138 
L 731.808 304.33804 
L 734.976 308.23774 
L 738.144 307.243204 
L 741.312 304.023976 
L 744.48 307.308635 
L 747.648 307.753562 
L 750.816 306.69358 
L 753.984 308.577966 
L 757.152 303.723003 
L 760.32 306.680493 
L 763.488 307.295549 
L 766.656 302.414482 
L 769.824 302.767772 
L 772.992 295.090543 
L 776.16 312.646861 
L 779.328 301.079926 
L 782.496 307.269376 
L 785.664 308.604137 
L 788.832 304.940003 
L 788.832 304.940003 
" clip-path="url(#pddc6f5da1c)" style="fill: none; stroke: #000000; stroke-width: 1.5; stroke-linecap: square"/>
   </g>
   <g id="line2d_2">
    <path d="M 0 306 
L 3.168 306 
L 6.336 308.207206 
L 9.504 308.740599 
L 12.672 308.10252 
L 15.84 308.125033 
L 19.008 307.736945 
L 22.176 308.510271 
L 25.344 306.291186 
L 28.512 302.769311 
L 31.68 305.691879 
L 34.848 304.82818 
L 38.016 305.246839 
L 41.184 308.83131 
L 44.352 308.680751 
L 47.52 306.401214 
L 50.688 294.727064 
L 53.856 302.883587 
L 57.024 309.934539 
L 60.192 308.378552 
L 63.36 309.771318 
L 66.528 308.089947 
L 76.032 307.43652 
L 79.2 306.288055 
L 82.368 306.391874 
L 85.536 307.330753 
L 88.704 301.558162 
L 91.872 304.139389 
L 95.04 305.900646 
L 98.208 303.72757 
L 101.376 302.20123 
L 104.544 303.924832 
L 107.712 304.008889 
L 110.88 307.141439 
L 114.048 306.354155 
L 117.216 309.138119 
L 120.384 306.317769 
L 123.552 305.931078 
L 126.72 304.432259 
L 129.888 305.14456 
L 133.056 302.823755 
L 136.224 304.147292 
L 139.392 305.02858 
L 142.56 305.404183 
L 145.728 307.211233 
L 148.896 304.839521 
L 152.064 304.164586 
L 155.232 303.979023 
L 158.4 304.297396 
L 161.568 304.473109 
L 164.736 305.729393 
L 171.072 304.350151 
L 174.24 305.385606 
L 177.408 302.170443 
L 180.576 302.966254 
L 183.744 304.236225 
L 186.912 305.876166 
L 190.08 306.481375 
L 193.248 303.964654 
L 196.416 304.651798 
L 199.584 306.697993 
L 202.752 305.416859 
L 205.92 304.392488 
L 209.088 305.144663 
L 212.256 308.925985 
L 215.424 306.265372 
L 218.592 307.652415 
L 221.76 307.53695 
L 224.928 313.763872 
L 228.096 313.130198 
L 231.264 311.061575 
L 237.6 304.266965 
L 240.768 306.287696 
L 243.936 304.725646 
L 247.104 303.560228 
L 250.272 303.787149 
L 253.44 304.926866 
L 256.608 302.777624 
L 259.776 305.259104 
L 262.944 305.330848 
L 266.112 304.688748 
L 269.28 306.26296 
L 272.448 305.606432 
L 275.616 304.013713 
L 278.784 303.995085 
L 281.952 303.135952 
L 285.12 303.828869 
L 288.288 304.889352 
L 291.456 303.996778 
L 294.624 304.022642 
L 297.792 307.194246 
L 300.96 309.980308 
L 304.128 307.882523 
L 307.296 308.925729 
L 310.464 306.8286 
L 313.632 307.025305 
L 316.8 308.968422 
L 319.968 308.630975 
L 323.136 309.435172 
L 329.472 307.282925 
L 332.64 309.832584 
L 335.808 305.284764 
L 338.976 303.216157 
L 342.144 303.462112 
L 345.312 302.788862 
L 348.48 302.888462 
L 351.648 304.78302 
L 354.816 306.271428 
L 357.984 304.861999 
L 361.152 306.840455 
L 364.32 304.951704 
L 367.488 304.70517 
L 370.656 306.332344 
L 373.824 304.746584 
L 376.992 304.675662 
L 380.16 305.794209 
L 383.328 306.43411 
L 386.496 306.132763 
L 389.664 307.057482 
L 392.832 304.495432 
L 396 308.429765 
L 399.168 304.934512 
L 402.336 305.923226 
L 405.504 306.518171 
L 408.672 306.145336 
L 411.84 304.253417 
L 415.008 303.533236 
L 418.176 304.393566 
L 421.344 306.478398 
L 424.512 307.745813 
L 427.68 308.073218 
L 430.848 308.170823 
L 434.016 304.964123 
L 440.352 306.282872 
L 443.52 305.459762 
L 446.688 305.021959 
L 449.856 303.055028 
L 453.024 306.979529 
L 456.192 306.459051 
L 459.36 304.470799 
L 462.528 303.87526 
L 465.696 306.62394 
L 468.864 306.892697 
L 472.032 305.687106 
L 475.2 308.454346 
L 478.368 308.81376 
L 484.704 305.922149 
L 487.872 309.270405 
L 491.04 308.462864 
L 494.208 307.399982 
L 497.376 305.927845 
L 500.544 302.538094 
L 503.712 306.318796 
L 506.88 306.257982 
L 510.048 304.443857 
L 513.216 304.775476 
L 516.384 303.91308 
L 519.552 311.570098 
L 522.72 315.853087 
L 525.888 310.113664 
L 529.056 308.351046 
L 532.224 304.889198 
L 535.392 305.700808 
L 538.56 307.855582 
L 541.728 309.068331 
L 544.896 305.347219 
L 548.064 306.158371 
L 551.232 306.148108 
L 554.4 306.650933 
L 557.568 303.056619 
L 560.736 306.21549 
L 563.904 308.077118 
L 567.072 303.719565 
L 570.24 303.173514 
L 573.408 304.059231 
L 576.576 306.921179 
L 579.744 307.71297 
L 582.912 304.819815 
L 586.08 296.676163 
L 589.248 300.672565 
L 592.416 299.920793 
L 595.584 303.176901 
L 598.752 303.546065 
L 601.92 305.297696 
L 605.088 308.225475 
L 608.256 307.606845 
L 611.424 303.88814 
L 614.592 298.786351 
L 617.76 303.279634 
L 620.928 300.258194 
L 624.096 302.758535 
L 627.264 300.055557 
L 630.432 305.290152 
L 633.6 304.519911 
L 636.768 307.27497 
L 639.936 308.717544 
L 643.104 305.279632 
L 646.272 300.415588 
L 649.44 293.1202 
L 652.608 301.373401 
L 655.776 302.784398 
L 658.944 308.331238 
L 662.112 307.15781 
L 665.28 307.503644 
L 668.448 306.648265 
L 671.616 304.025824 
L 674.784 305.058909 
L 677.952 304.950934 
L 681.12 306.2081 
L 684.288 306.08868 
L 687.456 308.218599 
L 690.624 307.841367 
L 693.792 307.334961 
L 696.96 303.779708 
L 703.296 306.031767 
L 706.464 306.407167 
L 709.632 306.203584 
L 712.8 305.534945 
L 715.968 305.889407 
L 719.136 310.488426 
L 722.304 309.483919 
L 725.472 310.710794 
L 728.64 309.095477 
L 731.808 310.82372 
L 734.976 307.577799 
L 738.144 307.91434 
L 741.312 307.580724 
L 744.48 305.780713 
L 747.648 306.542445 
L 750.816 307.139848 
L 753.984 306.915175 
L 757.152 307.738834 
L 760.32 305.729701 
L 766.656 306.748902 
L 769.824 304.578465 
L 772.992 303.664195 
L 776.16 299.351241 
L 779.328 306.010726 
L 782.496 303.530465 
L 785.664 305.406852 
L 788.832 307.009294 
L 788.832 307.009294 
" clip-path="url(#pddc6f5da1c)" style="fill: none; stroke: #000000; stroke-width: 1.5; stroke-linecap: square"/>
   </g>
   <g id="line2d_3">
    <path d="M 0 306 
L 3.168 306 
L 6.336 307.939435 
L 9.504 308.483686 
L 12.672 308.116793 
L 15.84 308.127234 
L 19.008 307.870744 
L 22.176 308.320801 
L 25.344 306.99885 
L 28.512 304.63156 
L 31.68 305.836604 
L 34.848 305.281935 
L 38.016 305.398246 
L 41.184 307.471693 
L 44.352 307.782818 
L 47.52 306.710456 
L 50.688 299.776181 
L 53.856 303.068498 
L 57.024 307.143984 
L 60.192 307.043885 
L 63.36 308.248574 
L 66.528 307.71451 
L 69.696 307.703312 
L 76.032 307.468005 
L 79.2 306.799499 
L 82.368 306.720091 
L 85.536 307.177188 
L 88.704 303.846798 
L 95.04 305.553624 
L 101.376 303.326571 
L 104.544 303.999944 
L 107.712 304.015219 
L 110.88 305.850031 
L 114.048 305.749522 
L 117.216 307.557805 
L 120.384 306.368508 
L 123.552 306.120575 
L 126.72 305.179623 
L 129.888 305.37854 
L 133.056 303.947681 
L 139.392 304.850604 
L 142.56 305.128707 
L 145.728 306.263175 
L 148.896 305.156075 
L 152.064 304.670541 
L 155.232 304.413888 
L 161.568 304.516112 
L 164.736 305.239864 
L 171.072 304.590892 
L 174.24 305.123433 
L 177.408 303.31742 
L 180.576 303.445305 
L 183.744 304.053617 
L 186.912 305.066785 
L 190.08 305.659601 
L 193.248 304.4243 
L 196.416 304.686122 
L 199.584 305.879209 
L 205.92 304.778925 
L 209.088 305.107392 
L 212.256 307.336675 
L 215.424 306.243723 
L 218.592 307.059318 
L 221.76 307.167258 
L 224.928 310.926412 
L 228.096 311.392205 
L 231.264 310.688949 
L 234.432 308.827647 
L 237.6 306.493225 
L 240.768 307.020904 
L 247.104 304.875576 
L 250.272 304.636126 
L 253.44 305.064692 
L 256.608 303.77173 
L 259.776 304.932402 
L 262.944 305.056559 
L 266.112 304.766129 
L 269.28 305.658926 
L 272.448 305.445517 
L 275.616 304.541416 
L 278.784 304.368622 
L 281.952 303.746392 
L 285.12 303.977396 
L 288.288 304.560278 
L 291.456 304.12895 
L 294.624 304.110709 
L 297.792 305.945693 
L 300.96 307.941633 
L 304.128 307.307432 
L 307.296 308.088835 
L 310.464 307.101812 
L 313.632 307.137663 
L 316.8 308.241926 
L 319.968 308.252724 
L 323.136 308.840819 
L 326.304 308.424605 
L 329.472 307.762961 
L 332.64 309.124746 
L 335.808 306.668257 
L 338.976 305.052697 
L 342.144 304.667787 
L 345.312 303.925086 
L 348.48 303.650513 
L 354.816 305.477141 
L 357.984 304.886955 
L 361.152 306.034028 
L 364.32 305.156875 
L 367.488 304.944158 
L 370.656 305.820286 
L 373.824 305.033049 
L 376.992 304.906773 
L 380.16 305.496146 
L 383.328 305.948085 
L 386.496 305.923143 
L 389.664 306.528393 
L 392.832 305.183366 
L 396 307.293237 
L 399.168 305.5788 
L 405.504 306.301653 
L 408.672 306.150771 
L 411.84 305.037529 
L 415.008 304.391619 
L 418.176 304.641293 
L 421.344 305.795066 
L 424.512 306.735685 
L 427.68 307.225972 
L 430.848 307.531529 
L 434.016 305.838856 
L 437.184 305.947802 
L 440.352 306.241736 
L 443.52 305.775406 
L 446.688 305.422167 
L 449.856 304.161374 
L 453.024 306.137979 
L 456.192 306.080896 
L 459.36 305.022361 
L 462.528 304.51635 
L 465.696 305.943456 
L 468.864 306.299509 
L 472.032 305.762461 
L 475.2 307.35239 
L 478.368 307.888569 
L 481.536 307.325133 
L 484.704 306.483964 
L 487.872 308.277455 
L 491.04 308.097994 
L 494.208 307.585125 
L 497.376 306.668411 
L 500.544 304.47732 
L 503.712 306.122083 
L 506.88 306.144105 
L 510.048 305.117018 
L 513.216 305.124785 
L 516.384 304.515334 
L 519.552 308.823665 
L 522.72 312.138012 
L 525.888 309.849814 
L 529.056 308.89564 
L 532.224 306.708527 
L 535.392 306.649016 
L 538.56 307.624975 
L 541.728 308.39767 
L 544.896 306.429074 
L 548.064 306.605315 
L 551.232 306.474318 
L 554.4 306.669308 
L 557.568 304.552928 
L 560.736 305.969546 
L 563.904 307.137688 
L 567.072 304.868472 
L 570.24 304.191997 
L 573.408 304.397538 
L 576.576 305.976984 
L 579.744 306.717992 
L 582.912 305.312367 
L 586.08 300.399888 
L 589.248 301.650593 
L 592.416 300.911248 
L 595.584 302.529606 
L 598.752 302.93306 
L 601.92 304.142831 
L 605.088 306.197692 
L 608.256 306.432038 
L 611.424 304.573912 
L 614.592 301.378039 
L 617.76 303.250959 
L 620.928 301.493698 
L 624.096 302.595343 
L 627.264 301.056589 
L 630.432 303.832735 
L 633.6 303.814213 
L 636.768 305.647992 
L 639.936 306.957004 
L 643.104 305.468598 
L 646.272 302.553236 
L 649.44 297.652817 
L 652.608 301.149715 
L 655.776 302.041035 
L 658.944 305.504247 
L 662.112 305.656199 
L 665.28 306.317405 
L 668.448 306.157025 
L 671.616 304.762737 
L 674.784 305.129825 
L 677.952 305.059813 
L 681.12 305.757108 
L 684.288 305.83082 
L 687.456 307.149455 
L 690.624 307.239051 
L 693.792 307.123313 
L 696.96 305.109353 
L 700.128 305.39332 
L 703.296 305.909361 
L 706.464 306.16883 
L 709.632 306.110378 
L 712.8 305.750972 
L 715.968 305.894888 
L 719.136 308.588655 
L 722.304 308.555314 
L 725.472 309.546025 
L 728.64 308.943567 
L 731.808 309.999715 
L 734.976 308.33965 
L 738.144 308.307397 
L 741.312 307.995451 
L 744.48 306.829026 
L 750.816 307.206913 
L 753.984 307.056021 
L 757.152 307.503856 
L 760.32 306.393851 
L 763.488 306.479866 
L 766.656 306.719977 
L 769.824 305.44436 
L 772.992 304.653855 
L 776.16 301.832393 
L 779.328 305.005942 
L 782.496 303.842795 
L 788.832 305.949832 
L 788.832 305.949832 
" clip-path="url(#pddc6f5da1c)" style="fill: none; stroke: #000000; stroke-width: 1.5; stroke-linecap: square"/>
   </g>
   <g id="line2d_4">
    <path d="M 0 306 
L 3.168 306 
L 6.336 307.798487 
L 9.504 308.325242 
L 12.672 308.076707 
L 15.84 308.095769 
L 19.008 307.914924 
L 22.176 308.222082 
L 25.344 307.345401 
L 28.512 305.719305 
L 31.68 306.279395 
L 34.848 305.850551 
L 38.016 305.818238 
L 41.184 306.988286 
L 44.352 307.256603 
L 47.52 306.721227 
L 50.688 302.716813 
L 53.856 304.107557 
L 57.024 306.245848 
L 60.192 306.339296 
L 63.36 307.128226 
L 66.528 307.014441 
L 72.864 307.147948 
L 76.032 307.154884 
L 79.2 306.833665 
L 82.368 306.785864 
L 85.536 307.023236 
L 88.704 305.230728 
L 91.872 305.469204 
L 95.04 305.820019 
L 101.376 304.432297 
L 104.544 304.625285 
L 107.712 304.538857 
L 110.88 305.450787 
L 114.048 305.461956 
L 117.216 306.488929 
L 120.384 306.01314 
L 123.552 305.933759 
L 126.72 305.454279 
L 129.888 305.522309 
L 133.056 304.720865 
L 142.56 305.135186 
L 145.728 305.749874 
L 148.896 305.22855 
L 155.232 304.774749 
L 161.568 304.723996 
L 164.736 305.08057 
L 171.072 304.754302 
L 174.24 305.016492 
L 177.408 304.049781 
L 180.576 304.003162 
L 183.744 304.241097 
L 186.912 304.759903 
L 190.08 305.137031 
L 193.248 304.548571 
L 196.416 304.671858 
L 199.584 305.322789 
L 205.92 304.850894 
L 209.088 305.018182 
L 212.256 306.239852 
L 215.424 305.821557 
L 218.592 306.327026 
L 221.76 306.502294 
L 224.928 308.650826 
L 228.096 309.263511 
L 231.264 309.218839 
L 234.432 308.444716 
L 237.6 307.238816 
L 240.768 307.407564 
L 247.104 306.042902 
L 250.272 305.731004 
L 253.44 305.790002 
L 256.608 304.971962 
L 259.776 305.412312 
L 262.944 305.408414 
L 266.112 305.192567 
L 269.28 305.612639 
L 272.448 305.506388 
L 275.616 305.014031 
L 278.784 304.853389 
L 281.952 304.441499 
L 285.12 304.455665 
L 288.288 304.692071 
L 291.456 304.437548 
L 294.624 304.379618 
L 297.792 305.331799 
L 300.96 306.510799 
L 304.128 306.395171 
L 307.296 306.963105 
L 310.464 306.607183 
L 313.632 306.7008 
L 316.8 307.370446 
L 319.968 307.514226 
L 323.136 307.949655 
L 326.304 307.854411 
L 329.472 307.580423 
L 332.64 308.345042 
L 335.808 307.134812 
L 338.976 306.18615 
L 342.144 305.793488 
L 345.312 305.211475 
L 348.48 304.862593 
L 351.648 305.15345 
L 354.816 305.568176 
L 357.984 305.238883 
L 361.152 305.804126 
L 364.32 305.365366 
L 367.488 305.220897 
L 370.656 305.653078 
L 373.824 305.25535 
L 376.992 305.154488 
L 383.328 305.697866 
L 386.496 305.721768 
L 389.664 306.079608 
L 392.832 305.420765 
L 396 306.527909 
L 399.168 305.713795 
L 405.504 306.093185 
L 408.672 306.040367 
L 411.84 305.455734 
L 415.008 305.035728 
L 418.176 305.064867 
L 424.512 306.157765 
L 430.848 306.793996 
L 434.016 305.988538 
L 437.184 306.02708 
L 440.352 306.178374 
L 446.688 305.723268 
L 449.856 304.989494 
L 453.024 305.9316 
L 456.192 305.933027 
L 459.36 305.382971 
L 462.528 305.046721 
L 465.696 305.737423 
L 468.864 305.964107 
L 472.032 305.726139 
L 475.2 306.599226 
L 478.368 307.012683 
L 481.536 306.846811 
L 484.704 306.462679 
L 487.872 307.440555 
L 491.04 307.475594 
L 494.208 307.297701 
L 497.376 306.840626 
L 500.544 305.622786 
L 503.712 306.336491 
L 506.88 306.313614 
L 510.048 305.726658 
L 513.216 305.634452 
L 516.384 305.226371 
L 519.552 307.454814 
L 522.72 309.470723 
L 525.888 308.653342 
L 529.056 308.325855 
L 532.224 307.22701 
L 535.392 307.113856 
L 541.728 308.002317 
L 544.896 306.996914 
L 548.064 307.002215 
L 551.232 306.866708 
L 554.4 306.9097 
L 557.568 305.721957 
L 563.904 306.887826 
L 567.072 305.69098 
L 570.24 305.200142 
L 573.408 305.161129 
L 576.576 305.893357 
L 579.744 306.30758 
L 582.912 305.606498 
L 586.08 302.892224 
L 589.248 303.173539 
L 592.416 302.531166 
L 595.584 303.149704 
L 598.752 303.271811 
L 601.92 303.879406 
L 605.088 305.035692 
L 608.256 305.343672 
L 611.424 304.511678 
L 614.592 302.788455 
L 617.76 303.579209 
L 620.928 302.56204 
L 624.096 302.981077 
L 627.264 302.087165 
L 630.432 303.432448 
L 633.6 303.486367 
L 636.768 304.523479 
L 639.936 305.410152 
L 643.104 304.840827 
L 646.272 303.359973 
L 649.44 300.567155 
L 652.608 302.003938 
L 655.776 302.354713 
L 658.944 304.190709 
L 662.112 304.47647 
L 665.28 305.013222 
L 668.448 305.138802 
L 671.616 304.540074 
L 674.784 304.775094 
L 677.952 304.785778 
L 681.12 305.209421 
L 684.288 305.337752 
L 687.456 306.145846 
L 690.624 306.357567 
L 693.792 306.436625 
L 696.96 305.44509 
L 700.128 305.534676 
L 706.464 305.949052 
L 709.632 305.956554 
L 712.8 305.78946 
L 715.968 305.870331 
L 719.136 307.33633 
L 722.304 307.520035 
L 725.472 308.223428 
L 728.64 308.111244 
L 731.808 308.815502 
L 734.976 308.103512 
L 738.144 308.123774 
L 741.312 307.981895 
L 744.48 307.353533 
L 753.984 307.311855 
L 757.152 307.516021 
L 760.32 306.906227 
L 766.656 306.937975 
L 769.824 306.216149 
L 772.992 305.668347 
L 776.16 303.977856 
L 779.328 305.362126 
L 782.496 304.676776 
L 785.664 305.090057 
L 788.832 305.64809 
L 788.832 305.64809 
" clip-path="url(#pddc6f5da1c)" style="fill: none; stroke: #000000; stroke-width: 1.5; stroke-linecap: square"/>
   </g>
   <g id="line2d_5">
    <path d="M 0 306 
L 3.168 306 
L 6.336 307.727086 
L 9.504 308.239643 
L 12.672 308.042576 
L 15.84 308.067024 
L 19.008 307.922478 
L 22.176 308.168693 
L 25.344 307.491579 
L 28.512 306.232007 
L 31.68 306.573595 
L 34.848 306.223901 
L 38.016 306.153152 
L 41.184 306.920254 
L 44.352 307.109869 
L 47.52 306.771196 
L 50.688 304.154493 
L 53.856 304.891511 
L 57.024 306.15906 
L 60.192 306.226127 
L 63.36 306.721833 
L 66.528 306.69311 
L 76.032 306.869906 
L 79.2 306.70985 
L 82.368 306.693777 
L 85.536 306.837995 
L 88.704 305.837154 
L 95.04 306.073334 
L 101.376 305.232603 
L 104.544 305.269057 
L 107.712 305.166865 
L 110.88 305.611515 
L 114.048 305.604341 
L 117.216 306.149096 
L 120.384 305.921916 
L 123.552 305.888145 
L 126.72 305.634257 
L 129.888 305.653208 
L 133.056 305.215402 
L 142.56 305.338606 
L 145.728 305.647968 
L 152.064 305.220852 
L 158.4 305.059155 
L 161.568 305.02496 
L 164.736 305.189156 
L 171.072 304.996831 
L 174.24 305.114764 
L 177.408 304.600982 
L 180.576 304.530868 
L 183.744 304.61206 
L 190.08 305.03993 
L 193.248 304.741219 
L 196.416 304.79053 
L 199.584 305.119307 
L 209.088 304.978326 
L 212.256 305.619279 
L 215.424 305.451926 
L 218.592 305.747503 
L 221.76 305.885777 
L 224.928 307.056533 
L 228.096 307.508106 
L 231.264 307.632641 
L 234.432 307.357814 
L 237.6 306.819444 
L 240.768 306.942355 
L 250.272 306.093371 
L 253.44 306.100699 
L 256.608 305.645839 
L 259.776 305.815598 
L 272.448 305.742768 
L 275.616 305.466026 
L 278.784 305.342038 
L 281.952 305.086163 
L 285.12 305.039711 
L 288.288 305.114312 
L 294.624 304.875678 
L 297.792 305.330453 
L 300.96 305.947917 
L 304.128 305.935428 
L 307.296 306.269107 
L 310.464 306.141623 
L 313.632 306.229886 
L 316.8 306.61767 
L 319.968 306.754211 
L 323.136 307.045704 
L 329.472 307.000542 
L 332.64 307.448556 
L 338.976 306.416593 
L 342.144 306.193412 
L 348.48 305.618151 
L 354.816 305.878877 
L 357.984 305.680293 
L 361.152 305.939534 
L 364.32 305.699656 
L 367.488 305.595599 
L 370.656 305.791092 
L 373.824 305.572564 
L 376.992 305.492327 
L 383.328 305.734238 
L 386.496 305.743372 
L 389.664 305.927739 
L 392.832 305.595365 
L 396 306.15926 
L 399.168 305.766807 
L 408.672 305.950573 
L 415.008 305.415453 
L 418.176 305.401501 
L 427.68 306.140849 
L 430.848 306.315691 
L 434.016 305.93633 
L 443.52 305.926403 
L 446.688 305.816756 
L 449.856 305.426421 
L 453.024 305.882453 
L 456.192 305.887818 
L 462.528 305.412021 
L 465.696 305.741248 
L 468.864 305.859307 
L 472.032 305.743908 
L 475.2 306.197298 
L 478.368 306.447048 
L 481.536 306.40842 
L 484.704 306.245982 
L 487.872 306.774503 
L 491.04 306.848717 
L 494.208 306.807568 
L 497.376 306.61251 
L 500.544 305.993263 
L 503.712 306.332922 
L 506.88 306.321719 
L 510.048 306.013508 
L 513.216 305.940835 
L 516.384 305.701104 
L 522.72 307.926567 
L 525.888 307.62791 
L 529.056 307.542503 
L 532.224 307.034986 
L 535.392 306.988447 
L 541.728 307.493648 
L 544.896 307.01169 
L 554.4 306.959315 
L 557.568 306.335028 
L 563.904 306.866739 
L 567.072 306.246212 
L 570.24 305.944962 
L 573.408 305.861669 
L 576.576 306.188104 
L 579.744 306.381206 
L 582.912 306.009071 
L 586.08 304.558868 
L 589.248 304.56949 
L 592.416 304.118414 
L 595.584 304.310786 
L 598.752 304.27555 
L 601.92 304.50847 
L 605.088 305.060479 
L 608.256 305.21878 
L 611.424 304.794115 
L 614.592 303.87263 
L 617.76 304.195234 
L 620.928 303.618015 
L 624.096 303.752716 
L 627.264 303.220829 
L 630.432 303.827948 
L 633.6 303.821031 
L 639.936 304.815134 
L 643.104 304.568607 
L 646.272 303.817754 
L 649.44 302.323556 
L 652.608 302.92898 
L 655.776 303.033976 
L 658.944 303.933245 
L 662.112 304.105918 
L 665.28 304.418827 
L 668.448 304.530425 
L 671.616 304.267123 
L 684.288 304.804744 
L 687.456 305.265364 
L 693.792 305.560421 
L 696.96 305.115939 
L 703.296 305.356314 
L 709.632 305.517433 
L 712.8 305.465897 
L 715.968 305.531223 
L 719.136 306.325627 
L 722.304 306.498213 
L 725.472 306.945129 
L 728.64 306.990436 
L 731.808 307.45213 
L 734.976 307.194617 
L 741.312 307.277665 
L 744.48 307.005596 
L 757.152 307.18619 
L 760.32 306.900143 
L 766.656 306.914582 
L 772.992 306.228847 
L 776.16 305.300819 
L 779.328 305.911533 
L 782.496 305.508079 
L 788.832 305.907199 
L 788.832 305.907199 
" clip-path="url(#pddc6f5da1c)" style="fill: none; stroke: #000000; stroke-width: 1.5; stroke-linecap: square"/>
   </g>
   <g id="line2d_6">
    <path d="M 0 306 
L 3.168 306 
L 6.336 307.691269 
L 9.504 308.195476 
L 12.672 308.021927 
L 15.84 308.048967 
L 19.008 307.921537 
L 22.176 308.140336 
L 25.344 307.553971 
L 28.512 306.466674 
L 31.68 306.726013 
L 34.848 306.419414 
L 38.016 306.341337 
L 41.184 306.937788 
L 44.352 307.085828 
L 47.52 306.824625 
L 50.688 304.815053 
L 53.856 305.318081 
L 57.024 306.229066 
L 60.192 306.273077 
L 63.36 306.629329 
L 69.696 306.688436 
L 76.032 306.758695 
L 82.368 306.648862 
L 85.536 306.748167 
L 88.704 306.09033 
L 95.04 306.21707 
L 101.376 305.654006 
L 107.712 305.568274 
L 110.88 305.823474 
L 114.048 305.80766 
L 117.216 306.131164 
L 120.384 305.993684 
L 123.552 305.969517 
L 126.72 305.812706 
L 129.888 305.814918 
L 133.056 305.546837 
L 142.56 305.574057 
L 145.728 305.742073 
L 152.064 305.481458 
L 161.568 305.328383 
L 164.736 305.406701 
L 174.24 305.330012 
L 177.408 305.034347 
L 183.744 304.999753 
L 190.08 305.205187 
L 193.248 305.034192 
L 196.416 305.047769 
L 199.584 305.215012 
L 209.088 305.12079 
L 212.256 305.460206 
L 215.424 305.377782 
L 221.76 305.623379 
L 224.928 306.260175 
L 228.096 306.535388 
L 231.264 306.643196 
L 234.432 306.541337 
L 237.6 306.291766 
L 240.768 306.37976 
L 250.272 305.984042 
L 253.44 305.98875 
L 256.608 305.755891 
L 262.944 305.822021 
L 266.112 305.74544 
L 269.28 305.835622 
L 275.616 305.650492 
L 294.624 305.265747 
L 300.96 305.796922 
L 304.128 305.796087 
L 307.296 305.974402 
L 313.632 305.976619 
L 316.8 306.187327 
L 332.64 306.726594 
L 338.976 306.243827 
L 351.648 305.875367 
L 354.816 305.955625 
L 357.984 305.850191 
L 361.152 305.975618 
L 367.488 305.791421 
L 370.656 305.882953 
L 376.992 305.717611 
L 389.664 305.915663 
L 392.832 305.746458 
L 396 306.027546 
L 399.168 305.83247 
L 408.672 305.924051 
L 415.008 305.646765 
L 418.176 305.629178 
L 430.848 306.094234 
L 434.016 305.911447 
L 446.688 305.85449 
L 449.856 305.65248 
L 453.024 305.875839 
L 456.192 305.882679 
L 462.528 305.631021 
L 468.864 305.846755 
L 472.032 305.788569 
L 478.368 306.152207 
L 484.704 306.072174 
L 487.872 306.349195 
L 494.208 306.403762 
L 497.376 306.320799 
L 500.544 306.017283 
L 503.712 306.191626 
L 506.88 306.192738 
L 510.048 306.041477 
L 516.384 305.877656 
L 522.72 307.023346 
L 535.392 306.658894 
L 541.728 306.94887 
L 544.896 306.725406 
L 554.4 306.731325 
L 557.568 306.422797 
L 563.904 306.693024 
L 567.072 306.38314 
L 573.408 306.169295 
L 579.744 306.415542 
L 582.912 306.22531 
L 586.08 305.47588 
L 589.248 305.442484 
L 592.416 305.17512 
L 601.92 305.252973 
L 605.088 305.503089 
L 608.256 305.565687 
L 611.424 305.334447 
L 614.592 304.840222 
L 617.76 304.962361 
L 620.928 304.635237 
L 624.096 304.660849 
L 627.264 304.350893 
L 630.432 304.611206 
L 633.6 304.573766 
L 639.936 305.028957 
L 643.104 304.894967 
L 646.272 304.496959 
L 649.44 303.705078 
L 652.608 303.955577 
L 655.776 303.966823 
L 658.944 304.386636 
L 668.448 304.650171 
L 671.616 304.511105 
L 684.288 304.764048 
L 687.456 305.001431 
L 693.792 305.179379 
L 696.96 304.969018 
L 715.968 305.239568 
L 719.136 305.657046 
L 722.304 305.774933 
L 725.472 306.03586 
L 728.64 306.096575 
L 731.808 306.370189 
L 734.976 306.28373 
L 741.312 306.404162 
L 744.48 306.303723 
L 757.152 306.512033 
L 760.32 306.393115 
L 766.656 306.443304 
L 772.992 306.123512 
L 776.16 305.653418 
L 779.328 305.951538 
L 782.496 305.744392 
L 788.832 305.927865 
L 788.832 305.927865 
" clip-path="url(#pddc6f5da1c)" style="fill: none; stroke: #000000; stroke-width: 1.5; stroke-linecap: square"/>
   </g>
   <g id="line2d_7">
    <path d="M 0 306 
L 3.168 306 
L 6.336 307.673345 
L 9.504 308.173085 
L 12.672 308.010717 
L 15.84 308.038987 
L 19.008 307.919781 
L 22.176 308.125659 
L 25.344 307.582072 
L 28.512 306.576936 
L 31.68 306.801425 
L 34.848 306.516737 
L 38.016 306.437736 
L 41.184 306.958246 
L 44.352 307.086641 
L 47.52 306.859169 
L 50.688 305.122787 
L 53.856 305.531542 
L 57.024 306.289567 
L 60.192 306.322708 
L 63.36 306.61649 
L 69.696 306.666114 
L 76.032 306.725731 
L 82.368 306.640192 
L 85.536 306.718768 
L 88.704 306.206386 
L 95.04 306.294183 
L 101.376 305.856604 
L 107.712 305.77604 
L 110.88 305.957078 
L 114.048 305.940134 
L 117.216 306.17185 
L 126.72 305.93441 
L 129.888 305.931558 
L 133.056 305.73733 
L 142.56 305.737212 
L 145.728 305.847939 
L 155.232 305.599535 
L 186.912 305.341435 
L 190.08 305.392834 
L 193.248 305.27787 
L 209.088 305.303983 
L 212.256 305.510591 
L 215.424 305.457982 
L 221.76 305.607095 
L 224.928 305.998527 
L 231.264 306.249412 
L 266.112 305.758727 
L 272.448 305.7891 
L 285.12 305.549844 
L 291.456 305.498918 
L 294.624 305.463418 
L 307.296 305.86167 
L 313.632 305.867702 
L 323.136 306.145253 
L 335.808 306.190256 
L 345.312 305.923879 
L 351.648 305.87468 
L 361.152 305.930297 
L 367.488 305.830318 
L 370.656 305.879344 
L 376.992 305.788272 
L 389.664 305.891982 
L 392.832 305.801179 
L 396 305.951464 
L 399.168 305.848178 
L 408.672 305.897855 
L 418.176 305.738071 
L 430.848 305.984479 
L 437.184 305.896566 
L 446.688 305.862528 
L 449.856 305.755961 
L 453.024 305.871273 
L 459.36 305.796989 
L 462.528 305.74092 
L 468.864 305.851588 
L 472.032 305.821028 
L 478.368 306.012701 
L 484.704 305.976944 
L 487.872 306.12371 
L 497.376 306.124087 
L 500.544 305.970604 
L 506.88 306.064892 
L 516.384 305.906228 
L 522.72 306.50505 
L 535.392 306.353645 
L 541.728 306.517515 
L 544.896 306.411618 
L 554.4 306.434605 
L 557.568 306.281993 
L 563.904 306.428055 
L 570.24 306.194527 
L 576.576 306.246088 
L 579.744 306.295308 
L 582.912 306.199715 
L 586.08 305.815782 
L 589.248 305.791252 
L 592.416 305.646834 
L 611.424 305.678745 
L 614.592 305.418709 
L 617.76 305.469199 
L 620.928 305.290984 
L 624.096 305.290181 
L 627.264 305.118524 
L 630.432 305.236013 
L 633.6 305.204012 
L 639.936 305.411837 
L 643.104 305.334882 
L 646.272 305.122809 
L 649.44 304.705695 
L 652.608 304.811482 
L 655.776 304.798668 
L 658.944 304.994541 
L 715.968 305.309104 
L 719.136 305.519496 
L 728.64 305.757291 
L 731.808 305.9034 
L 738.144 305.920708 
L 757.152 306.048213 
L 763.488 306.012813 
L 769.824 305.962341 
L 772.992 305.893537 
L 776.16 305.660798 
L 779.328 305.811247 
L 782.496 305.709372 
L 788.832 305.804546 
L 788.832 305.804546 
" clip-path="url(#pddc6f5da1c)" style="fill: none; stroke: #000000; stroke-width: 1.5; stroke-linecap: square"/>
   </g>
   <g id="line2d_8">
    <path d="M 0 306 
L 3.168 306 
L 6.336 307.664381 
L 9.504 308.161816 
L 12.672 308.004893 
L 15.84 308.033757 
L 19.008 307.918571 
L 22.176 308.118186 
L 25.344 307.595305 
L 28.512 306.630121 
L 31.68 306.83866 
L 34.848 306.564933 
L 38.016 306.486084 
L 41.184 306.971082 
L 44.352 307.090109 
L 47.52 306.878303 
L 50.688 305.270102 
L 53.856 305.637079 
L 57.024 306.325297 
L 60.192 306.353448 
L 63.36 306.618358 
L 72.864 306.692953 
L 79.2 306.645817 
L 85.536 306.709971 
L 88.704 306.262557 
L 95.04 306.334459 
L 101.376 305.954144 
L 114.048 306.011884 
L 117.216 306.204054 
L 126.72 306.002449 
L 129.888 305.99805 
L 133.056 305.836496 
L 142.56 305.828088 
L 145.728 305.915079 
L 155.232 305.709035 
L 186.912 305.476828 
L 190.08 305.513106 
L 196.416 305.420796 
L 202.752 305.463309 
L 209.088 305.428736 
L 212.256 305.580267 
L 215.424 305.539717 
L 221.76 305.647271 
L 224.928 305.934445 
L 231.264 306.121642 
L 266.112 305.778537 
L 272.448 305.799512 
L 285.12 305.630045 
L 304.128 305.765851 
L 310.464 305.816793 
L 319.968 305.959976 
L 326.304 306.050897 
L 342.144 305.955518 
L 351.648 305.864396 
L 361.152 305.901165 
L 373.824 305.828055 
L 386.496 305.844537 
L 396 305.913027 
L 402.336 305.863597 
L 411.84 305.83006 
L 418.176 305.77973 
L 434.016 305.874339 
L 459.36 305.818844 
L 465.696 305.832962 
L 506.88 305.989073 
L 516.384 305.897523 
L 522.72 306.25102 
L 538.56 306.222882 
L 544.896 306.215976 
L 563.904 306.238936 
L 570.24 306.108614 
L 582.912 306.116556 
L 586.08 305.89856 
L 617.76 305.686158 
L 627.264 305.479239 
L 639.936 305.628321 
L 646.272 305.461407 
L 649.44 305.224858 
L 665.28 305.405359 
L 715.968 305.482932 
L 722.304 305.629256 
L 731.808 305.803866 
L 747.648 305.828449 
L 766.656 305.893078 
L 785.664 305.736727 
L 788.832 305.769849 
L 788.832 305.769849 
" clip-path="url(#pddc6f5da1c)" style="fill: none; stroke: #000000; stroke-width: 1.5; stroke-linecap: square"/>
   </g>
   <g id="line2d_9">
    <path d="M 0 306 
L 3.168 306 
L 6.336 307.659899 
L 9.504 308.156165 
L 12.672 308.001926 
L 15.84 308.031082 
L 19.008 307.917882 
L 22.176 308.114415 
L 25.344 307.601713 
L 28.512 306.656207 
L 31.68 306.857126 
L 34.848 306.588869 
L 38.016 306.51024 
L 41.184 306.978103 
L 44.352 307.092576 
L 47.52 306.88831 
L 50.688 305.342021 
L 53.856 305.689395 
L 57.024 306.344388 
L 60.192 306.370182 
L 63.36 306.621296 
L 72.864 306.691479 
L 79.2 306.647447 
L 85.536 306.707247 
L 88.704 306.290285 
L 95.04 306.355073 
L 101.376 306.001801 
L 114.048 306.048761 
L 117.216 306.222862 
L 126.72 306.037943 
L 129.888 306.03301 
L 133.056 305.886566 
L 174.24 305.684068 
L 180.576 305.509243 
L 209.088 305.498101 
L 212.256 305.625694 
L 218.592 305.649729 
L 221.76 305.679918 
L 224.928 305.92136 
L 231.264 306.079431 
L 294.624 305.620744 
L 307.296 305.834214 
L 313.632 305.837926 
L 326.304 306.006134 
L 342.144 305.934613 
L 351.648 305.863955 
L 364.32 305.859382 
L 386.496 305.848418 
L 402.336 305.862876 
L 415.008 305.805965 
L 427.68 305.888607 
L 440.352 305.885049 
L 472.032 305.839371 
L 481.536 305.92354 
L 491.04 305.989111 
L 513.216 305.917525 
L 516.384 305.891284 
L 522.72 306.141801 
L 538.56 306.126168 
L 548.064 306.131225 
L 582.912 306.06266 
L 586.08 305.913693 
L 624.096 305.692336 
L 630.432 305.664311 
L 646.272 305.606918 
L 649.44 305.448072 
L 668.448 305.561899 
L 677.952 305.527362 
L 712.8 305.588609 
L 722.304 305.687071 
L 734.976 305.787918 
L 763.488 305.8467 
L 772.992 305.809433 
L 776.16 305.730602 
L 782.496 305.746924 
L 788.832 305.778812 
L 788.832 305.778812 
" clip-path="url(#pddc6f5da1c)" style="fill: none; stroke: #000000; stroke-width: 1.5; stroke-linecap: square"/>
   </g>
  </g>
 </g>
 <defs>
  <clipPath id="pddc6f5da1c">
   <rect x="0" y="0" width="792" height="612"/>
  </clipPath>
 </defs>
</svg>
