<?xml version="1.0" encoding="utf-8" standalone="no"?>
<!DOCTYPE svg PUBLIC "-//W3C//DTD SVG 1.1//EN"
  "http://www.w3.org/Graphics/SVG/1.1/DTD/svg11.dtd">
<svg xmlns:xlink="http://www.w3.org/1999/xlink" width="792pt" height="612pt" viewBox="0 0 792 612" xmlns="http://www.w3.org/2000/svg" version="1.1">
 <metadata>
  <rdf:RDF xmlns:dc="http://purl.org/dc/elements/1.1/" xmlns:cc="http://creativecommons.org/ns#" xmlns:rdf="http://www.w3.org/1999/02/22-rdf-syntax-ns#">
   <cc:Work>
    <dc:type rdf:resource="http://purl.org/dc/dcmitype/StillImage"/>
    <dc:date>2022-12-19T20:29:10.950440</dc:date>
    <dc:format>image/svg+xml</dc:format>
    <dc:creator>
     <cc:Agent>
      <dc:title>Matplotlib v3.6.2, https://matplotlib.org/</dc:title>
     </cc:Agent>
    </dc:creator>
   </cc:Work>
  </rdf:RDF>
 </metadata>
 <defs>
  <style type="text/css">*{stroke-linejoin: round; stroke-linecap: butt}</style>
 </defs>
 <g id="figure_1">
  <g id="patch_1">
   <path d="M 0 612 
L 792 612 
L 792 0 
L 0 0 
z
" style="fill: #ffffff"/>
  </g>
  <g id="axes_1">
   <g id="line2d_1">
    <path d="M 0 459 
L 3.155378 453.897556 
L 6.310757 441.941112 
L 9.466135 434.725352 
L 12.621514 434.898577 
L 15.776892 440.336754 
L 18.932271 438.321118 
L 22.087649 436.999463 
L 25.243028 432.106198 
L 28.398406 429.121217 
L 31.553785 427.824175 
L 34.709163 423.871373 
L 37.864542 426.311593 
L 41.01992 429.553672 
L 44.175299 425.836356 
L 47.330677 423.353349 
L 50.486056 429.186082 
L 53.641434 429.121217 
L 56.796813 424.540621 
L 59.952191 417.898317 
L 63.10757 413.572729 
L 66.262948 414.906158 
L 69.418327 416.864642 
L 72.573705 407.17486 
L 75.729084 410.457286 
L 78.884462 415.895963 
L 82.039841 421.066518 
L 85.195219 423.61235 
L 88.350598 427.154232 
L 91.505976 429.402306 
L 94.661355 434.811963 
L 97.816733 431.651808 
L 100.972112 420.549004 
L 104.12749 424.864504 
L 107.282869 421.540991 
L 110.438247 421.001823 
L 113.593625 431.565264 
L 116.749004 435.743146 
L 119.904382 432.668849 
L 123.059761 395.102482 
L 126.215139 403.255889 
L 129.370518 421.239044 
L 132.525896 422.576484 
L 135.681275 431.067672 
L 138.836653 431.781628 
L 141.992032 434.552134 
L 145.14741 436.674521 
L 148.302789 438.646168 
L 151.458167 437.259432 
L 154.613546 438.147766 
L 157.768924 441.897745 
L 160.924303 425.10204 
L 164.079681 426.28999 
L 167.23506 429.034732 
L 170.390438 421.735117 
L 173.545817 413.013778 
L 176.701195 412.433475 
L 179.856574 409.31965 
L 183.011952 416.32644 
L 186.167331 415.551637 
L 189.322709 425.274805 
L 192.478088 421.174345 
L 195.633466 420.398081 
L 198.788845 415.336458 
L 201.944223 415.099783 
L 205.099602 406.103317 
L 208.25498 405.267919 
L 211.410359 405.118014 
L 214.565737 404.796828 
L 217.721116 409.705949 
L 220.876494 403.940595 
L 224.031873 399.836192 
L 227.187251 396.252691 
L 233.498008 391.784302 
L 236.653386 393.378708 
L 239.808765 390.616121 
L 242.964143 386.905277 
L 246.119522 387.561938 
L 249.2749 376.231512 
L 252.430279 372.644561 
L 255.585657 371.848927 
L 258.741036 374.258414 
L 261.896414 376.000453 
L 265.051793 368.734484 
L 268.207171 367.670433 
L 271.36255 372.037318 
L 274.517928 369.026753 
L 277.673307 364.837986 
L 280.828685 364.671602 
L 283.984064 375.349519 
L 287.139442 371.53501 
L 290.294821 376.357563 
L 293.450199 378.628661 
L 296.605578 401.24603 
L 299.760956 411.831838 
L 302.916335 416.713934 
L 306.071713 413.981279 
L 309.227092 405.589184 
L 312.38247 409.341109 
L 315.537849 404.732597 
L 318.693227 398.875587 
L 321.848606 395.741387 
L 325.003984 395.890501 
L 328.159363 387.222978 
L 331.314741 390.021758 
L 334.47012 389.02461 
L 337.625498 385.88911 
L 340.780876 388.833743 
L 343.936255 387.11707 
L 347.091633 381.346682 
L 350.247012 378.102578 
L 353.40239 372.121057 
L 356.557769 369.778651 
L 359.713147 369.695082 
L 362.868526 365.087611 
L 366.023904 362.013006 
L 369.179283 368.922362 
L 372.334661 379.702544 
L 375.49004 379.344483 
L 378.645418 385.69866 
L 381.800797 383.647691 
L 384.956175 385.614024 
L 388.111554 393.527602 
L 391.266932 397.233132 
L 394.422311 404.154617 
L 397.577689 406.446148 
L 400.733068 406.70331 
L 403.888446 417.166087 
L 407.043825 408.547268 
L 410.199203 400.64778 
L 413.354582 396.955992 
L 416.50996 390.679817 
L 419.665339 385.846786 
L 422.820717 386.947633 
L 425.976096 389.788323 
L 429.131474 385.71982 
L 432.286853 390.234003 
L 435.442231 385.465923 
L 438.59761 382.971756 
L 441.752988 386.100751 
L 444.908367 381.515428 
L 448.063745 379.281306 
L 451.219124 380.75624 
L 454.374502 382.465027 
L 457.52988 382.211735 
L 460.685259 385.381301 
L 463.840637 378.839155 
L 466.996016 389.088237 
L 470.151394 381.726392 
L 473.306773 383.18295 
L 476.462151 384.979417 
L 479.61753 384.619936 
L 482.772908 378.776003 
L 485.928287 373.692268 
L 489.083665 372.477015 
L 492.239044 376.609703 
L 495.394422 381.409959 
L 498.549801 385.275531 
L 501.705179 388.939777 
L 504.860558 382.10621 
L 508.015936 382.443918 
L 511.171315 383.985785 
L 517.482072 379.534032 
L 520.63745 371.702422 
L 523.792829 379.555095 
L 526.948207 379.470846 
L 530.103586 373.818055 
L 533.258964 369.486187 
L 536.414343 374.866794 
L 539.569721 376.714776 
L 542.7251 374.279387 
L 545.880478 382.612803 
L 549.035857 387.752637 
L 552.191235 387.710257 
L 555.346614 385.190921 
L 558.501992 395.869198 
L 561.657371 398.576841 
L 564.812749 399.131696 
L 567.968127 396.61496 
L 571.123506 385.571708 
L 574.278884 392.209316 
L 577.434263 392.528154 
L 580.589641 387.074709 
L 583.74502 385.677501 
L 586.900398 380.945996 
L 590.055777 402.336211 
L 593.211155 425.469177 
L 596.366534 422.749102 
L 599.521912 423.741859 
L 602.677291 416.240338 
L 605.832669 417.058424 
L 608.988048 423.633934 
L 612.143426 430.656667 
L 615.298805 423.547597 
L 618.454183 425.231613 
L 621.609562 425.447579 
L 624.76494 427.348717 
L 627.920319 416.584762 
L 631.075697 422.123409 
L 634.231076 428.62396 
L 637.386454 417.747547 
L 640.541833 412.197098 
L 643.697211 410.478757 
L 646.85259 416.670876 
L 650.007968 420.786186 
L 653.163347 414.067299 
L 656.318725 385.69866 
L 659.474104 383.584308 
L 662.629482 372.602673 
L 665.784861 373.273074 
L 668.940239 369.945807 
L 672.095618 371.63964 
L 675.250996 379.892146 
L 678.406375 381.452146 
L 681.561753 372.016384 
L 684.717131 352.557042 
L 687.87251 355.293577 
L 691.027888 341.651839 
L 694.183267 340.49587 
L 697.338645 327.271336 
L 700.494024 334.197311 
L 703.649402 330.76644 
L 709.960159 343.236272 
L 713.115538 336.835889 
L 716.270916 320.903643 
L 719.426295 291.25193 
L 722.581673 296.431015 
L 725.737052 293.854336 
L 728.89243 305.290511 
L 732.047809 305.290511 
L 735.203187 308.034173 
L 738.358566 307.705063 
L 741.513944 300.911026 
L 744.669323 300.930164 
L 747.824701 299.2675 
L 750.98008 301.389662 
L 754.135458 301.389662 
L 757.290837 307.763129 
L 760.446215 309.934783 
L 763.601594 311.159634 
L 766.756972 302.635934 
L 769.912351 302.635934 
L 773.067729 304.346604 
L 776.223108 305.50261 
L 779.378486 305.50261 
L 782.533865 303.865587 
L 785.689243 304.231125 
L 788.844622 317.692241 
L 788.844622 317.692241 
" clip-path="url(#p2385e609bc)" style="fill: none; stroke: #000000; stroke-width: 1.5; stroke-linecap: square"/>
   </g>
   <g id="line2d_2">
    <path d="M 0 459 
L 3.155378 459 
L 6.310757 455.598293 
L 9.466135 447.7919 
L 12.621514 440.81946 
L 15.776892 437.762639 
L 18.932271 439.069969 
L 22.087649 438.692581 
L 25.243028 437.84263 
L 31.553785 431.971445 
L 34.709163 429.869566 
L 37.864542 426.847823 
L 41.01992 426.562879 
L 44.175299 428.036839 
L 47.330677 426.911967 
L 50.486056 425.105427 
L 53.641434 427.139402 
L 56.796813 428.130165 
L 59.952191 426.328452 
L 66.262948 417.807094 
L 69.418327 416.327537 
L 72.573705 416.578515 
L 75.729084 411.840011 
L 78.884462 411.111943 
L 82.039841 413.476863 
L 85.195219 417.262016 
L 88.350598 420.446527 
L 91.505976 423.825154 
L 94.661355 426.640997 
L 97.816733 430.759477 
L 100.972112 431.253805 
L 104.12749 425.916743 
L 107.282869 425.408196 
L 110.438247 423.47489 
L 113.593625 422.23297 
L 116.749004 426.904425 
L 119.904382 431.33364 
L 123.059761 431.996987 
L 126.215139 413.403765 
L 129.370518 408.289703 
L 132.525896 414.748401 
L 135.681275 418.661514 
L 138.836653 424.878053 
L 141.992032 428.328522 
L 145.14741 431.436723 
L 148.302789 434.062661 
L 151.458167 436.439812 
L 154.613546 436.916632 
L 157.768924 437.565382 
L 160.924303 439.769087 
L 164.079681 432.417046 
L 167.23506 429.341423 
L 170.390438 429.177263 
L 173.545817 425.424711 
L 176.701195 419.161761 
L 183.011952 412.474601 
L 186.167331 414.349837 
L 189.322709 414.931974 
L 192.478088 420.096429 
L 195.633466 420.619945 
L 198.788845 420.506389 
L 201.944223 417.924671 
L 205.099602 416.517056 
L 208.25498 411.297664 
L 211.410359 408.258918 
L 214.565737 406.667423 
L 217.721116 405.691916 
L 220.876494 407.67553 
L 224.031873 405.774996 
L 227.187251 402.772886 
L 230.342629 399.472899 
L 233.498008 396.697621 
L 236.653386 394.212697 
L 239.808765 393.772703 
L 242.964143 392.165893 
L 246.119522 389.48878 
L 249.2749 388.493073 
L 252.430279 382.30212 
L 255.585657 377.417967 
L 258.741036 374.587123 
L 261.896414 374.38862 
L 265.051793 375.160439 
L 268.207171 371.900393 
L 271.36255 369.74596 
L 274.517928 370.860848 
L 277.673307 369.929337 
L 280.828685 367.365438 
L 283.984064 366.00364 
L 287.139442 370.669204 
L 290.294821 371.09329 
L 293.450199 373.737484 
L 296.605578 376.202184 
L 299.760956 388.727883 
L 302.916335 400.326534 
L 306.071713 408.606827 
L 309.227092 411.390405 
L 312.38247 408.547688 
L 315.537849 409.019329 
L 318.693227 406.931002 
L 321.848606 402.938961 
L 325.003984 399.325645 
L 328.159363 397.576046 
L 331.314741 392.333343 
L 337.625498 390.044812 
L 340.780876 387.919759 
L 343.936255 388.34567 
L 347.091633 387.708263 
L 353.40239 381.260497 
L 356.557769 376.652802 
L 359.713147 373.171257 
L 362.868526 371.394206 
L 369.179283 365.047879 
L 372.334661 366.948066 
L 375.49004 373.304961 
L 378.645418 376.323454 
L 381.800797 381.029348 
L 384.956175 382.365194 
L 388.111554 384.020013 
L 391.266932 388.822267 
L 394.422311 393.091802 
L 397.577689 398.683948 
L 400.733068 402.613702 
L 403.888446 404.711439 
L 407.043825 410.991843 
L 410.199203 409.818401 
L 413.354582 405.257337 
L 416.50996 401.108599 
L 422.820717 390.815793 
L 425.976096 388.842392 
L 429.131474 389.282298 
L 432.286853 387.438806 
L 435.442231 388.800063 
L 438.59761 387.102368 
L 441.752988 385.008196 
L 444.908367 385.545406 
L 451.219124 381.384152 
L 454.374502 381.052503 
L 457.52988 381.752206 
L 460.685259 381.966269 
L 463.840637 383.672548 
L 466.996016 381.245527 
L 470.151394 385.167198 
L 473.306773 383.446118 
L 476.462151 383.32219 
L 479.61753 384.158841 
L 482.772908 384.393597 
L 485.928287 381.575074 
L 489.083665 377.60459 
L 492.239044 375.025623 
L 495.394422 375.793072 
L 498.549801 378.597791 
L 501.705179 381.936561 
L 504.860558 385.441532 
L 508.015936 383.76792 
L 511.171315 383.112962 
L 514.326693 383.56956 
L 517.482072 382.697668 
L 520.63745 381.120645 
L 523.792829 376.383516 
L 526.948207 377.957129 
L 530.103586 378.695272 
L 533.258964 376.23802 
L 536.414343 372.83193 
L 539.569721 373.831128 
L 542.7251 375.262178 
L 545.880478 374.760398 
L 549.035857 378.701958 
L 552.191235 383.235794 
L 555.346614 385.487411 
L 558.501992 385.361557 
L 561.657371 390.658252 
L 564.812749 394.659406 
L 567.968127 396.93827 
L 571.123506 396.820741 
L 574.278884 391.191645 
L 580.589641 392.128054 
L 583.74502 389.602932 
L 586.900398 387.618937 
L 590.055777 384.243969 
L 593.211155 393.270278 
L 596.366534 409.36442 
L 599.521912 416.120899 
L 602.677291 419.990842 
L 605.832669 418.161702 
L 608.988048 417.669251 
L 612.143426 420.724964 
L 615.298805 425.785279 
L 618.454183 424.70802 
L 624.76494 425.213743 
L 627.920319 426.288126 
L 631.075697 421.432895 
L 634.231076 421.78807 
L 637.386454 425.213912 
L 640.541833 421.452941 
L 643.697211 416.798448 
L 646.85259 413.607552 
L 650.007968 415.121551 
L 653.163347 417.939453 
L 656.318725 415.997667 
L 659.474104 400.712371 
L 662.629482 392.03688 
L 665.784861 382.196588 
L 668.940239 377.651353 
L 672.095618 373.713807 
L 675.250996 372.589285 
L 678.406375 376.156382 
L 681.561753 378.738361 
L 684.717131 375.34598 
L 687.87251 363.829641 
L 691.027888 359.518787 
L 694.183267 350.480218 
L 697.338645 345.416584 
L 700.494024 336.206588 
L 703.649402 335.113831 
L 706.804781 332.840209 
L 709.960159 334.798341 
L 713.115538 338.988338 
L 716.270916 337.87555 
L 719.426295 329.30085 
L 722.581673 309.894491 
L 725.737052 303.065197 
L 728.89243 298.364156 
L 732.047809 301.768492 
L 735.203187 303.466577 
L 738.358566 305.679076 
L 741.513944 306.63543 
L 744.669323 303.727652 
L 747.824701 302.346445 
L 750.98008 300.810543 
L 754.135458 301.114896 
L 757.290837 301.244641 
L 760.446215 304.499932 
L 763.601594 307.2151 
L 766.756972 309.191042 
L 769.912351 305.908111 
L 773.067729 304.273163 
L 776.223108 304.319884 
L 779.378486 304.919043 
L 782.533865 305.218845 
L 785.689243 304.534211 
L 788.844622 304.371515 
L 788.844622 304.371515 
" clip-path="url(#p2385e609bc)" style="fill: none; stroke: #000000; stroke-width: 1.5; stroke-linecap: square"/>
   </g>
   <g id="line2d_3">
    <path d="M 0 459 
L 3.155378 459 
L 6.310757 456.010977 
L 9.466135 449.633892 
L 12.621514 443.807651 
L 15.776892 440.636244 
L 18.932271 440.535992 
L 22.087649 439.824273 
L 25.243028 438.941581 
L 28.398406 436.845885 
L 31.553785 434.508869 
L 34.709163 432.505503 
L 37.864542 429.934238 
L 41.01992 428.860936 
L 44.175299 429.065417 
L 47.330677 428.11407 
L 50.486056 426.713479 
L 53.641434 427.403369 
L 56.796813 427.878049 
L 59.952191 426.880227 
L 63.10757 424.227296 
L 66.262948 421.077745 
L 69.418327 419.239462 
L 72.573705 418.519093 
L 75.729084 415.156465 
L 78.884462 413.754305 
L 82.039841 414.366237 
L 85.195219 416.319108 
L 88.350598 418.45287 
L 94.661355 423.458159 
L 97.816733 426.79001 
L 100.972112 428.222829 
L 104.12749 425.963308 
L 107.282869 425.636549 
L 110.438247 424.432958 
L 113.593625 423.431152 
L 116.749004 425.832174 
L 119.904382 428.756193 
L 123.059761 429.919935 
L 126.215139 419.65494 
L 129.370518 414.831054 
L 132.525896 416.712359 
L 135.681275 418.430299 
L 138.836653 422.134704 
L 145.14741 427.77445 
L 148.302789 430.381217 
L 151.458167 432.808307 
L 154.613546 434.13076 
L 157.768924 435.322218 
L 160.924303 437.270674 
L 164.079681 433.707345 
L 167.23506 431.527241 
L 170.390438 430.789325 
L 173.545817 428.122244 
L 176.701195 423.709374 
L 183.011952 417.144323 
L 186.167331 416.897571 
L 189.322709 416.485501 
L 192.478088 419.049417 
L 195.633466 419.656295 
L 198.788845 419.854895 
L 201.944223 418.503943 
L 205.099602 417.481026 
L 208.25498 414.105892 
L 211.410359 411.47163 
L 214.565737 409.585778 
L 217.721116 408.157342 
L 220.876494 408.588697 
L 224.031873 407.205784 
L 227.187251 405.029175 
L 233.498008 399.935428 
L 236.653386 397.515757 
L 239.808765 396.277603 
L 242.964143 394.577762 
L 246.119522 392.287423 
L 249.2749 390.864376 
L 252.430279 386.517716 
L 255.585657 382.390627 
L 258.741036 379.254784 
L 261.896414 377.753984 
L 265.051793 377.206999 
L 268.207171 374.678139 
L 271.36255 372.573523 
L 274.517928 372.380224 
L 277.673307 371.361967 
L 280.828685 369.411427 
L 283.984064 367.987703 
L 287.139442 370.120399 
L 290.294821 370.509695 
L 293.450199 372.20327 
L 296.605578 374.072255 
L 299.760956 381.992417 
L 302.916335 390.715826 
L 306.071713 398.342791 
L 309.227092 402.958784 
L 312.38247 403.765134 
L 315.537849 405.435261 
L 318.693227 405.27127 
L 321.848606 403.432031 
L 325.003984 401.203549 
L 328.159363 399.676914 
L 331.314741 396.045251 
L 334.47012 394.308102 
L 337.625498 392.774549 
L 340.780876 390.771182 
L 343.936255 390.217867 
L 347.091633 389.318781 
L 350.247012 386.956323 
L 353.40239 384.318621 
L 356.557769 380.683184 
L 359.713147 377.428988 
L 362.868526 375.117743 
L 369.179283 369.102081 
L 372.334661 369.015434 
L 375.49004 372.117494 
L 378.645418 374.21097 
L 381.800797 377.563229 
L 388.111554 381.167182 
L 394.422311 388.42991 
L 397.577689 393.039315 
L 400.733068 396.984166 
L 403.888446 399.858396 
L 407.043825 404.96439 
L 410.199203 406.058128 
L 413.354582 404.507856 
L 416.50996 402.329809 
L 419.665339 398.942674 
L 422.820717 395.115341 
L 425.976096 392.726929 
L 429.131474 391.877702 
L 432.286853 390.07146 
L 435.442231 390.126648 
L 438.59761 388.759832 
L 441.752988 387.04997 
L 444.908367 386.75914 
L 448.063745 385.195348 
L 451.219124 383.429454 
L 454.374502 382.616348 
L 460.685259 382.408619 
L 463.840637 383.261206 
L 466.996016 381.943757 
L 470.151394 384.030698 
L 473.306773 383.350643 
L 476.462151 383.297206 
L 479.61753 383.784191 
L 482.772908 384.02766 
L 485.928287 382.474187 
L 489.083665 379.882208 
L 492.239044 377.696634 
L 495.394422 377.367313 
L 498.549801 378.549933 
L 501.705179 380.523143 
L 504.860558 382.992355 
L 508.015936 382.732336 
L 511.171315 382.648121 
L 514.326693 383.038175 
L 517.482072 382.675776 
L 520.63745 381.743851 
L 523.792829 378.782891 
L 530.103586 379.135012 
L 533.258964 377.562959 
L 536.414343 375.181003 
L 539.569721 375.090315 
L 542.7251 375.570757 
L 545.880478 375.189705 
L 549.035857 377.360755 
L 552.191235 380.398878 
L 555.346614 382.534853 
L 558.501992 383.315802 
L 561.657371 386.996869 
L 564.812749 390.396297 
L 567.968127 392.969831 
L 571.123506 394.056305 
L 574.278884 391.582335 
L 580.589641 392.014535 
L 586.900398 389.162086 
L 590.055777 386.757676 
L 593.211155 391.334055 
L 596.366534 401.329499 
L 599.521912 407.627331 
L 602.677291 412.377217 
L 608.988048 414.607554 
L 612.143426 417.280057 
L 615.298805 421.228573 
L 618.454183 421.935775 
L 621.609562 422.933761 
L 624.76494 423.716011 
L 627.920319 424.820191 
L 631.075697 422.433411 
L 634.231076 422.383201 
L 637.386454 424.259489 
L 640.541833 422.393357 
L 643.697211 419.414102 
L 646.85259 416.776347 
L 650.007968 416.738481 
L 653.163347 417.919979 
L 656.318725 416.788428 
L 659.474104 407.592479 
L 662.629482 400.478963 
L 665.784861 392.192401 
L 668.940239 386.566526 
L 672.095618 381.613191 
L 675.250996 378.622703 
L 678.406375 378.9407 
L 681.561753 379.635932 
L 684.717131 377.342511 
L 687.87251 369.938456 
L 691.027888 365.557363 
L 694.183267 358.414048 
L 697.338645 353.050735 
L 700.494024 345.317542 
L 706.804781 338.564642 
L 709.960159 338.020972 
L 713.115538 339.4999 
L 716.270916 338.678357 
L 719.426295 333.369755 
L 722.581673 320.663043 
L 725.737052 313.384905 
L 728.89243 307.503952 
L 732.047809 306.771425 
L 735.203187 306.263934 
L 738.358566 306.732446 
L 741.513944 306.964358 
L 744.669323 305.139391 
L 750.98008 302.478969 
L 757.290837 301.875058 
L 760.446215 303.561175 
L 763.601594 305.38404 
L 766.756972 307.041363 
L 769.912351 305.726947 
L 773.067729 304.833225 
L 776.223108 304.699815 
L 782.533865 305.110872 
L 785.689243 304.744233 
L 788.844622 304.589545 
L 788.844622 304.589545 
" clip-path="url(#p2385e609bc)" style="fill: none; stroke: #000000; stroke-width: 1.5; stroke-linecap: square"/>
   </g>
   <g id="line2d_4">
    <path d="M 0 459 
L 3.155378 459 
L 6.310757 456.228203 
L 9.466135 450.618857 
L 12.621514 445.557426 
L 15.776892 442.629333 
L 18.932271 442.065002 
L 25.243028 440.322106 
L 28.398406 438.665842 
L 31.553785 436.819529 
L 34.709163 435.136933 
L 37.864542 433.085938 
L 41.01992 431.880603 
L 44.175299 431.474379 
L 47.330677 430.504683 
L 50.486056 429.289951 
L 56.796813 429.247323 
L 59.952191 428.469106 
L 63.10757 426.730465 
L 66.262948 424.576294 
L 69.418327 423.000649 
L 72.573705 422.004966 
L 75.729084 419.601882 
L 78.884462 418.125246 
L 82.039841 417.766462 
L 85.195219 418.296156 
L 88.350598 419.147939 
L 91.505976 420.42868 
L 94.661355 421.862534 
L 97.816733 423.929001 
L 100.972112 425.161322 
L 104.12749 424.40309 
L 107.282869 424.458447 
L 113.593625 423.49856 
L 116.749004 424.778583 
L 119.904382 426.517928 
L 123.059761 427.492316 
L 126.215139 422.283026 
L 129.370518 419.227473 
L 132.525896 419.542512 
L 135.681275 420.021734 
L 138.836653 421.780961 
L 141.992032 423.373382 
L 148.302789 426.990029 
L 151.458167 428.851719 
L 157.768924 431.463425 
L 160.924303 433.132764 
L 164.079681 431.858365 
L 167.23506 430.9798 
L 170.390438 430.679104 
L 173.545817 429.257509 
L 176.701195 426.670658 
L 179.856574 424.401801 
L 183.011952 421.992163 
L 189.322709 420.200455 
L 192.478088 421.006025 
L 195.633466 421.027678 
L 198.788845 420.918523 
L 205.099602 419.232657 
L 208.25498 417.127054 
L 211.410359 415.225863 
L 214.565737 413.604623 
L 217.721116 412.184173 
L 220.876494 411.773511 
L 224.031873 410.507411 
L 227.187251 408.808693 
L 233.498008 404.73717 
L 236.653386 402.650713 
L 239.808765 401.148772 
L 242.964143 399.442992 
L 246.119522 397.412078 
L 249.2749 395.810356 
L 255.585657 389.398337 
L 258.741036 386.549768 
L 261.896414 384.544845 
L 265.051793 383.151362 
L 268.207171 380.8109 
L 271.36255 378.672902 
L 274.517928 377.584132 
L 277.673307 376.191366 
L 280.828685 374.348173 
L 283.984064 372.775549 
L 287.139442 373.159538 
L 290.294821 372.87385 
L 293.450199 373.397473 
L 296.605578 374.20218 
L 299.760956 378.457907 
L 306.071713 388.923962 
L 309.227092 392.891099 
L 312.38247 394.905239 
L 315.537849 397.196799 
L 318.693227 398.393574 
L 321.848606 398.463519 
L 328.159363 397.68276 
L 331.314741 396.008279 
L 337.625498 394.089574 
L 340.780876 392.777192 
L 343.936255 392.147977 
L 347.091633 391.346542 
L 350.247012 389.746974 
L 353.40239 387.888953 
L 359.713147 382.873083 
L 362.868526 380.764278 
L 369.179283 375.646863 
L 372.334661 374.575195 
L 375.49004 375.394335 
L 378.645418 376.028425 
L 381.800797 377.575195 
L 384.956175 378.551328 
L 388.111554 379.678898 
L 391.266932 381.886764 
L 394.422311 384.330546 
L 400.733068 390.488803 
L 403.888446 393.054851 
L 407.043825 396.870134 
L 410.199203 398.719577 
L 413.354582 399.023142 
L 416.50996 398.686374 
L 419.665339 397.401101 
L 422.820717 395.548892 
L 425.976096 394.171695 
L 429.131474 393.469646 
L 432.286853 392.233003 
L 435.442231 391.914912 
L 438.59761 390.884746 
L 441.752988 389.621031 
L 444.908367 389.058664 
L 448.063745 387.8523 
L 451.219124 386.483757 
L 454.374502 385.572551 
L 460.685259 384.634548 
L 463.840637 384.763175 
L 466.996016 383.827548 
L 470.151394 384.680243 
L 473.306773 384.21789 
L 476.462151 384.05535 
L 482.772908 384.271053 
L 485.928287 383.392209 
L 492.239044 380.329671 
L 495.394422 379.724283 
L 498.549801 379.978267 
L 501.705179 380.806595 
L 504.860558 382.08641 
L 511.171315 382.111597 
L 514.326693 382.399287 
L 517.482072 382.292862 
L 520.63745 381.846597 
L 523.792829 380.218308 
L 530.103586 380.000328 
L 533.258964 379.007242 
L 536.414343 377.474493 
L 539.569721 377.052633 
L 542.7251 376.994977 
L 545.880478 376.55516 
L 549.035857 377.517711 
L 552.191235 379.146093 
L 555.346614 380.509347 
L 558.501992 381.254803 
L 564.812749 385.962821 
L 567.968127 388.063055 
L 571.123506 389.425172 
L 574.278884 388.813793 
L 580.589641 389.867622 
L 583.74502 389.424439 
L 586.900398 388.831965 
L 590.055777 387.578869 
L 593.211155 389.936223 
L 596.366534 395.57517 
L 599.521912 399.899326 
L 602.677291 403.698574 
L 605.832669 405.705986 
L 608.988048 407.530067 
L 612.143426 410.110545 
L 615.298805 413.397685 
L 621.609562 416.684276 
L 627.920319 419.608397 
L 631.075697 419.150497 
L 634.231076 419.653766 
L 637.386454 421.116452 
L 640.541833 420.607256 
L 646.85259 417.90861 
L 650.007968 417.733089 
L 653.163347 418.239361 
L 656.318725 417.59168 
L 659.474104 412.482344 
L 662.629482 407.84559 
L 665.784861 402.169465 
L 668.940239 397.518626 
L 672.095618 393.079035 
L 675.250996 389.636854 
L 678.406375 388.074208 
L 681.561753 387.0116 
L 684.717131 384.604907 
L 687.87251 379.425984 
L 691.027888 375.53597 
L 694.183267 370.032703 
L 697.338645 365.222011 
L 700.494024 359.018717 
L 706.804781 351.020591 
L 709.960159 348.709189 
L 713.115538 347.787473 
L 716.270916 345.978885 
L 719.426295 341.873726 
L 722.581673 333.488569 
L 725.737052 327.378159 
L 728.89243 321.848096 
L 732.047809 319.119439 
L 735.203187 316.830169 
L 738.358566 315.351588 
L 741.513944 314.06387 
L 744.669323 311.886674 
L 750.98008 308.265642 
L 754.135458 307.096452 
L 757.290837 306.118752 
L 760.446215 306.333935 
L 763.601594 306.861815 
L 766.756972 307.507023 
L 769.912351 306.68714 
L 773.067729 306.000461 
L 776.223108 305.696835 
L 782.533865 305.5577 
L 785.689243 305.247484 
L 788.844622 305.056505 
L 788.844622 305.056505 
" clip-path="url(#p2385e609bc)" style="fill: none; stroke: #000000; stroke-width: 1.5; stroke-linecap: square"/>
   </g>
   <g id="line2d_5">
    <path d="M 0 459 
L 3.155378 459 
L 6.310757 456.338244 
L 9.466135 451.115827 
L 12.621514 446.467461 
L 15.776892 443.734461 
L 18.932271 443.038707 
L 25.243028 441.317585 
L 28.398406 439.904634 
L 37.864542 435.254738 
L 41.01992 434.155289 
L 44.175299 433.611511 
L 47.330677 432.723513 
L 50.486056 431.685373 
L 56.796813 431.174925 
L 59.952191 430.492222 
L 63.10757 429.220251 
L 66.262948 427.666606 
L 69.418327 426.420155 
L 72.573705 425.50055 
L 75.729084 423.756757 
L 78.884462 422.507164 
L 82.039841 421.893327 
L 85.195219 421.817375 
L 88.350598 421.980749 
L 91.505976 422.44763 
L 94.661355 423.070545 
L 97.816733 424.114624 
L 100.972112 424.781181 
L 104.12749 424.408326 
L 107.282869 424.448285 
L 113.593625 423.917275 
L 116.749004 424.578126 
L 119.904382 425.539122 
L 123.059761 426.15115 
L 126.215139 423.475085 
L 129.370518 421.740895 
L 132.525896 421.698116 
L 135.681275 421.772806 
L 141.992032 423.340687 
L 148.302789 425.331542 
L 151.458167 426.452263 
L 157.768924 428.267016 
L 160.924303 429.410352 
L 164.079681 429.048573 
L 167.23506 428.817192 
L 170.390438 428.835416 
L 173.545817 428.240452 
L 183.011952 424.369905 
L 189.322709 423.016646 
L 192.478088 423.204953 
L 198.788845 422.815647 
L 205.099602 421.588119 
L 211.410359 419.021852 
L 217.721116 416.758648 
L 220.876494 416.162549 
L 224.031873 415.134425 
L 227.187251 413.84842 
L 233.498008 410.825659 
L 236.653386 409.226231 
L 239.808765 407.895903 
L 242.964143 406.443836 
L 246.119522 404.799956 
L 249.2749 403.350205 
L 258.741036 396.405214 
L 261.896414 394.537911 
L 265.051793 392.976677 
L 271.36255 388.972089 
L 274.517928 387.543893 
L 277.673307 385.984628 
L 280.828685 384.201203 
L 283.984064 382.552021 
L 287.139442 381.937981 
L 290.294821 381.054527 
L 293.450199 380.64772 
L 296.605578 380.463733 
L 299.760956 382.166555 
L 302.916335 384.600955 
L 306.071713 387.241233 
L 309.227092 389.440781 
L 312.38247 390.769798 
L 315.537849 392.299608 
L 318.693227 393.319338 
L 321.848606 393.767899 
L 328.159363 394.083433 
L 331.314741 393.507657 
L 337.625498 392.84947 
L 340.780876 392.255975 
L 343.936255 391.957803 
L 347.091633 391.540157 
L 350.247012 390.673555 
L 353.40239 389.606414 
L 362.868526 385.13878 
L 369.179283 381.62924 
L 372.334661 380.550313 
L 378.645418 380.362424 
L 381.800797 380.795901 
L 384.956175 381.024085 
L 388.111554 381.394562 
L 391.266932 382.390499 
L 394.422311 383.607601 
L 403.888446 388.657107 
L 407.043825 391.006028 
L 410.199203 392.455707 
L 413.354582 393.132551 
L 416.50996 393.446889 
L 419.665339 393.212463 
L 422.820717 392.592025 
L 425.976096 392.117237 
L 429.131474 391.920546 
L 432.286853 391.401495 
L 435.442231 391.303347 
L 438.59761 390.815925 
L 441.752988 390.159879 
L 444.908367 389.821087 
L 448.063745 389.128144 
L 451.219124 388.305546 
L 454.374502 387.678913 
L 460.685259 386.833324 
L 463.840637 386.716394 
L 466.996016 386.061812 
L 470.151394 386.319412 
L 473.306773 385.942242 
L 476.462151 385.716673 
L 482.772908 385.580781 
L 485.928287 385.019345 
L 492.239044 383.108718 
L 495.394422 382.568177 
L 498.549801 382.472919 
L 501.705179 382.700143 
L 504.860558 383.20957 
L 511.171315 383.041616 
L 514.326693 383.112976 
L 517.482072 382.994204 
L 520.63745 382.69853 
L 523.792829 381.773447 
L 530.103586 381.403115 
L 533.258964 380.767496 
L 536.414343 379.820587 
L 539.569721 379.404101 
L 542.7251 379.1777 
L 545.880478 378.765701 
L 549.035857 379.083101 
L 555.346614 380.460231 
L 558.501992 380.856482 
L 561.657371 382.104909 
L 567.968127 384.778598 
L 571.123506 385.768674 
L 574.278884 385.75778 
L 580.589641 386.816721 
L 583.74502 386.83858 
L 586.900398 386.74284 
L 590.055777 386.259275 
L 593.211155 387.590075 
L 596.366534 390.712698 
L 602.677291 395.86532 
L 608.988048 399.162414 
L 612.143426 401.187185 
L 615.298805 403.627831 
L 624.76494 408.486005 
L 627.920319 410.059052 
L 631.075697 410.608693 
L 634.231076 411.574132 
L 637.386454 412.997359 
L 640.541833 413.401814 
L 643.697211 413.311396 
L 646.85259 413.084159 
L 650.007968 413.393164 
L 653.163347 414.019514 
L 656.318725 414.03442 
L 662.629482 409.320357 
L 665.784861 406.237221 
L 672.095618 400.656146 
L 675.250996 398.22301 
L 678.406375 396.692148 
L 681.561753 395.420298 
L 684.717131 393.459032 
L 687.87251 390.005008 
L 691.027888 387.081019 
L 694.183267 383.230996 
L 697.338645 379.608709 
L 700.494024 375.143165 
L 706.804781 368.185225 
L 709.960159 365.535186 
L 713.115538 363.65238 
L 716.270916 361.382297 
L 719.426295 357.931021 
L 722.581673 352.143711 
L 728.89243 342.718812 
L 732.047809 339.515744 
L 735.203187 336.591206 
L 738.358566 334.157977 
L 741.513944 331.903256 
L 744.669323 329.253069 
L 750.98008 324.475265 
L 754.135458 322.50105 
L 757.290837 320.695553 
L 760.446215 319.588177 
L 763.601594 318.754743 
L 766.756972 318.093793 
L 773.067729 315.552371 
L 776.223108 314.589361 
L 785.689243 312.286886 
L 788.844622 311.588922 
L 788.844622 311.588922 
" clip-path="url(#p2385e609bc)" style="fill: none; stroke: #000000; stroke-width: 1.5; stroke-linecap: square"/>
   </g>
   <g id="line2d_6">
    <path d="M 0 459 
L 3.155378 459 
L 6.310757 456.393446 
L 9.466135 451.363812 
L 12.621514 446.926349 
L 15.776892 444.306004 
L 18.932271 443.57062 
L 25.243028 441.891157 
L 34.709163 437.942951 
L 37.864542 436.469014 
L 41.01992 435.467785 
L 44.175299 434.916041 
L 50.486056 433.196315 
L 56.796813 432.576308 
L 59.952191 431.968324 
L 63.10757 430.936986 
L 66.262948 429.701363 
L 69.418327 428.678173 
L 72.573705 427.882721 
L 75.729084 426.519766 
L 78.884462 425.487363 
L 82.039841 424.884677 
L 85.195219 424.649772 
L 88.350598 424.58717 
L 91.505976 424.739263 
L 94.661355 425.010875 
L 97.816733 425.572463 
L 100.972112 425.915828 
L 104.12749 425.616422 
L 107.282869 425.575056 
L 113.593625 425.121887 
L 116.749004 425.463606 
L 119.904382 426.002755 
L 123.059761 426.34904 
L 126.215139 424.729804 
L 129.370518 423.629375 
L 135.681275 423.461602 
L 141.992032 424.232079 
L 148.302789 425.319035 
L 154.613546 426.506862 
L 157.768924 427.063458 
L 160.924303 427.768659 
L 167.23506 427.578513 
L 170.390438 427.646823 
L 173.545817 427.370451 
L 183.011952 425.265076 
L 189.322709 424.426886 
L 192.478088 424.465584 
L 198.788845 424.137952 
L 205.099602 423.349119 
L 217.721116 420.315878 
L 220.876494 419.842302 
L 224.031873 419.133197 
L 227.187251 418.273701 
L 233.498008 416.258087 
L 236.653386 415.172336 
L 242.964143 413.16463 
L 249.2749 410.926381 
L 255.585657 407.769982 
L 258.741036 406.185367 
L 261.896414 404.780332 
L 265.051793 403.516435 
L 271.36255 400.479727 
L 277.673307 397.911495 
L 283.984064 395.071976 
L 287.139442 394.213699 
L 290.294821 393.22643 
L 293.450199 392.494177 
L 296.605578 391.893373 
L 299.760956 392.295359 
L 302.916335 393.132252 
L 306.071713 394.140876 
L 309.227092 394.989755 
L 312.38247 395.444043 
L 315.537849 396.038832 
L 318.693227 396.411218 
L 321.848606 396.516899 
L 328.159363 396.458197 
L 331.314741 396.06135 
L 337.625498 395.511437 
L 340.780876 395.098425 
L 347.091633 394.499323 
L 350.247012 393.934726 
L 353.40239 393.25468 
L 362.868526 390.441584 
L 369.179283 388.171334 
L 372.334661 387.344536 
L 378.645418 386.689789 
L 388.111554 386.480978 
L 391.266932 386.780437 
L 394.422311 387.224097 
L 403.888446 389.485807 
L 407.043825 390.64358 
L 410.199203 391.391329 
L 413.354582 391.775921 
L 416.50996 391.98899 
L 419.665339 391.926188 
L 425.976096 391.450472 
L 429.131474 391.372202 
L 432.286853 391.124479 
L 435.442231 391.080313 
L 444.908367 390.300725 
L 457.52988 388.792972 
L 460.685259 388.505601 
L 463.840637 388.366553 
L 466.996016 387.954836 
L 470.151394 387.998832 
L 476.462151 387.528347 
L 482.772908 387.293571 
L 485.928287 386.925246 
L 492.239044 385.753973 
L 495.394422 385.356692 
L 498.549801 385.181244 
L 501.705179 385.177117 
L 504.860558 385.329437 
L 520.63745 384.632777 
L 523.792829 384.071411 
L 530.103586 383.681469 
L 533.258964 383.25689 
L 536.414343 382.66147 
L 545.880478 381.734125 
L 549.035857 381.762863 
L 555.346614 382.24122 
L 558.501992 382.357629 
L 564.812749 383.574274 
L 567.968127 384.226275 
L 571.123506 384.744527 
L 574.278884 384.772453 
L 580.589641 385.393663 
L 586.900398 385.466003 
L 590.055777 385.268231 
L 593.211155 385.985811 
L 596.366534 387.641787 
L 602.677291 390.571298 
L 608.988048 392.722169 
L 612.143426 394.025273 
L 615.298805 395.568868 
L 627.920319 400.306476 
L 631.075697 400.996658 
L 634.231076 401.892249 
L 637.386454 403.024689 
L 640.541833 403.651058 
L 650.007968 404.820908 
L 653.163347 405.500903 
L 656.318725 405.8697 
L 662.629482 404.099871 
L 672.095618 400.138898 
L 675.250996 398.920213 
L 681.561753 397.402241 
L 684.717131 396.318173 
L 687.87251 394.430802 
L 691.027888 392.74408 
L 697.338645 388.357441 
L 700.494024 385.688459 
L 706.804781 381.144339 
L 709.960159 379.217795 
L 713.115538 377.656241 
L 716.270916 375.881578 
L 719.426295 373.47184 
L 722.581673 369.801932 
L 728.89243 363.310721 
L 735.203187 358.311553 
L 754.135458 345.185563 
L 757.290837 343.263053 
L 760.446215 341.712951 
L 769.912351 337.466318 
L 773.067729 335.944984 
L 779.378486 333.297261 
L 788.844622 329.688714 
L 788.844622 329.688714 
" clip-path="url(#p2385e609bc)" style="fill: none; stroke: #000000; stroke-width: 1.5; stroke-linecap: square"/>
   </g>
   <g id="line2d_7">
    <path d="M 0 459 
L 3.155378 459 
L 6.310757 456.421069 
L 9.466135 451.487474 
L 12.621514 447.1561 
L 15.776892 444.595278 
L 22.087649 443.004495 
L 25.243028 442.195377 
L 34.709163 438.469681 
L 37.864542 437.100833 
L 41.01992 436.157661 
L 44.175299 435.6163 
L 50.486056 434.016963 
L 56.796813 433.377965 
L 59.952191 432.816047 
L 63.10757 431.904935 
L 66.262948 430.827132 
L 69.418327 429.924976 
L 72.573705 429.210325 
L 75.729084 428.041231 
L 78.884462 427.13745 
L 82.039841 426.577024 
L 85.195219 426.310135 
L 88.350598 426.182961 
L 94.661355 426.369869 
L 97.816733 426.739339 
L 100.972112 426.949723 
L 104.12749 426.6809 
L 107.282869 426.606202 
L 113.593625 426.187947 
L 116.749004 426.396784 
L 119.904382 426.753369 
L 123.059761 426.975432 
L 126.215139 425.78949 
L 129.370518 424.965596 
L 135.681275 424.752066 
L 145.14741 425.523259 
L 157.768924 427.047694 
L 160.924303 427.522684 
L 167.23506 427.409618 
L 170.390438 427.460108 
L 173.545817 427.283742 
L 186.167331 425.612569 
L 189.322709 425.315671 
L 192.478088 425.314477 
L 198.788845 425.05619 
L 205.099602 424.503008 
L 217.721116 422.442381 
L 220.876494 422.09185 
L 227.187251 421.001638 
L 233.498008 419.619096 
L 249.2749 415.882868 
L 274.517928 407.629502 
L 280.828685 405.584032 
L 283.984064 404.548387 
L 293.450199 402.341592 
L 296.605578 401.752927 
L 299.760956 401.740472 
L 302.916335 401.986972 
L 309.227092 402.627659 
L 321.848606 402.808031 
L 328.159363 402.476183 
L 334.47012 401.821214 
L 347.091633 400.525776 
L 353.40239 399.551353 
L 362.868526 397.541031 
L 372.334661 395.322758 
L 378.645418 394.595369 
L 388.111554 393.943601 
L 394.422311 394.009703 
L 403.888446 394.797474 
L 407.043825 395.304979 
L 410.199203 395.605685 
L 416.50996 395.748358 
L 422.820717 395.410551 
L 432.286853 394.882962 
L 438.59761 394.567415 
L 466.996016 392.264251 
L 470.151394 392.193313 
L 476.462151 391.763103 
L 482.772908 391.455957 
L 489.083665 390.782514 
L 495.394422 390.067194 
L 501.705179 389.772897 
L 504.860558 389.754464 
L 520.63745 388.927769 
L 523.792829 388.545871 
L 530.103586 388.15133 
L 545.880478 386.642437 
L 549.035857 386.553925 
L 558.501992 386.573962 
L 564.812749 387.034037 
L 571.123506 387.500672 
L 574.278884 387.458492 
L 580.589641 387.670348 
L 586.900398 387.614124 
L 590.055777 387.468367 
L 593.211155 387.790962 
L 599.521912 389.340335 
L 602.677291 390.082439 
L 608.988048 391.218119 
L 612.143426 391.917186 
L 615.298805 392.751388 
L 627.920319 395.478595 
L 634.231076 396.499022 
L 637.386454 397.190756 
L 640.541833 397.634377 
L 650.007968 398.617886 
L 653.163347 399.095691 
L 656.318725 399.418835 
L 662.629482 398.782296 
L 675.250996 396.505898 
L 681.561753 395.825258 
L 684.717131 395.306219 
L 691.027888 393.509938 
L 697.338645 391.220815 
L 700.494024 389.800139 
L 709.960159 386.177664 
L 713.115538 385.233569 
L 716.270916 384.166444 
L 719.426295 382.759622 
L 722.581673 380.685404 
L 728.89243 376.864724 
L 735.203187 373.694702 
L 744.669323 369.221155 
L 754.135458 364.708625 
L 757.290837 363.293175 
L 763.601594 360.901293 
L 766.756972 359.798833 
L 773.067729 357.280374 
L 779.378486 354.980444 
L 788.844622 351.695804 
L 788.844622 351.695804 
" clip-path="url(#p2385e609bc)" style="fill: none; stroke: #000000; stroke-width: 1.5; stroke-linecap: square"/>
   </g>
   <g id="line2d_8">
    <path d="M 0 459 
L 3.155378 459 
L 6.310757 456.434884 
L 9.466135 451.549197 
L 12.621514 447.270968 
L 15.776892 444.740626 
L 22.087649 443.150232 
L 25.243028 442.351559 
L 34.709163 438.737782 
L 37.864542 437.421617 
L 41.01992 436.509236 
L 44.175299 435.976274 
L 50.486056 434.440525 
L 56.796813 433.800531 
L 59.952191 433.263579 
L 63.10757 432.411884 
L 66.262948 431.411485 
L 69.418327 430.570771 
L 72.573705 429.899799 
L 75.729084 428.826233 
L 78.884462 427.989484 
L 82.039841 427.457636 
L 85.195219 427.18584 
L 88.350598 427.038606 
L 94.661355 427.1348 
L 97.816733 427.424475 
L 100.972112 427.579857 
L 104.12749 427.327555 
L 110.438247 427.046593 
L 113.593625 426.84473 
L 116.749004 426.99864 
L 123.059761 427.445954 
L 126.215139 426.448609 
L 129.370518 425.748806 
L 135.681275 425.52781 
L 145.14741 426.093666 
L 157.768924 427.267391 
L 160.924303 427.638056 
L 167.23506 427.542901 
L 170.390438 427.579184 
L 173.545817 427.438792 
L 186.167331 426.119599 
L 189.322709 425.880947 
L 195.633466 425.763991 
L 201.944223 425.424487 
L 205.099602 425.204028 
L 217.721116 423.596335 
L 224.031873 422.923577 
L 230.342629 421.942532 
L 246.119522 419.091858 
L 249.2749 418.496681 
L 283.984064 409.761588 
L 296.605578 407.464557 
L 299.760956 407.36015 
L 315.537849 407.686037 
L 321.848606 407.496691 
L 328.159363 407.125208 
L 340.780876 405.945265 
L 347.091633 405.389255 
L 353.40239 404.600427 
L 362.868526 403.054617 
L 372.334661 401.363398 
L 381.800797 400.493149 
L 388.111554 400.029327 
L 394.422311 399.895108 
L 403.888446 400.145433 
L 407.043825 400.387978 
L 410.199203 400.504085 
L 416.50996 400.455797 
L 422.820717 400.112951 
L 451.219124 398.353695 
L 460.685259 397.684656 
L 482.772908 396.443071 
L 489.083665 395.906695 
L 495.394422 395.342893 
L 501.705179 395.028838 
L 508.015936 394.780639 
L 520.63745 394.123174 
L 526.948207 393.646625 
L 533.258964 393.209747 
L 539.569721 392.67154 
L 549.035857 392.111411 
L 561.657371 391.964596 
L 571.123506 392.192477 
L 577.434263 392.110681 
L 583.74502 392.053016 
L 590.055777 391.836239 
L 593.211155 391.965911 
L 602.677291 393.127711 
L 612.143426 394.063755 
L 618.454183 394.860791 
L 631.075697 396.228037 
L 640.541833 397.177689 
L 650.007968 397.746672 
L 656.318725 398.215053 
L 662.629482 397.889339 
L 678.406375 396.453445 
L 681.561753 396.273741 
L 684.717131 395.982499 
L 694.183267 394.326673 
L 697.338645 393.6745 
L 703.649402 392.154001 
L 709.960159 390.75081 
L 716.270916 389.536659 
L 719.426295 388.703204 
L 725.737052 386.377174 
L 728.89243 385.237743 
L 738.358566 382.384751 
L 744.669323 380.496376 
L 757.290837 376.690458 
L 779.378486 370.966245 
L 788.844622 368.606423 
L 788.844622 368.606423 
" clip-path="url(#p2385e609bc)" style="fill: none; stroke: #000000; stroke-width: 1.5; stroke-linecap: square"/>
   </g>
   <g id="line2d_9">
    <path d="M 0 459 
L 3.155378 459 
L 6.310757 456.441792 
L 9.466135 451.580028 
L 12.621514 447.32839 
L 15.776892 444.813457 
L 25.243028 442.430626 
L 34.709163 438.872897 
L 37.864542 437.58305 
L 41.01992 436.686437 
L 44.175299 436.158414 
L 50.486056 434.655159 
L 56.796813 434.016666 
L 59.952191 433.492615 
L 63.10757 432.670345 
L 66.262948 431.708099 
L 69.418327 430.898119 
L 72.573705 430.24957 
L 75.729084 429.22309 
L 78.884462 428.420172 
L 82.039841 427.904128 
L 85.195219 427.63237 
L 88.350598 427.477963 
L 94.661355 427.535655 
L 97.816733 427.789691 
L 100.972112 427.920717 
L 104.12749 427.677158 
L 110.438247 427.397503 
L 113.593625 427.202299 
L 116.749004 427.331993 
L 123.059761 427.720328 
L 126.215139 426.809969 
L 129.370518 426.168249 
L 135.681275 425.947263 
L 145.14741 426.423765 
L 160.924303 427.762544 
L 167.23506 427.673361 
L 170.390438 427.702353 
L 173.545817 427.577122 
L 186.167331 426.414704 
L 189.322709 426.202832 
L 195.633466 426.090052 
L 201.944223 425.786927 
L 205.099602 425.592046 
L 220.876494 423.944922 
L 227.187251 423.205609 
L 239.808765 421.32907 
L 249.2749 419.791027 
L 283.984064 412.339483 
L 296.605578 410.339278 
L 299.760956 410.216895 
L 315.537849 410.29697 
L 321.848606 410.080703 
L 331.314741 409.440675 
L 347.091633 408.167664 
L 353.40239 407.488272 
L 366.023904 405.70673 
L 372.334661 404.776976 
L 381.800797 403.994376 
L 388.111554 403.56306 
L 394.422311 403.38352 
L 403.888446 403.46046 
L 410.199203 403.659937 
L 416.50996 403.55721 
L 429.131474 402.927792 
L 489.083665 399.470294 
L 495.394422 398.997678 
L 501.705179 398.7042 
L 508.015936 398.458917 
L 523.792829 397.616023 
L 533.258964 397.074596 
L 539.569721 396.626792 
L 549.035857 396.128589 
L 561.657371 395.885997 
L 571.123506 395.943168 
L 577.434263 395.822171 
L 586.900398 395.633608 
L 590.055777 395.50843 
L 593.211155 395.566047 
L 602.677291 396.271464 
L 612.143426 396.831148 
L 621.609562 397.554025 
L 637.386454 398.610405 
L 646.85259 398.96591 
L 656.318725 399.397964 
L 662.629482 399.162838 
L 678.406375 398.157171 
L 684.717131 397.820629 
L 694.183267 396.688951 
L 700.494024 395.695897 
L 713.115538 393.848857 
L 716.270916 393.403254 
L 719.426295 392.832927 
L 728.89243 390.48555 
L 757.290837 384.54664 
L 788.844622 378.728342 
L 788.844622 378.728342 
" clip-path="url(#p2385e609bc)" style="fill: none; stroke: #000000; stroke-width: 1.5; stroke-linecap: square"/>
   </g>
  </g>
 </g>
 <defs>
  <clipPath id="p2385e609bc">
   <rect x="0" y="0" width="792" height="612"/>
  </clipPath>
 </defs>
</svg>
