<?xml version="1.0" encoding="utf-8" standalone="no"?>
<!DOCTYPE svg PUBLIC "-//W3C//DTD SVG 1.1//EN"
  "http://www.w3.org/Graphics/SVG/1.1/DTD/svg11.dtd">
<svg xmlns:xlink="http://www.w3.org/1999/xlink" width="792pt" height="612pt" viewBox="0 0 792 612" xmlns="http://www.w3.org/2000/svg" version="1.1">
 <metadata>
  <rdf:RDF xmlns:dc="http://purl.org/dc/elements/1.1/" xmlns:cc="http://creativecommons.org/ns#" xmlns:rdf="http://www.w3.org/1999/02/22-rdf-syntax-ns#">
   <cc:Work>
    <dc:type rdf:resource="http://purl.org/dc/dcmitype/StillImage"/>
    <dc:date>2022-12-26T20:26:52.208754</dc:date>
    <dc:format>image/svg+xml</dc:format>
    <dc:creator>
     <cc:Agent>
      <dc:title>Matplotlib v3.6.2, https://matplotlib.org/</dc:title>
     </cc:Agent>
    </dc:creator>
   </cc:Work>
  </rdf:RDF>
 </metadata>
 <defs>
  <style type="text/css">*{stroke-linejoin: round; stroke-linecap: butt}</style>
 </defs>
 <g id="figure_1">
  <g id="patch_1">
   <path d="M 0 612 
L 792 612 
L 792 0 
L 0 0 
z
" style="fill: #ffffff"/>
  </g>
  <g id="axes_1">
   <g id="line2d_1">
    <path d="M 0 306 
L 12.375 307.186929 
L 24.75 299.270623 
L 37.125 309.466242 
L 49.5 310.05962 
L 61.875 299.203216 
L 74.25 302.520272 
L 86.625 304.920972 
L 99 309.884307 
L 111.375 308.576128 
L 123.75 301.79204 
L 136.125 288.095056 
L 148.5 304.651219 
L 160.875 298.960558 
L 173.25 306.431613 
L 185.625 303.855459 
L 198 307.092515 
L 210.375 311.300215 
L 222.75 306.998101 
L 235.125 299.944723 
L 247.5 293.355553 
L 259.875 307.79387 
L 272.25 297.006161 
L 284.625 305.231191 
L 297 297.127449 
L 309.375 310.666452 
L 321.75 303.693613 
L 334.125 310.113562 
L 346.5 310.221445 
L 358.875 301.738099 
L 371.25 295.241092 
L 383.625 285.300756 
L 396 309.695505 
L 408.375 304.165667 
L 420.75 314.077376 
L 433.125 306 
L 445.5 307.915257 
L 457.875 305.770706 
L 470.25 301.239155 
L 482.625 306.013488 
L 495 304.826558 
L 507.375 307.497145 
L 519.75 306 
L 532.125 310.464178 
L 544.5 307.510633 
L 556.875 306.849736 
L 569.25 300.052585 
L 581.625 306 
L 594 307.200417 
L 606.375 306.809272 
L 618.75 306 
L 631.125 304.853534 
L 643.5 306.25627 
L 655.875 315.330734 
L 668.25 308.52218 
L 680.625 312.095725 
L 693 307.52412 
L 705.375 312.729377 
L 717.75 304.287055 
L 730.125 308.306387 
L 742.5 307.281343 
L 754.875 303.963357 
L 767.25 307.348781 
L 779.625 307.807358 
" clip-path="url(#pbbdc0c5e96)" style="fill: none; stroke: #000000; stroke-width: 1.5; stroke-linecap: square"/>
   </g>
   <g id="line2d_2">
    <path d="M 0 306 
L 12.375 306 
L 24.75 306.791288 
L 37.125 302.493299 
L 49.5 306.21221 
L 61.875 308.198055 
L 74.25 303.628746 
L 86.625 303.070135 
L 99 303.999165 
L 111.375 306.949439 
L 123.75 307.76552 
L 136.125 304.783609 
L 148.5 296.390308 
L 160.875 300.509163 
L 173.25 299.734344 
L 185.625 303.090298 
L 198 303.470785 
L 210.375 305.276151 
L 222.75 308.293746 
L 235.125 307.656139 
L 247.5 303.823354 
L 259.875 298.565134 
L 272.25 303.196182 
L 284.625 300.082089 
L 297 302.6591 
L 309.375 299.873239 
L 321.75 305.268375 
L 334.125 304.474505 
L 346.5 307.314084 
L 358.875 308.800909 
L 371.25 305.257532 
L 383.625 300.244307 
L 396 292.725558 
L 408.375 301.231488 
L 420.75 302.685756 
L 433.125 308.402754 
L 445.5 307.193329 
L 457.875 307.549773 
L 470.25 306.668153 
L 482.625 303.965261 
L 495 305.030038 
L 507.375 304.918751 
L 519.75 306.214484 
L 532.125 306.0914 
L 544.5 308.286659 
L 556.875 307.897856 
L 569.25 307.375915 
L 581.625 303.711596 
L 594 304.855755 
L 606.375 306.032741 
L 618.75 306.419659 
L 631.125 306.209829 
L 643.5 305.520677 
L 655.875 305.886014 
L 668.25 310.626103 
L 680.625 309.59079 
L 693 310.85529 
L 705.375 309.190434 
L 717.75 310.971679 
L 730.125 307.626202 
L 742.5 307.973067 
L 754.875 307.629217 
L 767.25 305.773985 
L 779.625 306.559086 
" clip-path="url(#pbbdc0c5e96)" style="fill: none; stroke: #000000; stroke-width: 1.5; stroke-linecap: square"/>
   </g>
   <g id="line2d_3">
    <path d="M 0 306 
L 12.375 306 
L 24.75 306.695289 
L 37.125 303.330884 
L 49.5 305.726907 
L 61.875 307.268513 
L 74.25 304.568416 
L 86.625 303.910342 
L 99 304.226078 
L 111.375 305.960013 
L 123.75 306.75099 
L 136.125 305.26565 
L 148.5 300.151291 
L 160.875 301.483838 
L 173.25 300.738888 
L 185.625 302.415309 
L 198 302.838759 
L 210.375 304.085857 
L 222.75 306.203756 
L 235.125 306.445292 
L 247.5 304.530162 
L 259.875 301.236267 
L 272.25 303.166628 
L 284.625 301.355473 
L 297 302.490902 
L 309.375 300.904961 
L 321.75 303.766249 
L 334.125 303.747159 
L 346.5 305.637193 
L 358.875 306.986363 
L 371.25 305.452296 
L 383.625 302.447505 
L 396 297.396872 
L 408.375 301.000942 
L 420.75 301.919594 
L 433.125 305.489039 
L 445.5 305.645652 
L 457.875 306.327142 
L 470.25 306.161842 
L 482.625 304.72478 
L 495 305.10313 
L 507.375 305.03097 
L 519.75 305.749656 
L 532.125 305.825629 
L 544.5 307.184719 
L 556.875 307.277063 
L 569.25 307.157774 
L 581.625 305.08203 
L 594 305.374708 
L 606.375 305.906581 
L 618.75 306.17401 
L 631.125 306.113764 
L 643.5 305.743333 
L 655.875 305.891663 
L 668.25 308.668067 
L 680.625 308.633703 
L 693 309.654801 
L 705.375 309.033865 
L 717.75 310.122405 
L 730.125 308.411424 
L 742.5 308.378181 
L 754.875 308.056666 
L 767.25 306.854459 
L 779.625 307.007625 
" clip-path="url(#pbbdc0c5e96)" style="fill: none; stroke: #000000; stroke-width: 1.5; stroke-linecap: square"/>
   </g>
   <g id="line2d_4">
    <path d="M 0 306 
L 12.375 306 
L 24.75 306.644758 
L 37.125 303.75029 
L 49.5 305.569166 
L 61.875 306.801988 
L 74.25 304.931507 
L 86.625 304.385537 
L 99 304.499123 
L 111.375 305.584023 
L 123.75 306.162316 
L 136.125 305.345532 
L 148.5 302.205303 
L 160.875 302.64014 
L 173.25 301.997842 
L 185.625 302.759844 
L 198 302.945777 
L 210.375 303.642098 
L 222.75 304.916924 
L 235.125 305.260825 
L 247.5 304.387614 
L 259.875 302.583957 
L 272.25 303.431548 
L 284.625 302.389588 
L 297 302.848844 
L 309.375 301.926176 
L 321.75 303.332245 
L 334.125 303.390279 
L 346.5 304.468399 
L 358.875 305.389815 
L 371.25 304.805548 
L 383.625 303.276065 
L 396 300.400421 
L 408.375 301.88136 
L 420.75 302.242892 
L 433.125 304.135204 
L 445.5 304.429731 
L 457.875 304.982949 
L 470.25 305.112382 
L 482.625 304.495287 
L 495 304.737517 
L 507.375 304.748528 
L 519.75 305.185167 
L 532.125 305.317435 
L 544.5 306.15032 
L 556.875 306.368536 
L 569.25 306.45002 
L 581.625 305.428067 
L 594 305.520401 
L 606.375 305.787766 
L 618.75 305.947489 
L 631.125 305.955221 
L 643.5 305.783001 
L 655.875 305.866353 
L 668.25 307.377326 
L 680.625 307.566666 
L 693 308.291636 
L 705.375 308.176011 
L 717.75 308.901872 
L 730.125 308.168043 
L 742.5 308.188926 
L 754.875 308.042694 
L 767.25 307.395057 
L 779.625 307.395251 
" clip-path="url(#pbbdc0c5e96)" style="fill: none; stroke: #000000; stroke-width: 1.5; stroke-linecap: square"/>
   </g>
   <g id="line2d_5">
    <path d="M 0 306 
L 12.375 306 
L 24.75 306.619161 
L 37.125 303.954258 
L 49.5 305.516187 
L 61.875 306.58879 
L 74.25 305.076531 
L 86.625 304.609967 
L 99 304.661591 
L 111.375 305.462107 
L 123.75 305.908066 
L 136.125 305.352062 
L 148.5 303.133925 
L 160.875 303.320262 
L 173.25 302.805245 
L 185.625 303.219001 
L 198 303.289431 
L 210.375 303.698936 
L 222.75 304.497768 
L 235.125 304.75484 
L 247.5 304.269825 
L 259.875 303.188083 
L 272.25 303.637068 
L 284.625 302.999676 
L 297 303.211331 
L 309.375 302.640853 
L 321.75 303.385158 
L 334.125 303.413489 
L 346.5 304.023478 
L 358.875 304.583265 
L 371.25 304.32815 
L 383.625 303.518443 
L 396 301.903041 
L 408.375 302.589038 
L 420.75 302.727145 
L 433.125 303.716959 
L 445.5 303.915197 
L 457.875 304.2612 
L 470.25 304.391316 
L 482.625 304.120446 
L 495 304.282626 
L 507.375 304.329101 
L 519.75 304.599128 
L 532.125 304.718264 
L 544.5 305.205949 
L 556.875 305.401185 
L 569.25 305.523685 
L 581.625 305.061674 
L 594 305.140787 
L 606.375 305.314212 
L 618.75 305.439948 
L 631.125 305.486997 
L 643.5 305.433834 
L 655.875 305.502792 
L 668.25 306.326362 
L 680.625 306.510177 
L 693 306.977469 
L 705.375 307.023167 
L 717.75 307.499973 
L 730.125 307.231701 
L 742.5 307.321392 
L 754.875 307.318051 
L 767.25 307.038327 
L 779.625 307.064204 
" clip-path="url(#pbbdc0c5e96)" style="fill: none; stroke: #000000; stroke-width: 1.5; stroke-linecap: square"/>
   </g>
   <g id="line2d_6">
    <path d="M 0 306 
L 12.375 306 
L 24.75 306.60632 
L 37.125 304.054074 
L 49.5 305.496288 
L 61.875 306.489744 
L 74.25 305.139901 
L 86.625 304.715306 
L 99 304.745076 
L 111.375 305.419936 
L 123.75 305.800545 
L 136.125 305.35219 
L 148.5 303.545334 
L 160.875 303.654216 
L 173.25 303.216538 
L 185.625 303.501769 
L 198 303.53176 
L 210.375 303.821396 
L 222.75 304.406974 
L 235.125 304.602813 
L 247.5 304.262006 
L 259.875 303.487487 
L 272.25 303.784614 
L 284.625 303.32888 
L 297 303.453637 
L 309.375 303.048018 
L 321.75 303.525963 
L 334.125 303.536271 
L 346.5 303.933103 
L 358.875 304.305823 
L 371.25 304.156147 
L 383.625 303.64441 
L 396 302.605768 
L 408.375 303.000933 
L 420.75 303.065 
L 433.125 303.663278 
L 445.5 303.788713 
L 457.875 304.007755 
L 470.25 304.100346 
L 482.625 303.951566 
L 495 304.057753 
L 507.375 304.09699 
L 519.75 304.26903 
L 532.125 304.355901 
L 544.5 304.6601 
L 556.875 304.80101 
L 569.25 304.901577 
L 581.625 304.665099 
L 594 304.729779 
L 606.375 304.848768 
L 618.75 304.942647 
L 631.125 304.993002 
L 643.5 304.986394 
L 655.875 305.046258 
L 668.25 305.52893 
L 680.625 305.668741 
L 693 305.967681 
L 705.375 306.039772 
L 717.75 306.348454 
L 730.125 306.253703 
L 742.5 306.347719 
L 754.875 306.390335 
L 767.25 306.279912 
L 779.625 306.328393 
" clip-path="url(#pbbdc0c5e96)" style="fill: none; stroke: #000000; stroke-width: 1.5; stroke-linecap: square"/>
   </g>
   <g id="line2d_7">
    <path d="M 0 306 
L 12.375 306 
L 24.75 306.599894 
L 37.125 304.103353 
L 49.5 305.487967 
L 61.875 306.44238 
L 74.25 305.169392 
L 86.625 304.765898 
L 99 304.786783 
L 111.375 305.403493 
L 123.75 305.752569 
L 136.125 305.35225 
L 148.5 303.734843 
L 160.875 303.814853 
L 173.25 303.417138 
L 185.625 303.649974 
L 198 303.665007 
L 210.375 303.903419 
L 222.75 304.394339 
L 235.125 304.559707 
L 247.5 304.278396 
L 259.875 303.637592 
L 272.25 303.872527 
L 284.625 303.497432 
L 297 303.58907 
L 309.375 303.257835 
L 321.75 303.626501 
L 334.125 303.629749 
L 346.5 303.935268 
L 358.875 304.224059 
L 371.25 304.112579 
L 383.625 303.723696 
L 396 302.932871 
L 408.375 303.216596 
L 420.75 303.255614 
L 433.125 303.691987 
L 445.5 303.783315 
L 457.875 303.943904 
L 470.25 304.013686 
L 482.625 303.909438 
L 495 303.987229 
L 507.375 304.017786 
L 519.75 304.142588 
L 532.125 304.208263 
L 544.5 304.426434 
L 556.875 304.532562 
L 569.25 304.611275 
L 581.625 304.458314 
L 594 304.509416 
L 606.375 304.59758 
L 618.75 304.669229 
L 631.125 304.711873 
L 643.5 304.716365 
L 655.875 304.764695 
L 668.25 305.09313 
L 680.625 305.198673 
L 693 305.409014 
L 705.375 305.472933 
L 717.75 305.690342 
L 730.125 305.64866 
L 742.5 305.726956 
L 754.875 305.772382 
L 767.25 305.719922 
L 779.625 305.766802 
" clip-path="url(#pbbdc0c5e96)" style="fill: none; stroke: #000000; stroke-width: 1.5; stroke-linecap: square"/>
   </g>
   <g id="line2d_8">
    <path d="M 0 306 
L 12.375 306 
L 24.75 306.596681 
L 37.125 304.127824 
L 49.5 305.484209 
L 61.875 306.419267 
L 74.25 305.183605 
L 86.625 304.790639 
L 99 304.807554 
L 111.375 305.396402 
L 123.75 305.730099 
L 136.125 305.35237 
L 148.5 303.825285 
L 160.875 303.893028 
L 173.25 303.515301 
L 185.625 303.724796 
L 198 303.733643 
L 210.375 303.948795 
L 222.75 304.395902 
L 235.125 304.546614 
L 247.5 304.292045 
L 259.875 303.712579 
L 272.25 303.919938 
L 284.625 303.582072 
L 297 303.659679 
L 309.375 303.36294 
L 321.75 303.683507 
L 334.125 303.683936 
L 346.5 303.948703 
L 358.875 304.199389 
L 371.25 304.10381 
L 383.625 303.768906 
L 396 303.088572 
L 408.375 303.325392 
L 420.75 303.354775 
L 433.125 303.720916 
L 445.5 303.796951 
L 457.875 303.93131 
L 470.25 303.990037 
L 482.625 303.904019 
L 495 303.968648 
L 507.375 303.994421 
L 519.75 304.097657 
L 532.125 304.152696 
L 544.5 304.332052 
L 556.875 304.420809 
L 569.25 304.48749 
L 581.625 304.367718 
L 594 304.41109 
L 606.375 304.484052 
L 618.75 304.543953 
L 631.125 304.580909 
L 643.5 304.587729 
L 655.875 304.628882 
L 668.25 304.889288 
L 680.625 304.976483 
L 693 305.14514 
L 705.375 305.200775 
L 717.75 305.374669 
L 730.125 305.349856 
L 742.5 305.416503 
L 754.875 305.458051 
L 767.25 305.425128 
L 779.625 305.467028 
" clip-path="url(#pbbdc0c5e96)" style="fill: none; stroke: #000000; stroke-width: 1.5; stroke-linecap: square"/>
   </g>
   <g id="line2d_9">
    <path d="M 0 306 
L 12.375 306 
L 24.75 306.595074 
L 37.125 304.140017 
L 49.5 305.482429 
L 61.875 306.407856 
L 74.25 305.190582 
L 86.625 304.802866 
L 99 304.817911 
L 111.375 305.393133 
L 123.75 305.719251 
L 136.125 305.352463 
L 148.5 303.869404 
L 160.875 303.931516 
L 173.25 303.563745 
L 185.625 303.76226 
L 198 303.768325 
L 210.375 303.972444 
L 222.75 304.398568 
L 235.125 304.542153 
L 247.5 304.30023 
L 259.875 303.750011 
L 272.25 303.944456 
L 284.625 303.624381 
L 297 303.695581 
L 309.375 303.415344 
L 321.75 303.713516 
L 334.125 303.712726 
L 346.5 303.958429 
L 358.875 304.191168 
L 371.25 304.102811 
L 383.625 303.792983 
L 396 303.164256 
L 408.375 303.379791 
L 420.75 303.405029 
L 433.125 303.738897 
L 445.5 303.807837 
L 457.875 303.930006 
L 470.25 303.983453 
L 482.625 303.905599 
L 495 303.96405 
L 507.375 303.987444 
L 519.75 304.080616 
L 532.125 304.130515 
L 544.5 304.291857 
L 556.875 304.372235 
L 569.25 304.432914 
L 581.625 304.327624 
L 594 304.367081 
L 606.375 304.432736 
L 618.75 304.486843 
L 631.125 304.520706 
L 643.5 304.52803 
L 655.875 304.565439 
L 668.25 304.7948 
L 680.625 304.872951 
L 693 305.022083 
L 705.375 305.072963 
L 717.75 305.226389 
L 730.125 305.20784 
L 742.5 305.268162 
L 754.875 305.306811 
L 767.25 305.28137 
L 779.625 305.319997 
" clip-path="url(#pbbdc0c5e96)" style="fill: none; stroke: #000000; stroke-width: 1.5; stroke-linecap: square"/>
   </g>
  </g>
 </g>
 <defs>
  <clipPath id="pbbdc0c5e96">
   <rect x="0" y="0" width="792" height="612"/>
  </clipPath>
 </defs>
</svg>
