<?xml version="1.0" encoding="utf-8" standalone="no"?>
<!DOCTYPE svg PUBLIC "-//W3C//DTD SVG 1.1//EN"
  "http://www.w3.org/Graphics/SVG/1.1/DTD/svg11.dtd">
<svg xmlns:xlink="http://www.w3.org/1999/xlink" width="792pt" height="612pt" viewBox="0 0 792 612" xmlns="http://www.w3.org/2000/svg" version="1.1">
 <metadata>
  <rdf:RDF xmlns:dc="http://purl.org/dc/elements/1.1/" xmlns:cc="http://creativecommons.org/ns#" xmlns:rdf="http://www.w3.org/1999/02/22-rdf-syntax-ns#">
   <cc:Work>
    <dc:type rdf:resource="http://purl.org/dc/dcmitype/StillImage"/>
    <dc:date>2022-12-19T20:26:47.267992</dc:date>
    <dc:format>image/svg+xml</dc:format>
    <dc:creator>
     <cc:Agent>
      <dc:title>Matplotlib v3.6.2, https://matplotlib.org/</dc:title>
     </cc:Agent>
    </dc:creator>
   </cc:Work>
  </rdf:RDF>
 </metadata>
 <defs>
  <style type="text/css">*{stroke-linejoin: round; stroke-linecap: butt}</style>
 </defs>
 <g id="figure_1">
  <g id="patch_1">
   <path d="M 0 612 
L 792 612 
L 792 0 
L 0 0 
z
" style="fill: #ffffff"/>
  </g>
  <g id="axes_1">
   <g id="line2d_1">
    <path d="M 0 306 
L 41.684211 301.005461 
L 83.368421 303.029026 
L 125.052632 309.459451 
L 166.736842 304.265234 
L 208.421053 302.410956 
L 250.105263 297.926154 
L 291.789474 309.359763 
L 333.473684 301.145005 
L 375.157895 313.436174 
L 416.842105 308.951036 
L 458.526316 297.995896 
L 500.210526 302.929335 
L 541.894737 305.08276 
L 583.578947 313.884544 
L 625.263158 308.622052 
L 666.947368 303.308163 
L 708.631579 302.072026 
L 750.315789 309.599013 
" clip-path="url(#p064f2b51e0)" style="fill: none; stroke: #000000; stroke-width: 1.5; stroke-linecap: square"/>
   </g>
   <g id="line2d_2">
    <path d="M 0 306 
L 41.684211 306 
L 83.368421 302.670143 
L 125.052632 302.875218 
L 166.736842 306.386837 
L 208.421053 305.291808 
L 250.105263 303.82847 
L 291.789474 300.853597 
L 333.473684 305.123188 
L 375.157895 303.124456 
L 416.842105 308.305339 
L 458.526316 308.639802 
L 500.210526 303.294558 
L 541.894737 303.109326 
L 583.578947 304.101262 
L 625.263158 309.024963 
L 666.947368 308.822063 
L 708.631579 306.06936 
L 750.315789 304.048326 
" clip-path="url(#p064f2b51e0)" style="fill: none; stroke: #000000; stroke-width: 1.5; stroke-linecap: square"/>
   </g>
   <g id="line2d_3">
    <path d="M 0 306 
L 41.684211 306 
L 83.368421 303.074096 
L 125.052632 303.053676 
L 166.736842 305.555289 
L 208.421053 305.096298 
L 250.105263 304.197384 
L 291.789474 302.182072 
L 333.473684 304.424442 
L 375.157895 303.419432 
L 416.842105 306.448307 
L 458.526316 307.197925 
L 500.210526 304.459406 
L 541.894737 304.00624 
L 583.578947 304.324025 
L 625.263158 307.140288 
L 666.947368 307.575997 
L 708.631579 306.322875 
L 750.315789 305.078995 
" clip-path="url(#p064f2b51e0)" style="fill: none; stroke: #000000; stroke-width: 1.5; stroke-linecap: square"/>
   </g>
   <g id="line2d_4">
    <path d="M 0 306 
L 41.684211 306 
L 83.368421 303.286729 
L 125.052632 303.185589 
L 166.736842 305.181972 
L 208.421053 304.930299 
L 250.105263 304.310211 
L 291.789474 302.864417 
L 333.473684 304.242289 
L 375.157895 303.618279 
L 416.842105 305.516019 
L 458.526316 306.157986 
L 500.210526 304.673527 
L 541.894737 304.363415 
L 583.578947 304.488961 
L 625.263158 306.10415 
L 666.947368 306.531475 
L 708.631579 305.990175 
L 750.315789 305.337925 
" clip-path="url(#p064f2b51e0)" style="fill: none; stroke: #000000; stroke-width: 1.5; stroke-linecap: square"/>
   </g>
   <g id="line2d_5">
    <path d="M 0 306 
L 41.684211 306 
L 83.368421 303.394444 
L 125.052632 303.261944 
L 166.736842 305.018099 
L 208.421053 304.840372 
L 250.105263 304.342981 
L 291.789474 303.171568 
L 333.473684 304.198734 
L 375.157895 303.730648 
L 416.842105 305.120725 
L 458.526316 305.638111 
L 500.210526 304.656717 
L 541.894737 304.444565 
L 583.578947 304.519942 
L 625.263158 305.588667 
L 666.947368 305.924352 
L 708.631579 305.642628 
L 750.315789 305.267379 
" clip-path="url(#p064f2b51e0)" style="fill: none; stroke: #000000; stroke-width: 1.5; stroke-linecap: square"/>
   </g>
   <g id="line2d_6">
    <path d="M 0 306 
L 41.684211 306 
L 83.368421 303.448479 
L 125.052632 303.302561 
L 166.736842 304.943195 
L 208.421053 304.795606 
L 250.105263 304.353893 
L 291.789474 303.311869 
L 333.473684 304.187292 
L 375.157895 303.787772 
L 416.842105 304.951411 
L 458.526316 305.398751 
L 500.210526 304.624371 
L 541.894737 304.457476 
L 583.578947 304.515771 
L 625.263158 305.347128 
L 666.947368 305.624825 
L 708.631579 305.436371 
L 750.315789 305.172944 
" clip-path="url(#p064f2b51e0)" style="fill: none; stroke: #000000; stroke-width: 1.5; stroke-linecap: square"/>
   </g>
   <g id="line2d_7">
    <path d="M 0 306 
L 41.684211 306 
L 83.368421 303.475518 
L 125.052632 303.323451 
L 166.736842 304.907639 
L 208.421053 304.773531 
L 250.105263 304.358123 
L 291.789474 303.378263 
L 333.473684 304.183831 
L 375.157895 303.816168 
L 416.842105 304.874744 
L 458.526316 305.286744 
L 500.210526 304.604049 
L 541.894737 304.457822 
L 583.578947 304.509013 
L 625.263158 305.233333 
L 666.947368 305.481254 
L 708.631579 305.330087 
L 750.315789 305.113848 
" clip-path="url(#p064f2b51e0)" style="fill: none; stroke: #000000; stroke-width: 1.5; stroke-linecap: square"/>
   </g>
   <g id="line2d_8">
    <path d="M 0 306 
L 41.684211 306 
L 83.368421 303.489041 
L 125.052632 303.334038 
L 166.736842 304.89035 
L 208.421053 304.762603 
L 250.105263 304.359955 
L 291.789474 303.410482 
L 333.473684 304.18262 
L 375.157895 303.830272 
L 416.842105 304.838477 
L 458.526316 305.232924 
L 500.210526 304.593117 
L 541.894737 304.456649 
L 583.578947 304.504587 
L 625.263158 305.178547 
L 666.947368 305.41169 
L 708.631579 305.27694 
L 750.315789 305.082016 
" clip-path="url(#p064f2b51e0)" style="fill: none; stroke: #000000; stroke-width: 1.5; stroke-linecap: square"/>
   </g>
   <g id="line2d_9">
    <path d="M 0 306 
L 41.684211 306 
L 83.368421 303.495802 
L 125.052632 303.339366 
L 166.736842 304.881829 
L 208.421053 304.75717 
L 250.105263 304.360804 
L 291.789474 303.426343 
L 333.473684 304.182139 
L 375.157895 303.837295 
L 416.842105 304.820866 
L 458.526316 305.206589 
L 500.210526 304.587492 
L 541.894737 304.455752 
L 583.578947 304.502131 
L 625.263158 305.151725 
L 666.947368 305.377543 
L 708.631579 305.250467 
L 750.315789 305.065631 
" clip-path="url(#p064f2b51e0)" style="fill: none; stroke: #000000; stroke-width: 1.5; stroke-linecap: square"/>
   </g>
  </g>
 </g>
 <defs>
  <clipPath id="p064f2b51e0">
   <rect x="0" y="0" width="792" height="612"/>
  </clipPath>
 </defs>
</svg>
