<?xml version="1.0" encoding="utf-8" standalone="no"?>
<!DOCTYPE svg PUBLIC "-//W3C//DTD SVG 1.1//EN"
  "http://www.w3.org/Graphics/SVG/1.1/DTD/svg11.dtd">
<svg xmlns:xlink="http://www.w3.org/1999/xlink" width="792pt" height="612pt" viewBox="0 0 792 612" xmlns="http://www.w3.org/2000/svg" version="1.1">
 <metadata>
  <rdf:RDF xmlns:dc="http://purl.org/dc/elements/1.1/" xmlns:cc="http://creativecommons.org/ns#" xmlns:rdf="http://www.w3.org/1999/02/22-rdf-syntax-ns#">
   <cc:Work>
    <dc:type rdf:resource="http://purl.org/dc/dcmitype/StillImage"/>
    <dc:date>2023-01-09T02:27:26.945580</dc:date>
    <dc:format>image/svg+xml</dc:format>
    <dc:creator>
     <cc:Agent>
      <dc:title>Matplotlib v3.6.2, https://matplotlib.org/</dc:title>
     </cc:Agent>
    </dc:creator>
   </cc:Work>
  </rdf:RDF>
 </metadata>
 <defs>
  <style type="text/css">*{stroke-linejoin: round; stroke-linecap: butt}</style>
 </defs>
 <g id="figure_1">
  <g id="patch_1">
   <path d="M 0 612 
L 792 612 
L 792 0 
L 0 0 
z
" style="fill: #ffffff"/>
  </g>
  <g id="axes_1">
   <g id="line2d_1">
    <path d="M 0 306 
L 46.588235 301.419392 
L 93.176471 305.496189 
L 139.764706 311.438722 
L 186.352941 309.974287 
L 232.941176 311.606605 
L 279.529412 308.323085 
L 326.117647 301.783181 
L 372.705882 309.022769 
L 419.294118 303.564964 
L 465.882353 308.798873 
L 512.470588 301.633933 
L 559.058824 310.244804 
L 605.647059 305.953351 
L 652.235294 302.436163 
L 698.823529 309.974287 
L 745.411765 304.078079 
" clip-path="url(#p976112fea7)" style="fill: none; stroke: #000000; stroke-width: 1.5; stroke-linecap: square"/>
   </g>
   <g id="line2d_2">
    <path d="M 0 306 
L 46.588235 306 
L 93.176471 302.946135 
L 139.764706 304.403279 
L 186.352941 308.155779 
L 232.941176 309.094391 
L 279.529412 310.370509 
L 326.117647 309.338774 
L 372.705882 305.546095 
L 419.294118 307.2904 
L 465.882353 305.431868 
L 512.470588 307.12188 
L 559.058824 304.35855 
L 605.647059 307.302328 
L 652.235294 306.616756 
L 698.823529 304.514848 
L 745.411765 307.260728 
" clip-path="url(#p976112fea7)" style="fill: none; stroke: #000000; stroke-width: 1.5; stroke-linecap: square"/>
   </g>
   <g id="line2d_3">
    <path d="M 0 306 
L 46.588235 306 
L 93.176471 303.31661 
L 139.764706 304.304118 
L 186.352941 307.090562 
L 232.941176 308.116607 
L 279.529412 309.284938 
L 326.117647 308.975909 
L 372.705882 306.72874 
L 419.294118 307.431734 
L 465.882353 306.262641 
L 512.470588 307.022291 
L 559.058824 305.418942 
L 605.647059 306.848273 
L 652.235294 306.584093 
L 698.823529 305.362398 
L 745.411765 306.71855 
" clip-path="url(#p976112fea7)" style="fill: none; stroke: #000000; stroke-width: 1.5; stroke-linecap: square"/>
   </g>
   <g id="line2d_4">
    <path d="M 0 306 
L 46.588235 306 
L 93.176471 303.51162 
L 139.764706 304.290477 
L 186.352941 306.565269 
L 232.941176 307.501192 
L 279.529412 308.511724 
L 326.117647 308.469013 
L 372.705882 307.050675 
L 419.294118 307.447973 
L 465.882353 306.697505 
L 512.470588 307.090229 
L 559.058824 306.098046 
L 605.647059 306.835351 
L 652.235294 306.681416 
L 698.823529 305.951721 
L 745.411765 306.63443 
" clip-path="url(#p976112fea7)" style="fill: none; stroke: #000000; stroke-width: 1.5; stroke-linecap: square"/>
   </g>
   <g id="line2d_5">
    <path d="M 0 306 
L 46.588235 306 
L 93.176471 303.610408 
L 139.764706 304.294169 
L 186.352941 306.318841 
L 232.941176 307.181813 
L 279.529412 308.087792 
L 326.117647 308.130736 
L 372.705882 307.077073 
L 419.294118 307.375301 
L 465.882353 306.829632 
L 512.470588 307.095633 
L 559.058824 306.394383 
L 605.647059 306.867297 
L 652.235294 306.759351 
L 698.823529 306.266042 
L 745.411765 306.676425 
" clip-path="url(#p976112fea7)" style="fill: none; stroke: #000000; stroke-width: 1.5; stroke-linecap: square"/>
   </g>
   <g id="line2d_6">
    <path d="M 0 306 
L 46.588235 306 
L 93.176471 303.659965 
L 139.764706 304.298726 
L 186.352941 306.201478 
L 232.941176 307.022836 
L 279.529412 307.871955 
L 326.117647 307.945073 
L 372.705882 307.053109 
L 419.294118 307.311756 
L 465.882353 306.859933 
L 512.470588 307.076797 
L 559.058824 306.50755 
L 605.647059 306.875539 
L 652.235294 306.789562 
L 698.823529 306.403309 
L 745.411765 306.706123 
" clip-path="url(#p976112fea7)" style="fill: none; stroke: #000000; stroke-width: 1.5; stroke-linecap: square"/>
   </g>
   <g id="line2d_7">
    <path d="M 0 306 
L 46.588235 306 
L 93.176471 303.684763 
L 139.764706 304.301685 
L 186.352941 306.144464 
L 232.941176 306.944009 
L 279.529412 307.763883 
L 326.117647 307.849053 
L 372.705882 307.032086 
L 419.294118 307.272923 
L 465.882353 306.864953 
L 512.470588 307.060421 
L 559.058824 306.552397 
L 605.647059 306.87481 
L 652.235294 306.799329 
L 698.823529 306.462294 
L 745.411765 306.719245 
" clip-path="url(#p976112fea7)" style="fill: none; stroke: #000000; stroke-width: 1.5; stroke-linecap: square"/>
   </g>
   <g id="line2d_8">
    <path d="M 0 306 
L 46.588235 306 
L 93.176471 303.697165 
L 139.764706 304.303335 
L 186.352941 306.116398 
L 232.941176 306.904821 
L 279.529412 307.709914 
L 326.117647 307.800382 
L 372.705882 307.019393 
L 419.294118 307.251763 
L 465.882353 306.864855 
L 512.470588 307.050355 
L 559.058824 306.571594 
L 605.647059 306.872893 
L 652.235294 306.802488 
L 698.823529 306.488807 
L 745.411765 306.724803 
" clip-path="url(#p976112fea7)" style="fill: none; stroke: #000000; stroke-width: 1.5; stroke-linecap: square"/>
   </g>
   <g id="line2d_9">
    <path d="M 0 306 
L 46.588235 306 
L 93.176471 303.703366 
L 139.764706 304.304202 
L 186.352941 306.102477 
L 232.941176 306.885291 
L 279.529412 307.682959 
L 326.117647 307.775899 
L 372.705882 307.012515 
L 419.294118 307.240752 
L 465.882353 306.86415 
L 512.470588 307.04484 
L 559.058824 306.580358 
L 605.647059 306.871508 
L 652.235294 306.803592 
L 698.823529 306.501254 
L 745.411765 306.72726 
" clip-path="url(#p976112fea7)" style="fill: none; stroke: #000000; stroke-width: 1.5; stroke-linecap: square"/>
   </g>
  </g>
 </g>
 <defs>
  <clipPath id="p976112fea7">
   <rect x="0" y="0" width="792" height="612"/>
  </clipPath>
 </defs>
</svg>
