<?xml version="1.0" encoding="utf-8" standalone="no"?>
<!DOCTYPE svg PUBLIC "-//W3C//DTD SVG 1.1//EN"
  "http://www.w3.org/Graphics/SVG/1.1/DTD/svg11.dtd">
<svg xmlns:xlink="http://www.w3.org/1999/xlink" width="792pt" height="612pt" viewBox="0 0 792 612" xmlns="http://www.w3.org/2000/svg" version="1.1">
 <metadata>
  <rdf:RDF xmlns:dc="http://purl.org/dc/elements/1.1/" xmlns:cc="http://creativecommons.org/ns#" xmlns:rdf="http://www.w3.org/1999/02/22-rdf-syntax-ns#">
   <cc:Work>
    <dc:type rdf:resource="http://purl.org/dc/dcmitype/StillImage"/>
    <dc:date>2023-01-30T17:15:17.416698</dc:date>
    <dc:format>image/svg+xml</dc:format>
    <dc:creator>
     <cc:Agent>
      <dc:title>Matplotlib v3.6.2, https://matplotlib.org/</dc:title>
     </cc:Agent>
    </dc:creator>
   </cc:Work>
  </rdf:RDF>
 </metadata>
 <defs>
  <style type="text/css">*{stroke-linejoin: round; stroke-linecap: butt}</style>
 </defs>
 <g id="figure_1">
  <g id="patch_1">
   <path d="M 0 612 
L 792 612 
L 792 0 
L 0 0 
z
" style="fill: #ffffff"/>
  </g>
  <g id="axes_1">
   <g id="line2d_1">
    <path d="M 0 306 
L 46.588235 309.657845 
L 93.176471 301.518768 
L 139.764706 310.35677 
L 186.352941 305.95212 
L 232.941176 302.342155 
L 279.529412 310.07912 
L 326.117647 304.027378 
L 372.705882 305.731873 
L 419.294118 303.299648 
L 465.882353 297.986749 
L 512.470588 305.166893 
L 559.058824 304.716828 
L 605.647059 309.5238 
L 652.235294 309.676994 
L 698.823529 318.260246 
L 745.411765 302.054921 
" clip-path="url(#pd7d205a4ae)" style="fill: none; stroke: #000000; stroke-width: 1.5; stroke-linecap: square"/>
   </g>
   <g id="line2d_2">
    <path d="M 0 306 
L 46.588235 306 
L 93.176471 308.438628 
L 139.764706 304.484274 
L 186.352941 307.616408 
L 232.941176 306.757426 
L 279.529412 304.514673 
L 326.117647 307.318912 
L 372.705882 305.666681 
L 419.294118 305.698751 
L 465.882353 304.486709 
L 512.470588 301.229265 
L 559.058824 303.187787 
L 605.647059 303.949873 
L 652.235294 306.75098 
L 698.823529 308.213249 
L 745.411765 313.266604 
" clip-path="url(#pd7d205a4ae)" style="fill: none; stroke: #000000; stroke-width: 1.5; stroke-linecap: square"/>
   </g>
   <g id="line2d_3">
    <path d="M 0 306 
L 46.588235 306 
L 93.176471 308.142783 
L 139.764706 305.141438 
L 186.352941 307.17826 
L 232.941176 306.742016 
L 279.529412 305.269172 
L 326.117647 306.814643 
L 372.705882 305.94384 
L 419.294118 305.878886 
L 465.882353 305.099057 
L 512.470588 302.968387 
L 559.058824 303.622513 
L 605.647059 303.946606 
L 652.235294 305.593015 
L 698.823529 306.79588 
L 745.411765 310.168557 
" clip-path="url(#pd7d205a4ae)" style="fill: none; stroke: #000000; stroke-width: 1.5; stroke-linecap: square"/>
   </g>
   <g id="line2d_4">
    <path d="M 0 306 
L 46.588235 306 
L 93.176471 307.987058 
L 139.764706 305.448378 
L 186.352941 307.010353 
L 232.941176 306.719839 
L 279.529412 305.642361 
L 326.117647 306.646977 
L 372.705882 306.091255 
L 419.294118 306.018856 
L 465.882353 305.493304 
L 512.470588 304.090131 
L 559.058824 304.285918 
L 605.647059 304.36253 
L 652.235294 305.263342 
L 698.823529 306.021983 
L 745.411765 308.100026 
" clip-path="url(#pd7d205a4ae)" style="fill: none; stroke: #000000; stroke-width: 1.5; stroke-linecap: square"/>
   </g>
   <g id="line2d_5">
    <path d="M 0 306 
L 46.588235 306 
L 93.176471 307.908171 
L 139.764706 305.591308 
L 186.352941 306.941758 
L 232.941176 306.708139 
L 279.529412 305.814266 
L 326.117647 306.59269 
L 372.705882 306.166865 
L 419.294118 306.100193 
L 465.882353 305.699125 
L 512.470588 304.657143 
L 559.058824 304.722589 
L 605.647059 304.721881 
L 652.235294 305.289051 
L 698.823529 305.789751 
L 745.411765 307.170472 
" clip-path="url(#pd7d205a4ae)" style="fill: none; stroke: #000000; stroke-width: 1.5; stroke-linecap: square"/>
   </g>
   <g id="line2d_6">
    <path d="M 0 306 
L 46.588235 306 
L 93.176471 307.868598 
L 139.764706 305.659564 
L 186.352941 306.911315 
L 232.941176 306.702506 
L 279.529412 305.894834 
L 326.117647 306.573041 
L 372.705882 306.204549 
L 419.294118 306.142482 
L 465.882353 305.799659 
L 512.470588 304.925633 
L 559.058824 304.950864 
L 605.647059 304.927822 
L 652.235294 305.356324 
L 698.823529 305.739675 
L 745.411765 306.801892 
" clip-path="url(#pd7d205a4ae)" style="fill: none; stroke: #000000; stroke-width: 1.5; stroke-linecap: square"/>
   </g>
   <g id="line2d_7">
    <path d="M 0 306 
L 46.588235 306 
L 93.176471 307.848795 
L 139.764706 305.692826 
L 186.352941 306.897039 
L 232.941176 306.699781 
L 279.529412 305.933592 
L 326.117647 306.565015 
L 372.705882 306.223245 
L 419.294118 306.1638 
L 465.882353 305.848663 
L 512.470588 305.053873 
L 559.058824 305.064453 
L 605.647059 305.034101 
L 652.235294 305.401886 
L 698.823529 305.732121 
L 745.411765 306.649153 
" clip-path="url(#pd7d205a4ae)" style="fill: none; stroke: #000000; stroke-width: 1.5; stroke-linecap: square"/>
   </g>
   <g id="line2d_8">
    <path d="M 0 306 
L 46.588235 306 
L 93.176471 307.838892 
L 139.764706 305.709233 
L 186.352941 306.890133 
L 232.941176 306.698446 
L 279.529412 305.952569 
L 326.117647 306.561437 
L 372.705882 306.23254 
L 419.294118 306.17447 
L 465.882353 305.872769 
L 512.470588 305.116235 
L 559.058824 305.120713 
L 605.647059 305.087586 
L 652.235294 305.427256 
L 698.823529 305.732564 
L 745.411765 306.581185 
" clip-path="url(#pd7d205a4ae)" style="fill: none; stroke: #000000; stroke-width: 1.5; stroke-linecap: square"/>
   </g>
   <g id="line2d_9">
    <path d="M 0 306 
L 46.588235 306 
L 93.176471 307.83394 
L 139.764706 305.71738 
L 186.352941 306.886738 
L 232.941176 306.697785 
L 279.529412 305.961955 
L 326.117647 306.559754 
L 372.705882 306.237172 
L 419.294118 306.179804 
L 465.882353 305.884712 
L 512.470588 305.146949 
L 559.058824 305.148661 
L 605.647059 305.114353 
L 652.235294 305.440529 
L 698.823529 305.733803 
L 745.411765 306.54933 
" clip-path="url(#pd7d205a4ae)" style="fill: none; stroke: #000000; stroke-width: 1.5; stroke-linecap: square"/>
   </g>
  </g>
 </g>
 <defs>
  <clipPath id="pd7d205a4ae">
   <rect x="0" y="0" width="792" height="612"/>
  </clipPath>
 </defs>
</svg>
