<?xml version="1.0" encoding="utf-8" standalone="no"?>
<!DOCTYPE svg PUBLIC "-//W3C//DTD SVG 1.1//EN"
  "http://www.w3.org/Graphics/SVG/1.1/DTD/svg11.dtd">
<svg xmlns:xlink="http://www.w3.org/1999/xlink" width="792pt" height="612pt" viewBox="0 0 792 612" xmlns="http://www.w3.org/2000/svg" version="1.1">
 <metadata>
  <rdf:RDF xmlns:dc="http://purl.org/dc/elements/1.1/" xmlns:cc="http://creativecommons.org/ns#" xmlns:rdf="http://www.w3.org/1999/02/22-rdf-syntax-ns#">
   <cc:Work>
    <dc:type rdf:resource="http://purl.org/dc/dcmitype/StillImage"/>
    <dc:date>2022-12-26T20:25:30.544988</dc:date>
    <dc:format>image/svg+xml</dc:format>
    <dc:creator>
     <cc:Agent>
      <dc:title>Matplotlib v3.6.2, https://matplotlib.org/</dc:title>
     </cc:Agent>
    </dc:creator>
   </cc:Work>
  </rdf:RDF>
 </metadata>
 <defs>
  <style type="text/css">*{stroke-linejoin: round; stroke-linecap: butt}</style>
 </defs>
 <g id="figure_1">
  <g id="patch_1">
   <path d="M 0 612 
L 792 612 
L 792 0 
L 0 0 
z
" style="fill: #ffffff"/>
  </g>
  <g id="axes_1">
   <g id="line2d_1">
    <path d="M 0 459 
L 39.6 460.420043 
L 79.2 451.703706 
L 118.8 447.272809 
L 158.4 445.94968 
L 198 457.330498 
L 237.6 459.705224 
L 277.2 457.229753 
L 316.8 451.55982 
L 356.4 456.754815 
L 396 445.964061 
L 435.6 438.906773 
L 475.2 438.131135 
L 514.8 446.510546 
L 554.4 452.639 
L 594 459.762793 
L 633.6 460.957356 
L 673.2 458.366738 
L 712.8 460.343284 
L 752.4 459.091151 
" clip-path="url(#p3a06a73deb)" style="fill: none; stroke: #000000; stroke-width: 1.5; stroke-linecap: square"/>
   </g>
   <g id="line2d_2">
    <path d="M 0 459 
L 39.6 459 
L 79.2 459.946695 
L 118.8 456.047558 
L 158.4 451.367015 
L 198 448.57061 
L 237.6 453.019528 
L 277.2 457.099317 
L 316.8 457.164791 
L 356.4 454.347544 
L 396 455.538401 
L 435.6 450.739077 
L 475.2 444.804159 
L 514.8 441.45139 
L 554.4 443.959313 
L 594 448.281586 
L 633.6 454.792085 
L 673.2 459.28604 
L 712.8 459.03853 
L 752.4 459.702063 
" clip-path="url(#p3a06a73deb)" style="fill: none; stroke: #000000; stroke-width: 1.5; stroke-linecap: square"/>
   </g>
   <g id="line2d_3">
    <path d="M 0 459 
L 39.6 459 
L 79.2 459.831842 
L 118.8 457.058763 
L 158.4 453.236409 
L 198 450.643353 
L 237.6 452.881521 
L 277.2 455.526905 
L 316.8 456.0589 
L 356.4 454.68012 
L 396 455.307372 
L 435.6 452.508269 
L 475.2 448.458975 
L 514.8 445.39864 
L 554.4 445.726858 
L 594 447.762139 
L 633.6 451.738439 
L 673.2 455.591569 
L 712.8 456.39876 
L 752.4 458.353952 
" clip-path="url(#p3a06a73deb)" style="fill: none; stroke: #000000; stroke-width: 1.5; stroke-linecap: square"/>
   </g>
   <g id="line2d_4">
    <path d="M 0 459 
L 39.6 459 
L 79.2 459.771387 
L 118.8 457.542164 
L 158.4 454.273733 
L 198 451.988001 
L 237.6 453.302777 
L 277.2 455.071627 
L 316.8 455.529436 
L 356.4 454.72968 
L 396 455.121066 
L 435.6 453.409313 
L 475.2 450.770597 
L 514.8 448.521942 
L 554.4 448.170862 
L 594 448.938717 
L 633.6 451.034046 
L 673.2 453.357473 
L 712.8 454.191255 
L 752.4 455.651697 
" clip-path="url(#p3a06a73deb)" style="fill: none; stroke: #000000; stroke-width: 1.5; stroke-linecap: square"/>
   </g>
   <g id="line2d_5">
    <path d="M 0 459 
L 39.6 459 
L 79.2 459.740761 
L 118.8 457.770679 
L 158.4 454.795332 
L 198 452.706653 
L 237.6 453.65321 
L 277.2 455.01509 
L 316.8 455.382696 
L 356.4 454.796714 
L 396 455.07712 
L 435.6 453.845842 
L 475.2 451.926567 
L 514.8 450.231113 
L 554.4 449.791606 
L 594 450.116473 
L 633.6 451.352491 
L 673.2 452.808053 
L 712.8 453.392147 
L 752.4 454.382968 
" clip-path="url(#p3a06a73deb)" style="fill: none; stroke: #000000; stroke-width: 1.5; stroke-linecap: square"/>
   </g>
   <g id="line2d_6">
    <path d="M 0 459 
L 39.6 459 
L 79.2 459.725399 
L 118.8 457.880755 
L 158.4 455.053445 
L 198 453.071109 
L 237.6 453.859994 
L 277.2 455.035877 
L 316.8 455.353435 
L 356.4 454.855251 
L 396 455.084312 
L 435.6 454.063983 
L 475.2 452.477753 
L 514.8 451.064187 
L 554.4 450.639563 
L 594 450.816945 
L 633.6 451.704674 
L 673.2 452.775589 
L 712.8 453.213304 
L 752.4 453.955178 
" clip-path="url(#p3a06a73deb)" style="fill: none; stroke: #000000; stroke-width: 1.5; stroke-linecap: square"/>
   </g>
   <g id="line2d_7">
    <path d="M 0 459 
L 39.6 459 
L 79.2 459.717711 
L 118.8 457.934648 
L 158.4 455.181396 
L 198 453.253709 
L 237.6 453.970445 
L 277.2 455.05863 
L 316.8 455.351027 
L 356.4 454.892336 
L 396 455.09725 
L 435.6 454.173892 
L 475.2 452.743686 
L 514.8 451.4669 
L 554.4 451.060817 
L 594 451.182715 
L 633.6 451.921901 
L 673.2 452.822579 
L 712.8 453.190488 
L 752.4 453.81534 
" clip-path="url(#p3a06a73deb)" style="fill: none; stroke: #000000; stroke-width: 1.5; stroke-linecap: square"/>
   </g>
   <g id="line2d_8">
    <path d="M 0 459 
L 39.6 459 
L 79.2 459.713866 
L 118.8 457.961296 
L 158.4 455.245042 
L 198 453.344985 
L 237.6 454.027308 
L 277.2 455.073057 
L 316.8 455.352966 
L 356.4 454.912982 
L 396 455.106265 
L 435.6 454.229174 
L 475.2 452.873955 
L 514.8 451.663853 
L 554.4 451.269208 
L 594 451.367607 
L 633.6 452.039163 
L 673.2 452.861071 
L 712.8 453.195873 
L 752.4 453.765375 
" clip-path="url(#p3a06a73deb)" style="fill: none; stroke: #000000; stroke-width: 1.5; stroke-linecap: square"/>
   </g>
   <g id="line2d_9">
    <path d="M 0 459 
L 39.6 459 
L 79.2 459.711944 
L 118.8 457.974544 
L 158.4 455.276776 
L 198 453.390602 
L 237.6 454.056131 
L 277.2 455.081026 
L 316.8 455.354728 
L 356.4 454.923845 
L 396 455.111431 
L 435.6 454.256911 
L 475.2 452.938387 
L 514.8 451.761125 
L 554.4 451.372658 
L 594 451.460315 
L 633.6 452.099716 
L 673.2 452.883893 
L 712.8 453.202685 
L 752.4 453.745436 
" clip-path="url(#p3a06a73deb)" style="fill: none; stroke: #000000; stroke-width: 1.5; stroke-linecap: square"/>
   </g>
  </g>
 </g>
 <defs>
  <clipPath id="p3a06a73deb">
   <rect x="0" y="0" width="792" height="612"/>
  </clipPath>
 </defs>
</svg>
