<?xml version="1.0" encoding="utf-8" standalone="no"?>
<!DOCTYPE svg PUBLIC "-//W3C//DTD SVG 1.1//EN"
  "http://www.w3.org/Graphics/SVG/1.1/DTD/svg11.dtd">
<svg xmlns:xlink="http://www.w3.org/1999/xlink" width="792pt" height="612pt" viewBox="0 0 792 612" xmlns="http://www.w3.org/2000/svg" version="1.1">
 <metadata>
  <rdf:RDF xmlns:dc="http://purl.org/dc/elements/1.1/" xmlns:cc="http://creativecommons.org/ns#" xmlns:rdf="http://www.w3.org/1999/02/22-rdf-syntax-ns#">
   <cc:Work>
    <dc:type rdf:resource="http://purl.org/dc/dcmitype/StillImage"/>
    <dc:date>2022-12-19T20:26:46.260772</dc:date>
    <dc:format>image/svg+xml</dc:format>
    <dc:creator>
     <cc:Agent>
      <dc:title>Matplotlib v3.6.2, https://matplotlib.org/</dc:title>
     </cc:Agent>
    </dc:creator>
   </cc:Work>
  </rdf:RDF>
 </metadata>
 <defs>
  <style type="text/css">*{stroke-linejoin: round; stroke-linecap: butt}</style>
 </defs>
 <g id="figure_1">
  <g id="patch_1">
   <path d="M 0 612 
L 792 612 
L 792 0 
L 0 0 
z
" style="fill: #ffffff"/>
  </g>
  <g id="axes_1">
   <g id="line2d_1">
    <path d="M 0 459 
L 41.684211 451.508192 
L 83.368421 447.053624 
L 125.052632 452.240812 
L 166.736842 449.639445 
L 208.421053 444.259404 
L 250.105263 432.171369 
L 291.789474 437.197021 
L 333.473684 429.936433 
L 375.157895 441.063094 
L 416.842105 445.484555 
L 458.526316 433.498041 
L 500.210526 428.908821 
L 541.894737 427.539144 
L 583.578947 439.331223 
L 625.263158 443.258522 
L 666.947368 439.226731 
L 708.631579 433.348955 
L 750.315789 438.734154 
" clip-path="url(#p7df18d3bf3)" style="fill: none; stroke: #000000; stroke-width: 1.5; stroke-linecap: square"/>
   </g>
   <g id="line2d_2">
    <path d="M 0 459 
L 41.684211 459 
L 83.368421 454.005215 
L 125.052632 450.032392 
L 166.736842 451.210171 
L 208.421053 450.399448 
L 250.105263 447.280173 
L 291.789474 439.661051 
L 333.473684 438.424056 
L 375.157895 434.12122 
L 416.842105 437.570478 
L 458.526316 441.523141 
L 500.210526 437.472225 
L 541.894737 433.147668 
L 583.578947 430.309589 
L 625.263158 434.8321 
L 666.947368 439.055509 
L 708.631579 439.159354 
L 750.315789 436.238118 
" clip-path="url(#p7df18d3bf3)" style="fill: none; stroke: #000000; stroke-width: 1.5; stroke-linecap: square"/>
   </g>
   <g id="line2d_3">
    <path d="M 0 459 
L 41.684211 459 
L 83.368421 454.611144 
L 125.052632 451.186428 
L 166.736842 451.598181 
L 208.421053 450.901251 
L 250.105263 448.677476 
L 291.789474 443.36923 
L 333.473684 441.440199 
L 375.157895 437.91201 
L 416.842105 438.864517 
L 458.526316 440.84654 
L 500.210526 438.658905 
L 541.894737 435.76895 
L 583.578947 433.337718 
L 625.263158 435.102107 
L 666.947368 437.499096 
L 708.631579 437.982369 
L 750.315789 436.603949 
" clip-path="url(#p7df18d3bf3)" style="fill: none; stroke: #000000; stroke-width: 1.5; stroke-linecap: square"/>
   </g>
   <g id="line2d_4">
    <path d="M 0 459 
L 41.684211 459 
L 83.368421 454.930093 
L 125.052632 451.838318 
L 166.736842 451.966393 
L 208.421053 451.327538 
L 250.105263 449.58746 
L 291.789474 445.639964 
L 333.473684 443.847944 
L 375.157895 441.042343 
L 416.842105 441.046353 
L 458.526316 441.875552 
L 500.210526 440.351232 
L 541.894737 438.314758 
L 583.578947 436.432106 
L 625.263158 436.93028 
L 666.947368 438.003723 
L 708.631579 438.209081 
L 750.315789 437.39971 
" clip-path="url(#p7df18d3bf3)" style="fill: none; stroke: #000000; stroke-width: 1.5; stroke-linecap: square"/>
   </g>
   <g id="line2d_5">
    <path d="M 0 459 
L 41.684211 459 
L 83.368421 455.091666 
L 125.052632 452.176579 
L 166.736842 452.19478 
L 208.421053 451.59151 
L 250.105263 450.089993 
L 291.789474 446.816015 
L 333.473684 445.218371 
L 375.157895 442.873257 
L 416.842105 442.613996 
L 458.526316 443.001665 
L 500.210526 441.780573 
L 541.894737 440.197878 
L 583.578947 438.700881 
L 625.263158 438.772801 
L 666.947368 439.269022 
L 708.631579 439.264468 
L 750.315789 438.642475 
" clip-path="url(#p7df18d3bf3)" style="fill: none; stroke: #000000; stroke-width: 1.5; stroke-linecap: square"/>
   </g>
   <g id="line2d_6">
    <path d="M 0 459 
L 41.684211 459 
L 83.368421 455.172718 
L 125.052632 452.347769 
L 166.736842 452.319268 
L 208.421053 451.735844 
L 250.105263 450.35062 
L 291.789474 447.400867 
L 333.473684 445.922896 
L 375.157895 443.821045 
L 416.842105 443.488404 
L 458.526316 443.711633 
L 500.210526 442.642601 
L 541.894737 441.288691 
L 583.578947 440.005069 
L 625.263158 439.945281 
L 666.947368 440.22615 
L 708.631579 440.144846 
L 750.315789 439.612422 
" clip-path="url(#p7df18d3bf3)" style="fill: none; stroke: #000000; stroke-width: 1.5; stroke-linecap: square"/>
   </g>
   <g id="line2d_7">
    <path d="M 0 459 
L 41.684211 459 
L 83.368421 455.213277 
L 125.052632 452.433742 
L 166.736842 452.383931 
L 208.421053 451.810955 
L 250.105263 450.482839 
L 291.789474 447.690696 
L 333.473684 446.276485 
L 375.157895 444.29715 
L 416.842105 443.941245 
L 458.526316 444.097213 
L 500.210526 443.104122 
L 541.894737 441.863092 
L 583.578947 440.688104 
L 625.263158 440.583283 
L 666.947368 440.778962 
L 708.631579 440.670973 
L 750.315789 440.184705 
" clip-path="url(#p7df18d3bf3)" style="fill: none; stroke: #000000; stroke-width: 1.5; stroke-linecap: square"/>
   </g>
   <g id="line2d_8">
    <path d="M 0 459 
L 41.684211 459 
L 83.368421 455.233561 
L 125.052632 452.476806 
L 166.736842 452.416845 
L 208.421053 451.849222 
L 250.105263 450.549364 
L 291.789474 447.83474 
L 333.473684 446.453156 
L 375.157895 444.534974 
L 416.842105 444.170538 
L 458.526316 444.296557 
L 500.210526 443.341284 
L 541.894737 442.15597 
L 583.578947 441.03524 
L 625.263158 440.912809 
L 666.947368 441.071595 
L 708.631579 440.9534 
L 750.315789 440.490597 
" clip-path="url(#p7df18d3bf3)" style="fill: none; stroke: #000000; stroke-width: 1.5; stroke-linecap: square"/>
   </g>
   <g id="line2d_9">
    <path d="M 0 459 
L 41.684211 459 
L 83.368421 455.243704 
L 125.052632 452.498355 
L 166.736842 452.433445 
L 208.421053 451.86853 
L 250.105263 450.582722 
L 291.789474 447.906517 
L 333.473684 446.541404 
L 375.157895 444.653732 
L 416.842105 444.285767 
L 458.526316 444.397714 
L 500.210526 443.461289 
L 541.894737 442.303605 
L 583.578947 441.209916 
L 625.263158 441.079847 
L 666.947368 441.22159 
L 708.631579 441.099073 
L 750.315789 440.648084 
" clip-path="url(#p7df18d3bf3)" style="fill: none; stroke: #000000; stroke-width: 1.5; stroke-linecap: square"/>
   </g>
  </g>
 </g>
 <defs>
  <clipPath id="p7df18d3bf3">
   <rect x="0" y="0" width="792" height="612"/>
  </clipPath>
 </defs>
</svg>
