<?xml version="1.0" encoding="utf-8" standalone="no"?>
<!DOCTYPE svg PUBLIC "-//W3C//DTD SVG 1.1//EN"
  "http://www.w3.org/Graphics/SVG/1.1/DTD/svg11.dtd">
<svg xmlns:xlink="http://www.w3.org/1999/xlink" width="792pt" height="612pt" viewBox="0 0 792 612" xmlns="http://www.w3.org/2000/svg" version="1.1">
 <metadata>
  <rdf:RDF xmlns:dc="http://purl.org/dc/elements/1.1/" xmlns:cc="http://creativecommons.org/ns#" xmlns:rdf="http://www.w3.org/1999/02/22-rdf-syntax-ns#">
   <cc:Work>
    <dc:type rdf:resource="http://purl.org/dc/dcmitype/StillImage"/>
    <dc:date>2023-01-16T16:09:53.402515</dc:date>
    <dc:format>image/svg+xml</dc:format>
    <dc:creator>
     <cc:Agent>
      <dc:title>Matplotlib v3.6.2, https://matplotlib.org/</dc:title>
     </cc:Agent>
    </dc:creator>
   </cc:Work>
  </rdf:RDF>
 </metadata>
 <defs>
  <style type="text/css">*{stroke-linejoin: round; stroke-linecap: butt}</style>
 </defs>
 <g id="figure_1">
  <g id="patch_1">
   <path d="M 0 612 
L 792 612 
L 792 0 
L 0 0 
z
" style="fill: #ffffff"/>
  </g>
  <g id="axes_1">
   <g id="line2d_1">
    <path d="M 0 459 
L 46.588235 460.200548 
L 93.176471 456.063759 
L 139.764706 459.583399 
L 186.352941 456.974992 
L 232.941176 459.771437 
L 279.529412 454.545093 
L 326.117647 459.708757 
L 372.705882 459.68465 
L 419.294118 455.528601 
L 465.882353 459.896795 
L 512.470588 458.710711 
L 559.058824 458.305708 
L 605.647059 454.226908 
L 652.235294 442.127607 
L 698.823529 440.871031 
L 745.411765 438.936154 
" clip-path="url(#p56f5c02138)" style="fill: none; stroke: #000000; stroke-width: 1.5; stroke-linecap: square"/>
   </g>
   <g id="line2d_2">
    <path d="M 0 459 
L 46.588235 459 
L 93.176471 459.800366 
L 139.764706 458.351167 
L 186.352941 459.210216 
L 232.941176 458.259981 
L 279.529412 459.270462 
L 326.117647 457.157446 
L 372.705882 459.049879 
L 419.294118 459.368607 
L 465.882353 457.803312 
L 512.470588 459.252627 
L 559.058824 459.076766 
L 605.647059 458.770611 
L 652.235294 456.484801 
L 698.823529 449.27948 
L 745.411765 445.034388 
" clip-path="url(#p56f5c02138)" style="fill: none; stroke: #000000; stroke-width: 1.5; stroke-linecap: square"/>
   </g>
   <g id="line2d_3">
    <path d="M 0 459 
L 46.588235 459 
L 93.176471 459.703265 
L 139.764706 458.82351 
L 186.352941 459.191976 
L 232.941176 458.650541 
L 279.529412 459.180733 
L 326.117647 457.936627 
L 372.705882 458.933133 
L 419.294118 459.194342 
L 465.882353 458.357187 
L 512.470588 459.118506 
L 559.058824 459.054554 
L 605.647059 458.909565 
L 652.235294 457.527201 
L 698.823529 452.989809 
L 745.411765 449.424754 
" clip-path="url(#p56f5c02138)" style="fill: none; stroke: #000000; stroke-width: 1.5; stroke-linecap: square"/>
   </g>
   <g id="line2d_4">
    <path d="M 0 459 
L 46.588235 459 
L 93.176471 459.652154 
L 139.764706 459.012079 
L 186.352941 459.193877 
L 232.941176 458.86603 
L 279.529412 459.1562 
L 326.117647 458.353799 
L 372.705882 458.941946 
L 419.294118 459.122473 
L 465.882353 458.625481 
L 512.470588 459.066087 
L 559.058824 459.036537 
L 605.647059 458.966682 
L 652.235294 458.139421 
L 698.823529 455.3861 
L 745.411765 452.921433 
" clip-path="url(#p56f5c02138)" style="fill: none; stroke: #000000; stroke-width: 1.5; stroke-linecap: square"/>
   </g>
   <g id="line2d_5">
    <path d="M 0 459 
L 46.588235 459 
L 93.176471 459.626263 
L 139.764706 459.04429 
L 186.352941 459.197055 
L 232.941176 458.973574 
L 279.529412 459.150929 
L 326.117647 458.557057 
L 372.705882 458.983525 
L 419.294118 459.100287 
L 465.882353 458.760638 
L 512.470588 459.052124 
L 559.058824 459.033051 
L 605.647059 459.000569 
L 652.235294 458.437734 
L 698.823529 456.575843 
L 745.411765 454.836978 
" clip-path="url(#p56f5c02138)" style="fill: none; stroke: #000000; stroke-width: 1.5; stroke-linecap: square"/>
   </g>
   <g id="line2d_6">
    <path d="M 0 459 
L 46.588235 459 
L 93.176471 459.613275 
L 139.764706 459.059448 
L 186.352941 459.199066 
L 232.941176 459.008787 
L 279.529412 459.150048 
L 326.117647 458.655134 
L 372.705882 459.004278 
L 419.294118 459.093619 
L 465.882353 458.828367 
L 512.470588 459.049489 
L 559.058824 459.034228 
L 605.647059 459.008072 
L 652.235294 458.576939 
L 698.823529 457.116866 
L 745.411765 455.738571 
" clip-path="url(#p56f5c02138)" style="fill: none; stroke: #000000; stroke-width: 1.5; stroke-linecap: square"/>
   </g>
   <g id="line2d_7">
    <path d="M 0 459 
L 46.588235 459 
L 93.176471 459.606775 
L 139.764706 459.066775 
L 186.352941 459.200157 
L 232.941176 459.017461 
L 279.529412 459.150025 
L 326.117647 458.702998 
L 372.705882 459.009787 
L 419.294118 459.091431 
L 465.882353 458.862165 
L 512.470588 459.049338 
L 559.058824 459.035692 
L 605.647059 459.012369 
L 652.235294 458.643065 
L 698.823529 457.366782 
L 745.411765 456.1593 
" clip-path="url(#p56f5c02138)" style="fill: none; stroke: #000000; stroke-width: 1.5; stroke-linecap: square"/>
   </g>
   <g id="line2d_8">
    <path d="M 0 459 
L 46.588235 459 
L 93.176471 459.603525 
L 139.764706 459.070374 
L 186.352941 459.200721 
L 232.941176 459.021761 
L 279.529412 459.150115 
L 326.117647 458.726601 
L 372.705882 459.012684 
L 419.294118 459.090622 
L 465.882353 458.879028 
L 512.470588 459.049556 
L 559.058824 459.036653 
L 605.647059 459.014665 
L 652.235294 458.67516 
L 698.823529 457.485864 
L 745.411765 456.360355 
" clip-path="url(#p56f5c02138)" style="fill: none; stroke: #000000; stroke-width: 1.5; stroke-linecap: square"/>
   </g>
   <g id="line2d_9">
    <path d="M 0 459 
L 46.588235 459 
L 93.176471 459.601899 
L 139.764706 459.072157 
L 186.352941 459.201008 
L 232.941176 459.023902 
L 279.529412 459.150184 
L 326.117647 458.738316 
L 372.705882 459.014166 
L 419.294118 459.090288 
L 465.882353 458.887446 
L 512.470588 459.049738 
L 559.058824 459.037191 
L 605.647059 459.01585 
L 652.235294 458.690955 
L 698.823529 457.543863 
L 745.411765 456.458364 
" clip-path="url(#p56f5c02138)" style="fill: none; stroke: #000000; stroke-width: 1.5; stroke-linecap: square"/>
   </g>
  </g>
 </g>
 <defs>
  <clipPath id="p56f5c02138">
   <rect x="0" y="0" width="792" height="612"/>
  </clipPath>
 </defs>
</svg>
