<?xml version="1.0" encoding="utf-8" standalone="no"?>
<!DOCTYPE svg PUBLIC "-//W3C//DTD SVG 1.1//EN"
  "http://www.w3.org/Graphics/SVG/1.1/DTD/svg11.dtd">
<svg xmlns:xlink="http://www.w3.org/1999/xlink" width="792pt" height="612pt" viewBox="0 0 792 612" xmlns="http://www.w3.org/2000/svg" version="1.1">
 <metadata>
  <rdf:RDF xmlns:dc="http://purl.org/dc/elements/1.1/" xmlns:cc="http://creativecommons.org/ns#" xmlns:rdf="http://www.w3.org/1999/02/22-rdf-syntax-ns#">
   <cc:Work>
    <dc:type rdf:resource="http://purl.org/dc/dcmitype/StillImage"/>
    <dc:date>2023-01-09T02:29:32.053283</dc:date>
    <dc:format>image/svg+xml</dc:format>
    <dc:creator>
     <cc:Agent>
      <dc:title>Matplotlib v3.6.2, https://matplotlib.org/</dc:title>
     </cc:Agent>
    </dc:creator>
   </cc:Work>
  </rdf:RDF>
 </metadata>
 <defs>
  <style type="text/css">*{stroke-linejoin: round; stroke-linecap: butt}</style>
 </defs>
 <g id="figure_1">
  <g id="patch_1">
   <path d="M 0 612 
L 792 612 
L 792 0 
L 0 0 
z
" style="fill: #ffffff"/>
  </g>
  <g id="axes_1">
   <g id="line2d_1">
    <path d="M 0 306 
L 3.180723 306.623909 
L 6.361446 303.843994 
L 9.542169 307.911192 
L 12.722892 317.824698 
L 15.903614 310.169669 
L 19.084337 311.551396 
L 22.26506 313.982651 
L 25.445783 306.379084 
L 28.626506 294.388224 
L 31.807229 309.814338 
L 34.987952 307.342582 
L 38.168675 306.671294 
L 41.349398 298.017349 
L 44.53012 305.652506 
L 47.710843 304.641624 
L 50.891566 302.027736 
L 54.072289 313.043405 
L 57.253012 310.059123 
L 60.433735 307.832219 
L 63.614458 302.770006 
L 66.795181 303.68605 
L 69.975904 313.327562 
L 73.156627 309.790649 
L 76.337349 304.99701 
L 79.518072 304.657418 
L 82.698795 308.50348 
L 89.060241 306.84504 
L 92.240964 330.194988 
L 95.421687 312.096132 
L 98.60241 302.217247 
L 101.783133 303.306992 
L 104.963855 306.647601 
L 108.144578 302.509417 
L 111.325301 300.377549 
L 114.506024 308.377127 
L 117.686747 306.078976 
L 120.86747 307.176735 
L 124.048193 310.761862 
L 127.228916 305.636711 
L 130.409639 305.415579 
L 133.590361 306.90822 
L 136.771084 304.760085 
L 139.951807 297.962103 
L 143.13253 304.128295 
L 146.313253 301.696098 
L 149.493976 302.541003 
L 152.674699 314.976983 
L 155.855422 305.715687 
L 159.036145 316.01057 
L 162.216867 307.00299 
L 165.39759 310.027538 
L 168.578313 303.15695 
L 171.759036 303.291198 
L 174.939759 313.303883 
L 178.120482 313.209165 
L 181.301205 303.978247 
L 184.481928 303.085878 
L 187.662651 306.568626 
L 190.843373 310.990834 
L 194.024096 302.675246 
L 197.204819 299.39864 
L 200.385542 309.466893 
L 203.566265 306.339596 
L 206.746988 302.738419 
L 209.927711 310.659218 
L 213.108434 309.403721 
L 216.289157 300.006496 
L 219.46988 300.203863 
L 222.650602 309.774856 
L 225.831325 314.093141 
L 229.012048 302.185662 
L 232.192771 309.932783 
L 235.373494 304.704803 
L 238.554217 297.977888 
L 241.73494 314.969092 
L 244.915663 300.811781 
L 248.096386 307.587401 
L 251.277108 297.827939 
L 254.457831 318.786645 
L 257.638554 309.790649 
L 260.819277 303.851891 
L 264 310.63553 
L 267.180723 312.475057 
L 270.361446 300.685457 
L 273.542169 300.993375 
L 276.722892 306.03159 
L 279.903614 302.08301 
L 283.084337 318.447626 
L 286.26506 303.962452 
L 289.445783 306.450162 
L 292.626506 306.916118 
L 295.807229 304.507367 
L 302.168675 298.70401 
L 305.349398 301.538178 
L 308.53012 310.509197 
L 311.710843 310.390758 
L 314.891566 299.146039 
L 318.072289 306.623909 
L 321.253012 306.93981 
L 324.433735 307.674272 
L 327.614458 309.348444 
L 330.795181 304.159884 
L 333.975904 314.38514 
L 337.156627 310.80134 
L 340.337349 309.545859 
L 343.518072 305.162858 
L 346.698795 310.951356 
L 349.879518 308.156006 
L 356.240964 306.173747 
L 359.421687 300.914421 
L 362.60241 300.014391 
L 365.783133 306.244825 
L 368.963855 315.900121 
L 372.144578 303.062187 
L 375.325301 305.684097 
L 378.506024 302.201455 
L 381.686747 302.327797 
L 384.86747 306.118464 
L 388.048193 303.543902 
L 391.228916 306.173747 
L 394.409639 306.063181 
L 397.590361 307.00299 
L 400.771084 304.373112 
L 403.951807 304.183576 
L 407.13253 303.68605 
L 410.313253 305.494555 
L 413.493976 300.645981 
L 416.674699 304.049322 
L 419.855422 303.867685 
L 423.036145 304.74429 
L 426.216867 306.347494 
L 429.39759 312.293491 
L 432.578313 305.423477 
L 435.759036 305.431374 
L 438.939759 304.96542 
L 442.120482 302.14618 
L 445.301205 310.035434 
L 448.481928 301.530282 
L 451.662651 305.368194 
L 454.843373 304.009836 
L 458.024096 304.19937 
L 461.204819 311.338229 
L 464.385542 300.969689 
L 467.566265 306.702884 
L 470.746988 302.683142 
L 473.927711 306.221132 
L 477.108434 295.918428 
L 480.289157 307.279402 
L 483.46988 306.434367 
L 486.650602 309.072059 
L 489.831325 313.193378 
L 493.012048 310.193357 
L 496.192771 305.044395 
L 499.373494 304.681111 
L 502.554217 315.221591 
L 505.73494 307.405761 
L 512.096386 309.695892 
L 515.277108 302.090906 
L 518.457831 307.16094 
L 521.638554 307.863808 
L 524.819277 299.738086 
L 528 304.080911 
L 531.180723 306.102669 
L 534.361446 307.761143 
L 537.542169 321.473963 
L 540.722892 307.25571 
L 543.903614 309.790649 
L 547.084337 302.50152 
L 550.26506 302.485727 
L 553.445783 310.935565 
L 556.626506 308.053342 
L 559.807229 307.919089 
L 562.987952 304.578444 
L 566.168675 309.443204 
L 569.349398 304.333625 
L 572.53012 295.342567 
L 575.710843 309.048369 
L 578.891566 307.8875 
L 582.072289 299.87229 
L 585.253012 301.372365 
L 588.433735 305.77097 
L 591.614458 305.57353 
L 594.795181 310.793445 
L 597.975904 307.46894 
L 601.156627 305.660404 
L 604.337349 307.871705 
L 607.518072 304.175678 
L 610.698795 311.053998 
L 613.879518 302.185662 
L 617.060241 302.999012 
L 620.240964 313.556457 
L 623.421687 310.761862 
L 626.60241 301.206555 
L 629.783133 299.895973 
L 632.963855 300.472289 
L 636.144578 306.086873 
L 639.325301 305.281321 
L 642.506024 300.006496 
L 645.686747 307.990164 
L 648.86747 306.055283 
L 652.048193 311.788243 
L 655.228916 311.709295 
L 658.409639 304.001938 
L 661.590361 301.07233 
L 667.951807 309.466893 
L 671.13253 286.322705 
L 674.313253 303.441241 
L 677.493976 312.332962 
L 680.674699 302.043528 
L 683.855422 303.646565 
L 687.036145 308.74039 
L 690.216867 304.625829 
L 693.39759 303.15695 
L 696.578313 299.603884 
L 699.759036 308.661421 
L 702.939759 302.154076 
L 706.120482 311.890874 
L 709.301205 308.337641 
L 712.481928 299.659143 
L 715.662651 303.567594 
L 718.843373 305.273423 
L 722.024096 312.246126 
L 728.385542 303.867685 
L 731.566265 302.888457 
L 734.746988 308.850947 
L 737.927711 300.077548 
L 741.108434 302.122491 
L 744.289157 305.57353 
L 747.46988 310.603947 
L 750.650602 309.364238 
L 753.831325 310.746071 
L 757.012048 307.966473 
L 760.192771 302.430452 
L 763.373494 308.558759 
L 766.554217 303.93876 
L 769.73494 308.369229 
L 772.915663 302.304108 
L 776.096386 309.593238 
L 779.277108 305.960512 
L 782.457831 302.983219 
L 785.638554 309.364238 
L 788.819277 304.373112 
L 788.819277 304.373112 
" clip-path="url(#pb94d933b3a)" style="fill: none; stroke: #000000; stroke-width: 1.5; stroke-linecap: square"/>
   </g>
   <g id="line2d_2">
    <path d="M 0 306 
L 3.180723 306 
L 6.361446 306.415939 
L 9.542169 304.94624 
L 12.722892 306.527558 
L 15.903614 312.360465 
L 19.084337 311.247747 
L 22.26506 311.400768 
L 25.445783 312.696892 
L 28.626506 309.539108 
L 31.807229 301.937192 
L 34.987952 305.887452 
L 38.168675 306.613905 
L 41.349398 306.620719 
L 44.53012 302.294477 
L 47.710843 303.961864 
L 50.891566 304.283423 
L 54.072289 303.147009 
L 57.253012 308.132346 
L 60.433735 309.096245 
L 63.614458 308.465202 
L 66.795181 305.609921 
L 69.975904 304.659091 
L 73.156627 309.008977 
L 76.337349 309.409914 
L 79.518072 307.209347 
L 82.698795 305.916936 
L 85.879518 307.207179 
L 89.060241 307.452309 
L 92.240964 307.156666 
L 95.421687 318.745834 
L 98.60241 315.419683 
L 101.783133 308.804928 
L 104.963855 306.052651 
L 108.144578 306.354029 
L 114.506024 302.384218 
L 117.686747 305.383617 
L 120.86747 305.683911 
L 124.048193 306.420678 
L 127.228916 308.608154 
L 130.409639 307.127027 
L 133.590361 306.26889 
L 136.771084 306.597181 
L 139.951807 305.687225 
L 143.13253 301.803577 
L 146.313253 302.962068 
L 149.493976 302.318321 
L 152.674699 302.413544 
L 155.855422 308.714717 
L 159.036145 307.21582 
L 162.216867 311.632203 
L 165.39759 309.322184 
L 168.578313 309.698524 
L 171.759036 306.425881 
L 174.939759 304.861637 
L 178.120482 309.104451 
L 181.301205 311.153572 
L 184.481928 307.562718 
L 187.662651 305.298912 
L 190.843373 305.932917 
L 194.024096 308.463933 
L 197.204819 305.568606 
L 200.385542 302.475632 
L 203.566265 305.963733 
L 206.746988 306.138192 
L 209.927711 304.435826 
L 213.108434 307.562532 
L 216.289157 308.488708 
L 219.46988 304.225726 
L 222.650602 302.209785 
L 225.831325 306.012667 
L 229.012048 310.062684 
L 232.192771 306.116048 
L 235.373494 308.038601 
L 238.554217 306.360037 
L 241.73494 302.14584 
L 244.915663 308.587932 
L 248.096386 304.700839 
L 251.277108 306.139834 
L 254.457831 301.951251 
L 257.638554 310.404816 
L 260.819277 310.097458 
L 264 306.973104 
L 270.361446 310.64742 
L 273.542169 305.666102 
L 276.722892 303.316654 
L 279.903614 304.690185 
L 283.084337 303.353785 
L 286.26506 310.920672 
L 289.445783 307.441965 
L 292.626506 306.937859 
L 295.807229 306.916087 
L 298.987952 305.719218 
L 302.168675 303.629656 
L 305.349398 301.152153 
L 308.53012 301.344095 
L 311.710843 305.911051 
L 314.891566 308.163625 
L 318.072289 303.639999 
L 321.253012 305.13136 
L 327.614458 306.869352 
L 330.795181 308.129806 
L 333.975904 306.149992 
L 337.156627 310.275941 
L 340.337349 310.539449 
L 343.518072 310.063055 
L 346.698795 307.610195 
L 349.879518 309.288739 
L 353.060241 308.723327 
L 356.240964 307.961641 
L 359.421687 307.071652 
L 362.60241 303.966416 
L 365.783133 301.969087 
L 368.963855 304.100391 
L 372.144578 310.0228 
L 375.325301 306.527094 
L 378.506024 306.100748 
L 381.686747 304.141209 
L 384.86747 303.226938 
L 388.048193 304.682876 
L 391.228916 304.120304 
L 394.409639 305.146877 
L 397.590361 305.585733 
L 400.771084 306.30209 
L 403.951807 305.335024 
L 410.313253 304.227274 
L 413.493976 304.859686 
L 416.674699 302.746997 
L 419.855422 303.393982 
L 423.036145 303.626528 
L 426.216867 304.180974 
L 429.39759 305.268096 
L 432.578313 308.797062 
L 435.759036 307.11371 
L 438.939759 306.27242 
L 442.120482 305.627389 
L 445.301205 303.882984 
L 448.481928 306.9714 
L 451.662651 304.244401 
L 454.843373 304.804373 
L 458.024096 304.390858 
L 461.204819 304.292714 
L 464.385542 307.827295 
L 467.566265 304.390455 
L 470.746988 305.555598 
L 473.927711 304.104912 
L 477.108434 305.172211 
L 480.289157 300.525542 
L 483.46988 303.908627 
L 486.650602 305.175865 
L 489.831325 307.119563 
L 493.012048 310.180848 
L 496.192771 310.193946 
L 499.373494 307.623915 
L 502.554217 306.149497 
L 505.73494 310.724427 
L 508.915663 309.065432 
L 512.096386 308.808335 
L 515.277108 309.253344 
L 518.457831 305.650307 
L 524.819277 307.137279 
L 528 303.427614 
L 531.180723 303.732411 
L 534.361446 304.914969 
L 537.542169 306.33653 
L 540.722892 313.933193 
L 543.903614 310.605124 
L 547.084337 310.20305 
L 550.26506 306.341826 
L 553.445783 304.419102 
L 556.626506 307.690965 
L 559.807229 307.875979 
L 562.987952 307.897844 
L 566.168675 306.204997 
L 569.349398 307.828441 
L 572.53012 306.070335 
L 575.710843 300.690782 
L 578.891566 304.882233 
L 582.072289 306.378898 
L 585.253012 303.109228 
L 588.433735 302.227931 
L 591.614458 304.001721 
L 594.795181 304.78003 
L 597.975904 307.799577 
L 601.156627 307.658044 
L 604.337349 306.652588 
L 607.518072 307.262121 
L 610.698795 305.727332 
L 613.879518 308.40983 
L 617.060241 305.290643 
L 620.240964 304.139753 
L 623.421687 308.854199 
L 626.60241 309.814524 
L 629.783133 305.501709 
L 632.963855 302.682926 
L 636.144578 301.570288 
L 639.325301 303.818723 
L 642.506024 304.556084 
L 645.686747 302.275216 
L 648.86747 305.121698 
L 652.048193 305.57926 
L 655.228916 308.704777 
L 658.409639 310.230299 
L 664.771084 304.087724 
L 667.951807 304.700374 
L 671.13253 307.102251 
L 674.313253 296.659249 
L 677.493976 300.04439 
L 680.674699 306.189821 
L 683.855422 304.097635 
L 687.036145 303.871402 
L 690.216867 306.320952 
L 693.39759 305.472039 
L 696.578313 304.302098 
L 699.759036 301.978841 
L 702.939759 305.330285 
L 706.120482 303.72216 
L 709.301205 307.826149 
L 712.481928 308.091094 
L 715.662651 303.856908 
L 718.843373 303.710175 
L 722.024096 304.495939 
L 725.204819 308.396204 
L 728.385542 308.235474 
L 731.566265 306.054942 
L 734.746988 304.454006 
L 737.927711 306.653517 
L 741.108434 303.366049 
L 744.289157 302.741423 
L 747.46988 304.158026 
L 750.650602 307.377919 
L 753.831325 308.373627 
L 757.012048 309.573388 
L 760.192771 308.779906 
L 763.373494 305.592547 
L 766.554217 307.092309 
L 769.73494 305.519084 
L 772.915663 306.949659 
L 776.096386 304.610529 
L 779.277108 307.102406 
L 782.457831 306.522077 
L 785.638554 304.742835 
L 788.819277 307.067192 
L 788.819277 307.067192 
" clip-path="url(#pb94d933b3a)" style="fill: none; stroke: #000000; stroke-width: 1.5; stroke-linecap: square"/>
   </g>
   <g id="line2d_3">
    <path d="M 0 306 
L 3.180723 306 
L 6.361446 306.365478 
L 9.542169 305.223025 
L 12.722892 306.272828 
L 15.903614 310.384644 
L 19.084337 310.312685 
L 22.26506 310.71069 
L 25.445783 311.733065 
L 28.626506 310.092634 
L 31.807229 305.343026 
L 34.987952 306.682293 
L 38.168675 306.878758 
L 41.349398 306.817314 
L 44.53012 304.219056 
L 47.710843 304.641231 
L 50.891566 304.641346 
L 54.072289 303.871237 
L 57.253012 306.565418 
L 60.433735 307.595895 
L 63.614458 307.665022 
L 66.795181 306.213983 
L 69.975904 305.466109 
L 73.156627 307.771106 
L 76.337349 308.357824 
L 79.518072 307.3719 
L 82.698795 306.588651 
L 85.879518 307.147997 
L 89.060241 307.309488 
L 92.240964 307.173654 
L 95.421687 313.966494 
L 98.60241 313.426131 
L 101.783133 310.141062 
L 104.963855 308.141002 
L 108.144578 307.696255 
L 111.325301 306.168361 
L 114.506024 304.463536 
L 117.686747 305.616246 
L 120.86747 305.754525 
L 124.048193 306.164016 
L 127.228916 307.51191 
L 133.590361 306.510938 
L 136.771084 306.625467 
L 139.951807 306.075734 
L 143.13253 303.688604 
L 146.313253 303.787388 
L 149.493976 303.162888 
L 152.674699 302.981111 
L 155.855422 306.508713 
L 159.036145 306.275371 
L 162.216867 309.143192 
L 165.39759 308.523974 
L 168.578313 308.96627 
L 171.759036 307.261437 
L 174.939759 306.094102 
L 178.120482 308.209087 
L 181.301205 309.682515 
L 184.481928 308.010211 
L 187.662651 306.563511 
L 190.843373 306.567086 
L 194.024096 307.877846 
L 197.204819 306.352349 
L 200.385542 304.312732 
L 203.566265 305.830338 
L 206.746988 305.969572 
L 209.927711 305.019737 
L 213.108434 306.665454 
L 216.289157 307.470262 
L 219.46988 305.272449 
L 222.650602 303.784337 
L 225.831325 305.546396 
L 229.012048 308.051109 
L 232.192771 306.320459 
L 235.373494 307.385378 
L 238.554217 306.602119 
L 241.73494 304.065759 
L 244.915663 307.26457 
L 248.096386 305.372311 
L 251.277108 306.030507 
L 254.457831 303.614138 
L 257.638554 308.074484 
L 260.819277 308.585255 
L 264 307.191093 
L 267.180723 308.20143 
L 270.361446 309.467632 
L 273.542169 306.895891 
L 276.722892 305.15687 
L 279.903614 305.403807 
L 283.084337 304.431001 
L 286.26506 308.548107 
L 289.445783 307.204174 
L 292.626506 306.993063 
L 295.807229 306.961274 
L 298.987952 306.246785 
L 302.168675 304.86063 
L 305.349398 303.058087 
L 308.53012 302.59308 
L 311.710843 304.912483 
L 314.891566 306.524628 
L 318.072289 304.349971 
L 324.433735 305.58189 
L 327.614458 306.202414 
L 330.795181 307.127709 
L 333.975904 306.260836 
L 337.156627 308.636267 
L 340.337349 309.278294 
L 343.518072 309.360218 
L 346.698795 308.128887 
L 349.879518 308.963029 
L 353.060241 308.734262 
L 356.240964 308.297105 
L 359.421687 307.680527 
L 362.60241 305.687633 
L 365.783133 304.013864 
L 368.963855 304.675441 
L 372.144578 307.974711 
L 375.325301 306.531405 
L 378.506024 306.280948 
L 381.686747 305.077828 
L 384.86747 304.270223 
L 388.048193 304.802056 
L 391.228916 304.425209 
L 394.409639 304.933465 
L 397.590361 305.265384 
L 400.771084 305.769781 
L 410.313253 304.618922 
L 413.493976 304.880649 
L 416.674699 303.640952 
L 426.216867 304.061767 
L 429.39759 304.731992 
L 432.578313 306.958548 
L 435.759036 306.512494 
L 442.120482 305.836533 
L 445.301205 304.750974 
L 448.481928 306.303383 
L 451.662651 304.899 
L 454.843373 305.037566 
L 458.024096 304.736348 
L 461.204819 304.579659 
L 464.385542 306.566062 
L 467.566265 304.927166 
L 470.746988 305.450308 
L 473.927711 304.638434 
L 477.108434 305.103688 
L 480.289157 302.4005 
L 483.46988 303.823658 
L 486.650602 304.589463 
L 489.831325 305.90659 
L 493.012048 308.05065 
L 496.192771 308.687508 
L 499.373494 307.614765 
L 502.554217 306.759143 
L 505.73494 309.249755 
L 508.915663 308.71358 
L 512.096386 308.668597 
L 515.277108 308.967606 
L 518.457831 306.954755 
L 521.638554 307.015672 
L 524.819277 307.270038 
L 528 305.056285 
L 531.180723 304.779981 
L 534.361446 305.166033 
L 537.542169 305.927651 
L 540.722892 310.498865 
L 543.903614 309.542219 
L 547.084337 309.61452 
L 550.26506 307.528311 
L 553.445783 306.048815 
L 556.626506 307.475299 
L 562.987952 307.724809 
L 566.168675 306.79739 
L 569.349398 307.580806 
L 572.53012 306.626486 
L 575.710843 303.305923 
L 578.891566 304.998525 
L 582.072289 305.849063 
L 585.253012 304.091134 
L 588.433735 303.287437 
L 591.614458 303.996774 
L 594.795181 304.456656 
L 597.975904 306.313916 
L 601.156627 306.657923 
L 604.337349 306.369403 
L 607.518072 306.805903 
L 610.698795 306.031069 
L 613.879518 307.505974 
L 617.060241 305.944893 
L 620.240964 305.074637 
L 623.421687 307.569934 
L 626.60241 308.522609 
L 629.783133 306.370704 
L 632.963855 304.464895 
L 636.144578 303.296062 
L 639.325301 304.118862 
L 642.506024 304.458771 
L 645.686747 303.148184 
L 648.86747 304.563107 
L 652.048193 304.998528 
L 655.228916 306.994425 
L 658.409639 308.379935 
L 661.590361 307.097471 
L 664.771084 305.321162 
L 667.951807 305.322337 
L 671.13253 306.543721 
L 674.313253 300.582411 
L 677.493976 301.41126 
L 680.674699 304.622965 
L 683.855422 303.869896 
L 687.036145 303.80813 
L 690.216867 305.2558 
L 693.39759 305.070532 
L 696.578313 304.513662 
L 699.759036 303.065796 
L 702.939759 304.707674 
L 706.120482 303.948642 
L 709.301205 306.275268 
L 712.481928 306.884314 
L 715.662651 304.766229 
L 718.843373 304.413147 
L 722.024096 304.660297 
L 725.204819 306.912188 
L 728.385542 307.258693 
L 734.746988 305.27044 
L 737.927711 306.325148 
L 741.108434 304.485113 
L 744.289157 303.79021 
L 747.46988 304.315298 
L 750.650602 306.169927 
L 753.831325 307.106361 
L 757.012048 308.182355 
L 760.192771 308.114616 
L 763.373494 306.442954 
L 766.554217 307.072895 
L 769.73494 306.155349 
L 772.915663 306.807347 
L 776.096386 305.476908 
L 779.277108 306.684341 
L 782.457831 306.474741 
L 785.638554 305.452179 
L 788.819277 306.598622 
L 788.819277 306.598622 
" clip-path="url(#pb94d933b3a)" style="fill: none; stroke: #000000; stroke-width: 1.5; stroke-linecap: square"/>
   </g>
   <g id="line2d_4">
    <path d="M 0 306 
L 3.180723 306 
L 6.361446 306.338916 
L 9.542169 305.359735 
L 12.722892 306.171634 
L 15.903614 309.372215 
L 19.084337 309.568489 
L 22.26506 310.017488 
L 25.445783 310.858808 
L 28.626506 309.956455 
L 31.807229 306.946694 
L 34.987952 307.482639 
L 38.168675 307.457172 
L 41.349398 307.317451 
L 44.53012 305.693994 
L 47.710843 305.686864 
L 50.891566 305.509474 
L 54.072289 304.924755 
L 57.253012 306.27639 
L 60.433735 306.901503 
L 63.614458 307.054361 
L 66.795181 306.354293 
L 69.975904 305.920166 
L 73.156627 307.121245 
L 76.337349 307.55272 
L 82.698795 306.74118 
L 85.879518 307.024204 
L 89.060241 307.132246 
L 92.240964 307.086249 
L 95.421687 310.791065 
L 98.60241 310.999688 
L 101.783133 309.597068 
L 104.963855 308.59468 
L 108.144578 308.284918 
L 111.325301 307.365185 
L 114.506024 306.248633 
L 117.686747 306.581392 
L 120.86747 306.498904 
L 124.048193 306.60402 
L 127.228916 307.263592 
L 133.590361 306.758404 
L 136.771084 306.780427 
L 139.951807 306.457372 
L 143.13253 305.100018 
L 146.313253 304.949225 
L 149.493976 304.429138 
L 152.674699 304.127406 
L 155.855422 305.862084 
L 159.036145 305.834219 
L 162.216867 307.457586 
L 165.39759 307.384741 
L 168.578313 307.809772 
L 171.759036 307.069161 
L 174.939759 306.461803 
L 178.120482 307.552803 
L 181.301205 308.458046 
L 187.662651 307.000243 
L 190.843373 306.930867 
L 194.024096 307.579468 
L 197.204819 306.781976 
L 200.385542 305.599175 
L 203.566265 306.21909 
L 206.746988 306.240155 
L 209.927711 305.680558 
L 213.108434 306.477823 
L 216.289157 306.948995 
L 219.46988 305.839076 
L 222.650602 304.938721 
L 225.831325 305.709816 
L 229.012048 307.046009 
L 232.192771 306.270529 
L 235.373494 306.856057 
L 238.554217 306.51241 
L 241.73494 305.150015 
L 244.915663 306.723285 
L 248.096386 305.780596 
L 251.277108 306.071743 
L 254.457831 304.75688 
L 257.638554 306.992622 
L 260.819277 307.440364 
L 264 306.861838 
L 267.180723 307.46456 
L 270.361446 308.263397 
L 273.542169 307.056123 
L 276.722892 306.090016 
L 279.903614 306.076182 
L 283.084337 305.433878 
L 286.26506 307.514525 
L 289.445783 306.949927 
L 295.807229 306.87508 
L 298.987952 306.499511 
L 302.168675 305.711431 
L 305.349398 304.589599 
L 308.53012 304.101076 
L 311.710843 305.125514 
L 314.891566 305.963112 
L 318.072289 304.871913 
L 327.614458 305.79669 
L 330.795181 306.358847 
L 333.975904 306.010212 
L 337.156627 307.345798 
L 340.337349 307.899437 
L 343.518072 308.168617 
L 346.698795 307.684283 
L 349.879518 308.210458 
L 353.060241 308.202149 
L 356.240964 308.049884 
L 359.421687 307.743517 
L 365.783133 305.5929 
L 368.963855 305.693884 
L 372.144578 307.320413 
L 375.325301 306.644389 
L 378.506024 306.49453 
L 381.686747 305.809066 
L 384.86747 305.25531 
L 388.048193 305.384943 
L 391.228916 305.09176 
L 400.771084 305.648523 
L 410.313253 305.002263 
L 413.493976 305.077459 
L 416.674699 304.36624 
L 426.216867 304.32338 
L 429.39759 304.644591 
L 432.578313 305.86353 
L 442.120482 305.605529 
L 445.301205 305.050487 
L 448.481928 305.846685 
L 451.662651 305.154003 
L 454.843373 305.186342 
L 461.204819 304.868994 
L 464.385542 305.904858 
L 467.566265 305.120182 
L 470.746988 305.37228 
L 473.927711 304.936163 
L 477.108434 305.142576 
L 480.289157 303.668348 
L 483.46988 304.24603 
L 486.650602 304.596759 
L 489.831325 305.310647 
L 493.012048 306.571049 
L 496.192771 307.149916 
L 502.554217 306.473442 
L 505.73494 307.872496 
L 508.915663 307.800247 
L 512.096386 307.921449 
L 515.277108 308.206402 
L 518.457831 307.234298 
L 521.638554 307.224568 
L 524.819277 307.328767 
L 528 306.117807 
L 531.180723 305.792311 
L 534.361446 305.837827 
L 537.542169 306.145295 
L 540.722892 308.596198 
L 543.903614 308.384356 
L 547.084337 308.61288 
L 550.26506 307.635853 
L 553.445783 306.817033 
L 556.626506 307.475838 
L 562.987952 307.628068 
L 566.168675 307.13865 
L 569.349398 307.510616 
L 572.53012 307.003671 
L 575.710843 305.143084 
L 578.891566 305.766207 
L 582.072289 306.111186 
L 585.253012 305.113806 
L 588.433735 304.515324 
L 594.795181 304.845191 
L 597.975904 305.792012 
L 601.156627 306.060332 
L 604.337349 305.997313 
L 607.518072 306.290951 
L 610.698795 305.952385 
L 613.879518 306.765708 
L 617.060241 306.03229 
L 620.240964 305.550237 
L 623.421687 306.828288 
L 626.60241 307.455994 
L 632.963855 305.415044 
L 636.144578 304.625034 
L 639.325301 304.85657 
L 642.506024 304.914038 
L 645.686747 304.128605 
L 648.86747 304.741861 
L 652.048193 304.953047 
L 655.228916 306.046462 
L 658.409639 306.948024 
L 661.590361 306.476761 
L 664.771084 305.612557 
L 667.951807 305.565341 
L 671.13253 306.18613 
L 674.313253 303.010302 
L 677.493976 303.083921 
L 680.674699 304.557606 
L 683.855422 304.15394 
L 687.036145 304.075569 
L 690.216867 304.822352 
L 693.39759 304.79037 
L 696.578313 304.528972 
L 699.759036 303.738274 
L 702.939759 304.522296 
L 706.120482 304.143297 
L 709.301205 305.37857 
L 712.481928 305.851972 
L 715.662651 304.859421 
L 718.843373 304.654745 
L 722.024096 304.754598 
L 725.204819 305.945841 
L 728.385542 306.283251 
L 734.746988 305.423192 
L 737.927711 305.973801 
L 741.108434 305.031822 
L 744.289157 304.566941 
L 747.46988 304.730565 
L 750.650602 305.666721 
L 753.831325 306.257096 
L 757.012048 306.970715 
L 760.192771 307.126809 
L 763.373494 306.3786 
L 766.554217 306.730151 
L 769.73494 306.285169 
L 772.915663 306.616072 
L 776.096386 305.939984 
L 779.277108 306.525094 
L 782.457831 306.431291 
L 785.638554 305.883261 
L 788.819277 306.440686 
L 788.819277 306.440686 
" clip-path="url(#pb94d933b3a)" style="fill: none; stroke: #000000; stroke-width: 1.5; stroke-linecap: square"/>
   </g>
   <g id="line2d_5">
    <path d="M 0 306 
L 3.180723 306 
L 6.361446 306.325461 
L 9.542169 305.425682 
L 12.722892 306.129997 
L 15.903614 308.892017 
L 19.084337 309.153598 
L 22.26506 309.591259 
L 25.445783 310.320345 
L 28.626506 309.716325 
L 31.807229 307.520576 
L 34.987952 307.83042 
L 41.349398 307.633126 
L 44.53012 306.497202 
L 50.891566 306.206144 
L 54.072289 305.756179 
L 57.253012 306.52211 
L 60.433735 306.885796 
L 63.614458 306.981213 
L 66.795181 306.564071 
L 69.975904 306.283496 
L 73.156627 306.960527 
L 76.337349 307.228986 
L 82.698795 306.800667 
L 89.060241 307.024526 
L 92.240964 307.008316 
L 95.421687 309.091668 
L 98.60241 309.359298 
L 101.783133 308.727053 
L 104.963855 308.249879 
L 108.144578 308.109524 
L 111.325301 307.621206 
L 114.506024 306.992169 
L 117.686747 307.111972 
L 124.048193 307.036145 
L 127.228916 307.355367 
L 133.590361 307.055698 
L 136.771084 307.043156 
L 139.951807 306.849389 
L 143.13253 306.09637 
L 146.313253 305.929934 
L 152.674699 305.316826 
L 155.855422 306.130451 
L 159.036145 306.095569 
L 162.216867 306.928807 
L 165.39759 306.935033 
L 168.578313 307.194341 
L 174.939759 306.557688 
L 181.301205 307.631062 
L 187.662651 306.971852 
L 190.843373 306.9382 
L 194.024096 307.276297 
L 197.204819 306.892639 
L 200.385542 306.267924 
L 203.566265 306.534478 
L 206.746988 306.518414 
L 209.927711 306.203416 
L 213.108434 306.575477 
L 216.289157 306.810706 
L 222.650602 305.735834 
L 225.831325 306.070494 
L 229.012048 306.736533 
L 232.192771 306.357449 
L 235.373494 306.659265 
L 238.554217 306.495389 
L 241.73494 305.785271 
L 244.915663 306.550405 
L 248.096386 306.074991 
L 251.277108 306.201146 
L 254.457831 305.503825 
L 257.638554 306.612319 
L 260.819277 306.875063 
L 264 306.62213 
L 267.180723 306.956166 
L 270.361446 307.417443 
L 276.722892 306.366936 
L 279.903614 306.33788 
L 283.084337 305.983777 
L 286.26506 307.023283 
L 289.445783 306.767768 
L 295.807229 306.755559 
L 298.987952 306.560591 
L 302.168675 306.140289 
L 305.349398 305.521849 
L 308.53012 305.19062 
L 314.891566 306.030761 
L 318.072289 305.458861 
L 327.614458 305.836693 
L 330.795181 306.127705 
L 333.975904 305.963902 
L 337.156627 306.665924 
L 340.337349 307.010444 
L 343.518072 307.222441 
L 346.698795 307.053849 
L 349.879518 307.379578 
L 356.240964 307.427905 
L 359.421687 307.32095 
L 365.783133 306.220216 
L 368.963855 306.222012 
L 372.144578 307.027451 
L 375.325301 306.698314 
L 378.506024 306.614918 
L 384.86747 305.916321 
L 388.048193 305.933794 
L 391.228916 305.735588 
L 403.951807 305.771334 
L 413.493976 305.4775 
L 416.674699 305.073201 
L 426.216867 304.883859 
L 429.39759 305.004218 
L 432.578313 305.608683 
L 442.120482 305.528502 
L 445.301205 305.249124 
L 448.481928 305.64478 
L 451.662651 305.303502 
L 458.024096 305.202405 
L 461.204819 305.114406 
L 464.385542 305.631505 
L 467.566265 305.243619 
L 470.746988 305.363451 
L 473.927711 305.1378 
L 477.108434 305.229513 
L 480.289157 304.454787 
L 489.831325 305.184383 
L 493.012048 305.852211 
L 496.192771 306.213748 
L 502.554217 305.997046 
L 505.73494 306.767331 
L 512.096386 306.968172 
L 515.277108 307.194309 
L 518.457831 306.768032 
L 524.819277 306.891677 
L 528 306.295543 
L 531.180723 306.110566 
L 534.361446 306.108854 
L 537.542169 306.247161 
L 540.722892 307.514319 
L 543.903614 307.491702 
L 547.084337 307.682595 
L 553.445783 306.853394 
L 556.626506 307.193134 
L 562.987952 307.319675 
L 566.168675 307.093359 
L 569.349398 307.291464 
L 572.53012 307.045355 
L 575.710843 306.067023 
L 578.891566 306.31642 
L 582.072289 306.447532 
L 585.253012 305.900987 
L 588.433735 305.52479 
L 594.795181 305.548129 
L 597.975904 305.985005 
L 601.156627 306.108624 
L 604.337349 306.070986 
L 607.518072 306.221579 
L 610.698795 306.051773 
L 613.879518 306.469374 
L 620.240964 305.85508 
L 623.421687 306.497485 
L 626.60241 306.853685 
L 636.144578 305.393523 
L 642.506024 305.437129 
L 645.686747 304.984734 
L 648.86747 305.236075 
L 652.048193 305.30277 
L 658.409639 306.333312 
L 661.590361 306.139813 
L 664.771084 305.718179 
L 667.951807 305.682582 
L 671.13253 305.999443 
L 674.313253 304.35747 
L 677.493976 304.281672 
L 680.674699 304.951949 
L 683.855422 304.712542 
L 687.036145 304.622886 
L 690.216867 304.965374 
L 693.39759 304.935746 
L 696.578313 304.784842 
L 699.759036 304.351329 
L 702.939759 304.710225 
L 706.120482 304.497241 
L 709.301205 305.10985 
L 712.481928 305.378049 
L 715.662651 304.90044 
L 718.843373 304.787822 
L 722.024096 304.829161 
L 725.204819 305.446461 
L 728.385542 305.66486 
L 734.746988 305.298485 
L 737.927711 305.594226 
L 741.108434 305.133803 
L 744.289157 304.87756 
L 747.46988 304.934774 
L 750.650602 305.405583 
L 760.192771 306.304274 
L 763.373494 305.980919 
L 766.554217 306.195083 
L 769.73494 306.007606 
L 772.915663 306.203266 
L 776.096386 305.878976 
L 779.277108 306.191898 
L 782.457831 306.171689 
L 785.638554 305.905454 
L 788.819277 306.19562 
L 788.819277 306.19562 
" clip-path="url(#pb94d933b3a)" style="fill: none; stroke: #000000; stroke-width: 1.5; stroke-linecap: square"/>
   </g>
   <g id="line2d_6">
    <path d="M 0 306 
L 3.180723 306 
L 6.361446 306.318711 
L 9.542169 305.45781 
L 12.722892 306.111575 
L 15.903614 308.662652 
L 19.084337 308.9418 
L 22.26506 309.364789 
L 25.445783 310.033376 
L 28.626506 309.55357 
L 31.807229 307.724245 
L 34.987952 307.958021 
L 41.349398 307.773308 
L 44.53012 306.863591 
L 50.891566 306.576845 
L 54.072289 306.206782 
L 57.253012 306.742153 
L 60.433735 306.992872 
L 63.614458 307.054274 
L 69.975904 306.538779 
L 73.156627 306.995156 
L 76.337349 307.178507 
L 82.698795 306.889287 
L 89.060241 307.031343 
L 92.240964 307.0203 
L 95.421687 308.374 
L 98.60241 308.587589 
L 104.963855 307.953221 
L 108.144578 307.881404 
L 114.506024 307.202403 
L 117.686747 307.264762 
L 124.048193 307.201144 
L 127.228916 307.38454 
L 139.951807 307.064784 
L 143.13253 306.614719 
L 146.313253 306.492664 
L 152.674699 306.078616 
L 155.855422 306.5073 
L 159.036145 306.469393 
L 162.216867 306.923952 
L 165.39759 306.927697 
L 168.578313 307.073838 
L 174.939759 306.721961 
L 181.301205 307.314476 
L 190.843373 306.954732 
L 194.024096 307.138979 
L 197.204819 306.935886 
L 200.385542 306.593974 
L 203.566265 306.723903 
L 206.746988 306.706572 
L 209.927711 306.528102 
L 216.289157 306.833826 
L 222.650602 306.247223 
L 225.831325 306.404028 
L 229.012048 306.745177 
L 232.192771 306.543318 
L 235.373494 306.693099 
L 238.554217 306.605398 
L 241.73494 306.225422 
L 244.915663 306.609916 
L 248.096386 306.3554 
L 251.277108 306.409395 
L 254.457831 306.033749 
L 257.638554 306.591434 
L 260.819277 306.731079 
L 264 306.605566 
L 270.361446 307.028727 
L 276.722892 306.503151 
L 279.903614 306.482706 
L 283.084337 306.292132 
L 286.26506 306.818439 
L 289.445783 306.694958 
L 298.987952 306.600056 
L 302.168675 306.381876 
L 305.349398 306.051134 
L 308.53012 305.856879 
L 314.891566 306.243309 
L 318.072289 305.938353 
L 327.614458 306.080907 
L 330.795181 306.220994 
L 333.975904 306.132674 
L 337.156627 306.486222 
L 343.518072 306.794012 
L 346.698795 306.724236 
L 349.879518 306.905009 
L 356.240964 306.96916 
L 359.421687 306.935183 
L 365.783133 306.393561 
L 368.963855 306.387214 
L 372.144578 306.793229 
L 375.325301 306.634083 
L 378.506024 306.593573 
L 384.86747 306.232477 
L 400.771084 306.151481 
L 413.493976 305.8797 
L 416.674699 305.657252 
L 426.216867 305.479661 
L 429.39759 305.515589 
L 432.578313 305.802706 
L 442.120482 305.738196 
L 445.301205 305.585034 
L 448.481928 305.774285 
L 451.662651 305.594924 
L 461.204819 305.462805 
L 464.385542 305.711642 
L 467.566265 305.509069 
L 470.746988 305.559495 
L 473.927711 305.437527 
L 477.108434 305.471171 
L 480.289157 305.063118 
L 489.831325 305.375503 
L 493.012048 305.707791 
L 496.192771 305.89839 
L 502.554217 305.807573 
L 505.73494 306.207334 
L 512.096386 306.356712 
L 515.277108 306.498797 
L 518.457831 306.311838 
L 524.819277 306.413105 
L 528 306.129015 
L 534.361446 306.043478 
L 537.542169 306.116656 
L 540.722892 306.770985 
L 550.26506 306.733026 
L 553.445783 306.552676 
L 556.626506 306.740049 
L 562.987952 306.843061 
L 566.168675 306.746859 
L 569.349398 306.860088 
L 572.53012 306.752531 
L 575.710843 306.266162 
L 582.072289 306.449564 
L 588.433735 305.96312 
L 594.795181 305.939501 
L 597.975904 306.146011 
L 607.518072 306.252241 
L 610.698795 306.163321 
L 613.879518 306.371473 
L 620.240964 306.057177 
L 623.421687 306.375878 
L 626.60241 306.563633 
L 636.144578 305.822648 
L 642.506024 305.810272 
L 645.686747 305.563398 
L 655.228916 305.943591 
L 658.409639 306.188752 
L 661.590361 306.097063 
L 664.771084 305.881067 
L 667.951807 305.856234 
L 671.13253 306.010254 
L 674.313253 305.170369 
L 677.493976 305.095556 
L 680.674699 305.404371 
L 687.036145 305.193159 
L 690.216867 305.34466 
L 696.578313 305.220385 
L 699.759036 304.981088 
L 702.939759 305.137414 
L 706.120482 305.010532 
L 709.301205 305.303986 
L 712.481928 305.434206 
L 715.662651 305.189013 
L 722.024096 305.124805 
L 725.204819 305.42894 
L 728.385542 305.541453 
L 734.746988 305.359731 
L 737.927711 305.507667 
L 744.289157 305.140962 
L 747.46988 305.158432 
L 757.012048 305.778622 
L 760.192771 305.871349 
L 763.373494 305.724665 
L 766.554217 305.845221 
L 769.73494 305.764895 
L 772.915663 305.876701 
L 776.096386 305.724572 
L 779.277108 305.887549 
L 782.457831 305.891124 
L 785.638554 305.767385 
L 788.819277 305.921076 
L 788.819277 305.921076 
" clip-path="url(#pb94d933b3a)" style="fill: none; stroke: #000000; stroke-width: 1.5; stroke-linecap: square"/>
   </g>
   <g id="line2d_7">
    <path d="M 0 306 
L 3.180723 306 
L 6.361446 306.315333 
L 9.542169 305.473635 
L 12.722892 306.102971 
L 15.903614 308.551132 
L 19.084337 308.835717 
L 22.26506 309.249369 
L 25.445783 309.886985 
L 28.626506 309.462641 
L 31.807229 307.803572 
L 34.987952 308.006812 
L 41.349398 307.833455 
L 44.53012 307.029235 
L 50.891566 306.755997 
L 54.072289 306.427079 
L 57.253012 306.866263 
L 60.433735 307.069062 
L 63.614458 307.115575 
L 69.975904 306.681327 
L 73.156627 307.044356 
L 76.337349 307.189524 
L 82.698795 306.956755 
L 89.060241 307.063005 
L 92.240964 307.052991 
L 95.421687 308.092946 
L 98.60241 308.268372 
L 104.963855 307.811768 
L 108.144578 307.763907 
L 114.506024 307.268124 
L 120.86747 307.264156 
L 124.048193 307.260871 
L 127.228916 307.390326 
L 139.951807 307.158897 
L 143.13253 306.842367 
L 149.493976 306.580602 
L 152.674699 306.446696 
L 155.855422 306.72626 
L 159.036145 306.693521 
L 162.216867 306.992194 
L 171.759036 306.965641 
L 174.939759 306.852545 
L 181.301205 307.235498 
L 190.843373 307.004338 
L 194.024096 307.120853 
L 200.385542 306.773367 
L 206.746988 306.835838 
L 209.927711 306.720401 
L 216.289157 306.902172 
L 222.650602 306.532965 
L 225.831325 306.621443 
L 229.012048 306.824213 
L 232.192771 306.69907 
L 235.373494 306.785833 
L 238.554217 306.730301 
L 241.73494 306.497918 
L 244.915663 306.72171 
L 248.096386 306.566389 
L 251.277108 306.593091 
L 254.457831 306.36489 
L 257.638554 306.686931 
L 260.819277 306.766994 
L 264 306.692127 
L 270.361446 306.937717 
L 276.722892 306.63292 
L 283.084337 306.504068 
L 286.26506 306.802641 
L 292.626506 306.724941 
L 298.987952 306.6749 
L 308.53012 306.238916 
L 314.891566 306.441123 
L 318.072289 306.264539 
L 333.975904 306.341581 
L 340.337349 306.634735 
L 353.060241 306.801142 
L 359.421687 306.795772 
L 365.783133 306.502849 
L 368.963855 306.496833 
L 372.144578 306.715764 
L 384.86747 306.410323 
L 403.951807 306.29812 
L 429.39759 305.937595 
L 432.578313 306.081364 
L 477.108434 305.807157 
L 480.289157 305.586816 
L 489.831325 305.718696 
L 496.192771 305.980261 
L 502.554217 305.931198 
L 505.73494 306.136901 
L 524.819277 306.258919 
L 531.180723 306.070434 
L 537.542169 306.108313 
L 540.722892 306.446356 
L 550.26506 306.448614 
L 553.445783 306.361689 
L 559.807229 306.496842 
L 569.349398 306.550038 
L 572.53012 306.501563 
L 575.710843 306.257517 
L 582.072289 306.352776 
L 588.433735 306.10565 
L 597.975904 306.189512 
L 613.879518 306.302288 
L 620.240964 306.142845 
L 626.60241 306.400934 
L 639.325301 306.027266 
L 642.506024 306.011078 
L 645.686747 305.880792 
L 655.228916 306.05636 
L 658.409639 306.178888 
L 671.13253 306.081676 
L 674.313253 305.65336 
L 677.493976 305.605483 
L 680.674699 305.75107 
L 687.036145 305.627075 
L 693.39759 305.671297 
L 706.120482 305.482075 
L 712.481928 305.679205 
L 718.843373 305.506411 
L 722.024096 305.501382 
L 728.385542 305.699409 
L 747.46988 305.477793 
L 760.192771 305.826254 
L 763.373494 305.753082 
L 772.915663 305.829062 
L 776.096386 305.753141 
L 782.457831 305.838525 
L 785.638554 305.777047 
L 788.819277 305.854275 
L 788.819277 305.854275 
" clip-path="url(#pb94d933b3a)" style="fill: none; stroke: #000000; stroke-width: 1.5; stroke-linecap: square"/>
   </g>
   <g id="line2d_8">
    <path d="M 0 306 
L 3.180723 306 
L 6.361446 306.313644 
L 9.542169 305.481484 
L 12.722892 306.09882 
L 15.903614 308.496216 
L 19.084337 308.782744 
L 22.26506 309.191272 
L 25.445783 309.81328 
L 28.626506 309.414997 
L 31.807229 307.837553 
L 34.987952 308.027158 
L 41.349398 307.860408 
L 44.53012 307.10665 
L 50.891566 306.842367 
L 54.072289 306.533942 
L 57.253012 306.929899 
L 60.433735 307.11115 
L 63.614458 307.151033 
L 69.975904 306.754778 
L 73.156627 307.075944 
L 76.337349 307.203708 
L 82.698795 306.996132 
L 89.060241 307.086438 
L 92.240964 307.076791 
L 95.421687 307.976427 
L 98.60241 308.132054 
L 104.963855 307.749364 
L 108.144578 307.710837 
L 114.506024 307.294494 
L 120.86747 307.28988 
L 139.951807 307.201111 
L 143.13253 306.943071 
L 152.674699 306.614983 
L 155.855422 306.833784 
L 159.036145 306.80498 
L 162.216867 307.038719 
L 178.120482 307.077091 
L 181.301205 307.220524 
L 190.843373 307.042108 
L 194.024096 307.130093 
L 203.566265 306.921727 
L 219.46988 306.811011 
L 222.650602 306.67708 
L 235.373494 306.854304 
L 238.554217 306.812671 
L 241.73494 306.642978 
L 244.915663 306.80158 
L 248.096386 306.688443 
L 251.277108 306.705285 
L 254.457831 306.540248 
L 257.638554 306.76624 
L 270.361446 306.938345 
L 279.903614 306.712062 
L 283.084337 306.631451 
L 286.26506 306.835972 
L 311.710843 306.509291 
L 314.891566 306.572863 
L 318.072289 306.451893 
L 333.975904 306.490058 
L 340.337349 306.680389 
L 356.240964 306.794481 
L 362.60241 306.695818 
L 368.963855 306.589481 
L 372.144578 306.729146 
L 391.228916 306.481037 
L 413.493976 306.363754 
L 423.036145 306.217224 
L 429.39759 306.19862 
L 435.759036 306.271829 
L 477.108434 306.071754 
L 480.289157 305.935861 
L 493.012048 306.096765 
L 499.373494 306.136305 
L 502.554217 306.117174 
L 508.915663 306.251921 
L 524.819277 306.30325 
L 531.180723 306.190939 
L 537.542169 306.209963 
L 540.722892 306.405556 
L 572.53012 306.444026 
L 575.710843 306.304788 
L 582.072289 306.358471 
L 591.614458 306.210948 
L 604.337349 306.267281 
L 617.060241 306.269247 
L 620.240964 306.229169 
L 626.60241 306.373143 
L 645.686747 306.075826 
L 671.13253 306.175298 
L 674.313253 305.937186 
L 687.036145 305.909777 
L 693.39759 305.927811 
L 706.120482 305.81009 
L 712.481928 305.911044 
L 718.843373 305.810472 
L 725.204819 305.879965 
L 737.927711 305.88195 
L 747.46988 305.768468 
L 760.192771 305.94693 
L 769.73494 305.913639 
L 782.457831 305.942953 
L 788.819277 305.948658 
L 788.819277 305.948658 
" clip-path="url(#pb94d933b3a)" style="fill: none; stroke: #000000; stroke-width: 1.5; stroke-linecap: square"/>
   </g>
   <g id="line2d_9">
    <path d="M 0 306 
L 3.180723 306 
L 6.361446 306.312799 
L 9.542169 305.485392 
L 12.722892 306.096783 
L 15.903614 308.468976 
L 19.084337 308.756289 
L 22.26506 309.162146 
L 25.445783 309.776329 
L 28.626506 309.39066 
L 31.807229 307.853125 
L 34.987952 308.036293 
L 41.349398 307.873035 
L 44.53012 307.143893 
L 50.891566 306.88455 
L 54.072289 306.586299 
L 57.253012 306.961846 
L 60.433735 307.132938 
L 63.614458 307.169731 
L 69.975904 306.791791 
L 73.156627 307.093263 
L 76.337349 307.212798 
L 82.698795 307.017096 
L 92.240964 307.090508 
L 95.421687 307.924455 
L 98.60241 308.070262 
L 104.963855 307.720952 
L 108.144578 307.686481 
L 114.506024 307.306612 
L 127.228916 307.394385 
L 139.951807 307.22105 
L 143.13253 306.989792 
L 152.674699 306.693805 
L 155.855422 306.885806 
L 159.036145 306.859164 
L 162.216867 307.064044 
L 178.120482 307.094595 
L 181.301205 307.218963 
L 190.843373 307.063863 
L 194.024096 307.13926 
L 203.566265 306.958782 
L 219.46988 306.861458 
L 222.650602 306.747485 
L 235.373494 306.892986 
L 254.457831 306.62725 
L 257.638554 306.812299 
L 270.361446 306.950915 
L 279.903614 306.765086 
L 283.084337 306.698963 
L 286.26506 306.863538 
L 311.710843 306.59585 
L 314.891566 306.645241 
L 321.253012 306.549337 
L 337.156627 306.669523 
L 349.879518 306.786182 
L 359.421687 306.799899 
L 368.963855 306.647906 
L 372.144578 306.754414 
L 394.409639 306.557519 
L 413.493976 306.467096 
L 423.036145 306.353866 
L 438.939759 306.378976 
L 493.012048 306.233946 
L 515.277108 306.390386 
L 531.180723 306.291314 
L 537.542169 306.302864 
L 540.722892 306.439148 
L 572.53012 306.463632 
L 575.710843 306.367459 
L 585.253012 306.347494 
L 594.795181 306.294321 
L 607.518072 306.349086 
L 623.421687 306.367754 
L 629.783133 306.36126 
L 645.686747 306.200729 
L 671.13253 306.26067 
L 674.313253 306.102742 
L 690.216867 306.100439 
L 734.746988 306.018507 
L 741.108434 305.994967 
L 750.650602 305.997657 
L 772.915663 306.065224 
L 785.638554 306.04035 
L 788.819277 306.064644 
L 788.819277 306.064644 
" clip-path="url(#pb94d933b3a)" style="fill: none; stroke: #000000; stroke-width: 1.5; stroke-linecap: square"/>
   </g>
  </g>
 </g>
 <defs>
  <clipPath id="pb94d933b3a">
   <rect x="0" y="0" width="792" height="612"/>
  </clipPath>
 </defs>
</svg>
