<?xml version="1.0" encoding="utf-8" standalone="no"?>
<!DOCTYPE svg PUBLIC "-//W3C//DTD SVG 1.1//EN"
  "http://www.w3.org/Graphics/SVG/1.1/DTD/svg11.dtd">
<svg xmlns:xlink="http://www.w3.org/1999/xlink" width="792pt" height="612pt" viewBox="0 0 792 612" xmlns="http://www.w3.org/2000/svg" version="1.1">
 <metadata>
  <rdf:RDF xmlns:dc="http://purl.org/dc/elements/1.1/" xmlns:cc="http://creativecommons.org/ns#" xmlns:rdf="http://www.w3.org/1999/02/22-rdf-syntax-ns#">
   <cc:Work>
    <dc:type rdf:resource="http://purl.org/dc/dcmitype/StillImage"/>
    <dc:date>2023-01-30T17:17:21.073790</dc:date>
    <dc:format>image/svg+xml</dc:format>
    <dc:creator>
     <cc:Agent>
      <dc:title>Matplotlib v3.6.2, https://matplotlib.org/</dc:title>
     </cc:Agent>
    </dc:creator>
   </cc:Work>
  </rdf:RDF>
 </metadata>
 <defs>
  <style type="text/css">*{stroke-linejoin: round; stroke-linecap: butt}</style>
 </defs>
 <g id="figure_1">
  <g id="patch_1">
   <path d="M 0 612 
L 792 612 
L 792 0 
L 0 0 
z
" style="fill: #ffffff"/>
  </g>
  <g id="axes_1">
   <g id="line2d_1">
    <path d="M 0 459 
L 3.168 461.031253 
L 6.336 461.746186 
L 9.504 462.103653 
L 12.672 455.555767 
L 15.84 455.000678 
L 19.008 452.830915 
L 22.176 446.487557 
L 25.344 457.738356 
L 28.512 460.741074 
L 31.68 461.716748 
L 38.016 458.293478 
L 41.184 462.667189 
L 44.352 464.685825 
L 47.52 464.151728 
L 50.688 463.436794 
L 53.856 464.769935 
L 57.024 465.674116 
L 60.192 466.124103 
L 63.36 479.034963 
L 66.528 482.281603 
L 69.696 480.267172 
L 72.864 478.8331 
L 76.032 479.17795 
L 79.2 477.319123 
L 82.368 474.324812 
L 85.536 475.590665 
L 88.704 475.63272 
L 91.872 476.259339 
L 95.04 478.79525 
L 98.208 478.601798 
L 101.376 478.290591 
L 104.544 478.774223 
L 107.712 478.113961 
L 110.88 473.83277 
L 114.048 472.836068 
L 117.216 470.544075 
L 120.384 468.70207 
L 123.552 473.483714 
L 126.72 473.332316 
L 129.888 478.66488 
L 133.056 479.198977 
L 136.224 481.343778 
L 142.56 478.387318 
L 148.896 486.117012 
L 152.064 485.040406 
L 155.232 483.488579 
L 158.4 483.791375 
L 161.568 486.449245 
L 164.736 484.678733 
L 167.904 481.162942 
L 171.072 483.009153 
L 174.24 483.189989 
L 177.408 481.453121 
L 180.576 483.934361 
L 183.744 485.746928 
L 190.08 479.468129 
L 193.248 481.478354 
L 196.416 485.788983 
L 199.584 483.757731 
L 202.752 485.852066 
L 205.92 485.162365 
L 209.088 480.889585 
L 212.256 485.667024 
L 215.424 482.904016 
L 218.592 483.74932 
L 221.76 479.396636 
L 224.928 486.209532 
L 228.096 488.228169 
L 231.264 487.084275 
L 234.432 489.552898 
L 237.6 493.001402 
L 240.768 490.171106 
L 243.936 487.504824 
L 247.104 487.521646 
L 250.272 485.435722 
L 253.44 492.067783 
L 256.608 490.982766 
L 259.776 491.222479 
L 262.944 491.710316 
L 266.112 490.915478 
L 269.28 488.539375 
L 272.448 484.6535 
L 275.616 482.277398 
L 281.952 487.016987 
L 285.12 483.36662 
L 288.288 483.698854 
L 291.456 484.199307 
L 294.624 485.090872 
L 297.792 486.874 
L 300.96 485.894121 
L 304.128 490.360353 
L 307.296 492.917292 
L 310.464 494.805558 
L 313.632 494.359776 
L 316.8 496.996619 
L 319.968 498.144718 
L 323.136 498.788159 
L 326.304 498.880679 
L 329.472 496.172343 
L 332.64 492.98458 
L 335.808 493.11495 
L 338.976 498.388637 
L 342.144 496.824194 
L 345.312 496.655974 
L 351.648 492.677579 
L 354.816 492.740661 
L 357.984 491.432753 
L 364.32 491.558918 
L 367.488 492.093016 
L 373.824 490.259421 
L 376.992 489.027212 
L 380.16 488.758061 
L 383.328 485.906737 
L 389.664 483.732498 
L 392.832 483.063825 
L 396 483.248866 
L 399.168 486.600643 
L 405.504 485.990847 
L 408.672 485.439927 
L 411.84 483.387647 
L 415.008 485.536654 
L 418.176 483.156345 
L 421.344 482.819906 
L 427.68 480.80127 
L 430.848 483.644182 
L 434.016 480.965284 
L 437.184 481.339573 
L 440.352 479.573266 
L 443.52 479.69102 
L 446.688 474.320607 
L 449.856 475.001897 
L 453.024 475.233199 
L 456.192 476.869135 
L 459.36 480.700338 
L 462.528 482.933454 
L 465.696 482.42459 
L 468.864 481.722273 
L 472.032 486.634287 
L 475.2 487.382865 
L 478.368 488.737033 
L 481.536 490.705203 
L 484.704 488.623485 
L 487.872 489.241692 
L 491.04 490.234188 
L 494.208 486.899233 
L 497.376 485.877299 
L 500.544 485.93197 
L 503.712 486.869795 
L 506.88 495.116764 
L 510.048 495.785437 
L 513.216 497.804074 
L 519.552 494.069597 
L 522.72 496.698029 
L 529.056 498.813392 
L 532.224 498.056403 
L 535.392 499.889998 
L 538.56 499.002639 
L 541.728 493.325225 
L 544.896 494.948545 
L 548.064 495.953657 
L 551.232 492.690195 
L 554.4 490.225777 
L 560.736 489.876721 
L 563.904 492.429455 
L 567.072 493.211676 
L 570.24 493.03084 
L 573.408 494.027542 
L 576.576 493.056073 
L 579.744 495.747588 
L 582.912 493.716335 
L 586.08 492.118249 
L 589.248 496.142904 
L 592.416 498.678816 
L 595.584 496.126082 
L 598.752 492.875237 
L 601.92 489.931393 
L 605.088 489.977653 
L 608.256 489.594953 
L 611.424 486.402985 
L 614.592 487.462769 
L 617.76 487.492207 
L 624.096 493.615404 
L 627.264 492.551414 
L 630.432 489.927187 
L 633.6 489.561309 
L 636.768 491.40752 
L 639.936 480.914818 
L 643.104 479.552239 
L 646.272 482.925043 
L 649.44 480.818092 
L 652.608 479.564855 
L 655.776 481.024161 
L 658.944 480.292405 
L 662.112 478.778428 
L 665.28 475.37198 
L 668.448 476.789231 
L 671.616 474.741156 
L 674.784 477.878453 
L 677.952 479.123279 
L 681.12 475.746269 
L 684.288 474.450977 
L 687.456 474.064072 
L 690.624 477.390616 
L 693.792 478.49666 
L 696.96 477.361178 
L 700.128 475.704214 
L 703.296 477.222396 
L 706.464 474.068277 
L 709.632 472.003381 
L 712.8 471.776284 
L 715.968 474.228086 
L 719.136 476.019626 
L 722.304 478.547126 
L 725.472 479.594294 
L 728.64 477.693411 
L 731.808 479.055991 
L 734.976 477.958357 
L 738.144 477.613507 
L 741.312 479.220005 
L 744.48 477.251835 
L 747.648 479.165334 
L 750.816 479.144306 
L 753.984 477.537808 
L 757.152 479.329348 
L 760.32 478.463016 
L 763.488 478.345263 
L 766.656 477.159314 
L 769.824 473.639317 
L 772.992 473.273439 
L 776.16 472.709904 
L 782.496 475.872433 
L 785.664 481.259669 
L 788.832 479.527006 
L 788.832 479.527006 
" clip-path="url(#pc3a705f799)" style="fill: none; stroke: #000000; stroke-width: 1.5; stroke-linecap: square"/>
   </g>
   <g id="line2d_2">
    <path d="M 0 459 
L 3.168 459 
L 6.336 460.354168 
L 9.504 461.149607 
L 12.672 461.658432 
L 15.84 459.69377 
L 19.008 457.992686 
L 22.176 455.391365 
L 25.344 450.921243 
L 28.512 454.327068 
L 31.68 459.091119 
L 34.848 460.403876 
L 38.016 460.196157 
L 41.184 459.482114 
L 44.352 461.084456 
L 47.52 462.900322 
L 50.688 463.544306 
L 53.856 463.500074 
L 57.024 464.142904 
L 60.192 464.916269 
L 63.36 465.532201 
L 66.528 472.323328 
L 69.696 477.340925 
L 72.864 478.8346 
L 76.032 478.862637 
L 79.2 479.051159 
L 82.368 478.209747 
L 85.536 476.284242 
L 88.704 475.956016 
L 91.872 475.787697 
L 95.04 476.011709 
L 98.208 477.400594 
L 101.376 478.000742 
L 104.544 478.143927 
L 107.712 478.461928 
L 110.88 478.295374 
L 114.048 476.060625 
L 117.216 474.442863 
L 123.552 470.572376 
L 126.72 472.018009 
L 129.888 472.665441 
L 133.056 475.664946 
L 136.224 477.434089 
L 139.392 479.403661 
L 142.56 479.630444 
L 145.728 479.02426 
L 148.896 480.677447 
L 152.064 483.422 
L 155.232 484.25416 
L 158.4 483.880828 
L 161.568 483.845106 
L 164.736 485.157186 
L 167.904 484.927468 
L 171.072 483.050647 
L 177.408 483.104923 
L 180.576 482.271988 
L 183.744 483.104049 
L 186.912 484.429323 
L 190.08 483.484506 
L 193.248 481.4661 
L 196.416 481.472846 
L 199.584 483.636365 
L 202.752 483.698161 
L 205.92 484.783739 
L 209.088 484.97546 
L 212.256 482.922998 
L 215.424 484.301113 
L 218.592 483.609302 
L 221.76 483.683764 
L 224.928 481.527666 
L 228.096 483.873406 
L 231.264 486.055447 
L 234.432 486.573629 
L 237.6 488.080251 
L 240.768 490.555207 
L 243.936 490.377406 
L 247.104 488.948479 
L 250.272 488.250994 
L 253.44 486.841841 
L 256.608 489.46234 
L 259.776 490.230197 
L 266.112 491.217432 
L 269.28 491.067915 
L 272.448 489.805673 
L 278.784 484.744488 
L 281.952 484.697122 
L 285.12 485.849278 
L 288.288 484.592546 
L 291.456 484.129991 
L 294.624 484.15148 
L 297.792 484.614414 
L 300.96 485.748561 
L 304.128 485.828432 
L 307.296 488.105533 
L 310.464 490.522982 
L 313.632 492.686699 
L 316.8 493.544141 
L 319.968 495.295473 
L 323.136 496.745691 
L 326.304 497.790286 
L 329.472 498.360947 
L 332.64 497.278041 
L 335.808 495.131442 
L 338.976 494.119881 
L 342.144 496.262159 
L 345.312 496.542838 
L 348.48 496.596487 
L 351.648 495.606663 
L 354.816 494.129958 
L 357.984 493.428581 
L 361.152 492.427624 
L 364.32 491.973332 
L 367.488 491.752734 
L 370.656 491.913598 
L 373.824 491.559495 
L 376.992 490.900882 
L 380.16 489.95689 
L 383.328 489.349666 
L 386.496 487.617366 
L 389.664 486.22962 
L 392.832 484.965713 
L 396 483.997064 
L 399.168 483.607323 
L 402.336 485.096809 
L 405.504 485.689866 
L 408.672 485.83493 
L 411.84 485.636514 
L 415.008 484.509178 
L 418.176 485.026453 
L 421.344 484.091581 
L 424.512 483.454902 
L 430.848 481.688876 
L 434.016 482.661928 
L 437.184 481.804832 
L 440.352 481.568187 
L 443.52 480.559034 
L 446.688 480.118232 
L 449.856 477.202754 
L 453.024 476.089074 
L 456.192 475.650219 
L 459.36 476.246392 
L 465.696 480.706275 
L 468.864 481.571023 
L 472.032 481.650631 
L 475.2 484.166603 
L 478.368 485.79901 
L 481.536 487.2945 
L 484.704 489.026981 
L 487.872 488.840769 
L 491.04 489.053599 
L 494.208 489.659207 
L 497.376 488.289371 
L 500.544 487.08185 
L 503.712 486.504065 
L 506.88 486.683269 
L 510.048 490.908667 
L 513.216 493.361095 
L 516.384 495.599373 
L 519.552 495.781397 
L 522.72 494.939556 
L 529.056 496.838987 
L 532.224 497.849608 
L 535.392 497.95877 
L 538.56 498.932432 
L 541.728 498.969885 
L 544.896 496.142426 
L 548.064 495.547209 
L 551.232 495.748973 
L 554.4 494.209582 
L 557.568 492.200841 
L 560.736 491.136736 
L 563.904 490.487095 
L 570.24 492.328309 
L 573.408 492.675814 
L 576.576 493.347901 
L 579.744 493.202705 
L 582.912 494.485973 
L 586.08 494.108238 
L 589.248 493.117638 
L 592.416 494.637553 
L 595.584 496.668904 
L 598.752 496.403562 
L 601.92 494.63714 
L 605.088 492.27814 
L 608.256 491.116583 
L 611.424 490.347687 
L 614.592 488.36413 
L 617.76 487.896429 
L 620.928 487.672384 
L 624.096 489.112724 
L 627.264 491.365515 
L 630.432 491.963602 
L 633.6 490.945296 
L 636.768 490.253237 
L 639.936 490.840191 
L 643.104 485.864666 
L 646.272 482.692884 
L 649.44 482.793964 
L 652.608 481.780935 
L 655.776 480.647431 
L 658.944 480.818339 
L 662.112 480.537198 
L 665.28 479.63305 
L 668.448 477.491647 
L 671.616 477.135021 
L 674.784 475.922042 
L 677.952 476.894483 
L 681.12 478.008015 
L 687.456 475.647431 
L 690.624 474.846508 
L 696.96 477.312938 
L 700.128 477.342195 
L 703.296 476.518941 
L 706.464 476.866942 
L 709.632 475.464319 
L 712.8 473.729051 
L 715.968 472.748182 
L 719.136 473.481933 
L 722.304 474.745922 
L 725.472 476.64885 
L 728.64 478.129199 
L 731.808 477.912229 
L 734.976 478.49389 
L 741.312 477.937099 
L 744.48 478.58834 
L 747.648 477.922504 
L 750.816 478.545131 
L 753.984 478.843836 
L 757.152 478.190517 
L 760.32 478.760468 
L 766.656 478.480432 
L 769.824 477.815832 
L 772.992 475.720491 
L 776.16 474.485413 
L 779.328 473.585042 
L 782.496 473.914851 
L 785.664 474.886864 
L 788.832 478.07875 
L 788.832 478.07875 
" clip-path="url(#pc3a705f799)" style="fill: none; stroke: #000000; stroke-width: 1.5; stroke-linecap: square"/>
   </g>
   <g id="line2d_3">
    <path d="M 0 459 
L 3.168 459 
L 6.336 460.18988 
L 9.504 460.895014 
L 12.672 461.367017 
L 15.84 460.11638 
L 19.008 459.296439 
L 22.176 457.621396 
L 25.344 454.142178 
L 28.512 455.244133 
L 31.68 457.958826 
L 34.848 459.570587 
L 38.016 459.697374 
L 41.184 459.421087 
L 44.352 460.379334 
L 47.52 461.647683 
L 50.688 462.383977 
L 53.856 462.697436 
L 63.36 464.63104 
L 66.528 468.874182 
L 69.696 472.829397 
L 72.864 475.034661 
L 76.032 476.17477 
L 79.2 477.07804 
L 82.368 477.167693 
L 85.536 476.349514 
L 91.872 476.014448 
L 95.04 476.101786 
L 98.208 476.90689 
L 101.376 477.419914 
L 107.712 478.025054 
L 110.88 478.065383 
L 117.216 475.65629 
L 123.552 472.537855 
L 126.72 472.808746 
L 129.888 472.955382 
L 133.056 474.629201 
L 136.224 475.973256 
L 139.392 477.552854 
L 142.56 478.224577 
L 145.728 478.274687 
L 148.896 479.451053 
L 152.064 481.412099 
L 155.232 482.482558 
L 161.568 483.084606 
L 164.736 484.084577 
L 167.904 484.272204 
L 171.072 483.373719 
L 177.408 483.26717 
L 180.576 482.745175 
L 183.744 483.099532 
L 186.912 483.882458 
L 190.08 483.495034 
L 193.248 482.315165 
L 196.416 482.073619 
L 199.584 483.165858 
L 202.752 483.336503 
L 205.92 484.074227 
L 209.088 484.394858 
L 212.256 483.364854 
L 215.424 484.038246 
L 218.592 483.703999 
L 221.76 483.720244 
L 224.928 482.449739 
L 228.096 483.554425 
L 231.264 484.931115 
L 234.432 485.565379 
L 237.6 486.737668 
L 240.768 488.584272 
L 243.936 489.061338 
L 247.104 488.612368 
L 250.272 488.294893 
L 253.44 487.459388 
L 256.608 488.816295 
L 262.944 489.986336 
L 266.112 490.49822 
L 269.28 490.629634 
L 272.448 490.022913 
L 275.616 488.456286 
L 278.784 486.642015 
L 281.952 486.062906 
L 285.12 486.342273 
L 288.288 485.463619 
L 291.456 484.936046 
L 294.624 484.713401 
L 297.792 484.821187 
L 300.96 485.421698 
L 304.128 485.560594 
L 307.296 486.96445 
L 313.632 490.499618 
L 316.8 491.633275 
L 323.136 494.667189 
L 326.304 495.890428 
L 329.472 496.785323 
L 332.64 496.618987 
L 335.808 495.561348 
L 338.976 494.856012 
L 342.144 495.907566 
L 345.312 496.190541 
L 348.48 496.340147 
L 351.648 495.849086 
L 354.816 494.927965 
L 357.984 494.290052 
L 361.152 493.451464 
L 364.32 492.883528 
L 367.488 492.492342 
L 370.656 492.36975 
L 373.824 492.027007 
L 376.992 491.499497 
L 380.16 490.764064 
L 383.328 490.168003 
L 389.664 487.717904 
L 392.832 486.533772 
L 396 485.501643 
L 399.168 484.82642 
L 402.336 485.336852 
L 405.504 485.609757 
L 408.672 485.713623 
L 411.84 485.626576 
L 415.008 484.961462 
L 418.176 485.123015 
L 427.68 483.351322 
L 430.848 482.594981 
L 434.016 482.896411 
L 437.184 482.325121 
L 440.352 482.032408 
L 443.52 481.307365 
L 446.688 480.830074 
L 449.856 478.913241 
L 453.024 477.754312 
L 456.192 477.003191 
L 459.36 476.95345 
L 462.528 478.045444 
L 465.696 479.476587 
L 468.864 480.336463 
L 472.032 480.74071 
L 475.2 482.47128 
L 484.704 486.91769 
L 491.04 487.966952 
L 494.208 488.643255 
L 497.376 488.140722 
L 500.544 487.491055 
L 503.712 487.046964 
L 506.88 487.008438 
L 510.048 489.404271 
L 516.384 493.215431 
L 519.552 494.029269 
L 522.72 494.055263 
L 529.056 495.717033 
L 532.224 496.635509 
L 535.392 497.060123 
L 538.56 497.901915 
L 541.728 498.235521 
L 544.896 496.800879 
L 548.064 496.267588 
L 551.232 496.187213 
L 554.4 495.170723 
L 557.568 493.726237 
L 560.736 492.659497 
L 563.904 491.837654 
L 567.072 492.004815 
L 570.24 492.355162 
L 573.408 492.55187 
L 576.576 492.981017 
L 579.744 492.997562 
L 582.912 493.799504 
L 586.08 493.77016 
L 589.248 493.277399 
L 592.416 494.113402 
L 595.584 495.45673 
L 598.752 495.654131 
L 601.92 494.836676 
L 605.088 493.396783 
L 608.256 492.395058 
L 611.424 491.574342 
L 614.592 490.055697 
L 617.76 489.290541 
L 620.928 488.757252 
L 624.096 489.286788 
L 627.264 490.554137 
L 630.432 491.138546 
L 636.768 490.416204 
L 639.936 490.705737 
L 643.104 487.820553 
L 646.272 485.376851 
L 649.44 484.64357 
L 655.776 482.342067 
L 662.112 481.450831 
L 665.28 480.659345 
L 668.448 479.096824 
L 671.616 478.408652 
L 674.784 477.316281 
L 677.952 477.462862 
L 681.12 477.933763 
L 684.288 477.276773 
L 687.456 476.43176 
L 690.624 475.71836 
L 693.792 476.204104 
L 696.96 476.874366 
L 700.128 477.010559 
L 703.296 476.622066 
L 706.464 476.795208 
L 709.632 475.988519 
L 712.8 474.811778 
L 715.968 473.91466 
L 719.136 474.005146 
L 722.304 474.59429 
L 728.64 476.882478 
L 731.808 477.118353 
L 734.976 477.689675 
L 738.144 477.772399 
L 741.312 477.729938 
L 744.48 478.168469 
L 747.648 477.898564 
L 750.816 478.271664 
L 753.984 478.531206 
L 757.152 478.240609 
L 760.32 478.565536 
L 766.656 478.492579 
L 769.824 478.105441 
L 772.992 476.79461 
L 776.16 475.757225 
L 779.328 474.856778 
L 782.496 474.677314 
L 785.664 475.0237 
L 788.832 476.853965 
L 788.832 476.853965 
" clip-path="url(#pc3a705f799)" style="fill: none; stroke: #000000; stroke-width: 1.5; stroke-linecap: square"/>
   </g>
   <g id="line2d_4">
    <path d="M 0 459 
L 3.168 459 
L 6.336 460.103404 
L 9.504 460.748137 
L 12.672 461.179472 
L 15.84 460.265958 
L 22.176 459.018844 
L 25.344 456.389543 
L 28.512 456.661264 
L 31.68 458.122741 
L 34.848 459.269945 
L 38.016 459.402093 
L 41.184 459.288733 
L 44.352 459.878375 
L 47.52 460.704673 
L 50.688 461.289674 
L 53.856 461.650238 
L 63.36 463.303025 
L 69.696 468.543146 
L 72.864 470.443798 
L 76.032 471.799752 
L 79.2 472.989279 
L 82.368 473.685869 
L 85.536 473.788481 
L 95.04 474.635775 
L 98.208 475.300651 
L 101.376 475.827935 
L 107.712 476.64737 
L 110.88 476.890922 
L 117.216 475.852134 
L 120.384 475.015638 
L 123.552 474.018463 
L 129.888 473.856743 
L 136.224 475.370303 
L 139.392 476.334023 
L 142.56 476.903357 
L 145.728 477.149269 
L 148.896 477.976149 
L 152.064 479.285094 
L 155.232 480.214264 
L 161.568 481.24259 
L 164.736 482.083669 
L 167.904 482.500074 
L 171.072 482.286634 
L 177.408 482.531184 
L 180.576 482.361079 
L 183.744 482.615522 
L 186.912 483.120866 
L 190.08 483.035174 
L 193.248 482.470037 
L 196.416 482.315513 
L 199.584 482.872518 
L 202.752 483.016576 
L 205.92 483.47243 
L 209.088 483.745291 
L 212.256 483.29267 
L 215.424 483.677822 
L 218.592 483.560988 
L 221.76 483.599192 
L 224.928 482.937223 
L 228.096 483.465799 
L 231.264 484.232803 
L 234.432 484.691736 
L 237.6 485.471624 
L 240.768 486.676912 
L 243.936 487.239303 
L 250.272 487.327805 
L 253.44 487.026343 
L 256.608 487.832838 
L 266.112 489.268122 
L 269.28 489.534114 
L 272.448 489.38045 
L 275.616 488.629401 
L 278.784 487.618205 
L 281.952 487.152537 
L 285.12 487.132894 
L 288.288 486.532181 
L 291.456 486.082102 
L 294.624 485.785495 
L 297.792 485.677232 
L 300.96 485.868319 
L 304.128 485.873757 
L 307.296 486.590403 
L 310.464 487.601873 
L 313.632 488.756687 
L 316.8 489.653583 
L 326.304 493.094937 
L 329.472 494.023375 
L 332.64 494.37024 
L 338.976 493.99045 
L 342.144 494.693579 
L 348.48 495.300058 
L 351.648 495.198385 
L 367.488 493.27399 
L 373.824 492.792549 
L 376.992 492.393017 
L 383.328 491.370459 
L 399.168 487.056322 
L 408.672 486.73086 
L 411.84 486.520802 
L 415.008 486.015182 
L 418.176 485.933541 
L 427.68 484.515749 
L 430.848 483.913482 
L 434.016 483.862818 
L 437.184 483.394311 
L 440.352 483.060048 
L 446.688 482.036966 
L 449.856 480.79533 
L 453.024 479.861325 
L 456.192 479.11409 
L 459.36 478.747007 
L 462.528 479.051092 
L 465.696 479.663429 
L 468.864 480.097041 
L 472.032 480.34915 
L 481.536 483.328112 
L 484.704 484.503049 
L 494.208 486.519987 
L 497.376 486.58272 
L 503.712 486.385767 
L 506.88 486.463137 
L 516.384 490.506758 
L 519.552 491.377863 
L 522.72 491.812937 
L 529.056 493.435 
L 532.224 494.301959 
L 535.392 494.908297 
L 538.56 495.712711 
L 541.728 496.247171 
L 544.896 495.790859 
L 548.064 495.666364 
L 551.232 495.725571 
L 554.4 495.253668 
L 560.736 493.777752 
L 563.904 493.16281 
L 567.072 493.052055 
L 579.744 493.212328 
L 582.912 493.620071 
L 586.08 493.637266 
L 589.248 493.397766 
L 592.416 493.838833 
L 595.584 494.61416 
L 598.752 494.86047 
L 601.92 494.548978 
L 605.088 493.816799 
L 611.424 492.629636 
L 614.592 491.633099 
L 620.928 490.405624 
L 624.096 490.430366 
L 627.264 490.935193 
L 630.432 491.18907 
L 636.768 490.751298 
L 639.936 490.850413 
L 646.272 487.70547 
L 649.44 486.937385 
L 655.776 484.929561 
L 662.112 483.658321 
L 665.28 482.874988 
L 668.448 481.67059 
L 671.616 480.883702 
L 674.784 479.894989 
L 677.952 479.564075 
L 681.12 479.485249 
L 687.456 478.161527 
L 690.624 477.498343 
L 693.792 477.469503 
L 696.96 477.620335 
L 700.128 477.567394 
L 703.296 477.260242 
L 706.464 477.246291 
L 709.632 476.730731 
L 715.968 475.291635 
L 719.136 475.114163 
L 722.304 475.251067 
L 728.64 476.36801 
L 731.808 476.569615 
L 734.976 476.958424 
L 753.984 477.955426 
L 757.152 477.887717 
L 760.32 478.116028 
L 766.656 478.197693 
L 769.824 478.033599 
L 776.16 476.685763 
L 779.328 476.049964 
L 782.496 475.761745 
L 785.664 475.779434 
L 788.832 476.655608 
L 788.832 476.655608 
" clip-path="url(#pc3a705f799)" style="fill: none; stroke: #000000; stroke-width: 1.5; stroke-linecap: square"/>
   </g>
   <g id="line2d_5">
    <path d="M 0 459 
L 3.168 459 
L 6.336 460.059597 
L 9.504 460.671146 
L 12.672 461.077069 
L 15.84 460.315718 
L 22.176 459.256935 
L 25.344 457.565383 
L 28.512 457.591895 
L 31.68 458.541544 
L 34.848 459.234786 
L 38.016 459.332606 
L 41.184 459.262835 
L 44.352 459.664924 
L 47.52 460.237828 
L 50.688 460.670945 
L 57.024 461.368233 
L 63.36 462.245794 
L 66.528 463.90881 
L 69.696 465.699929 
L 72.864 467.099769 
L 79.2 469.240599 
L 82.368 469.989837 
L 91.872 471.292572 
L 95.04 471.737892 
L 101.376 472.918473 
L 110.88 474.233655 
L 117.216 474.080962 
L 120.384 473.776085 
L 123.552 473.340104 
L 129.888 473.350691 
L 136.224 474.262498 
L 139.392 474.863495 
L 142.56 475.284204 
L 145.728 475.546626 
L 148.896 476.114936 
L 152.064 476.958245 
L 155.232 477.638782 
L 161.568 478.606294 
L 164.736 479.264499 
L 167.904 479.718458 
L 171.072 479.839469 
L 177.408 480.362875 
L 180.576 480.454014 
L 183.744 480.744779 
L 186.912 481.162453 
L 190.08 481.278667 
L 193.248 481.127635 
L 196.416 481.156879 
L 199.584 481.54297 
L 202.752 481.727507 
L 209.088 482.342365 
L 212.256 482.228021 
L 215.424 482.521113 
L 221.76 482.668158 
L 224.928 482.403942 
L 228.096 482.730005 
L 231.264 483.19598 
L 234.432 483.527267 
L 237.6 484.03643 
L 240.768 484.791228 
L 243.936 485.247959 
L 250.272 485.623276 
L 253.44 485.614637 
L 256.608 486.15954 
L 266.112 487.365305 
L 269.28 487.663822 
L 272.448 487.738526 
L 275.616 487.483909 
L 278.784 487.052911 
L 281.952 486.857654 
L 285.12 486.874034 
L 291.456 486.348904 
L 297.792 486.086323 
L 304.128 486.135104 
L 307.296 486.489711 
L 310.464 487.027777 
L 323.136 489.74462 
L 329.472 491.208404 
L 332.64 491.627824 
L 338.976 491.863312 
L 342.144 492.410436 
L 348.48 493.109737 
L 351.648 493.240194 
L 361.152 493.01958 
L 376.992 492.418657 
L 383.328 491.860847 
L 389.664 490.827617 
L 399.168 489.114524 
L 411.84 488.215084 
L 415.008 487.815239 
L 418.176 487.626083 
L 427.68 486.462059 
L 430.848 485.990476 
L 434.016 485.794251 
L 446.688 484.183097 
L 449.856 483.360259 
L 456.192 482.042554 
L 459.36 481.608234 
L 462.528 481.529536 
L 468.864 481.705174 
L 472.032 481.703601 
L 478.368 482.55054 
L 481.536 483.066096 
L 484.704 483.702072 
L 494.208 485.01361 
L 500.544 485.229864 
L 506.88 485.419444 
L 519.552 488.582715 
L 522.72 489.037152 
L 541.728 492.875344 
L 544.896 492.911035 
L 551.232 493.317842 
L 554.4 493.265117 
L 563.904 492.529212 
L 570.24 492.579069 
L 579.744 492.762431 
L 582.912 493.012374 
L 586.08 493.072414 
L 589.248 492.995244 
L 592.416 493.260157 
L 595.584 493.714748 
L 598.752 493.91913 
L 601.92 493.835625 
L 611.424 492.920749 
L 614.592 492.380114 
L 620.928 491.602043 
L 624.096 491.519203 
L 630.432 491.771144 
L 636.768 491.452047 
L 639.936 491.45175 
L 646.272 489.662064 
L 649.44 489.103971 
L 658.944 487.134125 
L 665.28 485.920325 
L 668.448 485.042394 
L 677.952 483.081341 
L 681.12 482.75015 
L 690.624 480.895657 
L 693.792 480.600895 
L 700.128 480.165256 
L 703.296 479.791696 
L 706.464 479.57562 
L 709.632 479.114366 
L 715.968 477.949422 
L 719.136 477.632893 
L 722.304 477.492514 
L 738.144 477.83479 
L 741.312 477.809174 
L 744.48 477.919828 
L 747.648 477.859156 
L 753.984 478.055047 
L 757.152 478.007186 
L 763.488 478.138604 
L 769.824 478.064643 
L 779.328 476.928535 
L 782.496 476.700733 
L 785.664 476.625519 
L 788.832 477.00608 
L 788.832 477.00608 
" clip-path="url(#pc3a705f799)" style="fill: none; stroke: #000000; stroke-width: 1.5; stroke-linecap: square"/>
   </g>
   <g id="line2d_6">
    <path d="M 0 459 
L 3.168 459 
L 6.336 460.037622 
L 9.504 460.631986 
L 12.672 461.024145 
L 15.84 460.33357 
L 22.176 459.370244 
L 25.344 458.138309 
L 28.512 458.08579 
L 31.68 458.825896 
L 34.848 459.252307 
L 38.016 459.330157 
L 41.184 459.274462 
L 44.352 459.590772 
L 50.688 460.391221 
L 57.024 460.962398 
L 63.36 461.670068 
L 72.864 465.316873 
L 79.2 467.034972 
L 82.368 467.680164 
L 95.04 469.387017 
L 101.376 470.417208 
L 110.88 471.662238 
L 117.216 471.834882 
L 126.72 471.704335 
L 129.888 471.787421 
L 148.896 473.949863 
L 155.232 475.045148 
L 167.904 476.741731 
L 174.24 477.232219 
L 190.08 478.530157 
L 196.416 478.705159 
L 202.752 479.240424 
L 209.088 479.791506 
L 212.256 479.840765 
L 215.424 480.101481 
L 221.76 480.38351 
L 224.928 480.339646 
L 234.432 481.209318 
L 237.6 481.57734 
L 240.768 482.080377 
L 243.936 482.436055 
L 250.272 482.871672 
L 253.44 482.983886 
L 259.776 483.712696 
L 269.28 484.658534 
L 272.448 484.827131 
L 304.128 484.837955 
L 310.464 485.412936 
L 319.968 486.647987 
L 329.472 488.122758 
L 332.64 488.467683 
L 338.976 488.851822 
L 345.312 489.583521 
L 351.648 490.088867 
L 361.152 490.356062 
L 376.992 490.542382 
L 383.328 490.404488 
L 392.832 489.718791 
L 399.168 489.171971 
L 411.84 488.684502 
L 443.52 486.41519 
L 446.688 486.133586 
L 453.024 485.185612 
L 459.36 484.432958 
L 465.696 484.223248 
L 472.032 484.047233 
L 481.536 484.485512 
L 487.872 484.917178 
L 497.376 485.391684 
L 506.88 485.499143 
L 541.728 490.029213 
L 548.064 490.376013 
L 551.232 490.615408 
L 557.568 490.685465 
L 567.072 490.707182 
L 592.416 491.662801 
L 595.584 491.962938 
L 598.752 492.142211 
L 601.92 492.175184 
L 611.424 491.891583 
L 617.76 491.482273 
L 620.928 491.313411 
L 624.096 491.283373 
L 630.432 491.43557 
L 639.936 491.301142 
L 649.44 490.060565 
L 665.28 488.107412 
L 674.784 486.578608 
L 687.456 485.00576 
L 690.624 484.539714 
L 709.632 482.720951 
L 715.968 481.81537 
L 722.304 481.255286 
L 747.648 480.378532 
L 766.656 479.968798 
L 769.824 479.847296 
L 782.496 478.822742 
L 785.664 478.695472 
L 788.832 478.802938 
L 788.832 478.802938 
" clip-path="url(#pc3a705f799)" style="fill: none; stroke: #000000; stroke-width: 1.5; stroke-linecap: square"/>
   </g>
   <g id="line2d_7">
    <path d="M 0 459 
L 3.168 459 
L 6.336 460.026626 
L 9.504 460.612272 
L 12.672 460.997317 
L 15.84 460.34069 
L 22.176 459.424768 
L 25.344 458.417099 
L 28.512 458.334985 
L 31.68 458.982839 
L 34.848 459.269441 
L 38.016 459.337524 
L 41.184 459.287491 
L 44.352 459.56434 
L 50.688 460.266608 
L 57.024 460.771365 
L 63.36 461.390008 
L 72.864 464.460109 
L 79.2 465.935119 
L 82.368 466.501614 
L 95.04 468.058852 
L 101.376 468.960937 
L 110.88 470.07738 
L 117.216 470.327431 
L 126.72 470.392993 
L 129.888 470.500006 
L 148.896 472.30814 
L 155.232 473.16802 
L 171.072 474.7652 
L 190.08 476.200078 
L 196.416 476.445879 
L 205.92 477.169499 
L 209.088 477.394677 
L 212.256 477.492478 
L 218.592 477.862959 
L 221.76 478.024571 
L 224.928 478.062015 
L 234.432 478.780296 
L 250.272 480.124307 
L 253.44 480.262559 
L 266.112 481.375034 
L 272.448 481.793573 
L 307.296 482.658992 
L 316.8 483.467596 
L 332.64 485.106528 
L 338.976 485.480124 
L 348.48 486.297821 
L 357.984 486.782622 
L 376.992 487.383421 
L 386.496 487.416702 
L 427.68 486.597632 
L 449.856 485.618294 
L 459.36 484.967047 
L 468.864 484.774575 
L 475.2 484.749446 
L 484.704 485.024728 
L 500.544 485.355378 
L 506.88 485.401356 
L 532.224 487.222126 
L 544.896 488.098532 
L 554.4 488.511519 
L 570.24 488.793778 
L 592.416 489.53869 
L 598.752 489.877145 
L 605.088 489.942213 
L 614.592 489.858568 
L 624.096 489.77395 
L 633.6 489.916167 
L 639.936 489.940995 
L 671.616 487.888174 
L 677.952 487.393207 
L 684.288 486.96626 
L 693.792 486.22729 
L 706.464 485.470479 
L 722.304 484.248008 
L 753.984 483.127016 
L 776.16 482.224145 
L 782.496 481.852169 
L 785.664 481.723438 
L 788.832 481.713455 
L 788.832 481.713455 
" clip-path="url(#pc3a705f799)" style="fill: none; stroke: #000000; stroke-width: 1.5; stroke-linecap: square"/>
   </g>
   <g id="line2d_8">
    <path d="M 0 459 
L 3.168 459 
L 6.336 460.021126 
L 9.504 460.602385 
L 12.672 460.983821 
L 15.84 460.343796 
L 22.176 459.451415 
L 25.344 458.554096 
L 28.512 458.459482 
L 31.68 459.02145 
L 34.848 459.27996 
L 44.352 459.553964 
L 50.688 460.208958 
L 57.024 460.680533 
L 63.36 461.254842 
L 72.864 464.049808 
L 79.2 465.400942 
L 82.368 465.92406 
L 98.208 467.812523 
L 107.712 468.927504 
L 110.88 469.241155 
L 117.216 469.506634 
L 129.888 469.746275 
L 148.896 471.35763 
L 155.232 472.097467 
L 171.072 473.503149 
L 190.08 474.795893 
L 196.416 475.044887 
L 209.088 475.882978 
L 215.424 476.187553 
L 231.264 476.953343 
L 237.6 477.391488 
L 243.936 477.928908 
L 262.944 479.119957 
L 272.448 479.713806 
L 307.296 480.683675 
L 319.968 481.582635 
L 332.64 482.606593 
L 342.144 483.174187 
L 351.648 483.76176 
L 370.656 484.483193 
L 383.328 484.792207 
L 396 484.768628 
L 405.504 484.795201 
L 421.344 484.78795 
L 443.52 484.484252 
L 449.856 484.279763 
L 459.36 483.933788 
L 472.032 483.828693 
L 487.872 484.127781 
L 500.544 484.330469 
L 506.88 484.384427 
L 535.392 485.746802 
L 544.896 486.187129 
L 557.568 486.547865 
L 573.408 486.867046 
L 608.256 487.76002 
L 643.104 487.92106 
L 687.456 486.421236 
L 696.96 486.077672 
L 712.8 485.451954 
L 722.304 485.052806 
L 782.496 483.499147 
L 788.832 483.386134 
L 788.832 483.386134 
" clip-path="url(#pc3a705f799)" style="fill: none; stroke: #000000; stroke-width: 1.5; stroke-linecap: square"/>
   </g>
   <g id="line2d_9">
    <path d="M 0 459 
L 3.168 459 
L 6.336 460.018376 
L 9.504 460.597434 
L 12.672 460.977053 
L 15.84 460.345235 
L 22.176 459.464576 
L 25.344 458.621938 
L 28.512 458.521622 
L 31.68 459.035258 
L 34.848 459.285684 
L 44.352 459.549497 
L 50.688 460.181383 
L 57.024 460.636484 
L 63.36 461.188827 
L 72.864 463.850294 
L 79.2 465.139678 
L 82.368 465.640511 
L 98.208 467.453854 
L 107.712 468.517722 
L 110.88 468.81789 
L 117.216 469.085767 
L 129.888 469.348223 
L 148.896 470.857493 
L 155.232 471.53784 
L 171.072 472.841337 
L 190.08 474.048719 
L 196.416 474.291481 
L 209.088 475.065068 
L 218.592 475.483307 
L 234.432 476.24926 
L 250.272 477.269295 
L 256.608 477.617906 
L 272.448 478.554267 
L 310.464 479.685611 
L 351.648 482.171705 
L 373.824 482.937234 
L 386.496 483.182835 
L 427.68 483.327968 
L 453.024 483.017878 
L 462.528 482.858423 
L 478.368 482.924196 
L 516.384 483.703839 
L 557.568 485.056192 
L 576.576 485.416835 
L 614.592 486.133482 
L 627.264 486.252958 
L 639.936 486.401367 
L 671.616 485.874666 
L 693.792 485.356304 
L 709.632 485.021947 
L 725.472 484.627696 
L 769.824 484.005488 
L 788.832 483.62483 
L 788.832 483.62483 
" clip-path="url(#pc3a705f799)" style="fill: none; stroke: #000000; stroke-width: 1.5; stroke-linecap: square"/>
   </g>
  </g>
 </g>
 <defs>
  <clipPath id="pc3a705f799">
   <rect x="0" y="0" width="792" height="612"/>
  </clipPath>
 </defs>
</svg>
