<?xml version="1.0" encoding="utf-8" standalone="no"?>
<!DOCTYPE svg PUBLIC "-//W3C//DTD SVG 1.1//EN"
  "http://www.w3.org/Graphics/SVG/1.1/DTD/svg11.dtd">
<svg xmlns:xlink="http://www.w3.org/1999/xlink" width="792pt" height="612pt" viewBox="0 0 792 612" xmlns="http://www.w3.org/2000/svg" version="1.1">
 <metadata>
  <rdf:RDF xmlns:dc="http://purl.org/dc/elements/1.1/" xmlns:cc="http://creativecommons.org/ns#" xmlns:rdf="http://www.w3.org/1999/02/22-rdf-syntax-ns#">
   <cc:Work>
    <dc:type rdf:resource="http://purl.org/dc/dcmitype/StillImage"/>
    <dc:date>2022-12-19T20:28:53.411283</dc:date>
    <dc:format>image/svg+xml</dc:format>
    <dc:creator>
     <cc:Agent>
      <dc:title>Matplotlib v3.6.2, https://matplotlib.org/</dc:title>
     </cc:Agent>
    </dc:creator>
   </cc:Work>
  </rdf:RDF>
 </metadata>
 <defs>
  <style type="text/css">*{stroke-linejoin: round; stroke-linecap: butt}</style>
 </defs>
 <g id="figure_1">
  <g id="patch_1">
   <path d="M 0 612 
L 792 612 
L 792 0 
L 0 0 
z
" style="fill: #ffffff"/>
  </g>
  <g id="axes_1">
   <g id="line2d_1">
    <path d="M 0 306 
L 3.155378 308.295486 
L 6.310757 301.764114 
L 9.466135 312.251425 
L 12.621514 314.719138 
L 15.776892 304.927751 
L 18.932271 305.192036 
L 22.087649 302.096303 
L 25.243028 304.9202 
L 28.398406 300.699671 
L 31.553785 304.391635 
L 34.709163 302.511552 
L 37.864542 306.679596 
L 41.01992 302.171802 
L 44.175299 310.809642 
L 47.330677 302.82866 
L 50.486056 310.228336 
L 53.641434 307.117555 
L 56.796813 315.171815 
L 59.952191 310.643558 
L 63.10757 306.596535 
L 66.262948 303.938586 
L 69.418327 307.82734 
L 72.573705 317.30637 
L 75.729084 309.986745 
L 78.884462 311.307877 
L 82.039841 313.632559 
L 85.195219 306.362452 
L 88.350598 294.897236 
L 91.505976 309.646999 
L 94.661355 307.283676 
L 97.816733 306.641841 
L 100.972112 298.367441 
L 104.12749 305.667753 
L 107.282869 304.701222 
L 110.438247 302.202001 
L 113.593625 312.734476 
L 116.749004 309.881047 
L 119.904382 307.751832 
L 123.059761 302.911713 
L 126.215139 303.787572 
L 129.370518 313.006178 
L 132.525896 309.624349 
L 135.681275 305.041016 
L 138.836653 304.716324 
L 141.992032 308.393644 
L 148.302789 306.807964 
L 151.458167 329.137571 
L 154.613546 311.828729 
L 157.768924 302.383201 
L 160.924303 303.425142 
L 164.079681 306.619188 
L 167.23506 302.662555 
L 170.390438 300.624184 
L 173.545817 308.272834 
L 176.701195 306.075511 
L 179.856574 307.125106 
L 183.011952 310.552966 
L 186.167331 305.65265 
L 189.322709 305.441221 
L 192.478088 306.868372 
L 195.633466 304.814486 
L 198.788845 298.314616 
L 201.944223 304.210414 
L 205.099602 301.884909 
L 208.25498 302.692755 
L 211.410359 314.583327 
L 214.565737 305.728161 
L 217.721116 315.571647 
L 220.876494 306.958984 
L 224.031873 309.850848 
L 227.187251 303.281682 
L 230.342629 303.410041 
L 233.498008 312.983537 
L 236.653386 312.892971 
L 239.808765 304.066949 
L 242.964143 303.213728 
L 246.119522 306.543677 
L 249.2749 310.771896 
L 252.430279 302.821109 
L 255.585657 299.688192 
L 258.741036 309.314795 
L 261.896414 306.324696 
L 265.051793 302.881512 
L 268.207171 310.454823 
L 271.36255 309.254393 
L 274.517928 300.2694 
L 277.673307 300.458113 
L 280.828685 309.609249 
L 283.984064 313.738208 
L 287.139442 302.353001 
L 290.294821 309.760249 
L 293.450199 304.76163 
L 296.605578 298.329709 
L 299.760956 314.575782 
L 302.916335 301.039375 
L 306.071713 307.517755 
L 309.227092 298.18633 
L 312.38247 318.226239 
L 315.537849 309.624349 
L 318.693227 303.946137 
L 321.848606 310.432174 
L 325.003984 312.191041 
L 328.159363 300.91859 
L 331.314741 301.213005 
L 334.47012 306.030204 
L 337.625498 302.254851 
L 340.780876 317.902047 
L 343.936255 304.051847 
L 347.091633 306.430411 
L 350.247012 306.875923 
L 353.40239 304.572856 
L 359.713147 299.02401 
L 362.868526 301.733916 
L 366.023904 310.311382 
L 369.179283 310.198138 
L 372.334661 299.446664 
L 375.49004 306.596535 
L 378.645418 306.898576 
L 381.800797 307.600815 
L 384.956175 309.201541 
L 388.111554 304.240618 
L 391.266932 314.017413 
L 394.422311 310.590713 
L 397.577689 309.390297 
L 400.733068 305.199587 
L 403.888446 310.73415 
L 407.043825 308.061414 
L 413.354582 306.166124 
L 416.50996 301.137513 
L 419.665339 300.276948 
L 422.820717 306.234083 
L 425.976096 315.466034 
L 429.131474 303.191077 
L 432.286853 305.697957 
L 435.442231 302.368101 
L 438.59761 302.488902 
L 441.752988 306.113266 
L 444.908367 303.65166 
L 448.063745 306.166124 
L 451.219124 306.060409 
L 454.374502 306.958984 
L 457.52988 304.444491 
L 460.685259 304.26327 
L 463.840637 303.787572 
L 466.996016 305.516731 
L 470.151394 300.880845 
L 473.306773 304.134906 
L 476.462151 303.961238 
L 479.61753 304.799384 
L 482.772908 306.332247 
L 485.928287 312.017436 
L 489.083665 305.448772 
L 492.239044 305.456323 
L 495.394422 305.010812 
L 498.549801 302.315251 
L 501.705179 309.858398 
L 504.860558 301.726366 
L 508.015936 305.395914 
L 511.171315 304.097152 
L 514.326693 304.278372 
L 517.482072 311.104057 
L 520.63745 301.190358 
L 523.792829 306.672045 
L 526.948207 302.82866 
L 530.103586 306.21143 
L 533.258964 296.36046 
L 536.414343 307.223269 
L 539.569721 306.415309 
L 542.7251 308.93728 
L 545.880478 312.877876 
L 549.035857 310.009394 
L 552.191235 305.086322 
L 555.346614 304.738977 
L 558.501992 314.817221 
L 561.657371 307.344084 
L 567.968127 309.533749 
L 571.123506 302.262401 
L 574.278884 307.110004 
L 577.434263 307.782035 
L 580.589641 300.012757 
L 583.74502 304.165109 
L 586.900398 306.098164 
L 590.055777 307.683874 
L 593.211155 320.796122 
L 596.366534 307.200616 
L 599.521912 309.624349 
L 602.677291 302.655004 
L 605.832669 302.639904 
L 608.988048 310.719051 
L 612.143426 307.963254 
L 615.298805 307.834891 
L 618.454183 304.640814 
L 621.609562 309.292144 
L 624.76494 304.406736 
L 627.920319 295.80981 
L 631.075697 308.914629 
L 634.231076 307.804687 
L 637.386454 300.141077 
L 640.541833 301.575375 
L 643.697211 305.781019 
L 646.85259 305.592242 
L 650.007968 310.583163 
L 653.163347 307.404491 
L 656.318725 305.675304 
L 659.474104 307.789586 
L 662.629482 304.255719 
L 665.784861 310.83229 
L 668.940239 302.353001 
L 672.095618 303.130673 
L 675.250996 313.225041 
L 678.406375 310.552966 
L 681.561753 301.416837 
L 684.717131 300.163722 
L 687.87251 300.714769 
L 691.027888 306.083062 
L 694.183267 305.312853 
L 697.338645 300.2694 
L 700.494024 307.902848 
L 703.649402 306.052858 
L 706.804781 311.534339 
L 709.960159 311.458852 
L 713.115538 304.089601 
L 716.270916 301.288498 
L 722.581673 309.314795 
L 725.737052 287.183823 
L 728.89243 303.553502 
L 732.047809 312.055176 
L 735.203187 302.217101 
L 738.358566 303.749818 
L 741.513944 308.620161 
L 744.669323 304.68612 
L 747.824701 303.281682 
L 750.98008 299.884439 
L 754.135458 308.544656 
L 757.290837 302.322801 
L 760.446215 311.63247 
L 763.601594 308.23508 
L 766.756972 299.937276 
L 769.912351 303.674312 
L 773.067729 305.305302 
L 776.223108 311.972146 
L 782.533865 303.961238 
L 785.689243 303.024968 
L 788.844622 308.725868 
L 788.844622 308.725868 
" clip-path="url(#p1e194ba67a)" style="fill: none; stroke: #000000; stroke-width: 1.5; stroke-linecap: square"/>
   </g>
   <g id="line2d_2">
    <path d="M 0 306 
L 3.155378 306 
L 6.310757 307.53034 
L 9.466135 304.235224 
L 12.621514 308.51093 
L 15.776892 311.715747 
L 18.932271 308.268159 
L 22.087649 306.718005 
L 25.243028 304.398001 
L 28.398406 304.656982 
L 31.553785 302.663295 
L 34.709163 303.532597 
L 37.864542 303.002968 
L 41.01992 304.825472 
L 44.175299 303.493186 
L 47.330677 307.162594 
L 50.486056 304.997013 
L 53.641434 307.623201 
L 56.796813 307.382964 
L 59.952191 311.299381 
L 63.10757 310.987417 
L 66.262948 308.791957 
L 69.418327 306.368759 
L 72.573705 307.092207 
L 75.729084 312.229403 
L 78.884462 311.107669 
L 82.039841 311.215989 
L 85.195219 312.421355 
L 88.350598 309.383842 
L 91.505976 302.115429 
L 94.661355 305.89239 
L 97.816733 306.58697 
L 100.972112 306.593485 
L 104.12749 302.457043 
L 107.282869 304.051285 
L 110.438247 304.358736 
L 113.593625 303.272178 
L 116.749004 308.038791 
L 119.904382 308.960405 
L 123.059761 308.357045 
L 126.215139 305.627036 
L 129.370518 304.717923 
L 132.525896 308.876966 
L 135.681275 309.260315 
L 138.836653 307.156287 
L 141.992032 305.92058 
L 145.14741 307.154214 
L 148.302789 307.38859 
L 151.458167 307.105918 
L 154.613546 318.187213 
L 157.768924 315.006637 
L 160.924303 308.681868 
L 164.079681 306.050341 
L 167.23506 306.338496 
L 173.545817 302.542848 
L 176.701195 305.410661 
L 179.856574 305.697779 
L 183.011952 306.402221 
L 186.167331 308.493726 
L 189.322709 307.077579 
L 192.478088 306.257092 
L 195.633466 306.570979 
L 198.788845 305.700948 
L 201.944223 301.987674 
L 205.099602 303.095349 
L 208.25498 302.479841 
L 211.410359 302.570887 
L 214.565737 308.595614 
L 217.721116 307.162476 
L 220.876494 311.385141 
L 224.031873 309.176433 
L 227.187251 309.536265 
L 230.342629 306.407195 
L 233.498008 304.911583 
L 236.653386 308.968252 
L 239.808765 310.927498 
L 242.964143 307.494155 
L 246.119522 305.329672 
L 249.2749 305.93586 
L 252.430279 308.355831 
L 255.585657 305.587534 
L 258.741036 302.630252 
L 261.896414 305.965324 
L 265.051793 306.132129 
L 268.207171 304.504454 
L 271.36255 307.493977 
L 274.517928 308.37952 
L 277.673307 304.303571 
L 280.828685 302.376065 
L 283.984064 306.012111 
L 287.139442 309.884452 
L 290.294821 306.110956 
L 293.450199 307.949159 
L 296.605578 306.34424 
L 299.760956 302.314925 
L 302.916335 308.474391 
L 306.071713 304.757839 
L 309.227092 306.133699 
L 312.38247 302.128871 
L 315.537849 310.211579 
L 318.693227 309.917701 
L 321.848606 306.930409 
L 328.159363 310.443543 
L 331.314741 305.680752 
L 334.47012 303.434381 
L 337.625498 304.747653 
L 340.780876 303.469883 
L 343.936255 310.704811 
L 347.091633 307.3787 
L 350.247012 306.89671 
L 353.40239 306.875893 
L 356.557769 305.731537 
L 359.713147 303.733651 
L 362.868526 301.36482 
L 366.023904 301.548345 
L 369.179283 305.914954 
L 372.334661 308.068698 
L 375.49004 303.743541 
L 378.645418 305.169472 
L 384.956175 306.831209 
L 388.111554 308.036363 
L 391.266932 306.143411 
L 394.422311 310.088356 
L 397.577689 310.340307 
L 400.733068 309.884808 
L 403.888446 307.539549 
L 407.043825 309.144455 
L 410.199203 308.603846 
L 413.354582 307.875576 
L 416.50996 307.024633 
L 419.665339 304.055638 
L 422.820717 302.145925 
L 425.976096 304.183735 
L 429.131474 309.846318 
L 432.286853 306.503968 
L 435.442231 306.096328 
L 438.59761 304.222762 
L 441.752988 303.348601 
L 444.908367 304.740664 
L 448.063745 304.202775 
L 451.219124 305.184308 
L 454.374502 305.603909 
L 457.52988 306.288836 
L 460.685259 305.3642 
L 466.996016 304.305051 
L 470.151394 304.909717 
L 473.306773 302.889713 
L 476.462151 303.508317 
L 479.61753 303.73066 
L 482.772908 304.260783 
L 485.928287 305.300209 
L 489.083665 308.674347 
L 492.239044 307.064846 
L 495.394422 306.260468 
L 498.549801 305.643737 
L 501.705179 303.975866 
L 504.860558 306.92878 
L 508.015936 304.321426 
L 511.171315 304.856831 
L 514.326693 304.461458 
L 517.482072 304.36762 
L 520.63745 307.747123 
L 523.792829 304.461073 
L 526.948207 305.575097 
L 530.103586 304.188058 
L 533.258964 305.20853 
L 536.414343 300.765687 
L 539.569721 304.000384 
L 542.7251 305.212024 
L 545.880478 307.070443 
L 549.035857 309.997433 
L 552.191235 310.009957 
L 555.346614 307.552667 
L 558.501992 306.142938 
L 561.657371 310.517173 
L 564.812749 308.930944 
L 567.968127 308.685125 
L 571.123506 309.110612 
L 574.278884 305.66565 
L 580.589641 307.087381 
L 583.74502 303.540473 
L 586.900398 303.831899 
L 590.055777 304.962574 
L 593.211155 306.321765 
L 596.366534 313.585268 
L 599.521912 310.403101 
L 602.677291 310.018661 
L 605.832669 306.326828 
L 608.988048 304.488464 
L 612.143426 307.616775 
L 615.298805 307.793672 
L 618.454183 307.814577 
L 621.609562 306.196002 
L 624.76494 307.748219 
L 627.920319 306.067249 
L 631.075697 300.923682 
L 634.231076 304.931275 
L 637.386454 306.362274 
L 640.541833 303.236054 
L 643.697211 302.393415 
L 646.85259 304.089394 
L 650.007968 304.833556 
L 653.163347 307.720621 
L 656.318725 307.585298 
L 659.474104 306.623955 
L 662.629482 307.206745 
L 665.784861 305.739295 
L 668.940239 308.304102 
L 672.095618 305.321766 
L 675.250996 304.22137 
L 678.406375 308.728977 
L 681.561753 309.647177 
L 684.717131 305.523572 
L 687.87251 302.828452 
L 691.027888 301.764618 
L 694.183267 303.914424 
L 697.338645 304.619435 
L 700.494024 302.438627 
L 703.649402 305.160233 
L 706.804781 305.59772 
L 709.960159 308.58611 
L 713.115538 310.044716 
L 719.426295 304.171624 
L 722.581673 304.757395 
L 725.737052 307.05389 
L 728.89243 297.068839 
L 732.047809 300.305632 
L 735.203187 306.181492 
L 738.358566 304.181099 
L 741.513944 303.964792 
L 744.669323 306.30687 
L 747.824701 305.495203 
L 750.98008 304.376592 
L 754.135458 302.155251 
L 757.290837 305.359669 
L 760.446215 303.822098 
L 763.601594 307.746028 
L 766.756972 307.99935 
L 769.912351 303.950934 
L 773.067729 303.810638 
L 776.223108 304.561929 
L 779.378486 308.291074 
L 782.533865 308.137395 
L 785.689243 306.052532 
L 788.844622 304.521836 
L 788.844622 304.521836 
" clip-path="url(#p1e194ba67a)" style="fill: none; stroke: #000000; stroke-width: 1.5; stroke-linecap: square"/>
   </g>
   <g id="line2d_3">
    <path d="M 0 306 
L 3.155378 306 
L 6.310757 307.344681 
L 9.466135 304.816116 
L 12.621514 307.720102 
L 15.776892 310.210863 
L 18.932271 308.442543 
L 22.087649 307.398207 
L 25.243028 305.74173 
L 28.398406 305.489983 
L 31.553785 304.04154 
L 34.709163 304.146397 
L 37.864542 303.659946 
L 41.01992 304.554241 
L 44.175299 303.850915 
L 47.330677 305.900493 
L 50.486056 304.997215 
L 53.641434 306.534308 
L 56.796813 306.703785 
L 59.952191 309.200106 
L 63.10757 309.621054 
L 66.262948 308.725908 
L 69.418327 307.322631 
L 72.573705 307.473485 
L 75.729084 310.372165 
L 78.884462 310.265098 
L 82.039841 310.582716 
L 85.195219 311.486728 
L 88.350598 309.990475 
L 91.505976 305.554961 
L 94.661355 306.762127 
L 97.816733 306.910835 
L 100.972112 306.836429 
L 104.12749 304.341848 
L 107.282869 304.728527 
L 110.438247 304.7085 
L 113.593625 303.964634 
L 116.749004 306.54061 
L 119.904382 307.525876 
L 123.059761 307.59197 
L 126.215139 306.204594 
L 129.370518 305.489533 
L 132.525896 307.6934 
L 135.681275 308.254378 
L 138.836653 307.311708 
L 141.992032 306.562824 
L 145.14741 307.097629 
L 148.302789 307.252035 
L 151.458167 307.122161 
L 154.613546 313.61711 
L 157.768924 313.100427 
L 160.924303 309.959393 
L 164.079681 308.047068 
L 167.23506 307.621833 
L 170.390438 306.160974 
L 173.545817 304.530948 
L 176.701195 305.633083 
L 179.856574 305.765295 
L 183.011952 306.156819 
L 186.167331 307.445575 
L 192.478088 306.488521 
L 195.633466 306.598025 
L 198.788845 306.072411 
L 201.944223 303.790013 
L 205.099602 303.884464 
L 208.25498 303.28736 
L 211.410359 303.113558 
L 214.565737 306.486393 
L 217.721116 306.263289 
L 220.876494 309.005293 
L 224.031873 308.413239 
L 227.187251 308.836131 
L 230.342629 307.206092 
L 233.498008 306.089974 
L 236.653386 308.112166 
L 239.808765 309.520959 
L 242.964143 307.922015 
L 246.119522 306.538787 
L 249.2749 306.542205 
L 252.430279 307.795457 
L 255.585657 306.336889 
L 258.741036 304.38676 
L 261.896414 305.837782 
L 265.051793 305.970907 
L 268.207171 305.062746 
L 271.36255 306.636257 
L 274.517928 307.405755 
L 277.673307 305.304371 
L 280.828685 303.881546 
L 283.984064 305.566298 
L 287.139442 307.961118 
L 290.294821 306.306399 
L 293.450199 307.324595 
L 296.605578 306.575701 
L 299.760956 304.150622 
L 302.916335 307.209087 
L 306.071713 305.399851 
L 309.227092 306.029168 
L 312.38247 303.718814 
L 315.537849 307.983468 
L 318.693227 308.471832 
L 321.848606 307.138834 
L 325.003984 308.104845 
L 328.159363 309.315501 
L 331.314741 306.856584 
L 334.47012 305.193863 
L 337.625498 305.429965 
L 340.780876 304.49984 
L 343.936255 308.436313 
L 347.091633 307.151341 
L 350.247012 306.949493 
L 353.40239 306.919098 
L 356.557769 306.235958 
L 359.713147 304.91062 
L 362.868526 303.187157 
L 366.023904 302.742547 
L 369.179283 304.960198 
L 372.334661 306.50161 
L 375.49004 304.422365 
L 381.800797 305.600235 
L 384.956175 306.193533 
L 388.111554 307.07823 
L 391.266932 306.249391 
L 394.422311 308.520606 
L 397.577689 309.134469 
L 400.733068 309.212799 
L 403.888446 308.035484 
L 407.043825 308.833033 
L 410.199203 308.614302 
L 413.354582 308.196323 
L 416.50996 307.606794 
L 419.665339 305.701339 
L 422.820717 304.101004 
L 425.976096 304.733555 
L 429.131474 307.888073 
L 432.286853 306.508089 
L 435.442231 306.268621 
L 438.59761 305.118289 
L 441.752988 304.346116 
L 444.908367 304.854616 
L 448.063745 304.494302 
L 451.219124 304.980259 
L 454.374502 305.297615 
L 457.52988 305.779882 
L 466.996016 304.679517 
L 470.151394 304.92976 
L 473.306773 303.744452 
L 482.772908 304.146805 
L 485.928287 304.787625 
L 489.083665 306.916492 
L 492.239044 306.490008 
L 498.549801 305.843705 
L 501.705179 304.805775 
L 504.860558 306.290072 
L 508.015936 304.947306 
L 511.171315 305.079793 
L 514.326693 304.79179 
L 517.482072 304.641976 
L 520.63745 306.541226 
L 523.792829 304.974237 
L 526.948207 305.474426 
L 530.103586 304.698172 
L 533.258964 305.143014 
L 536.414343 302.558415 
L 539.569721 303.919143 
L 542.7251 304.651349 
L 545.880478 305.910688 
L 549.035857 307.96068 
L 552.191235 308.569598 
L 555.346614 307.543918 
L 558.501992 306.725836 
L 561.657371 309.107181 
L 564.812749 308.594527 
L 567.968127 308.551517 
L 571.123506 308.837409 
L 574.278884 306.912866 
L 577.434263 306.971109 
L 580.589641 307.214315 
L 583.74502 305.09769 
L 586.900398 304.833509 
L 590.055777 305.202623 
L 593.211155 305.930826 
L 596.366534 310.301503 
L 599.521912 309.386816 
L 602.677291 309.455946 
L 605.832669 307.461257 
L 608.988048 306.046673 
L 612.143426 307.410571 
L 618.454183 307.649134 
L 621.609562 306.762405 
L 624.76494 307.511449 
L 627.920319 306.598998 
L 631.075697 303.42412 
L 634.231076 305.042465 
L 637.386454 305.855685 
L 640.541833 304.174884 
L 643.697211 303.406445 
L 646.85259 304.084663 
L 650.007968 304.524369 
L 653.163347 306.300143 
L 656.318725 306.629056 
L 659.474104 306.353196 
L 662.629482 306.770544 
L 665.784861 306.029706 
L 668.940239 307.4399 
L 672.095618 305.947311 
L 675.250996 305.115237 
L 678.406375 307.501054 
L 681.561753 308.411934 
L 684.717131 306.35444 
L 687.87251 304.532247 
L 691.027888 303.414693 
L 694.183267 304.201395 
L 697.338645 304.526392 
L 700.494024 303.273301 
L 703.649402 304.62615 
L 706.804781 305.042467 
L 709.960159 306.950794 
L 713.115538 308.275519 
L 716.270916 307.04932 
L 719.426295 305.350946 
L 722.581673 305.35207 
L 725.737052 306.519865 
L 728.89243 300.820063 
L 732.047809 301.612564 
L 735.203187 304.683382 
L 738.358566 303.963352 
L 741.513944 303.904296 
L 744.669323 305.288452 
L 747.824701 305.111312 
L 750.98008 304.578874 
L 754.135458 303.194528 
L 757.290837 304.764374 
L 760.446215 304.038643 
L 763.601594 306.26319 
L 766.756972 306.845515 
L 769.912351 304.820361 
L 773.067729 304.482769 
L 776.223108 304.719076 
L 779.378486 306.872166 
L 782.533865 307.203468 
L 788.844622 305.30245 
L 788.844622 305.30245 
" clip-path="url(#p1e194ba67a)" style="fill: none; stroke: #000000; stroke-width: 1.5; stroke-linecap: square"/>
   </g>
   <g id="line2d_4">
    <path d="M 0 306 
L 3.155378 306 
L 6.310757 307.246955 
L 9.466135 305.095037 
L 12.621514 307.372517 
L 15.776892 309.389891 
L 18.932271 308.291729 
L 22.087649 307.589921 
L 25.243028 306.424481 
L 28.398406 306.121437 
L 31.553785 305.073478 
L 34.709163 304.946051 
L 37.864542 304.503361 
L 41.01992 304.890272 
L 44.175299 304.415793 
L 47.330677 305.514815 
L 50.486056 305.05893 
L 53.641434 305.927067 
L 56.796813 306.125237 
L 59.952191 307.620573 
L 63.10757 308.117094 
L 66.262948 307.868643 
L 69.418327 307.229236 
L 72.573705 307.326199 
L 75.729084 308.940033 
L 78.884462 309.108791 
L 82.039841 309.46261 
L 85.195219 310.132413 
L 88.350598 309.52793 
L 91.505976 307.184085 
L 94.661355 307.578139 
L 100.972112 307.389037 
L 104.12749 305.948662 
L 107.282869 305.902329 
L 110.438247 305.71306 
L 113.593625 305.148138 
L 116.749004 306.354084 
L 119.904382 306.918357 
L 123.059761 307.052565 
L 126.215139 306.394236 
L 129.370518 305.978793 
L 132.525896 307.104745 
L 135.681275 307.508907 
L 141.992032 306.734527 
L 145.14741 307.002386 
L 148.302789 307.099214 
L 151.458167 307.055358 
L 154.613546 310.587243 
L 157.768924 310.787718 
L 160.924303 309.442705 
L 164.079681 308.480843 
L 167.23506 308.18467 
L 170.390438 307.305288 
L 173.545817 306.237724 
L 176.701195 306.555884 
L 179.856574 306.477014 
L 183.011952 306.577518 
L 186.167331 307.208152 
L 192.478088 306.725129 
L 195.633466 306.746186 
L 198.788845 306.437305 
L 201.944223 305.139505 
L 205.099602 304.995328 
L 208.25498 304.498058 
L 211.410359 304.209565 
L 214.565737 305.868135 
L 217.721116 305.841493 
L 220.876494 307.393635 
L 224.031873 307.323986 
L 227.187251 307.730369 
L 230.342629 307.022252 
L 233.498008 306.441541 
L 236.653386 307.484674 
L 239.808765 308.350203 
L 246.119522 306.956357 
L 249.2749 306.890025 
L 252.430279 307.510169 
L 255.585657 306.747666 
L 258.741036 305.616762 
L 261.896414 306.209478 
L 265.051793 306.229618 
L 268.207171 305.694573 
L 271.36255 306.456858 
L 274.517928 306.907358 
L 277.673307 305.846137 
L 280.828685 304.985285 
L 283.984064 305.722548 
L 287.139442 307.000115 
L 290.294821 306.258659 
L 293.450199 306.818498 
L 296.605578 306.489928 
L 299.760956 305.187308 
L 302.916335 306.69155 
L 306.071713 305.790222 
L 309.227092 306.068595 
L 312.38247 304.811422 
L 315.537849 306.949071 
L 318.693227 307.377169 
L 321.848606 306.824024 
L 325.003984 307.400303 
L 328.159363 308.164093 
L 331.314741 307.009785 
L 334.47012 306.086067 
L 337.625498 306.07284 
L 340.780876 305.458717 
L 343.936255 307.448075 
L 347.091633 306.908249 
L 353.40239 306.836686 
L 356.557769 306.477595 
L 359.713147 305.724092 
L 362.868526 304.651479 
L 366.023904 304.18439 
L 369.179283 305.163882 
L 372.334661 305.96473 
L 375.49004 304.921407 
L 384.956175 305.805611 
L 388.111554 306.343102 
L 391.266932 306.009764 
L 394.422311 307.286751 
L 397.577689 307.816101 
L 400.733068 308.073471 
L 403.888446 307.610386 
L 407.043825 308.113476 
L 410.199203 308.105532 
L 413.354582 307.959948 
L 416.50996 307.667021 
L 422.820717 305.610762 
L 425.976096 305.707315 
L 429.131474 307.26248 
L 432.286853 306.616116 
L 435.442231 306.472833 
L 438.59761 305.817443 
L 441.752988 305.287983 
L 444.908367 305.411929 
L 448.063745 305.131609 
L 457.52988 305.663944 
L 466.996016 305.046038 
L 470.151394 305.117935 
L 473.306773 304.437921 
L 482.772908 304.396941 
L 485.928287 304.704059 
L 489.083665 305.869518 
L 498.549801 305.622836 
L 501.705179 305.092147 
L 504.860558 305.853412 
L 508.015936 305.191121 
L 511.171315 305.222041 
L 517.482072 304.918616 
L 520.63745 305.909033 
L 523.792829 305.158784 
L 526.948207 305.399822 
L 530.103586 304.982839 
L 533.258964 305.180195 
L 536.414343 303.770646 
L 539.569721 304.322985 
L 542.7251 304.658325 
L 545.880478 305.340893 
L 549.035857 306.545994 
L 552.191235 307.099464 
L 558.501992 306.45267 
L 561.657371 307.790341 
L 564.812749 307.721263 
L 567.968127 307.837147 
L 571.123506 308.109599 
L 574.278884 307.180143 
L 580.589641 307.270468 
L 583.74502 306.112638 
L 586.900398 305.801423 
L 590.055777 305.844942 
L 593.211155 306.13892 
L 596.366534 308.482295 
L 599.521912 308.279746 
L 602.677291 308.498245 
L 605.832669 307.564081 
L 608.988048 306.781185 
L 612.143426 307.411086 
L 618.454183 307.556638 
L 621.609562 307.088692 
L 624.76494 307.444338 
L 627.920319 306.959635 
L 631.075697 305.180681 
L 634.231076 305.776465 
L 637.386454 306.106308 
L 640.541833 305.152687 
L 643.697211 304.580463 
L 650.007968 304.895858 
L 653.163347 305.801137 
L 656.318725 306.057684 
L 659.474104 305.99743 
L 662.629482 306.278186 
L 665.784861 305.954474 
L 668.940239 306.732113 
L 672.095618 306.030874 
L 675.250996 305.56997 
L 678.406375 306.791947 
L 681.561753 307.392113 
L 687.87251 305.440709 
L 691.027888 304.68536 
L 694.183267 304.906738 
L 697.338645 304.961685 
L 700.494024 304.210711 
L 703.649402 304.797062 
L 706.804781 304.998982 
L 709.960159 306.044424 
L 713.115538 306.90643 
L 716.270916 306.455843 
L 719.426295 305.629557 
L 722.581673 305.584412 
L 725.737052 306.177963 
L 728.89243 303.141468 
L 732.047809 303.211857 
L 735.203187 304.620891 
L 738.358566 304.234934 
L 741.513944 304.160002 
L 744.669323 304.874021 
L 747.824701 304.843442 
L 750.98008 304.593513 
L 754.135458 303.837504 
L 757.290837 304.58713 
L 760.446215 304.224758 
L 763.601594 305.405835 
L 766.756972 305.858467 
L 769.912351 304.909464 
L 773.067729 304.713768 
L 776.223108 304.809239 
L 779.378486 305.948217 
L 782.533865 306.270823 
L 788.844622 305.4485 
L 788.844622 305.4485 
" clip-path="url(#p1e194ba67a)" style="fill: none; stroke: #000000; stroke-width: 1.5; stroke-linecap: square"/>
   </g>
   <g id="line2d_5">
    <path d="M 0 306 
L 3.155378 306 
L 6.310757 307.19745 
L 9.466135 305.227259 
L 12.621514 307.217907 
L 15.776892 308.989156 
L 18.932271 308.157712 
L 22.087649 307.616459 
L 25.243028 306.700134 
L 28.398406 306.427322 
L 31.553785 305.607006 
L 34.709163 305.442839 
L 37.864542 305.06648 
L 41.01992 305.264591 
L 44.175299 304.89928 
L 47.330677 305.573716 
L 50.486056 305.269933 
L 53.641434 305.803892 
L 56.796813 305.941943 
L 59.952191 306.891207 
L 63.10757 307.269543 
L 66.262948 307.20288 
L 69.418327 306.884652 
L 72.573705 306.975241 
L 75.729084 307.955639 
L 82.039841 308.439319 
L 85.195219 308.916418 
L 88.350598 308.683908 
L 91.505976 307.438359 
L 94.661355 307.636395 
L 100.972112 307.519715 
L 104.12749 306.713802 
L 110.438247 306.454665 
L 113.593625 306.085375 
L 116.749004 306.660625 
L 119.904382 306.93824 
L 123.059761 307.008147 
L 129.370518 306.411991 
L 132.525896 306.974153 
L 135.681275 307.199551 
L 141.992032 306.821514 
L 148.302789 307.010955 
L 151.458167 306.99384 
L 154.613546 308.862041 
L 157.768924 309.111571 
L 160.924303 308.546359 
L 164.079681 308.116585 
L 167.23506 307.991038 
L 170.390438 307.54465 
L 173.545817 306.965306 
L 176.701195 307.074682 
L 183.011952 307.002348 
L 186.167331 307.298844 
L 192.478088 307.017961 
L 195.633466 307.005488 
L 198.788845 306.822866 
L 201.944223 306.113814 
L 205.099602 305.955255 
L 211.410359 305.373057 
L 214.565737 306.138417 
L 217.721116 306.101441 
L 220.876494 306.891152 
L 224.031873 306.897357 
L 227.187251 307.145022 
L 233.498008 306.541391 
L 239.808765 307.564963 
L 246.119522 306.937162 
L 249.2749 306.903116 
L 252.430279 307.226822 
L 255.585657 306.858749 
L 258.741036 306.261131 
L 261.896414 306.512676 
L 265.051793 306.495669 
L 268.207171 306.194491 
L 271.36255 306.550228 
L 274.517928 306.775136 
L 280.828685 305.747424 
L 283.984064 306.067401 
L 287.139442 306.704217 
L 290.294821 306.341765 
L 293.450199 306.63034 
L 296.605578 306.473654 
L 299.760956 305.794692 
L 302.916335 306.526256 
L 306.071713 306.071701 
L 309.227092 306.192321 
L 312.38247 305.525594 
L 315.537849 306.585454 
L 318.693227 306.83667 
L 321.848606 306.594834 
L 325.003984 306.914214 
L 328.159363 307.355254 
L 334.47012 306.350837 
L 337.625498 306.323056 
L 340.780876 305.984489 
L 343.936255 306.978387 
L 347.091633 306.734082 
L 353.40239 306.722409 
L 356.557769 306.535995 
L 359.713147 306.134133 
L 362.868526 305.542828 
L 366.023904 305.226132 
L 372.334661 306.029411 
L 375.49004 305.482604 
L 384.956175 305.843858 
L 388.111554 306.122102 
L 391.266932 305.965485 
L 394.422311 306.636706 
L 397.577689 306.96611 
L 400.733068 307.168806 
L 403.888446 307.007612 
L 407.043825 307.319049 
L 413.354582 307.365256 
L 416.50996 307.262994 
L 422.820717 306.210554 
L 425.976096 306.212271 
L 429.131474 306.982372 
L 432.286853 306.667676 
L 435.442231 306.587938 
L 441.752988 305.919992 
L 444.908367 305.936699 
L 448.063745 305.747189 
L 460.685259 305.781366 
L 470.151394 305.500424 
L 473.306773 305.113864 
L 482.772908 304.932829 
L 485.928287 305.047908 
L 489.083665 305.625852 
L 498.549801 305.549189 
L 501.705179 305.282069 
L 504.860558 305.660365 
L 508.015936 305.334061 
L 514.326693 305.2374 
L 517.482072 305.153262 
L 520.63745 305.647673 
L 523.792829 305.276805 
L 526.948207 305.39138 
L 530.103586 305.175629 
L 533.258964 305.263319 
L 536.414343 304.522582 
L 545.880478 305.220168 
L 549.035857 305.858695 
L 552.191235 306.20437 
L 558.501992 305.997176 
L 561.657371 306.733664 
L 567.968127 306.925693 
L 571.123506 307.141909 
L 574.278884 306.734334 
L 580.589641 306.852555 
L 583.74502 306.282576 
L 586.900398 306.105715 
L 590.055777 306.104078 
L 593.211155 306.236317 
L 596.366534 307.447879 
L 599.521912 307.426254 
L 602.677291 307.608772 
L 608.988048 306.815951 
L 612.143426 307.140786 
L 618.454183 307.261775 
L 621.609562 307.045388 
L 624.76494 307.234802 
L 627.920319 306.99949 
L 631.075697 306.064083 
L 634.231076 306.302537 
L 637.386454 306.427896 
L 640.541833 305.905332 
L 643.697211 305.54564 
L 650.007968 305.567954 
L 653.163347 305.985662 
L 656.318725 306.103858 
L 659.474104 306.067872 
L 662.629482 306.211857 
L 665.784861 306.049502 
L 668.940239 306.44878 
L 675.250996 305.861439 
L 678.406375 306.475658 
L 681.561753 306.81623 
L 691.027888 305.420132 
L 697.338645 305.461825 
L 700.494024 305.029278 
L 703.649402 305.269592 
L 706.804781 305.333361 
L 713.115538 306.318688 
L 716.270916 306.133678 
L 719.426295 305.730544 
L 722.581673 305.696509 
L 725.737052 305.999467 
L 728.89243 304.429535 
L 732.047809 304.357063 
L 735.203187 304.997932 
L 738.358566 304.769029 
L 741.513944 304.683306 
L 744.669323 305.010768 
L 747.824701 304.98244 
L 750.98008 304.838157 
L 754.135458 304.423664 
L 757.290837 304.766814 
L 760.446215 304.563174 
L 763.601594 305.148905 
L 766.756972 305.405337 
L 769.912351 304.948683 
L 773.067729 304.841006 
L 776.223108 304.880531 
L 779.378486 305.470748 
L 782.533865 305.679564 
L 788.844622 305.329264 
L 788.844622 305.329264 
" clip-path="url(#p1e194ba67a)" style="fill: none; stroke: #000000; stroke-width: 1.5; stroke-linecap: square"/>
   </g>
   <g id="line2d_6">
    <path d="M 0 306 
L 3.155378 306 
L 6.310757 307.172616 
L 9.466135 305.291052 
L 12.621514 307.146025 
L 15.776892 308.795077 
L 18.932271 308.078787 
L 22.087649 307.610928 
L 25.243028 306.812658 
L 28.398406 306.564158 
L 31.553785 305.856902 
L 34.709163 305.693019 
L 37.864542 305.360284 
L 41.01992 305.490181 
L 44.175299 305.180786 
L 47.330677 305.68022 
L 50.486056 305.438417 
L 53.641434 305.828073 
L 56.796813 305.929034 
L 59.952191 306.627828 
L 63.10757 306.92162 
L 66.262948 306.898548 
L 69.418327 306.694311 
L 72.573705 306.770465 
L 75.729084 307.461782 
L 82.039841 307.854798 
L 85.195219 308.210129 
L 88.350598 308.098654 
L 91.505976 307.315927 
L 94.661355 307.451806 
L 100.972112 307.396919 
L 104.12749 306.893523 
L 110.438247 306.71067 
L 113.593625 306.468626 
L 116.749004 306.801292 
L 119.904382 306.963055 
L 123.059761 307.004068 
L 129.370518 306.639902 
L 132.525896 306.962089 
L 135.681275 307.095708 
L 141.992032 306.880824 
L 148.302789 306.987678 
L 151.458167 306.978971 
L 154.613546 308.04827 
L 157.768924 308.229323 
L 164.079681 307.736498 
L 167.23506 307.683826 
L 173.545817 307.129474 
L 179.856574 307.131371 
L 183.011952 307.131081 
L 186.167331 307.288379 
L 198.788845 307.015952 
L 201.944223 306.62238 
L 208.25498 306.305426 
L 211.410359 306.143361 
L 214.565737 306.521137 
L 217.721116 306.485736 
L 220.876494 306.890591 
L 224.031873 306.893631 
L 227.187251 307.024812 
L 233.498008 306.706694 
L 239.808765 307.243863 
L 249.2749 306.916356 
L 252.430279 307.085106 
L 255.585657 306.898747 
L 258.741036 306.583987 
L 261.896414 306.703036 
L 265.051793 306.686563 
L 268.207171 306.521073 
L 274.517928 306.80319 
L 280.828685 306.257311 
L 283.984064 306.402368 
L 287.139442 306.719608 
L 290.294821 306.530967 
L 293.450199 306.670366 
L 296.605578 306.588039 
L 299.760956 306.232036 
L 302.916335 306.591495 
L 306.071713 306.352509 
L 309.227092 306.40263 
L 312.38247 306.049367 
L 315.537849 306.572779 
L 318.693227 306.703811 
L 321.848606 306.585468 
L 328.159363 306.983746 
L 334.47012 306.487787 
L 337.625498 306.468197 
L 340.780876 306.287882 
L 343.936255 306.78496 
L 350.247012 306.657929 
L 356.557769 306.577779 
L 366.023904 305.872716 
L 372.334661 306.238532 
L 375.49004 305.948866 
L 384.956175 306.083323 
L 388.111554 306.216174 
L 391.266932 306.132025 
L 394.422311 306.467911 
L 400.733068 306.760405 
L 403.888446 306.693973 
L 407.043825 306.866065 
L 413.354582 306.927718 
L 416.50996 306.894417 
L 422.820717 306.377153 
L 425.976096 306.371261 
L 429.131474 306.7592 
L 432.286853 306.607633 
L 435.442231 306.569897 
L 441.752988 306.225947 
L 457.52988 306.14752 
L 470.151394 305.884978 
L 473.306773 305.672291 
L 482.772908 305.502491 
L 485.928287 305.536843 
L 489.083665 305.811363 
L 498.549801 305.749682 
L 501.705179 305.60324 
L 504.860558 305.784188 
L 508.015936 305.612697 
L 517.482072 305.486374 
L 520.63745 305.724294 
L 523.792829 305.530608 
L 526.948207 305.578822 
L 530.103586 305.462206 
L 533.258964 305.494373 
L 536.414343 305.104224 
L 545.880478 305.402903 
L 549.035857 305.720612 
L 552.191235 305.902849 
L 558.501992 305.816015 
L 561.657371 306.198238 
L 567.968127 306.341061 
L 571.123506 306.476912 
L 574.278884 306.298156 
L 580.589641 306.39498 
L 583.74502 306.123355 
L 590.055777 306.041571 
L 593.211155 306.111537 
L 596.366534 306.737158 
L 605.832669 306.700864 
L 608.988048 306.528427 
L 612.143426 306.70758 
L 618.454183 306.806071 
L 621.609562 306.714091 
L 624.76494 306.822352 
L 627.920319 306.719513 
L 631.075697 306.254484 
L 637.386454 306.429839 
L 643.697211 305.964738 
L 650.007968 305.942155 
L 653.163347 306.139605 
L 662.629482 306.241174 
L 665.784861 306.156155 
L 668.940239 306.355174 
L 675.250996 306.054668 
L 678.406375 306.359386 
L 681.561753 306.538904 
L 691.027888 305.830429 
L 697.338645 305.818597 
L 700.494024 305.582554 
L 709.960159 305.946066 
L 713.115538 306.18047 
L 716.270916 306.092805 
L 719.426295 305.886285 
L 722.581673 305.862542 
L 725.737052 306.009804 
L 728.89243 305.206769 
L 732.047809 305.135238 
L 735.203187 305.430505 
L 741.513944 305.22856 
L 744.669323 305.373413 
L 750.98008 305.254591 
L 754.135458 305.025793 
L 757.290837 305.17526 
L 760.446215 305.053944 
L 763.601594 305.334523 
L 766.756972 305.45903 
L 769.912351 305.224595 
L 776.223108 305.163205 
L 779.378486 305.453995 
L 782.533865 305.561572 
L 788.844622 305.387822 
L 788.844622 305.387822 
" clip-path="url(#p1e194ba67a)" style="fill: none; stroke: #000000; stroke-width: 1.5; stroke-linecap: square"/>
   </g>
   <g id="line2d_7">
    <path d="M 0 306 
L 3.155378 306 
L 6.310757 307.160189 
L 9.466135 305.322311 
L 12.621514 307.111492 
L 15.776892 308.700067 
L 18.932271 308.036843 
L 22.087649 307.603573 
L 25.243028 306.861841 
L 28.398406 306.626945 
L 31.553785 305.974738 
L 34.709163 305.814731 
L 37.864542 305.505491 
L 41.01992 305.608004 
L 44.175299 305.326512 
L 47.330677 305.750075 
L 50.486056 305.536337 
L 53.641434 305.862736 
L 56.796813 305.946014 
L 59.952191 306.532142 
L 63.10757 306.782743 
L 66.262948 306.771825 
L 69.418327 306.611668 
L 72.573705 306.678058 
L 75.729084 307.240102 
L 82.039841 307.576304 
L 85.195219 307.86944 
L 88.350598 307.798432 
L 91.505976 307.205536 
L 97.816733 307.313646 
L 100.972112 307.284856 
L 104.12749 306.910647 
L 110.438247 306.772527 
L 113.593625 306.591657 
L 116.749004 306.830448 
L 123.059761 306.977226 
L 129.370518 306.716253 
L 132.525896 306.941915 
L 135.681275 307.036769 
L 141.992032 306.889718 
L 151.458167 306.958547 
L 154.613546 307.686641 
L 157.768924 307.820846 
L 164.079681 307.512746 
L 167.23506 307.484701 
L 173.545817 307.128287 
L 186.167331 307.23184 
L 198.788845 307.060091 
L 201.944223 306.810183 
L 211.410359 306.490412 
L 214.565737 306.715469 
L 217.721116 306.688194 
L 220.876494 306.932175 
L 230.342629 306.911441 
L 233.498008 306.817501 
L 239.808765 307.139007 
L 249.2749 306.946046 
L 252.430279 307.045639 
L 261.896414 306.815093 
L 277.673307 306.694044 
L 280.828685 306.53766 
L 293.450199 306.757796 
L 296.605578 306.7086 
L 299.760956 306.502727 
L 302.916335 306.700482 
L 306.071713 306.56226 
L 309.227092 306.585519 
L 312.38247 306.381622 
L 315.537849 306.668443 
L 318.693227 306.739788 
L 321.848606 306.672545 
L 328.159363 306.892805 
L 334.47012 306.618166 
L 340.780876 306.501048 
L 343.936255 306.770931 
L 350.247012 306.700233 
L 356.557769 306.654364 
L 366.023904 306.255609 
L 372.334661 306.439411 
L 375.49004 306.277231 
L 391.266932 306.345474 
L 397.577689 306.614944 
L 410.199203 306.768182 
L 416.50996 306.763108 
L 425.976096 306.485394 
L 429.131474 306.688573 
L 444.908367 306.397164 
L 451.219124 306.331685 
L 466.996016 306.196874 
L 473.306773 306.063515 
L 485.928287 305.957115 
L 489.083665 306.091678 
L 533.258964 305.829298 
L 536.414343 305.621093 
L 545.880478 305.744596 
L 552.191235 305.991154 
L 558.501992 305.944337 
L 561.657371 306.138628 
L 580.589641 306.253208 
L 586.900398 306.074411 
L 593.211155 306.110004 
L 596.366534 306.430285 
L 605.832669 306.432201 
L 608.988048 306.349676 
L 615.298805 306.477755 
L 624.76494 306.528084 
L 627.920319 306.482009 
L 631.075697 306.2502 
L 637.386454 306.340518 
L 643.697211 306.105564 
L 653.163347 306.18499 
L 668.940239 306.291863 
L 675.250996 306.140054 
L 681.561753 306.385493 
L 694.183267 306.029603 
L 709.960159 306.056945 
L 713.115538 306.173582 
L 725.737052 306.080749 
L 728.89243 305.672578 
L 732.047809 305.626869 
L 735.203187 305.765522 
L 741.513944 305.647191 
L 747.824701 305.689185 
L 760.446215 305.508476 
L 766.756972 305.696301 
L 773.067729 305.531379 
L 776.223108 305.526511 
L 782.533865 305.715261 
L 788.844622 305.620409 
L 788.844622 305.620409 
" clip-path="url(#p1e194ba67a)" style="fill: none; stroke: #000000; stroke-width: 1.5; stroke-linecap: square"/>
   </g>
   <g id="line2d_8">
    <path d="M 0 306 
L 3.155378 306 
L 6.310757 307.153974 
L 9.466135 305.337775 
L 12.621514 307.094583 
L 15.776892 308.653122 
L 18.932271 308.01532 
L 22.087649 307.598782 
L 25.243028 306.884601 
L 28.398406 306.656761 
L 31.553785 306.031548 
L 34.709163 305.87426 
L 37.864542 305.577029 
L 41.01992 305.667462 
L 44.175299 305.399801 
L 47.330677 305.788465 
L 50.486056 305.588066 
L 53.641434 305.885327 
L 56.796813 305.960267 
L 59.952191 306.493942 
L 63.10757 306.723478 
L 66.262948 306.716756 
L 69.418327 306.575599 
L 72.573705 306.636751 
L 75.729084 307.139111 
L 82.039841 307.445759 
L 85.195219 307.708667 
L 88.350598 307.653231 
L 91.505976 307.143264 
L 97.816733 307.242122 
L 100.972112 307.220045 
L 104.12749 306.902664 
L 110.438247 306.785792 
L 113.593625 306.632858 
L 119.904382 306.929321 
L 123.059761 306.955038 
L 129.370518 306.739718 
L 135.681275 307.00257 
L 145.14741 306.925975 
L 151.458167 306.941173 
L 154.613546 307.522939 
L 157.768924 307.633879 
L 164.079681 307.398657 
L 170.390438 307.264685 
L 173.545817 307.105293 
L 189.322709 307.152604 
L 198.788845 307.059077 
L 201.944223 306.870653 
L 211.410359 306.626115 
L 214.565737 306.790619 
L 217.721116 306.768875 
L 220.876494 306.947358 
L 236.653386 306.981697 
L 239.808765 307.095235 
L 249.2749 306.957447 
L 252.430279 307.028352 
L 261.896414 306.863182 
L 277.673307 306.774053 
L 280.828685 306.664061 
L 293.450199 306.810119 
L 312.38247 306.546182 
L 315.537849 306.736506 
L 328.159363 306.882779 
L 337.625498 306.689705 
L 340.780876 306.620421 
L 343.936255 306.795905 
L 369.179283 306.511927 
L 372.334661 306.566973 
L 378.645418 306.463085 
L 394.422311 306.60186 
L 407.043825 306.735469 
L 416.50996 306.751665 
L 425.976096 306.577555 
L 429.131474 306.701822 
L 448.063745 306.479055 
L 470.151394 306.371545 
L 479.61753 306.238148 
L 485.928287 306.220501 
L 492.239044 306.286073 
L 533.258964 306.09903 
L 536.414343 305.974307 
L 549.035857 306.120074 
L 555.346614 306.155678 
L 558.501992 306.137786 
L 564.812749 306.261029 
L 580.589641 306.307105 
L 586.900398 306.203074 
L 593.211155 306.220135 
L 596.366534 306.400571 
L 627.920319 306.434764 
L 631.075697 306.305449 
L 637.386454 306.354957 
L 646.85259 306.217394 
L 665.784861 306.262977 
L 672.095618 306.270279 
L 675.250996 306.232763 
L 681.561753 306.366741 
L 700.494024 306.088228 
L 725.737052 306.179951 
L 728.89243 305.956783 
L 741.513944 305.930312 
L 750.98008 305.915773 
L 757.290837 305.876926 
L 763.601594 305.90295 
L 769.912351 305.86051 
L 776.223108 305.829041 
L 782.533865 305.924232 
L 788.844622 305.868355 
L 788.844622 305.868355 
" clip-path="url(#p1e194ba67a)" style="fill: none; stroke: #000000; stroke-width: 1.5; stroke-linecap: square"/>
   </g>
   <g id="line2d_9">
    <path d="M 0 306 
L 3.155378 306 
L 6.310757 307.150867 
L 9.466135 305.345464 
L 12.621514 307.086217 
L 15.776892 308.629796 
L 18.932271 308.00443 
L 22.087649 307.596113 
L 25.243028 306.895519 
L 28.398406 306.671256 
L 31.553785 306.059388 
L 34.709163 305.903634 
L 37.864542 305.612453 
L 41.01992 305.697234 
L 44.175299 305.436444 
L 47.330677 305.808422 
L 50.486056 305.61452 
L 53.641434 305.897854 
L 56.796813 305.968779 
L 59.952191 306.477269 
L 63.10757 306.696491 
L 66.262948 306.691469 
L 69.418327 306.559094 
L 72.573705 306.617583 
L 75.729084 307.091457 
L 82.039841 307.383282 
L 85.195219 307.631454 
L 88.350598 307.582742 
L 91.505976 307.11117 
L 97.816733 307.205344 
L 100.972112 307.186216 
L 104.12749 306.895132 
L 110.438247 306.788322 
L 113.593625 306.648477 
L 119.904382 306.918146 
L 123.059761 306.941796 
L 129.370518 306.747513 
L 135.681275 306.984173 
L 145.14741 306.91637 
L 151.458167 306.930405 
L 154.613546 307.44602 
L 157.768924 307.545819 
L 164.079681 307.342146 
L 170.390438 307.227153 
L 173.545817 307.0887 
L 189.322709 307.13168 
L 201.944223 306.891111 
L 211.410359 306.681156 
L 214.565737 306.819733 
L 217.721116 306.800826 
L 220.876494 306.951013 
L 236.653386 306.979215 
L 239.808765 307.073896 
L 249.2749 306.959943 
L 252.430279 307.018503 
L 265.051793 306.87381 
L 268.207171 306.815363 
L 274.517928 306.902463 
L 280.828685 306.718274 
L 293.450199 306.834169 
L 312.38247 306.620421 
L 315.537849 306.770403 
L 328.159363 306.884257 
L 340.780876 306.677415 
L 343.936255 306.813462 
L 369.179283 306.589983 
L 372.334661 306.631255 
L 378.645418 306.550093 
L 394.422311 306.650788 
L 410.199203 306.763932 
L 419.665339 306.702556 
L 425.976096 306.631117 
L 429.131474 306.722694 
L 451.219124 306.55179 
L 473.306773 306.417508 
L 489.083665 306.410517 
L 558.501992 306.268049 
L 564.812749 306.351421 
L 580.589641 306.379731 
L 590.055777 306.305234 
L 599.521912 306.445445 
L 605.832669 306.440193 
L 612.143426 306.44434 
L 627.920319 306.459614 
L 634.231076 306.393327 
L 640.541833 306.354057 
L 650.007968 306.30538 
L 662.629482 306.354307 
L 678.406375 306.370481 
L 684.717131 306.364279 
L 700.494024 306.217217 
L 725.737052 306.270513 
L 728.89243 306.125915 
L 754.135458 306.044764 
L 769.912351 306.047582 
L 788.844622 306.044766 
L 788.844622 306.044766 
" clip-path="url(#p1e194ba67a)" style="fill: none; stroke: #000000; stroke-width: 1.5; stroke-linecap: square"/>
   </g>
  </g>
 </g>
 <defs>
  <clipPath id="p1e194ba67a">
   <rect x="0" y="0" width="792" height="612"/>
  </clipPath>
 </defs>
</svg>
