<?xml version="1.0" encoding="utf-8" standalone="no"?>
<!DOCTYPE svg PUBLIC "-//W3C//DTD SVG 1.1//EN"
  "http://www.w3.org/Graphics/SVG/1.1/DTD/svg11.dtd">
<svg xmlns:xlink="http://www.w3.org/1999/xlink" width="792pt" height="612pt" viewBox="0 0 792 612" xmlns="http://www.w3.org/2000/svg" version="1.1">
 <metadata>
  <rdf:RDF xmlns:dc="http://purl.org/dc/elements/1.1/" xmlns:cc="http://creativecommons.org/ns#" xmlns:rdf="http://www.w3.org/1999/02/22-rdf-syntax-ns#">
   <cc:Work>
    <dc:type rdf:resource="http://purl.org/dc/dcmitype/StillImage"/>
    <dc:date>2023-01-09T02:28:29.197765</dc:date>
    <dc:format>image/svg+xml</dc:format>
    <dc:creator>
     <cc:Agent>
      <dc:title>Matplotlib v3.6.2, https://matplotlib.org/</dc:title>
     </cc:Agent>
    </dc:creator>
   </cc:Work>
  </rdf:RDF>
 </metadata>
 <defs>
  <style type="text/css">*{stroke-linejoin: round; stroke-linecap: butt}</style>
 </defs>
 <g id="figure_1">
  <g id="patch_1">
   <path d="M 0 612 
L 792 612 
L 792 0 
L 0 0 
z
" style="fill: #ffffff"/>
  </g>
  <g id="axes_1">
   <g id="line2d_1">
    <path d="M 0 306 
L 12.983607 305.534164 
L 25.967213 308.567454 
L 38.95082 303.497542 
L 51.934426 312.932185 
L 64.918033 300.767981 
L 77.901639 301.883559 
L 90.885246 316.363591 
L 103.868852 312.531543 
L 116.852459 299.425143 
L 129.836066 297.627878 
L 142.819672 298.418177 
L 155.803279 306.119167 
L 168.786885 305.014165 
L 181.770492 297.779434 
L 194.754098 308.729942 
L 207.737705 306.075834 
L 220.721311 313.939095 
L 233.704918 313.830833 
L 246.688525 303.259225 
L 259.672131 299.241063 
L 272.655738 305.057498 
L 285.639344 310.755476 
L 298.622951 279.040765 
L 311.606557 302.490135 
L 324.590164 314.686047 
L 337.57377 300.57304 
L 350.557377 302.771769 
L 363.540984 309.758998 
L 376.52459 304.115014 
L 389.508197 302.10019 
L 402.491803 297.227357 
L 415.47541 309.65068 
L 428.459016 300.724661 
L 441.442623 314.079832 
L 454.42623 309.206567 
L 467.409836 297.303129 
L 480.393443 302.663447 
L 493.377049 305.003331 
L 506.360656 314.566974 
L 519.344262 308.8491 
L 532.327869 303.075073 
L 545.311475 301.73192 
L 558.295082 309.910642 
L 571.278689 297.876865 
L 584.262295 300.68134 
L 597.245902 305.414998 
L 610.229508 312.314971 
L 623.213115 310.614675 
L 636.196721 312.509886 
L 649.180328 308.697445 
L 662.163934 301.103725 
L 675.147541 309.509865 
L 688.131148 303.172565 
L 701.114754 309.249896 
L 714.098361 300.930436 
L 727.081967 310.928767 
L 740.065574 305.945833 
L 753.04918 301.861896 
L 766.032787 310.614675 
L 779.016393 303.768361 
" clip-path="url(#pe39d49b9e7)" style="fill: none; stroke: #000000; stroke-width: 1.5; stroke-linecap: square"/>
   </g>
   <g id="line2d_2">
    <path d="M 0 306 
L 12.983607 306 
L 25.967213 305.689443 
L 38.95082 307.334046 
L 51.934426 305.287886 
L 64.918033 309.233822 
L 77.901639 304.933517 
L 90.885246 303.396466 
L 103.868852 309.907201 
L 116.852459 311.232273 
L 129.836066 305.316478 
L 142.819672 301.450013 
L 155.803279 299.923988 
L 168.786885 303.007912 
L 181.770492 304.019344 
L 194.754098 300.89081 
L 207.737705 304.795206 
L 220.721311 305.422857 
L 233.704918 309.710149 
L 246.688525 311.802519 
L 259.672131 307.540665 
L 272.655738 303.376896 
L 285.639344 304.217269 
L 298.622951 307.511989 
L 311.606557 293.190482 
L 324.590164 297.831397 
L 337.57377 306.260384 
L 350.557377 303.39049 
L 363.540984 303.080171 
L 376.52459 306.44026 
L 389.508197 305.275778 
L 402.491803 303.670951 
L 415.47541 300.484319 
L 428.459016 305.081331 
L 441.442623 302.875461 
L 454.42623 308.504964 
L 467.409836 308.868386 
L 480.393443 303.06029 
L 493.377049 302.859021 
L 506.360656 303.936844 
L 519.344262 309.286895 
L 532.327869 309.066427 
L 545.311475 306.075366 
L 558.295082 303.879323 
L 571.278689 306.89645 
L 584.262295 302.386998 
L 597.245902 301.530248 
L 610.229508 303.473328 
L 623.213115 307.890127 
L 636.196721 309.255928 
L 649.180328 310.901542 
L 662.163934 309.813199 
L 675.147541 305.441083 
L 688.131148 307.498352 
L 701.114754 305.340311 
L 714.098361 307.302676 
L 727.081967 304.094027 
L 740.065574 307.512202 
L 753.04918 306.71615 
L 766.032787 304.275512 
L 779.016393 307.463899 
" clip-path="url(#pe39d49b9e7)" style="fill: none; stroke: #000000; stroke-width: 1.5; stroke-linecap: square"/>
   </g>
   <g id="line2d_3">
    <path d="M 0 306 
L 12.983607 306 
L 25.967213 305.72712 
L 38.95082 307.014047 
L 51.934426 305.640747 
L 64.918033 308.235338 
L 77.901639 305.735607 
L 90.885246 304.497908 
L 103.868852 308.206171 
L 116.852459 309.531794 
L 129.836066 306.475938 
L 142.819672 303.825253 
L 155.803279 302.216124 
L 168.786885 303.372 
L 181.770492 303.856754 
L 194.754098 302.06647 
L 207.737705 304.025705 
L 220.721311 304.626251 
L 233.704918 307.364082 
L 246.688525 309.26458 
L 259.672131 307.505433 
L 272.655738 305.068816 
L 285.639344 305.070428 
L 298.622951 306.74584 
L 311.606557 298.569194 
L 324.590164 299.705886 
L 337.57377 304.111086 
L 350.557377 303.078106 
L 363.540984 302.993383 
L 376.52459 304.979157 
L 389.508197 304.72502 
L 402.491803 303.961153 
L 415.47541 301.975162 
L 428.459016 304.227282 
L 441.442623 303.186119 
L 454.42623 306.377594 
L 467.409836 307.21304 
L 480.393443 304.307603 
L 493.377049 303.823277 
L 506.360656 304.162294 
L 519.344262 307.251276 
L 532.327869 307.726583 
L 545.311475 306.350835 
L 558.295082 304.99924 
L 571.278689 306.446016 
L 584.262295 303.921992 
L 597.245902 302.968802 
L 610.229508 303.689058 
L 623.213115 306.233094 
L 636.196721 307.517627 
L 649.180328 308.993565 
L 662.163934 308.90065 
L 675.147541 306.607614 
L 688.131148 307.471722 
L 701.114754 306.213097 
L 714.098361 307.107464 
L 727.081967 305.282457 
L 740.065574 306.938733 
L 753.04918 306.651218 
L 766.032787 305.248536 
L 779.016393 306.82115 
" clip-path="url(#pe39d49b9e7)" style="fill: none; stroke: #000000; stroke-width: 1.5; stroke-linecap: square"/>
   </g>
   <g id="line2d_4">
    <path d="M 0 306 
L 12.983607 306 
L 25.967213 305.746952 
L 38.95082 306.853919 
L 51.934426 305.78588 
L 64.918033 307.748052 
L 77.901639 306.030004 
L 90.885246 305.091121 
L 103.868852 307.483269 
L 116.852459 308.500418 
L 129.836066 306.746296 
L 142.819672 305.041823 
L 155.803279 303.837179 
L 168.786885 304.242887 
L 181.770492 304.377497 
L 194.754098 303.243153 
L 207.737705 304.174291 
L 220.721311 304.49361 
L 233.704918 306.066193 
L 246.688525 307.349531 
L 259.672131 306.67775 
L 272.655738 305.462437 
L 285.639344 305.396554 
L 298.622951 306.265382 
L 311.606557 301.85402 
L 324.590164 301.956573 
L 337.57377 304.004711 
L 350.557377 303.453543 
L 363.540984 303.344215 
L 376.52459 304.371569 
L 389.508197 304.330523 
L 402.491803 303.973995 
L 415.47541 302.896068 
L 428.459016 303.972997 
L 441.442623 303.453125 
L 454.42623 305.147564 
L 467.409836 305.796945 
L 480.393443 304.435435 
L 493.377049 304.154679 
L 506.360656 304.291647 
L 519.344262 305.925708 
L 532.327869 306.388545 
L 545.311475 305.863623 
L 558.295082 305.208774 
L 571.278689 305.964062 
L 584.262295 304.671921 
L 597.245902 304.034236 
L 610.229508 304.258682 
L 623.213115 305.542831 
L 636.196721 306.352667 
L 649.180328 307.331558 
L 662.163934 307.545677 
L 675.147541 306.519338 
L 688.131148 307.001571 
L 701.114754 306.391176 
L 714.098361 306.845087 
L 727.081967 305.917674 
L 740.065574 306.720289 
L 753.04918 306.591616 
L 766.032787 305.839865 
L 779.016393 306.604503 
" clip-path="url(#pe39d49b9e7)" style="fill: none; stroke: #000000; stroke-width: 1.5; stroke-linecap: square"/>
   </g>
   <g id="line2d_5">
    <path d="M 0 306 
L 12.983607 306 
L 25.967213 305.756998 
L 38.95082 306.776074 
L 51.934426 305.847036 
L 64.918033 307.519862 
L 77.901639 306.13747 
L 90.885246 305.361042 
L 103.868852 307.188027 
L 116.852459 308.007162 
L 129.836066 306.778034 
L 142.819672 305.541803 
L 155.803279 304.627025 
L 168.786885 304.810278 
L 181.770492 304.834359 
L 194.754098 304.029162 
L 207.737705 304.549351 
L 220.721311 304.713724 
L 233.704918 305.68338 
L 246.688525 306.521249 
L 259.672131 306.19237 
L 272.655738 305.503714 
L 285.639344 305.460214 
L 298.622951 305.969098 
L 311.606557 303.408293 
L 324.590164 303.322221 
L 337.57377 304.376324 
L 350.557377 304.026957 
L 363.540984 303.912677 
L 376.52459 304.440696 
L 389.508197 304.411495 
L 402.491803 304.205624 
L 415.47541 303.587664 
L 428.459016 304.121456 
L 441.442623 303.823867 
L 454.42623 304.718308 
L 467.409836 305.108045 
L 480.393443 304.432717 
L 493.377049 304.280201 
L 506.360656 304.342335 
L 519.344262 305.218492 
L 532.327869 305.528713 
L 545.311475 305.319568 
L 558.295082 305.014434 
L 571.278689 305.429998 
L 584.262295 304.789997 
L 597.245902 304.442501 
L 610.229508 304.524613 
L 623.213115 305.181511 
L 636.196721 305.639024 
L 649.180328 306.216953 
L 662.163934 306.42534 
L 675.147541 305.978698 
L 688.131148 306.274783 
L 701.114754 306.014891 
L 714.098361 306.2857 
L 727.081967 305.837697 
L 740.065574 306.263319 
L 753.04918 306.236795 
L 766.032787 305.871474 
L 779.016393 306.267357 
" clip-path="url(#pe39d49b9e7)" style="fill: none; stroke: #000000; stroke-width: 1.5; stroke-linecap: square"/>
   </g>
   <g id="line2d_6">
    <path d="M 0 306 
L 12.983607 306 
L 25.967213 305.762038 
L 38.95082 306.737987 
L 51.934426 305.874484 
L 64.918033 307.411143 
L 77.901639 306.180585 
L 90.885246 305.484105 
L 103.868852 307.059495 
L 116.852459 307.77815 
L 129.836066 306.770763 
L 142.819672 305.747957 
L 155.803279 304.981243 
L 168.786885 305.093281 
L 181.770492 305.085904 
L 194.754098 304.437499 
L 207.737705 304.80147 
L 220.721311 304.905132 
L 233.704918 305.612584 
L 246.688525 306.233864 
L 259.672131 306.016251 
L 272.655738 305.535329 
L 285.639344 305.502358 
L 298.622951 305.855455 
L 311.606557 304.092262 
L 324.590164 303.989565 
L 337.57377 304.660753 
L 350.557377 304.409387 
L 363.540984 304.310579 
L 376.52459 304.633517 
L 389.508197 304.603294 
L 402.491803 304.459669 
L 415.47541 304.050712 
L 428.459016 304.362861 
L 441.442623 304.162713 
L 454.42623 304.701521 
L 467.409836 304.943364 
L 480.393443 304.53768 
L 493.377049 304.439239 
L 506.360656 304.468569 
L 519.344262 304.988752 
L 532.327869 305.185772 
L 545.311475 305.078969 
L 558.295082 304.910978 
L 571.278689 305.159967 
L 584.262295 304.799847 
L 597.245902 304.597655 
L 610.229508 304.63751 
L 623.213115 305.009547 
L 636.196721 305.279515 
L 649.180328 305.625791 
L 662.163934 305.77208 
L 675.147541 305.55089 
L 688.131148 305.73753 
L 701.114754 305.61718 
L 714.098361 305.786862 
L 727.081967 305.560981 
L 740.065574 305.809621 
L 753.04918 305.815905 
L 766.032787 305.63415 
L 779.016393 305.862279 
" clip-path="url(#pe39d49b9e7)" style="fill: none; stroke: #000000; stroke-width: 1.5; stroke-linecap: square"/>
   </g>
   <g id="line2d_7">
    <path d="M 0 306 
L 12.983607 306 
L 25.967213 305.76456 
L 38.95082 306.719186 
L 51.934426 305.887407 
L 64.918033 307.358291 
L 77.901639 306.199497 
L 90.885246 305.542118 
L 103.868852 307.000075 
L 116.852459 307.669369 
L 129.836066 306.762198 
L 142.819672 305.838777 
L 155.803279 305.143955 
L 168.786885 305.229103 
L 181.770492 305.211496 
L 194.754098 304.637276 
L 207.737705 304.936695 
L 220.721311 305.015934 
L 233.704918 305.608249 
L 246.688525 306.130594 
L 259.672131 305.955587 
L 272.655738 305.561847 
L 285.639344 305.533337 
L 298.622951 305.818543 
L 311.606557 304.399467 
L 324.590164 304.301617 
L 337.57377 304.818475 
L 350.557377 304.61301 
L 363.540984 304.526246 
L 376.52459 304.766645 
L 389.508197 304.737425 
L 402.491803 304.621867 
L 415.47541 304.304874 
L 428.459016 304.529169 
L 441.442623 304.372738 
L 454.42623 304.764187 
L 467.409836 304.939982 
L 480.393443 304.643079 
L 493.377049 304.567453 
L 506.360656 304.583829 
L 519.344262 304.953016 
L 532.327869 305.094864 
L 545.311475 305.022411 
L 558.295082 304.906053 
L 571.278689 305.080587 
L 584.262295 304.832638 
L 597.245902 304.691603 
L 610.229508 304.715872 
L 623.213115 304.967788 
L 636.196721 305.152808 
L 649.180328 305.391179 
L 662.163934 305.497129 
L 675.147541 305.357811 
L 688.131148 305.488129 
L 701.114754 305.416168 
L 714.098361 305.53417 
L 727.081967 305.393771 
L 740.065574 305.56105 
L 753.04918 305.572576 
L 766.032787 305.46235 
L 779.016393 305.614145 
" clip-path="url(#pe39d49b9e7)" style="fill: none; stroke: #000000; stroke-width: 1.5; stroke-linecap: square"/>
   </g>
   <g id="line2d_8">
    <path d="M 0 306 
L 12.983607 306 
L 25.967213 305.765821 
L 38.95082 306.70985 
L 51.934426 305.893666 
L 64.918033 307.33226 
L 77.901639 306.208298 
L 90.885246 305.570188 
L 103.868852 306.971568 
L 116.852459 307.616545 
L 129.836066 306.756815 
L 142.819672 305.881046 
L 155.803279 305.221295 
L 168.786885 305.294939 
L 181.770492 305.273441 
L 194.754098 304.734945 
L 207.737705 305.005425 
L 220.721311 305.073992 
L 233.704918 305.613244 
L 246.688525 306.089291 
L 259.672131 305.932754 
L 272.655738 305.578357 
L 285.639344 305.551893 
L 298.622951 305.806122 
L 311.606557 304.543233 
L 324.590164 304.449992 
L 337.57377 304.899372 
L 350.557377 304.715545 
L 363.540984 304.635498 
L 376.52459 304.840259 
L 389.508197 304.812097 
L 402.491803 304.70966 
L 415.47541 304.434395 
L 428.459016 304.621378 
L 441.442623 304.4851 
L 454.42623 304.812748 
L 467.409836 304.959341 
L 480.393443 304.709477 
L 493.377049 304.644149 
L 506.360656 304.655379 
L 519.344262 304.959122 
L 532.327869 305.075986 
L 545.311475 305.017009 
L 558.295082 304.921955 
L 571.278689 305.063723 
L 584.262295 304.862985 
L 597.245902 304.748173 
L 610.229508 304.766179 
L 623.213115 304.966783 
L 636.196721 305.114529 
L 649.180328 305.305071 
L 662.163934 305.391176 
L 675.147541 305.283911 
L 688.131148 305.388146 
L 701.114754 305.334247 
L 714.098361 305.42823 
L 727.081967 305.321676 
L 740.065574 305.452812 
L 753.04918 305.464198 
L 766.032787 305.382012 
L 779.016393 305.499974 
" clip-path="url(#pe39d49b9e7)" style="fill: none; stroke: #000000; stroke-width: 1.5; stroke-linecap: square"/>
   </g>
   <g id="line2d_9">
    <path d="M 0 306 
L 12.983607 306 
L 25.967213 305.766451 
L 38.95082 306.705198 
L 51.934426 305.896746 
L 64.918033 307.319346 
L 77.901639 306.212537 
L 90.885246 305.583984 
L 103.868852 306.957613 
L 116.852459 307.590539 
L 129.836066 306.753866 
L 142.819672 305.901392 
L 155.803279 305.258919 
L 168.786885 305.327263 
L 181.770492 305.304103 
L 194.754098 304.783089 
L 207.737705 305.039914 
L 220.721311 305.103525 
L 233.704918 305.617411 
L 246.688525 306.071181 
L 259.672131 305.923229 
L 272.655738 305.58745 
L 285.639344 305.561967 
L 298.622951 305.801494 
L 311.606557 304.612555 
L 324.590164 304.522023 
L 337.57377 304.940069 
L 350.557377 304.766665 
L 363.540984 304.690085 
L 376.52459 304.878453 
L 389.508197 304.850956 
L 402.491803 304.75482 
L 415.47541 304.499234 
L 428.459016 304.669243 
L 441.442623 304.542547 
L 454.42623 304.840925 
L 467.409836 304.974038 
L 480.393443 304.745805 
L 493.377049 304.685336 
L 506.360656 304.694357 
L 519.344262 304.968184 
L 532.327869 305.073453 
L 545.311475 305.020399 
L 558.295082 304.934899 
L 571.278689 305.061652 
L 584.262295 304.882187 
L 597.245902 304.779286 
L 610.229508 304.794565 
L 623.213115 304.972021 
L 636.196721 305.102783 
L 649.180328 305.271449 
L 662.163934 305.348121 
L 675.147541 305.254712 
L 688.131148 305.346823 
L 701.114754 305.300509 
L 714.098361 305.383317 
L 727.081967 305.291376 
L 740.065574 305.406023 
L 753.04918 305.416839 
L 766.032787 305.346634 
L 779.016393 305.449198 
" clip-path="url(#pe39d49b9e7)" style="fill: none; stroke: #000000; stroke-width: 1.5; stroke-linecap: square"/>
   </g>
  </g>
 </g>
 <defs>
  <clipPath id="pe39d49b9e7">
   <rect x="0" y="0" width="792" height="612"/>
  </clipPath>
 </defs>
</svg>
