<?xml version="1.0" encoding="utf-8" standalone="no"?>
<!DOCTYPE svg PUBLIC "-//W3C//DTD SVG 1.1//EN"
  "http://www.w3.org/Graphics/SVG/1.1/DTD/svg11.dtd">
<svg xmlns:xlink="http://www.w3.org/1999/xlink" width="792pt" height="612pt" viewBox="0 0 792 612" xmlns="http://www.w3.org/2000/svg" version="1.1">
 <metadata>
  <rdf:RDF xmlns:dc="http://purl.org/dc/elements/1.1/" xmlns:cc="http://creativecommons.org/ns#" xmlns:rdf="http://www.w3.org/1999/02/22-rdf-syntax-ns#">
   <cc:Work>
    <dc:type rdf:resource="http://purl.org/dc/dcmitype/StillImage"/>
    <dc:date>2022-12-26T20:26:32.860114</dc:date>
    <dc:format>image/svg+xml</dc:format>
    <dc:creator>
     <cc:Agent>
      <dc:title>Matplotlib v3.6.2, https://matplotlib.org/</dc:title>
     </cc:Agent>
    </dc:creator>
   </cc:Work>
  </rdf:RDF>
 </metadata>
 <defs>
  <style type="text/css">*{stroke-linejoin: round; stroke-linecap: butt}</style>
 </defs>
 <g id="figure_1">
  <g id="patch_1">
   <path d="M 0 612 
L 792 612 
L 792 0 
L 0 0 
z
" style="fill: #ffffff"/>
  </g>
  <g id="axes_1">
   <g id="line2d_1">
    <path d="M 0 459 
L 12.375 455.367058 
L 24.75 432.15323 
L 37.125 438.781829 
L 49.5 442.890482 
L 61.875 429.563078 
L 74.25 419.530533 
L 86.625 419.034947 
L 99 418.112382 
L 111.375 428.500107 
L 123.75 431.689959 
L 136.125 430.952274 
L 148.5 435.019828 
L 160.875 431.055198 
L 173.25 442.04789 
L 185.625 433.749354 
L 198 427.231831 
L 210.375 443.664387 
L 222.75 454.041381 
L 235.125 443.595592 
L 247.5 430.317637 
L 259.875 418.334451 
L 272.25 418.52237 
L 284.625 416.968182 
L 297 404.046416 
L 309.375 408.3279 
L 321.75 408.446961 
L 334.125 420.949443 
L 346.5 433.337391 
L 358.875 428.997263 
L 371.25 418.317368 
L 383.625 416.831596 
L 396 424.337221 
L 408.375 382.045398 
L 420.75 376.634836 
L 433.125 390.067561 
L 445.5 381.660569 
L 457.875 376.684828 
L 470.25 382.480556 
L 482.625 379.571078 
L 495 373.572563 
L 507.375 360.188814 
L 519.75 365.737209 
L 532.125 357.728797 
L 544.5 370.020908 
L 556.875 374.936317 
L 569.25 361.651253 
L 581.625 356.599229 
L 594 355.09517 
L 606.375 368.100299 
L 618.75 372.459434 
L 631.125 367.984505 
L 643.5 361.48683 
L 655.875 367.438783 
L 668.25 355.111506 
L 680.625 347.124707 
L 693 346.250599 
L 705.375 355.732475 
L 717.75 362.720638 
L 730.125 372.658724 
L 742.5 376.801484 
L 754.875 369.292016 
L 767.25 374.670097 
L 779.625 370.335802 
" clip-path="url(#pb486189998)" style="fill: none; stroke: #000000; stroke-width: 1.5; stroke-linecap: square"/>
   </g>
   <g id="line2d_2">
    <path d="M 0 459 
L 12.375 459 
L 24.75 456.57801 
L 37.125 442.610424 
L 49.5 440.568188 
L 61.875 441.766681 
L 74.25 435.563885 
L 86.625 427.474437 
L 99 423.235104 
L 111.375 420.592718 
L 123.75 424.491371 
L 136.125 428.087848 
L 148.5 429.504441 
L 160.875 432.245756 
L 173.25 431.653358 
L 185.625 436.892002 
L 198 435.349323 
L 210.375 431.306332 
L 222.75 437.511196 
L 235.125 445.815849 
L 247.5 444.730461 
L 259.875 437.509512 
L 272.25 427.883384 
L 284.625 423.153094 
L 297 420.02601 
L 309.375 411.976428 
L 321.75 410.082491 
L 334.125 409.175818 
L 346.5 415.01118 
L 358.875 424.166228 
L 371.25 426.601771 
L 383.625 422.456172 
L 396 419.642128 
L 408.375 422.028614 
L 420.75 401.875289 
L 433.125 389.138783 
L 445.5 389.543093 
L 457.875 385.496173 
L 470.25 380.981864 
L 482.625 381.661553 
L 495 380.543659 
L 507.375 376.955082 
L 519.75 368.497786 
L 532.125 367.09534 
L 544.5 362.338759 
L 556.875 366.150422 
L 569.25 370.531541 
L 581.625 366.041697 
L 594 361.264869 
L 606.375 358.139215 
L 618.75 363.123449 
L 631.125 367.794785 
L 643.5 367.909846 
L 655.875 364.6768 
L 668.25 366.04228 
L 680.625 360.549413 
L 693 353.794702 
L 705.375 349.99752 
L 717.75 352.836591 
L 730.125 357.747361 
L 742.5 365.186331 
L 754.875 371.009359 
L 767.25 370.154004 
L 779.625 372.448494 
" clip-path="url(#pb486189998)" style="fill: none; stroke: #000000; stroke-width: 1.5; stroke-linecap: square"/>
   </g>
   <g id="line2d_3">
    <path d="M 0 459 
L 12.375 459 
L 24.75 456.871842 
L 37.125 445.662136 
L 49.5 442.974324 
L 61.875 442.944494 
L 74.25 438.461087 
L 86.625 432.368093 
L 99 428.19664 
L 111.375 425.102828 
L 123.75 426.129589 
L 136.125 427.794043 
L 148.5 428.733453 
L 160.875 430.594179 
L 173.25 430.730266 
L 185.625 434.060574 
L 198 433.96906 
L 210.375 431.958099 
L 222.75 435.370409 
L 235.125 440.8588 
L 247.5 441.665792 
L 259.875 438.324726 
L 272.25 432.445212 
L 284.625 428.359904 
L 297 425.016401 
L 309.375 418.83943 
L 321.75 415.732621 
L 334.125 413.569619 
L 346.5 415.717392 
L 358.875 420.865292 
L 371.25 423.242469 
L 383.625 421.77184 
L 396 420.304524 
L 408.375 421.481759 
L 420.75 409.775387 
L 433.125 399.910092 
L 445.5 396.960181 
L 457.875 392.407339 
L 470.25 387.736417 
L 482.625 386.153916 
L 495 384.179946 
L 507.375 381.029231 
L 519.75 374.831644 
L 532.125 372.111972 
L 544.5 367.807931 
L 556.875 368.384522 
L 569.25 370.238869 
L 581.625 367.652572 
L 594 364.334993 
L 606.375 361.542135 
L 618.75 363.442946 
L 631.125 366.071431 
L 643.5 366.606308 
L 655.875 365.081258 
L 668.25 365.760671 
L 680.625 362.598891 
L 693 358.0039 
L 705.375 354.514971 
L 717.75 354.866308 
L 730.125 357.156934 
L 742.5 361.690947 
L 754.875 366.103283 
L 767.25 367.029835 
L 779.625 369.277304 
" clip-path="url(#pb486189998)" style="fill: none; stroke: #000000; stroke-width: 1.5; stroke-linecap: square"/>
   </g>
   <g id="line2d_4">
    <path d="M 0 459 
L 12.375 459 
L 24.75 457.026507 
L 37.125 447.255154 
L 49.5 444.557736 
L 61.875 444.099987 
L 74.25 440.518252 
L 86.625 435.756293 
L 99 432.202367 
L 111.375 429.358934 
L 123.75 429.192933 
L 136.125 429.659457 
L 148.5 429.894499 
L 160.875 430.805244 
L 173.25 430.848868 
L 185.625 432.77172 
L 198 432.937618 
L 210.375 431.978836 
L 222.75 433.921989 
L 235.125 437.242028 
L 247.5 438.285004 
L 259.875 436.982173 
L 272.25 433.941599 
L 284.625 431.437112 
L 297 429.094018 
L 309.375 425.039683 
L 321.75 422.343769 
L 334.125 420.106757 
L 346.5 420.241869 
L 358.875 422.335486 
L 371.25 423.400316 
L 383.625 422.587203 
L 396 421.667053 
L 408.375 422.070192 
L 420.75 415.601953 
L 433.125 409.309686 
L 445.5 406.204205 
L 457.875 402.236782 
L 470.25 398.110084 
L 482.625 395.589677 
L 495 393.004875 
L 507.375 389.867261 
L 519.75 385.056053 
L 532.125 381.921587 
L 544.5 377.993676 
L 556.875 376.681736 
L 569.25 376.369429 
L 581.625 373.965717 
L 594 371.13686 
L 606.375 368.524136 
L 618.75 368.410653 
L 631.125 369.004292 
L 643.5 368.795893 
L 655.875 367.587574 
L 668.25 367.532723 
L 680.625 365.507613 
L 693 362.517092 
L 705.375 359.875158 
L 717.75 359.182678 
L 730.125 359.716824 
L 742.5 361.736138 
L 754.875 364.085116 
L 767.25 364.875527 
L 779.625 366.401523 
" clip-path="url(#pb486189998)" style="fill: none; stroke: #000000; stroke-width: 1.5; stroke-linecap: square"/>
   </g>
   <g id="line2d_5">
    <path d="M 0 459 
L 12.375 459 
L 24.75 457.104857 
L 37.125 448.048478 
L 49.5 445.421389 
L 61.875 444.823849 
L 74.25 441.695879 
L 86.625 437.641364 
L 99 434.54631 
L 111.375 432.022315 
L 123.75 431.517704 
L 136.125 431.540971 
L 148.5 431.465384 
L 160.875 431.901747 
L 173.25 431.801751 
L 185.625 432.969693 
L 198 433.055964 
L 210.375 432.428372 
L 222.75 433.607875 
L 235.125 435.705506 
L 247.5 436.500423 
L 259.875 435.887598 
L 272.25 434.172562 
L 284.625 432.665554 
L 297 431.173378 
L 309.375 428.61916 
L 321.75 426.730988 
L 334.125 425.046415 
L 346.5 424.673179 
L 358.875 425.454782 
L 371.25 425.772243 
L 383.625 425.10749 
L 396 424.373858 
L 408.375 424.370632 
L 420.75 420.628311 
L 433.125 416.751521 
L 445.5 414.420303 
L 457.875 411.563324 
L 470.25 408.528828 
L 482.625 406.275163 
L 495 403.970395 
L 507.375 401.349809 
L 519.75 397.794296 
L 532.125 395.039433 
L 544.5 391.831523 
L 556.875 389.970323 
L 569.25 388.692565 
L 581.625 386.387029 
L 594 383.847262 
L 606.375 381.399243 
L 618.75 380.275265 
L 631.125 379.616789 
L 643.5 378.63629 
L 655.875 377.18872 
L 668.25 376.368857 
L 680.625 374.573877 
L 693 372.250547 
L 705.375 370.052178 
L 717.75 368.84849 
L 730.125 368.335506 
L 742.5 368.695681 
L 754.875 369.369697 
L 767.25 369.36322 
L 779.625 369.804625 
" clip-path="url(#pb486189998)" style="fill: none; stroke: #000000; stroke-width: 1.5; stroke-linecap: square"/>
   </g>
   <g id="line2d_6">
    <path d="M 0 459 
L 12.375 459 
L 24.75 457.14416 
L 37.125 448.44166 
L 49.5 445.866312 
L 61.875 445.218393 
L 74.25 442.315141 
L 86.625 438.613745 
L 99 435.773376 
L 111.375 433.449214 
L 123.75 432.852067 
L 136.125 432.722076 
L 148.5 432.536951 
L 160.875 432.781344 
L 173.25 432.62038 
L 185.625 433.456018 
L 198 433.48089 
L 210.375 432.972176 
L 222.75 433.808455 
L 235.125 435.335262 
L 247.5 435.939085 
L 259.875 435.539875 
L 272.25 434.350018 
L 284.625 433.283943 
L 297 432.21143 
L 309.375 430.397717 
L 321.75 429.008137 
L 334.125 427.739559 
L 346.5 427.329463 
L 358.875 427.685275 
L 371.25 427.761734 
L 383.625 427.21906 
L 396 426.630892 
L 408.375 426.502997 
L 420.75 424.033576 
L 433.125 421.429854 
L 445.5 419.734547 
L 457.875 417.694886 
L 470.25 415.518322 
L 482.625 413.786156 
L 495 412.008166 
L 507.375 410.025486 
L 519.75 407.464883 
L 532.125 405.343798 
L 544.5 402.935466 
L 556.875 401.291563 
L 569.25 399.987248 
L 581.625 398.093648 
L 594 396.053569 
L 606.375 394.051589 
L 618.75 392.797748 
L 631.125 391.82242 
L 643.5 390.683559 
L 655.875 389.292358 
L 668.25 388.258893 
L 680.625 386.690712 
L 693 384.820832 
L 705.375 383.005666 
L 717.75 381.733515 
L 730.125 380.853037 
L 742.5 380.476563 
L 754.875 380.308582 
L 767.25 379.805214 
L 779.625 379.571847 
" clip-path="url(#pb486189998)" style="fill: none; stroke: #000000; stroke-width: 1.5; stroke-linecap: square"/>
   </g>
   <g id="line2d_7">
    <path d="M 0 459 
L 12.375 459 
L 24.75 457.163828 
L 37.125 448.637047 
L 49.5 446.09134 
L 61.875 445.423025 
L 74.25 442.631087 
L 86.625 439.104446 
L 99 436.395346 
L 111.375 434.178509 
L 123.75 433.553337 
L 136.125 433.364965 
L 148.5 433.139039 
L 160.875 433.303221 
L 173.25 433.119026 
L 185.625 433.808105 
L 198 433.803806 
L 210.375 433.346286 
L 222.75 434.030374 
L 235.125 435.299299 
L 247.5 435.804549 
L 259.875 435.48265 
L 272.25 434.511092 
L 284.625 433.636039 
L 297 432.752957 
L 309.375 431.274882 
L 321.75 430.128723 
L 334.125 429.075737 
L 346.5 428.692357 
L 358.875 428.905622 
L 371.25 428.909731 
L 383.625 428.444865 
L 396 427.946254 
L 408.375 427.794749 
L 420.75 425.895064 
L 433.125 423.886065 
L 445.5 422.53799 
L 457.875 420.933926 
L 470.25 419.22495 
L 482.625 417.832045 
L 495 416.403654 
L 507.375 414.826308 
L 519.75 412.834533 
L 532.125 411.1461 
L 544.5 409.251955 
L 556.875 407.886179 
L 569.25 406.756034 
L 581.625 405.220861 
L 594 403.582865 
L 606.375 401.967748 
L 618.75 400.858483 
L 631.125 399.940147 
L 643.5 398.916139 
L 655.875 397.726126 
L 668.25 396.775212 
L 680.625 395.473266 
L 693 393.971419 
L 705.375 392.502279 
L 717.75 391.385418 
L 730.125 390.524953 
L 742.5 389.995291 
L 754.875 389.607933 
L 767.25 389.014446 
L 779.625 388.599498 
" clip-path="url(#pb486189998)" style="fill: none; stroke: #000000; stroke-width: 1.5; stroke-linecap: square"/>
   </g>
   <g id="line2d_8">
    <path d="M 0 459 
L 12.375 459 
L 24.75 457.173664 
L 37.125 448.7344 
L 49.5 446.204403 
L 61.875 445.527066 
L 74.25 442.790452 
L 86.625 439.350526 
L 99 436.707709 
L 111.375 434.545984 
L 123.75 433.911072 
L 136.125 433.697989 
L 148.5 433.455229 
L 160.875 433.583536 
L 173.25 433.389897 
L 185.625 434.01134 
L 198 433.993602 
L 210.375 433.560103 
L 222.75 434.174006 
L 235.125 435.322865 
L 247.5 435.78008 
L 259.875 435.490653 
L 272.25 434.616964 
L 284.625 433.828969 
L 297 433.033594 
L 309.375 431.710902 
L 321.75 430.680672 
L 334.125 429.732593 
L 346.5 429.370439 
L 358.875 429.528893 
L 371.25 429.508248 
L 383.625 429.084834 
L 396 428.633318 
L 408.375 428.479225 
L 420.75 426.8391 
L 433.125 425.105038 
L 445.5 423.927303 
L 457.875 422.534761 
L 470.25 421.054375 
L 482.625 419.837121 
L 495 418.591039 
L 507.375 417.222542 
L 519.75 415.513539 
L 532.125 414.052754 
L 544.5 412.424552 
L 556.875 411.225913 
L 569.25 410.21934 
L 581.625 408.88798 
L 594 407.474916 
L 606.375 406.080835 
L 618.75 405.090714 
L 631.125 404.254122 
L 643.5 403.336262 
L 655.875 402.289581 
L 668.25 401.432091 
L 680.625 400.302136 
L 693 399.017532 
L 705.375 397.758898 
L 717.75 396.773447 
L 730.125 395.987199 
L 742.5 395.457167 
L 754.875 395.038936 
L 767.25 394.466737 
L 779.625 394.032635 
" clip-path="url(#pb486189998)" style="fill: none; stroke: #000000; stroke-width: 1.5; stroke-linecap: square"/>
   </g>
   <g id="line2d_9">
    <path d="M 0 459 
L 12.375 459 
L 24.75 457.178582 
L 37.125 448.782985 
L 49.5 446.261061 
L 61.875 445.579501 
L 74.25 442.870459 
L 86.625 439.473697 
L 99 436.864141 
L 111.375 434.730281 
L 123.75 434.091521 
L 136.125 433.867178 
L 148.5 433.616886 
L 160.875 433.728329 
L 173.25 433.530537 
L 185.625 434.119637 
L 198 434.095542 
L 210.375 433.673713 
L 222.75 434.2541 
L 235.125 435.345342 
L 247.5 435.779085 
L 259.875 435.504522 
L 272.25 434.676988 
L 284.625 433.930342 
L 297 433.176898 
L 309.375 431.928421 
L 321.75 430.954229 
L 334.125 430.057307 
L 346.5 429.707221 
L 358.875 429.842057 
L 371.25 429.811627 
L 383.625 429.409235 
L 396 428.981461 
L 408.375 428.828089 
L 420.75 427.310414 
L 433.125 425.706752 
L 445.5 424.611842 
L 457.875 423.321615 
L 470.25 421.952015 
L 482.625 420.82181 
L 495 419.666282 
L 507.375 418.40098 
L 519.75 416.829596 
L 532.125 415.482026 
L 544.5 413.98513 
L 556.875 412.873468 
L 569.25 411.934397 
L 581.625 410.707219 
L 594 409.408431 
L 606.375 408.127445 
L 618.75 407.204862 
L 631.125 406.419083 
L 643.5 405.563091 
L 655.875 404.595176 
L 668.25 403.794291 
L 680.625 402.756344 
L 693 401.584472 
L 705.375 400.436148 
L 717.75 399.526174 
L 730.125 398.790092 
L 742.5 398.276968 
L 754.875 397.861804 
L 767.25 397.31553 
L 779.625 396.889244 
" clip-path="url(#pb486189998)" style="fill: none; stroke: #000000; stroke-width: 1.5; stroke-linecap: square"/>
   </g>
  </g>
 </g>
 <defs>
  <clipPath id="pb486189998">
   <rect x="0" y="0" width="792" height="612"/>
  </clipPath>
 </defs>
</svg>
