<?xml version="1.0" encoding="utf-8" standalone="no"?>
<!DOCTYPE svg PUBLIC "-//W3C//DTD SVG 1.1//EN"
  "http://www.w3.org/Graphics/SVG/1.1/DTD/svg11.dtd">
<svg xmlns:xlink="http://www.w3.org/1999/xlink" width="792pt" height="612pt" viewBox="0 0 792 612" xmlns="http://www.w3.org/2000/svg" version="1.1">
 <metadata>
  <rdf:RDF xmlns:dc="http://purl.org/dc/elements/1.1/" xmlns:cc="http://creativecommons.org/ns#" xmlns:rdf="http://www.w3.org/1999/02/22-rdf-syntax-ns#">
   <cc:Work>
    <dc:type rdf:resource="http://purl.org/dc/dcmitype/StillImage"/>
    <dc:date>2023-01-30T17:16:19.481569</dc:date>
    <dc:format>image/svg+xml</dc:format>
    <dc:creator>
     <cc:Agent>
      <dc:title>Matplotlib v3.6.2, https://matplotlib.org/</dc:title>
     </cc:Agent>
    </dc:creator>
   </cc:Work>
  </rdf:RDF>
 </metadata>
 <defs>
  <style type="text/css">*{stroke-linejoin: round; stroke-linecap: butt}</style>
 </defs>
 <g id="figure_1">
  <g id="patch_1">
   <path d="M 0 612 
L 792 612 
L 792 0 
L 0 0 
z
" style="fill: #ffffff"/>
  </g>
  <g id="axes_1">
   <g id="line2d_1">
    <path d="M 0 306 
L 12.983607 298.439582 
L 25.967213 306.118831 
L 38.95082 305.016949 
L 51.934426 297.80264 
L 64.918033 308.722233 
L 77.901639 306.07562 
L 90.885246 313.916682 
L 103.868852 313.808726 
L 116.852459 303.266965 
L 129.836066 299.260146 
L 142.819672 305.06016 
L 155.803279 310.742048 
L 168.786885 279.116512 
L 181.770492 302.500047 
L 194.754098 314.661528 
L 207.737705 300.588363 
L 220.721311 302.780886 
L 233.704918 309.748383 
L 246.688525 304.120337 
L 259.672131 302.111203 
L 272.655738 297.25212 
L 285.639344 309.640371 
L 298.622951 300.739557 
L 311.606557 314.057023 
L 324.590164 309.197511 
L 337.57377 297.327678 
L 350.557377 302.67287 
L 363.540984 305.006146 
L 376.52459 314.542791 
L 389.508197 308.841054 
L 402.491803 303.083333 
L 415.47541 301.743973 
L 428.459016 309.899598 
L 441.442623 297.899796 
L 454.42623 300.696358 
L 467.409836 305.41665 
L 480.393443 312.297141 
L 493.377049 310.601644 
L 506.360656 312.491506 
L 519.344262 308.689827 
L 532.327869 301.117551 
L 545.311475 309.499953 
L 558.295082 303.18055 
L 571.278689 305.114173 
L 584.262295 310.126418 
L 597.245902 300.944751 
L 610.229508 310.914849 
L 623.213115 305.945986 
L 636.196721 301.873582 
L 649.180328 310.601644 
L 662.163934 303.774663 
L 675.147541 305.697522 
L 688.131148 302.953712 
L 701.114754 296.96069 
L 714.098361 305.06016 
L 727.081967 304.552436 
L 740.065574 309.975205 
L 753.04918 310.14802 
L 766.032787 319.828955 
L 779.016393 301.549562 
" clip-path="url(#pd57d0c3301)" style="fill: none; stroke: #000000; stroke-width: 1.5; stroke-linecap: square"/>
   </g>
   <g id="line2d_2">
    <path d="M 0 306 
L 12.983607 306 
L 25.967213 300.959151 
L 38.95082 303.907377 
L 51.934426 304.499144 
L 64.918033 301.042299 
L 77.901639 304.943045 
L 90.885246 305.51379 
L 103.868852 309.732414 
L 116.852459 311.786135 
L 129.836066 307.536314 
L 142.819672 303.384304 
L 155.803279 304.222303 
L 168.786885 307.507719 
L 181.770492 293.226618 
L 194.754098 297.854456 
L 207.737705 306.259648 
L 220.721311 303.39786 
L 233.704918 303.088417 
L 246.688525 306.439017 
L 259.672131 305.277824 
L 272.655738 303.677528 
L 285.639344 300.499893 
L 298.622951 305.083926 
L 311.606557 302.884285 
L 324.590164 308.49789 
L 337.57377 308.860285 
L 350.557377 303.068592 
L 363.540984 302.867892 
L 376.52459 303.94267 
L 389.508197 309.277612 
L 402.491803 309.057767 
L 415.47541 306.075154 
L 428.459016 303.885312 
L 441.442623 306.893918 
L 454.42623 302.397201 
L 467.409836 301.54287 
L 480.393443 303.480464 
L 493.377049 307.884789 
L 506.360656 309.246733 
L 519.344262 310.887701 
L 532.327869 309.802431 
L 545.311475 305.442661 
L 558.295082 307.494121 
L 571.278689 305.342174 
L 584.262295 305.227581 
L 597.245902 307.672849 
L 610.229508 304.28966 
L 623.213115 307.59935 
L 636.196721 306.767293 
L 649.180328 304.321813 
L 662.163934 307.464043 
L 675.147541 305.620504 
L 688.131148 305.660157 
L 701.114754 304.292837 
L 714.098361 300.618178 
L 727.081967 302.827523 
L 740.065574 303.687229 
L 753.04918 306.847191 
L 766.032787 308.496788 
L 779.016393 314.197149 
" clip-path="url(#pd57d0c3301)" style="fill: none; stroke: #000000; stroke-width: 1.5; stroke-linecap: square"/>
   </g>
   <g id="line2d_3">
    <path d="M 0 306 
L 12.983607 306 
L 25.967213 301.570617 
L 38.95082 303.631208 
L 51.934426 304.172365 
L 64.918033 301.905624 
L 77.901639 304.187265 
L 90.885246 304.793969 
L 103.868852 307.644614 
L 116.852459 309.533893 
L 129.836066 307.639213 
L 142.819672 305.129272 
L 155.803279 305.108708 
L 168.786885 306.777218 
L 181.770492 298.592728 
L 194.754098 299.743318 
L 207.737705 304.129984 
L 220.721311 303.086357 
L 233.704918 303.001874 
L 246.688525 304.98204 
L 259.672131 304.728621 
L 272.655738 303.966911 
L 285.639344 301.986528 
L 298.622951 304.232288 
L 311.606557 303.194066 
L 324.590164 306.376528 
L 337.57377 307.209614 
L 350.557377 304.312382 
L 363.540984 303.829424 
L 376.52459 304.167484 
L 389.508197 307.247742 
L 402.491803 307.721707 
L 415.47541 306.349844 
L 428.459016 305.002066 
L 441.442623 306.444756 
L 454.42623 303.927861 
L 467.409836 302.977363 
L 480.393443 303.695584 
L 493.377049 306.232436 
L 506.360656 307.513341 
L 519.344262 308.985111 
L 532.327869 308.892459 
L 545.311475 306.605898 
L 558.295082 307.467565 
L 571.278689 306.212495 
L 584.262295 305.890928 
L 597.245902 307.126467 
L 610.229508 305.306684 
L 623.213115 306.958394 
L 636.196721 306.666694 
L 649.180328 305.253534 
L 662.163934 306.83465 
L 675.147541 305.941927 
L 688.131148 305.870665 
L 701.114754 305.00555 
L 714.098361 302.632957 
L 727.081967 303.335302 
L 740.065574 303.687033 
L 753.04918 305.539005 
L 766.032787 306.889771 
L 779.016393 310.701096 
" clip-path="url(#pd57d0c3301)" style="fill: none; stroke: #000000; stroke-width: 1.5; stroke-linecap: square"/>
   </g>
   <g id="line2d_4">
    <path d="M 0 306 
L 12.983607 306 
L 25.967213 301.892489 
L 38.95082 303.551079 
L 51.934426 304.01752 
L 64.918033 302.310977 
L 77.901639 303.888833 
L 90.885246 304.38395 
L 103.868852 306.406569 
L 116.852459 307.898081 
L 129.836066 307.003032 
L 142.819672 305.555809 
L 155.803279 305.465684 
L 168.786885 306.403844 
L 181.770492 301.629555 
L 194.754098 301.77917 
L 207.737705 303.965641 
L 220.721311 303.398441 
L 233.704918 303.295641 
L 246.688525 304.361909 
L 259.672131 304.322234 
L 272.655738 303.960939 
L 285.639344 302.869119 
L 298.622951 303.966813 
L 311.606557 303.445145 
L 324.590164 305.156264 
L 337.57377 305.806442 
L 350.557377 304.444429 
L 363.540984 304.160339 
L 376.52459 304.295798 
L 389.508197 305.935528 
L 402.491803 306.399978 
L 415.47541 305.870205 
L 428.459016 305.211009 
L 441.442623 305.964164 
L 454.42623 304.675672 
L 467.409836 304.039788 
L 480.393443 304.263599 
L 493.377049 305.544122 
L 506.360656 306.351671 
L 519.344262 307.327798 
L 532.327869 307.541311 
L 545.311475 306.517871 
L 558.295082 306.998742 
L 571.278689 306.390071 
L 584.262295 306.183559 
L 597.245902 306.830312 
L 610.229508 305.892856 
L 623.213115 306.6896 
L 636.196721 306.574632 
L 649.180328 305.826073 
L 662.163934 306.58647 
L 675.147541 306.13888 
L 688.131148 306.070896 
L 701.114754 305.578484 
L 714.098361 304.199051 
L 727.081967 304.338751 
L 740.065574 304.366818 
L 753.04918 305.259642 
L 766.032787 306.04544 
L 779.016393 308.250616 
" clip-path="url(#pd57d0c3301)" style="fill: none; stroke: #000000; stroke-width: 1.5; stroke-linecap: square"/>
   </g>
   <g id="line2d_5">
    <path d="M 0 306 
L 12.983607 306 
L 25.967213 302.055544 
L 38.95082 303.528784 
L 51.934426 303.950471 
L 64.918033 302.498846 
L 77.901639 303.77288 
L 90.885246 304.193143 
L 103.868852 305.807447 
L 116.852459 307.034068 
L 129.836066 306.494584 
L 142.819672 305.517252 
L 155.803279 305.458567 
L 168.786885 306.107494 
L 181.770492 302.911476 
L 194.754098 302.86453 
L 207.737705 304.170181 
L 220.721311 303.784442 
L 233.704918 303.678977 
L 246.688525 304.30301 
L 259.672131 304.284593 
L 272.655738 304.069301 
L 285.639344 303.404517 
L 298.622951 304.00374 
L 311.606557 303.694093 
L 324.590164 304.665669 
L 337.57377 305.085978 
L 350.557377 304.373184 
L 363.540984 304.218377 
L 376.52459 304.289524 
L 389.508197 305.209017 
L 402.491803 305.532515 
L 415.47541 305.315685 
L 428.459016 305.001203 
L 441.442623 305.430317 
L 454.42623 304.773509 
L 467.409836 304.419438 
L 480.393443 304.505697 
L 493.377049 305.177382 
L 506.360656 305.643485 
L 519.344262 306.230261 
L 532.327869 306.440423 
L 545.311475 305.986688 
L 558.295082 306.285488 
L 571.278689 306.021961 
L 584.262295 305.94506 
L 597.245902 306.298687 
L 610.229508 305.846591 
L 623.213115 306.273948 
L 636.196721 306.246333 
L 649.180328 305.878559 
L 662.163934 306.275366 
L 675.147541 306.065496 
L 688.131148 306.034643 
L 701.114754 305.776532 
L 714.098361 305.038348 
L 727.081967 305.040173 
L 740.065574 304.9994 
L 753.04918 305.415119 
L 766.032787 305.810332 
L 779.016393 306.981068 
" clip-path="url(#pd57d0c3301)" style="fill: none; stroke: #000000; stroke-width: 1.5; stroke-linecap: square"/>
   </g>
   <g id="line2d_6">
    <path d="M 0 306 
L 12.983607 306 
L 25.967213 302.13734 
L 38.95082 303.522316 
L 51.934426 303.920586 
L 64.918033 302.588442 
L 77.901639 303.724506 
L 90.885246 304.105552 
L 103.868852 305.525963 
L 116.852459 306.613804 
L 129.836066 306.210203 
L 142.819672 305.432762 
L 155.803279 305.393795 
L 168.786885 305.920412 
L 181.770492 303.415024 
L 194.754098 303.333843 
L 207.737705 304.294509 
L 220.721311 303.993 
L 233.704918 303.898095 
L 246.688525 304.340271 
L 259.672131 304.324182 
L 272.655738 304.167115 
L 285.639344 303.689841 
L 298.622951 304.089782 
L 311.606557 303.870037 
L 324.590164 304.523101 
L 337.57377 304.816359 
L 350.557377 304.355779 
L 363.540984 304.254238 
L 376.52459 304.298804 
L 389.508197 304.896017 
L 402.491803 305.122369 
L 415.47541 305.007101 
L 428.459016 304.825197 
L 441.442623 305.104334 
L 454.42623 304.712871 
L 467.409836 304.497233 
L 480.393443 304.546038 
L 493.377049 304.953179 
L 506.360656 305.246888 
L 519.344262 305.620041 
L 532.327869 305.776714 
L 545.311475 305.540944 
L 558.295082 305.739644 
L 571.278689 305.612199 
L 584.262295 305.58758 
L 597.245902 305.810395 
L 610.229508 305.573115 
L 623.213115 305.83196 
L 636.196721 305.837452 
L 649.180328 305.647628 
L 662.163934 305.883575 
L 675.147541 305.78366 
L 688.131148 305.7796 
L 701.114754 305.647007 
L 714.098361 305.241165 
L 727.081967 305.232747 
L 740.065574 305.201237 
L 753.04918 305.421499 
L 766.032787 305.638761 
L 779.016393 306.289116 
" clip-path="url(#pd57d0c3301)" style="fill: none; stroke: #000000; stroke-width: 1.5; stroke-linecap: square"/>
   </g>
   <g id="line2d_7">
    <path d="M 0 306 
L 12.983607 306 
L 25.967213 302.178272 
L 38.95082 303.520267 
L 51.934426 303.906673 
L 64.918033 302.632115 
L 77.901639 303.702827 
L 90.885246 304.064206 
L 103.868852 305.391345 
L 116.852459 306.409869 
L 129.836066 306.064063 
L 142.819672 305.376278 
L 155.803279 305.346684 
L 168.786885 305.817797 
L 181.770492 303.624912 
L 194.754098 303.538021 
L 207.737705 304.351948 
L 220.721311 304.09012 
L 233.704918 304.003228 
L 246.688525 304.368118 
L 259.672131 304.353016 
L 272.655738 304.22157 
L 285.639344 303.827487 
L 298.622951 304.144931 
L 311.606557 303.964915 
L 324.590164 304.482176 
L 337.57377 304.716823 
L 350.557377 304.35915 
L 363.540984 304.279688 
L 376.52459 304.313062 
L 389.508197 304.771864 
L 402.491803 304.950159 
L 415.47541 304.870152 
L 428.459016 304.738978 
L 441.442623 304.951151 
L 454.42623 304.666775 
L 467.409836 304.509642 
L 480.393443 304.544894 
L 493.377049 304.84106 
L 506.360656 305.057497 
L 519.344262 305.332391 
L 532.327869 305.454628 
L 545.311475 305.299043 
L 558.295082 305.447589 
L 571.278689 305.368527 
L 584.262295 305.359775 
L 597.245902 305.521705 
L 610.229508 305.368137 
L 623.213115 305.552009 
L 636.196721 305.564917 
L 649.180328 305.445325 
L 662.163934 305.610568 
L 675.147541 305.552354 
L 688.131148 305.55691 
L 701.114754 305.47601 
L 714.098361 305.213838 
L 727.081967 305.209152 
L 740.065574 305.189306 
L 753.04918 305.33268 
L 766.032787 305.475718 
L 779.016393 305.898832 
" clip-path="url(#pd57d0c3301)" style="fill: none; stroke: #000000; stroke-width: 1.5; stroke-linecap: square"/>
   </g>
   <g id="line2d_8">
    <path d="M 0 306 
L 12.983607 306 
L 25.967213 302.198742 
L 38.95082 303.51954 
L 51.934426 303.899988 
L 64.918033 302.653667 
L 77.901639 303.692622 
L 90.885246 304.0442 
L 103.868852 305.32575 
L 116.852459 306.309844 
L 129.836066 305.990506 
L 142.819672 305.344883 
L 155.803279 305.319718 
L 168.786885 305.764489 
L 181.770492 303.718903 
L 194.754098 303.631339 
L 207.737705 304.378257 
L 220.721311 304.13546 
L 233.704918 304.053076 
L 246.688525 304.382939 
L 259.672131 304.368415 
L 272.655738 304.248884 
L 285.639344 303.89328 
L 298.622951 304.174041 
L 311.606557 304.012394 
L 324.590164 304.46862 
L 337.57377 304.676184 
L 350.557377 304.36389 
L 363.540984 304.294252 
L 376.52459 304.322702 
L 389.508197 304.719632 
L 402.491803 304.875302 
L 415.47541 304.809395 
L 428.459016 304.699505 
L 441.442623 304.881351 
L 454.42623 304.642922 
L 467.409836 304.511238 
L 480.393443 304.540777 
L 493.377049 304.788448 
L 506.360656 304.970216 
L 519.344262 305.200687 
L 532.327869 305.305509 
L 545.311475 305.182062 
L 558.295082 305.306995 
L 571.278689 305.246566 
L 584.262295 305.242869 
L 597.245902 305.376944 
L 610.229508 305.257251 
L 623.213115 305.407593 
L 636.196721 305.421676 
L 649.180328 305.330264 
L 662.163934 305.464068 
L 675.147541 305.421805 
L 688.131148 305.428605 
L 701.114754 305.368397 
L 714.098361 305.16654 
L 727.081967 305.16402 
L 740.065574 305.149717 
L 753.04918 305.261164 
L 766.032787 305.372655 
L 779.016393 305.698741 
" clip-path="url(#pd57d0c3301)" style="fill: none; stroke: #000000; stroke-width: 1.5; stroke-linecap: square"/>
   </g>
   <g id="line2d_9">
    <path d="M 0 306 
L 12.983607 306 
L 25.967213 302.208978 
L 38.95082 303.519252 
L 51.934426 303.896714 
L 64.918033 302.664373 
L 77.901639 303.68768 
L 90.885246 304.034371 
L 103.868852 305.293401 
L 116.852459 306.260363 
L 129.836066 305.953669 
L 142.819672 305.328457 
L 155.803279 305.305427 
L 168.786885 305.73738 
L 181.770492 303.763136 
L 194.754098 303.675698 
L 207.737705 304.390674 
L 220.721311 304.157162 
L 233.704918 304.077129 
L 246.688525 304.390387 
L 259.672131 304.376179 
L 272.655738 304.262376 
L 285.639344 303.925183 
L 298.622951 304.18875 
L 311.606557 304.03589 
L 324.590164 304.463389 
L 337.57377 304.658063 
L 350.557377 304.366939 
L 363.540984 304.301908 
L 376.52459 304.328078 
L 389.508197 304.696049 
L 402.491803 304.840904 
L 415.47541 304.781243 
L 428.459016 304.681001 
L 441.442623 304.848602 
L 454.42623 304.63119 
L 467.409836 304.511201 
L 480.393443 304.538133 
L 493.377049 304.763457 
L 506.360656 304.929076 
L 519.344262 305.138808 
L 532.327869 305.235129 
L 545.311475 305.125806 
L 558.295082 305.239529 
L 571.278689 305.187078 
L 584.262295 305.185257 
L 597.245902 305.306285 
L 610.229508 305.20145 
L 623.213115 305.336262 
L 636.196721 305.350391 
L 649.180328 305.271226 
L 662.163934 305.390524 
L 675.147541 305.354966 
L 688.131148 305.362381 
L 701.114754 305.311074 
L 714.098361 305.135939 
L 727.081967 305.134374 
L 740.065574 305.12254 
L 753.04918 305.219773 
L 766.032787 305.317096 
L 779.016393 305.599794 
" clip-path="url(#pd57d0c3301)" style="fill: none; stroke: #000000; stroke-width: 1.5; stroke-linecap: square"/>
   </g>
  </g>
 </g>
 <defs>
  <clipPath id="pd57d0c3301">
   <rect x="0" y="0" width="792" height="612"/>
  </clipPath>
 </defs>
</svg>
