<?xml version="1.0" encoding="utf-8" standalone="no"?>
<!DOCTYPE svg PUBLIC "-//W3C//DTD SVG 1.1//EN"
  "http://www.w3.org/Graphics/SVG/1.1/DTD/svg11.dtd">
<svg xmlns:xlink="http://www.w3.org/1999/xlink" width="792pt" height="612pt" viewBox="0 0 792 612" xmlns="http://www.w3.org/2000/svg" version="1.1">
 <metadata>
  <rdf:RDF xmlns:dc="http://purl.org/dc/elements/1.1/" xmlns:cc="http://creativecommons.org/ns#" xmlns:rdf="http://www.w3.org/1999/02/22-rdf-syntax-ns#">
   <cc:Work>
    <dc:type rdf:resource="http://purl.org/dc/dcmitype/StillImage"/>
    <dc:date>2023-01-16T16:10:55.437850</dc:date>
    <dc:format>image/svg+xml</dc:format>
    <dc:creator>
     <cc:Agent>
      <dc:title>Matplotlib v3.6.2, https://matplotlib.org/</dc:title>
     </cc:Agent>
    </dc:creator>
   </cc:Work>
  </rdf:RDF>
 </metadata>
 <defs>
  <style type="text/css">*{stroke-linejoin: round; stroke-linecap: butt}</style>
 </defs>
 <g id="figure_1">
  <g id="patch_1">
   <path d="M 0 612 
L 792 612 
L 792 0 
L 0 0 
z
" style="fill: #ffffff"/>
  </g>
  <g id="axes_1">
   <g id="line2d_1">
    <path d="M 0 459 
L 12.983607 452.798998 
L 25.967213 462.138768 
L 38.95082 465.418972 
L 51.934426 462.117009 
L 64.918033 455.736171 
L 77.901639 444.317533 
L 90.885246 444.496865 
L 103.868852 443.013438 
L 116.852459 430.656637 
L 129.836066 434.755608 
L 142.819672 434.869526 
L 155.803279 446.812259 
L 168.786885 458.608334 
L 181.770492 454.479667 
L 194.754098 444.30123 
L 207.737705 442.883042 
L 220.721311 450.041776 
L 233.704918 409.516737 
L 246.688525 404.29741 
L 259.672131 417.240165 
L 272.655738 409.145786 
L 285.639344 404.345674 
L 298.622951 409.936152 
L 311.606557 407.130909 
L 324.590164 401.339635 
L 337.57377 388.379975 
L 350.557377 393.759092 
L 363.540984 385.99199 
L 376.52459 397.90574 
L 389.508197 402.657188 
L 402.491803 389.798708 
L 415.47541 384.894869 
L 428.459016 383.433395 
L 441.442623 396.047256 
L 454.42623 400.263812 
L 467.409836 395.935173 
L 480.393443 389.639232 
L 493.377049 395.406884 
L 506.360656 383.449272 
L 519.344262 375.676649 
L 532.327869 374.824739 
L 545.311475 384.052742 
L 558.295082 390.835718 
L 571.278689 400.456449 
L 584.262295 404.458294 
L 597.245902 397.200554 
L 610.229508 402.40003 
L 623.213115 398.210343 
L 636.196721 403.026916 
L 649.180328 395.518931 
L 662.163934 402.817931 
L 675.147541 402.737558 
L 688.131148 396.607787 
L 701.114754 403.444959 
L 714.098361 400.1354 
L 727.081967 399.686029 
L 740.065574 395.166809 
L 753.04918 381.830762 
L 766.032787 380.451826 
L 779.016393 378.33081 
" clip-path="url(#p9b34b8f2ea)" style="fill: none; stroke: #000000; stroke-width: 1.5; stroke-linecap: square"/>
   </g>
   <g id="line2d_2">
    <path d="M 0 459 
L 12.983607 459 
L 25.967213 454.865859 
L 38.95082 460.202974 
L 51.934426 462.98484 
L 64.918033 462.536927 
L 77.901639 460.187777 
L 90.885246 453.366357 
L 103.868852 448.913279 
L 116.852459 445.931486 
L 129.836066 438.244918 
L 142.819672 436.43405 
L 155.803279 435.566824 
L 168.786885 441.14469 
L 181.770492 449.878837 
L 194.754098 452.199012 
L 207.737705 448.248941 
L 220.721311 445.565276 
L 233.704918 447.841316 
L 246.688525 428.576252 
L 259.672131 416.346887 
L 272.655738 416.735772 
L 285.639344 412.841208 
L 298.622951 408.491453 
L 311.606557 409.146734 
L 324.590164 408.068915 
L 337.57377 404.60657 
L 350.557377 396.431976 
L 363.540984 395.074366 
L 376.52459 390.46544 
L 389.508197 394.159325 
L 402.491803 398.39967 
L 415.47541 394.05402 
L 428.459016 389.423935 
L 441.442623 386.390521 
L 454.42623 391.226245 
L 467.409836 395.751523 
L 480.393443 395.862903 
L 493.377049 392.731759 
L 506.360656 394.054585 
L 519.344262 388.729858 
L 532.327869 382.169174 
L 545.311475 378.474768 
L 558.295082 381.237428 
L 571.278689 386.010018 
L 584.262295 393.225439 
L 597.245902 398.861791 
L 610.229508 398.03449 
L 623.213115 400.253237 
L 636.196721 399.276031 
L 649.180328 401.206232 
L 662.163934 398.382818 
L 675.147541 400.622537 
L 688.131148 401.684211 
L 701.114754 399.128755 
L 714.098361 401.297811 
L 727.081967 400.712071 
L 740.065574 400.201871 
L 753.04918 397.667062 
L 766.032787 389.700956 
L 779.016393 385.02502 
" clip-path="url(#p9b34b8f2ea)" style="fill: none; stroke: #000000; stroke-width: 1.5; stroke-linecap: square"/>
   </g>
   <g id="line2d_3">
    <path d="M 0 459 
L 12.983607 459 
L 25.967213 455.367392 
L 38.95082 459.759859 
L 51.934426 461.96988 
L 64.918033 462.022227 
L 77.901639 460.646402 
L 90.885246 457.633321 
L 103.868852 453.527985 
L 116.852459 450.304828 
L 129.836066 444.357694 
L 142.819672 441.480028 
L 155.803279 439.512239 
L 168.786885 441.67339 
L 181.770492 446.669738 
L 194.754098 448.969381 
L 207.737705 447.596491 
L 220.721311 446.197155 
L 233.704918 447.31989 
L 246.688525 436.140331 
L 259.672131 426.692127 
L 272.655738 423.862 
L 285.639344 419.489465 
L 298.622951 414.997673 
L 311.606557 413.474498 
L 324.590164 411.573552 
L 337.57377 408.537123 
L 350.557377 402.55608 
L 363.540984 399.927921 
L 376.52459 395.764248 
L 389.508197 396.322355 
L 402.491803 398.116581 
L 415.47541 395.613853 
L 428.459016 392.400541 
L 441.442623 389.692873 
L 454.42623 391.535962 
L 467.409836 394.082819 
L 480.393443 394.600829 
L 493.377049 393.123641 
L 506.360656 393.781818 
L 519.344262 390.717675 
L 532.327869 386.259132 
L 545.311475 382.869434 
L 558.295082 383.21095 
L 571.278689 385.436604 
L 584.262295 389.837206 
L 597.245902 394.113669 
L 610.229508 395.01094 
L 623.213115 397.186319 
L 636.196721 397.501536 
L 649.180328 399.140669 
L 662.163934 398.078472 
L 675.147541 399.468236 
L 688.131148 400.432996 
L 701.114754 399.319771 
L 714.098361 400.536265 
L 727.081967 400.438114 
L 740.065574 400.245603 
L 753.04918 398.780065 
L 766.032787 393.79363 
L 779.016393 389.861204 
" clip-path="url(#p9b34b8f2ea)" style="fill: none; stroke: #000000; stroke-width: 1.5; stroke-linecap: square"/>
   </g>
   <g id="line2d_4">
    <path d="M 0 459 
L 12.983607 459 
L 25.967213 455.631387 
L 38.95082 459.549658 
L 51.934426 461.417315 
L 64.918033 461.609401 
L 77.901639 460.699406 
L 90.885246 459.206126 
L 103.868852 456.409532 
L 116.852459 453.709743 
L 129.836066 449.248591 
L 142.819672 446.537733 
L 155.803279 444.414429 
L 168.786885 444.840688 
L 181.770492 447.242419 
L 194.754098 448.48603 
L 207.737705 447.775683 
L 220.721311 446.953857 
L 233.704918 447.467804 
L 246.688525 441.171645 
L 259.672131 435.08684 
L 272.655738 432.164329 
L 285.639344 428.406886 
L 298.622951 424.491127 
L 311.606557 422.1331 
L 324.590164 419.70819 
L 337.57377 416.742879 
L 350.557377 412.16003 
L 363.540984 409.197452 
L 376.52459 405.460346 
L 389.508197 404.249615 
L 402.491803 403.994981 
L 415.47541 401.719525 
L 428.459016 398.985091 
L 441.442623 396.457478 
L 454.42623 396.347646 
L 467.409836 396.922145 
L 480.393443 396.720477 
L 493.377049 395.55093 
L 506.360656 395.497829 
L 519.344262 393.536686 
L 532.327869 390.638361 
L 545.311475 388.075607 
L 558.295082 387.403526 
L 571.278689 387.921951 
L 584.262295 389.881035 
L 597.245902 392.158383 
L 610.229508 392.924313 
L 623.213115 394.402512 
L 636.196721 394.980213 
L 649.180328 396.228969 
L 662.163934 396.107276 
L 675.147541 397.172292 
L 688.131148 398.04756 
L 701.114754 397.810604 
L 714.098361 398.705281 
L 727.081967 398.926644 
L 740.065574 399.042809 
L 753.04918 398.421674 
L 766.032787 395.765887 
L 779.016393 393.310462 
" clip-path="url(#p9b34b8f2ea)" style="fill: none; stroke: #000000; stroke-width: 1.5; stroke-linecap: square"/>
   </g>
   <g id="line2d_5">
    <path d="M 0 459 
L 12.983607 459 
L 25.967213 455.765121 
L 38.95082 459.45078 
L 51.934426 461.141962 
L 64.918033 461.372137 
L 77.901639 460.663758 
L 90.885246 459.466565 
L 103.868852 457.759155 
L 116.852459 455.498138 
L 129.836066 451.935986 
L 142.819672 449.613137 
L 155.803279 447.718507 
L 168.786885 447.607203 
L 181.770492 448.906115 
L 194.754098 449.541958 
L 207.737705 448.961866 
L 220.721311 448.307078 
L 233.704918 448.48936 
L 246.688525 444.465692 
L 259.672131 440.395488 
L 272.655738 438.095698 
L 285.639344 435.262329 
L 298.622951 432.277452 
L 311.606557 430.15117 
L 324.590164 427.985192 
L 337.57377 425.502282 
L 350.557377 422.06655 
L 363.540984 419.47426 
L 376.52459 416.427239 
L 389.508197 414.759955 
L 402.491803 413.679226 
L 415.47541 411.553101 
L 428.459016 409.190272 
L 441.442623 406.918762 
L 454.42623 405.96824 
L 467.409836 405.47222 
L 480.393443 404.645273 
L 493.377049 403.346628 
L 506.360656 402.663012 
L 519.344262 401.00802 
L 532.327869 398.827174 
L 545.311475 396.766211 
L 558.295082 395.680904 
L 571.278689 395.269112 
L 584.262295 395.707921 
L 597.245902 396.446197 
L 610.229508 396.509878 
L 623.213115 397.005716 
L 636.196721 397.107115 
L 649.180328 397.604198 
L 662.163934 397.428918 
L 675.147541 397.880539 
L 688.131148 398.287259 
L 701.114754 398.146498 
L 714.098361 398.589416 
L 727.081967 398.718684 
L 740.065574 398.799528 
L 753.04918 398.495732 
L 766.032787 397.097347 
L 779.016393 395.701153 
" clip-path="url(#p9b34b8f2ea)" style="fill: none; stroke: #000000; stroke-width: 1.5; stroke-linecap: square"/>
   </g>
   <g id="line2d_6">
    <path d="M 0 459 
L 12.983607 459 
L 25.967213 455.832207 
L 38.95082 459.403283 
L 51.934426 461.006298 
L 64.918033 461.248092 
L 77.901639 460.630176 
L 90.885246 459.572474 
L 103.868852 458.368773 
L 116.852459 456.351626 
L 129.836066 453.249013 
L 142.819672 451.178606 
L 155.803279 449.47135 
L 168.786885 449.209509 
L 181.770492 450.085551 
L 194.754098 450.475349 
L 207.737705 449.951673 
L 220.721311 449.376472 
L 233.704918 449.428561 
L 246.688525 446.39924 
L 259.672131 443.303388 
L 272.655738 441.448299 
L 285.639344 439.210115 
L 298.622951 436.85506 
L 311.606557 435.082867 
L 324.590164 433.283608 
L 337.57377 431.268891 
L 350.557377 428.609859 
L 363.540984 426.493007 
L 376.52459 424.071787 
L 389.508197 422.538652 
L 402.491803 421.393475 
L 415.47541 419.594931 
L 428.459016 417.644879 
L 441.442623 415.747271 
L 454.42623 414.672302 
L 467.409836 413.896319 
L 480.393443 412.93887 
L 493.377049 411.708052 
L 506.360656 410.85712 
L 519.344262 409.435316 
L 532.327869 407.695903 
L 545.311475 406.016766 
L 558.295082 404.907678 
L 571.278689 404.204226 
L 584.262295 404.018782 
L 597.245902 404.040354 
L 610.229508 403.706233 
L 623.213115 403.642921 
L 636.196721 403.380905 
L 649.180328 403.363953 
L 662.163934 402.989553 
L 675.147541 402.981421 
L 688.131148 402.969924 
L 701.114754 402.670909 
L 714.098361 402.707056 
L 727.081967 402.587374 
L 740.065574 402.452889 
L 753.04918 402.11607 
L 766.032787 401.17806 
L 779.016393 400.222839 
" clip-path="url(#p9b34b8f2ea)" style="fill: none; stroke: #000000; stroke-width: 1.5; stroke-linecap: square"/>
   </g>
   <g id="line2d_7">
    <path d="M 0 459 
L 12.983607 459 
L 25.967213 455.865778 
L 38.95082 459.380065 
L 51.934426 460.939193 
L 64.918033 461.18507 
L 77.901639 460.609604 
L 90.885246 459.61879 
L 103.868852 458.652435 
L 116.852459 456.759692 
L 129.836066 453.883922 
L 142.819672 451.948693 
L 155.803279 450.348266 
L 168.786885 450.039483 
L 181.770492 450.741248 
L 194.754098 451.029982 
L 207.737705 450.537558 
L 220.721311 450.0049 
L 233.704918 450.007348 
L 246.688525 447.424805 
L 259.672131 444.782622 
L 272.655738 443.163012 
L 285.639344 441.231892 
L 298.622951 439.207167 
L 311.606557 437.653828 
L 324.590164 436.082696 
L 337.57377 434.344196 
L 350.557377 432.10083 
L 363.540984 430.281344 
L 376.52459 428.228342 
L 389.508197 426.860815 
L 402.491803 425.795547 
L 415.47541 424.241147 
L 428.459016 422.57573 
L 441.442623 420.951859 
L 454.42623 419.942331 
L 467.409836 419.160374 
L 480.393443 418.253045 
L 493.377049 417.152631 
L 506.360656 416.331572 
L 519.344262 415.105726 
L 532.327869 413.654961 
L 545.311475 412.247209 
L 558.295082 411.242848 
L 571.278689 410.527467 
L 584.262295 410.180072 
L 597.245902 409.985441 
L 610.229508 409.555155 
L 623.213115 409.317573 
L 636.196721 408.952655 
L 649.180328 408.760408 
L 662.163934 408.334652 
L 675.147541 408.159491 
L 688.131148 407.989095 
L 701.114754 407.634377 
L 714.098361 407.505298 
L 727.081967 407.280144 
L 740.065574 407.050208 
L 753.04918 406.693114 
L 766.032787 405.949359 
L 779.016393 405.192635 
" clip-path="url(#p9b34b8f2ea)" style="fill: none; stroke: #000000; stroke-width: 1.5; stroke-linecap: square"/>
   </g>
   <g id="line2d_8">
    <path d="M 0 459 
L 12.983607 459 
L 25.967213 455.882567 
L 38.95082 459.368593 
L 51.934426 460.905848 
L 64.918033 461.153356 
L 77.901639 460.598404 
L 90.885246 459.640243 
L 103.868852 458.788461 
L 116.852459 456.958057 
L 129.836066 454.194265 
L 142.819672 452.32802 
L 155.803279 450.783409 
L 168.786885 450.457639 
L 181.770492 451.081574 
L 194.754098 451.325664 
L 207.737705 450.849929 
L 220.721311 450.339394 
L 233.704918 450.321293 
L 246.688525 447.947949 
L 259.672131 445.521026 
L 272.655738 444.019015 
L 285.639344 442.239513 
L 298.622951 440.378692 
L 311.606557 438.940224 
L 324.590164 437.48913 
L 337.57377 435.893472 
L 350.557377 433.857304 
L 363.540984 432.194152 
L 376.52459 430.330788 
L 389.508197 429.064177 
L 402.491803 428.062011 
L 415.47541 426.643721 
L 428.459016 425.133586 
L 441.442623 423.661678 
L 454.42623 422.713416 
L 467.409836 421.96099 
L 480.393443 421.107138 
L 493.377049 420.095226 
L 506.360656 419.319087 
L 519.344262 418.210457 
L 532.327869 416.918462 
L 545.311475 415.663856 
L 558.295082 414.741887 
L 571.278689 414.058552 
L 584.262295 413.677527 
L 597.245902 413.423901 
L 610.229508 412.984121 
L 623.213115 412.702194 
L 636.196721 412.321792 
L 649.180328 412.081819 
L 662.163934 411.659709 
L 675.147541 411.438062 
L 688.131148 411.223025 
L 701.114754 410.866196 
L 714.098361 410.687762 
L 727.081967 410.437155 
L 740.065574 410.185066 
L 753.04918 409.836902 
L 766.032787 409.193002 
L 779.016393 408.539848 
" clip-path="url(#p9b34b8f2ea)" style="fill: none; stroke: #000000; stroke-width: 1.5; stroke-linecap: square"/>
   </g>
   <g id="line2d_9">
    <path d="M 0 459 
L 12.983607 459 
L 25.967213 455.890962 
L 38.95082 459.362891 
L 51.934426 460.889232 
L 64.918033 461.137454 
L 77.901639 460.592581 
L 90.885246 459.65054 
L 103.868852 458.854965 
L 116.852459 457.055706 
L 129.836066 454.347455 
L 142.819672 452.51594 
L 155.803279 450.999718 
L 168.786885 450.666979 
L 181.770492 451.254288 
L 194.754098 451.477538 
L 207.737705 451.010423 
L 220.721311 450.511155 
L 233.704918 450.48386 
L 246.688525 448.211404 
L 259.672131 445.88886 
L 272.655738 444.445173 
L 285.639344 442.740446 
L 298.622951 440.960581 
L 311.606557 439.580179 
L 324.590164 438.189798 
L 337.57377 436.665845 
L 350.557377 434.732008 
L 363.540984 433.147746 
L 376.52459 431.379222 
L 389.508197 430.166295 
L 402.491803 429.200249 
L 415.47541 427.852162 
L 428.459016 426.421419 
L 441.442623 425.02768 
L 454.42623 424.115798 
L 467.409836 423.385052 
L 480.393443 422.563857 
L 493.377049 421.600767 
L 506.360656 420.8535 
L 519.344262 419.80697 
L 532.327869 418.596396 
L 545.311475 417.421022 
L 558.295082 416.546279 
L 571.278689 415.887286 
L 584.262295 415.500598 
L 597.245902 415.22948 
L 610.229508 414.794343 
L 623.213115 414.501085 
L 636.196721 414.122138 
L 649.180328 413.868882 
L 662.163934 413.456398 
L 675.147541 413.221715 
L 688.131148 412.99422 
L 701.114754 412.643794 
L 714.098361 412.450511 
L 727.081967 412.195511 
L 740.065574 411.940358 
L 753.04918 411.602874 
L 766.032787 411.01017 
L 779.016393 410.41021 
" clip-path="url(#p9b34b8f2ea)" style="fill: none; stroke: #000000; stroke-width: 1.5; stroke-linecap: square"/>
   </g>
  </g>
 </g>
 <defs>
  <clipPath id="p9b34b8f2ea">
   <rect x="0" y="0" width="792" height="612"/>
  </clipPath>
 </defs>
</svg>
