<?xml version="1.0" encoding="utf-8" standalone="no"?>
<!DOCTYPE svg PUBLIC "-//W3C//DTD SVG 1.1//EN"
  "http://www.w3.org/Graphics/SVG/1.1/DTD/svg11.dtd">
<svg xmlns:xlink="http://www.w3.org/1999/xlink" width="792pt" height="612pt" viewBox="0 0 792 612" xmlns="http://www.w3.org/2000/svg" version="1.1">
 <metadata>
  <rdf:RDF xmlns:dc="http://purl.org/dc/elements/1.1/" xmlns:cc="http://creativecommons.org/ns#" xmlns:rdf="http://www.w3.org/1999/02/22-rdf-syntax-ns#">
   <cc:Work>
    <dc:type rdf:resource="http://purl.org/dc/dcmitype/StillImage"/>
    <dc:date>2022-12-19T20:27:49.293489</dc:date>
    <dc:format>image/svg+xml</dc:format>
    <dc:creator>
     <cc:Agent>
      <dc:title>Matplotlib v3.6.2, https://matplotlib.org/</dc:title>
     </cc:Agent>
    </dc:creator>
   </cc:Work>
  </rdf:RDF>
 </metadata>
 <defs>
  <style type="text/css">*{stroke-linejoin: round; stroke-linecap: butt}</style>
 </defs>
 <g id="figure_1">
  <g id="patch_1">
   <path d="M 0 612 
L 792 612 
L 792 0 
L 0 0 
z
" style="fill: #ffffff"/>
  </g>
  <g id="axes_1">
   <g id="line2d_1">
    <path d="M 0 459 
L 12.375 469.083787 
L 24.75 469.901391 
L 37.125 472.369631 
L 49.5 470.091652 
L 61.875 467.803388 
L 74.25 471.017241 
L 86.625 472.354204 
L 99 473.603751 
L 111.375 472.678161 
L 123.75 474.920145 
L 136.125 473.835148 
L 148.5 466.893224 
L 160.875 468.8781 
L 173.25 470.107078 
L 185.625 466.116757 
L 198 463.103448 
L 210.375 462.954325 
L 222.75 462.676649 
L 235.125 465.797943 
L 247.5 466.754386 
L 259.875 466.533273 
L 272.25 467.751966 
L 284.625 466.564126 
L 297 469.855112 
L 309.375 467.371446 
L 321.75 465.417423 
L 334.125 470.338475 
L 346.5 473.439201 
L 358.875 470.317907 
L 371.25 466.343013 
L 383.625 462.743497 
L 396 462.80006 
L 408.375 462.332123 
L 420.75 457.287667 
L 433.125 459.725045 
L 445.5 459.761041 
L 457.875 463.530248 
L 470.25 467.248034 
L 482.625 465.947066 
L 495 462.738355 
L 507.375 462.290986 
L 519.75 464.548397 
L 532.125 437.172556 
L 544.5 432.188452 
L 556.875 444.534737 
L 569.25 436.818562 
L 581.625 432.234574 
L 594 437.572754 
L 606.375 434.895155 
L 618.75 429.360719 
L 631.125 416.942257 
L 643.5 422.102473 
L 655.875 414.648789 
L 668.25 426.074797 
L 680.625 430.620638 
L 693 418.304057 
L 705.375 413.594537 
L 717.75 412.189622 
L 730.125 424.295037 
L 742.5 428.331605 
L 754.875 424.187671 
L 767.25 418.151009 
L 779.625 423.681568 
" clip-path="url(#p1e8759b831)" style="fill: none; stroke: #000000; stroke-width: 1.5; stroke-linecap: square"/>
   </g>
   <g id="line2d_2">
    <path d="M 0 459 
L 12.375 459 
L 24.75 465.722525 
L 37.125 468.110449 
L 49.5 470.382013 
L 61.875 470.232149 
L 74.25 468.998492 
L 86.625 470.015815 
L 99 471.189595 
L 111.375 472.425308 
L 123.75 472.558782 
L 136.125 473.749304 
L 148.5 473.7951 
L 160.875 470.337891 
L 173.25 469.610103 
L 185.625 469.856806 
L 198 467.974551 
L 210.375 465.518411 
L 222.75 464.217302 
L 235.125 463.422968 
L 247.5 464.594697 
L 259.875 465.674269 
L 272.25 466.099173 
L 284.625 466.920952 
L 297 466.743416 
L 309.375 468.312503 
L 321.75 467.850635 
L 334.125 466.639403 
L 346.5 468.497842 
L 358.875 470.981629 
L 371.25 470.657189 
L 383.625 468.497338 
L 396 465.612926 
L 408.375 464.19266 
L 420.75 463.252511 
L 433.125 460.827163 
L 445.5 460.255293 
L 457.875 459.981347 
L 470.25 461.742488 
L 482.625 464.497036 
L 495 465.228332 
L 507.375 463.983222 
L 519.75 463.137024 
L 532.125 463.854709 
L 544.5 455.313086 
L 556.875 443.684031 
L 569.25 444.054408 
L 581.625 440.343436 
L 594 436.194052 
L 606.375 436.819467 
L 618.75 435.790712 
L 631.125 432.483882 
L 643.5 424.66354 
L 655.875 423.362975 
L 668.25 418.943835 
L 680.625 422.48609 
L 693 426.547643 
L 705.375 422.385162 
L 717.75 417.94438 
L 730.125 415.031661 
L 742.5 419.673726 
L 754.875 424.011743 
L 767.25 424.118442 
L 779.625 421.117583 
" clip-path="url(#p1e8759b831)" style="fill: none; stroke: #000000; stroke-width: 1.5; stroke-linecap: square"/>
   </g>
   <g id="line2d_3">
    <path d="M 0 459 
L 12.375 459 
L 24.75 464.906946 
L 37.125 467.169838 
L 49.5 469.200484 
L 61.875 469.517551 
L 74.25 468.94376 
L 86.625 469.609952 
L 99 470.46731 
L 111.375 471.428428 
L 123.75 471.806274 
L 136.125 472.738914 
L 148.5 473.06509 
L 160.875 471.237197 
L 173.25 470.540793 
L 185.625 470.413055 
L 198 469.149764 
L 210.375 467.383552 
L 222.75 466.079222 
L 235.125 465.074333 
L 247.5 465.278725 
L 259.875 465.707103 
L 272.25 465.947624 
L 284.625 466.472353 
L 297 466.492582 
L 309.375 467.473139 
L 321.75 467.437258 
L 334.125 466.834747 
L 346.5 467.856949 
L 358.875 469.499472 
L 371.25 469.74084 
L 383.625 468.741316 
L 396 466.980721 
L 408.375 465.755885 
L 420.75 464.752374 
L 433.125 462.895486 
L 445.5 461.95991 
L 457.875 461.307844 
L 470.25 461.955322 
L 482.625 463.504942 
L 495 464.219515 
L 507.375 463.777519 
L 519.75 463.336288 
L 532.125 463.690308 
L 544.5 460.162517 
L 556.875 453.523874 
L 569.25 450.834672 
L 581.625 446.675937 
L 594 442.398729 
L 606.375 440.94714 
L 618.75 439.134688 
L 631.125 436.237645 
L 643.5 430.52397 
L 655.875 428.010231 
L 668.25 424.023934 
L 680.625 424.558544 
L 693 426.276646 
L 705.375 423.879855 
L 717.75 420.799985 
L 730.125 418.20249 
L 742.5 419.970812 
L 754.875 422.412764 
L 767.25 422.909214 
L 779.625 421.49331 
" clip-path="url(#p1e8759b831)" style="fill: none; stroke: #000000; stroke-width: 1.5; stroke-linecap: square"/>
   </g>
   <g id="line2d_4">
    <path d="M 0 459 
L 12.375 459 
L 24.75 464.47765 
L 37.125 466.606275 
L 49.5 468.440216 
L 61.875 468.893582 
L 74.25 468.625263 
L 86.625 469.16685 
L 99 469.84301 
L 111.375 470.600626 
L 123.75 471.00215 
L 136.125 471.73436 
L 148.5 472.116352 
L 160.875 471.187724 
L 173.25 470.784625 
L 185.625 470.668169 
L 198 469.895747 
L 210.375 468.755121 
L 222.75 467.78952 
L 235.125 466.944646 
L 247.5 466.756316 
L 259.875 466.756001 
L 272.25 466.719763 
L 284.625 466.8871 
L 297 466.834898 
L 309.375 467.321822 
L 321.75 467.329806 
L 334.125 467.022685 
L 346.5 467.554394 
L 358.875 468.496879 
L 371.25 468.788221 
L 383.625 468.397364 
L 396 467.494286 
L 408.375 466.749788 
L 420.75 466.04271 
L 433.125 464.824218 
L 445.5 464.005032 
L 457.875 463.323352 
L 470.25 463.353604 
L 482.625 463.97087 
L 495 464.281292 
L 507.375 464.029026 
L 519.75 463.746017 
L 532.125 463.867207 
L 544.5 461.920536 
L 556.875 460.021802 
L 569.25 459.082644 
L 581.625 455.642008 
L 594 451.883444 
L 606.375 449.583864 
L 618.75 447.222326 
L 631.125 444.35131 
L 643.5 439.939353 
L 655.875 437.058674 
L 668.25 433.441628 
L 680.625 432.23172 
L 693 431.943569 
L 705.375 429.72404 
L 717.75 427.107987 
L 730.125 424.687966 
L 742.5 424.582768 
L 754.875 425.132986 
L 767.25 424.939852 
L 779.625 423.819573 
" clip-path="url(#p1e8759b831)" style="fill: none; stroke: #000000; stroke-width: 1.5; stroke-linecap: square"/>
   </g>
   <g id="line2d_5">
    <path d="M 0 459 
L 12.375 459 
L 24.75 464.26018 
L 37.125 466.305653 
L 49.5 468.023978 
L 61.875 468.512084 
L 74.25 468.366994 
L 86.625 468.850692 
L 99 469.432247 
L 111.375 470.071618 
L 123.75 470.444893 
L 136.125 471.049384 
L 148.5 471.407043 
L 160.875 470.852686 
L 173.25 470.619467 
L 185.625 470.561002 
L 198 470.069196 
L 210.375 469.319109 
L 222.75 468.650247 
L 235.125 468.036062 
L 247.5 467.810419 
L 259.875 467.705815 
L 272.25 467.591507 
L 284.625 467.606926 
L 297 467.508014 
L 309.375 467.728034 
L 321.75 467.694962 
L 334.125 467.485772 
L 346.5 467.745491 
L 358.875 468.259726 
L 371.25 468.444262 
L 383.625 468.257112 
L 396 467.768997 
L 408.375 467.331522 
L 420.75 466.893576 
L 433.125 466.155497 
L 445.5 465.597119 
L 457.875 465.092289 
L 470.25 464.957642 
L 482.625 465.154442 
L 495 465.222349 
L 507.375 465.010105 
L 519.75 464.778339 
L 532.125 464.758783 
L 544.5 463.652053 
L 556.875 462.500012 
L 569.25 461.796127 
L 581.625 460.935257 
L 594 460.019007 
L 606.375 459.331358 
L 618.75 457.881366 
L 631.125 455.481997 
L 643.5 452.238117 
L 655.875 449.705513 
L 668.25 446.758772 
L 680.625 445.024254 
L 693 443.817947 
L 705.375 441.679313 
L 717.75 439.325051 
L 730.125 437.051331 
L 742.5 435.985153 
L 754.875 435.346155 
L 767.25 434.414468 
L 779.625 433.055953 
" clip-path="url(#p1e8759b831)" style="fill: none; stroke: #000000; stroke-width: 1.5; stroke-linecap: square"/>
   </g>
   <g id="line2d_6">
    <path d="M 0 459 
L 12.375 459 
L 24.75 464.151088 
L 37.125 466.151467 
L 49.5 467.808436 
L 61.875 468.305476 
L 74.25 468.212477 
L 86.625 468.667059 
L 99 469.200779 
L 111.375 469.778938 
L 123.75 470.128553 
L 136.125 470.664462 
L 148.5 470.996055 
L 160.875 470.592097 
L 173.25 470.432299 
L 185.625 470.403445 
L 198 470.039962 
L 210.375 469.475713 
L 222.75 468.96512 
L 235.125 468.489824 
L 247.5 468.292902 
L 259.875 468.183711 
L 272.25 468.069831 
L 284.625 468.048467 
L 297 467.951118 
L 309.375 468.07316 
L 321.75 468.029137 
L 334.125 467.868553 
L 346.5 468.017574 
L 358.875 468.338919 
L 371.25 468.454269 
L 383.625 468.333134 
L 396 468.017158 
L 408.375 467.726351 
L 420.75 467.42963 
L 433.125 466.940708 
L 445.5 466.553357 
L 457.875 466.192801 
L 470.25 466.052959 
L 482.625 466.115098 
L 495 466.106444 
L 507.375 465.934549 
L 519.75 465.750188 
L 532.125 465.689873 
L 544.5 464.994116 
L 556.875 464.255506 
L 569.25 463.760754 
L 581.625 463.167795 
L 594 462.533068 
L 606.375 462.018669 
L 618.75 461.489005 
L 631.125 460.899296 
L 643.5 460.143262 
L 655.875 459.508307 
L 668.25 458.36594 
L 680.625 456.855056 
L 693 455.633321 
L 705.375 453.89953 
L 717.75 452.033473 
L 730.125 450.195142 
L 742.5 449.006404 
L 754.875 448.061167 
L 767.25 446.972707 
L 779.625 445.661653 
" clip-path="url(#p1e8759b831)" style="fill: none; stroke: #000000; stroke-width: 1.5; stroke-linecap: square"/>
   </g>
   <g id="line2d_7">
    <path d="M 0 459 
L 12.375 459 
L 24.75 464.096497 
L 37.125 466.073523 
L 49.5 467.699055 
L 61.875 468.198526 
L 74.25 468.129053 
L 86.625 468.56894 
L 99 469.078736 
L 111.375 469.626165 
L 123.75 469.961961 
L 136.125 470.463088 
L 148.5 470.778763 
L 160.875 470.439508 
L 173.25 470.311605 
L 185.625 470.295807 
L 198 469.99007 
L 210.375 469.511029 
L 222.75 469.075883 
L 235.125 468.669452 
L 247.5 468.49444 
L 259.875 468.39242 
L 272.25 468.287327 
L 284.625 468.258091 
L 297 468.168553 
L 309.375 468.254983 
L 321.75 468.211016 
L 334.125 468.075831 
L 346.5 468.182448 
L 358.875 468.423945 
L 371.25 468.508873 
L 383.625 468.413975 
L 396 468.170961 
L 408.375 467.945615 
L 420.75 467.714829 
L 433.125 467.340441 
L 445.5 467.039088 
L 457.875 466.756216 
L 470.25 466.632983 
L 482.625 466.656091 
L 495 466.629876 
L 507.375 466.488196 
L 519.75 466.337642 
L 532.125 466.274375 
L 544.5 465.766768 
L 556.875 465.226031 
L 569.25 464.850685 
L 581.625 464.406152 
L 594 463.930883 
L 606.375 463.535152 
L 618.75 463.12769 
L 631.125 462.678386 
L 643.5 462.115979 
L 655.875 461.631335 
L 668.25 461.088708 
L 680.625 460.686037 
L 693 460.34579 
L 705.375 459.8941 
L 717.75 459.412433 
L 730.125 458.805281 
L 742.5 457.78668 
L 754.875 456.92454 
L 767.25 455.973306 
L 779.625 454.881705 
" clip-path="url(#p1e8759b831)" style="fill: none; stroke: #000000; stroke-width: 1.5; stroke-linecap: square"/>
   </g>
   <g id="line2d_8">
    <path d="M 0 459 
L 12.375 459 
L 24.75 464.069196 
L 37.125 466.034354 
L 49.5 467.643995 
L 61.875 468.144187 
L 74.25 468.085838 
L 86.625 468.518339 
L 99 469.016193 
L 111.375 469.548281 
L 123.75 469.876742 
L 136.125 470.360462 
L 148.5 470.667577 
L 160.875 470.358003 
L 173.25 470.244694 
L 185.625 470.234808 
L 198 469.955999 
L 210.375 469.517043 
L 222.75 469.11792 
L 235.125 468.744853 
L 247.5 468.581858 
L 259.875 468.48509 
L 272.25 468.38592 
L 284.625 468.354949 
L 297 468.270672 
L 309.375 468.342626 
L 321.75 468.299998 
L 334.125 468.177531 
L 346.5 468.266517 
L 358.875 468.473239 
L 371.25 468.544869 
L 383.625 468.461703 
L 396 468.2514 
L 408.375 468.055993 
L 420.75 467.855836 
L 433.125 467.533985 
L 445.5 467.273456 
L 457.875 467.028356 
L 470.25 466.916668 
L 482.625 466.927028 
L 495 466.897004 
L 507.375 466.77207 
L 519.75 466.639994 
L 532.125 466.579478 
L 544.5 466.157182 
L 556.875 465.707478 
L 569.25 465.390919 
L 581.625 465.018538 
L 594 464.621281 
L 606.375 464.28727 
L 618.75 463.943875 
L 631.125 463.567281 
L 643.5 463.101336 
L 655.875 462.696169 
L 668.25 462.24549 
L 680.625 461.903725 
L 693 461.610573 
L 705.375 461.23145 
L 717.75 460.82923 
L 730.125 460.430288 
L 742.5 460.136775 
L 754.875 459.883347 
L 767.25 459.607803 
L 779.625 459.297198 
" clip-path="url(#p1e8759b831)" style="fill: none; stroke: #000000; stroke-width: 1.5; stroke-linecap: square"/>
   </g>
   <g id="line2d_9">
    <path d="M 0 459 
L 12.375 459 
L 24.75 464.055545 
L 37.125 466.014722 
L 49.5 467.616377 
L 61.875 468.116808 
L 74.25 468.063862 
L 86.625 468.492658 
L 99 468.98455 
L 111.375 469.508981 
L 123.75 469.833678 
L 136.125 470.308705 
L 148.5 470.611407 
L 160.875 470.316008 
L 173.25 470.209646 
L 185.625 470.202546 
L 198 469.936682 
L 210.375 469.517079 
L 222.75 469.135458 
L 235.125 468.778699 
L 247.5 468.62187 
L 259.875 468.528045 
L 272.25 468.432125 
L 284.625 468.400758 
L 297 468.319372 
L 309.375 468.384876 
L 321.75 468.343202 
L 334.125 468.22704 
L 346.5 468.30809 
L 358.875 468.498765 
L 371.25 468.564284 
L 383.625 468.486658 
L 396 468.291713 
L 408.375 468.110479 
L 420.75 467.924905 
L 433.125 467.627882 
L 445.5 467.386919 
L 457.875 467.160092 
L 470.25 467.054691 
L 482.625 467.060175 
L 495 467.029309 
L 507.375 466.912919 
L 519.75 466.790217 
L 532.125 466.731934 
L 544.5 466.349498 
L 556.875 465.942533 
L 569.25 465.654355 
L 581.625 465.316585 
L 594 464.956809 
L 606.375 464.653146 
L 618.75 464.341328 
L 631.125 464.000383 
L 643.5 463.580976 
L 655.875 463.215009 
L 668.25 462.809347 
L 680.625 462.498969 
L 693 462.23118 
L 705.375 461.88889 
L 717.75 461.526762 
L 730.125 461.167666 
L 742.5 460.899825 
L 754.875 460.666804 
L 767.25 460.415076 
L 779.625 460.13356 
" clip-path="url(#p1e8759b831)" style="fill: none; stroke: #000000; stroke-width: 1.5; stroke-linecap: square"/>
   </g>
  </g>
 </g>
 <defs>
  <clipPath id="p1e8759b831">
   <rect x="0" y="0" width="792" height="612"/>
  </clipPath>
 </defs>
</svg>
