<?xml version="1.0" encoding="utf-8" standalone="no"?>
<!DOCTYPE svg PUBLIC "-//W3C//DTD SVG 1.1//EN"
  "http://www.w3.org/Graphics/SVG/1.1/DTD/svg11.dtd">
<svg xmlns:xlink="http://www.w3.org/1999/xlink" width="792pt" height="612pt" viewBox="0 0 792 612" xmlns="http://www.w3.org/2000/svg" version="1.1">
 <metadata>
  <rdf:RDF xmlns:dc="http://purl.org/dc/elements/1.1/" xmlns:cc="http://creativecommons.org/ns#" xmlns:rdf="http://www.w3.org/1999/02/22-rdf-syntax-ns#">
   <cc:Work>
    <dc:type rdf:resource="http://purl.org/dc/dcmitype/StillImage"/>
    <dc:date>2023-01-02T15:38:42.745326</dc:date>
    <dc:format>image/svg+xml</dc:format>
    <dc:creator>
     <cc:Agent>
      <dc:title>Matplotlib v3.6.2, https://matplotlib.org/</dc:title>
     </cc:Agent>
    </dc:creator>
   </cc:Work>
  </rdf:RDF>
 </metadata>
 <defs>
  <style type="text/css">*{stroke-linejoin: round; stroke-linecap: butt}</style>
 </defs>
 <g id="figure_1">
  <g id="patch_1">
   <path d="M 0 612 
L 792 612 
L 792 0 
L 0 0 
z
" style="fill: #ffffff"/>
  </g>
  <g id="axes_1">
   <g id="line2d_1">
    <path d="M 0 306 
L 12.774194 299.680278 
L 25.548387 305.687205 
L 38.322581 305.417554 
L 51.096774 312.546128 
L 63.870968 308.006175 
L 76.645161 305.536201 
L 89.419355 308.556232 
L 102.193548 303.508479 
L 114.967742 312.901896 
L 127.741935 300.790845 
L 140.516129 301.901549 
L 153.290323 316.318328 
L 166.064516 312.503004 
L 178.83871 299.453872 
L 191.612903 297.664453 
L 204.387097 298.451303 
L 217.16129 306.118646 
L 229.935484 305.018474 
L 242.709677 297.815347 
L 255.483871 308.718011 
L 268.258065 306.075502 
L 281.032258 313.90441 
L 293.806452 313.79662 
L 306.580645 303.271204 
L 319.354839 299.270595 
L 332.129032 305.061617 
L 344.903226 310.734694 
L 357.677419 279.157992 
L 370.451613 302.505474 
L 383.225806 314.648102 
L 396 300.596755 
L 408.774194 302.785878 
L 421.548387 309.74257 
L 434.322581 304.123252 
L 447.096774 302.117233 
L 459.870968 297.26568 
L 472.645161 309.634725 
L 485.419355 300.747714 
L 498.193548 314.044533 
L 510.967742 309.192552 
L 523.741935 297.341121 
L 536.516129 302.67803 
L 549.290323 305.007688 
L 562.064516 314.529549 
L 574.83871 308.836648 
L 587.612903 303.087857 
L 600.387097 301.750573 
L 613.16129 309.893551 
L 625.935484 297.912353 
L 638.709677 300.704582 
L 651.483871 305.417554 
L 664.258065 312.287377 
L 677.032258 310.594508 
L 689.806452 312.481441 
L 702.580645 308.685655 
L 715.354839 301.125122 
L 728.129032 309.494526 
L 740.903226 303.184923 
L 753.677419 309.235692 
L 766.451613 300.95259 
L 779.225806 310.907228 
" clip-path="url(#p3376ceba69)" style="fill: none; stroke: #000000; stroke-width: 1.5; stroke-linecap: square"/>
   </g>
   <g id="line2d_2">
    <path d="M 0 306 
L 12.774194 306 
L 25.548387 301.786519 
L 38.322581 304.015396 
L 51.096774 304.763207 
L 63.870968 308.780635 
L 76.645161 308.387262 
L 89.419355 306.950527 
L 102.193548 307.75654 
L 114.967742 305.627607 
L 127.741935 309.291139 
L 140.516129 305.031205 
L 153.290323 303.459417 
L 166.064516 309.897991 
L 178.83871 311.209409 
L 191.612903 305.319465 
L 204.387097 301.469897 
L 217.16129 299.950538 
L 229.935484 303.020989 
L 242.709677 304.028001 
L 255.483871 300.913137 
L 268.258065 304.800471 
L 281.032258 305.42538 
L 293.806452 309.693934 
L 306.580645 311.777163 
L 319.354839 307.533931 
L 332.129032 303.388361 
L 344.903226 304.22506 
L 357.677419 307.505381 
L 370.451613 293.246405 
L 383.225806 297.867083 
L 396 306.259246 
L 408.774194 303.401895 
L 421.548387 303.092932 
L 434.322581 306.438336 
L 447.096774 305.278944 
L 459.870968 303.68113 
L 472.645161 300.508422 
L 485.419355 305.085346 
L 498.193548 302.889117 
L 510.967742 308.494016 
L 523.741935 308.855849 
L 536.516129 303.073138 
L 549.290323 302.872749 
L 562.064516 303.945861 
L 574.83871 309.272529 
L 587.612903 309.053025 
L 600.387097 306.075037 
L 613.16129 303.888592 
L 625.935484 306.892532 
L 638.709677 302.402788 
L 651.483871 301.549782 
L 664.258065 303.484371 
L 677.032258 307.881866 
L 689.806452 309.241698 
L 702.580645 310.880122 
L 715.354839 309.796534 
L 728.129032 305.443525 
L 740.903226 307.491803 
L 753.677419 305.343195 
L 766.451613 307.296982 
L 779.225806 304.102358 
" clip-path="url(#p3376ceba69)" style="fill: none; stroke: #000000; stroke-width: 1.5; stroke-linecap: square"/>
   </g>
   <g id="line2d_3">
    <path d="M 0 306 
L 12.774194 306 
L 25.548387 302.297647 
L 38.322581 303.833331 
L 51.096774 304.452 
L 63.870968 307.332135 
L 76.645161 307.557761 
L 89.419355 306.908257 
L 102.193548 307.423127 
L 114.967742 306.223528 
L 127.741935 308.242989 
L 140.516129 306.010863 
L 153.290323 304.788102 
L 166.064516 308.204073 
L 178.83871 309.473282 
L 191.612903 306.522173 
L 204.387097 303.917059 
L 217.16129 302.307212 
L 229.935484 303.430885 
L 242.709677 303.8951 
L 255.483871 302.105263 
L 268.258065 304.037593 
L 281.032258 304.632255 
L 293.806452 307.35812 
L 306.580645 309.250312 
L 319.354839 307.498853 
L 332.129032 305.072886 
L 344.903226 305.074491 
L 357.677419 306.74258 
L 370.451613 298.60166 
L 383.225806 299.733388 
L 396 304.119341 
L 408.774194 303.090876 
L 421.548387 303.006523 
L 434.322581 304.983619 
L 447.096774 304.730593 
L 459.870968 303.970064 
L 472.645161 301.992752 
L 485.419355 304.23503 
L 498.193548 303.198417 
L 510.967742 306.375944 
L 523.741935 307.207738 
L 536.516129 304.315 
L 549.290323 303.83279 
L 562.064516 304.170326 
L 574.83871 307.245807 
L 587.612903 307.719036 
L 600.387097 306.349301 
L 613.16129 305.003614 
L 625.935484 306.444066 
L 638.709677 303.931075 
L 651.483871 302.98205 
L 664.258065 303.699158 
L 677.032258 306.232075 
L 689.806452 307.510994 
L 702.580645 308.980482 
L 715.354839 308.887973 
L 728.129032 306.604959 
L 740.903226 307.465289 
L 753.677419 306.212166 
L 766.451613 307.102623 
L 779.225806 305.285593 
" clip-path="url(#p3376ceba69)" style="fill: none; stroke: #000000; stroke-width: 1.5; stroke-linecap: square"/>
   </g>
   <g id="line2d_4">
    <path d="M 0 306 
L 12.774194 306 
L 25.548387 302.566697 
L 38.322581 303.791335 
L 51.096774 304.308801 
L 63.870968 306.570444 
L 76.645161 306.923812 
L 89.419355 306.609633 
L 102.193548 307.02259 
L 114.967742 306.31465 
L 127.741935 307.587973 
L 140.516129 306.317615 
L 153.290323 305.514586 
L 166.064516 307.436086 
L 178.83871 308.32055 
L 191.612903 306.796422 
L 204.387097 305.246284 
L 217.16129 304.104973 
L 229.935484 304.440163 
L 242.709677 304.535725 
L 255.483871 303.431728 
L 268.258065 304.295471 
L 281.032258 304.585075 
L 293.806452 306.096164 
L 306.580645 307.341046 
L 319.354839 306.684893 
L 332.129032 305.491899 
L 344.903226 305.422798 
L 357.677419 306.274654 
L 370.451613 301.92093 
L 383.225806 302.014448 
L 396 304.034094 
L 408.774194 303.485001 
L 421.548387 303.37176 
L 434.322581 304.391648 
L 447.096774 304.347969 
L 459.870968 303.990974 
L 472.645161 302.911123 
L 485.419355 303.981856 
L 498.193548 303.464256 
L 510.967742 305.15129 
L 523.741935 305.797832 
L 536.516129 304.442274 
L 549.290323 304.162744 
L 562.064516 304.299114 
L 574.83871 305.926033 
L 587.612903 306.386847 
L 600.387097 305.86422 
L 613.16129 305.212232 
L 625.935484 305.964219 
L 638.709677 304.677726 
L 651.483871 304.042828 
L 664.258065 304.266292 
L 677.032258 305.544829 
L 689.806452 306.351125 
L 702.580645 307.325738 
L 715.354839 307.538921 
L 728.129032 306.517068 
L 740.903226 306.997193 
L 753.677419 306.389466 
L 766.451613 306.841393 
L 779.225806 305.918034 
" clip-path="url(#p3376ceba69)" style="fill: none; stroke: #000000; stroke-width: 1.5; stroke-linecap: square"/>
   </g>
   <g id="line2d_5">
    <path d="M 0 306 
L 12.774194 306 
L 25.548387 302.702993 
L 38.322581 303.78501 
L 51.096774 304.247608 
L 63.870968 306.206824 
L 76.645161 306.575206 
L 89.419355 306.385577 
L 102.193548 306.745897 
L 114.967742 306.249687 
L 127.741935 307.202493 
L 140.516129 306.336382 
L 153.290323 305.766972 
L 166.064516 307.063294 
L 178.83871 307.705882 
L 191.612903 306.764197 
L 204.387097 305.756981 
L 217.16129 304.970128 
L 229.935484 305.090823 
L 242.709677 305.083384 
L 255.483871 304.35045 
L 268.258065 304.783069 
L 281.032258 304.909064 
L 293.806452 305.773636 
L 306.580645 306.534796 
L 319.354839 306.228857 
L 332.129032 305.583416 
L 344.903226 305.535489 
L 357.677419 306.008875 
L 370.451613 303.577606 
L 383.225806 303.481476 
L 396 304.476213 
L 408.774194 304.132731 
L 421.548387 304.014148 
L 434.322581 304.515959 
L 447.096774 304.481715 
L 459.870968 304.276388 
L 472.645161 303.669774 
L 485.419355 304.183944 
L 498.193548 303.888659 
L 510.967742 304.75888 
L 523.741935 305.137719 
L 536.516129 304.472983 
L 549.290323 304.320325 
L 562.064516 304.378662 
L 574.83871 305.238744 
L 587.612903 305.543015 
L 600.387097 305.335708 
L 613.16129 305.033412 
L 625.935484 305.442663 
L 638.709677 304.809204 
L 651.483871 304.464345 
L 664.258065 304.544341 
L 677.032258 305.193625 
L 689.806452 305.646107 
L 702.580645 306.218368 
L 715.354839 306.424761 
L 728.129032 305.981704 
L 740.903226 306.275195 
L 753.677419 306.017154 
L 766.451613 306.285773 
L 779.225806 305.840849 
" clip-path="url(#p3376ceba69)" style="fill: none; stroke: #000000; stroke-width: 1.5; stroke-linecap: square"/>
   </g>
   <g id="line2d_6">
    <path d="M 0 306 
L 12.774194 306 
L 25.548387 302.771365 
L 38.322581 303.785669 
L 51.096774 304.220513 
L 63.870968 306.033141 
L 76.645161 306.398599 
L 89.419355 306.258826 
L 102.193548 306.591387 
L 114.967742 306.18656 
L 127.741935 306.996494 
L 140.516129 306.302378 
L 153.290323 305.84211 
L 166.064516 306.873964 
L 178.83871 307.398852 
L 191.612903 306.693881 
L 204.387097 305.92807 
L 217.16129 305.319752 
L 229.935484 305.382301 
L 242.709677 305.354802 
L 255.483871 304.803121 
L 268.258065 305.080968 
L 281.032258 305.149591 
L 293.806452 305.738133 
L 306.580645 306.266754 
L 319.354839 306.07474 
L 332.129032 305.647804 
L 344.903226 305.611762 
L 357.677419 305.920872 
L 370.451613 304.330527 
L 383.225806 304.224144 
L 396 304.822345 
L 408.774194 304.58345 
L 421.548387 304.483248 
L 434.322581 304.772553 
L 447.096774 304.737281 
L 459.870968 304.596624 
L 472.645161 304.207361 
L 485.419355 304.492417 
L 498.193548 304.29769 
L 510.967742 304.799746 
L 523.741935 305.023941 
L 536.516129 304.635087 
L 549.290323 304.536863 
L 562.064516 304.56031 
L 574.83871 305.053226 
L 587.612903 305.23895 
L 600.387097 305.134055 
L 613.16129 304.970102 
L 625.935484 305.207232 
L 638.709677 304.857826 
L 651.483871 304.660009 
L 664.258065 304.695899 
L 677.032258 305.053812 
L 689.806452 305.313791 
L 702.580645 305.648622 
L 715.354839 305.789869 
L 728.129032 305.573793 
L 740.903226 305.754688 
L 753.677419 305.636567 
L 766.451613 305.801415 
L 779.225806 305.580068 
" clip-path="url(#p3376ceba69)" style="fill: none; stroke: #000000; stroke-width: 1.5; stroke-linecap: square"/>
   </g>
   <g id="line2d_7">
    <path d="M 0 306 
L 12.774194 306 
L 25.548387 302.80558 
L 38.322581 303.786963 
L 51.096774 304.207942 
L 63.870968 305.948787 
L 76.645161 306.310523 
L 89.419355 306.192589 
L 102.193548 306.51093 
L 114.967742 306.147693 
L 127.741935 306.890952 
L 140.516129 306.274362 
L 153.290323 305.864978 
L 166.064516 306.778022 
L 178.83871 307.24706 
L 191.612903 306.645019 
L 204.387097 305.987855 
L 217.16129 305.463498 
L 229.935484 305.506978 
L 242.709677 305.475952 
L 255.483871 305.008941 
L 268.258065 305.226408 
L 281.032258 305.274405 
L 293.806452 305.74579 
L 306.580645 306.17142 
L 319.354839 306.022792 
L 332.129032 305.686733 
L 344.903226 305.656483 
L 357.677419 305.895789 
L 370.451613 304.664277 
L 383.225806 304.567469 
L 396 305.00925 
L 408.774194 304.820127 
L 421.548387 304.734773 
L 434.322581 304.940662 
L 447.096774 304.907705 
L 459.870968 304.797275 
L 472.645161 304.504462 
L 485.419355 304.700443 
L 498.193548 304.551922 
L 510.967742 304.902958 
L 523.741935 305.059133 
L 536.516129 304.782209 
L 549.290323 304.707803 
L 562.064516 304.718261 
L 574.83871 305.055948 
L 587.612903 305.184379 
L 600.387097 305.11404 
L 613.16129 305.002543 
L 625.935484 305.162794 
L 638.709677 304.927849 
L 651.483871 304.792502 
L 664.258065 304.812321 
L 677.032258 305.046953 
L 689.806452 305.219358 
L 702.580645 305.442906 
L 715.354839 305.541791 
L 728.129032 305.408308 
L 740.903226 305.530721 
L 753.677419 305.461041 
L 766.451613 305.572243 
L 779.225806 305.437223 
" clip-path="url(#p3376ceba69)" style="fill: none; stroke: #000000; stroke-width: 1.5; stroke-linecap: square"/>
   </g>
   <g id="line2d_8">
    <path d="M 0 306 
L 12.774194 306 
L 25.548387 302.82269 
L 38.322581 303.787851 
L 51.096774 304.201911 
L 63.870968 305.907285 
L 76.645161 306.266645 
L 89.419355 306.158875 
L 102.193548 306.470033 
L 114.967742 306.126531 
L 127.741935 306.837683 
L 140.516129 306.257676 
L 153.290323 305.872632 
L 166.064516 306.729712 
L 178.83871 307.171815 
L 191.612903 306.617301 
L 204.387097 306.011016 
L 217.16129 305.526664 
L 229.935484 305.562666 
L 242.709677 305.531147 
L 255.483871 305.104277 
L 268.258065 305.295634 
L 281.032258 305.335258 
L 293.806452 305.753972 
L 306.580645 306.132546 
L 319.354839 306.002601 
L 332.129032 305.707069 
L 344.903226 305.679647 
L 357.677419 305.887826 
L 370.451613 304.816832 
L 383.225806 304.727076 
L 396 305.101884 
L 408.774194 304.936176 
L 421.548387 304.859094 
L 434.322581 305.029869 
L 447.096774 304.998914 
L 459.870968 304.902767 
L 472.645161 304.653526 
L 485.419355 304.81257 
L 498.193548 304.685461 
L 510.967742 304.972265 
L 523.741935 305.099053 
L 536.516129 304.87033 
L 549.290323 304.806898 
L 562.064516 304.812604 
L 574.83871 305.083999 
L 587.612903 305.187023 
L 600.387097 305.130337 
L 613.16129 305.040526 
L 625.935484 305.167477 
L 638.709677 304.980525 
L 651.483871 304.871983 
L 664.258065 304.885631 
L 677.032258 305.068212 
L 689.806452 305.202656 
L 702.580645 305.377378 
L 715.354839 305.455746 
L 728.129032 305.354461 
L 740.903226 305.450077 
L 753.677419 305.3984 
L 766.451613 305.484902 
L 779.225806 305.383914 
" clip-path="url(#p3376ceba69)" style="fill: none; stroke: #000000; stroke-width: 1.5; stroke-linecap: square"/>
   </g>
   <g id="line2d_9">
    <path d="M 0 306 
L 12.774194 306 
L 25.548387 302.831246 
L 38.322581 303.788355 
L 51.096774 304.198961 
L 63.870968 305.88671 
L 76.645161 306.244758 
L 89.419355 306.141884 
L 102.193548 306.449435 
L 114.967742 306.115534 
L 127.741935 306.810944 
L 140.516129 306.248679 
L 153.290323 305.875511 
L 166.064516 306.705472 
L 178.83871 307.134384 
L 191.612903 306.602648 
L 204.387097 306.020903 
L 217.16129 305.555988 
L 229.935484 305.588707 
L 242.709677 305.557209 
L 255.483871 305.149779 
L 268.258065 305.329056 
L 281.032258 305.364949 
L 293.806452 305.758844 
L 306.580645 306.115096 
L 319.354839 305.993792 
L 332.129032 305.717281 
L 344.903226 305.691249 
L 357.677419 305.884863 
L 370.451613 304.889114 
L 383.225806 304.803259 
L 396 305.14738 
L 408.774194 304.992897 
L 421.548387 304.920059 
L 434.322581 305.07494 
L 447.096774 305.045171 
L 459.870968 304.955891 
L 472.645161 304.727083 
L 485.419355 304.869592 
L 498.193548 304.752654 
L 510.967742 305.010367 
L 523.741935 305.123809 
L 536.516129 304.917137 
L 549.290323 304.858922 
L 562.064516 304.862712 
L 574.83871 305.104165 
L 587.612903 305.195584 
L 600.387097 305.144926 
L 613.16129 305.064833 
L 625.935484 305.176731 
L 638.709677 305.011295 
L 651.483871 304.914903 
L 664.258065 304.925964 
L 677.032258 305.085328 
L 689.806452 305.202681 
L 702.580645 305.355313 
L 715.354839 305.424071 
L 728.129032 305.336642 
L 740.903226 305.419953 
L 753.677419 305.375816 
L 766.451613 305.450962 
L 779.225806 305.364594 
" clip-path="url(#p3376ceba69)" style="fill: none; stroke: #000000; stroke-width: 1.5; stroke-linecap: square"/>
   </g>
  </g>
 </g>
 <defs>
  <clipPath id="p3376ceba69">
   <rect x="0" y="0" width="792" height="612"/>
  </clipPath>
 </defs>
</svg>
