<?xml version="1.0" encoding="utf-8" standalone="no"?>
<!DOCTYPE svg PUBLIC "-//W3C//DTD SVG 1.1//EN"
  "http://www.w3.org/Graphics/SVG/1.1/DTD/svg11.dtd">
<svg xmlns:xlink="http://www.w3.org/1999/xlink" width="792pt" height="612pt" viewBox="0 0 792 612" xmlns="http://www.w3.org/2000/svg" version="1.1">
 <metadata>
  <rdf:RDF xmlns:dc="http://purl.org/dc/elements/1.1/" xmlns:cc="http://creativecommons.org/ns#" xmlns:rdf="http://www.w3.org/1999/02/22-rdf-syntax-ns#">
   <cc:Work>
    <dc:type rdf:resource="http://purl.org/dc/dcmitype/StillImage"/>
    <dc:date>2023-01-30T17:15:26.394653</dc:date>
    <dc:format>image/svg+xml</dc:format>
    <dc:creator>
     <cc:Agent>
      <dc:title>Matplotlib v3.6.2, https://matplotlib.org/</dc:title>
     </cc:Agent>
    </dc:creator>
   </cc:Work>
  </rdf:RDF>
 </metadata>
 <defs>
  <style type="text/css">*{stroke-linejoin: round; stroke-linecap: butt}</style>
 </defs>
 <g id="figure_1">
  <g id="patch_1">
   <path d="M 0 612 
L 792 612 
L 792 0 
L 0 0 
z
" style="fill: #ffffff"/>
  </g>
  <g id="axes_1">
   <g id="line2d_1">
    <path d="M 0 459 
L 46.588235 459.66398 
L 93.176471 458.663698 
L 139.764706 459.672603 
L 186.352941 457.033941 
L 232.941176 452.015813 
L 279.529412 455.455969 
L 326.117647 451.705456 
L 372.705882 460.595277 
L 419.294118 460.957448 
L 465.882353 461.198895 
L 512.470588 461.95773 
L 559.058824 462.449248 
L 605.647059 463.371921 
L 652.235294 465.613932 
L 698.823529 465.812264 
L 745.411765 466.49349 
" clip-path="url(#pbb5614689a)" style="fill: none; stroke: #000000; stroke-width: 1.5; stroke-linecap: square"/>
   </g>
   <g id="line2d_2">
    <path d="M 0 459 
L 46.588235 459 
L 93.176471 459.442653 
L 139.764706 459.125651 
L 186.352941 459.417359 
L 232.941176 458.591097 
L 279.529412 455.25108 
L 326.117647 455.354331 
L 372.705882 453.522652 
L 419.294118 458.663496 
L 465.882353 459.925176 
L 512.470588 460.566567 
L 559.058824 461.266629 
L 605.647059 461.865987 
L 652.235294 462.632092 
L 698.823529 464.138297 
L 745.411765 464.993406 
" clip-path="url(#pbb5614689a)" style="fill: none; stroke: #000000; stroke-width: 1.5; stroke-linecap: square"/>
   </g>
   <g id="line2d_3">
    <path d="M 0 459 
L 46.588235 459 
L 93.176471 459.388951 
L 139.764706 459.161933 
L 186.352941 459.361362 
L 232.941176 458.998877 
L 279.529412 456.66124 
L 326.117647 456.273992 
L 372.705882 454.846592 
L 419.294118 457.585821 
L 465.882353 459.262945 
L 512.470588 459.842785 
L 559.058824 460.47207 
L 605.647059 461.057642 
L 652.235294 461.740816 
L 698.823529 462.881527 
L 745.411765 463.743286 
" clip-path="url(#pbb5614689a)" style="fill: none; stroke: #000000; stroke-width: 1.5; stroke-linecap: square"/>
   </g>
   <g id="line2d_4">
    <path d="M 0 459 
L 46.588235 459 
L 93.176471 459.360683 
L 139.764706 459.175132 
L 186.352941 459.333431 
L 232.941176 459.06198 
L 279.529412 457.421101 
L 326.117647 456.976152 
L 372.705882 455.857945 
L 419.294118 457.455017 
L 465.882353 458.888552 
L 512.470588 459.380732 
L 559.058824 459.849314 
L 605.647059 460.311561 
L 652.235294 460.845685 
L 698.823529 461.665245 
L 745.411765 462.369037 
" clip-path="url(#pbb5614689a)" style="fill: none; stroke: #000000; stroke-width: 1.5; stroke-linecap: square"/>
   </g>
   <g id="line2d_5">
    <path d="M 0 459 
L 46.588235 459 
L 93.176471 459.346363 
L 139.764706 459.180127 
L 186.352941 459.319678 
L 232.941176 459.089506 
L 279.529412 457.783579 
L 326.117647 457.358757 
L 372.705882 456.420274 
L 419.294118 457.549183 
L 465.882353 458.597908 
L 512.470588 459.181087 
L 559.058824 459.537575 
L 605.647059 459.895167 
L 652.235294 460.305807 
L 698.823529 460.911484 
L 745.411765 461.453811 
" clip-path="url(#pbb5614689a)" style="fill: none; stroke: #000000; stroke-width: 1.5; stroke-linecap: square"/>
   </g>
   <g id="line2d_6">
    <path d="M 0 459 
L 46.588235 459 
L 93.176471 459.33918 
L 139.764706 459.182192 
L 186.352941 459.312873 
L 232.941176 459.102096 
L 279.529412 457.955821 
L 326.117647 457.550649 
L 372.705882 456.704475 
L 419.294118 457.634323 
L 465.882353 458.507146 
L 512.470588 459.100022 
L 559.058824 459.398884 
L 605.647059 459.699217 
L 652.235294 460.04163 
L 698.823529 460.536012 
L 745.411765 460.983404 
" clip-path="url(#pbb5614689a)" style="fill: none; stroke: #000000; stroke-width: 1.5; stroke-linecap: square"/>
   </g>
   <g id="line2d_7">
    <path d="M 0 459 
L 46.588235 459 
L 93.176471 459.335586 
L 139.764706 459.183113 
L 186.352941 459.30949 
L 232.941176 459.108072 
L 279.529412 458.039154 
L 326.117647 457.645712 
L 372.705882 456.845613 
L 419.294118 457.685218 
L 465.882353 458.47598 
L 512.470588 459.065225 
L 559.058824 459.336006 
L 605.647059 459.60783 
L 652.235294 459.916166 
L 698.823529 460.356278 
L 745.411765 460.755436 
" clip-path="url(#pbb5614689a)" style="fill: none; stroke: #000000; stroke-width: 1.5; stroke-linecap: square"/>
   </g>
   <g id="line2d_8">
    <path d="M 0 459 
L 46.588235 459 
L 93.176471 459.333788 
L 139.764706 459.183546 
L 186.352941 459.307804 
L 232.941176 459.110976 
L 279.529412 458.080062 
L 326.117647 457.692895 
L 372.705882 456.915721 
L 419.294118 457.712542 
L 465.882353 458.463914 
L 512.470588 459.049343 
L 559.058824 459.306405 
L 605.647059 459.564182 
L 652.235294 459.855722 
L 698.823529 460.269384 
L 745.411765 460.644661 
" clip-path="url(#pbb5614689a)" style="fill: none; stroke: #000000; stroke-width: 1.5; stroke-linecap: square"/>
   </g>
   <g id="line2d_9">
    <path d="M 0 459 
L 46.588235 459 
L 93.176471 459.332889 
L 139.764706 459.183755 
L 186.352941 459.306962 
L 232.941176 459.112408 
L 279.529412 458.10032 
L 326.117647 457.716383 
L 372.705882 456.950631 
L 419.294118 457.726644 
L 465.882353 458.458749 
L 512.470588 459.041788 
L 559.058824 459.292086 
L 605.647059 459.542913 
L 652.235294 459.826145 
L 698.823529 460.226795 
L 745.411765 460.590243 
" clip-path="url(#pbb5614689a)" style="fill: none; stroke: #000000; stroke-width: 1.5; stroke-linecap: square"/>
   </g>
  </g>
 </g>
 <defs>
  <clipPath id="pbb5614689a">
   <rect x="0" y="0" width="792" height="612"/>
  </clipPath>
 </defs>
</svg>
