<?xml version="1.0" encoding="utf-8" standalone="no"?>
<!DOCTYPE svg PUBLIC "-//W3C//DTD SVG 1.1//EN"
  "http://www.w3.org/Graphics/SVG/1.1/DTD/svg11.dtd">
<svg xmlns:xlink="http://www.w3.org/1999/xlink" width="792pt" height="612pt" viewBox="0 0 792 612" xmlns="http://www.w3.org/2000/svg" version="1.1">
 <metadata>
  <rdf:RDF xmlns:dc="http://purl.org/dc/elements/1.1/" xmlns:cc="http://creativecommons.org/ns#" xmlns:rdf="http://www.w3.org/1999/02/22-rdf-syntax-ns#">
   <cc:Work>
    <dc:type rdf:resource="http://purl.org/dc/dcmitype/StillImage"/>
    <dc:date>2022-12-26T20:25:40.582683</dc:date>
    <dc:format>image/svg+xml</dc:format>
    <dc:creator>
     <cc:Agent>
      <dc:title>Matplotlib v3.6.2, https://matplotlib.org/</dc:title>
     </cc:Agent>
    </dc:creator>
   </cc:Work>
  </rdf:RDF>
 </metadata>
 <defs>
  <style type="text/css">*{stroke-linejoin: round; stroke-linecap: butt}</style>
 </defs>
 <g id="figure_1">
  <g id="patch_1">
   <path d="M 0 612 
L 792 612 
L 792 0 
L 0 0 
z
" style="fill: #ffffff"/>
  </g>
  <g id="axes_1">
   <g id="line2d_1">
    <path d="M 0 459 
L 39.6 460.06987 
L 79.2 457.265784 
L 118.8 455.350441 
L 158.4 454.988091 
L 198 455.246912 
L 237.6 460.061242 
L 277.2 459.138048 
L 316.8 459.112164 
L 356.4 460.371849 
L 396 457.679922 
L 435.6 454.134001 
L 475.2 452.710595 
L 514.8 458.585857 
L 554.4 460.432245 
L 594 460.596177 
L 633.6 460.432245 
L 673.2 458.094063 
L 712.8 459.258839 
L 752.4 458.611741 
" clip-path="url(#p10887b6d42)" style="fill: none; stroke: #000000; stroke-width: 1.5; stroke-linecap: square"/>
   </g>
   <g id="line2d_2">
    <path d="M 0 459 
L 39.6 459 
L 79.2 459.713246 
L 118.8 458.926046 
L 158.4 457.019028 
L 198 455.970787 
L 237.6 455.603102 
L 277.2 458.919291 
L 316.8 459.055896 
L 356.4 459.08425 
L 396 459.728642 
L 435.6 459.144578 
L 475.2 456.781408 
L 514.8 454.741452 
L 554.4 456.67016 
L 594 459.32854 
L 633.6 459.965217 
L 673.2 460.20132 
L 712.8 459.446388 
L 752.4 459.353984 
" clip-path="url(#p10887b6d42)" style="fill: none; stroke: #000000; stroke-width: 1.5; stroke-linecap: square"/>
   </g>
   <g id="line2d_3">
    <path d="M 0 459 
L 39.6 459 
L 79.2 459.626715 
L 118.8 459.080847 
L 158.4 457.722554 
L 198 456.749644 
L 237.6 456.246619 
L 277.2 458.154141 
L 316.8 458.547789 
L 356.4 458.789476 
L 396 459.365809 
L 435.6 459.124452 
L 475.2 457.814374 
L 514.8 456.302724 
L 554.4 456.976694 
L 594 458.838065 
L 633.6 459.431236 
L 673.2 459.72607 
L 712.8 459.423386 
L 752.4 459.376152 
" clip-path="url(#p10887b6d42)" style="fill: none; stroke: #000000; stroke-width: 1.5; stroke-linecap: square"/>
   </g>
   <g id="line2d_4">
    <path d="M 0 459 
L 39.6 459 
L 79.2 459.581168 
L 118.8 459.126207 
L 158.4 458.096801 
L 198 457.243351 
L 237.6 456.751977 
L 277.2 457.981811 
L 316.8 458.285663 
L 356.4 458.497356 
L 396 459.12997 
L 435.6 459.023446 
L 475.2 458.172719 
L 514.8 457.201538 
L 554.4 457.443142 
L 594 458.449244 
L 633.6 459.118459 
L 673.2 459.339082 
L 712.8 459.232371 
L 752.4 459.236745 
" clip-path="url(#p10887b6d42)" style="fill: none; stroke: #000000; stroke-width: 1.5; stroke-linecap: square"/>
   </g>
   <g id="line2d_5">
    <path d="M 0 459 
L 39.6 459 
L 79.2 459.558095 
L 118.8 459.146126 
L 158.4 458.279974 
L 198 457.502855 
L 237.6 457.040991 
L 277.2 457.979586 
L 316.8 458.21771 
L 356.4 458.389187 
L 396 459.022012 
L 435.6 458.878806 
L 475.2 458.269608 
L 514.8 457.586843 
L 554.4 457.704836 
L 594 458.34289 
L 633.6 458.945511 
L 673.2 459.13802 
L 712.8 459.091782 
L 752.4 459.108958 
" clip-path="url(#p10887b6d42)" style="fill: none; stroke: #000000; stroke-width: 1.5; stroke-linecap: square"/>
   </g>
   <g id="line2d_6">
    <path d="M 0 459 
L 39.6 459 
L 79.2 459.54652 
L 118.8 459.155303 
L 158.4 458.369231 
L 198 457.633162 
L 237.6 457.191163 
L 277.2 458.000326 
L 316.8 458.204978 
L 356.4 458.353558 
L 396 458.927801 
L 435.6 458.788233 
L 475.2 458.301471 
L 514.8 457.750967 
L 554.4 457.828804 
L 594 458.313926 
L 633.6 458.778136 
L 673.2 459.048567 
L 712.8 459.02112 
L 752.4 459.039088 
" clip-path="url(#p10887b6d42)" style="fill: none; stroke: #000000; stroke-width: 1.5; stroke-linecap: square"/>
   </g>
   <g id="line2d_7">
    <path d="M 0 459 
L 39.6 459 
L 79.2 459.540728 
L 118.8 459.159687 
L 158.4 458.413113 
L 198 457.698098 
L 237.6 457.26712 
L 277.2 458.015941 
L 316.8 458.204249 
L 356.4 458.341226 
L 396 458.866521 
L 435.6 458.74659 
L 475.2 458.314767 
L 514.8 457.825423 
L 554.4 457.887714 
L 594 458.305521 
L 633.6 458.706655 
L 673.2 459.008649 
L 712.8 458.9641 
L 752.4 459.005233 
" clip-path="url(#p10887b6d42)" style="fill: none; stroke: #000000; stroke-width: 1.5; stroke-linecap: square"/>
   </g>
   <g id="line2d_8">
    <path d="M 0 459 
L 39.6 459 
L 79.2 459.537832 
L 118.8 459.161827 
L 158.4 458.434848 
L 198 457.730466 
L 237.6 457.305243 
L 277.2 458.025011 
L 316.8 458.205305 
L 356.4 458.336506 
L 396 458.838035 
L 435.6 458.726958 
L 475.2 458.320988 
L 514.8 457.860791 
L 554.4 457.916306 
L 594 458.302828 
L 633.6 458.674233 
L 673.2 458.970338 
L 712.8 458.917045 
L 752.4 458.966825 
" clip-path="url(#p10887b6d42)" style="fill: none; stroke: #000000; stroke-width: 1.5; stroke-linecap: square"/>
   </g>
   <g id="line2d_9">
    <path d="M 0 459 
L 39.6 459 
L 79.2 459.536383 
L 118.8 459.162884 
L 158.4 458.445661 
L 198 457.74662 
L 237.6 457.324332 
L 277.2 458.029854 
L 316.8 458.206187 
L 356.4 458.334514 
L 396 458.824351 
L 435.6 458.717472 
L 475.2 458.324023 
L 514.8 457.878022 
L 554.4 457.930381 
L 594 458.301856 
L 633.6 458.658876 
L 673.2 458.943669 
L 712.8 458.894265 
L 752.4 458.942997 
" clip-path="url(#p10887b6d42)" style="fill: none; stroke: #000000; stroke-width: 1.5; stroke-linecap: square"/>
   </g>
  </g>
 </g>
 <defs>
  <clipPath id="p10887b6d42">
   <rect x="0" y="0" width="792" height="612"/>
  </clipPath>
 </defs>
</svg>
