<?xml version="1.0" encoding="utf-8" standalone="no"?>
<!DOCTYPE svg PUBLIC "-//W3C//DTD SVG 1.1//EN"
  "http://www.w3.org/Graphics/SVG/1.1/DTD/svg11.dtd">
<svg xmlns:xlink="http://www.w3.org/1999/xlink" width="792pt" height="612pt" viewBox="0 0 792 612" xmlns="http://www.w3.org/2000/svg" version="1.1">
 <metadata>
  <rdf:RDF xmlns:dc="http://purl.org/dc/elements/1.1/" xmlns:cc="http://creativecommons.org/ns#" xmlns:rdf="http://www.w3.org/1999/02/22-rdf-syntax-ns#">
   <cc:Work>
    <dc:type rdf:resource="http://purl.org/dc/dcmitype/StillImage"/>
    <dc:date>2023-01-09T02:27:36.989161</dc:date>
    <dc:format>image/svg+xml</dc:format>
    <dc:creator>
     <cc:Agent>
      <dc:title>Matplotlib v3.6.2, https://matplotlib.org/</dc:title>
     </cc:Agent>
    </dc:creator>
   </cc:Work>
  </rdf:RDF>
 </metadata>
 <defs>
  <style type="text/css">*{stroke-linejoin: round; stroke-linecap: butt}</style>
 </defs>
 <g id="figure_1">
  <g id="patch_1">
   <path d="M 0 612 
L 792 612 
L 792 0 
L 0 0 
z
" style="fill: #ffffff"/>
  </g>
  <g id="axes_1">
   <g id="line2d_1">
    <path d="M 0 306 
L 44 303.642759 
L 88 305.053647 
L 132 309.905658 
L 176 309.13147 
L 220 306.326923 
L 264 305.673077 
L 308 302.541645 
L 352 307.118416 
L 396 305.22571 
L 440 306.086032 
L 484 307.324891 
L 528 304.45143 
L 572 307.565776 
L 616 303.350269 
L 660 302.662076 
L 704 308.288419 
L 748 303.505116 
" clip-path="url(#pd35aafbe4e)" style="fill: none; stroke: #000000; stroke-width: 1.5; stroke-linecap: square"/>
   </g>
   <g id="line2d_2">
    <path d="M 0 306 
L 44 306 
L 88 304.428489 
L 132 304.785721 
L 176 307.516452 
L 220 308.350026 
L 264 307.322432 
L 308 306.491265 
L 352 304.508649 
L 396 305.815722 
L 440 305.52382 
L 484 305.80695 
L 528 306.560863 
L 572 305.496964 
L 616 306.533805 
L 660 304.937454 
L 704 303.79997 
L 748 306.046491 
" clip-path="url(#pd35aafbe4e)" style="fill: none; stroke: #000000; stroke-width: 1.5; stroke-linecap: square"/>
   </g>
   <g id="line2d_3">
    <path d="M 0 306 
L 44 306 
L 88 304.619142 
L 132 304.816008 
L 176 306.803717 
L 220 307.631929 
L 264 307.195102 
L 308 306.706091 
L 352 305.404993 
L 396 305.930048 
L 440 305.717097 
L 484 305.827598 
L 528 306.273108 
L 572 305.733586 
L 616 306.274451 
L 660 305.413202 
L 704 304.604226 
L 748 305.685935 
" clip-path="url(#pd35aafbe4e)" style="fill: none; stroke: #000000; stroke-width: 1.5; stroke-linecap: square"/>
   </g>
   <g id="line2d_4">
    <path d="M 0 306 
L 44 306 
L 88 304.719497 
L 132 304.850638 
L 176 306.459245 
L 220 307.192872 
L 264 306.979746 
L 308 306.683894 
L 352 305.805135 
L 396 306.069701 
L 440 305.906584 
L 484 305.94012 
L 528 306.191918 
L 572 305.882471 
L 616 306.176261 
L 660 305.690522 
L 704 305.176543 
L 748 305.699123 
" clip-path="url(#pd35aafbe4e)" style="fill: none; stroke: #000000; stroke-width: 1.5; stroke-linecap: square"/>
   </g>
   <g id="line2d_5">
    <path d="M 0 306 
L 44 306 
L 88 304.770334 
L 132 304.873061 
L 176 306.299184 
L 220 306.967812 
L 264 306.836604 
L 308 306.624249 
L 352 305.946546 
L 396 306.126161 
L 440 305.99721 
L 484 306.009207 
L 528 306.178126 
L 572 305.966063 
L 616 306.155008 
L 660 305.834969 
L 704 305.483838 
L 748 305.785846 
" clip-path="url(#pd35aafbe4e)" style="fill: none; stroke: #000000; stroke-width: 1.5; stroke-linecap: square"/>
   </g>
   <g id="line2d_6">
    <path d="M 0 306 
L 44 306 
L 88 304.795836 
L 132 304.885521 
L 176 306.223302 
L 220 306.856411 
L 264 306.758337 
L 308 306.582444 
L 352 305.997512 
L 396 306.1447 
L 440 306.03388 
L 484 306.039713 
L 528 306.174119 
L 572 306.004504 
L 616 306.150065 
L 660 305.901657 
L 704 305.626951 
L 748 305.843451 
" clip-path="url(#pd35aafbe4e)" style="fill: none; stroke: #000000; stroke-width: 1.5; stroke-linecap: square"/>
   </g>
   <g id="line2d_7">
    <path d="M 0 306 
L 44 306 
L 88 304.808598 
L 132 304.892056 
L 176 306.186522 
L 220 306.80132 
L 264 306.717912 
L 308 306.558778 
L 352 306.017735 
L 396 306.150894 
L 440 306.0491 
L 484 306.052833 
L 528 306.171917 
L 572 306.021697 
L 616 306.148181 
L 660 305.932057 
L 704 305.692817 
L 748 305.873373 
" clip-path="url(#pd35aafbe4e)" style="fill: none; stroke: #000000; stroke-width: 1.5; stroke-linecap: square"/>
   </g>
   <g id="line2d_8">
    <path d="M 0 306 
L 44 306 
L 88 304.81498 
L 132 304.895398 
L 176 306.168435 
L 220 306.773968 
L 264 306.697429 
L 308 306.546296 
L 352 306.026517 
L 396 306.153161 
L 440 306.055831 
L 484 306.058728 
L 528 306.17064 
L 572 306.029629 
L 616 306.147245 
L 660 305.946309 
L 704 305.723944 
L 748 305.88822 
" clip-path="url(#pd35aafbe4e)" style="fill: none; stroke: #000000; stroke-width: 1.5; stroke-linecap: square"/>
   </g>
   <g id="line2d_9">
    <path d="M 0 306 
L 44 306 
L 88 304.818171 
L 132 304.897088 
L 176 306.15947 
L 220 306.760345 
L 264 306.687127 
L 308 306.539899 
L 352 306.030575 
L 396 306.154082 
L 440 306.058966 
L 484 306.061494 
L 528 306.169941 
L 572 306.03341 
L 616 306.14676 
L 660 305.953173 
L 704 305.739011 
L 748 305.895563 
" clip-path="url(#pd35aafbe4e)" style="fill: none; stroke: #000000; stroke-width: 1.5; stroke-linecap: square"/>
   </g>
  </g>
 </g>
 <defs>
  <clipPath id="pd35aafbe4e">
   <rect x="0" y="0" width="792" height="612"/>
  </clipPath>
 </defs>
</svg>
