<?xml version="1.0" encoding="utf-8" standalone="no"?>
<!DOCTYPE svg PUBLIC "-//W3C//DTD SVG 1.1//EN"
  "http://www.w3.org/Graphics/SVG/1.1/DTD/svg11.dtd">
<svg xmlns:xlink="http://www.w3.org/1999/xlink" width="792pt" height="612pt" viewBox="0 0 792 612" xmlns="http://www.w3.org/2000/svg" version="1.1">
 <metadata>
  <rdf:RDF xmlns:dc="http://purl.org/dc/elements/1.1/" xmlns:cc="http://creativecommons.org/ns#" xmlns:rdf="http://www.w3.org/1999/02/22-rdf-syntax-ns#">
   <cc:Work>
    <dc:type rdf:resource="http://purl.org/dc/dcmitype/StillImage"/>
    <dc:date>2023-01-30T17:15:27.386038</dc:date>
    <dc:format>image/svg+xml</dc:format>
    <dc:creator>
     <cc:Agent>
      <dc:title>Matplotlib v3.6.2, https://matplotlib.org/</dc:title>
     </cc:Agent>
    </dc:creator>
   </cc:Work>
  </rdf:RDF>
 </metadata>
 <defs>
  <style type="text/css">*{stroke-linejoin: round; stroke-linecap: butt}</style>
 </defs>
 <g id="figure_1">
  <g id="patch_1">
   <path d="M 0 612 
L 792 612 
L 792 0 
L 0 0 
z
" style="fill: #ffffff"/>
  </g>
  <g id="axes_1">
   <g id="line2d_1">
    <path d="M 0 306 
L 46.588235 307.327952 
L 93.176471 304.447852 
L 139.764706 307.569394 
L 186.352941 303.344146 
L 232.941176 302.654363 
L 279.529412 308.293707 
L 326.117647 303.499351 
L 372.705882 314.052134 
L 419.294118 306.724341 
L 465.882353 306.482894 
L 512.470588 307.517656 
L 559.058824 306.983032 
L 605.647059 307.845325 
L 652.235294 310.483701 
L 698.823529 306.396663 
L 745.411765 307.362444 
" clip-path="url(#p259ad74f33)" style="fill: none; stroke: #000000; stroke-width: 1.5; stroke-linecap: square"/>
   </g>
   <g id="line2d_2">
    <path d="M 0 306 
L 46.588235 306 
L 93.176471 306.885304 
L 139.764706 305.492468 
L 186.352941 306.600168 
L 232.941176 304.919611 
L 279.529412 303.768979 
L 326.117647 306.049159 
L 372.705882 304.769234 
L 419.294118 309.427259 
L 465.882353 308.074657 
L 512.470588 307.282774 
L 559.058824 307.400114 
L 605.647059 307.198709 
L 652.235294 307.532197 
L 698.823529 309.012313 
L 745.411765 307.7102 
" clip-path="url(#p259ad74f33)" style="fill: none; stroke: #000000; stroke-width: 1.5; stroke-linecap: square"/>
   </g>
   <g id="line2d_3">
    <path d="M 0 306 
L 46.588235 306 
L 93.176471 306.777899 
L 139.764706 305.722192 
L 186.352941 306.443574 
L 232.941176 305.340812 
L 279.529412 304.441531 
L 326.117647 305.679208 
L 372.705882 304.998164 
L 419.294118 307.773173 
L 465.882353 307.456071 
L 512.470588 307.164595 
L 559.058824 307.269646 
L 605.647059 307.184761 
L 652.235294 307.379761 
L 698.823529 308.293992 
L 745.411765 307.73611 
" clip-path="url(#p259ad74f33)" style="fill: none; stroke: #000000; stroke-width: 1.5; stroke-linecap: square"/>
   </g>
   <g id="line2d_4">
    <path d="M 0 306 
L 46.588235 306 
L 93.176471 306.721365 
L 139.764706 305.829088 
L 186.352941 306.38287 
L 232.941176 305.548635 
L 279.529412 304.836269 
L 326.117647 305.619101 
L 372.705882 305.169411 
L 419.294118 306.959242 
L 465.882353 306.913843 
L 512.470588 306.833306 
L 559.058824 306.957744 
L 605.647059 306.96224 
L 652.235294 307.116366 
L 698.823529 307.695181 
L 745.411765 307.474812 
" clip-path="url(#p259ad74f33)" style="fill: none; stroke: #000000; stroke-width: 1.5; stroke-linecap: square"/>
   </g>
   <g id="line2d_5">
    <path d="M 0 306 
L 46.588235 306 
L 93.176471 306.692726 
L 139.764706 305.878742 
L 186.352941 306.357819 
L 232.941176 305.646379 
L 279.529412 305.033806 
L 326.117647 305.628778 
L 372.705882 305.275302 
L 419.294118 306.620819 
L 465.882353 306.635644 
L 512.470588 306.615012 
L 559.058824 306.730901 
L 605.647059 306.761866 
L 652.235294 306.889836 
L 698.823529 307.29994 
L 745.411765 307.199983 
" clip-path="url(#p259ad74f33)" style="fill: none; stroke: #000000; stroke-width: 1.5; stroke-linecap: square"/>
   </g>
   <g id="line2d_6">
    <path d="M 0 306 
L 46.588235 306 
L 93.176471 306.678359 
L 139.764706 305.902421 
L 186.352941 306.346627 
L 232.941176 305.692994 
L 279.529412 305.130145 
L 326.117647 305.642885 
L 372.705882 305.332598 
L 419.294118 306.477813 
L 465.882353 306.507541 
L 512.470588 306.504785 
L 559.058824 306.610713 
L 605.647059 306.647371 
L 652.235294 306.759059 
L 698.823529 307.08954 
L 745.411765 307.030789 
" clip-path="url(#p259ad74f33)" style="fill: none; stroke: #000000; stroke-width: 1.5; stroke-linecap: square"/>
   </g>
   <g id="line2d_7">
    <path d="M 0 306 
L 46.588235 306 
L 93.176471 306.67117 
L 139.764706 305.91395 
L 186.352941 306.341357 
L 232.941176 305.715655 
L 279.529412 305.177396 
L 326.117647 305.652033 
L 372.705882 305.362104 
L 419.294118 306.413633 
L 465.882353 306.447818 
L 512.470588 306.451364 
L 559.058824 306.551185 
L 605.647059 306.588891 
L 652.235294 306.691813 
L 698.823529 306.984732 
L 745.411765 306.94171 
" clip-path="url(#p259ad74f33)" style="fill: none; stroke: #000000; stroke-width: 1.5; stroke-linecap: square"/>
   </g>
   <g id="line2d_8">
    <path d="M 0 306 
L 46.588235 306 
L 93.176471 306.667575 
L 139.764706 305.919635 
L 186.352941 306.338803 
L 232.941176 305.726815 
L 279.529412 305.200754 
L 326.117647 305.657094 
L 372.705882 305.377036 
L 419.294118 306.383432 
L 465.882353 306.419209 
L 512.470588 306.425317 
L 559.058824 306.521866 
L 605.647059 306.559691 
L 652.235294 306.658127 
L 698.823529 306.932972 
L 745.411765 306.896662 
" clip-path="url(#p259ad74f33)" style="fill: none; stroke: #000000; stroke-width: 1.5; stroke-linecap: square"/>
   </g>
   <g id="line2d_9">
    <path d="M 0 306 
L 46.588235 306 
L 93.176471 306.665777 
L 139.764706 305.922458 
L 186.352941 306.337546 
L 232.941176 305.732351 
L 279.529412 305.212362 
L 326.117647 305.659742 
L 372.705882 305.384541 
L 419.294118 306.368809 
L 465.882353 306.405235 
L 512.470588 306.412488 
L 559.058824 306.507354 
L 605.647059 306.545145 
L 652.235294 306.641321 
L 698.823529 306.907323 
L 745.411765 306.874095 
" clip-path="url(#p259ad74f33)" style="fill: none; stroke: #000000; stroke-width: 1.5; stroke-linecap: square"/>
   </g>
  </g>
 </g>
 <defs>
  <clipPath id="p259ad74f33">
   <rect x="0" y="0" width="792" height="612"/>
  </clipPath>
 </defs>
</svg>
