<?xml version="1.0" encoding="utf-8" standalone="no"?>
<!DOCTYPE svg PUBLIC "-//W3C//DTD SVG 1.1//EN"
  "http://www.w3.org/Graphics/SVG/1.1/DTD/svg11.dtd">
<svg xmlns:xlink="http://www.w3.org/1999/xlink" width="792pt" height="612pt" viewBox="0 0 792 612" xmlns="http://www.w3.org/2000/svg" version="1.1">
 <metadata>
  <rdf:RDF xmlns:dc="http://purl.org/dc/elements/1.1/" xmlns:cc="http://creativecommons.org/ns#" xmlns:rdf="http://www.w3.org/1999/02/22-rdf-syntax-ns#">
   <cc:Work>
    <dc:type rdf:resource="http://purl.org/dc/dcmitype/StillImage"/>
    <dc:date>2023-01-23T15:49:57.289273</dc:date>
    <dc:format>image/svg+xml</dc:format>
    <dc:creator>
     <cc:Agent>
      <dc:title>Matplotlib v3.6.2, https://matplotlib.org/</dc:title>
     </cc:Agent>
    </dc:creator>
   </cc:Work>
  </rdf:RDF>
 </metadata>
 <defs>
  <style type="text/css">*{stroke-linejoin: round; stroke-linecap: butt}</style>
 </defs>
 <g id="figure_1">
  <g id="patch_1">
   <path d="M 0 612 
L 792 612 
L 792 0 
L 0 0 
z
" style="fill: #ffffff"/>
  </g>
  <g id="axes_1">
   <g id="line2d_1">
    <path d="M 0 459 
L 44 458.50302 
L 88 453.2458 
L 132 454.945797 
L 176 453.768861 
L 220 453.899629 
L 264 455.913541 
L 308 453.559635 
L 352 455.939697 
L 396 451.912063 
L 440 446.839922 
L 484 450.316969 
L 528 446.526266 
L 572 458.738432 
L 616 459.279006 
L 660 459.523137 
L 704 460.290403 
L 748 460.787383 
" clip-path="url(#p7895d3a3b1)" style="fill: none; stroke: #000000; stroke-width: 1.5; stroke-linecap: square"/>
   </g>
   <g id="line2d_2">
    <path d="M 0 459 
L 44 459 
L 88 458.66868 
L 132 455.569783 
L 176 455.236989 
L 220 454.479234 
L 264 454.184829 
L 308 455.055977 
L 352 454.304859 
L 396 455.116265 
L 440 453.501175 
L 484 450.157522 
L 528 450.228171 
L 572 448.362846 
L 616 453.55943 
L 660 456.705809 
L 704 458.651345 
L 748 459.591623 
" clip-path="url(#p7895d3a3b1)" style="fill: none; stroke: #000000; stroke-width: 1.5; stroke-linecap: square"/>
   </g>
   <g id="line2d_3">
    <path d="M 0 459 
L 44 459 
L 88 458.708876 
L 132 456.233552 
L 176 455.730646 
L 220 455.032649 
L 264 454.653381 
L 308 455.058254 
L 352 454.590045 
L 396 455.00362 
L 440 454.068863 
L 484 451.903292 
L 528 451.431274 
L 572 449.97835 
L 616 452.563924 
L 660 454.705825 
L 704 456.429903 
L 748 458.320946 
" clip-path="url(#p7895d3a3b1)" style="fill: none; stroke: #000000; stroke-width: 1.5; stroke-linecap: square"/>
   </g>
   <g id="line2d_4">
    <path d="M 0 459 
L 44 459 
L 88 458.730034 
L 132 456.577572 
L 176 456.058321 
L 220 455.429779 
L 264 455.05317 
L 308 455.247971 
L 352 454.889801 
L 396 455.101303 
L 440 454.484883 
L 484 453.055844 
L 528 452.55779 
L 572 451.485213 
L 616 452.750949 
L 660 453.968774 
L 704 455.088898 
L 748 456.395726 
" clip-path="url(#p7895d3a3b1)" style="fill: none; stroke: #000000; stroke-width: 1.5; stroke-linecap: square"/>
   </g>
   <g id="line2d_5">
    <path d="M 0 459 
L 44 459 
L 88 458.740752 
L 132 456.74822 
L 176 456.237466 
L 220 455.654693 
L 264 455.295373 
L 308 455.408194 
L 352 455.101339 
L 396 455.229833 
L 440 454.754673 
L 484 453.685343 
L 528 453.252844 
L 572 452.42654 
L 616 453.171957 
L 660 453.932394 
L 704 454.6668 
L 748 455.550219 
" clip-path="url(#p7895d3a3b1)" style="fill: none; stroke: #000000; stroke-width: 1.5; stroke-linecap: square"/>
   </g>
   <g id="line2d_6">
    <path d="M 0 459 
L 44 459 
L 88 458.746129 
L 132 456.83262 
L 176 456.329824 
L 220 455.772301 
L 264 455.425428 
L 308 455.504538 
L 352 455.223001 
L 396 455.31711 
L 440 454.90647 
L 484 454.00406 
L 528 453.618422 
L 572 452.919971 
L 616 453.462382 
L 660 454.027899 
L 704 454.582534 
L 748 455.256732 
" clip-path="url(#p7895d3a3b1)" style="fill: none; stroke: #000000; stroke-width: 1.5; stroke-linecap: square"/>
   </g>
   <g id="line2d_7">
    <path d="M 0 459 
L 44 459 
L 88 458.748819 
L 132 456.874518 
L 176 456.37655 
L 220 455.832158 
L 264 455.492369 
L 308 455.556516 
L 352 455.287568 
L 396 455.366461 
L 440 454.986363 
L 484 454.162796 
L 528 453.802733 
L 572 453.167252 
L 616 453.623574 
L 660 454.103478 
L 704 454.576487 
L 748 455.153439 
" clip-path="url(#p7895d3a3b1)" style="fill: none; stroke: #000000; stroke-width: 1.5; stroke-linecap: square"/>
   </g>
   <g id="line2d_8">
    <path d="M 0 459 
L 44 459 
L 88 458.750165 
L 132 456.895382 
L 176 456.40003 
L 220 455.862316 
L 264 455.526271 
L 308 455.583409 
L 352 455.320735 
L 396 455.392525 
L 440 455.027246 
L 484 454.241796 
L 528 453.894858 
L 572 453.290333 
L 616 453.70743 
L 660 454.147735 
L 704 454.582478 
L 748 455.113397 
" clip-path="url(#p7895d3a3b1)" style="fill: none; stroke: #000000; stroke-width: 1.5; stroke-linecap: square"/>
   </g>
   <g id="line2d_9">
    <path d="M 0 459 
L 44 459 
L 88 458.750837 
L 132 456.905792 
L 176 456.411796 
L 220 455.877449 
L 264 455.543324 
L 308 455.597075 
L 352 455.337533 
L 396 455.405897 
L 440 455.047913 
L 484 454.281176 
L 528 453.940862 
L 572 453.351646 
L 616 453.750071 
L 660 454.171395 
L 704 454.587685 
L 748 455.096312 
" clip-path="url(#p7895d3a3b1)" style="fill: none; stroke: #000000; stroke-width: 1.5; stroke-linecap: square"/>
   </g>
  </g>
 </g>
 <defs>
  <clipPath id="p7895d3a3b1">
   <rect x="0" y="0" width="792" height="612"/>
  </clipPath>
 </defs>
</svg>
