<?xml version="1.0" encoding="utf-8" standalone="no"?>
<!DOCTYPE svg PUBLIC "-//W3C//DTD SVG 1.1//EN"
  "http://www.w3.org/Graphics/SVG/1.1/DTD/svg11.dtd">
<svg xmlns:xlink="http://www.w3.org/1999/xlink" width="792pt" height="612pt" viewBox="0 0 792 612" xmlns="http://www.w3.org/2000/svg" version="1.1">
 <metadata>
  <rdf:RDF xmlns:dc="http://purl.org/dc/elements/1.1/" xmlns:cc="http://creativecommons.org/ns#" xmlns:rdf="http://www.w3.org/1999/02/22-rdf-syntax-ns#">
   <cc:Work>
    <dc:type rdf:resource="http://purl.org/dc/dcmitype/StillImage"/>
    <dc:date>2022-12-19T20:26:57.382316</dc:date>
    <dc:format>image/svg+xml</dc:format>
    <dc:creator>
     <cc:Agent>
      <dc:title>Matplotlib v3.6.2, https://matplotlib.org/</dc:title>
     </cc:Agent>
    </dc:creator>
   </cc:Work>
  </rdf:RDF>
 </metadata>
 <defs>
  <style type="text/css">*{stroke-linejoin: round; stroke-linecap: butt}</style>
 </defs>
 <g id="figure_1">
  <g id="patch_1">
   <path d="M 0 612 
L 792 612 
L 792 0 
L 0 0 
z
" style="fill: #ffffff"/>
  </g>
  <g id="axes_1">
   <g id="line2d_1">
    <path d="M 0 306 
L 41.684211 305.145602 
L 83.368421 304.095423 
L 125.052632 303.508053 
L 166.736842 303.614847 
L 208.421053 306.4094 
L 250.105263 304.487011 
L 291.789474 305.6618 
L 333.473684 305.5906 
L 375.157895 305.8398 
L 416.842105 308.207163 
L 458.526316 302.600338 
L 500.210526 304.682807 
L 541.894737 305.7508 
L 583.578947 306.178 
L 625.263158 310.770017 
L 666.947368 304.095423 
L 708.631579 305.9466 
L 750.315789 308.598739 
" clip-path="url(#pd0483eba0a)" style="fill: none; stroke: #000000; stroke-width: 1.5; stroke-linecap: square"/>
   </g>
   <g id="line2d_2">
    <path d="M 0 306 
L 41.684211 306 
L 83.368421 305.4304 
L 125.052632 304.66755 
L 166.736842 304.049145 
L 208.421053 303.82499 
L 250.105263 305.137691 
L 291.789474 304.809788 
L 333.473684 305.237463 
L 375.157895 305.413229 
L 416.842105 305.627875 
L 458.526316 306.925598 
L 500.210526 304.761126 
L 541.894737 304.724061 
L 583.578947 305.236137 
L 625.263158 305.710383 
L 666.947368 308.25037 
L 708.631579 306.169973 
L 750.315789 306.058496 
" clip-path="url(#pd0483eba0a)" style="fill: none; stroke: #000000; stroke-width: 1.5; stroke-linecap: square"/>
   </g>
   <g id="line2d_3">
    <path d="M 0 306 
L 41.684211 306 
L 83.368421 305.499504 
L 125.052632 304.863334 
L 166.736842 304.334056 
L 208.421053 304.078167 
L 250.105263 304.858501 
L 291.789474 304.739144 
L 333.473684 305.027398 
L 375.157895 305.199983 
L 416.842105 305.393426 
L 458.526316 306.236183 
L 500.210526 305.154326 
L 541.894737 305.014678 
L 583.578947 305.23198 
L 625.263158 305.510601 
L 666.947368 307.057198 
L 708.631579 306.187523 
L 750.315789 306.117878 
" clip-path="url(#pd0483eba0a)" style="fill: none; stroke: #000000; stroke-width: 1.5; stroke-linecap: square"/>
   </g>
   <g id="line2d_4">
    <path d="M 0 306 
L 41.684211 306 
L 83.368421 305.535878 
L 125.052632 304.970545 
L 166.736842 304.505162 
L 208.421053 304.260742 
L 250.105263 304.789562 
L 291.789474 304.721059 
L 333.473684 304.920625 
L 375.157895 305.055593 
L 416.842105 305.207155 
L 458.526316 305.767815 
L 500.210526 305.19184 
L 541.894737 305.101338 
L 583.578947 305.214688 
L 625.263158 305.38026 
L 666.947368 306.295023 
L 708.631579 305.925642 
L 750.315789 305.929131 
" clip-path="url(#pd0483eba0a)" style="fill: none; stroke: #000000; stroke-width: 1.5; stroke-linecap: square"/>
   </g>
   <g id="line2d_5">
    <path d="M 0 306 
L 41.684211 306 
L 83.368421 305.554305 
L 125.052632 305.025316 
L 166.736842 304.595368 
L 208.421053 304.363897 
L 250.105263 304.782663 
L 291.789474 304.728703 
L 333.473684 304.883588 
L 375.157895 304.991952 
L 416.842105 305.113369 
L 458.526316 305.531264 
L 500.210526 305.154953 
L 541.894737 305.096967 
L 583.578947 305.174191 
L 625.263158 305.288729 
L 666.947368 305.895337 
L 708.631579 305.701515 
L 750.315789 305.727271 
" clip-path="url(#pd0483eba0a)" style="fill: none; stroke: #000000; stroke-width: 1.5; stroke-linecap: square"/>
   </g>
   <g id="line2d_6">
    <path d="M 0 306 
L 41.684211 306 
L 83.368421 305.563548 
L 125.052632 305.05282 
L 166.736842 304.641175 
L 208.421053 304.417747 
L 250.105263 304.786643 
L 291.789474 304.73808 
L 333.473684 304.871789 
L 375.157895 304.966176 
L 416.842105 305.071525 
L 458.526316 305.422229 
L 500.210526 305.1271 
L 541.894737 305.083356 
L 583.578947 305.145582 
L 625.263158 305.23718 
L 666.947368 305.706359 
L 708.631579 305.575316 
L 750.315789 305.604386 
" clip-path="url(#pd0483eba0a)" style="fill: none; stroke: #000000; stroke-width: 1.5; stroke-linecap: square"/>
   </g>
   <g id="line2d_7">
    <path d="M 0 306 
L 41.684211 306 
L 83.368421 305.568173 
L 125.052632 305.06658 
L 166.736842 304.664191 
L 208.421053 304.44513 
L 250.105263 304.790484 
L 291.789474 304.744263 
L 333.473684 304.867835 
L 375.157895 304.955274 
L 416.842105 305.052593 
L 458.526316 305.37143 
L 500.210526 305.112003 
L 541.894737 305.074529 
L 583.578947 305.129925 
L 625.263158 305.210881 
L 666.947368 305.617612 
L 708.631579 305.511725 
L 750.315789 305.540587 
" clip-path="url(#pd0483eba0a)" style="fill: none; stroke: #000000; stroke-width: 1.5; stroke-linecap: square"/>
   </g>
   <g id="line2d_8">
    <path d="M 0 306 
L 41.684211 306 
L 83.368421 305.570487 
L 125.052632 305.073459 
L 166.736842 304.675719 
L 208.421053 304.45892 
L 250.105263 304.792861 
L 291.789474 304.747736 
L 333.473684 304.86637 
L 375.157895 304.95037 
L 416.842105 305.043709 
L 458.526316 305.347123 
L 500.210526 305.104334 
L 541.894737 305.06976 
L 583.578947 305.121904 
L 625.263158 305.197772 
L 666.947368 305.575061 
L 708.631579 305.480278 
L 750.315789 305.508638 
" clip-path="url(#pd0483eba0a)" style="fill: none; stroke: #000000; stroke-width: 1.5; stroke-linecap: square"/>
   </g>
   <g id="line2d_9">
    <path d="M 0 306 
L 41.684211 306 
L 83.368421 305.571643 
L 125.052632 305.076897 
L 166.736842 304.681487 
L 208.421053 304.465839 
L 250.105263 304.794162 
L 291.789474 304.749567 
L 333.473684 304.865769 
L 375.157895 304.94806 
L 416.842105 305.039422 
L 458.526316 305.335261 
L 500.210526 305.100491 
L 541.894737 305.067307 
L 583.578947 305.117865 
L 625.263158 305.191251 
L 666.947368 305.554287 
L 708.631579 305.464702 
L 750.315789 305.492724 
" clip-path="url(#pd0483eba0a)" style="fill: none; stroke: #000000; stroke-width: 1.5; stroke-linecap: square"/>
   </g>
  </g>
 </g>
 <defs>
  <clipPath id="pd0483eba0a">
   <rect x="0" y="0" width="792" height="612"/>
  </clipPath>
 </defs>
</svg>
