<?xml version="1.0" encoding="utf-8" standalone="no"?>
<!DOCTYPE svg PUBLIC "-//W3C//DTD SVG 1.1//EN"
  "http://www.w3.org/Graphics/SVG/1.1/DTD/svg11.dtd">
<svg xmlns:xlink="http://www.w3.org/1999/xlink" width="792pt" height="612pt" viewBox="0 0 792 612" xmlns="http://www.w3.org/2000/svg" version="1.1">
 <metadata>
  <rdf:RDF xmlns:dc="http://purl.org/dc/elements/1.1/" xmlns:cc="http://creativecommons.org/ns#" xmlns:rdf="http://www.w3.org/1999/02/22-rdf-syntax-ns#">
   <cc:Work>
    <dc:type rdf:resource="http://purl.org/dc/dcmitype/StillImage"/>
    <dc:date>2023-01-30T17:17:32.282766</dc:date>
    <dc:format>image/svg+xml</dc:format>
    <dc:creator>
     <cc:Agent>
      <dc:title>Matplotlib v3.6.2, https://matplotlib.org/</dc:title>
     </cc:Agent>
    </dc:creator>
   </cc:Work>
  </rdf:RDF>
 </metadata>
 <defs>
  <style type="text/css">*{stroke-linejoin: round; stroke-linecap: butt}</style>
 </defs>
 <g id="figure_1">
  <g id="patch_1">
   <path d="M 0 612 
L 792 612 
L 792 0 
L 0 0 
z
" style="fill: #ffffff"/>
  </g>
  <g id="axes_1">
   <g id="line2d_1">
    <path d="M 0 306 
L 3.168 297.252553 
L 6.336 304.591775 
L 9.504 301.850656 
L 12.672 303.746865 
L 15.84 305.06118 
L 19.008 308.647415 
L 22.176 302.451408 
L 25.344 306.018776 
L 28.512 308.121706 
L 31.68 307.070254 
L 34.848 305.155061 
L 38.016 306.037553 
L 41.184 309.886519 
L 44.352 309.210657 
L 47.52 309.961612 
L 50.688 302.789343 
L 53.856 306.187765 
L 57.024 307.915174 
L 60.192 311.313205 
L 63.36 310.168117 
L 66.528 305.849788 
L 69.696 311.782462 
L 72.864 291.253133 
L 76.032 308.684965 
L 79.2 307.070254 
L 82.368 302.169802 
L 85.536 301.418886 
L 88.704 304.122377 
L 91.872 300.874505 
L 95.04 312.551984 
L 98.208 304.798313 
L 101.376 305.436707 
L 104.544 306.58207 
L 107.712 301.60661 
L 110.88 297.64655 
L 114.048 309.041687 
L 117.216 301.719246 
L 120.384 309.680009 
L 123.552 304.141153 
L 126.72 307.558433 
L 129.888 307.23924 
L 133.056 304.310136 
L 136.224 302.845666 
L 139.392 304.29136 
L 142.56 306.168988 
L 145.728 302.526504 
L 148.896 310.430935 
L 152.064 304.197481 
L 155.232 309.229432 
L 158.4 303.859518 
L 161.568 297.327598 
L 164.736 306.882491 
L 167.904 305.324048 
L 171.072 310.280754 
L 174.24 305.887341 
L 177.408 304.572999 
L 183.744 310.205663 
L 186.912 295.826908 
L 190.08 304.479119 
L 196.416 309.417174 
L 199.584 297.609026 
L 202.752 308.497214 
L 205.92 310.843923 
L 209.088 303.44646 
L 212.256 311.632302 
L 215.424 309.417174 
L 218.592 306.657175 
L 221.76 302.41386 
L 224.928 312.458144 
L 228.096 306.732281 
L 231.264 304.197481 
L 234.432 306.450635 
L 237.6 307.802519 
L 240.768 302.73302 
L 243.936 307.915174 
L 247.104 303.690539 
L 250.272 304.610551 
L 253.44 312.232923 
L 256.608 308.929039 
L 259.776 300.292618 
L 262.944 301.381341 
L 266.112 302.319991 
L 269.28 309.342077 
L 272.448 306.300423 
L 275.616 302.939539 
L 278.784 308.929039 
L 281.952 309.417174 
L 285.12 307.051478 
L 288.288 307.370673 
L 291.456 306.037553 
L 294.624 302.357538 
L 297.792 307.990277 
L 300.96 312.702125 
L 304.128 308.178033 
L 307.296 309.26698 
L 310.464 310.919009 
L 313.632 302.620374 
L 316.8 305.831012 
L 319.968 307.164135 
L 323.136 299.33541 
L 326.304 300.874505 
L 329.472 298.641046 
L 332.64 301.062219 
L 335.808 306.3192 
L 338.976 315.722933 
L 342.144 305.906118 
L 345.312 305.023627 
L 348.48 302.226123 
L 351.648 308.59109 
L 354.816 305.699577 
L 357.984 305.624471 
L 361.152 306.413082 
L 364.32 305.868565 
L 367.488 310.693747 
L 370.656 306.769833 
L 373.824 305.549365 
L 376.992 301.212393 
L 380.16 313.509077 
L 383.328 310.768835 
L 389.664 304.873417 
L 392.832 304.479119 
L 396 305.361601 
L 399.168 303.709314 
L 402.336 306.901268 
L 405.504 304.122377 
L 408.672 305.399154 
L 411.84 307.145359 
L 415.008 307.858847 
L 418.176 302.864441 
L 421.344 311.256892 
L 424.512 307.276792 
L 427.68 307.70864 
L 430.848 306.037553 
L 434.016 305.079956 
L 437.184 312.627055 
L 440.352 309.454722 
L 443.52 304.516671 
L 446.688 303.22116 
L 449.856 305.981224 
L 453.024 307.520881 
L 456.192 301.231165 
L 459.36 309.229432 
L 462.528 308.74129 
L 465.696 307.032701 
L 468.864 303.089736 
L 472.032 311.369517 
L 475.2 308.384562 
L 478.368 307.070254 
L 481.536 308.046604 
L 484.704 298.490923 
L 487.872 310.881466 
L 491.04 305.173838 
L 497.376 303.521561 
L 500.544 305.399154 
L 503.712 306.131435 
L 506.88 314.090769 
L 510.048 299.748308 
L 513.216 305.21139 
L 516.384 301.268709 
L 519.552 308.478439 
L 522.72 308.459664 
L 525.888 309.173108 
L 529.056 300.555401 
L 532.224 304.986075 
L 535.392 307.915174 
L 538.56 307.427001 
L 541.728 303.33381 
L 544.896 309.435948 
L 548.064 308.196808 
L 551.232 306.300423 
L 554.4 301.45643 
L 557.568 306.957596 
L 560.736 312.007696 
L 563.904 309.210657 
L 567.072 305.605695 
L 570.24 301.644155 
L 573.408 306.075106 
L 576.576 301.381341 
L 579.744 307.295568 
L 582.912 302.000841 
L 586.08 307.08903 
L 589.248 308.478439 
L 592.416 305.21139 
L 595.584 299.241573 
L 598.752 301.738019 
L 601.92 306.506964 
L 605.088 303.18361 
L 608.256 305.812235 
L 611.424 301.193621 
L 614.592 307.689864 
L 617.76 307.652313 
L 620.928 310.994095 
L 624.096 305.455483 
L 627.264 304.572999 
L 630.432 303.18361 
L 633.6 304.385239 
L 636.768 308.609865 
L 639.936 302.207349 
L 643.104 315.797963 
L 646.272 301.005905 
L 649.44 305.098732 
L 652.608 303.990947 
L 655.776 303.37136 
L 658.944 303.484011 
L 662.112 306.431858 
L 665.28 304.404015 
L 668.448 305.643247 
L 671.616 305.568142 
L 674.784 305.831012 
L 677.952 308.328236 
L 681.12 302.41386 
L 684.288 304.610551 
L 687.456 305.73713 
L 690.624 306.187765 
L 693.792 311.031638 
L 696.96 303.990947 
L 700.128 305.943671 
L 703.296 308.74129 
L 706.464 302.057161 
L 709.632 303.427685 
L 712.8 304.967299 
L 715.968 310.261981 
L 719.136 309.417174 
L 722.304 306.356753 
L 725.472 305.643247 
L 728.64 302.226123 
L 731.808 307.220464 
L 734.976 305.155061 
L 738.144 306.093882 
L 741.312 307.445777 
L 744.48 304.310136 
L 747.648 307.70864 
L 750.816 303.108511 
L 753.984 302.357538 
L 757.152 308.497214 
L 760.32 303.277485 
L 763.488 314.766208 
L 766.656 306.78861 
L 769.824 306.52574 
L 772.992 307.652313 
L 776.16 307.070254 
L 779.328 308.009053 
L 782.496 310.881466 
L 785.664 306.431858 
L 788.832 307.483329 
L 788.832 307.483329 
" clip-path="url(#pa899c28db5)" style="fill: none; stroke: #000000; stroke-width: 1.5; stroke-linecap: square"/>
   </g>
   <g id="line2d_2">
    <path d="M 0 306 
L 3.168 306 
L 6.336 300.167486 
L 9.504 302.695471 
L 12.672 302.244896 
L 15.84 303.020088 
L 19.008 304.056811 
L 22.176 306.370207 
L 25.344 304.403058 
L 28.512 305.210949 
L 31.68 306.687659 
L 34.848 306.883817 
L 38.016 306.025919 
L 41.184 306.036228 
L 44.352 307.970912 
L 50.688 309.291497 
L 53.856 306.034092 
L 57.024 306.107136 
L 60.192 307.012821 
L 63.36 309.175243 
L 66.528 309.679788 
L 69.696 307.756942 
L 72.864 309.774908 
L 76.032 300.472296 
L 79.2 304.589935 
L 82.368 305.831822 
L 85.536 303.989475 
L 88.704 302.684722 
L 91.872 303.391681 
L 95.04 302.123273 
L 98.208 307.339526 
L 101.376 306.095502 
L 104.544 305.759735 
L 107.712 306.169945 
L 110.88 303.887056 
L 114.048 300.758861 
L 117.216 304.909718 
L 120.384 303.316066 
L 123.552 306.492458 
L 126.72 305.315507 
L 129.888 306.441136 
L 133.056 306.841478 
L 139.392 304.223546 
L 142.56 304.248138 
L 145.728 305.217281 
L 148.896 303.857825 
L 152.064 307.156845 
L 155.232 305.670565 
L 158.4 307.45395 
L 161.568 305.655839 
L 164.736 301.480061 
L 167.904 304.186215 
L 171.072 304.753471 
L 174.24 307.532441 
L 177.408 306.700987 
L 180.576 305.637725 
L 183.744 306.528833 
L 186.912 308.379777 
L 190.08 302.098757 
L 193.248 303.284185 
L 196.416 305.142912 
L 199.584 307.278412 
L 202.752 302.426597 
L 205.92 305.469547 
L 209.088 308.163601 
L 212.256 305.791765 
L 215.424 308.743278 
L 218.592 309.089912 
L 221.76 307.87291 
L 224.928 305.129584 
L 228.096 308.823384 
L 231.264 307.774393 
L 234.432 305.972903 
L 237.6 306.21766 
L 240.768 307.002586 
L 243.936 304.854641 
L 247.104 306.387384 
L 250.272 305.041446 
L 253.44 304.810609 
L 256.608 308.532924 
L 259.776 308.740259 
L 262.944 304.50408 
L 266.112 302.930041 
L 269.28 302.624203 
L 272.448 305.985936 
L 275.616 306.148297 
L 278.784 304.540601 
L 281.952 306.728378 
L 285.12 308.073773 
L 288.288 307.575883 
L 291.456 307.485022 
L 294.624 306.768582 
L 297.792 304.54929 
L 300.96 306.273105 
L 304.128 309.507142 
L 307.296 308.841128 
L 310.464 309.053761 
L 313.632 309.994005 
L 316.8 306.29792 
L 319.968 306.064061 
L 323.136 306.623525 
L 326.304 302.962068 
L 329.472 301.895049 
L 332.64 300.249189 
L 335.808 300.639611 
L 338.976 303.470169 
L 342.144 309.623688 
L 345.312 307.765115 
L 348.48 306.390182 
L 351.648 304.313744 
L 354.816 306.46757 
L 357.984 306.097417 
L 361.152 305.86989 
L 364.32 306.14167 
L 367.488 305.985789 
L 370.656 308.349294 
L 373.824 307.562998 
L 376.992 306.562704 
L 380.16 303.872919 
L 383.328 308.70698 
L 386.496 309.748036 
L 389.664 308.796879 
L 392.832 306.833231 
L 396 305.643984 
L 399.168 305.500031 
L 402.336 304.601053 
L 405.504 305.762312 
L 408.672 304.923929 
L 411.84 305.151012 
L 415.008 306.146825 
L 418.176 307.008697 
L 421.344 304.933354 
L 424.512 308.106907 
L 427.68 307.698847 
L 430.848 307.705327 
L 437.184 305.976953 
L 440.352 309.313143 
L 443.52 309.387062 
L 446.688 306.955167 
L 449.856 305.072372 
L 453.024 305.524256 
L 456.192 306.522206 
L 459.36 303.867102 
L 462.528 306.556445 
L 465.696 307.641268 
L 468.864 307.332237 
L 472.032 305.208151 
L 475.2 308.305043 
L 478.368 308.349515 
L 481.536 307.709008 
L 484.704 307.891171 
L 487.872 303.169327 
L 491.04 307.029756 
L 497.376 305.215956 
L 500.544 304.353357 
L 506.88 305.499074 
L 510.048 309.807523 
L 513.216 304.780052 
L 516.384 304.984602 
L 519.552 303.118892 
L 522.72 305.806787 
L 525.888 307.142929 
L 529.056 308.165442 
L 532.224 304.349234 
L 535.392 304.649797 
L 538.56 306.298509 
L 541.728 306.867102 
L 544.896 305.104476 
L 548.064 307.272153 
L 551.232 307.733969 
L 554.4 307.011569 
L 557.568 304.235621 
L 560.736 305.600467 
L 563.904 308.812414 
L 567.072 309.015034 
L 570.24 307.31486 
L 573.408 304.464098 
L 576.576 305.265437 
L 579.744 303.313636 
L 582.912 305.316022 
L 586.08 303.648644 
L 589.248 305.359171 
L 592.416 306.917393 
L 595.584 306.063619 
L 598.752 302.647468 
L 601.92 302.184232 
L 605.088 304.355566 
L 608.256 303.761518 
L 611.424 304.794336 
L 614.592 302.982315 
L 617.76 305.334504 
L 620.928 306.498202 
L 624.096 308.769342 
L 627.264 307.119735 
L 633.6 304.513063 
L 636.768 304.446353 
L 639.936 306.542676 
L 643.104 304.364181 
L 646.272 310.098472 
L 649.44 305.532503 
L 652.608 305.314918 
L 658.944 304.011932 
L 662.112 303.746203 
L 665.28 305.084742 
L 668.448 304.748685 
L 671.616 305.176047 
L 677.952 305.607462 
L 681.12 306.976373 
L 684.288 304.693166 
L 687.456 304.654068 
L 693.792 305.694496 
L 696.96 308.373813 
L 700.128 306.179297 
L 703.296 306.061705 
L 706.464 307.402334 
L 709.632 304.728951 
L 712.8 304.07599 
L 715.968 304.520132 
L 719.136 307.399168 
L 722.304 308.405031 
L 725.472 307.385546 
L 728.64 306.513812 
L 731.808 304.357112 
L 734.976 305.798908 
L 738.144 305.480371 
L 741.312 305.789335 
L 744.48 306.612038 
L 747.648 305.451065 
L 750.816 306.582511 
L 753.984 304.840504 
L 757.152 303.599239 
L 760.32 306.050733 
L 763.488 304.6604 
L 766.656 309.731324 
L 769.824 308.258731 
L 772.992 307.396591 
L 776.16 307.524342 
L 779.328 307.305067 
L 782.496 307.668143 
L 785.664 309.27957 
L 788.832 307.861939 
L 788.832 307.861939 
" clip-path="url(#pa899c28db5)" style="fill: none; stroke: #000000; stroke-width: 1.5; stroke-linecap: square"/>
   </g>
   <g id="line2d_3">
    <path d="M 0 306 
L 3.168 306 
L 6.336 300.874947 
L 9.504 302.558853 
L 12.672 302.28228 
L 15.84 302.803346 
L 19.008 303.559096 
L 22.176 305.193918 
L 25.344 304.33707 
L 28.512 304.852399 
L 31.68 305.840853 
L 34.848 306.209074 
L 38.016 305.89546 
L 41.184 305.937543 
L 44.352 307.103335 
L 50.688 308.381984 
L 53.856 306.740248 
L 57.024 306.588695 
L 60.192 306.981034 
L 63.36 308.260884 
L 66.528 308.8269 
L 69.696 307.95586 
L 72.864 309.080364 
L 76.032 303.842774 
L 79.2 305.264078 
L 82.368 305.791887 
L 88.704 303.752533 
L 91.872 303.858658 
L 95.04 302.974201 
L 98.208 305.783531 
L 101.376 305.489035 
L 104.544 305.476749 
L 107.712 305.800943 
L 110.88 304.565127 
L 114.048 302.522556 
L 117.216 304.430609 
L 120.384 303.63168 
L 123.552 305.400798 
L 126.72 305.046669 
L 129.888 305.781055 
L 133.056 306.208344 
L 136.224 305.654825 
L 139.392 304.833653 
L 142.56 304.675012 
L 145.728 305.118666 
L 148.896 304.347893 
L 152.064 306.136124 
L 155.232 305.56688 
L 158.4 306.642691 
L 161.568 305.830097 
L 164.736 303.338793 
L 167.904 304.374206 
L 171.072 304.656547 
L 174.24 306.304605 
L 177.408 306.184397 
L 180.576 305.708997 
L 183.744 306.212408 
L 186.912 307.388845 
L 190.08 303.993303 
L 193.248 304.13581 
L 196.416 304.974229 
L 199.584 306.283491 
L 202.752 303.727494 
L 205.92 305.129441 
L 209.088 306.805143 
L 212.256 305.820917 
L 215.424 307.53964 
L 218.592 308.092487 
L 221.76 307.673631 
L 224.928 306.124007 
L 228.096 307.987034 
L 231.264 307.622011 
L 234.432 306.615283 
L 237.6 306.562746 
L 240.768 306.93963 
L 243.936 305.705503 
L 247.104 306.353764 
L 250.272 305.567133 
L 253.44 305.295 
L 256.608 307.331605 
L 259.776 307.797294 
L 262.944 305.595423 
L 266.112 304.349285 
L 269.28 303.746744 
L 272.448 305.388674 
L 275.616 305.660183 
L 278.784 304.852366 
L 281.952 306.048941 
L 285.12 307.041507 
L 291.456 307.139975 
L 294.624 306.82088 
L 297.792 305.507165 
L 300.96 306.239399 
L 304.128 308.141862 
L 307.296 308.147798 
L 310.464 308.475994 
L 313.632 309.203789 
L 316.8 307.27701 
L 319.968 306.857523 
L 323.136 306.944826 
L 326.304 304.707779 
L 329.472 303.582572 
L 332.64 302.12317 
L 335.808 301.802819 
L 338.976 303.124693 
L 342.144 306.825127 
L 345.312 306.555805 
L 348.48 306.110102 
L 351.648 304.965838 
L 354.816 306.022942 
L 361.152 305.833064 
L 364.32 305.997772 
L 367.488 305.963659 
L 370.656 307.354754 
L 373.824 307.182983 
L 376.992 306.711649 
L 380.16 305.101231 
L 383.328 307.581339 
L 386.496 308.52615 
L 389.664 308.326952 
L 392.832 307.302992 
L 396 306.474261 
L 399.168 306.148759 
L 402.336 305.435954 
L 405.504 305.863194 
L 408.672 305.351503 
L 411.84 305.365201 
L 418.176 306.467143 
L 421.344 305.402912 
L 424.512 307.122803 
L 427.68 307.16989 
L 430.848 307.335149 
L 434.016 306.946511 
L 437.184 306.393276 
L 440.352 308.224872 
L 443.52 308.590358 
L 449.856 306.171646 
L 453.024 306.118482 
L 456.192 306.52995 
L 459.36 304.974542 
L 462.528 306.225202 
L 465.696 306.963999 
L 468.864 306.983172 
L 472.032 305.843047 
L 475.2 307.461992 
L 478.368 307.733483 
L 481.536 307.538496 
L 484.704 307.689626 
L 487.872 304.987392 
L 491.04 306.711838 
L 497.376 305.691668 
L 500.544 305.05639 
L 503.712 305.156115 
L 506.88 305.440183 
L 510.048 307.989178 
L 513.216 305.564357 
L 516.384 305.456921 
L 519.552 304.22351 
L 522.72 305.475942 
L 529.056 307.175346 
L 532.224 305.228763 
L 535.392 305.154166 
L 538.56 305.973679 
L 541.728 306.395381 
L 544.896 305.496535 
L 548.064 306.65627 
L 551.232 307.11286 
L 554.4 306.875939 
L 557.568 305.283137 
L 560.736 305.765379 
L 563.904 307.608006 
L 567.072 308.082018 
L 570.24 307.361715 
L 573.408 305.679151 
L 576.576 305.792384 
L 579.744 304.491379 
L 582.912 305.320444 
L 586.08 304.344675 
L 589.248 305.147521 
L 592.416 306.124346 
L 595.584 305.859104 
L 598.752 303.908874 
L 601.92 303.265595 
L 605.088 304.215176 
L 608.256 303.915016 
L 611.424 304.469373 
L 614.592 303.497436 
L 617.76 304.723596 
L 620.928 305.583748 
L 624.096 307.179266 
L 630.432 306.062064 
L 633.6 305.21424 
L 636.768 304.974168 
L 639.936 306.040802 
L 643.104 304.910754 
L 646.272 308.112652 
L 649.44 306.033055 
L 652.608 305.763258 
L 658.944 304.693785 
L 662.112 304.33677 
L 665.28 304.956417 
L 668.448 304.790847 
L 674.784 305.187183 
L 677.952 305.376187 
L 681.12 306.245148 
L 684.288 305.12206 
L 687.456 304.972501 
L 693.792 305.489041 
L 696.96 307.10708 
L 700.128 306.19781 
L 703.296 306.124345 
L 706.464 306.896305 
L 709.632 305.477382 
L 712.8 304.876962 
L 715.968 304.901739 
L 719.136 306.478523 
L 722.304 307.343602 
L 725.472 307.055468 
L 728.64 306.641625 
L 731.808 305.341291 
L 734.976 305.89721 
L 738.144 305.680464 
L 741.312 305.801961 
L 744.48 306.284872 
L 747.648 305.698759 
L 750.816 306.291715 
L 757.152 304.470467 
L 760.32 305.657279 
L 763.488 304.960064 
L 766.656 307.844152 
L 772.992 307.233251 
L 776.16 307.35748 
L 779.328 307.274993 
L 782.496 307.496638 
L 785.664 308.492311 
L 788.832 307.8903 
L 788.832 307.8903 
" clip-path="url(#pa899c28db5)" style="fill: none; stroke: #000000; stroke-width: 1.5; stroke-linecap: square"/>
   </g>
   <g id="line2d_4">
    <path d="M 0 306 
L 3.168 306 
L 6.336 301.247355 
L 9.504 302.559829 
L 12.672 302.334161 
L 15.84 302.721976 
L 19.008 303.297676 
L 22.176 304.508926 
L 25.344 304.072431 
L 28.512 304.464522 
L 31.68 305.171341 
L 34.848 305.526217 
L 38.016 305.458729 
L 41.184 305.561639 
L 44.352 306.316496 
L 50.688 307.348179 
L 53.856 306.582604 
L 57.024 306.516879 
L 60.192 306.747942 
L 63.36 307.4978 
L 66.528 307.934149 
L 69.696 307.595033 
L 72.864 308.273964 
L 76.032 305.521091 
L 79.2 306.031187 
L 82.368 306.198354 
L 88.704 304.888637 
L 91.872 304.765915 
L 95.04 304.143279 
L 98.208 305.487519 
L 101.376 305.377433 
L 104.544 305.386512 
L 107.712 305.582552 
L 110.88 304.948059 
L 114.048 303.783443 
L 117.216 304.623345 
L 120.384 304.159177 
L 123.552 305.038218 
L 126.72 304.896545 
L 129.888 305.321021 
L 133.056 305.625666 
L 136.224 305.414636 
L 139.392 305.004448 
L 142.56 304.889903 
L 145.728 305.091089 
L 148.896 304.678866 
L 152.064 305.594376 
L 155.232 305.373001 
L 158.4 305.988489 
L 161.568 305.647226 
L 164.736 304.314463 
L 167.904 304.720989 
L 171.072 304.816609 
L 174.24 305.685077 
L 177.408 305.726396 
L 180.576 305.540319 
L 183.744 305.840721 
L 186.912 306.540254 
L 190.08 304.831641 
L 193.248 304.775776 
L 196.416 305.132703 
L 199.584 305.812442 
L 202.752 304.502439 
L 205.92 305.139933 
L 209.088 306.05018 
L 212.256 305.637057 
L 215.424 306.599751 
L 218.592 307.048266 
L 221.76 306.989124 
L 224.928 306.256626 
L 228.096 307.248645 
L 231.264 307.165974 
L 234.432 306.691779 
L 237.6 306.654748 
L 240.768 306.840457 
L 243.936 306.185959 
L 247.104 306.462176 
L 250.272 306.021918 
L 253.44 305.793732 
L 256.608 306.823379 
L 259.776 307.15822 
L 262.944 306.063552 
L 266.112 305.321071 
L 269.28 304.840718 
L 272.448 305.559424 
L 275.616 305.674836 
L 278.784 305.237786 
L 285.12 306.400154 
L 291.456 306.647258 
L 294.624 306.551225 
L 297.792 305.881074 
L 300.96 306.215769 
L 304.128 307.257354 
L 307.296 307.40364 
L 310.464 307.699131 
L 313.632 308.216131 
L 316.8 307.320205 
L 319.968 307.081034 
L 323.136 307.094572 
L 326.304 305.857977 
L 329.472 305.057787 
L 332.64 304.03161 
L 335.808 303.557174 
L 338.976 303.996525 
L 342.144 305.867679 
L 345.312 305.875775 
L 348.48 305.73839 
L 351.648 305.178634 
L 354.816 305.72406 
L 361.152 305.699449 
L 367.488 305.827844 
L 370.656 306.60731 
L 373.824 306.631563 
L 376.992 306.458913 
L 380.16 305.623033 
L 383.328 306.880827 
L 386.496 307.500318 
L 389.664 307.554866 
L 396 306.704477 
L 399.168 306.492695 
L 402.336 306.047172 
L 405.504 306.179442 
L 408.672 305.849621 
L 411.84 305.775537 
L 418.176 306.29156 
L 421.344 305.744424 
L 424.512 306.624113 
L 430.848 306.89242 
L 434.016 306.761024 
L 437.184 306.496068 
L 440.352 307.47562 
L 443.52 307.786602 
L 446.688 307.265485 
L 449.856 306.620887 
L 453.024 306.521458 
L 456.192 306.679803 
L 459.36 305.810056 
L 462.528 306.356359 
L 465.696 306.737274 
L 468.864 306.785004 
L 472.032 306.192316 
L 475.2 307.018982 
L 478.368 307.238023 
L 481.536 307.214986 
L 484.704 307.343892 
L 487.872 305.927458 
L 491.04 306.717621 
L 497.376 306.131088 
L 500.544 305.714747 
L 503.712 305.665589 
L 506.88 305.739227 
L 510.048 307.074503 
L 513.216 305.905218 
L 516.384 305.793621 
L 519.552 305.069522 
L 525.888 306.066197 
L 529.056 306.561718 
L 532.224 305.601538 
L 535.392 305.502959 
L 538.56 305.888524 
L 541.728 306.130057 
L 544.896 305.681334 
L 548.064 306.281799 
L 551.232 306.589594 
L 554.4 306.543785 
L 557.568 305.730532 
L 560.736 305.929336 
L 563.904 306.898279 
L 567.072 307.266493 
L 570.24 307.001366 
L 573.408 306.148069 
L 576.576 306.133156 
L 579.744 305.372701 
L 582.912 305.678777 
L 586.08 305.089798 
L 589.248 305.413248 
L 592.416 305.899439 
L 595.584 305.789992 
L 598.752 304.744772 
L 601.92 304.265243 
L 605.088 304.622593 
L 608.256 304.391801 
L 611.424 304.612628 
L 614.592 304.069508 
L 620.928 305.129184 
L 624.096 306.063951 
L 627.264 305.965267 
L 630.432 305.74088 
L 633.6 305.335638 
L 636.768 305.18405 
L 639.936 305.729551 
L 643.104 305.165871 
L 646.272 306.865783 
L 649.44 305.928126 
L 652.608 305.794233 
L 662.112 304.89744 
L 665.28 305.13809 
L 668.448 305.018297 
L 677.952 305.293397 
L 681.12 305.780592 
L 684.288 305.241862 
L 687.456 305.143046 
L 693.792 305.386608 
L 696.96 306.288455 
L 700.128 305.925873 
L 703.296 305.931329 
L 706.464 306.379809 
L 709.632 305.691323 
L 712.8 305.329674 
L 715.968 305.274373 
L 719.136 306.069567 
L 722.304 306.603307 
L 728.64 306.415255 
L 731.808 305.747255 
L 734.976 305.984167 
L 738.144 305.852734 
L 741.312 305.889531 
L 744.48 306.140406 
L 747.648 305.842031 
L 750.816 306.1432 
L 757.152 305.132778 
L 760.32 305.671277 
L 763.488 305.290277 
L 766.656 306.803512 
L 776.16 306.902537 
L 779.328 306.929994 
L 782.496 307.101479 
L 785.664 307.708225 
L 788.832 307.506289 
L 788.832 307.506289 
" clip-path="url(#pa899c28db5)" style="fill: none; stroke: #000000; stroke-width: 1.5; stroke-linecap: square"/>
   </g>
   <g id="line2d_5">
    <path d="M 0 306 
L 3.168 306 
L 6.336 301.436013 
L 9.504 302.580198 
L 12.672 302.373467 
L 15.84 302.697668 
L 19.008 303.181522 
L 22.176 304.179073 
L 25.344 303.892284 
L 28.512 304.218205 
L 31.68 304.777209 
L 34.848 305.086937 
L 41.184 305.211357 
L 44.352 305.763565 
L 50.688 306.577962 
L 53.856 306.169983 
L 57.024 306.171852 
L 60.192 306.351097 
L 63.36 306.85142 
L 66.528 307.17997 
L 69.696 307.050295 
L 72.864 307.50509 
L 76.032 305.962478 
L 79.2 306.217693 
L 82.368 306.296764 
L 88.704 305.508072 
L 91.872 305.382919 
L 95.04 304.978655 
L 98.208 305.65327 
L 104.544 305.565179 
L 107.712 305.654258 
L 110.88 305.301284 
L 114.048 304.636425 
L 117.216 305.01749 
L 120.384 304.733164 
L 123.552 305.158228 
L 126.72 305.071091 
L 133.056 305.450309 
L 136.224 305.353342 
L 139.392 305.140504 
L 142.56 305.06857 
L 145.728 305.161629 
L 148.896 304.939123 
L 152.064 305.402179 
L 155.232 305.300739 
L 158.4 305.631155 
L 161.568 305.48232 
L 164.736 304.797761 
L 167.904 304.972554 
L 171.072 305.002001 
L 174.24 305.443901 
L 177.408 305.480995 
L 180.576 305.40509 
L 183.744 305.574011 
L 186.912 305.960771 
L 190.08 305.114719 
L 193.248 305.061697 
L 196.416 305.222914 
L 199.584 305.572521 
L 202.752 304.90882 
L 205.92 305.207457 
L 209.088 305.679718 
L 212.256 305.493989 
L 215.424 306.00668 
L 218.592 306.291595 
L 221.76 306.322456 
L 224.928 305.996016 
L 228.096 306.535683 
L 231.264 306.552232 
L 234.432 306.355518 
L 237.6 306.363211 
L 240.768 306.483531 
L 243.936 306.171168 
L 247.104 306.315274 
L 253.44 305.970633 
L 256.608 306.493523 
L 259.776 306.69656 
L 262.944 306.162523 
L 269.28 305.474164 
L 272.448 305.796333 
L 275.616 305.836386 
L 278.784 305.599758 
L 285.12 306.170827 
L 294.624 306.316282 
L 297.792 305.988191 
L 300.96 306.152873 
L 304.128 306.699095 
L 310.464 307.02648 
L 313.632 307.352605 
L 316.8 306.961462 
L 319.968 306.866595 
L 323.136 306.893062 
L 326.304 306.262355 
L 329.472 305.814082 
L 332.64 305.21573 
L 335.808 304.868963 
L 338.976 304.98998 
L 342.144 305.885232 
L 348.48 305.815421 
L 351.648 305.51741 
L 354.816 305.771919 
L 367.488 305.81675 
L 370.656 306.222793 
L 376.992 306.207426 
L 380.16 305.791305 
L 383.328 306.434882 
L 386.496 306.795701 
L 389.664 306.881611 
L 402.336 306.206368 
L 405.504 306.267067 
L 408.672 306.08764 
L 411.84 306.028726 
L 418.176 306.265481 
L 421.344 305.981067 
L 424.512 306.420479 
L 434.016 306.546188 
L 437.184 306.424784 
L 440.352 306.941641 
L 443.52 307.150764 
L 453.024 306.570618 
L 456.192 306.650434 
L 459.36 306.197044 
L 465.696 306.641848 
L 468.864 306.676127 
L 472.032 306.378715 
L 475.2 306.793635 
L 478.368 306.926357 
L 484.704 307.031232 
L 487.872 306.318742 
L 491.04 306.69871 
L 497.376 306.384759 
L 500.544 306.1475 
L 506.88 306.086299 
L 510.048 306.752718 
L 513.216 306.168211 
L 516.384 306.086941 
L 519.552 305.686576 
L 529.056 306.386175 
L 532.224 305.902093 
L 535.392 305.828132 
L 541.728 306.12208 
L 544.896 305.886626 
L 548.064 306.182366 
L 551.232 306.350593 
L 554.4 306.347755 
L 557.568 305.939445 
L 560.736 306.024357 
L 563.904 306.523091 
L 567.072 306.747068 
L 570.24 306.652253 
L 573.408 306.233632 
L 576.576 306.220249 
L 579.744 305.817253 
L 582.912 305.941928 
L 586.08 305.611069 
L 595.584 305.898572 
L 598.752 305.344273 
L 601.92 305.043768 
L 605.088 305.166117 
L 608.256 305.000362 
L 611.424 305.068294 
L 614.592 304.745314 
L 620.928 305.21078 
L 624.096 305.693453 
L 630.432 305.579736 
L 633.6 305.379389 
L 636.768 305.29634 
L 639.936 305.572502 
L 643.104 305.289801 
L 646.272 306.164279 
L 649.44 305.734975 
L 655.776 305.541715 
L 662.112 305.20524 
L 665.28 305.306134 
L 671.616 305.263707 
L 677.952 305.332898 
L 681.12 305.581483 
L 684.288 305.317055 
L 690.624 305.299482 
L 693.792 305.371678 
L 696.96 305.843375 
L 700.128 305.689519 
L 703.296 305.711401 
L 706.464 305.963963 
L 709.632 305.63837 
L 712.8 305.451417 
L 715.968 305.412936 
L 722.304 306.118513 
L 728.64 306.095649 
L 731.808 305.772217 
L 734.976 305.894586 
L 741.312 305.854301 
L 744.48 305.986394 
L 747.648 305.847588 
L 750.816 306.001487 
L 757.152 305.476054 
L 760.32 305.729094 
L 763.488 305.524417 
L 766.656 306.292545 
L 779.328 306.510365 
L 782.496 306.636909 
L 785.664 306.990389 
L 788.832 306.945476 
L 788.832 306.945476 
" clip-path="url(#pa899c28db5)" style="fill: none; stroke: #000000; stroke-width: 1.5; stroke-linecap: square"/>
   </g>
   <g id="line2d_6">
    <path d="M 0 306 
L 3.168 306 
L 6.336 301.530653 
L 9.504 302.595466 
L 12.672 302.396991 
L 15.84 302.690838 
L 19.008 303.12986 
L 22.176 304.024086 
L 25.344 303.79643 
L 28.512 304.088241 
L 31.68 304.574625 
L 34.848 304.853742 
L 41.184 304.998707 
L 44.352 305.454422 
L 50.688 306.141631 
L 53.856 305.86893 
L 57.024 305.893894 
L 60.192 306.046668 
L 63.36 306.431977 
L 66.528 306.697153 
L 69.696 306.638685 
L 72.864 306.984451 
L 76.032 305.951978 
L 79.2 306.127161 
L 82.368 306.186328 
L 88.704 305.666596 
L 91.872 305.575068 
L 95.04 305.301057 
L 98.208 305.71714 
L 104.544 305.652463 
L 107.712 305.703598 
L 110.88 305.481025 
L 114.048 305.060346 
L 117.216 305.271691 
L 120.384 305.085098 
L 123.552 305.324019 
L 126.72 305.263099 
L 133.056 305.474308 
L 148.896 305.149807 
L 152.064 305.40571 
L 155.232 305.347519 
L 158.4 305.533412 
L 161.568 305.453692 
L 164.736 305.068598 
L 177.408 305.423786 
L 180.576 305.38438 
L 183.744 305.478619 
L 186.912 305.695906 
L 190.08 305.243726 
L 193.248 305.208825 
L 199.584 305.477296 
L 202.752 305.121375 
L 209.088 305.524151 
L 212.256 305.430946 
L 215.424 305.708475 
L 218.592 305.874051 
L 221.76 305.908934 
L 224.928 305.753578 
L 228.096 306.051015 
L 231.264 306.081175 
L 237.6 306.017906 
L 240.768 306.096489 
L 243.936 305.948621 
L 247.104 306.034939 
L 253.44 305.874349 
L 256.608 306.152285 
L 259.776 306.273487 
L 266.112 305.811064 
L 269.28 305.659226 
L 272.448 305.819228 
L 275.616 305.840111 
L 278.784 305.714353 
L 288.288 306.052934 
L 294.624 306.106739 
L 297.792 305.945022 
L 300.96 306.033174 
L 304.128 306.32045 
L 310.464 306.523708 
L 313.632 306.712664 
L 316.8 306.536849 
L 323.136 306.534763 
L 332.64 305.681246 
L 335.808 305.483392 
L 338.976 305.519175 
L 342.144 305.955977 
L 348.48 305.914067 
L 351.648 305.756416 
L 354.816 305.877546 
L 367.488 305.882475 
L 370.656 306.087765 
L 376.992 306.092658 
L 380.16 305.884585 
L 383.328 306.209622 
L 386.496 306.403918 
L 389.664 306.465103 
L 411.84 306.080073 
L 418.176 306.200143 
L 421.344 306.058569 
L 424.512 306.280013 
L 434.016 306.36712 
L 437.184 306.312042 
L 440.352 306.580745 
L 443.52 306.703313 
L 453.024 306.444481 
L 456.192 306.489712 
L 459.36 306.266491 
L 465.696 306.492337 
L 468.864 306.514535 
L 472.032 306.368154 
L 475.2 306.581136 
L 484.704 306.735137 
L 487.872 306.38412 
L 491.04 306.576258 
L 506.88 306.257222 
L 510.048 306.590858 
L 513.216 306.299583 
L 516.384 306.254047 
L 519.552 306.043271 
L 529.056 306.369656 
L 532.224 306.12253 
L 535.392 306.073921 
L 541.728 306.206668 
L 544.896 306.084946 
L 551.232 306.311694 
L 554.4 306.311844 
L 557.568 306.104484 
L 560.736 306.141112 
L 563.904 306.39033 
L 567.072 306.510797 
L 570.24 306.473801 
L 573.408 306.268156 
L 576.576 306.260097 
L 579.744 306.051759 
L 582.912 306.104727 
L 586.08 305.930298 
L 595.584 306.049557 
L 598.752 305.760003 
L 601.92 305.588599 
L 605.088 305.627051 
L 608.256 305.524381 
L 611.424 305.536138 
L 614.592 305.350409 
L 620.928 305.542997 
L 624.096 305.774387 
L 630.432 305.710672 
L 636.768 305.55001 
L 639.936 305.680474 
L 643.104 305.532512 
L 646.272 305.969205 
L 649.44 305.758471 
L 655.776 305.656349 
L 662.112 305.469824 
L 668.448 305.46398 
L 677.952 305.491323 
L 681.12 305.611938 
L 687.456 305.438834 
L 693.792 305.481967 
L 696.96 305.717883 
L 703.296 305.657612 
L 706.464 305.788478 
L 712.8 305.534404 
L 715.968 305.509645 
L 722.304 305.869295 
L 728.64 305.879333 
L 731.808 305.724921 
L 738.144 305.763573 
L 753.984 305.746965 
L 757.152 305.603279 
L 760.32 305.725959 
L 763.488 305.621746 
L 766.656 306.011063 
L 782.496 306.249608 
L 785.664 306.447608 
L 788.832 306.445764 
L 788.832 306.445764 
" clip-path="url(#pa899c28db5)" style="fill: none; stroke: #000000; stroke-width: 1.5; stroke-linecap: square"/>
   </g>
   <g id="line2d_7">
    <path d="M 0 306 
L 3.168 306 
L 6.336 301.578012 
L 9.504 302.60437 
L 12.672 302.409771 
L 15.84 302.688889 
L 19.008 303.105966 
L 22.176 303.949928 
L 25.344 303.748101 
L 28.512 304.022795 
L 31.68 304.47377 
L 34.848 304.736195 
L 41.184 304.885606 
L 47.52 305.597715 
L 50.688 305.916992 
L 53.856 305.699421 
L 60.192 305.870502 
L 66.528 306.434789 
L 69.696 306.40172 
L 72.864 306.695603 
L 76.032 305.878761 
L 82.368 306.074707 
L 95.04 305.391805 
L 98.208 305.705574 
L 110.88 305.530218 
L 114.048 305.218168 
L 117.216 305.366777 
L 120.384 305.227431 
L 123.552 305.394721 
L 126.72 305.348371 
L 133.056 305.493773 
L 148.896 305.258088 
L 152.064 305.429563 
L 155.232 305.389195 
L 158.4 305.513607 
L 161.568 305.460602 
L 164.736 305.202648 
L 186.912 305.602439 
L 190.08 305.314348 
L 196.416 305.339387 
L 199.584 305.456753 
L 202.752 305.232479 
L 221.76 305.728073 
L 224.928 305.637621 
L 228.096 305.822699 
L 240.768 305.872879 
L 243.936 305.789952 
L 247.104 305.845801 
L 253.44 305.758749 
L 259.776 306.003969 
L 269.28 305.65562 
L 275.616 305.763061 
L 278.784 305.691992 
L 291.456 305.930413 
L 300.96 305.897642 
L 304.128 306.064304 
L 316.8 306.218103 
L 323.136 306.231757 
L 335.808 305.65532 
L 338.976 305.6711 
L 342.144 305.909543 
L 380.16 305.880575 
L 386.496 306.165608 
L 392.832 306.173573 
L 411.84 306.021796 
L 456.192 306.292464 
L 459.36 306.1791 
L 468.864 306.319397 
L 472.032 306.247333 
L 478.368 306.406596 
L 484.704 306.457506 
L 487.872 306.280466 
L 491.04 306.382622 
L 506.88 306.22809 
L 510.048 306.401927 
L 513.216 306.254936 
L 525.888 306.224699 
L 529.056 306.289623 
L 535.392 306.137528 
L 541.728 306.204073 
L 544.896 306.141049 
L 554.4 306.257821 
L 557.568 306.152605 
L 563.904 306.298042 
L 570.24 306.345239 
L 579.744 306.132695 
L 582.912 306.158085 
L 586.08 306.067349 
L 595.584 306.121453 
L 601.92 305.879282 
L 611.424 305.833498 
L 614.592 305.732556 
L 630.432 305.888982 
L 636.768 305.798871 
L 639.936 305.859873 
L 643.104 305.780628 
L 646.272 305.997969 
L 652.608 305.872566 
L 671.616 305.71343 
L 693.792 305.68587 
L 696.96 305.801413 
L 703.296 305.76621 
L 706.464 305.830474 
L 715.968 305.68306 
L 725.472 305.871079 
L 763.488 305.726188 
L 766.656 305.920979 
L 782.496 306.055177 
L 788.832 306.164958 
L 788.832 306.164958 
" clip-path="url(#pa899c28db5)" style="fill: none; stroke: #000000; stroke-width: 1.5; stroke-linecap: square"/>
   </g>
   <g id="line2d_8">
    <path d="M 0 306 
L 3.168 306 
L 6.336 301.601696 
L 9.504 302.609138 
L 12.672 302.416422 
L 15.84 302.688296 
L 19.008 303.094541 
L 22.176 303.913782 
L 25.344 303.723974 
L 28.512 303.990129 
L 31.68 304.423703 
L 34.848 304.677534 
L 41.184 304.827827 
L 47.52 305.502198 
L 50.688 305.804134 
L 53.856 305.611007 
L 60.192 305.777506 
L 66.528 306.300009 
L 69.696 306.277134 
L 72.864 306.546119 
L 76.032 305.82588 
L 82.368 306.004642 
L 95.04 305.414693 
L 98.208 305.684312 
L 110.88 305.537843 
L 114.048 305.274498 
L 117.216 305.397409 
L 120.384 305.279963 
L 123.552 305.417543 
L 129.888 305.443927 
L 136.224 305.462507 
L 142.56 305.357515 
L 161.568 305.463258 
L 164.736 305.25968 
L 186.912 305.565744 
L 190.08 305.346128 
L 196.416 305.363558 
L 199.584 305.451853 
L 202.752 305.282843 
L 221.76 305.653177 
L 224.928 305.588135 
L 228.096 305.724818 
L 240.768 305.768532 
L 247.104 305.75236 
L 253.44 305.693227 
L 259.776 305.870868 
L 269.28 305.63005 
L 275.616 305.706704 
L 281.952 305.715149 
L 291.456 305.827861 
L 304.128 305.924864 
L 323.136 306.055066 
L 335.808 305.677906 
L 338.976 305.687974 
L 342.144 305.844792 
L 383.328 305.949803 
L 389.664 306.047234 
L 421.344 305.944098 
L 430.848 306.059852 
L 440.352 306.137063 
L 446.688 306.159928 
L 459.36 306.070131 
L 468.864 306.16045 
L 472.032 306.119146 
L 481.536 306.230313 
L 484.704 306.254489 
L 487.872 306.151396 
L 494.208 306.200301 
L 506.88 306.131024 
L 510.048 306.234963 
L 519.552 306.075109 
L 532.224 306.10345 
L 548.064 306.136179 
L 557.568 306.104533 
L 582.912 306.116501 
L 589.248 306.07798 
L 595.584 306.096664 
L 601.92 305.959075 
L 611.424 305.930111 
L 617.76 305.894253 
L 633.6 305.920699 
L 643.104 305.889731 
L 646.272 306.009663 
L 655.776 305.915449 
L 674.784 305.839672 
L 772.992 305.941599 
L 788.832 306.058623 
L 788.832 306.058623 
" clip-path="url(#pa899c28db5)" style="fill: none; stroke: #000000; stroke-width: 1.5; stroke-linecap: square"/>
   </g>
   <g id="line2d_9">
    <path d="M 0 306 
L 3.168 306 
L 6.336 301.613539 
L 9.504 302.611601 
L 12.672 302.419812 
L 15.84 302.688096 
L 19.008 303.088963 
L 22.176 303.895954 
L 25.344 303.711938 
L 28.512 303.973832 
L 31.68 304.398792 
L 34.848 304.648277 
L 41.184 304.798695 
L 47.52 305.454417 
L 50.688 305.747716 
L 53.856 305.566046 
L 60.192 305.729959 
L 66.528 306.231977 
L 69.696 306.2136 
L 72.864 306.470451 
L 76.032 305.795622 
L 82.368 305.966211 
L 95.04 305.420193 
L 98.208 305.66946 
L 110.88 305.536746 
L 114.048 305.296106 
L 117.216 305.407518 
L 120.384 305.300412 
L 123.552 305.424653 
L 129.888 305.447904 
L 136.224 305.464644 
L 142.56 305.370294 
L 161.568 305.46297 
L 164.736 305.283895 
L 186.912 305.548915 
L 190.08 305.359576 
L 196.416 305.373965 
L 199.584 305.449509 
L 202.752 305.304902 
L 221.76 305.619893 
L 224.928 305.565646 
L 231.264 305.698339 
L 243.936 305.672915 
L 250.272 305.676759 
L 253.44 305.660381 
L 259.776 305.808085 
L 269.28 305.612673 
L 275.616 305.675881 
L 281.952 305.683388 
L 291.456 305.776179 
L 307.296 305.886856 
L 316.8 305.952502 
L 326.304 305.882603 
L 338.976 305.680583 
L 342.144 305.803102 
L 383.328 305.888934 
L 392.832 305.952462 
L 421.344 305.893812 
L 430.848 305.981848 
L 475.2 306.088944 
L 484.704 306.138842 
L 487.872 306.065811 
L 494.208 306.102722 
L 506.88 306.056411 
L 510.048 306.131005 
L 519.552 306.020049 
L 538.56 306.050053 
L 576.576 306.091635 
L 589.248 306.036203 
L 598.752 305.992367 
L 614.592 305.89757 
L 639.936 305.939573 
L 649.44 305.949095 
L 719.136 305.884942 
L 731.808 305.885266 
L 760.32 305.877137 
L 769.824 305.93015 
L 788.832 306.009443 
L 788.832 306.009443 
" clip-path="url(#pa899c28db5)" style="fill: none; stroke: #000000; stroke-width: 1.5; stroke-linecap: square"/>
   </g>
  </g>
 </g>
 <defs>
  <clipPath id="pa899c28db5">
   <rect x="0" y="0" width="792" height="612"/>
  </clipPath>
 </defs>
</svg>
