<?xml version="1.0" encoding="utf-8" standalone="no"?>
<!DOCTYPE svg PUBLIC "-//W3C//DTD SVG 1.1//EN"
  "http://www.w3.org/Graphics/SVG/1.1/DTD/svg11.dtd">
<svg xmlns:xlink="http://www.w3.org/1999/xlink" width="792pt" height="612pt" viewBox="0 0 792 612" xmlns="http://www.w3.org/2000/svg" version="1.1">
 <metadata>
  <rdf:RDF xmlns:dc="http://purl.org/dc/elements/1.1/" xmlns:cc="http://creativecommons.org/ns#" xmlns:rdf="http://www.w3.org/1999/02/22-rdf-syntax-ns#">
   <cc:Work>
    <dc:type rdf:resource="http://purl.org/dc/dcmitype/StillImage"/>
    <dc:date>2023-01-09T02:29:42.322347</dc:date>
    <dc:format>image/svg+xml</dc:format>
    <dc:creator>
     <cc:Agent>
      <dc:title>Matplotlib v3.6.2, https://matplotlib.org/</dc:title>
     </cc:Agent>
    </dc:creator>
   </cc:Work>
  </rdf:RDF>
 </metadata>
 <defs>
  <style type="text/css">*{stroke-linejoin: round; stroke-linecap: butt}</style>
 </defs>
 <g id="figure_1">
  <g id="patch_1">
   <path d="M 0 612 
L 792 612 
L 792 0 
L 0 0 
z
" style="fill: #ffffff"/>
  </g>
  <g id="axes_1">
   <g id="line2d_1">
    <path d="M 0 306 
L 3.168 309.252752 
L 9.504 307.820881 
L 12.672 307.626422 
L 19.008 306.919288 
L 22.176 308.351216 
L 25.344 306.671788 
L 28.512 309.358811 
L 31.68 297.763732 
L 34.848 304.674108 
L 38.016 302.093227 
L 41.184 303.878594 
L 44.352 305.116069 
L 47.52 308.492637 
L 50.688 302.658865 
L 53.856 306.017679 
L 57.024 307.997661 
L 60.192 307.00768 
L 63.36 305.204462 
L 66.528 306.035357 
L 69.696 309.659309 
L 72.864 309.022953 
L 76.032 309.730013 
L 79.2 302.977047 
L 82.368 306.176787 
L 85.536 307.803203 
L 88.704 311.002616 
L 91.872 309.924448 
L 95.04 305.858571 
L 98.208 311.444454 
L 101.376 292.114113 
L 104.544 308.527991 
L 107.712 307.00768 
L 110.88 302.393719 
L 114.048 301.686692 
L 117.216 304.232153 
L 120.384 301.174125 
L 123.552 312.169018 
L 126.72 304.868571 
L 129.888 305.469641 
L 133.056 306.548038 
L 136.224 301.863445 
L 139.392 298.134727 
L 142.56 308.86386 
L 145.728 301.969498 
L 148.896 309.46487 
L 152.064 304.249831 
L 155.232 307.467318 
L 158.4 307.166786 
L 161.568 304.408935 
L 164.736 303.030078 
L 167.904 304.391256 
L 171.072 306.159108 
L 174.24 302.729572 
L 177.408 310.171906 
L 180.576 304.302866 
L 183.744 309.04063 
L 186.912 303.984661 
L 190.08 297.834396 
L 193.248 306.830895 
L 196.416 305.363569 
L 199.584 310.030502 
L 202.752 305.893928 
L 205.92 304.65643 
L 212.256 309.9598 
L 215.424 296.421294 
L 218.592 304.568039 
L 224.928 309.217398 
L 228.096 298.099393 
L 231.264 308.351216 
L 234.432 310.560758 
L 237.6 303.595751 
L 240.768 311.303068 
L 243.936 309.217398 
L 247.104 306.618752 
L 250.272 302.623512 
L 253.44 312.08066 
L 256.608 306.689467 
L 259.776 304.302866 
L 262.944 306.424288 
L 266.112 307.697134 
L 269.28 302.924016 
L 272.448 307.803203 
L 275.616 303.825561 
L 278.784 304.691787 
L 281.952 311.868597 
L 285.12 308.757797 
L 288.288 300.626239 
L 291.456 301.651341 
L 294.624 302.53513 
L 297.792 309.146691 
L 300.96 306.282859 
L 304.128 303.118463 
L 307.296 308.757797 
L 310.464 309.217398 
L 313.632 306.990002 
L 316.8 307.290535 
L 319.968 306.035357 
L 323.136 302.570483 
L 326.304 307.873915 
L 329.472 312.310388 
L 332.64 308.050694 
L 335.808 309.075984 
L 338.976 310.631456 
L 342.144 302.817955 
L 345.312 305.840892 
L 348.48 307.096072 
L 351.648 299.724954 
L 354.816 301.174125 
L 357.984 299.071148 
L 361.152 301.350869 
L 364.32 306.300537 
L 367.488 315.154815 
L 370.656 305.911607 
L 373.824 305.080712 
L 376.992 302.446748 
L 380.16 308.439604 
L 383.328 305.717141 
L 386.496 305.646427 
L 389.664 306.38893 
L 392.832 305.876249 
L 396 310.419359 
L 399.168 306.724824 
L 402.336 305.575712 
L 405.504 301.492267 
L 408.672 313.070207 
L 411.84 310.490058 
L 418.176 304.939284 
L 421.344 304.568039 
L 424.512 305.398926 
L 427.68 303.843239 
L 430.848 306.848574 
L 434.016 304.232153 
L 437.184 305.434283 
L 440.352 307.078394 
L 443.52 307.750169 
L 446.688 303.047755 
L 449.856 310.949594 
L 453.024 307.202143 
L 456.192 307.608744 
L 459.36 306.035357 
L 462.528 305.133748 
L 465.696 312.239703 
L 468.864 309.252752 
L 472.032 304.603395 
L 475.2 303.383621 
L 478.368 305.982321 
L 481.536 307.431961 
L 484.704 301.509942 
L 487.872 309.04063 
L 491.04 308.581024 
L 494.208 306.972323 
L 497.376 303.25988 
L 500.544 311.055638 
L 503.712 308.24515 
L 506.88 307.00768 
L 510.048 307.926949 
L 513.216 298.929793 
L 516.384 310.596107 
L 519.552 305.22214 
L 525.888 303.666462 
L 529.056 305.434283 
L 532.224 306.123751 
L 535.392 313.61793 
L 538.56 300.113731 
L 541.728 305.257498 
L 544.896 301.545291 
L 548.064 308.333538 
L 551.232 308.315861 
L 554.4 308.987599 
L 557.568 300.873667 
L 560.736 305.045355 
L 563.904 307.803203 
L 567.072 307.34357 
L 570.24 303.489686 
L 573.408 309.235075 
L 576.576 308.068372 
L 579.744 306.282859 
L 582.912 301.722042 
L 586.08 306.901609 
L 589.248 311.656528 
L 592.416 309.022953 
L 595.584 305.628748 
L 598.752 301.898795 
L 601.92 306.070715 
L 605.088 301.651341 
L 608.256 307.219821 
L 611.424 302.234635 
L 614.592 307.025359 
L 617.76 308.333538 
L 620.928 305.257498 
L 624.096 299.636598 
L 627.264 301.987173 
L 630.432 306.477324 
L 633.6 303.348267 
L 636.768 305.823213 
L 639.936 301.474592 
L 643.104 307.591065 
L 646.272 307.555709 
L 649.44 310.702155 
L 652.608 305.487319 
L 655.776 304.65643 
L 658.944 303.348267 
L 662.112 304.479647 
L 665.28 308.457282 
L 668.448 302.429072 
L 671.616 315.225466 
L 674.784 301.297845 
L 677.952 305.151426 
L 681.12 304.108407 
L 684.288 303.525041 
L 687.456 303.631106 
L 690.624 306.406609 
L 693.792 304.497326 
L 696.96 305.664106 
L 700.128 305.593391 
L 703.296 305.840892 
L 706.464 308.192117 
L 709.632 302.623512 
L 712.8 304.691787 
L 715.968 305.752499 
L 719.136 306.176787 
L 722.304 310.737503 
L 725.472 304.108407 
L 728.64 305.946964 
L 731.808 308.581024 
L 734.976 302.287663 
L 738.144 303.578074 
L 741.312 305.027677 
L 744.48 310.012827 
L 747.648 309.217398 
L 750.816 306.335894 
L 753.984 305.664106 
L 757.152 302.446748 
L 760.32 307.149108 
L 763.488 305.204462 
L 766.656 306.088393 
L 769.824 307.361248 
L 772.992 304.408935 
L 776.16 307.608744 
L 779.328 303.277558 
L 782.496 302.570483 
L 785.664 308.351216 
L 788.832 303.436654 
L 788.832 303.436654 
" clip-path="url(#pac18b5c175)" style="fill: none; stroke: #000000; stroke-width: 1.5; stroke-linecap: square"/>
   </g>
   <g id="line2d_2">
    <path d="M 0 306 
L 3.168 306 
L 6.336 308.168547 
L 9.504 308.404249 
L 22.176 307.245017 
L 25.344 307.800291 
L 28.512 307.237361 
L 31.68 308.298322 
L 34.848 303.008935 
L 38.016 303.835336 
L 41.184 302.953408 
L 44.352 303.409271 
L 47.52 304.259121 
L 50.688 306.376174 
L 53.856 304.509596 
L 57.024 305.257082 
L 60.192 306.647454 
L 63.36 306.832143 
L 66.528 306.024403 
L 69.696 306.034109 
L 72.864 307.855682 
L 79.2 309.099068 
L 82.368 306.032099 
L 85.536 306.100872 
L 88.704 306.953605 
L 91.872 308.98961 
L 95.04 309.464662 
L 98.208 307.654222 
L 101.376 309.554222 
L 104.544 300.795418 
L 107.712 304.672375 
L 110.88 305.841655 
L 114.048 304.107021 
L 117.216 302.878541 
L 120.384 303.544174 
L 123.552 302.34991 
L 126.72 307.26121 
L 129.888 306.089919 
L 133.056 305.773782 
L 136.224 306.160009 
L 139.392 304.010589 
L 142.56 301.065238 
L 145.728 304.973463 
L 148.896 303.472979 
L 152.064 306.463666 
L 155.232 305.355527 
L 158.4 306.415344 
L 161.568 306.79228 
L 167.904 304.327407 
L 171.072 304.350562 
L 174.24 305.263044 
L 177.408 303.983067 
L 180.576 307.089209 
L 183.744 305.689826 
L 186.912 307.368943 
L 190.08 305.675961 
L 193.248 301.744292 
L 196.416 304.292259 
L 199.584 304.82635 
L 202.752 307.442846 
L 205.92 306.660002 
L 209.088 305.658906 
L 212.256 306.497914 
L 215.424 308.240644 
L 218.592 302.326827 
L 221.76 303.442962 
L 224.928 305.193023 
L 228.096 307.203668 
L 231.264 302.635504 
L 234.432 305.500561 
L 237.6 308.037107 
L 240.768 305.80394 
L 243.936 308.582895 
L 247.104 308.909266 
L 250.272 307.76341 
L 253.44 305.180475 
L 256.608 308.658319 
L 259.776 307.670652 
L 262.944 305.974487 
L 266.112 306.204934 
L 269.28 306.943968 
L 272.448 304.921606 
L 275.616 306.364735 
L 278.784 305.097489 
L 281.952 304.880148 
L 285.12 308.384838 
L 288.288 308.580053 
L 291.456 304.59154 
L 294.624 303.10952 
L 297.792 302.82156 
L 300.96 305.986758 
L 304.128 306.139627 
L 307.296 304.625926 
L 310.464 306.685792 
L 313.632 307.95253 
L 316.8 307.483748 
L 319.968 307.398199 
L 323.136 306.723645 
L 326.304 304.634107 
L 329.472 306.257138 
L 332.64 309.302108 
L 335.808 308.675026 
L 338.976 308.875229 
L 342.144 309.760513 
L 345.312 306.280501 
L 348.48 306.060315 
L 351.648 306.58707 
L 354.816 303.139675 
L 357.984 302.135026 
L 361.152 300.585348 
L 364.32 300.952956 
L 367.488 303.618073 
L 370.656 309.411841 
L 373.824 307.661917 
L 376.992 306.367369 
L 380.16 304.412332 
L 383.328 306.440233 
L 386.496 306.091721 
L 389.664 305.877497 
L 392.832 306.133387 
L 396 305.98662 
L 399.168 308.211944 
L 402.336 307.471616 
L 405.504 306.529805 
L 408.672 303.997279 
L 411.84 308.548719 
L 415.008 309.528921 
L 418.176 308.633363 
L 421.344 306.784515 
L 424.512 305.664799 
L 427.68 305.529263 
L 430.848 304.682844 
L 434.016 305.776209 
L 437.184 304.986843 
L 440.352 305.200649 
L 443.52 306.13824 
L 446.688 306.949723 
L 449.856 304.995717 
L 453.024 307.983726 
L 456.192 307.599523 
L 459.36 307.605624 
L 465.696 305.9783 
L 468.864 309.119448 
L 472.032 309.189046 
L 475.2 306.899321 
L 478.368 305.126607 
L 481.536 305.552071 
L 484.704 306.491674 
L 487.872 303.991802 
L 491.04 306.523912 
L 494.208 307.54531 
L 497.376 307.254346 
L 500.544 305.254447 
L 503.712 308.17028 
L 506.88 308.212152 
L 510.048 307.60909 
L 513.216 307.780603 
L 516.384 303.334818 
L 519.552 306.96955 
L 529.056 304.449629 
L 535.392 305.528361 
L 538.56 309.58493 
L 541.728 304.851378 
L 544.896 305.043969 
L 548.064 303.287332 
L 551.232 305.818083 
L 554.4 307.076106 
L 557.568 308.03884 
L 560.736 304.445747 
L 563.904 304.728738 
L 567.072 306.281056 
L 570.24 306.816406 
L 573.408 305.156834 
L 576.576 307.197775 
L 579.744 307.632592 
L 582.912 306.952426 
L 586.08 304.338777 
L 589.248 305.623826 
L 592.416 308.64799 
L 595.584 308.838765 
L 598.752 307.237985 
L 601.92 304.553896 
L 605.088 305.308384 
L 608.256 303.470691 
L 611.424 305.356012 
L 614.592 303.786115 
L 617.76 305.396638 
L 620.928 306.863756 
L 624.096 306.059899 
L 627.264 302.843465 
L 630.432 302.407306 
L 633.6 304.451709 
L 636.768 303.89239 
L 639.936 304.864827 
L 643.104 303.158739 
L 646.272 305.373414 
L 649.44 306.469074 
L 652.608 308.607436 
L 655.776 307.054268 
L 662.112 304.599998 
L 665.28 304.537188 
L 668.448 306.510948 
L 671.616 304.45982 
L 674.784 309.858875 
L 677.952 305.559836 
L 681.12 305.354972 
L 687.456 304.128165 
L 690.624 303.87797 
L 693.792 305.138254 
L 696.96 304.821844 
L 700.128 305.22422 
L 706.464 305.630412 
L 709.632 306.919288 
L 712.8 304.769572 
L 715.968 304.732759 
L 722.304 305.712358 
L 725.472 308.235029 
L 728.64 306.168814 
L 731.808 306.058097 
L 734.976 307.320345 
L 738.144 304.803265 
L 741.312 304.188478 
L 744.48 304.606654 
L 747.648 307.317364 
L 750.816 308.264422 
L 753.984 307.304539 
L 757.152 306.483771 
L 760.32 304.453165 
L 763.488 305.810665 
L 766.656 305.510752 
L 769.824 305.801652 
L 772.992 306.576254 
L 776.16 305.48316 
L 779.328 306.548454 
L 782.496 304.908295 
L 785.664 303.739599 
L 788.832 306.047767 
L 788.832 306.047767 
" clip-path="url(#pac18b5c175)" style="fill: none; stroke: #000000; stroke-width: 1.5; stroke-linecap: square"/>
   </g>
   <g id="line2d_3">
    <path d="M 0 306 
L 3.168 306 
L 6.336 307.905465 
L 9.504 308.211551 
L 19.008 307.705293 
L 22.176 307.452758 
L 25.344 307.733457 
L 28.512 307.408127 
L 31.68 307.997919 
L 34.848 304.93209 
L 38.016 304.855329 
L 41.184 304.037251 
L 44.352 303.990415 
L 47.52 304.321939 
L 50.688 305.548303 
L 53.856 304.698137 
L 57.024 305.080903 
L 60.192 305.934538 
L 63.36 306.247921 
L 66.528 305.939517 
L 69.696 305.966126 
L 72.864 307.051028 
L 79.2 308.248179 
L 82.368 306.696968 
L 85.536 306.554276 
L 88.704 306.923676 
L 91.872 308.128702 
L 95.04 308.661629 
L 98.208 307.84151 
L 101.376 308.900276 
L 104.544 303.968896 
L 107.712 305.307105 
L 110.88 305.804055 
L 117.216 303.883931 
L 120.384 303.983851 
L 123.552 303.151099 
L 126.72 305.796187 
L 129.888 305.51891 
L 133.056 305.507342 
L 136.224 305.812581 
L 139.392 304.649018 
L 142.56 302.725855 
L 145.728 304.522364 
L 148.896 303.770143 
L 152.064 305.435832 
L 155.232 305.102407 
L 158.4 305.793856 
L 161.568 306.196163 
L 164.736 305.675006 
L 167.904 304.901845 
L 171.072 304.752479 
L 174.24 305.170195 
L 177.408 304.444485 
L 180.576 306.128166 
L 183.744 305.592203 
L 186.912 306.605115 
L 190.08 305.840031 
L 193.248 303.494378 
L 196.416 304.46926 
L 199.584 304.735093 
L 202.752 306.286796 
L 205.92 306.173616 
L 209.088 305.726011 
L 212.256 306.199989 
L 215.424 307.307645 
L 218.592 304.110625 
L 221.76 304.244801 
L 224.928 305.034202 
L 228.096 306.266916 
L 231.264 303.860356 
L 234.432 305.180339 
L 237.6 306.75807 
L 240.768 305.831388 
L 243.936 307.449624 
L 247.104 307.970149 
L 250.272 307.575782 
L 253.44 306.116757 
L 256.608 307.870862 
L 259.776 307.527179 
L 262.944 306.57931 
L 266.112 306.529844 
L 269.28 306.884693 
L 272.448 305.722721 
L 275.616 306.333081 
L 278.784 305.592442 
L 281.952 305.336219 
L 285.12 307.253752 
L 288.288 307.692215 
L 291.456 305.619077 
L 294.624 304.445795 
L 297.792 303.87848 
L 300.96 305.424416 
L 304.128 305.680051 
L 307.296 304.919464 
L 310.464 306.04608 
L 313.632 306.980614 
L 319.968 307.073325 
L 323.136 306.772886 
L 326.304 305.53598 
L 329.472 306.225402 
L 332.64 308.016638 
L 335.808 308.022227 
L 338.976 308.331237 
L 342.144 309.016486 
L 345.312 307.202348 
L 348.48 306.807386 
L 351.648 306.889585 
L 354.816 304.78333 
L 357.984 303.723905 
L 361.152 302.349813 
L 364.32 302.048186 
L 367.488 303.292794 
L 370.656 306.776884 
L 373.824 306.523309 
L 376.992 306.103665 
L 380.16 305.026302 
L 383.328 306.021601 
L 389.664 305.842825 
L 392.832 305.997902 
L 396 305.965784 
L 399.168 307.275547 
L 402.336 307.113818 
L 405.504 306.670041 
L 408.672 305.153779 
L 411.84 307.488885 
L 415.008 308.378461 
L 418.176 308.190907 
L 421.344 307.226811 
L 424.512 306.446533 
L 427.68 306.140061 
L 430.848 305.468932 
L 434.016 305.871192 
L 437.184 305.389418 
L 440.352 305.402315 
L 446.688 306.439831 
L 449.856 305.437821 
L 453.024 307.057157 
L 456.192 307.101491 
L 459.36 307.257088 
L 462.528 306.891172 
L 465.696 306.370283 
L 468.864 308.094795 
L 472.032 308.438915 
L 478.368 306.16161 
L 481.536 306.111555 
L 484.704 306.498966 
L 487.872 305.034496 
L 491.04 306.212035 
L 494.208 306.907637 
L 497.376 306.92569 
L 500.544 305.852223 
L 503.712 307.376515 
L 506.88 307.632134 
L 510.048 307.448546 
L 513.216 307.590841 
L 516.384 305.046596 
L 519.552 306.67022 
L 525.888 305.709695 
L 529.056 305.11156 
L 532.224 305.205454 
L 535.392 305.472913 
L 538.56 307.87288 
L 541.728 305.589828 
L 544.896 305.488673 
L 548.064 304.327373 
L 551.232 305.506582 
L 557.568 307.106628 
L 560.736 305.273854 
L 563.904 305.203619 
L 567.072 305.975217 
L 570.24 306.372265 
L 573.408 305.525971 
L 576.576 306.6179 
L 579.744 307.047795 
L 582.912 306.824726 
L 586.08 305.325049 
L 589.248 305.779097 
L 592.416 307.513993 
L 595.584 307.960293 
L 598.752 307.282101 
L 601.92 305.69791 
L 605.088 305.804523 
L 608.256 304.579582 
L 611.424 305.360175 
L 614.592 304.441454 
L 617.76 305.197362 
L 620.928 306.117076 
L 624.096 305.867342 
L 627.264 304.031132 
L 630.432 303.425459 
L 633.6 304.319527 
L 636.768 304.036915 
L 639.936 304.558863 
L 643.104 303.643747 
L 646.272 304.798222 
L 649.44 305.608085 
L 652.608 307.110319 
L 658.944 306.058435 
L 662.112 305.26018 
L 665.28 305.034145 
L 668.448 306.038416 
L 671.616 304.974438 
L 674.784 307.989135 
L 677.952 306.031122 
L 681.12 305.777099 
L 687.456 304.770154 
L 690.624 304.434012 
L 693.792 305.017431 
L 696.96 304.861542 
L 703.296 305.234706 
L 706.464 305.412659 
L 709.632 306.230815 
L 712.8 305.17339 
L 715.968 305.032575 
L 722.304 305.518915 
L 725.472 307.042353 
L 728.64 306.186244 
L 731.808 306.117075 
L 734.976 306.843902 
L 738.144 305.507937 
L 741.312 304.942622 
L 744.48 304.96595 
L 747.648 306.450545 
L 750.816 307.265047 
L 753.984 306.993759 
L 757.152 306.604111 
L 760.32 305.379803 
L 763.488 305.90322 
L 766.656 305.699147 
L 769.824 305.81354 
L 772.992 306.268216 
L 776.16 305.716372 
L 779.328 306.274659 
L 785.664 304.559893 
L 788.832 305.677317 
L 788.832 305.677317 
" clip-path="url(#pac18b5c175)" style="fill: none; stroke: #000000; stroke-width: 1.5; stroke-linecap: square"/>
   </g>
   <g id="line2d_4">
    <path d="M 0 306 
L 3.168 306 
L 6.336 307.766986 
L 9.504 308.08647 
L 19.008 307.753493 
L 22.176 307.564616 
L 25.344 307.731486 
L 28.512 307.518008 
L 31.68 307.873791 
L 34.848 305.984029 
L 38.016 305.745841 
L 41.184 305.096402 
L 44.352 304.883855 
L 47.52 304.923768 
L 50.688 305.529448 
L 53.856 305.047374 
L 57.024 305.20889 
L 60.192 305.669722 
L 63.36 305.889464 
L 66.528 305.777536 
L 69.696 305.819483 
L 72.864 306.442008 
L 79.2 307.322043 
L 82.368 306.623005 
L 85.536 306.551345 
L 88.704 306.75209 
L 91.872 307.432899 
L 95.04 307.831537 
L 98.208 307.516172 
L 101.376 308.143693 
L 104.544 305.583171 
L 107.712 306.051259 
L 110.88 306.202448 
L 117.216 304.967789 
L 120.384 304.848827 
L 123.552 304.260534 
L 126.72 305.521302 
L 133.056 305.422381 
L 136.224 305.606959 
L 139.392 305.009562 
L 142.56 303.913034 
L 145.728 304.703832 
L 148.896 304.266801 
L 152.064 305.09445 
L 155.232 304.96106 
L 158.4 305.360718 
L 161.568 305.647552 
L 164.736 305.44886 
L 167.904 305.062654 
L 171.072 304.954806 
L 174.24 305.144229 
L 177.408 304.756107 
L 180.576 305.618091 
L 183.744 305.409659 
L 186.912 305.989162 
L 190.08 305.667852 
L 193.248 304.413009 
L 196.416 304.795768 
L 199.584 304.885797 
L 202.752 305.703489 
L 205.92 305.742392 
L 209.088 305.567195 
L 212.256 305.850033 
L 215.424 306.508668 
L 218.592 304.89995 
L 221.76 304.847351 
L 224.928 305.18341 
L 228.096 305.823407 
L 231.264 304.589995 
L 234.432 305.190218 
L 237.6 306.047246 
L 240.768 305.658277 
L 243.936 306.564685 
L 247.104 306.986978 
L 250.272 306.931293 
L 253.44 306.241622 
L 256.608 307.175642 
L 259.776 307.097804 
L 262.944 306.651333 
L 266.112 306.616467 
L 269.28 306.791319 
L 272.448 306.175086 
L 275.616 306.435154 
L 278.784 306.020637 
L 281.952 305.805791 
L 285.12 306.775239 
L 288.288 307.090504 
L 291.456 306.059836 
L 294.624 305.360766 
L 297.792 304.908497 
L 300.96 305.585183 
L 304.128 305.693847 
L 307.296 305.28235 
L 313.632 306.376758 
L 319.968 306.609415 
L 323.136 306.518996 
L 326.304 305.888027 
L 329.472 306.203154 
L 332.64 307.183842 
L 335.808 307.321575 
L 338.976 307.59979 
L 342.144 308.086565 
L 345.312 307.243018 
L 348.48 307.01783 
L 351.648 307.030577 
L 354.816 305.86628 
L 357.984 305.112875 
L 361.152 304.146692 
L 364.32 303.699992 
L 367.488 304.113658 
L 370.656 305.875416 
L 373.824 305.883038 
L 376.992 305.753686 
L 380.16 305.226656 
L 383.328 305.740193 
L 392.832 305.82752 
L 396 305.837909 
L 399.168 306.571802 
L 402.336 306.594637 
L 405.504 306.432082 
L 408.672 305.645073 
L 411.84 306.829328 
L 415.008 307.412601 
L 418.176 307.46396 
L 424.512 306.663288 
L 427.68 306.463889 
L 430.848 306.044414 
L 434.016 306.168951 
L 437.184 305.858414 
L 440.352 305.788661 
L 446.688 306.274513 
L 449.856 305.759367 
L 453.024 306.587623 
L 459.36 306.840244 
L 462.528 306.71653 
L 465.696 306.467064 
L 468.864 307.389347 
L 472.032 307.682147 
L 475.2 307.191497 
L 478.368 306.584586 
L 481.536 306.49097 
L 484.704 306.640057 
L 487.872 305.821162 
L 491.04 306.335524 
L 494.208 306.694168 
L 497.376 306.739107 
L 500.544 306.181072 
L 503.712 306.959405 
L 506.88 307.165641 
L 510.048 307.14395 
L 513.216 307.26532 
L 516.384 305.931699 
L 519.552 306.675664 
L 525.888 306.123424 
L 529.056 305.731425 
L 532.224 305.685141 
L 535.392 305.754473 
L 538.56 307.011681 
L 541.728 305.91076 
L 544.896 305.805687 
L 548.064 305.123924 
L 554.4 306.062327 
L 557.568 306.528877 
L 560.736 305.624834 
L 563.904 305.532019 
L 567.072 305.895041 
L 570.24 306.122453 
L 573.408 305.699966 
L 576.576 306.265323 
L 579.744 306.555122 
L 582.912 306.511992 
L 586.08 305.746287 
L 589.248 305.933467 
L 592.416 306.84576 
L 595.584 307.192446 
L 598.752 306.94282 
L 601.92 306.139412 
L 605.088 306.125371 
L 608.256 305.409377 
L 611.424 305.697558 
L 614.592 305.143015 
L 617.76 305.447554 
L 620.928 305.905319 
L 624.096 305.80227 
L 627.264 304.81816 
L 630.432 304.366666 
L 633.6 304.703125 
L 636.768 304.485826 
L 639.936 304.693742 
L 643.104 304.182375 
L 649.44 305.180098 
L 652.608 306.060212 
L 655.776 305.967298 
L 658.944 305.75603 
L 662.112 305.374481 
L 665.28 305.231756 
L 668.448 305.745364 
L 671.616 305.214639 
L 674.784 306.815163 
L 677.952 305.932328 
L 681.12 305.806264 
L 690.624 304.961903 
L 693.792 305.188483 
L 696.96 305.075693 
L 706.464 305.33471 
L 709.632 305.79342 
L 712.8 305.286188 
L 715.968 305.193149 
L 722.304 305.42247 
L 725.472 306.27159 
L 728.64 305.930207 
L 731.808 305.935344 
L 734.976 306.357603 
L 738.144 305.709371 
L 741.312 305.368865 
L 744.48 305.316798 
L 747.648 306.0655 
L 750.816 306.568033 
L 757.152 306.390977 
L 760.32 305.762032 
L 763.488 305.985093 
L 766.656 305.861344 
L 769.824 305.89599 
L 772.992 306.132197 
L 776.16 305.851267 
L 779.328 306.134828 
L 785.664 305.183481 
L 788.832 305.690496 
L 788.832 305.690496 
" clip-path="url(#pac18b5c175)" style="fill: none; stroke: #000000; stroke-width: 1.5; stroke-linecap: square"/>
   </g>
   <g id="line2d_5">
    <path d="M 0 306 
L 3.168 306 
L 6.336 307.696836 
L 9.504 308.017442 
L 19.008 307.764997 
L 22.176 307.610647 
L 25.344 307.733577 
L 28.512 307.570838 
L 31.68 307.826898 
L 34.848 306.467374 
L 38.016 306.237139 
L 41.184 305.728186 
L 44.352 305.509727 
L 47.52 305.464809 
L 50.688 305.799878 
L 53.856 305.461633 
L 57.024 305.520066 
L 60.192 305.774807 
L 63.36 305.899103 
L 69.696 305.850288 
L 76.032 306.482556 
L 79.2 306.786992 
L 82.368 306.433633 
L 85.536 306.410042 
L 88.704 306.536881 
L 91.872 306.940248 
L 95.04 307.207827 
L 98.208 307.087654 
L 101.376 307.473401 
L 104.544 306.120311 
L 107.712 306.331228 
L 110.88 306.390214 
L 117.216 305.666303 
L 120.384 305.542679 
L 123.552 305.167282 
L 126.72 305.767214 
L 133.056 305.67161 
L 136.224 305.746146 
L 139.392 305.416595 
L 142.56 304.799589 
L 145.728 305.143297 
L 148.896 304.875302 
L 152.064 305.262273 
L 155.232 305.177022 
L 161.568 305.520613 
L 177.408 305.030265 
L 180.576 305.460099 
L 183.744 305.363417 
L 186.912 305.670468 
L 190.08 305.529774 
L 193.248 304.88768 
L 196.416 305.04971 
L 199.584 305.07587 
L 202.752 305.488715 
L 212.256 305.605793 
L 215.424 305.967873 
L 218.592 305.17164 
L 221.76 305.120651 
L 224.928 305.271403 
L 228.096 305.599195 
L 231.264 304.973809 
L 234.432 305.253794 
L 237.6 305.698443 
L 240.768 305.523574 
L 243.936 306.00629 
L 247.104 306.274546 
L 250.272 306.303603 
L 253.44 305.996249 
L 256.608 306.504363 
L 259.776 306.519945 
L 262.944 306.334732 
L 269.28 306.455261 
L 272.448 306.161161 
L 275.616 306.296841 
L 281.952 305.97235 
L 285.12 306.464668 
L 288.288 306.655834 
L 291.456 306.153021 
L 297.792 305.504908 
L 300.96 305.808241 
L 304.128 305.845952 
L 307.296 305.623159 
L 313.632 306.160839 
L 323.136 306.29779 
L 326.304 305.988881 
L 329.472 306.143935 
L 332.64 306.658221 
L 338.976 306.966465 
L 342.144 307.273524 
L 345.312 306.905249 
L 348.48 306.815928 
L 351.648 306.840848 
L 354.816 306.247016 
L 357.984 305.824952 
L 361.152 305.261584 
L 364.32 304.93509 
L 367.488 305.049032 
L 370.656 305.891942 
L 376.992 305.826212 
L 380.16 305.545626 
L 383.328 305.785254 
L 396 305.827464 
L 399.168 306.209767 
L 405.504 306.195299 
L 408.672 305.803506 
L 411.84 306.409456 
L 415.008 306.749179 
L 418.176 306.830066 
L 430.848 306.194302 
L 434.016 306.251452 
L 437.184 306.082516 
L 440.352 306.027047 
L 446.688 306.249959 
L 449.856 305.982174 
L 453.024 306.395895 
L 462.528 306.514254 
L 465.696 306.399948 
L 468.864 306.886587 
L 472.032 307.083483 
L 481.536 306.537256 
L 484.704 306.612405 
L 487.872 306.185523 
L 494.208 306.604321 
L 497.376 306.636596 
L 500.544 306.356573 
L 503.712 306.747234 
L 506.88 306.872196 
L 513.216 306.970939 
L 516.384 306.300106 
L 519.552 306.657859 
L 525.888 306.362264 
L 529.056 306.138876 
L 535.392 306.081254 
L 538.56 306.708709 
L 541.728 306.158376 
L 544.896 306.081858 
L 548.064 305.704901 
L 557.568 306.363596 
L 560.736 305.907817 
L 563.904 305.838181 
L 570.24 306.114943 
L 573.408 305.893255 
L 576.576 306.171704 
L 579.744 306.330095 
L 582.912 306.327423 
L 586.08 305.942985 
L 589.248 306.022933 
L 592.416 306.492508 
L 595.584 306.703389 
L 598.752 306.614118 
L 601.92 306.219973 
L 605.088 306.207372 
L 608.256 305.827938 
L 611.424 305.945324 
L 614.592 305.633809 
L 624.096 305.904502 
L 627.264 305.382611 
L 630.432 305.099675 
L 633.6 305.214871 
L 636.768 305.058807 
L 639.936 305.122767 
L 643.104 304.818671 
L 649.44 305.256923 
L 652.608 305.711376 
L 658.944 305.604308 
L 665.28 305.33748 
L 668.448 305.597497 
L 671.616 305.331324 
L 674.784 306.154674 
L 677.952 305.75047 
L 684.288 305.56851 
L 690.624 305.251707 
L 693.792 305.346701 
L 700.128 305.306756 
L 706.464 305.371901 
L 709.632 305.605953 
L 712.8 305.356984 
L 719.136 305.340439 
L 722.304 305.408414 
L 725.472 305.852533 
L 728.64 305.707672 
L 731.808 305.728274 
L 734.976 305.96607 
L 738.144 305.659514 
L 741.312 305.48349 
L 744.48 305.447259 
L 750.816 306.111583 
L 757.152 306.090057 
L 760.32 305.785535 
L 763.488 305.900749 
L 769.824 305.862819 
L 772.992 305.987189 
L 776.16 305.856499 
L 779.328 306.0014 
L 785.664 305.506687 
L 788.832 305.744933 
L 788.832 305.744933 
" clip-path="url(#pac18b5c175)" style="fill: none; stroke: #000000; stroke-width: 1.5; stroke-linecap: square"/>
   </g>
   <g id="line2d_6">
    <path d="M 0 306 
L 3.168 306 
L 6.336 307.661645 
L 9.504 307.981477 
L 19.008 307.76652 
L 22.176 307.629206 
L 25.344 307.733719 
L 28.512 307.594278 
L 31.68 307.807069 
L 34.848 306.68358 
L 38.016 306.473428 
L 41.184 306.04214 
L 44.352 305.840426 
L 47.52 305.77616 
L 50.688 306.006504 
L 53.856 305.73418 
L 57.024 305.756377 
L 63.36 306.004926 
L 69.696 305.954135 
L 79.2 306.602337 
L 82.368 306.374893 
L 88.704 306.449625 
L 95.04 306.906329 
L 98.208 306.846214 
L 101.376 307.106177 
L 104.544 306.269974 
L 110.88 306.42751 
L 123.552 305.634791 
L 126.72 305.971352 
L 133.056 305.892532 
L 136.224 305.92543 
L 139.392 305.723133 
L 142.56 305.347927 
L 145.728 305.520521 
L 148.896 305.347356 
L 152.064 305.54687 
L 155.232 305.484401 
L 161.568 305.654955 
L 177.408 305.331525 
L 180.576 305.555728 
L 183.744 305.497925 
L 186.912 305.660767 
L 190.08 305.583999 
L 193.248 305.230177 
L 215.424 305.77561 
L 218.592 305.357862 
L 224.928 305.394432 
L 228.096 305.564012 
L 231.264 305.233475 
L 237.6 305.600157 
L 240.768 305.511895 
L 247.104 305.917979 
L 250.272 305.948691 
L 253.44 305.803161 
L 256.608 306.077551 
L 262.944 306.025731 
L 275.616 306.05567 
L 281.952 305.904096 
L 285.12 306.162232 
L 288.288 306.274456 
L 294.624 305.841398 
L 297.792 305.698787 
L 300.96 305.847396 
L 304.128 305.866151 
L 307.296 305.747885 
L 316.8 306.062568 
L 323.136 306.111863 
L 326.304 305.959962 
L 329.472 306.042014 
L 332.64 306.310653 
L 338.976 306.500384 
L 342.144 306.677185 
L 345.312 306.512093 
L 351.648 306.509582 
L 361.152 305.707986 
L 364.32 305.521967 
L 367.488 305.555194 
L 370.656 305.96488 
L 376.992 305.925001 
L 380.16 305.776708 
L 383.328 305.890209 
L 396 305.89396 
L 399.168 306.086656 
L 405.504 306.09092 
L 408.672 305.895189 
L 411.84 306.200074 
L 415.008 306.382286 
L 418.176 306.439517 
L 440.352 306.075391 
L 446.688 306.188442 
L 449.856 306.055145 
L 453.024 306.263642 
L 462.528 306.345655 
L 465.696 306.293798 
L 468.864 306.546791 
L 472.032 306.662193 
L 481.536 306.418494 
L 484.704 306.46108 
L 487.872 306.25091 
L 494.208 306.463552 
L 497.376 306.484452 
L 500.544 306.34663 
L 503.712 306.547159 
L 513.216 306.692156 
L 516.384 306.361662 
L 519.552 306.542567 
L 535.392 306.242184 
L 538.56 306.556312 
L 541.728 306.282068 
L 544.896 306.239194 
L 548.064 306.040742 
L 557.568 306.348044 
L 560.736 306.115366 
L 563.904 306.069599 
L 570.24 306.194584 
L 573.408 306.07998 
L 579.744 306.29347 
L 582.912 306.293611 
L 586.08 306.098375 
L 589.248 306.132862 
L 592.416 306.367509 
L 595.584 306.480933 
L 598.752 306.446099 
L 601.92 306.252478 
L 605.088 306.24489 
L 608.256 306.048733 
L 611.424 306.098604 
L 614.592 305.934373 
L 624.096 306.04666 
L 630.432 305.612652 
L 633.6 305.648856 
L 643.104 305.388389 
L 649.44 305.569717 
L 652.608 305.787577 
L 658.944 305.727588 
L 665.28 305.57632 
L 668.448 305.699156 
L 671.616 305.559844 
L 674.784 305.971005 
L 677.952 305.772592 
L 687.456 305.585033 
L 690.624 305.500821 
L 696.96 305.49532 
L 722.304 305.512255 
L 725.472 305.734377 
L 731.808 305.677631 
L 734.976 305.800845 
L 741.312 305.561626 
L 744.48 305.538315 
L 750.816 305.876937 
L 757.152 305.886388 
L 760.32 305.741004 
L 766.656 305.777396 
L 782.496 305.761759 
L 785.664 305.626474 
L 788.832 305.741982 
L 788.832 305.741982 
" clip-path="url(#pac18b5c175)" style="fill: none; stroke: #000000; stroke-width: 1.5; stroke-linecap: square"/>
   </g>
   <g id="line2d_7">
    <path d="M 0 306 
L 3.168 306 
L 6.336 307.644036 
L 9.504 307.963159 
L 19.008 307.766115 
L 22.176 307.63714 
L 25.344 307.733313 
L 28.512 307.604893 
L 31.68 307.797875 
L 34.848 306.783534 
L 38.016 306.586061 
L 41.184 306.193764 
L 44.352 306.004114 
L 47.52 305.935518 
L 50.688 306.1226 
L 53.856 305.88165 
L 57.024 305.890678 
L 63.36 306.084422 
L 69.696 306.032972 
L 79.2 306.550352 
L 82.368 306.372532 
L 88.704 306.430921 
L 95.04 306.78821 
L 98.208 306.747478 
L 101.376 306.948794 
L 104.544 306.32598 
L 110.88 306.440348 
L 123.552 305.847789 
L 126.72 306.081537 
L 139.392 305.890275 
L 142.56 305.62334 
L 145.728 305.733423 
L 148.896 305.607139 
L 152.064 305.735017 
L 158.4 305.744053 
L 164.736 305.745864 
L 171.072 305.621179 
L 190.08 305.696092 
L 193.248 305.46628 
L 215.424 305.778985 
L 218.592 305.520389 
L 224.928 305.533615 
L 228.096 305.633565 
L 231.264 305.430263 
L 250.272 305.851993 
L 253.44 305.767954 
L 256.608 305.931537 
L 269.28 305.967152 
L 272.448 305.889959 
L 278.784 305.885122 
L 281.952 305.855198 
L 288.288 306.073982 
L 297.792 305.751516 
L 304.128 305.845893 
L 307.296 305.779303 
L 319.968 305.9912 
L 329.472 305.957138 
L 335.808 306.155171 
L 342.144 306.32911 
L 348.48 306.236471 
L 351.648 306.256719 
L 364.32 305.721049 
L 367.488 305.734562 
L 370.656 305.953872 
L 408.672 305.917461 
L 415.008 306.180889 
L 421.344 306.187172 
L 440.352 306.042818 
L 484.704 306.289538 
L 487.872 306.183334 
L 497.376 306.313491 
L 500.544 306.24585 
L 506.88 306.394192 
L 513.216 306.441311 
L 516.384 306.275471 
L 519.552 306.370792 
L 535.392 306.225011 
L 538.56 306.38755 
L 541.728 306.249705 
L 554.4 306.220556 
L 557.568 306.281189 
L 563.904 306.138285 
L 582.912 306.249991 
L 586.08 306.151163 
L 592.416 306.287251 
L 598.752 306.331241 
L 608.256 306.131412 
L 614.592 306.069809 
L 624.096 306.120186 
L 630.432 305.892591 
L 639.936 305.849204 
L 643.104 305.754289 
L 658.944 305.900582 
L 665.28 305.815716 
L 668.448 305.872912 
L 671.616 305.798359 
L 674.784 306.002446 
L 681.12 305.884432 
L 700.128 305.734329 
L 731.808 305.783138 
L 734.976 305.843489 
L 744.48 305.704682 
L 753.984 305.881291 
L 788.832 305.795153 
L 788.832 305.795153 
" clip-path="url(#pac18b5c175)" style="fill: none; stroke: #000000; stroke-width: 1.5; stroke-linecap: square"/>
   </g>
   <g id="line2d_8">
    <path d="M 0 306 
L 3.168 306 
L 6.336 307.635229 
L 9.504 307.953919 
L 19.008 307.765611 
L 22.176 307.640745 
L 25.344 307.732958 
L 28.512 307.60988 
L 31.68 307.793426 
L 34.848 306.831289 
L 38.016 306.640624 
L 41.184 306.267628 
L 44.352 306.084709 
L 47.52 306.015123 
L 50.688 306.182865 
L 53.856 305.957118 
L 57.024 305.960801 
L 63.36 306.130152 
L 69.696 306.078809 
L 79.2 306.53602 
L 82.368 306.379804 
L 88.704 306.430149 
L 95.04 306.741498 
L 98.208 306.70815 
L 101.376 306.882361 
L 104.544 306.352643 
L 110.88 306.448482 
L 123.552 305.946572 
L 126.72 306.137245 
L 139.392 305.973874 
L 142.56 305.754925 
L 145.728 305.840277 
L 148.896 305.735749 
L 152.064 305.834841 
L 158.4 305.836504 
L 164.736 305.833712 
L 171.072 305.731151 
L 190.08 305.775326 
L 193.248 305.598361 
L 215.424 305.818048 
L 218.592 305.625678 
L 224.928 305.630999 
L 228.096 305.702345 
L 231.264 305.552433 
L 250.272 305.849815 
L 253.44 305.789846 
L 259.776 305.920221 
L 272.448 305.879144 
L 278.784 305.876509 
L 281.952 305.855879 
L 288.288 306.00799 
L 297.792 305.787897 
L 304.128 305.851513 
L 310.464 305.854851 
L 319.968 305.949588 
L 335.808 306.061425 
L 345.312 306.127151 
L 354.816 306.039394 
L 367.488 305.799838 
L 370.656 305.940158 
L 411.84 306.020747 
L 418.176 306.10761 
L 449.856 306.00497 
L 459.36 306.108702 
L 468.864 306.177427 
L 475.2 306.197123 
L 487.872 306.112156 
L 497.376 306.193446 
L 503.712 306.219161 
L 513.216 306.27739 
L 516.384 306.181885 
L 522.72 306.22597 
L 535.392 306.160131 
L 538.56 306.255633 
L 548.064 306.106621 
L 560.736 306.13105 
L 576.576 306.159294 
L 586.08 306.128825 
L 611.424 306.137052 
L 617.76 306.100627 
L 624.096 306.117315 
L 630.432 305.988872 
L 662.112 305.950029 
L 671.616 305.920328 
L 674.784 306.03168 
L 687.456 305.914351 
L 703.296 305.87095 
L 788.832 305.875292 
L 788.832 305.875292 
" clip-path="url(#pac18b5c175)" style="fill: none; stroke: #000000; stroke-width: 1.5; stroke-linecap: square"/>
   </g>
   <g id="line2d_9">
    <path d="M 0 306 
L 3.168 306 
L 6.336 307.630825 
L 9.504 307.949279 
L 19.008 307.765281 
L 22.176 307.642454 
L 25.344 307.732739 
L 28.512 307.612288 
L 31.68 307.791233 
L 34.848 306.854591 
L 38.016 306.667423 
L 41.184 306.304001 
L 47.52 306.054778 
L 50.688 306.213414 
L 53.856 305.995134 
L 60.192 306.106985 
L 66.528 306.106649 
L 69.696 306.103221 
L 79.2 306.531841 
L 82.368 306.38566 
L 88.704 306.4321 
L 95.04 306.721631 
L 98.208 306.69147 
L 101.376 306.852823 
L 104.544 306.366106 
L 110.88 306.453434 
L 123.552 305.993913 
L 126.72 306.165173 
L 139.392 306.015264 
L 142.56 305.818428 
L 145.728 305.893021 
L 148.896 305.798718 
L 152.064 305.885221 
L 158.4 305.884209 
L 164.736 305.879816 
L 177.408 305.732221 
L 180.576 305.822509 
L 199.584 305.682418 
L 205.92 305.764986 
L 212.256 305.773434 
L 215.424 305.846833 
L 218.592 305.683513 
L 224.928 305.685949 
L 228.096 305.74502 
L 231.264 305.618538 
L 250.272 305.862294 
L 253.44 305.812541 
L 259.776 305.919659 
L 272.448 305.886015 
L 288.288 305.989984 
L 297.792 305.812948 
L 304.128 305.863381 
L 310.464 305.865536 
L 323.136 305.941854 
L 329.472 305.924029 
L 338.976 306.066303 
L 345.312 306.081959 
L 354.816 306.015599 
L 367.488 305.830463 
L 373.824 305.937494 
L 399.168 305.965853 
L 484.704 306.118736 
L 491.04 306.102932 
L 513.216 306.197053 
L 519.552 306.171086 
L 576.576 306.121681 
L 598.752 306.175393 
L 614.592 306.078504 
L 633.6 306.015442 
L 649.44 305.98174 
L 658.944 306.004539 
L 671.616 305.962946 
L 677.952 305.998757 
L 750.816 305.956795 
L 788.832 305.921305 
L 788.832 305.921305 
" clip-path="url(#pac18b5c175)" style="fill: none; stroke: #000000; stroke-width: 1.5; stroke-linecap: square"/>
   </g>
  </g>
 </g>
 <defs>
  <clipPath id="pac18b5c175">
   <rect x="0" y="0" width="792" height="612"/>
  </clipPath>
 </defs>
</svg>
