<?xml version="1.0" encoding="utf-8" standalone="no"?>
<!DOCTYPE svg PUBLIC "-//W3C//DTD SVG 1.1//EN"
  "http://www.w3.org/Graphics/SVG/1.1/DTD/svg11.dtd">
<svg xmlns:xlink="http://www.w3.org/1999/xlink" width="792pt" height="612pt" viewBox="0 0 792 612" xmlns="http://www.w3.org/2000/svg" version="1.1">
 <metadata>
  <rdf:RDF xmlns:dc="http://purl.org/dc/elements/1.1/" xmlns:cc="http://creativecommons.org/ns#" xmlns:rdf="http://www.w3.org/1999/02/22-rdf-syntax-ns#">
   <cc:Work>
    <dc:type rdf:resource="http://purl.org/dc/dcmitype/StillImage"/>
    <dc:date>2022-12-26T20:27:46.762284</dc:date>
    <dc:format>image/svg+xml</dc:format>
    <dc:creator>
     <cc:Agent>
      <dc:title>Matplotlib v3.6.2, https://matplotlib.org/</dc:title>
     </cc:Agent>
    </dc:creator>
   </cc:Work>
  </rdf:RDF>
 </metadata>
 <defs>
  <style type="text/css">*{stroke-linejoin: round; stroke-linecap: butt}</style>
 </defs>
 <g id="figure_1">
  <g id="patch_1">
   <path d="M 0 612 
L 792 612 
L 792 0 
L 0 0 
z
" style="fill: #ffffff"/>
  </g>
  <g id="axes_1">
   <g id="line2d_1">
    <path d="M 0 459 
L 3.142857 457.160439 
L 6.285714 453.914336 
L 9.428571 451.858713 
L 12.571429 455.212734 
L 15.714286 453.941385 
L 18.857143 455.185683 
L 22 452.102128 
L 25.142857 453.697943 
L 28.285714 447.423979 
L 31.428571 449.749293 
L 34.571429 454.725826 
L 37.714286 458.67537 
L 40.857143 459.820593 
L 44 460.650203 
L 47.142857 461.317499 
L 50.285714 461.786409 
L 53.428571 462.985737 
L 56.571429 463.328402 
L 59.714286 465.041728 
L 62.857143 460.839571 
L 66 460.163258 
L 69.142857 456.511193 
L 72.285714 453.265166 
L 75.428571 451.912805 
L 78.571429 455.726701 
L 81.714286 450.614654 
L 84.857143 450.641697 
L 88 453.697943 
L 91.142857 455.239785 
L 94.285714 454.022533 
L 97.428571 454.076631 
L 100.571429 459.225438 
L 103.714286 460.767431 
L 106.857143 462.670124 
L 110 461.128131 
L 113.142857 461.218306 
L 116.285714 462.138092 
L 119.428571 464.690045 
L 122.571429 466.691931 
L 125.714286 466.619791 
L 128.857143 469.397183 
L 132 462.309424 
L 135.142857 463.598927 
L 138.285714 464.112925 
L 141.428571 462.273354 
L 144.571429 460.073083 
L 147.714286 459.171333 
L 150.857143 452.129175 
L 154 459.856663 
L 157.142857 459.279543 
L 160.285714 459.009018 
L 163.428571 459.28856 
L 166.571429 453.53565 
L 169.714286 441.505502 
L 172.857143 445.883103 
L 176 439.722904 
L 179.142857 445.018177 
L 182.285714 442.34297 
L 185.428571 444.585751 
L 188.571429 446.369665 
L 191.714286 443.937161 
L 194.857143 439.398856 
L 198 436.942153 
L 201.142857 437.185069 
L 204.285714 432.194443 
L 207.428571 438.561823 
L 210.571429 435.970612 
L 213.714286 440.614134 
L 216.857143 437.53597 
L 220 425.083972 
L 223.142857 426.348754 
L 226.285714 425.379939 
L 229.428571 431.520495 
L 232.571429 431.358765 
L 235.714286 429.310796 
L 238.857143 431.358765 
L 242 437.401005 
L 245.142857 422.797928 
L 248.285714 420.621142 
L 251.428571 422.045269 
L 254.571429 426.940951 
L 257.714286 414.932345 
L 260.857143 418.499776 
L 264 425.433754 
L 267.142857 421.77651 
L 270.285714 429.849624 
L 273.428571 434.756478 
L 276.571429 435.700776 
L 279.714286 430.55022 
L 282.857143 439.830924 
L 286 440.884231 
L 289.142857 438.291842 
L 292.285714 438.939821 
L 295.428571 441.532516 
L 298.571429 436.834194 
L 301.714286 439.587881 
L 304.857143 436.26745 
L 308 434.270918 
L 311.142857 443.234589 
L 314.285714 447.451015 
L 317.428571 439.236839 
L 320.571429 432.598867 
L 323.714286 427.317861 
L 326.857143 432.113563 
L 330 432.544942 
L 333.142857 428.152597 
L 336.285714 432.356208 
L 339.428571 437.266044 
L 342.571429 438.777819 
L 345.714286 440.749181 
L 348.857143 440.8032 
L 352 435.565864 
L 355.142857 438.426831 
L 358.285714 448.072849 
L 361.428571 451.209624 
L 364.571429 455.91606 
L 367.714286 460.334591 
L 370.857143 458.134321 
L 374 457.890849 
L 377.142857 459.189368 
L 380.285714 449.965627 
L 383.428571 442.586126 
L 386.571429 432.005726 
L 389.714286 424.922547 
L 392.857143 425.379939 
L 396 439.34485 
L 399.142857 439.209837 
L 402.285714 437.805911 
L 405.428571 432.383169 
L 408.571429 436.105536 
L 414.857143 435.134173 
L 418 435.727758 
L 421.142857 435.538882 
L 424.285714 442.288936 
L 427.428571 443.396714 
L 430.571429 442.748236 
L 433.714286 435.862675 
L 436.857143 446.667023 
L 440 453.53565 
L 443.142857 456.186574 
L 446.285714 454.563526 
L 449.428571 452.372595 
L 452.571429 451.453029 
L 455.714286 448.153961 
L 458.857143 449.45184 
L 462 446.748122 
L 465.142857 445.883103 
L 468.285714 447.532121 
L 471.428571 450.209008 
L 474.571429 445.693893 
L 477.714286 453.265166 
L 480.857143 455.104532 
L 484 457.566221 
L 487.142857 457.620326 
L 490.285714 456.29478 
L 493.428571 461.281429 
L 496.571429 462.940649 
L 499.714286 462.228267 
L 502.857143 460.893676 
L 506 460.884658 
L 509.142857 461.615076 
L 512.285714 459.32463 
L 515.428571 460.875641 
L 518.571429 462.192197 
L 521.714286 462.688159 
L 524.857143 461.290446 
L 528 463.869452 
L 531.142857 465.014676 
L 534.285714 465.528673 
L 537.428571 466.511581 
L 540.571429 462.904579 
L 543.714286 465.249131 
L 546.857143 464.85236 
L 550 464.049803 
L 553.142857 462.859492 
L 556.285714 462.570932 
L 559.428571 462.634054 
L 562.571429 466.520599 
L 565.714286 463.51777 
L 568.857143 463.139035 
L 572 460.866623 
L 578.285714 463.238227 
L 581.428571 464.762185 
L 584.571429 462.147109 
L 587.714286 461.660164 
L 590.857143 462.579949 
L 594 463.26528 
L 597.142857 461.984794 
L 600.285714 463.634997 
L 603.428571 464.690045 
L 606.571429 464.834325 
L 609.714286 462.652089 
L 612.857143 463.111982 
L 616 465.997584 
L 619.142857 467.539577 
L 622.285714 467.350209 
L 625.428571 465.258148 
L 628.571429 465.294218 
L 631.714286 463.075912 
L 634.857143 463.69812 
L 638 461.777391 
L 641.142857 462.300407 
L 644.285714 463.490717 
L 647.428571 463.111982 
L 650.571429 459.86568 
L 653.714286 455.456191 
L 656.857143 456.186574 
L 660 452.129175 
L 663.142857 451.858713 
L 666.285714 444.937096 
L 672.571429 449.749293 
L 675.714286 456.944023 
L 678.857143 456.159522 
L 682 454.103681 
L 685.142857 450.046754 
L 688.285714 447.721373 
L 691.428571 451.480074 
L 694.571429 446.018256 
L 697.714286 459.378735 
L 700.857143 452.940589 
L 704 451.642347 
L 707.142857 448.748802 
L 713.428571 441.343425 
L 716.571429 441.964745 
L 719.714286 439.668894 
L 726 438.534825 
L 729.142857 438.291842 
L 732.285714 441.64057 
L 735.428571 436.483344 
L 738.571429 434.486716 
L 741.714286 434.109077 
L 744.857143 434.378815 
L 748 441.613556 
L 751.142857 438.723819 
L 754.285714 438.642821 
L 757.428571 442.586126 
L 760.571429 436.915163 
L 763.714286 433.219065 
L 766.857143 431.736146 
L 770 437.859901 
L 773.142857 442.775254 
L 776.285714 443.28863 
L 779.428571 442.775254 
L 782.571429 437.34702 
L 785.714286 439.101829 
L 788.857143 437.886896 
L 788.857143 437.886896 
" clip-path="url(#p29e136ed80)" style="fill: none; stroke: #000000; stroke-width: 1.5; stroke-linecap: square"/>
   </g>
   <g id="line2d_2">
    <path d="M 0 459 
L 3.142857 459 
L 6.285714 457.773622 
L 9.428571 455.568259 
L 12.571429 453.589748 
L 15.714286 454.427404 
L 18.857143 454.180536 
L 22 454.687062 
L 25.142857 453.389482 
L 28.285714 453.533317 
L 31.428571 450.459181 
L 34.571429 450.096066 
L 37.714286 452.4164 
L 40.857143 455.552514 
L 44 458.52186 
L 47.142857 459.75114 
L 50.285714 460.543372 
L 53.428571 461.17382 
L 56.571429 462.095161 
L 59.714286 462.726316 
L 62.857143 463.898662 
L 66 462.372936 
L 69.142857 461.268769 
L 72.285714 459.714717 
L 78.571429 454.515791 
L 81.714286 455.091378 
L 84.857143 452.810972 
L 88 451.674377 
L 91.142857 452.664916 
L 94.285714 453.938096 
L 100.571429 454.027624 
L 103.714286 456.86711 
L 106.857143 459.533836 
L 110 461.114658 
L 116.285714 461.182484 
L 119.428571 461.668898 
L 122.571429 463.193882 
L 125.714286 464.961207 
L 128.857143 465.804998 
L 132 467.618011 
L 135.142857 464.963011 
L 138.285714 464.285814 
L 141.428571 464.205045 
L 144.571429 463.239465 
L 147.714286 461.647221 
L 150.857143 460.394531 
L 154 457.597835 
L 157.142857 459.17593 
L 160.285714 459.221795 
L 163.428571 459.106407 
L 166.571429 459.188024 
L 169.714286 456.519786 
L 172.857143 448.969358 
L 176 447.399383 
L 179.142857 443.535743 
L 182.285714 444.244492 
L 185.428571 443.259384 
L 188.571429 443.894241 
L 191.714286 445.105408 
L 194.857143 444.502449 
L 201.142857 439.425965 
L 204.285714 438.300417 
L 207.428571 435.221248 
L 210.571429 436.883833 
L 213.714286 436.41032 
L 216.857143 438.50052 
L 220 438.005677 
L 223.142857 431.511298 
L 226.285714 428.908314 
L 229.428571 427.120532 
L 232.571429 429.318508 
L 235.714286 430.324387 
L 238.857143 429.804507 
L 242 430.56343 
L 245.142857 433.980561 
L 248.285714 428.380193 
L 251.428571 424.486954 
L 254.571429 423.259319 
L 257.714286 425.090619 
L 260.857143 419.974497 
L 264 419.215869 
L 267.142857 422.311523 
L 270.285714 422.013438 
L 273.428571 425.942934 
L 276.571429 430.374794 
L 279.714286 433.063716 
L 282.857143 431.813846 
L 286 435.869554 
L 289.142857 438.420267 
L 292.285714 438.381305 
L 295.428571 438.694278 
L 298.571429 440.136146 
L 301.714286 438.48898 
L 304.857143 439.046026 
L 308 437.667763 
L 311.142857 435.958125 
L 314.285714 439.599742 
L 317.428571 443.542207 
L 320.571429 441.389718 
L 323.714286 436.974752 
L 326.857143 432.124664 
L 330 432.104471 
L 333.142857 432.317405 
L 336.285714 430.222413 
L 339.428571 431.267861 
L 342.571429 434.245954 
L 348.857143 438.645362 
L 352 439.75065 
L 355.142857 437.664587 
L 358.285714 438.057234 
L 361.428571 443.102242 
L 364.571429 447.192009 
L 367.714286 451.589953 
L 370.857143 457.344075 
L 374 457.773304 
L 377.142857 457.8656 
L 380.285714 458.763954 
L 383.428571 454.387012 
L 386.571429 448.474068 
L 389.714286 440.196196 
L 392.857143 432.491334 
L 396 428.860252 
L 399.142857 434.062536 
L 402.285714 436.598915 
L 405.428571 437.159771 
L 408.571429 434.736377 
L 411.714286 435.408207 
L 414.857143 435.548193 
L 418 435.361228 
L 421.142857 435.564805 
L 424.285714 435.544384 
L 427.428571 438.921609 
L 430.571429 441.169701 
L 433.714286 441.979259 
L 436.857143 438.919597 
L 440 442.813716 
L 443.142857 448.209309 
L 446.285714 452.237573 
L 449.428571 453.437851 
L 452.571429 452.924997 
L 455.714286 452.204799 
L 458.857143 450.189813 
L 462 449.847491 
L 465.142857 448.297844 
L 468.285714 447.07539 
L 471.428571 447.28679 
L 474.571429 448.739259 
L 477.714286 447.203353 
L 480.857143 450.237429 
L 487.142857 455.141129 
L 490.285714 456.402032 
L 493.428571 456.368827 
L 496.571429 459.714151 
L 499.714286 461.340873 
L 502.857143 461.799599 
L 506 461.354099 
L 509.142857 461.12562 
L 512.285714 461.376413 
L 515.428571 460.35206 
L 518.571429 460.619296 
L 521.714286 461.407532 
L 524.857143 462.047351 
L 528 461.66706 
L 534.285714 463.902481 
L 540.571429 465.631508 
L 543.714286 464.272022 
L 546.857143 464.76657 
L 550 464.813709 
L 553.142857 464.437166 
L 556.285714 463.646349 
L 559.428571 463.103849 
L 562.571429 462.863276 
L 565.714286 464.691955 
L 572 463.618412 
L 575.142857 462.234703 
L 578.285714 462.141911 
L 581.428571 462.690812 
L 584.571429 463.730795 
L 587.714286 462.937997 
L 590.857143 462.28955 
L 594 462.432911 
L 597.142857 462.849343 
L 600.285714 462.419261 
L 603.428571 463.030223 
L 606.571429 463.862981 
L 609.714286 464.348795 
L 612.857143 463.501432 
L 616 463.309554 
L 622.285714 466.108304 
L 625.428571 466.739777 
L 628.571429 466.002145 
L 631.714286 465.649366 
L 634.857143 464.359191 
L 638 464.030707 
L 641.142857 462.901432 
L 644.285714 462.59367 
L 647.428571 463.034255 
L 650.571429 463.064808 
L 653.714286 461.454671 
L 656.857143 459.622031 
L 660 458.496823 
L 663.142857 455.271715 
L 666.285714 453.534802 
L 669.428571 449.188116 
L 672.571429 448.229772 
L 675.714286 448.947196 
L 678.857143 452.936028 
L 682 454.549099 
L 685.142857 454.322305 
L 691.428571 449.942509 
L 694.571429 450.724101 
L 697.714286 448.368248 
L 700.857143 454.271812 
L 704 453.59834 
L 707.142857 452.611458 
L 710.285714 450.669483 
L 713.428571 447.806404 
L 716.571429 444.561693 
L 719.714286 443.244443 
L 722.857143 441.443955 
L 726 440.258684 
L 729.142857 439.368464 
L 732.285714 438.803972 
L 735.428571 440.208164 
L 741.714286 436.393916 
L 744.857143 435.235955 
L 748 434.796996 
L 751.142857 438.208944 
L 754.285714 438.466746 
L 757.428571 438.555471 
L 760.571429 440.572296 
L 763.714286 438.744254 
L 766.857143 435.978337 
L 770 433.852049 
L 773.142857 435.862358 
L 776.285714 439.319965 
L 779.428571 441.312917 
L 782.571429 442.052147 
L 785.714286 439.688804 
L 788.857143 439.399597 
L 788.857143 439.399597 
" clip-path="url(#p29e136ed80)" style="fill: none; stroke: #000000; stroke-width: 1.5; stroke-linecap: square"/>
   </g>
   <g id="line2d_3">
    <path d="M 0 459 
L 3.142857 459 
L 6.285714 457.922406 
L 9.428571 456.106365 
L 12.571429 454.447455 
L 15.714286 454.719729 
L 18.857143 454.459187 
L 22 454.692602 
L 25.142857 453.88325 
L 28.285714 453.826465 
L 31.428571 451.890402 
L 34.571429 451.249079 
L 37.714286 452.283483 
L 40.857143 454.176379 
L 47.142857 458.572237 
L 50.285714 459.580781 
L 53.428571 460.229995 
L 56.571429 461.042415 
L 59.714286 461.718884 
L 62.857143 462.701796 
L 69.142857 461.578389 
L 75.428571 459.558253 
L 78.571429 458.106228 
L 81.714286 457.418809 
L 84.857143 455.426707 
L 88 454.020392 
L 91.142857 453.920232 
L 94.285714 454.299566 
L 100.571429 454.155192 
L 103.714286 455.763393 
L 106.857143 458.256698 
L 110 459.899 
L 119.428571 461.008382 
L 122.571429 462.094205 
L 125.714286 463.451879 
L 128.857143 464.391205 
L 132 465.870617 
L 135.142857 464.83458 
L 138.285714 464.481148 
L 141.428571 464.381201 
L 144.571429 463.769026 
L 150.857143 461.661239 
L 154 460.208034 
L 157.142857 460.104074 
L 163.428571 459.607386 
L 166.571429 459.511787 
L 169.714286 458.468028 
L 172.857143 453.457895 
L 176 451.19723 
L 179.142857 447.786443 
L 182.285714 446.923688 
L 185.428571 445.551218 
L 188.571429 445.236047 
L 191.714286 445.535958 
L 194.857143 445.039085 
L 198 443.360392 
L 201.142857 441.453879 
L 204.285714 440.186071 
L 207.428571 437.810272 
L 210.571429 438.005982 
L 213.714286 437.3833 
L 216.857143 438.307303 
L 220 438.063016 
L 223.142857 434.238263 
L 226.285714 431.90333 
L 229.428571 429.974952 
L 232.571429 430.412088 
L 235.714286 430.67674 
L 238.857143 430.259093 
L 242 430.563936 
L 245.142857 432.557798 
L 248.285714 429.677251 
L 251.428571 427.003346 
L 254.571429 425.532959 
L 257.714286 425.939258 
L 260.857143 422.683761 
L 264 421.437608 
L 267.142857 422.590102 
L 270.285714 422.333721 
L 273.428571 424.538681 
L 276.571429 427.537956 
L 279.714286 429.938807 
L 282.857143 430.116761 
L 286 432.969402 
L 289.142857 435.2995 
L 295.428571 436.992558 
L 298.571429 438.343425 
L 301.714286 437.92 
L 304.857143 438.428643 
L 308 437.806273 
L 311.142857 436.792801 
L 314.285714 438.707231 
L 317.428571 441.2923 
L 320.571429 440.710295 
L 323.714286 438.336263 
L 326.857143 435.097451 
L 330 434.219149 
L 333.142857 433.731007 
L 336.285714 432.082871 
L 339.428571 432.153142 
L 345.714286 435.150314 
L 348.857143 436.788623 
L 352 437.968699 
L 355.142857 437.26018 
L 358.285714 437.604336 
L 364.571429 443.774909 
L 367.714286 447.33924 
L 370.857143 451.953367 
L 374 453.792922 
L 377.142857 455.028292 
L 380.285714 456.389499 
L 383.428571 454.527812 
L 386.571429 451.045443 
L 389.714286 445.462664 
L 392.857143 439.42308 
L 396 435.28955 
L 399.142857 436.475352 
L 402.285714 437.274277 
L 405.428571 437.432557 
L 408.571429 435.946086 
L 411.714286 435.979056 
L 414.857143 435.871823 
L 418 435.631925 
L 424.285714 435.5765 
L 427.428571 437.523726 
L 430.571429 439.224694 
L 433.714286 440.24821 
L 436.857143 438.955603 
L 440 441.230094 
L 443.142857 444.865357 
L 446.285714 448.215532 
L 449.428571 450.091985 
L 452.571429 450.775047 
L 455.714286 450.989306 
L 458.857143 450.17692 
L 462 449.979888 
L 468.285714 448.131824 
L 471.428571 447.969742 
L 474.571429 448.642422 
L 477.714286 447.782631 
L 484 451.084435 
L 487.142857 453.007641 
L 490.285714 454.371165 
L 493.428571 454.937734 
L 496.571429 458.143208 
L 499.714286 459.958466 
L 502.857143 460.629521 
L 509.142857 460.768857 
L 512.285714 461.023369 
L 515.428571 460.530884 
L 518.571429 460.639039 
L 524.857143 461.574182 
L 528 461.498805 
L 531.142857 462.20094 
L 540.571429 464.583802 
L 543.714286 464.09749 
L 546.857143 464.439355 
L 550 464.562517 
L 553.142857 464.414439 
L 559.428571 463.555982 
L 562.571429 463.287126 
L 565.714286 464.242453 
L 572 463.772416 
L 575.142857 462.919237 
L 578.285714 462.667555 
L 581.428571 462.833976 
L 584.571429 463.398445 
L 590.857143 462.621835 
L 594 462.609194 
L 597.142857 462.799079 
L 600.285714 462.557287 
L 603.428571 462.872464 
L 606.571429 463.406924 
L 609.714286 463.8276 
L 612.857143 463.483322 
L 616 463.370644 
L 619.142857 464.142905 
L 622.285714 465.142821 
L 625.428571 465.796797 
L 631.714286 465.542999 
L 634.857143 464.818469 
L 638 464.492108 
L 641.142857 463.69712 
L 644.285714 463.287711 
L 647.428571 463.347429 
L 650.571429 463.279763 
L 653.714286 462.275472 
L 656.857143 460.962223 
L 660 460.105042 
L 663.142857 459.103701 
L 666.285714 457.105818 
L 669.428571 453.500377 
L 672.571429 451.661728 
L 675.714286 451.062171 
L 678.857143 452.76082 
L 682 453.731275 
L 685.142857 453.820683 
L 688.285714 452.688761 
L 691.428571 451.21112 
L 694.571429 451.269889 
L 697.714286 449.701074 
L 700.857143 452.744077 
L 704 452.791692 
L 707.142857 452.450668 
L 710.285714 451.357764 
L 713.428571 449.476461 
L 716.571429 447.081423 
L 719.714286 445.579004 
L 722.857143 443.838578 
L 726 442.454498 
L 729.142857 441.285047 
L 732.285714 440.387685 
L 735.428571 440.740317 
L 738.571429 439.477549 
L 741.714286 438.000042 
L 744.857143 436.840134 
L 748 436.105733 
L 751.142857 437.697085 
L 757.428571 438.160256 
L 760.571429 439.449126 
L 763.714286 438.697574 
L 770 435.504481 
L 773.142857 436.192168 
L 776.285714 438.123612 
L 779.428571 439.64138 
L 782.571429 440.564246 
L 785.714286 439.616809 
L 788.857143 439.468978 
L 788.857143 439.468978 
" clip-path="url(#p29e136ed80)" style="fill: none; stroke: #000000; stroke-width: 1.5; stroke-linecap: square"/>
   </g>
   <g id="line2d_4">
    <path d="M 0 459 
L 3.142857 459 
L 6.285714 458.000722 
L 9.428571 456.396907 
L 12.571429 454.952723 
L 15.714286 455.024103 
L 18.857143 454.75762 
L 22 454.854541 
L 25.142857 454.270617 
L 28.285714 454.155249 
L 31.428571 452.85405 
L 34.571429 452.273769 
L 37.714286 452.719609 
L 40.857143 453.778396 
L 44 455.119284 
L 50.285714 458.21804 
L 53.428571 459.251037 
L 62.857143 461.198903 
L 69.142857 460.981243 
L 75.428571 459.969997 
L 78.571429 459.432711 
L 81.714286 459.187556 
L 84.857143 458.125507 
L 88 456.925296 
L 91.142857 456.408395 
L 94.285714 456.221429 
L 100.571429 455.583485 
L 103.714286 456.235071 
L 106.857143 457.523028 
L 110 459.173283 
L 119.428571 460.14535 
L 122.571429 460.872771 
L 125.714286 461.804854 
L 128.857143 462.576785 
L 132 463.67083 
L 135.142857 463.458214 
L 141.428571 463.587625 
L 144.571429 463.38005 
L 150.857143 462.266348 
L 154 461.379075 
L 166.571429 460.342068 
L 169.714286 459.836865 
L 172.857143 458.316996 
L 176 456.333572 
L 179.142857 453.68155 
L 182.285714 452.296081 
L 185.428571 450.706678 
L 188.571429 449.728783 
L 191.714286 449.189688 
L 194.857143 448.346732 
L 198 446.91325 
L 201.142857 445.315112 
L 204.285714 444.006858 
L 207.428571 442.105698 
L 210.571429 441.522107 
L 213.714286 440.620124 
L 216.857143 440.603566 
L 220 440.09614 
L 223.142857 437.672319 
L 226.285714 435.833882 
L 229.428571 434.133552 
L 235.714286 433.288194 
L 238.857143 432.628032 
L 242 432.399312 
L 245.142857 433.175155 
L 251.428571 429.74041 
L 254.571429 428.496129 
L 257.714286 428.227105 
L 260.857143 426.079842 
L 264 424.847297 
L 267.142857 424.919195 
L 270.285714 424.399206 
L 273.428571 425.258519 
L 279.714286 428.179405 
L 282.857143 428.547496 
L 289.142857 432.012782 
L 295.428571 433.946578 
L 298.571429 435.154048 
L 301.714286 435.421256 
L 304.857143 436.085437 
L 308 436.116938 
L 311.142857 435.820501 
L 314.285714 437.003929 
L 317.428571 438.669113 
L 320.571429 438.760498 
L 323.714286 437.784313 
L 326.857143 436.117905 
L 330 435.484759 
L 333.142857 435.017527 
L 336.285714 433.92249 
L 339.428571 433.67515 
L 342.571429 434.249963 
L 345.714286 434.97092 
L 348.857143 435.901012 
L 352 436.693256 
L 355.142857 436.522318 
L 358.285714 436.832456 
L 361.428571 438.640132 
L 364.571429 440.658868 
L 367.714286 443.103534 
L 370.857143 446.293407 
L 374 448.194277 
L 380.285714 451.327551 
L 383.428571 451.122986 
L 386.571429 449.765945 
L 389.714286 446.93145 
L 392.857143 443.415041 
L 396 440.53244 
L 402.285714 440.163427 
L 405.428571 439.787156 
L 408.571429 438.605959 
L 421.142857 437.105573 
L 424.285714 436.858108 
L 430.571429 438.639208 
L 433.714286 439.299136 
L 436.857143 438.757043 
L 440 440.023796 
L 446.285714 444.419727 
L 449.428571 446.041563 
L 452.571429 447.055804 
L 455.714286 447.765212 
L 458.857143 447.833135 
L 462 448.09152 
L 471.428571 447.539004 
L 474.571429 447.958821 
L 477.714286 447.590816 
L 480.857143 448.489506 
L 484 449.544965 
L 487.142857 450.830264 
L 490.285714 451.926422 
L 493.428571 452.640988 
L 496.571429 454.766743 
L 499.714286 457.340737 
L 502.857143 459.05467 
L 512.285714 459.929768 
L 515.428571 459.838547 
L 518.571429 460.00969 
L 524.857143 460.740774 
L 528 460.833135 
L 534.285714 461.91708 
L 540.571429 463.146003 
L 543.714286 463.111164 
L 546.857143 463.455807 
L 550 463.682578 
L 553.142857 463.745534 
L 562.571429 463.322698 
L 565.714286 463.838737 
L 572 463.694103 
L 575.142857 463.247234 
L 578.285714 463.062528 
L 581.428571 463.09432 
L 584.571429 463.364089 
L 594 462.88048 
L 597.142857 462.942941 
L 600.285714 462.7899 
L 603.428571 462.925236 
L 609.714286 463.469548 
L 616 463.306198 
L 619.142857 463.737603 
L 622.285714 464.345847 
L 625.428571 464.82676 
L 631.714286 464.961821 
L 634.857143 464.660556 
L 638 464.506287 
L 641.142857 464.069156 
L 644.285714 463.787365 
L 650.571429 463.638212 
L 653.714286 463.035378 
L 656.857143 462.202242 
L 663.142857 460.768376 
L 666.285714 460.102078 
L 669.428571 459.174936 
L 672.571429 457.575523 
L 675.714286 456.320902 
L 678.857143 456.413038 
L 682 456.362997 
L 685.142857 455.98968 
L 688.285714 455.032544 
L 691.428571 453.857063 
L 694.571429 453.467462 
L 697.714286 452.265888 
L 700.857143 453.513061 
L 704 453.409522 
L 707.142857 453.113107 
L 710.285714 452.401324 
L 713.428571 451.202114 
L 716.571429 449.614133 
L 719.714286 448.37291 
L 722.857143 446.959362 
L 729.142857 444.525934 
L 732.285714 443.508968 
L 735.428571 443.193219 
L 738.571429 442.102304 
L 741.714286 440.869428 
L 744.857143 439.771543 
L 748 438.889409 
L 751.142857 439.304225 
L 757.428571 439.098869 
L 760.571429 439.645086 
L 763.714286 439.201163 
L 770 437.19405 
L 773.142857 437.294055 
L 779.428571 438.968349 
L 782.571429 439.56553 
L 785.714286 439.202048 
L 788.857143 439.17928 
L 788.857143 439.17928 
" clip-path="url(#p29e136ed80)" style="fill: none; stroke: #000000; stroke-width: 1.5; stroke-linecap: square"/>
   </g>
   <g id="line2d_5">
    <path d="M 0 459 
L 3.142857 459 
L 6.285714 458.040394 
L 9.428571 456.544254 
L 12.571429 455.216437 
L 15.714286 455.215563 
L 18.857143 454.954698 
L 22 454.996855 
L 25.142857 454.516325 
L 28.285714 454.390889 
L 31.428571 453.392973 
L 34.571429 452.900754 
L 37.714286 453.135062 
L 40.857143 453.815425 
L 44 454.718469 
L 50.285714 456.898406 
L 56.571429 459.127958 
L 59.714286 459.559833 
L 62.857143 460.112508 
L 69.142857 460.182453 
L 75.428571 459.713954 
L 78.571429 459.425556 
L 81.714286 459.284893 
L 84.857143 459.001968 
L 88 458.244317 
L 91.142857 457.833686 
L 97.428571 457.282367 
L 100.571429 456.998555 
L 103.714286 457.234307 
L 106.857143 457.853456 
L 110 458.913517 
L 119.428571 459.57813 
L 122.571429 460.017367 
L 132 461.811315 
L 138.285714 462.001798 
L 141.428571 462.180637 
L 144.571429 462.188478 
L 150.857143 461.770539 
L 154 461.344392 
L 166.571429 460.750691 
L 169.714286 460.45143 
L 172.857143 459.841546 
L 176 459.405311 
L 179.142857 458.501873 
L 182.285714 457.375025 
L 185.428571 456.119285 
L 188.571429 455.15639 
L 191.714286 454.423218 
L 194.857143 453.548522 
L 204.285714 449.920583 
L 207.428571 448.439493 
L 210.571429 447.614189 
L 213.714286 446.641881 
L 216.857143 446.136661 
L 220 445.417071 
L 223.142857 443.716563 
L 229.428571 440.851438 
L 238.857143 438.499844 
L 242 437.897854 
L 245.142857 437.848796 
L 254.571429 434.130055 
L 257.714286 433.518575 
L 260.857143 431.953399 
L 264 430.81566 
L 267.142857 430.355976 
L 270.285714 429.629843 
L 273.428571 429.639428 
L 279.714286 430.520621 
L 282.857143 430.514903 
L 289.142857 432.076625 
L 295.428571 433.108719 
L 298.571429 433.803218 
L 301.714286 434.049095 
L 304.857143 434.502014 
L 308 434.639406 
L 311.142857 434.597214 
L 314.285714 435.306315 
L 317.428571 436.307335 
L 320.571429 436.540927 
L 323.714286 436.199494 
L 326.857143 435.443818 
L 333.142857 434.916077 
L 336.285714 434.341047 
L 339.428571 434.163143 
L 345.714286 434.761269 
L 352 435.705475 
L 355.142857 435.688504 
L 358.285714 435.908195 
L 361.428571 436.91299 
L 364.571429 438.095763 
L 367.714286 439.571831 
L 370.857143 441.51748 
L 374 442.900873 
L 380.285714 445.433482 
L 383.428571 445.811153 
L 386.571429 445.543514 
L 389.714286 444.414616 
L 392.857143 442.786883 
L 396 441.333656 
L 405.428571 440.741176 
L 408.571429 440.047018 
L 424.285714 438.490346 
L 433.714286 439.495363 
L 436.857143 439.195232 
L 440 439.820667 
L 443.142857 440.965205 
L 446.285714 442.233579 
L 449.428571 443.266589 
L 452.571429 444.03233 
L 455.714286 444.657561 
L 465.142857 445.465194 
L 468.285714 445.506546 
L 471.428571 445.683043 
L 474.571429 446.065227 
L 477.714286 446.037971 
L 484 447.353326 
L 490.285714 448.992954 
L 493.428571 449.604696 
L 496.571429 450.960896 
L 499.714286 452.618476 
L 502.857143 453.962113 
L 512.285714 456.619 
L 515.428571 456.902887 
L 518.571429 457.549534 
L 521.714286 458.474284 
L 524.857143 459.149475 
L 528 459.331356 
L 534.285714 460.157394 
L 540.571429 461.103922 
L 543.714286 461.257 
L 550 461.866996 
L 553.142857 462.051779 
L 562.571429 462.204667 
L 565.714286 462.566165 
L 572 462.688703 
L 575.142857 462.538179 
L 581.428571 462.561994 
L 584.571429 462.747457 
L 594 462.619616 
L 597.142857 462.678245 
L 600.285714 462.623797 
L 606.571429 462.879754 
L 609.714286 463.046765 
L 616 463.029381 
L 622.285714 463.639383 
L 625.428571 463.952632 
L 631.714286 464.170611 
L 650.571429 463.672109 
L 653.714286 463.357191 
L 669.428571 460.96736 
L 675.714286 460.103212 
L 685.142857 459.596544 
L 688.285714 459.298492 
L 691.428571 458.881663 
L 694.571429 458.265738 
L 697.714286 457.242514 
L 700.857143 457.479198 
L 707.142857 456.640334 
L 710.285714 455.980075 
L 713.428571 455.058366 
L 716.571429 453.91341 
L 722.857143 451.804479 
L 729.142857 449.721062 
L 732.285714 448.760356 
L 735.428571 448.157689 
L 748 444.192232 
L 751.142857 443.966811 
L 757.428571 443.104656 
L 760.571429 443.052798 
L 763.714286 442.532423 
L 770 440.898539 
L 773.142857 440.635371 
L 782.571429 441.141381 
L 785.714286 440.813705 
L 788.857143 440.662068 
L 788.857143 440.662068 
" clip-path="url(#p29e136ed80)" style="fill: none; stroke: #000000; stroke-width: 1.5; stroke-linecap: square"/>
   </g>
   <g id="line2d_6">
    <path d="M 0 459 
L 3.142857 459 
L 6.285714 458.060296 
L 9.428571 456.617974 
L 12.571429 455.34967 
L 15.714286 455.31986 
L 18.857143 455.064528 
L 22 455.084164 
L 25.142857 454.652483 
L 28.285714 454.527139 
L 31.428571 453.670395 
L 34.571429 453.231795 
L 37.714286 453.388037 
L 40.857143 453.908576 
L 44 454.612718 
L 50.285714 456.332398 
L 53.428571 457.229353 
L 56.571429 458.304171 
L 59.714286 459.112737 
L 62.857143 459.546468 
L 69.142857 459.674467 
L 75.428571 459.410393 
L 84.857143 458.905573 
L 88 458.406924 
L 94.285714 457.959465 
L 100.571429 457.52684 
L 103.714286 457.646653 
L 106.857143 458.012759 
L 110 458.664493 
L 113.142857 459.00841 
L 119.428571 459.283933 
L 125.714286 459.932067 
L 128.857143 460.273383 
L 132 460.735039 
L 138.285714 460.952738 
L 144.571429 461.166115 
L 150.857143 461.018746 
L 154 460.811208 
L 166.571429 460.552343 
L 169.714286 460.394044 
L 179.142857 459.468862 
L 185.428571 458.898448 
L 188.571429 458.242698 
L 194.857143 457.074161 
L 204.285714 454.575104 
L 207.428571 453.567298 
L 216.857143 451.621047 
L 220 450.993156 
L 226.285714 448.795332 
L 229.428571 447.756698 
L 242 444.968141 
L 245.142857 444.63581 
L 254.571429 441.76197 
L 257.714286 441.114092 
L 260.857143 439.969067 
L 264 439.031847 
L 267.142857 438.439545 
L 270.285714 437.714193 
L 273.428571 437.372591 
L 279.714286 437.191631 
L 282.857143 436.904024 
L 298.571429 437.498934 
L 301.714286 437.470302 
L 304.857143 437.561426 
L 311.142857 437.36666 
L 314.285714 437.618622 
L 317.428571 438.040455 
L 320.571429 438.091791 
L 323.714286 437.856056 
L 326.857143 437.403741 
L 333.142857 436.978439 
L 336.285714 436.600205 
L 339.428571 436.418502 
L 345.714286 436.554069 
L 352 436.90716 
L 355.142857 436.849857 
L 358.285714 436.917187 
L 361.428571 437.392978 
L 364.571429 437.982009 
L 367.714286 438.746245 
L 370.857143 439.779565 
L 380.285714 442.077407 
L 383.428571 442.413373 
L 386.571429 442.420733 
L 389.714286 441.976685 
L 396 440.5723 
L 405.428571 440.348016 
L 408.571429 440.005953 
L 424.285714 439.13876 
L 433.714286 439.583093 
L 436.857143 439.422997 
L 440 439.728609 
L 452.571429 442.013728 
L 455.714286 442.411047 
L 465.142857 443.091701 
L 471.428571 443.387768 
L 474.571429 443.6758 
L 477.714286 443.760091 
L 484 444.626615 
L 490.285714 445.70452 
L 493.428571 446.153736 
L 496.571429 446.989843 
L 499.714286 448.002518 
L 502.857143 448.881432 
L 512.285714 450.897342 
L 515.428571 451.28118 
L 518.571429 451.846707 
L 524.857143 453.297091 
L 528 453.827442 
L 534.285714 455.6112 
L 540.571429 457.645971 
L 543.714286 458.199396 
L 546.857143 459.009883 
L 553.142857 459.462332 
L 575.142857 460.42744 
L 581.428571 460.615721 
L 584.571429 460.793251 
L 603.428571 461.210132 
L 612.857143 461.559769 
L 616 461.627539 
L 631.714286 462.541553 
L 650.571429 462.637962 
L 656.857143 462.325125 
L 666.285714 461.694822 
L 672.571429 461.118855 
L 678.857143 460.791024 
L 688.285714 460.345983 
L 697.714286 459.751905 
L 704 459.621119 
L 710.285714 459.326425 
L 713.428571 459.114759 
L 716.571429 458.580416 
L 722.857143 457.102452 
L 732.285714 454.855682 
L 735.428571 454.296626 
L 748 451.196572 
L 754.285714 450.277959 
L 757.428571 449.784847 
L 760.571429 449.48022 
L 763.714286 448.945223 
L 770 447.568674 
L 773.142857 447.152605 
L 782.571429 446.632385 
L 788.857143 445.933148 
L 788.857143 445.933148 
" clip-path="url(#p29e136ed80)" style="fill: none; stroke: #000000; stroke-width: 1.5; stroke-linecap: square"/>
   </g>
   <g id="line2d_7">
    <path d="M 0 459 
L 3.142857 459 
L 6.285714 458.070255 
L 9.428571 456.654784 
L 12.571429 455.416441 
L 15.714286 455.373915 
L 18.857143 455.122041 
L 22 455.131734 
L 25.142857 454.723684 
L 28.285714 454.599589 
L 31.428571 453.809922 
L 34.571429 453.399465 
L 37.714286 453.523628 
L 40.857143 453.973401 
L 47.142857 455.31001 
L 53.428571 456.872552 
L 59.714286 458.707763 
L 62.857143 459.276753 
L 69.142857 459.413314 
L 75.428571 459.226132 
L 81.714286 459.034522 
L 91.142857 458.101277 
L 100.571429 457.640295 
L 103.714286 457.72572 
L 106.857143 457.9961 
L 110 458.480504 
L 116.285714 459.007309 
L 122.571429 459.335914 
L 132 460.205159 
L 147.714286 460.565602 
L 169.714286 460.171956 
L 182.285714 459.4186 
L 191.714286 458.90011 
L 194.857143 458.46605 
L 204.285714 456.745636 
L 207.428571 456.053132 
L 220 454.150526 
L 226.285714 452.621589 
L 229.428571 451.885212 
L 242 449.733702 
L 245.142857 449.40936 
L 254.571429 447.305178 
L 257.714286 446.778967 
L 260.857143 445.958271 
L 264 445.25405 
L 273.428571 443.802102 
L 286 442.97554 
L 298.571429 442.684669 
L 311.142857 442.122704 
L 320.571429 442.204307 
L 323.714286 441.973507 
L 326.857143 441.622053 
L 342.571429 440.590807 
L 358.285714 440.394289 
L 364.571429 440.82141 
L 367.714286 441.172402 
L 370.857143 441.679032 
L 380.285714 442.822203 
L 383.428571 442.986926 
L 386.571429 442.977695 
L 389.714286 442.725137 
L 396 441.926723 
L 405.428571 441.715502 
L 411.714286 441.379708 
L 424.285714 440.865444 
L 433.714286 440.994553 
L 436.857143 440.878837 
L 440 441.009089 
L 455.714286 442.357584 
L 474.571429 443.072589 
L 477.714286 443.130916 
L 484 443.617003 
L 493.428571 444.497341 
L 499.714286 445.541657 
L 506 446.464731 
L 528 449.265872 
L 534.285714 450.399684 
L 540.571429 451.6886 
L 543.714286 452.106029 
L 550 453.191972 
L 556.285714 454.021826 
L 562.571429 454.705221 
L 565.714286 455.292562 
L 572 456.013978 
L 578.285714 456.462836 
L 587.714286 457.465591 
L 594 457.935959 
L 606.571429 459.046905 
L 638 460.197232 
L 656.857143 460.338492 
L 666.285714 460.133923 
L 675.714286 459.815954 
L 688.285714 459.615112 
L 697.714286 459.351789 
L 704 459.301138 
L 713.428571 459.058135 
L 719.714286 458.426147 
L 744.857143 455.107706 
L 748 454.660479 
L 760.571429 453.469871 
L 766.857143 452.684026 
L 770 452.232329 
L 773.142857 451.922615 
L 785.714286 451.053303 
L 788.857143 450.795916 
L 788.857143 450.795916 
" clip-path="url(#p29e136ed80)" style="fill: none; stroke: #000000; stroke-width: 1.5; stroke-linecap: square"/>
   </g>
   <g id="line2d_8">
    <path d="M 0 459 
L 3.142857 459 
L 6.285714 458.075235 
L 9.428571 456.673169 
L 12.571429 455.449841 
L 15.714286 455.401387 
L 18.857143 455.151411 
L 22 455.156468 
L 25.142857 454.760022 
L 28.285714 454.636834 
L 31.428571 453.879728 
L 34.571429 453.483526 
L 37.714286 453.593325 
L 40.857143 454.010123 
L 47.142857 455.253701 
L 53.428571 456.707048 
L 59.714286 458.408368 
L 62.857143 459.147868 
L 69.142857 459.284487 
L 78.571429 459.016104 
L 81.714286 458.902515 
L 88 458.224652 
L 97.428571 457.787077 
L 100.571429 457.650609 
L 103.714286 457.723221 
L 106.857143 457.953282 
L 110 458.364943 
L 132 459.9527 
L 150.857143 460.254553 
L 157.142857 460.15396 
L 169.714286 460.012904 
L 185.428571 459.300314 
L 194.857143 458.924086 
L 204.285714 457.589045 
L 207.428571 457.052784 
L 220 455.545532 
L 229.428571 453.790589 
L 242 452.071395 
L 245.142857 451.794093 
L 264 448.536558 
L 273.428571 447.33799 
L 286 446.517734 
L 301.714286 445.927744 
L 308 445.665178 
L 311.142857 445.478403 
L 320.571429 445.373866 
L 333.142857 444.489512 
L 339.428571 444.046915 
L 348.857143 443.813567 
L 355.142857 443.642168 
L 358.285714 443.562905 
L 364.571429 443.745173 
L 370.857143 444.212185 
L 380.285714 444.838819 
L 386.571429 444.880043 
L 392.857143 444.404491 
L 396 444.128722 
L 405.428571 443.901506 
L 414.857143 443.515819 
L 424.285714 443.180719 
L 440 443.114104 
L 458.857143 443.87076 
L 468.285714 444.009537 
L 480.857143 444.280942 
L 493.428571 444.922206 
L 515.428571 446.763312 
L 524.857143 447.566285 
L 531.142857 448.132423 
L 550 450.270229 
L 556.285714 450.824865 
L 562.571429 451.299886 
L 565.714286 451.679879 
L 572 452.185217 
L 578.285714 452.537699 
L 594 453.631051 
L 619.142857 455.488141 
L 628.571429 456.44984 
L 634.857143 456.88637 
L 641.142857 457.206767 
L 653.714286 457.743937 
L 666.285714 457.562128 
L 675.714286 457.201009 
L 685.142857 457.148923 
L 700.857143 456.799913 
L 710.285714 456.600253 
L 719.714286 456.116667 
L 744.857143 454.464414 
L 751.142857 454.082994 
L 779.428571 452.52229 
L 788.857143 452.084085 
L 788.857143 452.084085 
" clip-path="url(#p29e136ed80)" style="fill: none; stroke: #000000; stroke-width: 1.5; stroke-linecap: square"/>
   </g>
   <g id="line2d_9">
    <path d="M 0 459 
L 3.142857 459 
L 6.285714 458.077725 
L 9.428571 456.682356 
L 12.571429 455.466542 
L 15.714286 455.415229 
L 18.857143 455.166245 
L 22 455.169067 
L 25.142857 454.77837 
L 28.285714 454.655703 
L 31.428571 453.914621 
L 34.571429 453.525573 
L 37.714286 453.628597 
L 40.857143 454.029518 
L 47.142857 455.227913 
L 53.428571 456.627798 
L 62.857143 459.085227 
L 69.142857 459.220968 
L 75.428571 459.08016 
L 81.714286 458.796269 
L 88 458.17081 
L 97.428571 457.769321 
L 100.571429 457.643972 
L 103.714286 457.711042 
L 106.857143 457.922722 
L 110 458.300819 
L 132 459.830932 
L 150.857143 460.121374 
L 157.142857 460.038086 
L 169.714286 459.923717 
L 185.428571 459.308925 
L 194.857143 459.027007 
L 201.142857 458.311321 
L 216.857143 456.476773 
L 220 456.152296 
L 229.428571 454.641935 
L 242 453.146914 
L 245.142857 452.899883 
L 264 450.098721 
L 273.428571 449.049888 
L 286 448.287259 
L 304.857143 447.586939 
L 314.285714 447.214745 
L 320.571429 447.116161 
L 345.714286 445.750015 
L 361.428571 445.460939 
L 367.714286 445.646968 
L 374 445.985005 
L 383.428571 446.311777 
L 386.571429 446.27039 
L 392.857143 445.879526 
L 396 445.655236 
L 408.571429 445.295241 
L 427.428571 444.771272 
L 443.142857 444.756006 
L 455.714286 445.105516 
L 484 445.444748 
L 496.571429 445.962578 
L 506 446.573988 
L 531.142857 448.004157 
L 553.142857 449.734926 
L 590.857143 451.826759 
L 606.571429 452.645727 
L 638 454.542374 
L 656.857143 455.089798 
L 666.285714 455.049525 
L 675.714286 454.869352 
L 688.285714 454.851722 
L 697.714286 454.703131 
L 704 454.731112 
L 713.428571 454.587778 
L 738.571429 453.705792 
L 754.285714 453.079929 
L 788.857143 451.965093 
L 788.857143 451.965093 
" clip-path="url(#p29e136ed80)" style="fill: none; stroke: #000000; stroke-width: 1.5; stroke-linecap: square"/>
   </g>
  </g>
 </g>
 <defs>
  <clipPath id="p29e136ed80">
   <rect x="0" y="0" width="792" height="612"/>
  </clipPath>
 </defs>
</svg>
