<?xml version="1.0" encoding="utf-8" standalone="no"?>
<!DOCTYPE svg PUBLIC "-//W3C//DTD SVG 1.1//EN"
  "http://www.w3.org/Graphics/SVG/1.1/DTD/svg11.dtd">
<svg xmlns:xlink="http://www.w3.org/1999/xlink" width="792pt" height="612pt" viewBox="0 0 792 612" xmlns="http://www.w3.org/2000/svg" version="1.1">
 <metadata>
  <rdf:RDF xmlns:dc="http://purl.org/dc/elements/1.1/" xmlns:cc="http://creativecommons.org/ns#" xmlns:rdf="http://www.w3.org/1999/02/22-rdf-syntax-ns#">
   <cc:Work>
    <dc:type rdf:resource="http://purl.org/dc/dcmitype/StillImage"/>
    <dc:date>2023-01-02T15:39:55.459393</dc:date>
    <dc:format>image/svg+xml</dc:format>
    <dc:creator>
     <cc:Agent>
      <dc:title>Matplotlib v3.6.2, https://matplotlib.org/</dc:title>
     </cc:Agent>
    </dc:creator>
   </cc:Work>
  </rdf:RDF>
 </metadata>
 <defs>
  <style type="text/css">*{stroke-linejoin: round; stroke-linecap: butt}</style>
 </defs>
 <g id="figure_1">
  <g id="patch_1">
   <path d="M 0 612 
L 792 612 
L 792 0 
L 0 0 
z
" style="fill: #ffffff"/>
  </g>
  <g id="axes_1">
   <g id="line2d_1">
    <path d="M 0 459 
L 3.155378 459.410283 
L 6.310757 457.180492 
L 9.466135 458.759182 
L 12.621514 452.551841 
L 15.776892 454.852684 
L 18.932271 459.258657 
L 22.087649 460.56086 
L 28.398406 462.300105 
L 31.553785 462.960126 
L 34.709163 463.423924 
L 37.864542 464.610178 
L 41.01992 464.949108 
L 44.175299 466.643757 
L 47.330677 462.487408 
L 50.486056 461.818468 
L 53.641434 459.847324 
L 56.796813 458.33106 
L 59.952191 456.993192 
L 63.10757 459.588667 
L 66.262948 455.708871 
L 69.418327 455.735627 
L 72.573705 458.759182 
L 75.729084 459.428122 
L 78.884462 459.026758 
L 82.039841 459.044596 
L 85.195219 460.890871 
L 88.350598 462.416055 
L 91.505976 464.298006 
L 94.661355 462.772823 
L 97.816733 462.862015 
L 100.972112 463.771773 
L 104.12749 466.295908 
L 107.282869 468.275971 
L 110.438247 468.204617 
L 113.593625 470.951731 
L 116.749004 463.941238 
L 119.904382 465.216684 
L 123.059761 465.725079 
L 126.215139 463.905561 
L 129.370518 461.729276 
L 132.525896 460.837356 
L 135.681275 457.207249 
L 138.836653 461.515215 
L 141.992032 460.944386 
L 145.14741 460.67681 
L 148.302789 460.953305 
L 151.458167 458.598636 
L 154.613546 446.69445 
L 157.768924 451.027035 
L 160.924303 444.929908 
L 164.079681 450.171079 
L 167.23506 447.523379 
L 170.390438 449.743123 
L 173.545817 451.508535 
L 176.701195 449.10122 
L 179.856574 444.609125 
L 183.011952 442.177004 
L 186.167331 442.417503 
L 189.322709 437.475924 
L 192.478088 443.780503 
L 195.633466 441.215099 
L 198.788845 445.81213 
L 201.944223 442.764908 
L 205.099602 430.433088 
L 208.25498 431.686035 
L 211.410359 430.726293 
L 214.565737 436.808501 
L 217.721116 436.648333 
L 220.876494 434.620028 
L 224.031873 436.648333 
L 227.187251 442.631288 
L 230.342629 428.168218 
L 233.498008 426.011331 
L 236.653386 427.422468 
L 239.808765 432.272662 
L 242.964143 420.373315 
L 246.119522 423.90911 
L 249.2749 430.779606 
L 252.430279 427.156169 
L 255.585657 435.153703 
L 258.741036 440.01294 
L 261.896414 440.947931 
L 265.051793 435.847577 
L 268.207171 445.036839 
L 271.36255 446.07949 
L 274.517928 443.513226 
L 277.673307 444.154707 
L 280.828685 446.721188 
L 283.984064 442.070118 
L 287.139442 444.796247 
L 290.294821 441.508998 
L 293.450199 439.532148 
L 296.605578 448.405869 
L 299.760956 452.578593 
L 302.916335 444.448739 
L 306.071713 437.876422 
L 309.227092 432.646016 
L 312.38247 437.395828 
L 315.537849 437.82302 
L 318.693227 433.472852 
L 321.848606 437.636119 
L 325.003984 442.497672 
L 328.159363 443.994331 
L 331.314741 445.945809 
L 334.47012 445.999281 
L 337.625498 440.814352 
L 340.780876 443.646863 
L 343.936255 453.193909 
L 347.091633 456.297513 
L 350.247012 459.651102 
L 353.40239 461.987933 
L 356.557769 460.382476 
L 359.713147 460.302204 
L 362.868526 460.855194 
L 366.023904 455.066728 
L 369.179283 447.76405 
L 372.334661 437.289036 
L 375.49004 430.273168 
L 378.645418 430.726293 
L 381.800797 444.555663 
L 384.956175 444.422009 
L 388.111554 443.032155 
L 391.266932 437.662819 
L 394.422311 441.348688 
L 400.733068 440.386918 
L 403.888446 440.974647 
L 407.043825 440.787636 
L 410.199203 447.469897 
L 413.354582 448.566331 
L 416.50996 447.924501 
L 419.665339 441.108231 
L 422.820717 451.802794 
L 425.976096 458.598636 
L 429.131474 459.740294 
L 432.286853 459.205142 
L 435.442231 457.448065 
L 438.59761 456.538324 
L 441.752988 453.274169 
L 444.908367 454.558376 
L 448.063745 451.883047 
L 451.219124 451.027035 
L 454.374502 452.65885 
L 457.52988 455.30753 
L 460.685259 450.83979 
L 463.840637 458.33106 
L 466.996016 459.383526 
L 470.151394 460.195173 
L 473.306773 460.213012 
L 476.462151 459.775971 
L 479.61753 462.924449 
L 482.772908 464.565582 
L 485.928287 463.860965 
L 489.083665 462.540923 
L 492.239044 462.532004 
L 495.394422 463.25446 
L 498.549801 460.988982 
L 501.705179 462.523085 
L 504.860558 463.825289 
L 508.015936 464.315845 
L 511.171315 462.933368 
L 514.326693 465.48426 
L 517.482072 466.616999 
L 520.63745 467.125393 
L 523.792829 468.097587 
L 526.948207 464.529906 
L 530.103586 466.848898 
L 533.258964 466.456453 
L 536.414343 465.662644 
L 539.569721 464.48531 
L 542.7251 464.199895 
L 545.880478 464.262329 
L 549.035857 468.106506 
L 552.191235 465.136411 
L 555.346614 464.761805 
L 558.501992 462.514166 
L 564.812749 464.859916 
L 567.968127 466.367261 
L 571.123506 463.780693 
L 574.278884 463.299056 
L 577.434263 464.208814 
L 580.589641 464.886674 
L 583.74502 463.620147 
L 586.900398 465.252361 
L 590.055777 466.295908 
L 593.211155 466.438615 
L 596.366534 464.280168 
L 599.521912 464.735047 
L 602.677291 467.589192 
L 605.832669 469.114376 
L 608.988048 468.927072 
L 612.143426 466.857817 
L 615.298805 466.893494 
L 618.454183 464.69937 
L 621.609562 465.314795 
L 624.76494 463.415005 
L 627.920319 463.932319 
L 631.075697 465.109654 
L 634.231076 464.735047 
L 637.386454 461.524134 
L 640.541833 459.499475 
L 643.697211 459.740294 
L 646.85259 457.207249 
L 650.007968 456.939678 
L 653.163347 450.090836 
L 659.474104 454.852684 
L 662.629482 459.990031 
L 665.784861 459.731375 
L 668.940239 459.053515 
L 672.095618 455.146995 
L 675.250996 452.846119 
L 678.406375 456.565081 
L 681.561753 451.160783 
L 684.717131 461.042497 
L 687.87251 458.00997 
L 691.027888 456.725622 
L 694.183267 453.862754 
L 700.494024 446.534021 
L 703.649402 447.149014 
L 706.804781 444.876443 
L 713.115538 443.753775 
L 716.270916 443.513226 
L 719.426295 446.828143 
L 722.581673 441.722752 
L 725.737052 439.745828 
L 728.89243 439.371894 
L 732.047809 439.638987 
L 735.203187 446.801404 
L 738.358566 443.940874 
L 741.513944 443.860688 
L 744.669323 447.76405 
L 747.824701 442.150282 
L 750.98008 438.490581 
L 754.135458 437.022066 
L 757.290837 443.085605 
L 760.446215 447.951243 
L 763.601594 448.459356 
L 766.756972 447.951243 
L 769.912351 442.577842 
L 773.067729 444.315087 
L 776.223108 443.112331 
L 779.378486 443.24596 
L 782.533865 445.304172 
L 785.689243 442.89853 
L 788.844622 445.330906 
L 788.844622 445.330906 
" clip-path="url(#pa12764c937)" style="fill: none; stroke: #000000; stroke-width: 1.5; stroke-linecap: square"/>
   </g>
   <g id="line2d_2">
    <path d="M 0 459 
L 3.155378 459 
L 6.310757 459.273522 
L 9.466135 458.311948 
L 12.621514 458.550472 
L 15.776892 455.454256 
L 18.932271 455.148694 
L 22.087649 457.480511 
L 25.243028 459.531235 
L 31.553785 461.410843 
L 34.709163 462.194439 
L 37.864542 462.818013 
L 41.01992 463.729311 
L 44.175299 464.353585 
L 47.330677 465.513151 
L 50.486056 464.004057 
L 53.641434 462.911927 
L 56.796813 461.374816 
L 59.952191 460.067716 
L 63.10757 459.189402 
L 66.262948 459.379189 
L 69.418327 457.881744 
L 72.573705 456.757311 
L 75.729084 457.737254 
L 78.884462 458.996747 
L 85.195219 459.028437 
L 88.350598 459.964673 
L 91.505976 461.195908 
L 94.661355 462.759496 
L 100.972112 462.826583 
L 104.12749 463.307695 
L 107.282869 464.816055 
L 110.438247 466.564113 
L 113.593625 467.398706 
L 116.749004 469.191955 
L 119.904382 466.565897 
L 123.059761 465.896083 
L 126.215139 465.816194 
L 129.370518 464.86114 
L 132.525896 463.286254 
L 135.681275 462.047219 
L 138.836653 460.205596 
L 141.992032 460.841903 
L 145.14741 460.887268 
L 148.302789 460.773137 
L 151.458167 460.853865 
L 154.613546 459.850157 
L 157.768924 454.080986 
L 160.924303 452.527501 
L 164.079681 448.703931 
L 167.23506 449.405385 
L 170.390438 448.43041 
L 173.545817 449.058743 
L 176.701195 450.257406 
L 179.856574 449.660681 
L 186.167331 444.635961 
L 189.322709 443.521716 
L 192.478088 440.473135 
L 195.633466 442.119264 
L 198.788845 441.650452 
L 201.944223 443.719814 
L 205.099602 443.229924 
L 208.25498 436.799393 
L 211.410359 434.221384 
L 214.565737 432.45055 
L 217.721116 434.627667 
L 220.876494 435.623914 
L 224.031873 435.109019 
L 227.187251 435.860661 
L 230.342629 439.244636 
L 233.498008 433.698287 
L 236.653386 429.841627 
L 239.808765 428.625358 
L 242.964143 430.439673 
L 246.119522 425.370547 
L 249.2749 424.618768 
L 252.430279 427.686282 
L 255.585657 427.390929 
L 258.741036 431.284022 
L 261.896414 435.673837 
L 265.051793 438.336746 
L 268.207171 437.099015 
L 271.36255 441.115041 
L 274.517928 443.640365 
L 277.673307 443.601793 
L 280.828685 443.911629 
L 283.984064 445.338978 
L 287.139442 443.708389 
L 290.294821 444.259845 
L 293.450199 442.895386 
L 296.605578 441.202736 
L 299.760956 444.807988 
L 302.916335 448.710329 
L 306.071713 446.579843 
L 309.227092 442.20928 
L 312.38247 437.406822 
L 315.537849 437.386824 
L 318.693227 437.597693 
L 321.848606 435.522919 
L 325.003984 436.558307 
L 328.159363 439.507429 
L 334.47012 443.863203 
L 337.625498 444.957374 
L 340.780876 442.892242 
L 343.936255 443.280966 
L 347.091633 448.27488 
L 350.247012 452.322297 
L 353.40239 456.673787 
L 356.557769 460.121931 
L 366.023904 460.590066 
L 369.179283 459.146939 
L 372.334661 453.590911 
L 375.49004 445.398422 
L 378.645418 437.769933 
L 381.800797 434.17378 
L 384.956175 439.325808 
L 388.111554 441.837176 
L 391.266932 442.392458 
L 394.422311 439.993037 
L 397.577689 440.658251 
L 400.733068 440.796855 
L 403.888446 440.611736 
L 407.043825 440.813304 
L 410.199203 440.793084 
L 413.354582 444.136678 
L 416.50996 446.362062 
L 419.665339 447.16338 
L 422.820717 444.134686 
L 425.976096 447.989311 
L 429.131474 453.328935 
L 432.286853 457.314488 
L 435.442231 458.501889 
L 438.59761 457.994545 
L 441.752988 457.282065 
L 444.908367 455.288538 
L 448.063745 454.949843 
L 451.219124 453.41654 
L 454.374502 452.206897 
L 457.52988 452.416086 
L 460.685259 453.853311 
L 463.840637 452.333522 
L 466.996016 455.33565 
L 470.151394 457.756561 
L 473.306773 459.395593 
L 476.462151 459.811333 
L 479.61753 459.800385 
L 485.928287 462.983246 
L 489.083665 463.436971 
L 492.239044 462.996327 
L 495.394422 462.770339 
L 498.549801 463.018398 
L 501.705179 462.005212 
L 504.860558 462.269535 
L 508.015936 463.049178 
L 511.171315 463.682022 
L 514.326693 463.305876 
L 520.63745 465.516929 
L 526.948207 467.227107 
L 530.103586 465.882441 
L 533.258964 466.371598 
L 536.414343 466.418223 
L 539.569721 466.045785 
L 542.7251 465.263589 
L 545.880478 464.727002 
L 549.035857 464.489052 
L 552.191235 466.297796 
L 558.501992 465.235957 
L 561.657371 463.867331 
L 564.812749 463.775551 
L 567.968127 464.318468 
L 571.123506 465.347114 
L 574.278884 464.562959 
L 577.434263 463.921581 
L 580.589641 464.063379 
L 583.74502 464.475271 
L 586.900398 464.049878 
L 590.055777 464.65418 
L 593.211155 465.477859 
L 596.366534 465.958377 
L 599.521912 465.120252 
L 602.677291 464.930465 
L 608.988048 467.698706 
L 612.143426 468.323295 
L 615.298805 467.593704 
L 618.454183 467.244771 
L 621.609562 465.96866 
L 624.76494 465.643757 
L 627.920319 464.526793 
L 631.075697 464.222385 
L 634.231076 464.658167 
L 637.386454 464.688388 
L 640.541833 463.095803 
L 643.697211 461.283141 
L 646.85259 460.501994 
L 650.007968 459.43865 
L 653.163347 458.597797 
L 656.318725 454.297436 
L 659.474104 453.349184 
L 662.629482 454.059058 
L 665.784861 458.005458 
L 668.940239 459.200385 
L 672.095618 459.125603 
L 675.250996 457.257826 
L 678.406375 455.043855 
L 681.561753 455.817155 
L 684.717131 453.486204 
L 687.87251 459.108954 
L 691.027888 458.660651 
L 694.183267 457.684369 
L 697.338645 455.763118 
L 700.494024 452.930259 
L 703.649402 449.719313 
L 706.804781 448.415623 
L 709.960159 446.633529 
L 713.115538 445.460278 
L 716.270916 444.57904 
L 719.426295 444.020222 
L 722.581673 445.410269 
L 728.89243 441.634211 
L 732.047809 440.487697 
L 735.203187 440.05306 
L 738.358566 443.431158 
L 741.513944 443.686378 
L 744.669323 443.774214 
L 747.824701 445.770716 
L 750.98008 443.961104 
L 754.135458 441.222748 
L 757.290837 439.117382 
L 760.446215 441.107916 
L 763.601594 444.531028 
L 766.756972 446.503823 
L 769.912351 447.235526 
L 773.067729 444.896152 
L 776.223108 444.609859 
L 779.378486 443.870121 
L 782.533865 443.570244 
L 785.689243 444.441506 
L 788.844622 443.66007 
L 788.844622 443.66007 
" clip-path="url(#pa12764c937)" style="fill: none; stroke: #000000; stroke-width: 1.5; stroke-linecap: square"/>
   </g>
   <g id="line2d_3">
    <path d="M 0 459 
L 3.155378 459 
L 6.310757 459.240338 
L 9.466135 458.569946 
L 12.621514 458.643847 
L 15.776892 456.476257 
L 18.932271 455.932781 
L 22.087649 457.167545 
L 25.243028 459.067654 
L 41.01992 462.714909 
L 44.175299 463.374443 
L 47.330677 464.337322 
L 53.641434 463.218172 
L 63.10757 460.373214 
L 66.262948 460.146571 
L 69.418327 459.489754 
L 72.573705 459.026052 
L 75.729084 458.979075 
L 78.884462 459.118106 
L 85.195219 459.0705 
L 88.350598 459.600765 
L 91.505976 460.422824 
L 94.661355 461.557091 
L 104.12749 462.654379 
L 107.282869 463.728365 
L 110.438247 465.071239 
L 113.593625 466.000325 
L 116.749004 467.46361 
L 119.904382 466.438867 
L 123.059761 466.089288 
L 126.215139 465.99043 
L 129.370518 465.384929 
L 135.681275 463.300119 
L 138.836653 461.862756 
L 141.992032 461.759929 
L 148.302789 461.268655 
L 151.458167 461.174099 
L 154.613546 460.4925 
L 157.768924 458.521717 
L 160.924303 456.28525 
L 164.079681 452.910508 
L 167.23506 452.05678 
L 170.390438 450.698596 
L 173.545817 450.386693 
L 176.701195 450.683494 
L 179.856574 450.19177 
L 183.011952 448.530382 
L 186.167331 446.643352 
L 189.322709 445.388399 
L 192.478088 443.036472 
L 195.633466 443.230226 
L 198.788845 442.61376 
L 201.944223 443.528532 
L 205.099602 443.28669 
L 208.25498 439.499813 
L 211.410359 437.187633 
L 214.565737 435.277831 
L 217.721116 435.710773 
L 220.876494 435.972881 
L 224.031873 435.559247 
L 227.187251 435.861161 
L 230.342629 437.835751 
L 233.498008 434.982981 
L 236.653386 432.334468 
L 239.808765 430.877884 
L 242.964143 431.280381 
L 246.119522 428.0551 
L 249.2749 426.820364 
L 252.430279 427.962303 
L 255.585657 427.708276 
L 258.741036 429.892873 
L 261.896414 432.864032 
L 265.051793 435.242032 
L 268.207171 435.41828 
L 271.36255 438.243351 
L 274.517928 440.550616 
L 280.828685 442.226908 
L 283.984064 443.564293 
L 287.139442 443.145104 
L 290.294821 443.648657 
L 293.450199 443.032513 
L 296.605578 442.029136 
L 299.760956 443.924452 
L 302.916335 446.483416 
L 306.071713 445.907318 
L 309.227092 443.557203 
L 312.38247 440.350558 
L 315.537849 439.480886 
L 318.693227 438.997524 
L 321.848606 437.365433 
L 325.003984 437.435023 
L 331.314741 440.402901 
L 334.47012 442.025001 
L 337.625498 443.193316 
L 340.780876 442.491866 
L 343.936255 442.832591 
L 350.247012 448.940638 
L 353.40239 452.467989 
L 356.557769 457.033322 
L 359.713147 458.853137 
L 366.023904 459.807201 
L 369.179283 459.193366 
L 372.334661 456.135079 
L 375.49004 450.610961 
L 378.645418 444.633105 
L 381.800797 440.540764 
L 384.956175 441.714839 
L 388.111554 442.505823 
L 391.266932 442.662525 
L 394.422311 441.190816 
L 397.577689 441.223461 
L 400.733068 441.117288 
L 403.888446 440.879761 
L 410.199203 440.824883 
L 413.354582 442.752786 
L 416.50996 444.436716 
L 419.665339 445.44991 
L 422.820717 444.17033 
L 425.976096 446.421842 
L 429.131474 450.019839 
L 432.286853 453.335093 
L 435.442231 455.191747 
L 438.59761 455.867559 
L 441.752988 456.07954 
L 444.908367 455.275782 
L 448.063745 455.080838 
L 454.374502 453.252264 
L 457.52988 453.091884 
L 460.685259 453.757494 
L 463.840637 452.906735 
L 470.151394 456.173656 
L 473.306773 458.076303 
L 476.462151 459.141714 
L 479.61753 459.328528 
L 482.772908 460.385407 
L 485.928287 461.615909 
L 489.083665 462.279648 
L 495.394422 462.417465 
L 498.549801 462.669202 
L 501.705179 462.182087 
L 504.860558 462.289062 
L 511.171315 463.214011 
L 514.326693 463.139455 
L 517.482072 463.833937 
L 526.948207 466.190823 
L 530.103586 465.709812 
L 533.258964 466.04795 
L 536.414343 466.16977 
L 539.569721 466.023306 
L 545.880478 465.174207 
L 549.035857 464.908282 
L 552.191235 465.853195 
L 558.501992 465.388282 
L 561.657371 464.544403 
L 564.812749 464.295465 
L 567.968127 464.460071 
L 571.123506 465.018388 
L 577.434263 464.250244 
L 580.589641 464.237741 
L 583.74502 464.425555 
L 586.900398 464.186399 
L 590.055777 464.49814 
L 596.366534 465.442864 
L 599.521912 465.102339 
L 602.677291 464.990889 
L 605.832669 465.754732 
L 608.988048 466.743748 
L 612.143426 467.390595 
L 618.454183 467.139563 
L 621.609562 466.422931 
L 624.76494 466.100128 
L 627.920319 465.313807 
L 631.075697 464.908861 
L 634.231076 464.967928 
L 637.386454 464.900999 
L 640.541833 463.907656 
L 643.697211 462.608724 
L 646.85259 461.760886 
L 650.007968 460.770461 
L 653.163347 460.043376 
L 656.318725 458.563743 
L 659.474104 456.744796 
L 662.629482 456.15163 
L 665.784861 457.83213 
L 668.940239 458.792154 
L 672.095618 458.880599 
L 675.250996 457.760843 
L 678.406375 456.298993 
L 681.561753 456.357136 
L 684.717131 454.804975 
L 687.87251 457.815566 
L 691.027888 457.862671 
L 694.183267 457.525302 
L 697.338645 456.444074 
L 700.494024 454.582736 
L 703.649402 452.212867 
L 706.804781 450.726093 
L 709.960159 449.003652 
L 713.115538 447.633768 
L 716.270916 446.476237 
L 719.426295 445.587974 
L 722.581673 445.937035 
L 725.737052 444.687026 
L 728.89243 443.224346 
L 732.047809 442.075999 
L 735.203187 441.348883 
L 738.358566 442.924415 
L 744.669323 443.382957 
L 747.824701 444.65889 
L 750.98008 443.914891 
L 757.290837 440.753575 
L 760.446215 441.434462 
L 763.601594 443.34668 
L 766.756972 444.849206 
L 769.912351 445.762748 
L 773.067729 444.824883 
L 776.223108 444.678542 
L 779.378486 444.223641 
L 782.533865 443.941722 
L 785.689243 444.347257 
L 788.844622 443.918421 
L 788.844622 443.918421 
" clip-path="url(#pa12764c937)" style="fill: none; stroke: #000000; stroke-width: 1.5; stroke-linecap: square"/>
   </g>
   <g id="line2d_4">
    <path d="M 0 459 
L 3.155378 459 
L 6.310757 459.222871 
L 9.466135 458.692112 
L 12.621514 458.713454 
L 15.776892 457.02181 
L 18.932271 456.487932 
L 22.087649 457.232393 
L 25.243028 458.600717 
L 28.398406 459.393231 
L 44.175299 462.249806 
L 47.330677 463.005032 
L 53.641434 462.732679 
L 59.952191 461.678098 
L 63.10757 461.128394 
L 66.262948 460.876807 
L 72.573705 459.990735 
L 78.884462 459.754832 
L 85.195219 459.542449 
L 88.350598 459.758677 
L 91.505976 460.184271 
L 94.661355 460.842417 
L 104.12749 461.800755 
L 107.282869 462.520246 
L 110.438247 463.442168 
L 113.593625 464.205684 
L 116.749004 465.287803 
L 119.904382 465.077505 
L 126.215139 465.205505 
L 129.370518 465.000193 
L 135.681275 463.898632 
L 138.836653 463.021031 
L 151.458167 461.995328 
L 154.613546 461.495633 
L 157.768924 460.442704 
L 160.924303 459.788761 
L 164.079681 458.742965 
L 167.23506 457.37237 
L 170.390438 455.799917 
L 173.545817 454.832391 
L 176.701195 454.298991 
L 179.856574 453.464915 
L 183.011952 452.04645 
L 186.167331 450.464939 
L 189.322709 449.1702 
L 192.478088 447.28853 
L 195.633466 446.710885 
L 198.788845 445.81806 
L 201.944223 445.80167 
L 205.099602 445.299377 
L 208.25498 442.899896 
L 211.410359 441.079722 
L 214.565737 439.396129 
L 220.876494 438.559036 
L 224.031873 437.905303 
L 227.187251 437.678805 
L 230.342629 438.4471 
L 236.653386 435.045535 
L 239.808765 433.813122 
L 242.964143 433.546653 
L 246.119522 431.419646 
L 249.2749 430.198618 
L 252.430279 430.269847 
L 255.585657 429.754694 
L 258.741036 430.606007 
L 265.051793 433.499405 
L 268.207171 433.864 
L 274.517928 437.296024 
L 280.828685 439.210986 
L 283.984064 440.406597 
L 287.139442 440.671171 
L 290.294821 441.328788 
L 293.450199 441.359977 
L 296.605578 441.066474 
L 299.760956 442.238166 
L 302.916335 443.886717 
L 306.071713 443.977184 
L 309.227092 443.010772 
L 312.38247 441.360935 
L 315.537849 440.734047 
L 318.693227 440.271421 
L 321.848606 439.187133 
L 325.003984 438.942213 
L 328.159363 439.511399 
L 331.314741 440.225272 
L 334.47012 441.146188 
L 337.625498 441.93058 
L 340.780876 441.76134 
L 343.936255 442.068398 
L 347.091633 443.858026 
L 350.247012 445.856411 
L 353.40239 448.276159 
L 356.557769 451.433071 
L 359.713147 453.314061 
L 366.023904 456.414183 
L 369.179283 456.211798 
L 372.334661 454.869159 
L 375.49004 452.06446 
L 378.645418 448.58447 
L 381.800797 445.731264 
L 388.111554 445.365984 
L 391.266932 444.993512 
L 394.422311 443.824195 
L 407.043825 442.338799 
L 410.199203 442.093794 
L 416.50996 443.857111 
L 419.665339 444.510409 
L 422.820717 443.973764 
L 425.976096 445.227764 
L 432.286853 449.578812 
L 435.442231 451.183847 
L 438.59761 452.187516 
L 441.752988 452.889499 
L 444.908367 452.95671 
L 448.063745 453.212383 
L 457.52988 452.665661 
L 460.685259 453.081077 
L 463.840637 452.716931 
L 466.996016 453.606187 
L 470.151394 454.650516 
L 473.306773 455.922189 
L 476.462151 457.006664 
L 479.61753 457.713583 
L 482.772908 459.272148 
L 485.928287 460.12083 
L 489.083665 460.721965 
L 498.549801 461.587523 
L 501.705179 461.497296 
L 504.860558 461.666574 
L 511.171315 462.389689 
L 514.326693 462.481043 
L 520.63745 463.553171 
L 526.948207 464.768697 
L 530.103586 464.734238 
L 533.258964 465.075124 
L 536.414343 465.299423 
L 539.569721 465.361692 
L 549.035857 464.943466 
L 552.191235 465.453879 
L 558.501992 465.310822 
L 561.657371 464.868824 
L 564.812749 464.686133 
L 567.968127 464.717577 
L 571.123506 464.984405 
L 580.589641 464.506069 
L 583.74502 464.567849 
L 586.900398 464.416476 
L 590.055777 464.550337 
L 596.366534 465.088715 
L 602.677291 464.927146 
L 605.832669 465.353848 
L 608.988048 465.955461 
L 612.143426 466.431132 
L 618.454183 466.56472 
L 621.609562 466.26674 
L 624.76494 466.114152 
L 627.920319 465.681787 
L 631.075697 465.403067 
L 637.386454 465.255541 
L 640.541833 464.659278 
L 643.697211 463.835224 
L 650.007968 462.416989 
L 653.163347 461.757955 
L 656.318725 460.84092 
L 659.474104 460.19824 
L 662.629482 459.784583 
L 668.940239 459.798463 
L 672.095618 459.675376 
L 675.250996 459.35979 
L 681.561753 458.531181 
L 684.717131 457.3425 
L 687.87251 458.576289 
L 691.027888 458.473865 
L 694.183267 458.180635 
L 697.338645 457.476487 
L 700.494024 456.290083 
L 703.649402 454.718953 
L 706.804781 453.490817 
L 709.960159 452.092081 
L 716.270916 449.683924 
L 719.426295 448.677431 
L 722.581673 448.364924 
L 725.737052 447.28517 
L 728.89243 446.064837 
L 732.047809 444.978057 
L 735.203187 444.104802 
L 738.358566 444.515447 
L 744.669323 444.312157 
L 747.824701 444.852875 
L 750.98008 444.413422 
L 757.290837 442.426395 
L 760.446215 442.525404 
L 766.756972 444.182949 
L 769.912351 444.774121 
L 773.067729 444.414298 
L 776.223108 444.391759 
L 782.533865 444.024852 
L 785.689243 444.224729 
L 788.844622 443.99985 
L 788.844622 443.99985 
" clip-path="url(#pa12764c937)" style="fill: none; stroke: #000000; stroke-width: 1.5; stroke-linecap: square"/>
   </g>
   <g id="line2d_5">
    <path d="M 0 459 
L 3.155378 459 
L 6.310757 459.214023 
L 9.466135 458.749511 
L 12.621514 458.752252 
L 15.776892 457.288456 
L 18.932271 456.789773 
L 22.087649 457.334779 
L 25.243028 458.388457 
L 28.398406 459.207438 
L 44.175299 461.48959 
L 47.330677 462.077699 
L 53.641434 462.090241 
L 59.952191 461.538118 
L 63.10757 461.214788 
L 66.262948 461.053716 
L 72.573705 460.474154 
L 82.039841 460.129726 
L 85.195219 460.030058 
L 88.350598 460.108429 
L 91.505976 460.316845 
L 94.661355 460.673796 
L 104.12749 461.278613 
L 107.282869 461.718127 
L 116.749004 463.508381 
L 123.059761 463.689271 
L 126.215139 463.863686 
L 129.370518 463.867264 
L 135.681275 463.442849 
L 138.836653 463.015061 
L 151.458167 462.416124 
L 154.613546 462.117212 
L 157.768924 461.51 
L 160.924303 461.075852 
L 164.079681 460.507914 
L 173.545817 459.400566 
L 176.701195 459.158154 
L 179.856574 458.607185 
L 189.322709 455.014859 
L 192.478088 453.550633 
L 195.633466 452.735656 
L 198.788845 451.774904 
L 201.944223 451.277956 
L 205.099602 450.56584 
L 208.25498 448.882892 
L 214.565737 446.04703 
L 224.031873 443.719144 
L 227.187251 443.123179 
L 230.342629 443.074611 
L 239.808765 439.392666 
L 242.964143 438.787168 
L 246.119522 437.237216 
L 249.2749 436.110464 
L 252.430279 435.6552 
L 255.585657 434.936026 
L 258.741036 434.945519 
L 265.051793 435.818263 
L 268.207171 435.8126 
L 274.517928 437.359248 
L 280.828685 438.381311 
L 283.984064 439.069028 
L 287.139442 439.312499 
L 290.294821 439.760976 
L 293.450199 439.897019 
L 296.605578 439.855242 
L 299.760956 440.557364 
L 302.916335 441.548488 
L 306.071713 441.779763 
L 309.227092 441.441716 
L 312.38247 440.693511 
L 318.693227 440.170969 
L 321.848606 439.601589 
L 325.003984 439.42543 
L 331.314741 440.017685 
L 337.625498 440.952584 
L 340.780876 440.935781 
L 343.936255 441.1533 
L 347.091633 442.148132 
L 350.247012 443.319109 
L 353.40239 444.780358 
L 356.557769 446.706305 
L 359.713147 448.075575 
L 366.023904 450.582081 
L 369.179283 450.955832 
L 372.334661 450.690972 
L 375.49004 449.573754 
L 378.645418 447.962752 
L 381.800797 446.524351 
L 391.266932 445.937885 
L 394.422311 445.250751 
L 410.199203 443.709742 
L 419.665339 444.70466 
L 422.820717 444.407551 
L 425.976096 445.026685 
L 429.131474 446.159643 
L 432.286853 447.415105 
L 435.442231 448.437541 
L 438.59761 449.19541 
L 441.752988 449.814191 
L 451.219124 450.613464 
L 454.374502 450.654387 
L 457.52988 450.829053 
L 460.685259 451.207266 
L 463.840637 451.180292 
L 470.151394 452.481927 
L 476.462151 454.104333 
L 479.61753 454.709616 
L 482.772908 456.051432 
L 485.928287 457.691312 
L 489.083665 459.006835 
L 498.549801 459.882869 
L 501.705179 459.976469 
L 508.015936 460.494562 
L 511.171315 460.815737 
L 514.326693 460.995634 
L 520.63745 461.812668 
L 526.948207 462.748878 
L 530.103586 462.900287 
L 536.414343 463.503633 
L 539.569721 463.686402 
L 549.035857 463.837623 
L 552.191235 464.19518 
L 558.501992 464.316382 
L 564.812749 464.129097 
L 567.968127 464.191055 
L 571.123506 464.374496 
L 580.589641 464.248048 
L 583.74502 464.306039 
L 586.900398 464.252184 
L 593.211155 464.50535 
L 596.366534 464.670541 
L 602.677291 464.653346 
L 608.988048 465.256699 
L 612.143426 465.566533 
L 618.454183 465.782136 
L 637.386454 465.289068 
L 640.541833 464.977583 
L 656.318725 462.613805 
L 662.629482 461.759077 
L 672.095618 461.257932 
L 684.717131 460.088446 
L 687.87251 460.166481 
L 694.183267 459.889903 
L 700.494024 459.368304 
L 703.649402 458.972327 
L 709.960159 456.886024 
L 716.270916 454.824751 
L 719.426295 453.874186 
L 722.581673 453.277857 
L 735.203187 449.353664 
L 738.358566 449.130565 
L 744.669323 448.277269 
L 747.824701 448.225943 
L 750.98008 447.710896 
L 757.290837 446.093652 
L 760.446215 445.833152 
L 769.912351 446.33403 
L 773.067729 446.009679 
L 779.378486 445.622167 
L 782.533865 445.414716 
L 785.689243 445.395343 
L 788.844622 445.17834 
L 788.844622 445.17834 
" clip-path="url(#pa12764c937)" style="fill: none; stroke: #000000; stroke-width: 1.5; stroke-linecap: square"/>
   </g>
   <g id="line2d_6">
    <path d="M 0 459 
L 3.155378 459 
L 6.310757 459.209585 
L 9.466135 458.777065 
L 12.621514 458.772299 
L 15.776892 457.418064 
L 18.932271 456.942883 
L 22.087649 457.402051 
L 28.398406 459.126129 
L 44.175299 461.088779 
L 47.330677 461.581625 
L 53.641434 461.671448 
L 59.952191 461.320656 
L 66.262948 460.994554 
L 72.573705 460.588377 
L 85.195219 460.245997 
L 91.505976 460.41122 
L 97.816733 460.760271 
L 104.12749 461.040323 
L 110.438247 461.706769 
L 113.593625 462.055586 
L 116.749004 462.52782 
L 123.059761 462.738003 
L 129.370518 462.943576 
L 135.681275 462.779512 
L 138.836653 462.561535 
L 151.458167 462.279789 
L 154.613546 462.115385 
L 164.079681 461.170007 
L 189.322709 459.205119 
L 195.633466 457.929381 
L 198.788845 457.170874 
L 201.944223 456.657043 
L 205.099602 456.030284 
L 211.410359 453.835801 
L 214.565737 452.800249 
L 227.187251 450.029356 
L 230.342629 449.701715 
L 239.808765 446.847514 
L 242.964143 446.206055 
L 246.119522 445.069282 
L 249.2749 444.139992 
L 252.430279 443.55459 
L 255.585657 442.836772 
L 258.741036 442.501204 
L 265.051793 442.329798 
L 268.207171 442.047722 
L 283.984064 442.657269 
L 287.139442 442.631882 
L 290.294821 442.725367 
L 296.605578 442.53736 
L 299.760956 442.790196 
L 302.916335 443.211539 
L 306.071713 443.264784 
L 309.227092 443.032914 
L 312.38247 442.586004 
L 318.693227 442.167929 
L 321.848606 441.794497 
L 325.003984 441.616074 
L 331.314741 441.754138 
L 337.625498 442.107625 
L 340.780876 442.052275 
L 343.936255 442.120479 
L 350.247012 443.179031 
L 353.40239 443.937943 
L 356.557769 444.963438 
L 366.023904 447.24366 
L 369.179283 447.577324 
L 372.334661 447.585289 
L 375.49004 447.14592 
L 381.800797 445.755615 
L 391.266932 445.538318 
L 394.422311 445.202736 
L 410.199203 444.351646 
L 419.665339 444.791507 
L 422.820717 444.633023 
L 425.976096 444.935556 
L 438.59761 447.197498 
L 441.752988 447.59076 
L 451.219124 448.264447 
L 457.52988 448.557476 
L 460.685259 448.842549 
L 463.840637 448.925973 
L 470.151394 449.783565 
L 476.462151 450.850307 
L 479.61753 451.294854 
L 482.772908 452.122244 
L 485.928287 453.124316 
L 489.083665 453.993986 
L 498.549801 455.988554 
L 501.705179 456.368306 
L 504.860558 456.927801 
L 511.171315 458.362642 
L 514.326693 458.887285 
L 526.948207 460.221467 
L 533.258964 460.677667 
L 539.569721 461.125182 
L 561.657371 462.07977 
L 567.968127 462.265998 
L 571.123506 462.441593 
L 590.055777 462.85393 
L 599.521912 463.199755 
L 602.677291 463.266786 
L 618.454183 464.170837 
L 637.386454 464.266195 
L 643.697211 463.956767 
L 653.163347 463.333336 
L 659.474104 462.763648 
L 665.784861 462.439391 
L 675.250996 461.999201 
L 684.717131 461.411599 
L 691.027888 461.282239 
L 697.338645 460.990757 
L 709.960159 460.042266 
L 722.581673 459.117136 
L 725.737052 458.60504 
L 735.203187 456.2846 
L 741.513944 455.37575 
L 744.669323 454.887861 
L 747.824701 454.586456 
L 750.98008 454.057105 
L 757.290837 452.695021 
L 760.446215 452.283305 
L 769.912351 451.768517 
L 776.223108 451.076559 
L 782.533865 450.424073 
L 788.844622 449.899033 
L 788.844622 449.899033 
" clip-path="url(#pa12764c937)" style="fill: none; stroke: #000000; stroke-width: 1.5; stroke-linecap: square"/>
   </g>
   <g id="line2d_7">
    <path d="M 0 459 
L 3.155378 459 
L 6.310757 459.207363 
L 9.466135 458.79053 
L 12.621514 458.782436 
L 15.776892 457.481674 
L 18.932271 457.019431 
L 22.087649 457.439264 
L 28.398406 459.089035 
L 44.175299 460.890031 
L 47.330677 461.334466 
L 53.641434 461.446615 
L 59.952191 461.177664 
L 69.418327 460.750566 
L 75.729084 460.506964 
L 88.350598 460.343194 
L 104.12749 460.923325 
L 110.438247 461.431754 
L 119.904382 462.131246 
L 129.370518 462.431452 
L 135.681275 462.350789 
L 138.836653 462.213096 
L 151.458167 462.059556 
L 154.613546 461.954931 
L 164.079681 461.32402 
L 189.322709 459.942022 
L 195.633466 459.537058 
L 205.099602 459.055551 
L 217.721116 456.306123 
L 227.187251 454.684815 
L 230.342629 454.359484 
L 239.808765 452.23863 
L 242.964143 451.710664 
L 246.119522 450.884987 
L 249.2749 450.177975 
L 258.741036 448.728148 
L 271.36255 447.918182 
L 283.984064 447.647774 
L 296.605578 447.103402 
L 306.071713 447.199803 
L 309.227092 446.97271 
L 312.38247 446.624596 
L 328.159363 445.612781 
L 343.936255 445.436152 
L 350.247012 445.870629 
L 353.40239 446.224957 
L 356.557769 446.734579 
L 366.023904 447.885319 
L 369.179283 448.05241 
L 372.334661 448.045711 
L 375.49004 447.79609 
L 381.800797 447.004304 
L 391.266932 446.800898 
L 397.577689 446.470742 
L 410.199203 445.967136 
L 419.665339 446.101963 
L 422.820717 445.988706 
L 425.976096 446.120321 
L 441.752988 447.470935 
L 460.685259 448.190343 
L 463.840637 448.249561 
L 470.151394 448.735065 
L 479.61753 449.613003 
L 485.928287 450.652297 
L 492.239044 451.570696 
L 514.326693 454.355662 
L 520.63745 455.481611 
L 526.948207 456.761056 
L 530.103586 457.175396 
L 536.414343 458.252935 
L 539.569721 458.70846 
L 542.7251 459.025395 
L 583.74502 460.418413 
L 593.211155 460.716494 
L 624.76494 461.85547 
L 643.697211 461.994946 
L 653.163347 461.792169 
L 662.629482 461.477148 
L 675.250996 461.278112 
L 684.717131 461.017299 
L 694.183267 460.908194 
L 703.649402 460.599379 
L 728.89243 459.537312 
L 747.824701 458.532417 
L 754.135458 457.754609 
L 757.290837 457.307528 
L 763.601594 456.806002 
L 769.912351 456.439312 
L 782.533865 455.344495 
L 788.844622 454.864948 
L 788.844622 454.864948 
" clip-path="url(#pa12764c937)" style="fill: none; stroke: #000000; stroke-width: 1.5; stroke-linecap: square"/>
   </g>
   <g id="line2d_8">
    <path d="M 0 459 
L 3.155378 459 
L 6.310757 459.206253 
L 9.466135 458.797181 
L 12.621514 458.787526 
L 15.776892 457.513148 
L 18.932271 457.057634 
L 22.087649 457.458694 
L 28.398406 459.071443 
L 47.330677 461.212405 
L 53.641434 461.332021 
L 59.952191 461.098975 
L 72.573705 460.58572 
L 85.195219 460.338081 
L 91.505976 460.442979 
L 97.816733 460.675019 
L 104.12749 460.863574 
L 113.593625 461.530484 
L 116.749004 461.837861 
L 132.525896 462.162835 
L 154.613546 461.834516 
L 167.23506 461.210179 
L 211.410359 459.122112 
L 217.721116 458.323796 
L 227.187251 457.003063 
L 230.342629 456.71962 
L 239.808765 455.03428 
L 242.964143 454.600292 
L 249.2749 453.388141 
L 258.741036 452.172837 
L 271.36255 451.353909 
L 283.984064 450.929401 
L 296.605578 450.33387 
L 306.071713 450.241875 
L 318.693227 449.361385 
L 325.003984 448.921239 
L 334.47012 448.698156 
L 340.780876 448.533222 
L 343.936255 448.457235 
L 350.247012 448.650091 
L 356.557769 449.13036 
L 366.023904 449.774384 
L 372.334661 449.822523 
L 378.645418 449.348834 
L 381.800797 449.073772 
L 391.266932 448.854103 
L 400.733068 448.474647 
L 410.199203 448.146201 
L 425.976096 448.09338 
L 444.908367 448.868732 
L 454.374502 449.014756 
L 466.996016 449.295321 
L 479.61753 449.945619 
L 501.705179 451.800077 
L 511.171315 452.6072 
L 517.482072 453.175619 
L 536.414343 455.317656 
L 542.7251 455.872997 
L 549.035857 456.348507 
L 552.191235 456.728437 
L 558.501992 457.233781 
L 564.812749 457.586302 
L 580.589641 458.678441 
L 586.900398 459.025276 
L 615.298805 459.829604 
L 627.920319 460.080772 
L 643.697211 460.249659 
L 659.474104 460.108253 
L 687.87251 459.945049 
L 703.649402 459.774288 
L 732.047809 459.171025 
L 744.669323 458.780141 
L 750.98008 458.459131 
L 760.446215 457.806208 
L 776.223108 457.149692 
L 788.844622 456.535841 
L 788.844622 456.535841 
" clip-path="url(#pa12764c937)" style="fill: none; stroke: #000000; stroke-width: 1.5; stroke-linecap: square"/>
   </g>
   <g id="line2d_9">
    <path d="M 0 459 
L 3.155378 459 
L 6.310757 459.205697 
L 9.466135 458.800486 
L 12.621514 458.790076 
L 15.776892 457.528799 
L 18.932271 457.076708 
L 22.087649 457.468606 
L 28.398406 459.062892 
L 47.330677 461.151916 
L 53.641434 461.274411 
L 66.262948 460.84797 
L 75.729084 460.504022 
L 88.350598 460.366423 
L 104.12749 460.83313 
L 113.593625 461.448373 
L 116.749004 461.731045 
L 135.681275 462.010455 
L 141.992032 461.908475 
L 154.613546 461.76575 
L 170.390438 461.090429 
L 189.322709 460.371568 
L 198.788845 459.957277 
L 208.25498 459.559652 
L 220.876494 458.863977 
L 227.187251 458.088376 
L 230.342629 457.832612 
L 249.2749 454.935267 
L 258.741036 453.859772 
L 271.36255 453.088516 
L 290.294821 452.392764 
L 299.760956 452.022682 
L 306.071713 451.929851 
L 331.314741 450.561839 
L 347.091633 450.286235 
L 353.40239 450.483876 
L 359.713147 450.836096 
L 369.179283 451.179247 
L 372.334661 451.14018 
L 378.645418 450.748188 
L 381.800797 450.52292 
L 394.422311 450.168972 
L 413.354582 449.654412 
L 429.131474 449.652889 
L 438.59761 449.950423 
L 451.219124 450.113568 
L 463.840637 450.205147 
L 476.462151 450.616751 
L 482.772908 450.912056 
L 492.239044 451.534739 
L 517.482072 452.989038 
L 539.569721 454.740003 
L 577.434263 456.852085 
L 602.677291 458.171102 
L 615.298805 459.032457 
L 634.231076 459.314702 
L 646.85259 459.380172 
L 706.804781 459.14465 
L 722.581673 458.878848 
L 747.824701 457.940374 
L 773.067729 457.106116 
L 788.844622 456.625806 
L 788.844622 456.625806 
" clip-path="url(#pa12764c937)" style="fill: none; stroke: #000000; stroke-width: 1.5; stroke-linecap: square"/>
   </g>
  </g>
 </g>
 <defs>
  <clipPath id="pa12764c937">
   <rect x="0" y="0" width="792" height="612"/>
  </clipPath>
 </defs>
</svg>
