<?xml version="1.0" encoding="utf-8" standalone="no"?>
<!DOCTYPE svg PUBLIC "-//W3C//DTD SVG 1.1//EN"
  "http://www.w3.org/Graphics/SVG/1.1/DTD/svg11.dtd">
<svg xmlns:xlink="http://www.w3.org/1999/xlink" width="792pt" height="612pt" viewBox="0 0 792 612" xmlns="http://www.w3.org/2000/svg" version="1.1">
 <metadata>
  <rdf:RDF xmlns:dc="http://purl.org/dc/elements/1.1/" xmlns:cc="http://creativecommons.org/ns#" xmlns:rdf="http://www.w3.org/1999/02/22-rdf-syntax-ns#">
   <cc:Work>
    <dc:type rdf:resource="http://purl.org/dc/dcmitype/StillImage"/>
    <dc:date>2023-01-30T17:17:31.265767</dc:date>
    <dc:format>image/svg+xml</dc:format>
    <dc:creator>
     <cc:Agent>
      <dc:title>Matplotlib v3.6.2, https://matplotlib.org/</dc:title>
     </cc:Agent>
    </dc:creator>
   </cc:Work>
  </rdf:RDF>
 </metadata>
 <defs>
  <style type="text/css">*{stroke-linejoin: round; stroke-linecap: butt}</style>
 </defs>
 <g id="figure_1">
  <g id="patch_1">
   <path d="M 0 612 
L 792 612 
L 792 0 
L 0 0 
z
" style="fill: #ffffff"/>
  </g>
  <g id="axes_1">
   <g id="line2d_1">
    <path d="M 0 459 
L 3.168 445.878829 
L 6.336 443.768496 
L 9.504 437.55413 
L 12.672 434.182966 
L 15.84 432.779085 
L 19.008 436.739206 
L 22.176 431.431822 
L 25.344 431.459886 
L 28.512 434.632307 
L 31.68 436.233461 
L 34.848 434.969344 
L 38.016 435.02552 
L 41.184 440.843252 
L 44.352 445.653699 
L 47.52 451.593329 
L 50.688 446.779412 
L 53.856 447.060864 
L 57.024 449.932149 
L 60.192 457.901579 
L 63.36 460.718046 
L 66.528 460.64294 
L 69.696 463.534516 
L 72.864 450.467081 
L 76.032 454.493794 
L 79.2 456.099075 
L 82.368 450.354462 
L 85.536 443.487165 
L 88.704 440.674531 
L 91.872 433.003674 
L 95.04 442.812018 
L 98.208 441.011979 
L 101.376 440.168397 
L 104.544 441.0401 
L 107.712 434.463799 
L 110.88 421.987636 
L 114.048 426.524135 
L 117.216 420.141466 
L 120.384 425.627502 
L 123.552 422.855196 
L 126.72 425.179282 
L 129.888 427.028601 
L 133.056 424.507072 
L 136.224 419.805933 
L 139.392 417.262873 
L 142.56 417.514272 
L 145.728 412.351887 
L 148.896 418.939336 
L 152.064 416.257531 
L 155.232 421.064397 
L 158.4 417.877448 
L 161.568 405.005943 
L 164.736 406.311805 
L 167.904 405.311491 
L 171.072 411.655151 
L 174.24 411.487967 
L 177.408 409.371423 
L 180.576 411.487967 
L 183.744 417.737759 
L 186.912 402.64654 
L 190.08 400.400977 
L 193.248 401.869981 
L 196.416 406.923358 
L 199.584 394.537449 
L 202.752 398.213602 
L 205.92 405.367051 
L 209.088 401.592718 
L 212.256 409.928205 
L 215.424 415.001437 
L 218.592 415.978343 
L 221.76 410.65224 
L 224.928 420.25332 
L 228.096 421.344134 
L 231.264 418.659849 
L 234.432 419.330667 
L 237.6 422.015618 
L 240.768 417.151148 
L 243.936 420.001656 
L 247.104 416.564676 
L 250.272 414.499184 
L 253.44 423.779014 
L 256.608 428.149912 
L 259.776 419.638182 
L 262.944 412.770033 
L 266.112 407.312626 
L 269.28 412.268267 
L 272.448 412.714275 
L 275.616 408.174844 
L 278.784 412.519136 
L 281.952 417.598077 
L 285.12 419.162946 
L 288.288 421.204262 
L 291.456 421.26021 
L 294.624 415.83876 
L 297.792 418.799589 
L 300.96 428.794835 
L 304.128 432.04926 
L 307.296 436.935899 
L 310.464 444.303056 
L 313.632 439.240605 
L 316.8 438.987599 
L 319.968 440.730771 
L 323.136 430.758368 
L 326.304 423.107118 
L 329.472 412.156779 
L 332.64 404.8393 
L 335.808 405.311491 
L 338.976 419.750015 
L 342.144 419.610225 
L 345.312 418.15685 
L 348.48 412.547012 
L 351.648 416.397138 
L 357.984 415.392151 
L 361.152 416.00626 
L 364.32 415.810845 
L 367.488 422.799217 
L 370.656 423.947012 
L 373.824 423.275077 
L 376.992 416.145852 
L 380.16 427.336924 
L 383.328 434.463799 
L 386.496 437.216903 
L 389.664 435.53113 
L 392.832 433.256351 
L 396 432.301877 
L 399.168 428.878964 
L 402.336 430.225303 
L 405.504 427.421017 
L 408.672 426.524135 
L 411.84 428.234026 
L 415.008 431.010899 
L 418.176 426.327975 
L 421.344 434.182966 
L 424.512 436.092986 
L 427.68 438.650276 
L 430.848 438.706495 
L 434.016 437.32931 
L 437.184 447.257886 
L 440.352 452.438074 
L 443.52 450.213689 
L 446.688 446.047681 
L 449.856 446.019539 
L 453.024 448.299356 
L 456.192 441.152587 
L 459.36 445.991397 
L 462.528 450.101072 
L 465.696 451.649644 
L 468.864 447.286032 
L 472.032 455.338668 
L 475.2 458.915506 
L 478.368 459.506964 
L 481.536 460.530282 
L 484.704 452.325438 
L 487.872 459.215929 
L 491.04 458.408542 
L 494.208 455.901931 
L 497.376 452.184645 
L 500.544 451.283601 
L 503.712 451.4807 
L 506.88 460.53967 
L 510.048 454.240338 
L 513.216 453.057582 
L 516.384 445.963254 
L 522.72 453.367344 
L 525.888 458.126896 
L 529.056 449.960303 
L 532.224 448.440104 
L 535.392 451.311758 
L 538.56 453.451826 
L 541.728 449.453546 
L 544.896 454.606442 
L 548.064 457.901579 
L 551.232 458.352212 
L 554.4 451.537014 
L 557.568 452.973102 
L 560.736 459.995152 
L 563.904 461.60054 
L 567.072 461.403387 
L 570.24 459.225318 
L 573.408 459.26287 
L 576.576 452.860463 
L 579.744 454.803578 
L 582.912 448.806058 
L 586.08 450.438926 
L 589.248 454.155853 
L 592.416 452.973102 
L 595.584 442.840148 
L 598.752 436.45823 
L 601.92 437.216903 
L 605.088 433.003674 
L 608.256 432.72294 
L 611.424 425.543456 
L 617.76 430.533911 
L 620.928 438.003802 
L 624.096 437.188802 
L 627.264 435.053608 
L 630.432 430.842543 
L 633.6 428.430298 
L 636.768 432.329946 
L 639.936 426.664257 
L 643.104 441.321322 
L 646.272 433.845991 
L 649.44 432.498367 
L 652.608 429.495973 
L 658.944 421.819752 
L 662.112 422.463362 
L 665.28 420.085541 
L 671.616 418.911386 
L 674.784 418.659849 
L 677.952 422.127547 
L 681.12 416.788077 
L 684.288 414.722394 
L 687.456 414.33179 
L 690.624 414.610786 
L 693.792 422.099564 
L 696.96 419.107042 
L 700.128 419.023188 
L 703.296 423.107118 
L 706.464 417.234941 
L 709.632 413.41134 
L 712.8 411.878083 
L 715.968 418.212734 
L 719.136 423.303071 
L 722.304 423.835012 
L 725.472 423.303071 
L 728.64 417.681885 
L 731.808 419.498398 
L 734.976 418.240676 
L 738.144 418.380393 
L 741.312 420.532974 
L 744.48 418.017145 
L 747.648 420.560941 
L 750.816 416.257531 
L 753.984 410.847214 
L 757.152 414.554984 
L 760.32 410.512984 
L 763.488 423.555031 
L 766.656 424.731126 
L 769.824 425.515441 
L 772.992 427.981692 
L 776.16 429.580119 
L 779.328 432.582581 
L 782.496 439.887232 
L 785.664 440.533934 
L 788.832 442.755759 
L 788.832 442.755759 
" clip-path="url(#p78a020177b)" style="fill: none; stroke: #000000; stroke-width: 1.5; stroke-linecap: square"/>
   </g>
   <g id="line2d_2">
    <path d="M 0 459 
L 3.168 459 
L 6.336 450.251228 
L 9.504 446.546216 
L 12.672 441.748806 
L 15.84 437.842423 
L 19.008 435.269846 
L 22.176 436.010252 
L 25.344 433.711429 
L 28.512 432.531612 
L 31.68 433.559804 
L 34.848 434.881668 
L 41.184 434.974631 
L 44.352 437.923894 
L 47.52 441.805056 
L 50.688 446.737361 
L 57.024 446.949055 
L 60.192 448.467371 
L 63.36 453.228862 
L 66.528 458.748506 
L 69.696 459.794649 
L 72.864 461.682199 
L 76.032 458.754139 
L 79.2 456.639046 
L 82.368 456.386787 
L 85.536 453.371209 
L 88.704 448.399701 
L 91.872 444.490079 
L 95.04 438.683125 
L 98.208 440.688867 
L 101.376 440.831894 
L 104.544 440.472072 
L 107.712 440.726581 
L 110.88 437.563057 
L 114.048 429.724767 
L 117.216 428.096367 
L 120.384 424.09108 
L 123.552 424.825585 
L 126.72 423.804707 
L 129.888 424.462593 
L 133.056 425.717923 
L 136.224 425.092941 
L 142.56 419.834002 
L 145.728 418.668727 
L 148.896 415.482233 
L 152.064 417.202519 
L 155.232 416.712513 
L 158.4 418.875873 
L 161.568 418.363626 
L 164.736 411.645644 
L 167.904 408.95557 
L 171.072 407.108823 
L 174.24 409.379391 
L 177.408 410.41884 
L 180.576 409.881583 
L 183.744 410.665893 
L 186.912 414.198868 
L 190.08 408.409958 
L 193.248 404.389656 
L 196.416 403.122645 
L 199.584 405.012805 
L 202.752 399.734103 
L 205.92 398.951865 
L 209.088 402.144675 
L 212.256 401.837142 
L 215.424 405.892766 
L 218.592 410.470935 
L 221.76 413.250696 
L 224.928 411.958409 
L 228.096 416.152969 
L 231.264 418.792793 
L 234.432 418.75246 
L 237.6 419.076459 
L 240.768 420.569386 
L 243.936 418.863926 
L 247.104 419.440623 
L 250.272 418.013858 
L 253.44 416.244611 
L 256.608 420.013937 
L 259.776 424.097778 
L 262.944 421.867702 
L 266.112 417.296611 
L 269.28 412.279744 
L 272.448 412.258867 
L 275.616 412.479017 
L 278.784 410.313453 
L 281.952 411.394 
L 285.12 414.473363 
L 291.456 419.025818 
L 294.624 420.170197 
L 297.792 418.010571 
L 300.96 418.416994 
L 304.128 423.641877 
L 307.296 427.881313 
L 310.464 432.443987 
L 313.632 438.419454 
L 316.8 438.865454 
L 319.968 438.961362 
L 323.136 439.89495 
L 326.304 435.347826 
L 329.472 429.210991 
L 332.64 420.631573 
L 335.808 412.658847 
L 338.976 408.905913 
L 342.144 414.283653 
L 345.312 416.907671 
L 348.48 417.48809 
L 351.648 414.980644 
L 354.816 415.675651 
L 357.984 415.820478 
L 361.152 415.627048 
L 364.32 415.837666 
L 367.488 415.816537 
L 370.656 419.311812 
L 373.824 421.639808 
L 376.992 422.478398 
L 380.16 419.309729 
L 383.328 423.342922 
L 386.496 428.936371 
L 389.664 433.116193 
L 392.832 434.362256 
L 396 433.829804 
L 399.168 433.082173 
L 402.336 430.990982 
L 405.504 430.635795 
L 408.672 429.028202 
L 411.84 427.760379 
L 415.008 427.979603 
L 418.176 429.486074 
L 421.344 427.893077 
L 424.512 431.04039 
L 430.848 436.130997 
L 434.016 437.440727 
L 437.184 437.406232 
L 443.52 447.443432 
L 446.688 448.875386 
L 449.856 447.484714 
L 453.024 446.771576 
L 456.192 447.554364 
L 459.36 444.357563 
L 462.528 445.19143 
L 465.696 447.6515 
L 468.864 449.648849 
L 472.032 448.46163 
L 478.368 455.441821 
L 481.536 458.005291 
L 484.704 459.614027 
L 487.872 456.595972 
L 491.04 458.140591 
L 494.208 458.28782 
L 497.376 457.111761 
L 500.544 454.641893 
L 503.712 452.947703 
L 506.88 452.196461 
L 510.048 457.907543 
L 513.216 456.077649 
L 516.384 454.554646 
L 519.552 450.233784 
L 522.72 449.944073 
L 525.888 451.657925 
L 529.056 454.905625 
L 532.224 452.429792 
L 535.392 450.40503 
L 538.56 450.852644 
L 541.728 452.152953 
L 544.896 450.810024 
L 548.064 452.717788 
L 551.232 455.318457 
L 554.4 456.835753 
L 557.568 454.189315 
L 560.736 453.590089 
L 563.904 457.808581 
L 567.072 460.110425 
L 570.24 460.767859 
L 573.408 459.999902 
L 576.576 459.63262 
L 579.744 456.868224 
L 582.912 455.842291 
L 586.08 452.31561 
L 589.248 451.354601 
L 592.416 452.730377 
L 595.584 452.825788 
L 598.752 447.798641 
L 601.92 442.080137 
L 605.088 439.617326 
L 608.256 436.266625 
L 611.424 434.462918 
L 614.592 429.951705 
L 617.76 428.957596 
L 620.928 429.701777 
L 624.096 433.841256 
L 627.264 435.516148 
L 630.432 435.280631 
L 636.768 430.734381 
L 639.936 431.545397 
L 643.104 429.101229 
L 646.272 435.228197 
L 649.44 434.528889 
L 652.608 433.504309 
L 655.776 431.488719 
L 658.944 428.518487 
L 662.112 425.154346 
L 665.28 423.789225 
L 668.448 421.923883 
L 671.616 420.696284 
L 674.784 419.774465 
L 677.952 419.190022 
L 681.12 420.643967 
L 687.456 416.695538 
L 690.624 415.497447 
L 693.792 415.04335 
L 696.96 418.574036 
L 700.128 418.840909 
L 703.296 418.932759 
L 706.464 421.021067 
L 709.632 419.128198 
L 712.8 416.265524 
L 715.968 414.065954 
L 719.136 416.145523 
L 722.304 419.724249 
L 725.472 421.788151 
L 728.64 422.553907 
L 731.808 420.106156 
L 734.976 419.806701 
L 738.144 419.033053 
L 741.312 418.719471 
L 744.48 419.630618 
L 747.648 418.813399 
L 750.816 419.680613 
L 753.984 417.954691 
L 757.152 414.384851 
L 760.32 414.460234 
L 763.488 412.4706 
L 766.656 418.016926 
L 769.824 421.380227 
L 772.992 423.46182 
L 776.16 425.735503 
L 779.328 427.683423 
L 782.496 430.174917 
L 785.664 435.078171 
L 788.832 437.864377 
L 788.832 437.864377 
" clip-path="url(#p78a020177b)" style="fill: none; stroke: #000000; stroke-width: 1.5; stroke-linecap: square"/>
   </g>
   <g id="line2d_3">
    <path d="M 0 459 
L 3.168 459 
L 6.336 451.31242 
L 9.504 447.893645 
L 12.672 443.853891 
L 15.84 440.411099 
L 19.008 437.855039 
L 22.176 437.496503 
L 25.344 435.60087 
L 28.512 434.331487 
L 31.68 434.422435 
L 34.848 434.96478 
L 41.184 434.983725 
L 44.352 436.712724 
L 47.52 439.344567 
L 50.688 442.944089 
L 53.856 444.053195 
L 57.024 444.935357 
L 60.192 446.40567 
L 63.36 449.795131 
L 66.528 454.034561 
L 72.864 459.862966 
L 76.032 458.353007 
L 79.2 457.24913 
L 82.368 456.936967 
L 85.536 455.025025 
L 91.872 448.443461 
L 95.04 443.908194 
L 98.208 443.58385 
L 104.544 442.034457 
L 107.712 441.736287 
L 110.88 439.587401 
L 114.048 434.383067 
L 117.216 432.036397 
L 120.384 428.497785 
L 123.552 427.603068 
L 126.72 426.180066 
L 129.888 425.853345 
L 133.056 426.164246 
L 136.224 425.649175 
L 139.392 423.909373 
L 142.56 421.934162 
L 145.728 420.621088 
L 148.896 418.161364 
L 152.064 418.363942 
L 155.232 417.719435 
L 158.4 418.675854 
L 161.568 418.422979 
L 164.736 414.465407 
L 167.904 412.050919 
L 171.072 410.057718 
L 174.24 410.509479 
L 177.408 410.783004 
L 180.576 410.351361 
L 183.744 410.666416 
L 186.912 412.727568 
L 190.08 409.750082 
L 193.248 406.987796 
L 196.416 405.469473 
L 199.584 405.888971 
L 202.752 402.528739 
L 205.92 401.243116 
L 209.088 402.432103 
L 212.256 402.167578 
L 215.424 404.443049 
L 218.592 407.539953 
L 221.76 410.020366 
L 224.928 410.204267 
L 228.096 413.153169 
L 231.264 415.563187 
L 237.6 417.315037 
L 240.768 418.713248 
L 243.936 418.274942 
L 247.104 418.801465 
L 250.272 418.157225 
L 253.44 417.108312 
L 256.608 419.089869 
L 259.776 421.766796 
L 262.944 421.163989 
L 266.112 418.705834 
L 269.28 415.354163 
L 272.448 414.445638 
L 275.616 413.940769 
L 278.784 412.236535 
L 281.952 412.309187 
L 288.288 415.40885 
L 291.456 417.103989 
L 294.624 418.32535 
L 297.792 417.592008 
L 300.96 417.948208 
L 307.296 424.338926 
L 310.464 428.033996 
L 313.632 432.821188 
L 316.8 434.730926 
L 319.968 436.013804 
L 323.136 437.427708 
L 326.304 435.494042 
L 329.472 431.878872 
L 332.64 426.088265 
L 335.808 419.831015 
L 338.976 415.552893 
L 342.144 416.779807 
L 345.312 417.606599 
L 348.48 417.770414 
L 351.648 416.232155 
L 354.816 416.266269 
L 357.984 416.155317 
L 361.152 415.907108 
L 367.488 415.849764 
L 370.656 417.864775 
L 373.824 419.625608 
L 376.992 420.685437 
L 380.16 419.347006 
L 383.328 421.702363 
L 386.496 425.469095 
L 389.664 428.942825 
L 392.832 430.889475 
L 396 431.598265 
L 399.168 431.820614 
L 402.336 430.977604 
L 405.504 430.773165 
L 411.84 428.856003 
L 415.008 428.687893 
L 418.176 429.385623 
L 421.344 428.493831 
L 427.68 431.919337 
L 430.848 433.915603 
L 434.016 435.331369 
L 437.184 435.919754 
L 440.352 439.249841 
L 443.52 443.129597 
L 446.688 445.223336 
L 453.024 445.658149 
L 456.192 446.452442 
L 459.36 444.915545 
L 462.528 445.253037 
L 468.864 448.171701 
L 472.032 447.936405 
L 475.2 450.128371 
L 478.368 452.727908 
L 481.536 455.035379 
L 484.704 457.569749 
L 487.872 456.050868 
L 491.04 457.118597 
L 494.208 457.503269 
L 497.376 457.040777 
L 500.544 455.625407 
L 503.712 454.359673 
L 506.88 453.520048 
L 510.048 456.503622 
L 513.216 455.850182 
L 516.384 455.035611 
L 519.552 452.371209 
L 522.72 451.585305 
L 525.888 452.104967 
L 529.056 453.86769 
L 535.392 451.442546 
L 538.56 451.403075 
L 541.728 451.995997 
L 544.896 451.240995 
L 548.064 452.225153 
L 551.232 453.894169 
L 554.4 455.207957 
L 557.568 454.132756 
L 560.736 453.780867 
L 563.904 456.192708 
L 567.072 459.10525 
L 570.24 459.786112 
L 576.576 459.521879 
L 579.744 458.302688 
L 582.912 457.28336 
L 586.08 454.800457 
L 589.248 453.521877 
L 592.416 453.708371 
L 595.584 453.497056 
L 598.752 450.361074 
L 601.92 446.26161 
L 605.088 443.586869 
L 608.256 440.463635 
L 611.424 438.171902 
L 614.592 434.427176 
L 617.76 432.518483 
L 620.928 431.896232 
L 624.096 433.659365 
L 627.264 434.666916 
L 630.432 434.759752 
L 633.6 433.584558 
L 636.768 432.050813 
L 639.936 432.111805 
L 643.104 430.483882 
L 646.272 433.641983 
L 649.44 433.691414 
L 652.608 433.337395 
L 655.776 432.203005 
L 658.944 430.250847 
L 662.112 427.766635 
L 665.28 426.20887 
L 668.448 424.404907 
L 671.616 422.970743 
L 674.784 421.759283 
L 677.952 420.829878 
L 681.12 421.195081 
L 684.288 419.887414 
L 687.456 418.357794 
L 690.624 417.157295 
L 693.792 416.397341 
L 696.96 418.044208 
L 703.296 418.523636 
L 706.464 419.857984 
L 709.632 419.079871 
L 715.968 415.775254 
L 719.136 416.486778 
L 722.304 418.485705 
L 725.472 420.057051 
L 728.64 421.01273 
L 731.808 420.031609 
L 734.976 419.878539 
L 738.144 419.40276 
L 741.312 419.107929 
L 744.48 419.532044 
L 747.648 419.083562 
L 750.816 419.517861 
L 753.984 418.559324 
L 757.152 416.283837 
L 760.32 415.774261 
L 763.488 414.228685 
L 766.656 416.970207 
L 769.824 419.248502 
L 772.992 421.085145 
L 782.496 427.243082 
L 785.664 430.965751 
L 788.832 433.79169 
L 788.832 433.79169 
" clip-path="url(#p78a020177b)" style="fill: none; stroke: #000000; stroke-width: 1.5; stroke-linecap: square"/>
   </g>
   <g id="line2d_4">
    <path d="M 0 459 
L 3.168 459 
L 6.336 451.871032 
L 9.504 448.690267 
L 12.672 445.144724 
L 15.84 442.1333 
L 19.008 439.829436 
L 22.176 439.129589 
L 25.344 437.495516 
L 28.512 436.278946 
L 31.68 435.960655 
L 34.848 436.011637 
L 41.184 435.680461 
L 44.352 436.581134 
L 47.52 438.139462 
L 50.688 440.420832 
L 53.856 441.488192 
L 57.024 442.415505 
L 60.192 443.657084 
L 63.36 445.995244 
L 66.528 448.961048 
L 69.696 451.395641 
L 72.864 454.833312 
L 76.032 454.12753 
L 79.2 454.186579 
L 82.368 454.494254 
L 85.536 453.829355 
L 88.704 452.170291 
L 91.872 450.328227 
L 95.04 447.553568 
L 98.208 446.795459 
L 104.544 444.951944 
L 107.712 444.326385 
L 110.88 442.750259 
L 114.048 439.430442 
L 117.216 437.369608 
L 120.384 434.615287 
L 123.552 433.176926 
L 126.72 431.527317 
L 129.888 430.512631 
L 133.056 429.953335 
L 136.224 429.078911 
L 139.392 427.592244 
L 142.56 425.935305 
L 145.728 424.579303 
L 148.896 422.609384 
L 152.064 422.004836 
L 155.232 421.070601 
L 158.4 421.053452 
L 161.568 420.527958 
L 164.736 418.018573 
L 167.904 416.11606 
L 171.072 414.357104 
L 177.408 413.482828 
L 180.576 412.800189 
L 183.744 412.563703 
L 186.912 413.365933 
L 193.248 409.815347 
L 196.416 408.529729 
L 199.584 408.251812 
L 202.752 406.034129 
L 205.92 404.76162 
L 209.088 404.835839 
L 212.256 404.299082 
L 215.424 405.186138 
L 221.76 408.202536 
L 224.928 408.582795 
L 231.264 412.164074 
L 237.6 414.163721 
L 240.768 415.412713 
L 243.936 415.689151 
L 247.104 416.376341 
L 250.272 416.408935 
L 253.44 416.102216 
L 256.608 417.326805 
L 259.776 419.050407 
L 262.944 419.145014 
L 266.112 418.134494 
L 269.28 416.409936 
L 272.448 415.75485 
L 275.616 415.271482 
L 278.784 414.138807 
L 281.952 413.883002 
L 285.12 414.47751 
L 288.288 415.223267 
L 291.456 416.185517 
L 294.624 417.005298 
L 297.792 416.828408 
L 300.96 417.14935 
L 304.128 419.020404 
L 307.296 421.110726 
L 310.464 423.643216 
L 313.632 426.949533 
L 316.8 428.92078 
L 323.136 432.171648 
L 326.304 431.959346 
L 329.472 430.551187 
L 332.64 427.611116 
L 335.808 423.966003 
L 338.976 420.97979 
L 345.312 420.597638 
L 348.48 420.207998 
L 351.648 418.985026 
L 364.32 417.431999 
L 367.488 417.175896 
L 373.824 419.019448 
L 376.992 419.702684 
L 380.16 419.141437 
L 383.328 420.453043 
L 389.664 425.007203 
L 392.832 426.68842 
L 396 427.740069 
L 399.168 428.475765 
L 402.336 428.54621 
L 405.504 428.814199 
L 415.008 428.241163 
L 418.176 428.676566 
L 421.344 428.294897 
L 424.512 429.227005 
L 427.68 430.321918 
L 430.848 431.655566 
L 434.016 432.79322 
L 437.184 433.534964 
L 440.352 435.742172 
L 443.52 438.415985 
L 446.688 440.310747 
L 449.856 441.240611 
L 453.024 442.021678 
L 456.192 443.04007 
L 459.36 442.755506 
L 462.528 443.289397 
L 468.864 445.570512 
L 472.032 445.858745 
L 475.2 447.38611 
L 484.704 453.079343 
L 487.872 452.970549 
L 491.04 454.046828 
L 494.208 454.755038 
L 497.376 454.951655 
L 506.88 453.631138 
L 510.048 455.242738 
L 513.216 455.100576 
L 516.384 454.791031 
L 519.552 453.395471 
L 522.72 452.818669 
L 525.888 452.917946 
L 529.056 453.760397 
L 532.224 453.16279 
L 535.392 452.417364 
L 538.56 452.250184 
L 541.728 452.445229 
L 544.896 451.967336 
L 548.064 452.389941 
L 554.4 454.089742 
L 557.568 453.68559 
L 560.736 453.579608 
L 563.904 454.926886 
L 567.072 456.826545 
L 570.24 458.328584 
L 576.576 458.750422 
L 579.744 457.809475 
L 582.912 457.327645 
L 586.08 455.962375 
L 589.248 455.082297 
L 592.416 454.931468 
L 595.584 454.616482 
L 598.752 452.733885 
L 601.92 450.132435 
L 605.088 448.067276 
L 608.256 445.656648 
L 611.424 443.577623 
L 614.592 440.685768 
L 617.76 438.659941 
L 620.928 437.356446 
L 624.096 437.452161 
L 627.264 437.400176 
L 630.432 437.012373 
L 633.6 436.01822 
L 636.768 434.797527 
L 639.936 434.393 
L 643.104 433.145585 
L 646.272 434.440344 
L 649.44 434.332844 
L 652.608 434.025096 
L 655.776 433.286174 
L 658.944 432.041466 
L 662.112 430.39368 
L 665.28 429.106064 
L 668.448 427.640061 
L 674.784 425.117283 
L 677.952 424.063334 
L 681.12 423.736147 
L 684.288 422.605868 
L 687.456 421.328802 
L 690.624 420.191832 
L 693.792 419.278475 
L 696.96 419.707953 
L 703.296 419.495334 
L 706.464 420.060888 
L 709.632 419.601245 
L 715.968 417.523567 
L 719.136 417.627068 
L 725.472 419.360202 
L 728.64 419.978512 
L 731.808 419.602161 
L 734.976 419.578587 
L 741.312 419.194864 
L 744.48 419.403898 
L 747.648 419.168718 
L 750.816 419.381909 
L 753.984 418.87444 
L 757.152 417.583868 
L 760.32 417.094845 
L 763.488 416.039357 
L 776.16 420.90281 
L 779.328 422.28854 
L 782.496 423.930663 
L 785.664 426.479129 
L 788.832 428.728005 
L 788.832 428.728005 
" clip-path="url(#p78a020177b)" style="fill: none; stroke: #000000; stroke-width: 1.5; stroke-linecap: square"/>
   </g>
   <g id="line2d_5">
    <path d="M 0 459 
L 3.168 459 
L 6.336 452.154019 
L 9.504 449.11265 
L 12.672 445.835447 
L 15.84 443.082606 
L 19.008 440.971539 
L 22.176 440.198843 
L 25.344 438.742464 
L 28.512 437.6255 
L 31.68 437.196736 
L 34.848 437.066611 
L 41.184 436.57966 
L 44.352 437.083047 
L 47.52 438.060329 
L 50.688 439.556544 
L 60.192 441.954211 
L 63.36 443.560772 
L 66.528 445.599165 
L 69.696 447.38512 
L 72.864 449.807473 
L 76.032 449.870037 
L 82.368 450.840836 
L 85.536 450.796163 
L 88.704 450.130501 
L 91.872 449.276043 
L 95.04 447.815455 
L 98.208 447.369691 
L 107.712 445.767867 
L 110.88 444.781332 
L 114.048 442.797661 
L 117.216 441.387774 
L 120.384 439.552063 
L 123.552 438.353831 
L 126.72 437.023657 
L 129.888 436.010248 
L 133.056 435.243904 
L 136.224 434.329605 
L 145.728 430.544186 
L 148.896 429.003838 
L 152.064 428.154009 
L 155.232 427.150463 
L 158.4 426.638155 
L 161.568 425.901182 
L 164.736 424.141041 
L 171.072 421.184797 
L 180.576 418.78011 
L 183.744 418.170054 
L 186.912 418.133955 
L 196.416 414.324858 
L 199.584 413.706984 
L 202.752 412.102681 
L 205.92 410.926589 
L 209.088 410.451487 
L 212.256 409.701093 
L 215.424 409.710998 
L 221.76 410.621649 
L 224.928 410.615739 
L 231.264 412.230078 
L 237.6 413.297233 
L 240.768 414.015451 
L 243.936 414.269751 
L 247.104 414.738218 
L 250.272 414.880335 
L 253.44 414.836693 
L 256.608 415.570238 
L 259.776 416.605946 
L 262.944 416.847664 
L 266.112 416.494358 
L 269.28 415.712494 
L 275.616 415.166533 
L 278.784 414.57172 
L 281.952 414.387711 
L 288.288 415.006393 
L 294.624 415.983204 
L 297.792 415.965646 
L 300.96 416.19295 
L 304.128 417.232693 
L 307.296 418.456877 
L 310.464 419.985037 
L 313.632 422.000043 
L 316.8 423.433227 
L 323.136 426.058012 
L 326.304 426.449541 
L 329.472 426.172079 
L 332.64 425.001906 
L 335.808 423.31512 
L 338.976 421.809633 
L 348.48 421.195971 
L 351.648 420.47709 
L 367.488 418.865341 
L 376.992 419.905858 
L 380.16 419.595104 
L 383.328 420.242699 
L 386.496 421.428001 
L 389.664 422.741866 
L 392.832 423.812173 
L 396 424.605702 
L 399.168 425.253712 
L 408.672 426.090887 
L 411.84 426.133755 
L 415.008 426.316728 
L 418.176 426.712955 
L 421.344 426.684696 
L 427.68 428.048604 
L 434.016 429.749245 
L 437.184 430.383889 
L 440.352 431.791131 
L 443.52 433.511594 
L 446.688 434.906606 
L 456.192 437.666128 
L 459.36 437.961064 
L 462.528 438.632936 
L 468.864 440.606373 
L 472.032 441.173561 
L 475.2 442.362339 
L 481.536 445.158255 
L 484.704 446.703853 
L 487.872 447.181637 
L 491.04 448.229068 
L 494.208 449.085789 
L 497.376 449.662674 
L 503.712 450.010606 
L 506.88 450.140006 
L 510.048 451.268716 
L 513.216 451.520963 
L 516.384 451.651341 
L 519.552 451.181333 
L 522.72 451.060102 
L 525.888 451.255694 
L 529.056 451.834804 
L 538.56 451.435615 
L 541.728 451.618687 
L 544.896 451.448671 
L 548.064 451.722149 
L 554.4 452.769444 
L 557.568 452.678628 
L 560.736 452.715157 
L 563.904 453.499665 
L 567.072 454.620139 
L 570.24 455.59845 
L 576.576 456.279241 
L 579.744 456.005132 
L 582.912 455.918029 
L 586.08 455.334663 
L 589.248 454.933496 
L 595.584 454.722343 
L 598.752 453.738857 
L 601.92 452.304749 
L 605.088 451.05424 
L 611.424 448.158438 
L 614.592 446.277642 
L 617.76 444.763759 
L 620.928 443.581162 
L 627.264 442.630205 
L 630.432 442.000642 
L 633.6 441.071072 
L 636.768 440.017287 
L 639.936 439.377175 
L 643.104 438.313929 
L 646.272 438.559853 
L 652.608 437.688293 
L 655.776 437.002395 
L 658.944 436.045039 
L 662.112 434.856035 
L 668.448 432.666649 
L 674.784 430.50462 
L 677.952 429.507958 
L 681.12 428.88283 
L 693.792 424.771422 
L 696.96 424.537801 
L 703.296 423.644378 
L 706.464 423.590644 
L 709.632 423.051477 
L 715.968 421.358953 
L 719.136 421.086391 
L 728.64 421.610476 
L 731.808 421.271089 
L 738.144 420.865651 
L 741.312 420.648619 
L 744.48 420.628352 
L 747.648 420.401341 
L 750.816 420.403555 
L 753.984 420.045704 
L 757.152 419.265559 
L 760.32 418.862275 
L 763.488 418.154452 
L 769.824 419.0854 
L 772.992 419.605336 
L 779.328 421.049565 
L 782.496 421.998561 
L 788.832 424.884932 
L 788.832 424.884932 
" clip-path="url(#p78a020177b)" style="fill: none; stroke: #000000; stroke-width: 1.5; stroke-linecap: square"/>
   </g>
   <g id="line2d_6">
    <path d="M 0 459 
L 3.168 459 
L 6.336 452.295979 
L 9.504 449.328667 
L 12.672 446.189192 
L 15.84 443.573458 
L 19.008 441.572436 
L 22.176 440.788799 
L 25.344 439.433239 
L 28.512 438.38547 
L 31.68 437.932723 
L 38.016 437.452531 
L 41.184 437.213516 
L 44.352 437.551814 
L 47.52 438.270158 
L 50.688 439.398834 
L 60.192 441.260082 
L 63.36 442.476429 
L 66.528 444.013619 
L 69.696 445.386796 
L 72.864 447.214946 
L 76.032 447.428202 
L 82.368 448.396384 
L 85.536 448.516768 
L 88.704 448.213228 
L 91.872 447.766199 
L 95.04 446.904793 
L 101.376 446.349956 
L 107.712 445.732038 
L 110.88 445.119389 
L 114.048 443.87478 
L 117.216 442.952228 
L 120.384 441.751198 
L 129.888 439.223098 
L 136.224 437.896554 
L 145.728 435.105289 
L 148.896 433.992135 
L 158.4 431.894727 
L 161.568 431.225803 
L 164.736 429.978102 
L 171.072 427.748594 
L 183.744 424.839231 
L 186.912 424.512429 
L 196.416 421.507107 
L 199.584 420.84375 
L 202.752 419.647282 
L 205.92 418.676257 
L 209.088 418.076042 
L 212.256 417.33401 
L 215.424 417.002113 
L 221.76 416.871131 
L 224.928 416.594365 
L 240.768 417.350498 
L 243.936 417.341734 
L 247.104 417.458427 
L 253.44 417.291382 
L 256.608 417.57459 
L 259.776 418.035335 
L 262.944 418.105187 
L 266.112 417.872647 
L 269.28 417.412383 
L 275.616 416.994322 
L 278.784 416.611258 
L 281.952 416.433869 
L 288.288 416.599994 
L 294.624 416.991144 
L 297.792 416.941429 
L 300.96 417.021487 
L 304.128 417.527528 
L 307.296 418.151045 
L 310.464 418.956662 
L 313.632 420.042286 
L 323.136 422.457864 
L 326.304 422.813432 
L 329.472 422.826021 
L 332.64 422.367952 
L 338.976 420.914384 
L 348.48 420.697334 
L 351.648 420.348409 
L 367.488 419.476118 
L 376.992 419.950331 
L 380.16 419.788023 
L 383.328 420.109368 
L 396 422.498241 
L 399.168 422.915043 
L 408.672 423.630955 
L 415.008 423.937741 
L 418.176 424.236219 
L 421.344 424.32357 
L 427.68 425.221636 
L 434.016 426.338993 
L 437.184 426.804721 
L 440.352 427.671668 
L 443.52 428.721888 
L 446.688 429.633555 
L 456.192 431.725177 
L 459.36 432.123523 
L 462.528 432.710479 
L 468.864 434.216112 
L 472.032 434.766769 
L 478.368 436.619234 
L 484.704 438.733142 
L 487.872 439.308231 
L 494.208 440.945982 
L 497.376 441.582041 
L 503.712 442.427762 
L 506.88 442.813105 
L 510.048 443.698349 
L 516.384 444.527921 
L 519.552 444.592764 
L 522.72 444.812186 
L 525.888 445.180273 
L 529.056 445.734275 
L 544.896 446.693772 
L 548.064 447.035352 
L 554.4 447.970071 
L 560.736 448.338258 
L 563.904 448.923455 
L 570.24 450.399741 
L 576.576 451.191868 
L 586.08 451.322006 
L 589.248 451.291068 
L 595.584 451.492902 
L 598.752 451.133008 
L 608.256 449.243752 
L 611.424 448.548296 
L 614.592 447.574462 
L 617.76 446.750461 
L 620.928 446.065472 
L 627.264 445.368635 
L 630.432 444.935037 
L 643.104 442.485238 
L 646.272 442.439105 
L 652.608 441.672905 
L 655.776 441.158185 
L 658.944 440.498118 
L 677.952 435.834539 
L 681.12 435.253965 
L 693.792 432.035714 
L 700.128 431.082445 
L 703.296 430.570799 
L 706.464 430.254747 
L 709.632 429.699729 
L 715.968 428.271934 
L 719.136 427.84045 
L 728.64 427.301008 
L 734.976 426.576019 
L 741.312 425.892499 
L 750.816 425.139845 
L 753.984 424.762382 
L 757.152 424.170669 
L 760.32 423.762003 
L 763.488 423.19802 
L 769.824 423.28025 
L 776.16 423.572558 
L 779.328 423.827962 
L 782.496 424.200198 
L 788.832 425.532845 
L 788.832 425.532845 
" clip-path="url(#p78a020177b)" style="fill: none; stroke: #000000; stroke-width: 1.5; stroke-linecap: square"/>
   </g>
   <g id="line2d_7">
    <path d="M 0 459 
L 3.168 459 
L 6.336 452.367018 
L 12.672 446.367735 
L 15.84 443.822035 
L 19.008 441.878818 
L 22.176 441.095716 
L 25.344 439.793074 
L 28.512 438.784155 
L 31.68 438.327173 
L 38.016 437.820902 
L 41.184 437.576766 
L 44.352 437.844264 
L 47.52 438.447108 
L 50.688 439.407998 
L 60.192 440.999505 
L 63.36 442.028711 
L 66.528 443.324747 
L 69.696 444.488528 
L 72.864 446.022794 
L 76.032 446.257651 
L 82.368 447.148124 
L 85.536 447.303258 
L 88.704 447.123401 
L 91.872 446.827015 
L 95.04 446.206499 
L 101.376 445.841424 
L 107.712 445.415644 
L 110.88 444.973691 
L 114.048 444.061991 
L 117.216 443.379207 
L 120.384 442.48928 
L 129.888 440.568285 
L 136.224 439.530244 
L 145.728 437.395172 
L 148.896 436.552054 
L 161.568 434.311341 
L 167.904 432.524532 
L 171.072 431.675032 
L 183.744 429.268017 
L 186.912 428.924916 
L 196.416 426.59006 
L 199.584 426.02201 
L 202.752 425.116678 
L 205.92 424.349357 
L 215.424 422.818511 
L 228.096 422.048234 
L 234.432 421.938785 
L 250.272 421.567833 
L 253.44 421.383599 
L 262.944 421.567508 
L 266.112 421.342152 
L 269.28 420.983854 
L 281.952 420.052235 
L 288.288 419.970276 
L 294.624 420.032015 
L 300.96 419.90085 
L 307.296 420.409053 
L 310.464 420.810326 
L 313.632 421.378639 
L 323.136 422.667664 
L 326.304 422.861649 
L 329.472 422.867526 
L 332.64 422.611193 
L 338.976 421.783811 
L 348.48 421.601913 
L 354.816 421.270828 
L 367.488 420.775392 
L 376.992 420.950193 
L 380.16 420.838881 
L 383.328 420.988879 
L 399.168 422.471667 
L 418.176 423.279128 
L 421.344 423.348306 
L 427.68 423.876081 
L 437.184 424.824491 
L 443.52 425.937127 
L 449.856 426.920058 
L 459.36 428.114486 
L 465.696 428.995093 
L 478.368 431.093964 
L 484.704 432.453632 
L 487.872 432.89435 
L 494.208 434.038819 
L 500.544 434.913236 
L 506.88 435.633044 
L 510.048 436.250527 
L 516.384 437.009134 
L 522.72 437.481193 
L 532.224 438.533963 
L 538.56 439.027489 
L 563.904 441.641812 
L 570.24 442.716543 
L 576.576 443.451667 
L 586.08 444.007327 
L 592.416 444.365727 
L 595.584 444.553275 
L 598.752 444.515939 
L 608.256 443.941463 
L 611.424 443.6971 
L 617.76 442.969667 
L 620.928 442.699003 
L 630.432 442.317983 
L 643.104 441.243179 
L 646.272 441.244874 
L 652.608 440.898045 
L 658.944 440.323379 
L 684.288 437.051542 
L 693.792 435.619362 
L 706.464 434.380736 
L 712.8 433.563392 
L 715.968 433.093658 
L 719.136 432.771747 
L 731.808 431.868918 
L 753.984 430.011616 
L 763.488 428.866967 
L 772.992 428.597898 
L 779.328 428.60606 
L 782.496 428.691629 
L 788.832 429.181696 
L 788.832 429.181696 
" clip-path="url(#p78a020177b)" style="fill: none; stroke: #000000; stroke-width: 1.5; stroke-linecap: square"/>
   </g>
   <g id="line2d_8">
    <path d="M 0 459 
L 3.168 459 
L 6.336 452.402545 
L 12.672 446.457368 
L 15.84 443.946992 
L 19.008 442.033281 
L 22.176 441.251873 
L 25.344 439.976223 
L 28.512 438.98767 
L 31.68 438.530419 
L 41.184 437.769456 
L 44.352 438.004738 
L 47.52 438.553891 
L 50.688 439.43591 
L 60.192 440.896096 
L 63.36 441.835808 
L 66.528 443.016492 
L 69.696 444.07815 
L 72.864 445.470619 
L 76.032 445.705694 
L 82.368 446.543118 
L 85.536 446.705013 
L 91.872 446.33668 
L 95.04 445.818405 
L 101.376 445.532181 
L 107.712 445.189438 
L 110.88 444.82292 
L 114.048 444.059299 
L 117.216 443.486228 
L 120.384 442.73898 
L 133.056 440.698762 
L 136.224 440.229453 
L 145.728 438.4288 
L 148.896 437.722131 
L 161.568 435.801054 
L 167.904 434.315491 
L 171.072 433.606612 
L 183.744 431.544681 
L 186.912 431.229045 
L 196.416 429.284738 
L 199.584 428.795775 
L 205.92 427.413056 
L 215.424 426.072582 
L 228.096 425.242056 
L 240.768 424.871334 
L 253.44 424.29755 
L 262.944 424.272807 
L 275.616 423.367499 
L 281.952 422.915757 
L 291.456 422.73414 
L 297.792 422.593105 
L 300.96 422.529471 
L 307.296 422.789514 
L 310.464 423.022025 
L 316.8 423.627438 
L 323.136 424.146567 
L 326.304 424.252404 
L 329.472 424.234145 
L 332.64 424.0422 
L 338.976 423.447759 
L 348.48 423.251021 
L 354.816 422.983189 
L 367.488 422.55632 
L 383.328 422.566788 
L 399.168 423.412731 
L 427.68 424.199718 
L 440.352 425.086985 
L 446.688 425.802866 
L 475.2 428.370527 
L 494.208 430.718957 
L 500.544 431.32734 
L 506.88 431.848359 
L 510.048 432.262106 
L 516.384 432.81385 
L 522.72 433.199792 
L 538.56 434.388934 
L 563.904 436.39539 
L 570.24 437.146336 
L 579.744 437.896902 
L 586.08 438.240598 
L 598.752 438.8159 
L 611.424 438.622947 
L 620.928 438.239081 
L 630.432 438.184792 
L 646.272 437.81576 
L 655.776 437.605118 
L 665.28 437.093522 
L 690.624 435.348878 
L 696.96 434.94719 
L 725.472 433.307913 
L 734.976 432.849201 
L 760.32 431.436012 
L 763.488 431.191909 
L 776.16 430.93049 
L 782.496 430.934142 
L 788.832 431.147098 
L 788.832 431.147098 
" clip-path="url(#p78a020177b)" style="fill: none; stroke: #000000; stroke-width: 1.5; stroke-linecap: square"/>
   </g>
   <g id="line2d_9">
    <path d="M 0 459 
L 3.168 459 
L 6.336 452.420309 
L 12.672 446.502268 
L 15.84 444.009621 
L 19.008 442.110803 
L 22.176 441.330587 
L 25.344 440.068554 
L 28.512 439.0904 
L 31.68 438.633462 
L 41.184 437.868467 
L 44.352 438.088454 
L 47.52 438.611826 
L 50.688 439.455768 
L 60.192 440.851637 
L 63.36 441.747863 
L 72.864 445.207556 
L 76.032 445.440554 
L 82.368 446.248767 
L 85.536 446.411741 
L 91.872 446.090353 
L 95.04 445.618522 
L 101.376 445.367345 
L 107.712 445.062209 
L 110.88 444.730409 
L 114.048 444.035357 
L 117.216 443.513612 
L 120.384 442.833217 
L 133.056 440.970217 
L 139.392 440.011933 
L 152.064 437.806177 
L 155.232 437.305406 
L 161.568 436.507295 
L 171.072 434.530212 
L 183.744 432.653119 
L 186.912 432.357936 
L 196.416 430.613084 
L 199.584 430.168677 
L 205.92 428.934195 
L 215.424 427.710417 
L 228.096 426.896879 
L 243.936 426.331961 
L 250.272 426.08237 
L 253.44 425.904084 
L 262.944 425.812455 
L 285.12 424.469995 
L 300.96 424.122698 
L 307.296 424.288713 
L 313.632 424.711919 
L 323.136 425.278191 
L 329.472 425.319255 
L 335.808 424.902754 
L 338.976 424.661261 
L 351.648 424.321134 
L 370.656 423.826777 
L 386.496 423.894639 
L 396 424.268621 
L 405.504 424.468127 
L 424.512 424.746579 
L 437.184 425.272869 
L 481.536 428.503076 
L 487.872 429.062117 
L 497.376 429.87365 
L 532.224 432.106702 
L 544.896 432.761861 
L 563.904 433.972521 
L 573.408 434.751007 
L 582.912 435.288051 
L 601.92 435.898461 
L 611.424 435.858873 
L 620.928 435.666442 
L 633.6 435.653121 
L 643.104 435.49556 
L 649.44 435.528915 
L 658.944 435.377288 
L 684.288 434.432159 
L 700.128 433.76285 
L 744.48 432.275692 
L 760.32 431.677527 
L 766.656 431.461191 
L 779.328 431.330168 
L 788.832 431.468295 
L 788.832 431.468295 
" clip-path="url(#p78a020177b)" style="fill: none; stroke: #000000; stroke-width: 1.5; stroke-linecap: square"/>
   </g>
  </g>
 </g>
 <defs>
  <clipPath id="p78a020177b">
   <rect x="0" y="0" width="792" height="612"/>
  </clipPath>
 </defs>
</svg>
