<?xml version="1.0" encoding="utf-8" standalone="no"?>
<!DOCTYPE svg PUBLIC "-//W3C//DTD SVG 1.1//EN"
  "http://www.w3.org/Graphics/SVG/1.1/DTD/svg11.dtd">
<svg xmlns:xlink="http://www.w3.org/1999/xlink" width="792pt" height="612pt" viewBox="0 0 792 612" xmlns="http://www.w3.org/2000/svg" version="1.1">
 <metadata>
  <rdf:RDF xmlns:dc="http://purl.org/dc/elements/1.1/" xmlns:cc="http://creativecommons.org/ns#" xmlns:rdf="http://www.w3.org/1999/02/22-rdf-syntax-ns#">
   <cc:Work>
    <dc:type rdf:resource="http://purl.org/dc/dcmitype/StillImage"/>
    <dc:date>2023-01-16T16:12:09.377193</dc:date>
    <dc:format>image/svg+xml</dc:format>
    <dc:creator>
     <cc:Agent>
      <dc:title>Matplotlib v3.6.2, https://matplotlib.org/</dc:title>
     </cc:Agent>
    </dc:creator>
   </cc:Work>
  </rdf:RDF>
 </metadata>
 <defs>
  <style type="text/css">*{stroke-linejoin: round; stroke-linecap: butt}</style>
 </defs>
 <g id="figure_1">
  <g id="patch_1">
   <path d="M 0 612 
L 792 612 
L 792 0 
L 0 0 
z
" style="fill: #ffffff"/>
  </g>
  <g id="axes_1">
   <g id="line2d_1">
    <path d="M 0 306 
L 3.168 306.952241 
L 6.336 308.435496 
L 9.504 306.69587 
L 12.672 309.479204 
L 15.84 297.468639 
L 19.008 304.62658 
L 22.176 301.953198 
L 25.344 303.802551 
L 28.512 305.084383 
L 31.68 308.581985 
L 34.848 302.539106 
L 38.016 306.018312 
L 41.184 308.069268 
L 44.352 307.043802 
L 47.52 305.175945 
L 50.688 306.036625 
L 53.856 309.79047 
L 57.024 309.131309 
L 60.192 309.863708 
L 63.36 302.868691 
L 66.528 306.183124 
L 69.696 307.86784 
L 72.864 311.18191 
L 76.032 310.065111 
L 79.2 305.853501 
L 82.368 311.639577 
L 85.536 291.617069 
L 88.704 308.618608 
L 91.872 307.043802 
L 95.04 302.264458 
L 98.208 301.532095 
L 101.376 304.168783 
L 104.544 301.001163 
L 107.712 312.390094 
L 110.88 304.828013 
L 114.048 305.450629 
L 117.216 306.567683 
L 120.384 301.715181 
L 123.552 297.852913 
L 126.72 308.966514 
L 129.888 301.825035 
L 133.056 309.589063 
L 136.224 304.187095 
L 139.392 307.519916 
L 142.56 307.208611 
L 145.728 304.351901 
L 148.896 302.923623 
L 152.064 304.333589 
L 155.232 306.164811 
L 158.4 302.612347 
L 161.568 310.321436 
L 164.736 304.24203 
L 167.904 309.149619 
L 171.072 303.91242 
L 174.24 297.541832 
L 177.408 306.86068 
L 180.576 305.340755 
L 183.744 310.174965 
L 186.912 305.890126 
L 190.08 304.608268 
L 196.416 310.101729 
L 199.584 296.078165 
L 202.752 304.516708 
L 209.088 309.332723 
L 212.256 297.816315 
L 215.424 308.435496 
L 218.592 310.724221 
L 221.76 303.50957 
L 224.928 311.493126 
L 228.096 309.332723 
L 231.264 306.640933 
L 234.432 302.502486 
L 237.6 312.298572 
L 240.768 306.714182 
L 243.936 304.24203 
L 247.104 306.439497 
L 250.272 307.75797 
L 253.44 302.81376 
L 256.608 307.86784 
L 259.776 303.747617 
L 262.944 304.644892 
L 266.112 312.078913 
L 269.28 308.85665 
L 272.448 300.433648 
L 275.616 301.495478 
L 278.784 302.410937 
L 281.952 309.259482 
L 285.12 306.292998 
L 288.288 303.015175 
L 291.456 308.85665 
L 294.624 309.332723 
L 297.792 307.02549 
L 300.96 307.336796 
L 304.128 306.036625 
L 307.296 302.447556 
L 310.464 307.941087 
L 313.632 312.536528 
L 316.8 308.124203 
L 319.968 309.18624 
L 323.136 310.797452 
L 326.304 302.703898 
L 329.472 305.835189 
L 332.64 307.135363 
L 335.808 299.50008 
L 338.976 301.001163 
L 342.144 298.822861 
L 345.312 301.18424 
L 348.48 306.31131 
L 351.648 315.48278 
L 354.816 305.908438 
L 357.984 305.047759 
L 361.152 302.319388 
L 364.32 308.527052 
L 367.488 305.707002 
L 370.656 305.633752 
L 373.824 306.402872 
L 376.992 305.871813 
L 380.16 310.577755 
L 383.328 306.750806 
L 386.496 305.560503 
L 389.664 301.330704 
L 392.832 313.323556 
L 396 310.650988 
L 402.336 304.901261 
L 405.504 304.516708 
L 408.672 305.37738 
L 411.84 303.765928 
L 415.008 306.878992 
L 418.176 304.168783 
L 421.344 305.414004 
L 424.512 307.117051 
L 427.68 307.812905 
L 430.848 302.941933 
L 434.016 311.126989 
L 437.184 307.245235 
L 440.352 307.666411 
L 443.52 306.036625 
L 446.688 305.102696 
L 449.856 312.463311 
L 453.024 309.369343 
L 456.192 304.553332 
L 459.36 303.289837 
L 462.528 305.981688 
L 465.696 307.483292 
L 468.864 301.349012 
L 472.032 309.149619 
L 475.2 308.673541 
L 478.368 307.007178 
L 481.536 303.161661 
L 484.704 311.236832 
L 487.872 308.325628 
L 491.04 307.043802 
L 494.208 307.996022 
L 497.376 298.676444 
L 500.544 310.760837 
L 503.712 305.194257 
L 510.048 303.582815 
L 513.216 305.414004 
L 516.384 306.128187 
L 519.552 313.890889 
L 522.72 299.902782 
L 525.888 305.230881 
L 529.056 301.385628 
L 532.224 308.417185 
L 535.392 308.398874 
L 538.56 309.094688 
L 541.728 300.689941 
L 544.896 305.011135 
L 548.064 307.86784 
L 551.232 307.391732 
L 554.4 303.399704 
L 557.568 309.351033 
L 560.736 308.142514 
L 563.904 306.292998 
L 567.072 301.568712 
L 570.24 306.933929 
L 573.408 311.859248 
L 576.576 309.131309 
L 579.744 305.61544 
L 582.912 301.751799 
L 586.08 306.07325 
L 589.248 301.495478 
L 592.416 307.263548 
L 595.584 302.099673 
L 598.752 307.062114 
L 601.92 308.417185 
L 605.088 305.230881 
L 608.256 299.40856 
L 611.424 301.843344 
L 614.592 306.494434 
L 617.76 303.253216 
L 620.928 305.816876 
L 624.096 301.312395 
L 627.264 307.648099 
L 630.432 307.611475 
L 633.6 310.870684 
L 636.768 305.468941 
L 639.936 304.608268 
L 643.104 303.253216 
L 646.272 304.425149 
L 649.44 308.545363 
L 652.608 302.301078 
L 655.776 315.555958 
L 658.944 301.129316 
L 662.112 305.121008 
L 665.28 304.040601 
L 668.448 303.436326 
L 671.616 303.546193 
L 674.784 306.421185 
L 677.952 304.44346 
L 681.12 305.652065 
L 684.288 305.578815 
L 687.456 305.835189 
L 690.624 308.270694 
L 693.792 302.502486 
L 696.96 304.644892 
L 700.128 305.743627 
L 703.296 306.183124 
L 706.464 310.907299 
L 709.632 304.040601 
L 712.8 305.945063 
L 715.968 308.673541 
L 719.136 302.154601 
L 722.304 303.491259 
L 725.472 304.992822 
L 728.64 310.156656 
L 731.808 309.332723 
L 734.976 306.347935 
L 738.144 305.652065 
L 741.312 302.319388 
L 744.48 307.190299 
L 747.648 305.175945 
L 750.816 306.091562 
L 753.984 307.410044 
L 757.152 304.351901 
L 760.32 307.666411 
L 763.488 303.179972 
L 766.656 302.447556 
L 769.824 308.435496 
L 772.992 303.34477 
L 776.16 314.549659 
L 779.328 306.769119 
L 782.496 306.512746 
L 785.664 307.611475 
L 788.832 307.043802 
L 788.832 307.043802 
" clip-path="url(#p63f360d337)" style="fill: none; stroke: #000000; stroke-width: 1.5; stroke-linecap: square"/>
   </g>
   <g id="line2d_2">
    <path d="M 0 306 
L 3.168 306 
L 6.336 306.634829 
L 9.504 307.663795 
L 12.672 307.147571 
L 15.84 308.351028 
L 19.008 302.822479 
L 22.176 303.731613 
L 25.344 302.838892 
L 28.512 303.316406 
L 31.68 304.196717 
L 34.848 306.389659 
L 38.016 304.456171 
L 41.184 305.23045 
L 44.352 306.670663 
L 47.52 306.861973 
L 50.688 306.025278 
L 53.856 306.035332 
L 57.024 307.922201 
L 63.36 309.210152 
L 66.528 306.03325 
L 69.696 306.104488 
L 72.864 306.987788 
L 76.032 309.09677 
L 79.2 309.588848 
L 82.368 307.713519 
L 85.536 309.681618 
L 88.704 300.608888 
L 91.872 304.624785 
L 95.04 305.835978 
L 98.208 304.039165 
L 101.376 302.766655 
L 104.544 303.456145 
L 107.712 302.219079 
L 110.88 307.306419 
L 114.048 306.093142 
L 117.216 305.765673 
L 120.384 306.165745 
L 123.552 303.939277 
L 126.72 300.888375 
L 129.888 304.936665 
L 133.056 303.382398 
L 136.224 306.480287 
L 139.392 305.332425 
L 142.56 306.430233 
L 145.728 306.82068 
L 152.064 304.267451 
L 155.232 304.291436 
L 158.4 305.236626 
L 161.568 303.910769 
L 164.736 307.128253 
L 167.904 305.678707 
L 171.072 307.418015 
L 174.24 305.664345 
L 177.408 301.591759 
L 180.576 304.231043 
L 183.744 304.784279 
L 186.912 307.494566 
L 190.08 306.683661 
L 193.248 305.646679 
L 196.416 306.515763 
L 199.584 308.320961 
L 202.752 302.195169 
L 205.92 303.351305 
L 209.088 305.164095 
L 212.256 307.246815 
L 215.424 302.514908 
L 218.592 305.482658 
L 221.76 308.110128 
L 224.928 305.796912 
L 228.096 308.675479 
L 231.264 309.013547 
L 234.432 307.826621 
L 237.6 305.151097 
L 240.768 308.753606 
L 243.936 307.730538 
L 247.104 305.973573 
L 250.272 306.21228 
L 253.44 306.977806 
L 256.608 304.882949 
L 259.776 306.37781 
L 262.944 305.065138 
L 266.112 304.840006 
L 269.28 308.470323 
L 272.448 308.672535 
L 275.616 304.541052 
L 278.784 303.005912 
L 281.952 302.707632 
L 285.12 305.986284 
L 288.288 306.144632 
L 291.456 304.576671 
L 294.624 306.710376 
L 297.792 308.02252 
L 300.96 307.536935 
L 304.128 307.44832 
L 307.296 306.749586 
L 310.464 304.585145 
L 313.632 306.266355 
L 316.8 309.420468 
L 319.968 308.770912 
L 323.136 308.97829 
L 326.304 309.895301 
L 329.472 306.290556 
L 332.64 306.062478 
L 335.808 306.608114 
L 338.976 303.037148 
L 342.144 301.996494 
L 345.312 300.391292 
L 348.48 300.772071 
L 351.648 303.532693 
L 354.816 309.534134 
L 357.984 307.72149 
L 361.152 306.380538 
L 364.32 304.35542 
L 367.488 306.456014 
L 370.656 306.095009 
L 373.824 305.873106 
L 376.992 306.138169 
L 380.16 305.98614 
L 383.328 308.291232 
L 386.496 307.524368 
L 389.664 306.548797 
L 392.832 303.92549 
L 396 308.640078 
L 399.168 309.65541 
L 402.336 308.727755 
L 405.504 306.812637 
L 408.672 305.652783 
L 411.84 305.512388 
L 415.008 304.635628 
L 418.176 305.768187 
L 421.344 304.950525 
L 424.512 305.171995 
L 427.68 306.143196 
L 430.848 306.983767 
L 434.016 304.959717 
L 437.184 308.054834 
L 440.352 307.65686 
L 443.52 307.663179 
L 449.856 305.977522 
L 453.024 309.231262 
L 456.192 309.303355 
L 459.36 306.931559 
L 462.528 305.095299 
L 465.696 305.536015 
L 468.864 306.509299 
L 472.032 303.919817 
L 475.2 306.542692 
L 478.368 307.600704 
L 481.536 307.29931 
L 484.704 305.227722 
L 487.872 308.248074 
L 491.04 308.291447 
L 494.208 307.66677 
L 497.376 307.84443 
L 500.544 303.239285 
L 503.712 307.004305 
L 513.216 304.394054 
L 519.552 305.511455 
L 522.72 309.713426 
L 525.888 304.810203 
L 529.056 305.009698 
L 532.224 303.190097 
L 535.392 305.811562 
L 538.56 307.114681 
L 541.728 308.111923 
L 544.896 304.390033 
L 548.064 304.683168 
L 551.232 306.291131 
L 554.4 306.845671 
L 557.568 305.126609 
L 560.736 307.240711 
L 563.904 307.691114 
L 567.072 306.986567 
L 570.24 304.279228 
L 573.408 305.610341 
L 576.576 308.742907 
L 579.744 308.94052 
L 582.912 307.282362 
L 586.08 304.502059 
L 589.248 305.283592 
L 592.416 303.380028 
L 595.584 305.332927 
L 598.752 303.706757 
L 601.92 305.37501 
L 605.088 306.894719 
L 608.256 306.062047 
L 611.424 302.730322 
L 614.592 302.278532 
L 617.76 304.396209 
L 620.928 303.816841 
L 624.096 304.824135 
L 627.264 303.056895 
L 630.432 305.350952 
L 633.6 306.485888 
L 636.768 308.700899 
L 639.936 307.09206 
L 646.272 304.549813 
L 649.44 304.484752 
L 652.608 306.529263 
L 655.776 304.404611 
L 658.944 309.997187 
L 662.112 305.544058 
L 665.28 305.33185 
L 671.616 304.061067 
L 674.784 303.801905 
L 677.952 305.107363 
L 681.12 304.779611 
L 684.288 305.196411 
L 690.624 305.617164 
L 693.792 306.952241 
L 696.96 304.725465 
L 700.128 304.687333 
L 706.464 305.702047 
L 709.632 308.315144 
L 712.8 306.174865 
L 715.968 306.06018 
L 719.136 307.367675 
L 722.304 304.760366 
L 725.472 304.123542 
L 728.64 304.556707 
L 731.808 307.364587 
L 734.976 308.345591 
L 738.144 307.351302 
L 741.312 306.501113 
L 744.48 304.397717 
L 747.648 305.803878 
L 750.816 305.493214 
L 753.984 305.794542 
L 757.152 306.596911 
L 760.32 305.464633 
L 763.488 306.568114 
L 766.656 304.869161 
L 769.824 303.658574 
L 772.992 306.049479 
L 776.16 304.693509 
L 779.328 309.63911 
L 782.496 308.202906 
L 785.664 307.362074 
L 788.832 307.486667 
L 788.832 307.486667 
" clip-path="url(#p63f360d337)" style="fill: none; stroke: #000000; stroke-width: 1.5; stroke-linecap: square"/>
   </g>
   <g id="line2d_3">
    <path d="M 0 306 
L 3.168 306 
L 6.336 306.557811 
L 9.504 307.40857 
L 12.672 307.130244 
L 15.84 307.966006 
L 19.008 304.45146 
L 22.176 304.507724 
L 25.344 303.709602 
L 28.512 303.738085 
L 31.68 304.14512 
L 34.848 305.474015 
L 38.016 304.600721 
L 41.184 305.020559 
L 44.352 305.920543 
L 47.52 306.251367 
L 50.688 305.935147 
L 53.856 305.964911 
L 57.024 307.088704 
L 63.36 308.328765 
L 66.528 306.721952 
L 69.696 306.574145 
L 72.864 306.956787 
L 76.032 308.205007 
L 79.2 308.757035 
L 82.368 307.907521 
L 85.536 309.004235 
L 88.704 303.89609 
L 91.872 305.282267 
L 95.04 305.797031 
L 101.376 303.808079 
L 104.544 303.911581 
L 107.712 303.048981 
L 110.88 305.788881 
L 114.048 305.501664 
L 117.216 305.489682 
L 120.384 305.805863 
L 123.552 304.60059 
L 126.72 302.608497 
L 129.888 304.469397 
L 133.056 303.690213 
L 136.224 305.415608 
L 139.392 305.070231 
L 142.56 305.786467 
L 145.728 306.203194 
L 148.896 305.663356 
L 152.064 304.86248 
L 155.232 304.70776 
L 158.4 305.140449 
L 161.568 304.388726 
L 164.736 306.13276 
L 167.904 305.577584 
L 171.072 306.626807 
L 174.24 305.834296 
L 177.408 303.404563 
L 180.576 304.414388 
L 183.744 304.689751 
L 186.912 306.297076 
L 190.08 306.179839 
L 193.248 305.71619 
L 196.416 306.207158 
L 199.584 307.354519 
L 202.752 304.042899 
L 205.92 304.181884 
L 209.088 304.999581 
L 212.256 306.276484 
L 215.424 303.783659 
L 218.592 305.150957 
L 221.76 306.785244 
L 224.928 305.825344 
L 228.096 307.501587 
L 231.264 308.040771 
L 234.432 307.632267 
L 237.6 306.120942 
L 240.768 307.937925 
L 243.936 307.581922 
L 247.104 306.600076 
L 250.272 306.548837 
L 253.44 306.916407 
L 256.608 305.712781 
L 259.776 306.345021 
L 262.944 305.577832 
L 266.112 305.312424 
L 269.28 307.298694 
L 272.448 307.752874 
L 275.616 305.605423 
L 278.784 304.390083 
L 281.952 303.802433 
L 285.12 305.403783 
L 288.288 305.668582 
L 291.456 304.88073 
L 294.624 306.047732 
L 297.792 307.015766 
L 304.128 307.1118 
L 307.296 306.800592 
L 310.464 305.519346 
L 313.632 306.233482 
L 316.8 308.088926 
L 319.968 308.094715 
L 323.136 308.414801 
L 326.304 309.12461 
L 329.472 307.245448 
L 332.64 306.836329 
L 335.808 306.921474 
L 338.976 304.739717 
L 342.144 303.642318 
L 345.312 302.218979 
L 348.48 301.906542 
L 351.648 303.195755 
L 354.816 306.804733 
L 357.984 306.542068 
L 361.152 306.107381 
L 364.32 304.991398 
L 367.488 306.022375 
L 373.824 305.83719 
L 376.992 305.997827 
L 380.16 305.964557 
L 383.328 307.321271 
L 386.496 307.153745 
L 389.664 306.69406 
L 392.832 305.123445 
L 396 307.542255 
L 399.168 308.463718 
L 402.336 308.269441 
L 405.504 307.270788 
L 408.672 306.462539 
L 411.84 306.145082 
L 415.008 305.449895 
L 418.176 305.866575 
L 421.344 305.367531 
L 424.512 305.38089 
L 430.848 306.455598 
L 434.016 305.417669 
L 437.184 307.095053 
L 440.352 307.140975 
L 443.52 307.30215 
L 446.688 306.923118 
L 449.856 306.383556 
L 453.024 308.169884 
L 456.192 308.526338 
L 462.528 306.167404 
L 465.696 306.115554 
L 468.864 306.516852 
L 472.032 304.999886 
L 475.2 306.219636 
L 478.368 306.940173 
L 481.536 306.958873 
L 484.704 305.846926 
L 487.872 307.425858 
L 491.04 307.690639 
L 494.208 307.500471 
L 497.376 307.647866 
L 500.544 305.012419 
L 503.712 306.694245 
L 510.048 305.699288 
L 513.216 305.079712 
L 516.384 305.176972 
L 519.552 305.454019 
L 522.72 307.940015 
L 525.888 305.575124 
L 529.056 305.470343 
L 532.224 304.267416 
L 535.392 305.488894 
L 541.728 307.146297 
L 544.896 305.247824 
L 548.064 305.175071 
L 551.232 305.974329 
L 554.4 306.385609 
L 557.568 305.508979 
L 560.736 306.640049 
L 563.904 307.085355 
L 567.072 306.85429 
L 570.24 305.300854 
L 573.408 305.771178 
L 576.576 307.568263 
L 579.744 308.030561 
L 582.912 307.32806 
L 586.08 305.687081 
L 589.248 305.797516 
L 592.416 304.528665 
L 595.584 305.33724 
L 598.752 304.385586 
L 601.92 305.16859 
L 605.088 306.121273 
L 608.256 305.862586 
L 611.424 303.960556 
L 614.592 303.333175 
L 617.76 304.259289 
L 620.928 303.966547 
L 624.096 304.507203 
L 627.264 303.559286 
L 630.432 304.755143 
L 633.6 305.594036 
L 636.768 307.15012 
L 643.104 306.06053 
L 646.272 305.23366 
L 649.44 304.999522 
L 652.608 306.039793 
L 655.776 304.937675 
L 658.944 308.060438 
L 662.112 306.032238 
L 665.28 305.769109 
L 671.616 304.726069 
L 674.784 304.377877 
L 677.952 304.98221 
L 681.12 304.820732 
L 687.456 305.207273 
L 690.624 305.391605 
L 693.792 306.239089 
L 696.96 305.143759 
L 700.128 304.997896 
L 706.464 305.501669 
L 709.632 307.079718 
L 712.8 306.192921 
L 715.968 306.121271 
L 719.136 306.874153 
L 722.304 305.490299 
L 725.472 304.904718 
L 728.64 304.928883 
L 731.808 306.466696 
L 734.976 307.310394 
L 738.144 307.029382 
L 741.312 306.625767 
L 744.48 305.357571 
L 747.648 305.89975 
L 750.816 305.688362 
L 753.984 305.806856 
L 757.152 306.277831 
L 760.32 305.706205 
L 763.488 306.284505 
L 769.824 304.50827 
L 772.992 305.665749 
L 776.16 304.985766 
L 779.328 307.798574 
L 785.664 307.20277 
L 788.832 307.323929 
L 788.832 307.323929 
" clip-path="url(#p63f360d337)" style="fill: none; stroke: #000000; stroke-width: 1.5; stroke-linecap: square"/>
   </g>
   <g id="line2d_4">
    <path d="M 0 306 
L 3.168 306 
L 6.336 306.517272 
L 9.504 307.270119 
L 12.672 307.08739 
L 15.84 307.744037 
L 19.008 305.214525 
L 22.176 305.081403 
L 25.344 304.417754 
L 28.512 304.293817 
L 31.68 304.446608 
L 34.848 305.219446 
L 38.016 304.732052 
L 41.184 304.960736 
L 44.352 305.503271 
L 47.52 305.768056 
L 50.688 305.667568 
L 53.856 305.729543 
L 57.024 306.405558 
L 63.36 307.349992 
L 66.528 306.617748 
L 69.696 306.547035 
L 72.864 306.761161 
L 76.032 307.475753 
L 79.2 307.893238 
L 82.368 307.565089 
L 85.536 308.219509 
L 88.704 305.555535 
L 91.872 306.046113 
L 95.04 306.205732 
L 101.376 304.929783 
L 104.544 304.807561 
L 107.712 304.198181 
L 110.88 305.504143 
L 114.048 305.395402 
L 117.216 305.401675 
L 120.384 305.59287 
L 123.552 304.974058 
L 126.72 303.838225 
L 129.888 304.65737 
L 133.056 304.204673 
L 136.224 305.061989 
L 139.392 304.923817 
L 142.56 305.337802 
L 145.728 305.634918 
L 148.896 305.429104 
L 152.064 305.029053 
L 155.232 304.917339 
L 158.4 305.113553 
L 161.568 304.711518 
L 164.736 305.604401 
L 167.904 305.388498 
L 171.072 305.988774 
L 174.24 305.655945 
L 177.408 304.356121 
L 180.576 304.7526 
L 183.744 304.845857 
L 186.912 305.69286 
L 190.08 305.733158 
L 193.248 305.55168 
L 196.416 305.844658 
L 199.584 306.526902 
L 202.752 304.860517 
L 205.92 304.806033 
L 209.088 305.154138 
L 212.256 305.817077 
L 215.424 304.539452 
L 218.592 305.16119 
L 221.76 306.048939 
L 224.928 305.646028 
L 228.096 306.584927 
L 231.264 307.022358 
L 234.432 306.964677 
L 237.6 306.250283 
L 240.768 307.217784 
L 243.936 307.137157 
L 247.104 306.674681 
L 250.272 306.638565 
L 253.44 306.819685 
L 256.608 306.181363 
L 259.776 306.450753 
L 262.944 306.021377 
L 266.112 305.79883 
L 269.28 306.803029 
L 272.448 307.129594 
L 275.616 306.061981 
L 278.784 305.337851 
L 281.952 304.86937 
L 285.12 305.570313 
L 288.288 305.682873 
L 291.456 305.256625 
L 297.792 306.390264 
L 304.128 306.631261 
L 307.296 306.537601 
L 310.464 305.884013 
L 313.632 306.210437 
L 316.8 307.226278 
L 319.968 307.368949 
L 323.136 307.657137 
L 326.304 308.16136 
L 329.472 307.287576 
L 332.64 307.054316 
L 335.808 307.067519 
L 338.976 305.861487 
L 342.144 305.081074 
L 345.312 304.080259 
L 348.48 303.617547 
L 351.648 304.046041 
L 354.816 305.87095 
L 357.984 305.878845 
L 361.152 305.744856 
L 364.32 305.198934 
L 367.488 305.73088 
L 373.824 305.706877 
L 380.16 305.832099 
L 383.328 306.592299 
L 386.496 306.615953 
L 389.664 306.447571 
L 392.832 305.63235 
L 396 306.859057 
L 399.168 307.463237 
L 402.336 307.516437 
L 408.672 306.687065 
L 411.84 306.480518 
L 415.008 306.046006 
L 418.176 306.175007 
L 421.344 305.853338 
L 424.512 305.781085 
L 430.848 306.284354 
L 434.016 305.750741 
L 437.184 306.608688 
L 443.52 306.870364 
L 446.688 306.742215 
L 449.856 306.483807 
L 453.024 307.439149 
L 456.192 307.742446 
L 459.36 307.234208 
L 462.528 306.605541 
L 465.696 306.508569 
L 468.864 306.663001 
L 472.032 305.814751 
L 475.2 306.347552 
L 478.368 306.719051 
L 481.536 306.765602 
L 484.704 306.187563 
L 487.872 306.993797 
L 491.04 307.207425 
L 494.208 307.184957 
L 497.376 307.310677 
L 500.544 305.929251 
L 503.712 306.699885 
L 510.048 306.127849 
L 513.216 305.721797 
L 516.384 305.673854 
L 519.552 305.745672 
L 522.72 307.047946 
L 525.888 305.907561 
L 529.056 305.798722 
L 532.224 305.092519 
L 538.56 306.064561 
L 541.728 306.547835 
L 544.896 305.611386 
L 548.064 305.515244 
L 551.232 305.891279 
L 554.4 306.126843 
L 557.568 305.689211 
L 560.736 306.274834 
L 563.904 306.575022 
L 567.072 306.530345 
L 570.24 305.737192 
L 573.408 305.931082 
L 576.576 306.876077 
L 579.744 307.235191 
L 582.912 306.976617 
L 586.08 306.144409 
L 589.248 306.129865 
L 592.416 305.388205 
L 595.584 305.686716 
L 598.752 305.112295 
L 601.92 305.42775 
L 605.088 305.901925 
L 608.256 305.795182 
L 611.424 304.775795 
L 614.592 304.308118 
L 617.76 304.656637 
L 620.928 304.431548 
L 624.096 304.646917 
L 627.264 304.117221 
L 633.6 305.150707 
L 636.768 306.06237 
L 639.936 305.966126 
L 643.104 305.747285 
L 646.272 305.352058 
L 649.44 305.204217 
L 652.608 305.736236 
L 655.776 305.186487 
L 658.944 306.844384 
L 662.112 305.929903 
L 665.28 305.799319 
L 674.784 304.924691 
L 677.952 305.159393 
L 681.12 305.04256 
L 690.624 305.310862 
L 693.792 305.786015 
L 696.96 305.2606 
L 700.128 305.164226 
L 706.464 305.401768 
L 709.632 306.281326 
L 712.8 305.927705 
L 715.968 305.933026 
L 719.136 306.370422 
L 722.304 305.698952 
L 725.472 305.346241 
L 728.64 305.292308 
L 731.808 306.067848 
L 734.976 306.588395 
L 741.312 306.404992 
L 744.48 305.753502 
L 747.648 305.984559 
L 750.816 305.856373 
L 753.984 305.892262 
L 757.152 306.136936 
L 760.32 305.845935 
L 763.488 306.139661 
L 769.824 305.154212 
L 772.992 305.679402 
L 776.16 305.307818 
L 779.328 306.783653 
L 788.832 306.88023 
L 788.832 306.88023 
" clip-path="url(#p63f360d337)" style="fill: none; stroke: #000000; stroke-width: 1.5; stroke-linecap: square"/>
   </g>
   <g id="line2d_5">
    <path d="M 0 306 
L 3.168 306 
L 6.336 306.496735 
L 9.504 307.199732 
L 12.672 307.056955 
L 15.84 307.628788 
L 19.008 305.548282 
L 22.176 305.38006 
L 25.344 304.811195 
L 28.512 304.656597 
L 31.68 304.717859 
L 34.848 305.239806 
L 38.016 304.893053 
L 41.184 305.031249 
L 44.352 305.390072 
L 47.52 305.578769 
L 53.856 305.588295 
L 57.024 306.029913 
L 63.36 306.703186 
L 66.528 306.323358 
L 69.696 306.309687 
L 72.864 306.45942 
L 76.032 306.907404 
L 79.2 307.20343 
L 82.368 307.078232 
L 85.536 307.497239 
L 88.704 306.050504 
L 91.872 306.282451 
L 95.04 306.350714 
L 101.376 305.592356 
L 104.544 305.46702 
L 107.712 305.075775 
L 110.88 305.71365 
L 117.216 305.620648 
L 120.384 305.702281 
L 123.552 305.35967 
L 126.72 304.716384 
L 129.888 305.079538 
L 133.056 304.802119 
L 136.224 305.209236 
L 139.392 305.122485 
L 145.728 305.48482 
L 148.896 305.389162 
L 152.064 305.181276 
L 155.232 305.109898 
L 158.4 305.198617 
L 161.568 304.98134 
L 164.736 305.429519 
L 167.904 305.329952 
L 171.072 305.649951 
L 174.24 305.504501 
L 177.408 304.838253 
L 180.576 305.007316 
L 183.744 305.035173 
L 186.912 305.46436 
L 196.416 305.589464 
L 199.584 305.965586 
L 202.752 305.141465 
L 205.92 305.089129 
L 209.088 305.245285 
L 212.256 305.584828 
L 215.424 304.937024 
L 218.592 305.227045 
L 221.76 305.687634 
L 224.928 305.506495 
L 228.096 306.006515 
L 231.264 306.284388 
L 234.432 306.314486 
L 237.6 305.996114 
L 240.768 306.522443 
L 243.936 306.538583 
L 247.104 306.346732 
L 253.44 306.47158 
L 256.608 306.166938 
L 259.776 306.307482 
L 266.112 305.971359 
L 269.28 306.481325 
L 272.448 306.679344 
L 275.616 306.158507 
L 281.952 305.487161 
L 285.12 305.801367 
L 288.288 305.84043 
L 291.456 305.609651 
L 297.792 306.166605 
L 307.296 306.308464 
L 310.464 305.988482 
L 313.632 306.149095 
L 316.8 306.681816 
L 323.136 307.00111 
L 326.304 307.319175 
L 329.472 306.937699 
L 332.64 306.845176 
L 335.808 306.870989 
L 338.976 306.25587 
L 342.144 305.818677 
L 345.312 305.235114 
L 348.48 304.896917 
L 351.648 305.014943 
L 354.816 305.888069 
L 361.152 305.819983 
L 364.32 305.529338 
L 367.488 305.777556 
L 380.16 305.82128 
L 383.328 306.217286 
L 389.664 306.2023 
L 392.832 305.796463 
L 396 306.424134 
L 399.168 306.776035 
L 402.336 306.859821 
L 415.008 306.201267 
L 418.176 306.260466 
L 421.344 306.085474 
L 424.512 306.028016 
L 430.848 306.25892 
L 434.016 305.981535 
L 437.184 306.410086 
L 446.688 306.532688 
L 449.856 306.414285 
L 453.024 306.918368 
L 456.192 307.122322 
L 465.696 306.556514 
L 468.864 306.634358 
L 472.032 306.192174 
L 478.368 306.625984 
L 481.536 306.659416 
L 484.704 306.369355 
L 487.872 306.77402 
L 491.04 306.903462 
L 497.376 307.005744 
L 500.544 306.310864 
L 503.712 306.681441 
L 510.048 306.37525 
L 513.216 306.143854 
L 519.552 306.084166 
L 522.72 306.734114 
L 525.888 306.164054 
L 529.056 306.084792 
L 532.224 305.694322 
L 541.728 306.37663 
L 544.896 305.904512 
L 548.064 305.83238 
L 554.4 306.119063 
L 557.568 305.889428 
L 560.736 306.177859 
L 563.904 306.341928 
L 567.072 306.33916 
L 570.24 305.940942 
L 573.408 306.023755 
L 576.576 306.510163 
L 579.744 306.728604 
L 582.912 306.636132 
L 586.08 306.227858 
L 589.248 306.214805 
L 592.416 305.82177 
L 595.584 305.943364 
L 598.752 305.620682 
L 608.256 305.901079 
L 611.424 305.360479 
L 614.592 305.067402 
L 617.76 305.186727 
L 620.928 305.025069 
L 624.096 305.091322 
L 627.264 304.776325 
L 633.6 305.230286 
L 636.768 305.70103 
L 643.104 305.590124 
L 646.272 305.394728 
L 649.44 305.313731 
L 652.608 305.583068 
L 655.776 305.307354 
L 658.944 306.160218 
L 662.112 305.741525 
L 668.448 305.553042 
L 674.784 305.224883 
L 677.952 305.323283 
L 684.288 305.281905 
L 690.624 305.349385 
L 693.792 305.591827 
L 696.96 305.333934 
L 703.296 305.316796 
L 706.464 305.387207 
L 709.632 305.847246 
L 712.8 305.697193 
L 715.968 305.718534 
L 719.136 305.964854 
L 722.304 305.647308 
L 725.472 305.464975 
L 728.64 305.427445 
L 734.976 306.115583 
L 741.312 306.093285 
L 744.48 305.777847 
L 747.648 305.897191 
L 753.984 305.857902 
L 757.152 305.98673 
L 760.32 305.851354 
L 763.488 306.00145 
L 769.824 305.489003 
L 772.992 305.735789 
L 776.16 305.536171 
L 779.328 306.285315 
L 788.832 306.447985 
L 788.832 306.447985 
" clip-path="url(#p63f360d337)" style="fill: none; stroke: #000000; stroke-width: 1.5; stroke-linecap: square"/>
   </g>
   <g id="line2d_6">
    <path d="M 0 306 
L 3.168 306 
L 6.336 306.486433 
L 9.504 307.164473 
L 12.672 307.039604 
L 15.84 307.570709 
L 19.008 305.699167 
L 22.176 305.525326 
L 25.344 305.008225 
L 28.512 304.849904 
L 31.68 304.878179 
L 34.848 305.29243 
L 38.016 305.004472 
L 41.184 305.104293 
L 44.352 305.380724 
L 47.52 305.528274 
L 53.856 305.542181 
L 60.192 306.120957 
L 63.36 306.39477 
L 66.528 306.144512 
L 69.696 306.147176 
L 72.864 306.262826 
L 79.2 306.808525 
L 82.368 306.74861 
L 85.536 307.049372 
L 88.704 306.117641 
L 95.04 306.311223 
L 101.376 305.821975 
L 104.544 305.729823 
L 107.712 305.469689 
L 110.88 305.84567 
L 117.216 305.77297 
L 120.384 305.814709 
L 123.552 305.601539 
L 126.72 305.202381 
L 129.888 305.394492 
L 133.056 305.213868 
L 136.224 305.433455 
L 139.392 305.371386 
L 145.728 305.562568 
L 161.568 305.237005 
L 164.736 305.4779 
L 167.904 305.419638 
L 171.072 305.594651 
L 174.24 305.516076 
L 177.408 305.145116 
L 199.584 305.733865 
L 202.752 305.297048 
L 205.92 305.261858 
L 212.256 305.517877 
L 215.424 305.173157 
L 221.76 305.559593 
L 224.928 305.468472 
L 231.264 305.894979 
L 234.432 305.92794 
L 237.6 305.776842 
L 240.768 306.064053 
L 247.104 306.011405 
L 259.776 306.045093 
L 266.112 305.888332 
L 269.28 306.157602 
L 272.448 306.274862 
L 278.784 305.825106 
L 281.952 305.67722 
L 285.12 305.832243 
L 288.288 305.852164 
L 291.456 305.729604 
L 300.96 306.057765 
L 307.296 306.109572 
L 310.464 305.952051 
L 313.632 306.037554 
L 316.8 306.3168 
L 323.136 306.514218 
L 326.304 306.697949 
L 329.472 306.526718 
L 335.808 306.524424 
L 345.312 305.693063 
L 348.48 305.500244 
L 351.648 305.534914 
L 354.816 305.960121 
L 361.152 305.919047 
L 364.32 305.765371 
L 367.488 305.883234 
L 380.16 305.887611 
L 383.328 306.08753 
L 389.664 306.092136 
L 392.832 305.88931 
L 396 306.205965 
L 399.168 306.395241 
L 402.336 306.454813 
L 424.512 306.078094 
L 430.848 306.195197 
L 434.016 306.057122 
L 437.184 306.273092 
L 446.688 306.358046 
L 449.856 306.30433 
L 453.024 306.566392 
L 456.192 306.68593 
L 465.696 306.433495 
L 468.864 306.477608 
L 472.032 306.259905 
L 478.368 306.480169 
L 481.536 306.501818 
L 484.704 306.359055 
L 487.872 306.566773 
L 497.376 306.716968 
L 500.544 306.374626 
L 503.712 306.562016 
L 519.552 306.250865 
L 522.72 306.576254 
L 525.888 306.292179 
L 529.056 306.247768 
L 532.224 306.042202 
L 541.728 306.36052 
L 544.896 306.119502 
L 548.064 306.072094 
L 554.4 306.20156 
L 557.568 306.082847 
L 563.904 306.30399 
L 567.072 306.304136 
L 570.24 306.101901 
L 573.408 306.137624 
L 576.576 306.380683 
L 579.744 306.498173 
L 582.912 306.46209 
L 586.08 306.261529 
L 589.248 306.253668 
L 592.416 306.05048 
L 595.584 306.102138 
L 598.752 305.932021 
L 608.256 306.048332 
L 611.424 305.765935 
L 614.592 305.598767 
L 617.76 305.636268 
L 620.928 305.536136 
L 624.096 305.547603 
L 627.264 305.366464 
L 633.6 305.554292 
L 636.768 305.779963 
L 643.104 305.717823 
L 649.44 305.561132 
L 652.608 305.688372 
L 655.776 305.544066 
L 658.944 305.969966 
L 662.112 305.764441 
L 671.616 305.570158 
L 674.784 305.482927 
L 681.12 305.477228 
L 690.624 305.503895 
L 693.792 305.621529 
L 700.128 305.452704 
L 706.464 305.494771 
L 709.632 305.724855 
L 715.968 305.666075 
L 719.136 305.793706 
L 725.472 305.545911 
L 728.64 305.521765 
L 734.976 305.872526 
L 741.312 305.882315 
L 744.48 305.73172 
L 750.816 305.769416 
L 766.656 305.753219 
L 769.824 305.613085 
L 772.992 305.732732 
L 776.16 305.631095 
L 779.328 306.01079 
L 788.832 306.12818 
L 788.832 306.12818 
" clip-path="url(#p63f360d337)" style="fill: none; stroke: #000000; stroke-width: 1.5; stroke-linecap: square"/>
   </g>
   <g id="line2d_7">
    <path d="M 0 306 
L 3.168 306 
L 6.336 306.481278 
L 9.504 307.146856 
L 12.672 307.030421 
L 15.84 307.541642 
L 19.008 305.770223 
L 22.176 305.596039 
L 25.344 305.105395 
L 28.512 304.947776 
L 31.68 304.962806 
L 34.848 305.328603 
L 38.016 305.067453 
L 41.184 305.150474 
L 47.52 305.517346 
L 53.856 305.530228 
L 60.192 306.023741 
L 63.36 306.25779 
L 66.528 306.059079 
L 72.864 306.164487 
L 79.2 306.616029 
L 82.368 306.578084 
L 85.536 306.823045 
L 88.704 306.106032 
L 95.04 306.258338 
L 107.712 305.618156 
L 110.88 305.891232 
L 123.552 305.705912 
L 126.72 305.415491 
L 129.888 305.544777 
L 133.056 305.411341 
L 136.224 305.559068 
L 139.392 305.511222 
L 145.728 305.635655 
L 161.568 305.396243 
L 164.736 305.552419 
L 167.904 305.511292 
L 171.072 305.62436 
L 174.24 305.571667 
L 177.408 305.326742 
L 199.584 305.684817 
L 202.752 305.41025 
L 209.088 305.429574 
L 212.256 305.538802 
L 215.424 305.324052 
L 234.432 305.785292 
L 237.6 305.697687 
L 240.768 305.872932 
L 253.44 305.916298 
L 256.608 305.835908 
L 262.944 305.833342 
L 266.112 305.802949 
L 272.448 306.036211 
L 281.952 305.699325 
L 288.288 305.800842 
L 291.456 305.731728 
L 304.128 305.958202 
L 313.632 305.924767 
L 319.968 306.134032 
L 326.304 306.3177 
L 332.64 306.221707 
L 335.808 306.243476 
L 348.48 305.684865 
L 351.648 305.699621 
L 354.816 305.929651 
L 392.832 305.897196 
L 399.168 306.172807 
L 405.504 306.180018 
L 424.512 306.031386 
L 468.864 306.291593 
L 472.032 306.181302 
L 481.536 306.317222 
L 484.704 306.247051 
L 491.04 306.401614 
L 497.376 306.450889 
L 500.544 306.278648 
L 503.712 306.377869 
L 519.552 306.227061 
L 522.72 306.396057 
L 525.888 306.252976 
L 538.56 306.223186 
L 541.728 306.286272 
L 548.064 306.138095 
L 567.072 306.254697 
L 570.24 306.152202 
L 576.576 306.293644 
L 582.912 306.339468 
L 592.416 306.132333 
L 595.584 306.156993 
L 601.92 306.090217 
L 608.256 306.12108 
L 614.592 305.885106 
L 624.096 305.84033 
L 627.264 305.741948 
L 643.104 305.894046 
L 649.44 305.806158 
L 652.608 305.86554 
L 655.776 305.788284 
L 658.944 305.999991 
L 665.28 305.877722 
L 684.288 305.722404 
L 715.968 305.773473 
L 719.136 305.836075 
L 728.64 305.692305 
L 738.144 305.87548 
L 779.328 305.923826 
L 788.832 305.989984 
L 788.832 305.989984 
" clip-path="url(#p63f360d337)" style="fill: none; stroke: #000000; stroke-width: 1.5; stroke-linecap: square"/>
   </g>
   <g id="line2d_8">
    <path d="M 0 306 
L 3.168 306 
L 6.336 306.4787 
L 9.504 307.138055 
L 12.672 307.025706 
L 15.84 307.527113 
L 19.008 305.804616 
L 22.176 305.630807 
L 25.344 305.153464 
L 28.512 304.996776 
L 31.68 305.00597 
L 34.848 305.348954 
L 38.016 305.100591 
L 41.184 305.175862 
L 47.52 305.515674 
L 53.856 305.527516 
L 63.36 306.195295 
L 66.528 306.019139 
L 72.864 306.117379 
L 79.2 306.524208 
L 82.368 306.494769 
L 85.536 306.713374 
L 88.704 306.091282 
L 95.04 306.225352 
L 107.712 305.676812 
L 110.88 305.906053 
L 123.552 305.74891 
L 126.72 305.506928 
L 129.888 305.610863 
L 133.056 305.499272 
L 136.224 305.617606 
L 142.56 305.631211 
L 148.896 305.638801 
L 155.232 305.534397 
L 174.24 305.609349 
L 177.408 305.418196 
L 199.584 305.682489 
L 202.752 305.475499 
L 209.088 305.487028 
L 212.256 305.567315 
L 215.424 305.40708 
L 234.432 305.743093 
L 237.6 305.680324 
L 243.936 305.824702 
L 256.608 305.78728 
L 262.944 305.787616 
L 266.112 305.76701 
L 272.448 305.932933 
L 281.952 305.701435 
L 288.288 305.772096 
L 294.624 305.778159 
L 304.128 305.882656 
L 316.8 305.971879 
L 335.808 306.092088 
L 348.48 305.729019 
L 351.648 305.737987 
L 354.816 305.887416 
L 396 305.981385 
L 402.336 306.074115 
L 434.016 305.971111 
L 443.52 306.081548 
L 453.024 306.155011 
L 459.36 306.176474 
L 472.032 306.088775 
L 481.536 306.175124 
L 487.872 306.202754 
L 497.376 306.264729 
L 500.544 306.164948 
L 506.88 306.211741 
L 519.552 306.143949 
L 522.72 306.244207 
L 532.224 306.089065 
L 544.896 306.115687 
L 560.736 306.14645 
L 570.24 306.115304 
L 595.584 306.125624 
L 601.92 306.088004 
L 608.256 306.105818 
L 614.592 305.972176 
L 646.272 305.933558 
L 655.776 305.903125 
L 658.944 306.019356 
L 668.448 305.927578 
L 687.456 305.853321 
L 785.664 305.949442 
L 788.832 305.96864 
L 788.832 305.96864 
" clip-path="url(#p63f360d337)" style="fill: none; stroke: #000000; stroke-width: 1.5; stroke-linecap: square"/>
   </g>
   <g id="line2d_9">
    <path d="M 0 306 
L 3.168 306 
L 6.336 306.477411 
L 9.504 307.133656 
L 12.672 307.023319 
L 15.84 307.519851 
L 19.008 305.821525 
L 22.176 305.648032 
L 25.344 305.177349 
L 28.512 305.021261 
L 31.68 305.027728 
L 34.848 305.359666 
L 38.016 305.117544 
L 41.184 305.189107 
L 47.52 305.515794 
L 53.856 305.52702 
L 63.36 306.165728 
L 66.528 306.000074 
L 72.864 306.094607 
L 79.2 306.479809 
L 82.368 306.454055 
L 85.536 306.65996 
L 88.704 306.082114 
L 95.04 306.207616 
L 107.712 305.702119 
L 110.88 305.911346 
L 123.552 305.767659 
L 126.72 305.548129 
L 129.888 305.640854 
L 133.056 305.539546 
L 136.224 305.644829 
L 142.56 305.655447 
L 148.896 305.661245 
L 155.232 305.567382 
L 174.24 305.629533 
L 177.408 305.462515 
L 199.584 305.686356 
L 202.752 305.509129 
L 209.088 305.517654 
L 212.256 305.585367 
L 215.424 305.449128 
L 234.432 305.730384 
L 237.6 305.678155 
L 243.936 305.798876 
L 256.608 305.769449 
L 272.448 305.890066 
L 281.952 305.702968 
L 288.288 305.760259 
L 294.624 305.765257 
L 307.296 305.852373 
L 313.632 305.835482 
L 323.136 305.991455 
L 329.472 306.010176 
L 338.976 305.941837 
L 351.648 305.747372 
L 354.816 305.863026 
L 396 305.937233 
L 405.504 305.996366 
L 434.016 305.936424 
L 443.52 306.019414 
L 487.872 306.117316 
L 503.712 306.137645 
L 557.568 306.062775 
L 570.24 306.071685 
L 608.256 306.070771 
L 617.76 305.984872 
L 633.6 305.950742 
L 643.104 305.975406 
L 655.776 305.932698 
L 658.944 306.009627 
L 674.784 305.91004 
L 763.488 305.923254 
L 776.16 305.877549 
L 782.496 305.947254 
L 788.832 305.963497 
L 788.832 305.963497 
" clip-path="url(#p63f360d337)" style="fill: none; stroke: #000000; stroke-width: 1.5; stroke-linecap: square"/>
   </g>
  </g>
 </g>
 <defs>
  <clipPath id="p63f360d337">
   <rect x="0" y="0" width="792" height="612"/>
  </clipPath>
 </defs>
</svg>
