<?xml version="1.0" encoding="utf-8" standalone="no"?>
<!DOCTYPE svg PUBLIC "-//W3C//DTD SVG 1.1//EN"
  "http://www.w3.org/Graphics/SVG/1.1/DTD/svg11.dtd">
<svg xmlns:xlink="http://www.w3.org/1999/xlink" width="792pt" height="612pt" viewBox="0 0 792 612" xmlns="http://www.w3.org/2000/svg" version="1.1">
 <metadata>
  <rdf:RDF xmlns:dc="http://purl.org/dc/elements/1.1/" xmlns:cc="http://creativecommons.org/ns#" xmlns:rdf="http://www.w3.org/1999/02/22-rdf-syntax-ns#">
   <cc:Work>
    <dc:type rdf:resource="http://purl.org/dc/dcmitype/StillImage"/>
    <dc:date>2023-01-02T15:38:52.751026</dc:date>
    <dc:format>image/svg+xml</dc:format>
    <dc:creator>
     <cc:Agent>
      <dc:title>Matplotlib v3.6.2, https://matplotlib.org/</dc:title>
     </cc:Agent>
    </dc:creator>
   </cc:Work>
  </rdf:RDF>
 </metadata>
 <defs>
  <style type="text/css">*{stroke-linejoin: round; stroke-linecap: butt}</style>
 </defs>
 <g id="figure_1">
  <g id="patch_1">
   <path d="M 0 612 
L 792 612 
L 792 0 
L 0 0 
z
" style="fill: #ffffff"/>
  </g>
  <g id="axes_1">
   <g id="line2d_1">
    <path d="M 0 306 
L 12.571429 301.462833 
L 25.142857 306.956247 
L 37.714286 311.999231 
L 50.285714 309.206133 
L 62.857143 305.60625 
L 75.428571 301.650293 
L 88 306.075 
L 100.571429 301.387849 
L 113.142857 307.293742 
L 125.714286 302.006477 
L 138.285714 307.087495 
L 150.857143 308.474946 
L 163.428571 305.212502 
L 176 299.251095 
L 188.571429 301.744024 
L 201.142857 306.50625 
L 213.714286 303.187579 
L 226.285714 305.8125 
L 238.857143 301.200394 
L 251.428571 307.687483 
L 264 307.649984 
L 276.571429 310.987058 
L 289.142857 305.456251 
L 301.714286 304.57501 
L 314.285714 303.187579 
L 326.857143 304.387515 
L 339.428571 308.606187 
L 352 302.212693 
L 364.571429 315.784164 
L 377.142857 301.012942 
L 389.714286 305.100003 
L 402.285714 303.993779 
L 414.857143 303.375064 
L 427.428571 303.487556 
L 440 306.43125 
L 452.571429 304.406264 
L 465.142857 305.64375 
L 477.714286 305.56875 
L 490.285714 305.83125 
L 502.857143 308.324955 
L 515.428571 302.418913 
L 528 304.61251 
L 540.571429 305.7375 
L 553.142857 306.1875 
L 565.714286 311.024548 
L 578.285714 303.993779 
L 590.857143 305.94375 
L 603.428571 308.737427 
L 616 302.062717 
L 628.571429 303.43131 
L 641.142857 304.968754 
L 653.714286 310.255976 
L 666.285714 309.412359 
L 678.857143 306.35625 
L 691.428571 305.64375 
L 704 302.231441 
L 716.571429 307.218744 
L 729.142857 305.156252 
L 741.714286 306.09375 
L 754.285714 307.443739 
L 766.857143 304.312517 
L 779.428571 307.706232 
" clip-path="url(#p57dd917d57)" style="fill: none; stroke: #000000; stroke-width: 1.5; stroke-linecap: square"/>
   </g>
   <g id="line2d_2">
    <path d="M 0 306 
L 12.571429 306 
L 25.142857 302.975099 
L 37.714286 305.250002 
L 50.285714 308.849918 
L 62.857143 309.033772 
L 75.428571 307.292849 
L 88 304.449226 
L 100.571429 305.265296 
L 113.142857 303.317422 
L 125.714286 305.316986 
L 138.285714 303.651958 
L 150.857143 305.360074 
L 163.428571 306.9161 
L 176 306.063529 
L 188.571429 302.652192 
L 201.142857 302.189609 
L 213.714286 304.357883 
L 226.285714 303.764672 
L 238.857143 304.796036 
L 251.428571 302.986568 
L 264 305.335442 
L 276.571429 306.4975 
L 289.142857 308.765439 
L 301.714286 307.118157 
L 314.285714 305.842794 
L 326.857143 304.515159 
L 339.428571 304.448543 
L 352 306.541911 
L 364.571429 304.366486 
L 377.142857 310.092697 
L 389.714286 305.533162 
L 402.285714 305.315883 
L 414.857143 304.653685 
L 427.428571 304.014734 
L 440 303.749379 
L 452.571429 305.086032 
L 465.142857 304.750448 
L 477.714286 305.177208 
L 490.285714 305.381913 
L 502.857143 305.608015 
L 515.428571 306.974997 
L 528 304.695008 
L 540.571429 304.655965 
L 553.142857 305.19537 
L 565.714286 305.694927 
L 578.285714 308.370467 
L 590.857143 306.179044 
L 603.428571 306.061618 
L 616 307.400358 
L 628.571429 304.730743 
L 641.142857 304.078702 
L 653.714286 304.522217 
L 666.285714 307.397196 
L 678.857143 308.401642 
L 691.428571 307.383594 
L 704 306.513088 
L 716.571429 304.359427 
L 729.142857 305.799191 
L 741.714286 305.481103 
L 754.285714 305.789632 
L 766.857143 306.611176 
L 779.428571 305.451839 
" clip-path="url(#p57dd917d57)" style="fill: none; stroke: #000000; stroke-width: 1.5; stroke-linecap: square"/>
   </g>
   <g id="line2d_3">
    <path d="M 0 306 
L 12.571429 306 
L 25.142857 303.342061 
L 37.714286 304.979552 
L 50.285714 307.721187 
L 62.857143 308.249526 
L 75.428571 307.364747 
L 88 305.528653 
L 100.571429 305.699342 
L 113.142857 304.378054 
L 125.714286 305.25958 
L 138.285714 304.285187 
L 150.857143 305.118984 
L 163.428571 306.112918 
L 176 305.847115 
L 188.571429 303.904164 
L 201.142857 303.268961 
L 213.714286 304.217692 
L 226.285714 303.917955 
L 238.857143 304.47153 
L 251.428571 303.500963 
L 264 304.725395 
L 276.571429 305.584334 
L 289.142857 307.177604 
L 301.714286 306.672723 
L 314.285714 306.061976 
L 326.857143 305.215347 
L 339.428571 304.975614 
L 352 306.040744 
L 364.571429 304.912289 
L 377.142857 308.109674 
L 389.714286 306.033008 
L 402.285714 305.763591 
L 414.857143 305.242333 
L 427.428571 304.695626 
L 440 304.339114 
L 452.571429 304.957888 
L 465.142857 304.792551 
L 477.714286 305.039556 
L 490.285714 305.188329 
L 502.857143 305.377066 
L 515.428571 306.244803 
L 528 305.123297 
L 540.571429 304.973949 
L 553.142857 305.194292 
L 565.714286 305.489761 
L 578.285714 307.105519 
L 590.857143 306.197531 
L 603.428571 306.124169 
L 616 306.895042 
L 628.571429 305.478118 
L 641.142857 304.878544 
L 653.714286 304.903286 
L 666.285714 306.477849 
L 678.857143 307.341709 
L 691.428571 307.053981 
L 704 306.64072 
L 716.571429 305.342219 
L 729.142857 305.897355 
L 741.714286 305.680915 
L 754.285714 305.802241 
L 766.857143 306.28447 
L 779.428571 305.699184 
" clip-path="url(#p57dd917d57)" style="fill: none; stroke: #000000; stroke-width: 1.5; stroke-linecap: square"/>
   </g>
   <g id="line2d_4">
    <path d="M 0 306 
L 12.571429 306 
L 25.142857 303.535222 
L 37.714286 304.877825 
L 50.285714 307.144144 
L 62.857143 307.710237 
L 75.428571 307.192411 
L 88 305.937513 
L 100.571429 305.966679 
L 113.142857 305.044188 
L 125.714286 305.478957 
L 138.285714 304.829969 
L 150.857143 305.240458 
L 163.428571 305.815532 
L 176 305.710285 
L 188.571429 304.59991 
L 201.142857 304.115205 
L 213.714286 304.516724 
L 226.285714 304.295469 
L 238.857143 304.546146 
L 251.428571 303.996608 
L 264 304.599676 
L 276.571429 305.095954 
L 289.142857 306.051065 
L 301.714286 305.954926 
L 314.285714 305.732452 
L 326.857143 305.323018 
L 339.428571 305.172779 
L 352 305.723356 
L 364.571429 305.161075 
L 377.142857 306.861165 
L 389.714286 305.92628 
L 402.285714 305.794301 
L 414.857143 305.506575 
L 427.428571 305.168629 
L 440 304.898994 
L 452.571429 305.139305 
L 465.142857 305.01968 
L 477.714286 305.118995 
L 490.285714 305.192997 
L 502.857143 305.294393 
L 515.428571 305.780901 
L 528 305.242931 
L 540.571429 305.144254 
L 553.142857 305.237799 
L 565.714286 305.387472 
L 578.285714 306.288049 
L 590.857143 305.925977 
L 603.428571 305.931426 
L 616 306.379274 
L 628.571429 305.691758 
L 641.142857 305.330619 
L 653.714286 305.275396 
L 666.285714 306.069469 
L 678.857143 306.602456 
L 691.428571 306.560394 
L 704 306.41467 
L 716.571429 305.747611 
L 729.142857 305.98419 
L 741.714286 305.852941 
L 754.285714 305.889687 
L 766.857143 306.140208 
L 779.428571 305.842253 
" clip-path="url(#p57dd917d57)" style="fill: none; stroke: #000000; stroke-width: 1.5; stroke-linecap: square"/>
   </g>
   <g id="line2d_5">
    <path d="M 0 306 
L 12.571429 306 
L 25.142857 303.633073 
L 37.714286 304.838014 
L 50.285714 306.867471 
L 62.857143 307.419567 
L 75.428571 307.048335 
L 88 306.063085 
L 100.571429 306.065063 
L 113.142857 305.348129 
L 125.714286 305.626755 
L 138.285714 305.137721 
L 150.857143 305.388048 
L 163.428571 305.767165 
L 176 305.701654 
L 188.571429 304.9655 
L 201.142857 304.608983 
L 213.714286 304.813282 
L 226.285714 304.642436 
L 238.857143 304.762737 
L 251.428571 304.403556 
L 264 304.728835 
L 276.571429 305.013609 
L 289.142857 305.587667 
L 301.714286 305.575202 
L 314.285714 305.481442 
L 326.857143 305.268692 
L 339.428571 305.187756 
L 352 305.498985 
L 364.571429 305.202163 
L 377.142857 306.151243 
L 389.714286 305.693553 
L 402.285714 305.641007 
L 414.857143 305.495979 
L 427.428571 305.310183 
L 440 305.151249 
L 452.571429 305.262395 
L 465.142857 305.188338 
L 477.714286 305.227594 
L 490.285714 305.256908 
L 502.857143 305.306113 
L 515.428571 305.56406 
L 528 305.295968 
L 540.571429 305.237842 
L 553.142857 305.280249 
L 565.714286 305.357104 
L 578.285714 305.836422 
L 590.857143 305.680837 
L 603.428571 305.703004 
L 616 305.958516 
L 628.571429 305.630857 
L 641.142857 305.446073 
L 653.714286 305.406015 
L 666.285714 305.812684 
L 678.857143 306.114256 
L 691.428571 306.134513 
L 704 306.093461 
L 716.571429 305.7706 
L 729.142857 305.891586 
L 741.714286 305.830186 
L 754.285714 305.852182 
L 766.857143 305.984948 
L 779.428571 305.845494 
" clip-path="url(#p57dd917d57)" style="fill: none; stroke: #000000; stroke-width: 1.5; stroke-linecap: square"/>
   </g>
   <g id="line2d_6">
    <path d="M 0 306 
L 12.571429 306 
L 25.142857 303.682159 
L 37.714286 304.821106 
L 50.285714 306.734077 
L 62.857143 307.272245 
L 75.428571 306.963666 
L 88 306.102456 
L 100.571429 306.098482 
L 113.142857 305.479878 
L 125.714286 305.698611 
L 138.285714 305.285644 
L 150.857143 305.474083 
L 163.428571 305.769548 
L 176 305.717614 
L 188.571429 305.1438 
L 201.142857 304.855501 
L 213.714286 304.98978 
L 226.285714 304.848672 
L 238.857143 304.921519 
L 251.428571 304.649279 
L 264 304.864903 
L 276.571429 305.057072 
L 289.142857 305.455664 
L 301.714286 305.455702 
L 314.285714 305.399251 
L 326.857143 305.260494 
L 339.428571 305.206818 
L 352 305.411919 
L 364.571429 305.222287 
L 377.142857 305.838105 
L 389.714286 305.561233 
L 402.285714 305.53516 
L 414.857143 305.44924 
L 427.428571 305.335142 
L 440 305.234775 
L 452.571429 305.299004 
L 465.142857 305.251614 
L 477.714286 305.27221 
L 490.285714 305.287629 
L 502.857143 305.315625 
L 515.428571 305.469212 
L 528 305.314862 
L 540.571429 305.279613 
L 553.142857 305.302415 
L 565.714286 305.346168 
L 578.285714 305.62493 
L 590.857143 305.545391 
L 603.428571 305.564693 
L 616 305.7175 
L 628.571429 305.542479 
L 641.142857 305.441933 
L 653.714286 305.419516 
L 666.285714 305.647527 
L 678.857143 305.824177 
L 691.428571 305.849029 
L 704 305.839482 
L 716.571429 305.672359 
L 729.142857 305.743704 
L 741.714286 305.716702 
L 754.285714 305.733971 
L 766.857143 305.812015 
L 779.428571 305.74379 
" clip-path="url(#p57dd917d57)" style="fill: none; stroke: #000000; stroke-width: 1.5; stroke-linecap: square"/>
   </g>
   <g id="line2d_7">
    <path d="M 0 306 
L 12.571429 306 
L 25.142857 303.706722 
L 37.714286 304.813421 
L 50.285714 306.66885 
L 62.857143 307.198544 
L 75.428571 306.918589 
L 88 306.116155 
L 100.571429 306.110612 
L 113.142857 305.539219 
L 125.714286 305.732261 
L 138.285714 305.355672 
L 150.857143 305.517796 
L 163.428571 305.775996 
L 176 305.729837 
L 188.571429 305.229317 
L 201.142857 304.974316 
L 213.714286 305.080879 
L 226.285714 304.955223 
L 238.857143 305.00967 
L 251.428571 304.777484 
L 264 304.948097 
L 276.571429 305.100828 
L 289.142857 305.422301 
L 301.714286 305.424096 
L 314.285714 305.380583 
L 326.857143 305.271451 
L 339.428571 305.228676 
L 352 305.387828 
L 364.571429 305.241953 
L 377.142857 305.714827 
L 389.714286 305.508793 
L 402.285714 305.491274 
L 414.857143 305.428443 
L 427.428571 305.34402 
L 440 305.269167 
L 452.571429 305.315153 
L 465.142857 305.279827 
L 477.714286 305.293729 
L 490.285714 305.304062 
L 502.857143 305.323554 
L 515.428571 305.432828 
L 528 305.324713 
L 540.571429 305.29953 
L 553.142857 305.314803 
L 565.714286 305.344834 
L 578.285714 305.537787 
L 590.857143 305.485986 
L 603.428571 305.50116 
L 616 305.607193 
L 628.571429 305.492359 
L 641.142857 305.426312 
L 653.714286 305.411804 
L 666.285714 305.563848 
L 678.857143 305.683448 
L 691.428571 305.704156 
L 704 305.702314 
L 716.571429 305.597419 
L 729.142857 305.645988 
L 741.714286 305.631442 
L 754.285714 305.645061 
L 766.857143 305.697627 
L 779.428571 305.65746 
" clip-path="url(#p57dd917d57)" style="fill: none; stroke: #000000; stroke-width: 1.5; stroke-linecap: square"/>
   </g>
   <g id="line2d_8">
    <path d="M 0 306 
L 12.571429 306 
L 25.142857 303.719007 
L 37.714286 304.809774 
L 50.285714 306.636632 
L 62.857143 307.161742 
L 75.428571 306.895426 
L 88 306.121516 
L 100.571429 306.115479 
L 113.142857 305.567104 
L 125.714286 305.748304 
L 138.285714 305.389399 
L 150.857143 305.539488 
L 163.428571 305.780259 
L 176 305.736789 
L 188.571429 305.270787 
L 201.142857 305.031994 
L 213.714286 305.12643 
L 226.285714 305.008512 
L 238.857143 305.055077 
L 251.428571 304.841854 
L 264 304.992535 
L 276.571429 305.127557 
L 289.142857 305.413832 
L 301.714286 305.415828 
L 314.285714 305.377644 
L 326.857143 305.281513 
L 339.428571 305.243531 
L 352 305.382005 
L 364.571429 305.255339 
L 377.142857 305.664308 
L 389.714286 305.488606 
L 402.285714 305.474314 
L 414.857143 305.421242 
L 427.428571 305.349688 
L 440 305.286108 
L 452.571429 305.324313 
L 465.142857 305.294361 
L 477.714286 305.305516 
L 490.285714 305.313747 
L 502.857143 305.329602 
L 515.428571 305.419589 
L 528 305.331143 
L 540.571429 305.310351 
L 553.142857 305.322489 
L 565.714286 305.346644 
L 578.285714 305.502532 
L 590.857143 305.461791 
L 603.428571 305.474597 
L 616 305.559949 
L 628.571429 305.469848 
L 641.142857 305.418106 
L 653.714286 305.406865 
L 666.285714 305.526473 
L 678.857143 305.621007 
L 691.428571 305.638653 
L 704 305.638774 
L 716.571429 305.559086 
L 729.142857 305.597415 
L 741.714286 305.587351 
L 754.285714 305.598766 
L 766.857143 305.639872 
L 779.428571 305.610635 
" clip-path="url(#p57dd917d57)" style="fill: none; stroke: #000000; stroke-width: 1.5; stroke-linecap: square"/>
   </g>
   <g id="line2d_9">
    <path d="M 0 306 
L 12.571429 306 
L 25.142857 303.725149 
L 37.714286 304.807998 
L 50.285714 306.620625 
L 62.857143 307.143361 
L 75.428571 306.883697 
L 88 306.123827 
L 100.571429 306.117607 
L 113.142857 305.580584 
L 125.714286 305.756105 
L 138.285714 305.405905 
L 150.857143 305.550249 
L 163.428571 305.782612 
L 176 305.740441 
L 188.571429 305.291152 
L 201.142857 305.060323 
L 213.714286 305.149111 
L 226.285714 305.035046 
L 238.857143 305.077989 
L 251.428571 304.873955 
L 264 305.015311 
L 276.571429 305.142001 
L 289.142857 305.411577 
L 301.714286 305.413557 
L 314.285714 305.37779 
L 326.857143 305.287723 
L 339.428571 305.251981 
L 352 305.380739 
L 364.571429 305.263006 
L 377.142857 305.642061 
L 389.714286 305.480274 
L 402.285714 305.467366 
L 414.857143 305.418734 
L 427.428571 305.353099 
L 440 305.294744 
L 452.571429 305.329397 
L 465.142857 305.301939 
L 477.714286 305.311864 
L 490.285714 305.319151 
L 502.857143 305.333351 
L 515.428571 305.414498 
L 528 305.334968 
L 540.571429 305.316185 
L 553.142857 305.326918 
L 565.714286 305.348408 
L 578.285714 305.487442 
L 590.857143 305.451543 
L 603.428571 305.463157 
L 616 305.539031 
L 628.571429 305.459878 
L 641.142857 305.414479 
L 653.714286 305.404671 
L 666.285714 305.509689 
L 678.857143 305.592819 
L 691.428571 305.608826 
L 704 305.609547 
L 716.571429 305.540848 
L 729.142857 305.574466 
L 741.714286 305.566208 
L 754.285714 305.576478 
L 766.857143 305.612325 
L 779.428571 305.587711 
" clip-path="url(#p57dd917d57)" style="fill: none; stroke: #000000; stroke-width: 1.5; stroke-linecap: square"/>
   </g>
  </g>
 </g>
 <defs>
  <clipPath id="p57dd917d57">
   <rect x="0" y="0" width="792" height="612"/>
  </clipPath>
 </defs>
</svg>
