<?xml version="1.0" encoding="utf-8" standalone="no"?>
<!DOCTYPE svg PUBLIC "-//W3C//DTD SVG 1.1//EN"
  "http://www.w3.org/Graphics/SVG/1.1/DTD/svg11.dtd">
<svg xmlns:xlink="http://www.w3.org/1999/xlink" width="792pt" height="612pt" viewBox="0 0 792 612" xmlns="http://www.w3.org/2000/svg" version="1.1">
 <metadata>
  <rdf:RDF xmlns:dc="http://purl.org/dc/elements/1.1/" xmlns:cc="http://creativecommons.org/ns#" xmlns:rdf="http://www.w3.org/1999/02/22-rdf-syntax-ns#">
   <cc:Work>
    <dc:type rdf:resource="http://purl.org/dc/dcmitype/StillImage"/>
    <dc:date>2023-01-30T16:20:59.156975</dc:date>
    <dc:format>image/svg+xml</dc:format>
    <dc:creator>
     <cc:Agent>
      <dc:title>Matplotlib v3.6.2, https://matplotlib.org/</dc:title>
     </cc:Agent>
    </dc:creator>
   </cc:Work>
  </rdf:RDF>
 </metadata>
 <defs>
  <style type="text/css">*{stroke-linejoin: round; stroke-linecap: butt}</style>
 </defs>
 <g id="figure_1">
  <g id="patch_1">
   <path d="M 0 612 
L 792 612 
L 792 0 
L 0 0 
z
" style="fill: #ffffff"/>
  </g>
  <g id="axes_1">
   <g id="line2d_1">
    <path d="M 0 459 
L 12.774194 459.532685 
L 25.548387 460.745003 
L 38.322581 460.359265 
L 51.096774 453.159148 
L 63.870968 446.907175 
L 76.645161 447.650612 
L 89.419355 443.521269 
L 102.193548 443.246061 
L 114.967742 436.205153 
L 127.741935 438.679418 
L 140.516129 441.099845 
L 153.290323 448.421647 
L 166.064516 447.623076 
L 178.83871 445.530611 
L 191.612903 441.402471 
L 204.387097 439.036913 
L 217.16129 442.860789 
L 229.935484 437.304671 
L 242.709677 451.671611 
L 255.483871 444.346958 
L 268.258065 443.025903 
L 281.032258 440.082036 
L 293.806452 436.232638 
L 306.580645 432.551212 
L 319.354839 433.182869 
L 332.129032 430.848991 
L 344.903226 430.327496 
L 357.677419 429.696312 
L 370.451613 429.449357 
L 383.225806 432.853296 
L 396 427.611465 
L 408.774194 425.582732 
L 421.548387 425.199063 
L 434.322581 425.473107 
L 447.096774 432.825833 
L 459.870968 429.8884 
L 472.645161 429.806075 
L 485.419355 433.814624 
L 498.193548 428.050275 
L 510.967742 424.294888 
L 523.741935 422.788536 
L 536.516129 429.010369 
L 549.290323 434.006917 
L 562.064516 434.528898 
L 574.83871 434.006917 
L 587.612903 428.489142 
L 600.387097 430.272606 
L 613.16129 429.037804 
L 625.935484 429.174983 
L 638.709677 431.288201 
L 651.483871 428.818329 
L 664.258065 431.315654 
L 677.032258 427.090454 
L 689.806452 421.775611 
L 702.580645 425.418297 
L 715.354839 421.447173 
L 728.129032 434.254163 
L 740.903226 435.408166 
L 753.677419 436.177669 
L 766.451613 438.596923 
L 779.225806 440.164554 
" clip-path="url(#p8af17a2091)" style="fill: none; stroke: #000000; stroke-width: 1.5; stroke-linecap: square"/>
   </g>
   <g id="line2d_2">
    <path d="M 0 459 
L 12.774194 459 
L 25.548387 459.355123 
L 38.322581 460.14934 
L 51.096774 460.2613 
L 63.870968 457.816126 
L 76.645161 452.27413 
L 89.419355 449.943939 
L 102.193548 446.719409 
L 114.967742 444.951661 
L 127.741935 440.528943 
L 140.516129 439.554056 
L 153.290323 440.283857 
L 166.064516 444.342317 
L 178.83871 445.983934 
L 191.612903 445.753112 
L 204.387097 443.57329 
L 217.16129 441.296415 
L 229.935484 442.091609 
L 242.709677 439.694918 
L 255.483871 445.701724 
L 268.258065 445.016322 
L 281.032258 444.012029 
L 293.806452 442.036039 
L 306.580645 439.123406 
L 319.354839 435.823401 
L 332.129032 434.483969 
L 344.903226 432.653412 
L 357.677419 431.448504 
L 370.451613 430.54362 
L 383.225806 429.969865 
L 396 431.397151 
L 408.774194 429.486911 
L 421.548387 427.520592 
L 434.322581 426.343976 
L 447.096774 425.897978 
L 459.870968 429.365106 
L 472.645161 429.62712 
L 485.419355 429.717296 
L 498.193548 431.7673 
L 510.967742 429.90917 
L 523.741935 427.098303 
L 536.516129 424.937937 
L 549.290323 426.980455 
L 562.064516 430.494323 
L 574.83871 432.520197 
L 587.612903 433.271729 
L 600.387097 430.869228 
L 613.16129 430.575264 
L 625.935484 429.81576 
L 638.709677 429.507893 
L 651.483871 430.402406 
L 664.258065 429.600111 
L 677.032258 430.451486 
L 689.806452 428.757007 
L 702.580645 425.251183 
L 715.354839 425.325228 
L 728.129032 423.370686 
L 740.903226 428.818114 
L 753.677419 432.119825 
L 766.451613 434.162696 
L 779.225806 436.393562 
" clip-path="url(#p8af17a2091)" style="fill: none; stroke: #000000; stroke-width: 1.5; stroke-linecap: square"/>
   </g>
   <g id="line2d_3">
    <path d="M 0 459 
L 12.774194 459 
L 25.548387 459.31204 
L 38.322581 459.961289 
L 51.096774 460.116709 
L 63.870968 459.026657 
L 76.645161 455.004473 
L 89.419355 452.641334 
L 102.193548 449.79117 
L 114.967742 447.784992 
L 127.741935 444.281743 
L 140.516129 442.603245 
L 153.290323 442.155882 
L 166.064516 444.011035 
L 178.83871 445.077134 
L 191.612903 445.21069 
L 204.387097 444.090693 
L 217.16129 442.587131 
L 229.935484 442.646927 
L 242.709677 441.050789 
L 255.483871 444.146984 
L 268.258065 444.195438 
L 281.032258 443.848411 
L 293.806452 442.736339 
L 306.580645 440.822281 
L 319.354839 438.385989 
L 332.129032 436.857948 
L 344.903226 435.088089 
L 357.677419 433.680796 
L 370.451613 432.491864 
L 383.225806 431.579636 
L 396 431.938101 
L 408.774194 430.654498 
L 421.548387 429.152795 
L 434.322581 427.97403 
L 447.096774 427.227754 
L 459.870968 428.844901 
L 472.645161 429.133927 
L 485.419355 429.315623 
L 498.193548 430.625608 
L 510.967742 429.861725 
L 523.741935 428.220787 
L 536.516129 426.616817 
L 549.290323 427.315585 
L 562.064516 429.278381 
L 574.83871 430.821024 
L 587.612903 431.759117 
L 600.387097 430.796048 
L 613.16129 430.645786 
L 625.935484 430.178717 
L 638.709677 429.889271 
L 651.483871 430.305636 
L 664.258065 429.865348 
L 677.032258 430.291713 
L 689.806452 429.350661 
L 702.580645 427.116287 
L 715.354839 426.615842 
L 728.129032 425.097786 
L 740.903226 427.790315 
L 753.677419 430.027278 
L 766.451613 431.830195 
L 779.225806 433.815699 
" clip-path="url(#p8af17a2091)" style="fill: none; stroke: #000000; stroke-width: 1.5; stroke-linecap: square"/>
   </g>
   <g id="line2d_4">
    <path d="M 0 459 
L 12.774194 459 
L 25.548387 459.289362 
L 38.322581 459.860649 
L 51.096774 460.019312 
L 63.870968 459.204959 
L 76.645161 456.486591 
L 89.419355 454.485568 
L 102.193548 452.158768 
L 114.967742 450.362635 
L 127.741935 447.624312 
L 140.516129 445.951792 
L 153.290323 445.0693 
L 166.064516 445.665221 
L 178.83871 446.006893 
L 191.612903 445.925028 
L 204.387097 445.157299 
L 217.16129 444.129104 
L 229.935484 443.917963 
L 242.709677 442.824647 
L 255.483871 444.276986 
L 268.258065 444.288419 
L 281.032258 444.082994 
L 293.806452 443.434205 
L 306.580645 442.269609 
L 319.354839 440.701545 
L 332.129032 439.491162 
L 344.903226 438.102172 
L 357.677419 436.854527 
L 370.451613 435.70728 
L 383.225806 434.705447 
L 396 434.409333 
L 408.774194 433.322722 
L 421.548387 432.069351 
L 434.322581 430.95333 
L 447.096774 430.056703 
L 459.870968 430.478325 
L 472.645161 430.369972 
L 485.419355 430.269598 
L 498.193548 430.82479 
L 510.967742 430.373571 
L 523.741935 429.393887 
L 536.516129 428.333688 
L 549.290323 428.435317 
L 562.064516 429.316799 
L 574.83871 430.136937 
L 587.612903 430.743926 
L 600.387097 430.37447 
L 613.16129 430.351328 
L 625.935484 430.136077 
L 638.709677 429.974619 
L 651.483871 430.179833 
L 664.258065 429.94895 
L 677.032258 430.158247 
L 689.806452 429.66004 
L 702.580645 428.392898 
L 715.354839 427.912706 
L 728.129032 426.876192 
L 740.903226 428.049705 
L 753.677419 429.222335 
L 766.451613 430.331766 
L 779.225806 431.651224 
" clip-path="url(#p8af17a2091)" style="fill: none; stroke: #000000; stroke-width: 1.5; stroke-linecap: square"/>
   </g>
   <g id="line2d_5">
    <path d="M 0 459 
L 12.774194 459 
L 25.548387 459.277874 
L 38.322581 459.809847 
L 51.096774 459.965533 
L 63.870968 459.277972 
L 76.645161 457.186887 
L 89.419355 455.446057 
L 102.193548 453.465873 
L 114.967742 451.898863 
L 127.741935 449.649532 
L 140.516129 448.166851 
L 153.290323 447.259174 
L 166.064516 447.401933 
L 178.83871 447.428052 
L 191.612903 447.211526 
L 204.387097 446.568468 
L 217.16129 445.75706 
L 229.935484 445.452643 
L 242.709677 444.614415 
L 255.483871 445.325656 
L 268.258065 445.228708 
L 281.032258 445.013932 
L 293.806452 444.539843 
L 306.580645 443.751391 
L 319.354839 442.700494 
L 332.129032 441.817069 
L 344.903226 440.808649 
L 357.677419 439.85346 
L 370.451613 438.935182 
L 383.225806 438.083861 
L 396 437.617752 
L 408.774194 436.730943 
L 421.548387 435.748182 
L 434.322581 434.822932 
L 447.096774 434.006728 
L 459.870968 433.904174 
L 472.645161 433.556642 
L 485.419355 433.233204 
L 498.193548 433.283159 
L 510.967742 432.834558 
L 523.741935 432.104095 
L 536.516129 431.309099 
L 549.290323 431.113547 
L 562.064516 431.359028 
L 574.83871 431.627458 
L 587.612903 431.828627 
L 600.387097 431.546542 
L 613.16129 431.439116 
L 625.935484 431.236859 
L 638.709677 431.063409 
L 651.483871 431.082293 
L 664.258065 430.89224 
L 677.032258 430.927739 
L 689.806452 430.606115 
L 702.580645 429.866019 
L 715.354839 429.493747 
L 728.129032 428.820328 
L 740.903226 429.273993 
L 753.677419 429.785813 
L 766.451613 430.318857 
L 779.225806 431.008761 
" clip-path="url(#p8af17a2091)" style="fill: none; stroke: #000000; stroke-width: 1.5; stroke-linecap: square"/>
   </g>
   <g id="line2d_6">
    <path d="M 0 459 
L 12.774194 459 
L 25.548387 459.272111 
L 38.322581 459.784491 
L 51.096774 459.937653 
L 63.870968 459.309672 
L 76.645161 457.516549 
L 89.419355 455.917194 
L 102.193548 454.12216 
L 114.967742 452.693431 
L 127.741935 450.703417 
L 140.516129 449.357738 
L 153.290323 448.493735 
L 166.064516 448.486638 
L 178.83871 448.406123 
L 191.612903 448.150966 
L 204.387097 447.578515 
L 217.16129 446.883325 
L 229.935484 446.568305 
L 242.709677 445.867692 
L 255.483871 446.292154 
L 268.258065 446.154085 
L 281.032258 445.938199 
L 293.806452 445.544441 
L 306.580645 444.93331 
L 319.354839 444.138835 
L 332.129032 443.450866 
L 344.903226 442.675156 
L 357.677419 441.929319 
L 370.451613 441.203406 
L 383.225806 440.5175 
L 396 440.077441 
L 408.774194 439.371832 
L 421.548387 438.602043 
L 434.322581 437.863666 
L 447.096774 437.189626 
L 459.870968 436.955261 
L 472.645161 436.579839 
L 485.419355 436.2238 
L 498.193548 436.098502 
L 510.967742 435.683623 
L 523.741935 435.101567 
L 536.516129 434.477559 
L 549.290323 434.202996 
L 562.064516 434.193231 
L 574.83871 434.209823 
L 587.612903 434.199863 
L 600.387097 433.921205 
L 613.16129 433.744341 
L 625.935484 433.517536 
L 638.709677 433.309479 
L 651.483871 433.213194 
L 664.258065 433.004867 
L 677.032258 432.925218 
L 689.806452 432.651252 
L 702.580645 432.142516 
L 715.354839 431.82951 
L 728.129032 431.347931 
L 740.903226 431.481966 
L 753.677419 431.662347 
L 766.451613 431.869044 
L 779.225806 432.175909 
" clip-path="url(#p8af17a2091)" style="fill: none; stroke: #000000; stroke-width: 1.5; stroke-linecap: square"/>
   </g>
   <g id="line2d_7">
    <path d="M 0 459 
L 12.774194 459 
L 25.548387 459.269227 
L 38.322581 459.771845 
L 51.096774 459.923506 
L 63.870968 459.324257 
L 76.645161 457.675081 
L 89.419355 456.147979 
L 102.193548 454.446751 
L 114.967742 453.091158 
L 127.741935 451.231658 
L 140.516129 449.962154 
L 153.290323 449.132121 
L 166.064516 449.070086 
L 178.83871 448.951546 
L 191.612903 448.687258 
L 204.387097 448.154086 
L 217.16129 447.519525 
L 229.935484 447.210257 
L 242.709677 446.580704 
L 255.483871 446.890907 
L 268.258065 446.741732 
L 281.032258 446.531638 
L 293.806452 446.179271 
L 306.580645 445.65314 
L 319.354839 444.981004 
L 332.129032 444.393333 
L 344.903226 443.737129 
L 357.677419 443.104492 
L 370.451613 442.487744 
L 383.225806 441.902358 
L 396 441.50554 
L 408.774194 440.909255 
L 421.548387 440.265149 
L 434.322581 439.644718 
L 447.096774 439.072432 
L 459.870968 438.825088 
L 472.645161 438.47742 
L 485.419355 438.145863 
L 498.193548 437.983066 
L 510.967742 437.615409 
L 523.741935 437.129673 
L 536.516129 436.614346 
L 549.290323 436.34524 
L 562.064516 436.263674 
L 574.83871 436.203967 
L 587.612903 436.129316 
L 600.387097 435.872766 
L 613.16129 435.687016 
L 625.935484 435.468995 
L 638.709677 435.264941 
L 651.483871 435.13745 
L 664.258065 434.936931 
L 677.032258 434.823228 
L 689.806452 434.582695 
L 702.580645 434.187833 
L 715.354839 433.920115 
L 728.129032 433.542546 
L 740.903226 433.563862 
L 753.677419 433.618632 
L 766.451613 433.693998 
L 779.225806 433.837207 
" clip-path="url(#p8af17a2091)" style="fill: none; stroke: #000000; stroke-width: 1.5; stroke-linecap: square"/>
   </g>
   <g id="line2d_8">
    <path d="M 0 459 
L 12.774194 459 
L 25.548387 459.267785 
L 38.322581 459.765533 
L 51.096774 459.916386 
L 63.870968 459.331226 
L 76.645161 457.75264 
L 89.419355 456.261872 
L 102.193548 454.607622 
L 114.967742 453.289308 
L 127.741935 451.494871 
L 140.516129 450.264897 
L 153.290323 449.454444 
L 166.064516 449.36973 
L 178.83871 449.235986 
L 191.612903 448.969749 
L 204.387097 448.457193 
L 217.16129 447.853404 
L 229.935484 447.549683 
L 242.709677 446.9559 
L 255.483871 447.216671 
L 268.258065 447.064689 
L 281.032258 446.859432 
L 293.806452 446.528189 
L 306.580645 446.043308 
L 319.354839 445.429929 
L 332.129032 444.891842 
L 344.903226 444.294502 
L 357.677419 443.718633 
L 370.451613 443.157519 
L 383.225806 442.624535 
L 396 442.255141 
L 408.774194 441.715789 
L 421.548387 441.136509 
L 434.322581 440.57824 
L 447.096774 440.061663 
L 459.870968 439.820082 
L 472.645161 439.495716 
L 485.419355 439.186028 
L 498.193548 439.017992 
L 510.967742 438.68155 
L 523.741935 438.248621 
L 536.516129 437.792101 
L 549.290323 437.53777 
L 562.064516 437.437398 
L 574.83871 437.356156 
L 587.612903 437.264176 
L 600.387097 437.026987 
L 613.16129 436.847377 
L 625.935484 436.642909 
L 638.709677 436.450355 
L 651.483871 436.319256 
L 664.258065 436.131449 
L 677.032258 436.012604 
L 689.806452 435.795324 
L 702.580645 435.458218 
L 715.354839 435.220094 
L 728.129032 434.897413 
L 740.903226 434.882557 
L 753.677419 434.894547 
L 766.451613 434.923467 
L 779.225806 435.005279 
" clip-path="url(#p8af17a2091)" style="fill: none; stroke: #000000; stroke-width: 1.5; stroke-linecap: square"/>
   </g>
   <g id="line2d_9">
    <path d="M 0 459 
L 12.774194 459 
L 25.548387 459.267064 
L 38.322581 459.76238 
L 51.096774 459.912816 
L 63.870968 459.33463 
L 76.645161 457.790977 
L 89.419355 456.318406 
L 102.193548 454.687634 
L 114.967742 453.388102 
L 127.741935 451.626094 
L 140.516129 450.416182 
L 153.290323 449.616103 
L 166.064516 449.521202 
L 178.83871 449.380786 
L 191.612903 449.114214 
L 204.387097 448.612191 
L 217.16129 448.023863 
L 229.935484 447.723544 
L 242.709677 447.147646 
L 255.483871 447.385619 
L 268.258065 447.232925 
L 281.032258 447.030577 
L 293.806452 446.709985 
L 306.580645 446.245352 
L 319.354839 445.660617 
L 332.129032 445.147 
L 344.903226 444.578629 
L 357.677419 444.03089 
L 370.451613 443.497513 
L 383.225806 442.990882 
L 396 442.636285 
L 408.774194 442.125527 
L 421.548387 441.578645 
L 434.322581 441.051693 
L 447.096774 440.563582 
L 459.870968 440.327475 
L 472.645161 440.016638 
L 485.419355 439.719834 
L 498.193548 439.552224 
L 510.967742 439.232876 
L 523.741935 438.826993 
L 536.516129 438.400395 
L 549.290323 438.15602 
L 562.064516 438.050283 
L 574.83871 437.962315 
L 587.612903 437.865397 
L 600.387097 437.639811 
L 613.16129 437.465846 
L 625.935484 437.27036 
L 638.709677 437.085875 
L 651.483871 436.956043 
L 664.258065 436.776799 
L 677.032258 436.658514 
L 689.806452 436.45448 
L 702.580645 436.146129 
L 715.354839 435.924355 
L 728.129032 435.629397 
L 740.903226 435.601838 
L 753.677419 435.598014 
L 766.451613 435.609298 
L 779.225806 435.666636 
" clip-path="url(#p8af17a2091)" style="fill: none; stroke: #000000; stroke-width: 1.5; stroke-linecap: square"/>
   </g>
  </g>
 </g>
 <defs>
  <clipPath id="p8af17a2091">
   <rect x="0" y="0" width="792" height="612"/>
  </clipPath>
 </defs>
</svg>
