<?xml version="1.0" encoding="utf-8" standalone="no"?>
<!DOCTYPE svg PUBLIC "-//W3C//DTD SVG 1.1//EN"
  "http://www.w3.org/Graphics/SVG/1.1/DTD/svg11.dtd">
<svg xmlns:xlink="http://www.w3.org/1999/xlink" width="792pt" height="612pt" viewBox="0 0 792 612" xmlns="http://www.w3.org/2000/svg" version="1.1">
 <metadata>
  <rdf:RDF xmlns:dc="http://purl.org/dc/elements/1.1/" xmlns:cc="http://creativecommons.org/ns#" xmlns:rdf="http://www.w3.org/1999/02/22-rdf-syntax-ns#">
   <cc:Work>
    <dc:type rdf:resource="http://purl.org/dc/dcmitype/StillImage"/>
    <dc:date>2022-12-19T20:27:59.328398</dc:date>
    <dc:format>image/svg+xml</dc:format>
    <dc:creator>
     <cc:Agent>
      <dc:title>Matplotlib v3.6.2, https://matplotlib.org/</dc:title>
     </cc:Agent>
    </dc:creator>
   </cc:Work>
  </rdf:RDF>
 </metadata>
 <defs>
  <style type="text/css">*{stroke-linejoin: round; stroke-linecap: butt}</style>
 </defs>
 <g id="figure_1">
  <g id="patch_1">
   <path d="M 0 612 
L 792 612 
L 792 0 
L 0 0 
z
" style="fill: #ffffff"/>
  </g>
  <g id="axes_1">
   <g id="line2d_1">
    <path d="M 0 459 
L 12.375 462.981104 
L 24.75 459.905216 
L 37.125 459.517266 
L 49.5 453.568957 
L 61.875 457.226524 
L 74.25 459.618872 
L 86.625 461.179908 
L 99 457.503628 
L 111.375 456.007287 
L 123.75 458.833736 
L 136.125 459.646583 
L 148.5 457.004842 
L 160.875 460.025296 
L 173.25 461.106013 
L 185.625 461.253803 
L 198 459.018474 
L 210.375 459.489556 
L 222.75 462.445363 
L 235.125 464.024873 
L 247.5 463.830898 
L 259.875 461.687938 
L 272.25 461.724885 
L 284.625 459.452608 
L 297 460.089954 
L 309.375 456.367513 
L 321.75 457.974706 
L 334.125 459.877505 
L 346.5 459.489556 
L 358.875 450.49379 
L 371.25 444.207612 
L 383.625 444.955062 
L 396 440.803613 
L 408.375 440.526948 
L 420.75 433.449466 
L 433.125 435.936428 
L 445.5 438.36944 
L 457.875 445.730274 
L 470.25 444.927377 
L 482.625 442.823655 
L 495 438.673651 
L 507.375 436.295772 
L 519.75 440.13964 
L 532.125 434.554606 
L 544.5 448.998022 
L 556.875 441.633686 
L 569.25 440.305626 
L 581.625 437.34632 
L 594 433.477091 
L 606.375 429.777084 
L 618.75 430.411902 
L 631.125 428.0664 
L 643.5 427.542329 
L 655.875 426.908037 
L 668.25 426.65987 
L 680.625 430.080679 
L 693 424.813006 
L 705.375 422.774482 
L 717.75 422.388974 
L 730.125 422.664332 
L 742.5 430.053078 
L 754.875 427.10107 
L 767.25 427.01834 
L 779.625 431.04683 
" clip-path="url(#pf3a6eeffed)" style="fill: none; stroke: #000000; stroke-width: 1.5; stroke-linecap: square"/>
   </g>
   <g id="line2d_2">
    <path d="M 0 459 
L 12.375 459 
L 24.75 461.654069 
L 37.125 460.654725 
L 49.5 460.04808 
L 61.875 457.71816 
L 74.25 457.46844 
L 86.625 459.058622 
L 99 460.123424 
L 111.375 459.311338 
L 123.75 457.941345 
L 136.125 458.381889 
L 148.5 459.220526 
L 160.875 458.339942 
L 173.25 459.405808 
L 185.625 460.258826 
L 198 460.75646 
L 210.375 459.888481 
L 222.75 459.691934 
L 235.125 461.075513 
L 247.5 462.558778 
L 259.875 463.205615 
L 272.25 462.450036 
L 284.625 462.088674 
L 297 460.767109 
L 309.375 460.430633 
L 321.75 459.273883 
L 334.125 458.8759 
L 346.5 459.409937 
L 358.875 459.441234 
L 371.25 455.375842 
L 383.625 449.745338 
L 396 447.319692 
L 408.375 444.018834 
L 420.75 442.241611 
L 433.125 437.795556 
L 445.5 436.815596 
L 457.875 437.549192 
L 470.25 441.62902 
L 482.625 443.279407 
L 495 443.047348 
L 507.375 440.85591 
L 519.75 438.567039 
L 532.125 439.366407 
L 544.5 436.957189 
L 556.875 442.995684 
L 569.25 442.306617 
L 581.625 441.296977 
L 594 439.310545 
L 606.375 436.382713 
L 618.75 433.06577 
L 631.125 431.719549 
L 643.5 429.879794 
L 655.875 428.668884 
L 668.25 427.759519 
L 680.625 427.182936 
L 693 428.617276 
L 705.375 426.697607 
L 717.75 424.721691 
L 730.125 423.539385 
L 742.5 423.091241 
L 754.875 426.575205 
L 767.25 426.838505 
L 779.625 426.929124 
" clip-path="url(#pf3a6eeffed)" style="fill: none; stroke: #000000; stroke-width: 1.5; stroke-linecap: square"/>
   </g>
   <g id="line2d_3">
    <path d="M 0 459 
L 12.375 459 
L 24.75 461.332076 
L 37.125 460.685592 
L 49.5 460.229332 
L 61.875 459.14782 
L 74.25 458.70137 
L 86.625 459.131278 
L 99 459.77131 
L 111.375 459.382105 
L 123.75 458.894902 
L 136.125 458.876582 
L 148.5 459.163487 
L 160.875 458.754303 
L 173.25 459.244944 
L 185.625 459.793067 
L 198 460.222584 
L 210.375 459.86993 
L 222.75 459.75451 
L 235.125 460.545561 
L 247.5 461.569805 
L 259.875 462.239692 
L 272.25 462.081853 
L 284.625 461.979719 
L 297 461.237561 
L 309.375 460.90326 
L 321.75 460.08893 
L 334.125 459.66956 
L 346.5 459.730731 
L 358.875 459.661419 
L 371.25 457.898082 
L 383.625 453.862695 
L 396 451.229113 
L 408.375 448.15328 
L 420.75 445.895872 
L 433.125 442.206391 
L 445.5 440.325451 
L 457.875 439.712188 
L 470.25 441.449777 
L 482.625 442.442626 
L 495 442.534103 
L 507.375 441.376059 
L 519.75 439.864538 
L 532.125 439.92465 
L 544.5 438.320127 
L 556.875 441.432648 
L 569.25 441.48136 
L 581.625 441.13249 
L 594 440.014533 
L 606.375 438.090425 
L 618.75 435.641485 
L 631.125 434.105594 
L 643.5 432.326725 
L 655.875 430.912328 
L 668.25 429.71744 
L 680.625 428.800668 
L 693 429.160915 
L 705.375 427.870945 
L 717.75 426.361853 
L 730.125 425.177333 
L 742.5 424.427434 
L 754.875 426.052452 
L 767.25 426.342892 
L 779.625 426.525479 
" clip-path="url(#pf3a6eeffed)" style="fill: none; stroke: #000000; stroke-width: 1.5; stroke-linecap: square"/>
   </g>
   <g id="line2d_4">
    <path d="M 0 459 
L 12.375 459 
L 24.75 461.16259 
L 37.125 460.669116 
L 49.5 460.302589 
L 61.875 459.447975 
L 74.25 459.192223 
L 86.625 459.288824 
L 99 459.689995 
L 111.375 459.450509 
L 123.75 459.170637 
L 136.125 459.12839 
L 148.5 459.222615 
L 160.875 459.064794 
L 173.25 459.232431 
L 185.625 459.554459 
L 198 459.842856 
L 210.375 459.704418 
L 222.75 459.668652 
L 235.125 460.127488 
L 247.5 460.767579 
L 259.875 461.268117 
L 272.25 461.336421 
L 284.625 461.399398 
L 297 461.08474 
L 309.375 460.924359 
L 321.75 460.473592 
L 334.125 460.182053 
L 346.5 460.133217 
L 358.875 460.030131 
L 371.25 459.411642 
L 383.625 457.672207 
L 396 455.640286 
L 408.375 453.267088 
L 420.75 451.220008 
L 433.125 448.372065 
L 445.5 446.376634 
L 457.875 445.092536 
L 470.25 445.18683 
L 482.625 445.135617 
L 495 444.753562 
L 507.375 443.774092 
L 519.75 442.571325 
L 532.125 442.172715 
L 544.5 440.943465 
L 556.875 442.219367 
L 569.25 442.113437 
L 581.625 441.810181 
L 594 441.082012 
L 606.375 439.855326 
L 618.75 438.231216 
L 631.125 436.961955 
L 643.5 435.516695 
L 655.875 434.218251 
L 668.25 433.029222 
L 680.625 431.989875 
L 693 431.667202 
L 705.375 430.552456 
L 717.75 429.292819 
L 730.125 428.171255 
L 742.5 427.270201 
L 754.875 427.693902 
L 767.25 427.585015 
L 779.625 427.484145 
" clip-path="url(#pf3a6eeffed)" style="fill: none; stroke: #000000; stroke-width: 1.5; stroke-linecap: square"/>
   </g>
   <g id="line2d_5">
    <path d="M 0 459 
L 12.375 459 
L 24.75 461.076732 
L 37.125 460.651947 
L 49.5 460.330417 
L 61.875 459.588971 
L 74.25 459.347365 
L 86.625 459.396918 
L 99 459.69288 
L 111.375 459.510231 
L 123.75 459.294301 
L 136.125 459.247062 
L 148.5 459.298356 
L 160.875 459.180036 
L 173.25 459.27987 
L 185.625 459.48824 
L 198 459.683619 
L 210.375 459.611995 
L 222.75 459.599128 
L 235.125 459.891768 
L 247.5 460.308461 
L 259.875 460.657368 
L 272.25 460.757836 
L 284.625 460.850765 
L 297 460.718146 
L 309.375 460.659259 
L 321.75 460.423988 
L 334.125 460.261805 
L 346.5 460.226817 
L 358.875 460.16023 
L 371.25 459.801953 
L 383.625 459.291205 
L 396 458.552502 
L 408.375 456.989029 
L 420.75 455.546132 
L 433.125 453.61722 
L 445.5 452.080546 
L 457.875 450.893675 
L 470.25 450.448494 
L 482.625 449.973977 
L 495 449.361165 
L 507.375 448.447402 
L 519.75 447.41083 
L 532.125 446.792172 
L 544.5 445.752633 
L 556.875 446.027511 
L 569.25 445.655833 
L 581.625 445.20393 
L 594 444.541051 
L 606.375 443.60861 
L 618.75 442.443935 
L 631.125 441.432038 
L 643.5 440.308886 
L 655.875 439.237079 
L 668.25 438.202876 
L 680.625 437.235405 
L 693 436.636461 
L 705.375 435.646722 
L 717.75 434.569618 
L 730.125 433.550985 
L 742.5 432.641147 
L 754.875 432.425188 
L 767.25 431.980951 
L 779.625 431.567054 
" clip-path="url(#pf3a6eeffed)" style="fill: none; stroke: #000000; stroke-width: 1.5; stroke-linecap: square"/>
   </g>
   <g id="line2d_6">
    <path d="M 0 459 
L 12.375 459 
L 24.75 461.033662 
L 37.125 460.641106 
L 49.5 460.341633 
L 61.875 459.655451 
L 74.25 459.424549 
L 86.625 459.456044 
L 99 459.705576 
L 111.375 459.547429 
L 123.75 459.361117 
L 136.125 459.31453 
L 148.5 459.349256 
L 160.875 459.249389 
L 173.25 459.321728 
L 185.625 459.480032 
L 198 459.630436 
L 210.375 459.580656 
L 222.75 459.573524 
L 235.125 459.790583 
L 247.5 460.10034 
L 259.875 460.365103 
L 272.25 460.456378 
L 284.625 460.541637 
L 297 460.470213 
L 309.375 460.44584 
L 321.75 460.300081 
L 334.125 460.199131 
L 346.5 460.179726 
L 358.875 460.138819 
L 371.25 459.907152 
L 383.625 459.572098 
L 396 459.275027 
L 408.375 458.764268 
L 420.75 457.760539 
L 433.125 456.438497 
L 445.5 455.336915 
L 457.875 454.43557 
L 470.25 453.978217 
L 482.625 453.50746 
L 495 452.95699 
L 507.375 452.227503 
L 519.75 451.420656 
L 532.125 450.854159 
L 544.5 450.041622 
L 556.875 449.990031 
L 569.25 449.579649 
L 581.625 449.127191 
L 594 448.555942 
L 606.375 447.82894 
L 618.75 446.96328 
L 631.125 446.17398 
L 643.5 445.314756 
L 655.875 444.475587 
L 668.25 443.649975 
L 680.625 442.855099 
L 693 442.260284 
L 705.375 441.450715 
L 717.75 440.587305 
L 730.125 439.749117 
L 742.5 438.965085 
L 754.875 438.557911 
L 767.25 438.035987 
L 779.625 437.535638 
" clip-path="url(#pf3a6eeffed)" style="fill: none; stroke: #000000; stroke-width: 1.5; stroke-linecap: square"/>
   </g>
   <g id="line2d_7">
    <path d="M 0 459 
L 12.375 459 
L 24.75 461.012109 
L 37.125 460.635125 
L 49.5 460.346515 
L 61.875 459.687481 
L 74.25 459.46267 
L 86.625 459.48646 
L 99 459.714532 
L 111.375 459.567746 
L 123.75 459.39552 
L 136.125 459.349944 
L 148.5 459.377713 
L 160.875 459.286667 
L 173.25 459.347172 
L 185.625 459.48303 
L 198 459.612579 
L 210.375 459.571252 
L 222.75 459.56583 
L 235.125 459.748717 
L 247.5 460.009338 
L 259.875 460.233398 
L 272.25 460.315619 
L 284.625 460.39258 
L 297 460.342896 
L 309.375 460.329934 
L 321.75 460.220087 
L 334.125 460.144507 
L 346.5 460.131925 
L 358.875 460.102415 
L 371.25 459.925824 
L 383.625 459.669139 
L 396 459.439764 
L 408.375 459.166692 
L 420.75 458.719627 
L 433.125 457.699693 
L 445.5 456.837729 
L 457.875 456.119415 
L 470.25 455.722425 
L 482.625 455.316713 
L 495 454.854593 
L 507.375 454.265063 
L 519.75 453.619923 
L 532.125 453.142974 
L 544.5 452.494054 
L 556.875 452.373737 
L 569.25 452.008714 
L 581.625 451.615854 
L 594 451.142476 
L 606.375 450.563044 
L 618.75 449.888656 
L 631.125 449.263646 
L 643.5 448.590406 
L 655.875 447.928673 
L 668.25 447.274279 
L 680.625 446.638653 
L 693 446.133042 
L 705.375 445.487472 
L 717.75 444.805549 
L 730.125 444.138195 
L 742.5 443.504192 
L 754.875 443.110597 
L 767.25 442.645609 
L 779.625 442.19514 
" clip-path="url(#pf3a6eeffed)" style="fill: none; stroke: #000000; stroke-width: 1.5; stroke-linecap: square"/>
   </g>
   <g id="line2d_8">
    <path d="M 0 459 
L 12.375 459 
L 24.75 461.001331 
L 37.125 460.631995 
L 49.5 460.348769 
L 61.875 459.703169 
L 74.25 459.481565 
L 86.625 459.501823 
L 99 459.719621 
L 111.375 459.578303 
L 123.75 459.412923 
L 136.125 459.368004 
L 148.5 459.392626 
L 160.875 459.305875 
L 173.25 459.360957 
L 185.625 459.48632 
L 198 459.605986 
L 210.375 459.568352 
L 222.75 459.56356 
L 235.125 459.730468 
L 247.5 459.967994 
L 259.875 460.172543 
L 272.25 460.249539 
L 284.625 460.321614 
L 297 460.280718 
L 309.375 460.272054 
L 321.75 460.177705 
L 334.125 460.11315 
L 346.5 460.103446 
L 358.875 460.078912 
L 371.25 459.926905 
L 383.625 459.70559 
L 396 459.507405 
L 408.375 459.271682 
L 420.75 459.046738 
L 433.125 458.262161 
L 445.5 457.516663 
L 457.875 456.891523 
L 470.25 456.535056 
L 482.625 456.171997 
L 495 455.762833 
L 507.375 455.249073 
L 519.75 454.689943 
L 532.125 454.268698 
L 544.5 453.7079 
L 556.875 453.576362 
L 569.25 453.248325 
L 581.625 452.898623 
L 594 452.485036 
L 606.375 451.987252 
L 618.75 451.414217 
L 631.125 450.880383 
L 643.5 450.308709 
L 655.875 449.746209 
L 668.25 449.189628 
L 680.625 448.647894 
L 693 448.207442 
L 705.375 447.659225 
L 717.75 447.083203 
L 730.125 446.518525 
L 742.5 445.979573 
L 754.875 445.624249 
L 767.25 445.215559 
L 779.625 444.818531 
" clip-path="url(#pf3a6eeffed)" style="fill: none; stroke: #000000; stroke-width: 1.5; stroke-linecap: square"/>
   </g>
   <g id="line2d_9">
    <path d="M 0 459 
L 12.375 459 
L 24.75 460.995941 
L 37.125 460.630396 
L 49.5 460.349849 
L 61.875 459.710929 
L 74.25 459.490965 
L 86.625 459.509536 
L 99 459.722311 
L 111.375 459.583675 
L 123.75 459.421668 
L 136.125 459.377113 
L 148.5 459.400243 
L 160.875 459.315608 
L 173.25 459.368104 
L 185.625 459.488408 
L 198 459.603283 
L 210.375 459.567372 
L 222.75 459.562847 
L 235.125 459.722065 
L 247.5 459.948453 
L 259.875 460.143514 
L 272.25 460.217778 
L 284.625 460.287282 
L 297 460.250295 
L 309.375 460.243456 
L 321.75 460.156239 
L 334.125 460.096764 
L 346.5 460.088348 
L 358.875 460.066096 
L 371.25 459.925566 
L 383.625 459.720846 
L 396 459.537415 
L 408.375 459.319403 
L 420.75 459.111282 
L 433.125 458.523363 
L 445.5 457.834082 
L 457.875 457.25471 
L 470.25 456.919968 
L 482.625 456.579658 
L 495 456.198029 
L 507.375 455.722351 
L 519.75 455.206159 
L 532.125 454.814216 
L 544.5 454.2976 
L 556.875 454.165237 
L 569.25 453.858144 
L 581.625 453.532226 
L 594 453.150017 
L 606.375 452.693622 
L 618.75 452.171074 
L 631.125 451.683418 
L 643.5 451.162832 
L 655.875 450.650645 
L 668.25 450.144004 
L 680.625 449.650708 
L 693 449.246086 
L 705.375 448.748206 
L 717.75 448.226587 
L 730.125 447.715162 
L 742.5 447.226345 
L 754.875 446.896191 
L 767.25 446.520687 
L 779.625 446.155678 
" clip-path="url(#pf3a6eeffed)" style="fill: none; stroke: #000000; stroke-width: 1.5; stroke-linecap: square"/>
   </g>
  </g>
 </g>
 <defs>
  <clipPath id="pf3a6eeffed">
   <rect x="0" y="0" width="792" height="612"/>
  </clipPath>
 </defs>
</svg>
