<?xml version="1.0" encoding="utf-8" standalone="no"?>
<!DOCTYPE svg PUBLIC "-//W3C//DTD SVG 1.1//EN"
  "http://www.w3.org/Graphics/SVG/1.1/DTD/svg11.dtd">
<svg xmlns:xlink="http://www.w3.org/1999/xlink" width="792pt" height="612pt" viewBox="0 0 792 612" xmlns="http://www.w3.org/2000/svg" version="1.1">
 <metadata>
  <rdf:RDF xmlns:dc="http://purl.org/dc/elements/1.1/" xmlns:cc="http://creativecommons.org/ns#" xmlns:rdf="http://www.w3.org/1999/02/22-rdf-syntax-ns#">
   <cc:Work>
    <dc:type rdf:resource="http://purl.org/dc/dcmitype/StillImage"/>
    <dc:date>2023-01-30T17:15:04.317812</dc:date>
    <dc:format>image/svg+xml</dc:format>
    <dc:creator>
     <cc:Agent>
      <dc:title>Matplotlib v3.6.2, https://matplotlib.org/</dc:title>
     </cc:Agent>
    </dc:creator>
   </cc:Work>
  </rdf:RDF>
 </metadata>
 <defs>
  <style type="text/css">*{stroke-linejoin: round; stroke-linecap: butt}</style>
 </defs>
 <g id="figure_1">
  <g id="patch_1">
   <path d="M 0 612 
L 792 612 
L 792 0 
L 0 0 
z
" style="fill: #ffffff"/>
  </g>
  <g id="axes_1">
   <g id="line2d_1">
    <path d="M 0 459 
L 46.588235 466.2134 
L 93.176471 446.474574 
L 139.764706 454.444318 
L 186.352941 462.796526 
L 232.941176 452.166758 
L 279.529412 461.657568 
L 326.117647 465.833747 
L 372.705882 462.796526 
L 419.294118 455.58319 
L 465.882353 359.249186 
L 512.470588 348.457932 
L 559.058824 344.176715 
L 605.647059 244.655328 
L 652.235294 283.824386 
L 698.823529 296.6274 
L 745.411765 296.6274 
" clip-path="url(#p0482c9a5ae)" style="fill: none; stroke: #000000; stroke-width: 1.5; stroke-linecap: square"/>
   </g>
   <g id="line2d_2">
    <path d="M 0 459 
L 46.588235 459 
L 93.176471 463.808933 
L 139.764706 458.023752 
L 186.352941 456.114678 
L 232.941176 460.494117 
L 279.529412 457.734495 
L 326.117647 460.12999 
L 372.705882 462.993052 
L 419.294118 462.902233 
L 465.882353 460.365261 
L 512.470588 410.373229 
L 559.058824 378.834817 
L 605.647059 361.119098 
L 652.235294 299.597024 
L 698.823529 291.32658 
L 745.411765 293.646025 
" clip-path="url(#p0482c9a5ae)" style="fill: none; stroke: #000000; stroke-width: 1.5; stroke-linecap: square"/>
   </g>
   <g id="line2d_3">
    <path d="M 0 459 
L 46.588235 459 
L 93.176471 463.225512 
L 139.764706 459.418858 
L 186.352941 457.986691 
L 232.941176 460.133164 
L 279.529412 458.974068 
L 326.117647 459.847988 
L 372.705882 461.718055 
L 419.294118 462.048537 
L 465.882353 460.782484 
L 512.470588 432.414956 
L 559.058824 406.978751 
L 605.647059 388.056859 
L 652.235294 342.602459 
L 698.823529 324.747953 
L 745.411765 316.35146 
" clip-path="url(#p0482c9a5ae)" style="fill: none; stroke: #000000; stroke-width: 1.5; stroke-linecap: square"/>
   </g>
   <g id="line2d_4">
    <path d="M 0 459 
L 46.588235 459 
L 93.176471 462.918417 
L 139.764706 459.741578 
L 186.352941 459.02237 
L 232.941176 460.058484 
L 279.529412 459.237329 
L 326.117647 459.785315 
L 372.705882 461.068418 
L 419.294118 461.416552 
L 465.882353 460.729382 
L 512.470588 444.279691 
L 559.058824 426.503776 
L 605.647059 411.549476 
L 652.235294 379.935207 
L 698.823529 362.607632 
L 745.411765 351.018023 
" clip-path="url(#p0482c9a5ae)" style="fill: none; stroke: #000000; stroke-width: 1.5; stroke-linecap: square"/>
   </g>
   <g id="line2d_5">
    <path d="M 0 459 
L 46.588235 459 
L 93.176471 462.76285 
L 139.764706 459.884201 
L 186.352941 459.203326 
L 232.941176 460.051557 
L 279.529412 459.369921 
L 326.117647 459.78744 
L 372.705882 460.791078 
L 419.294118 461.098455 
L 465.882353 460.634835 
L 512.470588 449.551271 
L 559.058824 436.305114 
L 605.647059 424.732434 
L 652.235294 401.583141 
L 698.823529 387.402697 
L 745.411765 376.91419 
" clip-path="url(#p0482c9a5ae)" style="fill: none; stroke: #000000; stroke-width: 1.5; stroke-linecap: square"/>
   </g>
   <g id="line2d_6">
    <path d="M 0 459 
L 46.588235 459 
L 93.176471 462.684812 
L 139.764706 459.950181 
L 186.352941 459.292316 
L 232.941176 460.055157 
L 279.529412 459.437793 
L 326.117647 459.797563 
L 372.705882 460.671309 
L 419.294118 460.950374 
L 465.882353 460.577835 
L 512.470588 451.867376 
L 559.058824 440.830089 
L 605.647059 431.094552 
L 652.235294 412.166403 
L 698.823529 400.128458 
L 745.411765 390.937669 
" clip-path="url(#p0482c9a5ae)" style="fill: none; stroke: #000000; stroke-width: 1.5; stroke-linecap: square"/>
   </g>
   <g id="line2d_7">
    <path d="M 0 459 
L 46.588235 459 
L 93.176471 462.64576 
L 139.764706 459.981771 
L 186.352941 459.336221 
L 232.941176 460.058584 
L 279.529412 459.471958 
L 326.117647 459.804839 
L 372.705882 460.616807 
L 419.294118 460.880506 
L 465.882353 460.548289 
L 512.470588 452.930511 
L 559.058824 442.949217 
L 605.647059 434.126248 
L 652.235294 417.224542 
L 698.823529 406.325324 
L 745.411765 397.91199 
" clip-path="url(#p0482c9a5ae)" style="fill: none; stroke: #000000; stroke-width: 1.5; stroke-linecap: square"/>
   </g>
   <g id="line2d_8">
    <path d="M 0 459 
L 46.588235 459 
L 93.176471 462.626231 
L 139.764706 459.997209 
L 186.352941 459.358 
L 232.941176 460.060682 
L 279.529412 459.489075 
L 326.117647 459.809015 
L 372.705882 460.590961 
L 419.294118 460.846773 
L 465.882353 460.53344 
L 512.470588 453.437086 
L 559.058824 443.967741 
L 605.647059 435.594048 
L 652.235294 419.674288 
L 698.823529 409.349667 
L 745.411765 401.345774 
" clip-path="url(#p0482c9a5ae)" style="fill: none; stroke: #000000; stroke-width: 1.5; stroke-linecap: square"/>
   </g>
   <g id="line2d_9">
    <path d="M 0 459 
L 46.588235 459 
L 93.176471 462.616465 
L 139.764706 460.004838 
L 186.352941 459.368843 
L 232.941176 460.061824 
L 279.529412 459.497638 
L 326.117647 459.811235 
L 372.705882 460.578394 
L 419.294118 460.830225 
L 465.882353 460.526019 
L 512.470588 453.684013 
L 559.058824 444.466188 
L 605.647059 436.314727 
L 652.235294 420.876934 
L 698.823529 410.839442 
L 745.411765 403.043884 
" clip-path="url(#p0482c9a5ae)" style="fill: none; stroke: #000000; stroke-width: 1.5; stroke-linecap: square"/>
   </g>
  </g>
 </g>
 <defs>
  <clipPath id="p0482c9a5ae">
   <rect x="0" y="0" width="792" height="612"/>
  </clipPath>
 </defs>
</svg>
