<?xml version="1.0" encoding="utf-8" standalone="no"?>
<!DOCTYPE svg PUBLIC "-//W3C//DTD SVG 1.1//EN"
  "http://www.w3.org/Graphics/SVG/1.1/DTD/svg11.dtd">
<svg xmlns:xlink="http://www.w3.org/1999/xlink" width="792pt" height="612pt" viewBox="0 0 792 612" xmlns="http://www.w3.org/2000/svg" version="1.1">
 <metadata>
  <rdf:RDF xmlns:dc="http://purl.org/dc/elements/1.1/" xmlns:cc="http://creativecommons.org/ns#" xmlns:rdf="http://www.w3.org/1999/02/22-rdf-syntax-ns#">
   <cc:Work>
    <dc:type rdf:resource="http://purl.org/dc/dcmitype/StillImage"/>
    <dc:date>2022-12-26T20:25:19.377193</dc:date>
    <dc:format>image/svg+xml</dc:format>
    <dc:creator>
     <cc:Agent>
      <dc:title>Matplotlib v3.6.2, https://matplotlib.org/</dc:title>
     </cc:Agent>
    </dc:creator>
   </cc:Work>
  </rdf:RDF>
 </metadata>
 <defs>
  <style type="text/css">*{stroke-linejoin: round; stroke-linecap: butt}</style>
 </defs>
 <g id="figure_1">
  <g id="patch_1">
   <path d="M 0 612 
L 792 612 
L 792 0 
L 0 0 
z
" style="fill: #ffffff"/>
  </g>
  <g id="axes_1">
   <g id="line2d_1">
    <path d="M 0 306 
L 39.6 301.825634 
L 79.2 314.347178 
L 118.8 266.972236 
L 158.4 306 
L 198 335.961002 
L 237.6 335.133862 
L 277.2 335.133862 
L 316.8 305.165077 
L 356.4 311.426443 
L 396 305.582538 
L 435.6 315.598487 
L 475.2 304.74762 
L 514.8 312.261063 
L 554.4 318.100099 
L 594 323.514261 
L 633.6 298.069989 
L 673.2 296.818582 
L 712.8 322.265691 
L 752.4 327.256297 
" clip-path="url(#p9f9527e165)" style="fill: none; stroke: #000000; stroke-width: 1.5; stroke-linecap: square"/>
   </g>
   <g id="line2d_2">
    <path d="M 0 306 
L 39.6 306 
L 79.2 303.216994 
L 118.8 309.578087 
L 158.4 286.766453 
L 198 296.68404 
L 237.6 316.677402 
L 277.2 325.996513 
L 316.8 330.588618 
L 356.4 317.895776 
L 396 314.68089 
L 435.6 310.115441 
L 475.2 312.953237 
L 514.8 308.848485 
L 554.4 310.508269 
L 594 314.271927 
L 633.6 318.873162 
L 673.2 308.46052 
L 712.8 302.609689 
L 752.4 312.477068 
" clip-path="url(#p9f9527e165)" style="fill: none; stroke: #000000; stroke-width: 1.5; stroke-linecap: square"/>
   </g>
   <g id="line2d_3">
    <path d="M 0 306 
L 39.6 306 
L 79.2 303.554613 
L 118.8 308.445387 
L 158.4 292.175105 
L 198 297.090293 
L 237.6 310.131991 
L 277.2 318.187042 
L 316.8 323.494547 
L 356.4 317.885003 
L 396 315.933167 
L 435.6 312.834343 
L 475.2 313.65693 
L 514.8 311.018973 
L 554.4 311.385657 
L 594 313.364025 
L 633.6 316.351307 
L 673.2 310.989554 
L 712.8 306.832721 
L 752.4 311.36599 
" clip-path="url(#p9f9527e165)" style="fill: none; stroke: #000000; stroke-width: 1.5; stroke-linecap: square"/>
   </g>
   <g id="line2d_4">
    <path d="M 0 306 
L 39.6 306 
L 79.2 303.732328 
L 118.8 307.89904 
L 158.4 294.812839 
L 198 297.882321 
L 237.6 307.276512 
L 277.2 313.602401 
L 316.8 318.18361 
L 356.4 315.563004 
L 396 314.76376 
L 435.6 313.048638 
L 475.2 313.512367 
L 514.8 311.954557 
L 554.4 312.008052 
L 594 313.055618 
L 633.6 314.832396 
L 673.2 312.018465 
L 712.8 309.488327 
L 752.4 311.601752 
" clip-path="url(#p9f9527e165)" style="fill: none; stroke: #000000; stroke-width: 1.5; stroke-linecap: square"/>
   </g>
   <g id="line2d_5">
    <path d="M 0 306 
L 39.6 306 
L 79.2 303.822355 
L 118.8 307.639312 
L 158.4 296.058602 
L 198 298.40431 
L 237.6 306.111685 
L 277.2 311.424124 
L 316.8 315.371983 
L 356.4 313.808347 
L 396 313.467293 
L 435.6 312.402614 
L 475.2 312.813018 
L 514.8 311.822765 
L 554.4 311.874534 
L 594 312.585237 
L 633.6 313.795994 
L 673.2 312.103088 
L 712.8 310.496981 
L 752.4 311.708205 
" clip-path="url(#p9f9527e165)" style="fill: none; stroke: #000000; stroke-width: 1.5; stroke-linecap: square"/>
   </g>
   <g id="line2d_6">
    <path d="M 0 306 
L 39.6 306 
L 79.2 303.867516 
L 118.8 307.5138 
L 158.4 296.656557 
L 198 298.689676 
L 237.6 305.609914 
L 277.2 310.409051 
L 316.8 313.999253 
L 356.4 312.839671 
L 396 312.669266 
L 435.6 311.876875 
L 475.2 312.266185 
L 514.8 311.526108 
L 554.4 311.594632 
L 594 312.172098 
L 633.6 313.134936 
L 673.2 311.909792 
L 712.8 310.728307 
L 752.4 311.601207 
" clip-path="url(#p9f9527e165)" style="fill: none; stroke: #000000; stroke-width: 1.5; stroke-linecap: square"/>
   </g>
   <g id="line2d_7">
    <path d="M 0 306 
L 39.6 306 
L 79.2 303.890115 
L 118.8 307.452245 
L 158.4 296.94857 
L 198 298.837336 
L 237.6 305.380292 
L 277.2 309.925194 
L 316.8 313.330981 
L 356.4 312.343408 
L 396 312.242524 
L 435.6 311.569559 
L 475.2 311.94683 
L 514.8 311.318399 
L 554.4 311.395622 
L 594 311.913763 
L 633.6 312.763433 
L 673.2 311.741569 
L 712.8 310.751245 
L 752.4 311.483301 
" clip-path="url(#p9f9527e165)" style="fill: none; stroke: #000000; stroke-width: 1.5; stroke-linecap: square"/>
   </g>
   <g id="line2d_8">
    <path d="M 0 306 
L 39.6 306 
L 79.2 303.901417 
L 118.8 307.421782 
L 158.4 297.092751 
L 198 298.912261 
L 237.6 305.270877 
L 277.2 309.689752 
L 316.8 313.002546 
L 356.4 312.093791 
L 396 312.02376 
L 435.6 311.406114 
L 475.2 311.776767 
L 514.8 311.200363 
L 554.4 311.28158 
L 594 311.77167 
L 633.6 312.56762 
L 673.2 311.639132 
L 712.8 310.737849 
L 752.4 311.406204 
" clip-path="url(#p9f9527e165)" style="fill: none; stroke: #000000; stroke-width: 1.5; stroke-linecap: square"/>
   </g>
   <g id="line2d_9">
    <path d="M 0 306 
L 39.6 306 
L 79.2 303.907069 
L 118.8 307.40663 
L 158.4 297.164376 
L 198 298.949978 
L 237.6 305.217524 
L 277.2 309.573716 
L 316.8 312.839894 
L 356.4 311.968802 
L 396 311.913236 
L 435.6 311.32214 
L 475.2 311.689317 
L 514.8 311.137939 
L 554.4 311.221022 
L 594 311.697464 
L 633.6 312.467287 
L 673.2 311.583378 
L 712.8 310.72486 
L 752.4 311.362981 
" clip-path="url(#p9f9527e165)" style="fill: none; stroke: #000000; stroke-width: 1.5; stroke-linecap: square"/>
   </g>
  </g>
 </g>
 <defs>
  <clipPath id="p9f9527e165">
   <rect x="0" y="0" width="792" height="612"/>
  </clipPath>
 </defs>
</svg>
