<?xml version="1.0" encoding="utf-8" standalone="no"?>
<!DOCTYPE svg PUBLIC "-//W3C//DTD SVG 1.1//EN"
  "http://www.w3.org/Graphics/SVG/1.1/DTD/svg11.dtd">
<svg xmlns:xlink="http://www.w3.org/1999/xlink" width="792pt" height="612pt" viewBox="0 0 792 612" xmlns="http://www.w3.org/2000/svg" version="1.1">
 <metadata>
  <rdf:RDF xmlns:dc="http://purl.org/dc/elements/1.1/" xmlns:cc="http://creativecommons.org/ns#" xmlns:rdf="http://www.w3.org/1999/02/22-rdf-syntax-ns#">
   <cc:Work>
    <dc:type rdf:resource="http://purl.org/dc/dcmitype/StillImage"/>
    <dc:date>2023-01-09T02:27:13.692619</dc:date>
    <dc:format>image/svg+xml</dc:format>
    <dc:creator>
     <cc:Agent>
      <dc:title>Matplotlib v3.6.2, https://matplotlib.org/</dc:title>
     </cc:Agent>
    </dc:creator>
   </cc:Work>
  </rdf:RDF>
 </metadata>
 <defs>
  <style type="text/css">*{stroke-linejoin: round; stroke-linecap: butt}</style>
 </defs>
 <g id="figure_1">
  <g id="patch_1">
   <path d="M 0 612 
L 792 612 
L 792 0 
L 0 0 
z
" style="fill: #ffffff"/>
  </g>
  <g id="axes_1">
   <g id="line2d_1">
    <path d="M 0 459 
L 44 464.914286 
L 88 464.142857 
L 132 468 
L 176 475.457143 
L 220 486.257143 
L 264 481.371429 
L 308 475.714286 
L 352 485.742857 
L 396 498.857143 
L 440 508.371429 
L 484 513.257143 
L 528 505.542857 
L 572 507.342857 
L 616 510.942857 
L 660 506.828571 
L 704 510.171429 
L 748 513 
" clip-path="url(#pe5b4e5676e)" style="fill: none; stroke: #000000; stroke-width: 1.5; stroke-linecap: square"/>
   </g>
   <g id="line2d_2">
    <path d="M 0 459 
L 44 459 
L 88 462.942857 
L 132 463.628571 
L 176 465.96 
L 220 470.861751 
L 264 478.681633 
L 308 480.03712 
L 352 477.867227 
L 396 481.857479 
L 440 490.423866 
L 484 499.48437 
L 528 506.459496 
L 572 506.060168 
L 616 506.742857 
L 660 508.90084 
L 704 507.925714 
L 748 509.096471 
" clip-path="url(#pe5b4e5676e)" style="fill: none; stroke: #000000; stroke-width: 1.5; stroke-linecap: square"/>
   </g>
   <g id="line2d_3">
    <path d="M 0 459 
L 44 459 
L 88 462.464508 
L 132 463.224938 
L 176 465.089716 
L 220 468.778325 
L 264 474.629099 
L 308 476.795353 
L 352 476.457607 
L 396 479.302941 
L 440 485.214985 
L 484 492.150608 
L 528 498.430695 
L 572 500.537071 
L 616 502.546136 
L 660 505.01914 
L 704 505.551189 
L 748 506.963201 
" clip-path="url(#pe5b4e5676e)" style="fill: none; stroke: #000000; stroke-width: 1.5; stroke-linecap: square"/>
   </g>
   <g id="line2d_4">
    <path d="M 0 459 
L 44 459 
L 88 462.212721 
L 132 462.97023 
L 176 464.570739 
L 220 467.559369 
L 264 472.161269 
L 308 474.246616 
L 352 474.557965 
L 396 476.811207 
L 440 481.072004 
L 484 486.173832 
L 528 491.098462 
L 572 493.666555 
L 616 496.05348 
L 660 498.612644 
L 704 500.006973 
L 748 501.713883 
" clip-path="url(#pe5b4e5676e)" style="fill: none; stroke: #000000; stroke-width: 1.5; stroke-linecap: square"/>
   </g>
   <g id="line2d_5">
    <path d="M 0 459 
L 44 459 
L 88 462.085171 
L 132 462.831277 
L 176 464.295917 
L 220 466.930697 
L 264 470.88736 
L 308 472.800813 
L 352 473.284426 
L 396 475.193942 
L 440 478.582682 
L 484 482.606372 
L 528 486.541562 
L 572 488.875172 
L 616 491.056397 
L 660 493.325516 
L 704 494.819781 
L 748 496.472881 
" clip-path="url(#pe5b4e5676e)" style="fill: none; stroke: #000000; stroke-width: 1.5; stroke-linecap: square"/>
   </g>
   <g id="line2d_6">
    <path d="M 0 459 
L 44 459 
L 88 462.021187 
L 132 462.75926 
L 176 464.155773 
L 220 466.615999 
L 264 470.254006 
L 308 472.055863 
L 352 472.585425 
L 396 474.313142 
L 440 477.27288 
L 484 480.751057 
L 528 484.150572 
L 572 486.256821 
L 616 488.222706 
L 660 490.238472 
L 704 491.645203 
L 748 493.152213 
" clip-path="url(#pe5b4e5676e)" style="fill: none; stroke: #000000; stroke-width: 1.5; stroke-linecap: square"/>
   </g>
   <g id="line2d_7">
    <path d="M 0 459 
L 44 459 
L 88 461.989169 
L 132 462.72267 
L 176 464.085174 
L 220 466.45915 
L 264 469.940043 
L 308 471.681108 
L 352 472.224293 
L 396 473.859745 
L 440 476.610089 
L 484 479.820227 
L 528 482.950419 
L 572 484.923012 
L 616 486.759538 
L 660 488.627529 
L 704 489.959109 
L 748 491.365099 
" clip-path="url(#pe5b4e5676e)" style="fill: none; stroke: #000000; stroke-width: 1.5; stroke-linecap: square"/>
   </g>
   <g id="line2d_8">
    <path d="M 0 459 
L 44 459 
L 88 461.973156 
L 132 462.704237 
L 176 464.049763 
L 220 466.380923 
L 264 469.783965 
L 308 471.493583 
L 352 472.041385 
L 396 473.630551 
L 440 476.277921 
L 484 479.356057 
L 528 482.352449 
L 572 484.254535 
L 616 486.022297 
L 660 487.812558 
L 704 489.100023 
L 748 490.4498 
" clip-path="url(#pe5b4e5676e)" style="fill: none; stroke: #000000; stroke-width: 1.5; stroke-linecap: square"/>
   </g>
   <g id="line2d_9">
    <path d="M 0 459 
L 44 459 
L 88 461.96515 
L 132 462.694987 
L 176 464.032032 
L 220 466.341869 
L 264 469.706178 
L 308 471.399837 
L 352 471.94942 
L 396 473.515431 
L 440 476.1118 
L 484 479.124543 
L 528 482.054404 
L 572 483.920495 
L 616 485.653045 
L 660 487.40369 
L 704 488.667674 
L 748 489.988139 
" clip-path="url(#pe5b4e5676e)" style="fill: none; stroke: #000000; stroke-width: 1.5; stroke-linecap: square"/>
   </g>
  </g>
 </g>
 <defs>
  <clipPath id="pe5b4e5676e">
   <rect x="0" y="0" width="792" height="612"/>
  </clipPath>
 </defs>
</svg>
