<?xml version="1.0" encoding="utf-8" standalone="no"?>
<!DOCTYPE svg PUBLIC "-//W3C//DTD SVG 1.1//EN"
  "http://www.w3.org/Graphics/SVG/1.1/DTD/svg11.dtd">
<svg xmlns:xlink="http://www.w3.org/1999/xlink" width="792pt" height="612pt" viewBox="0 0 792 612" xmlns="http://www.w3.org/2000/svg" version="1.1">
 <metadata>
  <rdf:RDF xmlns:dc="http://purl.org/dc/elements/1.1/" xmlns:cc="http://creativecommons.org/ns#" xmlns:rdf="http://www.w3.org/1999/02/22-rdf-syntax-ns#">
   <cc:Work>
    <dc:type rdf:resource="http://purl.org/dc/dcmitype/StillImage"/>
    <dc:date>2023-01-30T17:17:09.830257</dc:date>
    <dc:format>image/svg+xml</dc:format>
    <dc:creator>
     <cc:Agent>
      <dc:title>Matplotlib v3.6.2, https://matplotlib.org/</dc:title>
     </cc:Agent>
    </dc:creator>
   </cc:Work>
  </rdf:RDF>
 </metadata>
 <defs>
  <style type="text/css">*{stroke-linejoin: round; stroke-linecap: butt}</style>
 </defs>
 <g id="figure_1">
  <g id="patch_1">
   <path d="M 0 612 
L 792 612 
L 792 0 
L 0 0 
z
" style="fill: #ffffff"/>
  </g>
  <g id="axes_1">
   <g id="line2d_1">
    <path d="M 0 306 
L 3.168 317.396169 
L 6.336 307.471143 
L 9.504 332.049777 
L 12.672 296.073196 
L 15.84 287.632683 
L 19.008 291.299786 
L 22.176 332.414863 
L 25.344 316.110501 
L 28.512 297.175524 
L 31.68 314.089461 
L 34.848 278.125563 
L 38.016 260.189466 
L 41.184 312.435349 
L 44.352 301.954563 
L 47.52 325.466464 
L 50.688 274.300429 
L 53.856 302.506161 
L 57.024 319.415673 
L 60.192 325.100137 
L 63.36 332.232329 
L 66.528 319.599209 
L 69.696 270.303879 
L 72.864 306.367788 
L 76.032 283.970868 
L 79.2 315.926804 
L 82.368 302.138426 
L 85.536 314.640731 
L 88.704 333.327243 
L 91.872 330.954076 
L 95.04 302.690033 
L 98.208 300.11611 
L 101.376 313.170562 
L 104.544 324.733754 
L 107.712 319.599209 
L 110.88 289.098948 
L 114.048 292.217265 
L 117.216 306.735576 
L 120.384 294.787474 
L 123.552 304.896639 
L 126.72 262.168896 
L 129.888 260.728929 
L 133.056 315.37567 
L 136.224 305.816106 
L 139.392 153.696923 
L 142.56 303.977193 
L 145.728 373.990976 
L 148.896 325.100137 
L 152.064 330.588698 
L 155.232 305.816106 
L 158.4 344.414065 
L 161.568 321.067133 
L 164.736 318.130659 
L 167.904 333.327243 
L 171.072 297.175524 
L 174.24 329.857731 
L 177.408 285.617963 
L 180.576 315.37567 
L 183.744 315.926804 
L 186.912 283.970868 
L 190.08 330.588698 
L 193.248 315.008214 
L 196.416 312.067714 
L 199.584 297.910539 
L 202.752 332.779872 
L 205.92 299.564651 
L 209.088 309.861574 
L 212.256 312.251534 
L 218.592 301.40299 
L 221.76 302.138426 
L 224.928 324.916952 
L 228.096 323.084379 
L 231.264 328.760769 
L 234.432 318.497851 
L 237.6 332.962349 
L 240.768 290.749425 
L 243.936 294.787474 
L 247.104 307.83892 
L 250.272 284.153817 
L 253.44 308.574458 
L 256.608 300.11611 
L 259.776 325.283307 
L 262.944 314.273224 
L 266.112 327.846183 
L 269.28 278.672757 
L 272.448 299.564651 
L 275.616 265.777359 
L 278.784 307.655032 
L 281.952 334.056795 
L 285.12 296.991786 
L 288.288 321.617428 
L 291.456 315.191945 
L 294.624 285.434892 
L 297.792 297.726776 
L 300.96 319.599209 
L 304.128 312.435349 
L 307.296 323.450996 
L 310.464 297.910539 
L 313.632 290.382572 
L 316.8 324.000827 
L 319.968 292.400791 
L 323.136 306.551682 
L 326.304 304.16108 
L 329.472 316.110501 
L 332.64 298.278082 
L 335.808 275.574422 
L 338.976 319.782735 
L 342.144 301.035291 
L 345.312 307.83892 
L 348.48 306.367788 
L 351.648 319.782735 
L 354.816 309.861574 
L 357.984 271.029649 
L 361.152 302.690033 
L 364.32 300.667607 
L 367.488 294.052951 
L 370.656 314.45698 
L 376.992 300.299938 
L 380.16 284.519762 
L 383.328 309.309967 
L 386.496 284.702757 
L 389.664 315.559388 
L 392.832 333.509661 
L 396 316.845215 
L 399.168 322.167623 
L 402.336 297.726776 
L 405.504 304.16108 
L 408.672 306.367788 
L 411.84 291.116321 
L 415.008 278.672757 
L 418.176 281.228604 
L 421.344 297.726776 
L 424.512 242.217791 
L 427.68 273.391111 
L 430.848 333.692059 
L 434.016 283.605017 
L 437.184 273.209317 
L 440.352 324.733754 
L 443.52 310.229298 
L 446.688 294.971125 
L 449.856 368.549803 
L 453.024 343.870954 
L 456.192 329.309325 
L 459.36 436.187467 
L 462.528 322.534361 
L 465.696 305.632212 
L 468.864 306.183894 
L 472.032 313.354353 
L 475.2 300.483771 
L 478.368 309.677708 
L 481.536 308.758339 
L 484.704 315.926804 
L 487.872 300.483771 
L 491.04 318.681434 
L 494.208 302.322292 
L 497.376 301.40299 
L 500.544 286.167264 
L 503.712 296.808055 
L 506.88 315.191945 
L 510.048 302.506161 
L 513.216 306.551682 
L 516.384 322.534361 
L 519.552 302.322292 
L 522.72 314.640731 
L 525.888 308.022807 
L 529.056 319.782735 
L 532.224 303.425542 
L 535.392 327.297243 
L 538.56 294.603831 
L 541.728 301.954563 
L 544.896 316.477873 
L 548.064 308.390576 
L 551.232 307.655032 
L 554.4 288.549004 
L 557.568 315.191945 
L 560.736 309.861574 
L 563.904 316.845215 
L 567.072 309.309967 
L 570.24 310.229298 
L 573.408 310.964709 
L 576.576 302.506161 
L 579.744 306.735576 
L 582.912 299.38084 
L 586.08 303.241661 
L 589.248 313.354353 
L 592.416 301.586844 
L 595.584 303.425542 
L 598.752 308.390576 
L 601.92 298.829438 
L 605.088 308.022807 
L 608.256 308.390576 
L 611.424 306 
L 614.592 303.241661 
L 617.76 315.37567 
L 620.928 312.251534 
L 624.096 308.022807 
L 627.264 306.919468 
L 630.432 311.88389 
L 633.6 300.667607 
L 636.768 313.905692 
L 639.936 288.732306 
L 643.104 286.350393 
L 646.272 303.425542 
L 649.44 294.787474 
L 652.608 313.721918 
L 655.776 308.574458 
L 658.944 302.322292 
L 662.112 311.88389 
L 665.28 305.080532 
L 668.448 300.11611 
L 671.616 308.390576 
L 674.784 309.309967 
L 677.952 304.16108 
L 681.12 309.677708 
L 684.288 288.732306 
L 687.456 306 
L 690.624 319.232128 
L 693.792 318.865008 
L 696.96 318.865008 
L 700.128 305.632212 
L 703.296 308.390576 
L 706.464 305.816106 
L 709.632 310.229298 
L 712.8 305.448318 
L 715.968 308.758339 
L 719.136 311.332393 
L 722.304 313.721918 
L 725.472 302.506161 
L 728.64 301.954563 
L 731.808 313.170562 
L 734.976 315.37567 
L 738.144 312.802965 
L 741.312 309.493839 
L 744.48 300.483771 
L 747.648 307.287252 
L 750.816 308.574458 
L 753.984 303.057783 
L 757.152 308.390576 
L 760.32 308.022807 
L 763.488 304.528857 
L 766.656 303.609424 
L 769.824 290.199162 
L 772.992 304.16108 
L 776.16 305.264424 
L 779.328 287.449458 
L 782.496 313.721918 
L 785.664 308.390576 
L 788.832 306 
L 788.832 306 
" clip-path="url(#pdc8c201a8e)" style="fill: none; stroke: #000000; stroke-width: 1.5; stroke-linecap: square"/>
   </g>
   <g id="line2d_2">
    <path d="M 0 306 
L 3.168 306 
L 6.336 313.599399 
L 9.504 310.097969 
L 12.672 321.825292 
L 15.84 308.538869 
L 19.008 297.910539 
L 22.176 294.577803 
L 25.344 313.599399 
L 28.512 314.874914 
L 31.68 305.985577 
L 34.848 310.051206 
L 38.016 293.949985 
L 41.184 276.910224 
L 44.352 294.683049 
L 47.52 298.338621 
L 50.688 311.90047 
L 53.856 292.969423 
L 57.024 297.746233 
L 60.192 308.594649 
L 63.36 316.947489 
L 66.528 324.743094 
L 69.696 322.18632 
L 72.864 296.112098 
L 76.032 301.201115 
L 79.2 292.594403 
L 82.368 304.284393 
L 85.536 303.177484 
L 88.704 308.889578 
L 91.872 321.134756 
L 95.04 326.071859 
L 98.208 314.45698 
L 101.376 307.274993 
L 104.544 310.28049 
L 107.712 317.530836 
L 110.88 318.599363 
L 114.048 303.794029 
L 117.216 297.92207 
L 120.384 302.280472 
L 123.552 298.517357 
L 126.72 301.715905 
L 129.888 281.740919 
L 133.056 271.068795 
L 136.224 293.14651 
L 139.392 299.511309 
L 142.56 221.154952 
L 145.728 261.733165 
L 148.896 318.433055 
L 152.064 321.80803 
L 155.232 326.336805 
L 158.4 316.176774 
L 161.568 330.404549 
L 164.736 325.770259 
L 167.904 322.303537 
L 171.072 327.879905 
L 174.24 312.391378 
L 177.408 321.146266 
L 180.576 303.284927 
L 183.744 309.350347 
L 186.912 312.583119 
L 190.08 298.187275 
L 193.248 314.436083 
L 196.416 314.686127 
L 199.584 313.406246 
L 202.752 305.595433 
L 205.92 319.306267 
L 209.088 309.408032 
L 212.256 309.622908 
L 215.424 310.992826 
L 218.592 308.817468 
L 221.76 305.083416 
L 224.928 303.591396 
L 228.096 314.317182 
L 231.264 318.684314 
L 234.432 323.784502 
L 237.6 321.159215 
L 240.768 327.109207 
L 243.936 308.908326 
L 247.104 301.83271 
L 250.272 304.84688 
L 253.44 294.407234 
L 256.608 301.459949 
L 259.776 300.731771 
L 262.944 313.032175 
L 266.112 313.615975 
L 269.28 320.811733 
L 272.448 299.680706 
L 275.616 299.606459 
L 278.784 282.583849 
L 281.952 295.099326 
L 285.12 314.679642 
L 288.288 305.780048 
L 291.456 313.718314 
L 294.624 314.430318 
L 297.792 299.932286 
L 300.96 298.825834 
L 304.128 309.322225 
L 307.296 310.888286 
L 310.464 317.15347 
L 313.632 307.535324 
L 316.8 298.892144 
L 319.968 311.472974 
L 323.136 301.946631 
L 326.304 304.266365 
L 329.472 304.183435 
L 332.64 310.155754 
L 335.808 304.166849 
L 338.976 289.791387 
L 342.144 304.841832 
L 345.312 302.893376 
L 348.48 305.396395 
L 351.648 305.881731 
L 354.816 312.866395 
L 357.984 311.351858 
L 361.152 291.072435 
L 364.32 296.931262 
L 367.488 298.761687 
L 370.656 296.393062 
L 373.824 305.437501 
L 376.992 306.45649 
L 380.16 303.33973 
L 383.328 293.868621 
L 386.496 301.661829 
L 389.664 293.137151 
L 392.832 304.375256 
L 396 319.049293 
L 399.168 317.952089 
L 402.336 320.08931 
L 405.504 308.906884 
L 408.672 306.572595 
L 411.84 306.464423 
L 415.008 298.798445 
L 418.176 288.644607 
L 421.344 284.831222 
L 424.512 291.235032 
L 427.68 266.312547 
L 430.848 269.799638 
L 434.016 301.757003 
L 437.184 292.624634 
L 440.352 282.858452 
L 443.52 303.876236 
L 446.688 307.109851 
L 449.856 301.033129 
L 453.024 335.398469 
L 456.192 339.778375 
L 459.36 334.5437 
L 462.528 388.08362 
L 465.696 355.991256 
L 468.864 330.944764 
L 472.032 318.577045 
L 475.2 316.002445 
L 478.368 308.109342 
L 481.536 308.826122 
L 484.704 308.751849 
L 487.872 312.087178 
L 491.04 306.242308 
L 494.208 312.490132 
L 497.376 307.399029 
L 500.544 304.377419 
L 503.712 295.234733 
L 506.88 295.996114 
L 510.048 305.60625 
L 513.216 304.029835 
L 516.384 305.302645 
L 519.552 313.932357 
L 522.72 308.128091 
L 525.888 311.410974 
L 529.056 309.759907 
L 532.224 314.818711 
L 535.392 309.100134 
L 538.56 318.2581 
L 541.728 306.408173 
L 544.896 304.140888 
L 548.064 310.338892 
L 551.232 309.35251 
L 554.4 308.503069 
L 557.568 298.456817 
L 560.736 306.848075 
L 563.904 308.320629 
L 567.072 312.627809 
L 570.24 310.983454 
L 573.408 310.594126 
L 576.576 310.784466 
L 579.744 306.635336 
L 582.912 306.721153 
L 586.08 303.019565 
L 589.248 303.117633 
L 592.416 308.229768 
L 595.584 304.893034 
L 598.752 304.145936 
L 601.92 306.263221 
L 605.088 302.538609 
L 608.256 305.283174 
L 611.424 306.854565 
L 614.592 306.432692 
L 617.76 304.817314 
L 620.928 310.12475 
L 624.096 311.205507 
L 627.264 309.613534 
L 630.432 308.28241 
L 633.6 310.090862 
L 636.768 305.363943 
L 639.936 309.651029 
L 643.104 299.155228 
L 646.272 292.690134 
L 649.44 298.038096 
L 652.608 296.386578 
L 655.776 305.06683 
L 658.944 306.814181 
L 662.112 304.571405 
L 665.28 308.223999 
L 668.448 306.684374 
L 671.616 303.426984 
L 674.784 305.91851 
L 677.952 307.642773 
L 681.12 305.883173 
L 684.288 307.782672 
L 687.456 298.22331 
L 690.624 302.09949 
L 693.792 310.697227 
L 696.96 314.819432 
L 700.128 316.863221 
L 703.296 311.242276 
L 706.464 309.824801 
L 709.632 307.81296 
L 712.8 309.063359 
L 715.968 307.254801 
L 719.136 307.98603 
L 722.304 309.644539 
L 725.472 311.673388 
L 728.64 307.08389 
L 731.808 304.506502 
L 734.976 308.853523 
L 738.144 312.125384 
L 741.312 312.478599 
L 744.48 310.987779 
L 747.648 305.714423 
L 750.816 306.488221 
L 753.984 307.543256 
L 757.152 305.302645 
L 760.32 306.837258 
L 763.488 307.415615 
L 766.656 305.95601 
L 769.824 304.77116 
L 772.992 297.460151 
L 776.16 300.803865 
L 779.328 303.027497 
L 782.496 295.200881 
L 785.664 304.470445 
L 788.832 306.43125 
L 788.832 306.43125 
" clip-path="url(#pdc8c201a8e)" style="fill: none; stroke: #000000; stroke-width: 1.5; stroke-linecap: square"/>
   </g>
   <g id="line2d_3">
    <path d="M 0 306 
L 3.168 306 
L 6.336 312.67775 
L 9.504 310.319029 
L 12.672 318.822758 
L 15.84 310.731953 
L 19.008 302.992765 
L 22.176 299.233307 
L 25.344 309.619533 
L 28.512 311.609216 
L 31.68 307.245005 
L 34.848 309.295441 
L 38.016 299.998887 
L 41.184 288.125797 
L 44.352 295.29226 
L 47.52 297.253671 
L 50.688 305.555471 
L 53.856 296.334328 
L 57.024 298.124328 
L 66.528 316.882157 
L 69.696 317.714859 
L 72.864 303.760489 
L 76.032 304.494139 
L 79.2 298.4364 
L 82.368 303.580746 
L 85.536 303.144558 
L 88.704 306.554356 
L 91.872 314.499636 
L 95.04 319.349697 
L 98.208 314.474829 
L 101.376 310.241158 
L 104.544 311.144032 
L 107.712 315.154408 
L 110.88 316.456955 
L 114.048 308.400369 
L 117.216 303.611752 
L 120.384 304.511891 
L 123.552 301.690784 
L 126.72 302.628001 
L 129.888 290.676293 
L 133.056 281.784761 
L 136.224 291.614113 
L 139.392 295.759963 
L 142.56 250.204036 
L 145.728 265.71183 
L 148.896 297.682766 
L 152.064 305.747687 
L 155.232 313.057826 
L 158.4 310.915482 
L 161.568 320.804118 
L 164.736 320.917821 
L 167.904 320.131435 
L 171.072 324.034593 
L 174.24 316.18082 
L 177.408 320.222036 
L 180.576 310.112136 
L 183.744 311.717314 
L 186.912 312.951174 
L 190.08 304.427582 
L 193.248 312.324949 
L 196.416 313.123645 
L 199.584 312.741973 
L 202.752 308.366858 
L 205.92 315.53686 
L 209.088 310.853027 
L 212.256 310.522735 
L 215.424 311.018987 
L 218.592 309.75144 
L 221.76 307.269507 
L 224.928 305.772297 
L 228.096 311.380453 
L 231.264 314.854671 
L 234.432 318.949437 
L 237.6 318.820129 
L 240.768 323.026922 
L 243.936 313.534449 
L 247.104 308.019929 
L 250.272 307.962055 
L 253.44 300.962512 
L 256.608 303.163895 
L 259.776 302.271768 
L 262.944 309.036698 
L 266.112 310.573085 
L 269.28 315.664479 
L 272.448 304.784563 
L 275.616 303.25252 
L 278.784 292.148931 
L 281.952 296.669021 
L 285.12 307.646855 
L 288.288 304.500606 
L 291.456 309.504727 
L 294.624 311.198986 
L 297.792 303.633393 
L 300.96 301.891391 
L 304.128 307.121102 
L 307.296 308.682257 
L 310.464 313.039105 
L 313.632 308.576844 
L 316.8 303.216548 
L 319.968 309.305598 
L 323.136 304.367617 
L 326.304 305.015334 
L 329.472 304.809482 
L 332.64 308.13023 
L 335.808 305.20296 
L 338.976 296.473785 
L 342.144 303.299332 
L 345.312 302.619906 
L 348.48 304.17422 
L 351.648 304.826619 
L 354.816 309.209987 
L 357.984 309.397879 
L 361.152 298.056615 
L 364.32 299.418919 
L 367.488 299.796454 
L 370.656 298.079181 
L 373.824 302.900959 
L 376.992 304.240539 
L 380.16 303.08181 
L 383.328 297.600465 
L 386.496 301.041752 
L 389.664 296.259616 
L 392.832 301.906358 
L 396 311.221271 
L 399.168 312.879366 
L 402.336 315.620061 
L 405.504 310.35525 
L 408.672 308.534615 
L 411.84 307.940747 
L 415.008 302.996352 
L 418.176 295.829089 
L 421.344 291.530158 
L 424.512 293.324914 
L 427.68 278.074897 
L 430.848 276.670816 
L 434.016 293.394089 
L 437.184 290.493861 
L 440.352 285.402804 
L 443.52 296.920614 
L 446.688 300.790509 
L 449.856 299.06035 
L 453.024 319.719339 
L 456.192 326.877592 
L 459.36 327.618911 
L 462.528 361.567667 
L 465.696 350.303065 
L 468.864 337.361504 
L 472.032 328.297069 
L 475.2 323.946193 
L 478.368 317.151685 
L 481.536 315.005374 
L 484.704 313.147494 
L 487.872 313.998828 
L 491.04 310.072704 
L 494.208 312.588453 
L 497.376 309.572988 
L 500.544 307.187451 
L 503.712 300.927412 
L 506.88 299.666362 
L 510.048 304.197628 
L 513.216 303.538506 
L 516.384 304.402646 
L 519.552 309.73726 
L 522.72 307.561097 
L 525.888 309.636663 
L 529.056 309.172652 
L 532.224 312.293816 
L 535.392 309.690664 
L 538.56 314.868351 
L 541.728 308.926374 
L 544.896 306.865149 
L 548.064 309.697936 
L 554.4 308.85923 
L 557.568 302.895611 
L 560.736 306.497858 
L 563.904 307.491565 
L 567.072 310.244082 
L 570.24 309.955288 
L 573.408 310.044625 
L 576.576 310.309896 
L 579.744 308.018026 
L 582.912 307.627414 
L 586.08 305.207112 
L 589.248 304.603761 
L 592.416 307.188697 
L 595.584 305.547445 
L 598.752 304.910944 
L 601.92 305.930115 
L 605.088 303.839888 
L 608.256 305.087412 
L 611.424 306.047084 
L 614.592 306.028857 
L 617.76 305.196856 
L 620.928 308.185953 
L 624.096 309.379202 
L 627.264 308.978555 
L 630.432 308.380551 
L 633.6 309.412674 
L 636.768 306.852722 
L 639.936 308.931167 
L 643.104 302.981537 
L 646.272 298.086621 
L 649.44 299.650001 
L 652.608 298.209738 
L 655.776 302.769669 
L 658.944 304.470432 
L 662.112 303.834261 
L 665.28 306.198889 
L 668.448 305.873441 
L 671.616 304.169436 
L 677.952 306.547668 
L 681.12 305.845478 
L 684.288 306.965426 
L 687.456 301.606265 
L 690.624 302.883972 
L 693.792 307.709623 
L 696.96 311.016131 
L 700.128 313.333892 
L 703.296 311.091108 
L 706.464 310.29408 
L 709.632 308.979448 
L 712.8 309.354614 
L 715.968 308.203151 
L 719.136 308.369987 
L 722.304 309.25061 
L 725.472 310.566579 
L 728.64 308.198079 
L 731.808 306.366819 
L 738.144 310.448835 
L 741.312 311.146224 
L 744.48 310.651086 
L 747.648 307.652088 
L 750.816 307.531924 
L 753.984 307.84066 
L 757.152 306.433651 
L 760.32 307.009789 
L 763.488 307.303964 
L 769.824 305.640441 
L 772.992 301.089806 
L 779.328 302.943893 
L 782.496 298.383822 
L 785.664 302.876356 
L 788.832 304.483358 
L 788.832 304.483358 
" clip-path="url(#pdc8c201a8e)" style="fill: none; stroke: #000000; stroke-width: 1.5; stroke-linecap: square"/>
   </g>
   <g id="line2d_4">
    <path d="M 0 306 
L 3.168 306 
L 6.336 312.192573 
L 9.504 310.339808 
L 12.672 317.263295 
L 19.008 305.581688 
L 22.176 302.345616 
L 25.344 308.738221 
L 28.512 310.223929 
L 31.68 307.701802 
L 34.848 308.895834 
L 38.016 303.286846 
L 41.184 295.5668 
L 44.352 298.509191 
L 47.52 299.101266 
L 50.688 303.579264 
L 53.856 298.644699 
L 57.024 299.287349 
L 60.192 302.614106 
L 63.36 306.311088 
L 66.528 310.55676 
L 69.696 312.028915 
L 72.864 305.238812 
L 76.032 305.421287 
L 79.2 301.95709 
L 82.368 304.204936 
L 85.536 303.873048 
L 88.704 305.600054 
L 91.872 310.052176 
L 95.04 313.403856 
L 98.208 311.69183 
L 101.376 309.843103 
L 104.544 310.377069 
L 107.712 312.668785 
L 110.88 313.779651 
L 114.048 309.824485 
L 117.216 307.019383 
L 120.384 306.986161 
L 123.552 305.046693 
L 126.72 305.005608 
L 129.888 298.109743 
L 133.056 292.094235 
L 136.224 295.795391 
L 139.392 297.406126 
L 142.56 272.238317 
L 145.728 277.251786 
L 148.896 292.809168 
L 155.232 303.18133 
L 158.4 303.60258 
L 161.568 310.143671 
L 164.736 311.880538 
L 167.904 312.866588 
L 171.072 316.139427 
L 174.24 313.140505 
L 177.408 315.820398 
L 180.576 311.013695 
L 186.912 312.387628 
L 190.08 307.841942 
L 193.248 311.467201 
L 196.416 312.020733 
L 199.584 312.034058 
L 202.752 309.785743 
L 205.92 313.466077 
L 209.088 311.239174 
L 212.256 311.013926 
L 215.424 311.225299 
L 218.592 310.520131 
L 221.76 309.066352 
L 224.928 307.968711 
L 228.096 310.681244 
L 231.264 312.694903 
L 234.432 315.298458 
L 237.6 315.809596 
L 240.768 318.562558 
L 243.936 314.234103 
L 247.104 311.134729 
L 250.272 310.568429 
L 253.44 306.334545 
L 256.608 306.677163 
L 259.776 305.629605 
L 262.944 308.748529 
L 266.112 309.623496 
L 269.28 312.533944 
L 272.448 307.101532 
L 275.616 305.903732 
L 278.784 299.443083 
L 281.952 300.763072 
L 285.12 306.084069 
L 288.288 304.625231 
L 291.456 307.354416 
L 294.624 308.592143 
L 297.792 304.884386 
L 300.96 303.736351 
L 304.128 306.275119 
L 307.296 307.242642 
L 310.464 309.839186 
L 313.632 307.933681 
L 316.8 305.125446 
L 319.968 308.142646 
L 323.136 305.631041 
L 326.304 305.780272 
L 329.472 305.509684 
L 332.64 307.192532 
L 335.808 305.754908 
L 338.976 300.910658 
L 342.144 303.906134 
L 345.312 303.45576 
L 348.48 304.161259 
L 351.648 304.511401 
L 354.816 306.964856 
L 357.984 307.426562 
L 361.152 301.593339 
L 364.32 301.75371 
L 367.488 301.57241 
L 370.656 300.35434 
L 373.824 302.620436 
L 376.992 303.397083 
L 380.16 302.925948 
L 383.328 299.978061 
L 386.496 301.447014 
L 389.664 298.770831 
L 392.832 301.437866 
L 396 306.563641 
L 399.168 308.219781 
L 402.336 310.456308 
L 405.504 308.417234 
L 408.672 307.734922 
L 411.84 307.506739 
L 415.008 304.892864 
L 418.176 300.702719 
L 421.344 297.570628 
L 424.512 297.598797 
L 427.68 288.612801 
L 430.848 286.164015 
L 434.016 293.732155 
L 437.184 292.109351 
L 440.352 289.0899 
L 443.52 294.758355 
L 446.688 297.223769 
L 449.856 296.857271 
L 453.024 308.443016 
L 456.192 314.124057 
L 459.36 316.556862 
L 462.528 337.001902 
L 465.696 334.71999 
L 468.864 330.116291 
L 472.032 326.328294 
L 475.2 324.267098 
L 478.368 320.48608 
L 481.536 318.773993 
L 484.704 317.196869 
L 487.872 316.998947 
L 491.04 314.382984 
L 494.208 315.069097 
L 497.376 313.022502 
L 500.544 311.164649 
L 503.712 307.160964 
L 506.88 305.512771 
L 510.048 307.060082 
L 513.216 306.333107 
L 516.384 306.377521 
L 519.552 308.978025 
L 522.72 307.932294 
L 525.888 309.010477 
L 529.056 308.894985 
L 532.224 310.657491 
L 535.392 309.488072 
L 538.56 312.353584 
L 541.728 309.542729 
L 544.896 308.321248 
L 548.064 309.623418 
L 551.232 309.43565 
L 554.4 309.113812 
L 557.568 305.804301 
L 560.736 307.289506 
L 563.904 307.614423 
L 567.072 309.08015 
L 570.24 309.119009 
L 576.576 309.561864 
L 579.744 308.440598 
L 582.912 308.167494 
L 586.08 306.763519 
L 589.248 306.195251 
L 592.416 307.342538 
L 595.584 306.416075 
L 598.752 305.940949 
L 601.92 306.335061 
L 605.088 305.1486 
L 611.424 306.050599 
L 614.592 306.044729 
L 617.76 305.596674 
L 620.928 307.148534 
L 624.096 307.966751 
L 627.264 307.97154 
L 630.432 307.803465 
L 633.6 308.447823 
L 636.768 307.208193 
L 639.936 308.265657 
L 646.272 302.146128 
L 649.44 302.341534 
L 652.608 301.130631 
L 655.776 303.137735 
L 658.944 304.015211 
L 662.112 303.73782 
L 665.28 305.035235 
L 668.448 305.035098 
L 671.616 304.246634 
L 677.952 305.604661 
L 681.12 305.376012 
L 684.288 306.06229 
L 687.456 303.295522 
L 690.624 303.727517 
L 693.792 306.199307 
L 696.96 308.226419 
L 700.128 309.929719 
L 703.296 309.244309 
L 706.464 309.114446 
L 709.632 308.58832 
L 712.8 308.850565 
L 715.968 308.308937 
L 719.136 308.383881 
L 722.304 308.850519 
L 725.472 309.626655 
L 731.808 307.447408 
L 734.976 308.358957 
L 738.144 309.484876 
L 741.312 310.012182 
L 744.48 309.942677 
L 747.648 308.446602 
L 750.816 308.264559 
L 753.984 308.32247 
L 757.152 307.478196 
L 763.488 307.690375 
L 769.824 306.613328 
L 772.992 303.993371 
L 776.16 304.017415 
L 779.328 304.213291 
L 782.496 301.532341 
L 785.664 303.474322 
L 788.832 304.26877 
L 788.832 304.26877 
" clip-path="url(#pdc8c201a8e)" style="fill: none; stroke: #000000; stroke-width: 1.5; stroke-linecap: square"/>
   </g>
   <g id="line2d_5">
    <path d="M 0 306 
L 3.168 306 
L 6.336 311.946783 
L 9.504 310.324133 
L 12.672 316.494439 
L 19.008 306.749144 
L 22.176 303.92744 
L 25.344 308.666968 
L 28.512 309.80827 
L 31.68 307.998961 
L 34.848 308.821829 
L 38.016 304.870925 
L 41.184 299.341892 
L 44.352 300.888026 
L 47.52 301.009716 
L 50.688 303.718693 
L 53.856 300.539121 
L 57.024 300.745815 
L 60.192 302.665939 
L 63.36 304.930109 
L 66.528 307.640847 
L 69.696 308.807448 
L 72.864 305.091834 
L 76.032 305.212861 
L 79.2 303.21811 
L 82.368 304.39704 
L 85.536 304.189577 
L 88.704 305.141275 
L 91.872 307.693501 
L 95.04 309.783846 
L 98.208 309.152078 
L 101.376 308.352124 
L 104.544 308.77643 
L 107.712 310.176154 
L 110.88 310.998403 
L 114.048 309.095603 
L 117.216 307.634874 
L 120.384 307.557356 
L 123.552 306.459696 
L 126.72 306.325783 
L 129.888 302.527037 
L 133.056 298.936932 
L 136.224 300.334719 
L 139.392 300.79984 
L 142.56 287.103447 
L 145.728 288.527399 
L 148.896 295.827191 
L 152.064 298.295583 
L 155.232 301.018164 
L 158.4 301.421614 
L 161.568 305.050134 
L 164.736 306.395352 
L 167.904 307.379828 
L 171.072 309.559517 
L 174.24 308.522749 
L 177.408 310.311234 
L 180.576 308.244699 
L 186.912 309.432563 
L 190.08 307.304545 
L 193.248 309.251191 
L 196.416 309.731375 
L 199.584 309.926132 
L 202.752 308.924927 
L 205.92 310.918888 
L 209.088 309.970813 
L 212.256 309.962525 
L 215.424 310.146061 
L 218.592 309.866503 
L 221.76 309.168601 
L 224.928 308.588682 
L 228.096 309.943251 
L 231.264 311.037407 
L 234.432 312.521594 
L 237.6 313.019287 
L 240.768 314.696982 
L 243.936 312.719505 
L 247.104 311.225539 
L 250.272 310.946415 
L 253.44 308.706506 
L 256.608 308.706738 
L 259.776 307.992949 
L 262.944 309.431899 
L 266.112 309.830278 
L 269.28 311.326824 
L 272.448 308.597694 
L 275.616 307.85752 
L 278.784 304.332358 
L 281.952 304.615843 
L 285.12 307.071794 
L 288.288 306.233306 
L 291.456 307.513516 
L 294.624 308.145075 
L 297.792 306.242833 
L 300.96 305.534252 
L 304.128 306.708673 
L 307.296 307.183799 
L 310.464 308.535012 
L 313.632 307.646042 
L 316.8 306.21255 
L 319.968 307.700969 
L 323.136 306.425719 
L 326.304 306.440004 
L 329.472 306.250622 
L 332.64 307.08691 
L 335.808 306.36801 
L 338.976 303.790946 
L 342.144 305.12349 
L 345.312 304.836944 
L 348.48 305.087352 
L 351.648 305.171238 
L 354.816 306.38297 
L 357.984 306.664933 
L 361.152 303.683286 
L 364.32 303.587202 
L 367.488 303.33822 
L 370.656 302.559319 
L 373.824 303.540711 
L 376.992 303.870259 
L 380.16 303.564266 
L 383.328 301.980537 
L 386.496 302.586815 
L 389.664 301.089765 
L 392.832 302.301032 
L 396 304.8982 
L 399.168 305.890725 
L 402.336 307.246178 
L 405.504 306.455885 
L 408.672 306.256086 
L 411.84 306.267572 
L 415.008 305.003002 
L 418.176 302.8008 
L 421.344 300.997906 
L 424.512 300.725165 
L 427.68 295.774081 
L 430.848 293.892083 
L 434.016 297.201723 
L 437.184 296.056476 
L 440.352 294.137717 
L 443.52 296.673753 
L 446.688 297.804486 
L 449.856 297.569328 
L 453.024 303.552741 
L 456.192 306.934648 
L 459.36 308.802098 
L 462.528 320.145116 
L 465.696 320.342588 
L 468.864 319.120468 
L 472.032 318.040883 
L 475.2 317.6634 
L 478.368 316.23917 
L 484.704 315.132968 
L 487.872 315.192937 
L 491.04 313.973956 
L 494.208 314.363875 
L 500.544 312.373871 
L 503.712 310.19333 
L 506.88 309.074892 
L 510.048 309.583641 
L 513.216 308.989458 
L 516.384 308.789956 
L 519.552 309.942351 
L 522.72 309.302911 
L 525.888 309.753291 
L 529.056 309.610154 
L 532.224 310.460137 
L 535.392 309.872242 
L 538.56 311.330416 
L 541.728 309.94824 
L 544.896 309.279047 
L 548.064 309.881795 
L 554.4 309.584089 
L 557.568 307.826643 
L 560.736 308.439867 
L 563.904 308.570555 
L 567.072 309.262236 
L 573.408 309.35398 
L 576.576 309.486535 
L 579.744 308.905614 
L 582.912 308.727613 
L 586.08 307.95667 
L 589.248 307.563373 
L 592.416 308.053437 
L 595.584 307.512178 
L 598.752 307.163189 
L 601.92 307.262306 
L 605.088 306.554707 
L 611.424 306.823266 
L 614.592 306.754818 
L 617.76 306.467186 
L 620.928 307.218762 
L 624.096 307.646639 
L 630.432 307.639357 
L 633.6 308.004251 
L 636.768 307.384538 
L 639.936 307.935772 
L 646.272 304.671284 
L 649.44 304.565676 
L 652.608 303.753678 
L 655.776 304.562976 
L 658.944 304.884362 
L 662.112 304.662911 
L 665.28 305.218944 
L 668.448 305.20177 
L 671.616 304.77783 
L 677.952 305.428288 
L 681.12 305.324311 
L 684.288 305.685639 
L 687.456 304.270551 
L 690.624 304.410854 
L 693.792 305.647737 
L 700.128 307.757282 
L 703.296 307.58229 
L 706.464 307.656617 
L 709.632 307.506798 
L 712.8 307.731153 
L 715.968 307.542648 
L 719.136 307.644266 
L 722.304 307.946748 
L 725.472 308.429884 
L 731.808 307.436022 
L 734.976 307.909904 
L 738.144 308.533632 
L 741.312 308.883302 
L 744.48 308.938822 
L 747.648 308.236602 
L 750.816 308.154818 
L 753.984 308.189707 
L 757.152 307.762289 
L 763.488 307.835322 
L 769.824 307.227049 
L 772.992 305.806417 
L 779.328 305.632543 
L 782.496 304.116646 
L 785.664 304.916238 
L 788.832 305.207528 
L 788.832 305.207528 
" clip-path="url(#pdc8c201a8e)" style="fill: none; stroke: #000000; stroke-width: 1.5; stroke-linecap: square"/>
   </g>
   <g id="line2d_6">
    <path d="M 0 306 
L 3.168 306 
L 6.336 311.823481 
L 9.504 310.309595 
L 12.672 316.116117 
L 19.008 307.282908 
L 22.176 304.690621 
L 25.344 308.713208 
L 28.512 309.684922 
L 31.68 308.17625 
L 34.848 308.837768 
L 38.016 305.617828 
L 41.184 301.111286 
L 44.352 302.166958 
L 47.52 302.148114 
L 50.688 304.127426 
L 53.856 301.692138 
L 57.024 301.75587 
L 60.192 303.091119 
L 63.36 304.702919 
L 66.528 306.661293 
L 69.696 307.554612 
L 72.864 305.039969 
L 76.032 305.127053 
L 79.2 303.768574 
L 82.368 304.531532 
L 85.536 304.384382 
L 88.704 305.003318 
L 91.872 306.686428 
L 95.04 308.104132 
L 98.208 307.793498 
L 101.376 307.359472 
L 104.544 307.683454 
L 107.712 308.622585 
L 110.88 309.219288 
L 114.048 308.138342 
L 117.216 307.292735 
L 120.384 307.263472 
L 123.552 306.614525 
L 126.72 306.526052 
L 133.056 302.028067 
L 136.224 302.698012 
L 139.392 302.853281 
L 142.56 294.750503 
L 145.728 295.203083 
L 148.896 299.098063 
L 152.064 300.358681 
L 155.232 301.816821 
L 158.4 302.008308 
L 161.568 304.037362 
L 164.736 304.844732 
L 167.904 305.47135 
L 171.072 306.781748 
L 174.24 306.332948 
L 177.408 307.429272 
L 180.576 306.417646 
L 186.912 307.249303 
L 190.08 306.181388 
L 193.248 307.29789 
L 196.416 307.648801 
L 199.584 307.849259 
L 202.752 307.399725 
L 205.92 308.547309 
L 209.088 308.143298 
L 218.592 308.326457 
L 224.928 307.756722 
L 228.096 308.518932 
L 231.264 309.164477 
L 234.432 310.032123 
L 237.6 310.405759 
L 240.768 311.401812 
L 243.936 310.493567 
L 247.104 309.804079 
L 250.272 309.717958 
L 253.44 308.597643 
L 256.608 308.59663 
L 259.776 308.226465 
L 262.944 308.971083 
L 266.112 309.202003 
L 269.28 310.01436 
L 272.448 308.649751 
L 275.616 308.255456 
L 278.784 306.40372 
L 281.952 306.457919 
L 285.12 307.655624 
L 288.288 307.194463 
L 291.456 307.818098 
L 294.624 308.136494 
L 297.792 307.156025 
L 300.96 306.749541 
L 304.128 307.303352 
L 307.296 307.524273 
L 310.464 308.210118 
L 313.632 307.767311 
L 316.8 307.019874 
L 319.968 307.749862 
L 323.136 307.090804 
L 329.472 306.943074 
L 332.64 307.336051 
L 335.808 306.948027 
L 338.976 305.600543 
L 342.144 306.207859 
L 345.312 305.986572 
L 351.648 306.07869 
L 354.816 306.66467 
L 357.984 306.801237 
L 361.152 305.267147 
L 367.488 304.965505 
L 370.656 304.499669 
L 373.824 304.924469 
L 376.992 305.033066 
L 380.16 304.831257 
L 383.328 303.964053 
L 386.496 304.191854 
L 389.664 303.360128 
L 392.832 303.879854 
L 396 305.144815 
L 399.168 305.643187 
L 402.336 306.34728 
L 405.504 305.98028 
L 411.84 305.920723 
L 415.008 305.289847 
L 418.176 304.149399 
L 421.344 303.172911 
L 424.512 302.943634 
L 427.68 300.32108 
L 430.848 299.164736 
L 434.016 300.634198 
L 437.184 299.908532 
L 440.352 298.764974 
L 443.52 299.874253 
L 446.688 300.32153 
L 449.856 300.091693 
L 453.024 303.042592 
L 456.192 304.784861 
L 459.36 305.835702 
L 462.528 311.759846 
L 465.696 312.217649 
L 472.032 311.687158 
L 475.2 311.75681 
L 478.368 311.284015 
L 484.704 311.11639 
L 487.872 311.320404 
L 491.04 310.86077 
L 494.208 311.193214 
L 500.544 310.408248 
L 503.712 309.376733 
L 506.88 308.843244 
L 510.048 309.112833 
L 513.216 308.829048 
L 516.384 308.730329 
L 519.552 309.321761 
L 522.72 309.026707 
L 525.888 309.266106 
L 529.056 309.215597 
L 532.224 309.666419 
L 535.392 309.408761 
L 538.56 310.17964 
L 541.728 309.515693 
L 544.896 309.194506 
L 548.064 309.532959 
L 554.4 309.39645 
L 557.568 308.505777 
L 560.736 308.786774 
L 563.904 308.833016 
L 567.072 309.168247 
L 576.576 309.286223 
L 579.744 308.999676 
L 582.912 308.899838 
L 586.08 308.498541 
L 589.248 308.273657 
L 592.416 308.488679 
L 598.752 307.992102 
L 601.92 308.007895 
L 605.088 307.616514 
L 614.592 307.593922 
L 617.76 307.4083 
L 620.928 307.746725 
L 624.096 307.938661 
L 630.432 307.900716 
L 633.6 308.067442 
L 636.768 307.749971 
L 639.936 308.008541 
L 646.272 306.29333 
L 649.44 306.173852 
L 652.608 305.690894 
L 655.776 306.032431 
L 658.944 306.144274 
L 662.112 305.981187 
L 665.28 306.23343 
L 668.448 306.181188 
L 671.616 305.921663 
L 677.952 306.167562 
L 681.12 306.083257 
L 684.288 306.242996 
L 687.456 305.496672 
L 690.624 305.513334 
L 700.128 307.159337 
L 703.296 307.097956 
L 706.464 307.154533 
L 709.632 307.095496 
L 712.8 307.228001 
L 715.968 307.149553 
L 722.304 307.397441 
L 725.472 307.663929 
L 731.808 307.213307 
L 741.312 308.017148 
L 744.48 308.085414 
L 747.648 307.759905 
L 753.984 307.776368 
L 757.152 307.575767 
L 763.488 307.62568 
L 769.824 307.335189 
L 772.992 306.606346 
L 779.328 306.450258 
L 782.496 305.640389 
L 785.664 305.98532 
L 788.832 306.091272 
L 788.832 306.091272 
" clip-path="url(#pdc8c201a8e)" style="fill: none; stroke: #000000; stroke-width: 1.5; stroke-linecap: square"/>
   </g>
   <g id="line2d_7">
    <path d="M 0 306 
L 3.168 306 
L 6.336 311.761779 
L 9.504 310.300648 
L 12.672 315.92889 
L 19.008 307.535377 
L 22.176 305.060894 
L 25.344 308.753703 
L 28.512 309.644054 
L 31.68 308.272044 
L 34.848 308.860158 
L 38.016 305.975765 
L 41.184 301.948014 
L 44.352 302.807062 
L 47.52 302.741211 
L 50.688 304.405606 
L 53.856 302.303686 
L 57.024 302.317124 
L 60.192 303.403537 
L 63.36 304.727355 
L 66.528 306.343761 
L 69.696 307.09356 
L 72.864 305.075543 
L 76.032 305.143846 
L 79.2 304.05688 
L 82.368 304.647713 
L 85.536 304.526278 
L 88.704 305.002979 
L 91.872 306.307555 
L 95.04 307.415214 
L 101.376 306.904212 
L 104.544 307.16718 
L 107.712 307.890338 
L 110.88 308.362767 
L 114.048 307.599816 
L 117.216 307.001599 
L 120.384 306.991437 
L 123.552 306.532747 
L 126.72 306.472254 
L 133.056 303.253746 
L 136.224 303.682446 
L 139.392 303.756852 
L 142.56 298.083657 
L 145.728 298.283787 
L 148.896 300.861284 
L 152.064 301.665383 
L 155.232 302.614604 
L 158.4 302.718313 
L 161.568 304.060869 
L 164.736 304.600475 
L 167.904 305.025318 
L 171.072 305.907091 
L 174.24 305.638267 
L 177.408 306.37829 
L 180.576 305.750003 
L 186.912 306.332261 
L 190.08 305.672384 
L 193.248 306.402107 
L 199.584 306.807643 
L 202.752 306.553395 
L 205.92 307.299328 
L 209.088 307.081399 
L 218.592 307.285185 
L 224.928 306.987625 
L 234.432 308.457177 
L 237.6 308.725275 
L 240.768 309.370449 
L 243.936 308.87838 
L 247.104 308.507977 
L 250.272 308.49048 
L 253.44 307.856075 
L 256.608 307.874689 
L 259.776 307.674548 
L 262.944 308.127421 
L 266.112 308.284633 
L 269.28 308.783739 
L 272.448 308.018153 
L 275.616 307.804551 
L 278.784 306.740879 
L 281.952 306.763802 
L 285.12 307.447667 
L 288.288 307.187299 
L 291.456 307.545638 
L 294.624 307.734765 
L 297.792 307.184433 
L 300.96 306.95205 
L 304.128 307.261982 
L 307.296 307.388307 
L 310.464 307.77975 
L 313.632 307.540176 
L 316.8 307.124605 
L 319.968 307.532409 
L 323.136 307.167982 
L 329.472 307.081542 
L 332.64 307.297281 
L 335.808 307.082352 
L 338.976 306.331041 
L 342.144 306.65025 
L 345.312 306.517393 
L 351.648 306.544332 
L 354.816 306.855725 
L 357.984 306.926237 
L 361.152 306.082333 
L 367.488 305.878651 
L 370.656 305.603279 
L 373.824 305.80901 
L 376.992 305.847554 
L 380.16 305.71912 
L 383.328 305.228414 
L 386.496 305.322577 
L 389.664 304.84687 
L 392.832 305.093275 
L 396 305.747401 
L 399.168 306.001913 
L 402.336 306.372289 
L 405.504 306.174637 
L 411.84 306.134129 
L 415.008 305.792041 
L 421.344 304.629132 
L 424.512 304.472598 
L 427.68 303.041495 
L 430.848 302.368175 
L 434.016 303.077411 
L 437.184 302.637189 
L 440.352 301.971198 
L 443.52 302.484105 
L 446.688 302.658271 
L 449.856 302.485499 
L 453.024 303.98801 
L 456.192 304.886486 
L 459.36 305.434482 
L 462.528 308.557718 
L 465.696 308.870482 
L 472.032 308.739837 
L 475.2 308.84273 
L 478.368 308.656544 
L 484.704 308.681029 
L 487.872 308.842083 
L 491.04 308.656519 
L 494.208 308.879053 
L 500.544 308.571336 
L 503.712 308.074837 
L 506.88 307.825574 
L 510.048 307.988454 
L 516.384 307.838314 
L 519.552 308.162852 
L 522.72 308.034091 
L 525.888 308.179695 
L 529.056 308.176241 
L 532.224 308.431846 
L 535.392 308.321744 
L 538.56 308.739574 
L 541.728 308.428932 
L 544.896 308.286776 
L 548.064 308.466611 
L 554.4 308.447188 
L 557.568 308.010783 
L 560.736 308.168114 
L 563.904 308.205188 
L 567.072 308.394329 
L 579.744 308.37779 
L 582.912 308.341936 
L 589.248 308.03935 
L 592.416 308.155283 
L 598.752 307.912149 
L 601.92 307.922571 
L 605.088 307.72454 
L 614.592 307.707418 
L 617.76 307.610305 
L 624.096 307.876389 
L 639.936 307.920917 
L 646.272 307.044843 
L 649.44 306.966363 
L 652.608 306.702241 
L 655.776 306.854411 
L 658.944 306.891681 
L 662.112 306.792695 
L 665.28 306.90297 
L 681.12 306.751678 
L 684.288 306.814968 
L 687.456 306.423543 
L 690.624 306.414386 
L 700.128 307.212403 
L 709.632 307.174468 
L 715.968 307.201746 
L 722.304 307.323782 
L 725.472 307.461881 
L 731.808 307.238451 
L 744.48 307.692444 
L 747.648 307.537032 
L 766.656 307.425324 
L 769.824 307.343132 
L 772.992 306.973604 
L 779.328 306.877539 
L 782.496 306.458761 
L 785.664 306.615157 
L 788.832 306.653375 
L 788.832 306.653375 
" clip-path="url(#pdc8c201a8e)" style="fill: none; stroke: #000000; stroke-width: 1.5; stroke-linecap: square"/>
   </g>
   <g id="line2d_8">
    <path d="M 0 306 
L 3.168 306 
L 6.336 311.730921 
L 9.504 310.295755 
L 12.672 315.835809 
L 19.008 307.657805 
L 22.176 305.242681 
L 25.344 308.777816 
L 28.512 309.628622 
L 31.68 308.3216 
L 34.848 308.87494 
L 38.016 306.150345 
L 41.184 302.352335 
L 44.352 303.124341 
L 47.52 303.040303 
L 50.688 304.560356 
L 53.856 302.614803 
L 57.024 302.608196 
L 60.192 303.582072 
L 63.36 304.773581 
L 66.528 306.230991 
L 69.696 306.910669 
L 72.864 305.114346 
L 76.032 305.173334 
L 79.2 304.208753 
L 82.368 304.723227 
L 85.536 304.613405 
L 88.704 305.026413 
L 91.872 306.160346 
L 95.04 307.125254 
L 101.376 306.706084 
L 104.544 306.937852 
L 107.712 307.560965 
L 110.88 307.972275 
L 114.048 307.342047 
L 117.216 306.848289 
L 120.384 306.84469 
L 123.552 306.467545 
L 126.72 306.419414 
L 133.056 303.763871 
L 136.224 304.099904 
L 139.392 304.148672 
L 142.56 299.533524 
L 145.728 299.655489 
L 148.896 301.693293 
L 152.064 302.31581 
L 155.232 303.056685 
L 158.4 303.127768 
L 161.568 304.180781 
L 167.904 304.937295 
L 171.072 305.629698 
L 174.24 305.426729 
L 177.408 306.006597 
L 180.576 305.529085 
L 186.912 305.988653 
L 190.08 305.491468 
L 193.248 306.051811 
L 199.584 306.375897 
L 202.752 306.193479 
L 205.92 306.761614 
L 209.088 306.609796 
L 218.592 306.791729 
L 224.928 306.59126 
L 234.432 307.695191 
L 237.6 307.904551 
L 240.768 308.387072 
L 247.104 307.800384 
L 250.272 307.801106 
L 253.44 307.360899 
L 256.608 307.383281 
L 259.776 307.250264 
L 262.944 307.5783 
L 266.112 307.699056 
L 269.28 308.060386 
L 272.448 307.536729 
L 275.616 307.395994 
L 278.784 306.662274 
L 281.952 306.679562 
L 285.12 307.154512 
L 288.288 306.979808 
L 291.456 307.230002 
L 294.624 307.36516 
L 297.792 306.99478 
L 300.96 306.839386 
L 304.128 307.052155 
L 307.296 307.141346 
L 310.464 307.410279 
L 313.632 307.254674 
L 316.8 306.979681 
L 319.968 307.255696 
L 323.136 307.016257 
L 329.472 306.96342 
L 332.64 307.10853 
L 335.808 306.969182 
L 338.976 306.474733 
L 342.144 306.682777 
L 348.48 306.614219 
L 351.648 306.610423 
L 354.816 306.81249 
L 357.984 306.859021 
L 361.152 306.312382 
L 367.488 306.173403 
L 370.656 305.991565 
L 376.992 306.138124 
L 380.16 306.051654 
L 383.328 305.733539 
L 386.496 305.786084 
L 389.664 305.477045 
L 392.832 305.624068 
L 396 306.030118 
L 402.336 306.417242 
L 408.672 306.261893 
L 411.84 306.263403 
L 415.008 306.047978 
L 421.344 305.313647 
L 424.512 305.20689 
L 427.68 304.310409 
L 430.848 303.876561 
L 434.016 304.292974 
L 437.184 304.005124 
L 440.352 303.577049 
L 443.52 303.869361 
L 446.688 303.956875 
L 449.856 303.833538 
L 453.024 304.730985 
L 456.192 305.267483 
L 459.36 305.595073 
L 462.528 307.485989 
L 465.696 307.689718 
L 472.032 307.642089 
L 475.2 307.718733 
L 478.368 307.621929 
L 497.376 307.750291 
L 500.544 307.666841 
L 503.712 307.384499 
L 506.88 307.246071 
L 510.048 307.349838 
L 516.384 307.277194 
L 519.552 307.47524 
L 522.72 307.408567 
L 532.224 307.666588 
L 535.392 307.612179 
L 538.56 307.864639 
L 544.896 307.621942 
L 551.232 307.743024 
L 554.4 307.741908 
L 557.568 307.49883 
L 567.072 307.740653 
L 582.912 307.751681 
L 589.248 307.592682 
L 592.416 307.664197 
L 605.088 307.440428 
L 639.936 307.590113 
L 646.272 307.106846 
L 662.112 306.958812 
L 668.448 306.994722 
L 674.784 306.93001 
L 684.288 306.957879 
L 687.456 306.740643 
L 690.624 306.731834 
L 700.128 307.163226 
L 715.968 307.15995 
L 763.488 307.341341 
L 769.824 307.265731 
L 772.992 307.067643 
L 779.328 307.013474 
L 782.496 306.786875 
L 788.832 306.884659 
L 788.832 306.884659 
" clip-path="url(#pdc8c201a8e)" style="fill: none; stroke: #000000; stroke-width: 1.5; stroke-linecap: square"/>
   </g>
   <g id="line2d_9">
    <path d="M 0 306 
L 3.168 306 
L 6.336 311.715492 
L 9.504 310.293204 
L 12.672 315.789407 
L 19.008 307.718044 
L 22.176 305.332676 
L 25.344 308.790774 
L 28.512 309.622122 
L 31.68 308.346769 
L 34.848 308.883214 
L 38.016 306.236477 
L 41.184 302.550758 
L 44.352 303.281927 
L 47.52 303.190038 
L 50.688 304.641221 
L 53.856 302.77121 
L 57.024 302.755797 
L 60.192 303.676426 
L 63.36 304.804882 
L 66.528 306.186124 
L 69.696 306.831529 
L 72.864 305.139456 
L 76.032 305.193886 
L 79.2 304.287047 
L 82.368 304.765821 
L 85.536 304.661499 
L 88.704 305.044648 
L 91.872 306.098353 
L 95.04 306.995569 
L 101.376 306.61667 
L 104.544 306.833003 
L 107.712 307.408637 
L 110.88 307.790225 
L 114.048 307.219804 
L 117.216 306.77329 
L 120.384 306.772194 
L 123.552 306.432083 
L 126.72 306.389505 
L 133.056 303.992833 
L 136.224 304.288829 
L 139.392 304.327733 
L 142.56 300.195855 
L 145.728 300.288454 
L 148.896 302.087088 
L 155.232 303.279608 
L 158.4 303.337356 
L 161.568 304.261135 
L 167.904 304.923566 
L 171.072 305.53012 
L 174.24 305.3549 
L 177.408 305.861772 
L 180.576 305.449492 
L 186.912 305.85147 
L 190.08 305.424759 
L 193.248 305.908871 
L 199.584 306.193095 
L 202.752 306.04034 
L 205.92 306.528287 
L 209.088 306.403124 
L 218.592 306.568919 
L 224.928 306.407017 
L 234.432 307.34485 
L 237.6 307.525412 
L 240.768 307.933698 
L 247.104 307.45944 
L 250.272 307.465328 
L 253.44 307.106677 
L 256.608 307.129002 
L 259.776 307.023367 
L 262.944 307.296137 
L 266.112 307.399265 
L 269.28 307.699137 
L 272.448 307.277043 
L 275.616 307.166167 
L 278.784 306.573176 
L 281.952 306.588454 
L 285.12 306.97411 
L 288.288 306.835516 
L 294.624 307.150474 
L 297.792 306.856073 
L 300.96 306.733453 
L 310.464 307.194352 
L 316.8 306.857758 
L 319.968 307.077787 
L 323.136 306.89091 
L 335.808 306.860302 
L 338.976 306.47487 
L 342.144 306.63729 
L 348.48 306.584699 
L 351.648 306.582106 
L 354.816 306.738987 
L 357.984 306.775834 
L 361.152 306.354927 
L 367.488 306.246864 
L 370.656 306.106473 
L 376.992 306.216436 
L 380.16 306.149564 
L 383.328 305.906151 
L 386.496 305.944173 
L 389.664 305.707883 
L 392.832 305.816707 
L 396 306.121622 
L 402.336 306.411926 
L 408.672 306.294922 
L 411.84 306.2957 
L 415.008 306.134221 
L 421.344 305.583537 
L 424.512 305.501283 
L 427.68 304.832389 
L 430.848 304.505318 
L 434.016 304.807031 
L 440.352 304.267394 
L 443.52 304.475601 
L 446.688 304.533794 
L 449.856 304.437488 
L 453.024 305.088803 
L 456.192 305.477537 
L 459.36 305.714588 
L 462.528 307.091414 
L 465.696 307.243516 
L 484.704 307.249816 
L 487.872 307.33269 
L 491.04 307.267567 
L 494.208 307.375711 
L 500.544 307.272398 
L 506.88 306.978999 
L 510.048 307.055258 
L 516.384 307.008944 
L 519.552 307.151549 
L 522.72 307.107402 
L 532.224 307.297698 
L 535.392 307.262818 
L 538.56 307.44294 
L 544.896 307.280181 
L 551.232 307.371001 
L 554.4 307.373506 
L 557.568 307.207888 
L 570.24 307.400205 
L 582.912 307.406865 
L 589.248 307.303504 
L 595.584 307.306063 
L 617.76 307.185302 
L 627.264 307.300104 
L 643.104 307.183186 
L 646.272 307.014716 
L 662.112 306.918652 
L 668.448 306.943243 
L 674.784 306.90108 
L 684.288 306.920149 
L 687.456 306.777901 
L 693.792 306.86879 
L 703.296 307.043106 
L 766.656 307.170029 
L 779.328 306.985117 
L 782.496 306.841898 
L 788.832 306.903123 
L 788.832 306.903123 
" clip-path="url(#pdc8c201a8e)" style="fill: none; stroke: #000000; stroke-width: 1.5; stroke-linecap: square"/>
   </g>
  </g>
 </g>
 <defs>
  <clipPath id="pdc8c201a8e">
   <rect x="0" y="0" width="792" height="612"/>
  </clipPath>
 </defs>
</svg>
