<?xml version="1.0" encoding="utf-8" standalone="no"?>
<!DOCTYPE svg PUBLIC "-//W3C//DTD SVG 1.1//EN"
  "http://www.w3.org/Graphics/SVG/1.1/DTD/svg11.dtd">
<svg xmlns:xlink="http://www.w3.org/1999/xlink" width="792pt" height="612pt" viewBox="0 0 792 612" xmlns="http://www.w3.org/2000/svg" version="1.1">
 <metadata>
  <rdf:RDF xmlns:dc="http://purl.org/dc/elements/1.1/" xmlns:cc="http://creativecommons.org/ns#" xmlns:rdf="http://www.w3.org/1999/02/22-rdf-syntax-ns#">
   <cc:Work>
    <dc:type rdf:resource="http://purl.org/dc/dcmitype/StillImage"/>
    <dc:date>2022-12-19T20:28:39.934777</dc:date>
    <dc:format>image/svg+xml</dc:format>
    <dc:creator>
     <cc:Agent>
      <dc:title>Matplotlib v3.6.2, https://matplotlib.org/</dc:title>
     </cc:Agent>
    </dc:creator>
   </cc:Work>
  </rdf:RDF>
 </metadata>
 <defs>
  <style type="text/css">*{stroke-linejoin: round; stroke-linecap: butt}</style>
 </defs>
 <g id="figure_1">
  <g id="patch_1">
   <path d="M 0 612 
L 792 612 
L 792 0 
L 0 0 
z
" style="fill: #ffffff"/>
  </g>
  <g id="axes_1">
   <g id="line2d_1">
    <path d="M 0 459 
L 3.155378 434.138813 
L 6.310757 430.989239 
L 9.466135 435.12355 
L 12.621514 345.283697 
L 18.932271 323.698728 
L 22.087649 353.477948 
L 25.243028 356.475698 
L 28.398406 353.10389 
L 31.553785 371.598039 
L 34.709163 367.228527 
L 37.864542 348.626916 
L 41.01992 381.536559 
L 44.175299 394.645324 
L 47.330677 414.699858 
L 50.486056 462.225904 
L 53.641434 464.135112 
L 56.796813 460.645869 
L 59.952191 462.028399 
L 63.10757 461.962565 
L 66.262948 462.423408 
L 69.418327 475.98537 
L 72.573705 476.577883 
L 75.729084 487.967298 
L 78.884462 491.390706 
L 82.039841 493.036575 
L 85.195219 493.694923 
L 88.350598 502.450947 
L 91.505976 506.532702 
L 94.661355 507.05938 
L 97.816733 516.407917 
L 100.972112 512.85284 
L 104.12749 506.269363 
L 107.282869 501.002582 
L 110.438247 510.482788 
L 113.593625 514.103701 
L 116.749004 510.943632 
L 119.904382 513.840361 
L 123.059761 503.833477 
L 126.215139 487.30895 
L 129.370518 489.613167 
L 132.525896 488.164802 
L 135.681275 495.143287 
L 138.836653 483.753873 
L 141.992032 482.503012 
L 145.14741 487.30895 
L 148.302789 494.155766 
L 151.458167 503.570138 
L 154.613546 508.44191 
L 157.768924 495.604131 
L 160.924303 495.7358 
L 164.079681 487.835628 
L 167.23506 491.390706 
L 170.390438 490.008176 
L 173.545817 493.10241 
L 176.701195 502.91179 
L 179.856574 511.865318 
L 183.011952 510.680293 
L 186.167331 508.57358 
L 189.322709 511.141136 
L 192.478088 517.856282 
L 195.633466 522.728055 
L 198.788845 516.671256 
L 201.944223 511.733649 
L 205.099602 511.996988 
L 208.25498 507.981067 
L 211.410359 507.586059 
L 217.721116 475.458692 
L 220.876494 478.816265 
L 224.031873 478.75043 
L 227.187251 341.399483 
L 230.342629 339.372024 
L 233.498008 410.985246 
L 236.653386 431.382797 
L 239.808765 457.814977 
L 242.964143 457.617474 
L 246.119522 472.364458 
L 249.2749 477.762909 
L 252.430279 482.108003 
L 255.585657 491.917384 
L 258.741036 488.757315 
L 261.896414 497.315835 
L 265.051793 490.008176 
L 268.207171 493.365749 
L 271.36255 496.920826 
L 274.517928 489.020654 
L 277.673307 497.842513 
L 280.828685 501.068417 
L 283.984064 503.240964 
L 287.139442 500.344234 
L 290.294821 509.95611 
L 293.450199 507.651893 
L 296.605578 509.034423 
L 299.760956 511.272806 
L 302.916335 511.536145 
L 306.071713 509.890275 
L 309.227092 508.507745 
L 312.38247 515.288726 
L 315.537849 521.41136 
L 318.693227 529.574871 
L 321.848606 534.051635 
L 325.003984 543.729346 
L 328.159363 538.26506 
L 331.314741 534.249139 
L 334.47012 534.907487 
L 337.625498 527.07315 
L 340.780876 527.994836 
L 343.936255 525.888124 
L 347.091633 532.800775 
L 350.247012 535.763339 
L 353.40239 543.597676 
L 356.557769 533.788296 
L 359.713147 531.484079 
L 362.868526 517.00043 
L 366.023904 517.592943 
L 369.179283 527.665663 
L 372.334661 524.439759 
L 375.49004 530.035714 
L 378.645418 533.327453 
L 381.800797 525.953959 
L 384.956175 522.991394 
L 388.111554 527.863167 
L 391.266932 530.167384 
L 394.422311 536.421687 
L 397.577689 533.524957 
L 400.733068 527.929002 
L 403.888446 534.380809 
L 407.043825 529.509036 
L 410.199203 529.70654 
L 413.354582 529.048193 
L 416.50996 532.669105 
L 419.665339 529.904045 
L 422.820717 518.975473 
L 425.976096 523.913081 
L 429.131474 522.135542 
L 432.286853 522.79389 
L 435.442231 522.925559 
L 438.59761 527.863167 
L 441.752988 529.245697 
L 444.908367 516.671256 
L 448.063745 515.486231 
L 451.219124 513.577022 
L 454.374502 509.297762 
L 457.52988 512.326162 
L 460.685259 512.85284 
L 463.840637 510.811962 
L 466.996016 503.109294 
L 470.151394 504.29432 
L 473.306773 496.657487 
L 476.462151 500.080895 
L 479.61753 509.95611 
L 482.772908 513.840361 
L 485.928287 519.633821 
L 489.083665 516.671256 
L 492.239044 516.012909 
L 495.394422 516.144578 
L 498.549801 510.811962 
L 501.705179 501.002582 
L 504.860558 492.114888 
L 508.015936 489.152324 
L 511.171315 465.978485 
L 514.326693 444.784238 
L 517.482072 464.200947 
L 520.63745 450.508284 
L 523.792829 415.286925 
L 526.948207 435.320525 
L 530.103586 439.8532 
L 533.258964 428.03891 
L 536.414343 471.376936 
L 539.569721 485.004733 
L 542.7251 493.365749 
L 545.880478 543.136833 
L 549.035857 549.061962 
L 552.191235 548.930293 
L 555.346614 548.996127 
L 558.501992 551.629518 
L 561.657371 549.654475 
L 564.812749 550.97117 
L 567.968127 551.958692 
L 571.123506 555.513769 
L 574.278884 553.538726 
L 577.434263 558.081325 
L 580.589641 556.76463 
L 583.74502 555.118761 
L 586.900398 548.008606 
L 590.055777 544.716867 
L 593.211155 548.008606 
L 596.366534 546.757745 
L 599.521912 546.95525 
L 602.677291 552.880379 
L 605.832669 551.563683 
L 608.988048 554.657917 
L 612.143426 555.3821 
L 615.298805 560.319707 
L 618.454183 559.398021 
L 621.609562 567.034854 
L 624.76494 562.953098 
L 627.920319 561.504733 
L 631.075697 565.257315 
L 634.231076 566.113167 
L 637.386454 566.70568 
L 640.541833 560.451377 
L 643.697211 563.743115 
L 646.85259 565.125645 
L 650.007968 569.009897 
L 653.163347 570.194923 
L 656.318725 571.709122 
L 659.474104 573.486661 
L 662.629482 572.2358 
L 665.784861 572.499139 
L 668.940239 570.129088 
L 672.095618 569.141566 
L 675.250996 571.774957 
L 678.406375 570.194923 
L 681.561753 569.273236 
L 684.717131 570.129088 
L 687.87251 567.561532 
L 691.027888 568.285714 
L 694.183267 569.141566 
L 697.338645 569.141566 
L 700.494024 568.154045 
L 703.649402 571.511618 
L 706.804781 573.75 
L 709.960159 574.474182 
L 713.115538 574.803356 
L 716.270916 576.910069 
L 719.426295 575.000861 
L 722.581673 577.831756 
L 725.737052 571.643287 
L 728.89243 564.598967 
L 732.047809 563.677281 
L 735.203187 559.66136 
L 738.358566 562.42642 
L 741.513944 563.348107 
L 744.669323 562.031411 
L 747.824701 564.138124 
L 750.98008 563.80895 
L 754.135458 561.702238 
L 757.290837 562.55809 
L 760.446215 563.743115 
L 763.601594 563.084768 
L 766.756972 564.401463 
L 769.912351 558.212995 
L 773.067729 558.212995 
L 779.378486 567.561532 
L 782.533865 572.169966 
L 785.689243 572.038296 
L 788.844622 572.894148 
L 788.844622 572.894148 
" clip-path="url(#p5bee6ceff5)" style="fill: none; stroke: #000000; stroke-width: 1.5; stroke-linecap: square"/>
   </g>
   <g id="line2d_2">
    <path d="M 0 459 
L 3.155378 459 
L 6.310757 442.416859 
L 9.466135 435.883356 
L 12.621514 435.47811 
L 15.776892 388.237829 
L 18.932271 360.642542 
L 22.087649 341.822432 
L 25.243028 347.653969 
L 28.398406 351.861036 
L 31.553785 352.328378 
L 34.709163 361.805235 
L 37.864542 364.383647 
L 41.01992 356.480113 
L 47.330677 381.918868 
L 50.486056 398.351868 
L 53.641434 433.585915 
L 56.796813 454.224441 
L 59.952191 459.088038 
L 63.10757 460.624957 
L 66.262948 461.37315 
L 69.418327 461.95611 
L 72.573705 469.046386 
L 75.729084 472.875645 
L 78.884462 480.471945 
L 82.039841 485.984768 
L 85.195219 489.574182 
L 88.350598 491.696644 
L 91.505976 497.153184 
L 94.661355 501.929432 
L 97.816733 504.555336 
L 100.972112 510.559725 
L 104.12749 511.755077 
L 107.282869 509.041394 
L 110.438247 505.037608 
L 113.593625 507.793115 
L 116.749004 510.971256 
L 119.904382 510.966093 
L 123.059761 512.416523 
L 126.215139 508.100344 
L 129.370518 497.654561 
L 132.525896 493.601205 
L 135.681275 490.857831 
L 138.836653 492.970482 
L 141.992032 488.302668 
L 145.14741 485.347074 
L 148.302789 486.27599 
L 151.458167 490.196902 
L 154.613546 496.915404 
L 157.768924 502.715577 
L 160.924303 499.174441 
L 164.079681 497.456282 
L 167.23506 492.653959 
L 170.390438 492.039759 
L 173.545817 491.02926 
L 176.701195 492.063769 
L 179.856574 497.486489 
L 183.011952 504.682616 
L 186.167331 507.711015 
L 189.322709 508.16747 
L 192.478088 509.7 
L 195.633466 513.830034 
L 198.788845 518.343201 
L 201.944223 517.553442 
L 205.099602 514.660843 
L 208.25498 513.329174 
L 211.410359 510.649828 
L 214.565737 509.116007 
L 217.721116 500.412909 
L 220.876494 487.852668 
L 224.031873 483.248365 
L 227.187251 480.925043 
L 230.342629 431.235401 
L 233.498008 384.000902 
L 236.653386 397.063217 
L 239.808765 413.822985 
L 242.964143 435.57081 
L 246.119522 446.487524 
L 249.2749 463.583649 
L 252.430279 470.671343 
L 255.585657 476.513597 
L 258.741036 484.360069 
L 261.896414 486.648537 
L 265.051793 492.075387 
L 268.207171 491.103356 
L 271.36255 492.30284 
L 274.517928 494.659983 
L 277.673307 491.862392 
L 283.984064 497.993804 
L 287.139442 500.645783 
L 290.294821 500.500947 
L 293.450199 505.267642 
L 299.760956 507.784854 
L 302.916335 509.572461 
L 306.071713 510.581153 
L 309.227092 510.253012 
L 312.38247 509.390706 
L 315.537849 512.369019 
L 318.693227 516.912651 
L 321.848606 523.286747 
L 325.003984 528.718244 
L 328.159363 536.287435 
L 331.314741 537.328657 
L 334.47012 535.836661 
L 337.625498 535.423838 
L 340.780876 531.271601 
L 343.936255 529.646127 
L 347.091633 527.759897 
L 350.247012 530.277883 
L 353.40239 533.004991 
L 356.557769 538.31179 
L 362.868526 533.759897 
L 366.023904 525.360413 
L 369.179283 521.456282 
L 372.334661 524.564458 
L 375.49004 524.485714 
L 378.645418 527.249484 
L 381.800797 530.26833 
L 384.956175 528.095783 
L 388.111554 525.526936 
L 391.266932 526.716351 
L 394.422311 528.466523 
L 397.577689 532.461274 
L 400.733068 533.010929 
L 403.888446 530.465835 
L 407.043825 532.425387 
L 410.199203 530.974182 
L 416.50996 529.703184 
L 419.665339 531.19105 
L 422.820717 530.534768 
L 425.976096 524.726592 
L 429.131474 524.311962 
L 432.286853 523.199742 
L 435.442231 522.983649 
L 438.59761 522.941308 
L 441.752988 525.399914 
L 444.908367 527.316093 
L 448.063745 521.967728 
L 451.219124 518.720138 
L 454.374502 516.128313 
L 457.52988 512.687866 
L 460.685259 512.486489 
L 463.840637 512.649914 
L 466.996016 511.697504 
L 470.151394 507.352151 
L 473.306773 505.798967 
L 476.462151 501.191308 
L 479.61753 500.609639 
L 482.772908 505.284165 
L 485.928287 509.565232 
L 489.083665 514.612823 
L 492.239044 515.653528 
L 498.549801 516.024785 
L 501.705179 513.446127 
L 504.860558 507.226162 
L 508.015936 499.635542 
L 511.171315 494.345525 
L 514.326693 480.056799 
L 517.482072 467.035972 
L 520.63745 465.516867 
L 523.792829 460.725387 
L 526.948207 439.286489 
L 530.103586 437.01022 
L 533.258964 438.199626 
L 536.414343 432.878685 
L 539.569721 460.840792 
L 542.7251 472.983046 
L 545.880478 483.231583 
L 549.035857 513.354733 
L 552.191235 531.413597 
L 555.346614 540.363769 
L 558.501992 544.868933 
L 561.657371 548.451119 
L 564.812749 549.206282 
L 571.123506 551.20327 
L 574.278884 553.382788 
L 577.434263 553.469535 
L 580.589641 555.793373 
L 583.74502 556.294234 
L 586.900398 555.713339 
L 590.055777 551.857745 
L 593.211155 548.275043 
L 596.366534 548.134079 
L 599.521912 547.428744 
L 602.677291 547.179088 
L 605.832669 550.019535 
L 608.988048 550.781411 
L 612.143426 552.718761 
L 615.298805 554.064888 
L 618.454183 557.222892 
L 621.609562 558.332788 
L 624.76494 562.72358 
L 627.920319 562.869707 
L 631.075697 562.204131 
L 634.231076 563.757573 
L 637.386454 564.957831 
L 640.541833 565.853959 
L 643.697211 563.152926 
L 646.85259 563.45654 
L 650.007968 564.287349 
L 653.163347 566.660499 
L 656.318725 568.44475 
L 662.629482 571.802582 
L 668.940239 572.28821 
L 675.250996 570.189243 
L 678.406375 570.987522 
L 681.561753 570.591222 
L 684.717131 569.927453 
L 687.87251 570.021687 
L 691.027888 568.782444 
L 694.183267 568.525818 
L 697.338645 568.831756 
L 700.494024 568.986661 
L 703.649402 568.563253 
L 706.804781 570.040017 
L 709.960159 571.903787 
L 713.115538 573.197504 
L 716.270916 574.01463 
L 719.426295 575.47926 
L 722.581673 575.251549 
L 725.737052 576.558692 
L 728.89243 574.107831 
L 732.047809 569.339845 
L 735.203187 566.488812 
L 738.358566 563.046041 
L 741.513944 562.711962 
L 744.669323 563.003442 
L 747.824701 562.491997 
L 750.98008 563.28821 
L 754.135458 563.533219 
L 757.290837 562.612048 
L 760.446215 562.582874 
L 763.601594 563.170998 
L 766.756972 563.129174 
L 769.912351 563.767384 
L 773.067729 560.982702 
L 776.223108 559.586231 
L 779.378486 561.267986 
L 782.533865 564.426248 
L 785.689243 568.316954 
L 788.844622 570.19389 
L 788.844622 570.19389 
" clip-path="url(#p5bee6ceff5)" style="fill: none; stroke: #000000; stroke-width: 1.5; stroke-linecap: square"/>
   </g>
   <g id="line2d_3">
    <path d="M 0 459 
L 3.155378 459 
L 6.310757 444.427286 
L 9.466135 438.334263 
L 12.621514 437.080143 
L 15.776892 403.817814 
L 18.932271 380.191121 
L 22.087649 361.675569 
L 25.243028 359.107199 
L 28.398406 358.300071 
L 31.553785 356.726118 
L 34.709163 361.158396 
L 37.864542 362.960882 
L 41.01992 358.69374 
L 44.175299 365.388543 
L 47.330677 373.934844 
L 50.486056 385.808722 
L 53.641434 409.835466 
L 56.796813 428.704057 
L 59.952191 439.043009 
L 63.10757 447.580608 
L 66.262948 453.670587 
L 69.418327 458.39779 
L 72.573705 463.905853 
L 75.729084 467.678731 
L 78.884462 473.694312 
L 82.039841 478.955957 
L 85.195219 483.153046 
L 88.350598 486.316157 
L 91.505976 491.134937 
L 94.661355 495.729379 
L 97.816733 499.127863 
L 100.972112 504.272027 
L 104.12749 506.843439 
L 107.282869 506.723691 
L 110.438247 505.094371 
L 113.593625 506.728257 
L 116.749004 508.948363 
L 119.904382 509.588494 
L 123.059761 510.877318 
L 126.215139 508.84553 
L 129.370518 502.536856 
L 132.525896 498.749553 
L 135.681275 495.643756 
L 138.836653 495.498836 
L 141.992032 492.03734 
L 145.14741 489.2172 
L 148.302789 488.635601 
L 151.458167 490.226861 
L 154.613546 494.124354 
L 157.768924 498.320365 
L 160.924303 497.518598 
L 164.079681 496.97949 
L 167.23506 494.271143 
L 170.390438 493.405024 
L 173.545817 492.382737 
L 176.701195 492.581198 
L 179.856574 495.62488 
L 183.011952 500.407153 
L 186.167331 503.441947 
L 189.322709 504.960394 
L 192.478088 506.802148 
L 195.633466 510.080436 
L 198.788845 513.82552 
L 201.944223 514.684878 
L 205.099602 513.82986 
L 208.25498 513.297108 
L 211.410359 511.754291 
L 214.565737 510.547056 
L 217.721116 505.056523 
L 220.876494 496.369219 
L 224.031873 491.215223 
L 227.187251 487.547885 
L 230.342629 467.346838 
L 233.498008 440.52793 
L 236.653386 431.615512 
L 239.808765 431.3455 
L 242.964143 438.906338 
L 246.119522 444.178375 
L 249.2749 459.361806 
L 252.430279 464.706674 
L 255.585657 469.769377 
L 258.741036 476.233315 
L 261.896414 479.879429 
L 265.051793 484.974638 
L 268.207171 486.446885 
L 271.36255 488.493941 
L 274.517928 490.982914 
L 277.673307 490.419978 
L 280.828685 492.684654 
L 287.139442 497.649444 
L 290.294821 498.496804 
L 293.450199 501.912139 
L 302.916335 507.065933 
L 306.071713 508.409029 
L 309.227092 508.86352 
L 312.38247 508.782001 
L 315.537849 510.708421 
L 318.693227 513.879309 
L 325.003984 523.110361 
L 328.159363 529.21236 
L 331.314741 531.910264 
L 337.625498 533.335848 
L 340.780876 531.532247 
L 343.936255 530.516883 
L 347.091633 529.182097 
L 350.247012 530.269281 
L 353.40239 531.906583 
L 356.557769 535.367651 
L 359.713147 534.932518 
L 362.868526 533.948884 
L 366.023904 528.986763 
L 369.179283 525.645205 
L 372.334661 526.23479 
L 375.49004 525.697998 
L 378.645418 526.952757 
L 381.800797 528.814191 
L 384.956175 527.96692 
L 388.111554 526.495936 
L 391.266932 526.897296 
L 394.422311 527.857578 
L 397.577689 530.378046 
L 400.733068 531.300587 
L 403.888446 530.304074 
L 407.043825 531.487535 
L 410.199203 530.903131 
L 416.50996 530.124405 
L 419.665339 530.887047 
L 422.820717 530.601703 
L 425.976096 527.190183 
L 429.131474 526.223309 
L 432.286853 525.013175 
L 435.442231 524.359532 
L 438.59761 523.939455 
L 444.908367 526.305186 
L 448.063745 523.460788 
L 454.374502 518.88318 
L 457.52988 516.046866 
L 460.685259 514.93736 
L 463.840637 514.30746 
L 466.996016 513.262706 
L 470.151394 510.254888 
L 473.306773 508.479663 
L 476.462151 504.991393 
L 479.61753 503.525768 
L 482.772908 505.395182 
L 485.928287 507.858434 
L 489.083665 511.303584 
L 492.239044 512.862884 
L 495.394422 513.770306 
L 498.549801 514.465109 
L 501.705179 513.389758 
L 504.860558 509.747195 
L 508.015936 504.563076 
L 511.171315 500.022753 
L 514.326693 489.997578 
L 517.482072 479.465298 
L 520.63745 474.949783 
L 523.792829 469.393773 
L 526.948207 462.008739 
L 530.103586 458.272 
L 533.258964 452.676813 
L 536.414343 445.226016 
L 539.569721 459.322159 
L 545.880478 474.560599 
L 549.035857 494.677116 
L 552.191235 510.650003 
L 555.346614 521.91709 
L 558.501992 529.91369 
L 561.657371 536.34587 
L 564.812749 540.339981 
L 567.968127 543.564867 
L 571.123506 546.12416 
L 574.278884 548.98842 
L 577.434263 550.446548 
L 580.589641 552.805602 
L 583.74502 554.084802 
L 586.900398 554.509915 
L 590.055777 552.693745 
L 593.211155 550.425957 
L 596.366534 549.780694 
L 599.521912 548.899452 
L 602.677291 548.327588 
L 605.832669 549.665607 
L 608.988048 550.22449 
L 612.143426 551.526489 
L 615.298805 552.66235 
L 618.454183 554.915876 
L 621.609562 556.23721 
L 624.76494 559.413 
L 627.920319 560.460684 
L 631.075697 560.770411 
L 634.231076 562.09435 
L 637.386454 563.284062 
L 640.541833 564.307706 
L 643.697211 563.196286 
L 646.85259 563.374521 
L 650.007968 563.908511 
L 656.318725 566.84409 
L 662.629482 569.835224 
L 665.784861 570.557694 
L 668.940239 571.14032 
L 672.095618 570.856463 
L 675.250996 570.356601 
L 678.406375 570.78216 
L 681.561753 570.620144 
L 684.717131 570.230256 
L 687.87251 570.205238 
L 691.027888 569.431897 
L 694.183267 569.105186 
L 700.494024 569.132374 
L 703.649402 568.844845 
L 706.804781 569.627437 
L 709.960159 570.837252 
L 713.115538 571.903618 
L 716.270916 572.755881 
L 719.426295 573.977681 
L 722.581673 574.282959 
L 725.737052 575.332359 
L 728.89243 574.251704 
L 732.047809 571.418055 
L 735.203187 569.144407 
L 738.358566 566.354864 
L 741.513944 565.198351 
L 744.669323 564.650756 
L 747.824701 563.875401 
L 750.98008 563.946604 
L 754.135458 563.901295 
L 757.290837 563.245939 
L 760.446215 563.031617 
L 763.601594 563.227685 
L 766.756972 563.172365 
L 769.912351 563.517992 
L 773.067729 561.944912 
L 776.223108 560.829325 
L 779.378486 561.441382 
L 782.533865 563.237335 
L 785.689243 565.863397 
L 788.844622 567.686199 
L 788.844622 567.686199 
" clip-path="url(#p5bee6ceff5)" style="fill: none; stroke: #000000; stroke-width: 1.5; stroke-linecap: square"/>
   </g>
   <g id="line2d_4">
    <path d="M 0 459 
L 3.155378 459 
L 6.310757 445.485742 
L 9.466135 439.791558 
L 12.621514 438.305686 
L 15.776892 412.257567 
L 18.932271 392.704186 
L 22.087649 376.682273 
L 25.243028 371.718763 
L 31.553785 365.611723 
L 34.709163 366.728024 
L 37.864542 366.819015 
L 41.01992 363.560581 
L 44.175299 366.677703 
L 47.330677 371.440501 
L 50.486056 378.691834 
L 53.641434 393.557366 
L 56.796813 406.867059 
L 59.952191 416.233465 
L 63.10757 424.709419 
L 66.262948 431.743192 
L 69.418327 437.836926 
L 72.573705 449.517362 
L 75.729084 459.19073 
L 78.884462 463.830142 
L 82.039841 468.264115 
L 85.195219 472.242464 
L 88.350598 475.682502 
L 94.661355 484.21938 
L 97.816733 487.870266 
L 100.972112 492.428514 
L 104.12749 495.711698 
L 107.282869 497.426129 
L 110.438247 498.027195 
L 113.593625 500.046017 
L 116.749004 502.341179 
L 119.904382 503.768805 
L 123.059761 505.434443 
L 126.215139 505.230042 
L 129.370518 502.418084 
L 135.681275 498.508691 
L 138.836653 498.015141 
L 141.992032 495.784981 
L 145.14741 493.702703 
L 148.302789 492.71657 
L 151.458167 492.976728 
L 154.613546 494.687974 
L 157.768924 496.903919 
L 164.079681 496.583542 
L 167.23506 495.20786 
L 170.390438 494.618611 
L 173.545817 493.893824 
L 176.701195 493.778217 
L 179.856574 495.240726 
L 183.011952 497.898533 
L 186.167331 499.943165 
L 189.322709 501.325578 
L 192.478088 502.892691 
L 195.633466 505.280517 
L 198.788845 508.066259 
L 201.944223 509.435509 
L 208.25498 510.153504 
L 214.565737 509.456218 
L 217.721116 506.630853 
L 220.876494 501.64911 
L 224.031873 497.99447 
L 227.187251 494.917024 
L 230.342629 482.780819 
L 233.498008 472.458417 
L 236.653386 467.733126 
L 239.808765 464.848916 
L 242.964143 463.839794 
L 246.119522 462.981491 
L 249.2749 464.465031 
L 252.430279 466.570543 
L 255.585657 469.029217 
L 258.741036 472.660496 
L 261.896414 475.217286 
L 265.051793 478.73423 
L 268.207171 480.529311 
L 271.36255 482.572866 
L 274.517928 484.859991 
L 277.673307 485.519421 
L 280.828685 487.476906 
L 287.139442 491.793121 
L 290.294821 493.148499 
L 293.450199 495.821911 
L 302.916335 501.363757 
L 306.071713 502.982097 
L 309.227092 504.079899 
L 312.38247 504.784714 
L 315.537849 506.460746 
L 318.693227 508.857926 
L 321.848606 512.187832 
L 325.003984 515.700904 
L 328.159363 520.200873 
L 331.314741 523.149422 
L 334.47012 524.987845 
L 337.625498 526.623479 
L 340.780876 526.743248 
L 343.936255 526.985675 
L 347.091633 526.853072 
L 350.247012 527.837081 
L 353.40239 529.134366 
L 356.557769 531.473896 
L 359.713147 531.86825 
L 362.868526 531.833786 
L 366.023904 529.486028 
L 369.179283 527.611006 
L 372.334661 527.641103 
L 375.49004 527.148928 
L 378.645418 527.633817 
L 381.800797 528.561835 
L 384.956175 528.16244 
L 388.111554 527.352031 
L 391.266932 527.450524 
L 394.422311 527.895397 
L 397.577689 529.269911 
L 400.733068 529.962184 
L 403.888446 529.64909 
L 407.043825 530.416177 
L 416.50996 530.02989 
L 419.665339 530.456823 
L 422.820717 530.369079 
L 425.976096 528.546909 
L 429.131474 527.797287 
L 432.286853 526.886419 
L 435.442231 526.228136 
L 438.59761 525.695208 
L 441.752988 526.040631 
L 444.908367 526.551349 
L 454.374502 521.868153 
L 457.52988 519.846758 
L 460.685259 518.636813 
L 463.840637 517.704938 
L 466.996016 516.604379 
L 470.151394 514.448226 
L 473.306773 512.818121 
L 476.462151 510.229572 
L 479.61753 508.596191 
L 482.772908 508.797977 
L 485.928287 509.59268 
L 489.083665 511.188167 
L 492.239044 512.053563 
L 498.549801 513.2141 
L 501.705179 512.81774 
L 504.860558 510.921105 
L 511.171315 504.894182 
L 514.326693 498.662793 
L 517.482072 491.55147 
L 520.63745 487.157184 
L 523.792829 482.180863 
L 526.948207 476.120816 
L 530.103586 472.094456 
L 536.414343 465.67757 
L 539.569721 466.552196 
L 542.7251 469.46132 
L 545.880478 473.242214 
L 549.035857 484.379211 
L 552.191235 494.691418 
L 555.346614 503.343075 
L 558.501992 510.631409 
L 561.657371 517.178878 
L 564.812749 522.368824 
L 567.968127 526.944616 
L 574.278884 534.894282 
L 577.434263 537.89617 
L 580.589641 541.143889 
L 583.74502 543.658411 
L 586.900398 545.507549 
L 590.055777 545.92318 
L 593.211155 545.74875 
L 596.366534 546.128264 
L 602.677291 546.382671 
L 605.832669 547.448848 
L 608.988048 548.140626 
L 615.298805 550.254867 
L 618.454183 551.922393 
L 621.609562 553.171189 
L 624.76494 555.446121 
L 627.920319 556.714487 
L 631.075697 557.545518 
L 637.386454 560.072801 
L 640.541833 561.187595 
L 643.697211 561.117534 
L 646.85259 561.579184 
L 650.007968 562.157158 
L 659.474104 565.557364 
L 662.629482 566.832581 
L 668.940239 568.482325 
L 672.095618 568.755668 
L 675.250996 568.825569 
L 678.406375 569.306205 
L 681.561753 569.455161 
L 684.717131 569.434021 
L 687.87251 569.553974 
L 691.027888 569.249169 
L 694.183267 569.110585 
L 700.494024 569.144713 
L 703.649402 569.000321 
L 706.804781 569.411502 
L 716.270916 571.467097 
L 719.426295 572.343445 
L 722.581673 572.775985 
L 725.737052 573.587112 
L 728.89243 573.283265 
L 735.203187 570.593687 
L 738.358566 568.850289 
L 741.513944 567.825558 
L 747.824701 566.305104 
L 754.135458 565.614274 
L 757.290837 564.986556 
L 760.446215 564.594469 
L 769.912351 564.251846 
L 773.067729 563.283608 
L 776.223108 562.470037 
L 779.378486 562.541389 
L 782.533865 563.338469 
L 785.689243 564.745399 
L 788.844622 565.906916 
L 788.844622 565.906916 
" clip-path="url(#p5bee6ceff5)" style="fill: none; stroke: #000000; stroke-width: 1.5; stroke-linecap: square"/>
   </g>
   <g id="line2d_5">
    <path d="M 0 459 
L 3.155378 459 
L 6.310757 446.021984 
L 9.466135 440.566269 
L 12.621514 439.023394 
L 15.776892 416.43728 
L 18.932271 399.273323 
L 22.087649 385.095527 
L 25.243028 379.78815 
L 28.398406 376.184212 
L 31.553785 372.849177 
L 34.709163 372.680102 
L 37.864542 371.978735 
L 41.01992 369.082731 
L 44.175299 370.546901 
L 47.330677 373.273877 
L 50.486056 377.800655 
L 53.641434 387.405388 
L 56.796813 396.412984 
L 59.952191 403.279848 
L 63.10757 409.755356 
L 66.262948 415.473303 
L 69.418327 420.688782 
L 72.573705 429.228028 
L 75.729084 437.032801 
L 82.039841 457.32752 
L 85.195219 461.619939 
L 88.350598 464.540146 
L 94.661355 471.422169 
L 97.816733 474.596248 
L 100.972112 478.297794 
L 104.12749 481.340085 
L 107.282869 483.523886 
L 110.438247 485.048001 
L 116.749004 489.578908 
L 123.059761 493.346938 
L 126.215139 494.245353 
L 129.370518 493.652676 
L 135.681275 492.870929 
L 138.836653 493.063788 
L 145.14741 491.44872 
L 148.302789 491.09918 
L 151.458167 491.356891 
L 154.613546 492.385276 
L 157.768924 493.735654 
L 164.079681 494.047307 
L 167.23506 493.526486 
L 176.701195 493.070902 
L 179.856574 493.893549 
L 183.011952 495.394997 
L 186.167331 496.671304 
L 189.322709 497.664632 
L 192.478088 498.788822 
L 195.633466 500.37873 
L 198.788845 502.241569 
L 201.944223 503.443871 
L 208.25498 504.820348 
L 214.565737 505.326261 
L 217.721116 504.225721 
L 220.876494 501.857373 
L 224.031873 499.966632 
L 227.187251 498.223858 
L 230.342629 491.639113 
L 233.498008 485.54092 
L 236.653386 482.009282 
L 239.808765 479.341734 
L 242.964143 477.632753 
L 246.119522 476.056397 
L 249.2749 475.761359 
L 252.430279 475.938408 
L 255.585657 476.456931 
L 258.741036 477.749128 
L 261.896414 478.671913 
L 265.051793 480.230768 
L 268.207171 481.051381 
L 271.36255 482.083495 
L 274.517928 483.321747 
L 277.673307 483.798783 
L 280.828685 484.96757 
L 287.139442 487.715795 
L 290.294821 488.766069 
L 293.450199 490.527199 
L 306.071713 496.236211 
L 309.227092 497.370621 
L 312.38247 498.2974 
L 315.537849 499.709176 
L 318.693227 501.512748 
L 321.848606 503.847855 
L 325.003984 506.361224 
L 328.159363 509.475613 
L 331.314741 511.881605 
L 337.625498 515.523536 
L 343.936255 517.461546 
L 347.091633 518.175039 
L 350.247012 519.403722 
L 353.40239 520.775046 
L 356.557769 522.68226 
L 359.713147 523.612266 
L 362.868526 524.277273 
L 369.179283 523.184709 
L 372.334661 523.568417 
L 375.49004 523.651941 
L 378.645418 524.193789 
L 381.800797 524.961746 
L 384.956175 525.048681 
L 388.111554 524.881942 
L 391.266932 525.13565 
L 394.422311 525.559456 
L 397.577689 526.46702 
L 400.733068 527.056314 
L 403.888446 527.132408 
L 407.043825 527.741367 
L 416.50996 528.141023 
L 419.665339 528.530142 
L 422.820717 528.661891 
L 425.976096 527.871028 
L 432.286853 527.140853 
L 438.59761 526.517421 
L 444.908367 526.892574 
L 451.219124 525.199359 
L 454.374502 524.246408 
L 457.52988 523.014581 
L 460.685259 522.134128 
L 466.996016 520.499641 
L 470.151394 519.060577 
L 473.306773 517.838594 
L 476.462151 516.080562 
L 479.61753 514.756254 
L 482.772908 514.361804 
L 485.928287 514.322684 
L 489.083665 514.768822 
L 495.394422 515.02371 
L 498.549801 515.119502 
L 501.705179 514.762572 
L 504.860558 513.617206 
L 511.171315 509.937683 
L 514.326693 506.275405 
L 517.482072 501.938465 
L 520.63745 498.787783 
L 523.792829 495.226713 
L 526.948207 490.977846 
L 530.103586 487.637983 
L 536.414343 481.684286 
L 539.569721 480.80814 
L 542.7251 481.142748 
L 545.880478 482.145937 
L 552.191235 492.352009 
L 555.346614 497.052064 
L 561.657371 505.542529 
L 564.812749 509.209556 
L 567.968127 512.686658 
L 574.278884 519.249357 
L 583.74502 527.735434 
L 586.900398 530.017632 
L 590.055777 531.518953 
L 593.211155 532.619812 
L 596.366534 533.902826 
L 602.677291 535.971938 
L 605.832669 537.383391 
L 608.988048 538.565891 
L 615.298805 541.202157 
L 618.454183 542.799014 
L 621.609562 544.185364 
L 624.76494 546.093865 
L 627.920319 547.507427 
L 631.075697 548.681381 
L 637.386454 551.416674 
L 640.541833 552.699849 
L 643.697211 553.353801 
L 650.007968 555.147589 
L 665.784861 560.975168 
L 668.940239 561.951688 
L 672.095618 562.652193 
L 675.250996 563.211891 
L 678.406375 563.947039 
L 681.561753 564.488409 
L 687.87251 565.356749 
L 694.183267 565.798745 
L 700.494024 566.363706 
L 703.649402 566.53096 
L 706.804781 566.967284 
L 716.270916 568.745579 
L 719.426295 569.463118 
L 722.581673 569.958791 
L 725.737052 570.651813 
L 728.89243 570.775521 
L 735.203187 569.786336 
L 738.358566 568.982131 
L 741.513944 568.467667 
L 750.98008 567.309957 
L 754.135458 567.024187 
L 760.446215 566.256704 
L 769.912351 565.697587 
L 776.223108 564.509507 
L 779.378486 564.383395 
L 782.533865 564.650253 
L 788.844622 565.845843 
L 788.844622 565.845843 
" clip-path="url(#p5bee6ceff5)" style="fill: none; stroke: #000000; stroke-width: 1.5; stroke-linecap: square"/>
   </g>
   <g id="line2d_6">
    <path d="M 0 459 
L 3.155378 459 
L 6.310757 446.290999 
L 9.466135 440.962971 
L 12.621514 439.406277 
L 15.776892 418.486856 
L 18.932271 402.559513 
L 22.087649 389.407866 
L 25.243028 384.141051 
L 28.398406 380.471429 
L 31.553785 377.136201 
L 34.709163 376.515535 
L 37.864542 375.540872 
L 41.01992 372.861036 
L 44.175299 373.667284 
L 47.330677 375.515025 
L 50.486056 378.797747 
L 53.641434 385.970887 
L 56.796813 392.783304 
L 59.952191 398.092576 
L 63.10757 403.155968 
L 66.262948 407.706918 
L 69.418327 411.920635 
L 72.573705 418.460693 
L 75.729084 424.543911 
L 82.039841 440.046411 
L 85.195219 447.482397 
L 88.350598 454.455047 
L 91.505976 460.150145 
L 94.661355 462.853666 
L 97.816733 465.39 
L 100.972112 468.27399 
L 104.12749 470.758869 
L 107.282869 472.712201 
L 110.438247 474.248995 
L 116.749004 478.206448 
L 123.059761 481.68925 
L 126.215139 482.829697 
L 132.525896 483.389972 
L 135.681275 483.629608 
L 138.836653 484.202983 
L 145.14741 484.098423 
L 148.302789 484.254974 
L 151.458167 484.734701 
L 154.613546 485.641848 
L 157.768924 486.733643 
L 164.079681 487.562571 
L 167.23506 487.575443 
L 176.701195 488.103543 
L 179.856574 488.789417 
L 186.167331 490.811314 
L 192.478088 492.515673 
L 195.633466 493.668612 
L 198.788845 494.986662 
L 201.944223 495.967309 
L 208.25498 497.36725 
L 214.565737 498.279343 
L 217.721116 497.989445 
L 220.876494 496.985847 
L 227.187251 495.405199 
L 233.498008 488.755955 
L 236.653386 486.73492 
L 239.808765 485.107818 
L 246.119522 482.827696 
L 249.2749 482.369125 
L 252.430279 482.167536 
L 255.585657 482.164935 
L 258.741036 482.590605 
L 261.896414 482.85943 
L 265.051793 483.488875 
L 268.207171 483.772406 
L 271.36255 484.189175 
L 274.517928 484.741706 
L 277.673307 484.927218 
L 280.828685 485.486621 
L 290.294821 487.48018 
L 293.450199 488.450348 
L 302.916335 491.040633 
L 309.227092 492.695611 
L 312.38247 493.37532 
L 315.537849 494.316746 
L 318.693227 495.480106 
L 321.848606 496.943241 
L 325.003984 498.534879 
L 328.159363 500.472383 
L 331.314741 502.091802 
L 337.625498 504.815064 
L 343.936255 506.718405 
L 347.091633 507.538122 
L 353.40239 509.777921 
L 356.557769 511.222576 
L 359.713147 512.186192 
L 362.868526 513.010011 
L 369.179283 513.368576 
L 372.334661 513.978399 
L 375.49004 514.4245 
L 381.800797 515.867359 
L 384.956175 516.297175 
L 388.111554 516.582372 
L 394.422311 517.620943 
L 397.577689 518.421443 
L 400.733068 519.064405 
L 403.888446 519.441709 
L 407.043825 520.087611 
L 422.820717 522.12831 
L 425.976096 522.01234 
L 432.286853 522.127045 
L 438.59761 522.219385 
L 444.908367 522.78023 
L 451.219124 522.249283 
L 454.374502 521.893144 
L 457.52988 521.366968 
L 466.996016 520.246085 
L 473.306773 518.887555 
L 476.462151 517.94851 
L 479.61753 517.194889 
L 482.772908 516.891644 
L 485.928287 516.766013 
L 489.083665 516.89202 
L 498.549801 516.823318 
L 501.705179 516.56908 
L 504.860558 515.90655 
L 511.171315 513.800188 
L 514.326693 511.766881 
L 517.482072 509.319426 
L 520.63745 507.398253 
L 523.792829 505.217199 
L 526.948207 502.626552 
L 530.103586 500.43322 
L 536.414343 496.284618 
L 539.569721 495.225822 
L 542.7251 494.790796 
L 545.880478 494.731977 
L 549.035857 496.794265 
L 555.346614 501.145629 
L 564.812749 507.134971 
L 577.434263 514.479754 
L 580.589641 516.339122 
L 583.74502 518.061984 
L 586.900398 519.640261 
L 590.055777 520.849192 
L 602.677291 524.971887 
L 608.988048 527.244742 
L 615.298805 529.565301 
L 627.920319 534.853457 
L 631.075697 535.997143 
L 640.541833 539.725791 
L 646.85259 541.62059 
L 650.007968 542.634848 
L 668.940239 549.344813 
L 678.406375 551.944286 
L 684.717131 553.444739 
L 687.87251 554.163583 
L 709.960159 558.317508 
L 725.737052 561.779448 
L 728.89243 562.203892 
L 735.203187 562.371145 
L 738.358566 562.260484 
L 750.98008 562.400579 
L 757.290837 562.4374 
L 766.756972 562.535463 
L 769.912351 562.622456 
L 776.223108 562.268035 
L 779.378486 562.303483 
L 782.533865 562.532646 
L 788.844622 563.340768 
L 788.844622 563.340768 
" clip-path="url(#p5bee6ceff5)" style="fill: none; stroke: #000000; stroke-width: 1.5; stroke-linecap: square"/>
   </g>
   <g id="line2d_7">
    <path d="M 0 459 
L 3.155378 459 
L 6.310757 446.425621 
L 9.466135 441.163354 
L 12.621514 439.603317 
L 15.776892 419.497866 
L 18.932271 404.192593 
L 22.087649 391.571579 
L 25.243028 386.372681 
L 28.398406 382.716399 
L 31.553785 379.421103 
L 34.709163 378.628168 
L 37.864542 377.556401 
L 41.01992 374.999938 
L 44.175299 375.534102 
L 47.330677 377.000608 
L 50.486056 379.726792 
L 53.641434 385.797801 
L 56.796813 391.581159 
L 59.952191 396.114632 
L 63.10757 400.448095 
L 66.262948 404.360488 
L 69.418327 407.995579 
L 72.573705 413.513548 
L 75.729084 418.667563 
L 85.195219 437.893343 
L 88.350598 443.78383 
L 94.661355 457.242944 
L 97.816733 460.545711 
L 100.972112 462.939734 
L 104.12749 465.03393 
L 107.282869 466.729235 
L 110.438247 468.111107 
L 119.904382 473.016588 
L 123.059761 474.550342 
L 126.215139 475.633036 
L 135.681275 476.955236 
L 138.836653 477.589518 
L 148.302789 478.274946 
L 151.458167 478.801352 
L 154.613546 479.612859 
L 157.768924 480.546808 
L 164.079681 481.495627 
L 170.390438 481.995925 
L 176.701195 482.573692 
L 179.856574 483.188306 
L 186.167331 484.838449 
L 192.478088 486.285922 
L 201.944223 489.036654 
L 208.25498 490.309231 
L 214.565737 491.270327 
L 217.721116 491.284565 
L 224.031873 490.521651 
L 227.187251 490.202278 
L 233.498008 486.398268 
L 236.653386 485.238496 
L 239.808765 484.297325 
L 246.119522 482.959717 
L 249.2749 482.682627 
L 252.430279 482.55457 
L 255.585657 482.542999 
L 280.828685 484.528056 
L 290.294821 485.767735 
L 296.605578 486.890417 
L 315.537849 490.203736 
L 318.693227 490.956937 
L 325.003984 492.898712 
L 328.159363 494.115843 
L 331.314741 495.170334 
L 337.625498 497.02382 
L 350.247012 499.893818 
L 353.40239 500.736951 
L 356.557769 501.742327 
L 362.868526 503.169833 
L 369.179283 503.82051 
L 384.956175 506.526611 
L 391.266932 507.387748 
L 394.422311 507.910751 
L 400.733068 509.135685 
L 403.888446 509.565234 
L 407.043825 510.131621 
L 422.820717 512.309383 
L 429.131474 512.719353 
L 438.59761 513.374797 
L 444.908367 514.05055 
L 454.374502 514.127693 
L 460.685259 513.981631 
L 466.996016 513.886173 
L 476.462151 513.06349 
L 479.61753 512.774563 
L 485.928287 512.736963 
L 492.239044 512.973962 
L 498.549801 513.110066 
L 501.705179 513.059198 
L 504.860558 512.792516 
L 511.171315 511.823369 
L 514.326693 510.811372 
L 517.482072 509.563841 
L 520.63745 508.563763 
L 523.792829 507.409376 
L 526.948207 506.021621 
L 536.414343 502.45598 
L 539.569721 501.773208 
L 542.7251 501.405022 
L 545.880478 501.228596 
L 552.191235 503.176313 
L 567.968127 508.087901 
L 580.589641 512.039704 
L 586.900398 513.934339 
L 593.211155 515.33226 
L 615.298805 520.427561 
L 643.697211 528.124138 
L 653.163347 530.534205 
L 672.095618 535.602698 
L 687.87251 539.175511 
L 713.115538 544.175127 
L 728.89243 547.382652 
L 735.203187 548.097412 
L 741.513944 548.650339 
L 757.290837 550.131347 
L 773.067729 551.393301 
L 779.378486 551.785868 
L 785.689243 552.556958 
L 788.844622 552.976269 
L 788.844622 552.976269 
" clip-path="url(#p5bee6ceff5)" style="fill: none; stroke: #000000; stroke-width: 1.5; stroke-linecap: square"/>
   </g>
   <g id="line2d_8">
    <path d="M 0 459 
L 3.155378 459 
L 6.310757 446.492946 
L 9.466135 441.264012 
L 12.621514 439.703178 
L 15.776892 419.999483 
L 18.932271 405.005331 
L 22.087649 392.652853 
L 25.243028 387.498832 
L 28.398406 383.86009 
L 31.553785 380.594308 
L 34.709163 379.728646 
L 37.864542 378.61861 
L 41.01992 376.127893 
L 44.175299 376.54119 
L 47.330677 377.833691 
L 50.486056 380.301512 
L 53.641434 385.856607 
L 56.796813 391.152086 
L 63.10757 399.284465 
L 66.262948 402.877023 
L 69.418327 406.217038 
L 72.573705 411.235475 
L 75.729084 415.926746 
L 85.195219 433.308581 
L 88.350598 438.640279 
L 97.816733 456.502471 
L 100.972112 460.309441 
L 104.12749 462.192894 
L 107.282869 463.734198 
L 110.438247 465.006642 
L 119.904382 469.44488 
L 123.059761 470.83298 
L 126.215139 471.844075 
L 135.681275 473.262709 
L 138.836653 473.884485 
L 148.302789 474.73799 
L 151.458167 475.253949 
L 157.768924 476.83055 
L 164.079681 477.768061 
L 173.545817 478.621735 
L 176.701195 478.964752 
L 179.856574 479.524775 
L 186.167331 480.96539 
L 192.478088 482.246176 
L 201.944223 484.601319 
L 208.25498 485.74526 
L 214.565737 486.651273 
L 217.721116 486.75635 
L 224.031873 486.372537 
L 227.187251 486.220911 
L 233.498008 483.590497 
L 236.653386 482.80308 
L 239.808765 482.16898 
L 246.119522 481.282434 
L 252.430279 481.053047 
L 255.585657 481.072503 
L 280.828685 482.696134 
L 290.294821 483.651589 
L 306.071713 485.779788 
L 315.537849 487.010761 
L 318.693227 487.567929 
L 325.003984 488.978613 
L 331.314741 490.61907 
L 337.625498 491.99193 
L 353.40239 494.839475 
L 356.557769 495.583521 
L 362.868526 496.698131 
L 369.179283 497.312605 
L 384.956175 499.540067 
L 391.266932 500.291141 
L 397.577689 501.241488 
L 407.043825 502.545688 
L 422.820717 504.447696 
L 432.286853 505.160425 
L 441.752988 505.95448 
L 444.908367 506.274973 
L 454.374502 506.637609 
L 473.306773 506.80174 
L 479.61753 506.578142 
L 485.928287 506.718924 
L 495.394422 507.137703 
L 501.705179 507.302754 
L 504.860558 507.220315 
L 511.171315 506.790344 
L 514.326693 506.259957 
L 517.482072 505.585668 
L 523.792829 504.419115 
L 530.103586 502.970152 
L 536.414343 501.637112 
L 539.569721 501.250478 
L 545.880478 500.945615 
L 552.191235 502.084678 
L 590.055777 509.161634 
L 602.677291 510.979299 
L 621.609562 514.174736 
L 627.920319 515.406137 
L 637.386454 517.167014 
L 643.697211 518.283731 
L 653.163347 519.989771 
L 678.406375 524.716182 
L 691.027888 526.79998 
L 716.270916 530.831478 
L 725.737052 532.426244 
L 732.047809 533.258129 
L 744.669323 534.592134 
L 773.067729 537.391772 
L 779.378486 537.925781 
L 788.844622 539.045201 
L 788.844622 539.045201 
" clip-path="url(#p5bee6ceff5)" style="fill: none; stroke: #000000; stroke-width: 1.5; stroke-linecap: square"/>
   </g>
   <g id="line2d_9">
    <path d="M 0 459 
L 3.155378 459 
L 6.310757 446.526611 
L 9.466135 441.314453 
L 12.621514 439.753436 
L 15.776892 420.249265 
L 18.932271 405.410589 
L 22.087649 393.193036 
L 25.243028 388.064041 
L 28.398406 384.436678 
L 31.553785 381.18795 
L 34.709163 380.289235 
L 37.864542 379.162635 
L 41.01992 376.705791 
L 44.175299 377.062492 
L 47.330677 378.272305 
L 50.486056 380.616247 
L 53.641434 385.922831 
L 56.796813 390.982044 
L 63.10757 398.754473 
L 66.262948 402.188636 
L 69.418327 405.381478 
L 72.573705 410.155227 
L 75.729084 414.618135 
L 85.195219 431.092118 
L 88.350598 436.144596 
L 100.972112 459.020454 
L 104.12749 460.79702 
L 107.282869 462.257381 
L 110.438247 463.469321 
L 119.904382 467.66066 
L 123.059761 468.970639 
L 126.215139 469.93739 
L 135.681275 471.366793 
L 138.836653 471.972458 
L 148.302789 472.872876 
L 151.458167 473.375028 
L 157.768924 474.857197 
L 164.079681 475.770728 
L 173.545817 476.645212 
L 176.701195 476.984978 
L 179.856574 477.51221 
L 186.167331 478.8419 
L 192.478088 480.029675 
L 201.944223 482.178312 
L 211.410359 483.681542 
L 214.565737 484.100631 
L 217.721116 484.233749 
L 224.031873 483.994422 
L 227.187251 483.906708 
L 233.498008 481.774173 
L 236.653386 481.145781 
L 239.808765 480.64375 
L 246.119522 479.953638 
L 252.430279 479.80404 
L 255.585657 479.839082 
L 280.828685 481.315744 
L 293.450199 482.526321 
L 315.537849 485.012196 
L 321.848606 486.039937 
L 328.159363 487.362369 
L 334.47012 488.568203 
L 340.780876 489.599931 
L 353.40239 491.533401 
L 356.557769 492.147739 
L 362.868526 493.088574 
L 369.179283 493.644235 
L 384.956175 495.558443 
L 391.266932 496.216488 
L 419.665339 499.483422 
L 422.820717 499.801821 
L 435.442231 500.703922 
L 451.219124 501.77966 
L 466.996016 502.263763 
L 485.928287 502.400882 
L 498.549801 502.948987 
L 504.860558 503.003725 
L 511.171315 502.775513 
L 520.63745 501.649031 
L 526.948207 500.718991 
L 536.414343 499.381805 
L 539.569721 499.131348 
L 545.880478 498.95537 
L 555.346614 500.216783 
L 580.589641 503.735806 
L 590.055777 504.989685 
L 605.832669 506.762034 
L 618.454183 508.358822 
L 634.231076 510.568997 
L 646.85259 512.284411 
L 659.474104 514.078861 
L 672.095618 515.894721 
L 697.338645 519.147238 
L 719.426295 521.957004 
L 732.047809 523.463406 
L 754.135458 525.475771 
L 788.844622 528.501578 
L 788.844622 528.501578 
" clip-path="url(#p5bee6ceff5)" style="fill: none; stroke: #000000; stroke-width: 1.5; stroke-linecap: square"/>
   </g>
  </g>
 </g>
 <defs>
  <clipPath id="p5bee6ceff5">
   <rect x="0" y="0" width="792" height="612"/>
  </clipPath>
 </defs>
</svg>
