<?xml version="1.0" encoding="utf-8" standalone="no"?>
<!DOCTYPE svg PUBLIC "-//W3C//DTD SVG 1.1//EN"
  "http://www.w3.org/Graphics/SVG/1.1/DTD/svg11.dtd">
<svg xmlns:xlink="http://www.w3.org/1999/xlink" width="792pt" height="612pt" viewBox="0 0 792 612" xmlns="http://www.w3.org/2000/svg" version="1.1">
 <metadata>
  <rdf:RDF xmlns:dc="http://purl.org/dc/elements/1.1/" xmlns:cc="http://creativecommons.org/ns#" xmlns:rdf="http://www.w3.org/1999/02/22-rdf-syntax-ns#">
   <cc:Work>
    <dc:type rdf:resource="http://purl.org/dc/dcmitype/StillImage"/>
    <dc:date>2022-12-26T20:27:23.861343</dc:date>
    <dc:format>image/svg+xml</dc:format>
    <dc:creator>
     <cc:Agent>
      <dc:title>Matplotlib v3.6.2, https://matplotlib.org/</dc:title>
     </cc:Agent>
    </dc:creator>
   </cc:Work>
  </rdf:RDF>
 </metadata>
 <defs>
  <style type="text/css">*{stroke-linejoin: round; stroke-linecap: butt}</style>
 </defs>
 <g id="figure_1">
  <g id="patch_1">
   <path d="M 0 612 
L 792 612 
L 792 0 
L 0 0 
z
" style="fill: #ffffff"/>
  </g>
  <g id="axes_1">
   <g id="line2d_1">
    <path d="M 0 459 
L 3.142857 464.22439 
L 6.285714 462.998258 
L 9.428571 455.161762 
L 12.571429 466.996516 
L 15.714286 470.621603 
L 18.857143 476.112544 
L 22 490.719512 
L 25.142857 492.265505 
L 28.285714 489.44007 
L 31.428571 490.559582 
L 34.571429 490.506272 
L 37.714286 490.879443 
L 40.857143 501.861324 
L 44 502.341115 
L 47.142857 511.563763 
L 50.285714 514.335889 
L 53.428571 515.668641 
L 56.571429 516.201742 
L 59.714286 523.291986 
L 62.857143 526.597213 
L 66 527.023693 
L 69.142857 534.593728 
L 72.285714 531.714983 
L 75.428571 526.383972 
L 78.571429 522.119164 
L 81.714286 529.795819 
L 84.857143 532.727875 
L 88 530.16899 
L 91.142857 532.514634 
L 94.285714 524.411498 
L 97.428571 511.030662 
L 100.571429 512.896516 
L 103.714286 511.723693 
L 106.857143 517.374564 
L 110 508.151916 
L 113.142857 507.139024 
L 116.285714 511.030662 
L 119.428571 516.574913 
L 122.571429 524.198258 
L 125.714286 528.143206 
L 128.857143 517.747735 
L 132 517.854355 
L 135.142857 511.457143 
L 138.285714 514.335889 
L 141.428571 513.216376 
L 144.571429 515.721951 
L 147.714286 523.665157 
L 150.857143 530.915331 
L 154 529.955749 
L 157.142857 528.249826 
L 160.285714 530.32892 
L 163.428571 535.766551 
L 166.571429 539.711498 
L 169.714286 534.806969 
L 172.857143 530.808711 
L 176 531.021951 
L 179.142857 527.770035 
L 182.285714 527.450174 
L 188.571429 501.434843 
L 191.714286 504.153659 
L 194.857143 504.100348 
L 198 448.926008 
L 201.142857 447.167779 
L 204.285714 475.099652 
L 207.428571 480.643902 
L 210.571429 487.787456 
L 213.714286 487.734146 
L 216.857143 498.929268 
L 220 503.300697 
L 223.142857 506.819164 
L 226.285714 514.762369 
L 229.428571 512.203484 
L 232.571429 519.133798 
L 235.714286 513.216376 
L 238.857143 515.935192 
L 242 518.813937 
L 245.142857 512.416725 
L 248.285714 519.560279 
L 251.428571 522.172474 
L 254.571429 523.931707 
L 257.714286 521.586063 
L 260.857143 529.369338 
L 264 527.503484 
L 267.142857 528.622997 
L 270.285714 530.43554 
L 273.428571 530.64878 
L 276.571429 529.316028 
L 279.714286 528.196516 
L 282.857143 533.687456 
L 286 538.645296 
L 289.142857 545.255749 
L 292.285714 548.880836 
L 295.428571 556.717422 
L 298.571429 552.292683 
L 301.714286 549.040767 
L 304.857143 549.573868 
L 308 543.229965 
L 311.142857 543.976307 
L 314.285714 542.270383 
L 317.428571 547.867944 
L 320.571429 550.266899 
L 323.714286 556.610801 
L 326.857143 548.667596 
L 330 546.801742 
L 333.142857 535.073519 
L 336.285714 535.55331 
L 339.428571 543.709756 
L 342.571429 541.097561 
L 345.714286 545.62892 
L 348.857143 548.294425 
L 352 542.323693 
L 355.142857 539.924739 
L 358.285714 543.869686 
L 361.428571 545.73554 
L 364.571429 550.8 
L 367.714286 548.454355 
L 370.857143 543.922997 
L 374 549.147387 
L 377.142857 545.202439 
L 380.285714 545.362369 
L 383.428571 544.829268 
L 386.571429 547.761324 
L 389.714286 545.5223 
L 392.857143 536.672822 
L 396 540.67108 
L 399.142857 539.231707 
L 402.285714 539.764808 
L 405.428571 539.871429 
L 408.571429 543.869686 
L 411.714286 544.989199 
L 414.857143 534.806969 
L 418 533.847387 
L 421.142857 532.301394 
L 424.285714 528.836237 
L 427.428571 531.288502 
L 430.571429 531.714983 
L 433.714286 530.062369 
L 436.857143 523.825087 
L 440 524.784669 
L 443.142857 518.600697 
L 446.285714 521.372822 
L 449.428571 529.369338 
L 452.571429 532.514634 
L 455.714286 537.205923 
L 458.857143 534.806969 
L 462 534.273868 
L 465.142857 534.380488 
L 468.285714 530.062369 
L 471.428571 522.119164 
L 474.571429 514.9223 
L 477.714286 512.523345 
L 480.857143 493.758188 
L 484 484.26899 
L 487.142857 492.318815 
L 490.285714 485.814983 
L 493.428571 476.272474 
L 496.571429 481.710105 
L 499.714286 482.936237 
L 502.857143 479.737631 
L 506 498.129617 
L 509.142857 509.164808 
L 512.285714 515.935192 
L 515.428571 556.237631 
L 518.571429 561.03554 
L 521.714286 560.92892 
L 524.857143 560.98223 
L 528 563.114634 
L 531.142857 561.515331 
L 534.285714 562.581533 
L 537.428571 563.381185 
L 540.571429 566.25993 
L 543.714286 564.660627 
L 546.857143 568.339024 
L 550 567.272822 
L 553.142857 565.94007 
L 556.285714 560.182578 
L 559.428571 557.517073 
L 562.571429 560.182578 
L 565.714286 559.169686 
L 568.857143 559.329617 
L 572 564.127526 
L 575.142857 563.061324 
L 578.285714 565.566899 
L 581.428571 566.15331 
L 584.571429 570.151568 
L 587.714286 569.405226 
L 590.857143 575.589199 
L 594 572.283972 
L 597.142857 571.11115 
L 600.285714 574.149826 
L 603.428571 574.842857 
L 606.571429 575.322648 
L 609.714286 570.258188 
L 612.857143 572.923693 
L 616 574.043206 
L 619.142857 577.188502 
L 622.285714 578.148084 
L 625.428571 579.374216 
L 628.571429 580.813589 
L 631.714286 579.800697 
L 634.857143 580.013937 
L 638 578.094774 
L 641.142857 577.295122 
L 644.285714 579.427526 
L 647.428571 578.148084 
L 650.571429 577.401742 
L 653.714286 578.094774 
L 656.857143 576.015679 
L 663.142857 577.295122 
L 666.285714 577.295122 
L 669.428571 576.49547 
L 672.571429 579.214286 
L 675.714286 581.026829 
L 678.857143 581.61324 
L 682 581.879791 
L 685.142857 583.585714 
L 688.285714 582.039721 
L 691.428571 584.332056 
L 694.571429 579.320906 
L 697.714286 573.616725 
L 700.857143 572.870383 
L 704 569.618467 
L 707.142857 571.857491 
L 710.285714 572.603833 
L 713.428571 571.537631 
L 716.571429 573.243554 
L 719.714286 572.977003 
L 722.857143 571.27108 
L 726 571.964111 
L 729.142857 572.923693 
L 732.285714 572.390592 
L 735.428571 573.456794 
L 738.571429 568.445645 
L 741.714286 568.445645 
L 748 576.015679 
L 751.142857 579.747387 
L 754.285714 579.640767 
L 757.428571 580.333798 
L 760.571429 580.280488 
L 763.714286 581.50662 
L 766.857143 581.34669 
L 770 582.146341 
L 773.142857 583.692334 
L 776.285714 585.931359 
L 779.428571 584.918467 
L 782.571429 583.745645 
L 785.714286 585.824739 
L 788.857143 588.543554 
L 788.857143 588.543554 
" clip-path="url(#pb6fb90b2ad)" style="fill: none; stroke: #000000; stroke-width: 1.5; stroke-linecap: square"/>
   </g>
   <g id="line2d_2">
    <path d="M 0 459 
L 3.142857 459 
L 6.285714 462.482927 
L 9.428571 462.777402 
L 12.571429 460.080418 
L 18.857143 467.19114 
L 22 471.686965 
L 25.142857 481.240557 
L 28.285714 486.818258 
L 34.571429 489.423136 
L 37.714286 490.02899 
L 40.857143 490.501045 
L 44 496.242439 
L 47.142857 499.343206 
L 50.285714 505.494355 
L 53.428571 509.958397 
L 56.571429 512.864948 
L 59.714286 514.583624 
L 62.857143 519.002091 
L 66 522.869686 
L 69.142857 524.996028 
L 72.285714 529.858118 
L 75.428571 530.826063 
L 78.571429 528.628641 
L 81.714286 525.386551 
L 84.857143 527.61784 
L 88 530.191359 
L 91.142857 530.187178 
L 94.285714 531.361672 
L 97.428571 527.86662 
L 100.571429 519.408084 
L 103.714286 516.125854 
L 106.857143 513.90439 
L 110 515.615122 
L 113.142857 511.835331 
L 116.285714 509.442021 
L 119.428571 510.194216 
L 122.571429 513.369199 
L 125.714286 518.809547 
L 128.857143 523.506272 
L 132 520.638815 
L 135.142857 519.247526 
L 138.285714 515.358815 
L 141.428571 514.861463 
L 144.571429 514.043206 
L 147.714286 514.880906 
L 150.857143 519.271986 
L 154 525.099094 
L 157.142857 527.551359 
L 160.285714 527.920976 
L 163.428571 529.161951 
L 166.571429 532.506272 
L 169.714286 536.160836 
L 172.857143 535.521324 
L 176 533.179024 
L 179.142857 532.100697 
L 182.285714 529.93108 
L 185.428571 528.689059 
L 188.571429 521.641672 
L 191.714286 511.470941 
L 194.857143 507.742578 
L 198 505.861254 
L 201.142857 480.603972 
L 204.285714 467.680557 
L 207.428571 471.286829 
L 210.571429 475.873589 
L 213.714286 481.77784 
L 216.857143 484.729129 
L 220 491.818955 
L 223.142857 497.558258 
L 226.285714 502.289059 
L 229.428571 508.642787 
L 232.571429 510.495889 
L 235.714286 514.890314 
L 238.857143 514.103206 
L 242 515.074495 
L 245.142857 516.983206 
L 248.285714 514.71784 
L 254.571429 519.682787 
L 257.714286 521.830244 
L 260.857143 521.712962 
L 264 525.572822 
L 270.285714 527.61115 
L 273.428571 529.058676 
L 276.571429 529.87547 
L 279.714286 529.609756 
L 282.857143 528.911498 
L 286 531.323206 
L 289.142857 535.002439 
L 292.285714 540.163902 
L 295.428571 544.562091 
L 298.571429 550.691289 
L 301.714286 551.534425 
L 304.857143 550.326272 
L 308 549.991986 
L 311.142857 546.629686 
L 314.285714 545.313449 
L 317.428571 543.786063 
L 320.571429 545.825017 
L 323.714286 548.03331 
L 326.857143 552.330523 
L 333.142857 548.644599 
L 336.285714 541.843066 
L 339.428571 538.681672 
L 342.571429 541.198537 
L 345.714286 541.134774 
L 348.857143 543.372753 
L 352 545.817282 
L 355.142857 544.058049 
L 358.285714 541.977909 
L 361.428571 542.941045 
L 364.571429 544.358258 
L 367.714286 547.593031 
L 370.857143 548.038118 
L 374 545.977213 
L 377.142857 547.563972 
L 380.285714 546.38885 
L 386.571429 545.359652 
L 389.714286 546.56446 
L 392.857143 546.033031 
L 396 541.329826 
L 399.142857 540.994077 
L 402.285714 540.093449 
L 405.428571 539.918467 
L 408.571429 539.884181 
L 411.714286 541.875052 
L 414.857143 543.42669 
L 418 539.095819 
L 421.142857 536.466063 
L 424.285714 534.367317 
L 427.428571 531.581394 
L 430.571429 531.418328 
L 433.714286 531.550662 
L 436.857143 530.779443 
L 440 527.260767 
L 443.142857 526.003066 
L 446.285714 522.271986 
L 449.428571 521.800976 
L 452.571429 525.586202 
L 455.714286 529.052822 
L 458.857143 533.140139 
L 462 533.982857 
L 468.285714 534.283484 
L 471.428571 532.195401 
L 474.571429 527.158746 
L 477.714286 521.012195 
L 480.857143 516.728571 
L 484 505.158188 
L 487.142857 494.614495 
L 490.285714 493.38439 
L 493.428571 489.50446 
L 496.571429 482.782997 
L 499.714286 482.167317 
L 502.857143 482.489059 
L 506 481.049059 
L 509.142857 489.597909 
L 512.285714 499.430174 
L 515.428571 507.72899 
L 518.571429 532.121394 
L 521.714286 546.744669 
L 524.857143 553.992125 
L 528 557.640209 
L 531.142857 560.540906 
L 534.285714 561.152404 
L 540.571429 562.769477 
L 543.714286 564.534355 
L 546.857143 564.604599 
L 550 566.486341 
L 553.142857 566.891916 
L 556.285714 566.421533 
L 559.428571 563.299443 
L 562.571429 560.398328 
L 565.714286 560.284181 
L 568.857143 559.713031 
L 572 559.510871 
L 575.142857 561.810941 
L 578.285714 562.427875 
L 581.428571 563.996655 
L 584.571429 565.08669 
L 587.714286 567.643902 
L 590.857143 568.542648 
L 594 572.098118 
L 597.142857 572.216446 
L 600.285714 571.677491 
L 603.428571 572.935401 
L 606.571429 573.907317 
L 609.714286 574.632962 
L 612.857143 572.445784 
L 616 572.691638 
L 619.142857 573.36439 
L 622.285714 575.286063 
L 628.571429 578.062787 
L 631.714286 579.449895 
L 638 579.843136 
L 644.285714 578.143484 
L 647.428571 578.789895 
L 650.571429 578.46899 
L 653.714286 577.931498 
L 656.857143 578.007805 
L 660 577.004321 
L 663.142857 576.796516 
L 666.285714 577.044251 
L 669.428571 577.169686 
L 672.571429 576.826829 
L 675.714286 578.022648 
L 678.857143 579.531847 
L 682 580.579443 
L 685.142857 581.241115 
L 688.285714 582.427108 
L 691.428571 582.242718 
L 694.571429 583.301185 
L 697.714286 581.316585 
L 700.857143 577.455679 
L 704 575.147038 
L 707.142857 572.359233 
L 710.285714 572.088711 
L 713.428571 572.324739 
L 716.571429 571.910592 
L 719.714286 572.555331 
L 722.857143 572.753728 
L 726 572.007805 
L 729.142857 571.984181 
L 732.285714 572.460418 
L 735.428571 572.426551 
L 738.571429 572.943345 
L 741.714286 570.688432 
L 744.857143 569.557631 
L 748 570.919443 
L 751.142857 573.476864 
L 754.285714 576.627387 
L 757.428571 578.147247 
L 760.571429 579.256098 
L 763.714286 579.781672 
L 766.857143 580.669756 
L 770 581.033519 
L 773.142857 581.609268 
L 776.285714 582.665854 
L 779.428571 584.310732 
L 782.571429 584.624948 
L 785.714286 584.191986 
L 788.857143 585.019233 
L 788.857143 585.019233 
" clip-path="url(#pb6fb90b2ad)" style="fill: none; stroke: #000000; stroke-width: 1.5; stroke-linecap: square"/>
   </g>
   <g id="line2d_3">
    <path d="M 0 459 
L 3.142857 459 
L 6.285714 462.060377 
L 9.428571 462.485314 
L 12.571429 460.624561 
L 15.714286 462.891628 
L 18.857143 465.479122 
L 22 468.895551 
L 25.142857 475.713781 
L 28.285714 480.785823 
L 31.428571 483.40236 
L 34.571429 485.546031 
L 37.714286 487.021912 
L 40.857143 488.164379 
L 44 492.20771 
L 47.142857 495.192203 
L 50.285714 500.006126 
L 53.428571 504.266775 
L 56.571429 507.665393 
L 59.714286 510.226742 
L 62.857143 514.128779 
L 66 517.849156 
L 69.142857 520.601099 
L 72.285714 524.766617 
L 75.428571 526.848833 
L 78.571429 526.751867 
L 81.714286 525.432515 
L 84.857143 526.755564 
L 88 528.553309 
L 91.142857 529.071659 
L 94.285714 530.115291 
L 97.428571 528.470039 
L 100.571429 523.361552 
L 103.714286 520.29476 
L 106.857143 517.779822 
L 110 517.662472 
L 113.142857 514.859505 
L 116.285714 512.575879 
L 119.428571 512.104926 
L 122.571429 513.393458 
L 125.714286 516.549477 
L 128.857143 519.947222 
L 132 519.297986 
L 135.142857 518.861441 
L 138.285714 516.66834 
L 141.428571 515.966995 
L 144.571429 515.139192 
L 147.714286 515.299897 
L 150.857143 517.764537 
L 154 521.637012 
L 157.142857 524.094455 
L 160.285714 525.324026 
L 163.428571 526.815398 
L 166.571429 529.470012 
L 169.714286 532.502616 
L 172.857143 533.198487 
L 176 532.50613 
L 179.142857 532.074731 
L 182.285714 530.825426 
L 185.428571 529.84786 
L 188.571429 525.401867 
L 191.714286 518.36727 
L 194.857143 514.19379 
L 198 511.224141 
L 201.142857 494.86622 
L 204.285714 483.118666 
L 207.428571 480.706943 
L 210.571429 480.633799 
L 213.714286 482.680193 
L 216.857143 484.105292 
L 226.285714 496.827886 
L 229.428571 502.062099 
L 232.571429 505.014562 
L 235.714286 509.140438 
L 238.857143 510.3326 
L 242 511.990216 
L 245.142857 514.005676 
L 248.285714 513.549835 
L 251.428571 515.383671 
L 257.714286 519.40394 
L 260.857143 520.090095 
L 264 522.855683 
L 273.428571 527.029 
L 276.571429 528.11658 
L 279.714286 528.484606 
L 282.857143 528.418596 
L 286 529.978526 
L 289.142857 532.546172 
L 295.428571 540.021072 
L 298.571429 544.962204 
L 301.714286 547.146848 
L 308 548.301223 
L 311.142857 546.840746 
L 314.285714 546.018549 
L 317.428571 544.937698 
L 320.571429 545.818052 
L 323.714286 547.143867 
L 326.857143 549.946488 
L 330 549.594137 
L 333.142857 548.797633 
L 336.285714 544.779525 
L 339.428571 542.073678 
L 342.571429 542.551098 
L 345.714286 542.116427 
L 348.857143 543.132476 
L 352 544.639784 
L 355.142857 543.953701 
L 358.285714 542.762562 
L 361.428571 543.087566 
L 364.571429 543.865161 
L 367.714286 545.906125 
L 370.857143 546.653158 
L 374 545.846226 
L 377.142857 546.804541 
L 380.285714 546.331316 
L 386.571429 545.700737 
L 389.714286 546.318291 
L 392.857143 546.087233 
L 396 543.324733 
L 399.142857 542.541802 
L 402.285714 541.561888 
L 405.428571 541.032597 
L 408.571429 540.692437 
L 414.857143 542.608102 
L 418 540.304833 
L 424.285714 536.598087 
L 427.428571 534.301364 
L 430.571429 533.402936 
L 433.714286 532.89287 
L 436.857143 532.046875 
L 440 529.611276 
L 443.142857 528.173776 
L 446.285714 525.349128 
L 449.428571 524.162329 
L 452.571429 525.676099 
L 455.714286 527.670732 
L 458.857143 530.460463 
L 462 531.723116 
L 465.142857 532.457906 
L 468.285714 533.020527 
L 471.428571 532.149755 
L 474.571429 529.200168 
L 477.714286 525.002296 
L 480.857143 521.325742 
L 484 513.207795 
L 487.142857 504.679217 
L 490.285714 501.022751 
L 493.428571 496.523738 
L 496.571429 490.543662 
L 499.714286 487.910816 
L 502.857143 486.400463 
L 506 484.388345 
L 509.142857 488.368187 
L 515.428571 500.707607 
L 518.571429 516.99708 
L 521.714286 529.931222 
L 524.857143 539.054814 
L 528 545.53011 
L 531.142857 550.738607 
L 534.285714 553.972862 
L 537.428571 556.584234 
L 540.571429 558.656637 
L 543.714286 560.975989 
L 546.857143 562.156717 
L 550 564.066975 
L 553.142857 565.102815 
L 556.285714 565.447053 
L 559.428571 563.976399 
L 562.571429 562.140043 
L 565.714286 561.617538 
L 568.857143 560.903946 
L 572 560.440877 
L 575.142857 561.524345 
L 578.285714 561.976904 
L 581.428571 563.031206 
L 584.571429 563.950976 
L 587.714286 565.775782 
L 590.857143 566.845741 
L 594 569.417356 
L 597.142857 570.265725 
L 600.285714 570.516528 
L 606.571429 572.551972 
L 609.714286 573.380874 
L 612.857143 572.480895 
L 616 572.625222 
L 619.142857 573.057624 
L 625.428571 575.434726 
L 631.714286 577.856815 
L 634.857143 578.44184 
L 638 578.913625 
L 641.142857 578.68377 
L 644.285714 578.279004 
L 647.428571 578.623603 
L 650.571429 578.492409 
L 653.714286 578.176695 
L 656.857143 578.156436 
L 660 577.530219 
L 663.142857 577.265663 
L 669.428571 577.287678 
L 672.571429 577.05485 
L 675.714286 577.688559 
L 682 579.53171 
L 685.142857 580.221835 
L 688.285714 581.211195 
L 691.428571 581.458396 
L 694.571429 582.308154 
L 697.714286 581.433087 
L 700.857143 579.138523 
L 704 577.297422 
L 707.142857 575.038573 
L 710.285714 574.102079 
L 713.428571 573.658661 
L 716.571429 573.030812 
L 722.857143 573.05178 
L 726 572.521102 
L 729.142857 572.347554 
L 732.285714 572.50632 
L 735.428571 572.461525 
L 738.571429 572.741399 
L 741.714286 571.467587 
L 744.857143 570.564234 
L 748 571.059851 
L 751.142857 572.514135 
L 754.285714 574.640604 
L 757.428571 576.116629 
L 760.571429 577.361545 
L 766.857143 579.197828 
L 773.142857 580.523584 
L 776.285714 581.465957 
L 779.428571 582.789886 
L 782.571429 583.42711 
L 785.714286 583.533449 
L 788.857143 584.218758 
L 788.857143 584.218758 
" clip-path="url(#pb6fb90b2ad)" style="fill: none; stroke: #000000; stroke-width: 1.5; stroke-linecap: square"/>
   </g>
   <g id="line2d_4">
    <path d="M 0 459 
L 3.142857 459 
L 6.285714 461.83796 
L 9.428571 462.293335 
L 12.571429 460.838245 
L 15.714286 462.528867 
L 18.857143 464.520653 
L 22 467.145266 
L 25.142857 472.146262 
L 28.285714 476.199366 
L 31.428571 478.758384 
L 34.571429 480.96384 
L 37.714286 482.698966 
L 40.857143 484.153386 
L 44 487.243953 
L 47.142857 489.838831 
L 50.285714 493.52578 
L 53.428571 497.020406 
L 56.571429 500.124594 
L 59.714286 502.781255 
L 66 509.490898 
L 69.142857 512.343462 
L 72.285714 515.950585 
L 75.428571 518.498569 
L 78.571429 519.769869 
L 81.714286 520.147826 
L 84.857143 521.697251 
L 88 523.466082 
L 91.142857 524.539591 
L 94.285714 525.815497 
L 97.428571 525.591074 
L 100.571429 523.265375 
L 106.857143 520.09972 
L 110 519.700066 
L 116.285714 516.208042 
L 119.428571 515.409515 
L 122.571429 515.62018 
L 125.714286 517.005872 
L 128.857143 518.800247 
L 135.142857 518.540819 
L 138.285714 517.426853 
L 144.571429 516.362804 
L 147.714286 516.26919 
L 150.857143 517.453466 
L 154 519.605641 
L 157.142857 521.261295 
L 160.285714 522.380712 
L 163.428571 523.649691 
L 166.571429 525.583248 
L 169.714286 527.83902 
L 172.857143 528.947778 
L 179.142857 529.529178 
L 185.428571 528.964548 
L 188.571429 526.676691 
L 191.714286 522.642694 
L 194.857143 519.683327 
L 198 517.191346 
L 201.142857 507.36398 
L 204.285714 499.005353 
L 207.428571 495.179019 
L 210.571429 492.843512 
L 213.714286 492.026369 
L 216.857143 491.331354 
L 220 492.532659 
L 223.142857 494.23761 
L 226.285714 496.228537 
L 229.428571 499.168987 
L 232.571429 501.239363 
L 235.714286 504.08723 
L 238.857143 505.540808 
L 242 507.195589 
L 245.142857 509.047603 
L 248.285714 509.58158 
L 251.428571 511.166665 
L 257.714286 514.661747 
L 260.857143 515.759272 
L 264 517.924084 
L 273.428571 522.411628 
L 276.571429 523.722088 
L 279.714286 524.61104 
L 282.857143 525.181768 
L 286 526.538945 
L 289.142857 528.480077 
L 292.285714 531.176488 
L 295.428571 534.02122 
L 298.571429 537.665097 
L 301.714286 540.052702 
L 304.857143 541.541377 
L 308 542.865842 
L 317.428571 543.051756 
L 320.571429 543.848563 
L 323.714286 544.899047 
L 326.857143 546.793496 
L 330 547.112827 
L 333.142857 547.084919 
L 336.285714 545.183808 
L 339.428571 543.665498 
L 342.571429 543.689869 
L 345.714286 543.291327 
L 348.857143 543.683969 
L 352 544.435437 
L 355.142857 544.112024 
L 358.285714 543.455791 
L 361.428571 543.535547 
L 364.571429 543.895785 
L 367.714286 545.008806 
L 370.857143 545.569379 
L 374 545.315849 
L 377.142857 545.937002 
L 386.571429 545.624204 
L 389.714286 545.969915 
L 392.857143 545.898864 
L 396 544.423351 
L 399.142857 543.816339 
L 402.285714 543.078759 
L 408.571429 542.114168 
L 411.714286 542.393877 
L 414.857143 542.807434 
L 424.285714 539.015187 
L 427.428571 537.37835 
L 430.571429 536.39859 
L 433.714286 535.643998 
L 436.857143 534.752814 
L 440 533.006856 
L 443.142857 531.686869 
L 446.285714 529.590775 
L 449.428571 528.268135 
L 452.571429 528.431532 
L 455.714286 529.075048 
L 458.857143 530.367003 
L 462 531.067763 
L 468.285714 532.007515 
L 471.428571 531.68656 
L 474.571429 530.150749 
L 480.857143 525.270411 
L 484 520.224505 
L 487.142857 514.466068 
L 490.285714 510.907768 
L 493.428571 506.878163 
L 496.571429 501.971002 
L 499.714286 498.710633 
L 506 493.51452 
L 509.142857 494.222754 
L 512.285714 496.578435 
L 515.428571 499.640037 
L 518.571429 508.658288 
L 521.714286 517.00866 
L 524.857143 524.014393 
L 528 529.916165 
L 531.142857 535.218018 
L 534.285714 539.420608 
L 537.428571 543.125884 
L 543.714286 549.563175 
L 546.857143 551.993972 
L 550 554.623832 
L 553.142857 556.659981 
L 556.285714 558.157332 
L 559.428571 558.493892 
L 562.571429 558.352646 
L 565.714286 558.65996 
L 572 558.865968 
L 575.142857 559.729311 
L 578.285714 560.289482 
L 584.571429 562.001502 
L 587.714286 563.351792 
L 590.857143 564.363012 
L 594 566.205152 
L 597.142857 567.232219 
L 600.285714 567.905151 
L 606.571429 569.951634 
L 609.714286 570.854345 
L 612.857143 570.797613 
L 619.142857 571.639455 
L 628.571429 574.392792 
L 631.714286 575.425407 
L 638 576.761297 
L 641.142857 576.982639 
L 644.285714 577.039241 
L 647.428571 577.428439 
L 650.571429 577.549058 
L 653.714286 577.531939 
L 656.857143 577.629072 
L 660 577.382254 
L 663.142857 577.270035 
L 669.428571 577.29767 
L 672.571429 577.180748 
L 675.714286 577.513704 
L 688.285714 579.887863 
L 691.428571 580.238114 
L 694.571429 580.89493 
L 697.714286 580.648888 
L 704 578.470986 
L 707.142857 577.059258 
L 710.285714 576.229477 
L 716.571429 574.998279 
L 722.857143 574.438876 
L 726 573.930577 
L 729.142857 573.613082 
L 738.571429 573.335641 
L 741.714286 572.551605 
L 744.857143 571.89281 
L 748 571.950588 
L 751.142857 572.596029 
L 754.285714 573.735299 
L 760.571429 575.578739 
L 776.285714 579.342319 
L 779.428571 580.393719 
L 782.571429 581.115685 
L 785.714286 581.535285 
L 788.857143 582.21915 
L 788.857143 582.21915 
" clip-path="url(#pb6fb90b2ad)" style="fill: none; stroke: #000000; stroke-width: 1.5; stroke-linecap: square"/>
   </g>
   <g id="line2d_5">
    <path d="M 0 459 
L 3.142857 459 
L 6.285714 461.725289 
L 9.428571 462.186861 
L 12.571429 460.921263 
L 15.714286 462.35542 
L 18.857143 464.047738 
L 22 466.249692 
L 25.142857 470.311485 
L 28.285714 473.6764 
L 31.428571 475.93387 
L 34.571429 477.909426 
L 37.714286 479.526709 
L 40.857143 480.920975 
L 44 483.394248 
L 47.142857 485.556155 
L 53.428571 491.223342 
L 56.571429 493.79225 
L 59.714286 496.096317 
L 66 501.587755 
L 69.142857 504.067443 
L 72.285714 507.000866 
L 75.428571 509.345062 
L 78.571429 510.942308 
L 81.714286 511.9789 
L 88 515.355431 
L 94.285714 518.111874 
L 97.428571 518.672959 
L 100.571429 517.996394 
L 106.857143 517.037236 
L 110 517.06665 
L 116.285714 515.500759 
L 119.428571 515.115439 
L 122.571429 515.240843 
L 125.714286 516.008254 
L 128.857143 517.045119 
L 135.142857 517.168735 
L 138.285714 516.683985 
L 147.714286 516.167553 
L 150.857143 516.799701 
L 154 517.988271 
L 157.142857 518.994748 
L 163.428571 520.658199 
L 166.571429 521.924965 
L 169.714286 523.415019 
L 172.857143 524.368629 
L 179.142857 525.418489 
L 185.428571 525.768188 
L 188.571429 524.840777 
L 191.714286 522.888288 
L 194.857143 521.326133 
L 198 519.890346 
L 201.142857 514.537037 
L 204.285714 509.598989 
L 207.428571 506.739223 
L 210.571429 504.57916 
L 216.857143 501.918839 
L 220 501.67993 
L 223.142857 501.823296 
L 226.285714 502.243173 
L 229.428571 503.289538 
L 232.571429 504.036768 
L 235.714286 505.299061 
L 238.857143 505.963558 
L 242 506.799318 
L 245.142857 507.802 
L 248.285714 508.188283 
L 251.428571 509.134716 
L 257.714286 511.360107 
L 260.857143 512.210573 
L 264 513.636659 
L 276.571429 518.259566 
L 279.714286 519.178162 
L 282.857143 519.928627 
L 286 521.07182 
L 289.142857 522.532274 
L 292.285714 524.423141 
L 295.428571 526.458357 
L 298.571429 528.980252 
L 301.714286 530.928519 
L 308 533.877595 
L 314.285714 535.446911 
L 317.428571 536.024666 
L 323.714286 538.130038 
L 326.857143 539.674416 
L 330 540.427494 
L 333.142857 540.965987 
L 339.428571 540.081277 
L 342.571429 540.391986 
L 345.714286 540.459621 
L 348.857143 540.898386 
L 352 541.520243 
L 355.142857 541.590639 
L 358.285714 541.455621 
L 361.428571 541.661063 
L 364.571429 542.004242 
L 367.714286 542.739147 
L 370.857143 543.216332 
L 374 543.27795 
L 377.142857 543.771058 
L 386.571429 544.094682 
L 389.714286 544.409773 
L 392.857143 544.516458 
L 396 543.876052 
L 408.571429 542.77996 
L 414.857143 543.083743 
L 421.142857 541.712651 
L 424.285714 540.940994 
L 427.428571 539.943514 
L 436.857143 537.907026 
L 440 536.741735 
L 443.142857 535.752227 
L 446.285714 534.32865 
L 449.428571 533.256284 
L 452.571429 532.936876 
L 455.714286 532.905198 
L 458.857143 533.266461 
L 465.142857 533.472858 
L 468.285714 533.550426 
L 471.428571 533.2614 
L 474.571429 532.333933 
L 480.857143 529.354416 
L 484 526.388865 
L 487.142857 522.877001 
L 490.285714 520.325717 
L 493.428571 517.442119 
L 496.571429 514.001573 
L 499.714286 511.297099 
L 506 506.476056 
L 509.142857 505.766591 
L 512.285714 506.037542 
L 515.428571 506.84988 
L 521.714286 515.11431 
L 524.857143 518.920208 
L 531.142857 525.795414 
L 534.285714 528.764812 
L 537.428571 531.580416 
L 543.714286 536.894601 
L 553.142857 543.766254 
L 556.285714 545.614278 
L 559.428571 546.829981 
L 562.571429 547.721409 
L 565.714286 548.760337 
L 572 550.435813 
L 575.142857 551.578746 
L 578.285714 552.536282 
L 584.571429 554.671015 
L 587.714286 555.96408 
L 590.857143 557.086685 
L 594 558.632105 
L 597.142857 559.776745 
L 600.285714 560.727363 
L 606.571429 562.942282 
L 609.714286 563.981341 
L 612.857143 564.510883 
L 619.142857 565.963414 
L 634.857143 570.682331 
L 638 571.473075 
L 641.142857 572.040312 
L 644.285714 572.493531 
L 647.428571 573.088822 
L 653.714286 573.864404 
L 656.857143 574.230343 
L 663.142857 574.588252 
L 669.428571 575.045733 
L 672.571429 575.181168 
L 675.714286 575.534483 
L 691.428571 577.956874 
L 694.571429 578.518053 
L 697.714286 578.618227 
L 704 577.817228 
L 707.142857 577.166018 
L 713.428571 576.426008 
L 716.571429 576.03839 
L 722.857143 575.580561 
L 729.142857 574.959087 
L 738.571429 574.506339 
L 744.857143 573.544284 
L 748 573.442164 
L 751.142857 573.658254 
L 760.571429 575.106641 
L 770 576.492527 
L 776.285714 577.533558 
L 779.428571 578.237985 
L 782.571429 578.798737 
L 785.714286 579.215036 
L 788.857143 579.768716 
L 788.857143 579.768716 
" clip-path="url(#pb6fb90b2ad)" style="fill: none; stroke: #000000; stroke-width: 1.5; stroke-linecap: square"/>
   </g>
   <g id="line2d_6">
    <path d="M 0 459 
L 3.142857 459 
L 6.285714 461.668769 
L 9.428571 462.131263 
L 12.571429 460.955931 
L 15.714286 462.270923 
L 18.857143 463.817667 
L 22 465.81036 
L 25.142857 469.415996 
L 28.285714 472.416391 
L 31.428571 474.46926 
L 34.571429 476.268862 
L 37.714286 477.757823 
L 40.857143 479.049755 
L 44 481.176515 
L 47.142857 483.054269 
L 53.428571 487.819637 
L 56.571429 490.000082 
L 59.714286 491.980455 
L 66 496.565264 
L 69.142857 498.666888 
L 72.285714 501.081593 
L 75.428571 503.090661 
L 78.571429 504.583715 
L 81.714286 505.683828 
L 88 508.708608 
L 94.285714 511.294039 
L 97.428571 512.046662 
L 103.714286 512.039802 
L 106.857143 512.022414 
L 110 512.313154 
L 116.285714 511.826971 
L 119.428571 511.785147 
L 122.571429 512.034192 
L 125.714286 512.660652 
L 128.857143 513.450823 
L 135.142857 513.878333 
L 138.285714 513.757759 
L 147.714286 513.854108 
L 150.857143 514.329487 
L 157.142857 515.838311 
L 163.428571 517.087912 
L 166.571429 517.968457 
L 169.714286 518.988622 
L 172.857143 519.727464 
L 179.142857 520.742082 
L 185.428571 521.359754 
L 188.571429 521.052705 
L 191.714286 520.157237 
L 198 518.733844 
L 204.285714 513.137635 
L 207.428571 511.426903 
L 210.571429 510.046018 
L 216.857143 508.098366 
L 220 507.689943 
L 223.142857 507.494849 
L 226.285714 507.464878 
L 229.428571 507.78794 
L 232.571429 507.983051 
L 235.714286 508.474894 
L 242 509.002461 
L 245.142857 509.433112 
L 248.285714 509.563874 
L 254.571429 510.533294 
L 257.714286 511.118101 
L 260.857143 511.574431 
L 264 512.349237 
L 273.428571 514.41354 
L 279.714286 515.732402 
L 282.857143 516.271769 
L 286 517.024748 
L 289.142857 517.958743 
L 295.428571 520.419912 
L 298.571429 521.984334 
L 301.714286 523.289705 
L 308 525.480937 
L 320.571429 528.52828 
L 323.714286 529.460684 
L 326.857143 530.62462 
L 333.142857 532.057525 
L 339.428571 532.33072 
L 342.571429 532.817485 
L 345.714286 533.171549 
L 355.142857 534.669068 
L 358.285714 534.893499 
L 364.571429 535.723042 
L 367.714286 536.366302 
L 370.857143 536.881902 
L 374 537.182154 
L 377.142857 537.692258 
L 392.857143 539.27082 
L 396 539.160202 
L 405.428571 539.261148 
L 408.571429 539.299599 
L 414.857143 539.753747 
L 421.142857 539.32381 
L 424.285714 539.035424 
L 427.428571 538.60935 
L 436.857143 537.701708 
L 446.285714 535.841232 
L 449.428571 535.230983 
L 452.571429 534.985429 
L 455.714286 534.883698 
L 462 534.981248 
L 468.285714 534.930101 
L 471.428571 534.72423 
L 474.571429 534.187743 
L 480.857143 532.482103 
L 484 530.835621 
L 487.142857 528.853779 
L 490.285714 527.298098 
L 493.428571 525.531976 
L 496.571429 523.434183 
L 499.714286 521.65812 
L 506 518.298764 
L 509.142857 517.441398 
L 512.285714 517.089133 
L 515.428571 517.041503 
L 518.571429 518.711454 
L 524.857143 522.234997 
L 534.285714 527.084903 
L 550 534.53802 
L 556.285714 537.211138 
L 559.428571 538.190078 
L 572 541.528454 
L 581.428571 544.315778 
L 584.571429 545.248 
L 600.285714 550.456223 
L 609.714286 553.475519 
L 616 555.009844 
L 622.285714 556.749639 
L 638 561.26458 
L 647.428571 563.369519 
L 653.714286 564.58452 
L 656.857143 565.166608 
L 678.857143 568.530275 
L 694.571429 571.333601 
L 697.714286 571.677298 
L 704 571.812732 
L 710.285714 571.732525 
L 732.285714 571.921654 
L 738.571429 572.016233 
L 744.857143 571.729238 
L 748 571.757942 
L 751.142857 571.943508 
L 776.285714 574.698076 
L 782.571429 575.599909 
L 788.857143 576.377046 
L 788.857143 576.377046 
" clip-path="url(#pb6fb90b2ad)" style="fill: none; stroke: #000000; stroke-width: 1.5; stroke-linecap: square"/>
   </g>
   <g id="line2d_7">
    <path d="M 0 459 
L 3.142857 459 
L 6.285714 461.640485 
L 9.428571 462.102914 
L 12.571429 460.971475 
L 15.714286 462.229243 
L 18.857143 463.704792 
L 22 465.594563 
L 25.142857 468.97837 
L 28.285714 471.795607 
L 31.428571 473.736942 
L 34.571429 475.437217 
L 37.714286 476.847904 
L 40.857143 478.073027 
L 44 480.02165 
L 47.142857 481.745671 
L 53.428571 486.042413 
L 56.571429 488.008606 
L 59.714286 489.799221 
L 66 493.878322 
L 69.142857 495.751947 
L 72.285714 497.873123 
L 75.428571 499.661894 
L 78.571429 501.031297 
L 81.714286 502.080678 
L 88 504.802766 
L 94.285714 507.158476 
L 97.428571 507.914423 
L 106.857143 508.394157 
L 110 508.75624 
L 119.428571 508.760562 
L 122.571429 509.054148 
L 125.714286 509.614076 
L 128.857143 510.288672 
L 135.142857 510.814286 
L 141.428571 510.957114 
L 147.714286 511.191142 
L 150.857143 511.604622 
L 157.142857 512.811312 
L 163.428571 513.845795 
L 172.857143 515.91611 
L 179.142857 516.813014 
L 185.428571 517.447455 
L 188.571429 517.365214 
L 194.857143 516.530039 
L 198 516.172304 
L 204.285714 512.758191 
L 207.428571 511.697257 
L 210.571429 510.828269 
L 216.857143 509.567414 
L 220 509.275341 
L 226.285714 509.050072 
L 251.428571 510.355533 
L 260.857143 511.275776 
L 270.285714 512.558093 
L 279.714286 513.851503 
L 282.857143 514.209905 
L 289.142857 515.289024 
L 295.428571 516.839596 
L 298.571429 517.819231 
L 304.857143 519.405096 
L 308 520.139453 
L 320.571429 522.398404 
L 323.714286 523.067431 
L 326.857143 523.870621 
L 333.142857 524.995139 
L 339.428571 525.479386 
L 355.142857 527.586244 
L 361.428571 528.248763 
L 367.714286 529.171884 
L 370.857143 529.619836 
L 374 529.951515 
L 380.285714 530.73803 
L 392.857143 532.084379 
L 399.142857 532.383706 
L 411.714286 533.118854 
L 414.857143 533.388675 
L 424.285714 533.404973 
L 430.571429 533.256168 
L 436.857143 533.150195 
L 446.285714 532.438839 
L 449.428571 532.190502 
L 455.714286 532.135931 
L 462 532.306543 
L 471.428571 532.343755 
L 474.571429 532.116015 
L 480.857143 531.306203 
L 484 530.471937 
L 487.142857 529.446182 
L 490.285714 528.622551 
L 493.428571 527.673628 
L 496.571429 526.535052 
L 506 523.608796 
L 509.142857 523.045987 
L 512.285714 522.739569 
L 515.428571 522.589464 
L 521.714286 524.161998 
L 537.428571 528.127226 
L 559.428571 533.444654 
L 572 535.612826 
L 590.857143 539.442201 
L 597.142857 540.928136 
L 606.571429 543.002534 
L 609.714286 543.705608 
L 619.142857 545.538897 
L 641.142857 550.315701 
L 656.857143 553.195847 
L 682 557.224255 
L 697.714286 559.810257 
L 704 560.384096 
L 713.428571 561.08111 
L 741.714286 563.025981 
L 748 563.339815 
L 754.285714 563.960622 
L 776.285714 566.416046 
L 785.714286 567.580982 
L 788.857143 567.973618 
L 788.857143 567.973618 
" clip-path="url(#pb6fb90b2ad)" style="fill: none; stroke: #000000; stroke-width: 1.5; stroke-linecap: square"/>
   </g>
   <g id="line2d_8">
    <path d="M 0 459 
L 3.142857 459 
L 6.285714 461.626341 
L 9.428571 462.088608 
L 12.571429 460.978791 
L 15.714286 462.208546 
L 18.857143 463.64896 
L 22 465.487842 
L 25.142857 468.762642 
L 28.285714 471.488624 
L 31.428571 473.372513 
L 34.571429 475.020951 
L 37.714286 476.389641 
L 40.857143 477.5781 
L 44 479.43735 
L 47.142857 481.082727 
L 53.428571 485.144336 
L 56.571429 487.000722 
L 59.714286 488.691992 
L 66 492.511559 
L 69.142857 494.265085 
L 72.285714 496.235261 
L 75.428571 497.904969 
L 78.571429 499.198284 
L 81.714286 500.204337 
L 88 502.749069 
L 94.285714 504.958148 
L 97.428571 505.692917 
L 106.857143 506.33565 
L 110 506.712548 
L 119.428571 506.908859 
L 122.571429 507.211085 
L 128.857143 508.344757 
L 135.142857 508.889021 
L 141.428571 509.11206 
L 147.714286 509.400179 
L 150.857143 509.779221 
L 157.142857 510.837645 
L 163.428571 511.756126 
L 172.857143 513.537045 
L 182.285714 514.65554 
L 185.428571 514.94743 
L 188.571429 514.940855 
L 194.857143 514.40897 
L 198 514.184436 
L 204.285714 511.689765 
L 207.428571 510.918006 
L 210.571429 510.285986 
L 216.857143 509.368981 
L 223.142857 509.03979 
L 226.285714 508.995615 
L 251.428571 509.967181 
L 260.857143 510.646146 
L 276.571429 512.248817 
L 286 513.175441 
L 292.285714 514.147405 
L 295.428571 514.733197 
L 301.714286 516.051128 
L 308 517.140758 
L 323.714286 519.369221 
L 326.857143 519.962846 
L 333.142857 520.834315 
L 339.428571 521.284307 
L 355.142857 522.997019 
L 361.428571 523.565988 
L 389.714286 526.484201 
L 392.857143 526.760682 
L 402.285714 527.276751 
L 411.714286 527.863282 
L 414.857143 528.105827 
L 424.285714 528.336239 
L 443.142857 528.33963 
L 449.428571 528.112549 
L 455.714286 528.189327 
L 465.142857 528.478683 
L 471.428571 528.578245 
L 477.714286 528.310749 
L 480.857143 528.100615 
L 484 527.644666 
L 487.142857 527.070225 
L 493.428571 526.073498 
L 499.714286 524.845492 
L 506 523.715383 
L 509.142857 523.382123 
L 515.428571 523.103187 
L 524.857143 524.491655 
L 550 528.341258 
L 556.285714 529.302471 
L 590.857143 533.693717 
L 597.142857 534.6821 
L 622.285714 538.354894 
L 647.428571 542.144875 
L 663.142857 544.204529 
L 691.428571 547.878386 
L 697.714286 548.677733 
L 710.285714 549.759181 
L 732.285714 551.553105 
L 757.428571 553.55298 
L 785.714286 556.453656 
L 788.857143 556.792389 
L 788.857143 556.792389 
" clip-path="url(#pb6fb90b2ad)" style="fill: none; stroke: #000000; stroke-width: 1.5; stroke-linecap: square"/>
   </g>
   <g id="line2d_9">
    <path d="M 0 459 
L 3.142857 459 
L 6.285714 461.619268 
L 9.428571 462.081423 
L 12.571429 460.982335 
L 15.714286 462.198233 
L 18.857143 463.621203 
L 22 465.4348 
L 25.142857 468.655616 
L 28.285714 471.336118 
L 31.428571 473.190947 
L 34.571429 474.813013 
L 37.714286 476.160085 
L 40.857143 477.329496 
L 44 479.144113 
L 47.142857 480.749887 
L 53.428571 484.694224 
L 56.571429 486.495372 
L 59.714286 488.136231 
L 66 491.825329 
L 69.142857 493.517863 
L 72.285714 495.412162 
L 75.428571 497.020842 
L 78.571429 498.273271 
L 81.714286 499.253843 
L 88 501.704846 
L 94.285714 503.834156 
L 97.428571 504.553266 
L 106.857143 505.255829 
L 110 505.6349 
L 119.428571 505.907321 
L 122.571429 506.209928 
L 128.857143 507.290145 
L 135.142857 507.8352 
L 144.571429 508.213114 
L 147.714286 508.39358 
L 150.857143 508.7539 
L 157.142857 509.738468 
L 163.428571 510.596728 
L 172.857143 512.233533 
L 182.285714 513.287407 
L 185.428571 513.567082 
L 188.571429 513.588276 
L 194.857143 513.180716 
L 198 513.011061 
L 204.285714 510.917612 
L 207.428571 510.273915 
L 210.571429 509.748034 
L 216.857143 508.988378 
L 223.142857 508.722872 
L 226.285714 508.691029 
L 251.428571 509.544386 
L 264 510.408222 
L 286 512.260782 
L 292.285714 513.069344 
L 298.571429 514.133783 
L 308 515.548923 
L 323.714286 517.422998 
L 330 518.297449 
L 333.142857 518.649924 
L 342.571429 519.353968 
L 348.857143 519.926571 
L 355.142857 520.52377 
L 364.571429 521.306753 
L 370.857143 521.952766 
L 399.142857 524.091841 
L 421.142857 525.200205 
L 436.857143 525.48499 
L 455.714286 525.462661 
L 468.285714 525.837941 
L 474.571429 525.842609 
L 480.857143 525.610784 
L 490.285714 524.607832 
L 496.571429 523.791427 
L 506 522.618936 
L 512.285714 522.270663 
L 515.428571 522.212529 
L 528 523.560994 
L 559.428571 527.035486 
L 578.285714 528.735678 
L 590.857143 530.047246 
L 603.428571 531.480289 
L 647.428571 536.425495 
L 666.285714 538.337362 
L 691.428571 540.900119 
L 697.714286 541.530297 
L 716.571429 542.90466 
L 738.571429 544.439274 
L 751.142857 545.232651 
L 788.857143 548.384839 
L 788.857143 548.384839 
" clip-path="url(#pb6fb90b2ad)" style="fill: none; stroke: #000000; stroke-width: 1.5; stroke-linecap: square"/>
   </g>
  </g>
 </g>
 <defs>
  <clipPath id="pb6fb90b2ad">
   <rect x="0" y="0" width="792" height="612"/>
  </clipPath>
 </defs>
</svg>
