<?xml version="1.0" encoding="utf-8" standalone="no"?>
<!DOCTYPE svg PUBLIC "-//W3C//DTD SVG 1.1//EN"
  "http://www.w3.org/Graphics/SVG/1.1/DTD/svg11.dtd">
<svg xmlns:xlink="http://www.w3.org/1999/xlink" width="792pt" height="612pt" viewBox="0 0 792 612" xmlns="http://www.w3.org/2000/svg" version="1.1">
 <metadata>
  <rdf:RDF xmlns:dc="http://purl.org/dc/elements/1.1/" xmlns:cc="http://creativecommons.org/ns#" xmlns:rdf="http://www.w3.org/1999/02/22-rdf-syntax-ns#">
   <cc:Work>
    <dc:type rdf:resource="http://purl.org/dc/dcmitype/StillImage"/>
    <dc:date>2023-01-30T16:21:40.605755</dc:date>
    <dc:format>image/svg+xml</dc:format>
    <dc:creator>
     <cc:Agent>
      <dc:title>Matplotlib v3.6.2, https://matplotlib.org/</dc:title>
     </cc:Agent>
    </dc:creator>
   </cc:Work>
  </rdf:RDF>
 </metadata>
 <defs>
  <style type="text/css">*{stroke-linejoin: round; stroke-linecap: butt}</style>
 </defs>
 <g id="figure_1">
  <g id="patch_1">
   <path d="M 0 612 
L 792 612 
L 792 0 
L 0 0 
z
" style="fill: #ffffff"/>
  </g>
  <g id="axes_1">
   <g id="line2d_1">
    <path d="M 0 306 
L 3.168 314.443716 
L 6.336 310.060271 
L 9.504 307.624189 
L 12.672 327.566097 
L 15.84 316.06643 
L 19.008 307.299355 
L 22.176 329.020119 
L 25.344 297.2317 
L 28.512 289.773198 
L 31.68 293.014173 
L 34.848 329.343096 
L 38.016 314.930584 
L 41.184 298.205508 
L 44.352 313.145198 
L 47.52 281.365529 
L 50.688 265.471985 
L 53.856 311.684059 
L 57.024 302.426914 
L 60.192 323.198417 
L 63.36 277.979985 
L 66.528 302.914117 
L 69.696 317.850758 
L 72.864 322.874583 
L 76.032 329.181614 
L 79.2 318.012931 
L 82.368 274.440643 
L 85.536 306.324841 
L 88.704 286.535869 
L 91.872 314.7683 
L 95.04 302.589313 
L 98.208 313.632175 
L 101.376 330.150306 
L 104.544 328.050883 
L 107.712 303.076522 
L 110.88 300.803048 
L 114.048 312.33349 
L 117.216 322.550711 
L 120.384 318.012931 
L 123.552 291.069191 
L 126.72 293.824902 
L 129.888 306.649681 
L 133.056 296.095817 
L 136.224 305.025481 
L 139.392 267.228607 
L 142.56 265.950799 
L 145.728 314.281417 
L 148.896 305.83758 
L 152.064 168.84137 
L 155.232 304.213396 
L 158.4 366.271963 
L 161.568 322.874583 
L 164.736 327.727705 
L 167.904 305.83758 
L 171.072 339.96772 
L 174.24 319.310068 
L 177.408 316.715362 
L 180.576 330.150306 
L 183.744 298.205508 
L 186.912 327.081202 
L 190.08 287.992169 
L 193.248 314.281417 
L 196.416 314.7683 
L 199.584 286.535869 
L 202.752 327.727705 
L 205.92 313.956805 
L 209.088 311.359325 
L 212.256 298.854802 
L 215.424 329.66602 
L 218.592 300.315941 
L 221.76 309.410687 
L 224.928 311.521694 
L 231.264 301.939729 
L 234.432 302.589313 
L 237.6 322.712652 
L 240.768 321.092839 
L 243.936 326.111096 
L 247.104 317.039792 
L 250.272 329.827462 
L 253.44 292.527823 
L 256.608 296.095817 
L 259.776 307.624189 
L 262.944 286.697637 
L 266.112 308.273843 
L 269.28 300.803048 
L 272.448 323.036505 
L 275.616 313.307528 
L 278.784 325.302363 
L 281.952 281.849694 
L 285.12 300.315941 
L 288.288 270.42905 
L 291.456 307.461772 
L 294.624 330.795832 
L 297.792 298.043195 
L 300.96 319.796373 
L 304.128 314.119113 
L 307.296 287.830316 
L 310.464 298.692472 
L 313.632 318.012931 
L 316.8 311.684059 
L 319.968 321.416872 
L 323.136 298.854802 
L 326.304 292.203627 
L 329.472 321.902857 
L 332.64 293.987069 
L 335.808 306.487261 
L 338.976 304.375811 
L 342.144 314.930584 
L 345.312 299.179474 
L 348.48 279.107773 
L 351.648 318.175098 
L 354.816 301.61495 
L 357.984 307.624189 
L 361.152 306.324841 
L 364.32 318.175098 
L 367.488 309.410687 
L 370.656 275.083553 
L 373.824 303.076522 
L 376.992 301.290181 
L 380.16 295.446862 
L 383.328 313.469853 
L 389.664 300.965423 
L 392.832 287.021207 
L 396 308.923478 
L 399.168 287.183008 
L 402.336 314.443716 
L 405.504 330.311708 
L 408.672 315.579671 
L 411.84 320.282608 
L 415.008 298.692472 
L 418.176 304.375811 
L 421.344 306.324841 
L 424.512 292.852049 
L 427.68 281.849694 
L 430.848 284.1107 
L 434.016 298.692472 
L 437.184 249.484117 
L 440.352 277.17489 
L 443.52 330.473097 
L 446.688 286.212364 
L 449.856 277.013918 
L 453.024 322.550711 
L 456.192 309.735483 
L 459.36 296.25807 
L 462.528 361.416974 
L 465.696 339.486378 
L 468.864 326.596201 
L 472.032 422.597757 
L 475.2 320.606725 
L 478.368 305.675159 
L 481.536 306.16242 
L 484.704 312.495839 
L 487.872 301.1278 
L 491.04 309.248286 
L 494.208 308.436254 
L 497.376 314.7683 
L 500.544 301.1278 
L 503.712 317.201998 
L 506.88 302.751714 
L 510.048 301.939729 
L 513.216 288.477788 
L 516.384 297.880887 
L 519.552 314.119113 
L 522.72 302.914117 
L 525.888 306.487261 
L 529.056 320.606725 
L 532.224 302.751714 
L 535.392 313.632175 
L 538.56 307.786604 
L 541.728 318.175098 
L 544.896 303.726157 
L 548.064 324.816992 
L 551.232 295.93357 
L 554.4 302.426914 
L 557.568 315.255138 
L 560.736 308.111431 
L 563.904 307.461772 
L 567.072 290.583128 
L 570.24 314.119113 
L 573.408 309.410687 
L 576.576 315.579671 
L 579.744 308.923478 
L 582.912 309.735483 
L 586.08 310.38505 
L 589.248 302.914117 
L 592.416 306.649681 
L 595.584 300.153578 
L 598.752 303.563746 
L 601.92 312.495839 
L 605.088 302.102122 
L 608.256 303.726157 
L 611.424 308.111431 
L 614.592 299.66651 
L 617.76 307.786604 
L 620.928 308.111431 
L 624.096 306 
L 627.264 303.563746 
L 630.432 314.281417 
L 633.6 311.521694 
L 636.768 307.786604 
L 639.936 306.8121 
L 643.104 311.196952 
L 646.272 301.290181 
L 649.44 312.982864 
L 652.608 290.74514 
L 655.776 288.639681 
L 658.944 303.726157 
L 662.112 296.095817 
L 665.28 312.820526 
L 668.448 308.273843 
L 671.616 302.751714 
L 674.784 311.196952 
L 677.952 305.1879 
L 681.12 300.803048 
L 684.288 308.111431 
L 687.456 308.923478 
L 690.624 304.375811 
L 693.792 309.248286 
L 696.96 290.74514 
L 700.128 306 
L 703.296 317.688578 
L 706.464 317.364198 
L 709.632 317.364198 
L 712.8 305.675159 
L 715.968 308.111431 
L 719.136 305.83758 
L 722.304 309.735483 
L 725.472 305.512739 
L 728.64 308.436254 
L 731.808 310.709819 
L 734.976 312.820526 
L 738.144 302.914117 
L 741.312 302.426914 
L 744.48 312.33349 
L 747.648 314.281417 
L 750.816 312.008782 
L 753.984 309.085883 
L 757.152 301.1278 
L 760.32 307.136937 
L 763.488 308.273843 
L 766.656 303.401336 
L 769.824 308.111431 
L 772.992 307.786604 
L 776.16 304.700645 
L 779.328 303.888569 
L 782.496 292.041541 
L 785.664 304.375811 
L 788.832 305.350319 
L 788.832 305.350319 
" clip-path="url(#p757080ed6d)" style="fill: none; stroke: #000000; stroke-width: 1.5; stroke-linecap: square"/>
   </g>
   <g id="line2d_2">
    <path d="M 0 306 
L 3.168 306 
L 6.336 311.629938 
L 9.504 310.733016 
L 12.672 309.075056 
L 15.84 318.630174 
L 19.008 317.328154 
L 22.176 312.275964 
L 25.344 320.69188 
L 28.512 308.948953 
L 31.68 299.306164 
L 34.848 296.125722 
L 38.016 312.796971 
L 41.184 313.839049 
L 44.352 305.987261 
L 47.52 309.578181 
L 50.688 295.355889 
L 53.856 280.290055 
L 57.024 296.003558 
L 60.192 299.232951 
L 63.36 311.211598 
L 66.528 294.48951 
L 69.696 298.70966 
L 72.864 308.291677 
L 76.032 315.670027 
L 79.2 322.558967 
L 82.368 320.299133 
L 85.536 297.266067 
L 88.704 301.761418 
L 91.872 294.158146 
L 95.04 304.484726 
L 98.208 303.507062 
L 101.376 308.55217 
L 104.544 319.369826 
L 107.712 323.73361 
L 110.88 313.469853 
L 114.048 307.12611 
L 117.216 309.780699 
L 120.384 316.185408 
L 123.552 317.129483 
L 126.72 304.051619 
L 129.888 298.864988 
L 133.056 302.714776 
L 136.224 299.390837 
L 139.392 302.216116 
L 142.56 284.563831 
L 145.728 275.118228 
L 148.896 294.645979 
L 152.064 300.268823 
L 155.232 230.630539 
L 158.4 266.841986 
L 161.568 316.982542 
L 164.736 319.964815 
L 167.904 323.967842 
L 171.072 314.989133 
L 174.24 327.56483 
L 177.408 323.466979 
L 180.576 320.402726 
L 183.744 325.33218 
L 186.912 311.645219 
L 190.08 319.379998 
L 193.248 303.60196 
L 196.416 308.959143 
L 199.584 311.814587 
L 202.752 299.099259 
L 205.92 313.451393 
L 209.088 313.672277 
L 212.256 312.541678 
L 215.424 305.642675 
L 218.592 317.754086 
L 221.76 309.010094 
L 224.928 309.199883 
L 228.096 310.409886 
L 231.264 308.48848 
L 234.432 305.190448 
L 237.6 303.872646 
L 240.768 313.346359 
L 243.936 317.204543 
L 247.104 321.711649 
L 250.272 319.391441 
L 253.44 324.650738 
L 256.608 308.568729 
L 259.776 302.319286 
L 262.944 304.981532 
L 266.112 295.759876 
L 269.28 301.990038 
L 272.448 301.346856 
L 275.616 312.211249 
L 278.784 312.726942 
L 281.952 319.084374 
L 285.12 300.418454 
L 288.288 300.352871 
L 291.456 285.309326 
L 294.624 296.371333 
L 297.792 313.666548 
L 300.96 305.805733 
L 304.128 312.817343 
L 307.296 313.4463 
L 310.464 300.640675 
L 313.632 299.663326 
L 316.8 308.934305 
L 319.968 310.317548 
L 323.136 315.852008 
L 326.304 307.356042 
L 329.472 299.7219 
L 332.64 310.833993 
L 335.808 302.419909 
L 338.976 304.468803 
L 342.144 304.395556 
L 345.312 309.670525 
L 348.48 304.380907 
L 351.648 291.681165 
L 354.816 304.977074 
L 357.984 303.256124 
L 361.152 305.46688 
L 364.32 305.895541 
L 367.488 312.064811 
L 370.656 310.727012 
L 373.824 292.813268 
L 376.992 297.989729 
L 380.16 299.606663 
L 383.328 297.514278 
L 386.496 305.503185 
L 389.664 306.403184 
L 392.832 303.650365 
L 396 295.284002 
L 399.168 302.168353 
L 402.336 294.63771 
L 405.504 304.564979 
L 408.672 317.527027 
L 411.84 316.557591 
L 415.008 318.445996 
L 418.176 308.567456 
L 421.344 306.505732 
L 424.512 306.410191 
L 427.68 299.639133 
L 430.848 290.667628 
L 434.016 287.296592 
L 437.184 292.956952 
L 440.352 270.903529 
L 443.52 273.993922 
L 446.688 302.252417 
L 449.856 294.184858 
L 453.024 285.552173 
L 456.192 304.124227 
L 459.36 306.980251 
L 462.528 301.613039 
L 465.696 331.983141 
L 468.864 335.860721 
L 472.032 331.226692 
L 475.2 378.889087 
L 478.368 350.240693 
L 481.536 328.042646 
L 484.704 317.109764 
L 487.872 314.835123 
L 491.04 307.863034 
L 494.208 308.496123 
L 497.376 308.430522 
L 500.544 311.376517 
L 503.712 306.214013 
L 506.88 311.73245 
L 510.048 307.235662 
L 513.216 304.566889 
L 516.384 296.490961 
L 519.552 297.163604 
L 522.72 305.652229 
L 525.888 304.259891 
L 529.056 305.384077 
L 532.224 313.006419 
L 535.392 307.879594 
L 538.56 310.779229 
L 541.728 309.320889 
L 544.896 313.7894 
L 548.064 308.738143 
L 551.232 316.827961 
L 554.4 306.360509 
L 557.568 304.357978 
L 560.736 309.832284 
L 563.904 308.961054 
L 567.072 308.21079 
L 570.24 299.337359 
L 573.408 306.749043 
L 576.576 308.049651 
L 579.744 311.854063 
L 582.912 310.401607 
L 586.08 310.057724 
L 589.248 310.225846 
L 592.416 306.561146 
L 595.584 306.636942 
L 598.752 303.367581 
L 601.92 303.454199 
L 605.088 307.9694 
L 608.256 305.022296 
L 611.424 304.362436 
L 614.592 306.232484 
L 617.76 302.942777 
L 620.928 305.36688 
L 624.096 306.754776 
L 627.264 306.382165 
L 630.432 304.955418 
L 633.6 309.64314 
L 636.768 310.597743 
L 639.936 309.191604 
L 643.104 308.015894 
L 646.272 309.613208 
L 649.44 305.438217 
L 652.608 309.224721 
L 655.776 299.95429 
L 658.944 294.242733 
L 662.112 298.967481 
L 665.28 297.50855 
L 668.448 305.175798 
L 671.616 306.719107 
L 674.784 304.738224 
L 677.952 307.964304 
L 681.12 306.604458 
L 684.288 303.72743 
L 687.456 305.928025 
L 690.624 307.450945 
L 693.792 305.896815 
L 696.96 307.574508 
L 700.128 299.13109 
L 703.296 302.554923 
L 706.464 310.14879 
L 709.632 313.790036 
L 712.8 315.595579 
L 715.968 310.63022 
L 719.136 309.378207 
L 722.304 307.601259 
L 725.472 308.705662 
L 728.64 307.108275 
L 731.808 307.754121 
L 734.976 309.21899 
L 738.144 311.011017 
L 741.312 306.957322 
L 744.48 304.6809 
L 747.648 308.520325 
L 750.816 311.410264 
L 753.984 311.722263 
L 757.152 310.405428 
L 760.32 305.747771 
L 763.488 306.43121 
L 766.656 307.363048 
L 769.824 305.384077 
L 772.992 306.739489 
L 776.16 307.250312 
L 779.328 305.961146 
L 782.496 304.914654 
L 785.664 298.456942 
L 788.832 301.410535 
L 788.832 301.410535 
" clip-path="url(#p757080ed6d)" style="fill: none; stroke: #000000; stroke-width: 1.5; stroke-linecap: square"/>
   </g>
   <g id="line2d_3">
    <path d="M 0 306 
L 3.168 306 
L 6.336 310.947039 
L 9.504 310.54527 
L 12.672 309.404586 
L 15.84 315.875641 
L 19.008 315.939506 
L 22.176 313.164564 
L 25.344 318.126308 
L 31.68 305.084938 
L 34.848 301.467597 
L 38.016 309.774833 
L 41.184 311.302144 
L 44.352 307.435889 
L 47.52 309.117678 
L 50.688 300.942213 
L 53.856 290.449332 
L 57.024 296.659282 
L 60.192 298.339315 
L 63.36 305.642469 
L 66.528 297.462391 
L 69.696 299.043655 
L 79.2 315.612308 
L 82.368 316.347994 
L 85.536 304.021995 
L 88.704 304.669981 
L 91.872 299.319323 
L 95.04 303.86324 
L 98.208 303.47798 
L 101.376 306.489623 
L 104.544 313.507534 
L 107.712 317.792461 
L 110.88 313.485621 
L 114.048 309.745959 
L 117.216 310.543443 
L 120.384 314.085952 
L 123.552 315.236658 
L 126.72 308.120081 
L 129.888 303.890625 
L 133.056 304.685659 
L 136.224 302.193928 
L 139.392 303.021733 
L 142.56 292.463196 
L 145.728 284.602607 
L 148.896 293.291934 
L 152.064 296.954978 
L 155.232 256.598215 
L 158.4 270.37095 
L 161.568 298.653595 
L 164.736 305.777151 
L 167.904 312.233907 
L 171.072 310.341569 
L 174.24 319.077644 
L 177.408 319.178122 
L 180.576 318.48322 
L 183.744 321.932702 
L 186.912 314.992707 
L 190.08 318.563279 
L 193.248 309.631998 
L 196.416 311.049816 
L 199.584 312.139698 
L 202.752 304.611195 
L 205.92 311.586542 
L 209.088 312.292047 
L 212.256 311.954906 
L 215.424 308.090483 
L 218.592 314.423814 
L 221.76 310.286404 
L 224.928 309.994666 
L 228.096 310.432993 
L 231.264 309.31341 
L 234.432 307.121265 
L 237.6 305.798886 
L 240.768 310.75227 
L 243.936 313.821166 
L 247.104 317.438797 
L 250.272 317.324544 
L 253.44 321.042056 
L 256.608 312.654926 
L 259.776 307.784062 
L 262.944 307.732946 
L 266.112 301.550665 
L 269.28 303.49506 
L 272.448 302.707088 
L 275.616 308.682114 
L 278.784 310.039139 
L 281.952 314.536555 
L 285.12 304.926491 
L 288.288 303.573337 
L 291.456 293.764521 
L 294.624 297.758064 
L 297.792 307.45455 
L 300.96 304.675692 
L 304.128 309.0955 
L 307.296 310.591982 
L 310.464 303.909739 
L 313.632 302.371117 
L 316.8 306.990189 
L 319.968 308.369056 
L 323.136 312.21737 
L 326.304 308.27595 
L 329.472 303.541565 
L 332.64 308.919619 
L 335.808 304.558232 
L 338.976 305.130316 
L 342.144 304.948501 
L 345.312 307.881484 
L 348.48 305.296033 
L 351.648 297.58559 
L 354.816 303.614683 
L 357.984 303.014583 
L 361.152 304.387417 
L 364.32 304.963637 
L 367.488 308.83517 
L 370.656 309.001126 
L 373.824 298.98384 
L 376.992 300.187213 
L 380.16 300.520694 
L 383.328 299.003774 
L 386.496 303.262822 
L 389.664 304.445992 
L 392.832 303.422558 
L 396 298.580893 
L 399.168 301.620656 
L 402.336 297.396389 
L 405.504 302.384337 
L 408.672 310.611667 
L 411.84 312.076268 
L 415.008 314.497315 
L 418.176 309.846732 
L 421.344 308.238652 
L 424.512 307.714126 
L 427.68 303.347078 
L 430.848 297.016047 
L 434.016 293.217746 
L 437.184 294.803611 
L 440.352 281.320697 
L 443.52 280.078177 
L 446.688 294.864731 
L 449.856 292.301977 
L 453.024 287.801947 
L 456.192 297.980322 
L 459.36 301.398739 
L 462.528 299.870482 
L 465.696 318.11908 
L 468.864 324.445957 
L 472.032 325.101407 
L 475.2 355.198654 
L 478.368 345.190163 
L 481.536 333.720725 
L 484.704 325.701054 
L 487.872 321.854565 
L 491.04 315.85043 
L 494.208 313.954296 
L 497.376 312.313114 
L 500.544 313.065136 
L 503.712 309.59717 
L 506.88 311.819298 
L 510.048 309.155791 
L 513.216 307.04879 
L 516.384 301.519662 
L 519.552 300.405783 
L 522.72 304.408092 
L 525.888 303.825931 
L 529.056 304.589171 
L 532.224 309.300886 
L 535.392 307.378806 
L 538.56 309.212033 
L 541.728 308.802194 
L 544.896 311.559042 
L 548.064 309.25973 
L 551.232 313.833251 
L 554.4 308.584671 
L 557.568 306.764123 
L 560.736 309.266153 
L 567.072 308.525366 
L 570.24 303.258099 
L 573.408 306.439722 
L 576.576 307.317393 
L 579.744 309.748541 
L 582.912 309.49346 
L 586.08 309.572369 
L 589.248 309.806673 
L 592.416 307.782381 
L 595.584 307.437379 
L 598.752 305.299699 
L 601.92 304.766802 
L 605.088 307.049891 
L 608.256 305.600291 
L 611.424 305.038115 
L 614.592 305.938276 
L 617.76 304.092123 
L 620.928 305.193977 
L 624.096 306.041585 
L 627.264 306.025488 
L 630.432 305.290641 
L 633.6 307.930701 
L 636.768 308.984629 
L 639.936 308.630759 
L 643.104 308.102577 
L 646.272 309.014194 
L 649.44 306.753147 
L 652.608 308.588904 
L 655.776 303.333992 
L 658.944 299.010346 
L 662.112 300.391331 
L 665.28 299.119101 
L 668.448 303.14686 
L 671.616 304.649041 
L 674.784 304.087154 
L 677.952 306.175664 
L 681.12 305.88822 
L 684.288 304.383192 
L 690.624 306.483715 
L 693.792 305.863522 
L 696.96 306.852691 
L 700.128 302.119275 
L 703.296 303.247818 
L 706.464 307.509989 
L 709.632 310.430471 
L 712.8 312.477766 
L 715.968 310.496696 
L 719.136 309.792703 
L 722.304 308.631548 
L 725.472 308.962913 
L 728.64 307.94589 
L 731.808 308.093246 
L 734.976 308.871051 
L 738.144 310.033392 
L 741.312 307.941411 
L 744.48 306.323984 
L 750.816 309.929393 
L 753.984 310.545379 
L 757.152 310.108035 
L 760.32 307.459172 
L 763.488 307.353039 
L 766.656 307.625725 
L 769.824 306.383012 
L 772.992 306.891874 
L 776.16 307.151698 
L 782.496 305.682428 
L 785.664 301.663102 
L 788.832 302.447885 
L 788.832 302.447885 
" clip-path="url(#p757080ed6d)" style="fill: none; stroke: #000000; stroke-width: 1.5; stroke-linecap: square"/>
   </g>
   <g id="line2d_4">
    <path d="M 0 306 
L 3.168 306 
L 6.336 310.587562 
L 9.504 310.380623 
L 12.672 309.503561 
L 15.84 314.470024 
L 19.008 314.862978 
L 22.176 313.151055 
L 25.344 316.523606 
L 28.512 312.638963 
L 31.68 308.217575 
L 34.848 305.374876 
L 38.016 309.741156 
L 41.184 310.664036 
L 44.352 308.489598 
L 47.52 309.289938 
L 50.688 304.541922 
L 53.856 297.94257 
L 57.024 300.229221 
L 60.192 300.592343 
L 63.36 304.307599 
L 66.528 299.993633 
L 69.696 300.468732 
L 72.864 303.287162 
L 76.032 306.455768 
L 79.2 310.126596 
L 82.368 311.396003 
L 85.536 305.443518 
L 88.704 305.584843 
L 91.872 302.529975 
L 95.04 304.488224 
L 98.208 304.184679 
L 101.376 305.693939 
L 104.544 309.607975 
L 107.712 312.556049 
L 114.048 309.410399 
L 117.216 309.866004 
L 120.384 311.890258 
L 123.552 312.871525 
L 126.72 309.377928 
L 129.888 306.900347 
L 133.056 306.871005 
L 136.224 305.158013 
L 139.392 305.121726 
L 142.56 299.030771 
L 145.728 293.71619 
L 148.896 296.986277 
L 152.064 298.409218 
L 155.232 276.154061 
L 158.4 280.592326 
L 161.568 294.347911 
L 167.904 303.510459 
L 171.072 303.882524 
L 174.24 309.659852 
L 177.408 311.193991 
L 180.576 312.064981 
L 183.744 314.956138 
L 186.912 312.30694 
L 190.08 314.674298 
L 193.248 310.428319 
L 199.584 311.641906 
L 202.752 307.626858 
L 205.92 310.828894 
L 209.088 311.317826 
L 212.256 311.329596 
L 215.424 309.343709 
L 218.592 312.59453 
L 221.76 310.627481 
L 224.928 310.428523 
L 228.096 310.615225 
L 231.264 309.992366 
L 234.432 308.708306 
L 237.6 307.738824 
L 240.768 310.134672 
L 243.936 311.913328 
L 247.104 314.213207 
L 250.272 314.664754 
L 253.44 317.096964 
L 256.608 313.27297 
L 259.776 310.535225 
L 262.944 310.035026 
L 266.112 306.295479 
L 269.28 306.598089 
L 272.448 305.672857 
L 275.616 308.42759 
L 278.784 309.200403 
L 281.952 311.77115 
L 285.12 306.972904 
L 288.288 305.914974 
L 291.456 300.208558 
L 294.624 301.374504 
L 297.792 306.074252 
L 300.96 304.785765 
L 304.128 307.196259 
L 307.296 308.289463 
L 310.464 305.014658 
L 313.632 304.000676 
L 316.8 306.242993 
L 319.968 307.097537 
L 323.136 309.390912 
L 326.304 307.707885 
L 329.472 305.22757 
L 332.64 307.89245 
L 335.808 305.674126 
L 338.976 305.80593 
L 342.144 305.56694 
L 345.312 307.053278 
L 348.48 305.783528 
L 351.648 301.504863 
L 354.816 304.150635 
L 357.984 303.752847 
L 361.152 304.37597 
L 364.32 304.685227 
L 367.488 306.852188 
L 370.656 307.259981 
L 373.824 302.107858 
L 376.992 302.249508 
L 380.16 302.089373 
L 383.328 301.013475 
L 386.496 303.01505 
L 389.664 303.701021 
L 392.832 303.284893 
L 396 300.681109 
L 399.168 301.978614 
L 402.336 299.61474 
L 405.504 301.970534 
L 408.672 306.497824 
L 411.84 307.960579 
L 415.008 309.935994 
L 418.176 308.134977 
L 421.344 307.532334 
L 424.512 307.330795 
L 427.68 305.022147 
L 430.848 301.321195 
L 434.016 298.554536 
L 437.184 298.579419 
L 440.352 290.639516 
L 443.52 288.474916 
L 446.688 295.163429 
L 449.856 293.729547 
L 453.024 291.061194 
L 456.192 296.070091 
L 459.36 298.248126 
L 462.528 297.924364 
L 465.696 308.157748 
L 468.864 313.175758 
L 472.032 315.324921 
L 475.2 333.402386 
L 478.368 331.382697 
L 481.536 327.309879 
L 484.704 323.960317 
L 487.872 322.138216 
L 491.04 318.796603 
L 497.376 315.89035 
L 500.544 315.715489 
L 503.712 313.404486 
L 506.88 314.010589 
L 510.048 312.202704 
L 513.216 310.561654 
L 516.384 307.025396 
L 519.552 305.569666 
L 522.72 306.936294 
L 525.888 306.294209 
L 529.056 306.333437 
L 532.224 308.630291 
L 535.392 307.70666 
L 538.56 308.658954 
L 541.728 308.556946 
L 544.896 310.113693 
L 548.064 309.080789 
L 551.232 311.611835 
L 554.4 309.129066 
L 557.568 308.050198 
L 560.736 309.200334 
L 563.904 309.034488 
L 567.072 308.750224 
L 570.24 305.827153 
L 573.408 307.138928 
L 576.576 307.425905 
L 579.744 308.720492 
L 582.912 308.754815 
L 589.248 309.145966 
L 592.416 308.155612 
L 595.584 307.914397 
L 598.752 306.674361 
L 601.92 306.172451 
L 605.088 307.185768 
L 608.256 306.367488 
L 611.424 305.947845 
L 614.592 306.295935 
L 617.76 305.24802 
L 624.096 306.044691 
L 627.264 306.039506 
L 630.432 305.643771 
L 633.6 307.014417 
L 636.768 307.737093 
L 639.936 307.741323 
L 643.104 307.592874 
L 646.272 308.161994 
L 649.44 307.06711 
L 652.608 308.001098 
L 658.944 302.596116 
L 662.112 302.76871 
L 665.28 301.699161 
L 668.448 303.471954 
L 671.616 304.246975 
L 674.784 304.001973 
L 677.952 305.147892 
L 681.12 305.147772 
L 684.288 304.451376 
L 690.624 305.650826 
L 693.792 305.448877 
L 696.96 306.055017 
L 700.128 303.611318 
L 703.296 303.992874 
L 706.464 306.176033 
L 709.632 307.966441 
L 712.8 309.470876 
L 715.968 308.865485 
L 719.136 308.750784 
L 722.304 308.286086 
L 725.472 308.517713 
L 728.64 308.039324 
L 731.808 308.105518 
L 734.976 308.517672 
L 738.144 309.203193 
L 744.48 307.278392 
L 747.648 308.083504 
L 750.816 309.077966 
L 753.984 309.543713 
L 757.152 309.482322 
L 760.32 308.160916 
L 763.488 308.000128 
L 766.656 308.051277 
L 769.824 307.305585 
L 776.16 307.492989 
L 782.496 306.541708 
L 785.664 304.227685 
L 788.832 304.248922 
L 788.832 304.248922 
" clip-path="url(#p757080ed6d)" style="fill: none; stroke: #000000; stroke-width: 1.5; stroke-linecap: square"/>
   </g>
   <g id="line2d_5">
    <path d="M 0 306 
L 3.168 306 
L 6.336 310.405456 
L 9.504 310.280295 
L 12.672 309.527693 
L 15.84 313.792826 
L 19.008 314.258375 
L 22.176 312.988706 
L 25.344 315.654832 
L 28.512 312.83231 
L 31.68 309.528715 
L 34.848 307.297101 
L 38.016 310.13313 
L 41.184 310.722478 
L 44.352 309.244104 
L 47.52 309.68931 
L 50.688 306.549211 
L 53.856 302.100346 
L 57.024 303.107445 
L 60.192 303.037473 
L 63.36 305.071814 
L 66.528 302.380659 
L 69.696 302.432663 
L 72.864 303.914721 
L 76.032 305.714708 
L 79.2 307.918667 
L 82.368 308.855368 
L 85.536 305.684137 
L 88.704 305.742469 
L 91.872 304.005451 
L 95.04 304.970641 
L 98.208 304.758535 
L 101.376 305.544244 
L 104.544 307.715021 
L 107.712 309.499658 
L 110.88 308.939612 
L 114.048 308.233085 
L 117.216 308.587829 
L 120.384 309.792676 
L 123.552 310.499378 
L 126.72 308.83393 
L 129.888 307.551003 
L 133.056 307.474179 
L 136.224 306.506218 
L 139.392 306.380546 
L 142.56 303.046232 
L 145.728 299.890359 
L 148.896 301.105308 
L 152.064 301.504243 
L 155.232 289.466959 
L 158.4 290.705143 
L 161.568 297.111234 
L 164.736 299.273606 
L 167.904 301.661722 
L 171.072 302.011511 
L 174.24 305.200353 
L 177.408 306.381324 
L 180.576 307.245556 
L 183.744 309.163227 
L 186.912 308.248191 
L 190.08 309.822567 
L 193.248 307.999923 
L 199.584 309.044467 
L 202.752 307.166913 
L 205.92 308.883419 
L 209.088 309.304429 
L 212.256 309.475414 
L 215.424 308.591059 
L 218.592 310.344578 
L 221.76 309.507174 
L 224.928 309.499853 
L 228.096 309.661963 
L 231.264 309.41504 
L 237.6 308.286406 
L 240.768 309.482829 
L 243.936 310.449263 
L 247.104 311.760241 
L 250.272 312.199864 
L 253.44 313.681865 
L 256.608 311.935059 
L 259.776 310.615437 
L 262.944 310.368892 
L 266.112 308.390473 
L 269.28 308.390678 
L 272.448 307.760232 
L 275.616 309.031175 
L 278.784 309.383044 
L 281.952 310.7049 
L 285.12 308.294366 
L 288.288 307.640616 
L 291.456 304.52709 
L 294.624 304.777473 
L 297.792 306.946639 
L 300.96 306.206063 
L 304.128 307.33678 
L 307.296 307.894595 
L 310.464 306.214477 
L 313.632 305.588639 
L 316.8 306.62592 
L 319.968 307.045564 
L 323.136 308.239003 
L 326.304 307.453832 
L 329.472 306.18773 
L 332.64 307.502346 
L 335.808 306.376007 
L 338.976 306.388624 
L 342.144 306.221356 
L 345.312 306.959989 
L 348.48 306.325037 
L 351.648 304.048896 
L 354.816 305.225842 
L 357.984 304.972756 
L 361.152 305.193924 
L 364.32 305.268014 
L 367.488 306.338249 
L 370.656 306.587287 
L 373.824 303.953806 
L 376.992 303.868942 
L 380.16 303.649031 
L 383.328 302.961069 
L 386.496 303.827879 
L 389.664 304.118948 
L 392.832 303.848683 
L 396 302.449856 
L 399.168 302.985355 
L 402.336 301.663065 
L 405.504 302.732936 
L 408.672 305.026859 
L 411.84 305.903486 
L 415.008 307.100659 
L 418.176 306.40265 
L 421.344 306.226183 
L 424.512 306.236327 
L 427.68 305.119424 
L 430.848 303.174357 
L 434.016 301.581928 
L 437.184 301.341021 
L 440.352 296.967451 
L 443.52 295.304731 
L 446.688 298.228651 
L 449.856 297.216929 
L 453.024 295.521755 
L 456.192 297.762244 
L 459.36 298.761119 
L 462.528 298.553387 
L 465.696 303.838504 
L 468.864 306.825507 
L 472.032 308.474904 
L 475.2 318.495309 
L 478.368 318.669804 
L 481.536 317.589916 
L 484.704 316.636042 
L 487.872 316.30253 
L 491.04 315.044256 
L 497.376 314.067012 
L 500.544 314.11999 
L 503.712 313.043165 
L 506.88 313.387606 
L 513.216 311.629755 
L 516.384 309.703714 
L 519.552 308.715848 
L 522.72 309.165201 
L 525.888 308.640389 
L 529.056 308.46418 
L 532.224 309.482034 
L 535.392 308.917246 
L 538.56 309.315045 
L 541.728 309.188619 
L 544.896 309.939376 
L 548.064 309.42011 
L 551.232 310.708073 
L 554.4 309.487235 
L 557.568 308.896168 
L 560.736 309.428547 
L 567.072 309.165597 
L 570.24 307.613345 
L 573.408 308.154966 
L 576.576 308.270396 
L 579.744 308.88132 
L 586.08 308.962352 
L 589.248 309.079432 
L 592.416 308.566335 
L 595.584 308.409116 
L 598.752 307.72819 
L 601.92 307.380816 
L 605.088 307.813658 
L 608.256 307.335599 
L 611.424 307.027361 
L 614.592 307.114904 
L 617.76 306.489933 
L 624.096 306.727131 
L 627.264 306.666676 
L 630.432 306.412631 
L 633.6 307.076445 
L 636.768 307.454359 
L 643.104 307.447928 
L 646.272 307.770215 
L 649.44 307.222864 
L 652.608 307.709732 
L 658.944 304.82644 
L 662.112 304.733164 
L 665.28 304.01598 
L 668.448 304.73078 
L 671.616 305.014637 
L 674.784 304.819045 
L 677.952 305.31015 
L 681.12 305.294981 
L 684.288 304.920545 
L 690.624 305.495048 
L 693.792 305.403213 
L 696.96 305.722348 
L 700.128 304.4725 
L 703.296 304.59642 
L 706.464 305.688872 
L 712.8 307.552083 
L 715.968 307.397524 
L 719.136 307.463172 
L 722.304 307.330847 
L 725.472 307.529005 
L 728.64 307.362512 
L 731.808 307.452264 
L 734.976 307.719426 
L 738.144 308.146149 
L 744.48 307.268335 
L 747.648 307.686884 
L 750.816 308.237784 
L 753.984 308.546627 
L 757.152 308.595665 
L 760.32 307.975435 
L 766.656 307.934016 
L 769.824 307.556505 
L 776.16 307.621011 
L 782.496 307.083764 
L 785.664 305.829022 
L 788.832 305.706666 
L 788.832 305.706666 
" clip-path="url(#p757080ed6d)" style="fill: none; stroke: #000000; stroke-width: 1.5; stroke-linecap: square"/>
   </g>
   <g id="line2d_6">
    <path d="M 0 306 
L 3.168 306 
L 6.336 310.314102 
L 9.504 310.225802 
L 12.672 309.532588 
L 15.84 313.46479 
L 19.008 313.946768 
L 22.176 312.869733 
L 25.344 315.212035 
L 28.512 312.851975 
L 31.68 310.067858 
L 34.848 308.159815 
L 38.016 310.379666 
L 41.184 310.827861 
L 44.352 309.651091 
L 47.52 309.961145 
L 50.688 307.532084 
L 53.856 304.091273 
L 57.024 304.685788 
L 60.192 304.51505 
L 63.36 305.883136 
L 66.528 303.897256 
L 69.696 303.829418 
L 72.864 304.772188 
L 76.032 305.960538 
L 79.2 307.451804 
L 82.368 308.114736 
L 85.536 306.037361 
L 88.704 306.054706 
L 91.872 304.89625 
L 95.04 305.471802 
L 98.208 305.30641 
L 101.376 305.777145 
L 104.544 307.138535 
L 107.712 308.290932 
L 114.048 307.620908 
L 117.216 307.871104 
L 120.384 308.642907 
L 123.552 309.130378 
L 126.72 308.199665 
L 129.888 307.465728 
L 133.056 307.424437 
L 136.224 306.855717 
L 139.392 306.764573 
L 145.728 302.881558 
L 148.896 303.437492 
L 152.064 303.553779 
L 155.232 296.563938 
L 158.4 296.930044 
L 161.568 300.268548 
L 164.736 301.340078 
L 167.904 302.585563 
L 171.072 302.738134 
L 174.24 304.483511 
L 177.408 305.173437 
L 180.576 305.708226 
L 183.744 306.83821 
L 186.912 306.441338 
L 190.08 307.388185 
L 193.248 306.501902 
L 199.584 307.214928 
L 202.752 306.278571 
L 205.92 307.24748 
L 209.088 307.549301 
L 212.256 307.720233 
L 215.424 307.323469 
L 218.592 308.322997 
L 221.76 307.966321 
L 231.264 308.117414 
L 237.6 307.612642 
L 247.104 309.601255 
L 250.272 309.927417 
L 253.44 310.800257 
L 256.608 310.001436 
L 259.776 309.394418 
L 262.944 309.317253 
L 266.112 308.331336 
L 269.28 308.328836 
L 272.448 308.001881 
L 275.616 308.655082 
L 278.784 308.856829 
L 281.952 309.570167 
L 285.12 308.368533 
L 288.288 308.020361 
L 291.456 306.389488 
L 294.624 306.435773 
L 297.792 307.488801 
L 300.96 307.081625 
L 304.128 307.629637 
L 307.296 307.909021 
L 310.464 307.044475 
L 313.632 306.685394 
L 316.8 307.172299 
L 319.968 307.366045 
L 323.136 307.969561 
L 326.304 307.578571 
L 329.472 306.919051 
L 332.64 307.561712 
L 335.808 306.980046 
L 342.144 306.848405 
L 345.312 307.194244 
L 348.48 306.851479 
L 351.648 305.662591 
L 354.816 306.197532 
L 357.984 306.001768 
L 364.32 306.081885 
L 367.488 306.598261 
L 370.656 306.718259 
L 373.824 305.36441 
L 380.16 305.097297 
L 383.328 304.685801 
L 386.496 305.060171 
L 389.664 305.155567 
L 392.832 304.977072 
L 396 304.211379 
L 399.168 304.412009 
L 402.336 303.677583 
L 405.504 304.135894 
L 408.672 305.251869 
L 411.84 305.690055 
L 415.008 306.310873 
L 418.176 305.986333 
L 424.512 305.92998 
L 427.68 305.372773 
L 430.848 304.365494 
L 434.016 303.503023 
L 437.184 303.300514 
L 440.352 300.984097 
L 443.52 299.962688 
L 446.688 301.260671 
L 449.856 300.619693 
L 453.024 299.609567 
L 456.192 300.589415 
L 459.36 300.984494 
L 462.528 300.78148 
L 465.696 303.387919 
L 468.864 304.926755 
L 472.032 305.854888 
L 475.2 311.087384 
L 478.368 311.491762 
L 484.704 311.02318 
L 487.872 311.084703 
L 491.04 310.667088 
L 497.376 310.519027 
L 500.544 310.699229 
L 503.712 310.293244 
L 506.88 310.586885 
L 513.216 309.893544 
L 516.384 308.982449 
L 519.552 308.511246 
L 522.72 308.749359 
L 525.888 308.498707 
L 529.056 308.411515 
L 532.224 308.933895 
L 535.392 308.673289 
L 538.56 308.884738 
L 541.728 308.840126 
L 544.896 309.238315 
L 548.064 309.010738 
L 551.232 309.691622 
L 554.4 309.105185 
L 557.568 308.821497 
L 560.736 309.120436 
L 567.072 308.999864 
L 570.24 308.213181 
L 573.408 308.461369 
L 576.576 308.502213 
L 579.744 308.798304 
L 589.248 308.902506 
L 592.416 308.649414 
L 595.584 308.561233 
L 598.752 308.20679 
L 601.92 308.008163 
L 605.088 308.198079 
L 611.424 307.759484 
L 614.592 307.773433 
L 617.76 307.427752 
L 627.264 307.407798 
L 630.432 307.243851 
L 633.6 307.542759 
L 636.768 307.712283 
L 646.272 307.826027 
L 649.44 307.545626 
L 652.608 307.774004 
L 658.944 306.259077 
L 662.112 306.153551 
L 665.28 305.726989 
L 668.448 306.028644 
L 671.616 306.127427 
L 674.784 305.983384 
L 677.952 306.206172 
L 681.12 306.16003 
L 684.288 305.930811 
L 690.624 306.147995 
L 693.792 306.073535 
L 696.96 306.21462 
L 700.128 305.555447 
L 703.296 305.570163 
L 712.8 307.023959 
L 722.304 306.967573 
L 725.472 307.084605 
L 728.64 307.015318 
L 734.976 307.23426 
L 738.144 307.46963 
L 744.48 307.071627 
L 753.984 307.781606 
L 757.152 307.8419 
L 760.32 307.554399 
L 766.656 307.568941 
L 769.824 307.391763 
L 776.16 307.435848 
L 782.496 307.179277 
L 785.664 306.535541 
L 788.832 306.445461 
L 788.832 306.445461 
" clip-path="url(#p757080ed6d)" style="fill: none; stroke: #000000; stroke-width: 1.5; stroke-linecap: square"/>
   </g>
   <g id="line2d_7">
    <path d="M 0 306 
L 3.168 306 
L 6.336 310.268387 
L 9.504 310.197508 
L 12.672 309.533169 
L 15.84 313.303879 
L 19.008 313.789691 
L 22.176 312.801484 
L 25.344 314.990046 
L 28.512 312.842517 
L 31.68 310.303366 
L 34.848 308.555343 
L 38.016 310.505368 
L 41.184 310.891845 
L 44.352 309.852682 
L 47.52 310.107047 
L 50.688 308.000622 
L 53.856 305.025655 
L 57.024 305.467592 
L 60.192 305.274462 
L 63.36 306.367986 
L 66.528 304.698978 
L 69.696 304.598081 
L 72.864 305.322134 
L 76.032 306.250804 
L 79.2 307.42819 
L 82.368 307.955202 
L 85.536 306.327968 
L 88.704 306.327821 
L 91.872 305.417364 
L 95.04 305.836778 
L 98.208 305.694483 
L 101.376 306.034728 
L 104.544 307.048648 
L 107.712 307.913663 
L 114.048 307.444962 
L 117.216 307.634991 
L 120.384 308.20537 
L 123.552 308.574049 
L 126.72 307.926431 
L 129.888 307.412813 
L 133.056 307.385439 
L 136.224 306.986129 
L 139.392 306.917755 
L 145.728 304.191982 
L 148.896 304.530532 
L 152.064 304.573856 
L 155.232 299.784249 
L 158.4 299.927705 
L 161.568 302.078698 
L 164.736 302.738553 
L 167.904 303.52393 
L 171.072 303.595826 
L 174.24 304.7196 
L 180.576 305.513958 
L 183.744 306.253483 
L 186.912 306.014383 
L 190.08 306.635982 
L 193.248 306.090515 
L 199.584 306.571081 
L 202.752 305.997912 
L 205.92 306.61538 
L 212.256 306.949234 
L 215.424 306.724162 
L 218.592 307.35924 
L 221.76 307.16585 
L 231.264 307.324928 
L 237.6 307.057929 
L 247.104 308.31496 
L 250.272 308.543245 
L 253.44 309.098467 
L 259.776 308.344544 
L 262.944 308.326044 
L 266.112 307.772297 
L 269.28 307.78507 
L 272.448 307.60796 
L 275.616 307.998209 
L 278.784 308.13187 
L 281.952 308.563047 
L 285.12 307.894405 
L 288.288 307.705722 
L 291.456 306.776902 
L 294.624 306.793836 
L 297.792 307.386699 
L 300.96 307.157127 
L 304.128 307.466874 
L 307.296 307.629326 
L 310.464 307.146874 
L 313.632 306.941646 
L 316.8 307.209741 
L 319.968 307.317743 
L 323.136 307.657415 
L 326.304 307.446069 
L 329.472 307.080873 
L 332.64 307.435228 
L 335.808 307.114668 
L 342.144 307.035161 
L 345.312 307.222021 
L 348.48 307.032137 
L 351.648 306.372728 
L 354.816 306.6503 
L 357.984 306.53218 
L 364.32 306.552302 
L 367.488 306.82347 
L 370.656 306.883687 
L 373.824 306.14248 
L 380.16 305.960695 
L 383.328 305.717637 
L 386.496 305.896515 
L 389.664 305.928825 
L 392.832 305.81468 
L 396 305.382637 
L 399.168 305.46381 
L 402.336 305.044823 
L 405.504 305.259696 
L 408.672 305.83265 
L 415.008 306.378949 
L 418.176 306.204199 
L 424.512 306.166369 
L 427.68 305.864695 
L 434.016 304.840457 
L 437.184 304.701708 
L 440.352 303.442483 
L 443.52 302.849246 
L 446.688 303.471593 
L 449.856 303.08328 
L 453.024 302.496357 
L 456.192 302.946264 
L 459.36 303.098311 
L 462.528 302.945204 
L 465.696 304.265999 
L 468.864 305.055568 
L 472.032 305.536893 
L 475.2 308.284539 
L 478.368 308.55923 
L 484.704 308.443181 
L 487.872 308.53324 
L 491.04 308.368831 
L 510.048 308.43397 
L 513.216 308.290521 
L 516.384 307.852763 
L 519.552 307.632747 
L 522.72 307.775784 
L 529.056 307.642656 
L 532.224 307.928181 
L 535.392 307.814333 
L 538.56 307.942245 
L 541.728 307.938826 
L 544.896 308.163715 
L 548.064 308.066333 
L 551.232 308.434244 
L 554.4 308.160127 
L 557.568 308.034502 
L 560.736 308.192698 
L 567.072 308.174965 
L 570.24 307.789942 
L 579.744 308.127214 
L 592.416 308.111577 
L 595.584 308.07971 
L 601.92 307.812372 
L 605.088 307.914374 
L 611.424 307.699469 
L 614.592 307.70843 
L 617.76 307.533533 
L 627.264 307.517767 
L 630.432 307.431888 
L 636.768 307.666212 
L 652.608 307.704572 
L 658.944 306.931237 
L 662.112 306.861808 
L 665.28 306.628574 
L 671.616 306.79538 
L 674.784 306.707863 
L 677.952 306.805007 
L 693.792 306.670714 
L 696.96 306.726423 
L 700.128 306.380826 
L 703.296 306.372598 
L 712.8 307.07652 
L 722.304 307.042676 
L 728.64 307.066524 
L 734.976 307.174028 
L 738.144 307.295826 
L 744.48 307.098397 
L 757.152 307.498792 
L 760.32 307.36151 
L 779.328 307.262405 
L 782.496 307.189766 
L 785.664 306.863451 
L 788.832 306.809902 
L 788.832 306.809902 
" clip-path="url(#p757080ed6d)" style="fill: none; stroke: #000000; stroke-width: 1.5; stroke-linecap: square"/>
   </g>
   <g id="line2d_8">
    <path d="M 0 306 
L 3.168 306 
L 6.336 310.245525 
L 9.504 310.183104 
L 12.672 309.532987 
L 15.84 313.224252 
L 19.008 313.710968 
L 22.176 312.765287 
L 25.344 314.879112 
L 28.512 312.833065 
L 31.68 310.412191 
L 34.848 308.742976 
L 38.016 310.567489 
L 41.184 310.925446 
L 44.352 309.951585 
L 47.52 310.181047 
L 50.688 308.2267 
L 53.856 305.472644 
L 57.024 305.850441 
L 60.192 305.652147 
L 63.36 306.623643 
L 66.528 305.102736 
L 69.696 304.991531 
L 72.864 305.62003 
L 76.032 306.43285 
L 79.2 307.467948 
L 82.368 307.93105 
L 85.536 306.503439 
L 88.704 306.496084 
L 91.872 305.69734 
L 95.04 306.049664 
L 98.208 305.918958 
L 101.376 306.202692 
L 104.544 307.06291 
L 107.712 307.798158 
L 114.048 307.408939 
L 117.216 307.569632 
L 120.384 308.04845 
L 123.552 308.360182 
L 129.888 307.409143 
L 133.056 307.386759 
L 136.224 307.059985 
L 139.392 307.002171 
L 145.728 304.783007 
L 148.896 305.039542 
L 152.064 305.060747 
L 155.232 301.223701 
L 158.4 301.300712 
L 161.568 302.969766 
L 167.904 304.067319 
L 171.072 304.110382 
L 174.24 304.974359 
L 180.576 305.580867 
L 183.744 306.149449 
L 186.912 305.968182 
L 190.08 306.444866 
L 193.248 306.03328 
L 199.584 306.401353 
L 202.752 305.972805 
L 205.92 306.437278 
L 212.256 306.695372 
L 215.424 306.533299 
L 218.592 307.007681 
L 221.76 306.872035 
L 231.264 307.00731 
L 237.6 306.824638 
L 247.104 307.750186 
L 250.272 307.924308 
L 253.44 308.332295 
L 259.776 307.821999 
L 262.944 307.818406 
L 266.112 307.437101 
L 269.28 307.452081 
L 272.448 307.333885 
L 275.616 307.611369 
L 278.784 307.711251 
L 281.952 308.018008 
L 285.12 307.564478 
L 288.288 307.439893 
L 291.456 306.805113 
L 294.624 306.816257 
L 297.792 307.221595 
L 300.96 307.067708 
L 307.296 307.393288 
L 310.464 307.070732 
L 313.632 306.933499 
L 323.136 307.417481 
L 329.472 307.039794 
L 332.64 307.275714 
L 335.808 307.065956 
L 348.48 307.014929 
L 351.648 306.584079 
L 354.816 306.761861 
L 361.152 306.697609 
L 364.32 306.691971 
L 367.488 306.864995 
L 370.656 306.903169 
L 373.824 306.426461 
L 380.16 306.301312 
L 383.328 306.141149 
L 389.664 306.264213 
L 392.832 306.186962 
L 396 305.908273 
L 399.168 305.951899 
L 402.336 305.681003 
L 405.504 305.80689 
L 408.672 306.158319 
L 415.008 306.49168 
L 421.344 306.352899 
L 424.512 306.352504 
L 427.68 306.163095 
L 434.016 305.51959 
L 437.184 305.42476 
L 440.352 304.641223 
L 443.52 304.260961 
L 446.688 304.622358 
L 449.856 304.369414 
L 453.024 303.99404 
L 456.192 304.247352 
L 459.36 304.321992 
L 462.528 304.212589 
L 465.696 304.994575 
L 468.864 305.461582 
L 472.032 305.746274 
L 475.2 307.396849 
L 478.368 307.573732 
L 494.208 307.533189 
L 513.216 307.542669 
L 516.384 307.294659 
L 519.552 307.172568 
L 522.72 307.26247 
L 529.056 307.197065 
L 532.224 307.3696 
L 535.392 307.310355 
L 544.896 307.533885 
L 548.064 307.485427 
L 551.232 307.705858 
L 557.568 307.491674 
L 563.904 307.596329 
L 567.072 307.594636 
L 570.24 307.380814 
L 579.744 307.590775 
L 595.584 307.597214 
L 601.92 307.456462 
L 605.088 307.518608 
L 617.76 307.319822 
L 652.608 307.445335 
L 658.944 307.019739 
L 674.784 306.887165 
L 681.12 306.917773 
L 687.456 306.859955 
L 696.96 306.883101 
L 700.128 306.691647 
L 703.296 306.683457 
L 712.8 307.061559 
L 731.808 307.072901 
L 741.312 307.132421 
L 744.48 307.077416 
L 757.152 307.299035 
L 763.488 307.226167 
L 779.328 307.182122 
L 782.496 307.144019 
L 785.664 306.969326 
L 788.832 306.939369 
L 788.832 306.939369 
" clip-path="url(#p757080ed6d)" style="fill: none; stroke: #000000; stroke-width: 1.5; stroke-linecap: square"/>
   </g>
   <g id="line2d_9">
    <path d="M 0 306 
L 3.168 306 
L 6.336 310.234094 
L 9.504 310.175839 
L 12.672 309.532776 
L 15.84 313.184653 
L 19.008 313.671578 
L 22.176 312.746687 
L 25.344 314.823687 
L 28.512 312.827179 
L 31.68 310.464336 
L 34.848 308.834135 
L 38.016 310.598204 
L 41.184 310.942489 
L 44.352 310.000381 
L 47.52 310.218111 
L 50.688 308.337391 
L 53.856 305.690522 
L 57.024 306.039082 
L 60.192 305.839552 
L 63.36 306.753822 
L 66.528 305.304221 
L 69.696 305.189287 
L 72.864 305.773469 
L 76.032 306.532026 
L 79.2 307.499987 
L 82.368 307.932532 
L 85.536 306.598356 
L 88.704 306.587857 
L 91.872 305.841738 
L 95.04 306.163329 
L 98.208 306.038424 
L 101.376 306.296238 
L 107.712 307.75966 
L 114.048 307.405518 
L 117.216 307.55212 
L 120.384 307.988096 
L 123.552 308.272631 
L 129.888 307.416166 
L 133.056 307.395818 
L 136.224 307.101955 
L 139.392 307.049061 
L 145.728 305.061659 
L 148.896 305.283291 
L 152.064 305.296369 
L 155.232 301.891718 
L 158.4 301.944574 
L 161.568 303.401865 
L 167.904 304.34878 
L 171.072 304.380491 
L 174.24 305.129576 
L 180.576 305.652244 
L 183.744 306.1441 
L 186.912 305.987302 
L 190.08 306.398606 
L 193.248 306.044843 
L 199.584 306.36097 
L 202.752 305.994935 
L 205.92 306.391169 
L 212.256 306.612937 
L 215.424 306.476901 
L 218.592 306.879393 
L 221.76 306.767032 
L 231.264 306.88657 
L 237.6 306.737429 
L 253.44 308.002659 
L 259.776 307.591335 
L 262.944 307.591825 
L 266.112 307.282702 
L 275.616 307.430856 
L 278.784 307.514598 
L 281.952 307.76615 
L 285.12 307.402629 
L 288.288 307.304255 
L 291.456 306.794496 
L 294.624 306.803604 
L 297.792 307.129144 
L 300.96 307.007109 
L 307.296 307.269376 
L 310.464 307.014165 
L 313.632 306.905848 
L 323.136 307.291039 
L 329.472 306.996452 
L 332.64 307.182256 
L 335.808 307.019014 
L 348.48 306.981624 
L 351.648 306.647595 
L 354.816 306.784572 
L 361.152 306.734128 
L 364.32 306.72936 
L 370.656 306.891289 
L 373.824 306.526276 
L 392.832 306.335133 
L 396 306.122779 
L 399.168 306.153364 
L 402.336 305.947085 
L 405.504 306.038882 
L 408.672 306.3002 
L 415.008 306.54708 
L 421.344 306.442039 
L 424.512 306.440812 
L 427.68 306.299217 
L 434.016 305.818806 
L 437.184 305.745674 
L 440.352 305.164507 
L 443.52 304.879214 
L 446.688 305.138589 
L 453.024 304.667045 
L 456.192 304.845565 
L 459.36 304.894113 
L 462.528 304.808729 
L 465.696 305.371782 
L 468.864 305.707276 
L 472.032 305.911306 
L 475.2 307.104518 
L 478.368 307.235175 
L 497.376 307.233008 
L 500.544 307.303806 
L 503.712 307.246024 
L 506.88 307.338844 
L 513.216 307.246736 
L 519.552 306.989314 
L 525.888 307.016799 
L 529.056 307.011994 
L 532.224 307.134996 
L 538.56 307.154194 
L 548.064 307.226706 
L 551.232 307.382583 
L 557.568 307.23891 
L 563.904 307.316157 
L 567.072 307.317424 
L 570.24 307.172181 
L 582.912 307.336286 
L 595.584 307.338754 
L 601.92 307.246963 
L 608.256 307.247602 
L 630.432 307.136844 
L 639.936 307.234943 
L 655.776 307.129336 
L 658.944 306.981429 
L 677.952 306.927983 
L 706.464 306.844264 
L 715.968 306.995064 
L 782.496 307.072514 
L 788.832 306.943719 
L 788.832 306.943719 
" clip-path="url(#p757080ed6d)" style="fill: none; stroke: #000000; stroke-width: 1.5; stroke-linecap: square"/>
   </g>
  </g>
 </g>
 <defs>
  <clipPath id="p757080ed6d">
   <rect x="0" y="0" width="792" height="612"/>
  </clipPath>
 </defs>
</svg>
