<?xml version="1.0" encoding="utf-8" standalone="no"?>
<!DOCTYPE svg PUBLIC "-//W3C//DTD SVG 1.1//EN"
  "http://www.w3.org/Graphics/SVG/1.1/DTD/svg11.dtd">
<svg xmlns:xlink="http://www.w3.org/1999/xlink" width="792pt" height="612pt" viewBox="0 0 792 612" xmlns="http://www.w3.org/2000/svg" version="1.1">
 <metadata>
  <rdf:RDF xmlns:dc="http://purl.org/dc/elements/1.1/" xmlns:cc="http://creativecommons.org/ns#" xmlns:rdf="http://www.w3.org/1999/02/22-rdf-syntax-ns#">
   <cc:Work>
    <dc:type rdf:resource="http://purl.org/dc/dcmitype/StillImage"/>
    <dc:date>2022-12-19T20:27:38.093943</dc:date>
    <dc:format>image/svg+xml</dc:format>
    <dc:creator>
     <cc:Agent>
      <dc:title>Matplotlib v3.6.2, https://matplotlib.org/</dc:title>
     </cc:Agent>
    </dc:creator>
   </cc:Work>
  </rdf:RDF>
 </metadata>
 <defs>
  <style type="text/css">*{stroke-linejoin: round; stroke-linecap: butt}</style>
 </defs>
 <g id="figure_1">
  <g id="patch_1">
   <path d="M 0 612 
L 792 612 
L 792 0 
L 0 0 
z
" style="fill: #ffffff"/>
  </g>
  <g id="axes_1">
   <g id="line2d_1">
    <path d="M 0 306 
L 12.375 320.958713 
L 24.75 300.31181 
L 37.125 306.898236 
L 49.5 332.877719 
L 61.875 300.012506 
L 74.25 320.062495 
L 86.625 309.293415 
L 99 328.415744 
L 111.375 301.808481 
L 123.75 340.583513 
L 136.125 287.459139 
L 148.5 299.413933 
L 160.875 323.048862 
L 173.25 309.892158 
L 185.625 308.694647 
L 198 277.637416 
L 210.375 320.958713 
L 222.75 312.286786 
L 235.125 323.645763 
L 247.5 311.388875 
L 259.875 312.885335 
L 272.25 314.082268 
L 284.625 300.31181 
L 297 307.197646 
L 309.375 295.225591 
L 321.75 301.509129 
L 334.125 317.970405 
L 346.5 298.815411 
L 358.875 301.808481 
L 371.25 309.892158 
L 383.625 294.328561 
L 396 309.293415 
L 408.375 309.892158 
L 420.75 306 
L 433.125 301.509129 
L 445.5 321.257396 
L 457.875 316.176285 
L 470.25 309.293415 
L 482.625 307.497053 
L 495 315.578083 
L 507.375 297.319355 
L 519.75 318.867164 
L 532.125 277.934284 
L 544.5 274.079364 
L 556.875 301.808481 
L 569.25 287.75747 
L 581.625 318.568268 
L 594 310.191519 
L 606.375 300.012506 
L 618.75 315.578083 
L 631.125 304.502947 
L 643.5 296.421917 
L 655.875 309.892158 
L 668.25 311.388875 
L 680.625 303.005966 
L 693 311.987494 
L 705.375 277.934284 
L 717.75 306 
L 730.125 327.522135 
L 742.5 326.926191 
L 754.875 326.926191 
L 767.25 305.401175 
L 779.625 309.892158 
" clip-path="url(#pe2b12e5d5a)" style="fill: none; stroke: #000000; stroke-width: 1.5; stroke-linecap: square"/>
   </g>
   <g id="line2d_2">
    <path d="M 0 306 
L 12.375 306 
L 24.75 315.976893 
L 37.125 307.026555 
L 49.5 306.958118 
L 61.875 320.361262 
L 74.25 310.02996 
L 86.625 315.088163 
L 99 312.179981 
L 111.375 320.351889 
L 123.75 311.047292 
L 136.125 325.940781 
L 148.5 306.664578 
L 160.875 302.973093 
L 173.25 313.063716 
L 185.625 311.458129 
L 198 310.075297 
L 210.375 293.722446 
L 222.75 307.380813 
L 235.125 309.778282 
L 247.5 316.788482 
L 259.875 314.112775 
L 272.25 313.479136 
L 284.625 313.788924 
L 297 307.034438 
L 309.375 307.174163 
L 321.75 301.147569 
L 334.125 301.307217 
L 346.5 309.630358 
L 358.875 304.197673 
L 371.25 302.981311 
L 383.625 306.428571 
L 396 300.364629 
L 408.375 304.832882 
L 420.75 307.39138 
L 433.125 306.7045 
L 445.5 304.074389 
L 457.875 312.715164 
L 470.25 314.474154 
L 482.625 311.883032 
L 495 309.71606 
L 507.375 312.660005 
L 519.75 304.964388 
L 532.125 311.944066 
L 544.5 294.858548 
L 556.875 284.351685 
L 569.25 293.041414 
L 581.625 290.356116 
L 594 304.480639 
L 606.375 307.325628 
L 618.75 303.674017 
L 631.125 309.620966 
L 643.5 307.114281 
L 655.875 301.810829 
L 668.25 305.867319 
L 680.625 308.674687 
L 693 305.809785 
L 705.375 308.902457 
L 717.75 293.342647 
L 730.125 299.649835 
L 742.5 313.64694 
L 754.875 320.353061 
L 767.25 323.67502 
L 779.625 314.53399 
" clip-path="url(#pe2b12e5d5a)" style="fill: none; stroke: #000000; stroke-width: 1.5; stroke-linecap: square"/>
   </g>
   <g id="line2d_3">
    <path d="M 0 306 
L 12.375 306 
L 24.75 314.767201 
L 37.125 308.218703 
L 49.5 307.703036 
L 61.875 316.680272 
L 74.25 311.103144 
L 86.625 313.983402 
L 99 312.518458 
L 111.375 317.397692 
L 123.75 312.686965 
L 136.125 321.075278 
L 148.5 311.074403 
L 160.875 307.620986 
L 173.25 312.179675 
L 185.625 311.506015 
L 198 310.67943 
L 210.375 300.945782 
L 222.75 306.810602 
L 235.125 308.428505 
L 247.5 312.909397 
L 259.875 312.439329 
L 272.25 312.584745 
L 284.625 313.016521 
L 297 309.285631 
L 309.375 308.649682 
L 321.75 304.70904 
L 334.125 303.726698 
L 346.5 307.935396 
L 358.875 305.263159 
L 371.25 304.226832 
L 383.625 305.886215 
L 396 302.483045 
L 408.375 304.51415 
L 420.75 306.07666 
L 433.125 306.046985 
L 445.5 304.692342 
L 457.875 309.559026 
L 470.25 311.501579 
L 482.625 310.849371 
L 495 309.875837 
L 507.375 311.556068 
L 519.75 307.388379 
L 532.125 310.772227 
L 544.5 301.085662 
L 556.875 293.120336 
L 569.25 295.663508 
L 581.625 293.320573 
L 594 300.740761 
L 606.375 303.509621 
L 618.75 302.473884 
L 631.125 306.323827 
L 643.5 305.793939 
L 655.875 303.019571 
L 668.25 305.025281 
L 680.625 306.8917 
L 693 305.74841 
L 705.375 307.571879 
L 717.75 298.84702 
L 730.125 300.926835 
L 742.5 308.783526 
L 754.875 314.165958 
L 767.25 317.937123 
L 779.625 314.287977 
" clip-path="url(#pe2b12e5d5a)" style="fill: none; stroke: #000000; stroke-width: 1.5; stroke-linecap: square"/>
   </g>
   <g id="line2d_4">
    <path d="M 0 306 
L 12.375 306 
L 24.75 314.130345 
L 37.125 308.7079 
L 49.5 308.132066 
L 61.875 314.942 
L 74.25 311.268761 
L 86.625 313.261105 
L 99 312.419566 
L 111.375 315.647718 
L 123.75 312.974344 
L 136.125 318.15637 
L 148.5 312.574701 
L 160.875 310.235207 
L 173.25 312.473916 
L 185.625 312.030223 
L 198 311.46422 
L 210.375 305.770482 
L 222.75 308.30066 
L 235.125 308.959436 
L 247.5 311.374202 
L 259.875 311.3766 
L 272.25 311.622089 
L 284.625 312.020981 
L 297 310.128734 
L 309.375 309.656215 
L 321.75 307.334022 
L 334.125 306.398524 
L 346.5 308.255089 
L 358.875 306.743091 
L 371.25 305.953575 
L 383.625 306.583175 
L 396 304.624881 
L 408.375 305.36973 
L 420.75 306.082385 
L 433.125 306.072827 
L 445.5 305.343313 
L 457.875 307.870005 
L 470.25 309.202152 
L 482.625 309.209948 
L 495 308.93631 
L 507.375 309.985355 
L 519.75 307.967139 
L 532.125 309.688786 
L 544.5 304.618128 
L 556.875 299.725751 
L 569.25 300.043828 
L 581.625 298.072896 
L 594 301.339942 
L 606.375 302.768481 
L 618.75 302.316874 
L 631.125 304.429197 
L 643.5 304.428975 
L 655.875 303.145256 
L 668.25 304.216828 
L 680.625 305.356318 
L 693 304.984037 
L 705.375 306.10142 
L 717.75 301.596812 
L 730.125 302.300102 
L 742.5 306.324507 
L 754.875 309.624905 
L 767.25 312.397709 
L 779.625 311.281992 
" clip-path="url(#pe2b12e5d5a)" style="fill: none; stroke: #000000; stroke-width: 1.5; stroke-linecap: square"/>
   </g>
   <g id="line2d_5">
    <path d="M 0 306 
L 12.375 306 
L 24.75 313.807702 
L 37.125 308.914918 
L 49.5 308.343477 
L 61.875 314.149666 
L 74.25 311.256254 
L 86.625 312.864566 
L 99 312.271887 
L 111.375 314.750795 
L 123.75 312.898202 
L 136.125 316.654517 
L 148.5 312.905846 
L 160.875 311.249249 
L 173.25 312.644403 
L 185.625 312.330408 
L 198 311.928139 
L 210.375 308.227469 
L 222.75 309.566498 
L 235.125 309.846222 
L 247.5 311.239114 
L 259.875 311.253948 
L 272.25 311.413003 
L 284.625 311.669548 
L 297 310.592418 
L 309.375 310.274224 
L 321.75 308.8783 
L 334.125 308.201457 
L 346.5 309.091338 
L 358.875 308.163195 
L 371.25 307.593426 
L 383.625 307.798177 
L 396 306.605242 
L 408.375 306.841923 
L 420.75 307.109139 
L 433.125 307.012425 
L 445.5 306.534529 
L 457.875 307.809154 
L 470.25 308.530681 
L 482.625 308.596219 
L 495 308.502053 
L 507.375 309.106872 
L 519.75 308.10202 
L 532.125 309.018123 
L 544.5 306.373371 
L 556.875 303.62784 
L 569.25 303.473973 
L 581.625 302.145278 
L 594 303.530419 
L 606.375 304.091298 
L 618.75 303.748221 
L 631.125 304.742258 
L 643.5 304.722175 
L 655.875 304.025994 
L 668.25 304.517432 
L 680.625 305.092673 
L 693 304.918115 
L 705.375 305.509139 
L 717.75 303.198873 
L 730.125 303.432752 
L 742.5 305.446096 
L 754.875 307.240656 
L 767.25 308.884749 
L 779.625 308.594406 
" clip-path="url(#pe2b12e5d5a)" style="fill: none; stroke: #000000; stroke-width: 1.5; stroke-linecap: square"/>
   </g>
   <g id="line2d_6">
    <path d="M 0 306 
L 12.375 306 
L 24.75 313.645844 
L 37.125 309.007999 
L 49.5 308.445825 
L 61.875 313.777954 
L 74.25 311.22898 
L 86.625 312.661653 
L 99 312.174177 
L 111.375 314.310841 
L 123.75 312.803838 
L 136.125 315.92493 
L 148.5 312.947498 
L 160.875 311.615352 
L 173.25 312.682473 
L 185.625 312.434951 
L 198 312.117856 
L 210.375 309.307035 
L 222.75 310.220091 
L 235.125 310.376312 
L 247.5 311.348195 
L 259.875 311.351082 
L 272.25 311.456955 
L 284.625 311.633436 
L 297 310.891051 
L 309.375 310.654342 
L 321.75 309.686275 
L 334.125 309.183528 
L 346.5 309.713972 
L 358.875 309.067993 
L 371.25 308.644871 
L 383.625 308.716437 
L 396 307.902828 
L 408.375 307.980344 
L 420.75 308.085513 
L 433.125 307.972226 
L 445.5 307.625268 
L 457.875 308.349541 
L 470.25 308.760781 
L 482.625 308.788476 
L 495 308.721968 
L 507.375 309.072003 
L 519.75 308.477256 
L 532.125 308.999035 
L 544.5 307.448169 
L 556.875 305.792881 
L 569.25 305.597282 
L 581.625 304.726331 
L 594 305.397357 
L 606.375 305.628264 
L 618.75 305.359314 
L 631.125 305.846123 
L 643.5 305.782487 
L 655.875 305.341067 
L 668.25 305.554609 
L 680.625 305.827142 
L 693 305.695932 
L 705.375 305.987373 
L 717.75 304.68947 
L 730.125 304.749707 
L 742.5 305.794328 
L 754.875 306.760394 
L 767.25 307.679365 
L 779.625 307.576035 
" clip-path="url(#pe2b12e5d5a)" style="fill: none; stroke: #000000; stroke-width: 1.5; stroke-linecap: square"/>
   </g>
   <g id="line2d_7">
    <path d="M 0 306 
L 12.375 306 
L 24.75 313.564847 
L 37.125 309.051832 
L 49.5 308.495836 
L 61.875 313.598698 
L 74.25 311.210616 
L 86.625 312.559739 
L 99 312.119904 
L 111.375 314.09504 
L 123.75 312.74377 
L 136.125 315.570406 
L 148.5 312.938285 
L 160.875 311.757763 
L 173.25 312.683684 
L 185.625 312.468092 
L 198 312.192081 
L 210.375 309.783337 
L 222.75 310.525651 
L 235.125 310.637515 
L 247.5 311.431293 
L 259.875 311.428806 
L 272.25 311.511147 
L 284.625 311.651581 
L 297 311.052313 
L 309.375 310.854804 
L 321.75 310.076983 
L 334.125 309.662413 
L 346.5 310.054108 
L 358.875 309.537807 
L 371.25 309.191238 
L 383.625 309.22195 
L 396 308.583491 
L 408.375 308.613277 
L 420.75 308.665858 
L 433.125 308.558378 
L 445.5 308.27943 
L 457.875 308.784293 
L 470.25 309.066784 
L 482.625 309.075298 
L 495 309.016948 
L 507.375 309.255906 
L 519.75 308.827697 
L 532.125 309.182917 
L 544.5 308.090487 
L 556.875 306.916154 
L 569.25 306.742639 
L 581.625 306.10498 
L 594 306.518338 
L 606.375 306.638691 
L 618.75 306.424005 
L 631.125 306.717443 
L 643.5 306.647226 
L 655.875 306.326204 
L 668.25 306.437025 
L 680.625 306.589455 
L 693 306.480178 
L 705.375 306.646631 
L 717.75 305.784142 
L 730.125 305.790554 
L 742.5 306.4318 
L 754.875 307.031694 
L 767.25 307.609543 
L 779.625 307.545986 
" clip-path="url(#pe2b12e5d5a)" style="fill: none; stroke: #000000; stroke-width: 1.5; stroke-linecap: square"/>
   </g>
   <g id="line2d_8">
    <path d="M 0 306 
L 12.375 306 
L 24.75 313.52434 
L 37.125 309.073061 
L 49.5 308.520511 
L 61.875 313.510767 
L 74.25 311.200326 
L 86.625 312.508761 
L 99 312.091509 
L 111.375 313.988438 
L 123.75 312.710751 
L 136.125 315.396319 
L 148.5 312.926555 
L 160.875 311.818546 
L 173.25 312.679337 
L 185.625 312.479141 
L 198 312.222965 
L 210.375 310.002852 
L 222.75 310.669729 
L 235.125 310.763394 
L 247.5 311.476787 
L 259.875 311.472132 
L 272.25 311.543941 
L 284.625 311.667967 
L 297 311.133641 
L 309.375 310.954923 
L 321.75 310.264467 
L 334.125 309.892534 
L 346.5 310.22536 
L 358.875 309.769385 
L 371.25 309.460284 
L 383.625 309.476597 
L 396 308.919331 
L 408.375 308.932741 
L 420.75 308.966292 
L 433.125 308.86502 
L 445.5 308.619612 
L 457.875 309.032307 
L 470.25 309.260494 
L 482.625 309.261524 
L 495 309.207465 
L 507.375 309.398919 
L 519.75 309.042853 
L 532.125 309.327284 
L 544.5 308.433024 
L 556.875 307.470514 
L 569.25 307.315069 
L 581.625 306.786381 
L 594 307.099628 
L 606.375 307.180512 
L 618.75 306.995833 
L 631.125 307.213739 
L 643.5 307.145927 
L 655.875 306.881349 
L 668.25 306.954596 
L 680.625 307.061037 
L 693 306.964979 
L 705.375 307.082452 
L 717.75 306.407465 
L 730.125 306.39817 
L 742.5 306.875146 
L 754.875 307.322602 
L 767.25 307.755105 
L 779.625 307.703835 
" clip-path="url(#pe2b12e5d5a)" style="fill: none; stroke: #000000; stroke-width: 1.5; stroke-linecap: square"/>
   </g>
   <g id="line2d_9">
    <path d="M 0 306 
L 12.375 306 
L 24.75 313.504085 
L 37.125 309.083502 
L 49.5 308.532761 
L 61.875 313.467231 
L 74.25 311.194913 
L 86.625 312.483279 
L 99 312.077011 
L 111.375 313.935493 
L 123.75 312.69353 
L 136.125 315.31014 
L 148.5 312.918972 
L 160.875 311.846329 
L 173.25 312.675886 
L 185.625 312.483218 
L 198 312.236742 
L 210.375 310.107677 
L 222.75 310.739208 
L 235.125 310.824697 
L 247.5 311.50008 
L 259.875 311.494493 
L 272.25 311.561378 
L 284.625 311.677654 
L 297 311.174102 
L 309.375 311.00452 
L 321.75 310.355621 
L 334.125 310.00443 
L 346.5 310.310383 
L 358.875 309.883242 
L 371.25 309.592443 
L 383.625 309.602917 
L 396 309.084311 
L 408.375 309.091212 
L 420.75 309.116936 
L 433.125 309.019445 
L 445.5 308.790458 
L 457.875 309.161619 
L 470.25 309.36539 
L 482.625 309.363348 
L 495 309.311598 
L 507.375 309.481634 
L 519.75 309.158725 
L 532.125 309.41129 
L 544.5 308.607527 
L 556.875 307.742422 
L 569.25 307.597081 
L 581.625 307.119749 
L 594 307.390029 
L 606.375 307.454952 
L 618.75 307.285488 
L 631.125 307.471136 
L 643.5 307.40582 
L 655.875 307.167997 
L 668.25 307.226025 
L 680.625 307.313317 
L 693 307.224389 
L 705.375 307.321263 
L 717.75 306.730882 
L 730.125 306.716449 
L 742.5 307.122181 
L 754.875 307.502995 
L 767.25 307.871412 
L 779.625 307.82526 
" clip-path="url(#pe2b12e5d5a)" style="fill: none; stroke: #000000; stroke-width: 1.5; stroke-linecap: square"/>
   </g>
  </g>
 </g>
 <defs>
  <clipPath id="pe2b12e5d5a">
   <rect x="0" y="0" width="792" height="612"/>
  </clipPath>
 </defs>
</svg>
