<?xml version="1.0" encoding="utf-8" standalone="no"?>
<!DOCTYPE svg PUBLIC "-//W3C//DTD SVG 1.1//EN"
  "http://www.w3.org/Graphics/SVG/1.1/DTD/svg11.dtd">
<svg xmlns:xlink="http://www.w3.org/1999/xlink" width="792pt" height="612pt" viewBox="0 0 792 612" xmlns="http://www.w3.org/2000/svg" version="1.1">
 <metadata>
  <rdf:RDF xmlns:dc="http://purl.org/dc/elements/1.1/" xmlns:cc="http://creativecommons.org/ns#" xmlns:rdf="http://www.w3.org/1999/02/22-rdf-syntax-ns#">
   <cc:Work>
    <dc:type rdf:resource="http://purl.org/dc/dcmitype/StillImage"/>
    <dc:date>2023-01-09T02:28:17.132477</dc:date>
    <dc:format>image/svg+xml</dc:format>
    <dc:creator>
     <cc:Agent>
      <dc:title>Matplotlib v3.6.2, https://matplotlib.org/</dc:title>
     </cc:Agent>
    </dc:creator>
   </cc:Work>
  </rdf:RDF>
 </metadata>
 <defs>
  <style type="text/css">*{stroke-linejoin: round; stroke-linecap: butt}</style>
 </defs>
 <g id="figure_1">
  <g id="patch_1">
   <path d="M 0 612 
L 792 612 
L 792 0 
L 0 0 
z
" style="fill: #ffffff"/>
  </g>
  <g id="axes_1">
   <g id="line2d_1">
    <path d="M 0 306 
L 12.774194 317.07862 
L 25.548387 319.003188 
L 38.322581 296.846826 
L 51.096774 307.927534 
L 63.870968 288.670531 
L 76.645161 298.772998 
L 89.419355 325.250136 
L 102.193548 294.440149 
L 114.967742 299.254636 
L 127.741935 312.263692 
L 140.516129 287.229894 
L 153.290323 311.300257 
L 166.064516 312.263692 
L 178.83871 306 
L 191.612903 298.772998 
L 204.387097 330.523671 
L 217.16129 322.368613 
L 229.935484 311.300257 
L 242.709677 308.409399 
L 255.483871 321.407432 
L 268.258065 292.034904 
L 281.032258 326.689645 
L 293.806452 261.030361 
L 306.580645 254.920327 
L 319.354839 299.254636 
L 332.129032 276.694813 
L 344.903226 326.209908 
L 357.677419 312.745364 
L 370.451613 296.36539 
L 383.225806 321.407432 
L 396 303.590601 
L 408.774194 290.592568 
L 421.548387 312.263692 
L 434.322581 314.671693 
L 447.096774 301.181501 
L 459.870968 315.63461 
L 472.645161 261.030361 
L 485.419355 306 
L 498.193548 340.548135 
L 510.967742 339.596306 
L 523.741935 339.596306 
L 536.516129 305.036224 
L 549.290323 312.263692 
L 562.064516 305.518111 
L 574.83871 317.07862 
L 587.612903 304.554341 
L 600.387097 313.227002 
L 613.16129 319.965096 
L 625.935484 326.209908 
L 638.709677 296.846826 
L 651.483871 295.402665 
L 664.258065 324.770106 
L 677.032258 330.523671 
L 689.806452 323.80977 
L 702.580645 315.153174 
L 715.354839 291.554053 
L 728.129032 309.373092 
L 740.903226 312.745364 
L 753.677419 298.291395 
L 766.451613 312.263692 
L 779.225806 311.300257 
" clip-path="url(#pb565152897)" style="fill: none; stroke: #000000; stroke-width: 1.5; stroke-linecap: square"/>
   </g>
   <g id="line2d_2">
    <path d="M 0 306 
L 12.774194 306 
L 25.548387 313.387541 
L 38.322581 316.597335 
L 51.096774 306.064252 
L 63.870968 307.025955 
L 76.645161 297.695178 
L 89.419355 298.238307 
L 102.193548 311.808436 
L 114.967742 303.099299 
L 127.741935 301.141826 
L 140.516129 306.689763 
L 153.290323 296.93179 
L 166.064516 304.121598 
L 178.83871 308.23933 
L 191.612903 307.133853 
L 204.387097 302.900893 
L 217.16129 316.804955 
L 229.935484 319.633174 
L 242.709677 315.466585 
L 255.483871 311.980341 
L 268.258065 316.716246 
L 281.032258 304.333245 
L 293.806452 315.564757 
L 306.580645 288.080997 
L 319.354839 271.250387 
L 332.129032 285.163632 
L 344.903226 280.856815 
L 357.677419 303.554698 
L 370.451613 308.133509 
L 383.225806 302.256565 
L 396 311.827327 
L 408.774194 307.793365 
L 421.548387 299.258414 
L 434.322581 305.786457 
L 447.096774 310.304598 
L 459.870968 305.693858 
L 472.645161 310.671133 
L 485.419355 285.647101 
L 498.193548 295.782068 
L 510.967742 318.303285 
L 523.741935 329.0736 
L 536.516129 334.3968 
L 549.290323 319.729359 
L 562.064516 316.019724 
L 574.83871 310.750484 
L 587.612903 314.025875 
L 600.387097 309.288062 
L 613.16129 311.203908 
L 625.935484 315.547766 
L 638.709677 320.856971 
L 651.483871 308.840233 
L 664.258065 302.086513 
L 677.032258 313.476307 
L 689.806452 322.038831 
L 702.580645 322.962122 
L 715.354839 319.063551 
L 728.129032 305.251655 
L 740.903226 307.279363 
L 753.677419 310.043859 
L 766.451613 304.17262 
L 779.225806 308.193978 
" clip-path="url(#pb565152897)" style="fill: none; stroke: #000000; stroke-width: 1.5; stroke-linecap: square"/>
   </g>
   <g id="line2d_3">
    <path d="M 0 306 
L 12.774194 306 
L 25.548387 312.491569 
L 38.322581 315.442949 
L 51.096774 308.181436 
L 63.870968 308.091101 
L 76.645161 301.584469 
L 89.419355 300.681062 
L 102.193548 308.364456 
L 114.967742 304.095919 
L 127.741935 302.631987 
L 140.516129 305.516961 
L 153.290323 300.069507 
L 166.064516 303.395364 
L 178.83871 306.013504 
L 191.612903 306.009526 
L 204.387097 303.881323 
L 217.16129 311.727659 
L 229.935484 314.852993 
L 242.709677 313.803775 
L 255.483871 312.23743 
L 268.258065 314.940645 
L 281.032258 308.2345 
L 293.806452 313.679665 
L 306.580645 298.091705 
L 319.354839 285.290292 
L 332.129032 289.374003 
L 344.903226 285.611671 
L 357.677419 297.53685 
L 370.451613 301.992004 
L 383.225806 300.325297 
L 396 306.521182 
L 408.774194 305.668356 
L 421.548387 301.203393 
L 434.322581 304.431248 
L 447.096774 307.435139 
L 459.870968 305.59508 
L 472.645161 308.529823 
L 485.419355 294.490979 
L 498.193548 297.83619 
L 510.967742 310.479747 
L 523.741935 319.137731 
L 536.516129 325.196701 
L 549.290323 319.33389 
L 562.064516 317.248186 
L 574.83871 313.806115 
L 587.612903 314.788609 
L 600.387097 311.77271 
L 613.16129 312.209758 
L 625.935484 314.516254 
L 638.709677 317.961384 
L 651.483871 311.759425 
L 664.258065 306.961235 
L 677.032258 312.193916 
L 689.806452 317.653232 
L 702.580645 319.478082 
L 715.354839 318.182538 
L 728.129032 310.329005 
L 740.903226 310.014168 
L 753.677419 310.823056 
L 766.451613 307.136366 
L 779.225806 308.646068 
" clip-path="url(#pb565152897)" style="fill: none; stroke: #000000; stroke-width: 1.5; stroke-linecap: square"/>
   </g>
   <g id="line2d_4">
    <path d="M 0 306 
L 12.774194 306 
L 25.548387 312.019912 
L 38.322581 314.761749 
L 51.096774 309.061754 
L 63.870968 308.750385 
L 76.645161 303.803852 
L 89.419355 302.664574 
L 102.193548 307.461117 
L 114.967742 304.836896 
L 127.741935 303.757842 
L 140.516129 305.347582 
L 153.290323 302.049123 
L 166.064516 303.693854 
L 178.83871 305.189667 
L 191.612903 305.328945 
L 204.387097 304.216123 
L 217.16129 308.642699 
L 229.935484 310.929749 
L 242.709677 310.990974 
L 255.483871 310.567026 
L 268.258065 312.339826 
L 281.032258 309.035322 
L 293.806452 311.901845 
L 306.580645 303.627183 
L 319.354839 295.70063 
L 332.129032 296.272239 
L 344.903226 293.118587 
L 357.677419 298.424868 
L 370.451613 300.717777 
L 383.225806 300.021261 
L 396 303.441262 
L 408.774194 303.465115 
L 421.548387 301.405647 
L 434.322581 303.130128 
L 447.096774 304.964029 
L 459.870968 304.36487 
L 472.645161 306.16323 
L 485.419355 298.914071 
L 498.193548 300.045664 
L 510.967742 306.522277 
L 523.741935 311.833665 
L 536.516129 316.294399 
L 549.290323 314.499754 
L 562.064516 314.159666 
L 574.83871 312.781672 
L 587.612903 313.46856 
L 600.387097 312.049831 
L 613.16129 312.246152 
L 625.935484 313.46844 
L 638.709677 315.500939 
L 651.483871 312.525127 
L 664.258065 309.792727 
L 677.032258 312.180863 
L 689.806452 315.129706 
L 702.580645 316.51028 
L 715.354839 316.328323 
L 728.129032 312.410452 
L 740.903226 311.933578 
L 753.677419 312.085283 
L 766.451613 309.873395 
L 779.225806 310.253439 
" clip-path="url(#pb565152897)" style="fill: none; stroke: #000000; stroke-width: 1.5; stroke-linecap: square"/>
   </g>
   <g id="line2d_5">
    <path d="M 0 306 
L 12.774194 306 
L 25.548387 311.780972 
L 38.322581 314.400877 
L 51.096774 309.427253 
L 63.870968 309.073233 
L 76.645161 304.892518 
L 89.419355 303.775431 
L 102.193548 307.344242 
L 114.967742 305.365583 
L 127.741935 304.490307 
L 140.516129 305.540398 
L 153.290323 303.1866 
L 166.064516 304.183081 
L 178.83871 305.137572 
L 191.612903 305.235978 
L 204.387097 304.520638 
L 217.16129 307.326359 
L 229.935484 308.908682 
L 242.709677 309.154597 
L 255.483871 309.079469 
L 268.258065 310.301692 
L 281.032258 308.520159 
L 293.806452 310.268969 
L 306.580645 305.567702 
L 319.354839 300.775237 
L 332.129032 300.634198 
L 344.903226 298.428158 
L 357.677419 300.959228 
L 370.451613 302.023616 
L 383.225806 301.516131 
L 396 303.288719 
L 408.774194 303.315444 
L 421.548387 302.194283 
L 434.322581 303.076348 
L 447.096774 304.08759 
L 459.870968 303.835223 
L 472.645161 304.856136 
L 485.419355 301.050536 
L 498.193548 301.475749 
L 510.967742 304.835585 
L 523.741935 307.817289 
L 536.516129 310.537276 
L 549.290323 310.069501 
L 562.064516 310.255744 
L 574.83871 309.854455 
L 587.612903 310.465663 
L 600.387097 309.966609 
L 613.16129 310.241549 
L 625.935484 311.0609 
L 638.709677 312.336941 
L 651.483871 311.035791 
L 664.258065 309.723686 
L 677.032258 310.986965 
L 689.806452 312.627422 
L 702.580645 313.564581 
L 715.354839 313.697483 
L 728.129032 311.846285 
L 740.903226 311.639688 
L 753.677419 311.732017 
L 766.451613 310.610432 
L 779.225806 310.748356 
" clip-path="url(#pb565152897)" style="fill: none; stroke: #000000; stroke-width: 1.5; stroke-linecap: square"/>
   </g>
   <g id="line2d_6">
    <path d="M 0 306 
L 12.774194 306 
L 25.548387 311.661106 
L 38.322581 314.216394 
L 51.096774 309.58844 
L 63.870968 309.226887 
L 76.645161 305.416021 
L 89.419355 304.339151 
L 102.193548 307.369708 
L 114.967742 305.671198 
L 127.741935 304.897304 
L 140.516129 305.721282 
L 153.290323 303.785007 
L 166.064516 304.524975 
L 178.83871 305.246541 
L 191.612903 305.313389 
L 204.387097 304.758698 
L 217.16129 306.858821 
L 229.935484 308.074359 
L 242.709677 308.318203 
L 255.483871 308.324875 
L 268.258065 309.254207 
L 281.032258 308.065492 
L 293.806452 309.319277 
L 306.580645 306.130895 
L 319.354839 302.817586 
L 332.129032 302.594024 
L 344.903226 300.996362 
L 357.677419 302.519109 
L 370.451613 303.125238 
L 383.225806 302.731083 
L 396 303.80332 
L 408.774194 303.791295 
L 421.548387 303.05491 
L 434.322581 303.561473 
L 447.096774 304.165103 
L 459.870968 304.004924 
L 472.645161 304.622413 
L 485.419355 302.315828 
L 498.193548 302.507371 
L 510.967742 304.47399 
L 523.741935 306.273429 
L 536.516129 307.966389 
L 549.290323 307.819336 
L 562.064516 308.040696 
L 574.83871 307.915999 
L 587.612903 308.365989 
L 600.387097 308.180134 
L 613.16129 308.424721 
L 625.935484 308.980947 
L 638.709677 309.807271 
L 651.483871 309.189981 
L 664.258065 308.536636 
L 677.032258 309.302951 
L 689.806452 310.300921 
L 702.580645 310.932676 
L 715.354839 311.129014 
L 728.129032 310.222053 
L 740.903226 310.182886 
L 753.677419 310.300684 
L 766.451613 309.750656 
L 779.225806 309.865378 
" clip-path="url(#pb565152897)" style="fill: none; stroke: #000000; stroke-width: 1.5; stroke-linecap: square"/>
   </g>
   <g id="line2d_7">
    <path d="M 0 306 
L 12.774194 306 
L 25.548387 311.601124 
L 38.322581 314.123284 
L 51.096774 309.663376 
L 63.870968 309.301022 
L 76.645161 305.6706 
L 89.419355 304.619861 
L 102.193548 307.401739 
L 114.967742 305.833012 
L 127.741935 305.109107 
L 140.516129 305.832312 
L 153.290323 304.088665 
L 166.064516 304.718355 
L 178.83871 305.336498 
L 191.612903 305.387749 
L 204.387097 304.903722 
L 217.16129 306.689534 
L 229.935484 307.731122 
L 242.709677 307.957831 
L 255.483871 307.985353 
L 268.258065 308.77301 
L 281.032258 307.826348 
L 293.806452 308.85815 
L 306.580645 306.31287 
L 319.354839 303.654518 
L 332.129032 303.435532 
L 344.903226 302.137306 
L 357.677419 303.272887 
L 370.451613 303.70808 
L 383.225806 303.378706 
L 396 304.169172 
L 408.774194 304.144376 
L 421.548387 303.575267 
L 434.322581 303.932492 
L 447.096774 304.365566 
L 459.870968 304.239556 
L 472.645161 304.682555 
L 485.419355 303.002588 
L 498.193548 303.115194 
L 510.967742 304.504612 
L 523.741935 305.787146 
L 536.516129 307.004755 
L 549.290323 306.93515 
L 562.064516 307.121003 
L 574.83871 307.065847 
L 587.612903 307.406138 
L 600.387097 307.310464 
L 613.16129 307.506621 
L 625.935484 307.915106 
L 638.709677 308.508709 
L 651.483871 308.134941 
L 664.258065 307.731106 
L 677.032258 308.266598 
L 689.806452 308.959842 
L 702.580645 309.417475 
L 715.354839 309.592434 
L 728.129032 309.047052 
L 740.903226 309.056819 
L 753.677419 309.166399 
L 766.451613 308.846008 
L 779.225806 308.945903 
" clip-path="url(#pb565152897)" style="fill: none; stroke: #000000; stroke-width: 1.5; stroke-linecap: square"/>
   </g>
   <g id="line2d_8">
    <path d="M 0 306 
L 12.774194 306 
L 25.548387 311.571126 
L 38.322581 314.076531 
L 51.096774 309.699402 
L 63.870968 309.337328 
L 76.645161 305.795862 
L 89.419355 304.759514 
L 102.193548 307.422265 
L 114.967742 305.915904 
L 127.741935 305.216734 
L 140.516129 305.8927 
L 153.290323 304.241098 
L 166.064516 304.820124 
L 178.83871 305.390105 
L 191.612903 305.433919 
L 204.387097 304.982858 
L 217.16129 306.622306 
L 229.935484 307.580882 
L 242.709677 307.796325 
L 255.483871 307.830234 
L 268.258065 308.549828 
L 281.032258 307.710266 
L 293.806452 308.638963 
L 306.580645 306.383085 
L 319.354839 304.024125 
L 332.129032 303.814744 
L 344.903226 302.658815 
L 357.677419 303.629767 
L 370.451613 303.994092 
L 383.225806 303.697756 
L 396 304.367132 
L 408.774194 304.338572 
L 421.548387 303.84539 
L 434.322581 304.139788 
L 447.096774 304.499445 
L 459.870968 304.388738 
L 472.645161 304.755742 
L 485.419355 303.349257 
L 498.193548 303.432133 
L 510.967742 304.573806 
L 523.741935 305.630025 
L 536.516129 306.635153 
L 549.290323 306.588891 
L 562.064516 306.750175 
L 574.83871 306.715771 
L 587.612903 307.000395 
L 600.387097 306.934345 
L 613.16129 307.101584 
L 625.935484 307.438318 
L 638.709677 307.922653 
L 651.483871 307.641473 
L 664.258065 307.335209 
L 677.032258 307.765804 
L 689.806452 308.320682 
L 702.580645 308.692898 
L 715.354839 308.845979 
L 728.129032 308.441369 
L 740.903226 308.462888 
L 753.677419 308.560603 
L 766.451613 308.329091 
L 779.225806 308.416766 
" clip-path="url(#pb565152897)" style="fill: none; stroke: #000000; stroke-width: 1.5; stroke-linecap: square"/>
   </g>
   <g id="line2d_9">
    <path d="M 0 306 
L 12.774194 306 
L 25.548387 311.556126 
L 38.322581 314.053107 
L 51.096774 309.717053 
L 63.870968 309.355279 
L 76.645161 305.857957 
L 89.419355 304.829114 
L 102.193548 307.43361 
L 114.967742 305.957808 
L 127.741935 305.270928 
L 140.516129 305.924066 
L 153.290323 304.317394 
L 166.064516 304.872194 
L 178.83871 305.419003 
L 191.612903 305.459222 
L 204.387097 305.024062 
L 217.16129 306.59313 
L 229.935484 307.511366 
L 242.709677 307.720671 
L 255.483871 307.756908 
L 268.258065 308.443357 
L 281.032258 307.653913 
L 293.806452 308.533201 
L 306.580645 306.413737 
L 319.354839 304.196824 
L 332.129032 303.993559 
L 344.903226 302.906218 
L 357.677419 303.801826 
L 370.451613 304.1342 
L 383.225806 303.854292 
L 396 304.468151 
L 408.774194 304.438363 
L 421.548387 303.981012 
L 434.322581 304.247033 
L 447.096774 304.573178 
L 459.870968 304.469754 
L 472.645161 304.801934 
L 485.419355 303.521441 
L 498.193548 303.591748 
L 510.967742 304.620616 
L 523.741935 305.572992 
L 536.516129 306.479843 
L 549.290323 306.442312 
L 562.064516 306.590623 
L 574.83871 306.56384 
L 587.612903 306.821493 
L 600.387097 306.767004 
L 613.16129 306.919453 
L 625.935484 307.221975 
L 638.709677 307.654953 
L 651.483871 307.413019 
L 664.258065 307.148635 
L 677.032258 307.530576 
L 689.806452 308.021439 
L 702.580645 308.352874 
L 715.354839 308.493316 
L 728.129032 308.148649 
L 740.903226 308.173183 
L 753.677419 308.263487 
L 766.451613 308.069329 
L 779.225806 308.149864 
" clip-path="url(#pb565152897)" style="fill: none; stroke: #000000; stroke-width: 1.5; stroke-linecap: square"/>
   </g>
  </g>
 </g>
 <defs>
  <clipPath id="pb565152897">
   <rect x="0" y="0" width="792" height="612"/>
  </clipPath>
 </defs>
</svg>
