<?xml version="1.0" encoding="utf-8" standalone="no"?>
<!DOCTYPE svg PUBLIC "-//W3C//DTD SVG 1.1//EN"
  "http://www.w3.org/Graphics/SVG/1.1/DTD/svg11.dtd">
<svg xmlns:xlink="http://www.w3.org/1999/xlink" width="792pt" height="612pt" viewBox="0 0 792 612" xmlns="http://www.w3.org/2000/svg" version="1.1">
 <metadata>
  <rdf:RDF xmlns:dc="http://purl.org/dc/elements/1.1/" xmlns:cc="http://creativecommons.org/ns#" xmlns:rdf="http://www.w3.org/1999/02/22-rdf-syntax-ns#">
   <cc:Work>
    <dc:type rdf:resource="http://purl.org/dc/dcmitype/StillImage"/>
    <dc:date>2023-01-23T15:50:38.333610</dc:date>
    <dc:format>image/svg+xml</dc:format>
    <dc:creator>
     <cc:Agent>
      <dc:title>Matplotlib v3.6.2, https://matplotlib.org/</dc:title>
     </cc:Agent>
    </dc:creator>
   </cc:Work>
  </rdf:RDF>
 </metadata>
 <defs>
  <style type="text/css">*{stroke-linejoin: round; stroke-linecap: butt}</style>
 </defs>
 <g id="figure_1">
  <g id="patch_1">
   <path d="M 0 612 
L 792 612 
L 792 0 
L 0 0 
z
" style="fill: #ffffff"/>
  </g>
  <g id="axes_1">
   <g id="line2d_1">
    <path d="M 0 306 
L 12.774194 298.784357 
L 25.548387 325.219948 
L 38.322581 294.458308 
L 51.096774 299.265239 
L 63.870968 312.253846 
L 76.645161 287.259333 
L 89.419355 311.291925 
L 102.193548 312.253846 
L 114.967742 306 
L 127.741935 298.784357 
L 140.516129 330.485276 
L 153.290323 322.342925 
L 166.064516 311.291925 
L 178.83871 308.405611 
L 191.612903 321.383247 
L 204.387097 292.056832 
L 217.16129 326.657213 
L 229.935484 261.100048 
L 242.709677 254.999145 
L 255.483871 299.265239 
L 268.258065 276.740608 
L 281.032258 326.178223 
L 293.806452 312.734761 
L 306.580645 296.380529 
L 319.354839 321.383247 
L 332.129032 303.594389 
L 344.903226 290.616753 
L 357.677419 312.253846 
L 370.451613 314.658066 
L 383.225806 301.189076 
L 396 315.619471 
L 408.774194 261.100048 
L 421.548387 306 
L 434.322581 340.494276 
L 447.096774 339.543906 
L 459.870968 339.543906 
L 472.645161 305.037739 
L 485.419355 312.253846 
L 498.193548 305.518868 
L 510.967742 317.061216 
L 523.741935 304.556614 
L 536.516129 313.215643 
L 549.290323 319.943168 
L 562.064516 326.178223 
L 574.83871 296.861209 
L 587.612903 295.419314 
L 600.387097 324.740667 
L 613.16129 330.485276 
L 625.935484 323.781831 
L 638.709677 315.138791 
L 651.483871 291.576733 
L 664.258065 309.367789 
L 677.032258 312.734761 
L 689.806452 298.30351 
L 702.580645 312.253846 
L 715.354839 311.291925 
L 728.129032 302.151146 
L 740.903226 299.746154 
L 753.677419 264.872998 
L 766.451613 301.189076 
L 779.225806 304.075497 
" clip-path="url(#pb02a72e3b4)" style="fill: none; stroke: #000000; stroke-width: 1.5; stroke-linecap: square"/>
   </g>
   <g id="line2d_2">
    <path d="M 0 306 
L 12.774194 306 
L 25.548387 301.189076 
L 38.322581 314.932771 
L 51.096774 304.011349 
L 63.870968 301.56148 
L 76.645161 306.992809 
L 89.419355 297.03911 
L 102.193548 304.192474 
L 114.967742 308.235809 
L 127.741935 307.13207 
L 140.516129 302.905766 
L 153.290323 316.78798 
L 166.064516 319.611766 
L 178.83871 315.451709 
L 191.612903 311.97094 
L 204.387097 316.69941 
L 217.16129 304.335865 
L 229.935484 315.549728 
L 242.709677 288.109107 
L 255.483871 271.304555 
L 268.258065 285.196292 
L 281.032258 280.89617 
L 293.806452 303.558542 
L 306.580645 308.130154 
L 319.354839 302.26245 
L 332.129032 311.818167 
L 344.903226 307.790546 
L 357.677419 299.26901 
L 370.451613 305.786792 
L 383.225806 310.297831 
L 396 305.69434 
L 408.774194 310.66379 
L 421.548387 285.679008 
L 434.322581 295.798122 
L 447.096774 318.283961 
L 459.870968 329.037458 
L 472.645161 334.352407 
L 485.419355 319.707801 
L 498.193548 316.003981 
L 510.967742 310.743016 
L 523.741935 314.013262 
L 536.516129 309.282893 
L 549.290323 311.195727 
L 562.064516 315.532763 
L 574.83871 320.833647 
L 587.612903 308.835768 
L 600.387097 302.092665 
L 613.16129 313.464557 
L 625.935484 322.013659 
L 638.709677 322.935507 
L 651.483871 319.043036 
L 664.258065 305.252832 
L 677.032258 307.277351 
L 689.806452 310.037502 
L 702.580645 304.175493 
L 715.354839 308.190529 
L 728.129032 309.703593 
L 740.903226 305.884906 
L 753.677419 302.785024 
L 766.451613 283.690597 
L 779.225806 292.412714 
" clip-path="url(#pb02a72e3b4)" style="fill: none; stroke: #000000; stroke-width: 1.5; stroke-linecap: square"/>
   </g>
   <g id="line2d_3">
    <path d="M 0 306 
L 12.774194 306 
L 25.548387 301.772659 
L 38.322581 312.406595 
L 51.096774 305.395785 
L 63.870968 303.214298 
L 76.645161 306.240392 
L 89.419355 300.13511 
L 102.193548 303.620434 
L 114.967742 306.266255 
L 127.741935 306.185755 
L 140.516129 303.96858 
L 153.290323 311.873286 
L 166.064516 314.976572 
L 178.83871 313.889089 
L 191.612903 312.274463 
L 204.387097 314.954706 
L 217.16129 308.230987 
L 229.935484 313.667595 
L 242.709677 298.104134 
L 255.483871 285.322755 
L 268.258065 289.400093 
L 281.032258 285.643633 
L 293.806452 297.55015 
L 306.580645 301.998305 
L 319.354839 300.334217 
L 332.129032 306.520363 
L 344.903226 305.668877 
L 357.677419 301.210933 
L 370.451613 304.433715 
L 383.225806 307.432883 
L 396 305.595716 
L 408.774194 308.525846 
L 421.548387 294.509058 
L 434.322581 297.84902 
L 447.096774 310.472704 
L 459.870968 319.117099 
L 472.645161 325.166596 
L 485.419355 319.312951 
L 498.193548 317.230516 
L 510.967742 313.793846 
L 523.741935 314.774798 
L 536.516129 311.763636 
L 549.290323 312.199997 
L 562.064516 314.50287 
L 574.83871 317.942596 
L 587.612903 311.750372 
L 600.387097 306.959724 
L 613.16129 312.18418 
L 625.935484 317.634927 
L 638.709677 319.456918 
L 651.483871 318.163404 
L 664.258065 310.322199 
L 677.032258 310.007857 
L 689.806452 310.815474 
L 702.580645 307.134579 
L 715.354839 308.641907 
L 728.129032 309.411508 
L 740.903226 307.282267 
L 753.677419 305.05927 
L 766.451613 293.159646 
L 779.225806 295.48137 
" clip-path="url(#pb02a72e3b4)" style="fill: none; stroke: #000000; stroke-width: 1.5; stroke-linecap: square"/>
   </g>
   <g id="line2d_4">
    <path d="M 0 306 
L 12.774194 306 
L 25.548387 302.079852 
L 38.322581 311.170831 
L 51.096774 305.851379 
L 63.870968 304.043023 
L 76.645161 306.064067 
L 89.419355 301.801281 
L 102.193548 303.81455 
L 114.967742 305.514827 
L 127.741935 305.608596 
L 140.516129 304.333021 
L 153.290323 309.097774 
L 166.064516 311.454928 
L 178.83871 311.426479 
L 191.612903 310.907316 
L 204.387097 312.686679 
L 217.16129 309.221468 
L 229.935484 312.128342 
L 242.709677 303.64298 
L 255.483871 295.579027 
L 268.258065 296.181166 
L 281.032258 293.008614 
L 293.806452 298.385714 
L 306.580645 300.704323 
L 319.354839 300.007045 
L 332.129032 303.447576 
L 344.903226 303.471153 
L 357.677419 301.408083 
L 370.451613 303.145027 
L 383.225806 304.987272 
L 396 304.380094 
L 408.774194 306.175825 
L 421.548387 298.925209 
L 434.322581 300.055024 
L 447.096774 306.521456 
L 459.870968 311.824494 
L 472.645161 316.278225 
L 485.419355 314.486396 
L 498.193548 314.146843 
L 510.967742 312.771013 
L 523.741935 313.456821 
L 536.516129 312.040321 
L 549.290323 312.236334 
L 562.064516 313.456702 
L 574.83871 315.48601 
L 587.612903 312.514871 
L 600.387097 309.786764 
L 613.16129 312.171147 
L 625.935484 315.115359 
L 638.709677 316.493768 
L 651.483871 316.312096 
L 664.258065 312.400376 
L 677.032258 311.924251 
L 689.806452 312.075717 
L 702.580645 309.867306 
L 715.354839 310.246752 
L 728.129032 310.422354 
L 740.903226 309.094489 
L 753.677419 307.604669 
L 766.451613 300.750391 
L 779.225806 300.813284 
" clip-path="url(#pb02a72e3b4)" style="fill: none; stroke: #000000; stroke-width: 1.5; stroke-linecap: square"/>
   </g>
   <g id="line2d_5">
    <path d="M 0 306 
L 12.774194 306 
L 25.548387 302.235471 
L 38.322581 310.578244 
L 51.096774 306.009096 
L 63.870968 304.416861 
L 76.645161 306.021478 
L 89.419355 302.593043 
L 102.193548 304.036985 
L 114.967742 305.296503 
L 127.741935 305.397249 
L 140.516129 304.503848 
L 153.290323 307.846253 
L 166.064516 309.628397 
L 178.83871 309.82489 
L 191.612903 309.662952 
L 204.387097 310.961092 
L 217.16129 308.924698 
L 229.935484 310.791167 
L 242.709677 305.648883 
L 255.483871 300.494637 
L 268.258065 300.372853 
L 281.032258 298.061471 
L 293.806452 300.765068 
L 306.580645 301.90031 
L 319.354839 301.382711 
L 332.129032 303.238612 
L 344.903226 303.271289 
L 357.677419 302.118142 
L 370.451613 303.033543 
L 383.225806 304.075946 
L 396 303.818801 
L 408.774194 304.863755 
L 421.548387 300.982419 
L 434.322581 301.421889 
L 447.096774 304.841471 
L 459.870968 307.866529 
L 472.645161 310.618048 
L 485.419355 310.137097 
L 498.193548 310.318995 
L 510.967742 309.907803 
L 523.741935 310.5193 
L 536.516129 310.011136 
L 549.290323 310.283708 
L 562.064516 311.104122 
L 574.83871 312.383079 
L 587.612903 311.070589 
L 600.387097 309.74896 
L 613.16129 311.014664 
L 625.935484 312.657914 
L 638.709677 313.594536 
L 651.483871 313.724282 
L 664.258065 311.865476 
L 677.032258 311.656082 
L 689.806452 311.746453 
L 702.580645 310.621288 
L 715.354839 310.757862 
L 728.129032 310.802508 
L 740.903226 310.079835 
L 753.677419 309.217013 
L 766.451613 305.49541 
L 779.225806 305.136151 
" clip-path="url(#pb02a72e3b4)" style="fill: none; stroke: #000000; stroke-width: 1.5; stroke-linecap: square"/>
   </g>
   <g id="line2d_6">
    <path d="M 0 306 
L 12.774194 306 
L 25.548387 302.313537 
L 38.322581 310.290489 
L 51.096774 306.070395 
L 63.870968 304.588735 
L 76.645161 306.008649 
L 89.419355 302.966146 
L 102.193548 304.171328 
L 114.967742 305.232749 
L 127.741935 305.325271 
L 140.516129 304.59357 
L 153.290323 307.306817 
L 166.064516 308.78871 
L 178.83871 309.02211 
L 191.612903 308.967414 
L 204.387097 310.021149 
L 217.16129 308.559214 
L 229.935484 309.978496 
L 242.709677 306.259699 
L 255.483871 302.47479 
L 268.258065 302.24697 
L 281.032258 300.481273 
L 293.806452 302.210016 
L 306.580645 302.90027 
L 319.354839 302.48222 
L 332.129032 303.668719 
L 344.903226 303.664149 
L 357.677419 302.876228 
L 370.451613 303.432058 
L 383.225806 304.086496 
L 396 303.920241 
L 408.774194 304.581745 
L 421.548387 302.14002 
L 434.322581 302.352326 
L 447.096774 304.432127 
L 459.870968 306.324248 
L 472.645161 308.094796 
L 485.419355 307.934239 
L 498.193548 308.158872 
L 510.967742 308.022914 
L 523.741935 308.484414 
L 536.516129 308.28568 
L 549.290323 308.533152 
L 562.064516 309.101794 
L 574.83871 309.947274 
L 587.612903 309.30485 
L 600.387097 308.627618 
L 613.16129 309.409408 
L 625.935484 310.42681 
L 638.709677 311.067115 
L 651.483871 311.261077 
L 664.258065 310.328199 
L 677.032258 310.282926 
L 689.806452 310.397978 
L 702.580645 309.833083 
L 715.354839 309.94568 
L 728.129032 310.008037 
L 740.903226 309.645587 
L 753.677419 309.190576 
L 766.451613 307.14943 
L 779.225806 306.877351 
" clip-path="url(#pb02a72e3b4)" style="fill: none; stroke: #000000; stroke-width: 1.5; stroke-linecap: square"/>
   </g>
   <g id="line2d_7">
    <path d="M 0 306 
L 12.774194 306 
L 25.548387 302.352602 
L 38.322581 310.149003 
L 51.096774 306.096746 
L 63.870968 304.670404 
L 76.645161 306.003875 
L 89.419355 303.145481 
L 102.193548 304.242656 
L 114.967742 305.211926 
L 127.741935 305.298633 
L 140.516129 304.640104 
L 153.290323 307.064495 
L 166.064516 308.3998 
L 178.83871 308.636732 
L 191.612903 308.61888 
L 204.387097 309.553565 
L 217.16129 308.335905 
L 229.935484 309.553799 
L 242.709677 306.455797 
L 255.483871 303.290442 
L 268.258065 303.054403 
L 281.032258 301.562107 
L 293.806452 302.907822 
L 306.580645 303.427261 
L 319.354839 303.066013 
L 332.129032 303.978111 
L 344.903226 303.959542 
L 357.677419 303.330248 
L 370.451613 303.740218 
L 383.225806 304.229871 
L 396 304.096626 
L 408.774194 304.59057 
L 421.548387 302.75226 
L 434.322581 302.885775 
L 447.096774 304.407965 
L 459.870968 305.803692 
L 472.645161 307.120308 
L 485.419355 307.040754 
L 498.193548 307.236641 
L 510.967742 307.17313 
L 523.741935 307.533297 
L 536.516129 307.426525 
L 549.290323 307.631266 
L 562.064516 308.060946 
L 574.83871 308.685347 
L 587.612903 308.283615 
L 600.387097 307.851907 
L 613.16129 308.412473 
L 625.935484 309.137308 
L 638.709677 309.612322 
L 651.483871 309.789471 
L 664.258065 309.211713 
L 677.032258 309.216611 
L 689.806452 309.325959 
L 702.580645 308.986681 
L 715.354839 309.086323 
L 728.129032 309.152982 
L 740.903226 308.943243 
L 753.677419 308.670055 
L 766.451613 307.372504 
L 779.225806 307.191787 
" clip-path="url(#pb02a72e3b4)" style="fill: none; stroke: #000000; stroke-width: 1.5; stroke-linecap: square"/>
   </g>
   <g id="line2d_8">
    <path d="M 0 306 
L 12.774194 306 
L 25.548387 302.372139 
L 38.322581 310.078889 
L 51.096774 306.108863 
L 63.870968 304.710117 
L 76.645161 306.001834 
L 89.419355 303.233169 
L 102.193548 304.27913 
L 114.967742 305.204165 
L 127.741935 305.287683 
L 140.516129 304.663818 
L 153.290323 306.950707 
L 166.064516 308.214424 
L 178.83871 308.450077 
L 191.612903 308.446882 
L 204.387097 309.323526 
L 217.16129 308.216932 
L 229.935484 309.340226 
L 242.709677 306.52746 
L 255.483871 303.650885 
L 268.258065 303.418616 
L 281.032258 302.058738 
L 293.806452 303.238348 
L 306.580645 303.685282 
L 319.354839 303.353432 
L 332.129032 304.145334 
L 344.903226 304.121926 
L 357.677419 303.565286 
L 370.451613 303.912535 
L 383.225806 304.329866 
L 396 304.211225 
L 408.774194 304.630902 
L 421.548387 303.058889 
L 434.322581 303.16173 
L 447.096774 304.441327 
L 459.870968 305.616957 
L 472.645161 306.72827 
L 485.419355 306.674294 
L 498.193548 306.848775 
L 510.967742 306.808028 
L 523.741935 307.116195 
L 536.516129 307.040755 
L 549.290323 307.219448 
L 562.064516 307.581282 
L 574.83871 308.101384 
L 587.612903 307.792743 
L 600.387097 307.458521 
L 613.16129 307.918343 
L 625.935484 308.509994 
L 638.709677 308.903908 
L 651.483871 309.06221 
L 664.258065 308.624563 
L 677.032258 308.642895 
L 689.806452 308.742453 
L 702.580645 308.491883 
L 715.354839 308.581009 
L 728.129032 308.644412 
L 740.903226 308.494458 
L 753.677419 308.29487 
L 766.451613 307.310445 
L 779.225806 307.174055 
" clip-path="url(#pb02a72e3b4)" style="fill: none; stroke: #000000; stroke-width: 1.5; stroke-linecap: square"/>
   </g>
   <g id="line2d_9">
    <path d="M 0 306 
L 12.774194 306 
L 25.548387 302.381908 
L 38.322581 310.043992 
L 51.096774 306.11466 
L 63.870968 304.729687 
L 76.645161 306.000892 
L 89.419355 303.276498 
L 102.193548 304.297541 
L 114.967742 305.200929 
L 127.741935 305.282797 
L 140.516129 304.675787 
L 153.290323 306.895705 
L 166.064516 308.124148 
L 178.83871 308.358492 
L 191.612903 308.361754 
L 204.387097 309.209838 
L 217.16129 308.156017 
L 229.935484 309.233596 
L 242.709677 306.556976 
L 255.483871 303.819087 
L 268.258065 303.590253 
L 281.032258 302.294995 
L 293.806452 303.397662 
L 306.580645 303.81144 
L 319.354839 303.494374 
L 332.129032 304.230486 
L 344.903226 304.205231 
L 357.677419 303.683146 
L 370.451613 304.001656 
L 383.225806 304.385534 
L 396 304.273819 
L 408.774194 304.659032 
L 421.548387 303.210802 
L 434.322581 303.300373 
L 447.096774 304.468339 
L 459.870968 305.541931 
L 472.645161 306.557324 
L 485.419355 306.513199 
L 498.193548 306.676068 
L 510.967742 306.643979 
L 523.741935 306.926669 
L 536.516129 306.86375 
L 549.290323 307.028919 
L 562.064516 307.358128 
L 574.83871 307.828823 
L 587.612903 307.560138 
L 600.387097 307.268253 
L 613.16129 307.681044 
L 625.935484 308.21067 
L 638.709677 308.565628 
L 651.483871 308.712779 
L 664.258065 308.335478 
L 677.032258 308.357824 
L 689.806452 308.45107 
L 702.580645 308.238286 
L 715.354839 308.321201 
L 728.129032 308.381618 
L 740.903226 308.256786 
L 753.677419 308.088715 
L 766.451613 307.242548 
L 779.225806 307.126328 
" clip-path="url(#pb02a72e3b4)" style="fill: none; stroke: #000000; stroke-width: 1.5; stroke-linecap: square"/>
   </g>
  </g>
 </g>
 <defs>
  <clipPath id="pb02a72e3b4">
   <rect x="0" y="0" width="792" height="612"/>
  </clipPath>
 </defs>
</svg>
