<?xml version="1.0" encoding="utf-8" standalone="no"?>
<!DOCTYPE svg PUBLIC "-//W3C//DTD SVG 1.1//EN"
  "http://www.w3.org/Graphics/SVG/1.1/DTD/svg11.dtd">
<svg xmlns:xlink="http://www.w3.org/1999/xlink" width="792pt" height="612pt" viewBox="0 0 792 612" xmlns="http://www.w3.org/2000/svg" version="1.1">
 <metadata>
  <rdf:RDF xmlns:dc="http://purl.org/dc/elements/1.1/" xmlns:cc="http://creativecommons.org/ns#" xmlns:rdf="http://www.w3.org/1999/02/22-rdf-syntax-ns#">
   <cc:Work>
    <dc:type rdf:resource="http://purl.org/dc/dcmitype/StillImage"/>
    <dc:date>2023-01-30T17:16:06.431117</dc:date>
    <dc:format>image/svg+xml</dc:format>
    <dc:creator>
     <cc:Agent>
      <dc:title>Matplotlib v3.6.2, https://matplotlib.org/</dc:title>
     </cc:Agent>
    </dc:creator>
   </cc:Work>
  </rdf:RDF>
 </metadata>
 <defs>
  <style type="text/css">*{stroke-linejoin: round; stroke-linecap: butt}</style>
 </defs>
 <g id="figure_1">
  <g id="patch_1">
   <path d="M 0 612 
L 792 612 
L 792 0 
L 0 0 
z
" style="fill: #ffffff"/>
  </g>
  <g id="axes_1">
   <g id="line2d_1">
    <path d="M 0 459 
L 12.983607 430.888999 
L 25.967213 438.805498 
L 38.95082 448.176535 
L 51.934426 448.176535 
L 64.918033 437.3651 
L 77.901639 464.051887 
L 90.885246 472.231132 
L 103.868852 474.877358 
L 116.852459 476.080189 
L 129.836066 483.778302 
L 142.819672 476.801887 
L 155.803279 487.146226 
L 168.786885 464.533019 
L 181.770492 398.727415 
L 194.754098 388.828075 
L 207.737705 346.582334 
L 220.721311 375.501129 
L 233.704918 385.308226 
L 246.688525 371.321536 
L 259.672131 393.770003 
L 272.655738 390.238409 
L 285.639344 367.85 
L 298.622951 376.897553 
L 311.606557 389.533074 
L 324.590164 382.498717 
L 337.57377 396.600987 
L 350.557377 331.788614 
L 363.540984 331.788614 
L 376.52459 381.096156 
L 389.508197 430.888999 
L 402.491803 466.457547 
L 415.47541 465.976415 
L 428.459016 469.103774 
L 441.442623 468.863208 
L 454.42623 474.396226 
L 467.409836 473.674528 
L 480.393443 477.283019 
L 493.377049 484.259434 
L 506.360656 494.363208 
L 519.344262 489.792453 
L 532.327869 484.5 
L 545.311475 493.882075 
L 558.295082 506.150943 
L 571.278689 515.051887 
L 584.262295 519.622642 
L 597.245902 512.40566 
L 610.229508 514.089623 
L 623.213115 517.457547 
L 636.196721 513.608491 
L 649.180328 516.735849 
L 662.163934 519.382075 
L 675.147541 517.457547 
L 688.131148 514.330189 
L 701.114754 493.641509 
L 714.098361 491.235849 
L 727.081967 490.273585 
L 740.065574 465.976415 
L 753.04918 476.080189 
L 766.032787 479.207547 
L 779.016393 479.207547 
" clip-path="url(#pa9aa7a4b11)" style="fill: none; stroke: #000000; stroke-width: 1.5; stroke-linecap: square"/>
   </g>
   <g id="line2d_2">
    <path d="M 0 459 
L 12.983607 459 
L 25.967213 440.246295 
L 38.95082 439.422935 
L 51.934426 444.090153 
L 64.918033 446.198999 
L 77.901639 441.710341 
L 90.885246 458.056679 
L 103.868852 465.484906 
L 116.852459 470.212264 
L 129.836066 473.198113 
L 142.819672 478.55 
L 155.803279 477.717925 
L 168.786885 482.49434 
L 181.770492 473.538679 
L 194.754098 450.349138 
L 207.737705 419.194581 
L 220.721311 382.086045 
L 233.704918 378.531442 
L 246.688525 381.632254 
L 259.672131 376.196405 
L 272.655738 384.668694 
L 285.639344 387.286557 
L 298.622951 377.470268 
L 311.606557 377.160586 
L 324.590164 383.418055 
L 337.57377 382.97207 
L 350.557377 389.793041 
L 363.540984 360.29983 
L 376.52459 345.808493 
L 389.508197 363.286912 
L 402.491803 396.867685 
L 415.47541 439.147299 
L 428.459016 459.236792 
L 441.442623 464.240566 
L 454.42623 466.612264 
L 467.409836 470.619811 
L 480.393443 472.261321 
L 493.377049 474.859434 
L 506.360656 479.627358 
L 519.344262 487.05 
L 532.327869 488.467925 
L 545.311475 486.514151 
L 558.295082 490.24717 
L 571.278689 498.261321 
L 584.262295 506.737736 
L 597.245902 513.263208 
L 610.229508 512.889623 
L 623.213115 513.528302 
L 636.196721 515.54717 
L 649.180328 514.634906 
L 662.163934 515.730189 
L 675.147541 517.582075 
L 688.131148 517.524528 
L 701.114754 515.916981 
L 714.098361 504.742453 
L 727.081967 497.94434 
L 740.065574 494.05566 
L 753.04918 479.922642 
L 766.032787 477.921698 
L 779.016393 478.485849 
" clip-path="url(#pa9aa7a4b11)" style="fill: none; stroke: #000000; stroke-width: 1.5; stroke-linecap: square"/>
   </g>
   <g id="line2d_3">
    <path d="M 0 459 
L 12.983607 459 
L 25.967213 442.51941 
L 38.95082 440.836407 
L 51.934426 443.702006 
L 64.918033 445.293702 
L 77.901639 442.638573 
L 90.885246 452.760428 
L 103.868852 461.703505 
L 116.852459 465.740447 
L 129.836066 468.866579 
L 142.819672 473.332812 
L 155.803279 474.365009 
L 168.786885 478.150363 
L 181.770492 474.13053 
L 194.754098 463.722752 
L 207.737705 448.207661 
L 220.721311 417.737652 
L 233.704918 405.196438 
L 246.688525 399.285434 
L 259.672131 390.950679 
L 272.655738 391.71426 
L 285.639344 391.228326 
L 298.622951 384.217534 
L 311.606557 381.932376 
L 324.590164 384.022751 
L 337.57377 383.432634 
L 350.557377 387.123726 
L 363.540984 370.408268 
L 376.52459 358.697478 
L 389.508197 365.10663 
L 402.491803 384.125723 
L 415.47541 412.399478 
L 428.459016 432.250752 
L 441.442623 449.075298 
L 454.42623 459.589017 
L 467.409836 463.977619 
L 480.393443 466.859778 
L 493.377049 469.9602 
L 506.360656 474.21273 
L 519.344262 480.187063 
L 532.327869 483.062587 
L 545.311475 483.542451 
L 558.295082 486.634961 
L 571.278689 492.455231 
L 584.262295 499.188032 
L 597.245902 505.27294 
L 610.229508 507.434184 
L 623.213115 509.438227 
L 636.196721 511.846163 
L 649.180328 512.413455 
L 662.163934 513.734441 
L 675.147541 515.440266 
L 688.131148 516.081403 
L 701.114754 515.611037 
L 714.098361 509.187087 
L 727.081967 503.925699 
L 740.065574 499.92764 
L 753.04918 489.96228 
L 766.032787 485.875863 
L 779.016393 483.891811 
" clip-path="url(#pa9aa7a4b11)" style="fill: none; stroke: #000000; stroke-width: 1.5; stroke-linecap: square"/>
   </g>
   <g id="line2d_4">
    <path d="M 0 459 
L 12.983607 459 
L 25.967213 443.716239 
L 38.95082 441.788469 
L 51.934426 443.820592 
L 64.918033 445.016184 
L 77.901639 443.132211 
L 90.885246 450.152683 
L 103.868852 459.483052 
L 116.852459 462.584298 
L 129.836066 465.192636 
L 142.819672 468.666001 
L 155.803279 470.145371 
L 168.786885 473.16798 
L 181.770492 471.660921 
L 194.754098 466.011537 
L 207.737705 460.8206 
L 220.721311 444.279769 
L 233.704918 432.699059 
L 246.688525 424.801128 
L 259.672131 415.912938 
L 272.655738 412.278141 
L 285.639344 408.674634 
L 298.622951 401.983154 
L 311.606557 397.900878 
L 324.590164 396.548852 
L 337.57377 394.279651 
L 350.557377 394.652223 
L 363.540984 384.334915 
L 376.52459 375.74178 
L 389.508197 376.596881 
L 402.491803 385.158243 
L 415.47541 400.305679 
L 428.459016 412.871684 
L 441.442623 425.00098 
L 454.42623 435.118357 
L 467.409836 446.28747 
L 480.393443 455.345955 
L 493.377049 460.900558 
L 506.360656 464.629647 
L 519.344262 469.374172 
L 532.327869 472.6321 
L 545.311475 474.525579 
L 558.295082 477.611571 
L 571.278689 482.170599 
L 584.262295 487.419541 
L 597.245902 492.577542 
L 610.229508 495.778197 
L 623.213115 498.740692 
L 636.196721 501.77895 
L 649.180328 503.712706 
L 662.163934 505.836218 
L 675.147541 508.047549 
L 688.131148 509.594846 
L 701.114754 510.397188 
L 714.098361 507.772126 
L 727.081967 505.17852 
L 740.065574 502.841163 
L 753.04918 496.996263 
L 766.032787 493.692156 
L 779.016393 491.427379 
" clip-path="url(#pa9aa7a4b11)" style="fill: none; stroke: #000000; stroke-width: 1.5; stroke-linecap: square"/>
   </g>
   <g id="line2d_5">
    <path d="M 0 459 
L 12.983607 459 
L 25.967213 444.322602 
L 38.95082 442.321555 
L 51.934426 443.980188 
L 64.918033 444.9706 
L 77.901639 443.412777 
L 90.885246 449.020349 
L 103.868852 457.264369 
L 116.852459 460.943667 
L 129.836066 463.111325 
L 142.819672 465.9029 
L 155.803279 467.302199 
L 168.786885 469.739307 
L 181.770492 469.124391 
L 194.754098 465.663404 
L 207.737705 462.317132 
L 220.721311 455.52334 
L 233.704918 447.017868 
L 246.688525 440.61437 
L 259.672131 433.535775 
L 272.655738 429.569678 
L 285.639344 425.706619 
L 298.622951 420.069755 
L 311.606557 415.932273 
L 324.590164 413.442512 
L 337.57377 410.550447 
L 350.557377 409.265011 
L 363.540984 402.017612 
L 376.52459 395.507171 
L 389.508197 394.209407 
L 402.491803 397.449413 
L 415.47541 404.793243 
L 428.459016 411.348898 
L 441.442623 418.129715 
L 454.42623 424.241312 
L 467.409836 431.243281 
L 480.393443 437.437295 
L 493.377049 444.014754 
L 506.360656 451.809249 
L 519.344262 459.837936 
L 532.327869 462.397385 
L 545.311475 464.281318 
L 558.295082 466.798723 
L 571.278689 470.1386 
L 584.262295 473.943317 
L 597.245902 477.806295 
L 610.229508 480.727681 
L 623.213115 483.540538 
L 636.196721 486.396432 
L 649.180328 488.684993 
L 662.163934 491.041493 
L 675.147541 493.419925 
L 688.131148 495.43537 
L 701.114754 497.01827 
L 714.098361 496.735604 
L 727.081967 496.275552 
L 740.065574 495.773819 
L 753.04918 493.284401 
L 766.032787 491.847866 
L 779.016393 490.792943 
" clip-path="url(#pa9aa7a4b11)" style="fill: none; stroke: #000000; stroke-width: 1.5; stroke-linecap: square"/>
   </g>
   <g id="line2d_6">
    <path d="M 0 459 
L 12.983607 459 
L 25.967213 444.6268 
L 38.95082 442.601102 
L 51.934426 444.086396 
L 64.918033 444.97661 
L 77.901639 443.566069 
L 90.885246 448.520823 
L 103.868852 455.781871 
L 116.852459 460.153008 
L 129.836066 462.073651 
L 142.819672 464.50118 
L 155.803279 465.787599 
L 168.786885 467.890534 
L 181.770492 467.577507 
L 194.754098 465.023655 
L 207.737705 462.513843 
L 220.721311 459.116576 
L 233.704918 452.711592 
L 246.688525 447.570504 
L 259.672131 441.918496 
L 272.655738 438.476143 
L 285.639344 435.120602 
L 298.622951 430.533189 
L 311.606557 426.974916 
L 324.590164 424.556589 
L 337.57377 421.893185 
L 350.557377 420.329887 
L 363.540984 414.832466 
L 376.52459 409.769046 
L 389.508197 408.084774 
L 402.491803 409.38742 
L 415.47541 413.423771 
L 428.459016 417.105512 
L 441.442623 421.053663 
L 454.42623 424.704307 
L 467.409836 429.007065 
L 480.393443 432.923659 
L 493.377049 437.163859 
L 506.360656 442.23117 
L 519.344262 448.55321 
L 532.327869 453.799477 
L 545.311475 457.933239 
L 558.295082 460.4129 
L 571.278689 462.69063 
L 584.262295 465.27903 
L 597.245902 467.946654 
L 610.229508 470.114555 
L 623.213115 472.245297 
L 636.196721 474.422795 
L 649.180328 476.299227 
L 662.163934 478.22499 
L 675.147541 480.174871 
L 688.131148 481.932444 
L 701.114754 483.45252 
L 714.098361 483.928426 
L 727.081967 484.268276 
L 740.065574 484.546424 
L 753.04918 483.689675 
L 766.032787 483.33991 
L 779.016393 483.150644 
" clip-path="url(#pa9aa7a4b11)" style="fill: none; stroke: #000000; stroke-width: 1.5; stroke-linecap: square"/>
   </g>
   <g id="line2d_7">
    <path d="M 0 459 
L 12.983607 459 
L 25.967213 444.779028 
L 38.95082 442.743925 
L 51.934426 444.146144 
L 64.918033 444.987347 
L 77.901639 443.646519 
L 90.885246 448.290321 
L 103.868852 455.076978 
L 116.852459 459.771313 
L 129.836066 461.5657 
L 142.819672 463.810741 
L 155.803279 465.026906 
L 168.786885 466.95819 
L 181.770492 466.759531 
L 194.754098 464.599272 
L 207.737705 462.46486 
L 220.721311 459.563131 
L 233.704918 454.973467 
L 246.688525 450.508882 
L 259.672131 445.619036 
L 272.655738 442.55651 
L 285.639344 439.574592 
L 298.622951 435.599964 
L 311.606557 432.460358 
L 324.590164 430.24254 
L 337.57377 427.842995 
L 350.557377 426.32206 
L 363.540984 421.736044 
L 376.52459 417.482267 
L 389.508197 415.835772 
L 402.491803 416.493615 
L 415.47541 419.256926 
L 428.459016 421.788806 
L 441.442623 424.551267 
L 454.42623 427.122357 
L 467.409836 430.200083 
L 480.393443 433.021851 
L 493.377049 436.101766 
L 506.360656 439.801952 
L 519.344262 444.428356 
L 532.327869 448.319292 
L 545.311475 451.445288 
L 558.295082 455.412056 
L 571.278689 459.490022 
L 584.262295 461.401953 
L 597.245902 463.379699 
L 610.229508 465.024473 
L 623.213115 466.650849 
L 636.196721 468.315444 
L 649.180328 469.782761 
L 662.163934 471.287355 
L 675.147541 472.812341 
L 688.131148 474.213546 
L 701.114754 475.460207 
L 714.098361 476.019808 
L 727.081967 476.483803 
L 740.065574 476.900528 
L 753.04918 476.57328 
L 766.032787 476.558634 
L 779.016393 476.636669 
" clip-path="url(#pa9aa7a4b11)" style="fill: none; stroke: #000000; stroke-width: 1.5; stroke-linecap: square"/>
   </g>
   <g id="line2d_8">
    <path d="M 0 459 
L 12.983607 459 
L 25.967213 444.855159 
L 38.95082 442.816072 
L 51.934426 444.177676 
L 64.918033 444.994701 
L 77.901639 443.687757 
L 90.885246 448.180162 
L 103.868852 454.734617 
L 116.852459 459.584613 
L 129.836066 461.315718 
L 142.819672 463.470138 
L 155.803279 464.648482 
L 168.786885 466.493755 
L 181.770492 466.343631 
L 194.754098 464.36439 
L 207.737705 462.405039 
L 220.721311 459.736729 
L 233.704918 455.940536 
L 246.688525 451.812938 
L 259.672131 447.302586 
L 272.655738 444.446865 
L 285.639344 441.669707 
L 298.622951 438.01024 
L 311.606557 435.099879 
L 324.590164 433.013301 
L 337.57377 430.773536 
L 350.557377 429.312544 
L 363.540984 425.177526 
L 376.52459 421.334722 
L 389.508197 419.757123 
L 402.491803 420.176823 
L 415.47541 422.41568 
L 428.459016 424.467687 
L 441.442623 426.725455 
L 454.42623 428.829702 
L 467.409836 431.368608 
L 480.393443 433.69973 
L 493.377049 436.252553 
L 506.360656 439.327121 
L 519.344262 443.174915 
L 532.327869 446.422589 
L 545.311475 449.046558 
L 558.295082 452.361203 
L 571.278689 456.569066 
L 584.262295 459.777506 
L 597.245902 461.420447 
L 610.229508 462.797188 
L 623.213115 464.160105 
L 636.196721 465.55427 
L 649.180328 466.792234 
L 662.163934 468.059871 
L 675.147541 469.343742 
L 688.131148 470.530449 
L 701.114754 471.595948 
L 714.098361 472.12507 
L 727.081967 472.577765 
L 740.065574 472.991597 
L 753.04918 472.829584 
L 766.032787 472.903742 
L 779.016393 473.045842 
" clip-path="url(#pa9aa7a4b11)" style="fill: none; stroke: #000000; stroke-width: 1.5; stroke-linecap: square"/>
   </g>
   <g id="line2d_9">
    <path d="M 0 459 
L 12.983607 459 
L 25.967213 444.893227 
L 38.95082 442.852325 
L 51.934426 444.193855 
L 64.918033 444.998881 
L 77.901639 443.708637 
L 90.885246 448.126387 
L 103.868852 454.566074 
L 116.852459 459.492387 
L 129.836066 461.19188 
L 142.819672 463.301237 
L 155.803279 464.460101 
L 168.786885 466.262449 
L 181.770492 466.134523 
L 194.754098 464.241814 
L 207.737705 462.366663 
L 220.721311 459.811139 
L 233.704918 456.381873 
L 246.688525 452.420955 
L 259.672131 448.098253 
L 272.655738 445.348449 
L 285.639344 442.676431 
L 298.622951 439.174825 
L 311.606557 436.382118 
L 324.590164 434.367061 
L 337.57377 432.212307 
L 350.557377 430.789334 
L 363.540984 426.876307 
L 376.52459 423.237843 
L 389.508197 421.705012 
L 402.491803 422.025499 
L 415.47541 424.030298 
L 428.459016 425.867137 
L 441.442623 427.896536 
L 454.42623 429.788288 
L 467.409836 432.079897 
L 480.393443 434.184285 
L 493.377049 436.492099 
L 506.360656 439.274785 
L 519.344262 442.758611 
L 532.327869 445.701958 
L 545.311475 448.084327 
L 558.295082 451.087478 
L 571.278689 454.891647 
L 584.262295 459.06444 
L 597.245902 460.547671 
L 610.229508 461.794015 
L 623.213115 463.027887 
L 636.196721 464.289162 
L 649.180328 465.412061 
L 662.163934 466.56065 
L 675.147541 467.72302 
L 688.131148 468.799584 
L 701.114754 469.769394 
L 714.098361 470.269916 
L 727.081967 470.702766 
L 740.065574 471.100747 
L 753.04918 470.998075 
L 766.032787 471.098433 
L 779.016393 471.2563 
" clip-path="url(#pa9aa7a4b11)" style="fill: none; stroke: #000000; stroke-width: 1.5; stroke-linecap: square"/>
   </g>
  </g>
 </g>
 <defs>
  <clipPath id="pa9aa7a4b11">
   <rect x="0" y="0" width="792" height="612"/>
  </clipPath>
 </defs>
</svg>
