<?xml version="1.0" encoding="utf-8" standalone="no"?>
<!DOCTYPE svg PUBLIC "-//W3C//DTD SVG 1.1//EN"
  "http://www.w3.org/Graphics/SVG/1.1/DTD/svg11.dtd">
<svg xmlns:xlink="http://www.w3.org/1999/xlink" width="792pt" height="612pt" viewBox="0 0 792 612" xmlns="http://www.w3.org/2000/svg" version="1.1">
 <metadata>
  <rdf:RDF xmlns:dc="http://purl.org/dc/elements/1.1/" xmlns:cc="http://creativecommons.org/ns#" xmlns:rdf="http://www.w3.org/1999/02/22-rdf-syntax-ns#">
   <cc:Work>
    <dc:type rdf:resource="http://purl.org/dc/dcmitype/StillImage"/>
    <dc:date>2023-01-02T15:38:08.676708</dc:date>
    <dc:format>image/svg+xml</dc:format>
    <dc:creator>
     <cc:Agent>
      <dc:title>Matplotlib v3.6.2, https://matplotlib.org/</dc:title>
     </cc:Agent>
    </dc:creator>
   </cc:Work>
  </rdf:RDF>
 </metadata>
 <defs>
  <style type="text/css">*{stroke-linejoin: round; stroke-linecap: butt}</style>
 </defs>
 <g id="figure_1">
  <g id="patch_1">
   <path d="M 0 612 
L 792 612 
L 792 0 
L 0 0 
z
" style="fill: #ffffff"/>
  </g>
  <g id="axes_1">
   <g id="line2d_1">
    <path d="M 0 306 
L 41.684211 310.589966 
L 83.368421 308.543221 
L 125.052632 300.975923 
L 166.736842 309.287528 
L 208.421053 300.789881 
L 250.105263 303.890972 
L 291.789474 308.109028 
L 333.473684 313.132298 
L 375.157895 308.109028 
L 416.842105 308.543221 
L 458.526316 306.186094 
L 500.210526 304.201115 
L 541.894737 308.109028 
L 583.578947 305.007504 
L 625.263158 305.689844 
L 666.947368 308.853353 
L 708.631579 303.332725 
L 750.315789 305.131565 
" clip-path="url(#pf55c3b28da)" style="fill: none; stroke: #000000; stroke-width: 1.5; stroke-linecap: square"/>
   </g>
   <g id="line2d_2">
    <path d="M 0 306 
L 41.684211 306 
L 83.368421 309.060105 
L 125.052632 308.764745 
L 166.736842 304.61051 
L 208.421053 307.024512 
L 250.105263 303.857496 
L 291.789474 303.874366 
L 333.473684 306 
L 375.157895 309.580619 
L 416.842105 308.839975 
L 458.526316 308.691599 
L 500.210526 307.449087 
L 541.894737 305.815123 
L 583.578947 306.976441 
L 625.263158 305.994162 
L 666.947368 305.837259 
L 708.631579 307.336947 
L 750.315789 305.325442 
" clip-path="url(#pf55c3b28da)" style="fill: none; stroke: #000000; stroke-width: 1.5; stroke-linecap: square"/>
   </g>
   <g id="line2d_3">
    <path d="M 0 306 
L 41.684211 306 
L 83.368421 308.688872 
L 125.052632 308.622881 
L 166.736842 305.636421 
L 208.421053 306.935484 
L 250.105263 304.878173 
L 291.789474 304.56099 
L 333.473684 305.66947 
L 375.157895 307.956717 
L 416.842105 308.002767 
L 458.526316 308.164641 
L 500.210526 307.575951 
L 541.894737 306.576444 
L 583.578947 307.028869 
L 625.263158 306.433537 
L 666.947368 306.21486 
L 708.631579 306.990955 
L 750.315789 305.911131 
" clip-path="url(#pf55c3b28da)" style="fill: none; stroke: #000000; stroke-width: 1.5; stroke-linecap: square"/>
   </g>
   <g id="line2d_4">
    <path d="M 0 306 
L 41.684211 306 
L 83.368421 308.493464 
L 125.052632 308.512992 
L 166.736842 306.114537 
L 208.421053 306.985646 
L 250.105263 305.460622 
L 291.789474 305.105219 
L 333.473684 305.742447 
L 375.157895 307.231416 
L 416.842105 307.401033 
L 458.526316 307.614494 
L 500.210526 307.354768 
L 541.894737 306.794076 
L 583.578947 307.023578 
L 625.263158 306.67706 
L 666.947368 306.509519 
L 708.631579 306.903129 
L 750.315789 306.30879 
" clip-path="url(#pf55c3b28da)" style="fill: none; stroke: #000000; stroke-width: 1.5; stroke-linecap: square"/>
   </g>
   <g id="line2d_5">
    <path d="M 0 306 
L 41.684211 306 
L 83.368421 308.394474 
L 125.052632 308.448409 
L 166.736842 306.330871 
L 208.421053 307.028861 
L 250.105263 305.751468 
L 291.789474 305.411903 
L 333.473684 305.859609 
L 375.157895 306.974496 
L 416.842105 307.136971 
L 458.526316 307.326924 
L 500.210526 307.180456 
L 541.894737 306.814554 
L 583.578947 306.967448 
L 625.263158 306.743812 
L 666.947368 306.627179 
L 708.631579 306.866906 
L 750.315789 306.4955 
" clip-path="url(#pf55c3b28da)" style="fill: none; stroke: #000000; stroke-width: 1.5; stroke-linecap: square"/>
   </g>
   <g id="line2d_6">
    <path d="M 0 306 
L 41.684211 306 
L 83.368421 308.344816 
L 125.052632 308.413837 
L 166.736842 306.431754 
L 208.421053 307.053459 
L 250.105263 305.893205 
L 291.789474 305.568688 
L 333.473684 305.936411 
L 375.157895 306.881478 
L 416.842105 307.029509 
L 458.526316 307.198812 
L 500.210526 307.092902 
L 541.894737 306.808182 
L 583.578947 306.929464 
L 625.263158 306.758946 
L 666.947368 306.668293 
L 708.631579 306.846042 
L 750.315789 306.570962 
" clip-path="url(#pf55c3b28da)" style="fill: none; stroke: #000000; stroke-width: 1.5; stroke-linecap: square"/>
   </g>
   <g id="line2d_7">
    <path d="M 0 306 
L 41.684211 306 
L 83.368421 308.319967 
L 125.052632 308.396003 
L 166.736842 306.480202 
L 208.421053 307.066273 
L 250.105263 305.96267 
L 291.789474 305.647133 
L 333.473684 305.978704 
L 375.157895 306.844287 
L 416.842105 306.983443 
L 458.526316 307.141094 
L 500.210526 307.051692 
L 541.894737 306.802803 
L 583.578947 306.909804 
L 625.263158 306.762866 
L 666.947368 306.684364 
L 708.631579 306.835246 
L 750.315789 306.602792 
" clip-path="url(#pf55c3b28da)" style="fill: none; stroke: #000000; stroke-width: 1.5; stroke-linecap: square"/>
   </g>
   <g id="line2d_8">
    <path d="M 0 306 
L 41.684211 306 
L 83.368421 308.30754 
L 125.052632 308.386953 
L 166.736842 306.503909 
L 208.421053 307.072779 
L 250.105263 305.996991 
L 291.789474 305.686263 
L 333.473684 306.000716 
L 375.157895 306.828021 
L 416.842105 306.962457 
L 458.526316 307.114074 
L 500.210526 307.032054 
L 541.894737 306.799859 
L 583.578947 306.900098 
L 625.263158 306.764137 
L 666.947368 306.691403 
L 708.631579 306.829896 
L 750.315789 306.617207 
" clip-path="url(#pf55c3b28da)" style="fill: none; stroke: #000000; stroke-width: 1.5; stroke-linecap: square"/>
   </g>
   <g id="line2d_9">
    <path d="M 0 306 
L 41.684211 306 
L 83.368421 308.301326 
L 125.052632 308.382395 
L 166.736842 306.515631 
L 208.421053 307.076053 
L 250.105263 306.014041 
L 291.789474 305.705792 
L 333.473684 306.011925 
L 375.157895 306.820467 
L 416.842105 306.952488 
L 458.526316 307.101051 
L 500.210526 307.022513 
L 541.894737 306.798361 
L 583.578947 306.895313 
L 625.263158 306.764633 
L 666.947368 306.694696 
L 708.631579 306.827256 
L 750.315789 306.624047 
" clip-path="url(#pf55c3b28da)" style="fill: none; stroke: #000000; stroke-width: 1.5; stroke-linecap: square"/>
   </g>
  </g>
 </g>
 <defs>
  <clipPath id="pf55c3b28da">
   <rect x="0" y="0" width="792" height="612"/>
  </clipPath>
 </defs>
</svg>
