<?xml version="1.0" encoding="utf-8" standalone="no"?>
<!DOCTYPE svg PUBLIC "-//W3C//DTD SVG 1.1//EN"
  "http://www.w3.org/Graphics/SVG/1.1/DTD/svg11.dtd">
<svg xmlns:xlink="http://www.w3.org/1999/xlink" width="792pt" height="612pt" viewBox="0 0 792 612" xmlns="http://www.w3.org/2000/svg" version="1.1">
 <metadata>
  <rdf:RDF xmlns:dc="http://purl.org/dc/elements/1.1/" xmlns:cc="http://creativecommons.org/ns#" xmlns:rdf="http://www.w3.org/1999/02/22-rdf-syntax-ns#">
   <cc:Work>
    <dc:type rdf:resource="http://purl.org/dc/dcmitype/StillImage"/>
    <dc:date>2022-12-19T20:27:14.760635</dc:date>
    <dc:format>image/svg+xml</dc:format>
    <dc:creator>
     <cc:Agent>
      <dc:title>Matplotlib v3.6.2, https://matplotlib.org/</dc:title>
     </cc:Agent>
    </dc:creator>
   </cc:Work>
  </rdf:RDF>
 </metadata>
 <defs>
  <style type="text/css">*{stroke-linejoin: round; stroke-linecap: butt}</style>
 </defs>
 <g id="figure_1">
  <g id="patch_1">
   <path d="M 0 612 
L 792 612 
L 792 0 
L 0 0 
z
" style="fill: #ffffff"/>
  </g>
  <g id="axes_1">
   <g id="line2d_1">
    <path d="M 0 459 
L 41.684211 457.358523 
L 83.368421 460.196916 
L 125.052632 440.03115 
L 166.736842 427.757592 
L 208.421053 429.494029 
L 250.105263 421.738415 
L 291.789474 419.802677 
L 333.473684 421.534589 
L 375.157895 424.797534 
L 416.842105 422.757765 
L 458.526316 408.11877 
L 500.210526 405.587063 
L 541.894737 408.321445 
L 583.578947 412.074443 
L 625.263158 419.598996 
L 666.947368 423.777474 
L 708.631579 415.528757 
L 750.315789 420.923201 
" clip-path="url(#pef92fef3d4)" style="fill: none; stroke: #000000; stroke-width: 1.5; stroke-linecap: square"/>
   </g>
   <g id="line2d_2">
    <path d="M 0 459 
L 41.684211 459 
L 83.368421 457.905679 
L 125.052632 459.52762 
L 166.736842 449.61749 
L 208.421053 438.32336 
L 250.105263 433.836291 
L 291.789474 427.734274 
L 333.473684 423.750277 
L 375.157895 422.569057 
L 416.842105 423.619496 
L 458.526316 423.110824 
L 500.210526 415.540718 
L 541.894737 410.514767 
L 583.578947 409.376466 
L 625.263158 410.706134 
L 666.947368 415.148013 
L 708.631579 419.463616 
L 750.315789 417.477262 
" clip-path="url(#pef92fef3d4)" style="fill: none; stroke: #000000; stroke-width: 1.5; stroke-linecap: square"/>
   </g>
   <g id="line2d_3">
    <path d="M 0 459 
L 41.684211 459 
L 83.368421 458.038442 
L 125.052632 459.367003 
L 166.736842 452.259504 
L 208.421053 443.530345 
L 250.105263 438.827363 
L 291.789474 433.328416 
L 333.473684 429.096788 
L 375.157895 426.777533 
L 416.842105 426.178766 
L 458.526316 425.153735 
L 500.210526 420.073135 
L 541.894737 415.773378 
L 583.578947 413.570996 
L 625.263158 413.130128 
L 666.947368 415.030455 
L 708.631579 417.549146 
L 750.315789 416.909425 
" clip-path="url(#pef92fef3d4)" style="fill: none; stroke: #000000; stroke-width: 1.5; stroke-linecap: square"/>
   </g>
   <g id="line2d_4">
    <path d="M 0 459 
L 41.684211 459 
L 83.368421 458.108325 
L 125.052632 459.289171 
L 166.736842 453.552257 
L 208.421053 446.460534 
L 250.105263 442.279755 
L 291.789474 437.619974 
L 333.473684 433.833012 
L 375.157895 431.351951 
L 416.842105 430.084218 
L 458.526316 428.713782 
L 500.210526 424.95733 
L 541.894737 421.502503 
L 583.578947 419.196894 
L 625.263158 417.971224 
L 666.947368 418.247402 
L 708.631579 419.175275 
L 750.315789 418.567911 
" clip-path="url(#pef92fef3d4)" style="fill: none; stroke: #000000; stroke-width: 1.5; stroke-linecap: square"/>
   </g>
   <g id="line2d_5">
    <path d="M 0 459 
L 41.684211 459 
L 83.368421 458.143725 
L 125.052632 459.252064 
L 166.736842 454.163902 
L 208.421053 447.920878 
L 250.105263 444.143526 
L 291.789474 440.0459 
L 333.473684 436.67843 
L 375.157895 434.353322 
L 416.842105 432.983354 
L 458.526316 431.600399 
L 500.210526 428.574934 
L 541.894737 425.741068 
L 583.578947 423.677608 
L 625.263158 422.351062 
L 666.947368 422.04638 
L 708.631579 422.232738 
L 750.315789 421.527437 
" clip-path="url(#pef92fef3d4)" style="fill: none; stroke: #000000; stroke-width: 1.5; stroke-linecap: square"/>
   </g>
   <g id="line2d_6">
    <path d="M 0 459 
L 41.684211 459 
L 83.368421 458.161484 
L 125.052632 459.234102 
L 166.736842 454.457753 
L 208.421053 448.636434 
L 250.105263 445.086088 
L 291.789474 441.29391 
L 333.473684 438.175957 
L 375.157895 435.986677 
L 416.842105 434.635668 
L 458.526316 433.305276 
L 500.210526 430.661302 
L 541.894737 428.182497 
L 583.578947 426.324739 
L 625.263158 425.057457 
L 666.947368 424.594219 
L 708.631579 424.527773 
L 750.315789 423.822138 
" clip-path="url(#pef92fef3d4)" style="fill: none; stroke: #000000; stroke-width: 1.5; stroke-linecap: square"/>
   </g>
   <g id="line2d_7">
    <path d="M 0 459 
L 41.684211 459 
L 83.368421 458.17037 
L 125.052632 459.225286 
L 166.736842 454.601321 
L 208.421053 448.988891 
L 250.105263 445.556667 
L 291.789474 441.921125 
L 333.473684 438.935311 
L 375.157895 436.826122 
L 416.842105 435.500876 
L 458.526316 434.210939 
L 500.210526 431.758837 
L 541.894737 429.464116 
L 583.578947 427.726227 
L 625.263158 426.514153 
L 666.947368 426.007702 
L 708.631579 425.852513 
L 750.315789 425.166197 
" clip-path="url(#pef92fef3d4)" style="fill: none; stroke: #000000; stroke-width: 1.5; stroke-linecap: square"/>
   </g>
   <g id="line2d_8">
    <path d="M 0 459 
L 41.684211 459 
L 83.368421 458.174814 
L 125.052632 459.220921 
L 166.736842 454.672223 
L 208.421053 449.163588 
L 250.105263 445.791353 
L 291.789474 442.234801 
L 333.473684 439.316516 
L 375.157895 437.250012 
L 416.842105 435.941375 
L 458.526316 434.674912 
L 500.210526 432.318473 
L 541.894737 430.116587 
L 583.578947 428.441932 
L 625.263158 427.263001 
L 666.947368 426.743505 
L 708.631579 426.553425 
L 750.315789 425.881735 
" clip-path="url(#pef92fef3d4)" style="fill: none; stroke: #000000; stroke-width: 1.5; stroke-linecap: square"/>
   </g>
   <g id="line2d_9">
    <path d="M 0 459 
L 41.684211 459 
L 83.368421 458.177037 
L 125.052632 459.218749 
L 166.736842 454.707449 
L 208.421053 449.250529 
L 250.105263 445.908492 
L 291.789474 442.391564 
L 333.473684 439.507358 
L 375.157895 437.462798 
L 416.842105 436.163344 
L 458.526316 434.909379 
L 500.210526 432.600626 
L 541.894737 430.445237 
L 583.578947 428.802884 
L 625.263158 427.641766 
L 666.947368 427.117777 
L 708.631579 426.91256 
L 750.315789 426.249371 
" clip-path="url(#pef92fef3d4)" style="fill: none; stroke: #000000; stroke-width: 1.5; stroke-linecap: square"/>
   </g>
  </g>
 </g>
 <defs>
  <clipPath id="pef92fef3d4">
   <rect x="0" y="0" width="792" height="612"/>
  </clipPath>
 </defs>
</svg>
