<?xml version="1.0" encoding="utf-8" standalone="no"?>
<!DOCTYPE svg PUBLIC "-//W3C//DTD SVG 1.1//EN"
  "http://www.w3.org/Graphics/SVG/1.1/DTD/svg11.dtd">
<svg xmlns:xlink="http://www.w3.org/1999/xlink" width="792pt" height="612pt" viewBox="0 0 792 612" xmlns="http://www.w3.org/2000/svg" version="1.1">
 <metadata>
  <rdf:RDF xmlns:dc="http://purl.org/dc/elements/1.1/" xmlns:cc="http://creativecommons.org/ns#" xmlns:rdf="http://www.w3.org/1999/02/22-rdf-syntax-ns#">
   <cc:Work>
    <dc:type rdf:resource="http://purl.org/dc/dcmitype/StillImage"/>
    <dc:date>2023-01-30T16:20:14.918003</dc:date>
    <dc:format>image/svg+xml</dc:format>
    <dc:creator>
     <cc:Agent>
      <dc:title>Matplotlib v3.6.2, https://matplotlib.org/</dc:title>
     </cc:Agent>
    </dc:creator>
   </cc:Work>
  </rdf:RDF>
 </metadata>
 <defs>
  <style type="text/css">*{stroke-linejoin: round; stroke-linecap: butt}</style>
 </defs>
 <g id="figure_1">
  <g id="patch_1">
   <path d="M 0 612 
L 792 612 
L 792 0 
L 0 0 
z
" style="fill: #ffffff"/>
  </g>
  <g id="axes_1">
   <g id="line2d_1">
    <path d="M 0 459 
L 44 459.096835 
L 88 456.482304 
L 132 459.258228 
L 176 458.225317 
L 220 457.741142 
L 264 460.06519 
L 308 458.031647 
L 352 456.675969 
L 396 453.771112 
L 440 457.547473 
L 484 460.678481 
L 528 450.092258 
L 572 447.575778 
L 616 445.350228 
L 660 441.481299 
L 704 443.512211 
L 748 444.67301 
" clip-path="url(#p01db076710)" style="fill: none; stroke: #000000; stroke-width: 1.5; stroke-linecap: square"/>
   </g>
   <g id="line2d_2">
    <path d="M 0 459 
L 44 459 
L 88 459.064557 
L 132 457.644308 
L 176 458.780506 
L 220 458.493957 
L 264 458.111574 
L 308 459.389883 
L 352 459.032152 
L 396 457.881648 
L 440 455.815494 
L 484 456.683564 
L 528 459.455949 
L 572 455.21363 
L 616 451.374246 
L 660 448.328759 
L 704 444.871806 
L 748 444.16618 
" clip-path="url(#p01db076710)" style="fill: none; stroke: #000000; stroke-width: 1.5; stroke-linecap: square"/>
   </g>
   <g id="line2d_3">
    <path d="M 0 459 
L 44 459 
L 88 459.056725 
L 132 457.95234 
L 176 458.664008 
L 220 458.507927 
L 264 458.251257 
L 308 459.172844 
L 352 459.018 
L 396 458.32528 
L 440 456.948311 
L 484 457.127767 
L 528 459.061028 
L 572 456.49039 
L 616 453.858302 
L 660 451.351873 
L 704 448.448367 
L 748 446.984513 
" clip-path="url(#p01db076710)" style="fill: none; stroke: #000000; stroke-width: 1.5; stroke-linecap: square"/>
   </g>
   <g id="line2d_4">
    <path d="M 0 459 
L 44 459 
L 88 459.052602 
L 132 458.107759 
L 176 458.638186 
L 220 458.524841 
L 264 458.331957 
L 308 459.068916 
L 352 458.957464 
L 396 458.497844 
L 440 457.584274 
L 484 457.577396 
L 528 458.751676 
L 572 457.211914 
L 616 455.529766 
L 660 453.779601 
L 704 451.691436 
L 748 450.317438 
" clip-path="url(#p01db076710)" style="fill: none; stroke: #000000; stroke-width: 1.5; stroke-linecap: square"/>
   </g>
   <g id="line2d_5">
    <path d="M 0 459 
L 44 459 
L 88 459.050514 
L 132 458.183682 
L 176 458.634517 
L 220 458.537919 
L 264 458.374796 
L 308 459.024042 
L 352 458.899416 
L 396 458.558623 
L 440 457.872987 
L 484 457.829018 
L 528 458.625846 
L 572 457.577676 
L 616 456.396093 
L 660 455.135326 
L 704 453.623577 
L 748 452.534337 
" clip-path="url(#p01db076710)" style="fill: none; stroke: #000000; stroke-width: 1.5; stroke-linecap: square"/>
   </g>
   <g id="line2d_6">
    <path d="M 0 459 
L 44 459 
L 88 459.049466 
L 132 458.220927 
L 176 458.63496 
L 220 458.545783 
L 264 458.396744 
L 308 459.004146 
L 352 458.870468 
L 396 458.582303 
L 440 458.0021 
L 484 457.951253 
L 528 458.587542 
L 572 457.751003 
L 616 456.802144 
L 660 455.785793 
L 704 454.572233 
L 748 453.672194 
" clip-path="url(#p01db076710)" style="fill: none; stroke: #000000; stroke-width: 1.5; stroke-linecap: square"/>
   </g>
   <g id="line2d_7">
    <path d="M 0 459 
L 44 459 
L 88 459.048942 
L 132 458.239338 
L 176 458.635734 
L 220 458.550056 
L 264 458.407832 
L 308 458.984726 
L 352 458.856366 
L 396 458.592583 
L 440 458.062076 
L 484 458.010065 
L 528 458.574128 
L 572 457.833463 
L 616 456.993021 
L 660 456.093413 
L 704 455.023838 
L 748 454.222748 
" clip-path="url(#p01db076710)" style="fill: none; stroke: #000000; stroke-width: 1.5; stroke-linecap: square"/>
   </g>
   <g id="line2d_8">
    <path d="M 0 459 
L 44 459 
L 88 459.04868 
L 132 458.248486 
L 176 458.636256 
L 220 458.552278 
L 264 458.413402 
L 308 458.971424 
L 352 458.849451 
L 396 458.597357 
L 440 458.090851 
L 484 458.038735 
L 528 458.56876 
L 572 457.873425 
L 616 457.084812 
L 660 456.241548 
L 704 455.241693 
L 748 454.490024 
" clip-path="url(#p01db076710)" style="fill: none; stroke: #000000; stroke-width: 1.5; stroke-linecap: square"/>
   </g>
   <g id="line2d_9">
    <path d="M 0 459 
L 44 459 
L 88 459.048549 
L 132 458.253046 
L 176 458.63655 
L 220 458.553411 
L 264 458.416193 
L 308 458.964914 
L 352 458.846033 
L 396 458.599657 
L 440 458.104929 
L 484 458.052868 
L 528 458.566397 
L 572 457.893064 
L 616 457.129729 
L 660 456.314055 
L 704 455.348377 
L 748 454.621261 
" clip-path="url(#p01db076710)" style="fill: none; stroke: #000000; stroke-width: 1.5; stroke-linecap: square"/>
   </g>
  </g>
 </g>
 <defs>
  <clipPath id="p01db076710">
   <rect x="0" y="0" width="792" height="612"/>
  </clipPath>
 </defs>
</svg>
