<?xml version="1.0" encoding="utf-8" standalone="no"?>
<!DOCTYPE svg PUBLIC "-//W3C//DTD SVG 1.1//EN"
  "http://www.w3.org/Graphics/SVG/1.1/DTD/svg11.dtd">
<svg xmlns:xlink="http://www.w3.org/1999/xlink" width="792pt" height="612pt" viewBox="0 0 792 612" xmlns="http://www.w3.org/2000/svg" version="1.1">
 <metadata>
  <rdf:RDF xmlns:dc="http://purl.org/dc/elements/1.1/" xmlns:cc="http://creativecommons.org/ns#" xmlns:rdf="http://www.w3.org/1999/02/22-rdf-syntax-ns#">
   <cc:Work>
    <dc:type rdf:resource="http://purl.org/dc/dcmitype/StillImage"/>
    <dc:date>2023-01-30T17:15:45.398411</dc:date>
    <dc:format>image/svg+xml</dc:format>
    <dc:creator>
     <cc:Agent>
      <dc:title>Matplotlib v3.6.2, https://matplotlib.org/</dc:title>
     </cc:Agent>
    </dc:creator>
   </cc:Work>
  </rdf:RDF>
 </metadata>
 <defs>
  <style type="text/css">*{stroke-linejoin: round; stroke-linecap: butt}</style>
 </defs>
 <g id="figure_1">
  <g id="patch_1">
   <path d="M 0 612 
L 792 612 
L 792 0 
L 0 0 
z
" style="fill: #ffffff"/>
  </g>
  <g id="axes_1">
   <g id="line2d_1">
    <path d="M 0 306 
L 46.588235 308.961406 
L 93.176471 303.231719 
L 139.764706 305.098677 
L 186.352941 304.068614 
L 232.941176 308.510779 
L 279.529412 310.313201 
L 326.117647 296.732059 
L 372.705882 304.326127 
L 419.294118 304.519263 
L 465.882353 303.424845 
L 512.470588 307.351979 
L 559.058824 306.772563 
L 605.647059 311.149945 
L 652.235294 313.595326 
L 698.823529 308.832656 
L 745.411765 303.939859 
" clip-path="url(#pa1d39ccf68)" style="fill: none; stroke: #000000; stroke-width: 1.5; stroke-linecap: square"/>
   </g>
   <g id="line2d_2">
    <path d="M 0 306 
L 46.588235 306 
L 93.176471 307.974305 
L 139.764706 305.264226 
L 186.352941 305.175933 
L 232.941176 304.604409 
L 279.529412 306.58862 
L 326.117647 308.465665 
L 372.705882 302.574601 
L 419.294118 303.447061 
L 465.882353 303.974446 
L 512.470588 303.700022 
L 559.058824 305.530402 
L 605.647059 306.156785 
L 652.235294 308.658717 
L 698.823529 311.133791 
L 745.411765 310.007008 
" clip-path="url(#pa1d39ccf68)" style="fill: none; stroke: #000000; stroke-width: 1.5; stroke-linecap: square"/>
   </g>
   <g id="line2d_3">
    <path d="M 0 306 
L 46.588235 306 
L 93.176471 307.734787 
L 139.764706 305.694504 
L 186.352941 305.461819 
L 232.941176 304.966127 
L 279.529412 306.152663 
L 326.117647 307.489489 
L 372.705882 304.127804 
L 419.294118 304.188577 
L 465.882353 304.288557 
L 512.470588 304.029862 
L 559.058824 305.018319 
L 605.647059 305.537864 
L 652.235294 307.194685 
L 698.823529 309.080163 
L 745.411765 309.007386 
" clip-path="url(#pa1d39ccf68)" style="fill: none; stroke: #000000; stroke-width: 1.5; stroke-linecap: square"/>
   </g>
   <g id="line2d_4">
    <path d="M 0 306 
L 46.588235 306 
L 93.176471 307.608711 
L 139.764706 305.890878 
L 186.352941 305.638793 
L 232.941176 305.207729 
L 279.529412 306.020689 
L 326.117647 306.992652 
L 372.705882 304.815396 
L 419.294118 304.71683 
L 465.882353 304.678647 
L 512.470588 304.444326 
L 559.058824 304.973027 
L 605.647059 305.292968 
L 652.235294 306.31527 
L 698.823529 307.56681 
L 745.411765 307.781642 
" clip-path="url(#pa1d39ccf68)" style="fill: none; stroke: #000000; stroke-width: 1.5; stroke-linecap: square"/>
   </g>
   <g id="line2d_5">
    <path d="M 0 306 
L 46.588235 306 
L 93.176471 307.544844 
L 139.764706 305.980909 
L 186.352941 305.730914 
L 232.941176 305.338497 
L 279.529412 305.987962 
L 326.117647 306.777414 
L 372.705882 305.1095 
L 419.294118 304.98943 
L 465.882353 304.922099 
L 512.470588 304.719854 
L 559.058824 305.057785 
L 605.647059 305.268381 
L 652.235294 305.963111 
L 698.823529 306.834151 
L 745.411765 307.055315 
" clip-path="url(#pa1d39ccf68)" style="fill: none; stroke: #000000; stroke-width: 1.5; stroke-linecap: square"/>
   </g>
   <g id="line2d_6">
    <path d="M 0 306 
L 46.588235 306 
L 93.176471 307.512806 
L 139.764706 306.02351 
L 186.352941 305.777067 
L 232.941176 305.405144 
L 279.529412 305.980392 
L 326.117647 306.682677 
L 372.705882 305.241903 
L 419.294118 305.12165 
L 465.882353 305.049008 
L 512.470588 304.867351 
L 559.058824 305.127195 
L 605.647059 305.289194 
L 652.235294 305.835646 
L 698.823529 306.524234 
L 745.411765 306.719979 
" clip-path="url(#pa1d39ccf68)" style="fill: none; stroke: #000000; stroke-width: 1.5; stroke-linecap: square"/>
   </g>
   <g id="line2d_7">
    <path d="M 0 306 
L 46.588235 306 
L 93.176471 307.496774 
L 139.764706 306.044167 
L 186.352941 305.800059 
L 232.941176 305.438604 
L 279.529412 305.978765 
L 326.117647 306.638966 
L 372.705882 305.304332 
L 419.294118 305.18599 
L 465.882353 305.112632 
L 512.470588 304.942043 
L 559.058824 305.167648 
L 605.647059 305.307775 
L 652.235294 305.786377 
L 698.823529 306.389683 
L 745.411765 306.568415 
" clip-path="url(#pa1d39ccf68)" style="fill: none; stroke: #000000; stroke-width: 1.5; stroke-linecap: square"/>
   </g>
   <g id="line2d_8">
    <path d="M 0 306 
L 46.588235 306 
L 93.176471 307.488756 
L 139.764706 306.05433 
L 186.352941 305.811521 
L 232.941176 305.455344 
L 279.529412 305.978479 
L 326.117647 306.618067 
L 372.705882 305.334603 
L 419.294118 305.217633 
L 465.882353 305.144343 
L 512.470588 304.979419 
L 559.058824 305.189121 
L 605.647059 305.318995 
L 652.235294 305.765479 
L 698.823529 306.328077 
L 745.411765 306.497653 
" clip-path="url(#pa1d39ccf68)" style="fill: none; stroke: #000000; stroke-width: 1.5; stroke-linecap: square"/>
   </g>
   <g id="line2d_9">
    <path d="M 0 306 
L 46.588235 306 
L 93.176471 307.484747 
L 139.764706 306.059369 
L 186.352941 305.817241 
L 232.941176 305.463713 
L 279.529412 305.978466 
L 326.117647 306.60786 
L 372.705882 305.349502 
L 419.294118 305.233314 
L 465.882353 305.160156 
L 512.470588 304.99809 
L 559.058824 305.200142 
L 605.647059 305.325066 
L 652.235294 305.755967 
L 698.823529 306.298741 
L 745.411765 306.463629 
" clip-path="url(#pa1d39ccf68)" style="fill: none; stroke: #000000; stroke-width: 1.5; stroke-linecap: square"/>
   </g>
  </g>
 </g>
 <defs>
  <clipPath id="pa1d39ccf68">
   <rect x="0" y="0" width="792" height="612"/>
  </clipPath>
 </defs>
</svg>
