<?xml version="1.0" encoding="utf-8" standalone="no"?>
<!DOCTYPE svg PUBLIC "-//W3C//DTD SVG 1.1//EN"
  "http://www.w3.org/Graphics/SVG/1.1/DTD/svg11.dtd">
<svg xmlns:xlink="http://www.w3.org/1999/xlink" width="792pt" height="612pt" viewBox="0 0 792 612" xmlns="http://www.w3.org/2000/svg" version="1.1">
 <metadata>
  <rdf:RDF xmlns:dc="http://purl.org/dc/elements/1.1/" xmlns:cc="http://creativecommons.org/ns#" xmlns:rdf="http://www.w3.org/1999/02/22-rdf-syntax-ns#">
   <cc:Work>
    <dc:type rdf:resource="http://purl.org/dc/dcmitype/StillImage"/>
    <dc:date>2023-01-16T16:12:27.768067</dc:date>
    <dc:format>image/svg+xml</dc:format>
    <dc:creator>
     <cc:Agent>
      <dc:title>Matplotlib v3.6.2, https://matplotlib.org/</dc:title>
     </cc:Agent>
    </dc:creator>
   </cc:Work>
  </rdf:RDF>
 </metadata>
 <defs>
  <style type="text/css">*{stroke-linejoin: round; stroke-linecap: butt}</style>
 </defs>
 <g id="figure_1">
  <g id="patch_1">
   <path d="M 0 612 
L 792 612 
L 792 0 
L 0 0 
z
" style="fill: #ffffff"/>
  </g>
  <g id="axes_1">
   <g id="line2d_1">
    <path d="M 0 306 
L 3.168 310.251861 
L 6.336 310.20064 
L 9.504 313.170962 
L 12.672 304.872933 
L 15.84 310.046976 
L 19.008 309.995755 
L 22.176 309.637197 
L 25.344 300.928641 
L 28.512 305.692617 
L 31.68 307.536903 
L 34.848 301.901802 
L 38.016 310.968925 
L 41.184 306.256153 
L 44.352 305.897539 
L 47.52 305.129083 
L 50.688 301.133509 
L 53.856 313.273366 
L 57.024 310.968925 
L 60.192 309.68842 
L 63.36 300.416491 
L 66.528 306.102461 
L 69.696 298.214639 
L 72.864 298.624232 
L 76.032 310.661618 
L 79.2 315.525801 
L 82.368 304.514326 
L 85.536 299.289875 
L 88.704 307.383215 
L 91.872 311.890784 
L 95.04 298.163442 
L 98.208 306.409844 
L 101.376 303.745897 
L 104.544 310.712837 
L 107.712 312.095627 
L 110.88 298.214639 
L 114.048 312.198047 
L 117.216 306.102461 
L 120.384 307.997963 
L 123.552 299.341082 
L 126.72 304.924163 
L 129.888 304.155723 
L 133.056 307.024607 
L 136.224 305.846308 
L 139.392 305.129083 
L 142.56 314.655651 
L 145.728 305.897539 
L 148.896 303.592214 
L 152.064 305.129083 
L 155.232 303.284853 
L 158.4 304.053266 
L 161.568 307.485674 
L 164.736 306.512305 
L 167.904 304.924163 
L 171.072 310.866491 
L 174.24 308.8176 
L 177.408 304.668014 
L 180.576 307.793048 
L 183.744 313.170962 
L 186.912 311.429867 
L 190.08 304.309409 
L 193.248 311.020142 
L 196.416 306.307383 
L 199.584 302.31158 
L 202.752 299.904373 
L 205.92 307.229526 
L 209.088 313.273366 
L 212.256 303.028722 
L 215.424 311.327438 
L 218.592 314.143732 
L 221.76 299.23867 
L 224.928 314.450889 
L 228.096 301.492039 
L 231.264 305.692617 
L 234.432 297.49792 
L 237.6 316.088758 
L 240.768 307.434445 
L 243.936 307.895506 
L 247.104 302.977497 
L 250.272 310.610399 
L 253.44 307.844277 
L 256.608 299.494702 
L 259.776 308.868826 
L 262.944 297.805074 
L 266.112 317.470264 
L 269.28 339.877637 
L 272.448 299.750743 
L 275.616 303.899581 
L 278.784 303.848353 
L 281.952 304.821703 
L 285.12 300.928641 
L 288.288 302.772596 
L 291.456 308.920052 
L 294.624 305.077853 
L 297.792 303.131174 
L 300.96 308.766374 
L 304.128 305.590156 
L 307.296 304.770474 
L 310.464 309.329853 
L 313.632 309.381078 
L 316.8 309.944533 
L 319.968 307.280756 
L 323.136 307.690591 
L 326.304 301.44082 
L 329.472 308.459013 
L 332.64 305.641386 
L 335.808 302.157912 
L 338.976 308.920052 
L 342.144 309.278629 
L 345.312 300.006794 
L 348.48 307.690591 
L 351.648 309.637197 
L 354.816 306.922147 
L 357.984 307.229526 
L 361.152 306.204922 
L 364.32 309.278629 
L 367.488 302.260357 
L 370.656 303.284853 
L 373.824 305.129083 
L 376.992 306.717226 
L 380.16 307.997963 
L 383.328 306.819687 
L 386.496 307.895506 
L 389.664 302.209134 
L 392.832 308.407786 
L 396 298.675433 
L 399.168 305.487695 
L 402.336 303.694669 
L 405.504 306.614766 
L 408.672 306.614766 
L 411.84 308.612694 
L 415.008 301.850581 
L 418.176 300.979858 
L 421.344 307.280756 
L 424.512 306.461074 
L 427.68 307.844277 
L 430.848 301.953024 
L 434.016 307.690591 
L 437.184 307.895506 
L 440.352 305.948769 
L 443.52 306.512305 
L 446.688 300.365278 
L 449.856 306.614766 
L 453.024 302.362803 
L 456.192 306.102461 
L 459.36 305.077853 
L 462.528 306.563535 
L 465.696 292.126043 
L 468.864 309.432302 
L 472.032 311.071359 
L 475.2 307.536903 
L 478.368 307.741819 
L 481.536 304.975393 
L 484.704 313.068556 
L 487.872 306.922147 
L 491.04 308.407786 
L 494.208 308.663921 
L 497.376 303.079948 
L 500.544 309.585973 
L 503.712 306.614766 
L 506.88 303.1824 
L 510.048 304.206952 
L 513.216 303.950809 
L 516.384 302.772596 
L 519.552 317.726048 
L 522.72 306.768456 
L 525.888 309.432302 
L 529.056 305.948769 
L 532.224 306 
L 535.392 309.68842 
L 538.56 311.071359 
L 541.728 308.254103 
L 544.896 308.51024 
L 548.064 306.409844 
L 551.232 306.307383 
L 554.4 301.79936 
L 557.568 309.944533 
L 560.736 308.920052 
L 563.904 299.392288 
L 567.072 303.284853 
L 570.24 305.129083 
L 573.408 308.407786 
L 576.576 312.402882 
L 579.744 307.946734 
L 582.912 307.588132 
L 586.08 307.588132 
L 589.248 299.136259 
L 592.416 308.100419 
L 595.584 300.365278 
L 598.752 303.48976 
L 601.92 305.538926 
L 605.088 306.870917 
L 608.256 300.416491 
L 611.424 302.209134 
L 614.592 301.79936 
L 617.76 305.897539 
L 620.928 305.795078 
L 624.096 299.750743 
L 627.264 307.075837 
L 630.432 305.846308 
L 633.6 310.55918 
L 636.768 309.68842 
L 639.936 302.567698 
L 643.104 305.846308 
L 646.272 305.692617 
L 649.44 309.585973 
L 652.608 297.03722 
L 655.776 310.456742 
L 658.944 306.256153 
L 662.112 305.180313 
L 665.28 308.612694 
L 668.448 294.734376 
L 671.616 299.853162 
L 674.784 306.870917 
L 677.952 302.106689 
L 681.12 305.026623 
L 684.288 306.870917 
L 687.456 307.639362 
L 690.624 304.975393 
L 693.792 298.624232 
L 696.96 304.719244 
L 700.128 307.383215 
L 703.296 307.895506 
L 706.464 309.790866 
L 709.632 308.100419 
L 712.8 301.850581 
L 715.968 308.715147 
L 719.136 301.696919 
L 722.304 304.258181 
L 725.472 307.741819 
L 728.64 311.890784 
L 731.808 307.741819 
L 734.976 308.100419 
L 738.144 306.153692 
L 741.312 304.514326 
L 744.48 307.741819 
L 747.648 305.180313 
L 750.816 305.743847 
L 753.984 308.356558 
L 757.152 303.797125 
L 760.32 305.282774 
L 763.488 304.463097 
L 766.656 307.997963 
L 769.824 309.432302 
L 772.992 298.624232 
L 776.16 304.668014 
L 779.328 304.821703 
L 782.496 303.950809 
L 785.664 307.075837 
L 788.832 306.614766 
L 788.832 306.614766 
" clip-path="url(#pffd040c8e5)" style="fill: none; stroke: #000000; stroke-width: 1.5; stroke-linecap: square"/>
   </g>
   <g id="line2d_2">
    <path d="M 0 306 
L 3.168 306 
L 6.336 308.834675 
L 9.504 309.615244 
L 12.672 311.51181 
L 15.84 308.085546 
L 19.008 309.08186 
L 22.176 309.542413 
L 25.344 309.589991 
L 28.512 305.249223 
L 31.68 305.461979 
L 34.848 306.494224 
L 38.016 304.175813 
L 41.184 307.584516 
L 44.352 306.912905 
L 47.52 306.397187 
L 50.688 305.754294 
L 53.856 303.444158 
L 57.024 308.374237 
L 60.192 309.678376 
L 63.36 309.698665 
L 66.528 305.036668 
L 69.696 305.569262 
L 72.864 301.876292 
L 76.032 300.237346 
L 82.368 310.502538 
L 85.536 307.49592 
L 88.704 303.372038 
L 91.872 305.391261 
L 95.04 308.652671 
L 98.208 303.407194 
L 101.376 304.923761 
L 104.544 304.321262 
L 107.712 307.507773 
L 110.88 309.816778 
L 114.048 304.012886 
L 117.216 308.115285 
L 120.384 307.097534 
L 123.552 307.567038 
L 126.72 303.439738 
L 129.888 304.18425 
L 133.056 304.157129 
L 136.224 305.580914 
L 139.392 305.728579 
L 142.56 305.414968 
L 145.728 310.053003 
L 152.064 305.790055 
L 155.232 305.45997 
L 158.4 304.370683 
L 161.568 304.206148 
L 164.736 305.849121 
L 167.904 306.183425 
L 171.072 305.534707 
L 174.24 308.210509 
L 177.408 308.524302 
L 180.576 306.595278 
L 183.744 307.203007 
L 186.912 310.20526 
L 190.08 310.825316 
L 193.248 307.563221 
L 196.416 309.303739 
L 199.584 307.796664 
L 202.752 305.041289 
L 205.92 302.463241 
L 209.088 304.845209 
L 212.256 309.060069 
L 215.424 306.027926 
L 221.76 311.424243 
L 224.928 305.317329 
L 228.096 309.908778 
L 231.264 305.703466 
L 234.432 305.695028 
L 237.6 301.564751 
L 240.768 308.85396 
L 243.936 308.13658 
L 247.104 308.003789 
L 250.272 305.497941 
L 253.44 308.04678 
L 256.608 307.957984 
L 259.776 303.713754 
L 262.944 306.313611 
L 266.112 302.022725 
L 269.28 309.768569 
L 272.448 324.931691 
L 275.616 312.34565 
L 278.784 308.109861 
L 281.952 305.971271 
L 285.12 305.406932 
L 288.288 303.152066 
L 291.456 302.972073 
L 294.624 305.929282 
L 297.792 305.435058 
L 300.96 304.289721 
L 304.128 306.537619 
L 307.296 306.067303 
L 310.464 305.418785 
L 313.632 307.390849 
L 316.8 308.398946 
L 319.968 309.173769 
L 323.136 308.231603 
L 326.304 307.970038 
L 329.472 304.690917 
L 332.64 306.580612 
L 335.808 306.112707 
L 338.976 304.121169 
L 342.144 306.519738 
L 345.312 307.897916 
L 348.48 303.937751 
L 354.816 307.741819 
L 357.984 307.328972 
L 361.152 307.282363 
L 364.32 306.751581 
L 367.488 308.015842 
L 370.656 305.124262 
L 373.824 304.21097 
L 376.992 304.665001 
L 380.16 305.685384 
L 383.328 306.843795 
L 386.496 306.830937 
L 389.664 307.36654 
L 392.832 304.773889 
L 396 306.602912 
L 399.168 302.629569 
L 402.336 304.059293 
L 405.504 303.871054 
L 408.672 305.240182 
L 411.84 305.927072 
L 415.008 307.271314 
L 418.176 304.560131 
L 421.344 302.75532 
L 424.512 305.03486 
L 427.68 305.749874 
L 430.848 306.805222 
L 434.016 304.36988 
L 437.184 306.032346 
L 440.352 306.962528 
L 443.52 306.463686 
L 446.688 306.498844 
L 449.856 303.418243 
L 453.024 305.016779 
L 456.192 303.679 
L 459.36 304.89885 
L 462.528 304.983228 
L 465.696 305.770769 
L 468.864 298.917789 
L 472.032 304.180232 
L 475.2 307.646996 
L 478.368 307.593758 
L 481.536 307.678336 
L 484.704 306.324661 
L 487.872 309.712726 
L 491.04 308.318188 
L 497.376 308.527918 
L 500.544 305.788247 
L 503.712 307.691193 
L 506.88 307.150773 
L 510.048 305.163036 
L 513.216 304.667613 
L 516.384 304.303383 
L 519.552 303.526925 
L 522.72 310.646755 
L 525.888 308.714946 
L 529.056 309.073327 
L 532.224 307.509782 
L 535.392 306.76042 
L 541.728 309.667328 
L 544.896 308.971479 
L 548.064 308.722781 
L 551.232 307.565632 
L 554.4 306.930384 
L 557.568 304.356621 
L 560.736 307.158407 
L 563.904 308.03774 
L 567.072 303.691656 
L 570.24 303.47851 
L 573.408 304.297155 
L 576.576 306.356404 
L 579.744 309.391925 
L 582.912 308.681398 
L 586.08 308.130151 
L 589.248 307.856532 
L 592.416 303.495385 
L 595.584 305.807333 
L 598.752 303.076734 
L 601.92 303.273603 
L 608.256 305.629734 
L 611.424 303.008835 
L 617.76 302.204112 
L 620.928 304.046435 
L 624.096 304.931396 
L 627.264 302.333475 
L 630.432 304.707592 
L 633.6 305.274939 
L 636.768 307.937091 
L 639.936 308.827443 
L 643.104 305.699046 
L 646.272 305.772577 
L 649.44 305.732396 
L 652.608 307.678537 
L 655.776 302.337091 
L 658.944 306.406027 
L 662.112 306.322652 
L 665.28 305.742642 
L 668.448 307.189547 
L 671.616 300.938081 
L 674.784 300.384156 
L 677.952 303.621946 
L 681.12 302.874242 
L 684.288 303.93976 
L 687.456 305.40653 
L 690.624 306.527774 
L 693.792 305.74445 
L 696.96 302.191457 
L 700.128 303.46485 
L 703.296 305.425013 
L 706.464 306.671621 
L 709.632 308.240643 
L 712.8 308.172942 
L 715.968 305.000305 
L 719.136 306.865091 
L 722.304 304.286909 
L 725.472 304.271641 
L 728.64 306.007433 
L 731.808 308.957216 
L 734.976 308.345509 
L 738.144 308.222964 
L 741.312 307.196779 
L 744.48 305.847313 
L 747.648 306.806427 
L 750.816 305.995178 
L 753.984 305.865595 
L 757.152 307.104164 
L 760.32 305.442894 
L 763.488 305.357309 
L 766.656 304.906886 
L 772.992 307.949145 
L 776.16 303.273201 
L 779.328 303.968488 
L 782.496 304.388162 
L 785.664 304.169786 
L 788.832 305.626319 
L 788.832 305.626319 
" clip-path="url(#pffd040c8e5)" style="fill: none; stroke: #000000; stroke-width: 1.5; stroke-linecap: square"/>
   </g>
   <g id="line2d_3">
    <path d="M 0 306 
L 3.168 306 
L 6.336 308.490788 
L 9.504 309.265517 
L 12.672 310.790885 
L 15.84 308.685528 
L 19.008 309.141267 
L 22.176 309.415813 
L 25.344 309.484978 
L 28.512 306.862969 
L 31.68 306.509124 
L 34.848 306.816958 
L 38.016 305.354421 
L 41.184 307.017368 
L 47.52 306.529028 
L 50.688 306.117386 
L 53.856 304.65194 
L 57.024 307.180959 
L 60.192 308.2914 
L 63.36 308.696589 
L 66.528 306.266153 
L 69.696 306.213678 
L 72.864 303.856822 
L 76.032 302.311316 
L 79.2 304.768229 
L 82.368 307.931218 
L 85.536 306.926974 
L 88.704 304.686814 
L 91.872 305.47245 
L 95.04 307.359013 
L 98.208 304.65632 
L 101.376 305.171382 
L 104.544 304.756862 
L 110.88 308.139349 
L 114.048 305.218822 
L 117.216 307.276763 
L 120.384 306.93282 
L 123.552 307.256036 
L 126.72 304.938324 
L 129.888 304.927586 
L 133.056 304.688448 
L 136.224 305.375573 
L 139.392 305.52098 
L 142.56 305.403607 
L 145.728 308.117287 
L 148.896 307.476036 
L 152.064 306.335248 
L 155.232 305.983559 
L 158.4 305.184575 
L 161.568 304.84398 
L 164.736 305.628365 
L 167.904 305.880733 
L 171.072 305.599206 
L 174.24 307.145368 
L 177.408 307.64605 
L 180.576 306.773517 
L 183.744 307.076311 
L 186.912 308.868758 
L 190.08 309.62536 
L 193.248 308.067496 
L 196.416 308.928193 
L 199.584 308.161074 
L 202.752 306.446298 
L 205.92 304.523986 
L 209.088 305.320946 
L 212.256 307.661132 
L 215.424 306.299195 
L 218.592 307.777602 
L 221.76 309.653194 
L 224.928 306.589293 
L 228.096 308.898917 
L 231.264 306.725809 
L 234.432 306.420782 
L 237.6 303.788728 
L 240.768 307.397712 
L 243.936 307.41206 
L 247.104 307.55007 
L 250.272 306.20695 
L 253.44 307.506313 
L 256.608 307.614421 
L 259.776 305.22705 
L 262.944 306.288665 
L 266.112 303.79734 
L 269.28 307.810635 
L 272.448 317.268317 
L 275.616 312.140652 
L 278.784 309.715167 
L 281.952 307.999614 
L 285.12 307.067839 
L 288.288 305.273521 
L 291.456 304.525693 
L 294.624 305.814495 
L 297.792 305.595501 
L 300.96 304.873873 
L 304.128 306.01186 
L 307.296 305.885757 
L 310.464 305.565157 
L 313.632 306.668378 
L 319.968 308.190569 
L 323.136 307.886495 
L 326.304 307.838236 
L 329.472 305.961569 
L 332.64 306.698363 
L 335.808 306.389724 
L 338.976 305.15161 
L 342.144 306.262447 
L 345.312 307.14631 
L 348.48 305.049151 
L 351.648 305.82805 
L 354.816 306.944771 
L 361.152 307.027395 
L 364.32 306.78291 
L 367.488 307.513797 
L 370.656 305.966228 
L 373.824 305.176262 
L 376.992 305.159502 
L 380.16 305.621809 
L 383.328 306.317247 
L 386.496 306.465762 
L 389.664 306.891119 
L 392.832 305.512034 
L 396 306.359194 
L 399.168 304.106757 
L 402.336 304.508689 
L 405.504 304.26344 
L 408.672 304.951765 
L 411.84 305.438139 
L 415.008 306.370728 
L 418.176 305.038204 
L 421.344 303.847972 
L 424.512 304.857983 
L 427.68 305.329045 
L 430.848 306.06704 
L 434.016 304.855065 
L 437.184 305.686573 
L 440.352 306.333561 
L 443.52 306.225154 
L 446.688 306.307081 
L 449.856 304.568533 
L 453.024 305.16915 
L 456.192 304.345625 
L 459.36 304.859596 
L 462.528 304.921756 
L 465.696 305.400266 
L 468.864 301.498692 
L 472.032 303.831951 
L 475.2 305.956789 
L 481.536 306.807627 
L 484.704 306.27445 
L 487.872 308.270903 
L 491.04 307.87475 
L 497.376 308.22076 
L 500.544 306.71817 
L 503.712 307.561578 
L 506.88 307.28915 
L 510.048 306.082938 
L 519.552 304.406638 
L 522.72 308.318964 
L 525.888 307.859897 
L 529.056 308.322635 
L 532.224 307.625302 
L 535.392 307.150445 
L 538.56 307.889949 
L 541.728 308.826601 
L 544.896 308.658746 
L 548.064 308.615073 
L 551.232 307.973019 
L 554.4 307.481407 
L 557.568 305.811574 
L 560.736 307.029917 
L 563.904 307.588953 
L 567.072 305.182679 
L 570.24 304.627394 
L 573.408 304.75986 
L 576.576 305.830205 
L 579.744 307.758965 
L 582.912 307.816256 
L 589.248 307.701072 
L 592.416 305.178463 
L 595.584 306.034116 
L 598.752 304.364225 
L 601.92 304.104742 
L 605.088 304.523917 
L 608.256 305.217157 
L 611.424 303.799985 
L 617.76 302.881826 
L 620.928 303.768072 
L 624.096 304.362521 
L 627.264 303.001648 
L 630.432 304.188785 
L 633.6 304.671843 
L 636.768 306.39971 
L 639.936 307.365407 
L 643.104 305.964097 
L 649.44 305.864477 
L 652.608 306.961525 
L 655.776 304.044273 
L 658.944 305.926634 
L 662.112 306.029856 
L 665.28 305.784443 
L 668.448 306.620663 
L 671.616 303.125015 
L 674.784 302.159785 
L 677.952 303.547734 
L 681.12 303.11994 
L 684.288 303.677437 
L 690.624 305.493883 
L 693.792 305.344786 
L 696.96 303.36773 
L 700.128 303.762453 
L 703.296 304.8204 
L 706.464 305.733555 
L 709.632 306.921203 
L 712.8 307.26871 
L 715.968 305.677883 
L 719.136 306.567615 
L 722.304 305.148943 
L 725.472 304.893103 
L 728.64 305.728475 
L 731.808 307.544813 
L 738.144 307.751966 
L 741.312 307.282142 
L 744.48 306.470939 
L 747.648 306.853649 
L 750.816 306.364071 
L 753.984 306.180529 
L 757.152 306.818414 
L 760.32 305.926605 
L 763.488 305.734794 
L 766.656 305.365321 
L 769.824 306.135588 
L 772.992 307.110096 
L 776.16 304.617765 
L 782.496 304.677287 
L 785.664 304.460151 
L 788.832 305.225084 
L 788.832 305.225084 
" clip-path="url(#pffd040c8e5)" style="fill: none; stroke: #000000; stroke-width: 1.5; stroke-linecap: square"/>
   </g>
   <g id="line2d_4">
    <path d="M 0 306 
L 3.168 306 
L 6.336 308.309774 
L 9.504 309.0519 
L 12.672 310.362806 
L 15.84 308.855809 
L 22.176 309.340717 
L 25.344 309.403612 
L 28.512 307.696296 
L 31.68 307.309052 
L 34.848 307.351634 
L 38.016 306.360639 
L 41.184 307.180026 
L 47.52 306.826067 
L 50.688 306.538071 
L 53.856 305.630419 
L 57.024 306.90289 
L 60.192 307.574841 
L 63.36 307.921982 
L 66.528 306.695524 
L 69.696 306.599033 
L 72.864 305.239519 
L 76.032 304.170086 
L 79.2 305.216705 
L 82.368 306.875735 
L 85.536 306.496503 
L 88.704 305.340703 
L 91.872 305.667824 
L 95.04 306.663534 
L 98.208 305.304556 
L 101.376 305.4811 
L 104.544 305.203611 
L 110.88 307.038831 
L 114.048 305.625273 
L 117.216 306.675729 
L 120.384 306.582059 
L 123.552 306.806091 
L 126.72 305.611791 
L 133.056 305.289262 
L 136.224 305.565042 
L 139.392 305.612254 
L 142.56 305.531736 
L 145.728 306.988989 
L 148.896 306.815336 
L 152.064 306.301561 
L 155.232 306.117508 
L 158.4 305.660578 
L 161.568 305.400531 
L 164.736 305.730911 
L 167.904 305.859037 
L 171.072 305.70956 
L 174.24 306.538006 
L 177.408 306.907069 
L 180.576 306.547088 
L 183.744 306.7405 
L 186.912 307.769202 
L 190.08 308.359263 
L 193.248 307.713018 
L 196.416 308.238696 
L 199.584 307.936508 
L 202.752 307.038994 
L 205.92 305.901328 
L 209.088 306.110476 
L 212.256 307.251064 
L 215.424 306.582269 
L 218.592 307.336777 
L 221.76 308.425069 
L 224.928 306.957878 
L 228.096 308.159781 
L 231.264 307.096752 
L 234.432 306.874309 
L 237.6 305.376201 
L 240.768 307.087577 
L 247.104 307.25952 
L 250.272 306.576403 
L 253.44 307.222655 
L 256.608 307.323252 
L 259.776 306.075187 
L 262.944 306.522683 
L 266.112 305.12933 
L 269.28 307.100506 
L 272.448 312.358634 
L 275.616 310.346077 
L 278.784 309.317458 
L 281.952 308.446844 
L 285.12 307.868237 
L 288.288 306.756427 
L 291.456 306.117165 
L 294.624 306.566005 
L 297.792 306.325527 
L 300.96 305.815299 
L 304.128 306.288865 
L 307.296 306.181246 
L 310.464 305.955251 
L 316.8 306.95373 
L 319.968 307.428741 
L 326.304 307.452276 
L 329.472 306.487668 
L 332.64 306.80567 
L 335.808 306.620397 
L 338.976 305.913277 
L 345.312 306.848409 
L 348.48 305.754841 
L 351.648 306.065769 
L 354.816 306.633415 
L 364.32 306.679467 
L 367.488 307.10018 
L 370.656 306.320627 
L 373.824 305.814695 
L 376.992 305.708968 
L 380.16 305.871143 
L 383.328 306.212121 
L 386.496 306.310034 
L 389.664 306.566639 
L 392.832 305.872962 
L 396 306.27595 
L 399.168 305.062465 
L 402.336 305.131591 
L 405.504 304.899803 
L 411.84 305.40379 
L 415.008 305.9139 
L 421.344 304.575606 
L 424.512 305.006001 
L 427.68 305.23674 
L 430.848 305.655606 
L 434.016 305.062418 
L 440.352 305.869454 
L 446.688 305.97906 
L 449.856 305.086013 
L 453.024 305.32857 
L 456.192 304.852144 
L 459.36 305.050561 
L 462.528 305.053561 
L 465.696 305.294026 
L 468.864 303.186808 
L 475.2 305.285511 
L 481.536 305.979438 
L 484.704 305.817804 
L 487.872 306.975521 
L 491.04 306.966422 
L 497.376 307.432761 
L 500.544 306.742955 
L 503.712 307.197868 
L 506.88 307.106917 
L 510.048 306.480361 
L 519.552 305.293292 
L 522.72 307.282746 
L 525.888 307.200601 
L 529.056 307.557541 
L 535.392 307.09603 
L 538.56 307.509755 
L 541.728 308.078453 
L 548.064 308.173109 
L 554.4 307.643348 
L 557.568 306.713167 
L 560.736 307.229716 
L 563.904 307.501059 
L 567.072 306.206296 
L 570.24 305.748441 
L 573.408 305.647214 
L 576.576 306.084776 
L 579.744 307.09319 
L 586.08 307.287872 
L 589.248 307.332224 
L 592.416 306.023182 
L 595.584 306.353491 
L 598.752 305.395466 
L 601.92 305.092511 
L 605.088 305.161011 
L 608.256 305.433223 
L 611.424 304.633226 
L 617.76 303.8556 
L 624.096 304.431549 
L 627.264 303.682331 
L 630.432 304.220763 
L 633.6 304.479325 
L 636.768 305.44954 
L 639.936 306.123989 
L 643.104 305.552842 
L 649.44 305.611322 
L 652.608 306.245711 
L 655.776 304.77442 
L 658.944 305.683945 
L 662.112 305.772683 
L 665.28 305.676102 
L 668.448 306.149088 
L 671.616 304.326834 
L 674.784 303.611667 
L 677.952 304.12925 
L 681.12 303.801013 
L 684.288 303.994186 
L 690.624 304.958666 
L 693.792 304.964971 
L 696.96 303.950023 
L 700.128 304.075124 
L 706.464 305.129052 
L 709.632 305.872614 
L 712.8 306.231866 
L 715.968 305.534524 
L 719.136 306.044898 
L 722.304 305.350454 
L 725.472 305.175709 
L 728.64 305.588974 
L 731.808 306.594734 
L 738.144 306.987227 
L 741.312 306.852404 
L 744.48 306.481622 
L 747.648 306.683308 
L 750.816 306.443857 
L 753.984 306.330086 
L 757.152 306.659576 
L 760.32 306.199989 
L 766.656 305.799969 
L 769.824 306.149298 
L 772.992 306.680832 
L 776.16 305.398005 
L 785.664 305.008299 
L 788.832 305.337379 
L 788.832 305.337379 
" clip-path="url(#pffd040c8e5)" style="fill: none; stroke: #000000; stroke-width: 1.5; stroke-linecap: square"/>
   </g>
   <g id="line2d_5">
    <path d="M 0 306 
L 3.168 306 
L 6.336 308.218076 
L 9.504 308.936973 
L 12.672 310.136926 
L 15.84 308.894384 
L 22.176 309.288308 
L 25.344 309.346221 
L 28.512 308.056061 
L 31.68 307.717607 
L 34.848 307.693199 
L 38.016 306.949634 
L 41.184 307.443301 
L 50.688 306.919883 
L 53.856 306.296751 
L 57.024 307.03005 
L 60.192 307.435069 
L 63.36 307.662259 
L 66.528 306.944495 
L 69.696 306.862408 
L 72.864 306.031241 
L 76.032 305.328533 
L 79.2 305.828495 
L 82.368 306.728151 
L 85.536 306.524813 
L 88.704 305.866024 
L 91.872 306.003052 
L 95.04 306.531011 
L 98.208 305.785589 
L 101.376 305.840854 
L 104.544 305.656406 
L 110.88 306.622314 
L 114.048 305.892101 
L 117.216 306.437648 
L 120.384 306.408755 
L 123.552 306.545309 
L 126.72 305.92801 
L 133.056 305.698483 
L 139.392 305.814238 
L 142.56 305.756197 
L 145.728 306.508995 
L 148.896 306.457367 
L 152.064 306.215792 
L 155.232 306.124289 
L 161.568 305.73156 
L 167.904 305.931891 
L 171.072 305.847469 
L 174.24 306.267641 
L 177.408 306.48095 
L 180.576 306.329397 
L 183.744 306.451679 
L 186.912 307.012839 
L 190.08 307.381512 
L 193.248 307.125244 
L 196.416 307.450045 
L 199.584 307.354804 
L 202.752 306.934586 
L 205.92 306.349058 
L 209.088 306.42115 
L 212.256 306.990967 
L 215.424 306.65881 
L 218.592 307.048429 
L 221.76 307.638792 
L 224.928 306.938035 
L 228.096 307.563306 
L 231.264 307.05958 
L 234.432 306.946128 
L 237.6 306.158518 
L 240.768 306.987607 
L 247.104 307.096446 
L 250.272 306.753634 
L 253.44 307.07554 
L 256.608 307.141527 
L 259.776 306.502309 
L 262.944 306.698043 
L 266.112 305.955933 
L 269.28 306.917572 
L 272.448 309.675561 
L 275.616 308.852349 
L 281.952 308.059484 
L 285.12 307.787284 
L 288.288 307.216851 
L 291.456 306.849123 
L 294.624 307.021508 
L 297.792 306.857976 
L 300.96 306.550278 
L 304.128 306.734977 
L 310.464 306.483418 
L 319.968 307.191741 
L 326.304 307.24017 
L 329.472 306.759508 
L 332.64 306.901714 
L 335.808 306.797596 
L 338.976 306.410921 
L 345.312 306.842177 
L 348.48 306.270037 
L 351.648 306.388522 
L 354.816 306.66013 
L 364.32 306.68634 
L 367.488 306.902082 
L 370.656 306.51544 
L 373.824 306.246775 
L 376.992 306.152144 
L 386.496 306.38757 
L 389.664 306.511007 
L 392.832 306.150952 
L 396 306.339598 
L 399.168 305.699369 
L 402.336 305.681534 
L 405.504 305.517079 
L 411.84 305.693528 
L 415.008 305.934295 
L 421.344 305.20852 
L 430.848 305.665357 
L 434.016 305.357379 
L 440.352 305.749592 
L 446.688 305.824726 
L 449.856 305.369111 
L 453.024 305.473679 
L 456.192 305.212791 
L 465.696 305.377157 
L 468.864 304.274745 
L 475.2 305.21958 
L 481.536 305.608858 
L 484.704 305.55665 
L 487.872 306.182896 
L 491.04 306.246202 
L 497.376 306.612983 
L 500.544 306.319098 
L 503.712 306.59235 
L 506.88 306.59351 
L 513.216 306.134914 
L 519.552 305.68586 
L 522.72 306.688157 
L 525.888 306.694655 
L 529.056 306.922446 
L 535.392 306.772328 
L 544.896 307.429609 
L 548.064 307.519048 
L 554.4 307.335529 
L 557.568 306.873482 
L 563.904 307.27854 
L 567.072 306.621716 
L 570.24 306.342814 
L 573.408 306.243013 
L 576.576 306.424352 
L 579.744 306.922988 
L 589.248 307.100729 
L 592.416 306.436768 
L 595.584 306.576764 
L 598.752 306.058565 
L 601.92 305.846928 
L 605.088 305.821381 
L 608.256 305.909523 
L 611.424 305.451555 
L 617.76 304.898099 
L 624.096 305.051384 
L 627.264 304.608936 
L 630.432 304.813876 
L 633.6 304.898913 
L 636.768 305.371518 
L 639.936 305.730468 
L 643.104 305.466225 
L 649.44 305.513645 
L 652.608 305.854646 
L 655.776 305.119507 
L 658.944 305.565135 
L 668.448 305.837753 
L 671.616 304.91665 
L 674.784 304.493222 
L 677.952 304.689191 
L 681.12 304.473074 
L 684.288 304.518133 
L 690.624 304.955041 
L 693.792 304.956096 
L 696.96 304.427284 
L 700.128 304.450231 
L 706.464 304.960127 
L 709.632 305.362106 
L 712.8 305.590978 
L 715.968 305.279753 
L 719.136 305.566433 
L 722.304 305.244906 
L 725.472 305.158626 
L 728.64 305.373338 
L 731.808 305.915119 
L 738.144 306.236739 
L 741.312 306.228696 
L 744.48 306.084275 
L 747.648 306.221679 
L 753.984 306.101555 
L 757.152 306.289381 
L 760.32 306.083181 
L 766.656 305.884961 
L 772.992 306.344775 
L 776.16 305.701765 
L 785.664 305.412727 
L 788.832 305.550591 
L 788.832 305.550591 
" clip-path="url(#pffd040c8e5)" style="fill: none; stroke: #000000; stroke-width: 1.5; stroke-linecap: square"/>
   </g>
   <g id="line2d_6">
    <path d="M 0 306 
L 3.168 306 
L 6.336 308.172076 
L 9.504 308.877791 
L 12.672 310.021983 
L 15.84 308.901165 
L 22.176 309.256415 
L 25.344 309.311534 
L 28.512 308.21078 
L 31.68 307.907126 
L 34.848 307.865719 
L 38.016 307.241996 
L 41.184 307.608977 
L 50.688 307.154548 
L 53.856 306.664739 
L 57.024 307.182265 
L 60.192 307.468496 
L 63.36 307.630901 
L 66.528 307.118849 
L 69.696 307.048719 
L 76.032 305.941197 
L 79.2 306.24379 
L 82.368 306.826302 
L 85.536 306.684148 
L 88.704 306.237957 
L 91.872 306.305838 
L 95.04 306.631412 
L 98.208 306.145458 
L 101.376 306.160404 
L 104.544 306.025814 
L 110.88 306.599416 
L 114.048 306.149216 
L 117.216 306.47035 
L 123.552 306.531462 
L 126.72 306.161098 
L 136.224 306.05113 
L 142.56 305.995854 
L 145.728 306.42106 
L 152.064 306.2597 
L 158.4 306.065399 
L 161.568 305.969571 
L 167.904 306.063599 
L 171.072 306.010137 
L 177.408 306.357008 
L 180.576 306.278779 
L 183.744 306.348642 
L 190.08 306.880669 
L 193.248 306.763302 
L 196.416 306.956998 
L 199.584 306.927533 
L 205.92 306.411443 
L 209.088 306.448236 
L 212.256 306.754462 
L 215.424 306.587737 
L 218.592 306.799357 
L 221.76 307.126583 
L 224.928 306.775935 
L 228.096 307.116466 
L 231.264 306.867459 
L 234.432 306.815546 
L 237.6 306.404465 
L 240.768 306.831053 
L 247.104 306.903137 
L 250.272 306.731085 
L 253.44 306.900875 
L 256.608 306.942106 
L 259.776 306.617005 
L 262.944 306.715172 
L 266.112 306.327134 
L 269.28 306.811993 
L 272.448 308.254502 
L 275.616 307.885432 
L 291.456 306.957459 
L 294.624 307.042177 
L 304.128 306.877553 
L 310.464 306.733894 
L 323.136 307.091315 
L 326.304 307.117019 
L 329.472 306.873666 
L 332.64 306.9416 
L 335.808 306.885912 
L 338.976 306.683489 
L 345.312 306.886127 
L 348.48 306.591929 
L 367.488 306.875153 
L 373.824 306.533512 
L 380.16 306.484009 
L 389.664 306.616986 
L 392.832 306.429228 
L 396 306.513489 
L 399.168 306.1797 
L 411.84 306.092444 
L 415.008 306.199033 
L 421.344 305.798734 
L 430.848 305.968685 
L 434.016 305.798595 
L 443.52 305.964688 
L 446.688 305.987164 
L 449.856 305.747808 
L 453.024 305.784684 
L 456.192 305.63914 
L 465.696 305.672276 
L 468.864 305.094638 
L 478.368 305.613211 
L 481.536 305.704974 
L 484.704 305.673096 
L 487.872 305.986284 
L 494.208 306.128845 
L 497.376 306.236539 
L 500.544 306.101241 
L 503.712 306.250889 
L 506.88 306.26635 
L 519.552 305.827715 
L 522.72 306.333328 
L 525.888 306.351887 
L 529.056 306.482731 
L 535.392 306.441817 
L 548.064 306.906343 
L 554.4 306.859547 
L 557.568 306.644703 
L 563.904 306.876856 
L 567.072 306.558718 
L 573.408 306.364288 
L 576.576 306.451507 
L 579.744 306.70412 
L 589.248 306.826099 
L 592.416 306.497694 
L 595.584 306.565092 
L 598.752 306.301558 
L 605.088 306.153739 
L 608.256 306.184903 
L 614.592 305.781364 
L 617.76 305.610621 
L 624.096 305.629627 
L 627.264 305.377952 
L 636.768 305.68399 
L 639.936 305.854437 
L 643.104 305.715927 
L 649.44 305.718311 
L 652.608 305.882575 
L 655.776 305.506465 
L 658.944 305.716328 
L 668.448 305.838973 
L 671.616 305.367448 
L 674.784 305.130697 
L 677.952 305.198966 
L 681.12 305.068247 
L 687.456 305.143666 
L 690.624 305.249944 
L 693.792 305.238977 
L 696.96 304.957785 
L 700.128 304.946973 
L 709.632 305.36805 
L 712.8 305.484312 
L 715.968 305.329758 
L 719.136 305.473188 
L 722.304 305.311797 
L 725.472 305.266181 
L 728.64 305.371217 
L 731.808 305.648354 
L 741.312 305.851711 
L 744.48 305.795402 
L 747.648 305.877728 
L 753.984 305.844039 
L 757.152 305.950674 
L 766.656 305.775151 
L 772.992 306.020765 
L 776.16 305.706511 
L 788.832 305.619783 
L 788.832 305.619783 
" clip-path="url(#pffd040c8e5)" style="fill: none; stroke: #000000; stroke-width: 1.5; stroke-linecap: square"/>
   </g>
   <g id="line2d_7">
    <path d="M 0 306 
L 3.168 306 
L 6.336 308.149057 
L 9.504 308.847815 
L 12.672 309.964145 
L 15.84 308.901408 
L 22.176 309.23883 
L 25.344 309.292483 
L 28.512 308.280653 
L 31.68 307.995913 
L 34.848 307.949521 
L 38.016 307.383356 
L 41.184 307.696449 
L 50.688 307.278936 
L 53.856 306.85143 
L 57.024 307.277718 
L 63.36 307.644821 
L 66.528 307.220993 
L 69.696 307.157766 
L 76.032 306.243978 
L 79.2 306.470383 
L 82.368 306.921152 
L 85.536 306.804683 
L 88.704 306.450531 
L 91.872 306.49338 
L 95.04 306.735437 
L 98.208 306.359779 
L 101.376 306.361924 
L 104.544 306.252162 
L 110.88 306.663809 
L 114.048 306.329396 
L 117.216 306.557522 
L 123.552 306.59491 
L 126.72 306.326674 
L 142.56 306.178026 
L 145.728 306.466087 
L 155.232 306.312303 
L 161.568 306.144976 
L 167.904 306.197681 
L 171.072 306.158105 
L 177.408 306.379718 
L 183.744 306.371879 
L 190.08 306.716942 
L 193.248 306.646583 
L 196.416 306.773422 
L 199.584 306.760009 
L 209.088 306.464199 
L 212.256 306.654783 
L 215.424 306.553971 
L 221.76 306.890663 
L 224.928 306.681806 
L 228.096 306.892651 
L 231.264 306.746947 
L 234.432 306.71866 
L 237.6 306.472549 
L 240.768 306.72791 
L 256.608 306.807365 
L 259.776 306.618714 
L 262.944 306.676504 
L 266.112 306.449581 
L 269.28 306.730391 
L 272.448 307.574711 
L 278.784 307.289489 
L 294.624 306.934689 
L 310.464 306.764472 
L 326.304 306.987287 
L 329.472 306.854471 
L 335.808 306.86298 
L 338.976 306.75114 
L 345.312 306.86116 
L 348.48 306.699332 
L 367.488 306.848469 
L 376.992 306.625842 
L 396 306.630377 
L 399.168 306.447985 
L 443.52 306.23529 
L 446.688 306.241519 
L 449.856 306.109497 
L 459.36 306.038057 
L 465.696 306.0288 
L 468.864 305.718097 
L 481.536 305.994303 
L 484.704 305.971646 
L 487.872 306.129358 
L 510.048 306.196677 
L 519.552 306.030623 
L 522.72 306.288589 
L 538.56 306.424394 
L 544.896 306.564427 
L 554.4 306.596326 
L 557.568 306.491208 
L 563.904 306.618362 
L 570.24 306.390776 
L 576.576 306.407873 
L 582.912 306.56958 
L 589.248 306.613546 
L 592.416 306.450459 
L 595.584 306.486428 
L 601.92 306.290654 
L 611.424 306.159507 
L 620.928 305.978808 
L 624.096 305.974815 
L 627.264 305.839572 
L 652.608 306.042833 
L 655.776 305.847602 
L 662.112 305.954163 
L 668.448 305.995331 
L 671.616 305.751452 
L 674.784 305.62378 
L 681.12 305.574091 
L 706.464 305.546699 
L 712.8 305.691527 
L 715.968 305.608597 
L 719.136 305.675657 
L 725.472 305.561044 
L 750.816 305.841795 
L 782.496 305.730038 
L 788.832 305.721528 
L 788.832 305.721528 
" clip-path="url(#pffd040c8e5)" style="fill: none; stroke: #000000; stroke-width: 1.5; stroke-linecap: square"/>
   </g>
   <g id="line2d_8">
    <path d="M 0 306 
L 3.168 306 
L 6.336 308.137546 
L 9.504 308.832736 
L 12.672 309.935152 
L 15.84 308.900745 
L 22.176 309.229606 
L 25.344 309.282508 
L 28.512 308.313597 
L 31.68 308.038551 
L 34.848 307.990438 
L 38.016 307.452279 
L 41.184 307.740743 
L 50.688 307.342121 
L 53.856 306.944393 
L 57.024 307.329377 
L 63.36 307.659019 
L 66.528 307.275487 
L 69.696 307.215888 
L 76.032 306.392373 
L 79.2 306.586268 
L 82.368 306.978778 
L 85.536 306.874075 
L 88.704 306.56172 
L 91.872 306.594551 
L 95.04 306.800234 
L 98.208 306.473952 
L 107.712 306.525629 
L 110.88 306.715831 
L 114.048 306.43215 
L 117.216 306.620295 
L 123.552 306.647355 
L 126.72 306.423468 
L 142.56 306.286414 
L 145.728 306.51624 
L 155.232 306.388452 
L 161.568 306.251255 
L 186.912 306.569114 
L 190.08 306.678698 
L 193.248 306.62591 
L 199.584 306.713662 
L 209.088 306.49159 
L 212.256 306.633198 
L 215.424 306.5587 
L 221.76 306.808103 
L 224.928 306.656102 
L 228.096 306.811205 
L 237.6 306.508522 
L 240.768 306.692566 
L 256.608 306.75282 
L 259.776 306.619963 
L 262.944 306.660815 
L 266.112 306.501093 
L 269.28 306.69756 
L 272.448 307.289822 
L 278.784 307.099629 
L 300.96 306.772912 
L 307.296 306.785987 
L 313.632 306.794998 
L 326.304 306.906552 
L 329.472 306.819424 
L 335.808 306.826428 
L 342.144 306.786987 
L 345.312 306.825726 
L 348.48 306.720206 
L 370.656 306.749085 
L 380.16 306.674675 
L 396 306.673482 
L 402.336 306.542319 
L 411.84 306.504634 
L 418.176 306.468252 
L 424.512 306.403299 
L 453.024 306.318096 
L 462.528 306.245889 
L 465.696 306.250185 
L 468.864 306.059563 
L 494.208 306.321744 
L 506.88 306.35599 
L 519.552 306.211562 
L 522.72 306.360619 
L 541.728 306.495795 
L 554.4 306.538897 
L 560.736 306.522695 
L 563.904 306.552917 
L 570.24 306.422889 
L 576.576 306.431713 
L 582.912 306.524291 
L 595.584 306.478916 
L 605.088 306.357092 
L 611.424 306.290311 
L 627.264 306.099111 
L 652.608 306.19264 
L 655.776 306.082262 
L 662.112 306.136379 
L 671.616 306.017885 
L 677.952 305.9552 
L 687.456 305.91032 
L 693.792 305.919533 
L 700.128 305.819738 
L 722.304 305.87033 
L 728.64 305.87358 
L 738.144 305.990268 
L 782.496 305.909818 
L 788.832 305.900902 
L 788.832 305.900902 
" clip-path="url(#pffd040c8e5)" style="fill: none; stroke: #000000; stroke-width: 1.5; stroke-linecap: square"/>
   </g>
   <g id="line2d_9">
    <path d="M 0 306 
L 3.168 306 
L 6.336 308.131789 
L 9.504 308.825175 
L 12.672 309.920639 
L 15.84 308.900218 
L 22.176 309.224883 
L 25.344 309.277405 
L 28.512 308.329558 
L 31.68 308.059401 
L 34.848 308.010605 
L 38.016 307.486234 
L 41.184 307.76295 
L 50.688 307.37385 
L 53.856 306.990634 
L 57.024 307.356047 
L 63.36 307.667846 
L 66.528 307.303502 
L 69.696 307.24575 
L 76.032 306.465542 
L 79.2 306.644532 
L 82.368 307.009865 
L 85.536 306.910785 
L 88.704 306.618207 
L 91.872 306.646635 
L 95.04 306.835537 
L 98.208 306.532417 
L 107.712 306.573783 
L 110.88 306.746529 
L 114.048 306.486336 
L 117.216 306.656252 
L 123.552 306.678688 
L 126.72 306.475187 
L 142.56 306.344634 
L 145.728 306.548249 
L 155.232 306.432317 
L 161.568 306.309016 
L 186.912 306.578095 
L 190.08 306.67256 
L 193.248 306.627192 
L 199.584 306.702858 
L 209.088 306.512721 
L 212.256 306.632734 
L 215.424 306.569548 
L 221.76 306.780245 
L 224.928 306.652628 
L 228.096 306.783102 
L 237.6 306.530595 
L 240.768 306.683653 
L 256.608 306.734258 
L 259.776 306.625205 
L 262.944 306.658675 
L 266.112 306.527818 
L 269.28 306.688089 
L 272.448 307.171542 
L 278.784 307.019763 
L 300.96 306.760733 
L 326.304 306.868742 
L 332.64 306.821314 
L 364.32 306.771068 
L 370.656 306.747861 
L 380.16 306.690603 
L 396 306.689044 
L 402.336 306.589424 
L 411.84 306.559364 
L 418.176 306.531164 
L 424.512 306.481216 
L 459.36 306.368309 
L 465.696 306.357602 
L 468.864 306.218101 
L 497.376 306.419504 
L 513.216 306.369652 
L 519.552 306.31457 
L 525.888 306.422122 
L 551.232 306.543164 
L 608.256 306.41765 
L 620.928 306.292284 
L 677.952 306.124482 
L 690.624 306.102798 
L 731.808 306.092833 
L 760.32 306.110363 
L 788.832 306.048203 
L 788.832 306.048203 
" clip-path="url(#pffd040c8e5)" style="fill: none; stroke: #000000; stroke-width: 1.5; stroke-linecap: square"/>
   </g>
  </g>
 </g>
 <defs>
  <clipPath id="pffd040c8e5">
   <rect x="0" y="0" width="792" height="612"/>
  </clipPath>
 </defs>
</svg>
