<?xml version="1.0" encoding="utf-8" standalone="no"?>
<!DOCTYPE svg PUBLIC "-//W3C//DTD SVG 1.1//EN"
  "http://www.w3.org/Graphics/SVG/1.1/DTD/svg11.dtd">
<svg xmlns:xlink="http://www.w3.org/1999/xlink" width="792pt" height="612pt" viewBox="0 0 792 612" xmlns="http://www.w3.org/2000/svg" version="1.1">
 <metadata>
  <rdf:RDF xmlns:dc="http://purl.org/dc/elements/1.1/" xmlns:cc="http://creativecommons.org/ns#" xmlns:rdf="http://www.w3.org/1999/02/22-rdf-syntax-ns#">
   <cc:Work>
    <dc:type rdf:resource="http://purl.org/dc/dcmitype/StillImage"/>
    <dc:date>2023-01-30T17:17:50.681059</dc:date>
    <dc:format>image/svg+xml</dc:format>
    <dc:creator>
     <cc:Agent>
      <dc:title>Matplotlib v3.6.2, https://matplotlib.org/</dc:title>
     </cc:Agent>
    </dc:creator>
   </cc:Work>
  </rdf:RDF>
 </metadata>
 <defs>
  <style type="text/css">*{stroke-linejoin: round; stroke-linecap: butt}</style>
 </defs>
 <g id="figure_1">
  <g id="patch_1">
   <path d="M 0 612 
L 792 612 
L 792 0 
L 0 0 
z
" style="fill: #ffffff"/>
  </g>
  <g id="axes_1">
   <g id="line2d_1">
    <path d="M 0 306 
L 3.168 310.248233 
L 6.336 310.194465 
L 9.504 309.81808 
L 12.672 300.67646 
L 15.84 305.677329 
L 19.008 307.613342 
L 22.176 301.697999 
L 25.344 311.216015 
L 28.512 306.268893 
L 31.68 305.892443 
L 34.848 305.085767 
L 38.016 300.891512 
L 41.184 313.63497 
L 44.352 311.216015 
L 47.52 309.87185 
L 50.688 300.138854 
L 53.856 306.107557 
L 57.024 297.827603 
L 60.192 298.25754 
L 63.36 310.893432 
L 66.528 315.999251 
L 69.696 304.440435 
L 72.864 298.956253 
L 76.032 307.45201 
L 79.2 312.183692 
L 82.368 297.773863 
L 85.536 306.430228 
L 88.704 303.633791 
L 91.872 310.947196 
L 95.04 312.398716 
L 98.208 297.827603 
L 101.376 312.506225 
L 104.544 306.107557 
L 107.712 308.097331 
L 110.88 299.010004 
L 114.048 304.870655 
L 117.216 304.063998 
L 120.384 307.075567 
L 123.552 305.838664 
L 126.72 305.085767 
L 129.888 315.085905 
L 133.056 305.892443 
L 136.224 303.472465 
L 139.392 305.085767 
L 142.56 303.149819 
L 145.728 303.956445 
L 148.896 307.559565 
L 152.064 306.537785 
L 155.232 304.870655 
L 158.4 311.108488 
L 161.568 308.957729 
L 164.736 304.601767 
L 167.904 307.882226 
L 171.072 313.527479 
L 174.24 311.699868 
L 177.408 304.225327 
L 180.576 311.269778 
L 183.744 306.322671 
L 186.912 302.12815 
L 190.08 299.601284 
L 193.248 307.290678 
L 196.416 313.63497 
L 199.584 302.880952 
L 202.752 311.592347 
L 205.92 314.548566 
L 209.088 298.902503 
L 212.256 314.870976 
L 215.424 301.267864 
L 218.592 305.677329 
L 221.76 297.075291 
L 224.928 316.590145 
L 228.096 307.505787 
L 231.264 307.989779 
L 234.432 302.827179 
L 237.6 310.839667 
L 240.768 307.936002 
L 243.936 299.171257 
L 247.104 309.011502 
L 250.272 297.397698 
L 253.44 318.040178 
L 256.608 341.547747 
L 259.776 299.440021 
L 262.944 303.795117 
L 266.112 303.741342 
L 269.28 304.7631 
L 272.448 300.67646 
L 275.616 302.612089 
L 278.784 309.065275 
L 281.952 305.031989 
L 285.12 302.988498 
L 288.288 308.903955 
L 291.456 305.569772 
L 294.624 304.709322 
L 297.792 309.495454 
L 300.96 309.549226 
L 304.128 310.140696 
L 307.296 307.344455 
L 310.464 307.774673 
L 313.632 301.214099 
L 316.8 308.58131 
L 319.968 305.62355 
L 323.136 301.966842 
L 326.304 309.065275 
L 329.472 309.441683 
L 332.64 299.708795 
L 335.808 307.774673 
L 338.976 309.81808 
L 342.144 306.968011 
L 345.312 307.290678 
L 348.48 306.215114 
L 351.648 309.441683 
L 354.816 302.074381 
L 357.984 303.149819 
L 361.152 305.085767 
L 364.32 306.752898 
L 367.488 308.097331 
L 370.656 306.860455 
L 373.824 307.989779 
L 376.992 302.020611 
L 380.16 308.527535 
L 383.328 298.311285 
L 386.496 305.462215 
L 389.664 303.580015 
L 392.832 306.645342 
L 396 306.645342 
L 399.168 308.742633 
L 402.336 301.644231 
L 405.504 300.730222 
L 408.672 307.344455 
L 411.84 306.484007 
L 415.008 307.936002 
L 418.176 301.751767 
L 421.344 307.774673 
L 424.512 307.989779 
L 427.68 305.946221 
L 430.848 306.537785 
L 434.016 300.085095 
L 437.184 306.645342 
L 440.352 302.18192 
L 443.52 306.107557 
L 446.688 305.031989 
L 449.856 306.591563 
L 453.024 291.43702 
L 456.192 309.602997 
L 459.36 311.32354 
L 462.528 307.613342 
L 465.696 307.828449 
L 468.864 304.924433 
L 472.032 313.419986 
L 475.2 306.968011 
L 478.368 308.527535 
L 481.536 308.796407 
L 484.704 302.934725 
L 487.872 309.764309 
L 491.04 306.645342 
L 494.208 303.042271 
L 497.376 304.117774 
L 500.544 303.848893 
L 503.712 302.612089 
L 506.88 318.308645 
L 510.048 306.806677 
L 513.216 309.602997 
L 516.384 305.946221 
L 519.552 306 
L 522.72 309.87185 
L 525.888 311.32354 
L 529.056 308.366209 
L 532.224 308.635084 
L 535.392 306.430228 
L 538.56 306.322671 
L 541.728 301.590463 
L 544.896 310.140696 
L 548.064 309.065275 
L 551.232 299.063754 
L 554.4 303.149819 
L 557.568 305.085767 
L 560.736 308.527535 
L 563.904 312.721239 
L 567.072 308.043555 
L 570.24 307.667119 
L 573.408 307.667119 
L 576.576 298.795005 
L 579.744 308.204883 
L 582.912 300.085095 
L 586.08 303.364916 
L 589.248 305.515993 
L 592.416 306.914233 
L 595.584 300.138854 
L 598.752 302.020611 
L 601.92 301.590463 
L 605.088 305.892443 
L 608.256 305.784886 
L 611.424 299.440021 
L 614.592 307.129345 
L 617.76 305.838664 
L 620.928 310.785901 
L 624.096 309.87185 
L 627.264 302.397003 
L 630.432 305.838664 
L 633.6 305.677329 
L 636.768 309.764309 
L 639.936 296.591718 
L 643.104 310.67837 
L 646.272 306.268893 
L 649.44 305.139545 
L 652.608 308.742633 
L 655.776 294.174609 
L 658.944 299.54753 
L 662.112 306.914233 
L 665.28 301.913073 
L 668.448 304.978211 
L 671.616 306.914233 
L 674.784 307.720896 
L 677.952 304.924433 
L 681.12 298.25754 
L 684.288 304.655545 
L 687.456 307.45201 
L 690.624 307.989779 
L 693.792 309.979389 
L 696.96 308.204883 
L 700.128 301.644231 
L 703.296 308.850181 
L 706.464 301.482929 
L 709.632 304.171551 
L 712.8 307.828449 
L 715.968 312.183692 
L 719.136 307.828449 
L 722.304 308.204883 
L 725.472 306.161336 
L 728.64 304.440435 
L 731.808 307.828449 
L 734.976 305.139545 
L 738.144 305.731107 
L 741.312 308.47376 
L 744.48 303.687566 
L 747.648 305.247102 
L 750.816 304.386658 
L 753.984 308.097331 
L 757.152 309.602997 
L 760.32 298.25754 
L 763.488 304.601767 
L 766.656 304.7631 
L 769.824 303.848893 
L 772.992 307.129345 
L 776.16 306.645342 
L 779.328 310.302001 
L 782.496 312.34496 
L 788.832 304.279104 
L 788.832 304.279104 
" clip-path="url(#pfd45eece66)" style="fill: none; stroke: #000000; stroke-width: 1.5; stroke-linecap: square"/>
   </g>
   <g id="line2d_2">
    <path d="M 0 306 
L 3.168 306 
L 6.336 308.832257 
L 9.504 309.610679 
L 12.672 309.721293 
L 15.84 305.052806 
L 19.008 305.370023 
L 22.176 306.500521 
L 25.344 304.089726 
L 28.512 307.663323 
L 31.68 306.95831 
L 34.848 306.416942 
L 38.016 305.742074 
L 41.184 303.317046 
L 44.352 308.492317 
L 47.52 309.861306 
L 50.688 309.882604 
L 53.856 304.988756 
L 57.024 305.547839 
L 60.192 301.67122 
L 63.36 299.950806 
L 69.696 310.726443 
L 72.864 307.57032 
L 76.032 303.24134 
L 79.2 305.360985 
L 82.368 308.784598 
L 85.536 303.278244 
L 88.704 304.870234 
L 91.872 304.23777 
L 95.04 307.582763 
L 98.208 310.00659 
L 101.376 303.914057 
L 104.544 308.220488 
L 107.712 307.152121 
L 110.88 307.644975 
L 114.048 303.312407 
L 117.216 304.093944 
L 120.384 304.065474 
L 123.552 305.560071 
L 126.72 305.715079 
L 129.888 305.385871 
L 133.056 310.254559 
L 139.392 305.779613 
L 142.56 305.433111 
L 145.728 304.289649 
L 148.896 304.116931 
L 152.064 305.841617 
L 155.232 306.192548 
L 158.4 305.511565 
L 161.568 308.320448 
L 164.736 308.649846 
L 167.904 306.624885 
L 171.072 307.26284 
L 174.24 310.414386 
L 177.408 311.065267 
L 180.576 307.640968 
L 183.744 309.468041 
L 186.912 307.886022 
L 190.08 304.993606 
L 193.248 302.287353 
L 196.416 304.787774 
L 199.584 309.212255 
L 202.752 306.029315 
L 209.088 311.693965 
L 212.256 305.283376 
L 215.424 310.103164 
L 218.592 305.688717 
L 221.76 305.67986 
L 224.928 301.344191 
L 228.096 308.995897 
L 231.264 308.242842 
L 234.432 308.103447 
L 237.6 305.472971 
L 240.768 308.148576 
L 243.936 308.055365 
L 247.104 303.600049 
L 250.272 306.329209 
L 253.44 301.824934 
L 256.608 309.955983 
L 259.776 325.870698 
L 262.944 312.661162 
L 266.112 308.214794 
L 269.28 305.969842 
L 272.448 305.377435 
L 275.616 303.010429 
L 278.784 302.821485 
L 281.952 305.925765 
L 285.12 305.40696 
L 288.288 304.20466 
L 291.456 306.564358 
L 294.624 306.07065 
L 297.792 305.389878 
L 300.96 307.460024 
L 304.128 308.518256 
L 307.296 309.331608 
L 310.464 308.34259 
L 313.632 308.068018 
L 316.8 304.625809 
L 319.968 306.60949 
L 323.136 306.118313 
L 326.304 304.027725 
L 329.472 306.545588 
L 332.64 307.992309 
L 335.808 303.835186 
L 342.144 307.828449 
L 345.312 307.395069 
L 348.48 307.346142 
L 351.648 306.788961 
L 354.816 308.1161 
L 357.984 305.080706 
L 361.152 304.121992 
L 364.32 304.598604 
L 367.488 305.669737 
L 370.656 306.885762 
L 373.824 306.872265 
L 376.992 307.434506 
L 380.16 304.712907 
L 383.328 306.632899 
L 386.496 302.46195 
L 389.664 303.962772 
L 392.832 303.765172 
L 396 305.202392 
L 399.168 305.923445 
L 402.336 307.334543 
L 405.504 304.488518 
L 408.672 302.593954 
L 411.84 304.986858 
L 415.008 305.737434 
L 418.176 306.84527 
L 421.344 304.288805 
L 424.512 306.033954 
L 427.68 307.010401 
L 430.848 306.486748 
L 434.016 306.523655 
L 437.184 303.289842 
L 440.352 304.967877 
L 443.52 303.563566 
L 446.688 304.844083 
L 449.856 304.932658 
L 453.024 305.759367 
L 456.192 298.565681 
L 459.36 304.089726 
L 462.528 307.72891 
L 465.696 307.673024 
L 468.864 307.761808 
L 472.032 306.340808 
L 475.2 309.897364 
L 478.368 308.433481 
L 484.704 308.653642 
L 487.872 305.777715 
L 491.04 307.775305 
L 494.208 307.208008 
L 497.376 305.121408 
L 500.544 304.601345 
L 503.712 304.219001 
L 506.88 303.403929 
L 510.048 310.877829 
L 513.216 308.84997 
L 516.384 309.226172 
L 519.552 307.584872 
L 522.72 306.798241 
L 529.056 309.849709 
L 532.224 309.119259 
L 535.392 308.858195 
L 538.56 307.643499 
L 541.728 306.976657 
L 544.896 304.274886 
L 548.064 307.216022 
L 551.232 308.139086 
L 554.4 303.576852 
L 557.568 303.353106 
L 560.736 304.212463 
L 563.904 306.37413 
L 567.072 309.560613 
L 570.24 308.814754 
L 573.408 308.236094 
L 576.576 307.948866 
L 579.744 303.37082 
L 582.912 305.79775 
L 586.08 302.931351 
L 589.248 303.13801 
L 592.416 304.312847 
L 595.584 305.611318 
L 598.752 302.860075 
L 605.088 302.015339 
L 608.256 303.949275 
L 611.424 304.878248 
L 614.592 302.151134 
L 617.76 304.643313 
L 620.928 305.238877 
L 624.096 308.033432 
L 627.264 308.968062 
L 630.432 305.684077 
L 633.6 305.761265 
L 636.768 305.719086 
L 639.936 307.762019 
L 643.104 302.15493 
L 646.272 306.426221 
L 649.44 306.338699 
L 652.608 305.729842 
L 655.776 307.24871 
L 658.944 300.686369 
L 662.112 300.104912 
L 665.28 303.503676 
L 668.448 302.71879 
L 671.616 303.837294 
L 674.784 305.377013 
L 677.952 306.554024 
L 681.12 305.73174 
L 684.288 302.002055 
L 687.456 303.338767 
L 690.624 305.396416 
L 693.792 306.705025 
L 696.96 308.35208 
L 700.128 308.281012 
L 703.296 304.950584 
L 706.464 306.908117 
L 709.632 304.201708 
L 712.8 304.18568 
L 715.968 306.007803 
L 719.136 309.104287 
L 722.304 308.462161 
L 725.472 308.333522 
L 728.64 307.256302 
L 731.808 305.839719 
L 734.976 306.846536 
L 738.144 305.994938 
L 741.312 305.85891 
L 744.48 307.159081 
L 747.648 305.415185 
L 750.816 305.325344 
L 753.984 304.852519 
L 760.32 308.046085 
L 763.488 303.137588 
L 766.656 303.867451 
L 769.824 304.307996 
L 772.992 304.07876 
L 776.16 305.607733 
L 779.328 306.130967 
L 785.664 310.288507 
L 788.832 309.347213 
L 788.832 309.347213 
" clip-path="url(#pfd45eece66)" style="fill: none; stroke: #000000; stroke-width: 1.5; stroke-linecap: square"/>
   </g>
   <g id="line2d_3">
    <path d="M 0 306 
L 3.168 306 
L 6.336 308.488662 
L 9.504 309.261556 
L 12.672 309.478895 
L 15.84 306.346997 
L 19.008 306.122835 
L 22.176 306.601727 
L 25.344 305.069622 
L 28.512 306.953247 
L 34.848 306.490588 
L 38.016 306.072594 
L 41.184 304.538007 
L 44.352 307.223879 
L 47.52 308.399748 
L 50.688 308.832622 
L 53.856 306.279391 
L 57.024 306.224305 
L 60.192 303.750232 
L 63.36 302.127873 
L 66.528 304.706966 
L 69.696 308.027267 
L 72.864 306.973078 
L 76.032 304.621501 
L 79.2 305.446211 
L 82.368 307.426604 
L 85.536 304.589491 
L 88.704 305.13017 
L 91.872 304.695034 
L 98.208 308.245748 
L 101.376 305.179969 
L 104.544 307.340264 
L 107.712 306.979215 
L 110.88 307.318506 
L 114.048 304.885521 
L 117.216 304.874249 
L 120.384 304.623217 
L 123.552 305.344516 
L 126.72 305.497155 
L 129.888 305.373944 
L 133.056 308.22259 
L 136.224 307.549447 
L 139.392 306.351922 
L 142.56 305.982741 
L 145.728 305.144019 
L 148.896 304.786484 
L 152.064 305.609881 
L 155.232 305.874801 
L 158.4 305.579272 
L 161.568 307.202334 
L 164.736 307.727917 
L 167.904 306.811989 
L 171.072 307.129843 
L 174.24 309.011431 
L 177.408 309.805654 
L 180.576 308.170323 
L 183.744 309.073821 
L 186.912 308.268554 
L 190.08 306.468496 
L 193.248 304.450576 
L 196.416 305.287173 
L 199.584 307.743749 
L 202.752 306.314076 
L 205.92 307.866012 
L 209.088 309.834872 
L 212.256 306.618602 
L 215.424 309.04309 
L 218.592 306.761908 
L 221.76 306.44171 
L 224.928 303.678751 
L 228.096 307.467228 
L 231.264 307.48229 
L 234.432 307.627163 
L 237.6 306.217243 
L 240.768 307.58123 
L 243.936 307.694715 
L 247.104 305.188607 
L 250.272 306.303022 
L 253.44 303.687792 
L 256.608 307.900687 
L 259.776 317.828217 
L 262.944 312.445978 
L 266.112 309.899927 
L 269.28 308.099065 
L 272.448 307.120949 
L 275.616 305.237389 
L 278.784 304.452367 
L 281.952 305.805269 
L 285.12 305.575383 
L 288.288 304.817864 
L 291.456 306.01245 
L 294.624 305.880075 
L 297.792 305.54353 
L 300.96 306.701621 
L 307.296 308.299516 
L 310.464 307.98032 
L 313.632 307.929661 
L 316.8 305.959657 
L 319.968 306.733097 
L 323.136 306.409108 
L 326.304 305.109415 
L 329.472 306.2755 
L 332.64 307.203322 
L 335.808 305.001859 
L 338.976 305.819498 
L 342.144 306.99176 
L 348.48 307.078493 
L 351.648 306.821849 
L 354.816 307.589086 
L 357.984 305.964548 
L 361.152 305.135293 
L 364.32 305.117699 
L 367.488 305.602999 
L 370.656 306.333025 
L 373.824 306.488927 
L 376.992 306.93544 
L 380.16 305.487765 
L 383.328 306.377059 
L 386.496 304.012596 
L 389.664 304.434517 
L 392.832 304.177071 
L 396 304.89963 
L 399.168 305.410194 
L 402.336 306.389167 
L 405.504 304.990368 
L 408.672 303.740942 
L 411.84 304.801184 
L 415.008 305.295675 
L 418.176 306.070374 
L 421.344 304.798121 
L 424.512 305.670984 
L 427.68 306.350151 
L 430.848 306.236352 
L 434.016 306.322355 
L 437.184 304.497338 
L 440.352 305.127827 
L 443.52 304.263344 
L 446.688 304.802877 
L 449.856 304.868129 
L 453.024 305.370438 
L 456.192 301.274848 
L 459.36 303.724124 
L 462.528 305.95464 
L 468.864 306.847795 
L 472.032 306.2881 
L 475.2 308.383845 
L 478.368 307.967991 
L 484.704 308.331208 
L 487.872 306.753889 
L 491.04 307.639244 
L 494.208 307.353266 
L 497.376 306.087064 
L 506.88 304.327392 
L 510.048 308.434296 
L 513.216 307.952399 
L 516.384 308.438149 
L 519.552 307.706137 
L 522.72 307.207663 
L 525.888 307.983945 
L 529.056 308.967177 
L 532.224 308.790975 
L 535.392 308.74513 
L 538.56 308.071147 
L 541.728 307.555086 
L 544.896 305.802202 
L 548.064 307.081141 
L 551.232 307.66798 
L 554.4 305.142029 
L 557.568 304.559127 
L 560.736 304.69818 
L 563.904 305.82176 
L 567.072 307.846448 
L 570.24 307.906588 
L 576.576 307.785675 
L 579.744 305.137603 
L 582.912 306.035813 
L 586.08 304.282869 
L 589.248 304.010482 
L 592.416 304.450503 
L 595.584 305.178221 
L 598.752 303.690568 
L 605.088 302.726751 
L 608.256 303.657068 
L 611.424 304.28108 
L 614.592 302.852531 
L 617.76 304.098704 
L 620.928 304.605787 
L 624.096 306.41959 
L 627.264 307.433316 
L 630.432 305.962312 
L 636.768 305.857736 
L 639.936 307.009347 
L 643.104 303.947005 
L 646.272 305.922985 
L 649.44 306.031341 
L 652.608 305.773722 
L 655.776 306.651532 
L 658.944 302.982033 
L 662.112 301.968809 
L 665.28 303.425772 
L 668.448 302.976705 
L 671.616 303.561926 
L 677.952 305.46871 
L 681.12 305.312198 
L 684.288 303.236817 
L 687.456 303.65117 
L 690.624 304.761731 
L 693.792 305.720303 
L 696.96 306.96702 
L 700.128 307.33181 
L 703.296 305.661862 
L 706.464 306.595846 
L 709.632 305.106615 
L 712.8 304.838051 
L 715.968 305.714971 
L 719.136 307.621645 
L 725.472 307.8391 
L 728.64 307.34591 
L 731.808 306.494362 
L 734.976 306.896106 
L 738.144 306.382178 
L 741.312 306.189508 
L 744.48 306.859119 
L 747.648 305.922954 
L 750.816 305.721604 
L 753.984 305.333754 
L 757.152 306.142331 
L 760.32 307.165307 
L 763.488 304.549019 
L 769.824 304.611501 
L 772.992 304.383565 
L 776.16 305.186543 
L 779.328 305.61437 
L 782.496 306.994158 
L 785.664 308.566769 
L 788.832 308.511733 
L 788.832 308.511733 
" clip-path="url(#pfd45eece66)" style="fill: none; stroke: #000000; stroke-width: 1.5; stroke-linecap: square"/>
   </g>
   <g id="line2d_4">
    <path d="M 0 306 
L 3.168 306 
L 6.336 308.307803 
L 9.504 309.048279 
L 12.672 309.29324 
L 15.84 306.927628 
L 19.008 306.619906 
L 22.176 306.844839 
L 25.344 305.75294 
L 28.512 306.853598 
L 34.848 306.582088 
L 38.016 306.310008 
L 41.184 305.346561 
L 44.352 306.793411 
L 47.52 307.553637 
L 50.688 307.947082 
L 53.856 306.635752 
L 57.024 306.547829 
L 60.192 305.106541 
L 63.36 303.981445 
L 66.528 305.110891 
L 69.696 306.882989 
L 72.864 306.487011 
L 76.032 305.269623 
L 79.2 305.621472 
L 82.368 306.677343 
L 85.536 305.247167 
L 88.704 305.436878 
L 91.872 305.148097 
L 98.208 307.086762 
L 101.376 305.607513 
L 104.544 306.709337 
L 107.712 306.611009 
L 110.88 306.846183 
L 114.048 305.592483 
L 117.216 305.480254 
L 120.384 305.253913 
L 123.552 305.543409 
L 126.72 305.592969 
L 129.888 305.508446 
L 133.056 307.038177 
L 136.224 306.855888 
L 139.392 306.316559 
L 142.56 306.123353 
L 145.728 305.643697 
L 148.896 305.370715 
L 152.064 305.717528 
L 155.232 305.852027 
L 158.4 305.695114 
L 161.568 306.564764 
L 164.736 306.952183 
L 167.904 306.574298 
L 171.072 306.77733 
L 174.24 307.857194 
L 177.408 308.476599 
L 180.576 307.798215 
L 183.744 308.350037 
L 186.912 308.03282 
L 190.08 307.090669 
L 193.248 305.89642 
L 196.416 306.115971 
L 199.584 307.313287 
L 202.752 306.611229 
L 205.92 307.403262 
L 209.088 308.545677 
L 212.256 307.005519 
L 215.424 308.267197 
L 218.592 307.1513 
L 221.76 306.917794 
L 224.928 305.345176 
L 228.096 307.141669 
L 234.432 307.322163 
L 237.6 306.605071 
L 240.768 307.283464 
L 243.936 307.389065 
L 247.104 306.078927 
L 250.272 306.548679 
L 253.44 305.086026 
L 256.608 307.15524 
L 259.776 312.674792 
L 262.944 310.562203 
L 266.112 309.482442 
L 269.28 308.568535 
L 272.448 307.961154 
L 275.616 306.794049 
L 278.784 306.122993 
L 281.952 306.594156 
L 285.12 306.341717 
L 288.288 305.806112 
L 291.456 306.303232 
L 294.624 306.19026 
L 297.792 305.953026 
L 304.128 307.001165 
L 307.296 307.499801 
L 313.632 307.524506 
L 316.8 306.511923 
L 319.968 306.845741 
L 323.136 306.651253 
L 326.304 305.908964 
L 332.64 306.890606 
L 335.808 305.742648 
L 338.976 306.06904 
L 342.144 306.664919 
L 351.648 306.713262 
L 354.816 307.154898 
L 357.984 306.336574 
L 361.152 305.805478 
L 364.32 305.694493 
L 367.488 305.864734 
L 370.656 306.222672 
L 373.824 306.325454 
L 376.992 306.594821 
L 380.16 305.866644 
L 383.328 306.289675 
L 386.496 305.015836 
L 389.664 305.0884 
L 392.832 304.845084 
L 399.168 305.374137 
L 402.336 305.909618 
L 408.672 304.504763 
L 411.84 304.956563 
L 415.008 305.198778 
L 418.176 305.638477 
L 421.344 305.015786 
L 427.68 305.862961 
L 434.016 305.978019 
L 437.184 305.040554 
L 440.352 305.295176 
L 443.52 304.795055 
L 446.688 305.00334 
L 449.856 305.006489 
L 453.024 305.258913 
L 456.192 303.046899 
L 462.528 305.249975 
L 468.864 305.978415 
L 472.032 305.808742 
L 475.2 307.02404 
L 478.368 307.014488 
L 484.704 307.50402 
L 487.872 306.779907 
L 491.04 307.257445 
L 494.208 307.16197 
L 497.376 306.504253 
L 506.88 305.258143 
L 510.048 307.346544 
L 513.216 307.260314 
L 516.384 307.635007 
L 522.72 307.150542 
L 525.888 307.584843 
L 529.056 308.181824 
L 535.392 308.281187 
L 541.728 307.725081 
L 544.896 306.748638 
L 548.064 307.290877 
L 551.232 307.575715 
L 554.4 306.216557 
L 557.568 305.73593 
L 560.736 305.629668 
L 563.904 306.088993 
L 567.072 307.147561 
L 573.408 307.351925 
L 576.576 307.398484 
L 579.744 306.024335 
L 582.912 306.371073 
L 586.08 305.365399 
L 589.248 305.047376 
L 592.416 305.119283 
L 595.584 305.405033 
L 598.752 304.565249 
L 605.088 303.748949 
L 611.424 304.353541 
L 614.592 303.567063 
L 617.76 304.132273 
L 620.928 304.403693 
L 624.096 305.422163 
L 627.264 306.130156 
L 630.432 305.530602 
L 636.768 305.591991 
L 639.936 306.257932 
L 643.104 304.713465 
L 646.272 305.668225 
L 649.44 305.761378 
L 652.608 305.659992 
L 655.776 306.156503 
L 658.944 304.243619 
L 662.112 303.492886 
L 665.28 304.036208 
L 668.448 303.691647 
L 671.616 303.894428 
L 677.952 304.906874 
L 681.12 304.913493 
L 684.288 303.848068 
L 687.456 303.979391 
L 693.792 305.085734 
L 696.96 305.866278 
L 700.128 306.243398 
L 703.296 305.511373 
L 706.464 306.047132 
L 709.632 305.318148 
L 712.8 305.134712 
L 715.968 305.568531 
L 719.136 306.624314 
L 725.472 307.036328 
L 728.64 306.894799 
L 731.808 306.505576 
L 734.976 306.717294 
L 738.144 306.465933 
L 741.312 306.346503 
L 744.48 306.69238 
L 747.648 306.209936 
L 750.816 306.056107 
L 753.984 305.79002 
L 757.152 306.156724 
L 760.32 306.714694 
L 763.488 305.368064 
L 772.992 304.958976 
L 776.16 305.304422 
L 779.328 305.517096 
L 782.496 306.281792 
L 785.664 307.255392 
L 788.832 307.434446 
L 788.832 307.434446 
" clip-path="url(#pfd45eece66)" style="fill: none; stroke: #000000; stroke-width: 1.5; stroke-linecap: square"/>
   </g>
   <g id="line2d_5">
    <path d="M 0 306 
L 3.168 306 
L 6.336 308.216183 
L 9.504 308.933528 
L 12.672 309.184185 
L 15.84 307.17576 
L 19.008 306.868992 
L 22.176 307.004844 
L 25.344 306.123907 
L 28.512 306.904454 
L 34.848 306.689036 
L 38.016 306.483196 
L 41.184 305.796405 
L 44.352 306.722407 
L 47.52 307.235196 
L 50.688 307.526988 
L 53.856 306.73135 
L 57.024 306.665797 
L 60.192 305.756885 
L 63.36 305.000651 
L 66.528 305.584387 
L 69.696 306.600053 
L 72.864 306.392523 
L 76.032 305.687057 
L 79.2 305.852506 
L 82.368 306.439767 
L 85.536 305.64363 
L 88.704 305.715244 
L 91.872 305.527251 
L 98.208 306.582055 
L 101.376 305.806861 
L 104.544 306.396771 
L 107.712 306.371436 
L 110.88 306.521934 
L 114.048 305.869542 
L 120.384 305.634945 
L 123.552 305.75873 
L 129.888 305.707492 
L 133.056 306.507095 
L 136.224 306.454822 
L 139.392 306.201701 
L 142.56 306.107167 
L 148.896 305.696584 
L 155.232 305.911265 
L 158.4 305.823748 
L 161.568 306.267749 
L 164.736 306.493508 
L 167.904 306.334894 
L 171.072 306.464522 
L 174.24 307.055879 
L 177.408 307.444395 
L 180.576 307.1753 
L 183.744 307.517408 
L 186.912 307.41765 
L 190.08 306.976193 
L 193.248 306.360914 
L 196.416 306.438441 
L 199.584 307.038408 
L 202.752 306.691996 
L 205.92 307.100574 
L 209.088 307.720298 
L 212.256 306.984689 
L 215.424 307.641058 
L 218.592 307.112279 
L 221.76 306.993185 
L 224.928 306.166402 
L 228.096 307.036727 
L 234.432 307.150979 
L 237.6 306.791117 
L 240.768 307.129033 
L 243.936 307.198302 
L 247.104 306.527292 
L 250.272 306.732761 
L 253.44 305.953741 
L 256.608 306.963208 
L 259.776 309.858351 
L 262.944 308.994205 
L 269.28 308.161912 
L 272.448 307.876175 
L 275.616 307.277372 
L 278.784 306.891355 
L 281.952 307.072314 
L 285.12 306.900648 
L 288.288 306.577647 
L 291.456 306.771532 
L 297.792 306.507462 
L 307.296 307.251013 
L 313.632 307.301851 
L 316.8 306.797283 
L 319.968 306.946561 
L 323.136 306.837265 
L 326.304 306.431359 
L 332.64 306.884063 
L 335.808 306.283468 
L 338.976 306.407846 
L 342.144 306.692962 
L 351.648 306.720476 
L 354.816 306.946948 
L 357.984 306.541076 
L 361.152 306.259049 
L 364.32 306.159711 
L 373.824 306.406846 
L 376.992 306.536422 
L 380.16 306.15846 
L 383.328 306.356488 
L 386.496 305.684416 
L 389.664 305.665694 
L 392.832 305.49306 
L 399.168 305.678285 
L 402.336 305.931027 
L 408.672 305.169155 
L 418.176 305.648713 
L 421.344 305.325418 
L 427.68 305.737138 
L 434.016 305.816008 
L 437.184 305.337733 
L 440.352 305.447501 
L 443.52 305.173638 
L 453.024 305.34618 
L 456.192 304.188939 
L 462.528 305.180765 
L 468.864 305.589404 
L 472.032 305.534599 
L 475.2 306.191993 
L 478.368 306.258447 
L 484.704 306.64347 
L 487.872 306.334969 
L 491.04 306.621811 
L 494.208 306.623029 
L 497.376 306.325011 
L 506.88 305.670236 
L 510.048 306.722383 
L 513.216 306.729204 
L 516.384 306.968324 
L 522.72 306.810741 
L 532.224 307.500711 
L 535.392 307.594599 
L 541.728 307.401953 
L 544.896 306.916926 
L 548.064 307.185536 
L 551.232 307.34213 
L 554.4 306.652638 
L 557.568 306.359864 
L 560.736 306.255099 
L 563.904 306.445457 
L 567.072 306.968894 
L 576.576 307.155475 
L 579.744 306.458491 
L 582.912 306.60545 
L 586.08 306.061478 
L 589.248 305.839314 
L 592.416 305.812498 
L 595.584 305.905023 
L 598.752 305.424277 
L 605.088 304.843295 
L 611.424 305.004204 
L 614.592 304.539751 
L 617.76 304.754884 
L 620.928 304.84415 
L 624.096 305.34026 
L 627.264 305.717063 
L 630.432 305.439677 
L 636.768 305.489455 
L 639.936 305.847417 
L 643.104 305.075715 
L 646.272 305.543506 
L 655.776 305.829684 
L 658.944 304.862768 
L 662.112 304.418282 
L 665.28 304.623997 
L 668.448 304.397132 
L 671.616 304.444431 
L 677.952 304.903069 
L 681.12 304.904177 
L 684.288 304.349064 
L 687.456 304.373153 
L 693.792 304.908408 
L 696.96 305.33038 
L 700.128 305.570635 
L 703.296 305.243931 
L 706.464 305.544869 
L 709.632 305.207351 
L 712.8 305.116779 
L 715.968 305.34217 
L 719.136 305.910898 
L 725.472 306.248514 
L 728.64 306.240071 
L 731.808 306.088467 
L 734.976 306.232705 
L 741.312 306.106605 
L 744.48 306.303774 
L 747.648 306.087319 
L 753.984 305.879239 
L 760.32 306.361923 
L 763.488 305.686932 
L 772.992 305.383518 
L 779.328 305.620622 
L 782.496 306.012927 
L 785.664 306.539882 
L 788.832 306.694159 
L 788.832 306.694159 
" clip-path="url(#pfd45eece66)" style="fill: none; stroke: #000000; stroke-width: 1.5; stroke-linecap: square"/>
   </g>
   <g id="line2d_6">
    <path d="M 0 306 
L 3.168 306 
L 6.336 308.170223 
L 9.504 308.874434 
L 12.672 309.125895 
L 15.84 307.286475 
L 19.008 306.988425 
L 22.176 307.08971 
L 25.344 306.309214 
L 28.512 306.953595 
L 34.848 306.76158 
L 38.016 306.586322 
L 41.184 306.025575 
L 44.352 306.735157 
L 47.52 307.132747 
L 50.688 307.365018 
L 53.856 306.777156 
L 57.024 306.72473 
L 63.36 305.481794 
L 66.528 305.865895 
L 69.696 306.565339 
L 72.864 306.42252 
L 76.032 305.932769 
L 79.2 306.03015 
L 82.368 306.416254 
L 85.536 305.884748 
L 88.704 305.917659 
L 91.872 305.782289 
L 98.208 306.445764 
L 101.376 305.958479 
L 104.544 306.323513 
L 110.88 306.408638 
L 114.048 306.0114 
L 123.552 305.915377 
L 129.888 305.869288 
L 133.056 306.335775 
L 136.224 306.313525 
L 145.728 305.972618 
L 148.896 305.874304 
L 155.232 305.983983 
L 158.4 305.93067 
L 161.568 306.177283 
L 164.736 306.309015 
L 167.904 306.228532 
L 171.072 306.306123 
L 177.408 306.878676 
L 180.576 306.75578 
L 183.744 306.964061 
L 186.912 306.93458 
L 193.248 306.389709 
L 196.416 306.430701 
L 199.584 306.757536 
L 202.752 306.582221 
L 205.92 306.808183 
L 209.088 307.156397 
L 212.256 306.786085 
L 215.424 307.147979 
L 218.592 306.885456 
L 221.76 306.831642 
L 224.928 306.397881 
L 228.096 306.850165 
L 234.432 306.928265 
L 237.6 306.747368 
L 240.768 306.927581 
L 243.936 306.971913 
L 247.104 306.629475 
L 250.272 306.733876 
L 253.44 306.325186 
L 256.608 306.837455 
L 259.776 308.359464 
L 262.944 307.970613 
L 278.784 306.994697 
L 281.952 307.084383 
L 291.456 306.912247 
L 297.792 306.761783 
L 310.464 307.139239 
L 313.632 307.166554 
L 316.8 306.910815 
L 319.968 306.982543 
L 323.136 306.924224 
L 326.304 306.711585 
L 332.64 306.925159 
L 335.808 306.616041 
L 354.816 306.914954 
L 361.152 306.55622 
L 367.488 306.50452 
L 376.992 306.644676 
L 380.16 306.447533 
L 383.328 306.53619 
L 386.496 306.185637 
L 399.168 306.095169 
L 402.336 306.207876 
L 408.672 305.788724 
L 418.176 305.967128 
L 421.344 305.788578 
L 430.848 305.962932 
L 434.016 305.986526 
L 437.184 305.735265 
L 440.352 305.773974 
L 443.52 305.621192 
L 453.024 305.655977 
L 456.192 305.049609 
L 465.696 305.593973 
L 468.864 305.6903 
L 472.032 305.656837 
L 475.2 305.985602 
L 481.536 306.135253 
L 484.704 306.248304 
L 487.872 306.106277 
L 491.04 306.263367 
L 494.208 306.279598 
L 506.88 305.819146 
L 510.048 306.349907 
L 513.216 306.369389 
L 516.384 306.50674 
L 522.72 306.463792 
L 535.392 306.951421 
L 541.728 306.902297 
L 544.896 306.676768 
L 551.232 306.920467 
L 554.4 306.586506 
L 560.736 306.382406 
L 563.904 306.473963 
L 567.072 306.73914 
L 576.576 306.867186 
L 579.744 306.522447 
L 582.912 306.593197 
L 586.08 306.316556 
L 592.416 306.161385 
L 595.584 306.194099 
L 601.92 305.770489 
L 605.088 305.591254 
L 611.424 305.611206 
L 614.592 305.347013 
L 624.096 305.668273 
L 627.264 305.847197 
L 630.432 305.701798 
L 636.768 305.704301 
L 639.936 305.876735 
L 643.104 305.481918 
L 646.272 305.702219 
L 655.776 305.830964 
L 658.944 305.335988 
L 662.112 305.087461 
L 665.28 305.159125 
L 668.448 305.021905 
L 674.784 305.101075 
L 677.952 305.212639 
L 681.12 305.201126 
L 684.288 304.90595 
L 687.456 304.8946 
L 693.792 305.130871 
L 700.128 305.458664 
L 703.296 305.296423 
L 706.464 305.446986 
L 709.632 305.277569 
L 712.8 305.229684 
L 715.968 305.339944 
L 719.136 305.630865 
L 728.64 305.844336 
L 731.808 305.785226 
L 734.976 305.871647 
L 741.312 305.836282 
L 744.48 305.948221 
L 753.984 305.763967 
L 760.32 306.021797 
L 763.488 305.691914 
L 776.16 305.600872 
L 779.328 305.645119 
L 788.832 306.215562 
L 788.832 306.215562 
" clip-path="url(#pfd45eece66)" style="fill: none; stroke: #000000; stroke-width: 1.5; stroke-linecap: square"/>
   </g>
   <g id="line2d_7">
    <path d="M 0 306 
L 3.168 306 
L 6.336 308.147223 
L 9.504 308.844502 
L 12.672 309.095867 
L 15.84 307.338221 
L 19.008 307.046205 
L 22.176 307.132584 
L 25.344 306.400625 
L 28.512 306.98324 
L 38.016 306.641645 
L 41.184 306.139548 
L 44.352 306.753665 
L 47.52 307.098386 
L 50.688 307.301303 
L 53.856 306.803031 
L 57.024 306.756875 
L 63.36 305.706091 
L 66.528 306.010252 
L 69.696 306.575105 
L 72.864 306.458529 
L 76.032 306.061918 
L 79.2 306.133155 
L 82.368 306.434285 
L 85.536 306.015102 
L 88.704 306.034663 
L 91.872 305.924364 
L 98.208 306.42346 
L 101.376 306.054994 
L 104.544 306.325708 
L 110.88 306.388532 
L 114.048 306.096504 
L 126.72 306.007959 
L 129.888 305.974384 
L 133.056 306.301311 
L 142.56 306.150751 
L 148.896 305.978609 
L 155.232 306.047617 
L 158.4 306.009488 
L 164.736 306.261203 
L 171.072 306.261115 
L 177.408 306.643859 
L 180.576 306.570771 
L 183.744 306.711551 
L 186.912 306.7 
L 196.416 306.3887 
L 199.584 306.597298 
L 202.752 306.491117 
L 209.088 306.858828 
L 212.256 306.636146 
L 215.424 306.865154 
L 218.592 306.710517 
L 221.76 306.682151 
L 224.928 306.419904 
L 228.096 306.695954 
L 234.432 306.751928 
L 237.6 306.647194 
L 243.936 306.789593 
L 247.104 306.589361 
L 250.272 306.652707 
L 253.44 306.411748 
L 256.608 306.713201 
L 259.776 307.615885 
L 262.944 307.405889 
L 281.952 306.940654 
L 297.792 306.764529 
L 313.632 307.005416 
L 316.8 306.865245 
L 323.136 306.87578 
L 326.304 306.757928 
L 332.64 306.875963 
L 335.808 306.705177 
L 354.816 306.866859 
L 364.32 306.633042 
L 383.328 306.640978 
L 386.496 306.448776 
L 430.848 306.230407 
L 434.016 306.237351 
L 437.184 306.098518 
L 443.52 306.022386 
L 453.024 306.01524 
L 456.192 305.688168 
L 468.864 305.980504 
L 472.032 305.95694 
L 475.2 306.123347 
L 497.376 306.196029 
L 506.88 306.021926 
L 510.048 306.293657 
L 525.888 306.437531 
L 532.224 306.585204 
L 541.728 306.619231 
L 544.896 306.508807 
L 551.232 306.642843 
L 557.568 306.403762 
L 563.904 306.422021 
L 570.24 306.592327 
L 576.576 306.638797 
L 579.744 306.467439 
L 582.912 306.505375 
L 589.248 306.299781 
L 598.752 306.162258 
L 608.256 305.972654 
L 611.424 305.968568 
L 614.592 305.826528 
L 639.936 306.04094 
L 643.104 305.835874 
L 649.44 305.948024 
L 655.776 305.991446 
L 658.944 305.735279 
L 662.112 305.601218 
L 668.448 305.549177 
L 693.792 305.521001 
L 700.128 305.673272 
L 703.296 305.586222 
L 706.464 305.656727 
L 712.8 305.536456 
L 738.144 305.83177 
L 769.824 305.714826 
L 776.16 305.705966 
L 782.496 305.824717 
L 788.832 306.01679 
L 788.832 306.01679 
" clip-path="url(#pfd45eece66)" style="fill: none; stroke: #000000; stroke-width: 1.5; stroke-linecap: square"/>
   </g>
   <g id="line2d_8">
    <path d="M 0 306 
L 3.168 306 
L 6.336 308.135722 
L 9.504 308.829446 
L 12.672 309.08064 
L 15.84 307.363164 
L 19.008 307.074532 
L 22.176 307.154029 
L 25.344 306.445862 
L 28.512 306.999184 
L 38.016 306.670134 
L 41.184 306.196131 
L 44.352 306.765807 
L 47.52 307.085538 
L 50.688 307.274194 
L 53.856 306.817082 
L 57.024 306.773931 
L 63.36 305.813194 
L 66.528 306.082225 
L 69.696 306.586279 
L 72.864 306.481448 
L 76.032 306.127247 
L 79.2 306.187409 
L 82.368 306.450637 
L 85.536 306.081918 
L 88.704 306.096261 
L 91.872 305.997848 
L 98.208 306.424593 
L 101.376 306.108343 
L 104.544 306.337714 
L 110.88 306.39002 
L 114.048 306.14376 
L 129.888 306.033194 
L 133.056 306.300092 
L 142.56 306.176933 
L 148.896 306.036111 
L 174.24 306.42925 
L 177.408 306.554115 
L 180.576 306.499654 
L 183.744 306.60983 
L 190.08 306.502396 
L 193.248 306.348621 
L 196.416 306.369371 
L 199.584 306.527658 
L 202.752 306.449091 
L 209.088 306.727298 
L 212.256 306.563917 
L 215.424 306.735655 
L 224.928 306.413186 
L 228.096 306.61572 
L 243.936 306.6914 
L 247.104 306.549347 
L 250.272 306.595477 
L 253.44 306.424478 
L 256.608 306.638816 
L 259.776 307.280672 
L 266.112 307.077944 
L 288.288 306.735215 
L 294.624 306.751846 
L 300.96 306.763969 
L 313.632 306.888204 
L 316.8 306.795791 
L 323.136 306.805361 
L 326.304 306.727828 
L 332.64 306.807535 
L 335.808 306.69552 
L 357.984 306.732628 
L 367.488 306.6556 
L 376.992 306.699433 
L 389.664 306.51977 
L 399.168 306.481762 
L 405.504 306.444401 
L 411.84 306.376619 
L 440.352 306.291675 
L 449.856 306.216717 
L 453.024 306.221845 
L 456.192 306.02004 
L 481.536 306.302415 
L 494.208 306.340547 
L 506.88 306.189263 
L 510.048 306.347567 
L 529.056 306.492978 
L 541.728 306.539962 
L 548.064 306.523475 
L 551.232 306.555761 
L 557.568 306.418877 
L 563.904 306.428835 
L 570.24 306.527309 
L 576.576 306.555686 
L 579.744 306.458711 
L 586.08 306.400852 
L 620.928 306.09174 
L 627.264 306.194526 
L 636.768 306.138814 
L 639.936 306.182804 
L 643.104 306.066558 
L 649.44 306.124137 
L 658.944 305.999809 
L 665.28 305.934139 
L 674.784 305.887475 
L 681.12 305.897627 
L 687.456 305.792825 
L 709.632 305.847588 
L 715.968 305.851396 
L 725.472 305.974916 
L 766.656 305.905704 
L 782.496 305.943193 
L 788.832 306.04434 
L 788.832 306.04434 
" clip-path="url(#pfd45eece66)" style="fill: none; stroke: #000000; stroke-width: 1.5; stroke-linecap: square"/>
   </g>
   <g id="line2d_9">
    <path d="M 0 306 
L 3.168 306 
L 6.336 308.12997 
L 9.504 308.821896 
L 12.672 309.072975 
L 15.84 307.3754 
L 19.008 307.088546 
L 22.176 307.164741 
L 25.344 306.468345 
L 28.512 307.007416 
L 38.016 306.684568 
L 41.184 306.224289 
L 44.352 306.772572 
L 47.52 307.080194 
L 50.688 307.261859 
L 53.856 306.824422 
L 57.024 306.782737 
L 63.36 305.865386 
L 66.528 306.118025 
L 69.696 306.593341 
L 72.864 306.494054 
L 76.032 306.159979 
L 79.2 306.215088 
L 82.368 306.460559 
L 85.536 306.115592 
L 95.04 306.211931 
L 98.208 306.428171 
L 101.376 306.136169 
L 104.544 306.346425 
L 110.88 306.393762 
L 114.048 306.16859 
L 129.888 306.064036 
L 133.056 306.303617 
L 142.56 306.192729 
L 148.896 306.066242 
L 174.24 306.40864 
L 177.408 306.517893 
L 180.576 306.471273 
L 186.912 306.562593 
L 196.416 306.36218 
L 199.584 306.498092 
L 202.752 306.431394 
L 209.088 306.66957 
L 212.256 306.531696 
L 215.424 306.677941 
L 224.928 306.408035 
L 228.096 306.578418 
L 243.936 306.644649 
L 247.104 306.527481 
L 250.272 306.566026 
L 253.44 306.425158 
L 256.608 306.601909 
L 259.776 307.130674 
L 266.112 306.968341 
L 288.288 306.697044 
L 310.464 306.811689 
L 323.136 306.760558 
L 329.472 306.729664 
L 332.64 306.763438 
L 338.976 306.689682 
L 351.648 306.731242 
L 357.984 306.708101 
L 367.488 306.649181 
L 383.328 306.651718 
L 389.664 306.546361 
L 399.168 306.516473 
L 405.504 306.48776 
L 411.84 306.435716 
L 440.352 306.367225 
L 449.856 306.309507 
L 453.024 306.312333 
L 456.192 306.163865 
L 484.704 306.384294 
L 497.376 306.35475 
L 506.88 306.276027 
L 513.216 306.39165 
L 538.56 306.524141 
L 595.584 306.397482 
L 608.256 306.265695 
L 665.28 306.093388 
L 677.952 306.071567 
L 719.136 306.064506 
L 747.648 306.085233 
L 785.664 306.103309 
L 788.832 306.119817 
L 788.832 306.119817 
" clip-path="url(#pfd45eece66)" style="fill: none; stroke: #000000; stroke-width: 1.5; stroke-linecap: square"/>
   </g>
  </g>
 </g>
 <defs>
  <clipPath id="pfd45eece66">
   <rect x="0" y="0" width="792" height="612"/>
  </clipPath>
 </defs>
</svg>
