<?xml version="1.0" encoding="utf-8" standalone="no"?>
<!DOCTYPE svg PUBLIC "-//W3C//DTD SVG 1.1//EN"
  "http://www.w3.org/Graphics/SVG/1.1/DTD/svg11.dtd">
<svg xmlns:xlink="http://www.w3.org/1999/xlink" width="792pt" height="612pt" viewBox="0 0 792 612" xmlns="http://www.w3.org/2000/svg" version="1.1">
 <metadata>
  <rdf:RDF xmlns:dc="http://purl.org/dc/elements/1.1/" xmlns:cc="http://creativecommons.org/ns#" xmlns:rdf="http://www.w3.org/1999/02/22-rdf-syntax-ns#">
   <cc:Work>
    <dc:type rdf:resource="http://purl.org/dc/dcmitype/StillImage"/>
    <dc:date>2023-01-09T02:28:57.530448</dc:date>
    <dc:format>image/svg+xml</dc:format>
    <dc:creator>
     <cc:Agent>
      <dc:title>Matplotlib v3.6.2, https://matplotlib.org/</dc:title>
     </cc:Agent>
    </dc:creator>
   </cc:Work>
  </rdf:RDF>
 </metadata>
 <defs>
  <style type="text/css">*{stroke-linejoin: round; stroke-linecap: butt}</style>
 </defs>
 <g id="figure_1">
  <g id="patch_1">
   <path d="M 0 612 
L 792 612 
L 792 0 
L 0 0 
z
" style="fill: #ffffff"/>
  </g>
  <g id="axes_1">
   <g id="line2d_1">
    <path d="M 0 306 
L 12.774194 308.377992 
L 25.548387 308.377992 
L 38.322581 295.724597 
L 51.096774 309.145038 
L 63.870968 297.563933 
L 76.645161 302.241352 
L 89.419355 305.309603 
L 102.193548 307.304078 
L 114.967742 297.640586 
L 127.741935 300.32404 
L 140.516129 299.710588 
L 153.290323 305.846578 
L 166.064516 305.693156 
L 178.83871 296.64418 
L 191.612903 307.610915 
L 204.387097 305.769867 
L 217.16129 312.826142 
L 229.935484 311.522589 
L 242.709677 300.860849 
L 255.483871 305.769867 
L 268.258065 305.539735 
L 281.032258 311.369216 
L 293.806452 292.584189 
L 306.580645 312.672795 
L 319.354839 306.383555 
L 332.129032 304.772631 
L 344.903226 309.912046 
L 357.677419 289.14068 
L 370.451613 296.797461 
L 383.225806 307.304078 
L 396 300.170673 
L 408.774194 304.542503 
L 421.548387 307.304078 
L 434.322581 308.454698 
L 447.096774 304.465794 
L 459.870968 294.958418 
L 472.645161 304.082251 
L 485.419355 308.071164 
L 498.193548 308.838224 
L 510.967742 311.67596 
L 523.741935 309.145038 
L 536.516129 299.787267 
L 549.290323 310.065441 
L 562.064516 299.557232 
L 574.83871 303.391891 
L 587.612903 308.608109 
L 600.387097 314.819317 
L 613.16129 308.608109 
L 625.935484 309.145038 
L 638.709677 306.230133 
L 651.483871 303.775421 
L 664.258065 308.608109 
L 677.032258 304.772631 
L 689.806452 305.616445 
L 702.580645 309.528548 
L 715.354839 302.701557 
L 728.129032 304.926051 
L 740.903226 303.698715 
L 753.677419 308.991632 
L 766.451613 311.139151 
L 779.225806 294.958418 
" clip-path="url(#pd0679b6ed9)" style="fill: none; stroke: #000000; stroke-width: 1.5; stroke-linecap: square"/>
   </g>
   <g id="line2d_2">
    <path d="M 0 306 
L 12.774194 306 
L 25.548387 307.585346 
L 38.322581 308.03829 
L 51.096774 301.469271 
L 63.870968 305.430855 
L 76.645161 301.434211 
L 89.419355 301.840952 
L 102.193548 303.582001 
L 114.967742 305.445576 
L 127.741935 301.521303 
L 140.516129 300.906863 
L 153.290323 300.316522 
L 166.064516 303.074845 
L 178.83871 304.399914 
L 191.612903 300.510191 
L 204.387097 304.064804 
L 217.16129 304.914319 
L 229.935484 308.90049 
L 242.709677 310.233573 
L 255.483871 305.549361 
L 268.258065 305.659464 
L 281.032258 305.599298 
L 293.806452 308.513355 
L 306.580645 300.515604 
L 319.354839 306.607971 
L 332.129032 306.483128 
L 344.903226 305.61464 
L 357.677419 307.781178 
L 370.451613 298.421304 
L 383.225806 297.59219 
L 396 302.439268 
L 408.774194 301.319793 
L 421.548387 302.915121 
L 434.322581 305.111359 
L 447.096774 306.790271 
L 459.870968 305.617348 
L 472.645161 300.297577 
L 485.419355 302.204055 
L 498.193548 305.139035 
L 510.967742 307.005662 
L 523.741935 309.354992 
L 536.516129 309.253625 
L 549.290323 304.503095 
L 562.064516 307.295355 
L 574.83871 303.434906 
L 587.612903 303.412045 
L 600.387097 306.011131 
L 613.16129 310.427868 
L 625.935484 309.512004 
L 638.709677 309.328523 
L 651.483871 307.792008 
L 664.258065 305.771371 
L 677.032258 307.207514 
L 689.806452 305.99278 
L 702.580645 305.798747 
L 715.354839 307.653331 
L 728.129032 305.165808 
L 740.903226 305.037657 
L 753.677419 304.363214 
L 766.451613 306.68769 
L 779.225806 308.918538 
" clip-path="url(#pd0679b6ed9)" style="fill: none; stroke: #000000; stroke-width: 1.5; stroke-linecap: square"/>
   </g>
   <g id="line2d_3">
    <path d="M 0 306 
L 12.774194 306 
L 25.548387 307.393014 
L 38.322581 307.839294 
L 51.096774 303.106801 
L 63.870968 305.255121 
L 76.645161 302.680024 
L 89.419355 302.539081 
L 102.193548 303.404606 
L 114.967742 304.599513 
L 127.741935 302.495059 
L 140.516129 301.844767 
L 153.290323 301.209707 
L 166.064516 302.582854 
L 178.83871 303.500969 
L 191.612903 301.480936 
L 204.387097 303.28325 
L 217.16129 304.011277 
L 229.935484 306.598513 
L 242.709677 308.0445 
L 255.483871 305.94624 
L 268.258065 305.890705 
L 281.032258 305.797072 
L 293.806452 307.439751 
L 306.580645 303.071607 
L 319.354839 305.890145 
L 332.129032 306.044706 
L 344.903226 305.677232 
L 357.677419 306.929359 
L 370.451613 301.695248 
L 383.225806 300.250161 
L 396 302.328153 
L 408.774194 301.687649 
L 421.548387 302.522351 
L 434.322581 303.916472 
L 447.096774 305.242157 
L 459.870968 305.018905 
L 472.645161 302.058644 
L 485.419355 302.649643 
L 498.193548 304.233715 
L 510.967742 305.601034 
L 523.741935 307.379375 
L 536.516129 307.899712 
L 549.290323 305.517672 
L 562.064516 306.849927 
L 574.83871 304.725659 
L 587.612903 304.342577 
L 600.387097 305.593428 
L 613.16129 308.313129 
L 625.935484 308.404196 
L 638.709677 308.623302 
L 651.483871 307.919824 
L 664.258065 306.705169 
L 677.032258 307.278223 
L 689.806452 306.545148 
L 702.580645 306.270318 
L 715.354839 307.225464 
L 728.129032 305.8901 
L 740.903226 305.60289 
L 753.677419 305.049654 
L 766.451613 306.203024 
L 779.225806 307.662212 
" clip-path="url(#pd0679b6ed9)" style="fill: none; stroke: #000000; stroke-width: 1.5; stroke-linecap: square"/>
   </g>
   <g id="line2d_4">
    <path d="M 0 306 
L 12.774194 306 
L 25.548387 307.291776 
L 38.322581 307.718082 
L 51.096774 303.900485 
L 63.870968 305.340272 
L 76.645161 303.425892 
L 89.419355 303.157683 
L 102.193548 303.614171 
L 114.967742 304.357496 
L 127.741935 303.059001 
L 140.516129 302.547832 
L 153.290323 302.03187 
L 166.064516 302.710037 
L 178.83871 303.230652 
L 191.612903 302.098226 
L 204.387097 303.033707 
L 217.16129 303.493167 
L 229.935484 305.046881 
L 242.709677 306.117052 
L 255.483871 305.253717 
L 268.258065 305.338054 
L 281.032258 305.370867 
L 293.806452 306.343384 
L 306.580645 304.118131 
L 319.354839 305.497481 
L 332.129032 305.640033 
L 344.903226 305.500732 
L 357.677419 306.208148 
L 370.451613 303.472016 
L 383.225806 302.403844 
L 396 303.187069 
L 408.774194 302.705216 
L 421.548387 302.996613 
L 434.322581 303.68124 
L 447.096774 304.440747 
L 459.870968 304.450188 
L 472.645161 302.930488 
L 485.419355 303.117801 
L 498.193548 303.909502 
L 510.967742 304.695874 
L 523.741935 305.809256 
L 536.516129 306.347188 
L 549.290323 305.303011 
L 562.064516 306.06723 
L 574.83871 305.027393 
L 587.612903 304.765736 
L 600.387097 305.384544 
L 613.16129 306.890534 
L 625.935484 307.165584 
L 638.709677 307.478236 
L 651.483871 307.276358 
L 664.258065 306.721164 
L 677.032258 307.023162 
L 689.806452 306.664617 
L 702.580645 306.49426 
L 715.354839 306.987625 
L 728.129032 306.299457 
L 740.903226 306.080033 
L 753.677419 305.70048 
L 766.451613 306.223555 
L 779.225806 307.019453 
" clip-path="url(#pd0679b6ed9)" style="fill: none; stroke: #000000; stroke-width: 1.5; stroke-linecap: square"/>
   </g>
   <g id="line2d_5">
    <path d="M 0 306 
L 12.774194 306 
L 25.548387 307.240491 
L 38.322581 307.652948 
L 51.096774 304.271795 
L 63.870968 305.422212 
L 76.645161 303.813002 
L 89.419355 303.526149 
L 102.193548 303.822179 
L 114.967742 304.355839 
L 127.741935 303.393919 
L 140.516129 302.979213 
L 153.290323 302.559507 
L 166.064516 302.963175 
L 178.83871 303.285597 
L 191.612903 302.52754 
L 204.387097 303.09003 
L 217.16129 303.378587 
L 229.935484 304.371488 
L 242.709677 305.10679 
L 255.483871 304.678679 
L 268.258065 304.786763 
L 281.032258 304.860168 
L 293.806452 305.485704 
L 306.580645 304.261164 
L 319.354839 305.049765 
L 332.129032 305.173466 
L 344.903226 305.13665 
L 357.677419 305.571434 
L 370.451613 304.08595 
L 383.225806 303.432253 
L 396 303.777088 
L 408.774194 303.457776 
L 421.548387 303.553275 
L 434.322581 303.881832 
L 447.096774 304.28057 
L 459.870968 304.296654 
L 472.645161 303.488507 
L 485.419355 303.539687 
L 498.193548 303.929036 
L 510.967742 304.349616 
L 523.741935 304.975657 
L 536.516129 305.331044 
L 549.290323 304.859504 
L 562.064516 305.301355 
L 574.83871 304.814681 
L 587.612903 304.694356 
L 600.387097 305.024814 
L 613.16129 305.850824 
L 625.935484 306.083 
L 638.709677 306.340529 
L 651.483871 306.331255 
L 664.258065 306.116758 
L 677.032258 306.325652 
L 689.806452 306.195548 
L 702.580645 306.147072 
L 715.354839 306.429943 
L 728.129032 306.118259 
L 740.903226 306.018656 
L 753.677419 305.82494 
L 766.451613 306.08923 
L 779.225806 306.510527 
" clip-path="url(#pd0679b6ed9)" style="fill: none; stroke: #000000; stroke-width: 1.5; stroke-linecap: square"/>
   </g>
   <g id="line2d_6">
    <path d="M 0 306 
L 12.774194 306 
L 25.548387 307.214765 
L 38.322581 307.619426 
L 51.096774 304.448777 
L 63.870968 305.471133 
L 76.645161 304.006163 
L 89.419355 303.720119 
L 102.193548 303.950194 
L 114.967742 304.390585 
L 127.741935 303.576396 
L 140.516129 303.2126 
L 153.290323 302.846306 
L 166.064516 303.141691 
L 178.83871 303.379557 
L 191.612903 302.781786 
L 204.387097 303.191236 
L 217.16129 303.400984 
L 229.935484 304.138983 
L 242.709677 304.697082 
L 255.483871 304.416417 
L 268.258065 304.512472 
L 281.032258 304.583352 
L 293.806452 305.039472 
L 306.580645 304.222054 
L 319.354839 304.763786 
L 332.129032 304.865403 
L 344.903226 304.859699 
L 357.677419 305.164538 
L 370.451613 304.213793 
L 383.225806 303.781372 
L 396 303.983483 
L 408.774194 303.767921 
L 421.548387 303.811096 
L 434.322581 304.003229 
L 447.096774 304.245038 
L 459.870968 304.256888 
L 472.645161 303.763066 
L 485.419355 303.77983 
L 498.193548 304.002952 
L 510.967742 304.251969 
L 523.741935 304.630886 
L 536.516129 304.8593 
L 549.290323 304.604709 
L 562.064516 304.876659 
L 574.83871 304.613658 
L 587.612903 304.553683 
L 600.387097 304.751384 
L 613.16129 305.239322 
L 625.935484 305.401571 
L 638.709677 305.580834 
L 651.483871 305.611757 
L 664.258065 305.524756 
L 677.032258 305.670113 
L 689.806452 305.628004 
L 702.580645 305.627464 
L 715.354839 305.808901 
L 728.129032 305.664972 
L 740.903226 305.630881 
L 753.677419 305.542068 
L 766.451613 305.700065 
L 779.225806 305.948357 
" clip-path="url(#pd0679b6ed9)" style="fill: none; stroke: #000000; stroke-width: 1.5; stroke-linecap: square"/>
   </g>
   <g id="line2d_7">
    <path d="M 0 306 
L 12.774194 306 
L 25.548387 307.201891 
L 38.322581 307.602452 
L 51.096774 304.534846 
L 63.870968 305.497269 
L 76.645161 304.102074 
L 89.419355 303.818663 
L 102.193548 304.019457 
L 114.967742 304.416815 
L 127.741935 303.671063 
L 140.516129 303.332739 
L 153.290323 302.993604 
L 166.064516 303.24269 
L 178.83871 303.443411 
L 191.612903 302.918042 
L 204.387097 303.261348 
L 217.16129 303.435836 
L 229.935484 304.059084 
L 242.709677 304.533134 
L 255.483871 304.309295 
L 268.258065 304.394927 
L 281.032258 304.459639 
L 293.806452 304.837 
L 306.580645 304.188917 
L 319.354839 304.623726 
L 332.129032 304.711298 
L 344.903226 304.714266 
L 357.677419 304.959196 
L 370.451613 304.231719 
L 383.225806 303.898248 
L 396 304.04747 
L 408.774194 303.881305 
L 421.548387 303.909047 
L 434.322581 304.048622 
L 447.096774 304.226267 
L 459.870968 304.235746 
L 472.645161 303.874998 
L 485.419355 303.882915 
L 498.193548 304.040264 
L 510.967742 304.217658 
L 523.741935 304.489211 
L 536.516129 304.656216 
L 549.290323 304.484027 
L 562.064516 304.678675 
L 574.83871 304.502414 
L 587.612903 304.464688 
L 600.387097 304.603696 
L 613.16129 304.942391 
L 625.935484 305.062493 
L 638.709677 305.194754 
L 651.483871 305.227933 
L 664.258065 305.181875 
L 677.032258 305.28941 
L 689.806452 305.273351 
L 702.580645 305.283911 
L 715.354839 305.41335 
L 728.129032 305.331397 
L 740.903226 305.319254 
L 753.677419 305.271118 
L 766.451613 305.380724 
L 779.225806 305.549026 
" clip-path="url(#pd0679b6ed9)" style="fill: none; stroke: #000000; stroke-width: 1.5; stroke-linecap: square"/>
   </g>
   <g id="line2d_8">
    <path d="M 0 306 
L 12.774194 306 
L 25.548387 307.195452 
L 38.322581 307.593915 
L 51.096774 304.577246 
L 63.870968 305.510714 
L 76.645161 304.149788 
L 89.419355 303.868204 
L 102.193548 304.055278 
L 114.967742 304.432082 
L 127.741935 303.719169 
L 140.516129 303.3935 
L 153.290323 303.067935 
L 166.064516 303.295828 
L 178.83871 303.479372 
L 191.612903 302.988176 
L 204.387097 303.301135 
L 217.16129 303.459268 
L 229.935484 304.028972 
L 242.709677 304.46301 
L 255.483871 304.263753 
L 268.258065 304.343503 
L 281.032258 304.404281 
L 293.806452 304.74456 
L 306.580645 304.171892 
L 319.354839 304.557981 
L 332.129032 304.638108 
L 344.903226 304.643824 
L 357.677419 304.860771 
L 370.451613 304.231862 
L 383.225806 303.943084 
L 396 304.070028 
L 408.774194 303.926599 
L 421.548387 303.948676 
L 434.322581 304.066007 
L 447.096774 304.215846 
L 459.870968 304.224185 
L 472.645161 303.921737 
L 485.419355 303.926862 
L 498.193548 304.056437 
L 510.967742 304.202943 
L 523.741935 304.42746 
L 536.516129 304.566506 
L 549.290323 304.428208 
L 562.064516 304.588404 
L 574.83871 304.44789 
L 587.612903 304.418899 
L 600.387097 304.532018 
L 613.16129 304.805427 
L 625.935484 304.904899 
L 638.709677 305.014134 
L 651.483871 305.044998 
L 664.258065 305.013237 
L 677.032258 305.101904 
L 689.806452 305.093894 
L 702.580645 305.106436 
L 715.354839 305.21119 
L 728.129032 305.152497 
L 740.903226 305.147267 
L 753.677419 305.11422 
L 766.451613 305.201626 
L 779.225806 305.333923 
" clip-path="url(#pd0679b6ed9)" style="fill: none; stroke: #000000; stroke-width: 1.5; stroke-linecap: square"/>
   </g>
   <g id="line2d_9">
    <path d="M 0 306 
L 12.774194 306 
L 25.548387 307.192233 
L 38.322581 307.589634 
L 51.096774 304.598283 
L 63.870968 305.517525 
L 76.645161 304.173576 
L 89.419355 303.893027 
L 102.193548 304.073469 
L 114.967742 304.440242 
L 127.741935 303.743403 
L 140.516129 303.42403 
L 153.290323 303.105231 
L 166.064516 303.323012 
L 178.83871 303.498324 
L 191.612903 303.023698 
L 204.387097 303.322171 
L 217.16129 303.472468 
L 229.935484 304.01642 
L 242.709677 304.431051 
L 255.483871 304.243189 
L 268.258065 304.319891 
L 281.032258 304.378547 
L 293.806452 304.700955 
L 306.580645 304.16366 
L 319.354839 304.526636 
L 332.129032 304.602994 
L 344.903226 304.609729 
L 357.677419 304.81327 
L 370.451613 304.230248 
L 383.225806 303.962455 
L 396 304.07923 
L 408.774194 303.946541 
L 421.548387 303.966209 
L 434.322581 304.073403 
L 447.096774 304.210446 
L 459.870968 304.218232 
L 472.645161 303.942673 
L 485.419355 303.946726 
L 498.193548 304.063721 
L 510.967742 304.196116 
L 523.741935 304.399015 
L 536.516129 304.525011 
L 549.290323 304.401821 
L 562.064516 304.546094 
L 574.83871 304.421492 
L 587.612903 304.396274 
L 600.387097 304.4975 
L 613.16129 304.741087 
L 625.935484 304.830696 
L 638.709677 304.928926 
L 651.483871 304.958046 
L 664.258065 304.932021 
L 677.032258 305.011595 
L 689.806452 305.006505 
L 702.580645 305.019294 
L 715.354839 305.112392 
L 728.129032 305.063364 
L 740.903226 305.060613 
L 753.677419 305.033719 
L 766.451613 305.110772 
L 779.225806 305.226512 
" clip-path="url(#pd0679b6ed9)" style="fill: none; stroke: #000000; stroke-width: 1.5; stroke-linecap: square"/>
   </g>
  </g>
 </g>
 <defs>
  <clipPath id="pd0679b6ed9">
   <rect x="0" y="0" width="792" height="612"/>
  </clipPath>
 </defs>
</svg>
