<?xml version="1.0" encoding="utf-8" standalone="no"?>
<!DOCTYPE svg PUBLIC "-//W3C//DTD SVG 1.1//EN"
  "http://www.w3.org/Graphics/SVG/1.1/DTD/svg11.dtd">
<svg xmlns:xlink="http://www.w3.org/1999/xlink" width="792pt" height="612pt" viewBox="0 0 792 612" xmlns="http://www.w3.org/2000/svg" version="1.1">
 <metadata>
  <rdf:RDF xmlns:dc="http://purl.org/dc/elements/1.1/" xmlns:cc="http://creativecommons.org/ns#" xmlns:rdf="http://www.w3.org/1999/02/22-rdf-syntax-ns#">
   <cc:Work>
    <dc:type rdf:resource="http://purl.org/dc/dcmitype/StillImage"/>
    <dc:date>2022-12-26T20:27:01.400108</dc:date>
    <dc:format>image/svg+xml</dc:format>
    <dc:creator>
     <cc:Agent>
      <dc:title>Matplotlib v3.6.2, https://matplotlib.org/</dc:title>
     </cc:Agent>
    </dc:creator>
   </cc:Work>
  </rdf:RDF>
 </metadata>
 <defs>
  <style type="text/css">*{stroke-linejoin: round; stroke-linecap: butt}</style>
 </defs>
 <g id="figure_1">
  <g id="patch_1">
   <path d="M 0 612 
L 792 612 
L 792 0 
L 0 0 
z
" style="fill: #ffffff"/>
  </g>
  <g id="axes_1">
   <g id="line2d_1">
    <path d="M 0 459 
L 12.375 459.22622 
L 24.75 450.404652 
L 37.125 459.037703 
L 49.5 461.186792 
L 61.875 450.970016 
L 74.25 444.978735 
L 86.625 443.057918 
L 99 448.36957 
L 111.375 460.168802 
L 123.75 461.601528 
L 136.125 462.77033 
L 148.5 463.939133 
L 160.875 458.66067 
L 173.25 460.432725 
L 185.625 450.856941 
L 198 445.317756 
L 210.375 444.30074 
L 222.75 446.221883 
L 235.125 433.914621 
L 247.5 425.57872 
L 259.875 416.367688 
L 272.25 416.14343 
L 284.625 415.694976 
L 297 402.061179 
L 309.375 404.401416 
L 321.75 404.066917 
L 334.125 414.014024 
L 346.5 422.09291 
L 358.875 414.574208 
L 371.25 414.238081 
L 383.625 413.565974 
L 396 421.418719 
L 408.375 401.838453 
L 420.75 411.550842 
L 433.125 412.110419 
L 445.5 410.320277 
L 457.875 416.031309 
L 470.25 391.513649 
L 482.625 378.295204 
L 495 380.159989 
L 507.375 371.844976 
L 519.75 369.775227 
L 532.125 371.626933 
L 544.5 375.120468 
L 556.875 372.935802 
L 569.25 357.330996 
L 581.625 354.645683 
L 594 357.54614 
L 606.375 361.534671 
L 618.75 369.557577 
L 631.125 374.027637 
L 643.5 365.213465 
L 655.875 370.973049 
L 668.25 361.858752 
L 680.625 358.191854 
L 693 361.858752 
L 705.375 374.355382 
L 717.75 378.075997 
L 730.125 382.577218 
L 742.5 382.907182 
L 754.875 379.720972 
L 767.25 383.4573 
L 779.625 381.697714 
" clip-path="url(#p9a8e652cf1)" style="fill: none; stroke: #000000; stroke-width: 1.5; stroke-linecap: square"/>
   </g>
   <g id="line2d_2">
    <path d="M 0 459 
L 12.375 459 
L 24.75 459.150813 
L 37.125 454.281867 
L 49.5 456.858468 
L 61.875 459.783256 
L 74.25 456.077136 
L 86.625 450.483 
L 99 446.755099 
L 111.375 447.541465 
L 123.75 455.028389 
L 136.125 459.649532 
L 148.5 461.21725 
L 160.875 462.583588 
L 173.25 460.740266 
L 185.625 460.598472 
L 198 457.341062 
L 210.375 451.322106 
L 222.75 447.775082 
L 235.125 446.958111 
L 247.5 440.361314 
L 259.875 432.868848 
L 272.25 424.524392 
L 284.625 420.238619 
L 297 417.897141 
L 309.375 409.879989 
L 321.75 407.061105 
L 334.125 405.481394 
L 346.5 409.704601 
L 358.875 415.88402 
L 371.25 415.225508 
L 383.625 414.728008 
L 396 414.142744 
L 408.375 417.816181 
L 420.75 409.807201 
L 433.125 410.69354 
L 445.5 411.398135 
L 457.875 410.836108 
L 470.25 413.435089 
L 482.625 402.397064 
L 495 390.228747 
L 507.375 385.105101 
L 519.75 378.399233 
L 532.125 373.998508 
L 544.5 372.733816 
L 556.875 373.858444 
L 569.25 373.313763 
L 581.625 365.226216 
L 594 359.87605 
L 606.375 358.666489 
L 618.75 360.079476 
L 631.125 364.807619 
L 643.5 369.412926 
L 655.875 367.29182 
L 668.25 369.127093 
L 680.625 365.495735 
L 693 361.844346 
L 705.375 361.860023 
L 717.75 368.115316 
L 730.125 373.101868 
L 742.5 377.847374 
L 754.875 380.409692 
L 767.25 380.082505 
L 779.625 381.811499 
" clip-path="url(#p9a8e652cf1)" style="fill: none; stroke: #000000; stroke-width: 1.5; stroke-linecap: square"/>
   </g>
   <g id="line2d_3">
    <path d="M 0 459 
L 12.375 459 
L 24.75 459.132516 
L 37.125 455.322654 
L 49.5 456.802888 
L 61.875 459.30623 
L 74.25 456.922994 
L 86.625 453.084319 
L 99 449.95082 
L 111.375 449.466244 
L 123.75 453.408145 
L 136.125 457.420345 
L 148.5 459.751951 
L 160.875 460.992049 
L 173.25 460.370608 
L 185.625 460.388903 
L 198 459.18229 
L 210.375 455.362428 
L 222.75 452.103858 
L 235.125 450.375941 
L 247.5 445.521391 
L 259.875 439.62575 
L 272.25 432.758145 
L 284.625 427.84958 
L 297 424.252867 
L 309.375 417.678285 
L 321.75 413.714947 
L 334.125 410.812955 
L 346.5 411.685909 
L 358.875 414.670503 
L 371.25 414.591975 
L 383.625 414.432334 
L 396 414.135957 
L 408.375 416.239532 
L 420.75 411.96285 
L 433.125 411.802576 
L 445.5 411.867798 
L 457.875 411.396947 
L 470.25 412.752962 
L 482.625 406.478792 
L 495 398.129303 
L 507.375 392.818701 
L 519.75 386.604751 
L 532.125 381.613327 
L 544.5 378.631865 
L 556.875 377.549149 
L 569.25 376.148866 
L 581.625 370.539514 
L 594 365.792758 
L 606.375 363.298647 
L 618.75 362.736098 
L 631.125 364.682328 
L 643.5 367.368539 
L 655.875 366.685903 
L 668.25 367.889085 
L 680.625 366.085577 
L 693 363.744381 
L 705.375 363.170866 
L 717.75 366.437967 
L 730.125 369.844086 
L 742.5 373.5723 
L 754.875 376.308155 
L 767.25 377.314586 
L 779.625 379.140962 
" clip-path="url(#p9a8e652cf1)" style="fill: none; stroke: #000000; stroke-width: 1.5; stroke-linecap: square"/>
   </g>
   <g id="line2d_4">
    <path d="M 0 459 
L 12.375 459 
L 24.75 459.122886 
L 37.125 455.850261 
L 49.5 456.888504 
L 61.875 459.089723 
L 74.25 457.226388 
L 86.625 454.452452 
L 99 452.034294 
L 111.375 451.295934 
L 123.75 453.462256 
L 136.125 455.955551 
L 148.5 458.565802 
L 160.875 459.759136 
L 173.25 459.606903 
L 185.625 459.748844 
L 198 459.161055 
L 210.375 457.103708 
L 222.75 454.971781 
L 235.125 453.525536 
L 247.5 450.301434 
L 259.875 446.254533 
L 272.25 441.377852 
L 284.625 437.275637 
L 297 433.778509 
L 309.375 428.640513 
L 321.75 424.725785 
L 334.125 421.396393 
L 346.5 420.211161 
L 358.875 420.512448 
L 371.25 419.561479 
L 383.625 418.709798 
L 396 417.887469 
L 408.375 418.425669 
L 420.75 415.742318 
L 433.125 415.050809 
L 445.5 414.553579 
L 457.875 413.845269 
L 470.25 414.171271 
L 482.625 410.515306 
L 495 405.30748 
L 507.375 401.237985 
L 519.75 396.466262 
L 532.125 392.125681 
L 544.5 388.782884 
L 556.875 386.539296 
L 569.25 384.312807 
L 581.625 379.913715 
L 594 375.796657 
L 606.375 372.819137 
L 618.75 370.965457 
L 631.125 370.694584 
L 643.5 371.187669 
L 655.875 370.198001 
L 668.25 370.293425 
L 680.625 368.913716 
L 693 367.165265 
L 705.375 366.294449 
L 717.75 367.554701 
L 730.125 369.206366 
L 742.5 371.30455 
L 754.875 373.119257 
L 767.25 374.145829 
L 779.625 375.603802 
" clip-path="url(#p9a8e652cf1)" style="fill: none; stroke: #000000; stroke-width: 1.5; stroke-linecap: square"/>
   </g>
   <g id="line2d_5">
    <path d="M 0 459 
L 12.375 459 
L 24.75 459.118007 
L 37.125 456.108701 
L 49.5 456.960034 
L 61.875 458.990268 
L 74.25 457.348138 
L 86.625 455.089884 
L 99 453.091858 
L 111.375 452.367962 
L 123.75 453.819684 
L 136.125 455.573482 
L 148.5 457.465551 
L 160.875 459.157923 
L 173.25 459.125911 
L 185.625 459.275023 
L 198 458.832551 
L 210.375 457.376818 
L 222.75 456.002188 
L 235.125 454.996334 
L 247.5 452.868663 
L 259.875 450.16041 
L 272.25 446.855874 
L 284.625 443.895425 
L 297 441.212262 
L 309.375 437.522183 
L 321.75 434.435577 
L 334.125 431.633107 
L 346.5 430.024862 
L 358.875 429.307691 
L 371.25 427.983719 
L 383.625 426.756804 
L 396 425.586545 
L 408.375 425.219369 
L 420.75 423.162337 
L 433.125 422.147775 
L 445.5 421.274647 
L 457.875 420.325182 
L 470.25 419.954774 
L 482.625 417.495872 
L 495 414.104881 
L 507.375 411.179493 
L 519.75 407.790288 
L 532.125 404.521609 
L 544.5 401.702556 
L 556.875 399.432843 
L 569.25 397.1737 
L 581.625 393.763468 
L 594 390.418959 
L 606.375 387.617874 
L 618.75 385.403372 
L 631.125 384.06467 
L 643.5 383.219348 
L 655.875 381.699542 
L 668.25 380.797417 
L 680.625 379.200522 
L 693 377.428516 
L 705.375 376.118959 
L 717.75 375.971523 
L 730.125 376.147108 
L 742.5 376.6825 
L 754.875 377.200594 
L 767.25 377.410559 
L 779.625 377.913477 
" clip-path="url(#p9a8e652cf1)" style="fill: none; stroke: #000000; stroke-width: 1.5; stroke-linecap: square"/>
   </g>
   <g id="line2d_6">
    <path d="M 0 459 
L 12.375 459 
L 24.75 459.11556 
L 37.125 456.235668 
L 49.5 457.002415 
L 61.875 458.865411 
L 74.25 457.402851 
L 86.625 455.388573 
L 99 453.602949 
L 111.375 452.915639 
L 123.75 454.072056 
L 136.125 455.496009 
L 148.5 457.045324 
L 160.875 458.696664 
L 173.25 458.693308 
L 185.625 459.033953 
L 198 458.402672 
L 210.375 457.337961 
L 222.75 456.316838 
L 235.125 455.553629 
L 247.5 453.968953 
L 259.875 451.95022 
L 272.25 449.487377 
L 284.625 447.239162 
L 297 445.163675 
L 309.375 442.385334 
L 321.75 439.990135 
L 334.125 437.770045 
L 346.5 436.332215 
L 358.875 435.486743 
L 371.25 434.264261 
L 383.625 433.111948 
L 396 432.003842 
L 408.375 431.41295 
L 420.75 429.777851 
L 433.125 428.784811 
L 445.5 427.887259 
L 457.875 426.951983 
L 470.25 426.377393 
L 482.625 424.551693 
L 495 422.143763 
L 507.375 419.979731 
L 519.75 417.513875 
L 532.125 415.087165 
L 544.5 412.897117 
L 556.875 411.010326 
L 569.25 409.121101 
L 581.625 406.554115 
L 594 403.995742 
L 606.375 401.723959 
L 618.75 399.77366 
L 631.125 398.3205 
L 643.5 397.160591 
L 655.875 395.638118 
L 668.25 394.471269 
L 680.625 392.930312 
L 693 391.294067 
L 705.375 389.916011 
L 717.75 389.194218 
L 730.125 388.681226 
L 742.5 388.401082 
L 754.875 388.149845 
L 767.25 387.76524 
L 779.625 387.569559 
" clip-path="url(#p9a8e652cf1)" style="fill: none; stroke: #000000; stroke-width: 1.5; stroke-linecap: square"/>
   </g>
   <g id="line2d_7">
    <path d="M 0 459 
L 12.375 459 
L 24.75 459.114335 
L 37.125 456.298477 
L 49.5 457.02515 
L 61.875 458.806926 
L 74.25 457.428899 
L 86.625 455.532064 
L 99 453.851352 
L 111.375 453.188066 
L 123.75 454.213215 
L 136.125 455.485745 
L 148.5 456.873562 
L 160.875 458.35295 
L 173.25 458.378157 
L 185.625 458.758193 
L 198 458.18008 
L 210.375 457.285088 
L 222.75 456.423047 
L 235.125 455.774964 
L 247.5 454.441206 
L 259.875 452.745757 
L 272.25 450.682975 
L 284.625 448.790733 
L 297 447.035687 
L 309.375 444.71785 
L 321.75 442.70116 
L 334.125 440.82179 
L 346.5 439.554345 
L 358.875 438.750534 
L 371.25 437.66301 
L 383.625 436.6334 
L 396 435.641655 
L 408.375 435.043808 
L 420.75 433.671243 
L 433.125 432.776378 
L 445.5 431.956001 
L 457.875 431.112208 
L 470.25 430.534791 
L 482.625 429.057631 
L 495 427.159657 
L 507.375 425.430476 
L 519.75 423.483206 
L 532.125 421.558216 
L 544.5 419.794603 
L 556.875 418.239724 
L 569.25 416.682274 
L 581.625 414.655879 
L 594 412.629769 
L 606.375 410.794167 
L 618.75 409.17404 
L 631.125 407.889456 
L 643.5 406.804997 
L 655.875 405.482501 
L 668.25 404.398637 
L 680.625 403.070952 
L 693 401.6815 
L 705.375 400.461849 
L 717.75 399.673266 
L 730.125 399.027387 
L 742.5 398.540307 
L 754.875 398.081216 
L 767.25 397.545688 
L 779.625 397.138426 
" clip-path="url(#p9a8e652cf1)" style="fill: none; stroke: #000000; stroke-width: 1.5; stroke-linecap: square"/>
   </g>
   <g id="line2d_8">
    <path d="M 0 459 
L 12.375 459 
L 24.75 459.113722 
L 37.125 456.329701 
L 49.5 457.036888 
L 61.875 458.778699 
L 74.25 457.441627 
L 86.625 455.60226 
L 99 453.973453 
L 111.375 453.323378 
L 123.75 454.286985 
L 136.125 455.487485 
L 148.5 456.797635 
L 160.875 458.193587 
L 173.25 458.229349 
L 185.625 458.593487 
L 198 458.069633 
L 210.375 457.25253 
L 222.75 456.464557 
L 235.125 455.871153 
L 247.5 454.655426 
L 259.875 453.112816 
L 272.25 451.240006 
L 284.625 449.519961 
L 297 447.922913 
L 309.375 445.828374 
L 321.75 444.000528 
L 334.125 442.294963 
L 346.5 441.12637 
L 358.875 440.364092 
L 371.25 439.359385 
L 383.625 438.407428 
L 396 437.490764 
L 408.375 436.913499 
L 420.75 435.680156 
L 433.125 434.85341 
L 445.5 434.092084 
L 457.875 433.313682 
L 470.25 432.760492 
L 482.625 431.460806 
L 495 429.813244 
L 507.375 428.305479 
L 519.75 426.619158 
L 532.125 424.951565 
L 544.5 423.416258 
L 556.875 422.051605 
L 569.25 420.68637 
L 581.625 418.944534 
L 594 417.203374 
L 606.375 415.615149 
L 618.75 414.199675 
L 631.125 413.052148 
L 643.5 412.065191 
L 655.875 410.893347 
L 668.25 409.910826 
L 680.625 408.740136 
L 693 407.523134 
L 705.375 406.439559 
L 717.75 405.691399 
L 730.125 405.056207 
L 742.5 404.546154 
L 754.875 404.06098 
L 767.25 403.520935 
L 779.625 403.08133 
" clip-path="url(#p9a8e652cf1)" style="fill: none; stroke: #000000; stroke-width: 1.5; stroke-linecap: square"/>
   </g>
   <g id="line2d_9">
    <path d="M 0 459 
L 12.375 459 
L 24.75 459.113416 
L 37.125 456.345265 
L 49.5 457.042847 
L 61.875 458.764842 
L 74.25 457.447921 
L 86.625 455.636962 
L 99 454.033943 
L 111.375 453.390741 
L 123.75 454.324592 
L 136.125 455.490026 
L 148.5 456.762178 
L 160.875 458.117151 
L 173.25 458.157355 
L 185.625 458.513219 
L 198 458.014968 
L 210.375 457.235038 
L 222.75 456.482639 
L 235.125 455.915717 
L 247.5 454.756915 
L 259.875 453.288153 
L 272.25 451.50727 
L 284.625 449.871188 
L 297 448.35178 
L 309.375 446.366132 
L 321.75 444.631447 
L 334.125 443.01237 
L 346.5 441.895373 
L 358.875 441.157901 
L 371.25 440.19728 
L 383.625 439.287078 
L 396 438.411043 
L 408.375 437.849104 
L 420.75 436.686124 
L 433.125 435.897065 
L 445.5 435.169292 
L 457.875 434.427414 
L 470.25 433.891829 
L 482.625 432.680238 
L 495 431.154767 
L 507.375 429.756509 
L 519.75 428.198413 
L 532.125 426.65816 
L 544.5 425.237625 
L 556.875 423.970983 
L 569.25 422.705118 
L 581.625 421.105094 
L 594 419.506734 
L 606.375 418.045081 
L 618.75 416.737492 
L 631.125 415.667779 
L 643.5 414.741013 
L 655.875 413.653396 
L 668.25 412.733207 
L 680.625 411.649969 
L 693 410.52769 
L 705.375 409.522934 
L 717.75 408.811042 
L 730.125 408.198718 
L 742.5 407.696302 
L 754.875 407.217051 
L 767.25 406.692196 
L 779.625 406.255192 
" clip-path="url(#p9a8e652cf1)" style="fill: none; stroke: #000000; stroke-width: 1.5; stroke-linecap: square"/>
   </g>
  </g>
 </g>
 <defs>
  <clipPath id="p9a8e652cf1">
   <rect x="0" y="0" width="792" height="612"/>
  </clipPath>
 </defs>
</svg>
