<?xml version="1.0" encoding="utf-8" standalone="no"?>
<!DOCTYPE svg PUBLIC "-//W3C//DTD SVG 1.1//EN"
  "http://www.w3.org/Graphics/SVG/1.1/DTD/svg11.dtd">
<svg xmlns:xlink="http://www.w3.org/1999/xlink" width="792pt" height="612pt" viewBox="0 0 792 612" xmlns="http://www.w3.org/2000/svg" version="1.1">
 <metadata>
  <rdf:RDF xmlns:dc="http://purl.org/dc/elements/1.1/" xmlns:cc="http://creativecommons.org/ns#" xmlns:rdf="http://www.w3.org/1999/02/22-rdf-syntax-ns#">
   <cc:Work>
    <dc:type rdf:resource="http://purl.org/dc/dcmitype/StillImage"/>
    <dc:date>2022-12-26T20:25:50.611090</dc:date>
    <dc:format>image/svg+xml</dc:format>
    <dc:creator>
     <cc:Agent>
      <dc:title>Matplotlib v3.6.2, https://matplotlib.org/</dc:title>
     </cc:Agent>
    </dc:creator>
   </cc:Work>
  </rdf:RDF>
 </metadata>
 <defs>
  <style type="text/css">*{stroke-linejoin: round; stroke-linecap: butt}</style>
 </defs>
 <g id="figure_1">
  <g id="patch_1">
   <path d="M 0 612 
L 792 612 
L 792 0 
L 0 0 
z
" style="fill: #ffffff"/>
  </g>
  <g id="axes_1">
   <g id="line2d_1">
    <path d="M 0 459 
L 39.6 449.678637 
L 79.2 440.178284 
L 118.8 448.450441 
L 158.4 429.549969 
L 198 423.622884 
L 237.6 441.378449 
L 277.2 446.528357 
L 316.8 439.644959 
L 356.4 438.418513 
L 396 420.517771 
L 435.6 418.237624 
L 475.2 415.271184 
L 514.8 427.289494 
L 554.4 424.685223 
L 594 422.083172 
L 633.6 415.165306 
L 673.2 394.858487 
L 712.8 415.271184 
L 752.4 413.128093 
" clip-path="url(#p529eae2668)" style="fill: none; stroke: #000000; stroke-width: 1.5; stroke-linecap: square"/>
   </g>
   <g id="line2d_2">
    <path d="M 0 459 
L 39.6 459 
L 79.2 452.785283 
L 118.8 445.578914 
L 158.4 447.110278 
L 198 438.039285 
L 237.6 430.709686 
L 277.2 436.082964 
L 316.8 441.323848 
L 356.4 440.44643 
L 396 439.410313 
L 435.6 429.913138 
L 475.2 424.010594 
L 514.8 419.609323 
L 554.4 423.45409 
L 594 424.036943 
L 633.6 423.012106 
L 673.2 419.037894 
L 712.8 406.826482 
L 752.4 411.034473 
" clip-path="url(#p529eae2668)" style="fill: none; stroke: #000000; stroke-width: 1.5; stroke-linecap: square"/>
   </g>
   <g id="line2d_3">
    <path d="M 0 459 
L 39.6 459 
L 79.2 453.539179 
L 118.8 447.483092 
L 158.4 447.860854 
L 198 441.338956 
L 237.6 435.400257 
L 277.2 437.320223 
L 316.8 440.195495 
L 356.4 440.026785 
L 396 439.540487 
L 435.6 433.832934 
L 475.2 429.184925 
L 514.8 425.057246 
L 554.4 425.716041 
L 594 425.412409 
L 633.6 424.433089 
L 673.2 421.665169 
L 712.8 413.715818 
L 752.4 414.142792 
" clip-path="url(#p529eae2668)" style="fill: none; stroke: #000000; stroke-width: 1.5; stroke-linecap: square"/>
   </g>
   <g id="line2d_4">
    <path d="M 0 459 
L 39.6 459 
L 79.2 453.936018 
L 118.8 448.534145 
L 158.4 448.50751 
L 198 443.296804 
L 237.6 438.446484 
L 277.2 439.110195 
L 316.8 440.683132 
L 356.4 440.473972 
L 396 440.076655 
L 435.6 436.414019 
L 475.2 433.101977 
L 514.8 429.924505 
L 554.4 429.464473 
L 594 428.642535 
L 633.6 427.52839 
L 673.2 425.448561 
L 712.8 420.328133 
L 752.4 419.491814 
" clip-path="url(#p529eae2668)" style="fill: none; stroke: #000000; stroke-width: 1.5; stroke-linecap: square"/>
   </g>
   <g id="line2d_5">
    <path d="M 0 459 
L 39.6 459 
L 79.2 454.13705 
L 118.8 449.073279 
L 158.4 448.896784 
L 198 444.323863 
L 237.6 440.078152 
L 277.2 440.315448 
L 316.8 441.346327 
L 356.4 441.085524 
L 396 440.703511 
L 435.6 437.97105 
L 475.2 435.431598 
L 514.8 432.949123 
L 554.4 432.280215 
L 594 431.412777 
L 633.6 430.379082 
L 673.2 428.737188 
L 712.8 425.154743 
L 752.4 424.136934 
" clip-path="url(#p529eae2668)" style="fill: none; stroke: #000000; stroke-width: 1.5; stroke-linecap: square"/>
   </g>
   <g id="line2d_6">
    <path d="M 0 459 
L 39.6 459 
L 79.2 454.237896 
L 118.8 449.344568 
L 158.4 449.1063 
L 198 444.843501 
L 237.6 440.905639 
L 277.2 440.982267 
L 316.8 441.784784 
L 356.4 441.503757 
L 396 441.131621 
L 435.6 438.820955 
L 475.2 436.663076 
L 514.8 434.551011 
L 554.4 433.873432 
L 594 433.057315 
L 633.6 432.125445 
L 673.2 430.742439 
L 712.8 427.914496 
L 752.4 426.956987 
" clip-path="url(#p529eae2668)" style="fill: none; stroke: #000000; stroke-width: 1.5; stroke-linecap: square"/>
   </g>
   <g id="line2d_7">
    <path d="M 0 459 
L 39.6 459 
L 79.2 454.288361 
L 118.8 449.480423 
L 158.4 449.214492 
L 198 445.104007 
L 237.6 441.320074 
L 277.2 441.328965 
L 316.8 442.02898 
L 356.4 441.740514 
L 396 441.374915 
L 435.6 439.262105 
L 475.2 437.288995 
L 514.8 435.361094 
L 554.4 434.699288 
L 594 433.924821 
L 633.6 433.057162 
L 673.2 431.809385 
L 712.8 429.340666 
L 752.4 428.445128 
" clip-path="url(#p529eae2668)" style="fill: none; stroke: #000000; stroke-width: 1.5; stroke-linecap: square"/>
   </g>
   <g id="line2d_8">
    <path d="M 0 459 
L 39.6 459 
L 79.2 454.313599 
L 118.8 449.548376 
L 158.4 449.269406 
L 198 445.234322 
L 237.6 441.527179 
L 277.2 441.505235 
L 316.8 442.156971 
L 356.4 441.865561 
L 396 441.503717 
L 435.6 439.486341 
L 475.2 437.603518 
L 514.8 435.766529 
L 554.4 435.116847 
L 594 434.366497 
L 633.6 433.533546 
L 673.2 432.353834 
L 712.8 430.058076 
L 752.4 429.199698 
" clip-path="url(#p529eae2668)" style="fill: none; stroke: #000000; stroke-width: 1.5; stroke-linecap: square"/>
   </g>
   <g id="line2d_9">
    <path d="M 0 459 
L 39.6 459 
L 79.2 454.326218 
L 118.8 449.582355 
L 158.4 449.297062 
L 198 445.299481 
L 237.6 441.630668 
L 277.2 441.594048 
L 316.8 442.22239 
L 356.4 441.92971 
L 396 441.569874 
L 435.6 439.599315 
L 475.2 437.76104 
L 514.8 435.969102 
L 554.4 435.32643 
L 594 434.588854 
L 633.6 433.773796 
L 673.2 432.628084 
L 712.8 430.41688 
L 752.4 429.578353 
" clip-path="url(#p529eae2668)" style="fill: none; stroke: #000000; stroke-width: 1.5; stroke-linecap: square"/>
   </g>
  </g>
 </g>
 <defs>
  <clipPath id="p529eae2668">
   <rect x="0" y="0" width="792" height="612"/>
  </clipPath>
 </defs>
</svg>
