<?xml version="1.0" encoding="utf-8" standalone="no"?>
<!DOCTYPE svg PUBLIC "-//W3C//DTD SVG 1.1//EN"
  "http://www.w3.org/Graphics/SVG/1.1/DTD/svg11.dtd">
<svg xmlns:xlink="http://www.w3.org/1999/xlink" width="792pt" height="612pt" viewBox="0 0 792 612" xmlns="http://www.w3.org/2000/svg" version="1.1">
 <metadata>
  <rdf:RDF xmlns:dc="http://purl.org/dc/elements/1.1/" xmlns:cc="http://creativecommons.org/ns#" xmlns:rdf="http://www.w3.org/1999/02/22-rdf-syntax-ns#">
   <cc:Work>
    <dc:type rdf:resource="http://purl.org/dc/dcmitype/StillImage"/>
    <dc:date>2023-01-09T02:27:46.044866</dc:date>
    <dc:format>image/svg+xml</dc:format>
    <dc:creator>
     <cc:Agent>
      <dc:title>Matplotlib v3.6.2, https://matplotlib.org/</dc:title>
     </cc:Agent>
    </dc:creator>
   </cc:Work>
  </rdf:RDF>
 </metadata>
 <defs>
  <style type="text/css">*{stroke-linejoin: round; stroke-linecap: butt}</style>
 </defs>
 <g id="figure_1">
  <g id="patch_1">
   <path d="M 0 612 
L 792 612 
L 792 0 
L 0 0 
z
" style="fill: #ffffff"/>
  </g>
  <g id="axes_1">
   <g id="line2d_1">
    <path d="M 0 459 
L 44 456.880833 
L 88 454.121137 
L 132 461.09454 
L 176 460.28958 
L 220 459.484619 
L 264 454.022582 
L 308 435.045459 
L 352 454.121137 
L 396 452.125494 
L 440 451.28789 
L 484 453.800834 
L 528 452.49504 
L 572 448.603003 
L 616 436.544756 
L 660 416.321094 
L 704 413.025511 
L 748 393.581304 
" clip-path="url(#p4314e586b2)" style="fill: none; stroke: #000000; stroke-width: 1.5; stroke-linecap: square"/>
   </g>
   <g id="line2d_2">
    <path d="M 0 459 
L 44 459 
L 88 457.587217 
L 132 455.606555 
L 176 459.589209 
L 220 459.950691 
L 264 459.713956 
L 308 457.554103 
L 352 446.247992 
L 396 450.174353 
L 440 451.140565 
L 484 451.208672 
L 528 452.48219 
L 572 452.468278 
L 616 450.512258 
L 660 443.490654 
L 704 429.843498 
L 748 421.341468 
" clip-path="url(#p4314e586b2)" style="fill: none; stroke: #000000; stroke-width: 1.5; stroke-linecap: square"/>
   </g>
   <g id="line2d_3">
    <path d="M 0 459 
L 44 459 
L 88 457.758615 
L 132 456.110493 
L 176 459.230933 
L 220 459.607587 
L 264 459.566425 
L 308 458.554047 
L 352 451.203452 
L 396 452.097479 
L 440 452.105949 
L 484 451.860926 
L 528 452.438107 
L 572 452.454969 
L 616 451.31775 
L 660 446.963775 
L 704 437.93006 
L 748 430.563386 
" clip-path="url(#p4314e586b2)" style="fill: none; stroke: #000000; stroke-width: 1.5; stroke-linecap: square"/>
   </g>
   <g id="line2d_4">
    <path d="M 0 459 
L 44 459 
L 88 457.848834 
L 132 456.385801 
L 176 459.072377 
L 220 459.406534 
L 264 459.425752 
L 308 458.861042 
L 352 453.80445 
L 396 453.868247 
L 440 453.531414 
L 484 453.112112 
L 528 453.237342 
L 572 453.105365 
L 616 452.319461 
L 660 449.605966 
L 704 443.940509 
L 748 438.731691 
" clip-path="url(#p4314e586b2)" style="fill: none; stroke: #000000; stroke-width: 1.5; stroke-linecap: square"/>
   </g>
   <g id="line2d_5">
    <path d="M 0 459 
L 44 459 
L 88 457.894537 
L 132 456.526278 
L 176 459.002598 
L 220 459.30641 
L 264 459.342894 
L 308 458.93247 
L 352 454.963908 
L 396 454.834734 
L 440 454.446729 
L 484 454.020019 
L 528 453.991879 
L 572 453.808041 
L 616 453.193176 
L 660 451.291933 
L 704 447.410153 
L 748 443.69436 
" clip-path="url(#p4314e586b2)" style="fill: none; stroke: #000000; stroke-width: 1.5; stroke-linecap: square"/>
   </g>
   <g id="line2d_6">
    <path d="M 0 459 
L 44 459 
L 88 457.917463 
L 132 456.596778 
L 176 458.911566 
L 220 459.257671 
L 264 459.299707 
L 308 458.94665 
L 352 455.483833 
L 396 455.304892 
L 440 454.921467 
L 484 454.51504 
L 528 454.440347 
L 572 454.248807 
L 616 453.722352 
L 660 452.197025 
L 704 449.145556 
L 748 446.196731 
" clip-path="url(#p4314e586b2)" style="fill: none; stroke: #000000; stroke-width: 1.5; stroke-linecap: square"/>
   </g>
   <g id="line2d_7">
    <path d="M 0 459 
L 44 459 
L 88 457.928936 
L 132 456.632036 
L 176 458.865691 
L 220 459.233785 
L 264 459.277887 
L 308 458.94857 
L 352 455.726441 
L 396 455.532229 
L 440 455.157377 
L 484 454.766251 
L 528 454.675872 
L 572 454.48545 
L 616 454.003506 
L 660 452.653777 
L 704 449.987433 
L 748 447.406951 
" clip-path="url(#p4314e586b2)" style="fill: none; stroke: #000000; stroke-width: 1.5; stroke-linecap: square"/>
   </g>
   <g id="line2d_8">
    <path d="M 0 459 
L 44 459 
L 88 457.934673 
L 132 456.64966 
L 176 458.843326 
L 220 459.22198 
L 264 459.266947 
L 308 458.948286 
L 352 455.843178 
L 396 455.643441 
L 440 455.274229 
L 484 454.89186 
L 528 454.795426 
L 572 454.606738 
L 616 454.146982 
L 660 452.881366 
L 704 450.398379 
L 748 447.995632 
" clip-path="url(#p4314e586b2)" style="fill: none; stroke: #000000; stroke-width: 1.5; stroke-linecap: square"/>
   </g>
   <g id="line2d_9">
    <path d="M 0 459 
L 44 459 
L 88 457.937542 
L 132 456.658469 
L 176 458.832289 
L 220 459.216115 
L 264 459.261474 
L 308 458.947841 
L 352 455.900381 
L 396 455.698373 
L 440 455.33229 
L 484 454.954548 
L 528 454.855513 
L 572 454.667971 
L 616 454.219268 
L 660 452.994719 
L 704 450.600925 
L 748 448.285128 
" clip-path="url(#p4314e586b2)" style="fill: none; stroke: #000000; stroke-width: 1.5; stroke-linecap: square"/>
   </g>
  </g>
 </g>
 <defs>
  <clipPath id="p4314e586b2">
   <rect x="0" y="0" width="792" height="612"/>
  </clipPath>
 </defs>
</svg>
