<?xml version="1.0" encoding="utf-8" standalone="no"?>
<!DOCTYPE svg PUBLIC "-//W3C//DTD SVG 1.1//EN"
  "http://www.w3.org/Graphics/SVG/1.1/DTD/svg11.dtd">
<svg xmlns:xlink="http://www.w3.org/1999/xlink" width="792pt" height="612pt" viewBox="0 0 792 612" xmlns="http://www.w3.org/2000/svg" version="1.1">
 <metadata>
  <rdf:RDF xmlns:dc="http://purl.org/dc/elements/1.1/" xmlns:cc="http://creativecommons.org/ns#" xmlns:rdf="http://www.w3.org/1999/02/22-rdf-syntax-ns#">
   <cc:Work>
    <dc:type rdf:resource="http://purl.org/dc/dcmitype/StillImage"/>
    <dc:date>2023-01-23T15:50:07.308870</dc:date>
    <dc:format>image/svg+xml</dc:format>
    <dc:creator>
     <cc:Agent>
      <dc:title>Matplotlib v3.6.2, https://matplotlib.org/</dc:title>
     </cc:Agent>
    </dc:creator>
   </cc:Work>
  </rdf:RDF>
 </metadata>
 <defs>
  <style type="text/css">*{stroke-linejoin: round; stroke-linecap: butt}</style>
 </defs>
 <g id="figure_1">
  <g id="patch_1">
   <path d="M 0 612 
L 792 612 
L 792 0 
L 0 0 
z
" style="fill: #ffffff"/>
  </g>
  <g id="axes_1">
   <g id="line2d_1">
    <path d="M 0 459 
L 44 452.548518 
L 88 433.515249 
L 132 452.647379 
L 176 450.64558 
L 220 449.805409 
L 264 452.326084 
L 308 451.016262 
L 352 447.112364 
L 396 435.018787 
L 440 414.740914 
L 484 411.437124 
L 528 391.948265 
L 572 402.700944 
L 616 407.283913 
L 660 404.016204 
L 704 388.758231 
L 748 389.216982 
" clip-path="url(#pa1c435ef26)" style="fill: none; stroke: #000000; stroke-width: 1.5; stroke-linecap: square"/>
   </g>
   <g id="line2d_2">
    <path d="M 0 459 
L 44 459 
L 88 454.698855 
L 132 442.585894 
L 176 447.95067 
L 220 449.341508 
L 264 449.577138 
L 308 450.962362 
L 352 450.989417 
L 396 449.02741 
L 440 441.984772 
L 484 428.298848 
L 528 419.774134 
L 572 405.69719 
L 616 404.106884 
L 660 405.6072 
L 704 404.720156 
L 748 396.606636 
" clip-path="url(#pa1c435ef26)" style="fill: none; stroke: #000000; stroke-width: 1.5; stroke-linecap: square"/>
   </g>
   <g id="line2d_3">
    <path d="M 0 459 
L 44 459 
L 88 455.220646 
L 132 445.378392 
L 176 448.216496 
L 220 449.080673 
L 264 449.323263 
L 308 450.287966 
L 352 450.515495 
L 396 449.472537 
L 440 445.099259 
L 484 435.981616 
L 528 428.658345 
L 572 417.723613 
L 616 413.278155 
L 660 411.510997 
L 704 409.304371 
L 748 403.181677 
" clip-path="url(#pa1c435ef26)" style="fill: none; stroke: #000000; stroke-width: 1.5; stroke-linecap: square"/>
   </g>
   <g id="line2d_4">
    <path d="M 0 459 
L 44 459 
L 88 455.495305 
L 132 446.861413 
L 176 448.702218 
L 220 449.235693 
L 264 449.375909 
L 308 450.043821 
L 352 450.250106 
L 396 449.61792 
L 440 446.793959 
L 484 440.785207 
L 528 435.430529 
L 572 427.64569 
L 616 423.274395 
L 660 420.51865 
L 704 417.709736 
L 748 412.818197 
" clip-path="url(#pa1c435ef26)" style="fill: none; stroke: #000000; stroke-width: 1.5; stroke-linecap: square"/>
   </g>
   <g id="line2d_5">
    <path d="M 0 459 
L 44 459 
L 88 455.634441 
L 132 447.606929 
L 176 449.034994 
L 220 449.415178 
L 264 449.495068 
L 308 450.01171 
L 352 450.178452 
L 396 449.708452 
L 440 447.602912 
L 484 443.149751 
L 528 439.06329 
L 572 433.233709 
L 616 429.610172 
L 660 427.053567 
L 704 424.49408 
L 748 420.617716 
" clip-path="url(#pa1c435ef26)" style="fill: none; stroke: #000000; stroke-width: 1.5; stroke-linecap: square"/>
   </g>
   <g id="line2d_6">
    <path d="M 0 459 
L 44 459 
L 88 455.704237 
L 132 447.97823 
L 176 449.222246 
L 220 449.532081 
L 264 449.582707 
L 308 450.0273 
L 352 450.170448 
L 396 449.768837 
L 440 447.988526 
L 484 444.257757 
L 528 440.812413 
L 572 435.964537 
L 616 432.847549 
L 660 430.570539 
L 704 428.308925 
L 748 425.066339 
" clip-path="url(#pa1c435ef26)" style="fill: none; stroke: #000000; stroke-width: 1.5; stroke-linecap: square"/>
   </g>
   <g id="line2d_7">
    <path d="M 0 459 
L 44 459 
L 88 455.739165 
L 132 448.163206 
L 176 449.320768 
L 220 449.597319 
L 264 449.633905 
L 308 450.043902 
L 352 450.174854 
L 396 449.804313 
L 440 448.176039 
L 484 444.785531 
L 528 441.651731 
L 572 437.278523 
L 616 434.431354 
L 660 432.325772 
L 704 430.245066 
L 748 427.335801 
" clip-path="url(#pa1c435ef26)" style="fill: none; stroke: #000000; stroke-width: 1.5; stroke-linecap: square"/>
   </g>
   <g id="line2d_8">
    <path d="M 0 459 
L 44 459 
L 88 455.756632 
L 132 448.255487 
L 176 449.371206 
L 220 449.63162 
L 264 449.661375 
L 308 450.054492 
L 352 450.179315 
L 396 449.823549 
L 440 448.268451 
L 484 445.042082 
L 528 442.060491 
L 572 437.918416 
L 616 435.207806 
L 660 433.193381 
L 704 431.208638 
L 748 428.467053 
" clip-path="url(#pa1c435ef26)" style="fill: none; stroke: #000000; stroke-width: 1.5; stroke-linecap: square"/>
   </g>
   <g id="line2d_9">
    <path d="M 0 459 
L 44 459 
L 88 455.765366 
L 132 448.301571 
L 176 449.396714 
L 220 449.649188 
L 264 449.675579 
L 308 450.060367 
L 352 450.182127 
L 396 449.833562 
L 440 448.314321 
L 484 445.16844 
L 528 442.261912 
L 572 438.233602 
L 616 435.591369 
L 660 433.62355 
L 704 431.687813 
L 748 429.029897 
" clip-path="url(#pa1c435ef26)" style="fill: none; stroke: #000000; stroke-width: 1.5; stroke-linecap: square"/>
   </g>
  </g>
 </g>
 <defs>
  <clipPath id="pa1c435ef26">
   <rect x="0" y="0" width="792" height="612"/>
  </clipPath>
 </defs>
</svg>
