<?xml version="1.0" encoding="utf-8" standalone="no"?>
<!DOCTYPE svg PUBLIC "-//W3C//DTD SVG 1.1//EN"
  "http://www.w3.org/Graphics/SVG/1.1/DTD/svg11.dtd">
<svg xmlns:xlink="http://www.w3.org/1999/xlink" width="792pt" height="612pt" viewBox="0 0 792 612" xmlns="http://www.w3.org/2000/svg" version="1.1">
 <metadata>
  <rdf:RDF xmlns:dc="http://purl.org/dc/elements/1.1/" xmlns:cc="http://creativecommons.org/ns#" xmlns:rdf="http://www.w3.org/1999/02/22-rdf-syntax-ns#">
   <cc:Work>
    <dc:type rdf:resource="http://purl.org/dc/dcmitype/StillImage"/>
    <dc:date>2023-01-16T16:10:14.371619</dc:date>
    <dc:format>image/svg+xml</dc:format>
    <dc:creator>
     <cc:Agent>
      <dc:title>Matplotlib v3.6.2, https://matplotlib.org/</dc:title>
     </cc:Agent>
    </dc:creator>
   </cc:Work>
  </rdf:RDF>
 </metadata>
 <defs>
  <style type="text/css">*{stroke-linejoin: round; stroke-linecap: butt}</style>
 </defs>
 <g id="figure_1">
  <g id="patch_1">
   <path d="M 0 612 
L 792 612 
L 792 0 
L 0 0 
z
" style="fill: #ffffff"/>
  </g>
  <g id="axes_1">
   <g id="line2d_1">
    <path d="M 0 306 
L 44 301.699012 
L 88 293.301244 
L 132 318.764562 
L 176 304.665131 
L 220 305.439682 
L 264 307.68094 
L 308 305.126564 
L 352 303.396228 
L 396 297.926691 
L 440 292.412968 
L 484 303.775244 
L 528 292.80773 
L 572 313.29924 
L 616 309.098128 
L 660 303.791723 
L 704 295.638065 
L 748 306.313119 
" clip-path="url(#pa6ba2b8f70)" style="fill: none; stroke: #000000; stroke-width: 1.5; stroke-linecap: square"/>
   </g>
   <g id="line2d_2">
    <path d="M 0 306 
L 44 306 
L 88 303.13257 
L 132 297.512641 
L 176 308.849853 
L 220 306.690031 
L 264 306.054933 
L 308 306.874344 
L 352 305.997027 
L 396 304.691499 
L 440 301.301123 
L 484 296.853372 
L 528 300.284185 
L 572 296.521301 
L 616 304.924864 
L 660 307.014322 
L 704 305.400389 
L 748 300.502617 
" clip-path="url(#pa6ba2b8f70)" style="fill: none; stroke: #000000; stroke-width: 1.5; stroke-linecap: square"/>
   </g>
   <g id="line2d_3">
    <path d="M 0 306 
L 44 306 
L 88 303.480431 
L 132 298.866381 
L 176 306.63921 
L 220 305.936853 
L 264 305.770432 
L 308 306.384268 
L 352 305.991336 
L 396 305.196084 
L 440 302.997774 
L 484 299.825596 
L 528 301.000628 
L 572 298.572897 
L 616 302.91959 
L 660 304.739259 
L 704 304.460641 
L 748 301.863744 
" clip-path="url(#pa6ba2b8f70)" style="fill: none; stroke: #000000; stroke-width: 1.5; stroke-linecap: square"/>
   </g>
   <g id="line2d_4">
    <path d="M 0 306 
L 44 306 
L 88 303.663536 
L 132 299.594752 
L 176 305.696443 
L 220 305.413317 
L 264 305.419806 
L 308 305.931771 
L 352 305.760955 
L 396 305.28456 
L 440 303.862183 
L 484 301.721087 
L 528 302.094577 
L 572 300.442435 
L 616 302.6862 
L 660 303.788222 
L 704 303.788816 
L 748 302.419532 
" clip-path="url(#pa6ba2b8f70)" style="fill: none; stroke: #000000; stroke-width: 1.5; stroke-linecap: square"/>
   </g>
   <g id="line2d_5">
    <path d="M 0 306 
L 44 306 
L 88 303.756294 
L 132 299.96346 
L 176 305.292592 
L 220 305.144469 
L 264 305.204907 
L 308 305.656811 
L 352 305.568794 
L 396 305.235794 
L 440 304.18883 
L 484 302.59713 
L 528 302.74838 
L 572 301.526744 
L 616 302.917185 
L 660 303.622421 
L 704 303.641156 
L 748 302.779016 
" clip-path="url(#pa6ba2b8f70)" style="fill: none; stroke: #000000; stroke-width: 1.5; stroke-linecap: square"/>
   </g>
   <g id="line2d_6">
    <path d="M 0 306 
L 44 306 
L 88 303.802825 
L 132 300.147753 
L 176 305.110073 
L 220 305.013212 
L 264 305.092204 
L 308 305.511775 
L 352 305.456015 
L 396 305.185535 
L 440 304.309987 
L 484 302.978464 
L 528 303.06179 
L 572 302.051524 
L 616 303.100184 
L 660 303.632308 
L 704 303.645826 
L 748 302.994168 
" clip-path="url(#pa6ba2b8f70)" style="fill: none; stroke: #000000; stroke-width: 1.5; stroke-linecap: square"/>
   </g>
   <g id="line2d_7">
    <path d="M 0 306 
L 44 306 
L 88 303.82611 
L 132 300.239731 
L 176 305.023893 
L 220 304.948999 
L 264 305.035271 
L 308 305.438222 
L 352 305.396248 
L 396 305.154283 
L 440 304.358873 
L 484 303.150658 
L 528 303.209128 
L 572 302.300355 
L 616 303.201357 
L 660 303.656823 
L 704 303.666692 
L 748 303.10798 
" clip-path="url(#pa6ba2b8f70)" style="fill: none; stroke: #000000; stroke-width: 1.5; stroke-linecap: square"/>
   </g>
   <g id="line2d_8">
    <path d="M 0 306 
L 44 306 
L 88 303.837754 
L 132 300.28566 
L 176 304.982096 
L 220 304.917322 
L 264 305.006756 
L 308 305.401306 
L 352 305.365647 
L 396 305.137218 
L 440 304.380336 
L 484 303.231732 
L 528 303.279771 
L 572 302.420277 
L 616 303.253256 
L 660 303.673128 
L 704 303.681157 
L 748 303.165724 
" clip-path="url(#pa6ba2b8f70)" style="fill: none; stroke: #000000; stroke-width: 1.5; stroke-linecap: square"/>
   </g>
   <g id="line2d_9">
    <path d="M 0 306 
L 44 306 
L 88 303.843577 
L 132 300.308606 
L 176 304.961522 
L 220 304.9016 
L 264 304.992498 
L 308 305.382829 
L 352 305.350185 
L 396 305.128341 
L 440 304.390321 
L 484 303.270974 
L 528 303.314259 
L 572 302.478987 
L 616 303.279391 
L 660 303.682168 
L 704 303.689297 
L 748 303.194695 
" clip-path="url(#pa6ba2b8f70)" style="fill: none; stroke: #000000; stroke-width: 1.5; stroke-linecap: square"/>
   </g>
  </g>
 </g>
 <defs>
  <clipPath id="pa6ba2b8f70">
   <rect x="0" y="0" width="792" height="612"/>
  </clipPath>
 </defs>
</svg>
