<?xml version="1.0" encoding="utf-8" standalone="no"?>
<!DOCTYPE svg PUBLIC "-//W3C//DTD SVG 1.1//EN"
  "http://www.w3.org/Graphics/SVG/1.1/DTD/svg11.dtd">
<svg xmlns:xlink="http://www.w3.org/1999/xlink" width="792pt" height="612pt" viewBox="0 0 792 612" xmlns="http://www.w3.org/2000/svg" version="1.1">
 <metadata>
  <rdf:RDF xmlns:dc="http://purl.org/dc/elements/1.1/" xmlns:cc="http://creativecommons.org/ns#" xmlns:rdf="http://www.w3.org/1999/02/22-rdf-syntax-ns#">
   <cc:Work>
    <dc:type rdf:resource="http://purl.org/dc/dcmitype/StillImage"/>
    <dc:date>2023-01-02T15:38:00.666001</dc:date>
    <dc:format>image/svg+xml</dc:format>
    <dc:creator>
     <cc:Agent>
      <dc:title>Matplotlib v3.6.2, https://matplotlib.org/</dc:title>
     </cc:Agent>
    </dc:creator>
   </cc:Work>
  </rdf:RDF>
 </metadata>
 <defs>
  <style type="text/css">*{stroke-linejoin: round; stroke-linecap: butt}</style>
 </defs>
 <g id="figure_1">
  <g id="patch_1">
   <path d="M 0 612 
L 792 612 
L 792 0 
L 0 0 
z
" style="fill: #ffffff"/>
  </g>
  <g id="axes_1">
   <g id="line2d_1">
    <path d="M 0 306 
L 41.684211 317.02181 
L 83.368421 309.190484 
L 125.052632 301.735122 
L 166.736842 305.239548 
L 208.421053 294.87913 
L 250.105263 304.578292 
L 291.789474 304.148483 
L 333.473684 313.487322 
L 375.157895 304.379918 
L 416.842105 304.379918 
L 458.526316 301.685537 
L 500.210526 293.261499 
L 541.894737 318.804512 
L 583.578947 304.660949 
L 625.263158 305.437926 
L 666.947368 307.686207 
L 708.631579 305.123827 
L 750.315789 303.38807 
" clip-path="url(#pb705872018)" style="fill: none; stroke: #000000; stroke-width: 1.5; stroke-linecap: square"/>
   </g>
   <g id="line2d_2">
    <path d="M 0 306 
L 41.684211 306 
L 83.368421 313.34964 
L 125.052632 310.973213 
L 166.736842 306.046288 
L 208.421053 305.629906 
L 250.105263 300.167412 
L 291.789474 302.39003 
L 333.473684 303.272682 
L 375.157895 308.395348 
L 416.842105 306.362852 
L 458.526316 305.361946 
L 500.210526 303.523555 
L 541.894737 298.3669 
L 583.578947 308.635526 
L 625.263158 306.648427 
L 666.947368 306.045705 
L 708.631579 306.854584 
L 750.315789 305.990665 
" clip-path="url(#pb705872018)" style="fill: none; stroke: #000000; stroke-width: 1.5; stroke-linecap: square"/>
   </g>
   <g id="line2d_3">
    <path d="M 0 306 
L 41.684211 306 
L 83.368421 312.458262 
L 125.052632 310.977829 
L 166.736842 307.368478 
L 208.421053 306.611034 
L 250.105263 302.682444 
L 291.789474 303.291544 
L 333.473684 303.559264 
L 375.157895 306.601999 
L 416.842105 305.930168 
L 458.526316 305.465846 
L 500.210526 304.340975 
L 541.894737 301.057854 
L 583.578947 306.298564 
L 625.263158 305.81625 
L 666.947368 305.705007 
L 708.631579 306.287229 
L 750.315789 305.932804 
" clip-path="url(#pb705872018)" style="fill: none; stroke: #000000; stroke-width: 1.5; stroke-linecap: square"/>
   </g>
   <g id="line2d_4">
    <path d="M 0 306 
L 41.684211 306 
L 83.368421 311.989024 
L 125.052632 310.890791 
L 166.736842 307.97756 
L 208.421053 307.22591 
L 250.105263 304.185938 
L 291.789474 304.274774 
L 333.473684 304.247982 
L 375.157895 306.109571 
L 416.842105 305.77528 
L 458.526316 305.514506 
L 500.210526 304.818228 
L 541.894737 302.762345 
L 583.578947 305.563391 
L 625.263158 305.408279 
L 666.947368 305.413311 
L 708.631579 305.794999 
L 750.315789 305.683275 
" clip-path="url(#pb705872018)" style="fill: none; stroke: #000000; stroke-width: 1.5; stroke-linecap: square"/>
   </g>
   <g id="line2d_5">
    <path d="M 0 306 
L 41.684211 306 
L 83.368421 311.751309 
L 125.052632 310.822842 
L 166.736842 308.247859 
L 208.421053 307.537718 
L 250.105263 304.945164 
L 291.789474 304.878205 
L 333.473684 304.757076 
L 375.157895 306.095393 
L 416.842105 305.849723 
L 458.526316 305.651188 
L 500.210526 305.142012 
L 541.894737 303.682066 
L 583.578947 305.469029 
L 625.263158 305.376823 
L 666.947368 305.383585 
L 708.631579 305.631538 
L 750.315789 305.578183 
" clip-path="url(#pb705872018)" style="fill: none; stroke: #000000; stroke-width: 1.5; stroke-linecap: square"/>
   </g>
   <g id="line2d_6">
    <path d="M 0 306 
L 41.684211 306 
L 83.368421 311.632058 
L 125.052632 310.782764 
L 166.736842 308.371982 
L 208.421053 307.690093 
L 250.105263 305.316306 
L 291.789474 305.196691 
L 333.473684 305.04496 
L 375.157895 306.15373 
L 416.842105 305.939826 
L 458.526316 305.765358 
L 500.210526 305.338658 
L 541.894737 304.148857 
L 583.578947 305.515905 
L 625.263158 305.440052 
L 666.947368 305.439871 
L 708.631579 305.6226 
L 750.315789 305.583548 
" clip-path="url(#pb705872018)" style="fill: none; stroke: #000000; stroke-width: 1.5; stroke-linecap: square"/>
   </g>
   <g id="line2d_7">
    <path d="M 0 306 
L 41.684211 306 
L 83.368421 311.572383 
L 125.052632 310.761219 
L 166.736842 308.43102 
L 208.421053 307.764799 
L 250.105263 305.498389 
L 291.789474 305.358252 
L 333.473684 305.195319 
L 375.157895 306.19865 
L 416.842105 305.998542 
L 458.526316 305.834945 
L 500.210526 305.446473 
L 541.894737 304.381949 
L 583.578947 305.563975 
L 625.263158 305.494222 
L 666.947368 305.490103 
L 708.631579 305.642867 
L 750.315789 305.60842 
" clip-path="url(#pb705872018)" style="fill: none; stroke: #000000; stroke-width: 1.5; stroke-linecap: square"/>
   </g>
   <g id="line2d_8">
    <path d="M 0 306 
L 41.684211 306 
L 83.368421 311.542539 
L 125.052632 310.750074 
L 166.736842 308.459753 
L 208.421053 307.801707 
L 250.105263 305.588389 
L 291.789474 305.439358 
L 333.473684 305.271814 
L 375.157895 306.224863 
L 416.842105 306.031246 
L 458.526316 305.872863 
L 500.210526 305.502736 
L 541.894737 304.498113 
L 583.578947 305.594047 
L 625.263158 305.527014 
L 666.947368 305.520983 
L 708.631579 305.659682 
L 750.315789 305.627093 
" clip-path="url(#pb705872018)" style="fill: none; stroke: #000000; stroke-width: 1.5; stroke-linecap: square"/>
   </g>
   <g id="line2d_9">
    <path d="M 0 306 
L 41.684211 306 
L 83.368421 311.527617 
L 125.052632 310.744408 
L 166.736842 308.47392 
L 208.421053 307.820042 
L 250.105263 305.633109 
L 291.789474 305.479961 
L 333.473684 305.310352 
L 375.157895 306.238877 
L 416.842105 306.048417 
L 458.526316 305.892594 
L 500.210526 305.531446 
L 541.894737 304.556059 
L 583.578947 305.610559 
L 625.263158 305.544824 
L 666.947368 305.537868 
L 708.631579 305.66979 
L 750.315789 305.638043 
" clip-path="url(#pb705872018)" style="fill: none; stroke: #000000; stroke-width: 1.5; stroke-linecap: square"/>
   </g>
  </g>
 </g>
 <defs>
  <clipPath id="pb705872018">
   <rect x="0" y="0" width="792" height="612"/>
  </clipPath>
 </defs>
</svg>
