<?xml version="1.0" encoding="utf-8" standalone="no"?>
<!DOCTYPE svg PUBLIC "-//W3C//DTD SVG 1.1//EN"
  "http://www.w3.org/Graphics/SVG/1.1/DTD/svg11.dtd">
<svg xmlns:xlink="http://www.w3.org/1999/xlink" width="792pt" height="612pt" viewBox="0 0 792 612" xmlns="http://www.w3.org/2000/svg" version="1.1">
 <metadata>
  <rdf:RDF xmlns:dc="http://purl.org/dc/elements/1.1/" xmlns:cc="http://creativecommons.org/ns#" xmlns:rdf="http://www.w3.org/1999/02/22-rdf-syntax-ns#">
   <cc:Work>
    <dc:type rdf:resource="http://purl.org/dc/dcmitype/StillImage"/>
    <dc:date>2023-01-30T17:15:36.427255</dc:date>
    <dc:format>image/svg+xml</dc:format>
    <dc:creator>
     <cc:Agent>
      <dc:title>Matplotlib v3.6.2, https://matplotlib.org/</dc:title>
     </cc:Agent>
    </dc:creator>
   </cc:Work>
  </rdf:RDF>
 </metadata>
 <defs>
  <style type="text/css">*{stroke-linejoin: round; stroke-linecap: butt}</style>
 </defs>
 <g id="figure_1">
  <g id="patch_1">
   <path d="M 0 612 
L 792 612 
L 792 0 
L 0 0 
z
" style="fill: #ffffff"/>
  </g>
  <g id="axes_1">
   <g id="line2d_1">
    <path d="M 0 459 
L 46.588235 459.82397 
L 93.176471 459.395829 
L 139.764706 456.358477 
L 186.352941 444.488418 
L 232.941176 424.555058 
L 279.529412 421.303629 
L 326.117647 402.100929 
L 372.705882 412.700603 
L 419.294118 417.214689 
L 465.882353 413.996315 
L 512.470588 398.953912 
L 559.058824 399.406545 
L 605.647059 405.898852 
L 652.235294 410.686538 
L 698.823529 416.253532 
L 745.411765 417.04646 
" clip-path="url(#pe2af610cf1)" style="fill: none; stroke: #000000; stroke-width: 1.5; stroke-linecap: square"/>
   </g>
   <g id="line2d_2">
    <path d="M 0 459 
L 46.588235 459 
L 93.176471 459.549314 
L 139.764706 459.461608 
L 186.352941 458.237424 
L 232.941176 451.139434 
L 279.529412 437.618413 
L 326.117647 429.387412 
L 372.705882 415.652058 
L 419.294118 414.08564 
L 465.882353 415.563428 
L 512.470588 414.689731 
L 559.058824 406.694516 
L 605.647059 402.959226 
L 652.235294 404.392072 
L 698.823529 407.516116 
L 745.411765 411.908297 
" clip-path="url(#pe2af610cf1)" style="fill: none; stroke: #000000; stroke-width: 1.5; stroke-linecap: square"/>
   </g>
   <g id="line2d_3">
    <path d="M 0 459 
L 46.588235 459 
L 93.176471 459.482671 
L 139.764706 459.443324 
L 186.352941 458.778996 
L 232.941176 453.693091 
L 279.529412 443.92312 
L 326.117647 436.64235 
L 372.705882 425.804914 
L 419.294118 421.782489 
L 465.882353 420.400629 
L 512.470588 418.480759 
L 559.058824 412.651928 
L 605.647059 408.719937 
L 652.235294 407.886744 
L 698.823529 408.71095 
L 745.411765 410.926121 
" clip-path="url(#pe2af610cf1)" style="fill: none; stroke: #000000; stroke-width: 1.5; stroke-linecap: square"/>
   </g>
   <g id="line2d_4">
    <path d="M 0 459 
L 46.588235 459 
L 93.176471 459.447592 
L 139.764706 459.427277 
L 186.352941 459.011127 
L 232.941176 455.039142 
L 279.529412 447.522744 
L 326.117647 441.573524 
L 372.705882 433.15823 
L 419.294118 429.026001 
L 465.882353 426.739636 
L 512.470588 424.353709 
L 559.058824 419.714597 
L 605.647059 416.090293 
L 652.235294 414.308211 
L 698.823529 413.68531 
L 745.411765 414.120967 
" clip-path="url(#pe2af610cf1)" style="fill: none; stroke: #000000; stroke-width: 1.5; stroke-linecap: square"/>
   </g>
   <g id="line2d_5">
    <path d="M 0 459 
L 46.588235 459 
L 93.176471 459.429822 
L 139.764706 459.417496 
L 186.352941 459.049683 
L 232.941176 455.687096 
L 279.529412 449.301615 
L 326.117647 444.18013 
L 372.705882 437.158703 
L 419.294118 433.39839 
L 465.882353 431.075892 
L 512.470588 428.763279 
L 559.058824 424.916313 
L 605.647059 421.768675 
L 652.235294 419.888853 
L 698.823529 418.83709 
L 745.411765 418.551061 
" clip-path="url(#pe2af610cf1)" style="fill: none; stroke: #000000; stroke-width: 1.5; stroke-linecap: square"/>
   </g>
   <g id="line2d_6">
    <path d="M 0 459 
L 46.588235 459 
L 93.176471 459.420908 
L 139.764706 459.412184 
L 186.352941 459.067714 
L 232.941176 455.998843 
L 279.529412 450.163747 
L 326.117647 445.47545 
L 372.705882 439.163358 
L 419.294118 435.67712 
L 465.882353 433.445537 
L 512.470588 431.264379 
L 559.058824 427.86671 
L 605.647059 425.050215 
L 652.235294 423.258615 
L 698.823529 422.140735 
L 745.411765 421.641037 
" clip-path="url(#pe2af610cf1)" style="fill: none; stroke: #000000; stroke-width: 1.5; stroke-linecap: square"/>
   </g>
   <g id="line2d_7">
    <path d="M 0 459 
L 46.588235 459 
L 93.176471 459.416447 
L 139.764706 459.409425 
L 186.352941 459.076387 
L 232.941176 456.150957 
L 279.529412 450.585255 
L 326.117647 446.115123 
L 372.705882 440.155379 
L 419.294118 436.822799 
L 465.882353 434.660122 
L 512.470588 432.565699 
L 559.058824 429.401323 
L 605.647059 426.768478 
L 652.235294 425.052694 
L 698.823529 423.940254 
L 745.411765 423.377173 
" clip-path="url(#pe2af610cf1)" style="fill: none; stroke: #000000; stroke-width: 1.5; stroke-linecap: square"/>
   </g>
   <g id="line2d_8">
    <path d="M 0 459 
L 46.588235 459 
L 93.176471 459.414216 
L 139.764706 459.408021 
L 186.352941 459.080634 
L 232.941176 456.225992 
L 279.529412 450.793296 
L 326.117647 446.432221 
L 372.705882 440.647369 
L 419.294118 437.39496 
L 465.882353 435.271865 
L 512.470588 433.225386 
L 559.058824 430.17889 
L 605.647059 427.641259 
L 652.235294 425.970271 
L 698.823529 424.869436 
L 745.411765 424.28527 
" clip-path="url(#pe2af610cf1)" style="fill: none; stroke: #000000; stroke-width: 1.5; stroke-linecap: square"/>
   </g>
   <g id="line2d_9">
    <path d="M 0 459 
L 46.588235 459 
L 93.176471 459.413101 
L 139.764706 459.407312 
L 186.352941 459.082735 
L 232.941176 456.263244 
L 279.529412 450.8966 
L 326.117647 446.589995 
L 372.705882 440.892182 
L 419.294118 437.680585 
L 465.882353 435.57846 
L 512.470588 433.556996 
L 559.058824 430.569616 
L 605.647059 428.080274 
L 652.235294 426.433237 
L 698.823529 425.340277 
L 745.411765 424.748113 
" clip-path="url(#pe2af610cf1)" style="fill: none; stroke: #000000; stroke-width: 1.5; stroke-linecap: square"/>
   </g>
  </g>
 </g>
 <defs>
  <clipPath id="pe2af610cf1">
   <rect x="0" y="0" width="792" height="612"/>
  </clipPath>
 </defs>
</svg>
