<?xml version="1.0" encoding="utf-8" standalone="no"?>
<!DOCTYPE svg PUBLIC "-//W3C//DTD SVG 1.1//EN"
  "http://www.w3.org/Graphics/SVG/1.1/DTD/svg11.dtd">
<svg xmlns:xlink="http://www.w3.org/1999/xlink" width="792pt" height="612pt" viewBox="0 0 792 612" xmlns="http://www.w3.org/2000/svg" version="1.1">
 <metadata>
  <rdf:RDF xmlns:dc="http://purl.org/dc/elements/1.1/" xmlns:cc="http://creativecommons.org/ns#" xmlns:rdf="http://www.w3.org/1999/02/22-rdf-syntax-ns#">
   <cc:Work>
    <dc:type rdf:resource="http://purl.org/dc/dcmitype/StillImage"/>
    <dc:date>2023-01-30T17:17:42.540711</dc:date>
    <dc:format>image/svg+xml</dc:format>
    <dc:creator>
     <cc:Agent>
      <dc:title>Matplotlib v3.6.2, https://matplotlib.org/</dc:title>
     </cc:Agent>
    </dc:creator>
   </cc:Work>
  </rdf:RDF>
 </metadata>
 <defs>
  <style type="text/css">*{stroke-linejoin: round; stroke-linecap: butt}</style>
 </defs>
 <g id="figure_1">
  <g id="patch_1">
   <path d="M 0 612 
L 792 612 
L 792 0 
L 0 0 
z
" style="fill: #ffffff"/>
  </g>
  <g id="axes_1">
   <g id="line2d_1">
    <path d="M 0 306 
L 3.168 306.149853 
L 6.336 320.71919 
L 12.672 304.771211 
L 15.84 291.520029 
L 19.008 293.868262 
L 22.176 307.228789 
L 25.344 307.693323 
L 28.512 305.910088 
L 31.68 297.804996 
L 34.848 303.977013 
L 38.016 302.119013 
L 41.184 301.669535 
L 44.352 315.662311 
L 47.52 309.386541 
L 50.688 294.481742 
L 57.024 314.015306 
L 60.192 312.817187 
L 63.36 321.406844 
L 66.528 309.476442 
L 69.696 302.98805 
L 72.864 301.429821 
L 76.032 300.21636 
L 79.2 321.616099 
L 82.368 301.654553 
L 85.536 319.418226 
L 88.704 317.997079 
L 91.872 323.468841 
L 95.04 299.062991 
L 98.208 298.868285 
L 101.376 306.25475 
L 104.544 309.236706 
L 107.712 307.063953 
L 110.88 299.45242 
L 114.048 292.372389 
L 117.216 304.201784 
L 120.384 302.044099 
L 123.552 316.380834 
L 126.72 298.299178 
L 129.888 313.491157 
L 133.056 301.489749 
L 136.224 306.149853 
L 139.392 307.183833 
L 142.56 297.550435 
L 148.896 311.109515 
L 152.064 307.108908 
L 155.232 305.370618 
L 158.4 318.775038 
L 161.568 311.888499 
L 164.736 307.123893 
L 167.904 310.150676 
L 171.072 306.25475 
L 174.24 304.12686 
L 177.408 296.128109 
L 180.576 307.393624 
L 183.744 309.13182 
L 186.912 296.816764 
L 190.08 309.641258 
L 193.248 309.791089 
L 196.416 312.143151 
L 199.584 307.513504 
L 202.752 319.283615 
L 205.92 324.827705 
L 209.088 306.359647 
L 212.256 314.060231 
L 218.592 298.553772 
L 221.76 300.920447 
L 224.928 315.737162 
L 228.096 308.352647 
L 231.264 329.31681 
L 234.432 306.539471 
L 237.6 311.334229 
L 240.768 315.362894 
L 243.936 299.916766 
L 247.104 310.719998 
L 250.272 294.017883 
L 253.44 315.782072 
L 256.608 303.572431 
L 259.776 315.64734 
L 262.944 300.950409 
L 266.112 312.996919 
L 269.28 302.014133 
L 272.448 297.505513 
L 275.616 299.257703 
L 278.784 307.243774 
L 281.952 307.123893 
L 285.12 291.250909 
L 288.288 307.87314 
L 291.456 306.014985 
L 294.624 303.632369 
L 297.792 307.783232 
L 300.96 314.838873 
L 304.128 316.081463 
L 307.296 322.677092 
L 310.464 296.56225 
L 313.632 288.695465 
L 316.8 306.539471 
L 319.968 300.845541 
L 323.136 306.074927 
L 326.304 305.385603 
L 329.472 310.779925 
L 332.64 294.67628 
L 335.808 310.210606 
L 338.976 306.029971 
L 342.144 306.374633 
L 345.312 308.592396 
L 348.48 301.324948 
L 351.648 309.206739 
L 354.816 308.082926 
L 357.984 300.515964 
L 361.152 307.348669 
L 364.32 309.116836 
L 367.488 290.787478 
L 370.656 310.794906 
L 373.824 301.205094 
L 376.992 305.115869 
L 380.16 306.029971 
L 383.328 293.404476 
L 386.496 302.628442 
L 389.664 301.459785 
L 392.832 310.869814 
L 396 308.277725 
L 399.168 307.078938 
L 402.336 305.74525 
L 405.504 301.504731 
L 408.672 305.670323 
L 411.84 291.385466 
L 415.008 314.674169 
L 418.176 300.965391 
L 421.344 306.209794 
L 424.512 308.187818 
L 427.68 304.726256 
L 430.848 307.558459 
L 434.016 299.751995 
L 437.184 307.708307 
L 440.352 302.838212 
L 443.52 305.280707 
L 446.688 303.587415 
L 449.856 313.311439 
L 453.024 303.767229 
L 456.192 314.644223 
L 459.36 311.903479 
L 462.528 304.366617 
L 465.696 300.710713 
L 468.864 297.340804 
L 472.032 313.266508 
L 475.2 304.666316 
L 478.368 310.809888 
L 481.536 308.93703 
L 484.704 315.871891 
L 487.872 308.757222 
L 491.04 305.14584 
L 494.208 300.665771 
L 497.376 303.242778 
L 500.544 306.404603 
L 503.712 304.201784 
L 506.88 323.080465 
L 510.048 303.077954 
L 513.216 305.220766 
L 516.384 314.224953 
L 519.552 305.115869 
L 522.72 304.411572 
L 525.888 309.970884 
L 529.056 312.862121 
L 532.224 317.159104 
L 535.392 311.873519 
L 538.56 305.74525 
L 541.728 297.116209 
L 544.896 318.146699 
L 548.064 312.367837 
L 551.232 298.553772 
L 554.4 294.825931 
L 557.568 308.09791 
L 560.736 305.865132 
L 563.904 309.611292 
L 567.072 302.838212 
L 570.24 306.494515 
L 573.408 307.723292 
L 576.576 303.033002 
L 579.744 304.876107 
L 582.912 301.594624 
L 586.08 304.12686 
L 589.248 304.426556 
L 592.416 304.891092 
L 595.584 302.718343 
L 598.752 304.906077 
L 601.92 299.107924 
L 605.088 325.24567 
L 608.256 297.056319 
L 611.424 299.886808 
L 614.592 307.993018 
L 617.76 304.696286 
L 620.928 299.961705 
L 624.096 292.013474 
L 627.264 301.115204 
L 630.432 298.658608 
L 633.6 298.943171 
L 636.768 307.318699 
L 639.936 292.761256 
L 643.104 306.134868 
L 646.272 311.903479 
L 649.44 303.302714 
L 652.608 309.985867 
L 655.776 305.865132 
L 658.944 304.336647 
L 662.112 307.423594 
L 665.28 306.659353 
L 668.448 302.478608 
L 671.616 300.740675 
L 674.784 315.782072 
L 677.952 300.770636 
L 681.12 300.665771 
L 684.288 310.645089 
L 687.456 295.379684 
L 690.624 302.658409 
L 693.792 315.991648 
L 696.96 308.892078 
L 700.128 302.133996 
L 703.296 305.310677 
L 706.464 295.918537 
L 709.632 304.711271 
L 712.8 304.321662 
L 715.968 312.787231 
L 719.136 304.531451 
L 722.304 304.531451 
L 725.472 302.089047 
L 728.64 294.451814 
L 731.808 317.608041 
L 734.976 304.786196 
L 738.144 305.4905 
L 741.312 307.528489 
L 744.48 305.20578 
L 747.648 303.632369 
L 753.984 293.643843 
L 757.152 303.977013 
L 760.32 294.002921 
L 763.488 312.63745 
L 766.656 308.817158 
L 769.824 303.991997 
L 772.992 296.577221 
L 776.16 306.284721 
L 779.328 310.075763 
L 782.496 308.996966 
L 785.664 309.476442 
L 788.832 306.494515 
L 788.832 306.494515 
" clip-path="url(#pbff20f14a5)" style="fill: none; stroke: #000000; stroke-width: 1.5; stroke-linecap: square"/>
   </g>
   <g id="line2d_2">
    <path d="M 0 306 
L 6.336 306.099902 
L 9.504 314.458122 
L 12.672 313.55905 
L 15.84 309.024033 
L 19.008 300.128383 
L 22.176 296.972733 
L 25.344 302.119777 
L 28.512 304.909779 
L 31.68 305.409462 
L 34.848 301.561604 
L 38.016 302.752012 
L 44.352 302.069834 
L 47.52 308.910235 
L 50.688 309.152621 
L 53.856 301.788865 
L 57.024 302.991928 
L 60.192 308.53622 
L 63.36 310.694264 
L 66.528 316.091442 
L 69.696 312.800036 
L 72.864 307.869673 
L 76.032 304.633995 
L 79.2 302.436243 
L 82.368 312.066257 
L 85.536 306.836413 
L 88.704 313.143286 
L 91.872 315.564092 
L 95.04 319.546146 
L 98.208 309.300577 
L 101.376 304.07885 
L 104.544 305.178631 
L 107.712 307.183422 
L 110.88 307.134295 
L 114.048 303.253766 
L 117.216 297.760249 
L 120.384 300.942654 
L 123.552 301.499208 
L 126.72 308.976106 
L 129.888 303.621321 
L 133.056 308.565248 
L 136.224 305.016438 
L 139.392 305.596278 
L 142.56 306.419118 
L 145.728 301.970889 
L 148.896 303.158221 
L 152.064 307.123717 
L 155.232 307.133589 
L 158.4 306.23618 
L 161.568 312.542235 
L 164.736 312.226623 
L 167.904 309.675396 
L 171.072 309.937745 
L 174.24 308.100085 
L 177.408 306.099785 
L 180.576 301.091117 
L 183.744 304.24615 
L 186.912 306.670107 
L 190.08 301.712778 
L 193.248 305.6819 
L 196.416 307.735868 
L 199.584 309.951259 
L 202.752 308.739065 
L 209.088 319.481747 
L 212.256 312.918449 
L 215.424 313.523165 
L 218.592 309.927992 
L 221.76 304.218238 
L 224.928 302.547238 
L 228.096 309.15979 
L 231.264 308.734775 
L 234.432 319.049397 
L 237.6 312.797628 
L 240.768 312.060618 
L 243.936 313.729658 
L 247.104 306.826306 
L 250.272 308.792479 
L 253.44 301.359905 
L 256.608 308.58699 
L 259.776 306.029148 
L 262.944 310.8573 
L 266.112 305.883467 
L 269.28 309.436016 
L 272.448 305.729148 
L 275.616 301.590628 
L 278.784 300.434365 
L 281.952 303.822054 
L 285.12 305.479922 
L 288.288 298.313449 
L 291.456 303.106159 
L 294.624 304.546847 
L 297.792 304.092777 
L 300.96 305.958159 
L 304.128 310.429994 
L 307.296 313.273674 
L 310.464 318.008697 
L 313.632 307.297485 
L 316.8 297.951455 
L 319.968 302.245752 
L 323.136 301.540159 
L 326.304 303.804073 
L 329.472 304.576288 
L 332.64 307.667878 
L 335.808 301.114969 
L 338.976 305.689481 
L 345.312 306.133869 
L 348.48 307.378345 
L 351.648 304.342171 
L 354.816 306.781996 
L 357.984 307.427179 
L 361.152 303.982772 
L 367.488 307.394564 
L 370.656 299.055355 
L 373.824 304.929054 
L 376.992 303.06673 
L 383.328 305.052579 
L 386.496 299.212123 
L 389.664 300.910871 
L 392.832 301.170313 
L 396 306.059471 
L 399.168 307.163677 
L 402.336 307.132825 
L 405.504 306.440274 
L 408.672 303.963497 
L 411.84 304.840965 
L 415.008 298.087347 
L 418.176 306.406954 
L 421.344 303.666568 
L 424.512 304.934108 
L 427.68 306.563153 
L 430.848 305.642703 
L 434.016 306.612458 
L 437.184 303.170267 
L 440.352 305.471284 
L 443.52 304.131502 
L 446.688 304.714562 
L 449.856 304.145841 
L 453.024 308.7393 
L 456.192 306.251401 
L 459.36 310.462544 
L 462.528 311.206863 
L 472.032 300.774749 
L 475.2 307.040035 
L 478.368 305.836219 
L 481.536 308.337016 
L 484.704 308.625832 
L 487.872 312.257521 
L 491.04 310.516127 
L 494.208 307.839821 
L 497.376 304.259079 
L 500.544 303.731266 
L 503.712 305.071325 
L 506.88 304.623594 
L 510.048 313.886931 
L 513.216 308.458125 
L 516.384 306.832535 
L 519.552 310.547207 
L 522.72 307.840409 
L 525.888 306.128286 
L 529.056 308.056659 
L 532.224 310.476644 
L 535.392 313.807179 
L 538.56 312.857657 
L 541.728 309.302928 
L 544.896 303.174909 
L 548.064 310.689153 
L 551.232 311.544134 
L 554.4 305.026135 
L 557.568 299.888981 
L 560.736 303.975309 
L 563.904 304.908428 
L 567.072 307.267515 
L 570.24 305.064038 
L 573.408 305.756415 
L 576.576 306.730753 
L 579.744 304.890622 
L 582.912 304.90308 
L 586.08 303.23602 
L 595.584 304.47063 
L 598.752 303.587063 
L 601.92 304.241038 
L 605.088 301.66648 
L 608.256 313.507132 
L 611.424 305.272303 
L 614.592 302.570976 
L 617.76 305.288934 
L 620.928 304.992227 
L 624.096 302.471322 
L 627.264 297.21456 
L 630.432 299.16854 
L 633.6 298.861413 
L 636.768 298.905992 
L 639.936 303.126372 
L 643.104 297.91164 
L 646.272 302.025356 
L 649.44 306.988087 
L 652.608 305.167524 
L 655.776 307.594187 
L 658.944 306.743799 
L 662.112 305.550794 
L 665.28 306.487404 
L 668.448 306.600646 
L 671.616 304.532391 
L 674.784 302.614516 
L 677.952 309.224249 
L 681.12 304.979181 
L 684.288 302.812123 
L 687.456 306.741096 
L 690.624 301.035068 
L 693.792 301.838866 
L 696.96 308.943318 
L 700.128 308.933681 
L 703.296 305.507013 
L 706.464 305.417748 
L 709.632 300.657546 
L 712.8 302.672629 
L 715.968 303.514668 
L 719.136 308.171305 
L 722.304 306.328913 
L 725.472 305.421627 
L 728.64 303.755182 
L 731.808 299.080612 
L 734.976 308.389021 
L 738.144 306.587776 
L 741.312 306.04143 
L 744.48 306.774651 
L 747.648 305.991538 
L 750.816 304.810172 
L 753.984 301.727232 
L 757.152 297.6825 
L 760.32 300.802478 
L 763.488 297.380498 
L 766.656 305.022374 
L 769.824 306.922328 
L 772.992 305.45477 
L 776.16 301.001111 
L 779.328 303.657695 
L 782.496 306.899057 
L 785.664 307.957877 
L 788.832 308.747527 
L 788.832 308.747527 
" clip-path="url(#pbff20f14a5)" style="fill: none; stroke: #000000; stroke-width: 1.5; stroke-linecap: square"/>
   </g>
   <g id="line2d_3">
    <path d="M 0 306 
L 6.336 306.087782 
L 9.504 312.721077 
L 12.672 312.741063 
L 15.84 309.905971 
L 19.008 303.74811 
L 22.176 300.572295 
L 25.344 302.651657 
L 28.512 304.196538 
L 31.68 304.714608 
L 34.848 302.644642 
L 38.016 303.041067 
L 44.352 302.44371 
L 47.52 306.337689 
L 50.688 307.234213 
L 53.856 303.484331 
L 57.024 303.692228 
L 60.192 306.708582 
L 63.36 308.498078 
L 66.528 312.301058 
L 69.696 311.494468 
L 72.864 309.01377 
L 76.032 306.785789 
L 79.2 304.852864 
L 82.368 309.784537 
L 85.536 307.407784 
L 88.704 310.945405 
L 91.872 313.029907 
L 95.04 316.115218 
L 98.208 311.103451 
L 101.376 307.507715 
L 104.544 307.154262 
L 107.712 307.769998 
L 110.88 307.555218 
L 114.048 305.166329 
L 117.216 301.383403 
L 120.384 302.20277 
L 123.552 302.155212 
L 126.72 306.340002 
L 129.888 303.982249 
L 133.056 306.758414 
L 136.224 305.214975 
L 139.392 305.473544 
L 142.56 305.96205 
L 145.728 303.467979 
L 148.896 303.728461 
L 152.064 305.904494 
L 155.232 306.258241 
L 158.4 305.993821 
L 161.568 309.752801 
L 164.736 310.392663 
L 167.904 309.452285 
L 171.072 309.663675 
L 174.24 308.670117 
L 177.408 307.325381 
L 180.576 304.042309 
L 183.744 305.016868 
L 186.912 306.230918 
L 190.08 303.462103 
L 193.248 305.274769 
L 196.416 306.611686 
L 199.584 308.240984 
L 202.752 308.023782 
L 205.92 311.33763 
L 209.088 315.315635 
L 212.256 312.679193 
L 215.424 313.086215 
L 218.592 311.111186 
L 221.76 307.419777 
L 224.928 305.509911 
L 228.096 308.519649 
L 231.264 308.484779 
L 234.432 314.622592 
L 237.6 312.252867 
L 240.768 312.000488 
L 243.936 312.992072 
L 247.104 309.151575 
L 250.272 309.609341 
L 253.44 305.025527 
L 256.608 308.172956 
L 259.776 306.801061 
L 262.944 309.403546 
L 266.112 306.912581 
L 269.28 308.702574 
L 272.448 306.747533 
L 275.616 304.036072 
L 278.784 302.617386 
L 281.952 303.971084 
L 285.12 304.868963 
L 288.288 300.859884 
L 291.456 302.909813 
L 294.624 303.80852 
L 297.792 303.761194 
L 300.96 304.93583 
L 304.128 307.860983 
L 307.296 310.269858 
L 310.464 313.929081 
L 313.632 308.820824 
L 316.8 302.906895 
L 319.968 303.963389 
L 323.136 303.048778 
L 326.304 303.944928 
L 329.472 304.373925 
L 332.64 306.254364 
L 335.808 302.847515 
L 338.976 305.025907 
L 345.312 305.627803 
L 348.48 306.501827 
L 351.648 304.978033 
L 354.816 306.210152 
L 357.984 306.749492 
L 361.152 304.898094 
L 364.32 305.628243 
L 367.488 306.673536 
L 370.656 301.999063 
L 373.824 304.586698 
L 376.992 303.590583 
L 380.16 304.03701 
L 383.328 304.615269 
L 386.496 301.328511 
L 389.664 301.700529 
L 392.832 301.624768 
L 396 304.337669 
L 399.168 305.491324 
L 402.336 305.962936 
L 405.504 305.895201 
L 408.672 304.601621 
L 411.84 304.920555 
L 415.008 300.935072 
L 418.176 304.965903 
L 421.344 303.805786 
L 424.512 304.504622 
L 427.68 305.591429 
L 430.848 305.337577 
L 434.016 305.989817 
L 437.184 304.169867 
L 440.352 305.212078 
L 443.52 304.51835 
L 446.688 304.735218 
L 449.856 304.393642 
L 453.024 307.013158 
L 456.192 306.060166 
L 459.36 308.590085 
L 462.528 309.567813 
L 465.696 308.059419 
L 468.864 305.890859 
L 472.032 303.381827 
L 475.2 306.285445 
L 478.368 305.807166 
L 481.536 307.279526 
L 484.704 307.766593 
L 487.872 310.159862 
L 491.04 309.750258 
L 494.208 308.404389 
L 497.376 306.132375 
L 500.544 305.285615 
L 503.712 305.605424 
L 506.88 305.194802 
L 510.048 310.44799 
L 513.216 308.279372 
L 516.384 307.384528 
L 519.552 309.404014 
L 522.72 308.157041 
L 525.888 307.049863 
L 529.056 307.911547 
L 532.224 309.364113 
L 535.392 311.657564 
L 538.56 311.716222 
L 541.728 309.964154 
L 544.896 306.191278 
L 548.064 309.714714 
L 551.232 310.502351 
L 557.568 303.417513 
L 560.736 304.771113 
L 563.904 305.094743 
L 567.072 306.4227 
L 570.24 305.359715 
L 573.408 305.693673 
L 576.576 306.291944 
L 579.744 305.329427 
L 582.912 305.187478 
L 586.08 304.117205 
L 592.416 304.202005 
L 595.584 304.412765 
L 598.752 303.898738 
L 601.92 304.185206 
L 605.088 302.698513 
L 608.256 309.344624 
L 611.424 305.732125 
L 614.592 304.012993 
L 617.76 305.176847 
L 620.928 305.038228 
L 624.096 303.543665 
L 627.264 300.146315 
L 630.432 300.427883 
L 633.6 299.90249 
L 636.768 299.618453 
L 639.936 301.877067 
L 643.104 299.192225 
L 646.272 301.226699 
L 649.44 304.364363 
L 652.608 304.051566 
L 655.776 305.802226 
L 658.944 305.798361 
L 662.112 305.378596 
L 665.28 305.986222 
L 668.448 306.181846 
L 671.616 305.094602 
L 674.784 303.820145 
L 677.952 307.35197 
L 681.12 305.423804 
L 684.288 304.032383 
L 687.456 305.982728 
L 690.624 302.86231 
L 693.792 302.813964 
L 696.96 306.685902 
L 700.128 307.328634 
L 703.296 305.805763 
L 706.464 305.655385 
L 709.632 302.791148 
L 712.8 303.35395 
L 715.968 303.633819 
L 719.136 306.322124 
L 722.304 305.800003 
L 725.472 305.432805 
L 728.64 304.43766 
L 731.808 301.504316 
L 734.976 306.241859 
L 738.144 305.808773 
L 741.312 305.727171 
L 744.48 306.260363 
L 747.648 305.939089 
L 750.816 305.257413 
L 753.984 303.320329 
L 757.152 300.471328 
L 760.32 301.507268 
L 763.488 299.296031 
L 766.656 303.212819 
L 769.824 304.849705 
L 772.992 304.597866 
L 776.16 302.238844 
L 779.328 303.4286 
L 782.496 305.393489 
L 785.664 306.439053 
L 788.832 307.334107 
L 788.832 307.334107 
" clip-path="url(#pbff20f14a5)" style="fill: none; stroke: #000000; stroke-width: 1.5; stroke-linecap: square"/>
   </g>
   <g id="line2d_4">
    <path d="M 0 306 
L 6.336 306.081402 
L 9.504 311.829966 
L 12.672 312.129821 
L 15.84 310.110018 
L 19.008 305.532169 
L 22.176 302.889916 
L 25.344 303.81031 
L 28.512 304.592543 
L 31.68 304.847181 
L 34.848 303.530792 
L 38.016 303.611928 
L 44.352 303.053797 
L 47.52 305.221408 
L 50.688 305.928297 
L 53.856 304.005199 
L 57.024 304.037923 
L 60.192 305.686911 
L 63.36 306.858142 
L 66.528 309.237373 
L 69.696 309.276269 
L 76.032 307.153417 
L 79.2 306.034905 
L 82.368 308.543751 
L 85.536 307.437367 
L 88.704 309.359829 
L 91.872 310.743853 
L 95.04 312.781941 
L 98.208 310.589419 
L 101.376 308.717243 
L 104.544 308.325626 
L 107.712 308.472511 
L 110.88 308.239883 
L 114.048 306.833327 
L 117.216 304.523376 
L 120.384 304.480128 
L 123.552 304.097631 
L 126.72 306.058259 
L 129.888 304.817646 
L 133.056 306.202597 
L 136.224 305.455015 
L 139.392 305.566922 
L 142.56 305.827339 
L 145.728 304.507553 
L 148.896 304.473293 
L 152.064 305.53028 
L 155.232 305.789328 
L 158.4 305.723439 
L 161.568 307.804129 
L 164.736 308.453468 
L 167.904 308.233014 
L 171.072 308.538557 
L 174.24 308.177246 
L 177.408 307.534512 
L 180.576 305.716625 
L 183.744 305.974561 
L 186.912 306.481575 
L 190.08 304.929326 
L 199.584 307.255086 
L 202.752 307.301597 
L 205.92 309.21733 
L 209.088 311.713963 
L 212.256 310.861783 
L 215.424 311.37987 
L 218.592 310.587596 
L 221.76 308.669434 
L 224.928 307.435813 
L 228.096 308.756643 
L 231.264 308.69864 
L 234.432 311.995463 
L 237.6 311.13071 
L 240.768 311.166325 
L 243.936 311.839289 
L 247.104 309.9441 
L 250.272 310.071534 
L 253.44 307.505887 
L 256.608 308.828532 
L 259.776 307.991177 
L 262.944 309.207761 
L 266.112 307.887163 
L 269.28 308.703952 
L 272.448 307.634509 
L 275.616 306.017155 
L 278.784 304.938494 
L 285.12 305.600286 
L 288.288 303.304334 
L 291.456 304.03812 
L 294.624 304.350377 
L 297.792 304.232295 
L 300.96 304.794534 
L 307.296 307.936876 
L 310.464 310.283125 
L 313.632 308.093696 
L 316.8 304.98862 
L 319.968 305.235486 
L 323.136 304.538393 
L 326.304 304.786074 
L 329.472 304.875 
L 332.64 305.816067 
L 335.808 304.021247 
L 338.976 305.008309 
L 345.312 305.353989 
L 348.48 305.874654 
L 351.648 305.144861 
L 354.816 305.800618 
L 357.984 306.158941 
L 361.152 305.259124 
L 364.32 305.586398 
L 367.488 306.153216 
L 370.656 303.692653 
L 373.824 304.828158 
L 376.992 304.253976 
L 380.16 304.394761 
L 383.328 304.654167 
L 386.496 302.854707 
L 389.664 302.825813 
L 392.832 302.604462 
L 396 303.922518 
L 399.168 304.618335 
L 402.336 305.009382 
L 405.504 305.120786 
L 408.672 304.536319 
L 411.84 304.70612 
L 415.008 302.581886 
L 418.176 304.522296 
L 421.344 303.95285 
L 424.512 304.315276 
L 427.68 304.932726 
L 430.848 304.899464 
L 434.016 305.320509 
L 437.184 304.437582 
L 440.352 304.9564 
L 443.52 304.617386 
L 446.688 304.722239 
L 449.856 304.538559 
L 453.024 305.942047 
L 456.192 305.592626 
L 459.36 307.037224 
L 462.528 307.818667 
L 465.696 307.267581 
L 468.864 306.219037 
L 472.032 304.810212 
L 475.2 306.157394 
L 478.368 305.922317 
L 481.536 306.703561 
L 484.704 307.060739 
L 487.872 308.477145 
L 491.04 308.52553 
L 494.208 307.990129 
L 497.376 306.818366 
L 500.544 306.246325 
L 503.712 306.271087 
L 506.88 305.940887 
L 510.048 308.684087 
L 513.216 307.790537 
L 516.384 307.390324 
L 519.552 308.477727 
L 525.888 307.382087 
L 529.056 307.795109 
L 532.224 308.606503 
L 535.392 309.973863 
L 538.56 310.283692 
L 541.728 309.56046 
L 544.896 307.576687 
L 548.064 309.267349 
L 551.232 309.766187 
L 554.4 307.972941 
L 557.568 305.874855 
L 560.736 306.22447 
L 563.904 306.16353 
L 567.072 306.715379 
L 570.24 306.099819 
L 573.408 306.168329 
L 576.576 306.412273 
L 579.744 305.873585 
L 582.912 305.711179 
L 586.08 305.051594 
L 592.416 304.81956 
L 595.584 304.830782 
L 598.752 304.495954 
L 601.92 304.562244 
L 605.088 303.689738 
L 608.256 307.136515 
L 611.424 305.516069 
L 614.592 304.618321 
L 617.76 305.156976 
L 620.928 305.077732 
L 624.096 304.260429 
L 627.264 302.302765 
L 630.432 302.108287 
L 633.6 301.55048 
L 636.768 301.124228 
L 639.936 302.106813 
L 643.104 300.61086 
L 646.272 301.495235 
L 649.44 303.14725 
L 652.608 303.166329 
L 655.776 304.258462 
L 658.944 304.520976 
L 662.112 304.489302 
L 665.28 304.957126 
L 668.448 305.226113 
L 671.616 304.788731 
L 674.784 304.141015 
L 677.952 305.998691 
L 684.288 304.446789 
L 687.456 305.438654 
L 690.624 303.832133 
L 693.792 303.644281 
L 696.96 305.616246 
L 700.128 306.141308 
L 703.296 305.501968 
L 706.464 305.475404 
L 709.632 303.936006 
L 715.968 304.107871 
L 719.136 305.491938 
L 725.472 305.213381 
L 728.64 304.722553 
L 731.808 303.08349 
L 734.976 305.407039 
L 738.144 305.311907 
L 741.312 305.339181 
L 744.48 305.696728 
L 747.648 305.618036 
L 750.816 305.296942 
L 753.984 304.237655 
L 757.152 302.541002 
L 760.32 302.76829 
L 763.488 301.366511 
L 766.656 303.162961 
L 769.824 304.063881 
L 772.992 304.053388 
L 776.16 302.860918 
L 779.328 303.399699 
L 782.496 304.46769 
L 788.832 305.87424 
L 788.832 305.87424 
" clip-path="url(#pbff20f14a5)" style="fill: none; stroke: #000000; stroke-width: 1.5; stroke-linecap: square"/>
   </g>
   <g id="line2d_5">
    <path d="M 0 306 
L 6.336 306.07817 
L 9.504 311.39049 
L 12.672 311.78206 
L 15.84 310.127314 
L 19.008 306.315867 
L 22.176 304.042914 
L 28.512 305.050179 
L 31.68 305.173323 
L 34.848 304.177808 
L 38.016 304.152028 
L 44.352 303.638602 
L 47.52 305.01088 
L 50.688 305.495109 
L 53.856 304.308596 
L 57.024 304.297371 
L 60.192 305.29671 
L 63.36 306.055024 
L 66.528 307.576944 
L 69.696 307.762129 
L 76.032 306.746217 
L 79.2 306.134038 
L 82.368 307.57116 
L 85.536 307.027707 
L 88.704 308.15653 
L 91.872 309.04578 
L 95.04 310.340456 
L 101.376 308.409296 
L 104.544 308.219612 
L 107.712 308.308712 
L 110.88 308.200173 
L 114.048 307.440512 
L 117.216 306.136326 
L 120.384 305.969568 
L 123.552 305.632257 
L 126.72 306.553463 
L 129.888 305.848041 
L 133.056 306.499635 
L 136.224 306.073541 
L 142.56 306.173525 
L 145.728 305.444112 
L 148.896 305.350603 
L 152.064 305.836195 
L 155.232 305.943361 
L 158.4 305.895193 
L 161.568 306.977825 
L 164.736 307.389999 
L 167.904 307.367688 
L 171.072 307.600845 
L 174.24 307.488167 
L 177.408 307.206998 
L 180.576 306.280579 
L 183.744 306.373569 
L 186.912 306.603888 
L 190.08 305.786855 
L 196.416 306.415489 
L 199.584 306.892962 
L 202.752 306.944667 
L 205.92 307.973744 
L 209.088 309.380506 
L 212.256 309.125127 
L 215.424 309.535237 
L 218.592 309.270964 
L 221.76 308.383717 
L 224.928 307.766579 
L 228.096 308.431115 
L 231.264 308.424817 
L 234.432 310.169948 
L 237.6 309.871507 
L 240.768 309.995309 
L 243.936 310.445246 
L 247.104 309.570913 
L 250.272 309.664677 
L 253.44 308.360657 
L 256.608 308.983765 
L 259.776 308.534466 
L 262.944 309.125548 
L 266.112 308.443191 
L 269.28 308.81846 
L 272.448 308.251313 
L 275.616 307.357517 
L 278.784 306.684475 
L 285.12 306.760888 
L 288.288 305.469286 
L 291.456 305.665037 
L 294.624 305.690179 
L 297.792 305.512923 
L 300.96 305.70419 
L 307.296 307.269131 
L 310.464 308.553629 
L 313.632 307.554767 
L 316.8 305.984492 
L 319.968 306.035167 
L 323.136 305.603317 
L 329.472 305.618763 
L 332.64 306.051214 
L 335.808 305.100588 
L 338.976 305.527557 
L 345.312 305.635799 
L 348.48 305.884784 
L 351.648 305.505326 
L 354.816 305.811919 
L 357.984 306.000723 
L 361.152 305.543881 
L 364.32 305.68995 
L 367.488 305.973475 
L 370.656 304.706743 
L 373.824 305.212273 
L 376.992 304.878021 
L 383.328 304.995248 
L 386.496 304.028138 
L 392.832 303.708001 
L 396 304.302814 
L 399.168 304.63222 
L 402.336 304.833637 
L 405.504 304.908721 
L 408.672 304.620392 
L 411.84 304.701289 
L 415.008 303.590371 
L 418.176 304.51064 
L 421.344 304.21462 
L 424.512 304.3827 
L 427.68 304.700872 
L 430.848 304.699394 
L 434.016 304.936425 
L 437.184 304.496436 
L 440.352 304.763386 
L 443.52 304.600833 
L 446.688 304.653977 
L 449.856 304.56665 
L 453.024 305.293383 
L 456.192 305.169891 
L 459.36 305.956041 
L 462.528 306.452426 
L 465.696 306.275639 
L 468.864 305.813651 
L 472.032 305.105153 
L 475.2 305.786286 
L 478.368 305.695664 
L 481.536 306.123917 
L 484.704 306.357953 
L 487.872 307.150699 
L 491.04 307.289739 
L 494.208 307.110918 
L 497.376 306.574215 
L 500.544 306.297586 
L 503.712 306.30602 
L 506.88 306.127912 
L 510.048 307.53865 
L 513.216 307.162045 
L 516.384 307.003747 
L 519.552 307.611546 
L 525.888 307.156763 
L 529.056 307.391606 
L 532.224 307.848152 
L 535.392 308.623368 
L 538.56 308.898749 
L 541.728 308.635582 
L 544.896 307.676455 
L 548.064 308.549762 
L 551.232 308.867923 
L 554.4 308.010914 
L 557.568 306.911542 
L 560.736 307.010013 
L 563.904 306.916734 
L 567.072 307.141119 
L 570.24 306.781945 
L 576.576 306.84189 
L 579.744 306.526357 
L 582.912 306.389314 
L 586.08 305.989906 
L 592.416 305.722147 
L 595.584 305.654289 
L 598.752 305.407954 
L 601.92 305.365203 
L 605.088 304.843187 
L 608.256 306.544972 
L 611.424 305.755792 
L 614.592 305.266742 
L 617.76 305.498422 
L 620.928 305.428599 
L 624.096 304.97448 
L 627.264 303.893366 
L 630.432 303.660468 
L 636.768 302.883514 
L 639.936 303.254055 
L 643.104 302.377743 
L 646.272 302.690616 
L 649.44 303.457403 
L 652.608 303.444472 
L 655.776 303.986292 
L 658.944 304.142907 
L 662.112 304.155631 
L 668.448 304.611547 
L 671.616 304.43509 
L 674.784 304.129543 
L 677.952 305.097733 
L 684.288 304.396037 
L 687.456 304.91526 
L 690.624 304.116839 
L 693.792 303.993806 
L 696.96 304.993382 
L 700.128 305.31964 
L 703.296 305.054869 
L 706.464 305.075744 
L 709.632 304.312747 
L 715.968 304.338735 
L 719.136 305.042469 
L 725.472 304.95808 
L 728.64 304.719192 
L 731.808 303.861561 
L 734.976 305.004443 
L 741.312 305.022402 
L 744.48 305.230977 
L 747.648 305.231519 
L 750.816 305.094067 
L 753.984 304.555379 
L 757.152 303.647644 
L 760.32 303.67796 
L 763.488 302.869939 
L 766.656 303.682838 
L 769.824 304.108698 
L 772.992 304.099388 
L 776.16 303.471637 
L 779.328 303.704634 
L 782.496 304.235704 
L 788.832 305.036834 
L 788.832 305.036834 
" clip-path="url(#pbff20f14a5)" style="fill: none; stroke: #000000; stroke-width: 1.5; stroke-linecap: square"/>
   </g>
   <g id="line2d_6">
    <path d="M 0 306 
L 6.336 306.076549 
L 9.504 311.173799 
L 12.672 311.599774 
L 15.84 310.113485 
L 19.008 306.667731 
L 22.176 304.592236 
L 28.512 305.330971 
L 31.68 305.400806 
L 34.848 304.551053 
L 38.016 304.491019 
L 44.352 304.01617 
L 47.52 305.049695 
L 50.688 305.417441 
L 53.856 304.527448 
L 57.024 304.50195 
L 60.192 305.221117 
L 63.36 305.776884 
L 66.528 306.887087 
L 69.696 307.06576 
L 76.032 306.440011 
L 79.2 306.041044 
L 82.368 307.019016 
L 85.536 306.689162 
L 88.704 307.457669 
L 91.872 308.082693 
L 95.04 308.980557 
L 101.376 307.871983 
L 104.544 307.781838 
L 107.712 307.861869 
L 110.88 307.818525 
L 114.048 307.369374 
L 117.216 306.572819 
L 123.552 306.21928 
L 126.72 306.742813 
L 129.888 306.3118 
L 133.056 306.675143 
L 136.224 306.414886 
L 142.56 306.440352 
L 145.728 306.003858 
L 148.896 305.922561 
L 152.064 306.173909 
L 158.4 306.178318 
L 161.568 306.778579 
L 164.736 307.020702 
L 167.904 307.025567 
L 171.072 307.172204 
L 177.408 306.989714 
L 180.576 306.486481 
L 186.912 306.648005 
L 190.08 306.1976 
L 202.752 306.800411 
L 205.92 307.363719 
L 209.088 308.150194 
L 212.256 308.069875 
L 215.424 308.338003 
L 218.592 308.249016 
L 221.76 307.817108 
L 224.928 307.510553 
L 228.096 307.875595 
L 231.264 307.896714 
L 234.432 308.845156 
L 237.6 308.743461 
L 240.768 308.857551 
L 243.936 309.143631 
L 247.104 308.738639 
L 250.272 308.825481 
L 253.44 308.177208 
L 256.608 308.5097 
L 259.776 308.294209 
L 262.944 308.614871 
L 266.112 308.281152 
L 269.28 308.486285 
L 272.448 308.205116 
L 278.784 307.37288 
L 285.12 307.356755 
L 288.288 306.659921 
L 294.624 306.682231 
L 297.792 306.550684 
L 300.96 306.603808 
L 307.296 307.351399 
L 310.464 308.011294 
L 313.632 307.519026 
L 316.8 306.70956 
L 319.968 306.702257 
L 323.136 306.450903 
L 329.472 306.389799 
L 332.64 306.577932 
L 335.808 306.067956 
L 338.976 306.245322 
L 345.312 306.242032 
L 348.48 306.342539 
L 351.648 306.128044 
L 357.984 306.33749 
L 361.152 306.088871 
L 367.488 306.269586 
L 370.656 305.608504 
L 373.824 305.82974 
L 376.992 305.632516 
L 383.328 305.628369 
L 386.496 305.107176 
L 392.832 304.850696 
L 396 305.107042 
L 402.336 305.320242 
L 405.504 305.338331 
L 408.672 305.175039 
L 411.84 305.195958 
L 415.008 304.605094 
L 418.176 305.032398 
L 421.344 304.859321 
L 434.016 305.151945 
L 437.184 304.921946 
L 440.352 305.041725 
L 446.688 304.962737 
L 449.856 304.904746 
L 453.024 305.260827 
L 456.192 305.196568 
L 459.36 305.600567 
L 462.528 305.869101 
L 465.696 305.803795 
L 468.864 305.58583 
L 472.032 305.232168 
L 475.2 305.573484 
L 478.368 305.535302 
L 491.04 306.423306 
L 494.208 306.366771 
L 497.376 306.122162 
L 500.544 305.996716 
L 506.88 305.939232 
L 510.048 306.669517 
L 516.384 306.46099 
L 519.552 306.792696 
L 525.888 306.625731 
L 529.056 306.768881 
L 532.224 307.026676 
L 535.392 307.459597 
L 538.56 307.646489 
L 541.728 307.566592 
L 544.896 307.12193 
L 548.064 307.591429 
L 551.232 307.796429 
L 554.4 307.403556 
L 557.568 306.867394 
L 567.072 306.989587 
L 570.24 306.812074 
L 579.744 306.675482 
L 582.912 306.599319 
L 586.08 306.388033 
L 601.92 305.962546 
L 605.088 305.669716 
L 608.256 306.503703 
L 611.424 306.09936 
L 614.592 305.831782 
L 617.76 305.923684 
L 620.928 305.870089 
L 624.096 305.618499 
L 627.264 305.040191 
L 633.6 304.607402 
L 636.768 304.365646 
L 639.936 304.487179 
L 643.104 303.987412 
L 646.272 304.07759 
L 649.44 304.408828 
L 652.608 304.362495 
L 655.776 304.600789 
L 668.448 304.838572 
L 674.784 304.567204 
L 677.952 305.045102 
L 684.288 304.686608 
L 687.456 304.939806 
L 690.624 304.532361 
L 693.792 304.454807 
L 696.96 304.945423 
L 700.128 305.113229 
L 703.296 304.986663 
L 706.464 304.999989 
L 709.632 304.61167 
L 715.968 304.598553 
L 719.136 304.948466 
L 728.64 304.79639 
L 731.808 304.355658 
L 734.976 304.919774 
L 741.312 304.939392 
L 747.648 305.055237 
L 750.816 304.994455 
L 753.984 304.724128 
L 757.152 304.252809 
L 760.32 304.240247 
L 763.488 303.803634 
L 766.656 304.180204 
L 769.824 304.377038 
L 772.992 304.359861 
L 776.16 304.030753 
L 779.328 304.125561 
L 788.832 304.784077 
L 788.832 304.784077 
" clip-path="url(#pbff20f14a5)" style="fill: none; stroke: #000000; stroke-width: 1.5; stroke-linecap: square"/>
   </g>
   <g id="line2d_7">
    <path d="M 0 306 
L 6.336 306.075738 
L 9.504 311.066401 
L 12.672 311.506853 
L 15.84 310.100966 
L 19.008 306.832353 
L 22.176 304.856886 
L 28.512 305.480833 
L 31.68 305.528061 
L 34.848 304.747295 
L 38.016 304.675184 
L 44.352 304.224046 
L 47.52 305.107804 
L 50.688 305.420843 
L 53.856 304.659537 
L 57.024 304.629157 
L 60.192 305.225404 
L 63.36 305.688172 
L 66.528 306.610528 
L 69.696 306.772539 
L 76.032 306.294369 
L 79.2 305.982859 
L 82.368 306.76148 
L 85.536 306.514336 
L 95.04 308.334003 
L 101.376 307.539461 
L 104.544 307.48556 
L 110.88 307.537655 
L 114.048 307.217676 
L 117.216 306.640348 
L 123.552 306.378004 
L 126.72 306.747987 
L 129.888 306.440331 
L 133.056 306.693297 
L 136.224 306.509292 
L 142.56 306.5204 
L 145.728 306.215619 
L 148.896 306.152581 
L 152.064 306.316905 
L 158.4 306.311358 
L 161.568 306.710988 
L 164.736 306.875179 
L 177.408 306.875619 
L 180.576 306.55073 
L 186.912 306.651899 
L 190.08 306.362082 
L 202.752 306.738249 
L 205.92 307.094369 
L 209.088 307.594622 
L 212.256 307.560063 
L 215.424 307.740823 
L 218.592 307.702254 
L 224.928 307.272812 
L 228.096 307.502548 
L 231.264 307.525483 
L 234.432 308.111314 
L 237.6 308.06937 
L 243.936 308.346446 
L 247.104 308.12491 
L 250.272 308.192783 
L 253.44 307.823676 
L 256.608 308.029956 
L 259.776 307.914979 
L 262.944 308.113637 
L 266.112 307.930444 
L 269.28 308.059501 
L 275.616 307.643328 
L 278.784 307.432245 
L 285.12 307.419933 
L 288.288 307.017112 
L 294.624 307.013046 
L 300.96 306.950697 
L 307.296 307.362218 
L 310.464 307.7354 
L 313.632 307.464151 
L 316.8 307.009469 
L 319.968 306.998126 
L 323.136 306.850023 
L 332.64 306.89194 
L 335.808 306.600766 
L 342.144 306.671005 
L 367.488 306.612661 
L 370.656 306.244056 
L 373.824 306.349786 
L 380.16 306.204674 
L 383.328 306.200637 
L 386.496 305.905266 
L 392.832 305.729294 
L 399.168 305.903041 
L 405.504 305.925736 
L 411.84 305.821303 
L 415.008 305.492476 
L 418.176 305.701235 
L 421.344 305.593716 
L 440.352 305.602673 
L 449.856 305.49085 
L 453.024 305.666386 
L 456.192 305.623809 
L 462.528 305.961888 
L 468.864 305.809737 
L 472.032 305.62072 
L 475.2 305.791199 
L 478.368 305.766143 
L 491.04 306.224529 
L 497.376 306.077896 
L 506.88 305.983416 
L 510.048 306.36172 
L 516.384 306.265599 
L 519.552 306.441226 
L 529.056 306.447271 
L 541.728 306.906055 
L 544.896 306.691045 
L 548.064 306.942583 
L 551.232 307.0616 
L 557.568 306.610923 
L 567.072 306.691766 
L 573.408 306.605013 
L 579.744 306.550892 
L 595.584 306.284059 
L 605.088 306.024049 
L 608.256 306.443019 
L 614.592 306.10051 
L 620.928 306.110244 
L 624.096 305.976603 
L 627.264 305.673028 
L 639.936 305.32731 
L 643.104 305.054511 
L 646.272 305.077943 
L 649.44 305.22596 
L 652.608 305.184267 
L 658.944 305.300832 
L 665.28 305.326371 
L 671.616 305.292958 
L 674.784 305.194425 
L 677.952 305.42359 
L 684.288 305.222181 
L 687.456 305.339456 
L 690.624 305.124032 
L 693.792 305.070732 
L 696.96 305.306831 
L 700.128 305.384303 
L 715.968 305.085529 
L 719.136 305.251801 
L 728.64 305.153465 
L 731.808 304.922484 
L 734.976 305.196225 
L 753.984 305.067498 
L 757.152 304.821181 
L 760.32 304.802992 
L 763.488 304.570183 
L 769.824 304.83172 
L 772.992 304.813635 
L 776.16 304.636205 
L 782.496 304.788055 
L 788.832 304.977638 
L 788.832 304.977638 
" clip-path="url(#pbff20f14a5)" style="fill: none; stroke: #000000; stroke-width: 1.5; stroke-linecap: square"/>
   </g>
   <g id="line2d_8">
    <path d="M 0 306 
L 6.336 306.075332 
L 9.504 311.012961 
L 12.672 311.459991 
L 15.84 310.093318 
L 19.008 306.9117 
L 22.176 304.986334 
L 28.512 305.557594 
L 31.68 305.594586 
L 34.848 304.847292 
L 38.016 304.77037 
L 44.352 304.332112 
L 47.52 305.146277 
L 50.688 305.433369 
L 53.856 304.731495 
L 57.024 304.699279 
L 60.192 305.238947 
L 63.36 305.658164 
L 66.528 306.49278 
L 69.696 306.644384 
L 76.032 306.228745 
L 79.2 305.955674 
L 82.368 306.643643 
L 85.536 306.431668 
L 95.04 308.032229 
L 101.376 307.368811 
L 107.712 307.395594 
L 110.88 307.384271 
L 114.048 307.119612 
L 117.216 306.638179 
L 123.552 306.419173 
L 126.72 306.724507 
L 129.888 306.471346 
L 133.056 306.678291 
L 136.224 306.528163 
L 142.56 306.536022 
L 145.728 306.28928 
L 148.896 306.236553 
L 155.232 306.385479 
L 158.4 306.359335 
L 161.568 306.67465 
L 164.736 306.805096 
L 177.408 306.813625 
L 180.576 306.563657 
L 186.912 306.640978 
L 190.08 306.419459 
L 202.752 306.70331 
L 209.088 307.348744 
L 212.256 307.328096 
L 215.424 307.467269 
L 218.592 307.444295 
L 224.928 307.136694 
L 228.096 307.307845 
L 231.264 307.328441 
L 234.432 307.758934 
L 240.768 307.804434 
L 243.936 307.94842 
L 247.104 307.796718 
L 250.272 307.851489 
L 253.44 307.594261 
L 256.608 307.745323 
L 259.776 307.668951 
L 262.944 307.813935 
L 266.112 307.690166 
L 269.28 307.785187 
L 275.616 307.502925 
L 278.784 307.358361 
L 285.12 307.352344 
L 288.288 307.075425 
L 304.128 307.155977 
L 310.464 307.557362 
L 313.632 307.37725 
L 316.8 307.072706 
L 326.304 306.949644 
L 354.816 306.804982 
L 357.984 306.824484 
L 364.32 306.738016 
L 367.488 306.773841 
L 370.656 306.533938 
L 373.824 306.597568 
L 380.16 306.49662 
L 383.328 306.489737 
L 386.496 306.297391 
L 396 306.242156 
L 405.504 306.275518 
L 421.344 306.039286 
L 446.688 305.956769 
L 449.856 305.924263 
L 453.024 306.025331 
L 456.192 305.994531 
L 462.528 306.190752 
L 468.864 306.092498 
L 472.032 305.974751 
L 475.2 306.072586 
L 481.536 306.117244 
L 497.376 306.22685 
L 506.88 306.164441 
L 510.048 306.38551 
L 516.384 306.327851 
L 519.552 306.430279 
L 529.056 306.433597 
L 541.728 306.707258 
L 544.896 306.584927 
L 551.232 306.803738 
L 560.736 306.568407 
L 595.584 306.367111 
L 605.088 306.215743 
L 608.256 306.450331 
L 614.592 306.255681 
L 620.928 306.257629 
L 646.272 305.6421 
L 652.608 305.688626 
L 658.944 305.741923 
L 674.784 305.657582 
L 677.952 305.778598 
L 684.288 305.658579 
L 687.456 305.717959 
L 693.792 305.560057 
L 700.128 305.721927 
L 715.968 305.535249 
L 722.304 305.607871 
L 728.64 305.554034 
L 731.808 305.423704 
L 734.976 305.566595 
L 753.984 305.4723 
L 757.152 305.334455 
L 760.32 305.318658 
L 763.488 305.187021 
L 769.824 305.314715 
L 785.664 305.310252 
L 788.832 305.358376 
L 788.832 305.358376 
" clip-path="url(#pbff20f14a5)" style="fill: none; stroke: #000000; stroke-width: 1.5; stroke-linecap: square"/>
   </g>
   <g id="line2d_9">
    <path d="M 0 306 
L 6.336 306.075129 
L 9.504 310.986309 
L 12.672 311.436465 
L 15.84 310.089149 
L 19.008 306.950618 
L 22.176 305.050294 
L 28.512 305.596361 
L 31.68 305.628504 
L 34.848 304.897684 
L 38.016 304.818655 
L 44.352 304.387074 
L 47.52 305.167794 
L 50.688 305.442317 
L 53.856 304.768941 
L 57.024 304.735961 
L 60.192 305.24861 
L 63.36 305.64688 
L 66.528 306.439344 
L 69.696 306.585391 
L 76.032 306.198367 
L 79.2 305.943187 
L 82.368 306.588234 
L 85.536 306.392341 
L 95.04 307.888367 
L 101.376 307.284174 
L 107.712 307.314001 
L 110.88 307.30618 
L 114.048 307.066686 
L 117.216 306.629348 
L 123.552 306.430782 
L 126.72 306.706807 
L 129.888 306.478712 
L 133.056 306.664915 
L 136.224 306.530364 
L 142.56 306.537231 
L 145.728 306.317069 
L 148.896 306.269471 
L 155.232 306.400485 
L 158.4 306.377037 
L 161.568 306.65466 
L 167.904 306.777513 
L 174.24 306.8369 
L 177.408 306.78095 
L 180.576 306.564251 
L 186.912 306.631245 
L 190.08 306.440125 
L 202.752 306.683722 
L 209.088 307.23558 
L 212.256 307.220034 
L 215.424 307.339985 
L 218.592 307.322744 
L 224.928 307.066829 
L 228.096 307.211908 
L 231.264 307.230775 
L 234.432 307.592772 
L 240.768 307.635901 
L 243.936 307.758333 
L 247.104 307.635402 
L 250.272 307.683268 
L 253.44 307.473267 
L 256.608 307.599686 
L 259.776 307.539029 
L 262.944 307.660029 
L 266.112 307.560878 
L 269.28 307.640475 
L 294.624 307.068496 
L 300.96 307.032201 
L 307.296 307.254506 
L 310.464 307.456979 
L 323.136 306.988395 
L 367.488 306.831894 
L 370.656 306.647121 
L 376.992 306.632152 
L 383.328 306.608443 
L 389.664 306.41831 
L 396 306.413038 
L 405.504 306.432903 
L 421.344 306.246292 
L 484.704 306.29232 
L 491.04 306.406378 
L 506.88 306.292523 
L 510.048 306.448516 
L 516.384 306.406328 
L 522.72 306.465637 
L 529.056 306.478907 
L 541.728 306.671046 
L 544.896 306.585873 
L 551.232 306.738864 
L 560.736 306.575998 
L 601.92 306.391805 
L 605.088 306.330763 
L 608.256 306.488995 
L 614.592 306.356216 
L 624.096 306.303296 
L 630.432 306.144366 
L 646.272 305.929697 
L 655.776 305.988617 
L 690.624 305.871922 
L 696.96 305.925657 
L 706.464 305.914473 
L 712.8 305.828985 
L 741.312 305.815159 
L 750.816 305.806985 
L 766.656 305.616969 
L 772.992 305.628445 
L 779.328 305.567189 
L 788.832 305.653128 
L 788.832 305.653128 
" clip-path="url(#pbff20f14a5)" style="fill: none; stroke: #000000; stroke-width: 1.5; stroke-linecap: square"/>
   </g>
  </g>
 </g>
 <defs>
  <clipPath id="pbff20f14a5">
   <rect x="0" y="0" width="792" height="612"/>
  </clipPath>
 </defs>
</svg>
