<?xml version="1.0" encoding="utf-8" standalone="no"?>
<!DOCTYPE svg PUBLIC "-//W3C//DTD SVG 1.1//EN"
  "http://www.w3.org/Graphics/SVG/1.1/DTD/svg11.dtd">
<svg xmlns:xlink="http://www.w3.org/1999/xlink" width="792pt" height="612pt" viewBox="0 0 792 612" xmlns="http://www.w3.org/2000/svg" version="1.1">
 <metadata>
  <rdf:RDF xmlns:dc="http://purl.org/dc/elements/1.1/" xmlns:cc="http://creativecommons.org/ns#" xmlns:rdf="http://www.w3.org/1999/02/22-rdf-syntax-ns#">
   <cc:Work>
    <dc:type rdf:resource="http://purl.org/dc/dcmitype/StillImage"/>
    <dc:date>2023-01-30T16:22:13.187288</dc:date>
    <dc:format>image/svg+xml</dc:format>
    <dc:creator>
     <cc:Agent>
      <dc:title>Matplotlib v3.6.2, https://matplotlib.org/</dc:title>
     </cc:Agent>
    </dc:creator>
   </cc:Work>
  </rdf:RDF>
 </metadata>
 <defs>
  <style type="text/css">*{stroke-linejoin: round; stroke-linecap: butt}</style>
 </defs>
 <g id="figure_1">
  <g id="patch_1">
   <path d="M 0 612 
L 792 612 
L 792 0 
L 0 0 
z
" style="fill: #ffffff"/>
  </g>
  <g id="axes_1">
   <g id="line2d_1">
    <path d="M 0 306 
L 3.168 316.779858 
L 6.336 309.930009 
L 9.504 317.893477 
L 12.672 307.686308 
L 15.84 306.135994 
L 19.008 319.359708 
L 25.344 304.884854 
L 28.512 292.857475 
L 31.68 294.989245 
L 34.848 307.115146 
L 38.016 307.536719 
L 41.184 305.918404 
L 44.352 298.562596 
L 47.52 304.164104 
L 50.688 302.477912 
L 53.856 302.069991 
L 57.024 314.769208 
L 60.192 309.07336 
L 63.36 295.546135 
L 69.696 313.274306 
L 72.864 312.186882 
L 76.032 319.984031 
L 79.2 309.154948 
L 82.368 303.266594 
L 85.536 301.852438 
L 88.704 300.751148 
L 91.872 320.174019 
L 95.04 302.056394 
L 98.208 318.178622 
L 101.376 316.888517 
L 104.544 321.85628 
L 107.712 299.704368 
L 110.88 299.527653 
L 114.048 306.23119 
L 117.216 308.937379 
L 120.384 306.965554 
L 123.552 300.057811 
L 126.72 293.631293 
L 129.888 304.368088 
L 133.056 302.409924 
L 136.224 315.421402 
L 139.392 299.011126 
L 142.56 312.798579 
L 145.728 301.906826 
L 148.896 306.135994 
L 152.064 307.074348 
L 155.232 298.331547 
L 161.568 310.637039 
L 164.736 307.006352 
L 167.904 305.428826 
L 171.072 317.594731 
L 174.24 311.344019 
L 177.408 307.019951 
L 180.576 309.766842 
L 183.744 306.23119 
L 186.912 304.300093 
L 190.08 297.04056 
L 193.248 307.264737 
L 196.416 308.842192 
L 199.584 297.665632 
L 202.752 309.304525 
L 205.92 309.440502 
L 209.088 311.575135 
L 212.256 307.37353 
L 215.424 318.056419 
L 218.592 323.090237 
L 221.76 306.326385 
L 224.928 313.315081 
L 231.264 299.242199 
L 234.432 301.390154 
L 237.6 314.837149 
L 240.768 308.13507 
L 243.936 327.167597 
L 247.104 306.489578 
L 250.272 310.840981 
L 253.44 314.497437 
L 256.608 300.479245 
L 259.776 310.28353 
L 262.944 295.125065 
L 266.112 314.877913 
L 269.28 303.796936 
L 272.448 314.75562 
L 275.616 301.417346 
L 278.784 312.350006 
L 281.952 302.382729 
L 285.12 298.290774 
L 288.288 299.881088 
L 291.456 307.128745 
L 294.624 307.019951 
L 297.792 292.613145 
L 300.96 307.699907 
L 304.128 306.013599 
L 307.296 303.851331 
L 310.464 307.618313 
L 313.632 314.021805 
L 316.8 315.149665 
L 319.968 321.137361 
L 323.136 297.434619 
L 326.304 290.292916 
L 329.472 306.489578 
L 332.64 301.322172 
L 335.808 306.067997 
L 338.976 305.442425 
L 342.144 310.337917 
L 345.312 295.722724 
L 348.48 309.821232 
L 351.648 306.027199 
L 354.816 306.339985 
L 357.984 308.352649 
L 361.152 301.75726 
L 364.32 308.910183 
L 367.488 307.890292 
L 370.656 301.02306 
L 373.824 307.223939 
L 376.992 308.828594 
L 380.16 292.192397 
L 383.328 310.351513 
L 386.496 301.648487 
L 389.664 305.197637 
L 392.832 306.027199 
L 396 294.568231 
L 399.168 302.940238 
L 402.336 301.879632 
L 405.504 310.419496 
L 408.672 308.067077 
L 411.84 306.979153 
L 415.008 305.76881 
L 418.176 301.920423 
L 421.344 305.700813 
L 424.512 292.735308 
L 427.68 313.872313 
L 430.848 301.430943 
L 434.016 306.190392 
L 437.184 307.985484 
L 440.352 304.844057 
L 443.52 307.414327 
L 446.688 300.329701 
L 449.856 307.550318 
L 453.024 303.130612 
L 456.192 305.34723 
L 459.36 303.810535 
L 462.528 312.635465 
L 465.696 303.97372 
L 468.864 313.845132 
L 472.032 311.357614 
L 475.2 304.517677 
L 478.368 301.199807 
L 481.536 298.141278 
L 484.704 312.594686 
L 487.872 304.78966 
L 491.04 310.36511 
L 494.208 308.665414 
L 497.376 314.95944 
L 500.544 308.502233 
L 503.712 305.224836 
L 506.88 301.159019 
L 510.048 303.497767 
L 513.216 306.367184 
L 516.384 304.368088 
L 519.552 321.503624 
L 522.72 303.348184 
L 525.888 305.292833 
L 529.056 313.464587 
L 532.224 305.197637 
L 535.392 304.558475 
L 538.56 309.603673 
L 541.728 312.227663 
L 544.896 316.127849 
L 548.064 311.330424 
L 551.232 305.76881 
L 554.4 297.937425 
L 557.568 317.024336 
L 560.736 311.779056 
L 563.904 299.242199 
L 567.072 295.858566 
L 570.24 307.903891 
L 573.408 305.877605 
L 576.576 309.277329 
L 579.744 303.130612 
L 582.912 306.44878 
L 586.08 307.563917 
L 589.248 303.307389 
L 592.416 304.980049 
L 595.584 302.002005 
L 598.752 304.300093 
L 601.92 304.572074 
L 605.088 304.993648 
L 608.256 303.021826 
L 611.424 305.007248 
L 614.592 299.745149 
L 617.76 323.469805 
L 620.928 297.883065 
L 624.096 300.452055 
L 627.264 307.808699 
L 630.432 304.816858 
L 633.6 300.52003 
L 636.768 293.305455 
L 639.936 301.566907 
L 643.104 299.337349 
L 646.272 299.59562 
L 649.44 307.196741 
L 652.608 293.984316 
L 655.776 306.122395 
L 658.944 311.357614 
L 662.112 303.552161 
L 665.28 309.617271 
L 668.448 305.877605 
L 671.616 304.490479 
L 674.784 307.291935 
L 677.952 306.598373 
L 681.12 302.804258 
L 684.288 301.226999 
L 687.456 314.877913 
L 690.624 301.254192 
L 693.792 301.159019 
L 696.96 310.215546 
L 700.128 296.361218 
L 703.296 302.967434 
L 706.464 315.068141 
L 709.632 308.624619 
L 712.8 302.49151 
L 715.968 305.374429 
L 719.136 296.850335 
L 722.304 304.830458 
L 725.472 304.47688 
L 728.64 312.159694 
L 731.808 304.667268 
L 734.976 304.667268 
L 738.144 302.450717 
L 741.312 295.518968 
L 744.48 316.535366 
L 747.648 304.898454 
L 750.816 305.537621 
L 753.984 307.387129 
L 757.152 305.279233 
L 760.32 303.851331 
L 766.656 294.785523 
L 769.824 304.164104 
L 772.992 295.111483 
L 776.16 312.023754 
L 779.328 308.556627 
L 782.496 304.177703 
L 785.664 297.448208 
L 788.832 306.258388 
L 788.832 306.258388 
" clip-path="url(#pd038e6d401)" style="fill: none; stroke: #000000; stroke-width: 1.5; stroke-linecap: square"/>
   </g>
   <g id="line2d_2">
    <path d="M 0 306 
L 3.168 306 
L 6.336 313.188224 
L 9.504 311.326539 
L 12.672 314.829902 
L 15.84 311.143597 
L 19.008 308.600228 
L 22.176 314.024801 
L 25.344 313.081834 
L 28.512 308.981693 
L 31.68 300.869136 
L 34.848 297.89916 
L 38.016 302.485217 
L 41.184 305.010607 
L 44.352 305.464078 
L 47.52 301.972038 
L 50.688 303.052382 
L 57.024 302.43328 
L 60.192 308.641097 
L 63.36 308.861069 
L 66.528 302.178289 
L 69.696 303.270114 
L 72.864 308.301668 
L 76.032 310.260175 
L 79.2 315.158723 
L 82.368 312.171315 
L 85.536 307.696761 
L 88.704 304.760329 
L 91.872 302.765811 
L 95.04 311.505348 
L 98.208 306.759058 
L 101.376 312.482848 
L 104.544 314.680058 
L 107.712 318.294751 
L 110.88 308.995345 
L 114.048 304.256523 
L 117.216 305.254595 
L 120.384 307.073975 
L 123.552 307.02939 
L 126.72 303.507739 
L 129.888 298.521982 
L 133.056 301.410308 
L 136.224 301.915411 
L 139.392 308.700876 
L 142.56 303.841305 
L 145.728 308.328012 
L 148.896 305.107402 
L 152.064 305.633616 
L 155.232 306.380356 
L 158.4 302.343483 
L 161.568 303.421029 
L 164.736 307.019791 
L 167.904 307.02875 
L 171.072 306.214337 
L 174.24 311.937337 
L 177.408 311.650893 
L 180.576 309.335506 
L 183.744 309.573599 
L 186.912 307.905864 
L 190.08 306.090556 
L 193.248 301.545046 
L 196.416 304.408352 
L 199.584 306.608132 
L 202.752 302.109236 
L 205.92 305.71132 
L 209.088 307.575329 
L 212.256 309.585863 
L 215.424 308.485755 
L 221.76 318.236288 
L 224.928 312.278786 
L 228.096 312.82763 
L 231.264 309.564747 
L 234.432 304.38302 
L 237.6 302.866542 
L 240.768 308.867575 
L 243.936 308.481862 
L 247.104 317.843794 
L 250.272 312.16913 
L 253.44 311.50023 
L 256.608 313.015046 
L 259.776 306.749885 
L 262.944 308.534229 
L 266.112 301.788986 
L 269.28 308.347743 
L 272.448 306.026452 
L 275.616 310.408139 
L 278.784 305.894245 
L 281.952 309.11826 
L 285.12 305.754198 
L 288.288 301.998379 
L 291.456 300.949003 
L 294.624 304.023475 
L 297.792 305.528021 
L 300.96 299.024079 
L 304.128 303.373781 
L 307.296 304.68124 
L 310.464 304.269162 
L 313.632 305.962028 
L 316.8 310.020337 
L 319.968 312.601189 
L 323.136 316.899063 
L 326.304 307.177489 
L 329.472 298.695526 
L 332.64 302.592932 
L 335.808 301.952576 
L 338.976 304.007157 
L 342.144 304.707958 
L 345.312 307.513627 
L 348.48 301.566694 
L 351.648 305.718199 
L 357.984 306.121488 
L 361.152 307.250871 
L 364.32 304.495492 
L 367.488 306.709674 
L 370.656 307.295188 
L 373.824 304.16933 
L 380.16 307.26559 
L 383.328 299.697438 
L 386.496 305.0281 
L 389.664 303.337999 
L 396 305.1402 
L 399.168 299.83972 
L 402.336 301.381463 
L 405.504 301.616921 
L 408.672 306.053971 
L 411.84 307.056056 
L 415.008 307.028057 
L 418.176 306.399555 
L 421.344 304.151838 
L 424.512 304.948158 
L 427.68 298.818865 
L 430.848 306.369317 
L 434.016 303.882368 
L 437.184 305.032686 
L 440.352 306.51107 
L 443.52 305.675748 
L 446.688 306.555815 
L 449.856 303.431961 
L 453.024 305.520182 
L 456.192 304.304306 
L 459.36 304.833444 
L 462.528 304.317318 
L 465.696 308.485968 
L 468.864 306.22815 
L 472.032 310.049877 
L 475.2 310.725388 
L 484.704 301.257924 
L 487.872 306.943848 
L 491.04 305.851367 
L 494.208 308.120885 
L 497.376 308.382993 
L 500.544 311.678935 
L 503.712 310.098506 
L 506.88 307.669669 
L 510.048 304.420084 
L 513.216 303.941083 
L 516.384 305.157213 
L 519.552 304.750889 
L 522.72 313.157789 
L 525.888 308.230795 
L 529.056 306.755538 
L 532.224 310.126713 
L 535.392 307.670203 
L 538.56 306.116421 
L 541.728 307.866454 
L 544.896 310.062674 
L 548.064 313.085405 
L 551.232 312.223612 
L 554.4 308.997478 
L 557.568 303.436174 
L 560.736 310.255536 
L 563.904 311.031483 
L 567.072 305.116202 
L 570.24 300.454027 
L 573.408 304.162557 
L 576.576 305.009381 
L 579.744 307.15029 
L 582.912 305.1506 
L 586.08 305.778943 
L 589.248 306.663169 
L 592.416 304.993222 
L 595.584 305.004528 
L 598.752 303.491634 
L 608.256 304.612071 
L 611.424 303.810215 
L 614.592 304.403712 
L 617.76 302.067218 
L 620.928 312.813078 
L 624.096 305.339604 
L 627.264 302.888086 
L 630.432 305.354696 
L 633.6 305.08543 
L 636.768 302.797646 
L 639.936 298.026693 
L 643.104 299.800164 
L 646.272 299.521416 
L 649.44 299.561876 
L 652.608 303.392126 
L 655.776 298.659388 
L 658.944 302.392914 
L 662.112 306.896704 
L 665.28 305.244515 
L 668.448 307.446752 
L 671.616 306.675009 
L 674.784 305.592338 
L 677.952 306.442327 
L 681.12 306.545095 
L 684.288 304.668121 
L 687.456 302.9276 
L 690.624 308.926074 
L 693.792 305.073591 
L 696.96 303.106935 
L 700.128 306.672556 
L 703.296 301.494179 
L 706.464 302.223666 
L 709.632 308.67112 
L 712.8 308.662374 
L 715.968 305.552607 
L 719.136 305.471597 
L 722.304 301.151555 
L 725.472 302.980339 
L 728.64 303.744514 
L 731.808 307.970499 
L 734.976 306.298493 
L 738.144 305.475117 
L 741.312 303.962787 
L 744.48 299.720361 
L 747.648 308.168081 
L 750.816 306.533416 
L 753.984 306.037598 
L 757.152 306.703008 
L 760.32 305.99232 
L 763.488 304.920212 
L 766.656 302.122353 
L 769.824 298.451414 
L 772.992 301.28309 
L 776.16 298.177306 
L 779.328 305.112789 
L 782.496 306.837027 
L 785.664 305.505196 
L 788.832 301.463361 
L 788.832 301.463361 
" clip-path="url(#pd038e6d401)" style="fill: none; stroke: #000000; stroke-width: 1.5; stroke-linecap: square"/>
   </g>
   <g id="line2d_3">
    <path d="M 0 306 
L 3.168 306 
L 6.336 312.316411 
L 9.504 311.235254 
L 12.672 313.83639 
L 15.84 311.648731 
L 19.008 309.803656 
L 22.176 312.875641 
L 25.344 312.647726 
L 28.512 310.269351 
L 31.68 305.002771 
L 34.848 302.002405 
L 38.016 303.523557 
L 41.184 304.71209 
L 44.352 305.068191 
L 47.52 303.15181 
L 50.688 303.449461 
L 57.024 302.824436 
L 60.192 306.329163 
L 63.36 307.122807 
L 66.528 303.716983 
L 69.696 303.905655 
L 72.864 306.643049 
L 76.032 308.267053 
L 79.2 311.718449 
L 82.368 310.986408 
L 85.536 308.735057 
L 88.704 306.713116 
L 91.872 304.958955 
L 95.04 309.434556 
L 98.208 307.277587 
L 101.376 310.4881 
L 104.544 312.379946 
L 107.712 315.180304 
L 110.88 310.631535 
L 114.048 307.368276 
L 117.216 307.047511 
L 120.384 307.606304 
L 123.552 307.411386 
L 126.72 305.24343 
L 129.888 301.810312 
L 133.056 302.553925 
L 136.224 302.510764 
L 139.392 306.308557 
L 142.56 304.168855 
L 145.728 306.688272 
L 148.896 305.287578 
L 152.064 305.522233 
L 155.232 305.96556 
L 158.4 303.702144 
L 161.568 303.938537 
L 164.736 305.913327 
L 167.904 306.234358 
L 171.072 305.994393 
L 174.24 309.405754 
L 177.408 309.986457 
L 180.576 309.133024 
L 183.744 309.324869 
L 186.912 308.423182 
L 190.08 307.202805 
L 193.248 304.223361 
L 196.416 305.107792 
L 199.584 306.209561 
L 202.752 303.696811 
L 205.92 305.341842 
L 209.088 306.555114 
L 212.256 308.033734 
L 215.424 307.836617 
L 218.592 310.844067 
L 221.76 314.454542 
L 224.928 312.06164 
L 228.096 312.431051 
L 231.264 310.638555 
L 234.432 307.288471 
L 237.6 305.555237 
L 240.768 308.286629 
L 243.936 308.254984 
L 247.104 313.825499 
L 250.272 311.674711 
L 253.44 311.445657 
L 256.608 312.345606 
L 259.776 308.86012 
L 262.944 309.275559 
L 266.112 305.11565 
L 269.28 307.971997 
L 272.448 306.726976 
L 275.616 309.088792 
L 278.784 306.828182 
L 281.952 308.452638 
L 285.12 306.678398 
L 288.288 304.217701 
L 291.456 302.930204 
L 294.624 304.158723 
L 297.792 304.973566 
L 300.96 301.335189 
L 304.128 303.195591 
L 307.296 304.011192 
L 310.464 303.968243 
L 313.632 305.034249 
L 316.8 307.688874 
L 319.968 309.875006 
L 323.136 313.196046 
L 326.304 308.559954 
L 329.472 303.192943 
L 332.64 304.15174 
L 335.808 303.321706 
L 338.976 304.134986 
L 342.144 304.524309 
L 345.312 306.230839 
L 348.48 303.139054 
L 351.648 305.115995 
L 357.984 305.662225 
L 361.152 306.455416 
L 364.32 305.072549 
L 367.488 306.190716 
L 370.656 306.680175 
L 373.824 305.000002 
L 376.992 305.662624 
L 380.16 306.611244 
L 383.328 302.369052 
L 386.496 304.717405 
L 389.664 303.813409 
L 392.832 304.218553 
L 396 304.743334 
L 399.168 301.760495 
L 402.336 302.09812 
L 405.504 302.029362 
L 408.672 304.491406 
L 411.84 305.538369 
L 415.008 305.966364 
L 418.176 305.904893 
L 421.344 304.730948 
L 424.512 305.020387 
L 427.68 301.403426 
L 430.848 305.061541 
L 434.016 304.008712 
L 437.184 304.64292 
L 440.352 305.629216 
L 443.52 305.398841 
L 446.688 305.990759 
L 449.856 304.339123 
L 453.024 305.284949 
L 456.192 304.655378 
L 459.36 304.85219 
L 462.528 304.542203 
L 465.696 306.919457 
L 468.864 306.054602 
L 472.032 308.350551 
L 475.2 309.23787 
L 478.368 307.868959 
L 481.536 305.900953 
L 484.704 303.623958 
L 487.872 306.259046 
L 491.04 305.825 
L 494.208 307.16119 
L 497.376 307.603213 
L 500.544 309.775179 
L 503.712 309.403446 
L 506.88 308.182027 
L 510.048 306.120133 
L 513.216 305.351685 
L 516.384 305.641916 
L 519.552 305.26927 
L 522.72 310.036668 
L 525.888 308.068571 
L 529.056 307.256481 
L 532.224 309.089217 
L 535.392 307.957553 
L 538.56 306.952767 
L 541.728 307.734762 
L 544.896 309.053006 
L 548.064 311.134429 
L 551.232 311.187665 
L 554.4 309.597565 
L 557.568 306.173587 
L 560.736 309.371189 
L 563.904 310.086004 
L 570.24 303.656344 
L 573.408 304.884766 
L 576.576 305.178465 
L 579.744 306.383607 
L 582.912 305.418931 
L 586.08 305.722004 
L 589.248 306.264943 
L 592.416 305.391444 
L 595.584 305.262624 
L 598.752 304.291331 
L 605.088 304.368288 
L 608.256 304.559558 
L 611.424 304.093067 
L 614.592 304.353043 
L 617.76 303.00383 
L 620.928 309.035318 
L 624.096 305.756899 
L 627.264 304.196757 
L 630.432 305.252976 
L 633.6 305.127177 
L 636.768 303.77083 
L 639.936 300.687578 
L 643.104 300.94312 
L 646.272 300.466288 
L 649.44 300.208501 
L 652.608 302.258336 
L 655.776 299.82166 
L 658.944 301.668095 
L 662.112 304.515632 
L 665.28 304.231763 
L 668.448 305.820517 
L 671.616 305.81701 
L 674.784 305.436066 
L 677.952 305.987497 
L 681.12 306.165028 
L 684.288 305.178337 
L 687.456 304.021742 
L 690.624 307.226934 
L 693.792 305.477093 
L 696.96 304.214353 
L 700.128 305.984325 
L 703.296 303.152481 
L 706.464 303.108606 
L 709.632 306.622467 
L 712.8 307.205757 
L 715.968 305.823727 
L 719.136 305.687257 
L 722.304 303.087899 
L 725.472 303.598659 
L 728.64 303.852647 
L 731.808 306.292332 
L 734.976 305.818499 
L 738.144 305.485261 
L 741.312 304.58215 
L 744.48 301.920047 
L 747.648 306.21949 
L 750.816 305.826459 
L 753.984 305.752404 
L 757.152 306.236283 
L 760.32 305.944723 
L 763.488 305.32609 
L 766.656 303.568147 
L 769.824 300.98255 
L 772.992 301.922726 
L 776.16 299.915875 
L 779.328 303.470578 
L 782.496 304.956089 
L 785.664 304.727541 
L 788.832 302.586663 
L 788.832 302.586663 
" clip-path="url(#pd038e6d401)" style="fill: none; stroke: #000000; stroke-width: 1.5; stroke-linecap: square"/>
   </g>
   <g id="line2d_4">
    <path d="M 0 306 
L 3.168 306 
L 6.336 311.857474 
L 9.504 311.10106 
L 12.672 313.263321 
L 15.84 311.732595 
L 19.008 310.35537 
L 22.176 312.395335 
L 25.344 312.342463 
L 28.512 310.840418 
L 31.68 307.363625 
L 34.848 305.050172 
L 41.184 305.800983 
L 44.352 305.821476 
L 47.52 304.573589 
L 50.688 304.504095 
L 57.024 303.815268 
L 60.192 305.625713 
L 63.36 306.191957 
L 66.528 304.451806 
L 69.696 304.438185 
L 72.864 305.870872 
L 76.032 306.891856 
L 79.2 309.004078 
L 82.368 309.028351 
L 88.704 307.100729 
L 91.872 306.083729 
L 95.04 308.339576 
L 98.208 307.335228 
L 101.376 309.068149 
L 104.544 310.319726 
L 107.712 312.160077 
L 110.88 310.172248 
L 114.048 308.467202 
L 117.216 308.110548 
L 120.384 308.24385 
L 123.552 308.032734 
L 126.72 306.756257 
L 129.888 304.659939 
L 133.056 304.620691 
L 136.224 304.273568 
L 139.392 306.052871 
L 142.56 304.926995 
L 145.728 306.18386 
L 148.896 305.505418 
L 152.064 305.606975 
L 155.232 305.843308 
L 158.4 304.645579 
L 161.568 304.614488 
L 164.736 305.573722 
L 167.904 305.808812 
L 171.072 305.749016 
L 174.24 307.637278 
L 177.408 308.226568 
L 180.576 308.0265 
L 183.744 308.303788 
L 186.912 307.975889 
L 190.08 307.392595 
L 193.248 305.742833 
L 196.416 305.976914 
L 199.584 306.437037 
L 202.752 305.028346 
L 212.256 307.139011 
L 215.424 307.18122 
L 218.592 308.919795 
L 221.76 311.185615 
L 224.928 310.412207 
L 228.096 310.882402 
L 231.264 310.163368 
L 234.432 308.422563 
L 237.6 307.303024 
L 240.768 308.501707 
L 243.936 308.449068 
L 247.104 311.441096 
L 250.272 310.656275 
L 253.44 310.688597 
L 256.608 311.299357 
L 259.776 309.579366 
L 262.944 309.695018 
L 266.112 307.366617 
L 269.28 308.566948 
L 272.448 307.807028 
L 275.616 308.91111 
L 278.784 307.712633 
L 281.952 308.453889 
L 285.12 307.483344 
L 288.288 306.015568 
L 291.456 305.036666 
L 297.792 305.637253 
L 300.96 303.553631 
L 304.128 304.21956 
L 307.296 304.502939 
L 310.464 304.395778 
L 313.632 304.90602 
L 319.968 307.757749 
L 323.136 309.887046 
L 326.304 307.900066 
L 329.472 305.082157 
L 332.64 305.306192 
L 335.808 304.673567 
L 338.976 304.898343 
L 342.144 304.979045 
L 345.312 305.833078 
L 348.48 304.204247 
L 351.648 305.100025 
L 357.984 305.413735 
L 361.152 305.886247 
L 364.32 305.223948 
L 367.488 305.819058 
L 370.656 306.144241 
L 373.824 305.327643 
L 376.992 305.62465 
L 380.16 306.139046 
L 383.328 303.906041 
L 386.496 304.936534 
L 389.664 304.415454 
L 396 304.778635 
L 399.168 303.145581 
L 402.336 303.119358 
L 405.504 302.918475 
L 408.672 304.114649 
L 411.84 304.746116 
L 415.008 305.100999 
L 418.176 305.202099 
L 421.344 304.671685 
L 424.512 304.825783 
L 427.68 302.897987 
L 430.848 304.658959 
L 434.016 304.142175 
L 437.184 304.471085 
L 440.352 305.031432 
L 443.52 305.001246 
L 446.688 305.383351 
L 449.856 304.58208 
L 453.024 305.052917 
L 456.192 304.745255 
L 459.36 304.840411 
L 462.528 304.673718 
L 465.696 305.947407 
L 468.864 305.630302 
L 472.032 306.941298 
L 475.2 307.650472 
L 478.368 307.150351 
L 481.536 306.19878 
L 484.704 304.920248 
L 487.872 306.142837 
L 491.04 305.929501 
L 494.208 306.638493 
L 497.376 306.962638 
L 500.544 308.248055 
L 503.712 308.291966 
L 506.88 307.806077 
L 510.048 306.74268 
L 513.216 306.223544 
L 516.384 306.246016 
L 519.552 305.946354 
L 522.72 308.435861 
L 525.888 307.624943 
L 529.056 307.261742 
L 532.224 308.248583 
L 538.56 307.254267 
L 541.728 307.629092 
L 544.896 308.365452 
L 548.064 309.606377 
L 551.232 309.887561 
L 554.4 309.231197 
L 557.568 307.43087 
L 560.736 308.965189 
L 563.904 309.417903 
L 567.072 307.790478 
L 570.24 305.886429 
L 573.408 306.20371 
L 576.576 306.148406 
L 579.744 306.649218 
L 582.912 306.090587 
L 586.08 306.152761 
L 589.248 306.374144 
L 592.416 305.885276 
L 595.584 305.737891 
L 598.752 305.139306 
L 605.088 304.928732 
L 608.256 304.938916 
L 611.424 304.635053 
L 614.592 304.695212 
L 617.76 303.903395 
L 620.928 307.031405 
L 624.096 305.560825 
L 627.264 304.746104 
L 630.432 305.234943 
L 633.6 305.163027 
L 636.768 304.42131 
L 639.936 302.644674 
L 643.104 302.468178 
L 646.272 301.961943 
L 649.44 301.575097 
L 652.608 302.46684 
L 655.776 301.109184 
L 658.944 301.911805 
L 662.112 303.411073 
L 665.28 303.428387 
L 668.448 304.419525 
L 671.616 304.657761 
L 674.784 304.629016 
L 677.952 305.053575 
L 681.12 305.297685 
L 684.288 304.900754 
L 687.456 304.312939 
L 690.624 305.998812 
L 696.96 304.590435 
L 700.128 305.49057 
L 703.296 304.032621 
L 706.464 303.862141 
L 709.632 305.651737 
L 712.8 306.128239 
L 715.968 305.548029 
L 719.136 305.523921 
L 722.304 304.126889 
L 728.64 304.28286 
L 731.808 305.538926 
L 738.144 305.286131 
L 741.312 304.840696 
L 744.48 303.353209 
L 747.648 305.461879 
L 753.984 305.400296 
L 757.152 305.724776 
L 760.32 305.653362 
L 763.488 305.361964 
L 766.656 304.400642 
L 769.824 302.860883 
L 772.992 303.067155 
L 776.16 301.794982 
L 779.328 303.425331 
L 782.496 304.242938 
L 785.664 304.233416 
L 788.832 303.151217 
L 788.832 303.151217 
" clip-path="url(#pd038e6d401)" style="fill: none; stroke: #000000; stroke-width: 1.5; stroke-linecap: square"/>
   </g>
   <g id="line2d_5">
    <path d="M 0 306 
L 3.168 306 
L 6.336 311.624978 
L 9.504 311.010426 
L 12.672 312.961666 
L 19.008 310.574277 
L 22.176 312.1787 
L 25.344 312.173289 
L 28.512 311.056431 
L 31.68 308.449394 
L 34.848 306.630678 
L 41.184 306.796513 
L 44.352 306.6928 
L 47.52 305.764947 
L 50.688 305.587794 
L 57.024 304.918394 
L 60.192 305.931464 
L 63.36 306.248235 
L 66.528 305.187759 
L 69.696 305.107851 
L 72.864 305.892736 
L 76.032 306.489831 
L 79.2 307.755687 
L 82.368 307.885464 
L 88.704 306.950571 
L 91.872 306.390618 
L 95.04 307.627333 
L 98.208 307.131138 
L 101.376 308.109702 
L 104.544 308.882956 
L 107.712 310.020509 
L 114.048 308.287933 
L 117.216 308.110027 
L 120.384 308.181346 
L 123.552 308.076882 
L 126.72 307.389818 
L 129.888 306.21366 
L 133.056 306.05635 
L 136.224 305.746225 
L 139.392 306.567623 
L 142.56 305.927391 
L 145.728 306.508563 
L 148.896 306.119997 
L 155.232 306.201591 
L 158.4 305.539578 
L 161.568 305.451444 
L 164.736 305.886665 
L 167.904 305.980546 
L 171.072 305.934326 
L 174.24 306.910871 
L 177.408 307.281741 
L 180.576 307.259857 
L 183.744 307.469314 
L 186.912 307.365933 
L 190.08 307.110069 
L 193.248 306.269876 
L 196.416 306.352832 
L 199.584 306.560329 
L 202.752 305.819039 
L 209.088 306.383495 
L 212.256 306.814965 
L 215.424 306.857898 
L 218.592 307.791207 
L 221.76 309.067882 
L 224.928 308.836118 
L 228.096 309.208307 
L 231.264 308.96847 
L 234.432 308.163267 
L 237.6 307.6032 
L 240.768 308.206282 
L 243.936 308.200566 
L 247.104 309.784333 
L 250.272 309.513484 
L 253.44 309.62584 
L 256.608 310.034179 
L 259.776 309.240683 
L 262.944 309.325778 
L 266.112 308.14234 
L 269.28 308.707828 
L 272.448 308.300076 
L 275.616 308.836499 
L 278.784 308.217241 
L 281.952 308.557808 
L 285.12 308.043108 
L 288.288 307.231969 
L 291.456 306.621171 
L 297.792 306.690518 
L 300.96 305.518369 
L 304.128 305.696016 
L 307.296 305.718833 
L 310.464 305.55797 
L 313.632 305.731548 
L 319.968 307.151756 
L 323.136 308.317467 
L 326.304 307.410977 
L 329.472 305.985927 
L 332.64 306.031915 
L 335.808 305.640004 
L 342.144 305.654022 
L 345.312 306.046477 
L 348.48 305.183769 
L 351.648 305.571251 
L 357.984 305.669482 
L 361.152 305.89544 
L 364.32 305.551076 
L 370.656 306.000656 
L 373.824 305.586065 
L 376.992 305.718625 
L 380.16 305.975928 
L 383.328 304.826348 
L 386.496 305.285125 
L 389.664 304.981786 
L 396 305.088172 
L 399.168 304.210501 
L 405.504 303.919969 
L 408.672 304.459775 
L 411.84 304.758717 
L 415.008 304.941507 
L 418.176 305.009647 
L 421.344 304.747984 
L 424.512 304.821398 
L 427.68 303.813217 
L 430.848 304.648382 
L 434.016 304.379737 
L 437.184 304.532273 
L 440.352 304.82102 
L 443.52 304.819679 
L 446.688 305.034788 
L 449.856 304.635491 
L 453.024 304.877753 
L 456.192 304.730233 
L 459.36 304.778462 
L 462.528 304.699212 
L 465.696 305.358734 
L 468.864 305.246663 
L 472.032 305.960106 
L 475.2 306.410584 
L 478.368 306.250147 
L 481.536 305.830885 
L 484.704 305.187912 
L 487.872 305.806051 
L 491.04 305.72381 
L 494.208 306.112457 
L 497.376 306.324847 
L 500.544 307.044277 
L 503.712 307.170459 
L 506.88 307.008176 
L 510.048 306.521109 
L 513.216 306.270064 
L 516.384 306.277717 
L 519.552 306.116082 
L 522.72 307.39635 
L 525.888 307.054574 
L 529.056 306.910916 
L 532.224 307.462505 
L 538.56 307.049781 
L 541.728 307.262905 
L 544.896 307.67723 
L 548.064 308.380757 
L 551.232 308.630673 
L 554.4 308.391841 
L 557.568 307.521411 
L 560.736 308.313958 
L 563.904 308.602697 
L 567.072 307.824939 
L 570.24 306.827239 
L 573.408 306.916602 
L 576.576 306.83195 
L 579.744 307.035584 
L 582.912 306.709628 
L 589.248 306.764029 
L 592.416 306.477677 
L 595.584 306.353309 
L 598.752 305.990839 
L 611.424 305.46271 
L 614.592 305.423912 
L 617.76 304.950174 
L 620.928 306.49457 
L 624.096 305.778378 
L 627.264 305.334557 
L 630.432 305.54481 
L 633.6 305.481445 
L 636.768 305.069325 
L 639.936 304.088192 
L 643.104 303.876832 
L 649.44 303.171725 
L 652.608 303.508002 
L 655.776 302.71272 
L 658.944 302.996663 
L 662.112 303.692546 
L 665.28 303.68081 
L 668.448 304.172525 
L 671.616 304.314656 
L 674.784 304.326204 
L 681.12 304.739957 
L 684.288 304.579818 
L 687.456 304.302528 
L 690.624 305.181179 
L 696.96 304.544377 
L 700.128 305.015581 
L 703.296 304.290999 
L 706.464 304.179344 
L 709.632 305.086478 
L 712.8 305.382563 
L 715.968 305.142279 
L 719.136 305.161223 
L 722.304 304.46879 
L 728.64 304.492374 
L 731.808 305.131026 
L 738.144 305.054441 
L 741.312 304.837646 
L 744.48 304.059328 
L 747.648 305.096517 
L 753.984 305.112814 
L 757.152 305.3021 
L 760.32 305.302592 
L 763.488 305.177852 
L 766.656 304.688983 
L 769.824 303.865194 
L 772.992 303.892706 
L 776.16 303.159405 
L 779.328 303.897133 
L 782.496 304.28361 
L 785.664 304.275161 
L 788.832 303.705463 
L 788.832 303.705463 
" clip-path="url(#pd038e6d401)" style="fill: none; stroke: #000000; stroke-width: 1.5; stroke-linecap: square"/>
   </g>
   <g id="line2d_6">
    <path d="M 0 306 
L 3.168 306 
L 6.336 311.508346 
L 9.504 310.959313 
L 12.672 312.807869 
L 19.008 310.664021 
L 22.176 312.074257 
L 25.344 312.084657 
L 28.512 311.139455 
L 31.68 308.934208 
L 34.848 307.374091 
L 44.352 307.230757 
L 47.52 306.461581 
L 50.688 306.266768 
L 57.024 305.65408 
L 60.192 306.3432 
L 63.36 306.54293 
L 66.528 305.762184 
L 69.696 305.665991 
L 72.864 306.177451 
L 76.032 306.571629 
L 79.2 307.431952 
L 82.368 307.540051 
L 88.704 306.949978 
L 91.872 306.582539 
L 95.04 307.375335 
L 98.208 307.070149 
L 101.376 307.698449 
L 104.544 308.210949 
L 107.712 308.962266 
L 114.048 307.979844 
L 117.216 307.887022 
L 123.552 307.89141 
L 126.72 307.487946 
L 129.888 306.78042 
L 136.224 306.445132 
L 139.392 306.892292 
L 142.56 306.50264 
L 145.728 306.811749 
L 148.896 306.572565 
L 155.232 306.576598 
L 158.4 306.181702 
L 161.568 306.101158 
L 164.736 306.316069 
L 171.072 306.305455 
L 174.24 306.833011 
L 177.408 307.04283 
L 180.576 307.04177 
L 183.744 307.167501 
L 190.08 306.995107 
L 193.248 306.540612 
L 199.584 306.67646 
L 202.752 306.26887 
L 215.424 306.79515 
L 218.592 307.298166 
L 221.76 308.002371 
L 224.928 307.927879 
L 228.096 308.166889 
L 231.264 308.08481 
L 234.432 307.694042 
L 237.6 307.415978 
L 240.768 307.742855 
L 243.936 307.760097 
L 247.104 308.613382 
L 250.272 308.520306 
L 253.44 308.621877 
L 256.608 308.878738 
L 259.776 308.512119 
L 262.944 308.589345 
L 266.112 308.002929 
L 269.28 308.302022 
L 272.448 308.106312 
L 275.616 308.394966 
L 278.784 308.092453 
L 281.952 308.27689 
L 285.12 308.021832 
L 291.456 307.26752 
L 297.792 307.25111 
L 300.96 306.619851 
L 307.296 306.638274 
L 310.464 306.518398 
L 313.632 306.56568 
L 319.968 307.241007 
L 323.136 307.837867 
L 326.304 307.391571 
L 329.472 306.657961 
L 332.64 306.650745 
L 335.808 306.422504 
L 342.144 306.366035 
L 345.312 306.535953 
L 348.48 306.073404 
L 351.648 306.233615 
L 357.984 306.229715 
L 361.152 306.320372 
L 364.32 306.125563 
L 370.656 306.314629 
L 373.824 306.088905 
L 380.16 306.252046 
L 383.328 305.652393 
L 386.496 305.852647 
L 389.664 305.673523 
L 396 305.669178 
L 399.168 305.196296 
L 405.504 304.963163 
L 408.672 305.195239 
L 415.008 305.385588 
L 418.176 305.399818 
L 421.344 305.251335 
L 424.512 305.270319 
L 427.68 304.7341 
L 430.848 305.121886 
L 434.016 304.964815 
L 446.688 305.230377 
L 449.856 305.021649 
L 453.024 305.130351 
L 459.36 305.058668 
L 462.528 305.006039 
L 465.696 305.329189 
L 468.864 305.270873 
L 472.032 305.637508 
L 475.2 305.881207 
L 478.368 305.821941 
L 481.536 305.624135 
L 484.704 305.30318 
L 487.872 305.61293 
L 491.04 305.57828 
L 503.712 306.384157 
L 506.88 306.33285 
L 513.216 305.99702 
L 519.552 305.944852 
L 522.72 306.607597 
L 529.056 306.418356 
L 532.224 306.719384 
L 538.56 306.567861 
L 544.896 306.931725 
L 548.064 307.324608 
L 551.232 307.494216 
L 554.4 307.421708 
L 557.568 307.018169 
L 560.736 307.444248 
L 563.904 307.63029 
L 567.072 307.27375 
L 570.24 306.787174 
L 579.744 306.898066 
L 582.912 306.73697 
L 592.416 306.61301 
L 595.584 306.543891 
L 601.92 306.264652 
L 614.592 305.96601 
L 617.76 305.700262 
L 620.928 306.457118 
L 624.096 306.09017 
L 627.264 305.84734 
L 630.432 305.930742 
L 633.6 305.882104 
L 636.768 305.653782 
L 639.936 305.128958 
L 646.272 304.736195 
L 649.44 304.516796 
L 652.608 304.62709 
L 655.776 304.173542 
L 658.944 304.25538 
L 662.112 304.555985 
L 665.28 304.513936 
L 668.448 304.730193 
L 681.12 304.945985 
L 687.456 304.699714 
L 690.624 305.133415 
L 696.96 304.808076 
L 700.128 305.037857 
L 703.296 304.668093 
L 706.464 304.597711 
L 709.632 305.042955 
L 712.8 305.195242 
L 715.968 305.080381 
L 719.136 305.092474 
L 722.304 304.740068 
L 728.64 304.728164 
L 731.808 305.045716 
L 741.312 304.907705 
L 744.48 304.507732 
L 747.648 305.019678 
L 753.984 305.037481 
L 760.32 305.142613 
L 763.488 305.087452 
L 766.656 304.842125 
L 769.824 304.414394 
L 772.992 304.402994 
L 776.16 304.006758 
L 779.328 304.348504 
L 782.496 304.527134 
L 785.664 304.511546 
L 788.832 304.212874 
L 788.832 304.212874 
" clip-path="url(#pd038e6d401)" style="fill: none; stroke: #000000; stroke-width: 1.5; stroke-linecap: square"/>
   </g>
   <g id="line2d_7">
    <path d="M 0 306 
L 3.168 306 
L 6.336 311.449981 
L 9.504 310.932337 
L 12.672 312.730346 
L 19.008 310.703422 
L 22.176 312.022654 
L 25.344 312.03928 
L 28.512 311.173946 
L 31.68 309.158109 
L 34.848 307.725655 
L 44.352 307.514582 
L 47.52 306.823 
L 53.856 306.339748 
L 57.024 306.056365 
L 60.192 306.60989 
L 63.36 306.760038 
L 66.528 306.102325 
L 69.696 306.004292 
L 76.032 306.707233 
L 79.2 307.388109 
L 82.368 307.476034 
L 88.704 307.016936 
L 91.872 306.729063 
L 95.04 307.332398 
L 98.208 307.101222 
L 107.712 308.538689 
L 114.048 307.83997 
L 120.384 307.821754 
L 123.552 307.789587 
L 126.72 307.503698 
L 129.888 306.998403 
L 136.224 306.74514 
L 139.392 307.047813 
L 142.56 306.771224 
L 145.728 306.976009 
L 148.896 306.805936 
L 155.232 306.793251 
L 158.4 306.519074 
L 161.568 306.454068 
L 164.736 306.586712 
L 171.072 306.563491 
L 174.24 306.90319 
L 177.408 307.038623 
L 190.08 307.011124 
L 193.248 306.719666 
L 199.584 306.796107 
L 202.752 306.535186 
L 215.424 306.845126 
L 218.592 307.155012 
L 221.76 307.592997 
L 224.928 307.55843 
L 228.096 307.714651 
L 231.264 307.676832 
L 237.6 307.288791 
L 240.768 307.489224 
L 243.936 307.506282 
L 247.104 308.023836 
L 250.272 307.983713 
L 256.608 308.224984 
L 259.776 308.02518 
L 262.944 308.083183 
L 266.112 307.751694 
L 269.28 307.93324 
L 272.448 307.828323 
L 275.616 308.003401 
L 278.784 307.837631 
L 281.952 307.9508 
L 288.288 307.57462 
L 291.456 307.383728 
L 297.792 307.368613 
L 300.96 307.005927 
L 307.296 306.99828 
L 313.632 306.938586 
L 319.968 307.304158 
L 323.136 307.637413 
L 326.304 307.39243 
L 329.472 306.982661 
L 332.64 306.970884 
L 335.808 306.836289 
L 345.312 306.869464 
L 348.48 306.606234 
L 354.816 306.666579 
L 380.16 306.604111 
L 383.328 306.270858 
L 386.496 306.365006 
L 392.832 306.232022 
L 396 306.227319 
L 399.168 305.959923 
L 405.504 305.799113 
L 411.84 305.953864 
L 418.176 305.972464 
L 424.512 305.876399 
L 427.68 305.578643 
L 430.848 305.766257 
L 437.184 305.680095 
L 446.688 305.750345 
L 449.856 305.628557 
L 456.192 305.614715 
L 462.528 305.568489 
L 465.696 305.726485 
L 468.864 305.68734 
L 475.2 305.991763 
L 481.536 305.853006 
L 484.704 305.681485 
L 487.872 305.83511 
L 491.04 305.8119 
L 503.712 306.224582 
L 510.048 306.090979 
L 519.552 306.004152 
L 522.72 306.346149 
L 529.056 306.258356 
L 532.224 306.41697 
L 541.728 306.421376 
L 554.4 306.835545 
L 557.568 306.640528 
L 560.736 306.868053 
L 563.904 306.975574 
L 570.24 306.566818 
L 579.744 306.639261 
L 586.08 306.560167 
L 592.416 306.510651 
L 608.256 306.267727 
L 617.76 306.031447 
L 620.928 306.41096 
L 627.264 306.100136 
L 633.6 306.108575 
L 636.768 305.987252 
L 639.936 305.711886 
L 652.608 305.39775 
L 655.776 305.150258 
L 658.944 305.171321 
L 662.112 305.305341 
L 665.28 305.267371 
L 671.616 305.37273 
L 687.456 305.275494 
L 690.624 305.483155 
L 696.96 305.300247 
L 700.128 305.406462 
L 703.296 305.210979 
L 706.464 305.162516 
L 709.632 305.376501 
L 712.8 305.446638 
L 728.64 305.175109 
L 731.808 305.325803 
L 741.312 305.236308 
L 744.48 305.026709 
L 747.648 305.274898 
L 766.656 305.157602 
L 769.824 304.934087 
L 772.992 304.917503 
L 776.16 304.706238 
L 782.496 304.943323 
L 785.664 304.926841 
L 788.832 304.765812 
L 788.832 304.765812 
" clip-path="url(#pd038e6d401)" style="fill: none; stroke: #000000; stroke-width: 1.5; stroke-linecap: square"/>
   </g>
   <g id="line2d_8">
    <path d="M 0 306 
L 3.168 306 
L 6.336 311.420793 
L 9.504 310.918498 
L 12.672 312.691445 
L 19.008 310.7217 
L 22.176 311.99696 
L 25.344 312.016317 
L 28.512 311.189361 
L 31.68 309.265019 
L 34.848 307.89544 
L 44.352 307.658439 
L 47.52 307.004911 
L 53.856 306.534901 
L 57.024 306.263347 
L 60.192 306.756129 
L 63.36 306.884301 
L 66.528 306.283708 
L 69.696 306.186376 
L 76.032 306.798839 
L 79.2 307.398051 
L 82.368 307.475169 
L 88.704 307.072181 
L 91.872 306.819548 
L 95.04 307.338498 
L 98.208 307.138983 
L 107.712 308.369493 
L 114.048 307.788485 
L 120.384 307.775983 
L 123.552 307.750644 
L 126.72 307.514928 
L 129.888 307.097642 
L 136.224 306.883886 
L 139.392 307.126577 
L 142.56 306.899929 
L 145.728 307.061895 
L 148.896 306.922688 
L 155.232 306.906299 
L 158.4 306.685357 
L 161.568 306.629648 
L 167.904 306.736724 
L 171.072 306.704907 
L 174.24 306.966408 
L 180.576 307.068943 
L 186.912 307.11072 
L 190.08 307.047363 
L 193.248 306.824359 
L 199.584 306.8778 
L 202.752 306.67929 
L 215.424 306.902119 
L 221.76 307.454358 
L 224.928 307.431711 
L 228.096 307.548773 
L 231.264 307.524408 
L 237.6 307.246886 
L 240.768 307.39269 
L 243.936 307.406828 
L 247.104 307.780674 
L 253.44 307.813822 
L 256.608 307.937121 
L 259.776 307.800619 
L 262.944 307.845725 
L 266.112 307.616269 
L 269.28 307.746308 
L 272.448 307.676108 
L 275.616 307.801112 
L 278.784 307.689194 
L 281.952 307.770368 
L 307.296 307.118327 
L 313.632 307.073588 
L 319.968 307.315786 
L 323.136 307.538633 
L 332.64 307.094424 
L 338.976 306.988662 
L 367.488 306.843224 
L 373.824 306.771778 
L 380.16 306.808863 
L 383.328 306.593135 
L 386.496 306.648355 
L 392.832 306.555101 
L 396 306.547434 
L 399.168 306.374039 
L 408.672 306.320218 
L 418.176 306.34585 
L 434.016 306.127718 
L 459.36 306.044056 
L 462.528 306.013765 
L 465.696 306.103332 
L 468.864 306.07461 
L 475.2 306.248625 
L 481.536 306.158396 
L 484.704 306.051663 
L 491.04 306.120682 
L 506.88 306.338421 
L 516.384 306.236401 
L 519.552 306.212174 
L 522.72 306.410197 
L 529.056 306.356777 
L 535.392 306.432131 
L 541.728 306.448974 
L 554.4 306.692613 
L 557.568 306.581811 
L 563.904 306.777611 
L 573.408 306.5638 
L 608.256 306.37612 
L 617.76 306.238026 
L 620.928 306.449119 
L 627.264 306.272528 
L 633.6 306.273306 
L 658.944 305.713945 
L 665.28 305.755028 
L 674.784 305.786567 
L 684.288 305.778148 
L 687.456 305.723951 
L 690.624 305.832857 
L 706.464 305.633434 
L 712.8 305.778942 
L 728.64 305.608407 
L 734.976 305.673352 
L 741.312 305.624001 
L 744.48 305.505834 
L 747.648 305.63469 
L 766.656 305.547513 
L 772.992 305.407944 
L 776.16 305.288578 
L 782.496 305.403475 
L 788.832 305.297554 
L 788.832 305.297554 
" clip-path="url(#pd038e6d401)" style="fill: none; stroke: #000000; stroke-width: 1.5; stroke-linecap: square"/>
   </g>
   <g id="line2d_9">
    <path d="M 0 306 
L 3.168 306 
L 6.336 311.406198 
L 9.504 310.911492 
L 12.672 312.671961 
L 19.008 310.730477 
L 22.176 311.984134 
L 25.344 312.004765 
L 28.512 311.196604 
L 31.68 309.317169 
L 34.848 307.978723 
L 44.352 307.730617 
L 47.52 307.095887 
L 53.856 306.633249 
L 57.024 306.367886 
L 60.192 306.832071 
L 63.36 306.949999 
L 66.528 306.376846 
L 69.696 306.280253 
L 76.032 306.850341 
L 79.2 307.410941 
L 82.368 307.482659 
L 91.872 306.869414 
L 95.04 307.34896 
L 98.208 307.163998 
L 107.712 308.297164 
L 114.048 307.769155 
L 126.72 307.523227 
L 129.888 307.14624 
L 136.224 306.951267 
L 139.392 307.167102 
L 142.56 306.963403 
L 145.728 307.106347 
L 152.064 306.961433 
L 155.232 306.964049 
L 158.4 306.76747 
L 161.568 306.716512 
L 167.904 306.8072 
L 171.072 306.77784 
L 174.24 307.00475 
L 180.576 307.092834 
L 186.912 307.128341 
L 190.08 307.073281 
L 193.248 306.880627 
L 199.584 306.924415 
L 202.752 306.753659 
L 215.424 306.939211 
L 221.76 307.405353 
L 224.928 307.387098 
L 228.096 307.486275 
L 231.264 307.466866 
L 237.6 307.236171 
L 250.272 307.662564 
L 259.776 307.704144 
L 262.944 307.742625 
L 266.112 307.556114 
L 269.28 307.663335 
L 272.448 307.607252 
L 275.616 307.710039 
L 278.784 307.620385 
L 281.952 307.687187 
L 310.464 307.120527 
L 316.8 307.21608 
L 323.136 307.493825 
L 335.808 307.072169 
L 380.16 306.906775 
L 383.328 306.741352 
L 389.664 306.724668 
L 399.168 306.567791 
L 408.672 306.520525 
L 421.344 306.485044 
L 424.512 306.476836 
L 427.68 306.333648 
L 430.848 306.411781 
L 437.184 306.358677 
L 446.688 306.370394 
L 456.192 306.290182 
L 468.864 306.296205 
L 475.2 306.418284 
L 497.376 306.37697 
L 503.712 306.476735 
L 529.056 306.469002 
L 535.392 306.520237 
L 541.728 306.530365 
L 554.4 306.698966 
L 557.568 306.621942 
L 563.904 306.757338 
L 576.576 306.602935 
L 589.248 306.60297 
L 617.76 306.379598 
L 620.928 306.520877 
L 630.432 306.412018 
L 636.768 306.35112 
L 643.104 306.207241 
L 658.944 306.011459 
L 668.448 306.062601 
L 703.296 305.951665 
L 709.632 305.998938 
L 719.136 305.987368 
L 725.472 305.909492 
L 788.832 305.659988 
L 788.832 305.659988 
" clip-path="url(#pd038e6d401)" style="fill: none; stroke: #000000; stroke-width: 1.5; stroke-linecap: square"/>
   </g>
  </g>
 </g>
 <defs>
  <clipPath id="pd038e6d401">
   <rect x="0" y="0" width="792" height="612"/>
  </clipPath>
 </defs>
</svg>
