<?xml version="1.0" encoding="utf-8" standalone="no"?>
<!DOCTYPE svg PUBLIC "-//W3C//DTD SVG 1.1//EN"
  "http://www.w3.org/Graphics/SVG/1.1/DTD/svg11.dtd">
<svg xmlns:xlink="http://www.w3.org/1999/xlink" width="792pt" height="612pt" viewBox="0 0 792 612" xmlns="http://www.w3.org/2000/svg" version="1.1">
 <metadata>
  <rdf:RDF xmlns:dc="http://purl.org/dc/elements/1.1/" xmlns:cc="http://creativecommons.org/ns#" xmlns:rdf="http://www.w3.org/1999/02/22-rdf-syntax-ns#">
   <cc:Work>
    <dc:type rdf:resource="http://purl.org/dc/dcmitype/StillImage"/>
    <dc:date>2023-01-02T15:39:02.751328</dc:date>
    <dc:format>image/svg+xml</dc:format>
    <dc:creator>
     <cc:Agent>
      <dc:title>Matplotlib v3.6.2, https://matplotlib.org/</dc:title>
     </cc:Agent>
    </dc:creator>
   </cc:Work>
  </rdf:RDF>
 </metadata>
 <defs>
  <style type="text/css">*{stroke-linejoin: round; stroke-linecap: butt}</style>
 </defs>
 <g id="figure_1">
  <g id="patch_1">
   <path d="M 0 612 
L 792 612 
L 792 0 
L 0 0 
z
" style="fill: #ffffff"/>
  </g>
  <g id="axes_1">
   <g id="line2d_1">
    <path d="M 0 306 
L 12.571429 287.911158 
L 25.142857 309.398512 
L 37.714286 305.781515 
L 50.285714 311.849823 
L 62.857143 300.878225 
L 75.428571 306.801109 
L 88 308.791672 
L 100.571429 301.193731 
L 113.142857 304.179315 
L 125.714286 298.864126 
L 138.285714 302.965589 
L 150.857143 303.45107 
L 163.428571 304.203591 
L 176 300.684073 
L 188.571429 304.227866 
L 201.142857 294.837957 
L 213.714286 337.111173 
L 226.285714 291.518007 
L 238.857143 296.098817 
L 251.428571 309.228599 
L 264 303.888014 
L 276.571429 296.220071 
L 289.142857 283.367546 
L 301.714286 298.087762 
L 314.285714 294.110709 
L 326.857143 294.571284 
L 339.428571 308.13626 
L 352 284.575058 
L 364.571429 306.218485 
L 377.142857 315.561662 
L 389.714286 301.630602 
L 402.285714 312.456479 
L 414.857143 305.781515 
L 427.428571 303.305425 
L 440 308.306184 
L 452.571429 307.068143 
L 465.142857 300.295782 
L 477.714286 297.481297 
L 490.285714 321.838115 
L 502.857143 297.529812 
L 515.428571 297.360012 
L 528 313.524068 
L 540.571429 288.806387 
L 553.142857 300.586999 
L 565.714286 322.17705 
L 578.285714 310.684918 
L 590.857143 299.737646 
L 603.428571 304.883305 
L 616 289.677704 
L 628.571429 303.912289 
L 641.142857 303.28115 
L 653.714286 316.992333 
L 666.285714 303.620992 
L 678.857143 303.620992 
L 691.428571 299.664848 
L 704 287.306449 
L 716.571429 324.790291 
L 729.142857 304.033665 
L 741.714286 305.174615 
L 754.285714 308.476106 
L 766.857143 304.713375 
L 779.428571 302.16458 
" clip-path="url(#p960802c741)" style="fill: none; stroke: #000000; stroke-width: 1.5; stroke-linecap: square"/>
   </g>
   <g id="line2d_2">
    <path d="M 0 306 
L 12.571429 306 
L 25.142857 293.932957 
L 37.714286 302.767933 
L 50.285714 304.375136 
L 62.857143 308.23336 
L 75.428571 304.497207 
L 88 305.658224 
L 100.571429 307.231124 
L 113.142857 304.202829 
L 125.714286 304.223011 
L 138.285714 301.522573 
L 150.857143 302.238539 
L 163.428571 302.828325 
L 176 303.522466 
L 188.571429 302.091192 
L 201.142857 303.150546 
L 213.714286 298.980494 
L 226.285714 318.157532 
L 238.857143 304.82114 
L 251.428571 300.445386 
L 264 304.848082 
L 276.571429 304.367425 
L 289.142857 300.283981 
L 301.714286 291.774007 
L 314.285714 294.936075 
L 326.857143 294.438953 
L 339.428571 294.511107 
L 352 301.344968 
L 364.571429 292.901876 
L 377.142857 299.561696 
L 389.714286 307.600684 
L 402.285714 304.651401 
L 414.857143 308.582533 
L 427.428571 307.204944 
L 440 305.27229 
L 452.571429 306.78959 
L 465.142857 306.973039 
L 477.714286 303.622515 
L 490.285714 300.515907 
L 502.857143 311.222944 
L 515.428571 304.346291 
L 528 300.835968 
L 540.571429 307.200565 
L 553.142857 297.957997 
L 565.714286 299.25967 
L 578.285714 310.767912 
L 590.857143 310.752303 
L 603.428571 305.201366 
L 616 305.056758 
L 628.571429 297.346695 
L 641.142857 300.61003 
L 653.714286 301.973925 
L 666.285714 309.517402 
L 678.857143 306.532836 
L 691.428571 305.063041 
L 704 302.363519 
L 716.571429 294.793748 
L 729.142857 309.870067 
L 741.714286 306.952191 
L 754.285714 306.067116 
L 766.857143 307.254924 
L 779.428571 305.986291 
" clip-path="url(#p960802c741)" style="fill: none; stroke: #000000; stroke-width: 1.5; stroke-linecap: square"/>
   </g>
   <g id="line2d_3">
    <path d="M 0 306 
L 12.571429 306 
L 25.142857 295.395681 
L 37.714286 301.738125 
L 50.285714 303.317068 
L 62.857143 306.353131 
L 75.428571 304.52034 
L 88 305.253126 
L 100.571429 306.358659 
L 113.142857 304.775826 
L 125.714286 304.595475 
L 138.285714 302.878583 
L 150.857143 302.904471 
L 163.428571 303.066353 
L 176 303.402058 
L 188.571429 302.601495 
L 201.142857 303.0797 
L 213.714286 300.651954 
L 226.285714 311.417913 
L 238.857143 305.566045 
L 251.428571 302.781138 
L 264 304.666504 
L 276.571429 304.441945 
L 289.142857 302.020896 
L 301.714286 296.518956 
L 314.285714 296.974834 
L 326.857143 296.124205 
L 339.428571 295.664379 
L 352 299.321538 
L 364.571429 294.974413 
L 377.142857 298.268309 
L 389.714286 303.350322 
L 402.285714 302.843622 
L 414.857143 305.679608 
L 427.428571 305.673347 
L 440 304.993333 
L 452.571429 305.97768 
L 465.142857 306.294589 
L 477.714286 304.53327 
L 490.285714 302.468749 
L 502.857143 308.190157 
L 515.428571 305.066568 
L 528 302.812547 
L 540.571429 305.972019 
L 553.142857 300.917256 
L 565.714286 300.838951 
L 578.285714 307.111153 
L 590.857143 308.152355 
L 603.428571 305.685338 
L 616 305.441727 
L 628.571429 300.801995 
L 641.142857 301.713594 
L 653.714286 302.16693 
L 666.285714 306.521838 
L 678.857143 305.676006 
L 691.428571 305.08115 
L 704 303.469057 
L 716.571429 298.717879 
L 729.142857 306.391809 
L 741.714286 305.690214 
L 754.285714 305.55802 
L 766.857143 306.421785 
L 779.428571 305.901325 
" clip-path="url(#p960802c741)" style="fill: none; stroke: #000000; stroke-width: 1.5; stroke-linecap: square"/>
   </g>
   <g id="line2d_4">
    <path d="M 0 306 
L 12.571429 306 
L 25.142857 296.165813 
L 37.714286 301.357526 
L 50.285714 302.765149 
L 62.857143 305.259262 
L 75.428571 304.180903 
L 88 304.774155 
L 100.571429 305.626435 
L 113.142857 304.733376 
L 125.714286 304.626293 
L 138.285714 303.549239 
L 150.857143 303.443111 
L 163.428571 303.444526 
L 176 303.577003 
L 188.571429 303.079726 
L 201.142857 303.274572 
L 213.714286 301.857179 
L 226.285714 307.74329 
L 238.857143 305.06038 
L 251.428571 303.588049 
L 264 304.509689 
L 276.571429 304.408543 
L 289.142857 303.080597 
L 301.714286 299.888442 
L 314.285714 299.598101 
L 326.857143 298.714913 
L 339.428571 298.049244 
L 352 299.666169 
L 364.571429 297.245248 
L 377.142857 298.680242 
L 389.714286 301.378347 
L 402.285714 301.418639 
L 414.857143 303.178772 
L 427.428571 303.604023 
L 440 303.552713 
L 452.571429 304.310563 
L 465.142857 304.746313 
L 477.714286 304.03777 
L 490.285714 302.98852 
L 502.857143 305.997879 
L 515.428571 304.647956 
L 528 303.483846 
L 540.571429 305.090626 
L 553.142857 302.488167 
L 565.714286 302.183876 
L 578.285714 305.378321 
L 590.857143 306.228918 
L 603.428571 305.193194 
L 616 305.15016 
L 628.571429 302.656428 
L 641.142857 302.863973 
L 653.714286 302.93483 
L 666.285714 305.176944 
L 678.857143 304.929215 
L 691.428571 304.725688 
L 704 303.930565 
L 716.571429 301.275509 
L 729.142857 305.03941 
L 741.714286 304.885297 
L 754.285714 304.929481 
L 766.857143 305.508702 
L 779.428571 305.381222 
" clip-path="url(#p960802c741)" style="fill: none; stroke: #000000; stroke-width: 1.5; stroke-linecap: square"/>
   </g>
   <g id="line2d_5">
    <path d="M 0 306 
L 12.571429 306 
L 25.142857 296.55599 
L 37.714286 301.211149 
L 50.285714 302.506107 
L 62.857143 304.711896 
L 75.428571 303.926964 
L 88 304.451513 
L 100.571429 305.171948 
L 113.142857 304.562151 
L 125.714286 304.507326 
L 138.285714 303.744931 
L 150.857143 303.644871 
L 163.428571 303.62107 
L 176 303.689871 
L 188.571429 303.346865 
L 201.142857 303.444356 
L 213.714286 302.517164 
L 226.285714 306.163779 
L 238.857143 304.656847 
L 251.428571 303.793723 
L 264 304.332057 
L 276.571429 304.288768 
L 289.142857 303.513125 
L 301.714286 301.598593 
L 314.285714 301.26942 
L 326.857143 300.60515 
L 339.428571 300.050699 
L 352 300.78666 
L 364.571429 299.319919 
L 377.142857 299.938271 
L 389.714286 301.329708 
L 402.285714 301.356346 
L 414.857143 302.333557 
L 427.428571 302.635573 
L 440 302.693982 
L 452.571429 303.181275 
L 465.142857 303.517477 
L 477.714286 303.239737 
L 490.285714 302.744813 
L 502.857143 304.381715 
L 515.428571 303.796097 
L 528 303.247356 
L 540.571429 304.121427 
L 553.142857 302.820173 
L 565.714286 302.630978 
L 578.285714 304.285108 
L 590.857143 304.825493 
L 603.428571 304.396456 
L 616 304.437449 
L 628.571429 303.194903 
L 641.142857 303.255168 
L 653.714286 303.257348 
L 666.285714 304.409308 
L 678.857143 304.343266 
L 691.428571 304.282805 
L 704 303.896456 
L 716.571429 302.50779 
L 729.142857 304.371231 
L 741.714286 304.343045 
L 754.285714 304.412444 
L 766.857143 304.751427 
L 779.428571 304.748254 
" clip-path="url(#p960802c741)" style="fill: none; stroke: #000000; stroke-width: 1.5; stroke-linecap: square"/>
   </g>
   <g id="line2d_6">
    <path d="M 0 306 
L 12.571429 306 
L 25.142857 296.751731 
L 37.714286 301.14983 
L 50.285714 302.383917 
L 62.857143 304.444613 
L 75.428571 303.783972 
L 88 304.272961 
L 100.571429 304.927051 
L 113.142857 304.436782 
L 125.714286 304.405735 
L 138.285714 303.785822 
L 150.857143 303.700039 
L 163.428571 303.675526 
L 176 303.724758 
L 188.571429 303.454957 
L 201.142857 303.520493 
L 213.714286 302.813877 
L 226.285714 305.507533 
L 238.857143 304.449371 
L 251.428571 303.838263 
L 264 304.220818 
L 276.571429 304.197854 
L 289.142857 303.661456 
L 301.714286 302.327913 
L 314.285714 302.056068 
L 326.857143 301.557336 
L 339.428571 301.127584 
L 352 301.550375 
L 364.571429 300.542434 
L 377.142857 300.873211 
L 389.714286 301.715978 
L 402.285714 301.711151 
L 414.857143 302.310076 
L 427.428571 302.501014 
L 440 302.54471 
L 452.571429 302.853971 
L 465.142857 303.077656 
L 477.714286 302.931531 
L 490.285714 302.648067 
L 502.857143 303.637021 
L 515.428571 303.325245 
L 528 303.023323 
L 540.571429 303.550367 
L 553.142857 302.815288 
L 565.714286 302.705126 
L 578.285714 303.661631 
L 590.857143 304.004102 
L 603.428571 303.797346 
L 616 303.849647 
L 628.571429 303.170319 
L 641.142857 303.205654 
L 653.714286 303.20923 
L 666.285714 303.859175 
L 678.857143 303.848 
L 691.428571 303.837397 
L 704 303.643312 
L 716.571429 302.885621 
L 729.142857 303.897241 
L 741.714286 303.903512 
L 754.285714 303.961728 
L 766.857143 304.167785 
L 779.428571 304.192608 
" clip-path="url(#p960802c741)" style="fill: none; stroke: #000000; stroke-width: 1.5; stroke-linecap: square"/>
   </g>
   <g id="line2d_7">
    <path d="M 0 306 
L 12.571429 306 
L 25.142857 296.849685 
L 37.714286 301.122215 
L 50.285714 302.325025 
L 62.857143 304.313418 
L 75.428571 303.709385 
L 88 304.180257 
L 100.571429 304.801317 
L 113.142857 304.36484 
L 125.714286 304.344427 
L 138.285714 303.790423 
L 150.857143 303.713205 
L 163.428571 303.690317 
L 176 303.732362 
L 188.571429 303.496879 
L 201.142857 303.550357 
L 213.714286 302.944021 
L 226.285714 305.218645 
L 238.857143 304.347811 
L 251.428571 303.844865 
L 264 304.160512 
L 276.571429 304.145108 
L 289.142857 303.712156 
L 301.714286 302.634712 
L 314.285714 302.401645 
L 326.857143 301.988843 
L 339.428571 301.62972 
L 352 301.93627 
L 364.571429 301.137258 
L 377.142857 301.36507 
L 389.714286 301.987126 
L 402.285714 301.971846 
L 414.857143 302.41173 
L 427.428571 302.55026 
L 440 302.580707 
L 452.571429 302.807254 
L 465.142857 302.972847 
L 477.714286 302.870571 
L 490.285714 302.668039 
L 502.857143 303.377281 
L 515.428571 303.164331 
L 528 302.95607 
L 540.571429 303.329772 
L 553.142857 302.822707 
L 565.714286 302.745767 
L 578.285714 303.406301 
L 590.857143 303.65049 
L 603.428571 303.520771 
L 616 303.56541 
L 628.571429 303.115037 
L 641.142857 303.140584 
L 653.714286 303.145041 
L 666.285714 303.579761 
L 678.857143 303.581043 
L 691.428571 303.582272 
L 704 303.462797 
L 716.571429 302.973893 
L 729.142857 303.628096 
L 741.714286 303.640142 
L 754.285714 303.685345 
L 766.857143 303.825349 
L 779.428571 303.8511 
" clip-path="url(#p960802c741)" style="fill: none; stroke: #000000; stroke-width: 1.5; stroke-linecap: square"/>
   </g>
   <g id="line2d_8">
    <path d="M 0 306 
L 12.571429 306 
L 25.142857 296.898673 
L 37.714286 301.109176 
L 50.285714 302.296175 
L 62.857143 304.248536 
L 75.428571 303.671447 
L 88 304.133183 
L 100.571429 304.737802 
L 113.142857 304.326707 
L 125.714286 304.31124 
L 138.285714 303.788698 
L 150.857143 303.715945 
L 163.428571 303.694219 
L 176 303.733219 
L 188.571429 303.51415 
L 201.142857 303.562471 
L 213.714286 303.003332 
L 226.285714 305.084131 
L 238.857143 304.297793 
L 251.428571 303.844132 
L 264 304.129246 
L 276.571429 304.11699 
L 289.142857 303.731057 
L 301.714286 302.770864 
L 314.285714 302.558141 
L 326.857143 302.187158 
L 339.428571 301.863433 
L 352 302.121711 
L 364.571429 301.419213 
L 377.142857 301.605545 
L 389.714286 302.132712 
L 402.285714 302.114245 
L 414.857143 302.484957 
L 427.428571 302.600225 
L 440 302.624301 
L 452.571429 302.81385 
L 465.142857 302.95264 
L 477.714286 302.867802 
L 490.285714 302.699337 
L 502.857143 303.286107 
L 515.428571 303.113128 
L 528 302.943512 
L 540.571429 303.249657 
L 553.142857 302.838751 
L 565.714286 302.775867 
L 578.285714 303.308859 
L 590.857143 303.508031 
L 603.428571 303.407831 
L 616 303.446426 
L 628.571429 303.091349 
L 641.142857 303.112185 
L 653.714286 303.116412 
L 666.285714 303.458747 
L 678.857143 303.462694 
L 691.428571 303.466493 
L 704 303.376427 
L 716.571429 303.000105 
L 729.142857 303.503847 
L 741.714286 303.515934 
L 754.285714 303.553323 
L 766.857143 303.662997 
L 779.428571 303.686132 
" clip-path="url(#p960802c741)" style="fill: none; stroke: #000000; stroke-width: 1.5; stroke-linecap: square"/>
   </g>
   <g id="line2d_9">
    <path d="M 0 306 
L 12.571429 306 
L 25.142857 296.923168 
L 37.714286 301.102849 
L 50.285714 302.281904 
L 62.857143 304.216287 
L 75.428571 303.652333 
L 88 304.109483 
L 100.571429 304.705906 
L 113.142857 304.307124 
L 125.714286 304.294029 
L 138.285714 303.78683 
L 150.857143 303.716335 
L 163.428571 303.69526 
L 176 303.732861 
L 188.571429 303.521792 
L 201.142857 303.567736 
L 213.714286 303.031414 
L 226.285714 305.019325 
L 238.857143 304.272984 
L 251.428571 303.842746 
L 264 304.113337 
L 276.571429 304.102502 
L 289.142857 303.738852 
L 301.714286 302.834381 
L 314.285714 302.631875 
L 326.857143 302.281281 
L 339.428571 301.975016 
L 352 302.211495 
L 364.571429 301.554938 
L 377.142857 301.72288 
L 389.714286 302.206534 
L 402.285714 302.186984 
L 414.857143 302.525886 
L 427.428571 302.630433 
L 440 302.651547 
L 452.571429 302.823946 
L 465.142857 302.950177 
L 477.714286 302.873092 
L 490.285714 302.7201 
L 502.857143 303.25059 
L 515.428571 303.095374 
L 528 302.943069 
L 540.571429 303.21817 
L 553.142857 302.85063 
L 565.714286 302.794097 
L 578.285714 303.269165 
L 590.857143 303.447391 
L 603.428571 303.359849 
L 616 303.395151 
L 628.571429 303.082506 
L 641.142857 303.101076 
L 653.714286 303.105039 
L 666.285714 303.405726 
L 678.857143 303.410311 
L 691.428571 303.414728 
L 704 303.337299 
L 716.571429 303.01086 
L 729.142857 303.447677 
L 741.714286 303.459248 
L 754.285714 303.492642 
L 766.857143 303.588309 
L 779.428571 303.609614 
" clip-path="url(#p960802c741)" style="fill: none; stroke: #000000; stroke-width: 1.5; stroke-linecap: square"/>
   </g>
  </g>
 </g>
 <defs>
  <clipPath id="p960802c741">
   <rect x="0" y="0" width="792" height="612"/>
  </clipPath>
 </defs>
</svg>
