<?xml version="1.0" encoding="utf-8" standalone="no"?>
<!DOCTYPE svg PUBLIC "-//W3C//DTD SVG 1.1//EN"
  "http://www.w3.org/Graphics/SVG/1.1/DTD/svg11.dtd">
<svg xmlns:xlink="http://www.w3.org/1999/xlink" width="792pt" height="612pt" viewBox="0 0 792 612" xmlns="http://www.w3.org/2000/svg" version="1.1">
 <metadata>
  <rdf:RDF xmlns:dc="http://purl.org/dc/elements/1.1/" xmlns:cc="http://creativecommons.org/ns#" xmlns:rdf="http://www.w3.org/1999/02/22-rdf-syntax-ns#">
   <cc:Work>
    <dc:type rdf:resource="http://purl.org/dc/dcmitype/StillImage"/>
    <dc:date>2023-01-09T02:28:49.450075</dc:date>
    <dc:format>image/svg+xml</dc:format>
    <dc:creator>
     <cc:Agent>
      <dc:title>Matplotlib v3.6.2, https://matplotlib.org/</dc:title>
     </cc:Agent>
    </dc:creator>
   </cc:Work>
  </rdf:RDF>
 </metadata>
 <defs>
  <style type="text/css">*{stroke-linejoin: round; stroke-linecap: butt}</style>
 </defs>
 <g id="figure_1">
  <g id="patch_1">
   <path d="M 0 612 
L 792 612 
L 792 0 
L 0 0 
z
" style="fill: #ffffff"/>
  </g>
  <g id="axes_1">
   <g id="line2d_1">
    <path d="M 0 306 
L 12.774194 306.765578 
L 25.548387 308.667863 
L 38.322581 301.406865 
L 51.096774 304.260064 
L 63.870968 299.180508 
L 76.645161 303.100163 
L 89.419355 303.564115 
L 102.193548 304.283263 
L 114.967742 300.9198 
L 127.741935 304.306462 
L 140.516129 295.332603 
L 153.290323 335.740244 
L 166.064516 292.159412 
L 178.83871 296.537665 
L 191.612903 309.085415 
L 204.387097 303.981682 
L 217.16129 296.653553 
L 229.935484 284.36791 
L 242.709677 298.438537 
L 255.483871 294.637524 
L 268.258065 295.077728 
L 281.032258 308.041516 
L 293.806452 285.522387 
L 306.580645 306.208795 
L 319.354839 315.137843 
L 332.129032 301.824368 
L 344.903226 312.170202 
L 357.677419 305.791205 
L 370.451613 303.424928 
L 383.225806 308.203904 
L 396 307.02077 
L 408.774194 300.548719 
L 421.548387 297.858934 
L 434.322581 321.136839 
L 447.096774 297.905301 
L 459.870968 297.743021 
L 472.645161 313.190488 
L 485.419355 289.567454 
L 498.193548 300.827028 
L 510.967742 321.460819 
L 523.741935 310.477163 
L 536.516129 300.01532 
L 549.290323 304.932832 
L 562.064516 290.400343 
L 574.83871 304.00488 
L 587.612903 303.40173 
L 600.387097 316.505195 
L 613.16129 303.726501 
L 625.935484 303.726501 
L 638.709677 299.945748 
L 651.483871 288.133612 
L 664.258065 323.958868 
L 677.032258 304.120873 
L 689.806452 305.211222 
L 702.580645 308.366291 
L 715.354839 304.770439 
L 728.129032 302.334671 
L 740.903226 294.637524 
L 753.677419 286.88542 
L 766.451613 302.868191 
L 779.225806 287.440096 
" clip-path="url(#p4c64e33fd1)" style="fill: none; stroke: #000000; stroke-width: 1.5; stroke-linecap: square"/>
   </g>
   <g id="line2d_2">
    <path d="M 0 306 
L 12.774194 306 
L 25.548387 306.510386 
L 38.322581 307.74325 
L 51.096774 304.363685 
L 63.870968 304.310203 
L 76.645161 301.704344 
L 89.419355 302.40773 
L 102.193548 302.988179 
L 114.967742 303.632344 
L 127.741935 302.264537 
L 140.516129 303.276918 
L 153.290323 299.291719 
L 166.064516 317.618854 
L 178.83871 304.873424 
L 191.612903 300.691693 
L 204.387097 304.899171 
L 217.16129 304.439832 
L 229.935484 300.537442 
L 242.709677 292.404105 
L 255.483871 295.42638 
L 268.258065 294.95125 
L 281.032258 295.020212 
L 293.806452 301.551398 
L 306.580645 293.482138 
L 319.354839 299.847168 
L 332.129032 307.529692 
L 344.903226 304.711213 
L 357.677419 308.467998 
L 370.451613 307.151503 
L 383.225806 305.304565 
L 396 306.75457 
L 408.774194 306.929883 
L 421.548387 303.727957 
L 434.322581 300.759087 
L 447.096774 310.991339 
L 459.870968 304.419635 
L 472.645161 301.064962 
L 485.419355 307.147318 
L 498.193548 298.31452 
L 510.967742 299.558526 
L 523.741935 310.556479 
L 536.516129 310.541562 
L 549.290323 305.236787 
L 562.064516 305.098592 
L 574.83871 297.730293 
L 587.612903 300.849039 
L 600.387097 302.15247 
L 613.16129 309.361411 
L 625.935484 306.509203 
L 638.709677 305.104597 
L 651.483871 302.524789 
L 664.258065 295.29035 
L 677.032258 309.69844 
L 689.806452 306.909959 
L 702.580645 306.064139 
L 715.354839 307.199266 
L 728.129032 305.986899 
L 740.903226 304.15799 
L 753.677419 299.385746 
L 766.451613 293.127752 
L 779.225806 297.954576 
" clip-path="url(#p4c64e33fd1)" style="fill: none; stroke: #000000; stroke-width: 1.5; stroke-linecap: square"/>
   </g>
   <g id="line2d_3">
    <path d="M 0 306 
L 12.774194 306 
L 25.548387 306.448466 
L 38.322581 307.454054 
L 51.096774 305.092355 
L 63.870968 304.796233 
L 76.645161 302.916175 
L 89.419355 302.975288 
L 102.193548 303.159247 
L 114.967742 303.503679 
L 127.741935 302.722411 
L 140.516129 303.196838 
L 153.290323 300.856038 
L 166.064516 311.214579 
L 178.83871 305.587071 
L 191.612903 302.921053 
L 204.387097 304.733597 
L 217.16129 304.511046 
L 229.935484 302.197357 
L 242.709677 296.939205 
L 255.483871 297.3749 
L 268.258065 296.56193 
L 281.032258 296.122457 
L 293.806452 299.617651 
L 306.580645 295.463022 
L 319.354839 298.611087 
L 332.129032 303.467834 
L 344.903226 302.983604 
L 357.677419 305.693818 
L 370.451613 305.687834 
L 383.225806 305.03798 
L 396 305.97867 
L 408.774194 306.281523 
L 421.548387 304.598321 
L 434.322581 302.625353 
L 447.096774 308.093023 
L 459.870968 305.107967 
L 472.645161 302.953907 
L 485.419355 305.97326 
L 498.193548 301.142646 
L 510.967742 301.067812 
L 523.741935 307.061872 
L 536.516129 308.056897 
L 549.290323 305.699294 
L 562.064516 305.466488 
L 574.83871 301.032494 
L 587.612903 301.90368 
L 600.387097 302.336917 
L 613.16129 306.498693 
L 625.935484 305.690376 
L 638.709677 305.121902 
L 651.483871 303.581304 
L 664.258065 299.040741 
L 677.032258 306.374432 
L 689.806452 305.703954 
L 702.580645 305.577622 
L 715.354839 306.403078 
L 728.129032 305.905702 
L 740.903226 304.850372 
L 753.677419 301.851635 
L 766.451613 297.442128 
L 779.225806 299.045309 
" clip-path="url(#p4c64e33fd1)" style="fill: none; stroke: #000000; stroke-width: 1.5; stroke-linecap: square"/>
   </g>
   <g id="line2d_4">
    <path d="M 0 306 
L 12.774194 306 
L 25.548387 306.415873 
L 38.322581 307.299717 
L 51.096774 305.424466 
L 63.870968 305.104801 
L 76.645161 303.646479 
L 89.419355 303.522782 
L 102.193548 303.53155 
L 114.967742 303.682984 
L 127.741935 303.148902 
L 140.516129 303.365226 
L 153.290323 301.904038 
L 166.064516 307.936349 
L 178.83871 305.181174 
L 191.612903 303.695064 
L 204.387097 304.609854 
L 217.16129 304.504365 
L 229.935484 303.197102 
L 242.709677 300.080381 
L 255.483871 299.810706 
L 268.258065 298.965101 
L 281.032258 298.332442 
L 293.806452 299.905903 
L 306.580645 297.577608 
L 319.354839 298.968597 
L 332.129032 301.569631 
L 344.903226 301.61054 
L 357.677419 303.3038 
L 370.451613 303.702157 
L 383.225806 303.657804 
L 396 304.384463 
L 408.774194 304.805548 
L 421.548387 304.124796 
L 434.322581 303.122076 
L 447.096774 305.997973 
L 459.870968 304.707921 
L 472.645161 303.595437 
L 485.419355 305.130958 
L 498.193548 302.643911 
L 510.967742 302.353111 
L 523.741935 305.405894 
L 536.516129 306.218765 
L 549.290323 305.228977 
L 562.064516 305.187852 
L 574.83871 302.804711 
L 587.612903 303.003052 
L 600.387097 303.070767 
L 613.16129 305.213448 
L 625.935484 304.976706 
L 638.709677 304.782206 
L 651.483871 304.022346 
L 664.258065 301.485018 
L 677.032258 305.082013 
L 689.806452 304.934736 
L 702.580645 304.97696 
L 715.354839 305.530491 
L 728.129032 305.408666 
L 740.903226 304.911569 
L 753.677419 303.271681 
L 766.451613 300.645297 
L 779.225806 300.997112 
" clip-path="url(#p4c64e33fd1)" style="fill: none; stroke: #000000; stroke-width: 1.5; stroke-linecap: square"/>
   </g>
   <g id="line2d_5">
    <path d="M 0 306 
L 12.774194 306 
L 25.548387 306.399363 
L 38.322581 307.221927 
L 51.096774 305.574044 
L 63.870968 305.263855 
L 76.645161 304.01822 
L 89.419355 303.850661 
L 102.193548 303.803097 
L 114.967742 303.876692 
L 127.741935 303.453206 
L 140.516129 303.568457 
L 153.290323 302.510624 
L 166.064516 306.603093 
L 178.83871 304.896034 
L 191.612903 303.941996 
L 204.387097 304.511169 
L 217.16129 304.454152 
L 229.935484 303.634132 
L 242.709677 301.64978 
L 255.483871 301.325973 
L 268.258065 300.663159 
L 281.032258 300.118432 
L 293.806452 300.879627 
L 306.580645 299.420628 
L 319.354839 300.056786 
L 332.129032 301.45538 
L 344.903226 301.489271 
L 357.677419 302.461633 
L 370.451613 302.762325 
L 383.225806 302.821733 
L 396 303.301073 
L 408.774194 303.630358 
L 421.548387 303.359016 
L 434.322581 302.87709 
L 447.096774 304.470303 
L 459.870968 303.900098 
L 472.645161 303.367363 
L 485.419355 304.214185 
L 498.193548 302.9544 
L 510.967742 302.772127 
L 523.741935 304.370004 
L 536.516129 304.890571 
L 549.290323 304.475897 
L 562.064516 304.514677 
L 574.83871 303.317928 
L 587.612903 303.376021 
L 600.387097 303.378192 
L 613.16129 304.485275 
L 625.935484 304.421384 
L 638.709677 304.362943 
L 651.483871 303.991811 
L 664.258065 302.659339 
L 677.032258 304.446832 
L 689.806452 304.419525 
L 702.580645 304.485796 
L 715.354839 304.810396 
L 728.129032 304.807056 
L 740.903226 304.600491 
L 753.677419 303.768187 
L 766.451613 302.357258 
L 779.225806 302.399879 
" clip-path="url(#p4c64e33fd1)" style="fill: none; stroke: #000000; stroke-width: 1.5; stroke-linecap: square"/>
   </g>
   <g id="line2d_6">
    <path d="M 0 306 
L 12.774194 306 
L 25.548387 306.39108 
L 38.322581 307.18313 
L 51.096774 305.643827 
L 63.870968 305.342589 
L 76.645161 304.201036 
L 89.419355 304.022608 
L 102.193548 303.95624 
L 114.967742 303.999181 
L 127.741935 303.627808 
L 140.516129 303.70371 
L 153.290323 302.827875 
L 166.064516 306.077542 
L 178.83871 304.779058 
L 191.612903 304.047622 
L 204.387097 304.474791 
L 217.16129 304.434679 
L 229.935484 303.82525 
L 242.709677 302.352033 
L 255.483871 302.065688 
L 268.258065 301.538245 
L 281.032258 301.092277 
L 293.806452 301.559268 
L 306.580645 300.50579 
L 319.354839 300.871269 
L 332.129032 301.766295 
L 344.903226 301.769865 
L 357.677419 302.397325 
L 370.451613 302.598467 
L 383.225806 302.646638 
L 396 302.965465 
L 408.774194 303.194692 
L 421.548387 303.047188 
L 434.322581 302.761725 
L 447.096774 303.760498 
L 459.870968 303.4461 
L 472.645161 303.143284 
L 485.419355 303.671016 
L 498.193548 302.936935 
L 510.967742 302.828264 
L 523.741935 303.779803 
L 536.516129 304.118686 
L 549.290323 303.912721 
L 562.064516 303.963521 
L 574.83871 303.292418 
L 587.612903 303.327391 
L 600.387097 303.331016 
L 613.16129 303.969515 
L 625.935484 303.957811 
L 638.709677 303.946735 
L 651.483871 303.756164 
L 664.258065 303.015114 
L 677.032258 304.003352 
L 689.806452 304.008866 
L 702.580645 304.065025 
L 715.354839 304.265062 
L 728.129032 304.288469 
L 740.903226 304.198324 
L 753.677419 303.758649 
L 766.451613 302.984758 
L 779.225806 302.979437 
" clip-path="url(#p4c64e33fd1)" style="fill: none; stroke: #000000; stroke-width: 1.5; stroke-linecap: square"/>
   </g>
   <g id="line2d_7">
    <path d="M 0 306 
L 12.774194 306 
L 25.548387 306.386935 
L 38.322581 307.163789 
L 51.096774 305.677379 
L 63.870968 305.381502 
L 76.645161 304.291058 
L 89.419355 304.109674 
L 102.193548 304.036198 
L 114.967742 304.066087 
L 127.741935 303.719884 
L 140.516129 303.779169 
L 153.290323 302.988102 
L 166.064516 305.855894 
L 178.83871 304.733177 
L 191.612903 304.099916 
L 204.387097 304.464651 
L 217.16129 304.431055 
L 229.935484 303.914715 
L 242.709677 302.671055 
L 255.483871 302.413041 
L 268.258065 301.956933 
L 281.032258 301.567894 
L 293.806452 301.921373 
L 306.580645 301.053158 
L 319.354839 301.317321 
L 332.129032 302.005077 
L 344.903226 301.996333 
L 357.677419 302.47571 
L 370.451613 302.628012 
L 383.225806 302.663746 
L 396 302.90647 
L 408.774194 303.08278 
L 421.548387 302.976448 
L 434.322581 302.766 
L 447.096774 303.507135 
L 459.870968 303.285405 
L 472.645161 303.069935 
L 485.419355 303.456566 
L 498.193548 302.934202 
L 510.967742 302.856287 
L 523.741935 303.534054 
L 536.516129 303.783103 
L 549.290323 303.649858 
L 562.064516 303.694599 
L 574.83871 303.236699 
L 587.612903 303.262794 
L 600.387097 303.267455 
L 613.16129 303.70636 
L 625.935484 303.707019 
L 638.709677 303.707651 
L 651.483871 303.587085 
L 664.258065 303.09648 
L 677.032258 303.751858 
L 689.806452 303.763325 
L 702.580645 303.807889 
L 715.354839 303.946888 
L 728.129032 303.971775 
L 740.903226 303.922731 
L 753.677419 303.646791 
L 766.451613 303.152315 
L 779.225806 303.144012 
" clip-path="url(#p4c64e33fd1)" style="fill: none; stroke: #000000; stroke-width: 1.5; stroke-linecap: square"/>
   </g>
   <g id="line2d_8">
    <path d="M 0 306 
L 12.774194 306 
L 25.548387 306.384863 
L 38.322581 307.154137 
L 51.096774 305.69381 
L 63.870968 305.400813 
L 76.645161 304.335646 
L 89.419355 304.153358 
L 102.193548 304.07688 
L 114.967742 304.100817 
L 127.741935 303.766958 
L 140.516129 303.818702 
L 153.290323 303.068321 
L 166.064516 305.755726 
L 178.83871 304.714005 
L 191.612903 304.126427 
L 204.387097 304.46217 
L 217.16129 304.431391 
L 229.935484 303.958209 
L 242.709677 302.821567 
L 255.483871 302.579089 
L 268.258065 302.158357 
L 281.032258 301.798434 
L 293.806452 302.103388 
L 306.580645 301.321793 
L 319.354839 301.543693 
L 332.129032 302.140396 
L 344.903226 302.126969 
L 357.677419 302.540527 
L 370.451613 302.670428 
L 383.225806 302.699725 
L 396 302.907606 
L 408.774194 303.058868 
L 421.548387 302.968881 
L 434.322581 302.790147 
L 447.096774 303.416923 
L 459.870968 303.232992 
L 472.645161 303.053829 
L 485.419355 303.377493 
L 498.193548 302.945243 
L 510.967742 302.880338 
L 523.741935 303.438882 
L 536.516129 303.646326 
L 549.290323 303.541256 
L 562.064516 303.580799 
L 574.83871 303.212397 
L 587.612903 303.234153 
L 600.387097 303.238678 
L 613.16129 303.591276 
L 625.935484 303.594813 
L 638.709677 303.598206 
L 651.483871 303.505488 
L 664.258065 303.120469 
L 677.032258 303.634913 
L 689.806452 303.646735 
L 702.580645 303.684284 
L 715.354839 303.795187 
L 728.129032 303.817993 
L 740.903226 303.783735 
L 753.677419 303.574972 
L 766.451613 303.198224 
L 779.225806 303.190871 
" clip-path="url(#p4c64e33fd1)" style="fill: none; stroke: #000000; stroke-width: 1.5; stroke-linecap: square"/>
   </g>
   <g id="line2d_9">
    <path d="M 0 306 
L 12.774194 306 
L 25.548387 306.383826 
L 38.322581 307.149316 
L 51.096774 305.701938 
L 63.870968 305.410428 
L 76.645161 304.357825 
L 89.419355 304.175223 
L 102.193548 304.097378 
L 114.967742 304.118482 
L 127.741935 303.790732 
L 140.516129 303.838896 
L 153.290323 303.108418 
L 166.064516 305.708326 
L 178.83871 304.705423 
L 191.612903 304.13983 
L 204.387097 304.461639 
L 217.16129 304.432167 
L 229.935484 303.979691 
L 242.709677 302.894499 
L 255.483871 302.660004 
L 268.258065 302.256738 
L 281.032258 301.911374 
L 293.806452 302.194044 
L 306.580645 301.454064 
L 319.354839 301.65684 
L 332.129032 302.211221 
L 344.903226 302.195861 
L 357.677419 302.578725 
L 370.451613 302.698093 
L 383.225806 302.724271 
L 396 302.915751 
L 408.774194 303.055081 
L 421.548387 302.972358 
L 434.322581 302.808097 
L 447.096774 303.381754 
L 459.870968 303.214731 
L 472.645161 303.051935 
L 485.419355 303.34635 
L 498.193548 302.955071 
L 510.967742 302.896055 
L 523.741935 303.39993 
L 536.516129 303.587812 
L 549.290323 303.494922 
L 562.064516 303.53155 
L 574.83871 303.203325 
L 587.612903 303.222956 
L 600.387097 303.227253 
L 613.16129 303.540611 
L 625.935484 303.544919 
L 638.709677 303.549053 
L 651.483871 303.468403 
L 664.258065 303.130531 
L 677.032258 303.5818 
L 689.806452 303.593283 
L 702.580645 303.627205 
L 715.354839 303.725041 
L 728.129032 303.7463 
L 740.903226 303.718015 
L 753.677419 303.538609 
L 766.451613 303.213947 
L 779.225806 303.207309 
" clip-path="url(#p4c64e33fd1)" style="fill: none; stroke: #000000; stroke-width: 1.5; stroke-linecap: square"/>
   </g>
  </g>
 </g>
 <defs>
  <clipPath id="p4c64e33fd1">
   <rect x="0" y="0" width="792" height="612"/>
  </clipPath>
 </defs>
</svg>
