<?xml version="1.0" encoding="utf-8" standalone="no"?>
<!DOCTYPE svg PUBLIC "-//W3C//DTD SVG 1.1//EN"
  "http://www.w3.org/Graphics/SVG/1.1/DTD/svg11.dtd">
<svg xmlns:xlink="http://www.w3.org/1999/xlink" width="792pt" height="612pt" viewBox="0 0 792 612" xmlns="http://www.w3.org/2000/svg" version="1.1">
 <metadata>
  <rdf:RDF xmlns:dc="http://purl.org/dc/elements/1.1/" xmlns:cc="http://creativecommons.org/ns#" xmlns:rdf="http://www.w3.org/1999/02/22-rdf-syntax-ns#">
   <cc:Work>
    <dc:type rdf:resource="http://purl.org/dc/dcmitype/StillImage"/>
    <dc:date>2022-12-26T20:26:54.237812</dc:date>
    <dc:format>image/svg+xml</dc:format>
    <dc:creator>
     <cc:Agent>
      <dc:title>Matplotlib v3.6.2, https://matplotlib.org/</dc:title>
     </cc:Agent>
    </dc:creator>
   </cc:Work>
  </rdf:RDF>
 </metadata>
 <defs>
  <style type="text/css">*{stroke-linejoin: round; stroke-linecap: butt}</style>
 </defs>
 <g id="figure_1">
  <g id="patch_1">
   <path d="M 0 612 
L 792 612 
L 792 0 
L 0 0 
z
" style="fill: #ffffff"/>
  </g>
  <g id="axes_1">
   <g id="line2d_1">
    <path d="M 0 306 
L 12.375 305.591488 
L 24.75 291.76041 
L 37.125 325.46215 
L 49.5 316.209026 
L 61.875 294.063073 
L 74.25 288.093984 
L 86.625 309.364086 
L 99 305.783729 
L 111.375 311.790576 
L 123.75 300.930101 
L 136.125 306.792993 
L 148.5 308.763393 
L 160.875 301.242413 
L 173.25 304.197759 
L 185.625 298.936389 
L 198 302.996327 
L 210.375 303.476891 
L 222.75 304.221789 
L 235.125 300.737915 
L 247.5 304.245818 
L 259.875 294.950934 
L 272.25 336.798149 
L 284.625 291.664499 
L 297 296.19905 
L 309.375 309.195894 
L 321.75 303.909409 
L 334.125 296.319079 
L 346.5 283.595997 
L 358.875 298.16788 
L 371.25 294.231032 
L 383.625 294.686955 
L 396 308.11462 
L 408.375 284.791401 
L 420.75 306.216271 
L 433.125 315.464861 
L 445.5 301.67486 
L 457.875 312.391092 
L 470.25 305.783729 
L 482.625 303.33272 
L 495 308.282822 
L 507.375 307.057323 
L 519.75 300.353554 
L 532.125 297.567551 
L 544.5 321.677951 
L 556.875 297.615575 
L 569.25 297.447493 
L 581.625 313.447877 
L 594 288.980203 
L 606.375 300.641823 
L 618.75 322.013471 
L 631.125 310.637465 
L 643.5 299.801068 
L 655.875 304.894618 
L 668.25 289.842746 
L 680.625 303.933438 
L 693 303.308692 
L 705.375 316.881071 
L 717.75 303.645091 
L 730.125 303.645091 
L 742.5 299.729008 
L 754.875 287.495357 
L 767.25 324.600411 
L 779.625 304.053584 
" clip-path="url(#pdd992a4c79)" style="fill: none; stroke: #000000; stroke-width: 1.5; stroke-linecap: square"/>
   </g>
   <g id="line2d_2">
    <path d="M 0 306 
L 12.375 306 
L 24.75 305.727658 
L 37.125 297.742498 
L 49.5 312.538411 
L 61.875 314.433224 
L 74.25 304.084478 
L 86.625 296.019485 
L 99 302.716382 
L 111.375 304.249587 
L 123.75 308.032544 
L 136.125 304.499117 
L 148.5 305.609392 
L 160.875 307.171818 
L 173.25 304.221035 
L 185.625 304.241012 
L 198 301.567924 
L 210.375 302.276641 
L 222.75 302.860453 
L 235.125 303.547563 
L 247.5 302.130786 
L 259.875 303.179411 
L 272.25 299.051579 
L 284.625 318.034499 
L 297 304.833082 
L 309.375 300.501644 
L 321.75 304.859751 
L 334.125 304.383964 
L 346.5 300.341873 
L 358.875 291.917917 
L 371.25 295.04806 
L 383.625 294.55596 
L 396 294.627386 
L 408.375 301.392118 
L 420.75 293.034405 
L 433.125 299.626899 
L 445.5 307.584468 
L 457.875 304.665063 
L 470.25 308.556372 
L 482.625 307.192738 
L 495 305.279662 
L 507.375 306.781591 
L 519.75 306.963182 
L 532.125 303.646599 
L 544.5 300.571451 
L 556.875 311.170044 
L 569.25 304.363044 
L 581.625 300.888272 
L 594 307.188403 
L 606.375 298.039428 
L 618.75 299.327931 
L 631.125 310.719619 
L 643.5 310.704168 
L 655.875 305.209457 
L 668.25 305.066314 
L 680.625 297.43431 
L 693 300.664621 
L 705.375 302.014706 
L 717.75 309.481772 
L 730.125 306.527438 
L 742.5 305.072533 
L 754.875 302.400355 
L 767.25 294.907172 
L 779.625 309.830866 
" clip-path="url(#pdd992a4c79)" style="fill: none; stroke: #000000; stroke-width: 1.5; stroke-linecap: square"/>
   </g>
   <g id="line2d_3">
    <path d="M 0 306 
L 12.375 306 
L 24.75 305.760699 
L 37.125 299.413776 
L 49.5 309.595787 
L 61.875 311.949405 
L 74.25 305.960692 
L 86.625 300.214377 
L 99 303.072582 
L 111.375 303.903345 
L 123.75 306.288168 
L 136.125 304.683234 
L 148.5 305.310973 
L 160.875 306.333481 
L 173.25 304.830493 
L 185.625 304.644139 
L 198 302.965546 
L 210.375 302.971112 
L 222.75 303.116821 
L 235.125 303.454776 
L 247.5 302.630539 
L 259.875 303.089884 
L 272.25 300.706121 
L 284.625 311.363039 
L 297 305.570441 
L 309.375 302.813744 
L 321.75 304.680013 
L 334.125 304.457728 
L 346.5 302.061201 
L 358.875 296.614942 
L 371.25 297.06621 
L 383.625 296.224182 
L 396 295.769004 
L 408.375 299.389172 
L 420.75 295.086011 
L 433.125 298.346601 
L 445.5 303.377163 
L 457.875 302.875595 
L 470.25 305.682854 
L 482.625 305.676656 
L 495 305.003531 
L 507.375 305.977906 
L 519.75 306.291605 
L 532.125 304.548128 
L 544.5 302.504519 
L 556.875 308.167971 
L 569.25 305.076024 
L 581.625 302.844835 
L 594 305.972302 
L 606.375 300.968737 
L 618.75 300.891224 
L 631.125 307.099897 
L 643.5 308.130552 
L 655.875 305.688526 
L 668.25 305.447383 
L 680.625 300.854643 
L 693 301.757011 
L 705.375 302.205756 
L 717.75 306.516551 
L 730.125 305.679288 
L 742.5 305.090458 
L 754.875 303.494695 
L 767.25 298.791623 
L 779.625 306.38784 
" clip-path="url(#pdd992a4c79)" style="fill: none; stroke: #000000; stroke-width: 1.5; stroke-linecap: square"/>
   </g>
   <g id="line2d_4">
    <path d="M 0 306 
L 12.375 306 
L 24.75 305.77809 
L 37.125 300.273282 
L 49.5 308.296432 
L 61.875 310.46942 
L 74.25 306.430234 
L 86.625 302.274123 
L 99 303.778097 
L 111.375 304.18213 
L 123.75 305.652724 
L 136.125 304.77006 
L 148.5 305.137893 
L 160.875 305.782488 
L 173.25 304.990045 
L 185.625 304.853867 
L 198 303.849427 
L 210.375 303.706164 
L 222.75 303.667999 
L 235.125 303.759509 
L 247.5 303.263209 
L 259.875 303.423761 
L 272.25 302.04463 
L 284.625 307.695489 
L 297 305.102735 
L 309.375 303.666769 
L 321.75 304.556292 
L 334.125 304.452404 
L 346.5 303.147727 
L 358.875 300.010669 
L 371.25 299.715813 
L 383.625 298.838729 
L 396 298.17536 
L 408.375 299.757488 
L 420.75 297.359481 
L 433.125 298.777064 
L 445.5 301.425593 
L 457.875 301.456183 
L 470.25 303.207351 
L 482.625 303.628294 
L 495 303.577504 
L 507.375 304.327677 
L 519.75 304.759013 
L 532.125 304.057647 
L 544.5 303.019025 
L 556.875 305.9979 
L 569.25 304.661653 
L 581.625 303.509334 
L 594 305.099838 
L 606.375 302.52374 
L 618.75 302.22253 
L 631.125 305.384619 
L 643.5 306.226599 
L 655.875 305.201367 
L 668.25 305.158769 
L 680.625 302.690297 
L 693 302.89574 
L 705.375 302.965879 
L 717.75 305.185282 
L 730.125 304.940063 
L 742.5 304.738597 
L 754.875 303.951529 
L 767.25 301.323363 
L 779.625 305.049141 
" clip-path="url(#pdd992a4c79)" style="fill: none; stroke: #000000; stroke-width: 1.5; stroke-linecap: square"/>
   </g>
   <g id="line2d_5">
    <path d="M 0 306 
L 12.375 306 
L 24.75 305.786901 
L 37.125 300.697769 
L 49.5 307.722206 
L 61.875 309.726376 
L 74.25 306.518566 
L 86.625 303.152231 
L 99 304.183324 
L 111.375 304.428615 
L 123.75 305.482988 
L 136.125 304.867953 
L 148.5 305.115103 
L 160.875 305.563169 
L 173.25 305.0528 
L 185.625 304.955236 
L 198 304.289058 
L 210.375 304.14985 
L 222.75 304.079129 
L 235.125 304.093797 
L 247.5 303.755428 
L 259.875 303.804002 
L 272.25 302.940538 
L 284.625 306.204047 
L 297 304.823944 
L 309.375 304.015145 
L 321.75 304.495629 
L 334.125 304.441785 
L 346.5 303.702005 
L 358.875 301.882686 
L 371.25 301.549551 
L 383.625 300.897387 
L 396 300.347339 
L 408.375 301.031038 
L 420.75 299.605997 
L 433.125 300.182254 
L 445.5 301.50924 
L 457.875 301.523567 
L 470.25 302.460286 
L 482.625 302.745829 
L 495 302.796109 
L 507.375 303.264887 
L 519.75 303.588122 
L 532.125 303.313006 
L 544.5 302.825251 
L 556.875 304.423384 
L 569.25 303.847511 
L 581.625 303.306977 
L 594 304.162072 
L 606.375 302.882329 
L 618.75 302.693884 
L 631.125 304.318016 
L 643.5 304.848384 
L 655.875 304.425127 
L 668.25 304.464458 
L 680.625 303.239292 
L 693 303.297356 
L 705.375 303.298303 
L 717.75 304.433406 
L 730.125 304.367581 
L 742.5 304.307284 
L 754.875 303.925313 
L 767.25 302.553561 
L 779.625 304.392983 
" clip-path="url(#pdd992a4c79)" style="fill: none; stroke: #000000; stroke-width: 1.5; stroke-linecap: square"/>
   </g>
   <g id="line2d_6">
    <path d="M 0 306 
L 12.375 306 
L 24.75 305.79132 
L 37.125 300.907227 
L 49.5 307.457091 
L 61.875 309.363022 
L 74.25 306.528095 
L 86.625 303.53712 
L 99 304.380571 
L 111.375 304.564818 
L 123.75 305.43624 
L 136.125 304.932209 
L 148.5 305.12681 
L 160.875 305.484868 
L 173.25 305.089303 
L 185.625 305.010203 
L 198 304.495086 
L 210.375 304.373166 
L 222.75 304.302991 
L 235.125 304.296854 
L 247.5 304.036475 
L 259.875 304.051332 
L 272.25 303.423111 
L 284.625 305.673281 
L 297 304.753844 
L 309.375 304.205298 
L 321.75 304.51839 
L 334.125 304.480946 
L 346.5 303.988329 
L 358.875 302.777366 
L 371.25 302.50863 
L 383.625 302.033444 
L 396 301.617953 
L 408.375 301.980035 
L 420.75 301.032881 
L 433.125 301.314408 
L 445.5 302.074063 
L 457.875 302.052872 
L 470.25 302.595834 
L 482.625 302.761577 
L 495 302.790991 
L 507.375 303.071253 
L 519.75 303.272932 
L 532.125 303.1264 
L 544.5 302.849497 
L 556.875 303.780866 
L 569.25 303.47814 
L 581.625 303.183992 
L 594 303.681352 
L 606.375 302.972529 
L 618.75 302.860912 
L 631.125 303.773669 
L 643.5 304.098856 
L 655.875 303.896221 
L 668.25 303.943064 
L 680.625 303.283806 
L 693 303.314018 
L 705.375 303.313772 
L 717.75 303.939892 
L 730.125 303.926342 
L 742.5 303.91346 
L 754.875 303.72243 
L 767.25 302.983164 
L 779.625 303.964637 
" clip-path="url(#pdd992a4c79)" style="fill: none; stroke: #000000; stroke-width: 1.5; stroke-linecap: square"/>
   </g>
   <g id="line2d_7">
    <path d="M 0 306 
L 12.375 306 
L 24.75 305.793532 
L 37.125 301.01108 
L 49.5 307.330325 
L 61.875 309.184497 
L 74.25 306.524869 
L 86.625 303.714664 
L 99 304.475518 
L 111.375 304.633781 
L 123.75 305.421277 
L 136.125 304.967308 
L 148.5 305.138218 
L 160.875 305.454745 
L 173.25 305.109661 
L 185.625 305.039223 
L 198 304.592657 
L 210.375 304.481611 
L 222.75 304.41493 
L 235.125 304.402663 
L 247.5 304.179282 
L 259.875 304.183183 
L 272.25 303.661061 
L 284.625 305.476371 
L 297 304.745772 
L 309.375 304.307624 
L 321.75 304.550876 
L 334.125 304.519835 
L 346.5 304.133269 
L 358.875 303.187992 
L 371.25 302.962832 
L 383.625 302.580038 
L 396 302.241605 
L 408.375 302.487992 
L 420.75 301.759159 
L 433.125 301.938844 
L 445.5 302.474136 
L 457.875 302.44307 
L 470.25 302.823083 
L 482.625 302.934308 
L 495 302.949038 
L 507.375 303.143214 
L 519.75 303.283605 
L 532.125 303.179988 
L 544.5 302.984209 
L 556.875 303.627902 
L 569.25 303.423608 
L 581.625 303.223058 
L 594 303.56201 
L 606.375 303.083724 
L 618.75 303.004608 
L 631.125 303.614165 
L 643.5 303.83686 
L 655.875 303.710176 
L 668.25 303.746983 
L 680.625 303.318592 
L 693 303.33734 
L 705.375 303.336475 
L 717.75 303.742336 
L 730.125 303.739447 
L 742.5 303.736668 
L 754.875 303.619528 
L 767.25 303.15133 
L 779.625 303.769269 
" clip-path="url(#pdd992a4c79)" style="fill: none; stroke: #000000; stroke-width: 1.5; stroke-linecap: square"/>
   </g>
   <g id="line2d_8">
    <path d="M 0 306 
L 12.375 306 
L 24.75 305.794638 
L 37.125 301.062766 
L 49.5 307.26842 
L 61.875 309.096156 
L 74.25 306.521366 
L 86.625 303.7996 
L 99 304.521807 
L 111.375 304.668169 
L 123.75 305.415686 
L 136.125 304.985425 
L 148.5 305.145189 
L 160.875 305.44196 
L 173.25 305.120393 
L 185.625 305.054112 
L 198 304.639837 
L 210.375 304.534555 
L 222.75 304.47023 
L 235.125 304.455841 
L 247.5 304.250178 
L 259.875 304.249947 
L 272.25 303.777251 
L 284.625 305.395497 
L 297 304.748816 
L 309.375 304.360403 
L 321.75 304.572645 
L 334.125 304.544467 
L 346.5 304.205627 
L 358.875 303.38042 
L 371.25 303.177966 
L 383.625 302.839849 
L 396 302.539852 
L 408.375 302.739666 
L 420.75 302.110935 
L 433.125 302.251087 
L 445.5 302.691987 
L 457.875 302.658801 
L 470.25 302.969536 
L 482.625 303.057521 
L 495 303.065953 
L 507.375 303.222668 
L 519.75 303.335684 
L 532.125 303.249392 
L 544.5 303.087888 
L 556.875 303.607345 
L 569.25 303.442806 
L 581.625 303.28087 
L 594 303.551044 
L 606.375 303.169467 
L 618.75 303.104344 
L 631.125 303.584621 
L 643.5 303.761054 
L 655.875 303.663368 
L 668.25 303.69332 
L 680.625 303.36055 
L 693 303.37412 
L 705.375 303.37259 
L 717.75 303.684649 
L 730.125 303.683747 
L 742.5 303.682876 
L 754.875 303.594771 
L 767.25 303.239689 
L 779.625 303.70542 
" clip-path="url(#pdd992a4c79)" style="fill: none; stroke: #000000; stroke-width: 1.5; stroke-linecap: square"/>
   </g>
   <g id="line2d_9">
    <path d="M 0 306 
L 12.375 306 
L 24.75 305.795191 
L 37.125 301.088546 
L 49.5 307.23784 
L 61.875 309.052232 
L 74.25 306.519156 
L 86.625 303.841098 
L 99 304.544624 
L 111.375 304.685302 
L 123.75 305.413333 
L 136.125 304.994601 
L 148.5 305.14897 
L 160.875 305.43613 
L 173.25 305.125894 
L 185.625 305.061645 
L 198 304.662997 
L 210.375 304.560649 
L 222.75 304.497628 
L 235.125 304.482392 
L 247.5 304.285359 
L 259.875 304.283373 
L 272.25 303.834405 
L 284.625 305.359388 
L 297 304.75207 
L 309.375 304.387122 
L 321.75 304.584865 
L 334.125 304.558047 
L 346.5 304.241669 
L 358.875 303.473012 
L 371.25 303.281894 
L 383.625 302.965424 
L 396 302.68428 
L 408.375 302.863476 
L 420.75 302.282068 
L 433.125 302.405117 
L 445.5 302.803365 
L 457.875 302.769797 
L 470.25 303.049177 
L 482.625 303.126744 
L 495 303.132455 
L 507.375 303.272148 
L 519.75 303.37263 
L 532.125 303.294131 
L 544.5 303.148216 
L 556.875 303.611252 
L 569.25 303.464361 
L 581.625 303.319711 
L 594 303.558697 
L 606.375 303.220494 
L 618.75 303.161777 
L 631.125 303.583963 
L 643.5 303.739179 
L 655.875 303.653921 
L 668.25 303.680348 
L 680.625 303.389922 
L 693 303.401143 
L 705.375 303.399263 
L 717.75 303.669463 
L 730.125 303.668981 
L 742.5 303.668516 
L 754.875 303.592875 
L 767.25 303.287638 
L 779.625 303.686241 
" clip-path="url(#pdd992a4c79)" style="fill: none; stroke: #000000; stroke-width: 1.5; stroke-linecap: square"/>
   </g>
  </g>
 </g>
 <defs>
  <clipPath id="pdd992a4c79">
   <rect x="0" y="0" width="792" height="612"/>
  </clipPath>
 </defs>
</svg>
