<?xml version="1.0" encoding="utf-8" standalone="no"?>
<!DOCTYPE svg PUBLIC "-//W3C//DTD SVG 1.1//EN"
  "http://www.w3.org/Graphics/SVG/1.1/DTD/svg11.dtd">
<svg xmlns:xlink="http://www.w3.org/1999/xlink" width="792pt" height="612pt" viewBox="0 0 792 612" xmlns="http://www.w3.org/2000/svg" version="1.1">
 <metadata>
  <rdf:RDF xmlns:dc="http://purl.org/dc/elements/1.1/" xmlns:cc="http://creativecommons.org/ns#" xmlns:rdf="http://www.w3.org/1999/02/22-rdf-syntax-ns#">
   <cc:Work>
    <dc:type rdf:resource="http://purl.org/dc/dcmitype/StillImage"/>
    <dc:date>2023-01-30T17:16:39.575159</dc:date>
    <dc:format>image/svg+xml</dc:format>
    <dc:creator>
     <cc:Agent>
      <dc:title>Matplotlib v3.6.2, https://matplotlib.org/</dc:title>
     </cc:Agent>
    </dc:creator>
   </cc:Work>
  </rdf:RDF>
 </metadata>
 <defs>
  <style type="text/css">*{stroke-linejoin: round; stroke-linecap: butt}</style>
 </defs>
 <g id="figure_1">
  <g id="patch_1">
   <path d="M 0 612 
L 792 612 
L 792 0 
L 0 0 
z
" style="fill: #ffffff"/>
  </g>
  <g id="axes_1">
   <g id="line2d_1">
    <path d="M 0 306 
L 12.983607 296.094275 
L 25.967213 333.627204 
L 38.95082 293.147165 
L 51.934426 297.213398 
L 64.918033 308.864964 
L 77.901639 304.125895 
L 90.885246 297.321019 
L 103.868852 285.908987 
L 116.852459 298.978635 
L 129.836066 295.448746 
L 142.819672 295.857571 
L 155.803279 307.895646 
L 168.786885 286.981673 
L 181.770492 306.193875 
L 194.754098 314.485258 
L 207.737705 302.1227 
L 220.721311 311.729425 
L 233.704918 305.806125 
L 246.688525 303.608919 
L 259.672131 308.046432 
L 272.655738 306.947832 
L 285.639344 300.93816 
L 298.622951 298.440398 
L 311.606557 320.056837 
L 324.590164 298.483455 
L 337.57377 298.332756 
L 350.557377 312.67687 
L 363.540984 290.739597 
L 376.52459 301.196593 
L 389.508197 320.357771 
L 402.491803 310.157294 
L 415.47541 300.44285 
L 428.459016 305.009085 
L 441.442623 291.513266 
L 454.42623 304.147436 
L 467.409836 303.587378 
L 480.393443 315.755088 
L 493.377049 303.888946 
L 506.360656 303.888946 
L 519.344262 300.378246 
L 532.327869 289.407631 
L 545.311475 322.678281 
L 558.295082 304.25514 
L 571.278689 305.267583 
L 584.262295 308.197217 
L 597.245902 304.858295 
L 610.229508 302.59655 
L 623.213115 295.448746 
L 636.196721 288.248044 
L 649.180328 303.091957 
L 662.163934 288.763355 
L 675.147541 315.539885 
L 688.131148 310.049605 
L 701.114754 303.113496 
L 714.098361 292.459113 
L 727.081967 306.409292 
L 740.065574 311.858629 
L 753.04918 310.308057 
L 766.032787 310.997233 
L 779.016393 306.710875 
" clip-path="url(#pe1d2f6c409)" style="fill: none; stroke: #000000; stroke-width: 1.5; stroke-linecap: square"/>
   </g>
   <g id="line2d_2">
    <path d="M 0 306 
L 12.983607 306 
L 25.967213 299.394902 
L 38.95082 318.99107 
L 51.934426 305.207267 
L 64.918033 301.080575 
L 77.901639 305.034387 
L 90.885246 304.576561 
L 103.868852 300.933853 
L 116.852459 293.374437 
L 129.836066 296.181365 
L 142.819672 295.740109 
L 155.803279 295.804156 
L 168.786885 301.869227 
L 181.770492 294.375691 
L 194.754098 300.286704 
L 207.737705 307.420391 
L 220.721311 304.803301 
L 233.704918 308.291657 
L 246.688525 307.069225 
L 259.672131 305.354257 
L 272.655738 306.700653 
L 285.639344 306.86344 
L 298.622951 303.890297 
L 311.606557 301.133504 
L 324.590164 310.634746 
L 337.57377 304.532556 
L 350.557377 301.417534 
L 363.540984 307.065339 
L 376.52459 298.86347 
L 389.508197 300.018671 
L 402.491803 310.230945 
L 415.47541 310.217093 
L 428.459016 305.291321 
L 441.442623 305.163001 
L 454.42623 298.320937 
L 467.409836 301.217032 
L 480.393443 302.427364 
L 493.377049 309.121243 
L 506.360656 306.472819 
L 519.344262 305.168576 
L 532.327869 302.773087 
L 545.311475 296.055035 
L 558.295082 309.434196 
L 571.278689 306.84494 
L 584.262295 306.059556 
L 597.245902 307.113575 
L 610.229508 305.987835 
L 623.213115 304.289606 
L 636.196721 299.858227 
L 649.180328 294.04655 
L 662.163934 298.529215 
L 675.147541 293.612771 
L 688.131148 304.594646 
L 701.114754 307.325863 
L 714.098361 305.216221 
L 727.081967 298.814668 
L 740.065574 302.632955 
L 753.04918 307.29241 
L 766.032787 308.814451 
L 779.016393 309.949517 
" clip-path="url(#pe1d2f6c409)" style="fill: none; stroke: #000000; stroke-width: 1.5; stroke-linecap: square"/>
   </g>
   <g id="line2d_3">
    <path d="M 0 306 
L 12.983607 306 
L 25.967213 300.196029 
L 38.95082 315.373951 
L 51.934426 306.692683 
L 64.918033 303.319274 
L 77.901639 305.175596 
L 90.885246 304.838332 
L 103.868852 302.4892 
L 116.852459 297.401715 
L 129.836066 297.878439 
L 142.819672 297.150596 
L 155.803279 296.765831 
L 168.786885 300.060877 
L 181.770492 296.195489 
L 194.754098 299.138997 
L 207.737705 303.651314 
L 220.721311 303.199124 
L 233.704918 305.715696 
L 246.688525 305.71014 
L 259.672131 305.10672 
L 272.655738 305.980194 
L 285.639344 306.261408 
L 298.622951 304.698475 
L 311.606557 302.866467 
L 324.590164 307.943473 
L 337.57377 305.171706 
L 350.557377 303.171549 
L 363.540984 305.975171 
L 376.52459 301.48967 
L 389.508197 301.42018 
L 402.491803 306.985998 
L 415.47541 307.909928 
L 428.459016 305.72078 
L 441.442623 305.504609 
L 454.42623 301.387385 
L 467.409836 302.196346 
L 480.393443 302.598635 
L 493.377049 306.46306 
L 506.360656 305.7125 
L 519.344262 305.184645 
L 532.327869 303.754122 
L 545.311475 299.537852 
L 558.295082 306.347677 
L 571.278689 305.725107 
L 584.262295 305.607803 
L 597.245902 306.374277 
L 610.229508 305.91244 
L 623.213115 304.932517 
L 636.196721 302.148019 
L 649.180328 298.053334 
L 662.163934 299.542094 
L 675.147541 296.364542 
L 688.131148 301.993484 
L 701.114754 304.346434 
L 714.098361 303.984417 
L 727.081967 300.593545 
L 740.065574 302.303648 
L 753.04918 305.128129 
L 766.032787 306.631149 
L 779.016393 307.917795 
" clip-path="url(#pe1d2f6c409)" style="fill: none; stroke: #000000; stroke-width: 1.5; stroke-linecap: square"/>
   </g>
   <g id="line2d_4">
    <path d="M 0 306 
L 12.983607 306 
L 25.967213 300.61775 
L 38.95082 313.600483 
L 51.934426 307.090745 
L 64.918033 304.378485 
L 77.901639 305.482708 
L 90.885246 305.175497 
L 103.868852 303.508822 
L 116.852459 299.958174 
L 129.836066 299.768849 
L 142.819672 298.96125 
L 155.803279 298.396773 
L 168.786885 300.085048 
L 181.770492 297.79519 
L 194.754098 299.238216 
L 207.737705 301.825513 
L 220.721311 301.875419 
L 233.704918 303.515676 
L 246.688525 303.894148 
L 259.672131 303.847303 
L 272.655738 304.533416 
L 285.639344 304.926234 
L 298.622951 304.279643 
L 311.606557 303.335655 
L 324.590164 306.033015 
L 337.57377 304.818196 
L 350.557377 303.776439 
L 363.540984 305.203819 
L 376.52459 302.885368 
L 389.508197 302.61517 
L 402.491803 305.452827 
L 415.47541 306.2043 
L 428.459016 305.284069 
L 441.442623 305.245882 
L 454.42623 303.033011 
L 467.409836 303.217183 
L 480.393443 303.28006 
L 493.377049 305.26965 
L 506.360656 305.049824 
L 519.344262 304.869221 
L 532.327869 304.163653 
L 545.311475 301.807588 
L 558.295082 305.147606 
L 571.278689 305.010852 
L 584.262295 305.050059 
L 597.245902 305.56404 
L 610.229508 305.450919 
L 623.213115 304.98934 
L 636.196721 303.46662 
L 649.180328 301.02784 
L 662.163934 301.35453 
L 675.147541 299.339801 
L 688.131148 301.921819 
L 701.114754 303.216825 
L 714.098361 303.201743 
L 727.081967 301.487669 
L 740.065574 302.262106 
L 753.04918 303.79729 
L 766.032787 304.840668 
L 779.016393 305.819217 
" clip-path="url(#pe1d2f6c409)" style="fill: none; stroke: #000000; stroke-width: 1.5; stroke-linecap: square"/>
   </g>
   <g id="line2d_5">
    <path d="M 0 306 
L 12.983607 306 
L 25.967213 300.831391 
L 38.95082 312.748923 
L 51.934426 307.193087 
L 64.918033 304.836667 
L 77.901639 305.661384 
L 90.885246 305.381138 
L 103.868852 304.042863 
L 116.852459 301.259385 
L 129.836066 300.932727 
L 142.819672 300.191715 
L 155.803279 299.635096 
L 168.786885 300.649344 
L 181.770492 299.032874 
L 194.754098 299.849732 
L 207.737705 301.469153 
L 220.721311 301.539527 
L 233.704918 302.610289 
L 246.688525 302.938852 
L 259.672131 303.006405 
L 272.655738 303.505607 
L 285.639344 303.841167 
L 298.622951 303.562178 
L 311.606557 303.07626 
L 324.590164 304.668894 
L 337.57377 304.095105 
L 350.557377 303.56572 
L 363.540984 304.395292 
L 376.52459 303.160883 
L 389.508197 302.984753 
L 402.491803 304.532968 
L 415.47541 305.0309 
L 428.459016 304.626912 
L 441.442623 304.66039 
L 454.42623 303.513084 
L 467.409836 303.568166 
L 480.393443 303.569828 
L 493.377049 304.620437 
L 506.360656 304.557584 
L 519.344262 304.500299 
L 532.327869 304.14805 
L 545.311475 302.890336 
L 558.295082 304.574527 
L 571.278689 304.54742 
L 584.262295 304.608427 
L 597.245902 304.91192 
L 610.229508 304.907392 
L 623.213115 304.712549 
L 636.196721 303.932186 
L 649.180328 302.611566 
L 662.163934 302.651922 
L 675.147541 301.485022 
L 688.131148 302.66355 
L 701.114754 303.282281 
L 714.098361 303.268152 
L 727.081967 302.363346 
L 740.065574 302.701537 
L 753.04918 303.466566 
L 766.032787 304.037821 
L 779.016393 304.618654 
" clip-path="url(#pe1d2f6c409)" style="fill: none; stroke: #000000; stroke-width: 1.5; stroke-linecap: square"/>
   </g>
   <g id="line2d_6">
    <path d="M 0 306 
L 12.983607 306 
L 25.967213 300.938564 
L 38.95082 312.335115 
L 51.934426 307.220697 
L 64.918033 305.041662 
L 77.901639 305.749842 
L 90.885246 305.486637 
L 103.868852 304.304332 
L 116.852459 301.88525 
L 129.836066 301.534695 
L 142.819672 300.853755 
L 155.803279 300.331075 
L 168.786885 301.075713 
L 181.770492 299.759894 
L 194.754098 300.330587 
L 207.737705 301.530719 
L 220.721311 301.578872 
L 233.704918 302.373551 
L 246.688525 302.63297 
L 259.672131 302.704363 
L 272.655738 303.083469 
L 285.639344 303.350094 
L 298.622951 303.18797 
L 311.606557 302.876537 
L 324.590164 303.978322 
L 337.57377 303.633518 
L 350.557377 303.307523 
L 363.540984 303.872847 
L 376.52459 303.093731 
L 389.508197 302.983144 
L 402.491803 303.980568 
L 415.47541 304.329735 
L 428.459016 304.11305 
L 441.442623 304.162337 
L 454.42623 303.47466 
L 467.409836 303.510776 
L 480.393443 303.514842 
L 493.377049 304.157864 
L 506.360656 304.143882 
L 519.344262 304.130752 
L 532.327869 303.939215 
L 545.311475 303.203154 
L 558.295082 304.181339 
L 571.278689 304.185014 
L 584.262295 304.238528 
L 597.245902 304.43285 
L 610.229508 304.453595 
L 623.213115 304.363611 
L 636.196721 303.934071 
L 649.180328 303.18203 
L 662.163934 303.17774 
L 675.147541 302.494048 
L 688.131148 303.109138 
L 701.114754 303.434768 
L 714.098361 303.419762 
L 727.081967 302.909646 
L 740.065574 303.071728 
L 753.04918 303.477127 
L 766.032787 303.791103 
L 779.016393 304.121157 
" clip-path="url(#pe1d2f6c409)" style="fill: none; stroke: #000000; stroke-width: 1.5; stroke-linecap: square"/>
   </g>
   <g id="line2d_7">
    <path d="M 0 306 
L 12.983607 306 
L 25.967213 300.992195 
L 38.95082 312.131574 
L 51.934426 307.228819 
L 64.918033 305.137535 
L 77.901639 305.792906 
L 90.885246 305.539008 
L 103.868852 304.431916 
L 116.852459 302.187728 
L 129.836066 301.834593 
L 142.819672 301.188914 
L 155.803279 300.689647 
L 168.786885 301.318698 
L 181.770492 300.142648 
L 194.754098 300.60996 
L 207.737705 301.625011 
L 220.721311 301.65963 
L 233.704918 302.327877 
L 246.688525 302.548771 
L 259.672131 302.613382 
L 272.655738 302.931899 
L 285.639344 303.158894 
L 298.622951 303.037608 
L 311.606557 302.794563 
L 324.590164 303.679629 
L 337.57377 303.420998 
L 350.557377 303.174717 
L 363.540984 303.622486 
L 376.52459 303.030107 
L 389.508197 302.947885 
L 402.491803 303.711113 
L 415.47541 303.987368 
L 428.459016 303.838634 
L 441.442623 303.886754 
L 454.42623 303.387459 
L 467.409836 303.417532 
L 480.393443 303.424134 
L 493.377049 303.89528 
L 506.360656 303.895042 
L 519.344262 303.894817 
L 532.327869 303.766773 
L 545.311475 303.251161 
L 558.295082 303.938637 
L 571.278689 303.949674 
L 584.262295 303.995024 
L 597.245902 304.137768 
L 610.229508 304.161941 
L 623.213115 304.11005 
L 636.196721 303.826153 
L 649.180328 303.32087 
L 662.163934 303.313535 
L 675.147541 302.851643 
L 688.131148 303.249931 
L 701.114754 303.461231 
L 714.098361 303.450528 
L 727.081967 303.115117 
L 740.065574 303.21466 
L 753.04918 303.473607 
L 766.032787 303.676609 
L 779.016393 303.892273 
" clip-path="url(#pe1d2f6c409)" style="fill: none; stroke: #000000; stroke-width: 1.5; stroke-linecap: square"/>
   </g>
   <g id="line2d_8">
    <path d="M 0 306 
L 12.983607 306 
L 25.967213 301.019017 
L 38.95082 312.030688 
L 51.934426 307.231493 
L 64.918033 305.183754 
L 77.901639 305.814033 
L 90.885246 305.564961 
L 103.868852 304.494695 
L 116.852459 302.335838 
L 129.836066 301.983465 
L 142.819672 301.356457 
L 155.803279 300.870258 
L 168.786885 301.44638 
L 181.770492 300.337343 
L 194.754098 300.757982 
L 207.737705 301.687331 
L 220.721311 301.715219 
L 233.704918 302.324205 
L 246.688525 302.525854 
L 259.672131 302.585757 
L 272.655738 302.874887 
L 285.639344 303.081815 
L 298.622951 302.977082 
L 311.606557 302.763536 
L 324.590164 303.549262 
L 337.57377 303.326863 
L 350.557377 303.114639 
L 363.540984 303.508423 
L 376.52459 302.997664 
L 389.508197 302.927723 
L 402.491803 303.586419 
L 415.47541 303.82808 
L 428.459016 303.70672 
L 441.442623 303.752261 
L 454.42623 303.334047 
L 467.409836 303.361183 
L 480.393443 303.368563 
L 493.377049 303.764125 
L 506.360656 303.768028 
L 519.344262 303.771732 
L 532.327869 303.669773 
L 545.311475 303.248962 
L 558.295082 303.811552 
L 571.278689 303.824157 
L 584.262295 303.864462 
L 597.245902 303.983407 
L 610.229508 304.007031 
L 623.213115 303.969551 
L 636.196721 303.746564 
L 649.180328 303.346807 
L 662.163934 303.340338 
L 675.147541 302.975258 
L 688.131148 303.285211 
L 701.114754 303.449761 
L 714.098361 303.44169 
L 727.081967 303.181348 
L 740.065574 303.256832 
L 753.04918 303.45549 
L 766.032787 303.611818 
L 779.016393 303.778302 
" clip-path="url(#pe1d2f6c409)" style="fill: none; stroke: #000000; stroke-width: 1.5; stroke-linecap: square"/>
   </g>
   <g id="line2d_9">
    <path d="M 0 306 
L 12.983607 306 
L 25.967213 301.032428 
L 38.95082 311.980472 
L 51.934426 307.232487 
L 64.918033 305.206428 
L 77.901639 305.824481 
L 90.885246 305.577863 
L 103.868852 304.525804 
L 116.852459 302.409049 
L 129.836066 302.057532 
L 142.819672 301.440084 
L 155.803279 300.960722 
L 168.786885 301.511586 
L 181.770492 300.435309 
L 194.754098 300.833856 
L 207.737705 301.722119 
L 220.721311 301.746717 
L 233.704918 302.327164 
L 246.688525 302.519311 
L 259.672131 302.576638 
L 272.655738 302.851427 
L 285.639344 303.048391 
L 298.622951 302.951066 
L 311.606557 302.751143 
L 324.590164 303.489646 
L 337.57377 303.28374 
L 350.557377 303.087127 
L 363.540984 303.455256 
L 376.52459 302.982307 
L 389.508197 302.917987 
L 402.491803 303.527771 
L 415.47541 303.7528 
L 428.459016 303.643553 
L 441.442623 303.687406 
L 454.42623 303.30629 
L 467.409836 303.331937 
L 480.393443 303.339534 
L 493.377049 303.700125 
L 506.360656 303.705482 
L 519.344262 303.710569 
L 532.327869 303.620171 
L 545.311475 303.242456 
L 558.295082 303.748145 
L 571.278689 303.76106 
L 584.262295 303.79868 
L 597.245902 303.906408 
L 610.229508 303.929285 
L 623.213115 303.897839 
L 636.196721 303.701966 
L 649.180328 303.349682 
L 662.163934 303.343914 
L 675.147541 303.022686 
L 688.131148 303.293682 
L 701.114754 303.43758 
L 714.098361 303.430785 
L 727.081967 303.204106 
L 740.065574 303.269281 
L 753.04918 303.441382 
L 766.032787 303.576977 
L 779.016393 303.721435 
" clip-path="url(#pe1d2f6c409)" style="fill: none; stroke: #000000; stroke-width: 1.5; stroke-linecap: square"/>
   </g>
  </g>
 </g>
 <defs>
  <clipPath id="pe1d2f6c409">
   <rect x="0" y="0" width="792" height="612"/>
  </clipPath>
 </defs>
</svg>
