<?xml version="1.0" encoding="utf-8" standalone="no"?>
<!DOCTYPE svg PUBLIC "-//W3C//DTD SVG 1.1//EN"
  "http://www.w3.org/Graphics/SVG/1.1/DTD/svg11.dtd">
<svg xmlns:xlink="http://www.w3.org/1999/xlink" width="792pt" height="612pt" viewBox="0 0 792 612" xmlns="http://www.w3.org/2000/svg" version="1.1">
 <metadata>
  <rdf:RDF xmlns:dc="http://purl.org/dc/elements/1.1/" xmlns:cc="http://creativecommons.org/ns#" xmlns:rdf="http://www.w3.org/1999/02/22-rdf-syntax-ns#">
   <cc:Work>
    <dc:type rdf:resource="http://purl.org/dc/dcmitype/StillImage"/>
    <dc:date>2022-12-26T20:25:23.424070</dc:date>
    <dc:format>image/svg+xml</dc:format>
    <dc:creator>
     <cc:Agent>
      <dc:title>Matplotlib v3.6.2, https://matplotlib.org/</dc:title>
     </cc:Agent>
    </dc:creator>
   </cc:Work>
  </rdf:RDF>
 </metadata>
 <defs>
  <style type="text/css">*{stroke-linejoin: round; stroke-linecap: butt}</style>
 </defs>
 <g id="figure_1">
  <g id="patch_1">
   <path d="M 0 612 
L 792 612 
L 792 0 
L 0 0 
z
" style="fill: #ffffff"/>
  </g>
  <g id="axes_1">
   <g id="line2d_1">
    <path d="M 0 306 
L 39.6 310.982848 
L 79.2 292.589543 
L 118.8 309.387195 
L 158.4 310.461844 
L 198 316.158267 
L 237.6 314.986877 
L 277.2 305.31602 
L 316.8 299.845003 
L 356.4 310.103639 
L 396 301.245087 
L 435.6 299.682218 
L 475.2 308.963824 
L 514.8 316.190802 
L 554.4 307.921635 
L 594 315.572607 
L 633.6 305.120598 
L 673.2 300.854344 
L 712.8 315.70276 
L 752.4 301.245087 
" clip-path="url(#p1310249605)" style="fill: none; stroke: #000000; stroke-width: 1.5; stroke-linecap: square"/>
   </g>
   <g id="line2d_2">
    <path d="M 0 306 
L 39.6 306 
L 79.2 309.322062 
L 118.8 299.756633 
L 158.4 304.892607 
L 198 307.767194 
L 237.6 312.030452 
L 277.2 313.520479 
L 316.8 309.402776 
L 356.4 304.611484 
L 396 307.355946 
L 435.6 304.317335 
L 475.2 301.980519 
L 514.8 305.469165 
L 554.4 310.83153 
L 594 309.362802 
L 633.6 312.488479 
L 673.2 308.81529 
L 712.8 304.816483 
L 752.4 310.28932 
" clip-path="url(#p1310249605)" style="fill: none; stroke: #000000; stroke-width: 1.5; stroke-linecap: square"/>
   </g>
   <g id="line2d_3">
    <path d="M 0 306 
L 39.6 306 
L 79.2 308.919055 
L 118.8 301.516924 
L 158.4 304.590325 
L 198 306.679448 
L 237.6 309.853388 
L 277.2 311.503111 
L 316.8 309.570389 
L 356.4 306.590039 
L 396 307.652404 
L 435.6 305.733236 
L 475.2 303.932566 
L 514.8 305.422657 
L 554.4 308.602457 
L 594 308.401944 
L 633.6 310.511045 
L 673.2 308.931351 
L 712.8 306.553936 
L 752.4 309.260956 
" clip-path="url(#p1310249605)" style="fill: none; stroke: #000000; stroke-width: 1.5; stroke-linecap: square"/>
   </g>
   <g id="line2d_4">
    <path d="M 0 306 
L 39.6 306 
L 79.2 308.70692 
L 118.8 302.378265 
L 158.4 304.608495 
L 198 306.215487 
L 237.6 308.663458 
L 277.2 310.095587 
L 316.8 309.081747 
L 356.4 307.220877 
L 396 307.778058 
L 435.6 306.557094 
L 475.2 305.306856 
L 514.8 305.957049 
L 554.4 307.743785 
L 594 307.774354 
L 633.6 309.09824 
L 673.2 308.430314 
L 712.8 307.169173 
L 752.4 308.579783 
" clip-path="url(#p1310249605)" style="fill: none; stroke: #000000; stroke-width: 1.5; stroke-linecap: square"/>
   </g>
   <g id="line2d_5">
    <path d="M 0 306 
L 39.6 306 
L 79.2 308.599457 
L 118.8 302.791388 
L 158.4 304.660379 
L 198 306.029973 
L 237.6 308.104248 
L 277.2 309.360764 
L 316.8 308.689413 
L 356.4 307.333744 
L 396 307.730437 
L 435.6 306.854395 
L 475.2 305.933461 
L 514.8 306.305641 
L 554.4 307.473615 
L 594 307.524736 
L 633.6 308.415631 
L 673.2 308.060828 
L 712.8 307.303482 
L 752.4 308.167372 
" clip-path="url(#p1310249605)" style="fill: none; stroke: #000000; stroke-width: 1.5; stroke-linecap: square"/>
   </g>
   <g id="line2d_6">
    <path d="M 0 306 
L 39.6 306 
L 79.2 308.545548 
L 118.8 302.99202 
L 158.4 304.696132 
L 198 305.951349 
L 237.6 307.842582 
L 277.2 309.000835 
L 316.8 308.467482 
L 356.4 307.335183 
L 396 307.669049 
L 435.6 306.950538 
L 475.2 306.19032 
L 514.8 306.463403 
L 554.4 307.370647 
L 594 307.419532 
L 633.6 308.1111 
L 673.2 307.867846 
L 712.8 307.318697 
L 752.4 307.952608 
" clip-path="url(#p1310249605)" style="fill: none; stroke: #000000; stroke-width: 1.5; stroke-linecap: square"/>
   </g>
   <g id="line2d_7">
    <path d="M 0 306 
L 39.6 306 
L 79.2 308.518572 
L 118.8 303.090675 
L 158.4 304.716292 
L 198 305.915775 
L 237.6 307.717254 
L 277.2 308.824788 
L 316.8 308.352253 
L 356.4 307.322993 
L 396 307.628953 
L 435.6 306.983703 
L 475.2 306.300095 
L 514.8 306.532678 
L 554.4 307.324126 
L 594 307.37028 
L 633.6 307.970568 
L 673.2 307.772327 
L 712.8 307.313182 
L 752.4 307.846216 
" clip-path="url(#p1310249605)" style="fill: none; stroke: #000000; stroke-width: 1.5; stroke-linecap: square"/>
   </g>
   <g id="line2d_8">
    <path d="M 0 306 
L 39.6 306 
L 79.2 308.505081 
L 118.8 303.139566 
L 158.4 304.726919 
L 198 305.898941 
L 237.6 307.656081 
L 277.2 308.737991 
L 316.8 308.293877 
L 356.4 307.313867 
L 396 307.606654 
L 435.6 306.99648 
L 475.2 306.349923 
L 514.8 306.564323 
L 554.4 307.301658 
L 594 307.346197 
L 633.6 307.903355 
L 673.2 307.725103 
L 712.8 307.307226 
L 752.4 307.793656 
" clip-path="url(#p1310249605)" style="fill: none; stroke: #000000; stroke-width: 1.5; stroke-linecap: square"/>
   </g>
   <g id="line2d_9">
    <path d="M 0 306 
L 39.6 306 
L 79.2 308.498335 
L 118.8 303.1639 
L 158.4 304.732365 
L 198 305.890763 
L 237.6 307.62588 
L 277.2 308.69493 
L 316.8 308.264537 
L 356.4 307.308576 
L 396 307.594961 
L 435.6 307.001917 
L 475.2 306.373537 
L 514.8 306.579335 
L 554.4 307.290566 
L 594 307.334251 
L 633.6 307.870512 
L 673.2 307.701654 
L 712.8 307.303467 
L 752.4 307.767577 
" clip-path="url(#p1310249605)" style="fill: none; stroke: #000000; stroke-width: 1.5; stroke-linecap: square"/>
   </g>
  </g>
 </g>
 <defs>
  <clipPath id="p1310249605">
   <rect x="0" y="0" width="792" height="612"/>
  </clipPath>
 </defs>
</svg>
