<?xml version="1.0" encoding="utf-8" standalone="no"?>
<!DOCTYPE svg PUBLIC "-//W3C//DTD SVG 1.1//EN"
  "http://www.w3.org/Graphics/SVG/1.1/DTD/svg11.dtd">
<svg xmlns:xlink="http://www.w3.org/1999/xlink" width="792pt" height="612pt" viewBox="0 0 792 612" xmlns="http://www.w3.org/2000/svg" version="1.1">
 <metadata>
  <rdf:RDF xmlns:dc="http://purl.org/dc/elements/1.1/" xmlns:cc="http://creativecommons.org/ns#" xmlns:rdf="http://www.w3.org/1999/02/22-rdf-syntax-ns#">
   <cc:Work>
    <dc:type rdf:resource="http://purl.org/dc/dcmitype/StillImage"/>
    <dc:date>2023-01-02T15:37:31.823016</dc:date>
    <dc:format>image/svg+xml</dc:format>
    <dc:creator>
     <cc:Agent>
      <dc:title>Matplotlib v3.6.2, https://matplotlib.org/</dc:title>
     </cc:Agent>
    </dc:creator>
   </cc:Work>
  </rdf:RDF>
 </metadata>
 <defs>
  <style type="text/css">*{stroke-linejoin: round; stroke-linecap: butt}</style>
 </defs>
 <g id="figure_1">
  <g id="patch_1">
   <path d="M 0 612 
L 792 612 
L 792 0 
L 0 0 
z
" style="fill: #ffffff"/>
  </g>
  <g id="axes_1">
   <g id="line2d_1">
    <path d="M 0 459 
L 41.684211 463.63993 
L 83.368421 463.286892 
L 125.052632 460.109548 
L 166.736842 462.227777 
L 208.421053 459.773322 
L 250.105263 451.536423 
L 291.789474 456.125299 
L 333.473684 463.303703 
L 375.157895 464.295572 
L 416.842105 469.238106 
L 458.526316 468.7842 
L 500.210526 466.128008 
L 541.894737 471.137787 
L 583.578947 468.683332 
L 625.263158 472.398638 
L 666.947368 474.449621 
L 708.631579 470.482145 
L 750.315789 470.784749 
" clip-path="url(#p6415638c51)" style="fill: none; stroke: #000000; stroke-width: 1.5; stroke-linecap: square"/>
   </g>
   <g id="line2d_2">
    <path d="M 0 459 
L 41.684211 459 
L 83.368421 462.093286 
L 125.052632 462.775347 
L 166.736842 461.353588 
L 208.421053 461.804782 
L 250.105263 460.772929 
L 291.789474 457.876952 
L 333.473684 456.997683 
L 375.157895 460.826569 
L 416.842105 462.562356 
L 458.526316 465.9119 
L 500.210526 467.365059 
L 541.894737 466.754181 
L 583.578947 468.968267 
L 625.263158 468.849665 
L 666.947368 470.652302 
L 708.631579 472.572816 
L 750.315789 471.539611 
" clip-path="url(#p6415638c51)" style="fill: none; stroke: #000000; stroke-width: 1.5; stroke-linecap: square"/>
   </g>
   <g id="line2d_3">
    <path d="M 0 459 
L 41.684211 459 
L 83.368421 461.718008 
L 125.052632 462.428841 
L 166.736842 461.523101 
L 208.421053 461.773816 
L 250.105263 461.10418 
L 291.789474 459.628726 
L 333.473684 459.132925 
L 375.157895 460.411001 
L 416.842105 461.585468 
L 458.526316 463.877521 
L 500.210526 465.337466 
L 541.894737 465.571597 
L 583.578947 467.214733 
L 625.263158 467.647265 
L 666.947368 469.044367 
L 708.631579 470.645275 
L 750.315789 470.605354 
" clip-path="url(#p6415638c51)" style="fill: none; stroke: #000000; stroke-width: 1.5; stroke-linecap: square"/>
   </g>
   <g id="line2d_4">
    <path d="M 0 459 
L 41.684211 459 
L 83.368421 461.520473 
L 125.052632 462.213729 
L 166.736842 461.544164 
L 208.421053 461.731835 
L 250.105263 461.249805 
L 291.789474 460.177063 
L 333.473684 459.724082 
L 375.157895 460.445212 
L 416.842105 461.189367 
L 458.526316 462.693548 
L 500.210526 463.801027 
L 541.894737 464.214745 
L 583.578947 465.423024 
L 625.263158 465.983401 
L 666.947368 467.072134 
L 708.631579 468.31103 
L 750.315789 468.672434 
" clip-path="url(#p6415638c51)" style="fill: none; stroke: #000000; stroke-width: 1.5; stroke-linecap: square"/>
   </g>
   <g id="line2d_5">
    <path d="M 0 459 
L 41.684211 459 
L 83.368421 461.420407 
L 125.052632 462.097184 
L 166.736842 461.533956 
L 208.421053 461.697743 
L 250.105263 461.30376 
L 291.789474 460.429199 
L 333.473684 460.032903 
L 375.157895 460.534222 
L 416.842105 461.072874 
L 458.526316 462.175786 
L 500.210526 463.024227 
L 541.894737 463.405412 
L 583.578947 464.318686 
L 625.263158 464.816708 
L 666.947368 465.655734 
L 708.631579 466.602679 
L 750.315789 467.010364 
" clip-path="url(#p6415638c51)" style="fill: none; stroke: #000000; stroke-width: 1.5; stroke-linecap: square"/>
   </g>
   <g id="line2d_6">
    <path d="M 0 459 
L 41.684211 459 
L 83.368421 461.370209 
L 125.052632 462.036973 
L 166.736842 461.523367 
L 208.421053 461.676712 
L 250.105263 461.324159 
L 291.789474 460.544215 
L 333.473684 460.18198 
L 375.157895 460.591897 
L 416.842105 461.03852 
L 458.526316 461.955592 
L 500.210526 462.669734 
L 541.894737 463.01023 
L 583.578947 463.767975 
L 625.263158 464.204073 
L 666.947368 464.898918 
L 708.631579 465.675817 
L 750.315789 466.05213 
" clip-path="url(#p6415638c51)" style="fill: none; stroke: #000000; stroke-width: 1.5; stroke-linecap: square"/>
   </g>
   <g id="line2d_7">
    <path d="M 0 459 
L 41.684211 459 
L 83.368421 461.34509 
L 125.052632 462.006427 
L 166.736842 461.51669 
L 208.421053 461.665134 
L 250.105263 461.332515 
L 291.789474 460.598311 
L 333.473684 460.253996 
L 375.157895 460.622944 
L 416.842105 461.027026 
L 458.526316 461.856925 
L 500.210526 462.505421 
L 541.894737 462.821716 
L 583.578947 463.502929 
L 625.263158 463.903078 
L 666.947368 464.52461 
L 708.631579 465.215004 
L 750.315789 465.564566 
" clip-path="url(#p6415638c51)" style="fill: none; stroke: #000000; stroke-width: 1.5; stroke-linecap: square"/>
   </g>
   <g id="line2d_8">
    <path d="M 0 459 
L 41.684211 459 
L 83.368421 461.332528 
L 125.052632 461.991051 
L 166.736842 461.513006 
L 208.421053 461.659073 
L 250.105263 461.336211 
L 291.789474 460.624433 
L 333.473684 460.289229 
L 375.157895 460.638863 
L 416.842105 461.022611 
L 458.526316 461.810572 
L 500.210526 462.426945 
L 541.894737 462.730507 
L 583.578947 463.374213 
L 625.263158 463.755613 
L 666.947368 464.340782 
L 708.631579 464.988327 
L 750.315789 465.322443 
" clip-path="url(#p6415638c51)" style="fill: none; stroke: #000000; stroke-width: 1.5; stroke-linecap: square"/>
   </g>
   <g id="line2d_9">
    <path d="M 0 459 
L 41.684211 459 
L 83.368421 461.326246 
L 125.052632 461.983337 
L 166.736842 461.511078 
L 208.421053 461.655974 
L 250.105263 461.337936 
L 291.789474 460.637255 
L 333.473684 460.306635 
L 375.157895 460.646901 
L 416.842105 461.020723 
L 458.526316 461.788149 
L 500.210526 462.388673 
L 541.894737 462.685752 
L 583.578947 463.310949 
L 625.263158 463.682843 
L 666.947368 464.249983 
L 708.631579 464.876305 
L 750.315789 465.202282 
" clip-path="url(#p6415638c51)" style="fill: none; stroke: #000000; stroke-width: 1.5; stroke-linecap: square"/>
   </g>
  </g>
 </g>
 <defs>
  <clipPath id="p6415638c51">
   <rect x="0" y="0" width="792" height="612"/>
  </clipPath>
 </defs>
</svg>
