<?xml version="1.0" encoding="utf-8" standalone="no"?>
<!DOCTYPE svg PUBLIC "-//W3C//DTD SVG 1.1//EN"
  "http://www.w3.org/Graphics/SVG/1.1/DTD/svg11.dtd">
<svg xmlns:xlink="http://www.w3.org/1999/xlink" width="792pt" height="612pt" viewBox="0 0 792 612" xmlns="http://www.w3.org/2000/svg" version="1.1">
 <metadata>
  <rdf:RDF xmlns:dc="http://purl.org/dc/elements/1.1/" xmlns:cc="http://creativecommons.org/ns#" xmlns:rdf="http://www.w3.org/1999/02/22-rdf-syntax-ns#">
   <cc:Work>
    <dc:type rdf:resource="http://purl.org/dc/dcmitype/StillImage"/>
    <dc:date>2023-01-30T16:21:43.667028</dc:date>
    <dc:format>image/svg+xml</dc:format>
    <dc:creator>
     <cc:Agent>
      <dc:title>Matplotlib v3.6.2, https://matplotlib.org/</dc:title>
     </cc:Agent>
    </dc:creator>
   </cc:Work>
  </rdf:RDF>
 </metadata>
 <defs>
  <style type="text/css">*{stroke-linejoin: round; stroke-linecap: butt}</style>
 </defs>
 <g id="figure_1">
  <g id="patch_1">
   <path d="M 0 612 
L 792 612 
L 792 0 
L 0 0 
z
" style="fill: #ffffff"/>
  </g>
  <g id="axes_1">
   <g id="line2d_1">
    <path d="M 0 459 
L 3.168 461.522401 
L 6.336 465.979927 
L 9.504 474.673546 
L 12.672 472.844324 
L 15.84 477.22483 
L 19.008 478.303108 
L 22.176 477.561792 
L 25.344 473.383463 
L 28.512 468.001699 
L 31.68 466.442046 
L 34.848 467.00044 
L 38.016 478.322363 
L 41.184 460.232318 
L 44.352 459.943494 
L 47.52 451.808857 
L 50.688 452.444128 
L 53.856 458.76894 
L 57.024 464.420274 
L 60.192 462.610307 
L 63.36 461.320224 
L 66.528 459.789454 
L 69.696 463.110936 
L 72.864 465.084571 
L 76.032 467.395167 
L 79.2 472.565127 
L 82.368 466.278379 
L 85.536 463.9389 
L 88.704 464.160332 
L 91.872 466.490184 
L 95.04 465.614083 
L 98.208 469.609489 
L 101.376 471.785301 
L 104.544 479.670211 
L 107.712 481.056569 
L 110.88 477.908382 
L 114.048 470.649257 
L 117.216 471.900831 
L 120.384 475.434118 
L 126.72 464.603197 
L 129.888 460.617418 
L 133.056 452.27087 
L 136.224 451.577856 
L 139.392 441.76528 
L 142.56 446.035226 
L 145.728 445.342631 
L 148.896 442.111391 
L 152.064 429.95423 
L 155.232 429.005052 
L 158.4 437.700056 
L 161.568 447.218546 
L 164.736 445.602347 
L 167.904 431.795765 
L 171.072 444.159592 
L 174.24 459.15404 
L 177.408 460.097533 
L 183.744 466.509439 
L 186.912 466.827146 
L 190.08 462.25409 
L 193.248 465.941417 
L 196.416 464.901649 
L 199.584 459.770199 
L 202.752 463.736723 
L 205.92 469.22439 
L 209.088 473.027246 
L 212.256 471.371319 
L 215.424 477.802479 
L 218.592 478.977032 
L 221.76 472.786559 
L 224.928 492.34961 
L 228.096 492.137805 
L 231.264 492.378492 
L 234.432 490.761075 
L 237.6 499.926441 
L 240.768 501.505349 
L 243.936 507.262585 
L 247.104 507.195193 
L 250.272 510.555185 
L 253.44 509.053297 
L 256.608 503.151649 
L 259.776 505.317833 
L 262.944 500.927699 
L 266.112 508.880003 
L 272.448 508.417883 
L 275.616 508.446766 
L 278.784 511.777876 
L 281.952 509.19771 
L 285.12 505.057891 
L 288.288 501.139504 
L 291.456 496.267996 
L 294.624 494.852756 
L 297.792 491.165429 
L 300.96 494.207715 
L 304.128 491.858608 
L 310.464 495.33413 
L 313.632 500.176756 
L 316.8 506.434621 
L 319.968 512.191858 
L 323.136 513.501196 
L 326.304 508.340863 
L 329.472 512.201485 
L 335.808 507.368487 
L 338.976 507.108545 
L 342.144 503.748553 
L 345.312 499.878304 
L 348.48 502.997609 
L 351.648 508.600805 
L 354.816 507.137428 
L 357.984 509.746476 
L 361.152 506.521269 
L 364.32 502.728039 
L 367.488 501.928958 
L 370.656 500.003461 
L 373.824 500.764032 
L 376.992 504.412849 
L 380.16 506.848603 
L 383.328 505.71256 
L 386.496 505.491128 
L 389.664 502.679902 
L 392.832 502.477725 
L 399.168 493.80336 
L 402.336 492.012648 
L 405.504 494.140322 
L 408.672 495.37264 
L 411.84 501.466839 
L 415.008 495.536308 
L 418.176 494.275107 
L 421.344 482.077083 
L 424.512 481.653473 
L 427.68 482.837654 
L 430.848 477.677322 
L 434.016 474.740939 
L 437.184 476.445004 
L 440.352 477.783224 
L 443.52 479.304367 
L 446.688 474.625409 
L 449.856 476.599044 
L 453.024 473.797445 
L 456.192 474.153662 
L 459.36 472.613265 
L 462.528 475.193431 
L 465.696 475.000881 
L 468.864 478.919268 
L 472.032 483.742638 
L 475.2 483.357538 
L 478.368 483.184244 
L 481.536 479.833879 
L 484.704 486.120627 
L 491.04 488.065379 
L 494.208 489.952366 
L 497.376 488.94148 
L 500.544 489.239932 
L 503.712 490.58778 
L 506.88 487.343317 
L 510.048 487.015983 
L 513.216 483.6945 
L 516.384 480.63296 
L 519.552 489.904229 
L 522.72 488.238674 
L 525.888 490.424113 
L 529.056 493.071671 
L 532.224 491.983765 
L 535.392 494.361754 
L 538.56 497.875787 
L 541.728 499.059967 
L 544.896 502.45847 
L 548.064 501.139504 
L 551.232 501.851938 
L 554.4 498.386043 
L 557.568 501.476466 
L 560.736 503.209414 
L 563.904 500.436698 
L 567.072 495.420778 
L 570.24 495.555563 
L 573.408 496.181349 
L 576.576 501.707526 
L 579.744 502.564372 
L 582.912 503.969985 
L 586.08 503.305688 
L 589.248 503.661905 
L 592.416 509.08218 
L 595.584 502.448842 
L 598.752 499.974578 
L 601.92 501.216524 
L 605.088 501.043229 
L 608.256 497.124843 
L 611.424 496.643468 
L 614.592 495.892525 
L 617.76 500.648502 
L 620.928 505.173421 
L 624.096 512.442172 
L 627.264 513.376038 
L 630.432 518.815568 
L 633.6 523.311603 
L 636.768 526.026554 
L 639.936 524.409137 
L 646.272 525.371885 
L 649.44 529.06884 
L 652.608 518.969607 
L 655.776 514.964573 
L 658.944 517.178895 
L 662.112 516.745658 
L 665.28 518.497861 
L 668.448 520.6833 
L 671.616 521.366851 
L 674.784 522.984269 
L 677.952 522.271835 
L 681.12 521.376479 
L 684.288 522.069658 
L 687.456 521.549773 
L 690.624 523.022779 
L 693.792 519.056255 
L 696.96 520.057513 
L 700.128 521.376479 
L 703.296 524.380254 
L 706.464 527.03744 
L 709.632 526.835263 
L 712.8 525.015668 
L 715.968 526.228731 
L 719.136 524.823119 
L 722.304 522.955386 
L 725.472 523.831488 
L 728.64 526.844891 
L 731.808 527.412912 
L 734.976 530.243393 
L 738.144 529.983451 
L 741.312 528.462308 
L 744.48 531.331299 
L 747.648 529.925686 
L 750.816 532.05336 
L 753.984 533.227913 
L 757.152 530.955827 
L 760.32 531.129122 
L 763.488 529.376919 
L 766.656 530.031588 
L 769.824 531.97634 
L 772.992 529.126605 
L 776.16 527.894286 
L 779.328 525.477788 
L 782.496 520.45224 
L 785.664 520.278945 
L 788.832 517.535112 
L 788.832 517.535112 
" clip-path="url(#pa460e92cfe)" style="fill: none; stroke: #000000; stroke-width: 1.5; stroke-linecap: square"/>
   </g>
   <g id="line2d_2">
    <path d="M 0 459 
L 3.168 459 
L 6.336 460.681601 
L 9.504 463.709216 
L 12.672 469.556859 
L 15.84 471.253615 
L 19.008 474.286613 
L 22.176 476.310674 
L 25.344 476.938686 
L 28.512 475.189278 
L 31.68 471.608193 
L 34.848 469.026026 
L 38.016 467.998188 
L 41.184 473.171017 
L 44.352 466.668349 
L 50.688 459.895243 
L 53.856 456.967255 
L 57.024 457.814689 
L 60.192 461.508621 
L 63.36 462.050856 
L 66.528 461.652202 
L 69.696 460.71996 
L 72.864 461.921659 
L 76.032 463.519746 
L 79.2 465.478203 
L 82.368 469.048414 
L 85.536 467.66704 
L 88.704 465.805575 
L 91.872 464.988523 
L 95.04 465.752492 
L 98.208 465.688195 
L 104.544 469.730116 
L 107.712 474.714095 
L 110.88 477.914309 
L 114.048 477.938736 
L 117.216 474.30672 
L 120.384 473.114385 
L 123.552 474.293506 
L 126.72 472.207626 
L 133.056 464.467015 
L 136.224 460.564259 
L 139.392 457.509217 
L 142.56 449.532201 
L 145.728 447.682297 
L 148.896 446.389017 
L 152.064 444.151445 
L 155.232 436.957793 
L 158.4 432.911272 
L 161.568 435.276495 
L 164.736 441.235972 
L 167.904 443.42633 
L 171.072 437.579691 
L 174.24 440.86639 
L 177.408 450.19465 
L 180.576 456.3066 
L 183.744 460.726076 
L 186.912 463.646413 
L 190.08 465.259829 
L 193.248 463.772099 
L 196.416 464.88817 
L 199.584 464.916184 
L 202.752 462.3444 
L 205.92 463.047697 
L 209.088 466.147672 
L 212.256 469.600239 
L 215.424 470.494689 
L 218.592 474.179071 
L 221.76 476.603612 
L 224.928 474.710546 
L 228.096 483.593959 
L 231.264 487.921571 
L 234.432 490.195432 
L 237.6 490.513025 
L 240.768 495.275724 
L 243.936 498.437012 
L 247.104 502.905261 
L 250.272 505.117694 
L 253.44 507.872137 
L 256.608 508.495885 
L 259.776 505.844891 
L 262.944 505.609904 
L 266.112 503.270765 
L 269.28 506.089844 
L 272.448 507.38661 
L 275.616 507.904644 
L 278.784 508.171571 
L 281.952 509.980065 
L 285.12 509.600743 
L 288.288 507.328807 
L 291.456 504.234571 
L 294.624 500.226554 
L 297.792 497.512547 
L 300.96 494.30516 
L 304.128 494.228517 
L 307.296 493.004505 
L 310.464 493.262598 
L 313.632 494.279298 
L 316.8 497.226139 
L 319.968 501.850315 
L 323.136 507.055084 
L 326.304 510.321936 
L 329.472 509.359112 
L 332.64 510.820186 
L 335.808 510.310194 
L 338.976 508.862937 
L 342.144 507.999333 
L 345.312 505.868676 
L 348.48 502.849346 
L 351.648 502.902882 
L 354.816 505.752353 
L 357.984 506.434961 
L 361.152 508.090737 
L 364.32 507.304342 
L 367.488 505.007601 
L 370.656 503.464712 
L 373.824 501.734332 
L 376.992 501.244802 
L 380.16 502.820614 
L 383.328 504.834042 
L 386.496 505.265391 
L 389.664 505.37624 
L 392.832 504.027976 
L 396 503.253927 
L 399.168 500.720161 
L 402.336 497.248112 
L 405.504 494.606066 
L 408.672 494.348276 
L 411.84 494.840184 
L 415.008 498.14562 
L 421.344 495.534948 
L 424.512 488.774415 
L 427.68 485.190121 
L 430.848 483.995897 
L 437.184 477.73218 
L 440.352 477.039529 
L 443.52 477.376567 
L 446.688 478.311113 
L 449.856 476.45365 
L 453.024 476.516436 
L 456.192 475.139215 
L 459.36 474.639529 
L 462.528 473.622225 
L 465.696 474.405374 
L 468.864 474.697672 
L 472.032 476.807715 
L 475.2 480.293053 
L 478.368 481.838548 
L 481.536 482.529801 
L 484.704 481.192978 
L 487.872 483.683287 
L 491.04 485.387314 
L 494.208 486.751963 
L 497.376 488.373798 
L 503.712 488.965417 
L 506.88 489.791115 
L 510.048 488.581941 
L 513.216 487.800717 
L 516.384 485.74104 
L 519.552 483.172426 
L 522.72 486.538233 
L 525.888 487.387075 
L 529.056 488.907916 
L 532.224 490.994664 
L 535.392 491.498314 
L 538.56 492.944437 
L 541.728 495.437918 
L 544.896 497.285074 
L 548.064 499.896388 
L 554.4 501.219997 
L 557.568 499.813441 
L 560.736 500.663567 
L 563.904 501.953838 
L 567.072 501.200289 
L 570.24 498.303398 
L 573.408 496.915945 
L 576.576 496.538925 
L 579.744 499.122942 
L 582.912 500.85185 
L 586.08 502.415807 
L 592.416 503.267745 
L 595.584 506.201749 
L 598.752 504.338812 
L 601.92 502.164133 
L 605.088 501.689366 
L 608.256 501.363315 
L 611.424 499.230657 
L 614.592 497.923999 
L 617.76 496.893028 
L 620.928 498.754229 
L 624.096 501.969167 
L 627.264 507.230116 
L 630.432 510.326919 
L 636.768 519.010194 
L 639.936 522.575988 
L 643.104 523.548477 
L 649.44 524.84698 
L 652.608 526.990511 
L 658.944 518.970249 
L 662.112 518.062547 
L 665.28 517.385905 
L 668.448 517.930292 
L 671.616 519.298641 
L 674.784 520.324893 
L 677.952 521.64265 
L 681.12 521.963718 
L 684.288 521.682671 
L 687.456 521.885754 
L 690.624 521.727183 
L 693.792 522.383854 
L 696.96 520.716864 
L 700.128 520.384621 
L 703.296 520.877397 
L 706.464 522.63296 
L 709.632 524.8463 
L 712.8 525.850126 
L 715.968 525.439693 
L 719.136 525.840498 
L 722.304 525.343116 
L 725.472 524.154933 
L 728.64 523.998024 
L 731.808 525.42629 
L 734.976 526.420337 
L 738.144 528.338548 
L 741.312 529.17074 
L 744.48 528.820904 
L 747.648 530.088862 
L 750.816 530.020941 
L 757.152 532.153108 
L 760.32 531.561415 
L 763.488 531.347005 
L 766.656 530.360773 
L 769.824 530.199257 
L 772.992 531.089064 
L 776.16 530.106267 
L 779.328 528.992122 
L 782.496 527.219758 
L 785.664 523.815404 
L 788.832 522.0259 
L 788.832 522.0259 
" clip-path="url(#pa460e92cfe)" style="fill: none; stroke: #000000; stroke-width: 1.5; stroke-linecap: square"/>
   </g>
   <g id="line2d_3">
    <path d="M 0 459 
L 3.168 459 
L 6.336 460.477588 
L 9.504 462.970598 
L 12.672 467.540884 
L 15.84 469.427786 
L 19.008 472.03773 
L 22.176 474.050744 
L 25.344 475.147664 
L 28.512 474.607049 
L 31.68 472.609979 
L 34.848 470.762612 
L 38.016 469.643206 
L 41.184 472.213673 
L 44.352 468.676783 
L 47.52 466.104653 
L 50.688 463.310698 
L 53.856 461.405513 
L 57.024 460.67541 
L 60.192 461.770464 
L 63.36 462.002593 
L 66.528 461.789495 
L 69.696 461.18367 
L 72.864 461.730704 
L 76.032 462.698697 
L 79.2 464.067383 
L 82.368 466.561556 
L 85.536 466.478428 
L 88.704 465.731101 
L 91.872 465.254767 
L 95.04 465.6238 
L 98.208 465.627467 
L 101.376 466.808714 
L 104.544 468.283518 
L 107.712 471.642433 
L 110.88 474.418878 
L 114.048 475.458502 
L 117.216 474.060622 
L 120.384 473.441945 
L 123.552 474.039593 
L 126.72 472.89728 
L 129.888 470.464792 
L 133.056 467.56684 
L 136.224 464.389715 
L 139.392 462.077894 
L 142.56 459.480435 
L 152.064 449.729996 
L 155.232 443.853573 
L 158.4 439.394323 
L 161.568 438.797735 
L 164.736 441.184405 
L 167.904 442.422623 
L 171.072 439.232136 
L 174.24 440.60137 
L 177.408 446.084206 
L 180.576 450.814465 
L 183.744 456.993501 
L 186.912 460.737726 
L 190.08 462.533108 
L 193.248 462.461725 
L 196.416 463.493841 
L 199.584 463.918188 
L 202.752 462.710623 
L 205.92 463.027737 
L 209.088 464.865939 
L 212.256 467.280603 
L 215.424 468.497467 
L 218.592 471.24957 
L 221.76 473.546265 
L 224.928 473.345271 
L 228.096 478.949642 
L 231.264 482.849167 
L 234.432 485.673648 
L 237.6 487.191576 
L 240.768 490.95955 
L 243.936 494.093427 
L 247.104 497.998045 
L 250.272 500.740406 
L 253.44 503.67342 
L 256.608 505.3012 
L 259.776 504.71058 
L 262.944 504.925529 
L 266.112 503.78854 
L 269.28 505.315491 
L 272.448 506.33441 
L 275.616 506.985571 
L 278.784 507.432035 
L 281.952 508.727461 
L 285.12 508.884512 
L 288.288 507.780142 
L 291.456 505.836537 
L 294.624 503.027961 
L 297.792 500.619245 
L 300.96 497.831875 
L 304.128 496.751606 
L 307.296 495.29873 
L 310.464 494.784899 
L 313.632 494.934298 
L 316.8 496.468916 
L 319.968 499.384994 
L 323.136 503.140074 
L 326.304 506.180615 
L 329.472 506.813215 
L 332.64 508.39189 
L 335.808 508.786438 
L 342.144 508.01006 
L 345.312 506.770486 
L 348.48 504.757585 
L 351.648 504.25569 
L 354.816 505.544877 
L 357.984 506.028873 
L 361.152 507.136301 
L 364.32 506.969012 
L 367.488 505.72979 
L 370.656 504.611377 
L 373.824 503.24775 
L 376.992 502.505656 
L 380.16 503.059748 
L 383.328 504.16333 
L 386.496 504.612466 
L 389.664 504.867664 
L 392.832 504.221797 
L 396 503.70951 
L 399.168 502.091971 
L 402.336 499.653733 
L 405.504 497.396658 
L 408.672 496.427971 
L 411.84 496.102362 
L 415.008 497.667775 
L 418.176 497.035222 
L 421.344 496.218012 
L 424.512 492.055639 
L 427.68 488.986965 
L 430.848 487.161092 
L 437.184 481.499894 
L 440.352 479.985989 
L 443.52 479.312217 
L 446.688 479.283301 
L 449.856 477.891966 
L 453.024 477.493517 
L 456.192 476.39004 
L 459.36 475.712064 
L 462.528 474.778305 
L 468.864 474.884546 
L 472.032 476.048651 
L 475.2 478.30408 
L 478.368 479.786161 
L 481.536 480.781835 
L 484.704 480.506662 
L 487.872 482.164025 
L 491.04 483.605765 
L 494.208 484.923766 
L 497.376 486.408839 
L 500.544 487.167076 
L 503.712 487.788721 
L 506.88 488.627832 
L 513.216 487.916956 
L 516.384 486.689992 
L 519.552 484.922397 
L 522.72 486.394159 
L 525.888 486.939569 
L 529.056 487.968285 
L 532.224 489.474389 
L 535.392 490.223324 
L 538.56 491.444908 
L 541.728 493.340909 
L 544.896 495.028611 
L 548.064 497.219131 
L 551.232 498.381392 
L 554.4 499.412378 
L 557.568 499.120728 
L 560.736 499.826941 
L 563.904 500.836244 
L 567.072 500.73845 
L 570.24 499.197925 
L 573.408 498.137593 
L 576.576 497.573745 
L 582.912 499.911668 
L 586.08 501.114089 
L 592.416 502.328132 
L 595.584 504.317858 
L 598.752 503.770425 
L 601.92 502.657309 
L 608.256 501.888696 
L 611.424 500.488397 
L 617.76 498.335434 
L 620.928 499.018921 
L 624.096 500.832579 
L 627.264 504.251627 
L 630.432 506.937508 
L 633.6 510.435177 
L 636.768 514.228811 
L 639.936 517.710387 
L 643.104 519.696236 
L 646.272 521.221607 
L 649.44 522.463525 
L 652.608 524.431594 
L 655.776 522.852207 
L 658.944 520.557962 
L 662.112 519.591291 
L 665.28 518.780914 
L 668.448 518.723974 
L 674.784 519.938716 
L 677.952 520.842846 
L 681.12 521.271605 
L 684.288 521.305263 
L 687.456 521.527723 
L 690.624 521.529039 
L 693.792 521.964953 
L 696.96 521.106369 
L 700.128 520.793062 
L 703.296 520.955106 
L 706.464 521.964523 
L 709.632 523.464213 
L 712.8 524.462662 
L 715.968 524.634133 
L 719.136 525.11006 
L 722.304 525.030771 
L 725.472 524.42473 
L 728.64 524.251946 
L 734.976 525.725436 
L 738.144 527.058103 
L 741.312 527.924605 
L 744.48 528.088342 
L 747.648 529.052281 
L 750.816 529.31943 
L 757.152 531.049248 
L 763.488 531.061409 
L 766.656 530.573042 
L 769.824 530.418822 
L 772.992 530.883225 
L 776.16 530.375811 
L 779.328 529.653656 
L 782.496 528.429002 
L 785.664 526.084668 
L 788.832 524.372766 
L 788.832 524.372766 
" clip-path="url(#pa460e92cfe)" style="fill: none; stroke: #000000; stroke-width: 1.5; stroke-linecap: square"/>
   </g>
   <g id="line2d_4">
    <path d="M 0 459 
L 3.168 459 
L 6.336 460.370203 
L 9.504 462.571819 
L 12.672 466.422675 
L 15.84 468.185602 
L 19.008 470.410339 
L 22.176 472.197405 
L 25.344 473.335396 
L 28.512 473.345079 
L 34.848 471.215299 
L 38.016 470.4489 
L 41.184 471.848736 
L 44.352 469.821323 
L 47.52 468.123536 
L 50.688 466.168339 
L 53.856 464.597565 
L 57.024 463.652973 
L 60.192 463.779765 
L 63.36 463.587698 
L 66.528 463.217199 
L 69.696 462.659509 
L 72.864 462.732693 
L 76.032 463.112825 
L 79.2 463.803232 
L 82.368 465.212855 
L 85.536 465.383974 
L 91.872 464.993386 
L 95.04 465.232855 
L 98.208 465.293793 
L 101.376 465.983128 
L 104.544 466.914252 
L 110.88 470.889889 
L 114.048 472.008574 
L 117.216 471.790933 
L 120.384 471.805096 
L 123.552 472.380696 
L 126.72 472.016328 
L 129.888 470.831394 
L 133.056 469.201706 
L 136.224 467.215633 
L 139.392 465.508297 
L 142.56 463.542696 
L 145.728 462.128707 
L 152.064 459.702092 
L 155.232 456.129673 
L 158.4 451.789202 
L 161.568 449.522536 
L 164.736 449.141824 
L 167.904 448.565893 
L 171.072 445.876222 
L 174.24 445.586131 
L 180.576 450.076082 
L 183.744 453.527374 
L 186.912 457.98264 
L 190.08 459.961964 
L 193.248 460.32546 
L 196.416 461.218636 
L 199.584 461.804172 
L 202.752 461.474421 
L 205.92 461.829339 
L 209.088 462.999401 
L 212.256 464.589857 
L 215.424 465.664733 
L 221.76 469.414841 
L 224.928 469.949641 
L 228.096 473.527427 
L 231.264 476.505584 
L 234.432 479.050838 
L 237.6 480.935195 
L 240.768 483.983849 
L 243.936 486.80169 
L 247.104 490.089901 
L 253.44 495.697869 
L 256.608 497.860044 
L 259.776 498.735752 
L 262.944 499.816317 
L 266.112 500.021753 
L 269.28 501.465042 
L 272.448 502.649282 
L 275.616 503.601008 
L 278.784 504.402741 
L 281.952 505.608397 
L 285.12 506.20811 
L 288.288 506.049158 
L 291.456 505.289423 
L 297.792 502.457823 
L 300.96 500.67755 
L 304.128 499.669663 
L 307.296 498.444442 
L 310.464 497.685996 
L 313.632 497.325724 
L 316.8 497.797306 
L 319.968 499.189398 
L 326.304 503.248881 
L 329.472 504.069011 
L 332.64 505.375435 
L 335.808 506.080182 
L 342.144 506.429355 
L 345.312 506.004229 
L 348.48 505.024965 
L 351.648 504.699787 
L 354.816 505.319233 
L 357.984 505.607319 
L 361.152 506.269989 
L 364.32 506.310719 
L 370.656 505.130847 
L 373.824 504.309649 
L 376.992 503.740754 
L 380.16 503.845169 
L 383.328 504.319951 
L 389.664 504.691048 
L 396 504.074512 
L 399.168 503.140906 
L 405.504 500.121108 
L 408.672 499.170967 
L 411.84 498.567757 
L 415.008 499.032837 
L 418.176 498.473632 
L 421.344 497.798045 
L 424.512 495.277994 
L 427.68 493.090413 
L 430.848 491.44325 
L 437.184 486.904165 
L 440.352 485.220781 
L 443.52 484.019142 
L 446.688 483.253752 
L 449.856 481.865196 
L 453.024 481.010861 
L 456.192 479.841466 
L 462.528 477.88999 
L 468.864 477.035814 
L 472.032 477.321122 
L 475.2 478.332662 
L 478.368 479.121277 
L 481.536 479.754465 
L 484.704 479.750244 
L 494.208 482.738405 
L 497.376 483.878357 
L 506.88 486.225426 
L 513.216 486.491988 
L 516.384 486.035809 
L 519.552 485.166898 
L 522.72 485.917897 
L 525.888 486.290985 
L 529.056 486.954053 
L 532.224 487.933773 
L 535.392 488.587068 
L 538.56 489.518083 
L 544.896 492.178925 
L 548.064 493.828884 
L 554.4 496.113133 
L 557.568 496.490103 
L 560.736 497.300499 
L 563.904 498.259718 
L 567.072 498.621834 
L 573.408 497.726804 
L 576.576 497.488678 
L 582.912 498.882397 
L 586.08 499.70691 
L 592.416 500.837027 
L 595.584 502.161974 
L 598.752 502.215413 
L 601.92 501.865772 
L 608.256 501.660847 
L 617.76 499.578475 
L 620.928 499.761209 
L 624.096 500.631838 
L 627.264 502.526006 
L 630.432 504.266606 
L 633.6 506.59746 
L 639.936 511.961071 
L 643.104 513.958158 
L 646.272 515.705962 
L 649.44 517.258142 
L 652.608 519.154692 
L 655.776 519.135925 
L 658.944 518.482592 
L 665.28 518.048503 
L 668.448 518.131266 
L 674.784 519.016854 
L 677.952 519.664807 
L 681.12 520.092425 
L 690.624 520.762467 
L 693.792 521.134171 
L 696.96 520.80979 
L 700.128 520.701087 
L 703.296 520.821897 
L 706.464 521.402497 
L 709.632 522.315256 
L 712.8 523.052943 
L 715.968 523.382922 
L 719.136 523.854628 
L 722.304 524.023802 
L 725.472 523.864908 
L 728.64 523.866697 
L 734.976 524.841795 
L 738.144 525.705533 
L 741.312 526.388634 
L 744.48 526.721092 
L 747.648 527.458641 
L 750.816 527.853998 
L 757.152 529.281301 
L 763.488 529.816424 
L 766.656 529.754378 
L 769.824 529.80568 
L 772.992 530.158086 
L 776.16 529.998815 
L 779.328 529.66704 
L 782.496 529.002516 
L 785.664 527.641559 
L 788.832 526.469024 
L 788.832 526.469024 
" clip-path="url(#pa460e92cfe)" style="fill: none; stroke: #000000; stroke-width: 1.5; stroke-linecap: square"/>
   </g>
   <g id="line2d_5">
    <path d="M 0 459 
L 3.168 459 
L 6.336 460.315804 
L 9.504 462.369585 
L 12.672 465.856108 
L 15.84 467.505785 
L 19.008 469.495544 
L 22.176 471.103018 
L 25.344 472.175122 
L 28.512 472.360326 
L 38.016 470.504847 
L 41.184 471.464941 
L 44.352 470.138252 
L 47.52 468.974992 
L 50.688 467.605865 
L 53.856 466.443833 
L 57.024 465.653482 
L 60.192 465.526688 
L 66.528 464.845125 
L 69.696 464.35226 
L 72.864 464.232975 
L 76.032 464.313751 
L 79.2 464.602606 
L 82.368 465.341086 
L 85.536 465.427176 
L 91.872 465.1895 
L 98.208 465.333548 
L 101.376 465.712093 
L 104.544 466.24679 
L 110.88 468.611533 
L 114.048 469.418811 
L 120.384 469.73002 
L 123.552 470.22014 
L 126.72 470.211539 
L 129.888 469.732337 
L 133.056 468.955419 
L 145.728 464.850825 
L 152.064 463.078222 
L 158.4 460.830978 
L 161.568 460.080276 
L 167.904 459.230079 
L 171.072 457.35073 
L 174.24 456.246105 
L 177.408 456.515117 
L 180.576 456.998075 
L 186.912 459.395309 
L 190.08 460.015548 
L 193.248 460.202284 
L 196.416 460.680832 
L 199.584 461.032641 
L 202.752 460.927453 
L 205.92 461.162152 
L 209.088 461.833792 
L 212.256 462.765097 
L 215.424 463.478304 
L 221.76 465.856865 
L 224.928 466.430206 
L 228.096 468.586225 
L 231.264 470.547015 
L 234.432 472.366873 
L 237.6 473.901433 
L 243.936 478.190521 
L 247.104 480.618691 
L 256.608 487.157882 
L 262.944 489.908844 
L 266.112 490.835836 
L 269.28 492.348908 
L 272.448 493.720054 
L 281.952 497.405159 
L 285.12 498.395816 
L 288.288 498.961363 
L 291.456 499.154248 
L 297.792 498.59639 
L 300.96 497.987966 
L 304.128 497.682227 
L 307.296 497.205423 
L 310.464 496.909216 
L 313.632 496.783137 
L 316.8 497.072042 
L 319.968 497.860745 
L 326.304 500.273961 
L 329.472 500.955922 
L 332.64 501.90475 
L 335.808 502.57077 
L 342.144 503.344099 
L 345.312 503.394102 
L 348.48 503.117017 
L 351.648 503.122908 
L 354.816 503.595529 
L 357.984 503.908315 
L 361.152 504.412634 
L 364.32 504.605422 
L 370.656 504.270053 
L 376.992 503.684498 
L 380.16 503.759679 
L 383.328 504.031264 
L 389.664 504.305734 
L 396 504.054071 
L 399.168 503.578164 
L 408.672 501.259872 
L 411.84 500.779767 
L 415.008 500.846047 
L 421.344 499.909148 
L 427.68 497.040656 
L 430.848 495.858768 
L 440.352 491.357493 
L 443.52 490.223677 
L 446.688 489.310193 
L 449.856 488.080792 
L 453.024 487.117895 
L 456.192 486.000388 
L 462.528 483.967329 
L 468.864 482.53796 
L 472.032 482.227872 
L 481.536 482.476414 
L 484.704 482.246697 
L 491.04 482.927011 
L 494.208 483.349219 
L 497.376 483.895198 
L 506.88 485.206245 
L 513.216 485.515609 
L 516.384 485.360676 
L 519.552 484.961933 
L 522.72 485.366744 
L 525.888 485.597306 
L 529.056 485.9904 
L 532.224 486.573148 
L 535.392 487.015627 
L 538.56 487.620321 
L 544.896 489.344832 
L 548.064 490.432791 
L 554.4 492.1954 
L 557.568 492.705874 
L 563.904 494.241317 
L 567.072 494.753528 
L 576.576 494.974494 
L 582.912 496.116538 
L 589.248 497.309274 
L 592.416 497.835921 
L 595.584 498.771399 
L 598.752 499.076602 
L 605.088 499.325494 
L 608.256 499.470999 
L 617.76 498.794444 
L 620.928 498.949988 
L 624.096 499.470054 
L 630.432 501.63086 
L 633.6 503.068831 
L 643.104 508.043419 
L 652.608 512.324037 
L 655.776 512.889383 
L 658.944 513.075014 
L 668.448 514.129908 
L 684.288 516.872667 
L 693.792 518.135612 
L 700.128 518.384238 
L 703.296 518.643138 
L 706.464 519.130733 
L 712.8 520.395671 
L 722.304 521.566984 
L 728.64 521.882045 
L 734.976 522.740843 
L 741.312 523.935964 
L 744.48 524.321588 
L 747.648 524.913869 
L 750.816 525.338769 
L 757.152 526.524007 
L 763.488 527.26288 
L 769.824 527.671008 
L 772.992 528.040231 
L 776.16 528.141322 
L 779.328 528.131141 
L 782.496 527.91866 
L 788.832 526.72699 
L 788.832 526.72699 
" clip-path="url(#pa460e92cfe)" style="fill: none; stroke: #000000; stroke-width: 1.5; stroke-linecap: square"/>
   </g>
   <g id="line2d_6">
    <path d="M 0 459 
L 3.168 459 
L 6.336 460.288515 
L 9.504 462.268407 
L 12.672 465.574035 
L 15.84 467.156724 
L 19.008 469.021577 
L 22.176 470.525882 
L 25.344 471.54434 
L 28.512 471.785837 
L 38.016 470.387309 
L 41.184 471.168581 
L 50.688 468.171675 
L 53.856 467.247834 
L 57.024 466.596038 
L 60.192 466.431589 
L 66.528 465.809125 
L 69.696 465.393769 
L 72.864 465.240336 
L 76.032 465.23012 
L 79.2 465.368895 
L 82.368 465.820362 
L 85.536 465.848523 
L 91.872 465.640076 
L 98.208 465.685292 
L 104.544 466.23478 
L 110.88 467.73883 
L 114.048 468.284751 
L 120.384 468.593596 
L 123.552 468.949271 
L 126.72 469.009551 
L 129.888 468.784667 
L 133.056 468.371412 
L 152.064 464.81077 
L 158.4 463.34204 
L 161.568 462.79688 
L 167.904 462.058572 
L 171.072 461.4891 
L 174.24 461.141704 
L 180.576 461.005182 
L 183.744 461.110772 
L 190.08 461.609368 
L 193.248 461.638797 
L 199.584 461.97367 
L 202.752 461.874022 
L 205.92 461.958022 
L 209.088 462.284822 
L 218.592 463.805817 
L 221.76 464.481595 
L 224.928 464.850734 
L 231.264 467.224509 
L 234.432 468.336 
L 237.6 469.325136 
L 243.936 472.02805 
L 253.44 476.602017 
L 256.608 478.020287 
L 262.944 480.259371 
L 266.112 481.159288 
L 272.448 483.508021 
L 285.12 487.727365 
L 288.288 488.476662 
L 291.456 489.023689 
L 297.792 489.574318 
L 300.96 489.642895 
L 307.296 489.926404 
L 313.632 490.30934 
L 316.8 490.733255 
L 319.968 491.407424 
L 326.304 493.208743 
L 329.472 493.857463 
L 332.64 494.643505 
L 335.808 495.289963 
L 342.144 496.290709 
L 345.312 496.609735 
L 348.48 496.749503 
L 351.648 497.016581 
L 361.152 498.427665 
L 364.32 498.773178 
L 370.656 499.069401 
L 376.992 499.179806 
L 383.328 499.720255 
L 389.664 500.210582 
L 396 500.407832 
L 399.168 500.313549 
L 411.84 499.297355 
L 415.008 499.395234 
L 421.344 499.028373 
L 434.016 496.162009 
L 440.352 494.45913 
L 465.696 488.880211 
L 468.864 488.293833 
L 472.032 487.899308 
L 481.536 487.363294 
L 484.704 487.04614 
L 491.04 487.014122 
L 500.544 487.267514 
L 510.048 487.491741 
L 513.216 487.472791 
L 516.384 487.313043 
L 519.552 487.030282 
L 532.224 487.589685 
L 538.56 488.065164 
L 544.896 488.94323 
L 551.232 490.02458 
L 554.4 490.533903 
L 557.568 490.874292 
L 567.072 492.217352 
L 576.576 492.665858 
L 592.416 494.726607 
L 595.584 495.342262 
L 598.752 495.65024 
L 611.424 496.331737 
L 617.76 496.333939 
L 620.928 496.52173 
L 624.096 496.893084 
L 630.432 498.235265 
L 633.6 499.112202 
L 646.272 503.196605 
L 649.44 504.140733 
L 652.608 505.201228 
L 655.776 505.78692 
L 662.112 506.644561 
L 668.448 507.561555 
L 687.456 510.836125 
L 696.96 512.103647 
L 703.296 512.827903 
L 709.632 513.910104 
L 715.968 514.91649 
L 722.304 515.804784 
L 728.64 516.439964 
L 734.976 517.332909 
L 741.312 518.399645 
L 747.648 519.363827 
L 753.984 520.340142 
L 757.152 520.891567 
L 763.488 521.741755 
L 779.328 523.300756 
L 782.496 523.397164 
L 788.832 523.150187 
L 788.832 523.150187 
" clip-path="url(#pa460e92cfe)" style="fill: none; stroke: #000000; stroke-width: 1.5; stroke-linecap: square"/>
   </g>
   <g id="line2d_7">
    <path d="M 0 459 
L 3.168 459 
L 6.336 460.274859 
L 9.504 462.217886 
L 12.672 465.433695 
L 15.84 466.980714 
L 19.008 468.78184 
L 22.176 470.231983 
L 25.344 471.219156 
L 28.512 471.48099 
L 38.016 470.288028 
L 41.184 470.989522 
L 50.688 468.39256 
L 53.856 467.587182 
L 57.024 467.012169 
L 63.36 466.589302 
L 72.864 465.76041 
L 76.032 465.724687 
L 79.2 465.810293 
L 82.368 466.146429 
L 88.704 466.048493 
L 95.04 465.985446 
L 98.208 465.969175 
L 104.544 466.362664 
L 114.048 467.892823 
L 120.384 468.14897 
L 123.552 468.422674 
L 126.72 468.48542 
L 129.888 468.344079 
L 133.056 468.066924 
L 152.064 465.565471 
L 158.4 464.512923 
L 161.568 464.108584 
L 167.904 463.530507 
L 171.072 463.107588 
L 174.24 462.82885 
L 180.576 462.637638 
L 186.912 462.771717 
L 190.08 462.891187 
L 196.416 462.96156 
L 199.584 463.017397 
L 202.752 462.924623 
L 205.92 462.94766 
L 212.256 463.401607 
L 215.424 463.623177 
L 221.76 464.425674 
L 224.928 464.653849 
L 234.432 466.830779 
L 237.6 467.469353 
L 243.936 469.207073 
L 256.608 473.1544 
L 278.784 478.640498 
L 285.12 480.214131 
L 288.288 480.832638 
L 291.456 481.336449 
L 297.792 482.029659 
L 310.464 483.037241 
L 316.8 483.743287 
L 319.968 484.290946 
L 326.304 485.647637 
L 342.144 488.291169 
L 348.48 488.921787 
L 351.648 489.253351 
L 361.152 490.576473 
L 367.488 491.223655 
L 386.496 492.815635 
L 392.832 493.327696 
L 399.168 493.644502 
L 411.84 493.662725 
L 415.008 493.840355 
L 421.344 493.887899 
L 434.016 492.762762 
L 440.352 491.997522 
L 456.192 490.319856 
L 468.864 488.930156 
L 472.032 488.706785 
L 491.04 488.102375 
L 503.712 488.184176 
L 510.048 488.21758 
L 516.384 488.09178 
L 519.552 487.927238 
L 535.392 488.226052 
L 541.728 488.569953 
L 551.232 489.364092 
L 563.904 490.371956 
L 567.072 490.592183 
L 576.576 490.921493 
L 592.416 492.189733 
L 595.584 492.557978 
L 605.088 493.110812 
L 611.424 493.367076 
L 620.928 493.647303 
L 624.096 493.897796 
L 630.432 494.715 
L 636.768 495.847689 
L 646.272 497.709571 
L 655.776 499.409504 
L 665.28 500.484136 
L 674.784 501.737217 
L 684.288 503.036683 
L 696.96 504.574189 
L 706.464 505.677433 
L 715.968 506.983533 
L 722.304 507.775017 
L 731.808 508.838965 
L 744.48 510.525377 
L 760.32 512.691291 
L 772.992 514.188326 
L 779.328 514.798213 
L 782.496 515.028146 
L 788.832 515.255429 
L 788.832 515.255429 
" clip-path="url(#pa460e92cfe)" style="fill: none; stroke: #000000; stroke-width: 1.5; stroke-linecap: square"/>
   </g>
   <g id="line2d_8">
    <path d="M 0 459 
L 3.168 459 
L 6.336 460.26803 
L 9.504 462.192653 
L 12.672 465.363748 
L 15.84 466.892445 
L 19.008 468.66147 
L 22.176 470.084001 
L 25.344 471.054538 
L 28.512 471.324659 
L 38.016 470.228139 
L 41.184 470.89203 
L 53.856 467.737484 
L 57.024 467.201415 
L 63.36 466.79531 
L 72.864 466.015003 
L 79.2 466.035882 
L 82.368 466.322466 
L 88.704 466.222517 
L 95.04 466.153697 
L 98.208 466.133315 
L 104.544 466.459178 
L 114.048 467.75424 
L 120.384 467.97807 
L 123.552 468.211196 
L 126.72 468.269672 
L 129.888 468.159524 
L 136.224 467.613746 
L 148.896 466.243306 
L 155.232 465.467064 
L 161.568 464.708815 
L 177.408 463.532783 
L 183.744 463.448784 
L 193.248 463.563355 
L 199.584 463.643743 
L 205.92 463.564052 
L 215.424 464.033366 
L 224.928 464.776454 
L 234.432 466.371787 
L 237.6 466.844175 
L 243.936 468.127427 
L 256.608 471.060013 
L 278.784 475.248051 
L 285.12 476.46044 
L 291.456 477.364976 
L 297.792 477.975286 
L 310.464 478.930459 
L 316.8 479.54074 
L 323.136 480.495288 
L 329.472 481.459583 
L 335.808 482.385542 
L 345.312 483.477966 
L 351.648 484.028428 
L 364.32 485.455227 
L 392.832 487.714438 
L 399.168 488.07735 
L 415.008 488.586566 
L 421.344 488.763894 
L 434.016 488.340658 
L 443.52 487.84885 
L 453.024 487.401655 
L 468.864 486.52768 
L 475.2 486.389355 
L 494.208 486.254267 
L 513.216 486.450248 
L 525.888 486.409514 
L 538.56 486.715147 
L 551.232 487.386826 
L 567.072 488.229724 
L 579.744 488.672919 
L 608.256 490.193893 
L 624.096 490.728815 
L 633.6 491.601623 
L 655.776 494.294165 
L 668.448 495.359282 
L 700.128 498.304337 
L 709.632 499.215453 
L 722.304 500.443027 
L 734.976 501.589064 
L 763.488 504.520557 
L 782.496 506.1716 
L 788.832 506.497726 
L 788.832 506.497726 
" clip-path="url(#pa460e92cfe)" style="fill: none; stroke: #000000; stroke-width: 1.5; stroke-linecap: square"/>
   </g>
   <g id="line2d_9">
    <path d="M 0 459 
L 3.168 459 
L 6.336 460.264615 
L 9.504 462.180045 
L 12.672 465.328837 
L 15.84 466.848257 
L 19.008 468.601183 
L 22.176 470.00979 
L 25.344 470.971779 
L 28.512 471.245585 
L 38.016 470.195646 
L 41.184 470.84129 
L 53.856 467.807404 
L 57.024 467.290779 
L 63.36 466.894308 
L 72.864 466.139653 
L 79.2 466.148445 
L 82.368 466.412307 
L 88.704 466.312249 
L 95.04 466.241572 
L 98.208 466.219643 
L 104.544 466.514586 
L 114.048 467.699794 
L 120.384 467.906964 
L 123.552 468.120487 
L 126.72 468.175927 
L 133.056 467.88093 
L 152.064 466.057849 
L 161.568 464.990057 
L 177.408 463.924417 
L 183.744 463.835521 
L 196.416 463.951474 
L 202.752 463.891802 
L 209.088 463.984864 
L 218.592 464.506404 
L 221.76 464.754106 
L 224.928 464.89001 
L 243.936 467.701338 
L 256.608 470.164748 
L 288.288 475.156721 
L 294.624 475.797621 
L 304.128 476.497608 
L 313.632 477.161642 
L 319.968 477.830353 
L 332.64 479.496689 
L 342.144 480.536389 
L 370.656 482.997236 
L 380.16 483.629097 
L 392.832 484.573113 
L 399.168 484.916312 
L 424.512 485.62693 
L 437.184 485.365689 
L 475.2 484.365772 
L 494.208 484.380011 
L 513.216 484.624048 
L 525.888 484.660511 
L 538.56 484.938532 
L 557.568 485.72908 
L 570.24 486.224341 
L 579.744 486.521662 
L 611.424 487.813615 
L 624.096 488.199004 
L 633.6 488.849255 
L 658.944 491.013309 
L 681.12 492.580015 
L 747.648 497.416716 
L 782.496 499.977976 
L 788.832 500.274613 
L 788.832 500.274613 
" clip-path="url(#pa460e92cfe)" style="fill: none; stroke: #000000; stroke-width: 1.5; stroke-linecap: square"/>
   </g>
  </g>
 </g>
 <defs>
  <clipPath id="pa460e92cfe">
   <rect x="0" y="0" width="792" height="612"/>
  </clipPath>
 </defs>
</svg>
