<?xml version="1.0" encoding="utf-8" standalone="no"?>
<!DOCTYPE svg PUBLIC "-//W3C//DTD SVG 1.1//EN"
  "http://www.w3.org/Graphics/SVG/1.1/DTD/svg11.dtd">
<svg xmlns:xlink="http://www.w3.org/1999/xlink" width="792pt" height="612pt" viewBox="0 0 792 612" xmlns="http://www.w3.org/2000/svg" version="1.1">
 <metadata>
  <rdf:RDF xmlns:dc="http://purl.org/dc/elements/1.1/" xmlns:cc="http://creativecommons.org/ns#" xmlns:rdf="http://www.w3.org/1999/02/22-rdf-syntax-ns#">
   <cc:Work>
    <dc:type rdf:resource="http://purl.org/dc/dcmitype/StillImage"/>
    <dc:date>2022-12-19T20:28:44.073024</dc:date>
    <dc:format>image/svg+xml</dc:format>
    <dc:creator>
     <cc:Agent>
      <dc:title>Matplotlib v3.6.2, https://matplotlib.org/</dc:title>
     </cc:Agent>
    </dc:creator>
   </cc:Work>
  </rdf:RDF>
 </metadata>
 <defs>
  <style type="text/css">*{stroke-linejoin: round; stroke-linecap: butt}</style>
 </defs>
 <g id="figure_1">
  <g id="patch_1">
   <path d="M 0 612 
L 792 612 
L 792 0 
L 0 0 
z
" style="fill: #ffffff"/>
  </g>
  <g id="axes_1">
   <g id="line2d_1">
    <path d="M 0 459 
L 3.155378 459.433095 
L 6.310757 448.850979 
L 9.466135 459.631598 
L 12.621514 457.781922 
L 15.776892 461.246683 
L 18.932271 456.6992 
L 22.087649 455.021035 
L 25.243028 454.939836 
L 28.398406 458.729315 
L 31.553785 456.049578 
L 34.709163 459.333844 
L 37.864542 459.839122 
L 41.01992 461.571504 
L 44.175299 456.753335 
L 47.330677 460.849679 
L 50.486056 463.70089 
L 53.641434 464.702424 
L 56.796813 465.334021 
L 59.952191 466.290441 
L 63.10757 462.798608 
L 66.262948 462.933951 
L 69.418327 466.54308 
L 72.573705 465.703957 
L 75.729084 468.609306 
L 78.884462 470.973285 
L 82.039841 475.150852 
L 85.195219 483.298461 
L 88.350598 481.584125 
L 91.505976 485.689509 
L 94.661355 486.700065 
L 97.816733 486.005308 
L 100.972112 482.089403 
L 104.12749 477.045645 
L 107.282869 475.583948 
L 110.438247 476.107271 
L 113.593625 486.718111 
L 116.749004 469.764227 
L 119.904382 469.493542 
L 123.059761 466.362623 
L 126.215139 466.561125 
L 129.370518 468.537123 
L 132.525896 473.689155 
L 135.681275 471.992864 
L 138.836653 470.783806 
L 141.992032 469.349177 
L 145.14741 472.462051 
L 148.302789 474.31173 
L 151.458167 476.477207 
L 154.613546 481.322463 
L 157.768924 475.43056 
L 160.924303 473.238014 
L 164.079681 473.445539 
L 167.23506 475.629062 
L 170.390438 474.807985 
L 173.545817 478.552456 
L 176.701195 480.591614 
L 179.856574 487.981306 
L 183.011952 489.280592 
L 186.167331 486.330129 
L 189.322709 479.526921 
L 192.478088 480.699888 
L 195.633466 484.011264 
L 201.944223 473.860589 
L 208.25498 466.506988 
L 211.410359 466.290441 
L 214.565737 463.222681 
L 217.721116 464.558059 
L 220.876494 464.341511 
L 224.031873 463.330955 
L 227.187251 459.523324 
L 230.342629 459.225571 
L 233.498008 461.950463 
L 236.653386 464.927994 
L 239.808765 464.422716 
L 242.964143 460.100784 
L 246.119522 463.971575 
L 249.2749 468.753671 
L 252.430279 469.637908 
L 258.741036 475.647107 
L 261.896414 475.944861 
L 265.051793 471.65902 
L 268.207171 475.114761 
L 271.36255 474.140296 
L 274.517928 469.331132 
L 277.673307 473.048535 
L 280.828685 478.191543 
L 283.984064 481.755558 
L 287.139442 480.203633 
L 290.294821 486.230878 
L 293.450199 487.331662 
L 296.605578 481.529988 
L 299.760956 499.864363 
L 302.916335 499.665861 
L 306.071713 499.891431 
L 309.227092 498.375597 
L 312.38247 506.965324 
L 315.537849 508.445067 
L 318.693227 513.840715 
L 321.848606 513.777555 
L 325.003984 516.92652 
L 328.159363 515.51896 
L 331.314741 509.98797 
L 334.47012 512.018105 
L 337.625498 507.903698 
L 340.780876 515.356549 
L 347.091633 514.923453 
L 350.247012 514.950522 
L 353.40239 518.072418 
L 356.557769 515.654302 
L 359.713147 511.774488 
L 362.868526 508.1022 
L 366.023904 503.536652 
L 369.179283 502.210297 
L 372.334661 498.754556 
L 375.49004 501.605768 
L 378.645418 499.404199 
L 384.956175 502.661438 
L 388.111554 507.199917 
L 391.266932 513.064752 
L 394.422311 518.4604 
L 397.577689 519.687504 
L 400.733068 514.851271 
L 403.888446 518.469423 
L 410.199203 513.939966 
L 413.354582 513.69635 
L 416.50996 510.547385 
L 419.665339 506.92021 
L 422.820717 509.843604 
L 425.976096 515.094887 
L 429.131474 513.723418 
L 432.286853 516.168603 
L 435.442231 513.145957 
L 438.59761 509.590965 
L 441.752988 508.842071 
L 444.908367 507.037507 
L 448.063745 507.75031 
L 451.219124 511.169959 
L 454.374502 513.452733 
L 457.52988 512.38804 
L 460.685259 512.180515 
L 463.840637 509.545851 
L 466.996016 509.356372 
L 473.306773 501.226809 
L 476.462151 499.548564 
L 479.61753 501.542608 
L 482.772908 502.697529 
L 485.928287 508.408976 
L 489.083665 502.850917 
L 492.239044 501.668927 
L 495.394422 490.237011 
L 498.549801 489.840007 
L 501.705179 490.949814 
L 504.860558 486.113581 
L 508.015936 483.361621 
L 511.171315 484.95866 
L 514.326693 486.212832 
L 517.482072 487.638438 
L 520.63745 483.253347 
L 523.792829 485.103025 
L 526.948207 482.477384 
L 530.103586 482.811228 
L 533.258964 481.367577 
L 536.414343 483.785693 
L 539.569721 483.605237 
L 542.7251 487.277526 
L 545.880478 491.79796 
L 549.035857 491.437047 
L 552.191235 491.274636 
L 555.346614 488.134694 
L 558.501992 494.026597 
L 564.812749 495.849207 
L 567.968127 497.61768 
L 571.123506 496.670284 
L 574.278884 496.949991 
L 577.434263 498.213186 
L 580.589641 495.172495 
L 583.74502 494.865719 
L 586.900398 491.752845 
L 590.055777 488.883588 
L 593.211155 497.572566 
L 596.366534 496.011618 
L 599.521912 498.059798 
L 602.677291 500.541074 
L 605.832669 499.521496 
L 608.988048 501.750133 
L 612.143426 505.043463 
L 615.298805 506.15327 
L 618.454183 509.338326 
L 621.609562 508.1022 
L 624.76494 508.769889 
L 627.920319 505.521672 
L 631.075697 508.417998 
L 634.231076 510.042107 
L 637.386454 507.443534 
L 640.541833 502.742643 
L 643.697211 502.868963 
L 646.85259 503.455446 
L 650.007968 508.634546 
L 653.163347 509.437577 
L 656.318725 510.754909 
L 659.474104 510.132335 
L 662.629482 510.466179 
L 665.784861 515.546028 
L 668.940239 509.329304 
L 672.095618 507.010438 
L 675.250996 508.174382 
L 678.406375 508.011971 
L 681.561753 504.339683 
L 684.717131 503.888542 
L 687.87251 503.184761 
L 691.027888 507.642036 
L 694.183267 511.882762 
L 697.338645 518.694993 
L 700.494024 519.570207 
L 703.649402 524.668102 
L 706.804781 528.88176 
L 709.960159 531.426196 
L 713.115538 529.910362 
L 719.426295 530.812644 
L 722.581673 534.277408 
L 725.737052 524.812467 
L 728.89243 521.058973 
L 732.047809 523.134222 
L 735.203187 522.728195 
L 738.358566 524.370349 
L 741.513944 526.418529 
L 744.669323 527.05915 
L 747.824701 528.574984 
L 750.98008 527.907295 
L 754.135458 527.068172 
L 757.290837 527.717816 
L 760.446215 527.230583 
L 763.601594 528.611075 
L 766.756972 524.893672 
L 769.912351 525.832046 
L 773.067729 527.068172 
L 776.223108 529.883293 
L 779.378486 532.373592 
L 782.533865 532.184113 
L 785.689243 530.478799 
L 788.844622 531.615675 
L 788.844622 531.615675 
" clip-path="url(#pbfbfaf63ca)" style="fill: none; stroke: #000000; stroke-width: 1.5; stroke-linecap: square"/>
   </g>
   <g id="line2d_2">
    <path d="M 0 459 
L 3.155378 459 
L 6.310757 459.28873 
L 9.466135 453.571092 
L 12.621514 457.476953 
L 15.776892 457.634356 
L 18.932271 459.917177 
L 22.087649 459.068488 
L 25.243028 457.105006 
L 28.398406 456.014443 
L 31.553785 457.368787 
L 34.709163 456.723295 
L 37.864542 458.360654 
L 41.01992 459.315445 
L 44.175299 460.444112 
L 47.330677 459.347644 
L 50.486056 460.104889 
L 53.641434 461.914761 
L 56.796813 463.31995 
L 63.10757 465.329528 
L 66.262948 464.069871 
L 69.418327 463.504582 
L 72.573705 465.04009 
L 75.729084 465.381542 
L 78.884462 467.005048 
L 82.039841 469.001463 
L 85.195219 472.095406 
L 88.350598 477.730282 
L 91.505976 479.694038 
L 94.661355 482.736392 
L 97.816733 484.757752 
L 100.972112 485.421336 
L 104.12749 483.781801 
L 107.282869 480.42563 
L 110.438247 478.005638 
L 113.593625 477.042354 
L 116.749004 481.890299 
L 119.904382 475.796037 
L 126.215139 469.448322 
L 129.370518 467.974276 
L 132.525896 468.239016 
L 135.681275 470.96037 
L 138.836653 471.46855 
L 141.992032 471.094934 
L 145.14741 470.221242 
L 148.302789 471.347467 
L 151.458167 472.845185 
L 154.613546 474.680639 
L 157.768924 478.02662 
L 160.924303 476.732004 
L 164.079681 474.987451 
L 167.23506 474.221714 
L 170.390438 474.937701 
L 173.545817 474.877443 
L 179.856574 478.665507 
L 183.011952 483.336463 
L 186.167331 486.335684 
L 189.322709 486.358578 
L 192.478088 482.954674 
L 195.633466 481.837224 
L 198.788845 482.942289 
L 201.944223 480.987415 
L 208.25498 473.73296 
L 211.410359 470.07532 
L 214.565737 468.143587 
L 217.721116 465.651165 
L 220.876494 465.072961 
L 224.031873 464.668668 
L 227.187251 463.969028 
L 230.342629 461.718063 
L 233.498008 460.450445 
L 236.653386 461.19152 
L 239.808765 463.057086 
L 242.964143 463.742254 
L 246.119522 461.912779 
L 249.2749 462.941452 
L 252.430279 465.858194 
L 255.585657 467.767883 
L 258.741036 470.226974 
L 261.896414 472.963897 
L 265.051793 474.47598 
L 268.207171 473.081689 
L 271.36255 474.127664 
L 274.517928 474.153919 
L 277.673307 471.743657 
L 280.828685 472.402784 
L 283.984064 475.308062 
L 287.139442 478.543787 
L 290.294821 479.382061 
L 293.450199 482.835042 
L 296.605578 485.107307 
L 299.760956 483.333137 
L 302.916335 491.658619 
L 306.071713 495.714431 
L 309.227092 497.84548 
L 312.38247 498.143127 
L 315.537849 502.606699 
L 318.693227 505.56944 
L 321.848606 509.757056 
L 325.003984 511.830536 
L 328.159363 514.411983 
L 331.314741 514.996556 
L 334.47012 512.51206 
L 337.625498 512.291832 
L 340.780876 510.099605 
L 343.936255 512.741629 
L 347.091633 513.95695 
L 350.247012 514.442449 
L 353.40239 514.692611 
L 356.557769 516.387521 
L 359.713147 516.032022 
L 362.868526 513.902778 
L 366.023904 511.002878 
L 369.179283 507.246588 
L 372.334661 504.703037 
L 375.49004 501.697093 
L 378.645418 501.625264 
L 381.800797 500.478127 
L 384.956175 500.720009 
L 388.111554 501.672855 
L 391.266932 504.434617 
L 394.422311 508.768367 
L 397.577689 513.646246 
L 400.733068 516.70792 
L 403.888446 515.805567 
L 407.043825 517.174878 
L 410.199203 516.696916 
L 413.354582 515.340556 
L 416.50996 514.531191 
L 419.665339 512.534352 
L 422.820717 509.704653 
L 425.976096 509.754827 
L 429.131474 512.425335 
L 432.286853 513.06507 
L 435.442231 514.616854 
L 438.59761 513.879849 
L 441.752988 511.727357 
L 444.908367 510.281371 
L 448.063745 508.659669 
L 451.219124 508.200885 
L 454.374502 509.677726 
L 457.52988 511.564699 
L 460.685259 511.968957 
L 463.840637 512.072843 
L 466.996016 510.809259 
L 470.151394 510.083824 
L 473.306773 507.709194 
L 476.462151 504.45521 
L 479.61753 501.9791 
L 482.772908 501.737501 
L 485.928287 502.198514 
L 489.083665 505.29635 
L 495.394422 502.849643 
L 498.549801 496.513711 
L 501.705179 493.154532 
L 504.860558 492.035313 
L 511.171315 486.164994 
L 514.326693 485.515846 
L 517.482072 485.831716 
L 520.63745 486.707566 
L 523.792829 484.966763 
L 526.948207 485.025606 
L 530.103586 483.734882 
L 533.258964 483.26658 
L 536.414343 482.313169 
L 539.569721 483.047131 
L 542.7251 483.321071 
L 545.880478 485.298591 
L 549.035857 488.565029 
L 552.191235 490.013458 
L 555.346614 490.661296 
L 558.501992 489.408433 
L 561.657371 491.742336 
L 564.812749 493.339341 
L 567.968127 494.618282 
L 571.123506 496.138256 
L 577.434263 496.692717 
L 580.589641 497.466557 
L 583.74502 496.333325 
L 586.900398 495.601168 
L 590.055777 493.67085 
L 593.211155 491.263561 
L 596.366534 494.417975 
L 599.521912 495.213505 
L 602.677291 496.638828 
L 605.832669 498.594516 
L 608.988048 499.066533 
L 612.143426 500.421832 
L 615.298805 502.758707 
L 618.454183 504.489851 
L 621.609562 506.937159 
L 627.920319 508.177638 
L 631.075697 506.859421 
L 634.231076 507.656154 
L 637.386454 508.865389 
L 640.541833 508.159167 
L 643.697211 505.444218 
L 646.85259 504.143905 
L 650.007968 503.790564 
L 653.163347 506.21229 
L 656.318725 507.832612 
L 659.474104 509.298343 
L 665.784861 510.096774 
L 668.940239 512.846506 
L 672.095618 511.100572 
L 675.250996 509.062476 
L 678.406375 508.617527 
L 681.561753 508.311954 
L 684.717131 506.313239 
L 687.87251 505.088648 
L 691.027888 504.122427 
L 694.183267 505.866734 
L 697.338645 508.879755 
L 700.494024 513.810285 
L 703.649402 516.712591 
L 709.960159 524.850504 
L 713.115538 528.192345 
L 716.270916 529.103757 
L 722.581673 530.320705 
L 725.737052 532.32961 
L 732.047809 524.813068 
L 735.203187 523.962375 
L 738.358566 523.32823 
L 741.513944 523.838427 
L 744.669323 525.120835 
L 747.824701 526.082633 
L 750.98008 527.317627 
L 754.135458 527.618529 
L 757.290837 527.355134 
L 760.446215 527.545462 
L 763.601594 527.396851 
L 766.756972 528.012278 
L 769.912351 526.449985 
L 773.067729 526.138609 
L 776.223108 526.600436 
L 779.378486 528.245739 
L 782.533865 530.320068 
L 785.689243 531.260848 
L 788.844622 530.876193 
L 788.844622 530.876193 
" clip-path="url(#pbfbfaf63ca)" style="fill: none; stroke: #000000; stroke-width: 1.5; stroke-linecap: square"/>
   </g>
   <g id="line2d_3">
    <path d="M 0 459 
L 3.155378 459 
L 6.310757 459.253701 
L 9.466135 454.817291 
L 12.621514 457.190642 
L 15.776892 457.401012 
L 18.932271 459.397459 
L 22.087649 459.023347 
L 25.243028 457.805025 
L 28.398406 456.927008 
L 31.553785 457.471916 
L 34.709163 457.045905 
L 37.864542 457.925323 
L 41.01992 458.989161 
L 44.175299 459.75656 
L 47.330677 459.313173 
L 50.486056 459.76497 
L 56.796813 462.036143 
L 63.10757 463.980752 
L 66.262948 463.639339 
L 69.418327 463.434674 
L 72.573705 464.35465 
L 75.729084 464.759076 
L 78.884462 465.899374 
L 82.039841 467.399345 
L 85.195219 469.689389 
L 88.350598 473.70292 
L 91.505976 476.036247 
L 94.661355 478.891324 
L 97.816733 481.211128 
L 100.972112 482.644204 
L 104.12749 482.502828 
L 110.438247 479.367913 
L 113.593625 478.424169 
L 116.749004 480.880882 
L 119.904382 477.632735 
L 123.059761 475.252209 
L 126.215139 472.649266 
L 129.370518 470.863739 
L 132.525896 470.179491 
L 135.681275 471.205769 
L 138.836653 471.423318 
L 141.992032 471.223604 
L 145.14741 470.655829 
L 148.302789 471.168505 
L 151.458167 472.075703 
L 154.613546 473.358428 
L 157.768924 475.695952 
L 160.924303 475.618044 
L 164.079681 474.917654 
L 167.23506 474.471236 
L 170.390438 474.817092 
L 173.545817 474.820529 
L 176.701195 475.927586 
L 179.856574 477.309764 
L 183.011952 480.45772 
L 186.167331 483.059787 
L 189.322709 484.034116 
L 192.478088 482.724032 
L 195.633466 482.144211 
L 198.788845 482.704324 
L 201.944223 481.633754 
L 205.099602 479.354041 
L 208.25498 476.638097 
L 211.410359 473.660515 
L 214.565737 471.49389 
L 217.721116 469.059567 
L 220.876494 467.728389 
L 227.187251 465.712981 
L 230.342629 463.875873 
L 233.498008 462.480802 
L 236.653386 462.294078 
L 239.808765 463.040952 
L 242.964143 463.428313 
L 246.119522 462.430042 
L 249.2749 462.858529 
L 252.430279 464.573372 
L 255.585657 466.05189 
L 258.741036 467.982475 
L 261.896414 470.237893 
L 265.051793 471.920514 
L 268.207171 471.853614 
L 271.36255 472.820907 
L 274.517928 473.218602 
L 277.673307 472.08688 
L 280.828685 472.384077 
L 283.984064 474.106829 
L 287.139442 476.369838 
L 290.294821 477.510276 
L 293.450199 480.08953 
L 296.605578 482.241979 
L 299.760956 482.053609 
L 302.916335 487.305992 
L 306.071713 490.960604 
L 309.227092 493.607691 
L 312.38247 495.030284 
L 315.537849 498.561607 
L 318.693227 501.498658 
L 321.848606 505.158043 
L 325.003984 507.728167 
L 328.159363 510.47697 
L 331.314741 512.002516 
L 334.47012 511.448991 
L 337.625498 511.65044 
L 340.780876 510.584861 
L 343.936255 512.01591 
L 347.091633 512.970835 
L 350.247012 513.581099 
L 353.40239 513.999522 
L 356.557769 515.213587 
L 359.713147 515.360775 
L 362.868526 514.325766 
L 366.023904 512.504231 
L 369.179283 509.87205 
L 372.334661 507.614616 
L 375.49004 505.002309 
L 378.645418 503.989888 
L 381.800797 502.628261 
L 384.956175 502.146701 
L 388.111554 502.286717 
L 391.266932 503.724952 
L 394.422311 506.457883 
L 397.577689 509.977122 
L 400.733068 512.826699 
L 403.888446 513.419568 
L 407.043825 514.899092 
L 410.199203 515.268861 
L 416.50996 514.541244 
L 419.665339 513.379522 
L 422.820717 511.493043 
L 425.976096 511.022671 
L 429.131474 512.230889 
L 432.286853 512.684488 
L 435.442231 513.722362 
L 438.59761 513.565579 
L 448.063745 510.078035 
L 451.219124 509.382549 
L 454.374502 509.901841 
L 457.52988 510.936111 
L 460.685259 511.357039 
L 463.840637 511.596209 
L 466.996016 510.990906 
L 470.151394 510.510794 
L 473.306773 508.994846 
L 476.462151 506.709743 
L 479.61753 504.594426 
L 482.772908 503.686578 
L 485.928287 503.38142 
L 489.083665 504.848516 
L 492.239044 504.255691 
L 495.394422 503.489806 
L 498.549801 499.588855 
L 501.705179 496.712912 
L 504.860558 495.001715 
L 511.171315 489.696073 
L 514.326693 488.27725 
L 517.482072 487.645796 
L 520.63745 487.618696 
L 523.792829 486.314744 
L 526.948207 485.94132 
L 530.103586 484.907149 
L 533.258964 484.271753 
L 536.414343 483.39664 
L 542.7251 483.496208 
L 545.880478 484.5872 
L 549.035857 486.700976 
L 552.191235 488.089973 
L 555.346614 489.023112 
L 558.501992 488.765222 
L 561.657371 490.318493 
L 571.123506 494.296707 
L 574.278884 495.007322 
L 577.434263 495.589924 
L 580.589641 496.376334 
L 586.900398 495.710106 
L 590.055777 494.560202 
L 593.211155 492.903623 
L 596.366534 494.28295 
L 599.521912 494.794105 
L 602.677291 495.758211 
L 605.832669 497.169723 
L 608.988048 497.87162 
L 612.143426 499.016481 
L 615.298805 500.793402 
L 618.454183 502.375107 
L 621.609562 504.428049 
L 624.76494 505.517313 
L 627.920319 506.483547 
L 631.075697 506.210215 
L 634.231076 506.872074 
L 637.386454 507.817986 
L 640.541833 507.726334 
L 643.697211 506.282563 
L 646.85259 505.288826 
L 650.007968 504.760392 
L 656.318725 506.951478 
L 659.474104 508.07838 
L 665.784861 509.216175 
L 668.940239 511.080934 
L 672.095618 510.567883 
L 675.250996 509.524678 
L 681.561753 508.804338 
L 684.717131 507.491986 
L 691.027888 505.474242 
L 694.183267 506.114802 
L 697.338645 507.814551 
L 700.494024 511.018863 
L 703.649402 513.536054 
L 706.804781 516.814049 
L 709.960159 520.36942 
L 713.115538 523.632333 
L 716.270916 525.493459 
L 719.426295 526.923027 
L 722.581673 528.086945 
L 725.737052 529.931409 
L 728.89243 528.451216 
L 732.047809 526.301064 
L 735.203187 525.395105 
L 738.358566 524.635624 
L 741.513944 524.58226 
L 747.824701 525.72071 
L 750.98008 526.568055 
L 754.135458 526.969886 
L 757.290837 527.00143 
L 760.446215 527.209917 
L 763.601594 527.211151 
L 766.756972 527.619687 
L 769.912351 526.815027 
L 773.067729 526.521398 
L 776.223108 526.673264 
L 779.378486 527.619284 
L 782.533865 529.024785 
L 785.689243 529.960525 
L 788.844622 530.121226 
L 788.844622 530.121226 
" clip-path="url(#pbfbfaf63ca)" style="fill: none; stroke: #000000; stroke-width: 1.5; stroke-linecap: square"/>
   </g>
   <g id="line2d_4">
    <path d="M 0 459 
L 3.155378 459 
L 6.310757 459.235263 
L 9.466135 455.445087 
L 12.621514 457.179184 
L 15.776892 457.344652 
L 18.932271 459.136975 
L 22.087649 458.796936 
L 25.243028 457.995904 
L 28.398406 457.38023 
L 31.553785 457.640965 
L 34.709163 457.343557 
L 37.864542 457.82686 
L 41.01992 458.483 
L 44.175299 459.306549 
L 47.330677 459.125141 
L 50.486056 459.417813 
L 63.10757 462.395585 
L 69.418327 462.538315 
L 72.573705 463.187551 
L 75.729084 463.594276 
L 78.884462 464.402808 
L 82.039841 465.459874 
L 85.195219 467.016203 
L 88.350598 469.627166 
L 91.505976 471.542142 
L 94.661355 473.805542 
L 97.816733 475.866682 
L 100.972112 477.486099 
L 104.12749 478.232908 
L 107.282869 478.054999 
L 110.438247 477.674304 
L 113.593625 477.435263 
L 116.749004 478.929745 
L 119.904382 477.476793 
L 123.059761 476.213655 
L 126.215139 474.651742 
L 129.370518 473.370058 
L 132.525896 472.607127 
L 135.681275 472.789061 
L 138.836653 472.670281 
L 141.992032 472.376965 
L 145.14741 471.900086 
L 148.302789 471.998363 
L 151.458167 472.374828 
L 154.613546 473.035503 
L 157.768924 474.364357 
L 160.924303 474.540294 
L 167.23506 474.202171 
L 170.390438 474.437115 
L 173.545817 474.501279 
L 176.701195 475.153852 
L 179.856574 476.026496 
L 186.167331 479.752439 
L 189.322709 480.800865 
L 192.478088 480.596892 
L 195.633466 480.610166 
L 198.788845 481.149615 
L 201.944223 480.808131 
L 205.099602 479.697618 
L 208.25498 478.170284 
L 211.410359 476.308949 
L 214.565737 474.708843 
L 217.721116 472.866694 
L 220.876494 471.541512 
L 227.187251 469.267303 
L 230.342629 467.71261 
L 233.498008 466.356481 
L 236.653386 465.648144 
L 242.964143 465.34915 
L 246.119522 464.508346 
L 249.2749 464.417646 
L 255.585657 465.82114 
L 258.741036 466.899587 
L 261.896414 468.291484 
L 265.051793 469.510853 
L 268.207171 469.851519 
L 271.36255 470.688599 
L 274.517928 471.23736 
L 277.673307 470.928318 
L 280.828685 471.260946 
L 283.984064 472.357521 
L 287.139442 473.848087 
L 290.294821 474.855455 
L 296.605578 478.370033 
L 299.760956 478.871245 
L 302.916335 482.224324 
L 306.071713 485.015436 
L 309.227092 487.400832 
L 312.38247 489.166841 
L 315.537849 492.024022 
L 318.693227 494.664885 
L 321.848606 497.746577 
L 328.159363 503.002331 
L 331.314741 505.028709 
L 334.47012 505.849418 
L 337.625498 506.862117 
L 340.780876 507.05465 
L 343.936255 508.407292 
L 347.091633 509.517154 
L 350.247012 510.409107 
L 353.40239 511.160486 
L 356.557769 512.290419 
L 359.713147 512.852467 
L 362.868526 512.703498 
L 366.023904 511.991479 
L 372.334661 509.337721 
L 375.49004 507.669259 
L 378.645418 506.724673 
L 381.800797 505.576403 
L 384.956175 504.865592 
L 388.111554 504.527947 
L 391.266932 504.969911 
L 394.422311 506.274572 
L 400.733068 510.079095 
L 403.888446 510.847716 
L 407.043825 512.072089 
L 410.199203 512.732574 
L 416.50996 513.059816 
L 419.665339 512.661391 
L 422.820717 511.743631 
L 425.976096 511.438875 
L 429.131474 512.019417 
L 432.286853 512.289409 
L 435.442231 512.910459 
L 438.59761 512.948632 
L 444.908367 511.842863 
L 448.063745 511.073241 
L 451.219124 510.540075 
L 454.374502 510.637933 
L 457.52988 511.082896 
L 463.840637 511.430685 
L 470.151394 510.852872 
L 473.306773 509.977901 
L 479.61753 507.147764 
L 482.772908 506.257298 
L 485.928287 505.691973 
L 489.083665 506.127844 
L 495.394422 504.970604 
L 498.549801 502.608827 
L 501.705179 500.558639 
L 504.860558 499.014927 
L 511.171315 494.760924 
L 514.326693 493.183266 
L 517.482072 492.057097 
L 520.63745 491.339779 
L 523.792829 490.038432 
L 526.948207 489.237755 
L 530.103586 488.141804 
L 536.414343 486.312892 
L 542.7251 485.512364 
L 545.880478 485.779753 
L 549.035857 486.727762 
L 552.191235 487.466848 
L 555.346614 488.060267 
L 558.501992 488.056312 
L 574.278884 492.674712 
L 580.589641 494.124814 
L 586.900398 494.374635 
L 590.055777 493.947106 
L 593.211155 493.132768 
L 596.366534 493.8366 
L 599.521912 494.186256 
L 602.677291 494.807679 
L 605.832669 495.725867 
L 608.988048 496.338131 
L 612.143426 497.210673 
L 618.454183 499.704398 
L 621.609562 501.25073 
L 627.920319 503.391514 
L 631.075697 503.744808 
L 634.231076 504.504307 
L 637.386454 505.403281 
L 640.541833 505.742654 
L 646.85259 504.903838 
L 650.007968 504.680667 
L 656.318725 505.986852 
L 659.474104 506.759581 
L 665.784861 507.81872 
L 668.940239 509.060452 
L 672.095618 509.110535 
L 675.250996 508.782853 
L 681.561753 508.590799 
L 691.027888 506.639213 
L 694.183267 506.810469 
L 697.338645 507.626418 
L 700.494024 509.401621 
L 703.649402 511.032901 
L 706.804781 513.217364 
L 713.115538 518.244108 
L 716.270916 520.115766 
L 719.426295 521.753798 
L 722.581673 523.208491 
L 725.737052 524.985927 
L 728.89243 524.968339 
L 732.047809 524.356039 
L 738.358566 523.949213 
L 741.513944 524.026778 
L 747.824701 524.856746 
L 750.98008 525.464004 
L 754.135458 525.864765 
L 763.601594 526.492724 
L 766.756972 526.841083 
L 769.912351 526.537075 
L 773.067729 526.435199 
L 776.223108 526.548422 
L 779.378486 527.092557 
L 782.533865 527.947989 
L 785.689243 528.639344 
L 788.844622 528.948599 
L 788.844622 528.948599 
" clip-path="url(#pbfbfaf63ca)" style="fill: none; stroke: #000000; stroke-width: 1.5; stroke-linecap: square"/>
   </g>
   <g id="line2d_5">
    <path d="M 0 459 
L 3.155378 459 
L 6.310757 459.225923 
L 9.466135 455.751487 
L 12.621514 457.208895 
L 15.776892 457.344166 
L 18.932271 459.021011 
L 22.087649 458.631604 
L 25.243028 458.032264 
L 28.398406 457.558271 
L 31.553785 457.725972 
L 34.709163 457.499532 
L 37.864542 457.820757 
L 41.01992 458.274748 
L 44.175299 459.090524 
L 47.330677 458.984229 
L 50.486056 459.200013 
L 59.952191 460.738612 
L 63.10757 461.298338 
L 69.418327 461.591909 
L 72.573705 462.067692 
L 75.729084 462.412601 
L 78.884462 462.993486 
L 82.039841 463.733569 
L 85.195219 464.782237 
L 88.350598 466.468011 
L 91.505976 467.833243 
L 97.816733 470.972041 
L 100.972112 472.302921 
L 104.12749 473.164542 
L 107.282869 473.504526 
L 113.593625 473.896109 
L 116.749004 475.005232 
L 123.059761 474.118691 
L 129.370518 472.865228 
L 132.525896 472.496319 
L 135.681275 472.597764 
L 141.992032 472.397109 
L 145.14741 472.139354 
L 148.302789 472.166601 
L 151.458167 472.347464 
L 154.613546 472.695198 
L 157.768924 473.420759 
L 160.924303 473.589599 
L 167.23506 473.550488 
L 173.545817 473.815307 
L 176.701195 474.211567 
L 179.856574 474.744906 
L 186.167331 476.972117 
L 189.322709 477.753109 
L 195.633466 478.134452 
L 198.788845 478.62429 
L 201.944223 478.65815 
L 205.099602 478.264808 
L 208.25498 477.592729 
L 220.876494 473.925978 
L 227.187251 472.320848 
L 233.498008 470.260666 
L 236.653386 469.572233 
L 242.964143 468.794544 
L 246.119522 468.072518 
L 249.2749 467.734018 
L 255.585657 467.973928 
L 258.741036 468.363234 
L 265.051793 469.553057 
L 268.207171 469.730727 
L 271.36255 470.181545 
L 274.517928 470.512578 
L 277.673307 470.415703 
L 280.828685 470.635662 
L 283.984064 471.265119 
L 287.139442 472.137933 
L 290.294821 472.806346 
L 296.605578 475.035519 
L 299.760956 475.572851 
L 302.916335 477.593459 
L 306.071713 479.4311 
L 309.227092 481.13666 
L 312.38247 482.574841 
L 318.693227 486.594548 
L 321.848606 488.870216 
L 331.314741 494.998707 
L 337.625498 497.576892 
L 340.780876 498.445663 
L 343.936255 499.863705 
L 347.091633 501.148735 
L 356.557769 504.602394 
L 359.713147 505.530831 
L 362.868526 506.060859 
L 366.023904 506.241629 
L 372.334661 505.718808 
L 375.49004 505.148597 
L 378.645418 504.86206 
L 381.800797 504.415203 
L 384.956175 504.137599 
L 388.111554 504.019438 
L 391.266932 504.290198 
L 394.422311 505.029366 
L 400.733068 507.291018 
L 403.888446 507.930147 
L 407.043825 508.819383 
L 410.199203 509.443573 
L 416.50996 510.168332 
L 419.665339 510.215195 
L 422.820717 509.955513 
L 425.976096 509.961034 
L 429.131474 510.403971 
L 432.286853 510.697113 
L 435.442231 511.169758 
L 438.59761 511.350437 
L 444.908367 511.036131 
L 451.219124 510.487353 
L 454.374502 510.557812 
L 460.685259 510.956055 
L 463.840637 511.069571 
L 470.151394 510.833714 
L 473.306773 510.387697 
L 482.772908 508.215008 
L 485.928287 507.765056 
L 489.083665 507.827173 
L 495.394422 506.949117 
L 501.705179 504.260783 
L 504.860558 503.153125 
L 514.326693 498.934557 
L 517.482072 497.871951 
L 520.63745 497.015839 
L 523.792829 495.863652 
L 526.948207 494.961231 
L 533.258964 492.981787 
L 536.414343 492.008539 
L 542.7251 490.668943 
L 545.880478 490.37833 
L 555.346614 490.611262 
L 558.501992 490.395973 
L 564.812749 491.033559 
L 567.968127 491.42925 
L 571.123506 491.940938 
L 580.589641 493.169643 
L 586.900398 493.459577 
L 590.055777 493.314375 
L 593.211155 492.940676 
L 596.366534 493.320062 
L 599.521912 493.536144 
L 602.677291 493.904549 
L 605.832669 494.450697 
L 608.988048 494.865385 
L 612.143426 495.432102 
L 618.454183 497.048303 
L 621.609562 498.067932 
L 627.920319 499.719838 
L 631.075697 500.198251 
L 637.386454 501.637259 
L 640.541833 502.117301 
L 650.007968 502.324389 
L 665.784861 505.006101 
L 668.940239 505.882825 
L 672.095618 506.16886 
L 678.406375 506.40212 
L 681.561753 506.538486 
L 691.027888 505.904424 
L 694.183267 506.050198 
L 697.338645 506.537601 
L 703.649402 508.562695 
L 706.804781 509.910353 
L 716.270916 514.572508 
L 725.737052 518.584278 
L 728.89243 519.114117 
L 732.047809 519.288089 
L 741.513944 520.27673 
L 757.290837 522.847227 
L 766.756972 524.030851 
L 773.067729 524.263862 
L 776.223108 524.506502 
L 779.378486 524.963473 
L 785.689243 526.148965 
L 788.844622 526.519915 
L 788.844622 526.519915 
" clip-path="url(#pbfbfaf63ca)" style="fill: none; stroke: #000000; stroke-width: 1.5; stroke-linecap: square"/>
   </g>
   <g id="line2d_6">
    <path d="M 0 459 
L 3.155378 459 
L 6.310757 459.221238 
L 9.466135 455.90172 
L 12.621514 457.23221 
L 15.776892 457.351878 
L 18.932271 458.905561 
L 22.087649 458.547962 
L 28.398406 457.630662 
L 31.553785 457.763147 
L 34.709163 457.571493 
L 41.01992 458.189108 
L 44.175299 458.983945 
L 47.330677 458.78604 
L 53.641434 459.466512 
L 63.10757 460.727987 
L 69.418327 461.017013 
L 78.884462 462.116162 
L 82.039841 462.671827 
L 85.195219 463.439111 
L 88.350598 464.637309 
L 91.505976 465.641764 
L 97.816733 467.951485 
L 100.972112 468.972049 
L 104.12749 469.703226 
L 110.438247 470.404625 
L 113.593625 470.710754 
L 116.749004 471.560471 
L 123.059761 471.363565 
L 129.370518 470.874058 
L 132.525896 470.755811 
L 138.836653 470.957301 
L 148.302789 470.947827 
L 154.613546 471.369274 
L 157.768924 471.845889 
L 160.924303 472.016606 
L 167.23506 472.139107 
L 176.701195 472.705073 
L 179.856574 473.070355 
L 186.167331 474.47176 
L 189.322709 475.014884 
L 195.633466 475.470123 
L 198.788845 475.857523 
L 201.944223 476.001023 
L 205.099602 475.904499 
L 208.25498 475.644576 
L 217.721116 474.316045 
L 227.187251 473.008184 
L 233.498008 471.828566 
L 236.653386 471.392858 
L 242.964143 470.814288 
L 246.119522 470.344046 
L 249.2749 470.06476 
L 255.585657 469.991233 
L 258.741036 470.106561 
L 265.051793 470.591778 
L 268.207171 470.638194 
L 274.517928 470.976217 
L 277.673307 470.904894 
L 280.828685 470.997742 
L 283.984064 471.309044 
L 293.450199 472.734294 
L 296.605578 473.363902 
L 299.760956 473.71586 
L 306.071713 475.910502 
L 315.537849 479.113606 
L 318.693227 480.373009 
L 328.159363 484.627115 
L 331.314741 485.950833 
L 337.625498 488.052277 
L 340.780876 488.901805 
L 347.091633 491.108206 
L 359.713147 495.085676 
L 362.868526 495.798114 
L 366.023904 496.323217 
L 372.334661 496.868957 
L 375.49004 496.949364 
L 381.800797 497.244047 
L 388.111554 497.628865 
L 391.266932 498.03654 
L 394.422311 498.676534 
L 400.733068 500.377478 
L 403.888446 500.993526 
L 407.043825 501.744334 
L 410.199203 502.364925 
L 416.50996 503.333553 
L 419.665339 503.648033 
L 422.820717 503.794357 
L 425.976096 504.059406 
L 435.442231 505.421387 
L 438.59761 505.75805 
L 444.908367 506.060564 
L 451.219124 506.187336 
L 457.52988 506.713939 
L 463.840637 507.191449 
L 470.151394 507.393449 
L 473.306773 507.313492 
L 485.928287 506.375749 
L 489.083665 506.46748 
L 495.394422 506.12366 
L 508.015936 503.437321 
L 514.326693 501.841392 
L 539.569721 496.612863 
L 542.7251 496.063313 
L 545.880478 495.693566 
L 555.346614 495.191218 
L 558.501992 494.893982 
L 564.812749 494.863975 
L 574.278884 495.101453 
L 583.74502 495.311596 
L 586.900398 495.293837 
L 590.055777 495.144122 
L 593.211155 494.87912 
L 605.832669 495.403389 
L 612.143426 495.849006 
L 618.454183 496.671924 
L 624.76494 497.685358 
L 627.920319 498.162693 
L 634.231076 498.9111 
L 637.386454 499.391467 
L 640.541833 499.740412 
L 650.007968 500.160749 
L 665.784861 502.092071 
L 668.940239 502.669058 
L 675.250996 503.13482 
L 681.561753 503.558048 
L 694.183267 503.774449 
L 697.338645 504.12248 
L 703.649402 505.380364 
L 706.804781 506.202225 
L 719.426295 510.030103 
L 725.737052 511.908823 
L 728.89243 512.45773 
L 738.358566 513.664981 
L 744.669323 514.645364 
L 760.446215 517.189815 
L 769.912351 518.37773 
L 776.223108 519.056498 
L 782.533865 520.07073 
L 788.844622 521.013909 
L 788.844622 521.013909 
" clip-path="url(#pbfbfaf63ca)" style="fill: none; stroke: #000000; stroke-width: 1.5; stroke-linecap: square"/>
   </g>
   <g id="line2d_7">
    <path d="M 0 459 
L 3.155378 459 
L 6.310757 459.218893 
L 9.466135 455.975964 
L 12.621514 457.245885 
L 15.776892 457.357786 
L 18.932271 458.831554 
L 22.087649 458.506782 
L 28.398406 457.662575 
L 31.553785 457.779943 
L 34.709163 457.605051 
L 41.01992 458.151399 
L 44.175299 458.852847 
L 47.330677 458.690673 
L 63.10757 460.453771 
L 69.418327 460.723677 
L 78.884462 461.663115 
L 82.039841 462.12641 
L 85.195219 462.756679 
L 88.350598 463.724621 
L 91.505976 464.545092 
L 97.816733 466.422416 
L 100.972112 467.261658 
L 104.12749 467.883784 
L 110.438247 468.555731 
L 113.593625 468.854557 
L 116.749004 469.548849 
L 123.059761 469.55469 
L 132.525896 469.303466 
L 138.836653 469.546922 
L 148.302789 469.677967 
L 154.613546 470.049297 
L 157.768924 470.414503 
L 164.079681 470.659672 
L 173.545817 471.019138 
L 179.856574 471.531194 
L 189.322709 472.942906 
L 195.633466 473.354683 
L 198.788845 473.661387 
L 201.944223 473.81479 
L 208.25498 473.712106 
L 220.876494 472.798465 
L 227.187251 472.317061 
L 236.653386 471.371649 
L 242.964143 471.021596 
L 249.2749 470.557737 
L 255.585657 470.488163 
L 261.896414 470.674573 
L 265.051793 470.809353 
L 271.36255 470.939652 
L 274.517928 471.020519 
L 280.828685 471.029918 
L 287.139442 471.471417 
L 290.294821 471.688062 
L 296.605578 472.424325 
L 299.760956 472.648014 
L 309.227092 474.589133 
L 312.38247 475.166453 
L 318.693227 476.720663 
L 331.314741 480.265465 
L 353.40239 485.315479 
L 359.713147 486.776077 
L 366.023904 487.843778 
L 372.334661 488.534277 
L 384.956175 489.57742 
L 391.266932 490.277076 
L 397.577689 491.434348 
L 400.733068 492.08106 
L 416.50996 494.619441 
L 422.820717 495.251711 
L 429.131474 496.023443 
L 441.752988 497.513812 
L 460.685259 499.125696 
L 466.996016 499.643715 
L 473.306773 499.982615 
L 485.928287 500.093525 
L 489.083665 500.278137 
L 495.394422 500.364776 
L 508.015936 499.413568 
L 514.326693 498.747741 
L 530.103586 497.287297 
L 542.7251 496.064193 
L 549.035857 495.782019 
L 564.812749 495.385135 
L 577.434263 495.502981 
L 583.74502 495.553651 
L 590.055777 495.456083 
L 593.211155 495.312807 
L 608.988048 495.632308 
L 615.298805 495.967156 
L 624.76494 496.727001 
L 637.386454 497.691883 
L 643.697211 498.008404 
L 650.007968 498.229595 
L 665.784861 499.440441 
L 668.940239 499.789082 
L 678.406375 500.320995 
L 684.717131 500.570648 
L 694.183267 500.847427 
L 697.338645 501.08588 
L 703.649402 501.857362 
L 709.960159 502.922898 
L 719.426295 504.67319 
L 728.89243 506.272603 
L 741.513944 507.656874 
L 766.756972 510.844912 
L 776.223108 511.79971 
L 788.844622 513.419887 
L 788.844622 513.419887 
" clip-path="url(#pbfbfaf63ca)" style="fill: none; stroke: #000000; stroke-width: 1.5; stroke-linecap: square"/>
   </g>
   <g id="line2d_8">
    <path d="M 0 459 
L 3.155378 459 
L 6.310757 459.21772 
L 9.466135 456.012852 
L 12.621514 457.253212 
L 15.776892 457.361257 
L 18.932271 458.795798 
L 22.087649 458.486463 
L 28.398406 457.677478 
L 31.553785 457.787862 
L 34.709163 457.621138 
L 41.01992 458.133843 
L 44.175299 458.790823 
L 47.330677 458.644451 
L 53.641434 459.314921 
L 63.10757 460.321674 
L 69.418327 460.578896 
L 78.884462 461.438864 
L 82.039841 461.857353 
L 85.195219 462.422132 
L 88.350598 463.281806 
L 94.661355 464.854946 
L 100.972112 466.427573 
L 104.12749 466.988982 
L 110.438247 467.622101 
L 113.593625 467.905192 
L 116.749004 468.518981 
L 123.059761 468.587968 
L 132.525896 468.463189 
L 138.836653 468.710397 
L 151.458167 469.027788 
L 154.613546 469.222651 
L 157.768924 469.534364 
L 164.079681 469.772924 
L 173.545817 470.119071 
L 179.856574 470.559078 
L 189.322709 471.71638 
L 205.099602 472.51752 
L 211.410359 472.342634 
L 220.876494 471.88195 
L 230.342629 471.326111 
L 236.653386 470.912671 
L 255.585657 470.312306 
L 268.207171 470.569847 
L 274.517928 470.712234 
L 280.828685 470.729126 
L 290.294821 471.201894 
L 299.760956 471.889036 
L 318.693227 474.761971 
L 331.314741 477.275072 
L 353.40239 480.981105 
L 359.713147 482.065263 
L 366.023904 482.899944 
L 375.49004 483.720053 
L 391.266932 485.053278 
L 397.577689 485.937532 
L 407.043825 487.285094 
L 416.50996 488.432749 
L 444.908367 491.175557 
L 454.374502 491.883609 
L 463.840637 492.717883 
L 473.306773 493.328919 
L 498.549801 494.104273 
L 508.015936 493.90474 
L 517.482072 493.55646 
L 526.948207 493.241637 
L 542.7251 492.591124 
L 549.035857 492.514287 
L 567.968127 492.523337 
L 586.900398 492.816848 
L 599.521912 492.854147 
L 612.143426 493.198449 
L 624.76494 493.869676 
L 640.541833 494.710032 
L 653.163347 495.172078 
L 681.561753 496.680509 
L 697.338645 497.234376 
L 706.804781 498.067785 
L 728.89243 500.611495 
L 741.513944 501.633958 
L 788.844622 505.91476 
L 788.844622 505.91476 
" clip-path="url(#pbfbfaf63ca)" style="fill: none; stroke: #000000; stroke-width: 1.5; stroke-linecap: square"/>
   </g>
   <g id="line2d_9">
    <path d="M 0 459 
L 3.155378 459 
L 6.310757 459.217134 
L 9.466135 456.031235 
L 12.621514 457.256996 
L 15.776892 457.363121 
L 18.932271 458.778239 
L 22.087649 458.476384 
L 28.398406 457.684672 
L 31.553785 457.791699 
L 34.709163 457.629 
L 41.01992 458.12539 
L 44.175299 458.760726 
L 47.330677 458.621766 
L 53.641434 459.290997 
L 63.10757 460.257144 
L 69.418327 460.507407 
L 82.039841 461.724719 
L 85.195219 462.257777 
L 88.350598 463.06545 
L 94.661355 464.54367 
L 100.972112 466.020169 
L 104.12749 466.550483 
L 110.438247 467.15956 
L 113.593625 467.432382 
L 116.749004 468.006024 
L 126.215139 468.049709 
L 132.525896 468.023343 
L 138.836653 468.268007 
L 151.458167 468.59266 
L 164.079681 469.292363 
L 173.545817 469.626291 
L 179.856574 470.029813 
L 189.322709 471.065606 
L 205.099602 471.817002 
L 211.410359 471.692893 
L 224.031873 471.216748 
L 230.342629 470.893625 
L 236.653386 470.561158 
L 255.585657 470.089348 
L 271.36255 470.384347 
L 287.139442 470.723183 
L 293.450199 471.063562 
L 302.916335 471.800301 
L 315.537849 473.308889 
L 325.003984 474.768441 
L 331.314741 475.798057 
L 353.40239 478.834752 
L 359.713147 479.724007 
L 366.023904 480.421679 
L 375.49004 481.136443 
L 394.422311 482.63541 
L 407.043825 484.137048 
L 416.50996 485.098052 
L 444.908367 487.454161 
L 457.52988 488.337074 
L 470.151394 489.208619 
L 479.61753 489.576901 
L 498.549801 490.223423 
L 511.171315 490.125337 
L 552.191235 489.616756 
L 567.968127 489.755575 
L 586.900398 490.098967 
L 599.521912 490.214701 
L 612.143426 490.536331 
L 634.231076 491.478802 
L 643.697211 491.846322 
L 656.318725 492.298783 
L 681.561753 493.381792 
L 697.338645 493.872778 
L 706.804781 494.494601 
L 732.047809 496.534539 
L 757.290837 498.247934 
L 788.844622 500.408669 
L 788.844622 500.408669 
" clip-path="url(#pbfbfaf63ca)" style="fill: none; stroke: #000000; stroke-width: 1.5; stroke-linecap: square"/>
   </g>
  </g>
 </g>
 <defs>
  <clipPath id="pbfbfaf63ca">
   <rect x="0" y="0" width="792" height="612"/>
  </clipPath>
 </defs>
</svg>
