<?xml version="1.0" encoding="utf-8" standalone="no"?>
<!DOCTYPE svg PUBLIC "-//W3C//DTD SVG 1.1//EN"
  "http://www.w3.org/Graphics/SVG/1.1/DTD/svg11.dtd">
<svg xmlns:xlink="http://www.w3.org/1999/xlink" width="792pt" height="612pt" viewBox="0 0 792 612" xmlns="http://www.w3.org/2000/svg" version="1.1">
 <metadata>
  <rdf:RDF xmlns:dc="http://purl.org/dc/elements/1.1/" xmlns:cc="http://creativecommons.org/ns#" xmlns:rdf="http://www.w3.org/1999/02/22-rdf-syntax-ns#">
   <cc:Work>
    <dc:type rdf:resource="http://purl.org/dc/dcmitype/StillImage"/>
    <dc:date>2022-12-26T20:27:28.046812</dc:date>
    <dc:format>image/svg+xml</dc:format>
    <dc:creator>
     <cc:Agent>
      <dc:title>Matplotlib v3.6.2, https://matplotlib.org/</dc:title>
     </cc:Agent>
    </dc:creator>
   </cc:Work>
  </rdf:RDF>
 </metadata>
 <defs>
  <style type="text/css">*{stroke-linejoin: round; stroke-linecap: butt}</style>
 </defs>
 <g id="figure_1">
  <g id="patch_1">
   <path d="M 0 612 
L 792 612 
L 792 0 
L 0 0 
z
" style="fill: #ffffff"/>
  </g>
  <g id="axes_1">
   <g id="line2d_1">
    <path d="M 0 459 
L 3.142857 456.321832 
L 6.285714 459.423823 
L 9.428571 459.928803 
L 12.571429 461.660164 
L 15.714286 457.025179 
L 18.857143 460.938763 
L 22 463.788295 
L 25.142857 464.789238 
L 28.285714 465.420463 
L 31.428571 466.376319 
L 34.571429 462.886544 
L 37.714286 463.021807 
L 40.857143 466.628809 
L 44 465.790181 
L 47.142857 468.693817 
L 50.285714 471.056404 
L 53.428571 475.231508 
L 56.571429 483.374315 
L 59.714286 481.660989 
L 62.857143 485.763954 
L 66 486.773914 
L 69.142857 486.079566 
L 72.285714 482.165969 
L 75.428571 477.125184 
L 78.571429 475.664348 
L 81.714286 476.187364 
L 84.857143 486.791949 
L 88 469.848058 
L 91.142857 469.577533 
L 94.285714 466.448459 
L 97.428571 466.646844 
L 100.571429 468.621677 
L 103.714286 473.770672 
L 106.857143 472.075382 
L 110 470.867036 
L 113.142857 469.433253 
L 116.285714 472.544292 
L 119.428571 474.39288 
L 122.571429 476.557081 
L 125.714286 481.399481 
L 128.857143 475.511051 
L 132 473.319797 
L 135.142857 473.5272 
L 138.285714 475.709436 
L 141.428571 474.888843 
L 144.571429 478.631107 
L 147.714286 480.669063 
L 150.857143 488.0544 
L 154 489.35292 
L 157.142857 486.404196 
L 160.285714 479.604998 
L 163.428571 480.777274 
L 166.571429 484.086698 
L 172.857143 473.942005 
L 179.142857 466.592739 
L 182.285714 466.376319 
L 185.428571 463.310367 
L 188.571429 464.644958 
L 191.714286 464.428538 
L 194.857143 463.418577 
L 198 459.61319 
L 201.142857 459.315613 
L 204.285714 462.038899 
L 207.428571 465.014676 
L 210.571429 464.509695 
L 213.714286 460.190311 
L 216.857143 464.05882 
L 220 468.838097 
L 223.142857 469.721813 
L 229.428571 475.727471 
L 232.571429 476.025049 
L 235.714286 471.741734 
L 238.857143 475.195438 
L 242 474.221548 
L 245.142857 469.415218 
L 248.285714 473.13043 
L 251.428571 478.270407 
L 254.571429 481.832322 
L 257.714286 480.281311 
L 260.857143 486.305004 
L 264 487.405139 
L 267.142857 481.606884 
L 270.285714 499.930453 
L 273.428571 499.732068 
L 276.571429 499.957506 
L 279.714286 498.442565 
L 282.857143 507.027229 
L 286 508.5061 
L 289.142857 513.898568 
L 292.285714 513.835445 
L 295.428571 516.982554 
L 298.571429 515.575824 
L 301.714286 510.048093 
L 304.857143 512.077032 
L 308 507.96505 
L 311.142857 515.413509 
L 317.428571 514.980668 
L 320.571429 515.007721 
L 323.714286 518.127777 
L 326.857143 515.711086 
L 330 511.833559 
L 333.142857 508.163435 
L 336.285714 503.600578 
L 339.428571 502.275004 
L 342.571429 498.8213 
L 345.714286 501.670832 
L 348.857143 499.47056 
L 355.142857 502.72588 
L 358.285714 507.261684 
L 361.428571 513.123062 
L 364.571429 518.51553 
L 367.714286 519.741911 
L 370.857143 514.908528 
L 374 518.524548 
L 380.285714 513.99776 
L 383.428571 513.754288 
L 386.571429 510.607179 
L 389.714286 506.982142 
L 392.857143 509.903813 
L 396 515.152001 
L 399.142857 513.78134 
L 402.285714 516.225084 
L 405.428571 513.20422 
L 408.571429 509.651323 
L 411.714286 508.90287 
L 414.857143 507.099369 
L 418 507.811752 
L 421.142857 511.229386 
L 424.285714 513.510815 
L 427.428571 512.44675 
L 430.571429 512.239347 
L 433.714286 509.606236 
L 436.857143 509.416868 
L 443.142857 501.292096 
L 446.285714 499.614841 
L 449.428571 501.607709 
L 452.571429 502.76195 
L 455.714286 508.47003 
L 458.857143 502.915247 
L 462 501.733954 
L 465.142857 490.308776 
L 468.285714 489.912006 
L 471.428571 491.021159 
L 474.571429 486.187776 
L 477.714286 483.437437 
L 480.857143 485.033536 
L 484 486.286969 
L 487.142857 487.711735 
L 490.285714 483.329227 
L 493.428571 485.177816 
L 496.571429 482.553722 
L 499.714286 482.88737 
L 502.857143 481.444569 
L 506 483.86126 
L 509.142857 483.68091 
L 512.285714 487.351034 
L 515.428571 491.868804 
L 518.571429 491.508104 
L 521.714286 491.345789 
L 524.857143 488.207697 
L 528 494.096128 
L 534.285714 495.917664 
L 537.428571 497.685095 
L 540.571429 496.738257 
L 543.714286 497.017799 
L 546.857143 498.28025 
L 550 495.241351 
L 553.142857 494.934756 
L 556.285714 491.823717 
L 559.428571 488.95615 
L 562.571429 497.640007 
L 565.714286 496.079979 
L 568.857143 498.126952 
L 572 500.606766 
L 575.142857 499.587788 
L 578.285714 501.815112 
L 581.428571 505.106501 
L 584.571429 506.215654 
L 587.714286 509.398833 
L 590.857143 508.163435 
L 594 508.83073 
L 597.142857 505.584429 
L 600.285714 508.479048 
L 603.428571 510.102198 
L 606.571429 507.505157 
L 609.714286 502.807037 
L 612.857143 502.933282 
L 616 503.51942 
L 619.142857 508.695468 
L 622.285714 509.498026 
L 625.428571 510.814581 
L 628.571429 510.192373 
L 631.714286 510.526021 
L 634.857143 515.602876 
L 638 509.389816 
L 641.142857 507.072317 
L 644.285714 508.235575 
L 647.428571 508.07326 
L 650.571429 504.403135 
L 653.714286 503.95226 
L 656.857143 503.248895 
L 660 507.703542 
L 663.142857 511.941769 
L 666.285714 518.749985 
L 669.428571 519.624683 
L 672.571429 524.719573 
L 675.714286 528.930748 
L 678.857143 531.473684 
L 682 529.958743 
L 688.285714 530.860494 
L 691.428571 534.323216 
L 694.571429 524.863853 
L 697.714286 521.112571 
L 700.857143 523.186598 
L 704 522.78081 
L 707.142857 524.421996 
L 710.285714 526.468969 
L 713.428571 527.109212 
L 716.571429 528.624153 
L 719.714286 527.956857 
L 722.857143 527.11823 
L 726 527.76749 
L 729.142857 527.280545 
L 732.285714 528.660223 
L 735.428571 524.945011 
L 738.571429 525.882831 
L 741.714286 527.11823 
L 744.857143 529.931691 
L 748 532.420522 
L 751.142857 532.231155 
L 754.285714 530.526846 
L 757.428571 531.663052 
L 760.571429 530.346496 
L 763.714286 528.5971 
L 766.857143 529.417693 
L 770 532.240172 
L 773.142857 532.772205 
L 776.285714 535.423351 
L 779.428571 535.179879 
L 782.571429 533.755113 
L 785.714286 536.442329 
L 788.857143 535.125774 
L 788.857143 535.125774 
" clip-path="url(#p96ee60afc4)" style="fill: none; stroke: #000000; stroke-width: 1.5; stroke-linecap: square"/>
   </g>
   <g id="line2d_2">
    <path d="M 0 459 
L 3.142857 459 
L 6.285714 457.214543 
L 9.428571 458.961354 
L 12.571429 459.48935 
L 15.714286 460.60977 
L 18.857143 459.457746 
L 22 460.204085 
L 25.142857 462.003218 
L 28.285714 463.407579 
L 34.571429 465.415972 
L 37.714286 464.157058 
L 40.857143 463.592102 
L 44 465.126705 
L 47.142857 465.467955 
L 50.285714 467.090505 
L 53.428571 469.085743 
L 56.571429 472.177863 
L 59.714286 477.809418 
L 62.857143 479.772016 
L 66 482.812577 
L 69.142857 484.832746 
L 72.285714 485.495939 
L 75.428571 483.85737 
L 78.571429 480.503177 
L 81.714286 478.084611 
L 84.857143 477.121895 
L 88 481.966983 
L 91.142857 475.876313 
L 97.428571 469.532339 
L 100.571429 468.059162 
L 103.714286 468.323746 
L 106.857143 471.043496 
L 110 471.551376 
L 113.142857 471.177981 
L 116.285714 470.304803 
L 119.428571 471.430365 
L 122.571429 472.9272 
L 125.714286 474.761572 
L 128.857143 478.105581 
L 132 476.811729 
L 135.142857 475.068203 
L 138.285714 474.302917 
L 141.428571 475.018483 
L 144.571429 474.95826 
L 150.857143 478.744091 
L 154 483.412294 
L 157.142857 486.409748 
L 160.285714 486.432628 
L 163.428571 483.03073 
L 166.571429 481.913939 
L 169.714286 483.018353 
L 172.857143 481.064631 
L 179.142857 473.814452 
L 182.285714 470.158967 
L 185.428571 468.228373 
L 188.571429 465.73742 
L 191.714286 465.159557 
L 194.857143 464.755502 
L 198 464.056274 
L 201.142857 461.806636 
L 204.285714 460.539765 
L 207.428571 461.280403 
L 210.571429 463.144869 
L 213.714286 463.829634 
L 216.857143 462.001238 
L 220 463.029304 
L 223.142857 465.944327 
L 226.285714 467.852891 
L 229.428571 470.310532 
L 232.571429 473.045842 
L 235.714286 474.557034 
L 238.857143 473.163565 
L 242 474.208923 
L 245.142857 474.235162 
L 248.285714 471.826322 
L 251.428571 472.485059 
L 254.571429 475.388625 
L 257.714286 478.622444 
L 260.857143 479.460223 
L 264 482.911169 
L 267.142857 485.182095 
L 270.285714 483.40897 
L 273.428571 491.729546 
L 276.571429 495.782967 
L 279.714286 497.91276 
L 282.857143 498.210232 
L 286 502.671173 
L 289.142857 505.632168 
L 292.285714 509.817316 
L 295.428571 511.889574 
L 298.571429 514.4695 
L 301.714286 515.053728 
L 304.857143 512.570696 
L 308 512.350598 
L 311.142857 510.159663 
L 314.285714 512.80013 
L 317.428571 514.014734 
L 320.571429 514.499947 
L 323.714286 514.749962 
L 326.857143 516.443873 
L 330 516.088584 
L 333.142857 513.960594 
L 336.285714 511.062403 
L 339.428571 507.308328 
L 342.571429 504.766276 
L 345.714286 501.762103 
L 348.857143 501.690316 
L 352 500.543856 
L 355.142857 500.785596 
L 358.285714 501.737879 
L 361.428571 504.498014 
L 364.571429 508.82921 
L 367.714286 513.704214 
L 370.857143 516.764083 
L 374 515.862262 
L 377.142857 517.230766 
L 380.285714 516.753085 
L 383.428571 515.397525 
L 386.571429 514.588637 
L 389.714286 512.592975 
L 392.857143 509.764944 
L 396 509.815088 
L 399.142857 512.484022 
L 402.285714 513.123381 
L 405.428571 514.67425 
L 408.571429 513.937679 
L 411.714286 511.786456 
L 414.857143 510.341321 
L 418 508.720575 
L 421.142857 508.262062 
L 424.285714 509.738033 
L 427.428571 511.623893 
L 430.571429 512.027913 
L 433.714286 512.131738 
L 436.857143 510.868898 
L 440 510.143891 
L 443.142857 507.770661 
L 446.285714 504.518595 
L 449.428571 502.043944 
L 452.571429 501.802487 
L 455.714286 502.263229 
L 458.857143 505.359239 
L 465.142857 502.913974 
L 468.285714 496.581776 
L 471.428571 493.224577 
L 474.571429 492.106018 
L 480.857143 486.239158 
L 484 485.590393 
L 487.142857 485.906077 
L 490.285714 486.781411 
L 493.428571 485.041634 
L 496.571429 485.100442 
L 499.714286 483.810479 
L 502.857143 483.342453 
L 506 482.389603 
L 509.142857 483.123133 
L 512.285714 483.396912 
L 515.428571 485.373266 
L 518.571429 488.637779 
L 521.714286 490.085354 
L 524.857143 490.732811 
L 528 489.480686 
L 531.142857 491.813214 
L 534.285714 493.409277 
L 537.428571 494.687464 
L 540.571429 496.206542 
L 546.857143 496.760677 
L 550 497.53406 
L 553.142857 496.401497 
L 556.285714 495.669771 
L 559.428571 493.740591 
L 562.571429 491.33472 
L 565.714286 494.487275 
L 568.857143 495.282336 
L 572 496.706819 
L 575.142857 498.661354 
L 578.285714 499.133094 
L 581.428571 500.487594 
L 584.571429 502.823092 
L 587.714286 504.553215 
L 590.857143 506.999081 
L 597.142857 508.238828 
L 600.285714 506.921389 
L 603.428571 507.717652 
L 606.571429 508.926174 
L 609.714286 508.220369 
L 612.857143 505.50702 
L 616 504.207473 
L 619.142857 503.854341 
L 622.285714 506.274639 
L 625.428571 507.894006 
L 628.571429 509.358873 
L 634.857143 510.156834 
L 638 512.904945 
L 641.142857 511.16004 
L 644.285714 509.123145 
L 647.428571 508.678458 
L 650.571429 508.373065 
L 653.714286 506.375529 
L 656.857143 505.151659 
L 660 504.186008 
L 663.142857 505.929286 
L 666.285714 508.940532 
L 669.428571 513.868156 
L 672.571429 516.768751 
L 678.857143 524.901868 
L 682 528.24174 
L 685.142857 529.152614 
L 691.428571 530.368845 
L 694.571429 532.376566 
L 700.857143 524.864455 
L 704 524.014263 
L 707.142857 523.380492 
L 710.285714 523.890387 
L 713.428571 525.17204 
L 716.571429 526.13327 
L 719.714286 527.367537 
L 722.857143 527.668262 
L 726 527.405022 
L 729.142857 527.595238 
L 732.285714 527.446714 
L 735.428571 528.061779 
L 738.571429 526.500407 
L 741.714286 526.189214 
L 744.857143 526.650769 
L 748 528.295102 
L 751.142857 530.368209 
L 754.285714 531.308434 
L 757.428571 530.924005 
L 760.571429 531.299417 
L 763.714286 530.833547 
L 766.857143 529.720646 
L 770 529.573678 
L 773.142857 530.911452 
L 776.285714 531.842518 
L 779.428571 533.639194 
L 782.571429 534.41866 
L 785.714286 534.090988 
L 788.857143 535.278611 
L 788.857143 535.278611 
" clip-path="url(#p96ee60afc4)" style="fill: none; stroke: #000000; stroke-width: 1.5; stroke-linecap: square"/>
   </g>
   <g id="line2d_3">
    <path d="M 0 459 
L 3.142857 459 
L 6.285714 457.431154 
L 9.428571 458.718045 
L 12.571429 459.305439 
L 15.714286 460.143222 
L 18.857143 459.540197 
L 22 459.989545 
L 28.285714 462.283467 
L 34.571429 464.173697 
L 37.714286 463.790715 
L 40.857143 463.562991 
L 44 464.468019 
L 47.142857 464.857422 
L 50.285714 465.985483 
L 53.428571 467.484569 
L 56.571429 469.773264 
L 59.714286 473.784429 
L 62.857143 476.116382 
L 66 478.969776 
L 69.142857 481.288212 
L 72.285714 482.720444 
L 75.428571 482.579151 
L 81.714286 479.446084 
L 84.857143 478.502896 
L 88 480.958161 
L 91.142857 477.711928 
L 94.285714 475.332806 
L 97.428571 472.731397 
L 100.571429 470.946921 
L 103.714286 470.263077 
L 106.857143 471.28875 
L 110 471.506171 
L 113.142857 471.306575 
L 116.285714 470.739134 
L 119.428571 471.251508 
L 122.571429 472.158172 
L 125.714286 473.44014 
L 128.857143 475.776287 
L 132 475.698425 
L 135.142857 474.998447 
L 138.285714 474.552293 
L 141.428571 474.897945 
L 144.571429 474.901379 
L 147.714286 476.007784 
L 150.857143 477.389147 
L 154 480.535248 
L 157.142857 483.135782 
L 160.285714 484.109537 
L 163.428571 482.800224 
L 166.571429 482.220745 
L 169.714286 482.780528 
L 172.857143 481.71059 
L 176 479.43222 
L 179.142857 476.717877 
L 182.285714 473.742049 
L 185.428571 471.576701 
L 188.571429 469.143813 
L 191.714286 467.81342 
L 198 465.7992 
L 201.142857 463.963175 
L 204.285714 462.568926 
L 207.428571 462.382312 
L 210.571429 463.128745 
L 213.714286 463.515878 
L 216.857143 462.518195 
L 220 462.94643 
L 223.142857 464.660262 
L 226.285714 466.137909 
L 229.428571 468.067356 
L 232.571429 470.321444 
L 235.714286 472.003074 
L 238.857143 471.936213 
L 242 472.902937 
L 245.142857 473.300397 
L 248.285714 472.169342 
L 251.428571 472.466364 
L 254.571429 474.1881 
L 257.714286 476.449776 
L 260.857143 477.589542 
L 264 480.167276 
L 267.142857 482.318456 
L 270.285714 482.130197 
L 273.428571 487.379484 
L 276.571429 491.031942 
L 279.714286 493.677469 
L 282.857143 495.099224 
L 286 498.628465 
L 289.142857 501.563785 
L 292.285714 505.221014 
L 295.428571 507.789623 
L 298.571429 510.536806 
L 301.714286 512.061453 
L 304.857143 511.508253 
L 308 511.709584 
L 311.142857 510.644633 
L 314.285714 512.074838 
L 317.428571 513.029201 
L 320.571429 513.639105 
L 323.714286 514.057281 
L 326.857143 515.270631 
L 330 515.417732 
L 333.142857 514.383333 
L 336.285714 512.562872 
L 339.428571 509.932242 
L 342.571429 507.676138 
L 345.714286 505.065371 
L 348.857143 504.053546 
L 352 502.692722 
L 355.142857 502.211446 
L 358.285714 502.35138 
L 361.428571 503.788767 
L 364.571429 506.520088 
L 367.714286 510.037252 
L 370.857143 512.88515 
L 374 513.47767 
L 377.142857 514.956322 
L 380.285714 515.325872 
L 386.571429 514.598684 
L 389.714286 513.437647 
L 392.857143 511.55228 
L 396 511.082185 
L 399.142857 512.289691 
L 402.285714 512.743022 
L 405.428571 513.780285 
L 408.571429 513.623595 
L 418 510.138106 
L 421.142857 509.44303 
L 424.285714 509.962016 
L 427.428571 510.995676 
L 430.571429 511.416356 
L 433.714286 511.655385 
L 436.857143 511.050439 
L 440 510.57061 
L 443.142857 509.055555 
L 446.285714 506.771799 
L 449.428571 504.657729 
L 452.571429 503.750416 
L 455.714286 503.445437 
L 458.857143 504.911669 
L 462 504.319193 
L 465.142857 503.55376 
L 468.285714 499.655108 
L 471.428571 496.78086 
L 474.571429 495.070671 
L 480.857143 489.768157 
L 484 488.35017 
L 487.142857 487.719088 
L 490.285714 487.692003 
L 493.428571 486.388821 
L 496.571429 486.015617 
L 499.714286 484.982055 
L 502.857143 484.347033 
L 506 483.472436 
L 512.285714 483.571945 
L 515.428571 484.662295 
L 518.571429 486.774824 
L 521.714286 488.163003 
L 524.857143 489.095592 
L 528 488.837854 
L 531.142857 490.390209 
L 540.571429 494.366079 
L 543.714286 495.076276 
L 546.857143 495.658534 
L 550 496.44448 
L 556.285714 495.778645 
L 559.428571 494.629419 
L 562.571429 492.973816 
L 565.714286 494.35233 
L 568.857143 494.863183 
L 572 495.826722 
L 575.142857 497.237401 
L 578.285714 497.938885 
L 581.428571 499.083071 
L 584.571429 500.858945 
L 587.714286 502.439717 
L 590.857143 504.491449 
L 594 505.580072 
L 597.142857 506.545736 
L 600.285714 506.272565 
L 603.428571 506.934034 
L 606.571429 507.879389 
L 609.714286 507.787791 
L 612.857143 506.344871 
L 616 505.35172 
L 619.142857 504.823596 
L 625.428571 507.013392 
L 628.571429 508.13963 
L 634.857143 509.276753 
L 638 511.140414 
L 641.142857 510.627665 
L 644.285714 509.585075 
L 650.571429 508.865159 
L 653.714286 507.553581 
L 660 505.537026 
L 663.142857 506.177208 
L 666.285714 507.875956 
L 669.428571 511.078379 
L 672.571429 513.594087 
L 675.714286 516.87015 
L 678.857143 520.423426 
L 682 523.684415 
L 685.142857 525.544444 
L 688.285714 526.97317 
L 691.428571 528.136402 
L 694.571429 529.979778 
L 697.714286 528.500458 
L 700.857143 526.351573 
L 704 525.446148 
L 707.142857 524.687115 
L 710.285714 524.633783 
L 716.571429 525.771561 
L 719.714286 526.618407 
L 722.857143 527.020001 
L 726 527.051526 
L 729.142857 527.259891 
L 732.285714 527.261124 
L 735.428571 527.669419 
L 738.571429 526.865234 
L 741.714286 526.571777 
L 744.857143 526.723554 
L 748 527.669016 
L 751.142857 529.073688 
L 754.285714 530.008877 
L 757.428571 530.169484 
L 760.571429 530.615257 
L 763.714286 530.540993 
L 766.857143 529.973349 
L 770 529.811512 
L 776.285714 531.191644 
L 779.428571 532.439876 
L 782.571429 533.251477 
L 785.714286 533.404841 
L 788.857143 534.307706 
L 788.857143 534.307706 
" clip-path="url(#p96ee60afc4)" style="fill: none; stroke: #000000; stroke-width: 1.5; stroke-linecap: square"/>
   </g>
   <g id="line2d_4">
    <path d="M 0 459 
L 3.142857 459 
L 6.285714 457.545171 
L 9.428571 458.615142 
L 15.714286 459.881253 
L 18.857143 459.502343 
L 22 459.827575 
L 31.428571 462.256152 
L 34.571429 463.026146 
L 40.857143 463.004503 
L 44 463.637053 
L 47.142857 464.00713 
L 50.285714 464.80251 
L 53.428571 465.852722 
L 56.571429 467.413916 
L 59.714286 470.051284 
L 62.857143 471.958015 
L 66 474.213869 
L 69.142857 476.257373 
L 72.285714 477.849707 
L 75.428571 478.54734 
L 78.571429 478.318057 
L 81.714286 477.891126 
L 84.857143 477.617509 
L 88 479.088689 
L 91.142857 477.608749 
L 94.285714 476.323856 
L 97.428571 474.745312 
L 100.571429 473.451763 
L 103.714286 472.689283 
L 106.857143 472.871109 
L 110 472.752399 
L 113.142857 472.459256 
L 116.285714 471.982658 
L 119.428571 472.080877 
L 122.571429 472.45712 
L 125.714286 473.117405 
L 128.857143 474.445477 
L 132 474.62131 
L 138.285714 474.283386 
L 141.428571 474.518192 
L 144.571429 474.582318 
L 147.714286 475.234506 
L 150.857143 476.106636 
L 157.142857 479.830383 
L 160.285714 480.878191 
L 163.428571 480.674339 
L 166.571429 480.687604 
L 169.714286 481.226736 
L 172.857143 480.885453 
L 176 479.775594 
L 179.142857 478.249161 
L 182.285714 476.388922 
L 185.428571 474.78976 
L 188.571429 472.948696 
L 191.714286 471.624295 
L 198 469.351426 
L 201.142857 467.79765 
L 204.285714 466.442321 
L 207.428571 465.734401 
L 213.714286 465.435583 
L 216.857143 464.595274 
L 220 464.504628 
L 226.285714 465.907295 
L 229.428571 466.985106 
L 232.571429 468.376183 
L 235.714286 469.594833 
L 238.857143 469.935298 
L 242 470.771885 
L 245.142857 471.320322 
L 248.285714 471.011463 
L 251.428571 471.343895 
L 254.571429 472.439823 
L 257.714286 473.929511 
L 260.857143 474.936285 
L 267.142857 478.448792 
L 270.285714 478.949708 
L 273.428571 482.300811 
L 276.571429 485.090278 
L 279.714286 487.474269 
L 282.857143 489.239236 
L 286 492.094733 
L 289.142857 494.73404 
L 292.285714 497.813916 
L 298.571429 503.066572 
L 301.714286 505.091756 
L 304.857143 505.911981 
L 308 506.924083 
L 311.142857 507.116503 
L 314.285714 508.468347 
L 317.428571 509.577556 
L 320.571429 510.468982 
L 323.714286 511.219919 
L 326.857143 512.349186 
L 330 512.910903 
L 333.142857 512.762021 
L 336.285714 512.050422 
L 342.571429 509.398228 
L 345.714286 507.730749 
L 348.857143 506.78672 
L 352 505.639127 
L 355.142857 504.928735 
L 358.285714 504.591289 
L 361.428571 505.032993 
L 364.571429 506.336885 
L 370.857143 510.139165 
L 374 510.907333 
L 377.142857 512.130985 
L 380.285714 512.79108 
L 386.571429 513.11813 
L 389.714286 512.719939 
L 392.857143 511.80272 
L 396 511.498144 
L 399.142857 512.078343 
L 402.285714 512.348177 
L 405.428571 512.968861 
L 408.571429 513.00701 
L 414.857143 511.901893 
L 418 511.132725 
L 421.142857 510.599874 
L 424.285714 510.697674 
L 427.428571 511.142374 
L 433.714286 511.489959 
L 440 510.912486 
L 443.142857 510.038031 
L 449.428571 507.209562 
L 452.571429 506.319621 
L 455.714286 505.754629 
L 458.857143 506.190243 
L 465.142857 505.033684 
L 468.285714 502.6733 
L 471.428571 500.62432 
L 474.571429 499.081518 
L 480.857143 494.830022 
L 484 493.253294 
L 487.142857 492.127789 
L 490.285714 491.410894 
L 493.428571 490.110314 
L 496.571429 489.310108 
L 499.714286 488.214804 
L 506 486.38697 
L 512.285714 485.586913 
L 515.428571 485.854144 
L 518.571429 486.801595 
L 521.714286 487.540245 
L 524.857143 488.133315 
L 528 488.129362 
L 543.714286 492.745039 
L 550 494.194287 
L 556.285714 494.443961 
L 559.428571 494.016684 
L 562.571429 493.202826 
L 565.714286 493.906243 
L 568.857143 494.255693 
L 572 494.87675 
L 575.142857 495.794397 
L 578.285714 496.406299 
L 581.428571 497.278327 
L 587.714286 499.770582 
L 590.857143 501.316003 
L 597.142857 503.455526 
L 600.285714 503.808612 
L 603.428571 504.567662 
L 606.571429 505.466107 
L 609.714286 505.80528 
L 616 504.966958 
L 619.142857 504.743919 
L 625.428571 506.049334 
L 628.571429 506.821607 
L 634.857143 507.880122 
L 638 509.121123 
L 641.142857 509.171176 
L 644.285714 508.843687 
L 650.571429 508.651746 
L 660 506.70131 
L 663.142857 506.872466 
L 666.285714 507.687934 
L 669.428571 509.46209 
L 672.571429 511.092409 
L 675.714286 513.275584 
L 682 518.299366 
L 685.142857 520.169921 
L 688.285714 521.806987 
L 691.428571 523.260823 
L 694.571429 525.037212 
L 697.714286 525.019633 
L 700.857143 524.407694 
L 707.142857 524.001108 
L 710.285714 524.078628 
L 716.571429 524.908106 
L 719.714286 525.515006 
L 722.857143 525.915532 
L 732.285714 526.543121 
L 735.428571 526.891274 
L 738.571429 526.587445 
L 741.714286 526.485629 
L 744.857143 526.598786 
L 748 527.1426 
L 751.142857 527.997527 
L 754.285714 528.688475 
L 757.428571 528.997548 
L 760.571429 529.439368 
L 763.714286 529.597823 
L 766.857143 529.448996 
L 770 529.450672 
L 776.285714 530.363989 
L 779.428571 531.173003 
L 782.571429 531.812823 
L 785.714286 532.124217 
L 788.857143 532.815036 
L 788.857143 532.815036 
" clip-path="url(#p96ee60afc4)" style="fill: none; stroke: #000000; stroke-width: 1.5; stroke-linecap: square"/>
   </g>
   <g id="line2d_5">
    <path d="M 0 459 
L 3.142857 459 
L 6.285714 457.602929 
L 9.428571 458.570524 
L 15.714286 459.75066 
L 18.857143 459.462211 
L 22 459.731697 
L 34.571429 462.330818 
L 40.857143 462.478267 
L 44 462.968489 
L 47.142857 463.290454 
L 50.285714 463.888397 
L 53.428571 464.660264 
L 56.571429 465.771175 
L 59.714286 467.581069 
L 62.857143 469.000582 
L 69.142857 472.231848 
L 72.285714 473.562544 
L 75.428571 474.378601 
L 78.571429 474.636069 
L 84.857143 474.865162 
L 88 475.951013 
L 94.285714 474.877791 
L 100.571429 473.464808 
L 103.714286 473.03841 
L 106.857143 473.102556 
L 113.142857 472.826647 
L 116.285714 472.533113 
L 119.428571 472.534077 
L 122.571429 472.693793 
L 125.714286 473.024773 
L 128.857143 473.740346 
L 132 473.891273 
L 138.285714 473.815898 
L 144.571429 474.053475 
L 147.714286 474.439986 
L 150.857143 474.96518 
L 157.142857 477.184656 
L 160.285714 477.959172 
L 166.571429 478.321999 
L 169.714286 478.804932 
L 172.857143 478.830389 
L 176 478.421478 
L 179.142857 477.734937 
L 191.714286 474.026099 
L 198 472.408379 
L 204.285714 470.344204 
L 207.428571 469.656177 
L 213.714286 468.878946 
L 216.857143 468.157346 
L 220 467.819046 
L 226.285714 468.058814 
L 229.428571 468.44789 
L 235.714286 469.637012 
L 238.857143 469.814578 
L 242 470.26513 
L 245.142857 470.595968 
L 248.285714 470.49915 
L 251.428571 470.71898 
L 254.571429 471.348065 
L 257.714286 472.220365 
L 260.857143 472.888384 
L 267.142857 475.116243 
L 270.285714 475.653259 
L 273.428571 477.672676 
L 276.571429 479.509233 
L 279.714286 481.213789 
L 282.857143 482.651121 
L 289.142857 486.668459 
L 292.285714 488.942786 
L 301.714286 495.067665 
L 308 497.64433 
L 311.142857 498.512589 
L 314.285714 499.929796 
L 317.428571 501.214069 
L 326.857143 504.665692 
L 330 505.593582 
L 333.142857 506.123297 
L 336.285714 506.303961 
L 342.571429 505.781448 
L 345.714286 505.211573 
L 348.857143 504.925205 
L 352 504.478611 
L 355.142857 504.20117 
L 358.285714 504.08308 
L 361.428571 504.35368 
L 364.571429 505.092412 
L 370.857143 507.352731 
L 374 507.991484 
L 377.142857 508.880196 
L 380.285714 509.504018 
L 386.571429 510.22835 
L 389.714286 510.275185 
L 392.857143 510.015655 
L 396 510.021174 
L 399.142857 510.46385 
L 402.285714 510.756818 
L 405.428571 511.229185 
L 408.571429 511.409758 
L 414.857143 511.095637 
L 421.142857 510.547183 
L 424.285714 510.6176 
L 430.571429 511.015609 
L 433.714286 511.129058 
L 440 510.893339 
L 443.142857 510.447585 
L 452.571429 508.276177 
L 455.714286 507.82649 
L 458.857143 507.888571 
L 465.142857 507.011032 
L 471.428571 504.324282 
L 474.571429 503.217277 
L 484 499.001196 
L 487.142857 497.939216 
L 490.285714 497.083608 
L 493.428571 495.932101 
L 496.571429 495.030211 
L 502.857143 493.051933 
L 506 492.079259 
L 512.285714 490.740453 
L 515.428571 490.450011 
L 524.857143 490.682806 
L 528 490.467644 
L 534.285714 491.104854 
L 537.428571 491.500312 
L 540.571429 492.011699 
L 550 493.239679 
L 556.285714 493.529443 
L 559.428571 493.384326 
L 562.571429 493.010847 
L 565.714286 493.390009 
L 568.857143 493.605964 
L 572 493.974152 
L 575.142857 494.519978 
L 578.285714 494.934422 
L 581.428571 495.500804 
L 587.714286 497.116053 
L 590.857143 498.135081 
L 597.142857 499.786014 
L 600.285714 500.264145 
L 606.571429 501.702305 
L 609.714286 502.182063 
L 619.142857 502.389029 
L 634.857143 505.069161 
L 638 505.945369 
L 641.142857 506.231235 
L 647.428571 506.464358 
L 650.571429 506.600643 
L 660 505.966954 
L 663.142857 506.112642 
L 666.285714 506.599759 
L 672.571429 508.623659 
L 675.714286 509.970523 
L 685.142857 514.629929 
L 694.571429 518.639335 
L 697.714286 519.168862 
L 700.857143 519.342732 
L 710.285714 520.330789 
L 726 522.899772 
L 735.428571 524.082698 
L 741.714286 524.315572 
L 744.857143 524.558069 
L 748 525.014771 
L 754.285714 526.199564 
L 763.714286 527.296664 
L 770 527.591764 
L 776.285714 528.39615 
L 782.571429 529.51555 
L 785.714286 529.876741 
L 788.857143 530.431497 
L 788.857143 530.431497 
" clip-path="url(#p96ee60afc4)" style="fill: none; stroke: #000000; stroke-width: 1.5; stroke-linecap: square"/>
   </g>
   <g id="line2d_6">
    <path d="M 0 459 
L 3.142857 459 
L 6.285714 457.631903 
L 9.428571 458.550136 
L 15.714286 459.686669 
L 18.857143 459.437553 
L 22 459.680862 
L 34.571429 461.971753 
L 40.857143 462.161389 
L 44 462.577894 
L 47.142857 462.862893 
L 50.285714 463.357317 
L 53.428571 463.983597 
L 56.571429 464.864255 
L 59.714286 466.263282 
L 62.857143 467.389691 
L 69.142857 469.941266 
L 72.285714 471.025949 
L 75.428571 471.756559 
L 78.571429 472.100677 
L 84.857143 472.561776 
L 88 473.420342 
L 94.285714 472.996963 
L 100.571429 472.283512 
L 103.714286 472.079397 
L 110 472.167157 
L 119.428571 471.986846 
L 125.714286 472.340877 
L 128.857143 472.803194 
L 132 472.940209 
L 138.285714 472.987543 
L 147.714286 473.473222 
L 150.857143 473.821885 
L 157.142857 475.218237 
L 160.285714 475.750959 
L 166.571429 476.161892 
L 169.714286 476.533718 
L 172.857143 476.654005 
L 176 476.527877 
L 179.142857 476.235194 
L 188.571429 474.805845 
L 198 473.416006 
L 204.285714 472.184081 
L 207.428571 471.727808 
L 213.714286 471.117142 
L 216.857143 470.629329 
L 220 470.336656 
L 226.285714 470.24573 
L 229.428571 470.355073 
L 235.714286 470.832089 
L 238.857143 470.872143 
L 245.142857 471.200872 
L 248.285714 471.122612 
L 251.428571 471.210483 
L 254.571429 471.519034 
L 264 472.939951 
L 267.142857 473.569058 
L 270.285714 473.91825 
L 276.571429 476.117341 
L 286 479.323271 
L 289.142857 480.583952 
L 298.571429 484.841797 
L 301.714286 486.165502 
L 308 488.263745 
L 311.142857 489.110636 
L 317.428571 491.313354 
L 330 495.280672 
L 333.142857 495.989643 
L 336.285714 496.510829 
L 342.571429 497.047827 
L 345.714286 497.123662 
L 352 497.410012 
L 358.285714 497.787279 
L 361.428571 498.191738 
L 364.571429 498.828963 
L 370.857143 500.525081 
L 374 501.13843 
L 377.142857 501.879639 
L 380.285714 502.490689 
L 386.571429 503.440012 
L 389.714286 503.745295 
L 392.857143 503.88314 
L 396 504.139488 
L 405.428571 505.484202 
L 408.571429 505.820666 
L 414.857143 506.123003 
L 421.142857 506.249699 
L 427.428571 506.775992 
L 433.714286 507.253221 
L 440 507.455102 
L 443.142857 507.375192 
L 455.714286 506.438001 
L 458.857143 506.529679 
L 465.142857 506.186061 
L 477.714286 503.501305 
L 484 501.906318 
L 509.142857 496.68087 
L 512.285714 496.131643 
L 515.428571 495.762115 
L 524.857143 495.260062 
L 528 494.963002 
L 534.285714 494.933012 
L 543.714286 495.17035 
L 553.142857 495.38037 
L 556.285714 495.362622 
L 559.428571 495.212994 
L 562.571429 494.948149 
L 575.142857 495.472109 
L 581.428571 495.917463 
L 587.714286 496.739896 
L 594 497.752733 
L 597.142857 498.229786 
L 603.428571 498.977752 
L 606.571429 499.457836 
L 609.714286 499.806575 
L 619.142857 500.226665 
L 634.857143 502.156848 
L 638 502.733496 
L 644.285714 503.198983 
L 650.571429 503.621961 
L 663.142857 503.838235 
L 666.285714 504.186061 
L 672.571429 505.443203 
L 675.714286 506.26458 
L 688.285714 510.090202 
L 694.571429 511.967815 
L 697.714286 512.516398 
L 707.142857 513.722938 
L 713.428571 514.702743 
L 729.142857 517.245694 
L 738.571429 518.432909 
L 744.857143 519.111277 
L 751.142857 520.124912 
L 757.428571 521.067535 
L 763.714286 521.899547 
L 770 522.494484 
L 779.428571 523.846345 
L 788.857143 525.233096 
L 788.857143 525.233096 
" clip-path="url(#p96ee60afc4)" style="fill: none; stroke: #000000; stroke-width: 1.5; stroke-linecap: square"/>
   </g>
   <g id="line2d_7">
    <path d="M 0 459 
L 3.142857 459 
L 6.285714 457.646402 
L 9.428571 458.540442 
L 15.714286 459.655152 
L 18.857143 459.424224 
L 22 459.654897 
L 34.571429 461.792889 
L 40.857143 461.993632 
L 44 462.373323 
L 47.142857 462.637251 
L 53.428571 463.63517 
L 56.571429 464.404779 
L 59.714286 465.609581 
L 62.857143 466.587874 
L 69.142857 468.789689 
L 72.285714 469.733901 
L 75.428571 470.39102 
L 81.714286 470.98136 
L 84.857143 471.233284 
L 88 471.966419 
L 94.285714 471.766344 
L 100.571429 471.323924 
L 103.714286 471.210547 
L 110 471.346426 
L 119.428571 471.303131 
L 125.714286 471.609177 
L 128.857143 471.965616 
L 135.142857 472.136177 
L 141.428571 472.305976 
L 144.571429 472.393716 
L 150.857143 472.870343 
L 160.285714 474.286829 
L 166.571429 474.653869 
L 169.714286 474.947003 
L 172.857143 475.075106 
L 176 475.040553 
L 182.285714 474.645845 
L 191.714286 473.797968 
L 198 473.235362 
L 207.428571 472.168681 
L 213.714286 471.76112 
L 216.857143 471.441472 
L 220 471.23878 
L 226.285714 471.133883 
L 232.571429 471.298651 
L 235.714286 471.424774 
L 242 471.532549 
L 245.142857 471.603214 
L 251.428571 471.587235 
L 257.714286 472.020196 
L 260.857143 472.232361 
L 267.142857 472.969502 
L 270.285714 473.188593 
L 279.714286 475.153307 
L 282.857143 475.735176 
L 289.142857 477.307934 
L 301.714286 480.892148 
L 323.714286 485.960222 
L 330 487.422662 
L 336.285714 488.483447 
L 342.571429 489.15975 
L 355.142857 490.169546 
L 361.428571 490.855939 
L 367.714286 492.006824 
L 370.857143 492.651139 
L 386.571429 495.166565 
L 392.857143 495.78475 
L 396 496.108417 
L 405.428571 497.378499 
L 411.714286 498.010331 
L 430.571429 499.581611 
L 436.857143 500.086711 
L 443.142857 500.411616 
L 455.714286 500.49186 
L 458.857143 500.670371 
L 465.142857 500.743184 
L 477.714286 499.759091 
L 484 499.077035 
L 499.714286 497.581085 
L 512.285714 496.332832 
L 518.571429 496.040646 
L 534.285714 495.622162 
L 546.857143 495.726134 
L 553.142857 495.770278 
L 559.428571 495.665985 
L 562.571429 495.519167 
L 578.285714 495.82516 
L 584.571429 496.155521 
L 594 496.909522 
L 606.571429 497.86683 
L 612.857143 498.179369 
L 619.142857 498.396523 
L 634.857143 499.599004 
L 638 499.946209 
L 647.428571 500.473116 
L 653.714286 500.719415 
L 663.142857 500.991262 
L 666.285714 501.22831 
L 672.571429 501.997376 
L 678.857143 503.06084 
L 688.285714 504.808147 
L 697.714286 506.404397 
L 710.285714 507.783889 
L 735.428571 510.963131 
L 744.857143 511.91466 
L 766.857143 514.58362 
L 776.285714 515.653064 
L 788.857143 517.28287 
L 788.857143 517.28287 
" clip-path="url(#p96ee60afc4)" style="fill: none; stroke: #000000; stroke-width: 1.5; stroke-linecap: square"/>
   </g>
   <g id="line2d_8">
    <path d="M 0 459 
L 3.142857 459 
L 6.285714 457.653653 
L 9.428571 458.535723 
L 15.714286 459.639532 
L 18.857143 459.417332 
L 22 459.641805 
L 34.571429 461.704092 
L 40.857143 461.908112 
L 53.428571 463.460193 
L 56.571429 464.176085 
L 59.714286 465.288012 
L 62.857143 466.193609 
L 69.142857 468.222911 
L 72.285714 469.095263 
L 75.428571 469.710382 
L 81.714286 470.293664 
L 84.857143 470.54406 
L 88 471.213138 
L 94.285714 471.09719 
L 100.571429 470.764387 
L 103.714286 470.687581 
L 110 470.839095 
L 119.428571 470.850009 
L 125.714286 471.132247 
L 128.857143 471.440695 
L 135.142857 471.611561 
L 144.571429 471.864284 
L 150.857143 472.276108 
L 160.285714 473.455355 
L 166.571429 473.785992 
L 169.714286 474.036573 
L 172.857143 474.158319 
L 179.142857 474.060951 
L 194.857143 473.090522 
L 201.142857 472.594039 
L 207.428571 472.094358 
L 223.142857 471.351953 
L 229.428571 471.347046 
L 242 471.59569 
L 248.285714 471.603505 
L 254.571429 471.754317 
L 264 472.346634 
L 273.428571 473.255351 
L 286 475.153558 
L 292.285714 476.370949 
L 304.857143 478.830436 
L 330 483.17197 
L 336.285714 484.009426 
L 342.571429 484.594692 
L 358.285714 485.797184 
L 364.571429 486.528453 
L 377.142857 488.357962 
L 386.571429 489.499729 
L 414.857143 492.19966 
L 424.285714 492.887468 
L 433.714286 493.705189 
L 443.142857 494.294151 
L 468.285714 494.994161 
L 477.714286 494.757832 
L 487.142857 494.371546 
L 496.571429 494.021387 
L 512.285714 493.313655 
L 518.571429 493.218643 
L 537.428571 493.180536 
L 556.285714 493.435288 
L 568.857143 493.446082 
L 581.428571 493.769595 
L 594 494.425269 
L 609.714286 495.246813 
L 622.285714 495.69182 
L 650.571429 497.169153 
L 666.285714 497.703792 
L 675.714286 498.530829 
L 697.714286 501.064709 
L 710.285714 502.077568 
L 766.857143 507.147518 
L 776.285714 507.983269 
L 788.857143 509.218788 
L 788.857143 509.218788 
" clip-path="url(#p96ee60afc4)" style="fill: none; stroke: #000000; stroke-width: 1.5; stroke-linecap: square"/>
   </g>
   <g id="line2d_9">
    <path d="M 0 459 
L 3.142857 459 
L 6.285714 457.657279 
L 9.428571 458.533396 
L 15.714286 459.631759 
L 18.857143 459.413832 
L 22 459.635234 
L 34.571429 461.659911 
L 40.857143 461.865036 
L 53.428571 463.372753 
L 56.571429 464.062334 
L 59.714286 465.129049 
L 62.857143 465.998858 
L 69.142857 467.943123 
L 72.285714 468.779522 
L 75.428571 469.372713 
L 81.714286 469.948503 
L 84.857143 470.196204 
L 88 470.833253 
L 94.285714 470.752734 
L 103.714286 470.407117 
L 110 470.563943 
L 122.571429 470.705162 
L 125.714286 470.867436 
L 128.857143 471.153112 
L 135.142857 471.322127 
L 144.571429 471.569788 
L 150.857143 471.950184 
L 160.285714 473.01753 
L 176 473.678474 
L 182.285714 473.467358 
L 194.857143 472.807648 
L 201.142857 472.392172 
L 207.428571 471.972375 
L 226.285714 471.322326 
L 238.857143 471.495609 
L 248.285714 471.562187 
L 254.571429 471.687938 
L 270.285714 472.53496 
L 289.142857 474.959645 
L 304.857143 477.515941 
L 333.142857 481.495583 
L 339.428571 482.088672 
L 352 482.958849 
L 361.428571 483.679967 
L 367.714286 484.417821 
L 377.142857 485.540924 
L 386.571429 486.505602 
L 414.857143 488.843498 
L 427.428571 489.710349 
L 440 490.565478 
L 449.428571 490.910116 
L 468.285714 491.508221 
L 480.857143 491.360436 
L 518.571429 490.694803 
L 537.428571 490.800451 
L 556.285714 491.10335 
L 568.857143 491.190336 
L 581.428571 491.490043 
L 603.428571 492.405704 
L 612.857143 492.761179 
L 625.428571 493.197055 
L 650.571429 494.252261 
L 666.285714 494.722481 
L 675.714286 495.339078 
L 700.857143 497.372282 
L 722.857143 498.857784 
L 788.857143 503.441912 
L 788.857143 503.441912 
" clip-path="url(#p96ee60afc4)" style="fill: none; stroke: #000000; stroke-width: 1.5; stroke-linecap: square"/>
   </g>
  </g>
 </g>
 <defs>
  <clipPath id="p96ee60afc4">
   <rect x="0" y="0" width="792" height="612"/>
  </clipPath>
 </defs>
</svg>
