<?xml version="1.0" encoding="utf-8" standalone="no"?>
<!DOCTYPE svg PUBLIC "-//W3C//DTD SVG 1.1//EN"
  "http://www.w3.org/Graphics/SVG/1.1/DTD/svg11.dtd">
<svg xmlns:xlink="http://www.w3.org/1999/xlink" width="792pt" height="612pt" viewBox="0 0 792 612" xmlns="http://www.w3.org/2000/svg" version="1.1">
 <metadata>
  <rdf:RDF xmlns:dc="http://purl.org/dc/elements/1.1/" xmlns:cc="http://creativecommons.org/ns#" xmlns:rdf="http://www.w3.org/1999/02/22-rdf-syntax-ns#">
   <cc:Work>
    <dc:type rdf:resource="http://purl.org/dc/dcmitype/StillImage"/>
    <dc:date>2023-01-02T15:39:37.591564</dc:date>
    <dc:format>image/svg+xml</dc:format>
    <dc:creator>
     <cc:Agent>
      <dc:title>Matplotlib v3.6.2, https://matplotlib.org/</dc:title>
     </cc:Agent>
    </dc:creator>
   </cc:Work>
  </rdf:RDF>
 </metadata>
 <defs>
  <style type="text/css">*{stroke-linejoin: round; stroke-linecap: butt}</style>
 </defs>
 <g id="figure_1">
  <g id="patch_1">
   <path d="M 0 612 
L 792 612 
L 792 0 
L 0 0 
z
" style="fill: #ffffff"/>
  </g>
  <g id="axes_1">
   <g id="line2d_1">
    <path d="M 0 306 
L 3.155378 311.171339 
L 6.310757 311.673997 
L 9.466135 307.993282 
L 12.621514 307.257035 
L 15.776892 307.903497 
L 18.932271 299.051547 
L 22.087649 306.269366 
L 25.243028 313.181779 
L 28.398406 304.329946 
L 31.553785 311.781706 
L 34.709163 310.704559 
L 37.864542 314.312391 
L 41.01992 322.200683 
L 44.175299 302.58817 
L 47.330677 314.168833 
L 50.486056 308.011239 
L 53.641434 304.617263 
L 56.796813 298.208023 
L 59.952191 295.965219 
L 63.10757 303.090933 
L 66.262948 307.041545 
L 69.418327 327.084845 
L 72.573705 272.393496 
L 75.729084 305.461268 
L 78.884462 299.769523 
L 82.039841 306.39507 
L 85.195219 309.93253 
L 88.350598 316.250037 
L 91.505976 302.624081 
L 94.661355 303.593712 
L 97.816733 303.144801 
L 100.972112 312.194576 
L 104.12749 309.68116 
L 107.282869 310.309574 
L 110.438247 315.640119 
L 113.593625 294.279328 
L 116.749004 301.636563 
L 119.904382 306.413028 
L 123.059761 310.345483 
L 126.215139 304.365861 
L 129.370518 313.450992 
L 132.525896 310.058213 
L 135.681275 320.69608 
L 138.836653 308.585854 
L 141.992032 300.128538 
L 145.14741 292.468689 
L 148.302789 308.334462 
L 151.458167 312.589474 
L 154.613546 296.09079 
L 157.768924 295.714088 
L 160.924303 298.566955 
L 164.079681 298.800273 
L 167.23506 305.569014 
L 170.390438 299.895176 
L 173.545817 308.65768 
L 176.701195 305.569014 
L 179.856574 303.988761 
L 183.011952 298.42338 
L 186.167331 305.407395 
L 189.322709 311.422672 
L 192.478088 311.925316 
L 195.633466 304.99437 
L 198.788845 297.400504 
L 201.944223 313.702246 
L 205.099602 315.514538 
L 208.25498 307.75984 
L 211.410359 311.961218 
L 214.565737 311.997119 
L 217.721116 306.592605 
L 220.876494 297.472279 
L 224.031873 312.876659 
L 227.187251 304.060589 
L 230.342629 296.431641 
L 233.498008 313.39715 
L 236.653386 316.232099 
L 239.808765 313.09204 
L 242.964143 302.911373 
L 246.119522 317.989633 
L 249.2749 308.190808 
L 252.430279 294.458646 
L 255.585657 342.318152 
L 258.741036 305.60493 
L 261.896414 306.448943 
L 265.051793 302.983196 
L 268.207171 323.07801 
L 271.36255 308.944979 
L 274.517928 316.734326 
L 277.673307 305.874296 
L 280.828685 312.266377 
L 283.984064 303.19867 
L 287.139442 294.996648 
L 290.294821 310.040258 
L 293.450199 297.813222 
L 296.605578 320.821491 
L 299.760956 305.622888 
L 302.916335 305.515141 
L 306.071713 306.053873 
L 309.227092 312.212526 
L 312.38247 301.187721 
L 315.537849 298.279808 
L 318.693227 298.692587 
L 321.848606 296.91605 
L 325.003984 303.360277 
L 328.159363 299.123341 
L 331.314741 311.673997 
L 334.47012 301.618609 
L 337.625498 309.214318 
L 340.780876 309.268186 
L 343.936255 315.030124 
L 347.091633 317.666877 
L 350.247012 316.734326 
L 353.40239 308.442202 
L 356.557769 296.377821 
L 359.713147 313.199727 
L 362.868526 301.403163 
L 366.023904 301.582701 
L 369.179283 305.515141 
L 372.334661 299.733623 
L 375.49004 298.782325 
L 378.645418 311.817609 
L 381.800797 316.447346 
L 384.956175 303.270495 
L 388.111554 310.866139 
L 391.266932 299.98493 
L 394.422311 298.925909 
L 397.577689 304.509519 
L 400.733068 302.408616 
L 403.888446 307.418652 
L 407.043825 312.804864 
L 410.199203 310.542976 
L 413.354582 303.88102 
L 416.50996 305.586972 
L 419.665339 300.756851 
L 422.820717 305.622888 
L 425.976096 298.010619 
L 429.131474 297.813222 
L 432.286853 302.659992 
L 435.442231 309.968439 
L 438.59761 308.298548 
L 441.752988 317.362028 
L 444.908367 294.942844 
L 448.063745 303.647582 
L 451.219124 283.289372 
L 454.374502 305.209861 
L 457.52988 308.208764 
L 460.685259 296.377821 
L 463.840637 300.523472 
L 466.996016 309.178407 
L 470.151394 308.496071 
L 473.306773 308.837243 
L 476.462151 297.274901 
L 479.61753 309.68116 
L 482.772908 300.774804 
L 485.928287 306.664436 
L 489.083665 303.126845 
L 492.239044 310.812279 
L 495.394422 305.640845 
L 498.549801 313.307413 
L 501.705179 314.994239 
L 504.860558 305.281691 
L 508.015936 305.676761 
L 511.171315 299.751573 
L 514.326693 317.720672 
L 517.482072 307.723925 
L 520.63745 307.903497 
L 523.792829 309.519563 
L 526.948207 304.11446 
L 530.103586 306.55669 
L 533.258964 308.514028 
L 536.414343 299.949028 
L 539.569721 305.389437 
L 542.7251 299.805424 
L 545.880478 300.290099 
L 549.035857 323.274923 
L 552.191235 302.893417 
L 555.346614 310.076167 
L 558.501992 310.937952 
L 561.657371 303.970804 
L 564.812749 310.435253 
L 567.968127 312.553575 
L 571.123506 308.208764 
L 574.278884 312.338178 
L 577.434263 303.539842 
L 580.589641 307.328865 
L 583.74502 299.536173 
L 586.900398 311.763755 
L 590.055777 309.232274 
L 593.211155 300.828661 
L 596.366534 296.646928 
L 599.521912 306.251408 
L 602.677291 307.167248 
L 605.832669 316.303849 
L 608.988048 307.598225 
L 612.143426 308.621767 
L 615.298805 304.760922 
L 618.454183 306.664436 
L 621.609562 316.106534 
L 624.76494 293.633851 
L 627.920319 301.385209 
L 631.075697 308.316505 
L 634.231076 305.676761 
L 637.386454 298.692587 
L 640.541833 305.102115 
L 643.697211 304.599306 
L 646.85259 314.868642 
L 650.007968 314.438001 
L 653.163347 319.549233 
L 656.318725 307.741883 
L 659.474104 316.14241 
L 662.629482 314.384169 
L 665.784861 311.063622 
L 668.940239 302.983196 
L 672.095618 306.808097 
L 675.250996 306.987673 
L 678.406375 312.894608 
L 681.561753 287.186085 
L 687.87251 310.130031 
L 691.027888 305.191903 
L 694.183267 309.268186 
L 697.338645 310.076167 
L 700.494024 307.274993 
L 703.649402 309.016804 
L 706.804781 304.671135 
L 709.960159 304.329946 
L 713.115538 307.29295 
L 716.270916 305.030285 
L 719.426295 308.747461 
L 722.581673 298.60285 
L 725.737052 307.867582 
L 728.89243 308.460158 
L 732.047809 311.602191 
L 735.203187 310.955905 
L 738.358566 305.622888 
L 741.513944 302.606125 
L 744.669323 308.262635 
L 747.824701 303.378233 
L 750.98008 302.516348 
L 754.135458 307.634139 
L 757.290837 311.620143 
L 760.446215 307.059503 
L 763.601594 311.279054 
L 766.756972 305.515141 
L 769.912351 303.162757 
L 773.067729 311.350863 
L 776.223108 303.378233 
L 779.378486 309.968439 
L 782.533865 308.190808 
L 785.689243 301.762243 
L 788.844622 306.323239 
L 788.844622 306.323239 
" clip-path="url(#pc1ae25e0db)" style="fill: none; stroke: #000000; stroke-width: 1.5; stroke-linecap: square"/>
   </g>
   <g id="line2d_2">
    <path d="M 0 306 
L 3.155378 306 
L 6.310757 309.447741 
L 9.466135 310.719948 
L 12.621514 309.265791 
L 15.776892 308.229038 
L 18.932271 308.063684 
L 22.087649 303.521602 
L 25.243028 304.90085 
L 28.398406 309.055955 
L 31.553785 306.679576 
L 34.709163 309.231077 
L 37.864542 309.973157 
L 41.01992 312.156915 
L 44.175299 317.209841 
L 47.330677 309.908168 
L 50.486056 312.05428 
L 53.641434 310.022796 
L 56.796813 307.320696 
L 59.952191 302.737025 
L 63.10757 299.321413 
L 66.262948 301.183989 
L 69.418327 304.082842 
L 72.573705 315.645466 
L 75.729084 293.877193 
L 78.884462 299.661963 
L 82.039841 299.70624 
L 88.350598 306.526901 
L 91.505976 311.415632 
L 94.661355 307.011405 
L 97.816733 305.25641 
L 100.972112 304.261145 
L 104.12749 308.241439 
L 110.438247 309.652855 
L 113.593625 312.658315 
L 116.749004 303.423441 
L 119.904382 302.528036 
L 123.059761 304.475999 
L 126.215139 307.42499 
L 129.370518 305.88007 
L 132.525896 309.673485 
L 135.681275 309.865358 
L 138.836653 315.293549 
L 141.992032 311.968468 
L 145.14741 306.045563 
L 148.302789 299.226459 
L 154.613546 308.199328 
L 157.768924 302.109505 
L 160.924303 298.882903 
L 164.079681 298.681537 
L 167.23506 298.721725 
L 170.390438 302.155554 
L 173.545817 301.039871 
L 176.701195 304.849231 
L 179.856574 305.195354 
L 183.011952 304.607545 
L 186.167331 301.52032 
L 189.322709 303.47717 
L 192.478088 307.474918 
L 195.633466 309.712776 
L 198.788845 307.363653 
L 201.944223 302.359045 
L 205.099602 308.047293 
L 208.25498 311.804374 
L 211.410359 309.800579 
L 214.565737 310.893808 
L 217.721116 311.446608 
L 220.876494 309.00934 
L 224.031873 303.225076 
L 227.187251 308.081728 
L 230.342629 306.052254 
L 233.498008 301.203351 
L 236.653386 307.311823 
L 239.808765 311.781565 
L 242.964143 312.438979 
L 246.119522 307.668364 
L 249.2749 312.871169 
L 252.430279 310.522065 
L 255.585657 302.4691 
L 258.741036 322.553683 
L 261.896414 314.070241 
L 265.051793 310.241066 
L 268.207171 306.592394 
L 271.36255 314.881167 
L 274.517928 311.89589 
L 277.673307 314.332376 
L 280.828685 310.12651 
L 283.984064 311.137264 
L 287.139442 307.163445 
L 290.294821 301.055642 
L 293.450199 305.56169 
L 296.605578 301.637197 
L 299.760956 311.257792 
L 302.916335 308.418752 
L 306.071713 306.966264 
L 309.227092 306.497887 
L 312.38247 309.373173 
L 315.537849 305.292466 
L 318.693227 301.762524 
L 321.848606 300.229135 
L 325.003984 298.525501 
L 328.159363 300.938138 
L 331.314741 300.018157 
L 334.47012 305.857042 
L 337.625498 303.716944 
L 340.780876 306.481408 
L 343.936255 307.896384 
L 347.091633 311.496029 
L 350.247012 314.622998 
L 353.40239 315.704983 
L 356.557769 312.092716 
L 359.713147 304.204105 
L 362.868526 308.72521 
L 366.023904 305.048735 
L 369.179283 303.300563 
L 372.334661 304.38917 
L 375.49004 302.025998 
L 378.645418 300.368805 
L 381.800797 306.099859 
L 384.956175 311.314466 
L 388.111554 307.273232 
L 391.266932 309.088346 
L 394.422311 304.53318 
L 397.577689 301.716266 
L 400.733068 303.122198 
L 403.888446 302.772514 
L 407.043825 305.086904 
L 410.199203 308.939205 
L 413.354582 309.755375 
L 416.50996 306.804576 
L 419.665339 306.206761 
L 422.820717 303.485197 
L 425.976096 304.556208 
L 429.131474 301.274249 
L 432.286853 299.524699 
L 435.442231 301.072327 
L 438.59761 305.519155 
L 441.752988 306.917532 
L 444.908367 312.164659 
L 448.063745 303.540405 
L 451.219124 303.59012 
L 454.374502 293.396993 
L 457.52988 299.31543 
L 460.685259 303.772504 
L 463.840637 300.047652 
L 466.996016 300.270318 
L 470.151394 304.708036 
L 473.306773 306.628661 
L 476.462151 307.74315 
L 479.61753 302.5355 
L 482.772908 306.117113 
L 485.928287 303.431187 
L 489.083665 305.067961 
L 492.239044 304.102489 
L 495.394422 307.460764 
L 498.549801 306.545211 
L 501.705179 309.935558 
L 504.860558 312.500078 
L 508.015936 308.882661 
L 511.171315 307.289359 
L 514.326693 303.506534 
L 517.482072 310.644714 
L 520.63745 309.178336 
L 523.792829 308.545364 
L 526.948207 309.025042 
L 530.103586 306.54845 
L 533.258964 306.55507 
L 536.414343 307.540128 
L 539.569721 303.744618 
L 542.7251 304.542828 
L 545.880478 302.158371 
L 549.035857 301.209265 
L 552.191235 312.277218 
L 555.346614 307.583296 
L 558.501992 308.836679 
L 561.657371 309.892114 
L 564.812749 306.939434 
L 567.968127 308.697325 
L 571.123506 310.650628 
L 574.278884 309.445277 
L 577.434263 310.870363 
L 580.589641 307.206543 
L 583.74502 307.262317 
L 586.900398 303.376473 
L 590.055777 307.58569 
L 593.211155 308.406641 
L 596.366534 304.594447 
L 599.521912 300.597111 
L 602.677291 303.412104 
L 605.832669 305.296762 
L 608.988048 310.819461 
L 612.143426 309.22474 
L 615.298805 308.917095 
L 618.454183 306.83028 
L 621.609562 306.758801 
L 624.76494 311.472093 
L 627.920319 302.52529 
L 631.075697 301.9439 
L 634.231076 305.114439 
L 637.386454 305.391832 
L 640.541833 302.022266 
L 643.697211 303.562798 
L 646.85259 304.076997 
L 650.007968 309.471471 
L 653.163347 311.995923 
L 656.318725 315.809666 
L 659.474104 311.775652 
L 662.629482 313.979951 
L 665.784861 314.212816 
L 668.940239 312.65008 
L 672.095618 307.813922 
L 675.250996 307.295204 
L 678.406375 307.126826 
L 681.561753 309.998012 
L 684.717131 298.541407 
L 687.87251 298.501713 
L 691.027888 304.306919 
L 694.183267 304.737894 
L 697.338645 307.015419 
L 700.494024 308.552265 
L 703.649402 307.9142 
L 706.804781 308.457905 
L 709.960159 306.598872 
L 713.115538 305.475775 
L 716.270916 306.378803 
L 719.426295 305.704225 
L 722.581673 307.224853 
L 725.737052 302.890741 
L 728.89243 305.380283 
L 732.047809 306.919152 
L 735.203187 309.274452 
L 738.358566 310.1282 
L 741.513944 307.872371 
L 744.669323 305.234438 
L 747.824701 306.747604 
L 750.98008 305.072256 
L 754.135458 303.783771 
L 757.290837 305.707324 
L 760.446215 308.664017 
L 763.601594 307.854132 
L 766.756972 309.577795 
L 769.912351 307.55224 
L 773.067729 305.347466 
L 776.223108 308.365023 
L 779.378486 305.87331 
L 782.533865 307.925538 
L 785.689243 308.051448 
L 788.844622 304.896343 
L 788.844622 304.896343 
" clip-path="url(#pc1ae25e0db)" style="fill: none; stroke: #000000; stroke-width: 1.5; stroke-linecap: square"/>
   </g>
   <g id="line2d_3">
    <path d="M 0 306 
L 3.155378 306 
L 6.310757 309.029489 
L 9.466135 310.227748 
L 12.621514 309.355175 
L 15.776892 308.608707 
L 18.932271 308.372651 
L 22.087649 305.377507 
L 25.243028 305.656141 
L 28.398406 307.962644 
L 31.553785 306.864341 
L 34.709163 308.337311 
L 37.864542 309.041709 
L 41.01992 310.603032 
L 44.175299 314.029529 
L 47.330677 310.660716 
L 50.486056 311.692418 
L 53.641434 310.616658 
L 56.796813 308.85211 
L 59.952191 305.718624 
L 63.10757 302.847156 
L 66.262948 302.913771 
L 69.418327 304.121729 
L 72.573705 310.889078 
L 75.729084 299.536309 
L 78.884462 301.262519 
L 82.039841 300.819966 
L 85.195219 302.446498 
L 88.350598 304.638179 
L 91.505976 308.042528 
L 94.661355 306.432979 
L 100.972112 304.869986 
L 104.12749 307.020355 
L 110.438247 308.552894 
L 113.593625 310.651918 
L 116.749004 305.844943 
L 119.904382 304.606052 
L 123.059761 305.111517 
L 126.215139 306.688341 
L 129.370518 306.00684 
L 132.525896 308.203292 
L 135.681275 308.750816 
L 138.836653 312.26437 
L 141.992032 311.178293 
L 145.14741 307.93914 
L 148.302789 303.392657 
L 151.458167 304.846013 
L 154.613546 307.114764 
L 157.768924 303.869325 
L 160.924303 301.463115 
L 164.079681 300.595133 
L 167.23506 300.074582 
L 170.390438 301.688143 
L 173.545817 301.155473 
L 176.701195 303.350679 
L 179.856574 304.001778 
L 183.011952 303.987096 
L 186.167331 302.343855 
L 189.322709 303.223525 
L 192.478088 305.628371 
L 195.633466 307.48646 
L 198.788845 306.770946 
L 201.944223 304.013212 
L 205.099602 306.852798 
L 208.25498 309.412839 
L 211.410359 308.942542 
L 214.565737 309.842162 
L 217.721116 310.48854 
L 220.876494 309.348717 
L 224.031873 305.866852 
L 227.187251 307.925138 
L 230.342629 306.791514 
L 233.498008 303.747622 
L 239.808765 309.428577 
L 242.964143 310.503647 
L 246.119522 308.269725 
L 249.2749 311.1329 
L 252.430279 310.283649 
L 255.585657 305.625096 
L 258.741036 316.449533 
L 261.896414 313.272252 
L 265.051793 311.267867 
L 268.207171 308.831247 
L 271.36255 313.027008 
L 274.517928 311.844779 
L 277.673307 313.281747 
L 280.828685 311.114734 
L 283.984064 311.470246 
L 287.139442 309.036131 
L 290.294821 304.898346 
L 293.450199 306.400936 
L 296.605578 303.879256 
L 299.760956 308.848075 
L 302.916335 307.900523 
L 306.071713 307.214578 
L 309.227092 306.832767 
L 312.38247 308.416254 
L 315.537849 306.292941 
L 318.693227 303.940096 
L 325.003984 300.761792 
L 328.159363 301.507445 
L 331.314741 300.801335 
L 334.47012 303.985049 
L 337.625498 303.290082 
L 340.780876 305.041575 
L 343.936255 306.278668 
L 350.247012 311.438667 
L 353.40239 313.00297 
L 356.557769 311.670745 
L 359.713147 307.179957 
L 362.868526 308.944544 
L 366.023904 306.735934 
L 369.179283 305.230295 
L 372.334661 305.321562 
L 375.49004 303.687918 
L 378.645418 302.245608 
L 381.800797 305.06384 
L 384.956175 308.404617 
L 388.111554 306.902776 
L 391.266932 308.065606 
L 394.422311 305.687963 
L 397.577689 303.688576 
L 400.733068 303.913903 
L 403.888446 303.456542 
L 407.043825 304.615813 
L 410.199203 307.033521 
L 413.354582 308.058434 
L 416.50996 306.837754 
L 419.665339 306.476009 
L 422.820717 304.795297 
L 425.976096 305.044456 
L 429.131474 302.98297 
L 432.286853 301.452391 
L 435.442231 301.790238 
L 438.59761 304.19317 
L 441.752988 305.392656 
L 444.908367 308.919812 
L 448.063745 304.820132 
L 451.219124 304.475704 
L 454.374502 298.237766 
L 457.52988 300.276798 
L 460.685259 302.594416 
L 463.840637 300.756828 
L 466.996016 300.684623 
L 470.151394 303.176256 
L 473.306773 304.74325 
L 476.462151 305.946064 
L 479.61753 303.404863 
L 482.772908 305.256791 
L 485.928287 303.941763 
L 489.083665 304.735406 
L 492.239044 304.258318 
L 495.394422 306.170503 
L 498.549801 306.027663 
L 504.860558 310.206694 
L 508.015936 308.764388 
L 511.171315 307.857165 
L 514.326693 305.486732 
L 517.482072 309.091305 
L 520.63745 308.689148 
L 523.792829 308.458359 
L 526.948207 308.769969 
L 530.103586 307.414297 
L 533.258964 307.159523 
L 536.414343 307.565145 
L 539.569721 305.326501 
L 542.7251 305.347534 
L 545.880478 303.711438 
L 549.035857 302.703107 
L 552.191235 308.745142 
L 555.346614 307.017327 
L 561.657371 308.809194 
L 564.812749 307.396947 
L 567.968127 308.278528 
L 571.123506 309.536374 
L 574.278884 309.147889 
L 577.434263 310.085642 
L 580.589641 308.167882 
L 583.74502 307.923029 
L 586.900398 305.455999 
L 590.055777 307.317261 
L 593.211155 307.882587 
L 596.366534 305.817588 
L 599.521912 303.126608 
L 605.832669 304.948283 
L 608.988048 308.282505 
L 612.143426 308.07825 
L 615.298805 308.242786 
L 618.454183 307.216473 
L 621.609562 307.048021 
L 624.76494 309.711171 
L 627.920319 304.978899 
L 631.075697 303.923783 
L 634.231076 305.211508 
L 637.386454 305.354832 
L 640.541833 303.388145 
L 643.697211 303.885399 
L 646.85259 304.098827 
L 650.007968 307.274872 
L 653.163347 309.382803 
L 656.318725 312.376485 
L 659.474104 311.009413 
L 662.629482 312.523068 
L 665.784861 313.074845 
L 668.940239 312.493064 
L 672.095618 309.70394 
L 675.250996 308.845129 
L 678.406375 308.316453 
L 681.561753 309.670782 
L 684.717131 303.054125 
L 687.87251 301.720921 
L 691.027888 304.196928 
L 694.183267 304.48845 
L 697.338645 305.893793 
L 700.494024 307.11334 
L 703.649402 307.152457 
L 706.804781 307.68642 
L 709.960159 306.799744 
L 713.115538 306.062781 
L 716.270916 306.414944 
L 719.426295 306.002456 
L 722.581673 306.81309 
L 725.737052 304.398534 
L 728.89243 305.415602 
L 732.047809 306.302252 
L 735.203187 307.882801 
L 738.358566 308.797231 
L 741.513944 307.862342 
L 744.669323 306.319837 
L 747.824701 306.887724 
L 754.135458 304.869581 
L 757.290837 305.677714 
L 760.446215 307.426368 
L 763.601594 307.322051 
L 766.756972 308.485714 
L 769.912351 307.616234 
L 773.067729 306.305413 
L 776.223108 307.797975 
L 779.378486 306.498301 
L 782.533865 307.516467 
L 785.689243 307.71006 
L 788.844622 305.957357 
L 788.844622 305.957357 
" clip-path="url(#pc1ae25e0db)" style="fill: none; stroke: #000000; stroke-width: 1.5; stroke-linecap: square"/>
   </g>
   <g id="line2d_4">
    <path d="M 0 306 
L 3.155378 306 
L 6.310757 308.80933 
L 9.466135 309.933696 
L 15.776892 308.750972 
L 18.932271 308.542395 
L 22.087649 306.39327 
L 25.243028 306.366985 
L 28.398406 307.7401 
L 31.553785 307.081031 
L 34.709163 307.959617 
L 37.864542 308.458774 
L 41.01992 309.499753 
L 44.175299 311.718552 
L 47.330677 310.149508 
L 50.486056 310.831769 
L 53.641434 310.358164 
L 56.796813 309.402636 
L 63.10757 305.648966 
L 66.262948 305.230978 
L 69.418327 305.525554 
L 72.573705 309.025985 
L 75.729084 303.083284 
L 78.884462 303.466651 
L 82.039841 302.871775 
L 85.195219 303.437569 
L 88.350598 304.479074 
L 91.505976 306.364865 
L 94.661355 305.766365 
L 100.972112 305.055794 
L 104.12749 306.195597 
L 110.438247 307.314905 
L 113.593625 308.644699 
L 116.749004 306.350158 
L 119.904382 305.596251 
L 123.059761 305.730797 
L 126.215139 306.4676 
L 129.370518 306.127702 
L 132.525896 307.298782 
L 135.681275 307.736767 
L 138.836653 309.806501 
L 141.992032 309.608725 
L 145.14741 308.086605 
L 148.302789 305.594042 
L 151.458167 306.026418 
L 154.613546 307.073639 
L 157.768924 305.320359 
L 160.924303 303.78983 
L 164.079681 302.960312 
L 167.23506 302.295642 
L 170.390438 302.815492 
L 173.545817 302.333823 
L 176.701195 303.362611 
L 179.856574 303.713713 
L 183.011952 303.760106 
L 186.167331 302.905865 
L 189.322709 303.301025 
L 195.633466 305.763186 
L 198.788845 305.641738 
L 201.944223 304.326599 
L 208.25498 307.366123 
L 211.410359 307.427174 
L 217.721116 308.770159 
L 220.876494 308.426807 
L 224.031873 306.678013 
L 227.187251 307.665988 
L 230.342629 307.092171 
L 233.498008 305.384929 
L 236.653386 306.662014 
L 239.808765 308.18243 
L 242.964143 308.966519 
L 246.119522 308.004893 
L 249.2749 309.610267 
L 252.430279 309.384345 
L 255.585657 306.997538 
L 258.741036 312.672436 
L 261.896414 311.554423 
L 265.051793 310.747174 
L 268.207171 309.514658 
L 271.36255 311.685873 
L 274.517928 311.255482 
L 277.673307 312.132543 
L 280.828685 311.137231 
L 283.984064 311.322056 
L 287.139442 310.032782 
L 290.294821 307.633406 
L 293.450199 308.015504 
L 296.605578 306.383191 
L 299.760956 308.692036 
L 306.071713 307.775195 
L 309.227092 307.495427 
L 312.38247 308.248818 
L 315.537849 307.118616 
L 318.693227 305.703513 
L 325.003984 303.362369 
L 328.159363 303.356098 
L 331.314741 302.679461 
L 334.47012 304.120054 
L 337.625498 303.71469 
L 340.780876 304.585313 
L 343.936255 305.328 
L 347.091633 306.87962 
L 350.247012 308.596549 
L 353.40239 309.897175 
L 356.557769 309.674421 
L 359.713147 307.529742 
L 362.868526 308.436767 
L 366.023904 307.314527 
L 369.179283 306.401657 
L 372.334661 306.24964 
L 378.645418 304.173441 
L 381.800797 305.393459 
L 384.956175 307.155423 
L 388.111554 306.537354 
L 391.266932 307.236043 
L 397.577689 304.93887 
L 400.733068 304.860374 
L 403.888446 304.468267 
L 407.043825 304.938866 
L 410.199203 306.194763 
L 413.354582 306.885588 
L 416.50996 306.409227 
L 419.665339 306.282964 
L 422.820717 305.404947 
L 425.976096 305.445056 
L 429.131474 304.258601 
L 432.286853 303.232049 
L 435.442231 303.135407 
L 438.59761 304.227762 
L 441.752988 304.874863 
L 444.908367 306.867493 
L 448.063745 304.956941 
L 451.219124 304.739863 
L 454.374502 301.299824 
L 457.52988 301.919839 
L 460.685259 302.927719 
L 463.840637 301.874766 
L 466.996016 301.65921 
L 470.151394 302.860164 
L 476.462151 304.572362 
L 479.61753 303.410045 
L 482.772908 304.40646 
L 485.928287 303.818813 
L 489.083665 304.273666 
L 492.239044 304.08637 
L 495.394422 305.163287 
L 498.549801 305.243458 
L 504.860558 307.88676 
L 508.015936 307.47096 
L 511.171315 307.181052 
L 514.326693 305.992128 
L 517.482072 307.867709 
L 523.792829 307.859747 
L 526.948207 308.126271 
L 530.103586 307.4918 
L 533.258964 307.348478 
L 536.414343 307.537578 
L 539.569721 306.323845 
L 542.7251 306.173363 
L 545.880478 305.14911 
L 549.035857 304.379271 
L 552.191235 307.400798 
L 555.346614 306.695905 
L 561.657371 307.82741 
L 564.812749 307.218557 
L 567.968127 307.736566 
L 571.123506 308.505195 
L 574.278884 308.457853 
L 577.434263 309.077496 
L 580.589641 308.200387 
L 583.74502 308.060259 
L 586.900398 306.703145 
L 590.055777 307.511585 
L 593.211155 307.789172 
L 596.366534 306.675438 
L 599.521912 305.073792 
L 602.677291 305.256751 
L 605.832669 305.555833 
L 608.988048 307.273373 
L 612.143426 307.326257 
L 615.298805 307.537917 
L 618.454183 307.088002 
L 621.609562 307.019951 
L 624.76494 308.471314 
L 627.920319 306.099677 
L 631.075697 305.347831 
L 634.231076 305.821262 
L 637.386454 305.796501 
L 640.541833 304.665246 
L 646.85259 304.716043 
L 650.007968 306.340845 
L 653.163347 307.623933 
L 656.318725 309.532955 
L 659.474104 309.246546 
L 662.629482 310.347353 
L 665.784861 310.996259 
L 668.940239 311.007369 
L 672.095618 309.724899 
L 678.406375 308.895129 
L 681.561753 309.537399 
L 684.717131 305.964994 
L 687.87251 304.781372 
L 691.027888 305.631378 
L 694.183267 305.558934 
L 700.494024 306.786764 
L 703.649402 306.865082 
L 706.804781 307.208594 
L 713.115538 306.402961 
L 716.270916 306.543733 
L 719.426295 306.303106 
L 722.581673 306.693322 
L 725.737052 305.394947 
L 732.047809 306.225343 
L 735.203187 307.082964 
L 738.358566 307.702512 
L 741.513944 307.375967 
L 744.669323 306.615495 
L 747.824701 306.879852 
L 754.135458 305.703622 
L 757.290837 306.003337 
L 760.446215 306.899509 
L 763.601594 306.919295 
L 766.756972 307.611081 
L 769.912351 307.274152 
L 773.067729 306.620119 
L 776.223108 307.37571 
L 779.378486 306.737441 
L 782.533865 307.249708 
L 785.689243 307.412563 
L 788.844622 306.515558 
L 788.844622 306.515558 
" clip-path="url(#pc1ae25e0db)" style="fill: none; stroke: #000000; stroke-width: 1.5; stroke-linecap: square"/>
   </g>
   <g id="line2d_5">
    <path d="M 0 306 
L 3.155378 306 
L 6.310757 308.697802 
L 9.466135 309.777043 
L 15.776892 308.796055 
L 18.932271 308.613327 
L 22.087649 306.868033 
L 25.243028 306.768659 
L 28.398406 307.751789 
L 31.553785 307.261764 
L 34.709163 307.872367 
L 37.864542 308.236014 
L 41.01992 308.982466 
L 44.175299 310.545214 
L 47.330677 309.637395 
L 50.486056 310.138964 
L 53.641434 309.909862 
L 56.796813 309.353728 
L 63.10757 306.973079 
L 66.262948 306.588535 
L 69.418327 306.632698 
L 72.573705 308.601201 
L 75.729084 305.153958 
L 78.884462 305.182765 
L 82.039841 304.680643 
L 85.195219 304.83811 
L 88.350598 305.301938 
L 91.505976 306.291075 
L 94.661355 305.96228 
L 100.972112 305.520557 
L 104.12749 306.108224 
L 110.438247 306.760309 
L 113.593625 307.53164 
L 116.749004 306.38481 
L 119.904382 305.975489 
L 123.059761 306.013084 
L 126.215139 306.384279 
L 129.370518 306.211815 
L 132.525896 306.828976 
L 135.681275 307.103625 
L 138.836653 308.258158 
L 141.992032 308.285919 
L 145.14741 307.596034 
L 148.302789 306.31803 
L 151.458167 306.488045 
L 154.613546 307.001883 
L 160.924303 305.212484 
L 167.23506 304.163694 
L 170.390438 304.281421 
L 173.545817 303.9142 
L 176.701195 304.310983 
L 179.856574 304.416146 
L 183.011952 304.38044 
L 186.167331 303.882922 
L 189.322709 304.010147 
L 195.633466 305.237006 
L 198.788845 305.216782 
L 201.944223 304.565339 
L 208.25498 306.17355 
L 211.410359 306.303933 
L 217.721116 307.209849 
L 220.876494 307.158194 
L 224.031873 306.35361 
L 227.187251 306.897241 
L 230.342629 306.65884 
L 233.498008 305.807194 
L 236.653386 306.437775 
L 239.808765 307.252775 
L 242.964143 307.737106 
L 246.119522 307.330306 
L 249.2749 308.220481 
L 252.430279 308.216072 
L 255.585657 307.069425 
L 258.741036 310.0213 
L 268.207171 308.862266 
L 271.36255 310.048656 
L 274.517928 309.951145 
L 277.673307 310.528835 
L 280.828685 310.142712 
L 283.984064 310.323053 
L 287.139442 309.73079 
L 290.294821 308.502772 
L 293.450199 308.628361 
L 296.605578 307.729061 
L 299.760956 308.822191 
L 309.227092 308.114989 
L 312.38247 308.455737 
L 315.537849 307.847809 
L 325.003984 305.572675 
L 328.159363 305.386777 
L 331.314741 304.865138 
L 334.47012 305.429717 
L 337.625498 305.110641 
L 343.936255 305.764831 
L 347.091633 306.538881 
L 350.247012 307.471124 
L 353.40239 308.243004 
L 356.557769 308.258186 
L 359.713147 307.272025 
L 362.868526 307.76979 
L 369.179283 306.773454 
L 372.334661 306.669002 
L 378.645418 305.483165 
L 381.800797 306.01099 
L 384.956175 306.881556 
L 388.111554 306.583426 
L 391.266932 306.940683 
L 397.577689 305.738296 
L 400.733068 305.636154 
L 403.888446 305.369899 
L 407.043825 305.537892 
L 410.199203 306.140232 
L 413.354582 306.506575 
L 416.50996 306.286032 
L 419.665339 306.225926 
L 422.820717 305.770073 
L 425.976096 305.760511 
L 432.286853 304.504331 
L 435.442231 304.353281 
L 438.59761 304.81821 
L 441.752988 305.104481 
L 444.908367 306.12363 
L 448.063745 305.192677 
L 451.219124 305.059768 
L 454.374502 303.241395 
L 457.52988 303.408264 
L 460.685259 303.795513 
L 463.840637 303.176652 
L 466.996016 302.954498 
L 473.306773 303.885173 
L 476.462151 304.296133 
L 479.61753 303.706894 
L 482.772908 304.203969 
L 485.928287 303.915593 
L 489.083665 304.144857 
L 492.239044 304.063012 
L 495.394422 304.623443 
L 498.549801 304.710431 
L 504.860558 306.219361 
L 511.171315 306.102771 
L 514.326693 305.571519 
L 517.482072 306.585708 
L 523.792829 306.787526 
L 526.948207 307.018388 
L 530.103586 306.777619 
L 533.258964 306.761702 
L 536.414343 306.906113 
L 539.569721 306.328097 
L 542.7251 306.248947 
L 549.035857 305.256244 
L 552.191235 306.755074 
L 555.346614 306.430058 
L 561.657371 307.086969 
L 564.812749 306.825336 
L 567.968127 307.127907 
L 571.123506 307.58186 
L 574.278884 307.634768 
L 577.434263 308.029295 
L 580.589641 307.658244 
L 583.74502 307.629446 
L 586.900398 306.952162 
L 590.055777 307.35432 
L 593.211155 307.509657 
L 596.366534 306.955403 
L 599.521912 306.09886 
L 605.832669 306.201211 
L 608.988048 307.042902 
L 615.298805 307.214029 
L 618.454183 307.010719 
L 621.609562 306.98233 
L 624.76494 307.744889 
L 627.920319 306.569283 
L 631.075697 306.140096 
L 634.231076 306.324152 
L 637.386454 306.271403 
L 640.541833 305.638606 
L 646.85259 305.506407 
L 653.163347 306.970056 
L 656.318725 308.026604 
L 659.474104 308.003797 
L 662.629482 308.682119 
L 665.784861 309.161353 
L 668.940239 309.322675 
L 672.095618 308.794542 
L 678.406375 308.4923 
L 681.561753 308.862823 
L 684.717131 307.054512 
L 687.87251 306.34625 
L 691.027888 306.661437 
L 694.183267 306.540144 
L 700.494024 307.042253 
L 703.649402 307.059605 
L 706.804781 307.220104 
L 713.115538 306.785618 
L 716.270916 306.830179 
L 719.426295 306.676664 
L 722.581673 306.84887 
L 725.737052 306.161338 
L 732.047809 306.482916 
L 738.358566 307.24615 
L 741.513944 307.113274 
L 744.669323 306.738285 
L 747.824701 306.867555 
L 754.135458 306.235002 
L 757.290837 306.352669 
L 760.446215 306.790402 
L 763.601594 306.811474 
L 766.756972 307.184683 
L 769.912351 307.044517 
L 773.067729 306.719286 
L 776.223108 307.104753 
L 779.378486 306.792547 
L 782.533865 307.058242 
L 785.689243 307.152522 
L 788.844622 306.705857 
L 788.844622 306.705857 
" clip-path="url(#pc1ae25e0db)" style="fill: none; stroke: #000000; stroke-width: 1.5; stroke-linecap: square"/>
   </g>
   <g id="line2d_6">
    <path d="M 0 306 
L 3.155378 306 
L 6.310757 308.641854 
L 9.466135 309.696746 
L 15.776892 308.81056 
L 18.932271 308.642554 
L 22.087649 307.087948 
L 25.243028 306.969457 
L 28.398406 307.78536 
L 31.553785 307.368682 
L 34.709163 307.862313 
L 37.864542 308.159581 
L 41.01992 308.765535 
L 44.175299 310.019366 
L 47.330677 309.360123 
L 50.486056 309.767967 
L 53.641434 309.625075 
L 56.796813 309.233022 
L 63.10757 307.489803 
L 66.262948 307.177607 
L 69.418327 307.168219 
L 72.573705 308.509048 
L 75.729084 306.131563 
L 78.884462 306.088599 
L 82.039841 305.692108 
L 85.195219 305.73533 
L 88.350598 305.988578 
L 91.505976 306.597011 
L 97.816733 306.2064 
L 100.972112 306.033326 
L 104.12749 306.376809 
L 110.438247 306.762358 
L 113.593625 307.239099 
L 116.749004 306.550858 
L 119.904382 306.292736 
L 123.059761 306.298991 
L 126.215139 306.507403 
L 129.370518 306.398106 
L 132.525896 306.755049 
L 135.681275 306.920837 
L 138.836653 307.607388 
L 141.992032 307.655758 
L 145.14741 307.286233 
L 148.302789 306.563279 
L 151.458167 306.649101 
L 154.613546 306.935246 
L 160.924303 305.905945 
L 167.23506 305.239538 
L 170.390438 305.254997 
L 173.545817 305.004615 
L 176.701195 305.174511 
L 183.011952 305.137234 
L 186.167331 304.828569 
L 189.322709 304.855079 
L 195.633466 305.462955 
L 198.788845 305.441701 
L 201.944223 305.077952 
L 208.25498 305.918963 
L 211.410359 306.001544 
L 217.721116 306.524054 
L 220.876494 306.527108 
L 224.031873 306.124541 
L 227.187251 306.424096 
L 230.342629 306.319462 
L 233.498008 305.882406 
L 242.964143 306.938255 
L 246.119522 306.761502 
L 249.2749 307.25386 
L 252.430279 307.294866 
L 255.585657 306.733631 
L 258.741036 308.294271 
L 268.207171 307.879188 
L 271.36255 308.540216 
L 274.517928 308.557782 
L 277.673307 308.912434 
L 280.828685 308.78085 
L 283.984064 308.931703 
L 287.139442 308.683845 
L 290.294821 308.092394 
L 293.450199 308.176478 
L 296.605578 307.729426 
L 299.760956 308.294168 
L 309.227092 307.977986 
L 312.38247 308.160042 
L 315.537849 307.860497 
L 325.003984 306.637475 
L 328.159363 306.496978 
L 331.314741 306.180968 
L 334.47012 306.416266 
L 337.625498 306.210855 
L 343.936255 306.464683 
L 350.247012 307.294478 
L 353.40239 307.698026 
L 356.557769 307.729815 
L 359.713147 307.24493 
L 362.868526 307.499189 
L 369.179283 306.997681 
L 372.334661 306.934446 
L 378.645418 306.29284 
L 381.800797 306.528348 
L 384.956175 306.951192 
L 388.111554 306.79438 
L 391.266932 306.967831 
L 397.577689 306.340626 
L 407.043825 306.154828 
L 413.354582 306.610989 
L 425.976096 306.189054 
L 432.286853 305.497881 
L 435.442231 305.377281 
L 441.752988 305.686852 
L 444.908367 306.18257 
L 448.063745 305.701303 
L 451.219124 305.614406 
L 454.374502 304.660991 
L 457.52988 304.683796 
L 460.685259 304.833839 
L 463.840637 304.4749 
L 466.996016 304.308111 
L 476.462151 304.857627 
L 479.61753 304.540209 
L 482.772908 304.758874 
L 485.928287 304.590112 
L 489.083665 304.6781 
L 492.239044 304.611198 
L 495.394422 304.873212 
L 498.549801 304.906258 
L 504.860558 305.678716 
L 511.171315 305.660747 
L 514.326693 305.408426 
L 517.482072 305.931013 
L 530.103586 306.14551 
L 536.414343 306.262151 
L 539.569721 305.992781 
L 542.7251 305.964655 
L 549.035857 305.472579 
L 552.191235 306.233245 
L 555.346614 306.090738 
L 561.657371 306.460146 
L 564.812749 306.355979 
L 577.434263 307.084052 
L 580.589641 306.932937 
L 583.74502 306.950016 
L 586.900398 306.634914 
L 590.055777 306.854606 
L 593.211155 306.956051 
L 596.366534 306.694489 
L 599.521912 306.265842 
L 605.832669 306.305298 
L 608.988048 306.7298 
L 618.454183 306.754636 
L 621.609562 306.749925 
L 624.76494 307.148349 
L 627.920319 306.574459 
L 631.075697 306.352526 
L 634.231076 306.436502 
L 637.386454 306.405829 
L 640.541833 306.076309 
L 646.85259 305.970952 
L 653.163347 306.69267 
L 656.318725 307.240006 
L 659.474104 307.263494 
L 665.784861 307.923351 
L 668.940239 308.057268 
L 672.095618 307.842148 
L 678.406375 307.761022 
L 681.561753 307.97807 
L 684.717131 307.092462 
L 687.87251 306.727143 
L 691.027888 306.872576 
L 694.183267 306.803017 
L 706.804781 307.135245 
L 716.270916 306.931018 
L 719.426295 306.851073 
L 722.581673 306.933216 
L 725.737052 306.579962 
L 732.047809 306.714547 
L 738.358566 307.094709 
L 741.513944 307.032975 
L 744.669323 306.844188 
L 747.824701 306.90416 
L 754.135458 306.570598 
L 757.290837 306.614176 
L 760.446215 306.826966 
L 763.601594 306.838602 
L 766.756972 307.026563 
L 773.067729 306.802304 
L 776.223108 306.996139 
L 779.378486 306.843357 
L 785.689243 307.028547 
L 788.844622 306.802821 
L 788.844622 306.802821 
" clip-path="url(#pc1ae25e0db)" style="fill: none; stroke: #000000; stroke-width: 1.5; stroke-linecap: square"/>
   </g>
   <g id="line2d_7">
    <path d="M 0 306 
L 3.155378 306 
L 6.310757 308.613857 
L 9.466135 309.656167 
L 15.776892 308.815661 
L 18.932271 308.655287 
L 22.087649 307.192452 
L 25.243028 307.068132 
L 28.398406 307.807893 
L 31.553785 307.425238 
L 34.709163 307.865604 
L 37.864542 308.131394 
L 41.01992 308.671212 
L 44.175299 309.780593 
L 47.330677 309.225076 
L 50.486056 309.586847 
L 53.641434 309.477252 
L 56.796813 309.154738 
L 63.10757 307.697752 
L 66.262948 307.427653 
L 69.418327 307.405827 
L 72.573705 308.482294 
L 75.729084 306.567615 
L 78.884462 306.510919 
L 82.039841 306.175409 
L 85.195219 306.186039 
L 88.350598 306.362586 
L 91.505976 306.816993 
L 100.972112 306.352359 
L 104.12749 306.597515 
L 110.438247 306.868865 
L 113.593625 307.216079 
L 116.749004 306.713056 
L 119.904382 306.519122 
L 123.059761 306.515136 
L 126.215139 306.656767 
L 129.370518 306.573361 
L 132.525896 306.820113 
L 135.681275 306.934618 
L 138.836653 307.414916 
L 141.992032 307.455209 
L 145.14741 307.206304 
L 148.302789 306.711579 
L 151.458167 306.765374 
L 154.613546 306.956223 
L 164.079681 306.011206 
L 167.23506 305.784847 
L 170.390438 305.778139 
L 173.545817 305.597043 
L 179.856574 305.686708 
L 183.011952 305.635843 
L 186.167331 305.421565 
L 189.322709 305.421147 
L 195.633466 305.780102 
L 198.788845 305.757488 
L 201.944223 305.51866 
L 208.25498 306.02601 
L 211.410359 306.07453 
L 217.721116 306.397322 
L 220.876494 306.402684 
L 224.031873 306.158906 
L 227.187251 306.341201 
L 230.342629 306.279675 
L 233.498008 306.015379 
L 242.964143 306.653173 
L 246.119522 306.554839 
L 249.2749 306.854044 
L 252.430279 306.88884 
L 255.585657 306.566632 
L 258.741036 307.493249 
L 268.207171 307.306309 
L 271.36255 307.706806 
L 274.517928 307.73809 
L 277.673307 307.964622 
L 280.828685 307.912208 
L 283.984064 308.021011 
L 287.139442 307.900957 
L 290.294821 307.580695 
L 293.450199 307.641514 
L 296.605578 307.399254 
L 299.760956 307.72926 
L 309.227092 307.586642 
L 312.38247 307.698933 
L 318.693227 307.317779 
L 331.314741 306.598486 
L 334.47012 306.719431 
L 337.625498 306.598182 
L 343.936255 306.721929 
L 356.557769 307.420857 
L 359.713147 307.162277 
L 362.868526 307.303359 
L 378.645418 306.645601 
L 388.111554 306.902958 
L 391.266932 306.994101 
L 400.733068 306.602826 
L 403.888446 306.506958 
L 407.043825 306.527767 
L 413.354582 306.759 
L 429.131474 306.321425 
L 432.286853 306.129183 
L 435.442231 306.050903 
L 441.752988 306.187815 
L 444.908367 306.439224 
L 448.063745 306.180854 
L 451.219124 306.124002 
L 454.374502 305.611142 
L 460.685259 305.660478 
L 466.996016 305.342804 
L 476.462151 305.571185 
L 479.61753 305.386499 
L 482.772908 305.482001 
L 485.928287 305.377403 
L 498.549801 305.480029 
L 504.860558 305.859988 
L 511.171315 305.84344 
L 514.326693 305.708947 
L 517.482072 305.974053 
L 536.414343 306.149717 
L 539.569721 306.013477 
L 542.7251 305.999775 
L 549.035857 305.74155 
L 552.191235 306.126337 
L 555.346614 306.055494 
L 561.657371 306.248523 
L 564.812749 306.198683 
L 577.434263 306.595437 
L 586.900398 306.393233 
L 593.211155 306.569704 
L 602.677291 306.231542 
L 605.832669 306.251911 
L 608.988048 306.470732 
L 621.609562 306.506308 
L 624.76494 306.714962 
L 627.920319 306.430701 
L 631.075697 306.321139 
L 637.386454 306.34953 
L 640.541833 306.183382 
L 646.85259 306.12609 
L 665.784861 307.158266 
L 668.940239 307.242814 
L 675.250996 307.143213 
L 678.406375 307.139848 
L 681.561753 307.264341 
L 684.717131 306.829649 
L 687.87251 306.6502 
L 694.183267 306.692283 
L 706.804781 306.876921 
L 719.426295 306.748602 
L 722.581673 306.791737 
L 725.737052 306.615024 
L 735.203187 306.787403 
L 738.358566 306.877299 
L 750.98008 306.717616 
L 754.135458 306.627078 
L 763.601594 306.762435 
L 766.756972 306.859731 
L 779.378486 306.776056 
L 785.689243 306.873761 
L 788.844622 306.763737 
L 788.844622 306.763737 
" clip-path="url(#pc1ae25e0db)" style="fill: none; stroke: #000000; stroke-width: 1.5; stroke-linecap: square"/>
   </g>
   <g id="line2d_8">
    <path d="M 0 306 
L 3.155378 306 
L 6.310757 308.599856 
L 9.466135 309.635777 
L 15.776892 308.81766 
L 18.932271 308.661148 
L 22.087649 307.243218 
L 25.243028 307.116823 
L 28.398406 307.820404 
L 31.553785 307.454109 
L 34.709163 307.869228 
L 37.864542 308.119852 
L 41.01992 308.627901 
L 44.175299 309.668149 
L 47.330677 309.159573 
L 50.486056 309.498804 
L 53.641434 309.403519 
L 56.796813 309.112459 
L 63.10757 307.78843 
L 66.262948 307.539689 
L 69.418327 307.514379 
L 72.573705 308.472048 
L 75.729084 306.767804 
L 78.884462 306.70847 
L 82.039841 306.403866 
L 85.195219 306.403492 
L 88.350598 306.548825 
L 91.505976 306.936676 
L 100.972112 306.52038 
L 107.282869 306.827225 
L 110.438247 306.946131 
L 113.593625 307.236291 
L 116.749004 306.813375 
L 119.904382 306.64808 
L 123.059761 306.640731 
L 126.215139 306.754248 
L 129.370518 306.682497 
L 141.992032 307.398305 
L 145.14741 307.19871 
L 148.302789 306.800724 
L 154.613546 306.991861 
L 164.079681 306.234949 
L 167.23506 306.051543 
L 170.390438 306.039805 
L 173.545817 305.892307 
L 179.856574 305.948722 
L 183.011952 305.903457 
L 186.167331 305.732775 
L 189.322709 305.725441 
L 195.633466 305.986166 
L 198.788845 305.964564 
L 201.944223 305.780011 
L 211.410359 306.18432 
L 217.721116 306.420263 
L 220.876494 306.423756 
L 224.031873 306.243983 
L 227.187251 306.37595 
L 230.342629 306.330306 
L 233.498008 306.136841 
L 242.964143 306.594879 
L 246.119522 306.525308 
L 249.2749 306.740204 
L 252.430279 306.767166 
L 255.585657 306.540065 
L 258.741036 307.198026 
L 268.207171 307.081396 
L 271.36255 307.366054 
L 274.517928 307.393926 
L 277.673307 307.557747 
L 280.828685 307.528433 
L 283.984064 307.610406 
L 287.139442 307.534584 
L 290.294821 307.320399 
L 293.450199 307.366557 
L 296.605578 307.205407 
L 299.760956 307.433846 
L 309.227092 307.350669 
L 312.38247 307.430304 
L 321.848606 307.045273 
L 328.159363 306.826775 
L 331.314741 306.704597 
L 334.47012 306.783012 
L 337.625498 306.701932 
L 347.091633 306.908155 
L 353.40239 307.222083 
L 356.557769 307.240703 
L 359.713147 307.075631 
L 362.868526 307.168276 
L 378.645418 306.749339 
L 391.266932 306.969124 
L 403.888446 306.658497 
L 410.199203 306.756889 
L 416.50996 306.769206 
L 425.976096 306.653511 
L 435.442231 306.359096 
L 444.908367 306.585575 
L 448.063745 306.42578 
L 451.219124 306.387776 
L 454.374502 306.07216 
L 463.840637 305.958182 
L 466.996016 305.884876 
L 476.462151 306.00206 
L 479.61753 305.885569 
L 482.772908 305.936092 
L 489.083665 305.878114 
L 495.394422 305.907276 
L 501.705179 306.000896 
L 504.860558 306.118609 
L 517.482072 306.171333 
L 536.414343 306.262003 
L 549.035857 306.016533 
L 552.191235 306.23555 
L 558.501992 306.242302 
L 571.123506 306.402573 
L 583.74502 306.472948 
L 586.900398 306.386711 
L 593.211155 306.487875 
L 605.832669 306.307321 
L 612.143426 306.444581 
L 624.76494 306.570779 
L 631.075697 306.351901 
L 637.386454 306.36729 
L 643.697211 306.260099 
L 646.85259 306.24003 
L 668.940239 306.870524 
L 678.406375 306.825783 
L 681.561753 306.898143 
L 684.717131 306.663143 
L 687.87251 306.566404 
L 703.649402 306.671764 
L 713.115538 306.647873 
L 722.581673 306.661167 
L 728.89243 306.581773 
L 750.98008 306.632437 
L 757.290837 306.59671 
L 766.756972 306.713443 
L 788.844622 306.672143 
L 788.844622 306.672143 
" clip-path="url(#pc1ae25e0db)" style="fill: none; stroke: #000000; stroke-width: 1.5; stroke-linecap: square"/>
   </g>
   <g id="line2d_9">
    <path d="M 0 306 
L 3.155378 306 
L 6.310757 308.592855 
L 9.466135 309.625559 
L 15.776892 308.81852 
L 18.932271 308.663947 
L 22.087649 307.268215 
L 25.243028 307.140981 
L 28.398406 307.826944 
L 31.553785 307.468668 
L 34.709163 307.871515 
L 37.864542 308.114717 
L 41.01992 308.607235 
L 44.175299 309.613753 
L 47.330677 309.127456 
L 50.486056 309.455582 
L 53.641434 309.366894 
L 56.796813 309.090727 
L 63.10757 307.830449 
L 66.262948 307.592329 
L 69.418327 307.565844 
L 72.573705 308.467507 
L 75.729084 306.862983 
L 78.884462 306.803196 
L 82.039841 306.513929 
L 85.195219 306.50921 
L 88.350598 306.640626 
L 91.505976 306.997857 
L 100.972112 306.605274 
L 107.282869 306.882621 
L 110.438247 306.989823 
L 113.593625 307.25367 
L 116.749004 306.86759 
L 119.904382 306.715687 
L 129.370518 306.74176 
L 141.992032 307.381482 
L 145.14741 307.203823 
L 148.302789 306.849474 
L 154.613546 307.016733 
L 164.079681 306.345379 
L 167.23506 306.182028 
L 170.390438 306.168971 
L 173.545817 306.037412 
L 179.856574 306.080885 
L 192.478088 305.985616 
L 195.633466 306.098107 
L 198.788845 306.077485 
L 201.944223 305.917451 
L 211.410359 306.256323 
L 220.876494 306.456445 
L 224.031873 306.304402 
L 227.187251 306.414353 
L 230.342629 306.375423 
L 233.498008 306.21272 
L 242.964143 306.5922 
L 246.119522 306.534499 
L 249.2749 306.712334 
L 252.430279 306.735045 
L 255.585657 306.548246 
L 258.741036 307.089586 
L 268.207171 306.998641 
L 271.36255 307.232136 
L 287.139442 307.38011 
L 290.294821 307.209605 
L 293.450199 307.248244 
L 296.605578 307.120489 
L 299.760956 307.304628 
L 318.693227 307.113962 
L 331.314741 306.739096 
L 334.47012 306.800127 
L 340.780876 306.766715 
L 347.091633 306.89612 
L 353.40239 307.140298 
L 356.557769 307.15566 
L 359.713147 307.029259 
L 362.868526 307.101165 
L 378.645418 306.782196 
L 391.266932 306.949071 
L 403.888446 306.714064 
L 425.976096 306.708226 
L 435.442231 306.487599 
L 448.063745 306.532774 
L 451.219124 306.503866 
L 454.374502 306.271921 
L 501.705179 306.187102 
L 508.015936 306.26003 
L 523.792829 306.328036 
L 536.414343 306.358228 
L 549.035857 306.182541 
L 552.191235 306.333447 
L 558.501992 306.336263 
L 577.434263 306.509879 
L 590.055777 306.477696 
L 596.366534 306.453168 
L 602.677291 306.369729 
L 621.609562 306.473744 
L 624.76494 306.552866 
L 631.075697 306.405702 
L 640.541833 306.352665 
L 650.007968 306.39715 
L 668.940239 306.747468 
L 678.406375 306.72059 
L 681.561753 306.768955 
L 687.87251 306.552739 
L 706.804781 306.641047 
L 732.047809 306.581273 
L 741.513944 306.643993 
L 757.290837 306.579362 
L 769.912351 306.645989 
L 779.378486 306.631097 
L 788.844622 306.63098 
L 788.844622 306.63098 
" clip-path="url(#pc1ae25e0db)" style="fill: none; stroke: #000000; stroke-width: 1.5; stroke-linecap: square"/>
   </g>
  </g>
 </g>
 <defs>
  <clipPath id="pc1ae25e0db">
   <rect x="0" y="0" width="792" height="612"/>
  </clipPath>
 </defs>
</svg>
