<?xml version="1.0" encoding="utf-8" standalone="no"?>
<!DOCTYPE svg PUBLIC "-//W3C//DTD SVG 1.1//EN"
  "http://www.w3.org/Graphics/SVG/1.1/DTD/svg11.dtd">
<svg xmlns:xlink="http://www.w3.org/1999/xlink" width="792pt" height="612pt" viewBox="0 0 792 612" xmlns="http://www.w3.org/2000/svg" version="1.1">
 <metadata>
  <rdf:RDF xmlns:dc="http://purl.org/dc/elements/1.1/" xmlns:cc="http://creativecommons.org/ns#" xmlns:rdf="http://www.w3.org/1999/02/22-rdf-syntax-ns#">
   <cc:Work>
    <dc:type rdf:resource="http://purl.org/dc/dcmitype/StillImage"/>
    <dc:date>2022-12-26T20:26:25.752595</dc:date>
    <dc:format>image/svg+xml</dc:format>
    <dc:creator>
     <cc:Agent>
      <dc:title>Matplotlib v3.6.2, https://matplotlib.org/</dc:title>
     </cc:Agent>
    </dc:creator>
   </cc:Work>
  </rdf:RDF>
 </metadata>
 <defs>
  <style type="text/css">*{stroke-linejoin: round; stroke-linecap: butt}</style>
 </defs>
 <g id="figure_1">
  <g id="patch_1">
   <path d="M 0 612 
L 792 612 
L 792 0 
L 0 0 
z
" style="fill: #ffffff"/>
  </g>
  <g id="axes_1">
   <g id="line2d_1">
    <path d="M 0 306 
L 12.375 307.966451 
L 24.75 296.436463 
L 37.125 314.528056 
L 49.5 310.782937 
L 61.875 298.348274 
L 74.25 292.164368 
L 86.625 306.372036 
L 99 307.727294 
L 111.375 321.240874 
L 123.75 308.365042 
L 136.125 309.879601 
L 148.5 304.166414 
L 160.875 306.983236 
L 173.25 320.949271 
L 185.625 287.71231 
L 198 299.171607 
L 210.375 309.427907 
L 222.75 305.521668 
L 235.125 295.18887 
L 247.5 304.671307 
L 259.875 303.927257 
L 272.25 319.119525 
L 284.625 318.482865 
L 297 326.034694 
L 309.375 308.57762 
L 321.75 321.002292 
L 334.125 318.403274 
L 346.5 313.49238 
L 358.875 301.535879 
L 371.25 307.195825 
L 383.625 307.461561 
L 396 316.200648 
L 408.375 278.200698 
L 420.75 294.950009 
L 433.125 312.111215 
L 445.5 304.804175 
L 457.875 310.836071 
L 470.25 312.031524 
L 482.625 307.886732 
L 495 310.464121 
L 507.375 304.033549 
L 519.75 303.528669 
L 532.125 307.913306 
L 544.5 304.565013 
L 556.875 310.065588 
L 569.25 295.056168 
L 581.625 308.763624 
L 594 309.640471 
L 606.375 314.28907 
L 618.75 313.333029 
L 631.125 305.441946 
L 643.5 300.977959 
L 655.875 309.348195 
L 668.25 302.120399 
L 680.625 300.845125 
L 693 308.418187 
L 705.375 314.315625 
L 717.75 307.567854 
L 730.125 313.811069 
L 742.5 305.282502 
L 754.875 301.801566 
L 767.25 313.917295 
L 779.625 302.120399 
" clip-path="url(#p74de490261)" style="fill: none; stroke: #000000; stroke-width: 1.5; stroke-linecap: square"/>
   </g>
   <g id="line2d_2">
    <path d="M 0 306 
L 12.375 306 
L 24.75 307.310978 
L 37.125 301.095613 
L 49.5 308.260523 
L 61.875 309.562474 
L 74.25 303.865676 
L 86.625 297.966026 
L 99 302.184792 
L 111.375 304.959344 
L 123.75 313.131179 
L 136.125 310.771789 
L 148.5 310.316587 
L 160.875 307.228652 
L 173.25 307.122878 
L 185.625 314.096625 
L 198 300.858356 
L 210.375 299.998165 
L 222.75 304.689543 
L 235.125 305.100029 
L 247.5 300.114109 
L 259.875 302.393497 
L 272.25 303.154368 
L 284.625 311.136851 
L 297 314.871469 
L 309.375 320.510516 
L 321.75 314.545654 
L 334.125 317.805618 
L 346.5 318.149927 
L 358.875 315.839004 
L 371.25 308.684221 
L 383.625 307.91664 
L 396 307.667478 
L 408.375 311.915893 
L 420.75 294.965308 
L 433.125 294.906609 
L 445.5 303.494594 
L 457.875 304.132338 
L 470.25 307.502619 
L 482.625 309.77676 
L 495 308.832607 
L 507.375 309.637137 
L 519.75 306.886215 
L 532.125 305.224248 
L 544.5 306.560555 
L 556.875 305.56231 
L 569.25 307.812536 
L 581.625 301.399079 
L 594 305.082938 
L 606.375 307.360165 
L 618.75 310.845344 
L 631.125 312.108507 
L 643.5 308.77071 
L 655.875 304.867118 
L 668.25 307.106309 
L 680.625 304.627122 
L 693 302.720473 
L 705.375 305.566896 
L 717.75 309.942118 
L 730.125 308.743722 
L 742.5 311.294166 
L 754.875 308.296996 
L 767.25 305.034376 
L 779.625 309.4997 
" clip-path="url(#p74de490261)" style="fill: none; stroke: #000000; stroke-width: 1.5; stroke-linecap: square"/>
   </g>
   <g id="line2d_3">
    <path d="M 0 306 
L 12.375 306 
L 24.75 307.151931 
L 37.125 302.29572 
L 49.5 307.073492 
L 61.875 308.393362 
L 74.25 305.03042 
L 86.625 300.894103 
L 99 302.60533 
L 111.375 304.174814 
L 123.75 309.338259 
L 136.125 309.046775 
L 148.5 309.294581 
L 160.875 307.775859 
L 173.25 307.541879 
L 185.625 311.493554 
L 198 304.494887 
L 210.375 302.927652 
L 222.75 304.833186 
L 235.125 305.045276 
L 247.5 302.135065 
L 259.875 302.870854 
L 272.25 303.18667 
L 284.625 307.886553 
L 297 311.00566 
L 309.375 315.434354 
L 321.75 313.412187 
L 334.125 315.651155 
L 346.5 316.4672 
L 358.875 315.606778 
L 371.25 311.480804 
L 383.625 310.210103 
L 396 309.42783 
L 408.375 311.431746 
L 420.75 301.640828 
L 433.125 299.668272 
L 445.5 303.331835 
L 457.875 303.763216 
L 470.25 305.842833 
L 482.625 307.647522 
L 495 307.705407 
L 507.375 308.495549 
L 519.75 307.183465 
L 532.125 306.092904 
L 544.5 306.614037 
L 556.875 306.003634 
L 569.25 307.203214 
L 581.625 303.630162 
L 594 305.135205 
L 606.375 306.447276 
L 618.75 308.786143 
L 631.125 310.13923 
L 643.5 308.75587 
L 655.875 306.473298 
L 668.25 307.313657 
L 680.625 305.781147 
L 693 304.327205 
L 705.375 305.523079 
L 717.75 308.110734 
L 730.125 307.956369 
L 742.5 309.678286 
L 754.875 308.391691 
L 767.25 306.451952 
L 779.625 308.660623 
" clip-path="url(#p74de490261)" style="fill: none; stroke: #000000; stroke-width: 1.5; stroke-linecap: square"/>
   </g>
   <g id="line2d_4">
    <path d="M 0 306 
L 12.375 306 
L 24.75 307.068214 
L 37.125 302.894519 
L 49.5 306.597023 
L 61.875 307.746265 
L 74.25 305.432852 
L 86.625 302.426652 
L 99 303.263563 
L 111.375 304.162767 
L 123.75 307.465847 
L 136.125 307.633895 
L 148.5 308.042258 
L 160.875 307.353177 
L 173.25 307.288612 
L 185.625 309.638468 
L 198 305.913808 
L 210.375 304.781411 
L 222.75 305.554886 
L 235.125 305.549397 
L 247.5 303.847122 
L 259.875 303.98179 
L 272.25 303.972917 
L 284.625 306.429703 
L 297 308.378917 
L 309.375 311.229573 
L 321.75 310.802966 
L 334.125 312.442246 
L 346.5 313.398582 
L 358.875 313.413604 
L 371.25 311.513889 
L 383.625 310.823766 
L 396 310.286787 
L 408.375 311.234397 
L 420.75 305.948198 
L 433.125 304.196674 
L 445.5 305.454509 
L 457.875 305.347308 
L 470.25 306.228446 
L 482.625 307.164257 
L 495 307.280152 
L 507.375 307.788477 
L 519.75 307.180317 
L 532.125 306.596305 
L 544.5 306.80462 
L 556.875 306.448539 
L 569.25 307.025982 
L 581.625 305.104639 
L 594 305.699955 
L 606.375 306.333465 
L 618.75 307.602572 
L 631.125 308.519362 
L 643.5 308.036152 
L 655.875 306.910814 
L 668.25 307.302008 
L 680.625 306.466957 
L 693 305.561417 
L 705.375 306.004938 
L 717.75 307.331097 
L 730.125 307.360376 
L 742.5 308.384065 
L 754.875 307.885489 
L 767.25 306.917656 
L 779.625 308.035772 
" clip-path="url(#p74de490261)" style="fill: none; stroke: #000000; stroke-width: 1.5; stroke-linecap: square"/>
   </g>
   <g id="line2d_5">
    <path d="M 0 306 
L 12.375 306 
L 24.75 307.025804 
L 37.125 303.185118 
L 49.5 306.399889 
L 61.875 307.434657 
L 74.25 305.574103 
L 86.625 303.125047 
L 99 303.663995 
L 111.375 304.286764 
L 123.75 306.716504 
L 136.125 306.939184 
L 148.5 307.316719 
L 160.875 306.929821 
L 173.25 306.93613 
L 185.625 308.536385 
L 198 306.229603 
L 210.375 305.469461 
L 222.75 305.885461 
L 235.125 305.848057 
L 247.5 304.772969 
L 259.875 304.762899 
L 272.25 304.681433 
L 284.625 306.069627 
L 297 307.247705 
L 309.375 309.011417 
L 321.75 308.971185 
L 334.125 310.077181 
L 346.5 310.83565 
L 358.875 311.075632 
L 371.25 310.220426 
L 383.625 309.95106 
L 396 309.730684 
L 408.375 310.30053 
L 420.75 307.482103 
L 433.125 306.388916 
L 445.5 306.885871 
L 457.875 306.705802 
L 470.25 307.06186 
L 482.625 307.488933 
L 495 307.523014 
L 507.375 307.774334 
L 519.75 307.45549 
L 532.125 307.121533 
L 544.5 307.188733 
L 556.875 306.966472 
L 569.25 307.228573 
L 581.625 306.200412 
L 594 306.416531 
L 606.375 306.688008 
L 618.75 307.327428 
L 631.125 307.832051 
L 643.5 307.63147 
L 655.875 307.073575 
L 668.25 307.264138 
L 680.625 306.833547 
L 693 306.33258 
L 705.375 306.50693 
L 717.75 307.159472 
L 730.125 307.193571 
L 742.5 307.745976 
L 754.875 307.540481 
L 767.25 307.061937 
L 779.625 307.633474 
" clip-path="url(#p74de490261)" style="fill: none; stroke: #000000; stroke-width: 1.5; stroke-linecap: square"/>
   </g>
   <g id="line2d_6">
    <path d="M 0 306 
L 12.375 306 
L 24.75 307.00453 
L 37.125 303.327165 
L 49.5 306.312432 
L 61.875 307.285706 
L 74.25 305.629992 
L 86.625 303.446079 
L 99 303.8696 
L 111.375 304.376146 
L 123.75 306.411355 
L 136.125 306.629867 
L 148.5 306.969747 
L 160.875 306.693735 
L 173.25 306.720725 
L 185.625 307.984133 
L 198 306.263391 
L 210.375 305.68642 
L 222.75 305.979372 
L 235.125 305.944777 
L 247.5 305.157609 
L 259.875 305.123095 
L 272.25 305.040581 
L 284.625 305.98739 
L 297 306.807349 
L 309.375 308.041594 
L 321.75 308.075223 
L 334.125 308.870741 
L 346.5 309.446222 
L 358.875 309.68609 
L 371.25 309.211066 
L 383.625 309.095446 
L 396 309.003088 
L 408.375 309.40445 
L 420.75 307.683908 
L 433.125 306.991927 
L 445.5 307.26678 
L 457.875 307.136059 
L 470.25 307.330408 
L 482.625 307.574878 
L 495 307.590939 
L 507.375 307.737586 
L 519.75 307.550168 
L 532.125 307.348341 
L 544.5 307.376476 
L 556.875 307.237497 
L 569.25 307.376331 
L 581.625 306.775358 
L 594 306.871699 
L 606.375 307.005054 
L 618.75 307.353946 
L 631.125 307.638755 
L 643.5 307.534679 
L 655.875 307.225568 
L 668.25 307.325164 
L 680.625 307.082054 
L 693 306.79197 
L 705.375 306.867294 
L 717.75 307.211021 
L 730.125 307.227423 
L 742.5 307.529031 
L 754.875 307.426489 
L 767.25 307.17056 
L 779.625 307.476646 
" clip-path="url(#p74de490261)" style="fill: none; stroke: #000000; stroke-width: 1.5; stroke-linecap: square"/>
   </g>
   <g id="line2d_7">
    <path d="M 0 306 
L 12.375 306 
L 24.75 306.993884 
L 37.125 303.397251 
L 49.5 306.271532 
L 61.875 307.213393 
L 74.25 305.654448 
L 86.625 303.598444 
L 99 303.971976 
L 111.375 304.426278 
L 123.75 306.277683 
L 136.125 306.488658 
L 148.5 306.806119 
L 160.875 306.57564 
L 173.25 306.609028 
L 185.625 307.717614 
L 198 306.252455 
L 210.375 305.759825 
L 222.75 306.003273 
L 235.125 305.972685 
L 247.5 305.315165 
L 259.875 305.277415 
L 272.25 305.201093 
L 284.625 305.961625 
L 297 306.623823 
L 309.375 307.620012 
L 321.75 307.667665 
L 334.125 308.313498 
L 346.5 308.78922 
L 358.875 309.005331 
L 371.25 308.670402 
L 383.625 308.605795 
L 396 308.556759 
L 408.375 308.877603 
L 420.75 307.613296 
L 433.125 307.102538 
L 445.5 307.300769 
L 457.875 307.203736 
L 470.25 307.342505 
L 482.625 307.518697 
L 495 307.532305 
L 507.375 307.639052 
L 519.75 307.509725 
L 532.125 307.368958 
L 544.5 307.387942 
L 556.875 307.290803 
L 569.25 307.385068 
L 581.625 306.971295 
L 594 307.030707 
L 606.375 307.116216 
L 618.75 307.34865 
L 631.125 307.540458 
L 643.5 307.473919 
L 655.875 307.270031 
L 668.25 307.334615 
L 680.625 307.174123 
L 693 306.981115 
L 705.375 307.024544 
L 717.75 307.243017 
L 730.125 307.252666 
L 742.5 307.445918 
L 754.875 307.382694 
L 767.25 307.220844 
L 779.625 307.41362 
" clip-path="url(#p74de490261)" style="fill: none; stroke: #000000; stroke-width: 1.5; stroke-linecap: square"/>
   </g>
   <g id="line2d_8">
    <path d="M 0 306 
L 12.375 306 
L 24.75 306.98856 
L 37.125 303.432045 
L 49.5 306.251791 
L 61.875 307.177829 
L 74.25 305.665837 
L 86.625 303.672478 
L 99 304.02284 
L 111.375 304.452492 
L 123.75 306.215639 
L 136.125 306.421795 
L 148.5 306.727435 
L 160.875 306.517378 
L 173.25 306.553047 
L 185.625 307.588095 
L 198 306.240956 
L 210.375 305.78804 
L 222.75 306.009413 
L 235.125 305.981164 
L 247.5 305.383989 
L 259.875 305.346251 
L 272.25 305.274152 
L 284.625 305.950932 
L 297 306.541022 
L 309.375 307.42758 
L 321.75 307.478059 
L 334.125 308.053132 
L 346.5 308.4796 
L 358.875 308.679975 
L 371.25 308.402569 
L 383.625 308.356991 
L 396 308.324059 
L 408.375 308.606516 
L 420.75 307.54062 
L 433.125 307.110585 
L 445.5 307.277446 
L 457.875 307.196754 
L 470.25 307.312961 
L 482.625 307.460517 
L 495 307.473575 
L 507.375 307.563424 
L 519.75 307.459386 
L 532.125 307.34566 
L 544.5 307.36179 
L 556.875 307.283694 
L 569.25 307.360071 
L 581.625 307.02771 
L 594 307.073837 
L 606.375 307.140979 
L 618.75 307.325176 
L 631.125 307.477696 
L 643.5 307.426771 
L 655.875 307.267705 
L 668.25 307.318319 
L 680.625 307.193559 
L 693 307.043168 
L 705.375 307.075325 
L 717.75 307.242581 
L 730.125 307.250002 
L 742.5 307.397936 
L 754.875 307.350806 
L 767.25 307.228573 
L 779.625 307.374297 
" clip-path="url(#p74de490261)" style="fill: none; stroke: #000000; stroke-width: 1.5; stroke-linecap: square"/>
   </g>
   <g id="line2d_9">
    <path d="M 0 306 
L 12.375 306 
L 24.75 306.985898 
L 37.125 303.449377 
L 49.5 306.242098 
L 61.875 307.160201 
L 74.25 305.671327 
L 86.625 303.708946 
L 99 304.048165 
L 111.375 304.465859 
L 123.75 306.185814 
L 136.125 306.389338 
L 148.5 306.68895 
L 160.875 306.488541 
L 173.25 306.525134 
L 185.625 307.524433 
L 198 306.233843 
L 210.375 305.800108 
L 222.75 306.011071 
L 235.125 305.984038 
L 247.5 305.415826 
L 259.875 305.37842 
L 272.25 305.308639 
L 284.625 305.945927 
L 297 306.50178 
L 309.375 307.336136 
L 321.75 307.387188 
L 334.125 307.92821 
L 346.5 308.330549 
L 358.875 308.522407 
L 371.25 308.270778 
L 383.625 308.233213 
L 396 308.207021 
L 408.375 308.470933 
L 420.75 307.496365 
L 433.125 307.103774 
L 445.5 307.256477 
L 457.875 307.183535 
L 470.25 307.289606 
L 482.625 307.424139 
L 495 307.436967 
L 507.375 307.519083 
L 519.75 307.426551 
L 532.125 307.325214 
L 544.5 307.340195 
L 556.875 307.270894 
L 569.25 307.339348 
L 581.625 307.044029 
L 594 307.084602 
L 606.375 307.143831 
L 618.75 307.306557 
L 631.125 307.441454 
L 643.5 307.397454 
L 655.875 307.258489 
L 668.25 307.303002 
L 680.625 307.194337 
L 693 307.063246 
L 705.375 307.0908 
L 717.75 307.235597 
L 730.125 307.242158 
L 742.5 307.370071 
L 754.875 307.329995 
L 767.25 307.225302 
L 779.625 307.350364 
" clip-path="url(#p74de490261)" style="fill: none; stroke: #000000; stroke-width: 1.5; stroke-linecap: square"/>
   </g>
  </g>
 </g>
 <defs>
  <clipPath id="p74de490261">
   <rect x="0" y="0" width="792" height="612"/>
  </clipPath>
 </defs>
</svg>
