<?xml version="1.0" encoding="utf-8" standalone="no"?>
<!DOCTYPE svg PUBLIC "-//W3C//DTD SVG 1.1//EN"
  "http://www.w3.org/Graphics/SVG/1.1/DTD/svg11.dtd">
<svg xmlns:xlink="http://www.w3.org/1999/xlink" width="792pt" height="612pt" viewBox="0 0 792 612" xmlns="http://www.w3.org/2000/svg" version="1.1">
 <metadata>
  <rdf:RDF xmlns:dc="http://purl.org/dc/elements/1.1/" xmlns:cc="http://creativecommons.org/ns#" xmlns:rdf="http://www.w3.org/1999/02/22-rdf-syntax-ns#">
   <cc:Work>
    <dc:type rdf:resource="http://purl.org/dc/dcmitype/StillImage"/>
    <dc:date>2023-01-30T17:16:11.443052</dc:date>
    <dc:format>image/svg+xml</dc:format>
    <dc:creator>
     <cc:Agent>
      <dc:title>Matplotlib v3.6.2, https://matplotlib.org/</dc:title>
     </cc:Agent>
    </dc:creator>
   </cc:Work>
  </rdf:RDF>
 </metadata>
 <defs>
  <style type="text/css">*{stroke-linejoin: round; stroke-linecap: butt}</style>
 </defs>
 <g id="figure_1">
  <g id="patch_1">
   <path d="M 0 612 
L 792 612 
L 792 0 
L 0 0 
z
" style="fill: #ffffff"/>
  </g>
  <g id="axes_1">
   <g id="line2d_1">
    <path d="M 0 306 
L 12.983607 304.00804 
L 25.967213 318.608781 
L 38.95082 317.996852 
L 51.934426 325.255944 
L 64.918033 308.477162 
L 77.901639 320.418459 
L 90.885246 317.920354 
L 103.868852 313.200473 
L 116.852459 301.709845 
L 129.836066 307.149218 
L 142.819672 307.404597 
L 155.803279 315.803354 
L 168.786885 279.278551 
L 181.770492 295.380331 
L 194.754098 311.873089 
L 207.737705 304.850782 
L 220.721311 310.647615 
L 233.704918 311.796502 
L 246.688525 307.813199 
L 259.672131 310.290155 
L 272.655738 304.110189 
L 285.639344 303.624985 
L 298.622951 307.838736 
L 311.606557 304.620941 
L 324.590164 309.907149 
L 337.57377 295.482362 
L 350.557377 308.655917 
L 363.540984 309.498596 
L 376.52459 313.966152 
L 389.508197 313.047326 
L 402.491803 305.463696 
L 415.47541 301.17366 
L 428.459016 309.217708 
L 441.442623 302.271592 
L 454.42623 301.046001 
L 467.409836 308.323941 
L 480.393443 313.991673 
L 493.377049 307.506748 
L 506.360656 313.506756 
L 519.344262 305.310467 
L 532.327869 301.965181 
L 545.311475 313.608847 
L 558.295082 302.271592 
L 571.278689 311.643326 
L 584.262295 309.115566 
L 597.245902 299.973739 
L 610.229508 306.459689 
L 623.213115 301.352385 
L 636.196721 307.736586 
L 649.180328 311.158249 
L 662.163934 298.442198 
L 675.147541 302.731221 
L 688.131148 299.590822 
L 701.114754 292.677431 
L 714.098361 305.540311 
L 727.081967 298.722955 
L 740.065574 311.285904 
L 753.04918 307.506748 
L 766.032787 310.545484 
L 779.016393 296.885521 
" clip-path="url(#p953f27a35d)" style="fill: none; stroke: #000000; stroke-width: 1.5; stroke-linecap: square"/>
   </g>
   <g id="line2d_2">
    <path d="M 0 306 
L 12.983607 306 
L 25.967213 304.672016 
L 38.95082 312.638918 
L 51.934426 315.497199 
L 64.918033 320.537645 
L 77.901639 314.41498 
L 90.885246 317.441456 
L 103.868852 317.681851 
L 116.852459 315.455777 
L 129.836066 308.579608 
L 142.819672 307.841941 
L 155.803279 307.602489 
L 168.786885 311.685375 
L 181.770492 295.395035 
L 194.754098 295.338619 
L 207.737705 303.592238 
L 220.721311 304.205128 
L 233.704918 307.444055 
L 246.688525 309.629574 
L 259.672131 308.722212 
L 272.655738 309.495391 
L 285.639344 306.851675 
L 298.622951 305.254483 
L 311.606557 306.538708 
L 324.590164 305.579369 
L 337.57377 307.741894 
L 350.557377 301.578375 
L 363.540984 305.11868 
L 376.52459 307.307153 
L 389.508197 310.656526 
L 402.491803 311.870486 
L 415.47541 308.662727 
L 428.459016 304.911271 
L 441.442623 307.063191 
L 454.42623 304.680629 
L 467.409836 302.848284 
L 480.393443 305.583776 
L 493.377049 309.788489 
L 506.360656 308.63679 
L 519.344262 311.087864 
L 532.327869 308.207473 
L 545.311475 305.072011 
L 558.295082 309.36331 
L 571.278689 305.81983 
L 584.262295 308.738335 
L 597.245902 308.917388 
L 610.229508 304.430459 
L 623.213115 305.431248 
L 636.196721 303.38394 
L 649.180328 305.571558 
L 662.163934 308.360294 
L 675.147541 303.393053 
L 688.131148 303.044659 
L 701.114754 301.298918 
L 714.098361 296.972075 
L 727.081967 301.25346 
L 740.065574 299.982949 
L 753.04918 305.641262 
L 766.032787 306.56685 
L 779.016393 308.580009 
" clip-path="url(#p953f27a35d)" style="fill: none; stroke: #000000; stroke-width: 1.5; stroke-linecap: square"/>
   </g>
   <g id="line2d_3">
    <path d="M 0 306 
L 12.983607 306 
L 25.967213 304.833126 
L 38.95082 311.077392 
L 51.934426 313.780619 
L 64.918033 317.867595 
L 77.901639 314.725901 
L 90.885246 316.555722 
L 103.868852 316.982107 
L 116.852459 315.823582 
L 129.836066 311.558075 
L 142.819672 310.23773 
L 155.803279 309.394807 
L 168.786885 311.293361 
L 181.770492 301.823095 
L 194.754098 299.924929 
L 207.737705 303.437896 
L 220.721311 303.850392 
L 233.704918 305.848959 
L 246.688525 307.583311 
L 259.672131 307.63894 
L 272.655738 308.398288 
L 285.639344 307.13734 
L 298.622951 306.089283 
L 311.606557 306.590105 
L 324.590164 306.003492 
L 337.57377 307.156319 
L 350.557377 303.722523 
L 363.540984 305.16891 
L 376.52459 306.429843 
L 389.508197 308.677559 
L 402.491803 309.977922 
L 415.47541 308.648465 
L 428.459016 306.454851 
L 441.442623 307.262458 
L 454.42623 305.789677 
L 467.409836 304.392401 
L 480.393443 305.541667 
L 493.377049 308.028471 
L 506.360656 307.880121 
L 519.344262 309.534937 
L 532.327869 308.298478 
L 545.311475 306.434337 
L 558.295082 308.556929 
L 571.278689 306.70865 
L 584.262295 308.1566 
L 597.245902 308.431907 
L 610.229508 305.939356 
L 623.213115 306.092902 
L 636.196721 304.704545 
L 649.180328 305.590908 
L 662.163934 307.231889 
L 675.147541 304.654019 
L 688.131148 304.084403 
L 701.114754 302.75155 
L 714.098361 299.782167 
L 727.081967 301.459264 
L 740.065574 300.650157 
L 753.04918 303.77581 
L 766.032787 304.861547 
L 779.016393 306.535931 
" clip-path="url(#p953f27a35d)" style="fill: none; stroke: #000000; stroke-width: 1.5; stroke-linecap: square"/>
   </g>
   <g id="line2d_4">
    <path d="M 0 306 
L 12.983607 306 
L 25.967213 304.91793 
L 38.95082 310.293617 
L 51.934426 312.745898 
L 64.918033 316.184289 
L 77.901639 314.288232 
L 90.885246 315.676986 
L 103.868852 316.152985 
L 116.852459 315.558324 
L 129.836066 312.883135 
L 142.819672 311.811804 
L 155.803279 311.010556 
L 168.786885 311.862922 
L 181.770492 306.164655 
L 194.754098 304.310345 
L 207.737705 305.593931 
L 220.721311 305.469133 
L 233.704918 306.331203 
L 246.688525 307.234422 
L 259.672131 307.329479 
L 272.655738 307.813277 
L 285.639344 307.210797 
L 298.622951 306.629476 
L 311.606557 306.82493 
L 324.590164 306.469599 
L 337.57377 307.022666 
L 350.557377 305.168683 
L 363.540984 305.727892 
L 376.52459 306.331816 
L 389.508197 307.553489 
L 402.491803 308.431817 
L 415.47541 307.957742 
L 428.459016 306.875315 
L 441.442623 307.251263 
L 454.42623 306.448758 
L 467.409836 305.578511 
L 480.393443 306.004745 
L 493.377049 307.279218 
L 506.360656 307.307356 
L 519.344262 308.29115 
L 532.327869 307.812003 
L 545.311475 306.881891 
L 558.295082 307.95643 
L 571.278689 307.048738 
L 584.262295 307.777241 
L 597.245902 308.008838 
L 610.229508 306.733192 
L 623.213115 306.686298 
L 636.196721 305.835415 
L 649.180328 306.136084 
L 662.163934 306.934805 
L 675.147541 305.577511 
L 688.131148 305.119922 
L 701.114754 304.237271 
L 714.098361 302.390033 
L 727.081967 302.889786 
L 740.065574 302.223031 
L 753.04918 303.665794 
L 766.032787 304.284391 
L 779.016393 305.281772 
" clip-path="url(#p953f27a35d)" style="fill: none; stroke: #000000; stroke-width: 1.5; stroke-linecap: square"/>
   </g>
   <g id="line2d_5">
    <path d="M 0 306 
L 12.983607 306 
L 25.967213 304.960889 
L 38.95082 309.911916 
L 51.934426 312.203957 
L 64.918033 315.28889 
L 77.901639 313.894868 
L 90.885246 315.086203 
L 103.868852 315.55677 
L 116.852459 315.195685 
L 129.836066 313.265383 
L 142.819672 312.439479 
L 155.803279 311.793198 
L 168.786885 312.285833 
L 181.770492 308.380003 
L 194.754098 306.896246 
L 207.737705 307.447061 
L 220.721311 307.167491 
L 233.704918 307.53324 
L 246.688525 307.97163 
L 259.672131 307.955657 
L 272.655738 308.18691 
L 285.639344 307.789492 
L 298.622951 307.389308 
L 311.606557 307.431937 
L 324.590164 307.168434 
L 337.57377 307.42245 
L 350.557377 306.325392 
L 363.540984 306.537576 
L 376.52459 306.805016 
L 389.508197 307.447236 
L 402.491803 307.946111 
L 415.47541 307.72635 
L 428.459016 307.149415 
L 441.442623 307.330604 
L 454.42623 306.889456 
L 467.409836 306.382013 
L 480.393443 306.549996 
L 493.377049 307.191615 
L 506.360656 307.218692 
L 519.344262 307.757527 
L 532.327869 307.548443 
L 545.311475 307.072538 
L 558.295082 307.628542 
L 571.278689 307.173883 
L 584.262295 307.552547 
L 597.245902 307.684731 
L 610.229508 307.033602 
L 623.213115 306.985214 
L 636.196721 306.510889 
L 649.180328 306.613972 
L 662.163934 306.995767 
L 675.147541 306.277798 
L 688.131148 305.980423 
L 701.114754 305.445061 
L 714.098361 304.375603 
L 727.081967 304.473029 
L 740.065574 303.992255 
L 753.04918 304.601629 
L 766.032787 304.844201 
L 779.016393 305.320037 
" clip-path="url(#p953f27a35d)" style="fill: none; stroke: #000000; stroke-width: 1.5; stroke-linecap: square"/>
   </g>
   <g id="line2d_6">
    <path d="M 0 306 
L 12.983607 306 
L 25.967213 304.982439 
L 38.95082 309.724982 
L 51.934426 311.930239 
L 64.918033 314.83482 
L 77.901639 313.657643 
L 90.885246 314.754085 
L 103.868852 315.212539 
L 116.852459 314.948374 
L 129.836066 313.352748 
L 142.819672 312.659128 
L 155.803279 312.109735 
L 168.786885 312.473499 
L 181.770492 309.373058 
L 194.754098 308.131314 
L 207.737705 308.448633 
L 220.721311 308.155978 
L 233.704918 308.351076 
L 246.688525 308.61152 
L 259.672131 308.553121 
L 272.655738 308.676407 
L 285.639344 308.361354 
L 298.622951 308.043025 
L 311.606557 308.029627 
L 324.590164 307.811143 
L 337.57377 307.942646 
L 350.557377 307.176278 
L 363.540984 307.265553 
L 376.52459 307.397914 
L 389.508197 307.780854 
L 402.491803 308.08308 
L 415.47541 307.935013 
L 428.459016 307.558116 
L 441.442623 307.649408 
L 454.42623 307.35727 
L 467.409836 307.01845 
L 480.393443 307.087751 
L 493.377049 307.450445 
L 506.360656 307.453373 
L 519.344262 307.765195 
L 532.327869 307.639918 
L 545.311475 307.352776 
L 558.295082 307.666823 
L 571.278689 307.39814 
L 584.262295 307.60802 
L 597.245902 307.682025 
L 610.229508 307.306126 
L 623.213115 307.265113 
L 636.196721 306.980333 
L 649.180328 307.016547 
L 662.163934 307.213812 
L 675.147541 306.798175 
L 688.131148 306.606446 
L 701.114754 306.277236 
L 714.098361 305.641624 
L 727.081967 305.636912 
L 740.065574 305.316615 
L 753.04918 305.592039 
L 766.032787 305.680047 
L 779.016393 305.902904 
" clip-path="url(#p953f27a35d)" style="fill: none; stroke: #000000; stroke-width: 1.5; stroke-linecap: square"/>
   </g>
   <g id="line2d_7">
    <path d="M 0 306 
L 12.983607 306 
L 25.967213 304.993223 
L 38.95082 309.632657 
L 51.934426 311.793152 
L 64.918033 314.607197 
L 77.901639 313.529772 
L 90.885246 314.579625 
L 103.868852 315.029688 
L 116.852459 314.808425 
L 129.836066 313.367962 
L 142.819672 312.739621 
L 155.803279 312.240307 
L 168.786885 312.551485 
L 181.770492 309.821058 
L 194.754098 308.705397 
L 207.737705 308.937172 
L 220.721311 308.652935 
L 233.704918 308.785324 
L 246.688525 308.976594 
L 259.672131 308.90569 
L 272.655738 308.986866 
L 285.639344 308.711217 
L 298.622951 308.433467 
L 311.606557 308.402032 
L 324.590164 308.208274 
L 337.57377 308.292818 
L 350.557377 307.672728 
L 363.540984 307.719058 
L 376.52459 307.800814 
L 389.508197 308.077343 
L 402.491803 308.295147 
L 415.47541 308.173807 
L 428.459016 307.880098 
L 441.442623 307.935092 
L 454.42623 307.706744 
L 467.409836 307.443157 
L 480.393443 307.477391 
L 493.377049 307.7263 
L 506.360656 307.718052 
L 519.344262 307.932127 
L 532.327869 307.836682 
L 545.311475 307.626068 
L 558.295082 307.837664 
L 571.278689 307.643554 
L 584.262295 307.781207 
L 597.245902 307.826536 
L 610.229508 307.563064 
L 623.213115 307.52649 
L 636.196721 307.324198 
L 649.180328 307.337558 
L 662.163934 307.460004 
L 675.147541 307.174023 
L 688.131148 307.034582 
L 701.114754 306.803234 
L 714.098361 306.368199 
L 727.081967 306.342953 
L 740.065574 306.112637 
L 753.04918 306.267625 
L 766.032787 306.304431 
L 779.016393 306.42938 
" clip-path="url(#p953f27a35d)" style="fill: none; stroke: #000000; stroke-width: 1.5; stroke-linecap: square"/>
   </g>
   <g id="line2d_8">
    <path d="M 0 306 
L 12.983607 306 
L 25.967213 304.998616 
L 38.95082 309.5868 
L 51.934426 311.72461 
L 64.918033 314.493368 
L 77.901639 313.46366 
L 90.885246 314.490432 
L 103.868852 314.935739 
L 116.852459 314.734501 
L 129.836066 313.368317 
L 142.819672 312.772016 
L 155.803279 312.29773 
L 168.786885 312.585337 
L 181.770492 310.030677 
L 194.754098 308.978031 
L 207.737705 309.174061 
L 220.721311 308.897143 
L 233.704918 309.003608 
L 246.688525 309.165385 
L 259.672131 309.090598 
L 272.655738 309.15412 
L 285.639344 308.897861 
L 298.622951 308.640279 
L 311.606557 308.602559 
L 324.590164 308.421751 
L 337.57377 308.486952 
L 350.557377 307.934298 
L 363.540984 307.964014 
L 376.52459 308.025345 
L 389.508197 308.256088 
L 402.491803 308.437092 
L 415.47541 308.327741 
L 428.459016 308.071296 
L 441.442623 308.111386 
L 454.42623 307.912 
L 467.409836 307.682923 
L 480.393443 307.703837 
L 493.377049 307.904646 
L 506.360656 307.892206 
L 519.344262 308.064267 
L 532.327869 307.98154 
L 545.311475 307.804213 
L 558.295082 307.972196 
L 571.278689 307.810203 
L 584.262295 307.917253 
L 597.245902 307.950152 
L 610.229508 307.734752 
L 623.213115 307.700873 
L 636.196721 307.534803 
L 649.180328 307.540001 
L 662.163934 307.631847 
L 675.147541 307.401926 
L 688.131148 307.286724 
L 701.114754 307.099489 
L 714.098361 306.753142 
L 727.081967 306.724412 
L 740.065574 306.53726 
L 753.04918 306.646939 
L 766.032787 306.666555 
L 779.016393 306.754001 
" clip-path="url(#p953f27a35d)" style="fill: none; stroke: #000000; stroke-width: 1.5; stroke-linecap: square"/>
   </g>
   <g id="line2d_9">
    <path d="M 0 306 
L 12.983607 306 
L 25.967213 305.001313 
L 38.95082 309.56395 
L 51.934426 311.690346 
L 64.918033 314.436465 
L 77.901639 313.430079 
L 90.885246 314.445365 
L 103.868852 314.888156 
L 116.852459 314.696574 
L 129.836066 313.366677 
L 142.819672 312.786203 
L 155.803279 312.324377 
L 168.786885 312.600843 
L 181.770492 310.131646 
L 194.754098 309.110342 
L 207.737705 309.290135 
L 220.721311 309.017552 
L 233.704918 309.112345 
L 246.688525 309.260623 
L 259.672131 309.184471 
L 272.655738 309.240025 
L 285.639344 308.993373 
L 298.622951 308.745813 
L 311.606557 308.705619 
L 324.590164 308.531404 
L 337.57377 308.587979 
L 350.557377 308.06751 
L 363.540984 308.090097 
L 376.52459 308.142439 
L 389.508197 308.352242 
L 402.491803 308.516351 
L 415.47541 308.412737 
L 428.459016 308.173833 
L 441.442623 308.207359 
L 454.42623 308.021691 
L 467.409836 307.808992 
L 480.393443 307.824309 
L 493.377049 308.003439 
L 506.360656 307.98935 
L 519.344262 308.142382 
L 532.327869 308.065571 
L 545.311475 307.903619 
L 558.295082 308.051977 
L 571.278689 307.904732 
L 584.262295 307.998104 
L 597.245902 308.025474 
L 610.229508 307.831949 
L 623.213115 307.799572 
L 636.196721 307.65017 
L 649.180328 307.652138 
L 662.163934 307.73061 
L 675.147541 307.526184 
L 688.131148 307.422391 
L 701.114754 307.25556 
L 714.098361 306.949731 
L 727.081967 306.920633 
L 740.065574 306.753903 
L 753.04918 306.844717 
L 766.032787 306.85779 
L 779.016393 306.929587 
" clip-path="url(#p953f27a35d)" style="fill: none; stroke: #000000; stroke-width: 1.5; stroke-linecap: square"/>
   </g>
  </g>
 </g>
 <defs>
  <clipPath id="p953f27a35d">
   <rect x="0" y="0" width="792" height="612"/>
  </clipPath>
 </defs>
</svg>
