<?xml version="1.0" encoding="utf-8" standalone="no"?>
<!DOCTYPE svg PUBLIC "-//W3C//DTD SVG 1.1//EN"
  "http://www.w3.org/Graphics/SVG/1.1/DTD/svg11.dtd">
<svg xmlns:xlink="http://www.w3.org/1999/xlink" width="792pt" height="612pt" viewBox="0 0 792 612" xmlns="http://www.w3.org/2000/svg" version="1.1">
 <metadata>
  <rdf:RDF xmlns:dc="http://purl.org/dc/elements/1.1/" xmlns:cc="http://creativecommons.org/ns#" xmlns:rdf="http://www.w3.org/1999/02/22-rdf-syntax-ns#">
   <cc:Work>
    <dc:type rdf:resource="http://purl.org/dc/dcmitype/StillImage"/>
    <dc:date>2023-01-16T16:10:48.402512</dc:date>
    <dc:format>image/svg+xml</dc:format>
    <dc:creator>
     <cc:Agent>
      <dc:title>Matplotlib v3.6.2, https://matplotlib.org/</dc:title>
     </cc:Agent>
    </dc:creator>
   </cc:Work>
  </rdf:RDF>
 </metadata>
 <defs>
  <style type="text/css">*{stroke-linejoin: round; stroke-linecap: butt}</style>
 </defs>
 <g id="figure_1">
  <g id="patch_1">
   <path d="M 0 612 
L 792 612 
L 792 0 
L 0 0 
z
" style="fill: #ffffff"/>
  </g>
  <g id="axes_1">
   <g id="line2d_1">
    <path d="M 0 306 
L 12.774194 299.090023 
L 25.548387 309.468873 
L 38.322581 305.515951 
L 51.096774 295.059766 
L 63.870968 304.655427 
L 76.645161 303.902485 
L 89.419355 319.276132 
L 102.193548 318.631889 
L 114.967742 326.273448 
L 127.741935 308.608426 
L 140.516129 321.181304 
L 153.290323 318.551351 
L 166.064516 313.581891 
L 178.83871 301.482532 
L 191.612903 307.210118 
L 204.387097 307.479029 
L 217.16129 316.322473 
L 229.935484 277.870309 
L 242.709677 294.818058 
L 255.483871 312.184236 
L 268.258065 304.789882 
L 281.032258 310.893862 
L 293.806452 312.103593 
L 306.580645 307.909282 
L 319.354839 310.517468 
L 332.129032 304.010047 
L 344.903226 303.499133 
L 357.677419 307.936172 
L 370.451613 304.547862 
L 383.225806 310.114173 
L 396 294.925482 
L 408.774194 308.796653 
L 421.548387 309.683977 
L 434.322581 314.388091 
L 447.096774 313.420638 
L 459.870968 305.435276 
L 472.645161 300.917947 
L 485.419355 309.388208 
L 498.193548 302.074036 
L 510.967742 300.783527 
L 523.741935 308.447087 
L 536.516129 314.414962 
L 549.290323 307.586593 
L 562.064516 313.904384 
L 574.83871 305.273927 
L 587.612903 301.751394 
L 600.387097 314.011878 
L 613.16129 302.074036 
L 625.935484 311.942306 
L 638.709677 309.280655 
L 651.483871 299.654482 
L 664.258065 306.484049 
L 677.032258 301.106138 
L 689.806452 307.82861 
L 702.580645 311.431541 
L 715.354839 298.041869 
L 728.129032 302.558015 
L 740.903226 299.251292 
L 753.677419 291.972401 
L 766.451613 305.515951 
L 779.225806 298.337484 
" clip-path="url(#p177ec997c1)" style="fill: none; stroke: #000000; stroke-width: 1.5; stroke-linecap: square"/>
   </g>
   <g id="line2d_2">
    <path d="M 0 306 
L 12.774194 306 
L 25.548387 301.392913 
L 38.322581 306.007683 
L 51.096774 305.745426 
L 63.870968 300.228524 
L 76.645161 302.476924 
L 89.419355 303.195301 
L 102.193548 311.270873 
L 114.967742 314.977439 
L 127.741935 320.683678 
L 140.516129 314.647736 
L 153.290323 317.946574 
L 166.064516 318.294985 
L 178.83871 315.956516 
L 191.612903 308.716301 
L 204.387097 307.939547 
L 217.16129 307.687407 
L 229.935484 311.986581 
L 242.709677 294.83354 
L 255.483871 294.774141 
L 268.258065 303.464651 
L 281.032258 304.110016 
L 293.806452 307.520578 
L 306.580645 309.821895 
L 319.354839 308.86646 
L 332.129032 309.680603 
L 344.903226 306.896807 
L 357.677419 305.214977 
L 370.451613 306.567255 
L 383.225806 305.557079 
L 396 307.834199 
L 408.774194 301.344098 
L 421.548387 305.071978 
L 434.322581 307.376421 
L 447.096774 310.903245 
L 459.870968 312.181495 
L 472.645161 308.803823 
L 485.419355 304.853578 
L 498.193548 307.119531 
L 510.967742 304.610713 
L 523.741935 302.68128 
L 536.516129 305.561719 
L 549.290323 309.989228 
L 562.064516 308.776512 
L 574.83871 311.357428 
L 587.612903 308.324448 
L 600.387097 305.022835 
L 613.16129 309.541524 
L 625.935484 305.810282 
L 638.709677 308.883437 
L 651.483871 309.071977 
L 664.258065 304.347287 
L 677.032258 305.401108 
L 689.806452 303.245316 
L 702.580645 305.548853 
L 715.354839 308.485366 
L 728.129032 303.254912 
L 740.903226 302.888059 
L 753.677419 301.049839 
L 766.451613 296.493964 
L 779.225806 301.001974 
" clip-path="url(#p177ec997c1)" style="fill: none; stroke: #000000; stroke-width: 1.5; stroke-linecap: square"/>
   </g>
   <g id="line2d_3">
    <path d="M 0 306 
L 12.774194 306 
L 25.548387 301.951777 
L 38.322581 305.357576 
L 51.096774 305.419425 
L 63.870968 301.732196 
L 76.645161 302.710644 
L 89.419355 303.093563 
L 102.193548 308.151822 
L 114.967742 311.364967 
L 127.741935 315.87836 
L 140.516129 313.701728 
L 153.290323 315.928586 
L 166.064516 316.705528 
L 178.83871 315.783635 
L 191.612903 311.573311 
L 204.387097 310.290506 
L 217.16129 309.468796 
L 229.935484 311.496652 
L 242.709677 301.588735 
L 255.483871 299.592618 
L 268.258065 303.299947 
L 281.032258 303.736484 
L 293.806452 305.840955 
L 306.580645 307.667213 
L 319.354839 307.72579 
L 332.129032 308.525374 
L 344.903226 307.197609 
L 357.677419 306.094015 
L 370.451613 306.621376 
L 383.225806 306.003677 
L 396 307.217595 
L 408.774194 303.601839 
L 421.548387 305.124869 
L 434.322581 306.452621 
L 447.096774 308.819441 
L 459.870968 310.188696 
L 472.645161 308.788806 
L 485.419355 306.478954 
L 498.193548 307.329358 
L 510.967742 305.778531 
L 523.741935 304.307212 
L 536.516129 305.517379 
L 549.290323 308.135961 
L 562.064516 307.979751 
L 574.83871 309.722244 
L 587.612903 308.420275 
L 600.387097 306.457354 
L 613.16129 308.69242 
L 625.935484 306.746203 
L 638.709677 308.270879 
L 651.483871 308.560773 
L 664.258065 305.936142 
L 677.032258 306.097825 
L 689.806452 304.635897 
L 702.580645 305.56923 
L 715.354839 307.297169 
L 728.129032 304.582694 
L 740.903226 303.982894 
L 753.677419 302.579421 
L 766.451613 299.452768 
L 779.225806 301.218678 
" clip-path="url(#p177ec997c1)" style="fill: none; stroke: #000000; stroke-width: 1.5; stroke-linecap: square"/>
   </g>
   <g id="line2d_4">
    <path d="M 0 306 
L 12.774194 306 
L 25.548387 302.245956 
L 38.322581 305.080639 
L 51.096774 305.219158 
L 63.870968 302.428994 
L 76.645161 302.976938 
L 89.419355 303.186494 
L 102.193548 306.601426 
L 114.967742 309.026361 
L 127.741935 312.364599 
L 140.516129 311.662742 
L 153.290323 313.394884 
L 166.064516 314.312052 
L 178.83871 314.184624 
L 191.612903 312.002198 
L 204.387097 311.189074 
L 217.16129 310.566126 
L 229.935484 311.524663 
L 242.709677 305.950806 
L 255.483871 304.121614 
L 268.258065 305.439143 
L 281.032258 305.333509 
L 293.806452 306.234997 
L 306.580645 307.183658 
L 319.354839 307.300645 
L 332.129032 307.818209 
L 344.903226 307.206642 
L 357.677419 306.612115 
L 370.451613 306.824173 
L 383.225806 306.459992 
L 396 307.044134 
L 408.774194 305.107685 
L 421.548387 305.696368 
L 434.322581 306.33745 
L 447.096774 307.621726 
L 459.870968 308.549472 
L 472.645161 308.060487 
L 485.419355 306.9217 
L 498.193548 307.317569 
L 510.967742 306.472538 
L 523.741935 305.556175 
L 536.516129 306.004997 
L 549.290323 307.347006 
L 562.064516 307.376635 
L 574.83871 308.412558 
L 587.612903 307.908023 
L 600.387097 306.928624 
L 613.16129 308.060102 
L 625.935484 307.104312 
L 638.709677 307.871419 
L 651.483871 308.115287 
L 664.258065 306.772045 
L 677.032258 306.722667 
L 689.806452 305.826693 
L 702.580645 306.143296 
L 715.354839 306.984343 
L 728.129032 305.555123 
L 740.903226 305.073285 
L 753.677419 304.143862 
L 766.451613 302.198752 
L 779.225806 302.72498 
" clip-path="url(#p177ec997c1)" style="fill: none; stroke: #000000; stroke-width: 1.5; stroke-linecap: square"/>
   </g>
   <g id="line2d_5">
    <path d="M 0 306 
L 12.774194 306 
L 25.548387 302.394983 
L 38.322581 304.959889 
L 51.096774 305.117458 
L 63.870968 302.742204 
L 76.645161 303.133878 
L 89.419355 303.274154 
L 102.193548 305.931677 
L 114.967742 307.879329 
L 127.741935 310.51745 
L 140.516129 310.259607 
L 153.290323 311.663016 
L 166.064516 312.509445 
L 178.83871 312.636121 
L 191.612903 311.36379 
L 204.387097 310.904209 
L 217.16129 310.535422 
L 229.935484 311.143796 
L 242.709677 307.714959 
L 255.483871 306.414229 
L 268.258065 306.985845 
L 281.032258 306.771767 
L 293.806452 307.167916 
L 306.580645 307.636143 
L 319.354839 307.661748 
L 332.129032 307.92662 
L 344.903226 307.566893 
L 357.677419 307.196553 
L 370.451613 307.263353 
L 383.225806 307.019884 
L 396 307.295499 
L 408.774194 306.199972 
L 421.548387 306.428596 
L 434.322581 306.713781 
L 447.096774 307.383144 
L 459.870968 307.907511 
L 472.645161 307.693664 
L 485.419355 307.109572 
L 498.193548 307.30537 
L 510.967742 306.857171 
L 523.741935 306.338171 
L 536.516129 306.51793 
L 549.290323 307.18971 
L 562.064516 307.223394 
L 574.83871 307.789492 
L 587.612903 307.576762 
L 600.387097 307.084884 
L 613.16129 307.669064 
L 625.935484 307.19794 
L 638.709677 307.597 
L 651.483871 307.738446 
L 664.258065 307.05995 
L 677.032258 307.011664 
L 689.806452 306.516901 
L 702.580645 306.626704 
L 715.354839 307.028671 
L 728.129032 306.277274 
L 740.903226 305.966537 
L 753.677419 305.40573 
L 766.451613 304.283821 
L 779.225806 304.386602 
" clip-path="url(#p177ec997c1)" style="fill: none; stroke: #000000; stroke-width: 1.5; stroke-linecap: square"/>
   </g>
   <g id="line2d_6">
    <path d="M 0 306 
L 12.774194 306 
L 25.548387 302.469742 
L 38.322581 304.904509 
L 51.096774 305.067441 
L 63.870968 302.887932 
L 76.645161 303.215302 
L 89.419355 303.326675 
L 102.193548 305.636531 
L 114.967742 307.343901 
L 127.741935 309.630021 
L 140.516129 309.515765 
L 153.290323 310.736822 
L 166.064516 311.506668 
L 178.83871 311.700169 
L 191.612903 310.793825 
L 204.387097 310.489987 
L 217.16129 310.245086 
L 229.935484 310.7211 
L 242.709677 308.23246 
L 255.483871 307.250804 
L 268.258065 307.600988 
L 281.032258 307.407026 
L 293.806452 307.641403 
L 306.580645 307.934095 
L 319.354839 307.932504 
L 332.129032 308.094688 
L 344.903226 307.843547 
L 357.677419 307.581434 
L 370.451613 307.602459 
L 383.225806 307.424418 
L 396 307.578754 
L 408.774194 306.863215 
L 421.548387 306.970991 
L 434.322581 307.120232 
L 447.096774 307.515144 
L 459.870968 307.832231 
L 472.645161 307.704997 
L 485.419355 307.348513 
L 498.193548 307.454572 
L 510.967742 307.177463 
L 523.741935 306.851118 
L 536.516129 306.931875 
L 549.290323 307.307533 
L 562.064516 307.32143 
L 574.83871 307.646927 
L 587.612903 307.530443 
L 600.387097 307.248638 
L 613.16129 307.576422 
L 625.935484 307.311412 
L 638.709677 307.533196 
L 651.483871 307.616421 
L 664.258065 307.239176 
L 677.032258 307.203578 
L 689.806452 306.917475 
L 702.580645 306.960033 
L 715.354839 307.168015 
L 728.129032 306.74524 
L 740.903226 306.552051 
L 753.677419 306.216427 
L 766.451613 305.563588 
L 779.225806 305.561413 
" clip-path="url(#p177ec997c1)" style="fill: none; stroke: #000000; stroke-width: 1.5; stroke-linecap: square"/>
   </g>
   <g id="line2d_7">
    <path d="M 0 306 
L 12.774194 306 
L 25.548387 302.507152 
L 38.322581 304.878124 
L 51.096774 305.042798 
L 63.870968 302.957896 
L 76.645161 303.256346 
L 89.419355 303.354755 
L 102.193548 305.5001 
L 114.967742 307.089624 
L 127.741935 309.203488 
L 140.516129 309.143345 
L 153.290323 310.271268 
L 166.064516 310.994644 
L 178.83871 311.206611 
L 191.612903 310.455618 
L 204.387097 310.218203 
L 217.16129 310.02768 
L 229.935484 310.445609 
L 242.709677 308.371859 
L 255.483871 307.545516 
L 268.258065 307.817527 
L 281.032258 307.646386 
L 293.806452 307.823749 
L 306.580645 308.05 
L 319.354839 308.042789 
L 332.129032 308.165944 
L 344.903226 307.964841 
L 357.677419 307.754418 
L 370.451613 307.762767 
L 383.225806 307.61861 
L 396 307.727961 
L 408.774194 307.179104 
L 421.548387 307.246973 
L 434.322581 307.347171 
L 447.096774 307.631132 
L 459.870968 307.860282 
L 472.645161 307.766033 
L 485.419355 307.504423 
L 498.193548 307.5752 
L 510.967742 307.3718 
L 523.741935 307.131924 
L 536.516129 307.1791 
L 549.290323 307.435025 
L 562.064516 307.440311 
L 574.83871 307.6628 
L 587.612903 307.581652 
L 600.387097 307.386047 
L 613.16129 307.605731 
L 625.935484 307.424491 
L 638.709677 307.570871 
L 651.483871 307.625662 
L 664.258065 307.372889 
L 677.032258 307.344993 
L 689.806452 307.151105 
L 702.580645 307.171958 
L 715.354839 307.301864 
L 728.129032 307.021978 
L 740.903226 306.88825 
L 753.677419 306.661377 
L 766.451613 306.228361 
L 779.225806 306.207541 
" clip-path="url(#p177ec997c1)" style="fill: none; stroke: #000000; stroke-width: 1.5; stroke-linecap: square"/>
   </g>
   <g id="line2d_8">
    <path d="M 0 306 
L 12.774194 306 
L 25.548387 302.525861 
L 38.322581 304.865265 
L 51.096774 305.030588 
L 63.870968 302.992137 
L 76.645161 303.276902 
L 89.419355 303.369199 
L 102.193548 305.434775 
L 114.967742 306.966273 
L 127.741935 308.995466 
L 140.516129 308.958345 
L 153.290323 310.039639 
L 166.064516 310.738187 
L 178.83871 310.955951 
L 191.612903 310.275494 
L 204.387097 310.067975 
L 217.16129 309.902147 
L 229.935484 310.292766 
L 242.709677 308.410519 
L 255.483871 307.658468 
L 268.258065 307.898153 
L 281.032258 307.740229 
L 293.806452 307.894307 
L 306.580645 308.092429 
L 319.354839 308.084112 
L 332.129032 308.190925 
L 344.903226 308.013305 
L 357.677419 307.827418 
L 370.451613 307.831764 
L 383.225806 307.704251 
L 396 307.795282 
L 408.774194 307.321792 
L 421.548387 307.374661 
L 434.322581 307.455419 
L 447.096774 307.692184 
L 459.870968 307.883344 
L 472.645161 307.803476 
L 485.419355 307.583624 
L 498.193548 307.64005 
L 510.967742 307.469512 
L 523.741935 307.26864 
L 536.516129 307.303374 
L 549.290323 307.50919 
L 562.064516 307.511389 
L 574.83871 307.689952 
L 587.612903 307.623626 
L 600.387097 307.465055 
L 613.16129 307.639058 
L 625.935484 307.493485 
L 638.709677 307.608111 
L 651.483871 307.650564 
L 664.258065 307.450516 
L 677.032258 307.426679 
L 689.806452 307.272914 
L 702.580645 307.286252 
L 715.354839 307.384457 
L 728.129032 307.165934 
L 740.903226 307.059514 
L 753.677419 306.881358 
L 766.451613 306.545061 
L 779.225806 306.522132 
" clip-path="url(#p177ec997c1)" style="fill: none; stroke: #000000; stroke-width: 1.5; stroke-linecap: square"/>
   </g>
   <g id="line2d_9">
    <path d="M 0 306 
L 12.774194 306 
L 25.548387 302.535216 
L 38.322581 304.858919 
L 51.096774 305.024512 
L 63.870968 303.00907 
L 76.645161 303.287181 
L 89.419355 303.376515 
L 102.193548 305.402846 
L 114.967742 306.905592 
L 127.741935 308.892877 
L 140.516129 308.866312 
L 153.290323 309.924334 
L 166.064516 310.610135 
L 178.83871 310.829992 
L 191.612903 310.18302 
L 204.387097 309.98959 
L 217.16129 309.835438 
L 229.935484 310.212807 
L 242.709677 308.422141 
L 255.483871 307.706146 
L 268.258065 307.931167 
L 281.032258 307.78012 
L 293.806452 307.92373 
L 306.580645 308.108978 
L 319.354839 308.10046 
L 332.129032 308.199858 
L 344.903226 308.033515 
L 357.677419 307.859461 
L 370.451613 307.862312 
L 383.225806 307.742939 
L 396 307.825811 
L 408.774194 307.387773 
L 421.548387 307.434269 
L 434.322581 307.506523 
L 447.096774 307.721836 
L 459.870968 307.895634 
L 472.645161 307.822454 
L 485.419355 307.621957 
L 498.193548 307.672062 
L 510.967742 307.516826 
L 523.741935 307.334179 
L 536.516129 307.363725 
L 549.290323 307.547093 
L 562.064516 307.548099 
L 574.83871 307.706868 
L 587.612903 307.64728 
L 600.387097 307.505576 
L 613.16129 307.659126 
L 625.935484 307.529703 
L 638.709677 307.630183 
L 651.483871 307.667121 
L 664.258065 307.490782 
L 677.032258 307.46899 
L 689.806452 307.333454 
L 702.580645 307.343836 
L 715.354839 307.428238 
L 728.129032 307.237329 
L 740.903226 307.143572 
L 753.677419 306.987702 
L 766.451613 306.695196 
L 779.225806 306.672558 
" clip-path="url(#p177ec997c1)" style="fill: none; stroke: #000000; stroke-width: 1.5; stroke-linecap: square"/>
   </g>
  </g>
 </g>
 <defs>
  <clipPath id="p177ec997c1">
   <rect x="0" y="0" width="792" height="612"/>
  </clipPath>
 </defs>
</svg>
