<?xml version="1.0" encoding="utf-8" standalone="no"?>
<!DOCTYPE svg PUBLIC "-//W3C//DTD SVG 1.1//EN"
  "http://www.w3.org/Graphics/SVG/1.1/DTD/svg11.dtd">
<svg xmlns:xlink="http://www.w3.org/1999/xlink" width="792pt" height="612pt" viewBox="0 0 792 612" xmlns="http://www.w3.org/2000/svg" version="1.1">
 <metadata>
  <rdf:RDF xmlns:dc="http://purl.org/dc/elements/1.1/" xmlns:cc="http://creativecommons.org/ns#" xmlns:rdf="http://www.w3.org/1999/02/22-rdf-syntax-ns#">
   <cc:Work>
    <dc:type rdf:resource="http://purl.org/dc/dcmitype/StillImage"/>
    <dc:date>2023-01-30T16:20:40.938697</dc:date>
    <dc:format>image/svg+xml</dc:format>
    <dc:creator>
     <cc:Agent>
      <dc:title>Matplotlib v3.6.2, https://matplotlib.org/</dc:title>
     </cc:Agent>
    </dc:creator>
   </cc:Work>
  </rdf:RDF>
 </metadata>
 <defs>
  <style type="text/css">*{stroke-linejoin: round; stroke-linecap: butt}</style>
 </defs>
 <g id="figure_1">
  <g id="patch_1">
   <path d="M 0 612 
L 792 612 
L 792 0 
L 0 0 
z
" style="fill: #ffffff"/>
  </g>
  <g id="axes_1">
   <g id="line2d_1">
    <path d="M 0 459 
L 12.774194 448.635034 
L 25.548387 453.837022 
L 38.322581 453.111053 
L 51.096774 436.710927 
L 63.870968 434.699252 
L 76.645161 431.562936 
L 89.419355 451.457573 
L 102.193548 462.805167 
L 114.967742 472.956762 
L 127.741935 474.261007 
L 140.516129 481.857896 
L 153.290323 488.137095 
L 166.064516 491.928816 
L 178.83871 489.669918 
L 191.612903 490.27498 
L 204.387097 491.0145 
L 217.16129 496.177696 
L 229.935484 482.073029 
L 242.709677 476.479568 
L 255.483871 479.572107 
L 268.258065 478.967045 
L 281.032258 481.414184 
L 293.806452 484.466385 
L 306.580645 485.421039 
L 319.354839 487.679937 
L 332.129032 486.684946 
L 344.903226 485.434485 
L 357.677419 486.402584 
L 370.451613 485.676509 
L 383.225806 487.73372 
L 396 482.194042 
L 408.774194 483.592407 
L 421.548387 485.434485 
L 434.322581 489.629581 
L 447.096774 493.340627 
L 459.870968 493.058265 
L 472.645161 490.517005 
L 485.419355 492.211178 
L 498.193548 490.248089 
L 510.967742 487.639599 
L 523.741935 488.863169 
L 536.516129 493.071711 
L 549.290323 493.865015 
L 562.064516 497.818086 
L 574.83871 497.455049 
L 587.612903 495.330609 
L 600.387097 499.337464 
L 613.16129 497.374374 
L 625.935484 500.3459 
L 638.709677 501.986291 
L 651.483871 498.813077 
L 664.258065 499.055102 
L 677.032258 496.607962 
L 689.806452 497.522278 
L 702.580645 500.238334 
L 715.354839 496.258371 
L 728.129032 494.537306 
L 740.903226 491.162404 
L 753.677419 484.143686 
L 766.451613 483.901661 
L 779.225806 480.069602 
" clip-path="url(#pd4701c5dbd)" style="fill: none; stroke: #000000; stroke-width: 1.5; stroke-linecap: square"/>
   </g>
   <g id="line2d_2">
    <path d="M 0 459 
L 12.774194 459 
L 25.548387 452.08937 
L 38.322581 453.088007 
L 51.096774 453.100299 
L 63.870968 444.636747 
L 76.645161 439.586858 
L 89.419355 435.541512 
L 102.193548 443.526088 
L 114.967742 456.990258 
L 127.741935 465.677564 
L 140.516129 470.002584 
L 153.290323 475.978909 
L 166.064516 482.129713 
L 178.83871 487.109728 
L 191.612903 488.467915 
L 204.387097 489.437701 
L 217.16129 490.281413 
L 229.935484 493.275086 
L 242.709677 487.689375 
L 255.483871 482.073926 
L 268.258065 480.806222 
L 281.032258 479.861218 
L 293.806452 480.621513 
L 306.580645 482.53256 
L 319.354839 483.965832 
L 332.129032 485.806222 
L 344.903226 486.254627 
L 357.677419 485.862114 
L 370.451613 486.145742 
L 383.225806 485.924282 
L 396 486.841392 
L 408.774194 484.513261 
L 421.548387 484.049249 
L 434.322581 484.737464 
L 447.096774 487.189296 
L 459.870968 490.280464 
L 472.645161 491.682415 
L 485.419355 491.109201 
L 498.193548 491.668969 
L 510.967742 490.974321 
L 523.741935 489.314896 
L 536.516129 489.095755 
L 549.290323 491.090482 
L 562.064516 492.478777 
L 574.83871 495.157764 
L 587.612903 496.320011 
L 600.387097 495.831426 
L 613.16129 497.602267 
L 625.935484 497.507408 
L 638.709677 498.94917 
L 651.483871 500.48521 
L 664.258065 499.658845 
L 677.032258 499.359399 
L 689.806452 497.98202 
L 702.580645 497.756446 
L 715.354839 498.999156 
L 728.129032 497.626575 
L 740.903226 496.070551 
L 753.677419 493.595254 
L 766.451613 488.840707 
L 779.225806 486.341471 
" clip-path="url(#pd4701c5dbd)" style="fill: none; stroke: #000000; stroke-width: 1.5; stroke-linecap: square"/>
   </g>
   <g id="line2d_3">
    <path d="M 0 459 
L 12.774194 459 
L 25.548387 452.927666 
L 38.322581 453.339673 
L 51.096774 453.250391 
L 63.870968 447.361903 
L 76.645161 443.120336 
L 89.419355 439.404134 
L 102.193548 443.167739 
L 114.967742 451.513738 
L 127.741935 461.478601 
L 140.516129 465.307079 
L 153.290323 470.231648 
L 166.064516 475.534622 
L 178.83871 480.374179 
L 191.612903 483.111962 
L 204.387097 485.218189 
L 217.16129 486.952661 
L 229.935484 489.701283 
L 242.709677 487.495498 
L 255.483871 484.291338 
L 268.258065 482.941277 
L 281.032258 481.809498 
L 293.806452 481.729975 
L 306.580645 482.56359 
L 319.354839 483.426494 
L 332.129032 484.68921 
L 344.903226 485.288017 
L 357.677419 485.335025 
L 370.451613 485.645713 
L 383.225806 485.647552 
L 396 486.256352 
L 408.774194 485.057247 
L 421.548387 484.619681 
L 434.322581 484.845991 
L 447.096774 486.255752 
L 459.870968 488.35023 
L 472.645161 489.744672 
L 485.419355 489.984149 
L 498.193548 490.648833 
L 510.967742 490.538098 
L 523.741935 489.691696 
L 536.516129 489.450385 
L 549.290323 490.518383 
L 562.064516 491.508272 
L 574.83871 493.369485 
L 587.612903 494.579648 
L 600.387097 494.808325 
L 613.16129 496.15457 
L 625.935484 496.527672 
L 638.709677 497.663133 
L 651.483871 498.943549 
L 664.258065 498.91162 
L 677.032258 498.960533 
L 689.806452 498.278477 
L 702.580645 498.063092 
L 715.354839 498.71168 
L 728.129032 498.003022 
L 740.903226 496.994454 
L 753.677419 495.284094 
L 766.451613 492.009978 
L 779.225806 489.619122 
" clip-path="url(#pd4701c5dbd)" style="fill: none; stroke: #000000; stroke-width: 1.5; stroke-linecap: square"/>
   </g>
   <g id="line2d_4">
    <path d="M 0 459 
L 12.774194 459 
L 25.548387 453.368935 
L 38.322581 453.552641 
L 51.096774 453.412124 
L 63.870968 448.823817 
L 76.645161 445.344652 
L 89.419355 442.221169 
L 102.193548 444.179679 
L 114.967742 449.462251 
L 127.741935 459.132242 
L 140.516129 461.959567 
L 153.290323 465.577733 
L 166.064516 469.588599 
L 178.83871 473.487637 
L 191.612903 476.269024 
L 204.387097 478.645982 
L 217.16129 480.723018 
L 229.935484 483.295606 
L 242.709677 483.093582 
L 255.483871 482.007323 
L 268.258065 481.609415 
L 281.032258 481.179505 
L 293.806452 481.21755 
L 306.580645 481.742656 
L 319.354839 482.335692 
L 332.129032 483.19548 
L 344.903226 483.755873 
L 357.677419 484.025049 
L 370.451613 484.405825 
L 383.225806 484.609118 
L 396 485.108574 
L 408.774194 484.643043 
L 421.548387 484.491227 
L 434.322581 484.659952 
L 447.096774 485.470823 
L 459.870968 486.745588 
L 472.645161 487.775847 
L 485.419355 488.236698 
L 498.193548 488.895487 
L 510.967742 489.131757 
L 523.741935 488.909844 
L 536.516129 488.912342 
L 549.290323 489.58585 
L 562.064516 490.274172 
L 574.83871 491.480476 
L 587.612903 492.4345 
L 600.387097 492.898813 
L 613.16129 493.92888 
L 625.935484 494.481038 
L 638.709677 495.41676 
L 651.483871 496.47442 
L 664.258065 496.860444 
L 677.032258 497.221778 
L 689.806452 497.135124 
L 702.580645 497.206772 
L 715.354839 497.698945 
L 728.129032 497.476506 
L 740.903226 497.013148 
L 753.677419 496.085067 
L 766.451613 494.184345 
L 779.225806 492.546773 
" clip-path="url(#pd4701c5dbd)" style="fill: none; stroke: #000000; stroke-width: 1.5; stroke-linecap: square"/>
   </g>
   <g id="line2d_5">
    <path d="M 0 459 
L 12.774194 459 
L 25.548387 453.592474 
L 38.322581 453.681146 
L 51.096774 453.519599 
L 63.870968 449.548647 
L 76.645161 446.505931 
L 89.419355 443.775763 
L 102.193548 445.050406 
L 114.967742 448.936115 
L 127.741935 456.372106 
L 140.516129 460.303715 
L 153.290323 463.071012 
L 166.064516 466.149459 
L 178.83871 469.194268 
L 191.612903 471.530616 
L 204.387097 473.604891 
L 217.16129 475.479596 
L 229.935484 477.654718 
L 242.709677 478.108993 
L 255.483871 477.944718 
L 268.258065 478.105915 
L 281.032258 478.189865 
L 293.806452 478.499706 
L 306.580645 479.06566 
L 319.354839 479.66142 
L 332.129032 480.405094 
L 344.903226 480.981893 
L 357.677419 481.38727 
L 370.451613 481.840235 
L 383.225806 482.184195 
L 396 482.678472 
L 408.774194 482.635586 
L 421.548387 482.719826 
L 434.322581 482.95763 
L 447.096774 483.539413 
L 459.870968 484.390487 
L 472.645161 485.140263 
L 485.419355 485.603735 
L 498.193548 486.171473 
L 510.967742 486.52073 
L 523.741935 486.616331 
L 536.516129 486.807842 
L 549.290323 487.340555 
L 562.064516 487.894295 
L 574.83871 488.734964 
L 587.612903 489.472398 
L 600.387097 489.967034 
L 613.16129 490.757087 
L 625.935484 491.314278 
L 638.709677 492.073846 
L 651.483871 492.906572 
L 664.258065 493.402265 
L 677.032258 493.876229 
L 689.806452 494.105078 
L 702.580645 494.391129 
L 715.354839 494.880245 
L 728.129032 494.995449 
L 740.903226 494.957173 
L 753.677419 494.640314 
L 766.451613 493.764297 
L 779.225806 492.94157 
" clip-path="url(#pd4701c5dbd)" style="fill: none; stroke: #000000; stroke-width: 1.5; stroke-linecap: square"/>
   </g>
   <g id="line2d_6">
    <path d="M 0 459 
L 12.774194 459 
L 25.548387 453.704612 
L 38.322581 453.750674 
L 51.096774 453.580231 
L 63.870968 449.90508 
L 76.645161 447.086093 
L 89.419355 444.567385 
L 102.193548 445.56442 
L 114.967742 448.825976 
L 127.741935 455.100577 
L 140.516129 459.552388 
L 153.290323 461.885117 
L 166.064516 464.469843 
L 178.83871 467.029888 
L 191.612903 469.038545 
L 204.387097 470.839255 
L 217.16129 472.480404 
L 229.935484 474.33579 
L 242.709677 474.920585 
L 255.483871 475.034632 
L 268.258065 475.356663 
L 281.032258 475.605778 
L 293.806452 475.996171 
L 306.580645 476.551684 
L 319.354839 477.120192 
L 332.129032 477.782673 
L 344.903226 478.330038 
L 357.677419 478.758679 
L 370.451613 479.211741 
L 383.225806 479.588555 
L 396 480.05589 
L 408.774194 480.176757 
L 421.548387 480.36715 
L 434.322581 480.64589 
L 447.096774 481.133903 
L 459.870968 481.789184 
L 472.645161 482.38738 
L 485.419355 482.814361 
L 498.193548 483.30295 
L 510.967742 483.660631 
L 523.741935 483.863703 
L 536.516129 484.116671 
L 549.290323 484.566101 
L 562.064516 485.029182 
L 574.83871 485.661383 
L 587.612903 486.240311 
L 600.387097 486.68357 
L 613.16129 487.296694 
L 625.935484 487.782053 
L 638.709677 488.38368 
L 651.483871 489.031494 
L 664.258065 489.494912 
L 677.032258 489.945597 
L 689.806452 490.258189 
L 702.580645 490.59748 
L 715.354839 491.045851 
L 728.129032 491.28728 
L 740.903226 491.437223 
L 753.677419 491.424592 
L 766.451613 491.09112 
L 779.225806 490.762953 
" clip-path="url(#pd4701c5dbd)" style="fill: none; stroke: #000000; stroke-width: 1.5; stroke-linecap: square"/>
   </g>
   <g id="line2d_7">
    <path d="M 0 459 
L 12.774194 459 
L 25.548387 453.760728 
L 38.322581 453.786712 
L 51.096774 453.612268 
L 63.870968 450.081262 
L 76.645161 447.374352 
L 89.419355 444.963466 
L 102.193548 445.837817 
L 114.967742 448.809683 
L 127.741935 454.536312 
L 140.516129 459.204884 
L 153.290323 461.325543 
L 166.064516 463.666515 
L 178.83871 465.981626 
L 191.612903 467.81138 
L 204.387097 469.454807 
L 217.16129 470.954522 
L 229.935484 472.628499 
L 242.709677 473.228344 
L 255.483871 473.426498 
L 268.258065 473.786818 
L 281.032258 474.079643 
L 293.806452 474.480187 
L 306.580645 475.008025 
L 319.354839 475.541652 
L 332.129032 476.145681 
L 344.903226 476.655689 
L 357.677419 477.069351 
L 370.451613 477.498123 
L 383.225806 477.864852 
L 396 478.297259 
L 408.774194 478.464259 
L 421.548387 478.67942 
L 434.322581 478.95714 
L 447.096774 479.387443 
L 459.870968 479.939593 
L 472.645161 480.449469 
L 485.419355 480.834051 
L 498.193548 481.261491 
L 510.967742 481.593756 
L 523.741935 481.813869 
L 536.516129 482.066727 
L 549.290323 482.455856 
L 562.064516 482.853734 
L 574.83871 483.36867 
L 587.612903 483.847181 
L 600.387097 484.232439 
L 613.16129 484.73313 
L 625.935484 485.147299 
L 638.709677 485.639674 
L 651.483871 486.163495 
L 664.258065 486.564587 
L 677.032258 486.956606 
L 689.806452 487.256531 
L 702.580645 487.5725 
L 715.354839 487.958729 
L 728.129032 488.209543 
L 740.903226 488.3991 
L 753.677419 488.481179 
L 766.451613 488.353399 
L 779.225806 488.223299 
" clip-path="url(#pd4701c5dbd)" style="fill: none; stroke: #000000; stroke-width: 1.5; stroke-linecap: square"/>
   </g>
   <g id="line2d_8">
    <path d="M 0 459 
L 12.774194 459 
L 25.548387 453.788791 
L 38.322581 453.805043 
L 51.096774 453.628714 
L 63.870968 450.168782 
L 76.645161 447.517816 
L 89.419355 445.161148 
L 102.193548 445.978113 
L 114.967742 448.811069 
L 127.741935 454.273021 
L 140.516129 459.03912 
L 153.290323 461.055987 
L 166.064516 463.277189 
L 178.83871 465.470907 
L 191.612903 467.209333 
L 204.387097 468.770975 
L 217.16129 470.195836 
L 229.935484 471.775966 
L 242.709677 472.372353 
L 255.483871 472.599525 
L 268.258065 472.968738 
L 281.032258 473.273506 
L 293.806452 473.671203 
L 306.580645 474.179234 
L 319.354839 474.689757 
L 332.129032 475.259928 
L 344.903226 475.745323 
L 357.677419 476.144317 
L 370.451613 476.55428 
L 383.225806 476.908502 
L 396 477.317379 
L 408.774194 477.496732 
L 421.548387 477.715236 
L 434.322581 477.985169 
L 447.096774 478.382741 
L 459.870968 478.881781 
L 472.645161 479.344302 
L 485.419355 479.701027 
L 498.193548 480.092178 
L 510.967742 480.403342 
L 523.741935 480.620734 
L 536.516129 480.863671 
L 549.290323 481.216885 
L 562.064516 481.576304 
L 574.83871 482.029841 
L 587.612903 482.453312 
L 600.387097 482.801035 
L 613.16129 483.240432 
L 625.935484 483.610151 
L 638.709677 484.041294 
L 651.483871 484.496763 
L 664.258065 484.854898 
L 677.032258 485.20514 
L 689.806452 485.482532 
L 702.580645 485.771502 
L 715.354839 486.114191 
L 728.129032 486.351421 
L 740.903226 486.54047 
L 753.677419 486.645913 
L 766.451613 486.589507 
L 779.225806 486.529623 
" clip-path="url(#pd4701c5dbd)" style="fill: none; stroke: #000000; stroke-width: 1.5; stroke-linecap: square"/>
   </g>
   <g id="line2d_9">
    <path d="M 0 459 
L 12.774194 459 
L 25.548387 453.802824 
L 38.322581 453.814285 
L 51.096774 453.637044 
L 63.870968 450.21239 
L 76.645161 447.589356 
L 89.419355 445.259847 
L 102.193548 446.049094 
L 114.967742 448.814111 
L 127.741935 454.146174 
L 140.516129 458.87501 
L 153.290323 460.923981 
L 166.064516 463.085985 
L 178.83871 465.219487 
L 191.612903 466.912027 
L 204.387097 468.432263 
L 217.16129 469.818953 
L 229.935484 471.351703 
L 242.709677 471.943905 
L 255.483871 472.182544 
L 268.258065 472.553809 
L 281.032258 472.862193 
L 293.806452 473.256586 
L 306.580645 473.753324 
L 319.354839 474.250988 
L 332.129032 474.803202 
L 344.903226 475.274943 
L 357.677419 475.66493 
L 370.451613 476.063947 
L 383.225806 476.410159 
L 396 476.805879 
L 408.774194 476.988774 
L 421.548387 477.206706 
L 434.322581 477.470944 
L 447.096774 477.851263 
L 459.870968 478.323544 
L 472.645161 478.761819 
L 485.419355 479.103161 
L 498.193548 479.474996 
L 510.967742 479.773735 
L 523.741935 479.987092 
L 536.516129 480.222732 
L 549.290323 480.556779 
L 562.064516 480.895783 
L 574.83871 481.318367 
L 587.612903 481.713597 
L 600.387097 482.040866 
L 613.16129 482.448965 
L 625.935484 482.794825 
L 638.709677 483.194426 
L 651.483871 483.614975 
L 664.258065 483.949419 
L 677.032258 484.276399 
L 689.806452 484.539064 
L 702.580645 484.81128 
L 715.354839 485.129779 
L 728.129032 485.356083 
L 740.903226 485.54004 
L 753.677419 485.651066 
L 766.451613 485.62172 
L 779.225806 485.588699 
" clip-path="url(#pd4701c5dbd)" style="fill: none; stroke: #000000; stroke-width: 1.5; stroke-linecap: square"/>
   </g>
  </g>
 </g>
 <defs>
  <clipPath id="pd4701c5dbd">
   <rect x="0" y="0" width="792" height="612"/>
  </clipPath>
 </defs>
</svg>
