<?xml version="1.0" encoding="utf-8" standalone="no"?>
<!DOCTYPE svg PUBLIC "-//W3C//DTD SVG 1.1//EN"
  "http://www.w3.org/Graphics/SVG/1.1/DTD/svg11.dtd">
<svg xmlns:xlink="http://www.w3.org/1999/xlink" width="792pt" height="612pt" viewBox="0 0 792 612" xmlns="http://www.w3.org/2000/svg" version="1.1">
 <metadata>
  <rdf:RDF xmlns:dc="http://purl.org/dc/elements/1.1/" xmlns:cc="http://creativecommons.org/ns#" xmlns:rdf="http://www.w3.org/1999/02/22-rdf-syntax-ns#">
   <cc:Work>
    <dc:type rdf:resource="http://purl.org/dc/dcmitype/StillImage"/>
    <dc:date>2023-01-02T15:38:34.678331</dc:date>
    <dc:format>image/svg+xml</dc:format>
    <dc:creator>
     <cc:Agent>
      <dc:title>Matplotlib v3.6.2, https://matplotlib.org/</dc:title>
     </cc:Agent>
    </dc:creator>
   </cc:Work>
  </rdf:RDF>
 </metadata>
 <defs>
  <style type="text/css">*{stroke-linejoin: round; stroke-linecap: butt}</style>
 </defs>
 <g id="figure_1">
  <g id="patch_1">
   <path d="M 0 612 
L 792 612 
L 792 0 
L 0 0 
z
" style="fill: #ffffff"/>
  </g>
  <g id="axes_1">
   <g id="line2d_1">
    <path d="M 0 306 
L 12.571429 292.25141 
L 25.142857 306.369693 
L 37.714286 307.716413 
L 50.285714 321.14502 
L 62.857143 308.350144 
L 75.428571 309.855164 
L 88 304.177964 
L 100.571429 306.977042 
L 113.142857 320.855245 
L 125.714286 287.827244 
L 138.285714 299.214609 
L 150.857143 309.406314 
L 163.428571 305.524681 
L 176 295.25692 
L 188.571429 304.679677 
L 201.142857 303.940314 
L 213.714286 319.036977 
L 226.285714 318.404314 
L 238.857143 325.908841 
L 251.428571 308.561383 
L 264 320.907933 
L 276.571429 318.325223 
L 289.142857 313.445199 
L 301.714286 301.563997 
L 314.285714 307.188292 
L 326.857143 307.452354 
L 339.428571 316.136435 
L 352 278.374867 
L 364.571429 295.01956 
L 377.142857 312.072727 
L 389.714286 304.811708 
L 402.285714 310.805611 
L 414.857143 311.993538 
L 427.428571 307.874847 
L 440 310.436003 
L 452.571429 304.045936 
L 465.142857 303.544236 
L 477.714286 307.901253 
L 490.285714 304.574052 
L 502.857143 310.039979 
L 515.428571 295.125051 
L 528 308.746216 
L 540.571429 309.617539 
L 553.142857 314.236878 
L 565.714286 313.286851 
L 578.285714 305.445461 
L 590.857143 301.00959 
L 603.428571 309.327104 
L 616 302.144836 
L 628.571429 300.877593 
L 641.142857 308.402954 
L 653.714286 314.263265 
L 666.285714 307.557978 
L 678.857143 313.761883 
L 691.428571 305.287022 
L 704 301.828011 
L 716.571429 313.867441 
L 729.142857 302.144836 
L 741.714286 311.835157 
L 754.285714 309.22149 
L 766.857143 299.768897 
L 779.428571 306.475319 
" clip-path="url(#p0f45a005e6)" style="fill: none; stroke: #000000; stroke-width: 1.5; stroke-linecap: square"/>
   </g>
   <g id="line2d_2">
    <path d="M 0 306 
L 12.571429 306 
L 25.142857 296.830844 
L 37.714286 302.280621 
L 50.285714 305.179636 
L 62.857143 313.424768 
L 75.428571 310.847516 
L 88 310.347444 
L 100.571429 307.250735 
L 113.142857 307.115805 
L 125.714286 314.045643 
L 138.285714 300.890741 
L 150.857143 300.035964 
L 163.428571 304.697799 
L 176 305.105698 
L 188.571429 300.151178 
L 201.142857 302.416215 
L 213.714286 303.172293 
L 226.285714 311.104497 
L 238.857143 314.815613 
L 251.428571 320.419241 
L 264 314.491847 
L 276.571429 317.73132 
L 289.142857 318.073467 
L 301.714286 315.777064 
L 314.285714 308.667312 
L 326.857143 307.904566 
L 339.428571 307.656974 
L 352 311.878635 
L 364.571429 295.034763 
L 377.142857 294.976433 
L 389.714286 303.510376 
L 402.285714 304.144103 
L 414.857143 307.493153 
L 427.428571 309.75297 
L 440 308.814764 
L 452.571429 309.614226 
L 465.142857 306.880633 
L 477.714286 305.229135 
L 490.285714 306.557024 
L 502.857143 305.565068 
L 515.428571 307.801118 
L 528 301.428059 
L 540.571429 305.088715 
L 553.142857 307.351596 
L 565.714286 310.814825 
L 578.285714 312.070036 
L 590.857143 308.753257 
L 603.428571 304.874254 
L 616 307.099339 
L 628.571429 304.63577 
L 641.142857 302.741131 
L 653.714286 305.569624 
L 666.285714 309.917287 
L 678.857143 308.726438 
L 691.428571 311.260821 
L 704 308.282526 
L 716.571429 305.040459 
L 729.142857 309.477655 
L 741.714286 305.813704 
L 754.285714 308.831435 
L 766.857143 309.016575 
L 779.428571 304.377095 
" clip-path="url(#p0f45a005e6)" style="fill: none; stroke: #000000; stroke-width: 1.5; stroke-linecap: square"/>
   </g>
   <g id="line2d_3">
    <path d="M 0 306 
L 12.571429 306 
L 25.142857 297.942699 
L 37.714286 301.760069 
L 50.285714 304.086033 
L 62.857143 310.159555 
L 75.428571 309.553907 
L 88 309.650699 
L 100.571429 307.940997 
L 113.142857 307.64561 
L 125.714286 311.642334 
L 138.285714 304.503487 
L 150.857143 302.929585 
L 163.428571 304.847743 
L 176 305.047574 
L 188.571429 302.162926 
L 201.142857 302.902918 
L 213.714286 303.204392 
L 226.285714 307.874669 
L 238.857143 310.974132 
L 251.428571 315.374959 
L 264 313.365511 
L 276.571429 315.590396 
L 289.142857 316.401312 
L 301.714286 315.546299 
L 314.285714 311.446285 
L 326.857143 310.183584 
L 339.428571 309.406238 
L 352 311.397535 
L 364.571429 301.668286 
L 377.142857 299.708148 
L 389.714286 303.348643 
L 402.285714 303.777307 
L 414.857143 305.843823 
L 427.428571 307.637144 
L 440 307.694664 
L 452.571429 308.479828 
L 465.142857 307.17601 
L 477.714286 306.092319 
L 490.285714 306.610169 
L 502.857143 306.003611 
L 515.428571 307.195635 
L 528 303.64509 
L 540.571429 305.140652 
L 553.142857 306.444458 
L 565.714286 308.768593 
L 578.285714 310.113158 
L 590.857143 308.73851 
L 603.428571 306.470316 
L 616 307.305382 
L 628.571429 305.782526 
L 641.142857 304.337743 
L 653.714286 305.526083 
L 666.285714 308.097438 
L 678.857143 307.944045 
L 691.428571 309.655116 
L 704 308.376625 
L 716.571429 306.449105 
L 729.142857 308.643863 
L 741.714286 306.732745 
L 754.285714 308.229923 
L 766.857143 308.51459 
L 779.428571 305.937294 
" clip-path="url(#p0f45a005e6)" style="fill: none; stroke: #000000; stroke-width: 1.5; stroke-linecap: square"/>
   </g>
   <g id="line2d_4">
    <path d="M 0 306 
L 12.571429 306 
L 25.142857 298.528033 
L 37.714286 301.605003 
L 50.285714 303.549549 
L 62.857143 308.383324 
L 75.428571 308.375158 
L 88 308.71027 
L 100.571429 307.748828 
L 113.142857 307.59335 
L 125.714286 310.158478 
L 138.285714 305.981333 
L 150.857143 304.750726 
L 163.428571 305.57847 
L 176 305.569082 
L 188.571429 303.795922 
L 201.142857 303.945902 
L 213.714286 303.944964 
L 226.285714 306.458471 
L 238.857143 308.433529 
L 251.428571 311.307739 
L 264 310.859039 
L 276.571429 312.495269 
L 289.142857 313.44083 
L 301.714286 313.441536 
L 314.285714 311.527196 
L 326.857143 310.829253 
L 339.428571 310.286996 
L 352 311.225313 
L 364.571429 305.952474 
L 377.142857 304.202611 
L 389.714286 305.460729 
L 402.285714 305.357062 
L 414.857143 306.227007 
L 427.428571 307.156923 
L 440 307.272087 
L 452.571429 307.77721 
L 465.142857 307.172882 
L 477.714286 306.592548 
L 490.285714 306.799551 
L 502.857143 306.445713 
L 515.428571 307.019519 
L 528 305.110279 
L 540.571429 305.701845 
L 553.142857 306.331364 
L 565.714286 307.592477 
L 578.285714 308.503492 
L 590.857143 308.023325 
L 603.428571 306.905076 
L 616 307.293806 
L 628.571429 306.464016 
L 641.142857 305.56418 
L 653.714286 306.004907 
L 666.285714 307.322711 
L 678.857143 307.351806 
L 691.428571 308.369047 
L 704 307.873611 
L 716.571429 306.911875 
L 729.142857 308.022948 
L 741.714286 307.084395 
L 754.285714 307.837667 
L 766.857143 308.077137 
L 779.428571 306.758121 
" clip-path="url(#p0f45a005e6)" style="fill: none; stroke: #000000; stroke-width: 1.5; stroke-linecap: square"/>
   </g>
   <g id="line2d_5">
    <path d="M 0 306 
L 12.571429 306 
L 25.142857 298.824569 
L 37.714286 301.559864 
L 50.285714 303.304271 
L 62.857143 307.518714 
L 75.428571 307.688933 
L 88 308.084312 
L 100.571429 307.435903 
L 113.142857 307.365573 
L 125.714286 309.298944 
L 138.285714 306.39589 
L 150.857143 305.473758 
L 163.428571 305.956745 
L 176 305.905714 
L 188.571429 304.690151 
L 201.142857 304.688992 
L 213.714286 304.608372 
L 226.285714 306.125466 
L 238.857143 307.388625 
L 251.428571 309.258526 
L 264 309.189473 
L 276.571429 310.332843 
L 289.142857 311.101301 
L 301.714286 311.323656 
L 314.285714 310.408928 
L 326.857143 310.110262 
L 339.428571 309.866155 
L 352 310.437234 
L 364.571429 307.534938 
L 377.142857 306.412398 
L 389.714286 306.916612 
L 402.285714 306.730267 
L 414.857143 307.0891 
L 427.428571 307.518787 
L 440 307.549835 
L 452.571429 307.800469 
L 465.142857 307.475701 
L 477.714286 307.136812 
L 490.285714 307.202497 
L 502.857143 306.977311 
L 515.428571 307.239015 
L 528 306.206088 
L 540.571429 306.42212 
L 553.142857 306.693333 
L 565.714286 307.332527 
L 578.285714 307.83617 
L 590.857143 307.634316 
L 603.428571 307.075736 
L 616 307.265314 
L 628.571429 306.834664 
L 641.142857 306.334184 
L 653.714286 306.507805 
L 666.285714 307.158228 
L 678.857143 307.191717 
L 691.428571 307.741826 
L 704 307.536487 
L 716.571429 307.059274 
L 729.142857 307.628195 
L 741.714286 307.170331 
L 754.285714 307.559694 
L 766.857143 307.698324 
L 779.428571 307.037082 
" clip-path="url(#p0f45a005e6)" style="fill: none; stroke: #000000; stroke-width: 1.5; stroke-linecap: square"/>
   </g>
   <g id="line2d_6">
    <path d="M 0 306 
L 12.571429 306 
L 25.142857 298.973329 
L 37.714286 301.545838 
L 50.285714 303.189979 
L 62.857143 307.101291 
L 75.428571 307.332612 
L 88 307.741476 
L 100.571429 307.225659 
L 113.142857 307.193013 
L 125.714286 308.841861 
L 138.285714 306.489186 
L 150.857143 305.728288 
L 163.428571 306.090434 
L 176 306.037688 
L 188.571429 305.080813 
L 201.142857 305.0468 
L 213.714286 304.956791 
L 226.285714 306.059818 
L 238.857143 306.99335 
L 251.428571 308.379115 
L 264 308.392051 
L 276.571429 309.256381 
L 289.142857 309.866271 
L 301.714286 310.101036 
L 314.285714 309.553879 
L 326.857143 309.40548 
L 339.428571 309.285396 
L 352 309.69891 
L 364.571429 307.83798 
L 377.142857 307.090568 
L 389.714286 307.376464 
L 402.285714 307.231483 
L 414.857143 307.430727 
L 427.428571 307.681749 
L 440 307.692239 
L 452.571429 307.83954 
L 465.142857 307.638169 
L 477.714286 307.42315 
L 490.285714 307.44801 
L 502.857143 307.3 
L 515.428571 307.439847 
L 528 306.816506 
L 540.571429 306.913356 
L 553.142857 307.04803 
L 565.714286 307.403492 
L 578.285714 307.692355 
L 590.857143 307.582795 
L 603.428571 307.264285 
L 616 307.363638 
L 628.571429 307.113726 
L 641.142857 306.816715 
L 653.714286 306.891868 
L 666.285714 307.239459 
L 678.857143 307.254404 
L 691.428571 307.558426 
L 704 307.45279 
L 716.571429 307.19226 
L 729.142857 307.500301 
L 741.714286 307.254136 
L 754.285714 307.463978 
L 766.857143 307.544204 
L 779.428571 307.190413 
" clip-path="url(#p0f45a005e6)" style="fill: none; stroke: #000000; stroke-width: 1.5; stroke-linecap: square"/>
   </g>
   <g id="line2d_7">
    <path d="M 0 306 
L 12.571429 306 
L 25.142857 299.047771 
L 37.714286 301.540991 
L 50.285714 303.135219 
L 62.857143 306.897404 
L 75.428571 307.15283 
L 88 307.564433 
L 100.571429 307.10835 
L 113.142857 307.092465 
L 125.714286 308.607944 
L 138.285714 306.505518 
L 150.857143 305.822877 
L 163.428571 306.135767 
L 176 306.085709 
L 188.571429 305.248922 
L 201.142857 305.207276 
L 213.714286 305.119144 
L 226.285714 306.043345 
L 238.857143 306.82885 
L 251.428571 307.993418 
L 264 308.026719 
L 276.571429 308.755483 
L 289.142857 309.278402 
L 301.714286 309.498689 
L 314.285714 309.09209 
L 326.857143 308.997358 
L 339.428571 308.922596 
L 352 309.262653 
L 364.571429 307.840289 
L 377.142857 307.265195 
L 389.714286 307.475869 
L 402.285714 307.361695 
L 414.857143 307.506204 
L 427.428571 307.690717 
L 440 307.698141 
L 452.571429 307.806491 
L 465.142857 307.660334 
L 477.714286 307.5031 
L 490.285714 307.518059 
L 502.857143 307.409211 
L 515.428571 307.504996 
L 528 307.06077 
L 540.571429 307.120368 
L 553.142857 307.207458 
L 565.714286 307.44941 
L 578.285714 307.647748 
L 590.857143 307.573865 
L 603.428571 307.356267 
L 616 307.420841 
L 628.571429 307.249915 
L 641.142857 307.045704 
L 653.714286 307.08874 
L 666.285714 307.313975 
L 678.857143 307.321557 
L 691.428571 307.51983 
L 704 307.451745 
L 716.571429 307.281792 
L 729.142857 307.479122 
L 741.714286 307.320674 
L 754.285714 307.453686 
L 766.857143 307.505351 
L 779.428571 307.280985 
" clip-path="url(#p0f45a005e6)" style="fill: none; stroke: #000000; stroke-width: 1.5; stroke-linecap: square"/>
   </g>
   <g id="line2d_8">
    <path d="M 0 306 
L 12.571429 306 
L 25.142857 299.085 
L 37.714286 301.539112 
L 50.285714 303.108471 
L 62.857143 306.796799 
L 75.428571 307.062755 
L 88 307.47477 
L 100.571429 307.046883 
L 113.142857 307.038782 
L 125.714286 308.489907 
L 138.285714 306.506116 
L 150.857143 305.861549 
L 163.428571 306.152303 
L 176 306.104249 
L 188.571429 305.324675 
L 201.142857 305.281005 
L 213.714286 305.195123 
L 226.285714 306.037417 
L 238.857143 306.754078 
L 251.428571 307.815075 
L 264 307.854594 
L 276.571429 308.518386 
L 289.142857 308.997763 
L 301.714286 309.207107 
L 314.285714 308.860026 
L 326.857143 308.786652 
L 339.428571 308.729966 
L 352 309.035082 
L 364.571429 307.806833 
L 377.142857 307.310124 
L 389.714286 307.490037 
L 402.285714 307.391536 
L 414.857143 307.513927 
L 427.428571 307.670596 
L 440 307.677569 
L 452.571429 307.769606 
L 465.142857 307.64812 
L 477.714286 307.517092 
L 490.285714 307.529103 
L 502.857143 307.438565 
L 515.428571 307.516722 
L 528 307.151362 
L 540.571429 307.197507 
L 553.142857 307.26628 
L 565.714286 307.460979 
L 578.285714 307.620951 
L 590.857143 307.562208 
L 603.428571 307.388087 
L 616 307.43881 
L 628.571429 307.302425 
L 641.142857 307.139344 
L 653.714286 307.170955 
L 666.285714 307.345931 
L 678.857143 307.351089 
L 691.428571 307.504993 
L 704 307.452455 
L 716.571429 307.320919 
L 729.142857 307.472144 
L 741.714286 307.350608 
L 754.285714 307.451712 
L 766.857143 307.491144 
L 779.428571 307.321036 
" clip-path="url(#p0f45a005e6)" style="fill: none; stroke: #000000; stroke-width: 1.5; stroke-linecap: square"/>
   </g>
   <g id="line2d_9">
    <path d="M 0 306 
L 12.571429 306 
L 25.142857 299.103616 
L 37.714286 301.538309 
L 50.285714 303.095259 
L 62.857143 306.746846 
L 75.428571 307.017698 
L 88 307.429688 
L 100.571429 307.01548 
L 113.142857 307.011116 
L 125.714286 308.430657 
L 138.285714 306.504541 
L 150.857143 305.878695 
L 163.428571 306.158965 
L 176 306.112047 
L 188.571429 305.360315 
L 201.142857 305.316025 
L 213.714286 305.231546 
L 226.285714 306.034784 
L 238.857143 306.7184 
L 251.428571 307.729549 
L 264 307.771342 
L 276.571429 308.40356 
L 289.142857 308.86139 
L 301.714286 309.064554 
L 314.285714 308.744643 
L 326.857143 308.680646 
L 339.428571 308.631881 
L 352 308.920069 
L 364.571429 307.782256 
L 377.142857 307.322429 
L 389.714286 307.48846 
L 402.285714 307.397602 
L 414.857143 307.510083 
L 427.428571 307.654091 
L 440 307.660996 
L 452.571429 307.745614 
L 465.142857 307.635572 
L 477.714286 307.516771 
L 490.285714 307.527677 
L 502.857143 307.445774 
L 515.428571 307.516145 
L 528 307.187074 
L 540.571429 307.22761 
L 553.142857 307.288492 
L 565.714286 307.462053 
L 578.285714 307.604748 
L 590.857143 307.552853 
L 603.428571 307.398463 
L 616 307.443157 
L 628.571429 307.322522 
L 641.142857 307.178281 
L 653.714286 307.205231 
L 666.285714 307.358052 
L 678.857143 307.36231 
L 691.428571 307.496521 
L 704 307.450905 
L 716.571429 307.336558 
L 729.142857 307.467444 
L 741.714286 307.362336 
L 754.285714 307.449424 
L 766.857143 307.483445 
L 779.428571 307.337344 
" clip-path="url(#p0f45a005e6)" style="fill: none; stroke: #000000; stroke-width: 1.5; stroke-linecap: square"/>
   </g>
  </g>
 </g>
 <defs>
  <clipPath id="p0f45a005e6">
   <rect x="0" y="0" width="792" height="612"/>
  </clipPath>
 </defs>
</svg>
