<?xml version="1.0" encoding="utf-8" standalone="no"?>
<!DOCTYPE svg PUBLIC "-//W3C//DTD SVG 1.1//EN"
  "http://www.w3.org/Graphics/SVG/1.1/DTD/svg11.dtd">
<svg xmlns:xlink="http://www.w3.org/1999/xlink" width="792pt" height="612pt" viewBox="0 0 792 612" xmlns="http://www.w3.org/2000/svg" version="1.1">
 <metadata>
  <rdf:RDF xmlns:dc="http://purl.org/dc/elements/1.1/" xmlns:cc="http://creativecommons.org/ns#" xmlns:rdf="http://www.w3.org/1999/02/22-rdf-syntax-ns#">
   <cc:Work>
    <dc:type rdf:resource="http://purl.org/dc/dcmitype/StillImage"/>
    <dc:date>2023-01-09T02:28:08.028855</dc:date>
    <dc:format>image/svg+xml</dc:format>
    <dc:creator>
     <cc:Agent>
      <dc:title>Matplotlib v3.6.2, https://matplotlib.org/</dc:title>
     </cc:Agent>
    </dc:creator>
   </cc:Work>
  </rdf:RDF>
 </metadata>
 <defs>
  <style type="text/css">*{stroke-linejoin: round; stroke-linecap: butt}</style>
 </defs>
 <g id="figure_1">
  <g id="patch_1">
   <path d="M 0 612 
L 792 612 
L 792 0 
L 0 0 
z
" style="fill: #ffffff"/>
  </g>
  <g id="axes_1">
   <g id="line2d_1">
    <path d="M 0 459 
L 44 459.148201 
L 88 459.912004 
L 132 463.685418 
L 176 464.608822 
L 220 463.731019 
L 264 463.012816 
L 308 461.337009 
L 352 463.047016 
L 396 462.340213 
L 440 461.815811 
L 484 460.995008 
L 528 460.128604 
L 572 459.1254 
L 616 455.887835 
L 660 451.579218 
L 704 455.101278 
L 748 446.246633 
" clip-path="url(#pd7035d218c)" style="fill: none; stroke: #000000; stroke-width: 1.5; stroke-linecap: square"/>
   </g>
   <g id="line2d_2">
    <path d="M 0 459 
L 44 459 
L 88 459.0988 
L 132 459.563488 
L 176 461.761851 
L 220 463.231255 
L 264 463.485103 
L 308 463.2471 
L 352 462.288309 
L 396 462.675598 
L 440 462.514164 
L 484 462.168721 
L 528 461.576589 
L 572 460.843812 
L 616 459.975576 
L 660 458.87755 
L 704 455.199848 
L 748 455.119115 
" clip-path="url(#pd7035d218c)" style="fill: none; stroke: #000000; stroke-width: 1.5; stroke-linecap: square"/>
   </g>
   <g id="line2d_3">
    <path d="M 0 459 
L 44 459 
L 88 459.086814 
L 132 459.460692 
L 176 461.11055 
L 220 462.355195 
L 264 462.815731 
L 308 462.879053 
L 352 462.397288 
L 396 462.596388 
L 440 462.518936 
L 484 462.308342 
L 528 461.917569 
L 572 461.38774 
L 616 460.719898 
L 660 459.907817 
L 704 458.740432 
L 748 457.670047 
" clip-path="url(#pd7035d218c)" style="fill: none; stroke: #000000; stroke-width: 1.5; stroke-linecap: square"/>
   </g>
   <g id="line2d_4">
    <path d="M 0 459 
L 44 459 
L 88 459.080505 
L 132 459.406838 
L 176 460.768313 
L 220 461.822643 
L 264 462.292333 
L 308 462.455463 
L 352 462.218196 
L 396 462.385165 
L 440 462.376478 
L 484 462.271698 
L 528 462.039554 
L 572 461.699803 
L 616 461.250493 
L 660 460.685374 
L 704 459.979517 
L 748 459.596785 
" clip-path="url(#pd7035d218c)" style="fill: none; stroke: #000000; stroke-width: 1.5; stroke-linecap: square"/>
   </g>
   <g id="line2d_5">
    <path d="M 0 459 
L 44 459 
L 88 459.077308 
L 132 459.379964 
L 176 460.599983 
L 220 461.546332 
L 264 461.993598 
L 308 462.179616 
L 352 462.03975 
L 396 462.194135 
L 440 462.215054 
L 484 462.161127 
L 528 462.011411 
L 572 461.780178 
L 616 461.466621 
L 660 461.066799 
L 704 460.564329 
L 748 460.255934 
" clip-path="url(#pd7035d218c)" style="fill: none; stroke: #000000; stroke-width: 1.5; stroke-linecap: square"/>
   </g>
   <g id="line2d_6">
    <path d="M 0 459 
L 44 459 
L 88 459.075705 
L 132 459.366631 
L 176 460.517469 
L 220 461.408127 
L 264 461.838382 
L 308 462.028728 
L 352 461.928601 
L 396 462.075461 
L 440 462.107387 
L 484 462.074776 
L 528 461.961853 
L 572 461.781355 
L 616 461.533736 
L 660 461.216899 
L 704 460.819158 
L 748 460.565463 
" clip-path="url(#pd7035d218c)" style="fill: none; stroke: #000000; stroke-width: 1.5; stroke-linecap: square"/>
   </g>
   <g id="line2d_7">
    <path d="M 0 459 
L 44 459 
L 88 459.074903 
L 132 459.360002 
L 176 460.47674 
L 220 461.33934 
L 264 461.759846 
L 308 461.950681 
L 352 461.868032 
L 396 462.010663 
L 440 462.046922 
L 484 462.023564 
L 528 461.927275 
L 572 461.77023 
L 616 461.553578 
L 660 461.2762 
L 704 460.928691 
L 748 460.704128 
" clip-path="url(#pd7035d218c)" style="fill: none; stroke: #000000; stroke-width: 1.5; stroke-linecap: square"/>
   </g>
   <g id="line2d_8">
    <path d="M 0 459 
L 44 459 
L 88 459.074502 
L 132 459.356698 
L 176 460.456522 
L 220 461.305067 
L 264 461.720418 
L 308 461.911099 
L 352 461.836588 
L 396 461.97698 
L 440 462.015099 
L 484 461.995985 
L 528 461.907512 
L 572 461.761606 
L 616 461.559764 
L 660 461.301348 
L 704 460.97805 
L 748 460.768092 
" clip-path="url(#pd7035d218c)" style="fill: none; stroke: #000000; stroke-width: 1.5; stroke-linecap: square"/>
   </g>
   <g id="line2d_9">
    <path d="M 0 459 
L 44 459 
L 88 459.074301 
L 132 459.355049 
L 176 460.446451 
L 220 461.287965 
L 264 461.700673 
L 308 461.891181 
L 352 461.820589 
L 396 461.959829 
L 440 461.998801 
L 484 461.981712 
L 528 461.897015 
L 572 461.75652 
L 616 461.561896 
L 660 461.312741 
L 704 461.001278 
L 748 460.798583 
" clip-path="url(#pd7035d218c)" style="fill: none; stroke: #000000; stroke-width: 1.5; stroke-linecap: square"/>
   </g>
  </g>
 </g>
 <defs>
  <clipPath id="pd7035d218c">
   <rect x="0" y="0" width="792" height="612"/>
  </clipPath>
 </defs>
</svg>
