<?xml version="1.0" encoding="utf-8" standalone="no"?>
<!DOCTYPE svg PUBLIC "-//W3C//DTD SVG 1.1//EN"
  "http://www.w3.org/Graphics/SVG/1.1/DTD/svg11.dtd">
<svg xmlns:xlink="http://www.w3.org/1999/xlink" width="792pt" height="612pt" viewBox="0 0 792 612" xmlns="http://www.w3.org/2000/svg" version="1.1">
 <metadata>
  <rdf:RDF xmlns:dc="http://purl.org/dc/elements/1.1/" xmlns:cc="http://creativecommons.org/ns#" xmlns:rdf="http://www.w3.org/1999/02/22-rdf-syntax-ns#">
   <cc:Work>
    <dc:type rdf:resource="http://purl.org/dc/dcmitype/StillImage"/>
    <dc:date>2023-01-30T17:15:58.368723</dc:date>
    <dc:format>image/svg+xml</dc:format>
    <dc:creator>
     <cc:Agent>
      <dc:title>Matplotlib v3.6.2, https://matplotlib.org/</dc:title>
     </cc:Agent>
    </dc:creator>
   </cc:Work>
  </rdf:RDF>
 </metadata>
 <defs>
  <style type="text/css">*{stroke-linejoin: round; stroke-linecap: butt}</style>
 </defs>
 <g id="figure_1">
  <g id="patch_1">
   <path d="M 0 612 
L 792 612 
L 792 0 
L 0 0 
z
" style="fill: #ffffff"/>
  </g>
  <g id="axes_1">
   <g id="line2d_1">
    <path d="M 0 459 
L 46.588235 456.491447 
L 93.176471 453.843697 
L 139.764706 450.77832 
L 186.352941 447.226206 
L 232.941176 442.840293 
L 279.529412 446.425418 
L 326.117647 437.414295 
L 372.705882 439.396251 
L 419.294118 435.12041 
L 465.882353 431.542992 
L 512.470588 432.029056 
L 559.058824 419.829302 
L 605.647059 427.483404 
L 652.235294 442.179162 
L 698.823529 448.514577 
L 745.411765 447.36548 
" clip-path="url(#p07c7cd168a)" style="fill: none; stroke: #000000; stroke-width: 1.5; stroke-linecap: square"/>
   </g>
   <g id="line2d_2">
    <path d="M 0 459 
L 46.588235 459 
L 93.176471 457.327622 
L 139.764706 455.336758 
L 186.352941 452.905444 
L 232.941176 449.973881 
L 279.529412 446.349709 
L 326.117647 446.387862 
L 372.705882 441.881846 
L 419.294118 440.600513 
L 465.882353 437.81785 
L 512.470588 434.635614 
L 559.058824 433.29542 
L 605.647059 426.501713 
L 652.235294 426.962473 
L 698.823529 434.555773 
L 745.411765 441.552892 
" clip-path="url(#p07c7cd168a)" style="fill: none; stroke: #000000; stroke-width: 1.5; stroke-linecap: square"/>
   </g>
   <g id="line2d_3">
    <path d="M 0 459 
L 46.588235 459 
L 93.176471 457.530514 
L 139.764706 455.860032 
L 186.352941 453.87534 
L 232.941176 451.509264 
L 279.529412 448.606553 
L 326.117647 447.905717 
L 372.705882 444.62623 
L 419.294118 443.023116 
L 465.882353 440.632585 
L 512.470588 437.908307 
L 559.058824 436.158168 
L 605.647059 431.314195 
L 652.235294 430.18292 
L 698.823529 433.712693 
L 745.411765 438.060979 
" clip-path="url(#p07c7cd168a)" style="fill: none; stroke: #000000; stroke-width: 1.5; stroke-linecap: square"/>
   </g>
   <g id="line2d_4">
    <path d="M 0 459 
L 46.588235 459 
L 93.176471 457.637311 
L 139.764706 456.148402 
L 186.352941 454.439449 
L 232.941176 452.458831 
L 279.529412 450.090655 
L 326.117647 449.260663 
L 372.705882 446.745977 
L 419.294118 445.264717 
L 465.882353 443.302781 
L 512.470588 441.103028 
L 559.058824 439.451832 
L 605.647059 435.955793 
L 652.235294 434.475808 
L 698.823529 435.798985 
L 745.411765 437.954979 
" clip-path="url(#p07c7cd168a)" style="fill: none; stroke: #000000; stroke-width: 1.5; stroke-linecap: square"/>
   </g>
   <g id="line2d_5">
    <path d="M 0 459 
L 46.588235 459 
L 93.176471 457.691411 
L 139.764706 456.296201 
L 186.352941 454.732473 
L 232.941176 452.960147 
L 279.529412 450.88753 
L 326.117647 450.073009 
L 372.705882 447.970304 
L 419.294118 446.655501 
L 465.882353 445.002294 
L 512.470588 443.182367 
L 559.058824 441.749091 
L 605.647059 439.050766 
L 652.235294 437.682929 
L 698.823529 438.195775 
L 745.411765 439.336821 
" clip-path="url(#p07c7cd168a)" style="fill: none; stroke: #000000; stroke-width: 1.5; stroke-linecap: square"/>
   </g>
   <g id="line2d_6">
    <path d="M 0 459 
L 46.588235 459 
L 93.176471 457.71855 
L 139.764706 456.370542 
L 186.352941 454.880224 
L 232.941176 453.213657 
L 279.529412 451.291501 
L 326.117647 450.502684 
L 372.705882 448.60676 
L 419.294118 447.39668 
L 465.882353 445.915066 
L 512.470588 444.305842 
L 559.058824 443.020635 
L 605.647059 440.731682 
L 652.235294 439.494891 
L 698.823529 439.732993 
L 745.411765 440.477156 
" clip-path="url(#p07c7cd168a)" style="fill: none; stroke: #000000; stroke-width: 1.5; stroke-linecap: square"/>
   </g>
   <g id="line2d_7">
    <path d="M 0 459 
L 46.588235 459 
L 93.176471 457.732131 
L 139.764706 456.407763 
L 186.352941 454.954208 
L 232.941176 453.340599 
L 279.529412 451.493688 
L 326.117647 450.721613 
L 372.705882 448.928089 
L 419.294118 447.774318 
L 465.882353 446.380883 
L 512.470588 444.879489 
L 559.058824 443.675243 
L 605.647059 441.588024 
L 652.235294 440.431039 
L 698.823529 440.56605 
L 745.411765 441.147244 
" clip-path="url(#p07c7cd168a)" style="fill: none; stroke: #000000; stroke-width: 1.5; stroke-linecap: square"/>
   </g>
   <g id="line2d_8">
    <path d="M 0 459 
L 46.588235 459 
L 93.176471 457.738922 
L 139.764706 456.426378 
L 186.352941 454.991201 
L 232.941176 453.40405 
L 279.529412 451.59468 
L 326.117647 450.831855 
L 372.705882 449.089122 
L 419.294118 447.964275 
L 465.882353 446.615231 
L 512.470588 445.167953 
L 559.058824 444.005424 
L 605.647059 442.017512 
L 652.235294 440.903126 
L 698.823529 440.994785 
L 745.411765 441.503647 
" clip-path="url(#p07c7cd168a)" style="fill: none; stroke: #000000; stroke-width: 1.5; stroke-linecap: square"/>
   </g>
   <g id="line2d_9">
    <path d="M 0 459 
L 46.588235 459 
L 93.176471 457.742318 
L 139.764706 456.435686 
L 186.352941 455.009694 
L 232.941176 453.435761 
L 279.529412 451.645131 
L 326.117647 450.88714 
L 372.705882 449.169679 
L 419.294118 448.059457 
L 465.882353 446.732646 
L 512.470588 445.312422 
L 559.058824 444.170991 
L 605.647059 442.232238 
L 652.235294 441.139703 
L 698.823529 441.211652 
L 745.411765 441.686622 
" clip-path="url(#p07c7cd168a)" style="fill: none; stroke: #000000; stroke-width: 1.5; stroke-linecap: square"/>
   </g>
  </g>
 </g>
 <defs>
  <clipPath id="p07c7cd168a">
   <rect x="0" y="0" width="792" height="612"/>
  </clipPath>
 </defs>
</svg>
