<?xml version="1.0" encoding="utf-8" standalone="no"?>
<!DOCTYPE svg PUBLIC "-//W3C//DTD SVG 1.1//EN"
  "http://www.w3.org/Graphics/SVG/1.1/DTD/svg11.dtd">
<svg xmlns:xlink="http://www.w3.org/1999/xlink" width="792pt" height="612pt" viewBox="0 0 792 612" xmlns="http://www.w3.org/2000/svg" version="1.1">
 <metadata>
  <rdf:RDF xmlns:dc="http://purl.org/dc/elements/1.1/" xmlns:cc="http://creativecommons.org/ns#" xmlns:rdf="http://www.w3.org/1999/02/22-rdf-syntax-ns#">
   <cc:Work>
    <dc:type rdf:resource="http://purl.org/dc/dcmitype/StillImage"/>
    <dc:date>2023-01-30T17:15:59.361509</dc:date>
    <dc:format>image/svg+xml</dc:format>
    <dc:creator>
     <cc:Agent>
      <dc:title>Matplotlib v3.6.2, https://matplotlib.org/</dc:title>
     </cc:Agent>
    </dc:creator>
   </cc:Work>
  </rdf:RDF>
 </metadata>
 <defs>
  <style type="text/css">*{stroke-linejoin: round; stroke-linecap: butt}</style>
 </defs>
 <g id="figure_1">
  <g id="patch_1">
   <path d="M 0 612 
L 792 612 
L 792 0 
L 0 0 
z
" style="fill: #ffffff"/>
  </g>
  <g id="axes_1">
   <g id="line2d_1">
    <path d="M 0 306 
L 46.588235 304.327632 
L 93.176471 304.234724 
L 139.764706 303.956004 
L 186.352941 303.630835 
L 232.941176 303.073415 
L 279.529412 308.392391 
L 326.117647 299.984834 
L 372.705882 307.323963 
L 419.294118 303.143092 
L 465.882353 303.607609 
L 512.470588 306.325186 
L 559.058824 297.825841 
L 605.647059 311.132811 
L 652.235294 315.821887 
L 698.823529 310.227149 
L 745.411765 305.233492 
" clip-path="url(#p0d2e73d668)" style="fill: none; stroke: #000000; stroke-width: 1.5; stroke-linecap: square"/>
   </g>
   <g id="line2d_2">
    <path d="M 0 306 
L 46.588235 306 
L 93.176471 304.885082 
L 139.764706 304.513447 
L 186.352941 304.216143 
L 232.941176 303.914047 
L 279.529412 303.487055 
L 326.117647 305.959032 
L 372.705882 302.95993 
L 419.294118 305.144499 
L 465.882353 304.141453 
L 512.470588 303.8733 
L 559.058824 305.103874 
L 605.647059 301.452832 
L 652.235294 306.308699 
L 698.823529 311.081088 
L 745.411765 310.674208 
" clip-path="url(#p0d2e73d668)" style="fill: none; stroke: #000000; stroke-width: 1.5; stroke-linecap: square"/>
   </g>
   <g id="line2d_3">
    <path d="M 0 306 
L 46.588235 306 
L 93.176471 305.020343 
L 139.764706 304.664391 
L 186.352941 304.387747 
L 232.941176 304.118444 
L 279.529412 303.76863 
L 326.117647 305.254196 
L 372.705882 303.607751 
L 419.294118 304.746507 
L 465.882353 304.261717 
L 512.470588 304.065802 
L 559.058824 304.738054 
L 605.647059 302.690443 
L 652.235294 305.182679 
L 698.823529 308.317089 
L 745.411765 308.878752 
" clip-path="url(#p0d2e73d668)" style="fill: none; stroke: #000000; stroke-width: 1.5; stroke-linecap: square"/>
   </g>
   <g id="line2d_4">
    <path d="M 0 306 
L 46.588235 306 
L 93.176471 305.09154 
L 139.764706 304.755268 
L 186.352941 304.500934 
L 232.941176 304.262064 
L 279.529412 303.969507 
L 326.117647 304.97092 
L 372.705882 303.913046 
L 419.294118 304.600175 
L 465.882353 304.318559 
L 512.470588 304.185692 
L 559.058824 304.574715 
L 605.647059 303.374532 
L 652.235294 304.728622 
L 698.823529 306.63589 
L 745.411765 307.245403 
" clip-path="url(#p0d2e73d668)" style="fill: none; stroke: #000000; stroke-width: 1.5; stroke-linecap: square"/>
   </g>
   <g id="line2d_5">
    <path d="M 0 306 
L 46.588235 306 
L 93.176471 305.127607 
L 139.764706 304.80385 
L 186.352941 304.563597 
L 232.941176 304.343401 
L 279.529412 304.083394 
L 326.117647 304.869825 
L 372.705882 304.058849 
L 419.294118 304.559286 
L 465.882353 304.356472 
L 512.470588 304.255318 
L 559.058824 304.52106 
L 605.647059 303.698593 
L 652.235294 304.57668 
L 698.823529 305.860176 
L 745.411765 306.34346 
" clip-path="url(#p0d2e73d668)" style="fill: none; stroke: #000000; stroke-width: 1.5; stroke-linecap: square"/>
   </g>
   <g id="line2d_6">
    <path d="M 0 306 
L 46.588235 306 
L 93.176471 305.1457 
L 139.764706 304.828793 
L 186.352941 304.596216 
L 232.941176 304.386057 
L 279.529412 304.142919 
L 326.117647 304.831647 
L 372.705882 304.12997 
L 419.294118 304.549368 
L 465.882353 304.379782 
L 512.470588 304.293418 
L 559.058824 304.505899 
L 605.647059 303.848024 
L 652.235294 304.527221 
L 698.823529 305.52959 
L 745.411765 305.927934 
" clip-path="url(#p0d2e73d668)" style="fill: none; stroke: #000000; stroke-width: 1.5; stroke-linecap: square"/>
   </g>
   <g id="line2d_7">
    <path d="M 0 306 
L 46.588235 306 
L 93.176471 305.154754 
L 139.764706 304.841408 
L 186.352941 304.612812 
L 232.941176 304.407815 
L 279.529412 304.173194 
L 326.117647 304.815796 
L 372.705882 304.165079 
L 419.294118 304.547228 
L 465.882353 304.392733 
L 512.470588 304.313379 
L 559.058824 304.501711 
L 605.647059 303.918678 
L 652.235294 304.509647 
L 698.823529 305.383688 
L 745.411765 305.738053 
" clip-path="url(#p0d2e73d668)" style="fill: none; stroke: #000000; stroke-width: 1.5; stroke-linecap: square"/>
   </g>
   <g id="line2d_8">
    <path d="M 0 306 
L 46.588235 306 
L 93.176471 305.159281 
L 139.764706 304.847749 
L 186.352941 304.621176 
L 232.941176 304.418791 
L 279.529412 304.188442 
L 326.117647 304.808689 
L 372.705882 304.18252 
L 419.294118 304.546873 
L 465.882353 304.399552 
L 512.470588 304.323594 
L 559.058824 304.500504 
L 605.647059 303.952906 
L 652.235294 304.502657 
L 698.823529 305.316049 
L 745.411765 305.648568 
" clip-path="url(#p0d2e73d668)" style="fill: none; stroke: #000000; stroke-width: 1.5; stroke-linecap: square"/>
   </g>
   <g id="line2d_9">
    <path d="M 0 306 
L 46.588235 306 
L 93.176471 305.161546 
L 139.764706 304.850928 
L 186.352941 304.625374 
L 232.941176 304.424303 
L 279.529412 304.19609 
L 326.117647 304.80534 
L 372.705882 304.191212 
L 419.294118 304.546876 
L 465.882353 304.403048 
L 512.470588 304.32876 
L 559.058824 304.500126 
L 605.647059 303.969737 
L 652.235294 304.499609 
L 698.823529 305.283599 
L 745.411765 305.605294 
" clip-path="url(#p0d2e73d668)" style="fill: none; stroke: #000000; stroke-width: 1.5; stroke-linecap: square"/>
   </g>
  </g>
 </g>
 <defs>
  <clipPath id="p0d2e73d668">
   <rect x="0" y="0" width="792" height="612"/>
  </clipPath>
 </defs>
</svg>
