<?xml version="1.0" encoding="utf-8" standalone="no"?>
<!DOCTYPE svg PUBLIC "-//W3C//DTD SVG 1.1//EN"
  "http://www.w3.org/Graphics/SVG/1.1/DTD/svg11.dtd">
<svg xmlns:xlink="http://www.w3.org/1999/xlink" width="792pt" height="612pt" viewBox="0 0 792 612" xmlns="http://www.w3.org/2000/svg" version="1.1">
 <metadata>
  <rdf:RDF xmlns:dc="http://purl.org/dc/elements/1.1/" xmlns:cc="http://creativecommons.org/ns#" xmlns:rdf="http://www.w3.org/1999/02/22-rdf-syntax-ns#">
   <cc:Work>
    <dc:type rdf:resource="http://purl.org/dc/dcmitype/StillImage"/>
    <dc:date>2023-01-30T17:18:04.943487</dc:date>
    <dc:format>image/svg+xml</dc:format>
    <dc:creator>
     <cc:Agent>
      <dc:title>Matplotlib v3.6.2, https://matplotlib.org/</dc:title>
     </cc:Agent>
    </dc:creator>
   </cc:Work>
  </rdf:RDF>
 </metadata>
 <defs>
  <style type="text/css">*{stroke-linejoin: round; stroke-linecap: butt}</style>
 </defs>
 <g id="figure_1">
  <g id="patch_1">
   <path d="M 0 612 
L 792 612 
L 792 0 
L 0 0 
z
" style="fill: #ffffff"/>
  </g>
  <g id="axes_1">
   <g id="line2d_1">
    <path d="M 0 306 
L 3.168 302.664637 
L 6.336 303.065699 
L 9.504 311.509305 
L 12.672 303.255679 
L 15.84 301.799229 
L 19.008 300.61732 
L 22.176 308.554339 
L 25.344 308.617666 
L 28.512 297.853185 
L 31.68 304.923357 
L 34.848 299.92091 
L 38.016 304.627812 
L 41.184 307.372188 
L 44.352 310.285198 
L 47.52 309.018736 
L 50.688 301.292679 
L 53.856 305.4089 
L 57.024 313.535006 
L 60.192 304.50115 
L 63.36 306.569989 
L 66.528 312.712135 
L 69.696 314.737466 
L 72.864 298.781471 
L 76.032 319.017458 
L 79.2 317.289113 
L 82.368 300.026423 
L 85.536 308.08993 
L 88.704 314.210102 
L 91.872 316.951788 
L 95.04 307.921051 
L 98.208 295.153632 
L 101.376 309.335363 
L 104.544 312.269009 
L 107.712 303.297897 
L 110.88 301.123835 
L 114.048 293.509393 
L 117.216 302.305802 
L 120.384 306.105554 
L 123.552 306.94998 
L 126.72 299.730991 
L 129.888 311.99468 
L 133.056 304.078949 
L 136.224 303.403443 
L 139.392 308.216588 
L 142.56 305.345568 
L 145.728 307.351078 
L 148.896 314.906211 
L 152.064 308.132149 
L 155.232 304.733364 
L 158.4 311.424889 
L 161.568 309.905273 
L 164.736 306.844427 
L 167.904 300.933888 
L 171.072 307.034422 
L 174.24 309.082062 
L 177.408 314.948397 
L 180.576 308.491011 
L 183.744 301.060519 
L 186.912 300.385177 
L 190.08 305.02891 
L 193.248 308.153259 
L 196.416 313.914757 
L 199.584 306.084443 
L 202.752 313.914757 
L 205.92 309.377579 
L 209.088 301.946977 
L 212.256 314.399959 
L 215.424 303.698974 
L 221.76 297.410191 
L 224.928 312.712135 
L 228.096 306.422214 
L 231.264 309.92638 
L 234.432 312.269009 
L 237.6 307.58329 
L 240.768 306.211107 
L 243.936 303.783412 
L 247.104 307.752171 
L 250.272 297.726612 
L 253.44 310.411836 
L 256.608 309.757521 
L 259.776 308.04771 
L 262.944 290.686415 
L 266.112 302.284694 
L 269.28 304.142279 
L 272.448 301.355996 
L 275.616 302.136942 
L 278.784 303.9734 
L 281.952 310.897271 
L 285.12 301.588164 
L 288.288 309.884165 
L 291.456 306.907759 
L 294.624 305.282237 
L 297.792 310.369624 
L 300.96 311.678134 
L 304.128 318.153383 
L 307.296 313.513908 
L 310.464 310.07413 
L 313.632 303.150134 
L 316.8 310.179664 
L 319.968 306.844427 
L 323.136 300.089731 
L 326.304 307.372188 
L 329.472 308.659885 
L 332.64 298.823669 
L 335.808 307.984381 
L 338.976 307.182195 
L 342.144 307.097753 
L 345.312 311.678134 
L 348.48 302.960155 
L 351.648 309.018736 
L 354.816 307.54107 
L 357.984 300.026423 
L 361.152 306.759985 
L 364.32 309.166496 
L 367.488 305.767782 
L 370.656 308.237697 
L 373.824 314.252293 
L 376.992 295.55425 
L 380.16 308.448792 
L 383.328 300.15304 
L 386.496 306.042221 
L 389.664 304.353379 
L 392.832 307.182195 
L 396 305.02891 
L 399.168 309.799736 
L 402.336 302.158049 
L 405.504 306.907759 
L 408.672 304.838916 
L 411.84 308.427683 
L 415.008 309.757521 
L 418.176 303.508989 
L 421.344 308.638776 
L 424.512 298.823669 
L 427.68 308.976519 
L 430.848 303.825632 
L 434.016 299.646584 
L 437.184 302.305802 
L 440.352 301.799229 
L 443.52 305.303347 
L 446.688 303.530098 
L 449.856 308.195478 
L 453.024 308.00549 
L 456.192 312.353416 
L 459.36 310.13745 
L 462.528 308.427683 
L 465.696 305.4089 
L 468.864 300.195246 
L 472.032 314.189007 
L 475.2 306.5911 
L 478.368 305.957779 
L 481.536 307.435519 
L 484.704 304.353379 
L 487.872 307.688841 
L 491.04 305.936668 
L 494.208 301.44042 
L 497.376 300.300763 
L 500.544 304.796695 
L 503.712 303.023481 
L 506.88 314.842932 
L 510.048 306.569989 
L 513.216 302.305802 
L 516.384 307.667731 
L 519.552 303.720084 
L 522.72 310.918376 
L 525.888 313.049735 
L 529.056 308.702103 
L 532.224 310.369624 
L 535.392 310.960586 
L 538.56 307.984381 
L 541.728 301.482632 
L 544.896 309.863058 
L 548.064 309.504228 
L 551.232 299.182363 
L 554.4 295.364479 
L 557.568 311.023902 
L 563.904 310.55958 
L 567.072 308.08993 
L 570.24 312.395619 
L 573.408 302.51688 
L 576.576 293.846617 
L 579.744 302.158049 
L 582.912 296.1447 
L 586.08 299.709889 
L 589.248 310.918376 
L 592.416 306.802206 
L 595.584 293.130053 
L 598.752 305.683339 
L 601.92 305.324458 
L 605.088 303.023481 
L 608.256 304.965578 
L 611.424 302.875721 
L 614.592 306.422214 
L 617.76 301.208257 
L 620.928 308.491011 
L 624.096 305.514454 
L 627.264 298.654878 
L 630.432 304.543371 
L 633.6 305.831114 
L 636.768 309.609767 
L 639.936 294.731969 
L 643.104 305.535564 
L 646.272 308.934301 
L 649.44 308.04771 
L 652.608 305.620007 
L 655.776 307.224416 
L 658.944 303.255679 
L 662.112 307.667731 
L 665.28 301.799229 
L 668.448 302.960155 
L 671.616 305.451122 
L 674.784 311.045007 
L 677.952 301.334891 
L 681.12 302.580204 
L 684.288 310.095237 
L 687.456 308.279916 
L 690.624 313.999143 
L 693.792 305.535564 
L 696.96 306.189997 
L 700.128 303.086808 
L 703.296 307.51996 
L 706.464 301.672589 
L 709.632 306.274439 
L 712.8 307.414409 
L 715.968 312.986437 
L 719.136 307.709951 
L 722.304 304.374489 
L 725.472 304.670033 
L 728.64 302.896829 
L 731.808 309.166496 
L 734.976 304.691143 
L 738.144 305.02891 
L 741.312 304.48004 
L 744.48 304.395599 
L 750.816 303.846741 
L 753.984 303.340115 
L 757.152 308.174368 
L 760.32 300.532903 
L 763.488 307.203305 
L 766.656 303.403443 
L 769.824 303.825632 
L 772.992 306.29555 
L 776.16 298.570484 
L 779.328 310.665109 
L 782.496 314.927304 
L 785.664 309.841951 
L 788.832 305.303347 
L 788.832 305.303347 
" clip-path="url(#pc395476c21)" style="fill: none; stroke: #000000; stroke-width: 1.5; stroke-linecap: square"/>
   </g>
   <g id="line2d_2">
    <path d="M 0 306 
L 3.168 306 
L 6.336 303.776376 
L 9.504 303.370271 
L 12.672 307.711358 
L 15.84 305.411624 
L 19.008 303.576673 
L 22.176 302.085254 
L 25.344 305.332405 
L 28.512 306.980197 
L 31.68 302.406457 
L 34.848 303.66851 
L 38.016 301.771832 
L 41.184 303.202451 
L 44.352 305.298214 
L 47.52 307.810783 
L 50.688 308.415679 
L 53.856 304.839661 
L 57.024 305.139099 
L 60.192 309.354567 
L 63.36 306.936899 
L 66.528 306.757253 
L 69.696 309.745518 
L 72.864 312.250638 
L 76.032 305.495744 
L 79.2 312.294414 
L 82.368 314.815635 
L 85.536 307.395368 
L 88.704 307.749688 
L 91.872 310.995431 
L 95.04 313.98268 
L 98.208 310.938985 
L 101.376 303.037223 
L 107.712 309.20863 
L 110.88 306.259703 
L 114.048 303.677947 
L 117.216 298.551041 
L 120.384 300.399494 
L 123.552 303.248725 
L 126.72 305.122458 
L 129.888 302.407616 
L 133.056 307.200904 
L 136.224 305.641449 
L 139.392 304.526897 
L 142.56 306.400607 
L 145.728 305.879048 
L 148.896 306.617509 
L 152.064 310.778335 
L 155.232 309.471779 
L 158.4 307.088398 
L 161.568 309.27121 
L 164.736 309.600993 
L 167.904 308.220065 
L 171.072 304.568124 
L 174.24 305.800649 
L 177.408 307.429972 
L 180.576 311.203334 
L 183.744 309.854615 
L 186.912 305.437131 
L 190.08 302.892277 
L 193.248 303.957009 
L 196.416 306.069293 
L 199.584 310.006173 
L 202.752 308.039514 
L 205.92 310.975567 
L 209.088 310.17834 
L 212.256 306.064408 
L 215.424 310.260449 
L 224.928 300.547386 
L 228.096 306.643007 
L 231.264 306.517916 
L 234.432 308.223293 
L 237.6 310.266574 
L 243.936 307.56632 
L 247.104 305.681187 
L 250.272 306.73697 
L 253.44 302.201589 
L 256.608 306.314591 
L 259.776 308.035789 
L 262.944 308.033471 
L 266.112 299.321461 
L 269.28 300.795259 
L 272.448 302.469367 
L 275.616 301.900128 
L 278.784 302.027184 
L 281.952 302.987638 
L 285.12 306.944847 
L 288.288 304.253706 
L 291.456 307.106694 
L 294.624 307.016292 
L 297.792 306.151501 
L 300.96 308.278344 
L 304.128 309.997068 
L 307.296 314.104458 
L 310.464 313.81432 
L 313.632 311.961081 
L 316.8 307.542726 
L 319.968 308.867664 
L 323.136 307.859129 
L 326.304 303.953946 
L 329.472 305.654612 
L 332.64 307.138649 
L 335.808 302.951795 
L 338.976 305.463954 
L 342.144 306.330983 
L 345.312 306.708326 
L 348.48 309.202919 
L 351.648 306.087175 
L 354.816 307.55622 
L 357.984 307.546451 
L 361.152 303.788462 
L 364.32 305.271805 
L 367.488 307.223091 
L 370.656 306.492832 
L 373.824 307.358529 
L 376.992 310.828161 
L 380.16 303.163048 
L 383.328 305.807685 
L 386.496 302.980353 
L 389.664 304.509843 
L 392.832 304.422173 
L 396 305.804953 
L 399.168 305.410639 
L 402.336 307.596536 
L 405.504 304.89016 
L 408.672 305.895937 
L 411.84 305.376613 
L 418.176 308.342831 
L 421.344 305.918703 
L 424.512 307.285843 
L 427.68 303.03267 
L 430.848 306.017965 
L 434.016 304.915741 
L 437.184 302.270706 
L 440.352 302.276251 
L 443.52 302.022135 
L 446.688 303.666192 
L 449.856 303.588129 
L 453.024 305.910176 
L 456.192 306.95594 
L 459.36 309.671683 
L 462.528 309.925138 
L 465.696 309.188432 
L 468.864 307.305794 
L 472.032 303.7402 
L 475.2 308.986369 
L 478.368 307.785616 
L 481.536 306.86769 
L 484.704 307.141961 
L 487.872 305.736323 
L 491.04 306.71114 
L 494.208 306.32494 
L 497.376 303.884987 
L 500.544 302.065508 
L 503.712 303.427532 
L 506.88 303.219752 
L 510.048 309.046964 
L 513.216 307.812852 
L 516.384 305.048696 
L 519.552 306.361614 
L 522.72 305.045301 
L 525.888 308.002841 
L 529.056 310.542778 
L 532.224 309.633606 
L 535.392 309.992847 
L 538.56 310.485336 
L 541.728 309.246046 
L 544.896 305.352109 
L 548.064 307.619716 
L 551.232 308.559223 
L 554.4 303.843099 
L 557.568 299.576411 
L 560.736 305.301195 
L 563.904 308.02511 
L 567.072 309.297451 
L 570.24 308.706656 
L 573.408 310.556269 
L 576.576 306.522966 
L 579.744 300.171826 
L 582.912 301.178212 
L 586.08 298.631794 
L 589.248 299.149182 
L 592.416 305.034125 
L 595.584 305.91564 
L 598.752 299.482242 
L 601.92 302.588648 
L 605.088 303.979029 
L 608.256 303.502946 
L 611.424 304.251554 
L 614.592 303.569834 
L 617.76 304.987185 
L 620.928 303.086642 
L 624.096 305.818944 
L 627.264 305.666368 
L 630.432 302.14704 
L 636.768 304.591304 
L 639.936 307.113814 
L 643.104 300.897886 
L 646.272 303.22505 
L 649.44 306.080552 
L 652.608 307.069109 
L 655.776 306.35822 
L 658.944 306.796576 
L 662.112 305.021045 
L 665.28 306.340586 
L 668.448 304.083668 
L 671.616 303.516853 
L 674.784 304.477143 
L 677.952 307.767155 
L 681.12 304.54246 
L 684.288 303.552201 
L 687.456 306.837225 
L 690.624 307.55978 
L 693.792 310.80391 
L 696.96 308.174948 
L 700.128 307.183933 
L 703.296 305.119726 
L 706.464 306.331976 
L 709.632 304.000387 
L 715.968 306.270466 
L 719.136 309.626902 
L 722.304 308.672716 
L 725.472 306.520068 
L 728.64 305.598151 
L 731.808 304.238391 
L 734.976 306.717184 
L 738.144 305.701056 
L 741.312 305.360304 
L 744.48 304.903489 
L 753.984 304.117857 
L 757.152 303.729852 
L 760.32 305.950162 
L 763.488 303.233163 
L 766.656 305.222465 
L 769.824 304.310828 
L 772.992 304.067111 
L 776.16 305.185542 
L 779.328 301.867185 
L 785.664 310.618097 
L 788.832 310.248282 
L 788.832 310.248282 
" clip-path="url(#pc395476c21)" style="fill: none; stroke: #000000; stroke-width: 1.5; stroke-linecap: square"/>
   </g>
   <g id="line2d_3">
    <path d="M 0 306 
L 3.168 306 
L 6.336 304.046139 
L 9.504 303.601913 
L 12.672 306.690143 
L 22.176 303.075948 
L 25.344 304.787467 
L 28.512 305.961193 
L 31.68 303.509279 
L 34.848 303.932804 
L 38.016 302.738959 
L 41.184 303.298352 
L 44.352 304.500912 
L 47.52 306.204575 
L 50.688 307.032081 
L 53.856 305.345537 
L 57.024 305.367248 
L 60.192 307.771982 
L 63.36 306.805936 
L 66.528 306.740635 
L 72.864 310.345304 
L 76.032 306.94692 
L 79.2 310.496234 
L 82.368 312.508903 
L 85.536 308.847633 
L 88.704 308.635094 
L 91.872 310.279329 
L 95.04 312.245356 
L 98.208 310.976262 
L 101.376 306.324969 
L 104.544 307.215964 
L 107.712 308.704038 
L 110.88 307.10888 
L 114.048 305.351905 
L 117.216 301.866521 
L 120.384 301.98323 
L 126.72 304.293993 
L 129.888 302.935191 
L 133.056 305.58272 
L 139.392 304.630878 
L 142.56 305.674227 
L 145.728 305.564628 
L 148.896 306.087215 
L 152.064 308.693602 
L 155.232 308.527776 
L 158.4 307.407791 
L 161.568 308.593818 
L 164.736 308.988032 
L 167.904 308.37553 
L 171.072 306.194245 
L 174.24 306.441395 
L 177.408 307.217302 
L 180.576 309.499769 
L 183.744 309.200293 
L 186.912 306.812696 
L 190.08 304.926473 
L 193.248 304.952814 
L 196.416 305.893435 
L 199.584 308.250844 
L 202.752 307.606198 
L 205.92 309.460956 
L 209.088 309.44187 
L 212.256 307.235806 
L 215.424 309.339793 
L 218.592 307.684086 
L 221.76 305.595142 
L 224.928 303.186186 
L 228.096 305.980702 
L 231.264 306.100222 
L 234.432 307.222583 
L 237.6 308.713713 
L 240.768 308.390894 
L 243.936 307.753822 
L 247.104 306.585898 
L 250.272 306.920415 
L 253.44 304.217441 
L 256.608 306.027788 
L 259.776 307.120688 
L 262.944 307.399217 
L 266.112 302.473309 
L 269.28 302.41644 
L 272.448 302.92603 
L 275.616 302.470691 
L 278.784 302.360791 
L 281.952 302.830284 
L 285.12 305.194209 
L 288.288 304.125686 
L 291.456 305.814993 
L 294.624 306.135858 
L 297.792 305.887559 
L 304.128 308.530194 
L 307.296 311.359026 
L 310.464 311.994555 
L 313.632 311.434445 
L 316.8 309.022639 
L 319.968 309.370602 
L 323.136 308.633838 
L 326.304 306.129703 
L 329.472 306.499634 
L 332.64 307.137754 
L 335.808 304.688372 
L 338.976 305.6611 
L 342.144 306.103516 
L 345.312 306.394941 
L 348.48 307.949864 
L 351.648 306.47989 
L 354.816 307.220468 
L 357.984 307.302174 
L 361.152 305.155447 
L 364.32 305.621597 
L 367.488 306.666817 
L 370.656 306.398428 
L 373.824 306.938747 
L 376.992 309.097588 
L 380.16 305.116145 
L 383.328 306.092026 
L 386.496 304.353872 
L 389.664 304.846142 
L 392.832 304.698565 
L 396 305.426097 
L 399.168 305.302125 
L 402.336 306.627357 
L 405.504 305.310389 
L 408.672 305.77752 
L 411.84 305.508137 
L 415.008 306.365182 
L 418.176 307.3595 
L 421.344 306.229107 
L 424.512 306.93536 
L 427.68 304.541403 
L 430.848 305.85586 
L 434.016 305.2559 
L 437.184 303.612167 
L 443.52 302.804622 
L 446.688 303.534294 
L 449.856 303.531344 
L 453.024 304.895572 
L 456.192 305.813168 
L 459.36 307.735267 
L 462.528 308.444971 
L 465.696 308.439908 
L 468.864 307.547174 
L 472.032 305.389844 
L 475.2 307.973981 
L 481.536 307.099896 
L 484.704 307.202344 
L 487.872 306.373309 
L 491.04 306.764806 
L 494.208 306.527003 
L 500.544 303.64285 
L 503.712 303.976894 
L 506.88 303.691919 
L 510.048 306.961524 
L 513.216 306.842748 
L 516.384 305.506825 
L 519.552 306.142339 
L 522.72 305.436914 
L 525.888 307.038758 
L 529.056 308.807042 
L 532.224 308.779458 
L 538.56 309.757641 
L 541.728 309.238625 
L 544.896 306.961817 
L 548.064 307.821287 
L 551.232 308.324796 
L 554.4 305.640291 
L 557.568 302.620655 
L 560.736 305.077558 
L 563.904 306.74375 
L 567.072 307.870938 
L 570.24 307.935565 
L 573.408 309.252019 
L 576.576 307.269727 
L 579.744 303.314324 
L 582.912 302.968134 
L 586.08 300.952642 
L 589.248 300.575709 
L 592.416 303.608148 
L 595.584 304.549753 
L 598.752 301.183937 
L 601.92 302.497264 
L 605.088 303.332345 
L 608.256 303.250682 
L 611.424 303.745991 
L 614.592 303.482047 
L 617.76 304.338426 
L 620.928 303.413651 
L 624.096 304.896267 
L 627.264 305.080772 
L 630.432 303.203862 
L 633.6 303.598926 
L 636.768 304.263832 
L 639.936 305.841029 
L 643.104 302.567313 
L 646.272 303.435197 
L 649.44 305.063996 
L 652.608 305.940628 
L 655.776 305.84706 
L 658.944 306.255305 
L 662.112 305.37475 
L 665.28 306.051857 
L 668.448 304.80091 
L 671.616 304.263763 
L 674.784 304.608037 
L 677.952 306.499861 
L 681.12 304.990054 
L 684.288 304.281944 
L 687.456 305.989575 
L 690.624 306.658884 
L 693.792 308.831388 
L 696.96 307.866098 
L 700.128 307.372034 
L 703.296 306.111203 
L 706.464 306.526004 
L 709.632 305.098013 
L 712.8 305.446046 
L 715.968 306.022278 
L 719.136 308.075208 
L 722.304 307.973683 
L 725.472 306.918279 
L 728.64 306.252459 
L 731.808 305.271383 
L 734.976 306.419832 
L 738.144 305.907301 
L 753.984 304.498477 
L 757.152 304.154394 
L 760.32 305.339282 
L 763.488 303.924791 
L 766.656 304.884788 
L 769.824 304.439895 
L 772.992 304.255518 
L 776.16 304.855228 
L 779.328 303.007126 
L 782.496 305.25906 
L 785.664 308.098151 
L 788.832 308.614833 
L 788.832 308.614833 
" clip-path="url(#pc395476c21)" style="fill: none; stroke: #000000; stroke-width: 1.5; stroke-linecap: square"/>
   </g>
   <g id="line2d_4">
    <path d="M 0 306 
L 3.168 306 
L 6.336 304.188135 
L 9.504 303.747611 
L 12.672 306.2176 
L 19.008 304.517077 
L 22.176 303.634014 
L 25.344 304.677786 
L 28.512 305.471498 
L 31.68 303.99877 
L 34.848 304.171558 
L 38.016 303.398551 
L 41.184 303.617098 
L 44.352 304.272454 
L 47.52 305.30595 
L 50.688 305.936064 
L 53.856 305.156244 
L 57.024 305.198301 
L 60.192 306.576145 
L 63.36 306.235355 
L 66.528 306.290033 
L 69.696 307.335068 
L 72.864 308.535449 
L 76.032 306.958752 
L 79.2 308.904062 
L 82.368 310.253682 
L 85.536 308.611274 
L 88.704 308.527674 
L 91.872 309.437966 
L 95.04 310.640598 
L 98.208 310.205927 
L 101.376 307.801137 
L 104.544 308.047327 
L 107.712 308.725098 
L 110.88 307.861782 
L 114.048 306.783222 
L 117.216 304.664128 
L 120.384 304.289208 
L 126.72 304.957425 
L 129.888 304.120216 
L 133.056 305.382 
L 139.392 304.894591 
L 142.56 305.425374 
L 145.728 305.411412 
L 148.896 305.71819 
L 152.064 307.184106 
L 155.232 307.339213 
L 158.4 306.924195 
L 161.568 307.639031 
L 164.736 308.002989 
L 167.904 307.818832 
L 171.072 306.716006 
L 174.24 306.761859 
L 177.408 307.137452 
L 180.576 308.378022 
L 183.744 308.390507 
L 190.08 306.131765 
L 193.248 305.950567 
L 196.416 306.295536 
L 199.584 307.511791 
L 202.752 307.29152 
L 205.92 308.348401 
L 209.088 308.510346 
L 212.256 307.465246 
L 215.424 308.577153 
L 218.592 307.807403 
L 221.76 306.652193 
L 224.928 305.175975 
L 228.096 306.37877 
L 231.264 306.389858 
L 234.432 306.951272 
L 237.6 307.802575 
L 240.768 307.770294 
L 243.936 307.520974 
L 247.104 306.925342 
L 250.272 307.057145 
L 253.44 305.561585 
L 256.608 306.334748 
L 259.776 306.882486 
L 262.944 307.065772 
L 266.112 304.445738 
L 269.28 304.099048 
L 272.448 304.107928 
L 275.616 303.666511 
L 278.784 303.418808 
L 281.952 303.500196 
L 285.12 304.678626 
L 288.288 304.187218 
L 291.456 305.099568 
L 294.624 305.388429 
L 297.792 305.369742 
L 304.128 307.04413 
L 307.296 308.815241 
L 310.464 309.565544 
L 313.632 309.651533 
L 316.8 308.610186 
L 319.968 308.86395 
L 323.136 308.546574 
L 326.304 307.202659 
L 329.472 307.226299 
L 332.64 307.455789 
L 335.808 306.07526 
L 338.976 306.376338 
L 345.312 306.599277 
L 348.48 307.412362 
L 351.648 306.701001 
L 354.816 307.07682 
L 357.984 307.148893 
L 361.152 306.009494 
L 364.32 306.128097 
L 367.488 306.623072 
L 370.656 306.489166 
L 373.824 306.769924 
L 376.992 307.968736 
L 380.16 305.988814 
L 383.328 306.383006 
L 386.496 305.38498 
L 389.664 305.492328 
L 392.832 305.307665 
L 396 305.60608 
L 399.168 305.514092 
L 402.336 306.195628 
L 405.504 305.547263 
L 408.672 305.756702 
L 411.84 305.605265 
L 415.008 306.053302 
L 418.176 306.646808 
L 421.344 306.1434 
L 424.512 306.541553 
L 427.68 305.312612 
L 430.848 305.896567 
L 434.016 305.564052 
L 437.184 304.622939 
L 443.52 303.857292 
L 446.688 304.08624 
L 449.856 303.992671 
L 453.024 304.66461 
L 456.192 305.195523 
L 459.36 306.337516 
L 462.528 306.948446 
L 465.696 307.184843 
L 468.864 306.899942 
L 472.032 305.829615 
L 475.2 307.163644 
L 484.704 306.982604 
L 487.872 306.566906 
L 491.04 306.746439 
L 494.208 306.61859 
L 500.544 304.914507 
L 503.712 304.892641 
L 506.88 304.595782 
L 510.048 306.231476 
L 513.216 306.286415 
L 516.384 305.649237 
L 519.552 305.969085 
L 522.72 305.611386 
L 525.888 306.457237 
L 529.056 307.515191 
L 532.224 307.703866 
L 538.56 308.589226 
L 541.728 308.496537 
L 544.896 307.380387 
L 548.064 307.778254 
L 551.232 308.056601 
L 554.4 306.638899 
L 557.568 304.836533 
L 560.736 305.820203 
L 563.904 306.604919 
L 567.072 307.235497 
L 570.24 307.373115 
L 573.408 308.179946 
L 576.576 307.271648 
L 579.744 305.126712 
L 582.912 304.651991 
L 586.08 303.290925 
L 589.248 302.718197 
L 592.416 304.024879 
L 595.584 304.467292 
L 598.752 302.65722 
L 601.92 303.142017 
L 605.088 303.489566 
L 608.256 303.41541 
L 611.424 303.655876 
L 614.592 303.529444 
L 617.76 303.992246 
L 620.928 303.545239 
L 624.096 304.335087 
L 627.264 304.519354 
L 630.432 303.577128 
L 633.6 303.728263 
L 636.768 304.059993 
L 639.936 304.942148 
L 643.104 303.308655 
L 646.272 303.66548 
L 649.44 304.503177 
L 652.608 305.066214 
L 655.776 305.158341 
L 658.944 305.494463 
L 662.112 305.133408 
L 665.28 305.534706 
L 668.448 304.934874 
L 671.616 304.617478 
L 674.784 304.745779 
L 677.952 305.753397 
L 681.12 305.055018 
L 684.288 304.661513 
L 687.456 305.534777 
L 690.624 305.976893 
L 693.792 307.255467 
L 696.96 306.981037 
L 700.128 306.863333 
L 703.296 306.260842 
L 706.464 306.462544 
L 709.632 305.699557 
L 712.8 305.791839 
L 715.968 306.052829 
L 719.136 307.160275 
L 722.304 307.251788 
L 725.472 306.791433 
L 728.64 306.453383 
L 731.808 305.890154 
L 734.976 306.414334 
L 741.312 305.959905 
L 757.152 304.787029 
L 760.32 305.326561 
L 763.488 304.562091 
L 766.656 304.982024 
L 772.992 304.588215 
L 776.16 304.860382 
L 779.328 303.85165 
L 782.496 304.94155 
L 785.664 306.538424 
L 788.832 307.063897 
L 788.832 307.063897 
" clip-path="url(#pc395476c21)" style="fill: none; stroke: #000000; stroke-width: 1.5; stroke-linecap: square"/>
   </g>
   <g id="line2d_5">
    <path d="M 0 306 
L 3.168 306 
L 6.336 304.260067 
L 9.504 303.826987 
L 12.672 306.004037 
L 19.008 304.62717 
L 22.176 303.895255 
L 25.344 304.668615 
L 28.512 305.273895 
L 31.68 304.210939 
L 34.848 304.307168 
L 38.016 303.743948 
L 41.184 303.852497 
L 44.352 304.268197 
L 47.52 304.954779 
L 50.688 305.40451 
L 53.856 304.961702 
L 57.024 305.008697 
L 60.192 305.885496 
L 63.36 305.745928 
L 66.528 305.827553 
L 69.696 306.498819 
L 72.864 307.290733 
L 76.032 306.483487 
L 79.2 307.659156 
L 82.368 308.552713 
L 85.536 307.769545 
L 88.704 307.798714 
L 91.872 308.377916 
L 95.04 309.147001 
L 98.208 309.037814 
L 101.376 307.808328 
L 104.544 307.942776 
L 107.712 308.321809 
L 110.88 307.883743 
L 114.048 307.296735 
L 117.216 306.103515 
L 120.384 305.776139 
L 126.72 305.902586 
L 129.888 305.375183 
L 133.056 305.939465 
L 139.392 305.579424 
L 142.56 305.802827 
L 145.728 305.764158 
L 148.896 305.89815 
L 152.064 306.657861 
L 155.232 306.782002 
L 158.4 306.609709 
L 161.568 307.014268 
L 164.736 307.256905 
L 167.904 307.222321 
L 171.072 306.695478 
L 174.24 306.72385 
L 177.408 306.921121 
L 180.576 307.592361 
L 183.744 307.66744 
L 190.08 306.553982 
L 193.248 306.426762 
L 196.416 306.570726 
L 199.584 307.183 
L 202.752 307.091468 
L 205.92 307.660484 
L 209.088 307.805186 
L 212.256 307.318606 
L 215.424 307.907429 
L 218.592 307.558294 
L 221.76 306.976523 
L 224.928 306.181327 
L 228.096 306.724799 
L 231.264 306.698971 
L 234.432 306.970779 
L 237.6 307.412968 
L 240.768 307.429598 
L 243.936 307.328985 
L 247.104 307.033549 
L 250.272 307.092368 
L 253.44 306.311209 
L 259.776 306.913501 
L 262.944 307.005851 
L 266.112 305.645844 
L 269.28 305.365473 
L 272.448 305.261162 
L 278.784 304.701712 
L 281.952 304.636365 
L 285.12 305.153942 
L 288.288 304.858483 
L 291.456 305.276192 
L 294.624 305.409228 
L 297.792 305.394888 
L 304.128 306.301175 
L 307.296 307.288255 
L 310.464 307.805476 
L 313.632 307.995982 
L 316.8 307.59446 
L 319.968 307.814463 
L 323.136 307.735433 
L 326.304 307.098863 
L 332.64 307.25226 
L 335.808 306.54833 
L 342.144 306.71263 
L 345.312 306.744229 
L 348.48 307.155835 
L 351.648 306.806176 
L 354.816 306.987899 
L 357.984 307.033618 
L 361.152 306.450457 
L 364.32 306.474628 
L 367.488 306.69781 
L 370.656 306.620272 
L 373.824 306.756891 
L 376.992 307.381487 
L 380.16 306.395142 
L 383.328 306.563474 
L 386.496 306.028661 
L 389.664 306.031408 
L 392.832 305.893429 
L 396 306.001093 
L 399.168 305.919388 
L 402.336 306.240118 
L 405.504 305.900028 
L 408.672 305.981385 
L 411.84 305.885086 
L 418.176 306.400436 
L 421.344 306.160391 
L 424.512 306.368724 
L 427.68 305.742866 
L 430.848 306.010038 
L 434.016 305.827893 
L 437.184 305.311448 
L 443.52 304.786309 
L 446.688 304.828925 
L 449.856 304.721043 
L 456.192 305.261549 
L 459.36 305.850852 
L 462.528 306.206767 
L 465.696 306.391222 
L 468.864 306.314489 
L 472.032 305.805879 
L 475.2 306.505077 
L 484.704 306.550351 
L 487.872 306.36588 
L 491.04 306.477667 
L 494.208 306.431482 
L 500.544 305.539466 
L 503.712 305.476004 
L 506.88 305.269631 
L 510.048 306.063301 
L 513.216 306.103093 
L 516.384 305.78539 
L 519.552 305.943088 
L 522.72 305.756482 
L 525.888 306.18626 
L 529.056 306.760221 
L 532.224 306.921827 
L 538.56 307.523941 
L 541.728 307.562156 
L 544.896 307.055706 
L 551.232 307.472722 
L 554.4 306.783341 
L 557.568 305.830822 
L 563.904 306.638883 
L 567.072 306.965548 
L 570.24 307.058518 
L 573.408 307.503702 
L 576.576 307.087948 
L 579.744 305.9818 
L 582.912 305.666578 
L 586.08 304.872017 
L 589.248 304.443372 
L 592.416 304.982385 
L 595.584 305.134219 
L 598.752 304.132736 
L 605.088 304.348392 
L 608.256 304.238709 
L 611.424 304.298403 
L 614.592 304.179684 
L 617.76 304.365148 
L 620.928 304.100333 
L 624.096 304.466358 
L 627.264 304.552328 
L 630.432 304.062708 
L 636.768 304.245387 
L 639.936 304.693856 
L 643.104 303.864197 
L 646.272 304.004126 
L 652.608 304.717499 
L 655.776 304.791564 
L 658.944 304.993225 
L 662.112 304.846051 
L 665.28 305.079434 
L 668.448 304.805014 
L 671.616 304.651096 
L 674.784 304.719205 
L 677.952 305.24323 
L 681.12 304.917116 
L 684.288 304.722054 
L 687.456 305.168888 
L 690.624 305.428371 
L 693.792 306.141915 
L 700.128 306.101184 
L 703.296 305.851903 
L 706.464 305.991232 
L 709.632 305.632339 
L 715.968 305.82683 
L 719.136 306.424625 
L 722.304 306.531317 
L 731.808 305.932483 
L 734.976 306.201054 
L 757.152 305.282263 
L 760.32 305.526469 
L 763.488 305.108562 
L 766.656 305.281262 
L 772.992 305.014005 
L 776.16 305.118382 
L 779.328 304.573535 
L 782.496 305.08461 
L 785.664 305.905879 
L 788.832 306.237033 
L 788.832 306.237033 
" clip-path="url(#pc395476c21)" style="fill: none; stroke: #000000; stroke-width: 1.5; stroke-linecap: square"/>
   </g>
   <g id="line2d_6">
    <path d="M 0 306 
L 3.168 306 
L 6.336 304.296151 
L 9.504 303.868101 
L 12.672 305.904404 
L 19.008 304.674168 
L 22.176 304.016585 
L 25.344 304.673424 
L 28.512 305.19135 
L 31.68 304.306231 
L 34.848 304.375253 
L 38.016 303.909349 
L 41.184 303.980086 
L 44.352 304.296329 
L 47.52 304.827685 
L 50.688 305.183064 
L 53.856 304.866575 
L 57.024 304.909036 
L 60.192 305.561115 
L 63.36 305.483573 
L 66.528 305.560678 
L 72.864 306.637977 
L 76.032 306.122627 
L 79.2 306.94966 
L 82.368 307.598631 
L 85.536 307.133009 
L 88.704 307.190745 
L 91.872 307.606897 
L 95.04 308.151838 
L 98.208 308.138596 
L 101.376 307.404336 
L 104.544 307.511978 
L 107.712 307.773689 
L 114.048 307.186615 
L 117.216 306.460225 
L 120.384 306.242019 
L 126.72 306.271749 
L 129.888 305.937889 
L 133.056 306.244396 
L 139.392 305.999648 
L 142.56 306.109241 
L 148.896 306.134136 
L 152.064 306.559294 
L 155.232 306.635047 
L 158.4 306.543983 
L 164.736 306.9247 
L 167.904 306.920916 
L 171.072 306.639989 
L 177.408 306.771134 
L 180.576 307.149995 
L 183.744 307.211866 
L 190.08 306.629362 
L 193.248 306.556309 
L 196.416 306.628968 
L 199.584 306.959507 
L 202.752 306.919934 
L 205.92 307.235447 
L 209.088 307.331792 
L 212.256 307.090229 
L 215.424 307.417417 
L 218.592 307.251413 
L 221.76 306.953066 
L 224.928 306.528806 
L 228.096 306.803126 
L 231.264 306.786263 
L 240.768 307.179381 
L 250.272 307.023046 
L 253.44 306.616108 
L 259.776 306.911892 
L 262.944 306.961406 
L 266.112 306.252224 
L 278.784 305.63557 
L 281.952 305.563575 
L 285.12 305.794401 
L 288.288 305.612528 
L 291.456 305.797069 
L 300.96 306.016808 
L 304.128 306.260668 
L 307.296 306.772812 
L 310.464 307.062829 
L 313.632 307.192283 
L 316.8 307.018626 
L 319.968 307.154361 
L 323.136 307.14106 
L 326.304 306.838589 
L 332.64 306.938529 
L 335.808 306.59091 
L 348.48 306.904736 
L 351.648 306.73612 
L 357.984 306.863879 
L 361.152 306.571871 
L 370.656 306.650935 
L 373.824 306.718618 
L 376.992 307.039957 
L 380.16 306.550126 
L 383.328 306.631053 
L 386.496 306.354978 
L 415.008 306.279979 
L 418.176 306.427132 
L 421.344 306.303452 
L 424.512 306.403602 
L 427.68 306.081884 
L 430.848 306.204681 
L 434.016 306.103019 
L 437.184 305.829547 
L 443.52 305.515491 
L 453.024 305.539403 
L 456.192 305.64379 
L 462.528 306.109307 
L 465.696 306.206752 
L 468.864 306.173076 
L 472.032 305.918546 
L 475.2 306.269515 
L 494.208 306.278917 
L 500.544 305.824179 
L 506.88 305.664531 
L 510.048 306.054685 
L 513.216 306.075585 
L 516.384 305.915586 
L 519.552 305.99096 
L 522.72 305.896379 
L 535.392 306.669459 
L 538.56 306.851234 
L 541.728 306.899925 
L 544.896 306.669918 
L 551.232 306.920689 
L 554.4 306.591205 
L 557.568 306.111798 
L 567.072 306.680931 
L 570.24 306.740367 
L 573.408 306.981092 
L 576.576 306.792083 
L 579.744 306.240774 
L 582.912 306.06652 
L 586.08 305.642596 
L 589.248 305.389571 
L 592.416 305.625631 
L 595.584 305.676581 
L 598.752 305.14235 
L 605.088 305.170213 
L 614.592 304.978186 
L 617.76 305.040152 
L 620.928 304.875484 
L 624.096 305.029568 
L 627.264 305.05095 
L 630.432 304.779928 
L 636.768 304.813492 
L 639.936 305.01679 
L 643.104 304.577621 
L 646.272 304.617894 
L 652.608 304.939693 
L 665.28 305.100784 
L 671.616 304.877023 
L 674.784 304.901889 
L 677.952 305.163502 
L 684.288 304.898592 
L 693.792 305.626405 
L 706.464 305.620538 
L 709.632 305.451483 
L 715.968 305.565209 
L 719.136 305.880381 
L 722.304 305.958707 
L 731.808 305.714213 
L 734.976 305.860882 
L 776.16 305.308698 
L 779.328 305.021353 
L 782.496 305.260047 
L 785.664 305.673235 
L 788.832 305.850215 
L 788.832 305.850215 
" clip-path="url(#pc395476c21)" style="fill: none; stroke: #000000; stroke-width: 1.5; stroke-linecap: square"/>
   </g>
   <g id="line2d_7">
    <path d="M 0 306 
L 3.168 306 
L 6.336 304.314208 
L 9.504 303.888983 
L 12.672 305.856531 
L 19.008 304.695638 
L 22.176 304.074421 
L 25.344 304.677767 
L 28.512 305.154412 
L 31.68 304.350895 
L 34.848 304.408754 
L 38.016 303.988566 
L 41.184 304.044379 
L 44.352 304.31697 
L 47.52 304.777986 
L 50.688 305.088242 
L 53.856 304.824196 
L 57.024 304.863 
L 60.192 305.413873 
L 63.36 305.358245 
L 66.528 305.42929 
L 72.864 306.327001 
L 76.032 305.928098 
L 79.2 306.599279 
L 82.368 307.131481 
L 85.536 306.787625 
L 88.704 306.848992 
L 95.04 307.625304 
L 98.208 307.638262 
L 101.376 307.103038 
L 104.544 307.196703 
L 107.712 307.405272 
L 114.048 306.997639 
L 117.216 306.473133 
L 120.384 306.313933 
L 126.72 306.32991 
L 129.888 306.089629 
L 133.056 306.301471 
L 139.392 306.124557 
L 145.728 306.16764 
L 148.896 306.207343 
L 152.064 306.49577 
L 155.232 306.549384 
L 158.4 306.490552 
L 164.736 306.751954 
L 167.904 306.754857 
L 171.072 306.573951 
L 177.408 306.664177 
L 180.576 306.9146 
L 183.744 306.961824 
L 190.08 306.597929 
L 196.416 306.598507 
L 199.584 306.809124 
L 202.752 306.788419 
L 205.92 306.990627 
L 209.088 307.057876 
L 212.256 306.914849 
L 215.424 307.123002 
L 221.76 306.850642 
L 224.928 306.592945 
L 228.096 306.758997 
L 234.432 306.835138 
L 237.6 306.980161 
L 243.936 306.975438 
L 253.44 306.674867 
L 262.944 306.879515 
L 266.112 306.465075 
L 281.952 306.022984 
L 285.12 306.144775 
L 288.288 306.031327 
L 294.624 306.146228 
L 297.792 306.124935 
L 304.128 306.362671 
L 307.296 306.650689 
L 313.632 306.896826 
L 316.8 306.806147 
L 323.136 306.886535 
L 326.304 306.72335 
L 332.64 306.78477 
L 335.808 306.595057 
L 357.984 306.754768 
L 361.152 306.597245 
L 373.824 306.677199 
L 376.992 306.852905 
L 380.16 306.591266 
L 383.328 306.634192 
L 386.496 306.484657 
L 434.016 306.301271 
L 440.352 306.064428 
L 446.688 305.953444 
L 453.024 305.95054 
L 459.36 306.139001 
L 465.696 306.277633 
L 468.864 306.258232 
L 472.032 306.122934 
L 475.2 306.302795 
L 494.208 306.305618 
L 506.88 305.972301 
L 510.048 306.168431 
L 519.552 306.126601 
L 522.72 306.073546 
L 538.56 306.570109 
L 541.728 306.601179 
L 544.896 306.488784 
L 551.232 306.627358 
L 557.568 306.220807 
L 573.408 306.675721 
L 576.576 306.584839 
L 579.744 306.306463 
L 582.912 306.215884 
L 589.248 305.85885 
L 595.584 305.987355 
L 598.752 305.707012 
L 611.424 305.625277 
L 620.928 305.488958 
L 627.264 305.553338 
L 630.432 305.403476 
L 636.768 305.394488 
L 639.936 305.485967 
L 643.104 305.252549 
L 649.44 305.33839 
L 658.944 305.441441 
L 674.784 305.315379 
L 677.952 305.439366 
L 684.288 305.290642 
L 696.96 305.639324 
L 706.464 305.637381 
L 712.8 305.567354 
L 715.968 305.607231 
L 719.136 305.766545 
L 725.472 305.777544 
L 782.496 305.439312 
L 785.664 305.643623 
L 788.832 305.734 
L 788.832 305.734 
" clip-path="url(#pc395476c21)" style="fill: none; stroke: #000000; stroke-width: 1.5; stroke-linecap: square"/>
   </g>
   <g id="line2d_8">
    <path d="M 0 306 
L 3.168 306 
L 6.336 304.323238 
L 9.504 303.899502 
L 12.672 305.833096 
L 19.008 304.705871 
L 22.176 304.10258 
L 25.344 304.680366 
L 28.512 305.137036 
L 31.68 304.372454 
L 34.848 304.425291 
L 38.016 304.027109 
L 41.184 304.076379 
L 44.352 304.328717 
L 47.52 304.756634 
L 50.688 305.0452 
L 53.856 304.804803 
L 57.024 304.841542 
L 60.192 305.345136 
L 63.36 305.298454 
L 66.528 305.365784 
L 72.864 306.178812 
L 76.032 305.830624 
L 79.2 306.429833 
L 82.368 306.906696 
L 85.536 306.614355 
L 88.704 306.675119 
L 95.04 307.363854 
L 98.208 307.3849 
L 101.376 306.934899 
L 107.712 307.204496 
L 114.048 306.872682 
L 117.216 306.436468 
L 120.384 306.304578 
L 126.72 306.31832 
L 129.888 306.120398 
L 133.056 306.293559 
L 142.56 306.206906 
L 148.896 306.214794 
L 152.064 306.445804 
L 167.904 306.659181 
L 171.072 306.519893 
L 177.408 306.592645 
L 180.576 306.78811 
L 183.744 306.827438 
L 193.248 306.519627 
L 196.416 306.555611 
L 199.584 306.715939 
L 202.752 306.702334 
L 209.088 306.909285 
L 212.256 306.805685 
L 215.424 306.962683 
L 221.76 306.767338 
L 224.928 306.57942 
L 228.096 306.701439 
L 234.432 306.759056 
L 240.768 306.879571 
L 250.272 306.826283 
L 253.44 306.657113 
L 262.944 306.804841 
L 266.112 306.513962 
L 281.952 306.195914 
L 285.12 306.277248 
L 288.288 306.196654 
L 294.624 306.270628 
L 300.96 306.322955 
L 307.296 306.606808 
L 313.632 306.77552 
L 316.8 306.716476 
L 323.136 306.773729 
L 326.304 306.666617 
L 332.64 306.709295 
L 335.808 306.584858 
L 357.984 306.693454 
L 364.32 306.594697 
L 376.992 306.757754 
L 380.16 306.591777 
L 383.328 306.619168 
L 389.664 306.517109 
L 399.168 306.474461 
L 405.504 306.459711 
L 430.848 306.43395 
L 456.192 306.191849 
L 465.696 306.356434 
L 487.872 306.35217 
L 497.376 306.299257 
L 506.88 306.160125 
L 513.216 306.277372 
L 522.72 306.211792 
L 541.728 306.51791 
L 548.064 306.49709 
L 551.232 306.535286 
L 560.736 306.361484 
L 573.408 306.563355 
L 582.912 306.302047 
L 589.248 306.095156 
L 595.584 306.163034 
L 598.752 306.001732 
L 617.76 305.909585 
L 624.096 305.884297 
L 639.936 305.823717 
L 643.104 305.689263 
L 690.624 305.738168 
L 696.96 305.832765 
L 750.816 305.802445 
L 782.496 305.669796 
L 788.832 305.823798 
L 788.832 305.823798 
" clip-path="url(#pc395476c21)" style="fill: none; stroke: #000000; stroke-width: 1.5; stroke-linecap: square"/>
   </g>
   <g id="line2d_9">
    <path d="M 0 306 
L 3.168 306 
L 6.336 304.327754 
L 9.504 303.90478 
L 12.672 305.821507 
L 19.008 304.710862 
L 22.176 304.116464 
L 25.344 304.681764 
L 28.512 305.128622 
L 31.68 304.383037 
L 34.848 304.433497 
L 38.016 304.046093 
L 41.184 304.092308 
L 44.352 304.334915 
L 47.52 304.746824 
L 50.688 305.024802 
L 53.856 304.795607 
L 57.024 304.831269 
L 60.192 305.312108 
L 66.528 305.334782 
L 72.864 306.106949 
L 76.032 305.782277 
L 79.2 306.347133 
L 82.368 306.79729 
L 85.536 306.528437 
L 88.704 306.588378 
L 95.04 307.234892 
L 98.208 307.258872 
L 101.376 306.847824 
L 107.712 307.101414 
L 114.048 306.803796 
L 117.216 306.408158 
L 120.384 306.28903 
L 126.72 306.302298 
L 129.888 306.124031 
L 133.056 306.279904 
L 142.56 306.202453 
L 148.896 306.209576 
L 152.064 306.414825 
L 167.904 306.607135 
L 171.072 306.486284 
L 177.408 306.551132 
L 180.576 306.721945 
L 183.744 306.757392 
L 193.248 306.494328 
L 202.752 306.653146 
L 209.088 306.831937 
L 212.256 306.745234 
L 215.424 306.879471 
L 221.76 306.717036 
L 224.928 306.559533 
L 231.264 306.65849 
L 243.936 306.804825 
L 256.608 306.691372 
L 262.944 306.7571 
L 266.112 306.519437 
L 281.952 306.258234 
L 285.12 306.323185 
L 288.288 306.257457 
L 323.136 306.717915 
L 329.472 306.643431 
L 332.64 306.668543 
L 335.808 306.57152 
L 357.984 306.658047 
L 364.32 306.582379 
L 376.992 306.708064 
L 380.16 306.581963 
L 386.496 306.530885 
L 437.184 306.364025 
L 453.024 306.258827 
L 494.208 306.396578 
L 506.88 306.248676 
L 513.216 306.330705 
L 522.72 306.282598 
L 541.728 306.496474 
L 548.064 306.482085 
L 554.4 306.444207 
L 557.568 306.346786 
L 576.576 306.49256 
L 586.08 306.260602 
L 592.416 306.244843 
L 595.584 306.249556 
L 601.92 306.135069 
L 639.936 306.000948 
L 646.272 305.906628 
L 665.28 305.947875 
L 674.784 305.888124 
L 681.12 305.892646 
L 690.624 305.918294 
L 696.96 305.977686 
L 760.32 305.923162 
L 772.992 305.859513 
L 788.832 305.939841 
L 788.832 305.939841 
" clip-path="url(#pc395476c21)" style="fill: none; stroke: #000000; stroke-width: 1.5; stroke-linecap: square"/>
   </g>
  </g>
 </g>
 <defs>
  <clipPath id="pc395476c21">
   <rect x="0" y="0" width="792" height="612"/>
  </clipPath>
 </defs>
</svg>
