<?xml version="1.0" encoding="utf-8" standalone="no"?>
<!DOCTYPE svg PUBLIC "-//W3C//DTD SVG 1.1//EN"
  "http://www.w3.org/Graphics/SVG/1.1/DTD/svg11.dtd">
<svg xmlns:xlink="http://www.w3.org/1999/xlink" width="792pt" height="612pt" viewBox="0 0 792 612" xmlns="http://www.w3.org/2000/svg" version="1.1">
 <metadata>
  <rdf:RDF xmlns:dc="http://purl.org/dc/elements/1.1/" xmlns:cc="http://creativecommons.org/ns#" xmlns:rdf="http://www.w3.org/1999/02/22-rdf-syntax-ns#">
   <cc:Work>
    <dc:type rdf:resource="http://purl.org/dc/dcmitype/StillImage"/>
    <dc:date>2023-01-09T02:30:14.986405</dc:date>
    <dc:format>image/svg+xml</dc:format>
    <dc:creator>
     <cc:Agent>
      <dc:title>Matplotlib v3.6.2, https://matplotlib.org/</dc:title>
     </cc:Agent>
    </dc:creator>
   </cc:Work>
  </rdf:RDF>
 </metadata>
 <defs>
  <style type="text/css">*{stroke-linejoin: round; stroke-linecap: butt}</style>
 </defs>
 <g id="figure_1">
  <g id="patch_1">
   <path d="M 0 612 
L 792 612 
L 792 0 
L 0 0 
z
" style="fill: #ffffff"/>
  </g>
  <g id="axes_1">
   <g id="line2d_1">
    <path d="M 0 306 
L 3.168 305.689099 
L 6.336 304.262629 
L 9.504 306.384054 
L 12.672 324.886077 
L 15.84 318.100548 
L 19.008 310.279186 
L 22.176 308.322571 
L 25.344 310.71801 
L 28.512 306.237748 
L 31.68 303.110533 
L 34.848 303.457983 
L 38.016 310.772862 
L 41.184 303.622568 
L 44.352 302.360798 
L 47.52 301.336842 
L 50.688 308.212847 
L 53.856 308.267709 
L 57.024 298.941964 
L 60.192 305.067299 
L 63.36 300.733487 
L 66.528 304.811266 
L 69.696 307.188734 
L 72.864 309.712345 
L 76.032 308.615165 
L 79.2 301.921948 
L 82.368 305.487928 
L 85.536 312.527936 
L 88.704 304.701538 
L 91.872 306.493784 
L 95.04 311.814982 
L 98.208 313.569816 
L 101.376 299.746269 
L 104.544 317.278775 
L 107.712 315.780913 
L 110.88 300.824902 
L 114.048 307.810522 
L 117.216 313.112871 
L 120.384 315.48859 
L 123.552 307.66422 
L 126.72 296.602765 
L 129.888 308.889467 
L 133.056 311.431058 
L 136.224 303.659142 
L 139.392 301.775669 
L 142.56 295.177836 
L 145.728 302.799662 
L 148.896 306.091442 
L 152.064 306.822972 
L 155.232 300.568942 
L 158.4 311.193381 
L 161.568 304.33578 
L 164.736 303.750578 
L 167.904 307.920247 
L 171.072 305.433063 
L 174.24 307.170446 
L 177.408 313.716031 
L 180.576 307.847097 
L 183.744 304.902706 
L 186.912 310.699726 
L 190.08 309.383199 
L 193.248 306.731531 
L 196.416 301.611107 
L 199.584 306.896125 
L 202.752 308.670025 
L 205.92 313.752584 
L 209.088 308.157985 
L 212.256 301.720814 
L 215.424 301.135719 
L 218.592 305.15874 
L 221.76 307.865384 
L 224.928 312.856968 
L 228.096 306.073153 
L 231.264 312.856968 
L 234.432 308.92604 
L 237.6 302.488799 
L 240.768 313.277375 
L 243.936 304.006602 
L 250.272 298.558126 
L 253.44 311.814982 
L 256.608 306.365766 
L 259.776 309.401486 
L 262.944 311.431058 
L 266.112 307.371614 
L 269.28 306.182883 
L 272.448 304.079753 
L 275.616 307.517917 
L 278.784 298.832294 
L 281.952 309.822058 
L 285.12 309.255196 
L 288.288 307.773946 
L 291.456 292.731013 
L 294.624 302.781376 
L 297.792 304.390644 
L 300.96 301.976804 
L 304.128 302.653373 
L 307.296 304.244342 
L 310.464 310.242616 
L 313.632 302.177942 
L 316.8 309.364913 
L 319.968 306.786396 
L 323.136 305.378198 
L 326.304 309.785487 
L 329.472 310.919132 
L 332.64 316.529907 
L 335.808 312.509656 
L 338.976 309.529487 
L 342.144 303.531132 
L 345.312 309.620916 
L 348.48 306.731531 
L 351.648 300.879751 
L 354.816 307.188734 
L 357.984 308.304283 
L 361.152 299.78283 
L 364.32 307.719083 
L 367.488 307.024142 
L 370.656 306.950989 
L 373.824 310.919132 
L 376.992 303.366548 
L 380.16 308.615165 
L 383.328 307.335038 
L 386.496 300.824902 
L 389.664 306.658378 
L 392.832 308.743173 
L 396 305.798829 
L 399.168 307.938535 
L 402.336 313.149428 
L 405.504 296.949927 
L 408.672 308.12141 
L 411.84 300.934601 
L 415.008 306.036577 
L 418.176 304.573522 
L 421.344 307.024142 
L 424.512 305.15874 
L 427.68 309.291769 
L 430.848 302.671659 
L 434.016 306.786396 
L 437.184 304.994147 
L 440.352 308.103123 
L 443.52 309.255196 
L 446.688 303.842015 
L 449.856 308.285996 
L 453.024 299.78283 
L 456.192 308.578591 
L 459.36 304.116328 
L 462.528 300.495812 
L 465.696 302.799662 
L 468.864 302.360798 
L 472.032 305.396487 
L 475.2 303.860303 
L 478.368 307.90196 
L 481.536 307.737371 
L 484.704 311.504188 
L 487.872 309.584345 
L 491.04 308.103123 
L 494.208 305.487928 
L 497.376 300.971168 
L 500.544 313.094593 
L 503.712 306.512072 
L 506.88 305.963423 
L 510.048 307.243598 
L 513.216 304.573522 
L 516.384 307.463054 
L 519.552 305.945135 
L 522.72 302.049945 
L 525.888 301.062585 
L 529.056 304.95757 
L 532.224 303.421409 
L 535.392 313.6612 
L 538.56 306.493784 
L 541.728 302.799662 
L 544.896 307.444766 
L 548.064 304.02489 
L 551.232 310.260901 
L 554.4 312.107484 
L 557.568 308.340858 
L 560.736 309.785487 
L 563.904 310.29747 
L 567.072 307.719083 
L 570.24 302.086515 
L 573.408 309.346627 
L 576.576 309.03576 
L 579.744 300.09361 
L 582.912 296.785479 
L 586.08 310.352324 
L 592.416 309.950055 
L 595.584 307.810522 
L 598.752 311.540752 
L 601.92 302.982527 
L 605.088 295.470093 
L 608.256 302.671659 
L 611.424 297.461576 
L 614.592 300.55066 
L 617.76 310.260901 
L 620.928 306.694955 
L 624.096 294.849071 
L 627.264 305.725675 
L 630.432 305.414775 
L 633.6 303.421409 
L 636.768 305.103875 
L 639.936 303.293401 
L 643.104 306.365766 
L 646.272 301.848808 
L 649.44 308.157985 
L 652.608 305.579369 
L 655.776 299.636586 
L 658.944 304.738114 
L 662.112 305.853694 
L 665.28 309.127192 
L 668.448 296.237357 
L 671.616 305.597657 
L 674.784 308.542017 
L 677.952 307.773946 
L 681.12 305.670811 
L 684.288 307.060718 
L 687.456 303.622568 
L 690.624 307.444766 
L 693.792 302.360798 
L 696.96 303.366548 
L 700.128 305.524504 
L 703.296 310.370609 
L 706.464 301.958519 
L 709.632 303.037386 
L 712.8 309.547773 
L 715.968 307.97511 
L 719.136 312.930084 
L 722.304 305.597657 
L 725.472 306.164595 
L 728.64 303.47627 
L 731.808 307.31675 
L 734.976 302.251084 
L 738.144 306.237748 
L 741.312 307.22531 
L 744.48 312.052641 
L 747.648 307.481342 
L 750.816 304.59181 
L 753.984 304.847842 
L 757.152 303.311688 
L 760.32 308.743173 
L 763.488 304.86613 
L 766.656 305.15874 
L 769.824 304.68325 
L 772.992 304.610098 
L 779.328 304.134616 
L 782.496 303.695717 
L 785.664 307.883672 
L 788.832 301.263706 
L 788.832 301.263706 
" clip-path="url(#p6f0f18ae7d)" style="fill: none; stroke: #000000; stroke-width: 1.5; stroke-linecap: square"/>
   </g>
   <g id="line2d_2">
    <path d="M 0 306 
L 3.168 306 
L 6.336 305.792733 
L 9.504 304.918382 
L 12.672 305.700072 
L 15.84 315.611768 
L 19.008 316.87609 
L 22.176 313.552546 
L 25.344 310.927664 
L 28.512 310.832087 
L 31.68 308.536136 
L 34.848 305.821061 
L 38.016 304.633765 
L 41.184 307.675766 
L 44.352 305.620751 
L 47.52 303.975191 
L 50.688 302.642258 
L 53.856 305.422592 
L 57.024 306.849149 
L 60.192 302.886863 
L 63.36 303.980211 
L 66.528 302.337062 
L 69.696 303.576455 
L 72.864 305.39204 
L 76.032 307.568693 
L 79.2 308.092724 
L 82.368 304.994792 
L 85.536 305.254197 
L 88.704 308.906104 
L 91.872 306.81164 
L 95.04 306.656011 
L 98.208 309.244798 
L 101.376 311.415141 
L 104.544 305.563161 
L 107.712 311.453068 
L 110.88 313.637548 
L 114.048 307.208815 
L 117.216 307.515766 
L 120.384 310.327658 
L 123.552 312.915819 
L 126.72 310.278755 
L 129.888 303.433314 
L 136.224 308.779675 
L 139.392 306.224982 
L 142.56 303.988387 
L 145.728 299.546618 
L 148.896 301.148124 
L 152.064 303.616544 
L 155.232 305.239782 
L 158.4 302.887867 
L 161.568 307.04035 
L 164.736 305.689386 
L 167.904 304.723842 
L 171.072 306.347047 
L 174.24 305.895219 
L 177.408 306.53495 
L 180.576 310.139575 
L 183.744 309.007649 
L 186.912 306.942885 
L 190.08 308.83389 
L 193.248 309.119591 
L 196.416 307.923259 
L 199.584 304.759557 
L 202.752 305.827301 
L 205.92 307.238793 
L 209.088 310.507778 
L 212.256 309.339313 
L 215.424 305.512384 
L 218.592 303.307743 
L 221.76 304.230142 
L 224.928 306.060029 
L 228.096 309.470614 
L 231.264 307.766846 
L 234.432 310.310449 
L 237.6 309.619769 
L 240.768 306.055797 
L 243.936 309.690904 
L 253.44 301.276254 
L 256.608 306.55704 
L 259.776 306.448673 
L 262.944 307.926056 
L 266.112 309.69621 
L 272.448 307.356912 
L 275.616 305.723811 
L 278.784 306.63844 
L 281.952 302.709379 
L 285.12 306.272532 
L 288.288 307.763619 
L 291.456 307.761611 
L 294.624 300.214125 
L 297.792 301.491003 
L 300.96 302.941364 
L 304.128 302.448211 
L 307.296 302.558285 
L 310.464 303.390357 
L 313.632 306.818525 
L 316.8 304.487175 
L 319.968 306.958735 
L 323.136 306.880418 
L 326.304 306.131246 
L 329.472 307.973747 
L 332.64 309.462726 
L 335.808 313.021335 
L 338.976 312.769945 
L 342.144 311.164272 
L 345.312 307.336472 
L 348.48 308.484287 
L 351.648 307.610576 
L 354.816 304.227488 
L 357.984 305.700789 
L 361.152 306.986418 
L 364.32 303.359305 
L 367.488 305.535621 
L 370.656 306.286732 
L 373.824 306.613626 
L 376.992 308.774727 
L 380.16 306.07552 
L 383.328 307.348162 
L 386.496 307.3397 
L 389.664 304.084127 
L 392.832 305.369162 
L 396 307.05957 
L 399.168 306.426942 
L 402.336 307.176901 
L 405.504 310.182742 
L 408.672 303.542319 
L 411.84 305.833397 
L 415.008 303.384047 
L 418.176 304.709068 
L 421.344 304.633119 
L 424.512 305.83103 
L 427.68 305.489434 
L 430.848 307.383089 
L 434.016 305.03854 
L 437.184 305.909849 
L 440.352 305.459958 
L 446.688 308.029614 
L 449.856 305.929572 
L 453.024 307.113932 
L 456.192 303.42937 
L 459.36 306.015563 
L 462.528 305.060701 
L 465.696 302.769257 
L 468.864 302.774062 
L 472.032 302.553911 
L 475.2 303.978203 
L 478.368 303.910575 
L 481.536 305.922185 
L 484.704 306.828136 
L 487.872 309.180832 
L 491.04 309.40041 
L 494.208 308.762177 
L 497.376 307.131216 
L 500.544 304.042317 
L 503.712 308.587125 
L 506.88 307.546891 
L 510.048 306.751684 
L 513.216 306.989287 
L 516.384 305.771575 
L 519.552 306.616064 
L 522.72 306.281496 
L 525.888 304.167748 
L 529.056 302.591487 
L 532.224 303.771447 
L 535.392 303.591443 
L 538.56 308.639619 
L 541.728 307.570486 
L 544.896 305.175881 
L 548.064 306.313268 
L 551.232 305.17294 
L 554.4 307.735076 
L 557.568 309.935499 
L 560.736 309.147845 
L 563.904 309.459069 
L 567.072 309.885734 
L 570.24 308.812089 
L 573.408 305.438729 
L 576.576 307.40317 
L 579.744 308.217078 
L 582.912 304.13146 
L 586.08 300.435015 
L 589.248 305.394622 
L 592.416 307.754368 
L 595.584 308.856623 
L 598.752 308.344802 
L 601.92 309.947187 
L 605.088 306.453048 
L 608.256 300.950877 
L 611.424 301.822779 
L 614.592 299.616585 
L 617.76 300.064861 
L 620.928 305.163258 
L 624.096 305.926918 
L 627.264 300.353426 
L 630.432 303.044701 
L 633.6 304.249218 
L 636.768 303.83678 
L 639.936 304.48531 
L 643.104 303.894726 
L 646.272 305.122594 
L 649.44 303.476127 
L 652.608 305.843151 
L 655.776 305.710973 
L 658.944 302.662121 
L 665.28 304.779638 
L 668.448 306.964902 
L 671.616 301.579915 
L 674.784 303.596033 
L 677.952 306.069782 
L 681.12 306.926175 
L 684.288 306.310327 
L 687.456 306.690078 
L 690.624 305.151927 
L 693.792 306.295051 
L 696.96 304.339868 
L 700.128 303.848828 
L 703.296 304.68074 
L 706.464 307.530898 
L 709.632 304.737325 
L 712.8 303.879451 
L 715.968 306.725291 
L 719.136 307.351246 
L 722.304 310.161732 
L 725.472 307.884174 
L 728.64 307.025648 
L 731.808 305.237415 
L 734.976 306.287593 
L 738.144 304.267721 
L 744.48 306.234305 
L 747.648 309.142036 
L 750.816 308.315399 
L 753.984 306.450538 
L 757.152 305.651877 
L 760.32 304.473907 
L 763.488 306.6213 
L 766.656 305.741023 
L 785.664 304.033352 
L 788.832 305.956825 
L 788.832 305.956825 
" clip-path="url(#p6f0f18ae7d)" style="fill: none; stroke: #000000; stroke-width: 1.5; stroke-linecap: square"/>
   </g>
   <g id="line2d_3">
    <path d="M 0 306 
L 3.168 306 
L 6.336 305.817878 
L 9.504 305.113217 
L 12.672 305.609509 
L 15.84 312.475471 
L 19.008 314.359058 
L 22.176 313.048483 
L 25.344 311.572272 
L 28.512 311.310504 
L 31.68 309.77698 
L 34.848 307.780391 
L 38.016 306.494288 
L 41.184 307.761549 
L 50.688 304.140862 
L 53.856 305.336057 
L 57.024 306.197691 
L 60.192 304.066084 
L 63.36 304.357817 
L 66.528 303.268415 
L 69.696 303.705024 
L 72.864 304.721808 
L 76.032 306.185147 
L 79.2 306.894483 
L 82.368 305.433036 
L 85.536 305.451844 
L 88.704 307.535079 
L 91.872 306.698186 
L 95.04 306.641616 
L 101.376 309.764418 
L 104.544 306.820322 
L 107.712 309.895176 
L 110.88 311.638901 
L 114.048 308.466934 
L 117.216 308.282806 
L 120.384 309.70726 
L 123.552 311.410565 
L 126.72 310.311051 
L 129.888 306.281522 
L 133.056 307.053396 
L 136.224 308.342534 
L 139.392 306.960628 
L 142.56 305.438552 
L 145.728 302.419096 
L 148.896 302.520206 
L 155.232 304.522075 
L 158.4 303.344921 
L 161.568 305.638509 
L 167.904 304.813922 
L 171.072 305.717781 
L 174.24 305.622836 
L 177.408 306.075555 
L 180.576 308.333494 
L 183.744 308.189835 
L 186.912 307.219577 
L 190.08 308.247049 
L 193.248 308.588565 
L 196.416 308.057941 
L 199.584 306.168276 
L 202.752 306.382382 
L 205.92 307.054555 
L 209.088 309.031897 
L 212.256 308.772452 
L 215.424 306.704042 
L 218.592 305.069998 
L 221.76 305.092818 
L 224.928 305.907683 
L 228.096 307.949924 
L 231.264 307.391459 
L 234.432 308.998272 
L 237.6 308.981737 
L 240.768 307.070585 
L 243.936 308.893305 
L 247.104 307.458935 
L 250.272 305.64927 
L 253.44 303.562365 
L 256.608 305.983282 
L 259.776 306.086823 
L 262.944 307.05913 
L 266.112 308.350916 
L 269.28 308.071252 
L 272.448 307.519348 
L 275.616 306.507566 
L 278.784 306.79736 
L 281.952 304.455758 
L 285.12 306.024073 
L 288.288 306.970858 
L 291.456 307.212149 
L 294.624 302.944779 
L 297.792 302.895512 
L 300.96 303.336985 
L 304.128 302.942511 
L 307.296 302.847301 
L 310.464 303.254037 
L 313.632 305.30194 
L 316.8 304.376269 
L 319.968 305.839728 
L 323.136 306.117694 
L 326.304 305.902592 
L 332.64 308.19193 
L 335.808 310.642664 
L 338.976 311.193274 
L 342.144 310.708005 
L 345.312 308.618545 
L 348.48 308.919995 
L 351.648 308.281719 
L 354.816 306.112362 
L 357.984 306.432835 
L 361.152 306.985643 
L 364.32 304.863729 
L 367.488 305.70641 
L 370.656 306.089677 
L 373.824 306.342139 
L 376.992 307.689181 
L 380.16 306.415731 
L 383.328 307.057298 
L 386.496 307.128081 
L 389.664 305.26836 
L 392.832 305.672188 
L 396 306.577666 
L 399.168 306.34516 
L 402.336 306.813241 
L 405.504 308.683476 
L 408.672 305.234313 
L 411.84 306.079723 
L 415.008 304.573949 
L 418.176 305.000407 
L 421.344 304.87256 
L 424.512 305.502826 
L 427.68 305.395428 
L 430.848 306.543482 
L 434.016 305.402587 
L 437.184 305.807265 
L 440.352 305.573897 
L 443.52 306.316359 
L 446.688 307.177743 
L 449.856 306.198477 
L 453.024 306.810307 
L 456.192 304.736409 
L 459.36 305.875131 
L 462.528 305.355383 
L 465.696 303.9314 
L 472.032 303.231806 
L 475.2 303.863937 
L 478.368 303.861382 
L 481.536 305.043229 
L 484.704 305.838147 
L 487.872 307.503273 
L 491.04 308.1181 
L 494.208 308.113713 
L 497.376 307.340326 
L 500.544 305.471419 
L 503.712 307.710074 
L 510.048 306.952846 
L 513.216 307.041597 
L 516.384 306.323399 
L 519.552 306.662555 
L 522.72 306.456545 
L 529.056 303.957981 
L 532.224 304.247369 
L 535.392 304.00049 
L 538.56 306.832972 
L 541.728 306.730077 
L 544.896 305.57276 
L 548.064 306.123309 
L 551.232 305.512196 
L 554.4 306.899882 
L 557.568 308.431769 
L 560.736 308.407873 
L 567.072 309.2553 
L 570.24 308.80566 
L 573.408 306.833227 
L 576.576 307.577793 
L 579.744 308.01399 
L 582.912 305.688383 
L 586.08 303.07243 
L 589.248 305.200884 
L 592.416 306.644314 
L 595.584 307.620807 
L 598.752 307.676793 
L 601.92 308.817264 
L 605.088 307.099971 
L 608.256 303.673373 
L 611.424 303.37346 
L 614.592 301.627354 
L 617.76 301.300792 
L 620.928 303.927918 
L 624.096 304.743643 
L 627.264 301.827739 
L 630.432 302.965532 
L 633.6 303.688985 
L 636.768 303.618238 
L 639.936 304.047334 
L 643.104 303.818675 
L 646.272 304.560568 
L 649.44 303.759422 
L 652.608 305.04383 
L 655.776 305.203668 
L 658.944 303.577678 
L 662.112 303.919929 
L 665.28 304.495947 
L 668.448 305.862282 
L 671.616 303.026218 
L 674.784 303.778088 
L 677.952 305.189135 
L 681.12 305.948566 
L 684.288 305.867507 
L 687.456 306.221172 
L 690.624 305.458343 
L 693.792 306.044924 
L 696.96 304.961222 
L 700.128 304.495887 
L 703.296 304.794134 
L 706.464 306.433032 
L 709.632 305.125079 
L 712.8 304.511637 
L 715.968 305.990969 
L 719.136 306.570794 
L 722.304 308.452861 
L 725.472 307.616613 
L 728.64 307.188601 
L 731.808 306.096335 
L 734.976 306.455679 
L 738.144 305.218604 
L 741.312 305.520108 
L 744.48 306.019299 
L 747.648 307.797768 
L 750.816 307.709815 
L 753.984 306.795509 
L 757.152 306.218707 
L 760.32 305.368796 
L 763.488 306.363702 
L 766.656 305.919695 
L 782.496 304.699222 
L 785.664 304.401139 
L 788.832 305.427617 
L 788.832 305.427617 
" clip-path="url(#p6f0f18ae7d)" style="fill: none; stroke: #000000; stroke-width: 1.5; stroke-linecap: square"/>
   </g>
   <g id="line2d_4">
    <path d="M 0 306 
L 3.168 306 
L 6.336 305.831114 
L 9.504 305.215534 
L 12.672 305.587365 
L 15.84 310.891596 
L 19.008 312.666678 
L 22.176 312.126167 
L 25.344 311.319398 
L 28.512 311.198249 
L 31.68 310.23967 
L 34.848 308.907465 
L 38.016 307.916607 
L 41.184 308.424464 
L 47.52 306.688219 
L 50.688 305.779974 
L 57.024 306.534638 
L 60.192 305.279785 
L 63.36 305.244887 
L 66.528 304.507662 
L 69.696 304.557058 
L 72.864 304.98369 
L 76.032 305.748004 
L 79.2 306.210263 
L 82.368 305.520316 
L 85.536 305.515115 
L 88.704 306.639823 
L 91.872 306.329395 
L 95.04 306.355695 
L 98.208 307.228446 
L 101.376 308.24155 
L 104.544 306.88591 
L 107.712 308.547443 
L 110.88 309.705902 
L 114.048 308.289465 
L 117.216 308.202596 
L 120.384 308.980864 
L 123.552 310.019851 
L 126.72 309.644676 
L 129.888 307.560513 
L 133.056 307.773614 
L 136.224 308.360779 
L 139.392 307.612874 
L 142.56 306.678509 
L 145.728 304.842727 
L 148.896 304.51793 
L 155.232 305.096812 
L 158.4 304.37153 
L 161.568 305.464624 
L 167.904 305.042378 
L 171.072 305.502199 
L 174.24 305.490104 
L 177.408 305.755867 
L 180.576 307.025798 
L 183.744 307.160168 
L 186.912 306.800634 
L 190.08 307.419903 
L 193.248 307.735203 
L 196.416 307.575666 
L 199.584 306.620279 
L 202.752 306.660002 
L 205.92 306.985381 
L 209.088 308.0601 
L 212.256 308.070916 
L 218.592 306.114149 
L 221.76 305.957176 
L 224.928 306.256024 
L 228.096 307.309673 
L 231.264 307.118851 
L 234.432 308.034439 
L 237.6 308.174735 
L 240.768 307.269351 
L 243.936 308.232612 
L 247.104 307.565765 
L 250.272 306.564998 
L 253.44 305.286143 
L 256.608 306.32813 
L 259.776 306.337735 
L 262.944 306.824091 
L 266.112 307.561582 
L 269.28 307.533617 
L 272.448 307.317629 
L 275.616 306.801628 
L 278.784 306.91581 
L 281.952 305.620199 
L 285.12 306.289993 
L 288.288 306.764502 
L 291.456 306.923284 
L 294.624 304.653534 
L 297.792 304.353192 
L 300.96 304.360885 
L 304.128 303.978479 
L 307.296 303.763889 
L 310.464 303.834397 
L 313.632 304.855287 
L 316.8 304.429575 
L 319.968 305.219951 
L 323.136 305.470193 
L 326.304 305.454004 
L 332.64 306.904535 
L 335.808 308.438872 
L 338.976 309.08888 
L 342.144 309.163376 
L 345.312 308.261229 
L 348.48 308.48107 
L 351.648 308.20612 
L 354.816 307.04187 
L 357.984 307.06235 
L 361.152 307.261159 
L 364.32 306.065198 
L 367.488 306.326023 
L 373.824 306.519156 
L 376.992 307.223537 
L 380.16 306.60728 
L 383.328 306.932854 
L 386.496 306.995292 
L 389.664 306.008225 
L 392.832 306.110971 
L 396 306.53977 
L 399.168 306.423767 
L 402.336 306.666989 
L 405.504 307.70553 
L 408.672 305.99031 
L 411.84 306.3318 
L 415.008 305.467205 
L 418.176 305.560202 
L 421.344 305.400227 
L 424.512 305.658746 
L 427.68 305.579056 
L 430.848 306.169474 
L 434.016 305.607792 
L 437.184 305.78923 
L 440.352 305.658039 
L 443.52 306.046176 
L 446.688 306.560333 
L 449.856 306.124228 
L 453.024 306.469149 
L 456.192 305.404512 
L 459.36 305.910396 
L 462.528 305.622337 
L 465.696 304.807045 
L 472.032 304.143756 
L 475.2 304.342097 
L 478.368 304.261037 
L 481.536 304.843144 
L 484.704 305.303078 
L 487.872 306.292392 
L 491.04 306.821643 
L 494.208 307.026436 
L 497.376 306.779624 
L 500.544 305.852395 
L 503.712 307.008071 
L 513.216 306.851235 
L 516.384 306.491113 
L 519.552 306.646643 
L 522.72 306.535887 
L 529.056 305.059632 
L 532.224 305.040689 
L 535.392 304.783518 
L 538.56 306.200529 
L 541.728 306.248123 
L 544.896 305.696133 
L 548.064 305.973218 
L 551.232 305.663342 
L 554.4 306.396106 
L 557.568 307.312619 
L 560.736 307.47607 
L 567.072 308.24307 
L 570.24 308.162772 
L 573.408 307.195837 
L 579.744 307.781648 
L 582.912 306.553481 
L 586.08 304.992083 
L 589.248 305.844241 
L 592.416 306.524044 
L 595.584 307.070318 
L 598.752 307.189537 
L 601.92 307.888504 
L 605.088 307.101635 
L 608.256 305.243467 
L 611.424 304.832212 
L 614.592 303.653102 
L 617.76 303.156933 
L 620.928 304.288938 
L 624.096 304.672206 
L 627.264 303.104107 
L 630.432 303.524099 
L 633.6 303.825189 
L 636.768 303.760946 
L 639.936 303.969266 
L 643.104 303.859735 
L 646.272 304.260668 
L 649.44 303.873419 
L 652.608 304.557675 
L 655.776 304.717308 
L 658.944 303.901045 
L 662.112 304.031976 
L 665.28 304.319359 
L 668.448 305.083578 
L 671.616 303.668462 
L 674.784 303.977586 
L 677.952 304.703294 
L 681.12 305.191057 
L 684.288 305.270867 
L 687.456 305.562052 
L 690.624 305.249267 
L 693.792 305.596914 
L 696.96 305.077276 
L 700.128 304.802314 
L 703.296 304.913462 
L 706.464 305.786367 
L 709.632 305.181358 
L 712.8 304.840462 
L 715.968 305.596975 
L 719.136 305.979982 
L 722.304 307.087618 
L 725.472 306.849877 
L 728.64 306.74791 
L 731.808 306.225969 
L 734.976 306.400704 
L 738.144 305.739725 
L 741.312 305.819669 
L 744.48 306.045766 
L 747.648 307.005152 
L 750.816 307.08443 
L 760.32 305.90484 
L 763.488 306.358939 
L 769.824 305.965266 
L 785.664 304.949197 
L 788.832 305.416597 
L 788.832 305.416597 
" clip-path="url(#p6f0f18ae7d)" style="fill: none; stroke: #000000; stroke-width: 1.5; stroke-linecap: square"/>
   </g>
   <g id="line2d_5">
    <path d="M 0 306 
L 3.168 306 
L 6.336 305.837819 
L 9.504 305.266658 
L 12.672 305.58329 
L 15.84 310.145432 
L 19.008 311.774874 
L 22.176 311.501914 
L 25.344 310.974232 
L 28.512 310.934961 
L 31.68 310.262378 
L 34.848 309.296448 
L 38.016 308.546904 
L 41.184 308.8203 
L 47.52 307.539415 
L 50.688 306.853 
L 57.024 307.132716 
L 60.192 306.290447 
L 63.36 306.167131 
L 66.528 305.628862 
L 69.696 305.549156 
L 72.864 305.706711 
L 76.032 306.086673 
L 79.2 306.323702 
L 82.368 305.915442 
L 85.536 305.876175 
L 88.704 306.481862 
L 91.872 306.321069 
L 95.04 306.336554 
L 101.376 307.421838 
L 104.544 306.745998 
L 107.712 307.6691 
L 110.88 308.376695 
L 114.048 307.720929 
L 117.216 307.728679 
L 120.384 308.192883 
L 123.552 308.819976 
L 126.72 308.720961 
L 129.888 307.685324 
L 133.056 307.787963 
L 136.224 308.097825 
L 139.392 307.721116 
L 142.56 307.21745 
L 145.728 306.198916 
L 148.896 305.911891 
L 155.232 306.00247 
L 158.4 305.545458 
L 161.568 306.019971 
L 167.904 305.700196 
L 171.072 305.886182 
L 174.24 305.848251 
L 177.408 305.958853 
L 180.576 306.607449 
L 183.744 306.711016 
L 186.912 306.560024 
L 190.08 306.90554 
L 193.248 307.112232 
L 196.416 307.080488 
L 199.584 306.624588 
L 202.752 306.647213 
L 205.92 306.815971 
L 209.088 307.394437 
L 212.256 307.459077 
L 218.592 306.488362 
L 221.76 306.373795 
L 224.928 306.496806 
L 228.096 307.026242 
L 231.264 306.945628 
L 234.432 307.438488 
L 237.6 307.563845 
L 240.768 307.142316 
L 243.936 307.652419 
L 247.104 307.349959 
L 250.272 306.845966 
L 253.44 306.157084 
L 256.608 306.627897 
L 259.776 306.605522 
L 262.944 306.840991 
L 266.112 307.224062 
L 272.448 307.151307 
L 275.616 306.895369 
L 278.784 306.946324 
L 281.952 306.269601 
L 288.288 306.79137 
L 291.456 306.871374 
L 294.624 305.693193 
L 297.792 305.450307 
L 300.96 305.359941 
L 307.296 304.875286 
L 310.464 304.818676 
L 313.632 305.267056 
L 316.8 305.011098 
L 319.968 305.372962 
L 323.136 305.488212 
L 326.304 305.475789 
L 332.64 306.260909 
L 335.808 307.116022 
L 338.976 307.564096 
L 342.144 307.729133 
L 345.312 307.381291 
L 348.48 307.571882 
L 351.648 307.503416 
L 354.816 306.951951 
L 361.152 307.084839 
L 364.32 306.47502 
L 370.656 306.617354 
L 373.824 306.644729 
L 376.992 307.001306 
L 380.16 306.698394 
L 383.328 306.855822 
L 386.496 306.895428 
L 389.664 306.390233 
L 392.832 306.411172 
L 396 306.604516 
L 399.168 306.537344 
L 402.336 306.655698 
L 405.504 307.19679 
L 408.672 306.342313 
L 411.84 306.48814 
L 415.008 306.024829 
L 418.176 306.027209 
L 421.344 305.907677 
L 424.512 306.000947 
L 427.68 305.930166 
L 430.848 306.208015 
L 434.016 305.913394 
L 437.184 305.983873 
L 440.352 305.90045 
L 446.688 306.346899 
L 449.856 306.138948 
L 453.024 306.319427 
L 456.192 305.777244 
L 459.36 306.008696 
L 462.528 305.850903 
L 465.696 305.403505 
L 472.032 304.948573 
L 475.2 304.985492 
L 478.368 304.892033 
L 484.704 305.360277 
L 487.872 305.870792 
L 491.04 306.179123 
L 494.208 306.338917 
L 497.376 306.272443 
L 500.544 305.831832 
L 503.712 306.43755 
L 513.216 306.476771 
L 516.384 306.316963 
L 519.552 306.413805 
L 522.72 306.373794 
L 529.056 305.601037 
L 532.224 305.54606 
L 535.392 305.367278 
L 538.56 306.054838 
L 541.728 306.08931 
L 544.896 305.814082 
L 548.064 305.950697 
L 551.232 305.789039 
L 554.4 306.161357 
L 557.568 306.658583 
L 563.904 307.04698 
L 567.072 307.320199 
L 570.24 307.353305 
L 573.408 306.914563 
L 579.744 307.275828 
L 582.912 306.678612 
L 586.08 305.85344 
L 592.416 306.553467 
L 595.584 306.836459 
L 598.752 306.916999 
L 601.92 307.302666 
L 605.088 306.942495 
L 608.256 305.984233 
L 611.424 305.711155 
L 614.592 305.022823 
L 617.76 304.651484 
L 620.928 305.118435 
L 624.096 305.24997 
L 627.264 304.382377 
L 633.6 304.569202 
L 636.768 304.474182 
L 639.936 304.525896 
L 643.104 304.423048 
L 646.272 304.583717 
L 649.44 304.354306 
L 652.608 304.671397 
L 655.776 304.745874 
L 658.944 304.32171 
L 665.28 304.479967 
L 668.448 304.86848 
L 671.616 304.149738 
L 674.784 304.27096 
L 681.12 304.888962 
L 693.792 305.202509 
L 700.128 304.831437 
L 703.296 304.890441 
L 706.464 305.344407 
L 709.632 305.061892 
L 712.8 304.892909 
L 715.968 305.280004 
L 719.136 305.504795 
L 722.304 306.122942 
L 728.64 306.087656 
L 731.808 305.871703 
L 734.976 305.992404 
L 738.144 305.681494 
L 744.48 305.849982 
L 747.648 306.367855 
L 750.816 306.460282 
L 760.32 305.94151 
L 763.488 306.174174 
L 785.664 305.378221 
L 788.832 305.589778 
L 788.832 305.589778 
" clip-path="url(#p6f0f18ae7d)" style="fill: none; stroke: #000000; stroke-width: 1.5; stroke-linecap: square"/>
   </g>
   <g id="line2d_6">
    <path d="M 0 306 
L 3.168 306 
L 6.336 305.841183 
L 9.504 305.29204 
L 12.672 305.583031 
L 15.84 309.790203 
L 19.008 311.330265 
L 22.176 311.159919 
L 25.344 310.749252 
L 28.512 310.74515 
L 31.68 310.201677 
L 34.848 309.408661 
L 38.016 308.786377 
L 41.184 308.981976 
L 50.688 307.379377 
L 57.024 307.511421 
L 60.192 306.863639 
L 63.36 306.73223 
L 66.528 306.306455 
L 69.696 306.203287 
L 72.864 306.269521 
L 79.2 306.631208 
L 82.368 306.335751 
L 85.536 306.283622 
L 88.704 306.660426 
L 91.872 306.544321 
L 95.04 306.541375 
L 101.376 307.224278 
L 104.544 306.8074 
L 107.712 307.383674 
L 110.88 307.839998 
L 114.048 307.463397 
L 117.216 307.481824 
L 123.552 308.178707 
L 126.72 308.152211 
L 129.888 307.56264 
L 133.056 307.629778 
L 136.224 307.820576 
L 142.56 307.324758 
L 145.728 306.728274 
L 148.896 306.536703 
L 155.232 306.529955 
L 158.4 306.244481 
L 161.568 306.480192 
L 167.904 306.254705 
L 171.072 306.332852 
L 177.408 306.331734 
L 180.576 306.673827 
L 183.744 306.727958 
L 186.912 306.644062 
L 193.248 306.946386 
L 196.416 306.936611 
L 199.584 306.695049 
L 205.92 306.792798 
L 209.088 307.105881 
L 212.256 307.153078 
L 218.592 306.652182 
L 221.76 306.585659 
L 224.928 306.642541 
L 228.096 306.918244 
L 231.264 306.880832 
L 234.432 307.14495 
L 237.6 307.223513 
L 240.768 307.015025 
L 243.936 307.290381 
L 247.104 307.146249 
L 253.44 306.524555 
L 256.608 306.755801 
L 259.776 306.738777 
L 269.28 307.06794 
L 278.784 306.928202 
L 281.952 306.577488 
L 288.288 306.827606 
L 291.456 306.868488 
L 294.624 306.25789 
L 307.296 305.721187 
L 310.464 305.657662 
L 313.632 305.854765 
L 316.8 305.696796 
L 319.968 305.854299 
L 329.472 306.039937 
L 332.64 306.249029 
L 335.808 306.689543 
L 338.976 306.938754 
L 342.144 307.049628 
L 345.312 306.899115 
L 348.48 307.015508 
L 351.648 307.00337 
L 354.816 306.741686 
L 361.152 306.826695 
L 364.32 306.52596 
L 376.992 306.794829 
L 380.16 306.648671 
L 386.496 306.758166 
L 389.664 306.505369 
L 402.336 306.630658 
L 405.504 306.90817 
L 408.672 306.484358 
L 411.84 306.554169 
L 415.008 306.315345 
L 443.52 306.242547 
L 446.688 306.370026 
L 449.856 306.262882 
L 453.024 306.349642 
L 456.192 306.070936 
L 459.36 306.177316 
L 462.528 306.089246 
L 468.864 305.72253 
L 472.032 305.580268 
L 481.536 305.600983 
L 484.704 305.691414 
L 491.04 306.094693 
L 494.208 306.17911 
L 497.376 306.149937 
L 500.544 305.929436 
L 503.712 306.233482 
L 522.72 306.241627 
L 532.224 305.809497 
L 535.392 305.709382 
L 538.56 306.047374 
L 541.728 306.06548 
L 544.896 305.926872 
L 548.064 305.992169 
L 551.232 305.910233 
L 567.072 306.737428 
L 570.24 306.77961 
L 573.408 306.580353 
L 579.744 306.797597 
L 582.912 306.512164 
L 586.08 306.096851 
L 595.584 306.589894 
L 598.752 306.641384 
L 601.92 306.849925 
L 605.088 306.686185 
L 608.256 306.208584 
L 611.424 306.057627 
L 614.592 305.690379 
L 617.76 305.471183 
L 620.928 305.675683 
L 624.096 305.719821 
L 627.264 305.257014 
L 633.6 305.281151 
L 643.104 305.114797 
L 646.272 305.168479 
L 649.44 305.025826 
L 652.608 305.15931 
L 655.776 305.177833 
L 658.944 304.943045 
L 665.28 304.972122 
L 668.448 305.14824 
L 671.616 304.767785 
L 674.784 304.802674 
L 681.12 305.081451 
L 696.96 305.098835 
L 703.296 305.048701 
L 706.464 305.275338 
L 712.8 305.045845 
L 722.304 305.676353 
L 734.976 305.671271 
L 738.144 305.524817 
L 744.48 305.623339 
L 747.648 305.896373 
L 750.816 305.964228 
L 760.32 305.752422 
L 763.488 305.879481 
L 788.832 305.609189 
L 788.832 305.609189 
" clip-path="url(#p6f0f18ae7d)" style="fill: none; stroke: #000000; stroke-width: 1.5; stroke-linecap: square"/>
   </g>
   <g id="line2d_7">
    <path d="M 0 306 
L 3.168 306 
L 6.336 305.842866 
L 9.504 305.304665 
L 12.672 305.583342 
L 15.84 309.617768 
L 19.008 311.109989 
L 22.176 310.983457 
L 25.344 310.625126 
L 28.512 310.636363 
L 31.68 310.152466 
L 34.848 309.440809 
L 38.016 308.880768 
L 41.184 309.045982 
L 50.688 307.623448 
L 57.024 307.704485 
L 60.192 307.147887 
L 63.36 307.021082 
L 66.528 306.652409 
L 69.696 306.548334 
L 72.864 306.583307 
L 79.2 306.844358 
L 82.368 306.599397 
L 85.536 306.545611 
L 88.704 306.827548 
L 95.04 306.719292 
L 101.376 307.226668 
L 104.544 306.912781 
L 110.88 307.679651 
L 114.048 307.408384 
L 117.216 307.424014 
L 123.552 307.936297 
L 126.72 307.926238 
L 129.888 307.513885 
L 139.392 307.559091 
L 142.56 307.360073 
L 145.728 306.946097 
L 148.896 306.806985 
L 155.232 306.784568 
L 158.4 306.583188 
L 161.568 306.730936 
L 171.072 306.605985 
L 177.408 306.588198 
L 180.576 306.803648 
L 196.416 306.959051 
L 199.584 306.805127 
L 205.92 306.860558 
L 209.088 307.054768 
L 212.256 307.08564 
L 221.76 306.731817 
L 224.928 306.762754 
L 228.096 306.92813 
L 231.264 306.905064 
L 237.6 307.114446 
L 240.768 306.991654 
L 243.936 307.157694 
L 250.272 306.923381 
L 253.44 306.705602 
L 256.608 306.838004 
L 262.944 306.891975 
L 269.28 307.017328 
L 278.784 306.937463 
L 281.952 306.73419 
L 291.456 306.89456 
L 294.624 306.544145 
L 310.464 306.155899 
L 313.632 306.255094 
L 316.8 306.156413 
L 323.136 306.247154 
L 329.472 306.311522 
L 332.64 306.421583 
L 338.976 306.801529 
L 342.144 306.866222 
L 345.312 306.787314 
L 351.648 306.85132 
L 354.816 306.710945 
L 361.152 306.75919 
L 364.32 306.596182 
L 386.496 306.720036 
L 389.664 306.584248 
L 402.336 306.646569 
L 405.504 306.795231 
L 408.672 306.570463 
L 411.84 306.605813 
L 415.008 306.476721 
L 462.528 306.302893 
L 472.032 306.014344 
L 484.704 306.034991 
L 491.04 306.232627 
L 497.376 306.256695 
L 500.544 306.139606 
L 503.712 306.293582 
L 522.72 306.292091 
L 535.392 306.00265 
L 538.56 306.171028 
L 548.064 306.13336 
L 551.232 306.087113 
L 570.24 306.539258 
L 573.408 306.441911 
L 579.744 306.560659 
L 586.08 306.209125 
L 601.92 306.59995 
L 605.088 306.521176 
L 608.256 306.280525 
L 611.424 306.201991 
L 617.76 305.893037 
L 624.096 306.003362 
L 627.264 305.760916 
L 639.936 305.689065 
L 649.44 305.570402 
L 655.776 305.625475 
L 658.944 305.495692 
L 665.28 305.48739 
L 668.448 305.566201 
L 671.616 305.364186 
L 684.288 305.492374 
L 693.792 305.527489 
L 703.296 305.416221 
L 706.464 305.523244 
L 712.8 305.394237 
L 725.472 305.695111 
L 734.976 305.692951 
L 741.312 305.632066 
L 763.488 305.803813 
L 788.832 305.666517 
L 788.832 305.666517 
" clip-path="url(#p6f0f18ae7d)" style="fill: none; stroke: #000000; stroke-width: 1.5; stroke-linecap: square"/>
   </g>
   <g id="line2d_8">
    <path d="M 0 306 
L 3.168 306 
L 6.336 305.843708 
L 9.504 305.310958 
L 12.672 305.583606 
L 15.84 309.532926 
L 19.008 311.000569 
L 22.176 310.894139 
L 25.344 310.560408 
L 28.512 310.578688 
L 31.68 310.12319 
L 34.848 309.450667 
L 38.016 308.921035 
L 41.184 309.072932 
L 50.688 307.738541 
L 57.024 307.799259 
L 60.192 307.2862 
L 63.36 307.163473 
L 66.528 306.822967 
L 69.696 306.720755 
L 72.864 306.743617 
L 79.2 306.961985 
L 82.368 306.740757 
L 85.536 306.68753 
L 88.704 306.928073 
L 95.04 306.825684 
L 101.376 307.255315 
L 104.544 306.98612 
L 110.88 307.634306 
L 114.048 307.407112 
L 117.216 307.420274 
L 123.552 307.848737 
L 126.72 307.843084 
L 129.888 307.505323 
L 139.392 307.544888 
L 142.56 307.383783 
L 145.728 307.048572 
L 152.064 306.911454 
L 155.232 306.90914 
L 158.4 306.745791 
L 161.568 306.858689 
L 171.072 306.749659 
L 177.408 306.728775 
L 180.576 306.892215 
L 196.416 307.00275 
L 199.584 306.885309 
L 205.92 306.923578 
L 209.088 307.067649 
L 212.256 307.090412 
L 221.76 306.825351 
L 231.264 306.948229 
L 237.6 307.09977 
L 240.768 307.01122 
L 243.936 307.130571 
L 250.272 306.963098 
L 253.44 306.80685 
L 259.776 306.889462 
L 272.448 307.007615 
L 285.12 306.875995 
L 291.456 306.931522 
L 294.624 306.690402 
L 310.464 306.41004 
L 313.632 306.472811 
L 316.8 306.402862 
L 351.648 306.84346 
L 357.984 306.758697 
L 361.152 306.782177 
L 364.32 306.676301 
L 386.496 306.749981 
L 392.832 306.663195 
L 405.504 306.791264 
L 408.672 306.650385 
L 415.008 306.589831 
L 465.696 306.376847 
L 478.368 306.231287 
L 516.384 306.396016 
L 525.888 306.347625 
L 535.392 306.226086 
L 541.728 306.323501 
L 551.232 306.264594 
L 570.24 306.519328 
L 576.576 306.499831 
L 579.744 306.531515 
L 589.248 306.380821 
L 605.088 306.505807 
L 611.424 306.324437 
L 617.76 306.146203 
L 624.096 306.202647 
L 627.264 306.064059 
L 655.776 305.953201 
L 662.112 305.863461 
L 709.632 305.781378 
L 715.968 305.793784 
L 734.976 305.891131 
L 744.48 305.869095 
L 750.816 305.959287 
L 788.832 305.844434 
L 788.832 305.844434 
" clip-path="url(#p6f0f18ae7d)" style="fill: none; stroke: #000000; stroke-width: 1.5; stroke-linecap: square"/>
   </g>
   <g id="line2d_9">
    <path d="M 0 306 
L 3.168 306 
L 6.336 305.844128 
L 9.504 305.3141 
L 12.672 305.583764 
L 15.84 309.490858 
L 19.008 310.946064 
L 22.176 310.849244 
L 25.344 310.527421 
L 28.512 310.549059 
L 31.68 310.107401 
L 34.848 309.454029 
L 38.016 308.939381 
L 41.184 309.085055 
L 50.688 307.794098 
L 57.024 307.845857 
L 60.192 307.353986 
L 63.36 307.233676 
L 66.528 306.907072 
L 69.696 306.806295 
L 76.032 306.951932 
L 79.2 307.022876 
L 82.368 306.813112 
L 85.536 306.760498 
L 88.704 306.981925 
L 95.04 306.882656 
L 101.376 307.276232 
L 104.544 307.027704 
L 110.88 307.620673 
L 114.048 307.413455 
L 117.216 307.425266 
L 126.72 307.810408 
L 129.888 307.506335 
L 139.392 307.542637 
L 142.56 307.398621 
L 145.728 307.099195 
L 152.064 306.974521 
L 155.232 306.971009 
L 158.4 306.825235 
L 161.568 306.923002 
L 174.24 306.793388 
L 177.408 306.801172 
L 180.576 306.941821 
L 196.416 307.033008 
L 202.752 306.931047 
L 215.424 307.009422 
L 221.76 306.877737 
L 231.264 306.978965 
L 237.6 307.105079 
L 240.768 307.031183 
L 243.936 307.130139 
L 250.272 306.991189 
L 253.44 306.861628 
L 259.776 306.928372 
L 272.448 307.023869 
L 285.12 306.915256 
L 291.456 306.959109 
L 294.624 306.764789 
L 310.464 306.53423 
L 316.8 306.525604 
L 351.648 306.861597 
L 357.984 306.795249 
L 367.488 306.742466 
L 411.84 306.720495 
L 421.344 306.630535 
L 453.024 306.622251 
L 459.36 306.574131 
L 487.872 306.45591 
L 497.376 306.491419 
L 500.544 306.439564 
L 506.88 306.501932 
L 563.904 306.512454 
L 576.576 306.541319 
L 582.912 306.507352 
L 586.08 306.424356 
L 605.088 306.541015 
L 614.592 306.342634 
L 620.928 306.327418 
L 630.432 306.231954 
L 668.448 306.107864 
L 674.784 306.026351 
L 693.792 306.056363 
L 712.8 305.982907 
L 734.976 306.064682 
L 744.48 306.046377 
L 753.984 306.090475 
L 788.832 306.014767 
L 788.832 306.014767 
" clip-path="url(#p6f0f18ae7d)" style="fill: none; stroke: #000000; stroke-width: 1.5; stroke-linecap: square"/>
   </g>
  </g>
 </g>
 <defs>
  <clipPath id="p6f0f18ae7d">
   <rect x="0" y="0" width="792" height="612"/>
  </clipPath>
 </defs>
</svg>
