<?xml version="1.0" encoding="utf-8" standalone="no"?>
<!DOCTYPE svg PUBLIC "-//W3C//DTD SVG 1.1//EN"
  "http://www.w3.org/Graphics/SVG/1.1/DTD/svg11.dtd">
<svg xmlns:xlink="http://www.w3.org/1999/xlink" width="792pt" height="612pt" viewBox="0 0 792 612" xmlns="http://www.w3.org/2000/svg" version="1.1">
 <metadata>
  <rdf:RDF xmlns:dc="http://purl.org/dc/elements/1.1/" xmlns:cc="http://creativecommons.org/ns#" xmlns:rdf="http://www.w3.org/1999/02/22-rdf-syntax-ns#">
   <cc:Work>
    <dc:type rdf:resource="http://purl.org/dc/dcmitype/StillImage"/>
    <dc:date>2022-12-19T20:28:31.698640</dc:date>
    <dc:format>image/svg+xml</dc:format>
    <dc:creator>
     <cc:Agent>
      <dc:title>Matplotlib v3.6.2, https://matplotlib.org/</dc:title>
     </cc:Agent>
    </dc:creator>
   </cc:Work>
  </rdf:RDF>
 </metadata>
 <defs>
  <style type="text/css">*{stroke-linejoin: round; stroke-linecap: butt}</style>
 </defs>
 <g id="figure_1">
  <g id="patch_1">
   <path d="M 0 612 
L 792 612 
L 792 0 
L 0 0 
z
" style="fill: #ffffff"/>
  </g>
  <g id="axes_1">
   <g id="line2d_1">
    <path d="M 0 459 
L 12.375 464.316553 
L 24.75 464.659147 
L 37.125 462.43863 
L 49.5 463.441035 
L 61.875 462.070658 
L 74.25 465.027119 
L 86.625 469.265135 
L 99 470.889285 
L 111.375 473.51584 
L 123.75 476.497678 
L 136.125 477.690413 
L 148.5 474.975037 
L 160.875 477.297064 
L 173.25 479.403384 
L 185.625 475.304943 
L 198 468.909852 
L 210.375 471.929756 
L 222.75 474.784707 
L 235.125 477.52546 
L 247.5 478.781639 
L 259.875 482.626306 
L 272.25 480.532675 
L 284.625 473.224001 
L 297 470.914662 
L 309.375 464.989053 
L 321.75 461.207829 
L 334.125 464.164289 
L 346.5 464.646459 
L 358.875 452.7195 
L 371.25 452.148626 
L 383.625 450.930836 
L 396 445.566534 
L 408.375 443.703129 
L 420.75 438.0782 
L 433.125 438.837995 
L 445.5 430.221825 
L 457.875 434.698562 
L 470.25 433.825587 
L 482.625 420.642988 
L 495 418.036051 
L 507.375 417.733966 
L 519.75 424.19845 
L 532.125 404.068803 
L 544.5 403.243526 
L 556.875 408.463705 
L 569.25 412.114503 
L 581.625 411.436568 
L 594 413.621762 
L 606.375 408.726954 
L 618.75 411.700185 
L 631.125 404.218892 
L 643.5 398.823412 
L 655.875 397.850984 
L 668.25 406.809776 
L 680.625 398.524145 
L 693 392.475572 
L 705.375 399.721527 
L 717.75 403.768661 
L 730.125 418.036051 
L 742.5 417.205405 
L 754.875 417.545181 
L 767.25 412.340527 
L 779.625 415.054574 
" clip-path="url(#p0b24b587c2)" style="fill: none; stroke: #000000; stroke-width: 1.5; stroke-linecap: square"/>
   </g>
   <g id="line2d_2">
    <path d="M 0 459 
L 12.375 459 
L 24.75 462.544369 
L 37.125 463.752814 
L 49.5 463.051916 
L 61.875 463.252751 
L 74.25 462.652323 
L 86.625 463.849071 
L 99 466.567723 
L 111.375 468.751816 
L 123.75 471.151866 
L 136.125 473.847985 
L 148.5 475.799104 
L 160.875 475.409687 
L 173.25 476.383231 
L 185.625 477.921496 
L 198 476.625062 
L 210.375 472.763576 
L 222.75 472.343556 
L 235.125 473.560773 
L 247.5 475.542793 
L 259.875 477.16968 
L 272.25 479.908443 
L 284.625 480.222773 
L 297 476.719307 
L 309.375 473.820916 
L 321.75 469.391375 
L 334.125 465.272981 
L 346.5 464.692437 
L 358.875 464.641732 
L 371.25 460.723619 
L 383.625 458.019391 
L 396 454.37536 
L 408.375 449.873719 
L 420.75 446.722684 
L 433.125 442.345 
L 445.5 440.521404 
L 457.875 435.279154 
L 470.25 434.953566 
L 482.625 434.353667 
L 495 427.431985 
L 507.375 422.676345 
L 519.75 420.153261 
L 532.125 422.147994 
L 544.5 413.022432 
L 556.875 408.074424 
L 569.25 408.217889 
L 581.625 410.122948 
L 594 410.761647 
L 606.375 412.182603 
L 618.75 410.436444 
L 631.125 411.043786 
L 643.5 407.628759 
L 655.875 403.212199 
L 668.25 400.508784 
L 680.625 403.646263 
L 693 401.058105 
L 705.375 396.719974 
L 717.75 398.20249 
L 730.125 400.967911 
L 742.5 409.511736 
L 754.875 413.39147 
L 767.25 415.506186 
L 779.625 413.933682 
" clip-path="url(#p0b24b587c2)" style="fill: none; stroke: #000000; stroke-width: 1.5; stroke-linecap: square"/>
   </g>
   <g id="line2d_3">
    <path d="M 0 459 
L 12.375 459 
L 24.75 462.114365 
L 37.125 463.26736 
L 49.5 462.943721 
L 61.875 463.120659 
L 74.25 462.769187 
L 86.625 463.494642 
L 99 465.297456 
L 111.375 467.010993 
L 123.75 468.977678 
L 136.125 471.230005 
L 148.5 473.152249 
L 160.875 473.692096 
L 173.25 474.756281 
L 185.625 476.124947 
L 198 475.883831 
L 210.375 473.852583 
L 222.75 473.298144 
L 235.125 473.745179 
L 247.5 474.869726 
L 259.875 476.033119 
L 272.25 477.987829 
L 284.625 478.751007 
L 297 477.136732 
L 309.375 475.314359 
L 321.75 472.280353 
L 334.125 469.019724 
L 346.5 467.582064 
L 358.875 466.710382 
L 371.25 463.815432 
L 383.625 461.710009 
L 396 460.106566 
L 408.375 457.362112 
L 420.75 453.297987 
L 433.125 448.759019 
L 445.5 445.764876 
L 457.875 441.106567 
L 470.25 439.119724 
L 482.625 437.465579 
L 495 432.437447 
L 507.375 428.12482 
L 519.75 425.009842 
L 532.125 424.724776 
L 544.5 418.575915 
L 556.875 413.991153 
L 569.25 412.320221 
L 581.625 412.214274 
L 594 411.94138 
L 606.375 412.396944 
L 618.75 411.28142 
L 631.125 411.373918 
L 643.5 409.236095 
L 655.875 406.144483 
L 668.25 403.6694 
L 680.625 404.557842 
L 693 402.763215 
L 705.375 399.714325 
L 717.75 399.695841 
L 730.125 400.864471 
L 742.5 405.895038 
L 754.875 409.217669 
L 767.25 411.663986 
L 779.625 411.862379 
" clip-path="url(#p0b24b587c2)" style="fill: none; stroke: #000000; stroke-width: 1.5; stroke-linecap: square"/>
   </g>
   <g id="line2d_4">
    <path d="M 0 459 
L 12.375 459 
L 24.75 461.888024 
L 37.125 462.975591 
L 49.5 462.804726 
L 61.875 462.979411 
L 74.25 462.755749 
L 86.625 463.270028 
L 99 464.541819 
L 111.375 465.820542 
L 123.75 467.307805 
L 136.125 469.025246 
L 148.5 470.600856 
L 160.875 471.378549 
L 173.25 472.411507 
L 185.625 473.613261 
L 198 473.900357 
L 210.375 473.062305 
L 222.75 472.873781 
L 235.125 473.189551 
L 247.5 473.901663 
L 259.875 474.699038 
L 272.25 475.988795 
L 284.625 476.72543 
L 297 476.159498 
L 309.375 475.313915 
L 321.75 473.65284 
L 334.125 471.654226 
L 346.5 470.453167 
L 358.875 469.523189 
L 371.25 467.504657 
L 383.625 465.780138 
L 396 464.267497 
L 408.375 462.713984 
L 420.75 461.305013 
L 433.125 459.820045 
L 445.5 457.839783 
L 457.875 453.413635 
L 470.25 450.412227 
L 482.625 447.743619 
L 495 443.378481 
L 507.375 439.288197 
L 519.75 435.79767 
L 532.125 433.895471 
L 544.5 429.059915 
L 556.875 424.870856 
L 569.25 422.18795 
L 581.625 420.515509 
L 594 419.008952 
L 606.375 418.104466 
L 618.75 416.554738 
L 631.125 415.723053 
L 643.5 413.820288 
L 655.875 411.352859 
L 668.25 409.116818 
L 680.625 408.677452 
L 693 406.994668 
L 705.375 404.613571 
L 717.75 403.786656 
L 730.125 403.745593 
L 742.5 405.977916 
L 754.875 407.724051 
L 767.25 409.261933 
L 779.625 409.726802 
" clip-path="url(#p0b24b587c2)" style="fill: none; stroke: #000000; stroke-width: 1.5; stroke-linecap: square"/>
   </g>
   <g id="line2d_5">
    <path d="M 0 459 
L 12.375 459 
L 24.75 461.773366 
L 37.125 462.819735 
L 49.5 462.711743 
L 61.875 462.883903 
L 74.25 462.71741 
L 86.625 463.138956 
L 99 464.155852 
L 111.375 465.187892 
L 123.75 466.380514 
L 136.125 467.747081 
L 148.5 469.023685 
L 160.875 469.75459 
L 173.25 470.645435 
L 185.625 471.644749 
L 198 472.049791 
L 210.375 471.711675 
L 222.75 471.734593 
L 235.125 472.048195 
L 247.5 472.600404 
L 259.875 473.212673 
L 272.25 474.130385 
L 284.625 474.745613 
L 297 474.601285 
L 309.375 474.255697 
L 321.75 473.396266 
L 334.125 472.276769 
L 346.5 471.538183 
L 358.875 470.915748 
L 371.25 469.659668 
L 383.625 468.506825 
L 396 467.427052 
L 408.375 466.29077 
L 420.75 465.205266 
L 433.125 464.055639 
L 445.5 463.032686 
L 457.875 461.852977 
L 470.25 460.908142 
L 482.625 460.022433 
L 495 458.510662 
L 507.375 455.04309 
L 519.75 451.853983 
L 532.125 449.497149 
L 544.5 445.62168 
L 556.875 442.012574 
L 569.25 439.163298 
L 581.625 436.871435 
L 594 434.719454 
L 606.375 432.937742 
L 618.75 430.894066 
L 631.125 429.276871 
L 643.5 427.164947 
L 655.875 424.776161 
L 668.25 422.508761 
L 680.625 421.19079 
L 693 419.286022 
L 705.375 417.031688 
L 717.75 415.58019 
L 730.125 414.591493 
L 742.5 414.878778 
L 754.875 415.072776 
L 767.25 415.278837 
L 779.625 415.033784 
" clip-path="url(#p0b24b587c2)" style="fill: none; stroke: #000000; stroke-width: 1.5; stroke-linecap: square"/>
   </g>
   <g id="line2d_6">
    <path d="M 0 459 
L 12.375 459 
L 24.75 461.715848 
L 37.125 462.739744 
L 49.5 462.659506 
L 61.875 462.829639 
L 74.25 462.689058 
L 86.625 463.067999 
L 99 463.965044 
L 111.375 464.874274 
L 123.75 465.916352 
L 136.125 467.099807 
L 148.5 468.207382 
L 160.875 468.873714 
L 173.25 469.659036 
L 185.625 470.523569 
L 198 470.928998 
L 210.375 470.764752 
L 222.75 470.855966 
L 235.125 471.152908 
L 247.5 471.619088 
L 259.875 472.127424 
L 272.25 472.851844 
L 284.625 473.368086 
L 297 473.358637 
L 309.375 473.201983 
L 321.75 472.686732 
L 334.125 471.980941 
L 346.5 471.50933 
L 358.875 471.102561 
L 371.25 470.275101 
L 383.625 469.49714 
L 396 468.751685 
L 408.375 467.958444 
L 420.75 467.185082 
L 433.125 466.361349 
L 445.5 465.605167 
L 457.875 464.744667 
L 470.25 464.017098 
L 482.625 463.319479 
L 495 462.437009 
L 507.375 461.562857 
L 519.75 460.735286 
L 532.125 460.064877 
L 544.5 459.095608 
L 556.875 456.502753 
L 569.25 454.13467 
L 581.625 452.07804 
L 594 450.101136 
L 606.375 448.337922 
L 618.75 446.432745 
L 631.125 444.772176 
L 643.5 442.840809 
L 655.875 440.752582 
L 668.25 438.726547 
L 680.625 437.228958 
L 693 435.417645 
L 705.375 433.413576 
L 717.75 431.850198 
L 730.125 430.553324 
L 742.5 429.978948 
L 754.875 429.394756 
L 767.25 428.854645 
L 779.625 428.103585 
" clip-path="url(#p0b24b587c2)" style="fill: none; stroke: #000000; stroke-width: 1.5; stroke-linecap: square"/>
   </g>
   <g id="line2d_7">
    <path d="M 0 459 
L 12.375 459 
L 24.75 461.687066 
L 37.125 462.699295 
L 49.5 462.631996 
L 61.875 462.800889 
L 74.25 462.672499 
L 86.625 463.031121 
L 99 463.870713 
L 111.375 464.719807 
L 123.75 465.687593 
L 136.125 466.780174 
L 148.5 467.801535 
L 160.875 468.427868 
L 173.25 469.15439 
L 185.625 469.946053 
L 198 470.338107 
L 210.375 470.238756 
L 222.75 470.350982 
L 235.125 470.632579 
L 247.5 471.052683 
L 259.875 471.505835 
L 272.25 472.134447 
L 284.625 472.59308 
L 297 472.626429 
L 309.375 472.538707 
L 321.75 472.163019 
L 334.125 471.632884 
L 346.5 471.280959 
L 358.875 470.976168 
L 371.25 470.345262 
L 383.625 469.748093 
L 396 469.172192 
L 408.375 468.55747 
L 420.75 467.954825 
L 433.125 467.312396 
L 445.5 466.717343 
L 457.875 466.044073 
L 470.25 465.465257 
L 482.625 464.906772 
L 495 464.214545 
L 507.375 463.526242 
L 519.75 462.869146 
L 532.125 462.32136 
L 544.5 461.563909 
L 556.875 460.832967 
L 569.25 460.196136 
L 581.625 459.62985 
L 594 459.081546 
L 606.375 457.745014 
L 618.75 456.150495 
L 631.125 454.720791 
L 643.5 453.111362 
L 655.875 451.396965 
L 668.25 449.722202 
L 680.625 448.395089 
L 693 446.864549 
L 705.375 445.208077 
L 717.75 443.836979 
L 730.125 442.640415 
L 742.5 441.913537 
L 754.875 441.189338 
L 767.25 440.501744 
L 779.625 439.688262 
" clip-path="url(#p0b24b587c2)" style="fill: none; stroke: #000000; stroke-width: 1.5; stroke-linecap: square"/>
   </g>
   <g id="line2d_8">
    <path d="M 0 459 
L 12.375 459 
L 24.75 461.672672 
L 37.125 462.678964 
L 49.5 462.617901 
L 61.875 462.786113 
L 74.25 462.663619 
L 86.625 463.012331 
L 99 463.823878 
L 111.375 464.643359 
L 123.75 465.57447 
L 136.125 466.622131 
L 148.5 467.600415 
L 160.875 468.205285 
L 173.25 468.901399 
L 185.625 469.655848 
L 198 470.038315 
L 210.375 469.966029 
L 222.75 470.085456 
L 235.125 470.357629 
L 247.5 470.754085 
L 259.875 471.179161 
L 272.25 471.760778 
L 284.625 472.189312 
L 297 472.238005 
L 309.375 472.177909 
L 321.75 471.862372 
L 334.125 471.40971 
L 346.5 471.111349 
L 358.875 470.852985 
L 371.25 470.311429 
L 383.625 469.79792 
L 396 469.301863 
L 408.375 468.772029 
L 420.75 468.251942 
L 433.125 467.697781 
L 445.5 467.183231 
L 457.875 466.602863 
L 470.25 466.101241 
L 482.625 465.616572 
L 495 465.021195 
L 507.375 464.429 
L 519.75 463.862464 
L 532.125 463.385497 
L 544.5 462.738047 
L 556.875 462.112107 
L 569.25 461.562326 
L 581.625 461.069646 
L 594 460.591858 
L 606.375 460.15325 
L 618.75 459.690093 
L 631.125 459.270974 
L 643.5 458.415625 
L 655.875 456.93723 
L 668.25 455.491021 
L 680.625 454.317263 
L 693 452.987449 
L 705.375 451.56161 
L 717.75 450.357083 
L 730.125 449.288558 
L 742.5 448.581973 
L 754.875 447.880751 
L 767.25 447.210542 
L 779.625 446.448103 
" clip-path="url(#p0b24b587c2)" style="fill: none; stroke: #000000; stroke-width: 1.5; stroke-linecap: square"/>
   </g>
   <g id="line2d_9">
    <path d="M 0 459 
L 12.375 459 
L 24.75 461.665474 
L 37.125 462.668774 
L 49.5 462.61077 
L 61.875 462.778626 
L 74.25 462.659028 
L 86.625 463.002848 
L 99 463.80055 
L 111.375 464.605356 
L 123.75 465.518274 
L 136.125 466.543646 
L 148.5 467.500458 
L 160.875 468.094292 
L 173.25 468.77502 
L 185.625 469.510751 
L 198 469.887781 
L 210.375 469.82773 
L 222.75 469.949962 
L 235.125 470.217013 
L 247.5 470.601539 
L 259.875 471.012522 
L 272.25 471.570978 
L 284.625 471.984265 
L 297 472.039201 
L 309.375 471.991236 
L 321.75 471.703298 
L 334.125 471.286596 
L 346.5 471.013198 
L 358.875 470.776606 
L 371.25 470.277047 
L 383.625 469.803135 
L 396 469.345127 
L 408.375 468.855901 
L 420.75 468.37556 
L 433.125 467.864 
L 445.5 467.388681 
L 457.875 466.853461 
L 470.25 466.389978 
L 482.625 465.942067 
L 495 465.394185 
L 507.375 464.849384 
L 519.75 464.327934 
L 532.125 463.887249 
L 544.5 463.294083 
L 556.875 462.720431 
L 569.25 462.215039 
L 581.625 461.760842 
L 594 461.320282 
L 606.375 460.914856 
L 618.75 460.488184 
L 631.125 460.100777 
L 643.5 459.672799 
L 655.875 459.221523 
L 668.25 458.340141 
L 680.625 457.254969 
L 693 456.035177 
L 705.375 454.733155 
L 717.75 453.624387 
L 730.125 452.634734 
L 742.5 451.959195 
L 754.875 451.289953 
L 767.25 450.649009 
L 779.625 449.930522 
" clip-path="url(#p0b24b587c2)" style="fill: none; stroke: #000000; stroke-width: 1.5; stroke-linecap: square"/>
   </g>
  </g>
 </g>
 <defs>
  <clipPath id="p0b24b587c2">
   <rect x="0" y="0" width="792" height="612"/>
  </clipPath>
 </defs>
</svg>
