<?xml version="1.0" encoding="utf-8" standalone="no"?>
<!DOCTYPE svg PUBLIC "-//W3C//DTD SVG 1.1//EN"
  "http://www.w3.org/Graphics/SVG/1.1/DTD/svg11.dtd">
<svg xmlns:xlink="http://www.w3.org/1999/xlink" width="792pt" height="612pt" viewBox="0 0 792 612" xmlns="http://www.w3.org/2000/svg" version="1.1">
 <metadata>
  <rdf:RDF xmlns:dc="http://purl.org/dc/elements/1.1/" xmlns:cc="http://creativecommons.org/ns#" xmlns:rdf="http://www.w3.org/1999/02/22-rdf-syntax-ns#">
   <cc:Work>
    <dc:type rdf:resource="http://purl.org/dc/dcmitype/StillImage"/>
    <dc:date>2022-12-26T20:25:29.531060</dc:date>
    <dc:format>image/svg+xml</dc:format>
    <dc:creator>
     <cc:Agent>
      <dc:title>Matplotlib v3.6.2, https://matplotlib.org/</dc:title>
     </cc:Agent>
    </dc:creator>
   </cc:Work>
  </rdf:RDF>
 </metadata>
 <defs>
  <style type="text/css">*{stroke-linejoin: round; stroke-linecap: butt}</style>
 </defs>
 <g id="figure_1">
  <g id="patch_1">
   <path d="M 0 612 
L 792 612 
L 792 0 
L 0 0 
z
" style="fill: #ffffff"/>
  </g>
  <g id="axes_1">
   <g id="line2d_1">
    <path d="M 0 306 
L 39.6 303.257046 
L 79.2 304.049429 
L 118.8 305.390439 
L 158.4 303.074193 
L 198 307.828663 
L 237.6 307.219117 
L 277.2 308.133432 
L 316.8 306.853384 
L 356.4 308.194385 
L 396 300.453596 
L 435.6 303.257046 
L 475.2 307.219117 
L 514.8 317.150041 
L 554.4 304.354199 
L 594 308.864857 
L 633.6 303.988475 
L 673.2 299.844257 
L 712.8 309.047708 
L 752.4 301.794289 
" clip-path="url(#p7aafa4069e)" style="fill: none; stroke: #000000; stroke-width: 1.5; stroke-linecap: square"/>
   </g>
   <g id="line2d_2">
    <path d="M 0 306 
L 39.6 306 
L 79.2 304.171337 
L 118.8 304.101675 
L 158.4 304.78901 
L 198 303.903927 
L 237.6 305.897439 
L 277.2 306.563484 
L 316.8 307.351545 
L 356.4 307.104139 
L 396 307.658948 
L 435.6 304.048951 
L 475.2 303.648811 
L 514.8 305.442072 
L 554.4 311.316278 
L 594 307.829859 
L 633.6 308.348798 
L 673.2 306.163028 
L 712.8 302.98695 
L 752.4 306.034183 
" clip-path="url(#p7aafa4069e)" style="fill: none; stroke: #000000; stroke-width: 1.5; stroke-linecap: square"/>
   </g>
   <g id="line2d_3">
    <path d="M 0 306 
L 39.6 306 
L 79.2 304.393186 
L 118.8 304.237435 
L 158.4 304.687707 
L 198 304.113625 
L 237.6 305.357171 
L 277.2 305.9554 
L 316.8 306.635869 
L 356.4 306.702524 
L 396 307.153582 
L 435.6 305.146683 
L 475.2 304.584422 
L 514.8 305.364724 
L 554.4 308.845118 
L 594 307.522492 
L 633.6 307.917212 
L 673.2 306.764209 
L 712.8 304.733246 
L 752.4 306.002688 
" clip-path="url(#p7aafa4069e)" style="fill: none; stroke: #000000; stroke-width: 1.5; stroke-linecap: square"/>
   </g>
   <g id="line2d_4">
    <path d="M 0 306 
L 39.6 306 
L 79.2 304.509962 
L 118.8 304.329218 
L 158.4 304.666903 
L 198 304.229648 
L 237.6 305.115431 
L 277.2 305.591743 
L 316.8 306.13094 
L 356.4 306.276479 
L 396 306.647157 
L 435.6 305.489567 
L 475.2 305.083611 
L 514.8 305.463285 
L 554.4 307.503824 
L 594 306.962475 
L 633.6 307.285339 
L 673.2 306.731699 
L 712.8 305.585077 
L 752.4 306.157275 
" clip-path="url(#p7aafa4069e)" style="fill: none; stroke: #000000; stroke-width: 1.5; stroke-linecap: square"/>
   </g>
   <g id="line2d_5">
    <path d="M 0 306 
L 39.6 306 
L 79.2 304.569117 
L 118.8 304.38068 
L 158.4 304.666809 
L 198 304.290837 
L 237.6 305.015123 
L 277.2 305.417374 
L 316.8 305.868223 
L 356.4 306.01922 
L 396 306.330724 
L 435.6 305.536794 
L 475.2 305.244094 
L 514.8 305.486653 
L 554.4 306.864801 
L 594 306.578331 
L 633.6 306.831369 
L 673.2 306.525238 
L 712.8 305.82306 
L 752.4 306.154618 
" clip-path="url(#p7aafa4069e)" style="fill: none; stroke: #000000; stroke-width: 1.5; stroke-linecap: square"/>
   </g>
   <g id="line2d_6">
    <path d="M 0 306 
L 39.6 306 
L 79.2 304.598792 
L 118.8 304.407682 
L 158.4 304.669557 
L 198 304.322249 
L 237.6 304.971714 
L 277.2 305.335961 
L 316.8 305.740903 
L 356.4 305.886985 
L 396 306.165236 
L 435.6 305.526358 
L 475.2 305.289024 
L 514.8 305.479058 
L 554.4 306.567622 
L 594 306.371243 
L 633.6 306.582691 
L 673.2 306.371664 
L 712.8 305.860534 
L 752.4 306.101435 
" clip-path="url(#p7aafa4069e)" style="fill: none; stroke: #000000; stroke-width: 1.5; stroke-linecap: square"/>
   </g>
   <g id="line2d_7">
    <path d="M 0 306 
L 39.6 306 
L 79.2 304.613642 
L 118.8 304.421482 
L 158.4 304.671645 
L 198 304.338157 
L 237.6 304.951854 
L 277.2 305.29717 
L 316.8 305.679159 
L 356.4 305.821215 
L 396 306.082328 
L 435.6 305.513367 
L 475.2 305.302136 
L 514.8 305.469511 
L 554.4 306.426728 
L 594 306.266639 
L 633.6 306.456729 
L 673.2 306.285033 
L 712.8 305.857525 
L 752.4 306.060148 
" clip-path="url(#p7aafa4069e)" style="fill: none; stroke: #000000; stroke-width: 1.5; stroke-linecap: square"/>
   </g>
   <g id="line2d_8">
    <path d="M 0 306 
L 39.6 306 
L 79.2 304.621068 
L 118.8 304.428453 
L 158.4 304.672869 
L 198 304.346162 
L 237.6 304.942401 
L 277.2 305.278307 
L 316.8 305.648876 
L 356.4 305.788581 
L 396 306.041058 
L 435.6 305.505099 
L 475.2 305.306396 
L 514.8 305.463278 
L 554.4 306.358455 
L 594 306.214471 
L 633.6 306.393919 
L 673.2 306.239831 
L 712.8 305.850823 
L 752.4 306.035986 
" clip-path="url(#p7aafa4069e)" style="fill: none; stroke: #000000; stroke-width: 1.5; stroke-linecap: square"/>
   </g>
   <g id="line2d_9">
    <path d="M 0 306 
L 39.6 306 
L 79.2 304.624782 
L 118.8 304.431957 
L 158.4 304.673525 
L 198 304.350176 
L 237.6 304.937796 
L 277.2 305.269016 
L 316.8 305.633894 
L 356.4 305.772347 
L 396 306.020499 
L 435.6 305.500547 
L 475.2 305.307964 
L 514.8 305.4598 
L 554.4 306.324891 
L 594 306.188472 
L 633.6 306.362631 
L 673.2 306.216841 
L 712.8 305.84623 
L 752.4 306.023072 
" clip-path="url(#p7aafa4069e)" style="fill: none; stroke: #000000; stroke-width: 1.5; stroke-linecap: square"/>
   </g>
  </g>
 </g>
 <defs>
  <clipPath id="p7aafa4069e">
   <rect x="0" y="0" width="792" height="612"/>
  </clipPath>
 </defs>
</svg>
