<?xml version="1.0" encoding="utf-8" standalone="no"?>
<!DOCTYPE svg PUBLIC "-//W3C//DTD SVG 1.1//EN"
  "http://www.w3.org/Graphics/SVG/1.1/DTD/svg11.dtd">
<svg xmlns:xlink="http://www.w3.org/1999/xlink" width="792pt" height="612pt" viewBox="0 0 792 612" xmlns="http://www.w3.org/2000/svg" version="1.1">
 <metadata>
  <rdf:RDF xmlns:dc="http://purl.org/dc/elements/1.1/" xmlns:cc="http://creativecommons.org/ns#" xmlns:rdf="http://www.w3.org/1999/02/22-rdf-syntax-ns#">
   <cc:Work>
    <dc:type rdf:resource="http://purl.org/dc/dcmitype/StillImage"/>
    <dc:date>2023-01-02T15:37:37.827330</dc:date>
    <dc:format>image/svg+xml</dc:format>
    <dc:creator>
     <cc:Agent>
      <dc:title>Matplotlib v3.6.2, https://matplotlib.org/</dc:title>
     </cc:Agent>
    </dc:creator>
   </cc:Work>
  </rdf:RDF>
 </metadata>
 <defs>
  <style type="text/css">*{stroke-linejoin: round; stroke-linecap: butt}</style>
 </defs>
 <g id="figure_1">
  <g id="patch_1">
   <path d="M 0 612 
L 792 612 
L 792 0 
L 0 0 
z
" style="fill: #ffffff"/>
  </g>
  <g id="axes_1">
   <g id="line2d_1">
    <path d="M 0 459 
L 44 459.597073 
L 88 460.641951 
L 132 461.059902 
L 176 462.134634 
L 220 459.417951 
L 264 456.223644 
L 308 458.014831 
L 352 464.134829 
L 396 463.32878 
L 440 464.731902 
L 484 463.746732 
L 528 460.731512 
L 572 462.224195 
L 616 460.164293 
L 660 462.761561 
L 704 460.79122 
L 748 461.567415 
" clip-path="url(#pedfedc0fec)" style="fill: none; stroke: #000000; stroke-width: 1.5; stroke-linecap: square"/>
   </g>
   <g id="line2d_2">
    <path d="M 0 459 
L 44 459 
L 88 459.398049 
L 132 460.10885 
L 176 460.616078 
L 220 461.399849 
L 264 460.393171 
L 308 459.224725 
L 352 458.841249 
L 396 461.551024 
L 440 462.44722 
L 484 463.59758 
L 528 463.677424 
L 572 462.201717 
L 616 462.218459 
L 660 461.195473 
L 704 461.986537 
L 748 461.382322 
" clip-path="url(#pedfedc0fec)" style="fill: none; stroke: #000000; stroke-width: 1.5; stroke-linecap: square"/>
   </g>
   <g id="line2d_3">
    <path d="M 0 459 
L 44 459 
L 88 459.349757 
L 132 459.935227 
L 176 460.37444 
L 220 461.000697 
L 264 460.470896 
L 308 459.700966 
L 352 459.379375 
L 396 460.836617 
L 440 461.590101 
L 484 462.531107 
L 528 462.892807 
L 572 462.252706 
L 616 462.24429 
L 660 461.631688 
L 704 461.963918 
L 748 461.6225 
" clip-path="url(#pedfedc0fec)" style="fill: none; stroke: #000000; stroke-width: 1.5; stroke-linecap: square"/>
   </g>
   <g id="line2d_4">
    <path d="M 0 459 
L 44 459 
L 88 459.324338 
L 132 459.841454 
L 176 460.229173 
L 220 460.752277 
L 264 460.423872 
L 308 459.89194 
L 352 459.633062 
L 396 460.539961 
L 440 461.078954 
L 484 461.761632 
L 528 462.122588 
L 572 461.875266 
L 616 461.936165 
L 660 461.631618 
L 704 461.823381 
L 748 461.650051 
" clip-path="url(#pedfedc0fec)" style="fill: none; stroke: #000000; stroke-width: 1.5; stroke-linecap: square"/>
   </g>
   <g id="line2d_5">
    <path d="M 0 459 
L 44 459 
L 88 459.311462 
L 132 459.79389 
L 176 460.152635 
L 220 460.620516 
L 264 460.374318 
L 308 459.954584 
L 352 459.74162 
L 396 460.414972 
L 440 460.83225 
L 484 461.358992 
L 528 461.665549 
L 572 461.550837 
L 616 461.630368 
L 660 461.463083 
L 704 461.606774 
L 748 461.518954 
" clip-path="url(#pedfedc0fec)" style="fill: none; stroke: #000000; stroke-width: 1.5; stroke-linecap: square"/>
   </g>
   <g id="line2d_6">
    <path d="M 0 459 
L 44 459 
L 88 459.305002 
L 132 459.770091 
L 176 460.113791 
L 220 460.553714 
L 264 460.343343 
L 308 459.975626 
L 352 459.786868 
L 396 460.357804 
L 440 460.716071 
L 484 461.165217 
L 528 461.435194 
L 572 461.36591 
L 616 461.44593 
L 660 461.332221 
L 704 461.45342 
L 748 461.399553 
" clip-path="url(#pedfedc0fec)" style="fill: none; stroke: #000000; stroke-width: 1.5; stroke-linecap: square"/>
   </g>
   <g id="line2d_7">
    <path d="M 0 459 
L 44 459 
L 88 459.30177 
L 132 459.758208 
L 176 460.09428 
L 220 460.520218 
L 264 460.326417 
L 308 459.983442 
L 352 459.806766 
L 396 460.330367 
L 440 460.660268 
L 484 461.071791 
L 528 461.322205 
L 572 461.270631 
L 616 461.348742 
L 660 461.257252 
L 704 461.367306 
L 748 461.327233 
" clip-path="url(#pedfedc0fec)" style="fill: none; stroke: #000000; stroke-width: 1.5; stroke-linecap: square"/>
   </g>
   <g id="line2d_8">
    <path d="M 0 459 
L 44 459 
L 88 459.300153 
L 132 459.752272 
L 176 460.084509 
L 220 460.503464 
L 264 460.317611 
L 308 459.986667 
L 352 459.815987 
L 396 460.316908 
L 440 460.632985 
L 484 461.026118 
L 528 461.266583 
L 572 461.222696 
L 616 461.299376 
L 660 461.217833 
L 704 461.32235 
L 748 461.288327 
" clip-path="url(#pedfedc0fec)" style="fill: none; stroke: #000000; stroke-width: 1.5; stroke-linecap: square"/>
   </g>
   <g id="line2d_9">
    <path d="M 0 459 
L 44 459 
L 88 459.299345 
L 132 459.749306 
L 176 460.079621 
L 220 460.495087 
L 264 460.313125 
L 308 459.988108 
L 352 459.82041 
L 396 460.310239 
L 440 460.619502 
L 484 461.003561 
L 528 461.239028 
L 572 461.198708 
L 616 461.274563 
L 660 461.197706 
L 704 461.299467 
L 748 461.268257 
" clip-path="url(#pedfedc0fec)" style="fill: none; stroke: #000000; stroke-width: 1.5; stroke-linecap: square"/>
   </g>
  </g>
 </g>
 <defs>
  <clipPath id="pedfedc0fec">
   <rect x="0" y="0" width="792" height="612"/>
  </clipPath>
 </defs>
</svg>
