<?xml version="1.0" encoding="utf-8" standalone="no"?>
<!DOCTYPE svg PUBLIC "-//W3C//DTD SVG 1.1//EN"
  "http://www.w3.org/Graphics/SVG/1.1/DTD/svg11.dtd">
<svg xmlns:xlink="http://www.w3.org/1999/xlink" width="792pt" height="612pt" viewBox="0 0 792 612" xmlns="http://www.w3.org/2000/svg" version="1.1">
 <metadata>
  <rdf:RDF xmlns:dc="http://purl.org/dc/elements/1.1/" xmlns:cc="http://creativecommons.org/ns#" xmlns:rdf="http://www.w3.org/1999/02/22-rdf-syntax-ns#">
   <cc:Work>
    <dc:type rdf:resource="http://purl.org/dc/dcmitype/StillImage"/>
    <dc:date>2022-12-19T20:28:50.260959</dc:date>
    <dc:format>image/svg+xml</dc:format>
    <dc:creator>
     <cc:Agent>
      <dc:title>Matplotlib v3.6.2, https://matplotlib.org/</dc:title>
     </cc:Agent>
    </dc:creator>
   </cc:Work>
  </rdf:RDF>
 </metadata>
 <defs>
  <style type="text/css">*{stroke-linejoin: round; stroke-linecap: butt}</style>
 </defs>
 <g id="figure_1">
  <g id="patch_1">
   <path d="M 0 612 
L 792 612 
L 792 0 
L 0 0 
z
" style="fill: #ffffff"/>
  </g>
  <g id="axes_1">
   <g id="line2d_1">
    <path d="M 0 459 
L 3.155378 454.179472 
L 6.310757 452.802327 
L 9.466135 447.983361 
L 12.621514 452.285925 
L 15.776892 457.364411 
L 18.932271 451.425294 
L 22.087649 451.167115 
L 25.243028 443.33879 
L 28.398406 437.065295 
L 31.553785 430.542735 
L 34.709163 426.857273 
L 37.864542 429.256665 
L 41.01992 429.771038 
L 44.175299 428.485248 
L 47.330677 415.315849 
L 50.486056 415.827729 
L 53.641434 416.766457 
L 56.796813 409.437421 
L 59.952191 415.401155 
L 63.10757 408.756889 
L 66.262948 408.076581 
L 69.418327 402.3034 
L 72.573705 395.534806 
L 75.729084 400.100709 
L 78.884462 403.151301 
L 82.039841 420.439377 
L 85.195219 429.771038 
L 88.350598 430.628489 
L 91.505976 425.829494 
L 94.661355 425.486975 
L 97.816733 400.27005 
L 100.972112 401.455891 
L 104.12749 404.084439 
L 107.282869 386.526118 
L 110.438247 387.785743 
L 113.593625 391.571141 
L 116.749004 396.717368 
L 119.904382 402.557729 
L 123.059761 392.582189 
L 126.215139 385.016047 
L 129.370518 393.762577 
L 132.525896 392.582189 
L 135.681275 394.77504 
L 138.836653 386.106491 
L 141.992032 384.261626 
L 145.14741 391.908084 
L 148.302789 396.801869 
L 151.458167 399.254248 
L 154.613546 402.049106 
L 157.768924 412.672908 
L 160.924303 404.763375 
L 164.079681 410.62888 
L 167.23506 426.257695 
L 170.390438 408.586791 
L 173.545817 404.593618 
L 179.856574 418.986671 
L 183.011952 420.18296 
L 186.167331 403.49057 
L 189.322709 396.46389 
L 192.478088 394.099993 
L 195.633466 399.423508 
L 198.788845 411.395168 
L 201.944223 404.848259 
L 205.099602 377.907876 
L 208.25498 381.66626 
L 211.410359 373.74504 
L 214.565737 372.000927 
L 217.721116 374.077543 
L 220.876494 367.52813 
L 224.031873 362.497241 
L 227.187251 367.362812 
L 233.498008 366.123719 
L 236.653386 370.59093 
L 239.808765 366.784394 
L 242.964143 368.18965 
L 246.119522 372.498982 
L 249.2749 387.701733 
L 252.430279 391.234274 
L 255.585657 387.617729 
L 258.741036 385.351478 
L 261.896414 374.410138 
L 265.051793 366.949625 
L 268.207171 356.017871 
L 271.36255 352.834874 
L 274.517928 343.35152 
L 277.673307 339.410417 
L 280.828685 323.76083 
L 283.984064 331.744131 
L 287.139442 335.168801 
L 290.294821 340.775632 
L 293.450199 340.132897 
L 296.605578 337.246799 
L 299.760956 347.796972 
L 302.916335 343.270905 
L 306.071713 334.530512 
L 309.227092 315.167087 
L 312.38247 331.98257 
L 315.537849 336.28705 
L 318.693227 346.744189 
L 321.848606 353.405398 
L 325.003984 345.450181 
L 328.159363 343.432143 
L 331.314741 339.249952 
L 334.47012 335.887494 
L 337.625498 320.153986 
L 340.780876 328.492973 
L 343.936255 329.680791 
L 350.247012 339.811716 
L 353.40239 343.190297 
L 356.557769 341.338434 
L 359.713147 337.006754 
L 362.868526 327.307054 
L 366.023904 335.887494 
L 369.179283 334.849592 
L 372.334661 334.929382 
L 375.49004 343.512774 
L 378.645418 343.190297 
L 381.800797 340.775632 
L 384.956175 341.821136 
L 388.111554 352.997845 
L 391.266932 386.022581 
L 394.422311 413.013762 
L 397.577689 414.03663 
L 400.733068 423.860528 
L 403.888446 440.931697 
L 407.043825 446.520893 
L 410.199203 444.972674 
L 413.354582 461.812078 
L 416.50996 465.484996 
L 419.665339 459.516504 
L 422.820717 462.156414 
L 425.976096 461.266879 
L 429.131474 462.845086 
L 432.286853 463.906789 
L 435.442231 463.677232 
L 438.59761 466.43192 
L 441.752988 465.14066 
L 444.908367 461.984246 
L 448.063745 464.566767 
L 451.219124 465.62847 
L 454.374502 467.321455 
L 460.685259 471.683046 
L 463.840637 469.817892 
L 466.996016 467.177982 
L 470.151394 461.496437 
L 473.306773 461.20949 
L 476.462151 464.509377 
L 479.61753 466.087584 
L 482.772908 463.992873 
L 485.928287 464.796324 
L 489.083665 462.099025 
L 492.239044 461.926857 
L 495.394422 459.315641 
L 498.549801 461.467742 
L 501.705179 464.078957 
L 504.860558 464.251125 
L 508.015936 465.685859 
L 511.171315 464.251125 
L 514.326693 462.357277 
L 517.482072 460.72168 
L 520.63745 452.802327 
L 523.792829 442.307065 
L 526.948207 436.549998 
L 530.103586 441.619342 
L 533.258964 435.004454 
L 536.414343 440.587905 
L 539.569721 435.77716 
L 542.7251 440.330074 
L 545.880478 449.618149 
L 549.035857 439.212946 
L 552.191235 451.081056 
L 555.346614 438.010149 
L 558.501992 449.187917 
L 564.812749 464.566767 
L 567.968127 465.657164 
L 571.123506 468.64141 
L 574.278884 470.506564 
L 577.434263 472.572581 
L 580.589641 471.482183 
L 583.74502 470.248312 
L 586.900398 467.063203 
L 590.055777 465.858027 
L 593.211155 474.638597 
L 596.366534 476.934171 
L 599.521912 477.393286 
L 602.677291 478.799325 
L 605.832669 477.881095 
L 608.988048 479.746249 
L 612.143426 482.931358 
L 615.298805 483.533946 
L 618.454183 486.030383 
L 621.609562 487.493811 
L 624.76494 486.346024 
L 627.920319 482.730495 
L 631.075697 485.284321 
L 634.231076 485.944299 
L 640.541833 478.225431 
L 646.85259 481.381845 
L 650.007968 484.566954 
L 653.163347 483.218305 
L 656.318725 485.886909 
L 659.474104 486.288635 
L 662.629482 480.234059 
L 665.784861 482.529632 
L 668.940239 482.127907 
L 672.095618 478.914104 
L 675.250996 482.500938 
L 678.406375 483.074831 
L 681.561753 477.508065 
L 684.717131 477.020255 
L 687.87251 474.695986 
L 691.027888 474.294261 
L 694.183267 475.355964 
L 697.338645 475.757689 
L 700.494024 477.881095 
L 703.649402 477.335896 
L 706.804781 477.335896 
L 709.960159 478.598462 
L 713.115538 471.310015 
L 716.270916 469.961365 
L 719.426295 469.530945 
L 722.581673 475.183796 
L 725.737052 468.64141 
L 728.89243 459.516504 
L 732.047809 462.93117 
L 735.203187 463.935484 
L 738.358566 467.063203 
L 741.513944 468.153601 
L 744.669323 468.325769 
L 747.824701 468.038822 
L 750.98008 464.021568 
L 757.290837 464.050263 
L 760.446215 467.952738 
L 763.601594 466.661478 
L 766.756972 465.743248 
L 769.912351 465.456302 
L 773.067729 464.078957 
L 776.223108 464.939797 
L 779.378486 465.513691 
L 782.533865 466.518005 
L 785.689243 466.91973 
L 788.844622 467.952738 
L 788.844622 467.952738 
" clip-path="url(#p6d60b43b6d)" style="fill: none; stroke: #000000; stroke-width: 1.5; stroke-linecap: square"/>
   </g>
   <g id="line2d_2">
    <path d="M 0 459 
L 3.155378 459 
L 6.310757 455.786249 
L 9.466135 454.081101 
L 12.621514 450.82862 
L 15.776892 451.580759 
L 18.932271 454.518308 
L 22.087649 452.959555 
L 25.243028 452.059794 
L 28.398406 447.66757 
L 31.553785 442.330665 
L 34.709163 436.389359 
L 37.864542 431.578978 
L 41.01992 430.372578 
L 44.175299 430.017829 
L 47.330677 429.206577 
L 50.486056 422.182643 
L 53.641434 418.949484 
L 56.796813 417.818054 
L 59.952191 413.582634 
L 63.10757 414.469313 
L 66.262948 411.571168 
L 69.418327 409.780773 
L 72.573705 405.987397 
L 75.729084 400.714731 
L 78.884462 400.376976 
L 82.039841 401.737021 
L 88.350598 420.442394 
L 91.505976 425.57428 
L 94.661355 425.736809 
L 97.816733 425.657558 
L 100.972112 412.937567 
L 104.12749 407.191186 
L 107.282869 405.639025 
L 110.438247 395.988517 
L 113.593625 391.800056 
L 116.749004 391.609787 
L 119.904382 394.104955 
L 123.059761 398.281496 
L 126.215139 395.414279 
L 129.370518 390.173959 
L 132.525896 391.947068 
L 135.681275 392.276492 
L 138.836653 393.538995 
L 141.992032 389.807381 
L 145.14741 387.007444 
L 148.302789 389.434956 
L 151.458167 393.122346 
L 154.613546 396.213433 
L 157.768924 399.145068 
L 160.924303 405.936769 
L 164.079681 405.369629 
L 167.23506 408.045905 
L 170.390438 417.218044 
L 176.701195 408.773566 
L 179.856574 410.278716 
L 183.011952 414.661939 
L 186.167331 417.435665 
L 192.478088 403.415726 
L 195.633466 398.688843 
L 198.788845 399.038218 
L 201.944223 405.220128 
L 205.099602 405.020702 
L 208.25498 391.323767 
L 211.410359 386.411902 
L 214.565737 380.005 
L 217.721116 375.948766 
L 220.876494 374.973803 
L 224.031873 371.183017 
L 227.187251 366.737097 
L 230.342629 366.97749 
L 233.498008 366.817762 
L 236.653386 366.440404 
L 239.808765 368.507578 
L 242.964143 367.635438 
L 246.119522 367.900997 
L 249.2749 370.207424 
L 252.430279 378.974173 
L 255.585657 385.137714 
L 258.741036 386.418484 
L 261.896414 385.922882 
L 265.051793 380.161267 
L 268.207171 373.537435 
L 271.36255 364.717884 
L 274.517928 358.720325 
L 277.673307 350.918101 
L 280.828685 345.045563 
L 283.984064 334.208436 
L 287.139442 332.873084 
L 290.294821 333.944932 
L 293.450199 337.302663 
L 296.605578 338.685742 
L 299.760956 337.93564 
L 302.916335 342.860675 
L 306.071713 343.073351 
L 309.227092 338.812136 
L 312.38247 326.861395 
L 315.537849 329.411387 
L 318.693227 332.832825 
L 325.003984 346.594075 
L 328.159363 346.017343 
L 331.314741 344.724094 
L 334.47012 341.991884 
L 337.625498 338.975346 
L 340.780876 329.482224 
L 343.936255 328.97222 
L 347.091633 329.293339 
L 350.247012 332.030578 
L 353.40239 335.900653 
L 356.557769 339.536923 
L 359.713147 340.441285 
L 362.868526 338.724413 
L 366.023904 333.008857 
L 369.179283 334.461395 
L 375.49004 334.797654 
L 378.645418 339.150856 
L 381.800797 341.168134 
L 384.956175 340.970757 
L 388.111554 341.405301 
L 391.266932 347.233427 
L 394.422311 366.554732 
L 397.577689 389.757895 
L 400.733068 402.015203 
L 403.888446 413.072247 
L 407.043825 427.168022 
L 410.199203 437.04677 
L 413.354582 441.215509 
L 416.50996 454.549764 
L 419.665339 461.56159 
L 422.820717 460.570218 
L 425.976096 461.398987 
L 429.131474 461.36039 
L 432.286853 462.122093 
L 435.442231 463.032221 
L 438.59761 463.373068 
L 441.752988 464.911553 
L 444.908367 465.025431 
L 448.063745 463.509677 
L 451.219124 464.042948 
L 454.374502 464.844261 
L 457.52988 466.091635 
L 460.685259 467.793511 
L 463.840637 469.753976 
L 466.996016 469.792573 
L 470.151394 468.489272 
L 473.306773 464.991898 
L 476.462151 463.094111 
L 479.61753 463.79955 
L 482.772908 464.941148 
L 485.928287 464.456264 
L 489.083665 464.612791 
L 492.239044 463.340773 
L 495.394422 462.623518 
L 498.549801 460.965304 
L 501.705179 461.217029 
L 504.860558 462.647149 
L 508.015936 463.445536 
L 511.171315 464.569017 
L 514.326693 464.409002 
L 517.482072 463.383646 
L 520.63745 462.0503 
L 523.792829 459.487472 
L 526.948207 451.334509 
L 530.103586 443.864492 
L 533.258964 442.676916 
L 536.414343 438.75302 
L 539.569721 439.603494 
L 542.7251 437.624774 
L 545.880478 438.930584 
L 549.035857 444.266129 
L 552.191235 441.732946 
L 555.346614 446.434198 
L 558.501992 442.213679 
L 561.657371 445.727857 
L 564.812749 451.318647 
L 567.968127 460.529145 
L 571.123506 463.118417 
L 574.278884 465.904951 
L 577.434263 468.24126 
L 580.589641 470.43871 
L 583.74502 470.99865 
L 586.900398 470.65195 
L 590.055777 468.874794 
L 593.211155 467.368942 
L 596.366534 471.02138 
L 599.521912 473.994036 
L 602.677291 475.707164 
L 605.832669 477.265454 
L 608.988048 477.585821 
L 612.143426 478.684659 
L 615.298805 480.839122 
L 618.454183 482.221193 
L 621.609562 484.148125 
L 624.76494 485.841673 
L 627.920319 486.111403 
L 631.075697 484.428657 
L 637.386454 485.419805 
L 640.541833 483.743473 
L 643.697211 480.974044 
L 646.85259 480.391035 
L 650.007968 480.874456 
L 653.163347 482.717217 
L 656.318725 482.968717 
L 659.474104 484.428995 
L 662.629482 485.35949 
L 665.784861 482.793173 
L 668.940239 482.669842 
L 672.095618 482.403376 
L 675.250996 480.653901 
L 678.406375 481.573368 
L 681.561753 482.323818 
L 684.717131 479.899512 
L 687.87251 478.44171 
L 691.027888 476.557989 
L 694.183267 475.409977 
L 697.338645 475.369692 
L 700.494024 475.557502 
L 703.649402 476.71024 
L 706.804781 477.011815 
L 709.960159 477.173518 
L 713.115538 477.889085 
L 716.270916 474.592911 
L 719.426295 472.268642 
L 722.581673 470.888372 
L 725.737052 473.034959 
L 728.89243 470.820068 
L 732.047809 465.133346 
L 735.203187 464.004014 
L 738.358566 463.940998 
L 741.513944 465.493773 
L 744.669323 466.820143 
L 747.824701 467.570593 
L 750.98008 467.790698 
L 754.135458 465.897074 
L 757.290837 464.996962 
L 760.446215 464.525806 
L 763.601594 466.247149 
L 766.756972 466.453526 
L 773.067729 465.769355 
L 776.223108 464.916392 
L 779.378486 464.929895 
L 782.533865 465.224606 
L 785.689243 465.876144 
L 788.844622 466.395911 
L 788.844622 466.395911 
" clip-path="url(#p6d60b43b6d)" style="fill: none; stroke: #000000; stroke-width: 1.5; stroke-linecap: square"/>
   </g>
   <g id="line2d_3">
    <path d="M 0 459 
L 3.155378 459 
L 6.310757 456.176132 
L 9.466135 454.647463 
L 12.621514 452.044596 
L 15.776892 452.130458 
L 18.932271 453.882314 
L 22.087649 453.092855 
L 25.243028 452.491191 
L 28.398406 449.685679 
L 31.553785 445.867652 
L 34.709163 441.273027 
L 37.864542 436.978773 
L 41.01992 434.690251 
L 47.330677 431.837221 
L 50.486056 426.969963 
L 53.641434 423.652511 
L 56.796813 421.591009 
L 59.952191 417.975422 
L 63.10757 417.183898 
L 66.262948 414.662717 
L 69.418327 412.675373 
L 72.573705 409.575952 
L 75.729084 405.388979 
L 78.884462 403.789212 
L 82.039841 403.563668 
L 85.195219 408.481299 
L 88.350598 414.70169 
L 91.505976 419.358719 
L 94.661355 421.247921 
L 97.816733 422.485434 
L 100.972112 415.93872 
L 104.12749 411.669968 
L 107.282869 409.430758 
L 110.438247 402.664498 
L 113.593625 398.261006 
L 116.749004 396.279037 
L 119.904382 396.394406 
L 123.059761 398.197617 
L 126.215139 396.547501 
L 129.370518 393.143663 
L 132.525896 393.314163 
L 135.681275 393.067975 
L 138.836653 393.52796 
L 145.14741 389.187486 
L 148.302789 389.945647 
L 151.458167 391.946703 
L 154.613546 394.081095 
L 157.768924 396.408637 
L 160.924303 401.187744 
L 164.079681 402.253875 
L 167.23506 404.725081 
L 170.390438 411.045081 
L 173.545817 410.331711 
L 176.701195 408.663258 
L 179.856574 409.593615 
L 183.011952 412.369869 
L 186.167331 414.687487 
L 189.322709 411.411929 
L 192.478088 407.033705 
L 195.633466 403.247282 
L 198.788845 402.135151 
L 201.944223 404.859603 
L 205.099602 404.862715 
L 208.25498 396.891863 
L 211.410359 392.380829 
L 214.565737 386.86071 
L 217.721116 382.446662 
L 220.876494 379.930507 
L 224.031873 376.237923 
L 227.187251 372.148285 
L 230.342629 370.694296 
L 233.498008 369.464382 
L 236.653386 368.423877 
L 239.808765 369.020891 
L 242.964143 368.331639 
L 246.119522 368.260595 
L 249.2749 369.469827 
L 252.430279 374.75556 
L 255.585657 379.545459 
L 258.741036 381.915918 
L 261.896414 382.9255 
L 265.051793 380.426309 
L 268.207171 376.457623 
L 271.36255 370.410925 
L 274.517928 365.215433 
L 277.673307 358.73824 
L 280.828685 353.002759 
L 283.984064 344.281206 
L 287.139442 340.550078 
L 290.294821 338.930172 
L 293.450199 339.440865 
L 296.605578 339.611783 
L 299.760956 338.878594 
L 302.916335 341.436399 
L 306.071713 341.91959 
L 309.227092 339.688786 
L 312.38247 332.34353 
L 315.537849 332.190206 
L 318.693227 333.353433 
L 321.848606 337.242384 
L 325.003984 341.945692 
L 328.159363 342.973051 
L 331.314741 343.112119 
L 334.47012 341.997098 
L 337.625498 340.207719 
L 340.780876 334.261902 
L 343.936255 332.553637 
L 347.091633 331.69912 
L 350.247012 332.617802 
L 353.40239 334.709028 
L 356.557769 337.183892 
L 359.713147 338.406368 
L 362.868526 338.021666 
L 366.023904 334.862669 
L 369.179283 335.162237 
L 375.49004 334.99869 
L 378.645418 337.481005 
L 381.800797 339.148855 
L 384.956175 339.626747 
L 388.111554 340.275695 
L 391.266932 344.020863 
L 394.422311 356.213747 
L 397.577689 372.690967 
L 400.733068 384.775275 
L 403.888446 396.233447 
L 407.043825 409.352908 
L 410.199203 420.316256 
L 413.354582 427.647981 
L 419.665339 451.029977 
L 422.820717 453.965838 
L 425.976096 458.37066 
L 429.131474 459.563407 
L 435.442231 461.602323 
L 438.59761 462.2613 
L 441.752988 463.532713 
L 444.908367 464.038903 
L 448.063745 463.458201 
L 451.219124 463.806557 
L 454.374502 464.361276 
L 457.52988 465.244772 
L 460.685259 466.500163 
L 463.840637 468.038134 
L 466.996016 468.568609 
L 470.151394 468.163248 
L 473.306773 466.212858 
L 476.462151 464.746318 
L 479.61753 464.680644 
L 482.772908 465.096452 
L 485.928287 464.77332 
L 489.083665 464.781343 
L 492.239044 463.990733 
L 495.394422 463.382547 
L 498.549801 462.188312 
L 501.705179 461.973703 
L 504.860558 462.588538 
L 508.015936 463.071972 
L 511.171315 463.833211 
L 514.326693 463.947079 
L 517.482072 463.472867 
L 520.63745 462.659648 
L 523.792829 460.977399 
L 526.948207 458.276497 
L 530.103586 451.863486 
L 533.258964 448.817479 
L 536.414343 444.723958 
L 539.569721 443.47118 
L 542.7251 441.179236 
L 545.880478 440.899017 
L 549.035857 443.439867 
L 552.191235 442.170322 
L 555.346614 444.752629 
L 558.501992 442.734867 
L 561.657371 444.590093 
L 564.812749 448.158422 
L 567.968127 456.231472 
L 571.123506 460.302951 
L 574.278884 462.758676 
L 580.589641 467.275801 
L 583.74502 468.528816 
L 586.900398 469.05456 
L 590.055777 468.48762 
L 593.211155 467.734206 
L 599.521912 471.90071 
L 605.832669 475.10489 
L 608.988048 475.94775 
L 612.143426 477.087891 
L 615.298805 478.827715 
L 618.454183 480.227924 
L 624.76494 483.595982 
L 627.920319 484.419644 
L 631.075697 483.936571 
L 637.386454 484.832987 
L 640.541833 484.041116 
L 643.697211 482.351947 
L 646.85259 481.619934 
L 650.007968 481.555308 
L 653.163347 482.445639 
L 656.318725 482.677023 
L 659.474104 483.626372 
L 662.629482 484.413646 
L 665.784861 483.186375 
L 672.095618 482.735043 
L 675.250996 481.606061 
L 681.561753 482.218861 
L 684.717131 480.830169 
L 687.87251 479.704021 
L 691.027888 478.228731 
L 694.183267 477.071836 
L 697.338645 476.564127 
L 700.494024 476.321467 
L 703.649402 476.770592 
L 709.960159 477.038645 
L 713.115538 477.486672 
L 716.270916 475.667321 
L 719.426295 473.981649 
L 722.581673 472.663599 
L 725.737052 473.397463 
L 728.89243 471.988529 
L 732.047809 468.308498 
L 735.203187 466.716772 
L 738.358566 465.887123 
L 741.513944 466.222822 
L 744.669323 466.781281 
L 747.824701 467.225576 
L 750.98008 467.454904 
L 754.135458 466.433384 
L 757.290837 465.728562 
L 760.446215 465.221739 
L 763.601594 466.009403 
L 766.756972 466.195052 
L 773.067729 465.876999 
L 776.223108 465.33761 
L 779.378486 465.216842 
L 782.533865 465.310675 
L 788.844622 466.038343 
L 788.844622 466.038343 
" clip-path="url(#p6d60b43b6d)" style="fill: none; stroke: #000000; stroke-width: 1.5; stroke-linecap: square"/>
   </g>
   <g id="line2d_4">
    <path d="M 0 459 
L 3.155378 459 
L 6.310757 456.381356 
L 9.466135 454.976653 
L 12.621514 452.75098 
L 15.776892 452.623308 
L 18.932271 453.790102 
L 25.243028 452.811772 
L 28.398406 450.902716 
L 31.553785 448.226441 
L 37.864542 441.628761 
L 41.01992 439.426737 
L 47.330677 436.147891 
L 50.486056 432.603426 
L 53.641434 429.780109 
L 56.796813 427.610005 
L 59.952191 424.598697 
L 63.10757 423.086021 
L 66.262948 420.7391 
L 69.418327 418.674402 
L 72.573705 416.012238 
L 75.729084 412.688549 
L 78.884462 410.653834 
L 82.039841 409.444945 
L 85.195219 411.207068 
L 88.350598 414.174915 
L 91.505976 416.803361 
L 94.661355 418.245404 
L 97.816733 419.401664 
L 100.972112 416.334719 
L 104.12749 413.924803 
L 107.282869 412.325026 
L 110.438247 408.154697 
L 113.593625 404.860754 
L 116.749004 402.701941 
L 119.904382 401.71093 
L 123.059761 401.815439 
L 126.215139 400.3068 
L 129.370518 397.828038 
L 135.681275 396.402025 
L 138.836653 396.123188 
L 145.14741 392.836832 
L 148.302789 392.666414 
L 151.458167 393.312194 
L 154.613546 394.245883 
L 157.768924 395.475861 
L 160.924303 398.203149 
L 164.079681 399.238687 
L 167.23506 401.047448 
L 170.390438 405.050133 
L 173.545817 405.616326 
L 176.701195 405.459242 
L 179.856574 406.463837 
L 183.011952 408.461338 
L 186.167331 410.322079 
L 189.322709 409.217272 
L 195.633466 405.057052 
L 198.788845 404.143385 
L 201.944223 405.30235 
L 205.099602 405.232214 
L 208.25498 400.83712 
L 211.410359 397.768235 
L 214.565737 393.910632 
L 217.721116 390.389323 
L 220.876494 387.766864 
L 224.031873 384.503671 
L 227.187251 380.957028 
L 230.342629 378.772965 
L 233.498008 376.827399 
L 236.653386 375.101424 
L 239.808765 374.367646 
L 242.964143 373.145775 
L 246.119522 372.345818 
L 249.2749 372.358169 
L 252.430279 374.781358 
L 255.585657 377.380388 
L 258.741036 378.994968 
L 261.896414 379.987431 
L 265.051793 379.079605 
L 268.207171 377.114437 
L 274.517928 370.308583 
L 280.828685 361.619773 
L 283.984064 355.427827 
L 287.139442 351.562522 
L 290.294821 348.891574 
L 299.760956 344.850456 
L 302.916335 345.280128 
L 306.071713 344.922748 
L 309.227092 343.2339 
L 312.38247 338.658054 
L 315.537849 337.56658 
L 318.693227 337.340993 
L 321.848606 338.813336 
L 325.003984 341.109898 
L 328.159363 341.788475 
L 331.314741 342.03506 
L 334.47012 341.5744 
L 337.625498 340.6483 
L 340.780876 337.319692 
L 343.936255 335.885048 
L 347.091633 334.870959 
L 350.247012 334.84456 
L 353.40239 335.603793 
L 356.557769 336.77707 
L 359.713147 337.473022 
L 362.868526 337.369405 
L 366.023904 335.730793 
L 369.179283 335.736684 
L 375.49004 335.467426 
L 378.645418 336.742265 
L 381.800797 337.767131 
L 388.111554 338.828289 
L 391.266932 341.078259 
L 394.422311 348.122434 
L 397.577689 358.255739 
L 403.888446 375.962808 
L 407.043825 386.203298 
L 410.199203 395.755149 
L 413.354582 403.600188 
L 419.665339 424.089566 
L 422.820717 429.945028 
L 425.976096 436.133595 
L 432.286853 445.711778 
L 435.442231 450.25165 
L 438.59761 453.962843 
L 441.752988 458.414779 
L 444.908367 459.844707 
L 448.063745 460.214621 
L 454.374502 461.712948 
L 457.52988 462.635091 
L 460.685259 463.754679 
L 463.840637 465.05002 
L 466.996016 465.843536 
L 470.151394 466.0872 
L 476.462151 464.748359 
L 479.61753 464.738319 
L 482.772908 464.982032 
L 485.928287 464.852923 
L 489.083665 464.872456 
L 495.394422 464.070383 
L 498.549801 463.32368 
L 501.705179 463.039315 
L 508.015936 463.38707 
L 511.171315 463.759583 
L 514.326693 463.843984 
L 517.482072 463.607784 
L 520.63745 463.145622 
L 523.792829 462.155717 
L 530.103586 459.284413 
L 533.258964 456.932805 
L 536.414343 453.416536 
L 539.569721 451.354109 
L 542.7251 448.845252 
L 545.880478 447.466702 
L 549.035857 447.79754 
L 552.191235 446.408264 
L 555.346614 447.134235 
L 558.501992 445.653088 
L 561.657371 446.189689 
L 564.812749 447.859756 
L 571.123506 456.521886 
L 574.278884 459.843822 
L 580.589641 463.305486 
L 583.74502 464.609794 
L 586.900398 465.510805 
L 590.055777 465.759212 
L 593.211155 465.777279 
L 596.366534 467.195078 
L 599.521912 468.755595 
L 605.832669 471.526762 
L 608.988048 472.546264 
L 612.143426 473.70058 
L 615.298805 475.180885 
L 618.454183 476.5231 
L 624.76494 479.572901 
L 627.920319 480.671065 
L 631.075697 481.018207 
L 637.386454 482.411366 
L 640.541833 482.375361 
L 643.697211 481.731922 
L 646.85259 481.446574 
L 650.007968 481.452192 
L 653.163347 481.967831 
L 656.318725 482.183544 
L 662.629482 483.368998 
L 665.784861 482.883914 
L 672.095618 482.735933 
L 675.250996 482.134275 
L 681.561753 482.345823 
L 687.87251 480.858651 
L 694.183267 478.999 
L 697.338645 478.419828 
L 700.494024 477.995538 
L 706.804781 477.874618 
L 709.960159 477.788566 
L 713.115538 477.916707 
L 722.581673 474.752343 
L 725.737052 474.813308 
L 728.89243 473.82029 
L 732.047809 471.530023 
L 735.203187 470.147968 
L 738.358566 469.145807 
L 741.513944 468.805094 
L 750.98008 468.526948 
L 754.135458 467.797307 
L 760.446215 466.679995 
L 763.601594 466.871053 
L 766.756972 466.82924 
L 773.067729 466.446297 
L 776.223108 466.060389 
L 779.378486 465.871142 
L 782.533865 465.803313 
L 788.844622 466.064489 
L 788.844622 466.064489 
" clip-path="url(#p6d60b43b6d)" style="fill: none; stroke: #000000; stroke-width: 1.5; stroke-linecap: square"/>
   </g>
   <g id="line2d_5">
    <path d="M 0 459 
L 3.155378 459 
L 6.310757 456.485317 
L 9.466135 455.149822 
L 12.621514 453.118749 
L 15.776892 452.922144 
L 18.932271 453.831535 
L 25.243028 453.022954 
L 28.398406 451.538091 
L 31.553785 449.463898 
L 37.864542 444.326747 
L 41.01992 442.473576 
L 47.330677 439.545136 
L 50.486056 436.856048 
L 53.641434 434.585602 
L 56.796813 432.708606 
L 59.952191 430.30761 
L 63.10757 428.801477 
L 66.262948 426.809554 
L 69.418327 424.977546 
L 72.573705 422.789601 
L 75.729084 420.190242 
L 78.884462 418.299421 
L 82.039841 416.890228 
L 85.195219 417.216009 
L 91.505976 419.462944 
L 97.816733 420.518504 
L 100.972112 418.718638 
L 104.12749 417.19344 
L 107.282869 416.042021 
L 110.438247 413.450283 
L 113.593625 411.207886 
L 116.749004 409.501194 
L 119.904382 408.395876 
L 123.059761 407.893559 
L 126.215139 406.576757 
L 129.370518 404.723905 
L 135.681275 402.831257 
L 138.836653 402.146075 
L 145.14741 399.377652 
L 148.302789 398.74566 
L 151.458167 398.581686 
L 154.613546 398.638307 
L 157.768924 398.924903 
L 160.924303 400.075994 
L 164.079681 400.468909 
L 167.23506 401.318684 
L 170.390438 403.396806 
L 173.545817 403.830721 
L 176.701195 403.894525 
L 179.856574 404.548835 
L 186.167331 406.952637 
L 189.322709 406.663468 
L 192.478088 405.810483 
L 195.633466 404.831116 
L 198.788845 404.379782 
L 201.944223 404.963373 
L 205.099602 404.936357 
L 208.25498 402.651107 
L 211.410359 400.876016 
L 217.721116 396.331141 
L 220.876494 394.444277 
L 224.031873 392.163136 
L 227.187251 389.646756 
L 233.498008 385.974974 
L 236.653386 384.294757 
L 239.808765 383.133655 
L 242.964143 381.748399 
L 246.119522 380.597594 
L 249.2749 379.905452 
L 252.430279 380.541924 
L 255.585657 381.418295 
L 258.741036 381.922383 
L 261.896414 382.198891 
L 265.051793 381.537425 
L 268.207171 380.306557 
L 274.517928 376.106518 
L 280.828685 370.453928 
L 283.984064 366.463493 
L 287.139442 363.504418 
L 290.294821 361.089633 
L 299.760956 355.975214 
L 302.916335 355.276938 
L 306.071713 354.255862 
L 309.227092 352.579586 
L 312.38247 349.385209 
L 315.537849 347.909272 
L 318.693227 346.92094 
L 321.848606 346.890382 
L 325.003984 347.413767 
L 328.159363 347.235607 
L 331.314741 346.905999 
L 334.47012 346.250574 
L 337.625498 345.367512 
L 340.780876 343.22026 
L 343.936255 341.969233 
L 347.091633 340.924708 
L 350.247012 340.400626 
L 353.40239 340.333692 
L 356.557769 340.552703 
L 359.713147 340.598716 
L 362.868526 340.276155 
L 366.023904 339.167082 
L 375.49004 338.186885 
L 381.800797 338.966212 
L 388.111554 339.293363 
L 391.266932 340.406664 
L 394.422311 344.109418 
L 397.577689 349.675384 
L 400.733068 354.889545 
L 403.888446 360.478799 
L 410.199203 373.477668 
L 413.354582 379.320201 
L 416.50996 386.528177 
L 419.665339 394.070437 
L 425.976096 405.243366 
L 435.442231 420.119624 
L 438.59761 424.525733 
L 441.752988 429.255905 
L 444.908367 433.278617 
L 448.063745 436.18338 
L 457.52988 446.231929 
L 460.685259 449.931225 
L 463.840637 453.877515 
L 466.996016 457.034414 
L 470.151394 459.090705 
L 476.462151 459.473267 
L 489.083665 461.098757 
L 495.394422 461.271246 
L 498.549801 461.122238 
L 501.705179 461.165249 
L 514.326693 462.222804 
L 517.482072 462.249207 
L 520.63745 462.136634 
L 523.792829 461.716593 
L 536.414343 458.919645 
L 539.569721 457.432449 
L 542.7251 455.672639 
L 545.880478 454.43611 
L 549.035857 454.076387 
L 552.191235 452.876948 
L 555.346614 452.765005 
L 558.501992 451.571182 
L 561.657371 451.409329 
L 564.812749 451.900621 
L 571.123506 456.051295 
L 574.278884 458.747436 
L 580.589641 460.964727 
L 583.74502 461.854538 
L 586.900398 462.56797 
L 590.055777 462.956681 
L 593.211155 463.211425 
L 599.521912 465.242885 
L 608.988048 468.198211 
L 612.143426 469.164758 
L 627.920319 474.924194 
L 631.075697 475.579071 
L 637.386454 477.191857 
L 640.541833 477.602752 
L 643.697211 477.658271 
L 646.85259 477.843491 
L 650.007968 478.143473 
L 653.163347 478.683106 
L 656.318725 479.065234 
L 662.629482 480.194943 
L 665.784861 480.200972 
L 672.095618 480.546789 
L 675.250996 480.416951 
L 681.561753 480.808549 
L 687.87251 480.250593 
L 694.183267 479.340417 
L 700.494024 478.749178 
L 713.115538 478.490773 
L 722.581673 476.603907 
L 725.737052 476.491983 
L 728.89243 475.845367 
L 732.047809 474.492743 
L 735.203187 473.536345 
L 738.358566 472.743725 
L 741.513944 472.276887 
L 750.98008 471.349894 
L 757.290837 470.194675 
L 760.446215 469.688636 
L 766.756972 469.311655 
L 782.533865 467.837368 
L 788.844622 467.658229 
L 788.844622 467.658229 
" clip-path="url(#p6d60b43b6d)" style="fill: none; stroke: #000000; stroke-width: 1.5; stroke-linecap: square"/>
   </g>
   <g id="line2d_6">
    <path d="M 0 459 
L 3.155378 459 
L 6.310757 456.537469 
L 9.466135 455.23805 
L 12.621514 453.304542 
L 15.776892 453.082791 
L 18.932271 453.875793 
L 25.243028 453.143993 
L 28.398406 451.855963 
L 31.553785 450.070974 
L 37.864542 445.681243 
L 41.01992 444.061903 
L 47.330677 441.462584 
L 50.486056 439.238673 
L 53.641434 437.328801 
L 56.796813 435.714633 
L 59.952191 433.720998 
L 63.10757 432.377361 
L 72.573705 427.31694 
L 75.729084 425.219731 
L 78.884462 423.601887 
L 82.039841 422.313853 
L 85.195219 422.198563 
L 91.505976 423.126948 
L 97.816733 423.410736 
L 100.972112 422.096613 
L 104.12749 420.941314 
L 107.282869 420.010945 
L 110.438247 418.177842 
L 113.593625 416.534654 
L 116.749004 415.201772 
L 119.904382 414.226821 
L 123.059761 413.618506 
L 126.215139 412.529612 
L 129.370518 411.115458 
L 135.681275 409.343826 
L 138.836653 408.615654 
L 145.14741 406.348396 
L 148.302789 405.641562 
L 151.458167 405.212267 
L 154.613546 404.92488 
L 157.768924 404.787072 
L 160.924303 405.161932 
L 164.079681 405.143048 
L 167.23506 405.401322 
L 170.390438 406.375576 
L 173.545817 406.478803 
L 176.701195 406.391087 
L 179.856574 406.638332 
L 186.167331 407.801274 
L 189.322709 407.603634 
L 198.788845 406.178962 
L 201.944223 406.414568 
L 205.099602 406.343907 
L 208.25498 405.054442 
L 211.410359 403.998208 
L 217.721116 401.251335 
L 220.876494 400.030611 
L 224.031873 398.570489 
L 227.187251 396.950596 
L 236.653386 393.079999 
L 239.808765 392.082043 
L 246.119522 389.95237 
L 249.2749 389.182744 
L 252.430279 389.117897 
L 255.585657 389.21033 
L 261.896414 388.975386 
L 265.051793 388.337956 
L 268.207171 387.400448 
L 274.517928 384.561002 
L 280.828685 380.830634 
L 283.984064 378.293882 
L 287.139442 376.237411 
L 290.294821 374.429175 
L 299.760956 370.01523 
L 302.916335 369.048454 
L 306.071713 367.925378 
L 309.227092 366.46513 
L 312.38247 364.198541 
L 315.537849 362.791556 
L 318.693227 361.638139 
L 321.848606 360.994293 
L 325.003984 360.667604 
L 331.314741 359.293957 
L 337.625498 357.450198 
L 340.780876 355.820606 
L 347.091633 353.552294 
L 350.247012 352.744696 
L 353.40239 352.188226 
L 359.713147 351.352697 
L 362.868526 350.735465 
L 366.023904 349.722244 
L 375.49004 347.929892 
L 384.956175 347.257067 
L 388.111554 347.024784 
L 391.266932 347.278401 
L 394.422311 348.898743 
L 400.733068 354.150499 
L 403.888446 357.040264 
L 413.354582 367.385427 
L 416.50996 371.51972 
L 419.665339 375.945456 
L 422.820717 379.458329 
L 425.976096 383.160108 
L 444.908367 403.705701 
L 448.063745 406.409485 
L 457.52988 415.291753 
L 466.996016 424.745966 
L 470.151394 427.240581 
L 476.462151 430.47169 
L 485.928287 436.112981 
L 489.083665 437.826715 
L 495.394422 440.342553 
L 498.549801 441.17851 
L 501.705179 442.253621 
L 514.326693 447.62486 
L 517.482072 448.547329 
L 520.63745 449.221369 
L 523.792829 449.382554 
L 526.948207 449.089112 
L 530.103586 448.564443 
L 533.258964 448.279386 
L 536.414343 447.722974 
L 539.569721 447.428388 
L 542.7251 446.940885 
L 545.880478 446.669597 
L 549.035857 446.805557 
L 552.191235 446.491428 
L 555.346614 446.695051 
L 558.501992 446.333109 
L 561.657371 446.462005 
L 564.812749 446.909514 
L 571.123506 449.459257 
L 574.278884 451.099772 
L 577.434263 452.912002 
L 580.589641 454.912037 
L 583.74502 456.686992 
L 586.900398 458.227993 
L 590.055777 459.098925 
L 593.211155 459.38972 
L 599.521912 460.765072 
L 612.143426 463.60984 
L 621.609562 466.145957 
L 627.920319 467.887861 
L 634.231076 469.246508 
L 637.386454 469.964106 
L 640.541833 470.486433 
L 646.85259 471.213323 
L 650.007968 471.653256 
L 662.629482 473.81379 
L 668.940239 474.459948 
L 672.095618 474.794061 
L 675.250996 474.977855 
L 681.561753 475.646604 
L 687.87251 475.80058 
L 700.494024 475.71701 
L 713.115538 476.085326 
L 728.89243 475.120888 
L 732.047809 474.465825 
L 738.358566 473.565584 
L 744.669323 473.089588 
L 750.98008 472.699521 
L 760.446215 471.667369 
L 766.756972 471.320338 
L 785.689243 470.007025 
L 788.844622 469.884154 
L 788.844622 469.884154 
" clip-path="url(#p6d60b43b6d)" style="fill: none; stroke: #000000; stroke-width: 1.5; stroke-linecap: square"/>
   </g>
   <g id="line2d_7">
    <path d="M 0 459 
L 3.155378 459 
L 6.310757 456.563566 
L 9.466135 455.282505 
L 12.621514 453.39768 
L 15.776892 453.165588 
L 18.932271 453.903776 
L 25.243028 453.208518 
L 28.398406 452.01403 
L 31.553785 450.36799 
L 37.864542 446.344965 
L 41.01992 444.850862 
L 47.330677 442.443795 
L 50.486056 440.452868 
L 53.641434 438.734796 
L 56.796813 437.272823 
L 59.952191 435.497961 
L 63.10757 434.26973 
L 72.573705 429.771811 
L 75.729084 427.95051 
L 78.884462 426.515922 
L 82.039841 425.348206 
L 85.195219 425.110475 
L 91.505976 425.573164 
L 97.816733 425.580378 
L 100.972112 424.490351 
L 104.12749 423.519542 
L 107.282869 422.717492 
L 110.438247 421.246324 
L 113.593625 419.91209 
L 116.749004 418.803499 
L 119.904382 417.955673 
L 123.059761 417.37526 
L 126.215139 416.453277 
L 129.370518 415.299767 
L 141.992032 412.144202 
L 145.14741 411.190054 
L 148.302789 410.539991 
L 154.613546 409.727328 
L 157.768924 409.478122 
L 160.924303 409.580424 
L 164.079681 409.42751 
L 167.23506 409.465205 
L 170.390438 409.98527 
L 173.545817 409.942213 
L 176.701195 409.778907 
L 179.856574 409.838018 
L 186.167331 410.41006 
L 189.322709 410.205881 
L 198.788845 409.059431 
L 201.944223 409.126129 
L 205.099602 409.00465 
L 208.25498 408.120767 
L 211.410359 407.37493 
L 224.031873 403.575621 
L 227.187251 402.445898 
L 236.653386 399.615434 
L 249.2749 396.539921 
L 261.896414 395.682896 
L 265.051793 395.134986 
L 268.207171 394.410051 
L 274.517928 392.380783 
L 280.828685 389.797548 
L 283.984064 388.09826 
L 287.139442 386.660268 
L 290.294821 385.353785 
L 299.760956 381.972247 
L 306.071713 380.183355 
L 309.227092 379.048553 
L 312.38247 377.447705 
L 315.537849 376.323413 
L 318.693227 375.338811 
L 321.848606 374.641569 
L 325.003984 374.126944 
L 331.314741 372.704582 
L 337.625498 371.023744 
L 340.780876 369.785164 
L 347.091633 367.845824 
L 350.247012 367.055612 
L 356.557769 365.855724 
L 362.868526 364.604821 
L 366.023904 363.717829 
L 375.49004 361.749649 
L 388.111554 359.998783 
L 391.266932 359.837237 
L 394.422311 360.431625 
L 400.733068 362.78911 
L 403.888446 364.154666 
L 413.354582 369.374664 
L 416.50996 371.546242 
L 419.665339 373.91114 
L 422.820717 375.831243 
L 429.131474 379.828774 
L 444.908367 389.928011 
L 448.063745 391.653716 
L 457.52988 397.352844 
L 466.996016 403.545605 
L 470.151394 405.311127 
L 479.61753 409.454236 
L 482.772908 411.015264 
L 489.083665 413.813131 
L 495.394422 416.175828 
L 498.549801 417.139885 
L 501.705179 418.224043 
L 514.326693 423.114401 
L 517.482072 424.123811 
L 520.63745 425.003074 
L 523.792829 425.613621 
L 526.948207 425.980407 
L 536.414343 426.736447 
L 539.569721 427.040208 
L 545.880478 427.518788 
L 549.035857 428.002324 
L 552.191235 428.247745 
L 555.346614 428.746852 
L 558.501992 428.949495 
L 561.657371 429.391572 
L 564.812749 429.990792 
L 571.123506 432.033491 
L 577.434263 434.564537 
L 583.74502 437.300645 
L 586.900398 438.508022 
L 593.211155 440.35362 
L 599.521912 443.325636 
L 612.143426 449.563898 
L 621.609562 454.98662 
L 627.920319 458.757659 
L 631.075697 459.436239 
L 640.541833 461.027062 
L 650.007968 462.224261 
L 662.629482 464.135734 
L 684.717131 466.524854 
L 691.027888 466.92349 
L 703.649402 467.670529 
L 713.115538 468.310479 
L 728.89243 468.580641 
L 735.203187 468.267508 
L 741.513944 468.150142 
L 754.135458 468.062519 
L 763.601594 467.8934 
L 776.223108 467.690721 
L 788.844622 467.549071 
L 788.844622 467.549071 
" clip-path="url(#p6d60b43b6d)" style="fill: none; stroke: #000000; stroke-width: 1.5; stroke-linecap: square"/>
   </g>
   <g id="line2d_8">
    <path d="M 0 459 
L 3.155378 459 
L 6.310757 456.576617 
L 9.466135 455.304809 
L 12.621514 453.444279 
L 15.776892 453.207557 
L 18.932271 453.91921 
L 25.243028 453.241782 
L 28.398406 452.092732 
L 31.553785 450.514444 
L 37.864542 446.671579 
L 41.01992 445.241178 
L 47.330677 442.935048 
L 50.486056 441.059158 
L 53.641434 439.437999 
L 56.796813 438.055325 
L 59.952191 436.391192 
L 63.10757 435.226924 
L 72.573705 431.023454 
L 75.729084 429.342359 
L 78.884462 428.007316 
L 82.039841 426.911391 
L 85.195219 426.636146 
L 91.505976 426.919491 
L 97.816733 426.82464 
L 104.12749 424.964776 
L 107.282869 424.231702 
L 113.593625 421.751603 
L 116.749004 420.760331 
L 119.904382 419.988681 
L 123.059761 419.441682 
L 126.215139 418.613698 
L 129.370518 417.596094 
L 141.992032 414.742148 
L 145.14741 413.898787 
L 148.302789 413.301748 
L 154.613546 412.504481 
L 157.768924 412.234471 
L 160.924303 412.245598 
L 164.079681 412.058099 
L 167.23506 412.022837 
L 170.390438 412.368155 
L 179.856574 412.086586 
L 186.167331 412.426491 
L 189.322709 412.224637 
L 198.788845 411.215579 
L 201.944223 411.219448 
L 205.099602 411.083447 
L 224.031873 406.741048 
L 227.187251 405.848304 
L 236.653386 403.572224 
L 249.2749 401.035411 
L 261.896414 400.097141 
L 265.051793 399.630093 
L 268.207171 399.038556 
L 274.517928 397.446607 
L 280.828685 395.46166 
L 283.984064 394.182489 
L 290.294821 392.067806 
L 299.760956 389.390106 
L 306.071713 387.918521 
L 309.227092 387.018509 
L 312.38247 385.800852 
L 318.693227 384.098461 
L 321.848606 383.487065 
L 325.003984 382.99898 
L 334.47012 381.078583 
L 337.625498 380.354325 
L 340.780876 379.385731 
L 347.091633 377.800676 
L 353.40239 376.543737 
L 362.868526 374.898583 
L 366.023904 374.164798 
L 375.49004 372.414292 
L 388.111554 370.656618 
L 391.266932 370.397087 
L 394.422311 370.622585 
L 400.733068 371.834619 
L 403.888446 372.569007 
L 413.354582 375.527129 
L 416.50996 376.79926 
L 419.665339 378.201105 
L 425.976096 380.559544 
L 435.442231 384.176124 
L 460.685259 393.890384 
L 466.996016 396.542189 
L 470.151394 397.696158 
L 479.61753 400.49595 
L 485.928287 402.495725 
L 489.083665 403.463502 
L 495.394422 405.139345 
L 501.705179 406.640109 
L 514.326693 410.14152 
L 520.63745 411.583524 
L 523.792829 412.112235 
L 533.258964 413.17488 
L 542.7251 414.077511 
L 545.880478 414.410119 
L 549.035857 414.854891 
L 552.191235 415.162406 
L 555.346614 415.614446 
L 558.501992 415.896216 
L 564.812749 416.820997 
L 571.123506 418.321104 
L 577.434263 420.109944 
L 583.74502 422.03003 
L 586.900398 422.904444 
L 593.211155 424.338643 
L 599.521912 426.418111 
L 612.143426 430.79589 
L 621.609562 434.546467 
L 627.920319 437.162814 
L 634.231076 439.499899 
L 637.386454 440.715311 
L 640.541833 441.773984 
L 646.85259 443.630594 
L 653.163347 445.722193 
L 659.474104 447.872047 
L 662.629482 448.98806 
L 684.717131 455.114913 
L 691.027888 456.401447 
L 700.494024 458.194518 
L 703.649402 458.874073 
L 709.960159 459.389556 
L 716.270916 459.753819 
L 732.047809 460.256618 
L 741.513944 460.409314 
L 757.290837 460.755958 
L 779.378486 461.131468 
L 788.844622 461.309271 
L 788.844622 461.309271 
" clip-path="url(#p6d60b43b6d)" style="fill: none; stroke: #000000; stroke-width: 1.5; stroke-linecap: square"/>
   </g>
   <g id="line2d_9">
    <path d="M 0 459 
L 3.155378 459 
L 6.310757 456.583143 
L 9.466135 455.315979 
L 12.621514 453.467583 
L 15.776892 453.228678 
L 18.932271 453.927285 
L 25.243028 453.258663 
L 28.398406 452.131986 
L 31.553785 450.587107 
L 37.864542 446.833351 
L 41.01992 445.434945 
L 47.330677 443.180194 
L 50.486056 441.361252 
L 53.641434 439.788548 
L 56.796813 438.446035 
L 59.952191 436.837255 
L 63.10757 435.70617 
L 72.573705 431.651845 
L 75.729084 430.04079 
L 78.884462 428.756832 
L 82.039841 427.699047 
L 85.195219 427.410492 
L 91.505976 427.61724 
L 97.816733 427.480617 
L 104.12749 425.720027 
L 107.282869 425.022348 
L 113.593625 422.700798 
L 116.749004 421.768528 
L 119.904382 421.037201 
L 123.059761 420.510991 
L 126.215139 419.731647 
L 129.370518 418.782133 
L 141.992032 416.091849 
L 145.14741 415.305937 
L 148.302789 414.740394 
L 154.613546 413.965113 
L 157.768924 413.693064 
L 160.924303 413.670229 
L 164.079681 413.473831 
L 167.23506 413.41221 
L 170.390438 413.685144 
L 179.856574 413.358561 
L 186.167331 413.603555 
L 189.322709 413.406218 
L 198.788845 412.469332 
L 201.944223 412.449521 
L 205.099602 412.310924 
L 224.031873 408.480343 
L 230.342629 407.02436 
L 239.808765 405.128931 
L 246.119522 403.938012 
L 249.2749 403.445352 
L 261.896414 402.5253 
L 268.207171 401.585453 
L 274.517928 400.210647 
L 280.828685 398.516055 
L 283.984064 397.436048 
L 290.294821 395.633916 
L 299.760956 393.329386 
L 306.071713 392.045185 
L 309.227092 391.272342 
L 312.38247 390.246417 
L 318.693227 388.777083 
L 337.625498 385.461372 
L 340.780876 384.639867 
L 347.091633 383.272472 
L 353.40239 382.161874 
L 362.868526 380.686787 
L 366.023904 380.052814 
L 375.49004 378.500657 
L 388.111554 376.880598 
L 391.266932 376.614067 
L 394.422311 376.71701 
L 403.888446 377.998115 
L 413.354582 380.058756 
L 429.131474 384.485836 
L 460.685259 393.298453 
L 466.996016 395.240239 
L 470.151394 396.088924 
L 479.61753 398.163193 
L 485.928287 399.647585 
L 492.239044 401.004137 
L 520.63745 406.506791 
L 526.948207 407.243908 
L 545.880478 408.867866 
L 555.346614 409.851966 
L 561.657371 410.43634 
L 564.812749 410.837269 
L 574.278884 412.623688 
L 590.055777 415.974148 
L 593.211155 416.508313 
L 602.677291 418.854188 
L 615.298805 422.208092 
L 621.609562 424.07265 
L 627.920319 426.001354 
L 643.697211 430.159674 
L 650.007968 431.65555 
L 662.629482 434.96881 
L 684.717131 439.800771 
L 691.027888 440.881167 
L 703.649402 442.975494 
L 713.115538 444.624341 
L 728.89243 446.499866 
L 735.203187 446.788005 
L 741.513944 447.262404 
L 754.135458 448.327985 
L 763.601594 448.984683 
L 773.067729 449.661534 
L 785.689243 450.475795 
L 788.844622 450.710776 
L 788.844622 450.710776 
" clip-path="url(#p6d60b43b6d)" style="fill: none; stroke: #000000; stroke-width: 1.5; stroke-linecap: square"/>
   </g>
  </g>
 </g>
 <defs>
  <clipPath id="p6d60b43b6d">
   <rect x="0" y="0" width="792" height="612"/>
  </clipPath>
 </defs>
</svg>
