<?xml version="1.0" encoding="utf-8" standalone="no"?>
<!DOCTYPE svg PUBLIC "-//W3C//DTD SVG 1.1//EN"
  "http://www.w3.org/Graphics/SVG/1.1/DTD/svg11.dtd">
<svg xmlns:xlink="http://www.w3.org/1999/xlink" width="792pt" height="612pt" viewBox="0 0 792 612" xmlns="http://www.w3.org/2000/svg" version="1.1">
 <metadata>
  <rdf:RDF xmlns:dc="http://purl.org/dc/elements/1.1/" xmlns:cc="http://creativecommons.org/ns#" xmlns:rdf="http://www.w3.org/1999/02/22-rdf-syntax-ns#">
   <cc:Work>
    <dc:type rdf:resource="http://purl.org/dc/dcmitype/StillImage"/>
    <dc:date>2023-01-02T15:39:44.014384</dc:date>
    <dc:format>image/svg+xml</dc:format>
    <dc:creator>
     <cc:Agent>
      <dc:title>Matplotlib v3.6.2, https://matplotlib.org/</dc:title>
     </cc:Agent>
    </dc:creator>
   </cc:Work>
  </rdf:RDF>
 </metadata>
 <defs>
  <style type="text/css">*{stroke-linejoin: round; stroke-linecap: butt}</style>
 </defs>
 <g id="figure_1">
  <g id="patch_1">
   <path d="M 0 612 
L 792 612 
L 792 0 
L 0 0 
z
" style="fill: #ffffff"/>
  </g>
  <g id="axes_1">
   <g id="line2d_1">
    <path d="M 0 306 
L 3.168 297.715758 
L 6.336 306.322841 
L 9.504 306.591875 
L 12.672 301.372957 
L 15.84 309.766295 
L 19.008 301.803323 
L 22.176 305.569545 
L 25.344 302.341303 
L 28.512 301.69573 
L 31.68 308.905487 
L 34.848 307.937024 
L 38.016 316.91817 
L 41.184 311.864237 
L 44.352 306.538069 
L 47.52 302.986909 
L 50.688 305.784772 
L 53.856 290.087516 
L 57.024 306.753295 
L 60.192 307.667998 
L 63.36 294.813147 
L 66.528 306.807102 
L 69.696 308.421261 
L 72.864 309.282097 
L 76.032 309.712496 
L 79.2 299.651693 
L 82.368 301.157781 
L 85.536 311.595297 
L 88.704 305.246705 
L 91.872 307.39897 
L 95.04 300.458492 
L 98.208 304.816253 
L 101.376 310.896013 
L 104.544 309.120694 
L 107.712 307.560387 
L 110.88 307.775609 
L 114.048 312.724783 
L 117.216 300.996402 
L 120.384 309.712496 
L 123.552 315.843271 
L 126.72 294.866882 
L 129.888 303.471132 
L 133.056 310.519453 
L 136.224 310.573248 
L 139.392 306.753295 
L 142.56 295.458016 
L 145.728 301.534342 
L 148.896 304.493418 
L 152.064 309.389698 
L 155.232 313.585223 
L 158.4 301.85712 
L 161.568 288.799932 
L 164.736 308.421261 
L 167.904 300.888817 
L 171.072 304.87006 
L 174.24 307.345165 
L 177.408 301.749526 
L 180.576 302.717903 
L 183.744 309.174495 
L 186.912 305.569545 
L 190.08 305.623352 
L 193.248 308.905487 
L 196.416 303.524935 
L 199.584 306.914715 
L 202.752 308.797882 
L 205.92 315.789519 
L 209.088 308.25985 
L 212.256 303.686346 
L 215.424 304.547224 
L 218.592 298.952539 
L 221.76 301.157781 
L 224.928 298.844983 
L 228.096 303.901563 
L 231.264 299.705477 
L 234.432 303.363526 
L 237.6 295.404273 
L 240.768 311.433928 
L 243.936 308.313654 
L 247.104 309.766295 
L 250.272 305.569545 
L 253.44 304.062976 
L 256.608 313.047461 
L 259.776 302.986909 
L 262.944 300.135763 
L 266.112 292.771745 
L 269.28 317.509251 
L 272.448 308.905487 
L 275.616 312.993683 
L 278.784 310.411862 
L 281.952 300.727443 
L 285.12 304.654835 
L 288.288 303.202118 
L 291.456 303.74015 
L 294.624 295.296789 
L 297.792 311.702874 
L 300.96 306.807102 
L 304.128 309.497298 
L 307.296 309.335897 
L 310.464 308.25985 
L 313.632 304.762447 
L 316.8 303.094513 
L 319.968 299.436562 
L 323.136 311.81045 
L 326.304 305.300511 
L 329.472 306.053807 
L 332.64 311.756662 
L 335.808 305.784772 
L 338.976 304.385807 
L 342.144 306.699489 
L 345.312 313.423899 
L 348.48 327.433807 
L 351.648 323.146431 
L 354.816 306.645682 
L 357.984 312.186953 
L 361.152 316.703211 
L 364.32 309.497298 
L 367.488 305.031479 
L 370.656 320.033757 
L 373.824 312.886124 
L 376.992 294.813147 
L 380.16 310.949806 
L 383.328 304.332002 
L 386.496 308.959289 
L 389.664 307.990828 
L 392.832 305.569545 
L 396 311.164975 
L 399.168 303.578739 
L 402.336 300.081976 
L 405.504 310.842219 
L 408.672 307.990828 
L 411.84 309.174495 
L 415.008 310.035286 
L 418.176 310.14288 
L 421.344 302.502702 
L 424.512 301.050194 
L 427.68 295.350531 
L 430.848 305.461931 
L 434.016 312.186953 
L 437.184 308.959289 
L 440.352 302.07231 
L 443.52 307.506582 
L 446.688 300.942609 
L 449.856 305.677159 
L 453.024 301.103987 
L 456.192 310.035286 
L 459.36 310.896013 
L 462.528 306.322841 
L 465.696 308.690277 
L 468.864 303.309723 
L 472.032 302.448902 
L 475.2 302.933108 
L 478.368 298.898761 
L 481.536 299.436562 
L 484.704 302.395103 
L 487.872 309.174495 
L 491.04 301.85712 
L 494.208 309.497298 
L 497.376 302.986909 
L 500.544 308.851685 
L 503.712 311.81045 
L 506.88 299.490344 
L 510.048 313.423899 
L 513.216 297.823294 
L 516.384 312.993683 
L 519.552 310.788426 
L 522.72 317.777896 
L 525.888 308.044633 
L 529.056 311.595297 
L 532.224 309.497298 
L 535.392 309.873892 
L 538.56 303.955367 
L 541.728 303.686346 
L 544.896 300.028189 
L 548.064 303.74015 
L 551.232 322.449049 
L 554.4 310.30427 
L 557.568 306.860909 
L 560.736 308.636474 
L 563.904 304.278196 
L 567.072 309.497298 
L 570.24 311.971811 
L 573.408 307.12994 
L 576.576 310.680838 
L 579.744 308.74408 
L 582.912 303.847758 
L 586.08 299.221436 
L 589.248 310.788426 
L 592.416 307.237553 
L 595.584 298.737429 
L 598.752 298.791206 
L 601.92 309.013091 
L 605.088 308.905487 
L 608.256 311.971811 
L 611.424 303.471132 
L 614.592 311.003598 
L 617.76 306.753295 
L 620.928 294.651945 
L 624.096 310.30427 
L 627.264 305.246705 
L 630.432 299.974403 
L 633.6 312.724783 
L 636.768 307.076134 
L 639.936 295.565503 
L 643.104 305.085285 
L 646.272 301.641934 
L 649.44 305.246705 
L 652.608 307.990828 
L 655.776 306.753295 
L 658.944 309.981488 
L 662.112 304.977672 
L 665.28 306 
L 668.448 308.367458 
L 671.616 292.342121 
L 674.784 303.471132 
L 677.952 305.192898 
L 681.12 316.595727 
L 684.288 293.738589 
L 687.456 288.907208 
L 690.624 312.40209 
L 693.792 307.883219 
L 696.96 311.864237 
L 700.128 308.044633 
L 703.296 306.322841 
L 706.464 305.461931 
L 709.632 298.468551 
L 712.8 306.107614 
L 715.968 305.946193 
L 719.136 313.316348 
L 722.304 303.578739 
L 725.472 304.278196 
L 728.64 305.461931 
L 731.808 303.417329 
L 734.976 307.614193 
L 738.144 307.076134 
L 741.312 307.883219 
L 744.48 306.753295 
L 747.648 307.937024 
L 750.816 301.103987 
L 753.984 303.578739 
L 757.152 307.076134 
L 760.32 315.843271 
L 763.488 304.547224 
L 766.656 308.528868 
L 769.824 304.224391 
L 772.992 300.566072 
L 776.16 308.690277 
L 779.328 302.287504 
L 782.496 310.680838 
L 785.664 302.448902 
L 788.832 307.39897 
L 788.832 307.39897 
" clip-path="url(#pc4491a03fc)" style="fill: none; stroke: #000000; stroke-width: 1.5; stroke-linecap: square"/>
   </g>
   <g id="line2d_2">
    <path d="M 0 306 
L 3.168 306 
L 6.336 300.476422 
L 9.504 303.817013 
L 12.672 305.296924 
L 15.84 303.27154 
L 19.008 306.570524 
L 22.176 304.168044 
L 25.344 304.871537 
L 28.512 303.599205 
L 31.68 302.655241 
L 34.848 305.785405 
L 38.016 306.863863 
L 41.184 311.923086 
L 44.352 311.897775 
L 47.52 309.227452 
L 50.688 306.102128 
L 53.856 305.950202 
L 57.024 297.990717 
L 60.192 302.367043 
L 63.36 305.016919 
L 66.528 299.869996 
L 69.696 303.32829 
L 72.864 305.87846 
L 76.032 307.592671 
L 79.2 308.660316 
L 82.368 304.174384 
L 85.536 302.65503 
L 88.704 307.133105 
L 91.872 306.210375 
L 95.04 306.805836 
L 98.208 303.616296 
L 101.376 304.207511 
L 104.544 307.554268 
L 107.712 308.356064 
L 110.88 307.970783 
L 114.048 307.865706 
L 117.216 310.310177 
L 120.384 305.640654 
L 123.552 307.694795 
L 126.72 311.791677 
L 129.888 303.295797 
L 133.056 303.372387 
L 136.224 306.951852 
L 139.392 308.768133 
L 142.56 307.749023 
L 145.728 301.59088 
L 148.896 301.546578 
L 152.064 302.99767 
L 155.232 306.222191 
L 158.4 309.924103 
L 161.568 305.873606 
L 164.736 297.287321 
L 167.904 302.85652 
L 171.072 301.88328 
L 174.24 303.383148 
L 177.408 305.369721 
L 180.576 303.544558 
L 183.744 303.109915 
L 186.912 306.156568 
L 190.08 305.895973 
L 193.248 305.754176 
L 196.416 307.345587 
L 199.584 305.432601 
L 202.752 306.172815 
L 205.92 307.499197 
L 209.088 311.671023 
L 212.256 309.963766 
L 215.424 306.82145 
L 218.592 305.682223 
L 221.76 302.29742 
L 224.928 301.722944 
L 228.096 300.268017 
L 231.264 302.075053 
L 234.432 300.858652 
L 237.6 302.101424 
L 240.768 298.735742 
L 243.936 305.097945 
L 250.272 308.262171 
L 256.608 305.496325 
L 259.776 309.298553 
L 262.944 306.142008 
L 266.112 303.147893 
L 269.28 297.920921 
L 272.448 307.734886 
L 275.616 308.318507 
L 278.784 310.670923 
L 281.952 310.55384 
L 285.12 305.616388 
L 288.288 305.13888 
L 291.456 304.176494 
L 294.624 303.979843 
L 297.792 299.593481 
L 300.96 305.653526 
L 304.128 306.218182 
L 307.296 307.856 
L 310.464 308.612843 
L 313.632 308.443416 
L 319.968 304.848959 
L 323.136 302.150581 
L 326.304 306.980971 
L 329.472 306.137788 
L 332.64 306.089045 
L 335.808 308.927852 
L 342.144 305.867909 
L 345.312 306.290768 
L 348.48 309.885284 
L 351.648 318.70063 
L 354.816 320.959263 
L 357.984 313.807906 
L 361.152 312.998322 
L 364.32 314.87249 
L 367.488 312.19539 
L 370.656 308.610522 
L 373.824 314.338009 
L 376.992 313.583536 
L 380.16 304.141046 
L 383.328 307.554057 
L 386.496 305.927624 
L 389.664 307.4283 
L 392.832 307.706611 
L 396 306.639141 
L 399.168 308.88481 
L 402.336 306.21354 
L 405.504 303.15781 
L 408.672 306.999961 
L 411.84 307.502573 
L 418.176 309.191163 
L 421.344 309.675997 
L 424.512 306.072376 
L 427.68 303.556162 
L 430.848 299.442889 
L 434.016 302.441518 
L 437.184 307.322798 
L 440.352 308.140637 
L 443.52 305.090771 
L 446.688 306.293511 
L 449.856 303.614819 
L 453.024 304.655046 
L 456.192 302.8907 
L 459.36 306.472024 
L 462.528 308.681626 
L 465.696 307.497087 
L 468.864 308.106666 
L 472.032 305.699947 
L 475.2 304.077324 
L 478.368 303.499827 
L 481.536 301.194698 
L 484.704 300.294806 
L 487.872 301.328234 
L 491.04 305.256833 
L 494.208 303.543503 
L 497.376 306.532583 
L 500.544 304.760759 
L 503.712 306.817863 
L 506.88 309.339695 
L 510.048 304.414714 
L 513.216 308.941566 
L 516.384 303.359306 
L 519.552 308.198872 
L 522.72 309.496243 
L 525.888 313.667465 
L 529.056 310.854877 
L 532.224 311.224672 
L 535.392 310.38064 
L 538.56 310.120307 
L 541.728 307.04997 
L 544.896 305.349887 
L 548.064 302.667689 
L 551.232 303.176377 
L 554.4 312.84774 
L 557.568 311.57357 
L 560.736 309.212261 
L 563.904 308.921944 
L 567.072 306.600738 
L 570.24 308.060458 
L 573.408 310.039716 
L 576.576 308.591533 
L 579.744 309.613126 
L 582.912 309.17555 
L 586.08 306.505785 
L 589.248 302.844705 
L 592.416 306.829469 
L 595.584 307.02908 
L 598.752 302.856731 
L 601.92 300.807391 
L 605.088 304.906774 
L 608.256 306.906486 
L 611.424 309.455313 
L 614.592 306.471602 
L 617.76 308.738172 
L 620.928 307.744803 
L 624.096 301.188158 
L 627.264 305.768736 
L 630.432 305.500335 
L 633.6 302.719591 
L 636.768 307.724125 
L 639.936 307.4072 
L 643.104 301.454388 
L 646.272 303.26647 
L 649.44 302.46789 
L 652.608 303.847336 
L 655.776 305.924459 
L 658.944 306.352171 
L 662.112 308.161526 
L 665.28 306.5655 
L 668.448 306.303218 
L 671.616 307.341788 
L 674.784 299.820007 
L 681.12 303.411843 
L 684.288 310.024948 
L 687.456 301.846993 
L 690.624 295.340836 
L 693.792 303.882362 
L 696.96 305.881836 
L 700.128 308.911605 
L 703.296 308.487091 
L 709.632 306.412731 
L 712.8 302.449324 
L 715.968 304.312168 
L 719.136 305.116514 
L 722.304 309.227663 
L 725.472 306.386988 
L 728.64 305.325199 
L 731.808 305.391877 
L 734.976 304.400577 
L 738.144 306.025321 
L 741.312 306.552628 
L 744.48 307.221727 
L 747.648 306.974641 
L 750.816 307.464381 
L 753.984 304.277774 
L 757.152 303.924561 
L 760.32 305.507509 
L 763.488 310.692862 
L 766.656 307.615248 
L 769.824 308.073329 
L 772.992 306.143907 
L 776.16 303.340317 
L 779.328 306.030174 
L 782.496 304.156238 
L 785.664 307.425768 
L 788.832 304.910995 
L 788.832 304.910995 
" clip-path="url(#pc4491a03fc)" style="fill: none; stroke: #000000; stroke-width: 1.5; stroke-linecap: square"/>
   </g>
   <g id="line2d_3">
    <path d="M 0 306 
L 3.168 306 
L 6.336 301.146424 
L 9.504 303.491599 
L 12.672 304.702306 
L 15.84 303.517686 
L 19.008 305.609343 
L 22.176 304.38643 
L 25.344 304.756055 
L 31.68 303.31449 
L 34.848 304.98904 
L 38.016 305.866195 
L 41.184 309.140671 
L 44.352 309.944737 
L 47.52 308.941468 
L 50.688 307.190608 
L 53.856 306.778604 
L 57.024 301.877164 
L 60.192 303.305738 
L 63.36 304.584616 
L 66.528 301.713891 
L 76.032 306.073481 
L 79.2 307.147839 
L 82.368 304.949661 
L 85.536 303.830061 
L 88.704 306.108805 
L 91.872 305.84289 
L 95.04 306.293529 
L 98.208 304.577335 
L 101.376 304.649414 
L 104.544 306.484987 
L 107.712 307.27887 
L 114.048 307.483446 
L 117.216 309.039404 
L 120.384 306.676927 
L 123.552 307.567548 
L 126.72 309.999768 
L 129.888 305.549112 
L 133.056 304.944861 
L 136.224 306.588468 
L 139.392 307.75449 
L 142.56 307.46298 
L 145.728 303.931904 
L 148.896 303.230871 
L 152.064 303.600284 
L 155.232 305.294241 
L 158.4 307.728179 
L 161.568 306.001973 
L 164.736 300.936942 
L 167.904 303.123877 
L 171.072 302.469077 
L 174.24 303.166715 
L 177.408 304.38075 
L 180.576 303.61795 
L 183.744 303.353463 
L 186.912 305.056848 
L 193.248 305.323594 
L 196.416 306.388181 
L 199.584 305.551827 
L 202.752 305.953789 
L 205.92 306.786146 
L 209.088 309.426544 
L 212.256 309.09219 
L 215.424 307.526023 
L 218.592 306.649108 
L 221.76 304.392261 
L 224.928 303.44057 
L 228.096 302.084578 
L 231.264 302.61921 
L 234.432 301.76225 
L 237.6 302.224559 
L 240.768 300.214575 
L 243.936 303.507058 
L 250.272 306.34255 
L 253.44 306.114597 
L 256.608 305.508245 
L 259.776 307.713625 
L 262.944 306.32313 
L 266.112 304.506615 
L 269.28 301.054022 
L 272.448 305.896255 
L 275.616 306.786562 
L 278.784 308.621134 
L 281.952 309.153127 
L 285.12 306.686401 
L 288.288 306.092851 
L 291.456 305.255115 
L 294.624 304.802547 
L 297.792 302.002363 
L 300.96 304.84584 
L 304.128 305.421699 
L 307.296 306.6217 
L 310.464 307.412435 
L 313.632 307.666696 
L 316.8 306.821384 
L 319.968 305.741651 
L 323.136 303.873907 
L 326.304 306.201984 
L 329.472 305.929111 
L 332.64 305.960627 
L 335.808 307.671098 
L 338.976 307.119911 
L 342.144 306.320469 
L 345.312 306.434881 
L 348.48 308.503115 
L 351.648 314.074357 
L 354.816 316.752457 
L 357.984 313.790424 
L 361.152 313.324092 
L 364.32 314.323731 
L 367.488 312.915859 
L 370.656 310.609286 
L 373.824 313.395012 
L 376.992 313.247201 
L 380.16 307.835416 
L 383.328 308.753291 
L 386.496 307.449834 
L 389.664 307.8956 
L 392.832 307.927632 
L 396 307.235678 
L 399.168 308.384047 
L 402.336 306.94918 
L 405.504 304.9111 
L 408.672 306.653219 
L 411.84 307.04018 
L 421.344 308.883847 
L 424.512 306.994718 
L 427.68 305.239888 
L 430.848 302.342893 
L 434.016 303.250085 
L 437.184 305.876851 
L 440.352 306.779702 
L 443.52 305.394079 
L 446.688 306.015045 
L 449.856 304.517497 
L 453.024 304.859561 
L 456.192 303.760667 
L 459.36 305.597574 
L 462.528 307.152905 
L 465.696 306.906511 
L 468.864 307.42743 
L 475.2 305.110783 
L 478.368 304.4751 
L 481.536 302.845637 
L 484.704 301.840102 
L 487.872 301.991409 
L 491.04 304.095429 
L 494.208 303.439565 
L 497.376 305.216124 
L 500.544 304.565532 
L 503.712 305.82458 
L 506.88 307.59029 
L 510.048 305.205481 
L 513.216 307.615915 
L 516.384 304.737406 
L 519.552 307.160904 
L 522.72 308.23205 
L 525.888 311.046852 
L 529.056 310.173468 
L 532.224 310.604515 
L 535.392 310.291785 
L 538.56 310.177977 
L 541.728 308.349551 
L 544.896 306.985847 
L 548.064 304.936904 
L 551.232 304.587243 
L 554.4 309.838921 
L 557.568 309.97349 
L 560.736 309.070359 
L 563.904 308.937778 
L 567.072 307.580479 
L 570.24 308.137905 
L 573.408 309.262313 
L 576.576 308.625543 
L 579.744 309.230586 
L 582.912 309.084818 
L 586.08 307.54448 
L 589.248 305.094167 
L 592.416 306.769937 
L 595.584 306.910978 
L 598.752 304.515131 
L 601.92 302.832661 
L 605.088 304.627374 
L 608.256 305.878816 
L 611.424 307.66949 
L 614.592 306.433881 
L 617.76 307.780156 
L 620.928 307.476247 
L 624.096 303.698722 
L 627.264 305.637141 
L 630.432 305.516543 
L 633.6 303.883019 
L 636.768 306.483202 
L 639.936 306.665892 
L 643.104 303.396051 
L 646.272 303.888332 
L 649.44 303.23368 
L 652.608 303.83068 
L 655.776 305.047971 
L 658.944 305.544975 
L 662.112 306.842177 
L 665.28 306.297807 
L 668.448 306.204833 
L 671.616 306.840117 
L 674.784 302.588578 
L 677.952 302.839219 
L 681.12 303.528507 
L 684.288 307.376098 
L 687.456 303.358096 
L 690.624 299.100546 
L 693.792 303.015364 
L 696.96 304.444293 
L 700.128 306.629487 
L 703.296 307.047192 
L 706.464 306.83312 
L 709.632 306.430026 
L 712.8 304.084518 
L 715.968 304.678357 
L 719.136 305.049633 
L 722.304 307.476979 
L 725.472 306.34812 
L 728.64 305.742776 
L 731.808 305.660827 
L 734.976 304.988566 
L 738.144 305.773541 
L 744.48 306.670813 
L 747.648 306.693674 
L 750.816 307.053335 
L 753.984 305.302721 
L 757.152 304.794617 
L 760.32 305.464709 
L 763.488 308.525419 
L 766.656 307.358469 
L 769.824 307.704243 
L 772.992 306.674579 
L 776.16 304.881816 
L 779.328 306.002373 
L 782.496 304.910618 
L 785.664 306.609122 
L 788.832 305.384644 
L 788.832 305.384644 
" clip-path="url(#pc4491a03fc)" style="fill: none; stroke: #000000; stroke-width: 1.5; stroke-linecap: square"/>
   </g>
   <g id="line2d_4">
    <path d="M 0 306 
L 3.168 306 
L 6.336 301.499112 
L 9.504 303.392119 
L 12.672 304.410276 
L 15.84 303.576388 
L 19.008 305.099861 
L 22.176 304.353419 
L 25.344 304.611403 
L 31.68 303.678914 
L 34.848 304.655666 
L 38.016 305.252323 
L 41.184 307.327228 
L 44.352 308.11917 
L 47.52 307.847418 
L 50.688 307.022537 
L 53.856 306.814682 
L 57.024 304.027912 
L 63.36 305.002123 
L 66.528 303.336521 
L 69.696 303.901157 
L 79.2 306.0829 
L 82.368 305.048097 
L 85.536 304.423276 
L 88.704 305.573444 
L 91.872 305.521114 
L 95.04 305.821549 
L 98.208 304.964192 
L 101.376 304.940562 
L 104.544 305.891214 
L 107.712 306.41217 
L 114.048 306.784109 
L 117.216 307.73653 
L 120.384 306.658623 
L 123.552 307.149465 
L 126.72 308.539579 
L 129.888 306.358804 
L 133.056 305.900464 
L 139.392 307.264477 
L 142.56 307.176801 
L 145.728 305.301403 
L 148.896 304.698884 
L 152.064 304.667134 
L 155.232 305.420776 
L 158.4 306.734685 
L 161.568 305.955553 
L 164.736 303.211438 
L 167.904 304.048803 
L 171.072 303.5423 
L 174.24 303.75133 
L 177.408 304.321898 
L 180.576 303.907631 
L 183.744 303.720249 
L 186.912 304.593034 
L 193.248 304.884679 
L 196.416 305.525354 
L 199.584 305.208987 
L 202.752 305.481683 
L 205.92 306.008005 
L 209.088 307.56896 
L 212.256 307.679321 
L 215.424 307.041476 
L 218.592 306.639529 
L 221.76 305.415029 
L 224.928 304.73229 
L 228.096 303.784814 
L 231.264 303.809029 
L 234.432 303.153699 
L 237.6 303.182618 
L 240.768 301.935086 
L 243.936 303.449256 
L 250.272 305.117006 
L 253.44 305.189678 
L 256.608 305.00709 
L 259.776 306.286201 
L 262.944 305.761962 
L 266.112 304.873788 
L 269.28 302.937325 
L 272.448 305.266924 
L 275.616 305.848363 
L 278.784 306.988925 
L 281.952 307.53897 
L 285.12 306.453917 
L 288.288 306.164855 
L 291.456 305.691984 
L 294.624 305.380259 
L 297.792 303.766793 
L 300.96 305.03463 
L 304.128 305.316568 
L 307.296 305.982197 
L 310.464 306.511775 
L 313.632 306.789905 
L 316.8 306.468001 
L 319.968 305.930347 
L 323.136 304.897309 
L 326.304 306.003969 
L 329.472 305.896075 
L 332.64 305.922513 
L 335.808 306.858373 
L 338.976 306.689071 
L 342.144 306.328218 
L 345.312 306.384335 
L 348.48 307.507764 
L 351.648 310.694349 
L 354.816 312.688603 
L 357.984 311.728991 
L 361.152 311.801319 
L 364.32 312.590049 
L 367.488 312.103894 
L 370.656 310.986541 
L 373.824 312.428556 
L 376.992 312.503842 
L 380.16 309.677695 
L 383.328 309.880437 
L 386.496 308.999987 
L 389.664 308.996197 
L 392.832 308.839231 
L 396 308.320177 
L 399.168 308.782737 
L 402.336 307.949723 
L 405.504 306.693643 
L 408.672 307.354593 
L 411.84 307.454982 
L 418.176 308.099368 
L 421.344 308.428913 
L 427.68 306.456908 
L 430.848 304.682957 
L 434.016 304.806524 
L 437.184 305.981174 
L 440.352 306.456998 
L 443.52 305.757901 
L 446.688 306.036628 
L 449.856 305.218291 
L 453.024 305.277702 
L 456.192 304.599826 
L 462.528 306.329844 
L 465.696 306.32225 
L 468.864 306.698518 
L 478.368 305.133379 
L 481.536 304.143798 
L 484.704 303.38756 
L 487.872 303.228443 
L 491.04 304.174592 
L 494.208 303.802026 
L 497.376 304.710615 
L 500.544 304.431256 
L 503.712 305.137856 
L 506.88 306.206917 
L 510.048 305.131049 
L 513.216 306.454091 
L 516.384 305.07351 
L 519.552 306.335676 
L 522.72 307.044585 
L 525.888 308.762683 
L 529.056 308.652804 
L 532.224 309.13115 
L 538.56 309.298986 
L 544.896 307.689518 
L 548.064 306.4658 
L 551.232 306.033879 
L 554.4 308.658524 
L 557.568 308.926121 
L 560.736 308.595571 
L 563.904 308.600669 
L 567.072 307.911697 
L 570.24 308.164485 
L 573.408 308.775724 
L 576.576 308.516803 
L 579.744 308.865965 
L 582.912 308.852716 
L 586.08 308.059195 
L 589.248 306.650944 
L 592.416 307.310294 
L 595.584 307.302078 
L 598.752 305.932487 
L 601.92 304.793459 
L 605.088 305.464929 
L 608.256 306.010534 
L 611.424 306.966901 
L 614.592 306.404494 
L 617.76 307.144519 
L 620.928 307.07838 
L 624.096 305.090396 
L 627.264 305.915318 
L 630.432 305.807194 
L 633.6 304.871805 
L 636.768 306.123425 
L 639.936 306.273259 
L 643.104 304.563746 
L 646.272 304.647597 
L 649.44 304.17036 
L 652.608 304.342548 
L 655.776 304.913967 
L 658.944 305.204393 
L 662.112 305.966427 
L 665.28 305.806829 
L 668.448 305.838638 
L 671.616 306.240285 
L 674.784 304.015366 
L 677.952 303.926493 
L 681.12 304.124555 
L 684.288 306.114319 
L 687.456 304.137962 
L 690.624 301.705678 
L 693.792 303.408496 
L 696.96 304.120818 
L 700.128 305.361111 
L 703.296 305.793847 
L 706.464 305.876334 
L 709.632 305.808252 
L 712.8 304.63182 
L 719.136 305.036612 
L 722.304 306.358262 
L 725.472 305.921595 
L 728.64 305.656362 
L 731.808 305.625561 
L 734.976 305.276364 
L 738.144 305.645133 
L 750.816 306.555457 
L 753.984 305.685458 
L 757.152 305.347511 
L 760.32 305.622743 
L 763.488 307.253058 
L 766.656 306.822284 
L 769.824 307.095392 
L 772.992 306.63602 
L 776.16 305.675316 
L 779.328 306.158274 
L 782.496 305.540579 
L 785.664 306.354778 
L 788.832 305.738752 
L 788.832 305.738752 
" clip-path="url(#pc4491a03fc)" style="fill: none; stroke: #000000; stroke-width: 1.5; stroke-linecap: square"/>
   </g>
   <g id="line2d_5">
    <path d="M 0 306 
L 3.168 306 
L 6.336 301.677779 
L 9.504 303.361936 
L 12.672 304.277162 
L 15.84 303.591532 
L 19.008 304.855683 
L 22.176 304.29856 
L 25.344 304.509531 
L 31.68 303.821804 
L 34.848 304.50847 
L 38.016 304.948652 
L 41.184 306.419233 
L 44.352 307.062425 
L 47.52 307.002594 
L 50.688 306.558205 
L 53.856 306.47492 
L 57.024 304.751299 
L 63.36 305.230439 
L 66.528 304.198101 
L 69.696 304.452441 
L 79.2 305.673557 
L 82.368 305.11498 
L 85.536 304.751482 
L 88.704 305.374615 
L 91.872 305.363063 
L 95.04 305.545603 
L 98.208 305.09246 
L 101.376 305.068008 
L 104.544 305.581151 
L 107.712 305.891224 
L 114.048 306.187764 
L 117.216 306.753318 
L 120.384 306.257039 
L 123.552 306.553961 
L 126.72 307.350089 
L 129.888 306.283056 
L 133.056 306.043374 
L 139.392 306.776245 
L 142.56 306.774301 
L 145.728 305.816962 
L 148.896 305.455334 
L 152.064 305.374231 
L 155.232 305.712354 
L 158.4 306.3746 
L 161.568 305.995074 
L 164.736 304.550491 
L 167.904 304.875036 
L 171.072 304.54106 
L 174.24 304.568601 
L 177.408 304.800856 
L 183.744 304.393049 
L 186.912 304.792297 
L 193.248 304.921077 
L 196.416 305.253315 
L 199.584 305.10925 
L 202.752 305.259683 
L 205.92 305.554255 
L 209.088 306.409902 
L 212.256 306.564074 
L 218.592 306.177829 
L 221.76 305.574535 
L 224.928 305.20772 
L 228.096 304.677348 
L 231.264 304.613468 
L 234.432 304.205415 
L 237.6 304.133737 
L 240.768 303.404835 
L 243.936 304.069447 
L 250.272 304.865273 
L 253.44 304.924565 
L 256.608 304.852495 
L 259.776 305.540221 
L 262.944 305.327073 
L 266.112 304.893708 
L 269.28 303.886313 
L 272.448 305.02087 
L 275.616 305.34344 
L 278.784 305.979688 
L 281.952 306.347794 
L 285.12 305.881634 
L 288.288 305.780953 
L 294.624 305.412301 
L 297.792 304.568461 
L 300.96 305.164296 
L 304.128 305.30129 
L 310.464 305.955168 
L 313.632 306.146679 
L 316.8 306.030812 
L 319.968 305.783969 
L 323.136 305.25657 
L 326.304 305.801255 
L 332.64 305.7846 
L 335.808 306.28301 
L 338.976 306.240118 
L 342.144 306.084202 
L 345.312 306.135251 
L 348.48 306.746148 
L 351.648 308.474447 
L 354.816 309.6996 
L 357.984 309.445264 
L 361.152 309.672385 
L 364.32 310.260997 
L 367.488 310.204357 
L 370.656 309.773976 
L 373.824 310.63237 
L 376.992 310.822054 
L 380.16 309.4891 
L 383.328 309.613334 
L 386.496 309.175569 
L 392.832 309.061506 
L 396 308.771688 
L 399.168 308.971073 
L 402.336 308.523573 
L 405.504 307.8207 
L 408.672 308.072161 
L 415.008 308.155432 
L 421.344 308.467185 
L 427.68 307.398675 
L 430.848 306.397241 
L 434.016 306.320122 
L 437.184 306.811176 
L 440.352 306.991288 
L 443.52 306.585189 
L 446.688 306.660383 
L 449.856 306.183395 
L 453.024 306.140048 
L 456.192 305.720587 
L 462.528 306.479642 
L 465.696 306.467714 
L 468.864 306.654967 
L 478.368 305.788908 
L 484.704 304.729342 
L 487.872 304.536144 
L 491.04 304.922583 
L 494.208 304.667707 
L 497.376 305.070425 
L 500.544 304.9 
L 503.712 305.22705 
L 506.88 305.775131 
L 510.048 305.250181 
L 513.216 305.930018 
L 516.384 305.253635 
L 519.552 305.898807 
L 522.72 306.307162 
L 525.888 307.265634 
L 529.056 307.329063 
L 532.224 307.685234 
L 538.56 308.005225 
L 544.896 307.337787 
L 548.064 306.728891 
L 551.232 306.477683 
L 554.4 307.80291 
L 557.568 308.006341 
L 560.736 307.911347 
L 563.904 307.970374 
L 567.072 307.6599 
L 570.24 307.812403 
L 573.408 308.159923 
L 576.576 308.070237 
L 579.744 308.286205 
L 582.912 308.328743 
L 586.08 307.954539 
L 589.248 307.227989 
L 592.416 307.524112 
L 595.584 307.500084 
L 601.92 306.104105 
L 608.256 306.562513 
L 611.424 307.01189 
L 614.592 306.716548 
L 617.76 307.072985 
L 620.928 307.045384 
L 624.096 306.011306 
L 627.264 306.370168 
L 630.432 306.278291 
L 633.6 305.756535 
L 636.768 306.337326 
L 639.936 306.39698 
L 643.104 305.493316 
L 646.272 305.460431 
L 649.44 305.14158 
L 652.608 305.151706 
L 655.776 305.388096 
L 658.944 305.50324 
L 662.112 305.874918 
L 668.448 305.81514 
L 671.616 306.026871 
L 674.784 304.88677 
L 677.952 304.769608 
L 681.12 304.805475 
L 684.288 305.790126 
L 687.456 304.787502 
L 690.624 303.46368 
L 693.792 304.206628 
L 696.96 304.513726 
L 700.128 305.124611 
L 703.296 305.368608 
L 709.632 305.446156 
L 712.8 304.866589 
L 719.136 305.051102 
L 722.304 305.737302 
L 728.64 305.445367 
L 731.808 305.445901 
L 734.976 305.274872 
L 744.48 305.791637 
L 750.816 306.046377 
L 753.984 305.635286 
L 757.152 305.45845 
L 760.32 305.591661 
L 763.488 306.445709 
L 766.656 306.286811 
L 769.824 306.474281 
L 772.992 306.285831 
L 776.16 305.807354 
L 779.328 306.047139 
L 782.496 305.732357 
L 785.664 306.143722 
L 788.832 305.836598 
L 788.832 305.836598 
" clip-path="url(#pc4491a03fc)" style="fill: none; stroke: #000000; stroke-width: 1.5; stroke-linecap: square"/>
   </g>
   <g id="line2d_6">
    <path d="M 0 306 
L 3.168 306 
L 6.336 301.767407 
L 9.504 303.352012 
L 12.672 304.215318 
L 15.84 303.596514 
L 19.008 304.739306 
L 22.176 304.263426 
L 25.344 304.452486 
L 31.68 303.876229 
L 34.848 304.438713 
L 38.016 304.804566 
L 41.184 305.997702 
L 44.352 306.544715 
L 47.52 306.544126 
L 50.688 306.242489 
L 53.856 306.205256 
L 57.024 304.942193 
L 63.36 305.26847 
L 66.528 304.526097 
L 72.864 304.934706 
L 79.2 305.507813 
L 82.368 305.140365 
L 85.536 304.89547 
L 88.704 305.299733 
L 91.872 305.29659 
L 95.04 305.419133 
L 98.208 305.134479 
L 101.376 305.11649 
L 104.544 305.43867 
L 110.88 305.745467 
L 114.048 305.85445 
L 117.216 306.219205 
L 120.384 305.944871 
L 123.552 306.140779 
L 126.72 306.64064 
L 129.888 306.039502 
L 133.056 305.909542 
L 139.392 306.361662 
L 142.56 306.381022 
L 145.728 305.844628 
L 148.896 305.634435 
L 152.064 305.579149 
L 155.232 305.762678 
L 158.4 306.137339 
L 161.568 305.933485 
L 164.736 305.120899 
L 167.904 305.276485 
L 171.072 305.070599 
L 174.24 305.061232 
L 177.408 305.167452 
L 183.744 304.903419 
L 186.912 305.09974 
L 193.248 305.144175 
L 196.416 305.315309 
L 199.584 305.234101 
L 205.92 305.46739 
L 209.088 305.931771 
L 212.256 306.036207 
L 218.592 305.869273 
L 221.76 305.561123 
L 234.432 304.789053 
L 237.6 304.726173 
L 240.768 304.315525 
L 243.936 304.628476 
L 253.44 305.03288 
L 256.608 304.990491 
L 259.776 305.342209 
L 262.944 305.239531 
L 266.112 305.017279 
L 269.28 304.484357 
L 272.448 305.050432 
L 275.616 305.217737 
L 278.784 305.554913 
L 281.952 305.765296 
L 285.12 305.547268 
L 294.624 305.336999 
L 297.792 304.903763 
L 300.96 305.196831 
L 304.128 305.266184 
L 313.632 305.729195 
L 319.968 305.576316 
L 323.136 305.312794 
L 326.304 305.591518 
L 332.64 305.599386 
L 335.808 305.863135 
L 345.312 305.835321 
L 348.48 306.159879 
L 351.648 307.070741 
L 354.816 307.758417 
L 357.984 307.710886 
L 361.152 307.902054 
L 364.32 308.27794 
L 367.488 308.32998 
L 370.656 308.189255 
L 373.824 308.694853 
L 376.992 308.873612 
L 380.16 308.274009 
L 383.328 308.388067 
L 386.496 308.215235 
L 392.832 308.236026 
L 396 308.122475 
L 399.168 308.252032 
L 402.336 308.053094 
L 405.504 307.713799 
L 408.672 307.847251 
L 415.008 307.911463 
L 421.344 308.09431 
L 427.68 307.567358 
L 430.848 307.047531 
L 434.016 306.980826 
L 437.184 307.203326 
L 440.352 307.277785 
L 443.52 307.056108 
L 446.688 307.073642 
L 449.856 306.811873 
L 453.024 306.763622 
L 456.192 306.523342 
L 462.528 306.855475 
L 472.032 306.760442 
L 481.536 306.100794 
L 484.704 305.816501 
L 487.872 305.671894 
L 491.04 305.82173 
L 494.208 305.652014 
L 497.376 305.815755 
L 500.544 305.695083 
L 503.712 305.830312 
L 506.88 306.085043 
L 510.048 305.803511 
L 513.216 306.127368 
L 516.384 305.7736 
L 525.888 306.77043 
L 529.056 306.824176 
L 535.392 307.132996 
L 538.56 307.250273 
L 544.896 306.963213 
L 548.064 306.668042 
L 551.232 306.545286 
L 554.4 307.2237 
L 557.568 307.355282 
L 570.24 307.355286 
L 573.408 307.55163 
L 576.576 307.534789 
L 582.912 307.714956 
L 586.08 307.551351 
L 589.248 307.197568 
L 592.416 307.35009 
L 595.584 307.345597 
L 601.92 306.63055 
L 611.424 307.043709 
L 614.592 306.890194 
L 617.76 307.065062 
L 620.928 307.052354 
L 624.096 306.524754 
L 627.264 306.686892 
L 630.432 306.626513 
L 633.6 306.344641 
L 636.768 306.61665 
L 639.936 306.637356 
L 643.104 306.166478 
L 646.272 306.122249 
L 649.44 305.930658 
L 652.608 305.901151 
L 662.112 306.190895 
L 668.448 306.132761 
L 671.616 306.228876 
L 674.784 305.639667 
L 681.12 305.529829 
L 684.288 305.999765 
L 687.456 305.476881 
L 690.624 304.771664 
L 693.792 305.096493 
L 696.96 305.215419 
L 700.128 305.498688 
L 706.464 305.638129 
L 709.632 305.630435 
L 712.8 305.324897 
L 719.136 305.382117 
L 722.304 305.719983 
L 728.64 305.572803 
L 741.312 305.629744 
L 750.816 305.861696 
L 753.984 305.657918 
L 757.152 305.565794 
L 760.32 305.627153 
L 763.488 306.061956 
L 766.656 305.996466 
L 769.824 306.102474 
L 772.992 306.021972 
L 776.16 305.789893 
L 779.328 305.910975 
L 782.496 305.755582 
L 785.664 305.967051 
L 788.832 305.816473 
L 788.832 305.816473 
" clip-path="url(#pc4491a03fc)" style="fill: none; stroke: #000000; stroke-width: 1.5; stroke-linecap: square"/>
   </g>
   <g id="line2d_7">
    <path d="M 0 306 
L 3.168 306 
L 6.336 301.812258 
L 9.504 303.348362 
L 12.672 304.185746 
L 15.84 303.598516 
L 19.008 304.682939 
L 22.176 304.24433 
L 25.344 304.422806 
L 31.68 303.898621 
L 34.848 304.404661 
L 38.016 304.735339 
L 41.184 305.799446 
L 44.352 306.296303 
L 47.52 306.314978 
L 50.688 306.071491 
L 53.856 306.051546 
L 57.024 304.991118 
L 63.36 305.259365 
L 66.528 304.646614 
L 72.864 304.968206 
L 79.2 305.427679 
L 85.536 304.947477 
L 88.704 305.260753 
L 95.04 305.356017 
L 98.208 305.141405 
L 101.376 305.12747 
L 107.712 305.523742 
L 114.048 305.691719 
L 117.216 305.965111 
L 120.384 305.775288 
L 123.552 305.923216 
L 126.72 306.290119 
L 129.888 305.874051 
L 133.056 305.787856 
L 139.392 306.116234 
L 142.56 306.138156 
L 145.728 305.775212 
L 152.064 305.595152 
L 155.232 305.719478 
L 158.4 305.974348 
L 161.568 305.842405 
L 164.736 305.301448 
L 167.904 305.399366 
L 171.072 305.259182 
L 193.248 305.269334 
L 196.416 305.374779 
L 202.752 305.367056 
L 205.92 305.464383 
L 209.088 305.755361 
L 212.256 305.825447 
L 221.76 305.546133 
L 240.768 304.763016 
L 247.104 305.027886 
L 250.272 305.151811 
L 256.608 305.13419 
L 259.776 305.33834 
L 266.112 305.146426 
L 269.28 304.831062 
L 272.448 305.152784 
L 278.784 305.442596 
L 281.952 305.56721 
L 288.288 305.426575 
L 294.624 305.33105 
L 297.792 305.08365 
L 300.96 305.246272 
L 307.296 305.387351 
L 313.632 305.550855 
L 319.968 305.472948 
L 323.136 305.327628 
L 326.304 305.483275 
L 332.64 305.49263 
L 335.808 305.641894 
L 345.312 305.641071 
L 348.48 305.824834 
L 351.648 306.334673 
L 354.816 306.730264 
L 357.984 306.72828 
L 367.488 307.142465 
L 370.656 307.093335 
L 373.824 307.394178 
L 376.992 307.521556 
L 380.16 307.227266 
L 383.328 307.313297 
L 389.664 307.284016 
L 402.336 307.263724 
L 405.504 307.09956 
L 415.008 307.248224 
L 421.344 307.375858 
L 427.68 307.124626 
L 430.848 306.858242 
L 434.016 306.8267 
L 440.352 306.993003 
L 443.52 306.88222 
L 446.688 306.896261 
L 453.024 306.738148 
L 456.192 306.611829 
L 468.864 306.815213 
L 478.368 306.558797 
L 487.872 306.148398 
L 491.04 306.215583 
L 494.208 306.11889 
L 497.376 306.193783 
L 500.544 306.122746 
L 506.88 306.307639 
L 510.048 306.156928 
L 513.216 306.31748 
L 516.384 306.129934 
L 529.056 306.663089 
L 538.56 306.898468 
L 551.232 306.553751 
L 554.4 306.902569 
L 560.736 306.974568 
L 582.912 307.227451 
L 592.416 307.063664 
L 595.584 307.067455 
L 601.92 306.709547 
L 620.928 306.930372 
L 624.096 306.663418 
L 627.264 306.742525 
L 630.432 306.710036 
L 633.6 306.563768 
L 636.768 306.697528 
L 639.936 306.705744 
L 643.104 306.463969 
L 658.944 306.35205 
L 665.28 306.399208 
L 671.616 306.43336 
L 674.784 306.128194 
L 681.12 306.051709 
L 684.288 306.279856 
L 690.624 305.638395 
L 696.96 305.829976 
L 703.296 306.005409 
L 709.632 306.000381 
L 712.8 305.837713 
L 719.136 305.845756 
L 722.304 306.00702 
L 734.976 305.854862 
L 750.816 306.020007 
L 757.152 305.86372 
L 760.32 305.889844 
L 763.488 306.104358 
L 782.496 305.942319 
L 785.664 306.044337 
L 788.832 305.966939 
L 788.832 305.966939 
" clip-path="url(#pc4491a03fc)" style="fill: none; stroke: #000000; stroke-width: 1.5; stroke-linecap: square"/>
   </g>
   <g id="line2d_8">
    <path d="M 0 306 
L 3.168 306 
L 6.336 301.834688 
L 9.504 303.346867 
L 12.672 304.171318 
L 15.84 303.599417 
L 19.008 304.655259 
L 22.176 304.234457 
L 25.344 304.407734 
L 31.68 303.908577 
L 34.848 304.387832 
L 38.016 304.701529 
L 41.184 305.703915 
L 44.352 306.175636 
L 47.52 306.201673 
L 50.688 305.984013 
L 53.856 305.971251 
L 57.024 305.004384 
L 63.36 305.247401 
L 66.528 304.694628 
L 72.864 304.978773 
L 79.2 305.387078 
L 85.536 304.966298 
L 88.704 305.239299 
L 98.208 305.13967 
L 101.376 305.127776 
L 107.712 305.466956 
L 114.048 305.613071 
L 117.216 305.845133 
L 120.384 305.690307 
L 123.552 305.816074 
L 126.72 306.123399 
L 129.888 305.785083 
L 133.056 305.71688 
L 139.392 305.989905 
L 142.56 306.011222 
L 145.728 305.721389 
L 152.064 305.578693 
L 161.568 305.779954 
L 164.736 305.35473 
L 167.904 305.430366 
L 174.24 305.309078 
L 177.408 305.357309 
L 183.744 305.213922 
L 190.08 305.310258 
L 202.752 305.389102 
L 205.92 305.461759 
L 209.088 305.679663 
L 215.424 305.691217 
L 218.592 305.667805 
L 228.096 305.312547 
L 237.6 305.140604 
L 240.768 304.953553 
L 250.272 305.22481 
L 266.112 305.21684 
L 269.28 304.9939 
L 272.448 305.216461 
L 285.12 305.421156 
L 294.624 305.342651 
L 297.792 305.173151 
L 304.128 305.308024 
L 316.8 305.476934 
L 326.304 305.445311 
L 332.64 305.452689 
L 338.976 305.555813 
L 345.312 305.555599 
L 348.48 305.677366 
L 354.816 306.275888 
L 361.152 306.371258 
L 364.32 306.527593 
L 373.824 306.750709 
L 376.992 306.84196 
L 380.16 306.663747 
L 386.496 306.691787 
L 399.168 306.790602 
L 408.672 306.708625 
L 427.68 306.713363 
L 430.848 306.554497 
L 437.184 306.617719 
L 443.52 306.586952 
L 449.856 306.521991 
L 465.696 306.542442 
L 472.032 306.527538 
L 494.208 306.164307 
L 506.88 306.274517 
L 510.048 306.185937 
L 513.216 306.280232 
L 516.384 306.170301 
L 532.224 306.551487 
L 541.728 306.597146 
L 551.232 306.442133 
L 554.4 306.645252 
L 563.904 306.718182 
L 570.24 306.722773 
L 579.744 306.841443 
L 586.08 306.827603 
L 589.248 306.733045 
L 595.584 306.789002 
L 601.92 306.591839 
L 620.928 306.728771 
L 624.096 306.581144 
L 630.432 306.609762 
L 633.6 306.529023 
L 639.936 306.610037 
L 643.104 306.476167 
L 668.448 306.430673 
L 671.616 306.453871 
L 674.784 306.284941 
L 681.12 306.238687 
L 684.288 306.362204 
L 690.624 306.005782 
L 700.128 306.171465 
L 709.632 306.186511 
L 715.968 306.095533 
L 760.32 306.088029 
L 763.488 306.201491 
L 788.832 306.116423 
L 788.832 306.116423 
" clip-path="url(#pc4491a03fc)" style="fill: none; stroke: #000000; stroke-width: 1.5; stroke-linecap: square"/>
   </g>
   <g id="line2d_9">
    <path d="M 0 306 
L 3.168 306 
L 6.336 301.845904 
L 9.504 303.346202 
L 12.672 304.164195 
L 15.84 303.599846 
L 19.008 304.641551 
L 22.176 304.229447 
L 25.344 304.400149 
L 31.68 303.913244 
L 34.848 304.379466 
L 38.016 304.684835 
L 41.184 305.6571 
L 44.352 306.116294 
L 47.52 306.145491 
L 50.688 305.939954 
L 53.856 305.930425 
L 57.024 305.008335 
L 63.36 305.239583 
L 66.528 304.715496 
L 72.864 304.982332 
L 79.2 305.366506 
L 85.536 304.973688 
L 88.704 305.227889 
L 104.544 305.316829 
L 117.216 305.787284 
L 120.384 305.648156 
L 123.552 305.763454 
L 126.72 306.043063 
L 129.888 305.739782 
L 133.056 305.679553 
L 142.56 305.947489 
L 145.728 305.690472 
L 152.064 305.56469 
L 161.568 305.744952 
L 164.736 305.371667 
L 167.904 305.43768 
L 174.24 305.330909 
L 177.408 305.372495 
L 183.744 305.247101 
L 190.08 305.329425 
L 205.92 305.458042 
L 209.088 305.643772 
L 215.424 305.655072 
L 221.76 305.521458 
L 240.768 305.03487 
L 250.272 305.257115 
L 266.112 305.249111 
L 269.28 305.066328 
L 272.448 305.246897 
L 288.288 305.402711 
L 304.128 305.321189 
L 316.8 305.456089 
L 329.472 305.429574 
L 345.312 305.519457 
L 348.48 305.614589 
L 354.816 306.081153 
L 361.152 306.159334 
L 367.488 306.319458 
L 370.656 306.304637 
L 376.992 306.534828 
L 380.16 306.4023 
L 389.664 306.457795 
L 402.336 306.484215 
L 405.504 306.415056 
L 421.344 306.582767 
L 437.184 306.417967 
L 446.688 306.410688 
L 456.192 306.296529 
L 468.864 306.400844 
L 503.712 306.143414 
L 506.88 306.196229 
L 510.048 306.133975 
L 513.216 306.201393 
L 516.384 306.124205 
L 538.56 306.456363 
L 551.232 306.32971 
L 557.568 306.505698 
L 630.432 306.485744 
L 636.768 306.483816 
L 646.272 306.389517 
L 655.776 306.355608 
L 674.784 306.278333 
L 681.12 306.247889 
L 684.288 306.328969 
L 693.792 306.14443 
L 725.472 306.184675 
L 747.648 306.179354 
L 772.992 306.204427 
L 782.496 306.153001 
L 788.832 306.158833 
L 788.832 306.158833 
" clip-path="url(#pc4491a03fc)" style="fill: none; stroke: #000000; stroke-width: 1.5; stroke-linecap: square"/>
   </g>
  </g>
 </g>
 <defs>
  <clipPath id="pc4491a03fc">
   <rect x="0" y="0" width="792" height="612"/>
  </clipPath>
 </defs>
</svg>
