<?xml version="1.0" encoding="utf-8" standalone="no"?>
<!DOCTYPE svg PUBLIC "-//W3C//DTD SVG 1.1//EN"
  "http://www.w3.org/Graphics/SVG/1.1/DTD/svg11.dtd">
<svg xmlns:xlink="http://www.w3.org/1999/xlink" width="792pt" height="612pt" viewBox="0 0 792 612" xmlns="http://www.w3.org/2000/svg" version="1.1">
 <metadata>
  <rdf:RDF xmlns:dc="http://purl.org/dc/elements/1.1/" xmlns:cc="http://creativecommons.org/ns#" xmlns:rdf="http://www.w3.org/1999/02/22-rdf-syntax-ns#">
   <cc:Work>
    <dc:type rdf:resource="http://purl.org/dc/dcmitype/StillImage"/>
    <dc:date>2022-12-19T20:27:47.291445</dc:date>
    <dc:format>image/svg+xml</dc:format>
    <dc:creator>
     <cc:Agent>
      <dc:title>Matplotlib v3.6.2, https://matplotlib.org/</dc:title>
     </cc:Agent>
    </dc:creator>
   </cc:Work>
  </rdf:RDF>
 </metadata>
 <defs>
  <style type="text/css">*{stroke-linejoin: round; stroke-linecap: butt}</style>
 </defs>
 <g id="figure_1">
  <g id="patch_1">
   <path d="M 0 612 
L 792 612 
L 792 0 
L 0 0 
z
" style="fill: #ffffff"/>
  </g>
  <g id="axes_1">
   <g id="line2d_1">
    <path d="M 0 459 
L 12.375 468.192617 
L 24.75 470.595916 
L 37.125 471.076576 
L 49.5 472.548596 
L 61.875 471.587277 
L 74.25 473.539957 
L 86.625 476.874534 
L 99 477.5054 
L 111.375 480.118987 
L 123.75 481.65109 
L 136.125 480.44944 
L 148.5 476.664245 
L 160.875 479.337915 
L 173.25 480.028863 
L 185.625 475.973297 
L 198 471.947771 
L 210.375 473.630081 
L 222.75 475.252307 
L 235.125 478.586884 
L 247.5 477.174946 
L 259.875 479.968781 
L 272.25 480.389358 
L 284.625 474.050658 
L 297 476.453956 
L 309.375 476.033379 
L 321.75 472.668761 
L 334.125 476.423915 
L 346.5 477.02474 
L 358.875 471.196741 
L 371.25 470.68604 
L 383.625 468.2527 
L 396 467.832123 
L 408.375 468.943648 
L 420.75 469.364225 
L 433.125 471.587277 
L 445.5 471.016493 
L 457.875 471.016493 
L 470.25 472.338307 
L 482.625 464.707834 
L 495 463.295896 
L 507.375 462.845278 
L 519.75 468.763401 
L 532.125 461.914 
L 544.5 439.095154 
L 556.875 449.808612 
L 569.25 452.96206 
L 581.625 460.261732 
L 594 461.403299 
L 606.375 461.583546 
L 618.75 461.283134 
L 631.125 453.232387 
L 643.5 453.412607 
L 655.875 453.322497 
L 668.25 461.19301 
L 680.625 459.841155 
L 693 458.639505 
L 705.375 457.738271 
L 717.75 453.412607 
L 730.125 456.11608 
L 742.5 457.918518 
L 754.875 459.690948 
L 767.25 460.111526 
L 779.625 461.19301 
" clip-path="url(#p389ea20c03)" style="fill: none; stroke: #000000; stroke-width: 1.5; stroke-linecap: square"/>
   </g>
   <g id="line2d_2">
    <path d="M 0 459 
L 12.375 459 
L 24.75 465.128412 
L 37.125 468.2527 
L 49.5 469.758767 
L 61.875 471.198679 
L 74.25 471.396062 
L 86.625 472.47645 
L 99 474.684115 
L 111.375 476.131043 
L 123.75 478.1484 
L 136.125 479.921422 
L 148.5 480.203809 
L 160.875 478.442097 
L 173.25 478.905203 
L 185.625 479.479757 
L 198 477.724759 
L 210.375 474.825368 
L 222.75 474.215001 
L 235.125 474.721107 
L 247.5 476.650344 
L 259.875 476.913646 
L 272.25 478.44245 
L 284.625 479.416611 
L 297 476.729865 
L 309.375 476.600746 
L 321.75 476.321775 
L 334.125 474.490202 
L 346.5 475.452818 
L 358.875 476.238484 
L 371.25 473.700412 
L 383.625 472.1742 
L 396 470.202081 
L 408.375 469.000196 
L 420.75 468.958021 
L 433.125 469.154644 
L 445.5 470.361477 
L 457.875 470.677204 
L 470.25 470.846495 
L 482.625 471.595641 
L 495 468.144787 
L 507.375 465.711447 
L 519.75 464.266405 
L 532.125 466.513725 
L 544.5 464.194895 
L 556.875 456.723953 
L 569.25 453.177261 
L 581.625 452.979375 
L 594 457.855962 
L 606.375 460.007265 
L 618.75 460.792931 
L 631.125 461.023365 
L 643.5 459.04088 
L 655.875 456.295613 
L 668.25 454.815902 
L 680.625 459.407383 
L 693 459.623444 
L 705.375 459.246692 
L 717.75 458.7215 
L 730.125 456.04257 
L 742.5 456.084979 
L 754.875 457.010576 
L 767.25 459.018967 
L 779.625 459.563126 
" clip-path="url(#p389ea20c03)" style="fill: none; stroke: #000000; stroke-width: 1.5; stroke-linecap: square"/>
   </g>
   <g id="line2d_3">
    <path d="M 0 459 
L 12.375 459 
L 24.75 464.384911 
L 37.125 467.199004 
L 49.5 468.71329 
L 61.875 470.077847 
L 74.25 470.583106 
L 86.625 471.533118 
L 99 473.20188 
L 111.375 474.520633 
L 123.75 476.213247 
L 136.125 477.841944 
L 148.5 478.617784 
L 160.875 478.039214 
L 173.25 478.422589 
L 185.625 478.89567 
L 198 478.03637 
L 210.375 476.267932 
L 222.75 475.501569 
L 235.125 475.43391 
L 247.5 476.366021 
L 259.875 476.608264 
L 272.25 477.602163 
L 284.625 478.426381 
L 297 477.141518 
L 309.375 476.938928 
L 321.75 476.669006 
L 334.125 475.487044 
L 346.5 475.756824 
L 358.875 476.128602 
L 371.25 474.674742 
L 383.625 473.495747 
L 396 471.951226 
L 408.375 470.740041 
L 420.75 470.208507 
L 433.125 469.95446 
L 445.5 470.424661 
L 457.875 470.590931 
L 470.25 470.705293 
L 482.625 471.174344 
L 495 469.269616 
L 507.375 467.504841 
L 519.75 466.124939 
L 532.125 466.893241 
L 544.5 465.418189 
L 556.875 461.565465 
L 569.25 459.899044 
L 581.625 459.030461 
L 594 459.381913 
L 606.375 459.966579 
L 618.75 460.431724 
L 631.125 460.671814 
L 643.5 459.602357 
L 655.875 458.593378 
L 668.25 457.001572 
L 680.625 459.158479 
L 693 459.35284 
L 705.375 459.209228 
L 717.75 459.019863 
L 730.125 457.365491 
L 742.5 456.98619 
L 754.875 457.280896 
L 767.25 458.404466 
L 779.625 459.188778 
" clip-path="url(#p389ea20c03)" style="fill: none; stroke: #000000; stroke-width: 1.5; stroke-linecap: square"/>
   </g>
   <g id="line2d_4">
    <path d="M 0 459 
L 12.375 459 
L 24.75 463.993555 
L 37.125 466.584745 
L 49.5 468.014078 
L 61.875 469.258933 
L 74.25 469.831986 
L 86.625 470.671537 
L 99 471.987429 
L 111.375 473.099047 
L 123.75 474.455784 
L 136.125 475.800472 
L 148.5 476.645806 
L 160.875 476.649085 
L 173.25 477.118366 
L 185.625 477.618618 
L 198 477.33939 
L 210.375 476.433979 
L 222.75 475.967242 
L 235.125 475.849103 
L 247.5 476.298745 
L 259.875 476.441914 
L 272.25 477.015731 
L 284.625 477.562649 
L 297 476.99501 
L 309.375 476.90778 
L 321.75 476.767105 
L 334.125 476.108929 
L 346.5 476.159439 
L 358.875 476.298022 
L 371.25 475.481881 
L 383.625 474.715285 
L 396 473.683032 
L 408.375 472.757642 
L 420.75 472.15129 
L 433.125 471.70709 
L 445.5 471.688346 
L 457.875 471.580496 
L 470.25 471.490405 
L 482.625 471.624559 
L 495 470.516492 
L 507.375 469.358804 
L 519.75 468.311701 
L 532.125 468.375527 
L 544.5 467.33591 
L 556.875 464.938166 
L 569.25 463.491255 
L 581.625 462.442066 
L 594 462.085364 
L 606.375 461.970266 
L 618.75 461.901221 
L 631.125 461.794165 
L 643.5 461.030284 
L 655.875 460.398417 
L 668.25 459.860541 
L 680.625 460.060564 
L 693 460.01679 
L 705.375 459.824931 
L 717.75 459.615876 
L 730.125 459.211858 
L 742.5 459.01373 
L 754.875 458.828155 
L 767.25 459.054586 
L 779.625 459.216151 
" clip-path="url(#p389ea20c03)" style="fill: none; stroke: #000000; stroke-width: 1.5; stroke-linecap: square"/>
   </g>
   <g id="line2d_5">
    <path d="M 0 459 
L 12.375 459 
L 24.75 463.795304 
L 37.125 466.26117 
L 49.5 467.625692 
L 61.875 468.787819 
L 74.25 469.360946 
L 86.625 470.12366 
L 99 471.24425 
L 111.375 472.203903 
L 123.75 473.3374 
L 136.125 474.460364 
L 148.5 475.22929 
L 160.875 475.405521 
L 173.25 475.869978 
L 185.625 476.344522 
L 198 476.303442 
L 210.375 475.834413 
L 222.75 475.602765 
L 235.125 475.566732 
L 247.5 475.871218 
L 259.875 476.000356 
L 272.25 476.387228 
L 284.625 476.771813 
L 297 476.513705 
L 309.375 476.508104 
L 321.75 476.464076 
L 334.125 476.115479 
L 346.5 476.14356 
L 358.875 476.223145 
L 371.25 475.772478 
L 383.625 475.319447 
L 396 474.693835 
L 408.375 474.089717 
L 420.75 473.638922 
L 433.125 473.266175 
L 445.5 473.12039 
L 457.875 472.9384 
L 470.25 472.772733 
L 482.625 472.735405 
L 495 472.047657 
L 507.375 471.299868 
L 519.75 470.579234 
L 532.125 470.424806 
L 544.5 469.702482 
L 556.875 468.233432 
L 569.25 467.193454 
L 581.625 466.331696 
L 594 465.819917 
L 606.375 465.448027 
L 618.75 465.12302 
L 631.125 464.800438 
L 643.5 464.152293 
L 655.875 463.56413 
L 668.25 463.023222 
L 680.625 462.870017 
L 693 462.616654 
L 705.375 462.304275 
L 717.75 461.993083 
L 730.125 461.587642 
L 742.5 461.291457 
L 754.875 461.070235 
L 767.25 460.955225 
L 779.625 460.884902 
" clip-path="url(#p389ea20c03)" style="fill: none; stroke: #000000; stroke-width: 1.5; stroke-linecap: square"/>
   </g>
   <g id="line2d_6">
    <path d="M 0 459 
L 12.375 459 
L 24.75 463.695853 
L 37.125 466.096203 
L 49.5 467.423335 
L 61.875 468.539067 
L 74.25 469.103668 
L 86.625 469.82268 
L 99 470.843446 
L 111.375 471.718235 
L 123.75 472.731273 
L 136.125 473.728899 
L 148.5 474.431739 
L 160.875 474.651548 
L 173.25 475.088465 
L 185.625 475.526785 
L 198 475.564646 
L 210.375 475.270432 
L 222.75 475.142001 
L 235.125 475.150338 
L 247.5 475.401736 
L 259.875 475.527583 
L 272.25 475.834025 
L 284.625 476.140197 
L 297 476.003156 
L 309.375 476.032051 
L 321.75 476.032135 
L 334.125 475.825334 
L 346.5 475.861449 
L 358.875 475.930399 
L 371.25 475.654486 
L 383.625 475.369418 
L 396 474.967117 
L 408.375 474.569404 
L 420.75 474.259947 
L 433.125 473.994001 
L 445.5 473.864803 
L 457.875 473.713607 
L 470.25 473.57195 
L 482.625 473.507806 
L 495 473.0546 
L 507.375 472.556553 
L 519.75 472.065171 
L 532.125 471.899464 
L 544.5 471.402193 
L 556.875 470.460914 
L 569.25 469.747904 
L 581.625 469.125671 
L 594 468.696183 
L 606.375 468.344945 
L 618.75 468.021172 
L 631.125 467.700278 
L 643.5 467.197 
L 655.875 466.722775 
L 668.25 466.271629 
L 680.625 466.034417 
L 693 465.746385 
L 705.375 465.428346 
L 717.75 465.112363 
L 730.125 464.745802 
L 742.5 464.43861 
L 754.875 464.173907 
L 767.25 463.969942 
L 779.625 463.794936 
" clip-path="url(#p389ea20c03)" style="fill: none; stroke: #000000; stroke-width: 1.5; stroke-linecap: square"/>
   </g>
   <g id="line2d_7">
    <path d="M 0 459 
L 12.375 459 
L 24.75 463.646087 
L 37.125 466.013053 
L 49.5 467.320356 
L 61.875 468.411787 
L 74.25 468.970103 
L 86.625 469.666118 
L 99 470.636941 
L 111.375 471.467875 
L 123.75 472.419715 
L 136.125 473.352736 
L 148.5 474.017093 
L 160.875 474.248221 
L 173.25 474.665145 
L 185.625 475.079454 
L 198 475.144847 
L 210.375 474.922455 
L 222.75 474.836685 
L 235.125 474.863082 
L 247.5 475.090038 
L 259.875 475.212277 
L 272.25 475.481151 
L 284.625 475.749191 
L 297 475.659412 
L 309.375 475.70013 
L 321.75 475.716713 
L 334.125 475.569219 
L 346.5 475.609493 
L 358.875 475.67451 
L 371.25 475.473721 
L 383.625 475.263947 
L 396 474.963474 
L 408.375 474.664265 
L 420.75 474.429075 
L 433.125 474.224864 
L 445.5 474.120491 
L 457.875 473.999849 
L 470.25 473.885884 
L 482.625 473.827742 
L 495 473.490549 
L 507.375 473.119389 
L 519.75 472.750856 
L 532.125 472.609862 
L 544.5 472.23686 
L 556.875 471.552911 
L 569.25 471.0224 
L 581.625 470.551534 
L 594 470.210455 
L 606.375 469.921904 
L 618.75 469.651774 
L 631.125 469.383604 
L 643.5 468.993398 
L 655.875 468.621295 
L 668.25 468.26349 
L 680.625 468.045868 
L 693 467.795675 
L 705.375 467.52624 
L 717.75 467.258225 
L 730.125 466.957606 
L 742.5 466.694861 
L 754.875 466.459446 
L 767.25 466.263169 
L 779.625 466.086121 
" clip-path="url(#p389ea20c03)" style="fill: none; stroke: #000000; stroke-width: 1.5; stroke-linecap: square"/>
   </g>
   <g id="line2d_8">
    <path d="M 0 459 
L 12.375 459 
L 24.75 463.621198 
L 37.125 465.971329 
L 49.5 467.268449 
L 61.875 468.347476 
L 74.25 468.902168 
L 86.625 469.586429 
L 99 470.532347 
L 111.375 471.341117 
L 123.75 472.262298 
L 136.125 473.162791 
L 148.5 473.806831 
L 160.875 474.041197 
L 173.25 474.446742 
L 185.625 474.847754 
L 198 474.923958 
L 210.375 474.733312 
L 222.75 474.666217 
L 235.125 474.700162 
L 247.5 474.915139 
L 259.875 475.0348 
L 272.25 475.285491 
L 284.625 475.53483 
L 297 475.464984 
L 309.375 475.509896 
L 321.75 475.532873 
L 334.125 475.41119 
L 346.5 475.452893 
L 358.875 475.515711 
L 371.25 475.348003 
L 383.625 475.171916 
L 396 474.917442 
L 408.375 474.663464 
L 420.75 474.463449 
L 433.125 474.289348 
L 445.5 474.199198 
L 457.875 474.09536 
L 470.25 473.997057 
L 482.625 473.945193 
L 495 473.662172 
L 507.375 473.350749 
L 519.75 473.041111 
L 532.125 472.917345 
L 544.5 472.604665 
L 556.875 472.039376 
L 569.25 471.597281 
L 581.625 471.202769 
L 594 470.91205 
L 606.375 470.663318 
L 618.75 470.429406 
L 631.125 470.197261 
L 643.5 469.869055 
L 655.875 469.555036 
L 668.25 469.252227 
L 680.625 469.058795 
L 693 468.840449 
L 705.375 468.607511 
L 717.75 468.375917 
L 730.125 468.119529 
L 742.5 467.892286 
L 754.875 467.686137 
L 767.25 467.510032 
L 779.625 467.348884 
" clip-path="url(#p389ea20c03)" style="fill: none; stroke: #000000; stroke-width: 1.5; stroke-linecap: square"/>
   </g>
   <g id="line2d_9">
    <path d="M 0 459 
L 12.375 459 
L 24.75 463.608754 
L 37.125 465.950431 
L 49.5 467.242396 
L 61.875 468.315161 
L 74.25 468.867923 
L 86.625 469.546248 
L 99 470.479739 
L 111.375 471.277384 
L 123.75 472.183245 
L 136.125 473.067451 
L 148.5 473.701104 
L 160.875 473.936517 
L 173.25 474.336058 
L 185.625 474.730133 
L 198 474.811026 
L 210.375 474.635204 
L 222.75 474.576757 
L 235.125 474.614071 
L 247.5 474.823096 
L 259.875 474.941258 
L 272.25 475.183009 
L 284.625 475.423111 
L 297 475.362293 
L 309.375 475.408856 
L 321.75 475.434537 
L 334.125 475.324728 
L 346.5 475.366921 
L 358.875 475.428527 
L 371.25 475.276112 
L 383.625 475.115704 
L 396 474.882748 
L 408.375 474.650065 
L 420.75 474.466801 
L 433.125 474.307194 
L 445.5 474.224262 
L 457.875 474.128849 
L 470.25 474.038474 
L 482.625 473.990245 
L 495 473.732843 
L 507.375 473.449746 
L 519.75 473.168222 
L 532.125 473.053705 
L 544.5 472.769941 
L 556.875 472.260285 
L 569.25 471.860455 
L 581.625 471.502995 
L 594 471.237767 
L 606.375 471.009877 
L 618.75 470.795259 
L 631.125 470.582385 
L 643.5 470.285198 
L 655.875 470.000599 
L 668.25 469.725972 
L 680.625 469.547063 
L 693 469.34668 
L 705.375 469.133832 
L 717.75 468.922362 
L 730.125 468.689643 
L 742.5 468.482291 
L 754.875 468.293331 
L 767.25 468.130432 
L 779.625 467.98061 
" clip-path="url(#p389ea20c03)" style="fill: none; stroke: #000000; stroke-width: 1.5; stroke-linecap: square"/>
   </g>
  </g>
 </g>
 <defs>
  <clipPath id="p389ea20c03">
   <rect x="0" y="0" width="792" height="612"/>
  </clipPath>
 </defs>
</svg>
