<?xml version="1.0" encoding="utf-8" standalone="no"?>
<!DOCTYPE svg PUBLIC "-//W3C//DTD SVG 1.1//EN"
  "http://www.w3.org/Graphics/SVG/1.1/DTD/svg11.dtd">
<svg xmlns:xlink="http://www.w3.org/1999/xlink" width="792pt" height="612pt" viewBox="0 0 792 612" xmlns="http://www.w3.org/2000/svg" version="1.1">
 <metadata>
  <rdf:RDF xmlns:dc="http://purl.org/dc/elements/1.1/" xmlns:cc="http://creativecommons.org/ns#" xmlns:rdf="http://www.w3.org/1999/02/22-rdf-syntax-ns#">
   <cc:Work>
    <dc:type rdf:resource="http://purl.org/dc/dcmitype/StillImage"/>
    <dc:date>2023-01-09T02:28:27.192015</dc:date>
    <dc:format>image/svg+xml</dc:format>
    <dc:creator>
     <cc:Agent>
      <dc:title>Matplotlib v3.6.2, https://matplotlib.org/</dc:title>
     </cc:Agent>
    </dc:creator>
   </cc:Work>
  </rdf:RDF>
 </metadata>
 <defs>
  <style type="text/css">*{stroke-linejoin: round; stroke-linecap: butt}</style>
 </defs>
 <g id="figure_1">
  <g id="patch_1">
   <path d="M 0 612 
L 792 612 
L 792 0 
L 0 0 
z
" style="fill: #ffffff"/>
  </g>
  <g id="axes_1">
   <g id="line2d_1">
    <path d="M 0 306 
L 12.983607 312.340002 
L 25.967213 306.954542 
L 38.95082 291.624227 
L 51.934426 311.453968 
L 64.918033 305.045458 
L 77.901639 298.365221 
L 90.885246 314.520524 
L 103.868852 307.363627 
L 116.852459 292.78096 
L 129.836066 304.840915 
L 142.819672 300.477872 
L 155.803279 305.045458 
L 168.786885 308.52267 
L 181.770492 306.954542 
L 194.754098 311.044997 
L 207.737705 304.704553 
L 220.721311 306 
L 233.704918 308.999904 
L 246.688525 288.700285 
L 259.672131 302.795572 
L 272.655738 304.977277 
L 285.639344 319.423198 
L 298.622951 290.467905 
L 311.606557 284.354394 
L 324.590164 314.111735 
L 337.57377 308.386315 
L 350.557377 313.430357 
L 363.540984 308.590847 
L 376.52459 306.409091 
L 389.508197 305.318183 
L 402.491803 296.45764 
L 415.47541 306.136364 
L 428.459016 305.931818 
L 441.442623 315.26989 
L 454.42623 302.931921 
L 467.409836 303.818219 
L 480.393443 305.318183 
L 493.377049 302.727398 
L 506.360656 308.045424 
L 519.344262 307.363627 
L 532.327869 308.386315 
L 545.311475 306.954542 
L 558.295082 308.454493 
L 571.278689 299.796305 
L 584.262295 302.931921 
L 597.245902 307.363627 
L 610.229508 318.470362 
L 623.213115 304.159113 
L 636.196721 309.204428 
L 649.180328 303.750041 
L 662.163934 299.114799 
L 675.147541 309.40895 
L 688.131148 301.295825 
L 701.114754 311.931075 
L 714.098361 301.500324 
L 727.081967 307.772707 
L 740.065574 301.568492 
L 753.04918 297.206967 
L 766.032787 302.045675 
L 779.016393 291.624227 
" clip-path="url(#p3ab30695ff)" style="fill: none; stroke: #000000; stroke-width: 1.5; stroke-linecap: square"/>
   </g>
   <g id="line2d_2">
    <path d="M 0 306 
L 12.983607 306 
L 25.967213 310.227004 
L 38.95082 308.357096 
L 51.934426 299.428283 
L 64.918033 305.634898 
L 77.901639 305.335499 
L 90.885246 301.822378 
L 103.868852 308.197288 
L 116.852459 307.783135 
L 129.836066 300.240253 
L 142.819672 302.536244 
L 155.803279 301.524383 
L 168.786885 303.272265 
L 181.770492 305.904278 
L 194.754098 306.446256 
L 207.737705 308.738964 
L 220.721311 306.716576 
L 233.704918 306.384224 
L 246.688525 307.70025 
L 259.672131 298.169624 
L 272.655738 300.477872 
L 285.639344 302.720446 
L 298.622951 311.100062 
L 311.606557 300.737685 
L 324.590164 292.496476 
L 337.57377 303.316646 
L 350.557377 305.850267 
L 363.540984 309.689393 
L 376.52459 309.151493 
L 389.508197 307.783135 
L 402.491803 306.522994 
L 415.47541 301.500859 
L 428.459016 303.861265 
L 441.442623 304.880486 
L 454.42623 310.089863 
L 467.409836 306.490374 
L 480.393443 305.144922 
L 493.377049 305.229413 
L 506.360656 303.973292 
L 519.344262 306.032086 
L 532.327869 306.700266 
L 545.311475 307.548115 
L 558.295082 307.23502 
L 571.278689 307.855592 
L 584.262295 303.817684 
L 597.245902 303.370118 
L 610.229508 305.375937 
L 623.213115 311.94631 
L 636.196721 308.046761 
L 649.180328 308.627208 
L 662.163934 306.182353 
L 675.147541 302.629815 
L 688.131148 306.038235 
L 701.114754 303.663682 
L 714.098361 307.806663 
L 727.081967 304.620063 
L 740.065574 306.203476 
L 753.04918 303.87089 
L 766.032787 300.525451 
L 779.016393 301.291281 
" clip-path="url(#p3ab30695ff)" style="fill: none; stroke: #000000; stroke-width: 1.5; stroke-linecap: square"/>
   </g>
   <g id="line2d_3">
    <path d="M 0 306 
L 12.983607 306 
L 25.967213 309.714236 
L 38.95082 308.463917 
L 51.934426 301.883754 
L 64.918033 305.288771 
L 77.901639 305.207325 
L 90.885246 303.008599 
L 103.868852 306.60577 
L 116.852459 306.838006 
L 129.836066 302.585633 
L 142.819672 303.261088 
L 155.803279 302.432896 
L 168.786885 303.206609 
L 181.770492 304.775876 
L 194.754098 305.417534 
L 207.737705 307.072373 
L 220.721311 306.377368 
L 233.704918 306.259556 
L 246.688525 307.064559 
L 259.672131 301.677302 
L 272.655738 301.994881 
L 285.639344 302.868272 
L 298.622951 307.743725 
L 311.606557 302.652344 
L 324.590164 297.258207 
L 337.57377 302.21807 
L 350.557377 304.028685 
L 363.540984 306.797657 
L 376.52459 307.326954 
L 389.508197 307.055692 
L 402.491803 306.54491 
L 415.47541 303.572803 
L 428.459016 304.325278 
L 441.442623 304.795739 
L 454.42623 307.871555 
L 467.409836 306.441123 
L 480.393443 305.674056 
L 493.377049 305.570215 
L 506.360656 304.718357 
L 519.344262 305.713041 
L 532.327869 306.222959 
L 545.311475 306.850025 
L 558.295082 306.878993 
L 571.278689 307.334738 
L 584.262295 305.116439 
L 597.245902 304.472595 
L 610.229508 305.321703 
L 623.213115 309.200058 
L 636.196721 307.721386 
L 649.180328 308.15953 
L 662.163934 306.854796 
L 675.147541 304.583089 
L 688.131148 306.003007 
L 701.114754 304.619586 
L 714.098361 306.771853 
L 727.081967 305.220248 
L 740.065574 305.96832 
L 753.04918 304.671727 
L 766.032787 302.473591 
L 779.016393 302.340895 
" clip-path="url(#p3ab30695ff)" style="fill: none; stroke: #000000; stroke-width: 1.5; stroke-linecap: square"/>
   </g>
   <g id="line2d_4">
    <path d="M 0 306 
L 12.983607 306 
L 25.967213 309.444323 
L 38.95082 308.467209 
L 51.934426 303.104404 
L 64.918033 305.396696 
L 77.901639 305.310249 
L 90.885246 303.73745 
L 103.868852 306.025386 
L 116.852459 306.294982 
L 129.836066 303.681593 
L 142.819672 303.898248 
L 155.803279 303.276248 
L 168.786885 303.590788 
L 181.770492 304.451532 
L 194.754098 304.88174 
L 207.737705 305.927783 
L 220.721311 305.722366 
L 233.704918 305.768581 
L 246.688525 306.302555 
L 259.672131 303.408658 
L 272.655738 303.30848 
L 285.639344 303.579983 
L 298.622951 306.149775 
L 311.606557 303.613019 
L 324.590164 300.50282 
L 337.57377 302.692175 
L 350.557377 303.606578 
L 363.540984 305.182079 
L 376.52459 305.728021 
L 389.508197 305.836983 
L 402.491803 305.754055 
L 415.47541 304.268686 
L 428.459016 304.56592 
L 441.442623 304.779238 
L 454.42623 306.453974 
L 467.409836 305.900649 
L 480.393443 305.564556 
L 493.377049 305.525528 
L 506.360656 305.08304 
L 519.344262 305.550328 
L 532.327869 305.838831 
L 545.311475 306.253895 
L 558.295082 306.366689 
L 571.278689 306.703851 
L 584.262295 305.601426 
L 597.245902 305.173195 
L 610.229508 305.521956 
L 623.213115 307.587816 
L 636.196721 307.041961 
L 649.180328 307.388029 
L 662.163934 306.805936 
L 675.147541 305.588574 
L 688.131148 306.200559 
L 701.114754 305.417842 
L 714.098361 306.449559 
L 727.081967 305.668958 
L 740.065574 306.01831 
L 753.04918 305.302452 
L 766.032787 304.007096 
L 779.016393 303.687908 
" clip-path="url(#p3ab30695ff)" style="fill: none; stroke: #000000; stroke-width: 1.5; stroke-linecap: square"/>
   </g>
   <g id="line2d_5">
    <path d="M 0 306 
L 12.983607 306 
L 25.967213 309.307589 
L 38.95082 308.454418 
L 51.934426 303.682396 
L 64.918033 305.517099 
L 77.901639 305.420541 
L 90.885246 304.132604 
L 103.868852 305.857261 
L 116.852459 306.088145 
L 129.836066 304.181303 
L 142.819672 304.270399 
L 155.803279 303.78343 
L 168.786885 303.93842 
L 181.770492 304.47986 
L 194.754098 304.762226 
L 207.737705 305.457531 
L 220.721311 305.376448 
L 233.704918 305.441976 
L 246.688525 305.807799 
L 259.672131 304.081212 
L 272.655738 303.953862 
L 285.639344 304.05363 
L 298.622951 305.531374 
L 311.606557 304.101323 
L 324.590164 302.246996 
L 337.57377 303.347458 
L 350.557377 303.810254 
L 363.540984 304.686205 
L 376.52459 305.038859 
L 389.508197 305.161713 
L 402.491803 305.17565 
L 415.47541 304.403592 
L 428.459016 304.556146 
L 441.442623 304.676653 
L 454.42623 305.600606 
L 467.409836 305.368867 
L 480.393443 305.234731 
L 493.377049 305.241924 
L 506.360656 305.025857 
L 519.344262 305.284554 
L 532.327869 305.4622 
L 545.311475 305.711443 
L 558.295082 305.817163 
L 571.278689 306.041001 
L 584.262295 305.511925 
L 597.245902 305.293734 
L 610.229508 305.468504 
L 623.213115 306.565316 
L 636.196721 306.362707 
L 649.180328 306.601707 
L 662.163934 306.362141 
L 675.147541 305.753824 
L 688.131148 306.060301 
L 701.114754 305.66113 
L 714.098361 306.186044 
L 727.081967 305.794059 
L 740.065574 305.959465 
L 753.04918 305.592596 
L 766.032787 304.892207 
L 779.016393 304.65463 
" clip-path="url(#p3ab30695ff)" style="fill: none; stroke: #000000; stroke-width: 1.5; stroke-linecap: square"/>
   </g>
   <g id="line2d_6">
    <path d="M 0 306 
L 12.983607 306 
L 25.967213 309.238998 
L 38.95082 308.444324 
L 51.934426 303.959478 
L 64.918033 305.591077 
L 77.901639 305.490015 
L 90.885246 304.335022 
L 103.868852 305.809694 
L 116.852459 306.013744 
L 129.836066 304.417036 
L 142.819672 304.464444 
L 155.803279 304.047477 
L 168.786885 304.145735 
L 181.770492 304.553799 
L 194.754098 304.766794 
L 207.737705 305.299178 
L 220.721311 305.250808 
L 233.704918 305.309466 
L 246.688525 305.588403 
L 259.672131 304.351629 
L 272.655738 304.24119 
L 285.639344 304.291979 
L 298.622951 305.309539 
L 311.606557 304.3353 
L 324.590164 303.052319 
L 337.57377 303.746223 
L 350.557377 304.031515 
L 363.540984 304.598659 
L 376.52459 304.83528 
L 389.508197 304.927013 
L 402.491803 304.949456 
L 415.47541 304.469257 
L 428.459016 304.562182 
L 441.442623 304.637521 
L 454.42623 305.215241 
L 467.409836 305.092663 
L 480.393443 305.025011 
L 493.377049 305.040409 
L 506.360656 304.920138 
L 519.344262 305.081093 
L 532.327869 305.197585 
L 545.311475 305.358933 
L 558.295082 305.439013 
L 571.278689 305.589184 
L 584.262295 305.302781 
L 597.245902 305.186396 
L 610.229508 305.292561 
L 623.213115 305.931404 
L 636.196721 305.846046 
L 649.180328 306.00687 
L 662.163934 305.899389 
L 675.147541 305.577903 
L 688.131148 305.758512 
L 701.114754 305.549109 
L 714.098361 305.847232 
L 727.081967 305.645054 
L 740.065574 305.743601 
L 753.04918 305.550964 
L 766.032787 305.167328 
L 779.016393 305.024345 
" clip-path="url(#p3ab30695ff)" style="fill: none; stroke: #000000; stroke-width: 1.5; stroke-linecap: square"/>
   </g>
   <g id="line2d_7">
    <path d="M 0 306 
L 12.983607 306 
L 25.967213 309.204673 
L 38.95082 308.438352 
L 51.934426 304.094602 
L 64.918033 305.631021 
L 77.901639 305.528066 
L 90.885246 304.436896 
L 103.868852 305.795236 
L 116.852459 305.984978 
L 129.836066 304.531309 
L 142.819672 304.562601 
L 155.803279 304.180165 
L 168.786885 304.255715 
L 181.770492 304.60524 
L 194.754098 304.786705 
L 207.737705 305.244588 
L 220.721311 305.207022 
L 233.704918 305.259649 
L 246.688525 305.497207 
L 259.672131 304.472364 
L 272.655738 304.374049 
L 285.639344 304.408148 
L 298.622951 305.228589 
L 311.606557 304.447692 
L 324.590164 303.416181 
L 337.57377 303.948484 
L 350.557377 304.163231 
L 363.540984 304.599962 
L 376.52459 304.783304 
L 389.508197 304.856206 
L 402.491803 304.876447 
L 415.47541 304.515526 
L 428.459016 304.58353 
L 441.442623 304.638961 
L 454.42623 305.0677 
L 467.409836 304.983181 
L 480.393443 304.937902 
L 493.377049 304.952429 
L 506.360656 304.868831 
L 519.344262 304.98628 
L 532.327869 305.072832 
L 545.311475 305.191688 
L 558.295082 305.254021 
L 571.278689 305.365634 
L 584.262295 305.173961 
L 597.245902 305.097796 
L 610.229508 305.173812 
L 623.213115 305.614784 
L 636.196721 305.567091 
L 649.180328 305.68493 
L 662.163934 305.622926 
L 675.147541 305.41653 
L 688.131148 305.541837 
L 701.114754 305.409878 
L 714.098361 305.610616 
L 727.081967 305.485268 
L 740.065574 305.554394 
L 753.04918 305.434982 
L 766.032787 305.190513 
L 779.016393 305.097863 
" clip-path="url(#p3ab30695ff)" style="fill: none; stroke: #000000; stroke-width: 1.5; stroke-linecap: square"/>
   </g>
   <g id="line2d_8">
    <path d="M 0 306 
L 12.983607 306 
L 25.967213 309.187508 
L 38.95082 308.435136 
L 51.934426 304.161258 
L 64.918033 305.651664 
L 77.901639 305.547874 
L 90.885246 304.487921 
L 103.868852 305.790321 
L 116.852459 305.972802 
L 129.836066 304.587548 
L 142.819672 304.611849 
L 155.803279 304.246419 
L 168.786885 304.311956 
L 181.770492 304.634348 
L 194.754098 304.801026 
L 207.737705 305.223796 
L 220.721311 305.190534 
L 233.704918 305.239763 
L 246.688525 305.457548 
L 259.672131 304.529685 
L 272.655738 304.437857 
L 285.639344 304.465264 
L 298.622951 305.196415 
L 311.606557 304.50266 
L 324.590164 303.586062 
L 337.57377 304.048122 
L 350.557377 304.232428 
L 363.540984 304.611244 
L 376.52459 304.770285 
L 389.508197 304.83392 
L 402.491803 304.852211 
L 415.47541 304.543369 
L 428.459016 304.60047 
L 441.442623 304.647025 
L 454.42623 305.00981 
L 467.409836 304.940483 
L 480.393443 304.903868 
L 493.377049 304.917096 
L 506.360656 304.848628 
L 519.344262 304.946574 
L 532.327869 305.019187 
L 545.311475 305.11843 
L 558.295082 305.171554 
L 571.278689 305.264845 
L 584.262295 305.112119 
L 597.245902 305.052263 
L 610.229508 305.114676 
L 623.213115 305.469738 
L 636.196721 305.435454 
L 649.180328 305.532553 
L 662.163934 305.487309 
L 675.147541 305.327867 
L 688.131148 305.428528 
L 701.114754 305.327985 
L 714.098361 305.486484 
L 727.081967 305.392053 
L 740.065574 305.447727 
L 753.04918 305.358131 
L 766.032787 305.172121 
L 779.016393 305.10164 
" clip-path="url(#p3ab30695ff)" style="fill: none; stroke: #000000; stroke-width: 1.5; stroke-linecap: square"/>
   </g>
   <g id="line2d_9">
    <path d="M 0 306 
L 12.983607 306 
L 25.967213 309.178924 
L 38.95082 308.433471 
L 51.934426 304.194354 
L 64.918033 305.662144 
L 77.901639 305.557966 
L 90.885246 304.513445 
L 103.868852 305.788436 
L 116.852459 305.967274 
L 129.836066 304.615444 
L 142.819672 304.636501 
L 155.803279 304.279492 
L 168.786885 304.340345 
L 181.770492 304.64971 
L 194.754098 304.809256 
L 207.737705 305.215044 
L 220.721311 305.183696 
L 233.704918 305.231164 
L 246.688525 305.439338 
L 259.672131 304.55767 
L 272.655738 304.469135 
L 285.639344 304.49357 
L 298.622951 305.182468 
L 311.606557 304.529842 
L 324.590164 303.667787 
L 337.57377 304.097314 
L 350.557377 304.267597 
L 363.540984 304.619369 
L 376.52459 304.766951 
L 389.508197 304.826094 
L 402.491803 304.843291 
L 415.47541 304.558551 
L 428.459016 304.610621 
L 441.442623 304.653051 
L 454.42623 304.985227 
L 467.409836 304.922618 
L 480.393443 304.889768 
L 493.377049 304.902208 
L 506.360656 304.840513 
L 519.344262 304.929385 
L 532.327869 304.995412 
L 545.311475 305.085433 
L 558.295082 305.134026 
L 571.278689 305.21861 
L 584.262295 305.083184 
L 597.245902 305.030492 
L 610.229508 305.086566 
L 623.213115 305.402506 
L 636.196721 305.373693 
L 649.180328 305.460914 
L 662.163934 305.422625 
L 675.147541 305.283792 
L 688.131148 305.373089 
L 701.114754 305.286235 
L 714.098361 305.425571 
L 727.081967 305.344526 
L 740.065574 305.393905 
L 753.04918 305.317252 
L 766.032787 305.15705 
L 779.016393 305.096474 
" clip-path="url(#p3ab30695ff)" style="fill: none; stroke: #000000; stroke-width: 1.5; stroke-linecap: square"/>
   </g>
  </g>
 </g>
 <defs>
  <clipPath id="p3ab30695ff">
   <rect x="0" y="0" width="792" height="612"/>
  </clipPath>
 </defs>
</svg>
