<?xml version="1.0" encoding="utf-8" standalone="no"?>
<!DOCTYPE svg PUBLIC "-//W3C//DTD SVG 1.1//EN"
  "http://www.w3.org/Graphics/SVG/1.1/DTD/svg11.dtd">
<svg xmlns:xlink="http://www.w3.org/1999/xlink" width="792pt" height="612pt" viewBox="0 0 792 612" xmlns="http://www.w3.org/2000/svg" version="1.1">
 <metadata>
  <rdf:RDF xmlns:dc="http://purl.org/dc/elements/1.1/" xmlns:cc="http://creativecommons.org/ns#" xmlns:rdf="http://www.w3.org/1999/02/22-rdf-syntax-ns#">
   <cc:Work>
    <dc:type rdf:resource="http://purl.org/dc/dcmitype/StillImage"/>
    <dc:date>2023-01-16T16:10:53.434207</dc:date>
    <dc:format>image/svg+xml</dc:format>
    <dc:creator>
     <cc:Agent>
      <dc:title>Matplotlib v3.6.2, https://matplotlib.org/</dc:title>
     </cc:Agent>
    </dc:creator>
   </cc:Work>
  </rdf:RDF>
 </metadata>
 <defs>
  <style type="text/css">*{stroke-linejoin: round; stroke-linecap: butt}</style>
 </defs>
 <g id="figure_1">
  <g id="patch_1">
   <path d="M 0 612 
L 792 612 
L 792 0 
L 0 0 
z
" style="fill: #ffffff"/>
  </g>
  <g id="axes_1">
   <g id="line2d_1">
    <path d="M 0 459 
L 12.983607 447.643944 
L 25.967213 459.439461 
L 38.95082 460.115555 
L 51.934426 442.679221 
L 64.918033 440.9576 
L 77.901639 432.762394 
L 90.885246 431.347491 
L 103.868852 435.087951 
L 116.852459 436.504118 
L 129.836066 443.996068 
L 142.819672 442.071535 
L 155.803279 442.071535 
L 168.786885 446.529142 
L 181.770492 420.855082 
L 194.754098 416.125792 
L 207.737705 414.618326 
L 220.721311 434.481161 
L 233.704918 411.505993 
L 246.688525 379.883525 
L 259.672131 391.643832 
L 272.655738 395.120764 
L 285.639344 405.99514 
L 298.622951 409.801083 
L 311.606557 410.402662 
L 324.590164 409.400126 
L 337.57377 395.419141 
L 350.557377 395.618089 
L 363.540984 395.518612 
L 376.52459 409.099458 
L 389.508197 404.594781 
L 402.491803 401.397857 
L 415.47541 400.399967 
L 428.459016 395.618089 
L 441.442623 398.605188 
L 454.42623 400.5995 
L 467.409836 404.094901 
L 480.393443 405.494895 
L 493.377049 409.099458 
L 506.360656 400.000968 
L 519.344262 395.518612 
L 532.327869 397.5093 
L 545.311475 415.824223 
L 558.295082 413.111826 
L 571.278689 417.83538 
L 584.262295 414.517862 
L 597.245902 404.394813 
L 610.229508 409.400126 
L 623.213115 402.496176 
L 636.196721 411.205029 
L 649.180328 404.594781 
L 662.163934 407.196244 
L 675.147541 400.699275 
L 688.131148 387.877813 
L 701.114754 382.148713 
L 714.098361 361.526128 
L 727.081967 359.011369 
L 740.065574 347.583874 
L 753.04918 337.054977 
L 766.032787 328.244802 
L 779.016393 326.75536 
" clip-path="url(#pc5956beb5c)" style="fill: none; stroke: #000000; stroke-width: 1.5; stroke-linecap: square"/>
   </g>
   <g id="line2d_2">
    <path d="M 0 459 
L 12.983607 459 
L 25.967213 451.428438 
L 38.95082 456.508136 
L 51.934426 459.207335 
L 64.918033 450.874639 
L 77.901639 445.835882 
L 90.885246 439.243661 
L 103.868852 435.278334 
L 116.852459 435.13634 
L 129.836066 435.79836 
L 142.819672 439.863728 
L 155.803279 440.927818 
L 168.786885 441.498458 
L 181.770492 444.024274 
L 194.754098 432.399306 
L 207.737705 424.221712 
L 220.721311 419.375588 
L 233.704918 426.915688 
L 246.688525 419.135993 
L 259.672131 399.277525 
L 272.655738 395.358291 
L 285.639344 395.139874 
L 298.622951 400.530248 
L 311.606557 405.147743 
L 324.590164 407.765255 
L 337.57377 408.533612 
L 350.557377 401.933034 
L 363.540984 398.803735 
L 376.52459 397.167981 
L 389.508197 403.151565 
L 402.491803 403.870291 
L 415.47541 402.617208 
L 428.459016 401.488674 
L 441.442623 398.5239 
L 454.42623 398.570797 
L 467.409836 399.594629 
L 480.393443 401.860206 
L 493.377049 403.669616 
L 506.360656 406.391502 
L 519.344262 403.190747 
L 532.327869 399.340863 
L 545.311475 398.428548 
L 558.295082 407.141276 
L 571.278689 410.149034 
L 584.262295 414.016002 
L 597.245902 414.284645 
L 610.229508 409.32466 
L 623.213115 409.380866 
L 636.196721 405.94923 
L 649.180328 408.60237 
L 662.163934 406.575583 
L 675.147541 406.874309 
L 688.131148 403.750746 
L 701.114754 395.742932 
L 714.098361 388.886586 
L 727.081967 375.036064 
L 740.065574 366.910151 
L 753.04918 357.07705 
L 766.032787 346.879779 
L 779.016393 337.358131 
" clip-path="url(#pc5956beb5c)" style="fill: none; stroke: #000000; stroke-width: 1.5; stroke-linecap: square"/>
   </g>
   <g id="line2d_3">
    <path d="M 0 459 
L 12.983607 459 
L 25.967213 452.346885 
L 38.95082 455.958415 
L 51.934426 458.453155 
L 64.918033 452.838894 
L 77.901639 448.860098 
L 90.885246 443.68341 
L 103.868852 439.826207 
L 116.852459 438.373753 
L 129.836066 437.80841 
L 142.819672 439.660978 
L 155.803279 440.378115 
L 168.786885 440.879597 
L 181.770492 442.546845 
L 194.754098 436.146149 
L 207.737705 430.246816 
L 220.721311 425.60989 
L 233.704918 428.190854 
L 246.688525 423.237567 
L 259.672131 410.342307 
L 272.655738 404.787469 
L 285.639344 401.898406 
L 298.622951 403.06686 
L 311.606557 405.01229 
L 324.590164 406.561433 
L 337.57377 407.361518 
L 350.557377 403.800134 
L 363.540984 401.346769 
L 376.52459 399.584667 
L 389.508197 402.323935 
L 402.491803 402.970175 
L 415.47541 402.49265 
L 428.459016 401.863182 
L 441.442623 399.987367 
L 454.42623 399.567648 
L 467.409836 399.893749 
L 480.393443 401.137557 
L 493.377049 402.424662 
L 506.360656 404.380841 
L 519.344262 403.085677 
L 532.327869 400.848868 
L 545.311475 399.856435 
L 558.295082 404.543459 
L 571.278689 407.069492 
L 584.262295 410.242987 
L 597.245902 411.50044 
L 610.229508 409.416478 
L 623.213115 409.420899 
L 636.196721 407.392598 
L 649.180328 408.526462 
L 662.163934 407.380997 
L 675.147541 407.334473 
L 688.131148 405.384767 
L 701.114754 400.218025 
L 714.098361 394.872826 
L 727.081967 384.97261 
L 740.065574 377.268078 
L 753.04918 368.430638 
L 766.032787 359.044779 
L 779.016393 349.814716 
" clip-path="url(#pc5956beb5c)" style="fill: none; stroke: #000000; stroke-width: 1.5; stroke-linecap: square"/>
   </g>
   <g id="line2d_4">
    <path d="M 0 459 
L 12.983607 459 
L 25.967213 452.830348 
L 38.95082 455.768961 
L 51.934426 457.861999 
L 64.918033 453.692237 
L 77.901639 450.55647 
L 90.885246 446.523423 
L 103.868852 443.300622 
L 116.852459 441.645166 
L 129.836066 440.65118 
L 142.819672 441.276149 
L 155.803279 441.420768 
L 168.786885 441.536464 
L 181.770492 442.407571 
L 194.754098 438.695275 
L 207.737705 434.855022 
L 220.721311 431.447932 
L 233.704918 431.952683 
L 246.688525 428.564327 
L 259.672131 420.491514 
L 272.655738 415.750617 
L 285.639344 412.379845 
L 298.622951 411.343477 
L 311.606557 411.094107 
L 324.590164 410.982616 
L 337.57377 410.727944 
L 350.557377 408.261158 
L 363.540984 406.227984 
L 376.52459 404.508578 
L 389.508197 405.242343 
L 402.491803 405.138818 
L 415.47541 404.540783 
L 428.459016 403.845112 
L 441.442623 402.501394 
L 454.42623 401.8428 
L 467.409836 401.606809 
L 480.393443 401.978588 
L 493.377049 402.515665 
L 506.360656 403.547013 
L 519.344262 402.962916 
L 532.327869 401.751847 
L 545.311475 401.051998 
L 558.295082 403.377593 
L 571.278689 404.905279 
L 584.262295 406.942246 
L 597.245902 408.125932 
L 610.229508 407.521582 
L 623.213115 407.816163 
L 636.196721 406.961206 
L 649.180328 407.621396 
L 662.163934 407.135231 
L 675.147541 407.162117 
L 688.131148 406.138075 
L 701.114754 403.215307 
L 714.098361 399.830166 
L 727.081967 393.63421 
L 740.065574 388.031185 
L 753.04918 381.46293 
L 766.032787 374.235373 
L 779.016393 366.72886 
" clip-path="url(#pc5956beb5c)" style="fill: none; stroke: #000000; stroke-width: 1.5; stroke-linecap: square"/>
   </g>
   <g id="line2d_5">
    <path d="M 0 459 
L 12.983607 459 
L 25.967213 453.075264 
L 38.95082 455.701427 
L 51.934426 457.584425 
L 64.918033 454.064382 
L 77.901639 451.379703 
L 90.885246 447.978169 
L 103.868852 445.214426 
L 116.852459 443.661211 
L 129.836066 442.635725 
L 142.819672 442.819456 
L 155.803279 442.723427 
L 168.786885 442.643362 
L 181.770492 443.102202 
L 194.754098 440.557959 
L 207.737705 437.846554 
L 220.721311 435.337923 
L 233.704918 435.24788 
L 246.688525 432.798743 
L 259.672131 427.407879 
L 272.655738 423.840761 
L 285.639344 421.024961 
L 298.622951 419.576578 
L 311.606557 418.647657 
L 324.590164 417.873561 
L 337.57377 417.086416 
L 350.557377 415.086897 
L 363.540984 413.306686 
L 376.52459 411.693594 
L 389.508197 411.460877 
L 402.491803 410.848418 
L 415.47541 410.00998 
L 428.459016 409.162022 
L 441.442623 407.971702 
L 454.42623 407.153125 
L 467.409836 406.583161 
L 480.393443 406.367797 
L 493.377049 406.292538 
L 506.360656 406.533567 
L 519.344262 405.973014 
L 532.327869 405.0774 
L 545.311475 404.431106 
L 558.295082 405.397593 
L 571.278689 406.051183 
L 584.262295 407.046938 
L 597.245902 407.677713 
L 610.229508 407.400312 
L 623.213115 407.568848 
L 636.196721 407.141208 
L 649.180328 407.482671 
L 662.163934 407.239903 
L 675.147541 407.236239 
L 688.131148 406.687288 
L 701.114754 405.103764 
L 714.098361 403.170009 
L 727.081967 399.640247 
L 740.065574 396.197792 
L 753.04918 392.064176 
L 766.032787 387.370327 
L 779.016393 382.310378 
" clip-path="url(#pc5956beb5c)" style="fill: none; stroke: #000000; stroke-width: 1.5; stroke-linecap: square"/>
   </g>
   <g id="line2d_6">
    <path d="M 0 459 
L 12.983607 459 
L 25.967213 453.198125 
L 38.95082 455.674932 
L 51.934426 457.452727 
L 64.918033 454.23531 
L 77.901639 451.774697 
L 90.885246 448.68987 
L 103.868852 446.176537 
L 116.852459 444.719348 
L 129.836066 443.728091 
L 142.819672 443.758062 
L 155.803279 443.581663 
L 168.786885 443.432963 
L 181.770492 443.721569 
L 194.754098 441.688068 
L 207.737705 439.514125 
L 220.721311 437.482687 
L 233.704918 437.247612 
L 246.688525 435.29515 
L 259.672131 431.1977 
L 272.655738 428.369674 
L 285.639344 426.06099 
L 298.622951 424.707478 
L 311.606557 423.72727 
L 324.590164 422.871149 
L 337.57377 422.023932 
L 350.557377 420.378987 
L 363.540984 418.877127 
L 376.52459 417.485554 
L 389.508197 416.995926 
L 402.491803 416.282549 
L 415.47541 415.438407 
L 428.459016 414.597348 
L 441.442623 413.548741 
L 454.42623 412.734174 
L 467.409836 412.080941 
L 480.393443 411.656252 
L 493.377049 411.332198 
L 506.360656 411.216049 
L 519.344262 410.636933 
L 532.327869 409.862484 
L 545.311475 409.235535 
L 558.295082 409.565733 
L 571.278689 409.742189 
L 584.262295 410.14158 
L 597.245902 410.3562 
L 610.229508 410.06511 
L 623.213115 410.032884 
L 636.196721 409.669257 
L 649.180328 409.742773 
L 662.163934 409.497309 
L 675.147541 409.388235 
L 688.131148 408.977761 
L 701.114754 407.982238 
L 714.098361 406.766947 
L 727.081967 404.632607 
L 740.065574 402.487785 
L 753.04918 399.904969 
L 766.032787 396.945974 
L 779.016393 393.710041 
" clip-path="url(#pc5956beb5c)" style="fill: none; stroke: #000000; stroke-width: 1.5; stroke-linecap: square"/>
   </g>
   <g id="line2d_7">
    <path d="M 0 459 
L 12.983607 459 
L 25.967213 453.259607 
L 38.95082 455.66354 
L 51.934426 457.388955 
L 64.918033 454.316918 
L 77.901639 451.966857 
L 90.885246 449.038645 
L 103.868852 446.653126 
L 116.852459 445.252864 
L 129.836066 444.289676 
L 142.819672 444.26 
L 155.803279 444.055097 
L 168.786885 443.881885 
L 181.770492 444.0987 
L 194.754098 442.299025 
L 207.737705 440.378423 
L 220.721311 438.580819 
L 233.704918 438.30863 
L 246.688525 436.60016 
L 259.672131 433.105599 
L 272.655738 430.656158 
L 285.639344 428.634192 
L 298.622951 427.392996 
L 311.606557 426.460341 
L 324.590164 425.635156 
L 337.57377 424.824931 
L 350.557377 423.393429 
L 363.540984 422.077081 
L 376.52459 420.8501 
L 389.508197 420.321989 
L 402.491803 419.6307 
L 415.47541 418.846319 
L 428.459016 418.069306 
L 441.442623 417.141607 
L 454.42623 416.391144 
L 467.409836 415.764051 
L 480.393443 415.309357 
L 493.377049 414.933642 
L 506.360656 414.714179 
L 519.344262 414.168351 
L 532.327869 413.486347 
L 545.311475 412.911079 
L 558.295082 413.014023 
L 571.278689 413.017434 
L 584.262295 413.18306 
L 597.245902 413.22839 
L 610.229508 412.931438 
L 623.213115 412.814294 
L 636.196721 412.475431 
L 649.180328 412.434264 
L 662.163934 412.182599 
L 675.147541 412.024314 
L 688.131148 411.667919 
L 701.114754 410.924042 
L 714.098361 410.03142 
L 727.081967 408.529911 
L 740.065574 407.009635 
L 753.04918 405.192651 
L 766.032787 403.117173 
L 779.016393 400.845712 
" clip-path="url(#pc5956beb5c)" style="fill: none; stroke: #000000; stroke-width: 1.5; stroke-linecap: square"/>
   </g>
   <g id="line2d_8">
    <path d="M 0 459 
L 12.983607 459 
L 25.967213 453.290354 
L 38.95082 455.658311 
L 51.934426 457.357624 
L 64.918033 454.356758 
L 77.901639 452.06147 
L 90.885246 449.210887 
L 103.868852 446.889577 
L 116.852459 445.519644 
L 129.836066 444.572912 
L 142.819672 444.517584 
L 155.803279 444.301352 
L 168.786885 444.118434 
L 181.770492 444.302983 
L 194.754098 442.614482 
L 207.737705 440.815627 
L 220.721311 439.132098 
L 233.704918 438.849117 
L 246.688525 437.259642 
L 259.672131 434.051248 
L 272.655738 431.788386 
L 285.639344 429.912848 
L 298.622951 428.739623 
L 311.606557 427.845518 
L 324.590164 427.051035 
L 337.57377 426.273908 
L 350.557377 424.954934 
L 363.540984 423.739626 
L 376.52459 422.605169 
L 389.508197 422.079394 
L 402.491803 421.416694 
L 415.47541 420.677407 
L 428.459016 419.947452 
L 441.442623 419.092116 
L 454.42623 418.389507 
L 467.409836 417.793685 
L 480.393443 417.345442 
L 493.377049 416.966122 
L 506.360656 416.719755 
L 519.344262 416.205594 
L 532.327869 415.581117 
L 545.311475 415.046236 
L 558.295082 415.068742 
L 571.278689 415.01311 
L 584.262295 415.091874 
L 597.245902 415.076114 
L 610.229508 414.787004 
L 623.213115 414.643701 
L 636.196721 414.325066 
L 649.180328 414.244635 
L 662.163934 413.999176 
L 675.147541 413.828738 
L 688.131148 413.503915 
L 701.114754 412.876428 
L 714.098361 412.132849 
L 727.081967 410.91545 
L 740.065574 409.681739 
L 753.04918 408.217253 
L 766.032787 406.551521 
L 779.016393 404.732585 
" clip-path="url(#pc5956beb5c)" style="fill: none; stroke: #000000; stroke-width: 1.5; stroke-linecap: square"/>
   </g>
   <g id="line2d_9">
    <path d="M 0 459 
L 12.983607 459 
L 25.967213 453.305728 
L 38.95082 455.655814 
L 51.934426 457.342101 
L 64.918033 454.376437 
L 77.901639 452.108395 
L 90.885246 449.296426 
L 103.868852 447.007254 
L 116.852459 445.652903 
L 129.836066 444.714958 
L 142.819672 444.647818 
L 155.803279 444.426638 
L 168.786885 444.239502 
L 181.770492 444.408843 
L 194.754098 442.774455 
L 207.737705 441.035119 
L 220.721311 439.407715 
L 233.704918 439.121103 
L 246.688525 437.590126 
L 259.672131 434.520502 
L 272.655738 432.349618 
L 285.639344 430.547344 
L 298.622951 429.410364 
L 311.606557 428.538581 
L 324.590164 427.762664 
L 337.57377 427.005179 
L 350.557377 425.743257 
L 363.540984 424.57982 
L 376.52459 423.493422 
L 389.508197 422.973604 
L 402.491803 422.329009 
L 415.47541 421.615497 
L 428.459016 420.91226 
L 441.442623 420.095445 
L 454.42623 419.420118 
L 467.409836 418.843946 
L 480.393443 418.403881 
L 493.377049 418.028021 
L 506.360656 417.77428 
L 519.344262 417.279485 
L 532.327869 416.686272 
L 545.311475 416.17493 
L 558.295082 416.165811 
L 571.278689 416.087968 
L 584.262295 416.131589 
L 597.245902 416.092052 
L 610.229508 415.810199 
L 623.213115 415.658753 
L 636.196721 415.35284 
L 649.180328 415.25832 
L 662.163934 415.019112 
L 675.147541 414.846669 
L 688.131148 414.539433 
L 701.114754 413.967698 
L 714.098361 413.294925 
L 727.081967 412.209311 
L 740.065574 411.109539 
L 753.04918 409.809474 
L 766.032787 408.334995 
L 779.016393 406.727893 
" clip-path="url(#pc5956beb5c)" style="fill: none; stroke: #000000; stroke-width: 1.5; stroke-linecap: square"/>
   </g>
  </g>
 </g>
 <defs>
  <clipPath id="pc5956beb5c">
   <rect x="0" y="0" width="792" height="612"/>
  </clipPath>
 </defs>
</svg>
