<?xml version="1.0" encoding="utf-8" standalone="no"?>
<!DOCTYPE svg PUBLIC "-//W3C//DTD SVG 1.1//EN"
  "http://www.w3.org/Graphics/SVG/1.1/DTD/svg11.dtd">
<svg xmlns:xlink="http://www.w3.org/1999/xlink" width="792pt" height="612pt" viewBox="0 0 792 612" xmlns="http://www.w3.org/2000/svg" version="1.1">
 <metadata>
  <rdf:RDF xmlns:dc="http://purl.org/dc/elements/1.1/" xmlns:cc="http://creativecommons.org/ns#" xmlns:rdf="http://www.w3.org/1999/02/22-rdf-syntax-ns#">
   <cc:Work>
    <dc:type rdf:resource="http://purl.org/dc/dcmitype/StillImage"/>
    <dc:date>2023-01-09T02:28:26.191655</dc:date>
    <dc:format>image/svg+xml</dc:format>
    <dc:creator>
     <cc:Agent>
      <dc:title>Matplotlib v3.6.2, https://matplotlib.org/</dc:title>
     </cc:Agent>
    </dc:creator>
   </cc:Work>
  </rdf:RDF>
 </metadata>
 <defs>
  <style type="text/css">*{stroke-linejoin: round; stroke-linecap: butt}</style>
 </defs>
 <g id="figure_1">
  <g id="patch_1">
   <path d="M 0 612 
L 792 612 
L 792 0 
L 0 0 
z
" style="fill: #ffffff"/>
  </g>
  <g id="axes_1">
   <g id="line2d_1">
    <path d="M 0 459 
L 12.983607 462.170455 
L 25.967213 462.647727 
L 38.95082 448.36554 
L 51.934426 456.545478 
L 64.918033 455.113729 
L 77.901639 443.664801 
L 90.885246 456.443208 
L 103.868852 458.488637 
L 116.852459 438.661055 
L 129.836066 436.926132 
L 142.819672 428.669263 
L 155.803279 427.243996 
L 168.786885 431.012037 
L 181.770492 432.438799 
L 194.754098 439.988156 
L 207.737705 438.04866 
L 220.721311 438.04866 
L 233.704918 442.541151 
L 246.688525 416.677376 
L 259.672131 411.916197 
L 272.655738 410.398774 
L 285.639344 430.400733 
L 298.622951 407.266206 
L 311.606557 375.463813 
L 324.590164 387.285427 
L 337.57377 390.781781 
L 350.557377 401.720601 
L 363.540984 405.550397 
L 376.52459 406.155807 
L 389.508197 405.146896 
L 402.491803 391.081852 
L 415.47541 391.281932 
L 428.459016 391.181889 
L 441.442623 404.844325 
L 454.42623 400.311633 
L 467.409836 397.095397 
L 480.393443 396.091576 
L 493.377049 391.281932 
L 506.360656 394.286249 
L 519.344262 396.292292 
L 532.327869 399.808702 
L 545.311475 401.217271 
L 558.295082 404.844325 
L 571.278689 395.690219 
L 584.262295 391.181889 
L 597.245902 393.183995 
L 610.229508 411.612628 
L 623.213115 408.882425 
L 636.196721 413.637199 
L 649.180328 410.29765 
L 662.163934 400.110444 
L 675.147541 405.146896 
L 688.131148 398.200297 
L 701.114754 406.963309 
L 714.098361 400.311633 
L 727.081967 402.929162 
L 740.065574 396.392658 
L 753.04918 383.499034 
L 766.032787 377.740276 
L 779.016393 357.024755 
" clip-path="url(#p58bafbf833)" style="fill: none; stroke: #000000; stroke-width: 1.5; stroke-linecap: square"/>
   </g>
   <g id="line2d_2">
    <path d="M 0 459 
L 12.983607 459 
L 25.967213 461.113636 
L 38.95082 461.99026 
L 51.934426 457.513642 
L 64.918033 457.013942 
L 77.901639 456.048742 
L 90.885246 449.806348 
L 103.868852 453.137485 
L 116.852459 455.81195 
L 129.836066 447.173875 
L 142.819672 441.983204 
L 155.803279 435.282639 
L 168.786885 431.20384 
L 181.770492 431.060786 
L 194.754098 431.72775 
L 207.737705 435.82387 
L 220.721311 436.896121 
L 233.704918 437.471156 
L 246.688525 440.016584 
L 259.672131 428.303507 
L 272.655738 420.067302 
L 285.639344 415.1878 
L 298.622951 422.780273 
L 311.606557 414.946581 
L 324.590164 394.962519 
L 337.57377 391.020656 
L 350.557377 390.801 
L 363.540984 396.222629 
L 376.52459 400.867984 
L 389.508197 403.501727 
L 402.491803 404.274909 
L 415.47541 397.633773 
L 428.459016 394.485955 
L 441.442623 392.840705 
L 454.42623 398.85964 
L 467.409836 399.582725 
L 480.393443 398.322057 
L 493.377049 397.186755 
L 506.360656 394.204487 
L 519.344262 394.251657 
L 532.327869 395.281487 
L 545.311475 397.560509 
L 558.295082 399.38083 
L 571.278689 402.119417 
L 584.262295 398.899059 
L 597.245902 395.026229 
L 610.229508 394.108579 
L 623.213115 402.873851 
L 636.196721 405.900562 
L 649.180328 409.7925 
L 662.163934 410.062903 
L 675.147541 405.070952 
L 688.131148 405.127514 
L 701.114754 401.674407 
L 714.098361 404.3441 
L 727.081967 402.304639 
L 740.065574 402.605221 
L 753.04918 399.462453 
L 766.032787 391.407486 
L 779.016393 384.513197 
" clip-path="url(#p58bafbf833)" style="fill: none; stroke: #000000; stroke-width: 1.5; stroke-linecap: square"/>
   </g>
   <g id="line2d_3">
    <path d="M 0 459 
L 12.983607 459 
L 25.967213 460.857209 
L 38.95082 461.66846 
L 51.934426 459.241776 
L 64.918033 458.593966 
L 77.901639 457.428983 
L 90.885246 453.005169 
L 103.868852 454.079225 
L 116.852459 455.430368 
L 129.836066 450.357253 
L 142.819672 446.331875 
L 155.803279 441.070198 
L 168.786885 436.970819 
L 181.770492 435.210924 
L 194.754098 434.394287 
L 207.737705 436.038433 
L 220.721311 436.603103 
L 233.704918 436.991526 
L 246.688525 438.584958 
L 259.672131 432.117801 
L 272.655738 426.135315 
L 285.639344 421.465229 
L 298.622951 424.064537 
L 311.606557 419.076297 
L 324.590164 406.095067 
L 337.57377 400.505501 
L 350.557377 397.598938 
L 363.540984 398.774423 
L 376.52459 400.7317 
L 389.508197 402.290401 
L 402.491803 403.095467 
L 415.47541 399.512142 
L 428.459016 397.044004 
L 441.442623 395.271466 
L 454.42623 398.02702 
L 467.409836 398.677153 
L 480.393443 398.19675 
L 493.377049 397.563503 
L 506.360656 395.676538 
L 519.344262 395.254346 
L 532.327869 395.582367 
L 545.311475 396.833545 
L 558.295082 398.128353 
L 571.278689 400.096386 
L 584.262295 398.793354 
L 597.245902 396.543139 
L 610.229508 395.544834 
L 623.213115 400.259998 
L 636.196721 402.80162 
L 649.180328 405.995114 
L 662.163934 407.260618 
L 675.147541 405.163352 
L 688.131148 405.167801 
L 701.114754 403.12674 
L 714.098361 404.267714 
L 727.081967 403.115067 
L 740.065574 403.068253 
L 753.04918 401.106465 
L 766.032787 395.908558 
L 779.016393 390.532439 
" clip-path="url(#p58bafbf833)" style="fill: none; stroke: #000000; stroke-width: 1.5; stroke-linecap: square"/>
   </g>
   <g id="line2d_4">
    <path d="M 0 459 
L 12.983607 459 
L 25.967213 460.722234 
L 38.95082 461.477921 
L 51.934426 459.56124 
L 64.918033 459.182549 
L 77.901639 458.456348 
L 90.885246 455.106074 
L 103.868852 455.389727 
L 116.852459 456.013997 
L 129.836066 452.658005 
L 142.819672 449.715722 
L 155.803279 445.883276 
L 168.786885 442.564426 
L 181.770492 440.54627 
L 194.754098 439.151807 
L 207.737705 439.293735 
L 220.721311 439.08463 
L 233.704918 438.912168 
L 246.688525 439.511676 
L 259.672131 435.751776 
L 272.655738 431.84504 
L 285.639344 428.345125 
L 298.622951 428.67829 
L 311.606557 425.205981 
L 324.590164 417.100314 
L 337.57377 412.272667 
L 350.557377 408.80477 
L 363.540984 407.667056 
L 376.52459 407.32791 
L 389.508197 407.140342 
L 402.491803 406.821562 
L 415.47541 404.29813 
L 428.459016 402.178746 
L 441.442623 400.376555 
L 454.42623 401.046535 
L 467.409836 400.89989 
L 480.393443 400.257306 
L 493.377049 399.557393 
L 506.360656 398.205546 
L 519.344262 397.542999 
L 532.327869 397.305597 
L 545.311475 397.6796 
L 558.295082 398.219904 
L 571.278689 399.257483 
L 584.262295 398.66985 
L 597.245902 397.451502 
L 610.229508 396.747477 
L 623.213115 399.087037 
L 636.196721 400.624032 
L 649.180328 402.673581 
L 662.163934 403.864666 
L 675.147541 403.25653 
L 688.131148 403.552955 
L 701.114754 402.692659 
L 714.098361 403.356969 
L 727.081967 402.867768 
L 740.065574 402.894822 
L 753.04918 401.86442 
L 766.032787 398.923768 
L 779.016393 395.51841 
" clip-path="url(#p58bafbf833)" style="fill: none; stroke: #000000; stroke-width: 1.5; stroke-linecap: square"/>
   </g>
   <g id="line2d_5">
    <path d="M 0 459 
L 12.983607 459 
L 25.967213 460.653859 
L 38.95082 461.376825 
L 51.934426 459.698653 
L 64.918033 459.340581 
L 77.901639 459.005639 
L 90.885246 456.213985 
L 103.868852 456.252034 
L 116.852459 456.594835 
L 129.836066 454.024857 
L 142.819672 451.713403 
L 155.803279 448.7503 
L 168.786885 446.104701 
L 181.770492 444.320009 
L 194.754098 442.963023 
L 207.737705 442.63375 
L 220.721311 442.139844 
L 233.704918 441.709772 
L 246.688525 441.795246 
L 259.672131 439.255692 
L 272.655738 436.538145 
L 285.639344 433.980671 
L 298.622951 433.636517 
L 311.606557 431.125222 
L 324.590164 425.845959 
L 337.57377 422.241166 
L 350.557377 419.33245 
L 363.540984 417.723328 
L 376.52459 416.621242 
L 389.508197 415.680929 
L 402.491803 414.740662 
L 415.47541 412.634644 
L 428.459016 410.745142 
L 441.442623 409.023222 
L 454.42623 408.658485 
L 467.409836 407.932278 
L 480.393443 406.99241 
L 493.377049 406.050237 
L 506.360656 404.776454 
L 519.344262 403.875307 
L 532.327869 403.226125 
L 545.311475 402.934587 
L 558.295082 402.788475 
L 571.278689 402.96287 
L 584.262295 402.345623 
L 597.245902 401.398702 
L 610.229508 400.703567 
L 623.213115 401.620946 
L 636.196721 402.231309 
L 649.180328 403.188022 
L 662.163934 403.784293 
L 675.147541 403.475689 
L 688.131148 403.615755 
L 701.114754 403.161456 
L 714.098361 403.479415 
L 727.081967 403.214222 
L 740.065574 403.190391 
L 753.04918 402.62148 
L 766.032787 401.016175 
L 779.016393 399.060236 
" clip-path="url(#p58bafbf833)" style="fill: none; stroke: #000000; stroke-width: 1.5; stroke-linecap: square"/>
   </g>
   <g id="line2d_6">
    <path d="M 0 459 
L 12.983607 459 
L 25.967213 460.619559 
L 38.95082 461.325105 
L 51.934426 459.760763 
L 64.918033 459.417038 
L 77.901639 459.099844 
L 90.885246 456.764624 
L 103.868852 456.718098 
L 116.852459 456.950587 
L 129.836066 454.743573 
L 142.819672 452.749176 
L 155.803279 450.226971 
L 168.786885 447.960268 
L 181.770492 446.378168 
L 194.754098 445.140125 
L 207.737705 444.703118 
L 220.721311 444.161551 
L 233.704918 443.682722 
L 246.688525 443.596433 
L 259.672131 441.621317 
L 272.655738 439.50532 
L 285.639344 437.489201 
L 298.622951 437.012413 
L 311.606557 435.053078 
L 324.590164 431.186952 
L 337.57377 428.409007 
L 350.557377 426.078171 
L 363.540984 424.601869 
L 376.52459 423.468676 
L 389.508197 422.456266 
L 402.491803 421.459813 
L 415.47541 419.731123 
L 428.459016 418.1352 
L 441.442623 416.643398 
L 454.42623 416.00085 
L 467.409836 415.155703 
L 480.393443 414.193045 
L 493.377049 413.238305 
L 506.360656 412.090542 
L 519.344262 411.169633 
L 532.327869 410.407608 
L 545.311475 409.869953 
L 558.295082 409.434801 
L 571.278689 409.205952 
L 584.262295 408.535564 
L 597.245902 407.679862 
L 610.229508 406.970362 
L 623.213115 407.195055 
L 636.196721 407.27629 
L 649.180328 407.580448 
L 662.163934 407.709771 
L 675.147541 407.349064 
L 688.131148 407.245195 
L 701.114754 406.819847 
L 714.098361 406.826547 
L 727.081967 406.523061 
L 740.065574 406.356455 
L 753.04918 405.89558 
L 766.032787 404.859635 
L 779.016393 403.607594 
" clip-path="url(#p58bafbf833)" style="fill: none; stroke: #000000; stroke-width: 1.5; stroke-linecap: square"/>
   </g>
   <g id="line2d_7">
    <path d="M 0 459 
L 12.983607 459 
L 25.967213 460.602395 
L 38.95082 461.298993 
L 51.934426 459.79007 
L 64.918033 459.454337 
L 77.901639 459.146688 
L 90.885246 457.036543 
L 103.868852 456.956633 
L 116.852459 457.14197 
L 129.836066 455.107222 
L 142.819672 453.26814 
L 155.803279 450.961727 
L 168.786885 448.887333 
L 181.770492 447.421181 
L 194.754098 446.262607 
L 207.737705 445.803381 
L 220.721311 445.263659 
L 233.704918 444.784574 
L 246.688525 444.642067 
L 259.672131 442.932509 
L 272.655738 441.107153 
L 285.639344 439.364381 
L 298.622951 438.87442 
L 311.606557 437.196237 
L 324.590164 433.993665 
L 337.57377 431.648774 
L 350.557377 429.655742 
L 363.540984 428.332844 
L 376.52459 427.281999 
L 389.508197 426.331094 
L 402.491803 425.399291 
L 415.47541 423.91798 
L 428.459016 422.539091 
L 441.442623 421.241055 
L 454.42623 420.577783 
L 467.409836 419.772408 
L 480.393443 418.886679 
L 493.377049 418.011485 
L 506.360656 417.000988 
L 519.344262 416.156733 
L 532.327869 415.430206 
L 545.311475 414.867874 
L 558.295082 414.383703 
L 571.278689 414.050327 
L 584.262295 413.41577 
L 597.245902 412.656316 
L 610.229508 411.99989 
L 623.213115 411.987052 
L 636.196721 411.885264 
L 649.180328 411.941998 
L 662.163934 411.889286 
L 675.147541 411.514754 
L 688.131148 411.314602 
L 701.114754 410.90576 
L 714.098361 410.784306 
L 727.081967 410.464145 
L 740.065574 410.23603 
L 753.04918 409.819894 
L 766.032787 409.032444 
L 779.016393 408.102329 
" clip-path="url(#p58bafbf833)" style="fill: none; stroke: #000000; stroke-width: 1.5; stroke-linecap: square"/>
   </g>
   <g id="line2d_8">
    <path d="M 0 459 
L 12.983607 459 
L 25.967213 460.593812 
L 38.95082 461.285878 
L 51.934426 459.804277 
L 64.918033 459.472719 
L 77.901639 459.169987 
L 90.885246 457.171327 
L 103.868852 457.076824 
L 116.852459 457.240572 
L 129.836066 455.289444 
L 142.819672 453.526744 
L 155.803279 451.326249 
L 168.786885 449.347613 
L 181.770492 447.94191 
L 194.754098 446.826921 
L 207.737705 446.363703 
L 220.721311 445.830756 
L 233.704918 445.357213 
L 246.688525 445.194082 
L 259.672131 443.611974 
L 272.655738 441.927233 
L 285.639344 440.318859 
L 298.622951 439.833846 
L 311.606557 438.294231 
L 324.590164 435.405572 
L 337.57377 433.274552 
L 350.557377 431.454903 
L 363.540984 430.224119 
L 376.52459 429.233874 
L 389.508197 428.33414 
L 402.491803 427.454713 
L 415.47541 426.107029 
L 428.459016 424.849623 
L 441.442623 423.663858 
L 454.42623 423.018964 
L 467.409836 422.257877 
L 480.393443 421.43256 
L 493.377049 420.619045 
L 506.360656 419.695673 
L 519.344262 418.91272 
L 532.327869 418.229721 
L 545.311475 417.684581 
L 558.295082 417.206414 
L 571.278689 416.85419 
L 584.262295 416.260311 
L 597.245902 415.567666 
L 610.229508 414.959999 
L 623.213115 414.870991 
L 636.196721 414.714139 
L 649.180328 414.686389 
L 662.163934 414.574892 
L 675.147541 414.211838 
L 688.131148 413.9878 
L 701.114754 413.602307 
L 714.098361 413.442726 
L 727.081967 413.130718 
L 740.065574 412.891581 
L 753.04918 412.509014 
L 766.032787 411.842068 
L 779.016393 411.066023 
" clip-path="url(#p58bafbf833)" style="fill: none; stroke: #000000; stroke-width: 1.5; stroke-linecap: square"/>
   </g>
   <g id="line2d_9">
    <path d="M 0 459 
L 12.983607 459 
L 25.967213 460.589519 
L 38.95082 461.279307 
L 51.934426 459.811267 
L 64.918033 459.481838 
L 77.901639 459.181598 
L 90.885246 457.238384 
L 103.868852 457.137092 
L 116.852459 457.290536 
L 129.836066 455.380566 
L 142.819672 453.65568 
L 155.803279 451.50755 
L 168.786885 449.576555 
L 181.770492 448.201534 
L 194.754098 447.109134 
L 207.737705 446.645558 
L 220.721311 446.117343 
L 233.704918 445.647886 
L 246.688525 445.476248 
L 259.672131 443.956366 
L 272.655738 442.340462 
L 285.639344 440.798314 
L 298.622951 440.318314 
L 311.606557 438.846997 
L 324.590164 436.10996 
L 337.57377 434.084175 
L 350.557377 432.35119 
L 363.540984 431.169204 
L 376.52459 430.213067 
L 389.508197 429.343033 
L 402.491803 428.493859 
L 415.47541 427.214353 
L 428.459016 426.019747 
L 441.442623 424.892736 
L 454.42623 424.263231 
L 467.409836 423.529429 
L 480.393443 422.738842 
L 493.377049 421.960695 
L 506.360656 421.08448 
L 519.344262 420.336967 
L 532.327869 419.681322 
L 545.311475 419.151485 
L 558.295082 418.683432 
L 571.278689 418.329876 
L 584.262295 417.761607 
L 597.245902 417.106499 
L 610.229508 416.528308 
L 623.213115 416.412209 
L 636.196721 416.237446 
L 649.180328 416.178213 
L 662.163934 416.046447 
L 675.147541 415.694493 
L 688.131148 415.465646 
L 701.114754 415.096413 
L 714.098361 414.925583 
L 727.081967 414.622852 
L 740.065574 414.384423 
L 753.04918 414.022382 
L 766.032787 413.414793 
L 779.016393 412.713472 
" clip-path="url(#p58bafbf833)" style="fill: none; stroke: #000000; stroke-width: 1.5; stroke-linecap: square"/>
   </g>
  </g>
 </g>
 <defs>
  <clipPath id="p58bafbf833">
   <rect x="0" y="0" width="792" height="612"/>
  </clipPath>
 </defs>
</svg>
