<?xml version="1.0" encoding="utf-8" standalone="no"?>
<!DOCTYPE svg PUBLIC "-//W3C//DTD SVG 1.1//EN"
  "http://www.w3.org/Graphics/SVG/1.1/DTD/svg11.dtd">
<svg xmlns:xlink="http://www.w3.org/1999/xlink" width="792pt" height="612pt" viewBox="0 0 792 612" xmlns="http://www.w3.org/2000/svg" version="1.1">
 <metadata>
  <rdf:RDF xmlns:dc="http://purl.org/dc/elements/1.1/" xmlns:cc="http://creativecommons.org/ns#" xmlns:rdf="http://www.w3.org/1999/02/22-rdf-syntax-ns#">
   <cc:Work>
    <dc:type rdf:resource="http://purl.org/dc/dcmitype/StillImage"/>
    <dc:date>2022-12-26T20:25:35.585931</dc:date>
    <dc:format>image/svg+xml</dc:format>
    <dc:creator>
     <cc:Agent>
      <dc:title>Matplotlib v3.6.2, https://matplotlib.org/</dc:title>
     </cc:Agent>
    </dc:creator>
   </cc:Work>
  </rdf:RDF>
 </metadata>
 <defs>
  <style type="text/css">*{stroke-linejoin: round; stroke-linecap: butt}</style>
 </defs>
 <g id="figure_1">
  <g id="patch_1">
   <path d="M 0 612 
L 792 612 
L 792 0 
L 0 0 
z
" style="fill: #ffffff"/>
  </g>
  <g id="axes_1">
   <g id="line2d_1">
    <path d="M 0 306 
L 41.684211 310.001724 
L 83.368421 288.954614 
L 125.052632 332.315861 
L 166.736842 310.857683 
L 208.421053 327.130867 
L 250.105263 307.314066 
L 291.789474 311.554338 
L 333.473684 306.696856 
L 375.157895 304.048826 
L 416.842105 302.018183 
L 458.526316 301.002982 
L 500.210526 307.73217 
L 541.894737 314.579051 
L 583.578947 310.320228 
L 625.263158 304.526656 
L 666.947368 307.114967 
L 708.631579 302.316789 
L 750.315789 307.71226 
" clip-path="url(#pcf0b9f13c1)" style="fill: none; stroke: #000000; stroke-width: 1.5; stroke-linecap: square"/>
   </g>
   <g id="line2d_2">
    <path d="M 0 306 
L 41.684211 306 
L 83.368421 308.6679 
L 125.052632 297.39537 
L 166.736842 316.049713 
L 208.421053 313.37049 
L 250.105263 320.367128 
L 291.789474 313.79277 
L 333.473684 312.669254 
L 375.157895 309.684772 
L 416.842105 306.8552 
L 458.526316 304.462242 
L 500.210526 302.670988 
L 541.894737 305.195395 
L 583.578947 309.863468 
L 625.263158 310.097744 
L 666.947368 307.298528 
L 708.631579 307.207567 
L 750.315789 304.758703 
" clip-path="url(#pcf0b9f13c1)" style="fill: none; stroke: #000000; stroke-width: 1.5; stroke-linecap: square"/>
   </g>
   <g id="line2d_3">
    <path d="M 0 306 
L 41.684211 306 
L 83.368421 308.344243 
L 125.052632 299.552131 
L 166.736842 312.37111 
L 208.421053 311.832682 
L 250.105263 316.960576 
L 291.789474 313.862688 
L 333.473684 313.141599 
L 375.157895 311.167107 
L 416.842105 309.015193 
L 458.526316 306.919506 
L 500.210526 305.158962 
L 541.894737 305.921061 
L 583.578947 308.477505 
L 625.263158 309.020249 
L 666.947368 307.698993 
L 708.631579 307.529217 
L 750.315789 305.993662 
" clip-path="url(#pcf0b9f13c1)" style="fill: none; stroke: #000000; stroke-width: 1.5; stroke-linecap: square"/>
   </g>
   <g id="line2d_4">
    <path d="M 0 306 
L 41.684211 306 
L 83.368421 308.173878 
L 125.052632 300.624648 
L 166.736842 310.729002 
L 208.421053 310.764329 
L 250.105263 314.79862 
L 291.789474 313.104583 
L 333.473684 312.775745 
L 375.157895 311.551403 
L 416.842105 310.101628 
L 458.526316 308.591057 
L 500.210526 307.21126 
L 541.894737 307.303874 
L 583.578947 308.573949 
L 625.263158 308.874112 
L 666.947368 308.136337 
L 708.631579 307.964822 
L 750.315789 307.024638 
" clip-path="url(#pcf0b9f13c1)" style="fill: none; stroke: #000000; stroke-width: 1.5; stroke-linecap: square"/>
   </g>
   <g id="line2d_5">
    <path d="M 0 306 
L 41.684211 306 
L 83.368421 308.087575 
L 125.052632 301.144089 
L 166.736842 309.995054 
L 208.421053 310.198697 
L 250.105263 313.670683 
L 291.789474 312.510866 
L 333.473684 312.352098 
L 375.157895 311.485499 
L 416.842105 310.420706 
L 458.526316 309.285852 
L 500.210526 308.222445 
L 541.894737 308.162233 
L 583.578947 308.920335 
L 625.263158 309.080075 
L 666.947368 308.576218 
L 708.631579 308.418872 
L 750.315789 307.777623 
" clip-path="url(#pcf0b9f13c1)" style="fill: none; stroke: #000000; stroke-width: 1.5; stroke-linecap: square"/>
   </g>
   <g id="line2d_6">
    <path d="M 0 306 
L 41.684211 306 
L 83.368421 308.044282 
L 125.052632 301.397713 
L 166.736842 309.653484 
L 208.421053 309.91564 
L 250.105263 313.109443 
L 291.789474 312.170394 
L 333.473684 312.081222 
L 375.157895 311.374338 
L 416.842105 310.491122 
L 458.526316 309.54358 
L 500.210526 308.650425 
L 541.894737 308.560017 
L 583.578947 309.121337 
L 625.263158 309.227709 
L 666.947368 308.829119 
L 708.631579 308.689687 
L 750.315789 308.190731 
" clip-path="url(#pcf0b9f13c1)" style="fill: none; stroke: #000000; stroke-width: 1.5; stroke-linecap: square"/>
   </g>
   <g id="line2d_7">
    <path d="M 0 306 
L 41.684211 306 
L 83.368421 308.022617 
L 125.052632 301.522777 
L 166.736842 309.489387 
L 208.421053 309.775041 
L 250.105263 312.831497 
L 291.789474 311.991359 
L 333.473684 311.932503 
L 375.157895 311.299227 
L 416.842105 310.501644 
L 458.526316 309.644313 
L 500.210526 308.835389 
L 541.894737 308.739067 
L 583.578947 309.217583 
L 625.263158 309.302758 
L 666.947368 308.953367 
L 708.631579 308.825491 
L 750.315789 308.393545 
" clip-path="url(#pcf0b9f13c1)" style="fill: none; stroke: #000000; stroke-width: 1.5; stroke-linecap: square"/>
   </g>
   <g id="line2d_8">
    <path d="M 0 306 
L 41.684211 306 
L 83.368421 308.011783 
L 125.052632 301.584845 
L 166.736842 309.409045 
L 208.421053 309.705096 
L 250.105263 312.693442 
L 291.789474 311.899947 
L 333.473684 311.855091 
L 375.157895 311.256928 
L 416.842105 310.500619 
L 458.526316 309.68715 
L 500.210526 308.919623 
L 541.894737 308.82223 
L 583.578947 309.263125 
L 625.263158 309.339069 
L 666.947368 309.013273 
L 708.631579 308.891678 
L 750.315789 308.49183 
" clip-path="url(#pcf0b9f13c1)" style="fill: none; stroke: #000000; stroke-width: 1.5; stroke-linecap: square"/>
   </g>
   <g id="line2d_9">
    <path d="M 0 306 
L 41.684211 306 
L 83.368421 308.006365 
L 125.052632 301.61576 
L 166.736842 309.369304 
L 208.421053 309.670227 
L 250.105263 312.624674 
L 291.789474 311.853808 
L 333.473684 311.815661 
L 375.157895 311.234618 
L 416.842105 310.498534 
L 458.526316 309.706641 
L 500.210526 308.959575 
L 541.894737 308.862064 
L 583.578947 309.285067 
L 625.263158 309.356727 
L 666.947368 309.042457 
L 708.631579 308.924102 
L 750.315789 308.539905 
" clip-path="url(#pcf0b9f13c1)" style="fill: none; stroke: #000000; stroke-width: 1.5; stroke-linecap: square"/>
   </g>
  </g>
 </g>
 <defs>
  <clipPath id="pcf0b9f13c1">
   <rect x="0" y="0" width="792" height="612"/>
  </clipPath>
 </defs>
</svg>
