<?xml version="1.0" encoding="utf-8" standalone="no"?>
<!DOCTYPE svg PUBLIC "-//W3C//DTD SVG 1.1//EN"
  "http://www.w3.org/Graphics/SVG/1.1/DTD/svg11.dtd">
<svg xmlns:xlink="http://www.w3.org/1999/xlink" width="792pt" height="612pt" viewBox="0 0 792 612" xmlns="http://www.w3.org/2000/svg" version="1.1">
 <metadata>
  <rdf:RDF xmlns:dc="http://purl.org/dc/elements/1.1/" xmlns:cc="http://creativecommons.org/ns#" xmlns:rdf="http://www.w3.org/1999/02/22-rdf-syntax-ns#">
   <cc:Work>
    <dc:type rdf:resource="http://purl.org/dc/dcmitype/StillImage"/>
    <dc:date>2023-01-30T17:15:21.408998</dc:date>
    <dc:format>image/svg+xml</dc:format>
    <dc:creator>
     <cc:Agent>
      <dc:title>Matplotlib v3.6.2, https://matplotlib.org/</dc:title>
     </cc:Agent>
    </dc:creator>
   </cc:Work>
  </rdf:RDF>
 </metadata>
 <defs>
  <style type="text/css">*{stroke-linejoin: round; stroke-linecap: butt}</style>
 </defs>
 <g id="figure_1">
  <g id="patch_1">
   <path d="M 0 612 
L 792 612 
L 792 0 
L 0 0 
z
" style="fill: #ffffff"/>
  </g>
  <g id="axes_1">
   <g id="line2d_1">
    <path d="M 0 306 
L 46.588235 311.128404 
L 93.176471 296.47132 
L 139.764706 305.882902 
L 186.352941 300.871596 
L 232.941176 294.740277 
L 279.529412 313.609788 
L 326.117647 296.237357 
L 372.705882 290.579582 
L 419.294118 305.203737 
L 465.882353 311.94782 
L 512.470588 294.997551 
L 559.058824 306.210776 
L 605.647059 308.435583 
L 652.235294 313.071449 
L 698.823529 303.751762 
L 745.411765 294.670114 
" clip-path="url(#p5bf8288f6c)" style="fill: none; stroke: #000000; stroke-width: 1.5; stroke-linecap: square"/>
   </g>
   <g id="line2d_2">
    <path d="M 0 306 
L 46.588235 306 
L 93.176471 309.419114 
L 139.764706 302.018899 
L 186.352941 304.079621 
L 232.941176 302.423769 
L 279.529412 298.51987 
L 326.117647 306.12429 
L 372.705882 301.160177 
L 419.294118 295.836619 
L 465.882353 300.507279 
L 512.470588 306.257982 
L 559.058824 300.6046 
L 605.647059 303.41794 
L 652.235294 305.95362 
L 698.823529 309.511954 
L 745.411765 306.646654 
" clip-path="url(#p5bf8288f6c)" style="fill: none; stroke: #000000; stroke-width: 1.5; stroke-linecap: square"/>
   </g>
   <g id="line2d_3">
    <path d="M 0 306 
L 46.588235 306 
L 93.176471 309.004334 
L 139.764706 303.324578 
L 186.352941 304.323641 
L 232.941176 303.095349 
L 279.529412 300.297513 
L 326.117647 304.574702 
L 372.705882 301.969144 
L 419.294118 298.476322 
L 465.882353 300.509829 
L 512.470588 303.935482 
L 559.058824 301.275011 
L 605.647059 302.736673 
L 652.235294 304.41893 
L 698.823529 306.96763 
L 745.411765 306.022021 
" clip-path="url(#p5bf8288f6c)" style="fill: none; stroke: #000000; stroke-width: 1.5; stroke-linecap: square"/>
   </g>
   <g id="line2d_4">
    <path d="M 0 306 
L 46.588235 306 
L 93.176471 308.786003 
L 139.764706 303.951799 
L 186.352941 304.566279 
L 232.941176 303.551896 
L 279.529412 301.382237 
L 326.117647 304.150883 
L 372.705882 302.471558 
L 419.294118 300.073853 
L 465.882353 301.065131 
L 512.470588 303.098811 
L 559.058824 301.625101 
L 605.647059 302.440311 
L 652.235294 303.486599 
L 698.823529 305.134201 
L 745.411765 304.899583 
" clip-path="url(#p5bf8288f6c)" style="fill: none; stroke: #000000; stroke-width: 1.5; stroke-linecap: square"/>
   </g>
   <g id="line2d_5">
    <path d="M 0 306 
L 46.588235 306 
L 93.176471 308.6754 
L 139.764706 304.249211 
L 186.352941 304.712137 
L 232.941176 303.805437 
L 279.529412 301.948711 
L 326.117647 304.077099 
L 372.705882 302.775313 
L 419.294118 300.904427 
L 465.882353 301.520035 
L 512.470588 302.928487 
L 559.058824 301.909795 
L 605.647059 302.437959 
L 652.235294 303.146288 
L 698.823529 304.278874 
L 745.411765 304.220543 
" clip-path="url(#p5bf8288f6c)" style="fill: none; stroke: #000000; stroke-width: 1.5; stroke-linecap: square"/>
   </g>
   <g id="line2d_6">
    <path d="M 0 306 
L 46.588235 306 
L 93.176471 308.619917 
L 139.764706 304.392725 
L 186.352941 304.789812 
L 232.941176 303.936766 
L 279.529412 302.232581 
L 326.117647 304.076663 
L 372.705882 302.941512 
L 419.294118 301.316814 
L 465.882353 301.785479 
L 512.470588 302.922023 
L 559.058824 302.092898 
L 605.647059 302.498299 
L 652.235294 303.051799 
L 698.823529 303.940817 
L 745.411765 303.924786 
" clip-path="url(#p5bf8288f6c)" style="fill: none; stroke: #000000; stroke-width: 1.5; stroke-linecap: square"/>
   </g>
   <g id="line2d_7">
    <path d="M 0 306 
L 46.588235 306 
L 93.176471 308.592153 
L 139.764706 304.463055 
L 186.352941 304.829628 
L 232.941176 304.003285 
L 279.529412 302.37391 
L 326.117647 304.085318 
L 372.705882 303.027987 
L 419.294118 301.520657 
L 465.882353 301.925844 
L 512.470588 302.938733 
L 559.058824 302.19498 
L 605.647059 302.545575 
L 652.235294 303.028019 
L 698.823529 303.803852 
L 745.411765 303.800041 
" clip-path="url(#p5bf8288f6c)" style="fill: none; stroke: #000000; stroke-width: 1.5; stroke-linecap: square"/>
   </g>
   <g id="line2d_8">
    <path d="M 0 306 
L 46.588235 306 
L 93.176471 308.578268 
L 139.764706 304.497847 
L 186.352941 304.849753 
L 232.941176 304.036719 
L 279.529412 302.444326 
L 326.117647 304.091802 
L 372.705882 303.072017 
L 419.294118 301.621785 
L 465.882353 301.997648 
L 512.470588 302.95195 
L 559.058824 302.248567 
L 605.647059 302.573519 
L 652.235294 303.022315 
L 698.823529 303.744276 
L 745.411765 303.744783 
" clip-path="url(#p5bf8288f6c)" style="fill: none; stroke: #000000; stroke-width: 1.5; stroke-linecap: square"/>
   </g>
   <g id="line2d_9">
    <path d="M 0 306 
L 46.588235 306 
L 93.176471 308.571325 
L 139.764706 304.515148 
L 186.352941 304.859866 
L 232.941176 304.053474 
L 279.529412 302.47946 
L 326.117647 304.095574 
L 372.705882 303.094223 
L 419.294118 301.672125 
L 465.882353 302.033917 
L 512.470588 302.959749 
L 559.058824 302.275978 
L 605.647059 302.588559 
L 652.235294 303.02103 
L 698.823529 303.716795 
L 745.411765 303.71907 
" clip-path="url(#p5bf8288f6c)" style="fill: none; stroke: #000000; stroke-width: 1.5; stroke-linecap: square"/>
   </g>
  </g>
 </g>
 <defs>
  <clipPath id="p5bf8288f6c">
   <rect x="0" y="0" width="792" height="612"/>
  </clipPath>
 </defs>
</svg>
