<?xml version="1.0" encoding="utf-8" standalone="no"?>
<!DOCTYPE svg PUBLIC "-//W3C//DTD SVG 1.1//EN"
  "http://www.w3.org/Graphics/SVG/1.1/DTD/svg11.dtd">
<svg xmlns:xlink="http://www.w3.org/1999/xlink" width="792pt" height="612pt" viewBox="0 0 792 612" xmlns="http://www.w3.org/2000/svg" version="1.1">
 <metadata>
  <rdf:RDF xmlns:dc="http://purl.org/dc/elements/1.1/" xmlns:cc="http://creativecommons.org/ns#" xmlns:rdf="http://www.w3.org/1999/02/22-rdf-syntax-ns#">
   <cc:Work>
    <dc:type rdf:resource="http://purl.org/dc/dcmitype/StillImage"/>
    <dc:date>2023-01-16T16:09:58.376313</dc:date>
    <dc:format>image/svg+xml</dc:format>
    <dc:creator>
     <cc:Agent>
      <dc:title>Matplotlib v3.6.2, https://matplotlib.org/</dc:title>
     </cc:Agent>
    </dc:creator>
   </cc:Work>
  </rdf:RDF>
 </metadata>
 <defs>
  <style type="text/css">*{stroke-linejoin: round; stroke-linecap: butt}</style>
 </defs>
 <g id="figure_1">
  <g id="patch_1">
   <path d="M 0 612 
L 792 612 
L 792 0 
L 0 0 
z
" style="fill: #ffffff"/>
  </g>
  <g id="axes_1">
   <g id="line2d_1">
    <path d="M 0 306 
L 49.5 307.328261 
L 99 301.612269 
L 148.5 308.039812 
L 198 303.106357 
L 247.5 311.193982 
L 297 296.349531 
L 346.5 305.881405 
L 396 300.806018 
L 445.5 294.5964 
L 495 303.817881 
L 544.5 290.3827 
L 594 305.193553 
L 643.5 312.023871 
L 693 294.856956 
L 742.5 306.213472 
" clip-path="url(#p4cc17e560d)" style="fill: none; stroke: #000000; stroke-width: 1.5; stroke-linecap: square"/>
   </g>
   <g id="line2d_2">
    <path d="M 0 306 
L 49.5 306 
L 99 306.88551 
L 148.5 303.872093 
L 198 306.094876 
L 247.5 304.552381 
L 297 307.926115 
L 346.5 302.090858 
L 396 303.993487 
L 445.5 302.389471 
L 495 298.466758 
L 544.5 301.146272 
L 594 295.726706 
L 643.5 300.462894 
L 693 306.245097 
L 742.5 300.54621 
" clip-path="url(#p4cc17e560d)" style="fill: none; stroke: #000000; stroke-width: 1.5; stroke-linecap: square"/>
   </g>
   <g id="line2d_3">
    <path d="M 0 306 
L 49.5 306 
L 99 306.77808 
L 148.5 304.437423 
L 198 305.844247 
L 247.5 304.870112 
L 297 306.987094 
L 346.5 303.568358 
L 396 304.290982 
L 445.5 303.222975 
L 495 300.61371 
L 544.5 301.573304 
L 594 298.241031 
L 643.5 300.299616 
L 693 303.760415 
L 742.5 301.137095 
" clip-path="url(#p4cc17e560d)" style="fill: none; stroke: #000000; stroke-width: 1.5; stroke-linecap: square"/>
   </g>
   <g id="line2d_4">
    <path d="M 0 306 
L 49.5 306 
L 99 306.721533 
L 148.5 304.71622 
L 198 305.773815 
L 247.5 305.041501 
L 297 306.555871 
L 346.5 304.244266 
L 396 304.59156 
L 445.5 303.828875 
L 495 302.043693 
L 544.5 302.375244 
L 594 300.192697 
L 643.5 301.081657 
L 693 302.991285 
L 742.5 301.592546 
" clip-path="url(#p4cc17e560d)" style="fill: none; stroke: #000000; stroke-width: 1.5; stroke-linecap: square"/>
   </g>
   <g id="line2d_5">
    <path d="M 0 306 
L 49.5 306 
L 99 306.692887 
L 148.5 304.850579 
L 198 305.754304 
L 247.5 305.129197 
L 297 306.370928 
L 346.5 304.541344 
L 396 304.763781 
L 445.5 304.15711 
L 495 302.787291 
L 544.5 302.926493 
L 594 301.314554 
L 643.5 301.79089 
L 693 302.999465 
L 742.5 302.069943 
" clip-path="url(#p4cc17e560d)" style="fill: none; stroke: #000000; stroke-width: 1.5; stroke-linecap: square"/>
   </g>
   <g id="line2d_6">
    <path d="M 0 306 
L 49.5 306 
L 99 306.678517 
L 148.5 304.916004 
L 198 305.748417 
L 247.5 305.173243 
L 297 306.288518 
L 346.5 304.677145 
L 396 304.851462 
L 445.5 304.320197 
L 495 303.147044 
L 544.5 303.222072 
L 594 301.87808 
L 643.5 302.204485 
L 693 303.119944 
L 742.5 302.386492 
" clip-path="url(#p4cc17e560d)" style="fill: none; stroke: #000000; stroke-width: 1.5; stroke-linecap: square"/>
   </g>
   <g id="line2d_7">
    <path d="M 0 306 
L 49.5 306 
L 99 306.671326 
L 148.5 304.948219 
L 198 305.746413 
L 247.5 305.195267 
L 297 306.250051 
L 346.5 304.741665 
L 396 304.895163 
L 445.5 304.400415 
L 495 303.321201 
L 544.5 303.3714 
L 594 302.154337 
L 643.5 302.419676 
L 693 303.206396 
L 742.5 302.561153 
" clip-path="url(#p4cc17e560d)" style="fill: none; stroke: #000000; stroke-width: 1.5; stroke-linecap: square"/>
   </g>
   <g id="line2d_8">
    <path d="M 0 306 
L 49.5 306 
L 99 306.66773 
L 148.5 304.964196 
L 198 305.745641 
L 247.5 305.206273 
L 297 306.231523 
L 346.5 304.773064 
L 396 304.916914 
L 445.5 304.440063 
L 495 303.406529 
L 544.5 303.445982 
L 594 302.290294 
L 643.5 302.528402 
L 693 303.25542 
L 742.5 302.651797 
" clip-path="url(#p4cc17e560d)" style="fill: none; stroke: #000000; stroke-width: 1.5; stroke-linecap: square"/>
   </g>
   <g id="line2d_9">
    <path d="M 0 306 
L 49.5 306 
L 99 306.665932 
L 148.5 304.972151 
L 198 305.745311 
L 247.5 305.211773 
L 297 306.222437 
L 346.5 304.788548 
L 396 304.927757 
L 445.5 304.459756 
L 495 303.448718 
L 544.5 303.483194 
L 594 302.357633 
L 643.5 302.582922 
L 693 303.281266 
L 742.5 302.697827 
" clip-path="url(#p4cc17e560d)" style="fill: none; stroke: #000000; stroke-width: 1.5; stroke-linecap: square"/>
   </g>
  </g>
 </g>
 <defs>
  <clipPath id="p4cc17e560d">
   <rect x="0" y="0" width="792" height="612"/>
  </clipPath>
 </defs>
</svg>
