<?xml version="1.0" encoding="utf-8" standalone="no"?>
<!DOCTYPE svg PUBLIC "-//W3C//DTD SVG 1.1//EN"
  "http://www.w3.org/Graphics/SVG/1.1/DTD/svg11.dtd">
<svg xmlns:xlink="http://www.w3.org/1999/xlink" width="792pt" height="612pt" viewBox="0 0 792 612" xmlns="http://www.w3.org/2000/svg" version="1.1">
 <metadata>
  <rdf:RDF xmlns:dc="http://purl.org/dc/elements/1.1/" xmlns:cc="http://creativecommons.org/ns#" xmlns:rdf="http://www.w3.org/1999/02/22-rdf-syntax-ns#">
   <cc:Work>
    <dc:type rdf:resource="http://purl.org/dc/dcmitype/StillImage"/>
    <dc:date>2023-01-30T17:15:20.415802</dc:date>
    <dc:format>image/svg+xml</dc:format>
    <dc:creator>
     <cc:Agent>
      <dc:title>Matplotlib v3.6.2, https://matplotlib.org/</dc:title>
     </cc:Agent>
    </dc:creator>
   </cc:Work>
  </rdf:RDF>
 </metadata>
 <defs>
  <style type="text/css">*{stroke-linejoin: round; stroke-linecap: butt}</style>
 </defs>
 <g id="figure_1">
  <g id="patch_1">
   <path d="M 0 612 
L 792 612 
L 792 0 
L 0 0 
z
" style="fill: #ffffff"/>
  </g>
  <g id="axes_1">
   <g id="line2d_1">
    <path d="M 0 459 
L 46.588235 461.564442 
L 93.176471 452.396139 
L 139.764706 452.22053 
L 186.352941 444.531505 
L 232.941176 427.67825 
L 279.529412 439.059093 
L 326.117647 424.462998 
L 372.705882 401.55021 
L 419.294118 400.374908 
L 465.882353 409.172937 
L 512.470588 392.927159 
L 559.058824 393.236802 
L 605.647059 396.819267 
L 652.235294 407.264475 
L 698.823529 403.937718 
L 745.411765 387.261526 
" clip-path="url(#p87c33df7e3)" style="fill: none; stroke: #000000; stroke-width: 1.5; stroke-linecap: square"/>
   </g>
   <g id="line2d_2">
    <path d="M 0 459 
L 46.588235 459 
L 93.176471 460.709628 
L 139.764706 457.424204 
L 186.352941 454.648776 
L 232.941176 449.42581 
L 279.529412 438.367896 
L 326.117647 438.716204 
L 372.705882 431.555018 
L 419.294118 416.394559 
L 465.882353 408.240052 
L 512.470588 408.622329 
L 559.058824 400.642164 
L 605.647059 396.835765 
L 652.235294 396.767473 
L 698.823529 401.946623 
L 745.411765 402.90187 
" clip-path="url(#p87c33df7e3)" style="fill: none; stroke: #000000; stroke-width: 1.5; stroke-linecap: square"/>
   </g>
   <g id="line2d_3">
    <path d="M 0 459 
L 46.588235 459 
L 93.176471 460.502215 
L 139.764706 458.472471 
L 186.352941 456.030785 
L 232.941176 451.9383 
L 279.529412 443.806472 
L 326.117647 442.280775 
L 372.705882 436.70619 
L 419.294118 425.885786 
L 465.882353 418.143666 
L 512.470588 415.453207 
L 559.058824 408.723502 
L 605.647059 404.123128 
L 652.235294 401.963923 
L 698.823529 403.523504 
L 745.411765 403.645291 
" clip-path="url(#p87c33df7e3)" style="fill: none; stroke: #000000; stroke-width: 1.5; stroke-linecap: square"/>
   </g>
   <g id="line2d_4">
    <path d="M 0 459 
L 46.588235 459 
L 93.176471 460.39304 
L 139.764706 458.947007 
L 186.352941 456.806454 
L 232.941176 453.435573 
L 279.529412 447.086646 
L 326.117647 445.268248 
L 372.705882 440.847031 
L 419.294118 432.890167 
L 465.882353 426.575088 
L 512.470588 423.314239 
L 559.058824 417.757335 
L 605.647059 413.376233 
L 652.235294 410.476629 
L 698.823529 409.924178 
L 745.411765 408.906964 
" clip-path="url(#p87c33df7e3)" style="fill: none; stroke: #000000; stroke-width: 1.5; stroke-linecap: square"/>
   </g>
   <g id="line2d_5">
    <path d="M 0 459 
L 46.588235 459 
L 93.176471 460.337734 
L 139.764706 459.054449 
L 186.352941 457.195859 
L 232.941176 454.205277 
L 279.529412 448.766032 
L 326.117647 446.993474 
L 372.705882 443.246646 
L 419.294118 436.821415 
L 465.882353 431.573811 
L 512.470588 428.537955 
L 559.058824 423.935989 
L 605.647059 420.142952 
L 652.235294 417.375212 
L 698.823529 416.219289 
L 745.411765 414.856818 
" clip-path="url(#p87c33df7e3)" style="fill: none; stroke: #000000; stroke-width: 1.5; stroke-linecap: square"/>
   </g>
   <g id="line2d_6">
    <path d="M 0 459 
L 46.588235 459 
L 93.176471 460.309991 
L 139.764706 459.088457 
L 186.352941 457.38799 
L 232.941176 454.588313 
L 279.529412 449.596105 
L 326.117647 447.887352 
L 372.705882 444.490154 
L 419.294118 438.820708 
L 465.882353 434.158593 
L 512.470588 431.353983 
L 559.058824 427.30745 
L 605.647059 423.930993 
L 652.235294 421.389883 
L 698.823529 420.133349 
L 745.411765 418.755694 
" clip-path="url(#p87c33df7e3)" style="fill: none; stroke: #000000; stroke-width: 1.5; stroke-linecap: square"/>
   </g>
   <g id="line2d_7">
    <path d="M 0 459 
L 46.588235 459 
L 93.176471 460.296107 
L 139.764706 459.104916 
L 186.352941 457.483038 
L 232.941176 454.778431 
L 279.529412 450.006144 
L 326.117647 448.337876 
L 372.705882 445.116195 
L 419.294118 439.816479 
L 465.882353 435.45223 
L 512.470588 432.786199 
L 559.058824 429.028361 
L 605.647059 425.882217 
L 652.235294 423.488197 
L 698.823529 422.23131 
L 745.411765 420.888239 
" clip-path="url(#p87c33df7e3)" style="fill: none; stroke: #000000; stroke-width: 1.5; stroke-linecap: square"/>
   </g>
   <g id="line2d_8">
    <path d="M 0 459 
L 46.588235 459 
L 93.176471 460.289164 
L 139.764706 459.113006 
L 186.352941 457.530261 
L 232.941176 454.873022 
L 279.529412 450.209594 
L 326.117647 448.563475 
L 372.705882 445.429393 
L 419.294118 440.311777 
L 465.882353 436.096656 
L 512.470588 433.504514 
L 559.058824 429.89235 
L 605.647059 426.865231 
L 652.235294 424.551579 
L 698.823529 423.305814 
L 745.411765 421.989671 
" clip-path="url(#p87c33df7e3)" style="fill: none; stroke: #000000; stroke-width: 1.5; stroke-linecap: square"/>
   </g>
   <g id="line2d_9">
    <path d="M 0 459 
L 46.588235 459 
L 93.176471 460.285693 
L 139.764706 459.117015 
L 186.352941 457.553792 
L 232.941176 454.920185 
L 279.529412 450.310887 
L 326.117647 448.676288 
L 372.705882 445.585922 
L 419.294118 440.558576 
L 465.882353 436.41793 
L 512.470588 433.863728 
L 559.058824 430.324543 
L 605.647059 427.357676 
L 652.235294 425.085671 
L 698.823529 423.848078 
L 745.411765 422.547616 
" clip-path="url(#p87c33df7e3)" style="fill: none; stroke: #000000; stroke-width: 1.5; stroke-linecap: square"/>
   </g>
  </g>
 </g>
 <defs>
  <clipPath id="p87c33df7e3">
   <rect x="0" y="0" width="792" height="612"/>
  </clipPath>
 </defs>
</svg>
