<?xml version="1.0" encoding="utf-8" standalone="no"?>
<!DOCTYPE svg PUBLIC "-//W3C//DTD SVG 1.1//EN"
  "http://www.w3.org/Graphics/SVG/1.1/DTD/svg11.dtd">
<svg xmlns:xlink="http://www.w3.org/1999/xlink" width="792pt" height="612pt" viewBox="0 0 792 612" xmlns="http://www.w3.org/2000/svg" version="1.1">
 <metadata>
  <rdf:RDF xmlns:dc="http://purl.org/dc/elements/1.1/" xmlns:cc="http://creativecommons.org/ns#" xmlns:rdf="http://www.w3.org/1999/02/22-rdf-syntax-ns#">
   <cc:Work>
    <dc:type rdf:resource="http://purl.org/dc/dcmitype/StillImage"/>
    <dc:date>2023-01-09T02:29:35.138412</dc:date>
    <dc:format>image/svg+xml</dc:format>
    <dc:creator>
     <cc:Agent>
      <dc:title>Matplotlib v3.6.2, https://matplotlib.org/</dc:title>
     </cc:Agent>
    </dc:creator>
   </cc:Work>
  </rdf:RDF>
 </metadata>
 <defs>
  <style type="text/css">*{stroke-linejoin: round; stroke-linecap: butt}</style>
 </defs>
 <g id="figure_1">
  <g id="patch_1">
   <path d="M 0 612 
L 792 612 
L 792 0 
L 0 0 
z
" style="fill: #ffffff"/>
  </g>
  <g id="axes_1">
   <g id="line2d_1">
    <path d="M 0 459 
L 3.193548 448.587686 
L 6.387097 442.616248 
L 9.580645 459.666289 
L 12.774194 455.801863 
L 15.967742 461.378653 
L 19.16129 461.238732 
L 22.354839 463.457475 
L 25.548387 466.329182 
L 28.741935 463.397509 
L 31.935484 468.487959 
L 35.129032 471.412969 
L 38.322581 470.253625 
L 41.516129 463.997169 
L 44.709677 453.003738 
L 47.903226 454.023014 
L 54.290323 470.233637 
L 57.483871 465.929408 
L 60.677419 467.435222 
L 63.870968 467.128729 
L 67.064516 464.057135 
L 70.258065 466.968819 
L 73.451613 473.478465 
L 76.645161 474.477899 
L 79.83871 469.247529 
L 83.032258 470.919915 
L 86.225806 478.722162 
L 89.419355 480.847624 
L 92.612903 481.986979 
L 95.806452 485.045247 
L 99 475.88377 
L 102.193548 473.35187 
L 105.387097 471.726125 
L 108.580645 472.818839 
L 111.774194 471.819405 
L 114.967742 475.577276 
L 118.16129 476.73662 
L 121.354839 481.254061 
L 124.548387 484.019161 
L 127.741935 476.636676 
L 130.935484 478.642207 
L 134.129032 480.141358 
L 137.322581 483.32622 
L 140.516129 481.314027 
L 143.709677 475.030919 
L 146.903226 471.806079 
L 150.096774 466.215913 
L 153.290323 469.600662 
L 156.483871 466.609023 
L 159.677419 471.339677 
L 162.870968 469.427427 
L 166.064516 471.39298 
L 169.258065 468.561251 
L 172.451613 464.556852 
L 175.645161 468.787789 
L 178.83871 470.533467 
L 182.032258 470.580107 
L 185.225806 466.182598 
L 188.419355 471.985977 
L 191.612903 478.195793 
L 194.806452 478.635544 
L 198 480.627749 
L 201.193548 481.773766 
L 204.387097 482.200192 
L 207.580645 481.593868 
L 210.774194 485.798154 
L 213.967742 487.397248 
L 217.16129 484.478901 
L 220.354839 487.916953 
L 223.548387 493.913557 
L 226.741935 497.778034 
L 229.935484 495.685886 
L 233.129032 498.677525 
L 236.322581 495.612594 
L 239.516129 488.243435 
L 242.709677 494.77307 
L 245.903226 493.687018 
L 249.096774 493.16065 
L 252.290323 488.41667 
L 255.483871 497.198363 
L 258.677419 498.930715 
L 261.870968 502.995079 
L 265.064516 500.629752 
L 268.258065 504.547533 
L 271.451613 505.113879 
L 274.645161 500.789662 
L 277.83871 502.648609 
L 281.032258 502.908461 
L 284.225806 507.172713 
L 287.419355 508.325393 
L 290.612903 505.626922 
L 293.806452 505.180508 
L 297 507.439228 
L 306.580645 501.995645 
L 309.774194 505.233811 
L 312.967742 494.686452 
L 316.16129 486.471106 
L 319.354839 488.796455 
L 322.548387 490.155685 
L 325.741935 487.303967 
L 328.935484 485.944737 
L 332.129032 487.330619 
L 335.322581 493.100684 
L 338.516129 501.375996 
L 341.709677 502.428733 
L 344.903226 499.696947 
L 348.096774 505.493664 
L 354.483871 500.842965 
L 357.677419 500.429865 
L 360.870968 496.698646 
L 364.064516 488.123503 
L 367.258065 491.195096 
L 370.451613 497.758046 
L 373.645161 498.324391 
L 376.83871 502.035623 
L 380.032258 499.930148 
L 383.225806 497.264992 
L 386.419355 496.911858 
L 389.612903 494.306667 
L 396 495.825807 
L 399.193548 501.176109 
L 402.387097 503.068371 
L 405.580645 504.70078 
L 408.774194 500.476506 
L 411.967742 500.136698 
L 415.16129 496.192266 
L 418.354839 490.435527 
L 421.548387 488.503288 
L 424.741935 490.422201 
L 427.935484 493.873579 
L 431.129032 498.424335 
L 434.322581 491.868049 
L 437.516129 491.208422 
L 440.709677 489.389453 
L 443.903226 490.082393 
L 447.096774 489.542699 
L 450.290323 485.638244 
L 453.483871 484.558856 
L 456.677419 485.291774 
L 459.870968 485.571615 
L 463.064516 490.575447 
L 466.258065 486.331185 
L 469.451613 487.583809 
L 472.645161 485.478335 
L 475.83871 484.698776 
L 482.225806 486.764273 
L 485.419355 486.784262 
L 488.612903 489.556025 
L 491.806452 494.080129 
L 495 494.733092 
L 498.193548 492.061272 
L 501.387097 496.125637 
L 504.580645 501.909028 
L 507.774194 505.2538 
L 510.967742 505.613596 
L 514.16129 507.978923 
L 517.354839 509.704612 
L 520.548387 509.598005 
L 523.741935 510.910595 
L 526.935484 509.871184 
L 530.129032 507.459217 
L 533.322581 503.668031 
L 536.516129 501.642512 
L 539.709677 506.65967 
L 542.903226 505.207159 
L 546.096774 508.87175 
L 549.290323 511.050516 
L 552.483871 510.171014 
L 555.677419 512.189871 
L 558.870968 513.635718 
L 562.064516 511.956669 
L 565.258065 514.048818 
L 568.451613 514.508557 
L 571.645161 512.796194 
L 574.83871 511.943344 
L 578.032258 514.182076 
L 581.225806 516.160955 
L 584.419355 513.45582 
L 587.612903 508.238775 
L 590.806452 507.905631 
L 594 508.418674 
L 597.193548 511.863389 
L 600.387097 514.961634 
L 603.580645 517.007142 
L 606.774194 517.193703 
L 609.967742 515.094892 
L 613.16129 517.240343 
L 616.354839 513.935548 
L 619.548387 509.704612 
L 622.741935 509.611331 
L 625.935484 507.059443 
L 629.129032 505.280451 
L 632.322581 504.960632 
L 635.516129 501.882376 
L 638.709677 505.453686 
L 641.903226 505.560293 
L 645.096774 503.381527 
L 648.290323 503.668031 
L 651.483871 505.513652 
L 654.677419 512.04995 
L 657.870968 514.501894 
L 661.064516 518.872752 
L 664.258065 515.661238 
L 667.451613 513.988852 
L 670.645161 517.346949 
L 673.83871 507.858991 
L 677.032258 506.906197 
L 680.225806 506.286548 
L 683.419355 504.014502 
L 686.612903 508.645212 
L 689.806452 512.263162 
L 693 513.36254 
L 696.193548 515.488002 
L 699.387097 512.55633 
L 702.580645 510.564125 
L 705.774194 509.824544 
L 708.967742 509.598005 
L 712.16129 510.937247 
L 715.354839 505.227148 
L 718.548387 514.055481 
L 721.741935 515.681226 
L 724.935484 522.763881 
L 728.129032 523.203632 
L 731.322581 525.062579 
L 734.516129 525.29578 
L 737.709677 524.642817 
L 740.903226 523.310238 
L 744.096774 521.637852 
L 747.290323 522.217524 
L 750.483871 525.089231 
L 753.677419 526.535078 
L 756.870968 526.042024 
L 760.064516 526.415146 
L 763.258065 525.182511 
L 766.451613 525.75552 
L 769.645161 524.942647 
L 772.83871 526.40182 
L 776.032258 523.690023 
L 779.225806 523.656709 
L 782.419355 522.197535 
L 785.612903 518.992684 
L 788.806452 518.379698 
L 788.806452 518.379698 
" clip-path="url(#paf333c3f76)" style="fill: none; stroke: #000000; stroke-width: 1.5; stroke-linecap: square"/>
   </g>
   <g id="line2d_2">
    <path d="M 0 459 
L 3.193548 459 
L 6.387097 452.057795 
L 9.580645 446.661393 
L 12.774194 454.306822 
L 15.967742 455.078446 
L 19.16129 459.564971 
L 22.354839 460.408441 
L 25.548387 461.938937 
L 28.741935 464.14843 
L 31.935484 463.788399 
L 35.129032 466.167496 
L 38.322581 468.813265 
L 41.516129 469.557601 
L 44.709677 466.78252 
L 47.903226 461.883517 
L 51.096774 459.600235 
L 54.290323 460.830911 
L 57.483871 465.545678 
L 60.677419 465.732526 
L 63.870968 466.576075 
L 67.064516 466.846274 
L 70.258065 465.451822 
L 73.451613 466.229865 
L 76.645161 469.885808 
L 79.83871 472.206166 
L 83.032258 470.724914 
L 86.225806 470.8322 
L 89.419355 474.799312 
L 92.612903 477.850368 
L 95.806452 479.95383 
L 99 482.534982 
L 102.193548 479.214092 
L 105.387097 476.280773 
L 108.580645 474.008309 
L 111.774194 473.417297 
L 114.967742 472.604816 
L 118.16129 474.080712 
L 121.354839 475.398371 
L 127.741935 481.184924 
L 130.935484 478.917241 
L 134.129032 478.793285 
L 137.322581 479.481679 
L 140.516129 481.426512 
L 143.709677 481.381518 
L 150.096774 474.985951 
L 153.290323 470.566024 
L 156.483871 470.069547 
L 159.677419 468.31569 
L 162.870968 469.810425 
L 166.064516 469.591674 
L 169.258065 470.472874 
L 172.451613 469.504377 
L 175.645161 467.0164 
L 178.83871 467.907138 
L 182.032258 469.222131 
L 185.225806 469.908906 
L 188.419355 468.03564 
L 191.612903 470.015825 
L 194.806452 474.119148 
L 201.193548 478.543936 
L 204.387097 480.184314 
L 207.580645 481.215129 
L 210.774194 481.426094 
L 213.967742 483.650586 
L 217.16129 485.554135 
L 220.354839 485.028838 
L 223.548387 486.491094 
L 229.935484 494.034586 
L 233.129032 494.886679 
L 236.322581 496.815599 
L 239.516129 496.233341 
L 242.709677 492.240047 
L 245.903226 493.526743 
L 249.096774 493.618194 
L 252.290323 493.387946 
L 255.483871 490.883952 
L 258.677419 494.044123 
L 261.870968 496.487915 
L 265.064516 499.755973 
L 268.258065 500.217149 
L 271.451613 502.401507 
L 274.645161 503.780098 
L 277.83871 502.299839 
L 284.225806 502.716492 
L 287.419355 504.960763 
L 290.612903 506.65353 
L 297 505.666507 
L 300.193548 506.557427 
L 303.387097 506.101659 
L 306.580645 504.930323 
L 309.774194 503.461194 
L 312.967742 504.343701 
L 316.16129 499.488333 
L 319.354839 492.942159 
L 322.548387 490.837182 
L 325.741935 490.462544 
L 328.935484 488.847328 
L 332.129032 487.361111 
L 335.322581 487.31711 
L 338.516129 490.185106 
L 341.709677 495.793668 
L 344.903226 499.14249 
L 348.096774 499.441092 
L 351.290323 502.497452 
L 354.483871 502.890746 
L 357.677419 501.896068 
L 360.870968 501.188651 
L 364.064516 498.950703 
L 367.258065 493.511118 
L 370.451613 492.33108 
L 373.645161 495.040761 
L 376.83871 496.668519 
L 380.032258 499.349745 
L 383.225806 499.638157 
L 386.419355 498.445369 
L 389.612903 497.679031 
L 392.806452 496.004973 
L 396 495.543196 
L 399.193548 495.680712 
L 402.387097 498.434003 
L 405.580645 500.753212 
L 408.774194 502.73635 
L 411.967742 501.612725 
L 415.16129 500.881035 
L 418.354839 498.540348 
L 421.548387 494.478857 
L 424.741935 491.476715 
L 427.935484 490.928372 
L 431.129032 492.382946 
L 434.322581 495.391334 
L 437.516129 493.612812 
L 440.709677 492.393111 
L 443.903226 490.877943 
L 450.290323 490.013125 
L 453.483871 487.816304 
L 456.677419 486.169316 
L 459.870968 485.704795 
L 463.064516 485.625859 
L 466.258065 488.099412 
L 469.451613 487.209302 
L 472.645161 487.391656 
L 479.032258 485.561059 
L 482.225806 485.621835 
L 485.419355 486.195941 
L 488.612903 486.492479 
L 491.806452 488.022253 
L 495 491.066385 
L 498.193548 492.913757 
L 501.387097 492.500422 
L 504.580645 494.335435 
L 507.774194 498.154057 
L 510.967742 501.740182 
L 514.16129 503.713809 
L 517.354839 505.882489 
L 520.548387 507.824187 
L 523.741935 508.740243 
L 526.935484 509.862379 
L 530.129032 509.893733 
L 533.322581 508.687358 
L 536.516129 506.174585 
L 539.709677 503.900762 
L 542.903226 505.277629 
L 546.096774 505.233576 
L 549.290323 507.051239 
L 552.483871 509.051152 
L 555.677419 509.611671 
L 562.064516 512.292427 
L 565.258065 512.144772 
L 568.451613 513.111283 
L 571.645161 513.828158 
L 574.83871 513.319871 
L 578.032258 512.633358 
L 581.225806 513.415582 
L 584.419355 514.796055 
L 587.612903 514.125585 
L 590.806452 511.17489 
L 594 509.528215 
L 597.193548 508.961503 
L 600.387097 510.410617 
L 606.774194 514.855132 
L 609.967742 516.026443 
L 613.16129 515.563881 
L 616.354839 516.419762 
L 619.548387 515.189479 
L 622.741935 512.449567 
L 625.935484 511.026033 
L 632.322581 507.130854 
L 635.516129 506.021757 
L 638.709677 503.926159 
L 641.903226 504.666812 
L 645.096774 505.09713 
L 648.290323 504.22693 
L 651.483871 503.935827 
L 654.677419 504.721709 
L 657.870968 508.399103 
L 661.064516 511.469207 
L 664.258065 515.204294 
L 667.451613 515.452781 
L 670.645161 514.737343 
L 673.83871 516.069529 
L 677.032258 511.972477 
L 680.225806 509.442068 
L 683.419355 507.853007 
L 686.612903 505.913191 
L 689.806452 507.259147 
L 693 509.754492 
L 696.193548 511.557288 
L 699.387097 513.519 
L 702.580645 513.046875 
L 705.774194 511.812673 
L 708.967742 510.825545 
L 712.16129 510.222724 
L 715.354839 510.584479 
L 718.548387 507.892018 
L 721.741935 510.975108 
L 724.935484 513.328546 
L 728.129032 518.066228 
L 731.322581 520.659713 
L 734.516129 522.891025 
L 737.709677 524.124182 
L 740.903226 524.410373 
L 744.096774 523.895763 
L 747.290323 522.781675 
L 750.483871 522.512416 
L 756.870968 525.176763 
L 763.258065 526.015425 
L 766.451613 525.600026 
L 769.645161 525.682568 
L 772.83871 525.319087 
L 776.032258 525.868658 
L 779.225806 524.776597 
L 782.419355 524.211009 
L 785.612903 523.196734 
L 788.806452 521.080155 
L 788.806452 521.080155 
" clip-path="url(#paf333c3f76)" style="fill: none; stroke: #000000; stroke-width: 1.5; stroke-linecap: square"/>
   </g>
   <g id="line2d_3">
    <path d="M 0 459 
L 3.193548 459 
L 6.387097 452.89992 
L 9.580645 448.239196 
L 12.774194 453.221261 
L 15.967742 454.139376 
L 19.16129 458.154933 
L 22.354839 459.528101 
L 25.548387 460.755714 
L 28.741935 462.463624 
L 31.935484 462.745976 
L 35.129032 464.465767 
L 38.322581 466.532853 
L 41.516129 467.634817 
L 44.709677 466.560986 
L 47.903226 463.745415 
L 51.096774 461.862232 
L 54.290323 461.92904 
L 57.483871 464.37829 
L 60.677419 464.846837 
L 63.870968 465.61388 
L 67.064516 466.06813 
L 70.258065 465.4822 
L 73.451613 465.924202 
L 76.645161 468.148305 
L 79.83871 470.01156 
L 83.032258 469.7945 
L 86.225806 470.126919 
L 92.612903 475.065179 
L 95.806452 477.11319 
L 99 479.468647 
L 102.193548 478.439959 
L 108.580645 475.430615 
L 114.967742 473.842631 
L 118.16129 474.360401 
L 121.354839 475.070943 
L 124.548387 476.898344 
L 127.741935 478.99609 
L 130.935484 478.307514 
L 134.129032 478.416334 
L 137.322581 478.932173 
L 140.516129 480.224448 
L 143.709677 480.544114 
L 146.903226 478.921347 
L 150.096774 476.822127 
L 153.290323 473.704534 
L 156.483871 472.498229 
L 159.677419 470.767443 
L 162.870968 470.933348 
L 166.064516 470.489526 
L 169.258065 470.749336 
L 172.451613 470.09907 
L 175.645161 468.456614 
L 178.83871 468.536118 
L 182.032258 469.114118 
L 185.225806 469.534236 
L 188.419355 468.536531 
L 191.612903 469.533825 
L 194.806452 472.067275 
L 201.193548 475.947973 
L 204.387097 477.672178 
L 207.580645 479.012874 
L 210.774194 479.786042 
L 217.16129 483.292845 
L 220.354839 483.655263 
L 223.548387 484.925715 
L 226.741935 487.591912 
L 229.935484 490.608656 
L 233.129032 492.124633 
L 236.322581 494.076203 
L 239.516129 494.560005 
L 242.709677 492.728598 
L 245.903226 493.34645 
L 249.096774 493.463489 
L 252.290323 493.389184 
L 255.483871 491.940399 
L 261.870968 495.108869 
L 265.064516 497.438439 
L 268.258065 498.388352 
L 271.451613 500.215385 
L 274.645161 501.669873 
L 277.83871 501.419963 
L 284.225806 502.122647 
L 290.612903 505.006793 
L 293.806452 505.208391 
L 297 505.212179 
L 300.193548 505.880262 
L 303.387097 505.820379 
L 306.580645 505.232958 
L 309.774194 504.290281 
L 312.967742 504.573874 
L 316.16129 501.668372 
L 319.354839 497.200933 
L 322.548387 494.721227 
L 325.741935 493.36683 
L 332.129032 489.90715 
L 335.322581 489.134609 
L 338.516129 490.280082 
L 341.709677 493.522018 
L 344.903226 496.127061 
L 348.096774 497.166358 
L 351.290323 499.603135 
L 354.483871 500.660201 
L 357.677419 500.710387 
L 360.870968 500.626426 
L 364.064516 499.466202 
L 367.258065 496.136464 
L 370.451613 494.694597 
L 376.83871 496.408861 
L 380.032258 498.073822 
L 383.225806 498.633591 
L 389.612903 497.858307 
L 392.806452 496.809936 
L 396 496.290762 
L 399.193548 496.150133 
L 402.387097 497.617248 
L 408.774194 500.825238 
L 415.16129 500.555331 
L 418.354839 499.286687 
L 421.548387 496.69337 
L 424.741935 494.28392 
L 427.935484 493.143772 
L 431.129032 493.348153 
L 434.322581 494.833203 
L 440.709677 493.146491 
L 443.903226 492.040432 
L 450.290323 490.892075 
L 453.483871 489.335417 
L 456.677419 487.915135 
L 459.870968 487.124477 
L 463.064516 486.652534 
L 466.258065 487.790547 
L 469.451613 487.351783 
L 472.645161 487.416466 
L 479.032258 486.210042 
L 482.225806 486.044863 
L 488.612903 486.395113 
L 491.806452 487.319025 
L 495 489.304694 
L 498.193548 490.899977 
L 501.387097 491.243005 
L 504.580645 492.685141 
L 507.774194 495.406683 
L 510.967742 498.313765 
L 520.548387 504.773314 
L 526.935484 507.617199 
L 530.129032 508.306289 
L 533.322581 508.083205 
L 536.516129 506.809446 
L 539.709677 505.313152 
L 542.903226 505.727184 
L 546.096774 505.587653 
L 549.290323 506.565782 
L 552.483871 507.901141 
L 555.677419 508.582104 
L 562.064516 510.827444 
L 565.258065 511.165472 
L 568.451613 512.016956 
L 571.645161 512.752247 
L 574.83871 512.768792 
L 578.032258 512.52821 
L 581.225806 513.017568 
L 584.419355 513.948239 
L 587.612903 513.815255 
L 590.806452 512.189519 
L 594 510.936228 
L 597.193548 510.202542 
L 600.387097 510.692429 
L 603.580645 511.947343 
L 606.774194 513.437175 
L 609.967742 514.543184 
L 613.16129 514.706452 
L 616.354839 515.45468 
L 619.548387 515.009607 
L 622.741935 513.450292 
L 625.935484 512.322228 
L 632.322581 509.15559 
L 635.516129 507.914051 
L 638.709677 506.134121 
L 645.096774 505.820172 
L 648.290323 505.100124 
L 651.483871 504.67126 
L 654.677419 504.907139 
L 661.064516 509.189585 
L 664.258065 512.030058 
L 667.451613 513.091792 
L 670.645161 513.354596 
L 673.83871 514.532707 
L 677.032258 512.576008 
L 680.225806 510.915183 
L 683.419355 509.560643 
L 686.612903 507.935129 
L 689.806452 508.150875 
L 696.193548 510.543511 
L 699.387097 512.005625 
L 702.580645 512.177132 
L 712.16129 510.693727 
L 715.354839 510.755938 
L 718.548387 509.124608 
L 724.935484 512.064355 
L 728.129032 515.215293 
L 731.322581 517.573743 
L 734.516129 519.788738 
L 737.709677 521.426157 
L 740.903226 522.38667 
L 744.096774 522.669865 
L 747.290323 522.377101 
L 750.483871 522.338091 
L 753.677419 523.158277 
L 756.870968 524.165663 
L 763.258065 525.245616 
L 766.451613 525.243495 
L 769.645161 525.417043 
L 772.83871 525.2906 
L 776.032258 525.628383 
L 779.225806 525.061714 
L 782.419355 524.650718 
L 785.612903 523.928907 
L 788.806452 522.475881 
L 788.806452 522.475881 
" clip-path="url(#paf333c3f76)" style="fill: none; stroke: #000000; stroke-width: 1.5; stroke-linecap: square"/>
   </g>
   <g id="line2d_4">
    <path d="M 0 459 
L 3.193548 459 
L 6.387097 453.343205 
L 9.580645 449.131872 
L 12.774194 452.907356 
L 15.967742 453.701943 
L 19.16129 456.762046 
L 22.354839 458.789414 
L 25.548387 459.890296 
L 28.741935 461.187436 
L 31.935484 461.614575 
L 35.129032 462.899101 
L 38.322581 464.4472 
L 41.516129 465.479534 
L 44.709677 465.220817 
L 47.903226 463.808029 
L 51.096774 462.710496 
L 54.290323 462.604325 
L 57.483871 463.874301 
L 60.677419 464.213896 
L 63.870968 464.742954 
L 67.064516 465.132783 
L 70.258065 464.957777 
L 73.451613 465.283799 
L 79.83871 467.877047 
L 83.032258 468.097532 
L 86.225806 468.550794 
L 95.806452 473.50541 
L 99 475.350008 
L 102.193548 475.435265 
L 105.387097 475.112744 
L 108.580645 474.584027 
L 111.774194 474.31521 
L 114.967742 473.925701 
L 118.16129 474.199481 
L 121.354839 474.612731 
L 124.548387 475.681879 
L 127.741935 477.0212 
L 130.935484 476.966452 
L 134.129032 477.242582 
L 137.322581 477.711059 
L 140.516129 478.611884 
L 143.709677 479.048706 
L 146.903226 478.416346 
L 150.096774 477.373866 
L 153.290323 475.604133 
L 156.483871 474.653653 
L 159.677419 473.371462 
L 162.870968 473.051573 
L 166.064516 472.476202 
L 169.258065 472.306518 
L 172.451613 471.713443 
L 175.645161 470.573299 
L 178.83871 470.286291 
L 185.225806 470.36487 
L 188.419355 469.696499 
L 191.612903 470.056561 
L 194.806452 471.349887 
L 198 472.50697 
L 204.387097 475.069184 
L 207.580645 476.209274 
L 210.774194 477.072139 
L 217.16129 479.89888 
L 220.354839 480.633132 
L 223.548387 481.79899 
L 226.741935 483.73436 
L 229.935484 485.977343 
L 233.129032 487.533893 
L 236.322581 489.319385 
L 239.516129 490.33031 
L 242.709677 490.001349 
L 245.903226 490.768945 
L 249.096774 491.244861 
L 252.290323 491.562993 
L 255.483871 491.076254 
L 258.677419 492.067523 
L 261.870968 493.179648 
L 265.064516 494.761069 
L 268.258065 495.714266 
L 271.451613 497.140357 
L 274.645161 498.431779 
L 277.83871 498.829534 
L 284.225806 500.027424 
L 290.612903 502.349119 
L 293.806452 502.891619 
L 297 503.272626 
L 300.193548 503.953519 
L 303.387097 504.235361 
L 306.580645 504.172593 
L 309.774194 503.838584 
L 312.967742 504.075319 
L 316.16129 502.587063 
L 319.354839 500.022378 
L 322.548387 498.238987 
L 325.741935 496.954302 
L 332.129032 493.900675 
L 335.322581 492.850142 
L 338.516129 492.886525 
L 344.903226 495.552402 
L 348.096774 496.214886 
L 351.290323 497.69854 
L 354.483871 498.583559 
L 357.677419 498.950791 
L 360.870968 499.188134 
L 364.064516 498.790654 
L 367.258065 497.084194 
L 370.451613 496.14133 
L 376.83871 496.697165 
L 380.032258 497.54731 
L 383.225806 497.924732 
L 389.612903 497.665951 
L 392.806452 497.12273 
L 396 496.788945 
L 399.193548 496.62987 
L 402.387097 497.349285 
L 405.580645 498.257616 
L 408.774194 499.283336 
L 415.16129 499.574766 
L 418.354839 499.037537 
L 424.741935 496.212538 
L 427.935484 495.291441 
L 431.129032 495.069953 
L 434.322581 495.611434 
L 440.709677 494.411273 
L 443.903226 493.604804 
L 450.290323 492.474433 
L 456.677419 490.278363 
L 459.870968 489.475276 
L 463.064516 488.844919 
L 466.258065 489.116432 
L 469.451613 488.672171 
L 472.645161 488.496755 
L 479.032258 487.473706 
L 482.225806 487.177832 
L 488.612903 487.046436 
L 491.806452 487.441131 
L 498.193548 489.489211 
L 501.387097 489.896086 
L 504.580645 490.884079 
L 507.774194 492.637464 
L 510.967742 494.645114 
L 517.354839 498.241628 
L 520.548387 500.073861 
L 526.935484 503.09629 
L 530.129032 504.186335 
L 533.322581 504.715539 
L 536.516129 504.552148 
L 539.709677 504.095313 
L 542.903226 504.512952 
L 546.096774 504.633272 
L 549.290323 505.319353 
L 552.483871 506.244621 
L 555.677419 506.884631 
L 562.064516 508.700721 
L 565.258065 509.235217 
L 571.645161 510.748131 
L 574.83871 511.089716 
L 578.032258 511.242043 
L 581.225806 511.728209 
L 584.419355 512.452494 
L 587.612903 512.62878 
L 594 511.312679 
L 597.193548 510.861178 
L 600.387097 511.031322 
L 603.580645 511.670937 
L 609.967742 513.28405 
L 613.16129 513.578302 
L 616.354839 514.1682 
L 619.548387 514.134901 
L 625.935484 512.822466 
L 629.129032 511.903146 
L 632.322581 510.846587 
L 635.516129 509.908552 
L 638.709677 508.630444 
L 648.290323 507.027138 
L 651.483871 506.489445 
L 654.677419 506.330739 
L 657.870968 507.241858 
L 661.064516 508.398398 
L 664.258065 510.068173 
L 667.451613 510.960361 
L 670.645161 511.442167 
L 673.83871 512.38341 
L 683.419355 510.161824 
L 686.612903 509.176184 
L 689.806452 509.088703 
L 696.193548 510.198912 
L 699.387097 511.044836 
L 702.580645 511.285752 
L 708.967742 510.949934 
L 712.16129 510.730098 
L 715.354839 510.760462 
L 718.548387 509.872597 
L 721.741935 510.538183 
L 724.935484 511.360189 
L 728.129032 513.182763 
L 734.516129 516.434386 
L 737.709677 517.856953 
L 740.903226 518.95081 
L 744.096774 519.655552 
L 750.483871 520.34857 
L 760.064516 522.644659 
L 763.258065 523.25199 
L 776.032258 524.461812 
L 782.419355 524.249217 
L 785.612903 523.932715 
L 788.806452 523.156083 
L 788.806452 523.156083 
" clip-path="url(#paf333c3f76)" style="fill: none; stroke: #000000; stroke-width: 1.5; stroke-linecap: square"/>
   </g>
   <g id="line2d_5">
    <path d="M 0 459 
L 3.193548 459 
L 6.387097 453.567766 
L 9.580645 449.595434 
L 12.774194 452.826207 
L 15.967742 453.528619 
L 19.16129 456.109525 
L 22.354839 457.862815 
L 25.548387 459.423764 
L 28.741935 460.482164 
L 31.935484 460.899662 
L 35.129032 461.924645 
L 38.322581 463.142832 
L 41.516129 464.016131 
L 44.709677 464.013892 
L 47.903226 463.21371 
L 51.096774 462.563822 
L 54.290323 462.511535 
L 57.483871 463.323035 
L 60.677419 463.591013 
L 67.064516 464.290611 
L 70.258065 464.26785 
L 73.451613 464.5274 
L 79.83871 466.229612 
L 83.032258 466.509508 
L 86.225806 466.9146 
L 92.612903 469.150887 
L 95.806452 470.30177 
L 99 471.614919 
L 102.193548 471.992836 
L 105.387097 472.112488 
L 114.967742 472.115072 
L 121.354839 472.787117 
L 124.548387 473.514631 
L 127.741935 474.414588 
L 130.935484 474.604454 
L 137.322581 475.390233 
L 140.516129 476.063771 
L 143.709677 476.508533 
L 146.903226 476.383576 
L 150.096774 475.997076 
L 153.290323 475.172394 
L 156.483871 474.70324 
L 159.677419 474.022509 
L 162.870968 473.797129 
L 166.064516 473.43041 
L 169.258065 473.259581 
L 172.451613 472.865981 
L 175.645161 472.170431 
L 178.83871 471.887475 
L 185.225806 471.67452 
L 188.419355 471.21595 
L 191.612903 471.280214 
L 201.193548 473.106242 
L 207.580645 474.530806 
L 210.774194 475.125495 
L 217.16129 476.974926 
L 220.354839 477.606365 
L 223.548387 478.47074 
L 226.741935 479.763066 
L 229.935484 481.269406 
L 233.129032 482.475471 
L 236.322581 483.831658 
L 239.516129 484.818257 
L 242.709677 485.108011 
L 245.903226 485.918152 
L 252.290323 487.13115 
L 255.483871 487.247957 
L 261.870968 488.994703 
L 265.064516 490.168742 
L 268.258065 491.047767 
L 274.645161 493.267164 
L 281.032258 494.637893 
L 284.225806 495.333571 
L 290.612903 497.336382 
L 300.193548 499.37339 
L 303.387097 499.899107 
L 306.580645 500.228173 
L 309.774194 500.384188 
L 312.967742 500.797593 
L 316.16129 500.297511 
L 319.354839 499.154744 
L 322.548387 498.29935 
L 325.741935 497.627827 
L 335.322581 495.169226 
L 338.516129 495.002252 
L 344.903226 496.116265 
L 348.096774 496.41943 
L 351.290323 497.18247 
L 354.483871 497.69392 
L 360.870968 498.181027 
L 364.064516 498.067789 
L 367.258065 497.247916 
L 370.451613 496.752642 
L 376.83871 496.977165 
L 380.032258 497.409195 
L 383.225806 497.62856 
L 389.612903 497.557955 
L 396 497.119611 
L 399.193548 497.017968 
L 402.387097 497.370414 
L 408.774194 498.426622 
L 415.16129 498.736053 
L 418.354839 498.528312 
L 427.935484 496.530601 
L 431.129032 496.310066 
L 434.322581 496.485752 
L 440.709677 495.692742 
L 447.096774 494.746119 
L 450.290323 494.312554 
L 459.870968 492.210359 
L 463.064516 491.655586 
L 466.258065 491.563219 
L 469.451613 491.123558 
L 472.645161 490.825527 
L 482.225806 489.542612 
L 488.612903 489.092239 
L 491.806452 489.124997 
L 498.193548 489.959772 
L 501.387097 490.129918 
L 504.580645 490.623857 
L 507.774194 491.55927 
L 526.935484 498.437297 
L 530.129032 499.39268 
L 533.322581 500.06873 
L 536.516129 500.373226 
L 539.709677 500.48323 
L 542.903226 501.000262 
L 546.096774 501.350665 
L 549.290323 501.976981 
L 552.483871 502.733743 
L 555.677419 503.352529 
L 568.451613 506.19321 
L 571.645161 506.891938 
L 574.83871 507.388998 
L 578.032258 507.771607 
L 581.225806 508.308811 
L 584.419355 508.965105 
L 587.612903 509.342218 
L 597.193548 509.0901 
L 600.387097 509.325739 
L 603.580645 509.799723 
L 609.967742 510.971256 
L 613.16129 511.316884 
L 616.354839 511.813963 
L 619.548387 511.994537 
L 625.935484 511.632734 
L 629.129032 511.259209 
L 635.516129 510.289467 
L 638.709677 509.592838 
L 648.290323 508.494097 
L 651.483871 508.097975 
L 654.677419 507.888685 
L 657.870968 508.242649 
L 661.064516 508.771887 
L 664.258065 509.621148 
L 667.451613 510.132244 
L 670.645161 510.459947 
L 673.83871 511.041635 
L 680.225806 510.469213 
L 683.419355 510.129095 
L 686.612903 509.627576 
L 689.806452 509.553166 
L 696.193548 510.090933 
L 699.387097 510.545835 
L 702.580645 510.718499 
L 708.967742 510.642537 
L 712.16129 510.558347 
L 715.354839 510.591644 
L 718.548387 510.146287 
L 724.935484 510.906943 
L 737.709677 514.812544 
L 740.903226 515.635244 
L 744.096774 516.27929 
L 750.483871 517.189973 
L 763.258065 519.804755 
L 776.032258 521.516593 
L 782.419355 521.866693 
L 785.612903 521.89676 
L 788.806452 521.656655 
L 788.806452 521.656655 
" clip-path="url(#paf333c3f76)" style="fill: none; stroke: #000000; stroke-width: 1.5; stroke-linecap: square"/>
   </g>
   <g id="line2d_6">
    <path d="M 0 459 
L 3.193548 459 
L 6.387097 453.680416 
L 9.580645 449.830127 
L 12.774194 452.805769 
L 15.967742 453.457961 
L 19.16129 455.80606 
L 22.354839 457.412209 
L 25.548387 459.192572 
L 28.741935 460.129688 
L 31.935484 460.523752 
L 35.129032 461.414498 
L 38.322581 462.460147 
L 41.516129 463.22748 
L 44.709677 463.299239 
L 51.096774 462.282618 
L 54.290323 462.265994 
L 57.483871 462.889823 
L 63.870968 463.43527 
L 67.064516 463.6974 
L 70.258065 463.722222 
L 73.451613 463.940431 
L 79.83871 465.20131 
L 86.225806 465.791162 
L 92.612903 467.417512 
L 99 469.229409 
L 102.193548 469.605573 
L 108.580645 469.919555 
L 118.16129 470.457586 
L 121.354839 470.787371 
L 127.741935 471.98501 
L 134.129032 472.547249 
L 137.322581 472.928378 
L 140.516129 473.446185 
L 143.709677 473.83512 
L 146.903226 473.893819 
L 150.096774 473.792017 
L 153.290323 473.424929 
L 156.483871 473.240746 
L 159.677419 472.923182 
L 169.258065 472.624782 
L 172.451613 472.434125 
L 175.645161 472.066194 
L 182.032258 471.849794 
L 185.225806 471.791216 
L 188.419355 471.533419 
L 191.612903 471.554147 
L 201.193548 472.549516 
L 213.967742 474.292693 
L 217.16129 474.879103 
L 220.354839 475.307672 
L 223.548387 475.869333 
L 226.741935 476.671363 
L 229.935484 477.607592 
L 239.516129 480.022951 
L 242.709677 480.384925 
L 249.096774 481.573544 
L 252.290323 482.081371 
L 255.483871 482.358631 
L 261.870968 483.702218 
L 265.064516 484.543251 
L 268.258065 485.243671 
L 274.645161 486.909978 
L 284.225806 488.806993 
L 290.612903 490.411273 
L 303.387097 492.929448 
L 312.967742 494.259107 
L 316.16129 494.277477 
L 319.354839 493.942106 
L 335.322581 492.741922 
L 338.516129 492.757288 
L 357.677419 494.934513 
L 360.870968 495.169254 
L 364.064516 495.234563 
L 367.258065 494.930995 
L 370.451613 494.771557 
L 376.83871 495.045083 
L 383.225806 495.538731 
L 389.612903 495.667685 
L 399.193548 495.596742 
L 405.580645 496.142258 
L 408.774194 496.506534 
L 415.16129 496.835639 
L 418.354839 496.815454 
L 427.935484 495.973282 
L 431.129032 495.889687 
L 434.322581 496.002962 
L 443.903226 495.378956 
L 450.290323 494.922661 
L 463.064516 493.402338 
L 466.258065 493.285869 
L 482.225806 491.865919 
L 488.612903 491.447512 
L 491.806452 491.370696 
L 504.580645 491.841879 
L 507.774194 492.271497 
L 517.354839 493.999487 
L 526.935484 495.977847 
L 530.129032 496.572388 
L 533.322581 497.03831 
L 546.096774 498.216396 
L 555.677419 499.673018 
L 574.83871 502.812574 
L 581.225806 503.679347 
L 584.419355 504.217106 
L 587.612903 504.616224 
L 600.387097 505.365159 
L 606.774194 506.260583 
L 613.16129 507.090367 
L 616.354839 507.526519 
L 619.548387 507.803618 
L 625.935484 507.964937 
L 632.322581 507.820844 
L 635.516129 507.701417 
L 638.709677 507.455391 
L 648.290323 507.131787 
L 654.677419 506.926799 
L 661.064516 507.462426 
L 664.258065 507.95125 
L 673.83871 508.902066 
L 683.419355 508.671266 
L 686.612903 508.474371 
L 689.806452 508.482611 
L 696.193548 508.84551 
L 699.387097 509.128321 
L 705.774194 509.330367 
L 715.354839 509.430762 
L 718.548387 509.25308 
L 724.935484 509.725481 
L 744.096774 513.041741 
L 750.483871 513.787768 
L 766.451613 516.155399 
L 776.032258 517.334524 
L 785.612903 518.057512 
L 788.806452 518.099979 
L 788.806452 518.099979 
" clip-path="url(#paf333c3f76)" style="fill: none; stroke: #000000; stroke-width: 1.5; stroke-linecap: square"/>
   </g>
   <g id="line2d_7">
    <path d="M 0 459 
L 3.193548 459 
L 6.387097 453.736788 
L 9.580645 449.948014 
L 12.774194 452.800635 
L 15.967742 453.427127 
L 19.16129 455.661434 
L 22.354839 457.19279 
L 25.548387 459.079054 
L 28.741935 459.956162 
L 31.935484 460.334797 
L 35.129032 461.158842 
L 38.322581 462.118781 
L 41.516129 462.829051 
L 44.709677 462.924737 
L 51.096774 462.092147 
L 54.290323 462.091181 
L 57.483871 462.631568 
L 73.451613 463.590768 
L 79.83871 464.64454 
L 86.225806 465.166184 
L 95.806452 467.190649 
L 99 467.972954 
L 102.193548 468.311978 
L 108.580645 468.655108 
L 118.16129 469.199466 
L 121.354839 469.487387 
L 127.741935 470.450405 
L 134.129032 470.961392 
L 143.709677 472.036499 
L 146.903226 472.138219 
L 150.096774 472.127076 
L 153.290323 471.931137 
L 191.612903 471.052969 
L 201.193548 471.738952 
L 213.967742 472.945725 
L 226.741935 474.588757 
L 236.322581 476.384682 
L 239.516129 476.897775 
L 242.709677 477.198948 
L 249.096774 478.084177 
L 252.290323 478.478462 
L 255.483871 478.737146 
L 261.870968 479.724022 
L 274.645161 482.045161 
L 284.225806 483.523994 
L 293.806452 485.236345 
L 306.580645 487.156848 
L 312.967742 487.950332 
L 316.16129 488.113823 
L 322.548387 488.091501 
L 328.935484 488.121087 
L 335.322581 488.05134 
L 338.516129 488.171646 
L 360.870968 490.288849 
L 364.064516 490.438898 
L 370.451613 490.403698 
L 380.032258 491.016484 
L 386.419355 491.362448 
L 396 491.636069 
L 399.193548 491.732262 
L 415.16129 492.84139 
L 418.354839 492.917659 
L 431.129032 492.735618 
L 434.322581 492.864277 
L 447.096774 492.668382 
L 453.483871 492.441739 
L 463.064516 491.962105 
L 469.451613 491.805901 
L 479.032258 491.41929 
L 488.612903 491.092679 
L 495 491.12562 
L 504.580645 491.333176 
L 510.967742 491.870005 
L 517.354839 492.52291 
L 533.322581 494.312577 
L 546.096774 495.16416 
L 558.870968 496.474475 
L 574.83871 498.24699 
L 581.225806 498.888081 
L 587.612903 499.575197 
L 600.387097 500.382601 
L 619.548387 502.30166 
L 629.129032 502.714579 
L 645.096774 502.913943 
L 654.677419 502.996024 
L 661.064516 503.437404 
L 667.451613 504.029397 
L 677.032258 504.600862 
L 693 504.91987 
L 705.774194 505.592933 
L 724.935484 506.251245 
L 763.258065 510.431783 
L 779.225806 511.953759 
L 785.612903 512.420924 
L 788.806452 512.562415 
L 788.806452 512.562415 
" clip-path="url(#paf333c3f76)" style="fill: none; stroke: #000000; stroke-width: 1.5; stroke-linecap: square"/>
   </g>
   <g id="line2d_8">
    <path d="M 0 459 
L 3.193548 459 
L 6.387097 453.76498 
L 9.580645 450.007069 
L 12.774194 452.79934 
L 15.967742 453.412887 
L 19.16129 455.59106 
L 22.354839 457.084884 
L 25.548387 459.023011 
L 28.741935 459.870418 
L 31.935484 460.240563 
L 35.129032 461.031583 
L 38.322581 461.949156 
L 41.516129 462.630291 
L 44.709677 462.734947 
L 51.096774 461.985728 
L 54.290323 461.991655 
L 57.483871 462.492905 
L 73.451613 463.403277 
L 79.83871 464.358823 
L 86.225806 464.843034 
L 95.806452 466.650904 
L 99 467.345674 
L 105.387097 467.863727 
L 114.967742 468.285337 
L 121.354839 468.785481 
L 127.741935 469.630129 
L 134.129032 470.100037 
L 146.903226 471.162124 
L 150.096774 471.179512 
L 156.483871 471.009772 
L 159.677419 470.896401 
L 169.258065 470.883506 
L 191.612903 470.55981 
L 204.387097 471.345475 
L 213.967742 472.080598 
L 226.741935 473.374797 
L 236.322581 474.766985 
L 239.516129 475.170736 
L 242.709677 475.421779 
L 252.290323 476.447394 
L 255.483871 476.669864 
L 265.064516 477.913014 
L 271.451613 478.792128 
L 277.83871 479.640045 
L 287.419355 480.903983 
L 293.806452 481.789402 
L 306.580645 483.343921 
L 316.16129 484.183222 
L 335.322581 484.5053 
L 338.516129 484.640915 
L 360.870968 486.428388 
L 364.064516 486.584412 
L 370.451613 486.676773 
L 396 487.910497 
L 402.387097 488.215715 
L 415.16129 488.993774 
L 421.548387 489.115044 
L 431.129032 489.191502 
L 437.516129 489.35603 
L 450.290323 489.393611 
L 482.225806 488.979121 
L 491.806452 488.929178 
L 507.774194 489.371374 
L 520.548387 490.281207 
L 533.322581 491.253158 
L 549.290323 492.125921 
L 594 495.399509 
L 600.387097 495.763043 
L 622.741935 497.359685 
L 632.322581 497.719682 
L 661.064516 498.622891 
L 670.645161 499.247697 
L 673.83871 499.464748 
L 699.387097 500.376651 
L 712.16129 500.853675 
L 724.935484 501.347584 
L 782.419355 505.773321 
L 788.806452 506.114223 
L 788.806452 506.114223 
" clip-path="url(#paf333c3f76)" style="fill: none; stroke: #000000; stroke-width: 1.5; stroke-linecap: square"/>
   </g>
   <g id="line2d_9">
    <path d="M 0 459 
L 3.193548 459 
L 6.387097 453.779076 
L 9.580645 450.036622 
L 12.774194 452.799009 
L 15.967742 453.406068 
L 19.16129 455.556377 
L 22.354839 457.031421 
L 25.548387 458.985578 
L 28.741935 459.827843 
L 31.935484 460.193571 
L 35.129032 460.968187 
L 38.322581 461.864743 
L 41.516129 462.531216 
L 44.709677 462.639652 
L 51.096774 461.929944 
L 54.290323 461.939051 
L 57.483871 462.421378 
L 73.451613 463.306683 
L 79.83871 464.214685 
L 86.225806 464.679643 
L 95.806452 466.382481 
L 99 467.034683 
L 105.387097 467.53362 
L 118.16129 468.177869 
L 121.354839 468.426394 
L 130.935484 469.41395 
L 137.322581 469.931461 
L 143.709677 470.548394 
L 150.096774 470.685771 
L 159.677419 470.467707 
L 172.451613 470.443055 
L 178.83871 470.288014 
L 194.806452 470.40441 
L 204.387097 470.95167 
L 217.16129 471.877466 
L 223.548387 472.366564 
L 245.903226 474.82943 
L 265.064516 476.678088 
L 287.419355 479.255943 
L 297 480.360326 
L 306.580645 481.363607 
L 316.16129 482.111579 
L 335.322581 482.52087 
L 341.709677 482.881634 
L 360.870968 484.218071 
L 367.258065 484.408197 
L 373.645161 484.639498 
L 396 485.630557 
L 402.387097 485.911047 
L 415.16129 486.596884 
L 421.548387 486.738395 
L 431.129032 486.869035 
L 437.516129 487.039078 
L 453.483871 487.144696 
L 469.451613 487.112119 
L 501.387097 487.266217 
L 507.774194 487.485642 
L 523.741935 488.400544 
L 533.322581 488.969291 
L 552.483871 489.875575 
L 578.032258 491.421984 
L 590.806452 492.152522 
L 603.580645 492.776356 
L 619.548387 493.733997 
L 632.322581 494.195598 
L 661.064516 495.054829 
L 673.83871 495.728439 
L 708.967742 496.894458 
L 724.935484 497.431439 
L 785.612903 501.017683 
L 788.806452 501.149308 
L 788.806452 501.149308 
" clip-path="url(#paf333c3f76)" style="fill: none; stroke: #000000; stroke-width: 1.5; stroke-linecap: square"/>
   </g>
  </g>
 </g>
 <defs>
  <clipPath id="paf333c3f76">
   <rect x="0" y="0" width="792" height="612"/>
  </clipPath>
 </defs>
</svg>
