<?xml version="1.0" encoding="utf-8" standalone="no"?>
<!DOCTYPE svg PUBLIC "-//W3C//DTD SVG 1.1//EN"
  "http://www.w3.org/Graphics/SVG/1.1/DTD/svg11.dtd">
<svg xmlns:xlink="http://www.w3.org/1999/xlink" width="792pt" height="612pt" viewBox="0 0 792 612" xmlns="http://www.w3.org/2000/svg" version="1.1">
 <metadata>
  <rdf:RDF xmlns:dc="http://purl.org/dc/elements/1.1/" xmlns:cc="http://creativecommons.org/ns#" xmlns:rdf="http://www.w3.org/1999/02/22-rdf-syntax-ns#">
   <cc:Work>
    <dc:type rdf:resource="http://purl.org/dc/dcmitype/StillImage"/>
    <dc:date>2023-01-02T15:39:49.254446</dc:date>
    <dc:format>image/svg+xml</dc:format>
    <dc:creator>
     <cc:Agent>
      <dc:title>Matplotlib v3.6.2, https://matplotlib.org/</dc:title>
     </cc:Agent>
    </dc:creator>
   </cc:Work>
  </rdf:RDF>
 </metadata>
 <defs>
  <style type="text/css">*{stroke-linejoin: round; stroke-linecap: butt}</style>
 </defs>
 <g id="figure_1">
  <g id="patch_1">
   <path d="M 0 612 
L 792 612 
L 792 0 
L 0 0 
z
" style="fill: #ffffff"/>
  </g>
  <g id="axes_1">
   <g id="line2d_1">
    <path d="M 0 459 
L 3.168 463.330189 
L 6.336 475.643976 
L 9.504 474.757575 
L 12.672 475.260667 
L 15.84 474.470093 
L 19.008 471.349722 
L 22.176 469.558952 
L 25.344 475.069013 
L 28.512 473.511822 
L 31.68 476.608236 
L 34.848 476.482463 
L 38.016 478.476865 
L 41.184 481.058209 
L 44.352 478.422962 
L 47.52 482.998708 
L 50.688 485.627965 
L 53.856 484.585845 
L 57.024 478.96199 
L 60.192 472.673334 
L 63.36 472.978783 
L 66.528 477.237102 
L 69.696 484.567878 
L 72.864 480.698857 
L 76.032 482.052415 
L 79.2 481.776912 
L 82.368 479.015893 
L 85.536 481.633172 
L 88.704 487.484616 
L 91.872 488.382995 
L 95.04 483.681477 
L 98.208 485.184765 
L 101.376 492.198113 
L 104.544 494.108667 
L 107.712 495.132819 
L 110.88 497.88186 
L 114.048 489.646716 
L 117.216 487.370821 
L 120.384 485.909457 
L 123.552 486.891686 
L 126.72 485.993306 
L 129.888 489.371213 
L 133.056 490.413333 
L 136.224 494.474008 
L 139.392 496.959524 
L 142.56 490.323495 
L 145.728 492.126243 
L 148.896 493.473812 
L 152.064 496.336648 
L 155.232 494.52791 
L 158.4 488.880099 
L 161.568 485.981328 
L 164.736 480.956392 
L 167.904 483.998904 
L 171.072 481.309755 
L 174.24 485.562084 
L 177.408 483.843185 
L 180.576 485.609998 
L 183.744 483.064589 
L 186.912 479.465083 
L 190.08 483.268222 
L 193.248 484.837391 
L 196.416 484.879316 
L 199.584 480.926446 
L 202.752 486.143036 
L 205.92 491.724967 
L 209.088 492.120254 
L 212.256 493.911023 
L 215.424 494.941165 
L 218.592 495.324473 
L 221.76 494.779457 
L 224.928 498.558639 
L 228.096 499.996046 
L 231.264 497.372779 
L 234.432 500.463204 
L 237.6 505.85348 
L 240.768 509.327214 
L 243.936 507.446606 
L 247.104 510.135755 
L 250.272 507.380725 
L 253.44 500.756674 
L 256.608 506.626086 
L 259.776 505.649847 
L 262.944 505.176701 
L 266.112 500.912393 
L 269.28 508.806154 
L 272.448 510.363345 
L 275.616 514.016754 
L 278.784 511.89059 
L 281.952 515.412237 
L 285.12 515.921318 
L 288.288 512.03433 
L 291.456 513.705316 
L 294.624 513.938895 
L 297.792 517.77198 
L 300.96 518.808111 
L 304.128 516.382486 
L 307.296 515.98121 
L 310.464 518.011548 
L 319.968 513.118375 
L 323.136 516.029124 
L 326.304 506.548227 
L 329.472 499.163548 
L 332.64 501.253777 
L 335.808 502.475573 
L 338.976 499.912198 
L 342.144 498.690402 
L 345.312 499.936154 
L 348.48 505.122798 
L 351.648 512.561379 
L 354.816 513.507672 
L 357.984 511.052102 
L 361.152 516.262703 
L 367.488 512.082244 
L 370.656 511.710914 
L 373.824 508.356964 
L 376.992 500.648869 
L 380.16 503.409888 
L 383.328 509.309246 
L 386.496 509.818328 
L 389.664 513.15431 
L 392.832 511.261724 
L 396 508.866046 
L 399.168 508.548618 
L 402.336 506.206843 
L 408.672 507.572379 
L 411.84 512.381704 
L 415.008 514.082635 
L 418.176 515.549988 
L 421.344 511.752838 
L 424.512 511.447389 
L 427.68 507.901785 
L 430.848 502.72712 
L 434.016 500.990253 
L 437.184 502.715141 
L 440.352 505.817545 
L 443.52 509.908166 
L 446.688 504.014797 
L 449.856 503.421866 
L 453.024 501.786816 
L 456.192 502.409692 
L 459.36 501.924567 
L 462.528 498.414899 
L 465.696 497.444649 
L 468.864 498.10346 
L 472.032 498.355007 
L 475.2 502.852893 
L 478.368 499.037775 
L 481.536 500.163744 
L 484.704 498.271158 
L 487.872 497.570422 
L 494.208 499.427073 
L 497.376 499.44504 
L 500.544 501.936546 
L 503.712 506.00321 
L 506.88 506.590151 
L 510.048 504.188484 
L 513.216 507.841893 
L 516.384 513.040515 
L 519.552 516.047092 
L 522.72 516.370508 
L 525.888 518.496673 
L 529.056 520.047874 
L 532.224 519.952047 
L 535.392 521.131919 
L 538.56 520.197604 
L 541.728 518.029515 
L 544.896 514.621663 
L 548.064 512.800947 
L 551.232 517.310812 
L 554.4 516.005167 
L 557.568 519.299225 
L 560.736 521.257692 
L 563.904 520.467118 
L 567.072 522.281845 
L 570.24 523.5815 
L 573.408 522.072223 
L 576.576 523.95283 
L 579.744 524.366085 
L 582.912 522.826861 
L 586.08 522.060244 
L 589.248 524.072614 
L 592.416 525.851405 
L 595.584 523.419792 
L 598.752 518.730251 
L 601.92 518.430792 
L 605.088 518.89196 
L 608.256 521.988374 
L 611.424 524.77335 
L 614.592 526.612033 
L 617.76 526.779731 
L 620.928 524.893134 
L 624.096 526.821655 
L 627.264 523.851014 
L 630.432 520.047874 
L 633.6 519.964026 
L 636.768 517.670164 
L 639.936 516.071048 
L 643.104 515.783567 
L 646.272 513.016558 
L 649.44 516.226767 
L 652.608 516.322595 
L 655.776 514.364127 
L 658.944 514.621663 
L 662.112 516.28067 
L 665.28 522.156071 
L 668.448 524.360096 
L 671.616 528.289008 
L 674.784 525.402216 
L 677.952 523.898927 
L 681.12 526.917482 
L 684.288 518.388867 
L 687.456 517.532412 
L 690.624 516.975417 
L 693.792 514.933101 
L 696.96 519.095592 
L 700.128 522.347726 
L 703.296 523.335943 
L 706.464 525.246497 
L 709.632 522.61125 
L 712.8 520.820481 
L 715.968 520.15568 
L 719.136 519.952047 
L 722.304 521.155876 
L 725.472 516.023135 
L 728.64 523.958819 
L 731.808 525.420183 
L 734.976 531.786699 
L 738.144 532.181985 
L 741.312 533.852971 
L 744.48 534.062593 
L 747.648 533.475652 
L 750.816 532.277813 
L 753.984 530.774524 
L 757.152 531.295584 
L 760.32 533.876928 
L 763.488 535.176583 
L 766.656 534.733383 
L 769.824 535.068778 
L 772.992 533.960777 
L 776.16 534.475847 
L 779.328 533.745166 
L 782.496 535.056799 
L 785.664 532.619197 
L 788.832 532.589251 
L 788.832 532.589251 
" clip-path="url(#p94ac4edbe7)" style="fill: none; stroke: #000000; stroke-width: 1.5; stroke-linecap: square"/>
   </g>
   <g id="line2d_2">
    <path d="M 0 459 
L 3.168 459 
L 6.336 461.886792 
L 9.504 469.74804 
L 12.672 472.419792 
L 15.84 473.88605 
L 19.008 474.182707 
L 22.176 472.755061 
L 25.344 471.15074 
L 28.512 473.141384 
L 31.68 473.346567 
L 34.848 474.979292 
L 38.016 475.73426 
L 41.184 477.111869 
L 44.352 479.097957 
L 47.52 478.774329 
L 50.688 480.912871 
L 53.856 483.291122 
L 57.024 483.960197 
L 60.192 481.465709 
L 63.36 477.062053 
L 66.528 475.009638 
L 69.696 476.115877 
L 72.864 480.353926 
L 76.032 480.521882 
L 79.2 481.280138 
L 82.368 481.523017 
L 85.536 480.269561 
L 88.704 480.968934 
L 91.872 484.255218 
L 95.04 486.340961 
L 98.208 485.009481 
L 101.376 485.105919 
L 104.544 488.671909 
L 107.712 491.414468 
L 110.88 493.305245 
L 114.048 495.625413 
L 117.216 492.640304 
L 120.384 490.003578 
L 123.552 487.960886 
L 126.72 487.429633 
L 129.888 486.699303 
L 133.056 488.025969 
L 136.224 489.210397 
L 142.56 494.411861 
L 145.728 492.373467 
L 148.896 492.262045 
L 152.064 492.880835 
L 155.232 494.629022 
L 158.4 494.588577 
L 164.736 488.839677 
L 167.904 484.866656 
L 171.072 484.420379 
L 174.24 482.843858 
L 177.408 484.187458 
L 180.576 483.990824 
L 183.744 484.782925 
L 186.912 483.912354 
L 190.08 481.675941 
L 193.248 482.476615 
L 196.416 483.658647 
L 199.584 484.275981 
L 202.752 482.592124 
L 205.92 484.37209 
L 209.088 488.060518 
L 215.424 492.037908 
L 218.592 493.512425 
L 221.76 494.439012 
L 224.928 494.628646 
L 228.096 496.628216 
L 231.264 498.339294 
L 234.432 497.86711 
L 237.6 499.181516 
L 243.936 505.962272 
L 247.104 506.728208 
L 250.272 508.462092 
L 253.44 507.938707 
L 256.608 504.349182 
L 259.776 505.505778 
L 262.944 505.587982 
L 266.112 505.381015 
L 269.28 503.130204 
L 272.448 505.970845 
L 275.616 508.167541 
L 278.784 511.105159 
L 281.952 511.519706 
L 285.12 513.483199 
L 288.288 514.722399 
L 291.456 513.391811 
L 297.792 513.766335 
L 300.96 515.783684 
L 304.128 517.305292 
L 310.464 516.418069 
L 313.632 517.218907 
L 316.8 516.809223 
L 319.968 515.756322 
L 323.136 514.435739 
L 326.304 515.229014 
L 329.472 510.864582 
L 332.64 504.980302 
L 335.808 503.088163 
L 338.976 502.751405 
L 345.312 499.963564 
L 348.48 499.924012 
L 351.648 502.50202 
L 354.816 507.54349 
L 357.984 510.553707 
L 361.152 510.822117 
L 364.32 513.569443 
L 367.488 513.92297 
L 370.656 513.028866 
L 373.824 512.392977 
L 376.992 510.381312 
L 380.16 505.491733 
L 383.328 504.431011 
L 386.496 506.866711 
L 389.664 508.329883 
L 392.832 510.740006 
L 396 510.999256 
L 399.168 509.927073 
L 402.336 509.238221 
L 405.504 507.73343 
L 408.672 507.318343 
L 411.84 507.441956 
L 415.008 509.916856 
L 418.176 512.001566 
L 421.344 513.784185 
L 424.512 512.774172 
L 427.68 512.116464 
L 430.848 510.012448 
L 434.016 506.361622 
L 437.184 503.663031 
L 440.352 503.170132 
L 443.52 504.477633 
L 446.688 507.181837 
L 449.856 505.583144 
L 453.024 504.486769 
L 456.192 503.124802 
L 462.528 502.347428 
L 465.696 500.372732 
L 468.864 498.892273 
L 472.032 498.47472 
L 475.2 498.403766 
L 478.368 500.627214 
L 481.536 499.827104 
L 484.704 499.99102 
L 491.04 498.345518 
L 494.208 498.400149 
L 497.376 498.916206 
L 500.544 499.182761 
L 503.712 500.557856 
L 506.88 503.294191 
L 510.048 504.954772 
L 513.216 504.58323 
L 516.384 506.232702 
L 519.552 509.665216 
L 522.72 512.888742 
L 525.888 514.662812 
L 529.056 516.612213 
L 532.224 518.357582 
L 535.392 519.181015 
L 538.56 520.189689 
L 541.728 520.217874 
L 544.896 519.133477 
L 548.064 516.874775 
L 551.232 514.830862 
L 554.4 516.068512 
L 557.568 516.028913 
L 560.736 517.662789 
L 563.904 519.460487 
L 567.072 519.964331 
L 573.408 522.374031 
L 576.576 522.241306 
L 579.744 523.110092 
L 582.912 523.754482 
L 586.08 523.297589 
L 589.248 522.68049 
L 592.416 523.383622 
L 595.584 524.624513 
L 598.752 524.021835 
L 601.92 521.36949 
L 605.088 519.889313 
L 608.256 519.379903 
L 611.424 520.682494 
L 617.76 524.677617 
L 620.928 525.730494 
L 624.096 525.314703 
L 627.264 526.084044 
L 630.432 524.978157 
L 633.6 522.515282 
L 636.768 521.235685 
L 643.104 517.734354 
L 646.272 516.737399 
L 649.44 514.853691 
L 652.608 515.519455 
L 655.776 515.906263 
L 658.944 515.124051 
L 662.112 514.862382 
L 665.28 515.568801 
L 668.448 518.874368 
L 671.616 521.634048 
L 674.784 524.991474 
L 677.952 525.214836 
L 681.12 524.571737 
L 684.288 525.769224 
L 687.456 522.086432 
L 690.624 519.811877 
L 693.792 518.383489 
L 696.96 516.639811 
L 700.128 517.849675 
L 703.296 520.092711 
L 706.464 521.713223 
L 709.632 523.476583 
L 712.8 523.052196 
L 715.968 521.942786 
L 719.136 521.055469 
L 722.304 520.513599 
L 725.472 520.838777 
L 728.64 518.418555 
L 731.808 521.189908 
L 734.976 523.305386 
L 738.144 527.564034 
L 741.312 529.895287 
L 744.48 531.900986 
L 747.648 533.009457 
L 750.816 533.266711 
L 753.984 532.804134 
L 757.152 531.802693 
L 760.32 531.560659 
L 766.656 533.955609 
L 772.992 534.709473 
L 776.16 534.336076 
L 779.328 534.410272 
L 782.496 534.083543 
L 785.664 534.577546 
L 788.832 533.595905 
L 788.832 533.595905 
" clip-path="url(#p94ac4edbe7)" style="fill: none; stroke: #000000; stroke-width: 1.5; stroke-linecap: square"/>
   </g>
   <g id="line2d_3">
    <path d="M 0 459 
L 3.168 459 
L 6.336 461.536566 
L 9.504 467.928377 
L 12.672 470.595345 
L 15.84 472.255212 
L 19.008 472.99661 
L 22.176 472.467479 
L 25.344 471.558799 
L 28.512 472.634454 
L 31.68 472.899719 
L 34.848 474.010463 
L 38.016 474.745987 
L 41.184 475.850944 
L 44.352 477.388126 
L 47.52 477.692906 
L 50.688 479.253034 
L 53.856 481.150793 
L 57.024 482.181311 
L 60.192 481.242205 
L 63.36 478.730047 
L 66.528 477.04292 
L 69.696 477.102972 
L 72.864 479.304575 
L 76.032 479.725746 
L 79.2 480.415233 
L 82.368 480.823553 
L 85.536 480.296867 
L 88.704 480.694178 
L 91.872 482.693397 
L 95.04 484.368255 
L 98.208 484.173142 
L 101.376 484.471951 
L 107.712 488.910894 
L 110.88 490.751828 
L 114.048 492.86912 
L 117.216 491.944445 
L 123.552 489.239381 
L 129.888 487.81196 
L 133.056 488.277377 
L 136.224 488.916075 
L 139.392 490.558705 
L 142.56 492.444344 
L 145.728 491.825391 
L 148.896 491.923208 
L 152.064 492.38689 
L 155.232 493.548501 
L 158.4 493.835845 
L 161.568 492.377159 
L 164.736 490.490194 
L 167.904 487.687827 
L 171.072 486.603493 
L 174.24 485.04771 
L 177.408 485.196839 
L 180.576 484.797894 
L 183.744 485.031433 
L 186.912 484.446917 
L 190.08 482.970532 
L 193.248 483.041998 
L 196.416 483.561555 
L 199.584 483.939194 
L 202.752 483.042369 
L 205.92 483.938825 
L 209.088 486.216114 
L 215.424 489.704428 
L 218.592 491.254295 
L 221.76 492.459432 
L 224.928 493.154422 
L 231.264 496.306646 
L 234.432 496.63242 
L 237.6 497.774415 
L 240.768 500.171028 
L 243.936 502.882744 
L 247.104 504.245437 
L 250.272 505.999681 
L 253.44 506.434565 
L 256.608 504.788334 
L 259.776 505.343715 
L 262.944 505.448919 
L 266.112 505.382128 
L 269.28 504.079832 
L 275.616 506.927933 
L 278.784 509.021955 
L 281.952 509.875821 
L 285.12 511.51812 
L 288.288 512.825542 
L 291.456 512.600901 
L 297.792 513.232535 
L 304.128 515.825061 
L 307.296 516.006275 
L 310.464 516.009679 
L 313.632 516.610211 
L 316.8 516.556383 
L 319.968 516.028357 
L 323.136 515.180996 
L 326.304 515.435915 
L 329.472 512.824193 
L 332.64 508.808464 
L 335.808 506.579485 
L 338.976 505.362034 
L 345.312 502.252168 
L 348.48 501.55774 
L 351.648 502.587392 
L 354.816 505.501531 
L 357.984 507.843173 
L 361.152 508.777385 
L 364.32 510.967775 
L 367.488 511.91796 
L 370.656 511.963071 
L 373.824 511.887599 
L 376.992 510.844688 
L 380.16 507.851626 
L 383.328 506.555548 
L 389.664 508.09648 
L 392.832 509.593094 
L 396 510.096264 
L 402.336 509.39937 
L 405.504 508.457002 
L 408.672 507.990322 
L 411.84 507.863913 
L 418.176 510.617689 
L 421.344 512.066309 
L 427.68 511.823693 
L 430.848 510.683324 
L 434.016 508.352221 
L 437.184 506.186395 
L 440.352 505.16153 
L 443.52 505.345245 
L 446.688 506.680139 
L 453.024 505.163974 
L 456.192 504.16975 
L 462.528 503.137506 
L 465.696 501.738244 
L 468.864 500.461569 
L 472.032 499.750856 
L 475.2 499.326632 
L 478.368 500.349578 
L 481.536 499.955179 
L 484.704 500.013322 
L 491.04 498.928881 
L 494.208 498.780403 
L 500.544 499.095239 
L 503.712 499.925733 
L 506.88 501.710627 
L 510.048 503.144608 
L 513.216 503.452953 
L 516.384 504.749271 
L 519.552 507.195634 
L 522.72 509.808776 
L 532.224 515.615188 
L 538.56 518.171524 
L 541.728 518.790939 
L 544.896 518.590411 
L 548.064 517.445444 
L 551.232 516.100443 
L 554.4 516.472611 
L 557.568 516.347188 
L 560.736 517.226417 
L 563.904 518.426756 
L 567.072 519.038866 
L 573.408 521.057175 
L 576.576 521.361025 
L 582.912 522.787358 
L 586.08 522.80223 
L 589.248 522.585974 
L 592.416 523.025852 
L 595.584 523.862421 
L 598.752 523.742884 
L 601.92 522.281528 
L 605.088 521.15496 
L 608.256 520.495458 
L 611.424 520.935812 
L 614.592 522.063839 
L 617.76 523.403032 
L 620.928 524.397211 
L 624.096 524.54397 
L 627.264 525.216543 
L 630.432 524.816472 
L 633.6 523.414822 
L 636.768 522.400819 
L 643.104 519.554365 
L 646.272 518.43836 
L 649.44 516.838402 
L 655.776 516.556197 
L 658.944 515.908954 
L 662.112 515.523454 
L 665.28 515.735483 
L 671.616 519.584922 
L 674.784 522.138191 
L 677.952 523.092571 
L 681.12 523.328802 
L 684.288 524.387793 
L 687.456 522.628939 
L 690.624 521.136043 
L 693.792 519.918462 
L 696.96 518.457307 
L 700.128 518.651239 
L 706.464 520.801951 
L 709.632 522.116228 
L 712.8 522.270393 
L 722.304 520.936979 
L 725.472 520.992899 
L 728.64 519.526516 
L 734.976 522.16902 
L 738.144 525.001362 
L 744.48 529.112378 
L 747.648 530.584234 
L 750.816 531.447628 
L 753.984 531.702189 
L 757.152 531.439026 
L 760.32 531.403961 
L 763.488 532.141216 
L 766.656 533.046744 
L 772.992 534.017501 
L 776.16 534.015595 
L 779.328 534.171594 
L 782.496 534.057937 
L 785.664 534.361566 
L 788.832 533.852194 
L 788.832 533.852194 
" clip-path="url(#p94ac4edbe7)" style="fill: none; stroke: #000000; stroke-width: 1.5; stroke-linecap: square"/>
   </g>
   <g id="line2d_4">
    <path d="M 0 459 
L 3.168 459 
L 6.336 461.352217 
L 9.504 466.961221 
L 12.672 469.442076 
L 15.84 471.039446 
L 19.008 471.883798 
L 22.176 471.762873 
L 25.344 471.295338 
L 28.512 472.05556 
L 31.68 472.33701 
L 34.848 473.135234 
L 38.016 473.74387 
L 41.184 474.585357 
L 44.352 475.715064 
L 47.52 476.180493 
L 50.688 477.337616 
L 53.856 478.729808 
L 57.024 479.704605 
L 60.192 479.581892 
L 63.36 478.447258 
L 66.528 477.553724 
L 69.696 477.50221 
L 72.864 478.647667 
L 76.032 478.979199 
L 79.2 479.474669 
L 82.368 479.845056 
L 85.536 479.711896 
L 88.704 480.019985 
L 95.04 482.362199 
L 98.208 482.573081 
L 101.376 482.990238 
L 110.88 487.488567 
L 114.048 489.156606 
L 117.216 489.24356 
L 120.384 488.95365 
L 123.552 488.478392 
L 129.888 487.886631 
L 133.056 488.132729 
L 136.224 488.504194 
L 139.392 489.465239 
L 142.56 490.669138 
L 145.728 490.619926 
L 148.896 490.868136 
L 152.064 491.289245 
L 155.232 492.098986 
L 158.4 492.49164 
L 161.568 491.923219 
L 164.736 490.986146 
L 167.904 489.395354 
L 171.072 488.540978 
L 174.24 487.388432 
L 177.408 487.100888 
L 180.576 486.583693 
L 183.744 486.431166 
L 186.912 485.898058 
L 190.08 484.873196 
L 193.248 484.615208 
L 199.584 484.685841 
L 202.752 484.085051 
L 205.92 484.408706 
L 209.088 485.571262 
L 212.256 486.61135 
L 218.592 488.914494 
L 221.76 489.939308 
L 224.928 490.714927 
L 231.264 493.255852 
L 234.432 493.915862 
L 237.6 494.963838 
L 240.768 496.703519 
L 243.936 498.719711 
L 247.104 500.118875 
L 250.272 501.723833 
L 253.44 502.632542 
L 256.608 502.336843 
L 259.776 503.026825 
L 262.944 503.454621 
L 266.112 503.740586 
L 269.28 503.303062 
L 275.616 505.193778 
L 278.784 506.615299 
L 281.952 507.472116 
L 285.12 508.754013 
L 288.288 509.914857 
L 291.456 510.272394 
L 297.792 511.349164 
L 304.128 513.436108 
L 307.296 513.923755 
L 310.464 514.266238 
L 313.632 514.878285 
L 316.8 515.131629 
L 319.968 515.075208 
L 323.136 514.774971 
L 326.304 514.987769 
L 329.472 513.649993 
L 332.64 511.344628 
L 335.808 509.741559 
L 338.976 508.58677 
L 345.312 505.841901 
L 348.48 504.897589 
L 351.648 504.930293 
L 357.984 507.326619 
L 361.152 507.922118 
L 364.32 509.255757 
L 367.488 510.05129 
L 370.656 510.381391 
L 373.824 510.594735 
L 376.992 510.237446 
L 380.16 508.703528 
L 383.328 507.856 
L 389.664 508.355633 
L 392.832 509.119818 
L 396 509.459078 
L 402.336 509.226463 
L 405.504 508.738168 
L 408.672 508.438133 
L 411.84 508.295142 
L 415.008 508.941816 
L 421.344 510.680312 
L 427.68 510.942275 
L 430.848 510.459366 
L 437.184 507.920007 
L 440.352 507.092044 
L 443.52 506.892951 
L 446.688 507.379682 
L 453.024 506.300871 
L 456.192 505.575946 
L 462.528 504.559869 
L 468.864 502.585848 
L 472.032 501.863962 
L 475.2 501.297341 
L 478.368 501.541401 
L 481.536 501.14206 
L 484.704 500.984381 
L 491.04 500.064773 
L 494.208 499.798816 
L 500.544 499.680706 
L 503.712 500.035493 
L 510.048 501.876487 
L 513.216 502.242223 
L 516.384 503.130318 
L 519.552 504.706416 
L 522.72 506.511068 
L 529.056 509.743933 
L 532.224 511.390905 
L 538.56 514.107732 
L 541.728 515.08756 
L 544.896 515.563255 
L 548.064 515.416386 
L 551.232 515.005742 
L 554.4 515.381153 
L 557.568 515.489307 
L 560.736 516.106017 
L 563.904 516.937729 
L 567.072 517.513027 
L 573.408 519.145489 
L 576.576 519.625941 
L 582.912 520.985881 
L 586.08 521.292928 
L 589.248 521.429854 
L 592.416 521.866862 
L 595.584 522.517913 
L 598.752 522.676375 
L 605.088 521.493347 
L 608.256 521.087499 
L 611.424 521.240439 
L 614.592 521.815381 
L 620.928 523.26539 
L 624.096 523.529889 
L 627.264 524.060142 
L 630.432 524.030209 
L 639.936 522.024111 
L 649.44 519.082318 
L 658.944 517.641125 
L 662.112 517.157799 
L 665.28 517.015139 
L 668.448 517.834134 
L 671.616 518.873734 
L 674.784 520.374675 
L 677.952 521.176653 
L 681.12 521.609743 
L 684.288 522.455815 
L 693.792 520.458857 
L 696.96 519.572877 
L 700.128 519.494242 
L 706.464 520.492195 
L 709.632 521.252586 
L 712.8 521.469143 
L 719.136 521.16728 
L 722.304 520.969672 
L 725.472 520.996966 
L 728.64 520.198874 
L 731.808 520.797162 
L 734.976 521.536053 
L 738.144 523.174344 
L 744.48 526.09719 
L 747.648 527.375919 
L 750.816 528.359173 
L 753.984 528.992658 
L 760.32 529.615603 
L 769.824 531.679531 
L 772.992 532.225454 
L 785.664 533.312949 
L 788.832 533.211449 
L 788.832 533.211449 
" clip-path="url(#p94ac4edbe7)" style="fill: none; stroke: #000000; stroke-width: 1.5; stroke-linecap: square"/>
   </g>
   <g id="line2d_5">
    <path d="M 0 459 
L 3.168 459 
L 6.336 461.258831 
L 9.504 466.474808 
L 12.672 468.821862 
L 15.84 470.341841 
L 19.008 471.18701 
L 22.176 471.216706 
L 25.344 470.941533 
L 28.512 471.574156 
L 31.68 471.851643 
L 34.848 472.494136 
L 38.016 473.006189 
L 41.184 473.678061 
L 44.352 474.549733 
L 47.52 474.991683 
L 50.688 475.87775 
L 53.856 476.927675 
L 57.024 477.732457 
L 60.192 477.858873 
L 66.528 476.904473 
L 69.696 476.936901 
L 72.864 477.670199 
L 79.2 478.341339 
L 82.368 478.65997 
L 85.536 478.692661 
L 88.704 478.960374 
L 95.04 480.506057 
L 101.376 481.178044 
L 107.712 483.196 
L 110.88 484.236872 
L 114.048 485.421714 
L 117.216 485.787183 
L 120.384 485.923692 
L 129.888 486.004462 
L 136.224 486.641978 
L 139.392 487.306693 
L 142.56 488.124409 
L 145.728 488.31038 
L 152.064 489.040752 
L 155.232 489.655084 
L 158.4 490.064893 
L 161.568 489.965361 
L 164.736 489.631008 
L 167.904 488.903681 
L 171.072 488.492787 
L 174.24 487.891502 
L 177.408 487.696647 
L 180.576 487.374518 
L 183.744 487.227101 
L 186.912 486.879536 
L 190.08 486.260748 
L 193.248 486.011116 
L 199.584 485.827067 
L 202.752 485.418741 
L 205.92 485.487689 
L 215.424 487.145809 
L 221.76 488.430552 
L 224.928 488.965112 
L 231.264 490.627544 
L 234.432 491.195137 
L 237.6 491.972113 
L 240.768 493.13377 
L 243.936 494.487801 
L 247.104 495.571919 
L 250.272 496.79098 
L 253.44 497.677822 
L 256.608 497.938278 
L 259.776 498.666504 
L 266.112 499.756854 
L 269.28 499.861851 
L 275.616 501.43198 
L 278.784 502.48731 
L 281.952 503.277455 
L 288.288 505.272445 
L 294.624 506.504578 
L 297.792 507.129914 
L 304.128 508.930218 
L 313.632 510.761261 
L 316.8 511.233821 
L 319.968 511.529614 
L 323.136 511.669855 
L 326.304 512.04146 
L 329.472 511.591942 
L 332.64 510.564722 
L 335.808 509.795818 
L 338.976 509.192194 
L 348.48 506.982187 
L 351.648 506.832095 
L 357.984 507.833469 
L 361.152 508.105981 
L 364.32 508.791868 
L 367.488 509.251604 
L 373.824 509.68946 
L 376.992 509.587671 
L 380.16 508.850697 
L 383.328 508.4055 
L 389.664 508.607322 
L 392.832 508.995669 
L 396 509.192853 
L 402.336 509.129387 
L 408.672 508.735365 
L 411.84 508.643999 
L 415.008 508.960808 
L 421.344 509.910222 
L 427.68 510.188366 
L 430.848 510.00163 
L 440.352 508.205911 
L 443.52 508.007675 
L 446.688 508.165597 
L 453.024 507.452769 
L 459.36 506.60186 
L 462.528 506.212134 
L 472.032 504.322495 
L 475.2 503.823816 
L 478.368 503.740789 
L 481.536 503.345583 
L 484.704 503.077686 
L 494.208 501.924489 
L 500.544 501.519654 
L 503.712 501.5491 
L 510.048 502.29947 
L 513.216 502.452412 
L 516.384 502.896407 
L 519.552 503.737239 
L 541.728 510.7786 
L 544.896 511.386293 
L 548.064 511.660001 
L 551.232 511.758882 
L 554.4 512.223637 
L 557.568 512.538609 
L 560.736 513.101598 
L 563.904 513.781842 
L 570.24 514.999987 
L 573.408 515.715961 
L 576.576 516.246877 
L 582.912 517.519595 
L 598.752 519.722123 
L 608.256 519.495497 
L 611.424 519.70731 
L 614.592 520.133369 
L 620.928 521.186446 
L 624.096 521.497127 
L 627.264 521.943946 
L 630.432 522.106262 
L 636.768 521.781041 
L 643.104 521.003591 
L 646.272 520.573594 
L 649.44 519.947402 
L 658.944 518.959757 
L 662.112 518.603687 
L 665.28 518.415559 
L 668.448 518.733733 
L 671.616 519.209459 
L 674.784 519.972849 
L 677.952 520.432268 
L 681.12 520.726837 
L 684.288 521.249709 
L 690.624 520.735165 
L 693.792 520.429437 
L 696.96 519.978628 
L 700.128 519.911741 
L 706.464 520.395134 
L 709.632 520.80404 
L 712.8 520.959246 
L 719.136 520.890964 
L 725.472 520.845217 
L 728.64 520.444891 
L 734.976 521.128636 
L 747.648 524.639335 
L 750.816 525.37885 
L 753.984 525.957775 
L 760.32 526.776378 
L 772.992 529.126775 
L 785.664 530.665526 
L 788.832 530.83086 
L 788.832 530.83086 
" clip-path="url(#p94ac4edbe7)" style="fill: none; stroke: #000000; stroke-width: 1.5; stroke-linecap: square"/>
   </g>
   <g id="line2d_6">
    <path d="M 0 459 
L 3.168 459 
L 6.336 461.211985 
L 9.504 466.232493 
L 12.672 468.504193 
L 15.84 469.975028 
L 19.008 470.807621 
L 22.176 470.895482 
L 25.344 470.702018 
L 28.512 471.275453 
L 31.68 471.545134 
L 50.688 475.028371 
L 53.856 475.890592 
L 57.024 476.571389 
L 60.192 476.752075 
L 66.528 476.207078 
L 69.696 476.27815 
L 72.864 476.835317 
L 88.704 477.996602 
L 95.04 479.131584 
L 101.376 479.72006 
L 107.712 481.168818 
L 114.048 482.783841 
L 117.216 483.148142 
L 123.552 483.501968 
L 133.056 484.076943 
L 136.224 484.39495 
L 142.56 485.49318 
L 148.896 486.042169 
L 152.064 486.402257 
L 158.4 487.246905 
L 161.568 487.324685 
L 164.736 487.261041 
L 167.904 486.963829 
L 171.072 486.824717 
L 174.24 486.567124 
L 183.744 486.360102 
L 186.912 486.208626 
L 190.08 485.899766 
L 196.416 485.736777 
L 199.584 485.697885 
L 202.752 485.482106 
L 205.92 485.511911 
L 215.424 486.425885 
L 228.096 488.012523 
L 231.264 488.543036 
L 234.432 488.9332 
L 237.6 489.441771 
L 240.768 490.16443 
L 243.936 491.006848 
L 253.44 493.184874 
L 256.608 493.515796 
L 262.944 494.592042 
L 266.112 495.052907 
L 269.28 495.307743 
L 275.616 496.522098 
L 278.784 497.280574 
L 281.952 497.913381 
L 288.288 499.416464 
L 297.792 501.132074 
L 307.296 503.173749 
L 319.968 505.278836 
L 326.304 506.061927 
L 329.472 506.082775 
L 335.808 505.592155 
L 342.144 505.221368 
L 348.48 504.727936 
L 351.648 504.744815 
L 370.656 506.714865 
L 373.824 506.927965 
L 376.992 506.988901 
L 380.16 506.718611 
L 383.328 506.577586 
L 389.664 506.827097 
L 396 507.273978 
L 402.336 507.393142 
L 411.84 507.348976 
L 418.176 507.851174 
L 421.344 508.184277 
L 427.68 508.480106 
L 430.848 508.461962 
L 440.352 507.704943 
L 443.52 507.629801 
L 446.688 507.731622 
L 456.192 507.17071 
L 462.528 506.760552 
L 475.2 505.393952 
L 478.368 505.289259 
L 497.376 503.820445 
L 500.544 503.636781 
L 503.712 503.567732 
L 516.384 503.991274 
L 519.552 504.377452 
L 529.056 505.930722 
L 541.728 508.243472 
L 544.896 508.662285 
L 557.568 509.721252 
L 567.072 511.030593 
L 586.08 513.852703 
L 592.416 514.631835 
L 595.584 515.11522 
L 598.752 515.473982 
L 611.424 516.147191 
L 617.76 516.952078 
L 624.096 517.697961 
L 627.264 518.090012 
L 630.432 518.339093 
L 636.768 518.484101 
L 643.104 518.354577 
L 646.272 518.247226 
L 649.44 518.026076 
L 658.944 517.735193 
L 665.28 517.550931 
L 671.616 518.0324 
L 674.784 518.471798 
L 684.288 519.326476 
L 693.792 519.119012 
L 696.96 518.942025 
L 700.128 518.949432 
L 706.464 519.275638 
L 709.632 519.529853 
L 715.968 519.71147 
L 725.472 519.801714 
L 728.64 519.641998 
L 734.976 520.066634 
L 753.984 523.047581 
L 763.488 524.152261 
L 772.992 525.483359 
L 785.664 526.906313 
L 788.832 527.153377 
L 788.832 527.153377 
" clip-path="url(#p94ac4edbe7)" style="fill: none; stroke: #000000; stroke-width: 1.5; stroke-linecap: square"/>
   </g>
   <g id="line2d_7">
    <path d="M 0 459 
L 3.168 459 
L 6.336 461.188542 
L 9.504 466.111761 
L 12.672 468.343941 
L 15.84 469.787855 
L 19.008 470.611089 
L 22.176 470.723587 
L 25.344 470.566735 
L 28.512 471.111412 
L 31.68 471.375518 
L 50.688 474.581739 
L 53.856 475.350126 
L 57.024 475.96307 
L 60.192 476.153538 
L 66.528 475.767727 
L 69.696 475.850787 
L 72.864 476.326834 
L 88.704 477.388523 
L 95.04 478.324548 
L 101.376 478.843205 
L 110.88 480.61792 
L 114.048 481.301082 
L 120.384 481.844921 
L 129.888 482.31746 
L 136.224 482.847796 
L 142.56 483.724888 
L 148.896 484.223379 
L 161.568 485.345215 
L 164.736 485.365385 
L 171.072 485.188843 
L 174.24 485.069449 
L 183.744 485.063826 
L 205.92 484.729521 
L 215.424 485.372088 
L 228.096 486.481497 
L 240.768 487.971955 
L 250.272 489.584793 
L 253.44 490.048009 
L 256.608 490.325472 
L 266.112 491.487962 
L 269.28 491.727983 
L 275.616 492.621074 
L 288.288 494.714947 
L 297.792 496.055447 
L 307.296 497.603023 
L 319.968 499.346516 
L 326.304 500.070539 
L 329.472 500.225646 
L 335.808 500.225379 
L 342.144 500.270169 
L 348.48 500.22579 
L 351.648 500.341142 
L 373.824 502.279491 
L 376.992 502.420423 
L 383.328 502.403227 
L 392.832 502.969381 
L 399.168 503.290578 
L 408.672 503.552777 
L 415.008 503.843262 
L 424.512 504.504628 
L 430.848 504.735117 
L 443.52 504.591889 
L 446.688 504.711444 
L 459.36 504.553517 
L 465.696 504.358788 
L 475.2 503.940881 
L 481.536 503.808068 
L 491.04 503.471816 
L 500.544 503.188442 
L 506.88 503.223605 
L 519.552 503.62984 
L 532.224 504.835843 
L 544.896 506.109276 
L 560.736 507.153475 
L 598.752 510.862837 
L 611.424 511.594041 
L 630.432 513.325566 
L 639.936 513.700518 
L 655.776 513.886144 
L 665.28 513.963503 
L 671.616 514.362107 
L 677.952 514.895883 
L 687.456 515.412241 
L 703.296 515.703684 
L 715.968 516.311786 
L 734.976 516.908013 
L 772.992 520.671867 
L 788.832 522.042297 
L 788.832 522.042297 
" clip-path="url(#p94ac4edbe7)" style="fill: none; stroke: #000000; stroke-width: 1.5; stroke-linecap: square"/>
   </g>
   <g id="line2d_8">
    <path d="M 0 459 
L 3.168 459 
L 6.336 461.176819 
L 9.504 466.051526 
L 12.672 468.263524 
L 15.84 469.693428 
L 19.008 470.511249 
L 22.176 470.634958 
L 25.344 470.495304 
L 28.512 471.025786 
L 31.68 471.286679 
L 50.688 474.354389 
L 53.856 475.076544 
L 57.024 475.654868 
L 60.192 475.846411 
L 66.528 475.528353 
L 69.696 475.615172 
L 72.864 476.052539 
L 91.872 477.472895 
L 95.04 477.896541 
L 101.376 478.375052 
L 110.88 479.940453 
L 114.048 480.539032 
L 120.384 481.044818 
L 133.056 481.741945 
L 139.392 482.347508 
L 142.56 482.755535 
L 152.064 483.48343 
L 158.4 484.095512 
L 164.736 484.261089 
L 174.24 484.106411 
L 186.912 484.142846 
L 193.248 484.020263 
L 209.088 484.19725 
L 218.592 484.772451 
L 231.264 485.735803 
L 237.6 486.244017 
L 247.104 487.438161 
L 253.44 488.226159 
L 259.776 488.789785 
L 266.112 489.386023 
L 269.28 489.59237 
L 278.784 490.710398 
L 300.96 493.40213 
L 307.296 494.199154 
L 323.136 495.887649 
L 326.304 496.210387 
L 329.472 496.375171 
L 348.48 496.72379 
L 351.648 496.853138 
L 373.824 498.492679 
L 376.992 498.639362 
L 383.328 498.739047 
L 408.672 499.894945 
L 415.008 500.180327 
L 427.68 500.898407 
L 434.016 501.020399 
L 443.52 501.109341 
L 449.856 501.268614 
L 462.528 501.327965 
L 497.376 500.997341 
L 503.712 500.989519 
L 519.552 501.406834 
L 535.392 502.461579 
L 544.896 503.116788 
L 560.736 503.915117 
L 605.088 506.887404 
L 614.592 507.434443 
L 630.432 508.528191 
L 643.104 508.999866 
L 671.616 509.835082 
L 681.12 510.40225 
L 687.456 510.691883 
L 706.464 511.271508 
L 715.968 511.677647 
L 734.976 512.32557 
L 788.832 516.138022 
L 788.832 516.138022 
" clip-path="url(#p94ac4edbe7)" style="fill: none; stroke: #000000; stroke-width: 1.5; stroke-linecap: square"/>
   </g>
   <g id="line2d_9">
    <path d="M 0 459 
L 3.168 459 
L 6.336 461.170957 
L 9.504 466.021444 
L 12.672 468.223249 
L 15.84 469.646018 
L 19.008 470.460954 
L 22.176 470.589993 
L 25.344 470.458657 
L 28.512 470.982085 
L 31.68 471.241267 
L 44.352 473.273863 
L 47.52 473.630301 
L 57.024 475.500153 
L 60.192 475.69137 
L 66.528 475.404273 
L 69.696 475.492405 
L 72.864 475.910939 
L 91.872 477.277623 
L 95.04 477.677601 
L 101.376 478.135116 
L 110.88 479.598898 
L 114.048 480.156358 
L 120.384 480.639936 
L 133.056 481.314905 
L 139.392 481.880626 
L 142.56 482.257176 
L 152.064 482.941686 
L 158.4 483.508809 
L 164.736 483.680779 
L 174.24 483.581194 
L 186.912 483.654444 
L 193.248 483.567037 
L 209.088 483.75829 
L 221.76 484.459414 
L 228.096 484.866934 
L 240.768 485.887482 
L 253.44 487.269951 
L 259.776 487.763522 
L 278.784 489.429444 
L 300.96 491.738243 
L 310.464 492.728813 
L 319.968 493.632675 
L 329.472 494.315788 
L 348.48 494.737469 
L 354.816 495.071817 
L 373.824 496.294846 
L 380.16 496.479637 
L 386.496 496.699938 
L 408.672 497.62707 
L 415.008 497.889056 
L 427.68 498.521699 
L 434.016 498.661253 
L 443.52 498.798358 
L 449.856 498.962098 
L 465.696 499.089545 
L 484.704 499.103513 
L 503.712 499.108567 
L 519.552 499.491672 
L 535.392 500.325004 
L 548.064 500.964724 
L 557.568 501.342726 
L 576.576 502.371042 
L 598.752 503.614928 
L 614.592 504.311858 
L 630.432 505.181513 
L 646.272 505.689346 
L 665.28 506.134265 
L 681.12 506.860167 
L 687.456 507.106109 
L 706.464 507.651155 
L 719.136 508.091707 
L 734.976 508.5856 
L 788.832 511.539646 
L 788.832 511.539646 
" clip-path="url(#p94ac4edbe7)" style="fill: none; stroke: #000000; stroke-width: 1.5; stroke-linecap: square"/>
   </g>
  </g>
 </g>
 <defs>
  <clipPath id="p94ac4edbe7">
   <rect x="0" y="0" width="792" height="612"/>
  </clipPath>
 </defs>
</svg>
