<?xml version="1.0" encoding="utf-8" standalone="no"?>
<!DOCTYPE svg PUBLIC "-//W3C//DTD SVG 1.1//EN"
  "http://www.w3.org/Graphics/SVG/1.1/DTD/svg11.dtd">
<svg xmlns:xlink="http://www.w3.org/1999/xlink" width="792pt" height="612pt" viewBox="0 0 792 612" xmlns="http://www.w3.org/2000/svg" version="1.1">
 <metadata>
  <rdf:RDF xmlns:dc="http://purl.org/dc/elements/1.1/" xmlns:cc="http://creativecommons.org/ns#" xmlns:rdf="http://www.w3.org/1999/02/22-rdf-syntax-ns#">
   <cc:Work>
    <dc:type rdf:resource="http://purl.org/dc/dcmitype/StillImage"/>
    <dc:date>2023-01-23T15:51:57.225129</dc:date>
    <dc:format>image/svg+xml</dc:format>
    <dc:creator>
     <cc:Agent>
      <dc:title>Matplotlib v3.6.2, https://matplotlib.org/</dc:title>
     </cc:Agent>
    </dc:creator>
   </cc:Work>
  </rdf:RDF>
 </metadata>
 <defs>
  <style type="text/css">*{stroke-linejoin: round; stroke-linecap: butt}</style>
 </defs>
 <g id="figure_1">
  <g id="patch_1">
   <path d="M 0 612 
L 792 612 
L 792 0 
L 0 0 
z
" style="fill: #ffffff"/>
  </g>
  <g id="axes_1">
   <g id="line2d_1">
    <path d="M 0 306 
L 3.168 305.715739 
L 6.336 310.507238 
L 9.504 311.833408 
L 12.672 300.044811 
L 15.84 316.337744 
L 19.008 311.941658 
L 22.176 303.644743 
L 25.344 293.296786 
L 28.512 291.797171 
L 31.68 306.690347 
L 34.848 315.621087 
L 38.016 322.552173 
L 41.184 297.257975 
L 44.352 309.059086 
L 47.52 305.377334 
L 50.688 299.760663 
L 53.856 311.914595 
L 57.024 319.216668 
L 60.192 308.030405 
L 63.36 295.378329 
L 66.528 309.397454 
L 69.696 321.836762 
L 72.864 310.317771 
L 76.032 308.314651 
L 79.2 312.212276 
L 82.368 287.410604 
L 85.536 300.856717 
L 88.704 302.697288 
L 91.872 308.219903 
L 95.04 303.969595 
L 98.208 313.63285 
L 101.376 308.355257 
L 104.544 315.174813 
L 107.712 311.616904 
L 110.88 291.013857 
L 114.048 310.074164 
L 117.216 309.045551 
L 120.384 312.469353 
L 123.552 301.912302 
L 126.72 293.242735 
L 129.888 299.449466 
L 133.056 294.648315 
L 136.224 312.875247 
L 139.392 299.923032 
L 142.56 315.607564 
L 145.728 302.115311 
L 148.896 309.992961 
L 152.064 300.24778 
L 155.232 297.866642 
L 158.4 314.593246 
L 161.568 309.546333 
L 164.736 306.094754 
L 167.904 297.068626 
L 171.072 317.784225 
L 174.24 318.608623 
L 177.408 306.893389 
L 180.576 310.047097 
L 183.744 308.328187 
L 186.912 306.866316 
L 190.08 304.76821 
L 193.248 314.539143 
L 196.416 309.248573 
L 199.584 300.071873 
L 202.752 312.983482 
L 205.92 318.176174 
L 209.088 313.849291 
L 212.256 301.749897 
L 215.424 312.076968 
L 218.592 299.774194 
L 221.76 291.040864 
L 224.928 319.257201 
L 228.096 303.793633 
L 231.264 304.930642 
L 234.432 296.36539 
L 237.6 323.820563 
L 240.768 309.519264 
L 243.936 314.255096 
L 247.104 301.195034 
L 250.272 313.957508 
L 253.44 307.150574 
L 256.608 297.2174 
L 259.776 309.776416 
L 262.944 306.527912 
L 266.112 314.660873 
L 269.28 308.341722 
L 272.448 300.518414 
L 275.616 305.093075 
L 278.784 310.588438 
L 281.952 302.318323 
L 285.12 302.196515 
L 288.288 302.426598 
L 291.456 312.577594 
L 294.624 284.607105 
L 297.792 289.32636 
L 300.96 310.723769 
L 304.128 308.761316 
L 307.296 300.207186 
L 310.464 303.238684 
L 313.632 308.815456 
L 316.8 317.716644 
L 319.968 322.795101 
L 323.136 308.138689 
L 326.304 300.450754 
L 329.472 317.770709 
L 332.64 301.384496 
L 335.808 301.167968 
L 338.976 305.160756 
L 342.144 298.421262 
L 345.312 288.59767 
L 348.48 312.239337 
L 351.648 319.324754 
L 354.816 307.150574 
L 357.984 313.538154 
L 361.152 301.72283 
L 364.32 300.586073 
L 367.488 305.282581 
L 370.656 300.707862 
L 373.824 307.543117 
L 376.992 307.543117 
L 380.16 316.865023 
L 383.328 309.844087 
L 386.496 309.316246 
L 389.664 297.42028 
L 392.832 305.309653 
L 396 297.988384 
L 399.168 294.310389 
L 405.504 309.898223 
L 408.672 313.01054 
L 411.84 315.242433 
L 415.008 292.688756 
L 418.176 304.659922 
L 421.344 302.304789 
L 424.512 307.407758 
L 427.68 304.90357 
L 430.848 298.069546 
L 434.016 303.807168 
L 437.184 307.488973 
L 440.352 306.568521 
L 443.52 316.16197 
L 446.688 297.379703 
L 449.856 308.544752 
L 453.024 301.72283 
L 456.192 304.416275 
L 459.36 307.989798 
L 462.528 308.206367 
L 465.696 306.040609 
L 468.864 311.630436 
L 472.032 315.188337 
L 475.2 307.326542 
L 478.368 300.572541 
L 481.536 314.255096 
L 484.704 317.743676 
L 487.872 312.79407 
L 491.04 306.730955 
L 494.208 310.804966 
L 497.376 309.50573 
L 500.544 305.78342 
L 503.712 308.66657 
L 506.88 303.888382 
L 513.216 298.299512 
L 516.384 301.885234 
L 519.552 316.189013 
L 522.72 303.049193 
L 525.888 313.443457 
L 529.056 310.426038 
L 532.224 304.213238 
L 535.392 310.101232 
L 538.56 308.937272 
L 541.728 302.589012 
L 544.896 310.250103 
L 548.064 306.933997 
L 551.232 302.521339 
L 554.4 304.267381 
L 557.568 310.547838 
L 560.736 310.020029 
L 563.904 300.504882 
L 567.072 295.405369 
L 570.24 305.32319 
L 573.408 307.042286 
L 576.576 312.997011 
L 579.744 312.293459 
L 582.912 310.155367 
L 586.08 306.379014 
L 589.248 301.736364 
L 592.416 310.358371 
L 595.584 299.287107 
L 598.752 297.406754 
L 601.92 305.810493 
L 605.088 300.81612 
L 608.256 302.385995 
L 611.424 305.350262 
L 614.592 299.747133 
L 617.76 313.25406 
L 620.928 306.21658 
L 624.096 301.573962 
L 627.264 306.582057 
L 630.432 309.749348 
L 633.6 319.270712 
L 636.768 310.980892 
L 639.936 314.877275 
L 643.104 299.476526 
L 646.272 302.602546 
L 649.44 312.821129 
L 652.608 286.749864 
L 655.776 304.064345 
L 658.944 304.741138 
L 662.112 301.384496 
L 665.28 315.404716 
L 668.448 313.348759 
L 671.616 308.233438 
L 674.784 310.317771 
L 677.952 300.044811 
L 681.12 301.952903 
L 684.288 304.497491 
L 687.456 305.539769 
L 690.624 308.72071 
L 693.792 294.405006 
L 696.96 323.914993 
L 700.128 309.302712 
L 703.296 320.378416 
L 706.464 306.893389 
L 709.632 309.776416 
L 712.8 306.473768 
L 715.968 304.673458 
L 719.136 303.292825 
L 722.304 302.602546 
L 728.64 311.833408 
L 731.808 308.937272 
L 734.976 304.998323 
L 738.144 306.758027 
L 741.312 303.495853 
L 744.48 307.502509 
L 747.648 305.661594 
L 750.816 304.348596 
L 753.984 308.964341 
L 757.152 300.49135 
L 760.32 305.932319 
L 763.488 303.035659 
L 766.656 299.490056 
L 769.824 310.398971 
L 772.992 300.356033 
L 776.16 297.082151 
L 779.328 305.539769 
L 782.496 309.438058 
L 785.664 299.638889 
L 788.832 306.121826 
L 788.832 306.121826 
" clip-path="url(#pe877231ccf)" style="fill: none; stroke: #000000; stroke-width: 1.5; stroke-linecap: square"/>
   </g>
   <g id="line2d_2">
    <path d="M 0 306 
L 3.168 306 
L 6.336 305.810493 
L 9.504 308.494478 
L 12.672 310.275365 
L 15.84 304.994829 
L 19.008 310.757923 
L 22.176 311.354471 
L 25.344 307.484727 
L 28.512 300.362825 
L 31.68 296.05077 
L 34.848 301.361675 
L 41.184 315.575321 
L 44.352 306.379598 
L 47.52 307.713722 
L 50.688 306.548933 
L 53.856 303.167134 
L 57.024 307.580646 
L 60.192 313.425897 
L 63.36 310.713632 
L 66.528 302.990807 
L 69.696 306.21796 
L 72.864 314.057661 
L 79.2 310.273083 
L 82.368 311.243316 
L 85.536 299.254424 
L 88.704 300.041468 
L 91.872 301.383647 
L 95.04 304.799316 
L 98.208 304.349392 
L 101.376 308.998312 
L 104.544 308.676867 
L 107.712 311.932319 
L 110.88 311.822105 
L 114.048 301.393359 
L 117.216 305.748173 
L 120.384 307.398522 
L 123.552 309.950873 
L 126.72 305.908591 
L 129.888 299.543275 
L 133.056 299.465543 
L 136.224 297.02312 
L 139.392 304.991369 
L 142.56 302.437054 
L 145.728 309.036581 
L 148.896 305.555587 
L 152.064 307.790212 
L 155.232 304.032443 
L 158.4 300.945925 
L 161.568 307.809587 
L 164.736 308.671453 
L 167.904 307.395231 
L 171.072 302.194499 
L 174.24 310.022683 
L 177.408 314.334185 
L 180.576 310.627498 
L 183.744 310.361184 
L 186.912 309.332435 
L 190.08 308.094155 
L 193.248 306.428594 
L 196.416 310.518914 
L 199.584 309.867015 
L 202.752 304.932819 
L 205.92 308.970605 
L 209.088 313.591046 
L 212.256 313.730992 
L 215.424 307.731079 
L 218.592 309.918551 
L 221.76 304.817099 
L 224.928 297.889187 
L 228.096 308.613968 
L 231.264 306.185791 
L 234.432 305.532231 
L 237.6 300.913394 
L 240.768 312.419212 
L 243.936 310.964335 
L 247.104 312.638293 
L 250.272 306.936916 
L 253.44 310.437396 
L 256.608 308.800647 
L 259.776 302.992824 
L 262.944 306.41097 
L 266.112 306.435495 
L 269.28 310.559089 
L 272.448 309.438854 
L 275.616 304.97709 
L 278.784 305.017698 
L 281.952 307.809959 
L 285.12 305.074072 
L 288.288 303.620379 
L 291.456 303.015436 
L 294.624 307.792866 
L 297.792 296.139326 
L 300.96 292.709261 
L 304.128 301.723839 
L 307.296 305.238894 
L 310.464 302.718678 
L 313.632 302.980723 
L 316.8 305.910608 
L 319.968 311.825873 
L 323.136 317.389004 
L 326.304 312.802294 
L 329.472 306.606635 
L 332.64 312.208402 
L 335.808 306.799007 
L 338.976 303.979256 
L 342.144 304.562835 
L 345.312 301.453754 
L 348.48 294.953824 
L 351.648 303.602703 
L 354.816 311.504352 
L 357.984 309.306799 
L 361.152 311.446563 
L 364.32 306.585932 
L 367.488 303.5768 
L 370.656 304.443135 
L 373.824 302.599149 
L 376.992 305.061863 
L 380.16 306.279377 
L 383.328 311.592919 
L 386.496 310.711297 
L 389.664 310.02868 
L 392.832 303.717303 
L 396 304.513521 
L 399.168 301.245079 
L 402.336 297.750739 
L 405.504 299.901701 
L 408.672 304.886 
L 411.84 308.955 
L 415.008 312.110981 
L 418.176 302.38695 
L 421.344 303.522128 
L 424.512 302.921912 
L 427.68 305.190482 
L 430.848 305.052573 
L 434.016 301.537289 
L 437.184 302.654137 
L 440.352 305.056289 
L 443.52 305.839636 
L 446.688 311.024781 
L 449.856 304.191687 
L 453.024 306.370468 
L 456.192 304.040299 
L 459.36 304.240734 
L 462.528 306.123472 
L 465.696 307.16634 
L 468.864 306.602441 
L 472.032 309.107758 
L 475.2 312.183569 
L 478.368 309.752904 
L 481.536 305.160278 
L 484.704 309.727799 
L 487.872 313.75619 
L 491.04 313.284141 
L 494.208 310.009361 
L 497.376 310.405552 
L 500.544 309.944504 
L 503.712 307.861023 
L 506.88 308.279671 
L 510.048 306.0637 
L 516.384 300.895563 
L 519.552 301.380887 
L 522.72 308.797144 
L 525.888 305.910502 
L 529.056 309.692557 
L 532.224 310.062753 
L 535.392 307.138737 
L 538.56 308.637695 
L 541.728 308.808344 
L 544.896 305.700027 
L 548.064 307.963523 
L 551.232 307.456381 
L 554.4 304.967375 
L 557.568 304.6053 
L 560.736 307.589139 
L 563.904 308.804469 
L 567.072 304.637893 
L 570.24 300.006181 
L 573.408 302.654774 
L 576.576 304.848683 
L 579.744 308.943906 
L 582.912 310.634557 
L 586.08 310.394195 
L 589.248 308.379568 
L 592.416 305.06027 
L 595.584 307.738776 
L 598.752 303.500631 
L 601.92 300.434251 
L 605.088 303.108057 
L 608.256 301.939529 
L 611.424 302.147527 
L 614.592 303.746816 
L 617.76 301.742892 
L 620.928 307.504686 
L 624.096 306.874226 
L 627.264 304.232135 
L 630.432 305.4086 
L 633.6 307.59657 
L 636.768 313.469453 
L 639.936 312.236312 
L 643.104 313.58659 
L 646.272 306.504821 
L 649.44 304.546538 
L 652.608 308.706379 
L 655.776 297.678545 
L 658.944 300.859742 
L 662.112 302.771809 
L 665.28 302.059317 
L 668.448 308.734352 
L 671.616 311.06904 
L 674.784 309.662357 
L 677.952 309.985159 
L 681.12 305.040842 
L 684.288 303.492669 
L 687.456 303.994597 
L 690.624 304.775323 
L 693.792 306.734936 
L 696.96 300.530619 
L 700.128 312.262684 
L 703.296 310.780819 
L 706.464 315.621829 
L 709.632 311.268364 
L 712.8 310.532766 
L 719.136 306.58142 
L 722.304 304.954529 
L 725.472 303.736678 
L 728.64 305.452978 
L 731.808 308.626707 
L 734.976 308.785998 
L 738.144 306.882825 
L 741.312 306.820984 
L 744.48 305.156085 
L 747.648 306.337556 
L 750.816 306.005574 
L 753.984 305.171532 
L 757.152 307.062351 
L 760.32 303.760033 
L 763.488 304.847993 
L 766.656 303.934509 
L 769.824 301.704202 
L 772.992 306.057277 
L 776.16 303.196009 
L 779.328 300.124247 
L 782.496 302.825045 
L 785.664 306.149111 
L 788.832 302.881308 
L 788.832 302.881308 
" clip-path="url(#pe877231ccf)" style="fill: none; stroke: #000000; stroke-width: 1.5; stroke-linecap: square"/>
   </g>
   <g id="line2d_3">
    <path d="M 0 306 
L 3.168 306 
L 6.336 305.833484 
L 9.504 307.951198 
L 12.672 309.467439 
L 15.84 306.114806 
L 19.008 309.537942 
L 22.176 310.310298 
L 25.344 308.227991 
L 28.512 303.650369 
L 31.68 300.064281 
L 34.848 302.048563 
L 38.016 306.087753 
L 41.184 310.968297 
L 44.352 306.92062 
L 47.52 307.55046 
L 50.688 306.911477 
L 53.856 304.809639 
L 57.024 306.897962 
L 60.192 310.518124 
L 63.36 309.785167 
L 66.528 305.559024 
L 69.696 306.675338 
L 72.864 311.131065 
L 76.032 310.900527 
L 79.2 310.160452 
L 82.368 310.78492 
L 85.536 303.910166 
L 88.704 302.9988 
L 91.872 302.887667 
L 95.04 304.461985 
L 98.208 304.311921 
L 101.376 307.051889 
L 104.544 307.443516 
L 107.712 309.712338 
L 110.88 310.261473 
L 114.048 304.601108 
L 117.216 306.221077 
L 120.384 307.047968 
L 123.552 308.625301 
L 126.72 306.649427 
L 129.888 302.703339 
L 133.056 301.735533 
L 136.224 299.667251 
L 139.392 303.549342 
L 142.56 302.483917 
L 145.728 306.337049 
L 148.896 305.098342 
L 152.064 306.527824 
L 155.232 304.678939 
L 158.4 302.663343 
L 161.568 306.16152 
L 164.736 307.17425 
L 167.904 306.853503 
L 171.072 303.973108 
L 174.24 308.026058 
L 177.408 311.146433 
L 180.576 309.916563 
L 183.744 309.966967 
L 186.912 309.502715 
L 190.08 308.723666 
L 193.248 307.570741 
L 196.416 309.611002 
L 199.584 309.513043 
L 202.752 306.736282 
L 205.92 308.58097 
L 209.088 311.416039 
L 212.256 312.127952 
L 215.424 309.07973 
L 218.592 309.964558 
L 221.76 306.982881 
L 224.928 302.279525 
L 228.096 307.255213 
L 231.264 306.237773 
L 234.432 305.849045 
L 237.6 303.05676 
L 240.768 309.16357 
L 243.936 309.273208 
L 247.104 310.732341 
L 250.272 307.929803 
L 253.44 309.71159 
L 256.608 308.954823 
L 259.776 305.492287 
L 262.944 306.742454 
L 266.112 306.685105 
L 269.28 309.024703 
L 272.448 308.834506 
L 275.616 306.409563 
L 278.784 306.007694 
L 281.952 307.357259 
L 285.12 305.878343 
L 288.288 304.80661 
L 291.456 304.084897 
L 294.624 306.576143 
L 297.792 300.097959 
L 300.96 296.926681 
L 304.128 300.962722 
L 307.296 303.248502 
L 310.464 302.361073 
L 313.632 302.610605 
L 316.8 304.430531 
L 319.968 308.327081 
L 323.136 312.58525 
L 326.304 311.291837 
L 329.472 308.111386 
L 332.64 310.950086 
L 335.808 308.147484 
L 338.976 306.101957 
L 342.144 305.829426 
L 345.312 303.642954 
L 348.48 299.236458 
L 351.648 303.070815 
L 354.816 307.843756 
L 357.984 307.638879 
L 361.152 309.382371 
L 364.32 307.137213 
L 367.488 305.208815 
L 370.656 305.216133 
L 373.824 303.87018 
L 376.992 304.945258 
L 380.16 305.714301 
L 383.328 308.980474 
L 386.496 309.243142 
L 389.664 309.273913 
L 392.832 305.7926 
L 396 305.659062 
L 399.168 303.422702 
L 402.336 300.731977 
L 405.504 301.105417 
L 408.672 303.683738 
L 415.008 309.016906 
L 418.176 304.223049 
L 421.344 304.35029 
L 424.512 303.752988 
L 427.68 304.82327 
L 430.848 304.843758 
L 434.016 302.83763 
L 437.184 303.114662 
L 440.352 304.393727 
L 443.52 305.041212 
L 446.688 308.311925 
L 449.856 305.108617 
L 453.024 306.131409 
L 456.192 304.839686 
L 459.36 304.709375 
L 462.528 305.664423 
L 465.696 306.400867 
L 468.864 306.310696 
L 472.032 307.876981 
L 475.2 310.033821 
L 478.368 309.240831 
L 481.536 306.69689 
L 484.704 308.929731 
L 487.872 311.528442 
L 491.04 311.90525 
L 494.208 310.390138 
L 497.376 310.505485 
L 500.544 310.2266 
L 503.712 308.922153 
L 506.88 308.85527 
L 510.048 307.399935 
L 513.216 305.546786 
L 516.384 303.412313 
L 519.552 302.960253 
L 522.72 306.841137 
L 525.888 305.716531 
L 529.056 307.987125 
L 532.224 308.712824 
L 535.392 307.383424 
L 538.56 308.170709 
L 541.728 308.390803 
L 544.896 306.686732 
L 548.064 307.729844 
L 551.232 307.493794 
L 554.4 306.033613 
L 557.568 305.511238 
L 560.736 306.994167 
L 563.904 307.890714 
L 567.072 305.729832 
L 570.24 302.697307 
L 573.408 303.453893 
L 576.576 304.509467 
L 579.744 306.995243 
L 582.912 308.549404 
L 586.08 309.026623 
L 589.248 308.24691 
L 592.416 306.331691 
L 595.584 307.520077 
L 598.752 305.095798 
L 601.92 302.832233 
L 605.088 303.708286 
L 608.256 302.857161 
L 611.424 302.709784 
L 614.592 303.477765 
L 617.76 302.38409 
L 620.928 305.588617 
L 624.096 305.773569 
L 627.264 304.537172 
L 630.432 305.12873 
L 633.6 306.479208 
L 636.768 310.2384 
L 639.936 310.461162 
L 643.104 311.769978 
L 646.272 308.156967 
L 649.44 306.533908 
L 652.608 308.393384 
L 655.776 302.025024 
L 662.112 303.248211 
L 665.28 302.697759 
L 668.448 306.438307 
L 671.616 308.462801 
L 674.784 308.397939 
L 677.952 308.970314 
L 681.12 306.348431 
L 684.288 305.051989 
L 687.456 304.872602 
L 690.624 305.061759 
L 693.792 306.126386 
L 696.96 302.685946 
L 700.128 308.934119 
L 703.296 309.038036 
L 706.464 312.400464 
L 709.632 310.790998 
L 712.8 310.499626 
L 715.968 309.326424 
L 722.304 306.575335 
L 725.472 305.405225 
L 728.64 305.920749 
L 731.808 307.666259 
L 734.976 308.04656 
L 738.144 307.154343 
L 741.312 307.039664 
L 744.48 305.995691 
L 747.648 306.452081 
L 750.816 306.199564 
L 753.984 305.651733 
L 757.152 306.608877 
L 760.32 304.809573 
L 763.488 305.134 
L 766.656 304.515444 
L 769.824 303.037384 
L 772.992 305.201731 
L 776.16 303.779728 
L 779.328 301.80595 
L 782.496 302.892251 
L 785.664 304.810022 
L 788.832 303.289073 
L 788.832 303.289073 
" clip-path="url(#pe877231ccf)" style="fill: none; stroke: #000000; stroke-width: 1.5; stroke-linecap: square"/>
   </g>
   <g id="line2d_4">
    <path d="M 0 306 
L 3.168 306 
L 6.336 305.845586 
L 9.504 307.675229 
L 12.672 308.998531 
L 15.84 306.540341 
L 19.008 308.952557 
L 22.176 309.629414 
L 25.344 308.359914 
L 28.512 305.323952 
L 31.68 302.707797 
L 34.848 303.452028 
L 38.016 305.665289 
L 41.184 308.670443 
L 44.352 306.678264 
L 47.52 307.08749 
L 50.688 306.797261 
L 53.856 305.615466 
L 57.024 306.664142 
L 60.192 308.739665 
L 63.36 308.623181 
L 66.528 306.458363 
L 69.696 306.93657 
L 72.864 309.354292 
L 76.032 309.510023 
L 79.2 309.317309 
L 82.368 309.783108 
L 85.536 306.186663 
L 88.704 305.331896 
L 91.872 304.909931 
L 95.04 305.439488 
L 98.208 305.204528 
L 101.376 306.551014 
L 104.544 306.839551 
L 107.712 308.172027 
L 110.88 308.720871 
L 114.048 305.888775 
L 117.216 306.560982 
L 120.384 306.951747 
L 123.552 307.830081 
L 126.72 306.887437 
L 129.888 304.715315 
L 133.056 303.882148 
L 136.224 302.404803 
L 139.392 304.069045 
L 142.56 303.395184 
L 145.728 305.35012 
L 148.896 304.831089 
L 152.064 305.655273 
L 155.232 304.795124 
L 158.4 303.683745 
L 161.568 305.41692 
L 164.736 306.074895 
L 167.904 306.084744 
L 171.072 304.642158 
L 174.24 306.731493 
L 177.408 308.627438 
L 180.576 308.350666 
L 183.744 308.619235 
L 186.912 308.585993 
L 190.08 308.316144 
L 193.248 307.752964 
L 196.416 308.836902 
L 199.584 308.905694 
L 202.752 307.491683 
L 205.92 308.368492 
L 209.088 309.931651 
L 212.256 310.556474 
L 215.424 309.162149 
L 218.592 309.627209 
L 221.76 308.053749 
L 224.928 305.331688 
L 228.096 307.559422 
L 231.264 306.966861 
L 234.432 306.646313 
L 237.6 305.011151 
L 240.768 308.013817 
L 243.936 308.259335 
L 247.104 309.212673 
L 250.272 307.936474 
L 253.44 308.897137 
L 256.608 308.62357 
L 259.776 306.80807 
L 262.944 307.277363 
L 266.112 307.15624 
L 269.28 308.355926 
L 272.448 308.360701 
L 275.616 307.10213 
L 278.784 306.774047 
L 281.952 307.383282 
L 288.288 305.872481 
L 291.456 305.321433 
L 294.624 306.480948 
L 297.792 302.976579 
L 300.96 300.79013 
L 304.128 302.37706 
L 307.296 303.390116 
L 310.464 302.87243 
L 313.632 302.924081 
L 316.8 303.865789 
L 319.968 306.073914 
L 323.136 308.751303 
L 326.304 308.66451 
L 329.472 307.345884 
L 332.64 309.01407 
L 335.808 307.79797 
L 338.976 306.746063 
L 342.144 306.48218 
L 345.312 305.192489 
L 348.48 302.533329 
L 351.648 304.084519 
L 354.816 306.513968 
L 357.984 306.615255 
L 361.152 307.727123 
L 367.488 305.779597 
L 370.656 305.694667 
L 373.824 304.896406 
L 380.16 305.676825 
L 383.328 307.461542 
L 386.496 307.845328 
L 389.664 308.083806 
L 392.832 306.383745 
L 396 306.208318 
L 399.168 304.90858 
L 402.336 303.224653 
L 405.504 303.03629 
L 408.672 304.128737 
L 411.84 305.550029 
L 415.008 307.100059 
L 418.176 304.795775 
L 421.344 304.76601 
L 424.512 304.361607 
L 427.68 304.845798 
L 430.848 304.857769 
L 434.016 303.765194 
L 437.184 303.773384 
L 440.352 304.368476 
L 443.52 304.719384 
L 446.688 306.551601 
L 449.856 305.097449 
L 453.024 305.643629 
L 456.192 305.008787 
L 459.36 304.912809 
L 465.696 305.849636 
L 468.864 305.883424 
L 472.032 306.801854 
L 475.2 308.145617 
L 478.368 308.015166 
L 481.536 306.8266 
L 484.704 308.007162 
L 487.872 309.56199 
L 491.04 310.078468 
L 494.208 309.551721 
L 497.376 309.754554 
L 500.544 309.722152 
L 503.712 309.102696 
L 506.88 309.03742 
L 510.048 308.214479 
L 513.216 307.075118 
L 516.384 305.668058 
L 519.552 305.071904 
L 522.72 306.848467 
L 525.888 306.24444 
L 529.056 307.393821 
L 532.224 307.879737 
L 535.392 307.300227 
L 538.56 307.749831 
L 541.728 307.939665 
L 544.896 307.085868 
L 548.064 307.585652 
L 551.232 307.487935 
L 554.4 306.693958 
L 557.568 306.309467 
L 560.736 306.987683 
L 563.904 307.471435 
L 567.072 306.358141 
L 570.24 304.608213 
L 573.408 304.718032 
L 576.576 305.082742 
L 579.744 306.345661 
L 582.912 307.299424 
L 586.08 307.751284 
L 589.248 307.52586 
L 592.416 306.597796 
L 595.584 307.198422 
L 601.92 304.567998 
L 605.088 304.765698 
L 608.256 304.132346 
L 611.424 303.853547 
L 614.592 304.094326 
L 617.76 303.403479 
L 620.928 304.978004 
L 624.096 305.16884 
L 627.264 304.59592 
L 630.432 304.907636 
L 633.6 305.677574 
L 636.768 307.850993 
L 639.936 308.349563 
L 643.104 309.39215 
L 646.272 307.812534 
L 649.44 306.978827 
L 652.608 307.91219 
L 655.776 304.531314 
L 658.944 304.45689 
L 662.112 304.498492 
L 665.28 303.997618 
L 668.448 305.822275 
L 671.616 307.031185 
L 674.784 307.224287 
L 677.952 307.718548 
L 681.12 306.489442 
L 684.288 305.761172 
L 687.456 305.556584 
L 690.624 305.553385 
L 693.792 306.061687 
L 696.96 304.196247 
L 700.128 307.352187 
L 703.296 307.669957 
L 706.464 309.702534 
L 709.632 309.25941 
L 712.8 309.34628 
L 715.968 308.88998 
L 719.136 308.222222 
L 725.472 306.661122 
L 728.64 306.7468 
L 731.808 307.559475 
L 734.976 307.778186 
L 738.144 307.326997 
L 741.312 307.233838 
L 744.48 306.632004 
L 747.648 306.775514 
L 750.816 306.600195 
L 753.984 306.236668 
L 757.152 306.684541 
L 760.32 305.696859 
L 763.488 305.735064 
L 766.656 305.306596 
L 769.824 304.37109 
L 772.992 305.328342 
L 776.16 304.532223 
L 779.328 303.338286 
L 782.496 303.691966 
L 785.664 304.610856 
L 788.832 303.816649 
L 788.832 303.816649 
" clip-path="url(#pe877231ccf)" style="fill: none; stroke: #000000; stroke-width: 1.5; stroke-linecap: square"/>
   </g>
   <g id="line2d_5">
    <path d="M 0 306 
L 3.168 306 
L 6.336 305.851716 
L 9.504 307.539889 
L 12.672 308.756661 
L 15.84 306.699972 
L 19.008 308.673831 
L 22.176 309.270311 
L 25.344 308.336563 
L 28.512 306.03032 
L 31.68 303.990598 
L 34.848 304.355255 
L 38.016 305.802046 
L 41.184 307.861146 
L 44.352 306.60854 
L 47.52 306.888166 
L 50.688 306.720976 
L 53.856 305.971382 
L 57.024 306.596019 
L 60.192 307.894453 
L 63.36 307.90816 
L 66.528 306.666642 
L 69.696 306.932874 
L 72.864 308.366379 
L 76.032 308.551484 
L 79.2 308.529283 
L 82.368 308.870908 
L 85.536 306.897767 
L 88.704 306.347729 
L 91.872 306.018023 
L 95.04 306.215447 
L 98.208 306.015414 
L 101.376 306.689917 
L 104.544 306.83654 
L 107.712 307.567201 
L 110.88 307.920371 
L 114.048 306.4513 
L 117.216 306.764703 
L 120.384 306.961317 
L 123.552 307.434666 
L 126.72 306.961533 
L 129.888 305.788708 
L 133.056 305.248294 
L 136.224 304.346387 
L 139.392 305.070329 
L 142.56 304.634228 
L 145.728 305.562472 
L 148.896 305.271396 
L 152.064 305.669505 
L 155.232 305.212927 
L 158.4 304.594945 
L 161.568 305.435065 
L 164.736 305.780108 
L 167.904 305.80649 
L 171.072 305.074272 
L 177.408 307.182391 
L 180.576 307.158232 
L 183.744 307.399596 
L 186.912 307.477134 
L 190.08 307.426157 
L 193.248 307.204438 
L 196.416 307.816199 
L 199.584 307.935593 
L 202.752 307.280331 
L 205.92 307.756031 
L 209.088 308.625405 
L 212.256 309.060155 
L 215.424 308.450169 
L 218.592 308.755136 
L 221.76 308.004329 
L 224.928 306.588659 
L 228.096 307.645855 
L 231.264 307.329558 
L 234.432 307.134737 
L 237.6 306.237304 
L 240.768 307.700976 
L 243.936 307.847646 
L 247.104 308.38511 
L 250.272 307.785794 
L 253.44 308.300939 
L 256.608 308.207871 
L 259.776 307.290749 
L 262.944 307.493985 
L 266.112 307.413317 
L 269.28 308.021285 
L 272.448 308.047536 
L 275.616 307.415675 
L 278.784 307.221211 
L 281.952 307.50144 
L 288.288 306.668524 
L 291.456 306.316959 
L 294.624 306.839865 
L 297.792 304.984044 
L 300.96 303.678417 
L 304.128 304.262214 
L 307.296 304.635752 
L 310.464 304.263279 
L 313.632 304.175513 
L 316.8 304.566405 
L 319.968 305.660777 
L 323.136 307.088734 
L 326.304 307.174468 
L 329.472 306.615905 
L 332.64 307.550166 
L 338.976 306.553867 
L 342.144 306.435733 
L 345.312 305.769947 
L 348.48 304.334375 
L 351.648 304.993811 
L 354.816 306.186958 
L 357.984 306.269181 
L 361.152 306.877703 
L 367.488 305.956373 
L 370.656 305.900187 
L 373.824 305.470387 
L 380.16 305.793505 
L 383.328 306.716021 
L 389.664 307.170181 
L 392.832 306.357722 
L 396 306.270913 
L 399.168 305.577957 
L 402.336 304.637467 
L 405.504 304.425408 
L 408.672 304.878635 
L 411.84 305.551965 
L 415.008 306.356921 
L 418.176 305.218871 
L 421.344 305.170066 
L 424.512 304.933071 
L 427.68 305.14379 
L 430.848 305.119178 
L 434.016 304.532085 
L 437.184 304.471554 
L 443.52 304.872937 
L 446.688 305.81235 
L 449.856 305.106793 
L 453.024 305.394526 
L 456.192 305.085786 
L 459.36 305.029329 
L 465.696 305.521032 
L 468.864 305.563996 
L 472.032 306.066552 
L 475.2 306.82608 
L 478.368 306.869832 
L 481.536 306.345666 
L 484.704 307.003473 
L 487.872 307.900347 
L 491.04 308.310027 
L 494.208 308.180375 
L 497.376 308.397646 
L 500.544 308.49773 
L 503.712 308.277824 
L 506.88 308.309419 
L 510.048 307.940916 
L 513.216 307.373443 
L 516.384 306.618608 
L 519.552 306.223482 
L 522.72 307.050391 
L 525.888 306.711871 
L 529.056 307.272408 
L 532.224 307.537413 
L 535.392 307.257109 
L 538.56 307.496011 
L 541.728 307.618162 
L 544.896 307.199922 
L 548.064 307.456943 
L 551.232 307.419515 
L 554.4 307.009816 
L 557.568 306.777301 
L 563.904 307.333307 
L 567.072 306.766136 
L 570.24 305.821201 
L 573.408 305.779881 
L 576.576 305.886718 
L 582.912 306.962937 
L 586.08 307.225728 
L 589.248 307.154327 
L 592.416 306.702172 
L 595.584 307.009855 
L 601.92 305.622823 
L 605.088 305.642144 
L 608.256 305.241154 
L 611.424 305.00173 
L 614.592 305.028163 
L 617.76 304.584749 
L 620.928 305.311068 
L 624.096 305.386729 
L 627.264 305.070023 
L 630.432 305.195246 
L 633.6 305.57481 
L 636.768 306.719108 
L 639.936 307.075187 
L 643.104 307.725327 
L 646.272 307.038332 
L 649.44 306.665756 
L 652.608 307.181743 
L 655.776 305.476771 
L 662.112 305.309023 
L 665.28 304.981126 
L 668.448 305.848829 
L 671.616 306.473789 
L 674.784 306.618729 
L 677.952 306.92417 
L 681.12 306.350781 
L 684.288 305.986205 
L 690.624 305.828962 
L 693.792 306.067646 
L 696.96 305.095222 
L 700.128 306.663159 
L 703.296 306.882174 
L 706.464 308.007914 
L 709.632 307.914838 
L 712.8 308.071265 
L 715.968 307.940431 
L 722.304 307.308425 
L 725.472 306.913426 
L 728.64 306.936699 
L 731.808 307.342635 
L 734.976 307.474502 
L 738.144 307.269248 
L 741.312 307.225731 
L 744.48 306.914394 
L 747.648 306.964804 
L 753.984 306.646275 
L 757.152 306.840768 
L 760.32 306.312516 
L 763.488 306.279459 
L 766.656 306.007955 
L 769.824 305.466585 
L 772.992 305.880859 
L 776.16 305.420651 
L 779.328 304.725144 
L 782.496 304.790327 
L 785.664 305.175148 
L 788.832 304.712167 
L 788.832 304.712167 
" clip-path="url(#pe877231ccf)" style="fill: none; stroke: #000000; stroke-width: 1.5; stroke-linecap: square"/>
   </g>
   <g id="line2d_6">
    <path d="M 0 306 
L 3.168 306 
L 6.336 305.854791 
L 9.504 307.473357 
L 12.672 308.635322 
L 15.84 306.765115 
L 19.008 308.538866 
L 22.176 309.090438 
L 25.344 308.302206 
L 28.512 306.330905 
L 31.68 304.577075 
L 34.848 304.813428 
L 38.016 305.944029 
L 41.184 307.580818 
L 44.352 306.618192 
L 47.52 306.83476 
L 50.688 306.71118 
L 53.856 306.145723 
L 57.024 306.597456 
L 60.192 307.55185 
L 63.36 307.586858 
L 66.528 306.720111 
L 69.696 306.904855 
L 72.864 307.909384 
L 76.032 308.067347 
L 79.2 308.083198 
L 82.368 308.34228 
L 85.536 307.053907 
L 88.704 306.679978 
L 91.872 306.443913 
L 95.04 306.547433 
L 98.208 306.399526 
L 101.376 306.808506 
L 104.544 306.894726 
L 107.712 307.350335 
L 110.88 307.582133 
L 114.048 306.692083 
L 123.552 307.270972 
L 126.72 306.994987 
L 129.888 306.292749 
L 133.056 305.946435 
L 136.224 305.37915 
L 139.392 305.752509 
L 142.56 305.464298 
L 145.728 305.962366 
L 148.896 305.774767 
L 152.064 305.979164 
L 158.4 305.327754 
L 161.568 305.769122 
L 164.736 305.948081 
L 167.904 305.954995 
L 171.072 305.537936 
L 177.408 306.691807 
L 180.576 306.701143 
L 186.912 306.923214 
L 193.248 306.822361 
L 196.416 307.173554 
L 199.584 307.267674 
L 202.752 306.942228 
L 205.92 307.214714 
L 209.088 307.707976 
L 212.256 307.983533 
L 215.424 307.704584 
L 218.592 307.899811 
L 221.76 307.53784 
L 224.928 306.804062 
L 228.096 307.356808 
L 234.432 307.098831 
L 237.6 306.625258 
L 240.768 307.383301 
L 243.936 307.477205 
L 247.104 307.774782 
L 250.272 307.486402 
L 253.44 307.769676 
L 256.608 307.742619 
L 259.776 307.283124 
L 262.944 307.39182 
L 266.112 307.354205 
L 269.28 307.672073 
L 272.448 307.701165 
L 275.616 307.389429 
L 278.784 307.289873 
L 281.952 307.432756 
L 291.456 306.797262 
L 294.624 307.04681 
L 297.792 306.077445 
L 300.96 305.354762 
L 307.296 305.722689 
L 310.464 305.485421 
L 313.632 305.388839 
L 316.8 305.536054 
L 319.968 306.059297 
L 323.136 306.778217 
L 326.304 306.83657 
L 329.472 306.562783 
L 332.64 307.043289 
L 338.976 306.559733 
L 342.144 306.499865 
L 345.312 306.154218 
L 348.48 305.402679 
L 351.648 305.694951 
L 354.816 306.27772 
L 357.984 306.315006 
L 361.152 306.623518 
L 367.488 306.165542 
L 370.656 306.127871 
L 373.824 305.896665 
L 380.16 306.034074 
L 383.328 306.495907 
L 389.664 306.752672 
L 392.832 306.355068 
L 396 306.310548 
L 399.168 305.956128 
L 402.336 305.460123 
L 405.504 305.316021 
L 408.672 305.510948 
L 415.008 306.230126 
L 418.176 305.652476 
L 430.848 305.522899 
L 434.016 305.207621 
L 437.184 305.150244 
L 443.52 305.303946 
L 446.688 305.763384 
L 449.856 305.407867 
L 453.024 305.540778 
L 456.192 305.37829 
L 459.36 305.338278 
L 472.032 305.843941 
L 475.2 306.241193 
L 478.368 306.284794 
L 481.536 306.040969 
L 484.704 306.390293 
L 487.872 306.872803 
L 491.04 307.128114 
L 494.208 307.112252 
L 500.544 307.365172 
L 503.712 307.298413 
L 506.88 307.355594 
L 510.048 307.207854 
L 519.552 306.380526 
L 522.72 306.797549 
L 525.888 306.637631 
L 529.056 306.926398 
L 532.224 307.076198 
L 535.392 306.956644 
L 541.728 307.172367 
L 544.896 306.976334 
L 548.064 307.116858 
L 551.232 307.107663 
L 557.568 306.800151 
L 563.904 307.092498 
L 567.072 306.81084 
L 570.24 306.324755 
L 576.576 306.316049 
L 582.912 306.838985 
L 586.08 306.980141 
L 589.248 306.954045 
L 592.416 306.731726 
L 595.584 306.886076 
L 601.92 306.171812 
L 605.088 306.155922 
L 611.424 305.777627 
L 614.592 305.757374 
L 617.76 305.500178 
L 620.928 305.830887 
L 624.096 305.846265 
L 627.264 305.66542 
L 630.432 305.706868 
L 633.6 305.876682 
L 636.768 306.447472 
L 639.936 306.640698 
L 643.104 306.993084 
L 646.272 306.670316 
L 649.44 306.4967 
L 652.608 306.764644 
L 655.776 305.912599 
L 665.28 305.599991 
L 671.616 306.328788 
L 677.952 306.574553 
L 684.288 306.11287 
L 690.624 306.022555 
L 693.792 306.138036 
L 696.96 305.639024 
L 700.128 306.416622 
L 703.296 306.5431 
L 706.464 307.135284 
L 709.632 307.124391 
L 712.8 307.237004 
L 719.136 307.098568 
L 725.472 306.750042 
L 728.64 306.765572 
L 731.808 306.981074 
L 734.976 307.065424 
L 744.48 306.820535 
L 750.816 306.800665 
L 753.984 306.699327 
L 757.152 306.794815 
L 760.32 306.524412 
L 763.488 306.499107 
L 766.656 306.350518 
L 769.824 306.059244 
L 772.992 306.244878 
L 776.16 305.994364 
L 779.328 305.615806 
L 782.496 305.612249 
L 785.664 305.774772 
L 788.832 305.511727 
L 788.832 305.511727 
" clip-path="url(#pe877231ccf)" style="fill: none; stroke: #000000; stroke-width: 1.5; stroke-linecap: square"/>
   </g>
   <g id="line2d_7">
    <path d="M 0 306 
L 3.168 306 
L 6.336 305.85633 
L 9.504 307.440433 
L 12.672 308.574743 
L 15.84 306.793951 
L 19.008 308.472585 
L 22.176 309.001008 
L 25.344 308.279665 
L 28.512 306.466216 
L 31.68 304.851134 
L 34.848 305.037023 
L 38.016 306.028142 
L 41.184 307.472291 
L 44.352 306.635398 
L 47.52 306.822617 
L 50.688 306.716882 
L 53.856 306.232941 
L 57.024 306.610061 
L 60.192 307.411251 
L 63.36 307.448987 
L 66.528 306.741037 
L 69.696 306.891205 
L 72.864 307.70815 
L 76.032 307.846095 
L 79.2 307.870107 
L 82.368 308.086216 
L 85.536 307.084616 
L 91.872 306.603055 
L 95.04 306.675558 
L 98.208 306.556995 
L 101.376 306.860303 
L 104.544 306.923028 
L 107.712 307.26239 
L 110.88 307.437982 
L 114.048 306.787587 
L 123.552 307.202352 
L 126.72 307.006755 
L 129.888 306.505377 
L 133.056 306.252246 
L 136.224 305.841754 
L 139.392 306.087077 
L 142.56 305.87494 
L 145.728 306.205663 
L 148.896 306.068428 
L 152.064 306.198523 
L 158.4 305.73987 
L 161.568 306.023645 
L 164.736 306.135347 
L 167.904 306.134073 
L 171.072 305.852278 
L 177.408 306.597712 
L 183.744 306.709717 
L 190.08 306.760989 
L 193.248 306.702751 
L 196.416 306.930058 
L 199.584 306.996789 
L 202.752 306.79892 
L 205.92 306.974396 
L 209.088 307.290155 
L 212.256 307.473748 
L 215.424 307.314612 
L 218.592 307.446193 
L 221.76 307.235537 
L 224.928 306.793251 
L 228.096 307.131641 
L 234.432 306.984955 
L 237.6 306.701491 
L 240.768 307.156452 
L 243.936 307.218857 
L 247.104 307.403813 
L 250.272 307.241432 
L 253.44 307.41629 
L 256.608 307.409405 
L 259.776 307.14645 
L 272.448 307.410838 
L 275.616 307.236682 
L 278.784 307.182729 
L 281.952 307.268137 
L 291.456 306.907282 
L 294.624 307.047511 
L 297.792 306.493611 
L 300.96 306.071476 
L 307.296 306.248306 
L 313.632 306.03176 
L 316.8 306.099133 
L 319.968 306.379662 
L 323.136 306.775186 
L 326.304 306.80792 
L 329.472 306.655685 
L 332.64 306.921301 
L 345.312 306.426275 
L 348.48 306.004953 
L 351.648 306.151828 
L 354.816 306.461663 
L 357.984 306.477822 
L 361.152 306.643135 
L 373.824 306.232434 
L 380.16 306.292465 
L 383.328 306.536888 
L 389.664 306.675449 
L 392.832 306.462574 
L 396 306.436104 
L 405.504 305.880134 
L 411.84 306.132302 
L 415.008 306.339721 
L 418.176 306.029234 
L 430.848 305.924598 
L 434.016 305.747114 
L 440.352 305.743586 
L 443.52 305.762158 
L 446.688 305.996118 
L 449.856 305.802502 
L 453.024 305.864043 
L 459.36 305.74085 
L 472.032 305.978528 
L 475.2 306.183904 
L 478.368 306.209355 
L 481.536 306.083896 
L 491.04 306.660092 
L 497.376 306.753517 
L 506.88 306.833134 
L 513.216 306.64284 
L 519.552 306.357736 
L 522.72 306.574561 
L 525.888 306.496886 
L 532.224 306.732982 
L 535.392 306.677564 
L 541.728 306.800816 
L 544.896 306.708335 
L 551.232 306.78931 
L 557.568 306.64253 
L 563.904 306.800139 
L 573.408 306.392192 
L 576.576 306.406398 
L 586.08 306.751739 
L 595.584 306.715592 
L 601.92 306.354393 
L 608.256 306.222238 
L 617.76 305.982963 
L 620.928 306.141062 
L 633.6 306.135352 
L 636.768 306.420662 
L 643.104 306.701006 
L 649.44 306.458817 
L 652.608 306.596764 
L 655.776 306.166078 
L 665.28 305.988729 
L 671.616 306.347609 
L 677.952 306.473452 
L 684.288 306.239592 
L 690.624 306.187604 
L 693.792 306.242362 
L 696.96 305.986412 
L 700.128 306.374257 
L 703.296 306.437527 
L 706.464 306.738883 
L 722.304 306.6799 
L 728.64 306.60455 
L 734.976 306.765249 
L 753.984 306.604759 
L 757.152 306.655609 
L 760.32 306.522775 
L 766.656 306.435207 
L 769.824 306.285592 
L 772.992 306.374188 
L 782.496 306.036306 
L 785.664 306.109542 
L 788.832 305.970237 
L 788.832 305.970237 
" clip-path="url(#pe877231ccf)" style="fill: none; stroke: #000000; stroke-width: 1.5; stroke-linecap: square"/>
   </g>
   <g id="line2d_8">
    <path d="M 0 306 
L 3.168 306 
L 6.336 305.8571 
L 9.504 307.424063 
L 12.672 308.5445 
L 15.84 306.807434 
L 19.008 308.439758 
L 22.176 308.956492 
L 25.344 308.267116 
L 28.512 306.52997 
L 31.68 304.982789 
L 34.848 305.146563 
L 38.016 306.072646 
L 41.184 307.425619 
L 44.352 306.646957 
L 47.52 306.820248 
L 50.688 306.722557 
L 53.856 306.276542 
L 57.024 306.619474 
L 60.192 307.349549 
L 63.36 307.387208 
L 66.528 306.751094 
L 69.696 306.885559 
L 72.864 307.61665 
L 82.368 307.964726 
L 85.536 307.090525 
L 91.872 306.668487 
L 95.04 306.72873 
L 98.208 306.624515 
L 101.376 306.882323 
L 104.544 306.935123 
L 107.712 307.223348 
L 110.88 307.373374 
L 114.048 306.827178 
L 123.552 307.171588 
L 126.72 307.010445 
L 129.888 306.596617 
L 133.056 306.385933 
L 136.224 306.046179 
L 139.392 306.240272 
L 142.56 306.063847 
L 145.728 306.325939 
L 148.896 306.212235 
L 152.064 306.3127 
L 158.4 305.940488 
L 161.568 306.160164 
L 167.904 306.241173 
L 171.072 306.017974 
L 177.408 306.592241 
L 193.248 306.676434 
L 196.416 306.849668 
L 199.584 306.901921 
L 202.752 306.754759 
L 209.088 307.125779 
L 212.256 307.266176 
L 215.424 307.152163 
L 218.592 307.252965 
L 221.76 307.101364 
L 224.928 306.778664 
L 228.096 307.027062 
L 234.432 306.923605 
L 237.6 306.719047 
L 240.768 307.047842 
L 256.608 307.242547 
L 259.776 307.059023 
L 272.448 307.253056 
L 278.784 307.098386 
L 281.952 307.159165 
L 291.456 306.913613 
L 294.624 307.009746 
L 300.96 306.340967 
L 307.296 306.452892 
L 313.632 306.299056 
L 316.8 306.340039 
L 326.304 306.808432 
L 329.472 306.707082 
L 332.64 306.882619 
L 345.312 306.554873 
L 348.48 306.276734 
L 361.152 306.682001 
L 373.824 306.411348 
L 380.16 306.44469 
L 386.496 306.646141 
L 389.664 306.685218 
L 392.832 306.550123 
L 399.168 306.408469 
L 402.336 306.233994 
L 405.504 306.174253 
L 411.84 306.324298 
L 415.008 306.451076 
L 418.176 306.256048 
L 443.52 306.060373 
L 446.688 306.199425 
L 449.856 306.078393 
L 456.192 306.05226 
L 465.696 306.085664 
L 472.032 306.159653 
L 478.368 306.294798 
L 481.536 306.21843 
L 494.208 306.563019 
L 503.712 306.645425 
L 510.048 306.635534 
L 519.552 306.396741 
L 522.72 306.523488 
L 525.888 306.478631 
L 532.224 306.617977 
L 538.56 306.63212 
L 551.232 306.659505 
L 557.568 306.57744 
L 563.904 306.670354 
L 576.576 306.445611 
L 586.08 306.643679 
L 598.752 306.535557 
L 605.088 306.415243 
L 617.76 306.205855 
L 624.096 306.291195 
L 630.432 306.237881 
L 633.6 306.280606 
L 639.936 306.493649 
L 643.104 306.595259 
L 649.44 306.4619 
L 652.608 306.538659 
L 655.776 306.299845 
L 665.28 306.196041 
L 671.616 306.390875 
L 681.12 306.383012 
L 690.624 306.299233 
L 693.792 306.328003 
L 696.96 306.186442 
L 700.128 306.396846 
L 703.296 306.431258 
L 706.464 306.596362 
L 757.152 306.57269 
L 769.824 306.374247 
L 772.992 306.420926 
L 782.496 306.235157 
L 785.664 306.272184 
L 788.832 306.195554 
L 788.832 306.195554 
" clip-path="url(#pe877231ccf)" style="fill: none; stroke: #000000; stroke-width: 1.5; stroke-linecap: square"/>
   </g>
   <g id="line2d_9">
    <path d="M 0 306 
L 3.168 306 
L 6.336 305.857485 
L 9.504 307.415902 
L 12.672 308.529394 
L 15.84 306.813941 
L 19.008 308.423424 
L 22.176 308.934292 
L 25.344 308.260531 
L 28.512 306.560858 
L 31.68 305.047211 
L 34.848 305.200663 
L 38.016 306.095398 
L 41.184 307.404117 
L 44.352 306.65344 
L 47.52 306.819973 
L 50.688 306.7261 
L 53.856 306.298327 
L 57.024 306.624952 
L 60.192 307.320914 
L 63.36 307.358244 
L 66.528 306.756144 
L 69.696 306.883158 
L 72.864 307.573416 
L 82.368 307.90616 
L 85.536 307.091534 
L 91.872 306.697784 
L 95.04 306.752607 
L 98.208 306.655349 
L 101.376 306.892244 
L 104.544 306.940527 
L 107.712 307.205059 
L 110.88 307.343078 
L 114.048 306.844829 
L 123.552 307.157124 
L 126.72 307.011679 
L 129.888 306.638006 
L 133.056 306.447141 
L 136.224 306.14026 
L 139.392 306.311852 
L 142.56 306.15229 
L 145.728 306.383952 
L 148.896 306.281356 
L 152.064 306.368933 
L 158.4 306.036681 
L 161.568 306.228221 
L 167.904 306.296772 
L 171.072 306.100157 
L 177.408 306.598586 
L 193.248 306.672086 
L 199.584 306.866458 
L 202.752 306.741162 
L 212.256 307.178932 
L 215.424 307.083748 
L 218.592 307.170251 
L 221.76 307.043635 
L 224.928 306.772679 
L 228.096 306.981641 
L 237.6 306.725789 
L 240.768 306.999752 
L 256.608 307.166084 
L 259.776 307.016206 
L 272.448 307.178146 
L 278.784 307.054065 
L 281.952 307.103982 
L 291.456 306.907258 
L 294.624 306.984669 
L 300.96 306.447978 
L 307.296 306.534767 
L 313.632 306.409959 
L 316.8 306.441029 
L 326.304 306.809139 
L 329.472 306.729387 
L 332.64 306.866954 
L 345.312 306.610423 
L 348.48 306.393448 
L 364.32 306.645554 
L 373.824 306.493565 
L 383.328 306.633535 
L 389.664 306.698796 
L 402.336 306.356001 
L 408.672 306.348309 
L 415.008 306.513331 
L 418.176 306.367054 
L 462.528 306.19989 
L 484.704 306.387059 
L 491.04 306.555434 
L 516.384 306.48317 
L 519.552 306.440977 
L 522.72 306.530122 
L 529.056 306.56145 
L 541.728 306.62742 
L 554.4 306.59046 
L 579.744 306.535246 
L 589.248 306.613022 
L 617.76 306.315619 
L 624.096 306.371637 
L 633.6 306.362173 
L 643.104 306.571829 
L 649.44 306.483006 
L 652.608 306.533932 
L 655.776 306.375211 
L 668.448 306.376625 
L 677.952 306.476479 
L 690.624 306.369626 
L 693.792 306.387908 
L 696.96 306.29491 
L 700.128 306.431432 
L 734.976 306.580815 
L 788.832 306.306905 
L 788.832 306.306905 
" clip-path="url(#pe877231ccf)" style="fill: none; stroke: #000000; stroke-width: 1.5; stroke-linecap: square"/>
   </g>
  </g>
 </g>
 <defs>
  <clipPath id="pe877231ccf">
   <rect x="0" y="0" width="792" height="612"/>
  </clipPath>
 </defs>
</svg>
