<?xml version="1.0" encoding="utf-8" standalone="no"?>
<!DOCTYPE svg PUBLIC "-//W3C//DTD SVG 1.1//EN"
  "http://www.w3.org/Graphics/SVG/1.1/DTD/svg11.dtd">
<svg xmlns:xlink="http://www.w3.org/1999/xlink" width="792pt" height="612pt" viewBox="0 0 792 612" xmlns="http://www.w3.org/2000/svg" version="1.1">
 <metadata>
  <rdf:RDF xmlns:dc="http://purl.org/dc/elements/1.1/" xmlns:cc="http://creativecommons.org/ns#" xmlns:rdf="http://www.w3.org/1999/02/22-rdf-syntax-ns#">
   <cc:Work>
    <dc:type rdf:resource="http://purl.org/dc/dcmitype/StillImage"/>
    <dc:date>2023-01-09T02:29:36.149614</dc:date>
    <dc:format>image/svg+xml</dc:format>
    <dc:creator>
     <cc:Agent>
      <dc:title>Matplotlib v3.6.2, https://matplotlib.org/</dc:title>
     </cc:Agent>
    </dc:creator>
   </cc:Work>
  </rdf:RDF>
 </metadata>
 <defs>
  <style type="text/css">*{stroke-linejoin: round; stroke-linecap: butt}</style>
 </defs>
 <g id="figure_1">
  <g id="patch_1">
   <path d="M 0 612 
L 792 612 
L 792 0 
L 0 0 
z
" style="fill: #ffffff"/>
  </g>
  <g id="axes_1">
   <g id="line2d_1">
    <path d="M 0 306 
L 3.193548 299.058457 
L 6.387097 302.015815 
L 9.580645 318.253167 
L 12.774194 302.535444 
L 15.967742 312.888267 
L 19.16129 305.720159 
L 22.354839 310.437175 
L 25.548387 311.742739 
L 28.741935 300.137372 
L 31.935484 316.177145 
L 35.129032 311.849307 
L 38.322581 303.681358 
L 41.516129 293.494058 
L 44.709677 292.017669 
L 47.903226 306.679614 
L 51.096774 315.471606 
L 54.290323 322.295331 
L 57.483871 297.393813 
L 60.677419 309.01153 
L 63.870968 305.387015 
L 67.064516 299.857638 
L 70.258065 311.822665 
L 73.451613 319.011442 
L 76.645161 307.998839 
L 79.83871 295.543332 
L 83.032258 309.344639 
L 86.225806 321.590982 
L 89.419355 310.250652 
L 92.612903 308.278667 
L 95.806452 312.115721 
L 99 287.698913 
L 102.193548 300.936664 
L 105.387097 302.748631 
L 108.580645 308.185392 
L 111.774194 304.001161 
L 114.967742 313.514232 
L 118.16129 308.318642 
L 121.354839 315.032258 
L 124.548387 311.529599 
L 127.741935 291.246478 
L 130.935484 310.010832 
L 134.129032 308.998206 
L 137.322581 312.368805 
L 140.516129 301.975845 
L 143.709677 293.440844 
L 146.903226 299.551275 
L 150.096774 294.824639 
L 153.290323 312.768395 
L 156.483871 300.017485 
L 159.677419 315.458293 
L 162.870968 302.175699 
L 166.064516 309.93089 
L 169.258065 300.337188 
L 172.451613 297.993031 
L 175.645161 314.459717 
L 178.83871 309.491204 
L 182.032258 306.09328 
L 185.225806 297.207403 
L 188.419355 317.601196 
L 191.612903 318.412816 
L 194.806452 306.879499 
L 198 309.984185 
L 201.193548 308.291992 
L 204.387097 306.852848 
L 207.580645 304.78736 
L 210.774194 314.406455 
L 213.967742 309.198072 
L 217.16129 300.164014 
L 220.354839 312.874948 
L 223.548387 317.987069 
L 226.741935 313.727312 
L 229.935484 301.815964 
L 233.129032 311.982515 
L 236.322581 299.870959 
L 239.516129 291.273068 
L 242.709677 319.051347 
L 245.903226 303.827934 
L 249.096774 304.947267 
L 252.290323 296.515081 
L 255.483871 323.544123 
L 258.677419 309.464556 
L 261.870968 314.126817 
L 265.064516 301.269723 
L 268.258065 313.833849 
L 271.451613 307.132687 
L 274.645161 297.353868 
L 277.83871 309.717711 
L 281.032258 306.519705 
L 284.225806 314.526295 
L 287.419355 308.305317 
L 290.612903 300.603617 
L 293.806452 305.107175 
L 297 310.517113 
L 300.193548 302.375556 
L 303.387097 302.255641 
L 306.580645 302.482148 
L 309.774194 312.475365 
L 312.967742 284.938635 
L 316.16129 289.58508 
L 319.354839 310.650341 
L 322.548387 308.718389 
L 325.741935 300.297224 
L 328.935484 303.281611 
L 332.129032 308.771687 
L 335.322581 317.534662 
L 338.516129 322.534505 
L 341.709677 308.105441 
L 344.903226 300.537009 
L 348.096774 317.587889 
L 351.290323 301.456241 
L 354.483871 301.243078 
L 357.677419 305.173803 
L 360.870968 298.539039 
L 364.064516 288.86765 
L 367.258065 312.142362 
L 370.451613 319.117854 
L 373.645161 307.132687 
L 376.83871 313.421007 
L 380.032258 301.789318 
L 383.225806 300.670225 
L 386.419355 305.293735 
L 389.612903 300.790122 
L 392.806452 307.519127 
L 396 307.519127 
L 399.193548 316.696246 
L 402.387097 309.78433 
L 405.580645 309.264693 
L 408.774194 297.553598 
L 411.967742 305.320386 
L 415.16129 298.112883 
L 418.354839 294.491952 
L 424.741935 309.837625 
L 427.935484 312.901586 
L 431.129032 315.098828 
L 434.322581 292.895448 
L 437.516129 304.680755 
L 440.709677 302.362232 
L 443.903226 307.385872 
L 447.096774 304.920616 
L 450.290323 298.192785 
L 453.483871 303.841259 
L 456.677419 307.465825 
L 459.870968 306.559682 
L 463.064516 316.004098 
L 466.258065 297.513652 
L 469.451613 308.505192 
L 472.645161 301.789318 
L 475.83871 304.440897 
L 479.032258 307.958864 
L 482.225806 308.172066 
L 485.419355 306.039977 
L 488.612903 311.54292 
L 491.806452 315.045572 
L 495 307.305919 
L 498.193548 300.656903 
L 501.387097 314.126817 
L 504.580645 317.561275 
L 507.774194 312.688479 
L 510.967742 306.719591 
L 514.16129 310.730277 
L 517.354839 309.451232 
L 520.548387 305.786787 
L 523.741935 308.625115 
L 526.935484 303.92121 
L 533.322581 298.41918 
L 536.516129 301.949198 
L 539.709677 316.030721 
L 542.903226 303.095066 
L 546.096774 313.327781 
L 549.290323 310.357237 
L 552.483871 304.241016 
L 555.677419 310.037479 
L 558.870968 308.891609 
L 562.064516 302.642037 
L 565.258065 310.184036 
L 568.451613 306.919476 
L 571.645161 302.575416 
L 574.83871 304.294317 
L 578.032258 310.477144 
L 581.225806 309.957537 
L 584.419355 300.590295 
L 587.612903 295.569952 
L 590.806452 305.333712 
L 594 307.026082 
L 597.193548 312.888267 
L 600.387097 312.195643 
L 603.580645 310.090772 
L 606.774194 306.373122 
L 609.967742 301.802641 
L 613.16129 310.290622 
L 616.354839 299.391438 
L 619.548387 297.540283 
L 622.741935 305.813439 
L 625.935484 300.896698 
L 629.129032 302.442176 
L 632.322581 305.360363 
L 635.516129 299.844318 
L 638.709677 313.141324 
L 641.903226 306.213213 
L 645.096774 301.642763 
L 648.290323 306.573008 
L 651.483871 309.691063 
L 654.677419 319.064648 
L 657.870968 310.903469 
L 661.064516 314.739338 
L 664.258065 299.577915 
L 667.451613 302.655361 
L 670.645161 312.715117 
L 673.83871 287.048369 
L 677.032258 304.094437 
L 680.225806 304.760709 
L 683.419355 301.456241 
L 686.612903 315.258594 
L 689.806452 313.234553 
L 693 308.198717 
L 696.193548 310.250652 
L 699.387097 300.137372 
L 702.580645 302.015815 
L 705.774194 304.520849 
L 708.967742 305.546924 
L 712.16129 308.678414 
L 715.354839 294.585102 
L 718.548387 323.637095 
L 721.741935 309.251369 
L 724.935484 320.1552 
L 728.129032 306.879499 
L 731.322581 309.717711 
L 734.516129 306.466402 
L 737.709677 304.694081 
L 740.903226 303.33491 
L 744.096774 302.655361 
L 750.483871 311.742739 
L 753.677419 308.891609 
L 756.870968 305.013895 
L 760.064516 306.746242 
L 763.258065 303.534783 
L 766.451613 307.146012 
L 769.645161 304.37427 
L 772.83871 308.918258 
L 776.032258 300.576973 
L 779.225806 305.933371 
L 782.419355 303.081742 
L 785.612903 299.591235 
L 788.806452 304.774034 
L 788.806452 304.774034 
" clip-path="url(#pa35c403241)" style="fill: none; stroke: #000000; stroke-width: 1.5; stroke-linecap: square"/>
   </g>
   <g id="line2d_2">
    <path d="M 0 306 
L 3.193548 306 
L 6.387097 301.371864 
L 9.580645 301.739831 
L 12.774194 310.549976 
L 15.967742 306.413529 
L 19.16129 309.702695 
L 22.354839 307.69582 
L 28.741935 310.41868 
L 31.935484 305.279939 
L 35.129032 310.75781 
L 38.322581 311.291011 
L 41.516129 307.488661 
L 44.709677 300.450445 
L 47.903226 296.205342 
L 51.096774 301.433775 
L 57.483871 315.426551 
L 60.677419 306.373697 
L 63.870968 307.68708 
L 67.064516 306.540399 
L 70.258065 303.211173 
L 73.451613 307.556072 
L 76.645161 313.310493 
L 79.83871 310.640362 
L 83.032258 303.037588 
L 86.225806 306.214571 
L 89.419355 313.932447 
L 95.806452 310.206659 
L 99 311.161815 
L 102.193548 299.359263 
L 105.387097 300.134081 
L 108.580645 301.455405 
L 111.774194 304.817983 
L 114.967742 304.375053 
L 118.16129 308.9517 
L 121.354839 308.635253 
L 124.548387 311.840113 
L 127.741935 311.731612 
L 130.935484 301.464966 
L 134.129032 305.752088 
L 137.322581 307.376779 
L 140.516129 309.889457 
L 143.709677 305.910012 
L 146.903226 299.643627 
L 150.096774 299.567102 
L 153.290323 297.162603 
L 156.483871 305.00705 
L 159.677419 302.492441 
L 162.870968 308.989375 
L 166.064516 305.562496 
L 169.258065 307.762381 
L 172.451613 304.063032 
L 175.645161 301.024486 
L 178.83871 307.781454 
L 182.032258 308.629923 
L 185.225806 307.37354 
L 188.419355 302.253656 
L 191.612903 309.96015 
L 194.806452 314.204678 
L 198 310.555566 
L 201.193548 310.293391 
L 204.387097 309.28063 
L 207.580645 308.061598 
L 210.774194 306.421931 
L 213.967742 310.44867 
L 217.16129 309.806902 
L 220.354839 304.94941 
L 223.548387 308.924424 
L 226.741935 313.473077 
L 229.935484 313.61085 
L 233.129032 307.704167 
L 236.322581 309.857636 
L 239.516129 304.835489 
L 242.709677 298.015226 
L 245.903226 308.573331 
L 249.096774 306.182903 
L 252.290323 305.539503 
L 255.483871 300.99246 
L 258.677419 312.319443 
L 261.870968 310.887169 
L 265.064516 312.535121 
L 268.258065 306.922351 
L 271.451613 310.368418 
L 274.645161 308.757109 
L 277.83871 303.039573 
L 281.032258 306.404581 
L 284.225806 306.428724 
L 287.419355 310.488221 
L 290.612903 309.385395 
L 293.806452 304.992992 
L 297 305.032969 
L 300.193548 307.78182 
L 303.387097 305.088467 
L 306.580645 303.657373 
L 309.774194 303.061833 
L 312.967742 307.764994 
L 316.16129 296.292524 
L 319.354839 292.915635 
L 322.548387 301.79031 
L 325.741935 305.250727 
L 328.935484 302.769688 
L 332.129032 303.02766 
L 335.322581 305.911998 
L 338.516129 311.735321 
L 341.709677 317.212102 
L 344.903226 312.696575 
L 348.096774 306.597203 
L 351.290323 312.111908 
L 354.483871 306.786585 
L 357.677419 304.010671 
L 360.870968 304.585178 
L 364.064516 301.524423 
L 367.258065 295.125411 
L 370.451613 303.639972 
L 373.645161 311.418795 
L 376.83871 309.255393 
L 380.032258 311.361904 
L 383.225806 306.576823 
L 386.419355 303.614472 
L 389.612903 304.467339 
L 392.806452 302.652017 
L 396 305.076448 
L 399.193548 306.275034 
L 402.387097 311.505986 
L 405.580645 310.638063 
L 408.774194 309.966054 
L 411.967742 303.75279 
L 415.16129 304.536631 
L 418.354839 301.318991 
L 421.548387 297.878927 
L 424.741935 299.996485 
L 427.935484 304.903319 
L 431.129032 308.909062 
L 434.322581 312.016 
L 437.516129 302.443116 
L 440.709677 303.560649 
L 443.903226 302.969763 
L 447.096774 305.203068 
L 450.290323 305.067302 
L 453.483871 301.60666 
L 456.677419 302.70615 
L 459.870968 305.07096 
L 463.064516 305.842129 
L 466.258065 310.946675 
L 469.451613 304.2198 
L 472.645161 306.364708 
L 475.83871 304.070765 
L 479.032258 304.268085 
L 482.225806 306.121552 
L 485.419355 307.148207 
L 488.612903 306.593075 
L 491.806452 309.059446 
L 495 312.08746 
L 498.193548 309.694564 
L 501.387097 305.173333 
L 504.580645 309.66985 
L 507.774194 313.635657 
L 510.967742 313.170938 
L 514.16129 309.947035 
L 517.354839 310.33707 
L 520.548387 309.883187 
L 523.741935 307.832091 
L 526.935484 308.244231 
L 530.129032 306.06271 
L 536.516129 300.974906 
L 539.709677 301.452689 
L 542.903226 308.75366 
L 546.096774 305.911893 
L 549.290323 309.635155 
L 552.483871 309.999598 
L 555.677419 307.121033 
L 558.870968 308.596689 
L 562.064516 308.764685 
L 565.258065 305.70469 
L 568.451613 307.932997 
L 571.645161 307.433739 
L 574.83871 304.983429 
L 578.032258 304.626983 
L 581.225806 307.564434 
L 584.419355 308.760871 
L 587.612903 304.659069 
L 590.806452 300.099342 
L 594 302.706777 
L 597.193548 304.866582 
L 600.387097 308.898141 
L 603.580645 310.562515 
L 606.774194 310.325889 
L 609.967742 308.342575 
L 613.16129 305.07488 
L 616.354839 307.711745 
L 619.548387 303.539486 
L 622.741935 300.520762 
L 625.935484 303.153015 
L 629.129032 302.002649 
L 632.322581 302.207415 
L 635.516129 303.781844 
L 638.709677 301.809068 
L 641.903226 307.481293 
L 645.096774 306.860634 
L 648.290323 304.259619 
L 651.483871 305.417795 
L 654.677419 307.571749 
L 657.870968 313.353372 
L 661.064516 312.139384 
L 664.258065 313.46869 
L 667.451613 306.496973 
L 670.645161 304.569135 
L 673.83871 308.664306 
L 677.032258 297.807854 
L 680.225806 300.939642 
L 683.419355 302.821993 
L 686.612903 302.120575 
L 689.806452 308.691844 
L 693 310.990247 
L 696.193548 309.605425 
L 699.387097 309.92321 
L 702.580645 305.055754 
L 705.774194 303.531648 
L 708.967742 304.025773 
L 712.16129 304.794362 
L 715.354839 306.72351 
L 718.548387 300.615632 
L 721.741935 312.165346 
L 724.935484 310.706505 
L 728.129032 315.472337 
L 731.322581 311.186474 
L 734.516129 310.462306 
L 740.903226 306.572381 
L 744.096774 304.970783 
L 747.290323 303.771864 
L 750.483871 305.461482 
L 753.677419 308.585872 
L 756.870968 308.742687 
L 760.064516 306.8691 
L 763.258065 306.80822 
L 766.451613 305.169205 
L 769.645161 306.165083 
L 772.83871 305.273041 
L 776.032258 307.099137 
L 779.225806 303.815915 
L 782.419355 304.868829 
L 785.612903 303.971479 
L 788.806452 301.767112 
L 788.806452 301.767112 
" clip-path="url(#pa35c403241)" style="fill: none; stroke: #000000; stroke-width: 1.5; stroke-linecap: square"/>
   </g>
   <g id="line2d_3">
    <path d="M 0 306 
L 3.193548 306 
L 6.387097 301.93328 
L 9.580645 301.970675 
L 12.774194 308.331757 
L 15.967742 306.269473 
L 19.16129 308.485351 
L 22.354839 307.59694 
L 28.741935 309.482923 
L 31.935484 306.657263 
L 35.129032 309.509549 
L 38.322581 310.205781 
L 41.516129 308.273604 
L 44.709677 303.908694 
L 47.903226 300.404278 
L 51.096774 302.249237 
L 54.290323 306.133616 
L 57.483871 310.898082 
L 60.677419 306.93709 
L 63.870968 307.534075 
L 67.064516 306.908497 
L 70.258065 304.828145 
L 73.451613 306.884002 
L 76.645161 310.447892 
L 79.83871 309.726326 
L 83.032258 305.56588 
L 86.225806 306.664839 
L 89.419355 311.051308 
L 92.612903 310.824352 
L 95.806452 310.095778 
L 99 310.710542 
L 102.193548 303.942655 
L 105.387097 303.045456 
L 108.580645 302.93605 
L 111.774194 304.485896 
L 114.967742 304.338164 
L 118.16129 307.035536 
L 121.354839 307.421074 
L 124.548387 309.654629 
L 127.741935 310.195229 
L 130.935484 304.622856 
L 134.129032 306.21764 
L 137.322581 307.031675 
L 140.516129 308.584488 
L 143.709677 306.639331 
L 146.903226 302.754587 
L 150.096774 301.801823 
L 153.290323 299.765677 
L 156.483871 303.58744 
L 159.677419 302.538576 
L 162.870968 306.331809 
L 166.064516 305.11236 
L 169.258065 306.519618 
L 172.451613 304.699477 
L 175.645161 302.715213 
L 178.83871 306.159008 
L 182.032258 307.155994 
L 185.225806 306.840234 
L 188.419355 304.004618 
L 191.612903 307.99456 
L 194.806452 311.066437 
L 198 309.855679 
L 201.193548 309.9053 
L 204.387097 309.448264 
L 207.580645 308.681324 
L 210.774194 307.546321 
L 213.967742 309.554868 
L 217.16129 309.458431 
L 220.354839 306.724835 
L 223.548387 308.540846 
L 226.741935 311.331854 
L 229.935484 312.032707 
L 233.129032 309.031853 
L 236.322581 309.902929 
L 239.516129 306.967601 
L 242.709677 302.337361 
L 245.903226 307.235699 
L 249.096774 306.234076 
L 252.290323 305.851392 
L 255.483871 303.102515 
L 258.677419 309.11439 
L 261.870968 309.222324 
L 265.064516 310.65878 
L 268.258065 307.899801 
L 271.451613 309.653893 
L 274.645161 308.908888 
L 277.83871 305.50018 
L 281.032258 306.730911 
L 284.225806 306.674453 
L 287.419355 308.977681 
L 290.612903 308.790441 
L 293.806452 306.403196 
L 297 306.007574 
L 300.193548 307.336159 
L 303.387097 305.880234 
L 306.580645 304.825163 
L 309.774194 304.11467 
L 312.967742 306.567186 
L 316.16129 300.189694 
L 319.354839 297.067661 
L 322.548387 301.041022 
L 325.741935 303.291276 
L 328.935484 302.417642 
L 332.129032 302.663295 
L 335.322581 304.454931 
L 338.516129 308.290904 
L 341.709677 312.482902 
L 344.903226 311.209583 
L 348.096774 308.078562 
L 351.290323 310.873141 
L 354.483871 308.114099 
L 357.677419 306.100372 
L 360.870968 305.832077 
L 364.064516 303.679597 
L 367.258065 299.341576 
L 370.451613 303.116351 
L 373.645161 307.815092 
L 376.83871 307.6134 
L 380.032258 309.329791 
L 383.225806 307.119533 
L 386.419355 305.221116 
L 389.612903 305.228319 
L 392.806452 303.903291 
L 396 304.961656 
L 399.193548 305.718743 
L 402.387097 308.93414 
L 405.580645 309.192726 
L 408.774194 309.223018 
L 411.967742 305.795825 
L 415.16129 305.664362 
L 418.354839 303.462769 
L 421.548387 300.813862 
L 424.741935 301.1815 
L 427.935484 303.719747 
L 434.322581 308.970006 
L 437.516129 304.250674 
L 440.709677 304.375937 
L 443.903226 303.78792 
L 447.096774 304.841564 
L 450.290323 304.861733 
L 453.483871 302.886791 
L 456.677419 303.159517 
L 459.870968 304.418698 
L 463.064516 305.056118 
L 466.258065 308.275983 
L 469.451613 305.122475 
L 472.645161 306.129366 
L 475.83871 304.857725 
L 479.032258 304.72944 
L 482.225806 305.66964 
L 485.419355 306.394635 
L 488.612903 306.305865 
L 491.806452 307.847801 
L 495 309.971116 
L 498.193548 309.19045 
L 501.387097 306.686056 
L 504.580645 308.884186 
L 507.774194 311.442511 
L 510.967742 311.813465 
L 514.16129 310.321895 
L 517.354839 310.435449 
L 520.548387 310.160899 
L 523.741935 308.876725 
L 526.935484 308.810882 
L 530.129032 307.37817 
L 533.322581 305.553832 
L 536.516129 303.452541 
L 539.709677 303.007508 
L 542.903226 306.82806 
L 546.096774 305.720938 
L 549.290323 307.956233 
L 552.483871 308.670651 
L 555.677419 307.361917 
L 558.870968 308.136963 
L 562.064516 308.353635 
L 565.258065 306.676055 
L 568.451613 307.702951 
L 571.645161 307.47057 
L 574.83871 306.03309 
L 578.032258 305.518836 
L 581.225806 306.978712 
L 584.419355 307.86132 
L 587.612903 305.734032 
L 590.806452 302.748649 
L 594 303.493475 
L 597.193548 304.532639 
L 600.387097 306.979771 
L 603.580645 308.509771 
L 606.774194 308.979572 
L 609.967742 308.211979 
L 613.16129 306.326535 
L 616.354839 307.496445 
L 619.548387 305.109856 
L 622.741935 302.881478 
L 625.935484 303.743914 
L 629.129032 302.906018 
L 632.322581 302.760932 
L 635.516129 303.516976 
L 638.709677 302.440301 
L 641.903226 305.595013 
L 645.096774 305.77709 
L 648.290323 304.559914 
L 651.483871 305.142276 
L 654.677419 306.471758 
L 657.870968 310.172515 
L 661.064516 310.391815 
L 664.258065 311.680294 
L 667.451613 308.123434 
L 670.645161 306.525607 
L 673.83871 308.356176 
L 677.032258 302.086815 
L 683.419355 303.29099 
L 686.612903 302.749095 
L 689.806452 306.431492 
L 693 308.424514 
L 696.193548 308.36066 
L 699.387097 308.924138 
L 702.580645 306.343014 
L 705.774194 305.066727 
L 708.967742 304.890129 
L 712.16129 305.076346 
L 715.354839 306.124421 
L 718.548387 302.737464 
L 721.741935 308.888505 
L 724.935484 308.990807 
L 728.129032 312.300986 
L 731.322581 310.716525 
L 734.516129 310.429681 
L 737.709677 309.274713 
L 744.096774 306.566391 
L 747.290323 305.414471 
L 750.483871 305.921981 
L 753.677419 307.640355 
L 756.870968 308.014744 
L 760.064516 307.136396 
L 763.258065 307.023501 
L 766.451613 305.995758 
L 769.645161 306.347095 
L 772.83871 305.747115 
L 776.032258 306.675564 
L 779.225806 304.866668 
L 782.419355 305.17801 
L 785.612903 304.556388 
L 788.806452 303.094036 
L 788.806452 303.094036 
" clip-path="url(#pa35c403241)" style="fill: none; stroke: #000000; stroke-width: 1.5; stroke-linecap: square"/>
   </g>
   <g id="line2d_4">
    <path d="M 0 306 
L 3.193548 306 
L 6.387097 302.228803 
L 9.580645 302.145213 
L 12.774194 307.272819 
L 15.967742 305.972238 
L 19.16129 307.674683 
L 22.354839 307.232149 
L 28.741935 308.683888 
L 31.935484 307.032024 
L 35.129032 308.741733 
L 38.322581 309.306852 
L 41.516129 308.306741 
L 44.709677 305.720303 
L 47.903226 303.363505 
L 51.096774 303.926261 
L 54.290323 305.865544 
L 57.483871 308.602955 
L 60.677419 306.750381 
L 63.870968 307.121755 
L 67.064516 306.838305 
L 70.258065 305.702427 
L 73.451613 306.694728 
L 76.645161 308.686667 
L 79.83871 308.575776 
L 83.032258 306.478498 
L 86.225806 306.938806 
L 89.419355 309.290418 
L 92.612903 309.44421 
L 95.806452 309.257744 
L 99 309.714631 
L 102.193548 306.194776 
L 105.387097 305.354959 
L 108.580645 304.94257 
L 111.774194 305.462367 
L 114.967742 305.220984 
L 118.16129 306.547559 
L 121.354839 306.826498 
L 124.548387 308.13826 
L 127.741935 308.678573 
L 130.935484 305.890504 
L 134.129032 306.55226 
L 137.322581 306.93695 
L 140.516129 307.80163 
L 143.709677 306.873641 
L 146.903226 304.735287 
L 150.096774 303.915073 
L 153.290323 302.460692 
L 156.483871 304.099064 
L 159.677419 303.435678 
L 162.870968 305.360224 
L 166.064516 304.849262 
L 169.258065 305.660633 
L 172.451613 304.813856 
L 175.645161 303.719754 
L 178.83871 305.425985 
L 182.032258 306.073731 
L 185.225806 306.083426 
L 188.419355 304.663268 
L 191.612903 306.720121 
L 194.806452 308.586591 
L 198 308.314122 
L 201.193548 308.578517 
L 204.387097 308.545791 
L 207.580645 308.280137 
L 210.774194 307.725712 
L 213.967742 308.792799 
L 217.16129 308.860523 
L 220.354839 307.468492 
L 223.548387 308.331671 
L 226.741935 309.870533 
L 229.935484 310.485646 
L 233.129032 309.112991 
L 236.322581 309.570823 
L 239.516129 308.021821 
L 242.709677 305.342078 
L 245.903226 307.535178 
L 249.096774 306.951829 
L 252.290323 306.636265 
L 255.483871 305.026524 
L 258.677419 307.982509 
L 261.870968 308.224211 
L 265.064516 309.16273 
L 268.258065 307.906369 
L 271.451613 308.852099 
L 274.645161 308.582784 
L 277.83871 306.795507 
L 281.032258 307.257504 
L 284.225806 307.138264 
L 287.419355 308.319301 
L 290.612903 308.324001 
L 293.806452 307.084995 
L 297 306.762013 
L 300.193548 307.361777 
L 306.580645 305.874463 
L 309.774194 305.331983 
L 312.967742 306.47347 
L 316.16129 303.02358 
L 319.354839 300.871112 
L 322.548387 302.43338 
L 325.741935 303.430689 
L 328.935484 302.92105 
L 332.129032 302.971898 
L 335.322581 303.898968 
L 338.516129 306.072765 
L 341.709677 308.708532 
L 344.903226 308.623088 
L 348.096774 307.32496 
L 351.290323 308.967214 
L 354.483871 307.770018 
L 357.677419 306.734464 
L 360.870968 306.474684 
L 364.064516 305.205044 
L 367.258065 302.58722 
L 370.451613 304.114298 
L 373.645161 306.505977 
L 376.83871 306.60569 
L 380.032258 307.700273 
L 386.419355 305.783024 
L 389.612903 305.699414 
L 392.806452 304.913563 
L 399.193548 305.681849 
L 402.387097 307.43882 
L 405.580645 307.81664 
L 408.774194 308.051411 
L 411.967742 306.377779 
L 415.16129 306.205079 
L 418.354839 304.925548 
L 421.548387 303.267798 
L 424.741935 303.082364 
L 427.935484 304.157828 
L 431.129032 305.557025 
L 434.322581 307.082957 
L 437.516129 304.814496 
L 440.709677 304.785194 
L 443.903226 304.387078 
L 447.096774 304.863742 
L 450.290323 304.875526 
L 453.483871 303.799936 
L 456.677419 303.807999 
L 459.870968 304.39384 
L 463.064516 304.739293 
L 466.258065 306.543025 
L 469.451613 305.11148 
L 472.645161 305.649169 
L 475.83871 305.024197 
L 479.032258 304.929712 
L 485.419355 305.851973 
L 488.612903 305.885236 
L 491.806452 306.789388 
L 495 308.11226 
L 498.193548 307.983837 
L 501.387097 306.813749 
L 504.580645 307.975958 
L 507.774194 309.506617 
L 510.967742 310.015068 
L 514.16129 309.496508 
L 517.354839 309.696189 
L 520.548387 309.66429 
L 523.741935 309.054462 
L 526.935484 308.990201 
L 530.129032 308.180053 
L 533.322581 307.058403 
L 536.516129 305.673219 
L 539.709677 305.086333 
L 542.903226 306.835276 
L 546.096774 306.24064 
L 549.290323 307.372152 
L 552.483871 307.850514 
L 555.677419 307.280013 
L 558.870968 307.722627 
L 562.064516 307.90951 
L 565.258065 307.068987 
L 568.451613 307.561001 
L 571.645161 307.464802 
L 574.83871 306.683169 
L 578.032258 306.304655 
L 581.225806 306.972327 
L 584.419355 307.448559 
L 587.612903 306.352573 
L 590.806452 304.629851 
L 594 304.737962 
L 597.193548 305.097002 
L 600.387097 306.340287 
L 603.580645 307.279223 
L 606.774194 307.724058 
L 609.967742 307.502138 
L 613.16129 306.588502 
L 616.354839 307.179791 
L 622.741935 304.59026 
L 625.935484 304.784887 
L 629.129032 304.161381 
L 632.322581 303.886916 
L 635.516129 304.123953 
L 638.709677 303.443845 
L 641.903226 304.993892 
L 645.096774 305.181762 
L 648.290323 304.617749 
L 651.483871 304.924619 
L 654.677419 305.682586 
L 657.870968 307.822217 
L 661.064516 308.313037 
L 664.258065 309.339417 
L 667.451613 307.784356 
L 670.645161 306.963609 
L 673.83871 307.882462 
L 677.032258 304.554147 
L 680.225806 304.48088 
L 683.419355 304.521835 
L 686.612903 304.028748 
L 689.806452 305.825038 
L 693 307.015154 
L 696.193548 307.205253 
L 699.387097 307.691831 
L 702.580645 306.481832 
L 705.774194 305.764885 
L 708.967742 305.563478 
L 712.16129 305.560329 
L 715.354839 306.060728 
L 718.548387 304.224289 
L 721.741935 307.331165 
L 724.935484 307.643995 
L 728.129032 309.644977 
L 731.322581 309.20874 
L 734.516129 309.29426 
L 737.709677 308.845053 
L 740.903226 308.187675 
L 747.290323 306.650844 
L 750.483871 306.73519 
L 753.677419 307.53523 
L 756.870968 307.750542 
L 760.064516 307.306367 
L 763.258065 307.214656 
L 766.451613 306.622178 
L 769.645161 306.710245 
L 772.83871 306.339654 
L 776.032258 306.747562 
L 779.225806 305.774166 
L 782.419355 305.800644 
L 785.612903 305.366996 
L 788.806452 304.446751 
L 788.806452 304.446751 
" clip-path="url(#pa35c403241)" style="fill: none; stroke: #000000; stroke-width: 1.5; stroke-linecap: square"/>
   </g>
   <g id="line2d_5">
    <path d="M 0 306 
L 3.193548 306 
L 6.387097 302.378511 
L 9.580645 302.246998 
L 12.774194 306.784322 
L 15.967742 305.781275 
L 19.16129 307.236506 
L 22.354839 306.959759 
L 28.741935 308.181715 
L 31.935484 307.029633 
L 35.129032 308.265694 
L 38.322581 308.725843 
L 41.516129 308.106338 
L 47.903226 304.739818 
L 51.096774 304.954477 
L 54.290323 306.087307 
L 57.483871 307.792176 
L 60.677419 306.722836 
L 63.870968 306.953586 
L 67.064516 306.798413 
L 70.258065 306.121695 
L 73.451613 306.669597 
L 76.645161 307.840975 
L 79.83871 307.855773 
L 83.032258 306.713504 
L 86.225806 306.955181 
L 89.419355 308.28886 
L 92.612903 308.466052 
L 95.806452 308.449251 
L 99 308.775855 
L 102.193548 306.908065 
L 105.387097 306.382293 
L 108.580645 306.063974 
L 111.774194 306.248961 
L 114.967742 306.053775 
L 118.16129 306.699245 
L 121.354839 306.838839 
L 124.548387 307.543066 
L 127.741935 307.884644 
L 130.935484 306.462048 
L 134.129032 306.76455 
L 137.322581 306.954518 
L 140.516129 307.414107 
L 143.709677 306.953405 
L 146.903226 305.810089 
L 150.096774 305.281549 
L 153.290323 304.399486 
L 156.483871 305.104251 
L 159.677419 304.676391 
L 162.870968 305.582404 
L 166.064516 305.296487 
L 169.258065 305.685078 
L 172.451613 305.237009 
L 175.645161 304.630477 
L 178.83871 305.45286 
L 182.032258 305.790457 
L 185.225806 305.815756 
L 188.419355 305.096768 
L 194.806452 307.165087 
L 198 307.141274 
L 201.193548 307.378248 
L 204.387097 307.454384 
L 207.580645 307.404737 
L 210.774194 307.189372 
L 213.967742 307.792555 
L 217.16129 307.906262 
L 220.354839 307.262871 
L 223.548387 307.728731 
L 226.741935 308.584591 
L 229.935484 309.012583 
L 233.129032 308.412079 
L 236.322581 308.712304 
L 239.516129 307.973169 
L 242.709677 306.579507 
L 245.903226 307.620267 
L 249.096774 307.308888 
L 252.290323 307.117096 
L 255.483871 306.233615 
L 258.677419 307.674531 
L 261.870968 307.818921 
L 265.064516 308.348031 
L 268.258065 307.758032 
L 271.451613 308.265168 
L 274.645161 308.173547 
L 277.83871 307.270682 
L 281.032258 307.470759 
L 284.225806 307.391345 
L 287.419355 307.989861 
L 290.612903 308.015705 
L 293.806452 307.393667 
L 297 307.202225 
L 300.193548 307.478098 
L 306.580645 306.65813 
L 309.774194 306.312032 
L 312.967742 306.826808 
L 316.16129 304.999838 
L 319.354839 303.714509 
L 322.548387 304.289231 
L 325.741935 304.656961 
L 328.935484 304.290279 
L 332.129032 304.203877 
L 335.322581 304.588692 
L 338.516129 305.666051 
L 341.709677 307.071808 
L 344.903226 307.156209 
L 348.096774 306.60633 
L 351.290323 307.526066 
L 357.677419 306.545256 
L 360.870968 306.428959 
L 364.064516 305.773523 
L 367.258065 304.36027 
L 370.451613 305.009454 
L 373.645161 306.184051 
L 376.83871 306.264996 
L 380.032258 306.864057 
L 386.419355 305.957051 
L 389.612903 305.901738 
L 392.806452 305.47862 
L 399.193548 305.796715 
L 402.387097 306.704889 
L 408.774194 307.151989 
L 411.967742 306.352161 
L 415.16129 306.266701 
L 418.354839 305.584518 
L 421.548387 304.658649 
L 424.741935 304.449887 
L 427.935484 304.896068 
L 431.129032 305.55893 
L 434.322581 306.351372 
L 437.516129 305.231015 
L 440.709677 305.182969 
L 443.903226 304.949658 
L 447.096774 305.157101 
L 450.290323 305.132872 
L 453.483871 304.554906 
L 456.677419 304.495316 
L 463.064516 304.890459 
L 466.258065 305.815267 
L 469.451613 305.12068 
L 472.645161 305.403939 
L 475.83871 305.099999 
L 479.032258 305.04442 
L 485.419355 305.528479 
L 488.612903 305.570775 
L 491.806452 306.065517 
L 495 306.813237 
L 498.193548 306.856309 
L 501.387097 306.340292 
L 504.580645 306.987873 
L 507.774194 307.870804 
L 510.967742 308.274115 
L 514.16129 308.146478 
L 517.354839 308.360372 
L 520.548387 308.4589 
L 523.741935 308.242412 
L 526.935484 308.273516 
L 530.129032 307.910742 
L 533.322581 307.352091 
L 536.516129 306.608991 
L 539.709677 306.220007 
L 542.903226 307.034061 
L 546.096774 306.700804 
L 549.290323 307.252626 
L 552.483871 307.513512 
L 555.677419 307.237565 
L 558.870968 307.472754 
L 562.064516 307.593006 
L 565.258065 307.181267 
L 568.451613 307.434292 
L 571.645161 307.397446 
L 574.83871 306.994116 
L 578.032258 306.765217 
L 584.419355 307.312579 
L 587.612903 306.754225 
L 590.806452 305.823981 
L 594 305.783303 
L 597.193548 305.888479 
L 603.580645 306.947966 
L 606.774194 307.206672 
L 609.967742 307.136381 
L 613.16129 306.691255 
L 616.354839 306.994155 
L 622.741935 305.628687 
L 625.935484 305.647707 
L 629.129032 305.252951 
L 632.322581 305.01725 
L 635.516129 305.043272 
L 638.709677 304.606752 
L 641.903226 305.321779 
L 645.096774 305.396263 
L 648.290323 305.084481 
L 651.483871 305.207757 
L 654.677419 305.58142 
L 657.870968 306.707928 
L 661.064516 307.058471 
L 664.258065 307.698504 
L 667.451613 307.022189 
L 670.645161 306.655406 
L 673.83871 307.163371 
L 677.032258 305.484905 
L 683.419355 305.319765 
L 686.612903 304.996967 
L 689.806452 305.851179 
L 693 306.466423 
L 696.193548 306.60911 
L 699.387097 306.909803 
L 702.580645 306.345328 
L 705.774194 305.98642 
L 712.16129 305.831621 
L 715.354839 306.066594 
L 718.548387 305.109288 
L 721.741935 306.652849 
L 724.935484 306.868459 
L 728.129032 307.976699 
L 731.322581 307.885069 
L 734.516129 308.039064 
L 737.709677 307.910265 
L 744.096774 307.288084 
L 747.290323 306.899225 
L 750.483871 306.922137 
L 753.677419 307.321761 
L 756.870968 307.451579 
L 760.064516 307.249515 
L 763.258065 307.206675 
L 766.451613 306.900178 
L 769.645161 306.922047 
L 772.83871 306.708701 
L 776.032258 306.892742 
L 779.225806 306.367863 
L 782.419355 306.332335 
L 785.612903 306.060135 
L 788.806452 305.519791 
L 788.806452 305.519791 
" clip-path="url(#pa35c403241)" style="fill: none; stroke: #000000; stroke-width: 1.5; stroke-linecap: square"/>
   </g>
   <g id="line2d_6">
    <path d="M 0 306 
L 3.193548 306 
L 6.387097 302.453611 
L 9.580645 302.301312 
L 12.774194 306.553655 
L 15.967742 305.678888 
L 19.16129 307.014448 
L 22.354839 306.804677 
L 28.741935 307.909969 
L 31.935484 306.972611 
L 35.129032 308.002474 
L 38.322581 308.40483 
L 41.516129 307.939779 
L 47.903226 305.298404 
L 51.096774 305.415521 
L 54.290323 306.233776 
L 57.483871 307.492516 
L 60.677419 306.729074 
L 63.870968 306.896051 
L 67.064516 306.788953 
L 70.258065 306.310639 
L 73.451613 306.681158 
L 76.645161 307.490334 
L 79.83871 307.522929 
L 83.032258 306.771125 
L 86.225806 306.929367 
L 89.419355 307.81476 
L 92.612903 307.959147 
L 95.806452 307.977771 
L 99 308.215223 
L 102.193548 307.054254 
L 105.387097 306.713229 
L 108.580645 306.495142 
L 111.774194 306.586961 
L 114.967742 306.448149 
L 118.16129 306.823316 
L 121.354839 306.901855 
L 124.548387 307.324727 
L 127.741935 307.541308 
L 130.935484 306.709108 
L 140.516129 307.250953 
L 143.709677 306.990177 
L 146.903226 306.324723 
L 150.096774 305.994391 
L 153.290323 305.452938 
L 156.483871 305.805316 
L 159.677419 305.528126 
L 162.870968 306.001186 
L 166.064516 305.819938 
L 169.258065 306.013746 
L 175.645161 305.385102 
L 178.83871 305.807238 
L 182.032258 305.977876 
L 185.225806 305.9832 
L 188.419355 305.579716 
L 194.806452 306.691504 
L 198 306.700058 
L 204.387097 306.914282 
L 210.774194 306.81598 
L 213.967742 307.15657 
L 217.16129 307.247928 
L 220.354839 306.931649 
L 223.548387 307.196432 
L 226.741935 307.676316 
L 229.935484 307.944783 
L 233.129032 307.673456 
L 236.322581 307.863889 
L 239.516129 307.511306 
L 242.709677 306.795795 
L 245.903226 307.334905 
L 252.290323 307.08308 
L 255.483871 306.620449 
L 258.677419 307.360925 
L 261.870968 307.452747 
L 265.064516 307.743764 
L 268.258065 307.461869 
L 271.451613 307.73906 
L 274.645161 307.712718 
L 277.83871 307.263073 
L 281.032258 307.369499 
L 284.225806 307.332692 
L 287.419355 307.644072 
L 290.612903 307.672662 
L 293.806452 307.367266 
L 297 307.269711 
L 300.193548 307.409788 
L 309.774194 306.786558 
L 312.967742 307.03129 
L 316.16129 306.080174 
L 319.354839 305.370848 
L 325.741935 305.731478 
L 328.935484 305.498366 
L 332.129032 305.403331 
L 335.322581 305.547668 
L 338.516129 306.061313 
L 341.709677 306.767253 
L 344.903226 306.824521 
L 348.096774 306.555534 
L 351.290323 307.027523 
L 357.677419 306.552352 
L 360.870968 306.493466 
L 364.064516 306.153728 
L 367.258065 305.415028 
L 370.451613 305.702165 
L 373.645161 306.27489 
L 376.83871 306.311479 
L 380.032258 306.61471 
L 386.419355 306.164361 
L 389.612903 306.127261 
L 392.806452 305.899859 
L 399.193548 306.034853 
L 402.387097 306.48898 
L 408.774194 306.741448 
L 411.967742 306.350419 
L 415.16129 306.307791 
L 418.354839 305.95963 
L 421.548387 305.469256 
L 424.741935 305.327851 
L 427.935484 305.518551 
L 434.322581 306.226549 
L 437.516129 305.657879 
L 450.290323 305.530316 
L 453.483871 305.21994 
L 456.677419 305.163455 
L 463.064516 305.314768 
L 466.258065 305.767062 
L 469.451613 305.417073 
L 472.645161 305.547917 
L 475.83871 305.387956 
L 479.032258 305.348565 
L 491.806452 305.846367 
L 495 306.237443 
L 498.193548 306.280366 
L 501.387097 306.040332 
L 504.580645 306.384226 
L 507.774194 306.859233 
L 510.967742 307.110575 
L 514.16129 307.094961 
L 520.548387 307.343948 
L 523.741935 307.278227 
L 526.935484 307.334519 
L 530.129032 307.189076 
L 539.709677 306.37461 
L 542.903226 306.78515 
L 546.096774 306.627718 
L 549.290323 306.911996 
L 552.483871 307.059467 
L 555.677419 306.941771 
L 562.064516 307.154141 
L 565.258065 306.961155 
L 568.451613 307.099495 
L 571.645161 307.090442 
L 578.032258 306.787712 
L 584.419355 307.075514 
L 587.612903 306.798234 
L 590.806452 306.319706 
L 597.193548 306.311136 
L 603.580645 306.825942 
L 606.774194 306.964903 
L 609.967742 306.939213 
L 613.16129 306.72035 
L 616.354839 306.872301 
L 622.741935 306.169141 
L 625.935484 306.153498 
L 632.322581 305.781084 
L 635.516129 305.761146 
L 638.709677 305.507949 
L 641.903226 305.833517 
L 645.096774 305.848655 
L 648.290323 305.670621 
L 651.483871 305.711425 
L 654.677419 305.878599 
L 657.870968 306.440515 
L 661.064516 306.630737 
L 664.258065 306.977645 
L 667.451613 306.659895 
L 670.645161 306.488978 
L 673.83871 306.752756 
L 677.032258 305.913958 
L 686.612903 305.606209 
L 693 306.323676 
L 699.387097 306.565621 
L 705.774194 306.111116 
L 712.16129 306.022204 
L 715.354839 306.13589 
L 718.548387 305.644636 
L 721.741935 306.410145 
L 724.935484 306.534657 
L 728.129032 307.117634 
L 731.322581 307.106911 
L 734.516129 307.217772 
L 740.903226 307.081489 
L 747.290323 306.738382 
L 750.483871 306.75367 
L 753.677419 306.965822 
L 756.870968 307.048861 
L 766.451613 306.807779 
L 769.645161 306.822447 
L 772.83871 306.719622 
L 776.032258 306.816177 
L 779.225806 306.549709 
L 782.419355 306.521385 
L 785.612903 306.374879 
L 788.806452 306.084935 
L 788.806452 306.084935 
" clip-path="url(#pa35c403241)" style="fill: none; stroke: #000000; stroke-width: 1.5; stroke-linecap: square"/>
   </g>
   <g id="line2d_7">
    <path d="M 0 306 
L 3.193548 306 
L 6.387097 302.491192 
L 9.580645 302.329287 
L 12.774194 306.442084 
L 15.967742 305.626516 
L 19.16129 306.903482 
L 22.354839 306.723256 
L 28.741935 307.77028 
L 31.935484 306.930403 
L 35.129032 307.865336 
L 38.322581 308.238343 
L 41.516129 307.840473 
L 47.903226 305.532599 
L 51.096774 305.616514 
L 54.290323 306.302255 
L 57.483871 307.364676 
L 60.677419 306.731265 
L 63.870968 306.870247 
L 67.064516 306.783284 
L 70.258065 306.39175 
L 73.451613 306.688373 
L 76.645161 307.340138 
L 79.83871 307.373894 
L 83.032258 306.784982 
L 86.225806 306.908853 
L 89.419355 307.601309 
L 99 307.939348 
L 102.193548 307.07101 
L 108.580645 306.646488 
L 111.774194 306.708536 
L 114.967742 306.6014 
L 118.16129 306.870134 
L 121.354839 306.925469 
L 124.548387 307.230137 
L 127.741935 307.389121 
L 130.935484 306.801001 
L 140.516129 307.177384 
L 143.709677 306.998388 
L 146.903226 306.537604 
L 150.096774 306.303188 
L 153.290323 305.922541 
L 156.483871 306.146869 
L 159.677419 305.948277 
L 162.870968 306.253118 
L 166.064516 306.123825 
L 169.258065 306.243318 
L 175.645161 305.811418 
L 178.83871 306.075203 
L 185.225806 306.175888 
L 188.419355 305.909424 
L 194.806452 306.609554 
L 201.193548 306.714287 
L 207.580645 306.762016 
L 210.774194 306.706385 
L 213.967742 306.921919 
L 217.16129 306.985202 
L 220.354839 306.796746 
L 223.548387 306.963655 
L 226.741935 307.264655 
L 229.935484 307.440039 
L 233.129032 307.28831 
L 236.322581 307.414268 
L 239.516129 307.212958 
L 242.709677 306.789532 
L 245.903226 307.113574 
L 252.290323 306.972834 
L 255.483871 306.700549 
L 258.677419 307.137463 
L 261.870968 307.197491 
L 265.064516 307.375499 
L 268.258065 307.219345 
L 271.451613 307.387843 
L 274.645161 307.381371 
L 277.83871 307.127962 
L 290.612903 307.383486 
L 293.806452 307.215267 
L 297 307.163143 
L 300.193548 307.245808 
L 309.774194 306.896414 
L 312.967742 307.032237 
L 316.16129 306.495199 
L 319.354839 306.085557 
L 325.741935 306.256459 
L 332.129032 306.045574 
L 335.322581 306.110689 
L 338.516129 306.383008 
L 341.709677 306.767298 
L 344.903226 306.799031 
L 348.096774 306.650861 
L 351.290323 306.909179 
L 364.064516 306.426803 
L 367.258065 306.01615 
L 370.451613 306.159019 
L 373.645161 306.460809 
L 376.83871 306.476418 
L 380.032258 306.637491 
L 392.806452 306.236249 
L 399.193548 306.294526 
L 402.387097 306.533076 
L 408.774194 306.668237 
L 411.967742 306.460158 
L 415.16129 306.43418 
L 424.741935 305.890251 
L 431.129032 306.136516 
L 434.322581 306.339273 
L 437.516129 306.0354 
L 450.290323 305.932397 
L 453.483871 305.75849 
L 459.870968 305.754705 
L 463.064516 305.772734 
L 466.258065 306.001739 
L 469.451613 305.81195 
L 472.645161 305.8721 
L 479.032258 305.75112 
L 491.806452 305.983578 
L 495 306.184822 
L 498.193548 306.209693 
L 501.387097 306.086591 
L 510.967742 306.651477 
L 517.354839 306.743053 
L 526.935484 306.821093 
L 533.322581 306.634309 
L 539.709677 306.354421 
L 542.903226 306.567195 
L 546.096774 306.490915 
L 552.483871 306.722621 
L 555.677419 306.668189 
L 562.064516 306.789162 
L 565.258065 306.698331 
L 571.645161 306.777811 
L 578.032258 306.633614 
L 584.419355 306.788382 
L 594 306.387567 
L 597.193548 306.401491 
L 606.774194 306.740727 
L 616.354839 306.705162 
L 625.935484 306.338485 
L 632.322581 306.138125 
L 635.516129 306.121233 
L 638.709677 305.984923 
L 641.903226 306.140295 
L 654.677419 306.134562 
L 657.870968 306.415033 
L 664.258065 306.690626 
L 670.645161 306.452472 
L 673.83871 306.588095 
L 677.032258 306.164588 
L 686.612903 305.990118 
L 693 306.342996 
L 699.387097 306.466725 
L 705.774194 306.236695 
L 712.16129 306.185527 
L 715.354839 306.239366 
L 718.548387 305.987601 
L 721.741935 306.369066 
L 724.935484 306.431286 
L 728.129032 306.7277 
L 744.096774 306.669646 
L 750.483871 306.595506 
L 756.870968 306.753585 
L 772.83871 306.609688 
L 776.032258 306.659415 
L 779.225806 306.528406 
L 785.612903 306.441651 
L 788.806452 306.294141 
L 788.806452 306.294141 
" clip-path="url(#pa35c403241)" style="fill: none; stroke: #000000; stroke-width: 1.5; stroke-linecap: square"/>
   </g>
   <g id="line2d_8">
    <path d="M 0 306 
L 3.193548 306 
L 6.387097 302.509986 
L 9.580645 302.343473 
L 12.774194 306.387279 
L 15.967742 305.600106 
L 19.16129 306.848121 
L 22.354839 306.681702 
L 28.741935 307.699691 
L 31.935484 306.906011 
L 35.129032 307.795561 
L 38.322581 308.153903 
L 41.516129 307.787072 
L 47.903226 305.63731 
L 51.096774 305.707878 
L 54.290323 306.33351 
L 57.483871 307.305185 
L 60.677419 306.731011 
L 63.870968 306.857152 
L 67.064516 306.779306 
L 70.258065 306.427583 
L 73.451613 306.691182 
L 76.645161 307.271348 
L 79.83871 307.304386 
L 83.032258 306.787992 
L 86.225806 306.896616 
L 89.419355 307.502268 
L 99 307.807148 
L 102.193548 307.066821 
L 108.580645 306.703746 
L 111.774194 306.754334 
L 114.967742 306.66248 
L 118.16129 306.886073 
L 121.354839 306.931813 
L 124.548387 307.185166 
L 127.741935 307.31829 
L 130.935484 306.835124 
L 140.516129 307.14152 
L 143.709677 306.997269 
L 146.903226 306.62491 
L 150.096774 306.433877 
L 153.290323 306.125271 
L 156.483871 306.299072 
L 159.677419 306.137227 
L 162.870968 306.373885 
L 166.064516 306.268859 
L 169.258065 306.359186 
L 175.645161 306.01535 
L 178.83871 306.21543 
L 185.225806 306.28745 
L 188.419355 306.080248 
L 194.806452 306.609207 
L 210.774194 306.684971 
L 213.967742 306.846212 
L 217.16129 306.894822 
L 220.354839 306.757061 
L 229.935484 307.235977 
L 233.129032 307.129128 
L 236.322581 307.223969 
L 239.516129 307.081537 
L 242.709677 306.777742 
L 245.903226 307.011617 
L 255.483871 306.720603 
L 258.677419 307.031225 
L 274.645161 307.215998 
L 277.83871 307.041875 
L 290.612903 307.226609 
L 297 307.079454 
L 300.193548 307.137436 
L 309.774194 306.903118 
L 312.967742 306.99491 
L 319.354839 306.355253 
L 325.741935 306.461772 
L 332.129032 306.313866 
L 335.322581 306.352843 
L 344.903226 306.801562 
L 348.096774 306.704161 
L 351.290323 306.872647 
L 364.064516 306.557139 
L 367.258065 306.289317 
L 380.032258 306.678849 
L 392.806452 306.41729 
L 399.193548 306.449121 
L 405.580645 306.643383 
L 408.774194 306.681034 
L 411.967742 306.550378 
L 418.354839 306.413155 
L 424.741935 306.186251 
L 431.129032 306.331075 
L 434.322581 306.45365 
L 437.516129 306.264655 
L 463.064516 306.073517 
L 466.258065 306.208243 
L 469.451613 306.090626 
L 475.83871 306.064896 
L 485.419355 306.09681 
L 491.806452 306.168377 
L 498.193548 306.299451 
L 501.387097 306.225083 
L 514.16129 306.559797 
L 523.741935 306.63979 
L 530.129032 306.630047 
L 539.709677 306.397297 
L 542.903226 306.520679 
L 546.096774 306.476909 
L 552.483871 306.612558 
L 558.870968 306.626239 
L 571.645161 306.65275 
L 578.032258 306.572611 
L 584.419355 306.663164 
L 597.193548 306.443629 
L 606.774194 306.636847 
L 619.548387 306.531078 
L 625.935484 306.413438 
L 638.709677 306.208567 
L 645.096774 306.291847 
L 651.483871 306.239597 
L 654.677419 306.281307 
L 661.064516 306.489529 
L 664.258065 306.588863 
L 670.645161 306.458347 
L 673.83871 306.533392 
L 677.032258 306.299718 
L 686.612903 306.197981 
L 693 306.388543 
L 702.580645 306.380714 
L 712.16129 306.29856 
L 715.354839 306.326682 
L 718.548387 306.188021 
L 721.741935 306.39401 
L 724.935484 306.42767 
L 728.129032 306.589335 
L 776.032258 306.57226 
L 788.806452 306.377156 
L 788.806452 306.377156 
" clip-path="url(#pa35c403241)" style="fill: none; stroke: #000000; stroke-width: 1.5; stroke-linecap: square"/>
   </g>
   <g id="line2d_9">
    <path d="M 0 306 
L 3.193548 306 
L 6.387097 302.519384 
L 9.580645 302.350616 
L 12.774194 306.360128 
L 15.967742 305.586854 
L 19.16129 306.820485 
L 22.354839 306.660731 
L 28.741935 307.664238 
L 31.935484 306.893017 
L 35.129032 307.760399 
L 38.322581 308.111427 
L 41.516129 307.759478 
L 47.903226 305.686474 
L 51.096774 305.751098 
L 54.290323 306.348184 
L 57.483871 307.276393 
L 60.677419 306.7304 
L 63.870968 306.850423 
L 67.064516 306.776899 
L 70.258065 306.444144 
L 73.451613 306.692217 
L 76.645161 307.238459 
L 79.83871 307.270892 
L 83.032258 306.788478 
L 86.225806 306.88997 
L 89.419355 307.454797 
L 99 307.743001 
L 102.193548 307.0619 
L 108.580645 306.72771 
L 111.774194 306.773307 
L 114.967742 306.688782 
L 118.16129 306.891844 
L 121.354839 306.933276 
L 127.741935 307.284189 
L 130.935484 306.84887 
L 140.516129 307.123642 
L 143.709677 306.995087 
L 146.903226 306.662937 
L 153.290323 306.216596 
L 156.483871 306.368443 
L 159.677419 306.223828 
L 162.870968 306.430556 
L 166.064516 306.336921 
L 169.258065 306.414721 
L 175.645161 306.111355 
L 182.032258 306.348983 
L 185.225806 306.34386 
L 188.419355 306.163393 
L 194.806452 306.617186 
L 210.774194 306.68244 
L 217.16129 306.861266 
L 220.354839 306.745247 
L 233.129032 307.062391 
L 236.322581 307.142882 
L 239.516129 307.025211 
L 242.709677 306.772881 
L 245.903226 306.967488 
L 255.483871 306.728312 
L 258.677419 306.984361 
L 274.645161 307.14052 
L 277.83871 306.999808 
L 290.612903 307.152393 
L 297 307.035565 
L 303.387097 307.019489 
L 309.774194 306.896892 
L 312.967742 306.970063 
L 319.354839 306.461876 
L 325.741935 306.543606 
L 332.129032 306.424768 
L 338.516129 306.591082 
L 341.709677 306.787067 
L 354.483871 306.79341 
L 364.064516 306.613349 
L 367.258065 306.406387 
L 383.225806 306.646066 
L 392.806452 306.500429 
L 402.387097 306.633884 
L 408.774194 306.696147 
L 421.548387 306.36721 
L 427.935484 306.359484 
L 434.322581 306.517501 
L 437.516129 306.376966 
L 482.225806 306.213929 
L 504.580645 306.393341 
L 510.967742 306.555569 
L 536.516129 306.485122 
L 539.709677 306.444262 
L 542.903226 306.530335 
L 549.290323 306.560475 
L 562.064516 306.624031 
L 574.83871 306.588031 
L 600.387097 306.534071 
L 609.967742 306.609301 
L 638.709677 306.320217 
L 645.096774 306.374448 
L 654.677419 306.36505 
L 664.258065 306.568526 
L 670.645161 306.482129 
L 673.83871 306.531566 
L 677.032258 306.377258 
L 689.806452 306.378388 
L 699.387097 306.475326 
L 712.16129 306.371175 
L 763.258065 306.565861 
L 788.806452 306.425651 
L 788.806452 306.425651 
" clip-path="url(#pa35c403241)" style="fill: none; stroke: #000000; stroke-width: 1.5; stroke-linecap: square"/>
   </g>
  </g>
 </g>
 <defs>
  <clipPath id="pa35c403241">
   <rect x="0" y="0" width="792" height="612"/>
  </clipPath>
 </defs>
</svg>
