<?xml version="1.0" encoding="utf-8" standalone="no"?>
<!DOCTYPE svg PUBLIC "-//W3C//DTD SVG 1.1//EN"
  "http://www.w3.org/Graphics/SVG/1.1/DTD/svg11.dtd">
<svg xmlns:xlink="http://www.w3.org/1999/xlink" width="792pt" height="612pt" viewBox="0 0 792 612" xmlns="http://www.w3.org/2000/svg" version="1.1">
 <metadata>
  <rdf:RDF xmlns:dc="http://purl.org/dc/elements/1.1/" xmlns:cc="http://creativecommons.org/ns#" xmlns:rdf="http://www.w3.org/1999/02/22-rdf-syntax-ns#">
   <cc:Work>
    <dc:type rdf:resource="http://purl.org/dc/dcmitype/StillImage"/>
    <dc:date>2022-12-26T20:26:37.938312</dc:date>
    <dc:format>image/svg+xml</dc:format>
    <dc:creator>
     <cc:Agent>
      <dc:title>Matplotlib v3.6.2, https://matplotlib.org/</dc:title>
     </cc:Agent>
    </dc:creator>
   </cc:Work>
  </rdf:RDF>
 </metadata>
 <defs>
  <style type="text/css">*{stroke-linejoin: round; stroke-linecap: butt}</style>
 </defs>
 <g id="figure_1">
  <g id="patch_1">
   <path d="M 0 612 
L 792 612 
L 792 0 
L 0 0 
z
" style="fill: #ffffff"/>
  </g>
  <g id="axes_1">
   <g id="line2d_1">
    <path d="M 0 306 
L 12.571429 300.625894 
L 25.142857 303.323196 
L 37.714286 313.025556 
L 50.285714 312.210328 
L 62.857143 297.511473 
L 75.428571 289.640681 
L 88 304.954351 
L 100.571429 307.610291 
L 113.142857 316.807559 
L 125.714286 315.721304 
L 138.285714 312.41937 
L 150.857143 306.585565 
L 163.428571 299.413401 
L 176 312.732921 
L 188.571429 295.63109 
L 201.142857 292.728533 
L 213.714286 305.707217 
L 226.285714 297.992124 
L 238.857143 300.416831 
L 251.428571 304.996176 
L 264 296.341372 
L 276.571429 317.204393 
L 289.142857 306.334609 
L 301.714286 299.162565 
L 314.285714 306.899259 
L 326.857143 311.792228 
L 339.428571 326.485035 
L 352 313.694386 
L 364.571429 319.709788 
L 377.142857 295.923546 
L 389.714286 300.751335 
L 402.285714 316.536019 
L 414.857143 276.313457 
L 427.428571 303.009527 
L 440 304.055111 
L 452.571429 298.869935 
L 465.142857 320.523661 
L 477.714286 317.350585 
L 490.285714 309.45051 
L 502.857143 312.670212 
L 515.428571 296.801023 
L 528 299.747863 
L 540.571429 303.678694 
L 553.142857 305.288957 
L 565.714286 310.203262 
L 578.285714 288.097968 
L 590.857143 333.63432 
L 603.428571 311.102315 
L 616 328.191563 
L 628.571429 307.380253 
L 641.142857 311.834039 
L 653.714286 306.731956 
L 666.285714 303.95055 
L 678.857143 301.817647 
L 691.428571 300.751335 
L 704 307.819415 
L 716.571429 315.010926 
L 729.142857 310.537803 
L 741.714286 304.452446 
L 754.285714 307.171126 
L 766.857143 302.131289 
L 779.428571 307.798503 
" clip-path="url(#pb3c7eda2da)" style="fill: none; stroke: #000000; stroke-width: 1.5; stroke-linecap: square"/>
   </g>
   <g id="line2d_2">
    <path d="M 0 306 
L 12.571429 306 
L 25.142857 302.417058 
L 37.714286 302.934844 
L 50.285714 308.317124 
L 62.857143 310.326693 
L 75.428571 303.816447 
L 88 296.667763 
L 100.571429 300.826354 
L 113.142857 304.221261 
L 125.714286 310.548052 
L 138.285714 313.159491 
L 150.857143 312.788252 
L 163.428571 309.676258 
L 176 304.548152 
L 188.571429 308.686317 
L 201.142857 302.138669 
L 213.714286 297.4024 
L 226.285714 301.53222 
L 238.857143 299.727205 
L 251.428571 300.048482 
L 264 302.518986 
L 276.571429 299.423484 
L 289.142857 308.324668 
L 301.714286 307.350647 
L 314.285714 303.268744 
L 326.857143 305.086307 
L 339.428571 308.466622 
L 352 317.536902 
L 364.571429 315.633065 
L 377.142857 317.717723 
L 389.714286 306.779933 
L 402.285714 303.754469 
L 414.857143 310.181123 
L 427.428571 293.147997 
L 440 298.059492 
L 452.571429 301.012798 
L 465.142857 299.91223 
L 477.714286 310.224335 
L 490.285714 313.830521 
L 502.857143 311.657857 
L 515.428571 312.156468 
L 528 304.518136 
L 540.571429 302.126369 
L 553.142857 302.901773 
L 565.714286 304.107925 
L 578.285714 307.135451 
L 590.857143 297.551218 
L 603.428571 315.673785 
L 616 313.385389 
L 628.571429 320.858644 
L 641.142857 314.138348 
L 653.714286 313.002277 
L 666.285714 309.870351 
L 678.857143 306.898275 
L 691.428571 304.384788 
L 704 302.503323 
L 716.571429 305.154868 
L 729.142857 310.058045 
L 741.714286 310.304117 
L 754.285714 307.363933 
L 766.857143 307.268391 
L 779.428571 304.696181 
" clip-path="url(#pb3c7eda2da)" style="fill: none; stroke: #000000; stroke-width: 1.5; stroke-linecap: square"/>
   </g>
   <g id="line2d_3">
    <path d="M 0 306 
L 12.571429 306 
L 25.142857 302.851709 
L 37.714286 303.065329 
L 50.285714 306.955464 
L 62.857143 308.825308 
L 75.428571 305.037498 
L 88 300.086347 
L 100.571429 301.607 
L 113.142857 303.446479 
L 125.714286 307.487393 
L 138.285714 309.954312 
L 150.857143 310.687839 
L 163.428571 309.472997 
L 176 306.503214 
L 188.571429 308.338264 
L 201.142857 304.600697 
L 213.714286 301.106138 
L 226.285714 302.459463 
L 238.857143 301.144644 
L 251.428571 300.916986 
L 264 302.103345 
L 276.571429 300.413889 
L 289.142857 305.364427 
L 301.714286 305.650172 
L 314.285714 303.739999 
L 326.857143 304.653919 
L 339.428571 306.740361 
L 352 312.54762 
L 364.571429 312.891684 
L 377.142857 314.912977 
L 389.714286 309.332373 
L 402.285714 306.82487 
L 414.857143 309.697601 
L 427.428571 299.859261 
L 440 300.78761 
L 452.571429 301.748728 
L 465.142857 300.898412 
L 477.714286 306.67717 
L 490.285714 309.80484 
L 502.857143 309.704638 
L 515.428571 310.588846 
L 528 306.538315 
L 540.571429 304.535358 
L 553.142857 304.258214 
L 565.714286 304.550453 
L 578.285714 306.195262 
L 590.857143 300.880163 
L 603.428571 310.532933 
L 616 310.69346 
L 628.571429 315.886525 
L 641.142857 313.401109 
L 653.714286 312.951092 
L 666.285714 311.138944 
L 678.857143 309.014699 
L 691.428571 306.888874 
L 704 305.081092 
L 716.571429 305.87756 
L 729.142857 308.574285 
L 741.714286 309.161809 
L 754.285714 307.783413 
L 766.857143 307.606241 
L 779.428571 305.993343 
" clip-path="url(#pb3c7eda2da)" style="fill: none; stroke: #000000; stroke-width: 1.5; stroke-linecap: square"/>
   </g>
   <g id="line2d_4">
    <path d="M 0 306 
L 12.571429 306 
L 25.142857 303.080501 
L 37.714286 303.17575 
L 50.285714 306.310367 
L 62.857143 307.930284 
L 75.428571 305.365488 
L 88 301.801835 
L 100.571429 302.470552 
L 113.142857 303.505907 
L 125.714286 306.077529 
L 138.285714 307.880385 
L 150.857143 308.705841 
L 163.428571 308.328886 
L 176 306.772725 
L 188.571429 307.797322 
L 201.142857 305.731928 
L 213.714286 303.546931 
L 226.285714 303.906521 
L 238.857143 302.928973 
L 251.428571 302.516352 
L 264 302.921526 
L 276.571429 301.850588 
L 289.142857 304.3403 
L 301.714286 304.662633 
L 314.285714 303.77575 
L 326.857143 304.27825 
L 339.428571 305.485058 
L 352 308.857375 
L 364.571429 309.632209 
L 377.142857 311.245593 
L 389.714286 308.796195 
L 402.285714 307.51118 
L 414.857143 308.954222 
L 427.428571 303.730948 
L 440 303.61597 
L 452.571429 303.680241 
L 465.142857 302.906442 
L 477.714286 305.72542 
L 490.285714 307.593142 
L 502.857143 307.891473 
L 515.428571 308.655067 
L 528 306.756172 
L 540.571429 305.631019 
L 553.142857 305.314937 
L 565.714286 305.309994 
L 578.285714 306.095305 
L 590.857143 303.213301 
L 603.428571 308.089069 
L 616 308.579998 
L 628.571429 311.719916 
L 641.142857 311.035426 
L 653.714286 311.169616 
L 666.285714 310.464748 
L 678.857143 309.433183 
L 691.428571 308.211961 
L 704 307.021412 
L 716.571429 307.15378 
L 729.142857 308.409312 
L 741.714286 308.747201 
L 754.285714 308.050153 
L 766.857143 307.906228 
L 779.428571 306.976425 
" clip-path="url(#pb3c7eda2da)" style="fill: none; stroke: #000000; stroke-width: 1.5; stroke-linecap: square"/>
   </g>
   <g id="line2d_5">
    <path d="M 0 306 
L 12.571429 306 
L 25.142857 303.196402 
L 37.714286 303.242377 
L 50.285714 306.014893 
L 62.857143 307.477611 
L 75.428571 305.436829 
L 88 302.551161 
L 100.571429 302.95005 
L 113.142857 303.664292 
L 125.714286 305.547107 
L 138.285714 306.921817 
L 150.857143 307.627745 
L 163.428571 307.499753 
L 176 306.544561 
L 188.571429 307.250793 
L 201.142857 305.964509 
L 213.714286 304.538343 
L 226.285714 304.661177 
L 238.857143 303.975321 
L 251.428571 303.61652 
L 264 303.753175 
L 276.571429 303.030361 
L 289.142857 304.392826 
L 301.714286 304.577006 
L 314.285714 304.06936 
L 326.857143 304.331811 
L 339.428571 305.017096 
L 352 306.974391 
L 364.571429 307.581452 
L 377.142857 308.669647 
L 389.714286 307.534121 
L 402.285714 306.933611 
L 414.857143 307.779374 
L 427.428571 305.014781 
L 440 304.83992 
L 452.571429 304.771772 
L 465.142857 304.261155 
L 477.714286 305.663897 
L 490.285714 306.668512 
L 502.857143 306.906865 
L 515.428571 307.399395 
L 528 306.495806 
L 540.571429 305.921852 
L 553.142857 305.731468 
L 565.714286 305.693982 
L 578.285714 306.075342 
L 590.857143 304.555711 
L 603.428571 307.013778 
L 616 307.358077 
L 628.571429 309.113376 
L 641.142857 308.967786 
L 653.714286 309.208358 
L 666.285714 309.000735 
L 678.857143 308.577684 
L 691.428571 308.011812 
L 704 307.404451 
L 716.571429 307.43914 
L 729.142857 308.071919 
L 741.714286 308.277832 
L 754.285714 307.958588 
L 766.857143 307.8929 
L 779.428571 307.412473 
" clip-path="url(#pb3c7eda2da)" style="fill: none; stroke: #000000; stroke-width: 1.5; stroke-linecap: square"/>
   </g>
   <g id="line2d_6">
    <path d="M 0 306 
L 12.571429 306 
L 25.142857 303.254544 
L 37.714286 303.278426 
L 50.285714 305.876044 
L 62.857143 307.25515 
L 75.428571 305.449992 
L 88 302.885274 
L 100.571429 303.184763 
L 113.142857 303.765856 
L 125.714286 305.339051 
L 138.285714 306.500605 
L 150.857143 307.119689 
L 163.428571 307.0671 
L 176 306.353442 
L 188.571429 306.919533 
L 201.142857 305.962013 
L 213.714286 304.884867 
L 226.285714 304.949253 
L 238.857143 304.423291 
L 251.428571 304.130166 
L 264 304.191627 
L 276.571429 303.649767 
L 289.142857 304.561101 
L 301.714286 304.677413 
L 314.285714 304.323859 
L 326.857143 304.485427 
L 339.428571 304.934728 
L 352 306.236795 
L 364.571429 306.678909 
L 377.142857 307.438972 
L 389.714286 306.778065 
L 402.285714 306.437352 
L 414.857143 307.000493 
L 427.428571 305.307339 
L 440 305.182512 
L 452.571429 305.12199 
L 465.142857 304.790049 
L 477.714286 305.616972 
L 490.285714 306.227334 
L 502.857143 306.393338 
L 515.428571 306.713739 
L 528 306.212025 
L 540.571429 305.887562 
L 553.142857 305.777559 
L 565.714286 305.753406 
L 578.285714 305.971854 
L 590.857143 305.099295 
L 603.428571 306.485569 
L 616 306.707942 
L 628.571429 307.73855 
L 641.142857 307.721486 
L 653.714286 307.916351 
L 666.285714 307.860517 
L 678.857143 307.677068 
L 691.428571 307.403381 
L 704 307.093992 
L 716.571429 307.127592 
L 729.142857 307.491412 
L 741.714286 307.631448 
L 754.285714 307.48585 
L 766.857143 307.471484 
L 779.428571 307.228512 
" clip-path="url(#pb3c7eda2da)" style="fill: none; stroke: #000000; stroke-width: 1.5; stroke-linecap: square"/>
   </g>
   <g id="line2d_7">
    <path d="M 0 306 
L 12.571429 306 
L 25.142857 303.283638 
L 37.714286 303.297111 
L 50.285714 305.809072 
L 62.857143 307.145551 
L 75.428571 305.451304 
L 88 303.04097 
L 100.571429 303.298653 
L 113.142857 303.820244 
L 125.714286 305.249639 
L 138.285714 306.308346 
L 150.857143 306.880515 
L 163.428571 306.854762 
L 176 306.24512 
L 188.571429 306.74634 
L 201.142857 305.932864 
L 213.714286 305.013781 
L 226.285714 305.059801 
L 238.857143 304.610807 
L 251.428571 304.355163 
L 264 304.392746 
L 276.571429 303.937458 
L 289.142857 304.662227 
L 301.714286 304.750622 
L 314.285714 304.464204 
L 326.857143 304.585376 
L 339.428571 304.934152 
L 352 305.951086 
L 364.571429 306.30689 
L 377.142857 306.908301 
L 389.714286 306.426843 
L 402.285714 306.183592 
L 414.857143 306.618121 
L 427.428571 305.368362 
L 440 305.273252 
L 452.571429 305.225048 
L 465.142857 304.977999 
L 477.714286 305.572261 
L 490.285714 306.01497 
L 502.857143 306.141999 
L 515.428571 306.379712 
L 528 306.036025 
L 540.571429 305.813649 
L 553.142857 305.739194 
L 565.714286 305.723701 
L 578.285714 305.875879 
L 590.857143 305.278762 
L 603.428571 306.221172 
L 616 306.38111 
L 628.571429 307.088943 
L 641.142857 307.098278 
L 653.714286 307.24846 
L 666.285714 307.232249 
L 678.857143 307.130268 
L 691.428571 306.966745 
L 704 306.777199 
L 716.571429 306.808695 
L 729.142857 307.05448 
L 741.714286 307.157954 
L 754.285714 307.078252 
L 766.857143 307.080967 
L 779.428571 306.937429 
" clip-path="url(#pb3c7eda2da)" style="fill: none; stroke: #000000; stroke-width: 1.5; stroke-linecap: square"/>
   </g>
   <g id="line2d_8">
    <path d="M 0 306 
L 12.571429 306 
L 25.142857 303.298189 
L 37.714286 303.306615 
L 50.285714 305.776226 
L 62.857143 307.091239 
L 75.428571 305.450703 
L 88 303.115868 
L 100.571429 303.354474 
L 113.142857 303.848064 
L 125.714286 305.208523 
L 138.285714 306.217131 
L 150.857143 306.765406 
L 163.428571 306.750655 
L 176 306.1888 
L 188.571429 306.658999 
L 201.142857 305.912095 
L 213.714286 305.06706 
L 226.285714 305.105992 
L 238.857143 304.69387 
L 251.428571 304.457276 
L 264 304.485812 
L 276.571429 304.071852 
L 289.142857 304.713644 
L 301.714286 304.789928 
L 314.285714 304.534326 
L 326.857143 304.638127 
L 339.428571 304.942096 
L 352 305.830481 
L 364.571429 306.14482 
L 377.142857 306.671912 
L 389.714286 306.2658 
L 402.285714 306.062971 
L 414.857143 306.438534 
L 427.428571 305.38182 
L 440 305.30082 
L 452.571429 305.259259 
L 465.142857 305.050761 
L 477.714286 305.545129 
L 490.285714 305.914409 
L 502.857143 306.022755 
L 515.428571 306.222489 
L 528 305.94472 
L 540.571429 305.765402 
L 553.142857 305.706103 
L 565.714286 305.694454 
L 578.285714 305.818243 
L 590.857143 305.339195 
L 603.428571 306.093043 
L 616 306.224089 
L 628.571429 306.791015 
L 641.142857 306.805971 
L 653.714286 306.931769 
L 666.285714 306.926841 
L 678.857143 306.854438 
L 691.428571 306.733543 
L 704 306.591825 
L 716.571429 306.620534 
L 729.142857 306.814365 
L 741.714286 306.899316 
L 754.285714 306.844159 
L 766.857143 306.851444 
L 779.428571 306.747473 
" clip-path="url(#pb3c7eda2da)" style="fill: none; stroke: #000000; stroke-width: 1.5; stroke-linecap: square"/>
   </g>
   <g id="line2d_9">
    <path d="M 0 306 
L 12.571429 306 
L 25.142857 303.305464 
L 37.714286 303.311407 
L 50.285714 305.759966 
L 62.857143 307.064216 
L 75.428571 305.450096 
L 88 303.152568 
L 100.571429 303.382074 
L 113.142857 303.862096 
L 125.714286 305.188847 
L 138.285714 306.172782 
L 150.857143 306.709054 
L 163.428571 306.699243 
L 176 306.160236 
L 188.571429 306.615293 
L 201.142857 305.90029 
L 213.714286 305.090953 
L 226.285714 305.126788 
L 238.857143 304.732602 
L 251.428571 304.505505 
L 264 304.530157 
L 276.571429 304.136253 
L 289.142857 304.739133 
L 301.714286 304.809833 
L 314.285714 304.568915 
L 326.857143 304.66474 
L 339.428571 304.947747 
L 352 305.775656 
L 364.571429 306.069981 
L 377.142857 306.56157 
L 389.714286 306.18968 
L 402.285714 306.005065 
L 414.857143 306.352742 
L 427.428571 305.385012 
L 440 305.310705 
L 452.571429 305.272421 
L 465.142857 305.081946 
L 477.714286 305.530649 
L 490.285714 305.866093 
L 502.857143 305.965493 
L 515.428571 306.147384 
L 528 305.899185 
L 540.571429 305.739241 
L 553.142857 305.686751 
L 565.714286 305.676817 
L 578.285714 305.787688 
L 590.857143 305.362046 
L 603.428571 306.030887 
L 616 306.148416 
L 628.571429 306.651181 
L 641.142857 306.667497 
L 653.714286 306.781205 
L 666.285714 306.780139 
L 678.857143 306.719868 
L 691.428571 306.617079 
L 704 306.495968 
L 716.571429 306.522881 
L 729.142857 306.693001 
L 741.714286 306.768931 
L 754.285714 306.723834 
L 766.857143 306.732421 
L 779.428571 306.645288 
" clip-path="url(#pb3c7eda2da)" style="fill: none; stroke: #000000; stroke-width: 1.5; stroke-linecap: square"/>
   </g>
  </g>
 </g>
 <defs>
  <clipPath id="pb3c7eda2da">
   <rect x="0" y="0" width="792" height="612"/>
  </clipPath>
 </defs>
</svg>
