<?xml version="1.0" encoding="utf-8" standalone="no"?>
<!DOCTYPE svg PUBLIC "-//W3C//DTD SVG 1.1//EN"
  "http://www.w3.org/Graphics/SVG/1.1/DTD/svg11.dtd">
<svg xmlns:xlink="http://www.w3.org/1999/xlink" width="792pt" height="612pt" viewBox="0 0 792 612" xmlns="http://www.w3.org/2000/svg" version="1.1">
 <metadata>
  <rdf:RDF xmlns:dc="http://purl.org/dc/elements/1.1/" xmlns:cc="http://creativecommons.org/ns#" xmlns:rdf="http://www.w3.org/1999/02/22-rdf-syntax-ns#">
   <cc:Work>
    <dc:type rdf:resource="http://purl.org/dc/dcmitype/StillImage"/>
    <dc:date>2023-01-02T15:38:45.750743</dc:date>
    <dc:format>image/svg+xml</dc:format>
    <dc:creator>
     <cc:Agent>
      <dc:title>Matplotlib v3.6.2, https://matplotlib.org/</dc:title>
     </cc:Agent>
    </dc:creator>
   </cc:Work>
  </rdf:RDF>
 </metadata>
 <defs>
  <style type="text/css">*{stroke-linejoin: round; stroke-linecap: butt}</style>
 </defs>
 <g id="figure_1">
  <g id="patch_1">
   <path d="M 0 612 
L 792 612 
L 792 0 
L 0 0 
z
" style="fill: #ffffff"/>
  </g>
  <g id="axes_1">
   <g id="line2d_1">
    <path d="M 0 459 
L 12.774194 434.722677 
L 25.548387 433.175576 
L 38.322581 435.558344 
L 51.096774 451.583404 
L 63.870968 461.337931 
L 76.645161 464.513793 
L 89.419355 464.803448 
L 102.193548 461.544828 
L 114.967742 464.875862 
L 127.741935 459.744828 
L 140.516129 441.536021 
L 153.290323 441.102183 
L 166.064516 429.248667 
L 178.83871 421.007811 
L 191.612903 419.528765 
L 204.387097 405.339592 
L 217.16129 421.809296 
L 229.935484 422.30263 
L 242.709677 412.238653 
L 255.483871 413.559673 
L 268.258065 422.086786 
L 281.032258 452.452168 
L 293.806452 460.624138 
L 306.580645 467.410345 
L 319.354839 462.424138 
L 332.129032 459.827586 
L 344.903226 465.041379 
L 357.677419 432.959028 
L 370.451613 428.537945 
L 383.225806 425.665687 
L 396 415.1582 
L 408.774194 436.610886 
L 421.548387 453.445099 
L 434.322581 458.565517 
L 447.096774 462.155172 
L 459.870968 454.810461 
L 472.645161 445.534899 
L 485.419355 442.093858 
L 498.193548 441.040208 
L 510.967742 447.271519 
L 523.741935 420.761248 
L 536.516129 459.931034 
L 549.290323 462.455172 
L 562.064516 473.451724 
L 574.83871 474.134483 
L 587.612903 477.02069 
L 600.387097 477.382759 
L 613.16129 476.368966 
L 625.935484 474.3 
L 638.709677 471.703448 
L 651.483871 472.603448 
L 664.258065 477.062069 
L 677.032258 479.306897 
L 689.806452 478.541379 
L 702.580645 479.12069 
L 715.354839 477.206897 
L 728.129032 478.096552 
L 740.903226 476.834483 
L 753.677419 479.1 
L 766.451613 474.889655 
L 779.225806 474.837931 
" clip-path="url(#pc4ad3e5c64)" style="fill: none; stroke: #000000; stroke-width: 1.5; stroke-linecap: square"/>
   </g>
   <g id="line2d_2">
    <path d="M 0 459 
L 12.774194 459 
L 25.548387 442.806723 
L 38.322581 437.300916 
L 51.096774 436.371463 
L 63.870968 444.218683 
L 76.645161 455.286781 
L 89.419355 461.164594 
L 102.193548 462.991156 
L 114.967742 462.272982 
L 127.741935 463.601826 
L 140.516129 461.691684 
L 153.290323 454.313226 
L 166.064516 447.684808 
L 178.83871 438.386411 
L 191.612903 429.579902 
L 204.387097 424.439087 
L 217.16129 414.750508 
L 229.935484 418.170677 
L 242.709677 420.159919 
L 255.483871 416.138825 
L 268.258065 414.79512 
L 281.032258 418.424367 
L 293.806452 435.467426 
L 306.580645 449.747988 
L 319.354839 461.714686 
L 332.129032 462.100487 
L 344.903226 460.989696 
L 357.677419 463.058053 
L 370.451613 452.091394 
L 383.225806 440.315037 
L 396 432.931248 
L 408.774194 423.936317 
L 421.548387 430.175062 
L 434.322581 441.768021 
L 447.096774 450.158092 
L 459.870968 459.098093 
L 472.645161 457.095224 
L 485.419355 451.347241 
L 498.193548 446.75159 
L 510.967742 443.946253 
L 523.741935 445.629625 
L 536.516129 433.11237 
L 549.290323 447.447755 
L 562.064516 458.407181 
L 574.83871 466.158134 
L 587.612903 470.184787 
L 600.387097 473.649128 
L 613.16129 475.563732 
L 625.935484 476.008073 
L 638.709677 475.209087 
L 651.483871 473.479351 
L 664.258065 473.061298 
L 677.032258 475.068763 
L 689.806452 477.197972 
L 702.580645 477.872657 
L 715.354839 478.500081 
L 728.129032 477.855132 
L 740.903226 477.983286 
L 753.677419 477.418945 
L 766.451613 478.272211 
L 779.225806 476.576673 
" clip-path="url(#pc4ad3e5c64)" style="fill: none; stroke: #000000; stroke-width: 1.5; stroke-linecap: square"/>
   </g>
   <g id="line2d_3">
    <path d="M 0 459 
L 12.774194 459 
L 25.548387 444.769951 
L 38.322581 439.513606 
L 51.096774 437.968602 
L 63.870968 442.809586 
L 76.645161 450.573325 
L 89.419355 458.59471 
L 102.193548 460.72022 
L 114.967742 460.972909 
L 127.741935 462.152934 
L 140.516129 461.431678 
L 153.290323 458.92567 
L 166.064516 453.644524 
L 178.83871 446.433519 
L 191.612903 438.930064 
L 204.387097 433.21467 
L 217.16129 424.959535 
L 229.935484 424.02169 
L 242.709677 423.505612 
L 255.483871 420.173762 
L 268.258065 418.191234 
L 281.032258 419.281458 
L 293.806452 428.94294 
L 306.580645 439.141093 
L 319.354839 452.359534 
L 332.129032 457.304434 
L 344.903226 458.528517 
L 357.677419 460.671978 
L 370.451613 454.902112 
L 383.225806 447.168817 
L 396 440.866449 
L 408.774194 433.31254 
L 421.548387 434.314419 
L 434.322581 439.94811 
L 447.096774 445.438967 
L 459.870968 452.245753 
L 472.645161 453.044446 
L 485.419355 450.871452 
L 498.193548 448.287752 
L 510.967742 446.138065 
L 523.741935 446.427608 
L 536.516129 438.83902 
L 549.290323 445.557139 
L 562.064516 452.519251 
L 574.83871 461.731764 
L 587.612903 465.3935 
L 600.387097 468.832508 
L 613.16129 471.37477 
L 625.935484 472.866065 
L 638.709677 473.305755 
L 651.483871 472.851208 
L 664.258065 472.790642 
L 677.032258 474.064064 
L 689.806452 475.628135 
L 702.580645 476.510326 
L 715.354839 477.304874 
L 728.129032 477.301581 
L 740.903226 477.571031 
L 753.677419 477.374716 
L 766.451613 477.899159 
L 779.225806 477.019347 
" clip-path="url(#pc4ad3e5c64)" style="fill: none; stroke: #000000; stroke-width: 1.5; stroke-linecap: square"/>
   </g>
   <g id="line2d_4">
    <path d="M 0 459 
L 12.774194 459 
L 25.548387 445.803547 
L 38.322581 440.844074 
L 51.096774 439.161526 
L 63.870968 442.569562 
L 76.645161 448.336286 
L 89.419355 454.494671 
L 102.193548 459.047902 
L 114.967742 459.550918 
L 127.741935 460.580065 
L 140.516129 460.423972 
L 153.290323 459.106029 
L 166.064516 456.077877 
L 178.83871 451.38875 
L 191.612903 446.154722 
L 204.387097 441.624952 
L 217.16129 435.503829 
L 229.935484 433.220658 
L 242.709677 431.414158 
L 255.483871 428.256395 
L 268.258065 425.849843 
L 281.032258 425.237279 
L 293.806452 429.638135 
L 306.580645 435.159204 
L 319.354839 443.059058 
L 332.129032 447.273462 
L 344.903226 449.554604 
L 357.677419 453.974635 
L 370.451613 450.60515 
L 383.225806 447.069402 
L 396 443.642181 
L 408.774194 439.078795 
L 421.548387 438.672108 
L 434.322581 441.032194 
L 447.096774 443.835463 
L 459.870968 447.772335 
L 472.645161 448.893872 
L 485.419355 448.346592 
L 498.193548 447.330575 
L 510.967742 446.307343 
L 523.741935 446.448665 
L 536.516129 442.317379 
L 549.290323 445.414172 
L 562.064516 449.24042 
L 574.83871 457.728157 
L 587.612903 461.067093 
L 600.387097 463.624531 
L 613.16129 465.833213 
L 625.935484 467.531538 
L 638.709677 468.625722 
L 651.483871 469.130974 
L 664.258065 469.701704 
L 677.032258 470.893516 
L 689.806452 472.252479 
L 702.580645 473.26662 
L 715.354839 474.209564 
L 728.129032 474.692563 
L 740.903226 475.243928 
L 753.677419 475.507602 
L 766.451613 476.087937 
L 779.225806 475.912622 
" clip-path="url(#pc4ad3e5c64)" style="fill: none; stroke: #000000; stroke-width: 1.5; stroke-linecap: square"/>
   </g>
   <g id="line2d_5">
    <path d="M 0 459 
L 12.774194 459 
L 25.548387 446.327192 
L 38.322581 441.554941 
L 51.096774 439.855015 
L 63.870968 442.621996 
L 76.645161 447.407883 
L 89.419355 452.540953 
L 102.193548 456.502748 
L 114.967742 458.05563 
L 127.741935 459.571755 
L 140.516129 459.595133 
L 153.290323 458.312928 
L 166.064516 456.19814 
L 178.83871 453.010503 
L 191.612903 449.350058 
L 204.387097 446.04136 
L 217.16129 441.637177 
L 229.935484 439.549156 
L 242.709677 437.772553 
L 255.483871 435.189624 
L 268.258065 433.04078 
L 281.032258 431.971392 
L 293.806452 433.936108 
L 306.580645 436.770457 
L 319.354839 441.212602 
L 332.129032 443.812457 
L 344.903226 445.434374 
L 357.677419 448.317845 
L 370.451613 446.929194 
L 383.225806 445.277771 
L 396 443.527894 
L 408.774194 441.008363 
L 421.548387 440.621056 
L 434.322581 441.743583 
L 447.096774 443.209235 
L 459.870968 445.400615 
L 472.645161 446.214243 
L 485.419355 446.155681 
L 498.193548 445.806585 
L 510.967742 445.398108 
L 523.741935 445.558163 
L 536.516129 443.439455 
L 549.290323 444.999234 
L 562.064516 447.065948 
L 574.83871 451.747777 
L 587.612903 456.200209 
L 600.387097 459.667096 
L 613.16129 461.160763 
L 625.935484 462.441331 
L 638.709677 463.438656 
L 651.483871 464.132966 
L 664.258065 464.843836 
L 677.032258 465.868279 
L 689.806452 466.994089 
L 702.580645 467.960703 
L 715.354839 468.89423 
L 728.129032 469.589126 
L 740.903226 470.299877 
L 753.677419 470.84551 
L 766.451613 471.534405 
L 779.225806 471.814295 
" clip-path="url(#pc4ad3e5c64)" style="fill: none; stroke: #000000; stroke-width: 1.5; stroke-linecap: square"/>
   </g>
   <g id="line2d_6">
    <path d="M 0 459 
L 12.774194 459 
L 25.548387 446.589887 
L 38.322581 441.919823 
L 51.096774 440.22392 
L 63.870968 442.695319 
L 76.645161 447.01159 
L 89.419355 451.633905 
L 102.193548 455.219875 
L 114.967742 456.718685 
L 127.741935 459.039821 
L 140.516129 459.118672 
L 153.290323 457.491508 
L 166.064516 455.876991 
L 178.83871 453.390731 
L 191.612903 450.510655 
L 204.387097 447.876599 
L 217.16129 444.399315 
L 229.935484 442.626635 
L 242.709677 441.087251 
L 255.483871 438.969237 
L 268.258065 437.159964 
L 281.032258 436.118024 
L 293.806452 437.214513 
L 306.580645 438.960293 
L 319.354839 441.858101 
L 332.129032 443.576313 
L 344.903226 444.676508 
L 357.677419 446.632831 
L 370.451613 445.821518 
L 383.225806 444.812598 
L 396 443.712053 
L 408.774194 442.092671 
L 421.548387 441.786968 
L 434.322581 442.427809 
L 447.096774 443.303751 
L 459.870968 444.653365 
L 472.645161 445.192268 
L 485.419355 445.210263 
L 498.193548 445.048191 
L 510.967742 444.841719 
L 523.741935 444.965709 
L 536.516129 443.737964 
L 549.290323 444.643444 
L 562.064516 445.873718 
L 574.83871 448.664139 
L 587.612903 451.399308 
L 600.387097 454.405588 
L 613.16129 457.300186 
L 625.935484 459.2972 
L 638.709677 460.015619 
L 651.483871 460.572243 
L 664.258065 461.14224 
L 677.032258 461.89273 
L 689.806452 462.709788 
L 702.580645 463.449249 
L 715.354839 464.178087 
L 728.129032 464.781543 
L 740.903226 465.395847 
L 753.677419 465.921615 
L 766.451613 466.525197 
L 779.225806 466.906997 
" clip-path="url(#pc4ad3e5c64)" style="fill: none; stroke: #000000; stroke-width: 1.5; stroke-linecap: square"/>
   </g>
   <g id="line2d_7">
    <path d="M 0 459 
L 12.774194 459 
L 25.548387 446.721346 
L 38.322581 442.104346 
L 51.096774 440.41353 
L 63.870968 442.743938 
L 76.645161 446.832502 
L 89.419355 451.203359 
L 102.193548 454.597701 
L 114.967742 456.053811 
L 127.741935 458.317409 
L 140.516129 458.61224 
L 153.290323 457.012874 
L 166.064516 455.622935 
L 178.83871 453.459274 
L 191.612903 450.946476 
L 204.387097 448.641813 
L 217.16129 445.614679 
L 229.935484 444.031139 
L 242.709677 442.648073 
L 255.483871 440.787838 
L 268.258065 439.185999 
L 281.032258 438.217502 
L 293.806452 438.994083 
L 306.580645 440.307402 
L 319.354839 442.555546 
L 332.129032 443.883817 
L 344.903226 444.734842 
L 357.677419 446.259942 
L 370.451613 445.648252 
L 383.225806 444.879853 
L 396 444.036446 
L 408.774194 442.794759 
L 421.548387 442.535169 
L 434.322581 442.983425 
L 447.096774 443.611208 
L 459.870968 444.593924 
L 472.645161 444.990803 
L 485.419355 445.011587 
L 498.193548 444.901946 
L 510.967742 444.759126 
L 523.741935 444.850581 
L 536.516129 443.984346 
L 549.290323 444.613596 
L 562.064516 445.476148 
L 574.83871 447.432073 
L 587.612903 449.366428 
L 600.387097 451.502655 
L 613.16129 453.578794 
L 625.935484 455.463431 
L 638.709677 457.064925 
L 651.483871 458.348155 
L 664.258065 459.220946 
L 677.032258 459.780895 
L 689.806452 460.387683 
L 702.580645 460.946435 
L 715.354839 461.500637 
L 728.129032 461.975277 
L 740.903226 462.458214 
L 753.677419 462.885234 
L 766.451613 463.36291 
L 779.225806 463.699775 
" clip-path="url(#pc4ad3e5c64)" style="fill: none; stroke: #000000; stroke-width: 1.5; stroke-linecap: square"/>
   </g>
   <g id="line2d_8">
    <path d="M 0 459 
L 12.774194 459 
L 25.548387 446.787089 
L 38.322581 442.197092 
L 51.096774 440.509568 
L 63.870968 442.771237 
L 76.645161 446.747937 
L 89.419355 450.994462 
L 102.193548 454.29263 
L 114.967742 455.72401 
L 127.741935 457.91766 
L 140.516129 458.23578 
L 153.290323 456.759021 
L 166.064516 455.47415 
L 178.83871 453.463197 
L 191.612903 451.125908 
L 204.387097 448.980902 
L 217.16129 446.17142 
L 229.935484 444.686331 
L 242.709677 443.387014 
L 255.483871 441.657746 
L 268.258065 440.164748 
L 281.032258 439.244334 
L 293.806452 439.888994 
L 306.580645 441.016351 
L 319.354839 442.976578 
L 332.129032 444.129744 
L 344.903226 444.866477 
L 357.677419 446.193866 
L 370.451613 445.664391 
L 383.225806 444.998356 
L 396 444.266807 
L 408.774194 443.192701 
L 421.548387 442.956642 
L 434.322581 443.323193 
L 447.096774 443.843228 
L 459.870968 444.664037 
L 472.645161 444.994907 
L 485.419355 445.012147 
L 498.193548 444.920883 
L 510.967742 444.801951 
L 523.741935 444.876131 
L 536.516129 444.163592 
L 549.290323 444.673299 
L 562.064516 445.374455 
L 574.83871 446.964456 
L 587.612903 448.540467 
L 600.387097 450.282015 
L 613.16129 451.978564 
L 625.935484 453.524981 
L 638.709677 454.848356 
L 651.483871 455.920958 
L 664.258065 457.018858 
L 677.032258 458.40419 
L 689.806452 459.300226 
L 702.580645 459.762038 
L 715.354839 460.220605 
L 728.129032 460.617844 
L 740.903226 461.021507 
L 753.677419 461.382255 
L 766.451613 461.781648 
L 779.225806 462.073691 
" clip-path="url(#pc4ad3e5c64)" style="fill: none; stroke: #000000; stroke-width: 1.5; stroke-linecap: square"/>
   </g>
   <g id="line2d_9">
    <path d="M 0 459 
L 12.774194 459 
L 25.548387 446.819963 
L 38.322581 442.243582 
L 51.096774 440.557889 
L 63.870968 442.785632 
L 76.645161 446.706923 
L 89.419355 450.891681 
L 102.193548 454.141743 
L 114.967742 455.559985 
L 127.741935 457.718399 
L 140.516129 458.046766 
L 153.290323 456.628819 
L 166.064516 455.394605 
L 178.83871 453.457703 
L 191.612903 451.205881 
L 204.387097 449.139098 
L 217.16129 446.436113 
L 229.935484 445.00071 
L 242.709677 443.744143 
L 255.483871 442.080296 
L 268.258065 440.642379 
L 281.032258 439.748255 
L 293.806452 440.333623 
L 306.580645 441.375518 
L 319.354839 443.201382 
L 332.129032 444.272525 
L 344.903226 444.955352 
L 357.677419 446.189303 
L 370.451613 445.697141 
L 383.225806 445.078189 
L 396 444.398538 
L 408.774194 443.402707 
L 421.548387 443.178439 
L 434.322581 443.507965 
L 447.096774 443.978625 
L 459.870968 444.72465 
L 472.645161 445.024495 
L 485.419355 445.039316 
L 498.193548 444.955745 
L 510.967742 444.847136 
L 523.741935 444.912886 
L 536.516129 444.270108 
L 549.290323 444.725347 
L 562.064516 445.352549 
L 574.83871 446.774988 
L 587.612903 448.185642 
L 600.387097 449.744171 
L 613.16129 451.263239 
L 625.935484 452.64966 
L 638.709677 453.839114 
L 651.483871 454.807397 
L 664.258065 455.797654 
L 677.032258 457.039859 
L 689.806452 458.379221 
L 702.580645 459.207132 
L 715.354839 459.618256 
L 728.129032 459.975929 
L 740.903226 460.338997 
L 753.677419 460.664736 
L 766.451613 461.023632 
L 779.225806 461.289829 
" clip-path="url(#pc4ad3e5c64)" style="fill: none; stroke: #000000; stroke-width: 1.5; stroke-linecap: square"/>
   </g>
  </g>
 </g>
 <defs>
  <clipPath id="pc4ad3e5c64">
   <rect x="0" y="0" width="792" height="612"/>
  </clipPath>
 </defs>
</svg>
