<?xml version="1.0" encoding="utf-8" standalone="no"?>
<!DOCTYPE svg PUBLIC "-//W3C//DTD SVG 1.1//EN"
  "http://www.w3.org/Graphics/SVG/1.1/DTD/svg11.dtd">
<svg xmlns:xlink="http://www.w3.org/1999/xlink" width="792pt" height="612pt" viewBox="0 0 792 612" xmlns="http://www.w3.org/2000/svg" version="1.1">
 <metadata>
  <rdf:RDF xmlns:dc="http://purl.org/dc/elements/1.1/" xmlns:cc="http://creativecommons.org/ns#" xmlns:rdf="http://www.w3.org/1999/02/22-rdf-syntax-ns#">
   <cc:Work>
    <dc:type rdf:resource="http://purl.org/dc/dcmitype/StillImage"/>
    <dc:date>2023-01-23T15:50:53.430517</dc:date>
    <dc:format>image/svg+xml</dc:format>
    <dc:creator>
     <cc:Agent>
      <dc:title>Matplotlib v3.6.2, https://matplotlib.org/</dc:title>
     </cc:Agent>
    </dc:creator>
   </cc:Work>
  </rdf:RDF>
 </metadata>
 <defs>
  <style type="text/css">*{stroke-linejoin: round; stroke-linecap: butt}</style>
 </defs>
 <g id="figure_1">
  <g id="patch_1">
   <path d="M 0 612 
L 792 612 
L 792 0 
L 0 0 
z
" style="fill: #ffffff"/>
  </g>
  <g id="axes_1">
   <g id="line2d_1">
    <path d="M 0 459 
L 12.774194 439.208976 
L 25.548387 438.773198 
L 38.322581 426.868378 
L 51.096774 418.593856 
L 63.870968 417.108945 
L 76.645161 402.866366 
L 89.419355 419.39854 
L 102.193548 419.893853 
L 114.967742 409.790744 
L 127.741935 411.116753 
L 140.516129 419.677143 
L 153.290323 450.175364 
L 166.064516 459.883612 
L 178.83871 466.703017 
L 191.612903 461.692417 
L 204.387097 459.083163 
L 217.16129 464.322462 
L 229.935484 430.594439 
L 242.709677 426.154686 
L 255.483871 423.270554 
L 268.258065 412.721377 
L 281.032258 434.26207 
L 293.806452 451.172997 
L 306.580645 456.318009 
L 319.354839 461.422136 
L 332.129032 452.544861 
L 344.903226 443.225945 
L 357.677419 439.769315 
L 370.451613 438.710947 
L 383.225806 444.970535 
L 396 418.346311 
L 408.774194 459.187118 
L 421.548387 461.723604 
L 434.322581 472.77395 
L 447.096774 473.460049 
L 459.870968 476.360375 
L 472.645161 476.724215 
L 485.419355 475.705463 
L 498.193548 473.626376 
L 510.967742 471.017122 
L 523.741935 471.921525 
L 536.516129 476.401957 
L 549.290323 478.657766 
L 562.064516 477.888504 
L 574.83871 478.470648 
L 587.612903 476.547493 
L 600.387097 477.701386 
L 613.16129 477.4415 
L 625.935484 476.173257 
L 638.709677 478.449857 
L 651.483871 474.218916 
L 664.258065 474.166938 
L 677.032258 471.890338 
L 689.806452 466.890135 
L 702.580645 470.268651 
L 715.354839 465.933755 
L 728.129032 459.083163 
L 740.903226 458.189157 
L 753.677419 461.370159 
L 766.451613 451.453595 
L 779.225806 451.734198 
" clip-path="url(#p0af0f25e83)" style="fill: none; stroke: #000000; stroke-width: 1.5; stroke-linecap: square"/>
   </g>
   <g id="line2d_2">
    <path d="M 0 459 
L 12.774194 459 
L 25.548387 445.801438 
L 38.322581 441.78433 
L 51.096774 433.822607 
L 63.870968 425.95352 
L 76.645161 421.457535 
L 89.419355 412.069328 
L 102.193548 415.745523 
L 114.967742 417.742595 
L 127.741935 413.705775 
L 140.516129 412.356907 
L 153.290323 416.000205 
L 166.064516 433.113637 
L 178.83871 447.458487 
L 191.612903 460.979494 
L 204.387097 461.367183 
L 217.16129 460.250958 
L 229.935484 462.329433 
L 242.709677 449.812886 
L 255.483871 437.982543 
L 268.258065 430.56654 
L 281.032258 421.534133 
L 293.806452 427.798661 
L 306.580645 439.442017 
L 319.354839 447.870506 
L 332.129032 457.050317 
L 344.903226 454.840595 
L 357.677419 449.065229 
L 370.451613 444.448213 
L 383.225806 441.630068 
L 396 443.321104 
L 408.774194 430.748436 
L 421.548387 445.147583 
L 434.322581 456.158903 
L 447.096774 465.44468 
L 459.870968 469.491031 
L 472.645161 472.97232 
L 485.419355 474.89629 
L 498.193548 475.342805 
L 510.967742 474.53991 
L 523.741935 472.801712 
L 536.516129 472.381614 
L 549.290323 474.398899 
L 562.064516 476.538524 
L 574.83871 477.21651 
L 587.612903 477.847004 
L 600.387097 477.198899 
L 613.16129 477.458133 
L 625.935484 477.462413 
L 638.709677 476.826172 
L 651.483871 477.64203 
L 664.258065 475.921769 
L 677.032258 475.037057 
L 689.806452 473.450795 
L 702.580645 470.151529 
L 715.354839 470.195516 
L 728.129032 468.042071 
L 740.903226 463.529107 
L 753.677419 461.090746 
L 766.451613 461.205259 
L 779.225806 458.430331 
" clip-path="url(#p0af0f25e83)" style="fill: none; stroke: #000000; stroke-width: 1.5; stroke-linecap: square"/>
   </g>
   <g id="line2d_3">
    <path d="M 0 459 
L 12.774194 459 
L 25.548387 447.401964 
L 38.322581 443.491043 
L 51.096774 436.992219 
L 63.870968 430.435071 
L 76.645161 425.967833 
L 89.419355 418.521401 
L 102.193548 418.795405 
L 114.967742 419.13196 
L 127.741935 416.303849 
L 140.516129 414.749037 
L 153.290323 416.214334 
L 166.064516 426.240213 
L 178.83871 436.671722 
L 191.612903 450.042629 
L 204.387097 455.050815 
L 217.16129 456.280828 
L 229.935484 459.931686 
L 242.709677 452.636949 
L 255.483871 444.86736 
L 268.258065 438.536411 
L 281.032258 430.949463 
L 293.806452 431.955647 
L 306.580645 437.613985 
L 319.354839 443.129575 
L 332.129032 449.967974 
L 344.903226 450.770444 
L 357.677419 448.587207 
L 370.451613 445.991464 
L 383.225806 443.831872 
L 396 444.122742 
L 408.774194 436.499984 
L 421.548387 443.248287 
L 434.322581 450.242764 
L 447.096774 460.996656 
L 459.870968 464.676305 
L 472.645161 468.132137 
L 485.419355 470.686836 
L 498.193548 472.185426 
L 510.967742 472.627267 
L 523.741935 472.170496 
L 536.516129 472.109634 
L 549.290323 473.389286 
L 562.064516 474.961008 
L 574.83871 475.847514 
L 587.612903 476.64595 
L 600.387097 476.64264 
L 613.16129 476.989826 
L 625.935484 477.143085 
L 638.709677 476.875626 
L 651.483871 477.343227 
L 664.258065 476.429009 
L 677.032258 475.763945 
L 689.806452 474.623839 
L 702.580645 472.348564 
L 715.354839 471.735515 
L 728.129032 470.03038 
L 740.903226 466.809268 
L 753.677419 464.422525 
L 766.451613 463.508651 
L 779.225806 461.426683 
" clip-path="url(#p0af0f25e83)" style="fill: none; stroke: #000000; stroke-width: 1.5; stroke-linecap: square"/>
   </g>
   <g id="line2d_4">
    <path d="M 0 459 
L 12.774194 459 
L 25.548387 448.244546 
L 38.322581 444.525841 
L 51.096774 438.899948 
L 63.870968 433.314087 
L 76.645161 429.31813 
L 89.419355 423.305167 
L 102.193548 422.475968 
L 114.967742 421.955598 
L 127.741935 419.599877 
L 140.516129 418.012276 
L 153.290323 418.314924 
L 166.064516 423.959537 
L 178.83871 430.518053 
L 191.612903 439.367081 
L 204.387097 444.065109 
L 217.16129 446.613631 
L 229.935484 451.331608 
L 242.709677 447.900467 
L 255.483871 444.322989 
L 268.258065 440.876482 
L 281.032258 436.280698 
L 293.806452 435.953385 
L 306.580645 438.410758 
L 319.354839 441.294985 
L 332.129032 445.309102 
L 344.903226 446.470768 
L 357.677419 445.950348 
L 370.451613 444.960043 
L 383.225806 443.959856 
L 396 444.121399 
L 408.774194 439.99384 
L 421.548387 443.104667 
L 434.322581 446.948554 
L 447.096774 455.476587 
L 459.870968 460.328734 
L 472.645161 462.898682 
L 485.419355 465.11817 
L 498.193548 466.824802 
L 510.967742 467.92434 
L 523.741935 468.432064 
L 536.516129 469.005585 
L 549.290323 470.203227 
L 562.064516 471.568838 
L 574.83871 472.587941 
L 587.612903 473.535498 
L 600.387097 474.020859 
L 613.16129 474.616433 
L 625.935484 475.077366 
L 638.709677 475.25912 
L 651.483871 475.784828 
L 664.258065 475.552025 
L 677.032258 475.348562 
L 689.806452 474.816046 
L 702.580645 473.565078 
L 715.354839 473.049264 
L 728.129032 471.922045 
L 740.903226 469.877873 
L 753.677419 468.105336 
L 766.451613 467.038506 
L 779.225806 465.361727 
" clip-path="url(#p0af0f25e83)" style="fill: none; stroke: #000000; stroke-width: 1.5; stroke-linecap: square"/>
   </g>
   <g id="line2d_5">
    <path d="M 0 459 
L 12.774194 459 
L 25.548387 448.671405 
L 38.322581 445.080772 
L 51.096774 439.913037 
L 63.870968 434.869414 
L 76.645161 431.225684 
L 89.419355 426.027391 
L 102.193548 424.926023 
L 114.967742 424.154171 
L 127.741935 422.092336 
L 140.516129 420.60705 
L 153.290323 420.487643 
L 166.064516 424.121307 
L 178.83871 428.53936 
L 191.612903 434.635064 
L 204.387097 438.218987 
L 217.16129 440.480971 
L 229.935484 444.101313 
L 242.709677 442.710992 
L 255.483871 441.039166 
L 268.258065 439.275847 
L 281.032258 436.678386 
L 293.806452 436.446134 
L 306.580645 437.841495 
L 319.354839 439.571516 
L 332.129032 442.044502 
L 344.903226 443.008377 
L 357.677419 443.028185 
L 370.451613 442.733785 
L 383.225806 442.372986 
L 396 442.604299 
L 408.774194 440.451054 
L 421.548387 442.131943 
L 434.322581 444.323415 
L 447.096774 449.203309 
L 459.870968 453.819701 
L 472.645161 458.772701 
L 485.419355 460.458581 
L 498.193548 461.768655 
L 510.967742 462.784545 
L 523.741935 463.487973 
L 536.516129 464.206814 
L 549.290323 465.243953 
L 562.064516 466.382402 
L 574.83871 467.357112 
L 587.612903 468.296954 
L 600.387097 468.993586 
L 613.16129 469.72777 
L 625.935484 470.377284 
L 638.709677 470.864731 
L 651.483871 471.501944 
L 664.258065 471.729961 
L 677.032258 471.93429 
L 689.806452 471.930608 
L 702.580645 471.508674 
L 715.354839 471.404947 
L 728.129032 470.947584 
L 740.903226 469.956373 
L 753.677419 469.018959 
L 766.451613 468.380613 
L 779.225806 467.38824 
" clip-path="url(#p0af0f25e83)" style="fill: none; stroke: #000000; stroke-width: 1.5; stroke-linecap: square"/>
   </g>
   <g id="line2d_6">
    <path d="M 0 459 
L 12.774194 459 
L 25.548387 448.885542 
L 38.322581 445.366108 
L 51.096774 440.430144 
L 63.870968 435.665913 
L 76.645161 432.221111 
L 89.419355 427.442027 
L 102.193548 426.276396 
L 114.967742 425.437517 
L 127.741935 423.545787 
L 140.516129 422.152733 
L 153.290323 421.89373 
L 166.064516 424.669257 
L 178.83871 428.105646 
L 191.612903 432.882518 
L 204.387097 435.776009 
L 217.16129 437.682565 
L 229.935484 440.597514 
L 242.709677 439.84073 
L 255.483871 438.838081 
L 268.258065 437.731272 
L 281.032258 435.999798 
L 293.806452 435.882981 
L 306.580645 436.884561 
L 319.354839 438.128568 
L 332.129032 439.89139 
L 344.903226 440.668758 
L 357.677419 440.823013 
L 370.451613 440.760554 
L 383.225806 440.641066 
L 396 440.889392 
L 408.774194 439.611685 
L 421.548387 440.722474 
L 434.322581 442.175725 
L 447.096774 445.331258 
L 459.870968 448.391818 
L 472.645161 451.718371 
L 485.419355 454.89306 
L 498.193548 457.712312 
L 510.967742 459.346147 
L 523.741935 459.941789 
L 536.516129 460.547953 
L 549.290323 461.343624 
L 562.064516 462.205859 
L 574.83871 462.981107 
L 587.612903 463.741459 
L 600.387097 464.365905 
L 613.16129 465.012054 
L 625.935484 465.610677 
L 638.709677 466.116473 
L 651.483871 466.703841 
L 664.258065 467.059879 
L 677.032258 467.394919 
L 689.806452 467.60584 
L 702.580645 467.572411 
L 715.354839 467.697806 
L 728.129032 467.616101 
L 740.903226 467.222424 
L 753.677419 466.832062 
L 766.451613 466.581902 
L 779.225806 466.120992 
" clip-path="url(#p0af0f25e83)" style="fill: none; stroke: #000000; stroke-width: 1.5; stroke-linecap: square"/>
   </g>
   <g id="line2d_7">
    <path d="M 0 459 
L 12.774194 459 
L 25.548387 448.9927 
L 38.322581 445.510526 
L 51.096774 440.690734 
L 63.870968 436.067389 
L 76.645161 432.726554 
L 89.419355 428.157841 
L 102.193548 426.976687 
L 114.967742 426.118934 
L 127.741935 424.317555 
L 140.516129 422.980344 
L 153.290323 422.670951 
L 166.064516 425.064859 
L 178.83871 428.05188 
L 191.612903 432.214489 
L 204.387097 434.759369 
L 217.16129 436.460068 
L 229.935484 439.011379 
L 242.709677 438.476337 
L 255.483871 437.724333 
L 268.258065 436.875451 
L 281.032258 435.505525 
L 293.806452 435.43761 
L 306.580645 436.268269 
L 319.354839 437.294283 
L 332.129032 438.733793 
L 344.903226 439.401482 
L 357.677419 439.581637 
L 370.451613 439.590259 
L 383.225806 439.550826 
L 396 439.78819 
L 408.774194 438.866879 
L 421.548387 439.734095 
L 434.322581 440.860688 
L 447.096774 443.25522 
L 459.870968 445.592767 
L 472.645161 448.136427 
L 485.419355 450.58162 
L 498.193548 452.780251 
L 510.967742 454.632336 
L 523.741935 456.103796 
L 536.516129 457.598137 
L 549.290323 459.164556 
L 562.064516 459.844353 
L 574.83871 460.465267 
L 587.612903 461.076906 
L 600.387097 461.59593 
L 613.16129 462.129782 
L 625.935484 462.631444 
L 638.709677 463.070146 
L 651.483871 463.562983 
L 664.258065 463.900861 
L 677.032258 464.223065 
L 689.806452 464.461333 
L 702.580645 464.536089 
L 715.354839 464.710896 
L 728.129032 464.747851 
L 740.903226 464.578157 
L 753.677419 464.40444 
L 766.451613 464.315052 
L 779.225806 464.086201 
" clip-path="url(#p0af0f25e83)" style="fill: none; stroke: #000000; stroke-width: 1.5; stroke-linecap: square"/>
   </g>
   <g id="line2d_8">
    <path d="M 0 459 
L 12.774194 459 
L 25.548387 449.046291 
L 38.322581 445.583144 
L 51.096774 440.821459 
L 63.870968 436.268739 
L 76.645161 432.980844 
L 89.419355 428.517209 
L 102.193548 427.332182 
L 114.967742 426.468514 
L 127.741935 424.713448 
L 140.516129 423.406355 
L 153.290323 423.076546 
L 166.064516 425.292324 
L 178.83871 428.066941 
L 191.612903 431.937098 
L 204.387097 434.310789 
L 217.16129 435.905489 
L 229.935484 438.276871 
L 242.709677 437.831559 
L 255.483871 437.184847 
L 268.258065 436.44682 
L 281.032258 435.237349 
L 293.806452 435.189699 
L 306.580645 435.940895 
L 319.354839 436.864915 
L 332.129032 438.153341 
L 344.903226 438.764135 
L 357.677419 438.947799 
L 370.451613 438.980628 
L 383.225806 438.970156 
L 396 439.196684 
L 408.774194 438.427866 
L 421.548387 439.184437 
L 434.322581 440.161783 
L 447.096774 442.213076 
L 459.870968 444.218303 
L 472.645161 446.397987 
L 485.419355 448.49682 
L 498.193548 450.391427 
L 510.967742 451.99915 
L 523.741935 453.29229 
L 536.516129 454.602914 
L 549.290323 456.240503 
L 562.064516 457.99472 
L 574.83871 459.201708 
L 587.612903 459.730702 
L 600.387097 460.184802 
L 613.16129 460.650243 
L 625.935484 461.089472 
L 638.709677 461.478058 
L 651.483871 461.908826 
L 664.258065 462.216774 
L 677.032258 462.511519 
L 689.806452 462.739674 
L 702.580645 462.839291 
L 715.354839 463.015277 
L 728.129032 463.083528 
L 740.903226 462.991141 
L 753.677419 462.893923 
L 766.451613 462.859575 
L 779.225806 462.717535 
" clip-path="url(#p0af0f25e83)" style="fill: none; stroke: #000000; stroke-width: 1.5; stroke-linecap: square"/>
   </g>
   <g id="line2d_9">
    <path d="M 0 459 
L 12.774194 459 
L 25.548387 449.073087 
L 38.322581 445.619552 
L 51.096774 440.886919 
L 63.870968 436.369543 
L 76.645161 433.108334 
L 89.419355 428.697173 
L 102.193548 427.511144 
L 114.967742 426.645372 
L 127.741935 424.913719 
L 140.516129 423.622194 
L 153.290323 423.283345 
L 166.064516 425.413288 
L 178.83871 428.084962 
L 191.612903 431.81292 
L 204.387097 434.102257 
L 217.16129 435.643685 
L 229.935484 437.92615 
L 242.709677 437.520861 
L 255.483871 436.922061 
L 268.258065 436.235045 
L 281.032258 435.100628 
L 293.806452 435.061953 
L 306.580645 435.774921 
L 319.354839 436.649831 
L 332.129032 437.865693 
L 344.903226 438.447874 
L 357.677419 438.63121 
L 370.451613 438.673498 
L 383.225806 438.674847 
L 396 438.894745 
L 408.774194 438.195457 
L 421.548387 438.89964 
L 434.322581 439.806328 
L 447.096774 441.696593 
L 459.870968 443.544766 
L 472.645161 445.551772 
L 485.419355 447.484954 
L 498.193548 449.232379 
L 510.967742 450.719475 
L 523.741935 451.92164 
L 536.516129 453.138439 
L 549.290323 454.647893 
L 562.064516 456.260903 
L 574.83871 457.744327 
L 587.612903 459.068581 
L 600.387097 459.488665 
L 613.16129 459.918379 
L 625.935484 460.324435 
L 638.709677 460.68528 
L 651.483871 461.082838 
L 664.258065 461.371906 
L 677.032258 461.64887 
L 689.806452 461.867015 
L 702.580645 461.972334 
L 715.354839 462.143615 
L 728.129032 462.220689 
L 740.903226 462.157825 
L 753.677419 462.09013 
L 766.451613 462.076113 
L 779.225806 461.968763 
" clip-path="url(#p0af0f25e83)" style="fill: none; stroke: #000000; stroke-width: 1.5; stroke-linecap: square"/>
   </g>
  </g>
 </g>
 <defs>
  <clipPath id="p0af0f25e83">
   <rect x="0" y="0" width="792" height="612"/>
  </clipPath>
 </defs>
</svg>
