<?xml version="1.0" encoding="utf-8" standalone="no"?>
<!DOCTYPE svg PUBLIC "-//W3C//DTD SVG 1.1//EN"
  "http://www.w3.org/Graphics/SVG/1.1/DTD/svg11.dtd">
<svg xmlns:xlink="http://www.w3.org/1999/xlink" width="792pt" height="612pt" viewBox="0 0 792 612" xmlns="http://www.w3.org/2000/svg" version="1.1">
 <metadata>
  <rdf:RDF xmlns:dc="http://purl.org/dc/elements/1.1/" xmlns:cc="http://creativecommons.org/ns#" xmlns:rdf="http://www.w3.org/1999/02/22-rdf-syntax-ns#">
   <cc:Work>
    <dc:type rdf:resource="http://purl.org/dc/dcmitype/StillImage"/>
    <dc:date>2023-01-30T17:15:41.402398</dc:date>
    <dc:format>image/svg+xml</dc:format>
    <dc:creator>
     <cc:Agent>
      <dc:title>Matplotlib v3.6.2, https://matplotlib.org/</dc:title>
     </cc:Agent>
    </dc:creator>
   </cc:Work>
  </rdf:RDF>
 </metadata>
 <defs>
  <style type="text/css">*{stroke-linejoin: round; stroke-linecap: butt}</style>
 </defs>
 <g id="figure_1">
  <g id="patch_1">
   <path d="M 0 612 
L 792 612 
L 792 0 
L 0 0 
z
" style="fill: #ffffff"/>
  </g>
  <g id="axes_1">
   <g id="line2d_1">
    <path d="M 0 306 
L 46.588235 311.361526 
L 93.176471 304.170107 
L 139.764706 306.766009 
L 186.352941 302.148872 
L 232.941176 305.659551 
L 279.529412 307.042622 
L 326.117647 298.532878 
L 372.705882 309.893678 
L 419.294118 306.191503 
L 465.882353 303.297755 
L 512.470588 308.808627 
L 559.058824 304.978656 
L 605.647059 307.872447 
L 652.235294 313.594713 
L 698.823529 310.276615 
L 745.411765 302.361621 
" clip-path="url(#pf8de215236)" style="fill: none; stroke: #000000; stroke-width: 1.5; stroke-linecap: square"/>
   </g>
   <g id="line2d_2">
    <path d="M 0 306 
L 46.588235 306 
L 93.176471 309.574554 
L 139.764706 306.486356 
L 186.352941 306.635504 
L 232.941176 304.319735 
L 279.529412 305.000272 
L 326.117647 306.029488 
L 372.705882 302.265925 
L 419.294118 306.087449 
L 465.882353 306.129337 
L 512.470588 304.711808 
L 559.058824 306.764257 
L 605.647059 305.877004 
L 652.235294 306.879074 
L 698.823529 310.250252 
L 745.411765 310.286459 
" clip-path="url(#pf8de215236)" style="fill: none; stroke: #000000; stroke-width: 1.5; stroke-linecap: square"/>
   </g>
   <g id="line2d_3">
    <path d="M 0 306 
L 46.588235 306 
L 93.176471 309.14092 
L 139.764706 306.888783 
L 186.352941 306.840837 
L 232.941176 305.171422 
L 279.529412 305.334815 
L 326.117647 305.88352 
L 372.705882 303.586623 
L 419.294118 305.519361 
L 465.882353 305.722577 
L 512.470588 304.996297 
L 559.058824 306.130648 
L 605.647059 305.789467 
L 652.235294 306.404368 
L 698.823529 308.522472 
L 745.411765 309.038286 
" clip-path="url(#pf8de215236)" style="fill: none; stroke: #000000; stroke-width: 1.5; stroke-linecap: square"/>
   </g>
   <g id="line2d_4">
    <path d="M 0 306 
L 46.588235 306 
L 93.176471 308.912664 
L 139.764706 307.051421 
L 186.352941 306.960601 
L 232.941176 305.63959 
L 279.529412 305.644503 
L 326.117647 305.961063 
L 372.705882 304.384962 
L 419.294118 305.494746 
L 465.882353 305.629408 
L 512.470588 305.193647 
L 559.058824 305.850982 
L 605.647059 305.695889 
L 652.235294 306.075768 
L 698.823529 307.368372 
L 745.411765 307.861963 
" clip-path="url(#pf8de215236)" style="fill: none; stroke: #000000; stroke-width: 1.5; stroke-linecap: square"/>
   </g>
   <g id="line2d_5">
    <path d="M 0 306 
L 46.588235 306 
L 93.176471 308.797034 
L 139.764706 307.119372 
L 186.352941 307.019241 
L 232.941176 305.86947 
L 279.529412 305.826494 
L 326.117647 306.048451 
L 372.705882 304.800686 
L 419.294118 305.581322 
L 465.882353 305.668704 
L 512.470588 305.348441 
L 559.058824 305.792697 
L 605.647059 305.692721 
L 652.235294 305.950172 
L 698.823529 306.822619 
L 745.411765 307.204869 
" clip-path="url(#pf8de215236)" style="fill: none; stroke: #000000; stroke-width: 1.5; stroke-linecap: square"/>
   </g>
   <g id="line2d_6">
    <path d="M 0 306 
L 46.588235 306 
L 93.176471 308.739029 
L 139.764706 307.149656 
L 186.352941 307.047425 
L 232.941176 305.981004 
L 279.529412 305.921464 
L 326.117647 306.103176 
L 372.705882 305.007153 
L 419.294118 305.648833 
L 465.882353 305.714273 
L 512.470588 305.443993 
L 559.058824 305.795877 
L 605.647059 305.715415 
L 652.235294 305.916521 
L 698.823529 306.597879 
L 745.411765 306.909833 
" clip-path="url(#pf8de215236)" style="fill: none; stroke: #000000; stroke-width: 1.5; stroke-linecap: square"/>
   </g>
   <g id="line2d_7">
    <path d="M 0 306 
L 46.588235 306 
L 93.176471 308.710002 
L 139.764706 307.163843 
L 186.352941 307.06113 
L 232.941176 306.035624 
L 279.529412 305.969502 
L 326.117647 306.132945 
L 372.705882 305.109177 
L 419.294118 305.688021 
L 465.882353 305.743417 
L 512.470588 305.496225 
L 559.058824 305.806322 
L 605.647059 305.734057 
L 652.235294 305.909225 
L 698.823529 306.502995 
L 745.411765 306.779091 
" clip-path="url(#pf8de215236)" style="fill: none; stroke: #000000; stroke-width: 1.5; stroke-linecap: square"/>
   </g>
   <g id="line2d_8">
    <path d="M 0 306 
L 46.588235 306 
L 93.176471 308.695486 
L 139.764706 307.170693 
L 186.352941 307.067873 
L 232.941176 306.06261 
L 279.529412 305.993602 
L 326.117647 306.148375 
L 372.705882 305.159775 
L 419.294118 305.708859 
L 465.882353 305.75951 
L 512.470588 305.523393 
L 559.058824 305.813769 
L 605.647059 305.745273 
L 652.235294 305.908142 
L 698.823529 306.460447 
L 745.411765 306.718836 
" clip-path="url(#pf8de215236)" style="fill: none; stroke: #000000; stroke-width: 1.5; stroke-linecap: square"/>
   </g>
   <g id="line2d_9">
    <path d="M 0 306 
L 46.588235 306 
L 93.176471 308.688227 
L 139.764706 307.174058 
L 186.352941 307.071216 
L 232.941176 306.076018 
L 279.529412 306.005664 
L 326.117647 306.156219 
L 372.705882 305.184956 
L 419.294118 305.719574 
L 465.882353 305.767925 
L 512.470588 305.537228 
L 559.058824 305.818044 
L 605.647059 305.751357 
L 652.235294 305.908255 
L 698.823529 306.440445 
L 745.411765 306.690083 
" clip-path="url(#pf8de215236)" style="fill: none; stroke: #000000; stroke-width: 1.5; stroke-linecap: square"/>
   </g>
  </g>
 </g>
 <defs>
  <clipPath id="pf8de215236">
   <rect x="0" y="0" width="792" height="612"/>
  </clipPath>
 </defs>
</svg>
