<?xml version="1.0" encoding="utf-8" standalone="no"?>
<!DOCTYPE svg PUBLIC "-//W3C//DTD SVG 1.1//EN"
  "http://www.w3.org/Graphics/SVG/1.1/DTD/svg11.dtd">
<svg xmlns:xlink="http://www.w3.org/1999/xlink" width="792pt" height="612pt" viewBox="0 0 792 612" xmlns="http://www.w3.org/2000/svg" version="1.1">
 <metadata>
  <rdf:RDF xmlns:dc="http://purl.org/dc/elements/1.1/" xmlns:cc="http://creativecommons.org/ns#" xmlns:rdf="http://www.w3.org/1999/02/22-rdf-syntax-ns#">
   <cc:Work>
    <dc:type rdf:resource="http://purl.org/dc/dcmitype/StillImage"/>
    <dc:date>2023-01-02T15:38:03.708503</dc:date>
    <dc:format>image/svg+xml</dc:format>
    <dc:creator>
     <cc:Agent>
      <dc:title>Matplotlib v3.6.2, https://matplotlib.org/</dc:title>
     </cc:Agent>
    </dc:creator>
   </cc:Work>
  </rdf:RDF>
 </metadata>
 <defs>
  <style type="text/css">*{stroke-linejoin: round; stroke-linecap: butt}</style>
 </defs>
 <g id="figure_1">
  <g id="patch_1">
   <path d="M 0 612 
L 792 612 
L 792 0 
L 0 0 
z
" style="fill: #ffffff"/>
  </g>
  <g id="axes_1">
   <g id="line2d_1">
    <path d="M 0 459 
L 44 460.775668 
L 88 461.562611 
L 132 461.895549 
L 176 465.396439 
L 220 462.662315 
L 264 463.197033 
L 308 464.024332 
L 352 465.345994 
L 396 467.979228 
L 440 467.928783 
L 484 466.667656 
L 528 465.527596 
L 572 467.24273 
L 616 466.950148 
L 660 466.909792 
L 704 468.58457 
L 748 468.947774 
" clip-path="url(#pd2a602e800)" style="fill: none; stroke: #000000; stroke-width: 1.5; stroke-linecap: square"/>
   </g>
   <g id="line2d_2">
    <path d="M 0 459 
L 44 459 
L 88 460.183778 
L 132 460.971683 
L 176 461.464411 
L 220 463.493845 
L 264 463.07148 
L 308 463.134751 
L 352 463.581286 
L 396 464.476083 
L 440 466.24178 
L 484 467.097765 
L 528 466.892067 
L 572 466.210089 
L 616 466.735391 
L 660 466.850129 
L 704 466.885618 
L 748 467.741444 
" clip-path="url(#pd2a602e800)" style="fill: none; stroke: #000000; stroke-width: 1.5; stroke-linecap: square"/>
   </g>
   <g id="line2d_3">
    <path d="M 0 459 
L 44 459 
L 88 460.040162 
L 132 460.729956 
L 176 461.185148 
L 220 462.683476 
L 264 462.676393 
L 308 462.84367 
L 352 463.212532 
L 396 463.866301 
L 440 465.109809 
L 484 465.954125 
L 528 466.16643 
L 572 465.97723 
L 616 466.350805 
L 660 466.527324 
L 704 466.639785 
L 748 467.220408 
" clip-path="url(#pd2a602e800)" style="fill: none; stroke: #000000; stroke-width: 1.5; stroke-linecap: square"/>
   </g>
   <g id="line2d_4">
    <path d="M 0 459 
L 44 459 
L 88 459.964567 
L 132 460.591742 
L 176 461.006623 
L 220 462.211753 
L 264 462.322645 
L 308 462.520623 
L 352 462.839617 
L 396 463.344537 
L 440 464.240279 
L 484 464.929602 
L 528 465.245637 
L 572 465.295767 
L 616 465.63557 
L 660 465.861518 
L 704 466.039421 
L 748 466.466826 
" clip-path="url(#pd2a602e800)" style="fill: none; stroke: #000000; stroke-width: 1.5; stroke-linecap: square"/>
   </g>
   <g id="line2d_5">
    <path d="M 0 459 
L 44 459 
L 88 459.926272 
L 132 460.5196 
L 176 460.909497 
L 220 461.968709 
L 264 462.11071 
L 308 462.308975 
L 352 462.59371 
L 396 463.015556 
L 440 463.726389 
L 484 464.294024 
L 528 464.59877 
L 572 464.712842 
L 616 465.011648 
L 660 465.232838 
L 704 465.418412 
L 748 465.759351 
" clip-path="url(#pd2a602e800)" style="fill: none; stroke: #000000; stroke-width: 1.5; stroke-linecap: square"/>
   </g>
   <g id="line2d_6">
    <path d="M 0 459 
L 44 459 
L 88 459.907062 
L 132 460.482984 
L 176 460.859394 
L 220 461.847076 
L 264 461.998077 
L 308 462.192398 
L 352 462.457573 
L 396 462.836855 
L 440 463.456969 
L 484 463.957113 
L 528 464.240584 
L 572 464.367301 
L 616 464.635382 
L 660 464.840752 
L 704 465.016193 
L 748 465.306461 
" clip-path="url(#pd2a602e800)" style="fill: none; stroke: #000000; stroke-width: 1.5; stroke-linecap: square"/>
   </g>
   <g id="line2d_7">
    <path d="M 0 459 
L 44 459 
L 88 459.897449 
L 132 460.464569 
L 176 460.83402 
L 220 461.786456 
L 264 461.94045 
L 308 462.131834 
L 352 462.386715 
L 396 462.744723 
L 440 463.32065 
L 484 463.786397 
L 528 464.056126 
L 572 464.184603 
L 616 464.43511 
L 660 464.629379 
L 704 464.796213 
L 748 465.059735 
" clip-path="url(#pd2a602e800)" style="fill: none; stroke: #000000; stroke-width: 1.5; stroke-linecap: square"/>
   </g>
   <g id="line2d_8">
    <path d="M 0 459 
L 44 459 
L 88 459.892642 
L 132 460.455338 
L 176 460.821261 
L 220 461.756223 
L 264 461.911357 
L 308 462.101046 
L 352 462.350668 
L 396 462.698081 
L 440 463.252304 
L 484 463.700832 
L 528 463.963059 
L 572 464.091382 
L 616 464.332666 
L 660 464.520703 
L 704 464.682454 
L 748 464.932413 
" clip-path="url(#pd2a602e800)" style="fill: none; stroke: #000000; stroke-width: 1.5; stroke-linecap: square"/>
   </g>
   <g id="line2d_9">
    <path d="M 0 459 
L 44 459 
L 88 459.890238 
L 132 460.450717 
L 176 460.814864 
L 220 461.74113 
L 264 461.896747 
L 308 462.085533 
L 352 462.332501 
L 396 462.674632 
L 440 463.218111 
L 484 463.658043 
L 528 463.916381 
L 572 464.044388 
L 616 464.280969 
L 660 464.465738 
L 704 464.624774 
L 748 464.86793 
" clip-path="url(#pd2a602e800)" style="fill: none; stroke: #000000; stroke-width: 1.5; stroke-linecap: square"/>
   </g>
  </g>
 </g>
 <defs>
  <clipPath id="pd2a602e800">
   <rect x="0" y="0" width="792" height="612"/>
  </clipPath>
 </defs>
</svg>
