<?xml version="1.0" encoding="utf-8" standalone="no"?>
<!DOCTYPE svg PUBLIC "-//W3C//DTD SVG 1.1//EN"
  "http://www.w3.org/Graphics/SVG/1.1/DTD/svg11.dtd">
<svg xmlns:xlink="http://www.w3.org/1999/xlink" width="792pt" height="612pt" viewBox="0 0 792 612" xmlns="http://www.w3.org/2000/svg" version="1.1">
 <metadata>
  <rdf:RDF xmlns:dc="http://purl.org/dc/elements/1.1/" xmlns:cc="http://creativecommons.org/ns#" xmlns:rdf="http://www.w3.org/1999/02/22-rdf-syntax-ns#">
   <cc:Work>
    <dc:type rdf:resource="http://purl.org/dc/dcmitype/StillImage"/>
    <dc:date>2023-01-09T02:27:50.033396</dc:date>
    <dc:format>image/svg+xml</dc:format>
    <dc:creator>
     <cc:Agent>
      <dc:title>Matplotlib v3.6.2, https://matplotlib.org/</dc:title>
     </cc:Agent>
    </dc:creator>
   </cc:Work>
  </rdf:RDF>
 </metadata>
 <defs>
  <style type="text/css">*{stroke-linejoin: round; stroke-linecap: butt}</style>
 </defs>
 <g id="figure_1">
  <g id="patch_1">
   <path d="M 0 612 
L 792 612 
L 792 0 
L 0 0 
z
" style="fill: #ffffff"/>
  </g>
  <g id="axes_1">
   <g id="line2d_1">
    <path d="M 0 459 
L 46.588235 459.547831 
L 93.176471 460.39542 
L 139.764706 461.749493 
L 186.352941 464.447304 
L 232.941176 464.395622 
L 279.529412 463.103567 
L 326.117647 461.935549 
L 372.705882 463.692744 
L 419.294118 463.392987 
L 465.882353 463.351642 
L 512.470588 465.067491 
L 559.058824 465.439603 
L 605.647059 463.568707 
L 652.235294 463.403324 
L 698.823529 463.909809 
L 745.411765 460.281719 
" clip-path="url(#pc9c83c1c1d)" style="fill: none; stroke: #000000; stroke-width: 1.5; stroke-linecap: square"/>
   </g>
   <g id="line2d_2">
    <path d="M 0 459 
L 46.588235 459 
L 93.176471 459.365221 
L 139.764706 459.953906 
L 186.352941 460.911552 
L 232.941176 462.736457 
L 279.529412 463.579207 
L 326.117647 463.339515 
L 372.705882 462.634779 
L 419.294118 463.172963 
L 465.882353 463.290515 
L 512.470588 463.326875 
L 559.058824 464.203689 
L 605.647059 464.823591 
L 652.235294 464.194528 
L 698.823529 463.799514 
L 745.411765 463.858533 
" clip-path="url(#pc9c83c1c1d)" style="fill: none; stroke: #000000; stroke-width: 1.5; stroke-linecap: square"/>
   </g>
   <g id="line2d_3">
    <path d="M 0 459 
L 46.588235 459 
L 93.176471 459.320912 
L 139.764706 459.807752 
L 186.352941 460.566049 
L 232.941176 461.946954 
L 279.529412 462.766609 
L 326.117647 462.874871 
L 372.705882 462.581409 
L 419.294118 462.921962 
L 465.882353 463.064372 
L 512.470588 463.150413 
L 559.058824 463.720825 
L 605.647059 464.229867 
L 652.235294 464.034693 
L 698.823529 463.848742 
L 745.411765 463.866698 
" clip-path="url(#pc9c83c1c1d)" style="fill: none; stroke: #000000; stroke-width: 1.5; stroke-linecap: square"/>
   </g>
   <g id="line2d_4">
    <path d="M 0 459 
L 46.588235 459 
L 93.176471 459.297589 
L 139.764706 459.728448 
L 186.352941 460.371559 
L 232.941176 461.490468 
L 279.529412 462.205485 
L 326.117647 462.408827 
L 372.705882 462.308427 
L 419.294118 462.587303 
L 465.882353 462.743017 
L 512.470588 462.856759 
L 559.058824 463.258743 
L 605.647059 463.646481 
L 652.235294 463.632907 
L 698.823529 463.593447 
L 745.411765 463.647137 
" clip-path="url(#pc9c83c1c1d)" style="fill: none; stroke: #000000; stroke-width: 1.5; stroke-linecap: square"/>
   </g>
   <g id="line2d_5">
    <path d="M 0 459 
L 46.588235 459 
L 93.176471 459.285775 
L 139.764706 459.688126 
L 186.352941 460.272247 
L 232.941176 461.257834 
L 279.529412 461.900227 
L 326.117647 462.119849 
L 372.705882 462.089257 
L 419.294118 462.335025 
L 465.882353 462.486533 
L 512.470588 462.603387 
L 559.058824 462.919748 
L 605.647059 463.229219 
L 652.235294 463.269316 
L 698.823529 463.284607 
L 745.411765 463.353793 
" clip-path="url(#pc9c83c1c1d)" style="fill: none; stroke: #000000; stroke-width: 1.5; stroke-linecap: square"/>
   </g>
   <g id="line2d_6">
    <path d="M 0 459 
L 46.588235 459 
L 93.176471 459.279848 
L 139.764706 459.667926 
L 186.352941 460.222606 
L 232.941176 461.142292 
L 279.529412 461.744886 
L 326.117647 461.965095 
L 372.705882 461.960818 
L 419.294118 462.188239 
L 465.882353 462.333519 
L 512.470588 462.447389 
L 559.058824 462.721402 
L 605.647059 462.989031 
L 652.235294 463.043075 
L 698.823529 463.075037 
L 745.411765 463.14582 
" clip-path="url(#pc9c83c1c1d)" style="fill: none; stroke: #000000; stroke-width: 1.5; stroke-linecap: square"/>
   </g>
   <g id="line2d_7">
    <path d="M 0 459 
L 46.588235 459 
L 93.176471 459.276882 
L 139.764706 459.657833 
L 186.352941 460.197859 
L 232.941176 461.084959 
L 279.529412 461.667042 
L 326.117647 461.885833 
L 372.705882 461.892529 
L 419.294118 462.110315 
L 465.882353 462.251442 
L 512.470588 462.36264 
L 559.058824 462.615854 
L 605.647059 462.862401 
L 652.235294 462.920258 
L 698.823529 462.957572 
L 745.411765 463.027237 
" clip-path="url(#pc9c83c1c1d)" style="fill: none; stroke: #000000; stroke-width: 1.5; stroke-linecap: square"/>
   </g>
   <g id="line2d_8">
    <path d="M 0 459 
L 46.588235 459 
L 93.176471 459.275399 
L 139.764706 459.65279 
L 186.352941 460.185512 
L 232.941176 461.056432 
L 279.529412 461.628141 
L 326.117647 461.845826 
L 372.705882 461.857471 
L 419.294118 462.070335 
L 465.882353 462.209139 
L 512.470588 462.318718 
L 559.058824 462.561672 
L 605.647059 462.797721 
L 652.235294 462.856752 
L 698.823529 462.896017 
L 745.411765 462.964655 
" clip-path="url(#pc9c83c1c1d)" style="fill: none; stroke: #000000; stroke-width: 1.5; stroke-linecap: square"/>
   </g>
   <g id="line2d_9">
    <path d="M 0 459 
L 46.588235 459 
L 93.176471 459.274657 
L 139.764706 459.65027 
L 186.352941 460.179346 
L 232.941176 461.042207 
L 279.529412 461.608704 
L 326.117647 461.82574 
L 372.705882 461.839728 
L 419.294118 462.050107 
L 465.882353 462.187691 
L 512.470588 462.296393 
L 559.058824 462.534257 
L 605.647059 462.765079 
L 652.235294 462.824523 
L 698.823529 462.864589 
L 745.411765 462.932602 
" clip-path="url(#pc9c83c1c1d)" style="fill: none; stroke: #000000; stroke-width: 1.5; stroke-linecap: square"/>
   </g>
  </g>
 </g>
 <defs>
  <clipPath id="pc9c83c1c1d">
   <rect x="0" y="0" width="792" height="612"/>
  </clipPath>
 </defs>
</svg>
