<?xml version="1.0" encoding="utf-8" standalone="no"?>
<!DOCTYPE svg PUBLIC "-//W3C//DTD SVG 1.1//EN"
  "http://www.w3.org/Graphics/SVG/1.1/DTD/svg11.dtd">
<svg xmlns:xlink="http://www.w3.org/1999/xlink" width="792pt" height="612pt" viewBox="0 0 792 612" xmlns="http://www.w3.org/2000/svg" version="1.1">
 <metadata>
  <rdf:RDF xmlns:dc="http://purl.org/dc/elements/1.1/" xmlns:cc="http://creativecommons.org/ns#" xmlns:rdf="http://www.w3.org/1999/02/22-rdf-syntax-ns#">
   <cc:Work>
    <dc:type rdf:resource="http://purl.org/dc/dcmitype/StillImage"/>
    <dc:date>2022-12-19T20:27:10.621006</dc:date>
    <dc:format>image/svg+xml</dc:format>
    <dc:creator>
     <cc:Agent>
      <dc:title>Matplotlib v3.6.2, https://matplotlib.org/</dc:title>
     </cc:Agent>
    </dc:creator>
   </cc:Work>
  </rdf:RDF>
 </metadata>
 <defs>
  <style type="text/css">*{stroke-linejoin: round; stroke-linecap: butt}</style>
 </defs>
 <g id="figure_1">
  <g id="patch_1">
   <path d="M 0 612 
L 792 612 
L 792 0 
L 0 0 
z
" style="fill: #ffffff"/>
  </g>
  <g id="axes_1">
   <g id="line2d_1">
    <path d="M 0 459 
L 41.684211 429.026457 
L 83.368421 425.527551 
L 125.052632 427.177516 
L 166.736842 419.825646 
L 208.421053 416.798258 
L 250.105263 415.023019 
L 291.789474 412.625278 
L 333.473684 410.492449 
L 375.157895 409.049883 
L 416.842105 410.820441 
L 458.526316 412.625278 
L 500.210526 409.508774 
L 541.894737 410.000554 
L 583.578947 415.154473 
L 625.263158 420.945347 
L 666.947368 423.515775 
L 708.631579 424.603947 
L 750.315789 436.067452 
" clip-path="url(#p360531522c)" style="fill: none; stroke: #000000; stroke-width: 1.5; stroke-linecap: square"/>
   </g>
   <g id="line2d_2">
    <path d="M 0 459 
L 41.684211 459 
L 83.368421 439.001829 
L 125.052632 431.296511 
L 166.736842 429.099114 
L 208.421053 424.309261 
L 250.105263 420.491556 
L 291.789474 417.734282 
L 333.473684 415.168392 
L 375.157895 412.734709 
L 416.842105 410.852471 
L 458.526316 410.807706 
L 500.210526 411.687865 
L 541.894737 410.57785 
L 583.578947 410.275873 
L 625.263158 412.71411 
L 666.947368 416.842623 
L 708.631579 420.202702 
L 750.315789 422.433043 
" clip-path="url(#p360531522c)" style="fill: none; stroke: #000000; stroke-width: 1.5; stroke-linecap: square"/>
   </g>
   <g id="line2d_3">
    <path d="M 0 459 
L 41.684211 459 
L 83.368421 441.425479 
L 125.052632 434.214877 
L 166.736842 431.465041 
L 208.421053 427.31902 
L 250.105263 423.793068 
L 291.789474 420.97219 
L 333.473684 418.361465 
L 375.157895 415.947337 
L 416.842105 413.859734 
L 458.526316 412.948999 
L 500.210526 412.852673 
L 541.894737 411.861794 
L 583.578947 411.312191 
L 625.263158 412.443144 
L 666.947368 414.940067 
L 708.631579 417.40839 
L 750.315789 419.50888 
" clip-path="url(#p360531522c)" style="fill: none; stroke: #000000; stroke-width: 1.5; stroke-linecap: square"/>
   </g>
   <g id="line2d_4">
    <path d="M 0 459 
L 41.684211 459 
L 83.368421 442.701615 
L 125.052632 435.953281 
L 166.736842 433.158628 
L 208.421053 429.493018 
L 250.105263 426.363611 
L 291.789474 423.791881 
L 333.473684 421.419056 
L 375.157895 419.213985 
L 416.842105 417.246194 
L 458.526316 416.043991 
L 500.210526 415.421988 
L 541.894737 414.369542 
L 583.578947 413.606411 
L 625.263158 413.872417 
L 666.947368 415.071338 
L 708.631579 416.48747 
L 750.315789 417.836821 
" clip-path="url(#p360531522c)" style="fill: none; stroke: #000000; stroke-width: 1.5; stroke-linecap: square"/>
   </g>
   <g id="line2d_5">
    <path d="M 0 459 
L 41.684211 459 
L 83.368421 443.34817 
L 125.052632 436.878208 
L 166.736842 434.12697 
L 208.421053 430.745505 
L 250.105263 427.884992 
L 291.789474 425.533276 
L 333.473684 423.386404 
L 375.157895 421.405941 
L 416.842105 419.632666 
L 458.526316 418.440506 
L 500.210526 417.693125 
L 541.894737 416.686443 
L 583.578947 415.89577 
L 625.263158 415.811174 
L 666.947368 416.378816 
L 708.631579 417.146404 
L 750.315789 417.929125 
" clip-path="url(#p360531522c)" style="fill: none; stroke: #000000; stroke-width: 1.5; stroke-linecap: square"/>
   </g>
   <g id="line2d_6">
    <path d="M 0 459 
L 41.684211 459 
L 83.368421 443.672534 
L 125.052632 437.352021 
L 166.736842 434.638295 
L 208.421053 431.408271 
L 250.105263 428.697015 
L 291.789474 426.476479 
L 333.473684 424.4672 
L 375.157895 422.627912 
L 416.842105 420.986667 
L 458.526316 419.847583 
L 500.210526 419.09129 
L 541.894737 418.146114 
L 583.578947 417.385512 
L 625.263158 417.187489 
L 666.947368 417.505919 
L 708.631579 417.994281 
L 750.315789 418.511205 
" clip-path="url(#p360531522c)" style="fill: none; stroke: #000000; stroke-width: 1.5; stroke-linecap: square"/>
   </g>
   <g id="line2d_7">
    <path d="M 0 459 
L 41.684211 459 
L 83.368421 443.834855 
L 125.052632 437.5914 
L 166.736842 434.900187 
L 208.421053 431.747869 
L 250.105263 429.114298 
L 291.789474 426.963789 
L 333.473684 425.028396 
L 375.157895 423.265622 
L 416.842105 421.697645 
L 458.526316 420.596152 
L 500.210526 419.848893 
L 541.894737 418.944323 
L 583.578947 418.210445 
L 625.263158 417.974259 
L 666.947368 418.191508 
L 708.631579 418.561528 
L 750.315789 418.962129 
" clip-path="url(#p360531522c)" style="fill: none; stroke: #000000; stroke-width: 1.5; stroke-linecap: square"/>
   </g>
   <g id="line2d_8">
    <path d="M 0 459 
L 41.684211 459 
L 83.368421 443.916033 
L 125.052632 437.71166 
L 166.736842 435.032613 
L 208.421053 431.91959 
L 250.105263 429.325528 
L 291.789474 427.211008 
L 333.473684 425.313649 
L 375.157895 423.590383 
L 416.842105 422.06057 
L 458.526316 420.980358 
L 500.210526 420.240778 
L 541.894737 419.358762 
L 583.578947 418.640973 
L 625.263158 418.390346 
L 666.947368 418.563252 
L 708.631579 418.880225 
L 750.315789 419.227983 
" clip-path="url(#p360531522c)" style="fill: none; stroke: #000000; stroke-width: 1.5; stroke-linecap: square"/>
   </g>
   <g id="line2d_9">
    <path d="M 0 459 
L 41.684211 459 
L 83.368421 443.956625 
L 125.052632 437.771926 
L 166.736842 435.099185 
L 208.421053 432.005913 
L 250.105263 429.431761 
L 291.789474 427.335459 
L 333.473684 425.457366 
L 375.157895 423.754133 
L 416.842105 422.243745 
L 458.526316 421.174751 
L 500.210526 420.43976 
L 541.894737 419.569545 
L 583.578947 418.860438 
L 625.263158 418.603724 
L 666.947368 418.756031 
L 708.631579 419.048068 
L 750.315789 419.370833 
" clip-path="url(#p360531522c)" style="fill: none; stroke: #000000; stroke-width: 1.5; stroke-linecap: square"/>
   </g>
  </g>
 </g>
 <defs>
  <clipPath id="p360531522c">
   <rect x="0" y="0" width="792" height="612"/>
  </clipPath>
 </defs>
</svg>
