<?xml version="1.0" encoding="utf-8" standalone="no"?>
<!DOCTYPE svg PUBLIC "-//W3C//DTD SVG 1.1//EN"
  "http://www.w3.org/Graphics/SVG/1.1/DTD/svg11.dtd">
<svg xmlns:xlink="http://www.w3.org/1999/xlink" width="792pt" height="612pt" viewBox="0 0 792 612" xmlns="http://www.w3.org/2000/svg" version="1.1">
 <metadata>
  <rdf:RDF xmlns:dc="http://purl.org/dc/elements/1.1/" xmlns:cc="http://creativecommons.org/ns#" xmlns:rdf="http://www.w3.org/1999/02/22-rdf-syntax-ns#">
   <cc:Work>
    <dc:type rdf:resource="http://purl.org/dc/dcmitype/StillImage"/>
    <dc:date>2023-01-30T16:22:17.250258</dc:date>
    <dc:format>image/svg+xml</dc:format>
    <dc:creator>
     <cc:Agent>
      <dc:title>Matplotlib v3.6.2, https://matplotlib.org/</dc:title>
     </cc:Agent>
    </dc:creator>
   </cc:Work>
  </rdf:RDF>
 </metadata>
 <defs>
  <style type="text/css">*{stroke-linejoin: round; stroke-linecap: butt}</style>
 </defs>
 <g id="figure_1">
  <g id="patch_1">
   <path d="M 0 612 
L 792 612 
L 792 0 
L 0 0 
z
" style="fill: #ffffff"/>
  </g>
  <g id="axes_1">
   <g id="line2d_1">
    <path d="M 0 306 
L 3.168 302.951266 
L 6.336 311.839314 
L 9.504 308.211441 
L 12.672 305.978529 
L 15.84 312.547555 
L 19.008 309.005797 
L 22.176 305.806764 
L 25.344 302.393094 
L 28.512 301.083639 
L 34.848 306.128824 
L 38.016 305.699411 
L 41.184 309.56397 
L 44.352 308.941391 
L 47.52 305.935588 
L 50.688 306.644119 
L 53.856 309.456631 
L 57.024 307.610285 
L 60.192 308.96286 
L 63.36 305.098234 
L 66.528 307.803515 
L 69.696 294.518584 
L 72.864 307.910865 
L 76.032 309.306355 
L 79.2 309.005797 
L 82.368 307.11647 
L 85.536 302.028149 
L 88.704 308.619358 
L 91.872 304.217954 
L 95.04 305.634999 
L 98.208 299.28076 
L 101.376 298.422403 
L 104.544 308.469074 
L 107.712 312.29002 
L 110.88 304.454125 
L 114.048 299.19492 
L 117.216 307.202351 
L 120.384 301.749081 
L 123.552 302.285756 
L 126.72 306.923236 
L 129.888 306.730001 
L 133.056 305.076764 
L 136.224 308.597889 
L 139.392 306.923236 
L 142.56 309.971851 
L 145.728 304.110605 
L 148.896 304.668827 
L 152.064 300.525563 
L 155.232 303.359173 
L 158.4 300.332391 
L 161.568 308.039684 
L 164.736 301.512951 
L 167.904 305.935588 
L 171.072 305.076764 
L 174.24 298.44386 
L 177.408 302.672177 
L 180.576 304.132075 
L 183.744 312.697779 
L 186.912 308.275849 
L 190.08 297.43544 
L 193.248 306.300589 
L 196.416 308.57642 
L 199.584 302.199887 
L 202.752 301.749081 
L 205.92 305.484704 
L 209.088 312.461711 
L 212.256 305.828235 
L 215.424 309.521035 
L 218.592 308.275849 
L 221.76 301.770547 
L 224.928 312.91238 
L 228.096 308.168501 
L 234.432 301.470019 
L 237.6 310.036252 
L 240.768 312.82654 
L 243.936 302.242821 
L 247.104 310.572912 
L 250.272 309.349291 
L 253.44 306.300589 
L 256.608 304.776178 
L 259.776 305.656469 
L 262.944 342.031624 
L 266.112 325.12687 
L 269.28 313.212809 
L 272.448 305.720881 
L 275.616 298.701356 
L 278.784 302.715114 
L 281.952 307.631756 
L 285.12 300.353854 
L 288.288 300.675811 
L 291.456 305.67794 
L 294.624 312.82654 
L 297.792 301.57735 
L 300.96 310.701707 
L 304.128 306.966177 
L 307.296 309.220482 
L 310.464 308.297319 
L 313.632 308.748172 
L 316.8 304.540005 
L 319.968 310.916361 
L 323.136 305.892647 
L 326.304 306.171765 
L 329.472 303.337704 
L 332.64 311.002221 
L 335.808 297.671437 
L 338.976 309.177545 
L 342.144 299.70998 
L 345.312 305.785293 
L 348.48 305.141175 
L 351.648 309.757179 
L 354.816 306.966177 
L 357.984 306.730001 
L 361.152 303.74562 
L 364.32 302.521901 
L 370.656 305.592057 
L 373.824 305.828235 
L 376.992 305.892647 
L 380.16 306.815884 
L 383.328 305.355881 
L 386.496 300.740204 
L 389.664 303.316235 
L 392.832 306.644119 
L 396 304.303834 
L 399.168 303.681212 
L 402.336 301.899347 
L 405.504 306.730001 
L 408.672 306.407943 
L 411.84 327.520965 
L 415.008 296.105471 
L 418.176 299.21638 
L 421.344 301.062174 
L 424.512 304.947941 
L 427.68 305.699411 
L 430.848 310.680241 
L 434.016 316.580821 
L 437.184 303.831499 
L 440.352 303.788559 
L 443.52 303.294766 
L 446.688 305.420293 
L 449.856 304.540005 
L 453.024 300.847526 
L 456.192 305.184116 
L 459.36 291.475279 
L 462.528 305.67794 
L 465.696 306.966177 
L 468.864 310.401184 
L 472.032 311.259796 
L 475.2 307.223822 
L 478.368 303.917377 
L 481.536 304.067665 
L 484.704 315.165234 
L 487.872 303.251828 
L 491.04 306.858825 
L 494.208 305.849705 
L 497.376 301.856414 
L 500.544 309.177545 
L 503.712 307.417054 
L 506.88 298.701356 
L 510.048 304.518535 
L 513.216 305.119705 
L 516.384 303.359173 
L 519.552 312.118326 
L 522.72 306.644119 
L 525.888 309.11314 
L 529.056 306.601178 
L 532.224 303.552396 
L 535.392 307.674696 
L 538.56 303.380642 
L 541.728 308.96286 
L 544.896 313.148433 
L 548.064 303.316235 
L 551.232 306.772943 
L 554.4 301.36269 
L 557.568 307.846455 
L 560.736 311.474437 
L 563.904 299.924599 
L 567.072 302.307224 
L 570.24 308.855516 
L 573.408 308.662296 
L 576.576 312.697779 
L 579.744 304.368244 
L 582.912 298.80865 
L 586.08 309.220482 
L 589.248 303.616804 
L 592.416 309.971851 
L 595.584 303.981786 
L 598.752 300.053373 
L 601.92 306.815884 
L 605.088 305.291469 
L 608.256 300.182149 
L 611.424 300.396781 
L 614.592 304.582946 
L 617.76 303.702681 
L 620.928 306.880295 
L 624.096 302.178419 
L 627.264 306.386472 
L 630.432 307.374114 
L 633.6 308.018214 
L 636.768 306.064412 
L 639.936 305.463234 
L 643.104 302.822455 
L 646.272 305.269999 
L 649.44 313.126974 
L 652.608 299.795826 
L 655.776 305.527646 
L 658.944 314.99362 
L 662.112 286.595118 
L 665.28 303.724151 
L 668.448 307.073529 
L 671.616 301.212431 
L 674.784 304.024726 
L 677.952 304.840589 
L 681.12 304.432655 
L 684.288 304.604416 
L 687.456 305.055293 
L 690.624 307.159411 
L 693.792 307.180881 
L 696.96 303.960316 
L 700.128 306.32206 
L 703.296 309.370759 
L 706.464 309.778646 
L 709.632 307.674696 
L 712.8 306.708531 
L 715.968 313.448851 
L 719.136 300.182149 
L 722.304 307.13794 
L 725.472 307.760576 
L 728.64 308.812579 
L 731.808 311.603219 
L 734.976 305.892647 
L 738.144 303.316235 
L 741.312 303.573865 
L 744.48 309.649841 
L 747.648 305.377351 
L 750.816 305.914117 
L 753.984 311.410045 
L 757.152 304.153545 
L 760.32 306.772943 
L 763.488 302.114018 
L 766.656 305.656469 
L 769.824 307.052059 
L 772.992 298.465318 
L 776.16 309.928917 
L 779.328 306.193236 
L 782.496 303.273297 
L 785.664 308.834048 
L 788.832 304.969412 
L 788.832 304.969412 
" clip-path="url(#pcd8a17c09b)" style="fill: none; stroke: #000000; stroke-width: 1.5; stroke-linecap: square"/>
   </g>
   <g id="line2d_2">
    <path d="M 0 306 
L 3.168 306 
L 6.336 303.967473 
L 9.504 308.466007 
L 12.672 308.330238 
L 15.84 307.11647 
L 19.008 309.875419 
L 22.176 309.437191 
L 25.344 307.614916 
L 28.512 304.99686 
L 31.68 303.036467 
L 34.848 303.321287 
L 38.016 304.720945 
L 41.184 305.209628 
L 44.352 307.381018 
L 47.52 308.161092 
L 50.688 307.048607 
L 53.856 306.854699 
L 57.024 308.172122 
L 60.192 307.898993 
L 63.36 308.436491 
L 66.528 306.766207 
L 69.696 307.281413 
L 72.864 300.869496 
L 76.032 304.39384 
L 79.2 306.855372 
L 82.368 307.929725 
L 85.536 307.522132 
L 88.704 304.761444 
L 91.872 306.697333 
L 95.04 305.450604 
L 98.208 305.564609 
L 101.376 302.405386 
L 104.544 300.39232 
L 110.88 308.37023 
L 114.048 306.416952 
L 117.216 302.787011 
L 120.384 305.000481 
L 123.552 303.367087 
L 126.72 302.832305 
L 129.888 304.894392 
L 133.056 305.808785 
L 136.224 305.428628 
L 139.392 307.021411 
L 142.56 306.987479 
L 145.728 308.485154 
L 148.896 306.302526 
L 152.064 305.490346 
L 155.232 302.995213 
L 158.4 303.170583 
L 161.568 301.742094 
L 164.736 304.889676 
L 167.904 303.190621 
L 171.072 304.555161 
L 174.24 304.817856 
L 177.408 301.618178 
L 180.576 302.149375 
L 183.744 303.142211 
L 186.912 307.944711 
L 190.08 308.110744 
L 193.248 302.764112 
L 196.416 304.533017 
L 199.584 306.561605 
L 202.752 304.388031 
L 205.92 303.066691 
L 209.088 304.278323 
L 212.256 308.369978 
L 215.424 307.094326 
L 218.592 308.331417 
L 221.76 308.307506 
L 224.928 305.025572 
L 228.096 308.990475 
L 231.264 308.592079 
L 234.432 306.725876 
L 237.6 304.076253 
L 243.936 309.952404 
L 247.104 306.085798 
L 250.272 308.34674 
L 253.44 308.841035 
L 256.608 307.567177 
L 259.776 306.171513 
L 262.944 305.9222 
L 266.112 324.102777 
L 269.28 324.638951 
L 272.448 318.95187 
L 278.784 305.494471 
L 281.952 304.097723 
L 285.12 305.870334 
L 288.288 303.101462 
L 291.456 301.807167 
L 294.624 303.704281 
L 297.792 308.265156 
L 300.96 304.912999 
L 304.128 307.831047 
L 307.296 307.406951 
L 310.464 308.316852 
L 313.632 308.322661 
L 316.8 308.551246 
L 319.968 306.543418 
L 323.136 308.726282 
L 326.304 307.317954 
L 329.472 306.735979 
L 332.64 305.029697 
L 335.808 308.019645 
L 338.976 302.823802 
L 342.144 306.001516 
L 345.312 302.845944 
L 348.48 304.305518 
L 351.648 304.721871 
L 354.816 307.246639 
L 361.152 306.913385 
L 364.32 305.341399 
L 367.488 303.918556 
L 370.656 304.02321 
L 373.824 304.807247 
L 376.992 305.319086 
L 380.16 305.598288 
L 383.328 306.206792 
L 386.496 305.778642 
L 389.664 303.253343 
L 392.832 303.286347 
L 396 304.970169 
L 399.168 304.634474 
L 402.336 304.153629 
L 405.504 303.018618 
L 408.672 304.8741 
L 411.84 305.643082 
L 415.008 316.648099 
L 418.176 306.363065 
L 421.344 302.77472 
L 424.512 301.912059 
L 427.68 303.432421 
L 430.848 304.573347 
L 434.016 307.634702 
L 437.184 312.129015 
L 440.352 307.934103 
L 443.52 305.876396 
L 446.688 304.593555 
L 449.856 305.015468 
L 453.024 304.776936 
L 456.192 302.802586 
L 459.36 303.982544 
L 462.528 297.676233 
L 465.696 301.679967 
L 468.864 304.329177 
L 472.032 307.37925 
L 475.2 309.331106 
L 478.368 308.282753 
L 481.536 306.10609 
L 484.704 305.084679 
L 487.872 310.172545 
L 491.04 306.70752 
L 494.208 306.782962 
L 497.376 306.307409 
L 500.544 304.063371 
L 503.712 306.624333 
L 506.88 307.027557 
L 510.048 302.853353 
L 516.384 304.396029 
L 519.552 303.870733 
L 522.72 308.007184 
L 525.888 307.335046 
L 529.056 308.223986 
L 532.224 307.410992 
L 535.392 305.491188 
L 538.56 306.589138 
L 541.728 304.981452 
L 544.896 306.983185 
L 548.064 310.068242 
L 551.232 306.685797 
L 554.4 306.724781 
L 557.568 304.033314 
L 560.736 305.948302 
L 563.904 308.719042 
L 567.072 304.314696 
L 570.24 303.297881 
L 573.408 306.068285 
L 576.576 307.375798 
L 579.744 310.048711 
L 582.912 307.214476 
L 586.08 302.993277 
L 589.248 306.10247 
L 592.416 304.866859 
L 595.584 307.434483 
L 598.752 305.698569 
L 601.92 302.858825 
L 605.088 304.825771 
L 608.256 305.06043 
L 611.424 302.623769 
L 614.592 301.492916 
L 617.76 303.03975 
L 620.928 303.35892 
L 624.096 305.125262 
L 627.264 303.655954 
L 630.432 305.020351 
L 633.6 306.201319 
L 636.768 307.125142 
L 643.104 306.03629 
L 646.272 304.427603 
L 649.44 304.845641 
L 652.608 309.008323 
L 655.776 304.388788 
L 658.944 304.954593 
L 662.112 309.988856 
L 665.28 298.242499 
L 668.448 300.979513 
L 671.616 304.034661 
L 674.784 302.615518 
L 681.12 304.081305 
L 687.456 304.409248 
L 690.624 304.768516 
L 693.792 305.970699 
L 696.96 306.576003 
L 700.128 305.273535 
L 703.296 305.802301 
L 706.464 307.595467 
L 709.632 308.697573 
L 712.8 308.19216 
L 715.968 307.453596 
L 719.136 310.463983 
L 722.304 305.309151 
L 725.472 306.229778 
L 728.64 306.998004 
L 731.808 307.904213 
L 734.976 309.757431 
L 738.144 307.821618 
L 741.312 305.562251 
L 744.48 304.548678 
L 747.648 307.117901 
L 750.816 306.244176 
L 753.984 306.075526 
L 757.152 308.748088 
L 760.32 306.436233 
L 763.488 306.606314 
L 766.656 304.35772 
L 769.824 305.011174 
L 772.992 306.026523 
L 776.16 302.231793 
L 779.328 306.08824 
L 782.496 306.130508 
L 785.664 304.700148 
L 788.832 306.771174 
L 788.832 306.771174 
" clip-path="url(#pcd8a17c09b)" style="fill: none; stroke: #000000; stroke-width: 1.5; stroke-linecap: square"/>
   </g>
   <g id="line2d_3">
    <path d="M 0 306 
L 3.168 306 
L 6.336 304.214054 
L 9.504 307.669214 
L 12.672 307.880968 
L 15.84 307.204112 
L 19.008 308.992993 
L 22.176 308.997107 
L 25.344 308.000419 
L 28.512 306.282102 
L 31.68 304.710271 
L 34.848 304.389191 
L 38.016 304.9068 
L 41.184 305.141543 
L 44.352 306.447087 
L 47.52 307.181731 
L 50.688 306.815315 
L 53.856 306.765913 
L 57.024 307.561509 
L 60.192 307.570937 
L 63.36 307.979494 
L 66.528 307.134595 
L 69.696 307.325069 
L 72.864 303.555968 
L 79.2 306.151813 
L 82.368 306.99685 
L 85.536 307.035881 
L 88.704 305.564378 
L 91.872 306.462533 
L 95.04 305.798965 
L 98.208 305.747142 
L 101.376 303.845257 
L 104.544 302.247204 
L 107.712 304.068321 
L 110.88 306.482018 
L 114.048 305.88288 
L 117.216 303.916943 
L 120.384 304.87851 
L 123.552 303.970179 
L 126.72 303.470345 
L 129.888 304.478908 
L 133.056 305.135618 
L 136.224 305.116037 
L 139.392 306.143411 
L 142.56 306.369869 
L 145.728 307.431529 
L 148.896 306.457102 
L 152.064 305.939516 
L 155.232 304.356068 
L 158.4 304.05821 
L 161.568 302.953099 
L 164.736 304.446995 
L 167.904 303.590243 
L 171.072 304.275707 
L 174.24 304.514151 
L 177.408 302.731456 
L 180.576 302.709211 
L 183.744 303.122963 
L 186.912 305.93637 
L 190.08 306.621229 
L 193.248 303.919251 
L 196.416 304.612498 
L 199.584 305.778645 
L 202.752 304.727565 
L 205.92 303.856542 
L 209.088 304.335853 
L 212.256 306.730064 
L 215.424 306.463385 
L 218.592 307.368185 
L 221.76 307.636725 
L 224.928 305.914695 
L 228.096 307.981208 
L 231.264 308.042378 
L 234.432 307.111738 
L 237.6 305.446326 
L 240.768 306.792773 
L 243.936 308.577977 
L 247.104 306.717778 
L 250.272 307.849293 
L 253.44 308.296856 
L 256.608 307.717404 
L 259.776 306.855134 
L 262.944 306.496236 
L 266.112 316.990542 
L 269.28 319.393665 
L 272.448 317.589906 
L 275.616 314.120102 
L 278.784 309.588509 
L 281.952 307.569139 
L 285.12 307.590661 
L 288.288 305.46959 
L 291.456 304.054641 
L 294.624 304.521875 
L 297.792 306.966733 
L 300.96 305.377799 
L 304.128 306.938794 
L 307.296 306.947579 
L 310.464 307.618424 
L 316.8 308.053653 
L 319.968 307.00087 
L 323.136 308.145143 
L 326.304 307.485612 
L 329.472 307.109381 
L 332.64 306.005381 
L 335.808 307.472913 
L 338.976 304.59846 
L 342.144 305.949435 
L 345.312 304.114849 
L 348.48 304.596015 
L 351.648 304.759782 
L 354.816 306.222451 
L 357.984 306.440284 
L 361.152 306.52228 
L 364.32 305.703775 
L 367.488 304.764637 
L 370.656 304.572581 
L 383.328 305.794047 
L 386.496 305.659225 
L 389.664 304.221872 
L 392.832 303.949881 
L 396 304.746956 
L 399.168 304.615467 
L 402.336 304.340149 
L 405.504 303.616194 
L 408.672 304.527913 
L 411.84 305.078186 
L 415.008 311.688639 
L 418.176 307.116509 
L 421.344 304.796676 
L 424.512 303.697576 
L 427.68 304.062782 
L 430.848 304.54191 
L 434.016 306.344324 
L 437.184 309.356524 
L 440.352 307.741898 
L 443.52 306.584536 
L 446.688 305.617118 
L 449.856 305.560751 
L 453.024 305.262766 
L 456.192 303.96825 
L 459.36 304.322589 
L 462.528 300.539903 
L 468.864 303.480715 
L 472.032 305.520571 
L 475.2 307.21341 
L 478.368 307.219074 
L 481.536 306.249977 
L 484.704 305.60319 
L 487.872 308.402974 
L 491.04 306.893583 
L 494.208 306.886929 
L 497.376 306.586069 
L 500.544 305.196619 
L 503.712 306.367964 
L 506.88 306.682784 
L 510.048 304.337242 
L 513.216 304.405335 
L 516.384 304.613926 
L 519.552 304.242268 
L 522.72 306.551309 
L 525.888 306.573191 
L 529.056 307.319318 
L 532.224 307.112064 
L 535.392 306.068857 
L 538.56 306.530594 
L 541.728 305.608124 
L 544.896 306.593147 
L 548.064 308.521855 
L 551.232 306.998858 
L 554.4 306.929927 
L 557.568 305.292266 
L 560.736 306.050882 
L 563.904 307.64755 
L 567.072 305.37936 
L 570.24 304.478303 
L 573.408 305.756626 
L 576.576 306.610014 
L 579.744 308.397463 
L 582.912 307.214791 
L 586.08 304.746863 
L 589.248 306.058961 
L 592.416 305.343928 
L 595.584 306.700638 
L 598.752 305.893766 
L 601.92 304.179208 
L 605.088 304.951511 
L 608.256 305.055596 
L 611.424 303.619233 
L 614.592 302.662588 
L 617.76 303.230379 
L 620.928 303.370314 
L 624.096 304.396065 
L 627.264 303.739056 
L 636.768 306.142334 
L 639.936 306.115886 
L 643.104 305.926849 
L 646.272 305.009351 
L 649.44 305.087173 
L 652.608 307.457359 
L 655.776 305.205044 
L 658.944 305.299803 
L 662.112 308.156795 
L 665.28 301.818293 
L 668.448 302.375492 
L 671.616 303.755309 
L 674.784 303.00396 
L 677.952 303.30505 
L 681.12 303.753013 
L 690.624 304.404679 
L 693.792 305.213463 
L 696.96 305.794713 
L 700.128 305.255919 
L 703.296 305.560366 
L 706.464 306.687442 
L 709.632 307.59776 
L 712.8 307.611885 
L 715.968 307.370432 
L 719.136 309.162257 
L 722.304 306.524002 
L 725.472 306.710627 
L 728.64 307.022444 
L 731.808 307.551337 
L 734.976 308.746462 
L 738.144 307.912106 
L 741.312 306.564005 
L 744.48 305.684081 
L 747.648 306.84851 
L 750.816 306.419246 
L 753.984 306.270829 
L 757.152 307.778558 
L 760.32 306.710362 
L 763.488 306.727655 
L 766.656 305.371015 
L 769.824 305.445671 
L 772.992 305.924063 
L 776.16 303.72908 
L 779.328 305.547495 
L 782.496 305.733619 
L 785.664 305.003421 
L 788.832 306.128786 
L 788.832 306.128786 
" clip-path="url(#pcd8a17c09b)" style="fill: none; stroke: #000000; stroke-width: 1.5; stroke-linecap: square"/>
   </g>
   <g id="line2d_4">
    <path d="M 0 306 
L 3.168 306 
L 6.336 304.343847 
L 9.504 307.28581 
L 12.672 307.580356 
L 15.84 307.140613 
L 19.008 308.471567 
L 22.176 308.592528 
L 25.344 308.001582 
L 31.68 305.75298 
L 34.848 305.357767 
L 41.184 305.533785 
L 44.352 306.237201 
L 47.52 306.702007 
L 50.688 306.571938 
L 53.856 306.58406 
L 57.024 307.062249 
L 60.192 307.15281 
L 63.36 307.450094 
L 66.528 307.065811 
L 69.696 307.185835 
L 72.864 305.131405 
L 76.032 305.580649 
L 79.2 306.181335 
L 82.368 306.635752 
L 85.536 306.712953 
L 88.704 305.961681 
L 91.872 306.387333 
L 95.04 306.040257 
L 98.208 305.975478 
L 104.544 303.869474 
L 107.712 304.604719 
L 110.88 305.827892 
L 114.048 305.606975 
L 117.216 304.582392 
L 120.384 304.995897 
L 123.552 304.474755 
L 126.72 304.124264 
L 133.056 304.919209 
L 136.224 304.945174 
L 139.392 305.527881 
L 142.56 305.750651 
L 145.728 306.422549 
L 148.896 306.051692 
L 152.064 305.830882 
L 155.232 304.982879 
L 158.4 304.720731 
L 161.568 304.017908 
L 164.736 304.657201 
L 167.904 304.154666 
L 171.072 304.436846 
L 174.24 304.54525 
L 177.408 303.568386 
L 180.576 303.421654 
L 183.744 303.531642 
L 186.912 304.993619 
L 190.08 305.519736 
L 193.248 304.22618 
L 196.416 304.557519 
L 199.584 305.198778 
L 205.92 304.252255 
L 209.088 304.446477 
L 212.256 305.721979 
L 215.424 305.739742 
L 218.592 306.347827 
L 221.76 306.655258 
L 224.928 305.878054 
L 228.096 307.004055 
L 231.264 307.190103 
L 234.432 306.81854 
L 237.6 305.965269 
L 240.768 306.613911 
L 243.936 307.606213 
L 247.104 306.748036 
L 250.272 307.360667 
L 253.44 307.679996 
L 256.608 307.464134 
L 259.776 307.037359 
L 262.944 306.820978 
L 266.112 312.470187 
L 269.28 314.501255 
L 272.448 314.300816 
L 275.616 312.936644 
L 278.784 310.672335 
L 281.952 309.406484 
L 285.12 309.126314 
L 288.288 307.722853 
L 291.456 306.59683 
L 294.624 306.455776 
L 297.792 307.473629 
L 300.96 306.531103 
L 304.128 307.200019 
L 307.296 307.166069 
L 310.464 307.495276 
L 316.8 307.801563 
L 319.968 307.279538 
L 323.136 307.859868 
L 329.472 307.326055 
L 332.64 306.688475 
L 335.808 307.378701 
L 338.976 305.83155 
L 342.144 306.363392 
L 345.312 305.296486 
L 348.48 305.376467 
L 351.648 305.335642 
L 354.816 306.039408 
L 361.152 306.274845 
L 364.32 305.871237 
L 367.488 305.313567 
L 370.656 305.109041 
L 380.16 305.385457 
L 383.328 305.615602 
L 386.496 305.572859 
L 389.664 304.804131 
L 392.832 304.569044 
L 396 304.899794 
L 402.336 304.623018 
L 405.504 304.184154 
L 408.672 304.589052 
L 411.84 304.876686 
L 415.008 308.497091 
L 418.176 306.517147 
L 421.344 305.352071 
L 424.512 304.663323 
L 427.68 304.708017 
L 430.848 304.865456 
L 434.016 305.795244 
L 437.184 307.51541 
L 443.52 306.429454 
L 446.688 305.93294 
L 449.856 305.851148 
L 453.024 305.642164 
L 456.192 304.873688 
L 459.36 304.921966 
L 462.528 302.771403 
L 465.696 303.235024 
L 468.864 303.83141 
L 475.2 305.899195 
L 478.368 306.11082 
L 484.704 305.489528 
L 487.872 307.035521 
L 491.04 306.435081 
L 494.208 306.504711 
L 497.376 306.400001 
L 500.544 305.675533 
L 503.712 306.236163 
L 506.88 306.427491 
L 510.048 305.193007 
L 519.552 304.807466 
L 522.72 305.978826 
L 525.888 306.088159 
L 529.056 306.57206 
L 532.224 306.577255 
L 535.392 306.091534 
L 538.56 306.337864 
L 541.728 305.867068 
L 544.896 306.362863 
L 548.064 307.448816 
L 551.232 306.789991 
L 554.4 306.788672 
L 557.568 305.925645 
L 560.736 306.232918 
L 563.904 307.079436 
L 567.072 305.937362 
L 570.24 305.35686 
L 573.408 305.912556 
L 576.576 306.348439 
L 579.744 307.36222 
L 582.912 306.886151 
L 586.08 305.597501 
L 589.248 306.170238 
L 592.416 305.764198 
L 595.584 306.435628 
L 598.752 306.044043 
L 601.92 305.089664 
L 605.088 305.362837 
L 608.256 305.350156 
L 611.424 304.528731 
L 614.592 303.868676 
L 617.76 303.981983 
L 620.928 303.937759 
L 624.096 304.402647 
L 627.264 304.045961 
L 633.6 304.887657 
L 636.768 305.388528 
L 643.104 305.491294 
L 646.272 305.062826 
L 649.44 305.090871 
L 652.608 306.375769 
L 655.776 305.324388 
L 658.944 305.359326 
L 662.112 306.897047 
L 665.28 303.647297 
L 668.448 303.661896 
L 671.616 304.207656 
L 674.784 303.726298 
L 677.952 303.770885 
L 684.288 304.015205 
L 690.624 304.259957 
L 696.96 305.112711 
L 700.128 304.929345 
L 703.296 305.154841 
L 709.632 306.458739 
L 712.8 306.656879 
L 715.968 306.669036 
L 719.136 307.753477 
L 722.304 306.546559 
L 728.64 306.822454 
L 731.808 307.140613 
L 734.976 307.85335 
L 738.144 307.540075 
L 741.312 306.86633 
L 744.48 306.341302 
L 747.648 306.871987 
L 750.816 306.634253 
L 753.984 306.515176 
L 757.152 307.301297 
L 760.32 306.799622 
L 763.488 306.790247 
L 766.656 306.055909 
L 769.824 305.993562 
L 772.992 306.16196 
L 776.16 304.935444 
L 779.328 305.733638 
L 782.496 305.807606 
L 785.664 305.403654 
L 788.832 305.952093 
L 788.832 305.952093 
" clip-path="url(#pcd8a17c09b)" style="fill: none; stroke: #000000; stroke-width: 1.5; stroke-linecap: square"/>
   </g>
   <g id="line2d_5">
    <path d="M 0 306 
L 3.168 306 
L 6.336 304.409598 
L 9.504 307.103816 
L 12.672 307.417683 
L 15.84 307.077952 
L 19.008 308.197903 
L 22.176 308.345355 
L 25.344 307.923982 
L 31.68 306.218007 
L 34.848 305.869546 
L 41.184 305.877851 
L 44.352 306.313239 
L 47.52 306.61313 
L 53.856 306.549563 
L 57.024 306.855075 
L 60.192 306.932724 
L 63.36 307.137405 
L 66.528 306.935421 
L 69.696 307.02005 
L 72.864 305.818207 
L 79.2 306.325091 
L 82.368 306.57372 
L 85.536 306.623571 
L 88.704 306.20517 
L 91.872 306.423216 
L 95.04 306.225491 
L 98.208 306.172898 
L 104.544 304.933875 
L 107.712 305.243561 
L 110.88 305.858076 
L 114.048 305.736165 
L 117.216 305.170242 
L 120.384 305.345409 
L 126.72 304.800709 
L 133.056 305.131051 
L 136.224 305.126435 
L 139.392 305.421065 
L 142.56 305.548318 
L 145.728 305.922423 
L 152.064 305.676644 
L 155.232 305.242862 
L 158.4 305.084438 
L 161.568 304.685179 
L 164.736 304.966698 
L 167.904 304.677095 
L 174.24 304.807154 
L 177.408 304.274752 
L 180.576 304.14078 
L 183.744 304.140053 
L 186.912 304.854688 
L 190.08 305.140209 
L 193.248 304.497312 
L 196.416 304.647673 
L 199.584 304.975138 
L 205.92 304.49393 
L 209.088 304.576984 
L 212.256 305.231659 
L 215.424 305.280397 
L 218.592 305.633517 
L 221.76 305.851433 
L 224.928 305.510359 
L 228.096 306.127107 
L 231.264 306.298417 
L 234.432 306.180435 
L 237.6 305.788756 
L 240.768 306.142573 
L 243.936 306.699728 
L 247.104 306.327425 
L 250.272 306.680342 
L 253.44 306.902974 
L 256.608 306.852867 
L 262.944 306.593487 
L 266.112 309.559304 
L 269.28 310.859687 
L 272.448 311.056773 
L 275.616 310.617635 
L 278.784 309.625671 
L 281.952 309.050021 
L 285.12 308.931868 
L 291.456 307.591305 
L 294.624 307.431549 
L 297.792 307.882193 
L 300.96 307.357583 
L 304.128 307.638873 
L 307.296 307.585824 
L 313.632 307.768214 
L 316.8 307.850946 
L 319.968 307.577897 
L 323.136 307.85621 
L 329.472 307.569473 
L 332.64 307.217087 
L 335.808 307.532658 
L 338.976 306.711646 
L 342.144 306.916502 
L 345.312 306.315971 
L 351.648 306.177164 
L 354.816 306.475963 
L 361.152 306.537376 
L 370.656 305.835633 
L 380.16 305.825358 
L 383.328 305.908916 
L 386.496 305.863415 
L 389.664 305.434274 
L 392.832 305.256866 
L 396 305.375 
L 402.336 305.150706 
L 405.504 304.880741 
L 411.84 305.150021 
L 415.008 307.014579 
L 418.176 306.105719 
L 421.344 305.530485 
L 424.512 305.157252 
L 430.848 305.184919 
L 434.016 305.641855 
L 437.184 306.55391 
L 446.688 305.878618 
L 453.024 305.73162 
L 456.192 305.323454 
L 459.36 305.311526 
L 462.528 304.157955 
L 468.864 304.495241 
L 475.2 305.501177 
L 478.368 305.644639 
L 484.704 305.384292 
L 487.872 306.198751 
L 491.04 305.955105 
L 497.376 306.017039 
L 500.544 305.668132 
L 503.712 305.961882 
L 506.88 306.081587 
L 510.048 305.466253 
L 519.552 305.194863 
L 522.72 305.772015 
L 525.888 305.843005 
L 529.056 306.115471 
L 532.224 306.155922 
L 535.392 305.939906 
L 538.56 306.082804 
L 541.728 305.860389 
L 544.896 306.11782 
L 548.064 306.705813 
L 551.232 306.423684 
L 554.4 306.453202 
L 557.568 306.027948 
L 560.736 306.179165 
L 563.904 306.620244 
L 567.072 306.063223 
L 570.24 305.751405 
L 576.576 306.231671 
L 579.744 306.770656 
L 582.912 306.570769 
L 586.08 305.923828 
L 589.248 306.198705 
L 592.416 305.98535 
L 595.584 306.318398 
L 598.752 306.1236 
L 601.92 305.61835 
L 605.088 305.718761 
L 608.256 305.684401 
L 614.592 304.822776 
L 620.928 304.707175 
L 624.096 304.890028 
L 627.264 304.665327 
L 633.6 305.022109 
L 636.768 305.269908 
L 643.104 305.343812 
L 646.272 305.134227 
L 649.44 305.146138 
L 652.608 305.811129 
L 655.776 305.310269 
L 658.944 305.329834 
L 662.112 306.135297 
L 665.28 304.509795 
L 668.448 304.443953 
L 671.616 304.662229 
L 674.784 304.372894 
L 684.288 304.386626 
L 690.624 304.455566 
L 696.96 304.888805 
L 700.128 304.811129 
L 703.296 304.937982 
L 709.632 305.677955 
L 715.968 305.918849 
L 719.136 306.546641 
L 722.304 306.017322 
L 728.64 306.246171 
L 731.808 306.459081 
L 734.976 306.887702 
L 738.144 306.805879 
L 744.48 306.2708 
L 747.648 306.551484 
L 753.984 306.407751 
L 757.152 306.824476 
L 760.32 306.603707 
L 763.488 306.617403 
L 766.656 306.240577 
L 769.824 306.193964 
L 772.992 306.266727 
L 776.16 305.615733 
L 779.328 305.97414 
L 782.496 305.990207 
L 785.664 305.764352 
L 788.832 306.022395 
L 788.832 306.022395 
" clip-path="url(#pcd8a17c09b)" style="fill: none; stroke: #000000; stroke-width: 1.5; stroke-linecap: square"/>
   </g>
   <g id="line2d_6">
    <path d="M 0 306 
L 3.168 306 
L 6.336 304.442581 
L 9.504 307.015943 
L 12.672 307.334515 
L 15.84 307.039329 
L 19.008 308.059741 
L 22.176 308.213076 
L 25.344 307.864769 
L 31.68 306.415136 
L 34.848 306.104557 
L 41.184 306.066955 
L 47.52 306.619106 
L 53.856 306.567898 
L 57.024 306.794082 
L 69.696 306.938366 
L 72.864 306.103252 
L 79.2 306.419526 
L 82.368 306.581785 
L 85.536 306.614661 
L 88.704 306.337925 
L 91.872 306.473151 
L 98.208 306.301153 
L 104.544 305.487104 
L 107.712 305.651136 
L 110.88 306.011823 
L 114.048 305.928202 
L 117.216 305.57072 
L 120.384 305.656416 
L 126.72 305.290103 
L 133.056 305.442092 
L 136.224 305.423757 
L 145.728 305.860394 
L 152.064 305.721468 
L 155.232 305.471197 
L 158.4 305.370058 
L 161.568 305.130114 
L 164.736 305.26796 
L 167.904 305.090928 
L 174.24 305.128046 
L 177.408 304.817114 
L 183.744 304.690741 
L 186.912 305.058823 
L 190.08 305.206167 
L 193.248 304.85137 
L 202.752 304.95287 
L 205.92 304.808383 
L 209.088 304.838799 
L 212.256 305.180793 
L 215.424 305.209765 
L 221.76 305.530243 
L 224.928 305.363121 
L 228.096 305.698035 
L 231.264 305.807405 
L 234.432 305.765632 
L 237.6 305.576145 
L 240.768 305.772547 
L 243.936 306.082699 
L 247.104 305.914149 
L 253.44 306.259749 
L 262.944 306.173151 
L 266.112 307.741754 
L 269.28 308.498901 
L 272.448 308.70373 
L 275.616 308.574287 
L 278.784 308.146212 
L 281.952 307.910976 
L 285.12 307.898894 
L 291.456 307.274703 
L 294.624 307.20578 
L 297.792 307.448257 
L 300.96 307.195212 
L 304.128 307.346249 
L 310.464 307.411213 
L 316.8 307.505107 
L 319.968 307.377796 
L 323.136 307.529664 
L 332.64 307.229996 
L 335.808 307.391579 
L 338.976 306.975357 
L 342.144 307.069602 
L 345.312 306.754742 
L 351.648 306.646087 
L 354.816 306.779033 
L 361.152 306.784592 
L 373.824 306.343944 
L 386.496 306.284166 
L 389.664 306.047952 
L 392.832 305.931593 
L 399.168 305.891337 
L 408.672 305.678034 
L 411.84 305.709555 
L 415.008 306.638408 
L 418.176 306.189687 
L 424.512 305.686137 
L 430.848 305.656065 
L 434.016 305.870467 
L 437.184 306.327307 
L 449.856 305.972708 
L 453.024 305.911234 
L 456.192 305.695683 
L 459.36 305.673751 
L 462.528 305.068331 
L 468.864 305.172903 
L 475.2 305.644683 
L 478.368 305.713747 
L 484.704 305.569518 
L 487.872 305.977486 
L 491.04 305.861281 
L 497.376 305.901598 
L 500.544 305.729693 
L 506.88 305.943133 
L 510.048 305.636094 
L 519.552 305.473217 
L 522.72 305.757131 
L 538.56 305.939577 
L 541.728 305.830802 
L 544.896 305.963656 
L 548.064 306.269357 
L 551.232 306.143045 
L 554.4 306.170193 
L 557.568 305.965806 
L 560.736 306.046758 
L 563.904 306.278247 
L 567.072 306.008772 
L 570.24 305.850878 
L 576.576 306.093687 
L 579.744 306.374992 
L 582.912 306.290897 
L 586.08 305.972975 
L 589.248 306.11151 
L 592.416 306.004231 
L 595.584 306.172736 
L 598.752 306.080935 
L 601.92 305.824315 
L 608.256 305.842215 
L 614.592 305.380402 
L 630.432 305.258453 
L 639.936 305.486252 
L 643.104 305.48594 
L 649.44 305.36624 
L 652.608 305.697133 
L 655.776 305.44511 
L 658.944 305.447973 
L 662.112 305.854233 
L 665.28 305.03358 
L 668.448 304.977742 
L 671.616 305.060756 
L 674.784 304.893605 
L 687.456 304.827971 
L 693.792 304.936766 
L 696.96 305.03299 
L 703.296 305.042737 
L 712.8 305.516033 
L 715.968 305.566173 
L 719.136 305.901292 
L 722.304 305.657365 
L 731.808 305.934469 
L 734.976 306.175735 
L 741.312 306.042135 
L 744.48 305.938468 
L 747.648 306.095904 
L 753.984 306.059948 
L 757.152 306.28784 
L 760.32 306.196421 
L 763.488 306.220831 
L 766.656 306.045939 
L 772.992 306.073841 
L 776.16 305.750261 
L 779.328 305.928153 
L 782.496 305.939452 
L 785.664 305.825977 
L 788.832 305.953849 
L 788.832 305.953849 
" clip-path="url(#pcd8a17c09b)" style="fill: none; stroke: #000000; stroke-width: 1.5; stroke-linecap: square"/>
   </g>
   <g id="line2d_7">
    <path d="M 0 306 
L 3.168 306 
L 6.336 304.459086 
L 9.504 306.972867 
L 12.672 307.292647 
L 15.84 307.018318 
L 19.008 307.990623 
L 22.176 308.145243 
L 25.344 307.830307 
L 31.68 306.502544 
L 34.848 306.213046 
L 41.184 306.161004 
L 47.52 306.63301 
L 53.856 306.586309 
L 57.024 306.776811 
L 69.696 306.904484 
L 72.864 306.22779 
L 85.536 306.621337 
L 88.704 306.404893 
L 91.872 306.506629 
L 98.208 306.370307 
L 104.544 305.745648 
L 107.712 305.857618 
L 110.88 306.117003 
L 114.048 306.051199 
L 117.216 305.784677 
L 120.384 305.838832 
L 126.72 305.559476 
L 148.896 305.855636 
L 152.064 305.816296 
L 161.568 305.401125 
L 164.736 305.484789 
L 167.904 305.360122 
L 174.24 305.368733 
L 177.408 305.157522 
L 183.744 305.053943 
L 186.912 305.281019 
L 190.08 305.369245 
L 193.248 305.137319 
L 202.752 305.181368 
L 209.088 305.095283 
L 212.256 305.301449 
L 218.592 305.432261 
L 221.76 305.510333 
L 224.928 305.408265 
L 228.096 305.611896 
L 234.432 305.6589 
L 237.6 305.547112 
L 243.936 305.855416 
L 247.104 305.760475 
L 253.44 305.976482 
L 262.944 305.946068 
L 266.112 306.873196 
L 269.28 307.338709 
L 272.448 307.487739 
L 275.616 307.443098 
L 281.952 307.110002 
L 285.12 307.123038 
L 291.456 306.798714 
L 294.624 306.771001 
L 297.792 306.920266 
L 300.96 306.789006 
L 307.296 306.886819 
L 316.8 307.019362 
L 319.968 306.959523 
L 323.136 307.054773 
L 335.808 307.016075 
L 338.976 306.793914 
L 342.144 306.850441 
L 345.312 306.68148 
L 357.984 306.704465 
L 364.32 306.63592 
L 370.656 306.483445 
L 389.664 306.28806 
L 399.168 306.185321 
L 411.84 306.05551 
L 415.008 306.544894 
L 421.344 306.146519 
L 427.68 306.006706 
L 430.848 305.999756 
L 434.016 306.105495 
L 437.184 306.34195 
L 459.36 305.974324 
L 462.528 305.649666 
L 468.864 305.679685 
L 478.368 305.936431 
L 484.704 305.85094 
L 487.872 306.057952 
L 494.208 306.0148 
L 506.88 306.02277 
L 510.048 305.860907 
L 519.552 305.761359 
L 522.72 305.901524 
L 544.896 305.995212 
L 548.064 306.152221 
L 557.568 306.001065 
L 567.072 306.023965 
L 570.24 305.942672 
L 582.912 306.169108 
L 586.08 306.008439 
L 589.248 306.078516 
L 592.416 306.024831 
L 595.584 306.110878 
L 611.424 305.813069 
L 617.76 305.671044 
L 630.432 305.597434 
L 643.104 305.69085 
L 649.44 305.620857 
L 652.608 305.783603 
L 655.776 305.653814 
L 658.944 305.65108 
L 662.112 305.853516 
L 665.28 305.435871 
L 687.456 305.271255 
L 703.296 305.339696 
L 719.136 305.761541 
L 722.304 305.641109 
L 731.808 305.785193 
L 734.976 305.910699 
L 772.992 305.911805 
L 776.16 305.751414 
L 782.496 305.848946 
L 785.664 305.793496 
L 788.832 305.858948 
L 788.832 305.858948 
" clip-path="url(#pcd8a17c09b)" style="fill: none; stroke: #000000; stroke-width: 1.5; stroke-linecap: square"/>
   </g>
   <g id="line2d_8">
    <path d="M 0 306 
L 3.168 306 
L 6.336 304.46734 
L 9.504 306.951553 
L 12.672 307.271665 
L 15.84 307.007408 
L 19.008 307.956093 
L 22.176 308.110971 
L 25.344 307.811917 
L 31.68 306.543237 
L 34.848 306.264613 
L 41.184 306.207238 
L 47.52 306.642219 
L 53.856 306.597563 
L 57.024 306.77145 
L 69.696 306.89001 
L 72.864 306.285367 
L 85.536 306.627469 
L 88.704 306.438064 
L 91.872 306.525239 
L 98.208 306.405405 
L 104.544 305.866518 
L 107.712 305.957529 
L 110.88 306.173767 
L 114.048 306.116394 
L 117.216 305.890538 
L 120.384 305.932422 
L 126.72 305.693887 
L 152.064 305.882335 
L 161.568 305.545038 
L 164.736 305.607444 
L 167.904 305.506447 
L 174.24 305.506323 
L 180.576 305.276624 
L 183.744 305.250191 
L 190.08 305.484494 
L 193.248 305.305114 
L 202.752 305.328917 
L 209.088 305.257505 
L 212.256 305.407923 
L 218.592 305.500611 
L 221.76 305.556862 
L 224.928 305.480835 
L 231.264 305.678762 
L 240.768 305.667139 
L 243.936 305.803497 
L 247.104 305.736244 
L 256.608 305.899866 
L 262.944 305.875253 
L 266.112 306.530256 
L 269.28 306.863621 
L 272.448 306.976503 
L 275.616 306.954339 
L 281.952 306.73833 
L 285.12 306.753785 
L 294.624 306.527199 
L 297.792 306.633459 
L 300.96 306.548697 
L 310.464 306.666448 
L 329.472 306.73625 
L 332.64 306.682355 
L 335.808 306.750519 
L 338.976 306.607954 
L 342.144 306.648098 
L 348.48 306.528539 
L 357.984 306.563241 
L 367.488 306.462862 
L 380.16 306.398778 
L 389.664 306.306838 
L 408.672 306.150051 
L 411.84 306.153728 
L 415.008 306.457888 
L 421.344 306.211067 
L 427.68 306.121933 
L 434.016 306.179618 
L 437.184 306.324123 
L 459.36 306.095398 
L 462.528 305.896972 
L 472.032 305.968904 
L 478.368 306.055727 
L 484.704 306.001109 
L 487.872 306.122814 
L 500.544 306.036098 
L 506.88 306.094833 
L 513.216 305.97902 
L 525.888 306.022186 
L 535.392 306.036654 
L 554.4 306.12345 
L 560.736 306.08573 
L 563.904 306.153665 
L 570.24 306.027949 
L 582.912 306.155844 
L 586.08 306.064349 
L 595.584 306.121031 
L 639.936 305.861416 
L 662.112 305.934562 
L 665.28 305.70204 
L 693.792 305.599284 
L 763.488 305.937061 
L 776.16 305.817174 
L 782.496 305.868584 
L 788.832 305.873183 
L 788.832 305.873183 
" clip-path="url(#pcd8a17c09b)" style="fill: none; stroke: #000000; stroke-width: 1.5; stroke-linecap: square"/>
   </g>
   <g id="line2d_9">
    <path d="M 0 306 
L 3.168 306 
L 6.336 304.471468 
L 9.504 306.940954 
L 12.672 307.261165 
L 15.84 307.001854 
L 19.008 307.938841 
L 22.176 308.093755 
L 25.344 307.802441 
L 31.68 306.562808 
L 34.848 306.28968 
L 41.184 306.230074 
L 47.52 306.647314 
L 53.856 306.60365 
L 57.024 306.769557 
L 69.696 306.883453 
L 72.864 306.312975 
L 85.536 306.631206 
L 88.704 306.454504 
L 91.872 306.534953 
L 101.376 306.180498 
L 104.544 305.924416 
L 107.712 306.00614 
L 110.88 306.202726 
L 114.048 306.14941 
L 117.216 305.942519 
L 120.384 305.979102 
L 126.72 305.760007 
L 152.064 305.919281 
L 161.568 305.61783 
L 164.736 305.671125 
L 171.072 305.58866 
L 174.24 305.577927 
L 180.576 305.374514 
L 183.744 305.34962 
L 190.08 305.548889 
L 193.248 305.393086 
L 202.752 305.409137 
L 209.088 305.34507 
L 212.256 305.471394 
L 224.928 305.52969 
L 231.264 305.694799 
L 240.768 305.683844 
L 243.936 305.796997 
L 247.104 305.74128 
L 256.608 305.877068 
L 262.944 305.857443 
L 266.112 306.394466 
L 269.28 306.669066 
L 275.616 306.749011 
L 281.952 306.57899 
L 288.288 306.507107 
L 294.624 306.416617 
L 297.792 306.50341 
L 300.96 306.437255 
L 313.632 306.558908 
L 329.472 306.601765 
L 348.48 306.447951 
L 411.84 306.172477 
L 415.008 306.399786 
L 424.512 306.162504 
L 434.016 306.191951 
L 437.184 306.298587 
L 459.36 306.130693 
L 462.528 305.985742 
L 472.032 306.035349 
L 478.368 306.097087 
L 491.04 306.116334 
L 510.048 306.052992 
L 525.888 306.067016 
L 538.56 306.09064 
L 544.896 306.092216 
L 551.232 306.129769 
L 598.752 306.113199 
L 614.592 305.966452 
L 649.44 305.912651 
L 655.776 305.921135 
L 674.784 305.792689 
L 703.296 305.758874 
L 734.976 305.942347 
L 788.832 305.918388 
L 788.832 305.918388 
" clip-path="url(#pcd8a17c09b)" style="fill: none; stroke: #000000; stroke-width: 1.5; stroke-linecap: square"/>
   </g>
  </g>
 </g>
 <defs>
  <clipPath id="pcd8a17c09b">
   <rect x="0" y="0" width="792" height="612"/>
  </clipPath>
 </defs>
</svg>
