<?xml version="1.0" encoding="utf-8" standalone="no"?>
<!DOCTYPE svg PUBLIC "-//W3C//DTD SVG 1.1//EN"
  "http://www.w3.org/Graphics/SVG/1.1/DTD/svg11.dtd">
<svg xmlns:xlink="http://www.w3.org/1999/xlink" width="792pt" height="612pt" viewBox="0 0 792 612" xmlns="http://www.w3.org/2000/svg" version="1.1">
 <metadata>
  <rdf:RDF xmlns:dc="http://purl.org/dc/elements/1.1/" xmlns:cc="http://creativecommons.org/ns#" xmlns:rdf="http://www.w3.org/1999/02/22-rdf-syntax-ns#">
   <cc:Work>
    <dc:type rdf:resource="http://purl.org/dc/dcmitype/StillImage"/>
    <dc:date>2023-01-16T16:12:22.683448</dc:date>
    <dc:format>image/svg+xml</dc:format>
    <dc:creator>
     <cc:Agent>
      <dc:title>Matplotlib v3.6.2, https://matplotlib.org/</dc:title>
     </cc:Agent>
    </dc:creator>
   </cc:Work>
  </rdf:RDF>
 </metadata>
 <defs>
  <style type="text/css">*{stroke-linejoin: round; stroke-linecap: butt}</style>
 </defs>
 <g id="figure_1">
  <g id="patch_1">
   <path d="M 0 612 
L 792 612 
L 792 0 
L 0 0 
z
" style="fill: #ffffff"/>
  </g>
  <g id="axes_1">
   <g id="line2d_1">
    <path d="M 0 459 
L 3.180723 454.426898 
L 6.361446 460.395594 
L 9.542169 461.501333 
L 12.722892 461.490598 
L 15.903614 464.764875 
L 19.084337 466.267822 
L 22.26506 466.171204 
L 25.445783 464.367668 
L 28.626506 461.909276 
L 31.807229 460.728389 
L 34.987952 460.792801 
L 38.168675 460.642506 
L 41.349398 462.424572 
L 44.53012 463.895313 
L 47.710843 463.863107 
L 50.891566 464.185167 
L 54.072289 465.913556 
L 57.253012 466.718706 
L 60.433735 468.200182 
L 63.614458 467.749298 
L 66.795181 468.651067 
L 69.975904 462.907662 
L 73.156627 463.863107 
L 76.337349 465.516349 
L 79.518072 467.019296 
L 82.698795 467.577533 
L 85.879518 465.591496 
L 89.060241 466.901207 
L 92.240964 466.010174 
L 95.421687 465.827673 
L 98.60241 462.467513 
L 101.783133 458.033821 
L 104.963855 459.912504 
L 108.144578 463.057957 
L 111.325301 462.285013 
L 114.506024 458.645734 
L 117.686747 459.48309 
L 124.048193 448.502673 
L 127.228916 449.886898 
L 130.409639 450.98152 
L 133.590361 449.597162 
L 136.771084 453.493037 
L 139.951807 454.877742 
L 143.13253 459.611914 
L 146.313253 458.001615 
L 149.493976 456.004884 
L 152.674699 447.794537 
L 155.855422 443.836491 
L 159.036145 435.349549 
L 162.216867 438.402 
L 165.39759 431.689398 
L 168.578313 431.593124 
L 171.759036 430.213456 
L 174.939759 418.941283 
L 178.120482 413.992267 
L 181.301205 411.218979 
L 184.481928 421.179474 
L 187.662651 424.572149 
L 190.843373 411.824346 
L 194.024096 412.270512 
L 197.204819 416.098367 
L 200.385542 410.454546 
L 203.566265 404.158743 
L 206.746988 403.396987 
L 209.927711 412.97181 
L 213.108434 412.716767 
L 216.289157 417.950691 
L 219.46988 421.339415 
L 222.650602 415.045083 
L 225.831325 425.340841 
L 229.012048 428.577784 
L 232.192771 426.87879 
L 235.373494 420.124094 
L 238.554217 426.141764 
L 241.73494 436.345395 
L 244.915663 430.726761 
L 248.096386 437.566399 
L 251.277108 442.581944 
L 254.457831 443.032267 
L 257.638554 441.199011 
L 260.819277 440.684513 
L 264 470.99137 
L 267.180723 480.567289 
L 270.361446 484.174361 
L 273.542169 484.034802 
L 276.722892 480.384788 
L 279.903614 478.742282 
L 283.084337 479.558167 
L 286.26506 476.734774 
L 289.445783 474.072411 
L 292.626506 473.911381 
L 295.807229 477.325218 
L 298.987952 475.113738 
L 302.168675 477.464777 
L 305.349398 477.947867 
L 308.53012 479.558167 
L 311.710843 480.706848 
L 314.891566 482.080971 
L 318.072289 481.350968 
L 321.253012 483.80936 
L 324.433735 483.755683 
L 327.614458 483.841566 
L 330.795181 482.510385 
L 333.975904 485.011718 
L 337.156627 480.846408 
L 340.337349 482.435237 
L 343.518072 479.289784 
L 346.698795 479.182431 
L 349.879518 478.753017 
L 353.060241 480.631701 
L 356.240964 481.114791 
L 359.421687 481.479792 
L 362.60241 480.352582 
L 365.783133 478.613458 
L 368.963855 477.668748 
L 372.144578 477.464777 
L 378.506024 477.325218 
L 381.686747 477.73316 
L 384.86747 477.4111 
L 388.048193 474.780943 
L 391.228916 473.439026 
L 394.409639 473.761086 
L 397.590361 472.912995 
L 400.771084 471.753578 
L 403.951807 469.703129 
L 407.13253 470.068131 
L 410.313253 470.272102 
L 413.493976 481.050379 
L 416.674699 476.101389 
L 419.855422 472.709023 
L 423.036145 470.239896 
L 426.216867 469.713865 
L 429.39759 469.56357 
L 432.578313 471.903873 
L 435.759036 477.196393 
L 442.120482 475.006385 
L 445.301205 473.653733 
L 448.481928 473.363879 
L 451.662651 472.633876 
L 454.843373 470.057395 
L 458.024096 469.649453 
L 461.204819 462.381631 
L 464.385542 462.220601 
L 467.566265 462.703691 
L 470.746988 464.904434 
L 473.927711 467.534592 
L 477.108434 468.146506 
L 483.46988 466.138998 
L 486.650602 470.722986 
L 489.831325 469.348863 
L 493.012048 469.778277 
L 496.192771 469.703129 
L 499.373494 467.63121 
L 502.554217 469.220039 
L 505.73494 469.928571 
L 508.915663 466.278557 
L 512.096386 465.537819 
L 515.277108 465.097671 
L 518.457831 463.777224 
L 521.638554 466.836795 
L 524.819277 467.158855 
L 528 468.715479 
L 531.180723 469.016068 
L 534.361446 467.79224 
L 537.542169 468.629596 
L 540.722892 467.319885 
L 543.903614 468.801361 
L 547.084337 472.376228 
L 550.26506 471.034311 
L 553.445783 471.420783 
L 556.626506 469.101951 
L 559.807229 470.025189 
L 562.987952 472.7627 
L 566.168675 469.7246 
L 569.349398 467.878122 
L 575.710843 470.637104 
L 578.891566 473.986528 
L 582.072289 473.170643 
L 585.253012 469.574305 
L 588.433735 471.184606 
L 591.614458 469.992983 
L 594.795181 471.97902 
L 597.975904 470.969899 
L 601.156627 467.996211 
L 604.337349 468.404154 
L 607.518072 468.049888 
L 613.879518 462.338689 
L 617.060241 461.630157 
L 620.240964 460.481476 
L 623.421687 460.921625 
L 626.60241 459.010735 
L 629.783133 459.203971 
L 632.963855 459.891033 
L 636.144578 460.900154 
L 639.325301 460.93236 
L 642.506024 460.663977 
L 645.686747 459.075147 
L 648.86747 458.130439 
L 652.048193 462.274277 
L 655.228916 459.171765 
L 658.409639 458.806764 
L 661.590361 463.433694 
L 664.771084 443.160936 
L 667.951807 439.752103 
L 671.13253 441.359801 
L 674.313253 434.193364 
L 677.493976 431.240137 
L 680.674699 429.507779 
L 683.855422 427.167238 
L 687.036145 425.084589 
L 690.216867 423.675587 
L 696.578313 427.167238 
L 699.759036 424.123835 
L 702.939759 424.604174 
L 706.120482 429.636074 
L 709.301205 435.285308 
L 712.481928 437.791355 
L 715.662651 438.851996 
L 718.843373 450.015672 
L 722.024096 441.295485 
L 725.204819 443.0001 
L 728.385542 445.638284 
L 731.566265 449.854705 
L 734.746988 458.259263 
L 737.927711 458.098233 
L 741.108434 454.07267 
L 744.289157 450.434197 
L 747.46988 455.90827 
L 750.650602 454.974352 
L 753.831325 454.845539 
L 757.012048 459.397207 
L 760.192771 459.783679 
L 763.373494 455.521818 
L 766.554217 455.006556 
L 769.73494 456.584572 
L 772.915663 445.284326 
L 776.096386 451.174699 
L 779.277108 451.464472 
L 782.457831 447.376118 
L 785.638554 451.625459 
L 788.819277 450.080059 
L 788.819277 450.080059 
" clip-path="url(#p7538b32258)" style="fill: none; stroke: #000000; stroke-width: 1.5; stroke-linecap: square"/>
   </g>
   <g id="line2d_2">
    <path d="M 0 459 
L 3.180723 459 
L 6.361446 455.95121 
L 9.542169 459.361934 
L 12.722892 460.502947 
L 15.903614 461.012702 
L 19.084337 462.918568 
L 22.26506 464.606381 
L 25.445783 465.391861 
L 28.626506 464.890289 
L 31.807229 463.408476 
L 34.987952 462.069085 
L 38.168675 461.429554 
L 41.349398 461.034367 
L 44.53012 461.724881 
L 47.710843 462.805445 
L 54.072289 463.757101 
L 57.253012 464.84318 
L 60.433735 465.792689 
L 63.614458 467.01096 
L 66.795181 467.394064 
L 69.975904 468.034774 
L 73.156627 465.469282 
L 76.337349 464.666194 
L 79.518072 465.093882 
L 82.698795 466.058757 
L 85.879518 466.819829 
L 89.060241 466.200547 
L 92.240964 466.549214 
L 98.60241 466.05682 
L 101.783133 464.25943 
L 104.963855 461.455276 
L 108.144578 460.669955 
L 111.325301 461.855094 
L 114.506024 462.06357 
L 117.686747 460.457017 
L 120.86747 459.957255 
L 124.048193 457.922301 
L 127.228916 453.1709 
L 130.409639 451.512831 
L 133.590361 451.226087 
L 136.771084 450.369303 
L 143.13253 453.381911 
L 146.313253 457.109455 
L 149.493976 457.563238 
L 152.674699 456.798768 
L 155.855422 452.291903 
L 159.036145 448.049258 
L 162.216867 441.668152 
L 165.39759 440.005269 
L 168.578313 435.800014 
L 171.759036 433.638808 
L 174.939759 431.871383 
L 178.120482 425.327149 
L 181.301205 419.587596 
L 184.481928 415.335926 
L 187.662651 418.228344 
L 190.843373 421.371404 
L 194.024096 416.554369 
L 197.204819 414.373678 
L 200.385542 415.208271 
L 203.566265 412.81353 
L 206.746988 408.462315 
L 209.927711 405.912686 
L 213.108434 409.423243 
L 216.289157 411.046209 
L 222.650602 417.939165 
L 225.831325 416.489632 
L 229.012048 420.940896 
L 232.192771 424.804997 
L 235.373494 425.887959 
L 238.554217 423.018657 
L 241.73494 424.606184 
L 244.915663 430.507213 
L 248.096386 430.635417 
L 251.277108 434.143748 
L 254.457831 438.394941 
L 257.638554 440.741509 
L 260.819277 440.998377 
L 264 440.881858 
L 267.180723 462.01945 
L 270.361446 471.350477 
L 273.542169 477.830283 
L 276.722892 480.99565 
L 279.903614 480.742885 
L 283.084337 479.791734 
L 286.26506 479.726901 
L 289.445783 478.277589 
L 292.626506 476.181041 
L 295.807229 475.03316 
L 298.987952 476.165759 
L 302.168675 475.622257 
L 305.349398 476.537791 
L 308.53012 477.241271 
L 314.891566 479.561072 
L 318.072289 480.836725 
L 321.253012 481.108434 
L 324.433735 482.471611 
L 327.614458 483.130592 
L 330.795181 483.498583 
L 333.975904 483.01343 
L 337.156627 484.023267 
L 340.337349 482.435111 
L 343.518072 482.435869 
L 346.698795 480.858785 
L 349.879518 480.011535 
L 353.060241 479.372467 
L 359.421687 480.552554 
L 362.60241 481.009248 
L 365.783133 480.679947 
L 372.144578 478.6508 
L 375.325301 478.05442 
L 378.506024 477.713963 
L 381.686747 477.513107 
L 384.86747 477.616503 
L 388.048193 477.505824 
L 394.409639 474.775596 
L 397.590361 474.260679 
L 400.771084 473.577912 
L 403.951807 472.654715 
L 407.13253 471.163977 
L 410.313253 470.601024 
L 413.493976 470.422565 
L 416.674699 475.748765 
L 419.855422 475.930298 
L 423.036145 474.317598 
L 426.216867 472.273505 
L 429.39759 470.989686 
L 432.578313 470.276354 
L 435.759036 471.093713 
L 438.939759 474.15863 
L 442.120482 475.125695 
L 445.301205 475.063893 
L 448.481928 474.360665 
L 451.662651 473.868397 
L 454.843373 473.256862 
L 458.024096 471.658097 
L 461.204819 470.649354 
L 464.385542 466.486444 
L 467.566265 464.326284 
L 470.746988 463.490864 
L 473.927711 464.180494 
L 477.108434 465.846113 
L 480.289157 466.987511 
L 483.46988 467.040556 
L 486.650602 466.582894 
L 489.831325 468.669296 
L 496.192771 469.414538 
L 499.373494 469.568243 
L 502.554217 468.599916 
L 505.73494 468.912083 
L 508.915663 469.425863 
L 512.096386 467.852484 
L 515.277108 466.684985 
L 518.457831 465.882992 
L 521.638554 464.818341 
L 524.819277 465.821948 
L 528 466.489475 
L 531.180723 467.601488 
L 534.361446 468.306988 
L 537.542169 468.052582 
L 540.722892 468.347151 
L 543.903614 467.837875 
L 547.084337 468.32947 
L 550.26506 470.36371 
L 556.626506 471.069001 
L 559.807229 470.085644 
L 562.987952 470.059795 
L 566.168675 471.419352 
L 569.349398 470.576691 
L 572.53012 469.225596 
L 575.710843 469.259739 
L 578.891566 469.947642 
L 582.072289 471.972116 
L 585.253012 472.579357 
L 588.433735 471.075947 
L 591.614458 471.127182 
L 594.795181 470.560609 
L 597.975904 471.277856 
L 601.156627 471.12714 
L 604.337349 469.556497 
L 607.518072 468.96938 
L 610.698795 468.499593 
L 613.879518 466.811409 
L 617.060241 464.557704 
L 620.240964 463.077533 
L 623.421687 461.75696 
L 626.60241 461.31959 
L 629.783133 460.147544 
L 632.963855 459.657718 
L 636.144578 459.758378 
L 639.325301 460.320951 
L 642.506024 460.623898 
L 645.686747 460.642043 
L 648.86747 459.855838 
L 652.048193 459.278656 
L 655.228916 460.782866 
L 658.409639 459.977252 
L 661.590361 459.454547 
L 664.771084 461.449088 
L 667.951807 454.708643 
L 671.13253 447.179726 
L 674.313253 444.234159 
L 677.493976 439.164495 
L 680.674699 435.126978 
L 683.855422 432.257657 
L 687.036145 429.649658 
L 690.216867 427.274076 
L 693.39759 425.436187 
L 696.578313 425.392471 
L 699.759036 426.251961 
L 702.939759 425.167994 
L 706.120482 424.873072 
L 709.301205 427.253965 
L 712.481928 431.283425 
L 715.662651 434.561093 
L 718.843373 436.735855 
L 722.024096 443.420806 
L 725.204819 442.385805 
L 728.385542 442.73003 
L 731.566265 444.225328 
L 734.746988 447.07926 
L 737.927711 452.713402 
L 741.108434 455.445538 
L 744.289157 454.788962 
L 747.46988 452.612256 
L 750.650602 454.288869 
L 753.831325 454.655098 
L 757.012048 454.768377 
L 760.192771 457.500216 
L 763.373494 459.143896 
L 766.554217 457.471673 
L 769.73494 456.240926 
L 772.915663 456.42481 
L 776.096386 450.832535 
L 782.457831 451.223688 
L 785.638554 449.27461 
L 788.819277 450.430914 
L 788.819277 450.430914 
" clip-path="url(#p7538b32258)" style="fill: none; stroke: #000000; stroke-width: 1.5; stroke-linecap: square"/>
   </g>
   <g id="line2d_3">
    <path d="M 0 459 
L 3.180723 459 
L 6.361446 456.321081 
L 9.542169 459.143929 
L 12.722892 460.064553 
L 15.903614 460.571923 
L 22.26506 463.354554 
L 25.445783 464.23453 
L 28.626506 464.275328 
L 31.807229 463.559973 
L 34.987952 462.711881 
L 38.168675 462.140873 
L 41.349398 461.697109 
L 44.53012 461.911856 
L 47.710843 462.496024 
L 54.072289 463.280961 
L 60.433735 464.847197 
L 63.614458 465.836958 
L 69.975904 467.066797 
L 73.156627 465.844755 
L 76.337349 465.261693 
L 79.518072 465.337599 
L 85.879518 466.353968 
L 89.060241 466.136157 
L 92.240964 466.367424 
L 98.60241 466.140477 
L 101.783133 465.063088 
L 104.963855 463.186596 
L 108.144578 462.220744 
L 111.325301 462.461753 
L 114.506024 462.403193 
L 117.686747 461.361648 
L 120.86747 460.800901 
L 124.048193 459.785975 
L 130.409639 455.281782 
L 136.771084 452.65958 
L 139.951807 452.874656 
L 143.13253 453.429369 
L 146.313253 455.576469 
L 149.493976 456.262091 
L 152.674699 456.171369 
L 155.855422 453.705645 
L 159.036145 450.793561 
L 162.216867 446.225484 
L 165.39759 443.898109 
L 168.578313 440.288322 
L 171.759036 437.706773 
L 174.939759 435.483297 
L 181.301205 425.682015 
L 184.481928 421.392126 
L 187.662651 421.297323 
L 190.843373 422.223033 
L 194.024096 419.123635 
L 197.204819 417.058904 
L 200.385542 416.729665 
L 203.566265 414.837924 
L 206.746988 411.654646 
L 209.927711 409.186369 
L 213.108434 410.268847 
L 216.289157 410.9562 
L 219.46988 412.986943 
L 222.650602 415.418662 
L 225.831325 415.291862 
L 232.192771 421.279753 
L 235.373494 422.936593 
L 238.554217 422.111327 
L 241.73494 423.293051 
L 244.915663 427.139135 
L 248.096386 428.210789 
L 251.277108 430.973367 
L 254.457831 434.407379 
L 257.638554 436.976862 
L 260.819277 438.256781 
L 264 438.99967 
L 267.180723 455.479974 
L 270.361446 464.527749 
L 273.542169 470.325475 
L 276.722892 474.38648 
L 279.903614 476.180816 
L 286.26506 477.76073 
L 289.445783 477.495525 
L 292.626506 476.522832 
L 295.807229 475.783764 
L 298.987952 476.267132 
L 302.168675 475.956031 
L 308.53012 476.899221 
L 314.891566 478.618602 
L 318.072289 479.645444 
L 321.253012 480.145881 
L 324.433735 481.21847 
L 327.614458 481.961282 
L 330.795181 482.515975 
L 333.975904 482.518665 
L 337.156627 483.255128 
L 340.337349 482.554352 
L 343.518072 482.52907 
L 346.698795 481.586483 
L 353.060241 480.264373 
L 359.421687 480.59574 
L 362.60241 480.85688 
L 365.783133 480.708768 
L 375.325301 478.809896 
L 381.686747 478.06601 
L 388.048193 477.792646 
L 391.228916 476.903572 
L 394.409639 475.878497 
L 400.771084 474.5597 
L 403.951807 473.729766 
L 407.13253 472.537839 
L 410.313253 471.80179 
L 413.493976 471.340882 
L 416.674699 474.185529 
L 419.855422 474.743786 
L 423.036145 474.142121 
L 426.216867 472.990887 
L 429.39759 472.022266 
L 432.578313 471.293215 
L 435.759036 471.465377 
L 438.939759 473.143706 
L 442.120482 474.014665 
L 445.301205 474.306933 
L 451.662651 473.895867 
L 454.843373 473.52725 
L 458.024096 472.51136 
L 461.204819 471.672646 
L 464.385542 468.942307 
L 467.566265 466.951937 
L 470.746988 465.692266 
L 473.927711 465.452551 
L 480.289157 466.668799 
L 483.46988 466.793788 
L 486.650602 466.595383 
L 489.831325 467.796895 
L 496.192771 468.687153 
L 499.373494 468.980188 
L 502.554217 468.578497 
L 505.73494 468.762479 
L 508.915663 469.103872 
L 515.277108 467.475145 
L 518.457831 466.782103 
L 521.638554 465.903228 
L 528 466.465478 
L 534.361446 467.681176 
L 537.542169 467.715605 
L 540.722892 467.980902 
L 543.903614 467.784964 
L 547.084337 468.081538 
L 550.26506 469.342494 
L 556.626506 470.306889 
L 559.807229 469.953021 
L 562.987952 469.978462 
L 566.168675 470.802245 
L 569.349398 470.491925 
L 572.53012 469.73107 
L 575.710843 469.609383 
L 578.891566 469.914391 
L 582.072289 471.113146 
L 585.253012 471.720545 
L 588.433735 471.093973 
L 591.614458 471.123453 
L 594.795181 470.795417 
L 597.975904 471.145736 
L 601.156627 471.092619 
L 604.337349 470.182213 
L 610.698795 469.185763 
L 613.879518 467.995355 
L 617.060241 466.326583 
L 623.421687 463.626859 
L 626.60241 462.824884 
L 629.783133 461.694392 
L 632.963855 460.947985 
L 636.144578 460.623158 
L 642.506024 460.752268 
L 645.686747 460.715693 
L 652.048193 459.763952 
L 655.228916 460.492637 
L 661.590361 459.745059 
L 664.771084 460.823475 
L 667.951807 458.197473 
L 671.13253 452.760841 
L 674.313253 449.394762 
L 677.493976 444.903589 
L 680.674699 440.866069 
L 683.855422 437.501825 
L 687.036145 434.432581 
L 690.216867 431.646738 
L 693.39759 429.262995 
L 696.578313 428.088337 
L 699.759036 427.781816 
L 702.939759 426.671041 
L 706.120482 426.014928 
L 709.301205 427.040931 
L 715.662651 431.835427 
L 718.843373 433.884419 
L 722.024096 438.616278 
L 725.204819 439.400789 
L 728.385542 440.464892 
L 731.566265 441.996264 
L 734.746988 444.320512 
L 737.927711 448.437173 
L 741.108434 451.304224 
L 744.289157 452.150021 
L 747.46988 451.676255 
L 750.650602 452.948752 
L 753.831325 453.577523 
L 757.012048 453.983713 
L 760.192771 455.837019 
L 763.373494 457.481971 
L 769.73494 456.383943 
L 772.915663 456.450252 
L 776.096386 453.183511 
L 779.277108 452.604511 
L 782.457831 452.277287 
L 785.638554 450.838711 
L 788.819277 451.061522 
L 788.819277 451.061522 
" clip-path="url(#p7538b32258)" style="fill: none; stroke: #000000; stroke-width: 1.5; stroke-linecap: square"/>
   </g>
   <g id="line2d_4">
    <path d="M 0 459 
L 3.180723 459 
L 6.361446 456.515771 
L 9.542169 459.04463 
L 12.722892 459.82637 
L 15.903614 460.283248 
L 22.26506 462.49154 
L 25.445783 463.272137 
L 28.626506 463.492836 
L 31.807229 463.186783 
L 38.168675 462.375584 
L 41.349398 462.067458 
L 44.53012 462.129785 
L 57.253012 463.426105 
L 60.433735 463.970189 
L 63.614458 464.664906 
L 69.975904 465.735434 
L 73.156627 465.277007 
L 76.337349 465.04848 
L 79.518072 465.12391 
L 85.879518 465.773912 
L 89.060241 465.744661 
L 92.240964 465.929888 
L 98.60241 465.924341 
L 101.783133 465.372191 
L 104.963855 464.30691 
L 108.144578 463.609265 
L 114.506024 463.326698 
L 117.686747 462.617889 
L 120.86747 462.115836 
L 124.048193 461.353207 
L 127.228916 460.415327 
L 130.409639 459.701527 
L 133.590361 459.161129 
L 136.771084 457.901142 
L 139.951807 457.19297 
L 143.13253 456.818954 
L 146.313253 457.452766 
L 149.493976 457.530304 
L 152.674699 457.27663 
L 155.855422 455.750989 
L 159.036145 453.832239 
L 162.216867 450.859694 
L 165.39759 448.846285 
L 168.578313 446.080008 
L 171.759036 443.737472 
L 174.939759 441.558104 
L 178.120482 437.91705 
L 184.481928 430.369196 
L 187.662651 428.865807 
L 190.843373 428.14859 
L 194.024096 425.500912 
L 197.204819 423.349456 
L 200.385542 422.155116 
L 203.566265 420.253253 
L 206.746988 417.651571 
L 209.927711 415.341254 
L 216.289157 414.541274 
L 219.46988 415.058177 
L 222.650602 416.032256 
L 225.831325 415.850947 
L 229.012048 417.344181 
L 232.192771 419.115257 
L 235.373494 420.334079 
L 238.554217 420.282353 
L 241.73494 421.196823 
L 244.915663 423.590834 
L 248.096386 424.706421 
L 251.277108 426.736703 
L 254.457831 429.245214 
L 257.638554 431.432865 
L 260.819277 432.983607 
L 264 434.211305 
L 267.180723 443.899341 
L 270.361446 456.649076 
L 273.542169 462.367778 
L 276.722892 465.836694 
L 279.903614 468.173043 
L 283.084337 469.876356 
L 286.26506 471.439567 
L 289.445783 472.301003 
L 295.807229 472.827306 
L 298.987952 473.564126 
L 302.168675 473.829678 
L 308.53012 475.012728 
L 314.891566 476.570523 
L 318.072289 477.471314 
L 321.253012 478.111087 
L 324.433735 479.041032 
L 330.795181 480.478798 
L 333.975904 480.823036 
L 337.156627 481.512391 
L 340.337349 481.428166 
L 343.518072 481.609863 
L 353.060241 480.614158 
L 359.421687 480.7275 
L 362.60241 480.864923 
L 365.783133 480.800541 
L 372.144578 480.011843 
L 378.506024 479.244487 
L 381.686747 478.937216 
L 388.048193 478.531446 
L 391.228916 477.933508 
L 394.409639 477.218025 
L 400.771084 476.067745 
L 403.951807 475.379249 
L 407.13253 474.471315 
L 410.313253 473.765836 
L 413.493976 473.204177 
L 416.674699 474.45275 
L 419.855422 474.711324 
L 423.036145 474.387358 
L 429.39759 473.073021 
L 432.578313 472.505746 
L 435.759036 472.403368 
L 438.939759 473.161079 
L 442.120482 473.627647 
L 445.301205 473.842374 
L 451.662651 473.734418 
L 454.843373 473.5555 
L 461.204819 472.453322 
L 464.385542 470.838964 
L 467.566265 469.456438 
L 470.746988 468.372125 
L 473.927711 467.812439 
L 483.46988 467.697746 
L 486.650602 467.442509 
L 489.831325 467.960272 
L 499.373494 468.630169 
L 502.554217 468.467935 
L 508.915663 468.799763 
L 515.277108 467.938523 
L 518.457831 467.476579 
L 521.638554 466.880309 
L 528 466.913802 
L 534.361446 467.48846 
L 537.542169 467.534227 
L 540.722892 467.703159 
L 543.903614 467.636693 
L 547.084337 467.818124 
L 550.26506 468.542538 
L 556.626506 469.331871 
L 559.807229 469.294694 
L 562.987952 469.411153 
L 566.168675 469.950873 
L 569.349398 469.919554 
L 572.53012 469.597984 
L 575.710843 469.554262 
L 578.891566 469.728482 
L 582.072289 470.409596 
L 585.253012 470.852673 
L 588.433735 470.651423 
L 591.614458 470.736543 
L 594.795181 470.618642 
L 597.975904 470.836456 
L 601.156627 470.858478 
L 604.337349 470.403308 
L 610.698795 469.759804 
L 613.879518 469.024164 
L 623.421687 465.918326 
L 626.60241 465.119642 
L 629.783133 464.142609 
L 632.963855 463.35092 
L 636.144578 462.794746 
L 648.86747 461.513597 
L 652.048193 461.059031 
L 655.228916 461.246915 
L 661.590361 460.588771 
L 664.771084 461.037296 
L 667.951807 459.860922 
L 671.13253 458.075541 
L 674.313253 455.387068 
L 680.674699 448.634409 
L 687.036145 442.566652 
L 690.216867 439.739755 
L 693.39759 437.134908 
L 696.578313 435.224843 
L 699.759036 433.89768 
L 702.939759 432.296808 
L 706.120482 431.033563 
L 709.301205 430.775369 
L 712.481928 431.460938 
L 718.843373 433.443157 
L 722.024096 436.066055 
L 725.204819 436.883919 
L 728.385542 437.843 
L 731.566265 439.074213 
L 734.746988 440.782185 
L 737.927711 443.558498 
L 741.108434 445.866387 
L 744.289157 447.164922 
L 747.46988 447.676549 
L 750.650602 448.983826 
L 753.831325 449.934797 
L 757.012048 450.707285 
L 763.373494 453.671194 
L 772.915663 454.530881 
L 776.096386 453.061735 
L 782.457831 452.576676 
L 785.638554 451.760273 
L 788.819277 451.754112 
L 788.819277 451.754112 
" clip-path="url(#p7538b32258)" style="fill: none; stroke: #000000; stroke-width: 1.5; stroke-linecap: square"/>
   </g>
   <g id="line2d_5">
    <path d="M 0 459 
L 3.180723 459 
L 6.361446 456.614396 
L 9.542169 458.997494 
L 12.722892 459.708194 
L 15.903614 460.128958 
L 22.26506 462.025246 
L 25.445783 462.713441 
L 28.626506 462.966986 
L 31.807229 462.815515 
L 38.168675 462.310101 
L 41.349398 462.105298 
L 44.53012 462.143008 
L 57.253012 463.03004 
L 66.795181 464.274351 
L 69.975904 464.701027 
L 76.337349 464.465561 
L 79.518072 464.564063 
L 85.879518 465.047642 
L 89.060241 465.097156 
L 95.421687 465.327344 
L 98.60241 465.371906 
L 101.783133 465.114783 
L 104.963855 464.548071 
L 108.144578 464.141996 
L 114.506024 463.894429 
L 124.048193 462.622997 
L 130.409639 461.495757 
L 136.771084 460.613809 
L 143.13253 460.092726 
L 149.493976 459.935135 
L 152.674699 459.772114 
L 155.855422 459.392528 
L 159.036145 458.802819 
L 162.216867 456.830808 
L 165.39759 455.283109 
L 168.578313 453.302394 
L 174.939759 449.698556 
L 178.120482 447.118668 
L 184.481928 441.562129 
L 187.662651 439.856438 
L 190.843373 438.578757 
L 194.024096 436.339071 
L 197.204819 434.325518 
L 200.385542 432.802475 
L 203.566265 430.934158 
L 209.927711 426.559617 
L 216.289157 424.339626 
L 219.46988 423.793086 
L 222.650602 423.571555 
L 225.831325 422.841559 
L 229.012048 423.031043 
L 232.192771 423.475954 
L 235.373494 423.744997 
L 238.554217 423.430018 
L 241.73494 423.6426 
L 244.915663 424.686147 
L 248.096386 425.174579 
L 251.277108 426.189715 
L 257.638554 428.811073 
L 260.819277 429.825296 
L 264 430.712039 
L 267.180723 436.034532 
L 270.361446 443.311596 
L 273.542169 450.892175 
L 276.722892 457.818312 
L 279.903614 460.419023 
L 286.26506 463.410063 
L 289.445783 464.518941 
L 311.710843 470.123529 
L 327.614458 474.497508 
L 330.795181 475.282252 
L 333.975904 475.890798 
L 337.156627 476.657134 
L 346.698795 477.629195 
L 356.240964 478.091041 
L 365.783133 478.772491 
L 372.144578 478.685729 
L 388.048193 478.300537 
L 394.409639 477.646106 
L 400.771084 476.976329 
L 403.951807 476.551681 
L 410.313253 475.509968 
L 413.493976 475.084978 
L 416.674699 475.592269 
L 419.855422 475.645129 
L 423.036145 475.410371 
L 432.578313 474.15191 
L 435.759036 473.972838 
L 438.939759 474.249793 
L 445.301205 474.472089 
L 454.843373 474.198015 
L 461.204819 473.515503 
L 467.566265 471.736517 
L 470.746988 470.984131 
L 473.927711 470.474443 
L 486.650602 469.490986 
L 489.831325 469.590362 
L 508.915663 469.448297 
L 518.457831 468.555917 
L 521.638554 468.153348 
L 528 467.960858 
L 540.722892 468.107909 
L 543.903614 468.038104 
L 547.084337 468.097013 
L 550.26506 468.449921 
L 556.626506 468.888364 
L 562.987952 468.991921 
L 566.168675 469.302043 
L 569.349398 469.333654 
L 572.53012 469.209357 
L 578.891566 469.330485 
L 585.253012 470.001199 
L 588.433735 469.963113 
L 601.156627 470.276139 
L 610.698795 469.786895 
L 613.879518 469.399668 
L 626.60241 467.007343 
L 632.963855 465.74432 
L 636.144578 465.255372 
L 652.048193 463.368622 
L 655.228916 463.274187 
L 661.590361 462.594237 
L 664.771084 462.661886 
L 677.493976 459.656297 
L 680.674699 458.481329 
L 690.216867 451.242669 
L 693.39759 448.926877 
L 696.578313 446.949881 
L 706.120482 441.911865 
L 709.301205 440.87233 
L 712.481928 440.390036 
L 718.843373 440.038796 
L 722.024096 440.857419 
L 725.204819 440.883362 
L 728.385542 441.046172 
L 731.566265 441.414876 
L 734.746988 442.102527 
L 737.927711 443.432418 
L 741.108434 444.639953 
L 744.289157 445.411481 
L 747.46988 445.817336 
L 750.650602 446.643923 
L 757.012048 447.931969 
L 763.373494 449.958252 
L 772.915663 451.245756 
L 776.096386 450.737724 
L 782.457831 450.805925 
L 785.638554 450.502814 
L 788.819277 450.579754 
L 788.819277 450.579754 
" clip-path="url(#p7538b32258)" style="fill: none; stroke: #000000; stroke-width: 1.5; stroke-linecap: square"/>
   </g>
   <g id="line2d_6">
    <path d="M 0 459 
L 3.180723 459 
L 6.361446 456.663871 
L 9.542169 458.933006 
L 12.722892 459.650156 
L 15.903614 460.050807 
L 22.26506 461.79007 
L 25.445783 462.424246 
L 28.626506 462.679439 
L 31.807229 462.586566 
L 41.349398 462.058265 
L 44.53012 462.092416 
L 57.253012 462.799584 
L 66.795181 463.772971 
L 69.975904 464.109558 
L 76.337349 464.017911 
L 82.698795 464.296229 
L 85.879518 464.497983 
L 98.60241 464.838897 
L 101.783133 464.704845 
L 108.144578 464.123764 
L 114.506024 463.970267 
L 124.048193 463.160403 
L 130.409639 462.41865 
L 139.951807 461.566278 
L 146.313253 461.285116 
L 152.674699 461.004551 
L 159.036145 460.403204 
L 168.578313 459.132126 
L 171.759036 458.090341 
L 174.939759 456.786518 
L 178.120482 455.021765 
L 184.481928 451.174426 
L 187.662651 449.792291 
L 190.843373 448.634802 
L 197.204819 445.364259 
L 200.385542 444.032625 
L 203.566265 442.507911 
L 209.927711 439.079685 
L 216.289157 436.773485 
L 219.46988 435.931092 
L 222.650602 435.279912 
L 225.831325 434.377957 
L 229.012048 433.976639 
L 235.373494 433.434142 
L 238.554217 432.845979 
L 241.73494 432.550515 
L 244.915663 432.71727 
L 248.096386 432.62988 
L 251.277108 432.846113 
L 260.819277 434.025072 
L 264 434.315177 
L 267.180723 436.950504 
L 270.361446 440.716851 
L 273.542169 444.787417 
L 276.722892 448.66101 
L 279.903614 451.889545 
L 286.26506 457.614546 
L 289.445783 459.324922 
L 308.53012 463.216652 
L 324.433735 466.836727 
L 330.795181 468.260301 
L 340.337349 470.045338 
L 343.518072 470.575556 
L 365.783133 473.104515 
L 372.144578 473.524324 
L 388.048193 474.295651 
L 397.590361 474.256903 
L 403.951807 474.095551 
L 413.493976 473.602391 
L 416.674699 473.921595 
L 419.855422 474.016439 
L 426.216867 473.805942 
L 435.759036 473.39629 
L 442.120482 473.670706 
L 448.481928 473.72864 
L 454.843373 473.670611 
L 461.204819 473.355328 
L 470.746988 472.022869 
L 473.927711 471.720597 
L 486.650602 471.003032 
L 496.192771 470.874603 
L 508.915663 470.600047 
L 518.457831 469.995625 
L 521.638554 469.732233 
L 531.180723 469.476403 
L 540.722892 469.360219 
L 547.084337 469.257447 
L 553.445783 469.463648 
L 559.807229 469.531648 
L 562.987952 469.555026 
L 566.168675 469.69415 
L 578.891566 469.660563 
L 585.253012 469.993507 
L 594.795181 470.037865 
L 601.156627 470.164701 
L 613.879518 469.731975 
L 626.60241 468.403906 
L 636.144578 467.3106 
L 661.590361 465.191051 
L 664.771084 465.118167 
L 677.493976 463.101001 
L 699.759036 459.192063 
L 702.939759 458.057023 
L 706.120482 456.621143 
L 709.301205 455.462486 
L 712.481928 454.593056 
L 718.843373 453.216534 
L 722.024096 453.068495 
L 728.385542 452.135576 
L 731.566265 451.845445 
L 734.746988 451.747173 
L 741.108434 452.256895 
L 744.289157 452.320083 
L 747.46988 452.227805 
L 760.192771 452.874899 
L 763.373494 453.223818 
L 772.915663 453.49494 
L 776.096386 453.134667 
L 782.457831 452.963653 
L 785.638554 452.715613 
L 788.819277 452.659028 
L 788.819277 452.659028 
" clip-path="url(#p7538b32258)" style="fill: none; stroke: #000000; stroke-width: 1.5; stroke-linecap: square"/>
   </g>
   <g id="line2d_7">
    <path d="M 0 459 
L 3.180723 459 
L 6.361446 456.688629 
L 9.542169 458.901751 
L 12.722892 459.621501 
L 15.903614 460.011688 
L 22.26506 461.672957 
L 25.445783 462.278777 
L 28.626506 462.531488 
L 34.987952 462.287708 
L 41.349398 462.016335 
L 47.710843 462.192331 
L 54.072289 462.444685 
L 60.433735 462.931734 
L 69.975904 463.806709 
L 76.337349 463.763188 
L 82.698795 464.010591 
L 89.060241 464.249559 
L 98.60241 464.505451 
L 101.783133 464.418113 
L 108.144578 464.001937 
L 114.506024 463.897441 
L 127.228916 463.020282 
L 136.771084 462.296685 
L 143.13253 461.963132 
L 152.674699 461.650276 
L 159.036145 461.198158 
L 178.120482 459.186421 
L 181.301205 458.177852 
L 184.481928 456.765944 
L 187.662651 455.706401 
L 190.843373 454.787361 
L 197.204819 452.32617 
L 200.385542 451.280166 
L 203.566265 450.108953 
L 209.927711 447.512534 
L 216.289157 445.598388 
L 219.46988 444.832369 
L 222.650602 444.185804 
L 225.831325 443.387863 
L 232.192771 442.510477 
L 235.373494 442.090432 
L 238.554217 441.502805 
L 241.73494 441.094381 
L 244.915663 440.968906 
L 248.096386 440.699476 
L 251.277108 440.617516 
L 264 440.740496 
L 267.180723 442.125655 
L 270.361446 444.200951 
L 276.722892 448.702482 
L 279.903614 450.575652 
L 286.26506 453.980342 
L 289.445783 455.429757 
L 298.987952 459.062963 
L 308.53012 460.338922 
L 324.433735 462.783545 
L 337.156627 464.721809 
L 349.879518 466.156848 
L 359.421687 467.122911 
L 365.783133 467.760229 
L 375.325301 468.452371 
L 391.228916 469.384778 
L 403.951807 469.700918 
L 413.493976 469.722175 
L 416.674699 469.980016 
L 423.036145 470.177952 
L 435.759036 470.194631 
L 445.301205 470.58427 
L 454.843373 470.757271 
L 461.204819 470.717121 
L 473.927711 470.056622 
L 493.012048 469.821564 
L 508.915663 469.761183 
L 534.361446 469.246804 
L 547.084337 469.152715 
L 556.626506 469.310477 
L 566.168675 469.396989 
L 582.072289 469.497313 
L 588.433735 469.577445 
L 604.337349 469.663365 
L 613.879518 469.504349 
L 626.60241 468.816132 
L 639.325301 468.055454 
L 664.771084 466.826983 
L 677.493976 465.626974 
L 709.301205 462.208906 
L 718.843373 461.547368 
L 728.385542 461.084255 
L 734.746988 460.835469 
L 753.831325 460.456946 
L 769.73494 460.250313 
L 776.096386 460.081571 
L 788.819277 459.752406 
L 788.819277 459.752406 
" clip-path="url(#p7538b32258)" style="fill: none; stroke: #000000; stroke-width: 1.5; stroke-linecap: square"/>
   </g>
   <g id="line2d_8">
    <path d="M 0 459 
L 3.180723 459 
L 6.361446 456.70101 
L 9.542169 458.886377 
L 12.722892 459.607277 
L 15.903614 459.992144 
L 22.26506 461.614645 
L 25.445783 462.206038 
L 28.626506 462.456755 
L 34.987952 462.239041 
L 41.349398 461.990749 
L 47.710843 462.1584 
L 57.253012 462.610163 
L 69.975904 463.65541 
L 76.337349 463.630374 
L 82.698795 463.861011 
L 89.060241 464.083666 
L 98.60241 464.325661 
L 101.783133 464.257323 
L 108.144578 463.912386 
L 114.506024 463.829893 
L 127.228916 463.101433 
L 139.951807 462.344522 
L 149.493976 462.047545 
L 155.855422 461.765408 
L 165.39759 461.069184 
L 178.120482 459.913001 
L 184.481928 459.158043 
L 187.662651 458.598535 
L 190.843373 457.830055 
L 197.204819 455.816956 
L 203.566265 453.986738 
L 209.927711 451.86915 
L 216.289157 450.25877 
L 225.831325 448.33694 
L 232.192771 447.497487 
L 235.373494 447.093912 
L 238.554217 446.570155 
L 241.73494 446.177132 
L 254.457831 445.493478 
L 264 445.285141 
L 267.180723 446.180464 
L 270.361446 447.567354 
L 276.722892 450.61193 
L 283.084337 453.038384 
L 286.26506 454.208238 
L 289.445783 455.204898 
L 302.168675 458.644777 
L 305.349398 459.191251 
L 318.072289 460.530934 
L 346.698795 463.478111 
L 372.144578 465.354171 
L 391.228916 466.349919 
L 407.13253 466.76764 
L 413.493976 466.864177 
L 419.855422 467.193747 
L 429.39759 467.347009 
L 435.759036 467.441039 
L 448.481928 467.876212 
L 458.024096 468.043398 
L 464.385542 467.98816 
L 473.927711 467.800454 
L 502.554217 467.876673 
L 515.277108 467.86871 
L 531.180723 467.77235 
L 578.891566 468.115823 
L 591.614458 468.304027 
L 613.879518 468.35322 
L 632.963855 467.799845 
L 661.590361 466.995709 
L 664.771084 466.952886 
L 680.674699 466.075851 
L 715.662651 463.94027 
L 728.385542 463.469349 
L 737.927711 463.224513 
L 779.277108 462.431391 
L 788.819277 462.212516 
L 788.819277 462.212516 
" clip-path="url(#p7538b32258)" style="fill: none; stroke: #000000; stroke-width: 1.5; stroke-linecap: square"/>
   </g>
   <g id="line2d_9">
    <path d="M 0 459 
L 3.180723 459 
L 6.361446 456.707201 
L 9.542169 458.878755 
L 12.722892 459.600193 
L 15.903614 459.98238 
L 22.26506 461.585566 
L 25.445783 462.169693 
L 28.626506 462.419236 
L 34.987952 462.213959 
L 41.349398 461.976814 
L 47.710843 462.140447 
L 57.253012 462.577202 
L 69.975904 463.580037 
L 76.337349 463.562946 
L 82.698795 463.784968 
L 89.060241 463.99911 
L 98.60241 464.233239 
L 101.783133 464.173304 
L 108.144578 463.860934 
L 114.506024 463.788532 
L 127.228916 463.129354 
L 139.951807 462.442313 
L 162.216867 461.49417 
L 174.939759 460.563717 
L 190.843373 459.093491 
L 194.024096 458.366209 
L 200.385542 456.71456 
L 206.746988 454.91252 
L 209.927711 453.981878 
L 216.289157 452.538092 
L 225.831325 450.794747 
L 232.192771 450.007147 
L 244.915663 448.58337 
L 248.096386 448.30307 
L 254.457831 448.051009 
L 264 447.765282 
L 267.180723 448.462522 
L 270.361446 449.563503 
L 276.722892 451.992683 
L 283.084337 453.927229 
L 286.26506 454.861589 
L 289.445783 455.657483 
L 305.349398 459.052137 
L 321.253012 460.401911 
L 337.156627 461.832242 
L 356.240964 463.122407 
L 372.144578 464.07369 
L 391.228916 464.924145 
L 407.13253 465.318401 
L 413.493976 465.421818 
L 419.855422 465.699123 
L 458.024096 466.511365 
L 464.385542 466.501397 
L 477.108434 466.418627 
L 582.072289 467.056232 
L 601.156627 467.260165 
L 617.060241 467.2236 
L 658.409639 466.516893 
L 674.313253 466.118422 
L 702.939759 464.915563 
L 715.662651 464.45999 
L 734.746988 464.003283 
L 785.638554 463.265965 
L 788.819277 463.216819 
L 788.819277 463.216819 
" clip-path="url(#p7538b32258)" style="fill: none; stroke: #000000; stroke-width: 1.5; stroke-linecap: square"/>
   </g>
  </g>
 </g>
 <defs>
  <clipPath id="p7538b32258">
   <rect x="0" y="0" width="792" height="612"/>
  </clipPath>
 </defs>
</svg>
