<?xml version="1.0" encoding="utf-8" standalone="no"?>
<!DOCTYPE svg PUBLIC "-//W3C//DTD SVG 1.1//EN"
  "http://www.w3.org/Graphics/SVG/1.1/DTD/svg11.dtd">
<svg xmlns:xlink="http://www.w3.org/1999/xlink" width="792pt" height="612pt" viewBox="0 0 792 612" xmlns="http://www.w3.org/2000/svg" version="1.1">
 <metadata>
  <rdf:RDF xmlns:dc="http://purl.org/dc/elements/1.1/" xmlns:cc="http://creativecommons.org/ns#" xmlns:rdf="http://www.w3.org/1999/02/22-rdf-syntax-ns#">
   <cc:Work>
    <dc:type rdf:resource="http://purl.org/dc/dcmitype/StillImage"/>
    <dc:date>2023-01-30T17:17:45.600123</dc:date>
    <dc:format>image/svg+xml</dc:format>
    <dc:creator>
     <cc:Agent>
      <dc:title>Matplotlib v3.6.2, https://matplotlib.org/</dc:title>
     </cc:Agent>
    </dc:creator>
   </cc:Work>
  </rdf:RDF>
 </metadata>
 <defs>
  <style type="text/css">*{stroke-linejoin: round; stroke-linecap: butt}</style>
 </defs>
 <g id="figure_1">
  <g id="patch_1">
   <path d="M 0 612 
L 792 612 
L 792 0 
L 0 0 
z
" style="fill: #ffffff"/>
  </g>
  <g id="axes_1">
   <g id="line2d_1">
    <path d="M 0 459 
L 3.168 462.328459 
L 6.336 463.856277 
L 9.504 463.75806 
L 12.672 461.924679 
L 15.84 459.425606 
L 19.008 456.675555 
L 22.176 456.871984 
L 25.344 456.413651 
L 28.512 459.949429 
L 31.68 461.444508 
L 34.848 461.411769 
L 38.016 461.739158 
L 41.184 463.496148 
L 44.352 464.314622 
L 47.52 465.820613 
L 50.688 465.362268 
L 53.856 466.278959 
L 57.024 460.440514 
L 60.192 461.411769 
L 63.36 463.092368 
L 66.528 464.620185 
L 69.696 465.18766 
L 72.864 463.168759 
L 76.032 464.500143 
L 79.2 463.594365 
L 82.368 463.408845 
L 85.536 459.993081 
L 88.704 450.423395 
L 91.872 454.187552 
L 95.04 460.593295 
L 98.208 459.807561 
L 101.376 451.045233 
L 104.544 452.87818 
L 107.712 446.398674 
L 110.88 440.741309 
L 114.048 442.147023 
L 117.216 443.258743 
L 120.384 441.852777 
L 123.552 445.809838 
L 126.72 447.21657 
L 129.888 453.270982 
L 133.056 450.390667 
L 136.224 448.361749 
L 139.392 440.022237 
L 142.56 436.003792 
L 145.728 427.391548 
L 148.896 430.488396 
L 152.064 423.679168 
L 155.232 423.581534 
L 158.4 422.182478 
L 161.568 410.757924 
L 164.736 405.745472 
L 167.904 402.937584 
L 171.072 413.025506 
L 174.24 416.463556 
L 177.408 403.550445 
L 180.576 404.002155 
L 183.744 407.878305 
L 186.912 402.163733 
L 190.08 395.792381 
L 193.248 395.021729 
L 196.416 404.712204 
L 199.584 404.453974 
L 202.752 409.754463 
L 205.92 413.187564 
L 209.088 406.811603 
L 212.256 417.242665 
L 215.424 420.524026 
L 218.592 418.801608 
L 221.76 411.956214 
L 224.928 418.054496 
L 228.096 428.401795 
L 231.264 422.702978 
L 234.432 429.640567 
L 237.6 434.730359 
L 240.768 435.187447 
L 243.936 433.326752 
L 247.104 432.804601 
L 250.272 468.657989 
L 253.44 478.392368 
L 256.608 482.05913 
L 259.776 481.917261 
L 262.944 478.206847 
L 266.112 476.537161 
L 269.28 477.366548 
L 272.448 474.496434 
L 275.616 471.790014 
L 278.784 471.62632 
L 281.952 475.096648 
L 285.12 472.848573 
L 288.288 475.238516 
L 291.456 475.729601 
L 294.624 477.366548 
L 297.792 478.534237 
L 300.96 479.931098 
L 304.128 479.189016 
L 307.296 481.688088 
L 310.464 481.633524 
L 313.632 481.720827 
L 316.8 480.367618 
L 319.968 482.910342 
L 323.136 478.676106 
L 326.304 480.291227 
L 329.472 477.093723 
L 332.64 476.984593 
L 335.808 476.548074 
L 338.976 478.457846 
L 342.144 478.94893 
L 345.312 479.319971 
L 348.48 478.174108 
L 351.648 476.406205 
L 354.816 475.445863 
L 357.984 475.238516 
L 364.32 475.096648 
L 367.488 475.511341 
L 370.656 475.183951 
L 373.824 472.510271 
L 376.992 471.146148 
L 380.16 471.473538 
L 383.328 470.611412 
L 386.496 469.43281 
L 389.664 467.348431 
L 392.832 467.719472 
L 396 467.926819 
L 399.168 478.883452 
L 402.336 473.852568 
L 405.504 470.404066 
L 408.672 467.89408 
L 411.84 467.359344 
L 415.008 467.206562 
L 418.176 469.585592 
L 421.344 474.965692 
L 427.68 472.739444 
L 430.848 471.364408 
L 434.016 471.069757 
L 437.184 470.327675 
L 440.352 467.708559 
L 443.52 467.293866 
L 446.688 459.905777 
L 449.856 459.742083 
L 453.024 460.233167 
L 456.192 462.470328 
L 459.36 465.144009 
L 462.528 465.766049 
L 468.864 463.725321 
L 472.032 468.385164 
L 475.2 466.988302 
L 478.368 467.424822 
L 481.536 467.348431 
L 484.704 465.242225 
L 487.872 466.857347 
L 491.04 467.577603 
L 494.208 463.86719 
L 497.376 463.114194 
L 500.544 462.666762 
L 503.712 461.324465 
L 506.88 464.434665 
L 510.048 464.762054 
L 513.216 466.344437 
L 516.384 466.65 
L 519.552 465.40592 
L 522.72 466.257133 
L 525.888 464.925749 
L 529.056 466.43174 
L 532.224 470.065763 
L 535.392 468.701641 
L 538.56 469.094508 
L 541.728 466.737304 
L 544.896 467.67582 
L 548.064 470.458631 
L 551.232 467.370257 
L 554.4 465.493224 
L 560.736 468.29786 
L 563.904 471.70271 
L 567.072 470.873324 
L 570.24 467.217475 
L 573.408 468.854422 
L 576.576 467.643081 
L 579.744 469.661983 
L 582.912 468.636163 
L 586.08 465.613267 
L 589.248 466.02796 
L 592.416 465.667832 
L 598.752 459.862126 
L 601.92 459.141869 
L 605.088 455.922585 
L 608.256 457.264844 
L 611.424 451.437988 
L 614.592 452.027141 
L 617.76 454.122081 
L 620.928 457.199367 
L 624.096 457.297583 
L 627.264 456.479127 
L 630.432 451.63437 
L 633.6 450.521578 
L 636.768 459.796648 
L 639.936 451.928947 
L 643.104 451.20888 
L 646.272 460.97525 
L 649.44 435.318052 
L 652.608 431.858377 
L 655.776 433.489938 
L 658.944 426.218745 
L 662.112 423.223572 
L 665.28 421.466946 
L 668.448 419.094015 
L 671.616 416.982935 
L 674.784 415.554907 
L 681.12 419.094015 
L 684.288 416.009189 
L 687.456 416.496014 
L 690.624 421.597029 
L 693.792 427.326381 
L 696.96 429.868809 
L 700.128 430.945001 
L 703.296 442.277804 
L 706.464 433.424663 
L 709.632 435.154796 
L 712.8 437.832927 
L 715.968 442.114328 
L 719.136 450.65249 
L 722.304 450.48885 
L 725.472 446.398674 
L 728.64 442.702859 
L 731.808 448.263585 
L 734.976 447.314722 
L 738.144 447.183852 
L 741.312 455.431527 
L 744.48 452.616317 
L 747.648 453.794731 
L 750.816 447.870941 
L 753.984 447.34744 
L 757.152 448.95075 
L 760.32 437.473578 
L 763.488 443.454949 
L 766.656 443.749268 
L 769.824 439.597375 
L 772.992 443.912784 
L 776.16 442.343195 
L 779.328 445.221046 
L 782.496 456.904722 
L 785.664 460.495078 
L 788.832 457.886878 
L 788.832 457.886878 
" clip-path="url(#pc125652aee)" style="fill: none; stroke: #000000; stroke-width: 1.5; stroke-linecap: square"/>
   </g>
   <g id="line2d_2">
    <path d="M 0 459 
L 3.168 459 
L 6.336 461.218973 
L 9.504 462.726004 
L 12.672 463.276434 
L 15.84 462.578754 
L 19.008 460.977155 
L 22.176 459.590332 
L 25.344 458.813837 
L 28.512 457.608663 
L 31.68 459.23816 
L 34.848 460.336605 
L 41.184 461.304009 
L 44.352 462.40806 
L 47.52 463.373281 
L 50.688 464.611712 
L 53.856 465.001155 
L 57.024 465.652468 
L 60.192 463.044522 
L 63.36 462.228146 
L 66.528 462.66291 
L 69.696 463.643752 
L 72.864 464.417418 
L 76.032 463.787889 
L 79.2 464.142325 
L 85.536 463.641783 
L 88.704 461.81465 
L 91.872 458.892282 
L 95.04 456.497357 
L 98.208 459.370528 
L 101.376 459.582454 
L 104.544 455.847995 
L 107.712 454.324013 
L 110.88 450.310068 
L 114.048 445.482597 
L 117.216 443.798386 
L 120.384 443.507143 
L 123.552 442.636951 
L 129.888 445.696951 
L 133.056 449.484088 
L 136.224 449.945198 
L 139.392 449.168394 
L 142.56 444.589716 
L 145.728 440.280888 
L 148.896 433.802889 
L 152.064 432.115287 
L 155.232 427.848518 
L 158.4 425.656258 
L 161.568 423.863724 
L 164.736 417.228787 
L 167.904 411.412679 
L 171.072 407.106142 
L 174.24 410.035715 
L 177.408 413.219977 
L 180.576 408.340146 
L 183.744 406.131696 
L 186.912 406.976864 
L 190.08 404.551946 
L 193.248 400.147207 
L 196.416 397.567009 
L 199.584 401.119809 
L 202.752 402.76268 
L 209.088 409.742787 
L 212.256 408.274579 
L 215.424 412.783774 
L 218.592 416.699554 
L 221.76 417.797229 
L 224.928 414.889165 
L 228.096 416.49805 
L 231.264 422.48035 
L 234.432 422.610353 
L 237.6 426.168419 
L 240.768 430.481234 
L 243.936 432.862444 
L 247.104 433.123131 
L 250.272 433.004879 
L 253.44 459.537603 
L 256.608 469.023039 
L 259.776 475.610071 
L 262.944 478.827817 
L 266.112 478.57087 
L 269.28 477.60398 
L 272.448 477.538074 
L 275.616 476.064779 
L 278.784 473.933538 
L 281.952 472.766662 
L 285.12 473.918003 
L 288.288 473.365506 
L 291.456 474.296191 
L 294.624 475.011312 
L 300.96 477.369501 
L 304.128 478.666262 
L 307.296 478.942468 
L 310.464 480.328203 
L 313.632 480.998088 
L 316.8 481.372168 
L 319.968 480.878987 
L 323.136 481.905535 
L 326.304 480.291098 
L 329.472 480.291869 
L 332.64 478.688688 
L 335.808 477.827418 
L 338.976 477.177775 
L 345.312 478.377389 
L 348.48 478.841641 
L 351.648 478.50689 
L 357.984 476.444165 
L 361.152 475.837917 
L 364.32 475.491826 
L 367.488 475.287646 
L 370.656 475.392753 
L 373.824 475.280243 
L 380.16 472.504836 
L 383.328 471.981398 
L 386.496 471.287332 
L 389.664 470.348859 
L 392.832 468.833452 
L 396 468.261184 
L 399.168 468.079772 
L 402.336 473.494108 
L 405.504 473.678645 
L 408.672 472.039258 
L 411.84 469.961341 
L 415.008 468.656277 
L 418.176 467.931141 
L 421.344 468.762026 
L 424.512 471.87766 
L 427.68 472.860728 
L 430.848 472.797903 
L 434.016 472.083039 
L 437.184 471.582625 
L 440.352 470.96097 
L 443.52 469.335749 
L 446.688 468.310314 
L 449.856 464.078516 
L 453.024 461.882611 
L 456.192 461.033367 
L 459.36 461.734408 
L 462.528 463.427589 
L 465.696 464.587874 
L 468.864 464.641797 
L 472.032 464.176562 
L 475.2 466.297489 
L 481.536 467.055064 
L 484.704 467.211312 
L 487.872 466.226961 
L 491.04 466.544294 
L 494.208 467.066576 
L 497.376 465.467161 
L 500.544 464.280342 
L 503.712 463.465078 
L 506.88 462.38281 
L 510.048 463.403024 
L 513.216 464.081598 
L 516.384 465.212011 
L 519.552 465.929187 
L 522.72 465.670571 
L 525.888 465.970014 
L 529.056 465.452311 
L 532.224 465.95204 
L 535.392 468.019943 
L 541.728 468.736904 
L 544.896 467.737275 
L 548.064 467.710999 
L 551.232 469.093053 
L 554.4 468.236448 
L 557.568 466.862996 
L 560.736 466.897703 
L 563.904 467.59699 
L 567.072 469.654964 
L 570.24 470.272254 
L 573.408 468.743966 
L 576.576 468.796049 
L 579.744 468.2201 
L 582.912 468.949215 
L 586.08 468.796006 
L 589.248 467.199372 
L 592.416 466.602539 
L 595.584 466.124979 
L 598.752 464.408859 
L 601.92 462.11786 
L 605.088 460.613195 
L 608.256 459.27077 
L 611.424 458.478488 
L 614.592 454.904274 
L 617.76 453.410647 
L 620.928 453.71758 
L 624.096 455.433068 
L 627.264 456.356905 
L 630.432 456.412239 
L 633.6 454.014761 
L 636.768 452.254851 
L 639.936 456.841685 
L 643.104 454.384991 
L 646.272 452.791149 
L 649.44 458.873409 
L 652.608 447.044773 
L 655.776 439.397964 
L 658.944 436.407473 
L 662.112 431.262099 
L 665.28 427.16577 
L 668.448 424.255463 
L 671.616 421.610803 
L 674.784 419.202322 
L 677.952 417.339307 
L 681.12 417.294997 
L 684.288 418.166199 
L 687.456 417.067472 
L 690.624 416.768551 
L 693.792 419.181935 
L 696.96 423.26747 
L 700.128 426.591748 
L 703.296 428.797924 
L 706.464 435.581835 
L 709.632 434.531278 
L 712.8 434.880667 
L 715.968 436.398507 
L 719.136 439.295955 
L 722.304 445.017865 
L 725.472 447.79344 
L 728.64 447.126373 
L 731.808 444.915122 
L 734.976 446.618311 
L 738.144 446.990374 
L 741.312 447.10546 
L 744.48 451.293977 
L 747.648 451.958983 
L 750.816 452.883315 
L 753.984 450.379758 
L 757.152 448.8726 
L 760.32 448.913022 
L 763.488 443.171543 
L 769.824 443.504706 
L 772.992 441.525212 
L 776.16 442.699525 
L 779.328 442.510523 
L 782.496 443.861484 
L 788.832 456.991639 
L 788.832 456.991639 
" clip-path="url(#pc125652aee)" style="fill: none; stroke: #000000; stroke-width: 1.5; stroke-linecap: square"/>
   </g>
   <g id="line2d_3">
    <path d="M 0 459 
L 3.168 459 
L 6.336 460.949766 
L 9.504 462.266653 
L 12.672 462.849084 
L 15.84 462.520191 
L 22.176 460.437188 
L 25.344 459.76657 
L 28.512 459.267479 
L 31.68 459.473661 
L 34.848 460.063952 
L 41.184 460.842351 
L 47.52 462.417678 
L 50.688 463.418283 
L 57.024 464.668473 
L 60.192 463.426209 
L 63.36 462.833498 
L 66.528 462.910661 
L 72.864 463.943849 
L 76.032 463.722433 
L 79.2 463.957527 
L 85.536 463.726825 
L 88.704 462.631607 
L 91.872 460.724063 
L 95.04 459.742228 
L 98.208 459.987226 
L 101.376 459.927696 
L 104.544 458.60675 
L 107.712 456.896685 
L 110.88 453.801732 
L 114.048 449.945323 
L 117.216 447.627064 
L 123.552 444.963193 
L 126.72 445.181667 
L 129.888 445.745161 
L 133.056 447.926466 
L 136.224 448.623085 
L 139.392 448.530906 
L 142.56 446.025819 
L 145.728 443.067842 
L 148.896 438.429094 
L 152.064 436.066341 
L 155.232 432.402532 
L 158.4 429.782991 
L 161.568 427.527226 
L 167.904 417.588479 
L 171.072 413.240973 
L 174.24 413.144914 
L 177.408 414.082917 
L 180.576 410.942654 
L 183.744 408.851164 
L 186.912 408.517692 
L 190.08 406.601816 
L 193.248 403.378641 
L 196.416 400.88005 
L 199.584 401.975755 
L 202.752 402.671561 
L 205.92 404.727526 
L 209.088 407.18993 
L 212.256 407.061517 
L 218.592 413.127112 
L 221.76 414.806002 
L 224.928 413.969723 
L 228.096 415.167235 
L 231.264 419.065527 
L 234.432 420.151951 
L 237.6 422.953048 
L 240.768 426.435828 
L 243.936 429.042436 
L 247.104 430.341048 
L 250.272 431.094848 
L 253.44 447.828427 
L 256.608 462.087409 
L 259.776 467.981075 
L 262.944 472.10928 
L 266.112 473.933309 
L 272.448 475.539367 
L 275.616 475.269773 
L 278.784 474.280985 
L 281.952 473.529686 
L 285.12 474.021053 
L 288.288 473.704804 
L 294.624 474.663602 
L 300.96 476.411435 
L 304.128 477.455269 
L 307.296 477.963987 
L 310.464 479.054325 
L 313.632 479.809429 
L 316.8 480.3733 
L 319.968 480.376036 
L 323.136 481.124685 
L 326.304 480.412313 
L 329.472 480.386612 
L 332.64 479.428427 
L 338.976 478.084439 
L 345.312 478.42129 
L 348.48 478.686752 
L 351.648 478.536188 
L 361.152 476.605894 
L 367.488 475.849698 
L 373.824 475.571811 
L 376.992 474.668024 
L 380.16 473.625987 
L 386.496 472.285367 
L 389.664 471.4417 
L 392.832 470.230049 
L 396 469.48182 
L 399.168 469.013284 
L 402.336 471.905004 
L 405.504 472.472499 
L 408.672 471.860878 
L 411.84 470.690594 
L 415.008 469.705944 
L 418.176 468.964829 
L 421.344 469.13984 
L 424.512 470.845942 
L 427.68 471.731313 
L 430.848 472.028418 
L 437.184 471.610549 
L 440.352 471.235832 
L 443.52 470.203131 
L 446.688 469.350538 
L 449.856 466.575019 
L 453.024 464.551713 
L 456.192 463.271197 
L 459.36 463.027515 
L 465.696 464.263889 
L 468.864 464.390946 
L 472.032 464.189258 
L 475.2 465.410652 
L 481.536 466.315643 
L 484.704 466.613526 
L 487.872 466.205188 
L 491.04 466.392215 
L 494.208 466.739257 
L 500.544 465.083578 
L 503.712 464.379068 
L 506.88 463.485649 
L 513.216 464.057204 
L 519.552 465.293019 
L 522.72 465.328017 
L 525.888 465.597704 
L 529.056 465.398524 
L 532.224 465.700006 
L 535.392 466.981827 
L 541.728 467.962181 
L 544.896 467.602458 
L 548.064 467.62832 
L 551.232 468.465734 
L 554.4 468.150279 
L 557.568 467.376834 
L 560.736 467.253133 
L 563.904 467.563188 
L 567.072 468.78178 
L 570.24 469.39923 
L 573.408 468.76229 
L 576.576 468.792258 
L 579.744 468.458793 
L 582.912 468.814909 
L 586.08 468.760914 
L 589.248 467.835442 
L 595.584 466.822503 
L 598.752 465.612397 
L 601.92 463.91601 
L 608.256 461.171612 
L 611.424 460.356366 
L 614.592 459.207166 
L 617.76 457.345233 
L 620.928 456.354648 
L 627.264 456.748377 
L 630.432 456.636838 
L 636.768 453.734577 
L 639.936 455.95662 
L 643.104 454.744529 
L 646.272 453.676969 
L 649.44 456.965526 
L 652.608 450.589699 
L 655.776 445.066054 
L 658.944 441.64723 
L 662.112 437.087053 
L 665.28 432.988855 
L 668.448 429.57505 
L 671.616 426.461392 
L 674.784 423.635905 
L 677.952 421.218753 
L 681.12 420.027805 
L 684.288 419.717054 
L 687.456 418.591011 
L 690.624 417.925929 
L 693.792 418.965974 
L 700.128 423.82726 
L 703.296 425.905379 
L 706.464 430.705819 
L 709.632 431.501877 
L 712.8 432.581721 
L 715.968 434.135904 
L 719.136 436.495133 
L 722.304 440.674796 
L 725.472 443.586506 
L 728.64 444.445598 
L 731.808 443.964378 
L 734.976 445.256934 
L 738.144 445.895663 
L 741.312 446.308303 
L 744.48 449.018656 
L 750.816 451.210553 
L 757.152 449.406857 
L 760.32 449.291118 
L 763.488 445.830474 
L 766.656 445.141082 
L 769.824 444.73528 
L 772.992 443.217299 
L 776.16 443.413445 
L 779.328 443.0953 
L 782.496 443.720742 
L 785.664 447.590521 
L 788.832 452.263373 
L 788.832 452.263373 
" clip-path="url(#pc125652aee)" style="fill: none; stroke: #000000; stroke-width: 1.5; stroke-linecap: square"/>
   </g>
   <g id="line2d_4">
    <path d="M 0 459 
L 3.168 459 
L 6.336 460.808064 
L 9.504 462.004379 
L 12.672 462.562413 
L 15.84 462.387336 
L 22.176 460.881052 
L 28.512 459.88961 
L 31.68 459.901171 
L 38.016 460.411827 
L 41.184 460.647815 
L 47.52 461.689736 
L 50.688 462.390789 
L 57.024 463.45395 
L 60.192 462.955996 
L 63.36 462.702378 
L 66.528 462.766101 
L 72.864 463.411428 
L 76.032 463.372206 
L 79.2 463.554054 
L 85.536 463.536178 
L 88.704 462.96802 
L 91.872 461.874601 
L 95.04 461.158048 
L 101.376 460.866484 
L 104.544 460.145945 
L 107.712 459.635584 
L 110.88 458.581007 
L 114.048 455.720865 
L 117.216 453.544228 
L 123.552 450.288567 
L 126.72 449.568951 
L 129.888 449.188905 
L 133.056 449.832941 
L 136.224 449.911732 
L 139.392 449.65396 
L 142.56 448.103783 
L 145.728 446.154422 
L 148.896 443.13501 
L 152.064 441.090242 
L 155.232 438.281394 
L 158.4 435.903278 
L 161.568 433.691198 
L 164.736 429.996342 
L 171.072 422.340399 
L 174.24 420.816044 
L 177.408 420.088892 
L 180.576 417.404912 
L 183.744 415.224396 
L 186.912 414.014096 
L 190.08 412.087069 
L 193.248 409.451474 
L 196.416 407.111537 
L 202.752 406.301411 
L 205.92 406.824863 
L 209.088 407.811349 
L 212.256 407.627724 
L 215.424 409.140116 
L 218.592 410.934167 
L 221.76 412.168959 
L 224.928 412.116553 
L 228.096 413.043084 
L 231.264 415.469015 
L 234.432 416.599644 
L 237.6 418.657572 
L 240.768 421.200724 
L 243.936 423.419016 
L 247.104 424.991718 
L 250.272 426.236943 
L 253.44 436.067592 
L 256.608 449.016292 
L 259.776 459.891696 
L 262.944 463.418015 
L 266.112 465.793025 
L 269.28 467.524524 
L 272.448 469.113603 
L 275.616 469.989293 
L 281.952 470.524306 
L 285.12 471.273319 
L 288.288 471.543264 
L 294.624 472.745891 
L 300.96 474.329464 
L 304.128 475.245162 
L 307.296 475.895522 
L 310.464 476.840856 
L 316.8 478.302413 
L 319.968 478.652347 
L 323.136 479.35311 
L 326.304 479.267491 
L 329.472 479.452194 
L 338.976 478.440013 
L 345.312 478.55523 
L 348.48 478.694927 
L 351.648 478.62948 
L 357.984 477.827731 
L 364.32 477.047677 
L 367.488 476.735321 
L 373.824 476.322837 
L 376.992 475.715004 
L 380.16 474.987681 
L 386.496 473.818367 
L 389.664 473.118478 
L 392.832 472.19552 
L 396 471.478367 
L 399.168 470.907413 
L 402.336 472.176647 
L 405.504 472.4395 
L 408.672 472.110173 
L 415.008 470.774086 
L 418.176 470.197425 
L 421.344 470.093352 
L 424.512 470.863602 
L 427.68 471.337891 
L 430.848 471.556171 
L 437.184 471.446429 
L 440.352 471.26455 
L 446.688 470.144133 
L 449.856 468.503061 
L 453.024 467.097657 
L 456.192 465.995401 
L 459.36 465.426454 
L 468.864 465.309862 
L 472.032 465.050402 
L 475.2 465.576733 
L 484.704 466.257715 
L 487.872 466.092797 
L 494.208 466.430116 
L 500.544 465.554624 
L 503.712 465.085036 
L 506.88 464.478899 
L 513.216 464.512946 
L 519.552 465.097114 
L 522.72 465.143638 
L 525.888 465.315365 
L 529.056 465.247799 
L 532.224 465.432233 
L 535.392 466.168634 
L 541.728 466.971029 
L 544.896 466.933237 
L 548.064 467.051623 
L 551.232 467.600274 
L 554.4 467.568437 
L 557.568 467.241545 
L 560.736 467.1971 
L 563.904 467.374203 
L 567.072 468.066588 
L 570.24 468.516997 
L 573.408 468.312417 
L 576.576 468.398945 
L 579.744 468.279093 
L 582.912 468.500511 
L 586.08 468.522897 
L 589.248 468.060196 
L 595.584 467.406044 
L 598.752 466.65823 
L 608.256 463.500997 
L 611.424 462.689097 
L 614.592 461.695896 
L 617.76 460.891106 
L 620.928 460.325729 
L 633.6 459.023379 
L 636.768 457.683878 
L 639.936 458.256856 
L 646.272 456.249784 
L 649.44 457.617596 
L 655.776 450.465791 
L 658.944 447.734034 
L 665.28 440.875084 
L 671.616 434.714837 
L 674.784 431.845847 
L 677.952 429.202783 
L 681.12 427.265044 
L 684.288 425.918829 
L 687.456 424.295168 
L 690.624 423.014092 
L 693.792 422.752269 
L 696.96 423.447485 
L 703.296 425.457814 
L 706.464 428.118407 
L 709.632 428.948141 
L 712.8 429.92121 
L 715.968 431.170489 
L 719.136 432.903724 
L 722.304 435.721603 
L 725.472 438.06451 
L 728.64 439.382933 
L 731.808 439.902432 
L 734.976 441.229915 
L 738.144 442.195668 
L 741.312 442.980216 
L 744.48 444.962344 
L 750.816 447.384717 
L 760.32 447.706912 
L 763.488 446.084778 
L 766.656 445.678956 
L 769.824 445.385842 
L 772.992 444.477374 
L 776.16 444.404398 
L 779.328 444.093185 
L 782.496 444.290087 
L 785.664 446.319763 
L 788.832 449.079384 
L 788.832 449.079384 
" clip-path="url(#pc125652aee)" style="fill: none; stroke: #000000; stroke-width: 1.5; stroke-linecap: square"/>
   </g>
   <g id="line2d_5">
    <path d="M 0 459 
L 3.168 459 
L 6.336 460.736282 
L 9.504 461.867575 
L 12.672 462.403274 
L 15.84 462.290294 
L 25.344 460.607755 
L 28.512 460.229194 
L 31.68 460.18913 
L 41.184 460.646835 
L 47.52 461.363476 
L 50.688 461.856709 
L 57.024 462.659251 
L 60.192 462.431128 
L 63.36 462.328358 
L 66.528 462.404036 
L 72.864 462.866814 
L 76.032 462.895454 
L 82.368 463.096749 
L 85.536 463.125414 
L 88.704 462.840237 
L 91.872 462.235168 
L 95.04 461.80127 
L 101.376 461.526704 
L 110.88 460.195081 
L 117.216 459.027725 
L 123.552 456.354674 
L 126.72 455.450996 
L 129.888 454.747246 
L 133.056 454.621411 
L 136.224 454.261567 
L 139.392 453.760754 
L 142.56 452.59622 
L 145.728 451.191786 
L 148.896 449.1788 
L 152.064 447.600822 
L 155.232 445.582346 
L 161.568 441.914312 
L 164.736 439.289456 
L 171.072 433.640805 
L 174.24 431.910003 
L 177.408 430.615061 
L 180.576 428.342327 
L 183.744 426.300248 
L 186.912 424.757136 
L 190.08 422.863607 
L 196.416 418.449294 
L 202.752 416.227891 
L 205.92 415.673986 
L 209.088 415.449477 
L 212.256 414.709697 
L 215.424 414.901716 
L 218.592 415.352592 
L 221.76 415.62525 
L 224.928 415.306039 
L 228.096 415.521476 
L 231.264 416.579096 
L 234.432 417.074145 
L 237.6 418.103102 
L 243.936 420.76055 
L 247.104 421.788892 
L 250.272 422.688049 
L 253.44 428.086428 
L 256.608 435.470979 
L 259.776 443.167999 
L 262.944 450.204397 
L 266.112 455.732135 
L 269.28 459.460991 
L 272.448 460.951228 
L 275.616 462.078455 
L 297.792 467.775787 
L 313.632 472.222146 
L 316.8 473.019875 
L 319.968 473.638492 
L 323.136 474.417509 
L 332.64 475.405655 
L 342.144 475.875144 
L 351.648 476.567871 
L 357.984 476.479672 
L 373.824 476.088107 
L 380.16 475.422846 
L 386.496 474.741986 
L 389.664 474.31031 
L 396 473.25136 
L 399.168 472.819337 
L 402.336 473.335023 
L 405.504 473.388757 
L 408.672 473.150115 
L 418.176 471.870829 
L 421.344 471.688793 
L 424.512 471.970331 
L 430.848 472.196307 
L 440.352 471.917697 
L 446.688 471.223891 
L 453.024 469.415466 
L 456.192 468.650631 
L 459.36 468.132508 
L 472.032 467.132777 
L 475.2 467.233797 
L 494.208 467.089381 
L 503.712 466.182235 
L 506.88 465.773004 
L 513.216 465.577328 
L 525.888 465.726813 
L 529.056 465.655853 
L 532.224 465.715737 
L 535.392 466.074484 
L 541.728 466.520183 
L 548.064 466.625453 
L 551.232 466.940707 
L 554.4 466.972842 
L 557.568 466.846488 
L 560.736 466.851868 
L 563.904 466.96962 
L 570.24 467.651432 
L 573.408 467.612716 
L 586.08 467.930923 
L 595.584 467.433583 
L 598.752 467.039948 
L 611.424 464.608035 
L 617.76 463.324112 
L 620.928 462.827073 
L 636.768 460.909102 
L 639.936 460.813103 
L 646.272 460.121902 
L 649.44 460.19067 
L 652.608 459.433232 
L 655.776 457.926983 
L 658.944 455.887154 
L 674.784 443.523985 
L 677.952 441.172083 
L 681.12 439.164589 
L 690.624 434.050243 
L 693.792 432.995209 
L 696.96 432.505754 
L 703.296 432.149311 
L 706.464 432.980077 
L 709.632 433.006405 
L 712.8 433.171638 
L 715.968 433.545834 
L 719.136 434.243757 
L 722.304 435.593622 
L 725.472 436.819415 
L 728.64 437.602669 
L 731.808 438.01471 
L 734.976 438.853938 
L 741.312 440.161789 
L 744.48 441.416991 
L 750.816 443.276515 
L 760.32 444.344653 
L 763.488 443.759336 
L 769.824 443.705032 
L 772.992 443.34612 
L 776.16 443.380228 
L 779.328 443.279124 
L 782.496 443.427364 
L 785.664 444.534146 
L 788.832 446.098066 
L 788.832 446.098066 
" clip-path="url(#pc125652aee)" style="fill: none; stroke: #000000; stroke-width: 1.5; stroke-linecap: square"/>
   </g>
   <g id="line2d_6">
    <path d="M 0 459 
L 3.168 459 
L 6.336 460.700273 
L 9.504 461.798163 
L 12.672 462.320422 
L 15.84 462.234271 
L 25.344 460.734893 
L 28.512 460.393876 
L 31.68 460.34028 
L 44.352 460.941405 
L 53.856 461.932709 
L 57.024 462.273 
L 63.36 462.081626 
L 69.696 462.32357 
L 72.864 462.516071 
L 85.536 462.781561 
L 88.704 462.61332 
L 95.04 461.947932 
L 101.376 461.753609 
L 110.88 460.85713 
L 117.216 460.056269 
L 129.888 458.806962 
L 133.056 458.526832 
L 139.392 457.632478 
L 142.56 456.761421 
L 145.728 455.741561 
L 148.896 454.356826 
L 152.064 453.198697 
L 158.4 450.420962 
L 161.568 449.072947 
L 164.736 447.250334 
L 171.072 443.286194 
L 174.24 441.867661 
L 177.408 440.682629 
L 183.744 437.332817 
L 186.912 435.973145 
L 190.08 434.416302 
L 196.416 430.918128 
L 202.752 428.576363 
L 205.92 427.724874 
L 209.088 427.06949 
L 212.256 426.157461 
L 215.424 425.757954 
L 221.76 425.224325 
L 224.928 424.633209 
L 228.096 424.341075 
L 231.264 424.520734 
L 234.432 424.440388 
L 237.6 424.669582 
L 247.104 425.895058 
L 250.272 426.19759 
L 253.44 428.890927 
L 256.608 432.73675 
L 259.776 436.892151 
L 262.944 440.846094 
L 266.112 444.141511 
L 272.448 449.984018 
L 275.616 452.392191 
L 281.952 456.184217 
L 285.12 458.395711 
L 288.288 459.406031 
L 300.96 462.216104 
L 313.632 465.190088 
L 323.136 467.224761 
L 332.64 468.633773 
L 354.816 471.062532 
L 370.656 471.890841 
L 373.824 472.031304 
L 383.328 471.990124 
L 389.664 471.824926 
L 399.168 471.316779 
L 402.336 471.638895 
L 405.504 471.733116 
L 411.84 471.519136 
L 421.344 471.102705 
L 427.68 471.381662 
L 434.016 471.440555 
L 440.352 471.381565 
L 446.688 471.061065 
L 456.192 469.706557 
L 459.36 469.399283 
L 472.032 468.669844 
L 481.536 468.53929 
L 494.208 468.260191 
L 503.712 467.645766 
L 506.88 467.378016 
L 516.384 467.117953 
L 525.888 466.999846 
L 532.224 466.895374 
L 538.56 467.104987 
L 544.896 467.174112 
L 548.064 467.197877 
L 551.232 467.339303 
L 563.904 467.30516 
L 570.24 467.643614 
L 579.744 467.688706 
L 586.08 467.81764 
L 598.752 467.377754 
L 611.424 466.027709 
L 620.928 464.91631 
L 646.272 462.761687 
L 649.44 462.687597 
L 662.112 460.637052 
L 668.448 459.472952 
L 671.616 458.646303 
L 677.952 455.086153 
L 681.12 453.465078 
L 690.624 448.98791 
L 693.792 447.810659 
L 696.96 446.927343 
L 703.296 445.528954 
L 706.464 445.378572 
L 712.8 444.430926 
L 715.968 444.136228 
L 719.136 444.03641 
L 725.472 444.554155 
L 728.64 444.61834 
L 731.808 444.524607 
L 741.312 444.863143 
L 744.48 445.301645 
L 750.816 445.937339 
L 760.32 446.165157 
L 763.488 445.784656 
L 769.824 445.582947 
L 772.992 445.317825 
L 782.496 445.109061 
L 785.664 445.602494 
L 788.832 446.354743 
L 788.832 446.354743 
" clip-path="url(#pc125652aee)" style="fill: none; stroke: #000000; stroke-width: 1.5; stroke-linecap: square"/>
   </g>
   <g id="line2d_7">
    <path d="M 0 459 
L 3.168 459 
L 6.336 460.682253 
L 9.504 461.763259 
L 12.672 462.278278 
L 15.84 462.204462 
L 25.344 460.794524 
L 28.512 460.473127 
L 31.68 460.415507 
L 44.352 460.931099 
L 53.856 461.79755 
L 57.024 462.094966 
L 63.36 461.954653 
L 69.696 462.168263 
L 72.864 462.333154 
L 88.704 462.461191 
L 95.04 461.956712 
L 101.376 461.80743 
L 114.048 460.797799 
L 123.552 459.989454 
L 129.888 459.618461 
L 139.392 459.269724 
L 142.56 459.042638 
L 145.728 458.341738 
L 148.896 457.301715 
L 152.064 456.411728 
L 161.568 453.274318 
L 167.904 450.464463 
L 171.072 448.97942 
L 174.24 447.868675 
L 177.408 446.907963 
L 183.744 444.338078 
L 186.912 443.250127 
L 190.08 442.032842 
L 196.416 439.338537 
L 202.752 437.363921 
L 205.92 436.57757 
L 209.088 435.916437 
L 212.256 435.098327 
L 218.592 434.211063 
L 221.76 433.787083 
L 224.928 433.189324 
L 228.096 432.777796 
L 231.264 432.659675 
L 234.432 432.39218 
L 237.6 432.318728 
L 250.272 432.488133 
L 253.44 433.928597 
L 256.608 436.08032 
L 262.944 440.740774 
L 266.112 442.678778 
L 272.448 446.198228 
L 275.616 447.695326 
L 281.952 450.146489 
L 285.12 451.573764 
L 288.288 452.792711 
L 297.792 456.959559 
L 300.96 458.449301 
L 304.128 459.333512 
L 329.472 463.150467 
L 351.648 465.44156 
L 361.152 466.145869 
L 376.992 467.092518 
L 389.664 467.409846 
L 399.168 467.427295 
L 402.336 467.689525 
L 408.672 467.889132 
L 421.344 467.901068 
L 430.848 468.295459 
L 440.352 468.468684 
L 446.688 468.425536 
L 459.36 467.747569 
L 478.368 467.502797 
L 494.208 467.437627 
L 519.552 466.908512 
L 532.224 466.81061 
L 541.728 466.969919 
L 551.232 467.056706 
L 567.072 467.156826 
L 573.408 467.237659 
L 589.248 467.323357 
L 598.752 467.1605 
L 611.424 466.458801 
L 624.096 465.683608 
L 649.44 464.431943 
L 662.112 463.210362 
L 693.792 459.732112 
L 706.464 458.811945 
L 712.8 457.763653 
L 719.136 457.00437 
L 728.64 456.506643 
L 731.808 456.20872 
L 741.312 455.662249 
L 750.816 455.552979 
L 760.32 455.0791 
L 763.488 454.699492 
L 782.496 453.273933 
L 785.664 453.352091 
L 788.832 453.570189 
L 788.832 453.570189 
" clip-path="url(#pc125652aee)" style="fill: none; stroke: #000000; stroke-width: 1.5; stroke-linecap: square"/>
   </g>
   <g id="line2d_8">
    <path d="M 0 459 
L 3.168 459 
L 6.336 460.673242 
L 9.504 461.745765 
L 12.672 462.257041 
L 15.84 462.189121 
L 25.344 460.823218 
L 28.512 460.511758 
L 31.68 460.452745 
L 44.352 460.928559 
L 57.024 462.01118 
L 63.36 461.892088 
L 69.696 462.091028 
L 76.032 462.285907 
L 85.536 462.480664 
L 88.704 462.378227 
L 95.04 461.945161 
L 101.376 461.817362 
L 114.048 460.953313 
L 123.552 460.258948 
L 129.888 459.934989 
L 139.392 459.621562 
L 145.728 459.205108 
L 148.896 458.74384 
L 152.064 457.992076 
L 161.568 455.361508 
L 167.904 453.03943 
L 171.072 451.814038 
L 174.24 450.879625 
L 177.408 450.061784 
L 183.744 447.924194 
L 190.08 445.989745 
L 196.416 443.757591 
L 202.752 442.070001 
L 212.256 440.069032 
L 218.592 439.204708 
L 221.76 438.790108 
L 224.928 438.249348 
L 228.096 437.846565 
L 240.768 437.169832 
L 250.272 436.98041 
L 253.44 437.926439 
L 256.608 439.38543 
L 262.944 442.581703 
L 266.112 443.915334 
L 272.448 446.351215 
L 275.616 447.394436 
L 288.288 450.988406 
L 297.792 453.95945 
L 310.464 458.340288 
L 313.632 459.154367 
L 326.304 460.526392 
L 332.64 461.099168 
L 357.984 463.030698 
L 376.992 464.050288 
L 392.832 464.473396 
L 399.168 464.56982 
L 405.504 464.906512 
L 415.008 465.059822 
L 421.344 465.153676 
L 434.016 465.595806 
L 443.52 465.763504 
L 449.856 465.703909 
L 459.36 465.506984 
L 481.536 465.55522 
L 497.376 465.594769 
L 519.552 465.473806 
L 535.392 465.546888 
L 560.736 465.765357 
L 595.584 466.073674 
L 605.088 465.87186 
L 655.776 464.253815 
L 668.448 463.486441 
L 696.96 461.655721 
L 712.8 461.027443 
L 722.304 460.777023 
L 769.824 459.868748 
L 782.496 459.583037 
L 788.832 459.578929 
L 788.832 459.578929 
" clip-path="url(#pc125652aee)" style="fill: none; stroke: #000000; stroke-width: 1.5; stroke-linecap: square"/>
   </g>
   <g id="line2d_9">
    <path d="M 0 459 
L 3.168 459 
L 6.336 460.668736 
L 9.504 461.737008 
L 12.672 462.246383 
L 15.84 462.181343 
L 25.344 460.837268 
L 28.512 460.530797 
L 31.68 460.471234 
L 44.352 460.927923 
L 57.024 461.970751 
L 63.36 461.861263 
L 69.696 462.052807 
L 76.032 462.240422 
L 85.536 462.429028 
L 88.704 462.335521 
L 95.04 461.935701 
L 101.376 461.818143 
L 114.048 461.023017 
L 126.72 460.223435 
L 136.224 459.903492 
L 142.56 459.612339 
L 148.896 459.145972 
L 152.064 458.754009 
L 161.568 456.371323 
L 167.904 454.284514 
L 171.072 453.184973 
L 180.576 450.614578 
L 186.912 448.846504 
L 193.248 446.924451 
L 196.416 445.93445 
L 202.752 444.405686 
L 212.256 442.571304 
L 218.592 441.750831 
L 231.264 440.275183 
L 234.432 439.987167 
L 240.768 439.738072 
L 250.272 439.461535 
L 253.44 440.205609 
L 256.608 441.374614 
L 262.944 443.948023 
L 269.28 445.994983 
L 272.448 446.982199 
L 275.616 447.822724 
L 288.288 450.724577 
L 297.792 453.132443 
L 310.464 456.690918 
L 316.8 458.50301 
L 319.968 459.110382 
L 329.472 459.915371 
L 357.984 461.741296 
L 376.992 462.618527 
L 392.832 463.021279 
L 399.168 463.125875 
L 405.504 463.411017 
L 418.176 463.612332 
L 427.68 463.898213 
L 440.352 464.200927 
L 449.856 464.223585 
L 462.528 464.132856 
L 567.072 464.756997 
L 582.912 464.930239 
L 595.584 464.982251 
L 608.256 464.814187 
L 652.608 463.992113 
L 674.784 463.095627 
L 696.96 462.164106 
L 715.968 461.657187 
L 741.312 461.262118 
L 763.488 460.976783 
L 788.832 460.642222 
L 788.832 460.642222 
" clip-path="url(#pc125652aee)" style="fill: none; stroke: #000000; stroke-width: 1.5; stroke-linecap: square"/>
   </g>
  </g>
 </g>
 <defs>
  <clipPath id="pc125652aee">
   <rect x="0" y="0" width="792" height="612"/>
  </clipPath>
 </defs>
</svg>
