<?xml version="1.0" encoding="utf-8" standalone="no"?>
<!DOCTYPE svg PUBLIC "-//W3C//DTD SVG 1.1//EN"
  "http://www.w3.org/Graphics/SVG/1.1/DTD/svg11.dtd">
<svg xmlns:xlink="http://www.w3.org/1999/xlink" width="792pt" height="612pt" viewBox="0 0 792 612" xmlns="http://www.w3.org/2000/svg" version="1.1">
 <metadata>
  <rdf:RDF xmlns:dc="http://purl.org/dc/elements/1.1/" xmlns:cc="http://creativecommons.org/ns#" xmlns:rdf="http://www.w3.org/1999/02/22-rdf-syntax-ns#">
   <cc:Work>
    <dc:type rdf:resource="http://purl.org/dc/dcmitype/StillImage"/>
    <dc:date>2023-01-16T16:12:23.694526</dc:date>
    <dc:format>image/svg+xml</dc:format>
    <dc:creator>
     <cc:Agent>
      <dc:title>Matplotlib v3.6.2, https://matplotlib.org/</dc:title>
     </cc:Agent>
    </dc:creator>
   </cc:Work>
  </rdf:RDF>
 </metadata>
 <defs>
  <style type="text/css">*{stroke-linejoin: round; stroke-linecap: butt}</style>
 </defs>
 <g id="figure_1">
  <g id="patch_1">
   <path d="M 0 612 
L 792 612 
L 792 0 
L 0 0 
z
" style="fill: #ffffff"/>
  </g>
  <g id="axes_1">
   <g id="line2d_1">
    <path d="M 0 306 
L 3.180723 302.951266 
L 6.361446 311.839314 
L 9.542169 308.211441 
L 12.722892 305.978529 
L 15.903614 312.547555 
L 19.084337 309.005797 
L 22.26506 305.806764 
L 25.445783 302.393094 
L 28.626506 301.083639 
L 34.987952 306.128824 
L 38.168675 305.699411 
L 41.349398 309.56397 
L 44.53012 308.941391 
L 47.710843 305.935588 
L 50.891566 306.644119 
L 54.072289 309.456631 
L 57.253012 307.610285 
L 60.433735 308.96286 
L 63.614458 305.098234 
L 66.795181 307.803515 
L 69.975904 294.518584 
L 73.156627 307.910865 
L 76.337349 309.306355 
L 79.518072 309.005797 
L 82.698795 307.11647 
L 85.879518 302.028149 
L 89.060241 308.619358 
L 92.240964 304.217954 
L 95.421687 305.634999 
L 98.60241 299.28076 
L 101.783133 298.422403 
L 104.963855 308.469074 
L 108.144578 312.29002 
L 111.325301 304.454125 
L 114.506024 299.19492 
L 117.686747 307.202351 
L 120.86747 301.749081 
L 124.048193 302.285756 
L 127.228916 306.923236 
L 130.409639 306.730001 
L 133.590361 305.076764 
L 136.771084 308.597889 
L 139.951807 306.923236 
L 143.13253 309.971851 
L 146.313253 304.110605 
L 149.493976 304.668827 
L 152.674699 300.525563 
L 155.855422 303.359173 
L 159.036145 300.332391 
L 162.216867 308.039684 
L 165.39759 301.512951 
L 168.578313 305.935588 
L 171.759036 305.076764 
L 174.939759 298.44386 
L 178.120482 302.672177 
L 181.301205 304.132075 
L 184.481928 312.697779 
L 187.662651 308.275849 
L 190.843373 297.43544 
L 194.024096 306.300589 
L 197.204819 308.57642 
L 200.385542 302.199887 
L 203.566265 301.749081 
L 206.746988 305.484704 
L 209.927711 312.461711 
L 213.108434 305.828235 
L 216.289157 309.521035 
L 219.46988 308.275849 
L 222.650602 301.770547 
L 225.831325 312.91238 
L 229.012048 308.168501 
L 235.373494 301.470019 
L 238.554217 310.036252 
L 241.73494 312.82654 
L 244.915663 302.242821 
L 248.096386 310.572912 
L 251.277108 309.349291 
L 254.457831 306.300589 
L 257.638554 304.776178 
L 260.819277 305.656469 
L 264 342.031624 
L 267.180723 325.12687 
L 270.361446 313.212809 
L 273.542169 305.720881 
L 276.722892 298.701356 
L 279.903614 302.715114 
L 283.084337 307.631756 
L 286.26506 300.353854 
L 289.445783 300.675811 
L 292.626506 305.67794 
L 295.807229 312.82654 
L 298.987952 301.57735 
L 302.168675 310.701707 
L 305.349398 306.966177 
L 308.53012 309.220482 
L 311.710843 308.297319 
L 314.891566 308.748172 
L 318.072289 304.540005 
L 321.253012 310.916361 
L 324.433735 305.892647 
L 327.614458 306.171765 
L 330.795181 303.337704 
L 333.975904 311.002221 
L 337.156627 297.671437 
L 340.337349 309.177545 
L 343.518072 299.70998 
L 346.698795 305.785293 
L 349.879518 305.141175 
L 353.060241 309.757179 
L 356.240964 306.966177 
L 359.421687 306.730001 
L 362.60241 303.74562 
L 365.783133 302.521901 
L 372.144578 305.592057 
L 375.325301 305.828235 
L 378.506024 305.892647 
L 381.686747 306.815884 
L 384.86747 305.355881 
L 388.048193 300.740204 
L 391.228916 303.316235 
L 394.409639 306.644119 
L 397.590361 304.303834 
L 400.771084 303.681212 
L 403.951807 301.899347 
L 407.13253 306.730001 
L 410.313253 306.407943 
L 413.493976 327.520965 
L 416.674699 296.105471 
L 419.855422 299.21638 
L 423.036145 301.062174 
L 426.216867 304.947941 
L 429.39759 305.699411 
L 432.578313 310.680241 
L 435.759036 316.580821 
L 438.939759 303.831499 
L 442.120482 303.788559 
L 445.301205 303.294766 
L 448.481928 305.420293 
L 451.662651 304.540005 
L 454.843373 300.847526 
L 458.024096 305.184116 
L 461.204819 291.475279 
L 464.385542 305.67794 
L 467.566265 306.966177 
L 470.746988 310.401184 
L 473.927711 311.259796 
L 477.108434 307.223822 
L 480.289157 303.917377 
L 483.46988 304.067665 
L 486.650602 315.165234 
L 489.831325 303.251828 
L 493.012048 306.858825 
L 496.192771 305.849705 
L 499.373494 301.856414 
L 502.554217 309.177545 
L 505.73494 307.417054 
L 508.915663 298.701356 
L 512.096386 304.518535 
L 515.277108 305.119705 
L 518.457831 303.359173 
L 521.638554 312.118326 
L 524.819277 306.644119 
L 528 309.11314 
L 531.180723 306.601178 
L 534.361446 303.552396 
L 537.542169 307.674696 
L 540.722892 303.380642 
L 543.903614 308.96286 
L 547.084337 313.148433 
L 550.26506 303.316235 
L 553.445783 306.772943 
L 556.626506 301.36269 
L 559.807229 307.846455 
L 562.987952 311.474437 
L 566.168675 299.924599 
L 569.349398 302.307224 
L 572.53012 308.855516 
L 575.710843 308.662296 
L 578.891566 312.697779 
L 582.072289 304.368244 
L 585.253012 298.80865 
L 588.433735 309.220482 
L 591.614458 303.616804 
L 594.795181 309.971851 
L 597.975904 303.981786 
L 601.156627 300.053373 
L 604.337349 306.815884 
L 607.518072 305.291469 
L 610.698795 300.182149 
L 613.879518 300.396781 
L 617.060241 304.582946 
L 620.240964 303.702681 
L 623.421687 306.880295 
L 626.60241 302.178419 
L 629.783133 306.386472 
L 632.963855 307.374114 
L 636.144578 308.018214 
L 639.325301 306.064412 
L 642.506024 305.463234 
L 645.686747 302.822455 
L 648.86747 305.269999 
L 652.048193 313.126974 
L 655.228916 299.795826 
L 658.409639 305.527646 
L 661.590361 314.99362 
L 664.771084 286.595118 
L 667.951807 303.724151 
L 671.13253 307.073529 
L 674.313253 301.212431 
L 677.493976 304.024726 
L 680.674699 304.840589 
L 683.855422 304.432655 
L 687.036145 304.604416 
L 690.216867 305.055293 
L 693.39759 307.159411 
L 696.578313 307.180881 
L 699.759036 303.960316 
L 702.939759 306.32206 
L 706.120482 309.370759 
L 709.301205 309.778646 
L 712.481928 307.674696 
L 715.662651 306.708531 
L 718.843373 313.448851 
L 722.024096 300.182149 
L 725.204819 307.13794 
L 728.385542 307.760576 
L 731.566265 308.812579 
L 734.746988 311.603219 
L 737.927711 305.892647 
L 741.108434 303.316235 
L 744.289157 303.573865 
L 747.46988 309.649841 
L 750.650602 305.377351 
L 753.831325 305.914117 
L 757.012048 309.56397 
L 760.192771 306.772943 
L 763.373494 302.114018 
L 766.554217 305.656469 
L 769.73494 307.052059 
L 772.915663 298.465318 
L 776.096386 309.928917 
L 779.277108 306.193236 
L 782.457831 303.273297 
L 785.638554 308.834048 
L 788.819277 304.969412 
L 788.819277 304.969412 
" clip-path="url(#p8654f52e40)" style="fill: none; stroke: #000000; stroke-width: 1.5; stroke-linecap: square"/>
   </g>
   <g id="line2d_2">
    <path d="M 0 306 
L 3.180723 306 
L 6.361446 303.967473 
L 9.542169 308.466007 
L 12.722892 308.330238 
L 15.903614 307.11647 
L 19.084337 309.875419 
L 22.26506 309.437191 
L 25.445783 307.614916 
L 28.626506 304.99686 
L 31.807229 303.036467 
L 34.987952 303.321287 
L 38.168675 304.720945 
L 41.349398 305.209628 
L 44.53012 307.381018 
L 47.710843 308.161092 
L 50.891566 307.048607 
L 54.072289 306.854699 
L 57.253012 308.172122 
L 60.433735 307.898993 
L 63.614458 308.436491 
L 66.795181 306.766207 
L 69.975904 307.281413 
L 73.156627 300.869496 
L 76.337349 304.39384 
L 79.518072 306.855372 
L 82.698795 307.929725 
L 85.879518 307.522132 
L 89.060241 304.761444 
L 92.240964 306.697333 
L 95.421687 305.450604 
L 98.60241 305.564609 
L 101.783133 302.405386 
L 104.963855 300.39232 
L 111.325301 308.37023 
L 114.506024 306.416952 
L 117.686747 302.787011 
L 120.86747 305.000481 
L 124.048193 303.367087 
L 127.228916 302.832305 
L 130.409639 304.894392 
L 133.590361 305.808785 
L 136.771084 305.428628 
L 139.951807 307.021411 
L 143.13253 306.987479 
L 146.313253 308.485154 
L 149.493976 306.302526 
L 152.674699 305.490346 
L 155.855422 302.995213 
L 159.036145 303.170583 
L 162.216867 301.742094 
L 165.39759 304.889676 
L 168.578313 303.190621 
L 171.759036 304.555161 
L 174.939759 304.817856 
L 178.120482 301.618178 
L 181.301205 302.149375 
L 184.481928 303.142211 
L 187.662651 307.944711 
L 190.843373 308.110744 
L 194.024096 302.764112 
L 197.204819 304.533017 
L 200.385542 306.561605 
L 203.566265 304.388031 
L 206.746988 303.066691 
L 209.927711 304.278323 
L 213.108434 308.369978 
L 216.289157 307.094326 
L 219.46988 308.331417 
L 222.650602 308.307506 
L 225.831325 305.025572 
L 229.012048 308.990475 
L 232.192771 308.592079 
L 235.373494 306.725876 
L 238.554217 304.076253 
L 244.915663 309.952404 
L 248.096386 306.085798 
L 251.277108 308.34674 
L 254.457831 308.841035 
L 257.638554 307.567177 
L 260.819277 306.171513 
L 264 305.9222 
L 267.180723 324.102777 
L 270.361446 324.638951 
L 273.542169 318.95187 
L 279.903614 305.494471 
L 283.084337 304.097723 
L 286.26506 305.870334 
L 289.445783 303.101462 
L 292.626506 301.807167 
L 295.807229 303.704281 
L 298.987952 308.265156 
L 302.168675 304.912999 
L 305.349398 307.831047 
L 308.53012 307.406951 
L 311.710843 308.316852 
L 314.891566 308.322661 
L 318.072289 308.551246 
L 321.253012 306.543418 
L 324.433735 308.726282 
L 327.614458 307.317954 
L 330.795181 306.735979 
L 333.975904 305.029697 
L 337.156627 308.019645 
L 340.337349 302.823802 
L 343.518072 306.001516 
L 346.698795 302.845944 
L 349.879518 304.305518 
L 353.060241 304.721871 
L 356.240964 307.246639 
L 362.60241 306.913385 
L 365.783133 305.341399 
L 368.963855 303.918556 
L 372.144578 304.02321 
L 375.325301 304.807247 
L 378.506024 305.319086 
L 381.686747 305.598288 
L 384.86747 306.206792 
L 388.048193 305.778642 
L 391.228916 303.253343 
L 394.409639 303.286347 
L 397.590361 304.970169 
L 400.771084 304.634474 
L 403.951807 304.153629 
L 407.13253 303.018618 
L 410.313253 304.8741 
L 413.493976 305.643082 
L 416.674699 316.648099 
L 419.855422 306.363065 
L 423.036145 302.77472 
L 426.216867 301.912059 
L 429.39759 303.432421 
L 432.578313 304.573347 
L 435.759036 307.634702 
L 438.939759 312.129015 
L 442.120482 307.934103 
L 445.301205 305.876396 
L 448.481928 304.593555 
L 451.662651 305.015468 
L 454.843373 304.776936 
L 458.024096 302.802586 
L 461.204819 303.982544 
L 464.385542 297.676233 
L 467.566265 301.679967 
L 470.746988 304.329177 
L 473.927711 307.37925 
L 477.108434 309.331106 
L 480.289157 308.282753 
L 483.46988 306.10609 
L 486.650602 305.084679 
L 489.831325 310.172545 
L 493.012048 306.70752 
L 496.192771 306.782962 
L 499.373494 306.307409 
L 502.554217 304.063371 
L 505.73494 306.624333 
L 508.915663 307.027557 
L 512.096386 302.853353 
L 518.457831 304.396029 
L 521.638554 303.870733 
L 524.819277 308.007184 
L 528 307.335046 
L 531.180723 308.223986 
L 534.361446 307.410992 
L 537.542169 305.491188 
L 540.722892 306.589138 
L 543.903614 304.981452 
L 547.084337 306.983185 
L 550.26506 310.068242 
L 553.445783 306.685797 
L 556.626506 306.724781 
L 559.807229 304.033314 
L 562.987952 305.948302 
L 566.168675 308.719042 
L 569.349398 304.314696 
L 572.53012 303.297881 
L 575.710843 306.068285 
L 578.891566 307.375798 
L 582.072289 310.048711 
L 585.253012 307.214476 
L 588.433735 302.993277 
L 591.614458 306.10247 
L 594.795181 304.866859 
L 597.975904 307.434483 
L 601.156627 305.698569 
L 604.337349 302.858825 
L 607.518072 304.825771 
L 610.698795 305.06043 
L 613.879518 302.623769 
L 617.060241 301.492916 
L 620.240964 303.03975 
L 623.421687 303.35892 
L 626.60241 305.125262 
L 629.783133 303.655954 
L 632.963855 305.020351 
L 636.144578 306.201319 
L 639.325301 307.125142 
L 645.686747 306.03629 
L 648.86747 304.427603 
L 652.048193 304.845641 
L 655.228916 309.008323 
L 658.409639 304.388788 
L 661.590361 304.954593 
L 664.771084 309.988856 
L 667.951807 298.242499 
L 671.13253 300.979513 
L 674.313253 304.034661 
L 677.493976 302.615518 
L 683.855422 304.081305 
L 690.216867 304.409248 
L 693.39759 304.768516 
L 696.578313 305.970699 
L 699.759036 306.576003 
L 702.939759 305.273535 
L 706.120482 305.802301 
L 709.301205 307.595467 
L 712.481928 308.697573 
L 715.662651 308.19216 
L 718.843373 307.453596 
L 722.024096 310.463983 
L 725.204819 305.309151 
L 728.385542 306.229778 
L 731.566265 306.998004 
L 734.746988 307.904213 
L 737.927711 309.757431 
L 741.108434 307.821618 
L 744.289157 305.562251 
L 747.46988 304.548678 
L 750.650602 307.117901 
L 753.831325 306.244176 
L 757.012048 306.075526 
L 760.192771 307.821281 
L 763.373494 307.287643 
L 766.554217 304.693328 
L 769.73494 305.179486 
L 772.915663 306.122593 
L 776.096386 302.271445 
L 779.277108 306.109122 
L 782.457831 306.151726 
L 785.638554 304.700148 
L 788.819277 306.771174 
L 788.819277 306.771174 
" clip-path="url(#p8654f52e40)" style="fill: none; stroke: #000000; stroke-width: 1.5; stroke-linecap: square"/>
   </g>
   <g id="line2d_3">
    <path d="M 0 306 
L 3.180723 306 
L 6.361446 304.214054 
L 9.542169 307.669214 
L 12.722892 307.880968 
L 15.903614 307.204112 
L 19.084337 308.992993 
L 22.26506 308.997107 
L 25.445783 308.000419 
L 28.626506 306.282102 
L 31.807229 304.710271 
L 34.987952 304.389191 
L 38.168675 304.9068 
L 41.349398 305.141543 
L 44.53012 306.447087 
L 47.710843 307.181731 
L 50.891566 306.815315 
L 54.072289 306.765913 
L 57.253012 307.561509 
L 60.433735 307.570937 
L 63.614458 307.979494 
L 66.795181 307.134595 
L 69.975904 307.325069 
L 73.156627 303.555968 
L 79.518072 306.151813 
L 82.698795 306.99685 
L 85.879518 307.035881 
L 89.060241 305.564378 
L 92.240964 306.462533 
L 95.421687 305.798965 
L 98.60241 305.747142 
L 101.783133 303.845257 
L 104.963855 302.247204 
L 108.144578 304.068321 
L 111.325301 306.482018 
L 114.506024 305.88288 
L 117.686747 303.916943 
L 120.86747 304.87851 
L 124.048193 303.970179 
L 127.228916 303.470345 
L 130.409639 304.478908 
L 133.590361 305.135618 
L 136.771084 305.116037 
L 139.951807 306.143411 
L 143.13253 306.369869 
L 146.313253 307.431529 
L 149.493976 306.457102 
L 152.674699 305.939516 
L 155.855422 304.356068 
L 159.036145 304.05821 
L 162.216867 302.953099 
L 165.39759 304.446995 
L 168.578313 303.590243 
L 171.759036 304.275707 
L 174.939759 304.514151 
L 178.120482 302.731456 
L 181.301205 302.709211 
L 184.481928 303.122963 
L 187.662651 305.93637 
L 190.843373 306.621229 
L 194.024096 303.919251 
L 197.204819 304.612498 
L 200.385542 305.778645 
L 203.566265 304.727565 
L 206.746988 303.856542 
L 209.927711 304.335853 
L 213.108434 306.730064 
L 216.289157 306.463385 
L 219.46988 307.368185 
L 222.650602 307.636725 
L 225.831325 305.914695 
L 229.012048 307.981208 
L 232.192771 308.042378 
L 235.373494 307.111738 
L 238.554217 305.446326 
L 241.73494 306.792773 
L 244.915663 308.577977 
L 248.096386 306.717778 
L 251.277108 307.849293 
L 254.457831 308.296856 
L 257.638554 307.717404 
L 260.819277 306.855134 
L 264 306.496236 
L 267.180723 316.990542 
L 270.361446 319.393665 
L 273.542169 317.589906 
L 276.722892 314.120102 
L 279.903614 309.588509 
L 283.084337 307.569139 
L 286.26506 307.590661 
L 289.445783 305.46959 
L 292.626506 304.054641 
L 295.807229 304.521875 
L 298.987952 306.966733 
L 302.168675 305.377799 
L 305.349398 306.938794 
L 308.53012 306.947579 
L 311.710843 307.618424 
L 318.072289 308.053653 
L 321.253012 307.00087 
L 324.433735 308.145143 
L 327.614458 307.485612 
L 330.795181 307.109381 
L 333.975904 306.005381 
L 337.156627 307.472913 
L 340.337349 304.59846 
L 343.518072 305.949435 
L 346.698795 304.114849 
L 349.879518 304.596015 
L 353.060241 304.759782 
L 356.240964 306.222451 
L 359.421687 306.440284 
L 362.60241 306.52228 
L 365.783133 305.703775 
L 368.963855 304.764637 
L 372.144578 304.572581 
L 384.86747 305.794047 
L 388.048193 305.659225 
L 391.228916 304.221872 
L 394.409639 303.949881 
L 397.590361 304.746956 
L 400.771084 304.615467 
L 403.951807 304.340149 
L 407.13253 303.616194 
L 410.313253 304.527913 
L 413.493976 305.078186 
L 416.674699 311.688639 
L 419.855422 307.116509 
L 423.036145 304.796676 
L 426.216867 303.697576 
L 429.39759 304.062782 
L 432.578313 304.54191 
L 435.759036 306.344324 
L 438.939759 309.356524 
L 442.120482 307.741898 
L 445.301205 306.584536 
L 448.481928 305.617118 
L 451.662651 305.560751 
L 454.843373 305.262766 
L 458.024096 303.96825 
L 461.204819 304.322589 
L 464.385542 300.539903 
L 470.746988 303.480715 
L 473.927711 305.520571 
L 477.108434 307.21341 
L 480.289157 307.219074 
L 483.46988 306.249977 
L 486.650602 305.60319 
L 489.831325 308.402974 
L 493.012048 306.893583 
L 496.192771 306.886929 
L 499.373494 306.586069 
L 502.554217 305.196619 
L 505.73494 306.367964 
L 508.915663 306.682784 
L 512.096386 304.337242 
L 515.277108 304.405335 
L 518.457831 304.613926 
L 521.638554 304.242268 
L 524.819277 306.551309 
L 528 306.573191 
L 531.180723 307.319318 
L 534.361446 307.112064 
L 537.542169 306.068857 
L 540.722892 306.530594 
L 543.903614 305.608124 
L 547.084337 306.593147 
L 550.26506 308.521855 
L 553.445783 306.998858 
L 556.626506 306.929927 
L 559.807229 305.292266 
L 562.987952 306.050882 
L 566.168675 307.64755 
L 569.349398 305.37936 
L 572.53012 304.478303 
L 575.710843 305.756626 
L 578.891566 306.610014 
L 582.072289 308.397463 
L 585.253012 307.214791 
L 588.433735 304.746863 
L 591.614458 306.058961 
L 594.795181 305.343928 
L 597.975904 306.700638 
L 601.156627 305.893766 
L 604.337349 304.179208 
L 607.518072 304.951511 
L 610.698795 305.055596 
L 613.879518 303.619233 
L 617.060241 302.662588 
L 620.240964 303.230379 
L 623.421687 303.370314 
L 626.60241 304.396065 
L 629.783133 303.739056 
L 639.325301 306.142334 
L 642.506024 306.115886 
L 645.686747 305.926849 
L 648.86747 305.009351 
L 652.048193 305.087173 
L 655.228916 307.457359 
L 658.409639 305.205044 
L 661.590361 305.299803 
L 664.771084 308.156795 
L 667.951807 301.818293 
L 671.13253 302.375492 
L 674.313253 303.755309 
L 677.493976 303.00396 
L 680.674699 303.30505 
L 683.855422 303.753013 
L 693.39759 304.404679 
L 696.578313 305.213463 
L 699.759036 305.794713 
L 702.939759 305.255919 
L 706.120482 305.560366 
L 709.301205 306.687442 
L 712.481928 307.59776 
L 715.662651 307.611885 
L 718.843373 307.370432 
L 722.024096 309.162257 
L 725.204819 306.524002 
L 728.385542 306.710627 
L 731.566265 307.022444 
L 734.746988 307.551337 
L 737.927711 308.746462 
L 741.108434 307.912106 
L 744.289157 306.564005 
L 747.46988 305.684081 
L 750.650602 306.84851 
L 753.831325 306.419246 
L 757.012048 306.270829 
L 760.192771 307.23563 
L 763.373494 307.09666 
L 766.554217 305.630833 
L 769.73494 305.637133 
L 772.915663 306.044207 
L 776.096386 303.82202 
L 779.277108 305.613932 
L 782.457831 305.781806 
L 785.638554 305.0407 
L 788.819277 306.148586 
L 788.819277 306.148586 
" clip-path="url(#p8654f52e40)" style="fill: none; stroke: #000000; stroke-width: 1.5; stroke-linecap: square"/>
   </g>
   <g id="line2d_4">
    <path d="M 0 306 
L 3.180723 306 
L 6.361446 304.343847 
L 9.542169 307.28581 
L 12.722892 307.580356 
L 15.903614 307.140613 
L 19.084337 308.471567 
L 22.26506 308.592528 
L 25.445783 308.001582 
L 31.807229 305.75298 
L 34.987952 305.357767 
L 41.349398 305.533785 
L 44.53012 306.237201 
L 47.710843 306.702007 
L 50.891566 306.571938 
L 54.072289 306.58406 
L 57.253012 307.062249 
L 60.433735 307.15281 
L 63.614458 307.450094 
L 66.795181 307.065811 
L 69.975904 307.185835 
L 73.156627 305.131405 
L 76.337349 305.580649 
L 79.518072 306.181335 
L 82.698795 306.635752 
L 85.879518 306.712953 
L 89.060241 305.961681 
L 92.240964 306.387333 
L 95.421687 306.040257 
L 98.60241 305.975478 
L 104.963855 303.869474 
L 108.144578 304.604719 
L 111.325301 305.827892 
L 114.506024 305.606975 
L 117.686747 304.582392 
L 120.86747 304.995897 
L 124.048193 304.474755 
L 127.228916 304.124264 
L 133.590361 304.919209 
L 136.771084 304.945174 
L 139.951807 305.527881 
L 143.13253 305.750651 
L 146.313253 306.422549 
L 149.493976 306.051692 
L 152.674699 305.830882 
L 155.855422 304.982879 
L 159.036145 304.720731 
L 162.216867 304.017908 
L 165.39759 304.657201 
L 168.578313 304.154666 
L 171.759036 304.436846 
L 174.939759 304.54525 
L 178.120482 303.568386 
L 181.301205 303.421654 
L 184.481928 303.531642 
L 187.662651 304.993619 
L 190.843373 305.519736 
L 194.024096 304.22618 
L 197.204819 304.557519 
L 200.385542 305.198778 
L 206.746988 304.252255 
L 209.927711 304.446477 
L 213.108434 305.721979 
L 216.289157 305.739742 
L 219.46988 306.347827 
L 222.650602 306.655258 
L 225.831325 305.878054 
L 229.012048 307.004055 
L 232.192771 307.190103 
L 235.373494 306.81854 
L 238.554217 305.965269 
L 241.73494 306.613911 
L 244.915663 307.606213 
L 248.096386 306.748036 
L 251.277108 307.360667 
L 254.457831 307.679996 
L 257.638554 307.464134 
L 260.819277 307.037359 
L 264 306.820978 
L 267.180723 312.470187 
L 270.361446 314.501255 
L 273.542169 314.300816 
L 276.722892 312.936644 
L 279.903614 310.672335 
L 283.084337 309.406484 
L 286.26506 309.126314 
L 289.445783 307.722853 
L 292.626506 306.59683 
L 295.807229 306.455776 
L 298.987952 307.473629 
L 302.168675 306.531103 
L 305.349398 307.200019 
L 308.53012 307.166069 
L 311.710843 307.495276 
L 318.072289 307.801563 
L 321.253012 307.279538 
L 324.433735 307.859868 
L 330.795181 307.326055 
L 333.975904 306.688475 
L 337.156627 307.378701 
L 340.337349 305.83155 
L 343.518072 306.363392 
L 346.698795 305.296486 
L 349.879518 305.376467 
L 353.060241 305.335642 
L 356.240964 306.039408 
L 362.60241 306.274845 
L 365.783133 305.871237 
L 368.963855 305.313567 
L 372.144578 305.109041 
L 381.686747 305.385457 
L 384.86747 305.615602 
L 388.048193 305.572859 
L 391.228916 304.804131 
L 394.409639 304.569044 
L 397.590361 304.899794 
L 403.951807 304.623018 
L 407.13253 304.184154 
L 410.313253 304.589052 
L 413.493976 304.876686 
L 416.674699 308.497091 
L 419.855422 306.517147 
L 423.036145 305.352071 
L 426.216867 304.663323 
L 429.39759 304.708017 
L 432.578313 304.865456 
L 435.759036 305.795244 
L 438.939759 307.51541 
L 445.301205 306.429454 
L 448.481928 305.93294 
L 451.662651 305.851148 
L 454.843373 305.642164 
L 458.024096 304.873688 
L 461.204819 304.921966 
L 464.385542 302.771403 
L 467.566265 303.235024 
L 470.746988 303.83141 
L 477.108434 305.899195 
L 480.289157 306.11082 
L 486.650602 305.489528 
L 489.831325 307.035521 
L 493.012048 306.435081 
L 496.192771 306.504711 
L 499.373494 306.400001 
L 502.554217 305.675533 
L 505.73494 306.236163 
L 508.915663 306.427491 
L 512.096386 305.193007 
L 521.638554 304.807466 
L 524.819277 305.978826 
L 528 306.088159 
L 531.180723 306.57206 
L 534.361446 306.577255 
L 537.542169 306.091534 
L 540.722892 306.337864 
L 543.903614 305.867068 
L 547.084337 306.362863 
L 550.26506 307.448816 
L 553.445783 306.789991 
L 556.626506 306.788672 
L 559.807229 305.925645 
L 562.987952 306.232918 
L 566.168675 307.079436 
L 569.349398 305.937362 
L 572.53012 305.35686 
L 575.710843 305.912556 
L 578.891566 306.348439 
L 582.072289 307.36222 
L 585.253012 306.886151 
L 588.433735 305.597501 
L 591.614458 306.170238 
L 594.795181 305.764198 
L 597.975904 306.435628 
L 601.156627 306.044043 
L 604.337349 305.089664 
L 607.518072 305.362837 
L 610.698795 305.350156 
L 613.879518 304.528731 
L 617.060241 303.868676 
L 620.240964 303.981983 
L 623.421687 303.937759 
L 626.60241 304.402647 
L 629.783133 304.045961 
L 636.144578 304.887657 
L 639.325301 305.388528 
L 645.686747 305.491294 
L 648.86747 305.062826 
L 652.048193 305.090871 
L 655.228916 306.375769 
L 658.409639 305.324388 
L 661.590361 305.359326 
L 664.771084 306.897047 
L 667.951807 303.647297 
L 671.13253 303.661896 
L 674.313253 304.207656 
L 677.493976 303.726298 
L 680.674699 303.770885 
L 687.036145 304.015205 
L 693.39759 304.259957 
L 699.759036 305.112711 
L 702.939759 304.929345 
L 706.120482 305.154841 
L 712.481928 306.458739 
L 715.662651 306.656879 
L 718.843373 306.669036 
L 722.024096 307.753477 
L 725.204819 306.546559 
L 731.566265 306.822454 
L 734.746988 307.140613 
L 737.927711 307.85335 
L 741.108434 307.540075 
L 744.289157 306.86633 
L 747.46988 306.341302 
L 750.650602 306.871987 
L 753.831325 306.634253 
L 757.012048 306.515176 
L 760.192771 307.006368 
L 763.373494 306.970006 
L 766.554217 306.189333 
L 769.73494 306.116462 
L 772.915663 306.267395 
L 776.096386 305.020446 
L 779.277108 305.806872 
L 782.457831 305.869697 
L 785.638554 305.455611 
L 788.819277 305.995891 
L 788.819277 305.995891 
" clip-path="url(#p8654f52e40)" style="fill: none; stroke: #000000; stroke-width: 1.5; stroke-linecap: square"/>
   </g>
   <g id="line2d_5">
    <path d="M 0 306 
L 3.180723 306 
L 6.361446 304.409598 
L 9.542169 307.103816 
L 12.722892 307.417683 
L 15.903614 307.077952 
L 19.084337 308.197903 
L 22.26506 308.345355 
L 25.445783 307.923982 
L 31.807229 306.218007 
L 34.987952 305.869546 
L 41.349398 305.877851 
L 44.53012 306.313239 
L 47.710843 306.61313 
L 54.072289 306.549563 
L 57.253012 306.855075 
L 60.433735 306.932724 
L 63.614458 307.137405 
L 66.795181 306.935421 
L 69.975904 307.02005 
L 73.156627 305.818207 
L 79.518072 306.325091 
L 82.698795 306.57372 
L 85.879518 306.623571 
L 89.060241 306.20517 
L 92.240964 306.423216 
L 95.421687 306.225491 
L 98.60241 306.172898 
L 104.963855 304.933875 
L 108.144578 305.243561 
L 111.325301 305.858076 
L 114.506024 305.736165 
L 117.686747 305.170242 
L 120.86747 305.345409 
L 127.228916 304.800709 
L 133.590361 305.131051 
L 136.771084 305.126435 
L 139.951807 305.421065 
L 143.13253 305.548318 
L 146.313253 305.922423 
L 152.674699 305.676644 
L 155.855422 305.242862 
L 159.036145 305.084438 
L 162.216867 304.685179 
L 165.39759 304.966698 
L 168.578313 304.677095 
L 174.939759 304.807154 
L 178.120482 304.274752 
L 181.301205 304.14078 
L 184.481928 304.140053 
L 187.662651 304.854688 
L 190.843373 305.140209 
L 194.024096 304.497312 
L 197.204819 304.647673 
L 200.385542 304.975138 
L 206.746988 304.49393 
L 209.927711 304.576984 
L 213.108434 305.231659 
L 216.289157 305.280397 
L 219.46988 305.633517 
L 222.650602 305.851433 
L 225.831325 305.510359 
L 229.012048 306.127107 
L 232.192771 306.298417 
L 235.373494 306.180435 
L 238.554217 305.788756 
L 241.73494 306.142573 
L 244.915663 306.699728 
L 248.096386 306.327425 
L 251.277108 306.680342 
L 254.457831 306.902974 
L 257.638554 306.852867 
L 264 306.593487 
L 267.180723 309.559304 
L 270.361446 310.859687 
L 273.542169 311.056773 
L 276.722892 310.617635 
L 279.903614 309.625671 
L 283.084337 309.050021 
L 286.26506 308.931868 
L 292.626506 307.591305 
L 295.807229 307.431549 
L 298.987952 307.882193 
L 302.168675 307.357583 
L 305.349398 307.638873 
L 308.53012 307.585824 
L 314.891566 307.768214 
L 318.072289 307.850946 
L 321.253012 307.577897 
L 324.433735 307.85621 
L 330.795181 307.569473 
L 333.975904 307.217087 
L 337.156627 307.532658 
L 340.337349 306.711646 
L 343.518072 306.916502 
L 346.698795 306.315971 
L 353.060241 306.177164 
L 356.240964 306.475963 
L 362.60241 306.537376 
L 372.144578 305.835633 
L 381.686747 305.825358 
L 384.86747 305.908916 
L 388.048193 305.863415 
L 391.228916 305.434274 
L 394.409639 305.256866 
L 397.590361 305.375 
L 403.951807 305.150706 
L 407.13253 304.880741 
L 413.493976 305.150021 
L 416.674699 307.014579 
L 419.855422 306.105719 
L 423.036145 305.530485 
L 426.216867 305.157252 
L 432.578313 305.184919 
L 435.759036 305.641855 
L 438.939759 306.55391 
L 448.481928 305.878618 
L 454.843373 305.73162 
L 458.024096 305.323454 
L 461.204819 305.311526 
L 464.385542 304.157955 
L 470.746988 304.495241 
L 477.108434 305.501177 
L 480.289157 305.644639 
L 486.650602 305.384292 
L 489.831325 306.198751 
L 493.012048 305.955105 
L 499.373494 306.017039 
L 502.554217 305.668132 
L 505.73494 305.961882 
L 508.915663 306.081587 
L 512.096386 305.466253 
L 521.638554 305.194863 
L 524.819277 305.772015 
L 528 305.843005 
L 531.180723 306.115471 
L 534.361446 306.155922 
L 537.542169 305.939906 
L 540.722892 306.082804 
L 543.903614 305.860389 
L 547.084337 306.11782 
L 550.26506 306.705813 
L 553.445783 306.423684 
L 556.626506 306.453202 
L 559.807229 306.027948 
L 562.987952 306.179165 
L 566.168675 306.620244 
L 569.349398 306.063223 
L 572.53012 305.751405 
L 578.891566 306.231671 
L 582.072289 306.770656 
L 585.253012 306.570769 
L 588.433735 305.923828 
L 591.614458 306.198705 
L 594.795181 305.98535 
L 597.975904 306.318398 
L 601.156627 306.1236 
L 604.337349 305.61835 
L 607.518072 305.718761 
L 610.698795 305.684401 
L 617.060241 304.822776 
L 623.421687 304.707175 
L 626.60241 304.890028 
L 629.783133 304.665327 
L 636.144578 305.022109 
L 639.325301 305.269908 
L 645.686747 305.343812 
L 648.86747 305.134227 
L 652.048193 305.146138 
L 655.228916 305.811129 
L 658.409639 305.310269 
L 661.590361 305.329834 
L 664.771084 306.135297 
L 667.951807 304.509795 
L 671.13253 304.443953 
L 674.313253 304.662229 
L 677.493976 304.372894 
L 687.036145 304.386626 
L 693.39759 304.455566 
L 699.759036 304.888805 
L 702.939759 304.811129 
L 706.120482 304.937982 
L 712.481928 305.677955 
L 718.843373 305.918849 
L 722.024096 306.546641 
L 725.204819 306.017322 
L 731.566265 306.246171 
L 734.746988 306.459081 
L 737.927711 306.887702 
L 741.108434 306.805879 
L 747.46988 306.2708 
L 750.650602 306.551484 
L 757.012048 306.407751 
L 760.192771 306.670625 
L 763.373494 306.680878 
L 766.554217 306.299965 
L 769.73494 306.244664 
L 772.915663 306.313995 
L 776.096386 305.661209 
L 779.277108 306.015779 
L 782.457831 306.029703 
L 785.638554 305.797859 
L 788.819277 306.051311 
L 788.819277 306.051311 
" clip-path="url(#p8654f52e40)" style="fill: none; stroke: #000000; stroke-width: 1.5; stroke-linecap: square"/>
   </g>
   <g id="line2d_6">
    <path d="M 0 306 
L 3.180723 306 
L 6.361446 304.442581 
L 9.542169 307.015943 
L 12.722892 307.334515 
L 15.903614 307.039329 
L 19.084337 308.059741 
L 22.26506 308.213076 
L 25.445783 307.864769 
L 31.807229 306.415136 
L 34.987952 306.104557 
L 41.349398 306.066955 
L 47.710843 306.619106 
L 54.072289 306.567898 
L 57.253012 306.794082 
L 69.975904 306.938366 
L 73.156627 306.103252 
L 79.518072 306.419526 
L 82.698795 306.581785 
L 85.879518 306.614661 
L 89.060241 306.337925 
L 92.240964 306.473151 
L 98.60241 306.301153 
L 104.963855 305.487104 
L 108.144578 305.651136 
L 111.325301 306.011823 
L 114.506024 305.928202 
L 117.686747 305.57072 
L 120.86747 305.656416 
L 127.228916 305.290103 
L 133.590361 305.442092 
L 136.771084 305.423757 
L 146.313253 305.860394 
L 152.674699 305.721468 
L 155.855422 305.471197 
L 159.036145 305.370058 
L 162.216867 305.130114 
L 165.39759 305.26796 
L 168.578313 305.090928 
L 174.939759 305.128046 
L 178.120482 304.817114 
L 184.481928 304.690741 
L 187.662651 305.058823 
L 190.843373 305.206167 
L 194.024096 304.85137 
L 203.566265 304.95287 
L 206.746988 304.808383 
L 209.927711 304.838799 
L 213.108434 305.180793 
L 216.289157 305.209765 
L 222.650602 305.530243 
L 225.831325 305.363121 
L 229.012048 305.698035 
L 232.192771 305.807405 
L 235.373494 305.765632 
L 238.554217 305.576145 
L 241.73494 305.772547 
L 244.915663 306.082699 
L 248.096386 305.914149 
L 254.457831 306.259749 
L 264 306.173151 
L 267.180723 307.741754 
L 270.361446 308.498901 
L 273.542169 308.70373 
L 276.722892 308.574287 
L 279.903614 308.146212 
L 283.084337 307.910976 
L 286.26506 307.898894 
L 292.626506 307.274703 
L 295.807229 307.20578 
L 298.987952 307.448257 
L 302.168675 307.195212 
L 305.349398 307.346249 
L 311.710843 307.411213 
L 318.072289 307.505107 
L 321.253012 307.377796 
L 324.433735 307.529664 
L 333.975904 307.229996 
L 337.156627 307.391579 
L 340.337349 306.975357 
L 343.518072 307.069602 
L 346.698795 306.754742 
L 353.060241 306.646087 
L 356.240964 306.779033 
L 362.60241 306.784592 
L 375.325301 306.343944 
L 388.048193 306.284166 
L 391.228916 306.047952 
L 394.409639 305.931593 
L 400.771084 305.891337 
L 410.313253 305.678034 
L 413.493976 305.709555 
L 416.674699 306.638408 
L 419.855422 306.189687 
L 426.216867 305.686137 
L 432.578313 305.656065 
L 435.759036 305.870467 
L 438.939759 306.327307 
L 451.662651 305.972708 
L 454.843373 305.911234 
L 458.024096 305.695683 
L 461.204819 305.673751 
L 464.385542 305.068331 
L 470.746988 305.172903 
L 477.108434 305.644683 
L 480.289157 305.713747 
L 486.650602 305.569518 
L 489.831325 305.977486 
L 493.012048 305.861281 
L 499.373494 305.901598 
L 502.554217 305.729693 
L 508.915663 305.943133 
L 512.096386 305.636094 
L 521.638554 305.473217 
L 524.819277 305.757131 
L 540.722892 305.939577 
L 543.903614 305.830802 
L 547.084337 305.963656 
L 550.26506 306.269357 
L 553.445783 306.143045 
L 556.626506 306.170193 
L 559.807229 305.965806 
L 562.987952 306.046758 
L 566.168675 306.278247 
L 569.349398 306.008772 
L 572.53012 305.850878 
L 578.891566 306.093687 
L 582.072289 306.374992 
L 585.253012 306.290897 
L 588.433735 305.972975 
L 591.614458 306.11151 
L 594.795181 306.004231 
L 597.975904 306.172736 
L 601.156627 306.080935 
L 604.337349 305.824315 
L 610.698795 305.842215 
L 617.060241 305.380402 
L 632.963855 305.258453 
L 642.506024 305.486252 
L 645.686747 305.48594 
L 652.048193 305.36624 
L 655.228916 305.697133 
L 658.409639 305.44511 
L 661.590361 305.447973 
L 664.771084 305.854233 
L 667.951807 305.03358 
L 671.13253 304.977742 
L 674.313253 305.060756 
L 677.493976 304.893605 
L 690.216867 304.827971 
L 696.578313 304.936766 
L 699.759036 305.03299 
L 706.120482 305.042737 
L 715.662651 305.516033 
L 718.843373 305.566173 
L 722.024096 305.901292 
L 725.204819 305.657365 
L 734.746988 305.934469 
L 737.927711 306.175735 
L 744.289157 306.042135 
L 747.46988 305.938468 
L 750.650602 306.095904 
L 757.012048 306.059948 
L 760.192771 306.209249 
L 763.373494 306.232651 
L 766.554217 306.057219 
L 772.915663 306.083506 
L 776.096386 305.759781 
L 779.277108 305.937515 
L 782.457831 305.948457 
L 785.638554 305.834611 
L 788.819277 305.962269 
L 788.819277 305.962269 
" clip-path="url(#p8654f52e40)" style="fill: none; stroke: #000000; stroke-width: 1.5; stroke-linecap: square"/>
   </g>
   <g id="line2d_7">
    <path d="M 0 306 
L 3.180723 306 
L 6.361446 304.459086 
L 9.542169 306.972867 
L 12.722892 307.292647 
L 15.903614 307.018318 
L 19.084337 307.990623 
L 22.26506 308.145243 
L 25.445783 307.830307 
L 31.807229 306.502544 
L 34.987952 306.213046 
L 41.349398 306.161004 
L 47.710843 306.63301 
L 54.072289 306.586309 
L 57.253012 306.776811 
L 69.975904 306.904484 
L 73.156627 306.22779 
L 85.879518 306.621337 
L 89.060241 306.404893 
L 92.240964 306.506629 
L 98.60241 306.370307 
L 104.963855 305.745648 
L 108.144578 305.857618 
L 111.325301 306.117003 
L 114.506024 306.051199 
L 117.686747 305.784677 
L 120.86747 305.838832 
L 127.228916 305.559476 
L 149.493976 305.855636 
L 152.674699 305.816296 
L 162.216867 305.401125 
L 165.39759 305.484789 
L 168.578313 305.360122 
L 174.939759 305.368733 
L 178.120482 305.157522 
L 184.481928 305.053943 
L 187.662651 305.281019 
L 190.843373 305.369245 
L 194.024096 305.137319 
L 203.566265 305.181368 
L 209.927711 305.095283 
L 213.108434 305.301449 
L 219.46988 305.432261 
L 222.650602 305.510333 
L 225.831325 305.408265 
L 229.012048 305.611896 
L 235.373494 305.6589 
L 238.554217 305.547112 
L 244.915663 305.855416 
L 248.096386 305.760475 
L 254.457831 305.976482 
L 264 305.946068 
L 267.180723 306.873196 
L 270.361446 307.338709 
L 273.542169 307.487739 
L 276.722892 307.443098 
L 283.084337 307.110002 
L 286.26506 307.123038 
L 292.626506 306.798714 
L 295.807229 306.771001 
L 298.987952 306.920266 
L 302.168675 306.789006 
L 308.53012 306.886819 
L 318.072289 307.019362 
L 321.253012 306.959523 
L 324.433735 307.054773 
L 337.156627 307.016075 
L 340.337349 306.793914 
L 343.518072 306.850441 
L 346.698795 306.68148 
L 359.421687 306.704465 
L 365.783133 306.63592 
L 372.144578 306.483445 
L 391.228916 306.28806 
L 400.771084 306.185321 
L 413.493976 306.05551 
L 416.674699 306.544894 
L 423.036145 306.146519 
L 429.39759 306.006706 
L 432.578313 305.999756 
L 435.759036 306.105495 
L 438.939759 306.34195 
L 461.204819 305.974324 
L 464.385542 305.649666 
L 470.746988 305.679685 
L 480.289157 305.936431 
L 486.650602 305.85094 
L 489.831325 306.057952 
L 496.192771 306.0148 
L 508.915663 306.02277 
L 512.096386 305.860907 
L 521.638554 305.761359 
L 524.819277 305.901524 
L 547.084337 305.995212 
L 550.26506 306.152221 
L 559.807229 306.001065 
L 569.349398 306.023965 
L 572.53012 305.942672 
L 585.253012 306.169108 
L 588.433735 306.008439 
L 591.614458 306.078516 
L 594.795181 306.024831 
L 597.975904 306.110878 
L 613.879518 305.813069 
L 620.240964 305.671044 
L 632.963855 305.597434 
L 645.686747 305.69085 
L 652.048193 305.620857 
L 655.228916 305.783603 
L 658.409639 305.653814 
L 661.590361 305.65108 
L 664.771084 305.853516 
L 667.951807 305.435871 
L 690.216867 305.271255 
L 706.120482 305.339696 
L 722.024096 305.761541 
L 725.204819 305.641109 
L 734.746988 305.785193 
L 737.927711 305.910699 
L 772.915663 305.911738 
L 776.096386 305.751331 
L 782.457831 305.848877 
L 785.638554 305.793423 
L 788.819277 305.858883 
L 788.819277 305.858883 
" clip-path="url(#p8654f52e40)" style="fill: none; stroke: #000000; stroke-width: 1.5; stroke-linecap: square"/>
   </g>
   <g id="line2d_8">
    <path d="M 0 306 
L 3.180723 306 
L 6.361446 304.46734 
L 9.542169 306.951553 
L 12.722892 307.271665 
L 15.903614 307.007408 
L 19.084337 307.956093 
L 22.26506 308.110971 
L 25.445783 307.811917 
L 31.807229 306.543237 
L 34.987952 306.264613 
L 41.349398 306.207238 
L 47.710843 306.642219 
L 54.072289 306.597563 
L 57.253012 306.77145 
L 69.975904 306.89001 
L 73.156627 306.285367 
L 85.879518 306.627469 
L 89.060241 306.438064 
L 92.240964 306.525239 
L 98.60241 306.405405 
L 104.963855 305.866518 
L 108.144578 305.957529 
L 111.325301 306.173767 
L 114.506024 306.116394 
L 117.686747 305.890538 
L 120.86747 305.932422 
L 127.228916 305.693887 
L 152.674699 305.882335 
L 162.216867 305.545038 
L 165.39759 305.607444 
L 168.578313 305.506447 
L 174.939759 305.506323 
L 181.301205 305.276624 
L 184.481928 305.250191 
L 190.843373 305.484494 
L 194.024096 305.305114 
L 203.566265 305.328917 
L 209.927711 305.257505 
L 213.108434 305.407923 
L 219.46988 305.500611 
L 222.650602 305.556862 
L 225.831325 305.480835 
L 232.192771 305.678762 
L 241.73494 305.667139 
L 244.915663 305.803497 
L 248.096386 305.736244 
L 257.638554 305.899866 
L 264 305.875253 
L 267.180723 306.530256 
L 270.361446 306.863621 
L 273.542169 306.976503 
L 276.722892 306.954339 
L 283.084337 306.73833 
L 286.26506 306.753785 
L 295.807229 306.527199 
L 298.987952 306.633459 
L 302.168675 306.548697 
L 311.710843 306.666448 
L 330.795181 306.73625 
L 333.975904 306.682355 
L 337.156627 306.750519 
L 340.337349 306.607954 
L 343.518072 306.648098 
L 349.879518 306.528539 
L 359.421687 306.563241 
L 368.963855 306.462862 
L 381.686747 306.398778 
L 391.228916 306.306838 
L 410.313253 306.150051 
L 413.493976 306.153728 
L 416.674699 306.457888 
L 423.036145 306.211067 
L 429.39759 306.121933 
L 435.759036 306.179618 
L 438.939759 306.324123 
L 461.204819 306.095398 
L 464.385542 305.896972 
L 473.927711 305.968904 
L 480.289157 306.055727 
L 486.650602 306.001109 
L 489.831325 306.122814 
L 502.554217 306.036098 
L 508.915663 306.094833 
L 515.277108 305.97902 
L 528 306.022186 
L 537.542169 306.036654 
L 556.626506 306.12345 
L 562.987952 306.08573 
L 566.168675 306.153665 
L 572.53012 306.027949 
L 585.253012 306.155844 
L 588.433735 306.064349 
L 597.975904 306.121031 
L 642.506024 305.861416 
L 664.771084 305.934562 
L 667.951807 305.70204 
L 696.578313 305.599284 
L 763.373494 305.936454 
L 776.096386 305.816496 
L 782.457831 305.867963 
L 788.819277 305.87258 
L 788.819277 305.87258 
" clip-path="url(#p8654f52e40)" style="fill: none; stroke: #000000; stroke-width: 1.5; stroke-linecap: square"/>
   </g>
   <g id="line2d_9">
    <path d="M 0 306 
L 3.180723 306 
L 6.361446 304.471468 
L 9.542169 306.940954 
L 12.722892 307.261165 
L 15.903614 307.001854 
L 19.084337 307.938841 
L 22.26506 308.093755 
L 25.445783 307.802441 
L 31.807229 306.562808 
L 34.987952 306.28968 
L 41.349398 306.230074 
L 47.710843 306.647314 
L 54.072289 306.60365 
L 57.253012 306.769557 
L 69.975904 306.883453 
L 73.156627 306.312975 
L 85.879518 306.631206 
L 89.060241 306.454504 
L 92.240964 306.534953 
L 101.783133 306.180498 
L 104.963855 305.924416 
L 108.144578 306.00614 
L 111.325301 306.202726 
L 114.506024 306.14941 
L 117.686747 305.942519 
L 120.86747 305.979102 
L 127.228916 305.760007 
L 152.674699 305.919281 
L 162.216867 305.61783 
L 165.39759 305.671125 
L 171.759036 305.58866 
L 174.939759 305.577927 
L 181.301205 305.374514 
L 184.481928 305.34962 
L 190.843373 305.548889 
L 194.024096 305.393086 
L 203.566265 305.409137 
L 209.927711 305.34507 
L 213.108434 305.471394 
L 225.831325 305.52969 
L 232.192771 305.694799 
L 241.73494 305.683844 
L 244.915663 305.796997 
L 248.096386 305.74128 
L 257.638554 305.877068 
L 264 305.857443 
L 267.180723 306.394466 
L 270.361446 306.669066 
L 276.722892 306.749011 
L 283.084337 306.57899 
L 289.445783 306.507107 
L 295.807229 306.416617 
L 298.987952 306.50341 
L 302.168675 306.437255 
L 314.891566 306.558908 
L 330.795181 306.601765 
L 349.879518 306.447951 
L 413.493976 306.172477 
L 416.674699 306.399786 
L 426.216867 306.162504 
L 435.759036 306.191951 
L 438.939759 306.298587 
L 461.204819 306.130693 
L 464.385542 305.985742 
L 473.927711 306.035349 
L 480.289157 306.097087 
L 493.012048 306.116334 
L 512.096386 306.052992 
L 528 306.067016 
L 540.722892 306.09064 
L 547.084337 306.092216 
L 553.445783 306.129769 
L 601.156627 306.113199 
L 617.060241 305.966452 
L 652.048193 305.912651 
L 658.409639 305.921135 
L 677.493976 305.792689 
L 706.120482 305.758874 
L 737.927711 305.942347 
L 788.819277 305.918076 
L 788.819277 305.918076 
" clip-path="url(#p8654f52e40)" style="fill: none; stroke: #000000; stroke-width: 1.5; stroke-linecap: square"/>
   </g>
  </g>
 </g>
 <defs>
  <clipPath id="p8654f52e40">
   <rect x="0" y="0" width="792" height="612"/>
  </clipPath>
 </defs>
</svg>
