<?xml version="1.0" encoding="utf-8" standalone="no"?>
<!DOCTYPE svg PUBLIC "-//W3C//DTD SVG 1.1//EN"
  "http://www.w3.org/Graphics/SVG/1.1/DTD/svg11.dtd">
<svg xmlns:xlink="http://www.w3.org/1999/xlink" width="792pt" height="612pt" viewBox="0 0 792 612" xmlns="http://www.w3.org/2000/svg" version="1.1">
 <metadata>
  <rdf:RDF xmlns:dc="http://purl.org/dc/elements/1.1/" xmlns:cc="http://creativecommons.org/ns#" xmlns:rdf="http://www.w3.org/1999/02/22-rdf-syntax-ns#">
   <cc:Work>
    <dc:type rdf:resource="http://purl.org/dc/dcmitype/StillImage"/>
    <dc:date>2022-12-26T20:28:02.199184</dc:date>
    <dc:format>image/svg+xml</dc:format>
    <dc:creator>
     <cc:Agent>
      <dc:title>Matplotlib v3.6.2, https://matplotlib.org/</dc:title>
     </cc:Agent>
    </dc:creator>
   </cc:Work>
  </rdf:RDF>
 </metadata>
 <defs>
  <style type="text/css">*{stroke-linejoin: round; stroke-linecap: butt}</style>
 </defs>
 <g id="figure_1">
  <g id="patch_1">
   <path d="M 0 612 
L 792 612 
L 792 0 
L 0 0 
z
" style="fill: #ffffff"/>
  </g>
  <g id="axes_1">
   <g id="line2d_1">
    <path d="M 0 306 
L 3.142857 301.608997 
L 6.285714 306.152174 
L 9.428571 305.000004 
L 12.571429 302.695781 
L 15.714286 306.086957 
L 18.857143 311.760189 
L 22 301.826346 
L 25.142857 306.869563 
L 28.285714 303.021833 
L 31.428571 306.608695 
L 34.571429 306.891302 
L 37.714286 307.652158 
L 40.857143 301.587262 
L 44 306.891302 
L 47.142857 311.52114 
L 50.285714 302.913148 
L 53.428571 311.912308 
L 56.571429 308.23909 
L 59.714286 305.978261 
L 62.857143 312.629397 
L 66 309.043378 
L 69.142857 305.804348 
L 72.285714 302.347999 
L 75.428571 301.022178 
L 81.714286 306.130435 
L 84.857143 305.695652 
L 88 309.608528 
L 91.142857 308.978167 
L 94.285714 305.934783 
L 97.428571 306.652173 
L 100.571429 309.499847 
L 103.714286 307.630419 
L 106.857143 308.999904 
L 110 305.086959 
L 113.142857 307.826065 
L 116.285714 294.375162 
L 119.428571 307.934757 
L 122.571429 309.347693 
L 125.714286 309.043378 
L 128.857143 307.13043 
L 132 301.978492 
L 135.142857 308.652108 
L 138.285714 304.195673 
L 141.428571 305.630435 
L 144.571429 299.196773 
L 147.714286 298.327695 
L 150.857143 308.499944 
L 154 312.368645 
L 157.142857 304.434796 
L 160.285714 299.10986 
L 163.428571 307.217385 
L 166.571429 301.695936 
L 169.714286 302.23932 
L 172.857143 306.93478 
L 176 306.739129 
L 179.142857 305.06522 
L 182.285714 308.63037 
L 185.428571 306.93478 
L 188.571429 310.021508 
L 191.714286 304.086981 
L 194.857143 304.652183 
L 198 300.457128 
L 201.142857 303.326155 
L 204.285714 300.261542 
L 207.428571 308.065186 
L 210.571429 301.456856 
L 213.714286 305.934783 
L 216.857143 305.06522 
L 220 298.349421 
L 223.142857 302.630571 
L 226.285714 304.10872 
L 229.428571 312.781498 
L 232.571429 308.304304 
L 235.714286 297.328409 
L 238.857143 306.304348 
L 242 308.608632 
L 245.142857 302.152377 
L 248.285714 301.695936 
L 251.428571 305.478261 
L 254.571429 312.542481 
L 257.714286 305.826087 
L 260.857143 309.565056 
L 264 308.304304 
L 267.142857 301.717671 
L 270.285714 312.998779 
L 273.428571 308.195614 
L 279.714286 301.413387 
L 282.857143 310.086714 
L 286 312.911868 
L 289.142857 302.195848 
L 292.285714 310.630081 
L 295.428571 309.391166 
L 298.571429 306.304348 
L 301.714286 304.760876 
L 304.857143 305.652174 
L 308 342.477893 
L 311.142857 325.365389 
L 314.285714 313.302961 
L 317.428571 305.717391 
L 320.571429 298.610133 
L 323.714286 302.674044 
L 326.857143 307.652158 
L 330 300.283274 
L 333.142857 300.609253 
L 336.285714 305.673913 
L 339.428571 312.911868 
L 342.571429 301.522059 
L 345.714286 310.760485 
L 348.857143 306.978258 
L 352 309.260746 
L 355.142857 308.326042 
L 358.285714 308.782532 
L 361.428571 304.521751 
L 364.571429 310.977822 
L 367.714286 305.891304 
L 370.857143 306.173913 
L 374 303.304418 
L 377.142857 311.064755 
L 380.285714 297.567353 
L 383.428571 309.217273 
L 386.571429 299.631355 
L 389.714286 305.782609 
L 392.857143 305.130437 
L 396 309.804152 
L 399.142857 306.978258 
L 402.285714 306.739129 
L 405.428571 303.717434 
L 408.571429 302.478416 
L 414.857143 305.586957 
L 418 305.826087 
L 421.142857 305.891304 
L 424.285714 306.826085 
L 427.428571 305.347827 
L 430.571429 300.674451 
L 433.714286 303.28268 
L 436.857143 306.652173 
L 440 304.282627 
L 443.142857 303.65222 
L 446.285714 301.848081 
L 449.428571 306.739129 
L 452.571429 306.413043 
L 455.714286 327.789148 
L 458.857143 295.981842 
L 462 299.131589 
L 465.142857 301.000445 
L 468.285714 304.934787 
L 471.428571 305.695652 
L 474.571429 310.738752 
L 477.714286 316.713011 
L 480.857143 303.804386 
L 484 303.76091 
L 487.142857 303.260943 
L 490.285714 305.413044 
L 493.428571 304.521751 
L 496.571429 300.783114 
L 499.714286 305.173915 
L 502.857143 291.293946 
L 506 305.673913 
L 509.142857 306.978258 
L 512.285714 310.456207 
L 515.428571 311.325549 
L 518.571429 307.239124 
L 521.714286 303.891338 
L 524.857143 304.043505 
L 528 315.279762 
L 531.142857 303.217468 
L 534.285714 306.869563 
L 537.428571 305.847826 
L 540.571429 301.804611 
L 543.714286 309.217273 
L 546.857143 307.434772 
L 550 298.610133 
L 553.142857 304.500012 
L 556.285714 305.108698 
L 559.428571 303.326155 
L 562.571429 312.194806 
L 565.714286 306.652173 
L 568.857143 309.152062 
L 572 306.608695 
L 575.142857 303.521793 
L 578.285714 307.695635 
L 581.428571 303.347892 
L 584.571429 308.999904 
L 587.714286 313.23778 
L 590.857143 303.28268 
L 594 306.782607 
L 597.142857 301.304716 
L 600.285714 307.869542 
L 603.428571 311.542872 
L 606.571429 299.848655 
L 609.714286 302.261056 
L 612.857143 308.891218 
L 616 308.695582 
L 619.142857 312.781498 
L 622.285714 304.347842 
L 625.428571 298.718766 
L 628.571429 309.260746 
L 631.714286 303.587007 
L 634.857143 310.021508 
L 638 303.956552 
L 641.142857 299.979038 
L 644.285714 306.826085 
L 647.428571 305.28261 
L 650.571429 300.109423 
L 653.714286 300.326737 
L 656.857143 304.565228 
L 660 303.673958 
L 663.142857 306.891302 
L 666.285714 302.130641 
L 669.428571 306.391304 
L 672.571429 307.391295 
L 675.714286 308.043448 
L 678.857143 306.065217 
L 682 305.456522 
L 685.142857 302.782727 
L 688.285714 305.260871 
L 691.428571 313.216053 
L 694.571429 299.718274 
L 697.714286 305.52174 
L 700.857143 315.106006 
L 704 286.353151 
L 707.142857 303.695696 
L 710.285714 307.086952 
L 713.428571 301.152579 
L 716.571429 304.000028 
L 719.714286 304.826093 
L 722.857143 304.413058 
L 726 304.586967 
L 729.142857 305.043481 
L 732.285714 307.173907 
L 735.428571 307.195646 
L 738.571429 303.934814 
L 741.714286 306.326087 
L 744.857143 309.412902 
L 748 309.825888 
L 751.142857 307.695635 
L 754.285714 306.71739 
L 757.428571 313.541951 
L 760.571429 300.109423 
L 763.714286 307.152168 
L 766.857143 307.782589 
L 770 308.847744 
L 773.142857 311.673263 
L 776.285714 305.891304 
L 779.428571 303.28268 
L 782.571429 303.543531 
L 785.714286 309.695473 
L 788.857143 305.369566 
L 788.857143 305.369566 
" clip-path="url(#p457864351e)" style="fill: none; stroke: #000000; stroke-width: 1.5; stroke-linecap: square"/>
   </g>
   <g id="line2d_2">
    <path d="M 0 306 
L 3.142857 306 
L 6.285714 303.072553 
L 9.428571 304.832304 
L 12.571429 304.921744 
L 15.714286 303.77283 
L 18.857143 304.948244 
L 22 308.381328 
L 25.142857 305.090881 
L 28.285714 305.981927 
L 31.428571 304.504615 
L 34.571429 305.557545 
L 40.857143 306.949869 
L 44 304.25961 
L 47.142857 305.5659 
L 50.285714 308.56277 
L 53.428571 305.730179 
L 56.571429 308.838964 
L 59.714286 308.542226 
L 62.857143 307.258475 
L 66 309.954 
L 69.142857 309.513315 
L 72.285714 307.656761 
L 75.428571 304.984317 
L 78.571429 302.999414 
L 81.714286 303.287795 
L 84.857143 304.704952 
L 88 305.199746 
L 91.142857 307.398285 
L 94.285714 308.188113 
L 97.428571 307.061718 
L 100.571429 306.865386 
L 103.714286 308.19928 
L 106.857143 307.922737 
L 110 308.466954 
L 113.142857 306.775787 
L 116.285714 307.297435 
L 119.428571 300.805358 
L 122.571429 304.373758 
L 125.714286 306.866068 
L 128.857143 307.953852 
L 132 307.541163 
L 135.142857 304.745958 
L 138.285714 306.706052 
L 141.428571 305.443735 
L 144.571429 305.559165 
L 147.714286 302.360444 
L 150.857143 300.32222 
L 157.142857 308.399866 
L 160.285714 306.422165 
L 163.428571 302.74684 
L 166.571429 304.987983 
L 169.714286 303.334168 
L 172.857143 302.792701 
L 176 304.880568 
L 179.142857 305.806394 
L 182.285714 305.421484 
L 185.428571 307.034182 
L 188.571429 306.999826 
L 191.714286 308.516226 
L 194.857143 306.306309 
L 198 305.483973 
L 201.142857 302.957645 
L 204.285714 303.135207 
L 207.428571 301.688862 
L 210.571429 304.875794 
L 213.714286 303.155495 
L 216.857143 304.537096 
L 220 304.803075 
L 223.142857 301.563397 
L 226.285714 302.101234 
L 229.428571 303.10648 
L 232.571429 307.969027 
L 235.714286 308.137135 
L 238.857143 302.723655 
L 242 304.514675 
L 245.142857 306.568627 
L 248.285714 304.367876 
L 251.428571 303.030017 
L 254.571429 304.256796 
L 257.714286 308.39961 
L 260.857143 307.108009 
L 264 308.360567 
L 267.142857 308.336357 
L 270.285714 305.013388 
L 273.428571 309.027864 
L 276.571429 308.624488 
L 279.714286 306.734952 
L 282.857143 304.0522 
L 289.142857 310.001818 
L 292.285714 306.086871 
L 295.428571 308.376082 
L 298.571429 308.876556 
L 301.714286 307.586772 
L 304.857143 306.173657 
L 308 305.921228 
L 311.142857 324.328588 
L 314.285714 324.871417 
L 317.428571 319.113617 
L 323.714286 305.488151 
L 326.857143 304.073938 
L 330 305.868713 
L 333.142857 303.065222 
L 336.285714 301.754748 
L 339.428571 303.675578 
L 342.571429 308.293478 
L 345.714286 304.899408 
L 348.857143 307.853942 
L 352 307.424542 
L 355.142857 308.345819 
L 358.285714 308.351701 
L 361.428571 308.583144 
L 364.571429 306.550213 
L 367.714286 308.760368 
L 370.857143 307.334433 
L 374 306.745182 
L 377.142857 305.017565 
L 380.285714 308.044897 
L 383.428571 302.784091 
L 386.571429 306.001535 
L 389.714286 302.80651 
L 392.857143 304.284332 
L 396 304.70589 
L 399.142857 307.262226 
L 405.428571 306.924805 
L 408.571429 305.333164 
L 411.714286 303.892531 
L 414.857143 303.998494 
L 418 304.792334 
L 421.142857 305.310572 
L 424.285714 305.593265 
L 427.428571 306.209378 
L 430.571429 305.775874 
L 433.714286 303.219002 
L 436.857143 303.252418 
L 440 304.957293 
L 443.142857 304.617401 
L 446.285714 304.130543 
L 449.428571 302.981343 
L 452.571429 304.860022 
L 455.714286 305.638619 
L 458.857143 316.781128 
L 462 306.367604 
L 465.142857 302.734395 
L 468.285714 301.860952 
L 471.428571 303.400318 
L 474.571429 304.555509 
L 477.714286 307.655142 
L 480.857143 312.205628 
L 484 307.958285 
L 487.142857 305.874851 
L 490.285714 304.575969 
L 493.428571 305.003158 
L 496.571429 304.761644 
L 499.714286 302.76261 
L 502.857143 303.957319 
L 506 297.572209 
L 509.142857 301.625959 
L 512.285714 304.308287 
L 515.428571 307.396495 
L 518.571429 309.372753 
L 521.714286 308.311294 
L 524.857143 306.107417 
L 528 305.073234 
L 531.142857 310.22471 
L 534.285714 306.716367 
L 537.428571 306.792752 
L 540.571429 306.311253 
L 543.714286 304.039157 
L 546.857143 306.632139 
L 550 307.040405 
L 553.142857 302.814011 
L 559.428571 304.375974 
L 562.571429 303.844111 
L 565.714286 308.03228 
L 568.857143 307.351739 
L 572 308.251792 
L 575.142857 307.428634 
L 578.285714 305.484826 
L 581.428571 306.596504 
L 584.571429 304.968717 
L 587.714286 306.995478 
L 590.857143 310.119103 
L 594 306.694372 
L 597.142857 306.733843 
L 600.285714 304.008724 
L 603.428571 305.947656 
L 606.571429 308.753037 
L 609.714286 304.293624 
L 612.857143 303.264097 
L 616 306.069139 
L 619.142857 307.393 
L 622.285714 310.099328 
L 625.428571 307.229661 
L 628.571429 302.955684 
L 631.714286 306.103751 
L 634.857143 304.852691 
L 638 307.452419 
L 641.142857 305.6948 
L 644.285714 302.819552 
L 647.428571 304.811089 
L 650.571429 305.048682 
L 653.714286 302.581557 
L 656.857143 301.43657 
L 660 303.002739 
L 663.142857 303.325899 
L 666.285714 305.114325 
L 669.428571 303.626646 
L 672.571429 305.008102 
L 675.714286 306.203836 
L 678.857143 307.13921 
L 685.142857 306.036743 
L 688.285714 304.407943 
L 691.428571 304.831208 
L 694.571429 309.045935 
L 697.714286 304.368643 
L 700.857143 304.941522 
L 704 310.038725 
L 707.142857 298.145545 
L 710.285714 300.916751 
L 713.428571 304.010088 
L 716.571429 302.573204 
L 722.857143 304.057315 
L 729.142857 304.389358 
L 732.285714 304.753119 
L 735.428571 305.970332 
L 738.571429 306.583205 
L 741.714286 305.264452 
L 744.857143 305.79983 
L 748 307.615416 
L 751.142857 308.7313 
L 754.285714 308.219569 
L 757.428571 307.47177 
L 760.571429 310.519791 
L 763.714286 305.300513 
L 766.857143 306.232651 
L 770 307.010482 
L 773.142857 307.928022 
L 776.285714 309.804408 
L 779.428571 307.844394 
L 782.571429 305.556778 
L 785.714286 304.530531 
L 788.857143 307.131879 
L 788.857143 307.131879 
" clip-path="url(#p457864351e)" style="fill: none; stroke: #000000; stroke-width: 1.5; stroke-linecap: square"/>
   </g>
   <g id="line2d_3">
    <path d="M 0 306 
L 3.142857 306 
L 6.285714 303.427694 
L 9.428571 304.662082 
L 12.571429 304.794048 
L 15.714286 304.047486 
L 18.857143 304.730158 
L 22 306.989059 
L 25.142857 305.376049 
L 28.285714 305.833715 
L 31.428571 304.983542 
L 40.857143 306.414079 
L 44 304.989119 
L 47.142857 305.549349 
L 50.285714 307.305473 
L 53.428571 306.01542 
L 56.571429 307.75461 
L 59.714286 307.898909 
L 62.857143 307.337497 
L 66 308.899093 
L 69.142857 308.944749 
L 72.285714 308.01814 
L 78.571429 304.788309 
L 81.714286 304.443491 
L 84.857143 304.937031 
L 88 305.157852 
L 91.142857 306.463719 
L 94.285714 307.208695 
L 97.428571 306.834478 
L 100.571429 306.775489 
L 103.714286 307.581033 
L 106.857143 307.590579 
L 110 308.004244 
L 113.142857 307.148782 
L 116.285714 307.341637 
L 119.428571 303.52541 
L 125.714286 306.153711 
L 128.857143 307.009314 
L 132 307.048833 
L 135.142857 305.558931 
L 138.285714 306.468316 
L 141.428571 305.796451 
L 144.571429 305.743981 
L 147.714286 303.818316 
L 150.857143 302.200285 
L 154 304.044169 
L 157.142857 306.488045 
L 160.285714 305.881415 
L 163.428571 303.890898 
L 166.571429 304.864488 
L 169.714286 303.944799 
L 172.857143 303.438716 
L 176 304.45989 
L 179.142857 305.12481 
L 182.285714 305.104985 
L 185.428571 306.145204 
L 188.571429 306.374493 
L 191.714286 307.449428 
L 194.857143 306.462817 
L 198 305.93876 
L 201.142857 304.335513 
L 204.285714 304.033932 
L 207.428571 302.915005 
L 210.571429 304.427577 
L 213.714286 303.560114 
L 216.857143 304.254147 
L 220 304.495573 
L 223.142857 302.690591 
L 226.285714 302.668068 
L 229.428571 303.086992 
L 232.571429 305.935574 
L 235.714286 306.628996 
L 238.857143 303.893235 
L 242 304.59515 
L 245.142857 305.775877 
L 248.285714 304.711655 
L 251.428571 303.829742 
L 254.571429 304.315046 
L 257.714286 306.739192 
L 260.857143 306.469179 
L 264 307.385292 
L 267.142857 307.657189 
L 270.285714 305.913629 
L 273.428571 308.00598 
L 276.571429 308.067915 
L 279.714286 307.125639 
L 282.857143 305.439403 
L 286 306.802685 
L 289.142857 308.610209 
L 292.285714 306.726753 
L 295.428571 307.872415 
L 298.571429 308.325574 
L 301.714286 307.738877 
L 304.857143 306.865826 
L 308 306.502441 
L 311.142857 317.127842 
L 314.285714 319.560915 
L 317.428571 317.73468 
L 320.571429 314.221584 
L 323.714286 309.633374 
L 326.857143 307.588759 
L 330 307.610549 
L 333.142857 305.462958 
L 336.285714 304.030317 
L 339.428571 304.503393 
L 342.571429 306.978821 
L 345.714286 305.37002 
L 348.857143 306.950532 
L 352 306.959427 
L 355.142857 307.638659 
L 361.428571 308.07933 
L 364.571429 307.013384 
L 367.714286 308.171964 
L 370.857143 307.504188 
L 374 307.123252 
L 377.142857 306.005449 
L 380.285714 307.491329 
L 383.428571 304.580936 
L 386.571429 305.948803 
L 389.714286 304.091279 
L 392.857143 304.578461 
L 396 304.744275 
L 399.142857 306.225232 
L 402.285714 306.445789 
L 405.428571 306.52881 
L 408.571429 305.700071 
L 411.714286 304.749191 
L 414.857143 304.554733 
L 427.428571 305.791472 
L 430.571429 305.654964 
L 433.714286 304.199639 
L 436.857143 303.924248 
L 440 304.731289 
L 443.142857 304.598155 
L 446.285714 304.319396 
L 449.428571 303.586389 
L 452.571429 304.509507 
L 455.714286 305.06666 
L 458.857143 311.759751 
L 462 307.130469 
L 465.142857 304.781631 
L 468.285714 303.668789 
L 471.428571 304.038561 
L 474.571429 304.523679 
L 477.714286 306.348629 
L 480.857143 309.398489 
L 484 307.763678 
L 487.142857 306.591845 
L 490.285714 305.61233 
L 493.428571 305.555259 
L 496.571429 305.253548 
L 499.714286 303.942847 
L 502.857143 304.301615 
L 506 300.471647 
L 512.285714 303.449216 
L 515.428571 305.514576 
L 518.571429 307.228582 
L 521.714286 307.234316 
L 524.857143 306.253103 
L 528 305.598228 
L 531.142857 308.433018 
L 534.285714 306.904756 
L 537.428571 306.898019 
L 540.571429 306.593397 
L 543.714286 305.186574 
L 546.857143 306.372565 
L 550 306.691321 
L 553.142857 304.316452 
L 556.285714 304.385396 
L 559.428571 304.596596 
L 562.571429 304.220291 
L 565.714286 306.558203 
L 568.857143 306.580358 
L 572 307.335814 
L 575.142857 307.125968 
L 578.285714 306.069718 
L 581.428571 306.537228 
L 584.571429 305.603225 
L 587.714286 306.600563 
L 590.857143 308.553385 
L 594 307.011347 
L 597.142857 306.941554 
L 600.285714 305.283417 
L 603.428571 306.051518 
L 606.571429 307.66815 
L 609.714286 305.3716 
L 612.857143 304.459277 
L 616 305.753583 
L 619.142857 306.617641 
L 622.285714 308.427438 
L 625.428571 307.22998 
L 628.571429 304.731194 
L 631.714286 306.059698 
L 634.857143 305.335725 
L 638 306.709398 
L 641.142857 305.892438 
L 644.285714 304.156443 
L 647.428571 304.938402 
L 650.571429 305.043787 
L 653.714286 303.589466 
L 656.857143 302.620862 
L 660 303.19575 
L 663.142857 303.337436 
L 666.285714 304.37601 
L 669.428571 303.710788 
L 678.857143 306.144114 
L 682 306.117335 
L 685.142857 305.925935 
L 688.285714 304.996965 
L 691.428571 305.075759 
L 694.571429 307.475581 
L 697.714286 305.195105 
L 700.857143 305.291048 
L 704 308.183762 
L 707.142857 301.766013 
L 710.285714 302.330177 
L 713.428571 303.727243 
L 716.571429 302.966501 
L 719.714286 303.271355 
L 722.857143 303.724919 
L 732.285714 304.384732 
L 735.428571 305.203628 
L 738.571429 305.792146 
L 741.714286 305.246615 
L 744.857143 305.554869 
L 748 306.696037 
L 751.142857 307.617737 
L 754.285714 307.632039 
L 757.428571 307.387568 
L 760.571429 309.201793 
L 763.714286 306.530553 
L 766.857143 306.719512 
L 770 307.035228 
L 773.142857 307.570734 
L 776.285714 308.7808 
L 779.428571 307.936013 
L 782.571429 306.571058 
L 785.714286 305.680131 
L 788.857143 306.859119 
L 788.857143 306.859119 
" clip-path="url(#p457864351e)" style="fill: none; stroke: #000000; stroke-width: 1.5; stroke-linecap: square"/>
   </g>
   <g id="line2d_4">
    <path d="M 0 306 
L 3.142857 306 
L 6.285714 303.614632 
L 9.428571 304.610507 
L 12.571429 304.734447 
L 15.714286 304.174756 
L 18.857143 304.645379 
L 22 306.256448 
L 25.142857 305.316601 
L 28.285714 305.629451 
L 31.428571 305.125463 
L 40.857143 306.025159 
L 44 305.250561 
L 47.142857 305.532569 
L 50.285714 306.548993 
L 53.428571 305.938411 
L 56.571429 306.932947 
L 59.714286 307.148783 
L 62.857143 306.956543 
L 66 307.88362 
L 69.142857 308.072316 
L 72.285714 307.704651 
L 78.571429 305.901002 
L 81.714286 305.532214 
L 88 305.639088 
L 91.142857 306.274843 
L 94.285714 306.707355 
L 97.428571 306.583863 
L 100.571429 306.594774 
L 103.714286 307.059186 
L 106.857143 307.153829 
L 110 307.449332 
L 113.142857 307.073528 
L 116.285714 307.196462 
L 119.428571 305.148353 
L 122.571429 305.589295 
L 125.714286 306.191984 
L 128.857143 306.647022 
L 132 306.726498 
L 135.142857 305.968148 
L 138.285714 306.396285 
L 141.428571 306.044 
L 144.571429 305.980723 
L 150.857143 303.842836 
L 154 304.587273 
L 157.142857 305.82574 
L 160.285714 305.60206 
L 163.428571 304.564667 
L 166.571429 304.983342 
L 169.714286 304.455684 
L 172.857143 304.100812 
L 179.142857 304.905695 
L 182.285714 304.931985 
L 185.428571 305.521978 
L 188.571429 305.747533 
L 191.714286 306.427832 
L 194.857143 306.052339 
L 198 305.828767 
L 201.142857 304.970162 
L 204.285714 304.704736 
L 207.428571 303.993125 
L 210.571429 304.640411 
L 213.714286 304.131593 
L 216.857143 304.417302 
L 220 304.52706 
L 223.142857 303.537984 
L 226.285714 303.389417 
L 229.428571 303.50078 
L 232.571429 304.981036 
L 235.714286 305.513731 
L 238.857143 304.204001 
L 242 304.539483 
L 245.142857 305.18876 
L 251.428571 304.230403 
L 254.571429 304.427053 
L 257.714286 305.718502 
L 260.857143 305.736488 
L 264 306.352176 
L 267.142857 306.663451 
L 270.285714 305.87653 
L 273.428571 307.01661 
L 276.571429 307.204983 
L 279.714286 306.828774 
L 282.857143 305.964835 
L 286 306.621587 
L 289.142857 307.626296 
L 292.285714 306.757389 
L 295.428571 307.377679 
L 298.571429 307.701002 
L 301.714286 307.482441 
L 304.857143 307.05033 
L 308 306.831244 
L 311.142857 312.551063 
L 314.285714 314.607495 
L 317.428571 314.404554 
L 320.571429 313.023346 
L 323.714286 310.730747 
L 326.857143 309.449074 
L 330 309.165401 
L 333.142857 307.744394 
L 336.285714 306.604292 
L 339.428571 306.461474 
L 342.571429 307.492054 
L 345.714286 306.537743 
L 348.857143 307.215023 
L 352 307.180649 
L 355.142857 307.513972 
L 361.428571 307.824088 
L 364.571429 307.295536 
L 367.714286 307.883122 
L 374 307.342635 
L 377.142857 306.697084 
L 380.285714 307.39594 
L 383.428571 305.829444 
L 386.571429 306.367936 
L 389.714286 305.287689 
L 392.857143 305.368671 
L 396 305.327335 
L 399.142857 306.039901 
L 405.428571 306.278281 
L 408.571429 305.869627 
L 411.714286 305.304984 
L 414.857143 305.097901 
L 424.285714 305.377774 
L 427.428571 305.610796 
L 430.571429 305.567519 
L 433.714286 304.789179 
L 436.857143 304.551152 
L 440 304.886038 
L 446.285714 304.605801 
L 449.428571 304.16145 
L 452.571429 304.571411 
L 455.714286 304.862641 
L 458.857143 308.528312 
L 462 306.523613 
L 465.142857 305.343969 
L 468.285714 304.64661 
L 471.428571 304.691863 
L 474.571429 304.85127 
L 477.714286 305.792684 
L 480.857143 307.534358 
L 487.142857 306.434823 
L 490.285714 305.932101 
L 493.428571 305.849287 
L 496.571429 305.63769 
L 499.714286 304.859605 
L 502.857143 304.908487 
L 506 302.731037 
L 509.142857 303.200454 
L 512.285714 303.804296 
L 518.571429 305.897935 
L 521.714286 306.112206 
L 528 305.483145 
L 531.142857 307.048469 
L 534.285714 306.440521 
L 537.428571 306.511021 
L 540.571429 306.405003 
L 543.714286 305.671476 
L 546.857143 306.239116 
L 550 306.432837 
L 553.142857 305.182917 
L 562.571429 304.792555 
L 565.714286 305.978561 
L 568.857143 306.089262 
L 572 306.579213 
L 575.142857 306.584473 
L 578.285714 306.092679 
L 581.428571 306.342088 
L 584.571429 305.865406 
L 587.714286 306.3674 
L 590.857143 307.466931 
L 594 306.799869 
L 597.142857 306.798533 
L 600.285714 305.924716 
L 603.428571 306.23583 
L 606.571429 307.092933 
L 609.714286 305.936579 
L 612.857143 305.348818 
L 616 305.911463 
L 619.142857 306.352796 
L 622.285714 307.379252 
L 625.428571 306.897231 
L 628.571429 305.592469 
L 631.714286 306.172367 
L 634.857143 305.76125 
L 638 306.441075 
L 641.142857 306.044594 
L 644.285714 305.078282 
L 647.428571 305.354871 
L 650.571429 305.342031 
L 653.714286 304.510335 
L 656.857143 303.842028 
L 660 303.956751 
L 663.142857 303.911975 
L 666.285714 304.382675 
L 669.428571 304.021529 
L 675.714286 304.873749 
L 678.857143 305.380882 
L 682 305.488745 
L 685.142857 305.484934 
L 688.285714 305.051108 
L 691.428571 305.079504 
L 694.571429 306.380467 
L 697.714286 305.315941 
L 700.857143 305.351315 
L 704 306.908263 
L 707.142857 303.617881 
L 710.285714 303.632662 
L 713.428571 304.185246 
L 716.571429 303.69787 
L 719.714286 303.743015 
L 726 303.990389 
L 732.285714 304.238201 
L 738.571429 305.101617 
L 741.714286 304.915958 
L 744.857143 305.144274 
L 751.142857 306.464475 
L 754.285714 306.665092 
L 757.428571 306.677401 
L 760.571429 307.775401 
L 763.714286 306.553393 
L 770 306.832738 
L 773.142857 307.154875 
L 776.285714 307.876523 
L 779.428571 307.559331 
L 782.571429 306.877162 
L 785.714286 306.345569 
L 788.857143 306.88289 
L 788.857143 306.88289 
" clip-path="url(#p457864351e)" style="fill: none; stroke: #000000; stroke-width: 1.5; stroke-linecap: square"/>
   </g>
   <g id="line2d_5">
    <path d="M 0 306 
L 3.142857 306 
L 6.285714 303.709331 
L 9.428571 304.595075 
L 12.571429 304.709818 
L 15.714286 304.234356 
L 18.857143 304.613629 
L 22 305.918068 
L 25.142857 305.238834 
L 28.285714 305.488777 
L 31.428571 305.135481 
L 40.857143 305.794448 
L 44 305.297501 
L 47.142857 305.479359 
L 50.285714 306.148016 
L 53.428571 305.799667 
L 56.571429 306.442109 
L 59.714286 306.626872 
L 62.857143 306.56148 
L 66 307.162623 
L 69.142857 307.345979 
L 72.285714 307.197838 
L 78.571429 306.201977 
L 81.714286 305.961465 
L 88 305.951371 
L 94.285714 306.523461 
L 100.571429 306.487066 
L 103.714286 306.75233 
L 106.857143 306.829251 
L 110 307.018535 
L 113.142857 306.85081 
L 116.285714 306.935172 
L 119.428571 305.852028 
L 125.714286 306.315151 
L 128.857143 306.548271 
L 132 306.597892 
L 135.142857 306.205015 
L 138.285714 306.412708 
L 141.428571 306.224896 
L 144.571429 306.174624 
L 150.857143 304.973307 
L 154 305.270261 
L 157.142857 305.867318 
L 160.285714 305.746974 
L 163.428571 305.18987 
L 166.571429 305.359868 
L 172.857143 304.817368 
L 179.142857 305.140329 
L 182.285714 305.134054 
L 185.428571 305.425997 
L 188.571429 305.551915 
L 191.714286 305.924781 
L 198 305.678237 
L 201.142857 305.243158 
L 204.285714 305.08318 
L 207.428571 304.682514 
L 210.571429 304.963884 
L 213.714286 304.671639 
L 220 304.801072 
L 223.142857 304.261126 
L 226.285714 304.126054 
L 229.428571 304.123716 
L 232.571429 304.84553 
L 235.714286 305.133147 
L 238.857143 304.48209 
L 242 304.632889 
L 245.142857 304.965146 
L 251.428571 304.475099 
L 254.571429 304.559192 
L 257.714286 305.222052 
L 260.857143 305.271399 
L 264 305.628935 
L 267.142857 305.849575 
L 270.285714 305.504237 
L 273.428571 306.128696 
L 276.571429 306.302149 
L 279.714286 306.182691 
L 282.857143 305.786115 
L 286 306.144355 
L 289.142857 306.708477 
L 292.285714 306.331519 
L 295.428571 306.688848 
L 298.571429 306.914264 
L 301.714286 306.863531 
L 308 306.600907 
L 311.142857 309.603804 
L 314.285714 310.92044 
L 317.428571 311.119988 
L 320.571429 310.675363 
L 323.714286 309.671 
L 326.857143 309.088155 
L 330 308.968524 
L 336.285714 307.611202 
L 339.428571 307.449448 
L 342.571429 307.905727 
L 345.714286 307.374558 
L 348.857143 307.659364 
L 352 307.605652 
L 358.285714 307.790323 
L 361.428571 307.874089 
L 364.571429 307.597626 
L 367.714286 307.879419 
L 374 307.589097 
L 377.142857 307.232305 
L 380.285714 307.551822 
L 383.428571 306.720544 
L 386.571429 306.927961 
L 389.714286 306.319921 
L 396 306.17938 
L 399.142857 306.481914 
L 405.428571 306.544095 
L 414.857143 305.833578 
L 424.285714 305.823174 
L 427.428571 305.907777 
L 430.571429 305.861707 
L 433.714286 305.427201 
L 436.857143 305.247575 
L 440 305.367186 
L 446.285714 305.140087 
L 449.428571 304.866747 
L 455.714286 305.139393 
L 458.857143 307.027265 
L 462 306.107041 
L 465.142857 305.524615 
L 468.285714 305.146715 
L 474.571429 305.174728 
L 477.714286 305.637377 
L 480.857143 306.560836 
L 490.285714 305.8771 
L 496.571429 305.728265 
L 499.714286 305.314994 
L 502.857143 305.302917 
L 506 304.134924 
L 512.285714 304.476427 
L 518.571429 305.49494 
L 521.714286 305.640196 
L 528 305.376594 
L 531.142857 306.201236 
L 534.285714 305.954544 
L 540.571429 306.017252 
L 543.714286 305.663983 
L 546.857143 305.961406 
L 550 306.082608 
L 553.142857 305.45958 
L 562.571429 305.184796 
L 565.714286 305.769164 
L 568.857143 305.841043 
L 572 306.116914 
L 575.142857 306.157872 
L 578.285714 305.939154 
L 581.428571 306.08384 
L 584.571429 305.858644 
L 587.714286 306.119293 
L 590.857143 306.714639 
L 594 306.428981 
L 597.142857 306.458868 
L 600.285714 306.028298 
L 603.428571 306.181406 
L 606.571429 306.627999 
L 609.714286 306.064013 
L 612.857143 305.748297 
L 619.142857 306.234568 
L 622.285714 306.780291 
L 625.428571 306.577905 
L 628.571429 305.922876 
L 631.714286 306.201189 
L 634.857143 305.985167 
L 638 306.322379 
L 641.142857 306.125145 
L 644.285714 305.613578 
L 647.428571 305.715244 
L 650.571429 305.680455 
L 656.857143 304.808057 
L 663.142857 304.691011 
L 666.285714 304.87615 
L 669.428571 304.648639 
L 675.714286 305.009882 
L 678.857143 305.260779 
L 685.142857 305.335607 
L 688.285714 305.123401 
L 691.428571 305.135462 
L 694.571429 305.808767 
L 697.714286 305.301645 
L 700.857143 305.321455 
L 704 306.136989 
L 707.142857 304.491163 
L 710.285714 304.424497 
L 713.428571 304.645502 
L 716.571429 304.35255 
L 726 304.366453 
L 732.285714 304.436256 
L 738.571429 304.874912 
L 741.714286 304.796264 
L 744.857143 304.924703 
L 751.142857 305.673928 
L 757.428571 305.917834 
L 760.571429 306.553476 
L 763.714286 306.017539 
L 770 306.249249 
L 773.142857 306.464821 
L 776.285714 306.898801 
L 779.428571 306.815955 
L 785.714286 306.274186 
L 788.857143 306.55838 
L 788.857143 306.55838 
" clip-path="url(#p457864351e)" style="fill: none; stroke: #000000; stroke-width: 1.5; stroke-linecap: square"/>
   </g>
   <g id="line2d_6">
    <path d="M 0 306 
L 3.142857 306 
L 6.285714 303.756836 
L 9.428571 304.590094 
L 12.571429 304.699323 
L 15.714286 304.263151 
L 18.857143 304.600958 
L 22 305.761393 
L 25.142857 305.191754 
L 28.285714 305.412068 
L 31.428571 305.123822 
L 40.857143 305.673468 
L 44 305.292477 
L 47.142857 305.434327 
L 50.285714 305.950499 
L 53.428571 305.703418 
L 56.571429 306.189602 
L 59.714286 306.344509 
L 62.857143 306.317717 
L 66 306.765738 
L 69.142857 306.9229 
L 72.285714 306.847721 
L 81.714286 306.035634 
L 88 306.020599 
L 94.285714 306.393267 
L 100.571429 306.383084 
L 103.714286 306.556824 
L 116.285714 306.718455 
L 119.428571 306.069872 
L 132 306.502576 
L 135.142857 306.275512 
L 138.285714 306.393869 
L 144.571429 306.253062 
L 150.857143 305.541516 
L 154 305.684001 
L 157.142857 306.004143 
L 160.285714 305.929404 
L 163.428571 305.606262 
L 166.571429 305.682214 
L 172.857143 305.343086 
L 194.857143 305.783882 
L 198 305.732551 
L 201.142857 305.493952 
L 204.285714 305.396191 
L 207.428571 305.165235 
L 210.571429 305.295324 
L 213.714286 305.123544 
L 220 305.155549 
L 223.142857 304.852963 
L 229.428571 304.725796 
L 232.571429 305.081802 
L 235.714286 305.223943 
L 238.857143 304.876179 
L 248.285714 304.97084 
L 251.428571 304.827506 
L 254.571429 304.855947 
L 257.714286 305.191485 
L 260.857143 305.219149 
L 267.142857 305.534328 
L 270.285714 305.368508 
L 273.428571 305.699699 
L 276.571429 305.807911 
L 279.714286 305.766326 
L 282.857143 305.577944 
L 286 305.772894 
L 289.142857 306.081345 
L 292.285714 305.91362 
L 298.571429 306.258183 
L 308 306.172264 
L 311.142857 307.74039 
L 314.285714 308.498657 
L 317.428571 308.704981 
L 320.571429 308.576779 
L 323.714286 308.149255 
L 326.857143 307.914534 
L 330 307.903291 
L 336.285714 307.278584 
L 339.428571 307.209914 
L 342.571429 307.453874 
L 345.714286 307.200214 
L 348.857143 307.352413 
L 355.142857 307.418628 
L 361.428571 307.51395 
L 364.571429 307.386253 
L 367.714286 307.539503 
L 377.142857 307.238769 
L 380.285714 307.401857 
L 383.428571 306.982698 
L 386.571429 307.077903 
L 389.714286 306.760684 
L 396 306.651392 
L 399.142857 306.785614 
L 405.428571 306.791618 
L 418 306.348674 
L 430.571429 306.287997 
L 433.714286 306.049588 
L 436.857143 305.931724 
L 443.142857 305.890459 
L 452.571429 305.674009 
L 455.714286 305.705923 
L 458.857143 306.64639 
L 462 306.192059 
L 468.285714 305.682212 
L 474.571429 305.651765 
L 477.714286 305.868847 
L 480.857143 306.3314 
L 493.428571 305.972367 
L 496.571429 305.910124 
L 499.714286 305.691878 
L 502.857143 305.669672 
L 506 305.056682 
L 512.285714 305.162561 
L 518.571429 305.64024 
L 521.714286 305.710168 
L 528 305.564136 
L 531.142857 305.977204 
L 534.285714 305.859546 
L 540.571429 305.900368 
L 543.714286 305.726313 
L 550 305.942422 
L 553.142857 305.631543 
L 562.571429 305.46663 
L 565.714286 305.754094 
L 581.428571 305.938822 
L 584.571429 305.828686 
L 587.714286 305.963201 
L 590.857143 306.272725 
L 594 306.144833 
L 597.142857 306.172321 
L 600.285714 305.965378 
L 603.428571 306.047342 
L 606.571429 306.281726 
L 609.714286 306.008882 
L 612.857143 305.849013 
L 619.142857 306.094859 
L 622.285714 306.37968 
L 625.428571 306.294534 
L 628.571429 305.972638 
L 631.714286 306.112904 
L 634.857143 306.004284 
L 638 306.174896 
L 641.142857 306.081947 
L 644.285714 305.822119 
L 650.571429 305.840242 
L 656.857143 305.372655 
L 672.571429 305.249181 
L 682 305.479828 
L 685.142857 305.479512 
L 691.428571 305.358316 
L 694.571429 305.693346 
L 697.714286 305.438171 
L 700.857143 305.441071 
L 704 305.85241 
L 707.142857 305.021496 
L 710.285714 304.96496 
L 713.428571 305.049012 
L 716.571429 304.879771 
L 729.142857 304.813317 
L 735.428571 304.923472 
L 738.571429 305.020899 
L 744.857143 305.030768 
L 754.285714 305.509981 
L 757.428571 305.560749 
L 760.571429 305.900057 
L 763.714286 305.653081 
L 773.142857 305.93365 
L 776.285714 306.177933 
L 779.428571 306.166211 
L 785.714286 305.937698 
L 788.857143 306.097103 
L 788.857143 306.097103 
" clip-path="url(#p457864351e)" style="fill: none; stroke: #000000; stroke-width: 1.5; stroke-linecap: square"/>
   </g>
   <g id="line2d_7">
    <path d="M 0 306 
L 3.142857 306 
L 6.285714 303.780608 
L 9.428571 304.588298 
L 12.571429 304.694592 
L 15.714286 304.277312 
L 18.857143 304.595479 
L 22 305.686801 
L 25.142857 305.166845 
L 28.285714 305.372836 
L 31.428571 305.114158 
L 40.857143 305.612556 
L 44 305.282799 
L 47.142857 305.407045 
L 50.285714 305.854392 
L 53.428571 305.649789 
L 56.571429 306.06546 
L 59.714286 306.203515 
L 62.857143 306.189786 
L 66 306.567404 
L 69.142857 306.70737 
L 72.285714 306.658055 
L 81.714286 306.026453 
L 88 306.01566 
L 94.285714 306.30617 
L 100.571429 306.305423 
L 106.857143 306.488422 
L 110 306.589686 
L 116.285714 306.580586 
L 119.428571 306.114123 
L 132 306.425676 
L 135.142857 306.268418 
L 138.285714 306.351548 
L 147.714286 306.018539 
L 150.857143 305.763555 
L 154 305.85321 
L 157.142857 306.064314 
L 160.285714 306.012097 
L 163.428571 305.793204 
L 166.571429 305.837902 
L 172.857143 305.602374 
L 198 305.817806 
L 207.428571 305.447924 
L 210.571429 305.521165 
L 213.714286 305.408163 
L 220 305.412896 
L 223.142857 305.220086 
L 229.428571 305.121738 
L 232.571429 305.327269 
L 235.714286 305.406711 
L 238.857143 305.192211 
L 248.285714 305.227993 
L 254.571429 305.144916 
L 257.714286 305.335757 
L 264 305.456189 
L 267.142857 305.528726 
L 270.285714 305.43205 
L 273.428571 305.623261 
L 279.714286 305.666939 
L 282.857143 305.560658 
L 289.142857 305.85296 
L 292.285714 305.762528 
L 298.571429 305.968694 
L 308 305.940043 
L 311.142857 306.831079 
L 314.285714 307.28027 
L 317.428571 307.425659 
L 320.571429 307.384542 
L 326.857143 307.066118 
L 330 307.080115 
L 336.285714 306.768189 
L 339.428571 306.74224 
L 342.571429 306.888237 
L 345.714286 306.761552 
L 352 306.858637 
L 361.428571 306.990878 
L 364.571429 306.933304 
L 367.714286 307.027445 
L 380.285714 306.993069 
L 383.428571 306.775571 
L 386.571429 306.831811 
L 389.714286 306.666215 
L 402.285714 306.690997 
L 408.571429 306.624296 
L 414.857143 306.474398 
L 433.714286 306.282532 
L 443.142857 306.181088 
L 455.714286 306.052502 
L 458.857143 306.539682 
L 465.142857 306.143398 
L 471.428571 306.004249 
L 474.571429 305.997375 
L 477.714286 306.102903 
L 480.857143 306.338933 
L 502.857143 305.972379 
L 506 305.647678 
L 512.285714 305.677617 
L 521.714286 305.934632 
L 528 305.849012 
L 531.142857 306.05649 
L 537.428571 306.013317 
L 550 306.021456 
L 553.142857 305.859027 
L 562.571429 305.759061 
L 565.714286 305.899837 
L 587.714286 305.994116 
L 590.857143 306.152053 
L 600.285714 306.000093 
L 609.714286 306.023207 
L 612.857143 305.94139 
L 625.428571 306.169507 
L 628.571429 306.007698 
L 631.714286 306.078315 
L 634.857143 306.02425 
L 638 306.110975 
L 653.714286 305.81087 
L 660 305.667654 
L 672.571429 305.593343 
L 685.142857 305.687521 
L 691.428571 305.616865 
L 694.571429 305.781097 
L 697.714286 305.650096 
L 700.857143 305.647324 
L 704 305.851657 
L 707.142857 305.430042 
L 729.142857 305.263618 
L 744.857143 305.332604 
L 760.571429 305.758732 
L 763.714286 305.637033 
L 773.142857 305.78262 
L 776.285714 305.90946 
L 788.857143 305.886613 
L 788.857143 305.886613 
" clip-path="url(#p457864351e)" style="fill: none; stroke: #000000; stroke-width: 1.5; stroke-linecap: square"/>
   </g>
   <g id="line2d_8">
    <path d="M 0 306 
L 3.142857 306 
L 6.285714 303.792496 
L 9.428571 304.587574 
L 12.571429 304.692362 
L 15.714286 304.284335 
L 18.857143 304.59296 
L 22 305.650508 
L 25.142857 305.154141 
L 28.285714 305.353104 
L 31.428571 305.108443 
L 40.857143 305.58215 
L 44 305.276258 
L 47.142857 305.39228 
L 50.285714 305.80727 
L 53.428571 305.621874 
L 56.571429 306.004482 
L 59.714286 306.133908 
L 62.857143 306.125299 
L 66 306.46976 
L 69.142857 306.600527 
L 72.285714 306.561631 
L 81.714286 306.010489 
L 88 306.002411 
L 94.285714 306.25649 
L 100.571429 306.259339 
L 110 306.507495 
L 116.285714 306.504668 
L 119.428571 306.117216 
L 132 306.377436 
L 135.142857 306.250155 
L 138.285714 306.318413 
L 147.714286 306.05161 
L 150.857143 305.846331 
L 160.285714 306.040199 
L 163.428571 305.866802 
L 166.571429 305.900113 
L 172.857143 305.71242 
L 198 305.865073 
L 207.428571 305.582261 
L 210.571429 305.634097 
L 216.857143 305.555676 
L 220 305.545735 
L 226.285714 305.346097 
L 229.428571 305.321704 
L 235.714286 305.522424 
L 238.857143 305.365026 
L 248.285714 305.382169 
L 254.571429 305.316685 
L 257.714286 305.448951 
L 270.285714 305.51092 
L 276.571429 305.687865 
L 286 305.676664 
L 289.142857 305.800239 
L 292.285714 305.739069 
L 301.714286 305.888452 
L 308 305.866189 
L 311.142857 306.468634 
L 314.285714 306.776802 
L 317.428571 306.882525 
L 320.571429 306.863755 
L 326.857143 306.666804 
L 330 306.68243 
L 339.428571 306.474977 
L 342.571429 306.575067 
L 345.714286 306.496878 
L 355.142857 306.609997 
L 374 306.681555 
L 377.142857 306.631541 
L 380.285714 306.696937 
L 383.428571 306.562779 
L 386.571429 306.601627 
L 392.857143 306.489584 
L 402.285714 306.524596 
L 411.714286 306.430613 
L 424.285714 306.371279 
L 433.714286 306.284278 
L 452.571429 306.135087 
L 455.714286 306.138867 
L 458.857143 306.432988 
L 465.142857 306.195013 
L 471.428571 306.109169 
L 477.714286 306.165494 
L 480.857143 306.305943 
L 502.857143 306.085101 
L 506 305.891856 
L 515.428571 305.962216 
L 521.714286 306.047208 
L 528 305.99403 
L 531.142857 306.113196 
L 543.714286 306.028764 
L 550 306.086575 
L 556.285714 305.973116 
L 568.857143 306.015837 
L 578.285714 306.030324 
L 597.142857 306.116425 
L 603.428571 306.079405 
L 606.571429 306.146569 
L 612.857143 306.022591 
L 625.428571 306.149366 
L 628.571429 306.058944 
L 638 306.115295 
L 682 305.858449 
L 704 305.931342 
L 707.142857 305.69992 
L 735.428571 305.597298 
L 788.857143 305.886792 
L 788.857143 305.886792 
" clip-path="url(#p457864351e)" style="fill: none; stroke: #000000; stroke-width: 1.5; stroke-linecap: square"/>
   </g>
   <g id="line2d_9">
    <path d="M 0 306 
L 3.142857 306 
L 6.285714 303.798441 
L 9.428571 304.587256 
L 12.571429 304.691282 
L 15.714286 304.287833 
L 18.857143 304.591756 
L 22 305.63262 
L 25.142857 305.147738 
L 28.285714 305.343222 
L 31.428571 305.105377 
L 40.857143 305.56698 
L 44 305.272579 
L 47.142857 305.384632 
L 50.285714 305.783975 
L 53.428571 305.607682 
L 56.571429 305.974336 
L 59.714286 306.099434 
L 62.857143 306.093058 
L 66 306.421508 
L 69.142857 306.547586 
L 72.285714 306.51331 
L 81.714286 305.999824 
L 88 305.993135 
L 94.285714 306.230166 
L 100.571429 306.234518 
L 110 306.465493 
L 116.285714 306.46518 
L 119.428571 306.113954 
L 132 306.350779 
L 135.142857 306.237102 
L 138.285714 306.298622 
L 147.714286 306.061941 
L 150.857143 305.87942 
L 160.285714 306.049565 
L 163.428571 305.896827 
L 166.571429 305.925412 
L 172.857143 305.759917 
L 198 305.887192 
L 207.428571 305.643756 
L 210.571429 305.686733 
L 216.857143 305.618151 
L 220 305.608686 
L 226.285714 305.438076 
L 229.428571 305.416089 
L 235.714286 305.581366 
L 238.857143 305.449222 
L 251.428571 305.402125 
L 260.857143 305.515529 
L 267.142857 305.615321 
L 270.285714 305.55878 
L 276.571429 305.701788 
L 286 305.691722 
L 289.142857 305.791115 
L 292.285714 305.742038 
L 301.714286 305.862301 
L 308 305.845179 
L 311.142857 306.32419 
L 314.285714 306.570456 
L 320.571429 306.644827 
L 326.857143 306.494781 
L 333.142857 306.432198 
L 339.428571 306.352309 
L 342.571429 306.431785 
L 345.714286 306.372702 
L 358.285714 306.486928 
L 374 306.530704 
L 396 306.379897 
L 405.428571 306.426543 
L 427.428571 306.319737 
L 446.285714 306.180584 
L 455.714286 306.145854 
L 458.857143 306.360126 
L 468.285714 306.137559 
L 477.714286 306.166175 
L 480.857143 306.267332 
L 518.571429 306.068511 
L 550 306.10442 
L 559.428571 306.01706 
L 568.857143 306.052661 
L 581.428571 306.075921 
L 587.714286 306.077708 
L 594 306.114189 
L 641.142857 306.100122 
L 656.857143 305.958095 
L 691.428571 305.906292 
L 697.714286 305.914652 
L 716.571429 305.789362 
L 744.857143 305.756283 
L 776.285714 305.936426 
L 788.857143 305.927048 
L 788.857143 305.927048 
" clip-path="url(#p457864351e)" style="fill: none; stroke: #000000; stroke-width: 1.5; stroke-linecap: square"/>
   </g>
  </g>
 </g>
 <defs>
  <clipPath id="p457864351e">
   <rect x="0" y="0" width="792" height="612"/>
  </clipPath>
 </defs>
</svg>
