<?xml version="1.0" encoding="utf-8" standalone="no"?>
<!DOCTYPE svg PUBLIC "-//W3C//DTD SVG 1.1//EN"
  "http://www.w3.org/Graphics/SVG/1.1/DTD/svg11.dtd">
<svg xmlns:xlink="http://www.w3.org/1999/xlink" width="792pt" height="612pt" viewBox="0 0 792 612" xmlns="http://www.w3.org/2000/svg" version="1.1">
 <metadata>
  <rdf:RDF xmlns:dc="http://purl.org/dc/elements/1.1/" xmlns:cc="http://creativecommons.org/ns#" xmlns:rdf="http://www.w3.org/1999/02/22-rdf-syntax-ns#">
   <cc:Work>
    <dc:type rdf:resource="http://purl.org/dc/dcmitype/StillImage"/>
    <dc:date>2023-01-09T02:29:56.634689</dc:date>
    <dc:format>image/svg+xml</dc:format>
    <dc:creator>
     <cc:Agent>
      <dc:title>Matplotlib v3.6.2, https://matplotlib.org/</dc:title>
     </cc:Agent>
    </dc:creator>
   </cc:Work>
  </rdf:RDF>
 </metadata>
 <defs>
  <style type="text/css">*{stroke-linejoin: round; stroke-linecap: butt}</style>
 </defs>
 <g id="figure_1">
  <g id="patch_1">
   <path d="M 0 612 
L 792 612 
L 792 0 
L 0 0 
z
" style="fill: #ffffff"/>
  </g>
  <g id="axes_1">
   <g id="line2d_1">
    <path d="M 0 306 
L 3.180723 306.867573 
L 6.361446 307.608173 
L 9.542169 301.704729 
L 12.722892 306.867573 
L 15.903614 311.374179 
L 19.084337 302.995325 
L 22.26506 311.75494 
L 25.445783 308.17948 
L 28.626506 305.97884 
L 31.807229 312.452954 
L 34.987952 308.962358 
L 38.168675 305.809557 
L 41.349398 302.445219 
L 44.53012 301.154682 
L 50.891566 306.126962 
L 54.072289 305.703755 
L 57.253012 309.512466 
L 60.433735 308.898883 
L 63.614458 305.936519 
L 66.795181 306.63481 
L 69.975904 309.406678 
L 73.156627 307.587013 
L 76.337349 308.920041 
L 79.518072 305.111267 
L 82.698795 307.77745 
L 85.879518 294.684368 
L 89.060241 307.883248 
L 92.240964 309.258573 
L 95.421687 308.962358 
L 98.60241 307.100334 
L 101.783133 302.085547 
L 104.963855 308.581503 
L 108.144578 304.243709 
L 111.325301 305.640274 
L 114.506024 299.377841 
L 117.686747 298.531875 
L 120.86747 308.43339 
L 124.048193 312.199138 
L 127.228916 304.476466 
L 130.409639 299.293239 
L 133.590361 307.184974 
L 136.771084 301.81051 
L 139.951807 302.339432 
L 143.13253 306.909893 
L 146.313253 306.719451 
L 149.493976 305.090107 
L 152.674699 308.560344 
L 155.855422 306.909893 
L 159.036145 309.914453 
L 162.216867 304.137911 
L 165.39759 304.688066 
L 168.578313 300.604667 
L 171.759036 303.397338 
L 174.939759 300.414285 
L 178.120482 308.010206 
L 181.301205 301.577792 
L 184.481928 305.936519 
L 187.662651 305.090107 
L 190.843373 298.553023 
L 194.024096 302.720269 
L 197.204819 304.159071 
L 200.385542 312.601009 
L 203.566265 308.242958 
L 206.746988 297.559157 
L 209.927711 306.296245 
L 213.108434 308.539185 
L 216.289157 302.254803 
L 219.46988 301.81051 
L 222.650602 305.492152 
L 225.831325 312.368349 
L 229.012048 305.830717 
L 232.192771 309.470151 
L 235.373494 308.242958 
L 238.554217 301.831666 
L 241.73494 312.812511 
L 244.915663 308.137162 
L 251.277108 301.53548 
L 254.457831 309.977924 
L 257.638554 312.727911 
L 260.819277 302.297117 
L 264 310.506831 
L 267.180723 309.300888 
L 270.361446 306.296245 
L 273.542169 304.793866 
L 276.722892 305.661434 
L 279.903614 341.515594 
L 283.084337 324.851141 
L 286.26506 313.108603 
L 289.445783 305.724915 
L 292.626506 298.806802 
L 295.807229 302.762585 
L 298.987952 307.608173 
L 302.168675 300.435438 
L 305.349398 300.752745 
L 308.53012 305.682595 
L 311.710843 312.727911 
L 314.891566 301.64126 
L 318.072289 310.633765 
L 321.253012 306.952213 
L 324.433735 309.173941 
L 327.614458 308.264117 
L 330.795181 308.708456 
L 333.975904 304.561106 
L 337.156627 310.845318 
L 340.337349 305.894198 
L 343.518072 306.169283 
L 346.698795 303.376179 
L 349.879518 310.929938 
L 353.060241 297.791749 
L 356.240964 309.131624 
L 359.421687 299.800862 
L 362.60241 305.788396 
L 365.783133 305.153588 
L 368.963855 309.702883 
L 372.144578 306.952213 
L 375.325301 306.719451 
L 378.506024 303.778201 
L 381.686747 302.572165 
L 388.048193 305.597953 
L 391.228916 305.830717 
L 394.409639 305.894198 
L 397.590361 306.804092 
L 400.771084 305.36519 
L 403.951807 300.816207 
L 407.13253 303.355021 
L 410.313253 306.63481 
L 413.493976 304.328348 
L 416.674699 303.714723 
L 419.855422 301.958606 
L 423.036145 306.719451 
L 426.216867 306.402047 
L 429.39759 327.210934 
L 432.578313 296.248376 
L 435.759036 299.31439 
L 438.939759 301.133527 
L 442.120482 304.963146 
L 445.301205 305.703755 
L 448.481928 310.61261 
L 451.662651 316.428019 
L 454.843373 303.862838 
L 458.024096 303.82052 
L 461.204819 303.333862 
L 464.385542 305.428671 
L 467.566265 304.561106 
L 470.746988 300.921979 
L 473.927711 305.195908 
L 477.108434 291.684891 
L 480.289157 305.682595 
L 483.46988 306.952213 
L 486.650602 310.337584 
L 489.831325 311.183793 
L 493.012048 307.206134 
L 496.192771 303.947476 
L 499.373494 304.095592 
L 502.554217 315.03285 
L 505.73494 303.291544 
L 508.915663 306.846412 
L 512.096386 305.851877 
L 515.277108 301.916293 
L 518.457831 309.131624 
L 521.638554 307.396574 
L 524.819277 298.806802 
L 528 304.539946 
L 531.180723 305.132427 
L 534.361446 303.397338 
L 537.542169 312.029923 
L 540.722892 306.63481 
L 543.903614 309.06815 
L 547.084337 306.592489 
L 550.26506 303.587769 
L 553.445783 307.650492 
L 556.626506 303.418497 
L 559.807229 308.920041 
L 562.987952 313.045155 
L 566.168675 303.355021 
L 569.349398 306.761771 
L 572.53012 301.429702 
L 575.710843 307.81977 
L 578.891566 311.395333 
L 582.072289 300.012382 
L 585.253012 302.360589 
L 588.433735 308.814249 
L 591.614458 308.623821 
L 594.795181 312.601009 
L 597.975904 304.391827 
L 601.156627 298.912546 
L 604.337349 309.173941 
L 607.518072 303.651246 
L 610.698795 309.914453 
L 613.879518 304.010954 
L 617.060241 300.139296 
L 620.240964 306.804092 
L 623.421687 305.301709 
L 626.60241 300.266213 
L 629.783133 300.477745 
L 632.963855 304.603426 
L 636.144578 303.735883 
L 639.325301 306.867573 
L 642.506024 302.233646 
L 645.686747 306.380886 
L 648.86747 307.354254 
L 652.048193 307.989046 
L 655.228916 306.063481 
L 658.409639 305.470991 
L 661.590361 302.868376 
L 664.771084 305.280549 
L 667.951807 313.024006 
L 671.13253 299.885469 
L 674.313253 305.534472 
L 677.493976 314.863712 
L 680.674699 286.874834 
L 683.855422 303.757042 
L 687.036145 307.058014 
L 690.216867 301.281613 
L 693.39759 304.053273 
L 696.578313 304.857346 
L 699.759036 304.455307 
L 702.939759 304.624586 
L 706.120482 305.068947 
L 709.301205 307.142654 
L 712.481928 307.163814 
L 715.662651 303.989794 
L 718.843373 306.317405 
L 722.024096 309.322046 
L 725.204819 309.72404 
L 728.385542 307.650492 
L 731.566265 306.698291 
L 734.746988 313.341237 
L 737.927711 300.266213 
L 741.108434 307.121494 
L 744.289157 307.735131 
L 747.46988 308.771932 
L 750.650602 311.522255 
L 753.831325 305.894198 
L 757.012048 303.355021 
L 760.192771 303.608928 
L 763.373494 309.597096 
L 766.554217 305.38635 
L 769.73494 305.915359 
L 772.915663 309.512466 
L 776.096386 306.761771 
L 779.277108 302.170174 
L 782.457831 305.661434 
L 785.638554 307.036854 
L 788.819277 298.574171 
L 788.819277 298.574171 
" clip-path="url(#pb07d4dff0a)" style="fill: none; stroke: #000000; stroke-width: 1.5; stroke-linecap: square"/>
   </g>
   <g id="line2d_2">
    <path d="M 0 306 
L 3.180723 306 
L 9.542169 307.166837 
L 12.722892 304.253584 
L 15.903614 305.602731 
L 19.084337 308.534483 
L 22.26506 305.743077 
L 25.445783 308.761062 
L 28.626506 308.474547 
L 31.807229 307.224971 
L 34.987952 309.848742 
L 38.168675 309.419787 
L 41.349398 307.612654 
L 44.53012 305.011358 
L 47.710843 303.079295 
L 50.891566 303.359999 
L 54.072289 304.73943 
L 57.253012 305.221051 
L 60.433735 307.361059 
L 63.614458 308.12986 
L 66.795181 307.033452 
L 69.975904 306.842346 
L 73.156627 308.14073 
L 76.337349 307.871548 
L 79.518072 308.401278 
L 82.698795 306.755133 
L 85.879518 307.262893 
L 89.060241 300.943632 
L 92.240964 304.417053 
L 95.421687 306.84301 
L 98.60241 307.901836 
L 101.783133 307.500133 
L 104.963855 304.779344 
L 108.144578 306.687254 
L 111.325301 305.458544 
L 114.506024 305.570901 
L 117.686747 302.457333 
L 120.86747 300.473348 
L 127.228916 308.335976 
L 130.409639 306.410926 
L 133.590361 302.833444 
L 136.771084 305.014926 
L 139.951807 303.405138 
L 143.13253 302.878084 
L 146.313253 304.91037 
L 149.493976 305.811548 
L 152.674699 305.436886 
L 155.855422 307.006649 
L 159.036145 306.973207 
L 162.216867 308.449239 
L 165.39759 306.298154 
L 168.578313 305.497712 
L 171.759036 303.038638 
L 174.939759 303.211473 
L 178.120482 301.803624 
L 181.301205 304.905723 
L 184.481928 303.231221 
L 187.662651 304.576042 
L 190.843373 304.834941 
L 194.024096 301.681498 
L 197.204819 302.205021 
L 200.385542 303.183511 
L 203.566265 307.916606 
L 206.746988 308.080239 
L 209.927711 302.810875 
L 213.108434 304.554219 
L 216.289157 306.553488 
L 219.46988 304.411327 
L 222.650602 303.109083 
L 225.831325 304.303205 
L 229.012048 308.335727 
L 232.192771 307.07851 
L 235.373494 308.297723 
L 238.554217 308.274158 
L 241.73494 305.039655 
L 244.915663 308.947257 
L 248.096386 308.554619 
L 251.277108 306.715385 
L 254.457831 304.104056 
L 260.819277 309.895288 
L 264 306.084558 
L 267.180723 308.312825 
L 270.361446 308.799977 
L 273.542169 307.544527 
L 276.722892 306.169034 
L 279.903614 305.923325 
L 283.084337 323.841741 
L 286.26506 324.370221 
L 289.445783 318.7649 
L 295.807229 305.501778 
L 298.987952 304.125215 
L 302.168675 305.872208 
L 305.349398 303.143351 
L 308.53012 301.867757 
L 311.710843 303.737459 
L 314.891566 308.23242 
L 318.072289 304.928709 
L 321.253012 307.804585 
L 324.433735 307.386617 
L 327.614458 308.283368 
L 330.795181 308.289094 
L 333.975904 308.514375 
L 337.156627 306.535564 
L 340.337349 308.686882 
L 343.518072 307.298907 
L 346.698795 306.725343 
L 349.879518 305.043721 
L 353.060241 307.990457 
L 356.240964 302.869703 
L 359.421687 306.001494 
L 362.60241 302.891525 
L 365.783133 304.330008 
L 368.963855 304.740343 
L 372.144578 307.228622 
L 378.506024 306.900184 
L 381.686747 305.350917 
L 384.86747 303.948637 
L 388.048193 304.051779 
L 391.228916 304.824485 
L 394.409639 305.328927 
L 397.590361 305.604094 
L 400.771084 306.203803 
L 403.951807 305.781841 
L 407.13253 303.293038 
L 410.313253 303.325564 
L 413.493976 304.985053 
L 416.674699 304.65421 
L 419.855422 304.180313 
L 423.036145 303.061704 
L 426.216867 304.890372 
L 429.39759 305.64824 
L 432.578313 316.494327 
L 435.759036 306.357817 
L 438.939759 302.82133 
L 442.120482 301.971134 
L 445.301205 303.469527 
L 448.481928 304.593966 
L 451.662651 307.611077 
L 454.843373 312.040457 
L 458.024096 307.906151 
L 461.204819 305.878183 
L 464.385542 304.613881 
L 467.566265 305.029697 
L 470.746988 304.794612 
L 473.927711 302.848794 
L 477.108434 304.011701 
L 480.289157 297.796476 
L 483.46988 301.742395 
L 486.650602 304.353325 
L 489.831325 307.359316 
L 493.012048 309.282966 
L 496.192771 308.249762 
L 499.373494 306.104557 
L 502.554217 305.097907 
L 505.73494 310.112248 
L 508.915663 306.697295 
L 512.096386 306.771646 
L 515.277108 306.302967 
L 518.457831 304.09136 
L 521.638554 306.615309 
L 524.819277 307.012706 
L 528 302.898827 
L 534.361446 304.419211 
L 537.542169 303.901506 
L 540.722892 307.978176 
L 543.903614 307.315752 
L 547.084337 308.191844 
L 550.26506 307.3906 
L 553.445783 305.498541 
L 556.626506 306.580623 
L 559.807229 304.996173 
L 562.987952 306.968975 
L 566.168675 310.009452 
L 569.349398 306.675886 
L 572.53012 306.714306 
L 575.710843 304.061737 
L 578.891566 305.949049 
L 582.072289 308.679746 
L 585.253012 304.339052 
L 588.433735 303.336932 
L 591.614458 306.067298 
L 594.795181 307.355914 
L 597.975904 309.990203 
L 601.156627 307.196924 
L 604.337349 303.036729 
L 607.518072 306.100989 
L 610.698795 304.883236 
L 613.879518 307.413751 
L 617.060241 305.702925 
L 620.240964 302.90422 
L 623.421687 304.842741 
L 626.60241 305.074009 
L 629.783133 302.67256 
L 632.963855 301.558047 
L 636.144578 303.082531 
L 639.325301 303.397089 
L 642.506024 305.137904 
L 645.686747 303.68983 
L 648.86747 305.03451 
L 652.048193 306.198409 
L 655.228916 307.108881 
L 661.590361 306.035765 
L 664.771084 304.450328 
L 667.951807 304.862325 
L 671.13253 308.964847 
L 674.313253 304.412074 
L 677.493976 304.969702 
L 680.674699 309.931213 
L 683.855422 298.354568 
L 687.036145 301.05206 
L 690.216867 304.063064 
L 693.39759 302.664429 
L 699.759036 304.109035 
L 706.120482 304.432238 
L 709.301205 304.786314 
L 712.481928 305.971122 
L 715.662651 306.567678 
L 718.843373 305.284034 
L 722.024096 305.805159 
L 725.204819 307.572409 
L 728.385542 308.658587 
L 731.566265 308.160479 
L 734.746988 307.432588 
L 737.927711 310.399476 
L 741.108434 305.319135 
L 744.289157 306.226457 
L 747.46988 306.98358 
L 750.650602 307.876693 
L 753.831325 309.703132 
L 757.012048 307.795291 
L 760.192771 305.568578 
L 763.373494 304.569653 
L 766.554217 307.101745 
L 769.73494 306.240647 
L 772.915663 306.074435 
L 776.096386 307.794959 
L 779.277108 307.269034 
L 782.457831 304.712213 
L 785.638554 305.191344 
L 788.819277 306.120822 
L 788.819277 306.120822 
" clip-path="url(#pb07d4dff0a)" style="fill: none; stroke: #000000; stroke-width: 1.5; stroke-linecap: square"/>
   </g>
   <g id="line2d_3">
    <path d="M 0 306 
L 3.180723 306 
L 9.542169 307.006588 
L 12.722892 304.93598 
L 15.903614 305.623216 
L 19.084337 307.548437 
L 22.26506 306.085538 
L 25.445783 307.856959 
L 28.626506 307.955791 
L 31.807229 307.358087 
L 34.987952 308.884266 
L 38.168675 308.907501 
L 41.349398 307.990031 
L 47.710843 304.822002 
L 50.891566 304.483968 
L 54.072289 304.965331 
L 57.253012 305.180273 
L 60.433735 306.451373 
L 63.614458 307.176516 
L 66.795181 306.812262 
L 69.975904 306.754843 
L 73.156627 307.538941 
L 76.337349 307.548233 
L 79.518072 307.950886 
L 82.698795 307.118197 
L 85.879518 307.305918 
L 89.060241 303.59129 
L 95.421687 306.149619 
L 98.60241 306.982443 
L 101.783133 307.02091 
L 104.963855 305.570674 
L 108.144578 306.455848 
L 111.325301 305.80187 
L 114.506024 305.750797 
L 117.686747 303.876398 
L 120.86747 302.301436 
L 124.048193 304.096238 
L 127.228916 306.475052 
L 130.409639 305.884572 
L 133.590361 303.947048 
L 136.771084 304.894719 
L 139.951807 303.999514 
L 143.13253 303.506903 
L 146.313253 304.500892 
L 149.493976 305.148111 
L 152.674699 305.128813 
L 155.855422 306.141338 
L 159.036145 306.364523 
L 162.216867 307.41084 
L 165.39759 306.450496 
L 168.578313 305.94039 
L 171.759036 304.379826 
L 174.939759 304.086273 
L 178.120482 302.997132 
L 181.301205 304.469439 
L 184.481928 303.625069 
L 187.662651 304.300627 
L 190.843373 304.535625 
L 194.024096 302.778692 
L 197.204819 302.756768 
L 200.385542 303.164541 
L 203.566265 305.937289 
L 206.746988 306.61225 
L 209.927711 303.949322 
L 213.108434 304.632551 
L 216.289157 305.781844 
L 219.46988 304.745955 
L 222.650602 303.88752 
L 225.831325 304.359904 
L 229.012048 306.719512 
L 232.192771 306.456687 
L 235.373494 307.348411 
L 238.554217 307.61307 
L 241.73494 305.915928 
L 244.915663 307.952575 
L 248.096386 308.012861 
L 251.277108 307.095671 
L 254.457831 305.454328 
L 257.638554 306.781315 
L 260.819277 308.54072 
L 264 306.707404 
L 267.180723 307.822566 
L 270.361446 308.263662 
L 273.542169 307.692583 
L 276.722892 306.842775 
L 279.903614 306.489064 
L 283.084337 316.831833 
L 286.26506 319.200333 
L 289.445783 317.422558 
L 292.626506 314.002799 
L 295.807229 309.53665 
L 298.987952 307.546462 
L 302.168675 307.567672 
L 305.349398 305.477255 
L 308.53012 304.082755 
L 311.710843 304.543237 
L 314.891566 306.952762 
L 318.072289 305.386792 
L 321.253012 306.925226 
L 324.433735 306.933884 
L 327.614458 307.595033 
L 333.975904 308.023973 
L 337.156627 306.986404 
L 340.337349 308.114141 
L 343.518072 307.464142 
L 346.698795 307.093348 
L 349.879518 306.005304 
L 353.060241 307.451625 
L 356.240964 304.618715 
L 359.421687 305.950166 
L 362.60241 304.142094 
L 365.783133 304.616306 
L 368.963855 304.777706 
L 372.144578 306.219236 
L 375.325301 306.433921 
L 378.506024 306.514731 
L 381.686747 305.708056 
L 384.86747 304.782491 
L 388.048193 304.59321 
L 400.771084 305.797024 
L 403.951807 305.66415 
L 407.13253 304.24757 
L 410.313253 303.97951 
L 413.493976 304.765066 
L 416.674699 304.635476 
L 419.855422 304.364138 
L 423.036145 303.650645 
L 426.216867 304.549189 
L 429.39759 305.091509 
L 432.578313 311.606442 
L 435.759036 307.100373 
L 438.939759 304.814067 
L 442.120482 303.730851 
L 445.301205 304.09078 
L 448.481928 304.562983 
L 451.662651 306.339347 
L 454.843373 309.308017 
L 458.024096 307.716724 
L 461.204819 306.576088 
L 464.385542 305.622651 
L 467.566265 305.5671 
L 470.746988 305.273421 
L 473.927711 303.997613 
L 477.108434 304.346831 
L 480.289157 300.618799 
L 486.650602 303.517123 
L 489.831325 305.5275 
L 493.012048 307.195873 
L 496.192771 307.201455 
L 499.373494 306.246364 
L 502.554217 305.608925 
L 505.73494 308.368246 
L 508.915663 306.880669 
L 512.096386 306.874111 
L 515.277108 306.577599 
L 518.457831 305.20823 
L 521.638554 306.362646 
L 524.819277 306.672916 
L 528 304.361273 
L 531.180723 304.428382 
L 534.361446 304.633959 
L 537.542169 304.267671 
L 540.722892 306.543342 
L 543.903614 306.564907 
L 547.084337 307.300251 
L 550.26506 307.095992 
L 553.445783 306.067862 
L 556.626506 306.522926 
L 559.807229 305.613788 
L 562.987952 306.584574 
L 566.168675 308.485409 
L 569.349398 306.984422 
L 572.53012 306.916487 
L 575.710843 305.302494 
L 578.891566 306.050146 
L 582.072289 307.623739 
L 585.253012 305.38833 
L 588.433735 304.500295 
L 591.614458 305.760144 
L 594.795181 306.601198 
L 597.975904 308.362814 
L 601.156627 307.197234 
L 604.337349 304.764974 
L 607.518072 306.058109 
L 610.698795 305.35341 
L 613.879518 306.690512 
L 617.060241 305.895302 
L 620.240964 304.205523 
L 623.421687 304.966665 
L 626.60241 305.069245 
L 629.783133 303.65364 
L 632.963855 302.710819 
L 636.144578 303.270405 
L 639.325301 303.408319 
L 642.506024 304.419245 
L 645.686747 303.771732 
L 655.228916 306.140277 
L 658.409639 306.114211 
L 661.590361 305.927907 
L 664.771084 305.023669 
L 667.951807 305.100365 
L 671.13253 307.436297 
L 674.313253 305.216534 
L 677.493976 305.309923 
L 680.674699 308.125625 
L 683.855422 301.878722 
L 687.036145 302.427871 
L 690.216867 303.78775 
L 693.39759 303.047258 
L 696.578313 303.343997 
L 699.759036 303.785487 
L 709.301205 304.427735 
L 712.481928 305.22483 
L 715.662651 305.79768 
L 718.843373 305.266673 
L 722.024096 305.56672 
L 725.204819 306.677506 
L 728.385542 307.574669 
L 731.566265 307.588589 
L 734.746988 307.350626 
L 737.927711 309.116557 
L 741.108434 306.516428 
L 744.289157 306.700357 
L 747.46988 307.007667 
L 750.650602 307.528916 
L 753.831325 308.70677 
L 757.012048 307.884471 
L 760.192771 306.555854 
L 763.373494 305.688647 
L 766.554217 306.836246 
L 769.73494 306.413187 
L 772.915663 306.266915 
L 776.096386 307.217772 
L 779.277108 307.08081 
L 782.457831 305.636168 
L 785.638554 305.642378 
L 788.819277 306.043568 
L 788.819277 306.043568 
" clip-path="url(#pb07d4dff0a)" style="fill: none; stroke: #000000; stroke-width: 1.5; stroke-linecap: square"/>
   </g>
   <g id="line2d_4">
    <path d="M 0 306 
L 3.180723 306 
L 9.542169 306.917472 
L 12.722892 305.258653 
L 15.903614 305.700347 
L 19.084337 307.096923 
L 22.26506 306.168229 
L 25.445783 307.353519 
L 28.626506 307.519914 
L 31.807229 307.222076 
L 34.987952 308.19979 
L 38.168675 308.338452 
L 41.349398 307.888849 
L 47.710843 305.944535 
L 50.891566 305.558923 
L 57.253012 305.662544 
L 60.433735 306.298747 
L 63.614458 306.725796 
L 66.795181 306.596831 
L 69.975904 306.60301 
L 73.156627 307.057548 
L 76.337349 307.143126 
L 79.518072 307.429612 
L 82.698795 307.056638 
L 85.879518 307.172398 
L 89.060241 305.169042 
L 92.240964 305.60374 
L 95.421687 306.188487 
L 98.60241 306.631893 
L 101.783133 306.706717 
L 104.963855 305.968996 
L 108.144578 306.385735 
L 111.325301 306.042828 
L 114.506024 305.981236 
L 120.86747 303.900265 
L 124.048193 304.624884 
L 127.228916 305.83038 
L 130.409639 305.612655 
L 133.590361 304.60288 
L 136.771084 305.010409 
L 139.951807 304.496799 
L 143.13253 304.151373 
L 149.493976 304.934829 
L 152.674699 304.960419 
L 155.855422 305.534704 
L 159.036145 305.754255 
L 162.216867 306.416442 
L 165.39759 306.050945 
L 168.578313 305.833326 
L 171.759036 304.997579 
L 174.939759 304.73922 
L 178.120482 304.046553 
L 181.301205 304.676607 
L 184.481928 304.181335 
L 187.662651 304.459438 
L 190.843373 304.566274 
L 194.024096 303.603528 
L 197.204819 303.458916 
L 200.385542 303.567315 
L 203.566265 305.008164 
L 206.746988 305.526677 
L 209.927711 304.251816 
L 213.108434 304.578367 
L 216.289157 305.210358 
L 222.650602 304.277514 
L 225.831325 304.46893 
L 229.012048 305.725997 
L 232.192771 305.743503 
L 235.373494 306.3428 
L 238.554217 306.645788 
L 241.73494 305.879817 
L 244.915663 306.989544 
L 248.096386 307.172903 
L 251.277108 306.80671 
L 254.457831 305.965771 
L 257.638554 306.605039 
L 260.819277 307.582999 
L 264 306.737225 
L 267.180723 307.341002 
L 270.361446 307.655716 
L 273.542169 307.442974 
L 276.722892 307.022367 
L 279.903614 306.809113 
L 283.084337 312.376703 
L 286.26506 314.378451 
L 289.445783 314.180905 
L 292.626506 312.836424 
L 295.807229 310.604818 
L 298.987952 309.357255 
L 302.168675 309.081134 
L 305.349398 307.697953 
L 308.53012 306.588204 
L 311.710843 306.449189 
L 314.891566 307.452331 
L 318.072289 306.523427 
L 321.253012 307.182675 
L 324.433735 307.149216 
L 327.614458 307.473666 
L 333.975904 307.775526 
L 337.156627 307.261045 
L 340.337349 307.832988 
L 346.698795 307.30689 
L 349.879518 306.678525 
L 353.060241 307.358776 
L 356.240964 305.833985 
L 359.421687 306.35814 
L 362.60241 305.306653 
L 365.783133 305.385479 
L 368.963855 305.345244 
L 372.144578 306.038838 
L 378.506024 306.270873 
L 381.686747 305.873098 
L 384.86747 305.323488 
L 388.048193 305.121917 
L 397.590361 305.394339 
L 400.771084 305.621157 
L 403.951807 305.579033 
L 407.13253 304.821414 
L 410.313253 304.589724 
L 413.493976 304.915695 
L 419.855422 304.642918 
L 423.036145 304.210397 
L 426.216867 304.609444 
L 429.39759 304.892921 
L 432.578313 308.461003 
L 435.759036 306.509672 
L 438.939759 305.361435 
L 442.120482 304.682642 
L 448.481928 304.881853 
L 451.662651 305.798203 
L 454.843373 307.493509 
L 461.204819 306.423247 
L 464.385542 305.933909 
L 467.566265 305.853299 
L 470.746988 305.647335 
L 473.927711 304.889966 
L 477.108434 304.937546 
L 480.289157 302.818062 
L 483.46988 303.274983 
L 486.650602 303.862751 
L 493.012048 305.900652 
L 496.192771 306.109218 
L 502.554217 305.496905 
L 505.73494 307.020555 
L 508.915663 306.428793 
L 512.096386 306.497416 
L 515.277108 306.39422 
L 518.457831 305.680223 
L 521.638554 306.23275 
L 524.819277 306.421313 
L 528 305.20467 
L 537.542169 304.824701 
L 540.722892 305.979132 
L 543.903614 306.086885 
L 547.084337 306.563792 
L 550.26506 306.568913 
L 553.445783 306.090211 
L 556.626506 306.332981 
L 559.807229 305.868989 
L 562.987952 306.357618 
L 566.168675 307.427877 
L 569.349398 306.778574 
L 572.53012 306.777274 
L 575.710843 305.92672 
L 578.891566 306.229551 
L 582.072289 307.063835 
L 585.253012 305.938268 
L 588.433735 305.366155 
L 591.614458 305.91382 
L 594.795181 306.343404 
L 597.975904 307.342532 
L 601.156627 306.873344 
L 604.337349 305.603319 
L 607.518072 306.167778 
L 610.698795 305.767606 
L 613.879518 306.429332 
L 617.060241 306.043407 
L 620.240964 305.102821 
L 623.421687 305.372046 
L 626.60241 305.359548 
L 629.783133 304.549995 
L 632.963855 303.899479 
L 636.144578 304.011148 
L 639.325301 303.967563 
L 642.506024 304.425733 
L 645.686747 304.074201 
L 652.048193 304.903733 
L 655.228916 305.397365 
L 661.590361 305.498647 
L 664.771084 305.07637 
L 667.951807 305.10401 
L 671.13253 306.370338 
L 674.313253 305.334153 
L 677.493976 305.368586 
L 680.674699 306.884082 
L 683.855422 303.681299 
L 687.036145 303.695686 
L 690.216867 304.233559 
L 693.39759 303.759158 
L 696.578313 303.803101 
L 702.939759 304.04389 
L 709.301205 304.285105 
L 715.662651 305.125535 
L 718.843373 304.944819 
L 722.024096 305.167056 
L 728.385542 306.452109 
L 731.566265 306.647385 
L 734.746988 306.659366 
L 737.927711 307.728135 
L 741.108434 306.538659 
L 747.46988 306.810568 
L 750.650602 307.124128 
L 753.831325 307.826565 
L 757.012048 307.517817 
L 760.192771 306.853809 
L 763.373494 306.336369 
L 766.554217 306.859385 
L 769.73494 306.625087 
L 772.915663 306.507731 
L 776.096386 306.991823 
L 779.277108 306.955987 
L 782.457831 306.186596 
L 785.638554 306.114778 
L 788.819277 306.263531 
L 788.819277 306.263531 
" clip-path="url(#pb07d4dff0a)" style="fill: none; stroke: #000000; stroke-width: 1.5; stroke-linecap: square"/>
   </g>
   <g id="line2d_5">
    <path d="M 0 306 
L 3.180723 306 
L 9.542169 306.871587 
L 12.722892 305.407398 
L 15.903614 305.752095 
L 19.084337 306.903203 
L 22.26506 306.189958 
L 25.445783 307.113808 
L 28.626506 307.277147 
L 31.807229 307.091222 
L 34.987952 307.815565 
L 38.168675 307.962803 
L 41.349398 307.698362 
L 47.710843 306.402 
L 50.891566 306.099934 
L 57.253012 306.060905 
L 63.614458 306.666147 
L 69.975904 306.597866 
L 73.156627 306.86779 
L 76.337349 306.936011 
L 79.518072 307.122002 
L 82.698795 306.935519 
L 85.879518 307.01285 
L 89.060241 305.88996 
L 95.421687 306.355888 
L 98.60241 306.588045 
L 101.783133 306.633398 
L 104.963855 306.232978 
L 108.144578 306.438714 
L 111.325301 306.247311 
L 114.506024 306.1946 
L 120.86747 304.99504 
L 124.048193 305.29048 
L 127.228916 305.882439 
L 130.409639 305.762305 
L 133.590361 305.210819 
L 136.771084 305.378712 
L 143.13253 304.844032 
L 149.493976 305.162334 
L 152.674699 305.156244 
L 155.855422 305.442881 
L 159.036145 305.566258 
L 162.216867 305.93156 
L 168.578313 305.689388 
L 171.759036 305.263374 
L 174.939759 305.107166 
L 178.120482 304.714562 
L 181.301205 304.99006 
L 184.481928 304.704961 
L 190.843373 304.831355 
L 194.024096 304.307515 
L 197.204819 304.175161 
L 200.385542 304.17382 
L 203.566265 304.876056 
L 206.746988 305.156226 
L 209.927711 304.522501 
L 213.108434 304.669286 
L 216.289157 304.992697 
L 222.650602 304.515697 
L 225.831325 304.59755 
L 229.012048 305.242764 
L 232.192771 305.290797 
L 235.373494 305.638814 
L 238.554217 305.85358 
L 241.73494 305.517436 
L 244.915663 306.12527 
L 248.096386 306.294104 
L 251.277108 306.177827 
L 254.457831 305.791809 
L 257.638554 306.140512 
L 260.819277 306.689615 
L 264 306.322693 
L 267.180723 306.670509 
L 270.361446 306.889924 
L 273.542169 306.840541 
L 279.903614 306.584909 
L 283.084337 309.507867 
L 286.26506 310.789463 
L 289.445783 310.983702 
L 292.626506 310.550907 
L 295.807229 309.573275 
L 298.987952 309.005943 
L 302.168675 308.889497 
L 308.53012 307.568307 
L 311.710843 307.410859 
L 314.891566 307.854991 
L 318.072289 307.337963 
L 321.253012 307.615187 
L 324.433735 307.562905 
L 330.795181 307.742659 
L 333.975904 307.824196 
L 337.156627 307.555093 
L 340.337349 307.829384 
L 346.698795 307.54679 
L 349.879518 307.199497 
L 353.060241 307.510508 
L 356.240964 306.701361 
L 359.421687 306.903256 
L 362.60241 306.311404 
L 368.963855 306.174604 
L 372.144578 306.469084 
L 378.506024 306.529609 
L 388.048193 305.838009 
L 397.590361 305.827882 
L 400.771084 305.910233 
L 403.951807 305.865389 
L 407.13253 305.44245 
L 410.313253 305.267607 
L 413.493976 305.384033 
L 419.855422 305.16298 
L 423.036145 304.896917 
L 429.39759 305.162305 
L 432.578313 306.999916 
L 435.759036 306.104191 
L 438.939759 305.537271 
L 442.120482 305.169432 
L 448.481928 305.196699 
L 451.662651 305.647031 
L 454.843373 306.545904 
L 464.385542 305.880372 
L 470.746988 305.735499 
L 473.927711 305.333231 
L 477.108434 305.321476 
L 480.289157 304.184577 
L 486.650602 304.516989 
L 493.012048 305.508387 
L 496.192771 305.649775 
L 502.554217 305.393191 
L 505.73494 306.195878 
L 508.915663 305.955754 
L 515.277108 306.016793 
L 518.457831 305.672929 
L 521.638554 305.962433 
L 524.819277 306.080408 
L 528 305.473967 
L 537.542169 305.206499 
L 540.722892 305.77531 
L 543.903614 305.845274 
L 547.084337 306.113802 
L 550.26506 306.153669 
L 553.445783 305.940774 
L 556.626506 306.081608 
L 559.807229 305.862407 
L 562.987952 306.116117 
L 566.168675 306.695613 
L 569.349398 306.41756 
L 572.53012 306.446652 
L 575.710843 306.027544 
L 578.891566 306.176576 
L 582.072289 306.611279 
L 585.253012 306.062309 
L 588.433735 305.754998 
L 594.795181 306.228323 
L 597.975904 306.759518 
L 601.156627 306.562519 
L 604.337349 305.924929 
L 607.518072 306.195833 
L 610.698795 305.985562 
L 613.879518 306.313796 
L 617.060241 306.121814 
L 620.240964 305.623866 
L 623.421687 305.722825 
L 626.60241 305.688963 
L 632.963855 304.83979 
L 639.325301 304.72586 
L 642.506024 304.90607 
L 645.686747 304.684616 
L 652.048193 305.036242 
L 655.228916 305.280459 
L 661.590361 305.353295 
L 664.771084 305.146739 
L 667.951807 305.158479 
L 671.13253 305.813859 
L 674.313253 305.320238 
L 677.493976 305.33952 
L 680.674699 306.133341 
L 683.855422 304.531332 
L 687.036145 304.466442 
L 690.216867 304.681563 
L 693.39759 304.396409 
L 702.939759 304.409943 
L 709.301205 304.477887 
L 715.662651 304.904865 
L 718.843373 304.828311 
L 722.024096 304.953331 
L 728.385542 305.682609 
L 734.746988 305.920021 
L 737.927711 306.538741 
L 741.108434 306.017072 
L 747.46988 306.242614 
L 750.650602 306.452446 
L 753.831325 306.874872 
L 757.012048 306.794232 
L 763.373494 306.266886 
L 766.554217 306.543514 
L 772.915663 306.401858 
L 776.096386 306.660933 
L 779.277108 306.671038 
L 782.457831 306.29563 
L 785.638554 306.241128 
L 788.819277 306.309457 
L 788.819277 306.309457 
" clip-path="url(#pb07d4dff0a)" style="fill: none; stroke: #000000; stroke-width: 1.5; stroke-linecap: square"/>
   </g>
   <g id="line2d_6">
    <path d="M 0 306 
L 3.180723 306 
L 9.542169 306.848455 
L 12.722892 305.47772 
L 15.903614 305.780281 
L 19.084337 306.816505 
L 22.26506 306.197173 
L 25.445783 307.001762 
L 28.626506 307.156412 
L 31.807229 307.014411 
L 34.987952 307.622773 
L 38.168675 307.762872 
L 41.349398 307.570555 
L 47.710843 306.565842 
L 50.891566 306.320495 
L 57.253012 306.257697 
L 63.614458 306.678933 
L 69.975904 306.626834 
L 73.156627 306.81368 
L 85.879518 306.933224 
L 89.060241 306.193891 
L 95.421687 306.466825 
L 98.60241 306.610013 
L 101.783133 306.63773 
L 104.963855 306.383975 
L 108.144578 306.504858 
L 114.506024 306.342208 
L 120.86747 305.581594 
L 124.048193 305.729877 
L 127.228916 306.063093 
L 130.409639 305.982117 
L 133.590361 305.643612 
L 136.771084 305.720969 
L 143.13253 305.368675 
L 165.39759 305.813087 
L 168.578313 305.760051 
L 171.759036 305.518138 
L 174.939759 305.419078 
L 178.120482 305.18629 
L 181.301205 305.317086 
L 184.481928 305.144556 
L 190.843373 305.176797 
L 194.024096 304.874388 
L 200.385542 304.748377 
L 203.566265 305.10354 
L 206.746988 305.245115 
L 209.927711 304.899351 
L 219.46988 304.994075 
L 222.650602 304.852258 
L 225.831325 304.8807 
L 229.012048 305.212868 
L 232.192771 305.24022 
L 238.554217 305.551339 
L 241.73494 305.387539 
L 244.915663 305.713999 
L 248.096386 305.820359 
L 251.277108 305.77908 
L 254.457831 305.593348 
L 257.638554 305.784984 
L 260.819277 306.088072 
L 264 305.922805 
L 270.361446 306.260653 
L 279.903614 306.175193 
L 283.084337 307.712846 
L 286.26506 308.45548 
L 289.445783 308.6567 
L 292.626506 308.530055 
L 295.807229 308.110317 
L 298.987952 307.879664 
L 302.168675 307.867963 
L 308.53012 307.255347 
L 311.710843 307.187699 
L 314.891566 307.425895 
L 318.072289 307.177372 
L 321.253012 307.325791 
L 327.614458 307.389721 
L 333.975904 307.48211 
L 337.156627 307.357003 
L 340.337349 307.506359 
L 349.879518 307.211783 
L 353.060241 307.370732 
L 356.240964 306.961338 
L 359.421687 307.054048 
L 362.60241 306.744285 
L 368.963855 306.637334 
L 372.144578 306.768133 
L 378.506024 306.773574 
L 391.228916 306.339755 
L 403.951807 306.280774 
L 407.13253 306.048165 
L 410.313253 305.933542 
L 416.674699 305.893375 
L 426.216867 305.682688 
L 429.39759 305.713752 
L 432.578313 306.629181 
L 435.759036 306.186946 
L 442.120482 305.690673 
L 448.481928 305.661036 
L 451.662651 305.872339 
L 454.843373 306.322577 
L 467.566265 305.973103 
L 470.746988 305.912517 
L 473.927711 305.700081 
L 477.108434 305.678467 
L 480.289157 305.081796 
L 486.650602 305.184857 
L 493.012048 305.649818 
L 496.192771 305.717884 
L 502.554217 305.57574 
L 505.73494 305.977811 
L 508.915663 305.863286 
L 515.277108 305.903021 
L 518.457831 305.733599 
L 524.819277 305.943955 
L 528 305.641353 
L 537.542169 305.480831 
L 540.722892 305.760641 
L 556.626506 305.94045 
L 559.807229 305.833247 
L 562.987952 305.964181 
L 566.168675 306.265464 
L 569.349398 306.140977 
L 572.53012 306.167733 
L 575.710843 305.9663 
L 578.891566 306.046082 
L 582.072289 306.274226 
L 588.433735 305.853033 
L 594.795181 306.092333 
L 597.975904 306.369572 
L 601.156627 306.286693 
L 604.337349 305.973366 
L 607.518072 306.109898 
L 610.698795 306.00417 
L 613.879518 306.17024 
L 617.060241 306.079765 
L 620.240964 305.826854 
L 626.60241 305.844495 
L 632.963855 305.389357 
L 648.86747 305.26917 
L 658.409639 305.493677 
L 661.590361 305.493369 
L 667.951807 305.375399 
L 671.13253 305.70151 
L 674.313253 305.453129 
L 677.493976 305.455952 
L 680.674699 305.856339 
L 683.855422 305.047547 
L 687.036145 304.992516 
L 690.216867 305.07433 
L 693.39759 304.909595 
L 706.120482 304.84491 
L 712.481928 304.952133 
L 715.662651 305.046966 
L 722.024096 305.056572 
L 731.566265 305.523027 
L 734.746988 305.572443 
L 737.927711 305.902718 
L 741.108434 305.662317 
L 750.650602 305.935416 
L 753.831325 306.173195 
L 760.192771 306.041526 
L 763.373494 305.939357 
L 766.554217 306.094517 
L 772.915663 306.059081 
L 776.096386 306.206225 
L 779.277108 306.229289 
L 782.457831 306.056392 
L 788.819277 306.082299 
L 788.819277 306.082299 
" clip-path="url(#pb07d4dff0a)" style="fill: none; stroke: #000000; stroke-width: 1.5; stroke-linecap: square"/>
   </g>
   <g id="line2d_7">
    <path d="M 0 306 
L 3.180723 306 
L 9.542169 306.836859 
L 12.722892 305.511772 
L 15.903614 305.794805 
L 19.084337 306.775869 
L 22.26506 306.200058 
L 25.445783 306.948273 
L 28.626506 307.097225 
L 31.807229 306.974175 
L 34.987952 307.528005 
L 38.168675 307.662286 
L 41.349398 307.500523 
L 47.710843 306.628198 
L 50.891566 306.411951 
L 57.253012 306.346442 
L 63.614458 306.690847 
L 69.975904 306.645953 
L 76.337349 306.838497 
L 79.518072 306.945172 
L 82.698795 306.853913 
L 85.879518 306.898605 
L 89.060241 306.322821 
L 101.783133 306.649993 
L 104.963855 306.458475 
L 108.144578 306.545761 
L 114.506024 306.420785 
L 120.86747 305.856054 
L 124.048193 305.952887 
L 127.228916 306.183863 
L 130.409639 306.121701 
L 133.590361 305.876725 
L 136.771084 305.922984 
L 143.13253 305.661175 
L 165.39759 305.917191 
L 168.578313 305.878614 
L 178.120482 305.483902 
L 181.301205 305.560248 
L 184.481928 305.440938 
L 190.843373 305.44489 
L 194.024096 305.243435 
L 200.385542 305.141161 
L 203.566265 305.354321 
L 206.746988 305.436267 
L 209.927711 305.21429 
L 219.46988 305.251035 
L 225.831325 305.165726 
L 229.012048 305.36117 
L 235.373494 305.48374 
L 238.554217 305.55737 
L 241.73494 305.458464 
L 244.915663 305.652714 
L 251.277108 305.696049 
L 254.457831 305.587744 
L 260.819277 305.882771 
L 264 305.790678 
L 270.361446 305.997624 
L 279.903614 305.966711 
L 283.084337 306.862149 
L 286.26506 307.312185 
L 289.445783 307.456521 
L 292.626506 307.413561 
L 298.987952 307.09134 
L 302.168675 307.104036 
L 308.53012 306.789629 
L 311.710843 306.762682 
L 314.891566 306.907488 
L 318.072289 306.780028 
L 324.433735 306.874952 
L 333.975904 307.0038 
L 337.156627 306.945601 
L 340.337349 307.038302 
L 353.060241 307.000709 
L 356.240964 306.784203 
L 359.421687 306.839268 
L 362.60241 306.674484 
L 375.325301 306.696662 
L 381.686747 306.62962 
L 388.048193 306.480533 
L 407.13253 306.288911 
L 423.036145 306.037079 
L 429.39759 306.060464 
L 432.578313 306.539585 
L 438.939759 306.149233 
L 445.301205 306.012023 
L 451.662651 306.108605 
L 454.843373 306.340278 
L 477.108434 305.979159 
L 480.289157 305.660539 
L 486.650602 305.689741 
L 496.192771 305.941402 
L 502.554217 305.857294 
L 505.73494 306.060451 
L 512.096386 306.01793 
L 524.819277 306.025473 
L 528 305.866398 
L 537.542169 305.76836 
L 540.722892 305.906013 
L 562.987952 305.997673 
L 566.168675 306.151978 
L 575.710843 306.003225 
L 585.253012 306.025606 
L 588.433735 305.945614 
L 601.156627 306.168167 
L 604.337349 306.010087 
L 607.518072 306.078985 
L 610.698795 306.026137 
L 613.879518 306.110754 
L 629.783133 305.817562 
L 636.144578 305.677726 
L 648.86747 305.605119 
L 661.590361 305.69691 
L 667.951807 305.627945 
L 671.13253 305.788112 
L 674.313253 305.660319 
L 677.493976 305.657595 
L 680.674699 305.856849 
L 683.855422 305.445666 
L 706.120482 305.283349 
L 722.024096 305.350582 
L 737.927711 305.765877 
L 741.108434 305.647254 
L 750.650602 305.789097 
L 753.831325 305.912688 
L 788.819277 305.913562 
L 788.819277 305.913562 
" clip-path="url(#pb07d4dff0a)" style="fill: none; stroke: #000000; stroke-width: 1.5; stroke-linecap: square"/>
   </g>
   <g id="line2d_8">
    <path d="M 0 306 
L 3.180723 306 
L 9.542169 306.831057 
L 12.722892 305.52851 
L 15.903614 305.802155 
L 19.084337 306.756244 
L 22.26506 306.201344 
L 25.445783 306.922226 
L 28.626506 307.068051 
L 31.807229 306.953746 
L 34.987952 307.481267 
L 38.168675 307.612179 
L 41.349398 307.464329 
L 47.710843 306.654338 
L 50.891566 306.452446 
L 57.253012 306.387332 
L 63.614458 306.69725 
L 69.975904 306.655842 
L 76.337349 306.827732 
L 79.518072 306.922753 
L 82.698795 306.843243 
L 85.879518 306.882934 
L 89.060241 306.380394 
L 101.783133 306.657906 
L 104.963855 306.493999 
L 108.144578 306.566999 
L 117.686747 306.228327 
L 120.86747 305.982546 
L 124.048193 306.059177 
L 127.228916 306.247324 
L 130.409639 306.194124 
L 133.590361 305.990696 
L 136.771084 306.02525 
L 143.13253 305.80589 
L 168.578313 305.957842 
L 178.120482 305.64241 
L 181.301205 305.697783 
L 187.662651 305.610244 
L 190.843373 305.598519 
L 197.204819 305.381573 
L 200.385542 305.354945 
L 206.746988 305.569305 
L 209.927711 305.40031 
L 219.46988 305.417422 
L 225.831325 305.347278 
L 229.012048 305.486966 
L 235.373494 305.571438 
L 238.554217 305.623182 
L 241.73494 305.550367 
L 248.096386 305.734926 
L 257.638554 305.721105 
L 260.819277 305.849365 
L 264 305.784834 
L 273.542169 305.937895 
L 279.903614 305.913208 
L 283.084337 306.535969 
L 286.26506 306.853207 
L 289.445783 306.960736 
L 292.626506 306.939632 
L 298.987952 306.733477 
L 302.168675 306.748139 
L 311.710843 306.531145 
L 314.891566 306.632647 
L 318.072289 306.551354 
L 327.614458 306.663751 
L 346.698795 306.730218 
L 349.879518 306.678321 
L 353.060241 306.743804 
L 356.240964 306.606544 
L 359.421687 306.645078 
L 365.783133 306.529705 
L 375.325301 306.56278 
L 384.86747 306.465548 
L 397.590361 306.403079 
L 407.13253 306.313719 
L 426.216867 306.160899 
L 429.39759 306.16428 
L 432.578313 306.458904 
L 438.939759 306.219353 
L 445.301205 306.132572 
L 451.662651 306.188219 
L 454.843373 306.328344 
L 477.108434 306.105192 
L 480.289157 305.912119 
L 489.831325 305.981556 
L 496.192771 306.065725 
L 502.554217 306.012274 
L 505.73494 306.130621 
L 518.457831 306.04565 
L 524.819277 306.102629 
L 531.180723 305.989499 
L 543.903614 306.03109 
L 553.445783 306.044859 
L 572.53012 306.12897 
L 578.891566 306.091947 
L 582.072289 306.158212 
L 588.433735 306.03522 
L 601.156627 306.159853 
L 604.337349 306.070337 
L 613.879518 306.125509 
L 658.409639 305.870359 
L 680.674699 305.941448 
L 683.855422 305.713592 
L 712.481928 305.612129 
L 779.277108 305.941482 
L 788.819277 305.908278 
L 788.819277 305.908278 
" clip-path="url(#pb07d4dff0a)" style="fill: none; stroke: #000000; stroke-width: 1.5; stroke-linecap: square"/>
   </g>
   <g id="line2d_9">
    <path d="M 0 306 
L 3.180723 306 
L 9.542169 306.828155 
L 12.722892 305.536806 
L 15.903614 305.80585 
L 19.084337 306.746606 
L 22.26506 306.201951 
L 25.445783 306.909385 
L 28.626506 307.053585 
L 31.807229 306.943474 
L 34.987952 307.458088 
L 38.168675 307.587214 
L 41.349398 307.445987 
L 47.710843 306.666151 
L 50.891566 306.471344 
L 57.253012 306.406792 
L 63.614458 306.700441 
L 69.975904 306.66075 
L 76.337349 306.822824 
L 79.518072 306.91228 
L 82.698795 306.83822 
L 85.879518 306.875511 
L 89.060241 306.407343 
L 101.783133 306.662161 
L 104.963855 306.511118 
L 108.144578 306.577611 
L 117.686747 306.267025 
L 120.86747 306.042372 
L 130.409639 306.230175 
L 133.590361 306.045987 
L 136.771084 306.075598 
L 143.13253 305.876355 
L 168.578313 306.001186 
L 178.120482 305.722136 
L 181.301205 305.768665 
L 187.662651 305.689663 
L 190.843373 305.677991 
L 197.204819 305.487758 
L 200.385542 305.462933 
L 206.746988 305.642774 
L 209.927711 305.497462 
L 222.650602 305.444096 
L 225.831325 305.444909 
L 229.012048 305.56073 
L 241.73494 305.609898 
L 248.096386 305.761828 
L 257.638554 305.748728 
L 260.819277 305.853862 
L 264 305.800802 
L 273.542169 305.92602 
L 279.903614 305.906208 
L 283.084337 306.411352 
L 286.26506 306.66984 
L 292.626506 306.744994 
L 298.987952 306.584175 
L 305.349398 306.515824 
L 311.710843 306.429718 
L 314.891566 306.511697 
L 318.072289 306.448788 
L 330.795181 306.563443 
L 346.698795 306.603484 
L 368.963855 306.44091 
L 378.506024 306.486546 
L 400.771084 306.371616 
L 419.855422 306.225546 
L 429.39759 306.188541 
L 432.578313 306.406725 
L 442.120482 306.178201 
L 451.662651 306.205993 
L 454.843373 306.308452 
L 493.012048 306.101823 
L 524.819277 306.134917 
L 531.180723 306.054299 
L 553.445783 306.089621 
L 582.072289 306.165513 
L 591.614458 306.104057 
L 607.518072 306.129877 
L 652.048193 305.943106 
L 671.13253 305.982963 
L 677.493976 305.931566 
L 680.674699 306.001889 
L 683.855422 305.851519 
L 718.843373 305.771079 
L 734.746988 305.852309 
L 741.108434 305.866345 
L 788.819277 305.949406 
L 788.819277 305.949406 
" clip-path="url(#pb07d4dff0a)" style="fill: none; stroke: #000000; stroke-width: 1.5; stroke-linecap: square"/>
   </g>
  </g>
 </g>
 <defs>
  <clipPath id="pb07d4dff0a">
   <rect x="0" y="0" width="792" height="612"/>
  </clipPath>
 </defs>
</svg>
