<?xml version="1.0" encoding="utf-8" standalone="no"?>
<!DOCTYPE svg PUBLIC "-//W3C//DTD SVG 1.1//EN"
  "http://www.w3.org/Graphics/SVG/1.1/DTD/svg11.dtd">
<svg xmlns:xlink="http://www.w3.org/1999/xlink" width="792pt" height="612pt" viewBox="0 0 792 612" xmlns="http://www.w3.org/2000/svg" version="1.1">
 <metadata>
  <rdf:RDF xmlns:dc="http://purl.org/dc/elements/1.1/" xmlns:cc="http://creativecommons.org/ns#" xmlns:rdf="http://www.w3.org/1999/02/22-rdf-syntax-ns#">
   <cc:Work>
    <dc:type rdf:resource="http://purl.org/dc/dcmitype/StillImage"/>
    <dc:date>2023-01-02T15:39:06.815208</dc:date>
    <dc:format>image/svg+xml</dc:format>
    <dc:creator>
     <cc:Agent>
      <dc:title>Matplotlib v3.6.2, https://matplotlib.org/</dc:title>
     </cc:Agent>
    </dc:creator>
   </cc:Work>
  </rdf:RDF>
 </metadata>
 <defs>
  <style type="text/css">*{stroke-linejoin: round; stroke-linecap: butt}</style>
 </defs>
 <g id="figure_1">
  <g id="patch_1">
   <path d="M 0 612 
L 792 612 
L 792 0 
L 0 0 
z
" style="fill: #ffffff"/>
  </g>
  <g id="axes_1">
   <g id="line2d_1">
    <path d="M 0 306 
L 12.774194 302.028896 
L 25.548387 309.070749 
L 38.322581 308.862966 
L 51.096774 313.202472 
L 63.870968 304.245247 
L 76.645161 298.266794 
L 89.419355 309.463219 
L 102.193548 303.437169 
L 114.967742 310.271208 
L 127.741935 303.82966 
L 140.516129 299.605247 
L 153.290323 306.877384 
L 166.064516 305.238061 
L 178.83871 299.743723 
L 191.612903 299.974521 
L 204.387097 304.476131 
L 217.16129 303.529519 
L 229.935484 306.946651 
L 242.709677 301.890385 
L 255.483871 306.415604 
L 268.258065 307.477692 
L 281.032258 308.17034 
L 293.806452 306.069267 
L 306.580645 305.422773 
L 319.354839 302.582953 
L 332.129032 305.214972 
L 344.903226 313.663982 
L 357.677419 299.328304 
L 370.451613 305.49204 
L 383.225806 315.671116 
L 396 285.136772 
L 408.774194 303.552606 
L 421.548387 307.15445 
L 434.322581 300.851614 
L 447.096774 303.875836 
L 459.870968 304.753195 
L 472.645161 304.314512 
L 485.419355 304.49922 
L 498.193548 304.984083 
L 510.967742 307.246805 
L 523.741935 307.269894 
L 536.516129 303.806572 
L 549.290323 306.346337 
L 562.064516 309.624821 
L 574.83871 310.063445 
L 587.612903 307.80093 
L 600.387097 306.761939 
L 613.16129 314.010092 
L 625.935484 299.743723 
L 638.709677 307.223716 
L 651.483871 307.893283 
L 664.258065 309.024575 
L 677.032258 312.025479 
L 689.806452 305.884554 
L 702.580645 303.113947 
L 715.354839 303.390994 
L 728.129032 309.924934 
L 740.903226 305.330417 
L 753.677419 305.907644 
L 766.451613 309.832592 
L 779.225806 306.831206 
" clip-path="url(#p99f738ebc3)" style="fill: none; stroke: #000000; stroke-width: 1.5; stroke-linecap: square"/>
   </g>
   <g id="line2d_2">
    <path d="M 0 306 
L 12.774194 306 
L 25.548387 303.352515 
L 38.322581 306.620107 
L 51.096774 307.816322 
L 63.870968 310.596622 
L 76.645161 307.370678 
L 89.419355 302.782187 
L 102.193548 306.135818 
L 114.967742 304.781445 
L 127.741935 307.542611 
L 140.516129 305.675847 
L 153.290323 302.622064 
L 166.064516 304.737259 
L 178.83871 304.989606 
L 191.612903 302.369294 
L 204.387097 301.153231 
L 217.16129 302.816624 
L 229.935484 303.159849 
L 242.709677 305.059325 
L 255.483871 303.479269 
L 268.258065 304.946507 
L 281.032258 306.216494 
L 293.806452 307.209954 
L 306.580645 306.651565 
L 319.354839 306.039025 
L 332.129032 304.309079 
L 344.903226 304.758627 
L 357.677419 309.235071 
L 370.451613 304.267339 
L 383.225806 304.875792 
L 396 310.289495 
L 408.774194 297.658025 
L 421.548387 300.601149 
L 434.322581 303.88652 
L 447.096774 302.360422 
L 459.870968 303.098917 
L 472.645161 303.93668 
L 485.419355 304.123286 
L 498.193548 304.289341 
L 510.967742 304.675689 
L 523.741935 305.96849 
L 536.516129 306.619421 
L 549.290323 305.218775 
L 562.064516 305.787399 
L 574.83871 307.715729 
L 587.612903 308.900902 
L 600.387097 308.357397 
L 613.16129 307.563165 
L 625.935484 310.800421 
L 638.709677 305.257075 
L 651.483871 306.247099 
L 664.258065 307.073232 
L 677.032258 308.047747 
L 689.806452 310.040631 
L 702.580645 307.958926 
L 715.354839 305.529254 
L 728.129032 304.43928 
L 740.903226 307.202167 
L 753.677419 306.262582 
L 766.451613 306.081219 
L 779.225806 307.958564 
" clip-path="url(#p99f738ebc3)" style="fill: none; stroke: #000000; stroke-width: 1.5; stroke-linecap: square"/>
   </g>
   <g id="line2d_3">
    <path d="M 0 306 
L 12.774194 306 
L 25.548387 303.673695 
L 38.322581 306.119024 
L 51.096774 307.190627 
L 63.870968 309.329917 
L 76.645161 307.627965 
L 89.419355 304.61979 
L 102.193548 306.133011 
L 114.967742 305.306891 
L 127.741935 306.807891 
L 140.516129 305.915867 
L 153.290323 304.03794 
L 166.064516 304.878872 
L 178.83871 304.984904 
L 191.612903 303.44107 
L 204.387097 302.421652 
L 217.16129 303.02162 
L 229.935484 303.172102 
L 242.709677 304.275164 
L 255.483871 303.568635 
L 268.258065 304.394675 
L 281.032258 305.301376 
L 293.806452 306.153063 
L 306.580645 306.124622 
L 319.354839 305.921335 
L 332.129032 304.934677 
L 344.903226 305.018365 
L 357.677419 307.567212 
L 370.451613 305.145122 
L 383.225806 305.247023 
L 396 308.319366 
L 408.774194 301.503123 
L 421.548387 302.102308 
L 434.322581 303.586113 
L 447.096774 302.778137 
L 459.870968 303.101918 
L 472.645161 303.583644 
L 485.419355 303.794074 
L 498.193548 303.996388 
L 510.967742 304.284427 
L 523.741935 305.154174 
L 536.516129 305.779238 
L 549.290323 305.199831 
L 562.064516 305.527227 
L 574.83871 306.73926 
L 587.612903 307.718195 
L 600.387097 307.733385 
L 613.16129 307.473733 
L 625.935484 309.400606 
L 638.709677 306.5635 
L 651.483871 306.764193 
L 664.258065 307.099514 
L 677.032258 307.668273 
L 689.806452 308.953475 
L 702.580645 308.056234 
L 715.354839 306.60652 
L 728.129032 305.660267 
L 740.903226 306.912469 
L 753.677419 306.450848 
L 766.451613 306.291244 
L 779.225806 307.32877 
" clip-path="url(#p99f738ebc3)" style="fill: none; stroke: #000000; stroke-width: 1.5; stroke-linecap: square"/>
   </g>
   <g id="line2d_4">
    <path d="M 0 306 
L 12.774194 306 
L 25.548387 303.842757 
L 38.322581 305.894575 
L 51.096774 306.839163 
L 63.870968 308.586379 
L 76.645161 307.517968 
L 89.419355 305.422972 
L 102.193548 306.280093 
L 114.967742 305.707363 
L 127.741935 306.589466 
L 140.516129 306.073696 
L 153.290323 304.897356 
L 166.064516 305.249386 
L 178.83871 305.24741 
L 191.612903 304.30131 
L 204.387097 303.566913 
L 217.16129 303.719595 
L 229.935484 303.687955 
L 242.709677 304.22642 
L 255.483871 303.842738 
L 268.258065 304.263126 
L 281.032258 304.786124 
L 293.806452 305.334761 
L 306.580645 305.453478 
L 319.354839 305.448528 
L 332.129032 304.987492 
L 344.903226 305.024024 
L 357.677419 306.40975 
L 370.451613 305.275448 
L 383.225806 305.3101 
L 396 306.966779 
L 408.774194 303.474808 
L 421.548387 303.485659 
L 434.322581 304.072554 
L 447.096774 303.554916 
L 459.870968 303.602863 
L 472.645161 303.780609 
L 485.419355 303.865597 
L 498.193548 303.970297 
L 510.967742 304.128797 
L 523.741935 304.627251 
L 536.516129 305.045829 
L 549.290323 304.848641 
L 562.064516 305.091134 
L 574.83871 305.814199 
L 587.612903 306.493318 
L 600.387097 306.706394 
L 613.16129 306.719467 
L 625.935484 307.885649 
L 638.709677 306.587758 
L 651.483871 306.689114 
L 664.258065 306.88445 
L 677.032258 307.226591 
L 689.806452 307.99305 
L 702.580645 307.656162 
L 715.354839 306.931633 
L 728.129032 306.367029 
L 740.903226 306.937717 
L 753.677419 306.682063 
L 766.451613 306.55401 
L 779.225806 307.082227 
" clip-path="url(#p99f738ebc3)" style="fill: none; stroke: #000000; stroke-width: 1.5; stroke-linecap: square"/>
   </g>
   <g id="line2d_5">
    <path d="M 0 306 
L 12.774194 306 
L 25.548387 303.928399 
L 38.322581 305.793005 
L 51.096774 306.66295 
L 63.870968 308.206982 
L 76.645161 307.395921 
L 89.419355 305.729467 
L 102.193548 306.349264 
L 114.967742 305.902915 
L 127.741935 306.528525 
L 140.516129 306.163974 
L 153.290323 305.321794 
L 166.064516 305.51284 
L 178.83871 305.480386 
L 191.612903 304.825717 
L 204.387097 304.288804 
L 217.16129 304.308976 
L 229.935484 304.227063 
L 242.709677 304.506676 
L 255.483871 304.24289 
L 268.258065 304.458099 
L 281.032258 304.752468 
L 293.806452 305.080909 
L 306.580645 305.174656 
L 319.354839 305.197915 
L 332.129032 304.955381 
L 344.903226 304.979224 
L 357.677419 305.770054 
L 370.451613 305.188165 
L 383.225806 305.215411 
L 396 306.146948 
L 408.774194 304.284086 
L 421.548387 304.219684 
L 434.322581 304.476764 
L 447.096774 304.160625 
L 459.870968 304.135896 
L 472.645161 304.189293 
L 485.419355 304.200086 
L 498.193548 304.225789 
L 510.967742 304.290754 
L 523.741935 304.543327 
L 536.516129 304.775725 
L 549.290323 304.693302 
L 562.064516 304.833596 
L 574.83871 305.239483 
L 587.612903 305.647452 
L 600.387097 305.829282 
L 613.16129 305.907917 
L 625.935484 306.590293 
L 638.709677 306.014418 
L 651.483871 306.116009 
L 664.258065 306.265165 
L 677.032258 306.496537 
L 689.806452 306.959783 
L 702.580645 306.869777 
L 715.354839 306.555598 
L 728.129032 306.291049 
L 740.903226 306.594658 
L 753.677419 306.489096 
L 766.451613 306.440569 
L 779.225806 306.723543 
" clip-path="url(#p99f738ebc3)" style="fill: none; stroke: #000000; stroke-width: 1.5; stroke-linecap: square"/>
   </g>
   <g id="line2d_6">
    <path d="M 0 306 
L 12.774194 306 
L 25.548387 303.971362 
L 38.322581 305.74532 
L 51.096774 306.576109 
L 63.870968 308.018881 
L 76.645161 307.319926 
L 89.419355 305.852379 
L 102.193548 306.375075 
L 114.967742 305.989287 
L 127.741935 306.505673 
L 140.516129 306.206374 
L 153.290323 305.515925 
L 166.064516 305.649972 
L 178.83871 305.611569 
L 191.612903 305.09089 
L 204.387097 304.656996 
L 217.16129 304.642283 
L 229.935484 304.555158 
L 242.709677 304.735909 
L 255.483871 304.527733 
L 268.258065 304.661716 
L 281.032258 304.856016 
L 293.806452 305.078777 
L 306.580645 305.143738 
L 319.354839 305.161623 
L 332.129032 304.999839 
L 344.903226 305.013067 
L 357.677419 305.535106 
L 370.451613 305.167162 
L 383.225806 305.186098 
L 396 305.787867 
L 408.774194 304.618659 
L 421.548387 304.559234 
L 434.322581 304.701988 
L 447.096774 304.492806 
L 459.870968 304.459685 
L 472.645161 304.475266 
L 485.419355 304.466822 
L 498.193548 304.468507 
L 510.967742 304.495059 
L 523.741935 304.635496 
L 536.516129 304.768793 
L 549.290323 304.7205 
L 562.064516 304.801465 
L 574.83871 305.039906 
L 587.612903 305.286512 
L 600.387097 305.40912 
L 613.16129 305.474669 
L 625.935484 305.885837 
L 638.709677 305.591676 
L 651.483871 305.669401 
L 664.258065 305.774762 
L 677.032258 305.927969 
L 689.806452 306.214096 
L 702.580645 306.198703 
L 715.354839 306.055235 
L 728.129032 305.931833 
L 740.903226 306.116069 
L 753.677419 306.079957 
L 766.451613 306.072065 
L 779.225806 306.243725 
" clip-path="url(#p99f738ebc3)" style="fill: none; stroke: #000000; stroke-width: 1.5; stroke-linecap: square"/>
   </g>
   <g id="line2d_7">
    <path d="M 0 306 
L 12.774194 306 
L 25.548387 303.99286 
L 38.322581 305.722299 
L 51.096774 306.533179 
L 63.870968 307.925692 
L 76.645161 307.278605 
L 89.419355 305.90581 
L 102.193548 306.384939 
L 114.967742 306.028316 
L 127.741935 306.495171 
L 140.516129 306.225763 
L 153.290323 305.605897 
L 166.064516 305.716913 
L 178.83871 305.677688 
L 191.612903 305.219265 
L 204.387097 304.835509 
L 217.16129 304.81051 
L 229.935484 304.725493 
L 242.709677 304.866563 
L 255.483871 304.685161 
L 268.258065 304.786616 
L 281.032258 304.938735 
L 293.806452 305.115215 
L 306.580645 305.165643 
L 319.354839 305.17882 
L 332.129032 305.049638 
L 344.903226 305.057638 
L 357.677419 305.463248 
L 370.451613 305.18136 
L 383.225806 305.195291 
L 396 305.654432 
L 408.774194 304.773747 
L 421.548387 304.722511 
L 434.322581 304.822493 
L 447.096774 304.662374 
L 459.870968 304.631249 
L 472.645161 304.635989 
L 485.419355 304.623708 
L 498.193548 304.619031 
L 510.967742 304.632528 
L 523.741935 304.727706 
L 536.516129 304.818893 
L 549.290323 304.783098 
L 562.064516 304.837613 
L 574.83871 305.002349 
L 587.612903 305.17428 
L 600.387097 305.262402 
L 613.16129 305.312107 
L 625.935484 305.597141 
L 638.709677 305.407485 
L 651.483871 305.465686 
L 664.258065 305.542661 
L 677.032258 305.651944 
L 689.806452 305.850032 
L 702.580645 305.851094 
L 715.354839 305.767626 
L 728.129032 305.695803 
L 740.903226 305.822499 
L 753.677419 305.807882 
L 766.451613 305.810821 
L 779.225806 305.928362 
" clip-path="url(#p99f738ebc3)" style="fill: none; stroke: #000000; stroke-width: 1.5; stroke-linecap: square"/>
   </g>
   <g id="line2d_8">
    <path d="M 0 306 
L 12.774194 306 
L 25.548387 304.003612 
L 38.322581 305.710999 
L 51.096774 306.511859 
L 63.870968 307.879371 
L 76.645161 307.257176 
L 89.419355 305.930495 
L 102.193548 306.389023 
L 114.967742 306.046646 
L 127.741935 306.490015 
L 140.516129 306.234853 
L 153.290323 305.648805 
L 166.064516 305.749573 
L 178.83871 305.710409 
L 191.612903 305.281709 
L 204.387097 304.92234 
L 217.16129 304.893757 
L 229.935484 304.810787 
L 242.709677 304.934491 
L 255.483871 304.766109 
L 268.258065 304.853452 
L 281.032258 304.986786 
L 293.806452 305.142313 
L 306.580645 305.185936 
L 319.354839 305.196692 
L 332.129032 305.081963 
L 344.903226 305.087614 
L 357.677419 305.440847 
L 370.451613 305.196524 
L 383.225806 305.207999 
L 396 305.603319 
L 408.774194 304.849417 
L 421.548387 304.802931 
L 434.322581 304.88516 
L 447.096774 304.747429 
L 459.870968 304.71835 
L 472.645161 304.719487 
L 485.419355 304.706556 
L 498.193548 304.700074 
L 510.967742 304.708775 
L 523.741935 304.785022 
L 536.516129 304.85826 
L 549.290323 304.827831 
L 562.064516 304.870982 
L 574.83871 305.003732 
L 587.612903 305.142643 
L 600.387097 305.214424 
L 613.16129 305.255543 
L 625.935484 305.484594 
L 638.709677 305.336676 
L 651.483871 305.384572 
L 664.258065 305.44733 
L 677.032258 305.535563 
L 689.806452 305.69346 
L 702.580645 305.698046 
L 715.354839 305.636832 
L 728.129032 305.58431 
L 740.903226 305.68456 
L 753.677419 305.676481 
L 766.451613 305.681691 
L 779.225806 305.774177 
" clip-path="url(#p99f738ebc3)" style="fill: none; stroke: #000000; stroke-width: 1.5; stroke-linecap: square"/>
   </g>
   <g id="line2d_9">
    <path d="M 0 306 
L 12.774194 306 
L 25.548387 304.008988 
L 38.322581 305.705403 
L 51.096774 306.501238 
L 63.870968 307.856286 
L 76.645161 307.246278 
L 89.419355 305.942328 
L 102.193548 306.390844 
L 114.967742 306.055498 
L 127.741935 306.487444 
L 140.516129 306.239229 
L 153.290323 305.669704 
L 166.064516 305.765651 
L 178.83871 305.726625 
L 191.612903 305.312409 
L 204.387097 304.965023 
L 217.16129 304.935002 
L 229.935484 304.853272 
L 242.709677 304.968901 
L 255.483871 304.806917 
L 268.258065 304.88774 
L 281.032258 305.012279 
L 293.806452 305.15792 
L 306.580645 305.198304 
L 319.354839 305.207878 
L 332.129032 305.099933 
L 344.903226 305.1045 
L 357.677419 305.433127 
L 370.451613 305.20623 
L 383.225806 305.216524 
L 396 305.581989 
L 408.774194 304.886905 
L 421.548387 304.84287 
L 434.322581 304.917106 
L 447.096774 304.789926 
L 459.870968 304.762054 
L 472.645161 304.761791 
L 485.419355 304.748803 
L 498.193548 304.741723 
L 510.967742 304.748443 
L 523.741935 304.816209 
L 536.516129 304.881348 
L 549.290323 304.853406 
L 562.064516 304.891435 
L 574.83871 305.009641 
L 587.612903 305.133426 
L 600.387097 305.197537 
L 613.16129 305.234447 
L 625.935484 305.437843 
L 638.709677 305.30818 
L 651.483871 305.351049 
L 664.258065 305.406993 
L 677.032258 305.485301 
L 689.806452 305.624625 
L 702.580645 305.630074 
L 715.354839 305.578126 
L 728.129032 305.533649 
L 740.903226 305.621638 
L 753.677419 305.615887 
L 766.451613 305.621567 
L 779.225806 305.702413 
" clip-path="url(#p99f738ebc3)" style="fill: none; stroke: #000000; stroke-width: 1.5; stroke-linecap: square"/>
   </g>
  </g>
 </g>
 <defs>
  <clipPath id="p99f738ebc3">
   <rect x="0" y="0" width="792" height="612"/>
  </clipPath>
 </defs>
</svg>
