<?xml version="1.0" encoding="utf-8" standalone="no"?>
<!DOCTYPE svg PUBLIC "-//W3C//DTD SVG 1.1//EN"
  "http://www.w3.org/Graphics/SVG/1.1/DTD/svg11.dtd">
<svg xmlns:xlink="http://www.w3.org/1999/xlink" width="792pt" height="612pt" viewBox="0 0 792 612" xmlns="http://www.w3.org/2000/svg" version="1.1">
 <metadata>
  <rdf:RDF xmlns:dc="http://purl.org/dc/elements/1.1/" xmlns:cc="http://creativecommons.org/ns#" xmlns:rdf="http://www.w3.org/1999/02/22-rdf-syntax-ns#">
   <cc:Work>
    <dc:type rdf:resource="http://purl.org/dc/dcmitype/StillImage"/>
    <dc:date>2023-01-30T17:16:42.581345</dc:date>
    <dc:format>image/svg+xml</dc:format>
    <dc:creator>
     <cc:Agent>
      <dc:title>Matplotlib v3.6.2, https://matplotlib.org/</dc:title>
     </cc:Agent>
    </dc:creator>
   </cc:Work>
  </rdf:RDF>
 </metadata>
 <defs>
  <style type="text/css">*{stroke-linejoin: round; stroke-linecap: butt}</style>
 </defs>
 <g id="figure_1">
  <g id="patch_1">
   <path d="M 0 612 
L 792 612 
L 792 0 
L 0 0 
z
" style="fill: #ffffff"/>
  </g>
  <g id="axes_1">
   <g id="line2d_1">
    <path d="M 0 459 
L 12.983607 456.827001 
L 25.967213 453.30436 
L 38.95082 454.6541 
L 51.934426 448.795097 
L 64.918033 449.387461 
L 77.901639 451.493891 
L 90.885246 454.588257 
L 103.868852 454.687022 
L 116.852459 453.863997 
L 129.836066 448.992548 
L 142.819672 447.87371 
L 155.803279 458.802453 
L 168.786885 449.288732 
L 181.770492 448.564742 
L 194.754098 460.119432 
L 207.737705 432.590853 
L 220.721311 429.114 
L 233.704918 430.75362 
L 246.688525 423.447085 
L 259.672131 420.437789 
L 272.655738 418.673 
L 285.639344 416.289185 
L 298.622951 414.16856 
L 311.606557 412.734151 
L 324.590164 414.494687 
L 337.57377 416.289185 
L 350.557377 413.190456 
L 363.540984 413.679456 
L 376.52459 418.803685 
L 389.508197 424.560009 
L 402.491803 427.114705 
L 415.47541 428.196145 
L 428.459016 439.586153 
L 441.442623 430.688022 
L 454.42623 432.426779 
L 467.409836 435.118421 
L 480.393443 439.421828 
L 493.377049 448.005331 
L 506.360656 447.840805 
L 519.344262 443.728686 
L 532.327869 440.013423 
L 545.311475 445.603548 
L 558.295082 444.649611 
L 571.278689 444.518043 
L 584.262295 452.810575 
L 597.245902 449.979857 
L 610.229508 451.164738 
L 623.213115 445.208801 
L 636.196721 444.682503 
L 649.180328 446.294402 
L 662.163934 434.757248 
L 675.147541 440.76944 
L 688.131148 441.065301 
L 701.114754 436.891878 
L 714.098361 441.229674 
L 727.081967 439.651885 
L 740.065574 442.544821 
L 753.04918 454.291966 
L 766.032787 459.63654 
L 779.016393 455.279617 
" clip-path="url(#p525eea2d2f)" style="fill: none; stroke: #000000; stroke-width: 1.5; stroke-linecap: square"/>
   </g>
   <g id="line2d_2">
    <path d="M 0 459 
L 12.983607 459 
L 25.967213 457.551328 
L 38.95082 455.124412 
L 51.934426 454.873578 
L 64.918033 451.735982 
L 77.901639 450.543027 
L 90.885246 451.022194 
L 103.868852 452.812124 
L 116.852459 453.741095 
L 129.836066 453.796737 
L 142.819672 451.385979 
L 155.803279 449.616414 
L 168.786885 454.228577 
L 181.770492 451.758251 
L 194.754098 450.155646 
L 207.737705 456.271691 
L 220.721311 444.378222 
L 233.704918 436.691445 
L 246.688525 433.685751 
L 259.672131 428.514796 
L 272.655738 424.398628 
L 285.639344 421.474516 
L 298.622951 418.817522 
L 311.606557 416.397985 
L 324.590164 414.526535 
L 337.57377 414.482025 
L 350.557377 415.357158 
L 363.540984 414.253477 
L 376.52459 413.953214 
L 389.508197 416.377505 
L 402.491803 420.481892 
L 415.47541 423.821864 
L 428.459016 426.03863 
L 441.442623 432.855959 
L 454.42623 431.800143 
L 467.409836 432.151278 
L 480.393443 433.676741 
L 493.377049 436.588913 
L 506.360656 442.340568 
L 519.344262 445.130886 
L 532.327869 444.460257 
L 545.311475 442.237284 
L 558.295082 443.94949 
L 571.278689 444.323533 
L 584.262295 444.439232 
L 597.245902 448.650302 
L 610.229508 449.318931 
L 623.213115 450.248317 
L 636.196721 447.731122 
L 649.180328 446.215832 
L 662.163934 446.256471 
L 675.147541 440.484552 
L 688.131148 440.619647 
L 701.114754 440.819459 
L 714.098361 438.829655 
L 727.081967 440.010071 
L 740.065574 439.820084 
L 753.04918 441.178106 
L 766.032787 447.748413 
L 779.016393 454.379368 
" clip-path="url(#p525eea2d2f)" style="fill: none; stroke: #000000; stroke-width: 1.5; stroke-linecap: square"/>
   </g>
   <g id="line2d_3">
    <path d="M 0 459 
L 12.983607 459 
L 25.967213 457.727081 
L 38.95082 455.723147 
L 51.934426 455.305654 
L 64.918033 452.988968 
L 77.901639 451.783313 
L 90.885246 451.690323 
L 103.868852 452.595642 
L 116.852459 453.236492 
L 129.836066 453.426211 
L 142.819672 452.098131 
L 155.803279 450.841032 
L 168.786885 453.198634 
L 181.770492 452.04432 
L 194.754098 451.019413 
L 207.737705 454.353109 
L 220.721311 447.9422 
L 233.704918 442.389011 
L 246.688525 438.952305 
L 259.672131 434.368764 
L 272.655738 430.250055 
L 285.639344 426.819519 
L 298.622951 423.690886 
L 311.606557 420.852051 
L 324.590164 418.423661 
L 337.57377 417.227239 
L 350.557377 416.915066 
L 363.540984 415.783895 
L 376.52459 415.115802 
L 389.508197 416.160561 
L 402.491803 418.590533 
L 415.47541 421.044302 
L 428.459016 423.132229 
L 441.442623 427.955794 
L 454.42623 428.755749 
L 467.409836 429.840908 
L 480.393443 431.402798 
L 493.377049 433.773853 
L 506.360656 437.974842 
L 519.344262 440.901686 
L 532.327869 441.765287 
L 545.311475 441.281539 
L 558.295082 442.580899 
L 571.278689 443.223007 
L 584.262295 443.637835 
L 597.245902 446.362673 
L 610.229508 447.451231 
L 623.213115 448.566425 
L 636.196721 447.602445 
L 649.180328 446.752965 
L 662.163934 446.636603 
L 675.147541 443.157472 
L 688.131148 442.464435 
L 701.114754 442.056493 
L 714.098361 440.530548 
L 727.081967 440.727719 
L 740.065574 440.407912 
L 753.04918 441.036626 
L 766.032787 444.926882 
L 779.016393 449.624983 
" clip-path="url(#p525eea2d2f)" style="fill: none; stroke: #000000; stroke-width: 1.5; stroke-linecap: square"/>
   </g>
   <g id="line2d_4">
    <path d="M 0 459 
L 12.983607 459 
L 25.967213 457.819591 
L 38.95082 456.047449 
L 51.934426 455.604068 
L 64.918033 453.734535 
L 77.901639 452.664514 
L 90.885246 452.399456 
L 103.868852 452.863763 
L 116.852459 453.231052 
L 129.836066 453.353379 
L 142.819672 452.538308 
L 155.803279 451.690004 
L 168.786885 452.954379 
L 181.770492 452.314545 
L 194.754098 451.669957 
L 207.737705 453.483628 
L 220.721311 449.97116 
L 233.704918 446.494351 
L 246.688525 443.890253 
L 259.672131 440.52645 
L 272.655738 437.237106 
L 285.639344 434.21026 
L 298.622951 431.298356 
L 311.606557 428.523157 
L 324.590164 425.971722 
L 337.57377 424.122097 
L 350.557377 422.862666 
L 363.540984 421.309261 
L 376.52459 420.085781 
L 389.508197 419.88062 
L 402.491803 420.628078 
L 415.47541 421.663204 
L 428.459016 422.682542 
L 441.442623 425.355837 
L 454.42623 426.189573 
L 467.409836 427.16736 
L 480.393443 428.422736 
L 493.377049 430.164503 
L 506.360656 432.996429 
L 519.344262 435.351182 
L 532.327869 436.676337 
L 545.311475 437.198501 
L 558.295082 438.532829 
L 571.278689 439.50359 
L 584.262295 440.292226 
L 597.245902 442.284754 
L 610.229508 443.509438 
L 623.213115 444.719979 
L 636.196721 444.805631 
L 649.180328 444.795769 
L 662.163934 445.043895 
L 675.147541 443.413124 
L 688.131148 443.005152 
L 701.114754 442.710488 
L 714.098361 441.79723 
L 727.081967 441.72387 
L 740.065574 441.411022 
L 753.04918 441.608959 
L 766.032787 443.649356 
L 779.016393 446.423728 
" clip-path="url(#p525eea2d2f)" style="fill: none; stroke: #000000; stroke-width: 1.5; stroke-linecap: square"/>
   </g>
   <g id="line2d_5">
    <path d="M 0 459 
L 12.983607 459 
L 25.967213 457.866455 
L 38.95082 456.21219 
L 51.934426 455.770673 
L 64.918033 454.123726 
L 77.901639 453.153963 
L 90.885246 452.850969 
L 103.868852 453.139334 
L 116.852459 453.376542 
L 129.836066 453.446348 
L 142.819672 452.844675 
L 155.803279 452.206358 
L 168.786885 453.016349 
L 181.770492 452.576028 
L 194.754098 452.118265 
L 207.737705 453.251282 
L 220.721311 451.023911 
L 233.704918 448.717995 
L 246.688525 446.868568 
L 259.672131 444.502343 
L 272.655738 442.112933 
L 285.639344 439.821958 
L 298.622951 437.554196 
L 311.606557 435.329283 
L 324.590164 433.204574 
L 337.57377 431.464743 
L 350.557377 430.067846 
L 363.540984 428.527322 
L 376.52459 427.18321 
L 389.508197 426.430947 
L 402.491803 426.264264 
L 415.47541 426.339544 
L 428.459016 426.50296 
L 441.442623 427.647239 
L 454.42623 427.912284 
L 467.409836 428.304067 
L 480.393443 428.893025 
L 493.377049 429.799509 
L 506.360656 431.361029 
L 519.344262 432.770713 
L 532.327869 433.706018 
L 545.311475 434.243295 
L 558.295082 435.208445 
L 571.278689 436.009059 
L 584.262295 436.729345 
L 597.245902 438.087727 
L 610.229508 439.090972 
L 623.213115 440.10812 
L 636.196721 440.537447 
L 649.180328 440.885944 
L 662.163934 441.340125 
L 675.147541 440.787352 
L 688.131148 440.78585 
L 701.114754 440.80926 
L 714.098361 440.48123 
L 727.081967 440.543833 
L 740.065574 440.469265 
L 753.04918 440.642639 
L 766.032787 441.781435 
L 779.016393 443.376445 
" clip-path="url(#p525eea2d2f)" style="fill: none; stroke: #000000; stroke-width: 1.5; stroke-linecap: square"/>
   </g>
   <g id="line2d_6">
    <path d="M 0 459 
L 12.983607 459 
L 25.967213 457.889964 
L 38.95082 456.294681 
L 51.934426 455.857503 
L 64.918033 454.319826 
L 77.901639 453.406119 
L 90.885246 453.09618 
L 103.868852 453.312153 
L 116.852459 453.492683 
L 129.836066 453.537459 
L 142.819672 453.02907 
L 155.803279 452.489825 
L 168.786885 453.111285 
L 181.770492 452.75486 
L 194.754098 452.383054 
L 207.737705 453.228774 
L 220.721311 451.547988 
L 233.704918 449.788832 
L 246.688525 448.348181 
L 259.672131 446.52264 
L 272.655738 444.6667 
L 285.639344 442.868255 
L 298.622951 441.076419 
L 311.606557 439.305862 
L 324.590164 437.596774 
L 337.57377 436.142993 
L 350.557377 434.919017 
L 363.540984 433.603977 
L 376.52459 432.419598 
L 389.508197 431.624436 
L 402.491803 431.218725 
L 415.47541 430.986604 
L 428.459016 430.831004 
L 441.442623 431.312124 
L 454.42623 431.278219 
L 467.409836 431.339867 
L 480.393443 431.540354 
L 493.377049 431.953939 
L 506.360656 432.787241 
L 519.344262 433.561411 
L 532.327869 434.07979 
L 545.311475 434.379843 
L 558.295082 434.942541 
L 571.278689 435.42551 
L 584.262295 435.874609 
L 597.245902 436.704869 
L 610.229508 437.351496 
L 623.213115 438.020091 
L 636.196721 438.366103 
L 649.180328 438.668409 
L 662.163934 439.03137 
L 675.147541 438.828792 
L 688.131148 438.920262 
L 701.114754 439.020887 
L 714.098361 438.921425 
L 727.081967 439.028754 
L 740.065574 439.057614 
L 753.04918 439.218453 
L 766.032787 439.910609 
L 779.016393 440.871305 
" clip-path="url(#p525eea2d2f)" style="fill: none; stroke: #000000; stroke-width: 1.5; stroke-linecap: square"/>
   </g>
   <g id="line2d_7">
    <path d="M 0 459 
L 12.983607 459 
L 25.967213 457.901728 
L 38.95082 456.335889 
L 51.934426 455.901675 
L 64.918033 454.417893 
L 77.901639 453.533325 
L 90.885246 453.222692 
L 103.868852 453.4066 
L 116.852459 453.561499 
L 129.836066 453.594781 
L 142.819672 453.129566 
L 155.803279 452.637453 
L 168.786885 453.175672 
L 181.770492 452.857234 
L 194.754098 452.525621 
L 207.737705 453.244879 
L 220.721311 451.80644 
L 233.704918 450.298103 
L 246.688525 449.055095 
L 259.672131 447.490953 
L 272.655738 445.900758 
L 285.639344 444.357362 
L 298.622951 442.81978 
L 311.606557 441.30022 
L 324.590164 439.831065 
L 337.57377 438.566202 
L 350.557377 437.485111 
L 363.540984 436.336531 
L 376.52459 435.292371 
L 389.508197 434.551362 
L 402.491803 434.113031 
L 415.47541 433.81285 
L 428.459016 433.577026 
L 441.442623 433.823921 
L 454.42623 433.697436 
L 467.409836 433.647147 
L 480.393443 433.70432 
L 493.377049 433.922597 
L 506.360656 434.450999 
L 519.344262 434.94546 
L 532.327869 435.264963 
L 545.311475 435.435208 
L 558.295082 435.794418 
L 571.278689 436.102977 
L 584.262295 436.392323 
L 597.245902 436.949336 
L 610.229508 437.386038 
L 623.213115 437.842277 
L 636.196721 438.083476 
L 649.180328 438.297138 
L 662.163934 438.553238 
L 675.147541 438.432829 
L 688.131148 438.506148 
L 701.114754 438.585658 
L 714.098361 438.533517 
L 727.081967 438.615713 
L 740.065574 438.647023 
L 753.04918 438.763747 
L 766.032787 439.224492 
L 779.016393 439.862534 
" clip-path="url(#p525eea2d2f)" style="fill: none; stroke: #000000; stroke-width: 1.5; stroke-linecap: square"/>
   </g>
   <g id="line2d_8">
    <path d="M 0 459 
L 12.983607 459 
L 25.967213 457.907611 
L 38.95082 456.356475 
L 51.934426 455.923934 
L 64.918033 454.466884 
L 77.901639 453.597114 
L 90.885246 453.286787 
L 103.868852 453.4557 
L 116.852459 453.598511 
L 129.836066 453.626372 
L 142.819672 453.181872 
L 155.803279 452.71262 
L 168.786885 453.212056 
L 181.770492 452.911629 
L 194.754098 452.599308 
L 207.737705 453.259945 
L 220.721311 451.934347 
L 233.704918 450.544346 
L 246.688525 449.396534 
L 259.672131 447.958117 
L 272.655738 446.497109 
L 285.639344 445.079432 
L 298.622951 443.668531 
L 311.606557 442.275459 
L 324.590164 440.929017 
L 337.57377 439.764929 
L 350.557377 438.764622 
L 363.540984 437.707901 
L 376.52459 436.744488 
L 389.508197 436.046203 
L 402.491803 435.611744 
L 415.47541 435.29892 
L 428.459016 435.044099 
L 441.442623 435.202856 
L 454.42623 435.048626 
L 467.409836 434.961127 
L 480.393443 434.966259 
L 493.377049 435.108451 
L 506.360656 435.511228 
L 519.344262 435.888578 
L 532.327869 436.123936 
L 545.311475 436.238531 
L 558.295082 436.509259 
L 571.278689 436.74041 
L 584.262295 436.95744 
L 597.245902 437.39213 
L 610.229508 437.731691 
L 623.213115 438.088258 
L 636.196721 438.274405 
L 649.180328 438.439399 
L 662.163934 438.63864 
L 675.147541 438.541505 
L 688.131148 438.596445 
L 701.114754 438.656491 
L 714.098361 438.61413 
L 727.081967 438.676072 
L 740.065574 438.698891 
L 753.04918 438.78768 
L 766.032787 439.141007 
L 779.016393 439.631097 
" clip-path="url(#p525eea2d2f)" style="fill: none; stroke: #000000; stroke-width: 1.5; stroke-linecap: square"/>
   </g>
   <g id="line2d_9">
    <path d="M 0 459 
L 12.983607 459 
L 25.967213 457.910553 
L 38.95082 456.366763 
L 51.934426 455.935104 
L 64.918033 454.491364 
L 77.901639 453.629043 
L 90.885246 453.319027 
L 103.868852 453.4807 
L 116.852459 453.617653 
L 129.836066 453.642892 
L 142.819672 453.208533 
L 155.803279 452.750523 
L 168.786885 453.231279 
L 181.770492 452.939613 
L 194.754098 452.636725 
L 207.737705 453.269228 
L 220.721311 451.997917 
L 233.704918 450.66517 
L 246.688525 449.563827 
L 259.672131 448.186711 
L 272.655738 446.788959 
L 285.639344 445.433183 
L 298.622951 444.084915 
L 311.606557 442.754652 
L 324.590164 441.469493 
L 337.57377 440.35657 
L 350.557377 439.398177 
L 363.540984 438.388686 
L 376.52459 437.467435 
L 389.508197 436.793615 
L 402.491803 436.365455 
L 415.47541 436.051104 
L 428.459016 435.791636 
L 441.442623 435.913452 
L 454.42623 435.749903 
L 467.409836 435.648541 
L 480.393443 435.632772 
L 493.377049 435.742754 
L 506.360656 436.090232 
L 519.344262 436.415742 
L 532.327869 436.613967 
L 545.311475 436.704185 
L 558.295082 436.935367 
L 571.278689 437.131737 
L 584.262295 437.316066 
L 597.245902 437.695121 
L 610.229508 437.990082 
L 623.213115 438.300613 
L 636.196721 438.4606 
L 649.180328 438.602184 
L 662.163934 438.774221 
L 675.147541 438.685789 
L 688.131148 438.730884 
L 701.114754 438.780597 
L 714.098361 438.740989 
L 727.081967 438.792358 
L 740.065574 438.809835 
L 753.04918 438.884645 
L 766.032787 439.188572 
L 779.016393 439.610903 
" clip-path="url(#p525eea2d2f)" style="fill: none; stroke: #000000; stroke-width: 1.5; stroke-linecap: square"/>
   </g>
  </g>
 </g>
 <defs>
  <clipPath id="p525eea2d2f">
   <rect x="0" y="0" width="792" height="612"/>
  </clipPath>
 </defs>
</svg>
