<?xml version="1.0" encoding="utf-8" standalone="no"?>
<!DOCTYPE svg PUBLIC "-//W3C//DTD SVG 1.1//EN"
  "http://www.w3.org/Graphics/SVG/1.1/DTD/svg11.dtd">
<svg xmlns:xlink="http://www.w3.org/1999/xlink" width="792pt" height="612pt" viewBox="0 0 792 612" xmlns="http://www.w3.org/2000/svg" version="1.1">
 <metadata>
  <rdf:RDF xmlns:dc="http://purl.org/dc/elements/1.1/" xmlns:cc="http://creativecommons.org/ns#" xmlns:rdf="http://www.w3.org/1999/02/22-rdf-syntax-ns#">
   <cc:Work>
    <dc:type rdf:resource="http://purl.org/dc/dcmitype/StillImage"/>
    <dc:date>2023-01-16T16:11:19.631398</dc:date>
    <dc:format>image/svg+xml</dc:format>
    <dc:creator>
     <cc:Agent>
      <dc:title>Matplotlib v3.6.2, https://matplotlib.org/</dc:title>
     </cc:Agent>
    </dc:creator>
   </cc:Work>
  </rdf:RDF>
 </metadata>
 <defs>
  <style type="text/css">*{stroke-linejoin: round; stroke-linecap: butt}</style>
 </defs>
 <g id="figure_1">
  <g id="patch_1">
   <path d="M 0 612 
L 792 612 
L 792 0 
L 0 0 
z
" style="fill: #ffffff"/>
  </g>
  <g id="axes_1">
   <g id="line2d_1">
    <path d="M 0 459 
L 12.983607 449.323197 
L 25.967213 450.650385 
L 38.95082 449.497818 
L 51.934426 440.038657 
L 64.918033 430.943675 
L 77.901639 428.64701 
L 90.885246 424.926919 
L 103.868852 426.35187 
L 116.852459 420.170442 
L 129.836066 420.794924 
L 142.819672 423.016442 
L 155.803279 426.282345 
L 168.786885 426.386633 
L 181.770492 425.517674 
L 194.754098 420.378587 
L 207.737705 419.199315 
L 220.721311 430.734828 
L 233.704918 420.690834 
L 246.688525 419.927627 
L 259.672131 434.495802 
L 272.655738 403.130643 
L 285.639344 399.485588 
L 298.622951 401.204032 
L 311.606557 393.55315 
L 324.590164 390.407262 
L 337.57377 388.563807 
L 350.557377 386.075435 
L 363.540984 383.863452 
L 376.52459 382.368135 
L 389.508197 384.203527 
L 402.491803 386.075435 
L 415.47541 382.843738 
L 428.459016 383.353499 
L 441.442623 388.700281 
L 454.42623 394.717368 
L 467.409836 397.391387 
L 480.393443 398.523997 
L 493.377049 410.476346 
L 506.360656 401.135262 
L 519.344262 402.958542 
L 532.327869 405.782986 
L 545.311475 410.303608 
L 558.295082 419.338025 
L 571.278689 419.164638 
L 584.262295 414.833805 
L 597.245902 410.92553 
L 610.229508 416.807728 
L 623.213115 415.80325 
L 636.196721 415.664734 
L 649.180328 421.419549 
L 662.163934 422.669216 
L 675.147541 416.392032 
L 688.131148 415.837881 
L 701.114754 417.535364 
L 714.098361 405.403855 
L 727.081967 411.720468 
L 740.065574 412.031608 
L 753.04918 407.645233 
L 766.032787 412.204483 
L 779.016393 410.545445 
" clip-path="url(#p90900a0938)" style="fill: none; stroke: #000000; stroke-width: 1.5; stroke-linecap: square"/>
   </g>
   <g id="line2d_2">
    <path d="M 0 459 
L 12.983607 459 
L 25.967213 452.548267 
L 38.95082 451.463732 
L 51.934426 450.415205 
L 64.918033 445.057801 
L 77.901639 437.883738 
L 90.885246 433.226394 
L 103.868852 429.057926 
L 116.852459 427.640799 
L 129.836066 423.846277 
L 142.819672 422.261856 
L 155.803279 422.587385 
L 168.786885 424.407395 
L 181.770492 425.38793 
L 194.754098 425.446668 
L 207.737705 422.902602 
L 220.721311 421.03632 
L 233.704918 425.902576 
L 246.688525 423.295343 
L 259.672131 421.604922 
L 272.655738 428.060324 
L 285.639344 415.517535 
L 298.622951 407.434713 
L 311.606557 404.279335 
L 324.590164 398.857799 
L 337.57377 394.548524 
L 350.557377 391.490698 
L 363.540984 388.714731 
L 376.52459 386.188965 
L 389.508197 384.236738 
L 402.491803 384.190322 
L 415.47541 385.103063 
L 428.459016 383.951997 
L 441.442623 383.638916 
L 454.42623 386.167594 
L 467.409836 390.453344 
L 480.393443 393.945156 
L 493.377049 396.264784 
L 506.360656 403.408738 
L 519.344262 402.30133 
L 532.327869 402.669583 
L 545.311475 404.26988 
L 558.295082 407.327027 
L 571.278689 413.37306 
L 584.262295 416.309988 
L 597.245902 415.603898 
L 610.229508 413.264396 
L 623.213115 415.066219 
L 636.196721 415.459962 
L 649.180328 415.581764 
L 662.163934 418.520826 
L 675.147541 420.600762 
L 688.131148 418.490101 
L 701.114754 417.165609 
L 714.098361 417.363457 
L 727.081967 411.35312 
L 740.065574 411.528789 
L 753.04918 411.773067 
L 766.032787 409.68119 
L 779.016393 410.922007 
" clip-path="url(#p90900a0938)" style="fill: none; stroke: #000000; stroke-width: 1.5; stroke-linecap: square"/>
   </g>
   <g id="line2d_3">
    <path d="M 0 459 
L 12.983607 459 
L 25.967213 453.330908 
L 38.95082 452.116353 
L 51.934426 451.093689 
L 64.918033 447.158721 
L 77.901639 441.725667 
L 90.885246 437.519513 
L 103.868852 433.580961 
L 116.852459 431.364195 
L 129.836066 427.975761 
L 142.819672 425.823254 
L 155.803279 424.987839 
L 168.786885 425.371171 
L 181.770492 425.670901 
L 194.754098 425.625772 
L 207.737705 424.081907 
L 220.721311 422.605413 
L 233.704918 424.963043 
L 246.688525 423.676786 
L 259.672131 422.544312 
L 272.655738 426.034059 
L 285.639344 419.271493 
L 298.622951 413.424027 
L 311.606557 409.810095 
L 324.590164 404.996104 
L 337.57377 400.676163 
L 350.557377 397.082301 
L 363.540984 393.808153 
L 376.52459 390.840144 
L 389.508197 388.30344 
L 402.491803 387.054399 
L 415.47541 386.728578 
L 428.459016 385.548235 
L 441.442623 384.851308 
L 454.42623 385.941226 
L 467.409836 388.477691 
L 480.393443 391.041057 
L 493.377049 393.223858 
L 506.360656 398.272239 
L 519.344262 399.110233 
L 532.327869 400.247331 
L 545.311475 401.884664 
L 558.295082 404.371783 
L 571.278689 408.782917 
L 584.262295 411.85954 
L 597.245902 412.767858 
L 610.229508 412.259032 
L 623.213115 413.625922 
L 636.196721 414.301598 
L 649.180328 414.738182 
L 662.163934 416.73108 
L 675.147541 418.501187 
L 688.131148 417.905182 
L 701.114754 417.319485 
L 714.098361 417.390832 
L 727.081967 413.878174 
L 740.065574 413.256075 
L 753.04918 412.904559 
L 766.032787 411.359751 
L 779.016393 411.598955 
" clip-path="url(#p90900a0938)" style="fill: none; stroke: #000000; stroke-width: 1.5; stroke-linecap: square"/>
   </g>
   <g id="line2d_4">
    <path d="M 0 459 
L 12.983607 459 
L 25.967213 453.74288 
L 38.95082 452.529114 
L 51.934426 451.56446 
L 64.918033 448.398746 
L 77.901639 444.097899 
L 90.885246 440.595314 
L 103.868852 437.266614 
L 116.852459 435.06541 
L 129.836066 432.181745 
L 142.819672 430.050784 
L 155.803279 428.770597 
L 168.786885 428.328072 
L 181.770492 427.989151 
L 194.754098 427.564225 
L 207.737705 426.343557 
L 220.721311 425.142622 
L 233.704918 426.072846 
L 246.688525 425.18283 
L 259.672131 424.319087 
L 272.655738 425.979862 
L 285.639344 422.248029 
L 298.622951 418.542456 
L 311.606557 415.730826 
L 324.590164 412.138666 
L 337.57377 408.625469 
L 350.557377 405.388392 
L 363.540984 402.276569 
L 376.52459 399.313469 
L 389.508197 396.590003 
L 402.491803 394.603344 
L 415.47541 393.237992 
L 428.459016 391.532395 
L 441.442623 390.187366 
L 454.42623 389.912549 
L 467.409836 390.642326 
L 480.393443 391.687927 
L 493.377049 392.753612 
L 506.360656 395.550132 
L 519.344262 396.422791 
L 532.327869 397.446524 
L 545.311475 398.761359 
L 558.295082 400.58649 
L 571.278689 403.5561 
L 584.262295 406.027341 
L 597.245902 407.418845 
L 610.229508 407.96731 
L 623.213115 409.369246 
L 636.196721 410.389555 
L 649.180328 411.218665 
L 662.163934 412.839194 
L 675.147541 414.402272 
L 688.131148 414.707487 
L 701.114754 414.895249 
L 714.098361 415.326407 
L 727.081967 413.747321 
L 740.065574 413.436117 
L 753.04918 413.226172 
L 766.032787 412.349261 
L 779.016393 412.342644 
" clip-path="url(#p90900a0938)" style="fill: none; stroke: #000000; stroke-width: 1.5; stroke-linecap: square"/>
   </g>
   <g id="line2d_5">
    <path d="M 0 459 
L 12.983607 459 
L 25.967213 453.951577 
L 38.95082 452.754504 
L 51.934426 451.831592 
L 64.918033 449.046254 
L 77.901639 445.335779 
L 90.885246 442.285899 
L 103.868852 439.399785 
L 116.852459 437.397326 
L 129.836066 434.92542 
L 142.819672 433.01348 
L 155.803279 431.728394 
L 168.786885 431.0591 
L 181.770492 430.506912 
L 194.754098 429.937257 
L 207.737705 428.878083 
L 220.721311 427.834403 
L 233.704918 428.139089 
L 246.688525 427.372464 
L 259.672131 426.621064 
L 272.655738 427.400302 
L 285.639344 425.024245 
L 298.622951 422.558315 
L 311.606557 420.524485 
L 324.590164 417.981773 
L 337.57377 415.408616 
L 350.557377 412.927439 
L 363.540984 410.46662 
L 376.52459 408.047514 
L 389.508197 405.729355 
L 402.491803 403.800984 
L 415.47541 402.224182 
L 428.459016 400.508543 
L 441.442623 398.998368 
L 454.42623 398.097783 
L 467.409836 397.803977 
L 480.393443 397.768283 
L 493.377049 397.833412 
L 506.360656 398.916327 
L 519.344262 399.10632 
L 532.327869 399.435144 
L 545.311475 399.97534 
L 558.295082 400.851504 
L 571.278689 402.413928 
L 584.262295 403.827651 
L 597.245902 404.756108 
L 610.229508 405.276285 
L 623.213115 406.2461 
L 636.196721 407.04917 
L 649.180328 407.772408 
L 662.163934 408.915702 
L 675.147541 410.0668 
L 688.131148 410.596455 
L 701.114754 411.035082 
L 714.098361 411.578506 
L 727.081967 411.061303 
L 740.065574 411.116398 
L 753.04918 411.192844 
L 766.032787 410.896395 
L 779.016393 411.005534 
" clip-path="url(#p90900a0938)" style="fill: none; stroke: #000000; stroke-width: 1.5; stroke-linecap: square"/>
   </g>
   <g id="line2d_6">
    <path d="M 0 459 
L 12.983607 459 
L 25.967213 454.05627 
L 38.95082 452.871371 
L 51.934426 451.972333 
L 64.918033 449.37309 
L 77.901639 445.955401 
L 90.885246 443.146317 
L 103.868852 440.504567 
L 116.852459 438.643566 
L 129.836066 436.411204 
L 142.819672 434.661341 
L 155.803279 433.441774 
L 168.786885 432.736257 
L 181.770492 432.143807 
L 194.754098 431.555431 
L 207.737705 430.606251 
L 220.721311 429.676848 
L 233.704918 429.759672 
L 246.688525 429.073339 
L 259.672131 428.403392 
L 272.655738 428.835448 
L 285.639344 427.053813 
L 298.622951 425.191344 
L 311.606557 423.610984 
L 324.590164 421.672311 
L 337.57377 419.697425 
L 350.557377 417.76955 
L 363.540984 415.842866 
L 376.52459 413.932375 
L 389.508197 412.077673 
L 402.491803 410.466818 
L 415.47541 409.079219 
L 428.459016 407.606423 
L 441.442623 406.263448 
L 454.42623 405.30486 
L 467.409836 404.734923 
L 480.393443 404.344363 
L 493.377049 404.038206 
L 506.360656 404.372441 
L 519.344262 404.205586 
L 532.327869 404.141922 
L 545.311475 404.224924 
L 558.295082 404.529552 
L 571.278689 405.264555 
L 584.262295 405.949558 
L 597.245902 406.384786 
L 610.229508 406.605966 
L 623.213115 407.099153 
L 636.196721 407.517543 
L 649.180328 407.906971 
L 662.163934 408.548658 
L 675.147541 409.215681 
L 688.131148 409.553463 
L 701.114754 409.847923 
L 714.098361 410.206402 
L 727.081967 409.982799 
L 740.065574 410.063252 
L 753.04918 410.154025 
L 766.032787 410.038644 
L 779.016393 410.137794 
" clip-path="url(#p90900a0938)" style="fill: none; stroke: #000000; stroke-width: 1.5; stroke-linecap: square"/>
   </g>
   <g id="line2d_7">
    <path d="M 0 459 
L 12.983607 459 
L 25.967213 454.108659 
L 38.95082 452.930761 
L 51.934426 452.044362 
L 64.918033 449.536755 
L 77.901639 446.263717 
L 90.885246 443.576873 
L 103.868852 441.060772 
L 116.852459 439.278746 
L 129.836066 437.171781 
L 142.819672 435.513326 
L 155.803279 434.341659 
L 168.786885 433.637303 
L 181.770492 433.042836 
L 194.754098 432.461019 
L 207.737705 431.575615 
L 220.721311 430.7132 
L 233.704918 430.714635 
L 246.688525 430.07709 
L 259.672131 429.45759 
L 272.655738 429.752798 
L 285.639344 428.240909 
L 298.622951 426.662179 
L 311.606557 425.310112 
L 324.590164 423.672103 
L 337.57377 422.004911 
L 350.557377 420.374549 
L 363.540984 418.745427 
L 376.52459 417.129403 
L 389.508197 415.557129 
L 402.491803 414.172519 
L 415.47541 412.959836 
L 428.459016 411.686272 
L 441.442623 410.512662 
L 454.42623 409.628213 
L 467.409836 409.035942 
L 480.393443 408.582041 
L 493.377049 408.196855 
L 506.360656 408.282451 
L 519.344262 408.01773 
L 532.327869 407.833311 
L 545.311475 407.759729 
L 558.295082 407.849626 
L 571.278689 408.249262 
L 584.262295 408.623979 
L 597.245902 408.834633 
L 610.229508 408.904747 
L 623.213115 409.166254 
L 636.196721 409.383386 
L 649.180328 409.586596 
L 662.163934 409.964836 
L 675.147541 410.366607 
L 688.131148 410.555471 
L 701.114754 410.719438 
L 714.098361 410.92892 
L 727.081967 410.760223 
L 740.065574 410.789236 
L 753.04918 410.826442 
L 766.032787 410.731881 
L 779.016393 410.775249 
" clip-path="url(#p90900a0938)" style="fill: none; stroke: #000000; stroke-width: 1.5; stroke-linecap: square"/>
   </g>
   <g id="line2d_8">
    <path d="M 0 459 
L 12.983607 459 
L 25.967213 454.134859 
L 38.95082 452.960683 
L 51.934426 452.080772 
L 64.918033 449.618583 
L 77.901639 446.417295 
L 90.885246 443.791796 
L 103.868852 441.339064 
L 116.852459 439.598224 
L 129.836066 437.55491 
L 142.819672 435.944232 
L 155.803279 434.79981 
L 168.786885 434.100494 
L 181.770492 433.509326 
L 194.754098 432.934641 
L 207.737705 432.083092 
L 220.721311 431.256296 
L 233.704918 431.22458 
L 246.688525 430.613574 
L 259.672131 430.021613 
L 272.655738 430.2584 
L 285.639344 428.873554 
L 298.622951 427.430073 
L 311.606557 426.189819 
L 324.590164 424.697865 
L 337.57377 423.181761 
L 350.557377 421.699742 
L 363.540984 420.220724 
L 376.52459 418.755121 
L 389.508197 417.329539 
L 402.491803 416.068082 
L 415.47541 414.956797 
L 428.459016 413.796158 
L 441.442623 412.723168 
L 454.42623 411.89794 
L 467.409836 411.322309 
L 480.393443 410.86625 
L 493.377049 410.470995 
L 506.360656 410.471163 
L 519.344262 410.184477 
L 532.327869 409.967021 
L 545.311475 409.843579 
L 558.295082 409.856888 
L 571.278689 410.125766 
L 584.262295 410.377682 
L 597.245902 410.499897 
L 610.229508 410.511389 
L 623.213115 410.678465 
L 636.196721 410.81237 
L 649.180328 410.937244 
L 662.163934 411.202721 
L 675.147541 411.488892 
L 688.131148 411.609699 
L 701.114754 411.712463 
L 714.098361 411.852048 
L 727.081967 411.699076 
L 740.065574 411.699576 
L 753.04918 411.707244 
L 766.032787 411.614489 
L 779.016393 411.627787 
" clip-path="url(#p90900a0938)" style="fill: none; stroke: #000000; stroke-width: 1.5; stroke-linecap: square"/>
   </g>
   <g id="line2d_9">
    <path d="M 0 459 
L 12.983607 459 
L 25.967213 454.14796 
L 38.95082 452.975699 
L 51.934426 452.099073 
L 64.918033 449.659487 
L 77.901639 446.493912 
L 90.885246 443.899114 
L 103.868852 441.478161 
L 116.852459 439.75829 
L 129.836066 437.746978 
L 142.819672 436.160633 
L 155.803279 435.030583 
L 168.786885 434.334837 
L 181.770492 433.746341 
L 194.754098 433.176139 
L 207.737705 432.341954 
L 220.721311 431.533425 
L 233.704918 431.486982 
L 246.688525 430.889738 
L 259.672131 430.312065 
L 272.655738 430.522155 
L 285.639344 429.198749 
L 298.622951 427.82097 
L 311.606557 426.635671 
L 324.590164 425.215158 
L 337.57377 423.773245 
L 350.557377 422.364501 
L 363.540984 420.959938 
L 376.52459 419.569291 
L 389.508197 418.217262 
L 402.491803 417.018674 
L 415.47541 415.960346 
L 428.459016 414.858203 
L 441.442623 413.838197 
L 454.42623 413.046908 
L 467.409836 412.485524 
L 480.393443 412.03492 
L 493.377049 411.641317 
L 506.360656 411.608262 
L 519.344262 411.317118 
L 532.327869 411.089948 
L 545.311475 410.948886 
L 558.295082 410.932108 
L 571.278689 411.145855 
L 584.262295 411.345761 
L 597.245902 411.431128 
L 610.229508 411.418975 
L 623.213115 411.545972 
L 636.196721 411.644534 
L 649.180328 411.735986 
L 662.163934 411.952266 
L 675.147541 412.187586 
L 688.131148 412.278515 
L 701.114754 412.354272 
L 714.098361 412.462785 
L 727.081967 412.316813 
L 740.065574 412.304685 
L 753.04918 412.299213 
L 766.032787 412.207213 
L 779.016393 412.20716 
" clip-path="url(#p90900a0938)" style="fill: none; stroke: #000000; stroke-width: 1.5; stroke-linecap: square"/>
   </g>
  </g>
 </g>
 <defs>
  <clipPath id="p90900a0938">
   <rect x="0" y="0" width="792" height="612"/>
  </clipPath>
 </defs>
</svg>
